<?xml version="1.0" encoding="UTF-8" standalone="no"?>
<!DOCTYPE svg PUBLIC "-//W3C//DTD SVG 1.1//EN"
 "http://www.w3.org/Graphics/SVG/1.1/DTD/svg11.dtd">
<!-- Generated by graphviz version 12.0.0 (20240803.0821)
 -->
<!-- Title: Tree Pages: 1 -->
<svg width="1392pt" height="565pt"
 viewBox="0.00 0.00 1391.50 565.00" xmlns="http://www.w3.org/2000/svg" xmlns:xlink="http://www.w3.org/1999/xlink">
<g id="graph0" class="graph" transform="scale(1 1) rotate(0) translate(4 561)">
<title>Tree</title>
<polygon fill="white" stroke="none" points="-4,4 -4,-561 1387.5,-561 1387.5,4 -4,4"/>
<!-- 0 -->
<g id="node1" class="node">
<title>0</title>
<path fill="#fefeff" stroke="black" d="M798,-557C798,-557 638,-557 638,-557 632,-557 626,-551 626,-545 626,-545 626,-474.75 626,-474.75 626,-468.75 632,-462.75 638,-462.75 638,-462.75 798,-462.75 798,-462.75 804,-462.75 810,-468.75 810,-474.75 810,-474.75 810,-545 810,-545 810,-551 804,-557 798,-557"/>
<text text-anchor="middle" x="718" y="-539.7" font-family="Helvetica,sans-Serif" font-size="14.00">22_A &lt;= 0.5</text>
<text text-anchor="middle" x="718" y="-522.45" font-family="Helvetica,sans-Serif" font-size="14.00">entropy = 1.0</text>
<text text-anchor="middle" x="718" y="-505.2" font-family="Helvetica,sans-Serif" font-size="14.00">samples = 38134</text>
<text text-anchor="middle" x="718" y="-487.95" font-family="Helvetica,sans-Serif" font-size="14.00">value = [30070, 30275]</text>
<text text-anchor="middle" x="718" y="-470.7" font-family="Helvetica,sans-Serif" font-size="14.00">class = Plant</text>
</g>
<!-- 1 -->
<g id="node2" class="node">
<title>1</title>
<path fill="#eaf4fc" stroke="black" d="M625,-426.75C625,-426.75 465,-426.75 465,-426.75 459,-426.75 453,-420.75 453,-414.75 453,-414.75 453,-344.5 453,-344.5 453,-338.5 459,-332.5 465,-332.5 465,-332.5 625,-332.5 625,-332.5 631,-332.5 637,-338.5 637,-344.5 637,-344.5 637,-414.75 637,-414.75 637,-420.75 631,-426.75 625,-426.75"/>
<text text-anchor="middle" x="545" y="-409.45" font-family="Helvetica,sans-Serif" font-size="14.00">2_A &lt;= 0.5</text>
<text text-anchor="middle" x="545" y="-392.2" font-family="Helvetica,sans-Serif" font-size="14.00">entropy = 0.998</text>
<text text-anchor="middle" x="545" y="-374.95" font-family="Helvetica,sans-Serif" font-size="14.00">samples = 33899</text>
<text text-anchor="middle" x="545" y="-357.7" font-family="Helvetica,sans-Serif" font-size="14.00">value = [25285, 28352]</text>
<text text-anchor="middle" x="545" y="-340.45" font-family="Helvetica,sans-Serif" font-size="14.00">class = Plant</text>
</g>
<!-- 0&#45;&gt;1 -->
<g id="edge1" class="edge">
<title>0&#45;&gt;1</title>
<path fill="none" stroke="black" d="M655.54,-462.57C643,-453.28 629.73,-443.44 616.9,-433.93"/>
<polygon fill="black" stroke="black" points="618.99,-431.12 608.87,-427.97 614.82,-436.74 618.99,-431.12"/>
<text text-anchor="middle" x="611.33" y="-447.13" font-family="Helvetica,sans-Serif" font-size="14.00">True</text>
</g>
<!-- 14932 -->
<g id="node17" class="node">
<title>14932</title>
<path fill="#efb489" stroke="black" d="M964,-426.75C964,-426.75 822,-426.75 822,-426.75 816,-426.75 810,-420.75 810,-414.75 810,-414.75 810,-344.5 810,-344.5 810,-338.5 816,-332.5 822,-332.5 822,-332.5 964,-332.5 964,-332.5 970,-332.5 976,-338.5 976,-344.5 976,-344.5 976,-414.75 976,-414.75 976,-420.75 970,-426.75 964,-426.75"/>
<text text-anchor="middle" x="893" y="-409.45" font-family="Helvetica,sans-Serif" font-size="14.00">2_G &lt;= 0.5</text>
<text text-anchor="middle" x="893" y="-392.2" font-family="Helvetica,sans-Serif" font-size="14.00">entropy = 0.864</text>
<text text-anchor="middle" x="893" y="-374.95" font-family="Helvetica,sans-Serif" font-size="14.00">samples = 4235</text>
<text text-anchor="middle" x="893" y="-357.7" font-family="Helvetica,sans-Serif" font-size="14.00">value = [4785, 1923]</text>
<text text-anchor="middle" x="893" y="-340.45" font-family="Helvetica,sans-Serif" font-size="14.00">class = Animal</text>
</g>
<!-- 0&#45;&gt;14932 -->
<g id="edge16" class="edge">
<title>0&#45;&gt;14932</title>
<path fill="none" stroke="black" d="M781.18,-462.57C793.99,-453.19 807.55,-443.25 820.64,-433.65"/>
<polygon fill="black" stroke="black" points="822.4,-436.7 828.4,-427.97 818.26,-431.06 822.4,-436.7"/>
<text text-anchor="middle" x="825.81" y="-447.11" font-family="Helvetica,sans-Serif" font-size="14.00">False</text>
</g>
<!-- 2 -->
<g id="node3" class="node">
<title>2</title>
<path fill="#d1e8f9" stroke="black" d="M356,-296.5C356,-296.5 196,-296.5 196,-296.5 190,-296.5 184,-290.5 184,-284.5 184,-284.5 184,-214.25 184,-214.25 184,-208.25 190,-202.25 196,-202.25 196,-202.25 356,-202.25 356,-202.25 362,-202.25 368,-208.25 368,-214.25 368,-214.25 368,-284.5 368,-284.5 368,-290.5 362,-296.5 356,-296.5"/>
<text text-anchor="middle" x="276" y="-279.2" font-family="Helvetica,sans-Serif" font-size="14.00">23_C &lt;= 0.5</text>
<text text-anchor="middle" x="276" y="-261.95" font-family="Helvetica,sans-Serif" font-size="14.00">entropy = 0.988</text>
<text text-anchor="middle" x="276" y="-244.7" font-family="Helvetica,sans-Serif" font-size="14.00">samples = 26103</text>
<text text-anchor="middle" x="276" y="-227.45" font-family="Helvetica,sans-Serif" font-size="14.00">value = [17915, 23288]</text>
<text text-anchor="middle" x="276" y="-210.2" font-family="Helvetica,sans-Serif" font-size="14.00">class = Plant</text>
</g>
<!-- 1&#45;&gt;2 -->
<g id="edge2" class="edge">
<title>1&#45;&gt;2</title>
<path fill="none" stroke="black" d="M452.8,-334.67C428.85,-323.25 402.9,-310.88 378.45,-299.22"/>
<polygon fill="black" stroke="black" points="379.98,-296.07 369.44,-294.93 376.96,-302.39 379.98,-296.07"/>
</g>
<!-- 11295 -->
<g id="node10" class="node">
<title>11295</title>
<path fill="#f7d8c1" stroke="black" d="M616,-296.5C616,-296.5 474,-296.5 474,-296.5 468,-296.5 462,-290.5 462,-284.5 462,-284.5 462,-214.25 462,-214.25 462,-208.25 468,-202.25 474,-202.25 474,-202.25 616,-202.25 616,-202.25 622,-202.25 628,-208.25 628,-214.25 628,-214.25 628,-284.5 628,-284.5 628,-290.5 622,-296.5 616,-296.5"/>
<text text-anchor="middle" x="545" y="-279.2" font-family="Helvetica,sans-Serif" font-size="14.00">14_C &lt;= 0.5</text>
<text text-anchor="middle" x="545" y="-261.95" font-family="Helvetica,sans-Serif" font-size="14.00">entropy = 0.975</text>
<text text-anchor="middle" x="545" y="-244.7" font-family="Helvetica,sans-Serif" font-size="14.00">samples = 7796</text>
<text text-anchor="middle" x="545" y="-227.45" font-family="Helvetica,sans-Serif" font-size="14.00">value = [7370, 5064]</text>
<text text-anchor="middle" x="545" y="-210.2" font-family="Helvetica,sans-Serif" font-size="14.00">class = Animal</text>
</g>
<!-- 1&#45;&gt;11295 -->
<g id="edge9" class="edge">
<title>1&#45;&gt;11295</title>
<path fill="none" stroke="black" d="M545,-332.32C545,-324.42 545,-316.13 545,-307.98"/>
<polygon fill="black" stroke="black" points="548.5,-308.12 545,-298.12 541.5,-308.12 548.5,-308.12"/>
</g>
<!-- 3 -->
<g id="node4" class="node">
<title>3</title>
<path fill="#cbe5f8" stroke="black" d="M172,-166.25C172,-166.25 12,-166.25 12,-166.25 6,-166.25 0,-160.25 0,-154.25 0,-154.25 0,-84 0,-84 0,-78 6,-72 12,-72 12,-72 172,-72 172,-72 178,-72 184,-78 184,-84 184,-84 184,-154.25 184,-154.25 184,-160.25 178,-166.25 172,-166.25"/>
<text text-anchor="middle" x="92" y="-148.95" font-family="Helvetica,sans-Serif" font-size="14.00">20_C &lt;= 0.5</text>
<text text-anchor="middle" x="92" y="-131.7" font-family="Helvetica,sans-Serif" font-size="14.00">entropy = 0.983</text>
<text text-anchor="middle" x="92" y="-114.45" font-family="Helvetica,sans-Serif" font-size="14.00">samples = 25319</text>
<text text-anchor="middle" x="92" y="-97.2" font-family="Helvetica,sans-Serif" font-size="14.00">value = [16942, 23032]</text>
<text text-anchor="middle" x="92" y="-79.95" font-family="Helvetica,sans-Serif" font-size="14.00">class = Plant</text>
</g>
<!-- 2&#45;&gt;3 -->
<g id="edge3" class="edge">
<title>2&#45;&gt;3</title>
<path fill="none" stroke="black" d="M209.31,-201.89C195.94,-192.57 181.8,-182.72 168.14,-173.19"/>
<polygon fill="black" stroke="black" points="170.22,-170.38 160.01,-167.53 166.21,-176.12 170.22,-170.38"/>
</g>
<!-- 10952 -->
<g id="node7" class="node">
<title>10952</title>
<path fill="#eca26d" stroke="black" d="M338,-166.25C338,-166.25 214,-166.25 214,-166.25 208,-166.25 202,-160.25 202,-154.25 202,-154.25 202,-84 202,-84 202,-78 208,-72 214,-72 214,-72 338,-72 338,-72 344,-72 350,-78 350,-84 350,-84 350,-154.25 350,-154.25 350,-160.25 344,-166.25 338,-166.25"/>
<text text-anchor="middle" x="276" y="-148.95" font-family="Helvetica,sans-Serif" font-size="14.00">9_U &lt;= 0.5</text>
<text text-anchor="middle" x="276" y="-131.7" font-family="Helvetica,sans-Serif" font-size="14.00">entropy = 0.738</text>
<text text-anchor="middle" x="276" y="-114.45" font-family="Helvetica,sans-Serif" font-size="14.00">samples = 784</text>
<text text-anchor="middle" x="276" y="-97.2" font-family="Helvetica,sans-Serif" font-size="14.00">value = [973, 256]</text>
<text text-anchor="middle" x="276" y="-79.95" font-family="Helvetica,sans-Serif" font-size="14.00">class = Animal</text>
</g>
<!-- 2&#45;&gt;10952 -->
<g id="edge6" class="edge">
<title>2&#45;&gt;10952</title>
<path fill="none" stroke="black" d="M276,-202.07C276,-194.17 276,-185.88 276,-177.73"/>
<polygon fill="black" stroke="black" points="279.5,-177.87 276,-167.87 272.5,-177.87 279.5,-177.87"/>
</g>
<!-- 4 -->
<g id="node5" class="node">
<title>4</title>
<path fill="#c0c0c0" stroke="black" d="M71,-36C71,-36 41,-36 41,-36 35,-36 29,-30 29,-24 29,-24 29,-12 29,-12 29,-6 35,0 41,0 41,0 71,0 71,0 77,0 83,-6 83,-12 83,-12 83,-24 83,-24 83,-30 77,-36 71,-36"/>
<text text-anchor="middle" x="56" y="-13.32" font-family="Helvetica,sans-Serif" font-size="14.00">(...)</text>
</g>
<!-- 3&#45;&gt;4 -->
<g id="edge4" class="edge">
<title>3&#45;&gt;4</title>
<path fill="none" stroke="black" d="M75.16,-71.75C72.06,-63.22 68.92,-54.57 66.1,-46.8"/>
<polygon fill="black" stroke="black" points="69.46,-45.8 62.75,-37.6 62.88,-48.19 69.46,-45.8"/>
</g>
<!-- 8357 -->
<g id="node6" class="node">
<title>8357</title>
<path fill="#c0c0c0" stroke="black" d="M143,-36C143,-36 113,-36 113,-36 107,-36 101,-30 101,-24 101,-24 101,-12 101,-12 101,-6 107,0 113,0 113,0 143,0 143,0 149,0 155,-6 155,-12 155,-12 155,-24 155,-24 155,-30 149,-36 143,-36"/>
<text text-anchor="middle" x="128" y="-13.32" font-family="Helvetica,sans-Serif" font-size="14.00">(...)</text>
</g>
<!-- 3&#45;&gt;8357 -->
<g id="edge5" class="edge">
<title>3&#45;&gt;8357</title>
<path fill="none" stroke="black" d="M108.84,-71.75C111.94,-63.22 115.08,-54.57 117.9,-46.8"/>
<polygon fill="black" stroke="black" points="121.12,-48.19 121.25,-37.6 114.54,-45.8 121.12,-48.19"/>
</g>
<!-- 10953 -->
<g id="node8" class="node">
<title>10953</title>
<path fill="#c0c0c0" stroke="black" d="M255,-36C255,-36 225,-36 225,-36 219,-36 213,-30 213,-24 213,-24 213,-12 213,-12 213,-6 219,0 225,0 225,0 255,0 255,0 261,0 267,-6 267,-12 267,-12 267,-24 267,-24 267,-30 261,-36 255,-36"/>
<text text-anchor="middle" x="240" y="-13.32" font-family="Helvetica,sans-Serif" font-size="14.00">(...)</text>
</g>
<!-- 10952&#45;&gt;10953 -->
<g id="edge7" class="edge">
<title>10952&#45;&gt;10953</title>
<path fill="none" stroke="black" d="M259.16,-71.75C256.06,-63.22 252.92,-54.57 250.1,-46.8"/>
<polygon fill="black" stroke="black" points="253.46,-45.8 246.75,-37.6 246.88,-48.19 253.46,-45.8"/>
</g>
<!-- 11196 -->
<g id="node9" class="node">
<title>11196</title>
<path fill="#c0c0c0" stroke="black" d="M327,-36C327,-36 297,-36 297,-36 291,-36 285,-30 285,-24 285,-24 285,-12 285,-12 285,-6 291,0 297,0 297,0 327,0 327,0 333,0 339,-6 339,-12 339,-12 339,-24 339,-24 339,-30 333,-36 327,-36"/>
<text text-anchor="middle" x="312" y="-13.32" font-family="Helvetica,sans-Serif" font-size="14.00">(...)</text>
</g>
<!-- 10952&#45;&gt;11196 -->
<g id="edge8" class="edge">
<title>10952&#45;&gt;11196</title>
<path fill="none" stroke="black" d="M292.84,-71.75C295.94,-63.22 299.08,-54.57 301.9,-46.8"/>
<polygon fill="black" stroke="black" points="305.12,-48.19 305.25,-37.6 298.54,-45.8 305.12,-48.19"/>
</g>
<!-- 11296 -->
<g id="node11" class="node">
<title>11296</title>
<path fill="#f4c8a8" stroke="black" d="M522,-166.25C522,-166.25 380,-166.25 380,-166.25 374,-166.25 368,-160.25 368,-154.25 368,-154.25 368,-84 368,-84 368,-78 374,-72 380,-72 380,-72 522,-72 522,-72 528,-72 534,-78 534,-84 534,-84 534,-154.25 534,-154.25 534,-160.25 528,-166.25 522,-166.25"/>
<text text-anchor="middle" x="451" y="-148.95" font-family="Helvetica,sans-Serif" font-size="14.00">23_C &lt;= 0.5</text>
<text text-anchor="middle" x="451" y="-131.7" font-family="Helvetica,sans-Serif" font-size="14.00">entropy = 0.942</text>
<text text-anchor="middle" x="451" y="-114.45" font-family="Helvetica,sans-Serif" font-size="14.00">samples = 5924</text>
<text text-anchor="middle" x="451" y="-97.2" font-family="Helvetica,sans-Serif" font-size="14.00">value = [6049, 3390]</text>
<text text-anchor="middle" x="451" y="-79.95" font-family="Helvetica,sans-Serif" font-size="14.00">class = Animal</text>
</g>
<!-- 11295&#45;&gt;11296 -->
<g id="edge10" class="edge">
<title>11295&#45;&gt;11296</title>
<path fill="none" stroke="black" d="M511.06,-202.07C504.74,-193.45 498.08,-184.35 491.58,-175.49"/>
<polygon fill="black" stroke="black" points="494.52,-173.58 485.78,-167.58 488.87,-177.71 494.52,-173.58"/>
</g>
<!-- 14239 -->
<g id="node14" class="node">
<title>14239</title>
<path fill="#d5eafa" stroke="black" d="M706,-166.25C706,-166.25 564,-166.25 564,-166.25 558,-166.25 552,-160.25 552,-154.25 552,-154.25 552,-84 552,-84 552,-78 558,-72 564,-72 564,-72 706,-72 706,-72 712,-72 718,-78 718,-84 718,-84 718,-154.25 718,-154.25 718,-160.25 712,-166.25 706,-166.25"/>
<text text-anchor="middle" x="635" y="-148.95" font-family="Helvetica,sans-Serif" font-size="14.00">15_U &lt;= 0.5</text>
<text text-anchor="middle" x="635" y="-131.7" font-family="Helvetica,sans-Serif" font-size="14.00">entropy = 0.99</text>
<text text-anchor="middle" x="635" y="-114.45" font-family="Helvetica,sans-Serif" font-size="14.00">samples = 1872</text>
<text text-anchor="middle" x="635" y="-97.2" font-family="Helvetica,sans-Serif" font-size="14.00">value = [1321, 1674]</text>
<text text-anchor="middle" x="635" y="-79.95" font-family="Helvetica,sans-Serif" font-size="14.00">class = Plant</text>
</g>
<!-- 11295&#45;&gt;14239 -->
<g id="edge13" class="edge">
<title>11295&#45;&gt;14239</title>
<path fill="none" stroke="black" d="M577.49,-202.07C583.48,-193.54 589.79,-184.54 595.95,-175.77"/>
<polygon fill="black" stroke="black" points="598.81,-177.79 601.69,-167.6 593.08,-173.77 598.81,-177.79"/>
</g>
<!-- 11297 -->
<g id="node12" class="node">
<title>11297</title>
<path fill="#c0c0c0" stroke="black" d="M434,-36C434,-36 404,-36 404,-36 398,-36 392,-30 392,-24 392,-24 392,-12 392,-12 392,-6 398,0 404,0 404,0 434,0 434,0 440,0 446,-6 446,-12 446,-12 446,-24 446,-24 446,-30 440,-36 434,-36"/>
<text text-anchor="middle" x="419" y="-13.32" font-family="Helvetica,sans-Serif" font-size="14.00">(...)</text>
</g>
<!-- 11296&#45;&gt;11297 -->
<g id="edge11" class="edge">
<title>11296&#45;&gt;11297</title>
<path fill="none" stroke="black" d="M436.03,-71.75C433.31,-63.32 430.55,-54.77 428.06,-47.07"/>
<polygon fill="black" stroke="black" points="431.41,-46.05 425.01,-37.61 424.75,-48.2 431.41,-46.05"/>
</g>
<!-- 14154 -->
<g id="node13" class="node">
<title>14154</title>
<path fill="#c0c0c0" stroke="black" d="M506,-36C506,-36 476,-36 476,-36 470,-36 464,-30 464,-24 464,-24 464,-12 464,-12 464,-6 470,0 476,0 476,0 506,0 506,0 512,0 518,-6 518,-12 518,-12 518,-24 518,-24 518,-30 512,-36 506,-36"/>
<text text-anchor="middle" x="491" y="-13.32" font-family="Helvetica,sans-Serif" font-size="14.00">(...)</text>
</g>
<!-- 11296&#45;&gt;14154 -->
<g id="edge12" class="edge">
<title>11296&#45;&gt;14154</title>
<path fill="none" stroke="black" d="M469.71,-71.75C473.15,-63.22 476.65,-54.57 479.78,-46.8"/>
<polygon fill="black" stroke="black" points="483.01,-48.16 483.5,-37.58 476.52,-45.54 483.01,-48.16"/>
</g>
<!-- 14240 -->
<g id="node15" class="node">
<title>14240</title>
<path fill="#c0c0c0" stroke="black" d="M596,-36C596,-36 566,-36 566,-36 560,-36 554,-30 554,-24 554,-24 554,-12 554,-12 554,-6 560,0 566,0 566,0 596,0 596,0 602,0 608,-6 608,-12 608,-12 608,-24 608,-24 608,-30 602,-36 596,-36"/>
<text text-anchor="middle" x="581" y="-13.32" font-family="Helvetica,sans-Serif" font-size="14.00">(...)</text>
</g>
<!-- 14239&#45;&gt;14240 -->
<g id="edge14" class="edge">
<title>14239&#45;&gt;14240</title>
<path fill="none" stroke="black" d="M609.74,-71.75C604.98,-63.03 600.16,-54.16 595.85,-46.26"/>
<polygon fill="black" stroke="black" points="598.94,-44.61 591.08,-37.5 592.79,-47.96 598.94,-44.61"/>
</g>
<!-- 14689 -->
<g id="node16" class="node">
<title>14689</title>
<path fill="#c0c0c0" stroke="black" d="M668,-36C668,-36 638,-36 638,-36 632,-36 626,-30 626,-24 626,-24 626,-12 626,-12 626,-6 632,0 638,0 638,0 668,0 668,0 674,0 680,-6 680,-12 680,-12 680,-24 680,-24 680,-30 674,-36 668,-36"/>
<text text-anchor="middle" x="653" y="-13.32" font-family="Helvetica,sans-Serif" font-size="14.00">(...)</text>
</g>
<!-- 14239&#45;&gt;14689 -->
<g id="edge15" class="edge">
<title>14239&#45;&gt;14689</title>
<path fill="none" stroke="black" d="M643.42,-71.75C644.93,-63.42 646.47,-54.97 647.85,-47.34"/>
<polygon fill="black" stroke="black" points="651.27,-48.13 649.61,-37.66 644.38,-46.88 651.27,-48.13"/>
</g>
<!-- 14933 -->
<g id="node18" class="node">
<title>14933</title>
<path fill="#eeaf81" stroke="black" d="M964,-296.5C964,-296.5 822,-296.5 822,-296.5 816,-296.5 810,-290.5 810,-284.5 810,-284.5 810,-214.25 810,-214.25 810,-208.25 816,-202.25 822,-202.25 822,-202.25 964,-202.25 964,-202.25 970,-202.25 976,-208.25 976,-214.25 976,-214.25 976,-284.5 976,-284.5 976,-290.5 970,-296.5 964,-296.5"/>
<text text-anchor="middle" x="893" y="-279.2" font-family="Helvetica,sans-Serif" font-size="14.00">16_A &lt;= 0.5</text>
<text text-anchor="middle" x="893" y="-261.95" font-family="Helvetica,sans-Serif" font-size="14.00">entropy = 0.835</text>
<text text-anchor="middle" x="893" y="-244.7" font-family="Helvetica,sans-Serif" font-size="14.00">samples = 3128</text>
<text text-anchor="middle" x="893" y="-227.45" font-family="Helvetica,sans-Serif" font-size="14.00">value = [3659, 1323]</text>
<text text-anchor="middle" x="893" y="-210.2" font-family="Helvetica,sans-Serif" font-size="14.00">class = Animal</text>
</g>
<!-- 14932&#45;&gt;14933 -->
<g id="edge17" class="edge">
<title>14932&#45;&gt;14933</title>
<path fill="none" stroke="black" d="M893,-332.32C893,-324.42 893,-316.13 893,-307.98"/>
<polygon fill="black" stroke="black" points="896.5,-308.12 893,-298.12 889.5,-308.12 896.5,-308.12"/>
</g>
<!-- 16280 -->
<g id="node25" class="node">
<title>16280</title>
<path fill="#f3c4a3" stroke="black" d="M1218.5,-296.5C1218.5,-296.5 1085.5,-296.5 1085.5,-296.5 1079.5,-296.5 1073.5,-290.5 1073.5,-284.5 1073.5,-284.5 1073.5,-214.25 1073.5,-214.25 1073.5,-208.25 1079.5,-202.25 1085.5,-202.25 1085.5,-202.25 1218.5,-202.25 1218.5,-202.25 1224.5,-202.25 1230.5,-208.25 1230.5,-214.25 1230.5,-214.25 1230.5,-284.5 1230.5,-284.5 1230.5,-290.5 1224.5,-296.5 1218.5,-296.5"/>
<text text-anchor="middle" x="1152" y="-279.2" font-family="Helvetica,sans-Serif" font-size="14.00">11_C &lt;= 0.5</text>
<text text-anchor="middle" x="1152" y="-261.95" font-family="Helvetica,sans-Serif" font-size="14.00">entropy = 0.932</text>
<text text-anchor="middle" x="1152" y="-244.7" font-family="Helvetica,sans-Serif" font-size="14.00">samples = 1107</text>
<text text-anchor="middle" x="1152" y="-227.45" font-family="Helvetica,sans-Serif" font-size="14.00">value = [1126, 600]</text>
<text text-anchor="middle" x="1152" y="-210.2" font-family="Helvetica,sans-Serif" font-size="14.00">class = Animal</text>
</g>
<!-- 14932&#45;&gt;16280 -->
<g id="edge24" class="edge">
<title>14932&#45;&gt;16280</title>
<path fill="none" stroke="black" d="M976.37,-337.34C1004.03,-323.64 1034.92,-308.35 1062.99,-294.45"/>
<polygon fill="black" stroke="black" points="1064.42,-297.65 1071.83,-290.07 1061.32,-291.37 1064.42,-297.65"/>
</g>
<!-- 14934 -->
<g id="node19" class="node">
<title>14934</title>
<path fill="#eda977" stroke="black" d="M881.5,-166.25C881.5,-166.25 748.5,-166.25 748.5,-166.25 742.5,-166.25 736.5,-160.25 736.5,-154.25 736.5,-154.25 736.5,-84 736.5,-84 736.5,-78 742.5,-72 748.5,-72 748.5,-72 881.5,-72 881.5,-72 887.5,-72 893.5,-78 893.5,-84 893.5,-84 893.5,-154.25 893.5,-154.25 893.5,-160.25 887.5,-166.25 881.5,-166.25"/>
<text text-anchor="middle" x="815" y="-148.95" font-family="Helvetica,sans-Serif" font-size="14.00">9_G &lt;= 0.5</text>
<text text-anchor="middle" x="815" y="-131.7" font-family="Helvetica,sans-Serif" font-size="14.00">entropy = 0.793</text>
<text text-anchor="middle" x="815" y="-114.45" font-family="Helvetica,sans-Serif" font-size="14.00">samples = 2195</text>
<text text-anchor="middle" x="815" y="-97.2" font-family="Helvetica,sans-Serif" font-size="14.00">value = [2669, 838]</text>
<text text-anchor="middle" x="815" y="-79.95" font-family="Helvetica,sans-Serif" font-size="14.00">class = Animal</text>
</g>
<!-- 14933&#45;&gt;14934 -->
<g id="edge18" class="edge">
<title>14933&#45;&gt;14934</title>
<path fill="none" stroke="black" d="M864.84,-202.07C859.7,-193.63 854.3,-184.74 849.01,-176.05"/>
<polygon fill="black" stroke="black" points="852.09,-174.38 843.9,-167.65 846.11,-178.01 852.09,-174.38"/>
</g>
<!-- 15923 -->
<g id="node22" class="node">
<title>15923</title>
<path fill="#f2bf9a" stroke="black" d="M1048,-166.25C1048,-166.25 924,-166.25 924,-166.25 918,-166.25 912,-160.25 912,-154.25 912,-154.25 912,-84 912,-84 912,-78 918,-72 924,-72 924,-72 1048,-72 1048,-72 1054,-72 1060,-78 1060,-84 1060,-84 1060,-154.25 1060,-154.25 1060,-160.25 1054,-166.25 1048,-166.25"/>
<text text-anchor="middle" x="986" y="-148.95" font-family="Helvetica,sans-Serif" font-size="14.00">11_C &lt;= 0.5</text>
<text text-anchor="middle" x="986" y="-131.7" font-family="Helvetica,sans-Serif" font-size="14.00">entropy = 0.914</text>
<text text-anchor="middle" x="986" y="-114.45" font-family="Helvetica,sans-Serif" font-size="14.00">samples = 933</text>
<text text-anchor="middle" x="986" y="-97.2" font-family="Helvetica,sans-Serif" font-size="14.00">value = [990, 485]</text>
<text text-anchor="middle" x="986" y="-79.95" font-family="Helvetica,sans-Serif" font-size="14.00">class = Animal</text>
</g>
<!-- 14933&#45;&gt;15923 -->
<g id="edge21" class="edge">
<title>14933&#45;&gt;15923</title>
<path fill="none" stroke="black" d="M926.58,-202.07C932.83,-193.45 939.43,-184.35 945.85,-175.49"/>
<polygon fill="black" stroke="black" points="948.55,-177.73 951.59,-167.58 942.88,-173.62 948.55,-177.73"/>
</g>
<!-- 14935 -->
<g id="node20" class="node">
<title>14935</title>
<path fill="#c0c0c0" stroke="black" d="M771,-36C771,-36 741,-36 741,-36 735,-36 729,-30 729,-24 729,-24 729,-12 729,-12 729,-6 735,0 741,0 741,0 771,0 771,0 777,0 783,-6 783,-12 783,-12 783,-24 783,-24 783,-30 777,-36 771,-36"/>
<text text-anchor="middle" x="756" y="-13.32" font-family="Helvetica,sans-Serif" font-size="14.00">(...)</text>
</g>
<!-- 14934&#45;&gt;14935 -->
<g id="edge19" class="edge">
<title>14934&#45;&gt;14935</title>
<path fill="none" stroke="black" d="M787.4,-71.75C782.15,-62.93 776.81,-53.96 772.06,-45.99"/>
<polygon fill="black" stroke="black" points="775.12,-44.28 767,-37.47 769.1,-47.86 775.12,-44.28"/>
</g>
<!-- 15662 -->
<g id="node21" class="node">
<title>15662</title>
<path fill="#c0c0c0" stroke="black" d="M843,-36C843,-36 813,-36 813,-36 807,-36 801,-30 801,-24 801,-24 801,-12 801,-12 801,-6 807,0 813,0 813,0 843,0 843,0 849,0 855,-6 855,-12 855,-12 855,-24 855,-24 855,-30 849,-36 843,-36"/>
<text text-anchor="middle" x="828" y="-13.32" font-family="Helvetica,sans-Serif" font-size="14.00">(...)</text>
</g>
<!-- 14934&#45;&gt;15662 -->
<g id="edge20" class="edge">
<title>14934&#45;&gt;15662</title>
<path fill="none" stroke="black" d="M821.08,-71.75C822.17,-63.42 823.28,-54.97 824.28,-47.34"/>
<polygon fill="black" stroke="black" points="827.72,-48.04 825.55,-37.67 820.78,-47.13 827.72,-48.04"/>
</g>
<!-- 15924 -->
<g id="node23" class="node">
<title>15924</title>
<path fill="#c0c0c0" stroke="black" d="M940,-36C940,-36 910,-36 910,-36 904,-36 898,-30 898,-24 898,-24 898,-12 898,-12 898,-6 904,0 910,0 910,0 940,0 940,0 946,0 952,-6 952,-12 952,-12 952,-24 952,-24 952,-30 946,-36 940,-36"/>
<text text-anchor="middle" x="925" y="-13.32" font-family="Helvetica,sans-Serif" font-size="14.00">(...)</text>
</g>
<!-- 15923&#45;&gt;15924 -->
<g id="edge22" class="edge">
<title>15923&#45;&gt;15924</title>
<path fill="none" stroke="black" d="M957.46,-71.75C951.97,-62.83 946.39,-53.76 941.44,-45.72"/>
<polygon fill="black" stroke="black" points="944.58,-44.14 936.36,-37.46 938.62,-47.81 944.58,-44.14"/>
</g>
<!-- 16209 -->
<g id="node24" class="node">
<title>16209</title>
<path fill="#c0c0c0" stroke="black" d="M1012,-36C1012,-36 982,-36 982,-36 976,-36 970,-30 970,-24 970,-24 970,-12 970,-12 970,-6 976,0 982,0 982,0 1012,0 1012,0 1018,0 1024,-6 1024,-12 1024,-12 1024,-24 1024,-24 1024,-30 1018,-36 1012,-36"/>
<text text-anchor="middle" x="997" y="-13.32" font-family="Helvetica,sans-Serif" font-size="14.00">(...)</text>
</g>
<!-- 15923&#45;&gt;16209 -->
<g id="edge23" class="edge">
<title>15923&#45;&gt;16209</title>
<path fill="none" stroke="black" d="M991.15,-71.75C992.06,-63.52 992.99,-55.17 993.82,-47.61"/>
<polygon fill="black" stroke="black" points="997.3,-48 994.93,-37.68 990.35,-47.23 997.3,-48"/>
</g>
<!-- 16281 -->
<g id="node26" class="node">
<title>16281</title>
<path fill="#f5cdb1" stroke="black" d="M1214,-166.25C1214,-166.25 1090,-166.25 1090,-166.25 1084,-166.25 1078,-160.25 1078,-154.25 1078,-154.25 1078,-84 1078,-84 1078,-78 1084,-72 1090,-72 1090,-72 1214,-72 1214,-72 1220,-72 1226,-78 1226,-84 1226,-84 1226,-154.25 1226,-154.25 1226,-160.25 1220,-166.25 1214,-166.25"/>
<text text-anchor="middle" x="1152" y="-148.95" font-family="Helvetica,sans-Serif" font-size="14.00">11_A &lt;= 0.5</text>
<text text-anchor="middle" x="1152" y="-131.7" font-family="Helvetica,sans-Serif" font-size="14.00">entropy = 0.956</text>
<text text-anchor="middle" x="1152" y="-114.45" font-family="Helvetica,sans-Serif" font-size="14.00">samples = 886</text>
<text text-anchor="middle" x="1152" y="-97.2" font-family="Helvetica,sans-Serif" font-size="14.00">value = [864, 522]</text>
<text text-anchor="middle" x="1152" y="-79.95" font-family="Helvetica,sans-Serif" font-size="14.00">class = Animal</text>
</g>
<!-- 16280&#45;&gt;16281 -->
<g id="edge25" class="edge">
<title>16280&#45;&gt;16281</title>
<path fill="none" stroke="black" d="M1152,-202.07C1152,-194.17 1152,-185.88 1152,-177.73"/>
<polygon fill="black" stroke="black" points="1155.5,-177.87 1152,-167.87 1148.5,-177.87 1155.5,-177.87"/>
</g>
<!-- 16738 -->
<g id="node29" class="node">
<title>16738</title>
<path fill="#eda774" stroke="black" d="M1371.5,-166.25C1371.5,-166.25 1256.5,-166.25 1256.5,-166.25 1250.5,-166.25 1244.5,-160.25 1244.5,-154.25 1244.5,-154.25 1244.5,-84 1244.5,-84 1244.5,-78 1250.5,-72 1256.5,-72 1256.5,-72 1371.5,-72 1371.5,-72 1377.5,-72 1383.5,-78 1383.5,-84 1383.5,-84 1383.5,-154.25 1383.5,-154.25 1383.5,-160.25 1377.5,-166.25 1371.5,-166.25"/>
<text text-anchor="middle" x="1314" y="-148.95" font-family="Helvetica,sans-Serif" font-size="14.00">9_U &lt;= 0.5</text>
<text text-anchor="middle" x="1314" y="-131.7" font-family="Helvetica,sans-Serif" font-size="14.00">entropy = 0.777</text>
<text text-anchor="middle" x="1314" y="-114.45" font-family="Helvetica,sans-Serif" font-size="14.00">samples = 221</text>
<text text-anchor="middle" x="1314" y="-97.2" font-family="Helvetica,sans-Serif" font-size="14.00">value = [262, 78]</text>
<text text-anchor="middle" x="1314" y="-79.95" font-family="Helvetica,sans-Serif" font-size="14.00">class = Animal</text>
</g>
<!-- 16280&#45;&gt;16738 -->
<g id="edge28" class="edge">
<title>16280&#45;&gt;16738</title>
<path fill="none" stroke="black" d="M1210.49,-202.07C1222.11,-192.87 1234.41,-183.13 1246.32,-173.71"/>
<polygon fill="black" stroke="black" points="1248.47,-176.46 1254.14,-167.51 1244.13,-170.98 1248.47,-176.46"/>
</g>
<!-- 16282 -->
<g id="node27" class="node">
<title>16282</title>
<path fill="#c0c0c0" stroke="black" d="M1122,-36C1122,-36 1092,-36 1092,-36 1086,-36 1080,-30 1080,-24 1080,-24 1080,-12 1080,-12 1080,-6 1086,0 1092,0 1092,0 1122,0 1122,0 1128,0 1134,-6 1134,-12 1134,-12 1134,-24 1134,-24 1134,-30 1128,-36 1122,-36"/>
<text text-anchor="middle" x="1107" y="-13.32" font-family="Helvetica,sans-Serif" font-size="14.00">(...)</text>
</g>
<!-- 16281&#45;&gt;16282 -->
<g id="edge26" class="edge">
<title>16281&#45;&gt;16282</title>
<path fill="none" stroke="black" d="M1130.95,-71.75C1127.03,-63.12 1123.05,-54.36 1119.5,-46.53"/>
<polygon fill="black" stroke="black" points="1122.74,-45.21 1115.42,-37.55 1116.37,-48.1 1122.74,-45.21"/>
</g>
<!-- 16601 -->
<g id="node28" class="node">
<title>16601</title>
<path fill="#c0c0c0" stroke="black" d="M1194,-36C1194,-36 1164,-36 1164,-36 1158,-36 1152,-30 1152,-24 1152,-24 1152,-12 1152,-12 1152,-6 1158,0 1164,0 1164,0 1194,0 1194,0 1200,0 1206,-6 1206,-12 1206,-12 1206,-24 1206,-24 1206,-30 1200,-36 1194,-36"/>
<text text-anchor="middle" x="1179" y="-13.32" font-family="Helvetica,sans-Serif" font-size="14.00">(...)</text>
</g>
<!-- 16281&#45;&gt;16601 -->
<g id="edge27" class="edge">
<title>16281&#45;&gt;16601</title>
<path fill="none" stroke="black" d="M1164.63,-71.75C1166.93,-63.32 1169.26,-54.77 1171.35,-47.07"/>
<polygon fill="black" stroke="black" points="1174.67,-48.2 1173.92,-37.63 1167.92,-46.36 1174.67,-48.2"/>
</g>
<!-- 16739 -->
<g id="node30" class="node">
<title>16739</title>
<path fill="#c0c0c0" stroke="black" d="M1293,-36C1293,-36 1263,-36 1263,-36 1257,-36 1251,-30 1251,-24 1251,-24 1251,-12 1251,-12 1251,-6 1257,0 1263,0 1263,0 1293,0 1293,0 1299,0 1305,-6 1305,-12 1305,-12 1305,-24 1305,-24 1305,-30 1299,-36 1293,-36"/>
<text text-anchor="middle" x="1278" y="-13.32" font-family="Helvetica,sans-Serif" font-size="14.00">(...)</text>
</g>
<!-- 16738&#45;&gt;16739 -->
<g id="edge29" class="edge">
<title>16738&#45;&gt;16739</title>
<path fill="none" stroke="black" d="M1297.16,-71.75C1294.06,-63.22 1290.92,-54.57 1288.1,-46.8"/>
<polygon fill="black" stroke="black" points="1291.46,-45.8 1284.75,-37.6 1284.88,-48.19 1291.46,-45.8"/>
</g>
<!-- 16820 -->
<g id="node31" class="node">
<title>16820</title>
<path fill="#c0c0c0" stroke="black" d="M1365,-36C1365,-36 1335,-36 1335,-36 1329,-36 1323,-30 1323,-24 1323,-24 1323,-12 1323,-12 1323,-6 1329,0 1335,0 1335,0 1365,0 1365,0 1371,0 1377,-6 1377,-12 1377,-12 1377,-24 1377,-24 1377,-30 1371,-36 1365,-36"/>
<text text-anchor="middle" x="1350" y="-13.32" font-family="Helvetica,sans-Serif" font-size="14.00">(...)</text>
</g>
<!-- 16738&#45;&gt;16820 -->
<g id="edge30" class="edge">
<title>16738&#45;&gt;16820</title>
<path fill="none" stroke="black" d="M1330.84,-71.75C1333.94,-63.22 1337.08,-54.57 1339.9,-46.8"/>
<polygon fill="black" stroke="black" points="1343.12,-48.19 1343.25,-37.6 1336.54,-45.8 1343.12,-48.19"/>
</g>
</g>
</svg>
