<?xml version="1.0" encoding="UTF-8" standalone="no"?>
<!DOCTYPE svg PUBLIC "-//W3C//DTD SVG 1.1//EN"
 "http://www.w3.org/Graphics/SVG/1.1/DTD/svg11.dtd">
<!-- Generated by graphviz version 12.0.0 (20240803.0821)
 -->
<!-- Title: Tree Pages: 1 -->
<svg width="1400pt" height="565pt"
 viewBox="0.00 0.00 1400.00 565.00" xmlns="http://www.w3.org/2000/svg" xmlns:xlink="http://www.w3.org/1999/xlink">
<g id="graph0" class="graph" transform="scale(1 1) rotate(0) translate(4 561)">
<title>Tree</title>
<polygon fill="white" stroke="none" points="-4,4 -4,-561 1396,-561 1396,4 -4,4"/>
<!-- 0 -->
<g id="node1" class="node">
<title>0</title>
<path fill="#fffdfc" stroke="black" d="M805,-557C805,-557 645,-557 645,-557 639,-557 633,-551 633,-545 633,-545 633,-474.75 633,-474.75 633,-468.75 639,-462.75 645,-462.75 645,-462.75 805,-462.75 805,-462.75 811,-462.75 817,-468.75 817,-474.75 817,-474.75 817,-545 817,-545 817,-551 811,-557 805,-557"/>
<text text-anchor="middle" x="725" y="-539.7" font-family="Helvetica,sans-Serif" font-size="14.00">23_G &lt;= 0.5</text>
<text text-anchor="middle" x="725" y="-522.45" font-family="Helvetica,sans-Serif" font-size="14.00">entropy = 1.0</text>
<text text-anchor="middle" x="725" y="-505.2" font-family="Helvetica,sans-Serif" font-size="14.00">samples = 38094</text>
<text text-anchor="middle" x="725" y="-487.95" font-family="Helvetica,sans-Serif" font-size="14.00">value = [30390, 29955]</text>
<text text-anchor="middle" x="725" y="-470.7" font-family="Helvetica,sans-Serif" font-size="14.00">class = Animal</text>
</g>
<!-- 1 -->
<g id="node2" class="node">
<title>1</title>
<path fill="#f7fbfe" stroke="black" d="M634,-426.75C634,-426.75 474,-426.75 474,-426.75 468,-426.75 462,-420.75 462,-414.75 462,-414.75 462,-344.5 462,-344.5 462,-338.5 468,-332.5 474,-332.5 474,-332.5 634,-332.5 634,-332.5 640,-332.5 646,-338.5 646,-344.5 646,-344.5 646,-414.75 646,-414.75 646,-420.75 640,-426.75 634,-426.75"/>
<text text-anchor="middle" x="554" y="-409.45" font-family="Helvetica,sans-Serif" font-size="14.00">10_C &lt;= 0.5</text>
<text text-anchor="middle" x="554" y="-392.2" font-family="Helvetica,sans-Serif" font-size="14.00">entropy = 1.0</text>
<text text-anchor="middle" x="554" y="-374.95" font-family="Helvetica,sans-Serif" font-size="14.00">samples = 36164</text>
<text text-anchor="middle" x="554" y="-357.7" font-family="Helvetica,sans-Serif" font-size="14.00">value = [28083, 29191]</text>
<text text-anchor="middle" x="554" y="-340.45" font-family="Helvetica,sans-Serif" font-size="14.00">class = Plant</text>
</g>
<!-- 0&#45;&gt;1 -->
<g id="edge1" class="edge">
<title>0&#45;&gt;1</title>
<path fill="none" stroke="black" d="M663.27,-462.57C650.87,-453.28 637.75,-443.44 625.07,-433.93"/>
<polygon fill="black" stroke="black" points="627.24,-431.18 617.14,-427.98 623.04,-436.78 627.24,-431.18"/>
<text text-anchor="middle" x="619.47" y="-447.15" font-family="Helvetica,sans-Serif" font-size="14.00">True</text>
</g>
<!-- 15830 -->
<g id="node17" class="node">
<title>15830</title>
<path fill="#eeab7b" stroke="black" d="M964.5,-426.75C964.5,-426.75 831.5,-426.75 831.5,-426.75 825.5,-426.75 819.5,-420.75 819.5,-414.75 819.5,-414.75 819.5,-344.5 819.5,-344.5 819.5,-338.5 825.5,-332.5 831.5,-332.5 831.5,-332.5 964.5,-332.5 964.5,-332.5 970.5,-332.5 976.5,-338.5 976.5,-344.5 976.5,-344.5 976.5,-414.75 976.5,-414.75 976.5,-420.75 970.5,-426.75 964.5,-426.75"/>
<text text-anchor="middle" x="898" y="-409.45" font-family="Helvetica,sans-Serif" font-size="14.00">1_U &lt;= 0.5</text>
<text text-anchor="middle" x="898" y="-392.2" font-family="Helvetica,sans-Serif" font-size="14.00">entropy = 0.809</text>
<text text-anchor="middle" x="898" y="-374.95" font-family="Helvetica,sans-Serif" font-size="14.00">samples = 1930</text>
<text text-anchor="middle" x="898" y="-357.7" font-family="Helvetica,sans-Serif" font-size="14.00">value = [2307, 764]</text>
<text text-anchor="middle" x="898" y="-340.45" font-family="Helvetica,sans-Serif" font-size="14.00">class = Animal</text>
</g>
<!-- 0&#45;&gt;15830 -->
<g id="edge16" class="edge">
<title>0&#45;&gt;15830</title>
<path fill="none" stroke="black" d="M787.46,-462.57C800,-453.28 813.27,-443.44 826.1,-433.93"/>
<polygon fill="black" stroke="black" points="828.18,-436.74 834.13,-427.97 824.01,-431.12 828.18,-436.74"/>
<text text-anchor="middle" x="831.67" y="-447.13" font-family="Helvetica,sans-Serif" font-size="14.00">False</text>
</g>
<!-- 2 -->
<g id="node3" class="node">
<title>2</title>
<path fill="#ebf5fc" stroke="black" d="M365,-296.5C365,-296.5 205,-296.5 205,-296.5 199,-296.5 193,-290.5 193,-284.5 193,-284.5 193,-214.25 193,-214.25 193,-208.25 199,-202.25 205,-202.25 205,-202.25 365,-202.25 365,-202.25 371,-202.25 377,-208.25 377,-214.25 377,-214.25 377,-284.5 377,-284.5 377,-290.5 371,-296.5 365,-296.5"/>
<text text-anchor="middle" x="285" y="-279.2" font-family="Helvetica,sans-Serif" font-size="14.00">22_A &lt;= 0.5</text>
<text text-anchor="middle" x="285" y="-261.95" font-family="Helvetica,sans-Serif" font-size="14.00">entropy = 0.998</text>
<text text-anchor="middle" x="285" y="-244.7" font-family="Helvetica,sans-Serif" font-size="14.00">samples = 28223</text>
<text text-anchor="middle" x="285" y="-227.45" font-family="Helvetica,sans-Serif" font-size="14.00">value = [21231, 23573]</text>
<text text-anchor="middle" x="285" y="-210.2" font-family="Helvetica,sans-Serif" font-size="14.00">class = Plant</text>
</g>
<!-- 1&#45;&gt;2 -->
<g id="edge2" class="edge">
<title>1&#45;&gt;2</title>
<path fill="none" stroke="black" d="M461.8,-334.67C437.85,-323.25 411.9,-310.88 387.45,-299.22"/>
<polygon fill="black" stroke="black" points="388.98,-296.07 378.44,-294.93 385.96,-302.39 388.98,-296.07"/>
</g>
<!-- 12317 -->
<g id="node10" class="node">
<title>12317</title>
<path fill="#fae8db" stroke="black" d="M625,-296.5C625,-296.5 483,-296.5 483,-296.5 477,-296.5 471,-290.5 471,-284.5 471,-284.5 471,-214.25 471,-214.25 471,-208.25 477,-202.25 483,-202.25 483,-202.25 625,-202.25 625,-202.25 631,-202.25 637,-208.25 637,-214.25 637,-214.25 637,-284.5 637,-284.5 637,-290.5 631,-296.5 625,-296.5"/>
<text text-anchor="middle" x="554" y="-279.2" font-family="Helvetica,sans-Serif" font-size="14.00">22_U &lt;= 0.5</text>
<text text-anchor="middle" x="554" y="-261.95" font-family="Helvetica,sans-Serif" font-size="14.00">entropy = 0.993</text>
<text text-anchor="middle" x="554" y="-244.7" font-family="Helvetica,sans-Serif" font-size="14.00">samples = 7941</text>
<text text-anchor="middle" x="554" y="-227.45" font-family="Helvetica,sans-Serif" font-size="14.00">value = [6852, 5618]</text>
<text text-anchor="middle" x="554" y="-210.2" font-family="Helvetica,sans-Serif" font-size="14.00">class = Animal</text>
</g>
<!-- 1&#45;&gt;12317 -->
<g id="edge9" class="edge">
<title>1&#45;&gt;12317</title>
<path fill="none" stroke="black" d="M554,-332.32C554,-324.42 554,-316.13 554,-307.98"/>
<polygon fill="black" stroke="black" points="557.5,-308.12 554,-298.12 550.5,-308.12 557.5,-308.12"/>
</g>
<!-- 3 -->
<g id="node4" class="node">
<title>3</title>
<path fill="#daedfa" stroke="black" d="M172,-166.25C172,-166.25 12,-166.25 12,-166.25 6,-166.25 0,-160.25 0,-154.25 0,-154.25 0,-84 0,-84 0,-78 6,-72 12,-72 12,-72 172,-72 172,-72 178,-72 184,-78 184,-84 184,-84 184,-154.25 184,-154.25 184,-160.25 178,-166.25 172,-166.25"/>
<text text-anchor="middle" x="92" y="-148.95" font-family="Helvetica,sans-Serif" font-size="14.00">14_A &lt;= 0.5</text>
<text text-anchor="middle" x="92" y="-131.7" font-family="Helvetica,sans-Serif" font-size="14.00">entropy = 0.992</text>
<text text-anchor="middle" x="92" y="-114.45" font-family="Helvetica,sans-Serif" font-size="14.00">samples = 25640</text>
<text text-anchor="middle" x="92" y="-97.2" font-family="Helvetica,sans-Serif" font-size="14.00">value = [18267, 22438]</text>
<text text-anchor="middle" x="92" y="-79.95" font-family="Helvetica,sans-Serif" font-size="14.00">class = Plant</text>
</g>
<!-- 2&#45;&gt;3 -->
<g id="edge3" class="edge">
<title>2&#45;&gt;3</title>
<path fill="none" stroke="black" d="M215.05,-201.89C200.89,-192.48 185.9,-182.53 171.45,-172.92"/>
<polygon fill="black" stroke="black" points="173.56,-170.12 163.3,-167.5 169.69,-175.95 173.56,-170.12"/>
</g>
<!-- 10972 -->
<g id="node7" class="node">
<title>10972</title>
<path fill="#efb185" stroke="black" d="M356,-166.25C356,-166.25 214,-166.25 214,-166.25 208,-166.25 202,-160.25 202,-154.25 202,-154.25 202,-84 202,-84 202,-78 208,-72 214,-72 214,-72 356,-72 356,-72 362,-72 368,-78 368,-84 368,-84 368,-154.25 368,-154.25 368,-160.25 362,-166.25 356,-166.25"/>
<text text-anchor="middle" x="285" y="-148.95" font-family="Helvetica,sans-Serif" font-size="14.00">5_C &lt;= 0.5</text>
<text text-anchor="middle" x="285" y="-131.7" font-family="Helvetica,sans-Serif" font-size="14.00">entropy = 0.851</text>
<text text-anchor="middle" x="285" y="-114.45" font-family="Helvetica,sans-Serif" font-size="14.00">samples = 2583</text>
<text text-anchor="middle" x="285" y="-97.2" font-family="Helvetica,sans-Serif" font-size="14.00">value = [2964, 1135]</text>
<text text-anchor="middle" x="285" y="-79.95" font-family="Helvetica,sans-Serif" font-size="14.00">class = Animal</text>
</g>
<!-- 2&#45;&gt;10972 -->
<g id="edge6" class="edge">
<title>2&#45;&gt;10972</title>
<path fill="none" stroke="black" d="M285,-202.07C285,-194.17 285,-185.88 285,-177.73"/>
<polygon fill="black" stroke="black" points="288.5,-177.87 285,-167.87 281.5,-177.87 288.5,-177.87"/>
</g>
<!-- 4 -->
<g id="node5" class="node">
<title>4</title>
<path fill="#c0c0c0" stroke="black" d="M71,-36C71,-36 41,-36 41,-36 35,-36 29,-30 29,-24 29,-24 29,-12 29,-12 29,-6 35,0 41,0 41,0 71,0 71,0 77,0 83,-6 83,-12 83,-12 83,-24 83,-24 83,-30 77,-36 71,-36"/>
<text text-anchor="middle" x="56" y="-13.32" font-family="Helvetica,sans-Serif" font-size="14.00">(...)</text>
</g>
<!-- 3&#45;&gt;4 -->
<g id="edge4" class="edge">
<title>3&#45;&gt;4</title>
<path fill="none" stroke="black" d="M75.16,-71.75C72.06,-63.22 68.92,-54.57 66.1,-46.8"/>
<polygon fill="black" stroke="black" points="69.46,-45.8 62.75,-37.6 62.88,-48.19 69.46,-45.8"/>
</g>
<!-- 8251 -->
<g id="node6" class="node">
<title>8251</title>
<path fill="#c0c0c0" stroke="black" d="M143,-36C143,-36 113,-36 113,-36 107,-36 101,-30 101,-24 101,-24 101,-12 101,-12 101,-6 107,0 113,0 113,0 143,0 143,0 149,0 155,-6 155,-12 155,-12 155,-24 155,-24 155,-30 149,-36 143,-36"/>
<text text-anchor="middle" x="128" y="-13.32" font-family="Helvetica,sans-Serif" font-size="14.00">(...)</text>
</g>
<!-- 3&#45;&gt;8251 -->
<g id="edge5" class="edge">
<title>3&#45;&gt;8251</title>
<path fill="none" stroke="black" d="M108.84,-71.75C111.94,-63.22 115.08,-54.57 117.9,-46.8"/>
<polygon fill="black" stroke="black" points="121.12,-48.19 121.25,-37.6 114.54,-45.8 121.12,-48.19"/>
</g>
<!-- 10973 -->
<g id="node8" class="node">
<title>10973</title>
<path fill="#c0c0c0" stroke="black" d="M266,-36C266,-36 236,-36 236,-36 230,-36 224,-30 224,-24 224,-24 224,-12 224,-12 224,-6 230,0 236,0 236,0 266,0 266,0 272,0 278,-6 278,-12 278,-12 278,-24 278,-24 278,-30 272,-36 266,-36"/>
<text text-anchor="middle" x="251" y="-13.32" font-family="Helvetica,sans-Serif" font-size="14.00">(...)</text>
</g>
<!-- 10972&#45;&gt;10973 -->
<g id="edge7" class="edge">
<title>10972&#45;&gt;10973</title>
<path fill="none" stroke="black" d="M269.1,-71.75C266.17,-63.22 263.2,-54.57 260.53,-46.8"/>
<polygon fill="black" stroke="black" points="263.94,-45.93 257.38,-37.6 257.32,-48.2 263.94,-45.93"/>
</g>
<!-- 12042 -->
<g id="node9" class="node">
<title>12042</title>
<path fill="#c0c0c0" stroke="black" d="M338,-36C338,-36 308,-36 308,-36 302,-36 296,-30 296,-24 296,-24 296,-12 296,-12 296,-6 302,0 308,0 308,0 338,0 338,0 344,0 350,-6 350,-12 350,-12 350,-24 350,-24 350,-30 344,-36 338,-36"/>
<text text-anchor="middle" x="323" y="-13.32" font-family="Helvetica,sans-Serif" font-size="14.00">(...)</text>
</g>
<!-- 10972&#45;&gt;12042 -->
<g id="edge8" class="edge">
<title>10972&#45;&gt;12042</title>
<path fill="none" stroke="black" d="M302.78,-71.75C306.05,-63.22 309.37,-54.57 312.34,-46.8"/>
<polygon fill="black" stroke="black" points="315.56,-48.18 315.88,-37.59 309.03,-45.67 315.56,-48.18"/>
</g>
<!-- 12318 -->
<g id="node11" class="node">
<title>12318</title>
<path fill="#fefcfa" stroke="black" d="M540,-166.25C540,-166.25 398,-166.25 398,-166.25 392,-166.25 386,-160.25 386,-154.25 386,-154.25 386,-84 386,-84 386,-78 392,-72 398,-72 398,-72 540,-72 540,-72 546,-72 552,-78 552,-84 552,-84 552,-154.25 552,-154.25 552,-160.25 546,-166.25 540,-166.25"/>
<text text-anchor="middle" x="469" y="-148.95" font-family="Helvetica,sans-Serif" font-size="14.00">19_G &lt;= 0.5</text>
<text text-anchor="middle" x="469" y="-131.7" font-family="Helvetica,sans-Serif" font-size="14.00">entropy = 1.0</text>
<text text-anchor="middle" x="469" y="-114.45" font-family="Helvetica,sans-Serif" font-size="14.00">samples = 6920</text>
<text text-anchor="middle" x="469" y="-97.2" font-family="Helvetica,sans-Serif" font-size="14.00">value = [5490, 5361]</text>
<text text-anchor="middle" x="469" y="-79.95" font-family="Helvetica,sans-Serif" font-size="14.00">class = Animal</text>
</g>
<!-- 12317&#45;&gt;12318 -->
<g id="edge10" class="edge">
<title>12317&#45;&gt;12318</title>
<path fill="none" stroke="black" d="M523.31,-202.07C517.66,-193.54 511.7,-184.54 505.88,-175.77"/>
<polygon fill="black" stroke="black" points="508.92,-174.02 500.48,-167.62 503.09,-177.89 508.92,-174.02"/>
</g>
<!-- 15417 -->
<g id="node14" class="node">
<title>15417</title>
<path fill="#ea995e" stroke="black" d="M715.5,-166.25C715.5,-166.25 582.5,-166.25 582.5,-166.25 576.5,-166.25 570.5,-160.25 570.5,-154.25 570.5,-154.25 570.5,-84 570.5,-84 570.5,-78 576.5,-72 582.5,-72 582.5,-72 715.5,-72 715.5,-72 721.5,-72 727.5,-78 727.5,-84 727.5,-84 727.5,-154.25 727.5,-154.25 727.5,-160.25 721.5,-166.25 715.5,-166.25"/>
<text text-anchor="middle" x="649" y="-148.95" font-family="Helvetica,sans-Serif" font-size="14.00">2_A &lt;= 0.5</text>
<text text-anchor="middle" x="649" y="-131.7" font-family="Helvetica,sans-Serif" font-size="14.00">entropy = 0.631</text>
<text text-anchor="middle" x="649" y="-114.45" font-family="Helvetica,sans-Serif" font-size="14.00">samples = 1021</text>
<text text-anchor="middle" x="649" y="-97.2" font-family="Helvetica,sans-Serif" font-size="14.00">value = [1362, 257]</text>
<text text-anchor="middle" x="649" y="-79.95" font-family="Helvetica,sans-Serif" font-size="14.00">class = Animal</text>
</g>
<!-- 12317&#45;&gt;15417 -->
<g id="edge13" class="edge">
<title>12317&#45;&gt;15417</title>
<path fill="none" stroke="black" d="M588.3,-202.07C594.69,-193.45 601.42,-184.35 607.99,-175.49"/>
<polygon fill="black" stroke="black" points="610.71,-177.69 613.85,-167.57 605.09,-173.53 610.71,-177.69"/>
</g>
<!-- 12319 -->
<g id="node12" class="node">
<title>12319</title>
<path fill="#c0c0c0" stroke="black" d="M430,-36C430,-36 400,-36 400,-36 394,-36 388,-30 388,-24 388,-24 388,-12 388,-12 388,-6 394,0 400,0 400,0 430,0 430,0 436,0 442,-6 442,-12 442,-12 442,-24 442,-24 442,-30 436,-36 430,-36"/>
<text text-anchor="middle" x="415" y="-13.32" font-family="Helvetica,sans-Serif" font-size="14.00">(...)</text>
</g>
<!-- 12318&#45;&gt;12319 -->
<g id="edge11" class="edge">
<title>12318&#45;&gt;12319</title>
<path fill="none" stroke="black" d="M443.74,-71.75C438.98,-63.03 434.16,-54.16 429.85,-46.26"/>
<polygon fill="black" stroke="black" points="432.94,-44.61 425.08,-37.5 426.79,-47.96 432.94,-44.61"/>
</g>
<!-- 14722 -->
<g id="node13" class="node">
<title>14722</title>
<path fill="#c0c0c0" stroke="black" d="M502,-36C502,-36 472,-36 472,-36 466,-36 460,-30 460,-24 460,-24 460,-12 460,-12 460,-6 466,0 472,0 472,0 502,0 502,0 508,0 514,-6 514,-12 514,-12 514,-24 514,-24 514,-30 508,-36 502,-36"/>
<text text-anchor="middle" x="487" y="-13.32" font-family="Helvetica,sans-Serif" font-size="14.00">(...)</text>
</g>
<!-- 12318&#45;&gt;14722 -->
<g id="edge12" class="edge">
<title>12318&#45;&gt;14722</title>
<path fill="none" stroke="black" d="M477.42,-71.75C478.93,-63.42 480.47,-54.97 481.85,-47.34"/>
<polygon fill="black" stroke="black" points="485.27,-48.13 483.61,-37.66 478.38,-46.88 485.27,-48.13"/>
</g>
<!-- 15418 -->
<g id="node15" class="node">
<title>15418</title>
<path fill="#c0c0c0" stroke="black" d="M605,-36C605,-36 575,-36 575,-36 569,-36 563,-30 563,-24 563,-24 563,-12 563,-12 563,-6 569,0 575,0 575,0 605,0 605,0 611,0 617,-6 617,-12 617,-12 617,-24 617,-24 617,-30 611,-36 605,-36"/>
<text text-anchor="middle" x="590" y="-13.32" font-family="Helvetica,sans-Serif" font-size="14.00">(...)</text>
</g>
<!-- 15417&#45;&gt;15418 -->
<g id="edge14" class="edge">
<title>15417&#45;&gt;15418</title>
<path fill="none" stroke="black" d="M621.4,-71.75C616.15,-62.93 610.81,-53.96 606.06,-45.99"/>
<polygon fill="black" stroke="black" points="609.12,-44.28 601,-37.47 603.1,-47.86 609.12,-44.28"/>
</g>
<!-- 15713 -->
<g id="node16" class="node">
<title>15713</title>
<path fill="#c0c0c0" stroke="black" d="M677,-36C677,-36 647,-36 647,-36 641,-36 635,-30 635,-24 635,-24 635,-12 635,-12 635,-6 641,0 647,0 647,0 677,0 677,0 683,0 689,-6 689,-12 689,-12 689,-24 689,-24 689,-30 683,-36 677,-36"/>
<text text-anchor="middle" x="662" y="-13.32" font-family="Helvetica,sans-Serif" font-size="14.00">(...)</text>
</g>
<!-- 15417&#45;&gt;15713 -->
<g id="edge15" class="edge">
<title>15417&#45;&gt;15713</title>
<path fill="none" stroke="black" d="M655.08,-71.75C656.17,-63.42 657.28,-54.97 658.28,-47.34"/>
<polygon fill="black" stroke="black" points="661.72,-48.04 659.55,-37.67 654.78,-47.13 661.72,-48.04"/>
</g>
<!-- 15831 -->
<g id="node18" class="node">
<title>15831</title>
<path fill="#f0b58a" stroke="black" d="M964.5,-296.5C964.5,-296.5 831.5,-296.5 831.5,-296.5 825.5,-296.5 819.5,-290.5 819.5,-284.5 819.5,-284.5 819.5,-214.25 819.5,-214.25 819.5,-208.25 825.5,-202.25 831.5,-202.25 831.5,-202.25 964.5,-202.25 964.5,-202.25 970.5,-202.25 976.5,-208.25 976.5,-214.25 976.5,-214.25 976.5,-284.5 976.5,-284.5 976.5,-290.5 970.5,-296.5 964.5,-296.5"/>
<text text-anchor="middle" x="898" y="-279.2" font-family="Helvetica,sans-Serif" font-size="14.00">5_U &lt;= 0.5</text>
<text text-anchor="middle" x="898" y="-261.95" font-family="Helvetica,sans-Serif" font-size="14.00">entropy = 0.869</text>
<text text-anchor="middle" x="898" y="-244.7" font-family="Helvetica,sans-Serif" font-size="14.00">samples = 986</text>
<text text-anchor="middle" x="898" y="-227.45" font-family="Helvetica,sans-Serif" font-size="14.00">value = [1111, 455]</text>
<text text-anchor="middle" x="898" y="-210.2" font-family="Helvetica,sans-Serif" font-size="14.00">class = Animal</text>
</g>
<!-- 15830&#45;&gt;15831 -->
<g id="edge17" class="edge">
<title>15830&#45;&gt;15831</title>
<path fill="none" stroke="black" d="M898,-332.32C898,-324.42 898,-316.13 898,-307.98"/>
<polygon fill="black" stroke="black" points="901.5,-308.12 898,-298.12 894.5,-308.12 901.5,-308.12"/>
</g>
<!-- 16316 -->
<g id="node25" class="node">
<title>16316</title>
<path fill="#eca26c" stroke="black" d="M1218.5,-296.5C1218.5,-296.5 1085.5,-296.5 1085.5,-296.5 1079.5,-296.5 1073.5,-290.5 1073.5,-284.5 1073.5,-284.5 1073.5,-214.25 1073.5,-214.25 1073.5,-208.25 1079.5,-202.25 1085.5,-202.25 1085.5,-202.25 1218.5,-202.25 1218.5,-202.25 1224.5,-202.25 1230.5,-208.25 1230.5,-214.25 1230.5,-214.25 1230.5,-284.5 1230.5,-284.5 1230.5,-290.5 1224.5,-296.5 1218.5,-296.5"/>
<text text-anchor="middle" x="1152" y="-279.2" font-family="Helvetica,sans-Serif" font-size="14.00">3_C &lt;= 0.5</text>
<text text-anchor="middle" x="1152" y="-261.95" font-family="Helvetica,sans-Serif" font-size="14.00">entropy = 0.732</text>
<text text-anchor="middle" x="1152" y="-244.7" font-family="Helvetica,sans-Serif" font-size="14.00">samples = 944</text>
<text text-anchor="middle" x="1152" y="-227.45" font-family="Helvetica,sans-Serif" font-size="14.00">value = [1196, 309]</text>
<text text-anchor="middle" x="1152" y="-210.2" font-family="Helvetica,sans-Serif" font-size="14.00">class = Animal</text>
</g>
<!-- 15830&#45;&gt;16316 -->
<g id="edge24" class="edge">
<title>15830&#45;&gt;16316</title>
<path fill="none" stroke="black" d="M976.97,-338.75C1004.21,-325 1034.91,-309.5 1062.9,-295.37"/>
<polygon fill="black" stroke="black" points="1064.37,-298.54 1071.72,-290.91 1061.22,-292.29 1064.37,-298.54"/>
</g>
<!-- 15832 -->
<g id="node19" class="node">
<title>15832</title>
<path fill="#eead7f" stroke="black" d="M882,-166.25C882,-166.25 758,-166.25 758,-166.25 752,-166.25 746,-160.25 746,-154.25 746,-154.25 746,-84 746,-84 746,-78 752,-72 758,-72 758,-72 882,-72 882,-72 888,-72 894,-78 894,-84 894,-84 894,-154.25 894,-154.25 894,-160.25 888,-166.25 882,-166.25"/>
<text text-anchor="middle" x="820" y="-148.95" font-family="Helvetica,sans-Serif" font-size="14.00">24_C &lt;= 0.5</text>
<text text-anchor="middle" x="820" y="-131.7" font-family="Helvetica,sans-Serif" font-size="14.00">entropy = 0.827</text>
<text text-anchor="middle" x="820" y="-114.45" font-family="Helvetica,sans-Serif" font-size="14.00">samples = 744</text>
<text text-anchor="middle" x="820" y="-97.2" font-family="Helvetica,sans-Serif" font-size="14.00">value = [880, 309]</text>
<text text-anchor="middle" x="820" y="-79.95" font-family="Helvetica,sans-Serif" font-size="14.00">class = Animal</text>
</g>
<!-- 15831&#45;&gt;15832 -->
<g id="edge18" class="edge">
<title>15831&#45;&gt;15832</title>
<path fill="none" stroke="black" d="M869.84,-202.07C864.7,-193.63 859.3,-184.74 854.01,-176.05"/>
<polygon fill="black" stroke="black" points="857.09,-174.38 848.9,-167.65 851.11,-178.01 857.09,-174.38"/>
</g>
<!-- 16219 -->
<g id="node22" class="node">
<title>16219</title>
<path fill="#f5d1b6" stroke="black" d="M1048,-166.25C1048,-166.25 924,-166.25 924,-166.25 918,-166.25 912,-160.25 912,-154.25 912,-154.25 912,-84 912,-84 912,-78 918,-72 924,-72 924,-72 1048,-72 1048,-72 1054,-72 1060,-78 1060,-84 1060,-84 1060,-154.25 1060,-154.25 1060,-160.25 1054,-166.25 1048,-166.25"/>
<text text-anchor="middle" x="986" y="-148.95" font-family="Helvetica,sans-Serif" font-size="14.00">24_G &lt;= 0.5</text>
<text text-anchor="middle" x="986" y="-131.7" font-family="Helvetica,sans-Serif" font-size="14.00">entropy = 0.963</text>
<text text-anchor="middle" x="986" y="-114.45" font-family="Helvetica,sans-Serif" font-size="14.00">samples = 242</text>
<text text-anchor="middle" x="986" y="-97.2" font-family="Helvetica,sans-Serif" font-size="14.00">value = [231, 146]</text>
<text text-anchor="middle" x="986" y="-79.95" font-family="Helvetica,sans-Serif" font-size="14.00">class = Animal</text>
</g>
<!-- 15831&#45;&gt;16219 -->
<g id="edge21" class="edge">
<title>15831&#45;&gt;16219</title>
<path fill="none" stroke="black" d="M929.77,-202.07C935.63,-193.54 941.8,-184.54 947.82,-175.77"/>
<polygon fill="black" stroke="black" points="950.65,-177.83 953.42,-167.61 944.88,-173.87 950.65,-177.83"/>
</g>
<!-- 15833 -->
<g id="node20" class="node">
<title>15833</title>
<path fill="#c0c0c0" stroke="black" d="M774,-36C774,-36 744,-36 744,-36 738,-36 732,-30 732,-24 732,-24 732,-12 732,-12 732,-6 738,0 744,0 744,0 774,0 774,0 780,0 786,-6 786,-12 786,-12 786,-24 786,-24 786,-30 780,-36 774,-36"/>
<text text-anchor="middle" x="759" y="-13.32" font-family="Helvetica,sans-Serif" font-size="14.00">(...)</text>
</g>
<!-- 15832&#45;&gt;15833 -->
<g id="edge19" class="edge">
<title>15832&#45;&gt;15833</title>
<path fill="none" stroke="black" d="M791.46,-71.75C785.97,-62.83 780.39,-53.76 775.44,-45.72"/>
<polygon fill="black" stroke="black" points="778.58,-44.14 770.36,-37.46 772.62,-47.81 778.58,-44.14"/>
</g>
<!-- 16168 -->
<g id="node21" class="node">
<title>16168</title>
<path fill="#c0c0c0" stroke="black" d="M846,-36C846,-36 816,-36 816,-36 810,-36 804,-30 804,-24 804,-24 804,-12 804,-12 804,-6 810,0 816,0 816,0 846,0 846,0 852,0 858,-6 858,-12 858,-12 858,-24 858,-24 858,-30 852,-36 846,-36"/>
<text text-anchor="middle" x="831" y="-13.32" font-family="Helvetica,sans-Serif" font-size="14.00">(...)</text>
</g>
<!-- 15832&#45;&gt;16168 -->
<g id="edge20" class="edge">
<title>15832&#45;&gt;16168</title>
<path fill="none" stroke="black" d="M825.15,-71.75C826.06,-63.52 826.99,-55.17 827.82,-47.61"/>
<polygon fill="black" stroke="black" points="831.3,-48 828.93,-37.68 824.35,-47.23 831.3,-48"/>
</g>
<!-- 16220 -->
<g id="node23" class="node">
<title>16220</title>
<path fill="#c0c0c0" stroke="black" d="M940,-36C940,-36 910,-36 910,-36 904,-36 898,-30 898,-24 898,-24 898,-12 898,-12 898,-6 904,0 910,0 910,0 940,0 940,0 946,0 952,-6 952,-12 952,-12 952,-24 952,-24 952,-30 946,-36 940,-36"/>
<text text-anchor="middle" x="925" y="-13.32" font-family="Helvetica,sans-Serif" font-size="14.00">(...)</text>
</g>
<!-- 16219&#45;&gt;16220 -->
<g id="edge22" class="edge">
<title>16219&#45;&gt;16220</title>
<path fill="none" stroke="black" d="M957.46,-71.75C951.97,-62.83 946.39,-53.76 941.44,-45.72"/>
<polygon fill="black" stroke="black" points="944.58,-44.14 936.36,-37.46 938.62,-47.81 944.58,-44.14"/>
</g>
<!-- 16303 -->
<g id="node24" class="node">
<title>16303</title>
<path fill="#c0c0c0" stroke="black" d="M1012,-36C1012,-36 982,-36 982,-36 976,-36 970,-30 970,-24 970,-24 970,-12 970,-12 970,-6 976,0 982,0 982,0 1012,0 1012,0 1018,0 1024,-6 1024,-12 1024,-12 1024,-24 1024,-24 1024,-30 1018,-36 1012,-36"/>
<text text-anchor="middle" x="997" y="-13.32" font-family="Helvetica,sans-Serif" font-size="14.00">(...)</text>
</g>
<!-- 16219&#45;&gt;16303 -->
<g id="edge23" class="edge">
<title>16219&#45;&gt;16303</title>
<path fill="none" stroke="black" d="M991.15,-71.75C992.06,-63.52 992.99,-55.17 993.82,-47.61"/>
<polygon fill="black" stroke="black" points="997.3,-48 994.93,-37.68 990.35,-47.23 997.3,-48"/>
</g>
<!-- 16317 -->
<g id="node26" class="node">
<title>16317</title>
<path fill="#e89254" stroke="black" d="M1214,-166.25C1214,-166.25 1090,-166.25 1090,-166.25 1084,-166.25 1078,-160.25 1078,-154.25 1078,-154.25 1078,-84 1078,-84 1078,-78 1084,-72 1090,-72 1090,-72 1214,-72 1214,-72 1220,-72 1226,-78 1226,-84 1226,-84 1226,-154.25 1226,-154.25 1226,-160.25 1220,-166.25 1214,-166.25"/>
<text text-anchor="middle" x="1152" y="-148.95" font-family="Helvetica,sans-Serif" font-size="14.00">9_U &lt;= 0.5</text>
<text text-anchor="middle" x="1152" y="-131.7" font-family="Helvetica,sans-Serif" font-size="14.00">entropy = 0.525</text>
<text text-anchor="middle" x="1152" y="-114.45" font-family="Helvetica,sans-Serif" font-size="14.00">samples = 675</text>
<text text-anchor="middle" x="1152" y="-97.2" font-family="Helvetica,sans-Serif" font-size="14.00">value = [944, 127]</text>
<text text-anchor="middle" x="1152" y="-79.95" font-family="Helvetica,sans-Serif" font-size="14.00">class = Animal</text>
</g>
<!-- 16316&#45;&gt;16317 -->
<g id="edge25" class="edge">
<title>16316&#45;&gt;16317</title>
<path fill="none" stroke="black" d="M1152,-202.07C1152,-194.17 1152,-185.88 1152,-177.73"/>
<polygon fill="black" stroke="black" points="1155.5,-177.87 1152,-167.87 1148.5,-177.87 1155.5,-177.87"/>
</g>
<!-- 16500 -->
<g id="node29" class="node">
<title>16500</title>
<path fill="#f8dcc8" stroke="black" d="M1380,-166.25C1380,-166.25 1256,-166.25 1256,-166.25 1250,-166.25 1244,-160.25 1244,-154.25 1244,-154.25 1244,-84 1244,-84 1244,-78 1250,-72 1256,-72 1256,-72 1380,-72 1380,-72 1386,-72 1392,-78 1392,-84 1392,-84 1392,-154.25 1392,-154.25 1392,-160.25 1386,-166.25 1380,-166.25"/>
<text text-anchor="middle" x="1318" y="-148.95" font-family="Helvetica,sans-Serif" font-size="14.00">8_A &lt;= 0.5</text>
<text text-anchor="middle" x="1318" y="-131.7" font-family="Helvetica,sans-Serif" font-size="14.00">entropy = 0.981</text>
<text text-anchor="middle" x="1318" y="-114.45" font-family="Helvetica,sans-Serif" font-size="14.00">samples = 269</text>
<text text-anchor="middle" x="1318" y="-97.2" font-family="Helvetica,sans-Serif" font-size="14.00">value = [252, 182]</text>
<text text-anchor="middle" x="1318" y="-79.95" font-family="Helvetica,sans-Serif" font-size="14.00">class = Animal</text>
</g>
<!-- 16316&#45;&gt;16500 -->
<g id="edge28" class="edge">
<title>16316&#45;&gt;16500</title>
<path fill="none" stroke="black" d="M1211.93,-202.07C1223.96,-192.78 1236.7,-182.94 1249.01,-173.43"/>
<polygon fill="black" stroke="black" points="1250.91,-176.38 1256.68,-167.5 1246.63,-170.84 1250.91,-176.38"/>
</g>
<!-- 16318 -->
<g id="node27" class="node">
<title>16318</title>
<path fill="#c0c0c0" stroke="black" d="M1124,-36C1124,-36 1094,-36 1094,-36 1088,-36 1082,-30 1082,-24 1082,-24 1082,-12 1082,-12 1082,-6 1088,0 1094,0 1094,0 1124,0 1124,0 1130,0 1136,-6 1136,-12 1136,-12 1136,-24 1136,-24 1136,-30 1130,-36 1124,-36"/>
<text text-anchor="middle" x="1109" y="-13.32" font-family="Helvetica,sans-Serif" font-size="14.00">(...)</text>
</g>
<!-- 16317&#45;&gt;16318 -->
<g id="edge26" class="edge">
<title>16317&#45;&gt;16318</title>
<path fill="none" stroke="black" d="M1131.88,-71.75C1128.14,-63.12 1124.34,-54.36 1120.94,-46.53"/>
<polygon fill="black" stroke="black" points="1124.24,-45.34 1117.05,-37.56 1117.82,-48.13 1124.24,-45.34"/>
</g>
<!-- 16461 -->
<g id="node28" class="node">
<title>16461</title>
<path fill="#c0c0c0" stroke="black" d="M1196,-36C1196,-36 1166,-36 1166,-36 1160,-36 1154,-30 1154,-24 1154,-24 1154,-12 1154,-12 1154,-6 1160,0 1166,0 1166,0 1196,0 1196,0 1202,0 1208,-6 1208,-12 1208,-12 1208,-24 1208,-24 1208,-30 1202,-36 1196,-36"/>
<text text-anchor="middle" x="1181" y="-13.32" font-family="Helvetica,sans-Serif" font-size="14.00">(...)</text>
</g>
<!-- 16317&#45;&gt;16461 -->
<g id="edge27" class="edge">
<title>16317&#45;&gt;16461</title>
<path fill="none" stroke="black" d="M1165.57,-71.75C1168.03,-63.32 1170.54,-54.77 1172.79,-47.07"/>
<polygon fill="black" stroke="black" points="1176.1,-48.21 1175.55,-37.63 1169.38,-46.24 1176.1,-48.21"/>
</g>
<!-- 16501 -->
<g id="node30" class="node">
<title>16501</title>
<path fill="#c0c0c0" stroke="black" d="M1297,-36C1297,-36 1267,-36 1267,-36 1261,-36 1255,-30 1255,-24 1255,-24 1255,-12 1255,-12 1255,-6 1261,0 1267,0 1267,0 1297,0 1297,0 1303,0 1309,-6 1309,-12 1309,-12 1309,-24 1309,-24 1309,-30 1303,-36 1297,-36"/>
<text text-anchor="middle" x="1282" y="-13.32" font-family="Helvetica,sans-Serif" font-size="14.00">(...)</text>
</g>
<!-- 16500&#45;&gt;16501 -->
<g id="edge29" class="edge">
<title>16500&#45;&gt;16501</title>
<path fill="none" stroke="black" d="M1301.16,-71.75C1298.06,-63.22 1294.92,-54.57 1292.1,-46.8"/>
<polygon fill="black" stroke="black" points="1295.46,-45.8 1288.75,-37.6 1288.88,-48.19 1295.46,-45.8"/>
</g>
<!-- 16574 -->
<g id="node31" class="node">
<title>16574</title>
<path fill="#c0c0c0" stroke="black" d="M1369,-36C1369,-36 1339,-36 1339,-36 1333,-36 1327,-30 1327,-24 1327,-24 1327,-12 1327,-12 1327,-6 1333,0 1339,0 1339,0 1369,0 1369,0 1375,0 1381,-6 1381,-12 1381,-12 1381,-24 1381,-24 1381,-30 1375,-36 1369,-36"/>
<text text-anchor="middle" x="1354" y="-13.32" font-family="Helvetica,sans-Serif" font-size="14.00">(...)</text>
</g>
<!-- 16500&#45;&gt;16574 -->
<g id="edge30" class="edge">
<title>16500&#45;&gt;16574</title>
<path fill="none" stroke="black" d="M1334.84,-71.75C1337.94,-63.22 1341.08,-54.57 1343.9,-46.8"/>
<polygon fill="black" stroke="black" points="1347.12,-48.19 1347.25,-37.6 1340.54,-45.8 1347.12,-48.19"/>
</g>
</g>
</svg>
