<?xml version="1.0" encoding="UTF-8" standalone="no"?>
<!DOCTYPE svg PUBLIC "-//W3C//DTD SVG 1.1//EN"
 "http://www.w3.org/Graphics/SVG/1.1/DTD/svg11.dtd">
<!-- Generated by graphviz version 12.0.0 (20240803.0821)
 -->
<!-- Title: Tree Pages: 1 -->
<svg width="1372pt" height="565pt"
 viewBox="0.00 0.00 1372.38 565.00" xmlns="http://www.w3.org/2000/svg" xmlns:xlink="http://www.w3.org/1999/xlink">
<g id="graph0" class="graph" transform="scale(1 1) rotate(0) translate(4 561)">
<title>Tree</title>
<polygon fill="white" stroke="none" points="-4,4 -4,-561 1368.38,-561 1368.38,4 -4,4"/>
<!-- 0 -->
<g id="node1" class="node">
<title>0</title>
<path fill="#fffefd" stroke="black" d="M813,-557C813,-557 653,-557 653,-557 647,-557 641,-551 641,-545 641,-545 641,-474.75 641,-474.75 641,-468.75 647,-462.75 653,-462.75 653,-462.75 813,-462.75 813,-462.75 819,-462.75 825,-468.75 825,-474.75 825,-474.75 825,-545 825,-545 825,-551 819,-557 813,-557"/>
<text text-anchor="middle" x="733" y="-539.7" font-family="Helvetica,sans-Serif" font-size="14.00">23_C &lt;= 0.5</text>
<text text-anchor="middle" x="733" y="-522.45" font-family="Helvetica,sans-Serif" font-size="14.00">entropy = 1.0</text>
<text text-anchor="middle" x="733" y="-505.2" font-family="Helvetica,sans-Serif" font-size="14.00">samples = 38045</text>
<text text-anchor="middle" x="733" y="-487.95" font-family="Helvetica,sans-Serif" font-size="14.00">value = [30296, 30049]</text>
<text text-anchor="middle" x="733" y="-470.7" font-family="Helvetica,sans-Serif" font-size="14.00">class = Animal</text>
</g>
<!-- 1 -->
<g id="node2" class="node">
<title>1</title>
<path fill="#f9fcfe" stroke="black" d="M638,-426.75C638,-426.75 478,-426.75 478,-426.75 472,-426.75 466,-420.75 466,-414.75 466,-414.75 466,-344.5 466,-344.5 466,-338.5 472,-332.5 478,-332.5 478,-332.5 638,-332.5 638,-332.5 644,-332.5 650,-338.5 650,-344.5 650,-344.5 650,-414.75 650,-414.75 650,-420.75 644,-426.75 638,-426.75"/>
<text text-anchor="middle" x="558" y="-409.45" font-family="Helvetica,sans-Serif" font-size="14.00">20_G &lt;= 0.5</text>
<text text-anchor="middle" x="558" y="-392.2" font-family="Helvetica,sans-Serif" font-size="14.00">entropy = 1.0</text>
<text text-anchor="middle" x="558" y="-374.95" font-family="Helvetica,sans-Serif" font-size="14.00">samples = 36699</text>
<text text-anchor="middle" x="558" y="-357.7" font-family="Helvetica,sans-Serif" font-size="14.00">value = [28637, 29567]</text>
<text text-anchor="middle" x="558" y="-340.45" font-family="Helvetica,sans-Serif" font-size="14.00">class = Plant</text>
</g>
<!-- 0&#45;&gt;1 -->
<g id="edge1" class="edge">
<title>0&#45;&gt;1</title>
<path fill="none" stroke="black" d="M669.82,-462.57C657.01,-453.19 643.45,-443.25 630.36,-433.65"/>
<polygon fill="black" stroke="black" points="632.74,-431.06 622.6,-427.97 628.6,-436.7 632.74,-431.06"/>
<text text-anchor="middle" x="625.19" y="-447.11" font-family="Helvetica,sans-Serif" font-size="14.00">True</text>
</g>
<!-- 16236 -->
<g id="node17" class="node">
<title>16236</title>
<path fill="#eda673" stroke="black" d="M968.5,-426.75C968.5,-426.75 835.5,-426.75 835.5,-426.75 829.5,-426.75 823.5,-420.75 823.5,-414.75 823.5,-414.75 823.5,-344.5 823.5,-344.5 823.5,-338.5 829.5,-332.5 835.5,-332.5 835.5,-332.5 968.5,-332.5 968.5,-332.5 974.5,-332.5 980.5,-338.5 980.5,-344.5 980.5,-344.5 980.5,-414.75 980.5,-414.75 980.5,-420.75 974.5,-426.75 968.5,-426.75"/>
<text text-anchor="middle" x="902" y="-409.45" font-family="Helvetica,sans-Serif" font-size="14.00">1_U &lt;= 0.5</text>
<text text-anchor="middle" x="902" y="-392.2" font-family="Helvetica,sans-Serif" font-size="14.00">entropy = 0.769</text>
<text text-anchor="middle" x="902" y="-374.95" font-family="Helvetica,sans-Serif" font-size="14.00">samples = 1346</text>
<text text-anchor="middle" x="902" y="-357.7" font-family="Helvetica,sans-Serif" font-size="14.00">value = [1659, 482]</text>
<text text-anchor="middle" x="902" y="-340.45" font-family="Helvetica,sans-Serif" font-size="14.00">class = Animal</text>
</g>
<!-- 0&#45;&gt;16236 -->
<g id="edge16" class="edge">
<title>0&#45;&gt;16236</title>
<path fill="none" stroke="black" d="M794.01,-462.57C806.26,-453.28 819.23,-443.44 831.76,-433.93"/>
<polygon fill="black" stroke="black" points="833.74,-436.82 839.59,-427.99 829.51,-431.25 833.74,-436.82"/>
<text text-anchor="middle" x="837.4" y="-447.17" font-family="Helvetica,sans-Serif" font-size="14.00">False</text>
</g>
<!-- 2 -->
<g id="node3" class="node">
<title>2</title>
<path fill="#e0f0fb" stroke="black" d="M365,-296.5C365,-296.5 205,-296.5 205,-296.5 199,-296.5 193,-290.5 193,-284.5 193,-284.5 193,-214.25 193,-214.25 193,-208.25 199,-202.25 205,-202.25 205,-202.25 365,-202.25 365,-202.25 371,-202.25 377,-208.25 377,-214.25 377,-214.25 377,-284.5 377,-284.5 377,-290.5 371,-296.5 365,-296.5"/>
<text text-anchor="middle" x="285" y="-279.2" font-family="Helvetica,sans-Serif" font-size="14.00">8_G &lt;= 0.5</text>
<text text-anchor="middle" x="285" y="-261.95" font-family="Helvetica,sans-Serif" font-size="14.00">entropy = 0.995</text>
<text text-anchor="middle" x="285" y="-244.7" font-family="Helvetica,sans-Serif" font-size="14.00">samples = 28466</text>
<text text-anchor="middle" x="285" y="-227.45" font-family="Helvetica,sans-Serif" font-size="14.00">value = [20645, 24445]</text>
<text text-anchor="middle" x="285" y="-210.2" font-family="Helvetica,sans-Serif" font-size="14.00">class = Plant</text>
</g>
<!-- 1&#45;&gt;2 -->
<g id="edge2" class="edge">
<title>1&#45;&gt;2</title>
<path fill="none" stroke="black" d="M465.57,-335.21C440.45,-323.4 413.09,-310.55 387.44,-298.5"/>
<polygon fill="black" stroke="black" points="389.24,-295.48 378.7,-294.39 386.26,-301.81 389.24,-295.48"/>
</g>
<!-- 12191 -->
<g id="node10" class="node">
<title>12191</title>
<path fill="#f6d2b8" stroke="black" d="M629,-296.5C629,-296.5 487,-296.5 487,-296.5 481,-296.5 475,-290.5 475,-284.5 475,-284.5 475,-214.25 475,-214.25 475,-208.25 481,-202.25 487,-202.25 487,-202.25 629,-202.25 629,-202.25 635,-202.25 641,-208.25 641,-214.25 641,-214.25 641,-284.5 641,-284.5 641,-290.5 635,-296.5 629,-296.5"/>
<text text-anchor="middle" x="558" y="-279.2" font-family="Helvetica,sans-Serif" font-size="14.00">21_G &lt;= 0.5</text>
<text text-anchor="middle" x="558" y="-261.95" font-family="Helvetica,sans-Serif" font-size="14.00">entropy = 0.965</text>
<text text-anchor="middle" x="558" y="-244.7" font-family="Helvetica,sans-Serif" font-size="14.00">samples = 8233</text>
<text text-anchor="middle" x="558" y="-227.45" font-family="Helvetica,sans-Serif" font-size="14.00">value = [7992, 5122]</text>
<text text-anchor="middle" x="558" y="-210.2" font-family="Helvetica,sans-Serif" font-size="14.00">class = Animal</text>
</g>
<!-- 1&#45;&gt;12191 -->
<g id="edge9" class="edge">
<title>1&#45;&gt;12191</title>
<path fill="none" stroke="black" d="M558,-332.32C558,-324.42 558,-316.13 558,-307.98"/>
<polygon fill="black" stroke="black" points="561.5,-308.12 558,-298.12 554.5,-308.12 561.5,-308.12"/>
</g>
<!-- 3 -->
<g id="node4" class="node">
<title>3</title>
<path fill="#fdf7f3" stroke="black" d="M172,-166.25C172,-166.25 12,-166.25 12,-166.25 6,-166.25 0,-160.25 0,-154.25 0,-154.25 0,-84 0,-84 0,-78 6,-72 12,-72 12,-72 172,-72 172,-72 178,-72 184,-78 184,-84 184,-84 184,-154.25 184,-154.25 184,-160.25 178,-166.25 172,-166.25"/>
<text text-anchor="middle" x="92" y="-148.95" font-family="Helvetica,sans-Serif" font-size="14.00">2_A &lt;= 0.5</text>
<text text-anchor="middle" x="92" y="-131.7" font-family="Helvetica,sans-Serif" font-size="14.00">entropy = 0.999</text>
<text text-anchor="middle" x="92" y="-114.45" font-family="Helvetica,sans-Serif" font-size="14.00">samples = 19731</text>
<text text-anchor="middle" x="92" y="-97.2" font-family="Helvetica,sans-Serif" font-size="14.00">value = [16076, 15114]</text>
<text text-anchor="middle" x="92" y="-79.95" font-family="Helvetica,sans-Serif" font-size="14.00">class = Animal</text>
</g>
<!-- 2&#45;&gt;3 -->
<g id="edge3" class="edge">
<title>2&#45;&gt;3</title>
<path fill="none" stroke="black" d="M215.05,-201.89C200.89,-192.48 185.9,-182.53 171.45,-172.92"/>
<polygon fill="black" stroke="black" points="173.56,-170.12 163.3,-167.5 169.69,-175.95 173.56,-170.12"/>
</g>
<!-- 8988 -->
<g id="node7" class="node">
<title>8988</title>
<path fill="#9acdf2" stroke="black" d="M356,-166.25C356,-166.25 214,-166.25 214,-166.25 208,-166.25 202,-160.25 202,-154.25 202,-154.25 202,-84 202,-84 202,-78 208,-72 214,-72 214,-72 356,-72 356,-72 362,-72 368,-78 368,-84 368,-84 368,-154.25 368,-154.25 368,-160.25 362,-166.25 356,-166.25"/>
<text text-anchor="middle" x="285" y="-148.95" font-family="Helvetica,sans-Serif" font-size="14.00">7_A &lt;= 0.5</text>
<text text-anchor="middle" x="285" y="-131.7" font-family="Helvetica,sans-Serif" font-size="14.00">entropy = 0.914</text>
<text text-anchor="middle" x="285" y="-114.45" font-family="Helvetica,sans-Serif" font-size="14.00">samples = 8735</text>
<text text-anchor="middle" x="285" y="-97.2" font-family="Helvetica,sans-Serif" font-size="14.00">value = [4569, 9331]</text>
<text text-anchor="middle" x="285" y="-79.95" font-family="Helvetica,sans-Serif" font-size="14.00">class = Plant</text>
</g>
<!-- 2&#45;&gt;8988 -->
<g id="edge6" class="edge">
<title>2&#45;&gt;8988</title>
<path fill="none" stroke="black" d="M285,-202.07C285,-194.17 285,-185.88 285,-177.73"/>
<polygon fill="black" stroke="black" points="288.5,-177.87 285,-167.87 281.5,-177.87 288.5,-177.87"/>
</g>
<!-- 4 -->
<g id="node5" class="node">
<title>4</title>
<path fill="#c0c0c0" stroke="black" d="M71,-36C71,-36 41,-36 41,-36 35,-36 29,-30 29,-24 29,-24 29,-12 29,-12 29,-6 35,0 41,0 41,0 71,0 71,0 77,0 83,-6 83,-12 83,-12 83,-24 83,-24 83,-30 77,-36 71,-36"/>
<text text-anchor="middle" x="56" y="-13.32" font-family="Helvetica,sans-Serif" font-size="14.00">(...)</text>
</g>
<!-- 3&#45;&gt;4 -->
<g id="edge4" class="edge">
<title>3&#45;&gt;4</title>
<path fill="none" stroke="black" d="M75.16,-71.75C72.06,-63.22 68.92,-54.57 66.1,-46.8"/>
<polygon fill="black" stroke="black" points="69.46,-45.8 62.75,-37.6 62.88,-48.19 69.46,-45.8"/>
</g>
<!-- 6861 -->
<g id="node6" class="node">
<title>6861</title>
<path fill="#c0c0c0" stroke="black" d="M143,-36C143,-36 113,-36 113,-36 107,-36 101,-30 101,-24 101,-24 101,-12 101,-12 101,-6 107,0 113,0 113,0 143,0 143,0 149,0 155,-6 155,-12 155,-12 155,-24 155,-24 155,-30 149,-36 143,-36"/>
<text text-anchor="middle" x="128" y="-13.32" font-family="Helvetica,sans-Serif" font-size="14.00">(...)</text>
</g>
<!-- 3&#45;&gt;6861 -->
<g id="edge5" class="edge">
<title>3&#45;&gt;6861</title>
<path fill="none" stroke="black" d="M108.84,-71.75C111.94,-63.22 115.08,-54.57 117.9,-46.8"/>
<polygon fill="black" stroke="black" points="121.12,-48.19 121.25,-37.6 114.54,-45.8 121.12,-48.19"/>
</g>
<!-- 8989 -->
<g id="node8" class="node">
<title>8989</title>
<path fill="#c0c0c0" stroke="black" d="M268,-36C268,-36 238,-36 238,-36 232,-36 226,-30 226,-24 226,-24 226,-12 226,-12 226,-6 232,0 238,0 238,0 268,0 268,0 274,0 280,-6 280,-12 280,-12 280,-24 280,-24 280,-30 274,-36 268,-36"/>
<text text-anchor="middle" x="253" y="-13.32" font-family="Helvetica,sans-Serif" font-size="14.00">(...)</text>
</g>
<!-- 8988&#45;&gt;8989 -->
<g id="edge7" class="edge">
<title>8988&#45;&gt;8989</title>
<path fill="none" stroke="black" d="M270.03,-71.75C267.31,-63.32 264.55,-54.77 262.06,-47.07"/>
<polygon fill="black" stroke="black" points="265.41,-46.05 259.01,-37.61 258.75,-48.2 265.41,-46.05"/>
</g>
<!-- 11260 -->
<g id="node9" class="node">
<title>11260</title>
<path fill="#c0c0c0" stroke="black" d="M340,-36C340,-36 310,-36 310,-36 304,-36 298,-30 298,-24 298,-24 298,-12 298,-12 298,-6 304,0 310,0 310,0 340,0 340,0 346,0 352,-6 352,-12 352,-12 352,-24 352,-24 352,-30 346,-36 340,-36"/>
<text text-anchor="middle" x="325" y="-13.32" font-family="Helvetica,sans-Serif" font-size="14.00">(...)</text>
</g>
<!-- 8988&#45;&gt;11260 -->
<g id="edge8" class="edge">
<title>8988&#45;&gt;11260</title>
<path fill="none" stroke="black" d="M303.71,-71.75C307.15,-63.22 310.65,-54.57 313.78,-46.8"/>
<polygon fill="black" stroke="black" points="317.01,-48.16 317.5,-37.58 310.52,-45.54 317.01,-48.16"/>
</g>
<!-- 12192 -->
<g id="node11" class="node">
<title>12192</title>
<path fill="#f4ccae" stroke="black" d="M540,-166.25C540,-166.25 398,-166.25 398,-166.25 392,-166.25 386,-160.25 386,-154.25 386,-154.25 386,-84 386,-84 386,-78 392,-72 398,-72 398,-72 540,-72 540,-72 546,-72 552,-78 552,-84 552,-84 552,-154.25 552,-154.25 552,-160.25 546,-166.25 540,-166.25"/>
<text text-anchor="middle" x="469" y="-148.95" font-family="Helvetica,sans-Serif" font-size="14.00">22_G &lt;= 0.5</text>
<text text-anchor="middle" x="469" y="-131.7" font-family="Helvetica,sans-Serif" font-size="14.00">entropy = 0.952</text>
<text text-anchor="middle" x="469" y="-114.45" font-family="Helvetica,sans-Serif" font-size="14.00">samples = 6267</text>
<text text-anchor="middle" x="469" y="-97.2" font-family="Helvetica,sans-Serif" font-size="14.00">value = [6270, 3711]</text>
<text text-anchor="middle" x="469" y="-79.95" font-family="Helvetica,sans-Serif" font-size="14.00">class = Animal</text>
</g>
<!-- 12191&#45;&gt;12192 -->
<g id="edge10" class="edge">
<title>12191&#45;&gt;12192</title>
<path fill="none" stroke="black" d="M525.87,-202.07C519.95,-193.54 513.7,-184.54 507.61,-175.77"/>
<polygon fill="black" stroke="black" points="510.52,-173.82 501.95,-167.6 504.77,-177.81 510.52,-173.82"/>
</g>
<!-- 15211 -->
<g id="node14" class="node">
<title>15211</title>
<path fill="#fae8db" stroke="black" d="M724,-166.25C724,-166.25 582,-166.25 582,-166.25 576,-166.25 570,-160.25 570,-154.25 570,-154.25 570,-84 570,-84 570,-78 576,-72 582,-72 582,-72 724,-72 724,-72 730,-72 736,-78 736,-84 736,-84 736,-154.25 736,-154.25 736,-160.25 730,-166.25 724,-166.25"/>
<text text-anchor="middle" x="653" y="-148.95" font-family="Helvetica,sans-Serif" font-size="14.00">8_G &lt;= 0.5</text>
<text text-anchor="middle" x="653" y="-131.7" font-family="Helvetica,sans-Serif" font-size="14.00">entropy = 0.993</text>
<text text-anchor="middle" x="653" y="-114.45" font-family="Helvetica,sans-Serif" font-size="14.00">samples = 1966</text>
<text text-anchor="middle" x="653" y="-97.2" font-family="Helvetica,sans-Serif" font-size="14.00">value = [1722, 1411]</text>
<text text-anchor="middle" x="653" y="-79.95" font-family="Helvetica,sans-Serif" font-size="14.00">class = Animal</text>
</g>
<!-- 12191&#45;&gt;15211 -->
<g id="edge13" class="edge">
<title>12191&#45;&gt;15211</title>
<path fill="none" stroke="black" d="M592.3,-202.07C598.69,-193.45 605.42,-184.35 611.99,-175.49"/>
<polygon fill="black" stroke="black" points="614.71,-177.69 617.85,-167.57 609.09,-173.53 614.71,-177.69"/>
</g>
<!-- 12193 -->
<g id="node12" class="node">
<title>12193</title>
<path fill="#c0c0c0" stroke="black" d="M432,-36C432,-36 402,-36 402,-36 396,-36 390,-30 390,-24 390,-24 390,-12 390,-12 390,-6 396,0 402,0 402,0 432,0 432,0 438,0 444,-6 444,-12 444,-12 444,-24 444,-24 444,-30 438,-36 432,-36"/>
<text text-anchor="middle" x="417" y="-13.32" font-family="Helvetica,sans-Serif" font-size="14.00">(...)</text>
</g>
<!-- 12192&#45;&gt;12193 -->
<g id="edge11" class="edge">
<title>12192&#45;&gt;12193</title>
<path fill="none" stroke="black" d="M444.67,-71.75C440.1,-63.03 435.45,-54.16 431.3,-46.26"/>
<polygon fill="black" stroke="black" points="434.46,-44.74 426.71,-37.51 428.26,-47.99 434.46,-44.74"/>
</g>
<!-- 14932 -->
<g id="node13" class="node">
<title>14932</title>
<path fill="#c0c0c0" stroke="black" d="M504,-36C504,-36 474,-36 474,-36 468,-36 462,-30 462,-24 462,-24 462,-12 462,-12 462,-6 468,0 474,0 474,0 504,0 504,0 510,0 516,-6 516,-12 516,-12 516,-24 516,-24 516,-30 510,-36 504,-36"/>
<text text-anchor="middle" x="489" y="-13.32" font-family="Helvetica,sans-Serif" font-size="14.00">(...)</text>
</g>
<!-- 12192&#45;&gt;14932 -->
<g id="edge12" class="edge">
<title>12192&#45;&gt;14932</title>
<path fill="none" stroke="black" d="M478.36,-71.75C480.04,-63.42 481.74,-54.97 483.28,-47.34"/>
<polygon fill="black" stroke="black" points="486.69,-48.15 485.24,-37.66 479.83,-46.77 486.69,-48.15"/>
</g>
<!-- 15212 -->
<g id="node15" class="node">
<title>15212</title>
<path fill="#c0c0c0" stroke="black" d="M611,-36C611,-36 581,-36 581,-36 575,-36 569,-30 569,-24 569,-24 569,-12 569,-12 569,-6 575,0 581,0 581,0 611,0 611,0 617,0 623,-6 623,-12 623,-12 623,-24 623,-24 623,-30 617,-36 611,-36"/>
<text text-anchor="middle" x="596" y="-13.32" font-family="Helvetica,sans-Serif" font-size="14.00">(...)</text>
</g>
<!-- 15211&#45;&gt;15212 -->
<g id="edge14" class="edge">
<title>15211&#45;&gt;15212</title>
<path fill="none" stroke="black" d="M626.34,-71.75C621.26,-62.93 616.1,-53.96 611.52,-45.99"/>
<polygon fill="black" stroke="black" points="614.65,-44.41 606.63,-37.48 608.58,-47.9 614.65,-44.41"/>
</g>
<!-- 15975 -->
<g id="node16" class="node">
<title>15975</title>
<path fill="#c0c0c0" stroke="black" d="M683,-36C683,-36 653,-36 653,-36 647,-36 641,-30 641,-24 641,-24 641,-12 641,-12 641,-6 647,0 653,0 653,0 683,0 683,0 689,0 695,-6 695,-12 695,-12 695,-24 695,-24 695,-30 689,-36 683,-36"/>
<text text-anchor="middle" x="668" y="-13.32" font-family="Helvetica,sans-Serif" font-size="14.00">(...)</text>
</g>
<!-- 15211&#45;&gt;15975 -->
<g id="edge15" class="edge">
<title>15211&#45;&gt;15975</title>
<path fill="none" stroke="black" d="M660.02,-71.75C661.28,-63.42 662.56,-54.97 663.71,-47.34"/>
<polygon fill="black" stroke="black" points="667.14,-48.08 665.17,-37.67 660.22,-47.03 667.14,-48.08"/>
</g>
<!-- 16237 -->
<g id="node18" class="node">
<title>16237</title>
<path fill="#efb387" stroke="black" d="M964,-296.5C964,-296.5 840,-296.5 840,-296.5 834,-296.5 828,-290.5 828,-284.5 828,-284.5 828,-214.25 828,-214.25 828,-208.25 834,-202.25 840,-202.25 840,-202.25 964,-202.25 964,-202.25 970,-202.25 976,-208.25 976,-214.25 976,-214.25 976,-284.5 976,-284.5 976,-290.5 970,-296.5 964,-296.5"/>
<text text-anchor="middle" x="902" y="-279.2" font-family="Helvetica,sans-Serif" font-size="14.00">25_A &lt;= 0.5</text>
<text text-anchor="middle" x="902" y="-261.95" font-family="Helvetica,sans-Serif" font-size="14.00">entropy = 0.86</text>
<text text-anchor="middle" x="902" y="-244.7" font-family="Helvetica,sans-Serif" font-size="14.00">samples = 738</text>
<text text-anchor="middle" x="902" y="-227.45" font-family="Helvetica,sans-Serif" font-size="14.00">value = [831, 329]</text>
<text text-anchor="middle" x="902" y="-210.2" font-family="Helvetica,sans-Serif" font-size="14.00">class = Animal</text>
</g>
<!-- 16236&#45;&gt;16237 -->
<g id="edge17" class="edge">
<title>16236&#45;&gt;16237</title>
<path fill="none" stroke="black" d="M902,-332.32C902,-324.42 902,-316.13 902,-307.98"/>
<polygon fill="black" stroke="black" points="905.5,-308.12 902,-298.12 898.5,-308.12 905.5,-308.12"/>
</g>
<!-- 16642 -->
<g id="node25" class="node">
<title>16642</title>
<path fill="#ea985e" stroke="black" d="M1204,-296.5C1204,-296.5 1080,-296.5 1080,-296.5 1074,-296.5 1068,-290.5 1068,-284.5 1068,-284.5 1068,-214.25 1068,-214.25 1068,-208.25 1074,-202.25 1080,-202.25 1080,-202.25 1204,-202.25 1204,-202.25 1210,-202.25 1216,-208.25 1216,-214.25 1216,-214.25 1216,-284.5 1216,-284.5 1216,-290.5 1210,-296.5 1204,-296.5"/>
<text text-anchor="middle" x="1142" y="-279.2" font-family="Helvetica,sans-Serif" font-size="14.00">24_G &lt;= 0.5</text>
<text text-anchor="middle" x="1142" y="-261.95" font-family="Helvetica,sans-Serif" font-size="14.00">entropy = 0.625</text>
<text text-anchor="middle" x="1142" y="-244.7" font-family="Helvetica,sans-Serif" font-size="14.00">samples = 608</text>
<text text-anchor="middle" x="1142" y="-227.45" font-family="Helvetica,sans-Serif" font-size="14.00">value = [828, 153]</text>
<text text-anchor="middle" x="1142" y="-210.2" font-family="Helvetica,sans-Serif" font-size="14.00">class = Animal</text>
</g>
<!-- 16236&#45;&gt;16642 -->
<g id="edge24" class="edge">
<title>16236&#45;&gt;16642</title>
<path fill="none" stroke="black" d="M980.92,-336.45C1005.41,-323.36 1032.51,-308.89 1057.37,-295.6"/>
<polygon fill="black" stroke="black" points="1059.01,-298.69 1066.18,-290.89 1055.71,-292.52 1059.01,-298.69"/>
</g>
<!-- 16238 -->
<g id="node19" class="node">
<title>16238</title>
<path fill="#efb082" stroke="black" d="M890,-166.25C890,-166.25 766,-166.25 766,-166.25 760,-166.25 754,-160.25 754,-154.25 754,-154.25 754,-84 754,-84 754,-78 760,-72 766,-72 766,-72 890,-72 890,-72 896,-72 902,-78 902,-84 902,-84 902,-154.25 902,-154.25 902,-160.25 896,-166.25 890,-166.25"/>
<text text-anchor="middle" x="828" y="-148.95" font-family="Helvetica,sans-Serif" font-size="14.00">5_C &lt;= 0.5</text>
<text text-anchor="middle" x="828" y="-131.7" font-family="Helvetica,sans-Serif" font-size="14.00">entropy = 0.842</text>
<text text-anchor="middle" x="828" y="-114.45" font-family="Helvetica,sans-Serif" font-size="14.00">samples = 714</text>
<text text-anchor="middle" x="828" y="-97.2" font-family="Helvetica,sans-Serif" font-size="14.00">value = [820, 304]</text>
<text text-anchor="middle" x="828" y="-79.95" font-family="Helvetica,sans-Serif" font-size="14.00">class = Animal</text>
</g>
<!-- 16237&#45;&gt;16238 -->
<g id="edge18" class="edge">
<title>16237&#45;&gt;16238</title>
<path fill="none" stroke="black" d="M875.28,-202.07C870.46,-193.72 865.39,-184.93 860.43,-176.33"/>
<polygon fill="black" stroke="black" points="863.46,-174.58 855.43,-167.67 857.4,-178.08 863.46,-174.58"/>
</g>
<!-- 16625 -->
<g id="node22" class="node">
<title>16625</title>
<path fill="#90c8f0" stroke="black" d="M1038.38,-166.25C1038.38,-166.25 931.62,-166.25 931.62,-166.25 925.62,-166.25 919.62,-160.25 919.62,-154.25 919.62,-154.25 919.62,-84 919.62,-84 919.62,-78 925.62,-72 931.62,-72 931.62,-72 1038.38,-72 1038.38,-72 1044.38,-72 1050.38,-78 1050.38,-84 1050.38,-84 1050.38,-154.25 1050.38,-154.25 1050.38,-160.25 1044.38,-166.25 1038.38,-166.25"/>
<text text-anchor="middle" x="985" y="-148.95" font-family="Helvetica,sans-Serif" font-size="14.00">24_U &lt;= 0.5</text>
<text text-anchor="middle" x="985" y="-131.7" font-family="Helvetica,sans-Serif" font-size="14.00">entropy = 0.888</text>
<text text-anchor="middle" x="985" y="-114.45" font-family="Helvetica,sans-Serif" font-size="14.00">samples = 24</text>
<text text-anchor="middle" x="985" y="-97.2" font-family="Helvetica,sans-Serif" font-size="14.00">value = [11, 25]</text>
<text text-anchor="middle" x="985" y="-79.95" font-family="Helvetica,sans-Serif" font-size="14.00">class = Plant</text>
</g>
<!-- 16237&#45;&gt;16625 -->
<g id="edge21" class="edge">
<title>16237&#45;&gt;16625</title>
<path fill="none" stroke="black" d="M931.96,-202.07C937.49,-193.54 943.31,-184.54 948.99,-175.77"/>
<polygon fill="black" stroke="black" points="951.76,-177.93 954.26,-167.63 945.89,-174.12 951.76,-177.93"/>
</g>
<!-- 16239 -->
<g id="node20" class="node">
<title>16239</title>
<path fill="#c0c0c0" stroke="black" d="M777,-36C777,-36 747,-36 747,-36 741,-36 735,-30 735,-24 735,-24 735,-12 735,-12 735,-6 741,0 747,0 747,0 777,0 777,0 783,0 789,-6 789,-12 789,-12 789,-24 789,-24 789,-30 783,-36 777,-36"/>
<text text-anchor="middle" x="762" y="-13.32" font-family="Helvetica,sans-Serif" font-size="14.00">(...)</text>
</g>
<!-- 16238&#45;&gt;16239 -->
<g id="edge19" class="edge">
<title>16238&#45;&gt;16239</title>
<path fill="none" stroke="black" d="M797.13,-71.75C791.18,-62.83 785.14,-53.76 779.79,-45.72"/>
<polygon fill="black" stroke="black" points="782.73,-43.82 774.27,-37.43 776.9,-47.7 782.73,-43.82"/>
</g>
<!-- 16530 -->
<g id="node21" class="node">
<title>16530</title>
<path fill="#c0c0c0" stroke="black" d="M849,-36C849,-36 819,-36 819,-36 813,-36 807,-30 807,-24 807,-24 807,-12 807,-12 807,-6 813,0 819,0 819,0 849,0 849,0 855,0 861,-6 861,-12 861,-12 861,-24 861,-24 861,-30 855,-36 849,-36"/>
<text text-anchor="middle" x="834" y="-13.32" font-family="Helvetica,sans-Serif" font-size="14.00">(...)</text>
</g>
<!-- 16238&#45;&gt;16530 -->
<g id="edge20" class="edge">
<title>16238&#45;&gt;16530</title>
<path fill="none" stroke="black" d="M830.81,-71.75C831.31,-63.52 831.81,-55.17 832.27,-47.61"/>
<polygon fill="black" stroke="black" points="835.76,-47.88 832.87,-37.68 828.77,-47.45 835.76,-47.88"/>
</g>
<!-- 16626 -->
<g id="node23" class="node">
<title>16626</title>
<path fill="#c0c0c0" stroke="black" d="M934,-36C934,-36 904,-36 904,-36 898,-36 892,-30 892,-24 892,-24 892,-12 892,-12 892,-6 898,0 904,0 904,0 934,0 934,0 940,0 946,-6 946,-12 946,-12 946,-24 946,-24 946,-30 940,-36 934,-36"/>
<text text-anchor="middle" x="919" y="-13.32" font-family="Helvetica,sans-Serif" font-size="14.00">(...)</text>
</g>
<!-- 16625&#45;&gt;16626 -->
<g id="edge22" class="edge">
<title>16625&#45;&gt;16626</title>
<path fill="none" stroke="black" d="M954.13,-71.75C948.18,-62.83 942.14,-53.76 936.79,-45.72"/>
<polygon fill="black" stroke="black" points="939.73,-43.82 931.27,-37.43 933.9,-47.7 939.73,-43.82"/>
</g>
<!-- 16635 -->
<g id="node24" class="node">
<title>16635</title>
<path fill="#c0c0c0" stroke="black" d="M1006,-36C1006,-36 976,-36 976,-36 970,-36 964,-30 964,-24 964,-24 964,-12 964,-12 964,-6 970,0 976,0 976,0 1006,0 1006,0 1012,0 1018,-6 1018,-12 1018,-12 1018,-24 1018,-24 1018,-30 1012,-36 1006,-36"/>
<text text-anchor="middle" x="991" y="-13.32" font-family="Helvetica,sans-Serif" font-size="14.00">(...)</text>
</g>
<!-- 16625&#45;&gt;16635 -->
<g id="edge23" class="edge">
<title>16625&#45;&gt;16635</title>
<path fill="none" stroke="black" d="M987.81,-71.75C988.31,-63.52 988.81,-55.17 989.27,-47.61"/>
<polygon fill="black" stroke="black" points="992.76,-47.88 989.87,-37.68 985.77,-47.45 992.76,-47.88"/>
</g>
<!-- 16643 -->
<g id="node26" class="node">
<title>16643</title>
<path fill="#ea975c" stroke="black" d="M1204,-166.25C1204,-166.25 1080,-166.25 1080,-166.25 1074,-166.25 1068,-160.25 1068,-154.25 1068,-154.25 1068,-84 1068,-84 1068,-78 1074,-72 1080,-72 1080,-72 1204,-72 1204,-72 1210,-72 1216,-78 1216,-84 1216,-84 1216,-154.25 1216,-154.25 1216,-160.25 1210,-166.25 1204,-166.25"/>
<text text-anchor="middle" x="1142" y="-148.95" font-family="Helvetica,sans-Serif" font-size="14.00">3_G &lt;= 0.5</text>
<text text-anchor="middle" x="1142" y="-131.7" font-family="Helvetica,sans-Serif" font-size="14.00">entropy = 0.611</text>
<text text-anchor="middle" x="1142" y="-114.45" font-family="Helvetica,sans-Serif" font-size="14.00">samples = 590</text>
<text text-anchor="middle" x="1142" y="-97.2" font-family="Helvetica,sans-Serif" font-size="14.00">value = [807, 143]</text>
<text text-anchor="middle" x="1142" y="-79.95" font-family="Helvetica,sans-Serif" font-size="14.00">class = Animal</text>
</g>
<!-- 16642&#45;&gt;16643 -->
<g id="edge25" class="edge">
<title>16642&#45;&gt;16643</title>
<path fill="none" stroke="black" d="M1142,-202.07C1142,-194.17 1142,-185.88 1142,-177.73"/>
<polygon fill="black" stroke="black" points="1145.5,-177.87 1142,-167.87 1138.5,-177.87 1145.5,-177.87"/>
</g>
<!-- 16870 -->
<g id="node29" class="node">
<title>16870</title>
<path fill="#f1bd97" stroke="black" d="M1352.38,-166.25C1352.38,-166.25 1245.62,-166.25 1245.62,-166.25 1239.62,-166.25 1233.62,-160.25 1233.62,-154.25 1233.62,-154.25 1233.62,-84 1233.62,-84 1233.62,-78 1239.62,-72 1245.62,-72 1245.62,-72 1352.38,-72 1352.38,-72 1358.38,-72 1364.38,-78 1364.38,-84 1364.38,-84 1364.38,-154.25 1364.38,-154.25 1364.38,-160.25 1358.38,-166.25 1352.38,-166.25"/>
<text text-anchor="middle" x="1299" y="-148.95" font-family="Helvetica,sans-Serif" font-size="14.00">6_A &lt;= 0.5</text>
<text text-anchor="middle" x="1299" y="-131.7" font-family="Helvetica,sans-Serif" font-size="14.00">entropy = 0.907</text>
<text text-anchor="middle" x="1299" y="-114.45" font-family="Helvetica,sans-Serif" font-size="14.00">samples = 18</text>
<text text-anchor="middle" x="1299" y="-97.2" font-family="Helvetica,sans-Serif" font-size="14.00">value = [21, 10]</text>
<text text-anchor="middle" x="1299" y="-79.95" font-family="Helvetica,sans-Serif" font-size="14.00">class = Animal</text>
</g>
<!-- 16642&#45;&gt;16870 -->
<g id="edge28" class="edge">
<title>16642&#45;&gt;16870</title>
<path fill="none" stroke="black" d="M1198.68,-202.07C1209.95,-192.87 1221.87,-183.13 1233.41,-173.71"/>
<polygon fill="black" stroke="black" points="1235.44,-176.57 1240.97,-167.53 1231.01,-171.15 1235.44,-176.57"/>
</g>
<!-- 16644 -->
<g id="node27" class="node">
<title>16644</title>
<path fill="#c0c0c0" stroke="black" d="M1109,-36C1109,-36 1079,-36 1079,-36 1073,-36 1067,-30 1067,-24 1067,-24 1067,-12 1067,-12 1067,-6 1073,0 1079,0 1079,0 1109,0 1109,0 1115,0 1121,-6 1121,-12 1121,-12 1121,-24 1121,-24 1121,-30 1115,-36 1109,-36"/>
<text text-anchor="middle" x="1094" y="-13.32" font-family="Helvetica,sans-Serif" font-size="14.00">(...)</text>
</g>
<!-- 16643&#45;&gt;16644 -->
<g id="edge26" class="edge">
<title>16643&#45;&gt;16644</title>
<path fill="none" stroke="black" d="M1119.55,-71.75C1115.37,-63.12 1111.12,-54.36 1107.33,-46.53"/>
<polygon fill="black" stroke="black" points="1110.48,-45.01 1102.98,-37.53 1104.18,-48.06 1110.48,-45.01"/>
</g>
<!-- 16793 -->
<g id="node28" class="node">
<title>16793</title>
<path fill="#c0c0c0" stroke="black" d="M1181,-36C1181,-36 1151,-36 1151,-36 1145,-36 1139,-30 1139,-24 1139,-24 1139,-12 1139,-12 1139,-6 1145,0 1151,0 1151,0 1181,0 1181,0 1187,0 1193,-6 1193,-12 1193,-12 1193,-24 1193,-24 1193,-30 1187,-36 1181,-36"/>
<text text-anchor="middle" x="1166" y="-13.32" font-family="Helvetica,sans-Serif" font-size="14.00">(...)</text>
</g>
<!-- 16643&#45;&gt;16793 -->
<g id="edge27" class="edge">
<title>16643&#45;&gt;16793</title>
<path fill="none" stroke="black" d="M1153.23,-71.75C1155.24,-63.42 1157.29,-54.97 1159.14,-47.34"/>
<polygon fill="black" stroke="black" points="1162.53,-48.19 1161.49,-37.64 1155.73,-46.54 1162.53,-48.19"/>
</g>
<!-- 16871 -->
<g id="node30" class="node">
<title>16871</title>
<path fill="#c0c0c0" stroke="black" d="M1278,-36C1278,-36 1248,-36 1248,-36 1242,-36 1236,-30 1236,-24 1236,-24 1236,-12 1236,-12 1236,-6 1242,0 1248,0 1248,0 1278,0 1278,0 1284,0 1290,-6 1290,-12 1290,-12 1290,-24 1290,-24 1290,-30 1284,-36 1278,-36"/>
<text text-anchor="middle" x="1263" y="-13.32" font-family="Helvetica,sans-Serif" font-size="14.00">(...)</text>
</g>
<!-- 16870&#45;&gt;16871 -->
<g id="edge29" class="edge">
<title>16870&#45;&gt;16871</title>
<path fill="none" stroke="black" d="M1282.16,-71.75C1279.06,-63.22 1275.92,-54.57 1273.1,-46.8"/>
<polygon fill="black" stroke="black" points="1276.46,-45.8 1269.75,-37.6 1269.88,-48.19 1276.46,-45.8"/>
</g>
<!-- 16880 -->
<g id="node31" class="node">
<title>16880</title>
<path fill="#c0c0c0" stroke="black" d="M1350,-36C1350,-36 1320,-36 1320,-36 1314,-36 1308,-30 1308,-24 1308,-24 1308,-12 1308,-12 1308,-6 1314,0 1320,0 1320,0 1350,0 1350,0 1356,0 1362,-6 1362,-12 1362,-12 1362,-24 1362,-24 1362,-30 1356,-36 1350,-36"/>
<text text-anchor="middle" x="1335" y="-13.32" font-family="Helvetica,sans-Serif" font-size="14.00">(...)</text>
</g>
<!-- 16870&#45;&gt;16880 -->
<g id="edge30" class="edge">
<title>16870&#45;&gt;16880</title>
<path fill="none" stroke="black" d="M1315.84,-71.75C1318.94,-63.22 1322.08,-54.57 1324.9,-46.8"/>
<polygon fill="black" stroke="black" points="1328.12,-48.19 1328.25,-37.6 1321.54,-45.8 1328.12,-48.19"/>
</g>
</g>
</svg>
