<?xml version="1.0" encoding="UTF-8" standalone="no"?>
<!DOCTYPE svg PUBLIC "-//W3C//DTD SVG 1.1//EN"
 "http://www.w3.org/Graphics/SVG/1.1/DTD/svg11.dtd">
<!-- Generated by graphviz version 12.0.0 (20240803.0821)
 -->
<!-- Title: Tree Pages: 1 -->
<svg width="1348pt" height="565pt"
 viewBox="0.00 0.00 1347.50 565.00" xmlns="http://www.w3.org/2000/svg" xmlns:xlink="http://www.w3.org/1999/xlink">
<g id="graph0" class="graph" transform="scale(1 1) rotate(0) translate(4 561)">
<title>Tree</title>
<polygon fill="white" stroke="none" points="-4,4 -4,-561 1343.5,-561 1343.5,4 -4,4"/>
<!-- 0 -->
<g id="node1" class="node">
<title>0</title>
<path fill="#fffefe" stroke="black" d="M774,-557C774,-557 614,-557 614,-557 608,-557 602,-551 602,-545 602,-545 602,-474.75 602,-474.75 602,-468.75 608,-462.75 614,-462.75 614,-462.75 774,-462.75 774,-462.75 780,-462.75 786,-468.75 786,-474.75 786,-474.75 786,-545 786,-545 786,-551 780,-557 774,-557"/>
<text text-anchor="middle" x="694" y="-539.7" font-family="Helvetica,sans-Serif" font-size="14.00">23_C &lt;= 0.5</text>
<text text-anchor="middle" x="694" y="-522.45" font-family="Helvetica,sans-Serif" font-size="14.00">entropy = 1.0</text>
<text text-anchor="middle" x="694" y="-505.2" font-family="Helvetica,sans-Serif" font-size="14.00">samples = 38172</text>
<text text-anchor="middle" x="694" y="-487.95" font-family="Helvetica,sans-Serif" font-size="14.00">value = [30245, 30100]</text>
<text text-anchor="middle" x="694" y="-470.7" font-family="Helvetica,sans-Serif" font-size="14.00">class = Animal</text>
</g>
<!-- 1 -->
<g id="node2" class="node">
<title>1</title>
<path fill="#f8fbfe" stroke="black" d="M617,-426.75C617,-426.75 457,-426.75 457,-426.75 451,-426.75 445,-420.75 445,-414.75 445,-414.75 445,-344.5 445,-344.5 445,-338.5 451,-332.5 457,-332.5 457,-332.5 617,-332.5 617,-332.5 623,-332.5 629,-338.5 629,-344.5 629,-344.5 629,-414.75 629,-414.75 629,-420.75 623,-426.75 617,-426.75"/>
<text text-anchor="middle" x="537" y="-409.45" font-family="Helvetica,sans-Serif" font-size="14.00">23_A &lt;= 0.5</text>
<text text-anchor="middle" x="537" y="-392.2" font-family="Helvetica,sans-Serif" font-size="14.00">entropy = 1.0</text>
<text text-anchor="middle" x="537" y="-374.95" font-family="Helvetica,sans-Serif" font-size="14.00">samples = 36810</text>
<text text-anchor="middle" x="537" y="-357.7" font-family="Helvetica,sans-Serif" font-size="14.00">value = [28569, 29639]</text>
<text text-anchor="middle" x="537" y="-340.45" font-family="Helvetica,sans-Serif" font-size="14.00">class = Plant</text>
</g>
<!-- 0&#45;&gt;1 -->
<g id="edge1" class="edge">
<title>0&#45;&gt;1</title>
<path fill="none" stroke="black" d="M637.32,-462.57C626.05,-453.37 614.13,-443.63 602.59,-434.21"/>
<polygon fill="black" stroke="black" points="604.99,-431.65 595.03,-428.03 600.56,-437.07 604.99,-431.65"/>
<text text-anchor="middle" x="596.37" y="-447.27" font-family="Helvetica,sans-Serif" font-size="14.00">True</text>
</g>
<!-- 16574 -->
<g id="node17" class="node">
<title>16574</title>
<path fill="#eca46f" stroke="black" d="M929.5,-426.75C929.5,-426.75 796.5,-426.75 796.5,-426.75 790.5,-426.75 784.5,-420.75 784.5,-414.75 784.5,-414.75 784.5,-344.5 784.5,-344.5 784.5,-338.5 790.5,-332.5 796.5,-332.5 796.5,-332.5 929.5,-332.5 929.5,-332.5 935.5,-332.5 941.5,-338.5 941.5,-344.5 941.5,-344.5 941.5,-414.75 941.5,-414.75 941.5,-420.75 935.5,-426.75 929.5,-426.75"/>
<text text-anchor="middle" x="863" y="-409.45" font-family="Helvetica,sans-Serif" font-size="14.00">3_G &lt;= 0.5</text>
<text text-anchor="middle" x="863" y="-392.2" font-family="Helvetica,sans-Serif" font-size="14.00">entropy = 0.752</text>
<text text-anchor="middle" x="863" y="-374.95" font-family="Helvetica,sans-Serif" font-size="14.00">samples = 1362</text>
<text text-anchor="middle" x="863" y="-357.7" font-family="Helvetica,sans-Serif" font-size="14.00">value = [1676, 461]</text>
<text text-anchor="middle" x="863" y="-340.45" font-family="Helvetica,sans-Serif" font-size="14.00">class = Animal</text>
</g>
<!-- 0&#45;&gt;16574 -->
<g id="edge16" class="edge">
<title>0&#45;&gt;16574</title>
<path fill="none" stroke="black" d="M755.01,-462.57C767.26,-453.28 780.23,-443.44 792.76,-433.93"/>
<polygon fill="black" stroke="black" points="794.74,-436.82 800.59,-427.99 790.51,-431.25 794.74,-436.82"/>
<text text-anchor="middle" x="798.4" y="-447.17" font-family="Helvetica,sans-Serif" font-size="14.00">False</text>
</g>
<!-- 2 -->
<g id="node3" class="node">
<title>2</title>
<path fill="#f0f7fd" stroke="black" d="M365,-296.5C365,-296.5 205,-296.5 205,-296.5 199,-296.5 193,-290.5 193,-284.5 193,-284.5 193,-214.25 193,-214.25 193,-208.25 199,-202.25 205,-202.25 205,-202.25 365,-202.25 365,-202.25 371,-202.25 377,-208.25 377,-214.25 377,-214.25 377,-284.5 377,-284.5 377,-290.5 371,-296.5 365,-296.5"/>
<text text-anchor="middle" x="285" y="-279.2" font-family="Helvetica,sans-Serif" font-size="14.00">10_A &lt;= 0.5</text>
<text text-anchor="middle" x="285" y="-261.95" font-family="Helvetica,sans-Serif" font-size="14.00">entropy = 0.999</text>
<text text-anchor="middle" x="285" y="-244.7" font-family="Helvetica,sans-Serif" font-size="14.00">samples = 35299</text>
<text text-anchor="middle" x="285" y="-227.45" font-family="Helvetica,sans-Serif" font-size="14.00">value = [26798, 29035]</text>
<text text-anchor="middle" x="285" y="-210.2" font-family="Helvetica,sans-Serif" font-size="14.00">class = Plant</text>
</g>
<!-- 1&#45;&gt;2 -->
<g id="edge2" class="edge">
<title>1&#45;&gt;2</title>
<path fill="none" stroke="black" d="M445.67,-332.14C426.47,-322.38 406.12,-312.02 386.58,-302.07"/>
<polygon fill="black" stroke="black" points="388.29,-299.02 377.79,-297.6 385.12,-305.26 388.29,-299.02"/>
</g>
<!-- 15849 -->
<g id="node10" class="node">
<title>15849</title>
<path fill="#eeac7d" stroke="black" d="M603.5,-296.5C603.5,-296.5 470.5,-296.5 470.5,-296.5 464.5,-296.5 458.5,-290.5 458.5,-284.5 458.5,-284.5 458.5,-214.25 458.5,-214.25 458.5,-208.25 464.5,-202.25 470.5,-202.25 470.5,-202.25 603.5,-202.25 603.5,-202.25 609.5,-202.25 615.5,-208.25 615.5,-214.25 615.5,-214.25 615.5,-284.5 615.5,-284.5 615.5,-290.5 609.5,-296.5 603.5,-296.5"/>
<text text-anchor="middle" x="537" y="-279.2" font-family="Helvetica,sans-Serif" font-size="14.00">25_C &lt;= 0.5</text>
<text text-anchor="middle" x="537" y="-261.95" font-family="Helvetica,sans-Serif" font-size="14.00">entropy = 0.818</text>
<text text-anchor="middle" x="537" y="-244.7" font-family="Helvetica,sans-Serif" font-size="14.00">samples = 1511</text>
<text text-anchor="middle" x="537" y="-227.45" font-family="Helvetica,sans-Serif" font-size="14.00">value = [1771, 604]</text>
<text text-anchor="middle" x="537" y="-210.2" font-family="Helvetica,sans-Serif" font-size="14.00">class = Animal</text>
</g>
<!-- 1&#45;&gt;15849 -->
<g id="edge9" class="edge">
<title>1&#45;&gt;15849</title>
<path fill="none" stroke="black" d="M537,-332.32C537,-324.42 537,-316.13 537,-307.98"/>
<polygon fill="black" stroke="black" points="540.5,-308.12 537,-298.12 533.5,-308.12 540.5,-308.12"/>
</g>
<!-- 3 -->
<g id="node4" class="node">
<title>3</title>
<path fill="#fef9f5" stroke="black" d="M172,-166.25C172,-166.25 12,-166.25 12,-166.25 6,-166.25 0,-160.25 0,-154.25 0,-154.25 0,-84 0,-84 0,-78 6,-72 12,-72 12,-72 172,-72 172,-72 178,-72 184,-78 184,-84 184,-84 184,-154.25 184,-154.25 184,-160.25 178,-166.25 172,-166.25"/>
<text text-anchor="middle" x="92" y="-148.95" font-family="Helvetica,sans-Serif" font-size="14.00">1_A &lt;= 0.5</text>
<text text-anchor="middle" x="92" y="-131.7" font-family="Helvetica,sans-Serif" font-size="14.00">entropy = 1.0</text>
<text text-anchor="middle" x="92" y="-114.45" font-family="Helvetica,sans-Serif" font-size="14.00">samples = 25062</text>
<text text-anchor="middle" x="92" y="-97.2" font-family="Helvetica,sans-Serif" font-size="14.00">value = [20378, 19360]</text>
<text text-anchor="middle" x="92" y="-79.95" font-family="Helvetica,sans-Serif" font-size="14.00">class = Animal</text>
</g>
<!-- 2&#45;&gt;3 -->
<g id="edge3" class="edge">
<title>2&#45;&gt;3</title>
<path fill="none" stroke="black" d="M215.05,-201.89C200.89,-192.48 185.9,-182.53 171.45,-172.92"/>
<polygon fill="black" stroke="black" points="173.56,-170.12 163.3,-167.5 169.69,-175.95 173.56,-170.12"/>
</g>
<!-- 12002 -->
<g id="node7" class="node">
<title>12002</title>
<path fill="#bcdef6" stroke="black" d="M356,-166.25C356,-166.25 214,-166.25 214,-166.25 208,-166.25 202,-160.25 202,-154.25 202,-154.25 202,-84 202,-84 202,-78 208,-72 214,-72 214,-72 356,-72 356,-72 362,-72 368,-78 368,-84 368,-84 368,-154.25 368,-154.25 368,-160.25 362,-166.25 356,-166.25"/>
<text text-anchor="middle" x="285" y="-148.95" font-family="Helvetica,sans-Serif" font-size="14.00">9_U &lt;= 0.5</text>
<text text-anchor="middle" x="285" y="-131.7" font-family="Helvetica,sans-Serif" font-size="14.00">entropy = 0.97</text>
<text text-anchor="middle" x="285" y="-114.45" font-family="Helvetica,sans-Serif" font-size="14.00">samples = 10237</text>
<text text-anchor="middle" x="285" y="-97.2" font-family="Helvetica,sans-Serif" font-size="14.00">value = [6420, 9675]</text>
<text text-anchor="middle" x="285" y="-79.95" font-family="Helvetica,sans-Serif" font-size="14.00">class = Plant</text>
</g>
<!-- 2&#45;&gt;12002 -->
<g id="edge6" class="edge">
<title>2&#45;&gt;12002</title>
<path fill="none" stroke="black" d="M285,-202.07C285,-194.17 285,-185.88 285,-177.73"/>
<polygon fill="black" stroke="black" points="288.5,-177.87 285,-167.87 281.5,-177.87 288.5,-177.87"/>
</g>
<!-- 4 -->
<g id="node5" class="node">
<title>4</title>
<path fill="#c0c0c0" stroke="black" d="M71,-36C71,-36 41,-36 41,-36 35,-36 29,-30 29,-24 29,-24 29,-12 29,-12 29,-6 35,0 41,0 41,0 71,0 71,0 77,0 83,-6 83,-12 83,-12 83,-24 83,-24 83,-30 77,-36 71,-36"/>
<text text-anchor="middle" x="56" y="-13.32" font-family="Helvetica,sans-Serif" font-size="14.00">(...)</text>
</g>
<!-- 3&#45;&gt;4 -->
<g id="edge4" class="edge">
<title>3&#45;&gt;4</title>
<path fill="none" stroke="black" d="M75.16,-71.75C72.06,-63.22 68.92,-54.57 66.1,-46.8"/>
<polygon fill="black" stroke="black" points="69.46,-45.8 62.75,-37.6 62.88,-48.19 69.46,-45.8"/>
</g>
<!-- 9257 -->
<g id="node6" class="node">
<title>9257</title>
<path fill="#c0c0c0" stroke="black" d="M143,-36C143,-36 113,-36 113,-36 107,-36 101,-30 101,-24 101,-24 101,-12 101,-12 101,-6 107,0 113,0 113,0 143,0 143,0 149,0 155,-6 155,-12 155,-12 155,-24 155,-24 155,-30 149,-36 143,-36"/>
<text text-anchor="middle" x="128" y="-13.32" font-family="Helvetica,sans-Serif" font-size="14.00">(...)</text>
</g>
<!-- 3&#45;&gt;9257 -->
<g id="edge5" class="edge">
<title>3&#45;&gt;9257</title>
<path fill="none" stroke="black" d="M108.84,-71.75C111.94,-63.22 115.08,-54.57 117.9,-46.8"/>
<polygon fill="black" stroke="black" points="121.12,-48.19 121.25,-37.6 114.54,-45.8 121.12,-48.19"/>
</g>
<!-- 12003 -->
<g id="node8" class="node">
<title>12003</title>
<path fill="#c0c0c0" stroke="black" d="M255,-36C255,-36 225,-36 225,-36 219,-36 213,-30 213,-24 213,-24 213,-12 213,-12 213,-6 219,0 225,0 225,0 255,0 255,0 261,0 267,-6 267,-12 267,-12 267,-24 267,-24 267,-30 261,-36 255,-36"/>
<text text-anchor="middle" x="240" y="-13.32" font-family="Helvetica,sans-Serif" font-size="14.00">(...)</text>
</g>
<!-- 12002&#45;&gt;12003 -->
<g id="edge7" class="edge">
<title>12002&#45;&gt;12003</title>
<path fill="none" stroke="black" d="M263.95,-71.75C260.03,-63.12 256.05,-54.36 252.5,-46.53"/>
<polygon fill="black" stroke="black" points="255.74,-45.21 248.42,-37.55 249.37,-48.1 255.74,-45.21"/>
</g>
<!-- 15078 -->
<g id="node9" class="node">
<title>15078</title>
<path fill="#c0c0c0" stroke="black" d="M327,-36C327,-36 297,-36 297,-36 291,-36 285,-30 285,-24 285,-24 285,-12 285,-12 285,-6 291,0 297,0 297,0 327,0 327,0 333,0 339,-6 339,-12 339,-12 339,-24 339,-24 339,-30 333,-36 327,-36"/>
<text text-anchor="middle" x="312" y="-13.32" font-family="Helvetica,sans-Serif" font-size="14.00">(...)</text>
</g>
<!-- 12002&#45;&gt;15078 -->
<g id="edge8" class="edge">
<title>12002&#45;&gt;15078</title>
<path fill="none" stroke="black" d="M297.63,-71.75C299.93,-63.32 302.26,-54.77 304.35,-47.07"/>
<polygon fill="black" stroke="black" points="307.67,-48.2 306.92,-37.63 300.92,-46.36 307.67,-48.2"/>
</g>
<!-- 15850 -->
<g id="node11" class="node">
<title>15850</title>
<path fill="#edaa79" stroke="black" d="M531.5,-166.25C531.5,-166.25 398.5,-166.25 398.5,-166.25 392.5,-166.25 386.5,-160.25 386.5,-154.25 386.5,-154.25 386.5,-84 386.5,-84 386.5,-78 392.5,-72 398.5,-72 398.5,-72 531.5,-72 531.5,-72 537.5,-72 543.5,-78 543.5,-84 543.5,-84 543.5,-154.25 543.5,-154.25 543.5,-160.25 537.5,-166.25 531.5,-166.25"/>
<text text-anchor="middle" x="465" y="-148.95" font-family="Helvetica,sans-Serif" font-size="14.00">17_U &lt;= 0.5</text>
<text text-anchor="middle" x="465" y="-131.7" font-family="Helvetica,sans-Serif" font-size="14.00">entropy = 0.802</text>
<text text-anchor="middle" x="465" y="-114.45" font-family="Helvetica,sans-Serif" font-size="14.00">samples = 1473</text>
<text text-anchor="middle" x="465" y="-97.2" font-family="Helvetica,sans-Serif" font-size="14.00">value = [1746, 564]</text>
<text text-anchor="middle" x="465" y="-79.95" font-family="Helvetica,sans-Serif" font-size="14.00">class = Animal</text>
</g>
<!-- 15849&#45;&gt;15850 -->
<g id="edge10" class="edge">
<title>15849&#45;&gt;15850</title>
<path fill="none" stroke="black" d="M511.01,-202.07C506.32,-193.72 501.38,-184.93 496.55,-176.33"/>
<polygon fill="black" stroke="black" points="499.64,-174.68 491.7,-167.68 493.54,-178.11 499.64,-174.68"/>
</g>
<!-- 16543 -->
<g id="node14" class="node">
<title>16543</title>
<path fill="#b5daf5" stroke="black" d="M680.38,-166.25C680.38,-166.25 573.62,-166.25 573.62,-166.25 567.62,-166.25 561.62,-160.25 561.62,-154.25 561.62,-154.25 561.62,-84 561.62,-84 561.62,-78 567.62,-72 573.62,-72 573.62,-72 680.38,-72 680.38,-72 686.38,-72 692.38,-78 692.38,-84 692.38,-84 692.38,-154.25 692.38,-154.25 692.38,-160.25 686.38,-166.25 680.38,-166.25"/>
<text text-anchor="middle" x="627" y="-148.95" font-family="Helvetica,sans-Serif" font-size="14.00">7_C &lt;= 0.5</text>
<text text-anchor="middle" x="627" y="-131.7" font-family="Helvetica,sans-Serif" font-size="14.00">entropy = 0.961</text>
<text text-anchor="middle" x="627" y="-114.45" font-family="Helvetica,sans-Serif" font-size="14.00">samples = 38</text>
<text text-anchor="middle" x="627" y="-97.2" font-family="Helvetica,sans-Serif" font-size="14.00">value = [25, 40]</text>
<text text-anchor="middle" x="627" y="-79.95" font-family="Helvetica,sans-Serif" font-size="14.00">class = Plant</text>
</g>
<!-- 15849&#45;&gt;16543 -->
<g id="edge13" class="edge">
<title>15849&#45;&gt;16543</title>
<path fill="none" stroke="black" d="M569.49,-202.07C575.48,-193.54 581.79,-184.54 587.95,-175.77"/>
<polygon fill="black" stroke="black" points="590.81,-177.79 593.69,-167.6 585.08,-173.77 590.81,-177.79"/>
</g>
<!-- 15851 -->
<g id="node12" class="node">
<title>15851</title>
<path fill="#c0c0c0" stroke="black" d="M417,-36C417,-36 387,-36 387,-36 381,-36 375,-30 375,-24 375,-24 375,-12 375,-12 375,-6 381,0 387,0 387,0 417,0 417,0 423,0 429,-6 429,-12 429,-12 429,-24 429,-24 429,-30 423,-36 417,-36"/>
<text text-anchor="middle" x="402" y="-13.32" font-family="Helvetica,sans-Serif" font-size="14.00">(...)</text>
</g>
<!-- 15850&#45;&gt;15851 -->
<g id="edge11" class="edge">
<title>15850&#45;&gt;15851</title>
<path fill="none" stroke="black" d="M435.53,-71.75C429.85,-62.83 424.09,-53.76 418.98,-45.72"/>
<polygon fill="black" stroke="black" points="422.04,-44.01 413.73,-37.45 416.14,-47.77 422.04,-44.01"/>
</g>
<!-- 16374 -->
<g id="node13" class="node">
<title>16374</title>
<path fill="#c0c0c0" stroke="black" d="M489,-36C489,-36 459,-36 459,-36 453,-36 447,-30 447,-24 447,-24 447,-12 447,-12 447,-6 453,0 459,0 459,0 489,0 489,0 495,0 501,-6 501,-12 501,-12 501,-24 501,-24 501,-30 495,-36 489,-36"/>
<text text-anchor="middle" x="474" y="-13.32" font-family="Helvetica,sans-Serif" font-size="14.00">(...)</text>
</g>
<!-- 15850&#45;&gt;16374 -->
<g id="edge12" class="edge">
<title>15850&#45;&gt;16374</title>
<path fill="none" stroke="black" d="M469.21,-71.75C469.96,-63.52 470.72,-55.17 471.4,-47.61"/>
<polygon fill="black" stroke="black" points="474.89,-47.96 472.3,-37.68 467.91,-47.32 474.89,-47.96"/>
</g>
<!-- 16544 -->
<g id="node15" class="node">
<title>16544</title>
<path fill="#c0c0c0" stroke="black" d="M579,-36C579,-36 549,-36 549,-36 543,-36 537,-30 537,-24 537,-24 537,-12 537,-12 537,-6 543,0 549,0 549,0 579,0 579,0 585,0 591,-6 591,-12 591,-12 591,-24 591,-24 591,-30 585,-36 579,-36"/>
<text text-anchor="middle" x="564" y="-13.32" font-family="Helvetica,sans-Serif" font-size="14.00">(...)</text>
</g>
<!-- 16543&#45;&gt;16544 -->
<g id="edge14" class="edge">
<title>16543&#45;&gt;16544</title>
<path fill="none" stroke="black" d="M597.53,-71.75C591.85,-62.83 586.09,-53.76 580.98,-45.72"/>
<polygon fill="black" stroke="black" points="584.04,-44.01 575.73,-37.45 578.14,-47.77 584.04,-44.01"/>
</g>
<!-- 16569 -->
<g id="node16" class="node">
<title>16569</title>
<path fill="#c0c0c0" stroke="black" d="M651,-36C651,-36 621,-36 621,-36 615,-36 609,-30 609,-24 609,-24 609,-12 609,-12 609,-6 615,0 621,0 621,0 651,0 651,0 657,0 663,-6 663,-12 663,-12 663,-24 663,-24 663,-30 657,-36 651,-36"/>
<text text-anchor="middle" x="636" y="-13.32" font-family="Helvetica,sans-Serif" font-size="14.00">(...)</text>
</g>
<!-- 16543&#45;&gt;16569 -->
<g id="edge15" class="edge">
<title>16543&#45;&gt;16569</title>
<path fill="none" stroke="black" d="M631.21,-71.75C631.96,-63.52 632.72,-55.17 633.4,-47.61"/>
<polygon fill="black" stroke="black" points="636.89,-47.96 634.3,-37.68 629.91,-47.32 636.89,-47.96"/>
</g>
<!-- 16575 -->
<g id="node18" class="node">
<title>16575</title>
<path fill="#eb9d65" stroke="black" d="M929.5,-296.5C929.5,-296.5 796.5,-296.5 796.5,-296.5 790.5,-296.5 784.5,-290.5 784.5,-284.5 784.5,-284.5 784.5,-214.25 784.5,-214.25 784.5,-208.25 790.5,-202.25 796.5,-202.25 796.5,-202.25 929.5,-202.25 929.5,-202.25 935.5,-202.25 941.5,-208.25 941.5,-214.25 941.5,-214.25 941.5,-284.5 941.5,-284.5 941.5,-290.5 935.5,-296.5 929.5,-296.5"/>
<text text-anchor="middle" x="863" y="-279.2" font-family="Helvetica,sans-Serif" font-size="14.00">27_A &lt;= 0.5</text>
<text text-anchor="middle" x="863" y="-261.95" font-family="Helvetica,sans-Serif" font-size="14.00">entropy = 0.686</text>
<text text-anchor="middle" x="863" y="-244.7" font-family="Helvetica,sans-Serif" font-size="14.00">samples = 980</text>
<text text-anchor="middle" x="863" y="-227.45" font-family="Helvetica,sans-Serif" font-size="14.00">value = [1251, 280]</text>
<text text-anchor="middle" x="863" y="-210.2" font-family="Helvetica,sans-Serif" font-size="14.00">class = Animal</text>
</g>
<!-- 16574&#45;&gt;16575 -->
<g id="edge17" class="edge">
<title>16574&#45;&gt;16575</title>
<path fill="none" stroke="black" d="M863,-332.32C863,-324.42 863,-316.13 863,-307.98"/>
<polygon fill="black" stroke="black" points="866.5,-308.12 863,-298.12 859.5,-308.12 866.5,-308.12"/>
</g>
<!-- 16994 -->
<g id="node25" class="node">
<title>16994</title>
<path fill="#f0b78d" stroke="black" d="M1170,-296.5C1170,-296.5 1046,-296.5 1046,-296.5 1040,-296.5 1034,-290.5 1034,-284.5 1034,-284.5 1034,-214.25 1034,-214.25 1034,-208.25 1040,-202.25 1046,-202.25 1046,-202.25 1170,-202.25 1170,-202.25 1176,-202.25 1182,-208.25 1182,-214.25 1182,-214.25 1182,-284.5 1182,-284.5 1182,-290.5 1176,-296.5 1170,-296.5"/>
<text text-anchor="middle" x="1108" y="-279.2" font-family="Helvetica,sans-Serif" font-size="14.00">22_G &lt;= 0.5</text>
<text text-anchor="middle" x="1108" y="-261.95" font-family="Helvetica,sans-Serif" font-size="14.00">entropy = 0.88</text>
<text text-anchor="middle" x="1108" y="-244.7" font-family="Helvetica,sans-Serif" font-size="14.00">samples = 382</text>
<text text-anchor="middle" x="1108" y="-227.45" font-family="Helvetica,sans-Serif" font-size="14.00">value = [425, 181]</text>
<text text-anchor="middle" x="1108" y="-210.2" font-family="Helvetica,sans-Serif" font-size="14.00">class = Animal</text>
</g>
<!-- 16574&#45;&gt;16994 -->
<g id="edge24" class="edge">
<title>16574&#45;&gt;16994</title>
<path fill="none" stroke="black" d="M941.87,-337.34C968.04,-323.64 997.27,-308.34 1023.83,-294.44"/>
<polygon fill="black" stroke="black" points="1025.28,-297.63 1032.52,-289.89 1022.04,-291.42 1025.28,-297.63"/>
</g>
<!-- 16576 -->
<g id="node19" class="node">
<title>16576</title>
<path fill="#eb9c64" stroke="black" d="M855.5,-166.25C855.5,-166.25 722.5,-166.25 722.5,-166.25 716.5,-166.25 710.5,-160.25 710.5,-154.25 710.5,-154.25 710.5,-84 710.5,-84 710.5,-78 716.5,-72 722.5,-72 722.5,-72 855.5,-72 855.5,-72 861.5,-72 867.5,-78 867.5,-84 867.5,-84 867.5,-154.25 867.5,-154.25 867.5,-160.25 861.5,-166.25 855.5,-166.25"/>
<text text-anchor="middle" x="789" y="-148.95" font-family="Helvetica,sans-Serif" font-size="14.00">12_U &lt;= 0.5</text>
<text text-anchor="middle" x="789" y="-131.7" font-family="Helvetica,sans-Serif" font-size="14.00">entropy = 0.676</text>
<text text-anchor="middle" x="789" y="-114.45" font-family="Helvetica,sans-Serif" font-size="14.00">samples = 968</text>
<text text-anchor="middle" x="789" y="-97.2" font-family="Helvetica,sans-Serif" font-size="14.00">value = [1242, 269]</text>
<text text-anchor="middle" x="789" y="-79.95" font-family="Helvetica,sans-Serif" font-size="14.00">class = Animal</text>
</g>
<!-- 16575&#45;&gt;16576 -->
<g id="edge18" class="edge">
<title>16575&#45;&gt;16576</title>
<path fill="none" stroke="black" d="M836.28,-202.07C831.46,-193.72 826.39,-184.93 821.43,-176.33"/>
<polygon fill="black" stroke="black" points="824.46,-174.58 816.43,-167.67 818.4,-178.08 824.46,-174.58"/>
</g>
<!-- 16989 -->
<g id="node22" class="node">
<title>16989</title>
<path fill="#dbedfa" stroke="black" d="M1004.38,-166.25C1004.38,-166.25 897.62,-166.25 897.62,-166.25 891.62,-166.25 885.62,-160.25 885.62,-154.25 885.62,-154.25 885.62,-84 885.62,-84 885.62,-78 891.62,-72 897.62,-72 897.62,-72 1004.38,-72 1004.38,-72 1010.38,-72 1016.38,-78 1016.38,-84 1016.38,-84 1016.38,-154.25 1016.38,-154.25 1016.38,-160.25 1010.38,-166.25 1004.38,-166.25"/>
<text text-anchor="middle" x="951" y="-148.95" font-family="Helvetica,sans-Serif" font-size="14.00">19_C &lt;= 0.5</text>
<text text-anchor="middle" x="951" y="-131.7" font-family="Helvetica,sans-Serif" font-size="14.00">entropy = 0.993</text>
<text text-anchor="middle" x="951" y="-114.45" font-family="Helvetica,sans-Serif" font-size="14.00">samples = 12</text>
<text text-anchor="middle" x="951" y="-97.2" font-family="Helvetica,sans-Serif" font-size="14.00">value = [9, 11]</text>
<text text-anchor="middle" x="951" y="-79.95" font-family="Helvetica,sans-Serif" font-size="14.00">class = Plant</text>
</g>
<!-- 16575&#45;&gt;16989 -->
<g id="edge21" class="edge">
<title>16575&#45;&gt;16989</title>
<path fill="none" stroke="black" d="M894.77,-202.07C900.63,-193.54 906.8,-184.54 912.82,-175.77"/>
<polygon fill="black" stroke="black" points="915.65,-177.83 918.42,-167.61 909.88,-173.87 915.65,-177.83"/>
</g>
<!-- 16577 -->
<g id="node20" class="node">
<title>16577</title>
<path fill="#c0c0c0" stroke="black" d="M741,-36C741,-36 711,-36 711,-36 705,-36 699,-30 699,-24 699,-24 699,-12 699,-12 699,-6 705,0 711,0 711,0 741,0 741,0 747,0 753,-6 753,-12 753,-12 753,-24 753,-24 753,-30 747,-36 741,-36"/>
<text text-anchor="middle" x="726" y="-13.32" font-family="Helvetica,sans-Serif" font-size="14.00">(...)</text>
</g>
<!-- 16576&#45;&gt;16577 -->
<g id="edge19" class="edge">
<title>16576&#45;&gt;16577</title>
<path fill="none" stroke="black" d="M759.53,-71.75C753.85,-62.83 748.09,-53.76 742.98,-45.72"/>
<polygon fill="black" stroke="black" points="746.04,-44.01 737.73,-37.45 740.14,-47.77 746.04,-44.01"/>
</g>
<!-- 16900 -->
<g id="node21" class="node">
<title>16900</title>
<path fill="#c0c0c0" stroke="black" d="M813,-36C813,-36 783,-36 783,-36 777,-36 771,-30 771,-24 771,-24 771,-12 771,-12 771,-6 777,0 783,0 783,0 813,0 813,0 819,0 825,-6 825,-12 825,-12 825,-24 825,-24 825,-30 819,-36 813,-36"/>
<text text-anchor="middle" x="798" y="-13.32" font-family="Helvetica,sans-Serif" font-size="14.00">(...)</text>
</g>
<!-- 16576&#45;&gt;16900 -->
<g id="edge20" class="edge">
<title>16576&#45;&gt;16900</title>
<path fill="none" stroke="black" d="M793.21,-71.75C793.96,-63.52 794.72,-55.17 795.4,-47.61"/>
<polygon fill="black" stroke="black" points="798.89,-47.96 796.3,-37.68 791.91,-47.32 798.89,-47.96"/>
</g>
<!-- 16990 -->
<g id="node23" class="node">
<title>16990</title>
<path fill="#c0c0c0" stroke="black" d="M900,-36C900,-36 870,-36 870,-36 864,-36 858,-30 858,-24 858,-24 858,-12 858,-12 858,-6 864,0 870,0 870,0 900,0 900,0 906,0 912,-6 912,-12 912,-12 912,-24 912,-24 912,-30 906,-36 900,-36"/>
<text text-anchor="middle" x="885" y="-13.32" font-family="Helvetica,sans-Serif" font-size="14.00">(...)</text>
</g>
<!-- 16989&#45;&gt;16990 -->
<g id="edge22" class="edge">
<title>16989&#45;&gt;16990</title>
<path fill="none" stroke="black" d="M920.13,-71.75C914.18,-62.83 908.14,-53.76 902.79,-45.72"/>
<polygon fill="black" stroke="black" points="905.73,-43.82 897.27,-37.43 899.9,-47.7 905.73,-43.82"/>
</g>
<!-- 16993 -->
<g id="node24" class="node">
<title>16993</title>
<path fill="#c0c0c0" stroke="black" d="M972,-36C972,-36 942,-36 942,-36 936,-36 930,-30 930,-24 930,-24 930,-12 930,-12 930,-6 936,0 942,0 942,0 972,0 972,0 978,0 984,-6 984,-12 984,-12 984,-24 984,-24 984,-30 978,-36 972,-36"/>
<text text-anchor="middle" x="957" y="-13.32" font-family="Helvetica,sans-Serif" font-size="14.00">(...)</text>
</g>
<!-- 16989&#45;&gt;16993 -->
<g id="edge23" class="edge">
<title>16989&#45;&gt;16993</title>
<path fill="none" stroke="black" d="M953.81,-71.75C954.31,-63.52 954.81,-55.17 955.27,-47.61"/>
<polygon fill="black" stroke="black" points="958.76,-47.88 955.87,-37.68 951.77,-47.45 958.76,-47.88"/>
</g>
<!-- 16995 -->
<g id="node26" class="node">
<title>16995</title>
<path fill="#f3c3a1" stroke="black" d="M1170,-166.25C1170,-166.25 1046,-166.25 1046,-166.25 1040,-166.25 1034,-160.25 1034,-154.25 1034,-154.25 1034,-84 1034,-84 1034,-78 1040,-72 1046,-72 1046,-72 1170,-72 1170,-72 1176,-72 1182,-78 1182,-84 1182,-84 1182,-154.25 1182,-154.25 1182,-160.25 1176,-166.25 1170,-166.25"/>
<text text-anchor="middle" x="1108" y="-148.95" font-family="Helvetica,sans-Serif" font-size="14.00">28_A &lt;= 0.5</text>
<text text-anchor="middle" x="1108" y="-131.7" font-family="Helvetica,sans-Serif" font-size="14.00">entropy = 0.929</text>
<text text-anchor="middle" x="1108" y="-114.45" font-family="Helvetica,sans-Serif" font-size="14.00">samples = 223</text>
<text text-anchor="middle" x="1108" y="-97.2" font-family="Helvetica,sans-Serif" font-size="14.00">value = [232, 122]</text>
<text text-anchor="middle" x="1108" y="-79.95" font-family="Helvetica,sans-Serif" font-size="14.00">class = Animal</text>
</g>
<!-- 16994&#45;&gt;16995 -->
<g id="edge25" class="edge">
<title>16994&#45;&gt;16995</title>
<path fill="none" stroke="black" d="M1108,-202.07C1108,-194.17 1108,-185.88 1108,-177.73"/>
<polygon fill="black" stroke="black" points="1111.5,-177.87 1108,-167.87 1104.5,-177.87 1111.5,-177.87"/>
</g>
<!-- 17150 -->
<g id="node29" class="node">
<title>17150</title>
<path fill="#eda876" stroke="black" d="M1327.5,-166.25C1327.5,-166.25 1212.5,-166.25 1212.5,-166.25 1206.5,-166.25 1200.5,-160.25 1200.5,-154.25 1200.5,-154.25 1200.5,-84 1200.5,-84 1200.5,-78 1206.5,-72 1212.5,-72 1212.5,-72 1327.5,-72 1327.5,-72 1333.5,-72 1339.5,-78 1339.5,-84 1339.5,-84 1339.5,-154.25 1339.5,-154.25 1339.5,-160.25 1333.5,-166.25 1327.5,-166.25"/>
<text text-anchor="middle" x="1270" y="-148.95" font-family="Helvetica,sans-Serif" font-size="14.00">25_G &lt;= 0.5</text>
<text text-anchor="middle" x="1270" y="-131.7" font-family="Helvetica,sans-Serif" font-size="14.00">entropy = 0.785</text>
<text text-anchor="middle" x="1270" y="-114.45" font-family="Helvetica,sans-Serif" font-size="14.00">samples = 159</text>
<text text-anchor="middle" x="1270" y="-97.2" font-family="Helvetica,sans-Serif" font-size="14.00">value = [193, 59]</text>
<text text-anchor="middle" x="1270" y="-79.95" font-family="Helvetica,sans-Serif" font-size="14.00">class = Animal</text>
</g>
<!-- 16994&#45;&gt;17150 -->
<g id="edge28" class="edge">
<title>16994&#45;&gt;17150</title>
<path fill="none" stroke="black" d="M1166.49,-202.07C1178.11,-192.87 1190.41,-183.13 1202.32,-173.71"/>
<polygon fill="black" stroke="black" points="1204.47,-176.46 1210.14,-167.51 1200.13,-170.98 1204.47,-176.46"/>
</g>
<!-- 16996 -->
<g id="node27" class="node">
<title>16996</title>
<path fill="#c0c0c0" stroke="black" d="M1078,-36C1078,-36 1048,-36 1048,-36 1042,-36 1036,-30 1036,-24 1036,-24 1036,-12 1036,-12 1036,-6 1042,0 1048,0 1048,0 1078,0 1078,0 1084,0 1090,-6 1090,-12 1090,-12 1090,-24 1090,-24 1090,-30 1084,-36 1078,-36"/>
<text text-anchor="middle" x="1063" y="-13.32" font-family="Helvetica,sans-Serif" font-size="14.00">(...)</text>
</g>
<!-- 16995&#45;&gt;16996 -->
<g id="edge26" class="edge">
<title>16995&#45;&gt;16996</title>
<path fill="none" stroke="black" d="M1086.95,-71.75C1083.03,-63.12 1079.05,-54.36 1075.5,-46.53"/>
<polygon fill="black" stroke="black" points="1078.74,-45.21 1071.42,-37.55 1072.37,-48.1 1078.74,-45.21"/>
</g>
<!-- 17149 -->
<g id="node28" class="node">
<title>17149</title>
<path fill="#c0c0c0" stroke="black" d="M1150,-36C1150,-36 1120,-36 1120,-36 1114,-36 1108,-30 1108,-24 1108,-24 1108,-12 1108,-12 1108,-6 1114,0 1120,0 1120,0 1150,0 1150,0 1156,0 1162,-6 1162,-12 1162,-12 1162,-24 1162,-24 1162,-30 1156,-36 1150,-36"/>
<text text-anchor="middle" x="1135" y="-13.32" font-family="Helvetica,sans-Serif" font-size="14.00">(...)</text>
</g>
<!-- 16995&#45;&gt;17149 -->
<g id="edge27" class="edge">
<title>16995&#45;&gt;17149</title>
<path fill="none" stroke="black" d="M1120.63,-71.75C1122.93,-63.32 1125.26,-54.77 1127.35,-47.07"/>
<polygon fill="black" stroke="black" points="1130.67,-48.2 1129.92,-37.63 1123.92,-46.36 1130.67,-48.2"/>
</g>
<!-- 17151 -->
<g id="node30" class="node">
<title>17151</title>
<path fill="#c0c0c0" stroke="black" d="M1249,-36C1249,-36 1219,-36 1219,-36 1213,-36 1207,-30 1207,-24 1207,-24 1207,-12 1207,-12 1207,-6 1213,0 1219,0 1219,0 1249,0 1249,0 1255,0 1261,-6 1261,-12 1261,-12 1261,-24 1261,-24 1261,-30 1255,-36 1249,-36"/>
<text text-anchor="middle" x="1234" y="-13.32" font-family="Helvetica,sans-Serif" font-size="14.00">(...)</text>
</g>
<!-- 17150&#45;&gt;17151 -->
<g id="edge29" class="edge">
<title>17150&#45;&gt;17151</title>
<path fill="none" stroke="black" d="M1253.16,-71.75C1250.06,-63.22 1246.92,-54.57 1244.1,-46.8"/>
<polygon fill="black" stroke="black" points="1247.46,-45.8 1240.75,-37.6 1240.88,-48.19 1247.46,-45.8"/>
</g>
<!-- 17216 -->
<g id="node31" class="node">
<title>17216</title>
<path fill="#c0c0c0" stroke="black" d="M1321,-36C1321,-36 1291,-36 1291,-36 1285,-36 1279,-30 1279,-24 1279,-24 1279,-12 1279,-12 1279,-6 1285,0 1291,0 1291,0 1321,0 1321,0 1327,0 1333,-6 1333,-12 1333,-12 1333,-24 1333,-24 1333,-30 1327,-36 1321,-36"/>
<text text-anchor="middle" x="1306" y="-13.32" font-family="Helvetica,sans-Serif" font-size="14.00">(...)</text>
</g>
<!-- 17150&#45;&gt;17216 -->
<g id="edge30" class="edge">
<title>17150&#45;&gt;17216</title>
<path fill="none" stroke="black" d="M1286.84,-71.75C1289.94,-63.22 1293.08,-54.57 1295.9,-46.8"/>
<polygon fill="black" stroke="black" points="1299.12,-48.19 1299.25,-37.6 1292.54,-45.8 1299.12,-48.19"/>
</g>
</g>
</svg>
