<?xml version="1.0" encoding="UTF-8" standalone="no"?>
<!DOCTYPE svg PUBLIC "-//W3C//DTD SVG 1.1//EN"
 "http://www.w3.org/Graphics/SVG/1.1/DTD/svg11.dtd">
<!-- Generated by graphviz version 12.0.0 (20240803.0821)
 -->
<!-- Title: Tree Pages: 1 -->
<svg width="1365pt" height="565pt"
 viewBox="0.00 0.00 1365.38 565.00" xmlns="http://www.w3.org/2000/svg" xmlns:xlink="http://www.w3.org/1999/xlink">
<g id="graph0" class="graph" transform="scale(1 1) rotate(0) translate(4 561)">
<title>Tree</title>
<polygon fill="white" stroke="none" points="-4,4 -4,-561 1361.38,-561 1361.38,4 -4,4"/>
<!-- 0 -->
<g id="node1" class="node">
<title>0</title>
<path fill="#ffffff" stroke="black" d="M809,-557C809,-557 649,-557 649,-557 643,-557 637,-551 637,-545 637,-545 637,-474.75 637,-474.75 637,-468.75 643,-462.75 649,-462.75 649,-462.75 809,-462.75 809,-462.75 815,-462.75 821,-468.75 821,-474.75 821,-474.75 821,-545 821,-545 821,-551 815,-557 809,-557"/>
<text text-anchor="middle" x="729" y="-539.7" font-family="Helvetica,sans-Serif" font-size="14.00">23_U &lt;= 0.5</text>
<text text-anchor="middle" x="729" y="-522.45" font-family="Helvetica,sans-Serif" font-size="14.00">entropy = 1.0</text>
<text text-anchor="middle" x="729" y="-505.2" font-family="Helvetica,sans-Serif" font-size="14.00">samples = 38214</text>
<text text-anchor="middle" x="729" y="-487.95" font-family="Helvetica,sans-Serif" font-size="14.00">value = [30185, 30160]</text>
<text text-anchor="middle" x="729" y="-470.7" font-family="Helvetica,sans-Serif" font-size="14.00">class = Animal</text>
</g>
<!-- 1 -->
<g id="node2" class="node">
<title>1</title>
<path fill="#f1f8fd" stroke="black" d="M636,-426.75C636,-426.75 476,-426.75 476,-426.75 470,-426.75 464,-420.75 464,-414.75 464,-414.75 464,-344.5 464,-344.5 464,-338.5 470,-332.5 476,-332.5 476,-332.5 636,-332.5 636,-332.5 642,-332.5 648,-338.5 648,-344.5 648,-344.5 648,-414.75 648,-414.75 648,-420.75 642,-426.75 636,-426.75"/>
<text text-anchor="middle" x="556" y="-409.45" font-family="Helvetica,sans-Serif" font-size="14.00">22_C &lt;= 0.5</text>
<text text-anchor="middle" x="556" y="-392.2" font-family="Helvetica,sans-Serif" font-size="14.00">entropy = 0.999</text>
<text text-anchor="middle" x="556" y="-374.95" font-family="Helvetica,sans-Serif" font-size="14.00">samples = 36298</text>
<text text-anchor="middle" x="556" y="-357.7" font-family="Helvetica,sans-Serif" font-size="14.00">value = [27619, 29661]</text>
<text text-anchor="middle" x="556" y="-340.45" font-family="Helvetica,sans-Serif" font-size="14.00">class = Plant</text>
</g>
<!-- 0&#45;&gt;1 -->
<g id="edge1" class="edge">
<title>0&#45;&gt;1</title>
<path fill="none" stroke="black" d="M666.54,-462.57C654,-453.28 640.73,-443.44 627.9,-433.93"/>
<polygon fill="black" stroke="black" points="629.99,-431.12 619.87,-427.97 625.82,-436.74 629.99,-431.12"/>
<text text-anchor="middle" x="622.33" y="-447.13" font-family="Helvetica,sans-Serif" font-size="14.00">True</text>
</g>
<!-- 16088 -->
<g id="node17" class="node">
<title>16088</title>
<path fill="#ea9a60" stroke="black" d="M971.5,-426.75C971.5,-426.75 838.5,-426.75 838.5,-426.75 832.5,-426.75 826.5,-420.75 826.5,-414.75 826.5,-414.75 826.5,-344.5 826.5,-344.5 826.5,-338.5 832.5,-332.5 838.5,-332.5 838.5,-332.5 971.5,-332.5 971.5,-332.5 977.5,-332.5 983.5,-338.5 983.5,-344.5 983.5,-344.5 983.5,-414.75 983.5,-414.75 983.5,-420.75 977.5,-426.75 971.5,-426.75"/>
<text text-anchor="middle" x="905" y="-409.45" font-family="Helvetica,sans-Serif" font-size="14.00">25_G &lt;= 0.5</text>
<text text-anchor="middle" x="905" y="-392.2" font-family="Helvetica,sans-Serif" font-size="14.00">entropy = 0.641</text>
<text text-anchor="middle" x="905" y="-374.95" font-family="Helvetica,sans-Serif" font-size="14.00">samples = 1916</text>
<text text-anchor="middle" x="905" y="-357.7" font-family="Helvetica,sans-Serif" font-size="14.00">value = [2566, 499]</text>
<text text-anchor="middle" x="905" y="-340.45" font-family="Helvetica,sans-Serif" font-size="14.00">class = Animal</text>
</g>
<!-- 0&#45;&gt;16088 -->
<g id="edge16" class="edge">
<title>0&#45;&gt;16088</title>
<path fill="none" stroke="black" d="M792.54,-462.57C805.42,-453.19 819.06,-443.25 832.23,-433.65"/>
<polygon fill="black" stroke="black" points="834.01,-436.68 840.03,-427.96 829.89,-431.03 834.01,-436.68"/>
<text text-anchor="middle" x="837.38" y="-447.1" font-family="Helvetica,sans-Serif" font-size="14.00">False</text>
</g>
<!-- 2 -->
<g id="node3" class="node">
<title>2</title>
<path fill="#e4f2fb" stroke="black" d="M365,-296.5C365,-296.5 205,-296.5 205,-296.5 199,-296.5 193,-290.5 193,-284.5 193,-284.5 193,-214.25 193,-214.25 193,-208.25 199,-202.25 205,-202.25 205,-202.25 365,-202.25 365,-202.25 371,-202.25 377,-208.25 377,-214.25 377,-214.25 377,-284.5 377,-284.5 377,-290.5 371,-296.5 365,-296.5"/>
<text text-anchor="middle" x="285" y="-279.2" font-family="Helvetica,sans-Serif" font-size="14.00">18_U &lt;= 0.5</text>
<text text-anchor="middle" x="285" y="-261.95" font-family="Helvetica,sans-Serif" font-size="14.00">entropy = 0.996</text>
<text text-anchor="middle" x="285" y="-244.7" font-family="Helvetica,sans-Serif" font-size="14.00">samples = 33182</text>
<text text-anchor="middle" x="285" y="-227.45" font-family="Helvetica,sans-Serif" font-size="14.00">value = [24278, 28058]</text>
<text text-anchor="middle" x="285" y="-210.2" font-family="Helvetica,sans-Serif" font-size="14.00">class = Plant</text>
</g>
<!-- 1&#45;&gt;2 -->
<g id="edge2" class="edge">
<title>1&#45;&gt;2</title>
<path fill="none" stroke="black" d="M463.87,-335.03C439.33,-323.41 412.66,-310.79 387.59,-298.93"/>
<polygon fill="black" stroke="black" points="389.24,-295.83 378.7,-294.72 386.24,-302.16 389.24,-295.83"/>
</g>
<!-- 14405 -->
<g id="node10" class="node">
<title>14405</title>
<path fill="#f1bd98" stroke="black" d="M627,-296.5C627,-296.5 485,-296.5 485,-296.5 479,-296.5 473,-290.5 473,-284.5 473,-284.5 473,-214.25 473,-214.25 473,-208.25 479,-202.25 485,-202.25 485,-202.25 627,-202.25 627,-202.25 633,-202.25 639,-208.25 639,-214.25 639,-214.25 639,-284.5 639,-284.5 639,-290.5 633,-296.5 627,-296.5"/>
<text text-anchor="middle" x="556" y="-279.2" font-family="Helvetica,sans-Serif" font-size="14.00">10_C &lt;= 0.5</text>
<text text-anchor="middle" x="556" y="-261.95" font-family="Helvetica,sans-Serif" font-size="14.00">entropy = 0.909</text>
<text text-anchor="middle" x="556" y="-244.7" font-family="Helvetica,sans-Serif" font-size="14.00">samples = 3116</text>
<text text-anchor="middle" x="556" y="-227.45" font-family="Helvetica,sans-Serif" font-size="14.00">value = [3341, 1603]</text>
<text text-anchor="middle" x="556" y="-210.2" font-family="Helvetica,sans-Serif" font-size="14.00">class = Animal</text>
</g>
<!-- 1&#45;&gt;14405 -->
<g id="edge9" class="edge">
<title>1&#45;&gt;14405</title>
<path fill="none" stroke="black" d="M556,-332.32C556,-324.42 556,-316.13 556,-307.98"/>
<polygon fill="black" stroke="black" points="559.5,-308.12 556,-298.12 552.5,-308.12 559.5,-308.12"/>
</g>
<!-- 3 -->
<g id="node4" class="node">
<title>3</title>
<path fill="#d5eaf9" stroke="black" d="M172,-166.25C172,-166.25 12,-166.25 12,-166.25 6,-166.25 0,-160.25 0,-154.25 0,-154.25 0,-84 0,-84 0,-78 6,-72 12,-72 12,-72 172,-72 172,-72 178,-72 184,-78 184,-84 184,-84 184,-154.25 184,-154.25 184,-160.25 178,-166.25 172,-166.25"/>
<text text-anchor="middle" x="92" y="-148.95" font-family="Helvetica,sans-Serif" font-size="14.00">2_A &lt;= 0.5</text>
<text text-anchor="middle" x="92" y="-131.7" font-family="Helvetica,sans-Serif" font-size="14.00">entropy = 0.99</text>
<text text-anchor="middle" x="92" y="-114.45" font-family="Helvetica,sans-Serif" font-size="14.00">samples = 24245</text>
<text text-anchor="middle" x="92" y="-97.2" font-family="Helvetica,sans-Serif" font-size="14.00">value = [16812, 21400]</text>
<text text-anchor="middle" x="92" y="-79.95" font-family="Helvetica,sans-Serif" font-size="14.00">class = Plant</text>
</g>
<!-- 2&#45;&gt;3 -->
<g id="edge3" class="edge">
<title>2&#45;&gt;3</title>
<path fill="none" stroke="black" d="M215.05,-201.89C200.89,-192.48 185.9,-182.53 171.45,-172.92"/>
<polygon fill="black" stroke="black" points="173.56,-170.12 163.3,-167.5 169.69,-175.95 173.56,-170.12"/>
</g>
<!-- 10666 -->
<g id="node7" class="node">
<title>10666</title>
<path fill="#fcf1ea" stroke="black" d="M356,-166.25C356,-166.25 214,-166.25 214,-166.25 208,-166.25 202,-160.25 202,-154.25 202,-154.25 202,-84 202,-84 202,-78 208,-72 214,-72 214,-72 356,-72 356,-72 362,-72 368,-78 368,-84 368,-84 368,-154.25 368,-154.25 368,-160.25 362,-166.25 356,-166.25"/>
<text text-anchor="middle" x="285" y="-148.95" font-family="Helvetica,sans-Serif" font-size="14.00">2_A &lt;= 0.5</text>
<text text-anchor="middle" x="285" y="-131.7" font-family="Helvetica,sans-Serif" font-size="14.00">entropy = 0.998</text>
<text text-anchor="middle" x="285" y="-114.45" font-family="Helvetica,sans-Serif" font-size="14.00">samples = 8937</text>
<text text-anchor="middle" x="285" y="-97.2" font-family="Helvetica,sans-Serif" font-size="14.00">value = [7466, 6658]</text>
<text text-anchor="middle" x="285" y="-79.95" font-family="Helvetica,sans-Serif" font-size="14.00">class = Animal</text>
</g>
<!-- 2&#45;&gt;10666 -->
<g id="edge6" class="edge">
<title>2&#45;&gt;10666</title>
<path fill="none" stroke="black" d="M285,-202.07C285,-194.17 285,-185.88 285,-177.73"/>
<polygon fill="black" stroke="black" points="288.5,-177.87 285,-167.87 281.5,-177.87 288.5,-177.87"/>
</g>
<!-- 4 -->
<g id="node5" class="node">
<title>4</title>
<path fill="#c0c0c0" stroke="black" d="M71,-36C71,-36 41,-36 41,-36 35,-36 29,-30 29,-24 29,-24 29,-12 29,-12 29,-6 35,0 41,0 41,0 71,0 71,0 77,0 83,-6 83,-12 83,-12 83,-24 83,-24 83,-30 77,-36 71,-36"/>
<text text-anchor="middle" x="56" y="-13.32" font-family="Helvetica,sans-Serif" font-size="14.00">(...)</text>
</g>
<!-- 3&#45;&gt;4 -->
<g id="edge4" class="edge">
<title>3&#45;&gt;4</title>
<path fill="none" stroke="black" d="M75.16,-71.75C72.06,-63.22 68.92,-54.57 66.1,-46.8"/>
<polygon fill="black" stroke="black" points="69.46,-45.8 62.75,-37.6 62.88,-48.19 69.46,-45.8"/>
</g>
<!-- 8029 -->
<g id="node6" class="node">
<title>8029</title>
<path fill="#c0c0c0" stroke="black" d="M143,-36C143,-36 113,-36 113,-36 107,-36 101,-30 101,-24 101,-24 101,-12 101,-12 101,-6 107,0 113,0 113,0 143,0 143,0 149,0 155,-6 155,-12 155,-12 155,-24 155,-24 155,-30 149,-36 143,-36"/>
<text text-anchor="middle" x="128" y="-13.32" font-family="Helvetica,sans-Serif" font-size="14.00">(...)</text>
</g>
<!-- 3&#45;&gt;8029 -->
<g id="edge5" class="edge">
<title>3&#45;&gt;8029</title>
<path fill="none" stroke="black" d="M108.84,-71.75C111.94,-63.22 115.08,-54.57 117.9,-46.8"/>
<polygon fill="black" stroke="black" points="121.12,-48.19 121.25,-37.6 114.54,-45.8 121.12,-48.19"/>
</g>
<!-- 10667 -->
<g id="node8" class="node">
<title>10667</title>
<path fill="#c0c0c0" stroke="black" d="M266,-36C266,-36 236,-36 236,-36 230,-36 224,-30 224,-24 224,-24 224,-12 224,-12 224,-6 230,0 236,0 236,0 266,0 266,0 272,0 278,-6 278,-12 278,-12 278,-24 278,-24 278,-30 272,-36 266,-36"/>
<text text-anchor="middle" x="251" y="-13.32" font-family="Helvetica,sans-Serif" font-size="14.00">(...)</text>
</g>
<!-- 10666&#45;&gt;10667 -->
<g id="edge7" class="edge">
<title>10666&#45;&gt;10667</title>
<path fill="none" stroke="black" d="M269.1,-71.75C266.17,-63.22 263.2,-54.57 260.53,-46.8"/>
<polygon fill="black" stroke="black" points="263.94,-45.93 257.38,-37.6 257.32,-48.2 263.94,-45.93"/>
</g>
<!-- 13454 -->
<g id="node9" class="node">
<title>13454</title>
<path fill="#c0c0c0" stroke="black" d="M338,-36C338,-36 308,-36 308,-36 302,-36 296,-30 296,-24 296,-24 296,-12 296,-12 296,-6 302,0 308,0 308,0 338,0 338,0 344,0 350,-6 350,-12 350,-12 350,-24 350,-24 350,-30 344,-36 338,-36"/>
<text text-anchor="middle" x="323" y="-13.32" font-family="Helvetica,sans-Serif" font-size="14.00">(...)</text>
</g>
<!-- 10666&#45;&gt;13454 -->
<g id="edge8" class="edge">
<title>10666&#45;&gt;13454</title>
<path fill="none" stroke="black" d="M302.78,-71.75C306.05,-63.22 309.37,-54.57 312.34,-46.8"/>
<polygon fill="black" stroke="black" points="315.56,-48.18 315.88,-37.59 309.03,-45.67 315.56,-48.18"/>
</g>
<!-- 14406 -->
<g id="node11" class="node">
<title>14406</title>
<path fill="#f3c5a4" stroke="black" d="M540,-166.25C540,-166.25 398,-166.25 398,-166.25 392,-166.25 386,-160.25 386,-154.25 386,-154.25 386,-84 386,-84 386,-78 392,-72 398,-72 398,-72 540,-72 540,-72 546,-72 552,-78 552,-84 552,-84 552,-154.25 552,-154.25 552,-160.25 546,-166.25 540,-166.25"/>
<text text-anchor="middle" x="469" y="-148.95" font-family="Helvetica,sans-Serif" font-size="14.00">10_U &lt;= 0.5</text>
<text text-anchor="middle" x="469" y="-131.7" font-family="Helvetica,sans-Serif" font-size="14.00">entropy = 0.935</text>
<text text-anchor="middle" x="469" y="-114.45" font-family="Helvetica,sans-Serif" font-size="14.00">samples = 2266</text>
<text text-anchor="middle" x="469" y="-97.2" font-family="Helvetica,sans-Serif" font-size="14.00">value = [2332, 1261]</text>
<text text-anchor="middle" x="469" y="-79.95" font-family="Helvetica,sans-Serif" font-size="14.00">class = Animal</text>
</g>
<!-- 14405&#45;&gt;14406 -->
<g id="edge10" class="edge">
<title>14405&#45;&gt;14406</title>
<path fill="none" stroke="black" d="M524.59,-202.07C518.8,-193.54 512.7,-184.54 506.75,-175.77"/>
<polygon fill="black" stroke="black" points="509.72,-173.92 501.21,-167.61 503.93,-177.85 509.72,-173.92"/>
</g>
<!-- 15699 -->
<g id="node14" class="node">
<title>15699</title>
<path fill="#eeac7c" stroke="black" d="M715.5,-166.25C715.5,-166.25 582.5,-166.25 582.5,-166.25 576.5,-166.25 570.5,-160.25 570.5,-154.25 570.5,-154.25 570.5,-84 570.5,-84 570.5,-78 576.5,-72 582.5,-72 582.5,-72 715.5,-72 715.5,-72 721.5,-72 727.5,-78 727.5,-84 727.5,-84 727.5,-154.25 727.5,-154.25 727.5,-160.25 721.5,-166.25 715.5,-166.25"/>
<text text-anchor="middle" x="649" y="-148.95" font-family="Helvetica,sans-Serif" font-size="14.00">5_A &lt;= 0.5</text>
<text text-anchor="middle" x="649" y="-131.7" font-family="Helvetica,sans-Serif" font-size="14.00">entropy = 0.816</text>
<text text-anchor="middle" x="649" y="-114.45" font-family="Helvetica,sans-Serif" font-size="14.00">samples = 850</text>
<text text-anchor="middle" x="649" y="-97.2" font-family="Helvetica,sans-Serif" font-size="14.00">value = [1009, 342]</text>
<text text-anchor="middle" x="649" y="-79.95" font-family="Helvetica,sans-Serif" font-size="14.00">class = Animal</text>
</g>
<!-- 14405&#45;&gt;15699 -->
<g id="edge13" class="edge">
<title>14405&#45;&gt;15699</title>
<path fill="none" stroke="black" d="M589.58,-202.07C595.83,-193.45 602.43,-184.35 608.85,-175.49"/>
<polygon fill="black" stroke="black" points="611.55,-177.73 614.59,-167.58 605.88,-173.62 611.55,-177.73"/>
</g>
<!-- 14407 -->
<g id="node12" class="node">
<title>14407</title>
<path fill="#c0c0c0" stroke="black" d="M430,-36C430,-36 400,-36 400,-36 394,-36 388,-30 388,-24 388,-24 388,-12 388,-12 388,-6 394,0 400,0 400,0 430,0 430,0 436,0 442,-6 442,-12 442,-12 442,-24 442,-24 442,-30 436,-36 430,-36"/>
<text text-anchor="middle" x="415" y="-13.32" font-family="Helvetica,sans-Serif" font-size="14.00">(...)</text>
</g>
<!-- 14406&#45;&gt;14407 -->
<g id="edge11" class="edge">
<title>14406&#45;&gt;14407</title>
<path fill="none" stroke="black" d="M443.74,-71.75C438.98,-63.03 434.16,-54.16 429.85,-46.26"/>
<polygon fill="black" stroke="black" points="432.94,-44.61 425.08,-37.5 426.79,-47.96 432.94,-44.61"/>
</g>
<!-- 15226 -->
<g id="node13" class="node">
<title>15226</title>
<path fill="#c0c0c0" stroke="black" d="M502,-36C502,-36 472,-36 472,-36 466,-36 460,-30 460,-24 460,-24 460,-12 460,-12 460,-6 466,0 472,0 472,0 502,0 502,0 508,0 514,-6 514,-12 514,-12 514,-24 514,-24 514,-30 508,-36 502,-36"/>
<text text-anchor="middle" x="487" y="-13.32" font-family="Helvetica,sans-Serif" font-size="14.00">(...)</text>
</g>
<!-- 14406&#45;&gt;15226 -->
<g id="edge12" class="edge">
<title>14406&#45;&gt;15226</title>
<path fill="none" stroke="black" d="M477.42,-71.75C478.93,-63.42 480.47,-54.97 481.85,-47.34"/>
<polygon fill="black" stroke="black" points="485.27,-48.13 483.61,-37.66 478.38,-46.88 485.27,-48.13"/>
</g>
<!-- 15700 -->
<g id="node15" class="node">
<title>15700</title>
<path fill="#c0c0c0" stroke="black" d="M607,-36C607,-36 577,-36 577,-36 571,-36 565,-30 565,-24 565,-24 565,-12 565,-12 565,-6 571,0 577,0 577,0 607,0 607,0 613,0 619,-6 619,-12 619,-12 619,-24 619,-24 619,-30 613,-36 607,-36"/>
<text text-anchor="middle" x="592" y="-13.32" font-family="Helvetica,sans-Serif" font-size="14.00">(...)</text>
</g>
<!-- 15699&#45;&gt;15700 -->
<g id="edge14" class="edge">
<title>15699&#45;&gt;15700</title>
<path fill="none" stroke="black" d="M622.34,-71.75C617.26,-62.93 612.1,-53.96 607.52,-45.99"/>
<polygon fill="black" stroke="black" points="610.65,-44.41 602.63,-37.48 604.58,-47.9 610.65,-44.41"/>
</g>
<!-- 16001 -->
<g id="node16" class="node">
<title>16001</title>
<path fill="#c0c0c0" stroke="black" d="M679,-36C679,-36 649,-36 649,-36 643,-36 637,-30 637,-24 637,-24 637,-12 637,-12 637,-6 643,0 649,0 649,0 679,0 679,0 685,0 691,-6 691,-12 691,-12 691,-24 691,-24 691,-30 685,-36 679,-36"/>
<text text-anchor="middle" x="664" y="-13.32" font-family="Helvetica,sans-Serif" font-size="14.00">(...)</text>
</g>
<!-- 15699&#45;&gt;16001 -->
<g id="edge15" class="edge">
<title>15699&#45;&gt;16001</title>
<path fill="none" stroke="black" d="M656.02,-71.75C657.28,-63.42 658.56,-54.97 659.71,-47.34"/>
<polygon fill="black" stroke="black" points="663.14,-48.08 661.17,-37.67 656.22,-47.03 663.14,-48.08"/>
</g>
<!-- 16089 -->
<g id="node18" class="node">
<title>16089</title>
<path fill="#ea985d" stroke="black" d="M971.5,-296.5C971.5,-296.5 838.5,-296.5 838.5,-296.5 832.5,-296.5 826.5,-290.5 826.5,-284.5 826.5,-284.5 826.5,-214.25 826.5,-214.25 826.5,-208.25 832.5,-202.25 838.5,-202.25 838.5,-202.25 971.5,-202.25 971.5,-202.25 977.5,-202.25 983.5,-208.25 983.5,-214.25 983.5,-214.25 983.5,-284.5 983.5,-284.5 983.5,-290.5 977.5,-296.5 971.5,-296.5"/>
<text text-anchor="middle" x="905" y="-279.2" font-family="Helvetica,sans-Serif" font-size="14.00">9_A &lt;= 0.5</text>
<text text-anchor="middle" x="905" y="-261.95" font-family="Helvetica,sans-Serif" font-size="14.00">entropy = 0.621</text>
<text text-anchor="middle" x="905" y="-244.7" font-family="Helvetica,sans-Serif" font-size="14.00">samples = 1849</text>
<text text-anchor="middle" x="905" y="-227.45" font-family="Helvetica,sans-Serif" font-size="14.00">value = [2508, 458]</text>
<text text-anchor="middle" x="905" y="-210.2" font-family="Helvetica,sans-Serif" font-size="14.00">class = Animal</text>
</g>
<!-- 16088&#45;&gt;16089 -->
<g id="edge17" class="edge">
<title>16088&#45;&gt;16089</title>
<path fill="none" stroke="black" d="M905,-332.32C905,-324.42 905,-316.13 905,-307.98"/>
<polygon fill="black" stroke="black" points="908.5,-308.12 905,-298.12 901.5,-308.12 908.5,-308.12"/>
</g>
<!-- 16778 -->
<g id="node25" class="node">
<title>16778</title>
<path fill="#f7dac5" stroke="black" d="M1201.38,-296.5C1201.38,-296.5 1094.62,-296.5 1094.62,-296.5 1088.62,-296.5 1082.62,-290.5 1082.62,-284.5 1082.62,-284.5 1082.62,-214.25 1082.62,-214.25 1082.62,-208.25 1088.62,-202.25 1094.62,-202.25 1094.62,-202.25 1201.38,-202.25 1201.38,-202.25 1207.38,-202.25 1213.38,-208.25 1213.38,-214.25 1213.38,-214.25 1213.38,-284.5 1213.38,-284.5 1213.38,-290.5 1207.38,-296.5 1201.38,-296.5"/>
<text text-anchor="middle" x="1148" y="-279.2" font-family="Helvetica,sans-Serif" font-size="14.00">24_G &lt;= 0.5</text>
<text text-anchor="middle" x="1148" y="-261.95" font-family="Helvetica,sans-Serif" font-size="14.00">entropy = 0.979</text>
<text text-anchor="middle" x="1148" y="-244.7" font-family="Helvetica,sans-Serif" font-size="14.00">samples = 67</text>
<text text-anchor="middle" x="1148" y="-227.45" font-family="Helvetica,sans-Serif" font-size="14.00">value = [58, 41]</text>
<text text-anchor="middle" x="1148" y="-210.2" font-family="Helvetica,sans-Serif" font-size="14.00">class = Animal</text>
</g>
<!-- 16088&#45;&gt;16778 -->
<g id="edge24" class="edge">
<title>16088&#45;&gt;16778</title>
<path fill="none" stroke="black" d="M983.9,-336.99C1012.28,-322 1044.22,-305.15 1072.33,-290.31"/>
<polygon fill="black" stroke="black" points="1073.95,-293.41 1081.16,-285.65 1070.68,-287.22 1073.95,-293.41"/>
</g>
<!-- 16090 -->
<g id="node19" class="node">
<title>16090</title>
<path fill="#e99456" stroke="black" d="M890.5,-166.25C890.5,-166.25 757.5,-166.25 757.5,-166.25 751.5,-166.25 745.5,-160.25 745.5,-154.25 745.5,-154.25 745.5,-84 745.5,-84 745.5,-78 751.5,-72 757.5,-72 757.5,-72 890.5,-72 890.5,-72 896.5,-72 902.5,-78 902.5,-84 902.5,-84 902.5,-154.25 902.5,-154.25 902.5,-160.25 896.5,-166.25 890.5,-166.25"/>
<text text-anchor="middle" x="824" y="-148.95" font-family="Helvetica,sans-Serif" font-size="14.00">22_A &lt;= 0.5</text>
<text text-anchor="middle" x="824" y="-131.7" font-family="Helvetica,sans-Serif" font-size="14.00">entropy = 0.554</text>
<text text-anchor="middle" x="824" y="-114.45" font-family="Helvetica,sans-Serif" font-size="14.00">samples = 1407</text>
<text text-anchor="middle" x="824" y="-97.2" font-family="Helvetica,sans-Serif" font-size="14.00">value = [1955, 289]</text>
<text text-anchor="middle" x="824" y="-79.95" font-family="Helvetica,sans-Serif" font-size="14.00">class = Animal</text>
</g>
<!-- 16089&#45;&gt;16090 -->
<g id="edge18" class="edge">
<title>16089&#45;&gt;16090</title>
<path fill="none" stroke="black" d="M875.76,-202.07C870.42,-193.63 864.81,-184.74 859.32,-176.05"/>
<polygon fill="black" stroke="black" points="862.31,-174.22 854.01,-167.64 856.39,-177.96 862.31,-174.22"/>
</g>
<!-- 16599 -->
<g id="node22" class="node">
<title>16599</title>
<path fill="#eda876" stroke="black" d="M1057,-166.25C1057,-166.25 933,-166.25 933,-166.25 927,-166.25 921,-160.25 921,-154.25 921,-154.25 921,-84 921,-84 921,-78 927,-72 933,-72 933,-72 1057,-72 1057,-72 1063,-72 1069,-78 1069,-84 1069,-84 1069,-154.25 1069,-154.25 1069,-160.25 1063,-166.25 1057,-166.25"/>
<text text-anchor="middle" x="995" y="-148.95" font-family="Helvetica,sans-Serif" font-size="14.00">6_A &lt;= 0.5</text>
<text text-anchor="middle" x="995" y="-131.7" font-family="Helvetica,sans-Serif" font-size="14.00">entropy = 0.785</text>
<text text-anchor="middle" x="995" y="-114.45" font-family="Helvetica,sans-Serif" font-size="14.00">samples = 442</text>
<text text-anchor="middle" x="995" y="-97.2" font-family="Helvetica,sans-Serif" font-size="14.00">value = [553, 169]</text>
<text text-anchor="middle" x="995" y="-79.95" font-family="Helvetica,sans-Serif" font-size="14.00">class = Animal</text>
</g>
<!-- 16089&#45;&gt;16599 -->
<g id="edge21" class="edge">
<title>16089&#45;&gt;16599</title>
<path fill="none" stroke="black" d="M937.49,-202.07C943.48,-193.54 949.79,-184.54 955.95,-175.77"/>
<polygon fill="black" stroke="black" points="958.81,-177.79 961.69,-167.6 953.08,-173.77 958.81,-177.79"/>
</g>
<!-- 16091 -->
<g id="node20" class="node">
<title>16091</title>
<path fill="#c0c0c0" stroke="black" d="M780,-36C780,-36 750,-36 750,-36 744,-36 738,-30 738,-24 738,-24 738,-12 738,-12 738,-6 744,0 750,0 750,0 780,0 780,0 786,0 792,-6 792,-12 792,-12 792,-24 792,-24 792,-30 786,-36 780,-36"/>
<text text-anchor="middle" x="765" y="-13.32" font-family="Helvetica,sans-Serif" font-size="14.00">(...)</text>
</g>
<!-- 16090&#45;&gt;16091 -->
<g id="edge19" class="edge">
<title>16090&#45;&gt;16091</title>
<path fill="none" stroke="black" d="M796.4,-71.75C791.15,-62.93 785.81,-53.96 781.06,-45.99"/>
<polygon fill="black" stroke="black" points="784.12,-44.28 776,-37.47 778.1,-47.86 784.12,-44.28"/>
</g>
<!-- 16504 -->
<g id="node21" class="node">
<title>16504</title>
<path fill="#c0c0c0" stroke="black" d="M852,-36C852,-36 822,-36 822,-36 816,-36 810,-30 810,-24 810,-24 810,-12 810,-12 810,-6 816,0 822,0 822,0 852,0 852,0 858,0 864,-6 864,-12 864,-12 864,-24 864,-24 864,-30 858,-36 852,-36"/>
<text text-anchor="middle" x="837" y="-13.32" font-family="Helvetica,sans-Serif" font-size="14.00">(...)</text>
</g>
<!-- 16090&#45;&gt;16504 -->
<g id="edge20" class="edge">
<title>16090&#45;&gt;16504</title>
<path fill="none" stroke="black" d="M830.08,-71.75C831.17,-63.42 832.28,-54.97 833.28,-47.34"/>
<polygon fill="black" stroke="black" points="836.72,-48.04 834.55,-37.67 829.78,-47.13 836.72,-48.04"/>
</g>
<!-- 16600 -->
<g id="node23" class="node">
<title>16600</title>
<path fill="#c0c0c0" stroke="black" d="M942,-36C942,-36 912,-36 912,-36 906,-36 900,-30 900,-24 900,-24 900,-12 900,-12 900,-6 906,0 912,0 912,0 942,0 942,0 948,0 954,-6 954,-12 954,-12 954,-24 954,-24 954,-30 948,-36 942,-36"/>
<text text-anchor="middle" x="927" y="-13.32" font-family="Helvetica,sans-Serif" font-size="14.00">(...)</text>
</g>
<!-- 16599&#45;&gt;16600 -->
<g id="edge22" class="edge">
<title>16599&#45;&gt;16600</title>
<path fill="none" stroke="black" d="M963.19,-71.75C957,-62.73 950.71,-53.56 945.15,-45.45"/>
<polygon fill="black" stroke="black" points="948.18,-43.69 939.64,-37.42 942.41,-47.65 948.18,-43.69"/>
</g>
<!-- 16753 -->
<g id="node24" class="node">
<title>16753</title>
<path fill="#c0c0c0" stroke="black" d="M1014,-36C1014,-36 984,-36 984,-36 978,-36 972,-30 972,-24 972,-24 972,-12 972,-12 972,-6 978,0 984,0 984,0 1014,0 1014,0 1020,0 1026,-6 1026,-12 1026,-12 1026,-24 1026,-24 1026,-30 1020,-36 1014,-36"/>
<text text-anchor="middle" x="999" y="-13.32" font-family="Helvetica,sans-Serif" font-size="14.00">(...)</text>
</g>
<!-- 16599&#45;&gt;16753 -->
<g id="edge23" class="edge">
<title>16599&#45;&gt;16753</title>
<path fill="none" stroke="black" d="M996.87,-71.75C997.2,-63.52 997.54,-55.17 997.85,-47.61"/>
<polygon fill="black" stroke="black" points="1001.34,-47.82 998.25,-37.68 994.35,-47.54 1001.34,-47.82"/>
</g>
<!-- 16779 -->
<g id="node26" class="node">
<title>16779</title>
<path fill="#ea9a61" stroke="black" d="M1196.88,-166.25C1196.88,-166.25 1099.12,-166.25 1099.12,-166.25 1093.12,-166.25 1087.12,-160.25 1087.12,-154.25 1087.12,-154.25 1087.12,-84 1087.12,-84 1087.12,-78 1093.12,-72 1099.12,-72 1099.12,-72 1196.88,-72 1196.88,-72 1202.88,-72 1208.88,-78 1208.88,-84 1208.88,-84 1208.88,-154.25 1208.88,-154.25 1208.88,-160.25 1202.88,-166.25 1196.88,-166.25"/>
<text text-anchor="middle" x="1148" y="-148.95" font-family="Helvetica,sans-Serif" font-size="14.00">20_U &lt;= 0.5</text>
<text text-anchor="middle" x="1148" y="-131.7" font-family="Helvetica,sans-Serif" font-size="14.00">entropy = 0.65</text>
<text text-anchor="middle" x="1148" y="-114.45" font-family="Helvetica,sans-Serif" font-size="14.00">samples = 34</text>
<text text-anchor="middle" x="1148" y="-97.2" font-family="Helvetica,sans-Serif" font-size="14.00">value = [40, 8]</text>
<text text-anchor="middle" x="1148" y="-79.95" font-family="Helvetica,sans-Serif" font-size="14.00">class = Animal</text>
</g>
<!-- 16778&#45;&gt;16779 -->
<g id="edge25" class="edge">
<title>16778&#45;&gt;16779</title>
<path fill="none" stroke="black" d="M1148,-202.07C1148,-194.17 1148,-185.88 1148,-177.73"/>
<polygon fill="black" stroke="black" points="1151.5,-177.87 1148,-167.87 1144.5,-177.87 1151.5,-177.87"/>
</g>
<!-- 16800 -->
<g id="node29" class="node">
<title>16800</title>
<path fill="#a5d2f3" stroke="black" d="M1345.38,-166.25C1345.38,-166.25 1238.62,-166.25 1238.62,-166.25 1232.62,-166.25 1226.62,-160.25 1226.62,-154.25 1226.62,-154.25 1226.62,-84 1226.62,-84 1226.62,-78 1232.62,-72 1238.62,-72 1238.62,-72 1345.38,-72 1345.38,-72 1351.38,-72 1357.38,-78 1357.38,-84 1357.38,-84 1357.38,-154.25 1357.38,-154.25 1357.38,-160.25 1351.38,-166.25 1345.38,-166.25"/>
<text text-anchor="middle" x="1292" y="-148.95" font-family="Helvetica,sans-Serif" font-size="14.00">6_U &lt;= 0.5</text>
<text text-anchor="middle" x="1292" y="-131.7" font-family="Helvetica,sans-Serif" font-size="14.00">entropy = 0.937</text>
<text text-anchor="middle" x="1292" y="-114.45" font-family="Helvetica,sans-Serif" font-size="14.00">samples = 33</text>
<text text-anchor="middle" x="1292" y="-97.2" font-family="Helvetica,sans-Serif" font-size="14.00">value = [18, 33]</text>
<text text-anchor="middle" x="1292" y="-79.95" font-family="Helvetica,sans-Serif" font-size="14.00">class = Plant</text>
</g>
<!-- 16778&#45;&gt;16800 -->
<g id="edge28" class="edge">
<title>16778&#45;&gt;16800</title>
<path fill="none" stroke="black" d="M1199.99,-202.07C1210.29,-192.9 1221.18,-183.2 1231.72,-173.81"/>
<polygon fill="black" stroke="black" points="1233.82,-176.63 1238.96,-167.36 1229.16,-171.4 1233.82,-176.63"/>
</g>
<!-- 16780 -->
<g id="node27" class="node">
<title>16780</title>
<path fill="#c0c0c0" stroke="black" d="M1109,-36C1109,-36 1079,-36 1079,-36 1073,-36 1067,-30 1067,-24 1067,-24 1067,-12 1067,-12 1067,-6 1073,0 1079,0 1079,0 1109,0 1109,0 1115,0 1121,-6 1121,-12 1121,-12 1121,-24 1121,-24 1121,-30 1115,-36 1109,-36"/>
<text text-anchor="middle" x="1094" y="-13.32" font-family="Helvetica,sans-Serif" font-size="14.00">(...)</text>
</g>
<!-- 16779&#45;&gt;16780 -->
<g id="edge26" class="edge">
<title>16779&#45;&gt;16780</title>
<path fill="none" stroke="black" d="M1122.74,-71.75C1117.98,-63.03 1113.16,-54.16 1108.85,-46.26"/>
<polygon fill="black" stroke="black" points="1111.94,-44.61 1104.08,-37.5 1105.79,-47.96 1111.94,-44.61"/>
</g>
<!-- 16791 -->
<g id="node28" class="node">
<title>16791</title>
<path fill="#c0c0c0" stroke="black" d="M1181,-36C1181,-36 1151,-36 1151,-36 1145,-36 1139,-30 1139,-24 1139,-24 1139,-12 1139,-12 1139,-6 1145,0 1151,0 1151,0 1181,0 1181,0 1187,0 1193,-6 1193,-12 1193,-12 1193,-24 1193,-24 1193,-30 1187,-36 1181,-36"/>
<text text-anchor="middle" x="1166" y="-13.32" font-family="Helvetica,sans-Serif" font-size="14.00">(...)</text>
</g>
<!-- 16779&#45;&gt;16791 -->
<g id="edge27" class="edge">
<title>16779&#45;&gt;16791</title>
<path fill="none" stroke="black" d="M1156.42,-71.75C1157.93,-63.42 1159.47,-54.97 1160.85,-47.34"/>
<polygon fill="black" stroke="black" points="1164.27,-48.13 1162.61,-37.66 1157.38,-46.88 1164.27,-48.13"/>
</g>
<!-- 16801 -->
<g id="node30" class="node">
<title>16801</title>
<path fill="#c0c0c0" stroke="black" d="M1271,-36C1271,-36 1241,-36 1241,-36 1235,-36 1229,-30 1229,-24 1229,-24 1229,-12 1229,-12 1229,-6 1235,0 1241,0 1241,0 1271,0 1271,0 1277,0 1283,-6 1283,-12 1283,-12 1283,-24 1283,-24 1283,-30 1277,-36 1271,-36"/>
<text text-anchor="middle" x="1256" y="-13.32" font-family="Helvetica,sans-Serif" font-size="14.00">(...)</text>
</g>
<!-- 16800&#45;&gt;16801 -->
<g id="edge29" class="edge">
<title>16800&#45;&gt;16801</title>
<path fill="none" stroke="black" d="M1275.16,-71.75C1272.06,-63.22 1268.92,-54.57 1266.1,-46.8"/>
<polygon fill="black" stroke="black" points="1269.46,-45.8 1262.75,-37.6 1262.88,-48.19 1269.46,-45.8"/>
</g>
<!-- 16808 -->
<g id="node31" class="node">
<title>16808</title>
<path fill="#c0c0c0" stroke="black" d="M1343,-36C1343,-36 1313,-36 1313,-36 1307,-36 1301,-30 1301,-24 1301,-24 1301,-12 1301,-12 1301,-6 1307,0 1313,0 1313,0 1343,0 1343,0 1349,0 1355,-6 1355,-12 1355,-12 1355,-24 1355,-24 1355,-30 1349,-36 1343,-36"/>
<text text-anchor="middle" x="1328" y="-13.32" font-family="Helvetica,sans-Serif" font-size="14.00">(...)</text>
</g>
<!-- 16800&#45;&gt;16808 -->
<g id="edge30" class="edge">
<title>16800&#45;&gt;16808</title>
<path fill="none" stroke="black" d="M1308.84,-71.75C1311.94,-63.22 1315.08,-54.57 1317.9,-46.8"/>
<polygon fill="black" stroke="black" points="1321.12,-48.19 1321.25,-37.6 1314.54,-45.8 1321.12,-48.19"/>
</g>
</g>
</svg>
