<?xml version="1.0" encoding="UTF-8" standalone="no"?>
<!DOCTYPE svg PUBLIC "-//W3C//DTD SVG 1.1//EN"
 "http://www.w3.org/Graphics/SVG/1.1/DTD/svg11.dtd">
<!-- Generated by graphviz version 12.0.0 (20240803.0821)
 -->
<!-- Title: Tree Pages: 1 -->
<svg width="1436pt" height="565pt"
 viewBox="0.00 0.00 1436.00 565.00" xmlns="http://www.w3.org/2000/svg" xmlns:xlink="http://www.w3.org/1999/xlink">
<g id="graph0" class="graph" transform="scale(1 1) rotate(0) translate(4 561)">
<title>Tree</title>
<polygon fill="white" stroke="none" points="-4,4 -4,-561 1432,-561 1432,4 -4,4"/>
<!-- 0 -->
<g id="node1" class="node">
<title>0</title>
<path fill="#fffefd" stroke="black" d="M808.5,-557C808.5,-557 648.5,-557 648.5,-557 642.5,-557 636.5,-551 636.5,-545 636.5,-545 636.5,-474.75 636.5,-474.75 636.5,-468.75 642.5,-462.75 648.5,-462.75 648.5,-462.75 808.5,-462.75 808.5,-462.75 814.5,-462.75 820.5,-468.75 820.5,-474.75 820.5,-474.75 820.5,-545 820.5,-545 820.5,-551 814.5,-557 808.5,-557"/>
<text text-anchor="middle" x="728.5" y="-539.7" font-family="Helvetica,sans-Serif" font-size="14.00">8_G &lt;= 0.5</text>
<text text-anchor="middle" x="728.5" y="-522.45" font-family="Helvetica,sans-Serif" font-size="14.00">entropy = 1.0</text>
<text text-anchor="middle" x="728.5" y="-505.2" font-family="Helvetica,sans-Serif" font-size="14.00">samples = 38102</text>
<text text-anchor="middle" x="728.5" y="-487.95" font-family="Helvetica,sans-Serif" font-size="14.00">value = [30331, 30014]</text>
<text text-anchor="middle" x="728.5" y="-470.7" font-family="Helvetica,sans-Serif" font-size="14.00">class = Animal</text>
</g>
<!-- 1 -->
<g id="node2" class="node">
<title>1</title>
<path fill="#fae6d8" stroke="black" d="M629.5,-426.75C629.5,-426.75 469.5,-426.75 469.5,-426.75 463.5,-426.75 457.5,-420.75 457.5,-414.75 457.5,-414.75 457.5,-344.5 457.5,-344.5 457.5,-338.5 463.5,-332.5 469.5,-332.5 469.5,-332.5 629.5,-332.5 629.5,-332.5 635.5,-332.5 641.5,-338.5 641.5,-344.5 641.5,-344.5 641.5,-414.75 641.5,-414.75 641.5,-420.75 635.5,-426.75 629.5,-426.75"/>
<text text-anchor="middle" x="549.5" y="-409.45" font-family="Helvetica,sans-Serif" font-size="14.00">20_C &lt;= 0.5</text>
<text text-anchor="middle" x="549.5" y="-392.2" font-family="Helvetica,sans-Serif" font-size="14.00">entropy = 0.991</text>
<text text-anchor="middle" x="549.5" y="-374.95" font-family="Helvetica,sans-Serif" font-size="14.00">samples = 26301</text>
<text text-anchor="middle" x="549.5" y="-357.7" font-family="Helvetica,sans-Serif" font-size="14.00">value = [23131, 18567]</text>
<text text-anchor="middle" x="549.5" y="-340.45" font-family="Helvetica,sans-Serif" font-size="14.00">class = Animal</text>
</g>
<!-- 0&#45;&gt;1 -->
<g id="edge1" class="edge">
<title>0&#45;&gt;1</title>
<path fill="none" stroke="black" d="M663.62,-462.39C650.62,-453.07 636.86,-443.22 623.57,-433.69"/>
<polygon fill="black" stroke="black" points="625.85,-431.02 615.69,-428.05 621.78,-436.72 625.85,-431.02"/>
<text text-anchor="middle" x="618.53" y="-447.16" font-family="Helvetica,sans-Serif" font-size="14.00">True</text>
</g>
<!-- 12312 -->
<g id="node17" class="node">
<title>12312</title>
<path fill="#b6dbf5" stroke="black" d="M994,-426.75C994,-426.75 843,-426.75 843,-426.75 837,-426.75 831,-420.75 831,-414.75 831,-414.75 831,-344.5 831,-344.5 831,-338.5 837,-332.5 843,-332.5 843,-332.5 994,-332.5 994,-332.5 1000,-332.5 1006,-338.5 1006,-344.5 1006,-344.5 1006,-414.75 1006,-414.75 1006,-420.75 1000,-426.75 994,-426.75"/>
<text text-anchor="middle" x="918.5" y="-409.45" font-family="Helvetica,sans-Serif" font-size="14.00">22_U &lt;= 0.5</text>
<text text-anchor="middle" x="918.5" y="-392.2" font-family="Helvetica,sans-Serif" font-size="14.00">entropy = 0.962</text>
<text text-anchor="middle" x="918.5" y="-374.95" font-family="Helvetica,sans-Serif" font-size="14.00">samples = 11801</text>
<text text-anchor="middle" x="918.5" y="-357.7" font-family="Helvetica,sans-Serif" font-size="14.00">value = [7200, 11447]</text>
<text text-anchor="middle" x="918.5" y="-340.45" font-family="Helvetica,sans-Serif" font-size="14.00">class = Plant</text>
</g>
<!-- 0&#45;&gt;12312 -->
<g id="edge16" class="edge">
<title>0&#45;&gt;12312</title>
<path fill="none" stroke="black" d="M797.36,-462.39C811.3,-452.98 826.05,-443.03 840.29,-433.42"/>
<polygon fill="black" stroke="black" points="841.97,-436.51 848.3,-428.01 838.05,-430.7 841.97,-436.51"/>
<text text-anchor="middle" x="844.79" y="-447.03" font-family="Helvetica,sans-Serif" font-size="14.00">False</text>
</g>
<!-- 2 -->
<g id="node3" class="node">
<title>2</title>
<path fill="#f6d1b7" stroke="black" d="M356.5,-296.5C356.5,-296.5 196.5,-296.5 196.5,-296.5 190.5,-296.5 184.5,-290.5 184.5,-284.5 184.5,-284.5 184.5,-214.25 184.5,-214.25 184.5,-208.25 190.5,-202.25 196.5,-202.25 196.5,-202.25 356.5,-202.25 356.5,-202.25 362.5,-202.25 368.5,-208.25 368.5,-214.25 368.5,-214.25 368.5,-284.5 368.5,-284.5 368.5,-290.5 362.5,-296.5 356.5,-296.5"/>
<text text-anchor="middle" x="276.5" y="-279.2" font-family="Helvetica,sans-Serif" font-size="14.00">2_A &lt;= 0.5</text>
<text text-anchor="middle" x="276.5" y="-261.95" font-family="Helvetica,sans-Serif" font-size="14.00">entropy = 0.964</text>
<text text-anchor="middle" x="276.5" y="-244.7" font-family="Helvetica,sans-Serif" font-size="14.00">samples = 18966</text>
<text text-anchor="middle" x="276.5" y="-227.45" font-family="Helvetica,sans-Serif" font-size="14.00">value = [18337, 11685]</text>
<text text-anchor="middle" x="276.5" y="-210.2" font-family="Helvetica,sans-Serif" font-size="14.00">class = Animal</text>
</g>
<!-- 1&#45;&gt;2 -->
<g id="edge2" class="edge">
<title>1&#45;&gt;2</title>
<path fill="none" stroke="black" d="M457.07,-335.21C431.95,-323.4 404.59,-310.55 378.94,-298.5"/>
<polygon fill="black" stroke="black" points="380.74,-295.48 370.2,-294.39 377.76,-301.81 380.74,-295.48"/>
</g>
<!-- 9423 -->
<g id="node10" class="node">
<title>9423</title>
<path fill="#c3e1f7" stroke="black" d="M620.5,-296.5C620.5,-296.5 478.5,-296.5 478.5,-296.5 472.5,-296.5 466.5,-290.5 466.5,-284.5 466.5,-284.5 466.5,-214.25 466.5,-214.25 466.5,-208.25 472.5,-202.25 478.5,-202.25 478.5,-202.25 620.5,-202.25 620.5,-202.25 626.5,-202.25 632.5,-208.25 632.5,-214.25 632.5,-214.25 632.5,-284.5 632.5,-284.5 632.5,-290.5 626.5,-296.5 620.5,-296.5"/>
<text text-anchor="middle" x="549.5" y="-279.2" font-family="Helvetica,sans-Serif" font-size="14.00">6_G &lt;= 0.5</text>
<text text-anchor="middle" x="549.5" y="-261.95" font-family="Helvetica,sans-Serif" font-size="14.00">entropy = 0.977</text>
<text text-anchor="middle" x="549.5" y="-244.7" font-family="Helvetica,sans-Serif" font-size="14.00">samples = 7335</text>
<text text-anchor="middle" x="549.5" y="-227.45" font-family="Helvetica,sans-Serif" font-size="14.00">value = [4794, 6882]</text>
<text text-anchor="middle" x="549.5" y="-210.2" font-family="Helvetica,sans-Serif" font-size="14.00">class = Plant</text>
</g>
<!-- 1&#45;&gt;9423 -->
<g id="edge9" class="edge">
<title>1&#45;&gt;9423</title>
<path fill="none" stroke="black" d="M549.5,-332.32C549.5,-324.42 549.5,-316.13 549.5,-307.98"/>
<polygon fill="black" stroke="black" points="553,-308.12 549.5,-298.12 546,-308.12 553,-308.12"/>
</g>
<!-- 3 -->
<g id="node4" class="node">
<title>3</title>
<path fill="#f9e3d3" stroke="black" d="M163,-166.25C163,-166.25 12,-166.25 12,-166.25 6,-166.25 0,-160.25 0,-154.25 0,-154.25 0,-84 0,-84 0,-78 6,-72 12,-72 12,-72 163,-72 163,-72 169,-72 175,-78 175,-84 175,-84 175,-154.25 175,-154.25 175,-160.25 169,-166.25 163,-166.25"/>
<text text-anchor="middle" x="87.5" y="-148.95" font-family="Helvetica,sans-Serif" font-size="14.00">23_C &lt;= 0.5</text>
<text text-anchor="middle" x="87.5" y="-131.7" font-family="Helvetica,sans-Serif" font-size="14.00">entropy = 0.989</text>
<text text-anchor="middle" x="87.5" y="-114.45" font-family="Helvetica,sans-Serif" font-size="14.00">samples = 13658</text>
<text text-anchor="middle" x="87.5" y="-97.2" font-family="Helvetica,sans-Serif" font-size="14.00">value = [12116, 9431]</text>
<text text-anchor="middle" x="87.5" y="-79.95" font-family="Helvetica,sans-Serif" font-size="14.00">class = Animal</text>
</g>
<!-- 2&#45;&gt;3 -->
<g id="edge3" class="edge">
<title>2&#45;&gt;3</title>
<path fill="none" stroke="black" d="M208,-201.89C194.13,-192.48 179.46,-182.53 165.3,-172.92"/>
<polygon fill="black" stroke="black" points="167.58,-170.23 157.34,-167.51 163.65,-176.03 167.58,-170.23"/>
</g>
<!-- 7150 -->
<g id="node7" class="node">
<title>7150</title>
<path fill="#eeaf81" stroke="black" d="M347.5,-166.25C347.5,-166.25 205.5,-166.25 205.5,-166.25 199.5,-166.25 193.5,-160.25 193.5,-154.25 193.5,-154.25 193.5,-84 193.5,-84 193.5,-78 199.5,-72 205.5,-72 205.5,-72 347.5,-72 347.5,-72 353.5,-72 359.5,-78 359.5,-84 359.5,-84 359.5,-154.25 359.5,-154.25 359.5,-160.25 353.5,-166.25 347.5,-166.25"/>
<text text-anchor="middle" x="276.5" y="-148.95" font-family="Helvetica,sans-Serif" font-size="14.00">9_U &lt;= 0.5</text>
<text text-anchor="middle" x="276.5" y="-131.7" font-family="Helvetica,sans-Serif" font-size="14.00">entropy = 0.836</text>
<text text-anchor="middle" x="276.5" y="-114.45" font-family="Helvetica,sans-Serif" font-size="14.00">samples = 5308</text>
<text text-anchor="middle" x="276.5" y="-97.2" font-family="Helvetica,sans-Serif" font-size="14.00">value = [6221, 2254]</text>
<text text-anchor="middle" x="276.5" y="-79.95" font-family="Helvetica,sans-Serif" font-size="14.00">class = Animal</text>
</g>
<!-- 2&#45;&gt;7150 -->
<g id="edge6" class="edge">
<title>2&#45;&gt;7150</title>
<path fill="none" stroke="black" d="M276.5,-202.07C276.5,-194.17 276.5,-185.88 276.5,-177.73"/>
<polygon fill="black" stroke="black" points="280,-177.87 276.5,-167.87 273,-177.87 280,-177.87"/>
</g>
<!-- 4 -->
<g id="node5" class="node">
<title>4</title>
<path fill="#c0c0c0" stroke="black" d="M66.5,-36C66.5,-36 36.5,-36 36.5,-36 30.5,-36 24.5,-30 24.5,-24 24.5,-24 24.5,-12 24.5,-12 24.5,-6 30.5,0 36.5,0 36.5,0 66.5,0 66.5,0 72.5,0 78.5,-6 78.5,-12 78.5,-12 78.5,-24 78.5,-24 78.5,-30 72.5,-36 66.5,-36"/>
<text text-anchor="middle" x="51.5" y="-13.32" font-family="Helvetica,sans-Serif" font-size="14.00">(...)</text>
</g>
<!-- 3&#45;&gt;4 -->
<g id="edge4" class="edge">
<title>3&#45;&gt;4</title>
<path fill="none" stroke="black" d="M70.66,-71.75C67.56,-63.22 64.42,-54.57 61.6,-46.8"/>
<polygon fill="black" stroke="black" points="64.96,-45.8 58.25,-37.6 58.38,-48.19 64.96,-45.8"/>
</g>
<!-- 6921 -->
<g id="node6" class="node">
<title>6921</title>
<path fill="#c0c0c0" stroke="black" d="M138.5,-36C138.5,-36 108.5,-36 108.5,-36 102.5,-36 96.5,-30 96.5,-24 96.5,-24 96.5,-12 96.5,-12 96.5,-6 102.5,0 108.5,0 108.5,0 138.5,0 138.5,0 144.5,0 150.5,-6 150.5,-12 150.5,-12 150.5,-24 150.5,-24 150.5,-30 144.5,-36 138.5,-36"/>
<text text-anchor="middle" x="123.5" y="-13.32" font-family="Helvetica,sans-Serif" font-size="14.00">(...)</text>
</g>
<!-- 3&#45;&gt;6921 -->
<g id="edge5" class="edge">
<title>3&#45;&gt;6921</title>
<path fill="none" stroke="black" d="M104.34,-71.75C107.44,-63.22 110.58,-54.57 113.4,-46.8"/>
<polygon fill="black" stroke="black" points="116.62,-48.19 116.75,-37.6 110.04,-45.8 116.62,-48.19"/>
</g>
<!-- 7151 -->
<g id="node8" class="node">
<title>7151</title>
<path fill="#c0c0c0" stroke="black" d="M259.5,-36C259.5,-36 229.5,-36 229.5,-36 223.5,-36 217.5,-30 217.5,-24 217.5,-24 217.5,-12 217.5,-12 217.5,-6 223.5,0 229.5,0 229.5,0 259.5,0 259.5,0 265.5,0 271.5,-6 271.5,-12 271.5,-12 271.5,-24 271.5,-24 271.5,-30 265.5,-36 259.5,-36"/>
<text text-anchor="middle" x="244.5" y="-13.32" font-family="Helvetica,sans-Serif" font-size="14.00">(...)</text>
</g>
<!-- 7150&#45;&gt;7151 -->
<g id="edge7" class="edge">
<title>7150&#45;&gt;7151</title>
<path fill="none" stroke="black" d="M261.53,-71.75C258.81,-63.32 256.05,-54.77 253.56,-47.07"/>
<polygon fill="black" stroke="black" points="256.91,-46.05 250.51,-37.61 250.25,-48.2 256.91,-46.05"/>
</g>
<!-- 8712 -->
<g id="node9" class="node">
<title>8712</title>
<path fill="#c0c0c0" stroke="black" d="M331.5,-36C331.5,-36 301.5,-36 301.5,-36 295.5,-36 289.5,-30 289.5,-24 289.5,-24 289.5,-12 289.5,-12 289.5,-6 295.5,0 301.5,0 301.5,0 331.5,0 331.5,0 337.5,0 343.5,-6 343.5,-12 343.5,-12 343.5,-24 343.5,-24 343.5,-30 337.5,-36 331.5,-36"/>
<text text-anchor="middle" x="316.5" y="-13.32" font-family="Helvetica,sans-Serif" font-size="14.00">(...)</text>
</g>
<!-- 7150&#45;&gt;8712 -->
<g id="edge8" class="edge">
<title>7150&#45;&gt;8712</title>
<path fill="none" stroke="black" d="M295.21,-71.75C298.65,-63.22 302.15,-54.57 305.28,-46.8"/>
<polygon fill="black" stroke="black" points="308.51,-48.16 309,-37.58 302.02,-45.54 308.51,-48.16"/>
</g>
<!-- 9424 -->
<g id="node11" class="node">
<title>9424</title>
<path fill="#e4f2fb" stroke="black" d="M531.5,-166.25C531.5,-166.25 389.5,-166.25 389.5,-166.25 383.5,-166.25 377.5,-160.25 377.5,-154.25 377.5,-154.25 377.5,-84 377.5,-84 377.5,-78 383.5,-72 389.5,-72 389.5,-72 531.5,-72 531.5,-72 537.5,-72 543.5,-78 543.5,-84 543.5,-84 543.5,-154.25 543.5,-154.25 543.5,-160.25 537.5,-166.25 531.5,-166.25"/>
<text text-anchor="middle" x="460.5" y="-148.95" font-family="Helvetica,sans-Serif" font-size="14.00">4_U &lt;= 0.5</text>
<text text-anchor="middle" x="460.5" y="-131.7" font-family="Helvetica,sans-Serif" font-size="14.00">entropy = 0.996</text>
<text text-anchor="middle" x="460.5" y="-114.45" font-family="Helvetica,sans-Serif" font-size="14.00">samples = 5105</text>
<text text-anchor="middle" x="460.5" y="-97.2" font-family="Helvetica,sans-Serif" font-size="14.00">value = [3751, 4340]</text>
<text text-anchor="middle" x="460.5" y="-79.95" font-family="Helvetica,sans-Serif" font-size="14.00">class = Plant</text>
</g>
<!-- 9423&#45;&gt;9424 -->
<g id="edge10" class="edge">
<title>9423&#45;&gt;9424</title>
<path fill="none" stroke="black" d="M517.37,-202.07C511.45,-193.54 505.2,-184.54 499.11,-175.77"/>
<polygon fill="black" stroke="black" points="502.02,-173.82 493.45,-167.6 496.27,-177.81 502.02,-173.82"/>
</g>
<!-- 11517 -->
<g id="node14" class="node">
<title>11517</title>
<path fill="#8ac5f0" stroke="black" d="M715.5,-166.25C715.5,-166.25 573.5,-166.25 573.5,-166.25 567.5,-166.25 561.5,-160.25 561.5,-154.25 561.5,-154.25 561.5,-84 561.5,-84 561.5,-78 567.5,-72 573.5,-72 573.5,-72 715.5,-72 715.5,-72 721.5,-72 727.5,-78 727.5,-84 727.5,-84 727.5,-154.25 727.5,-154.25 727.5,-160.25 721.5,-166.25 715.5,-166.25"/>
<text text-anchor="middle" x="644.5" y="-148.95" font-family="Helvetica,sans-Serif" font-size="14.00">23_U &lt;= 0.5</text>
<text text-anchor="middle" x="644.5" y="-131.7" font-family="Helvetica,sans-Serif" font-size="14.00">entropy = 0.87</text>
<text text-anchor="middle" x="644.5" y="-114.45" font-family="Helvetica,sans-Serif" font-size="14.00">samples = 2230</text>
<text text-anchor="middle" x="644.5" y="-97.2" font-family="Helvetica,sans-Serif" font-size="14.00">value = [1043, 2542]</text>
<text text-anchor="middle" x="644.5" y="-79.95" font-family="Helvetica,sans-Serif" font-size="14.00">class = Plant</text>
</g>
<!-- 9423&#45;&gt;11517 -->
<g id="edge13" class="edge">
<title>9423&#45;&gt;11517</title>
<path fill="none" stroke="black" d="M583.8,-202.07C590.19,-193.45 596.92,-184.35 603.49,-175.49"/>
<polygon fill="black" stroke="black" points="606.21,-177.69 609.35,-167.57 600.59,-173.53 606.21,-177.69"/>
</g>
<!-- 9425 -->
<g id="node12" class="node">
<title>9425</title>
<path fill="#c0c0c0" stroke="black" d="M423.5,-36C423.5,-36 393.5,-36 393.5,-36 387.5,-36 381.5,-30 381.5,-24 381.5,-24 381.5,-12 381.5,-12 381.5,-6 387.5,0 393.5,0 393.5,0 423.5,0 423.5,0 429.5,0 435.5,-6 435.5,-12 435.5,-12 435.5,-24 435.5,-24 435.5,-30 429.5,-36 423.5,-36"/>
<text text-anchor="middle" x="408.5" y="-13.32" font-family="Helvetica,sans-Serif" font-size="14.00">(...)</text>
</g>
<!-- 9424&#45;&gt;9425 -->
<g id="edge11" class="edge">
<title>9424&#45;&gt;9425</title>
<path fill="none" stroke="black" d="M436.17,-71.75C431.6,-63.03 426.95,-54.16 422.8,-46.26"/>
<polygon fill="black" stroke="black" points="425.96,-44.74 418.21,-37.51 419.76,-47.99 425.96,-44.74"/>
</g>
<!-- 11074 -->
<g id="node13" class="node">
<title>11074</title>
<path fill="#c0c0c0" stroke="black" d="M495.5,-36C495.5,-36 465.5,-36 465.5,-36 459.5,-36 453.5,-30 453.5,-24 453.5,-24 453.5,-12 453.5,-12 453.5,-6 459.5,0 465.5,0 465.5,0 495.5,0 495.5,0 501.5,0 507.5,-6 507.5,-12 507.5,-12 507.5,-24 507.5,-24 507.5,-30 501.5,-36 495.5,-36"/>
<text text-anchor="middle" x="480.5" y="-13.32" font-family="Helvetica,sans-Serif" font-size="14.00">(...)</text>
</g>
<!-- 9424&#45;&gt;11074 -->
<g id="edge12" class="edge">
<title>9424&#45;&gt;11074</title>
<path fill="none" stroke="black" d="M469.86,-71.75C471.54,-63.42 473.24,-54.97 474.78,-47.34"/>
<polygon fill="black" stroke="black" points="478.19,-48.15 476.74,-37.66 471.33,-46.77 478.19,-48.15"/>
</g>
<!-- 11518 -->
<g id="node15" class="node">
<title>11518</title>
<path fill="#c0c0c0" stroke="black" d="M607.5,-36C607.5,-36 577.5,-36 577.5,-36 571.5,-36 565.5,-30 565.5,-24 565.5,-24 565.5,-12 565.5,-12 565.5,-6 571.5,0 577.5,0 577.5,0 607.5,0 607.5,0 613.5,0 619.5,-6 619.5,-12 619.5,-12 619.5,-24 619.5,-24 619.5,-30 613.5,-36 607.5,-36"/>
<text text-anchor="middle" x="592.5" y="-13.32" font-family="Helvetica,sans-Serif" font-size="14.00">(...)</text>
</g>
<!-- 11517&#45;&gt;11518 -->
<g id="edge14" class="edge">
<title>11517&#45;&gt;11518</title>
<path fill="none" stroke="black" d="M620.17,-71.75C615.6,-63.03 610.95,-54.16 606.8,-46.26"/>
<polygon fill="black" stroke="black" points="609.96,-44.74 602.21,-37.51 603.76,-47.99 609.96,-44.74"/>
</g>
<!-- 12249 -->
<g id="node16" class="node">
<title>12249</title>
<path fill="#c0c0c0" stroke="black" d="M679.5,-36C679.5,-36 649.5,-36 649.5,-36 643.5,-36 637.5,-30 637.5,-24 637.5,-24 637.5,-12 637.5,-12 637.5,-6 643.5,0 649.5,0 649.5,0 679.5,0 679.5,0 685.5,0 691.5,-6 691.5,-12 691.5,-12 691.5,-24 691.5,-24 691.5,-30 685.5,-36 679.5,-36"/>
<text text-anchor="middle" x="664.5" y="-13.32" font-family="Helvetica,sans-Serif" font-size="14.00">(...)</text>
</g>
<!-- 11517&#45;&gt;12249 -->
<g id="edge15" class="edge">
<title>11517&#45;&gt;12249</title>
<path fill="none" stroke="black" d="M653.86,-71.75C655.54,-63.42 657.24,-54.97 658.78,-47.34"/>
<polygon fill="black" stroke="black" points="662.19,-48.15 660.74,-37.66 655.33,-46.77 662.19,-48.15"/>
</g>
<!-- 12313 -->
<g id="node18" class="node">
<title>12313</title>
<path fill="#9dcef2" stroke="black" d="M994,-296.5C994,-296.5 843,-296.5 843,-296.5 837,-296.5 831,-290.5 831,-284.5 831,-284.5 831,-214.25 831,-214.25 831,-208.25 837,-202.25 843,-202.25 843,-202.25 994,-202.25 994,-202.25 1000,-202.25 1006,-208.25 1006,-214.25 1006,-214.25 1006,-284.5 1006,-284.5 1006,-290.5 1000,-296.5 994,-296.5"/>
<text text-anchor="middle" x="918.5" y="-279.2" font-family="Helvetica,sans-Serif" font-size="14.00">17_A &lt;= 0.5</text>
<text text-anchor="middle" x="918.5" y="-261.95" font-family="Helvetica,sans-Serif" font-size="14.00">entropy = 0.92</text>
<text text-anchor="middle" x="918.5" y="-244.7" font-family="Helvetica,sans-Serif" font-size="14.00">samples = 10523</text>
<text text-anchor="middle" x="918.5" y="-227.45" font-family="Helvetica,sans-Serif" font-size="14.00">value = [5571, 11053]</text>
<text text-anchor="middle" x="918.5" y="-210.2" font-family="Helvetica,sans-Serif" font-size="14.00">class = Plant</text>
</g>
<!-- 12312&#45;&gt;12313 -->
<g id="edge17" class="edge">
<title>12312&#45;&gt;12313</title>
<path fill="none" stroke="black" d="M918.5,-332.32C918.5,-324.42 918.5,-316.13 918.5,-307.98"/>
<polygon fill="black" stroke="black" points="922,-308.12 918.5,-298.12 915,-308.12 922,-308.12"/>
</g>
<!-- 16340 -->
<g id="node25" class="node">
<title>16340</title>
<path fill="#eb9f69" stroke="black" d="M1259,-296.5C1259,-296.5 1126,-296.5 1126,-296.5 1120,-296.5 1114,-290.5 1114,-284.5 1114,-284.5 1114,-214.25 1114,-214.25 1114,-208.25 1120,-202.25 1126,-202.25 1126,-202.25 1259,-202.25 1259,-202.25 1265,-202.25 1271,-208.25 1271,-214.25 1271,-214.25 1271,-284.5 1271,-284.5 1271,-290.5 1265,-296.5 1259,-296.5"/>
<text text-anchor="middle" x="1192.5" y="-279.2" font-family="Helvetica,sans-Serif" font-size="14.00">3_C &lt;= 0.5</text>
<text text-anchor="middle" x="1192.5" y="-261.95" font-family="Helvetica,sans-Serif" font-size="14.00">entropy = 0.711</text>
<text text-anchor="middle" x="1192.5" y="-244.7" font-family="Helvetica,sans-Serif" font-size="14.00">samples = 1278</text>
<text text-anchor="middle" x="1192.5" y="-227.45" font-family="Helvetica,sans-Serif" font-size="14.00">value = [1629, 394]</text>
<text text-anchor="middle" x="1192.5" y="-210.2" font-family="Helvetica,sans-Serif" font-size="14.00">class = Animal</text>
</g>
<!-- 12312&#45;&gt;16340 -->
<g id="edge24" class="edge">
<title>12312&#45;&gt;16340</title>
<path fill="none" stroke="black" d="M1006.33,-337.52C1037.27,-323.04 1072.06,-306.75 1103.13,-292.21"/>
<polygon fill="black" stroke="black" points="1104.57,-295.4 1112.14,-287.99 1101.6,-289.06 1104.57,-295.4"/>
</g>
<!-- 12314 -->
<g id="node19" class="node">
<title>12314</title>
<path fill="#afd8f5" stroke="black" d="M899.5,-166.25C899.5,-166.25 757.5,-166.25 757.5,-166.25 751.5,-166.25 745.5,-160.25 745.5,-154.25 745.5,-154.25 745.5,-84 745.5,-84 745.5,-78 751.5,-72 757.5,-72 757.5,-72 899.5,-72 899.5,-72 905.5,-72 911.5,-78 911.5,-84 911.5,-84 911.5,-154.25 911.5,-154.25 911.5,-160.25 905.5,-166.25 899.5,-166.25"/>
<text text-anchor="middle" x="828.5" y="-148.95" font-family="Helvetica,sans-Serif" font-size="14.00">10_A &lt;= 0.5</text>
<text text-anchor="middle" x="828.5" y="-131.7" font-family="Helvetica,sans-Serif" font-size="14.00">entropy = 0.954</text>
<text text-anchor="middle" x="828.5" y="-114.45" font-family="Helvetica,sans-Serif" font-size="14.00">samples = 7671</text>
<text text-anchor="middle" x="828.5" y="-97.2" font-family="Helvetica,sans-Serif" font-size="14.00">value = [4514, 7545]</text>
<text text-anchor="middle" x="828.5" y="-79.95" font-family="Helvetica,sans-Serif" font-size="14.00">class = Plant</text>
</g>
<!-- 12313&#45;&gt;12314 -->
<g id="edge18" class="edge">
<title>12313&#45;&gt;12314</title>
<path fill="none" stroke="black" d="M886.01,-202.07C880.02,-193.54 873.71,-184.54 867.55,-175.77"/>
<polygon fill="black" stroke="black" points="870.42,-173.77 861.81,-167.6 864.69,-177.79 870.42,-173.77"/>
</g>
<!-- 15391 -->
<g id="node22" class="node">
<title>15391</title>
<path fill="#75bbed" stroke="black" d="M1083.5,-166.25C1083.5,-166.25 941.5,-166.25 941.5,-166.25 935.5,-166.25 929.5,-160.25 929.5,-154.25 929.5,-154.25 929.5,-84 929.5,-84 929.5,-78 935.5,-72 941.5,-72 941.5,-72 1083.5,-72 1083.5,-72 1089.5,-72 1095.5,-78 1095.5,-84 1095.5,-84 1095.5,-154.25 1095.5,-154.25 1095.5,-160.25 1089.5,-166.25 1083.5,-166.25"/>
<text text-anchor="middle" x="1012.5" y="-148.95" font-family="Helvetica,sans-Serif" font-size="14.00">2_U &lt;= 0.5</text>
<text text-anchor="middle" x="1012.5" y="-131.7" font-family="Helvetica,sans-Serif" font-size="14.00">entropy = 0.781</text>
<text text-anchor="middle" x="1012.5" y="-114.45" font-family="Helvetica,sans-Serif" font-size="14.00">samples = 2852</text>
<text text-anchor="middle" x="1012.5" y="-97.2" font-family="Helvetica,sans-Serif" font-size="14.00">value = [1057, 3508]</text>
<text text-anchor="middle" x="1012.5" y="-79.95" font-family="Helvetica,sans-Serif" font-size="14.00">class = Plant</text>
</g>
<!-- 12313&#45;&gt;15391 -->
<g id="edge21" class="edge">
<title>12313&#45;&gt;15391</title>
<path fill="none" stroke="black" d="M952.44,-202.07C958.76,-193.45 965.42,-184.35 971.92,-175.49"/>
<polygon fill="black" stroke="black" points="974.63,-177.71 977.72,-167.58 968.98,-173.58 974.63,-177.71"/>
</g>
<!-- 12315 -->
<g id="node20" class="node">
<title>12315</title>
<path fill="#c0c0c0" stroke="black" d="M791.5,-36C791.5,-36 761.5,-36 761.5,-36 755.5,-36 749.5,-30 749.5,-24 749.5,-24 749.5,-12 749.5,-12 749.5,-6 755.5,0 761.5,0 761.5,0 791.5,0 791.5,0 797.5,0 803.5,-6 803.5,-12 803.5,-12 803.5,-24 803.5,-24 803.5,-30 797.5,-36 791.5,-36"/>
<text text-anchor="middle" x="776.5" y="-13.32" font-family="Helvetica,sans-Serif" font-size="14.00">(...)</text>
</g>
<!-- 12314&#45;&gt;12315 -->
<g id="edge19" class="edge">
<title>12314&#45;&gt;12315</title>
<path fill="none" stroke="black" d="M804.17,-71.75C799.6,-63.03 794.95,-54.16 790.8,-46.26"/>
<polygon fill="black" stroke="black" points="793.96,-44.74 786.21,-37.51 787.76,-47.99 793.96,-44.74"/>
</g>
<!-- 14598 -->
<g id="node21" class="node">
<title>14598</title>
<path fill="#c0c0c0" stroke="black" d="M863.5,-36C863.5,-36 833.5,-36 833.5,-36 827.5,-36 821.5,-30 821.5,-24 821.5,-24 821.5,-12 821.5,-12 821.5,-6 827.5,0 833.5,0 833.5,0 863.5,0 863.5,0 869.5,0 875.5,-6 875.5,-12 875.5,-12 875.5,-24 875.5,-24 875.5,-30 869.5,-36 863.5,-36"/>
<text text-anchor="middle" x="848.5" y="-13.32" font-family="Helvetica,sans-Serif" font-size="14.00">(...)</text>
</g>
<!-- 12314&#45;&gt;14598 -->
<g id="edge20" class="edge">
<title>12314&#45;&gt;14598</title>
<path fill="none" stroke="black" d="M837.86,-71.75C839.54,-63.42 841.24,-54.97 842.78,-47.34"/>
<polygon fill="black" stroke="black" points="846.19,-48.15 844.74,-37.66 839.33,-46.77 846.19,-48.15"/>
</g>
<!-- 15392 -->
<g id="node23" class="node">
<title>15392</title>
<path fill="#c0c0c0" stroke="black" d="M973.5,-36C973.5,-36 943.5,-36 943.5,-36 937.5,-36 931.5,-30 931.5,-24 931.5,-24 931.5,-12 931.5,-12 931.5,-6 937.5,0 943.5,0 943.5,0 973.5,0 973.5,0 979.5,0 985.5,-6 985.5,-12 985.5,-12 985.5,-24 985.5,-24 985.5,-30 979.5,-36 973.5,-36"/>
<text text-anchor="middle" x="958.5" y="-13.32" font-family="Helvetica,sans-Serif" font-size="14.00">(...)</text>
</g>
<!-- 15391&#45;&gt;15392 -->
<g id="edge22" class="edge">
<title>15391&#45;&gt;15392</title>
<path fill="none" stroke="black" d="M987.24,-71.75C982.48,-63.03 977.66,-54.16 973.35,-46.26"/>
<polygon fill="black" stroke="black" points="976.44,-44.61 968.58,-37.5 970.29,-47.96 976.44,-44.61"/>
</g>
<!-- 16131 -->
<g id="node24" class="node">
<title>16131</title>
<path fill="#c0c0c0" stroke="black" d="M1045.5,-36C1045.5,-36 1015.5,-36 1015.5,-36 1009.5,-36 1003.5,-30 1003.5,-24 1003.5,-24 1003.5,-12 1003.5,-12 1003.5,-6 1009.5,0 1015.5,0 1015.5,0 1045.5,0 1045.5,0 1051.5,0 1057.5,-6 1057.5,-12 1057.5,-12 1057.5,-24 1057.5,-24 1057.5,-30 1051.5,-36 1045.5,-36"/>
<text text-anchor="middle" x="1030.5" y="-13.32" font-family="Helvetica,sans-Serif" font-size="14.00">(...)</text>
</g>
<!-- 15391&#45;&gt;16131 -->
<g id="edge23" class="edge">
<title>15391&#45;&gt;16131</title>
<path fill="none" stroke="black" d="M1020.92,-71.75C1022.43,-63.42 1023.97,-54.97 1025.35,-47.34"/>
<polygon fill="black" stroke="black" points="1028.77,-48.13 1027.11,-37.66 1021.88,-46.88 1028.77,-48.13"/>
</g>
<!-- 16341 -->
<g id="node26" class="node">
<title>16341</title>
<path fill="#ea9c63" stroke="black" d="M1259,-166.25C1259,-166.25 1126,-166.25 1126,-166.25 1120,-166.25 1114,-160.25 1114,-154.25 1114,-154.25 1114,-84 1114,-84 1114,-78 1120,-72 1126,-72 1126,-72 1259,-72 1259,-72 1265,-72 1271,-78 1271,-84 1271,-84 1271,-154.25 1271,-154.25 1271,-160.25 1265,-166.25 1259,-166.25"/>
<text text-anchor="middle" x="1192.5" y="-148.95" font-family="Helvetica,sans-Serif" font-size="14.00">9_U &lt;= 0.5</text>
<text text-anchor="middle" x="1192.5" y="-131.7" font-family="Helvetica,sans-Serif" font-size="14.00">entropy = 0.667</text>
<text text-anchor="middle" x="1192.5" y="-114.45" font-family="Helvetica,sans-Serif" font-size="14.00">samples = 1075</text>
<text text-anchor="middle" x="1192.5" y="-97.2" font-family="Helvetica,sans-Serif" font-size="14.00">value = [1409, 297]</text>
<text text-anchor="middle" x="1192.5" y="-79.95" font-family="Helvetica,sans-Serif" font-size="14.00">class = Animal</text>
</g>
<!-- 16340&#45;&gt;16341 -->
<g id="edge25" class="edge">
<title>16340&#45;&gt;16341</title>
<path fill="none" stroke="black" d="M1192.5,-202.07C1192.5,-194.17 1192.5,-185.88 1192.5,-177.73"/>
<polygon fill="black" stroke="black" points="1196,-177.87 1192.5,-167.87 1189,-177.87 1196,-177.87"/>
</g>
<!-- 16756 -->
<g id="node29" class="node">
<title>16756</title>
<path fill="#f0b990" stroke="black" d="M1416,-166.25C1416,-166.25 1301,-166.25 1301,-166.25 1295,-166.25 1289,-160.25 1289,-154.25 1289,-154.25 1289,-84 1289,-84 1289,-78 1295,-72 1301,-72 1301,-72 1416,-72 1416,-72 1422,-72 1428,-78 1428,-84 1428,-84 1428,-154.25 1428,-154.25 1428,-160.25 1422,-166.25 1416,-166.25"/>
<text text-anchor="middle" x="1358.5" y="-148.95" font-family="Helvetica,sans-Serif" font-size="14.00">21_A &lt;= 0.5</text>
<text text-anchor="middle" x="1358.5" y="-131.7" font-family="Helvetica,sans-Serif" font-size="14.00">entropy = 0.888</text>
<text text-anchor="middle" x="1358.5" y="-114.45" font-family="Helvetica,sans-Serif" font-size="14.00">samples = 203</text>
<text text-anchor="middle" x="1358.5" y="-97.2" font-family="Helvetica,sans-Serif" font-size="14.00">value = [220, 97]</text>
<text text-anchor="middle" x="1358.5" y="-79.95" font-family="Helvetica,sans-Serif" font-size="14.00">class = Animal</text>
</g>
<!-- 16340&#45;&gt;16756 -->
<g id="edge28" class="edge">
<title>16340&#45;&gt;16756</title>
<path fill="none" stroke="black" d="M1252.43,-202.07C1264.46,-192.78 1277.2,-182.94 1289.51,-173.43"/>
<polygon fill="black" stroke="black" points="1291.41,-176.38 1297.18,-167.5 1287.13,-170.84 1291.41,-176.38"/>
</g>
<!-- 16342 -->
<g id="node27" class="node">
<title>16342</title>
<path fill="#c0c0c0" stroke="black" d="M1164.5,-36C1164.5,-36 1134.5,-36 1134.5,-36 1128.5,-36 1122.5,-30 1122.5,-24 1122.5,-24 1122.5,-12 1122.5,-12 1122.5,-6 1128.5,0 1134.5,0 1134.5,0 1164.5,0 1164.5,0 1170.5,0 1176.5,-6 1176.5,-12 1176.5,-12 1176.5,-24 1176.5,-24 1176.5,-30 1170.5,-36 1164.5,-36"/>
<text text-anchor="middle" x="1149.5" y="-13.32" font-family="Helvetica,sans-Serif" font-size="14.00">(...)</text>
</g>
<!-- 16341&#45;&gt;16342 -->
<g id="edge26" class="edge">
<title>16341&#45;&gt;16342</title>
<path fill="none" stroke="black" d="M1172.38,-71.75C1168.64,-63.12 1164.84,-54.36 1161.44,-46.53"/>
<polygon fill="black" stroke="black" points="1164.74,-45.34 1157.55,-37.56 1158.32,-48.13 1164.74,-45.34"/>
</g>
<!-- 16641 -->
<g id="node28" class="node">
<title>16641</title>
<path fill="#c0c0c0" stroke="black" d="M1236.5,-36C1236.5,-36 1206.5,-36 1206.5,-36 1200.5,-36 1194.5,-30 1194.5,-24 1194.5,-24 1194.5,-12 1194.5,-12 1194.5,-6 1200.5,0 1206.5,0 1206.5,0 1236.5,0 1236.5,0 1242.5,0 1248.5,-6 1248.5,-12 1248.5,-12 1248.5,-24 1248.5,-24 1248.5,-30 1242.5,-36 1236.5,-36"/>
<text text-anchor="middle" x="1221.5" y="-13.32" font-family="Helvetica,sans-Serif" font-size="14.00">(...)</text>
</g>
<!-- 16341&#45;&gt;16641 -->
<g id="edge27" class="edge">
<title>16341&#45;&gt;16641</title>
<path fill="none" stroke="black" d="M1206.07,-71.75C1208.53,-63.32 1211.04,-54.77 1213.29,-47.07"/>
<polygon fill="black" stroke="black" points="1216.6,-48.21 1216.05,-37.63 1209.88,-46.24 1216.6,-48.21"/>
</g>
<!-- 16757 -->
<g id="node30" class="node">
<title>16757</title>
<path fill="#c0c0c0" stroke="black" d="M1337.5,-36C1337.5,-36 1307.5,-36 1307.5,-36 1301.5,-36 1295.5,-30 1295.5,-24 1295.5,-24 1295.5,-12 1295.5,-12 1295.5,-6 1301.5,0 1307.5,0 1307.5,0 1337.5,0 1337.5,0 1343.5,0 1349.5,-6 1349.5,-12 1349.5,-12 1349.5,-24 1349.5,-24 1349.5,-30 1343.5,-36 1337.5,-36"/>
<text text-anchor="middle" x="1322.5" y="-13.32" font-family="Helvetica,sans-Serif" font-size="14.00">(...)</text>
</g>
<!-- 16756&#45;&gt;16757 -->
<g id="edge29" class="edge">
<title>16756&#45;&gt;16757</title>
<path fill="none" stroke="black" d="M1341.66,-71.75C1338.56,-63.22 1335.42,-54.57 1332.6,-46.8"/>
<polygon fill="black" stroke="black" points="1335.96,-45.8 1329.25,-37.6 1329.38,-48.19 1335.96,-45.8"/>
</g>
<!-- 16830 -->
<g id="node31" class="node">
<title>16830</title>
<path fill="#c0c0c0" stroke="black" d="M1409.5,-36C1409.5,-36 1379.5,-36 1379.5,-36 1373.5,-36 1367.5,-30 1367.5,-24 1367.5,-24 1367.5,-12 1367.5,-12 1367.5,-6 1373.5,0 1379.5,0 1379.5,0 1409.5,0 1409.5,0 1415.5,0 1421.5,-6 1421.5,-12 1421.5,-12 1421.5,-24 1421.5,-24 1421.5,-30 1415.5,-36 1409.5,-36"/>
<text text-anchor="middle" x="1394.5" y="-13.32" font-family="Helvetica,sans-Serif" font-size="14.00">(...)</text>
</g>
<!-- 16756&#45;&gt;16830 -->
<g id="edge30" class="edge">
<title>16756&#45;&gt;16830</title>
<path fill="none" stroke="black" d="M1375.34,-71.75C1378.44,-63.22 1381.58,-54.57 1384.4,-46.8"/>
<polygon fill="black" stroke="black" points="1387.62,-48.19 1387.75,-37.6 1381.04,-45.8 1387.62,-48.19"/>
</g>
</g>
</svg>
