<?xml version="1.0" encoding="UTF-8" standalone="no"?>
<!DOCTYPE svg PUBLIC "-//W3C//DTD SVG 1.1//EN"
 "http://www.w3.org/Graphics/SVG/1.1/DTD/svg11.dtd">
<!-- Generated by graphviz version 12.0.0 (20240803.0821)
 -->
<!-- Title: Tree Pages: 1 -->
<svg width="1411pt" height="565pt"
 viewBox="0.00 0.00 1410.50 565.00" xmlns="http://www.w3.org/2000/svg" xmlns:xlink="http://www.w3.org/1999/xlink">
<g id="graph0" class="graph" transform="scale(1 1) rotate(0) translate(4 561)">
<title>Tree</title>
<polygon fill="white" stroke="none" points="-4,4 -4,-561 1406.5,-561 1406.5,4 -4,4"/>
<!-- 0 -->
<g id="node1" class="node">
<title>0</title>
<path fill="#fefeff" stroke="black" d="M804,-557C804,-557 644,-557 644,-557 638,-557 632,-551 632,-545 632,-545 632,-474.75 632,-474.75 632,-468.75 638,-462.75 644,-462.75 644,-462.75 804,-462.75 804,-462.75 810,-462.75 816,-468.75 816,-474.75 816,-474.75 816,-545 816,-545 816,-551 810,-557 804,-557"/>
<text text-anchor="middle" x="724" y="-539.7" font-family="Helvetica,sans-Serif" font-size="14.00">22_A &lt;= 0.5</text>
<text text-anchor="middle" x="724" y="-522.45" font-family="Helvetica,sans-Serif" font-size="14.00">entropy = 1.0</text>
<text text-anchor="middle" x="724" y="-505.2" font-family="Helvetica,sans-Serif" font-size="14.00">samples = 38044</text>
<text text-anchor="middle" x="724" y="-487.95" font-family="Helvetica,sans-Serif" font-size="14.00">value = [30072, 30273]</text>
<text text-anchor="middle" x="724" y="-470.7" font-family="Helvetica,sans-Serif" font-size="14.00">class = Plant</text>
</g>
<!-- 1 -->
<g id="node2" class="node">
<title>1</title>
<path fill="#eaf5fc" stroke="black" d="M633,-426.75C633,-426.75 473,-426.75 473,-426.75 467,-426.75 461,-420.75 461,-414.75 461,-414.75 461,-344.5 461,-344.5 461,-338.5 467,-332.5 473,-332.5 473,-332.5 633,-332.5 633,-332.5 639,-332.5 645,-338.5 645,-344.5 645,-344.5 645,-414.75 645,-414.75 645,-420.75 639,-426.75 633,-426.75"/>
<text text-anchor="middle" x="553" y="-409.45" font-family="Helvetica,sans-Serif" font-size="14.00">3_G &lt;= 0.5</text>
<text text-anchor="middle" x="553" y="-392.2" font-family="Helvetica,sans-Serif" font-size="14.00">entropy = 0.998</text>
<text text-anchor="middle" x="553" y="-374.95" font-family="Helvetica,sans-Serif" font-size="14.00">samples = 33793</text>
<text text-anchor="middle" x="553" y="-357.7" font-family="Helvetica,sans-Serif" font-size="14.00">value = [25329, 28321]</text>
<text text-anchor="middle" x="553" y="-340.45" font-family="Helvetica,sans-Serif" font-size="14.00">class = Plant</text>
</g>
<!-- 0&#45;&gt;1 -->
<g id="edge1" class="edge">
<title>0&#45;&gt;1</title>
<path fill="none" stroke="black" d="M662.27,-462.57C649.87,-453.28 636.75,-443.44 624.07,-433.93"/>
<polygon fill="black" stroke="black" points="626.24,-431.18 616.14,-427.98 622.04,-436.78 626.24,-431.18"/>
<text text-anchor="middle" x="618.47" y="-447.15" font-family="Helvetica,sans-Serif" font-size="14.00">True</text>
</g>
<!-- 14672 -->
<g id="node17" class="node">
<title>14672</title>
<path fill="#f0b58a" stroke="black" d="M975,-426.75C975,-426.75 833,-426.75 833,-426.75 827,-426.75 821,-420.75 821,-414.75 821,-414.75 821,-344.5 821,-344.5 821,-338.5 827,-332.5 833,-332.5 833,-332.5 975,-332.5 975,-332.5 981,-332.5 987,-338.5 987,-344.5 987,-344.5 987,-414.75 987,-414.75 987,-420.75 981,-426.75 975,-426.75"/>
<text text-anchor="middle" x="904" y="-409.45" font-family="Helvetica,sans-Serif" font-size="14.00">18_U &lt;= 0.5</text>
<text text-anchor="middle" x="904" y="-392.2" font-family="Helvetica,sans-Serif" font-size="14.00">entropy = 0.871</text>
<text text-anchor="middle" x="904" y="-374.95" font-family="Helvetica,sans-Serif" font-size="14.00">samples = 4251</text>
<text text-anchor="middle" x="904" y="-357.7" font-family="Helvetica,sans-Serif" font-size="14.00">value = [4743, 1952]</text>
<text text-anchor="middle" x="904" y="-340.45" font-family="Helvetica,sans-Serif" font-size="14.00">class = Animal</text>
</g>
<!-- 0&#45;&gt;14672 -->
<g id="edge16" class="edge">
<title>0&#45;&gt;14672</title>
<path fill="none" stroke="black" d="M789.24,-462.39C802.32,-453.07 816.15,-443.22 829.52,-433.69"/>
<polygon fill="black" stroke="black" points="831.34,-436.7 837.45,-428.04 827.27,-430.99 831.34,-436.7"/>
<text text-anchor="middle" x="834.54" y="-447.14" font-family="Helvetica,sans-Serif" font-size="14.00">False</text>
</g>
<!-- 2 -->
<g id="node3" class="node">
<title>2</title>
<path fill="#fffdfc" stroke="black" d="M361,-296.5C361,-296.5 201,-296.5 201,-296.5 195,-296.5 189,-290.5 189,-284.5 189,-284.5 189,-214.25 189,-214.25 189,-208.25 195,-202.25 201,-202.25 201,-202.25 361,-202.25 361,-202.25 367,-202.25 373,-208.25 373,-214.25 373,-214.25 373,-284.5 373,-284.5 373,-290.5 367,-296.5 361,-296.5"/>
<text text-anchor="middle" x="281" y="-279.2" font-family="Helvetica,sans-Serif" font-size="14.00">23_U &lt;= 0.5</text>
<text text-anchor="middle" x="281" y="-261.95" font-family="Helvetica,sans-Serif" font-size="14.00">entropy = 1.0</text>
<text text-anchor="middle" x="281" y="-244.7" font-family="Helvetica,sans-Serif" font-size="14.00">samples = 22975</text>
<text text-anchor="middle" x="281" y="-227.45" font-family="Helvetica,sans-Serif" font-size="14.00">value = [18360, 18118]</text>
<text text-anchor="middle" x="281" y="-210.2" font-family="Helvetica,sans-Serif" font-size="14.00">class = Animal</text>
</g>
<!-- 1&#45;&gt;2 -->
<g id="edge2" class="edge">
<title>1&#45;&gt;2</title>
<path fill="none" stroke="black" d="M460.53,-335.03C435.76,-323.35 408.84,-310.65 383.56,-298.73"/>
<polygon fill="black" stroke="black" points="385.12,-295.6 374.58,-294.5 382.13,-301.93 385.12,-295.6"/>
</g>
<!-- 10519 -->
<g id="node10" class="node">
<title>10519</title>
<path fill="#c0e0f7" stroke="black" d="M628.5,-296.5C628.5,-296.5 477.5,-296.5 477.5,-296.5 471.5,-296.5 465.5,-290.5 465.5,-284.5 465.5,-284.5 465.5,-214.25 465.5,-214.25 465.5,-208.25 471.5,-202.25 477.5,-202.25 477.5,-202.25 628.5,-202.25 628.5,-202.25 634.5,-202.25 640.5,-208.25 640.5,-214.25 640.5,-214.25 640.5,-284.5 640.5,-284.5 640.5,-290.5 634.5,-296.5 628.5,-296.5"/>
<text text-anchor="middle" x="553" y="-279.2" font-family="Helvetica,sans-Serif" font-size="14.00">8_C &lt;= 0.5</text>
<text text-anchor="middle" x="553" y="-261.95" font-family="Helvetica,sans-Serif" font-size="14.00">entropy = 0.974</text>
<text text-anchor="middle" x="553" y="-244.7" font-family="Helvetica,sans-Serif" font-size="14.00">samples = 10818</text>
<text text-anchor="middle" x="553" y="-227.45" font-family="Helvetica,sans-Serif" font-size="14.00">value = [6969, 10203]</text>
<text text-anchor="middle" x="553" y="-210.2" font-family="Helvetica,sans-Serif" font-size="14.00">class = Plant</text>
</g>
<!-- 1&#45;&gt;10519 -->
<g id="edge9" class="edge">
<title>1&#45;&gt;10519</title>
<path fill="none" stroke="black" d="M553,-332.32C553,-324.42 553,-316.13 553,-307.98"/>
<polygon fill="black" stroke="black" points="556.5,-308.12 553,-298.12 549.5,-308.12 556.5,-308.12"/>
</g>
<!-- 3 -->
<g id="node4" class="node">
<title>3</title>
<path fill="#f4fafe" stroke="black" d="M172,-166.25C172,-166.25 12,-166.25 12,-166.25 6,-166.25 0,-160.25 0,-154.25 0,-154.25 0,-84 0,-84 0,-78 6,-72 12,-72 12,-72 172,-72 172,-72 178,-72 184,-78 184,-84 184,-84 184,-154.25 184,-154.25 184,-160.25 178,-166.25 172,-166.25"/>
<text text-anchor="middle" x="92" y="-148.95" font-family="Helvetica,sans-Serif" font-size="14.00">1_U &lt;= 0.5</text>
<text text-anchor="middle" x="92" y="-131.7" font-family="Helvetica,sans-Serif" font-size="14.00">entropy = 0.999</text>
<text text-anchor="middle" x="92" y="-114.45" font-family="Helvetica,sans-Serif" font-size="14.00">samples = 21805</text>
<text text-anchor="middle" x="92" y="-97.2" font-family="Helvetica,sans-Serif" font-size="14.00">value = [16810, 17807]</text>
<text text-anchor="middle" x="92" y="-79.95" font-family="Helvetica,sans-Serif" font-size="14.00">class = Plant</text>
</g>
<!-- 2&#45;&gt;3 -->
<g id="edge3" class="edge">
<title>2&#45;&gt;3</title>
<path fill="none" stroke="black" d="M212.5,-201.89C198.63,-192.48 183.96,-182.53 169.8,-172.92"/>
<polygon fill="black" stroke="black" points="172.08,-170.23 161.84,-167.51 168.15,-176.03 172.08,-170.23"/>
</g>
<!-- 10092 -->
<g id="node7" class="node">
<title>10092</title>
<path fill="#ea9a61" stroke="black" d="M347.5,-166.25C347.5,-166.25 214.5,-166.25 214.5,-166.25 208.5,-166.25 202.5,-160.25 202.5,-154.25 202.5,-154.25 202.5,-84 202.5,-84 202.5,-78 208.5,-72 214.5,-72 214.5,-72 347.5,-72 347.5,-72 353.5,-72 359.5,-78 359.5,-84 359.5,-84 359.5,-154.25 359.5,-154.25 359.5,-160.25 353.5,-166.25 347.5,-166.25"/>
<text text-anchor="middle" x="281" y="-148.95" font-family="Helvetica,sans-Serif" font-size="14.00">17_U &lt;= 0.5</text>
<text text-anchor="middle" x="281" y="-131.7" font-family="Helvetica,sans-Serif" font-size="14.00">entropy = 0.651</text>
<text text-anchor="middle" x="281" y="-114.45" font-family="Helvetica,sans-Serif" font-size="14.00">samples = 1170</text>
<text text-anchor="middle" x="281" y="-97.2" font-family="Helvetica,sans-Serif" font-size="14.00">value = [1550, 311]</text>
<text text-anchor="middle" x="281" y="-79.95" font-family="Helvetica,sans-Serif" font-size="14.00">class = Animal</text>
</g>
<!-- 2&#45;&gt;10092 -->
<g id="edge6" class="edge">
<title>2&#45;&gt;10092</title>
<path fill="none" stroke="black" d="M281,-202.07C281,-194.17 281,-185.88 281,-177.73"/>
<polygon fill="black" stroke="black" points="284.5,-177.87 281,-167.87 277.5,-177.87 284.5,-177.87"/>
</g>
<!-- 4 -->
<g id="node5" class="node">
<title>4</title>
<path fill="#c0c0c0" stroke="black" d="M71,-36C71,-36 41,-36 41,-36 35,-36 29,-30 29,-24 29,-24 29,-12 29,-12 29,-6 35,0 41,0 41,0 71,0 71,0 77,0 83,-6 83,-12 83,-12 83,-24 83,-24 83,-30 77,-36 71,-36"/>
<text text-anchor="middle" x="56" y="-13.32" font-family="Helvetica,sans-Serif" font-size="14.00">(...)</text>
</g>
<!-- 3&#45;&gt;4 -->
<g id="edge4" class="edge">
<title>3&#45;&gt;4</title>
<path fill="none" stroke="black" d="M75.16,-71.75C72.06,-63.22 68.92,-54.57 66.1,-46.8"/>
<polygon fill="black" stroke="black" points="69.46,-45.8 62.75,-37.6 62.88,-48.19 69.46,-45.8"/>
</g>
<!-- 5707 -->
<g id="node6" class="node">
<title>5707</title>
<path fill="#c0c0c0" stroke="black" d="M143,-36C143,-36 113,-36 113,-36 107,-36 101,-30 101,-24 101,-24 101,-12 101,-12 101,-6 107,0 113,0 113,0 143,0 143,0 149,0 155,-6 155,-12 155,-12 155,-24 155,-24 155,-30 149,-36 143,-36"/>
<text text-anchor="middle" x="128" y="-13.32" font-family="Helvetica,sans-Serif" font-size="14.00">(...)</text>
</g>
<!-- 3&#45;&gt;5707 -->
<g id="edge5" class="edge">
<title>3&#45;&gt;5707</title>
<path fill="none" stroke="black" d="M108.84,-71.75C111.94,-63.22 115.08,-54.57 117.9,-46.8"/>
<polygon fill="black" stroke="black" points="121.12,-48.19 121.25,-37.6 114.54,-45.8 121.12,-48.19"/>
</g>
<!-- 10093 -->
<g id="node8" class="node">
<title>10093</title>
<path fill="#c0c0c0" stroke="black" d="M260,-36C260,-36 230,-36 230,-36 224,-36 218,-30 218,-24 218,-24 218,-12 218,-12 218,-6 224,0 230,0 230,0 260,0 260,0 266,0 272,-6 272,-12 272,-12 272,-24 272,-24 272,-30 266,-36 260,-36"/>
<text text-anchor="middle" x="245" y="-13.32" font-family="Helvetica,sans-Serif" font-size="14.00">(...)</text>
</g>
<!-- 10092&#45;&gt;10093 -->
<g id="edge7" class="edge">
<title>10092&#45;&gt;10093</title>
<path fill="none" stroke="black" d="M264.16,-71.75C261.06,-63.22 257.92,-54.57 255.1,-46.8"/>
<polygon fill="black" stroke="black" points="258.46,-45.8 251.75,-37.6 251.88,-48.19 258.46,-45.8"/>
</g>
<!-- 10408 -->
<g id="node9" class="node">
<title>10408</title>
<path fill="#c0c0c0" stroke="black" d="M332,-36C332,-36 302,-36 302,-36 296,-36 290,-30 290,-24 290,-24 290,-12 290,-12 290,-6 296,0 302,0 302,0 332,0 332,0 338,0 344,-6 344,-12 344,-12 344,-24 344,-24 344,-30 338,-36 332,-36"/>
<text text-anchor="middle" x="317" y="-13.32" font-family="Helvetica,sans-Serif" font-size="14.00">(...)</text>
</g>
<!-- 10092&#45;&gt;10408 -->
<g id="edge8" class="edge">
<title>10092&#45;&gt;10408</title>
<path fill="none" stroke="black" d="M297.84,-71.75C300.94,-63.22 304.08,-54.57 306.9,-46.8"/>
<polygon fill="black" stroke="black" points="310.12,-48.19 310.25,-37.6 303.54,-45.8 310.12,-48.19"/>
</g>
<!-- 10520 -->
<g id="node11" class="node">
<title>10520</title>
<path fill="#afd7f4" stroke="black" d="M532,-166.25C532,-166.25 390,-166.25 390,-166.25 384,-166.25 378,-160.25 378,-154.25 378,-154.25 378,-84 378,-84 378,-78 384,-72 390,-72 390,-72 532,-72 532,-72 538,-72 544,-78 544,-84 544,-84 544,-154.25 544,-154.25 544,-160.25 538,-166.25 532,-166.25"/>
<text text-anchor="middle" x="461" y="-148.95" font-family="Helvetica,sans-Serif" font-size="14.00">22_G &lt;= 0.5</text>
<text text-anchor="middle" x="461" y="-131.7" font-family="Helvetica,sans-Serif" font-size="14.00">entropy = 0.953</text>
<text text-anchor="middle" x="461" y="-114.45" font-family="Helvetica,sans-Serif" font-size="14.00">samples = 9341</text>
<text text-anchor="middle" x="461" y="-97.2" font-family="Helvetica,sans-Serif" font-size="14.00">value = [5524, 9301]</text>
<text text-anchor="middle" x="461" y="-79.95" font-family="Helvetica,sans-Serif" font-size="14.00">class = Plant</text>
</g>
<!-- 10519&#45;&gt;10520 -->
<g id="edge10" class="edge">
<title>10519&#45;&gt;10520</title>
<path fill="none" stroke="black" d="M519.79,-202.07C513.6,-193.45 507.07,-184.35 500.71,-175.49"/>
<polygon fill="black" stroke="black" points="503.72,-173.67 495.05,-167.59 498.03,-177.75 503.72,-173.67"/>
</g>
<!-- 13803 -->
<g id="node14" class="node">
<title>13803</title>
<path fill="#f5d0b5" stroke="black" d="M707.5,-166.25C707.5,-166.25 574.5,-166.25 574.5,-166.25 568.5,-166.25 562.5,-160.25 562.5,-154.25 562.5,-154.25 562.5,-84 562.5,-84 562.5,-78 568.5,-72 574.5,-72 574.5,-72 707.5,-72 707.5,-72 713.5,-72 719.5,-78 719.5,-84 719.5,-84 719.5,-154.25 719.5,-154.25 719.5,-160.25 713.5,-166.25 707.5,-166.25"/>
<text text-anchor="middle" x="641" y="-148.95" font-family="Helvetica,sans-Serif" font-size="14.00">9_G &lt;= 0.5</text>
<text text-anchor="middle" x="641" y="-131.7" font-family="Helvetica,sans-Serif" font-size="14.00">entropy = 0.961</text>
<text text-anchor="middle" x="641" y="-114.45" font-family="Helvetica,sans-Serif" font-size="14.00">samples = 1477</text>
<text text-anchor="middle" x="641" y="-97.2" font-family="Helvetica,sans-Serif" font-size="14.00">value = [1445, 902]</text>
<text text-anchor="middle" x="641" y="-79.95" font-family="Helvetica,sans-Serif" font-size="14.00">class = Animal</text>
</g>
<!-- 10519&#45;&gt;13803 -->
<g id="edge13" class="edge">
<title>10519&#45;&gt;13803</title>
<path fill="none" stroke="black" d="M584.77,-202.07C590.63,-193.54 596.8,-184.54 602.82,-175.77"/>
<polygon fill="black" stroke="black" points="605.65,-177.83 608.42,-167.61 599.88,-173.87 605.65,-177.83"/>
</g>
<!-- 10521 -->
<g id="node12" class="node">
<title>10521</title>
<path fill="#c0c0c0" stroke="black" d="M422,-36C422,-36 392,-36 392,-36 386,-36 380,-30 380,-24 380,-24 380,-12 380,-12 380,-6 386,0 392,0 392,0 422,0 422,0 428,0 434,-6 434,-12 434,-12 434,-24 434,-24 434,-30 428,-36 422,-36"/>
<text text-anchor="middle" x="407" y="-13.32" font-family="Helvetica,sans-Serif" font-size="14.00">(...)</text>
</g>
<!-- 10520&#45;&gt;10521 -->
<g id="edge11" class="edge">
<title>10520&#45;&gt;10521</title>
<path fill="none" stroke="black" d="M435.74,-71.75C430.98,-63.03 426.16,-54.16 421.85,-46.26"/>
<polygon fill="black" stroke="black" points="424.94,-44.61 417.08,-37.5 418.79,-47.96 424.94,-44.61"/>
</g>
<!-- 13366 -->
<g id="node13" class="node">
<title>13366</title>
<path fill="#c0c0c0" stroke="black" d="M494,-36C494,-36 464,-36 464,-36 458,-36 452,-30 452,-24 452,-24 452,-12 452,-12 452,-6 458,0 464,0 464,0 494,0 494,0 500,0 506,-6 506,-12 506,-12 506,-24 506,-24 506,-30 500,-36 494,-36"/>
<text text-anchor="middle" x="479" y="-13.32" font-family="Helvetica,sans-Serif" font-size="14.00">(...)</text>
</g>
<!-- 10520&#45;&gt;13366 -->
<g id="edge12" class="edge">
<title>10520&#45;&gt;13366</title>
<path fill="none" stroke="black" d="M469.42,-71.75C470.93,-63.42 472.47,-54.97 473.85,-47.34"/>
<polygon fill="black" stroke="black" points="477.27,-48.13 475.61,-37.66 470.38,-46.88 477.27,-48.13"/>
</g>
<!-- 13804 -->
<g id="node15" class="node">
<title>13804</title>
<path fill="#c0c0c0" stroke="black" d="M602,-36C602,-36 572,-36 572,-36 566,-36 560,-30 560,-24 560,-24 560,-12 560,-12 560,-6 566,0 572,0 572,0 602,0 602,0 608,0 614,-6 614,-12 614,-12 614,-24 614,-24 614,-30 608,-36 602,-36"/>
<text text-anchor="middle" x="587" y="-13.32" font-family="Helvetica,sans-Serif" font-size="14.00">(...)</text>
</g>
<!-- 13803&#45;&gt;13804 -->
<g id="edge14" class="edge">
<title>13803&#45;&gt;13804</title>
<path fill="none" stroke="black" d="M615.74,-71.75C610.98,-63.03 606.16,-54.16 601.85,-46.26"/>
<polygon fill="black" stroke="black" points="604.94,-44.61 597.08,-37.5 598.79,-47.96 604.94,-44.61"/>
</g>
<!-- 14529 -->
<g id="node16" class="node">
<title>14529</title>
<path fill="#c0c0c0" stroke="black" d="M674,-36C674,-36 644,-36 644,-36 638,-36 632,-30 632,-24 632,-24 632,-12 632,-12 632,-6 638,0 644,0 644,0 674,0 674,0 680,0 686,-6 686,-12 686,-12 686,-24 686,-24 686,-30 680,-36 674,-36"/>
<text text-anchor="middle" x="659" y="-13.32" font-family="Helvetica,sans-Serif" font-size="14.00">(...)</text>
</g>
<!-- 13803&#45;&gt;14529 -->
<g id="edge15" class="edge">
<title>13803&#45;&gt;14529</title>
<path fill="none" stroke="black" d="M649.42,-71.75C650.93,-63.42 652.47,-54.97 653.85,-47.34"/>
<polygon fill="black" stroke="black" points="657.27,-48.13 655.61,-37.66 650.38,-46.88 657.27,-48.13"/>
</g>
<!-- 14673 -->
<g id="node18" class="node">
<title>14673</title>
<path fill="#eead7e" stroke="black" d="M975,-296.5C975,-296.5 833,-296.5 833,-296.5 827,-296.5 821,-290.5 821,-284.5 821,-284.5 821,-214.25 821,-214.25 821,-208.25 827,-202.25 833,-202.25 833,-202.25 975,-202.25 975,-202.25 981,-202.25 987,-208.25 987,-214.25 987,-214.25 987,-284.5 987,-284.5 987,-290.5 981,-296.5 975,-296.5"/>
<text text-anchor="middle" x="904" y="-279.2" font-family="Helvetica,sans-Serif" font-size="14.00">1_G &lt;= 0.5</text>
<text text-anchor="middle" x="904" y="-261.95" font-family="Helvetica,sans-Serif" font-size="14.00">entropy = 0.826</text>
<text text-anchor="middle" x="904" y="-244.7" font-family="Helvetica,sans-Serif" font-size="14.00">samples = 2967</text>
<text text-anchor="middle" x="904" y="-227.45" font-family="Helvetica,sans-Serif" font-size="14.00">value = [3434, 1205]</text>
<text text-anchor="middle" x="904" y="-210.2" font-family="Helvetica,sans-Serif" font-size="14.00">class = Animal</text>
</g>
<!-- 14672&#45;&gt;14673 -->
<g id="edge17" class="edge">
<title>14672&#45;&gt;14673</title>
<path fill="none" stroke="black" d="M904,-332.32C904,-324.42 904,-316.13 904,-307.98"/>
<polygon fill="black" stroke="black" points="907.5,-308.12 904,-298.12 900.5,-308.12 907.5,-308.12"/>
</g>
<!-- 16072 -->
<g id="node25" class="node">
<title>16072</title>
<path fill="#f4c9aa" stroke="black" d="M1233.5,-296.5C1233.5,-296.5 1100.5,-296.5 1100.5,-296.5 1094.5,-296.5 1088.5,-290.5 1088.5,-284.5 1088.5,-284.5 1088.5,-214.25 1088.5,-214.25 1088.5,-208.25 1094.5,-202.25 1100.5,-202.25 1100.5,-202.25 1233.5,-202.25 1233.5,-202.25 1239.5,-202.25 1245.5,-208.25 1245.5,-214.25 1245.5,-214.25 1245.5,-284.5 1245.5,-284.5 1245.5,-290.5 1239.5,-296.5 1233.5,-296.5"/>
<text text-anchor="middle" x="1167" y="-279.2" font-family="Helvetica,sans-Serif" font-size="14.00">14_G &lt;= 0.5</text>
<text text-anchor="middle" x="1167" y="-261.95" font-family="Helvetica,sans-Serif" font-size="14.00">entropy = 0.945</text>
<text text-anchor="middle" x="1167" y="-244.7" font-family="Helvetica,sans-Serif" font-size="14.00">samples = 1284</text>
<text text-anchor="middle" x="1167" y="-227.45" font-family="Helvetica,sans-Serif" font-size="14.00">value = [1309, 747]</text>
<text text-anchor="middle" x="1167" y="-210.2" font-family="Helvetica,sans-Serif" font-size="14.00">class = Animal</text>
</g>
<!-- 14672&#45;&gt;16072 -->
<g id="edge24" class="edge">
<title>14672&#45;&gt;16072</title>
<path fill="none" stroke="black" d="M987.21,-338.05C1016.16,-323.93 1048.72,-308.05 1078.11,-293.72"/>
<polygon fill="black" stroke="black" points="1079.54,-296.92 1087,-289.39 1076.48,-290.62 1079.54,-296.92"/>
</g>
<!-- 14674 -->
<g id="node19" class="node">
<title>14674</title>
<path fill="#eeaa7a" stroke="black" d="M892,-166.25C892,-166.25 750,-166.25 750,-166.25 744,-166.25 738,-160.25 738,-154.25 738,-154.25 738,-84 738,-84 738,-78 744,-72 750,-72 750,-72 892,-72 892,-72 898,-72 904,-78 904,-84 904,-84 904,-154.25 904,-154.25 904,-160.25 898,-166.25 892,-166.25"/>
<text text-anchor="middle" x="821" y="-148.95" font-family="Helvetica,sans-Serif" font-size="14.00">20_C &lt;= 0.5</text>
<text text-anchor="middle" x="821" y="-131.7" font-family="Helvetica,sans-Serif" font-size="14.00">entropy = 0.807</text>
<text text-anchor="middle" x="821" y="-114.45" font-family="Helvetica,sans-Serif" font-size="14.00">samples = 2670</text>
<text text-anchor="middle" x="821" y="-97.2" font-family="Helvetica,sans-Serif" font-size="14.00">value = [3148, 1033]</text>
<text text-anchor="middle" x="821" y="-79.95" font-family="Helvetica,sans-Serif" font-size="14.00">class = Animal</text>
</g>
<!-- 14673&#45;&gt;14674 -->
<g id="edge18" class="edge">
<title>14673&#45;&gt;14674</title>
<path fill="none" stroke="black" d="M874.04,-202.07C868.51,-193.54 862.69,-184.54 857.01,-175.77"/>
<polygon fill="black" stroke="black" points="860.11,-174.12 851.74,-167.63 854.24,-177.93 860.11,-174.12"/>
</g>
<!-- 15909 -->
<g id="node22" class="node">
<title>15909</title>
<path fill="#f5cdb0" stroke="black" d="M1058,-166.25C1058,-166.25 934,-166.25 934,-166.25 928,-166.25 922,-160.25 922,-154.25 922,-154.25 922,-84 922,-84 922,-78 928,-72 934,-72 934,-72 1058,-72 1058,-72 1064,-72 1070,-78 1070,-84 1070,-84 1070,-154.25 1070,-154.25 1070,-160.25 1064,-166.25 1058,-166.25"/>
<text text-anchor="middle" x="996" y="-148.95" font-family="Helvetica,sans-Serif" font-size="14.00">24_C &lt;= 0.5</text>
<text text-anchor="middle" x="996" y="-131.7" font-family="Helvetica,sans-Serif" font-size="14.00">entropy = 0.955</text>
<text text-anchor="middle" x="996" y="-114.45" font-family="Helvetica,sans-Serif" font-size="14.00">samples = 297</text>
<text text-anchor="middle" x="996" y="-97.2" font-family="Helvetica,sans-Serif" font-size="14.00">value = [286, 172]</text>
<text text-anchor="middle" x="996" y="-79.95" font-family="Helvetica,sans-Serif" font-size="14.00">class = Animal</text>
</g>
<!-- 14673&#45;&gt;15909 -->
<g id="edge21" class="edge">
<title>14673&#45;&gt;15909</title>
<path fill="none" stroke="black" d="M937.21,-202.07C943.4,-193.45 949.93,-184.35 956.29,-175.49"/>
<polygon fill="black" stroke="black" points="958.97,-177.75 961.95,-167.59 953.28,-173.67 958.97,-177.75"/>
</g>
<!-- 14675 -->
<g id="node20" class="node">
<title>14675</title>
<path fill="#c0c0c0" stroke="black" d="M779,-36C779,-36 749,-36 749,-36 743,-36 737,-30 737,-24 737,-24 737,-12 737,-12 737,-6 743,0 749,0 749,0 779,0 779,0 785,0 791,-6 791,-12 791,-12 791,-24 791,-24 791,-30 785,-36 779,-36"/>
<text text-anchor="middle" x="764" y="-13.32" font-family="Helvetica,sans-Serif" font-size="14.00">(...)</text>
</g>
<!-- 14674&#45;&gt;14675 -->
<g id="edge19" class="edge">
<title>14674&#45;&gt;14675</title>
<path fill="none" stroke="black" d="M794.34,-71.75C789.26,-62.93 784.1,-53.96 779.52,-45.99"/>
<polygon fill="black" stroke="black" points="782.65,-44.41 774.63,-37.48 776.58,-47.9 782.65,-44.41"/>
</g>
<!-- 15628 -->
<g id="node21" class="node">
<title>15628</title>
<path fill="#c0c0c0" stroke="black" d="M851,-36C851,-36 821,-36 821,-36 815,-36 809,-30 809,-24 809,-24 809,-12 809,-12 809,-6 815,0 821,0 821,0 851,0 851,0 857,0 863,-6 863,-12 863,-12 863,-24 863,-24 863,-30 857,-36 851,-36"/>
<text text-anchor="middle" x="836" y="-13.32" font-family="Helvetica,sans-Serif" font-size="14.00">(...)</text>
</g>
<!-- 14674&#45;&gt;15628 -->
<g id="edge20" class="edge">
<title>14674&#45;&gt;15628</title>
<path fill="none" stroke="black" d="M828.02,-71.75C829.28,-63.42 830.56,-54.97 831.71,-47.34"/>
<polygon fill="black" stroke="black" points="835.14,-48.08 833.17,-37.67 828.22,-47.03 835.14,-48.08"/>
</g>
<!-- 15910 -->
<g id="node23" class="node">
<title>15910</title>
<path fill="#c0c0c0" stroke="black" d="M952,-36C952,-36 922,-36 922,-36 916,-36 910,-30 910,-24 910,-24 910,-12 910,-12 910,-6 916,0 922,0 922,0 952,0 952,0 958,0 964,-6 964,-12 964,-12 964,-24 964,-24 964,-30 958,-36 952,-36"/>
<text text-anchor="middle" x="937" y="-13.32" font-family="Helvetica,sans-Serif" font-size="14.00">(...)</text>
</g>
<!-- 15909&#45;&gt;15910 -->
<g id="edge22" class="edge">
<title>15909&#45;&gt;15910</title>
<path fill="none" stroke="black" d="M968.4,-71.75C963.15,-62.93 957.81,-53.96 953.06,-45.99"/>
<polygon fill="black" stroke="black" points="956.12,-44.28 948,-37.47 950.1,-47.86 956.12,-44.28"/>
</g>
<!-- 16059 -->
<g id="node24" class="node">
<title>16059</title>
<path fill="#c0c0c0" stroke="black" d="M1024,-36C1024,-36 994,-36 994,-36 988,-36 982,-30 982,-24 982,-24 982,-12 982,-12 982,-6 988,0 994,0 994,0 1024,0 1024,0 1030,0 1036,-6 1036,-12 1036,-12 1036,-24 1036,-24 1036,-30 1030,-36 1024,-36"/>
<text text-anchor="middle" x="1009" y="-13.32" font-family="Helvetica,sans-Serif" font-size="14.00">(...)</text>
</g>
<!-- 15909&#45;&gt;16059 -->
<g id="edge23" class="edge">
<title>15909&#45;&gt;16059</title>
<path fill="none" stroke="black" d="M1002.08,-71.75C1003.17,-63.42 1004.28,-54.97 1005.28,-47.34"/>
<polygon fill="black" stroke="black" points="1008.72,-48.04 1006.55,-37.67 1001.78,-47.13 1008.72,-48.04"/>
</g>
<!-- 16073 -->
<g id="node26" class="node">
<title>16073</title>
<path fill="#f6d3ba" stroke="black" d="M1233.5,-166.25C1233.5,-166.25 1100.5,-166.25 1100.5,-166.25 1094.5,-166.25 1088.5,-160.25 1088.5,-154.25 1088.5,-154.25 1088.5,-84 1088.5,-84 1088.5,-78 1094.5,-72 1100.5,-72 1100.5,-72 1233.5,-72 1233.5,-72 1239.5,-72 1245.5,-78 1245.5,-84 1245.5,-84 1245.5,-154.25 1245.5,-154.25 1245.5,-160.25 1239.5,-166.25 1233.5,-166.25"/>
<text text-anchor="middle" x="1167" y="-148.95" font-family="Helvetica,sans-Serif" font-size="14.00">14_U &lt;= 0.5</text>
<text text-anchor="middle" x="1167" y="-131.7" font-family="Helvetica,sans-Serif" font-size="14.00">entropy = 0.968</text>
<text text-anchor="middle" x="1167" y="-114.45" font-family="Helvetica,sans-Serif" font-size="14.00">samples = 1026</text>
<text text-anchor="middle" x="1167" y="-97.2" font-family="Helvetica,sans-Serif" font-size="14.00">value = [1001, 654]</text>
<text text-anchor="middle" x="1167" y="-79.95" font-family="Helvetica,sans-Serif" font-size="14.00">class = Animal</text>
</g>
<!-- 16072&#45;&gt;16073 -->
<g id="edge25" class="edge">
<title>16072&#45;&gt;16073</title>
<path fill="none" stroke="black" d="M1167,-202.07C1167,-194.17 1167,-185.88 1167,-177.73"/>
<polygon fill="black" stroke="black" points="1170.5,-177.87 1167,-167.87 1163.5,-177.87 1170.5,-177.87"/>
</g>
<!-- 16502 -->
<g id="node29" class="node">
<title>16502</title>
<path fill="#eda775" stroke="black" d="M1390.5,-166.25C1390.5,-166.25 1275.5,-166.25 1275.5,-166.25 1269.5,-166.25 1263.5,-160.25 1263.5,-154.25 1263.5,-154.25 1263.5,-84 1263.5,-84 1263.5,-78 1269.5,-72 1275.5,-72 1275.5,-72 1390.5,-72 1390.5,-72 1396.5,-72 1402.5,-78 1402.5,-84 1402.5,-84 1402.5,-154.25 1402.5,-154.25 1402.5,-160.25 1396.5,-166.25 1390.5,-166.25"/>
<text text-anchor="middle" x="1333" y="-148.95" font-family="Helvetica,sans-Serif" font-size="14.00">13_A &lt;= 0.5</text>
<text text-anchor="middle" x="1333" y="-131.7" font-family="Helvetica,sans-Serif" font-size="14.00">entropy = 0.781</text>
<text text-anchor="middle" x="1333" y="-114.45" font-family="Helvetica,sans-Serif" font-size="14.00">samples = 258</text>
<text text-anchor="middle" x="1333" y="-97.2" font-family="Helvetica,sans-Serif" font-size="14.00">value = [308, 93]</text>
<text text-anchor="middle" x="1333" y="-79.95" font-family="Helvetica,sans-Serif" font-size="14.00">class = Animal</text>
</g>
<!-- 16072&#45;&gt;16502 -->
<g id="edge28" class="edge">
<title>16072&#45;&gt;16502</title>
<path fill="none" stroke="black" d="M1226.93,-202.07C1238.96,-192.78 1251.7,-182.94 1264.01,-173.43"/>
<polygon fill="black" stroke="black" points="1265.91,-176.38 1271.68,-167.5 1261.63,-170.84 1265.91,-176.38"/>
</g>
<!-- 16074 -->
<g id="node27" class="node">
<title>16074</title>
<path fill="#c0c0c0" stroke="black" d="M1139,-36C1139,-36 1109,-36 1109,-36 1103,-36 1097,-30 1097,-24 1097,-24 1097,-12 1097,-12 1097,-6 1103,0 1109,0 1109,0 1139,0 1139,0 1145,0 1151,-6 1151,-12 1151,-12 1151,-24 1151,-24 1151,-30 1145,-36 1139,-36"/>
<text text-anchor="middle" x="1124" y="-13.32" font-family="Helvetica,sans-Serif" font-size="14.00">(...)</text>
</g>
<!-- 16073&#45;&gt;16074 -->
<g id="edge26" class="edge">
<title>16073&#45;&gt;16074</title>
<path fill="none" stroke="black" d="M1146.88,-71.75C1143.14,-63.12 1139.34,-54.36 1135.94,-46.53"/>
<polygon fill="black" stroke="black" points="1139.24,-45.34 1132.05,-37.56 1132.82,-48.13 1139.24,-45.34"/>
</g>
<!-- 16351 -->
<g id="node28" class="node">
<title>16351</title>
<path fill="#c0c0c0" stroke="black" d="M1211,-36C1211,-36 1181,-36 1181,-36 1175,-36 1169,-30 1169,-24 1169,-24 1169,-12 1169,-12 1169,-6 1175,0 1181,0 1181,0 1211,0 1211,0 1217,0 1223,-6 1223,-12 1223,-12 1223,-24 1223,-24 1223,-30 1217,-36 1211,-36"/>
<text text-anchor="middle" x="1196" y="-13.32" font-family="Helvetica,sans-Serif" font-size="14.00">(...)</text>
</g>
<!-- 16073&#45;&gt;16351 -->
<g id="edge27" class="edge">
<title>16073&#45;&gt;16351</title>
<path fill="none" stroke="black" d="M1180.57,-71.75C1183.03,-63.32 1185.54,-54.77 1187.79,-47.07"/>
<polygon fill="black" stroke="black" points="1191.1,-48.21 1190.55,-37.63 1184.38,-46.24 1191.1,-48.21"/>
</g>
<!-- 16503 -->
<g id="node30" class="node">
<title>16503</title>
<path fill="#c0c0c0" stroke="black" d="M1312,-36C1312,-36 1282,-36 1282,-36 1276,-36 1270,-30 1270,-24 1270,-24 1270,-12 1270,-12 1270,-6 1276,0 1282,0 1282,0 1312,0 1312,0 1318,0 1324,-6 1324,-12 1324,-12 1324,-24 1324,-24 1324,-30 1318,-36 1312,-36"/>
<text text-anchor="middle" x="1297" y="-13.32" font-family="Helvetica,sans-Serif" font-size="14.00">(...)</text>
</g>
<!-- 16502&#45;&gt;16503 -->
<g id="edge29" class="edge">
<title>16502&#45;&gt;16503</title>
<path fill="none" stroke="black" d="M1316.16,-71.75C1313.06,-63.22 1309.92,-54.57 1307.1,-46.8"/>
<polygon fill="black" stroke="black" points="1310.46,-45.8 1303.75,-37.6 1303.88,-48.19 1310.46,-45.8"/>
</g>
<!-- 16620 -->
<g id="node31" class="node">
<title>16620</title>
<path fill="#c0c0c0" stroke="black" d="M1384,-36C1384,-36 1354,-36 1354,-36 1348,-36 1342,-30 1342,-24 1342,-24 1342,-12 1342,-12 1342,-6 1348,0 1354,0 1354,0 1384,0 1384,0 1390,0 1396,-6 1396,-12 1396,-12 1396,-24 1396,-24 1396,-30 1390,-36 1384,-36"/>
<text text-anchor="middle" x="1369" y="-13.32" font-family="Helvetica,sans-Serif" font-size="14.00">(...)</text>
</g>
<!-- 16502&#45;&gt;16620 -->
<g id="edge30" class="edge">
<title>16502&#45;&gt;16620</title>
<path fill="none" stroke="black" d="M1349.84,-71.75C1352.94,-63.22 1356.08,-54.57 1358.9,-46.8"/>
<polygon fill="black" stroke="black" points="1362.12,-48.19 1362.25,-37.6 1355.54,-45.8 1362.12,-48.19"/>
</g>
</g>
</svg>
