<?xml version="1.0" encoding="UTF-8" standalone="no"?>
<!DOCTYPE svg PUBLIC "-//W3C//DTD SVG 1.1//EN"
 "http://www.w3.org/Graphics/SVG/1.1/DTD/svg11.dtd">
<!-- Generated by graphviz version 12.0.0 (20240803.0821)
 -->
<!-- Title: Tree Pages: 1 -->
<svg width="1427pt" height="565pt"
 viewBox="0.00 0.00 1427.00 565.00" xmlns="http://www.w3.org/2000/svg" xmlns:xlink="http://www.w3.org/1999/xlink">
<g id="graph0" class="graph" transform="scale(1 1) rotate(0) translate(4 561)">
<title>Tree</title>
<polygon fill="white" stroke="none" points="-4,4 -4,-561 1423,-561 1423,4 -4,4"/>
<!-- 0 -->
<g id="node1" class="node">
<title>0</title>
<path fill="#fffefe" stroke="black" d="M793,-557C793,-557 633,-557 633,-557 627,-557 621,-551 621,-545 621,-545 621,-474.75 621,-474.75 621,-468.75 627,-462.75 633,-462.75 633,-462.75 793,-462.75 793,-462.75 799,-462.75 805,-468.75 805,-474.75 805,-474.75 805,-545 805,-545 805,-551 799,-557 793,-557"/>
<text text-anchor="middle" x="713" y="-539.7" font-family="Helvetica,sans-Serif" font-size="14.00">1_U &lt;= 0.5</text>
<text text-anchor="middle" x="713" y="-522.45" font-family="Helvetica,sans-Serif" font-size="14.00">entropy = 1.0</text>
<text text-anchor="middle" x="713" y="-505.2" font-family="Helvetica,sans-Serif" font-size="14.00">samples = 38108</text>
<text text-anchor="middle" x="713" y="-487.95" font-family="Helvetica,sans-Serif" font-size="14.00">value = [30271, 30074]</text>
<text text-anchor="middle" x="713" y="-470.7" font-family="Helvetica,sans-Serif" font-size="14.00">class = Animal</text>
</g>
<!-- 1 -->
<g id="node2" class="node">
<title>1</title>
<path fill="#f7dac4" stroke="black" d="M614,-426.75C614,-426.75 454,-426.75 454,-426.75 448,-426.75 442,-420.75 442,-414.75 442,-414.75 442,-344.5 442,-344.5 442,-338.5 448,-332.5 454,-332.5 454,-332.5 614,-332.5 614,-332.5 620,-332.5 626,-338.5 626,-344.5 626,-344.5 626,-414.75 626,-414.75 626,-420.75 620,-426.75 614,-426.75"/>
<text text-anchor="middle" x="534" y="-409.45" font-family="Helvetica,sans-Serif" font-size="14.00">19_U &lt;= 0.5</text>
<text text-anchor="middle" x="534" y="-392.2" font-family="Helvetica,sans-Serif" font-size="14.00">entropy = 0.978</text>
<text text-anchor="middle" x="534" y="-374.95" font-family="Helvetica,sans-Serif" font-size="14.00">samples = 17810</text>
<text text-anchor="middle" x="534" y="-357.7" font-family="Helvetica,sans-Serif" font-size="14.00">value = [16566, 11651]</text>
<text text-anchor="middle" x="534" y="-340.45" font-family="Helvetica,sans-Serif" font-size="14.00">class = Animal</text>
</g>
<!-- 0&#45;&gt;1 -->
<g id="edge1" class="edge">
<title>0&#45;&gt;1</title>
<path fill="none" stroke="black" d="M648.12,-462.39C635.12,-453.07 621.36,-443.22 608.07,-433.69"/>
<polygon fill="black" stroke="black" points="610.35,-431.02 600.19,-428.05 606.28,-436.72 610.35,-431.02"/>
<text text-anchor="middle" x="603.03" y="-447.16" font-family="Helvetica,sans-Serif" font-size="14.00">True</text>
</g>
<!-- 9364 -->
<g id="node17" class="node">
<title>9364</title>
<path fill="#cce6f8" stroke="black" d="M980,-426.75C980,-426.75 820,-426.75 820,-426.75 814,-426.75 808,-420.75 808,-414.75 808,-414.75 808,-344.5 808,-344.5 808,-338.5 814,-332.5 820,-332.5 820,-332.5 980,-332.5 980,-332.5 986,-332.5 992,-338.5 992,-344.5 992,-344.5 992,-414.75 992,-414.75 992,-420.75 986,-426.75 980,-426.75"/>
<text text-anchor="middle" x="900" y="-409.45" font-family="Helvetica,sans-Serif" font-size="14.00">22_U &lt;= 0.5</text>
<text text-anchor="middle" x="900" y="-392.2" font-family="Helvetica,sans-Serif" font-size="14.00">entropy = 0.984</text>
<text text-anchor="middle" x="900" y="-374.95" font-family="Helvetica,sans-Serif" font-size="14.00">samples = 20298</text>
<text text-anchor="middle" x="900" y="-357.7" font-family="Helvetica,sans-Serif" font-size="14.00">value = [13705, 18423]</text>
<text text-anchor="middle" x="900" y="-340.45" font-family="Helvetica,sans-Serif" font-size="14.00">class = Plant</text>
</g>
<!-- 0&#45;&gt;9364 -->
<g id="edge16" class="edge">
<title>0&#45;&gt;9364</title>
<path fill="none" stroke="black" d="M780.78,-462.39C794.49,-452.98 809.01,-443.03 823.02,-433.42"/>
<polygon fill="black" stroke="black" points="824.63,-436.56 830.89,-428.02 820.67,-430.79 824.63,-436.56"/>
<text text-anchor="middle" x="827.56" y="-447.07" font-family="Helvetica,sans-Serif" font-size="14.00">False</text>
</g>
<!-- 2 -->
<g id="node3" class="node">
<title>2</title>
<path fill="#fbeade" stroke="black" d="M342.5,-296.5C342.5,-296.5 191.5,-296.5 191.5,-296.5 185.5,-296.5 179.5,-290.5 179.5,-284.5 179.5,-284.5 179.5,-214.25 179.5,-214.25 179.5,-208.25 185.5,-202.25 191.5,-202.25 191.5,-202.25 342.5,-202.25 342.5,-202.25 348.5,-202.25 354.5,-208.25 354.5,-214.25 354.5,-214.25 354.5,-284.5 354.5,-284.5 354.5,-290.5 348.5,-296.5 342.5,-296.5"/>
<text text-anchor="middle" x="267" y="-279.2" font-family="Helvetica,sans-Serif" font-size="14.00">12_U &lt;= 0.5</text>
<text text-anchor="middle" x="267" y="-261.95" font-family="Helvetica,sans-Serif" font-size="14.00">entropy = 0.994</text>
<text text-anchor="middle" x="267" y="-244.7" font-family="Helvetica,sans-Serif" font-size="14.00">samples = 13151</text>
<text text-anchor="middle" x="267" y="-227.45" font-family="Helvetica,sans-Serif" font-size="14.00">value = [11400, 9511]</text>
<text text-anchor="middle" x="267" y="-210.2" font-family="Helvetica,sans-Serif" font-size="14.00">class = Animal</text>
</g>
<!-- 1&#45;&gt;2 -->
<g id="edge2" class="edge">
<title>1&#45;&gt;2</title>
<path fill="none" stroke="black" d="M441.74,-334.31C416.97,-322.41 390.09,-309.5 365.02,-297.46"/>
<polygon fill="black" stroke="black" points="366.66,-294.36 356.13,-293.19 363.63,-300.67 366.66,-294.36"/>
</g>
<!-- 6967 -->
<g id="node10" class="node">
<title>6967</title>
<path fill="#f0b58b" stroke="black" d="M605,-296.5C605,-296.5 463,-296.5 463,-296.5 457,-296.5 451,-290.5 451,-284.5 451,-284.5 451,-214.25 451,-214.25 451,-208.25 457,-202.25 463,-202.25 463,-202.25 605,-202.25 605,-202.25 611,-202.25 617,-208.25 617,-214.25 617,-214.25 617,-284.5 617,-284.5 617,-290.5 611,-296.5 605,-296.5"/>
<text text-anchor="middle" x="534" y="-279.2" font-family="Helvetica,sans-Serif" font-size="14.00">8_G &lt;= 0.5</text>
<text text-anchor="middle" x="534" y="-261.95" font-family="Helvetica,sans-Serif" font-size="14.00">entropy = 0.872</text>
<text text-anchor="middle" x="534" y="-244.7" font-family="Helvetica,sans-Serif" font-size="14.00">samples = 4659</text>
<text text-anchor="middle" x="534" y="-227.45" font-family="Helvetica,sans-Serif" font-size="14.00">value = [5166, 2140]</text>
<text text-anchor="middle" x="534" y="-210.2" font-family="Helvetica,sans-Serif" font-size="14.00">class = Animal</text>
</g>
<!-- 1&#45;&gt;6967 -->
<g id="edge9" class="edge">
<title>1&#45;&gt;6967</title>
<path fill="none" stroke="black" d="M534,-332.32C534,-324.42 534,-316.13 534,-307.98"/>
<polygon fill="black" stroke="black" points="537.5,-308.12 534,-298.12 530.5,-308.12 537.5,-308.12"/>
</g>
<!-- 3 -->
<g id="node4" class="node">
<title>3</title>
<path fill="#fefaf7" stroke="black" d="M154,-166.25C154,-166.25 12,-166.25 12,-166.25 6,-166.25 0,-160.25 0,-154.25 0,-154.25 0,-84 0,-84 0,-78 6,-72 12,-72 12,-72 154,-72 154,-72 160,-72 166,-78 166,-84 166,-84 166,-154.25 166,-154.25 166,-160.25 160,-166.25 154,-166.25"/>
<text text-anchor="middle" x="83" y="-148.95" font-family="Helvetica,sans-Serif" font-size="14.00">10_C &lt;= 0.5</text>
<text text-anchor="middle" x="83" y="-131.7" font-family="Helvetica,sans-Serif" font-size="14.00">entropy = 1.0</text>
<text text-anchor="middle" x="83" y="-114.45" font-family="Helvetica,sans-Serif" font-size="14.00">samples = 9553</text>
<text text-anchor="middle" x="83" y="-97.2" font-family="Helvetica,sans-Serif" font-size="14.00">value = [7754, 7428]</text>
<text text-anchor="middle" x="83" y="-79.95" font-family="Helvetica,sans-Serif" font-size="14.00">class = Animal</text>
</g>
<!-- 2&#45;&gt;3 -->
<g id="edge3" class="edge">
<title>2&#45;&gt;3</title>
<path fill="none" stroke="black" d="M200.31,-201.89C186.94,-192.57 172.8,-182.72 159.14,-173.19"/>
<polygon fill="black" stroke="black" points="161.22,-170.38 151.01,-167.53 157.21,-176.12 161.22,-170.38"/>
</g>
<!-- 4954 -->
<g id="node7" class="node">
<title>4954</title>
<path fill="#f4c9aa" stroke="black" d="M338,-166.25C338,-166.25 196,-166.25 196,-166.25 190,-166.25 184,-160.25 184,-154.25 184,-154.25 184,-84 184,-84 184,-78 190,-72 196,-72 196,-72 338,-72 338,-72 344,-72 350,-78 350,-84 350,-84 350,-154.25 350,-154.25 350,-160.25 344,-166.25 338,-166.25"/>
<text text-anchor="middle" x="267" y="-148.95" font-family="Helvetica,sans-Serif" font-size="14.00">1_A &lt;= 0.5</text>
<text text-anchor="middle" x="267" y="-131.7" font-family="Helvetica,sans-Serif" font-size="14.00">entropy = 0.946</text>
<text text-anchor="middle" x="267" y="-114.45" font-family="Helvetica,sans-Serif" font-size="14.00">samples = 3598</text>
<text text-anchor="middle" x="267" y="-97.2" font-family="Helvetica,sans-Serif" font-size="14.00">value = [3646, 2083]</text>
<text text-anchor="middle" x="267" y="-79.95" font-family="Helvetica,sans-Serif" font-size="14.00">class = Animal</text>
</g>
<!-- 2&#45;&gt;4954 -->
<g id="edge6" class="edge">
<title>2&#45;&gt;4954</title>
<path fill="none" stroke="black" d="M267,-202.07C267,-194.17 267,-185.88 267,-177.73"/>
<polygon fill="black" stroke="black" points="270.5,-177.87 267,-167.87 263.5,-177.87 270.5,-177.87"/>
</g>
<!-- 4 -->
<g id="node5" class="node">
<title>4</title>
<path fill="#c0c0c0" stroke="black" d="M62,-36C62,-36 32,-36 32,-36 26,-36 20,-30 20,-24 20,-24 20,-12 20,-12 20,-6 26,0 32,0 32,0 62,0 62,0 68,0 74,-6 74,-12 74,-12 74,-24 74,-24 74,-30 68,-36 62,-36"/>
<text text-anchor="middle" x="47" y="-13.32" font-family="Helvetica,sans-Serif" font-size="14.00">(...)</text>
</g>
<!-- 3&#45;&gt;4 -->
<g id="edge4" class="edge">
<title>3&#45;&gt;4</title>
<path fill="none" stroke="black" d="M66.16,-71.75C63.06,-63.22 59.92,-54.57 57.1,-46.8"/>
<polygon fill="black" stroke="black" points="60.46,-45.8 53.75,-37.6 53.88,-48.19 60.46,-45.8"/>
</g>
<!-- 3823 -->
<g id="node6" class="node">
<title>3823</title>
<path fill="#c0c0c0" stroke="black" d="M134,-36C134,-36 104,-36 104,-36 98,-36 92,-30 92,-24 92,-24 92,-12 92,-12 92,-6 98,0 104,0 104,0 134,0 134,0 140,0 146,-6 146,-12 146,-12 146,-24 146,-24 146,-30 140,-36 134,-36"/>
<text text-anchor="middle" x="119" y="-13.32" font-family="Helvetica,sans-Serif" font-size="14.00">(...)</text>
</g>
<!-- 3&#45;&gt;3823 -->
<g id="edge5" class="edge">
<title>3&#45;&gt;3823</title>
<path fill="none" stroke="black" d="M99.84,-71.75C102.94,-63.22 106.08,-54.57 108.9,-46.8"/>
<polygon fill="black" stroke="black" points="112.12,-48.19 112.25,-37.6 105.54,-45.8 112.12,-48.19"/>
</g>
<!-- 4955 -->
<g id="node8" class="node">
<title>4955</title>
<path fill="#c0c0c0" stroke="black" d="M248,-36C248,-36 218,-36 218,-36 212,-36 206,-30 206,-24 206,-24 206,-12 206,-12 206,-6 212,0 218,0 218,0 248,0 248,0 254,0 260,-6 260,-12 260,-12 260,-24 260,-24 260,-30 254,-36 248,-36"/>
<text text-anchor="middle" x="233" y="-13.32" font-family="Helvetica,sans-Serif" font-size="14.00">(...)</text>
</g>
<!-- 4954&#45;&gt;4955 -->
<g id="edge7" class="edge">
<title>4954&#45;&gt;4955</title>
<path fill="none" stroke="black" d="M251.1,-71.75C248.17,-63.22 245.2,-54.57 242.53,-46.8"/>
<polygon fill="black" stroke="black" points="245.94,-45.93 239.38,-37.6 239.32,-48.2 245.94,-45.93"/>
</g>
<!-- 6146 -->
<g id="node9" class="node">
<title>6146</title>
<path fill="#c0c0c0" stroke="black" d="M320,-36C320,-36 290,-36 290,-36 284,-36 278,-30 278,-24 278,-24 278,-12 278,-12 278,-6 284,0 290,0 290,0 320,0 320,0 326,0 332,-6 332,-12 332,-12 332,-24 332,-24 332,-30 326,-36 320,-36"/>
<text text-anchor="middle" x="305" y="-13.32" font-family="Helvetica,sans-Serif" font-size="14.00">(...)</text>
</g>
<!-- 4954&#45;&gt;6146 -->
<g id="edge8" class="edge">
<title>4954&#45;&gt;6146</title>
<path fill="none" stroke="black" d="M284.78,-71.75C288.05,-63.22 291.37,-54.57 294.34,-46.8"/>
<polygon fill="black" stroke="black" points="297.56,-48.18 297.88,-37.59 291.03,-45.67 297.56,-48.18"/>
</g>
<!-- 6968 -->
<g id="node11" class="node">
<title>6968</title>
<path fill="#eeae7f" stroke="black" d="M522,-166.25C522,-166.25 380,-166.25 380,-166.25 374,-166.25 368,-160.25 368,-154.25 368,-154.25 368,-84 368,-84 368,-78 374,-72 380,-72 380,-72 522,-72 522,-72 528,-72 534,-78 534,-84 534,-84 534,-154.25 534,-154.25 534,-160.25 528,-166.25 522,-166.25"/>
<text text-anchor="middle" x="451" y="-148.95" font-family="Helvetica,sans-Serif" font-size="14.00">1_G &lt;= 0.5</text>
<text text-anchor="middle" x="451" y="-131.7" font-family="Helvetica,sans-Serif" font-size="14.00">entropy = 0.83</text>
<text text-anchor="middle" x="451" y="-114.45" font-family="Helvetica,sans-Serif" font-size="14.00">samples = 3538</text>
<text text-anchor="middle" x="451" y="-97.2" font-family="Helvetica,sans-Serif" font-size="14.00">value = [4076, 1450]</text>
<text text-anchor="middle" x="451" y="-79.95" font-family="Helvetica,sans-Serif" font-size="14.00">class = Animal</text>
</g>
<!-- 6967&#45;&gt;6968 -->
<g id="edge10" class="edge">
<title>6967&#45;&gt;6968</title>
<path fill="none" stroke="black" d="M504.04,-202.07C498.51,-193.54 492.69,-184.54 487.01,-175.77"/>
<polygon fill="black" stroke="black" points="490.11,-174.12 481.74,-167.63 484.24,-177.93 490.11,-174.12"/>
</g>
<!-- 8745 -->
<g id="node14" class="node">
<title>8745</title>
<path fill="#f5d1b6" stroke="black" d="M697.5,-166.25C697.5,-166.25 564.5,-166.25 564.5,-166.25 558.5,-166.25 552.5,-160.25 552.5,-154.25 552.5,-154.25 552.5,-84 552.5,-84 552.5,-78 558.5,-72 564.5,-72 564.5,-72 697.5,-72 697.5,-72 703.5,-72 709.5,-78 709.5,-84 709.5,-84 709.5,-154.25 709.5,-154.25 709.5,-160.25 703.5,-166.25 697.5,-166.25"/>
<text text-anchor="middle" x="631" y="-148.95" font-family="Helvetica,sans-Serif" font-size="14.00">22_A &lt;= 0.5</text>
<text text-anchor="middle" x="631" y="-131.7" font-family="Helvetica,sans-Serif" font-size="14.00">entropy = 0.963</text>
<text text-anchor="middle" x="631" y="-114.45" font-family="Helvetica,sans-Serif" font-size="14.00">samples = 1121</text>
<text text-anchor="middle" x="631" y="-97.2" font-family="Helvetica,sans-Serif" font-size="14.00">value = [1090, 690]</text>
<text text-anchor="middle" x="631" y="-79.95" font-family="Helvetica,sans-Serif" font-size="14.00">class = Animal</text>
</g>
<!-- 6967&#45;&gt;8745 -->
<g id="edge13" class="edge">
<title>6967&#45;&gt;8745</title>
<path fill="none" stroke="black" d="M569.02,-202.07C575.54,-193.45 582.42,-184.35 589.13,-175.49"/>
<polygon fill="black" stroke="black" points="591.88,-177.65 595.12,-167.57 586.3,-173.43 591.88,-177.65"/>
</g>
<!-- 6969 -->
<g id="node12" class="node">
<title>6969</title>
<path fill="#c0c0c0" stroke="black" d="M412,-36C412,-36 382,-36 382,-36 376,-36 370,-30 370,-24 370,-24 370,-12 370,-12 370,-6 376,0 382,0 382,0 412,0 412,0 418,0 424,-6 424,-12 424,-12 424,-24 424,-24 424,-30 418,-36 412,-36"/>
<text text-anchor="middle" x="397" y="-13.32" font-family="Helvetica,sans-Serif" font-size="14.00">(...)</text>
</g>
<!-- 6968&#45;&gt;6969 -->
<g id="edge11" class="edge">
<title>6968&#45;&gt;6969</title>
<path fill="none" stroke="black" d="M425.74,-71.75C420.98,-63.03 416.16,-54.16 411.85,-46.26"/>
<polygon fill="black" stroke="black" points="414.94,-44.61 407.08,-37.5 408.79,-47.96 414.94,-44.61"/>
</g>
<!-- 8300 -->
<g id="node13" class="node">
<title>8300</title>
<path fill="#c0c0c0" stroke="black" d="M484,-36C484,-36 454,-36 454,-36 448,-36 442,-30 442,-24 442,-24 442,-12 442,-12 442,-6 448,0 454,0 454,0 484,0 484,0 490,0 496,-6 496,-12 496,-12 496,-24 496,-24 496,-30 490,-36 484,-36"/>
<text text-anchor="middle" x="469" y="-13.32" font-family="Helvetica,sans-Serif" font-size="14.00">(...)</text>
</g>
<!-- 6968&#45;&gt;8300 -->
<g id="edge12" class="edge">
<title>6968&#45;&gt;8300</title>
<path fill="none" stroke="black" d="M459.42,-71.75C460.93,-63.42 462.47,-54.97 463.85,-47.34"/>
<polygon fill="black" stroke="black" points="467.27,-48.13 465.61,-37.66 460.38,-46.88 467.27,-48.13"/>
</g>
<!-- 8746 -->
<g id="node15" class="node">
<title>8746</title>
<path fill="#c0c0c0" stroke="black" d="M594,-36C594,-36 564,-36 564,-36 558,-36 552,-30 552,-24 552,-24 552,-12 552,-12 552,-6 558,0 564,0 564,0 594,0 594,0 600,0 606,-6 606,-12 606,-12 606,-24 606,-24 606,-30 600,-36 594,-36"/>
<text text-anchor="middle" x="579" y="-13.32" font-family="Helvetica,sans-Serif" font-size="14.00">(...)</text>
</g>
<!-- 8745&#45;&gt;8746 -->
<g id="edge14" class="edge">
<title>8745&#45;&gt;8746</title>
<path fill="none" stroke="black" d="M606.67,-71.75C602.1,-63.03 597.45,-54.16 593.3,-46.26"/>
<polygon fill="black" stroke="black" points="596.46,-44.74 588.71,-37.51 590.26,-47.99 596.46,-44.74"/>
</g>
<!-- 9299 -->
<g id="node16" class="node">
<title>9299</title>
<path fill="#c0c0c0" stroke="black" d="M666,-36C666,-36 636,-36 636,-36 630,-36 624,-30 624,-24 624,-24 624,-12 624,-12 624,-6 630,0 636,0 636,0 666,0 666,0 672,0 678,-6 678,-12 678,-12 678,-24 678,-24 678,-30 672,-36 666,-36"/>
<text text-anchor="middle" x="651" y="-13.32" font-family="Helvetica,sans-Serif" font-size="14.00">(...)</text>
</g>
<!-- 8745&#45;&gt;9299 -->
<g id="edge15" class="edge">
<title>8745&#45;&gt;9299</title>
<path fill="none" stroke="black" d="M640.36,-71.75C642.04,-63.42 643.74,-54.97 645.28,-47.34"/>
<polygon fill="black" stroke="black" points="648.69,-48.15 647.24,-37.66 641.83,-46.77 648.69,-48.15"/>
</g>
<!-- 9365 -->
<g id="node18" class="node">
<title>9365</title>
<path fill="#aed7f4" stroke="black" d="M980,-296.5C980,-296.5 820,-296.5 820,-296.5 814,-296.5 808,-290.5 808,-284.5 808,-284.5 808,-214.25 808,-214.25 808,-208.25 814,-202.25 820,-202.25 820,-202.25 980,-202.25 980,-202.25 986,-202.25 992,-208.25 992,-214.25 992,-214.25 992,-284.5 992,-284.5 992,-290.5 986,-296.5 980,-296.5"/>
<text text-anchor="middle" x="900" y="-279.2" font-family="Helvetica,sans-Serif" font-size="14.00">22_G &lt;= 0.5</text>
<text text-anchor="middle" x="900" y="-261.95" font-family="Helvetica,sans-Serif" font-size="14.00">entropy = 0.952</text>
<text text-anchor="middle" x="900" y="-244.7" font-family="Helvetica,sans-Serif" font-size="14.00">samples = 17782</text>
<text text-anchor="middle" x="900" y="-227.45" font-family="Helvetica,sans-Serif" font-size="14.00">value = [10479, 17686]</text>
<text text-anchor="middle" x="900" y="-210.2" font-family="Helvetica,sans-Serif" font-size="14.00">class = Plant</text>
</g>
<!-- 9364&#45;&gt;9365 -->
<g id="edge17" class="edge">
<title>9364&#45;&gt;9365</title>
<path fill="none" stroke="black" d="M900,-332.32C900,-324.42 900,-316.13 900,-307.98"/>
<polygon fill="black" stroke="black" points="903.5,-308.12 900,-298.12 896.5,-308.12 903.5,-308.12"/>
</g>
<!-- 15634 -->
<g id="node25" class="node">
<title>15634</title>
<path fill="#eb9e66" stroke="black" d="M1240.5,-296.5C1240.5,-296.5 1107.5,-296.5 1107.5,-296.5 1101.5,-296.5 1095.5,-290.5 1095.5,-284.5 1095.5,-284.5 1095.5,-214.25 1095.5,-214.25 1095.5,-208.25 1101.5,-202.25 1107.5,-202.25 1107.5,-202.25 1240.5,-202.25 1240.5,-202.25 1246.5,-202.25 1252.5,-208.25 1252.5,-214.25 1252.5,-214.25 1252.5,-284.5 1252.5,-284.5 1252.5,-290.5 1246.5,-296.5 1240.5,-296.5"/>
<text text-anchor="middle" x="1174" y="-279.2" font-family="Helvetica,sans-Serif" font-size="14.00">10_G &lt;= 0.5</text>
<text text-anchor="middle" x="1174" y="-261.95" font-family="Helvetica,sans-Serif" font-size="14.00">entropy = 0.693</text>
<text text-anchor="middle" x="1174" y="-244.7" font-family="Helvetica,sans-Serif" font-size="14.00">samples = 2516</text>
<text text-anchor="middle" x="1174" y="-227.45" font-family="Helvetica,sans-Serif" font-size="14.00">value = [3226, 737]</text>
<text text-anchor="middle" x="1174" y="-210.2" font-family="Helvetica,sans-Serif" font-size="14.00">class = Animal</text>
</g>
<!-- 9364&#45;&gt;15634 -->
<g id="edge24" class="edge">
<title>9364&#45;&gt;15634</title>
<path fill="none" stroke="black" d="M992.38,-335.38C1022.26,-321.4 1055.32,-305.92 1084.95,-292.05"/>
<polygon fill="black" stroke="black" points="1086.34,-295.27 1093.91,-287.86 1083.37,-288.93 1086.34,-295.27"/>
</g>
<!-- 9366 -->
<g id="node19" class="node">
<title>9366</title>
<path fill="#90c8f0" stroke="black" d="M890.5,-166.25C890.5,-166.25 739.5,-166.25 739.5,-166.25 733.5,-166.25 727.5,-160.25 727.5,-154.25 727.5,-154.25 727.5,-84 727.5,-84 727.5,-78 733.5,-72 739.5,-72 739.5,-72 890.5,-72 890.5,-72 896.5,-72 902.5,-78 902.5,-84 902.5,-84 902.5,-154.25 902.5,-154.25 902.5,-160.25 896.5,-166.25 890.5,-166.25"/>
<text text-anchor="middle" x="815" y="-148.95" font-family="Helvetica,sans-Serif" font-size="14.00">20_G &lt;= 0.5</text>
<text text-anchor="middle" x="815" y="-131.7" font-family="Helvetica,sans-Serif" font-size="14.00">entropy = 0.887</text>
<text text-anchor="middle" x="815" y="-114.45" font-family="Helvetica,sans-Serif" font-size="14.00">samples = 15350</text>
<text text-anchor="middle" x="815" y="-97.2" font-family="Helvetica,sans-Serif" font-size="14.00">value = [7417, 16907]</text>
<text text-anchor="middle" x="815" y="-79.95" font-family="Helvetica,sans-Serif" font-size="14.00">class = Plant</text>
</g>
<!-- 9365&#45;&gt;9366 -->
<g id="edge18" class="edge">
<title>9365&#45;&gt;9366</title>
<path fill="none" stroke="black" d="M869.31,-202.07C863.66,-193.54 857.7,-184.54 851.88,-175.77"/>
<polygon fill="black" stroke="black" points="854.92,-174.02 846.48,-167.62 849.09,-177.89 854.92,-174.02"/>
</g>
<!-- 14807 -->
<g id="node22" class="node">
<title>14807</title>
<path fill="#eca16b" stroke="black" d="M1065.5,-166.25C1065.5,-166.25 932.5,-166.25 932.5,-166.25 926.5,-166.25 920.5,-160.25 920.5,-154.25 920.5,-154.25 920.5,-84 920.5,-84 920.5,-78 926.5,-72 932.5,-72 932.5,-72 1065.5,-72 1065.5,-72 1071.5,-72 1077.5,-78 1077.5,-84 1077.5,-84 1077.5,-154.25 1077.5,-154.25 1077.5,-160.25 1071.5,-166.25 1065.5,-166.25"/>
<text text-anchor="middle" x="999" y="-148.95" font-family="Helvetica,sans-Serif" font-size="14.00">8_G &lt;= 0.5</text>
<text text-anchor="middle" x="999" y="-131.7" font-family="Helvetica,sans-Serif" font-size="14.00">entropy = 0.728</text>
<text text-anchor="middle" x="999" y="-114.45" font-family="Helvetica,sans-Serif" font-size="14.00">samples = 2432</text>
<text text-anchor="middle" x="999" y="-97.2" font-family="Helvetica,sans-Serif" font-size="14.00">value = [3062, 779]</text>
<text text-anchor="middle" x="999" y="-79.95" font-family="Helvetica,sans-Serif" font-size="14.00">class = Animal</text>
</g>
<!-- 9365&#45;&gt;14807 -->
<g id="edge21" class="edge">
<title>9365&#45;&gt;14807</title>
<path fill="none" stroke="black" d="M935.74,-202.07C942.47,-193.36 949.57,-184.16 956.48,-175.21"/>
<polygon fill="black" stroke="black" points="959.05,-177.61 962.39,-167.56 953.51,-173.33 959.05,-177.61"/>
</g>
<!-- 9367 -->
<g id="node20" class="node">
<title>9367</title>
<path fill="#c0c0c0" stroke="black" d="M778,-36C778,-36 748,-36 748,-36 742,-36 736,-30 736,-24 736,-24 736,-12 736,-12 736,-6 742,0 748,0 748,0 778,0 778,0 784,0 790,-6 790,-12 790,-12 790,-24 790,-24 790,-30 784,-36 778,-36"/>
<text text-anchor="middle" x="763" y="-13.32" font-family="Helvetica,sans-Serif" font-size="14.00">(...)</text>
</g>
<!-- 9366&#45;&gt;9367 -->
<g id="edge19" class="edge">
<title>9366&#45;&gt;9367</title>
<path fill="none" stroke="black" d="M790.67,-71.75C786.1,-63.03 781.45,-54.16 777.3,-46.26"/>
<polygon fill="black" stroke="black" points="780.46,-44.74 772.71,-37.51 774.26,-47.99 780.46,-44.74"/>
</g>
<!-- 13414 -->
<g id="node21" class="node">
<title>13414</title>
<path fill="#c0c0c0" stroke="black" d="M850,-36C850,-36 820,-36 820,-36 814,-36 808,-30 808,-24 808,-24 808,-12 808,-12 808,-6 814,0 820,0 820,0 850,0 850,0 856,0 862,-6 862,-12 862,-12 862,-24 862,-24 862,-30 856,-36 850,-36"/>
<text text-anchor="middle" x="835" y="-13.32" font-family="Helvetica,sans-Serif" font-size="14.00">(...)</text>
</g>
<!-- 9366&#45;&gt;13414 -->
<g id="edge20" class="edge">
<title>9366&#45;&gt;13414</title>
<path fill="none" stroke="black" d="M824.36,-71.75C826.04,-63.42 827.74,-54.97 829.28,-47.34"/>
<polygon fill="black" stroke="black" points="832.69,-48.15 831.24,-37.66 825.83,-46.77 832.69,-48.15"/>
</g>
<!-- 14808 -->
<g id="node23" class="node">
<title>14808</title>
<path fill="#c0c0c0" stroke="black" d="M957,-36C957,-36 927,-36 927,-36 921,-36 915,-30 915,-24 915,-24 915,-12 915,-12 915,-6 921,0 927,0 927,0 957,0 957,0 963,0 969,-6 969,-12 969,-12 969,-24 969,-24 969,-30 963,-36 957,-36"/>
<text text-anchor="middle" x="942" y="-13.32" font-family="Helvetica,sans-Serif" font-size="14.00">(...)</text>
</g>
<!-- 14807&#45;&gt;14808 -->
<g id="edge22" class="edge">
<title>14807&#45;&gt;14808</title>
<path fill="none" stroke="black" d="M972.34,-71.75C967.26,-62.93 962.1,-53.96 957.52,-45.99"/>
<polygon fill="black" stroke="black" points="960.65,-44.41 952.63,-37.48 954.58,-47.9 960.65,-44.41"/>
</g>
<!-- 15395 -->
<g id="node24" class="node">
<title>15395</title>
<path fill="#c0c0c0" stroke="black" d="M1029,-36C1029,-36 999,-36 999,-36 993,-36 987,-30 987,-24 987,-24 987,-12 987,-12 987,-6 993,0 999,0 999,0 1029,0 1029,0 1035,0 1041,-6 1041,-12 1041,-12 1041,-24 1041,-24 1041,-30 1035,-36 1029,-36"/>
<text text-anchor="middle" x="1014" y="-13.32" font-family="Helvetica,sans-Serif" font-size="14.00">(...)</text>
</g>
<!-- 14807&#45;&gt;15395 -->
<g id="edge23" class="edge">
<title>14807&#45;&gt;15395</title>
<path fill="none" stroke="black" d="M1006.02,-71.75C1007.28,-63.42 1008.56,-54.97 1009.71,-47.34"/>
<polygon fill="black" stroke="black" points="1013.14,-48.08 1011.17,-37.67 1006.22,-47.03 1013.14,-48.08"/>
</g>
<!-- 15635 -->
<g id="node26" class="node">
<title>15635</title>
<path fill="#ea9a60" stroke="black" d="M1240.5,-166.25C1240.5,-166.25 1107.5,-166.25 1107.5,-166.25 1101.5,-166.25 1095.5,-160.25 1095.5,-154.25 1095.5,-154.25 1095.5,-84 1095.5,-84 1095.5,-78 1101.5,-72 1107.5,-72 1107.5,-72 1240.5,-72 1240.5,-72 1246.5,-72 1252.5,-78 1252.5,-84 1252.5,-84 1252.5,-154.25 1252.5,-154.25 1252.5,-160.25 1246.5,-166.25 1240.5,-166.25"/>
<text text-anchor="middle" x="1174" y="-148.95" font-family="Helvetica,sans-Serif" font-size="14.00">13_U &lt;= 0.5</text>
<text text-anchor="middle" x="1174" y="-131.7" font-family="Helvetica,sans-Serif" font-size="14.00">entropy = 0.648</text>
<text text-anchor="middle" x="1174" y="-114.45" font-family="Helvetica,sans-Serif" font-size="14.00">samples = 1919</text>
<text text-anchor="middle" x="1174" y="-97.2" font-family="Helvetica,sans-Serif" font-size="14.00">value = [2507, 499]</text>
<text text-anchor="middle" x="1174" y="-79.95" font-family="Helvetica,sans-Serif" font-size="14.00">class = Animal</text>
</g>
<!-- 15634&#45;&gt;15635 -->
<g id="edge25" class="edge">
<title>15634&#45;&gt;15635</title>
<path fill="none" stroke="black" d="M1174,-202.07C1174,-194.17 1174,-185.88 1174,-177.73"/>
<polygon fill="black" stroke="black" points="1177.5,-177.87 1174,-167.87 1170.5,-177.87 1177.5,-177.87"/>
</g>
<!-- 16368 -->
<g id="node29" class="node">
<title>16368</title>
<path fill="#eeab7b" stroke="black" d="M1407,-166.25C1407,-166.25 1283,-166.25 1283,-166.25 1277,-166.25 1271,-160.25 1271,-154.25 1271,-154.25 1271,-84 1271,-84 1271,-78 1277,-72 1283,-72 1283,-72 1407,-72 1407,-72 1413,-72 1419,-78 1419,-84 1419,-84 1419,-154.25 1419,-154.25 1419,-160.25 1413,-166.25 1407,-166.25"/>
<text text-anchor="middle" x="1345" y="-148.95" font-family="Helvetica,sans-Serif" font-size="14.00">23_G &lt;= 0.5</text>
<text text-anchor="middle" x="1345" y="-131.7" font-family="Helvetica,sans-Serif" font-size="14.00">entropy = 0.809</text>
<text text-anchor="middle" x="1345" y="-114.45" font-family="Helvetica,sans-Serif" font-size="14.00">samples = 597</text>
<text text-anchor="middle" x="1345" y="-97.2" font-family="Helvetica,sans-Serif" font-size="14.00">value = [719, 238]</text>
<text text-anchor="middle" x="1345" y="-79.95" font-family="Helvetica,sans-Serif" font-size="14.00">class = Animal</text>
</g>
<!-- 15634&#45;&gt;16368 -->
<g id="edge28" class="edge">
<title>15634&#45;&gt;16368</title>
<path fill="none" stroke="black" d="M1235.73,-202.07C1248.13,-192.78 1261.25,-182.94 1273.93,-173.43"/>
<polygon fill="black" stroke="black" points="1275.96,-176.28 1281.86,-167.48 1271.76,-170.68 1275.96,-176.28"/>
</g>
<!-- 15636 -->
<g id="node27" class="node">
<title>15636</title>
<path fill="#c0c0c0" stroke="black" d="M1148,-36C1148,-36 1118,-36 1118,-36 1112,-36 1106,-30 1106,-24 1106,-24 1106,-12 1106,-12 1106,-6 1112,0 1118,0 1118,0 1148,0 1148,0 1154,0 1160,-6 1160,-12 1160,-12 1160,-24 1160,-24 1160,-30 1154,-36 1148,-36"/>
<text text-anchor="middle" x="1133" y="-13.32" font-family="Helvetica,sans-Serif" font-size="14.00">(...)</text>
</g>
<!-- 15635&#45;&gt;15636 -->
<g id="edge26" class="edge">
<title>15635&#45;&gt;15636</title>
<path fill="none" stroke="black" d="M1154.82,-71.75C1151.29,-63.22 1147.71,-54.57 1144.5,-46.8"/>
<polygon fill="black" stroke="black" points="1147.74,-45.47 1140.68,-37.57 1141.27,-48.15 1147.74,-45.47"/>
</g>
<!-- 16159 -->
<g id="node28" class="node">
<title>16159</title>
<path fill="#c0c0c0" stroke="black" d="M1220,-36C1220,-36 1190,-36 1190,-36 1184,-36 1178,-30 1178,-24 1178,-24 1178,-12 1178,-12 1178,-6 1184,0 1190,0 1190,0 1220,0 1220,0 1226,0 1232,-6 1232,-12 1232,-12 1232,-24 1232,-24 1232,-30 1226,-36 1220,-36"/>
<text text-anchor="middle" x="1205" y="-13.32" font-family="Helvetica,sans-Serif" font-size="14.00">(...)</text>
</g>
<!-- 15635&#45;&gt;16159 -->
<g id="edge27" class="edge">
<title>15635&#45;&gt;16159</title>
<path fill="none" stroke="black" d="M1188.5,-71.75C1191.14,-63.32 1193.81,-54.77 1196.22,-47.07"/>
<polygon fill="black" stroke="black" points="1199.53,-48.21 1199.18,-37.62 1192.85,-46.12 1199.53,-48.21"/>
</g>
<!-- 16369 -->
<g id="node30" class="node">
<title>16369</title>
<path fill="#c0c0c0" stroke="black" d="M1324,-36C1324,-36 1294,-36 1294,-36 1288,-36 1282,-30 1282,-24 1282,-24 1282,-12 1282,-12 1282,-6 1288,0 1294,0 1294,0 1324,0 1324,0 1330,0 1336,-6 1336,-12 1336,-12 1336,-24 1336,-24 1336,-30 1330,-36 1324,-36"/>
<text text-anchor="middle" x="1309" y="-13.32" font-family="Helvetica,sans-Serif" font-size="14.00">(...)</text>
</g>
<!-- 16368&#45;&gt;16369 -->
<g id="edge29" class="edge">
<title>16368&#45;&gt;16369</title>
<path fill="none" stroke="black" d="M1328.16,-71.75C1325.06,-63.22 1321.92,-54.57 1319.1,-46.8"/>
<polygon fill="black" stroke="black" points="1322.46,-45.8 1315.75,-37.6 1315.88,-48.19 1322.46,-45.8"/>
</g>
<!-- 16574 -->
<g id="node31" class="node">
<title>16574</title>
<path fill="#c0c0c0" stroke="black" d="M1396,-36C1396,-36 1366,-36 1366,-36 1360,-36 1354,-30 1354,-24 1354,-24 1354,-12 1354,-12 1354,-6 1360,0 1366,0 1366,0 1396,0 1396,0 1402,0 1408,-6 1408,-12 1408,-12 1408,-24 1408,-24 1408,-30 1402,-36 1396,-36"/>
<text text-anchor="middle" x="1381" y="-13.32" font-family="Helvetica,sans-Serif" font-size="14.00">(...)</text>
</g>
<!-- 16368&#45;&gt;16574 -->
<g id="edge30" class="edge">
<title>16368&#45;&gt;16574</title>
<path fill="none" stroke="black" d="M1361.84,-71.75C1364.94,-63.22 1368.08,-54.57 1370.9,-46.8"/>
<polygon fill="black" stroke="black" points="1374.12,-48.19 1374.25,-37.6 1367.54,-45.8 1374.12,-48.19"/>
</g>
</g>
</svg>
