<?xml version="1.0" encoding="UTF-8" standalone="no"?>
<!DOCTYPE svg PUBLIC "-//W3C//DTD SVG 1.1//EN"
 "http://www.w3.org/Graphics/SVG/1.1/DTD/svg11.dtd">
<!-- Generated by graphviz version 12.0.0 (20240803.0821)
 -->
<!-- Title: Tree Pages: 1 -->
<svg width="1428pt" height="565pt"
 viewBox="0.00 0.00 1428.00 565.00" xmlns="http://www.w3.org/2000/svg" xmlns:xlink="http://www.w3.org/1999/xlink">
<g id="graph0" class="graph" transform="scale(1 1) rotate(0) translate(4 561)">
<title>Tree</title>
<polygon fill="white" stroke="none" points="-4,4 -4,-561 1424,-561 1424,4 -4,4"/>
<!-- 0 -->
<g id="node1" class="node">
<title>0</title>
<path fill="#fffffe" stroke="black" d="M809,-557C809,-557 649,-557 649,-557 643,-557 637,-551 637,-545 637,-545 637,-474.75 637,-474.75 637,-468.75 643,-462.75 649,-462.75 649,-462.75 809,-462.75 809,-462.75 815,-462.75 821,-468.75 821,-474.75 821,-474.75 821,-545 821,-545 821,-551 815,-557 809,-557"/>
<text text-anchor="middle" x="729" y="-539.7" font-family="Helvetica,sans-Serif" font-size="14.00">8_G &lt;= 0.5</text>
<text text-anchor="middle" x="729" y="-522.45" font-family="Helvetica,sans-Serif" font-size="14.00">entropy = 1.0</text>
<text text-anchor="middle" x="729" y="-505.2" font-family="Helvetica,sans-Serif" font-size="14.00">samples = 38055</text>
<text text-anchor="middle" x="729" y="-487.95" font-family="Helvetica,sans-Serif" font-size="14.00">value = [30219, 30126]</text>
<text text-anchor="middle" x="729" y="-470.7" font-family="Helvetica,sans-Serif" font-size="14.00">class = Animal</text>
</g>
<!-- 1 -->
<g id="node2" class="node">
<title>1</title>
<path fill="#fae7d9" stroke="black" d="M634,-426.75C634,-426.75 474,-426.75 474,-426.75 468,-426.75 462,-420.75 462,-414.75 462,-414.75 462,-344.5 462,-344.5 462,-338.5 468,-332.5 474,-332.5 474,-332.5 634,-332.5 634,-332.5 640,-332.5 646,-338.5 646,-344.5 646,-344.5 646,-414.75 646,-414.75 646,-420.75 640,-426.75 634,-426.75"/>
<text text-anchor="middle" x="554" y="-409.45" font-family="Helvetica,sans-Serif" font-size="14.00">18_C &lt;= 0.5</text>
<text text-anchor="middle" x="554" y="-392.2" font-family="Helvetica,sans-Serif" font-size="14.00">entropy = 0.992</text>
<text text-anchor="middle" x="554" y="-374.95" font-family="Helvetica,sans-Serif" font-size="14.00">samples = 26232</text>
<text text-anchor="middle" x="554" y="-357.7" font-family="Helvetica,sans-Serif" font-size="14.00">value = [22981, 18566]</text>
<text text-anchor="middle" x="554" y="-340.45" font-family="Helvetica,sans-Serif" font-size="14.00">class = Animal</text>
</g>
<!-- 0&#45;&gt;1 -->
<g id="edge1" class="edge">
<title>0&#45;&gt;1</title>
<path fill="none" stroke="black" d="M665.82,-462.57C653.01,-453.19 639.45,-443.25 626.36,-433.65"/>
<polygon fill="black" stroke="black" points="628.74,-431.06 618.6,-427.97 624.6,-436.7 628.74,-431.06"/>
<text text-anchor="middle" x="621.19" y="-447.11" font-family="Helvetica,sans-Serif" font-size="14.00">True</text>
</g>
<!-- 12134 -->
<g id="node17" class="node">
<title>12134</title>
<path fill="#b5daf5" stroke="black" d="M991.5,-426.75C991.5,-426.75 840.5,-426.75 840.5,-426.75 834.5,-426.75 828.5,-420.75 828.5,-414.75 828.5,-414.75 828.5,-344.5 828.5,-344.5 828.5,-338.5 834.5,-332.5 840.5,-332.5 840.5,-332.5 991.5,-332.5 991.5,-332.5 997.5,-332.5 1003.5,-338.5 1003.5,-344.5 1003.5,-344.5 1003.5,-414.75 1003.5,-414.75 1003.5,-420.75 997.5,-426.75 991.5,-426.75"/>
<text text-anchor="middle" x="916" y="-409.45" font-family="Helvetica,sans-Serif" font-size="14.00">23_U &lt;= 0.5</text>
<text text-anchor="middle" x="916" y="-392.2" font-family="Helvetica,sans-Serif" font-size="14.00">entropy = 0.962</text>
<text text-anchor="middle" x="916" y="-374.95" font-family="Helvetica,sans-Serif" font-size="14.00">samples = 11823</text>
<text text-anchor="middle" x="916" y="-357.7" font-family="Helvetica,sans-Serif" font-size="14.00">value = [7238, 11560]</text>
<text text-anchor="middle" x="916" y="-340.45" font-family="Helvetica,sans-Serif" font-size="14.00">class = Plant</text>
</g>
<!-- 0&#45;&gt;12134 -->
<g id="edge16" class="edge">
<title>0&#45;&gt;12134</title>
<path fill="none" stroke="black" d="M796.78,-462.39C810.49,-452.98 825.01,-443.03 839.02,-433.42"/>
<polygon fill="black" stroke="black" points="840.63,-436.56 846.89,-428.02 836.67,-430.79 840.63,-436.56"/>
<text text-anchor="middle" x="843.56" y="-447.07" font-family="Helvetica,sans-Serif" font-size="14.00">False</text>
</g>
<!-- 2 -->
<g id="node3" class="node">
<title>2</title>
<path fill="#f8dbc7" stroke="black" d="M365,-296.5C365,-296.5 205,-296.5 205,-296.5 199,-296.5 193,-290.5 193,-284.5 193,-284.5 193,-214.25 193,-214.25 193,-208.25 199,-202.25 205,-202.25 205,-202.25 365,-202.25 365,-202.25 371,-202.25 377,-208.25 377,-214.25 377,-214.25 377,-284.5 377,-284.5 377,-290.5 371,-296.5 365,-296.5"/>
<text text-anchor="middle" x="285" y="-279.2" font-family="Helvetica,sans-Serif" font-size="14.00">6_U &lt;= 0.5</text>
<text text-anchor="middle" x="285" y="-261.95" font-family="Helvetica,sans-Serif" font-size="14.00">entropy = 0.98</text>
<text text-anchor="middle" x="285" y="-244.7" font-family="Helvetica,sans-Serif" font-size="14.00">samples = 19457</text>
<text text-anchor="middle" x="285" y="-227.45" font-family="Helvetica,sans-Serif" font-size="14.00">value = [17972, 12849]</text>
<text text-anchor="middle" x="285" y="-210.2" font-family="Helvetica,sans-Serif" font-size="14.00">class = Animal</text>
</g>
<!-- 1&#45;&gt;2 -->
<g id="edge2" class="edge">
<title>1&#45;&gt;2</title>
<path fill="none" stroke="black" d="M461.8,-334.67C437.85,-323.25 411.9,-310.88 387.45,-299.22"/>
<polygon fill="black" stroke="black" points="388.98,-296.07 378.44,-294.93 385.96,-302.39 388.98,-296.07"/>
</g>
<!-- 9473 -->
<g id="node10" class="node">
<title>9473</title>
<path fill="#e6f3fc" stroke="black" d="M625,-296.5C625,-296.5 483,-296.5 483,-296.5 477,-296.5 471,-290.5 471,-284.5 471,-284.5 471,-214.25 471,-214.25 471,-208.25 477,-202.25 483,-202.25 483,-202.25 625,-202.25 625,-202.25 631,-202.25 637,-208.25 637,-214.25 637,-214.25 637,-284.5 637,-284.5 637,-290.5 631,-296.5 625,-296.5"/>
<text text-anchor="middle" x="554" y="-279.2" font-family="Helvetica,sans-Serif" font-size="14.00">22_U &lt;= 0.5</text>
<text text-anchor="middle" x="554" y="-261.95" font-family="Helvetica,sans-Serif" font-size="14.00">entropy = 0.997</text>
<text text-anchor="middle" x="554" y="-244.7" font-family="Helvetica,sans-Serif" font-size="14.00">samples = 6775</text>
<text text-anchor="middle" x="554" y="-227.45" font-family="Helvetica,sans-Serif" font-size="14.00">value = [5009, 5717]</text>
<text text-anchor="middle" x="554" y="-210.2" font-family="Helvetica,sans-Serif" font-size="14.00">class = Plant</text>
</g>
<!-- 1&#45;&gt;9473 -->
<g id="edge9" class="edge">
<title>1&#45;&gt;9473</title>
<path fill="none" stroke="black" d="M554,-332.32C554,-324.42 554,-316.13 554,-307.98"/>
<polygon fill="black" stroke="black" points="557.5,-308.12 554,-298.12 550.5,-308.12 557.5,-308.12"/>
</g>
<!-- 3 -->
<g id="node4" class="node">
<title>3</title>
<path fill="#f9e3d4" stroke="black" d="M172,-166.25C172,-166.25 12,-166.25 12,-166.25 6,-166.25 0,-160.25 0,-154.25 0,-154.25 0,-84 0,-84 0,-78 6,-72 12,-72 12,-72 172,-72 172,-72 178,-72 184,-78 184,-84 184,-84 184,-154.25 184,-154.25 184,-160.25 178,-166.25 172,-166.25"/>
<text text-anchor="middle" x="92" y="-148.95" font-family="Helvetica,sans-Serif" font-size="14.00">22_A &lt;= 0.5</text>
<text text-anchor="middle" x="92" y="-131.7" font-family="Helvetica,sans-Serif" font-size="14.00">entropy = 0.989</text>
<text text-anchor="middle" x="92" y="-114.45" font-family="Helvetica,sans-Serif" font-size="14.00">samples = 14653</text>
<text text-anchor="middle" x="92" y="-97.2" font-family="Helvetica,sans-Serif" font-size="14.00">value = [13043, 10186]</text>
<text text-anchor="middle" x="92" y="-79.95" font-family="Helvetica,sans-Serif" font-size="14.00">class = Animal</text>
</g>
<!-- 2&#45;&gt;3 -->
<g id="edge3" class="edge">
<title>2&#45;&gt;3</title>
<path fill="none" stroke="black" d="M215.05,-201.89C200.89,-192.48 185.9,-182.53 171.45,-172.92"/>
<polygon fill="black" stroke="black" points="173.56,-170.12 163.3,-167.5 169.69,-175.95 173.56,-170.12"/>
</g>
<!-- 7048 -->
<g id="node7" class="node">
<title>7048</title>
<path fill="#f3c5a4" stroke="black" d="M356,-166.25C356,-166.25 214,-166.25 214,-166.25 208,-166.25 202,-160.25 202,-154.25 202,-154.25 202,-84 202,-84 202,-78 208,-72 214,-72 214,-72 356,-72 356,-72 362,-72 368,-78 368,-84 368,-84 368,-154.25 368,-154.25 368,-160.25 362,-166.25 356,-166.25"/>
<text text-anchor="middle" x="285" y="-148.95" font-family="Helvetica,sans-Serif" font-size="14.00">1_U &lt;= 0.5</text>
<text text-anchor="middle" x="285" y="-131.7" font-family="Helvetica,sans-Serif" font-size="14.00">entropy = 0.935</text>
<text text-anchor="middle" x="285" y="-114.45" font-family="Helvetica,sans-Serif" font-size="14.00">samples = 4804</text>
<text text-anchor="middle" x="285" y="-97.2" font-family="Helvetica,sans-Serif" font-size="14.00">value = [4929, 2663]</text>
<text text-anchor="middle" x="285" y="-79.95" font-family="Helvetica,sans-Serif" font-size="14.00">class = Animal</text>
</g>
<!-- 2&#45;&gt;7048 -->
<g id="edge6" class="edge">
<title>2&#45;&gt;7048</title>
<path fill="none" stroke="black" d="M285,-202.07C285,-194.17 285,-185.88 285,-177.73"/>
<polygon fill="black" stroke="black" points="288.5,-177.87 285,-167.87 281.5,-177.87 288.5,-177.87"/>
</g>
<!-- 4 -->
<g id="node5" class="node">
<title>4</title>
<path fill="#c0c0c0" stroke="black" d="M71,-36C71,-36 41,-36 41,-36 35,-36 29,-30 29,-24 29,-24 29,-12 29,-12 29,-6 35,0 41,0 41,0 71,0 71,0 77,0 83,-6 83,-12 83,-12 83,-24 83,-24 83,-30 77,-36 71,-36"/>
<text text-anchor="middle" x="56" y="-13.32" font-family="Helvetica,sans-Serif" font-size="14.00">(...)</text>
</g>
<!-- 3&#45;&gt;4 -->
<g id="edge4" class="edge">
<title>3&#45;&gt;4</title>
<path fill="none" stroke="black" d="M75.16,-71.75C72.06,-63.22 68.92,-54.57 66.1,-46.8"/>
<polygon fill="black" stroke="black" points="69.46,-45.8 62.75,-37.6 62.88,-48.19 69.46,-45.8"/>
</g>
<!-- 6331 -->
<g id="node6" class="node">
<title>6331</title>
<path fill="#c0c0c0" stroke="black" d="M143,-36C143,-36 113,-36 113,-36 107,-36 101,-30 101,-24 101,-24 101,-12 101,-12 101,-6 107,0 113,0 113,0 143,0 143,0 149,0 155,-6 155,-12 155,-12 155,-24 155,-24 155,-30 149,-36 143,-36"/>
<text text-anchor="middle" x="128" y="-13.32" font-family="Helvetica,sans-Serif" font-size="14.00">(...)</text>
</g>
<!-- 3&#45;&gt;6331 -->
<g id="edge5" class="edge">
<title>3&#45;&gt;6331</title>
<path fill="none" stroke="black" d="M108.84,-71.75C111.94,-63.22 115.08,-54.57 117.9,-46.8"/>
<polygon fill="black" stroke="black" points="121.12,-48.19 121.25,-37.6 114.54,-45.8 121.12,-48.19"/>
</g>
<!-- 7049 -->
<g id="node8" class="node">
<title>7049</title>
<path fill="#c0c0c0" stroke="black" d="M266,-36C266,-36 236,-36 236,-36 230,-36 224,-30 224,-24 224,-24 224,-12 224,-12 224,-6 230,0 236,0 236,0 266,0 266,0 272,0 278,-6 278,-12 278,-12 278,-24 278,-24 278,-30 272,-36 266,-36"/>
<text text-anchor="middle" x="251" y="-13.32" font-family="Helvetica,sans-Serif" font-size="14.00">(...)</text>
</g>
<!-- 7048&#45;&gt;7049 -->
<g id="edge7" class="edge">
<title>7048&#45;&gt;7049</title>
<path fill="none" stroke="black" d="M269.1,-71.75C266.17,-63.22 263.2,-54.57 260.53,-46.8"/>
<polygon fill="black" stroke="black" points="263.94,-45.93 257.38,-37.6 257.32,-48.2 263.94,-45.93"/>
</g>
<!-- 8440 -->
<g id="node9" class="node">
<title>8440</title>
<path fill="#c0c0c0" stroke="black" d="M338,-36C338,-36 308,-36 308,-36 302,-36 296,-30 296,-24 296,-24 296,-12 296,-12 296,-6 302,0 308,0 308,0 338,0 338,0 344,0 350,-6 350,-12 350,-12 350,-24 350,-24 350,-30 344,-36 338,-36"/>
<text text-anchor="middle" x="323" y="-13.32" font-family="Helvetica,sans-Serif" font-size="14.00">(...)</text>
</g>
<!-- 7048&#45;&gt;8440 -->
<g id="edge8" class="edge">
<title>7048&#45;&gt;8440</title>
<path fill="none" stroke="black" d="M302.78,-71.75C306.05,-63.22 309.37,-54.57 312.34,-46.8"/>
<polygon fill="black" stroke="black" points="315.56,-48.18 315.88,-37.59 309.03,-45.67 315.56,-48.18"/>
</g>
<!-- 9474 -->
<g id="node11" class="node">
<title>9474</title>
<path fill="#c8e4f8" stroke="black" d="M540,-166.25C540,-166.25 398,-166.25 398,-166.25 392,-166.25 386,-160.25 386,-154.25 386,-154.25 386,-84 386,-84 386,-78 392,-72 398,-72 398,-72 540,-72 540,-72 546,-72 552,-78 552,-84 552,-84 552,-154.25 552,-154.25 552,-160.25 546,-166.25 540,-166.25"/>
<text text-anchor="middle" x="469" y="-148.95" font-family="Helvetica,sans-Serif" font-size="14.00">2_A &lt;= 0.5</text>
<text text-anchor="middle" x="469" y="-131.7" font-family="Helvetica,sans-Serif" font-size="14.00">entropy = 0.981</text>
<text text-anchor="middle" x="469" y="-114.45" font-family="Helvetica,sans-Serif" font-size="14.00">samples = 5883</text>
<text text-anchor="middle" x="469" y="-97.2" font-family="Helvetica,sans-Serif" font-size="14.00">value = [3897, 5406]</text>
<text text-anchor="middle" x="469" y="-79.95" font-family="Helvetica,sans-Serif" font-size="14.00">class = Plant</text>
</g>
<!-- 9473&#45;&gt;9474 -->
<g id="edge10" class="edge">
<title>9473&#45;&gt;9474</title>
<path fill="none" stroke="black" d="M523.31,-202.07C517.66,-193.54 511.7,-184.54 505.88,-175.77"/>
<polygon fill="black" stroke="black" points="508.92,-174.02 500.48,-167.62 503.09,-177.89 508.92,-174.02"/>
</g>
<!-- 11837 -->
<g id="node14" class="node">
<title>11837</title>
<path fill="#eca470" stroke="black" d="M715.5,-166.25C715.5,-166.25 582.5,-166.25 582.5,-166.25 576.5,-166.25 570.5,-160.25 570.5,-154.25 570.5,-154.25 570.5,-84 570.5,-84 570.5,-78 576.5,-72 582.5,-72 582.5,-72 715.5,-72 715.5,-72 721.5,-72 727.5,-78 727.5,-84 727.5,-84 727.5,-154.25 727.5,-154.25 727.5,-160.25 721.5,-166.25 715.5,-166.25"/>
<text text-anchor="middle" x="649" y="-148.95" font-family="Helvetica,sans-Serif" font-size="14.00">9_G &lt;= 0.5</text>
<text text-anchor="middle" x="649" y="-131.7" font-family="Helvetica,sans-Serif" font-size="14.00">entropy = 0.758</text>
<text text-anchor="middle" x="649" y="-114.45" font-family="Helvetica,sans-Serif" font-size="14.00">samples = 892</text>
<text text-anchor="middle" x="649" y="-97.2" font-family="Helvetica,sans-Serif" font-size="14.00">value = [1112, 311]</text>
<text text-anchor="middle" x="649" y="-79.95" font-family="Helvetica,sans-Serif" font-size="14.00">class = Animal</text>
</g>
<!-- 9473&#45;&gt;11837 -->
<g id="edge13" class="edge">
<title>9473&#45;&gt;11837</title>
<path fill="none" stroke="black" d="M588.3,-202.07C594.69,-193.45 601.42,-184.35 607.99,-175.49"/>
<polygon fill="black" stroke="black" points="610.71,-177.69 613.85,-167.57 605.09,-173.53 610.71,-177.69"/>
</g>
<!-- 9475 -->
<g id="node12" class="node">
<title>9475</title>
<path fill="#c0c0c0" stroke="black" d="M430,-36C430,-36 400,-36 400,-36 394,-36 388,-30 388,-24 388,-24 388,-12 388,-12 388,-6 394,0 400,0 400,0 430,0 430,0 436,0 442,-6 442,-12 442,-12 442,-24 442,-24 442,-30 436,-36 430,-36"/>
<text text-anchor="middle" x="415" y="-13.32" font-family="Helvetica,sans-Serif" font-size="14.00">(...)</text>
</g>
<!-- 9474&#45;&gt;9475 -->
<g id="edge11" class="edge">
<title>9474&#45;&gt;9475</title>
<path fill="none" stroke="black" d="M443.74,-71.75C438.98,-63.03 434.16,-54.16 429.85,-46.26"/>
<polygon fill="black" stroke="black" points="432.94,-44.61 425.08,-37.5 426.79,-47.96 432.94,-44.61"/>
</g>
<!-- 11270 -->
<g id="node13" class="node">
<title>11270</title>
<path fill="#c0c0c0" stroke="black" d="M502,-36C502,-36 472,-36 472,-36 466,-36 460,-30 460,-24 460,-24 460,-12 460,-12 460,-6 466,0 472,0 472,0 502,0 502,0 508,0 514,-6 514,-12 514,-12 514,-24 514,-24 514,-30 508,-36 502,-36"/>
<text text-anchor="middle" x="487" y="-13.32" font-family="Helvetica,sans-Serif" font-size="14.00">(...)</text>
</g>
<!-- 9474&#45;&gt;11270 -->
<g id="edge12" class="edge">
<title>9474&#45;&gt;11270</title>
<path fill="none" stroke="black" d="M477.42,-71.75C478.93,-63.42 480.47,-54.97 481.85,-47.34"/>
<polygon fill="black" stroke="black" points="485.27,-48.13 483.61,-37.66 478.38,-46.88 485.27,-48.13"/>
</g>
<!-- 11838 -->
<g id="node15" class="node">
<title>11838</title>
<path fill="#c0c0c0" stroke="black" d="M610,-36C610,-36 580,-36 580,-36 574,-36 568,-30 568,-24 568,-24 568,-12 568,-12 568,-6 574,0 580,0 580,0 610,0 610,0 616,0 622,-6 622,-12 622,-12 622,-24 622,-24 622,-30 616,-36 610,-36"/>
<text text-anchor="middle" x="595" y="-13.32" font-family="Helvetica,sans-Serif" font-size="14.00">(...)</text>
</g>
<!-- 11837&#45;&gt;11838 -->
<g id="edge14" class="edge">
<title>11837&#45;&gt;11838</title>
<path fill="none" stroke="black" d="M623.74,-71.75C618.98,-63.03 614.16,-54.16 609.85,-46.26"/>
<polygon fill="black" stroke="black" points="612.94,-44.61 605.08,-37.5 606.79,-47.96 612.94,-44.61"/>
</g>
<!-- 12053 -->
<g id="node16" class="node">
<title>12053</title>
<path fill="#c0c0c0" stroke="black" d="M682,-36C682,-36 652,-36 652,-36 646,-36 640,-30 640,-24 640,-24 640,-12 640,-12 640,-6 646,0 652,0 652,0 682,0 682,0 688,0 694,-6 694,-12 694,-12 694,-24 694,-24 694,-30 688,-36 682,-36"/>
<text text-anchor="middle" x="667" y="-13.32" font-family="Helvetica,sans-Serif" font-size="14.00">(...)</text>
</g>
<!-- 11837&#45;&gt;12053 -->
<g id="edge15" class="edge">
<title>11837&#45;&gt;12053</title>
<path fill="none" stroke="black" d="M657.42,-71.75C658.93,-63.42 660.47,-54.97 661.85,-47.34"/>
<polygon fill="black" stroke="black" points="665.27,-48.13 663.61,-37.66 658.38,-46.88 665.27,-48.13"/>
</g>
<!-- 12135 -->
<g id="node18" class="node">
<title>12135</title>
<path fill="#add6f4" stroke="black" d="M991.5,-296.5C991.5,-296.5 840.5,-296.5 840.5,-296.5 834.5,-296.5 828.5,-290.5 828.5,-284.5 828.5,-284.5 828.5,-214.25 828.5,-214.25 828.5,-208.25 834.5,-202.25 840.5,-202.25 840.5,-202.25 991.5,-202.25 991.5,-202.25 997.5,-202.25 1003.5,-208.25 1003.5,-214.25 1003.5,-214.25 1003.5,-284.5 1003.5,-284.5 1003.5,-290.5 997.5,-296.5 991.5,-296.5"/>
<text text-anchor="middle" x="916" y="-279.2" font-family="Helvetica,sans-Serif" font-size="14.00">13_U &lt;= 0.5</text>
<text text-anchor="middle" x="916" y="-261.95" font-family="Helvetica,sans-Serif" font-size="14.00">entropy = 0.95</text>
<text text-anchor="middle" x="916" y="-244.7" font-family="Helvetica,sans-Serif" font-size="14.00">samples = 11350</text>
<text text-anchor="middle" x="916" y="-227.45" font-family="Helvetica,sans-Serif" font-size="14.00">value = [6656, 11392]</text>
<text text-anchor="middle" x="916" y="-210.2" font-family="Helvetica,sans-Serif" font-size="14.00">class = Plant</text>
</g>
<!-- 12134&#45;&gt;12135 -->
<g id="edge17" class="edge">
<title>12134&#45;&gt;12135</title>
<path fill="none" stroke="black" d="M916,-332.32C916,-324.42 916,-316.13 916,-307.98"/>
<polygon fill="black" stroke="black" points="919.5,-308.12 916,-298.12 912.5,-308.12 919.5,-308.12"/>
</g>
<!-- 16394 -->
<g id="node25" class="node">
<title>16394</title>
<path fill="#eda572" stroke="black" d="M1246,-296.5C1246,-296.5 1122,-296.5 1122,-296.5 1116,-296.5 1110,-290.5 1110,-284.5 1110,-284.5 1110,-214.25 1110,-214.25 1110,-208.25 1116,-202.25 1122,-202.25 1122,-202.25 1246,-202.25 1246,-202.25 1252,-202.25 1258,-208.25 1258,-214.25 1258,-214.25 1258,-284.5 1258,-284.5 1258,-290.5 1252,-296.5 1246,-296.5"/>
<text text-anchor="middle" x="1184" y="-279.2" font-family="Helvetica,sans-Serif" font-size="14.00">9_A &lt;= 0.5</text>
<text text-anchor="middle" x="1184" y="-261.95" font-family="Helvetica,sans-Serif" font-size="14.00">entropy = 0.767</text>
<text text-anchor="middle" x="1184" y="-244.7" font-family="Helvetica,sans-Serif" font-size="14.00">samples = 473</text>
<text text-anchor="middle" x="1184" y="-227.45" font-family="Helvetica,sans-Serif" font-size="14.00">value = [582, 168]</text>
<text text-anchor="middle" x="1184" y="-210.2" font-family="Helvetica,sans-Serif" font-size="14.00">class = Animal</text>
</g>
<!-- 12134&#45;&gt;16394 -->
<g id="edge24" class="edge">
<title>12134&#45;&gt;16394</title>
<path fill="none" stroke="black" d="M1003.75,-336.63C1034.48,-321.93 1068.89,-305.46 1099.36,-290.88"/>
<polygon fill="black" stroke="black" points="1100.65,-294.14 1108.16,-286.67 1097.63,-287.83 1100.65,-294.14"/>
</g>
<!-- 12136 -->
<g id="node19" class="node">
<title>12136</title>
<path fill="#93c9f1" stroke="black" d="M900,-166.25C900,-166.25 758,-166.25 758,-166.25 752,-166.25 746,-160.25 746,-154.25 746,-154.25 746,-84 746,-84 746,-78 752,-72 758,-72 758,-72 900,-72 900,-72 906,-72 912,-78 912,-84 912,-84 912,-154.25 912,-154.25 912,-160.25 906,-166.25 900,-166.25"/>
<text text-anchor="middle" x="829" y="-148.95" font-family="Helvetica,sans-Serif" font-size="14.00">7_A &lt;= 0.5</text>
<text text-anchor="middle" x="829" y="-131.7" font-family="Helvetica,sans-Serif" font-size="14.00">entropy = 0.896</text>
<text text-anchor="middle" x="829" y="-114.45" font-family="Helvetica,sans-Serif" font-size="14.00">samples = 8837</text>
<text text-anchor="middle" x="829" y="-97.2" font-family="Helvetica,sans-Serif" font-size="14.00">value = [4388, 9664]</text>
<text text-anchor="middle" x="829" y="-79.95" font-family="Helvetica,sans-Serif" font-size="14.00">class = Plant</text>
</g>
<!-- 12135&#45;&gt;12136 -->
<g id="edge18" class="edge">
<title>12135&#45;&gt;12136</title>
<path fill="none" stroke="black" d="M884.59,-202.07C878.8,-193.54 872.7,-184.54 866.75,-175.77"/>
<polygon fill="black" stroke="black" points="869.72,-173.92 861.21,-167.61 863.93,-177.85 869.72,-173.92"/>
</g>
<!-- 15237 -->
<g id="node22" class="node">
<title>15237</title>
<path fill="#f9e1d0" stroke="black" d="M1084,-166.25C1084,-166.25 942,-166.25 942,-166.25 936,-166.25 930,-160.25 930,-154.25 930,-154.25 930,-84 930,-84 930,-78 936,-72 942,-72 942,-72 1084,-72 1084,-72 1090,-72 1096,-78 1096,-84 1096,-84 1096,-154.25 1096,-154.25 1096,-160.25 1090,-166.25 1084,-166.25"/>
<text text-anchor="middle" x="1013" y="-148.95" font-family="Helvetica,sans-Serif" font-size="14.00">19_C &lt;= 0.5</text>
<text text-anchor="middle" x="1013" y="-131.7" font-family="Helvetica,sans-Serif" font-size="14.00">entropy = 0.987</text>
<text text-anchor="middle" x="1013" y="-114.45" font-family="Helvetica,sans-Serif" font-size="14.00">samples = 2513</text>
<text text-anchor="middle" x="1013" y="-97.2" font-family="Helvetica,sans-Serif" font-size="14.00">value = [2268, 1728]</text>
<text text-anchor="middle" x="1013" y="-79.95" font-family="Helvetica,sans-Serif" font-size="14.00">class = Animal</text>
</g>
<!-- 12135&#45;&gt;15237 -->
<g id="edge21" class="edge">
<title>12135&#45;&gt;15237</title>
<path fill="none" stroke="black" d="M951.02,-202.07C957.54,-193.45 964.42,-184.35 971.13,-175.49"/>
<polygon fill="black" stroke="black" points="973.88,-177.65 977.12,-167.57 968.3,-173.43 973.88,-177.65"/>
</g>
<!-- 12137 -->
<g id="node20" class="node">
<title>12137</title>
<path fill="#c0c0c0" stroke="black" d="M792,-36C792,-36 762,-36 762,-36 756,-36 750,-30 750,-24 750,-24 750,-12 750,-12 750,-6 756,0 762,0 762,0 792,0 792,0 798,0 804,-6 804,-12 804,-12 804,-24 804,-24 804,-30 798,-36 792,-36"/>
<text text-anchor="middle" x="777" y="-13.32" font-family="Helvetica,sans-Serif" font-size="14.00">(...)</text>
</g>
<!-- 12136&#45;&gt;12137 -->
<g id="edge19" class="edge">
<title>12136&#45;&gt;12137</title>
<path fill="none" stroke="black" d="M804.67,-71.75C800.1,-63.03 795.45,-54.16 791.3,-46.26"/>
<polygon fill="black" stroke="black" points="794.46,-44.74 786.71,-37.51 788.26,-47.99 794.46,-44.74"/>
</g>
<!-- 14364 -->
<g id="node21" class="node">
<title>14364</title>
<path fill="#c0c0c0" stroke="black" d="M864,-36C864,-36 834,-36 834,-36 828,-36 822,-30 822,-24 822,-24 822,-12 822,-12 822,-6 828,0 834,0 834,0 864,0 864,0 870,0 876,-6 876,-12 876,-12 876,-24 876,-24 876,-30 870,-36 864,-36"/>
<text text-anchor="middle" x="849" y="-13.32" font-family="Helvetica,sans-Serif" font-size="14.00">(...)</text>
</g>
<!-- 12136&#45;&gt;14364 -->
<g id="edge20" class="edge">
<title>12136&#45;&gt;14364</title>
<path fill="none" stroke="black" d="M838.36,-71.75C840.04,-63.42 841.74,-54.97 843.28,-47.34"/>
<polygon fill="black" stroke="black" points="846.69,-48.15 845.24,-37.66 839.83,-46.77 846.69,-48.15"/>
</g>
<!-- 15238 -->
<g id="node23" class="node">
<title>15238</title>
<path fill="#c0c0c0" stroke="black" d="M969,-36C969,-36 939,-36 939,-36 933,-36 927,-30 927,-24 927,-24 927,-12 927,-12 927,-6 933,0 939,0 939,0 969,0 969,0 975,0 981,-6 981,-12 981,-12 981,-24 981,-24 981,-30 975,-36 969,-36"/>
<text text-anchor="middle" x="954" y="-13.32" font-family="Helvetica,sans-Serif" font-size="14.00">(...)</text>
</g>
<!-- 15237&#45;&gt;15238 -->
<g id="edge22" class="edge">
<title>15237&#45;&gt;15238</title>
<path fill="none" stroke="black" d="M985.4,-71.75C980.15,-62.93 974.81,-53.96 970.06,-45.99"/>
<polygon fill="black" stroke="black" points="973.12,-44.28 965,-37.47 967.1,-47.86 973.12,-44.28"/>
</g>
<!-- 16115 -->
<g id="node24" class="node">
<title>16115</title>
<path fill="#c0c0c0" stroke="black" d="M1041,-36C1041,-36 1011,-36 1011,-36 1005,-36 999,-30 999,-24 999,-24 999,-12 999,-12 999,-6 1005,0 1011,0 1011,0 1041,0 1041,0 1047,0 1053,-6 1053,-12 1053,-12 1053,-24 1053,-24 1053,-30 1047,-36 1041,-36"/>
<text text-anchor="middle" x="1026" y="-13.32" font-family="Helvetica,sans-Serif" font-size="14.00">(...)</text>
</g>
<!-- 15237&#45;&gt;16115 -->
<g id="edge23" class="edge">
<title>15237&#45;&gt;16115</title>
<path fill="none" stroke="black" d="M1019.08,-71.75C1020.17,-63.42 1021.28,-54.97 1022.28,-47.34"/>
<polygon fill="black" stroke="black" points="1025.72,-48.04 1023.55,-37.67 1018.78,-47.13 1025.72,-48.04"/>
</g>
<!-- 16395 -->
<g id="node26" class="node">
<title>16395</title>
<path fill="#e99355" stroke="black" d="M1241.5,-166.25C1241.5,-166.25 1126.5,-166.25 1126.5,-166.25 1120.5,-166.25 1114.5,-160.25 1114.5,-154.25 1114.5,-154.25 1114.5,-84 1114.5,-84 1114.5,-78 1120.5,-72 1126.5,-72 1126.5,-72 1241.5,-72 1241.5,-72 1247.5,-72 1253.5,-78 1253.5,-84 1253.5,-84 1253.5,-154.25 1253.5,-154.25 1253.5,-160.25 1247.5,-166.25 1241.5,-166.25"/>
<text text-anchor="middle" x="1184" y="-148.95" font-family="Helvetica,sans-Serif" font-size="14.00">19_C &lt;= 0.5</text>
<text text-anchor="middle" x="1184" y="-131.7" font-family="Helvetica,sans-Serif" font-size="14.00">entropy = 0.543</text>
<text text-anchor="middle" x="1184" y="-114.45" font-family="Helvetica,sans-Serif" font-size="14.00">samples = 325</text>
<text text-anchor="middle" x="1184" y="-97.2" font-family="Helvetica,sans-Serif" font-size="14.00">value = [449, 64]</text>
<text text-anchor="middle" x="1184" y="-79.95" font-family="Helvetica,sans-Serif" font-size="14.00">class = Animal</text>
</g>
<!-- 16394&#45;&gt;16395 -->
<g id="edge25" class="edge">
<title>16394&#45;&gt;16395</title>
<path fill="none" stroke="black" d="M1184,-202.07C1184,-194.17 1184,-185.88 1184,-177.73"/>
<polygon fill="black" stroke="black" points="1187.5,-177.87 1184,-167.87 1180.5,-177.87 1187.5,-177.87"/>
</g>
<!-- 16500 -->
<g id="node29" class="node">
<title>16500</title>
<path fill="#f9e4d4" stroke="black" d="M1408,-166.25C1408,-166.25 1284,-166.25 1284,-166.25 1278,-166.25 1272,-160.25 1272,-154.25 1272,-154.25 1272,-84 1272,-84 1272,-78 1278,-72 1284,-72 1284,-72 1408,-72 1408,-72 1414,-72 1420,-78 1420,-84 1420,-84 1420,-154.25 1420,-154.25 1420,-160.25 1414,-166.25 1408,-166.25"/>
<text text-anchor="middle" x="1346" y="-148.95" font-family="Helvetica,sans-Serif" font-size="14.00">4_U &lt;= 0.5</text>
<text text-anchor="middle" x="1346" y="-131.7" font-family="Helvetica,sans-Serif" font-size="14.00">entropy = 0.989</text>
<text text-anchor="middle" x="1346" y="-114.45" font-family="Helvetica,sans-Serif" font-size="14.00">samples = 148</text>
<text text-anchor="middle" x="1346" y="-97.2" font-family="Helvetica,sans-Serif" font-size="14.00">value = [133, 104]</text>
<text text-anchor="middle" x="1346" y="-79.95" font-family="Helvetica,sans-Serif" font-size="14.00">class = Animal</text>
</g>
<!-- 16394&#45;&gt;16500 -->
<g id="edge28" class="edge">
<title>16394&#45;&gt;16500</title>
<path fill="none" stroke="black" d="M1242.49,-202.07C1254.11,-192.87 1266.41,-183.13 1278.32,-173.71"/>
<polygon fill="black" stroke="black" points="1280.47,-176.46 1286.14,-167.51 1276.13,-170.98 1280.47,-176.46"/>
</g>
<!-- 16396 -->
<g id="node27" class="node">
<title>16396</title>
<path fill="#c0c0c0" stroke="black" d="M1154,-36C1154,-36 1124,-36 1124,-36 1118,-36 1112,-30 1112,-24 1112,-24 1112,-12 1112,-12 1112,-6 1118,0 1124,0 1124,0 1154,0 1154,0 1160,0 1166,-6 1166,-12 1166,-12 1166,-24 1166,-24 1166,-30 1160,-36 1154,-36"/>
<text text-anchor="middle" x="1139" y="-13.32" font-family="Helvetica,sans-Serif" font-size="14.00">(...)</text>
</g>
<!-- 16395&#45;&gt;16396 -->
<g id="edge26" class="edge">
<title>16395&#45;&gt;16396</title>
<path fill="none" stroke="black" d="M1162.95,-71.75C1159.03,-63.12 1155.05,-54.36 1151.5,-46.53"/>
<polygon fill="black" stroke="black" points="1154.74,-45.21 1147.42,-37.55 1148.37,-48.1 1154.74,-45.21"/>
</g>
<!-- 16465 -->
<g id="node28" class="node">
<title>16465</title>
<path fill="#c0c0c0" stroke="black" d="M1226,-36C1226,-36 1196,-36 1196,-36 1190,-36 1184,-30 1184,-24 1184,-24 1184,-12 1184,-12 1184,-6 1190,0 1196,0 1196,0 1226,0 1226,0 1232,0 1238,-6 1238,-12 1238,-12 1238,-24 1238,-24 1238,-30 1232,-36 1226,-36"/>
<text text-anchor="middle" x="1211" y="-13.32" font-family="Helvetica,sans-Serif" font-size="14.00">(...)</text>
</g>
<!-- 16395&#45;&gt;16465 -->
<g id="edge27" class="edge">
<title>16395&#45;&gt;16465</title>
<path fill="none" stroke="black" d="M1196.63,-71.75C1198.93,-63.32 1201.26,-54.77 1203.35,-47.07"/>
<polygon fill="black" stroke="black" points="1206.67,-48.2 1205.92,-37.63 1199.92,-46.36 1206.67,-48.2"/>
</g>
<!-- 16501 -->
<g id="node30" class="node">
<title>16501</title>
<path fill="#c0c0c0" stroke="black" d="M1325,-36C1325,-36 1295,-36 1295,-36 1289,-36 1283,-30 1283,-24 1283,-24 1283,-12 1283,-12 1283,-6 1289,0 1295,0 1295,0 1325,0 1325,0 1331,0 1337,-6 1337,-12 1337,-12 1337,-24 1337,-24 1337,-30 1331,-36 1325,-36"/>
<text text-anchor="middle" x="1310" y="-13.32" font-family="Helvetica,sans-Serif" font-size="14.00">(...)</text>
</g>
<!-- 16500&#45;&gt;16501 -->
<g id="edge29" class="edge">
<title>16500&#45;&gt;16501</title>
<path fill="none" stroke="black" d="M1329.16,-71.75C1326.06,-63.22 1322.92,-54.57 1320.1,-46.8"/>
<polygon fill="black" stroke="black" points="1323.46,-45.8 1316.75,-37.6 1316.88,-48.19 1323.46,-45.8"/>
</g>
<!-- 16544 -->
<g id="node31" class="node">
<title>16544</title>
<path fill="#c0c0c0" stroke="black" d="M1397,-36C1397,-36 1367,-36 1367,-36 1361,-36 1355,-30 1355,-24 1355,-24 1355,-12 1355,-12 1355,-6 1361,0 1367,0 1367,0 1397,0 1397,0 1403,0 1409,-6 1409,-12 1409,-12 1409,-24 1409,-24 1409,-30 1403,-36 1397,-36"/>
<text text-anchor="middle" x="1382" y="-13.32" font-family="Helvetica,sans-Serif" font-size="14.00">(...)</text>
</g>
<!-- 16500&#45;&gt;16544 -->
<g id="edge30" class="edge">
<title>16500&#45;&gt;16544</title>
<path fill="none" stroke="black" d="M1362.84,-71.75C1365.94,-63.22 1369.08,-54.57 1371.9,-46.8"/>
<polygon fill="black" stroke="black" points="1375.12,-48.19 1375.25,-37.6 1368.54,-45.8 1375.12,-48.19"/>
</g>
</g>
</svg>
