<?xml version="1.0" encoding="UTF-8" standalone="no"?>
<!DOCTYPE svg PUBLIC "-//W3C//DTD SVG 1.1//EN"
 "http://www.w3.org/Graphics/SVG/1.1/DTD/svg11.dtd">
<!-- Generated by graphviz version 12.0.0 (20240803.0821)
 -->
<!-- Title: Tree Pages: 1 -->
<svg width="1437pt" height="565pt"
 viewBox="0.00 0.00 1437.00 565.00" xmlns="http://www.w3.org/2000/svg" xmlns:xlink="http://www.w3.org/1999/xlink">
<g id="graph0" class="graph" transform="scale(1 1) rotate(0) translate(4 561)">
<title>Tree</title>
<polygon fill="white" stroke="none" points="-4,4 -4,-561 1433,-561 1433,4 -4,4"/>
<!-- 0 -->
<g id="node1" class="node">
<title>0</title>
<path fill="#fefeff" stroke="black" d="M812,-557C812,-557 652,-557 652,-557 646,-557 640,-551 640,-545 640,-545 640,-474.75 640,-474.75 640,-468.75 646,-462.75 652,-462.75 652,-462.75 812,-462.75 812,-462.75 818,-462.75 824,-468.75 824,-474.75 824,-474.75 824,-545 824,-545 824,-551 818,-557 812,-557"/>
<text text-anchor="middle" x="732" y="-539.7" font-family="Helvetica,sans-Serif" font-size="14.00">19_U &lt;= 0.5</text>
<text text-anchor="middle" x="732" y="-522.45" font-family="Helvetica,sans-Serif" font-size="14.00">entropy = 1.0</text>
<text text-anchor="middle" x="732" y="-505.2" font-family="Helvetica,sans-Serif" font-size="14.00">samples = 38112</text>
<text text-anchor="middle" x="732" y="-487.95" font-family="Helvetica,sans-Serif" font-size="14.00">value = [30067, 30278]</text>
<text text-anchor="middle" x="732" y="-470.7" font-family="Helvetica,sans-Serif" font-size="14.00">class = Plant</text>
</g>
<!-- 1 -->
<g id="node2" class="node">
<title>1</title>
<path fill="#ddeefb" stroke="black" d="M630,-426.75C630,-426.75 470,-426.75 470,-426.75 464,-426.75 458,-420.75 458,-414.75 458,-414.75 458,-344.5 458,-344.5 458,-338.5 464,-332.5 470,-332.5 470,-332.5 630,-332.5 630,-332.5 636,-332.5 642,-338.5 642,-344.5 642,-344.5 642,-414.75 642,-414.75 642,-420.75 636,-426.75 630,-426.75"/>
<text text-anchor="middle" x="550" y="-409.45" font-family="Helvetica,sans-Serif" font-size="14.00">21_U &lt;= 0.5</text>
<text text-anchor="middle" x="550" y="-392.2" font-family="Helvetica,sans-Serif" font-size="14.00">entropy = 0.994</text>
<text text-anchor="middle" x="550" y="-374.95" font-family="Helvetica,sans-Serif" font-size="14.00">samples = 29161</text>
<text text-anchor="middle" x="550" y="-357.7" font-family="Helvetica,sans-Serif" font-size="14.00">value = [20915, 25182]</text>
<text text-anchor="middle" x="550" y="-340.45" font-family="Helvetica,sans-Serif" font-size="14.00">class = Plant</text>
</g>
<!-- 0&#45;&gt;1 -->
<g id="edge1" class="edge">
<title>0&#45;&gt;1</title>
<path fill="none" stroke="black" d="M666.04,-462.39C652.81,-453.07 638.82,-443.22 625.31,-433.69"/>
<polygon fill="black" stroke="black" points="627.47,-430.94 617.28,-428.04 623.44,-436.66 627.47,-430.94"/>
<text text-anchor="middle" x="620.31" y="-447.12" font-family="Helvetica,sans-Serif" font-size="14.00">True</text>
</g>
<!-- 12880 -->
<g id="node17" class="node">
<title>12880</title>
<path fill="#f3c7a7" stroke="black" d="M985,-426.75C985,-426.75 843,-426.75 843,-426.75 837,-426.75 831,-420.75 831,-414.75 831,-414.75 831,-344.5 831,-344.5 831,-338.5 837,-332.5 843,-332.5 843,-332.5 985,-332.5 985,-332.5 991,-332.5 997,-338.5 997,-344.5 997,-344.5 997,-414.75 997,-414.75 997,-420.75 991,-426.75 985,-426.75"/>
<text text-anchor="middle" x="914" y="-409.45" font-family="Helvetica,sans-Serif" font-size="14.00">12_A &lt;= 0.5</text>
<text text-anchor="middle" x="914" y="-392.2" font-family="Helvetica,sans-Serif" font-size="14.00">entropy = 0.941</text>
<text text-anchor="middle" x="914" y="-374.95" font-family="Helvetica,sans-Serif" font-size="14.00">samples = 8951</text>
<text text-anchor="middle" x="914" y="-357.7" font-family="Helvetica,sans-Serif" font-size="14.00">value = [9152, 5096]</text>
<text text-anchor="middle" x="914" y="-340.45" font-family="Helvetica,sans-Serif" font-size="14.00">class = Animal</text>
</g>
<!-- 0&#45;&gt;12880 -->
<g id="edge16" class="edge">
<title>0&#45;&gt;12880</title>
<path fill="none" stroke="black" d="M797.96,-462.39C811.19,-453.07 825.18,-443.22 838.69,-433.69"/>
<polygon fill="black" stroke="black" points="840.56,-436.66 846.72,-428.04 836.53,-430.94 840.56,-436.66"/>
<text text-anchor="middle" x="843.69" y="-447.12" font-family="Helvetica,sans-Serif" font-size="14.00">False</text>
</g>
<!-- 2 -->
<g id="node3" class="node">
<title>2</title>
<path fill="#cce6f8" stroke="black" d="M352,-296.5C352,-296.5 192,-296.5 192,-296.5 186,-296.5 180,-290.5 180,-284.5 180,-284.5 180,-214.25 180,-214.25 180,-208.25 186,-202.25 192,-202.25 192,-202.25 352,-202.25 352,-202.25 358,-202.25 364,-208.25 364,-214.25 364,-214.25 364,-284.5 364,-284.5 364,-290.5 358,-296.5 352,-296.5"/>
<text text-anchor="middle" x="272" y="-279.2" font-family="Helvetica,sans-Serif" font-size="14.00">1_U &lt;= 0.5</text>
<text text-anchor="middle" x="272" y="-261.95" font-family="Helvetica,sans-Serif" font-size="14.00">entropy = 0.984</text>
<text text-anchor="middle" x="272" y="-244.7" font-family="Helvetica,sans-Serif" font-size="14.00">samples = 22905</text>
<text text-anchor="middle" x="272" y="-227.45" font-family="Helvetica,sans-Serif" font-size="14.00">value = [15434, 20806]</text>
<text text-anchor="middle" x="272" y="-210.2" font-family="Helvetica,sans-Serif" font-size="14.00">class = Plant</text>
</g>
<!-- 1&#45;&gt;2 -->
<g id="edge2" class="edge">
<title>1&#45;&gt;2</title>
<path fill="none" stroke="black" d="M457.82,-336.1C431.19,-323.81 401.96,-310.33 374.74,-297.77"/>
<polygon fill="black" stroke="black" points="376.33,-294.65 365.78,-293.64 373.4,-301.01 376.33,-294.65"/>
</g>
<!-- 10165 -->
<g id="node10" class="node">
<title>10165</title>
<path fill="#fae6d7" stroke="black" d="M621,-296.5C621,-296.5 479,-296.5 479,-296.5 473,-296.5 467,-290.5 467,-284.5 467,-284.5 467,-214.25 467,-214.25 467,-208.25 473,-202.25 479,-202.25 479,-202.25 621,-202.25 621,-202.25 627,-202.25 633,-208.25 633,-214.25 633,-214.25 633,-284.5 633,-284.5 633,-290.5 627,-296.5 621,-296.5"/>
<text text-anchor="middle" x="550" y="-279.2" font-family="Helvetica,sans-Serif" font-size="14.00">17_U &lt;= 0.5</text>
<text text-anchor="middle" x="550" y="-261.95" font-family="Helvetica,sans-Serif" font-size="14.00">entropy = 0.991</text>
<text text-anchor="middle" x="550" y="-244.7" font-family="Helvetica,sans-Serif" font-size="14.00">samples = 6256</text>
<text text-anchor="middle" x="550" y="-227.45" font-family="Helvetica,sans-Serif" font-size="14.00">value = [5481, 4376]</text>
<text text-anchor="middle" x="550" y="-210.2" font-family="Helvetica,sans-Serif" font-size="14.00">class = Animal</text>
</g>
<!-- 1&#45;&gt;10165 -->
<g id="edge9" class="edge">
<title>1&#45;&gt;10165</title>
<path fill="none" stroke="black" d="M550,-332.32C550,-324.42 550,-316.13 550,-307.98"/>
<polygon fill="black" stroke="black" points="553.5,-308.12 550,-298.12 546.5,-308.12 553.5,-308.12"/>
</g>
<!-- 3 -->
<g id="node4" class="node">
<title>3</title>
<path fill="#fdf5ef" stroke="black" d="M154,-166.25C154,-166.25 12,-166.25 12,-166.25 6,-166.25 0,-160.25 0,-154.25 0,-154.25 0,-84 0,-84 0,-78 6,-72 12,-72 12,-72 154,-72 154,-72 160,-72 166,-78 166,-84 166,-84 166,-154.25 166,-154.25 166,-160.25 160,-166.25 154,-166.25"/>
<text text-anchor="middle" x="83" y="-148.95" font-family="Helvetica,sans-Serif" font-size="14.00">12_G &lt;= 0.5</text>
<text text-anchor="middle" x="83" y="-131.7" font-family="Helvetica,sans-Serif" font-size="14.00">entropy = 0.999</text>
<text text-anchor="middle" x="83" y="-114.45" font-family="Helvetica,sans-Serif" font-size="14.00">samples = 10197</text>
<text text-anchor="middle" x="83" y="-97.2" font-family="Helvetica,sans-Serif" font-size="14.00">value = [8364, 7683]</text>
<text text-anchor="middle" x="83" y="-79.95" font-family="Helvetica,sans-Serif" font-size="14.00">class = Animal</text>
</g>
<!-- 2&#45;&gt;3 -->
<g id="edge3" class="edge">
<title>2&#45;&gt;3</title>
<path fill="none" stroke="black" d="M203.5,-201.89C189.63,-192.48 174.96,-182.53 160.8,-172.92"/>
<polygon fill="black" stroke="black" points="163.08,-170.23 152.84,-167.51 159.15,-176.03 163.08,-170.23"/>
</g>
<!-- 5804 -->
<g id="node7" class="node">
<title>5804</title>
<path fill="#a4d2f3" stroke="black" d="M347.5,-166.25C347.5,-166.25 196.5,-166.25 196.5,-166.25 190.5,-166.25 184.5,-160.25 184.5,-154.25 184.5,-154.25 184.5,-84 184.5,-84 184.5,-78 190.5,-72 196.5,-72 196.5,-72 347.5,-72 347.5,-72 353.5,-72 359.5,-78 359.5,-84 359.5,-84 359.5,-154.25 359.5,-154.25 359.5,-160.25 353.5,-166.25 347.5,-166.25"/>
<text text-anchor="middle" x="272" y="-148.95" font-family="Helvetica,sans-Serif" font-size="14.00">19_C &lt;= 0.5</text>
<text text-anchor="middle" x="272" y="-131.7" font-family="Helvetica,sans-Serif" font-size="14.00">entropy = 0.934</text>
<text text-anchor="middle" x="272" y="-114.45" font-family="Helvetica,sans-Serif" font-size="14.00">samples = 12708</text>
<text text-anchor="middle" x="272" y="-97.2" font-family="Helvetica,sans-Serif" font-size="14.00">value = [7070, 13123]</text>
<text text-anchor="middle" x="272" y="-79.95" font-family="Helvetica,sans-Serif" font-size="14.00">class = Plant</text>
</g>
<!-- 2&#45;&gt;5804 -->
<g id="edge6" class="edge">
<title>2&#45;&gt;5804</title>
<path fill="none" stroke="black" d="M272,-202.07C272,-194.17 272,-185.88 272,-177.73"/>
<polygon fill="black" stroke="black" points="275.5,-177.87 272,-167.87 268.5,-177.87 275.5,-177.87"/>
</g>
<!-- 4 -->
<g id="node5" class="node">
<title>4</title>
<path fill="#c0c0c0" stroke="black" d="M62,-36C62,-36 32,-36 32,-36 26,-36 20,-30 20,-24 20,-24 20,-12 20,-12 20,-6 26,0 32,0 32,0 62,0 62,0 68,0 74,-6 74,-12 74,-12 74,-24 74,-24 74,-30 68,-36 62,-36"/>
<text text-anchor="middle" x="47" y="-13.32" font-family="Helvetica,sans-Serif" font-size="14.00">(...)</text>
</g>
<!-- 3&#45;&gt;4 -->
<g id="edge4" class="edge">
<title>3&#45;&gt;4</title>
<path fill="none" stroke="black" d="M66.16,-71.75C63.06,-63.22 59.92,-54.57 57.1,-46.8"/>
<polygon fill="black" stroke="black" points="60.46,-45.8 53.75,-37.6 53.88,-48.19 60.46,-45.8"/>
</g>
<!-- 4239 -->
<g id="node6" class="node">
<title>4239</title>
<path fill="#c0c0c0" stroke="black" d="M134,-36C134,-36 104,-36 104,-36 98,-36 92,-30 92,-24 92,-24 92,-12 92,-12 92,-6 98,0 104,0 104,0 134,0 134,0 140,0 146,-6 146,-12 146,-12 146,-24 146,-24 146,-30 140,-36 134,-36"/>
<text text-anchor="middle" x="119" y="-13.32" font-family="Helvetica,sans-Serif" font-size="14.00">(...)</text>
</g>
<!-- 3&#45;&gt;4239 -->
<g id="edge5" class="edge">
<title>3&#45;&gt;4239</title>
<path fill="none" stroke="black" d="M99.84,-71.75C102.94,-63.22 106.08,-54.57 108.9,-46.8"/>
<polygon fill="black" stroke="black" points="112.12,-48.19 112.25,-37.6 105.54,-45.8 112.12,-48.19"/>
</g>
<!-- 5805 -->
<g id="node8" class="node">
<title>5805</title>
<path fill="#c0c0c0" stroke="black" d="M258,-36C258,-36 228,-36 228,-36 222,-36 216,-30 216,-24 216,-24 216,-12 216,-12 216,-6 222,0 228,0 228,0 258,0 258,0 264,0 270,-6 270,-12 270,-12 270,-24 270,-24 270,-30 264,-36 258,-36"/>
<text text-anchor="middle" x="243" y="-13.32" font-family="Helvetica,sans-Serif" font-size="14.00">(...)</text>
</g>
<!-- 5804&#45;&gt;5805 -->
<g id="edge7" class="edge">
<title>5804&#45;&gt;5805</title>
<path fill="none" stroke="black" d="M258.43,-71.75C255.97,-63.32 253.46,-54.77 251.21,-47.07"/>
<polygon fill="black" stroke="black" points="254.62,-46.24 248.45,-37.63 247.9,-48.21 254.62,-46.24"/>
</g>
<!-- 8696 -->
<g id="node9" class="node">
<title>8696</title>
<path fill="#c0c0c0" stroke="black" d="M330,-36C330,-36 300,-36 300,-36 294,-36 288,-30 288,-24 288,-24 288,-12 288,-12 288,-6 294,0 300,0 300,0 330,0 330,0 336,0 342,-6 342,-12 342,-12 342,-24 342,-24 342,-30 336,-36 330,-36"/>
<text text-anchor="middle" x="315" y="-13.32" font-family="Helvetica,sans-Serif" font-size="14.00">(...)</text>
</g>
<!-- 5804&#45;&gt;8696 -->
<g id="edge8" class="edge">
<title>5804&#45;&gt;8696</title>
<path fill="none" stroke="black" d="M292.12,-71.75C295.86,-63.12 299.66,-54.36 303.06,-46.53"/>
<polygon fill="black" stroke="black" points="306.18,-48.13 306.95,-37.56 299.76,-45.34 306.18,-48.13"/>
</g>
<!-- 10166 -->
<g id="node11" class="node">
<title>10166</title>
<path fill="#f6d5bd" stroke="black" d="M532,-166.25C532,-166.25 390,-166.25 390,-166.25 384,-166.25 378,-160.25 378,-154.25 378,-154.25 378,-84 378,-84 378,-78 384,-72 390,-72 390,-72 532,-72 532,-72 538,-72 544,-78 544,-84 544,-84 544,-154.25 544,-154.25 544,-160.25 538,-166.25 532,-166.25"/>
<text text-anchor="middle" x="461" y="-148.95" font-family="Helvetica,sans-Serif" font-size="14.00">19_G &lt;= 0.5</text>
<text text-anchor="middle" x="461" y="-131.7" font-family="Helvetica,sans-Serif" font-size="14.00">entropy = 0.971</text>
<text text-anchor="middle" x="461" y="-114.45" font-family="Helvetica,sans-Serif" font-size="14.00">samples = 4029</text>
<text text-anchor="middle" x="461" y="-97.2" font-family="Helvetica,sans-Serif" font-size="14.00">value = [3814, 2545]</text>
<text text-anchor="middle" x="461" y="-79.95" font-family="Helvetica,sans-Serif" font-size="14.00">class = Animal</text>
</g>
<!-- 10165&#45;&gt;10166 -->
<g id="edge10" class="edge">
<title>10165&#45;&gt;10166</title>
<path fill="none" stroke="black" d="M517.87,-202.07C511.95,-193.54 505.7,-184.54 499.61,-175.77"/>
<polygon fill="black" stroke="black" points="502.52,-173.82 493.95,-167.6 496.77,-177.81 502.52,-173.82"/>
</g>
<!-- 12069 -->
<g id="node14" class="node">
<title>12069</title>
<path fill="#edf6fd" stroke="black" d="M716,-166.25C716,-166.25 574,-166.25 574,-166.25 568,-166.25 562,-160.25 562,-154.25 562,-154.25 562,-84 562,-84 562,-78 568,-72 574,-72 574,-72 716,-72 716,-72 722,-72 728,-78 728,-84 728,-84 728,-154.25 728,-154.25 728,-160.25 722,-166.25 716,-166.25"/>
<text text-anchor="middle" x="645" y="-148.95" font-family="Helvetica,sans-Serif" font-size="14.00">22_U &lt;= 0.5</text>
<text text-anchor="middle" x="645" y="-131.7" font-family="Helvetica,sans-Serif" font-size="14.00">entropy = 0.998</text>
<text text-anchor="middle" x="645" y="-114.45" font-family="Helvetica,sans-Serif" font-size="14.00">samples = 2227</text>
<text text-anchor="middle" x="645" y="-97.2" font-family="Helvetica,sans-Serif" font-size="14.00">value = [1667, 1831]</text>
<text text-anchor="middle" x="645" y="-79.95" font-family="Helvetica,sans-Serif" font-size="14.00">class = Plant</text>
</g>
<!-- 10165&#45;&gt;12069 -->
<g id="edge13" class="edge">
<title>10165&#45;&gt;12069</title>
<path fill="none" stroke="black" d="M584.3,-202.07C590.69,-193.45 597.42,-184.35 603.99,-175.49"/>
<polygon fill="black" stroke="black" points="606.71,-177.69 609.85,-167.57 601.09,-173.53 606.71,-177.69"/>
</g>
<!-- 10167 -->
<g id="node12" class="node">
<title>10167</title>
<path fill="#c0c0c0" stroke="black" d="M424,-36C424,-36 394,-36 394,-36 388,-36 382,-30 382,-24 382,-24 382,-12 382,-12 382,-6 388,0 394,0 394,0 424,0 424,0 430,0 436,-6 436,-12 436,-12 436,-24 436,-24 436,-30 430,-36 424,-36"/>
<text text-anchor="middle" x="409" y="-13.32" font-family="Helvetica,sans-Serif" font-size="14.00">(...)</text>
</g>
<!-- 10166&#45;&gt;10167 -->
<g id="edge11" class="edge">
<title>10166&#45;&gt;10167</title>
<path fill="none" stroke="black" d="M436.67,-71.75C432.1,-63.03 427.45,-54.16 423.3,-46.26"/>
<polygon fill="black" stroke="black" points="426.46,-44.74 418.71,-37.51 420.26,-47.99 426.46,-44.74"/>
</g>
<!-- 11454 -->
<g id="node13" class="node">
<title>11454</title>
<path fill="#c0c0c0" stroke="black" d="M496,-36C496,-36 466,-36 466,-36 460,-36 454,-30 454,-24 454,-24 454,-12 454,-12 454,-6 460,0 466,0 466,0 496,0 496,0 502,0 508,-6 508,-12 508,-12 508,-24 508,-24 508,-30 502,-36 496,-36"/>
<text text-anchor="middle" x="481" y="-13.32" font-family="Helvetica,sans-Serif" font-size="14.00">(...)</text>
</g>
<!-- 10166&#45;&gt;11454 -->
<g id="edge12" class="edge">
<title>10166&#45;&gt;11454</title>
<path fill="none" stroke="black" d="M470.36,-71.75C472.04,-63.42 473.74,-54.97 475.28,-47.34"/>
<polygon fill="black" stroke="black" points="478.69,-48.15 477.24,-37.66 471.83,-46.77 478.69,-48.15"/>
</g>
<!-- 12070 -->
<g id="node15" class="node">
<title>12070</title>
<path fill="#c0c0c0" stroke="black" d="M608,-36C608,-36 578,-36 578,-36 572,-36 566,-30 566,-24 566,-24 566,-12 566,-12 566,-6 572,0 578,0 578,0 608,0 608,0 614,0 620,-6 620,-12 620,-12 620,-24 620,-24 620,-30 614,-36 608,-36"/>
<text text-anchor="middle" x="593" y="-13.32" font-family="Helvetica,sans-Serif" font-size="14.00">(...)</text>
</g>
<!-- 12069&#45;&gt;12070 -->
<g id="edge14" class="edge">
<title>12069&#45;&gt;12070</title>
<path fill="none" stroke="black" d="M620.67,-71.75C616.1,-63.03 611.45,-54.16 607.3,-46.26"/>
<polygon fill="black" stroke="black" points="610.46,-44.74 602.71,-37.51 604.26,-47.99 610.46,-44.74"/>
</g>
<!-- 12777 -->
<g id="node16" class="node">
<title>12777</title>
<path fill="#c0c0c0" stroke="black" d="M680,-36C680,-36 650,-36 650,-36 644,-36 638,-30 638,-24 638,-24 638,-12 638,-12 638,-6 644,0 650,0 650,0 680,0 680,0 686,0 692,-6 692,-12 692,-12 692,-24 692,-24 692,-30 686,-36 680,-36"/>
<text text-anchor="middle" x="665" y="-13.32" font-family="Helvetica,sans-Serif" font-size="14.00">(...)</text>
</g>
<!-- 12069&#45;&gt;12777 -->
<g id="edge15" class="edge">
<title>12069&#45;&gt;12777</title>
<path fill="none" stroke="black" d="M654.36,-71.75C656.04,-63.42 657.74,-54.97 659.28,-47.34"/>
<polygon fill="black" stroke="black" points="662.69,-48.15 661.24,-37.66 655.83,-46.77 662.69,-48.15"/>
</g>
<!-- 12881 -->
<g id="node18" class="node">
<title>12881</title>
<path fill="#f5cdb1" stroke="black" d="M985,-296.5C985,-296.5 843,-296.5 843,-296.5 837,-296.5 831,-290.5 831,-284.5 831,-284.5 831,-214.25 831,-214.25 831,-208.25 837,-202.25 843,-202.25 843,-202.25 985,-202.25 985,-202.25 991,-202.25 997,-208.25 997,-214.25 997,-214.25 997,-284.5 997,-284.5 997,-290.5 991,-296.5 985,-296.5"/>
<text text-anchor="middle" x="914" y="-279.2" font-family="Helvetica,sans-Serif" font-size="14.00">22_U &lt;= 0.5</text>
<text text-anchor="middle" x="914" y="-261.95" font-family="Helvetica,sans-Serif" font-size="14.00">entropy = 0.956</text>
<text text-anchor="middle" x="914" y="-244.7" font-family="Helvetica,sans-Serif" font-size="14.00">samples = 6735</text>
<text text-anchor="middle" x="914" y="-227.45" font-family="Helvetica,sans-Serif" font-size="14.00">value = [6683, 4049]</text>
<text text-anchor="middle" x="914" y="-210.2" font-family="Helvetica,sans-Serif" font-size="14.00">class = Animal</text>
</g>
<!-- 12880&#45;&gt;12881 -->
<g id="edge17" class="edge">
<title>12880&#45;&gt;12881</title>
<path fill="none" stroke="black" d="M914,-332.32C914,-324.42 914,-316.13 914,-307.98"/>
<polygon fill="black" stroke="black" points="917.5,-308.12 914,-298.12 910.5,-308.12 917.5,-308.12"/>
</g>
<!-- 16198 -->
<g id="node25" class="node">
<title>16198</title>
<path fill="#f0b68d" stroke="black" d="M1255,-296.5C1255,-296.5 1113,-296.5 1113,-296.5 1107,-296.5 1101,-290.5 1101,-284.5 1101,-284.5 1101,-214.25 1101,-214.25 1101,-208.25 1107,-202.25 1113,-202.25 1113,-202.25 1255,-202.25 1255,-202.25 1261,-202.25 1267,-208.25 1267,-214.25 1267,-214.25 1267,-284.5 1267,-284.5 1267,-290.5 1261,-296.5 1255,-296.5"/>
<text text-anchor="middle" x="1184" y="-279.2" font-family="Helvetica,sans-Serif" font-size="14.00">18_G &lt;= 0.5</text>
<text text-anchor="middle" x="1184" y="-261.95" font-family="Helvetica,sans-Serif" font-size="14.00">entropy = 0.879</text>
<text text-anchor="middle" x="1184" y="-244.7" font-family="Helvetica,sans-Serif" font-size="14.00">samples = 2216</text>
<text text-anchor="middle" x="1184" y="-227.45" font-family="Helvetica,sans-Serif" font-size="14.00">value = [2469, 1047]</text>
<text text-anchor="middle" x="1184" y="-210.2" font-family="Helvetica,sans-Serif" font-size="14.00">class = Animal</text>
</g>
<!-- 12880&#45;&gt;16198 -->
<g id="edge24" class="edge">
<title>12880&#45;&gt;16198</title>
<path fill="none" stroke="black" d="M997.21,-339.1C1026.72,-325.08 1060.13,-309.21 1090.45,-294.81"/>
<polygon fill="black" stroke="black" points="1091.7,-298.09 1099.23,-290.64 1088.7,-291.77 1091.7,-298.09"/>
</g>
<!-- 12882 -->
<g id="node19" class="node">
<title>12882</title>
<path fill="#f8dcc8" stroke="black" d="M900,-166.25C900,-166.25 758,-166.25 758,-166.25 752,-166.25 746,-160.25 746,-154.25 746,-154.25 746,-84 746,-84 746,-78 752,-72 758,-72 758,-72 900,-72 900,-72 906,-72 912,-78 912,-84 912,-84 912,-154.25 912,-154.25 912,-160.25 906,-166.25 900,-166.25"/>
<text text-anchor="middle" x="829" y="-148.95" font-family="Helvetica,sans-Serif" font-size="14.00">2_A &lt;= 0.5</text>
<text text-anchor="middle" x="829" y="-131.7" font-family="Helvetica,sans-Serif" font-size="14.00">entropy = 0.981</text>
<text text-anchor="middle" x="829" y="-114.45" font-family="Helvetica,sans-Serif" font-size="14.00">samples = 5739</text>
<text text-anchor="middle" x="829" y="-97.2" font-family="Helvetica,sans-Serif" font-size="14.00">value = [5309, 3825]</text>
<text text-anchor="middle" x="829" y="-79.95" font-family="Helvetica,sans-Serif" font-size="14.00">class = Animal</text>
</g>
<!-- 12881&#45;&gt;12882 -->
<g id="edge18" class="edge">
<title>12881&#45;&gt;12882</title>
<path fill="none" stroke="black" d="M883.31,-202.07C877.66,-193.54 871.7,-184.54 865.88,-175.77"/>
<polygon fill="black" stroke="black" points="868.92,-174.02 860.48,-167.62 863.09,-177.89 868.92,-174.02"/>
</g>
<!-- 15871 -->
<g id="node22" class="node">
<title>15871</title>
<path fill="#e99659" stroke="black" d="M1075.5,-166.25C1075.5,-166.25 942.5,-166.25 942.5,-166.25 936.5,-166.25 930.5,-160.25 930.5,-154.25 930.5,-154.25 930.5,-84 930.5,-84 930.5,-78 936.5,-72 942.5,-72 942.5,-72 1075.5,-72 1075.5,-72 1081.5,-72 1087.5,-78 1087.5,-84 1087.5,-84 1087.5,-154.25 1087.5,-154.25 1087.5,-160.25 1081.5,-166.25 1075.5,-166.25"/>
<text text-anchor="middle" x="1009" y="-148.95" font-family="Helvetica,sans-Serif" font-size="14.00">4_A &lt;= 0.5</text>
<text text-anchor="middle" x="1009" y="-131.7" font-family="Helvetica,sans-Serif" font-size="14.00">entropy = 0.585</text>
<text text-anchor="middle" x="1009" y="-114.45" font-family="Helvetica,sans-Serif" font-size="14.00">samples = 996</text>
<text text-anchor="middle" x="1009" y="-97.2" font-family="Helvetica,sans-Serif" font-size="14.00">value = [1374, 224]</text>
<text text-anchor="middle" x="1009" y="-79.95" font-family="Helvetica,sans-Serif" font-size="14.00">class = Animal</text>
</g>
<!-- 12881&#45;&gt;15871 -->
<g id="edge21" class="edge">
<title>12881&#45;&gt;15871</title>
<path fill="none" stroke="black" d="M948.3,-202.07C954.69,-193.45 961.42,-184.35 967.99,-175.49"/>
<polygon fill="black" stroke="black" points="970.71,-177.69 973.85,-167.57 965.09,-173.53 970.71,-177.69"/>
</g>
<!-- 12883 -->
<g id="node20" class="node">
<title>12883</title>
<path fill="#c0c0c0" stroke="black" d="M790,-36C790,-36 760,-36 760,-36 754,-36 748,-30 748,-24 748,-24 748,-12 748,-12 748,-6 754,0 760,0 760,0 790,0 790,0 796,0 802,-6 802,-12 802,-12 802,-24 802,-24 802,-30 796,-36 790,-36"/>
<text text-anchor="middle" x="775" y="-13.32" font-family="Helvetica,sans-Serif" font-size="14.00">(...)</text>
</g>
<!-- 12882&#45;&gt;12883 -->
<g id="edge19" class="edge">
<title>12882&#45;&gt;12883</title>
<path fill="none" stroke="black" d="M803.74,-71.75C798.98,-63.03 794.16,-54.16 789.85,-46.26"/>
<polygon fill="black" stroke="black" points="792.94,-44.61 785.08,-37.5 786.79,-47.96 792.94,-44.61"/>
</g>
<!-- 15132 -->
<g id="node21" class="node">
<title>15132</title>
<path fill="#c0c0c0" stroke="black" d="M862,-36C862,-36 832,-36 832,-36 826,-36 820,-30 820,-24 820,-24 820,-12 820,-12 820,-6 826,0 832,0 832,0 862,0 862,0 868,0 874,-6 874,-12 874,-12 874,-24 874,-24 874,-30 868,-36 862,-36"/>
<text text-anchor="middle" x="847" y="-13.32" font-family="Helvetica,sans-Serif" font-size="14.00">(...)</text>
</g>
<!-- 12882&#45;&gt;15132 -->
<g id="edge20" class="edge">
<title>12882&#45;&gt;15132</title>
<path fill="none" stroke="black" d="M837.42,-71.75C838.93,-63.42 840.47,-54.97 841.85,-47.34"/>
<polygon fill="black" stroke="black" points="845.27,-48.13 843.61,-37.66 838.38,-46.88 845.27,-48.13"/>
</g>
<!-- 15872 -->
<g id="node23" class="node">
<title>15872</title>
<path fill="#c0c0c0" stroke="black" d="M967,-36C967,-36 937,-36 937,-36 931,-36 925,-30 925,-24 925,-24 925,-12 925,-12 925,-6 931,0 937,0 937,0 967,0 967,0 973,0 979,-6 979,-12 979,-12 979,-24 979,-24 979,-30 973,-36 967,-36"/>
<text text-anchor="middle" x="952" y="-13.32" font-family="Helvetica,sans-Serif" font-size="14.00">(...)</text>
</g>
<!-- 15871&#45;&gt;15872 -->
<g id="edge22" class="edge">
<title>15871&#45;&gt;15872</title>
<path fill="none" stroke="black" d="M982.34,-71.75C977.26,-62.93 972.1,-53.96 967.52,-45.99"/>
<polygon fill="black" stroke="black" points="970.65,-44.41 962.63,-37.48 964.58,-47.9 970.65,-44.41"/>
</g>
<!-- 16109 -->
<g id="node24" class="node">
<title>16109</title>
<path fill="#c0c0c0" stroke="black" d="M1039,-36C1039,-36 1009,-36 1009,-36 1003,-36 997,-30 997,-24 997,-24 997,-12 997,-12 997,-6 1003,0 1009,0 1009,0 1039,0 1039,0 1045,0 1051,-6 1051,-12 1051,-12 1051,-24 1051,-24 1051,-30 1045,-36 1039,-36"/>
<text text-anchor="middle" x="1024" y="-13.32" font-family="Helvetica,sans-Serif" font-size="14.00">(...)</text>
</g>
<!-- 15871&#45;&gt;16109 -->
<g id="edge23" class="edge">
<title>15871&#45;&gt;16109</title>
<path fill="none" stroke="black" d="M1016.02,-71.75C1017.28,-63.42 1018.56,-54.97 1019.71,-47.34"/>
<polygon fill="black" stroke="black" points="1023.14,-48.08 1021.17,-37.67 1016.22,-47.03 1023.14,-48.08"/>
</g>
<!-- 16199 -->
<g id="node26" class="node">
<title>16199</title>
<path fill="#efb488" stroke="black" d="M1250.5,-166.25C1250.5,-166.25 1117.5,-166.25 1117.5,-166.25 1111.5,-166.25 1105.5,-160.25 1105.5,-154.25 1105.5,-154.25 1105.5,-84 1105.5,-84 1105.5,-78 1111.5,-72 1117.5,-72 1117.5,-72 1250.5,-72 1250.5,-72 1256.5,-72 1262.5,-78 1262.5,-84 1262.5,-84 1262.5,-154.25 1262.5,-154.25 1262.5,-160.25 1256.5,-166.25 1250.5,-166.25"/>
<text text-anchor="middle" x="1184" y="-148.95" font-family="Helvetica,sans-Serif" font-size="14.00">5_G &lt;= 0.5</text>
<text text-anchor="middle" x="1184" y="-131.7" font-family="Helvetica,sans-Serif" font-size="14.00">entropy = 0.864</text>
<text text-anchor="middle" x="1184" y="-114.45" font-family="Helvetica,sans-Serif" font-size="14.00">samples = 1746</text>
<text text-anchor="middle" x="1184" y="-97.2" font-family="Helvetica,sans-Serif" font-size="14.00">value = [1970, 790]</text>
<text text-anchor="middle" x="1184" y="-79.95" font-family="Helvetica,sans-Serif" font-size="14.00">class = Animal</text>
</g>
<!-- 16198&#45;&gt;16199 -->
<g id="edge25" class="edge">
<title>16198&#45;&gt;16199</title>
<path fill="none" stroke="black" d="M1184,-202.07C1184,-194.17 1184,-185.88 1184,-177.73"/>
<polygon fill="black" stroke="black" points="1187.5,-177.87 1184,-167.87 1180.5,-177.87 1187.5,-177.87"/>
</g>
<!-- 16982 -->
<g id="node29" class="node">
<title>16982</title>
<path fill="#f2c29f" stroke="black" d="M1417,-166.25C1417,-166.25 1293,-166.25 1293,-166.25 1287,-166.25 1281,-160.25 1281,-154.25 1281,-154.25 1281,-84 1281,-84 1281,-78 1287,-72 1293,-72 1293,-72 1417,-72 1417,-72 1423,-72 1429,-78 1429,-84 1429,-84 1429,-154.25 1429,-154.25 1429,-160.25 1423,-166.25 1417,-166.25"/>
<text text-anchor="middle" x="1355" y="-148.95" font-family="Helvetica,sans-Serif" font-size="14.00">7_G &lt;= 0.5</text>
<text text-anchor="middle" x="1355" y="-131.7" font-family="Helvetica,sans-Serif" font-size="14.00">entropy = 0.925</text>
<text text-anchor="middle" x="1355" y="-114.45" font-family="Helvetica,sans-Serif" font-size="14.00">samples = 470</text>
<text text-anchor="middle" x="1355" y="-97.2" font-family="Helvetica,sans-Serif" font-size="14.00">value = [499, 257]</text>
<text text-anchor="middle" x="1355" y="-79.95" font-family="Helvetica,sans-Serif" font-size="14.00">class = Animal</text>
</g>
<!-- 16198&#45;&gt;16982 -->
<g id="edge28" class="edge">
<title>16198&#45;&gt;16982</title>
<path fill="none" stroke="black" d="M1245.73,-202.07C1258.13,-192.78 1271.25,-182.94 1283.93,-173.43"/>
<polygon fill="black" stroke="black" points="1285.96,-176.28 1291.86,-167.48 1281.76,-170.68 1285.96,-176.28"/>
</g>
<!-- 16200 -->
<g id="node27" class="node">
<title>16200</title>
<path fill="#c0c0c0" stroke="black" d="M1158,-36C1158,-36 1128,-36 1128,-36 1122,-36 1116,-30 1116,-24 1116,-24 1116,-12 1116,-12 1116,-6 1122,0 1128,0 1128,0 1158,0 1158,0 1164,0 1170,-6 1170,-12 1170,-12 1170,-24 1170,-24 1170,-30 1164,-36 1158,-36"/>
<text text-anchor="middle" x="1143" y="-13.32" font-family="Helvetica,sans-Serif" font-size="14.00">(...)</text>
</g>
<!-- 16199&#45;&gt;16200 -->
<g id="edge26" class="edge">
<title>16199&#45;&gt;16200</title>
<path fill="none" stroke="black" d="M1164.82,-71.75C1161.29,-63.22 1157.71,-54.57 1154.5,-46.8"/>
<polygon fill="black" stroke="black" points="1157.74,-45.47 1150.68,-37.57 1151.27,-48.15 1157.74,-45.47"/>
</g>
<!-- 16759 -->
<g id="node28" class="node">
<title>16759</title>
<path fill="#c0c0c0" stroke="black" d="M1230,-36C1230,-36 1200,-36 1200,-36 1194,-36 1188,-30 1188,-24 1188,-24 1188,-12 1188,-12 1188,-6 1194,0 1200,0 1200,0 1230,0 1230,0 1236,0 1242,-6 1242,-12 1242,-12 1242,-24 1242,-24 1242,-30 1236,-36 1230,-36"/>
<text text-anchor="middle" x="1215" y="-13.32" font-family="Helvetica,sans-Serif" font-size="14.00">(...)</text>
</g>
<!-- 16199&#45;&gt;16759 -->
<g id="edge27" class="edge">
<title>16199&#45;&gt;16759</title>
<path fill="none" stroke="black" d="M1198.5,-71.75C1201.14,-63.32 1203.81,-54.77 1206.22,-47.07"/>
<polygon fill="black" stroke="black" points="1209.53,-48.21 1209.18,-37.62 1202.85,-46.12 1209.53,-48.21"/>
</g>
<!-- 16983 -->
<g id="node30" class="node">
<title>16983</title>
<path fill="#c0c0c0" stroke="black" d="M1334,-36C1334,-36 1304,-36 1304,-36 1298,-36 1292,-30 1292,-24 1292,-24 1292,-12 1292,-12 1292,-6 1298,0 1304,0 1304,0 1334,0 1334,0 1340,0 1346,-6 1346,-12 1346,-12 1346,-24 1346,-24 1346,-30 1340,-36 1334,-36"/>
<text text-anchor="middle" x="1319" y="-13.32" font-family="Helvetica,sans-Serif" font-size="14.00">(...)</text>
</g>
<!-- 16982&#45;&gt;16983 -->
<g id="edge29" class="edge">
<title>16982&#45;&gt;16983</title>
<path fill="none" stroke="black" d="M1338.16,-71.75C1335.06,-63.22 1331.92,-54.57 1329.1,-46.8"/>
<polygon fill="black" stroke="black" points="1332.46,-45.8 1325.75,-37.6 1325.88,-48.19 1332.46,-45.8"/>
</g>
<!-- 17152 -->
<g id="node31" class="node">
<title>17152</title>
<path fill="#c0c0c0" stroke="black" d="M1406,-36C1406,-36 1376,-36 1376,-36 1370,-36 1364,-30 1364,-24 1364,-24 1364,-12 1364,-12 1364,-6 1370,0 1376,0 1376,0 1406,0 1406,0 1412,0 1418,-6 1418,-12 1418,-12 1418,-24 1418,-24 1418,-30 1412,-36 1406,-36"/>
<text text-anchor="middle" x="1391" y="-13.32" font-family="Helvetica,sans-Serif" font-size="14.00">(...)</text>
</g>
<!-- 16982&#45;&gt;17152 -->
<g id="edge30" class="edge">
<title>16982&#45;&gt;17152</title>
<path fill="none" stroke="black" d="M1371.84,-71.75C1374.94,-63.22 1378.08,-54.57 1380.9,-46.8"/>
<polygon fill="black" stroke="black" points="1384.12,-48.19 1384.25,-37.6 1377.54,-45.8 1384.12,-48.19"/>
</g>
</g>
</svg>
