<?xml version="1.0" encoding="UTF-8" standalone="no"?>
<!DOCTYPE svg PUBLIC "-//W3C//DTD SVG 1.1//EN"
 "http://www.w3.org/Graphics/SVG/1.1/DTD/svg11.dtd">
<!-- Generated by graphviz version 12.0.0 (20240803.0821)
 -->
<!-- Title: Tree Pages: 1 -->
<svg width="1420pt" height="565pt"
 viewBox="0.00 0.00 1420.00 565.00" xmlns="http://www.w3.org/2000/svg" xmlns:xlink="http://www.w3.org/1999/xlink">
<g id="graph0" class="graph" transform="scale(1 1) rotate(0) translate(4 561)">
<title>Tree</title>
<polygon fill="white" stroke="none" points="-4,4 -4,-561 1416,-561 1416,4 -4,4"/>
<!-- 0 -->
<g id="node1" class="node">
<title>0</title>
<path fill="#fffefe" stroke="black" d="M786,-557C786,-557 626,-557 626,-557 620,-557 614,-551 614,-545 614,-545 614,-474.75 614,-474.75 614,-468.75 620,-462.75 626,-462.75 626,-462.75 786,-462.75 786,-462.75 792,-462.75 798,-468.75 798,-474.75 798,-474.75 798,-545 798,-545 798,-551 792,-557 786,-557"/>
<text text-anchor="middle" x="706" y="-539.7" font-family="Helvetica,sans-Serif" font-size="14.00">18_C &lt;= 0.5</text>
<text text-anchor="middle" x="706" y="-522.45" font-family="Helvetica,sans-Serif" font-size="14.00">entropy = 1.0</text>
<text text-anchor="middle" x="706" y="-505.2" font-family="Helvetica,sans-Serif" font-size="14.00">samples = 38101</text>
<text text-anchor="middle" x="706" y="-487.95" font-family="Helvetica,sans-Serif" font-size="14.00">value = [30246, 30099]</text>
<text text-anchor="middle" x="706" y="-470.7" font-family="Helvetica,sans-Serif" font-size="14.00">class = Animal</text>
</g>
<!-- 1 -->
<g id="node2" class="node">
<title>1</title>
<path fill="#fbede3" stroke="black" d="M622,-426.75C622,-426.75 462,-426.75 462,-426.75 456,-426.75 450,-420.75 450,-414.75 450,-414.75 450,-344.5 450,-344.5 450,-338.5 456,-332.5 462,-332.5 462,-332.5 622,-332.5 622,-332.5 628,-332.5 634,-338.5 634,-344.5 634,-344.5 634,-414.75 634,-414.75 634,-420.75 628,-426.75 622,-426.75"/>
<text text-anchor="middle" x="542" y="-409.45" font-family="Helvetica,sans-Serif" font-size="14.00">22_G &lt;= 0.5</text>
<text text-anchor="middle" x="542" y="-392.2" font-family="Helvetica,sans-Serif" font-size="14.00">entropy = 0.996</text>
<text text-anchor="middle" x="542" y="-374.95" font-family="Helvetica,sans-Serif" font-size="14.00">samples = 27673</text>
<text text-anchor="middle" x="542" y="-357.7" font-family="Helvetica,sans-Serif" font-size="14.00">value = [23558, 20200]</text>
<text text-anchor="middle" x="542" y="-340.45" font-family="Helvetica,sans-Serif" font-size="14.00">class = Animal</text>
</g>
<!-- 0&#45;&gt;1 -->
<g id="edge1" class="edge">
<title>0&#45;&gt;1</title>
<path fill="none" stroke="black" d="M646.79,-462.57C634.91,-453.28 622.32,-443.44 610.16,-433.93"/>
<polygon fill="black" stroke="black" points="612.62,-431.41 602.59,-428.01 608.31,-436.92 612.62,-431.41"/>
<text text-anchor="middle" x="604.43" y="-447.21" font-family="Helvetica,sans-Serif" font-size="14.00">True</text>
</g>
<!-- 12690 -->
<g id="node17" class="node">
<title>12690</title>
<path fill="#bfdff7" stroke="black" d="M964,-426.75C964,-426.75 822,-426.75 822,-426.75 816,-426.75 810,-420.75 810,-414.75 810,-414.75 810,-344.5 810,-344.5 810,-338.5 816,-332.5 822,-332.5 822,-332.5 964,-332.5 964,-332.5 970,-332.5 976,-338.5 976,-344.5 976,-344.5 976,-414.75 976,-414.75 976,-420.75 970,-426.75 964,-426.75"/>
<text text-anchor="middle" x="893" y="-409.45" font-family="Helvetica,sans-Serif" font-size="14.00">10_A &lt;= 0.5</text>
<text text-anchor="middle" x="893" y="-392.2" font-family="Helvetica,sans-Serif" font-size="14.00">entropy = 0.973</text>
<text text-anchor="middle" x="893" y="-374.95" font-family="Helvetica,sans-Serif" font-size="14.00">samples = 10428</text>
<text text-anchor="middle" x="893" y="-357.7" font-family="Helvetica,sans-Serif" font-size="14.00">value = [6688, 9899]</text>
<text text-anchor="middle" x="893" y="-340.45" font-family="Helvetica,sans-Serif" font-size="14.00">class = Plant</text>
</g>
<!-- 0&#45;&gt;12690 -->
<g id="edge16" class="edge">
<title>0&#45;&gt;12690</title>
<path fill="none" stroke="black" d="M773.78,-462.39C787.49,-452.98 802.01,-443.03 816.02,-433.42"/>
<polygon fill="black" stroke="black" points="817.63,-436.56 823.89,-428.02 813.67,-430.79 817.63,-436.56"/>
<text text-anchor="middle" x="820.56" y="-447.07" font-family="Helvetica,sans-Serif" font-size="14.00">False</text>
</g>
<!-- 2 -->
<g id="node3" class="node">
<title>2</title>
<path fill="#fefeff" stroke="black" d="M361,-296.5C361,-296.5 201,-296.5 201,-296.5 195,-296.5 189,-290.5 189,-284.5 189,-284.5 189,-214.25 189,-214.25 189,-208.25 195,-202.25 201,-202.25 201,-202.25 361,-202.25 361,-202.25 367,-202.25 373,-208.25 373,-214.25 373,-214.25 373,-284.5 373,-284.5 373,-290.5 367,-296.5 361,-296.5"/>
<text text-anchor="middle" x="281" y="-279.2" font-family="Helvetica,sans-Serif" font-size="14.00">22_U &lt;= 0.5</text>
<text text-anchor="middle" x="281" y="-261.95" font-family="Helvetica,sans-Serif" font-size="14.00">entropy = 1.0</text>
<text text-anchor="middle" x="281" y="-244.7" font-family="Helvetica,sans-Serif" font-size="14.00">samples = 23822</text>
<text text-anchor="middle" x="281" y="-227.45" font-family="Helvetica,sans-Serif" font-size="14.00">value = [18737, 18864]</text>
<text text-anchor="middle" x="281" y="-210.2" font-family="Helvetica,sans-Serif" font-size="14.00">class = Plant</text>
</g>
<!-- 1&#45;&gt;2 -->
<g id="edge2" class="edge">
<title>1&#45;&gt;2</title>
<path fill="none" stroke="black" d="M449.61,-333.23C428.22,-322.72 405.33,-311.47 383.53,-300.75"/>
<polygon fill="black" stroke="black" points="385.14,-297.65 374.62,-296.38 382.05,-303.93 385.14,-297.65"/>
</g>
<!-- 11173 -->
<g id="node10" class="node">
<title>11173</title>
<path fill="#eca470" stroke="black" d="M613,-296.5C613,-296.5 471,-296.5 471,-296.5 465,-296.5 459,-290.5 459,-284.5 459,-284.5 459,-214.25 459,-214.25 459,-208.25 465,-202.25 471,-202.25 471,-202.25 613,-202.25 613,-202.25 619,-202.25 625,-208.25 625,-214.25 625,-214.25 625,-284.5 625,-284.5 625,-290.5 619,-296.5 613,-296.5"/>
<text text-anchor="middle" x="542" y="-279.2" font-family="Helvetica,sans-Serif" font-size="14.00">24_C &lt;= 0.5</text>
<text text-anchor="middle" x="542" y="-261.95" font-family="Helvetica,sans-Serif" font-size="14.00">entropy = 0.755</text>
<text text-anchor="middle" x="542" y="-244.7" font-family="Helvetica,sans-Serif" font-size="14.00">samples = 3851</text>
<text text-anchor="middle" x="542" y="-227.45" font-family="Helvetica,sans-Serif" font-size="14.00">value = [4821, 1336]</text>
<text text-anchor="middle" x="542" y="-210.2" font-family="Helvetica,sans-Serif" font-size="14.00">class = Animal</text>
</g>
<!-- 1&#45;&gt;11173 -->
<g id="edge9" class="edge">
<title>1&#45;&gt;11173</title>
<path fill="none" stroke="black" d="M542,-332.32C542,-324.42 542,-316.13 542,-307.98"/>
<polygon fill="black" stroke="black" points="545.5,-308.12 542,-298.12 538.5,-308.12 545.5,-308.12"/>
</g>
<!-- 3 -->
<g id="node4" class="node">
<title>3</title>
<path fill="#d0e8f9" stroke="black" d="M172,-166.25C172,-166.25 12,-166.25 12,-166.25 6,-166.25 0,-160.25 0,-154.25 0,-154.25 0,-84 0,-84 0,-78 6,-72 12,-72 12,-72 172,-72 172,-72 178,-72 184,-78 184,-84 184,-84 184,-154.25 184,-154.25 184,-160.25 178,-166.25 172,-166.25"/>
<text text-anchor="middle" x="92" y="-148.95" font-family="Helvetica,sans-Serif" font-size="14.00">4_A &lt;= 0.5</text>
<text text-anchor="middle" x="92" y="-131.7" font-family="Helvetica,sans-Serif" font-size="14.00">entropy = 0.987</text>
<text text-anchor="middle" x="92" y="-114.45" font-family="Helvetica,sans-Serif" font-size="14.00">samples = 19951</text>
<text text-anchor="middle" x="92" y="-97.2" font-family="Helvetica,sans-Serif" font-size="14.00">value = [13613, 17882]</text>
<text text-anchor="middle" x="92" y="-79.95" font-family="Helvetica,sans-Serif" font-size="14.00">class = Plant</text>
</g>
<!-- 2&#45;&gt;3 -->
<g id="edge3" class="edge">
<title>2&#45;&gt;3</title>
<path fill="none" stroke="black" d="M212.5,-201.89C198.63,-192.48 183.96,-182.53 169.8,-172.92"/>
<polygon fill="black" stroke="black" points="172.08,-170.23 161.84,-167.51 168.15,-176.03 172.08,-170.23"/>
</g>
<!-- 9666 -->
<g id="node7" class="node">
<title>9666</title>
<path fill="#ea995f" stroke="black" d="M347.5,-166.25C347.5,-166.25 214.5,-166.25 214.5,-166.25 208.5,-166.25 202.5,-160.25 202.5,-154.25 202.5,-154.25 202.5,-84 202.5,-84 202.5,-78 208.5,-72 214.5,-72 214.5,-72 347.5,-72 347.5,-72 353.5,-72 359.5,-78 359.5,-84 359.5,-84 359.5,-154.25 359.5,-154.25 359.5,-160.25 353.5,-166.25 347.5,-166.25"/>
<text text-anchor="middle" x="281" y="-148.95" font-family="Helvetica,sans-Serif" font-size="14.00">23_U &lt;= 0.5</text>
<text text-anchor="middle" x="281" y="-131.7" font-family="Helvetica,sans-Serif" font-size="14.00">entropy = 0.636</text>
<text text-anchor="middle" x="281" y="-114.45" font-family="Helvetica,sans-Serif" font-size="14.00">samples = 3871</text>
<text text-anchor="middle" x="281" y="-97.2" font-family="Helvetica,sans-Serif" font-size="14.00">value = [5124, 982]</text>
<text text-anchor="middle" x="281" y="-79.95" font-family="Helvetica,sans-Serif" font-size="14.00">class = Animal</text>
</g>
<!-- 2&#45;&gt;9666 -->
<g id="edge6" class="edge">
<title>2&#45;&gt;9666</title>
<path fill="none" stroke="black" d="M281,-202.07C281,-194.17 281,-185.88 281,-177.73"/>
<polygon fill="black" stroke="black" points="284.5,-177.87 281,-167.87 277.5,-177.87 284.5,-177.87"/>
</g>
<!-- 4 -->
<g id="node5" class="node">
<title>4</title>
<path fill="#c0c0c0" stroke="black" d="M71,-36C71,-36 41,-36 41,-36 35,-36 29,-30 29,-24 29,-24 29,-12 29,-12 29,-6 35,0 41,0 41,0 71,0 71,0 77,0 83,-6 83,-12 83,-12 83,-24 83,-24 83,-30 77,-36 71,-36"/>
<text text-anchor="middle" x="56" y="-13.32" font-family="Helvetica,sans-Serif" font-size="14.00">(...)</text>
</g>
<!-- 3&#45;&gt;4 -->
<g id="edge4" class="edge">
<title>3&#45;&gt;4</title>
<path fill="none" stroke="black" d="M75.16,-71.75C72.06,-63.22 68.92,-54.57 66.1,-46.8"/>
<polygon fill="black" stroke="black" points="69.46,-45.8 62.75,-37.6 62.88,-48.19 69.46,-45.8"/>
</g>
<!-- 7391 -->
<g id="node6" class="node">
<title>7391</title>
<path fill="#c0c0c0" stroke="black" d="M143,-36C143,-36 113,-36 113,-36 107,-36 101,-30 101,-24 101,-24 101,-12 101,-12 101,-6 107,0 113,0 113,0 143,0 143,0 149,0 155,-6 155,-12 155,-12 155,-24 155,-24 155,-30 149,-36 143,-36"/>
<text text-anchor="middle" x="128" y="-13.32" font-family="Helvetica,sans-Serif" font-size="14.00">(...)</text>
</g>
<!-- 3&#45;&gt;7391 -->
<g id="edge5" class="edge">
<title>3&#45;&gt;7391</title>
<path fill="none" stroke="black" d="M108.84,-71.75C111.94,-63.22 115.08,-54.57 117.9,-46.8"/>
<polygon fill="black" stroke="black" points="121.12,-48.19 121.25,-37.6 114.54,-45.8 121.12,-48.19"/>
</g>
<!-- 9667 -->
<g id="node8" class="node">
<title>9667</title>
<path fill="#c0c0c0" stroke="black" d="M255,-36C255,-36 225,-36 225,-36 219,-36 213,-30 213,-24 213,-24 213,-12 213,-12 213,-6 219,0 225,0 225,0 255,0 255,0 261,0 267,-6 267,-12 267,-12 267,-24 267,-24 267,-30 261,-36 255,-36"/>
<text text-anchor="middle" x="240" y="-13.32" font-family="Helvetica,sans-Serif" font-size="14.00">(...)</text>
</g>
<!-- 9666&#45;&gt;9667 -->
<g id="edge7" class="edge">
<title>9666&#45;&gt;9667</title>
<path fill="none" stroke="black" d="M261.82,-71.75C258.29,-63.22 254.71,-54.57 251.5,-46.8"/>
<polygon fill="black" stroke="black" points="254.74,-45.47 247.68,-37.57 248.27,-48.15 254.74,-45.47"/>
</g>
<!-- 11062 -->
<g id="node9" class="node">
<title>11062</title>
<path fill="#c0c0c0" stroke="black" d="M327,-36C327,-36 297,-36 297,-36 291,-36 285,-30 285,-24 285,-24 285,-12 285,-12 285,-6 291,0 297,0 297,0 327,0 327,0 333,0 339,-6 339,-12 339,-12 339,-24 339,-24 339,-30 333,-36 327,-36"/>
<text text-anchor="middle" x="312" y="-13.32" font-family="Helvetica,sans-Serif" font-size="14.00">(...)</text>
</g>
<!-- 9666&#45;&gt;11062 -->
<g id="edge8" class="edge">
<title>9666&#45;&gt;11062</title>
<path fill="none" stroke="black" d="M295.5,-71.75C298.14,-63.32 300.81,-54.77 303.22,-47.07"/>
<polygon fill="black" stroke="black" points="306.53,-48.21 306.18,-37.62 299.85,-46.12 306.53,-48.21"/>
</g>
<!-- 11174 -->
<g id="node11" class="node">
<title>11174</title>
<path fill="#eca36e" stroke="black" d="M532,-166.25C532,-166.25 390,-166.25 390,-166.25 384,-166.25 378,-160.25 378,-154.25 378,-154.25 378,-84 378,-84 378,-78 384,-72 390,-72 390,-72 532,-72 532,-72 538,-72 544,-78 544,-84 544,-84 544,-154.25 544,-154.25 544,-160.25 538,-166.25 532,-166.25"/>
<text text-anchor="middle" x="461" y="-148.95" font-family="Helvetica,sans-Serif" font-size="14.00">8_G &lt;= 0.5</text>
<text text-anchor="middle" x="461" y="-131.7" font-family="Helvetica,sans-Serif" font-size="14.00">entropy = 0.743</text>
<text text-anchor="middle" x="461" y="-114.45" font-family="Helvetica,sans-Serif" font-size="14.00">samples = 3746</text>
<text text-anchor="middle" x="461" y="-97.2" font-family="Helvetica,sans-Serif" font-size="14.00">value = [4719, 1262]</text>
<text text-anchor="middle" x="461" y="-79.95" font-family="Helvetica,sans-Serif" font-size="14.00">class = Animal</text>
</g>
<!-- 11173&#45;&gt;11174 -->
<g id="edge10" class="edge">
<title>11173&#45;&gt;11174</title>
<path fill="none" stroke="black" d="M512.76,-202.07C507.42,-193.63 501.81,-184.74 496.32,-176.05"/>
<polygon fill="black" stroke="black" points="499.31,-174.22 491.01,-167.64 493.39,-177.96 499.31,-174.22"/>
</g>
<!-- 12599 -->
<g id="node14" class="node">
<title>12599</title>
<path fill="#f8dcc9" stroke="black" d="M689.5,-166.25C689.5,-166.25 574.5,-166.25 574.5,-166.25 568.5,-166.25 562.5,-160.25 562.5,-154.25 562.5,-154.25 562.5,-84 562.5,-84 562.5,-78 568.5,-72 574.5,-72 574.5,-72 689.5,-72 689.5,-72 695.5,-72 701.5,-78 701.5,-84 701.5,-84 701.5,-154.25 701.5,-154.25 701.5,-160.25 695.5,-166.25 689.5,-166.25"/>
<text text-anchor="middle" x="632" y="-148.95" font-family="Helvetica,sans-Serif" font-size="14.00">17_C &lt;= 0.5</text>
<text text-anchor="middle" x="632" y="-131.7" font-family="Helvetica,sans-Serif" font-size="14.00">entropy = 0.982</text>
<text text-anchor="middle" x="632" y="-114.45" font-family="Helvetica,sans-Serif" font-size="14.00">samples = 105</text>
<text text-anchor="middle" x="632" y="-97.2" font-family="Helvetica,sans-Serif" font-size="14.00">value = [102, 74]</text>
<text text-anchor="middle" x="632" y="-79.95" font-family="Helvetica,sans-Serif" font-size="14.00">class = Animal</text>
</g>
<!-- 11173&#45;&gt;12599 -->
<g id="edge13" class="edge">
<title>11173&#45;&gt;12599</title>
<path fill="none" stroke="black" d="M574.49,-202.07C580.48,-193.54 586.79,-184.54 592.95,-175.77"/>
<polygon fill="black" stroke="black" points="595.81,-177.79 598.69,-167.6 590.08,-173.77 595.81,-177.79"/>
</g>
<!-- 11175 -->
<g id="node12" class="node">
<title>11175</title>
<path fill="#c0c0c0" stroke="black" d="M417,-36C417,-36 387,-36 387,-36 381,-36 375,-30 375,-24 375,-24 375,-12 375,-12 375,-6 381,0 387,0 387,0 417,0 417,0 423,0 429,-6 429,-12 429,-12 429,-24 429,-24 429,-30 423,-36 417,-36"/>
<text text-anchor="middle" x="402" y="-13.32" font-family="Helvetica,sans-Serif" font-size="14.00">(...)</text>
</g>
<!-- 11174&#45;&gt;11175 -->
<g id="edge11" class="edge">
<title>11174&#45;&gt;11175</title>
<path fill="none" stroke="black" d="M433.4,-71.75C428.15,-62.93 422.81,-53.96 418.06,-45.99"/>
<polygon fill="black" stroke="black" points="421.12,-44.28 413,-37.47 415.1,-47.86 421.12,-44.28"/>
</g>
<!-- 12166 -->
<g id="node13" class="node">
<title>12166</title>
<path fill="#c0c0c0" stroke="black" d="M489,-36C489,-36 459,-36 459,-36 453,-36 447,-30 447,-24 447,-24 447,-12 447,-12 447,-6 453,0 459,0 459,0 489,0 489,0 495,0 501,-6 501,-12 501,-12 501,-24 501,-24 501,-30 495,-36 489,-36"/>
<text text-anchor="middle" x="474" y="-13.32" font-family="Helvetica,sans-Serif" font-size="14.00">(...)</text>
</g>
<!-- 11174&#45;&gt;12166 -->
<g id="edge12" class="edge">
<title>11174&#45;&gt;12166</title>
<path fill="none" stroke="black" d="M467.08,-71.75C468.17,-63.42 469.28,-54.97 470.28,-47.34"/>
<polygon fill="black" stroke="black" points="473.72,-48.04 471.55,-37.67 466.78,-47.13 473.72,-48.04"/>
</g>
<!-- 12600 -->
<g id="node15" class="node">
<title>12600</title>
<path fill="#c0c0c0" stroke="black" d="M588,-36C588,-36 558,-36 558,-36 552,-36 546,-30 546,-24 546,-24 546,-12 546,-12 546,-6 552,0 558,0 558,0 588,0 588,0 594,0 600,-6 600,-12 600,-12 600,-24 600,-24 600,-30 594,-36 588,-36"/>
<text text-anchor="middle" x="573" y="-13.32" font-family="Helvetica,sans-Serif" font-size="14.00">(...)</text>
</g>
<!-- 12599&#45;&gt;12600 -->
<g id="edge14" class="edge">
<title>12599&#45;&gt;12600</title>
<path fill="none" stroke="black" d="M604.4,-71.75C599.15,-62.93 593.81,-53.96 589.06,-45.99"/>
<polygon fill="black" stroke="black" points="592.12,-44.28 584,-37.47 586.1,-47.86 592.12,-44.28"/>
</g>
<!-- 12671 -->
<g id="node16" class="node">
<title>12671</title>
<path fill="#c0c0c0" stroke="black" d="M660,-36C660,-36 630,-36 630,-36 624,-36 618,-30 618,-24 618,-24 618,-12 618,-12 618,-6 624,0 630,0 630,0 660,0 660,0 666,0 672,-6 672,-12 672,-12 672,-24 672,-24 672,-30 666,-36 660,-36"/>
<text text-anchor="middle" x="645" y="-13.32" font-family="Helvetica,sans-Serif" font-size="14.00">(...)</text>
</g>
<!-- 12599&#45;&gt;12671 -->
<g id="edge15" class="edge">
<title>12599&#45;&gt;12671</title>
<path fill="none" stroke="black" d="M638.08,-71.75C639.17,-63.42 640.28,-54.97 641.28,-47.34"/>
<polygon fill="black" stroke="black" points="644.72,-48.04 642.55,-37.67 637.78,-47.13 644.72,-48.04"/>
</g>
<!-- 12691 -->
<g id="node18" class="node">
<title>12691</title>
<path fill="#ffffff" stroke="black" d="M964,-296.5C964,-296.5 822,-296.5 822,-296.5 816,-296.5 810,-290.5 810,-284.5 810,-284.5 810,-214.25 810,-214.25 810,-208.25 816,-202.25 822,-202.25 822,-202.25 964,-202.25 964,-202.25 970,-202.25 976,-208.25 976,-214.25 976,-214.25 976,-284.5 976,-284.5 976,-290.5 970,-296.5 964,-296.5"/>
<text text-anchor="middle" x="893" y="-279.2" font-family="Helvetica,sans-Serif" font-size="14.00">17_U &lt;= 0.5</text>
<text text-anchor="middle" x="893" y="-261.95" font-family="Helvetica,sans-Serif" font-size="14.00">entropy = 1.0</text>
<text text-anchor="middle" x="893" y="-244.7" font-family="Helvetica,sans-Serif" font-size="14.00">samples = 6601</text>
<text text-anchor="middle" x="893" y="-227.45" font-family="Helvetica,sans-Serif" font-size="14.00">value = [5285, 5284]</text>
<text text-anchor="middle" x="893" y="-210.2" font-family="Helvetica,sans-Serif" font-size="14.00">class = Animal</text>
</g>
<!-- 12690&#45;&gt;12691 -->
<g id="edge17" class="edge">
<title>12690&#45;&gt;12691</title>
<path fill="none" stroke="black" d="M893,-332.32C893,-324.42 893,-316.13 893,-307.98"/>
<polygon fill="black" stroke="black" points="896.5,-308.12 893,-298.12 889.5,-308.12 896.5,-308.12"/>
</g>
<!-- 15634 -->
<g id="node25" class="node">
<title>15634</title>
<path fill="#75bbed" stroke="black" d="M1238,-296.5C1238,-296.5 1096,-296.5 1096,-296.5 1090,-296.5 1084,-290.5 1084,-284.5 1084,-284.5 1084,-214.25 1084,-214.25 1084,-208.25 1090,-202.25 1096,-202.25 1096,-202.25 1238,-202.25 1238,-202.25 1244,-202.25 1250,-208.25 1250,-214.25 1250,-214.25 1250,-284.5 1250,-284.5 1250,-290.5 1244,-296.5 1238,-296.5"/>
<text text-anchor="middle" x="1167" y="-279.2" font-family="Helvetica,sans-Serif" font-size="14.00">19_U &lt;= 0.5</text>
<text text-anchor="middle" x="1167" y="-261.95" font-family="Helvetica,sans-Serif" font-size="14.00">entropy = 0.783</text>
<text text-anchor="middle" x="1167" y="-244.7" font-family="Helvetica,sans-Serif" font-size="14.00">samples = 3827</text>
<text text-anchor="middle" x="1167" y="-227.45" font-family="Helvetica,sans-Serif" font-size="14.00">value = [1403, 4615]</text>
<text text-anchor="middle" x="1167" y="-210.2" font-family="Helvetica,sans-Serif" font-size="14.00">class = Plant</text>
</g>
<!-- 12690&#45;&gt;15634 -->
<g id="edge24" class="edge">
<title>12690&#45;&gt;15634</title>
<path fill="none" stroke="black" d="M976.33,-339.62C1007.01,-325.26 1041.97,-308.9 1073.49,-294.14"/>
<polygon fill="black" stroke="black" points="1074.66,-297.46 1082.23,-290.05 1071.69,-291.12 1074.66,-297.46"/>
</g>
<!-- 12692 -->
<g id="node19" class="node">
<title>12692</title>
<path fill="#f6d6be" stroke="black" d="M874,-166.25C874,-166.25 732,-166.25 732,-166.25 726,-166.25 720,-160.25 720,-154.25 720,-154.25 720,-84 720,-84 720,-78 726,-72 732,-72 732,-72 874,-72 874,-72 880,-72 886,-78 886,-84 886,-84 886,-154.25 886,-154.25 886,-160.25 880,-166.25 874,-166.25"/>
<text text-anchor="middle" x="803" y="-148.95" font-family="Helvetica,sans-Serif" font-size="14.00">22_G &lt;= 0.5</text>
<text text-anchor="middle" x="803" y="-131.7" font-family="Helvetica,sans-Serif" font-size="14.00">entropy = 0.972</text>
<text text-anchor="middle" x="803" y="-114.45" font-family="Helvetica,sans-Serif" font-size="14.00">samples = 4047</text>
<text text-anchor="middle" x="803" y="-97.2" font-family="Helvetica,sans-Serif" font-size="14.00">value = [3873, 2606]</text>
<text text-anchor="middle" x="803" y="-79.95" font-family="Helvetica,sans-Serif" font-size="14.00">class = Animal</text>
</g>
<!-- 12691&#45;&gt;12692 -->
<g id="edge18" class="edge">
<title>12691&#45;&gt;12692</title>
<path fill="none" stroke="black" d="M860.51,-202.07C854.52,-193.54 848.21,-184.54 842.05,-175.77"/>
<polygon fill="black" stroke="black" points="844.92,-173.77 836.31,-167.6 839.19,-177.79 844.92,-173.77"/>
</g>
<!-- 14775 -->
<g id="node22" class="node">
<title>14775</title>
<path fill="#a1d1f3" stroke="black" d="M1058,-166.25C1058,-166.25 916,-166.25 916,-166.25 910,-166.25 904,-160.25 904,-154.25 904,-154.25 904,-84 904,-84 904,-78 910,-72 916,-72 916,-72 1058,-72 1058,-72 1064,-72 1070,-78 1070,-84 1070,-84 1070,-154.25 1070,-154.25 1070,-160.25 1064,-166.25 1058,-166.25"/>
<text text-anchor="middle" x="987" y="-148.95" font-family="Helvetica,sans-Serif" font-size="14.00">19_C &lt;= 0.5</text>
<text text-anchor="middle" x="987" y="-131.7" font-family="Helvetica,sans-Serif" font-size="14.00">entropy = 0.93</text>
<text text-anchor="middle" x="987" y="-114.45" font-family="Helvetica,sans-Serif" font-size="14.00">samples = 2554</text>
<text text-anchor="middle" x="987" y="-97.2" font-family="Helvetica,sans-Serif" font-size="14.00">value = [1412, 2678]</text>
<text text-anchor="middle" x="987" y="-79.95" font-family="Helvetica,sans-Serif" font-size="14.00">class = Plant</text>
</g>
<!-- 12691&#45;&gt;14775 -->
<g id="edge21" class="edge">
<title>12691&#45;&gt;14775</title>
<path fill="none" stroke="black" d="M926.94,-202.07C933.26,-193.45 939.92,-184.35 946.42,-175.49"/>
<polygon fill="black" stroke="black" points="949.13,-177.71 952.22,-167.58 943.48,-173.58 949.13,-177.71"/>
</g>
<!-- 12693 -->
<g id="node20" class="node">
<title>12693</title>
<path fill="#c0c0c0" stroke="black" d="M766,-36C766,-36 736,-36 736,-36 730,-36 724,-30 724,-24 724,-24 724,-12 724,-12 724,-6 730,0 736,0 736,0 766,0 766,0 772,0 778,-6 778,-12 778,-12 778,-24 778,-24 778,-30 772,-36 766,-36"/>
<text text-anchor="middle" x="751" y="-13.32" font-family="Helvetica,sans-Serif" font-size="14.00">(...)</text>
</g>
<!-- 12692&#45;&gt;12693 -->
<g id="edge19" class="edge">
<title>12692&#45;&gt;12693</title>
<path fill="none" stroke="black" d="M778.67,-71.75C774.1,-63.03 769.45,-54.16 765.3,-46.26"/>
<polygon fill="black" stroke="black" points="768.46,-44.74 760.71,-37.51 762.26,-47.99 768.46,-44.74"/>
</g>
<!-- 14532 -->
<g id="node21" class="node">
<title>14532</title>
<path fill="#c0c0c0" stroke="black" d="M838,-36C838,-36 808,-36 808,-36 802,-36 796,-30 796,-24 796,-24 796,-12 796,-12 796,-6 802,0 808,0 808,0 838,0 838,0 844,0 850,-6 850,-12 850,-12 850,-24 850,-24 850,-30 844,-36 838,-36"/>
<text text-anchor="middle" x="823" y="-13.32" font-family="Helvetica,sans-Serif" font-size="14.00">(...)</text>
</g>
<!-- 12692&#45;&gt;14532 -->
<g id="edge20" class="edge">
<title>12692&#45;&gt;14532</title>
<path fill="none" stroke="black" d="M812.36,-71.75C814.04,-63.42 815.74,-54.97 817.28,-47.34"/>
<polygon fill="black" stroke="black" points="820.69,-48.15 819.24,-37.66 813.83,-46.77 820.69,-48.15"/>
</g>
<!-- 14776 -->
<g id="node23" class="node">
<title>14776</title>
<path fill="#c0c0c0" stroke="black" d="M948,-36C948,-36 918,-36 918,-36 912,-36 906,-30 906,-24 906,-24 906,-12 906,-12 906,-6 912,0 918,0 918,0 948,0 948,0 954,0 960,-6 960,-12 960,-12 960,-24 960,-24 960,-30 954,-36 948,-36"/>
<text text-anchor="middle" x="933" y="-13.32" font-family="Helvetica,sans-Serif" font-size="14.00">(...)</text>
</g>
<!-- 14775&#45;&gt;14776 -->
<g id="edge22" class="edge">
<title>14775&#45;&gt;14776</title>
<path fill="none" stroke="black" d="M961.74,-71.75C956.98,-63.03 952.16,-54.16 947.85,-46.26"/>
<polygon fill="black" stroke="black" points="950.94,-44.61 943.08,-37.5 944.79,-47.96 950.94,-44.61"/>
</g>
<!-- 15385 -->
<g id="node24" class="node">
<title>15385</title>
<path fill="#c0c0c0" stroke="black" d="M1020,-36C1020,-36 990,-36 990,-36 984,-36 978,-30 978,-24 978,-24 978,-12 978,-12 978,-6 984,0 990,0 990,0 1020,0 1020,0 1026,0 1032,-6 1032,-12 1032,-12 1032,-24 1032,-24 1032,-30 1026,-36 1020,-36"/>
<text text-anchor="middle" x="1005" y="-13.32" font-family="Helvetica,sans-Serif" font-size="14.00">(...)</text>
</g>
<!-- 14775&#45;&gt;15385 -->
<g id="edge23" class="edge">
<title>14775&#45;&gt;15385</title>
<path fill="none" stroke="black" d="M995.42,-71.75C996.93,-63.42 998.47,-54.97 999.85,-47.34"/>
<polygon fill="black" stroke="black" points="1003.27,-48.13 1001.61,-37.66 996.38,-46.88 1003.27,-48.13"/>
</g>
<!-- 15635 -->
<g id="node26" class="node">
<title>15635</title>
<path fill="#63b2eb" stroke="black" d="M1233.5,-166.25C1233.5,-166.25 1100.5,-166.25 1100.5,-166.25 1094.5,-166.25 1088.5,-160.25 1088.5,-154.25 1088.5,-154.25 1088.5,-84 1088.5,-84 1088.5,-78 1094.5,-72 1100.5,-72 1100.5,-72 1233.5,-72 1233.5,-72 1239.5,-72 1245.5,-78 1245.5,-84 1245.5,-84 1245.5,-154.25 1245.5,-154.25 1245.5,-160.25 1239.5,-166.25 1233.5,-166.25"/>
<text text-anchor="middle" x="1167" y="-148.95" font-family="Helvetica,sans-Serif" font-size="14.00">22_U &lt;= 0.5</text>
<text text-anchor="middle" x="1167" y="-131.7" font-family="Helvetica,sans-Serif" font-size="14.00">entropy = 0.669</text>
<text text-anchor="middle" x="1167" y="-114.45" font-family="Helvetica,sans-Serif" font-size="14.00">samples = 3238</text>
<text text-anchor="middle" x="1167" y="-97.2" font-family="Helvetica,sans-Serif" font-size="14.00">value = [890, 4197]</text>
<text text-anchor="middle" x="1167" y="-79.95" font-family="Helvetica,sans-Serif" font-size="14.00">class = Plant</text>
</g>
<!-- 15634&#45;&gt;15635 -->
<g id="edge25" class="edge">
<title>15634&#45;&gt;15635</title>
<path fill="none" stroke="black" d="M1167,-202.07C1167,-194.17 1167,-185.88 1167,-177.73"/>
<polygon fill="black" stroke="black" points="1170.5,-177.87 1167,-167.87 1163.5,-177.87 1170.5,-177.87"/>
</g>
<!-- 16268 -->
<g id="node29" class="node">
<title>16268</title>
<path fill="#fae8da" stroke="black" d="M1400,-166.25C1400,-166.25 1276,-166.25 1276,-166.25 1270,-166.25 1264,-160.25 1264,-154.25 1264,-154.25 1264,-84 1264,-84 1264,-78 1270,-72 1276,-72 1276,-72 1400,-72 1400,-72 1406,-72 1412,-78 1412,-84 1412,-84 1412,-154.25 1412,-154.25 1412,-160.25 1406,-166.25 1400,-166.25"/>
<text text-anchor="middle" x="1338" y="-148.95" font-family="Helvetica,sans-Serif" font-size="14.00">14_G &lt;= 0.5</text>
<text text-anchor="middle" x="1338" y="-131.7" font-family="Helvetica,sans-Serif" font-size="14.00">entropy = 0.992</text>
<text text-anchor="middle" x="1338" y="-114.45" font-family="Helvetica,sans-Serif" font-size="14.00">samples = 589</text>
<text text-anchor="middle" x="1338" y="-97.2" font-family="Helvetica,sans-Serif" font-size="14.00">value = [513, 418]</text>
<text text-anchor="middle" x="1338" y="-79.95" font-family="Helvetica,sans-Serif" font-size="14.00">class = Animal</text>
</g>
<!-- 15634&#45;&gt;16268 -->
<g id="edge28" class="edge">
<title>15634&#45;&gt;16268</title>
<path fill="none" stroke="black" d="M1228.73,-202.07C1241.13,-192.78 1254.25,-182.94 1266.93,-173.43"/>
<polygon fill="black" stroke="black" points="1268.96,-176.28 1274.86,-167.48 1264.76,-170.68 1268.96,-176.28"/>
</g>
<!-- 15636 -->
<g id="node27" class="node">
<title>15636</title>
<path fill="#c0c0c0" stroke="black" d="M1141,-36C1141,-36 1111,-36 1111,-36 1105,-36 1099,-30 1099,-24 1099,-24 1099,-12 1099,-12 1099,-6 1105,0 1111,0 1111,0 1141,0 1141,0 1147,0 1153,-6 1153,-12 1153,-12 1153,-24 1153,-24 1153,-30 1147,-36 1141,-36"/>
<text text-anchor="middle" x="1126" y="-13.32" font-family="Helvetica,sans-Serif" font-size="14.00">(...)</text>
</g>
<!-- 15635&#45;&gt;15636 -->
<g id="edge26" class="edge">
<title>15635&#45;&gt;15636</title>
<path fill="none" stroke="black" d="M1147.82,-71.75C1144.29,-63.22 1140.71,-54.57 1137.5,-46.8"/>
<polygon fill="black" stroke="black" points="1140.74,-45.47 1133.68,-37.57 1134.27,-48.15 1140.74,-45.47"/>
</g>
<!-- 16187 -->
<g id="node28" class="node">
<title>16187</title>
<path fill="#c0c0c0" stroke="black" d="M1213,-36C1213,-36 1183,-36 1183,-36 1177,-36 1171,-30 1171,-24 1171,-24 1171,-12 1171,-12 1171,-6 1177,0 1183,0 1183,0 1213,0 1213,0 1219,0 1225,-6 1225,-12 1225,-12 1225,-24 1225,-24 1225,-30 1219,-36 1213,-36"/>
<text text-anchor="middle" x="1198" y="-13.32" font-family="Helvetica,sans-Serif" font-size="14.00">(...)</text>
</g>
<!-- 15635&#45;&gt;16187 -->
<g id="edge27" class="edge">
<title>15635&#45;&gt;16187</title>
<path fill="none" stroke="black" d="M1181.5,-71.75C1184.14,-63.32 1186.81,-54.77 1189.22,-47.07"/>
<polygon fill="black" stroke="black" points="1192.53,-48.21 1192.18,-37.62 1185.85,-46.12 1192.53,-48.21"/>
</g>
<!-- 16269 -->
<g id="node30" class="node">
<title>16269</title>
<path fill="#c0c0c0" stroke="black" d="M1317,-36C1317,-36 1287,-36 1287,-36 1281,-36 1275,-30 1275,-24 1275,-24 1275,-12 1275,-12 1275,-6 1281,0 1287,0 1287,0 1317,0 1317,0 1323,0 1329,-6 1329,-12 1329,-12 1329,-24 1329,-24 1329,-30 1323,-36 1317,-36"/>
<text text-anchor="middle" x="1302" y="-13.32" font-family="Helvetica,sans-Serif" font-size="14.00">(...)</text>
</g>
<!-- 16268&#45;&gt;16269 -->
<g id="edge29" class="edge">
<title>16268&#45;&gt;16269</title>
<path fill="none" stroke="black" d="M1321.16,-71.75C1318.06,-63.22 1314.92,-54.57 1312.1,-46.8"/>
<polygon fill="black" stroke="black" points="1315.46,-45.8 1308.75,-37.6 1308.88,-48.19 1315.46,-45.8"/>
</g>
<!-- 16484 -->
<g id="node31" class="node">
<title>16484</title>
<path fill="#c0c0c0" stroke="black" d="M1389,-36C1389,-36 1359,-36 1359,-36 1353,-36 1347,-30 1347,-24 1347,-24 1347,-12 1347,-12 1347,-6 1353,0 1359,0 1359,0 1389,0 1389,0 1395,0 1401,-6 1401,-12 1401,-12 1401,-24 1401,-24 1401,-30 1395,-36 1389,-36"/>
<text text-anchor="middle" x="1374" y="-13.32" font-family="Helvetica,sans-Serif" font-size="14.00">(...)</text>
</g>
<!-- 16268&#45;&gt;16484 -->
<g id="edge30" class="edge">
<title>16268&#45;&gt;16484</title>
<path fill="none" stroke="black" d="M1354.84,-71.75C1357.94,-63.22 1361.08,-54.57 1363.9,-46.8"/>
<polygon fill="black" stroke="black" points="1367.12,-48.19 1367.25,-37.6 1360.54,-45.8 1367.12,-48.19"/>
</g>
</g>
</svg>
