<?xml version="1.0" encoding="UTF-8" standalone="no"?>
<!DOCTYPE svg PUBLIC "-//W3C//DTD SVG 1.1//EN"
 "http://www.w3.org/Graphics/SVG/1.1/DTD/svg11.dtd">
<!-- Generated by graphviz version 12.0.0 (20240803.0821)
 -->
<!-- Title: Tree Pages: 1 -->
<svg width="1367pt" height="565pt"
 viewBox="0.00 0.00 1366.88 565.00" xmlns="http://www.w3.org/2000/svg" xmlns:xlink="http://www.w3.org/1999/xlink">
<g id="graph0" class="graph" transform="scale(1 1) rotate(0) translate(4 561)">
<title>Tree</title>
<polygon fill="white" stroke="none" points="-4,4 -4,-561 1362.88,-561 1362.88,4 -4,4"/>
<!-- 0 -->
<g id="node1" class="node">
<title>0</title>
<path fill="#fefeff" stroke="black" d="M818.5,-557C818.5,-557 658.5,-557 658.5,-557 652.5,-557 646.5,-551 646.5,-545 646.5,-545 646.5,-474.75 646.5,-474.75 646.5,-468.75 652.5,-462.75 658.5,-462.75 658.5,-462.75 818.5,-462.75 818.5,-462.75 824.5,-462.75 830.5,-468.75 830.5,-474.75 830.5,-474.75 830.5,-545 830.5,-545 830.5,-551 824.5,-557 818.5,-557"/>
<text text-anchor="middle" x="738.5" y="-539.7" font-family="Helvetica,sans-Serif" font-size="14.00">23_U &lt;= 0.5</text>
<text text-anchor="middle" x="738.5" y="-522.45" font-family="Helvetica,sans-Serif" font-size="14.00">entropy = 1.0</text>
<text text-anchor="middle" x="738.5" y="-505.2" font-family="Helvetica,sans-Serif" font-size="14.00">samples = 38165</text>
<text text-anchor="middle" x="738.5" y="-487.95" font-family="Helvetica,sans-Serif" font-size="14.00">value = [30074, 30271]</text>
<text text-anchor="middle" x="738.5" y="-470.7" font-family="Helvetica,sans-Serif" font-size="14.00">class = Plant</text>
</g>
<!-- 1 -->
<g id="node2" class="node">
<title>1</title>
<path fill="#f0f7fd" stroke="black" d="M638.5,-426.75C638.5,-426.75 478.5,-426.75 478.5,-426.75 472.5,-426.75 466.5,-420.75 466.5,-414.75 466.5,-414.75 466.5,-344.5 466.5,-344.5 466.5,-338.5 472.5,-332.5 478.5,-332.5 478.5,-332.5 638.5,-332.5 638.5,-332.5 644.5,-332.5 650.5,-338.5 650.5,-344.5 650.5,-344.5 650.5,-414.75 650.5,-414.75 650.5,-420.75 644.5,-426.75 638.5,-426.75"/>
<text text-anchor="middle" x="558.5" y="-409.45" font-family="Helvetica,sans-Serif" font-size="14.00">9_G &lt;= 0.5</text>
<text text-anchor="middle" x="558.5" y="-392.2" font-family="Helvetica,sans-Serif" font-size="14.00">entropy = 0.999</text>
<text text-anchor="middle" x="558.5" y="-374.95" font-family="Helvetica,sans-Serif" font-size="14.00">samples = 36150</text>
<text text-anchor="middle" x="558.5" y="-357.7" font-family="Helvetica,sans-Serif" font-size="14.00">value = [27456, 29749]</text>
<text text-anchor="middle" x="558.5" y="-340.45" font-family="Helvetica,sans-Serif" font-size="14.00">class = Plant</text>
</g>
<!-- 0&#45;&gt;1 -->
<g id="edge1" class="edge">
<title>0&#45;&gt;1</title>
<path fill="none" stroke="black" d="M673.26,-462.39C660.18,-453.07 646.35,-443.22 632.98,-433.69"/>
<polygon fill="black" stroke="black" points="635.23,-430.99 625.05,-428.04 631.16,-436.7 635.23,-430.99"/>
<text text-anchor="middle" x="627.96" y="-447.14" font-family="Helvetica,sans-Serif" font-size="14.00">True</text>
</g>
<!-- 16228 -->
<g id="node17" class="node">
<title>16228</title>
<path fill="#ea9a60" stroke="black" d="M974,-426.75C974,-426.75 841,-426.75 841,-426.75 835,-426.75 829,-420.75 829,-414.75 829,-414.75 829,-344.5 829,-344.5 829,-338.5 835,-332.5 841,-332.5 841,-332.5 974,-332.5 974,-332.5 980,-332.5 986,-338.5 986,-344.5 986,-344.5 986,-414.75 986,-414.75 986,-420.75 980,-426.75 974,-426.75"/>
<text text-anchor="middle" x="907.5" y="-409.45" font-family="Helvetica,sans-Serif" font-size="14.00">25_U &lt;= 0.5</text>
<text text-anchor="middle" x="907.5" y="-392.2" font-family="Helvetica,sans-Serif" font-size="14.00">entropy = 0.649</text>
<text text-anchor="middle" x="907.5" y="-374.95" font-family="Helvetica,sans-Serif" font-size="14.00">samples = 2015</text>
<text text-anchor="middle" x="907.5" y="-357.7" font-family="Helvetica,sans-Serif" font-size="14.00">value = [2618, 522]</text>
<text text-anchor="middle" x="907.5" y="-340.45" font-family="Helvetica,sans-Serif" font-size="14.00">class = Animal</text>
</g>
<!-- 0&#45;&gt;16228 -->
<g id="edge16" class="edge">
<title>0&#45;&gt;16228</title>
<path fill="none" stroke="black" d="M799.51,-462.57C811.76,-453.28 824.73,-443.44 837.26,-433.93"/>
<polygon fill="black" stroke="black" points="839.24,-436.82 845.09,-427.99 835.01,-431.25 839.24,-436.82"/>
<text text-anchor="middle" x="842.9" y="-447.17" font-family="Helvetica,sans-Serif" font-size="14.00">False</text>
</g>
<!-- 2 -->
<g id="node3" class="node">
<title>2</title>
<path fill="#fdf6f1" stroke="black" d="M360.5,-296.5C360.5,-296.5 200.5,-296.5 200.5,-296.5 194.5,-296.5 188.5,-290.5 188.5,-284.5 188.5,-284.5 188.5,-214.25 188.5,-214.25 188.5,-208.25 194.5,-202.25 200.5,-202.25 200.5,-202.25 360.5,-202.25 360.5,-202.25 366.5,-202.25 372.5,-208.25 372.5,-214.25 372.5,-214.25 372.5,-284.5 372.5,-284.5 372.5,-290.5 366.5,-296.5 360.5,-296.5"/>
<text text-anchor="middle" x="280.5" y="-279.2" font-family="Helvetica,sans-Serif" font-size="14.00">1_U &lt;= 0.5</text>
<text text-anchor="middle" x="280.5" y="-261.95" font-family="Helvetica,sans-Serif" font-size="14.00">entropy = 0.999</text>
<text text-anchor="middle" x="280.5" y="-244.7" font-family="Helvetica,sans-Serif" font-size="14.00">samples = 26010</text>
<text text-anchor="middle" x="280.5" y="-227.45" font-family="Helvetica,sans-Serif" font-size="14.00">value = [21355, 19815]</text>
<text text-anchor="middle" x="280.5" y="-210.2" font-family="Helvetica,sans-Serif" font-size="14.00">class = Animal</text>
</g>
<!-- 1&#45;&gt;2 -->
<g id="edge2" class="edge">
<title>1&#45;&gt;2</title>
<path fill="none" stroke="black" d="M466.32,-336.1C439.69,-323.81 410.46,-310.33 383.24,-297.77"/>
<polygon fill="black" stroke="black" points="384.83,-294.65 374.28,-293.64 381.9,-301.01 384.83,-294.65"/>
</g>
<!-- 11973 -->
<g id="node10" class="node">
<title>11973</title>
<path fill="#b3d9f5" stroke="black" d="M629.5,-296.5C629.5,-296.5 487.5,-296.5 487.5,-296.5 481.5,-296.5 475.5,-290.5 475.5,-284.5 475.5,-284.5 475.5,-214.25 475.5,-214.25 475.5,-208.25 481.5,-202.25 487.5,-202.25 487.5,-202.25 629.5,-202.25 629.5,-202.25 635.5,-202.25 641.5,-208.25 641.5,-214.25 641.5,-214.25 641.5,-284.5 641.5,-284.5 641.5,-290.5 635.5,-296.5 629.5,-296.5"/>
<text text-anchor="middle" x="558.5" y="-279.2" font-family="Helvetica,sans-Serif" font-size="14.00">20_G &lt;= 0.5</text>
<text text-anchor="middle" x="558.5" y="-261.95" font-family="Helvetica,sans-Serif" font-size="14.00">entropy = 0.958</text>
<text text-anchor="middle" x="558.5" y="-244.7" font-family="Helvetica,sans-Serif" font-size="14.00">samples = 10140</text>
<text text-anchor="middle" x="558.5" y="-227.45" font-family="Helvetica,sans-Serif" font-size="14.00">value = [6101, 9934]</text>
<text text-anchor="middle" x="558.5" y="-210.2" font-family="Helvetica,sans-Serif" font-size="14.00">class = Plant</text>
</g>
<!-- 1&#45;&gt;11973 -->
<g id="edge9" class="edge">
<title>1&#45;&gt;11973</title>
<path fill="none" stroke="black" d="M558.5,-332.32C558.5,-324.42 558.5,-316.13 558.5,-307.98"/>
<polygon fill="black" stroke="black" points="562,-308.12 558.5,-298.12 555,-308.12 562,-308.12"/>
</g>
<!-- 3 -->
<g id="node4" class="node">
<title>3</title>
<path fill="#f6d4bc" stroke="black" d="M163,-166.25C163,-166.25 12,-166.25 12,-166.25 6,-166.25 0,-160.25 0,-154.25 0,-154.25 0,-84 0,-84 0,-78 6,-72 12,-72 12,-72 163,-72 163,-72 169,-72 175,-78 175,-84 175,-84 175,-154.25 175,-154.25 175,-160.25 169,-166.25 163,-166.25"/>
<text text-anchor="middle" x="87.5" y="-148.95" font-family="Helvetica,sans-Serif" font-size="14.00">17_A &lt;= 0.5</text>
<text text-anchor="middle" x="87.5" y="-131.7" font-family="Helvetica,sans-Serif" font-size="14.00">entropy = 0.969</text>
<text text-anchor="middle" x="87.5" y="-114.45" font-family="Helvetica,sans-Serif" font-size="14.00">samples = 12092</text>
<text text-anchor="middle" x="87.5" y="-97.2" font-family="Helvetica,sans-Serif" font-size="14.00">value = [11520, 7600]</text>
<text text-anchor="middle" x="87.5" y="-79.95" font-family="Helvetica,sans-Serif" font-size="14.00">class = Animal</text>
</g>
<!-- 2&#45;&gt;3 -->
<g id="edge3" class="edge">
<title>2&#45;&gt;3</title>
<path fill="none" stroke="black" d="M210.55,-201.89C196.39,-192.48 181.4,-182.53 166.95,-172.92"/>
<polygon fill="black" stroke="black" points="169.06,-170.12 158.8,-167.5 165.19,-175.95 169.06,-170.12"/>
</g>
<!-- 6864 -->
<g id="node7" class="node">
<title>6864</title>
<path fill="#d8ecfa" stroke="black" d="M356,-166.25C356,-166.25 205,-166.25 205,-166.25 199,-166.25 193,-160.25 193,-154.25 193,-154.25 193,-84 193,-84 193,-78 199,-72 205,-72 205,-72 356,-72 356,-72 362,-72 368,-78 368,-84 368,-84 368,-154.25 368,-154.25 368,-160.25 362,-166.25 356,-166.25"/>
<text text-anchor="middle" x="280.5" y="-148.95" font-family="Helvetica,sans-Serif" font-size="14.00">22_G &lt;= 0.5</text>
<text text-anchor="middle" x="280.5" y="-131.7" font-family="Helvetica,sans-Serif" font-size="14.00">entropy = 0.992</text>
<text text-anchor="middle" x="280.5" y="-114.45" font-family="Helvetica,sans-Serif" font-size="14.00">samples = 13918</text>
<text text-anchor="middle" x="280.5" y="-97.2" font-family="Helvetica,sans-Serif" font-size="14.00">value = [9835, 12215]</text>
<text text-anchor="middle" x="280.5" y="-79.95" font-family="Helvetica,sans-Serif" font-size="14.00">class = Plant</text>
</g>
<!-- 2&#45;&gt;6864 -->
<g id="edge6" class="edge">
<title>2&#45;&gt;6864</title>
<path fill="none" stroke="black" d="M280.5,-202.07C280.5,-194.17 280.5,-185.88 280.5,-177.73"/>
<polygon fill="black" stroke="black" points="284,-177.87 280.5,-167.87 277,-177.87 284,-177.87"/>
</g>
<!-- 4 -->
<g id="node5" class="node">
<title>4</title>
<path fill="#c0c0c0" stroke="black" d="M66.5,-36C66.5,-36 36.5,-36 36.5,-36 30.5,-36 24.5,-30 24.5,-24 24.5,-24 24.5,-12 24.5,-12 24.5,-6 30.5,0 36.5,0 36.5,0 66.5,0 66.5,0 72.5,0 78.5,-6 78.5,-12 78.5,-12 78.5,-24 78.5,-24 78.5,-30 72.5,-36 66.5,-36"/>
<text text-anchor="middle" x="51.5" y="-13.32" font-family="Helvetica,sans-Serif" font-size="14.00">(...)</text>
</g>
<!-- 3&#45;&gt;4 -->
<g id="edge4" class="edge">
<title>3&#45;&gt;4</title>
<path fill="none" stroke="black" d="M70.66,-71.75C67.56,-63.22 64.42,-54.57 61.6,-46.8"/>
<polygon fill="black" stroke="black" points="64.96,-45.8 58.25,-37.6 58.38,-48.19 64.96,-45.8"/>
</g>
<!-- 5385 -->
<g id="node6" class="node">
<title>5385</title>
<path fill="#c0c0c0" stroke="black" d="M138.5,-36C138.5,-36 108.5,-36 108.5,-36 102.5,-36 96.5,-30 96.5,-24 96.5,-24 96.5,-12 96.5,-12 96.5,-6 102.5,0 108.5,0 108.5,0 138.5,0 138.5,0 144.5,0 150.5,-6 150.5,-12 150.5,-12 150.5,-24 150.5,-24 150.5,-30 144.5,-36 138.5,-36"/>
<text text-anchor="middle" x="123.5" y="-13.32" font-family="Helvetica,sans-Serif" font-size="14.00">(...)</text>
</g>
<!-- 3&#45;&gt;5385 -->
<g id="edge5" class="edge">
<title>3&#45;&gt;5385</title>
<path fill="none" stroke="black" d="M104.34,-71.75C107.44,-63.22 110.58,-54.57 113.4,-46.8"/>
<polygon fill="black" stroke="black" points="116.62,-48.19 116.75,-37.6 110.04,-45.8 116.62,-48.19"/>
</g>
<!-- 6865 -->
<g id="node8" class="node">
<title>6865</title>
<path fill="#c0c0c0" stroke="black" d="M266.5,-36C266.5,-36 236.5,-36 236.5,-36 230.5,-36 224.5,-30 224.5,-24 224.5,-24 224.5,-12 224.5,-12 224.5,-6 230.5,0 236.5,0 236.5,0 266.5,0 266.5,0 272.5,0 278.5,-6 278.5,-12 278.5,-12 278.5,-24 278.5,-24 278.5,-30 272.5,-36 266.5,-36"/>
<text text-anchor="middle" x="251.5" y="-13.32" font-family="Helvetica,sans-Serif" font-size="14.00">(...)</text>
</g>
<!-- 6864&#45;&gt;6865 -->
<g id="edge7" class="edge">
<title>6864&#45;&gt;6865</title>
<path fill="none" stroke="black" d="M266.93,-71.75C264.47,-63.32 261.96,-54.77 259.71,-47.07"/>
<polygon fill="black" stroke="black" points="263.12,-46.24 256.95,-37.63 256.4,-48.21 263.12,-46.24"/>
</g>
<!-- 11430 -->
<g id="node9" class="node">
<title>11430</title>
<path fill="#c0c0c0" stroke="black" d="M338.5,-36C338.5,-36 308.5,-36 308.5,-36 302.5,-36 296.5,-30 296.5,-24 296.5,-24 296.5,-12 296.5,-12 296.5,-6 302.5,0 308.5,0 308.5,0 338.5,0 338.5,0 344.5,0 350.5,-6 350.5,-12 350.5,-12 350.5,-24 350.5,-24 350.5,-30 344.5,-36 338.5,-36"/>
<text text-anchor="middle" x="323.5" y="-13.32" font-family="Helvetica,sans-Serif" font-size="14.00">(...)</text>
</g>
<!-- 6864&#45;&gt;11430 -->
<g id="edge8" class="edge">
<title>6864&#45;&gt;11430</title>
<path fill="none" stroke="black" d="M300.62,-71.75C304.36,-63.12 308.16,-54.36 311.56,-46.53"/>
<polygon fill="black" stroke="black" points="314.68,-48.13 315.45,-37.56 308.26,-45.34 314.68,-48.13"/>
</g>
<!-- 11974 -->
<g id="node11" class="node">
<title>11974</title>
<path fill="#9dcef2" stroke="black" d="M540.5,-166.25C540.5,-166.25 398.5,-166.25 398.5,-166.25 392.5,-166.25 386.5,-160.25 386.5,-154.25 386.5,-154.25 386.5,-84 386.5,-84 386.5,-78 392.5,-72 398.5,-72 398.5,-72 540.5,-72 540.5,-72 546.5,-72 552.5,-78 552.5,-84 552.5,-84 552.5,-154.25 552.5,-154.25 552.5,-160.25 546.5,-166.25 540.5,-166.25"/>
<text text-anchor="middle" x="469.5" y="-148.95" font-family="Helvetica,sans-Serif" font-size="14.00">6_U &lt;= 0.5</text>
<text text-anchor="middle" x="469.5" y="-131.7" font-family="Helvetica,sans-Serif" font-size="14.00">entropy = 0.92</text>
<text text-anchor="middle" x="469.5" y="-114.45" font-family="Helvetica,sans-Serif" font-size="14.00">samples = 7905</text>
<text text-anchor="middle" x="469.5" y="-97.2" font-family="Helvetica,sans-Serif" font-size="14.00">value = [4185, 8315]</text>
<text text-anchor="middle" x="469.5" y="-79.95" font-family="Helvetica,sans-Serif" font-size="14.00">class = Plant</text>
</g>
<!-- 11973&#45;&gt;11974 -->
<g id="edge10" class="edge">
<title>11973&#45;&gt;11974</title>
<path fill="none" stroke="black" d="M526.37,-202.07C520.45,-193.54 514.2,-184.54 508.11,-175.77"/>
<polygon fill="black" stroke="black" points="511.02,-173.82 502.45,-167.6 505.27,-177.81 511.02,-173.82"/>
</g>
<!-- 15157 -->
<g id="node14" class="node">
<title>15157</title>
<path fill="#fbebe0" stroke="black" d="M724.5,-166.25C724.5,-166.25 582.5,-166.25 582.5,-166.25 576.5,-166.25 570.5,-160.25 570.5,-154.25 570.5,-154.25 570.5,-84 570.5,-84 570.5,-78 576.5,-72 582.5,-72 582.5,-72 724.5,-72 724.5,-72 730.5,-72 736.5,-78 736.5,-84 736.5,-84 736.5,-154.25 736.5,-154.25 736.5,-160.25 730.5,-166.25 724.5,-166.25"/>
<text text-anchor="middle" x="653.5" y="-148.95" font-family="Helvetica,sans-Serif" font-size="14.00">7_A &lt;= 0.5</text>
<text text-anchor="middle" x="653.5" y="-131.7" font-family="Helvetica,sans-Serif" font-size="14.00">entropy = 0.995</text>
<text text-anchor="middle" x="653.5" y="-114.45" font-family="Helvetica,sans-Serif" font-size="14.00">samples = 2235</text>
<text text-anchor="middle" x="653.5" y="-97.2" font-family="Helvetica,sans-Serif" font-size="14.00">value = [1916, 1619]</text>
<text text-anchor="middle" x="653.5" y="-79.95" font-family="Helvetica,sans-Serif" font-size="14.00">class = Animal</text>
</g>
<!-- 11973&#45;&gt;15157 -->
<g id="edge13" class="edge">
<title>11973&#45;&gt;15157</title>
<path fill="none" stroke="black" d="M592.8,-202.07C599.19,-193.45 605.92,-184.35 612.49,-175.49"/>
<polygon fill="black" stroke="black" points="615.21,-177.69 618.35,-167.57 609.59,-173.53 615.21,-177.69"/>
</g>
<!-- 11975 -->
<g id="node12" class="node">
<title>11975</title>
<path fill="#c0c0c0" stroke="black" d="M432.5,-36C432.5,-36 402.5,-36 402.5,-36 396.5,-36 390.5,-30 390.5,-24 390.5,-24 390.5,-12 390.5,-12 390.5,-6 396.5,0 402.5,0 402.5,0 432.5,0 432.5,0 438.5,0 444.5,-6 444.5,-12 444.5,-12 444.5,-24 444.5,-24 444.5,-30 438.5,-36 432.5,-36"/>
<text text-anchor="middle" x="417.5" y="-13.32" font-family="Helvetica,sans-Serif" font-size="14.00">(...)</text>
</g>
<!-- 11974&#45;&gt;11975 -->
<g id="edge11" class="edge">
<title>11974&#45;&gt;11975</title>
<path fill="none" stroke="black" d="M445.17,-71.75C440.6,-63.03 435.95,-54.16 431.8,-46.26"/>
<polygon fill="black" stroke="black" points="434.96,-44.74 427.21,-37.51 428.76,-47.99 434.96,-44.74"/>
</g>
<!-- 14322 -->
<g id="node13" class="node">
<title>14322</title>
<path fill="#c0c0c0" stroke="black" d="M504.5,-36C504.5,-36 474.5,-36 474.5,-36 468.5,-36 462.5,-30 462.5,-24 462.5,-24 462.5,-12 462.5,-12 462.5,-6 468.5,0 474.5,0 474.5,0 504.5,0 504.5,0 510.5,0 516.5,-6 516.5,-12 516.5,-12 516.5,-24 516.5,-24 516.5,-30 510.5,-36 504.5,-36"/>
<text text-anchor="middle" x="489.5" y="-13.32" font-family="Helvetica,sans-Serif" font-size="14.00">(...)</text>
</g>
<!-- 11974&#45;&gt;14322 -->
<g id="edge12" class="edge">
<title>11974&#45;&gt;14322</title>
<path fill="none" stroke="black" d="M478.86,-71.75C480.54,-63.42 482.24,-54.97 483.78,-47.34"/>
<polygon fill="black" stroke="black" points="487.19,-48.15 485.74,-37.66 480.33,-46.77 487.19,-48.15"/>
</g>
<!-- 15158 -->
<g id="node15" class="node">
<title>15158</title>
<path fill="#c0c0c0" stroke="black" d="M614.5,-36C614.5,-36 584.5,-36 584.5,-36 578.5,-36 572.5,-30 572.5,-24 572.5,-24 572.5,-12 572.5,-12 572.5,-6 578.5,0 584.5,0 584.5,0 614.5,0 614.5,0 620.5,0 626.5,-6 626.5,-12 626.5,-12 626.5,-24 626.5,-24 626.5,-30 620.5,-36 614.5,-36"/>
<text text-anchor="middle" x="599.5" y="-13.32" font-family="Helvetica,sans-Serif" font-size="14.00">(...)</text>
</g>
<!-- 15157&#45;&gt;15158 -->
<g id="edge14" class="edge">
<title>15157&#45;&gt;15158</title>
<path fill="none" stroke="black" d="M628.24,-71.75C623.48,-63.03 618.66,-54.16 614.35,-46.26"/>
<polygon fill="black" stroke="black" points="617.44,-44.61 609.58,-37.5 611.29,-47.96 617.44,-44.61"/>
</g>
<!-- 15995 -->
<g id="node16" class="node">
<title>15995</title>
<path fill="#c0c0c0" stroke="black" d="M686.5,-36C686.5,-36 656.5,-36 656.5,-36 650.5,-36 644.5,-30 644.5,-24 644.5,-24 644.5,-12 644.5,-12 644.5,-6 650.5,0 656.5,0 656.5,0 686.5,0 686.5,0 692.5,0 698.5,-6 698.5,-12 698.5,-12 698.5,-24 698.5,-24 698.5,-30 692.5,-36 686.5,-36"/>
<text text-anchor="middle" x="671.5" y="-13.32" font-family="Helvetica,sans-Serif" font-size="14.00">(...)</text>
</g>
<!-- 15157&#45;&gt;15995 -->
<g id="edge15" class="edge">
<title>15157&#45;&gt;15995</title>
<path fill="none" stroke="black" d="M661.92,-71.75C663.43,-63.42 664.97,-54.97 666.35,-47.34"/>
<polygon fill="black" stroke="black" points="669.77,-48.13 668.11,-37.66 662.88,-46.88 669.77,-48.13"/>
</g>
<!-- 16229 -->
<g id="node18" class="node">
<title>16229</title>
<path fill="#ea995f" stroke="black" d="M974,-296.5C974,-296.5 841,-296.5 841,-296.5 835,-296.5 829,-290.5 829,-284.5 829,-284.5 829,-214.25 829,-214.25 829,-208.25 835,-202.25 841,-202.25 841,-202.25 974,-202.25 974,-202.25 980,-202.25 986,-208.25 986,-214.25 986,-214.25 986,-284.5 986,-284.5 986,-290.5 980,-296.5 974,-296.5"/>
<text text-anchor="middle" x="907.5" y="-279.2" font-family="Helvetica,sans-Serif" font-size="14.00">25_G &lt;= 0.5</text>
<text text-anchor="middle" x="907.5" y="-261.95" font-family="Helvetica,sans-Serif" font-size="14.00">entropy = 0.637</text>
<text text-anchor="middle" x="907.5" y="-244.7" font-family="Helvetica,sans-Serif" font-size="14.00">samples = 1933</text>
<text text-anchor="middle" x="907.5" y="-227.45" font-family="Helvetica,sans-Serif" font-size="14.00">value = [2532, 487]</text>
<text text-anchor="middle" x="907.5" y="-210.2" font-family="Helvetica,sans-Serif" font-size="14.00">class = Animal</text>
</g>
<!-- 16228&#45;&gt;16229 -->
<g id="edge17" class="edge">
<title>16228&#45;&gt;16229</title>
<path fill="none" stroke="black" d="M907.5,-332.32C907.5,-324.42 907.5,-316.13 907.5,-307.98"/>
<polygon fill="black" stroke="black" points="911,-308.12 907.5,-298.12 904,-308.12 911,-308.12"/>
</g>
<!-- 16984 -->
<g id="node25" class="node">
<title>16984</title>
<path fill="#f0b48a" stroke="black" d="M1197.88,-296.5C1197.88,-296.5 1091.12,-296.5 1091.12,-296.5 1085.12,-296.5 1079.12,-290.5 1079.12,-284.5 1079.12,-284.5 1079.12,-214.25 1079.12,-214.25 1079.12,-208.25 1085.12,-202.25 1091.12,-202.25 1091.12,-202.25 1197.88,-202.25 1197.88,-202.25 1203.88,-202.25 1209.88,-208.25 1209.88,-214.25 1209.88,-214.25 1209.88,-284.5 1209.88,-284.5 1209.88,-290.5 1203.88,-296.5 1197.88,-296.5"/>
<text text-anchor="middle" x="1144.5" y="-279.2" font-family="Helvetica,sans-Serif" font-size="14.00">20_A &lt;= 0.5</text>
<text text-anchor="middle" x="1144.5" y="-261.95" font-family="Helvetica,sans-Serif" font-size="14.00">entropy = 0.868</text>
<text text-anchor="middle" x="1144.5" y="-244.7" font-family="Helvetica,sans-Serif" font-size="14.00">samples = 82</text>
<text text-anchor="middle" x="1144.5" y="-227.45" font-family="Helvetica,sans-Serif" font-size="14.00">value = [86, 35]</text>
<text text-anchor="middle" x="1144.5" y="-210.2" font-family="Helvetica,sans-Serif" font-size="14.00">class = Animal</text>
</g>
<!-- 16228&#45;&gt;16984 -->
<g id="edge24" class="edge">
<title>16228&#45;&gt;16984</title>
<path fill="none" stroke="black" d="M986.42,-335.92C1013.04,-321.51 1042.68,-305.47 1069.04,-291.21"/>
<polygon fill="black" stroke="black" points="1070.5,-294.4 1077.63,-286.56 1067.17,-288.24 1070.5,-294.4"/>
</g>
<!-- 16230 -->
<g id="node19" class="node">
<title>16230</title>
<path fill="#ea985d" stroke="black" d="M900,-166.25C900,-166.25 767,-166.25 767,-166.25 761,-166.25 755,-160.25 755,-154.25 755,-154.25 755,-84 755,-84 755,-78 761,-72 767,-72 767,-72 900,-72 900,-72 906,-72 912,-78 912,-84 912,-84 912,-154.25 912,-154.25 912,-160.25 906,-166.25 900,-166.25"/>
<text text-anchor="middle" x="833.5" y="-148.95" font-family="Helvetica,sans-Serif" font-size="14.00">18_G &lt;= 0.5</text>
<text text-anchor="middle" x="833.5" y="-131.7" font-family="Helvetica,sans-Serif" font-size="14.00">entropy = 0.615</text>
<text text-anchor="middle" x="833.5" y="-114.45" font-family="Helvetica,sans-Serif" font-size="14.00">samples = 1868</text>
<text text-anchor="middle" x="833.5" y="-97.2" font-family="Helvetica,sans-Serif" font-size="14.00">value = [2475, 444]</text>
<text text-anchor="middle" x="833.5" y="-79.95" font-family="Helvetica,sans-Serif" font-size="14.00">class = Animal</text>
</g>
<!-- 16229&#45;&gt;16230 -->
<g id="edge18" class="edge">
<title>16229&#45;&gt;16230</title>
<path fill="none" stroke="black" d="M880.78,-202.07C875.96,-193.72 870.89,-184.93 865.93,-176.33"/>
<polygon fill="black" stroke="black" points="868.96,-174.58 860.93,-167.67 862.9,-178.08 868.96,-174.58"/>
</g>
<!-- 16953 -->
<g id="node22" class="node">
<title>16953</title>
<path fill="#f9e0ce" stroke="black" d="M1048.88,-166.25C1048.88,-166.25 942.12,-166.25 942.12,-166.25 936.12,-166.25 930.12,-160.25 930.12,-154.25 930.12,-154.25 930.12,-84 930.12,-84 930.12,-78 936.12,-72 942.12,-72 942.12,-72 1048.88,-72 1048.88,-72 1054.88,-72 1060.88,-78 1060.88,-84 1060.88,-84 1060.88,-154.25 1060.88,-154.25 1060.88,-160.25 1054.88,-166.25 1048.88,-166.25"/>
<text text-anchor="middle" x="995.5" y="-148.95" font-family="Helvetica,sans-Serif" font-size="14.00">5_C &lt;= 0.5</text>
<text text-anchor="middle" x="995.5" y="-131.7" font-family="Helvetica,sans-Serif" font-size="14.00">entropy = 0.986</text>
<text text-anchor="middle" x="995.5" y="-114.45" font-family="Helvetica,sans-Serif" font-size="14.00">samples = 65</text>
<text text-anchor="middle" x="995.5" y="-97.2" font-family="Helvetica,sans-Serif" font-size="14.00">value = [57, 43]</text>
<text text-anchor="middle" x="995.5" y="-79.95" font-family="Helvetica,sans-Serif" font-size="14.00">class = Animal</text>
</g>
<!-- 16229&#45;&gt;16953 -->
<g id="edge21" class="edge">
<title>16229&#45;&gt;16953</title>
<path fill="none" stroke="black" d="M939.27,-202.07C945.13,-193.54 951.3,-184.54 957.32,-175.77"/>
<polygon fill="black" stroke="black" points="960.15,-177.83 962.92,-167.61 954.38,-173.87 960.15,-177.83"/>
</g>
<!-- 16231 -->
<g id="node20" class="node">
<title>16231</title>
<path fill="#c0c0c0" stroke="black" d="M785.5,-36C785.5,-36 755.5,-36 755.5,-36 749.5,-36 743.5,-30 743.5,-24 743.5,-24 743.5,-12 743.5,-12 743.5,-6 749.5,0 755.5,0 755.5,0 785.5,0 785.5,0 791.5,0 797.5,-6 797.5,-12 797.5,-12 797.5,-24 797.5,-24 797.5,-30 791.5,-36 785.5,-36"/>
<text text-anchor="middle" x="770.5" y="-13.32" font-family="Helvetica,sans-Serif" font-size="14.00">(...)</text>
</g>
<!-- 16230&#45;&gt;16231 -->
<g id="edge19" class="edge">
<title>16230&#45;&gt;16231</title>
<path fill="none" stroke="black" d="M804.03,-71.75C798.35,-62.83 792.59,-53.76 787.48,-45.72"/>
<polygon fill="black" stroke="black" points="790.54,-44.01 782.23,-37.45 784.64,-47.77 790.54,-44.01"/>
</g>
<!-- 16724 -->
<g id="node21" class="node">
<title>16724</title>
<path fill="#c0c0c0" stroke="black" d="M857.5,-36C857.5,-36 827.5,-36 827.5,-36 821.5,-36 815.5,-30 815.5,-24 815.5,-24 815.5,-12 815.5,-12 815.5,-6 821.5,0 827.5,0 827.5,0 857.5,0 857.5,0 863.5,0 869.5,-6 869.5,-12 869.5,-12 869.5,-24 869.5,-24 869.5,-30 863.5,-36 857.5,-36"/>
<text text-anchor="middle" x="842.5" y="-13.32" font-family="Helvetica,sans-Serif" font-size="14.00">(...)</text>
</g>
<!-- 16230&#45;&gt;16724 -->
<g id="edge20" class="edge">
<title>16230&#45;&gt;16724</title>
<path fill="none" stroke="black" d="M837.71,-71.75C838.46,-63.52 839.22,-55.17 839.9,-47.61"/>
<polygon fill="black" stroke="black" points="843.39,-47.96 840.8,-37.68 836.41,-47.32 843.39,-47.96"/>
</g>
<!-- 16954 -->
<g id="node23" class="node">
<title>16954</title>
<path fill="#c0c0c0" stroke="black" d="M940.5,-36C940.5,-36 910.5,-36 910.5,-36 904.5,-36 898.5,-30 898.5,-24 898.5,-24 898.5,-12 898.5,-12 898.5,-6 904.5,0 910.5,0 910.5,0 940.5,0 940.5,0 946.5,0 952.5,-6 952.5,-12 952.5,-12 952.5,-24 952.5,-24 952.5,-30 946.5,-36 940.5,-36"/>
<text text-anchor="middle" x="925.5" y="-13.32" font-family="Helvetica,sans-Serif" font-size="14.00">(...)</text>
</g>
<!-- 16953&#45;&gt;16954 -->
<g id="edge22" class="edge">
<title>16953&#45;&gt;16954</title>
<path fill="none" stroke="black" d="M962.75,-71.75C956.38,-62.73 949.9,-53.56 944.18,-45.45"/>
<polygon fill="black" stroke="black" points="947.13,-43.56 938.5,-37.41 941.41,-47.6 947.13,-43.56"/>
</g>
<!-- 16975 -->
<g id="node24" class="node">
<title>16975</title>
<path fill="#c0c0c0" stroke="black" d="M1012.5,-36C1012.5,-36 982.5,-36 982.5,-36 976.5,-36 970.5,-30 970.5,-24 970.5,-24 970.5,-12 970.5,-12 970.5,-6 976.5,0 982.5,0 982.5,0 1012.5,0 1012.5,0 1018.5,0 1024.5,-6 1024.5,-12 1024.5,-12 1024.5,-24 1024.5,-24 1024.5,-30 1018.5,-36 1012.5,-36"/>
<text text-anchor="middle" x="997.5" y="-13.32" font-family="Helvetica,sans-Serif" font-size="14.00">(...)</text>
</g>
<!-- 16953&#45;&gt;16975 -->
<g id="edge23" class="edge">
<title>16953&#45;&gt;16975</title>
<path fill="none" stroke="black" d="M996.44,-71.75C996.6,-63.52 996.77,-55.17 996.92,-47.61"/>
<polygon fill="black" stroke="black" points="1000.42,-47.75 997.12,-37.69 993.42,-47.61 1000.42,-47.75"/>
</g>
<!-- 16985 -->
<g id="node26" class="node">
<title>16985</title>
<path fill="#eb9f68" stroke="black" d="M1197.88,-166.25C1197.88,-166.25 1091.12,-166.25 1091.12,-166.25 1085.12,-166.25 1079.12,-160.25 1079.12,-154.25 1079.12,-154.25 1079.12,-84 1079.12,-84 1079.12,-78 1085.12,-72 1091.12,-72 1091.12,-72 1197.88,-72 1197.88,-72 1203.88,-72 1209.88,-78 1209.88,-84 1209.88,-84 1209.88,-154.25 1209.88,-154.25 1209.88,-160.25 1203.88,-166.25 1197.88,-166.25"/>
<text text-anchor="middle" x="1144.5" y="-148.95" font-family="Helvetica,sans-Serif" font-size="14.00">21_G &lt;= 0.5</text>
<text text-anchor="middle" x="1144.5" y="-131.7" font-family="Helvetica,sans-Serif" font-size="14.00">entropy = 0.705</text>
<text text-anchor="middle" x="1144.5" y="-114.45" font-family="Helvetica,sans-Serif" font-size="14.00">samples = 67</text>
<text text-anchor="middle" x="1144.5" y="-97.2" font-family="Helvetica,sans-Serif" font-size="14.00">value = [80, 19]</text>
<text text-anchor="middle" x="1144.5" y="-79.95" font-family="Helvetica,sans-Serif" font-size="14.00">class = Animal</text>
</g>
<!-- 16984&#45;&gt;16985 -->
<g id="edge25" class="edge">
<title>16984&#45;&gt;16985</title>
<path fill="none" stroke="black" d="M1144.5,-202.07C1144.5,-194.17 1144.5,-185.88 1144.5,-177.73"/>
<polygon fill="black" stroke="black" points="1148,-177.87 1144.5,-167.87 1141,-177.87 1148,-177.87"/>
</g>
<!-- 17010 -->
<g id="node29" class="node">
<title>17010</title>
<path fill="#83c2ef" stroke="black" d="M1346.88,-166.25C1346.88,-166.25 1240.12,-166.25 1240.12,-166.25 1234.12,-166.25 1228.12,-160.25 1228.12,-154.25 1228.12,-154.25 1228.12,-84 1228.12,-84 1228.12,-78 1234.12,-72 1240.12,-72 1240.12,-72 1346.88,-72 1346.88,-72 1352.88,-72 1358.88,-78 1358.88,-84 1358.88,-84 1358.88,-154.25 1358.88,-154.25 1358.88,-160.25 1352.88,-166.25 1346.88,-166.25"/>
<text text-anchor="middle" x="1293.5" y="-148.95" font-family="Helvetica,sans-Serif" font-size="14.00">7_G &lt;= 0.5</text>
<text text-anchor="middle" x="1293.5" y="-131.7" font-family="Helvetica,sans-Serif" font-size="14.00">entropy = 0.845</text>
<text text-anchor="middle" x="1293.5" y="-114.45" font-family="Helvetica,sans-Serif" font-size="14.00">samples = 15</text>
<text text-anchor="middle" x="1293.5" y="-97.2" font-family="Helvetica,sans-Serif" font-size="14.00">value = [6, 16]</text>
<text text-anchor="middle" x="1293.5" y="-79.95" font-family="Helvetica,sans-Serif" font-size="14.00">class = Plant</text>
</g>
<!-- 16984&#45;&gt;17010 -->
<g id="edge28" class="edge">
<title>16984&#45;&gt;17010</title>
<path fill="none" stroke="black" d="M1198.29,-202.07C1208.95,-192.9 1220.22,-183.2 1231.13,-173.81"/>
<polygon fill="black" stroke="black" points="1233.34,-176.52 1238.64,-167.35 1228.78,-171.22 1233.34,-176.52"/>
</g>
<!-- 16986 -->
<g id="node27" class="node">
<title>16986</title>
<path fill="#c0c0c0" stroke="black" d="M1107.5,-36C1107.5,-36 1077.5,-36 1077.5,-36 1071.5,-36 1065.5,-30 1065.5,-24 1065.5,-24 1065.5,-12 1065.5,-12 1065.5,-6 1071.5,0 1077.5,0 1077.5,0 1107.5,0 1107.5,0 1113.5,0 1119.5,-6 1119.5,-12 1119.5,-12 1119.5,-24 1119.5,-24 1119.5,-30 1113.5,-36 1107.5,-36"/>
<text text-anchor="middle" x="1092.5" y="-13.32" font-family="Helvetica,sans-Serif" font-size="14.00">(...)</text>
</g>
<!-- 16985&#45;&gt;16986 -->
<g id="edge26" class="edge">
<title>16985&#45;&gt;16986</title>
<path fill="none" stroke="black" d="M1120.17,-71.75C1115.6,-63.03 1110.95,-54.16 1106.8,-46.26"/>
<polygon fill="black" stroke="black" points="1109.96,-44.74 1102.21,-37.51 1103.76,-47.99 1109.96,-44.74"/>
</g>
<!-- 16999 -->
<g id="node28" class="node">
<title>16999</title>
<path fill="#c0c0c0" stroke="black" d="M1179.5,-36C1179.5,-36 1149.5,-36 1149.5,-36 1143.5,-36 1137.5,-30 1137.5,-24 1137.5,-24 1137.5,-12 1137.5,-12 1137.5,-6 1143.5,0 1149.5,0 1149.5,0 1179.5,0 1179.5,0 1185.5,0 1191.5,-6 1191.5,-12 1191.5,-12 1191.5,-24 1191.5,-24 1191.5,-30 1185.5,-36 1179.5,-36"/>
<text text-anchor="middle" x="1164.5" y="-13.32" font-family="Helvetica,sans-Serif" font-size="14.00">(...)</text>
</g>
<!-- 16985&#45;&gt;16999 -->
<g id="edge27" class="edge">
<title>16985&#45;&gt;16999</title>
<path fill="none" stroke="black" d="M1153.86,-71.75C1155.54,-63.42 1157.24,-54.97 1158.78,-47.34"/>
<polygon fill="black" stroke="black" points="1162.19,-48.15 1160.74,-37.66 1155.33,-46.77 1162.19,-48.15"/>
</g>
<!-- 17011 -->
<g id="node30" class="node">
<title>17011</title>
<path fill="#c0c0c0" stroke="black" d="M1272.5,-36C1272.5,-36 1242.5,-36 1242.5,-36 1236.5,-36 1230.5,-30 1230.5,-24 1230.5,-24 1230.5,-12 1230.5,-12 1230.5,-6 1236.5,0 1242.5,0 1242.5,0 1272.5,0 1272.5,0 1278.5,0 1284.5,-6 1284.5,-12 1284.5,-12 1284.5,-24 1284.5,-24 1284.5,-30 1278.5,-36 1272.5,-36"/>
<text text-anchor="middle" x="1257.5" y="-13.32" font-family="Helvetica,sans-Serif" font-size="14.00">(...)</text>
</g>
<!-- 17010&#45;&gt;17011 -->
<g id="edge29" class="edge">
<title>17010&#45;&gt;17011</title>
<path fill="none" stroke="black" d="M1276.66,-71.75C1273.56,-63.22 1270.42,-54.57 1267.6,-46.8"/>
<polygon fill="black" stroke="black" points="1270.96,-45.8 1264.25,-37.6 1264.38,-48.19 1270.96,-45.8"/>
</g>
<!-- 17020 -->
<g id="node31" class="node">
<title>17020</title>
<path fill="#c0c0c0" stroke="black" d="M1344.5,-36C1344.5,-36 1314.5,-36 1314.5,-36 1308.5,-36 1302.5,-30 1302.5,-24 1302.5,-24 1302.5,-12 1302.5,-12 1302.5,-6 1308.5,0 1314.5,0 1314.5,0 1344.5,0 1344.5,0 1350.5,0 1356.5,-6 1356.5,-12 1356.5,-12 1356.5,-24 1356.5,-24 1356.5,-30 1350.5,-36 1344.5,-36"/>
<text text-anchor="middle" x="1329.5" y="-13.32" font-family="Helvetica,sans-Serif" font-size="14.00">(...)</text>
</g>
<!-- 17010&#45;&gt;17020 -->
<g id="edge30" class="edge">
<title>17010&#45;&gt;17020</title>
<path fill="none" stroke="black" d="M1310.34,-71.75C1313.44,-63.22 1316.58,-54.57 1319.4,-46.8"/>
<polygon fill="black" stroke="black" points="1322.62,-48.19 1322.75,-37.6 1316.04,-45.8 1322.62,-48.19"/>
</g>
</g>
</svg>
