<?xml version="1.0" encoding="UTF-8" standalone="no"?>
<!DOCTYPE svg PUBLIC "-//W3C//DTD SVG 1.1//EN"
 "http://www.w3.org/Graphics/SVG/1.1/DTD/svg11.dtd">
<!-- Generated by graphviz version 12.0.0 (20240803.0821)
 -->
<!-- Title: Tree Pages: 1 -->
<svg width="1426pt" height="565pt"
 viewBox="0.00 0.00 1426.00 565.00" xmlns="http://www.w3.org/2000/svg" xmlns:xlink="http://www.w3.org/1999/xlink">
<g id="graph0" class="graph" transform="scale(1 1) rotate(0) translate(4 561)">
<title>Tree</title>
<polygon fill="white" stroke="none" points="-4,4 -4,-561 1422,-561 1422,4 -4,4"/>
<!-- 0 -->
<g id="node1" class="node">
<title>0</title>
<path fill="#fdfeff" stroke="black" d="M820,-557C820,-557 660,-557 660,-557 654,-557 648,-551 648,-545 648,-545 648,-474.75 648,-474.75 648,-468.75 654,-462.75 660,-462.75 660,-462.75 820,-462.75 820,-462.75 826,-462.75 832,-468.75 832,-474.75 832,-474.75 832,-545 832,-545 832,-551 826,-557 820,-557"/>
<text text-anchor="middle" x="740" y="-539.7" font-family="Helvetica,sans-Serif" font-size="14.00">22_G &lt;= 0.5</text>
<text text-anchor="middle" x="740" y="-522.45" font-family="Helvetica,sans-Serif" font-size="14.00">entropy = 1.0</text>
<text text-anchor="middle" x="740" y="-505.2" font-family="Helvetica,sans-Serif" font-size="14.00">samples = 38129</text>
<text text-anchor="middle" x="740" y="-487.95" font-family="Helvetica,sans-Serif" font-size="14.00">value = [30035, 30310]</text>
<text text-anchor="middle" x="740" y="-470.7" font-family="Helvetica,sans-Serif" font-size="14.00">class = Plant</text>
</g>
<!-- 1 -->
<g id="node2" class="node">
<title>1</title>
<path fill="#e0f0fb" stroke="black" d="M643,-426.75C643,-426.75 483,-426.75 483,-426.75 477,-426.75 471,-420.75 471,-414.75 471,-414.75 471,-344.5 471,-344.5 471,-338.5 477,-332.5 483,-332.5 483,-332.5 643,-332.5 643,-332.5 649,-332.5 655,-338.5 655,-344.5 655,-344.5 655,-414.75 655,-414.75 655,-420.75 649,-426.75 643,-426.75"/>
<text text-anchor="middle" x="563" y="-409.45" font-family="Helvetica,sans-Serif" font-size="14.00">3_G &lt;= 0.5</text>
<text text-anchor="middle" x="563" y="-392.2" font-family="Helvetica,sans-Serif" font-size="14.00">entropy = 0.995</text>
<text text-anchor="middle" x="563" y="-374.95" font-family="Helvetica,sans-Serif" font-size="14.00">samples = 33234</text>
<text text-anchor="middle" x="563" y="-357.7" font-family="Helvetica,sans-Serif" font-size="14.00">value = [24061, 28580]</text>
<text text-anchor="middle" x="563" y="-340.45" font-family="Helvetica,sans-Serif" font-size="14.00">class = Plant</text>
</g>
<!-- 0&#45;&gt;1 -->
<g id="edge1" class="edge">
<title>0&#45;&gt;1</title>
<path fill="none" stroke="black" d="M675.85,-462.39C662.99,-453.07 649.38,-443.22 636.24,-433.69"/>
<polygon fill="black" stroke="black" points="638.61,-431.09 628.46,-428.05 634.5,-436.75 638.61,-431.09"/>
<text text-anchor="middle" x="631.17" y="-447.18" font-family="Helvetica,sans-Serif" font-size="14.00">True</text>
</g>
<!-- 14576 -->
<g id="node17" class="node">
<title>14576</title>
<path fill="#eda572" stroke="black" d="M991,-426.75C991,-426.75 849,-426.75 849,-426.75 843,-426.75 837,-420.75 837,-414.75 837,-414.75 837,-344.5 837,-344.5 837,-338.5 843,-332.5 849,-332.5 849,-332.5 991,-332.5 991,-332.5 997,-332.5 1003,-338.5 1003,-344.5 1003,-344.5 1003,-414.75 1003,-414.75 1003,-420.75 997,-426.75 991,-426.75"/>
<text text-anchor="middle" x="920" y="-409.45" font-family="Helvetica,sans-Serif" font-size="14.00">23_G &lt;= 0.5</text>
<text text-anchor="middle" x="920" y="-392.2" font-family="Helvetica,sans-Serif" font-size="14.00">entropy = 0.768</text>
<text text-anchor="middle" x="920" y="-374.95" font-family="Helvetica,sans-Serif" font-size="14.00">samples = 4895</text>
<text text-anchor="middle" x="920" y="-357.7" font-family="Helvetica,sans-Serif" font-size="14.00">value = [5974, 1730]</text>
<text text-anchor="middle" x="920" y="-340.45" font-family="Helvetica,sans-Serif" font-size="14.00">class = Animal</text>
</g>
<!-- 0&#45;&gt;14576 -->
<g id="edge16" class="edge">
<title>0&#45;&gt;14576</title>
<path fill="none" stroke="black" d="M805.24,-462.39C818.32,-453.07 832.15,-443.22 845.52,-433.69"/>
<polygon fill="black" stroke="black" points="847.34,-436.7 853.45,-428.04 843.27,-430.99 847.34,-436.7"/>
<text text-anchor="middle" x="850.54" y="-447.14" font-family="Helvetica,sans-Serif" font-size="14.00">False</text>
</g>
<!-- 2 -->
<g id="node3" class="node">
<title>2</title>
<path fill="#f8fcfe" stroke="black" d="M365,-296.5C365,-296.5 205,-296.5 205,-296.5 199,-296.5 193,-290.5 193,-284.5 193,-284.5 193,-214.25 193,-214.25 193,-208.25 199,-202.25 205,-202.25 205,-202.25 365,-202.25 365,-202.25 371,-202.25 377,-208.25 377,-214.25 377,-214.25 377,-284.5 377,-284.5 377,-290.5 371,-296.5 365,-296.5"/>
<text text-anchor="middle" x="285" y="-279.2" font-family="Helvetica,sans-Serif" font-size="14.00">22_A &lt;= 0.5</text>
<text text-anchor="middle" x="285" y="-261.95" font-family="Helvetica,sans-Serif" font-size="14.00">entropy = 1.0</text>
<text text-anchor="middle" x="285" y="-244.7" font-family="Helvetica,sans-Serif" font-size="14.00">samples = 22886</text>
<text text-anchor="middle" x="285" y="-227.45" font-family="Helvetica,sans-Serif" font-size="14.00">value = [17813, 18419]</text>
<text text-anchor="middle" x="285" y="-210.2" font-family="Helvetica,sans-Serif" font-size="14.00">class = Plant</text>
</g>
<!-- 1&#45;&gt;2 -->
<g id="edge2" class="edge">
<title>1&#45;&gt;2</title>
<path fill="none" stroke="black" d="M470.82,-336.1C444.19,-323.81 414.96,-310.33 387.74,-297.77"/>
<polygon fill="black" stroke="black" points="389.33,-294.65 378.78,-293.64 386.4,-301.01 389.33,-294.65"/>
</g>
<!-- 10353 -->
<g id="node10" class="node">
<title>10353</title>
<path fill="#b3d9f5" stroke="black" d="M638.5,-296.5C638.5,-296.5 487.5,-296.5 487.5,-296.5 481.5,-296.5 475.5,-290.5 475.5,-284.5 475.5,-284.5 475.5,-214.25 475.5,-214.25 475.5,-208.25 481.5,-202.25 487.5,-202.25 487.5,-202.25 638.5,-202.25 638.5,-202.25 644.5,-202.25 650.5,-208.25 650.5,-214.25 650.5,-214.25 650.5,-284.5 650.5,-284.5 650.5,-290.5 644.5,-296.5 638.5,-296.5"/>
<text text-anchor="middle" x="563" y="-279.2" font-family="Helvetica,sans-Serif" font-size="14.00">18_C &lt;= 0.5</text>
<text text-anchor="middle" x="563" y="-261.95" font-family="Helvetica,sans-Serif" font-size="14.00">entropy = 0.959</text>
<text text-anchor="middle" x="563" y="-244.7" font-family="Helvetica,sans-Serif" font-size="14.00">samples = 10348</text>
<text text-anchor="middle" x="563" y="-227.45" font-family="Helvetica,sans-Serif" font-size="14.00">value = [6248, 10161]</text>
<text text-anchor="middle" x="563" y="-210.2" font-family="Helvetica,sans-Serif" font-size="14.00">class = Plant</text>
</g>
<!-- 1&#45;&gt;10353 -->
<g id="edge9" class="edge">
<title>1&#45;&gt;10353</title>
<path fill="none" stroke="black" d="M563,-332.32C563,-324.42 563,-316.13 563,-307.98"/>
<polygon fill="black" stroke="black" points="566.5,-308.12 563,-298.12 559.5,-308.12 566.5,-308.12"/>
</g>
<!-- 3 -->
<g id="node4" class="node">
<title>3</title>
<path fill="#e1f0fb" stroke="black" d="M172,-166.25C172,-166.25 12,-166.25 12,-166.25 6,-166.25 0,-160.25 0,-154.25 0,-154.25 0,-84 0,-84 0,-78 6,-72 12,-72 12,-72 172,-72 172,-72 178,-72 184,-78 184,-84 184,-84 184,-154.25 184,-154.25 184,-160.25 178,-166.25 172,-166.25"/>
<text text-anchor="middle" x="92" y="-148.95" font-family="Helvetica,sans-Serif" font-size="14.00">9_U &lt;= 0.5</text>
<text text-anchor="middle" x="92" y="-131.7" font-family="Helvetica,sans-Serif" font-size="14.00">entropy = 0.995</text>
<text text-anchor="middle" x="92" y="-114.45" font-family="Helvetica,sans-Serif" font-size="14.00">samples = 19759</text>
<text text-anchor="middle" x="92" y="-97.2" font-family="Helvetica,sans-Serif" font-size="14.00">value = [14369, 16893]</text>
<text text-anchor="middle" x="92" y="-79.95" font-family="Helvetica,sans-Serif" font-size="14.00">class = Plant</text>
</g>
<!-- 2&#45;&gt;3 -->
<g id="edge3" class="edge">
<title>2&#45;&gt;3</title>
<path fill="none" stroke="black" d="M215.05,-201.89C200.89,-192.48 185.9,-182.53 171.45,-172.92"/>
<polygon fill="black" stroke="black" points="173.56,-170.12 163.3,-167.5 169.69,-175.95 173.56,-170.12"/>
</g>
<!-- 8950 -->
<g id="node7" class="node">
<title>8950</title>
<path fill="#f1b991" stroke="black" d="M356,-166.25C356,-166.25 214,-166.25 214,-166.25 208,-166.25 202,-160.25 202,-154.25 202,-154.25 202,-84 202,-84 202,-78 208,-72 214,-72 214,-72 356,-72 356,-72 362,-72 368,-78 368,-84 368,-84 368,-154.25 368,-154.25 368,-160.25 362,-166.25 356,-166.25"/>
<text text-anchor="middle" x="285" y="-148.95" font-family="Helvetica,sans-Serif" font-size="14.00">13_G &lt;= 0.5</text>
<text text-anchor="middle" x="285" y="-131.7" font-family="Helvetica,sans-Serif" font-size="14.00">entropy = 0.89</text>
<text text-anchor="middle" x="285" y="-114.45" font-family="Helvetica,sans-Serif" font-size="14.00">samples = 3127</text>
<text text-anchor="middle" x="285" y="-97.2" font-family="Helvetica,sans-Serif" font-size="14.00">value = [3444, 1526]</text>
<text text-anchor="middle" x="285" y="-79.95" font-family="Helvetica,sans-Serif" font-size="14.00">class = Animal</text>
</g>
<!-- 2&#45;&gt;8950 -->
<g id="edge6" class="edge">
<title>2&#45;&gt;8950</title>
<path fill="none" stroke="black" d="M285,-202.07C285,-194.17 285,-185.88 285,-177.73"/>
<polygon fill="black" stroke="black" points="288.5,-177.87 285,-167.87 281.5,-177.87 288.5,-177.87"/>
</g>
<!-- 4 -->
<g id="node5" class="node">
<title>4</title>
<path fill="#c0c0c0" stroke="black" d="M71,-36C71,-36 41,-36 41,-36 35,-36 29,-30 29,-24 29,-24 29,-12 29,-12 29,-6 35,0 41,0 41,0 71,0 71,0 77,0 83,-6 83,-12 83,-12 83,-24 83,-24 83,-30 77,-36 71,-36"/>
<text text-anchor="middle" x="56" y="-13.32" font-family="Helvetica,sans-Serif" font-size="14.00">(...)</text>
</g>
<!-- 3&#45;&gt;4 -->
<g id="edge4" class="edge">
<title>3&#45;&gt;4</title>
<path fill="none" stroke="black" d="M75.16,-71.75C72.06,-63.22 68.92,-54.57 66.1,-46.8"/>
<polygon fill="black" stroke="black" points="69.46,-45.8 62.75,-37.6 62.88,-48.19 69.46,-45.8"/>
</g>
<!-- 6177 -->
<g id="node6" class="node">
<title>6177</title>
<path fill="#c0c0c0" stroke="black" d="M143,-36C143,-36 113,-36 113,-36 107,-36 101,-30 101,-24 101,-24 101,-12 101,-12 101,-6 107,0 113,0 113,0 143,0 143,0 149,0 155,-6 155,-12 155,-12 155,-24 155,-24 155,-30 149,-36 143,-36"/>
<text text-anchor="middle" x="128" y="-13.32" font-family="Helvetica,sans-Serif" font-size="14.00">(...)</text>
</g>
<!-- 3&#45;&gt;6177 -->
<g id="edge5" class="edge">
<title>3&#45;&gt;6177</title>
<path fill="none" stroke="black" d="M108.84,-71.75C111.94,-63.22 115.08,-54.57 117.9,-46.8"/>
<polygon fill="black" stroke="black" points="121.12,-48.19 121.25,-37.6 114.54,-45.8 121.12,-48.19"/>
</g>
<!-- 8951 -->
<g id="node8" class="node">
<title>8951</title>
<path fill="#c0c0c0" stroke="black" d="M268,-36C268,-36 238,-36 238,-36 232,-36 226,-30 226,-24 226,-24 226,-12 226,-12 226,-6 232,0 238,0 238,0 268,0 268,0 274,0 280,-6 280,-12 280,-12 280,-24 280,-24 280,-30 274,-36 268,-36"/>
<text text-anchor="middle" x="253" y="-13.32" font-family="Helvetica,sans-Serif" font-size="14.00">(...)</text>
</g>
<!-- 8950&#45;&gt;8951 -->
<g id="edge7" class="edge">
<title>8950&#45;&gt;8951</title>
<path fill="none" stroke="black" d="M270.03,-71.75C267.31,-63.32 264.55,-54.77 262.06,-47.07"/>
<polygon fill="black" stroke="black" points="265.41,-46.05 259.01,-37.61 258.75,-48.2 265.41,-46.05"/>
</g>
<!-- 9984 -->
<g id="node9" class="node">
<title>9984</title>
<path fill="#c0c0c0" stroke="black" d="M340,-36C340,-36 310,-36 310,-36 304,-36 298,-30 298,-24 298,-24 298,-12 298,-12 298,-6 304,0 310,0 310,0 340,0 340,0 346,0 352,-6 352,-12 352,-12 352,-24 352,-24 352,-30 346,-36 340,-36"/>
<text text-anchor="middle" x="325" y="-13.32" font-family="Helvetica,sans-Serif" font-size="14.00">(...)</text>
</g>
<!-- 8950&#45;&gt;9984 -->
<g id="edge8" class="edge">
<title>8950&#45;&gt;9984</title>
<path fill="none" stroke="black" d="M303.71,-71.75C307.15,-63.22 310.65,-54.57 313.78,-46.8"/>
<polygon fill="black" stroke="black" points="317.01,-48.16 317.5,-37.58 310.52,-45.54 317.01,-48.16"/>
</g>
<!-- 10354 -->
<g id="node11" class="node">
<title>10354</title>
<path fill="#f2f9fd" stroke="black" d="M540,-166.25C540,-166.25 398,-166.25 398,-166.25 392,-166.25 386,-160.25 386,-154.25 386,-154.25 386,-84 386,-84 386,-78 392,-72 398,-72 398,-72 540,-72 540,-72 546,-72 552,-78 552,-84 552,-84 552,-154.25 552,-154.25 552,-160.25 546,-166.25 540,-166.25"/>
<text text-anchor="middle" x="469" y="-148.95" font-family="Helvetica,sans-Serif" font-size="14.00">4_A &lt;= 0.5</text>
<text text-anchor="middle" x="469" y="-131.7" font-family="Helvetica,sans-Serif" font-size="14.00">entropy = 0.999</text>
<text text-anchor="middle" x="469" y="-114.45" font-family="Helvetica,sans-Serif" font-size="14.00">samples = 6761</text>
<text text-anchor="middle" x="469" y="-97.2" font-family="Helvetica,sans-Serif" font-size="14.00">value = [5139, 5501]</text>
<text text-anchor="middle" x="469" y="-79.95" font-family="Helvetica,sans-Serif" font-size="14.00">class = Plant</text>
</g>
<!-- 10353&#45;&gt;10354 -->
<g id="edge10" class="edge">
<title>10353&#45;&gt;10354</title>
<path fill="none" stroke="black" d="M529.06,-202.07C522.74,-193.45 516.08,-184.35 509.58,-175.49"/>
<polygon fill="black" stroke="black" points="512.52,-173.58 503.78,-167.58 506.87,-177.71 512.52,-173.58"/>
</g>
<!-- 13525 -->
<g id="node14" class="node">
<title>13525</title>
<path fill="#68b4eb" stroke="black" d="M724,-166.25C724,-166.25 582,-166.25 582,-166.25 576,-166.25 570,-160.25 570,-154.25 570,-154.25 570,-84 570,-84 570,-78 576,-72 582,-72 582,-72 724,-72 724,-72 730,-72 736,-78 736,-84 736,-84 736,-154.25 736,-154.25 736,-160.25 730,-166.25 724,-166.25"/>
<text text-anchor="middle" x="653" y="-148.95" font-family="Helvetica,sans-Serif" font-size="14.00">19_U &lt;= 0.5</text>
<text text-anchor="middle" x="653" y="-131.7" font-family="Helvetica,sans-Serif" font-size="14.00">entropy = 0.706</text>
<text text-anchor="middle" x="653" y="-114.45" font-family="Helvetica,sans-Serif" font-size="14.00">samples = 3587</text>
<text text-anchor="middle" x="653" y="-97.2" font-family="Helvetica,sans-Serif" font-size="14.00">value = [1109, 4660]</text>
<text text-anchor="middle" x="653" y="-79.95" font-family="Helvetica,sans-Serif" font-size="14.00">class = Plant</text>
</g>
<!-- 10353&#45;&gt;13525 -->
<g id="edge13" class="edge">
<title>10353&#45;&gt;13525</title>
<path fill="none" stroke="black" d="M595.49,-202.07C601.48,-193.54 607.79,-184.54 613.95,-175.77"/>
<polygon fill="black" stroke="black" points="616.81,-177.79 619.69,-167.6 611.08,-173.77 616.81,-177.79"/>
</g>
<!-- 10355 -->
<g id="node12" class="node">
<title>10355</title>
<path fill="#c0c0c0" stroke="black" d="M432,-36C432,-36 402,-36 402,-36 396,-36 390,-30 390,-24 390,-24 390,-12 390,-12 390,-6 396,0 402,0 402,0 432,0 432,0 438,0 444,-6 444,-12 444,-12 444,-24 444,-24 444,-30 438,-36 432,-36"/>
<text text-anchor="middle" x="417" y="-13.32" font-family="Helvetica,sans-Serif" font-size="14.00">(...)</text>
</g>
<!-- 10354&#45;&gt;10355 -->
<g id="edge11" class="edge">
<title>10354&#45;&gt;10355</title>
<path fill="none" stroke="black" d="M444.67,-71.75C440.1,-63.03 435.45,-54.16 431.3,-46.26"/>
<polygon fill="black" stroke="black" points="434.46,-44.74 426.71,-37.51 428.26,-47.99 434.46,-44.74"/>
</g>
<!-- 12668 -->
<g id="node13" class="node">
<title>12668</title>
<path fill="#c0c0c0" stroke="black" d="M504,-36C504,-36 474,-36 474,-36 468,-36 462,-30 462,-24 462,-24 462,-12 462,-12 462,-6 468,0 474,0 474,0 504,0 504,0 510,0 516,-6 516,-12 516,-12 516,-24 516,-24 516,-30 510,-36 504,-36"/>
<text text-anchor="middle" x="489" y="-13.32" font-family="Helvetica,sans-Serif" font-size="14.00">(...)</text>
</g>
<!-- 10354&#45;&gt;12668 -->
<g id="edge12" class="edge">
<title>10354&#45;&gt;12668</title>
<path fill="none" stroke="black" d="M478.36,-71.75C480.04,-63.42 481.74,-54.97 483.28,-47.34"/>
<polygon fill="black" stroke="black" points="486.69,-48.15 485.24,-37.66 479.83,-46.77 486.69,-48.15"/>
</g>
<!-- 13526 -->
<g id="node15" class="node">
<title>13526</title>
<path fill="#c0c0c0" stroke="black" d="M616,-36C616,-36 586,-36 586,-36 580,-36 574,-30 574,-24 574,-24 574,-12 574,-12 574,-6 580,0 586,0 586,0 616,0 616,0 622,0 628,-6 628,-12 628,-12 628,-24 628,-24 628,-30 622,-36 616,-36"/>
<text text-anchor="middle" x="601" y="-13.32" font-family="Helvetica,sans-Serif" font-size="14.00">(...)</text>
</g>
<!-- 13525&#45;&gt;13526 -->
<g id="edge14" class="edge">
<title>13525&#45;&gt;13526</title>
<path fill="none" stroke="black" d="M628.67,-71.75C624.1,-63.03 619.45,-54.16 615.3,-46.26"/>
<polygon fill="black" stroke="black" points="618.46,-44.74 610.71,-37.51 612.26,-47.99 618.46,-44.74"/>
</g>
<!-- 14275 -->
<g id="node16" class="node">
<title>14275</title>
<path fill="#c0c0c0" stroke="black" d="M688,-36C688,-36 658,-36 658,-36 652,-36 646,-30 646,-24 646,-24 646,-12 646,-12 646,-6 652,0 658,0 658,0 688,0 688,0 694,0 700,-6 700,-12 700,-12 700,-24 700,-24 700,-30 694,-36 688,-36"/>
<text text-anchor="middle" x="673" y="-13.32" font-family="Helvetica,sans-Serif" font-size="14.00">(...)</text>
</g>
<!-- 13525&#45;&gt;14275 -->
<g id="edge15" class="edge">
<title>13525&#45;&gt;14275</title>
<path fill="none" stroke="black" d="M662.36,-71.75C664.04,-63.42 665.74,-54.97 667.28,-47.34"/>
<polygon fill="black" stroke="black" points="670.69,-48.15 669.24,-37.66 663.83,-46.77 670.69,-48.15"/>
</g>
<!-- 14577 -->
<g id="node18" class="node">
<title>14577</title>
<path fill="#eca26c" stroke="black" d="M991,-296.5C991,-296.5 849,-296.5 849,-296.5 843,-296.5 837,-290.5 837,-284.5 837,-284.5 837,-214.25 837,-214.25 837,-208.25 843,-202.25 849,-202.25 849,-202.25 991,-202.25 991,-202.25 997,-202.25 1003,-208.25 1003,-214.25 1003,-214.25 1003,-284.5 1003,-284.5 1003,-290.5 997,-296.5 991,-296.5"/>
<text text-anchor="middle" x="920" y="-279.2" font-family="Helvetica,sans-Serif" font-size="14.00">1_G &lt;= 0.5</text>
<text text-anchor="middle" x="920" y="-261.95" font-family="Helvetica,sans-Serif" font-size="14.00">entropy = 0.733</text>
<text text-anchor="middle" x="920" y="-244.7" font-family="Helvetica,sans-Serif" font-size="14.00">samples = 4420</text>
<text text-anchor="middle" x="920" y="-227.45" font-family="Helvetica,sans-Serif" font-size="14.00">value = [5517, 1430]</text>
<text text-anchor="middle" x="920" y="-210.2" font-family="Helvetica,sans-Serif" font-size="14.00">class = Animal</text>
</g>
<!-- 14576&#45;&gt;14577 -->
<g id="edge17" class="edge">
<title>14576&#45;&gt;14577</title>
<path fill="none" stroke="black" d="M920,-332.32C920,-324.42 920,-316.13 920,-307.98"/>
<polygon fill="black" stroke="black" points="923.5,-308.12 920,-298.12 916.5,-308.12 923.5,-308.12"/>
</g>
<!-- 16278 -->
<g id="node25" class="node">
<title>16278</title>
<path fill="#f6d4bb" stroke="black" d="M1240,-296.5C1240,-296.5 1116,-296.5 1116,-296.5 1110,-296.5 1104,-290.5 1104,-284.5 1104,-284.5 1104,-214.25 1104,-214.25 1104,-208.25 1110,-202.25 1116,-202.25 1116,-202.25 1240,-202.25 1240,-202.25 1246,-202.25 1252,-208.25 1252,-214.25 1252,-214.25 1252,-284.5 1252,-284.5 1252,-290.5 1246,-296.5 1240,-296.5"/>
<text text-anchor="middle" x="1178" y="-279.2" font-family="Helvetica,sans-Serif" font-size="14.00">1_U &lt;= 0.5</text>
<text text-anchor="middle" x="1178" y="-261.95" font-family="Helvetica,sans-Serif" font-size="14.00">entropy = 0.969</text>
<text text-anchor="middle" x="1178" y="-244.7" font-family="Helvetica,sans-Serif" font-size="14.00">samples = 475</text>
<text text-anchor="middle" x="1178" y="-227.45" font-family="Helvetica,sans-Serif" font-size="14.00">value = [457, 300]</text>
<text text-anchor="middle" x="1178" y="-210.2" font-family="Helvetica,sans-Serif" font-size="14.00">class = Animal</text>
</g>
<!-- 14576&#45;&gt;16278 -->
<g id="edge24" class="edge">
<title>14576&#45;&gt;16278</title>
<path fill="none" stroke="black" d="M1003.41,-337.16C1032.25,-322.83 1064.58,-306.75 1093.51,-292.38"/>
<polygon fill="black" stroke="black" points="1094.84,-295.62 1102.23,-288.04 1091.72,-289.36 1094.84,-295.62"/>
</g>
<!-- 14578 -->
<g id="node19" class="node">
<title>14578</title>
<path fill="#eb9e67" stroke="black" d="M908,-166.25C908,-166.25 766,-166.25 766,-166.25 760,-166.25 754,-160.25 754,-154.25 754,-154.25 754,-84 754,-84 754,-78 760,-72 766,-72 766,-72 908,-72 908,-72 914,-72 920,-78 920,-84 920,-84 920,-154.25 920,-154.25 920,-160.25 914,-166.25 908,-166.25"/>
<text text-anchor="middle" x="837" y="-148.95" font-family="Helvetica,sans-Serif" font-size="14.00">21_G &lt;= 0.5</text>
<text text-anchor="middle" x="837" y="-131.7" font-family="Helvetica,sans-Serif" font-size="14.00">entropy = 0.699</text>
<text text-anchor="middle" x="837" y="-114.45" font-family="Helvetica,sans-Serif" font-size="14.00">samples = 3957</text>
<text text-anchor="middle" x="837" y="-97.2" font-family="Helvetica,sans-Serif" font-size="14.00">value = [5076, 1180]</text>
<text text-anchor="middle" x="837" y="-79.95" font-family="Helvetica,sans-Serif" font-size="14.00">class = Animal</text>
</g>
<!-- 14577&#45;&gt;14578 -->
<g id="edge18" class="edge">
<title>14577&#45;&gt;14578</title>
<path fill="none" stroke="black" d="M890.04,-202.07C884.51,-193.54 878.69,-184.54 873.01,-175.77"/>
<polygon fill="black" stroke="black" points="876.11,-174.12 867.74,-167.63 870.24,-177.93 876.11,-174.12"/>
</g>
<!-- 16065 -->
<g id="node22" class="node">
<title>16065</title>
<path fill="#f4c8a9" stroke="black" d="M1074,-166.25C1074,-166.25 950,-166.25 950,-166.25 944,-166.25 938,-160.25 938,-154.25 938,-154.25 938,-84 938,-84 938,-78 944,-72 950,-72 950,-72 1074,-72 1074,-72 1080,-72 1086,-78 1086,-84 1086,-84 1086,-154.25 1086,-154.25 1086,-160.25 1080,-166.25 1074,-166.25"/>
<text text-anchor="middle" x="1012" y="-148.95" font-family="Helvetica,sans-Serif" font-size="14.00">12_U &lt;= 0.5</text>
<text text-anchor="middle" x="1012" y="-131.7" font-family="Helvetica,sans-Serif" font-size="14.00">entropy = 0.944</text>
<text text-anchor="middle" x="1012" y="-114.45" font-family="Helvetica,sans-Serif" font-size="14.00">samples = 463</text>
<text text-anchor="middle" x="1012" y="-97.2" font-family="Helvetica,sans-Serif" font-size="14.00">value = [441, 250]</text>
<text text-anchor="middle" x="1012" y="-79.95" font-family="Helvetica,sans-Serif" font-size="14.00">class = Animal</text>
</g>
<!-- 14577&#45;&gt;16065 -->
<g id="edge21" class="edge">
<title>14577&#45;&gt;16065</title>
<path fill="none" stroke="black" d="M953.21,-202.07C959.4,-193.45 965.93,-184.35 972.29,-175.49"/>
<polygon fill="black" stroke="black" points="974.97,-177.75 977.95,-167.59 969.28,-173.67 974.97,-177.75"/>
</g>
<!-- 14579 -->
<g id="node20" class="node">
<title>14579</title>
<path fill="#c0c0c0" stroke="black" d="M795,-36C795,-36 765,-36 765,-36 759,-36 753,-30 753,-24 753,-24 753,-12 753,-12 753,-6 759,0 765,0 765,0 795,0 795,0 801,0 807,-6 807,-12 807,-12 807,-24 807,-24 807,-30 801,-36 795,-36"/>
<text text-anchor="middle" x="780" y="-13.32" font-family="Helvetica,sans-Serif" font-size="14.00">(...)</text>
</g>
<!-- 14578&#45;&gt;14579 -->
<g id="edge19" class="edge">
<title>14578&#45;&gt;14579</title>
<path fill="none" stroke="black" d="M810.34,-71.75C805.26,-62.93 800.1,-53.96 795.52,-45.99"/>
<polygon fill="black" stroke="black" points="798.65,-44.41 790.63,-37.48 792.58,-47.9 798.65,-44.41"/>
</g>
<!-- 15602 -->
<g id="node21" class="node">
<title>15602</title>
<path fill="#c0c0c0" stroke="black" d="M867,-36C867,-36 837,-36 837,-36 831,-36 825,-30 825,-24 825,-24 825,-12 825,-12 825,-6 831,0 837,0 837,0 867,0 867,0 873,0 879,-6 879,-12 879,-12 879,-24 879,-24 879,-30 873,-36 867,-36"/>
<text text-anchor="middle" x="852" y="-13.32" font-family="Helvetica,sans-Serif" font-size="14.00">(...)</text>
</g>
<!-- 14578&#45;&gt;15602 -->
<g id="edge20" class="edge">
<title>14578&#45;&gt;15602</title>
<path fill="none" stroke="black" d="M844.02,-71.75C845.28,-63.42 846.56,-54.97 847.71,-47.34"/>
<polygon fill="black" stroke="black" points="851.14,-48.08 849.17,-37.67 844.22,-47.03 851.14,-48.08"/>
</g>
<!-- 16066 -->
<g id="node23" class="node">
<title>16066</title>
<path fill="#c0c0c0" stroke="black" d="M966,-36C966,-36 936,-36 936,-36 930,-36 924,-30 924,-24 924,-24 924,-12 924,-12 924,-6 930,0 936,0 936,0 966,0 966,0 972,0 978,-6 978,-12 978,-12 978,-24 978,-24 978,-30 972,-36 966,-36"/>
<text text-anchor="middle" x="951" y="-13.32" font-family="Helvetica,sans-Serif" font-size="14.00">(...)</text>
</g>
<!-- 16065&#45;&gt;16066 -->
<g id="edge22" class="edge">
<title>16065&#45;&gt;16066</title>
<path fill="none" stroke="black" d="M983.46,-71.75C977.97,-62.83 972.39,-53.76 967.44,-45.72"/>
<polygon fill="black" stroke="black" points="970.58,-44.14 962.36,-37.46 964.62,-47.81 970.58,-44.14"/>
</g>
<!-- 16217 -->
<g id="node24" class="node">
<title>16217</title>
<path fill="#c0c0c0" stroke="black" d="M1038,-36C1038,-36 1008,-36 1008,-36 1002,-36 996,-30 996,-24 996,-24 996,-12 996,-12 996,-6 1002,0 1008,0 1008,0 1038,0 1038,0 1044,0 1050,-6 1050,-12 1050,-12 1050,-24 1050,-24 1050,-30 1044,-36 1038,-36"/>
<text text-anchor="middle" x="1023" y="-13.32" font-family="Helvetica,sans-Serif" font-size="14.00">(...)</text>
</g>
<!-- 16065&#45;&gt;16217 -->
<g id="edge23" class="edge">
<title>16065&#45;&gt;16217</title>
<path fill="none" stroke="black" d="M1017.15,-71.75C1018.06,-63.52 1018.99,-55.17 1019.82,-47.61"/>
<polygon fill="black" stroke="black" points="1023.3,-48 1020.93,-37.68 1016.35,-47.23 1023.3,-48"/>
</g>
<!-- 16279 -->
<g id="node26" class="node">
<title>16279</title>
<path fill="#f2c2a0" stroke="black" d="M1240,-166.25C1240,-166.25 1116,-166.25 1116,-166.25 1110,-166.25 1104,-160.25 1104,-154.25 1104,-154.25 1104,-84 1104,-84 1104,-78 1110,-72 1116,-72 1116,-72 1240,-72 1240,-72 1246,-72 1252,-78 1252,-84 1252,-84 1252,-154.25 1252,-154.25 1252,-160.25 1246,-166.25 1240,-166.25"/>
<text text-anchor="middle" x="1178" y="-148.95" font-family="Helvetica,sans-Serif" font-size="14.00">14_U &lt;= 0.5</text>
<text text-anchor="middle" x="1178" y="-131.7" font-family="Helvetica,sans-Serif" font-size="14.00">entropy = 0.926</text>
<text text-anchor="middle" x="1178" y="-114.45" font-family="Helvetica,sans-Serif" font-size="14.00">samples = 216</text>
<text text-anchor="middle" x="1178" y="-97.2" font-family="Helvetica,sans-Serif" font-size="14.00">value = [222, 115]</text>
<text text-anchor="middle" x="1178" y="-79.95" font-family="Helvetica,sans-Serif" font-size="14.00">class = Animal</text>
</g>
<!-- 16278&#45;&gt;16279 -->
<g id="edge25" class="edge">
<title>16278&#45;&gt;16279</title>
<path fill="none" stroke="black" d="M1178,-202.07C1178,-194.17 1178,-185.88 1178,-177.73"/>
<polygon fill="black" stroke="black" points="1181.5,-177.87 1178,-167.87 1174.5,-177.87 1181.5,-177.87"/>
</g>
<!-- 16416 -->
<g id="node29" class="node">
<title>16416</title>
<path fill="#f9e4d5" stroke="black" d="M1406,-166.25C1406,-166.25 1282,-166.25 1282,-166.25 1276,-166.25 1270,-160.25 1270,-154.25 1270,-154.25 1270,-84 1270,-84 1270,-78 1276,-72 1282,-72 1282,-72 1406,-72 1406,-72 1412,-72 1418,-78 1418,-84 1418,-84 1418,-154.25 1418,-154.25 1418,-160.25 1412,-166.25 1406,-166.25"/>
<text text-anchor="middle" x="1344" y="-148.95" font-family="Helvetica,sans-Serif" font-size="14.00">5_A &lt;= 0.5</text>
<text text-anchor="middle" x="1344" y="-131.7" font-family="Helvetica,sans-Serif" font-size="14.00">entropy = 0.99</text>
<text text-anchor="middle" x="1344" y="-114.45" font-family="Helvetica,sans-Serif" font-size="14.00">samples = 259</text>
<text text-anchor="middle" x="1344" y="-97.2" font-family="Helvetica,sans-Serif" font-size="14.00">value = [235, 185]</text>
<text text-anchor="middle" x="1344" y="-79.95" font-family="Helvetica,sans-Serif" font-size="14.00">class = Animal</text>
</g>
<!-- 16278&#45;&gt;16416 -->
<g id="edge28" class="edge">
<title>16278&#45;&gt;16416</title>
<path fill="none" stroke="black" d="M1237.93,-202.07C1249.96,-192.78 1262.7,-182.94 1275.01,-173.43"/>
<polygon fill="black" stroke="black" points="1276.91,-176.38 1282.68,-167.5 1272.63,-170.84 1276.91,-176.38"/>
</g>
<!-- 16280 -->
<g id="node27" class="node">
<title>16280</title>
<path fill="#c0c0c0" stroke="black" d="M1150,-36C1150,-36 1120,-36 1120,-36 1114,-36 1108,-30 1108,-24 1108,-24 1108,-12 1108,-12 1108,-6 1114,0 1120,0 1120,0 1150,0 1150,0 1156,0 1162,-6 1162,-12 1162,-12 1162,-24 1162,-24 1162,-30 1156,-36 1150,-36"/>
<text text-anchor="middle" x="1135" y="-13.32" font-family="Helvetica,sans-Serif" font-size="14.00">(...)</text>
</g>
<!-- 16279&#45;&gt;16280 -->
<g id="edge26" class="edge">
<title>16279&#45;&gt;16280</title>
<path fill="none" stroke="black" d="M1157.88,-71.75C1154.14,-63.12 1150.34,-54.36 1146.94,-46.53"/>
<polygon fill="black" stroke="black" points="1150.24,-45.34 1143.05,-37.56 1143.82,-48.13 1150.24,-45.34"/>
</g>
<!-- 16369 -->
<g id="node28" class="node">
<title>16369</title>
<path fill="#c0c0c0" stroke="black" d="M1222,-36C1222,-36 1192,-36 1192,-36 1186,-36 1180,-30 1180,-24 1180,-24 1180,-12 1180,-12 1180,-6 1186,0 1192,0 1192,0 1222,0 1222,0 1228,0 1234,-6 1234,-12 1234,-12 1234,-24 1234,-24 1234,-30 1228,-36 1222,-36"/>
<text text-anchor="middle" x="1207" y="-13.32" font-family="Helvetica,sans-Serif" font-size="14.00">(...)</text>
</g>
<!-- 16279&#45;&gt;16369 -->
<g id="edge27" class="edge">
<title>16279&#45;&gt;16369</title>
<path fill="none" stroke="black" d="M1191.57,-71.75C1194.03,-63.32 1196.54,-54.77 1198.79,-47.07"/>
<polygon fill="black" stroke="black" points="1202.1,-48.21 1201.55,-37.63 1195.38,-46.24 1202.1,-48.21"/>
</g>
<!-- 16417 -->
<g id="node30" class="node">
<title>16417</title>
<path fill="#c0c0c0" stroke="black" d="M1323,-36C1323,-36 1293,-36 1293,-36 1287,-36 1281,-30 1281,-24 1281,-24 1281,-12 1281,-12 1281,-6 1287,0 1293,0 1293,0 1323,0 1323,0 1329,0 1335,-6 1335,-12 1335,-12 1335,-24 1335,-24 1335,-30 1329,-36 1323,-36"/>
<text text-anchor="middle" x="1308" y="-13.32" font-family="Helvetica,sans-Serif" font-size="14.00">(...)</text>
</g>
<!-- 16416&#45;&gt;16417 -->
<g id="edge29" class="edge">
<title>16416&#45;&gt;16417</title>
<path fill="none" stroke="black" d="M1327.16,-71.75C1324.06,-63.22 1320.92,-54.57 1318.1,-46.8"/>
<polygon fill="black" stroke="black" points="1321.46,-45.8 1314.75,-37.6 1314.88,-48.19 1321.46,-45.8"/>
</g>
<!-- 16492 -->
<g id="node31" class="node">
<title>16492</title>
<path fill="#c0c0c0" stroke="black" d="M1395,-36C1395,-36 1365,-36 1365,-36 1359,-36 1353,-30 1353,-24 1353,-24 1353,-12 1353,-12 1353,-6 1359,0 1365,0 1365,0 1395,0 1395,0 1401,0 1407,-6 1407,-12 1407,-12 1407,-24 1407,-24 1407,-30 1401,-36 1395,-36"/>
<text text-anchor="middle" x="1380" y="-13.32" font-family="Helvetica,sans-Serif" font-size="14.00">(...)</text>
</g>
<!-- 16416&#45;&gt;16492 -->
<g id="edge30" class="edge">
<title>16416&#45;&gt;16492</title>
<path fill="none" stroke="black" d="M1360.84,-71.75C1363.94,-63.22 1367.08,-54.57 1369.9,-46.8"/>
<polygon fill="black" stroke="black" points="1373.12,-48.19 1373.25,-37.6 1366.54,-45.8 1373.12,-48.19"/>
</g>
</g>
</svg>
