<?xml version="1.0" encoding="UTF-8" standalone="no"?>
<!DOCTYPE svg PUBLIC "-//W3C//DTD SVG 1.1//EN"
 "http://www.w3.org/Graphics/SVG/1.1/DTD/svg11.dtd">
<!-- Generated by graphviz version 12.0.0 (20240803.0821)
 -->
<!-- Title: Tree Pages: 1 -->
<svg width="1374pt" height="565pt"
 viewBox="0.00 0.00 1374.38 565.00" xmlns="http://www.w3.org/2000/svg" xmlns:xlink="http://www.w3.org/1999/xlink">
<g id="graph0" class="graph" transform="scale(1 1) rotate(0) translate(4 561)">
<title>Tree</title>
<polygon fill="white" stroke="none" points="-4,4 -4,-561 1370.38,-561 1370.38,4 -4,4"/>
<!-- 0 -->
<g id="node1" class="node">
<title>0</title>
<path fill="#fffefe" stroke="black" d="M810,-557C810,-557 650,-557 650,-557 644,-557 638,-551 638,-545 638,-545 638,-474.75 638,-474.75 638,-468.75 644,-462.75 650,-462.75 650,-462.75 810,-462.75 810,-462.75 816,-462.75 822,-468.75 822,-474.75 822,-474.75 822,-545 822,-545 822,-551 816,-557 810,-557"/>
<text text-anchor="middle" x="730" y="-539.7" font-family="Helvetica,sans-Serif" font-size="14.00">23_G &lt;= 0.5</text>
<text text-anchor="middle" x="730" y="-522.45" font-family="Helvetica,sans-Serif" font-size="14.00">entropy = 1.0</text>
<text text-anchor="middle" x="730" y="-505.2" font-family="Helvetica,sans-Serif" font-size="14.00">samples = 38183</text>
<text text-anchor="middle" x="730" y="-487.95" font-family="Helvetica,sans-Serif" font-size="14.00">value = [30279, 30066]</text>
<text text-anchor="middle" x="730" y="-470.7" font-family="Helvetica,sans-Serif" font-size="14.00">class = Animal</text>
</g>
<!-- 1 -->
<g id="node2" class="node">
<title>1</title>
<path fill="#f6fbfe" stroke="black" d="M639,-426.75C639,-426.75 479,-426.75 479,-426.75 473,-426.75 467,-420.75 467,-414.75 467,-414.75 467,-344.5 467,-344.5 467,-338.5 473,-332.5 479,-332.5 479,-332.5 639,-332.5 639,-332.5 645,-332.5 651,-338.5 651,-344.5 651,-344.5 651,-414.75 651,-414.75 651,-420.75 645,-426.75 639,-426.75"/>
<text text-anchor="middle" x="559" y="-409.45" font-family="Helvetica,sans-Serif" font-size="14.00">8_G &lt;= 0.5</text>
<text text-anchor="middle" x="559" y="-392.2" font-family="Helvetica,sans-Serif" font-size="14.00">entropy = 1.0</text>
<text text-anchor="middle" x="559" y="-374.95" font-family="Helvetica,sans-Serif" font-size="14.00">samples = 36297</text>
<text text-anchor="middle" x="559" y="-357.7" font-family="Helvetica,sans-Serif" font-size="14.00">value = [28041, 29324]</text>
<text text-anchor="middle" x="559" y="-340.45" font-family="Helvetica,sans-Serif" font-size="14.00">class = Plant</text>
</g>
<!-- 0&#45;&gt;1 -->
<g id="edge1" class="edge">
<title>0&#45;&gt;1</title>
<path fill="none" stroke="black" d="M668.27,-462.57C655.87,-453.28 642.75,-443.44 630.07,-433.93"/>
<polygon fill="black" stroke="black" points="632.24,-431.18 622.14,-427.98 628.04,-436.78 632.24,-431.18"/>
<text text-anchor="middle" x="624.47" y="-447.15" font-family="Helvetica,sans-Serif" font-size="14.00">True</text>
</g>
<!-- 15882 -->
<g id="node17" class="node">
<title>15882</title>
<path fill="#eeab7b" stroke="black" d="M969.5,-426.75C969.5,-426.75 836.5,-426.75 836.5,-426.75 830.5,-426.75 824.5,-420.75 824.5,-414.75 824.5,-414.75 824.5,-344.5 824.5,-344.5 824.5,-338.5 830.5,-332.5 836.5,-332.5 836.5,-332.5 969.5,-332.5 969.5,-332.5 975.5,-332.5 981.5,-338.5 981.5,-344.5 981.5,-344.5 981.5,-414.75 981.5,-414.75 981.5,-420.75 975.5,-426.75 969.5,-426.75"/>
<text text-anchor="middle" x="903" y="-409.45" font-family="Helvetica,sans-Serif" font-size="14.00">13_C &lt;= 0.5</text>
<text text-anchor="middle" x="903" y="-392.2" font-family="Helvetica,sans-Serif" font-size="14.00">entropy = 0.81</text>
<text text-anchor="middle" x="903" y="-374.95" font-family="Helvetica,sans-Serif" font-size="14.00">samples = 1886</text>
<text text-anchor="middle" x="903" y="-357.7" font-family="Helvetica,sans-Serif" font-size="14.00">value = [2238, 742]</text>
<text text-anchor="middle" x="903" y="-340.45" font-family="Helvetica,sans-Serif" font-size="14.00">class = Animal</text>
</g>
<!-- 0&#45;&gt;15882 -->
<g id="edge16" class="edge">
<title>0&#45;&gt;15882</title>
<path fill="none" stroke="black" d="M792.46,-462.57C805,-453.28 818.27,-443.44 831.1,-433.93"/>
<polygon fill="black" stroke="black" points="833.18,-436.74 839.13,-427.97 829.01,-431.12 833.18,-436.74"/>
<text text-anchor="middle" x="836.67" y="-447.13" font-family="Helvetica,sans-Serif" font-size="14.00">False</text>
</g>
<!-- 2 -->
<g id="node3" class="node">
<title>2</title>
<path fill="#fbebdf" stroke="black" d="M365,-296.5C365,-296.5 205,-296.5 205,-296.5 199,-296.5 193,-290.5 193,-284.5 193,-284.5 193,-214.25 193,-214.25 193,-208.25 199,-202.25 205,-202.25 205,-202.25 365,-202.25 365,-202.25 371,-202.25 377,-208.25 377,-214.25 377,-214.25 377,-284.5 377,-284.5 377,-290.5 371,-296.5 365,-296.5"/>
<text text-anchor="middle" x="285" y="-279.2" font-family="Helvetica,sans-Serif" font-size="14.00">6_G &lt;= 0.5</text>
<text text-anchor="middle" x="285" y="-261.95" font-family="Helvetica,sans-Serif" font-size="14.00">entropy = 0.995</text>
<text text-anchor="middle" x="285" y="-244.7" font-family="Helvetica,sans-Serif" font-size="14.00">samples = 24908</text>
<text text-anchor="middle" x="285" y="-227.45" font-family="Helvetica,sans-Serif" font-size="14.00">value = [21412, 17993]</text>
<text text-anchor="middle" x="285" y="-210.2" font-family="Helvetica,sans-Serif" font-size="14.00">class = Animal</text>
</g>
<!-- 1&#45;&gt;2 -->
<g id="edge2" class="edge">
<title>1&#45;&gt;2</title>
<path fill="none" stroke="black" d="M466.62,-335.38C441.24,-323.51 413.58,-310.56 387.66,-298.43"/>
<polygon fill="black" stroke="black" points="389.36,-295.36 378.82,-294.29 386.39,-301.7 389.36,-295.36"/>
</g>
<!-- 11675 -->
<g id="node10" class="node">
<title>11675</title>
<path fill="#add6f4" stroke="black" d="M634.5,-296.5C634.5,-296.5 483.5,-296.5 483.5,-296.5 477.5,-296.5 471.5,-290.5 471.5,-284.5 471.5,-284.5 471.5,-214.25 471.5,-214.25 471.5,-208.25 477.5,-202.25 483.5,-202.25 483.5,-202.25 634.5,-202.25 634.5,-202.25 640.5,-202.25 646.5,-208.25 646.5,-214.25 646.5,-214.25 646.5,-284.5 646.5,-284.5 646.5,-290.5 640.5,-296.5 634.5,-296.5"/>
<text text-anchor="middle" x="559" y="-279.2" font-family="Helvetica,sans-Serif" font-size="14.00">23_U &lt;= 0.5</text>
<text text-anchor="middle" x="559" y="-261.95" font-family="Helvetica,sans-Serif" font-size="14.00">entropy = 0.95</text>
<text text-anchor="middle" x="559" y="-244.7" font-family="Helvetica,sans-Serif" font-size="14.00">samples = 11389</text>
<text text-anchor="middle" x="559" y="-227.45" font-family="Helvetica,sans-Serif" font-size="14.00">value = [6629, 11331]</text>
<text text-anchor="middle" x="559" y="-210.2" font-family="Helvetica,sans-Serif" font-size="14.00">class = Plant</text>
</g>
<!-- 1&#45;&gt;11675 -->
<g id="edge9" class="edge">
<title>1&#45;&gt;11675</title>
<path fill="none" stroke="black" d="M559,-332.32C559,-324.42 559,-316.13 559,-307.98"/>
<polygon fill="black" stroke="black" points="562.5,-308.12 559,-298.12 555.5,-308.12 562.5,-308.12"/>
</g>
<!-- 3 -->
<g id="node4" class="node">
<title>3</title>
<path fill="#fae7d9" stroke="black" d="M172,-166.25C172,-166.25 12,-166.25 12,-166.25 6,-166.25 0,-160.25 0,-154.25 0,-154.25 0,-84 0,-84 0,-78 6,-72 12,-72 12,-72 172,-72 172,-72 178,-72 184,-78 184,-84 184,-84 184,-154.25 184,-154.25 184,-160.25 178,-166.25 172,-166.25"/>
<text text-anchor="middle" x="92" y="-148.95" font-family="Helvetica,sans-Serif" font-size="14.00">22_A &lt;= 0.5</text>
<text text-anchor="middle" x="92" y="-131.7" font-family="Helvetica,sans-Serif" font-size="14.00">entropy = 0.992</text>
<text text-anchor="middle" x="92" y="-114.45" font-family="Helvetica,sans-Serif" font-size="14.00">samples = 18426</text>
<text text-anchor="middle" x="92" y="-97.2" font-family="Helvetica,sans-Serif" font-size="14.00">value = [16105, 13006]</text>
<text text-anchor="middle" x="92" y="-79.95" font-family="Helvetica,sans-Serif" font-size="14.00">class = Animal</text>
</g>
<!-- 2&#45;&gt;3 -->
<g id="edge3" class="edge">
<title>2&#45;&gt;3</title>
<path fill="none" stroke="black" d="M215.05,-201.89C200.89,-192.48 185.9,-182.53 171.45,-172.92"/>
<polygon fill="black" stroke="black" points="173.56,-170.12 163.3,-167.5 169.69,-175.95 173.56,-170.12"/>
</g>
<!-- 8474 -->
<g id="node7" class="node">
<title>8474</title>
<path fill="#fdf7f3" stroke="black" d="M356,-166.25C356,-166.25 214,-166.25 214,-166.25 208,-166.25 202,-160.25 202,-154.25 202,-154.25 202,-84 202,-84 202,-78 208,-72 214,-72 214,-72 356,-72 356,-72 362,-72 368,-78 368,-84 368,-84 368,-154.25 368,-154.25 368,-160.25 362,-166.25 356,-166.25"/>
<text text-anchor="middle" x="285" y="-148.95" font-family="Helvetica,sans-Serif" font-size="14.00">18_A &lt;= 0.5</text>
<text text-anchor="middle" x="285" y="-131.7" font-family="Helvetica,sans-Serif" font-size="14.00">entropy = 0.999</text>
<text text-anchor="middle" x="285" y="-114.45" font-family="Helvetica,sans-Serif" font-size="14.00">samples = 6482</text>
<text text-anchor="middle" x="285" y="-97.2" font-family="Helvetica,sans-Serif" font-size="14.00">value = [5307, 4987]</text>
<text text-anchor="middle" x="285" y="-79.95" font-family="Helvetica,sans-Serif" font-size="14.00">class = Animal</text>
</g>
<!-- 2&#45;&gt;8474 -->
<g id="edge6" class="edge">
<title>2&#45;&gt;8474</title>
<path fill="none" stroke="black" d="M285,-202.07C285,-194.17 285,-185.88 285,-177.73"/>
<polygon fill="black" stroke="black" points="288.5,-177.87 285,-167.87 281.5,-177.87 288.5,-177.87"/>
</g>
<!-- 4 -->
<g id="node5" class="node">
<title>4</title>
<path fill="#c0c0c0" stroke="black" d="M71,-36C71,-36 41,-36 41,-36 35,-36 29,-30 29,-24 29,-24 29,-12 29,-12 29,-6 35,0 41,0 41,0 71,0 71,0 77,0 83,-6 83,-12 83,-12 83,-24 83,-24 83,-30 77,-36 71,-36"/>
<text text-anchor="middle" x="56" y="-13.32" font-family="Helvetica,sans-Serif" font-size="14.00">(...)</text>
</g>
<!-- 3&#45;&gt;4 -->
<g id="edge4" class="edge">
<title>3&#45;&gt;4</title>
<path fill="none" stroke="black" d="M75.16,-71.75C72.06,-63.22 68.92,-54.57 66.1,-46.8"/>
<polygon fill="black" stroke="black" points="69.46,-45.8 62.75,-37.6 62.88,-48.19 69.46,-45.8"/>
</g>
<!-- 7531 -->
<g id="node6" class="node">
<title>7531</title>
<path fill="#c0c0c0" stroke="black" d="M143,-36C143,-36 113,-36 113,-36 107,-36 101,-30 101,-24 101,-24 101,-12 101,-12 101,-6 107,0 113,0 113,0 143,0 143,0 149,0 155,-6 155,-12 155,-12 155,-24 155,-24 155,-30 149,-36 143,-36"/>
<text text-anchor="middle" x="128" y="-13.32" font-family="Helvetica,sans-Serif" font-size="14.00">(...)</text>
</g>
<!-- 3&#45;&gt;7531 -->
<g id="edge5" class="edge">
<title>3&#45;&gt;7531</title>
<path fill="none" stroke="black" d="M108.84,-71.75C111.94,-63.22 115.08,-54.57 117.9,-46.8"/>
<polygon fill="black" stroke="black" points="121.12,-48.19 121.25,-37.6 114.54,-45.8 121.12,-48.19"/>
</g>
<!-- 8475 -->
<g id="node8" class="node">
<title>8475</title>
<path fill="#c0c0c0" stroke="black" d="M269,-36C269,-36 239,-36 239,-36 233,-36 227,-30 227,-24 227,-24 227,-12 227,-12 227,-6 233,0 239,0 239,0 269,0 269,0 275,0 281,-6 281,-12 281,-12 281,-24 281,-24 281,-30 275,-36 269,-36"/>
<text text-anchor="middle" x="254" y="-13.32" font-family="Helvetica,sans-Serif" font-size="14.00">(...)</text>
</g>
<!-- 8474&#45;&gt;8475 -->
<g id="edge7" class="edge">
<title>8474&#45;&gt;8475</title>
<path fill="none" stroke="black" d="M270.5,-71.75C267.86,-63.32 265.19,-54.77 262.78,-47.07"/>
<polygon fill="black" stroke="black" points="266.15,-46.12 259.82,-37.62 259.47,-48.21 266.15,-46.12"/>
</g>
<!-- 10950 -->
<g id="node9" class="node">
<title>10950</title>
<path fill="#c0c0c0" stroke="black" d="M341,-36C341,-36 311,-36 311,-36 305,-36 299,-30 299,-24 299,-24 299,-12 299,-12 299,-6 305,0 311,0 311,0 341,0 341,0 347,0 353,-6 353,-12 353,-12 353,-24 353,-24 353,-30 347,-36 341,-36"/>
<text text-anchor="middle" x="326" y="-13.32" font-family="Helvetica,sans-Serif" font-size="14.00">(...)</text>
</g>
<!-- 8474&#45;&gt;10950 -->
<g id="edge8" class="edge">
<title>8474&#45;&gt;10950</title>
<path fill="none" stroke="black" d="M304.18,-71.75C307.71,-63.22 311.29,-54.57 314.5,-46.8"/>
<polygon fill="black" stroke="black" points="317.73,-48.15 318.32,-37.57 311.26,-45.47 317.73,-48.15"/>
</g>
<!-- 11676 -->
<g id="node11" class="node">
<title>11676</title>
<path fill="#a5d2f3" stroke="black" d="M549.5,-166.25C549.5,-166.25 398.5,-166.25 398.5,-166.25 392.5,-166.25 386.5,-160.25 386.5,-154.25 386.5,-154.25 386.5,-84 386.5,-84 386.5,-78 392.5,-72 398.5,-72 398.5,-72 549.5,-72 549.5,-72 555.5,-72 561.5,-78 561.5,-84 561.5,-84 561.5,-154.25 561.5,-154.25 561.5,-160.25 555.5,-166.25 549.5,-166.25"/>
<text text-anchor="middle" x="474" y="-148.95" font-family="Helvetica,sans-Serif" font-size="14.00">6_A &lt;= 0.5</text>
<text text-anchor="middle" x="474" y="-131.7" font-family="Helvetica,sans-Serif" font-size="14.00">entropy = 0.936</text>
<text text-anchor="middle" x="474" y="-114.45" font-family="Helvetica,sans-Serif" font-size="14.00">samples = 10918</text>
<text text-anchor="middle" x="474" y="-97.2" font-family="Helvetica,sans-Serif" font-size="14.00">value = [6064, 11148]</text>
<text text-anchor="middle" x="474" y="-79.95" font-family="Helvetica,sans-Serif" font-size="14.00">class = Plant</text>
</g>
<!-- 11675&#45;&gt;11676 -->
<g id="edge10" class="edge">
<title>11675&#45;&gt;11676</title>
<path fill="none" stroke="black" d="M528.31,-202.07C522.66,-193.54 516.7,-184.54 510.88,-175.77"/>
<polygon fill="black" stroke="black" points="513.92,-174.02 505.48,-167.62 508.09,-177.89 513.92,-174.02"/>
</g>
<!-- 15701 -->
<g id="node14" class="node">
<title>15701</title>
<path fill="#edaa79" stroke="black" d="M716,-166.25C716,-166.25 592,-166.25 592,-166.25 586,-166.25 580,-160.25 580,-154.25 580,-154.25 580,-84 580,-84 580,-78 586,-72 592,-72 592,-72 716,-72 716,-72 722,-72 728,-78 728,-84 728,-84 728,-154.25 728,-154.25 728,-160.25 722,-166.25 716,-166.25"/>
<text text-anchor="middle" x="654" y="-148.95" font-family="Helvetica,sans-Serif" font-size="14.00">4_A &lt;= 0.5</text>
<text text-anchor="middle" x="654" y="-131.7" font-family="Helvetica,sans-Serif" font-size="14.00">entropy = 0.803</text>
<text text-anchor="middle" x="654" y="-114.45" font-family="Helvetica,sans-Serif" font-size="14.00">samples = 471</text>
<text text-anchor="middle" x="654" y="-97.2" font-family="Helvetica,sans-Serif" font-size="14.00">value = [565, 183]</text>
<text text-anchor="middle" x="654" y="-79.95" font-family="Helvetica,sans-Serif" font-size="14.00">class = Animal</text>
</g>
<!-- 11675&#45;&gt;15701 -->
<g id="edge13" class="edge">
<title>11675&#45;&gt;15701</title>
<path fill="none" stroke="black" d="M593.3,-202.07C599.69,-193.45 606.42,-184.35 612.99,-175.49"/>
<polygon fill="black" stroke="black" points="615.71,-177.69 618.85,-167.57 610.09,-173.53 615.71,-177.69"/>
</g>
<!-- 11677 -->
<g id="node12" class="node">
<title>11677</title>
<path fill="#c0c0c0" stroke="black" d="M435,-36C435,-36 405,-36 405,-36 399,-36 393,-30 393,-24 393,-24 393,-12 393,-12 393,-6 399,0 405,0 405,0 435,0 435,0 441,0 447,-6 447,-12 447,-12 447,-24 447,-24 447,-30 441,-36 435,-36"/>
<text text-anchor="middle" x="420" y="-13.32" font-family="Helvetica,sans-Serif" font-size="14.00">(...)</text>
</g>
<!-- 11676&#45;&gt;11677 -->
<g id="edge11" class="edge">
<title>11676&#45;&gt;11677</title>
<path fill="none" stroke="black" d="M448.74,-71.75C443.98,-63.03 439.16,-54.16 434.85,-46.26"/>
<polygon fill="black" stroke="black" points="437.94,-44.61 430.08,-37.5 431.79,-47.96 437.94,-44.61"/>
</g>
<!-- 14772 -->
<g id="node13" class="node">
<title>14772</title>
<path fill="#c0c0c0" stroke="black" d="M507,-36C507,-36 477,-36 477,-36 471,-36 465,-30 465,-24 465,-24 465,-12 465,-12 465,-6 471,0 477,0 477,0 507,0 507,0 513,0 519,-6 519,-12 519,-12 519,-24 519,-24 519,-30 513,-36 507,-36"/>
<text text-anchor="middle" x="492" y="-13.32" font-family="Helvetica,sans-Serif" font-size="14.00">(...)</text>
</g>
<!-- 11676&#45;&gt;14772 -->
<g id="edge12" class="edge">
<title>11676&#45;&gt;14772</title>
<path fill="none" stroke="black" d="M482.42,-71.75C483.93,-63.42 485.47,-54.97 486.85,-47.34"/>
<polygon fill="black" stroke="black" points="490.27,-48.13 488.61,-37.66 483.38,-46.88 490.27,-48.13"/>
</g>
<!-- 15702 -->
<g id="node15" class="node">
<title>15702</title>
<path fill="#c0c0c0" stroke="black" d="M610,-36C610,-36 580,-36 580,-36 574,-36 568,-30 568,-24 568,-24 568,-12 568,-12 568,-6 574,0 580,0 580,0 610,0 610,0 616,0 622,-6 622,-12 622,-12 622,-24 622,-24 622,-30 616,-36 610,-36"/>
<text text-anchor="middle" x="595" y="-13.32" font-family="Helvetica,sans-Serif" font-size="14.00">(...)</text>
</g>
<!-- 15701&#45;&gt;15702 -->
<g id="edge14" class="edge">
<title>15701&#45;&gt;15702</title>
<path fill="none" stroke="black" d="M626.4,-71.75C621.15,-62.93 615.81,-53.96 611.06,-45.99"/>
<polygon fill="black" stroke="black" points="614.12,-44.28 606,-37.47 608.1,-47.86 614.12,-44.28"/>
</g>
<!-- 15839 -->
<g id="node16" class="node">
<title>15839</title>
<path fill="#c0c0c0" stroke="black" d="M682,-36C682,-36 652,-36 652,-36 646,-36 640,-30 640,-24 640,-24 640,-12 640,-12 640,-6 646,0 652,0 652,0 682,0 682,0 688,0 694,-6 694,-12 694,-12 694,-24 694,-24 694,-30 688,-36 682,-36"/>
<text text-anchor="middle" x="667" y="-13.32" font-family="Helvetica,sans-Serif" font-size="14.00">(...)</text>
</g>
<!-- 15701&#45;&gt;15839 -->
<g id="edge15" class="edge">
<title>15701&#45;&gt;15839</title>
<path fill="none" stroke="black" d="M660.08,-71.75C661.17,-63.42 662.28,-54.97 663.28,-47.34"/>
<polygon fill="black" stroke="black" points="666.72,-48.04 664.55,-37.67 659.78,-47.13 666.72,-48.04"/>
</g>
<!-- 15883 -->
<g id="node18" class="node">
<title>15883</title>
<path fill="#efb083" stroke="black" d="M969.5,-296.5C969.5,-296.5 836.5,-296.5 836.5,-296.5 830.5,-296.5 824.5,-290.5 824.5,-284.5 824.5,-284.5 824.5,-214.25 824.5,-214.25 824.5,-208.25 830.5,-202.25 836.5,-202.25 836.5,-202.25 969.5,-202.25 969.5,-202.25 975.5,-202.25 981.5,-208.25 981.5,-214.25 981.5,-214.25 981.5,-284.5 981.5,-284.5 981.5,-290.5 975.5,-296.5 969.5,-296.5"/>
<text text-anchor="middle" x="903" y="-279.2" font-family="Helvetica,sans-Serif" font-size="14.00">6_U &lt;= 0.5</text>
<text text-anchor="middle" x="903" y="-261.95" font-family="Helvetica,sans-Serif" font-size="14.00">entropy = 0.846</text>
<text text-anchor="middle" x="903" y="-244.7" font-family="Helvetica,sans-Serif" font-size="14.00">samples = 1534</text>
<text text-anchor="middle" x="903" y="-227.45" font-family="Helvetica,sans-Serif" font-size="14.00">value = [1777, 667]</text>
<text text-anchor="middle" x="903" y="-210.2" font-family="Helvetica,sans-Serif" font-size="14.00">class = Animal</text>
</g>
<!-- 15882&#45;&gt;15883 -->
<g id="edge17" class="edge">
<title>15882&#45;&gt;15883</title>
<path fill="none" stroke="black" d="M903,-332.32C903,-324.42 903,-316.13 903,-307.98"/>
<polygon fill="black" stroke="black" points="906.5,-308.12 903,-298.12 899.5,-308.12 906.5,-308.12"/>
</g>
<!-- 16488 -->
<g id="node25" class="node">
<title>16488</title>
<path fill="#e99559" stroke="black" d="M1205.5,-296.5C1205.5,-296.5 1090.5,-296.5 1090.5,-296.5 1084.5,-296.5 1078.5,-290.5 1078.5,-284.5 1078.5,-284.5 1078.5,-214.25 1078.5,-214.25 1078.5,-208.25 1084.5,-202.25 1090.5,-202.25 1090.5,-202.25 1205.5,-202.25 1205.5,-202.25 1211.5,-202.25 1217.5,-208.25 1217.5,-214.25 1217.5,-214.25 1217.5,-284.5 1217.5,-284.5 1217.5,-290.5 1211.5,-296.5 1205.5,-296.5"/>
<text text-anchor="middle" x="1148" y="-279.2" font-family="Helvetica,sans-Serif" font-size="14.00">24_C &lt;= 0.5</text>
<text text-anchor="middle" x="1148" y="-261.95" font-family="Helvetica,sans-Serif" font-size="14.00">entropy = 0.584</text>
<text text-anchor="middle" x="1148" y="-244.7" font-family="Helvetica,sans-Serif" font-size="14.00">samples = 352</text>
<text text-anchor="middle" x="1148" y="-227.45" font-family="Helvetica,sans-Serif" font-size="14.00">value = [461, 75]</text>
<text text-anchor="middle" x="1148" y="-210.2" font-family="Helvetica,sans-Serif" font-size="14.00">class = Animal</text>
</g>
<!-- 15882&#45;&gt;16488 -->
<g id="edge24" class="edge">
<title>15882&#45;&gt;16488</title>
<path fill="none" stroke="black" d="M981.87,-337.34C1009.53,-322.86 1040.6,-306.6 1068.32,-292.08"/>
<polygon fill="black" stroke="black" points="1069.79,-295.26 1077.03,-287.53 1066.55,-289.06 1069.79,-295.26"/>
</g>
<!-- 15884 -->
<g id="node19" class="node">
<title>15884</title>
<path fill="#f1b992" stroke="black" d="M891.5,-166.25C891.5,-166.25 758.5,-166.25 758.5,-166.25 752.5,-166.25 746.5,-160.25 746.5,-154.25 746.5,-154.25 746.5,-84 746.5,-84 746.5,-78 752.5,-72 758.5,-72 758.5,-72 891.5,-72 891.5,-72 897.5,-72 903.5,-78 903.5,-84 903.5,-84 903.5,-154.25 903.5,-154.25 903.5,-160.25 897.5,-166.25 891.5,-166.25"/>
<text text-anchor="middle" x="825" y="-148.95" font-family="Helvetica,sans-Serif" font-size="14.00">22_G &lt;= 0.5</text>
<text text-anchor="middle" x="825" y="-131.7" font-family="Helvetica,sans-Serif" font-size="14.00">entropy = 0.892</text>
<text text-anchor="middle" x="825" y="-114.45" font-family="Helvetica,sans-Serif" font-size="14.00">samples = 1158</text>
<text text-anchor="middle" x="825" y="-97.2" font-family="Helvetica,sans-Serif" font-size="14.00">value = [1278, 572]</text>
<text text-anchor="middle" x="825" y="-79.95" font-family="Helvetica,sans-Serif" font-size="14.00">class = Animal</text>
</g>
<!-- 15883&#45;&gt;15884 -->
<g id="edge18" class="edge">
<title>15883&#45;&gt;15884</title>
<path fill="none" stroke="black" d="M874.84,-202.07C869.7,-193.63 864.3,-184.74 859.01,-176.05"/>
<polygon fill="black" stroke="black" points="862.09,-174.38 853.9,-167.65 856.11,-178.01 862.09,-174.38"/>
</g>
<!-- 16347 -->
<g id="node22" class="node">
<title>16347</title>
<path fill="#ea995f" stroke="black" d="M1048.5,-166.25C1048.5,-166.25 933.5,-166.25 933.5,-166.25 927.5,-166.25 921.5,-160.25 921.5,-154.25 921.5,-154.25 921.5,-84 921.5,-84 921.5,-78 927.5,-72 933.5,-72 933.5,-72 1048.5,-72 1048.5,-72 1054.5,-72 1060.5,-78 1060.5,-84 1060.5,-84 1060.5,-154.25 1060.5,-154.25 1060.5,-160.25 1054.5,-166.25 1048.5,-166.25"/>
<text text-anchor="middle" x="991" y="-148.95" font-family="Helvetica,sans-Serif" font-size="14.00">24_A &lt;= 0.5</text>
<text text-anchor="middle" x="991" y="-131.7" font-family="Helvetica,sans-Serif" font-size="14.00">entropy = 0.634</text>
<text text-anchor="middle" x="991" y="-114.45" font-family="Helvetica,sans-Serif" font-size="14.00">samples = 376</text>
<text text-anchor="middle" x="991" y="-97.2" font-family="Helvetica,sans-Serif" font-size="14.00">value = [499, 95]</text>
<text text-anchor="middle" x="991" y="-79.95" font-family="Helvetica,sans-Serif" font-size="14.00">class = Animal</text>
</g>
<!-- 15883&#45;&gt;16347 -->
<g id="edge21" class="edge">
<title>15883&#45;&gt;16347</title>
<path fill="none" stroke="black" d="M934.77,-202.07C940.63,-193.54 946.8,-184.54 952.82,-175.77"/>
<polygon fill="black" stroke="black" points="955.65,-177.83 958.42,-167.61 949.88,-173.87 955.65,-177.83"/>
</g>
<!-- 15885 -->
<g id="node20" class="node">
<title>15885</title>
<path fill="#c0c0c0" stroke="black" d="M779,-36C779,-36 749,-36 749,-36 743,-36 737,-30 737,-24 737,-24 737,-12 737,-12 737,-6 743,0 749,0 749,0 779,0 779,0 785,0 791,-6 791,-12 791,-12 791,-24 791,-24 791,-30 785,-36 779,-36"/>
<text text-anchor="middle" x="764" y="-13.32" font-family="Helvetica,sans-Serif" font-size="14.00">(...)</text>
</g>
<!-- 15884&#45;&gt;15885 -->
<g id="edge19" class="edge">
<title>15884&#45;&gt;15885</title>
<path fill="none" stroke="black" d="M796.46,-71.75C790.97,-62.83 785.39,-53.76 780.44,-45.72"/>
<polygon fill="black" stroke="black" points="783.58,-44.14 775.36,-37.46 777.62,-47.81 783.58,-44.14"/>
</g>
<!-- 16196 -->
<g id="node21" class="node">
<title>16196</title>
<path fill="#c0c0c0" stroke="black" d="M851,-36C851,-36 821,-36 821,-36 815,-36 809,-30 809,-24 809,-24 809,-12 809,-12 809,-6 815,0 821,0 821,0 851,0 851,0 857,0 863,-6 863,-12 863,-12 863,-24 863,-24 863,-30 857,-36 851,-36"/>
<text text-anchor="middle" x="836" y="-13.32" font-family="Helvetica,sans-Serif" font-size="14.00">(...)</text>
</g>
<!-- 15884&#45;&gt;16196 -->
<g id="edge20" class="edge">
<title>15884&#45;&gt;16196</title>
<path fill="none" stroke="black" d="M830.15,-71.75C831.06,-63.52 831.99,-55.17 832.82,-47.61"/>
<polygon fill="black" stroke="black" points="836.3,-48 833.93,-37.68 829.35,-47.23 836.3,-48"/>
</g>
<!-- 16348 -->
<g id="node23" class="node">
<title>16348</title>
<path fill="#c0c0c0" stroke="black" d="M940,-36C940,-36 910,-36 910,-36 904,-36 898,-30 898,-24 898,-24 898,-12 898,-12 898,-6 904,0 910,0 910,0 940,0 940,0 946,0 952,-6 952,-12 952,-12 952,-24 952,-24 952,-30 946,-36 940,-36"/>
<text text-anchor="middle" x="925" y="-13.32" font-family="Helvetica,sans-Serif" font-size="14.00">(...)</text>
</g>
<!-- 16347&#45;&gt;16348 -->
<g id="edge22" class="edge">
<title>16347&#45;&gt;16348</title>
<path fill="none" stroke="black" d="M960.13,-71.75C954.18,-62.83 948.14,-53.76 942.79,-45.72"/>
<polygon fill="black" stroke="black" points="945.73,-43.82 937.27,-37.43 939.9,-47.7 945.73,-43.82"/>
</g>
<!-- 16469 -->
<g id="node24" class="node">
<title>16469</title>
<path fill="#c0c0c0" stroke="black" d="M1012,-36C1012,-36 982,-36 982,-36 976,-36 970,-30 970,-24 970,-24 970,-12 970,-12 970,-6 976,0 982,0 982,0 1012,0 1012,0 1018,0 1024,-6 1024,-12 1024,-12 1024,-24 1024,-24 1024,-30 1018,-36 1012,-36"/>
<text text-anchor="middle" x="997" y="-13.32" font-family="Helvetica,sans-Serif" font-size="14.00">(...)</text>
</g>
<!-- 16347&#45;&gt;16469 -->
<g id="edge23" class="edge">
<title>16347&#45;&gt;16469</title>
<path fill="none" stroke="black" d="M993.81,-71.75C994.31,-63.52 994.81,-55.17 995.27,-47.61"/>
<polygon fill="black" stroke="black" points="998.76,-47.88 995.87,-37.68 991.77,-47.45 998.76,-47.88"/>
</g>
<!-- 16489 -->
<g id="node26" class="node">
<title>16489</title>
<path fill="#e89253" stroke="black" d="M1205.5,-166.25C1205.5,-166.25 1090.5,-166.25 1090.5,-166.25 1084.5,-166.25 1078.5,-160.25 1078.5,-154.25 1078.5,-154.25 1078.5,-84 1078.5,-84 1078.5,-78 1084.5,-72 1090.5,-72 1090.5,-72 1205.5,-72 1205.5,-72 1211.5,-72 1217.5,-78 1217.5,-84 1217.5,-84 1217.5,-154.25 1217.5,-154.25 1217.5,-160.25 1211.5,-166.25 1205.5,-166.25"/>
<text text-anchor="middle" x="1148" y="-148.95" font-family="Helvetica,sans-Serif" font-size="14.00">19_U &lt;= 0.5</text>
<text text-anchor="middle" x="1148" y="-131.7" font-family="Helvetica,sans-Serif" font-size="14.00">entropy = 0.523</text>
<text text-anchor="middle" x="1148" y="-114.45" font-family="Helvetica,sans-Serif" font-size="14.00">samples = 319</text>
<text text-anchor="middle" x="1148" y="-97.2" font-family="Helvetica,sans-Serif" font-size="14.00">value = [435, 58]</text>
<text text-anchor="middle" x="1148" y="-79.95" font-family="Helvetica,sans-Serif" font-size="14.00">class = Animal</text>
</g>
<!-- 16488&#45;&gt;16489 -->
<g id="edge25" class="edge">
<title>16488&#45;&gt;16489</title>
<path fill="none" stroke="black" d="M1148,-202.07C1148,-194.17 1148,-185.88 1148,-177.73"/>
<polygon fill="black" stroke="black" points="1151.5,-177.87 1148,-167.87 1144.5,-177.87 1151.5,-177.87"/>
</g>
<!-- 16600 -->
<g id="node29" class="node">
<title>16600</title>
<path fill="#f6d3ba" stroke="black" d="M1354.38,-166.25C1354.38,-166.25 1247.62,-166.25 1247.62,-166.25 1241.62,-166.25 1235.62,-160.25 1235.62,-154.25 1235.62,-154.25 1235.62,-84 1235.62,-84 1235.62,-78 1241.62,-72 1247.62,-72 1247.62,-72 1354.38,-72 1354.38,-72 1360.38,-72 1366.38,-78 1366.38,-84 1366.38,-84 1366.38,-154.25 1366.38,-154.25 1366.38,-160.25 1360.38,-166.25 1354.38,-166.25"/>
<text text-anchor="middle" x="1301" y="-148.95" font-family="Helvetica,sans-Serif" font-size="14.00">11_U &lt;= 0.5</text>
<text text-anchor="middle" x="1301" y="-131.7" font-family="Helvetica,sans-Serif" font-size="14.00">entropy = 0.968</text>
<text text-anchor="middle" x="1301" y="-114.45" font-family="Helvetica,sans-Serif" font-size="14.00">samples = 33</text>
<text text-anchor="middle" x="1301" y="-97.2" font-family="Helvetica,sans-Serif" font-size="14.00">value = [26, 17]</text>
<text text-anchor="middle" x="1301" y="-79.95" font-family="Helvetica,sans-Serif" font-size="14.00">class = Animal</text>
</g>
<!-- 16488&#45;&gt;16600 -->
<g id="edge28" class="edge">
<title>16488&#45;&gt;16600</title>
<path fill="none" stroke="black" d="M1203.24,-202.07C1214.22,-192.87 1225.83,-183.13 1237.08,-173.71"/>
<polygon fill="black" stroke="black" points="1239.01,-176.65 1244.43,-167.55 1234.52,-171.29 1239.01,-176.65"/>
</g>
<!-- 16490 -->
<g id="node27" class="node">
<title>16490</title>
<path fill="#c0c0c0" stroke="black" d="M1113,-36C1113,-36 1083,-36 1083,-36 1077,-36 1071,-30 1071,-24 1071,-24 1071,-12 1071,-12 1071,-6 1077,0 1083,0 1083,0 1113,0 1113,0 1119,0 1125,-6 1125,-12 1125,-12 1125,-24 1125,-24 1125,-30 1119,-36 1113,-36"/>
<text text-anchor="middle" x="1098" y="-13.32" font-family="Helvetica,sans-Serif" font-size="14.00">(...)</text>
</g>
<!-- 16489&#45;&gt;16490 -->
<g id="edge26" class="edge">
<title>16489&#45;&gt;16490</title>
<path fill="none" stroke="black" d="M1124.61,-71.75C1120.21,-63.03 1115.74,-54.16 1111.75,-46.26"/>
<polygon fill="black" stroke="black" points="1114.97,-44.88 1107.34,-37.52 1108.72,-48.03 1114.97,-44.88"/>
</g>
<!-- 16571 -->
<g id="node28" class="node">
<title>16571</title>
<path fill="#c0c0c0" stroke="black" d="M1185,-36C1185,-36 1155,-36 1155,-36 1149,-36 1143,-30 1143,-24 1143,-24 1143,-12 1143,-12 1143,-6 1149,0 1155,0 1155,0 1185,0 1185,0 1191,0 1197,-6 1197,-12 1197,-12 1197,-24 1197,-24 1197,-30 1191,-36 1185,-36"/>
<text text-anchor="middle" x="1170" y="-13.32" font-family="Helvetica,sans-Serif" font-size="14.00">(...)</text>
</g>
<!-- 16489&#45;&gt;16571 -->
<g id="edge27" class="edge">
<title>16489&#45;&gt;16571</title>
<path fill="none" stroke="black" d="M1158.29,-71.75C1160.14,-63.42 1162.02,-54.97 1163.71,-47.34"/>
<polygon fill="black" stroke="black" points="1167.11,-48.17 1165.86,-37.65 1160.28,-46.65 1167.11,-48.17"/>
</g>
<!-- 16601 -->
<g id="node30" class="node">
<title>16601</title>
<path fill="#c0c0c0" stroke="black" d="M1280,-36C1280,-36 1250,-36 1250,-36 1244,-36 1238,-30 1238,-24 1238,-24 1238,-12 1238,-12 1238,-6 1244,0 1250,0 1250,0 1280,0 1280,0 1286,0 1292,-6 1292,-12 1292,-12 1292,-24 1292,-24 1292,-30 1286,-36 1280,-36"/>
<text text-anchor="middle" x="1265" y="-13.32" font-family="Helvetica,sans-Serif" font-size="14.00">(...)</text>
</g>
<!-- 16600&#45;&gt;16601 -->
<g id="edge29" class="edge">
<title>16600&#45;&gt;16601</title>
<path fill="none" stroke="black" d="M1284.16,-71.75C1281.06,-63.22 1277.92,-54.57 1275.1,-46.8"/>
<polygon fill="black" stroke="black" points="1278.46,-45.8 1271.75,-37.6 1271.88,-48.19 1278.46,-45.8"/>
</g>
<!-- 16612 -->
<g id="node31" class="node">
<title>16612</title>
<path fill="#c0c0c0" stroke="black" d="M1352,-36C1352,-36 1322,-36 1322,-36 1316,-36 1310,-30 1310,-24 1310,-24 1310,-12 1310,-12 1310,-6 1316,0 1322,0 1322,0 1352,0 1352,0 1358,0 1364,-6 1364,-12 1364,-12 1364,-24 1364,-24 1364,-30 1358,-36 1352,-36"/>
<text text-anchor="middle" x="1337" y="-13.32" font-family="Helvetica,sans-Serif" font-size="14.00">(...)</text>
</g>
<!-- 16600&#45;&gt;16612 -->
<g id="edge30" class="edge">
<title>16600&#45;&gt;16612</title>
<path fill="none" stroke="black" d="M1317.84,-71.75C1320.94,-63.22 1324.08,-54.57 1326.9,-46.8"/>
<polygon fill="black" stroke="black" points="1330.12,-48.19 1330.25,-37.6 1323.54,-45.8 1330.12,-48.19"/>
</g>
</g>
</svg>
