<?xml version="1.0" encoding="UTF-8" standalone="no"?>
<!DOCTYPE svg PUBLIC "-//W3C//DTD SVG 1.1//EN"
 "http://www.w3.org/Graphics/SVG/1.1/DTD/svg11.dtd">
<!-- Generated by graphviz version 12.0.0 (20240803.0821)
 -->
<!-- Title: Tree Pages: 1 -->
<svg width="1419pt" height="565pt"
 viewBox="0.00 0.00 1418.50 565.00" xmlns="http://www.w3.org/2000/svg" xmlns:xlink="http://www.w3.org/1999/xlink">
<g id="graph0" class="graph" transform="scale(1 1) rotate(0) translate(4 561)">
<title>Tree</title>
<polygon fill="white" stroke="none" points="-4,4 -4,-561 1414.5,-561 1414.5,4 -4,4"/>
<!-- 0 -->
<g id="node1" class="node">
<title>0</title>
<path fill="#fffefe" stroke="black" d="M791,-557C791,-557 631,-557 631,-557 625,-557 619,-551 619,-545 619,-545 619,-474.75 619,-474.75 619,-468.75 625,-462.75 631,-462.75 631,-462.75 791,-462.75 791,-462.75 797,-462.75 803,-468.75 803,-474.75 803,-474.75 803,-545 803,-545 803,-551 797,-557 791,-557"/>
<text text-anchor="middle" x="711" y="-539.7" font-family="Helvetica,sans-Serif" font-size="14.00">9_U &lt;= 0.5</text>
<text text-anchor="middle" x="711" y="-522.45" font-family="Helvetica,sans-Serif" font-size="14.00">entropy = 1.0</text>
<text text-anchor="middle" x="711" y="-505.2" font-family="Helvetica,sans-Serif" font-size="14.00">samples = 38158</text>
<text text-anchor="middle" x="711" y="-487.95" font-family="Helvetica,sans-Serif" font-size="14.00">value = [30238, 30107]</text>
<text text-anchor="middle" x="711" y="-470.7" font-family="Helvetica,sans-Serif" font-size="14.00">class = Animal</text>
</g>
<!-- 1 -->
<g id="node2" class="node">
<title>1</title>
<path fill="#deeffb" stroke="black" d="M616,-426.75C616,-426.75 456,-426.75 456,-426.75 450,-426.75 444,-420.75 444,-414.75 444,-414.75 444,-344.5 444,-344.5 444,-338.5 450,-332.5 456,-332.5 456,-332.5 616,-332.5 616,-332.5 622,-332.5 628,-338.5 628,-344.5 628,-344.5 628,-414.75 628,-414.75 628,-420.75 622,-426.75 616,-426.75"/>
<text text-anchor="middle" x="536" y="-409.45" font-family="Helvetica,sans-Serif" font-size="14.00">1_U &lt;= 0.5</text>
<text text-anchor="middle" x="536" y="-392.2" font-family="Helvetica,sans-Serif" font-size="14.00">entropy = 0.994</text>
<text text-anchor="middle" x="536" y="-374.95" font-family="Helvetica,sans-Serif" font-size="14.00">samples = 27491</text>
<text text-anchor="middle" x="536" y="-357.7" font-family="Helvetica,sans-Serif" font-size="14.00">value = [19755, 23747]</text>
<text text-anchor="middle" x="536" y="-340.45" font-family="Helvetica,sans-Serif" font-size="14.00">class = Plant</text>
</g>
<!-- 0&#45;&gt;1 -->
<g id="edge1" class="edge">
<title>0&#45;&gt;1</title>
<path fill="none" stroke="black" d="M647.82,-462.57C635.01,-453.19 621.45,-443.25 608.36,-433.65"/>
<polygon fill="black" stroke="black" points="610.74,-431.06 600.6,-427.97 606.6,-436.7 610.74,-431.06"/>
<text text-anchor="middle" x="603.19" y="-447.11" font-family="Helvetica,sans-Serif" font-size="14.00">True</text>
</g>
<!-- 12074 -->
<g id="node17" class="node">
<title>12074</title>
<path fill="#f5cdb1" stroke="black" d="M978.5,-426.75C978.5,-426.75 827.5,-426.75 827.5,-426.75 821.5,-426.75 815.5,-420.75 815.5,-414.75 815.5,-414.75 815.5,-344.5 815.5,-344.5 815.5,-338.5 821.5,-332.5 827.5,-332.5 827.5,-332.5 978.5,-332.5 978.5,-332.5 984.5,-332.5 990.5,-338.5 990.5,-344.5 990.5,-344.5 990.5,-414.75 990.5,-414.75 990.5,-420.75 984.5,-426.75 978.5,-426.75"/>
<text text-anchor="middle" x="903" y="-409.45" font-family="Helvetica,sans-Serif" font-size="14.00">22_U &lt;= 0.5</text>
<text text-anchor="middle" x="903" y="-392.2" font-family="Helvetica,sans-Serif" font-size="14.00">entropy = 0.956</text>
<text text-anchor="middle" x="903" y="-374.95" font-family="Helvetica,sans-Serif" font-size="14.00">samples = 10667</text>
<text text-anchor="middle" x="903" y="-357.7" font-family="Helvetica,sans-Serif" font-size="14.00">value = [10483, 6360]</text>
<text text-anchor="middle" x="903" y="-340.45" font-family="Helvetica,sans-Serif" font-size="14.00">class = Animal</text>
</g>
<!-- 0&#45;&gt;12074 -->
<g id="edge16" class="edge">
<title>0&#45;&gt;12074</title>
<path fill="none" stroke="black" d="M780.59,-462.39C794.67,-452.98 809.58,-443.03 823.97,-433.42"/>
<polygon fill="black" stroke="black" points="825.7,-436.47 832.07,-428 821.81,-430.65 825.7,-436.47"/>
<text text-anchor="middle" x="828.45" y="-447.01" font-family="Helvetica,sans-Serif" font-size="14.00">False</text>
</g>
<!-- 2 -->
<g id="node3" class="node">
<title>2</title>
<path fill="#f9e3d3" stroke="black" d="M342.5,-296.5C342.5,-296.5 191.5,-296.5 191.5,-296.5 185.5,-296.5 179.5,-290.5 179.5,-284.5 179.5,-284.5 179.5,-214.25 179.5,-214.25 179.5,-208.25 185.5,-202.25 191.5,-202.25 191.5,-202.25 342.5,-202.25 342.5,-202.25 348.5,-202.25 354.5,-208.25 354.5,-214.25 354.5,-214.25 354.5,-284.5 354.5,-284.5 354.5,-290.5 348.5,-296.5 342.5,-296.5"/>
<text text-anchor="middle" x="267" y="-279.2" font-family="Helvetica,sans-Serif" font-size="14.00">20_A &lt;= 0.5</text>
<text text-anchor="middle" x="267" y="-261.95" font-family="Helvetica,sans-Serif" font-size="14.00">entropy = 0.989</text>
<text text-anchor="middle" x="267" y="-244.7" font-family="Helvetica,sans-Serif" font-size="14.00">samples = 12593</text>
<text text-anchor="middle" x="267" y="-227.45" font-family="Helvetica,sans-Serif" font-size="14.00">value = [11294, 8800]</text>
<text text-anchor="middle" x="267" y="-210.2" font-family="Helvetica,sans-Serif" font-size="14.00">class = Animal</text>
</g>
<!-- 1&#45;&gt;2 -->
<g id="edge2" class="edge">
<title>1&#45;&gt;2</title>
<path fill="none" stroke="black" d="M443.8,-334.67C418.43,-322.57 390.81,-309.4 365.12,-297.15"/>
<polygon fill="black" stroke="black" points="366.89,-294.12 356.36,-292.98 363.88,-300.44 366.89,-294.12"/>
</g>
<!-- 6817 -->
<g id="node10" class="node">
<title>6817</title>
<path fill="#a9d4f4" stroke="black" d="M611.5,-296.5C611.5,-296.5 460.5,-296.5 460.5,-296.5 454.5,-296.5 448.5,-290.5 448.5,-284.5 448.5,-284.5 448.5,-214.25 448.5,-214.25 448.5,-208.25 454.5,-202.25 460.5,-202.25 460.5,-202.25 611.5,-202.25 611.5,-202.25 617.5,-202.25 623.5,-208.25 623.5,-214.25 623.5,-214.25 623.5,-284.5 623.5,-284.5 623.5,-290.5 617.5,-296.5 611.5,-296.5"/>
<text text-anchor="middle" x="536" y="-279.2" font-family="Helvetica,sans-Serif" font-size="14.00">23_C &lt;= 0.5</text>
<text text-anchor="middle" x="536" y="-261.95" font-family="Helvetica,sans-Serif" font-size="14.00">entropy = 0.944</text>
<text text-anchor="middle" x="536" y="-244.7" font-family="Helvetica,sans-Serif" font-size="14.00">samples = 14898</text>
<text text-anchor="middle" x="536" y="-227.45" font-family="Helvetica,sans-Serif" font-size="14.00">value = [8461, 14947]</text>
<text text-anchor="middle" x="536" y="-210.2" font-family="Helvetica,sans-Serif" font-size="14.00">class = Plant</text>
</g>
<!-- 1&#45;&gt;6817 -->
<g id="edge9" class="edge">
<title>1&#45;&gt;6817</title>
<path fill="none" stroke="black" d="M536,-332.32C536,-324.42 536,-316.13 536,-307.98"/>
<polygon fill="black" stroke="black" points="539.5,-308.12 536,-298.12 532.5,-308.12 539.5,-308.12"/>
</g>
<!-- 3 -->
<g id="node4" class="node">
<title>3</title>
<path fill="#f8dcc8" stroke="black" d="M154,-166.25C154,-166.25 12,-166.25 12,-166.25 6,-166.25 0,-160.25 0,-154.25 0,-154.25 0,-84 0,-84 0,-78 6,-72 12,-72 12,-72 154,-72 154,-72 160,-72 166,-78 166,-84 166,-84 166,-154.25 166,-154.25 166,-160.25 160,-166.25 154,-166.25"/>
<text text-anchor="middle" x="83" y="-148.95" font-family="Helvetica,sans-Serif" font-size="14.00">23_U &lt;= 0.5</text>
<text text-anchor="middle" x="83" y="-131.7" font-family="Helvetica,sans-Serif" font-size="14.00">entropy = 0.981</text>
<text text-anchor="middle" x="83" y="-114.45" font-family="Helvetica,sans-Serif" font-size="14.00">samples = 9644</text>
<text text-anchor="middle" x="83" y="-97.2" font-family="Helvetica,sans-Serif" font-size="14.00">value = [8911, 6455]</text>
<text text-anchor="middle" x="83" y="-79.95" font-family="Helvetica,sans-Serif" font-size="14.00">class = Animal</text>
</g>
<!-- 2&#45;&gt;3 -->
<g id="edge3" class="edge">
<title>2&#45;&gt;3</title>
<path fill="none" stroke="black" d="M200.31,-201.89C186.94,-192.57 172.8,-182.72 159.14,-173.19"/>
<polygon fill="black" stroke="black" points="161.22,-170.38 151.01,-167.53 157.21,-176.12 161.22,-170.38"/>
</g>
<!-- 5362 -->
<g id="node7" class="node">
<title>5362</title>
<path fill="#fffdfc" stroke="black" d="M338,-166.25C338,-166.25 196,-166.25 196,-166.25 190,-166.25 184,-160.25 184,-154.25 184,-154.25 184,-84 184,-84 184,-78 190,-72 196,-72 196,-72 338,-72 338,-72 344,-72 350,-78 350,-84 350,-84 350,-154.25 350,-154.25 350,-160.25 344,-166.25 338,-166.25"/>
<text text-anchor="middle" x="267" y="-148.95" font-family="Helvetica,sans-Serif" font-size="14.00">22_A &lt;= 0.5</text>
<text text-anchor="middle" x="267" y="-131.7" font-family="Helvetica,sans-Serif" font-size="14.00">entropy = 1.0</text>
<text text-anchor="middle" x="267" y="-114.45" font-family="Helvetica,sans-Serif" font-size="14.00">samples = 2949</text>
<text text-anchor="middle" x="267" y="-97.2" font-family="Helvetica,sans-Serif" font-size="14.00">value = [2383, 2345]</text>
<text text-anchor="middle" x="267" y="-79.95" font-family="Helvetica,sans-Serif" font-size="14.00">class = Animal</text>
</g>
<!-- 2&#45;&gt;5362 -->
<g id="edge6" class="edge">
<title>2&#45;&gt;5362</title>
<path fill="none" stroke="black" d="M267,-202.07C267,-194.17 267,-185.88 267,-177.73"/>
<polygon fill="black" stroke="black" points="270.5,-177.87 267,-167.87 263.5,-177.87 270.5,-177.87"/>
</g>
<!-- 4 -->
<g id="node5" class="node">
<title>4</title>
<path fill="#c0c0c0" stroke="black" d="M62,-36C62,-36 32,-36 32,-36 26,-36 20,-30 20,-24 20,-24 20,-12 20,-12 20,-6 26,0 32,0 32,0 62,0 62,0 68,0 74,-6 74,-12 74,-12 74,-24 74,-24 74,-30 68,-36 62,-36"/>
<text text-anchor="middle" x="47" y="-13.32" font-family="Helvetica,sans-Serif" font-size="14.00">(...)</text>
</g>
<!-- 3&#45;&gt;4 -->
<g id="edge4" class="edge">
<title>3&#45;&gt;4</title>
<path fill="none" stroke="black" d="M66.16,-71.75C63.06,-63.22 59.92,-54.57 57.1,-46.8"/>
<polygon fill="black" stroke="black" points="60.46,-45.8 53.75,-37.6 53.88,-48.19 60.46,-45.8"/>
</g>
<!-- 5083 -->
<g id="node6" class="node">
<title>5083</title>
<path fill="#c0c0c0" stroke="black" d="M134,-36C134,-36 104,-36 104,-36 98,-36 92,-30 92,-24 92,-24 92,-12 92,-12 92,-6 98,0 104,0 104,0 134,0 134,0 140,0 146,-6 146,-12 146,-12 146,-24 146,-24 146,-30 140,-36 134,-36"/>
<text text-anchor="middle" x="119" y="-13.32" font-family="Helvetica,sans-Serif" font-size="14.00">(...)</text>
</g>
<!-- 3&#45;&gt;5083 -->
<g id="edge5" class="edge">
<title>3&#45;&gt;5083</title>
<path fill="none" stroke="black" d="M99.84,-71.75C102.94,-63.22 106.08,-54.57 108.9,-46.8"/>
<polygon fill="black" stroke="black" points="112.12,-48.19 112.25,-37.6 105.54,-45.8 112.12,-48.19"/>
</g>
<!-- 5363 -->
<g id="node8" class="node">
<title>5363</title>
<path fill="#c0c0c0" stroke="black" d="M251,-36C251,-36 221,-36 221,-36 215,-36 209,-30 209,-24 209,-24 209,-12 209,-12 209,-6 215,0 221,0 221,0 251,0 251,0 257,0 263,-6 263,-12 263,-12 263,-24 263,-24 263,-30 257,-36 251,-36"/>
<text text-anchor="middle" x="236" y="-13.32" font-family="Helvetica,sans-Serif" font-size="14.00">(...)</text>
</g>
<!-- 5362&#45;&gt;5363 -->
<g id="edge7" class="edge">
<title>5362&#45;&gt;5363</title>
<path fill="none" stroke="black" d="M252.5,-71.75C249.86,-63.32 247.19,-54.77 244.78,-47.07"/>
<polygon fill="black" stroke="black" points="248.15,-46.12 241.82,-37.62 241.47,-48.21 248.15,-46.12"/>
</g>
<!-- 6654 -->
<g id="node9" class="node">
<title>6654</title>
<path fill="#c0c0c0" stroke="black" d="M323,-36C323,-36 293,-36 293,-36 287,-36 281,-30 281,-24 281,-24 281,-12 281,-12 281,-6 287,0 293,0 293,0 323,0 323,0 329,0 335,-6 335,-12 335,-12 335,-24 335,-24 335,-30 329,-36 323,-36"/>
<text text-anchor="middle" x="308" y="-13.32" font-family="Helvetica,sans-Serif" font-size="14.00">(...)</text>
</g>
<!-- 5362&#45;&gt;6654 -->
<g id="edge8" class="edge">
<title>5362&#45;&gt;6654</title>
<path fill="none" stroke="black" d="M286.18,-71.75C289.71,-63.22 293.29,-54.57 296.5,-46.8"/>
<polygon fill="black" stroke="black" points="299.73,-48.15 300.32,-37.57 293.26,-45.47 299.73,-48.15"/>
</g>
<!-- 6818 -->
<g id="node11" class="node">
<title>6818</title>
<path fill="#a4d2f3" stroke="black" d="M531.5,-166.25C531.5,-166.25 380.5,-166.25 380.5,-166.25 374.5,-166.25 368.5,-160.25 368.5,-154.25 368.5,-154.25 368.5,-84 368.5,-84 368.5,-78 374.5,-72 380.5,-72 380.5,-72 531.5,-72 531.5,-72 537.5,-72 543.5,-78 543.5,-84 543.5,-84 543.5,-154.25 543.5,-154.25 543.5,-160.25 537.5,-166.25 531.5,-166.25"/>
<text text-anchor="middle" x="456" y="-148.95" font-family="Helvetica,sans-Serif" font-size="14.00">19_C &lt;= 0.5</text>
<text text-anchor="middle" x="456" y="-131.7" font-family="Helvetica,sans-Serif" font-size="14.00">entropy = 0.934</text>
<text text-anchor="middle" x="456" y="-114.45" font-family="Helvetica,sans-Serif" font-size="14.00">samples = 14516</text>
<text text-anchor="middle" x="456" y="-97.2" font-family="Helvetica,sans-Serif" font-size="14.00">value = [7977, 14824]</text>
<text text-anchor="middle" x="456" y="-79.95" font-family="Helvetica,sans-Serif" font-size="14.00">class = Plant</text>
</g>
<!-- 6817&#45;&gt;6818 -->
<g id="edge10" class="edge">
<title>6817&#45;&gt;6818</title>
<path fill="none" stroke="black" d="M507.12,-202.07C501.85,-193.63 496.3,-184.74 490.88,-176.05"/>
<polygon fill="black" stroke="black" points="493.9,-174.27 485.64,-167.64 487.96,-177.98 493.9,-174.27"/>
</g>
<!-- 11901 -->
<g id="node14" class="node">
<title>11901</title>
<path fill="#eca16b" stroke="black" d="M698,-166.25C698,-166.25 574,-166.25 574,-166.25 568,-166.25 562,-160.25 562,-154.25 562,-154.25 562,-84 562,-84 562,-78 568,-72 574,-72 574,-72 698,-72 698,-72 704,-72 710,-78 710,-84 710,-84 710,-154.25 710,-154.25 710,-160.25 704,-166.25 698,-166.25"/>
<text text-anchor="middle" x="636" y="-148.95" font-family="Helvetica,sans-Serif" font-size="14.00">9_G &lt;= 0.5</text>
<text text-anchor="middle" x="636" y="-131.7" font-family="Helvetica,sans-Serif" font-size="14.00">entropy = 0.727</text>
<text text-anchor="middle" x="636" y="-114.45" font-family="Helvetica,sans-Serif" font-size="14.00">samples = 382</text>
<text text-anchor="middle" x="636" y="-97.2" font-family="Helvetica,sans-Serif" font-size="14.00">value = [484, 123]</text>
<text text-anchor="middle" x="636" y="-79.95" font-family="Helvetica,sans-Serif" font-size="14.00">class = Animal</text>
</g>
<!-- 6817&#45;&gt;11901 -->
<g id="edge13" class="edge">
<title>6817&#45;&gt;11901</title>
<path fill="none" stroke="black" d="M572.1,-202.07C578.9,-193.36 586.07,-184.16 593.05,-175.21"/>
<polygon fill="black" stroke="black" points="595.63,-177.59 599.02,-167.55 590.11,-173.29 595.63,-177.59"/>
</g>
<!-- 6819 -->
<g id="node12" class="node">
<title>6819</title>
<path fill="#c0c0c0" stroke="black" d="M417,-36C417,-36 387,-36 387,-36 381,-36 375,-30 375,-24 375,-24 375,-12 375,-12 375,-6 381,0 387,0 387,0 417,0 417,0 423,0 429,-6 429,-12 429,-12 429,-24 429,-24 429,-30 423,-36 417,-36"/>
<text text-anchor="middle" x="402" y="-13.32" font-family="Helvetica,sans-Serif" font-size="14.00">(...)</text>
</g>
<!-- 6818&#45;&gt;6819 -->
<g id="edge11" class="edge">
<title>6818&#45;&gt;6819</title>
<path fill="none" stroke="black" d="M430.74,-71.75C425.98,-63.03 421.16,-54.16 416.85,-46.26"/>
<polygon fill="black" stroke="black" points="419.94,-44.61 412.08,-37.5 413.79,-47.96 419.94,-44.61"/>
</g>
<!-- 10666 -->
<g id="node13" class="node">
<title>10666</title>
<path fill="#c0c0c0" stroke="black" d="M489,-36C489,-36 459,-36 459,-36 453,-36 447,-30 447,-24 447,-24 447,-12 447,-12 447,-6 453,0 459,0 459,0 489,0 489,0 495,0 501,-6 501,-12 501,-12 501,-24 501,-24 501,-30 495,-36 489,-36"/>
<text text-anchor="middle" x="474" y="-13.32" font-family="Helvetica,sans-Serif" font-size="14.00">(...)</text>
</g>
<!-- 6818&#45;&gt;10666 -->
<g id="edge12" class="edge">
<title>6818&#45;&gt;10666</title>
<path fill="none" stroke="black" d="M464.42,-71.75C465.93,-63.42 467.47,-54.97 468.85,-47.34"/>
<polygon fill="black" stroke="black" points="472.27,-48.13 470.61,-37.66 465.38,-46.88 472.27,-48.13"/>
</g>
<!-- 11902 -->
<g id="node15" class="node">
<title>11902</title>
<path fill="#c0c0c0" stroke="black" d="M594,-36C594,-36 564,-36 564,-36 558,-36 552,-30 552,-24 552,-24 552,-12 552,-12 552,-6 558,0 564,0 564,0 594,0 594,0 600,0 606,-6 606,-12 606,-12 606,-24 606,-24 606,-30 600,-36 594,-36"/>
<text text-anchor="middle" x="579" y="-13.32" font-family="Helvetica,sans-Serif" font-size="14.00">(...)</text>
</g>
<!-- 11901&#45;&gt;11902 -->
<g id="edge14" class="edge">
<title>11901&#45;&gt;11902</title>
<path fill="none" stroke="black" d="M609.34,-71.75C604.26,-62.93 599.1,-53.96 594.52,-45.99"/>
<polygon fill="black" stroke="black" points="597.65,-44.41 589.63,-37.48 591.58,-47.9 597.65,-44.41"/>
</g>
<!-- 11983 -->
<g id="node16" class="node">
<title>11983</title>
<path fill="#c0c0c0" stroke="black" d="M666,-36C666,-36 636,-36 636,-36 630,-36 624,-30 624,-24 624,-24 624,-12 624,-12 624,-6 630,0 636,0 636,0 666,0 666,0 672,0 678,-6 678,-12 678,-12 678,-24 678,-24 678,-30 672,-36 666,-36"/>
<text text-anchor="middle" x="651" y="-13.32" font-family="Helvetica,sans-Serif" font-size="14.00">(...)</text>
</g>
<!-- 11901&#45;&gt;11983 -->
<g id="edge15" class="edge">
<title>11901&#45;&gt;11983</title>
<path fill="none" stroke="black" d="M643.02,-71.75C644.28,-63.42 645.56,-54.97 646.71,-47.34"/>
<polygon fill="black" stroke="black" points="650.14,-48.08 648.17,-37.67 643.22,-47.03 650.14,-48.08"/>
</g>
<!-- 12075 -->
<g id="node18" class="node">
<title>12075</title>
<path fill="#f8dfcc" stroke="black" d="M974,-296.5C974,-296.5 832,-296.5 832,-296.5 826,-296.5 820,-290.5 820,-284.5 820,-284.5 820,-214.25 820,-214.25 820,-208.25 826,-202.25 832,-202.25 832,-202.25 974,-202.25 974,-202.25 980,-202.25 986,-208.25 986,-214.25 986,-214.25 986,-284.5 986,-284.5 986,-290.5 980,-296.5 974,-296.5"/>
<text text-anchor="middle" x="903" y="-279.2" font-family="Helvetica,sans-Serif" font-size="14.00">18_U &lt;= 0.5</text>
<text text-anchor="middle" x="903" y="-261.95" font-family="Helvetica,sans-Serif" font-size="14.00">entropy = 0.984</text>
<text text-anchor="middle" x="903" y="-244.7" font-family="Helvetica,sans-Serif" font-size="14.00">samples = 8933</text>
<text text-anchor="middle" x="903" y="-227.45" font-family="Helvetica,sans-Serif" font-size="14.00">value = [8108, 6028]</text>
<text text-anchor="middle" x="903" y="-210.2" font-family="Helvetica,sans-Serif" font-size="14.00">class = Animal</text>
</g>
<!-- 12074&#45;&gt;12075 -->
<g id="edge17" class="edge">
<title>12074&#45;&gt;12075</title>
<path fill="none" stroke="black" d="M903,-332.32C903,-324.42 903,-316.13 903,-307.98"/>
<polygon fill="black" stroke="black" points="906.5,-308.12 903,-298.12 899.5,-308.12 906.5,-308.12"/>
</g>
<!-- 16382 -->
<g id="node25" class="node">
<title>16382</title>
<path fill="#e99355" stroke="black" d="M1241.5,-296.5C1241.5,-296.5 1108.5,-296.5 1108.5,-296.5 1102.5,-296.5 1096.5,-290.5 1096.5,-284.5 1096.5,-284.5 1096.5,-214.25 1096.5,-214.25 1096.5,-208.25 1102.5,-202.25 1108.5,-202.25 1108.5,-202.25 1241.5,-202.25 1241.5,-202.25 1247.5,-202.25 1253.5,-208.25 1253.5,-214.25 1253.5,-214.25 1253.5,-284.5 1253.5,-284.5 1253.5,-290.5 1247.5,-296.5 1241.5,-296.5"/>
<text text-anchor="middle" x="1175" y="-279.2" font-family="Helvetica,sans-Serif" font-size="14.00">14_U &lt;= 0.5</text>
<text text-anchor="middle" x="1175" y="-261.95" font-family="Helvetica,sans-Serif" font-size="14.00">entropy = 0.537</text>
<text text-anchor="middle" x="1175" y="-244.7" font-family="Helvetica,sans-Serif" font-size="14.00">samples = 1734</text>
<text text-anchor="middle" x="1175" y="-227.45" font-family="Helvetica,sans-Serif" font-size="14.00">value = [2375, 332]</text>
<text text-anchor="middle" x="1175" y="-210.2" font-family="Helvetica,sans-Serif" font-size="14.00">class = Animal</text>
</g>
<!-- 12074&#45;&gt;16382 -->
<g id="edge24" class="edge">
<title>12074&#45;&gt;16382</title>
<path fill="none" stroke="black" d="M990.93,-337.16C1021.33,-322.83 1055.41,-306.76 1085.9,-292.38"/>
<polygon fill="black" stroke="black" points="1087.18,-295.65 1094.73,-288.22 1084.19,-289.32 1087.18,-295.65"/>
</g>
<!-- 12076 -->
<g id="node19" class="node">
<title>12076</title>
<path fill="#fbeadd" stroke="black" d="M882,-166.25C882,-166.25 740,-166.25 740,-166.25 734,-166.25 728,-160.25 728,-154.25 728,-154.25 728,-84 728,-84 728,-78 734,-72 740,-72 740,-72 882,-72 882,-72 888,-72 894,-78 894,-84 894,-84 894,-154.25 894,-154.25 894,-160.25 888,-166.25 882,-166.25"/>
<text text-anchor="middle" x="811" y="-148.95" font-family="Helvetica,sans-Serif" font-size="14.00">23_U &lt;= 0.5</text>
<text text-anchor="middle" x="811" y="-131.7" font-family="Helvetica,sans-Serif" font-size="14.00">entropy = 0.994</text>
<text text-anchor="middle" x="811" y="-114.45" font-family="Helvetica,sans-Serif" font-size="14.00">samples = 6810</text>
<text text-anchor="middle" x="811" y="-97.2" font-family="Helvetica,sans-Serif" font-size="14.00">value = [5903, 4896]</text>
<text text-anchor="middle" x="811" y="-79.95" font-family="Helvetica,sans-Serif" font-size="14.00">class = Animal</text>
</g>
<!-- 12075&#45;&gt;12076 -->
<g id="edge18" class="edge">
<title>12075&#45;&gt;12076</title>
<path fill="none" stroke="black" d="M869.79,-202.07C863.6,-193.45 857.07,-184.35 850.71,-175.49"/>
<polygon fill="black" stroke="black" points="853.72,-173.67 845.05,-167.59 848.03,-177.75 853.72,-173.67"/>
</g>
<!-- 15237 -->
<g id="node22" class="node">
<title>15237</title>
<path fill="#f2c29f" stroke="black" d="M1066,-166.25C1066,-166.25 924,-166.25 924,-166.25 918,-166.25 912,-160.25 912,-154.25 912,-154.25 912,-84 912,-84 912,-78 918,-72 924,-72 924,-72 1066,-72 1066,-72 1072,-72 1078,-78 1078,-84 1078,-84 1078,-154.25 1078,-154.25 1078,-160.25 1072,-166.25 1066,-166.25"/>
<text text-anchor="middle" x="995" y="-148.95" font-family="Helvetica,sans-Serif" font-size="14.00">22_A &lt;= 0.5</text>
<text text-anchor="middle" x="995" y="-131.7" font-family="Helvetica,sans-Serif" font-size="14.00">entropy = 0.924</text>
<text text-anchor="middle" x="995" y="-114.45" font-family="Helvetica,sans-Serif" font-size="14.00">samples = 2123</text>
<text text-anchor="middle" x="995" y="-97.2" font-family="Helvetica,sans-Serif" font-size="14.00">value = [2205, 1132]</text>
<text text-anchor="middle" x="995" y="-79.95" font-family="Helvetica,sans-Serif" font-size="14.00">class = Animal</text>
</g>
<!-- 12075&#45;&gt;15237 -->
<g id="edge21" class="edge">
<title>12075&#45;&gt;15237</title>
<path fill="none" stroke="black" d="M936.21,-202.07C942.4,-193.45 948.93,-184.35 955.29,-175.49"/>
<polygon fill="black" stroke="black" points="957.97,-177.75 960.95,-167.59 952.28,-173.67 957.97,-177.75"/>
</g>
<!-- 12077 -->
<g id="node20" class="node">
<title>12077</title>
<path fill="#c0c0c0" stroke="black" d="M774,-36C774,-36 744,-36 744,-36 738,-36 732,-30 732,-24 732,-24 732,-12 732,-12 732,-6 738,0 744,0 744,0 774,0 774,0 780,0 786,-6 786,-12 786,-12 786,-24 786,-24 786,-30 780,-36 774,-36"/>
<text text-anchor="middle" x="759" y="-13.32" font-family="Helvetica,sans-Serif" font-size="14.00">(...)</text>
</g>
<!-- 12076&#45;&gt;12077 -->
<g id="edge19" class="edge">
<title>12076&#45;&gt;12077</title>
<path fill="none" stroke="black" d="M786.67,-71.75C782.1,-63.03 777.45,-54.16 773.3,-46.26"/>
<polygon fill="black" stroke="black" points="776.46,-44.74 768.71,-37.51 770.26,-47.99 776.46,-44.74"/>
</g>
<!-- 15102 -->
<g id="node21" class="node">
<title>15102</title>
<path fill="#c0c0c0" stroke="black" d="M846,-36C846,-36 816,-36 816,-36 810,-36 804,-30 804,-24 804,-24 804,-12 804,-12 804,-6 810,0 816,0 816,0 846,0 846,0 852,0 858,-6 858,-12 858,-12 858,-24 858,-24 858,-30 852,-36 846,-36"/>
<text text-anchor="middle" x="831" y="-13.32" font-family="Helvetica,sans-Serif" font-size="14.00">(...)</text>
</g>
<!-- 12076&#45;&gt;15102 -->
<g id="edge20" class="edge">
<title>12076&#45;&gt;15102</title>
<path fill="none" stroke="black" d="M820.36,-71.75C822.04,-63.42 823.74,-54.97 825.28,-47.34"/>
<polygon fill="black" stroke="black" points="828.69,-48.15 827.24,-37.66 821.83,-46.77 828.69,-48.15"/>
</g>
<!-- 15238 -->
<g id="node23" class="node">
<title>15238</title>
<path fill="#c0c0c0" stroke="black" d="M956,-36C956,-36 926,-36 926,-36 920,-36 914,-30 914,-24 914,-24 914,-12 914,-12 914,-6 920,0 926,0 926,0 956,0 956,0 962,0 968,-6 968,-12 968,-12 968,-24 968,-24 968,-30 962,-36 956,-36"/>
<text text-anchor="middle" x="941" y="-13.32" font-family="Helvetica,sans-Serif" font-size="14.00">(...)</text>
</g>
<!-- 15237&#45;&gt;15238 -->
<g id="edge22" class="edge">
<title>15237&#45;&gt;15238</title>
<path fill="none" stroke="black" d="M969.74,-71.75C964.98,-63.03 960.16,-54.16 955.85,-46.26"/>
<polygon fill="black" stroke="black" points="958.94,-44.61 951.08,-37.5 952.79,-47.96 958.94,-44.61"/>
</g>
<!-- 16229 -->
<g id="node24" class="node">
<title>16229</title>
<path fill="#c0c0c0" stroke="black" d="M1028,-36C1028,-36 998,-36 998,-36 992,-36 986,-30 986,-24 986,-24 986,-12 986,-12 986,-6 992,0 998,0 998,0 1028,0 1028,0 1034,0 1040,-6 1040,-12 1040,-12 1040,-24 1040,-24 1040,-30 1034,-36 1028,-36"/>
<text text-anchor="middle" x="1013" y="-13.32" font-family="Helvetica,sans-Serif" font-size="14.00">(...)</text>
</g>
<!-- 15237&#45;&gt;16229 -->
<g id="edge23" class="edge">
<title>15237&#45;&gt;16229</title>
<path fill="none" stroke="black" d="M1003.42,-71.75C1004.93,-63.42 1006.47,-54.97 1007.85,-47.34"/>
<polygon fill="black" stroke="black" points="1011.27,-48.13 1009.61,-37.66 1004.38,-46.88 1011.27,-48.13"/>
</g>
<!-- 16383 -->
<g id="node26" class="node">
<title>16383</title>
<path fill="#ea985e" stroke="black" d="M1241.5,-166.25C1241.5,-166.25 1108.5,-166.25 1108.5,-166.25 1102.5,-166.25 1096.5,-160.25 1096.5,-154.25 1096.5,-154.25 1096.5,-84 1096.5,-84 1096.5,-78 1102.5,-72 1108.5,-72 1108.5,-72 1241.5,-72 1241.5,-72 1247.5,-72 1253.5,-78 1253.5,-84 1253.5,-84 1253.5,-154.25 1253.5,-154.25 1253.5,-160.25 1247.5,-166.25 1241.5,-166.25"/>
<text text-anchor="middle" x="1175" y="-148.95" font-family="Helvetica,sans-Serif" font-size="14.00">5_A &lt;= 0.5</text>
<text text-anchor="middle" x="1175" y="-131.7" font-family="Helvetica,sans-Serif" font-size="14.00">entropy = 0.625</text>
<text text-anchor="middle" x="1175" y="-114.45" font-family="Helvetica,sans-Serif" font-size="14.00">samples = 1064</text>
<text text-anchor="middle" x="1175" y="-97.2" font-family="Helvetica,sans-Serif" font-size="14.00">value = [1398, 259]</text>
<text text-anchor="middle" x="1175" y="-79.95" font-family="Helvetica,sans-Serif" font-size="14.00">class = Animal</text>
</g>
<!-- 16382&#45;&gt;16383 -->
<g id="edge25" class="edge">
<title>16382&#45;&gt;16383</title>
<path fill="none" stroke="black" d="M1175,-202.07C1175,-194.17 1175,-185.88 1175,-177.73"/>
<polygon fill="black" stroke="black" points="1178.5,-177.87 1175,-167.87 1171.5,-177.87 1178.5,-177.87"/>
</g>
<!-- 16760 -->
<g id="node29" class="node">
<title>16760</title>
<path fill="#e78a48" stroke="black" d="M1398.5,-166.25C1398.5,-166.25 1283.5,-166.25 1283.5,-166.25 1277.5,-166.25 1271.5,-160.25 1271.5,-154.25 1271.5,-154.25 1271.5,-84 1271.5,-84 1271.5,-78 1277.5,-72 1283.5,-72 1283.5,-72 1398.5,-72 1398.5,-72 1404.5,-72 1410.5,-78 1410.5,-84 1410.5,-84 1410.5,-154.25 1410.5,-154.25 1410.5,-160.25 1404.5,-166.25 1398.5,-166.25"/>
<text text-anchor="middle" x="1341" y="-148.95" font-family="Helvetica,sans-Serif" font-size="14.00">15_C &lt;= 0.5</text>
<text text-anchor="middle" x="1341" y="-131.7" font-family="Helvetica,sans-Serif" font-size="14.00">entropy = 0.364</text>
<text text-anchor="middle" x="1341" y="-114.45" font-family="Helvetica,sans-Serif" font-size="14.00">samples = 670</text>
<text text-anchor="middle" x="1341" y="-97.2" font-family="Helvetica,sans-Serif" font-size="14.00">value = [977, 73]</text>
<text text-anchor="middle" x="1341" y="-79.95" font-family="Helvetica,sans-Serif" font-size="14.00">class = Animal</text>
</g>
<!-- 16382&#45;&gt;16760 -->
<g id="edge28" class="edge">
<title>16382&#45;&gt;16760</title>
<path fill="none" stroke="black" d="M1234.93,-202.07C1246.96,-192.78 1259.7,-182.94 1272.01,-173.43"/>
<polygon fill="black" stroke="black" points="1273.91,-176.38 1279.68,-167.5 1269.63,-170.84 1273.91,-176.38"/>
</g>
<!-- 16384 -->
<g id="node27" class="node">
<title>16384</title>
<path fill="#c0c0c0" stroke="black" d="M1147,-36C1147,-36 1117,-36 1117,-36 1111,-36 1105,-30 1105,-24 1105,-24 1105,-12 1105,-12 1105,-6 1111,0 1117,0 1117,0 1147,0 1147,0 1153,0 1159,-6 1159,-12 1159,-12 1159,-24 1159,-24 1159,-30 1153,-36 1147,-36"/>
<text text-anchor="middle" x="1132" y="-13.32" font-family="Helvetica,sans-Serif" font-size="14.00">(...)</text>
</g>
<!-- 16383&#45;&gt;16384 -->
<g id="edge26" class="edge">
<title>16383&#45;&gt;16384</title>
<path fill="none" stroke="black" d="M1154.88,-71.75C1151.14,-63.12 1147.34,-54.36 1143.94,-46.53"/>
<polygon fill="black" stroke="black" points="1147.24,-45.34 1140.05,-37.56 1140.82,-48.13 1147.24,-45.34"/>
</g>
<!-- 16683 -->
<g id="node28" class="node">
<title>16683</title>
<path fill="#c0c0c0" stroke="black" d="M1219,-36C1219,-36 1189,-36 1189,-36 1183,-36 1177,-30 1177,-24 1177,-24 1177,-12 1177,-12 1177,-6 1183,0 1189,0 1189,0 1219,0 1219,0 1225,0 1231,-6 1231,-12 1231,-12 1231,-24 1231,-24 1231,-30 1225,-36 1219,-36"/>
<text text-anchor="middle" x="1204" y="-13.32" font-family="Helvetica,sans-Serif" font-size="14.00">(...)</text>
</g>
<!-- 16383&#45;&gt;16683 -->
<g id="edge27" class="edge">
<title>16383&#45;&gt;16683</title>
<path fill="none" stroke="black" d="M1188.57,-71.75C1191.03,-63.32 1193.54,-54.77 1195.79,-47.07"/>
<polygon fill="black" stroke="black" points="1199.1,-48.21 1198.55,-37.63 1192.38,-46.24 1199.1,-48.21"/>
</g>
<!-- 16761 -->
<g id="node30" class="node">
<title>16761</title>
<path fill="#c0c0c0" stroke="black" d="M1320,-36C1320,-36 1290,-36 1290,-36 1284,-36 1278,-30 1278,-24 1278,-24 1278,-12 1278,-12 1278,-6 1284,0 1290,0 1290,0 1320,0 1320,0 1326,0 1332,-6 1332,-12 1332,-12 1332,-24 1332,-24 1332,-30 1326,-36 1320,-36"/>
<text text-anchor="middle" x="1305" y="-13.32" font-family="Helvetica,sans-Serif" font-size="14.00">(...)</text>
</g>
<!-- 16760&#45;&gt;16761 -->
<g id="edge29" class="edge">
<title>16760&#45;&gt;16761</title>
<path fill="none" stroke="black" d="M1324.16,-71.75C1321.06,-63.22 1317.92,-54.57 1315.1,-46.8"/>
<polygon fill="black" stroke="black" points="1318.46,-45.8 1311.75,-37.6 1311.88,-48.19 1318.46,-45.8"/>
</g>
<!-- 16890 -->
<g id="node31" class="node">
<title>16890</title>
<path fill="#c0c0c0" stroke="black" d="M1392,-36C1392,-36 1362,-36 1362,-36 1356,-36 1350,-30 1350,-24 1350,-24 1350,-12 1350,-12 1350,-6 1356,0 1362,0 1362,0 1392,0 1392,0 1398,0 1404,-6 1404,-12 1404,-12 1404,-24 1404,-24 1404,-30 1398,-36 1392,-36"/>
<text text-anchor="middle" x="1377" y="-13.32" font-family="Helvetica,sans-Serif" font-size="14.00">(...)</text>
</g>
<!-- 16760&#45;&gt;16890 -->
<g id="edge30" class="edge">
<title>16760&#45;&gt;16890</title>
<path fill="none" stroke="black" d="M1357.84,-71.75C1360.94,-63.22 1364.08,-54.57 1366.9,-46.8"/>
<polygon fill="black" stroke="black" points="1370.12,-48.19 1370.25,-37.6 1363.54,-45.8 1370.12,-48.19"/>
</g>
</g>
</svg>
