<?xml version="1.0" encoding="UTF-8" standalone="no"?>
<!DOCTYPE svg PUBLIC "-//W3C//DTD SVG 1.1//EN"
 "http://www.w3.org/Graphics/SVG/1.1/DTD/svg11.dtd">
<!-- Generated by graphviz version 12.0.0 (20240803.0821)
 -->
<!-- Title: Tree Pages: 1 -->
<svg width="1373pt" height="565pt"
 viewBox="0.00 0.00 1373.38 565.00" xmlns="http://www.w3.org/2000/svg" xmlns:xlink="http://www.w3.org/1999/xlink">
<g id="graph0" class="graph" transform="scale(1 1) rotate(0) translate(4 561)">
<title>Tree</title>
<polygon fill="white" stroke="none" points="-4,4 -4,-561 1369.38,-561 1369.38,4 -4,4"/>
<!-- 0 -->
<g id="node1" class="node">
<title>0</title>
<path fill="#fffffe" stroke="black" d="M800,-557C800,-557 640,-557 640,-557 634,-557 628,-551 628,-545 628,-545 628,-474.75 628,-474.75 628,-468.75 634,-462.75 640,-462.75 640,-462.75 800,-462.75 800,-462.75 806,-462.75 812,-468.75 812,-474.75 812,-474.75 812,-545 812,-545 812,-551 806,-557 800,-557"/>
<text text-anchor="middle" x="720" y="-539.7" font-family="Helvetica,sans-Serif" font-size="14.00">23_A &lt;= 0.5</text>
<text text-anchor="middle" x="720" y="-522.45" font-family="Helvetica,sans-Serif" font-size="14.00">entropy = 1.0</text>
<text text-anchor="middle" x="720" y="-505.2" font-family="Helvetica,sans-Serif" font-size="14.00">samples = 38171</text>
<text text-anchor="middle" x="720" y="-487.95" font-family="Helvetica,sans-Serif" font-size="14.00">value = [30224, 30121]</text>
<text text-anchor="middle" x="720" y="-470.7" font-family="Helvetica,sans-Serif" font-size="14.00">class = Animal</text>
</g>
<!-- 1 -->
<g id="node2" class="node">
<title>1</title>
<path fill="#f7fbfe" stroke="black" d="M632,-426.75C632,-426.75 472,-426.75 472,-426.75 466,-426.75 460,-420.75 460,-414.75 460,-414.75 460,-344.5 460,-344.5 460,-338.5 466,-332.5 472,-332.5 472,-332.5 632,-332.5 632,-332.5 638,-332.5 644,-338.5 644,-344.5 644,-344.5 644,-414.75 644,-414.75 644,-420.75 638,-426.75 632,-426.75"/>
<text text-anchor="middle" x="552" y="-409.45" font-family="Helvetica,sans-Serif" font-size="14.00">22_A &lt;= 0.5</text>
<text text-anchor="middle" x="552" y="-392.2" font-family="Helvetica,sans-Serif" font-size="14.00">entropy = 1.0</text>
<text text-anchor="middle" x="552" y="-374.95" font-family="Helvetica,sans-Serif" font-size="14.00">samples = 36610</text>
<text text-anchor="middle" x="552" y="-357.7" font-family="Helvetica,sans-Serif" font-size="14.00">value = [28342, 29508]</text>
<text text-anchor="middle" x="552" y="-340.45" font-family="Helvetica,sans-Serif" font-size="14.00">class = Plant</text>
</g>
<!-- 0&#45;&gt;1 -->
<g id="edge1" class="edge">
<title>0&#45;&gt;1</title>
<path fill="none" stroke="black" d="M659.35,-462.57C647.17,-453.28 634.28,-443.44 621.82,-433.93"/>
<polygon fill="black" stroke="black" points="624.12,-431.28 614.05,-427.99 619.87,-436.84 624.12,-431.28"/>
<text text-anchor="middle" x="616.17" y="-447.18" font-family="Helvetica,sans-Serif" font-size="14.00">True</text>
</g>
<!-- 16206 -->
<g id="node17" class="node">
<title>16206</title>
<path fill="#edaa79" stroke="black" d="M959.5,-426.75C959.5,-426.75 826.5,-426.75 826.5,-426.75 820.5,-426.75 814.5,-420.75 814.5,-414.75 814.5,-414.75 814.5,-344.5 814.5,-344.5 814.5,-338.5 820.5,-332.5 826.5,-332.5 826.5,-332.5 959.5,-332.5 959.5,-332.5 965.5,-332.5 971.5,-338.5 971.5,-344.5 971.5,-344.5 971.5,-414.75 971.5,-414.75 971.5,-420.75 965.5,-426.75 959.5,-426.75"/>
<text text-anchor="middle" x="893" y="-409.45" font-family="Helvetica,sans-Serif" font-size="14.00">22_A &lt;= 0.5</text>
<text text-anchor="middle" x="893" y="-392.2" font-family="Helvetica,sans-Serif" font-size="14.00">entropy = 0.804</text>
<text text-anchor="middle" x="893" y="-374.95" font-family="Helvetica,sans-Serif" font-size="14.00">samples = 1561</text>
<text text-anchor="middle" x="893" y="-357.7" font-family="Helvetica,sans-Serif" font-size="14.00">value = [1882, 613]</text>
<text text-anchor="middle" x="893" y="-340.45" font-family="Helvetica,sans-Serif" font-size="14.00">class = Animal</text>
</g>
<!-- 0&#45;&gt;16206 -->
<g id="edge16" class="edge">
<title>0&#45;&gt;16206</title>
<path fill="none" stroke="black" d="M782.46,-462.57C795,-453.28 808.27,-443.44 821.1,-433.93"/>
<polygon fill="black" stroke="black" points="823.18,-436.74 829.13,-427.97 819.01,-431.12 823.18,-436.74"/>
<text text-anchor="middle" x="826.67" y="-447.13" font-family="Helvetica,sans-Serif" font-size="14.00">False</text>
</g>
<!-- 2 -->
<g id="node3" class="node">
<title>2</title>
<path fill="#e3f1fb" stroke="black" d="M365,-296.5C365,-296.5 205,-296.5 205,-296.5 199,-296.5 193,-290.5 193,-284.5 193,-284.5 193,-214.25 193,-214.25 193,-208.25 199,-202.25 205,-202.25 205,-202.25 365,-202.25 365,-202.25 371,-202.25 377,-208.25 377,-214.25 377,-214.25 377,-284.5 377,-284.5 377,-290.5 371,-296.5 365,-296.5"/>
<text text-anchor="middle" x="285" y="-279.2" font-family="Helvetica,sans-Serif" font-size="14.00">16_G &lt;= 0.5</text>
<text text-anchor="middle" x="285" y="-261.95" font-family="Helvetica,sans-Serif" font-size="14.00">entropy = 0.996</text>
<text text-anchor="middle" x="285" y="-244.7" font-family="Helvetica,sans-Serif" font-size="14.00">samples = 32642</text>
<text text-anchor="middle" x="285" y="-227.45" font-family="Helvetica,sans-Serif" font-size="14.00">value = [23795, 27715]</text>
<text text-anchor="middle" x="285" y="-210.2" font-family="Helvetica,sans-Serif" font-size="14.00">class = Plant</text>
</g>
<!-- 1&#45;&gt;2 -->
<g id="edge2" class="edge">
<title>1&#45;&gt;2</title>
<path fill="none" stroke="black" d="M459.74,-334.31C436.4,-323.1 411.18,-310.99 387.37,-299.55"/>
<polygon fill="black" stroke="black" points="389.16,-296.52 378.63,-295.35 386.13,-302.83 389.16,-296.52"/>
</g>
<!-- 14379 -->
<g id="node10" class="node">
<title>14379</title>
<path fill="#efb387" stroke="black" d="M623,-296.5C623,-296.5 481,-296.5 481,-296.5 475,-296.5 469,-290.5 469,-284.5 469,-284.5 469,-214.25 469,-214.25 469,-208.25 475,-202.25 481,-202.25 481,-202.25 623,-202.25 623,-202.25 629,-202.25 635,-208.25 635,-214.25 635,-214.25 635,-284.5 635,-284.5 635,-290.5 629,-296.5 623,-296.5"/>
<text text-anchor="middle" x="552" y="-279.2" font-family="Helvetica,sans-Serif" font-size="14.00">13_C &lt;= 0.5</text>
<text text-anchor="middle" x="552" y="-261.95" font-family="Helvetica,sans-Serif" font-size="14.00">entropy = 0.859</text>
<text text-anchor="middle" x="552" y="-244.7" font-family="Helvetica,sans-Serif" font-size="14.00">samples = 3968</text>
<text text-anchor="middle" x="552" y="-227.45" font-family="Helvetica,sans-Serif" font-size="14.00">value = [4547, 1793]</text>
<text text-anchor="middle" x="552" y="-210.2" font-family="Helvetica,sans-Serif" font-size="14.00">class = Animal</text>
</g>
<!-- 1&#45;&gt;14379 -->
<g id="edge9" class="edge">
<title>1&#45;&gt;14379</title>
<path fill="none" stroke="black" d="M552,-332.32C552,-324.42 552,-316.13 552,-307.98"/>
<polygon fill="black" stroke="black" points="555.5,-308.12 552,-298.12 548.5,-308.12 555.5,-308.12"/>
</g>
<!-- 3 -->
<g id="node4" class="node">
<title>3</title>
<path fill="#eff7fd" stroke="black" d="M172,-166.25C172,-166.25 12,-166.25 12,-166.25 6,-166.25 0,-160.25 0,-154.25 0,-154.25 0,-84 0,-84 0,-78 6,-72 12,-72 12,-72 172,-72 172,-72 178,-72 184,-78 184,-84 184,-84 184,-154.25 184,-154.25 184,-160.25 178,-166.25 172,-166.25"/>
<text text-anchor="middle" x="92" y="-148.95" font-family="Helvetica,sans-Serif" font-size="14.00">9_U &lt;= 0.5</text>
<text text-anchor="middle" x="92" y="-131.7" font-family="Helvetica,sans-Serif" font-size="14.00">entropy = 0.999</text>
<text text-anchor="middle" x="92" y="-114.45" font-family="Helvetica,sans-Serif" font-size="14.00">samples = 24264</text>
<text text-anchor="middle" x="92" y="-97.2" font-family="Helvetica,sans-Serif" font-size="14.00">value = [18365, 19985]</text>
<text text-anchor="middle" x="92" y="-79.95" font-family="Helvetica,sans-Serif" font-size="14.00">class = Plant</text>
</g>
<!-- 2&#45;&gt;3 -->
<g id="edge3" class="edge">
<title>2&#45;&gt;3</title>
<path fill="none" stroke="black" d="M215.05,-201.89C200.89,-192.48 185.9,-182.53 171.45,-172.92"/>
<polygon fill="black" stroke="black" points="173.56,-170.12 163.3,-167.5 169.69,-175.95 173.56,-170.12"/>
</g>
<!-- 10650 -->
<g id="node7" class="node">
<title>10650</title>
<path fill="#c4e2f7" stroke="black" d="M356,-166.25C356,-166.25 214,-166.25 214,-166.25 208,-166.25 202,-160.25 202,-154.25 202,-154.25 202,-84 202,-84 202,-78 208,-72 214,-72 214,-72 356,-72 356,-72 362,-72 368,-78 368,-84 368,-84 368,-154.25 368,-154.25 368,-160.25 362,-166.25 356,-166.25"/>
<text text-anchor="middle" x="285" y="-148.95" font-family="Helvetica,sans-Serif" font-size="14.00">22_C &lt;= 0.5</text>
<text text-anchor="middle" x="285" y="-131.7" font-family="Helvetica,sans-Serif" font-size="14.00">entropy = 0.978</text>
<text text-anchor="middle" x="285" y="-114.45" font-family="Helvetica,sans-Serif" font-size="14.00">samples = 8378</text>
<text text-anchor="middle" x="285" y="-97.2" font-family="Helvetica,sans-Serif" font-size="14.00">value = [5430, 7730]</text>
<text text-anchor="middle" x="285" y="-79.95" font-family="Helvetica,sans-Serif" font-size="14.00">class = Plant</text>
</g>
<!-- 2&#45;&gt;10650 -->
<g id="edge6" class="edge">
<title>2&#45;&gt;10650</title>
<path fill="none" stroke="black" d="M285,-202.07C285,-194.17 285,-185.88 285,-177.73"/>
<polygon fill="black" stroke="black" points="288.5,-177.87 285,-167.87 281.5,-177.87 288.5,-177.87"/>
</g>
<!-- 4 -->
<g id="node5" class="node">
<title>4</title>
<path fill="#c0c0c0" stroke="black" d="M71,-36C71,-36 41,-36 41,-36 35,-36 29,-30 29,-24 29,-24 29,-12 29,-12 29,-6 35,0 41,0 41,0 71,0 71,0 77,0 83,-6 83,-12 83,-12 83,-24 83,-24 83,-30 77,-36 71,-36"/>
<text text-anchor="middle" x="56" y="-13.32" font-family="Helvetica,sans-Serif" font-size="14.00">(...)</text>
</g>
<!-- 3&#45;&gt;4 -->
<g id="edge4" class="edge">
<title>3&#45;&gt;4</title>
<path fill="none" stroke="black" d="M75.16,-71.75C72.06,-63.22 68.92,-54.57 66.1,-46.8"/>
<polygon fill="black" stroke="black" points="69.46,-45.8 62.75,-37.6 62.88,-48.19 69.46,-45.8"/>
</g>
<!-- 7525 -->
<g id="node6" class="node">
<title>7525</title>
<path fill="#c0c0c0" stroke="black" d="M143,-36C143,-36 113,-36 113,-36 107,-36 101,-30 101,-24 101,-24 101,-12 101,-12 101,-6 107,0 113,0 113,0 143,0 143,0 149,0 155,-6 155,-12 155,-12 155,-24 155,-24 155,-30 149,-36 143,-36"/>
<text text-anchor="middle" x="128" y="-13.32" font-family="Helvetica,sans-Serif" font-size="14.00">(...)</text>
</g>
<!-- 3&#45;&gt;7525 -->
<g id="edge5" class="edge">
<title>3&#45;&gt;7525</title>
<path fill="none" stroke="black" d="M108.84,-71.75C111.94,-63.22 115.08,-54.57 117.9,-46.8"/>
<polygon fill="black" stroke="black" points="121.12,-48.19 121.25,-37.6 114.54,-45.8 121.12,-48.19"/>
</g>
<!-- 10651 -->
<g id="node8" class="node">
<title>10651</title>
<path fill="#c0c0c0" stroke="black" d="M263,-36C263,-36 233,-36 233,-36 227,-36 221,-30 221,-24 221,-24 221,-12 221,-12 221,-6 227,0 233,0 233,0 263,0 263,0 269,0 275,-6 275,-12 275,-12 275,-24 275,-24 275,-30 269,-36 263,-36"/>
<text text-anchor="middle" x="248" y="-13.32" font-family="Helvetica,sans-Serif" font-size="14.00">(...)</text>
</g>
<!-- 10650&#45;&gt;10651 -->
<g id="edge7" class="edge">
<title>10650&#45;&gt;10651</title>
<path fill="none" stroke="black" d="M267.69,-71.75C264.51,-63.22 261.28,-54.57 258.38,-46.8"/>
<polygon fill="black" stroke="black" points="261.72,-45.74 254.94,-37.59 255.16,-48.18 261.72,-45.74"/>
</g>
<!-- 13980 -->
<g id="node9" class="node">
<title>13980</title>
<path fill="#c0c0c0" stroke="black" d="M335,-36C335,-36 305,-36 305,-36 299,-36 293,-30 293,-24 293,-24 293,-12 293,-12 293,-6 299,0 305,0 305,0 335,0 335,0 341,0 347,-6 347,-12 347,-12 347,-24 347,-24 347,-30 341,-36 335,-36"/>
<text text-anchor="middle" x="320" y="-13.32" font-family="Helvetica,sans-Serif" font-size="14.00">(...)</text>
</g>
<!-- 10650&#45;&gt;13980 -->
<g id="edge8" class="edge">
<title>10650&#45;&gt;13980</title>
<path fill="none" stroke="black" d="M301.37,-71.75C304.39,-63.22 307.44,-54.57 310.18,-46.8"/>
<polygon fill="black" stroke="black" points="313.4,-48.19 313.43,-37.6 306.8,-45.86 313.4,-48.19"/>
</g>
<!-- 14380 -->
<g id="node11" class="node">
<title>14380</title>
<path fill="#edaa7a" stroke="black" d="M540,-166.25C540,-166.25 398,-166.25 398,-166.25 392,-166.25 386,-160.25 386,-154.25 386,-154.25 386,-84 386,-84 386,-78 392,-72 398,-72 398,-72 540,-72 540,-72 546,-72 552,-78 552,-84 552,-84 552,-154.25 552,-154.25 552,-160.25 546,-166.25 540,-166.25"/>
<text text-anchor="middle" x="469" y="-148.95" font-family="Helvetica,sans-Serif" font-size="14.00">7_U &lt;= 0.5</text>
<text text-anchor="middle" x="469" y="-131.7" font-family="Helvetica,sans-Serif" font-size="14.00">entropy = 0.805</text>
<text text-anchor="middle" x="469" y="-114.45" font-family="Helvetica,sans-Serif" font-size="14.00">samples = 2988</text>
<text text-anchor="middle" x="469" y="-97.2" font-family="Helvetica,sans-Serif" font-size="14.00">value = [3621, 1182]</text>
<text text-anchor="middle" x="469" y="-79.95" font-family="Helvetica,sans-Serif" font-size="14.00">class = Animal</text>
</g>
<!-- 14379&#45;&gt;14380 -->
<g id="edge10" class="edge">
<title>14379&#45;&gt;14380</title>
<path fill="none" stroke="black" d="M522.04,-202.07C516.51,-193.54 510.69,-184.54 505.01,-175.77"/>
<polygon fill="black" stroke="black" points="508.11,-174.12 499.74,-167.63 502.24,-177.93 508.11,-174.12"/>
</g>
<!-- 15809 -->
<g id="node14" class="node">
<title>15809</title>
<path fill="#f6d4bc" stroke="black" d="M706,-166.25C706,-166.25 582,-166.25 582,-166.25 576,-166.25 570,-160.25 570,-154.25 570,-154.25 570,-84 570,-84 570,-78 576,-72 582,-72 582,-72 706,-72 706,-72 712,-72 718,-78 718,-84 718,-84 718,-154.25 718,-154.25 718,-160.25 712,-166.25 706,-166.25"/>
<text text-anchor="middle" x="644" y="-148.95" font-family="Helvetica,sans-Serif" font-size="14.00">18_A &lt;= 0.5</text>
<text text-anchor="middle" x="644" y="-131.7" font-family="Helvetica,sans-Serif" font-size="14.00">entropy = 0.969</text>
<text text-anchor="middle" x="644" y="-114.45" font-family="Helvetica,sans-Serif" font-size="14.00">samples = 980</text>
<text text-anchor="middle" x="644" y="-97.2" font-family="Helvetica,sans-Serif" font-size="14.00">value = [926, 611]</text>
<text text-anchor="middle" x="644" y="-79.95" font-family="Helvetica,sans-Serif" font-size="14.00">class = Animal</text>
</g>
<!-- 14379&#45;&gt;15809 -->
<g id="edge13" class="edge">
<title>14379&#45;&gt;15809</title>
<path fill="none" stroke="black" d="M585.21,-202.07C591.4,-193.45 597.93,-184.35 604.29,-175.49"/>
<polygon fill="black" stroke="black" points="606.97,-177.75 609.95,-167.59 601.28,-173.67 606.97,-177.75"/>
</g>
<!-- 14381 -->
<g id="node12" class="node">
<title>14381</title>
<path fill="#c0c0c0" stroke="black" d="M427,-36C427,-36 397,-36 397,-36 391,-36 385,-30 385,-24 385,-24 385,-12 385,-12 385,-6 391,0 397,0 397,0 427,0 427,0 433,0 439,-6 439,-12 439,-12 439,-24 439,-24 439,-30 433,-36 427,-36"/>
<text text-anchor="middle" x="412" y="-13.32" font-family="Helvetica,sans-Serif" font-size="14.00">(...)</text>
</g>
<!-- 14380&#45;&gt;14381 -->
<g id="edge11" class="edge">
<title>14380&#45;&gt;14381</title>
<path fill="none" stroke="black" d="M442.34,-71.75C437.26,-62.93 432.1,-53.96 427.52,-45.99"/>
<polygon fill="black" stroke="black" points="430.65,-44.41 422.63,-37.48 424.58,-47.9 430.65,-44.41"/>
</g>
<!-- 15386 -->
<g id="node13" class="node">
<title>15386</title>
<path fill="#c0c0c0" stroke="black" d="M499,-36C499,-36 469,-36 469,-36 463,-36 457,-30 457,-24 457,-24 457,-12 457,-12 457,-6 463,0 469,0 469,0 499,0 499,0 505,0 511,-6 511,-12 511,-12 511,-24 511,-24 511,-30 505,-36 499,-36"/>
<text text-anchor="middle" x="484" y="-13.32" font-family="Helvetica,sans-Serif" font-size="14.00">(...)</text>
</g>
<!-- 14380&#45;&gt;15386 -->
<g id="edge12" class="edge">
<title>14380&#45;&gt;15386</title>
<path fill="none" stroke="black" d="M476.02,-71.75C477.28,-63.42 478.56,-54.97 479.71,-47.34"/>
<polygon fill="black" stroke="black" points="483.14,-48.08 481.17,-37.67 476.22,-47.03 483.14,-48.08"/>
</g>
<!-- 15810 -->
<g id="node15" class="node">
<title>15810</title>
<path fill="#c0c0c0" stroke="black" d="M600,-36C600,-36 570,-36 570,-36 564,-36 558,-30 558,-24 558,-24 558,-12 558,-12 558,-6 564,0 570,0 570,0 600,0 600,0 606,0 612,-6 612,-12 612,-12 612,-24 612,-24 612,-30 606,-36 600,-36"/>
<text text-anchor="middle" x="585" y="-13.32" font-family="Helvetica,sans-Serif" font-size="14.00">(...)</text>
</g>
<!-- 15809&#45;&gt;15810 -->
<g id="edge14" class="edge">
<title>15809&#45;&gt;15810</title>
<path fill="none" stroke="black" d="M616.4,-71.75C611.15,-62.93 605.81,-53.96 601.06,-45.99"/>
<polygon fill="black" stroke="black" points="604.12,-44.28 596,-37.47 598.1,-47.86 604.12,-44.28"/>
</g>
<!-- 16119 -->
<g id="node16" class="node">
<title>16119</title>
<path fill="#c0c0c0" stroke="black" d="M672,-36C672,-36 642,-36 642,-36 636,-36 630,-30 630,-24 630,-24 630,-12 630,-12 630,-6 636,0 642,0 642,0 672,0 672,0 678,0 684,-6 684,-12 684,-12 684,-24 684,-24 684,-30 678,-36 672,-36"/>
<text text-anchor="middle" x="657" y="-13.32" font-family="Helvetica,sans-Serif" font-size="14.00">(...)</text>
</g>
<!-- 15809&#45;&gt;16119 -->
<g id="edge15" class="edge">
<title>15809&#45;&gt;16119</title>
<path fill="none" stroke="black" d="M650.08,-71.75C651.17,-63.42 652.28,-54.97 653.28,-47.34"/>
<polygon fill="black" stroke="black" points="656.72,-48.04 654.55,-37.67 649.78,-47.13 656.72,-48.04"/>
</g>
<!-- 16207 -->
<g id="node18" class="node">
<title>16207</title>
<path fill="#eca36f" stroke="black" d="M959.5,-296.5C959.5,-296.5 826.5,-296.5 826.5,-296.5 820.5,-296.5 814.5,-290.5 814.5,-284.5 814.5,-284.5 814.5,-214.25 814.5,-214.25 814.5,-208.25 820.5,-202.25 826.5,-202.25 826.5,-202.25 959.5,-202.25 959.5,-202.25 965.5,-202.25 971.5,-208.25 971.5,-214.25 971.5,-214.25 971.5,-284.5 971.5,-284.5 971.5,-290.5 965.5,-296.5 959.5,-296.5"/>
<text text-anchor="middle" x="893" y="-279.2" font-family="Helvetica,sans-Serif" font-size="14.00">19_U &lt;= 0.5</text>
<text text-anchor="middle" x="893" y="-261.95" font-family="Helvetica,sans-Serif" font-size="14.00">entropy = 0.749</text>
<text text-anchor="middle" x="893" y="-244.7" font-family="Helvetica,sans-Serif" font-size="14.00">samples = 1328</text>
<text text-anchor="middle" x="893" y="-227.45" font-family="Helvetica,sans-Serif" font-size="14.00">value = [1667, 454]</text>
<text text-anchor="middle" x="893" y="-210.2" font-family="Helvetica,sans-Serif" font-size="14.00">class = Animal</text>
</g>
<!-- 16206&#45;&gt;16207 -->
<g id="edge17" class="edge">
<title>16206&#45;&gt;16207</title>
<path fill="none" stroke="black" d="M893,-332.32C893,-324.42 893,-316.13 893,-307.98"/>
<polygon fill="black" stroke="black" points="896.5,-308.12 893,-298.12 889.5,-308.12 896.5,-308.12"/>
</g>
<!-- 16786 -->
<g id="node25" class="node">
<title>16786</title>
<path fill="#f8decb" stroke="black" d="M1205,-296.5C1205,-296.5 1081,-296.5 1081,-296.5 1075,-296.5 1069,-290.5 1069,-284.5 1069,-284.5 1069,-214.25 1069,-214.25 1069,-208.25 1075,-202.25 1081,-202.25 1081,-202.25 1205,-202.25 1205,-202.25 1211,-202.25 1217,-208.25 1217,-214.25 1217,-214.25 1217,-284.5 1217,-284.5 1217,-290.5 1211,-296.5 1205,-296.5"/>
<text text-anchor="middle" x="1143" y="-279.2" font-family="Helvetica,sans-Serif" font-size="14.00">9_G &lt;= 0.5</text>
<text text-anchor="middle" x="1143" y="-261.95" font-family="Helvetica,sans-Serif" font-size="14.00">entropy = 0.984</text>
<text text-anchor="middle" x="1143" y="-244.7" font-family="Helvetica,sans-Serif" font-size="14.00">samples = 233</text>
<text text-anchor="middle" x="1143" y="-227.45" font-family="Helvetica,sans-Serif" font-size="14.00">value = [215, 159]</text>
<text text-anchor="middle" x="1143" y="-210.2" font-family="Helvetica,sans-Serif" font-size="14.00">class = Animal</text>
</g>
<!-- 16206&#45;&gt;16786 -->
<g id="edge24" class="edge">
<title>16206&#45;&gt;16786</title>
<path fill="none" stroke="black" d="M971.76,-338.22C999.42,-324.03 1030.6,-308.04 1058.7,-293.62"/>
<polygon fill="black" stroke="black" points="1060.25,-296.76 1067.55,-289.08 1057.05,-290.53 1060.25,-296.76"/>
</g>
<!-- 16208 -->
<g id="node19" class="node">
<title>16208</title>
<path fill="#efb083" stroke="black" d="M881.5,-166.25C881.5,-166.25 748.5,-166.25 748.5,-166.25 742.5,-166.25 736.5,-160.25 736.5,-154.25 736.5,-154.25 736.5,-84 736.5,-84 736.5,-78 742.5,-72 748.5,-72 748.5,-72 881.5,-72 881.5,-72 887.5,-72 893.5,-78 893.5,-84 893.5,-84 893.5,-154.25 893.5,-154.25 893.5,-160.25 887.5,-166.25 881.5,-166.25"/>
<text text-anchor="middle" x="815" y="-148.95" font-family="Helvetica,sans-Serif" font-size="14.00">27_G &lt;= 0.5</text>
<text text-anchor="middle" x="815" y="-131.7" font-family="Helvetica,sans-Serif" font-size="14.00">entropy = 0.843</text>
<text text-anchor="middle" x="815" y="-114.45" font-family="Helvetica,sans-Serif" font-size="14.00">samples = 895</text>
<text text-anchor="middle" x="815" y="-97.2" font-family="Helvetica,sans-Serif" font-size="14.00">value = [1031, 384]</text>
<text text-anchor="middle" x="815" y="-79.95" font-family="Helvetica,sans-Serif" font-size="14.00">class = Animal</text>
</g>
<!-- 16207&#45;&gt;16208 -->
<g id="edge18" class="edge">
<title>16207&#45;&gt;16208</title>
<path fill="none" stroke="black" d="M864.84,-202.07C859.7,-193.63 854.3,-184.74 849.01,-176.05"/>
<polygon fill="black" stroke="black" points="852.09,-174.38 843.9,-167.65 846.11,-178.01 852.09,-174.38"/>
</g>
<!-- 16651 -->
<g id="node22" class="node">
<title>16651</title>
<path fill="#e88f4f" stroke="black" d="M1038.5,-166.25C1038.5,-166.25 923.5,-166.25 923.5,-166.25 917.5,-166.25 911.5,-160.25 911.5,-154.25 911.5,-154.25 911.5,-84 911.5,-84 911.5,-78 917.5,-72 923.5,-72 923.5,-72 1038.5,-72 1038.5,-72 1044.5,-72 1050.5,-78 1050.5,-84 1050.5,-84 1050.5,-154.25 1050.5,-154.25 1050.5,-160.25 1044.5,-166.25 1038.5,-166.25"/>
<text text-anchor="middle" x="981" y="-148.95" font-family="Helvetica,sans-Serif" font-size="14.00">25_C &lt;= 0.5</text>
<text text-anchor="middle" x="981" y="-131.7" font-family="Helvetica,sans-Serif" font-size="14.00">entropy = 0.466</text>
<text text-anchor="middle" x="981" y="-114.45" font-family="Helvetica,sans-Serif" font-size="14.00">samples = 433</text>
<text text-anchor="middle" x="981" y="-97.2" font-family="Helvetica,sans-Serif" font-size="14.00">value = [636, 70]</text>
<text text-anchor="middle" x="981" y="-79.95" font-family="Helvetica,sans-Serif" font-size="14.00">class = Animal</text>
</g>
<!-- 16207&#45;&gt;16651 -->
<g id="edge21" class="edge">
<title>16207&#45;&gt;16651</title>
<path fill="none" stroke="black" d="M924.77,-202.07C930.63,-193.54 936.8,-184.54 942.82,-175.77"/>
<polygon fill="black" stroke="black" points="945.65,-177.83 948.42,-167.61 939.88,-173.87 945.65,-177.83"/>
</g>
<!-- 16209 -->
<g id="node20" class="node">
<title>16209</title>
<path fill="#c0c0c0" stroke="black" d="M769,-36C769,-36 739,-36 739,-36 733,-36 727,-30 727,-24 727,-24 727,-12 727,-12 727,-6 733,0 739,0 739,0 769,0 769,0 775,0 781,-6 781,-12 781,-12 781,-24 781,-24 781,-30 775,-36 769,-36"/>
<text text-anchor="middle" x="754" y="-13.32" font-family="Helvetica,sans-Serif" font-size="14.00">(...)</text>
</g>
<!-- 16208&#45;&gt;16209 -->
<g id="edge19" class="edge">
<title>16208&#45;&gt;16209</title>
<path fill="none" stroke="black" d="M786.46,-71.75C780.97,-62.83 775.39,-53.76 770.44,-45.72"/>
<polygon fill="black" stroke="black" points="773.58,-44.14 765.36,-37.46 767.62,-47.81 773.58,-44.14"/>
</g>
<!-- 16650 -->
<g id="node21" class="node">
<title>16650</title>
<path fill="#c0c0c0" stroke="black" d="M841,-36C841,-36 811,-36 811,-36 805,-36 799,-30 799,-24 799,-24 799,-12 799,-12 799,-6 805,0 811,0 811,0 841,0 841,0 847,0 853,-6 853,-12 853,-12 853,-24 853,-24 853,-30 847,-36 841,-36"/>
<text text-anchor="middle" x="826" y="-13.32" font-family="Helvetica,sans-Serif" font-size="14.00">(...)</text>
</g>
<!-- 16208&#45;&gt;16650 -->
<g id="edge20" class="edge">
<title>16208&#45;&gt;16650</title>
<path fill="none" stroke="black" d="M820.15,-71.75C821.06,-63.52 821.99,-55.17 822.82,-47.61"/>
<polygon fill="black" stroke="black" points="826.3,-48 823.93,-37.68 819.35,-47.23 826.3,-48"/>
</g>
<!-- 16652 -->
<g id="node23" class="node">
<title>16652</title>
<path fill="#c0c0c0" stroke="black" d="M933,-36C933,-36 903,-36 903,-36 897,-36 891,-30 891,-24 891,-24 891,-12 891,-12 891,-6 897,0 903,0 903,0 933,0 933,0 939,0 945,-6 945,-12 945,-12 945,-24 945,-24 945,-30 939,-36 933,-36"/>
<text text-anchor="middle" x="918" y="-13.32" font-family="Helvetica,sans-Serif" font-size="14.00">(...)</text>
</g>
<!-- 16651&#45;&gt;16652 -->
<g id="edge22" class="edge">
<title>16651&#45;&gt;16652</title>
<path fill="none" stroke="black" d="M951.53,-71.75C945.85,-62.83 940.09,-53.76 934.98,-45.72"/>
<polygon fill="black" stroke="black" points="938.04,-44.01 929.73,-37.45 932.14,-47.77 938.04,-44.01"/>
</g>
<!-- 16775 -->
<g id="node24" class="node">
<title>16775</title>
<path fill="#c0c0c0" stroke="black" d="M1005,-36C1005,-36 975,-36 975,-36 969,-36 963,-30 963,-24 963,-24 963,-12 963,-12 963,-6 969,0 975,0 975,0 1005,0 1005,0 1011,0 1017,-6 1017,-12 1017,-12 1017,-24 1017,-24 1017,-30 1011,-36 1005,-36"/>
<text text-anchor="middle" x="990" y="-13.32" font-family="Helvetica,sans-Serif" font-size="14.00">(...)</text>
</g>
<!-- 16651&#45;&gt;16775 -->
<g id="edge23" class="edge">
<title>16651&#45;&gt;16775</title>
<path fill="none" stroke="black" d="M985.21,-71.75C985.96,-63.52 986.72,-55.17 987.4,-47.61"/>
<polygon fill="black" stroke="black" points="990.89,-47.96 988.3,-37.68 983.91,-47.32 990.89,-47.96"/>
</g>
<!-- 16787 -->
<g id="node26" class="node">
<title>16787</title>
<path fill="#fbebdf" stroke="black" d="M1205,-166.25C1205,-166.25 1081,-166.25 1081,-166.25 1075,-166.25 1069,-160.25 1069,-154.25 1069,-154.25 1069,-84 1069,-84 1069,-78 1075,-72 1081,-72 1081,-72 1205,-72 1205,-72 1211,-72 1217,-78 1217,-84 1217,-84 1217,-154.25 1217,-154.25 1217,-160.25 1211,-166.25 1205,-166.25"/>
<text text-anchor="middle" x="1143" y="-148.95" font-family="Helvetica,sans-Serif" font-size="14.00">3_A &lt;= 0.5</text>
<text text-anchor="middle" x="1143" y="-131.7" font-family="Helvetica,sans-Serif" font-size="14.00">entropy = 0.995</text>
<text text-anchor="middle" x="1143" y="-114.45" font-family="Helvetica,sans-Serif" font-size="14.00">samples = 181</text>
<text text-anchor="middle" x="1143" y="-97.2" font-family="Helvetica,sans-Serif" font-size="14.00">value = [162, 136]</text>
<text text-anchor="middle" x="1143" y="-79.95" font-family="Helvetica,sans-Serif" font-size="14.00">class = Animal</text>
</g>
<!-- 16786&#45;&gt;16787 -->
<g id="edge25" class="edge">
<title>16786&#45;&gt;16787</title>
<path fill="none" stroke="black" d="M1143,-202.07C1143,-194.17 1143,-185.88 1143,-177.73"/>
<polygon fill="black" stroke="black" points="1146.5,-177.87 1143,-167.87 1139.5,-177.87 1146.5,-177.87"/>
</g>
<!-- 16932 -->
<g id="node29" class="node">
<title>16932</title>
<path fill="#f0b88f" stroke="black" d="M1353.38,-166.25C1353.38,-166.25 1246.62,-166.25 1246.62,-166.25 1240.62,-166.25 1234.62,-160.25 1234.62,-154.25 1234.62,-154.25 1234.62,-84 1234.62,-84 1234.62,-78 1240.62,-72 1246.62,-72 1246.62,-72 1353.38,-72 1353.38,-72 1359.38,-72 1365.38,-78 1365.38,-84 1365.38,-84 1365.38,-154.25 1365.38,-154.25 1365.38,-160.25 1359.38,-166.25 1353.38,-166.25"/>
<text text-anchor="middle" x="1300" y="-148.95" font-family="Helvetica,sans-Serif" font-size="14.00">2_C &lt;= 0.5</text>
<text text-anchor="middle" x="1300" y="-131.7" font-family="Helvetica,sans-Serif" font-size="14.00">entropy = 0.884</text>
<text text-anchor="middle" x="1300" y="-114.45" font-family="Helvetica,sans-Serif" font-size="14.00">samples = 52</text>
<text text-anchor="middle" x="1300" y="-97.2" font-family="Helvetica,sans-Serif" font-size="14.00">value = [53, 23]</text>
<text text-anchor="middle" x="1300" y="-79.95" font-family="Helvetica,sans-Serif" font-size="14.00">class = Animal</text>
</g>
<!-- 16786&#45;&gt;16932 -->
<g id="edge28" class="edge">
<title>16786&#45;&gt;16932</title>
<path fill="none" stroke="black" d="M1199.68,-202.07C1210.95,-192.87 1222.87,-183.13 1234.41,-173.71"/>
<polygon fill="black" stroke="black" points="1236.44,-176.57 1241.97,-167.53 1232.01,-171.15 1236.44,-176.57"/>
</g>
<!-- 16788 -->
<g id="node27" class="node">
<title>16788</title>
<path fill="#c0c0c0" stroke="black" d="M1110,-36C1110,-36 1080,-36 1080,-36 1074,-36 1068,-30 1068,-24 1068,-24 1068,-12 1068,-12 1068,-6 1074,0 1080,0 1080,0 1110,0 1110,0 1116,0 1122,-6 1122,-12 1122,-12 1122,-24 1122,-24 1122,-30 1116,-36 1110,-36"/>
<text text-anchor="middle" x="1095" y="-13.32" font-family="Helvetica,sans-Serif" font-size="14.00">(...)</text>
</g>
<!-- 16787&#45;&gt;16788 -->
<g id="edge26" class="edge">
<title>16787&#45;&gt;16788</title>
<path fill="none" stroke="black" d="M1120.55,-71.75C1116.37,-63.12 1112.12,-54.36 1108.33,-46.53"/>
<polygon fill="black" stroke="black" points="1111.48,-45.01 1103.98,-37.53 1105.18,-48.06 1111.48,-45.01"/>
</g>
<!-- 16883 -->
<g id="node28" class="node">
<title>16883</title>
<path fill="#c0c0c0" stroke="black" d="M1182,-36C1182,-36 1152,-36 1152,-36 1146,-36 1140,-30 1140,-24 1140,-24 1140,-12 1140,-12 1140,-6 1146,0 1152,0 1152,0 1182,0 1182,0 1188,0 1194,-6 1194,-12 1194,-12 1194,-24 1194,-24 1194,-30 1188,-36 1182,-36"/>
<text text-anchor="middle" x="1167" y="-13.32" font-family="Helvetica,sans-Serif" font-size="14.00">(...)</text>
</g>
<!-- 16787&#45;&gt;16883 -->
<g id="edge27" class="edge">
<title>16787&#45;&gt;16883</title>
<path fill="none" stroke="black" d="M1154.23,-71.75C1156.24,-63.42 1158.29,-54.97 1160.14,-47.34"/>
<polygon fill="black" stroke="black" points="1163.53,-48.19 1162.49,-37.64 1156.73,-46.54 1163.53,-48.19"/>
</g>
<!-- 16933 -->
<g id="node30" class="node">
<title>16933</title>
<path fill="#c0c0c0" stroke="black" d="M1279,-36C1279,-36 1249,-36 1249,-36 1243,-36 1237,-30 1237,-24 1237,-24 1237,-12 1237,-12 1237,-6 1243,0 1249,0 1249,0 1279,0 1279,0 1285,0 1291,-6 1291,-12 1291,-12 1291,-24 1291,-24 1291,-30 1285,-36 1279,-36"/>
<text text-anchor="middle" x="1264" y="-13.32" font-family="Helvetica,sans-Serif" font-size="14.00">(...)</text>
</g>
<!-- 16932&#45;&gt;16933 -->
<g id="edge29" class="edge">
<title>16932&#45;&gt;16933</title>
<path fill="none" stroke="black" d="M1283.16,-71.75C1280.06,-63.22 1276.92,-54.57 1274.1,-46.8"/>
<polygon fill="black" stroke="black" points="1277.46,-45.8 1270.75,-37.6 1270.88,-48.19 1277.46,-45.8"/>
</g>
<!-- 16962 -->
<g id="node31" class="node">
<title>16962</title>
<path fill="#c0c0c0" stroke="black" d="M1351,-36C1351,-36 1321,-36 1321,-36 1315,-36 1309,-30 1309,-24 1309,-24 1309,-12 1309,-12 1309,-6 1315,0 1321,0 1321,0 1351,0 1351,0 1357,0 1363,-6 1363,-12 1363,-12 1363,-24 1363,-24 1363,-30 1357,-36 1351,-36"/>
<text text-anchor="middle" x="1336" y="-13.32" font-family="Helvetica,sans-Serif" font-size="14.00">(...)</text>
</g>
<!-- 16932&#45;&gt;16962 -->
<g id="edge30" class="edge">
<title>16932&#45;&gt;16962</title>
<path fill="none" stroke="black" d="M1316.84,-71.75C1319.94,-63.22 1323.08,-54.57 1325.9,-46.8"/>
<polygon fill="black" stroke="black" points="1329.12,-48.19 1329.25,-37.6 1322.54,-45.8 1329.12,-48.19"/>
</g>
</g>
</svg>
