<?xml version="1.0" encoding="UTF-8" standalone="no"?>
<!DOCTYPE svg PUBLIC "-//W3C//DTD SVG 1.1//EN"
 "http://www.w3.org/Graphics/SVG/1.1/DTD/svg11.dtd">
<!-- Generated by graphviz version 12.0.0 (20240803.0821)
 -->
<!-- Title: Tree Pages: 1 -->
<svg width="1418pt" height="565pt"
 viewBox="0.00 0.00 1418.00 565.00" xmlns="http://www.w3.org/2000/svg" xmlns:xlink="http://www.w3.org/1999/xlink">
<g id="graph0" class="graph" transform="scale(1 1) rotate(0) translate(4 561)">
<title>Tree</title>
<polygon fill="white" stroke="none" points="-4,4 -4,-561 1414,-561 1414,4 -4,4"/>
<!-- 0 -->
<g id="node1" class="node">
<title>0</title>
<path fill="#fefeff" stroke="black" d="M812,-557C812,-557 652,-557 652,-557 646,-557 640,-551 640,-545 640,-545 640,-474.75 640,-474.75 640,-468.75 646,-462.75 652,-462.75 652,-462.75 812,-462.75 812,-462.75 818,-462.75 824,-468.75 824,-474.75 824,-474.75 824,-545 824,-545 824,-551 818,-557 812,-557"/>
<text text-anchor="middle" x="732" y="-539.7" font-family="Helvetica,sans-Serif" font-size="14.00">22_A &lt;= 0.5</text>
<text text-anchor="middle" x="732" y="-522.45" font-family="Helvetica,sans-Serif" font-size="14.00">entropy = 1.0</text>
<text text-anchor="middle" x="732" y="-505.2" font-family="Helvetica,sans-Serif" font-size="14.00">samples = 38050</text>
<text text-anchor="middle" x="732" y="-487.95" font-family="Helvetica,sans-Serif" font-size="14.00">value = [30064, 30281]</text>
<text text-anchor="middle" x="732" y="-470.7" font-family="Helvetica,sans-Serif" font-size="14.00">class = Plant</text>
</g>
<!-- 1 -->
<g id="node2" class="node">
<title>1</title>
<path fill="#e9f4fc" stroke="black" d="M637,-426.75C637,-426.75 477,-426.75 477,-426.75 471,-426.75 465,-420.75 465,-414.75 465,-414.75 465,-344.5 465,-344.5 465,-338.5 471,-332.5 477,-332.5 477,-332.5 637,-332.5 637,-332.5 643,-332.5 649,-338.5 649,-344.5 649,-344.5 649,-414.75 649,-414.75 649,-420.75 643,-426.75 637,-426.75"/>
<text text-anchor="middle" x="557" y="-409.45" font-family="Helvetica,sans-Serif" font-size="14.00">9_U &lt;= 0.5</text>
<text text-anchor="middle" x="557" y="-392.2" font-family="Helvetica,sans-Serif" font-size="14.00">entropy = 0.997</text>
<text text-anchor="middle" x="557" y="-374.95" font-family="Helvetica,sans-Serif" font-size="14.00">samples = 33863</text>
<text text-anchor="middle" x="557" y="-357.7" font-family="Helvetica,sans-Serif" font-size="14.00">value = [25283, 28452]</text>
<text text-anchor="middle" x="557" y="-340.45" font-family="Helvetica,sans-Serif" font-size="14.00">class = Plant</text>
</g>
<!-- 0&#45;&gt;1 -->
<g id="edge1" class="edge">
<title>0&#45;&gt;1</title>
<path fill="none" stroke="black" d="M668.82,-462.57C656.01,-453.19 642.45,-443.25 629.36,-433.65"/>
<polygon fill="black" stroke="black" points="631.74,-431.06 621.6,-427.97 627.6,-436.7 631.74,-431.06"/>
<text text-anchor="middle" x="624.19" y="-447.11" font-family="Helvetica,sans-Serif" font-size="14.00">True</text>
</g>
<!-- 14942 -->
<g id="node17" class="node">
<title>14942</title>
<path fill="#efb185" stroke="black" d="M983,-426.75C983,-426.75 841,-426.75 841,-426.75 835,-426.75 829,-420.75 829,-414.75 829,-414.75 829,-344.5 829,-344.5 829,-338.5 835,-332.5 841,-332.5 841,-332.5 983,-332.5 983,-332.5 989,-332.5 995,-338.5 995,-344.5 995,-344.5 995,-414.75 995,-414.75 995,-420.75 989,-426.75 983,-426.75"/>
<text text-anchor="middle" x="912" y="-409.45" font-family="Helvetica,sans-Serif" font-size="14.00">17_A &lt;= 0.5</text>
<text text-anchor="middle" x="912" y="-392.2" font-family="Helvetica,sans-Serif" font-size="14.00">entropy = 0.851</text>
<text text-anchor="middle" x="912" y="-374.95" font-family="Helvetica,sans-Serif" font-size="14.00">samples = 4187</text>
<text text-anchor="middle" x="912" y="-357.7" font-family="Helvetica,sans-Serif" font-size="14.00">value = [4781, 1829]</text>
<text text-anchor="middle" x="912" y="-340.45" font-family="Helvetica,sans-Serif" font-size="14.00">class = Animal</text>
</g>
<!-- 0&#45;&gt;14942 -->
<g id="edge16" class="edge">
<title>0&#45;&gt;14942</title>
<path fill="none" stroke="black" d="M797.24,-462.39C810.32,-453.07 824.15,-443.22 837.52,-433.69"/>
<polygon fill="black" stroke="black" points="839.34,-436.7 845.45,-428.04 835.27,-430.99 839.34,-436.7"/>
<text text-anchor="middle" x="842.54" y="-447.14" font-family="Helvetica,sans-Serif" font-size="14.00">False</text>
</g>
<!-- 2 -->
<g id="node3" class="node">
<title>2</title>
<path fill="#cae5f8" stroke="black" d="M365,-296.5C365,-296.5 205,-296.5 205,-296.5 199,-296.5 193,-290.5 193,-284.5 193,-284.5 193,-214.25 193,-214.25 193,-208.25 199,-202.25 205,-202.25 205,-202.25 365,-202.25 365,-202.25 371,-202.25 377,-208.25 377,-214.25 377,-214.25 377,-284.5 377,-284.5 377,-290.5 371,-296.5 365,-296.5"/>
<text text-anchor="middle" x="285" y="-279.2" font-family="Helvetica,sans-Serif" font-size="14.00">18_A &lt;= 0.5</text>
<text text-anchor="middle" x="285" y="-261.95" font-family="Helvetica,sans-Serif" font-size="14.00">entropy = 0.982</text>
<text text-anchor="middle" x="285" y="-244.7" font-family="Helvetica,sans-Serif" font-size="14.00">samples = 24477</text>
<text text-anchor="middle" x="285" y="-227.45" font-family="Helvetica,sans-Serif" font-size="14.00">value = [16423, 22497]</text>
<text text-anchor="middle" x="285" y="-210.2" font-family="Helvetica,sans-Serif" font-size="14.00">class = Plant</text>
</g>
<!-- 1&#45;&gt;2 -->
<g id="edge2" class="edge">
<title>1&#45;&gt;2</title>
<path fill="none" stroke="black" d="M464.53,-335.03C439.76,-323.35 412.84,-310.65 387.56,-298.73"/>
<polygon fill="black" stroke="black" points="389.12,-295.6 378.58,-294.5 386.13,-301.93 389.12,-295.6"/>
</g>
<!-- 10535 -->
<g id="node10" class="node">
<title>10535</title>
<path fill="#f6d6be" stroke="black" d="M628,-296.5C628,-296.5 486,-296.5 486,-296.5 480,-296.5 474,-290.5 474,-284.5 474,-284.5 474,-214.25 474,-214.25 474,-208.25 480,-202.25 486,-202.25 486,-202.25 628,-202.25 628,-202.25 634,-202.25 640,-208.25 640,-214.25 640,-214.25 640,-284.5 640,-284.5 640,-290.5 634,-296.5 628,-296.5"/>
<text text-anchor="middle" x="557" y="-279.2" font-family="Helvetica,sans-Serif" font-size="14.00">2_A &lt;= 0.5</text>
<text text-anchor="middle" x="557" y="-261.95" font-family="Helvetica,sans-Serif" font-size="14.00">entropy = 0.972</text>
<text text-anchor="middle" x="557" y="-244.7" font-family="Helvetica,sans-Serif" font-size="14.00">samples = 9386</text>
<text text-anchor="middle" x="557" y="-227.45" font-family="Helvetica,sans-Serif" font-size="14.00">value = [8860, 5955]</text>
<text text-anchor="middle" x="557" y="-210.2" font-family="Helvetica,sans-Serif" font-size="14.00">class = Animal</text>
</g>
<!-- 1&#45;&gt;10535 -->
<g id="edge9" class="edge">
<title>1&#45;&gt;10535</title>
<path fill="none" stroke="black" d="M557,-332.32C557,-324.42 557,-316.13 557,-307.98"/>
<polygon fill="black" stroke="black" points="560.5,-308.12 557,-298.12 553.5,-308.12 560.5,-308.12"/>
</g>
<!-- 3 -->
<g id="node4" class="node">
<title>3</title>
<path fill="#bfdff7" stroke="black" d="M172,-166.25C172,-166.25 12,-166.25 12,-166.25 6,-166.25 0,-160.25 0,-154.25 0,-154.25 0,-84 0,-84 0,-78 6,-72 12,-72 12,-72 172,-72 172,-72 178,-72 184,-78 184,-84 184,-84 184,-154.25 184,-154.25 184,-160.25 178,-166.25 172,-166.25"/>
<text text-anchor="middle" x="92" y="-148.95" font-family="Helvetica,sans-Serif" font-size="14.00">19_U &lt;= 0.5</text>
<text text-anchor="middle" x="92" y="-131.7" font-family="Helvetica,sans-Serif" font-size="14.00">entropy = 0.973</text>
<text text-anchor="middle" x="92" y="-114.45" font-family="Helvetica,sans-Serif" font-size="14.00">samples = 19898</text>
<text text-anchor="middle" x="92" y="-97.2" font-family="Helvetica,sans-Serif" font-size="14.00">value = [12794, 18925]</text>
<text text-anchor="middle" x="92" y="-79.95" font-family="Helvetica,sans-Serif" font-size="14.00">class = Plant</text>
</g>
<!-- 2&#45;&gt;3 -->
<g id="edge3" class="edge">
<title>2&#45;&gt;3</title>
<path fill="none" stroke="black" d="M215.05,-201.89C200.89,-192.48 185.9,-182.53 171.45,-172.92"/>
<polygon fill="black" stroke="black" points="173.56,-170.12 163.3,-167.5 169.69,-175.95 173.56,-170.12"/>
</g>
<!-- 8230 -->
<g id="node7" class="node">
<title>8230</title>
<path fill="#fffdfc" stroke="black" d="M356,-166.25C356,-166.25 214,-166.25 214,-166.25 208,-166.25 202,-160.25 202,-154.25 202,-154.25 202,-84 202,-84 202,-78 208,-72 214,-72 214,-72 356,-72 356,-72 362,-72 368,-78 368,-84 368,-84 368,-154.25 368,-154.25 368,-160.25 362,-166.25 356,-166.25"/>
<text text-anchor="middle" x="285" y="-148.95" font-family="Helvetica,sans-Serif" font-size="14.00">8_G &lt;= 0.5</text>
<text text-anchor="middle" x="285" y="-131.7" font-family="Helvetica,sans-Serif" font-size="14.00">entropy = 1.0</text>
<text text-anchor="middle" x="285" y="-114.45" font-family="Helvetica,sans-Serif" font-size="14.00">samples = 4579</text>
<text text-anchor="middle" x="285" y="-97.2" font-family="Helvetica,sans-Serif" font-size="14.00">value = [3629, 3572]</text>
<text text-anchor="middle" x="285" y="-79.95" font-family="Helvetica,sans-Serif" font-size="14.00">class = Animal</text>
</g>
<!-- 2&#45;&gt;8230 -->
<g id="edge6" class="edge">
<title>2&#45;&gt;8230</title>
<path fill="none" stroke="black" d="M285,-202.07C285,-194.17 285,-185.88 285,-177.73"/>
<polygon fill="black" stroke="black" points="288.5,-177.87 285,-167.87 281.5,-177.87 288.5,-177.87"/>
</g>
<!-- 4 -->
<g id="node5" class="node">
<title>4</title>
<path fill="#c0c0c0" stroke="black" d="M71,-36C71,-36 41,-36 41,-36 35,-36 29,-30 29,-24 29,-24 29,-12 29,-12 29,-6 35,0 41,0 41,0 71,0 71,0 77,0 83,-6 83,-12 83,-12 83,-24 83,-24 83,-30 77,-36 71,-36"/>
<text text-anchor="middle" x="56" y="-13.32" font-family="Helvetica,sans-Serif" font-size="14.00">(...)</text>
</g>
<!-- 3&#45;&gt;4 -->
<g id="edge4" class="edge">
<title>3&#45;&gt;4</title>
<path fill="none" stroke="black" d="M75.16,-71.75C72.06,-63.22 68.92,-54.57 66.1,-46.8"/>
<polygon fill="black" stroke="black" points="69.46,-45.8 62.75,-37.6 62.88,-48.19 69.46,-45.8"/>
</g>
<!-- 6015 -->
<g id="node6" class="node">
<title>6015</title>
<path fill="#c0c0c0" stroke="black" d="M143,-36C143,-36 113,-36 113,-36 107,-36 101,-30 101,-24 101,-24 101,-12 101,-12 101,-6 107,0 113,0 113,0 143,0 143,0 149,0 155,-6 155,-12 155,-12 155,-24 155,-24 155,-30 149,-36 143,-36"/>
<text text-anchor="middle" x="128" y="-13.32" font-family="Helvetica,sans-Serif" font-size="14.00">(...)</text>
</g>
<!-- 3&#45;&gt;6015 -->
<g id="edge5" class="edge">
<title>3&#45;&gt;6015</title>
<path fill="none" stroke="black" d="M108.84,-71.75C111.94,-63.22 115.08,-54.57 117.9,-46.8"/>
<polygon fill="black" stroke="black" points="121.12,-48.19 121.25,-37.6 114.54,-45.8 121.12,-48.19"/>
</g>
<!-- 8231 -->
<g id="node8" class="node">
<title>8231</title>
<path fill="#c0c0c0" stroke="black" d="M266,-36C266,-36 236,-36 236,-36 230,-36 224,-30 224,-24 224,-24 224,-12 224,-12 224,-6 230,0 236,0 236,0 266,0 266,0 272,0 278,-6 278,-12 278,-12 278,-24 278,-24 278,-30 272,-36 266,-36"/>
<text text-anchor="middle" x="251" y="-13.32" font-family="Helvetica,sans-Serif" font-size="14.00">(...)</text>
</g>
<!-- 8230&#45;&gt;8231 -->
<g id="edge7" class="edge">
<title>8230&#45;&gt;8231</title>
<path fill="none" stroke="black" d="M269.1,-71.75C266.17,-63.22 263.2,-54.57 260.53,-46.8"/>
<polygon fill="black" stroke="black" points="263.94,-45.93 257.38,-37.6 257.32,-48.2 263.94,-45.93"/>
</g>
<!-- 9878 -->
<g id="node9" class="node">
<title>9878</title>
<path fill="#c0c0c0" stroke="black" d="M338,-36C338,-36 308,-36 308,-36 302,-36 296,-30 296,-24 296,-24 296,-12 296,-12 296,-6 302,0 308,0 308,0 338,0 338,0 344,0 350,-6 350,-12 350,-12 350,-24 350,-24 350,-30 344,-36 338,-36"/>
<text text-anchor="middle" x="323" y="-13.32" font-family="Helvetica,sans-Serif" font-size="14.00">(...)</text>
</g>
<!-- 8230&#45;&gt;9878 -->
<g id="edge8" class="edge">
<title>8230&#45;&gt;9878</title>
<path fill="none" stroke="black" d="M302.78,-71.75C306.05,-63.22 309.37,-54.57 312.34,-46.8"/>
<polygon fill="black" stroke="black" points="315.56,-48.18 315.88,-37.59 309.03,-45.67 315.56,-48.18"/>
</g>
<!-- 10536 -->
<g id="node11" class="node">
<title>10536</title>
<path fill="#fae9dc" stroke="black" d="M540,-166.25C540,-166.25 398,-166.25 398,-166.25 392,-166.25 386,-160.25 386,-154.25 386,-154.25 386,-84 386,-84 386,-78 392,-72 398,-72 398,-72 540,-72 540,-72 546,-72 552,-78 552,-84 552,-84 552,-154.25 552,-154.25 552,-160.25 546,-166.25 540,-166.25"/>
<text text-anchor="middle" x="469" y="-148.95" font-family="Helvetica,sans-Serif" font-size="14.00">16_A &lt;= 0.5</text>
<text text-anchor="middle" x="469" y="-131.7" font-family="Helvetica,sans-Serif" font-size="14.00">entropy = 0.993</text>
<text text-anchor="middle" x="469" y="-114.45" font-family="Helvetica,sans-Serif" font-size="14.00">samples = 7086</text>
<text text-anchor="middle" x="469" y="-97.2" font-family="Helvetica,sans-Serif" font-size="14.00">value = [6128, 5041]</text>
<text text-anchor="middle" x="469" y="-79.95" font-family="Helvetica,sans-Serif" font-size="14.00">class = Animal</text>
</g>
<!-- 10535&#45;&gt;10536 -->
<g id="edge10" class="edge">
<title>10535&#45;&gt;10536</title>
<path fill="none" stroke="black" d="M525.23,-202.07C519.37,-193.54 513.2,-184.54 507.18,-175.77"/>
<polygon fill="black" stroke="black" points="510.12,-173.87 501.58,-167.61 504.35,-177.83 510.12,-173.87"/>
</g>
<!-- 13861 -->
<g id="node14" class="node">
<title>13861</title>
<path fill="#eeab7b" stroke="black" d="M715.5,-166.25C715.5,-166.25 582.5,-166.25 582.5,-166.25 576.5,-166.25 570.5,-160.25 570.5,-154.25 570.5,-154.25 570.5,-84 570.5,-84 570.5,-78 576.5,-72 582.5,-72 582.5,-72 715.5,-72 715.5,-72 721.5,-72 727.5,-78 727.5,-84 727.5,-84 727.5,-154.25 727.5,-154.25 727.5,-160.25 721.5,-166.25 715.5,-166.25"/>
<text text-anchor="middle" x="649" y="-148.95" font-family="Helvetica,sans-Serif" font-size="14.00">17_A &lt;= 0.5</text>
<text text-anchor="middle" x="649" y="-131.7" font-family="Helvetica,sans-Serif" font-size="14.00">entropy = 0.812</text>
<text text-anchor="middle" x="649" y="-114.45" font-family="Helvetica,sans-Serif" font-size="14.00">samples = 2300</text>
<text text-anchor="middle" x="649" y="-97.2" font-family="Helvetica,sans-Serif" font-size="14.00">value = [2732, 914]</text>
<text text-anchor="middle" x="649" y="-79.95" font-family="Helvetica,sans-Serif" font-size="14.00">class = Animal</text>
</g>
<!-- 10535&#45;&gt;13861 -->
<g id="edge13" class="edge">
<title>10535&#45;&gt;13861</title>
<path fill="none" stroke="black" d="M590.21,-202.07C596.4,-193.45 602.93,-184.35 609.29,-175.49"/>
<polygon fill="black" stroke="black" points="611.97,-177.75 614.95,-167.59 606.28,-173.67 611.97,-177.75"/>
</g>
<!-- 10537 -->
<g id="node12" class="node">
<title>10537</title>
<path fill="#c0c0c0" stroke="black" d="M430,-36C430,-36 400,-36 400,-36 394,-36 388,-30 388,-24 388,-24 388,-12 388,-12 388,-6 394,0 400,0 400,0 430,0 430,0 436,0 442,-6 442,-12 442,-12 442,-24 442,-24 442,-30 436,-36 430,-36"/>
<text text-anchor="middle" x="415" y="-13.32" font-family="Helvetica,sans-Serif" font-size="14.00">(...)</text>
</g>
<!-- 10536&#45;&gt;10537 -->
<g id="edge11" class="edge">
<title>10536&#45;&gt;10537</title>
<path fill="none" stroke="black" d="M443.74,-71.75C438.98,-63.03 434.16,-54.16 429.85,-46.26"/>
<polygon fill="black" stroke="black" points="432.94,-44.61 425.08,-37.5 426.79,-47.96 432.94,-44.61"/>
</g>
<!-- 13110 -->
<g id="node13" class="node">
<title>13110</title>
<path fill="#c0c0c0" stroke="black" d="M502,-36C502,-36 472,-36 472,-36 466,-36 460,-30 460,-24 460,-24 460,-12 460,-12 460,-6 466,0 472,0 472,0 502,0 502,0 508,0 514,-6 514,-12 514,-12 514,-24 514,-24 514,-30 508,-36 502,-36"/>
<text text-anchor="middle" x="487" y="-13.32" font-family="Helvetica,sans-Serif" font-size="14.00">(...)</text>
</g>
<!-- 10536&#45;&gt;13110 -->
<g id="edge12" class="edge">
<title>10536&#45;&gt;13110</title>
<path fill="none" stroke="black" d="M477.42,-71.75C478.93,-63.42 480.47,-54.97 481.85,-47.34"/>
<polygon fill="black" stroke="black" points="485.27,-48.13 483.61,-37.66 478.38,-46.88 485.27,-48.13"/>
</g>
<!-- 13862 -->
<g id="node15" class="node">
<title>13862</title>
<path fill="#c0c0c0" stroke="black" d="M610,-36C610,-36 580,-36 580,-36 574,-36 568,-30 568,-24 568,-24 568,-12 568,-12 568,-6 574,0 580,0 580,0 610,0 610,0 616,0 622,-6 622,-12 622,-12 622,-24 622,-24 622,-30 616,-36 610,-36"/>
<text text-anchor="middle" x="595" y="-13.32" font-family="Helvetica,sans-Serif" font-size="14.00">(...)</text>
</g>
<!-- 13861&#45;&gt;13862 -->
<g id="edge14" class="edge">
<title>13861&#45;&gt;13862</title>
<path fill="none" stroke="black" d="M623.74,-71.75C618.98,-63.03 614.16,-54.16 609.85,-46.26"/>
<polygon fill="black" stroke="black" points="612.94,-44.61 605.08,-37.5 606.79,-47.96 612.94,-44.61"/>
</g>
<!-- 14679 -->
<g id="node16" class="node">
<title>14679</title>
<path fill="#c0c0c0" stroke="black" d="M682,-36C682,-36 652,-36 652,-36 646,-36 640,-30 640,-24 640,-24 640,-12 640,-12 640,-6 646,0 652,0 652,0 682,0 682,0 688,0 694,-6 694,-12 694,-12 694,-24 694,-24 694,-30 688,-36 682,-36"/>
<text text-anchor="middle" x="667" y="-13.32" font-family="Helvetica,sans-Serif" font-size="14.00">(...)</text>
</g>
<!-- 13861&#45;&gt;14679 -->
<g id="edge15" class="edge">
<title>13861&#45;&gt;14679</title>
<path fill="none" stroke="black" d="M657.42,-71.75C658.93,-63.42 660.47,-54.97 661.85,-47.34"/>
<polygon fill="black" stroke="black" points="665.27,-48.13 663.61,-37.66 658.38,-46.88 665.27,-48.13"/>
</g>
<!-- 14943 -->
<g id="node18" class="node">
<title>14943</title>
<path fill="#eeac7c" stroke="black" d="M983,-296.5C983,-296.5 841,-296.5 841,-296.5 835,-296.5 829,-290.5 829,-284.5 829,-284.5 829,-214.25 829,-214.25 829,-208.25 835,-202.25 841,-202.25 841,-202.25 983,-202.25 983,-202.25 989,-202.25 995,-208.25 995,-214.25 995,-214.25 995,-284.5 995,-284.5 995,-290.5 989,-296.5 983,-296.5"/>
<text text-anchor="middle" x="912" y="-279.2" font-family="Helvetica,sans-Serif" font-size="14.00">4_A &lt;= 0.5</text>
<text text-anchor="middle" x="912" y="-261.95" font-family="Helvetica,sans-Serif" font-size="14.00">entropy = 0.817</text>
<text text-anchor="middle" x="912" y="-244.7" font-family="Helvetica,sans-Serif" font-size="14.00">samples = 3324</text>
<text text-anchor="middle" x="912" y="-227.45" font-family="Helvetica,sans-Serif" font-size="14.00">value = [3926, 1335]</text>
<text text-anchor="middle" x="912" y="-210.2" font-family="Helvetica,sans-Serif" font-size="14.00">class = Animal</text>
</g>
<!-- 14942&#45;&gt;14943 -->
<g id="edge17" class="edge">
<title>14942&#45;&gt;14943</title>
<path fill="none" stroke="black" d="M912,-332.32C912,-324.42 912,-316.13 912,-307.98"/>
<polygon fill="black" stroke="black" points="915.5,-308.12 912,-298.12 908.5,-308.12 915.5,-308.12"/>
</g>
<!-- 16426 -->
<g id="node25" class="node">
<title>16426</title>
<path fill="#f4caab" stroke="black" d="M1232,-296.5C1232,-296.5 1108,-296.5 1108,-296.5 1102,-296.5 1096,-290.5 1096,-284.5 1096,-284.5 1096,-214.25 1096,-214.25 1096,-208.25 1102,-202.25 1108,-202.25 1108,-202.25 1232,-202.25 1232,-202.25 1238,-202.25 1244,-208.25 1244,-214.25 1244,-214.25 1244,-284.5 1244,-284.5 1244,-290.5 1238,-296.5 1232,-296.5"/>
<text text-anchor="middle" x="1170" y="-279.2" font-family="Helvetica,sans-Serif" font-size="14.00">16_G &lt;= 0.5</text>
<text text-anchor="middle" x="1170" y="-261.95" font-family="Helvetica,sans-Serif" font-size="14.00">entropy = 0.948</text>
<text text-anchor="middle" x="1170" y="-244.7" font-family="Helvetica,sans-Serif" font-size="14.00">samples = 863</text>
<text text-anchor="middle" x="1170" y="-227.45" font-family="Helvetica,sans-Serif" font-size="14.00">value = [855, 494]</text>
<text text-anchor="middle" x="1170" y="-210.2" font-family="Helvetica,sans-Serif" font-size="14.00">class = Animal</text>
</g>
<!-- 14942&#45;&gt;16426 -->
<g id="edge24" class="edge">
<title>14942&#45;&gt;16426</title>
<path fill="none" stroke="black" d="M995.41,-337.16C1024.25,-322.83 1056.58,-306.75 1085.51,-292.38"/>
<polygon fill="black" stroke="black" points="1086.84,-295.62 1094.23,-288.04 1083.72,-289.36 1086.84,-295.62"/>
</g>
<!-- 14944 -->
<g id="node19" class="node">
<title>14944</title>
<path fill="#efb184" stroke="black" d="M900,-166.25C900,-166.25 758,-166.25 758,-166.25 752,-166.25 746,-160.25 746,-154.25 746,-154.25 746,-84 746,-84 746,-78 752,-72 758,-72 758,-72 900,-72 900,-72 906,-72 912,-78 912,-84 912,-84 912,-154.25 912,-154.25 912,-160.25 906,-166.25 900,-166.25"/>
<text text-anchor="middle" x="829" y="-148.95" font-family="Helvetica,sans-Serif" font-size="14.00">6_A &lt;= 0.5</text>
<text text-anchor="middle" x="829" y="-131.7" font-family="Helvetica,sans-Serif" font-size="14.00">entropy = 0.848</text>
<text text-anchor="middle" x="829" y="-114.45" font-family="Helvetica,sans-Serif" font-size="14.00">samples = 2564</text>
<text text-anchor="middle" x="829" y="-97.2" font-family="Helvetica,sans-Serif" font-size="14.00">value = [2945, 1116]</text>
<text text-anchor="middle" x="829" y="-79.95" font-family="Helvetica,sans-Serif" font-size="14.00">class = Animal</text>
</g>
<!-- 14943&#45;&gt;14944 -->
<g id="edge18" class="edge">
<title>14943&#45;&gt;14944</title>
<path fill="none" stroke="black" d="M882.04,-202.07C876.51,-193.54 870.69,-184.54 865.01,-175.77"/>
<polygon fill="black" stroke="black" points="868.11,-174.12 859.74,-167.63 862.24,-177.93 868.11,-174.12"/>
</g>
<!-- 16105 -->
<g id="node22" class="node">
<title>16105</title>
<path fill="#eb9d65" stroke="black" d="M1066,-166.25C1066,-166.25 942,-166.25 942,-166.25 936,-166.25 930,-160.25 930,-154.25 930,-154.25 930,-84 930,-84 930,-78 936,-72 942,-72 942,-72 1066,-72 1066,-72 1072,-72 1078,-78 1078,-84 1078,-84 1078,-154.25 1078,-154.25 1078,-160.25 1072,-166.25 1066,-166.25"/>
<text text-anchor="middle" x="1004" y="-148.95" font-family="Helvetica,sans-Serif" font-size="14.00">2_G &lt;= 0.5</text>
<text text-anchor="middle" x="1004" y="-131.7" font-family="Helvetica,sans-Serif" font-size="14.00">entropy = 0.686</text>
<text text-anchor="middle" x="1004" y="-114.45" font-family="Helvetica,sans-Serif" font-size="14.00">samples = 760</text>
<text text-anchor="middle" x="1004" y="-97.2" font-family="Helvetica,sans-Serif" font-size="14.00">value = [981, 219]</text>
<text text-anchor="middle" x="1004" y="-79.95" font-family="Helvetica,sans-Serif" font-size="14.00">class = Animal</text>
</g>
<!-- 14943&#45;&gt;16105 -->
<g id="edge21" class="edge">
<title>14943&#45;&gt;16105</title>
<path fill="none" stroke="black" d="M945.21,-202.07C951.4,-193.45 957.93,-184.35 964.29,-175.49"/>
<polygon fill="black" stroke="black" points="966.97,-177.75 969.95,-167.59 961.28,-173.67 966.97,-177.75"/>
</g>
<!-- 14945 -->
<g id="node20" class="node">
<title>14945</title>
<path fill="#c0c0c0" stroke="black" d="M787,-36C787,-36 757,-36 757,-36 751,-36 745,-30 745,-24 745,-24 745,-12 745,-12 745,-6 751,0 757,0 757,0 787,0 787,0 793,0 799,-6 799,-12 799,-12 799,-24 799,-24 799,-30 793,-36 787,-36"/>
<text text-anchor="middle" x="772" y="-13.32" font-family="Helvetica,sans-Serif" font-size="14.00">(...)</text>
</g>
<!-- 14944&#45;&gt;14945 -->
<g id="edge19" class="edge">
<title>14944&#45;&gt;14945</title>
<path fill="none" stroke="black" d="M802.34,-71.75C797.26,-62.93 792.1,-53.96 787.52,-45.99"/>
<polygon fill="black" stroke="black" points="790.65,-44.41 782.63,-37.48 784.58,-47.9 790.65,-44.41"/>
</g>
<!-- 15850 -->
<g id="node21" class="node">
<title>15850</title>
<path fill="#c0c0c0" stroke="black" d="M859,-36C859,-36 829,-36 829,-36 823,-36 817,-30 817,-24 817,-24 817,-12 817,-12 817,-6 823,0 829,0 829,0 859,0 859,0 865,0 871,-6 871,-12 871,-12 871,-24 871,-24 871,-30 865,-36 859,-36"/>
<text text-anchor="middle" x="844" y="-13.32" font-family="Helvetica,sans-Serif" font-size="14.00">(...)</text>
</g>
<!-- 14944&#45;&gt;15850 -->
<g id="edge20" class="edge">
<title>14944&#45;&gt;15850</title>
<path fill="none" stroke="black" d="M836.02,-71.75C837.28,-63.42 838.56,-54.97 839.71,-47.34"/>
<polygon fill="black" stroke="black" points="843.14,-48.08 841.17,-37.67 836.22,-47.03 843.14,-48.08"/>
</g>
<!-- 16106 -->
<g id="node23" class="node">
<title>16106</title>
<path fill="#c0c0c0" stroke="black" d="M958,-36C958,-36 928,-36 928,-36 922,-36 916,-30 916,-24 916,-24 916,-12 916,-12 916,-6 922,0 928,0 928,0 958,0 958,0 964,0 970,-6 970,-12 970,-12 970,-24 970,-24 970,-30 964,-36 958,-36"/>
<text text-anchor="middle" x="943" y="-13.32" font-family="Helvetica,sans-Serif" font-size="14.00">(...)</text>
</g>
<!-- 16105&#45;&gt;16106 -->
<g id="edge22" class="edge">
<title>16105&#45;&gt;16106</title>
<path fill="none" stroke="black" d="M975.46,-71.75C969.97,-62.83 964.39,-53.76 959.44,-45.72"/>
<polygon fill="black" stroke="black" points="962.58,-44.14 954.36,-37.46 956.62,-47.81 962.58,-44.14"/>
</g>
<!-- 16303 -->
<g id="node24" class="node">
<title>16303</title>
<path fill="#c0c0c0" stroke="black" d="M1030,-36C1030,-36 1000,-36 1000,-36 994,-36 988,-30 988,-24 988,-24 988,-12 988,-12 988,-6 994,0 1000,0 1000,0 1030,0 1030,0 1036,0 1042,-6 1042,-12 1042,-12 1042,-24 1042,-24 1042,-30 1036,-36 1030,-36"/>
<text text-anchor="middle" x="1015" y="-13.32" font-family="Helvetica,sans-Serif" font-size="14.00">(...)</text>
</g>
<!-- 16105&#45;&gt;16303 -->
<g id="edge23" class="edge">
<title>16105&#45;&gt;16303</title>
<path fill="none" stroke="black" d="M1009.15,-71.75C1010.06,-63.52 1010.99,-55.17 1011.82,-47.61"/>
<polygon fill="black" stroke="black" points="1015.3,-48 1012.93,-37.68 1008.35,-47.23 1015.3,-48"/>
</g>
<!-- 16427 -->
<g id="node26" class="node">
<title>16427</title>
<path fill="#f0b78e" stroke="black" d="M1232,-166.25C1232,-166.25 1108,-166.25 1108,-166.25 1102,-166.25 1096,-160.25 1096,-154.25 1096,-154.25 1096,-84 1096,-84 1096,-78 1102,-72 1108,-72 1108,-72 1232,-72 1232,-72 1238,-72 1244,-78 1244,-84 1244,-84 1244,-154.25 1244,-154.25 1244,-160.25 1238,-166.25 1232,-166.25"/>
<text text-anchor="middle" x="1170" y="-148.95" font-family="Helvetica,sans-Serif" font-size="14.00">20_C &lt;= 0.5</text>
<text text-anchor="middle" x="1170" y="-131.7" font-family="Helvetica,sans-Serif" font-size="14.00">entropy = 0.882</text>
<text text-anchor="middle" x="1170" y="-114.45" font-family="Helvetica,sans-Serif" font-size="14.00">samples = 565</text>
<text text-anchor="middle" x="1170" y="-97.2" font-family="Helvetica,sans-Serif" font-size="14.00">value = [616, 265]</text>
<text text-anchor="middle" x="1170" y="-79.95" font-family="Helvetica,sans-Serif" font-size="14.00">class = Animal</text>
</g>
<!-- 16426&#45;&gt;16427 -->
<g id="edge25" class="edge">
<title>16426&#45;&gt;16427</title>
<path fill="none" stroke="black" d="M1170,-202.07C1170,-194.17 1170,-185.88 1170,-177.73"/>
<polygon fill="black" stroke="black" points="1173.5,-177.87 1170,-167.87 1166.5,-177.87 1173.5,-177.87"/>
</g>
<!-- 16718 -->
<g id="node29" class="node">
<title>16718</title>
<path fill="#fefaf7" stroke="black" d="M1398,-166.25C1398,-166.25 1274,-166.25 1274,-166.25 1268,-166.25 1262,-160.25 1262,-154.25 1262,-154.25 1262,-84 1262,-84 1262,-78 1268,-72 1274,-72 1274,-72 1398,-72 1398,-72 1404,-72 1410,-78 1410,-84 1410,-84 1410,-154.25 1410,-154.25 1410,-160.25 1404,-166.25 1398,-166.25"/>
<text text-anchor="middle" x="1336" y="-148.95" font-family="Helvetica,sans-Serif" font-size="14.00">10_C &lt;= 0.5</text>
<text text-anchor="middle" x="1336" y="-131.7" font-family="Helvetica,sans-Serif" font-size="14.00">entropy = 1.0</text>
<text text-anchor="middle" x="1336" y="-114.45" font-family="Helvetica,sans-Serif" font-size="14.00">samples = 298</text>
<text text-anchor="middle" x="1336" y="-97.2" font-family="Helvetica,sans-Serif" font-size="14.00">value = [239, 229]</text>
<text text-anchor="middle" x="1336" y="-79.95" font-family="Helvetica,sans-Serif" font-size="14.00">class = Animal</text>
</g>
<!-- 16426&#45;&gt;16718 -->
<g id="edge28" class="edge">
<title>16426&#45;&gt;16718</title>
<path fill="none" stroke="black" d="M1229.93,-202.07C1241.96,-192.78 1254.7,-182.94 1267.01,-173.43"/>
<polygon fill="black" stroke="black" points="1268.91,-176.38 1274.68,-167.5 1264.63,-170.84 1268.91,-176.38"/>
</g>
<!-- 16428 -->
<g id="node27" class="node">
<title>16428</title>
<path fill="#c0c0c0" stroke="black" d="M1142,-36C1142,-36 1112,-36 1112,-36 1106,-36 1100,-30 1100,-24 1100,-24 1100,-12 1100,-12 1100,-6 1106,0 1112,0 1112,0 1142,0 1142,0 1148,0 1154,-6 1154,-12 1154,-12 1154,-24 1154,-24 1154,-30 1148,-36 1142,-36"/>
<text text-anchor="middle" x="1127" y="-13.32" font-family="Helvetica,sans-Serif" font-size="14.00">(...)</text>
</g>
<!-- 16427&#45;&gt;16428 -->
<g id="edge26" class="edge">
<title>16427&#45;&gt;16428</title>
<path fill="none" stroke="black" d="M1149.88,-71.75C1146.14,-63.12 1142.34,-54.36 1138.94,-46.53"/>
<polygon fill="black" stroke="black" points="1142.24,-45.34 1135.05,-37.56 1135.82,-48.13 1142.24,-45.34"/>
</g>
<!-- 16639 -->
<g id="node28" class="node">
<title>16639</title>
<path fill="#c0c0c0" stroke="black" d="M1214,-36C1214,-36 1184,-36 1184,-36 1178,-36 1172,-30 1172,-24 1172,-24 1172,-12 1172,-12 1172,-6 1178,0 1184,0 1184,0 1214,0 1214,0 1220,0 1226,-6 1226,-12 1226,-12 1226,-24 1226,-24 1226,-30 1220,-36 1214,-36"/>
<text text-anchor="middle" x="1199" y="-13.32" font-family="Helvetica,sans-Serif" font-size="14.00">(...)</text>
</g>
<!-- 16427&#45;&gt;16639 -->
<g id="edge27" class="edge">
<title>16427&#45;&gt;16639</title>
<path fill="none" stroke="black" d="M1183.57,-71.75C1186.03,-63.32 1188.54,-54.77 1190.79,-47.07"/>
<polygon fill="black" stroke="black" points="1194.1,-48.21 1193.55,-37.63 1187.38,-46.24 1194.1,-48.21"/>
</g>
<!-- 16719 -->
<g id="node30" class="node">
<title>16719</title>
<path fill="#c0c0c0" stroke="black" d="M1315,-36C1315,-36 1285,-36 1285,-36 1279,-36 1273,-30 1273,-24 1273,-24 1273,-12 1273,-12 1273,-6 1279,0 1285,0 1285,0 1315,0 1315,0 1321,0 1327,-6 1327,-12 1327,-12 1327,-24 1327,-24 1327,-30 1321,-36 1315,-36"/>
<text text-anchor="middle" x="1300" y="-13.32" font-family="Helvetica,sans-Serif" font-size="14.00">(...)</text>
</g>
<!-- 16718&#45;&gt;16719 -->
<g id="edge29" class="edge">
<title>16718&#45;&gt;16719</title>
<path fill="none" stroke="black" d="M1319.16,-71.75C1316.06,-63.22 1312.92,-54.57 1310.1,-46.8"/>
<polygon fill="black" stroke="black" points="1313.46,-45.8 1306.75,-37.6 1306.88,-48.19 1313.46,-45.8"/>
</g>
<!-- 16810 -->
<g id="node31" class="node">
<title>16810</title>
<path fill="#c0c0c0" stroke="black" d="M1387,-36C1387,-36 1357,-36 1357,-36 1351,-36 1345,-30 1345,-24 1345,-24 1345,-12 1345,-12 1345,-6 1351,0 1357,0 1357,0 1387,0 1387,0 1393,0 1399,-6 1399,-12 1399,-12 1399,-24 1399,-24 1399,-30 1393,-36 1387,-36"/>
<text text-anchor="middle" x="1372" y="-13.32" font-family="Helvetica,sans-Serif" font-size="14.00">(...)</text>
</g>
<!-- 16718&#45;&gt;16810 -->
<g id="edge30" class="edge">
<title>16718&#45;&gt;16810</title>
<path fill="none" stroke="black" d="M1352.84,-71.75C1355.94,-63.22 1359.08,-54.57 1361.9,-46.8"/>
<polygon fill="black" stroke="black" points="1365.12,-48.19 1365.25,-37.6 1358.54,-45.8 1365.12,-48.19"/>
</g>
</g>
</svg>
