<?xml version="1.0" encoding="UTF-8" standalone="no"?>
<!DOCTYPE svg PUBLIC "-//W3C//DTD SVG 1.1//EN"
 "http://www.w3.org/Graphics/SVG/1.1/DTD/svg11.dtd">
<!-- Generated by graphviz version 12.0.0 (20240803.0821)
 -->
<!-- Title: Tree Pages: 1 -->
<svg width="1428pt" height="565pt"
 viewBox="0.00 0.00 1428.38 565.00" xmlns="http://www.w3.org/2000/svg" xmlns:xlink="http://www.w3.org/1999/xlink">
<g id="graph0" class="graph" transform="scale(1 1) rotate(0) translate(4 561)">
<title>Tree</title>
<polygon fill="white" stroke="none" points="-4,4 -4,-561 1424.38,-561 1424.38,4 -4,4"/>
<!-- 0 -->
<g id="node1" class="node">
<title>0</title>
<path fill="#fffdfd" stroke="black" d="M821,-557C821,-557 661,-557 661,-557 655,-557 649,-551 649,-545 649,-545 649,-474.75 649,-474.75 649,-468.75 655,-462.75 661,-462.75 661,-462.75 821,-462.75 821,-462.75 827,-462.75 833,-468.75 833,-474.75 833,-474.75 833,-545 833,-545 833,-551 827,-557 821,-557"/>
<text text-anchor="middle" x="741" y="-539.7" font-family="Helvetica,sans-Serif" font-size="14.00">22_U &lt;= 0.5</text>
<text text-anchor="middle" x="741" y="-522.45" font-family="Helvetica,sans-Serif" font-size="14.00">entropy = 1.0</text>
<text text-anchor="middle" x="741" y="-505.2" font-family="Helvetica,sans-Serif" font-size="14.00">samples = 38187</text>
<text text-anchor="middle" x="741" y="-487.95" font-family="Helvetica,sans-Serif" font-size="14.00">value = [30354, 29991]</text>
<text text-anchor="middle" x="741" y="-470.7" font-family="Helvetica,sans-Serif" font-size="14.00">class = Animal</text>
</g>
<!-- 1 -->
<g id="node2" class="node">
<title>1</title>
<path fill="#ddeefb" stroke="black" d="M644,-426.75C644,-426.75 484,-426.75 484,-426.75 478,-426.75 472,-420.75 472,-414.75 472,-414.75 472,-344.5 472,-344.5 472,-338.5 478,-332.5 484,-332.5 484,-332.5 644,-332.5 644,-332.5 650,-332.5 656,-338.5 656,-344.5 656,-344.5 656,-414.75 656,-414.75 656,-420.75 650,-426.75 644,-426.75"/>
<text text-anchor="middle" x="564" y="-409.45" font-family="Helvetica,sans-Serif" font-size="14.00">8_G &lt;= 0.5</text>
<text text-anchor="middle" x="564" y="-392.2" font-family="Helvetica,sans-Serif" font-size="14.00">entropy = 0.994</text>
<text text-anchor="middle" x="564" y="-374.95" font-family="Helvetica,sans-Serif" font-size="14.00">samples = 32992</text>
<text text-anchor="middle" x="564" y="-357.7" font-family="Helvetica,sans-Serif" font-size="14.00">value = [23595, 28442]</text>
<text text-anchor="middle" x="564" y="-340.45" font-family="Helvetica,sans-Serif" font-size="14.00">class = Plant</text>
</g>
<!-- 0&#45;&gt;1 -->
<g id="edge1" class="edge">
<title>0&#45;&gt;1</title>
<path fill="none" stroke="black" d="M676.85,-462.39C663.99,-453.07 650.38,-443.22 637.24,-433.69"/>
<polygon fill="black" stroke="black" points="639.61,-431.09 629.46,-428.05 635.5,-436.75 639.61,-431.09"/>
<text text-anchor="middle" x="632.17" y="-447.18" font-family="Helvetica,sans-Serif" font-size="14.00">True</text>
</g>
<!-- 14518 -->
<g id="node17" class="node">
<title>14518</title>
<path fill="#eb9e66" stroke="black" d="M996,-426.75C996,-426.75 854,-426.75 854,-426.75 848,-426.75 842,-420.75 842,-414.75 842,-414.75 842,-344.5 842,-344.5 842,-338.5 848,-332.5 854,-332.5 854,-332.5 996,-332.5 996,-332.5 1002,-332.5 1008,-338.5 1008,-344.5 1008,-344.5 1008,-414.75 1008,-414.75 1008,-420.75 1002,-426.75 996,-426.75"/>
<text text-anchor="middle" x="925" y="-409.45" font-family="Helvetica,sans-Serif" font-size="14.00">1_A &lt;= 0.5</text>
<text text-anchor="middle" x="925" y="-392.2" font-family="Helvetica,sans-Serif" font-size="14.00">entropy = 0.694</text>
<text text-anchor="middle" x="925" y="-374.95" font-family="Helvetica,sans-Serif" font-size="14.00">samples = 5195</text>
<text text-anchor="middle" x="925" y="-357.7" font-family="Helvetica,sans-Serif" font-size="14.00">value = [6759, 1549]</text>
<text text-anchor="middle" x="925" y="-340.45" font-family="Helvetica,sans-Serif" font-size="14.00">class = Animal</text>
</g>
<!-- 0&#45;&gt;14518 -->
<g id="edge16" class="edge">
<title>0&#45;&gt;14518</title>
<path fill="none" stroke="black" d="M807.69,-462.39C821.06,-453.07 835.2,-443.22 848.86,-433.69"/>
<polygon fill="black" stroke="black" points="850.79,-436.62 856.99,-428.03 846.78,-430.88 850.79,-436.62"/>
<text text-anchor="middle" x="853.84" y="-447.1" font-family="Helvetica,sans-Serif" font-size="14.00">False</text>
</g>
<!-- 2 -->
<g id="node3" class="node">
<title>2</title>
<path fill="#fef9f6" stroke="black" d="M365,-296.5C365,-296.5 205,-296.5 205,-296.5 199,-296.5 193,-290.5 193,-284.5 193,-284.5 193,-214.25 193,-214.25 193,-208.25 199,-202.25 205,-202.25 205,-202.25 365,-202.25 365,-202.25 371,-202.25 377,-208.25 377,-214.25 377,-214.25 377,-284.5 377,-284.5 377,-290.5 371,-296.5 365,-296.5"/>
<text text-anchor="middle" x="285" y="-279.2" font-family="Helvetica,sans-Serif" font-size="14.00">9_G &lt;= 0.5</text>
<text text-anchor="middle" x="285" y="-261.95" font-family="Helvetica,sans-Serif" font-size="14.00">entropy = 1.0</text>
<text text-anchor="middle" x="285" y="-244.7" font-family="Helvetica,sans-Serif" font-size="14.00">samples = 22404</text>
<text text-anchor="middle" x="285" y="-227.45" font-family="Helvetica,sans-Serif" font-size="14.00">value = [17991, 17130]</text>
<text text-anchor="middle" x="285" y="-210.2" font-family="Helvetica,sans-Serif" font-size="14.00">class = Animal</text>
</g>
<!-- 1&#45;&gt;2 -->
<g id="edge2" class="edge">
<title>1&#45;&gt;2</title>
<path fill="none" stroke="black" d="M471.87,-336.28C444.73,-323.8 414.87,-310.07 387.14,-297.33"/>
<polygon fill="black" stroke="black" points="388.95,-294.31 378.41,-293.31 386.03,-300.67 388.95,-294.31"/>
</g>
<!-- 10561 -->
<g id="node10" class="node">
<title>10561</title>
<path fill="#9bcef2" stroke="black" d="M639.5,-296.5C639.5,-296.5 488.5,-296.5 488.5,-296.5 482.5,-296.5 476.5,-290.5 476.5,-284.5 476.5,-284.5 476.5,-214.25 476.5,-214.25 476.5,-208.25 482.5,-202.25 488.5,-202.25 488.5,-202.25 639.5,-202.25 639.5,-202.25 645.5,-202.25 651.5,-208.25 651.5,-214.25 651.5,-214.25 651.5,-284.5 651.5,-284.5 651.5,-290.5 645.5,-296.5 639.5,-296.5"/>
<text text-anchor="middle" x="564" y="-279.2" font-family="Helvetica,sans-Serif" font-size="14.00">22_G &lt;= 0.5</text>
<text text-anchor="middle" x="564" y="-261.95" font-family="Helvetica,sans-Serif" font-size="14.00">entropy = 0.916</text>
<text text-anchor="middle" x="564" y="-244.7" font-family="Helvetica,sans-Serif" font-size="14.00">samples = 10588</text>
<text text-anchor="middle" x="564" y="-227.45" font-family="Helvetica,sans-Serif" font-size="14.00">value = [5604, 11312]</text>
<text text-anchor="middle" x="564" y="-210.2" font-family="Helvetica,sans-Serif" font-size="14.00">class = Plant</text>
</g>
<!-- 1&#45;&gt;10561 -->
<g id="edge9" class="edge">
<title>1&#45;&gt;10561</title>
<path fill="none" stroke="black" d="M564,-332.32C564,-324.42 564,-316.13 564,-307.98"/>
<polygon fill="black" stroke="black" points="567.5,-308.12 564,-298.12 560.5,-308.12 567.5,-308.12"/>
</g>
<!-- 3 -->
<g id="node4" class="node">
<title>3</title>
<path fill="#fae7d9" stroke="black" d="M172,-166.25C172,-166.25 12,-166.25 12,-166.25 6,-166.25 0,-160.25 0,-154.25 0,-154.25 0,-84 0,-84 0,-78 6,-72 12,-72 12,-72 172,-72 172,-72 178,-72 184,-78 184,-84 184,-84 184,-154.25 184,-154.25 184,-160.25 178,-166.25 172,-166.25"/>
<text text-anchor="middle" x="92" y="-148.95" font-family="Helvetica,sans-Serif" font-size="14.00">23_U &lt;= 0.5</text>
<text text-anchor="middle" x="92" y="-131.7" font-family="Helvetica,sans-Serif" font-size="14.00">entropy = 0.992</text>
<text text-anchor="middle" x="92" y="-114.45" font-family="Helvetica,sans-Serif" font-size="14.00">samples = 15870</text>
<text text-anchor="middle" x="92" y="-97.2" font-family="Helvetica,sans-Serif" font-size="14.00">value = [13813, 11138]</text>
<text text-anchor="middle" x="92" y="-79.95" font-family="Helvetica,sans-Serif" font-size="14.00">class = Animal</text>
</g>
<!-- 2&#45;&gt;3 -->
<g id="edge3" class="edge">
<title>2&#45;&gt;3</title>
<path fill="none" stroke="black" d="M215.05,-201.89C200.89,-192.48 185.9,-182.53 171.45,-172.92"/>
<polygon fill="black" stroke="black" points="173.56,-170.12 163.3,-167.5 169.69,-175.95 173.56,-170.12"/>
</g>
<!-- 7708 -->
<g id="node7" class="node">
<title>7708</title>
<path fill="#c3e1f7" stroke="black" d="M356,-166.25C356,-166.25 214,-166.25 214,-166.25 208,-166.25 202,-160.25 202,-154.25 202,-154.25 202,-84 202,-84 202,-78 208,-72 214,-72 214,-72 356,-72 356,-72 362,-72 368,-78 368,-84 368,-84 368,-154.25 368,-154.25 368,-160.25 362,-166.25 356,-166.25"/>
<text text-anchor="middle" x="285" y="-148.95" font-family="Helvetica,sans-Serif" font-size="14.00">19_U &lt;= 0.5</text>
<text text-anchor="middle" x="285" y="-131.7" font-family="Helvetica,sans-Serif" font-size="14.00">entropy = 0.977</text>
<text text-anchor="middle" x="285" y="-114.45" font-family="Helvetica,sans-Serif" font-size="14.00">samples = 6534</text>
<text text-anchor="middle" x="285" y="-97.2" font-family="Helvetica,sans-Serif" font-size="14.00">value = [4178, 5992]</text>
<text text-anchor="middle" x="285" y="-79.95" font-family="Helvetica,sans-Serif" font-size="14.00">class = Plant</text>
</g>
<!-- 2&#45;&gt;7708 -->
<g id="edge6" class="edge">
<title>2&#45;&gt;7708</title>
<path fill="none" stroke="black" d="M285,-202.07C285,-194.17 285,-185.88 285,-177.73"/>
<polygon fill="black" stroke="black" points="288.5,-177.87 285,-167.87 281.5,-177.87 288.5,-177.87"/>
</g>
<!-- 4 -->
<g id="node5" class="node">
<title>4</title>
<path fill="#c0c0c0" stroke="black" d="M71,-36C71,-36 41,-36 41,-36 35,-36 29,-30 29,-24 29,-24 29,-12 29,-12 29,-6 35,0 41,0 41,0 71,0 71,0 77,0 83,-6 83,-12 83,-12 83,-24 83,-24 83,-30 77,-36 71,-36"/>
<text text-anchor="middle" x="56" y="-13.32" font-family="Helvetica,sans-Serif" font-size="14.00">(...)</text>
</g>
<!-- 3&#45;&gt;4 -->
<g id="edge4" class="edge">
<title>3&#45;&gt;4</title>
<path fill="none" stroke="black" d="M75.16,-71.75C72.06,-63.22 68.92,-54.57 66.1,-46.8"/>
<polygon fill="black" stroke="black" points="69.46,-45.8 62.75,-37.6 62.88,-48.19 69.46,-45.8"/>
</g>
<!-- 7367 -->
<g id="node6" class="node">
<title>7367</title>
<path fill="#c0c0c0" stroke="black" d="M143,-36C143,-36 113,-36 113,-36 107,-36 101,-30 101,-24 101,-24 101,-12 101,-12 101,-6 107,0 113,0 113,0 143,0 143,0 149,0 155,-6 155,-12 155,-12 155,-24 155,-24 155,-30 149,-36 143,-36"/>
<text text-anchor="middle" x="128" y="-13.32" font-family="Helvetica,sans-Serif" font-size="14.00">(...)</text>
</g>
<!-- 3&#45;&gt;7367 -->
<g id="edge5" class="edge">
<title>3&#45;&gt;7367</title>
<path fill="none" stroke="black" d="M108.84,-71.75C111.94,-63.22 115.08,-54.57 117.9,-46.8"/>
<polygon fill="black" stroke="black" points="121.12,-48.19 121.25,-37.6 114.54,-45.8 121.12,-48.19"/>
</g>
<!-- 7709 -->
<g id="node8" class="node">
<title>7709</title>
<path fill="#c0c0c0" stroke="black" d="M271,-36C271,-36 241,-36 241,-36 235,-36 229,-30 229,-24 229,-24 229,-12 229,-12 229,-6 235,0 241,0 241,0 271,0 271,0 277,0 283,-6 283,-12 283,-12 283,-24 283,-24 283,-30 277,-36 271,-36"/>
<text text-anchor="middle" x="256" y="-13.32" font-family="Helvetica,sans-Serif" font-size="14.00">(...)</text>
</g>
<!-- 7708&#45;&gt;7709 -->
<g id="edge7" class="edge">
<title>7708&#45;&gt;7709</title>
<path fill="none" stroke="black" d="M271.43,-71.75C268.97,-63.32 266.46,-54.77 264.21,-47.07"/>
<polygon fill="black" stroke="black" points="267.62,-46.24 261.45,-37.63 260.9,-48.21 267.62,-46.24"/>
</g>
<!-- 9844 -->
<g id="node9" class="node">
<title>9844</title>
<path fill="#c0c0c0" stroke="black" d="M343,-36C343,-36 313,-36 313,-36 307,-36 301,-30 301,-24 301,-24 301,-12 301,-12 301,-6 307,0 313,0 313,0 343,0 343,0 349,0 355,-6 355,-12 355,-12 355,-24 355,-24 355,-30 349,-36 343,-36"/>
<text text-anchor="middle" x="328" y="-13.32" font-family="Helvetica,sans-Serif" font-size="14.00">(...)</text>
</g>
<!-- 7708&#45;&gt;9844 -->
<g id="edge8" class="edge">
<title>7708&#45;&gt;9844</title>
<path fill="none" stroke="black" d="M305.12,-71.75C308.86,-63.12 312.66,-54.36 316.06,-46.53"/>
<polygon fill="black" stroke="black" points="319.18,-48.13 319.95,-37.56 312.76,-45.34 319.18,-48.13"/>
</g>
<!-- 10562 -->
<g id="node11" class="node">
<title>10562</title>
<path fill="#87c4ef" stroke="black" d="M549.5,-166.25C549.5,-166.25 398.5,-166.25 398.5,-166.25 392.5,-166.25 386.5,-160.25 386.5,-154.25 386.5,-154.25 386.5,-84 386.5,-84 386.5,-78 392.5,-72 398.5,-72 398.5,-72 549.5,-72 549.5,-72 555.5,-72 561.5,-78 561.5,-84 561.5,-84 561.5,-154.25 561.5,-154.25 561.5,-160.25 555.5,-166.25 549.5,-166.25"/>
<text text-anchor="middle" x="474" y="-148.95" font-family="Helvetica,sans-Serif" font-size="14.00">18_C &lt;= 0.5</text>
<text text-anchor="middle" x="474" y="-131.7" font-family="Helvetica,sans-Serif" font-size="14.00">entropy = 0.859</text>
<text text-anchor="middle" x="474" y="-114.45" font-family="Helvetica,sans-Serif" font-size="14.00">samples = 9307</text>
<text text-anchor="middle" x="474" y="-97.2" font-family="Helvetica,sans-Serif" font-size="14.00">value = [4214, 10680]</text>
<text text-anchor="middle" x="474" y="-79.95" font-family="Helvetica,sans-Serif" font-size="14.00">class = Plant</text>
</g>
<!-- 10561&#45;&gt;10562 -->
<g id="edge10" class="edge">
<title>10561&#45;&gt;10562</title>
<path fill="none" stroke="black" d="M531.51,-202.07C525.52,-193.54 519.21,-184.54 513.05,-175.77"/>
<polygon fill="black" stroke="black" points="515.92,-173.77 507.31,-167.6 510.19,-177.79 515.92,-173.77"/>
</g>
<!-- 13973 -->
<g id="node14" class="node">
<title>13973</title>
<path fill="#f1ba93" stroke="black" d="M724.5,-166.25C724.5,-166.25 591.5,-166.25 591.5,-166.25 585.5,-166.25 579.5,-160.25 579.5,-154.25 579.5,-154.25 579.5,-84 579.5,-84 579.5,-78 585.5,-72 591.5,-72 591.5,-72 724.5,-72 724.5,-72 730.5,-72 736.5,-78 736.5,-84 736.5,-84 736.5,-154.25 736.5,-154.25 736.5,-160.25 730.5,-166.25 724.5,-166.25"/>
<text text-anchor="middle" x="658" y="-148.95" font-family="Helvetica,sans-Serif" font-size="14.00">19_C &lt;= 0.5</text>
<text text-anchor="middle" x="658" y="-131.7" font-family="Helvetica,sans-Serif" font-size="14.00">entropy = 0.896</text>
<text text-anchor="middle" x="658" y="-114.45" font-family="Helvetica,sans-Serif" font-size="14.00">samples = 1281</text>
<text text-anchor="middle" x="658" y="-97.2" font-family="Helvetica,sans-Serif" font-size="14.00">value = [1390, 632]</text>
<text text-anchor="middle" x="658" y="-79.95" font-family="Helvetica,sans-Serif" font-size="14.00">class = Animal</text>
</g>
<!-- 10561&#45;&gt;13973 -->
<g id="edge13" class="edge">
<title>10561&#45;&gt;13973</title>
<path fill="none" stroke="black" d="M597.94,-202.07C604.26,-193.45 610.92,-184.35 617.42,-175.49"/>
<polygon fill="black" stroke="black" points="620.13,-177.71 623.22,-167.58 614.48,-173.58 620.13,-177.71"/>
</g>
<!-- 10563 -->
<g id="node12" class="node">
<title>10563</title>
<path fill="#c0c0c0" stroke="black" d="M437,-36C437,-36 407,-36 407,-36 401,-36 395,-30 395,-24 395,-24 395,-12 395,-12 395,-6 401,0 407,0 407,0 437,0 437,0 443,0 449,-6 449,-12 449,-12 449,-24 449,-24 449,-30 443,-36 437,-36"/>
<text text-anchor="middle" x="422" y="-13.32" font-family="Helvetica,sans-Serif" font-size="14.00">(...)</text>
</g>
<!-- 10562&#45;&gt;10563 -->
<g id="edge11" class="edge">
<title>10562&#45;&gt;10563</title>
<path fill="none" stroke="black" d="M449.67,-71.75C445.1,-63.03 440.45,-54.16 436.3,-46.26"/>
<polygon fill="black" stroke="black" points="439.46,-44.74 431.71,-37.51 433.26,-47.99 439.46,-44.74"/>
</g>
<!-- 13288 -->
<g id="node13" class="node">
<title>13288</title>
<path fill="#c0c0c0" stroke="black" d="M509,-36C509,-36 479,-36 479,-36 473,-36 467,-30 467,-24 467,-24 467,-12 467,-12 467,-6 473,0 479,0 479,0 509,0 509,0 515,0 521,-6 521,-12 521,-12 521,-24 521,-24 521,-30 515,-36 509,-36"/>
<text text-anchor="middle" x="494" y="-13.32" font-family="Helvetica,sans-Serif" font-size="14.00">(...)</text>
</g>
<!-- 10562&#45;&gt;13288 -->
<g id="edge12" class="edge">
<title>10562&#45;&gt;13288</title>
<path fill="none" stroke="black" d="M483.36,-71.75C485.04,-63.42 486.74,-54.97 488.28,-47.34"/>
<polygon fill="black" stroke="black" points="491.69,-48.15 490.24,-37.66 484.83,-46.77 491.69,-48.15"/>
</g>
<!-- 13974 -->
<g id="node15" class="node">
<title>13974</title>
<path fill="#c0c0c0" stroke="black" d="M619,-36C619,-36 589,-36 589,-36 583,-36 577,-30 577,-24 577,-24 577,-12 577,-12 577,-6 583,0 589,0 589,0 619,0 619,0 625,0 631,-6 631,-12 631,-12 631,-24 631,-24 631,-30 625,-36 619,-36"/>
<text text-anchor="middle" x="604" y="-13.32" font-family="Helvetica,sans-Serif" font-size="14.00">(...)</text>
</g>
<!-- 13973&#45;&gt;13974 -->
<g id="edge14" class="edge">
<title>13973&#45;&gt;13974</title>
<path fill="none" stroke="black" d="M632.74,-71.75C627.98,-63.03 623.16,-54.16 618.85,-46.26"/>
<polygon fill="black" stroke="black" points="621.94,-44.61 614.08,-37.5 615.79,-47.96 621.94,-44.61"/>
</g>
<!-- 14369 -->
<g id="node16" class="node">
<title>14369</title>
<path fill="#c0c0c0" stroke="black" d="M691,-36C691,-36 661,-36 661,-36 655,-36 649,-30 649,-24 649,-24 649,-12 649,-12 649,-6 655,0 661,0 661,0 691,0 691,0 697,0 703,-6 703,-12 703,-12 703,-24 703,-24 703,-30 697,-36 691,-36"/>
<text text-anchor="middle" x="676" y="-13.32" font-family="Helvetica,sans-Serif" font-size="14.00">(...)</text>
</g>
<!-- 13973&#45;&gt;14369 -->
<g id="edge15" class="edge">
<title>13973&#45;&gt;14369</title>
<path fill="none" stroke="black" d="M666.42,-71.75C667.93,-63.42 669.47,-54.97 670.85,-47.34"/>
<polygon fill="black" stroke="black" points="674.27,-48.13 672.61,-37.66 667.38,-46.88 674.27,-48.13"/>
</g>
<!-- 14519 -->
<g id="node18" class="node">
<title>14519</title>
<path fill="#eca36e" stroke="black" d="M996,-296.5C996,-296.5 854,-296.5 854,-296.5 848,-296.5 842,-290.5 842,-284.5 842,-284.5 842,-214.25 842,-214.25 842,-208.25 848,-202.25 854,-202.25 854,-202.25 996,-202.25 996,-202.25 1002,-202.25 1008,-208.25 1008,-214.25 1008,-214.25 1008,-284.5 1008,-284.5 1008,-290.5 1002,-296.5 996,-296.5"/>
<text text-anchor="middle" x="925" y="-279.2" font-family="Helvetica,sans-Serif" font-size="14.00">18_U &lt;= 0.5</text>
<text text-anchor="middle" x="925" y="-261.95" font-family="Helvetica,sans-Serif" font-size="14.00">entropy = 0.744</text>
<text text-anchor="middle" x="925" y="-244.7" font-family="Helvetica,sans-Serif" font-size="14.00">samples = 3871</text>
<text text-anchor="middle" x="925" y="-227.45" font-family="Helvetica,sans-Serif" font-size="14.00">value = [4897, 1312]</text>
<text text-anchor="middle" x="925" y="-210.2" font-family="Helvetica,sans-Serif" font-size="14.00">class = Animal</text>
</g>
<!-- 14518&#45;&gt;14519 -->
<g id="edge17" class="edge">
<title>14518&#45;&gt;14519</title>
<path fill="none" stroke="black" d="M925,-332.32C925,-324.42 925,-316.13 925,-307.98"/>
<polygon fill="black" stroke="black" points="928.5,-308.12 925,-298.12 921.5,-308.12 928.5,-308.12"/>
</g>
<!-- 16082 -->
<g id="node25" class="node">
<title>16082</title>
<path fill="#e89152" stroke="black" d="M1259.5,-296.5C1259.5,-296.5 1126.5,-296.5 1126.5,-296.5 1120.5,-296.5 1114.5,-290.5 1114.5,-284.5 1114.5,-284.5 1114.5,-214.25 1114.5,-214.25 1114.5,-208.25 1120.5,-202.25 1126.5,-202.25 1126.5,-202.25 1259.5,-202.25 1259.5,-202.25 1265.5,-202.25 1271.5,-208.25 1271.5,-214.25 1271.5,-214.25 1271.5,-284.5 1271.5,-284.5 1271.5,-290.5 1265.5,-296.5 1259.5,-296.5"/>
<text text-anchor="middle" x="1193" y="-279.2" font-family="Helvetica,sans-Serif" font-size="14.00">24_G &lt;= 0.5</text>
<text text-anchor="middle" x="1193" y="-261.95" font-family="Helvetica,sans-Serif" font-size="14.00">entropy = 0.509</text>
<text text-anchor="middle" x="1193" y="-244.7" font-family="Helvetica,sans-Serif" font-size="14.00">samples = 1324</text>
<text text-anchor="middle" x="1193" y="-227.45" font-family="Helvetica,sans-Serif" font-size="14.00">value = [1862, 237]</text>
<text text-anchor="middle" x="1193" y="-210.2" font-family="Helvetica,sans-Serif" font-size="14.00">class = Animal</text>
</g>
<!-- 14518&#45;&gt;16082 -->
<g id="edge24" class="edge">
<title>14518&#45;&gt;16082</title>
<path fill="none" stroke="black" d="M1008.33,-338.75C1038.7,-324.21 1073.14,-307.73 1103.99,-292.97"/>
<polygon fill="black" stroke="black" points="1105.43,-296.16 1112.94,-288.69 1102.4,-289.85 1105.43,-296.16"/>
</g>
<!-- 14520 -->
<g id="node19" class="node">
<title>14520</title>
<path fill="#edaa79" stroke="black" d="M909,-166.25C909,-166.25 767,-166.25 767,-166.25 761,-166.25 755,-160.25 755,-154.25 755,-154.25 755,-84 755,-84 755,-78 761,-72 767,-72 767,-72 909,-72 909,-72 915,-72 921,-78 921,-84 921,-84 921,-154.25 921,-154.25 921,-160.25 915,-166.25 909,-166.25"/>
<text text-anchor="middle" x="838" y="-148.95" font-family="Helvetica,sans-Serif" font-size="14.00">24_G &lt;= 0.5</text>
<text text-anchor="middle" x="838" y="-131.7" font-family="Helvetica,sans-Serif" font-size="14.00">entropy = 0.803</text>
<text text-anchor="middle" x="838" y="-114.45" font-family="Helvetica,sans-Serif" font-size="14.00">samples = 2585</text>
<text text-anchor="middle" x="838" y="-97.2" font-family="Helvetica,sans-Serif" font-size="14.00">value = [3137, 1016]</text>
<text text-anchor="middle" x="838" y="-79.95" font-family="Helvetica,sans-Serif" font-size="14.00">class = Animal</text>
</g>
<!-- 14519&#45;&gt;14520 -->
<g id="edge18" class="edge">
<title>14519&#45;&gt;14520</title>
<path fill="none" stroke="black" d="M893.59,-202.07C887.8,-193.54 881.7,-184.54 875.75,-175.77"/>
<polygon fill="black" stroke="black" points="878.72,-173.92 870.21,-167.61 872.93,-177.85 878.72,-173.92"/>
</g>
<!-- 15677 -->
<g id="node22" class="node">
<title>15677</title>
<path fill="#e9965a" stroke="black" d="M1084.5,-166.25C1084.5,-166.25 951.5,-166.25 951.5,-166.25 945.5,-166.25 939.5,-160.25 939.5,-154.25 939.5,-154.25 939.5,-84 939.5,-84 939.5,-78 945.5,-72 951.5,-72 951.5,-72 1084.5,-72 1084.5,-72 1090.5,-72 1096.5,-78 1096.5,-84 1096.5,-84 1096.5,-154.25 1096.5,-154.25 1096.5,-160.25 1090.5,-166.25 1084.5,-166.25"/>
<text text-anchor="middle" x="1018" y="-148.95" font-family="Helvetica,sans-Serif" font-size="14.00">20_U &lt;= 0.5</text>
<text text-anchor="middle" x="1018" y="-131.7" font-family="Helvetica,sans-Serif" font-size="14.00">entropy = 0.595</text>
<text text-anchor="middle" x="1018" y="-114.45" font-family="Helvetica,sans-Serif" font-size="14.00">samples = 1286</text>
<text text-anchor="middle" x="1018" y="-97.2" font-family="Helvetica,sans-Serif" font-size="14.00">value = [1760, 296]</text>
<text text-anchor="middle" x="1018" y="-79.95" font-family="Helvetica,sans-Serif" font-size="14.00">class = Animal</text>
</g>
<!-- 14519&#45;&gt;15677 -->
<g id="edge21" class="edge">
<title>14519&#45;&gt;15677</title>
<path fill="none" stroke="black" d="M958.58,-202.07C964.83,-193.45 971.43,-184.35 977.85,-175.49"/>
<polygon fill="black" stroke="black" points="980.55,-177.73 983.59,-167.58 974.88,-173.62 980.55,-177.73"/>
</g>
<!-- 14521 -->
<g id="node20" class="node">
<title>14521</title>
<path fill="#c0c0c0" stroke="black" d="M799,-36C799,-36 769,-36 769,-36 763,-36 757,-30 757,-24 757,-24 757,-12 757,-12 757,-6 763,0 769,0 769,0 799,0 799,0 805,0 811,-6 811,-12 811,-12 811,-24 811,-24 811,-30 805,-36 799,-36"/>
<text text-anchor="middle" x="784" y="-13.32" font-family="Helvetica,sans-Serif" font-size="14.00">(...)</text>
</g>
<!-- 14520&#45;&gt;14521 -->
<g id="edge19" class="edge">
<title>14520&#45;&gt;14521</title>
<path fill="none" stroke="black" d="M812.74,-71.75C807.98,-63.03 803.16,-54.16 798.85,-46.26"/>
<polygon fill="black" stroke="black" points="801.94,-44.61 794.08,-37.5 795.79,-47.96 801.94,-44.61"/>
</g>
<!-- 15622 -->
<g id="node21" class="node">
<title>15622</title>
<path fill="#c0c0c0" stroke="black" d="M871,-36C871,-36 841,-36 841,-36 835,-36 829,-30 829,-24 829,-24 829,-12 829,-12 829,-6 835,0 841,0 841,0 871,0 871,0 877,0 883,-6 883,-12 883,-12 883,-24 883,-24 883,-30 877,-36 871,-36"/>
<text text-anchor="middle" x="856" y="-13.32" font-family="Helvetica,sans-Serif" font-size="14.00">(...)</text>
</g>
<!-- 14520&#45;&gt;15622 -->
<g id="edge20" class="edge">
<title>14520&#45;&gt;15622</title>
<path fill="none" stroke="black" d="M846.42,-71.75C847.93,-63.42 849.47,-54.97 850.85,-47.34"/>
<polygon fill="black" stroke="black" points="854.27,-48.13 852.61,-37.66 847.38,-46.88 854.27,-48.13"/>
</g>
<!-- 15678 -->
<g id="node23" class="node">
<title>15678</title>
<path fill="#c0c0c0" stroke="black" d="M976,-36C976,-36 946,-36 946,-36 940,-36 934,-30 934,-24 934,-24 934,-12 934,-12 934,-6 940,0 946,0 946,0 976,0 976,0 982,0 988,-6 988,-12 988,-12 988,-24 988,-24 988,-30 982,-36 976,-36"/>
<text text-anchor="middle" x="961" y="-13.32" font-family="Helvetica,sans-Serif" font-size="14.00">(...)</text>
</g>
<!-- 15677&#45;&gt;15678 -->
<g id="edge22" class="edge">
<title>15677&#45;&gt;15678</title>
<path fill="none" stroke="black" d="M991.34,-71.75C986.26,-62.93 981.1,-53.96 976.52,-45.99"/>
<polygon fill="black" stroke="black" points="979.65,-44.41 971.63,-37.48 973.58,-47.9 979.65,-44.41"/>
</g>
<!-- 16001 -->
<g id="node24" class="node">
<title>16001</title>
<path fill="#c0c0c0" stroke="black" d="M1048,-36C1048,-36 1018,-36 1018,-36 1012,-36 1006,-30 1006,-24 1006,-24 1006,-12 1006,-12 1006,-6 1012,0 1018,0 1018,0 1048,0 1048,0 1054,0 1060,-6 1060,-12 1060,-12 1060,-24 1060,-24 1060,-30 1054,-36 1048,-36"/>
<text text-anchor="middle" x="1033" y="-13.32" font-family="Helvetica,sans-Serif" font-size="14.00">(...)</text>
</g>
<!-- 15677&#45;&gt;16001 -->
<g id="edge23" class="edge">
<title>15677&#45;&gt;16001</title>
<path fill="none" stroke="black" d="M1025.02,-71.75C1026.28,-63.42 1027.56,-54.97 1028.71,-47.34"/>
<polygon fill="black" stroke="black" points="1032.14,-48.08 1030.17,-37.67 1025.22,-47.03 1032.14,-48.08"/>
</g>
<!-- 16083 -->
<g id="node26" class="node">
<title>16083</title>
<path fill="#e89050" stroke="black" d="M1259.5,-166.25C1259.5,-166.25 1126.5,-166.25 1126.5,-166.25 1120.5,-166.25 1114.5,-160.25 1114.5,-154.25 1114.5,-154.25 1114.5,-84 1114.5,-84 1114.5,-78 1120.5,-72 1126.5,-72 1126.5,-72 1259.5,-72 1259.5,-72 1265.5,-72 1271.5,-78 1271.5,-84 1271.5,-84 1271.5,-154.25 1271.5,-154.25 1271.5,-160.25 1265.5,-166.25 1259.5,-166.25"/>
<text text-anchor="middle" x="1193" y="-148.95" font-family="Helvetica,sans-Serif" font-size="14.00">21_C &lt;= 0.5</text>
<text text-anchor="middle" x="1193" y="-131.7" font-family="Helvetica,sans-Serif" font-size="14.00">entropy = 0.487</text>
<text text-anchor="middle" x="1193" y="-114.45" font-family="Helvetica,sans-Serif" font-size="14.00">samples = 1275</text>
<text text-anchor="middle" x="1193" y="-97.2" font-family="Helvetica,sans-Serif" font-size="14.00">value = [1811, 214]</text>
<text text-anchor="middle" x="1193" y="-79.95" font-family="Helvetica,sans-Serif" font-size="14.00">class = Animal</text>
</g>
<!-- 16082&#45;&gt;16083 -->
<g id="edge25" class="edge">
<title>16082&#45;&gt;16083</title>
<path fill="none" stroke="black" d="M1193,-202.07C1193,-194.17 1193,-185.88 1193,-177.73"/>
<polygon fill="black" stroke="black" points="1196.5,-177.87 1193,-167.87 1189.5,-177.87 1196.5,-177.87"/>
</g>
<!-- 16488 -->
<g id="node29" class="node">
<title>16488</title>
<path fill="#f1ba92" stroke="black" d="M1408.38,-166.25C1408.38,-166.25 1301.62,-166.25 1301.62,-166.25 1295.62,-166.25 1289.62,-160.25 1289.62,-154.25 1289.62,-154.25 1289.62,-84 1289.62,-84 1289.62,-78 1295.62,-72 1301.62,-72 1301.62,-72 1408.38,-72 1408.38,-72 1414.38,-72 1420.38,-78 1420.38,-84 1420.38,-84 1420.38,-154.25 1420.38,-154.25 1420.38,-160.25 1414.38,-166.25 1408.38,-166.25"/>
<text text-anchor="middle" x="1355" y="-148.95" font-family="Helvetica,sans-Serif" font-size="14.00">23_G &lt;= 0.5</text>
<text text-anchor="middle" x="1355" y="-131.7" font-family="Helvetica,sans-Serif" font-size="14.00">entropy = 0.894</text>
<text text-anchor="middle" x="1355" y="-114.45" font-family="Helvetica,sans-Serif" font-size="14.00">samples = 49</text>
<text text-anchor="middle" x="1355" y="-97.2" font-family="Helvetica,sans-Serif" font-size="14.00">value = [51, 23]</text>
<text text-anchor="middle" x="1355" y="-79.95" font-family="Helvetica,sans-Serif" font-size="14.00">class = Animal</text>
</g>
<!-- 16082&#45;&gt;16488 -->
<g id="edge28" class="edge">
<title>16082&#45;&gt;16488</title>
<path fill="none" stroke="black" d="M1251.49,-202.07C1263.11,-192.87 1275.41,-183.13 1287.32,-173.71"/>
<polygon fill="black" stroke="black" points="1289.47,-176.46 1295.14,-167.51 1285.13,-170.98 1289.47,-176.46"/>
</g>
<!-- 16084 -->
<g id="node27" class="node">
<title>16084</title>
<path fill="#c0c0c0" stroke="black" d="M1163,-36C1163,-36 1133,-36 1133,-36 1127,-36 1121,-30 1121,-24 1121,-24 1121,-12 1121,-12 1121,-6 1127,0 1133,0 1133,0 1163,0 1163,0 1169,0 1175,-6 1175,-12 1175,-12 1175,-24 1175,-24 1175,-30 1169,-36 1163,-36"/>
<text text-anchor="middle" x="1148" y="-13.32" font-family="Helvetica,sans-Serif" font-size="14.00">(...)</text>
</g>
<!-- 16083&#45;&gt;16084 -->
<g id="edge26" class="edge">
<title>16083&#45;&gt;16084</title>
<path fill="none" stroke="black" d="M1171.95,-71.75C1168.03,-63.12 1164.05,-54.36 1160.5,-46.53"/>
<polygon fill="black" stroke="black" points="1163.74,-45.21 1156.42,-37.55 1157.37,-48.1 1163.74,-45.21"/>
</g>
<!-- 16379 -->
<g id="node28" class="node">
<title>16379</title>
<path fill="#c0c0c0" stroke="black" d="M1235,-36C1235,-36 1205,-36 1205,-36 1199,-36 1193,-30 1193,-24 1193,-24 1193,-12 1193,-12 1193,-6 1199,0 1205,0 1205,0 1235,0 1235,0 1241,0 1247,-6 1247,-12 1247,-12 1247,-24 1247,-24 1247,-30 1241,-36 1235,-36"/>
<text text-anchor="middle" x="1220" y="-13.32" font-family="Helvetica,sans-Serif" font-size="14.00">(...)</text>
</g>
<!-- 16083&#45;&gt;16379 -->
<g id="edge27" class="edge">
<title>16083&#45;&gt;16379</title>
<path fill="none" stroke="black" d="M1205.63,-71.75C1207.93,-63.32 1210.26,-54.77 1212.35,-47.07"/>
<polygon fill="black" stroke="black" points="1215.67,-48.2 1214.92,-37.63 1208.92,-46.36 1215.67,-48.2"/>
</g>
<!-- 16489 -->
<g id="node30" class="node">
<title>16489</title>
<path fill="#c0c0c0" stroke="black" d="M1334,-36C1334,-36 1304,-36 1304,-36 1298,-36 1292,-30 1292,-24 1292,-24 1292,-12 1292,-12 1292,-6 1298,0 1304,0 1304,0 1334,0 1334,0 1340,0 1346,-6 1346,-12 1346,-12 1346,-24 1346,-24 1346,-30 1340,-36 1334,-36"/>
<text text-anchor="middle" x="1319" y="-13.32" font-family="Helvetica,sans-Serif" font-size="14.00">(...)</text>
</g>
<!-- 16488&#45;&gt;16489 -->
<g id="edge29" class="edge">
<title>16488&#45;&gt;16489</title>
<path fill="none" stroke="black" d="M1338.16,-71.75C1335.06,-63.22 1331.92,-54.57 1329.1,-46.8"/>
<polygon fill="black" stroke="black" points="1332.46,-45.8 1325.75,-37.6 1325.88,-48.19 1332.46,-45.8"/>
</g>
<!-- 16506 -->
<g id="node31" class="node">
<title>16506</title>
<path fill="#c0c0c0" stroke="black" d="M1406,-36C1406,-36 1376,-36 1376,-36 1370,-36 1364,-30 1364,-24 1364,-24 1364,-12 1364,-12 1364,-6 1370,0 1376,0 1376,0 1406,0 1406,0 1412,0 1418,-6 1418,-12 1418,-12 1418,-24 1418,-24 1418,-30 1412,-36 1406,-36"/>
<text text-anchor="middle" x="1391" y="-13.32" font-family="Helvetica,sans-Serif" font-size="14.00">(...)</text>
</g>
<!-- 16488&#45;&gt;16506 -->
<g id="edge30" class="edge">
<title>16488&#45;&gt;16506</title>
<path fill="none" stroke="black" d="M1371.84,-71.75C1374.94,-63.22 1378.08,-54.57 1380.9,-46.8"/>
<polygon fill="black" stroke="black" points="1384.12,-48.19 1384.25,-37.6 1377.54,-45.8 1384.12,-48.19"/>
</g>
</g>
</svg>
