<?xml version="1.0" encoding="UTF-8" standalone="no"?>
<!DOCTYPE svg PUBLIC "-//W3C//DTD SVG 1.1//EN"
 "http://www.w3.org/Graphics/SVG/1.1/DTD/svg11.dtd">
<!-- Generated by graphviz version 12.0.0 (20240803.0821)
 -->
<!-- Title: Tree Pages: 1 -->
<svg width="1428pt" height="565pt"
 viewBox="0.00 0.00 1427.50 565.00" xmlns="http://www.w3.org/2000/svg" xmlns:xlink="http://www.w3.org/1999/xlink">
<g id="graph0" class="graph" transform="scale(1 1) rotate(0) translate(4 561)">
<title>Tree</title>
<polygon fill="white" stroke="none" points="-4,4 -4,-561 1423.5,-561 1423.5,4 -4,4"/>
<!-- 0 -->
<g id="node1" class="node">
<title>0</title>
<path fill="#fefeff" stroke="black" d="M791,-557C791,-557 631,-557 631,-557 625,-557 619,-551 619,-545 619,-545 619,-474.75 619,-474.75 619,-468.75 625,-462.75 631,-462.75 631,-462.75 791,-462.75 791,-462.75 797,-462.75 803,-468.75 803,-474.75 803,-474.75 803,-545 803,-545 803,-551 797,-557 791,-557"/>
<text text-anchor="middle" x="711" y="-539.7" font-family="Helvetica,sans-Serif" font-size="14.00">19_C &lt;= 0.5</text>
<text text-anchor="middle" x="711" y="-522.45" font-family="Helvetica,sans-Serif" font-size="14.00">entropy = 1.0</text>
<text text-anchor="middle" x="711" y="-505.2" font-family="Helvetica,sans-Serif" font-size="14.00">samples = 38032</text>
<text text-anchor="middle" x="711" y="-487.95" font-family="Helvetica,sans-Serif" font-size="14.00">value = [30094, 30251]</text>
<text text-anchor="middle" x="711" y="-470.7" font-family="Helvetica,sans-Serif" font-size="14.00">class = Plant</text>
</g>
<!-- 1 -->
<g id="node2" class="node">
<title>1</title>
<path fill="#f9e1cf" stroke="black" d="M616,-426.75C616,-426.75 456,-426.75 456,-426.75 450,-426.75 444,-420.75 444,-414.75 444,-414.75 444,-344.5 444,-344.5 444,-338.5 450,-332.5 456,-332.5 456,-332.5 616,-332.5 616,-332.5 622,-332.5 628,-338.5 628,-344.5 628,-344.5 628,-414.75 628,-414.75 628,-420.75 622,-426.75 616,-426.75"/>
<text text-anchor="middle" x="536" y="-409.45" font-family="Helvetica,sans-Serif" font-size="14.00">8_G &lt;= 0.5</text>
<text text-anchor="middle" x="536" y="-392.2" font-family="Helvetica,sans-Serif" font-size="14.00">entropy = 0.986</text>
<text text-anchor="middle" x="536" y="-374.95" font-family="Helvetica,sans-Serif" font-size="14.00">samples = 25795</text>
<text text-anchor="middle" x="536" y="-357.7" font-family="Helvetica,sans-Serif" font-size="14.00">value = [23248, 17660]</text>
<text text-anchor="middle" x="536" y="-340.45" font-family="Helvetica,sans-Serif" font-size="14.00">class = Animal</text>
</g>
<!-- 0&#45;&gt;1 -->
<g id="edge1" class="edge">
<title>0&#45;&gt;1</title>
<path fill="none" stroke="black" d="M647.82,-462.57C635.01,-453.19 621.45,-443.25 608.36,-433.65"/>
<polygon fill="black" stroke="black" points="610.74,-431.06 600.6,-427.97 606.6,-436.7 610.74,-431.06"/>
<text text-anchor="middle" x="603.19" y="-447.11" font-family="Helvetica,sans-Serif" font-size="14.00">True</text>
</g>
<!-- 12638 -->
<g id="node17" class="node">
<title>12638</title>
<path fill="#a5d2f3" stroke="black" d="M978.5,-426.75C978.5,-426.75 827.5,-426.75 827.5,-426.75 821.5,-426.75 815.5,-420.75 815.5,-414.75 815.5,-414.75 815.5,-344.5 815.5,-344.5 815.5,-338.5 821.5,-332.5 827.5,-332.5 827.5,-332.5 978.5,-332.5 978.5,-332.5 984.5,-332.5 990.5,-338.5 990.5,-344.5 990.5,-344.5 990.5,-414.75 990.5,-414.75 990.5,-420.75 984.5,-426.75 978.5,-426.75"/>
<text text-anchor="middle" x="903" y="-409.45" font-family="Helvetica,sans-Serif" font-size="14.00">10_A &lt;= 0.5</text>
<text text-anchor="middle" x="903" y="-392.2" font-family="Helvetica,sans-Serif" font-size="14.00">entropy = 0.936</text>
<text text-anchor="middle" x="903" y="-374.95" font-family="Helvetica,sans-Serif" font-size="14.00">samples = 12237</text>
<text text-anchor="middle" x="903" y="-357.7" font-family="Helvetica,sans-Serif" font-size="14.00">value = [6846, 12591]</text>
<text text-anchor="middle" x="903" y="-340.45" font-family="Helvetica,sans-Serif" font-size="14.00">class = Plant</text>
</g>
<!-- 0&#45;&gt;12638 -->
<g id="edge16" class="edge">
<title>0&#45;&gt;12638</title>
<path fill="none" stroke="black" d="M780.59,-462.39C794.67,-452.98 809.58,-443.03 823.97,-433.42"/>
<polygon fill="black" stroke="black" points="825.7,-436.47 832.07,-428 821.81,-430.65 825.7,-436.47"/>
<text text-anchor="middle" x="828.45" y="-447.01" font-family="Helvetica,sans-Serif" font-size="14.00">False</text>
</g>
<!-- 2 -->
<g id="node3" class="node">
<title>2</title>
<path fill="#f6d2b9" stroke="black" d="M347,-296.5C347,-296.5 187,-296.5 187,-296.5 181,-296.5 175,-290.5 175,-284.5 175,-284.5 175,-214.25 175,-214.25 175,-208.25 181,-202.25 187,-202.25 187,-202.25 347,-202.25 347,-202.25 353,-202.25 359,-208.25 359,-214.25 359,-214.25 359,-284.5 359,-284.5 359,-290.5 353,-296.5 347,-296.5"/>
<text text-anchor="middle" x="267" y="-279.2" font-family="Helvetica,sans-Serif" font-size="14.00">1_U &lt;= 0.5</text>
<text text-anchor="middle" x="267" y="-261.95" font-family="Helvetica,sans-Serif" font-size="14.00">entropy = 0.966</text>
<text text-anchor="middle" x="267" y="-244.7" font-family="Helvetica,sans-Serif" font-size="14.00">samples = 18117</text>
<text text-anchor="middle" x="267" y="-227.45" font-family="Helvetica,sans-Serif" font-size="14.00">value = [17514, 11290]</text>
<text text-anchor="middle" x="267" y="-210.2" font-family="Helvetica,sans-Serif" font-size="14.00">class = Animal</text>
</g>
<!-- 1&#45;&gt;2 -->
<g id="edge2" class="edge">
<title>1&#45;&gt;2</title>
<path fill="none" stroke="black" d="M443.8,-334.67C419.85,-323.25 393.9,-310.88 369.45,-299.22"/>
<polygon fill="black" stroke="black" points="370.98,-296.07 360.44,-294.93 367.96,-302.39 370.98,-296.07"/>
</g>
<!-- 9109 -->
<g id="node10" class="node">
<title>9109</title>
<path fill="#ebf5fc" stroke="black" d="M607,-296.5C607,-296.5 465,-296.5 465,-296.5 459,-296.5 453,-290.5 453,-284.5 453,-284.5 453,-214.25 453,-214.25 453,-208.25 459,-202.25 465,-202.25 465,-202.25 607,-202.25 607,-202.25 613,-202.25 619,-208.25 619,-214.25 619,-214.25 619,-284.5 619,-284.5 619,-290.5 613,-296.5 607,-296.5"/>
<text text-anchor="middle" x="536" y="-279.2" font-family="Helvetica,sans-Serif" font-size="14.00">1_C &lt;= 0.5</text>
<text text-anchor="middle" x="536" y="-261.95" font-family="Helvetica,sans-Serif" font-size="14.00">entropy = 0.998</text>
<text text-anchor="middle" x="536" y="-244.7" font-family="Helvetica,sans-Serif" font-size="14.00">samples = 7678</text>
<text text-anchor="middle" x="536" y="-227.45" font-family="Helvetica,sans-Serif" font-size="14.00">value = [5734, 6370]</text>
<text text-anchor="middle" x="536" y="-210.2" font-family="Helvetica,sans-Serif" font-size="14.00">class = Plant</text>
</g>
<!-- 1&#45;&gt;9109 -->
<g id="edge9" class="edge">
<title>1&#45;&gt;9109</title>
<path fill="none" stroke="black" d="M536,-332.32C536,-324.42 536,-316.13 536,-307.98"/>
<polygon fill="black" stroke="black" points="539.5,-308.12 536,-298.12 532.5,-308.12 539.5,-308.12"/>
</g>
<!-- 3 -->
<g id="node4" class="node">
<title>3</title>
<path fill="#f3c6a5" stroke="black" d="M154,-166.25C154,-166.25 12,-166.25 12,-166.25 6,-166.25 0,-160.25 0,-154.25 0,-154.25 0,-84 0,-84 0,-78 6,-72 12,-72 12,-72 154,-72 154,-72 160,-72 166,-78 166,-84 166,-84 166,-154.25 166,-154.25 166,-160.25 160,-166.25 154,-166.25"/>
<text text-anchor="middle" x="83" y="-148.95" font-family="Helvetica,sans-Serif" font-size="14.00">19_G &lt;= 0.5</text>
<text text-anchor="middle" x="83" y="-131.7" font-family="Helvetica,sans-Serif" font-size="14.00">entropy = 0.936</text>
<text text-anchor="middle" x="83" y="-114.45" font-family="Helvetica,sans-Serif" font-size="14.00">samples = 9284</text>
<text text-anchor="middle" x="83" y="-97.2" font-family="Helvetica,sans-Serif" font-size="14.00">value = [9519, 5180]</text>
<text text-anchor="middle" x="83" y="-79.95" font-family="Helvetica,sans-Serif" font-size="14.00">class = Animal</text>
</g>
<!-- 2&#45;&gt;3 -->
<g id="edge3" class="edge">
<title>2&#45;&gt;3</title>
<path fill="none" stroke="black" d="M200.31,-201.89C186.94,-192.57 172.8,-182.72 159.14,-173.19"/>
<polygon fill="black" stroke="black" points="161.22,-170.38 151.01,-167.53 157.21,-176.12 161.22,-170.38"/>
</g>
<!-- 5142 -->
<g id="node7" class="node">
<title>5142</title>
<path fill="#f9e1d0" stroke="black" d="M338,-166.25C338,-166.25 196,-166.25 196,-166.25 190,-166.25 184,-160.25 184,-154.25 184,-154.25 184,-84 184,-84 184,-78 190,-72 196,-72 196,-72 338,-72 338,-72 344,-72 350,-78 350,-84 350,-84 350,-154.25 350,-154.25 350,-160.25 344,-166.25 338,-166.25"/>
<text text-anchor="middle" x="267" y="-148.95" font-family="Helvetica,sans-Serif" font-size="14.00">2_U &lt;= 0.5</text>
<text text-anchor="middle" x="267" y="-131.7" font-family="Helvetica,sans-Serif" font-size="14.00">entropy = 0.987</text>
<text text-anchor="middle" x="267" y="-114.45" font-family="Helvetica,sans-Serif" font-size="14.00">samples = 8833</text>
<text text-anchor="middle" x="267" y="-97.2" font-family="Helvetica,sans-Serif" font-size="14.00">value = [7995, 6110]</text>
<text text-anchor="middle" x="267" y="-79.95" font-family="Helvetica,sans-Serif" font-size="14.00">class = Animal</text>
</g>
<!-- 2&#45;&gt;5142 -->
<g id="edge6" class="edge">
<title>2&#45;&gt;5142</title>
<path fill="none" stroke="black" d="M267,-202.07C267,-194.17 267,-185.88 267,-177.73"/>
<polygon fill="black" stroke="black" points="270.5,-177.87 267,-167.87 263.5,-177.87 270.5,-177.87"/>
</g>
<!-- 4 -->
<g id="node5" class="node">
<title>4</title>
<path fill="#c0c0c0" stroke="black" d="M62,-36C62,-36 32,-36 32,-36 26,-36 20,-30 20,-24 20,-24 20,-12 20,-12 20,-6 26,0 32,0 32,0 62,0 62,0 68,0 74,-6 74,-12 74,-12 74,-24 74,-24 74,-30 68,-36 62,-36"/>
<text text-anchor="middle" x="47" y="-13.32" font-family="Helvetica,sans-Serif" font-size="14.00">(...)</text>
</g>
<!-- 3&#45;&gt;4 -->
<g id="edge4" class="edge">
<title>3&#45;&gt;4</title>
<path fill="none" stroke="black" d="M66.16,-71.75C63.06,-63.22 59.92,-54.57 57.1,-46.8"/>
<polygon fill="black" stroke="black" points="60.46,-45.8 53.75,-37.6 53.88,-48.19 60.46,-45.8"/>
</g>
<!-- 3313 -->
<g id="node6" class="node">
<title>3313</title>
<path fill="#c0c0c0" stroke="black" d="M134,-36C134,-36 104,-36 104,-36 98,-36 92,-30 92,-24 92,-24 92,-12 92,-12 92,-6 98,0 104,0 104,0 134,0 134,0 140,0 146,-6 146,-12 146,-12 146,-24 146,-24 146,-30 140,-36 134,-36"/>
<text text-anchor="middle" x="119" y="-13.32" font-family="Helvetica,sans-Serif" font-size="14.00">(...)</text>
</g>
<!-- 3&#45;&gt;3313 -->
<g id="edge5" class="edge">
<title>3&#45;&gt;3313</title>
<path fill="none" stroke="black" d="M99.84,-71.75C102.94,-63.22 106.08,-54.57 108.9,-46.8"/>
<polygon fill="black" stroke="black" points="112.12,-48.19 112.25,-37.6 105.54,-45.8 112.12,-48.19"/>
</g>
<!-- 5143 -->
<g id="node8" class="node">
<title>5143</title>
<path fill="#c0c0c0" stroke="black" d="M248,-36C248,-36 218,-36 218,-36 212,-36 206,-30 206,-24 206,-24 206,-12 206,-12 206,-6 212,0 218,0 218,0 248,0 248,0 254,0 260,-6 260,-12 260,-12 260,-24 260,-24 260,-30 254,-36 248,-36"/>
<text text-anchor="middle" x="233" y="-13.32" font-family="Helvetica,sans-Serif" font-size="14.00">(...)</text>
</g>
<!-- 5142&#45;&gt;5143 -->
<g id="edge7" class="edge">
<title>5142&#45;&gt;5143</title>
<path fill="none" stroke="black" d="M251.1,-71.75C248.17,-63.22 245.2,-54.57 242.53,-46.8"/>
<polygon fill="black" stroke="black" points="245.94,-45.93 239.38,-37.6 239.32,-48.2 245.94,-45.93"/>
</g>
<!-- 8102 -->
<g id="node9" class="node">
<title>8102</title>
<path fill="#c0c0c0" stroke="black" d="M320,-36C320,-36 290,-36 290,-36 284,-36 278,-30 278,-24 278,-24 278,-12 278,-12 278,-6 284,0 290,0 290,0 320,0 320,0 326,0 332,-6 332,-12 332,-12 332,-24 332,-24 332,-30 326,-36 320,-36"/>
<text text-anchor="middle" x="305" y="-13.32" font-family="Helvetica,sans-Serif" font-size="14.00">(...)</text>
</g>
<!-- 5142&#45;&gt;8102 -->
<g id="edge8" class="edge">
<title>5142&#45;&gt;8102</title>
<path fill="none" stroke="black" d="M284.78,-71.75C288.05,-63.22 291.37,-54.57 294.34,-46.8"/>
<polygon fill="black" stroke="black" points="297.56,-48.18 297.88,-37.59 291.03,-45.67 297.56,-48.18"/>
</g>
<!-- 9110 -->
<g id="node11" class="node">
<title>9110</title>
<path fill="#d9ecfa" stroke="black" d="M522,-166.25C522,-166.25 380,-166.25 380,-166.25 374,-166.25 368,-160.25 368,-154.25 368,-154.25 368,-84 368,-84 368,-78 374,-72 380,-72 380,-72 522,-72 522,-72 528,-72 534,-78 534,-84 534,-84 534,-154.25 534,-154.25 534,-160.25 528,-166.25 522,-166.25"/>
<text text-anchor="middle" x="451" y="-148.95" font-family="Helvetica,sans-Serif" font-size="14.00">21_G &lt;= 0.5</text>
<text text-anchor="middle" x="451" y="-131.7" font-family="Helvetica,sans-Serif" font-size="14.00">entropy = 0.992</text>
<text text-anchor="middle" x="451" y="-114.45" font-family="Helvetica,sans-Serif" font-size="14.00">samples = 6648</text>
<text text-anchor="middle" x="451" y="-97.2" font-family="Helvetica,sans-Serif" font-size="14.00">value = [4679, 5787]</text>
<text text-anchor="middle" x="451" y="-79.95" font-family="Helvetica,sans-Serif" font-size="14.00">class = Plant</text>
</g>
<!-- 9109&#45;&gt;9110 -->
<g id="edge10" class="edge">
<title>9109&#45;&gt;9110</title>
<path fill="none" stroke="black" d="M505.31,-202.07C499.66,-193.54 493.7,-184.54 487.88,-175.77"/>
<polygon fill="black" stroke="black" points="490.92,-174.02 482.48,-167.62 485.09,-177.89 490.92,-174.02"/>
</g>
<!-- 12003 -->
<g id="node14" class="node">
<title>12003</title>
<path fill="#f3c7a6" stroke="black" d="M697.5,-166.25C697.5,-166.25 564.5,-166.25 564.5,-166.25 558.5,-166.25 552.5,-160.25 552.5,-154.25 552.5,-154.25 552.5,-84 552.5,-84 552.5,-78 558.5,-72 564.5,-72 564.5,-72 697.5,-72 697.5,-72 703.5,-72 709.5,-78 709.5,-84 709.5,-84 709.5,-154.25 709.5,-154.25 709.5,-160.25 703.5,-166.25 697.5,-166.25"/>
<text text-anchor="middle" x="631" y="-148.95" font-family="Helvetica,sans-Serif" font-size="14.00">4_G &lt;= 0.5</text>
<text text-anchor="middle" x="631" y="-131.7" font-family="Helvetica,sans-Serif" font-size="14.00">entropy = 0.939</text>
<text text-anchor="middle" x="631" y="-114.45" font-family="Helvetica,sans-Serif" font-size="14.00">samples = 1030</text>
<text text-anchor="middle" x="631" y="-97.2" font-family="Helvetica,sans-Serif" font-size="14.00">value = [1055, 583]</text>
<text text-anchor="middle" x="631" y="-79.95" font-family="Helvetica,sans-Serif" font-size="14.00">class = Animal</text>
</g>
<!-- 9109&#45;&gt;12003 -->
<g id="edge13" class="edge">
<title>9109&#45;&gt;12003</title>
<path fill="none" stroke="black" d="M570.3,-202.07C576.69,-193.45 583.42,-184.35 589.99,-175.49"/>
<polygon fill="black" stroke="black" points="592.71,-177.69 595.85,-167.57 587.09,-173.53 592.71,-177.69"/>
</g>
<!-- 9111 -->
<g id="node12" class="node">
<title>9111</title>
<path fill="#c0c0c0" stroke="black" d="M412,-36C412,-36 382,-36 382,-36 376,-36 370,-30 370,-24 370,-24 370,-12 370,-12 370,-6 376,0 382,0 382,0 412,0 412,0 418,0 424,-6 424,-12 424,-12 424,-24 424,-24 424,-30 418,-36 412,-36"/>
<text text-anchor="middle" x="397" y="-13.32" font-family="Helvetica,sans-Serif" font-size="14.00">(...)</text>
</g>
<!-- 9110&#45;&gt;9111 -->
<g id="edge11" class="edge">
<title>9110&#45;&gt;9111</title>
<path fill="none" stroke="black" d="M425.74,-71.75C420.98,-63.03 416.16,-54.16 411.85,-46.26"/>
<polygon fill="black" stroke="black" points="414.94,-44.61 407.08,-37.5 408.79,-47.96 414.94,-44.61"/>
</g>
<!-- 11410 -->
<g id="node13" class="node">
<title>11410</title>
<path fill="#c0c0c0" stroke="black" d="M484,-36C484,-36 454,-36 454,-36 448,-36 442,-30 442,-24 442,-24 442,-12 442,-12 442,-6 448,0 454,0 454,0 484,0 484,0 490,0 496,-6 496,-12 496,-12 496,-24 496,-24 496,-30 490,-36 484,-36"/>
<text text-anchor="middle" x="469" y="-13.32" font-family="Helvetica,sans-Serif" font-size="14.00">(...)</text>
</g>
<!-- 9110&#45;&gt;11410 -->
<g id="edge12" class="edge">
<title>9110&#45;&gt;11410</title>
<path fill="none" stroke="black" d="M459.42,-71.75C460.93,-63.42 462.47,-54.97 463.85,-47.34"/>
<polygon fill="black" stroke="black" points="467.27,-48.13 465.61,-37.66 460.38,-46.88 467.27,-48.13"/>
</g>
<!-- 12004 -->
<g id="node15" class="node">
<title>12004</title>
<path fill="#c0c0c0" stroke="black" d="M592,-36C592,-36 562,-36 562,-36 556,-36 550,-30 550,-24 550,-24 550,-12 550,-12 550,-6 556,0 562,0 562,0 592,0 592,0 598,0 604,-6 604,-12 604,-12 604,-24 604,-24 604,-30 598,-36 592,-36"/>
<text text-anchor="middle" x="577" y="-13.32" font-family="Helvetica,sans-Serif" font-size="14.00">(...)</text>
</g>
<!-- 12003&#45;&gt;12004 -->
<g id="edge14" class="edge">
<title>12003&#45;&gt;12004</title>
<path fill="none" stroke="black" d="M605.74,-71.75C600.98,-63.03 596.16,-54.16 591.85,-46.26"/>
<polygon fill="black" stroke="black" points="594.94,-44.61 587.08,-37.5 588.79,-47.96 594.94,-44.61"/>
</g>
<!-- 12483 -->
<g id="node16" class="node">
<title>12483</title>
<path fill="#c0c0c0" stroke="black" d="M664,-36C664,-36 634,-36 634,-36 628,-36 622,-30 622,-24 622,-24 622,-12 622,-12 622,-6 628,0 634,0 634,0 664,0 664,0 670,0 676,-6 676,-12 676,-12 676,-24 676,-24 676,-30 670,-36 664,-36"/>
<text text-anchor="middle" x="649" y="-13.32" font-family="Helvetica,sans-Serif" font-size="14.00">(...)</text>
</g>
<!-- 12003&#45;&gt;12483 -->
<g id="edge15" class="edge">
<title>12003&#45;&gt;12483</title>
<path fill="none" stroke="black" d="M639.42,-71.75C640.93,-63.42 642.47,-54.97 643.85,-47.34"/>
<polygon fill="black" stroke="black" points="647.27,-48.13 645.61,-37.66 640.38,-46.88 647.27,-48.13"/>
</g>
<!-- 12639 -->
<g id="node18" class="node">
<title>12639</title>
<path fill="#b8dcf6" stroke="black" d="M974,-296.5C974,-296.5 832,-296.5 832,-296.5 826,-296.5 820,-290.5 820,-284.5 820,-284.5 820,-214.25 820,-214.25 820,-208.25 826,-202.25 832,-202.25 832,-202.25 974,-202.25 974,-202.25 980,-202.25 986,-208.25 986,-214.25 986,-214.25 986,-284.5 986,-284.5 986,-290.5 980,-296.5 974,-296.5"/>
<text text-anchor="middle" x="903" y="-279.2" font-family="Helvetica,sans-Serif" font-size="14.00">8_G &lt;= 0.5</text>
<text text-anchor="middle" x="903" y="-261.95" font-family="Helvetica,sans-Serif" font-size="14.00">entropy = 0.965</text>
<text text-anchor="middle" x="903" y="-244.7" font-family="Helvetica,sans-Serif" font-size="14.00">samples = 8689</text>
<text text-anchor="middle" x="903" y="-227.45" font-family="Helvetica,sans-Serif" font-size="14.00">value = [5390, 8416]</text>
<text text-anchor="middle" x="903" y="-210.2" font-family="Helvetica,sans-Serif" font-size="14.00">class = Plant</text>
</g>
<!-- 12638&#45;&gt;12639 -->
<g id="edge17" class="edge">
<title>12638&#45;&gt;12639</title>
<path fill="none" stroke="black" d="M903,-332.32C903,-324.42 903,-316.13 903,-307.98"/>
<polygon fill="black" stroke="black" points="906.5,-308.12 903,-298.12 899.5,-308.12 906.5,-308.12"/>
</g>
<!-- 15852 -->
<g id="node25" class="node">
<title>15852</title>
<path fill="#7ebfee" stroke="black" d="M1250,-296.5C1250,-296.5 1108,-296.5 1108,-296.5 1102,-296.5 1096,-290.5 1096,-284.5 1096,-284.5 1096,-214.25 1096,-214.25 1096,-208.25 1102,-202.25 1108,-202.25 1108,-202.25 1250,-202.25 1250,-202.25 1256,-202.25 1262,-208.25 1262,-214.25 1262,-214.25 1262,-284.5 1262,-284.5 1262,-290.5 1256,-296.5 1250,-296.5"/>
<text text-anchor="middle" x="1179" y="-279.2" font-family="Helvetica,sans-Serif" font-size="14.00">22_U &lt;= 0.5</text>
<text text-anchor="middle" x="1179" y="-261.95" font-family="Helvetica,sans-Serif" font-size="14.00">entropy = 0.825</text>
<text text-anchor="middle" x="1179" y="-244.7" font-family="Helvetica,sans-Serif" font-size="14.00">samples = 3548</text>
<text text-anchor="middle" x="1179" y="-227.45" font-family="Helvetica,sans-Serif" font-size="14.00">value = [1456, 4175]</text>
<text text-anchor="middle" x="1179" y="-210.2" font-family="Helvetica,sans-Serif" font-size="14.00">class = Plant</text>
</g>
<!-- 12638&#45;&gt;15852 -->
<g id="edge24" class="edge">
<title>12638&#45;&gt;15852</title>
<path fill="none" stroke="black" d="M990.71,-337.87C1020.91,-323.83 1054.84,-308.07 1085.5,-293.82"/>
<polygon fill="black" stroke="black" points="1086.79,-297.08 1094.38,-289.69 1083.84,-290.73 1086.79,-297.08"/>
</g>
<!-- 12640 -->
<g id="node19" class="node">
<title>12640</title>
<path fill="#d2e9f9" stroke="black" d="M882,-166.25C882,-166.25 740,-166.25 740,-166.25 734,-166.25 728,-160.25 728,-154.25 728,-154.25 728,-84 728,-84 728,-78 734,-72 740,-72 740,-72 882,-72 882,-72 888,-72 894,-78 894,-84 894,-84 894,-154.25 894,-154.25 894,-160.25 888,-166.25 882,-166.25"/>
<text text-anchor="middle" x="811" y="-148.95" font-family="Helvetica,sans-Serif" font-size="14.00">8_A &lt;= 0.5</text>
<text text-anchor="middle" x="811" y="-131.7" font-family="Helvetica,sans-Serif" font-size="14.00">entropy = 0.988</text>
<text text-anchor="middle" x="811" y="-114.45" font-family="Helvetica,sans-Serif" font-size="14.00">samples = 6166</text>
<text text-anchor="middle" x="811" y="-97.2" font-family="Helvetica,sans-Serif" font-size="14.00">value = [4270, 5535]</text>
<text text-anchor="middle" x="811" y="-79.95" font-family="Helvetica,sans-Serif" font-size="14.00">class = Plant</text>
</g>
<!-- 12639&#45;&gt;12640 -->
<g id="edge18" class="edge">
<title>12639&#45;&gt;12640</title>
<path fill="none" stroke="black" d="M869.79,-202.07C863.6,-193.45 857.07,-184.35 850.71,-175.49"/>
<polygon fill="black" stroke="black" points="853.72,-173.67 845.05,-167.59 848.03,-177.75 853.72,-173.67"/>
</g>
<!-- 15011 -->
<g id="node22" class="node">
<title>15011</title>
<path fill="#86c3ef" stroke="black" d="M1066,-166.25C1066,-166.25 924,-166.25 924,-166.25 918,-166.25 912,-160.25 912,-154.25 912,-154.25 912,-84 912,-84 912,-78 918,-72 924,-72 924,-72 1066,-72 1066,-72 1072,-72 1078,-78 1078,-84 1078,-84 1078,-154.25 1078,-154.25 1078,-160.25 1072,-166.25 1066,-166.25"/>
<text text-anchor="middle" x="995" y="-148.95" font-family="Helvetica,sans-Serif" font-size="14.00">4_A &lt;= 0.5</text>
<text text-anchor="middle" x="995" y="-131.7" font-family="Helvetica,sans-Serif" font-size="14.00">entropy = 0.855</text>
<text text-anchor="middle" x="995" y="-114.45" font-family="Helvetica,sans-Serif" font-size="14.00">samples = 2523</text>
<text text-anchor="middle" x="995" y="-97.2" font-family="Helvetica,sans-Serif" font-size="14.00">value = [1120, 2881]</text>
<text text-anchor="middle" x="995" y="-79.95" font-family="Helvetica,sans-Serif" font-size="14.00">class = Plant</text>
</g>
<!-- 12639&#45;&gt;15011 -->
<g id="edge21" class="edge">
<title>12639&#45;&gt;15011</title>
<path fill="none" stroke="black" d="M936.21,-202.07C942.4,-193.45 948.93,-184.35 955.29,-175.49"/>
<polygon fill="black" stroke="black" points="957.97,-177.75 960.95,-167.59 952.28,-173.67 957.97,-177.75"/>
</g>
<!-- 12641 -->
<g id="node20" class="node">
<title>12641</title>
<path fill="#c0c0c0" stroke="black" d="M774,-36C774,-36 744,-36 744,-36 738,-36 732,-30 732,-24 732,-24 732,-12 732,-12 732,-6 738,0 744,0 744,0 774,0 774,0 780,0 786,-6 786,-12 786,-12 786,-24 786,-24 786,-30 780,-36 774,-36"/>
<text text-anchor="middle" x="759" y="-13.32" font-family="Helvetica,sans-Serif" font-size="14.00">(...)</text>
</g>
<!-- 12640&#45;&gt;12641 -->
<g id="edge19" class="edge">
<title>12640&#45;&gt;12641</title>
<path fill="none" stroke="black" d="M786.67,-71.75C782.1,-63.03 777.45,-54.16 773.3,-46.26"/>
<polygon fill="black" stroke="black" points="776.46,-44.74 768.71,-37.51 770.26,-47.99 776.46,-44.74"/>
</g>
<!-- 14260 -->
<g id="node21" class="node">
<title>14260</title>
<path fill="#c0c0c0" stroke="black" d="M846,-36C846,-36 816,-36 816,-36 810,-36 804,-30 804,-24 804,-24 804,-12 804,-12 804,-6 810,0 816,0 816,0 846,0 846,0 852,0 858,-6 858,-12 858,-12 858,-24 858,-24 858,-30 852,-36 846,-36"/>
<text text-anchor="middle" x="831" y="-13.32" font-family="Helvetica,sans-Serif" font-size="14.00">(...)</text>
</g>
<!-- 12640&#45;&gt;14260 -->
<g id="edge20" class="edge">
<title>12640&#45;&gt;14260</title>
<path fill="none" stroke="black" d="M820.36,-71.75C822.04,-63.42 823.74,-54.97 825.28,-47.34"/>
<polygon fill="black" stroke="black" points="828.69,-48.15 827.24,-37.66 821.83,-46.77 828.69,-48.15"/>
</g>
<!-- 15012 -->
<g id="node23" class="node">
<title>15012</title>
<path fill="#c0c0c0" stroke="black" d="M958,-36C958,-36 928,-36 928,-36 922,-36 916,-30 916,-24 916,-24 916,-12 916,-12 916,-6 922,0 928,0 928,0 958,0 958,0 964,0 970,-6 970,-12 970,-12 970,-24 970,-24 970,-30 964,-36 958,-36"/>
<text text-anchor="middle" x="943" y="-13.32" font-family="Helvetica,sans-Serif" font-size="14.00">(...)</text>
</g>
<!-- 15011&#45;&gt;15012 -->
<g id="edge22" class="edge">
<title>15011&#45;&gt;15012</title>
<path fill="none" stroke="black" d="M970.67,-71.75C966.1,-63.03 961.45,-54.16 957.3,-46.26"/>
<polygon fill="black" stroke="black" points="960.46,-44.74 952.71,-37.51 954.26,-47.99 960.46,-44.74"/>
</g>
<!-- 15671 -->
<g id="node24" class="node">
<title>15671</title>
<path fill="#c0c0c0" stroke="black" d="M1030,-36C1030,-36 1000,-36 1000,-36 994,-36 988,-30 988,-24 988,-24 988,-12 988,-12 988,-6 994,0 1000,0 1000,0 1030,0 1030,0 1036,0 1042,-6 1042,-12 1042,-12 1042,-24 1042,-24 1042,-30 1036,-36 1030,-36"/>
<text text-anchor="middle" x="1015" y="-13.32" font-family="Helvetica,sans-Serif" font-size="14.00">(...)</text>
</g>
<!-- 15011&#45;&gt;15671 -->
<g id="edge23" class="edge">
<title>15011&#45;&gt;15671</title>
<path fill="none" stroke="black" d="M1004.36,-71.75C1006.04,-63.42 1007.74,-54.97 1009.28,-47.34"/>
<polygon fill="black" stroke="black" points="1012.69,-48.15 1011.24,-37.66 1005.83,-46.77 1012.69,-48.15"/>
</g>
<!-- 15853 -->
<g id="node26" class="node">
<title>15853</title>
<path fill="#6db7ec" stroke="black" d="M1250,-166.25C1250,-166.25 1108,-166.25 1108,-166.25 1102,-166.25 1096,-160.25 1096,-154.25 1096,-154.25 1096,-84 1096,-84 1096,-78 1102,-72 1108,-72 1108,-72 1250,-72 1250,-72 1256,-72 1262,-78 1262,-84 1262,-84 1262,-154.25 1262,-154.25 1262,-160.25 1256,-166.25 1250,-166.25"/>
<text text-anchor="middle" x="1179" y="-148.95" font-family="Helvetica,sans-Serif" font-size="14.00">11_C &lt;= 0.5</text>
<text text-anchor="middle" x="1179" y="-131.7" font-family="Helvetica,sans-Serif" font-size="14.00">entropy = 0.74</text>
<text text-anchor="middle" x="1179" y="-114.45" font-family="Helvetica,sans-Serif" font-size="14.00">samples = 3249</text>
<text text-anchor="middle" x="1179" y="-97.2" font-family="Helvetica,sans-Serif" font-size="14.00">value = [1083, 4091]</text>
<text text-anchor="middle" x="1179" y="-79.95" font-family="Helvetica,sans-Serif" font-size="14.00">class = Plant</text>
</g>
<!-- 15852&#45;&gt;15853 -->
<g id="edge25" class="edge">
<title>15852&#45;&gt;15853</title>
<path fill="none" stroke="black" d="M1179,-202.07C1179,-194.17 1179,-185.88 1179,-177.73"/>
<polygon fill="black" stroke="black" points="1182.5,-177.87 1179,-167.87 1175.5,-177.87 1182.5,-177.87"/>
</g>
<!-- 16656 -->
<g id="node29" class="node">
<title>16656</title>
<path fill="#eb9d66" stroke="black" d="M1407.5,-166.25C1407.5,-166.25 1292.5,-166.25 1292.5,-166.25 1286.5,-166.25 1280.5,-160.25 1280.5,-154.25 1280.5,-154.25 1280.5,-84 1280.5,-84 1280.5,-78 1286.5,-72 1292.5,-72 1292.5,-72 1407.5,-72 1407.5,-72 1413.5,-72 1419.5,-78 1419.5,-84 1419.5,-84 1419.5,-154.25 1419.5,-154.25 1419.5,-160.25 1413.5,-166.25 1407.5,-166.25"/>
<text text-anchor="middle" x="1350" y="-148.95" font-family="Helvetica,sans-Serif" font-size="14.00">4_C &lt;= 0.5</text>
<text text-anchor="middle" x="1350" y="-131.7" font-family="Helvetica,sans-Serif" font-size="14.00">entropy = 0.688</text>
<text text-anchor="middle" x="1350" y="-114.45" font-family="Helvetica,sans-Serif" font-size="14.00">samples = 299</text>
<text text-anchor="middle" x="1350" y="-97.2" font-family="Helvetica,sans-Serif" font-size="14.00">value = [373, 84]</text>
<text text-anchor="middle" x="1350" y="-79.95" font-family="Helvetica,sans-Serif" font-size="14.00">class = Animal</text>
</g>
<!-- 15852&#45;&gt;16656 -->
<g id="edge28" class="edge">
<title>15852&#45;&gt;16656</title>
<path fill="none" stroke="black" d="M1240.73,-202.07C1253.13,-192.78 1266.25,-182.94 1278.93,-173.43"/>
<polygon fill="black" stroke="black" points="1280.96,-176.28 1286.86,-167.48 1276.76,-170.68 1280.96,-176.28"/>
</g>
<!-- 15854 -->
<g id="node27" class="node">
<title>15854</title>
<path fill="#c0c0c0" stroke="black" d="M1153,-36C1153,-36 1123,-36 1123,-36 1117,-36 1111,-30 1111,-24 1111,-24 1111,-12 1111,-12 1111,-6 1117,0 1123,0 1123,0 1153,0 1153,0 1159,0 1165,-6 1165,-12 1165,-12 1165,-24 1165,-24 1165,-30 1159,-36 1153,-36"/>
<text text-anchor="middle" x="1138" y="-13.32" font-family="Helvetica,sans-Serif" font-size="14.00">(...)</text>
</g>
<!-- 15853&#45;&gt;15854 -->
<g id="edge26" class="edge">
<title>15853&#45;&gt;15854</title>
<path fill="none" stroke="black" d="M1159.82,-71.75C1156.29,-63.22 1152.71,-54.57 1149.5,-46.8"/>
<polygon fill="black" stroke="black" points="1152.74,-45.47 1145.68,-37.57 1146.27,-48.15 1152.74,-45.47"/>
</g>
<!-- 16489 -->
<g id="node28" class="node">
<title>16489</title>
<path fill="#c0c0c0" stroke="black" d="M1225,-36C1225,-36 1195,-36 1195,-36 1189,-36 1183,-30 1183,-24 1183,-24 1183,-12 1183,-12 1183,-6 1189,0 1195,0 1195,0 1225,0 1225,0 1231,0 1237,-6 1237,-12 1237,-12 1237,-24 1237,-24 1237,-30 1231,-36 1225,-36"/>
<text text-anchor="middle" x="1210" y="-13.32" font-family="Helvetica,sans-Serif" font-size="14.00">(...)</text>
</g>
<!-- 15853&#45;&gt;16489 -->
<g id="edge27" class="edge">
<title>15853&#45;&gt;16489</title>
<path fill="none" stroke="black" d="M1193.5,-71.75C1196.14,-63.32 1198.81,-54.77 1201.22,-47.07"/>
<polygon fill="black" stroke="black" points="1204.53,-48.21 1204.18,-37.62 1197.85,-46.12 1204.53,-48.21"/>
</g>
<!-- 16657 -->
<g id="node30" class="node">
<title>16657</title>
<path fill="#c0c0c0" stroke="black" d="M1329,-36C1329,-36 1299,-36 1299,-36 1293,-36 1287,-30 1287,-24 1287,-24 1287,-12 1287,-12 1287,-6 1293,0 1299,0 1299,0 1329,0 1329,0 1335,0 1341,-6 1341,-12 1341,-12 1341,-24 1341,-24 1341,-30 1335,-36 1329,-36"/>
<text text-anchor="middle" x="1314" y="-13.32" font-family="Helvetica,sans-Serif" font-size="14.00">(...)</text>
</g>
<!-- 16656&#45;&gt;16657 -->
<g id="edge29" class="edge">
<title>16656&#45;&gt;16657</title>
<path fill="none" stroke="black" d="M1333.16,-71.75C1330.06,-63.22 1326.92,-54.57 1324.1,-46.8"/>
<polygon fill="black" stroke="black" points="1327.46,-45.8 1320.75,-37.6 1320.88,-48.19 1327.46,-45.8"/>
</g>
<!-- 16750 -->
<g id="node31" class="node">
<title>16750</title>
<path fill="#c0c0c0" stroke="black" d="M1401,-36C1401,-36 1371,-36 1371,-36 1365,-36 1359,-30 1359,-24 1359,-24 1359,-12 1359,-12 1359,-6 1365,0 1371,0 1371,0 1401,0 1401,0 1407,0 1413,-6 1413,-12 1413,-12 1413,-24 1413,-24 1413,-30 1407,-36 1401,-36"/>
<text text-anchor="middle" x="1386" y="-13.32" font-family="Helvetica,sans-Serif" font-size="14.00">(...)</text>
</g>
<!-- 16656&#45;&gt;16750 -->
<g id="edge30" class="edge">
<title>16656&#45;&gt;16750</title>
<path fill="none" stroke="black" d="M1366.84,-71.75C1369.94,-63.22 1373.08,-54.57 1375.9,-46.8"/>
<polygon fill="black" stroke="black" points="1379.12,-48.19 1379.25,-37.6 1372.54,-45.8 1379.12,-48.19"/>
</g>
</g>
</svg>
