<?xml version="1.0" encoding="UTF-8" standalone="no"?>
<!DOCTYPE svg PUBLIC "-//W3C//DTD SVG 1.1//EN"
 "http://www.w3.org/Graphics/SVG/1.1/DTD/svg11.dtd">
<!-- Generated by graphviz version 12.0.0 (20240803.0821)
 -->
<!-- Title: Tree Pages: 1 -->
<svg width="1383pt" height="565pt"
 viewBox="0.00 0.00 1383.00 565.00" xmlns="http://www.w3.org/2000/svg" xmlns:xlink="http://www.w3.org/1999/xlink">
<g id="graph0" class="graph" transform="scale(1 1) rotate(0) translate(4 561)">
<title>Tree</title>
<polygon fill="white" stroke="none" points="-4,4 -4,-561 1379,-561 1379,4 -4,4"/>
<!-- 0 -->
<g id="node1" class="node">
<title>0</title>
<path fill="#fffefe" stroke="black" d="M776,-557C776,-557 616,-557 616,-557 610,-557 604,-551 604,-545 604,-545 604,-474.75 604,-474.75 604,-468.75 610,-462.75 616,-462.75 616,-462.75 776,-462.75 776,-462.75 782,-462.75 788,-468.75 788,-474.75 788,-474.75 788,-545 788,-545 788,-551 782,-557 776,-557"/>
<text text-anchor="middle" x="696" y="-539.7" font-family="Helvetica,sans-Serif" font-size="14.00">4_G &lt;= 0.5</text>
<text text-anchor="middle" x="696" y="-522.45" font-family="Helvetica,sans-Serif" font-size="14.00">entropy = 1.0</text>
<text text-anchor="middle" x="696" y="-505.2" font-family="Helvetica,sans-Serif" font-size="14.00">samples = 38152</text>
<text text-anchor="middle" x="696" y="-487.95" font-family="Helvetica,sans-Serif" font-size="14.00">value = [30261, 30084]</text>
<text text-anchor="middle" x="696" y="-470.7" font-family="Helvetica,sans-Serif" font-size="14.00">class = Animal</text>
</g>
<!-- 1 -->
<g id="node2" class="node">
<title>1</title>
<path fill="#f5fafe" stroke="black" d="M617,-426.75C617,-426.75 457,-426.75 457,-426.75 451,-426.75 445,-420.75 445,-414.75 445,-414.75 445,-344.5 445,-344.5 445,-338.5 451,-332.5 457,-332.5 457,-332.5 617,-332.5 617,-332.5 623,-332.5 629,-338.5 629,-344.5 629,-344.5 629,-414.75 629,-414.75 629,-420.75 623,-426.75 617,-426.75"/>
<text text-anchor="middle" x="537" y="-409.45" font-family="Helvetica,sans-Serif" font-size="14.00">22_G &lt;= 0.5</text>
<text text-anchor="middle" x="537" y="-392.2" font-family="Helvetica,sans-Serif" font-size="14.00">entropy = 1.0</text>
<text text-anchor="middle" x="537" y="-374.95" font-family="Helvetica,sans-Serif" font-size="14.00">samples = 27410</text>
<text text-anchor="middle" x="537" y="-357.7" font-family="Helvetica,sans-Serif" font-size="14.00">value = [21181, 22271]</text>
<text text-anchor="middle" x="537" y="-340.45" font-family="Helvetica,sans-Serif" font-size="14.00">class = Plant</text>
</g>
<!-- 0&#45;&gt;1 -->
<g id="edge1" class="edge">
<title>0&#45;&gt;1</title>
<path fill="none" stroke="black" d="M638.6,-462.57C627.19,-453.37 615.11,-443.63 603.43,-434.21"/>
<polygon fill="black" stroke="black" points="605.74,-431.58 595.76,-428.02 601.35,-437.03 605.74,-431.58"/>
<text text-anchor="middle" x="597.25" y="-447.26" font-family="Helvetica,sans-Serif" font-size="14.00">True</text>
</g>
<!-- 11636 -->
<g id="node17" class="node">
<title>11636</title>
<path fill="#fbede3" stroke="black" d="M940,-426.75C940,-426.75 798,-426.75 798,-426.75 792,-426.75 786,-420.75 786,-414.75 786,-414.75 786,-344.5 786,-344.5 786,-338.5 792,-332.5 798,-332.5 798,-332.5 940,-332.5 940,-332.5 946,-332.5 952,-338.5 952,-344.5 952,-344.5 952,-414.75 952,-414.75 952,-420.75 946,-426.75 940,-426.75"/>
<text text-anchor="middle" x="869" y="-409.45" font-family="Helvetica,sans-Serif" font-size="14.00">7_A &lt;= 0.5</text>
<text text-anchor="middle" x="869" y="-392.2" font-family="Helvetica,sans-Serif" font-size="14.00">entropy = 0.996</text>
<text text-anchor="middle" x="869" y="-374.95" font-family="Helvetica,sans-Serif" font-size="14.00">samples = 10742</text>
<text text-anchor="middle" x="869" y="-357.7" font-family="Helvetica,sans-Serif" font-size="14.00">value = [9080, 7813]</text>
<text text-anchor="middle" x="869" y="-340.45" font-family="Helvetica,sans-Serif" font-size="14.00">class = Animal</text>
</g>
<!-- 0&#45;&gt;11636 -->
<g id="edge16" class="edge">
<title>0&#45;&gt;11636</title>
<path fill="none" stroke="black" d="M758.46,-462.57C771,-453.28 784.27,-443.44 797.1,-433.93"/>
<polygon fill="black" stroke="black" points="799.18,-436.74 805.13,-427.97 795.01,-431.12 799.18,-436.74"/>
<text text-anchor="middle" x="802.67" y="-447.13" font-family="Helvetica,sans-Serif" font-size="14.00">False</text>
</g>
<!-- 2 -->
<g id="node3" class="node">
<title>2</title>
<path fill="#d9ecfa" stroke="black" d="M361,-296.5C361,-296.5 201,-296.5 201,-296.5 195,-296.5 189,-290.5 189,-284.5 189,-284.5 189,-214.25 189,-214.25 189,-208.25 195,-202.25 201,-202.25 201,-202.25 361,-202.25 361,-202.25 367,-202.25 373,-208.25 373,-214.25 373,-214.25 373,-284.5 373,-284.5 373,-290.5 367,-296.5 361,-296.5"/>
<text text-anchor="middle" x="281" y="-279.2" font-family="Helvetica,sans-Serif" font-size="14.00">23_U &lt;= 0.5</text>
<text text-anchor="middle" x="281" y="-261.95" font-family="Helvetica,sans-Serif" font-size="14.00">entropy = 0.992</text>
<text text-anchor="middle" x="281" y="-244.7" font-family="Helvetica,sans-Serif" font-size="14.00">samples = 23922</text>
<text text-anchor="middle" x="281" y="-227.45" font-family="Helvetica,sans-Serif" font-size="14.00">value = [16959, 20990]</text>
<text text-anchor="middle" x="281" y="-210.2" font-family="Helvetica,sans-Serif" font-size="14.00">class = Plant</text>
</g>
<!-- 1&#45;&gt;2 -->
<g id="edge2" class="edge">
<title>1&#45;&gt;2</title>
<path fill="none" stroke="black" d="M444.58,-332.32C424.73,-322.38 403.64,-311.82 383.44,-301.69"/>
<polygon fill="black" stroke="black" points="385.15,-298.64 374.64,-297.29 382.01,-304.89 385.15,-298.64"/>
</g>
<!-- 10277 -->
<g id="node10" class="node">
<title>10277</title>
<path fill="#eda775" stroke="black" d="M608,-296.5C608,-296.5 466,-296.5 466,-296.5 460,-296.5 454,-290.5 454,-284.5 454,-284.5 454,-214.25 454,-214.25 454,-208.25 460,-202.25 466,-202.25 466,-202.25 608,-202.25 608,-202.25 614,-202.25 620,-208.25 620,-214.25 620,-214.25 620,-284.5 620,-284.5 620,-290.5 614,-296.5 608,-296.5"/>
<text text-anchor="middle" x="537" y="-279.2" font-family="Helvetica,sans-Serif" font-size="14.00">25_A &lt;= 0.5</text>
<text text-anchor="middle" x="537" y="-261.95" font-family="Helvetica,sans-Serif" font-size="14.00">entropy = 0.783</text>
<text text-anchor="middle" x="537" y="-244.7" font-family="Helvetica,sans-Serif" font-size="14.00">samples = 3488</text>
<text text-anchor="middle" x="537" y="-227.45" font-family="Helvetica,sans-Serif" font-size="14.00">value = [4222, 1281]</text>
<text text-anchor="middle" x="537" y="-210.2" font-family="Helvetica,sans-Serif" font-size="14.00">class = Animal</text>
</g>
<!-- 1&#45;&gt;10277 -->
<g id="edge9" class="edge">
<title>1&#45;&gt;10277</title>
<path fill="none" stroke="black" d="M537,-332.32C537,-324.42 537,-316.13 537,-307.98"/>
<polygon fill="black" stroke="black" points="540.5,-308.12 537,-298.12 533.5,-308.12 540.5,-308.12"/>
</g>
<!-- 3 -->
<g id="node4" class="node">
<title>3</title>
<path fill="#d0e8f9" stroke="black" d="M172,-166.25C172,-166.25 12,-166.25 12,-166.25 6,-166.25 0,-160.25 0,-154.25 0,-154.25 0,-84 0,-84 0,-78 6,-72 12,-72 12,-72 172,-72 172,-72 178,-72 184,-78 184,-84 184,-84 184,-154.25 184,-154.25 184,-160.25 178,-166.25 172,-166.25"/>
<text text-anchor="middle" x="92" y="-148.95" font-family="Helvetica,sans-Serif" font-size="14.00">10_A &lt;= 0.5</text>
<text text-anchor="middle" x="92" y="-131.7" font-family="Helvetica,sans-Serif" font-size="14.00">entropy = 0.987</text>
<text text-anchor="middle" x="92" y="-114.45" font-family="Helvetica,sans-Serif" font-size="14.00">samples = 23052</text>
<text text-anchor="middle" x="92" y="-97.2" font-family="Helvetica,sans-Serif" font-size="14.00">value = [15827, 20764]</text>
<text text-anchor="middle" x="92" y="-79.95" font-family="Helvetica,sans-Serif" font-size="14.00">class = Plant</text>
</g>
<!-- 2&#45;&gt;3 -->
<g id="edge3" class="edge">
<title>2&#45;&gt;3</title>
<path fill="none" stroke="black" d="M212.5,-201.89C198.63,-192.48 183.96,-182.53 169.8,-172.92"/>
<polygon fill="black" stroke="black" points="172.08,-170.23 161.84,-167.51 168.15,-176.03 172.08,-170.23"/>
</g>
<!-- 9906 -->
<g id="node7" class="node">
<title>9906</title>
<path fill="#ea9a61" stroke="black" d="M347.5,-166.25C347.5,-166.25 214.5,-166.25 214.5,-166.25 208.5,-166.25 202.5,-160.25 202.5,-154.25 202.5,-154.25 202.5,-84 202.5,-84 202.5,-78 208.5,-72 214.5,-72 214.5,-72 347.5,-72 347.5,-72 353.5,-72 359.5,-78 359.5,-84 359.5,-84 359.5,-154.25 359.5,-154.25 359.5,-160.25 353.5,-166.25 347.5,-166.25"/>
<text text-anchor="middle" x="281" y="-148.95" font-family="Helvetica,sans-Serif" font-size="14.00">22_A &lt;= 0.5</text>
<text text-anchor="middle" x="281" y="-131.7" font-family="Helvetica,sans-Serif" font-size="14.00">entropy = 0.649</text>
<text text-anchor="middle" x="281" y="-114.45" font-family="Helvetica,sans-Serif" font-size="14.00">samples = 870</text>
<text text-anchor="middle" x="281" y="-97.2" font-family="Helvetica,sans-Serif" font-size="14.00">value = [1132, 226]</text>
<text text-anchor="middle" x="281" y="-79.95" font-family="Helvetica,sans-Serif" font-size="14.00">class = Animal</text>
</g>
<!-- 2&#45;&gt;9906 -->
<g id="edge6" class="edge">
<title>2&#45;&gt;9906</title>
<path fill="none" stroke="black" d="M281,-202.07C281,-194.17 281,-185.88 281,-177.73"/>
<polygon fill="black" stroke="black" points="284.5,-177.87 281,-167.87 277.5,-177.87 284.5,-177.87"/>
</g>
<!-- 4 -->
<g id="node5" class="node">
<title>4</title>
<path fill="#c0c0c0" stroke="black" d="M71,-36C71,-36 41,-36 41,-36 35,-36 29,-30 29,-24 29,-24 29,-12 29,-12 29,-6 35,0 41,0 41,0 71,0 71,0 77,0 83,-6 83,-12 83,-12 83,-24 83,-24 83,-30 77,-36 71,-36"/>
<text text-anchor="middle" x="56" y="-13.32" font-family="Helvetica,sans-Serif" font-size="14.00">(...)</text>
</g>
<!-- 3&#45;&gt;4 -->
<g id="edge4" class="edge">
<title>3&#45;&gt;4</title>
<path fill="none" stroke="black" d="M75.16,-71.75C72.06,-63.22 68.92,-54.57 66.1,-46.8"/>
<polygon fill="black" stroke="black" points="69.46,-45.8 62.75,-37.6 62.88,-48.19 69.46,-45.8"/>
</g>
<!-- 7493 -->
<g id="node6" class="node">
<title>7493</title>
<path fill="#c0c0c0" stroke="black" d="M143,-36C143,-36 113,-36 113,-36 107,-36 101,-30 101,-24 101,-24 101,-12 101,-12 101,-6 107,0 113,0 113,0 143,0 143,0 149,0 155,-6 155,-12 155,-12 155,-24 155,-24 155,-30 149,-36 143,-36"/>
<text text-anchor="middle" x="128" y="-13.32" font-family="Helvetica,sans-Serif" font-size="14.00">(...)</text>
</g>
<!-- 3&#45;&gt;7493 -->
<g id="edge5" class="edge">
<title>3&#45;&gt;7493</title>
<path fill="none" stroke="black" d="M108.84,-71.75C111.94,-63.22 115.08,-54.57 117.9,-46.8"/>
<polygon fill="black" stroke="black" points="121.12,-48.19 121.25,-37.6 114.54,-45.8 121.12,-48.19"/>
</g>
<!-- 9907 -->
<g id="node8" class="node">
<title>9907</title>
<path fill="#c0c0c0" stroke="black" d="M253,-36C253,-36 223,-36 223,-36 217,-36 211,-30 211,-24 211,-24 211,-12 211,-12 211,-6 217,0 223,0 223,0 253,0 253,0 259,0 265,-6 265,-12 265,-12 265,-24 265,-24 265,-30 259,-36 253,-36"/>
<text text-anchor="middle" x="238" y="-13.32" font-family="Helvetica,sans-Serif" font-size="14.00">(...)</text>
</g>
<!-- 9906&#45;&gt;9907 -->
<g id="edge7" class="edge">
<title>9906&#45;&gt;9907</title>
<path fill="none" stroke="black" d="M260.88,-71.75C257.14,-63.12 253.34,-54.36 249.94,-46.53"/>
<polygon fill="black" stroke="black" points="253.24,-45.34 246.05,-37.56 246.82,-48.13 253.24,-45.34"/>
</g>
<!-- 10172 -->
<g id="node9" class="node">
<title>10172</title>
<path fill="#c0c0c0" stroke="black" d="M325,-36C325,-36 295,-36 295,-36 289,-36 283,-30 283,-24 283,-24 283,-12 283,-12 283,-6 289,0 295,0 295,0 325,0 325,0 331,0 337,-6 337,-12 337,-12 337,-24 337,-24 337,-30 331,-36 325,-36"/>
<text text-anchor="middle" x="310" y="-13.32" font-family="Helvetica,sans-Serif" font-size="14.00">(...)</text>
</g>
<!-- 9906&#45;&gt;10172 -->
<g id="edge8" class="edge">
<title>9906&#45;&gt;10172</title>
<path fill="none" stroke="black" d="M294.57,-71.75C297.03,-63.32 299.54,-54.77 301.79,-47.07"/>
<polygon fill="black" stroke="black" points="305.1,-48.21 304.55,-37.63 298.38,-46.24 305.1,-48.21"/>
</g>
<!-- 10278 -->
<g id="node11" class="node">
<title>10278</title>
<path fill="#eda673" stroke="black" d="M532,-166.25C532,-166.25 390,-166.25 390,-166.25 384,-166.25 378,-160.25 378,-154.25 378,-154.25 378,-84 378,-84 378,-78 384,-72 390,-72 390,-72 532,-72 532,-72 538,-72 544,-78 544,-84 544,-84 544,-154.25 544,-154.25 544,-160.25 538,-166.25 532,-166.25"/>
<text text-anchor="middle" x="461" y="-148.95" font-family="Helvetica,sans-Serif" font-size="14.00">17_A &lt;= 0.5</text>
<text text-anchor="middle" x="461" y="-131.7" font-family="Helvetica,sans-Serif" font-size="14.00">entropy = 0.769</text>
<text text-anchor="middle" x="461" y="-114.45" font-family="Helvetica,sans-Serif" font-size="14.00">samples = 3406</text>
<text text-anchor="middle" x="461" y="-97.2" font-family="Helvetica,sans-Serif" font-size="14.00">value = [4164, 1210]</text>
<text text-anchor="middle" x="461" y="-79.95" font-family="Helvetica,sans-Serif" font-size="14.00">class = Animal</text>
</g>
<!-- 10277&#45;&gt;10278 -->
<g id="edge10" class="edge">
<title>10277&#45;&gt;10278</title>
<path fill="none" stroke="black" d="M509.56,-202.07C504.56,-193.63 499.29,-184.74 494.14,-176.05"/>
<polygon fill="black" stroke="black" points="497.28,-174.48 489.17,-167.66 491.26,-178.05 497.28,-174.48"/>
</g>
<!-- 11603 -->
<g id="node14" class="node">
<title>11603</title>
<path fill="#dbedfa" stroke="black" d="M680.38,-166.25C680.38,-166.25 573.62,-166.25 573.62,-166.25 567.62,-166.25 561.62,-160.25 561.62,-154.25 561.62,-154.25 561.62,-84 561.62,-84 561.62,-78 567.62,-72 573.62,-72 573.62,-72 680.38,-72 680.38,-72 686.38,-72 692.38,-78 692.38,-84 692.38,-84 692.38,-154.25 692.38,-154.25 692.38,-160.25 686.38,-166.25 680.38,-166.25"/>
<text text-anchor="middle" x="627" y="-148.95" font-family="Helvetica,sans-Serif" font-size="14.00">13_A &lt;= 0.5</text>
<text text-anchor="middle" x="627" y="-131.7" font-family="Helvetica,sans-Serif" font-size="14.00">entropy = 0.993</text>
<text text-anchor="middle" x="627" y="-114.45" font-family="Helvetica,sans-Serif" font-size="14.00">samples = 82</text>
<text text-anchor="middle" x="627" y="-97.2" font-family="Helvetica,sans-Serif" font-size="14.00">value = [58, 71]</text>
<text text-anchor="middle" x="627" y="-79.95" font-family="Helvetica,sans-Serif" font-size="14.00">class = Plant</text>
</g>
<!-- 10277&#45;&gt;11603 -->
<g id="edge13" class="edge">
<title>10277&#45;&gt;11603</title>
<path fill="none" stroke="black" d="M569.49,-202.07C575.48,-193.54 581.79,-184.54 587.95,-175.77"/>
<polygon fill="black" stroke="black" points="590.81,-177.79 593.69,-167.6 585.08,-173.77 590.81,-177.79"/>
</g>
<!-- 10279 -->
<g id="node12" class="node">
<title>10279</title>
<path fill="#c0c0c0" stroke="black" d="M415,-36C415,-36 385,-36 385,-36 379,-36 373,-30 373,-24 373,-24 373,-12 373,-12 373,-6 379,0 385,0 385,0 415,0 415,0 421,0 427,-6 427,-12 427,-12 427,-24 427,-24 427,-30 421,-36 415,-36"/>
<text text-anchor="middle" x="400" y="-13.32" font-family="Helvetica,sans-Serif" font-size="14.00">(...)</text>
</g>
<!-- 10278&#45;&gt;10279 -->
<g id="edge11" class="edge">
<title>10278&#45;&gt;10279</title>
<path fill="none" stroke="black" d="M432.46,-71.75C426.97,-62.83 421.39,-53.76 416.44,-45.72"/>
<polygon fill="black" stroke="black" points="419.58,-44.14 411.36,-37.46 413.62,-47.81 419.58,-44.14"/>
</g>
<!-- 11300 -->
<g id="node13" class="node">
<title>11300</title>
<path fill="#c0c0c0" stroke="black" d="M487,-36C487,-36 457,-36 457,-36 451,-36 445,-30 445,-24 445,-24 445,-12 445,-12 445,-6 451,0 457,0 457,0 487,0 487,0 493,0 499,-6 499,-12 499,-12 499,-24 499,-24 499,-30 493,-36 487,-36"/>
<text text-anchor="middle" x="472" y="-13.32" font-family="Helvetica,sans-Serif" font-size="14.00">(...)</text>
</g>
<!-- 10278&#45;&gt;11300 -->
<g id="edge12" class="edge">
<title>10278&#45;&gt;11300</title>
<path fill="none" stroke="black" d="M466.15,-71.75C467.06,-63.52 467.99,-55.17 468.82,-47.61"/>
<polygon fill="black" stroke="black" points="472.3,-48 469.93,-37.68 465.35,-47.23 472.3,-48"/>
</g>
<!-- 11604 -->
<g id="node15" class="node">
<title>11604</title>
<path fill="#c0c0c0" stroke="black" d="M581,-36C581,-36 551,-36 551,-36 545,-36 539,-30 539,-24 539,-24 539,-12 539,-12 539,-6 545,0 551,0 551,0 581,0 581,0 587,0 593,-6 593,-12 593,-12 593,-24 593,-24 593,-30 587,-36 581,-36"/>
<text text-anchor="middle" x="566" y="-13.32" font-family="Helvetica,sans-Serif" font-size="14.00">(...)</text>
</g>
<!-- 11603&#45;&gt;11604 -->
<g id="edge14" class="edge">
<title>11603&#45;&gt;11604</title>
<path fill="none" stroke="black" d="M598.46,-71.75C592.97,-62.83 587.39,-53.76 582.44,-45.72"/>
<polygon fill="black" stroke="black" points="585.58,-44.14 577.36,-37.46 579.62,-47.81 585.58,-44.14"/>
</g>
<!-- 11631 -->
<g id="node16" class="node">
<title>11631</title>
<path fill="#c0c0c0" stroke="black" d="M653,-36C653,-36 623,-36 623,-36 617,-36 611,-30 611,-24 611,-24 611,-12 611,-12 611,-6 617,0 623,0 623,0 653,0 653,0 659,0 665,-6 665,-12 665,-12 665,-24 665,-24 665,-30 659,-36 653,-36"/>
<text text-anchor="middle" x="638" y="-13.32" font-family="Helvetica,sans-Serif" font-size="14.00">(...)</text>
</g>
<!-- 11603&#45;&gt;11631 -->
<g id="edge15" class="edge">
<title>11603&#45;&gt;11631</title>
<path fill="none" stroke="black" d="M632.15,-71.75C633.06,-63.52 633.99,-55.17 634.82,-47.61"/>
<polygon fill="black" stroke="black" points="638.3,-48 635.93,-37.68 631.35,-47.23 638.3,-48"/>
</g>
<!-- 11637 -->
<g id="node18" class="node">
<title>11637</title>
<path fill="#fffefd" stroke="black" d="M940,-296.5C940,-296.5 798,-296.5 798,-296.5 792,-296.5 786,-290.5 786,-284.5 786,-284.5 786,-214.25 786,-214.25 786,-208.25 792,-202.25 798,-202.25 798,-202.25 940,-202.25 940,-202.25 946,-202.25 952,-208.25 952,-214.25 952,-214.25 952,-284.5 952,-284.5 952,-290.5 946,-296.5 940,-296.5"/>
<text text-anchor="middle" x="869" y="-279.2" font-family="Helvetica,sans-Serif" font-size="14.00">23_G &lt;= 0.5</text>
<text text-anchor="middle" x="869" y="-261.95" font-family="Helvetica,sans-Serif" font-size="14.00">entropy = 1.0</text>
<text text-anchor="middle" x="869" y="-244.7" font-family="Helvetica,sans-Serif" font-size="14.00">samples = 8171</text>
<text text-anchor="middle" x="869" y="-227.45" font-family="Helvetica,sans-Serif" font-size="14.00">value = [6452, 6383]</text>
<text text-anchor="middle" x="869" y="-210.2" font-family="Helvetica,sans-Serif" font-size="14.00">class = Animal</text>
</g>
<!-- 11636&#45;&gt;11637 -->
<g id="edge17" class="edge">
<title>11636&#45;&gt;11637</title>
<path fill="none" stroke="black" d="M869,-332.32C869,-324.42 869,-316.13 869,-307.98"/>
<polygon fill="black" stroke="black" points="872.5,-308.12 869,-298.12 865.5,-308.12 872.5,-308.12"/>
</g>
<!-- 15476 -->
<g id="node25" class="node">
<title>15476</title>
<path fill="#f3c6a5" stroke="black" d="M1201,-296.5C1201,-296.5 1059,-296.5 1059,-296.5 1053,-296.5 1047,-290.5 1047,-284.5 1047,-284.5 1047,-214.25 1047,-214.25 1047,-208.25 1053,-202.25 1059,-202.25 1059,-202.25 1201,-202.25 1201,-202.25 1207,-202.25 1213,-208.25 1213,-214.25 1213,-214.25 1213,-284.5 1213,-284.5 1213,-290.5 1207,-296.5 1201,-296.5"/>
<text text-anchor="middle" x="1130" y="-279.2" font-family="Helvetica,sans-Serif" font-size="14.00">14_A &lt;= 0.5</text>
<text text-anchor="middle" x="1130" y="-261.95" font-family="Helvetica,sans-Serif" font-size="14.00">entropy = 0.936</text>
<text text-anchor="middle" x="1130" y="-244.7" font-family="Helvetica,sans-Serif" font-size="14.00">samples = 2571</text>
<text text-anchor="middle" x="1130" y="-227.45" font-family="Helvetica,sans-Serif" font-size="14.00">value = [2628, 1430]</text>
<text text-anchor="middle" x="1130" y="-210.2" font-family="Helvetica,sans-Serif" font-size="14.00">class = Animal</text>
</g>
<!-- 11636&#45;&gt;15476 -->
<g id="edge24" class="edge">
<title>11636&#45;&gt;15476</title>
<path fill="none" stroke="black" d="M952.3,-337.69C979.14,-324.5 1009.06,-309.8 1036.58,-296.28"/>
<polygon fill="black" stroke="black" points="1037.81,-299.58 1045.24,-292.03 1034.72,-293.29 1037.81,-299.58"/>
</g>
<!-- 11638 -->
<g id="node19" class="node">
<title>11638</title>
<path fill="#f3f9fd" stroke="black" d="M864,-166.25C864,-166.25 722,-166.25 722,-166.25 716,-166.25 710,-160.25 710,-154.25 710,-154.25 710,-84 710,-84 710,-78 716,-72 722,-72 722,-72 864,-72 864,-72 870,-72 876,-78 876,-84 876,-84 876,-154.25 876,-154.25 876,-160.25 870,-166.25 864,-166.25"/>
<text text-anchor="middle" x="793" y="-148.95" font-family="Helvetica,sans-Serif" font-size="14.00">18_C &lt;= 0.5</text>
<text text-anchor="middle" x="793" y="-131.7" font-family="Helvetica,sans-Serif" font-size="14.00">entropy = 0.999</text>
<text text-anchor="middle" x="793" y="-114.45" font-family="Helvetica,sans-Serif" font-size="14.00">samples = 7742</text>
<text text-anchor="middle" x="793" y="-97.2" font-family="Helvetica,sans-Serif" font-size="14.00">value = [5914, 6294]</text>
<text text-anchor="middle" x="793" y="-79.95" font-family="Helvetica,sans-Serif" font-size="14.00">class = Plant</text>
</g>
<!-- 11637&#45;&gt;11638 -->
<g id="edge18" class="edge">
<title>11637&#45;&gt;11638</title>
<path fill="none" stroke="black" d="M841.56,-202.07C836.56,-193.63 831.29,-184.74 826.14,-176.05"/>
<polygon fill="black" stroke="black" points="829.28,-174.48 821.17,-167.66 823.26,-178.05 829.28,-174.48"/>
</g>
<!-- 15301 -->
<g id="node22" class="node">
<title>15301</title>
<path fill="#e9965a" stroke="black" d="M1021.5,-166.25C1021.5,-166.25 906.5,-166.25 906.5,-166.25 900.5,-166.25 894.5,-160.25 894.5,-154.25 894.5,-154.25 894.5,-84 894.5,-84 894.5,-78 900.5,-72 906.5,-72 906.5,-72 1021.5,-72 1021.5,-72 1027.5,-72 1033.5,-78 1033.5,-84 1033.5,-84 1033.5,-154.25 1033.5,-154.25 1033.5,-160.25 1027.5,-166.25 1021.5,-166.25"/>
<text text-anchor="middle" x="964" y="-148.95" font-family="Helvetica,sans-Serif" font-size="14.00">9_A &lt;= 0.5</text>
<text text-anchor="middle" x="964" y="-131.7" font-family="Helvetica,sans-Serif" font-size="14.00">entropy = 0.589</text>
<text text-anchor="middle" x="964" y="-114.45" font-family="Helvetica,sans-Serif" font-size="14.00">samples = 429</text>
<text text-anchor="middle" x="964" y="-97.2" font-family="Helvetica,sans-Serif" font-size="14.00">value = [538, 89]</text>
<text text-anchor="middle" x="964" y="-79.95" font-family="Helvetica,sans-Serif" font-size="14.00">class = Animal</text>
</g>
<!-- 11637&#45;&gt;15301 -->
<g id="edge21" class="edge">
<title>11637&#45;&gt;15301</title>
<path fill="none" stroke="black" d="M903.3,-202.07C909.69,-193.45 916.42,-184.35 922.99,-175.49"/>
<polygon fill="black" stroke="black" points="925.71,-177.69 928.85,-167.57 920.09,-173.53 925.71,-177.69"/>
</g>
<!-- 11639 -->
<g id="node20" class="node">
<title>11639</title>
<path fill="#c0c0c0" stroke="black" d="M749,-36C749,-36 719,-36 719,-36 713,-36 707,-30 707,-24 707,-24 707,-12 707,-12 707,-6 713,0 719,0 719,0 749,0 749,0 755,0 761,-6 761,-12 761,-12 761,-24 761,-24 761,-30 755,-36 749,-36"/>
<text text-anchor="middle" x="734" y="-13.32" font-family="Helvetica,sans-Serif" font-size="14.00">(...)</text>
</g>
<!-- 11638&#45;&gt;11639 -->
<g id="edge19" class="edge">
<title>11638&#45;&gt;11639</title>
<path fill="none" stroke="black" d="M765.4,-71.75C760.15,-62.93 754.81,-53.96 750.06,-45.99"/>
<polygon fill="black" stroke="black" points="753.12,-44.28 745,-37.47 747.1,-47.86 753.12,-44.28"/>
</g>
<!-- 14502 -->
<g id="node21" class="node">
<title>14502</title>
<path fill="#c0c0c0" stroke="black" d="M821,-36C821,-36 791,-36 791,-36 785,-36 779,-30 779,-24 779,-24 779,-12 779,-12 779,-6 785,0 791,0 791,0 821,0 821,0 827,0 833,-6 833,-12 833,-12 833,-24 833,-24 833,-30 827,-36 821,-36"/>
<text text-anchor="middle" x="806" y="-13.32" font-family="Helvetica,sans-Serif" font-size="14.00">(...)</text>
</g>
<!-- 11638&#45;&gt;14502 -->
<g id="edge20" class="edge">
<title>11638&#45;&gt;14502</title>
<path fill="none" stroke="black" d="M799.08,-71.75C800.17,-63.42 801.28,-54.97 802.28,-47.34"/>
<polygon fill="black" stroke="black" points="805.72,-48.04 803.55,-37.67 798.78,-47.13 805.72,-48.04"/>
</g>
<!-- 15302 -->
<g id="node23" class="node">
<title>15302</title>
<path fill="#c0c0c0" stroke="black" d="M918,-36C918,-36 888,-36 888,-36 882,-36 876,-30 876,-24 876,-24 876,-12 876,-12 876,-6 882,0 888,0 888,0 918,0 918,0 924,0 930,-6 930,-12 930,-12 930,-24 930,-24 930,-30 924,-36 918,-36"/>
<text text-anchor="middle" x="903" y="-13.32" font-family="Helvetica,sans-Serif" font-size="14.00">(...)</text>
</g>
<!-- 15301&#45;&gt;15302 -->
<g id="edge22" class="edge">
<title>15301&#45;&gt;15302</title>
<path fill="none" stroke="black" d="M935.46,-71.75C929.97,-62.83 924.39,-53.76 919.44,-45.72"/>
<polygon fill="black" stroke="black" points="922.58,-44.14 914.36,-37.46 916.62,-47.81 922.58,-44.14"/>
</g>
<!-- 15447 -->
<g id="node24" class="node">
<title>15447</title>
<path fill="#c0c0c0" stroke="black" d="M990,-36C990,-36 960,-36 960,-36 954,-36 948,-30 948,-24 948,-24 948,-12 948,-12 948,-6 954,0 960,0 960,0 990,0 990,0 996,0 1002,-6 1002,-12 1002,-12 1002,-24 1002,-24 1002,-30 996,-36 990,-36"/>
<text text-anchor="middle" x="975" y="-13.32" font-family="Helvetica,sans-Serif" font-size="14.00">(...)</text>
</g>
<!-- 15301&#45;&gt;15447 -->
<g id="edge23" class="edge">
<title>15301&#45;&gt;15447</title>
<path fill="none" stroke="black" d="M969.15,-71.75C970.06,-63.52 970.99,-55.17 971.82,-47.61"/>
<polygon fill="black" stroke="black" points="975.3,-48 972.93,-37.68 968.35,-47.23 975.3,-48"/>
</g>
<!-- 15477 -->
<g id="node26" class="node">
<title>15477</title>
<path fill="#f1ba92" stroke="black" d="M1196.5,-166.25C1196.5,-166.25 1063.5,-166.25 1063.5,-166.25 1057.5,-166.25 1051.5,-160.25 1051.5,-154.25 1051.5,-154.25 1051.5,-84 1051.5,-84 1051.5,-78 1057.5,-72 1063.5,-72 1063.5,-72 1196.5,-72 1196.5,-72 1202.5,-72 1208.5,-78 1208.5,-84 1208.5,-84 1208.5,-154.25 1208.5,-154.25 1208.5,-160.25 1202.5,-166.25 1196.5,-166.25"/>
<text text-anchor="middle" x="1130" y="-148.95" font-family="Helvetica,sans-Serif" font-size="14.00">18_U &lt;= 0.5</text>
<text text-anchor="middle" x="1130" y="-131.7" font-family="Helvetica,sans-Serif" font-size="14.00">entropy = 0.894</text>
<text text-anchor="middle" x="1130" y="-114.45" font-family="Helvetica,sans-Serif" font-size="14.00">samples = 2000</text>
<text text-anchor="middle" x="1130" y="-97.2" font-family="Helvetica,sans-Serif" font-size="14.00">value = [2182, 984]</text>
<text text-anchor="middle" x="1130" y="-79.95" font-family="Helvetica,sans-Serif" font-size="14.00">class = Animal</text>
</g>
<!-- 15476&#45;&gt;15477 -->
<g id="edge25" class="edge">
<title>15476&#45;&gt;15477</title>
<path fill="none" stroke="black" d="M1130,-202.07C1130,-194.17 1130,-185.88 1130,-177.73"/>
<polygon fill="black" stroke="black" points="1133.5,-177.87 1130,-167.87 1126.5,-177.87 1133.5,-177.87"/>
</g>
<!-- 16542 -->
<g id="node29" class="node">
<title>16542</title>
<path fill="#ffffff" stroke="black" d="M1363,-166.25C1363,-166.25 1239,-166.25 1239,-166.25 1233,-166.25 1227,-160.25 1227,-154.25 1227,-154.25 1227,-84 1227,-84 1227,-78 1233,-72 1239,-72 1239,-72 1363,-72 1363,-72 1369,-72 1375,-78 1375,-84 1375,-84 1375,-154.25 1375,-154.25 1375,-160.25 1369,-166.25 1363,-166.25"/>
<text text-anchor="middle" x="1301" y="-148.95" font-family="Helvetica,sans-Serif" font-size="14.00">19_U &lt;= 0.5</text>
<text text-anchor="middle" x="1301" y="-131.7" font-family="Helvetica,sans-Serif" font-size="14.00">entropy = 1.0</text>
<text text-anchor="middle" x="1301" y="-114.45" font-family="Helvetica,sans-Serif" font-size="14.00">samples = 571</text>
<text text-anchor="middle" x="1301" y="-97.2" font-family="Helvetica,sans-Serif" font-size="14.00">value = [446, 446]</text>
<text text-anchor="middle" x="1301" y="-79.95" font-family="Helvetica,sans-Serif" font-size="14.00">class = Animal</text>
</g>
<!-- 15476&#45;&gt;16542 -->
<g id="edge28" class="edge">
<title>15476&#45;&gt;16542</title>
<path fill="none" stroke="black" d="M1191.73,-202.07C1204.13,-192.78 1217.25,-182.94 1229.93,-173.43"/>
<polygon fill="black" stroke="black" points="1231.96,-176.28 1237.86,-167.48 1227.76,-170.68 1231.96,-176.28"/>
</g>
<!-- 15478 -->
<g id="node27" class="node">
<title>15478</title>
<path fill="#c0c0c0" stroke="black" d="M1104,-36C1104,-36 1074,-36 1074,-36 1068,-36 1062,-30 1062,-24 1062,-24 1062,-12 1062,-12 1062,-6 1068,0 1074,0 1074,0 1104,0 1104,0 1110,0 1116,-6 1116,-12 1116,-12 1116,-24 1116,-24 1116,-30 1110,-36 1104,-36"/>
<text text-anchor="middle" x="1089" y="-13.32" font-family="Helvetica,sans-Serif" font-size="14.00">(...)</text>
</g>
<!-- 15477&#45;&gt;15478 -->
<g id="edge26" class="edge">
<title>15477&#45;&gt;15478</title>
<path fill="none" stroke="black" d="M1110.82,-71.75C1107.29,-63.22 1103.71,-54.57 1100.5,-46.8"/>
<polygon fill="black" stroke="black" points="1103.74,-45.47 1096.68,-37.57 1097.27,-48.15 1103.74,-45.47"/>
</g>
<!-- 16247 -->
<g id="node28" class="node">
<title>16247</title>
<path fill="#c0c0c0" stroke="black" d="M1176,-36C1176,-36 1146,-36 1146,-36 1140,-36 1134,-30 1134,-24 1134,-24 1134,-12 1134,-12 1134,-6 1140,0 1146,0 1146,0 1176,0 1176,0 1182,0 1188,-6 1188,-12 1188,-12 1188,-24 1188,-24 1188,-30 1182,-36 1176,-36"/>
<text text-anchor="middle" x="1161" y="-13.32" font-family="Helvetica,sans-Serif" font-size="14.00">(...)</text>
</g>
<!-- 15477&#45;&gt;16247 -->
<g id="edge27" class="edge">
<title>15477&#45;&gt;16247</title>
<path fill="none" stroke="black" d="M1144.5,-71.75C1147.14,-63.32 1149.81,-54.77 1152.22,-47.07"/>
<polygon fill="black" stroke="black" points="1155.53,-48.21 1155.18,-37.62 1148.85,-46.12 1155.53,-48.21"/>
</g>
<!-- 16543 -->
<g id="node30" class="node">
<title>16543</title>
<path fill="#c0c0c0" stroke="black" d="M1280,-36C1280,-36 1250,-36 1250,-36 1244,-36 1238,-30 1238,-24 1238,-24 1238,-12 1238,-12 1238,-6 1244,0 1250,0 1250,0 1280,0 1280,0 1286,0 1292,-6 1292,-12 1292,-12 1292,-24 1292,-24 1292,-30 1286,-36 1280,-36"/>
<text text-anchor="middle" x="1265" y="-13.32" font-family="Helvetica,sans-Serif" font-size="14.00">(...)</text>
</g>
<!-- 16542&#45;&gt;16543 -->
<g id="edge29" class="edge">
<title>16542&#45;&gt;16543</title>
<path fill="none" stroke="black" d="M1284.16,-71.75C1281.06,-63.22 1277.92,-54.57 1275.1,-46.8"/>
<polygon fill="black" stroke="black" points="1278.46,-45.8 1271.75,-37.6 1271.88,-48.19 1278.46,-45.8"/>
</g>
<!-- 16786 -->
<g id="node31" class="node">
<title>16786</title>
<path fill="#c0c0c0" stroke="black" d="M1352,-36C1352,-36 1322,-36 1322,-36 1316,-36 1310,-30 1310,-24 1310,-24 1310,-12 1310,-12 1310,-6 1316,0 1322,0 1322,0 1352,0 1352,0 1358,0 1364,-6 1364,-12 1364,-12 1364,-24 1364,-24 1364,-30 1358,-36 1352,-36"/>
<text text-anchor="middle" x="1337" y="-13.32" font-family="Helvetica,sans-Serif" font-size="14.00">(...)</text>
</g>
<!-- 16542&#45;&gt;16786 -->
<g id="edge30" class="edge">
<title>16542&#45;&gt;16786</title>
<path fill="none" stroke="black" d="M1317.84,-71.75C1320.94,-63.22 1324.08,-54.57 1326.9,-46.8"/>
<polygon fill="black" stroke="black" points="1330.12,-48.19 1330.25,-37.6 1323.54,-45.8 1330.12,-48.19"/>
</g>
</g>
</svg>
