<?xml version="1.0" encoding="UTF-8" standalone="no"?>
<!DOCTYPE svg PUBLIC "-//W3C//DTD SVG 1.1//EN"
 "http://www.w3.org/Graphics/SVG/1.1/DTD/svg11.dtd">
<!-- Generated by graphviz version 12.0.0 (20240803.0821)
 -->
<!-- Title: Tree Pages: 1 -->
<svg width="1374pt" height="565pt"
 viewBox="0.00 0.00 1373.50 565.00" xmlns="http://www.w3.org/2000/svg" xmlns:xlink="http://www.w3.org/1999/xlink">
<g id="graph0" class="graph" transform="scale(1 1) rotate(0) translate(4 561)">
<title>Tree</title>
<polygon fill="white" stroke="none" points="-4,4 -4,-561 1369.5,-561 1369.5,4 -4,4"/>
<!-- 0 -->
<g id="node1" class="node">
<title>0</title>
<path fill="#ffffff" stroke="black" d="M796,-557C796,-557 636,-557 636,-557 630,-557 624,-551 624,-545 624,-545 624,-474.75 624,-474.75 624,-468.75 630,-462.75 636,-462.75 636,-462.75 796,-462.75 796,-462.75 802,-462.75 808,-468.75 808,-474.75 808,-474.75 808,-545 808,-545 808,-551 802,-557 796,-557"/>
<text text-anchor="middle" x="716" y="-539.7" font-family="Helvetica,sans-Serif" font-size="14.00">23_A &lt;= 0.5</text>
<text text-anchor="middle" x="716" y="-522.45" font-family="Helvetica,sans-Serif" font-size="14.00">entropy = 1.0</text>
<text text-anchor="middle" x="716" y="-505.2" font-family="Helvetica,sans-Serif" font-size="14.00">samples = 37978</text>
<text text-anchor="middle" x="716" y="-487.95" font-family="Helvetica,sans-Serif" font-size="14.00">value = [30154, 30191]</text>
<text text-anchor="middle" x="716" y="-470.7" font-family="Helvetica,sans-Serif" font-size="14.00">class = Plant</text>
</g>
<!-- 1 -->
<g id="node2" class="node">
<title>1</title>
<path fill="#f7fbfe" stroke="black" d="M630,-426.75C630,-426.75 470,-426.75 470,-426.75 464,-426.75 458,-420.75 458,-414.75 458,-414.75 458,-344.5 458,-344.5 458,-338.5 464,-332.5 470,-332.5 470,-332.5 630,-332.5 630,-332.5 636,-332.5 642,-338.5 642,-344.5 642,-344.5 642,-414.75 642,-414.75 642,-420.75 636,-426.75 630,-426.75"/>
<text text-anchor="middle" x="550" y="-409.45" font-family="Helvetica,sans-Serif" font-size="14.00">23_G &lt;= 0.5</text>
<text text-anchor="middle" x="550" y="-392.2" font-family="Helvetica,sans-Serif" font-size="14.00">entropy = 1.0</text>
<text text-anchor="middle" x="550" y="-374.95" font-family="Helvetica,sans-Serif" font-size="14.00">samples = 36417</text>
<text text-anchor="middle" x="550" y="-357.7" font-family="Helvetica,sans-Serif" font-size="14.00">value = [28313, 29548]</text>
<text text-anchor="middle" x="550" y="-340.45" font-family="Helvetica,sans-Serif" font-size="14.00">class = Plant</text>
</g>
<!-- 0&#45;&gt;1 -->
<g id="edge1" class="edge">
<title>0&#45;&gt;1</title>
<path fill="none" stroke="black" d="M656.07,-462.57C644.04,-453.28 631.3,-443.44 618.99,-433.93"/>
<polygon fill="black" stroke="black" points="621.37,-431.34 611.32,-428 617.09,-436.88 621.37,-431.34"/>
<text text-anchor="middle" x="613.3" y="-447.2" font-family="Helvetica,sans-Serif" font-size="14.00">True</text>
</g>
<!-- 16078 -->
<g id="node17" class="node">
<title>16078</title>
<path fill="#eead7e" stroke="black" d="M955.5,-426.75C955.5,-426.75 822.5,-426.75 822.5,-426.75 816.5,-426.75 810.5,-420.75 810.5,-414.75 810.5,-414.75 810.5,-344.5 810.5,-344.5 810.5,-338.5 816.5,-332.5 822.5,-332.5 822.5,-332.5 955.5,-332.5 955.5,-332.5 961.5,-332.5 967.5,-338.5 967.5,-344.5 967.5,-344.5 967.5,-414.75 967.5,-414.75 967.5,-420.75 961.5,-426.75 955.5,-426.75"/>
<text text-anchor="middle" x="889" y="-409.45" font-family="Helvetica,sans-Serif" font-size="14.00">19_U &lt;= 0.5</text>
<text text-anchor="middle" x="889" y="-392.2" font-family="Helvetica,sans-Serif" font-size="14.00">entropy = 0.825</text>
<text text-anchor="middle" x="889" y="-374.95" font-family="Helvetica,sans-Serif" font-size="14.00">samples = 1561</text>
<text text-anchor="middle" x="889" y="-357.7" font-family="Helvetica,sans-Serif" font-size="14.00">value = [1841, 643]</text>
<text text-anchor="middle" x="889" y="-340.45" font-family="Helvetica,sans-Serif" font-size="14.00">class = Animal</text>
</g>
<!-- 0&#45;&gt;16078 -->
<g id="edge16" class="edge">
<title>0&#45;&gt;16078</title>
<path fill="none" stroke="black" d="M778.46,-462.57C791,-453.28 804.27,-443.44 817.1,-433.93"/>
<polygon fill="black" stroke="black" points="819.18,-436.74 825.13,-427.97 815.01,-431.12 819.18,-436.74"/>
<text text-anchor="middle" x="822.67" y="-447.13" font-family="Helvetica,sans-Serif" font-size="14.00">False</text>
</g>
<!-- 2 -->
<g id="node3" class="node">
<title>2</title>
<path fill="#ebf5fc" stroke="black" d="M370,-296.5C370,-296.5 210,-296.5 210,-296.5 204,-296.5 198,-290.5 198,-284.5 198,-284.5 198,-214.25 198,-214.25 198,-208.25 204,-202.25 210,-202.25 210,-202.25 370,-202.25 370,-202.25 376,-202.25 382,-208.25 382,-214.25 382,-214.25 382,-284.5 382,-284.5 382,-290.5 376,-296.5 370,-296.5"/>
<text text-anchor="middle" x="290" y="-279.2" font-family="Helvetica,sans-Serif" font-size="14.00">19_C &lt;= 0.5</text>
<text text-anchor="middle" x="290" y="-261.95" font-family="Helvetica,sans-Serif" font-size="14.00">entropy = 0.998</text>
<text text-anchor="middle" x="290" y="-244.7" font-family="Helvetica,sans-Serif" font-size="14.00">samples = 34482</text>
<text text-anchor="middle" x="290" y="-227.45" font-family="Helvetica,sans-Serif" font-size="14.00">value = [25972, 28830]</text>
<text text-anchor="middle" x="290" y="-210.2" font-family="Helvetica,sans-Serif" font-size="14.00">class = Plant</text>
</g>
<!-- 1&#45;&gt;2 -->
<g id="edge2" class="edge">
<title>1&#45;&gt;2</title>
<path fill="none" stroke="black" d="M457.6,-333.05C436.43,-322.61 413.81,-311.45 392.25,-300.81"/>
<polygon fill="black" stroke="black" points="393.97,-297.76 383.46,-296.48 390.88,-304.04 393.97,-297.76"/>
</g>
<!-- 15333 -->
<g id="node10" class="node">
<title>15333</title>
<path fill="#eda876" stroke="black" d="M616.5,-296.5C616.5,-296.5 483.5,-296.5 483.5,-296.5 477.5,-296.5 471.5,-290.5 471.5,-284.5 471.5,-284.5 471.5,-214.25 471.5,-214.25 471.5,-208.25 477.5,-202.25 483.5,-202.25 483.5,-202.25 616.5,-202.25 616.5,-202.25 622.5,-202.25 628.5,-208.25 628.5,-214.25 628.5,-214.25 628.5,-284.5 628.5,-284.5 628.5,-290.5 622.5,-296.5 616.5,-296.5"/>
<text text-anchor="middle" x="550" y="-279.2" font-family="Helvetica,sans-Serif" font-size="14.00">18_C &lt;= 0.5</text>
<text text-anchor="middle" x="550" y="-261.95" font-family="Helvetica,sans-Serif" font-size="14.00">entropy = 0.786</text>
<text text-anchor="middle" x="550" y="-244.7" font-family="Helvetica,sans-Serif" font-size="14.00">samples = 1935</text>
<text text-anchor="middle" x="550" y="-227.45" font-family="Helvetica,sans-Serif" font-size="14.00">value = [2341, 718]</text>
<text text-anchor="middle" x="550" y="-210.2" font-family="Helvetica,sans-Serif" font-size="14.00">class = Animal</text>
</g>
<!-- 1&#45;&gt;15333 -->
<g id="edge9" class="edge">
<title>1&#45;&gt;15333</title>
<path fill="none" stroke="black" d="M550,-332.32C550,-324.42 550,-316.13 550,-307.98"/>
<polygon fill="black" stroke="black" points="553.5,-308.12 550,-298.12 546.5,-308.12 553.5,-308.12"/>
</g>
<!-- 3 -->
<g id="node4" class="node">
<title>3</title>
<path fill="#fae9dc" stroke="black" d="M172,-166.25C172,-166.25 12,-166.25 12,-166.25 6,-166.25 0,-160.25 0,-154.25 0,-154.25 0,-84 0,-84 0,-78 6,-72 12,-72 12,-72 172,-72 172,-72 178,-72 184,-78 184,-84 184,-84 184,-154.25 184,-154.25 184,-160.25 178,-166.25 172,-166.25"/>
<text text-anchor="middle" x="92" y="-148.95" font-family="Helvetica,sans-Serif" font-size="14.00">22_U &lt;= 0.5</text>
<text text-anchor="middle" x="92" y="-131.7" font-family="Helvetica,sans-Serif" font-size="14.00">entropy = 0.993</text>
<text text-anchor="middle" x="92" y="-114.45" font-family="Helvetica,sans-Serif" font-size="14.00">samples = 23016</text>
<text text-anchor="middle" x="92" y="-97.2" font-family="Helvetica,sans-Serif" font-size="14.00">value = [20067, 16524]</text>
<text text-anchor="middle" x="92" y="-79.95" font-family="Helvetica,sans-Serif" font-size="14.00">class = Animal</text>
</g>
<!-- 2&#45;&gt;3 -->
<g id="edge3" class="edge">
<title>2&#45;&gt;3</title>
<path fill="none" stroke="black" d="M218.24,-201.89C203.71,-192.48 188.34,-182.53 173.5,-172.92"/>
<polygon fill="black" stroke="black" points="175.42,-169.99 165.12,-167.49 171.61,-175.86 175.42,-169.99"/>
</g>
<!-- 11444 -->
<g id="node7" class="node">
<title>11444</title>
<path fill="#98ccf1" stroke="black" d="M365.5,-166.25C365.5,-166.25 214.5,-166.25 214.5,-166.25 208.5,-166.25 202.5,-160.25 202.5,-154.25 202.5,-154.25 202.5,-84 202.5,-84 202.5,-78 208.5,-72 214.5,-72 214.5,-72 365.5,-72 365.5,-72 371.5,-72 377.5,-78 377.5,-84 377.5,-84 377.5,-154.25 377.5,-154.25 377.5,-160.25 371.5,-166.25 365.5,-166.25"/>
<text text-anchor="middle" x="290" y="-148.95" font-family="Helvetica,sans-Serif" font-size="14.00">4_U &lt;= 0.5</text>
<text text-anchor="middle" x="290" y="-131.7" font-family="Helvetica,sans-Serif" font-size="14.00">entropy = 0.909</text>
<text text-anchor="middle" x="290" y="-114.45" font-family="Helvetica,sans-Serif" font-size="14.00">samples = 11466</text>
<text text-anchor="middle" x="290" y="-97.2" font-family="Helvetica,sans-Serif" font-size="14.00">value = [5905, 12306]</text>
<text text-anchor="middle" x="290" y="-79.95" font-family="Helvetica,sans-Serif" font-size="14.00">class = Plant</text>
</g>
<!-- 2&#45;&gt;11444 -->
<g id="edge6" class="edge">
<title>2&#45;&gt;11444</title>
<path fill="none" stroke="black" d="M290,-202.07C290,-194.17 290,-185.88 290,-177.73"/>
<polygon fill="black" stroke="black" points="293.5,-177.87 290,-167.87 286.5,-177.87 293.5,-177.87"/>
</g>
<!-- 4 -->
<g id="node5" class="node">
<title>4</title>
<path fill="#c0c0c0" stroke="black" d="M71,-36C71,-36 41,-36 41,-36 35,-36 29,-30 29,-24 29,-24 29,-12 29,-12 29,-6 35,0 41,0 41,0 71,0 71,0 77,0 83,-6 83,-12 83,-12 83,-24 83,-24 83,-30 77,-36 71,-36"/>
<text text-anchor="middle" x="56" y="-13.32" font-family="Helvetica,sans-Serif" font-size="14.00">(...)</text>
</g>
<!-- 3&#45;&gt;4 -->
<g id="edge4" class="edge">
<title>3&#45;&gt;4</title>
<path fill="none" stroke="black" d="M75.16,-71.75C72.06,-63.22 68.92,-54.57 66.1,-46.8"/>
<polygon fill="black" stroke="black" points="69.46,-45.8 62.75,-37.6 62.88,-48.19 69.46,-45.8"/>
</g>
<!-- 10235 -->
<g id="node6" class="node">
<title>10235</title>
<path fill="#c0c0c0" stroke="black" d="M143,-36C143,-36 113,-36 113,-36 107,-36 101,-30 101,-24 101,-24 101,-12 101,-12 101,-6 107,0 113,0 113,0 143,0 143,0 149,0 155,-6 155,-12 155,-12 155,-24 155,-24 155,-30 149,-36 143,-36"/>
<text text-anchor="middle" x="128" y="-13.32" font-family="Helvetica,sans-Serif" font-size="14.00">(...)</text>
</g>
<!-- 3&#45;&gt;10235 -->
<g id="edge5" class="edge">
<title>3&#45;&gt;10235</title>
<path fill="none" stroke="black" d="M108.84,-71.75C111.94,-63.22 115.08,-54.57 117.9,-46.8"/>
<polygon fill="black" stroke="black" points="121.12,-48.19 121.25,-37.6 114.54,-45.8 121.12,-48.19"/>
</g>
<!-- 11445 -->
<g id="node8" class="node">
<title>11445</title>
<path fill="#c0c0c0" stroke="black" d="M266,-36C266,-36 236,-36 236,-36 230,-36 224,-30 224,-24 224,-24 224,-12 224,-12 224,-6 230,0 236,0 236,0 266,0 266,0 272,0 278,-6 278,-12 278,-12 278,-24 278,-24 278,-30 272,-36 266,-36"/>
<text text-anchor="middle" x="251" y="-13.32" font-family="Helvetica,sans-Serif" font-size="14.00">(...)</text>
</g>
<!-- 11444&#45;&gt;11445 -->
<g id="edge7" class="edge">
<title>11444&#45;&gt;11445</title>
<path fill="none" stroke="black" d="M271.76,-71.75C268.4,-63.22 264.99,-54.57 261.94,-46.8"/>
<polygon fill="black" stroke="black" points="265.23,-45.61 258.31,-37.58 258.71,-48.17 265.23,-45.61"/>
</g>
<!-- 14518 -->
<g id="node9" class="node">
<title>14518</title>
<path fill="#c0c0c0" stroke="black" d="M338,-36C338,-36 308,-36 308,-36 302,-36 296,-30 296,-24 296,-24 296,-12 296,-12 296,-6 302,0 308,0 308,0 338,0 338,0 344,0 350,-6 350,-12 350,-12 350,-24 350,-24 350,-30 344,-36 338,-36"/>
<text text-anchor="middle" x="323" y="-13.32" font-family="Helvetica,sans-Serif" font-size="14.00">(...)</text>
</g>
<!-- 11444&#45;&gt;14518 -->
<g id="edge8" class="edge">
<title>11444&#45;&gt;14518</title>
<path fill="none" stroke="black" d="M305.44,-71.75C308.24,-63.32 311.09,-54.77 313.66,-47.07"/>
<polygon fill="black" stroke="black" points="316.97,-48.2 316.8,-37.61 310.33,-45.99 316.97,-48.2"/>
</g>
<!-- 15334 -->
<g id="node11" class="node">
<title>15334</title>
<path fill="#eba069" stroke="black" d="M540.5,-166.25C540.5,-166.25 407.5,-166.25 407.5,-166.25 401.5,-166.25 395.5,-160.25 395.5,-154.25 395.5,-154.25 395.5,-84 395.5,-84 395.5,-78 401.5,-72 407.5,-72 407.5,-72 540.5,-72 540.5,-72 546.5,-72 552.5,-78 552.5,-84 552.5,-84 552.5,-154.25 552.5,-154.25 552.5,-160.25 546.5,-166.25 540.5,-166.25"/>
<text text-anchor="middle" x="474" y="-148.95" font-family="Helvetica,sans-Serif" font-size="14.00">19_A &lt;= 0.5</text>
<text text-anchor="middle" x="474" y="-131.7" font-family="Helvetica,sans-Serif" font-size="14.00">entropy = 0.715</text>
<text text-anchor="middle" x="474" y="-114.45" font-family="Helvetica,sans-Serif" font-size="14.00">samples = 1471</text>
<text text-anchor="middle" x="474" y="-97.2" font-family="Helvetica,sans-Serif" font-size="14.00">value = [1879, 460]</text>
<text text-anchor="middle" x="474" y="-79.95" font-family="Helvetica,sans-Serif" font-size="14.00">class = Animal</text>
</g>
<!-- 15333&#45;&gt;15334 -->
<g id="edge10" class="edge">
<title>15333&#45;&gt;15334</title>
<path fill="none" stroke="black" d="M522.56,-202.07C517.56,-193.63 512.29,-184.74 507.14,-176.05"/>
<polygon fill="black" stroke="black" points="510.28,-174.48 502.17,-167.66 504.26,-178.05 510.28,-174.48"/>
</g>
<!-- 15899 -->
<g id="node14" class="node">
<title>15899</title>
<path fill="#f4c7a8" stroke="black" d="M707,-166.25C707,-166.25 583,-166.25 583,-166.25 577,-166.25 571,-160.25 571,-154.25 571,-154.25 571,-84 571,-84 571,-78 577,-72 583,-72 583,-72 707,-72 707,-72 713,-72 719,-78 719,-84 719,-84 719,-154.25 719,-154.25 719,-160.25 713,-166.25 707,-166.25"/>
<text text-anchor="middle" x="645" y="-148.95" font-family="Helvetica,sans-Serif" font-size="14.00">19_G &lt;= 0.5</text>
<text text-anchor="middle" x="645" y="-131.7" font-family="Helvetica,sans-Serif" font-size="14.00">entropy = 0.941</text>
<text text-anchor="middle" x="645" y="-114.45" font-family="Helvetica,sans-Serif" font-size="14.00">samples = 464</text>
<text text-anchor="middle" x="645" y="-97.2" font-family="Helvetica,sans-Serif" font-size="14.00">value = [462, 258]</text>
<text text-anchor="middle" x="645" y="-79.95" font-family="Helvetica,sans-Serif" font-size="14.00">class = Animal</text>
</g>
<!-- 15333&#45;&gt;15899 -->
<g id="edge13" class="edge">
<title>15333&#45;&gt;15899</title>
<path fill="none" stroke="black" d="M584.3,-202.07C590.69,-193.45 597.42,-184.35 603.99,-175.49"/>
<polygon fill="black" stroke="black" points="606.71,-177.69 609.85,-167.57 601.09,-173.53 606.71,-177.69"/>
</g>
<!-- 15335 -->
<g id="node12" class="node">
<title>15335</title>
<path fill="#c0c0c0" stroke="black" d="M430,-36C430,-36 400,-36 400,-36 394,-36 388,-30 388,-24 388,-24 388,-12 388,-12 388,-6 394,0 400,0 400,0 430,0 430,0 436,0 442,-6 442,-12 442,-12 442,-24 442,-24 442,-30 436,-36 430,-36"/>
<text text-anchor="middle" x="415" y="-13.32" font-family="Helvetica,sans-Serif" font-size="14.00">(...)</text>
</g>
<!-- 15334&#45;&gt;15335 -->
<g id="edge11" class="edge">
<title>15334&#45;&gt;15335</title>
<path fill="none" stroke="black" d="M446.4,-71.75C441.15,-62.93 435.81,-53.96 431.06,-45.99"/>
<polygon fill="black" stroke="black" points="434.12,-44.28 426,-37.47 428.1,-47.86 434.12,-44.28"/>
</g>
<!-- 15750 -->
<g id="node13" class="node">
<title>15750</title>
<path fill="#c0c0c0" stroke="black" d="M502,-36C502,-36 472,-36 472,-36 466,-36 460,-30 460,-24 460,-24 460,-12 460,-12 460,-6 466,0 472,0 472,0 502,0 502,0 508,0 514,-6 514,-12 514,-12 514,-24 514,-24 514,-30 508,-36 502,-36"/>
<text text-anchor="middle" x="487" y="-13.32" font-family="Helvetica,sans-Serif" font-size="14.00">(...)</text>
</g>
<!-- 15334&#45;&gt;15750 -->
<g id="edge12" class="edge">
<title>15334&#45;&gt;15750</title>
<path fill="none" stroke="black" d="M480.08,-71.75C481.17,-63.42 482.28,-54.97 483.28,-47.34"/>
<polygon fill="black" stroke="black" points="486.72,-48.04 484.55,-37.67 479.78,-47.13 486.72,-48.04"/>
</g>
<!-- 15900 -->
<g id="node15" class="node">
<title>15900</title>
<path fill="#c0c0c0" stroke="black" d="M599,-36C599,-36 569,-36 569,-36 563,-36 557,-30 557,-24 557,-24 557,-12 557,-12 557,-6 563,0 569,0 569,0 599,0 599,0 605,0 611,-6 611,-12 611,-12 611,-24 611,-24 611,-30 605,-36 599,-36"/>
<text text-anchor="middle" x="584" y="-13.32" font-family="Helvetica,sans-Serif" font-size="14.00">(...)</text>
</g>
<!-- 15899&#45;&gt;15900 -->
<g id="edge14" class="edge">
<title>15899&#45;&gt;15900</title>
<path fill="none" stroke="black" d="M616.46,-71.75C610.97,-62.83 605.39,-53.76 600.44,-45.72"/>
<polygon fill="black" stroke="black" points="603.58,-44.14 595.36,-37.46 597.62,-47.81 603.58,-44.14"/>
</g>
<!-- 16037 -->
<g id="node16" class="node">
<title>16037</title>
<path fill="#c0c0c0" stroke="black" d="M671,-36C671,-36 641,-36 641,-36 635,-36 629,-30 629,-24 629,-24 629,-12 629,-12 629,-6 635,0 641,0 641,0 671,0 671,0 677,0 683,-6 683,-12 683,-12 683,-24 683,-24 683,-30 677,-36 671,-36"/>
<text text-anchor="middle" x="656" y="-13.32" font-family="Helvetica,sans-Serif" font-size="14.00">(...)</text>
</g>
<!-- 15899&#45;&gt;16037 -->
<g id="edge15" class="edge">
<title>15899&#45;&gt;16037</title>
<path fill="none" stroke="black" d="M650.15,-71.75C651.06,-63.52 651.99,-55.17 652.82,-47.61"/>
<polygon fill="black" stroke="black" points="656.3,-48 653.93,-37.68 649.35,-47.23 656.3,-48"/>
</g>
<!-- 16079 -->
<g id="node18" class="node">
<title>16079</title>
<path fill="#f0b890" stroke="black" d="M955.5,-296.5C955.5,-296.5 822.5,-296.5 822.5,-296.5 816.5,-296.5 810.5,-290.5 810.5,-284.5 810.5,-284.5 810.5,-214.25 810.5,-214.25 810.5,-208.25 816.5,-202.25 822.5,-202.25 822.5,-202.25 955.5,-202.25 955.5,-202.25 961.5,-202.25 967.5,-208.25 967.5,-214.25 967.5,-214.25 967.5,-284.5 967.5,-284.5 967.5,-290.5 961.5,-296.5 955.5,-296.5"/>
<text text-anchor="middle" x="889" y="-279.2" font-family="Helvetica,sans-Serif" font-size="14.00">7_G &lt;= 0.5</text>
<text text-anchor="middle" x="889" y="-261.95" font-family="Helvetica,sans-Serif" font-size="14.00">entropy = 0.888</text>
<text text-anchor="middle" x="889" y="-244.7" font-family="Helvetica,sans-Serif" font-size="14.00">samples = 1059</text>
<text text-anchor="middle" x="889" y="-227.45" font-family="Helvetica,sans-Serif" font-size="14.00">value = [1184, 521]</text>
<text text-anchor="middle" x="889" y="-210.2" font-family="Helvetica,sans-Serif" font-size="14.00">class = Animal</text>
</g>
<!-- 16078&#45;&gt;16079 -->
<g id="edge17" class="edge">
<title>16078&#45;&gt;16079</title>
<path fill="none" stroke="black" d="M889,-332.32C889,-324.42 889,-316.13 889,-307.98"/>
<polygon fill="black" stroke="black" points="892.5,-308.12 889,-298.12 885.5,-308.12 892.5,-308.12"/>
</g>
<!-- 16674 -->
<g id="node25" class="node">
<title>16674</title>
<path fill="#ea985e" stroke="black" d="M1201,-296.5C1201,-296.5 1077,-296.5 1077,-296.5 1071,-296.5 1065,-290.5 1065,-284.5 1065,-284.5 1065,-214.25 1065,-214.25 1065,-208.25 1071,-202.25 1077,-202.25 1077,-202.25 1201,-202.25 1201,-202.25 1207,-202.25 1213,-208.25 1213,-214.25 1213,-214.25 1213,-284.5 1213,-284.5 1213,-290.5 1207,-296.5 1201,-296.5"/>
<text text-anchor="middle" x="1139" y="-279.2" font-family="Helvetica,sans-Serif" font-size="14.00">11_U &lt;= 0.5</text>
<text text-anchor="middle" x="1139" y="-261.95" font-family="Helvetica,sans-Serif" font-size="14.00">entropy = 0.626</text>
<text text-anchor="middle" x="1139" y="-244.7" font-family="Helvetica,sans-Serif" font-size="14.00">samples = 502</text>
<text text-anchor="middle" x="1139" y="-227.45" font-family="Helvetica,sans-Serif" font-size="14.00">value = [657, 122]</text>
<text text-anchor="middle" x="1139" y="-210.2" font-family="Helvetica,sans-Serif" font-size="14.00">class = Animal</text>
</g>
<!-- 16078&#45;&gt;16674 -->
<g id="edge24" class="edge">
<title>16078&#45;&gt;16674</title>
<path fill="none" stroke="black" d="M967.76,-338.22C995.42,-324.03 1026.6,-308.04 1054.7,-293.62"/>
<polygon fill="black" stroke="black" points="1056.25,-296.76 1063.55,-289.08 1053.05,-290.53 1056.25,-296.76"/>
</g>
<!-- 16080 -->
<g id="node19" class="node">
<title>16080</title>
<path fill="#efb287" stroke="black" d="M873,-166.25C873,-166.25 749,-166.25 749,-166.25 743,-166.25 737,-160.25 737,-154.25 737,-154.25 737,-84 737,-84 737,-78 743,-72 749,-72 749,-72 873,-72 873,-72 879,-72 885,-78 885,-84 885,-84 885,-154.25 885,-154.25 885,-160.25 879,-166.25 873,-166.25"/>
<text text-anchor="middle" x="811" y="-148.95" font-family="Helvetica,sans-Serif" font-size="14.00">10_C &lt;= 0.5</text>
<text text-anchor="middle" x="811" y="-131.7" font-family="Helvetica,sans-Serif" font-size="14.00">entropy = 0.858</text>
<text text-anchor="middle" x="811" y="-114.45" font-family="Helvetica,sans-Serif" font-size="14.00">samples = 815</text>
<text text-anchor="middle" x="811" y="-97.2" font-family="Helvetica,sans-Serif" font-size="14.00">value = [952, 374]</text>
<text text-anchor="middle" x="811" y="-79.95" font-family="Helvetica,sans-Serif" font-size="14.00">class = Animal</text>
</g>
<!-- 16079&#45;&gt;16080 -->
<g id="edge18" class="edge">
<title>16079&#45;&gt;16080</title>
<path fill="none" stroke="black" d="M860.84,-202.07C855.7,-193.63 850.3,-184.74 845.01,-176.05"/>
<polygon fill="black" stroke="black" points="848.09,-174.38 839.9,-167.65 842.11,-178.01 848.09,-174.38"/>
</g>
<!-- 16539 -->
<g id="node22" class="node">
<title>16539</title>
<path fill="#f5d1b6" stroke="black" d="M1039,-166.25C1039,-166.25 915,-166.25 915,-166.25 909,-166.25 903,-160.25 903,-154.25 903,-154.25 903,-84 903,-84 903,-78 909,-72 915,-72 915,-72 1039,-72 1039,-72 1045,-72 1051,-78 1051,-84 1051,-84 1051,-154.25 1051,-154.25 1051,-160.25 1045,-166.25 1039,-166.25"/>
<text text-anchor="middle" x="977" y="-148.95" font-family="Helvetica,sans-Serif" font-size="14.00">20_U &lt;= 0.5</text>
<text text-anchor="middle" x="977" y="-131.7" font-family="Helvetica,sans-Serif" font-size="14.00">entropy = 0.963</text>
<text text-anchor="middle" x="977" y="-114.45" font-family="Helvetica,sans-Serif" font-size="14.00">samples = 244</text>
<text text-anchor="middle" x="977" y="-97.2" font-family="Helvetica,sans-Serif" font-size="14.00">value = [232, 147]</text>
<text text-anchor="middle" x="977" y="-79.95" font-family="Helvetica,sans-Serif" font-size="14.00">class = Animal</text>
</g>
<!-- 16079&#45;&gt;16539 -->
<g id="edge21" class="edge">
<title>16079&#45;&gt;16539</title>
<path fill="none" stroke="black" d="M920.77,-202.07C926.63,-193.54 932.8,-184.54 938.82,-175.77"/>
<polygon fill="black" stroke="black" points="941.65,-177.83 944.42,-167.61 935.88,-173.87 941.65,-177.83"/>
</g>
<!-- 16081 -->
<g id="node20" class="node">
<title>16081</title>
<path fill="#c0c0c0" stroke="black" d="M765,-36C765,-36 735,-36 735,-36 729,-36 723,-30 723,-24 723,-24 723,-12 723,-12 723,-6 729,0 735,0 735,0 765,0 765,0 771,0 777,-6 777,-12 777,-12 777,-24 777,-24 777,-30 771,-36 765,-36"/>
<text text-anchor="middle" x="750" y="-13.32" font-family="Helvetica,sans-Serif" font-size="14.00">(...)</text>
</g>
<!-- 16080&#45;&gt;16081 -->
<g id="edge19" class="edge">
<title>16080&#45;&gt;16081</title>
<path fill="none" stroke="black" d="M782.46,-71.75C776.97,-62.83 771.39,-53.76 766.44,-45.72"/>
<polygon fill="black" stroke="black" points="769.58,-44.14 761.36,-37.46 763.62,-47.81 769.58,-44.14"/>
</g>
<!-- 16436 -->
<g id="node21" class="node">
<title>16436</title>
<path fill="#c0c0c0" stroke="black" d="M837,-36C837,-36 807,-36 807,-36 801,-36 795,-30 795,-24 795,-24 795,-12 795,-12 795,-6 801,0 807,0 807,0 837,0 837,0 843,0 849,-6 849,-12 849,-12 849,-24 849,-24 849,-30 843,-36 837,-36"/>
<text text-anchor="middle" x="822" y="-13.32" font-family="Helvetica,sans-Serif" font-size="14.00">(...)</text>
</g>
<!-- 16080&#45;&gt;16436 -->
<g id="edge20" class="edge">
<title>16080&#45;&gt;16436</title>
<path fill="none" stroke="black" d="M816.15,-71.75C817.06,-63.52 817.99,-55.17 818.82,-47.61"/>
<polygon fill="black" stroke="black" points="822.3,-48 819.93,-37.68 815.35,-47.23 822.3,-48"/>
</g>
<!-- 16540 -->
<g id="node23" class="node">
<title>16540</title>
<path fill="#c0c0c0" stroke="black" d="M929,-36C929,-36 899,-36 899,-36 893,-36 887,-30 887,-24 887,-24 887,-12 887,-12 887,-6 893,0 899,0 899,0 929,0 929,0 935,0 941,-6 941,-12 941,-12 941,-24 941,-24 941,-30 935,-36 929,-36"/>
<text text-anchor="middle" x="914" y="-13.32" font-family="Helvetica,sans-Serif" font-size="14.00">(...)</text>
</g>
<!-- 16539&#45;&gt;16540 -->
<g id="edge22" class="edge">
<title>16539&#45;&gt;16540</title>
<path fill="none" stroke="black" d="M947.53,-71.75C941.85,-62.83 936.09,-53.76 930.98,-45.72"/>
<polygon fill="black" stroke="black" points="934.04,-44.01 925.73,-37.45 928.14,-47.77 934.04,-44.01"/>
</g>
<!-- 16651 -->
<g id="node24" class="node">
<title>16651</title>
<path fill="#c0c0c0" stroke="black" d="M1001,-36C1001,-36 971,-36 971,-36 965,-36 959,-30 959,-24 959,-24 959,-12 959,-12 959,-6 965,0 971,0 971,0 1001,0 1001,0 1007,0 1013,-6 1013,-12 1013,-12 1013,-24 1013,-24 1013,-30 1007,-36 1001,-36"/>
<text text-anchor="middle" x="986" y="-13.32" font-family="Helvetica,sans-Serif" font-size="14.00">(...)</text>
</g>
<!-- 16539&#45;&gt;16651 -->
<g id="edge23" class="edge">
<title>16539&#45;&gt;16651</title>
<path fill="none" stroke="black" d="M981.21,-71.75C981.96,-63.52 982.72,-55.17 983.4,-47.61"/>
<polygon fill="black" stroke="black" points="986.89,-47.96 984.3,-37.68 979.91,-47.32 986.89,-47.96"/>
</g>
<!-- 16675 -->
<g id="node26" class="node">
<title>16675</title>
<path fill="#eca16b" stroke="black" d="M1196.5,-166.25C1196.5,-166.25 1081.5,-166.25 1081.5,-166.25 1075.5,-166.25 1069.5,-160.25 1069.5,-154.25 1069.5,-154.25 1069.5,-84 1069.5,-84 1069.5,-78 1075.5,-72 1081.5,-72 1081.5,-72 1196.5,-72 1196.5,-72 1202.5,-72 1208.5,-78 1208.5,-84 1208.5,-84 1208.5,-154.25 1208.5,-154.25 1208.5,-160.25 1202.5,-166.25 1196.5,-166.25"/>
<text text-anchor="middle" x="1139" y="-148.95" font-family="Helvetica,sans-Serif" font-size="14.00">24_G &lt;= 0.5</text>
<text text-anchor="middle" x="1139" y="-131.7" font-family="Helvetica,sans-Serif" font-size="14.00">entropy = 0.728</text>
<text text-anchor="middle" x="1139" y="-114.45" font-family="Helvetica,sans-Serif" font-size="14.00">samples = 293</text>
<text text-anchor="middle" x="1139" y="-97.2" font-family="Helvetica,sans-Serif" font-size="14.00">value = [365, 93]</text>
<text text-anchor="middle" x="1139" y="-79.95" font-family="Helvetica,sans-Serif" font-size="14.00">class = Animal</text>
</g>
<!-- 16674&#45;&gt;16675 -->
<g id="edge25" class="edge">
<title>16674&#45;&gt;16675</title>
<path fill="none" stroke="black" d="M1139,-202.07C1139,-194.17 1139,-185.88 1139,-177.73"/>
<polygon fill="black" stroke="black" points="1142.5,-177.87 1139,-167.87 1135.5,-177.87 1142.5,-177.87"/>
</g>
<!-- 16806 -->
<g id="node29" class="node">
<title>16806</title>
<path fill="#e88e4d" stroke="black" d="M1353.5,-166.25C1353.5,-166.25 1238.5,-166.25 1238.5,-166.25 1232.5,-166.25 1226.5,-160.25 1226.5,-154.25 1226.5,-154.25 1226.5,-84 1226.5,-84 1226.5,-78 1232.5,-72 1238.5,-72 1238.5,-72 1353.5,-72 1353.5,-72 1359.5,-72 1365.5,-78 1365.5,-84 1365.5,-84 1365.5,-154.25 1365.5,-154.25 1365.5,-160.25 1359.5,-166.25 1353.5,-166.25"/>
<text text-anchor="middle" x="1296" y="-148.95" font-family="Helvetica,sans-Serif" font-size="14.00">6_U &lt;= 0.5</text>
<text text-anchor="middle" x="1296" y="-131.7" font-family="Helvetica,sans-Serif" font-size="14.00">entropy = 0.438</text>
<text text-anchor="middle" x="1296" y="-114.45" font-family="Helvetica,sans-Serif" font-size="14.00">samples = 209</text>
<text text-anchor="middle" x="1296" y="-97.2" font-family="Helvetica,sans-Serif" font-size="14.00">value = [292, 29]</text>
<text text-anchor="middle" x="1296" y="-79.95" font-family="Helvetica,sans-Serif" font-size="14.00">class = Animal</text>
</g>
<!-- 16674&#45;&gt;16806 -->
<g id="edge28" class="edge">
<title>16674&#45;&gt;16806</title>
<path fill="none" stroke="black" d="M1195.68,-202.07C1206.95,-192.87 1218.87,-183.13 1230.41,-173.71"/>
<polygon fill="black" stroke="black" points="1232.44,-176.57 1237.97,-167.53 1228.01,-171.15 1232.44,-176.57"/>
</g>
<!-- 16676 -->
<g id="node27" class="node">
<title>16676</title>
<path fill="#c0c0c0" stroke="black" d="M1106,-36C1106,-36 1076,-36 1076,-36 1070,-36 1064,-30 1064,-24 1064,-24 1064,-12 1064,-12 1064,-6 1070,0 1076,0 1076,0 1106,0 1106,0 1112,0 1118,-6 1118,-12 1118,-12 1118,-24 1118,-24 1118,-30 1112,-36 1106,-36"/>
<text text-anchor="middle" x="1091" y="-13.32" font-family="Helvetica,sans-Serif" font-size="14.00">(...)</text>
</g>
<!-- 16675&#45;&gt;16676 -->
<g id="edge26" class="edge">
<title>16675&#45;&gt;16676</title>
<path fill="none" stroke="black" d="M1116.55,-71.75C1112.37,-63.12 1108.12,-54.36 1104.33,-46.53"/>
<polygon fill="black" stroke="black" points="1107.48,-45.01 1099.98,-37.53 1101.18,-48.06 1107.48,-45.01"/>
</g>
<!-- 16797 -->
<g id="node28" class="node">
<title>16797</title>
<path fill="#c0c0c0" stroke="black" d="M1178,-36C1178,-36 1148,-36 1148,-36 1142,-36 1136,-30 1136,-24 1136,-24 1136,-12 1136,-12 1136,-6 1142,0 1148,0 1148,0 1178,0 1178,0 1184,0 1190,-6 1190,-12 1190,-12 1190,-24 1190,-24 1190,-30 1184,-36 1178,-36"/>
<text text-anchor="middle" x="1163" y="-13.32" font-family="Helvetica,sans-Serif" font-size="14.00">(...)</text>
</g>
<!-- 16675&#45;&gt;16797 -->
<g id="edge27" class="edge">
<title>16675&#45;&gt;16797</title>
<path fill="none" stroke="black" d="M1150.23,-71.75C1152.24,-63.42 1154.29,-54.97 1156.14,-47.34"/>
<polygon fill="black" stroke="black" points="1159.53,-48.19 1158.49,-37.64 1152.73,-46.54 1159.53,-48.19"/>
</g>
<!-- 16807 -->
<g id="node30" class="node">
<title>16807</title>
<path fill="#c0c0c0" stroke="black" d="M1275,-36C1275,-36 1245,-36 1245,-36 1239,-36 1233,-30 1233,-24 1233,-24 1233,-12 1233,-12 1233,-6 1239,0 1245,0 1245,0 1275,0 1275,0 1281,0 1287,-6 1287,-12 1287,-12 1287,-24 1287,-24 1287,-30 1281,-36 1275,-36"/>
<text text-anchor="middle" x="1260" y="-13.32" font-family="Helvetica,sans-Serif" font-size="14.00">(...)</text>
</g>
<!-- 16806&#45;&gt;16807 -->
<g id="edge29" class="edge">
<title>16806&#45;&gt;16807</title>
<path fill="none" stroke="black" d="M1279.16,-71.75C1276.06,-63.22 1272.92,-54.57 1270.1,-46.8"/>
<polygon fill="black" stroke="black" points="1273.46,-45.8 1266.75,-37.6 1266.88,-48.19 1273.46,-45.8"/>
</g>
<!-- 16842 -->
<g id="node31" class="node">
<title>16842</title>
<path fill="#c0c0c0" stroke="black" d="M1347,-36C1347,-36 1317,-36 1317,-36 1311,-36 1305,-30 1305,-24 1305,-24 1305,-12 1305,-12 1305,-6 1311,0 1317,0 1317,0 1347,0 1347,0 1353,0 1359,-6 1359,-12 1359,-12 1359,-24 1359,-24 1359,-30 1353,-36 1347,-36"/>
<text text-anchor="middle" x="1332" y="-13.32" font-family="Helvetica,sans-Serif" font-size="14.00">(...)</text>
</g>
<!-- 16806&#45;&gt;16842 -->
<g id="edge30" class="edge">
<title>16806&#45;&gt;16842</title>
<path fill="none" stroke="black" d="M1312.84,-71.75C1315.94,-63.22 1319.08,-54.57 1321.9,-46.8"/>
<polygon fill="black" stroke="black" points="1325.12,-48.19 1325.25,-37.6 1318.54,-45.8 1325.12,-48.19"/>
</g>
</g>
</svg>
