<?xml version="1.0" encoding="UTF-8" standalone="no"?>
<!DOCTYPE svg PUBLIC "-//W3C//DTD SVG 1.1//EN"
 "http://www.w3.org/Graphics/SVG/1.1/DTD/svg11.dtd">
<!-- Generated by graphviz version 12.0.0 (20240803.0821)
 -->
<!-- Title: Tree Pages: 1 -->
<svg width="1436pt" height="565pt"
 viewBox="0.00 0.00 1435.50 565.00" xmlns="http://www.w3.org/2000/svg" xmlns:xlink="http://www.w3.org/1999/xlink">
<g id="graph0" class="graph" transform="scale(1 1) rotate(0) translate(4 561)">
<title>Tree</title>
<polygon fill="white" stroke="none" points="-4,4 -4,-561 1431.5,-561 1431.5,4 -4,4"/>
<!-- 0 -->
<g id="node1" class="node">
<title>0</title>
<path fill="#fefeff" stroke="black" d="M790.5,-557C790.5,-557 630.5,-557 630.5,-557 624.5,-557 618.5,-551 618.5,-545 618.5,-545 618.5,-474.75 618.5,-474.75 618.5,-468.75 624.5,-462.75 630.5,-462.75 630.5,-462.75 790.5,-462.75 790.5,-462.75 796.5,-462.75 802.5,-468.75 802.5,-474.75 802.5,-474.75 802.5,-545 802.5,-545 802.5,-551 796.5,-557 790.5,-557"/>
<text text-anchor="middle" x="710.5" y="-539.7" font-family="Helvetica,sans-Serif" font-size="14.00">8_G &lt;= 0.5</text>
<text text-anchor="middle" x="710.5" y="-522.45" font-family="Helvetica,sans-Serif" font-size="14.00">entropy = 1.0</text>
<text text-anchor="middle" x="710.5" y="-505.2" font-family="Helvetica,sans-Serif" font-size="14.00">samples = 38094</text>
<text text-anchor="middle" x="710.5" y="-487.95" font-family="Helvetica,sans-Serif" font-size="14.00">value = [30090, 30255]</text>
<text text-anchor="middle" x="710.5" y="-470.7" font-family="Helvetica,sans-Serif" font-size="14.00">class = Plant</text>
</g>
<!-- 1 -->
<g id="node2" class="node">
<title>1</title>
<path fill="#fae7da" stroke="black" d="M618.5,-426.75C618.5,-426.75 458.5,-426.75 458.5,-426.75 452.5,-426.75 446.5,-420.75 446.5,-414.75 446.5,-414.75 446.5,-344.5 446.5,-344.5 446.5,-338.5 452.5,-332.5 458.5,-332.5 458.5,-332.5 618.5,-332.5 618.5,-332.5 624.5,-332.5 630.5,-338.5 630.5,-344.5 630.5,-344.5 630.5,-414.75 630.5,-414.75 630.5,-420.75 624.5,-426.75 618.5,-426.75"/>
<text text-anchor="middle" x="538.5" y="-409.45" font-family="Helvetica,sans-Serif" font-size="14.00">1_U &lt;= 0.5</text>
<text text-anchor="middle" x="538.5" y="-392.2" font-family="Helvetica,sans-Serif" font-size="14.00">entropy = 0.992</text>
<text text-anchor="middle" x="538.5" y="-374.95" font-family="Helvetica,sans-Serif" font-size="14.00">samples = 26281</text>
<text text-anchor="middle" x="538.5" y="-357.7" font-family="Helvetica,sans-Serif" font-size="14.00">value = [22874, 18595]</text>
<text text-anchor="middle" x="538.5" y="-340.45" font-family="Helvetica,sans-Serif" font-size="14.00">class = Animal</text>
</g>
<!-- 0&#45;&gt;1 -->
<g id="edge1" class="edge">
<title>0&#45;&gt;1</title>
<path fill="none" stroke="black" d="M648.4,-462.57C635.94,-453.28 622.74,-443.44 609.99,-433.93"/>
<polygon fill="black" stroke="black" points="612.12,-431.15 602.01,-427.98 607.93,-436.76 612.12,-431.15"/>
<text text-anchor="middle" x="604.4" y="-447.14" font-family="Helvetica,sans-Serif" font-size="14.00">True</text>
</g>
<!-- 12524 -->
<g id="node17" class="node">
<title>12524</title>
<path fill="#b4daf5" stroke="black" d="M978,-426.75C978,-426.75 827,-426.75 827,-426.75 821,-426.75 815,-420.75 815,-414.75 815,-414.75 815,-344.5 815,-344.5 815,-338.5 821,-332.5 827,-332.5 827,-332.5 978,-332.5 978,-332.5 984,-332.5 990,-338.5 990,-344.5 990,-344.5 990,-414.75 990,-414.75 990,-420.75 984,-426.75 978,-426.75"/>
<text text-anchor="middle" x="902.5" y="-409.45" font-family="Helvetica,sans-Serif" font-size="14.00">13_U &lt;= 0.5</text>
<text text-anchor="middle" x="902.5" y="-392.2" font-family="Helvetica,sans-Serif" font-size="14.00">entropy = 0.96</text>
<text text-anchor="middle" x="902.5" y="-374.95" font-family="Helvetica,sans-Serif" font-size="14.00">samples = 11813</text>
<text text-anchor="middle" x="902.5" y="-357.7" font-family="Helvetica,sans-Serif" font-size="14.00">value = [7216, 11660]</text>
<text text-anchor="middle" x="902.5" y="-340.45" font-family="Helvetica,sans-Serif" font-size="14.00">class = Plant</text>
</g>
<!-- 0&#45;&gt;12524 -->
<g id="edge16" class="edge">
<title>0&#45;&gt;12524</title>
<path fill="none" stroke="black" d="M780.09,-462.39C794.17,-452.98 809.08,-443.03 823.47,-433.42"/>
<polygon fill="black" stroke="black" points="825.2,-436.47 831.57,-428 821.31,-430.65 825.2,-436.47"/>
<text text-anchor="middle" x="827.95" y="-447.01" font-family="Helvetica,sans-Serif" font-size="14.00">False</text>
</g>
<!-- 2 -->
<g id="node3" class="node">
<title>2</title>
<path fill="#f5ceb2" stroke="black" d="M343,-296.5C343,-296.5 192,-296.5 192,-296.5 186,-296.5 180,-290.5 180,-284.5 180,-284.5 180,-214.25 180,-214.25 180,-208.25 186,-202.25 192,-202.25 192,-202.25 343,-202.25 343,-202.25 349,-202.25 355,-208.25 355,-214.25 355,-214.25 355,-284.5 355,-284.5 355,-290.5 349,-296.5 343,-296.5"/>
<text text-anchor="middle" x="267.5" y="-279.2" font-family="Helvetica,sans-Serif" font-size="14.00">23_U &lt;= 0.5</text>
<text text-anchor="middle" x="267.5" y="-261.95" font-family="Helvetica,sans-Serif" font-size="14.00">entropy = 0.957</text>
<text text-anchor="middle" x="267.5" y="-244.7" font-family="Helvetica,sans-Serif" font-size="14.00">samples = 12919</text>
<text text-anchor="middle" x="267.5" y="-227.45" font-family="Helvetica,sans-Serif" font-size="14.00">value = [12707, 7753]</text>
<text text-anchor="middle" x="267.5" y="-210.2" font-family="Helvetica,sans-Serif" font-size="14.00">class = Animal</text>
</g>
<!-- 1&#45;&gt;2 -->
<g id="edge2" class="edge">
<title>1&#45;&gt;2</title>
<path fill="none" stroke="black" d="M446.37,-335.03C420.36,-322.72 391.97,-309.28 365.63,-296.81"/>
<polygon fill="black" stroke="black" points="367.16,-293.66 356.62,-292.55 364.16,-299.99 367.16,-293.66"/>
</g>
<!-- 7073 -->
<g id="node10" class="node">
<title>7073</title>
<path fill="#f3f9fd" stroke="black" d="M618.5,-296.5C618.5,-296.5 458.5,-296.5 458.5,-296.5 452.5,-296.5 446.5,-290.5 446.5,-284.5 446.5,-284.5 446.5,-214.25 446.5,-214.25 446.5,-208.25 452.5,-202.25 458.5,-202.25 458.5,-202.25 618.5,-202.25 618.5,-202.25 624.5,-202.25 630.5,-208.25 630.5,-214.25 630.5,-214.25 630.5,-284.5 630.5,-284.5 630.5,-290.5 624.5,-296.5 618.5,-296.5"/>
<text text-anchor="middle" x="538.5" y="-279.2" font-family="Helvetica,sans-Serif" font-size="14.00">14_A &lt;= 0.5</text>
<text text-anchor="middle" x="538.5" y="-261.95" font-family="Helvetica,sans-Serif" font-size="14.00">entropy = 0.999</text>
<text text-anchor="middle" x="538.5" y="-244.7" font-family="Helvetica,sans-Serif" font-size="14.00">samples = 13362</text>
<text text-anchor="middle" x="538.5" y="-227.45" font-family="Helvetica,sans-Serif" font-size="14.00">value = [10167, 10842]</text>
<text text-anchor="middle" x="538.5" y="-210.2" font-family="Helvetica,sans-Serif" font-size="14.00">class = Plant</text>
</g>
<!-- 1&#45;&gt;7073 -->
<g id="edge9" class="edge">
<title>1&#45;&gt;7073</title>
<path fill="none" stroke="black" d="M538.5,-332.32C538.5,-324.42 538.5,-316.13 538.5,-307.98"/>
<polygon fill="black" stroke="black" points="542,-308.12 538.5,-298.12 535,-308.12 542,-308.12"/>
</g>
<!-- 3 -->
<g id="node4" class="node">
<title>3</title>
<path fill="#f6d2b8" stroke="black" d="M163,-166.25C163,-166.25 12,-166.25 12,-166.25 6,-166.25 0,-160.25 0,-154.25 0,-154.25 0,-84 0,-84 0,-78 6,-72 12,-72 12,-72 163,-72 163,-72 169,-72 175,-78 175,-84 175,-84 175,-154.25 175,-154.25 175,-160.25 169,-166.25 163,-166.25"/>
<text text-anchor="middle" x="87.5" y="-148.95" font-family="Helvetica,sans-Serif" font-size="14.00">2_G &lt;= 0.5</text>
<text text-anchor="middle" x="87.5" y="-131.7" font-family="Helvetica,sans-Serif" font-size="14.00">entropy = 0.965</text>
<text text-anchor="middle" x="87.5" y="-114.45" font-family="Helvetica,sans-Serif" font-size="14.00">samples = 12167</text>
<text text-anchor="middle" x="87.5" y="-97.2" font-family="Helvetica,sans-Serif" font-size="14.00">value = [11734, 7523]</text>
<text text-anchor="middle" x="87.5" y="-79.95" font-family="Helvetica,sans-Serif" font-size="14.00">class = Animal</text>
</g>
<!-- 2&#45;&gt;3 -->
<g id="edge3" class="edge">
<title>2&#45;&gt;3</title>
<path fill="none" stroke="black" d="M202.26,-201.89C189.18,-192.57 175.35,-182.72 161.98,-173.19"/>
<polygon fill="black" stroke="black" points="164.23,-170.49 154.05,-167.54 160.16,-176.2 164.23,-170.49"/>
</g>
<!-- 6742 -->
<g id="node7" class="node">
<title>6742</title>
<path fill="#eb9f68" stroke="black" d="M329.5,-166.25C329.5,-166.25 205.5,-166.25 205.5,-166.25 199.5,-166.25 193.5,-160.25 193.5,-154.25 193.5,-154.25 193.5,-84 193.5,-84 193.5,-78 199.5,-72 205.5,-72 205.5,-72 329.5,-72 329.5,-72 335.5,-72 341.5,-78 341.5,-84 341.5,-84 341.5,-154.25 341.5,-154.25 341.5,-160.25 335.5,-166.25 329.5,-166.25"/>
<text text-anchor="middle" x="267.5" y="-148.95" font-family="Helvetica,sans-Serif" font-size="14.00">10_G &lt;= 0.5</text>
<text text-anchor="middle" x="267.5" y="-131.7" font-family="Helvetica,sans-Serif" font-size="14.00">entropy = 0.704</text>
<text text-anchor="middle" x="267.5" y="-114.45" font-family="Helvetica,sans-Serif" font-size="14.00">samples = 752</text>
<text text-anchor="middle" x="267.5" y="-97.2" font-family="Helvetica,sans-Serif" font-size="14.00">value = [973, 230]</text>
<text text-anchor="middle" x="267.5" y="-79.95" font-family="Helvetica,sans-Serif" font-size="14.00">class = Animal</text>
</g>
<!-- 2&#45;&gt;6742 -->
<g id="edge6" class="edge">
<title>2&#45;&gt;6742</title>
<path fill="none" stroke="black" d="M267.5,-202.07C267.5,-194.17 267.5,-185.88 267.5,-177.73"/>
<polygon fill="black" stroke="black" points="271,-177.87 267.5,-167.87 264,-177.87 271,-177.87"/>
</g>
<!-- 4 -->
<g id="node5" class="node">
<title>4</title>
<path fill="#c0c0c0" stroke="black" d="M66.5,-36C66.5,-36 36.5,-36 36.5,-36 30.5,-36 24.5,-30 24.5,-24 24.5,-24 24.5,-12 24.5,-12 24.5,-6 30.5,0 36.5,0 36.5,0 66.5,0 66.5,0 72.5,0 78.5,-6 78.5,-12 78.5,-12 78.5,-24 78.5,-24 78.5,-30 72.5,-36 66.5,-36"/>
<text text-anchor="middle" x="51.5" y="-13.32" font-family="Helvetica,sans-Serif" font-size="14.00">(...)</text>
</g>
<!-- 3&#45;&gt;4 -->
<g id="edge4" class="edge">
<title>3&#45;&gt;4</title>
<path fill="none" stroke="black" d="M70.66,-71.75C67.56,-63.22 64.42,-54.57 61.6,-46.8"/>
<polygon fill="black" stroke="black" points="64.96,-45.8 58.25,-37.6 58.38,-48.19 64.96,-45.8"/>
</g>
<!-- 5019 -->
<g id="node6" class="node">
<title>5019</title>
<path fill="#c0c0c0" stroke="black" d="M138.5,-36C138.5,-36 108.5,-36 108.5,-36 102.5,-36 96.5,-30 96.5,-24 96.5,-24 96.5,-12 96.5,-12 96.5,-6 102.5,0 108.5,0 108.5,0 138.5,0 138.5,0 144.5,0 150.5,-6 150.5,-12 150.5,-12 150.5,-24 150.5,-24 150.5,-30 144.5,-36 138.5,-36"/>
<text text-anchor="middle" x="123.5" y="-13.32" font-family="Helvetica,sans-Serif" font-size="14.00">(...)</text>
</g>
<!-- 3&#45;&gt;5019 -->
<g id="edge5" class="edge">
<title>3&#45;&gt;5019</title>
<path fill="none" stroke="black" d="M104.34,-71.75C107.44,-63.22 110.58,-54.57 113.4,-46.8"/>
<polygon fill="black" stroke="black" points="116.62,-48.19 116.75,-37.6 110.04,-45.8 116.62,-48.19"/>
</g>
<!-- 6743 -->
<g id="node8" class="node">
<title>6743</title>
<path fill="#c0c0c0" stroke="black" d="M248.5,-36C248.5,-36 218.5,-36 218.5,-36 212.5,-36 206.5,-30 206.5,-24 206.5,-24 206.5,-12 206.5,-12 206.5,-6 212.5,0 218.5,0 218.5,0 248.5,0 248.5,0 254.5,0 260.5,-6 260.5,-12 260.5,-12 260.5,-24 260.5,-24 260.5,-30 254.5,-36 248.5,-36"/>
<text text-anchor="middle" x="233.5" y="-13.32" font-family="Helvetica,sans-Serif" font-size="14.00">(...)</text>
</g>
<!-- 6742&#45;&gt;6743 -->
<g id="edge7" class="edge">
<title>6742&#45;&gt;6743</title>
<path fill="none" stroke="black" d="M251.6,-71.75C248.67,-63.22 245.7,-54.57 243.03,-46.8"/>
<polygon fill="black" stroke="black" points="246.44,-45.93 239.88,-37.6 239.82,-48.2 246.44,-45.93"/>
</g>
<!-- 6970 -->
<g id="node9" class="node">
<title>6970</title>
<path fill="#c0c0c0" stroke="black" d="M320.5,-36C320.5,-36 290.5,-36 290.5,-36 284.5,-36 278.5,-30 278.5,-24 278.5,-24 278.5,-12 278.5,-12 278.5,-6 284.5,0 290.5,0 290.5,0 320.5,0 320.5,0 326.5,0 332.5,-6 332.5,-12 332.5,-12 332.5,-24 332.5,-24 332.5,-30 326.5,-36 320.5,-36"/>
<text text-anchor="middle" x="305.5" y="-13.32" font-family="Helvetica,sans-Serif" font-size="14.00">(...)</text>
</g>
<!-- 6742&#45;&gt;6970 -->
<g id="edge8" class="edge">
<title>6742&#45;&gt;6970</title>
<path fill="none" stroke="black" d="M285.28,-71.75C288.55,-63.22 291.87,-54.57 294.84,-46.8"/>
<polygon fill="black" stroke="black" points="298.06,-48.18 298.38,-37.59 291.53,-45.67 298.06,-48.18"/>
</g>
<!-- 7074 -->
<g id="node11" class="node">
<title>7074</title>
<path fill="#ddeefb" stroke="black" d="M513.5,-166.25C513.5,-166.25 371.5,-166.25 371.5,-166.25 365.5,-166.25 359.5,-160.25 359.5,-154.25 359.5,-154.25 359.5,-84 359.5,-84 359.5,-78 365.5,-72 371.5,-72 371.5,-72 513.5,-72 513.5,-72 519.5,-72 525.5,-78 525.5,-84 525.5,-84 525.5,-154.25 525.5,-154.25 525.5,-160.25 519.5,-166.25 513.5,-166.25"/>
<text text-anchor="middle" x="442.5" y="-148.95" font-family="Helvetica,sans-Serif" font-size="14.00">2_A &lt;= 0.5</text>
<text text-anchor="middle" x="442.5" y="-131.7" font-family="Helvetica,sans-Serif" font-size="14.00">entropy = 0.994</text>
<text text-anchor="middle" x="442.5" y="-114.45" font-family="Helvetica,sans-Serif" font-size="14.00">samples = 10503</text>
<text text-anchor="middle" x="442.5" y="-97.2" font-family="Helvetica,sans-Serif" font-size="14.00">value = [7497, 9029]</text>
<text text-anchor="middle" x="442.5" y="-79.95" font-family="Helvetica,sans-Serif" font-size="14.00">class = Plant</text>
</g>
<!-- 7073&#45;&gt;7074 -->
<g id="edge10" class="edge">
<title>7073&#45;&gt;7074</title>
<path fill="none" stroke="black" d="M503.84,-202.07C497.38,-193.45 490.58,-184.35 483.94,-175.49"/>
<polygon fill="black" stroke="black" points="486.81,-173.48 478.01,-167.57 481.2,-177.67 486.81,-173.48"/>
</g>
<!-- 11167 -->
<g id="node14" class="node">
<title>11167</title>
<path fill="#f7d7bf" stroke="black" d="M697.5,-166.25C697.5,-166.25 555.5,-166.25 555.5,-166.25 549.5,-166.25 543.5,-160.25 543.5,-154.25 543.5,-154.25 543.5,-84 543.5,-84 543.5,-78 549.5,-72 555.5,-72 555.5,-72 697.5,-72 697.5,-72 703.5,-72 709.5,-78 709.5,-84 709.5,-84 709.5,-154.25 709.5,-154.25 709.5,-160.25 703.5,-166.25 697.5,-166.25"/>
<text text-anchor="middle" x="626.5" y="-148.95" font-family="Helvetica,sans-Serif" font-size="14.00">20_G &lt;= 0.5</text>
<text text-anchor="middle" x="626.5" y="-131.7" font-family="Helvetica,sans-Serif" font-size="14.00">entropy = 0.973</text>
<text text-anchor="middle" x="626.5" y="-114.45" font-family="Helvetica,sans-Serif" font-size="14.00">samples = 2859</text>
<text text-anchor="middle" x="626.5" y="-97.2" font-family="Helvetica,sans-Serif" font-size="14.00">value = [2670, 1813]</text>
<text text-anchor="middle" x="626.5" y="-79.95" font-family="Helvetica,sans-Serif" font-size="14.00">class = Animal</text>
</g>
<!-- 7073&#45;&gt;11167 -->
<g id="edge13" class="edge">
<title>7073&#45;&gt;11167</title>
<path fill="none" stroke="black" d="M570.27,-202.07C576.13,-193.54 582.3,-184.54 588.32,-175.77"/>
<polygon fill="black" stroke="black" points="591.15,-177.83 593.92,-167.61 585.38,-173.87 591.15,-177.83"/>
</g>
<!-- 7075 -->
<g id="node12" class="node">
<title>7075</title>
<path fill="#c0c0c0" stroke="black" d="M427.5,-36C427.5,-36 397.5,-36 397.5,-36 391.5,-36 385.5,-30 385.5,-24 385.5,-24 385.5,-12 385.5,-12 385.5,-6 391.5,0 397.5,0 397.5,0 427.5,0 427.5,0 433.5,0 439.5,-6 439.5,-12 439.5,-12 439.5,-24 439.5,-24 439.5,-30 433.5,-36 427.5,-36"/>
<text text-anchor="middle" x="412.5" y="-13.32" font-family="Helvetica,sans-Serif" font-size="14.00">(...)</text>
</g>
<!-- 7074&#45;&gt;7075 -->
<g id="edge11" class="edge">
<title>7074&#45;&gt;7075</title>
<path fill="none" stroke="black" d="M428.47,-71.75C425.91,-63.32 423.32,-54.77 421,-47.07"/>
<polygon fill="black" stroke="black" points="424.38,-46.18 418.14,-37.62 417.68,-48.21 424.38,-46.18"/>
</g>
<!-- 10352 -->
<g id="node13" class="node">
<title>10352</title>
<path fill="#c0c0c0" stroke="black" d="M499.5,-36C499.5,-36 469.5,-36 469.5,-36 463.5,-36 457.5,-30 457.5,-24 457.5,-24 457.5,-12 457.5,-12 457.5,-6 463.5,0 469.5,0 469.5,0 499.5,0 499.5,0 505.5,0 511.5,-6 511.5,-12 511.5,-12 511.5,-24 511.5,-24 511.5,-30 505.5,-36 499.5,-36"/>
<text text-anchor="middle" x="484.5" y="-13.32" font-family="Helvetica,sans-Serif" font-size="14.00">(...)</text>
</g>
<!-- 7074&#45;&gt;10352 -->
<g id="edge12" class="edge">
<title>7074&#45;&gt;10352</title>
<path fill="none" stroke="black" d="M462.15,-71.75C465.8,-63.12 469.52,-54.36 472.84,-46.53"/>
<polygon fill="black" stroke="black" points="475.95,-48.14 476.63,-37.57 469.51,-45.41 475.95,-48.14"/>
</g>
<!-- 11168 -->
<g id="node15" class="node">
<title>11168</title>
<path fill="#c0c0c0" stroke="black" d="M589.5,-36C589.5,-36 559.5,-36 559.5,-36 553.5,-36 547.5,-30 547.5,-24 547.5,-24 547.5,-12 547.5,-12 547.5,-6 553.5,0 559.5,0 559.5,0 589.5,0 589.5,0 595.5,0 601.5,-6 601.5,-12 601.5,-12 601.5,-24 601.5,-24 601.5,-30 595.5,-36 589.5,-36"/>
<text text-anchor="middle" x="574.5" y="-13.32" font-family="Helvetica,sans-Serif" font-size="14.00">(...)</text>
</g>
<!-- 11167&#45;&gt;11168 -->
<g id="edge14" class="edge">
<title>11167&#45;&gt;11168</title>
<path fill="none" stroke="black" d="M602.17,-71.75C597.6,-63.03 592.95,-54.16 588.8,-46.26"/>
<polygon fill="black" stroke="black" points="591.96,-44.74 584.21,-37.51 585.76,-47.99 591.96,-44.74"/>
</g>
<!-- 12167 -->
<g id="node16" class="node">
<title>12167</title>
<path fill="#c0c0c0" stroke="black" d="M661.5,-36C661.5,-36 631.5,-36 631.5,-36 625.5,-36 619.5,-30 619.5,-24 619.5,-24 619.5,-12 619.5,-12 619.5,-6 625.5,0 631.5,0 631.5,0 661.5,0 661.5,0 667.5,0 673.5,-6 673.5,-12 673.5,-12 673.5,-24 673.5,-24 673.5,-30 667.5,-36 661.5,-36"/>
<text text-anchor="middle" x="646.5" y="-13.32" font-family="Helvetica,sans-Serif" font-size="14.00">(...)</text>
</g>
<!-- 11167&#45;&gt;12167 -->
<g id="edge15" class="edge">
<title>11167&#45;&gt;12167</title>
<path fill="none" stroke="black" d="M635.86,-71.75C637.54,-63.42 639.24,-54.97 640.78,-47.34"/>
<polygon fill="black" stroke="black" points="644.19,-48.15 642.74,-37.66 637.33,-46.77 644.19,-48.15"/>
</g>
<!-- 12525 -->
<g id="node18" class="node">
<title>12525</title>
<path fill="#95caf1" stroke="black" d="M973.5,-296.5C973.5,-296.5 831.5,-296.5 831.5,-296.5 825.5,-296.5 819.5,-290.5 819.5,-284.5 819.5,-284.5 819.5,-214.25 819.5,-214.25 819.5,-208.25 825.5,-202.25 831.5,-202.25 831.5,-202.25 973.5,-202.25 973.5,-202.25 979.5,-202.25 985.5,-208.25 985.5,-214.25 985.5,-214.25 985.5,-284.5 985.5,-284.5 985.5,-290.5 979.5,-296.5 973.5,-296.5"/>
<text text-anchor="middle" x="902.5" y="-279.2" font-family="Helvetica,sans-Serif" font-size="14.00">1_A &lt;= 0.5</text>
<text text-anchor="middle" x="902.5" y="-261.95" font-family="Helvetica,sans-Serif" font-size="14.00">entropy = 0.901</text>
<text text-anchor="middle" x="902.5" y="-244.7" font-family="Helvetica,sans-Serif" font-size="14.00">samples = 9155</text>
<text text-anchor="middle" x="902.5" y="-227.45" font-family="Helvetica,sans-Serif" font-size="14.00">value = [4620, 9962]</text>
<text text-anchor="middle" x="902.5" y="-210.2" font-family="Helvetica,sans-Serif" font-size="14.00">class = Plant</text>
</g>
<!-- 12524&#45;&gt;12525 -->
<g id="edge17" class="edge">
<title>12524&#45;&gt;12525</title>
<path fill="none" stroke="black" d="M902.5,-332.32C902.5,-324.42 902.5,-316.13 902.5,-307.98"/>
<polygon fill="black" stroke="black" points="906,-308.12 902.5,-298.12 899,-308.12 906,-308.12"/>
</g>
<!-- 15792 -->
<g id="node25" class="node">
<title>15792</title>
<path fill="#f6d3bb" stroke="black" d="M1249.5,-296.5C1249.5,-296.5 1107.5,-296.5 1107.5,-296.5 1101.5,-296.5 1095.5,-290.5 1095.5,-284.5 1095.5,-284.5 1095.5,-214.25 1095.5,-214.25 1095.5,-208.25 1101.5,-202.25 1107.5,-202.25 1107.5,-202.25 1249.5,-202.25 1249.5,-202.25 1255.5,-202.25 1261.5,-208.25 1261.5,-214.25 1261.5,-214.25 1261.5,-284.5 1261.5,-284.5 1261.5,-290.5 1255.5,-296.5 1249.5,-296.5"/>
<text text-anchor="middle" x="1178.5" y="-279.2" font-family="Helvetica,sans-Serif" font-size="14.00">17_C &lt;= 0.5</text>
<text text-anchor="middle" x="1178.5" y="-261.95" font-family="Helvetica,sans-Serif" font-size="14.00">entropy = 0.968</text>
<text text-anchor="middle" x="1178.5" y="-244.7" font-family="Helvetica,sans-Serif" font-size="14.00">samples = 2658</text>
<text text-anchor="middle" x="1178.5" y="-227.45" font-family="Helvetica,sans-Serif" font-size="14.00">value = [2596, 1698]</text>
<text text-anchor="middle" x="1178.5" y="-210.2" font-family="Helvetica,sans-Serif" font-size="14.00">class = Animal</text>
</g>
<!-- 12524&#45;&gt;15792 -->
<g id="edge24" class="edge">
<title>12524&#45;&gt;15792</title>
<path fill="none" stroke="black" d="M990.21,-337.87C1020.41,-323.83 1054.34,-308.07 1085,-293.82"/>
<polygon fill="black" stroke="black" points="1086.29,-297.08 1093.88,-289.69 1083.34,-290.73 1086.29,-297.08"/>
</g>
<!-- 12526 -->
<g id="node19" class="node">
<title>12526</title>
<path fill="#87c4ef" stroke="black" d="M881.5,-166.25C881.5,-166.25 739.5,-166.25 739.5,-166.25 733.5,-166.25 727.5,-160.25 727.5,-154.25 727.5,-154.25 727.5,-84 727.5,-84 727.5,-78 733.5,-72 739.5,-72 739.5,-72 881.5,-72 881.5,-72 887.5,-72 893.5,-78 893.5,-84 893.5,-84 893.5,-154.25 893.5,-154.25 893.5,-160.25 887.5,-166.25 881.5,-166.25"/>
<text text-anchor="middle" x="810.5" y="-148.95" font-family="Helvetica,sans-Serif" font-size="14.00">19_U &lt;= 0.5</text>
<text text-anchor="middle" x="810.5" y="-131.7" font-family="Helvetica,sans-Serif" font-size="14.00">entropy = 0.858</text>
<text text-anchor="middle" x="810.5" y="-114.45" font-family="Helvetica,sans-Serif" font-size="14.00">samples = 7613</text>
<text text-anchor="middle" x="810.5" y="-97.2" font-family="Helvetica,sans-Serif" font-size="14.00">value = [3429, 8726]</text>
<text text-anchor="middle" x="810.5" y="-79.95" font-family="Helvetica,sans-Serif" font-size="14.00">class = Plant</text>
</g>
<!-- 12525&#45;&gt;12526 -->
<g id="edge18" class="edge">
<title>12525&#45;&gt;12526</title>
<path fill="none" stroke="black" d="M869.29,-202.07C863.1,-193.45 856.57,-184.35 850.21,-175.49"/>
<polygon fill="black" stroke="black" points="853.22,-173.67 844.55,-167.59 847.53,-177.75 853.22,-173.67"/>
</g>
<!-- 15039 -->
<g id="node22" class="node">
<title>15039</title>
<path fill="#f8fbfe" stroke="black" d="M1065.5,-166.25C1065.5,-166.25 923.5,-166.25 923.5,-166.25 917.5,-166.25 911.5,-160.25 911.5,-154.25 911.5,-154.25 911.5,-84 911.5,-84 911.5,-78 917.5,-72 923.5,-72 923.5,-72 1065.5,-72 1065.5,-72 1071.5,-72 1077.5,-78 1077.5,-84 1077.5,-84 1077.5,-154.25 1077.5,-154.25 1077.5,-160.25 1071.5,-166.25 1065.5,-166.25"/>
<text text-anchor="middle" x="994.5" y="-148.95" font-family="Helvetica,sans-Serif" font-size="14.00">12_G &lt;= 0.5</text>
<text text-anchor="middle" x="994.5" y="-131.7" font-family="Helvetica,sans-Serif" font-size="14.00">entropy = 1.0</text>
<text text-anchor="middle" x="994.5" y="-114.45" font-family="Helvetica,sans-Serif" font-size="14.00">samples = 1542</text>
<text text-anchor="middle" x="994.5" y="-97.2" font-family="Helvetica,sans-Serif" font-size="14.00">value = [1191, 1236]</text>
<text text-anchor="middle" x="994.5" y="-79.95" font-family="Helvetica,sans-Serif" font-size="14.00">class = Plant</text>
</g>
<!-- 12525&#45;&gt;15039 -->
<g id="edge21" class="edge">
<title>12525&#45;&gt;15039</title>
<path fill="none" stroke="black" d="M935.71,-202.07C941.9,-193.45 948.43,-184.35 954.79,-175.49"/>
<polygon fill="black" stroke="black" points="957.47,-177.75 960.45,-167.59 951.78,-173.67 957.47,-177.75"/>
</g>
<!-- 12527 -->
<g id="node20" class="node">
<title>12527</title>
<path fill="#c0c0c0" stroke="black" d="M773.5,-36C773.5,-36 743.5,-36 743.5,-36 737.5,-36 731.5,-30 731.5,-24 731.5,-24 731.5,-12 731.5,-12 731.5,-6 737.5,0 743.5,0 743.5,0 773.5,0 773.5,0 779.5,0 785.5,-6 785.5,-12 785.5,-12 785.5,-24 785.5,-24 785.5,-30 779.5,-36 773.5,-36"/>
<text text-anchor="middle" x="758.5" y="-13.32" font-family="Helvetica,sans-Serif" font-size="14.00">(...)</text>
</g>
<!-- 12526&#45;&gt;12527 -->
<g id="edge19" class="edge">
<title>12526&#45;&gt;12527</title>
<path fill="none" stroke="black" d="M786.17,-71.75C781.6,-63.03 776.95,-54.16 772.8,-46.26"/>
<polygon fill="black" stroke="black" points="775.96,-44.74 768.21,-37.51 769.76,-47.99 775.96,-44.74"/>
</g>
<!-- 14446 -->
<g id="node21" class="node">
<title>14446</title>
<path fill="#c0c0c0" stroke="black" d="M845.5,-36C845.5,-36 815.5,-36 815.5,-36 809.5,-36 803.5,-30 803.5,-24 803.5,-24 803.5,-12 803.5,-12 803.5,-6 809.5,0 815.5,0 815.5,0 845.5,0 845.5,0 851.5,0 857.5,-6 857.5,-12 857.5,-12 857.5,-24 857.5,-24 857.5,-30 851.5,-36 845.5,-36"/>
<text text-anchor="middle" x="830.5" y="-13.32" font-family="Helvetica,sans-Serif" font-size="14.00">(...)</text>
</g>
<!-- 12526&#45;&gt;14446 -->
<g id="edge20" class="edge">
<title>12526&#45;&gt;14446</title>
<path fill="none" stroke="black" d="M819.86,-71.75C821.54,-63.42 823.24,-54.97 824.78,-47.34"/>
<polygon fill="black" stroke="black" points="828.19,-48.15 826.74,-37.66 821.33,-46.77 828.19,-48.15"/>
</g>
<!-- 15040 -->
<g id="node23" class="node">
<title>15040</title>
<path fill="#c0c0c0" stroke="black" d="M957.5,-36C957.5,-36 927.5,-36 927.5,-36 921.5,-36 915.5,-30 915.5,-24 915.5,-24 915.5,-12 915.5,-12 915.5,-6 921.5,0 927.5,0 927.5,0 957.5,0 957.5,0 963.5,0 969.5,-6 969.5,-12 969.5,-12 969.5,-24 969.5,-24 969.5,-30 963.5,-36 957.5,-36"/>
<text text-anchor="middle" x="942.5" y="-13.32" font-family="Helvetica,sans-Serif" font-size="14.00">(...)</text>
</g>
<!-- 15039&#45;&gt;15040 -->
<g id="edge22" class="edge">
<title>15039&#45;&gt;15040</title>
<path fill="none" stroke="black" d="M970.17,-71.75C965.6,-63.03 960.95,-54.16 956.8,-46.26"/>
<polygon fill="black" stroke="black" points="959.96,-44.74 952.21,-37.51 953.76,-47.99 959.96,-44.74"/>
</g>
<!-- 15595 -->
<g id="node24" class="node">
<title>15595</title>
<path fill="#c0c0c0" stroke="black" d="M1029.5,-36C1029.5,-36 999.5,-36 999.5,-36 993.5,-36 987.5,-30 987.5,-24 987.5,-24 987.5,-12 987.5,-12 987.5,-6 993.5,0 999.5,0 999.5,0 1029.5,0 1029.5,0 1035.5,0 1041.5,-6 1041.5,-12 1041.5,-12 1041.5,-24 1041.5,-24 1041.5,-30 1035.5,-36 1029.5,-36"/>
<text text-anchor="middle" x="1014.5" y="-13.32" font-family="Helvetica,sans-Serif" font-size="14.00">(...)</text>
</g>
<!-- 15039&#45;&gt;15595 -->
<g id="edge23" class="edge">
<title>15039&#45;&gt;15595</title>
<path fill="none" stroke="black" d="M1003.86,-71.75C1005.54,-63.42 1007.24,-54.97 1008.78,-47.34"/>
<polygon fill="black" stroke="black" points="1012.19,-48.15 1010.74,-37.66 1005.33,-46.77 1012.19,-48.15"/>
</g>
<!-- 15793 -->
<g id="node26" class="node">
<title>15793</title>
<path fill="#f2c09d" stroke="black" d="M1249.5,-166.25C1249.5,-166.25 1107.5,-166.25 1107.5,-166.25 1101.5,-166.25 1095.5,-160.25 1095.5,-154.25 1095.5,-154.25 1095.5,-84 1095.5,-84 1095.5,-78 1101.5,-72 1107.5,-72 1107.5,-72 1249.5,-72 1249.5,-72 1255.5,-72 1261.5,-78 1261.5,-84 1261.5,-84 1261.5,-154.25 1261.5,-154.25 1261.5,-160.25 1255.5,-166.25 1249.5,-166.25"/>
<text text-anchor="middle" x="1178.5" y="-148.95" font-family="Helvetica,sans-Serif" font-size="14.00">22_U &lt;= 0.5</text>
<text text-anchor="middle" x="1178.5" y="-131.7" font-family="Helvetica,sans-Serif" font-size="14.00">entropy = 0.919</text>
<text text-anchor="middle" x="1178.5" y="-114.45" font-family="Helvetica,sans-Serif" font-size="14.00">samples = 2050</text>
<text text-anchor="middle" x="1178.5" y="-97.2" font-family="Helvetica,sans-Serif" font-size="14.00">value = [2222, 1117]</text>
<text text-anchor="middle" x="1178.5" y="-79.95" font-family="Helvetica,sans-Serif" font-size="14.00">class = Animal</text>
</g>
<!-- 15792&#45;&gt;15793 -->
<g id="edge25" class="edge">
<title>15792&#45;&gt;15793</title>
<path fill="none" stroke="black" d="M1178.5,-202.07C1178.5,-194.17 1178.5,-185.88 1178.5,-177.73"/>
<polygon fill="black" stroke="black" points="1182,-177.87 1178.5,-167.87 1175,-177.87 1182,-177.87"/>
</g>
<!-- 16828 -->
<g id="node29" class="node">
<title>16828</title>
<path fill="#b8dcf6" stroke="black" d="M1415.5,-166.25C1415.5,-166.25 1291.5,-166.25 1291.5,-166.25 1285.5,-166.25 1279.5,-160.25 1279.5,-154.25 1279.5,-154.25 1279.5,-84 1279.5,-84 1279.5,-78 1285.5,-72 1291.5,-72 1291.5,-72 1415.5,-72 1415.5,-72 1421.5,-72 1427.5,-78 1427.5,-84 1427.5,-84 1427.5,-154.25 1427.5,-154.25 1427.5,-160.25 1421.5,-166.25 1415.5,-166.25"/>
<text text-anchor="middle" x="1353.5" y="-148.95" font-family="Helvetica,sans-Serif" font-size="14.00">12_U &lt;= 0.5</text>
<text text-anchor="middle" x="1353.5" y="-131.7" font-family="Helvetica,sans-Serif" font-size="14.00">entropy = 0.966</text>
<text text-anchor="middle" x="1353.5" y="-114.45" font-family="Helvetica,sans-Serif" font-size="14.00">samples = 608</text>
<text text-anchor="middle" x="1353.5" y="-97.2" font-family="Helvetica,sans-Serif" font-size="14.00">value = [374, 581]</text>
<text text-anchor="middle" x="1353.5" y="-79.95" font-family="Helvetica,sans-Serif" font-size="14.00">class = Plant</text>
</g>
<!-- 15792&#45;&gt;16828 -->
<g id="edge28" class="edge">
<title>15792&#45;&gt;16828</title>
<path fill="none" stroke="black" d="M1241.68,-202.07C1254.49,-192.69 1268.05,-182.75 1281.14,-173.15"/>
<polygon fill="black" stroke="black" points="1282.9,-176.2 1288.9,-167.47 1278.76,-170.56 1282.9,-176.2"/>
</g>
<!-- 15794 -->
<g id="node27" class="node">
<title>15794</title>
<path fill="#c0c0c0" stroke="black" d="M1154.5,-36C1154.5,-36 1124.5,-36 1124.5,-36 1118.5,-36 1112.5,-30 1112.5,-24 1112.5,-24 1112.5,-12 1112.5,-12 1112.5,-6 1118.5,0 1124.5,0 1124.5,0 1154.5,0 1154.5,0 1160.5,0 1166.5,-6 1166.5,-12 1166.5,-12 1166.5,-24 1166.5,-24 1166.5,-30 1160.5,-36 1154.5,-36"/>
<text text-anchor="middle" x="1139.5" y="-13.32" font-family="Helvetica,sans-Serif" font-size="14.00">(...)</text>
</g>
<!-- 15793&#45;&gt;15794 -->
<g id="edge26" class="edge">
<title>15793&#45;&gt;15794</title>
<path fill="none" stroke="black" d="M1160.26,-71.75C1156.9,-63.22 1153.49,-54.57 1150.44,-46.8"/>
<polygon fill="black" stroke="black" points="1153.73,-45.61 1146.81,-37.58 1147.21,-48.17 1153.73,-45.61"/>
</g>
<!-- 16717 -->
<g id="node28" class="node">
<title>16717</title>
<path fill="#c0c0c0" stroke="black" d="M1226.5,-36C1226.5,-36 1196.5,-36 1196.5,-36 1190.5,-36 1184.5,-30 1184.5,-24 1184.5,-24 1184.5,-12 1184.5,-12 1184.5,-6 1190.5,0 1196.5,0 1196.5,0 1226.5,0 1226.5,0 1232.5,0 1238.5,-6 1238.5,-12 1238.5,-12 1238.5,-24 1238.5,-24 1238.5,-30 1232.5,-36 1226.5,-36"/>
<text text-anchor="middle" x="1211.5" y="-13.32" font-family="Helvetica,sans-Serif" font-size="14.00">(...)</text>
</g>
<!-- 15793&#45;&gt;16717 -->
<g id="edge27" class="edge">
<title>15793&#45;&gt;16717</title>
<path fill="none" stroke="black" d="M1193.94,-71.75C1196.74,-63.32 1199.59,-54.77 1202.16,-47.07"/>
<polygon fill="black" stroke="black" points="1205.47,-48.2 1205.3,-37.61 1198.83,-45.99 1205.47,-48.2"/>
</g>
<!-- 16829 -->
<g id="node30" class="node">
<title>16829</title>
<path fill="#c0c0c0" stroke="black" d="M1332.5,-36C1332.5,-36 1302.5,-36 1302.5,-36 1296.5,-36 1290.5,-30 1290.5,-24 1290.5,-24 1290.5,-12 1290.5,-12 1290.5,-6 1296.5,0 1302.5,0 1302.5,0 1332.5,0 1332.5,0 1338.5,0 1344.5,-6 1344.5,-12 1344.5,-12 1344.5,-24 1344.5,-24 1344.5,-30 1338.5,-36 1332.5,-36"/>
<text text-anchor="middle" x="1317.5" y="-13.32" font-family="Helvetica,sans-Serif" font-size="14.00">(...)</text>
</g>
<!-- 16828&#45;&gt;16829 -->
<g id="edge29" class="edge">
<title>16828&#45;&gt;16829</title>
<path fill="none" stroke="black" d="M1336.66,-71.75C1333.56,-63.22 1330.42,-54.57 1327.6,-46.8"/>
<polygon fill="black" stroke="black" points="1330.96,-45.8 1324.25,-37.6 1324.38,-48.19 1330.96,-45.8"/>
</g>
<!-- 17020 -->
<g id="node31" class="node">
<title>17020</title>
<path fill="#c0c0c0" stroke="black" d="M1404.5,-36C1404.5,-36 1374.5,-36 1374.5,-36 1368.5,-36 1362.5,-30 1362.5,-24 1362.5,-24 1362.5,-12 1362.5,-12 1362.5,-6 1368.5,0 1374.5,0 1374.5,0 1404.5,0 1404.5,0 1410.5,0 1416.5,-6 1416.5,-12 1416.5,-12 1416.5,-24 1416.5,-24 1416.5,-30 1410.5,-36 1404.5,-36"/>
<text text-anchor="middle" x="1389.5" y="-13.32" font-family="Helvetica,sans-Serif" font-size="14.00">(...)</text>
</g>
<!-- 16828&#45;&gt;17020 -->
<g id="edge30" class="edge">
<title>16828&#45;&gt;17020</title>
<path fill="none" stroke="black" d="M1370.34,-71.75C1373.44,-63.22 1376.58,-54.57 1379.4,-46.8"/>
<polygon fill="black" stroke="black" points="1382.62,-48.19 1382.75,-37.6 1376.04,-45.8 1382.62,-48.19"/>
</g>
</g>
</svg>
