<?xml version="1.0" encoding="UTF-8" standalone="no"?>
<!DOCTYPE svg PUBLIC "-//W3C//DTD SVG 1.1//EN"
 "http://www.w3.org/Graphics/SVG/1.1/DTD/svg11.dtd">
<!-- Generated by graphviz version 12.0.0 (20240803.0821)
 -->
<!-- Title: Tree Pages: 1 -->
<svg width="1438pt" height="565pt"
 viewBox="0.00 0.00 1438.00 565.00" xmlns="http://www.w3.org/2000/svg" xmlns:xlink="http://www.w3.org/1999/xlink">
<g id="graph0" class="graph" transform="scale(1 1) rotate(0) translate(4 561)">
<title>Tree</title>
<polygon fill="white" stroke="none" points="-4,4 -4,-561 1434,-561 1434,4 -4,4"/>
<!-- 0 -->
<g id="node1" class="node">
<title>0</title>
<path fill="#fcfdff" stroke="black" d="M802,-557C802,-557 642,-557 642,-557 636,-557 630,-551 630,-545 630,-545 630,-474.75 630,-474.75 630,-468.75 636,-462.75 642,-462.75 642,-462.75 802,-462.75 802,-462.75 808,-462.75 814,-468.75 814,-474.75 814,-474.75 814,-545 814,-545 814,-551 808,-557 802,-557"/>
<text text-anchor="middle" x="722" y="-539.7" font-family="Helvetica,sans-Serif" font-size="14.00">10_A &lt;= 0.5</text>
<text text-anchor="middle" x="722" y="-522.45" font-family="Helvetica,sans-Serif" font-size="14.00">entropy = 1.0</text>
<text text-anchor="middle" x="722" y="-505.2" font-family="Helvetica,sans-Serif" font-size="14.00">samples = 38046</text>
<text text-anchor="middle" x="722" y="-487.95" font-family="Helvetica,sans-Serif" font-size="14.00">value = [29925, 30420]</text>
<text text-anchor="middle" x="722" y="-470.7" font-family="Helvetica,sans-Serif" font-size="14.00">class = Plant</text>
</g>
<!-- 1 -->
<g id="node2" class="node">
<title>1</title>
<path fill="#fcf1e8" stroke="black" d="M624,-426.75C624,-426.75 464,-426.75 464,-426.75 458,-426.75 452,-420.75 452,-414.75 452,-414.75 452,-344.5 452,-344.5 452,-338.5 458,-332.5 464,-332.5 464,-332.5 624,-332.5 624,-332.5 630,-332.5 636,-338.5 636,-344.5 636,-344.5 636,-414.75 636,-414.75 636,-420.75 630,-426.75 624,-426.75"/>
<text text-anchor="middle" x="544" y="-409.45" font-family="Helvetica,sans-Serif" font-size="14.00">2_A &lt;= 0.5</text>
<text text-anchor="middle" x="544" y="-392.2" font-family="Helvetica,sans-Serif" font-size="14.00">entropy = 0.997</text>
<text text-anchor="middle" x="544" y="-374.95" font-family="Helvetica,sans-Serif" font-size="14.00">samples = 27214</text>
<text text-anchor="middle" x="544" y="-357.7" font-family="Helvetica,sans-Serif" font-size="14.00">value = [22892, 20276]</text>
<text text-anchor="middle" x="544" y="-340.45" font-family="Helvetica,sans-Serif" font-size="14.00">class = Animal</text>
</g>
<!-- 0&#45;&gt;1 -->
<g id="edge1" class="edge">
<title>0&#45;&gt;1</title>
<path fill="none" stroke="black" d="M657.49,-462.39C644.55,-453.07 630.87,-443.22 617.65,-433.69"/>
<polygon fill="black" stroke="black" points="619.98,-431.06 609.82,-428.05 615.89,-436.73 619.98,-431.06"/>
<text text-anchor="middle" x="612.6" y="-447.17" font-family="Helvetica,sans-Serif" font-size="14.00">True</text>
</g>
<!-- 12986 -->
<g id="node17" class="node">
<title>12986</title>
<path fill="#c2e1f7" stroke="black" d="M984.5,-426.75C984.5,-426.75 833.5,-426.75 833.5,-426.75 827.5,-426.75 821.5,-420.75 821.5,-414.75 821.5,-414.75 821.5,-344.5 821.5,-344.5 821.5,-338.5 827.5,-332.5 833.5,-332.5 833.5,-332.5 984.5,-332.5 984.5,-332.5 990.5,-332.5 996.5,-338.5 996.5,-344.5 996.5,-344.5 996.5,-414.75 996.5,-414.75 996.5,-420.75 990.5,-426.75 984.5,-426.75"/>
<text text-anchor="middle" x="909" y="-409.45" font-family="Helvetica,sans-Serif" font-size="14.00">9_G &lt;= 0.5</text>
<text text-anchor="middle" x="909" y="-392.2" font-family="Helvetica,sans-Serif" font-size="14.00">entropy = 0.976</text>
<text text-anchor="middle" x="909" y="-374.95" font-family="Helvetica,sans-Serif" font-size="14.00">samples = 10832</text>
<text text-anchor="middle" x="909" y="-357.7" font-family="Helvetica,sans-Serif" font-size="14.00">value = [7033, 10144]</text>
<text text-anchor="middle" x="909" y="-340.45" font-family="Helvetica,sans-Serif" font-size="14.00">class = Plant</text>
</g>
<!-- 0&#45;&gt;12986 -->
<g id="edge16" class="edge">
<title>0&#45;&gt;12986</title>
<path fill="none" stroke="black" d="M789.78,-462.39C803.49,-452.98 818.01,-443.03 832.02,-433.42"/>
<polygon fill="black" stroke="black" points="833.63,-436.56 839.89,-428.02 829.67,-430.79 833.63,-436.56"/>
<text text-anchor="middle" x="836.56" y="-447.07" font-family="Helvetica,sans-Serif" font-size="14.00">False</text>
</g>
<!-- 2 -->
<g id="node3" class="node">
<title>2</title>
<path fill="#eef6fd" stroke="black" d="M352,-296.5C352,-296.5 192,-296.5 192,-296.5 186,-296.5 180,-290.5 180,-284.5 180,-284.5 180,-214.25 180,-214.25 180,-208.25 186,-202.25 192,-202.25 192,-202.25 352,-202.25 352,-202.25 358,-202.25 364,-208.25 364,-214.25 364,-214.25 364,-284.5 364,-284.5 364,-290.5 358,-296.5 352,-296.5"/>
<text text-anchor="middle" x="272" y="-279.2" font-family="Helvetica,sans-Serif" font-size="14.00">1_U &lt;= 0.5</text>
<text text-anchor="middle" x="272" y="-261.95" font-family="Helvetica,sans-Serif" font-size="14.00">entropy = 0.998</text>
<text text-anchor="middle" x="272" y="-244.7" font-family="Helvetica,sans-Serif" font-size="14.00">samples = 20907</text>
<text text-anchor="middle" x="272" y="-227.45" font-family="Helvetica,sans-Serif" font-size="14.00">value = [15829, 17353]</text>
<text text-anchor="middle" x="272" y="-210.2" font-family="Helvetica,sans-Serif" font-size="14.00">class = Plant</text>
</g>
<!-- 1&#45;&gt;2 -->
<g id="edge2" class="edge">
<title>1&#45;&gt;2</title>
<path fill="none" stroke="black" d="M451.53,-335.03C426.76,-323.35 399.84,-310.65 374.56,-298.73"/>
<polygon fill="black" stroke="black" points="376.12,-295.6 365.58,-294.5 373.13,-301.93 376.12,-295.6"/>
</g>
<!-- 9835 -->
<g id="node10" class="node">
<title>9835</title>
<path fill="#f0b58b" stroke="black" d="M615,-296.5C615,-296.5 473,-296.5 473,-296.5 467,-296.5 461,-290.5 461,-284.5 461,-284.5 461,-214.25 461,-214.25 461,-208.25 467,-202.25 473,-202.25 473,-202.25 615,-202.25 615,-202.25 621,-202.25 627,-208.25 627,-214.25 627,-214.25 627,-284.5 627,-284.5 627,-290.5 621,-296.5 615,-296.5"/>
<text text-anchor="middle" x="544" y="-279.2" font-family="Helvetica,sans-Serif" font-size="14.00">12_C &lt;= 0.5</text>
<text text-anchor="middle" x="544" y="-261.95" font-family="Helvetica,sans-Serif" font-size="14.00">entropy = 0.872</text>
<text text-anchor="middle" x="544" y="-244.7" font-family="Helvetica,sans-Serif" font-size="14.00">samples = 6307</text>
<text text-anchor="middle" x="544" y="-227.45" font-family="Helvetica,sans-Serif" font-size="14.00">value = [7063, 2923]</text>
<text text-anchor="middle" x="544" y="-210.2" font-family="Helvetica,sans-Serif" font-size="14.00">class = Animal</text>
</g>
<!-- 1&#45;&gt;9835 -->
<g id="edge9" class="edge">
<title>1&#45;&gt;9835</title>
<path fill="none" stroke="black" d="M544,-332.32C544,-324.42 544,-316.13 544,-307.98"/>
<polygon fill="black" stroke="black" points="547.5,-308.12 544,-298.12 540.5,-308.12 547.5,-308.12"/>
</g>
<!-- 3 -->
<g id="node4" class="node">
<title>3</title>
<path fill="#f7d8c1" stroke="black" d="M154,-166.25C154,-166.25 12,-166.25 12,-166.25 6,-166.25 0,-160.25 0,-154.25 0,-154.25 0,-84 0,-84 0,-78 6,-72 12,-72 12,-72 154,-72 154,-72 160,-72 166,-78 166,-84 166,-84 166,-154.25 166,-154.25 166,-160.25 160,-166.25 154,-166.25"/>
<text text-anchor="middle" x="83" y="-148.95" font-family="Helvetica,sans-Serif" font-size="14.00">23_A &lt;= 0.5</text>
<text text-anchor="middle" x="83" y="-131.7" font-family="Helvetica,sans-Serif" font-size="14.00">entropy = 0.975</text>
<text text-anchor="middle" x="83" y="-114.45" font-family="Helvetica,sans-Serif" font-size="14.00">samples = 9493</text>
<text text-anchor="middle" x="83" y="-97.2" font-family="Helvetica,sans-Serif" font-size="14.00">value = [8949, 6151]</text>
<text text-anchor="middle" x="83" y="-79.95" font-family="Helvetica,sans-Serif" font-size="14.00">class = Animal</text>
</g>
<!-- 2&#45;&gt;3 -->
<g id="edge3" class="edge">
<title>2&#45;&gt;3</title>
<path fill="none" stroke="black" d="M203.5,-201.89C189.63,-192.48 174.96,-182.53 160.8,-172.92"/>
<polygon fill="black" stroke="black" points="163.08,-170.23 152.84,-167.51 159.15,-176.03 163.08,-170.23"/>
</g>
<!-- 5318 -->
<g id="node7" class="node">
<title>5318</title>
<path fill="#b3d9f5" stroke="black" d="M347.5,-166.25C347.5,-166.25 196.5,-166.25 196.5,-166.25 190.5,-166.25 184.5,-160.25 184.5,-154.25 184.5,-154.25 184.5,-84 184.5,-84 184.5,-78 190.5,-72 196.5,-72 196.5,-72 347.5,-72 347.5,-72 353.5,-72 359.5,-78 359.5,-84 359.5,-84 359.5,-154.25 359.5,-154.25 359.5,-160.25 353.5,-166.25 347.5,-166.25"/>
<text text-anchor="middle" x="272" y="-148.95" font-family="Helvetica,sans-Serif" font-size="14.00">22_C &lt;= 0.5</text>
<text text-anchor="middle" x="272" y="-131.7" font-family="Helvetica,sans-Serif" font-size="14.00">entropy = 0.958</text>
<text text-anchor="middle" x="272" y="-114.45" font-family="Helvetica,sans-Serif" font-size="14.00">samples = 11414</text>
<text text-anchor="middle" x="272" y="-97.2" font-family="Helvetica,sans-Serif" font-size="14.00">value = [6880, 11202]</text>
<text text-anchor="middle" x="272" y="-79.95" font-family="Helvetica,sans-Serif" font-size="14.00">class = Plant</text>
</g>
<!-- 2&#45;&gt;5318 -->
<g id="edge6" class="edge">
<title>2&#45;&gt;5318</title>
<path fill="none" stroke="black" d="M272,-202.07C272,-194.17 272,-185.88 272,-177.73"/>
<polygon fill="black" stroke="black" points="275.5,-177.87 272,-167.87 268.5,-177.87 275.5,-177.87"/>
</g>
<!-- 4 -->
<g id="node5" class="node">
<title>4</title>
<path fill="#c0c0c0" stroke="black" d="M62,-36C62,-36 32,-36 32,-36 26,-36 20,-30 20,-24 20,-24 20,-12 20,-12 20,-6 26,0 32,0 32,0 62,0 62,0 68,0 74,-6 74,-12 74,-12 74,-24 74,-24 74,-30 68,-36 62,-36"/>
<text text-anchor="middle" x="47" y="-13.32" font-family="Helvetica,sans-Serif" font-size="14.00">(...)</text>
</g>
<!-- 3&#45;&gt;4 -->
<g id="edge4" class="edge">
<title>3&#45;&gt;4</title>
<path fill="none" stroke="black" d="M66.16,-71.75C63.06,-63.22 59.92,-54.57 57.1,-46.8"/>
<polygon fill="black" stroke="black" points="60.46,-45.8 53.75,-37.6 53.88,-48.19 60.46,-45.8"/>
</g>
<!-- 5067 -->
<g id="node6" class="node">
<title>5067</title>
<path fill="#c0c0c0" stroke="black" d="M134,-36C134,-36 104,-36 104,-36 98,-36 92,-30 92,-24 92,-24 92,-12 92,-12 92,-6 98,0 104,0 104,0 134,0 134,0 140,0 146,-6 146,-12 146,-12 146,-24 146,-24 146,-30 140,-36 134,-36"/>
<text text-anchor="middle" x="119" y="-13.32" font-family="Helvetica,sans-Serif" font-size="14.00">(...)</text>
</g>
<!-- 3&#45;&gt;5067 -->
<g id="edge5" class="edge">
<title>3&#45;&gt;5067</title>
<path fill="none" stroke="black" d="M99.84,-71.75C102.94,-63.22 106.08,-54.57 108.9,-46.8"/>
<polygon fill="black" stroke="black" points="112.12,-48.19 112.25,-37.6 105.54,-45.8 112.12,-48.19"/>
</g>
<!-- 5319 -->
<g id="node8" class="node">
<title>5319</title>
<path fill="#c0c0c0" stroke="black" d="M256,-36C256,-36 226,-36 226,-36 220,-36 214,-30 214,-24 214,-24 214,-12 214,-12 214,-6 220,0 226,0 226,0 256,0 256,0 262,0 268,-6 268,-12 268,-12 268,-24 268,-24 268,-30 262,-36 256,-36"/>
<text text-anchor="middle" x="241" y="-13.32" font-family="Helvetica,sans-Serif" font-size="14.00">(...)</text>
</g>
<!-- 5318&#45;&gt;5319 -->
<g id="edge7" class="edge">
<title>5318&#45;&gt;5319</title>
<path fill="none" stroke="black" d="M257.5,-71.75C254.86,-63.32 252.19,-54.77 249.78,-47.07"/>
<polygon fill="black" stroke="black" points="253.15,-46.12 246.82,-37.62 246.47,-48.21 253.15,-46.12"/>
</g>
<!-- 9296 -->
<g id="node9" class="node">
<title>9296</title>
<path fill="#c0c0c0" stroke="black" d="M328,-36C328,-36 298,-36 298,-36 292,-36 286,-30 286,-24 286,-24 286,-12 286,-12 286,-6 292,0 298,0 298,0 328,0 328,0 334,0 340,-6 340,-12 340,-12 340,-24 340,-24 340,-30 334,-36 328,-36"/>
<text text-anchor="middle" x="313" y="-13.32" font-family="Helvetica,sans-Serif" font-size="14.00">(...)</text>
</g>
<!-- 5318&#45;&gt;9296 -->
<g id="edge8" class="edge">
<title>5318&#45;&gt;9296</title>
<path fill="none" stroke="black" d="M291.18,-71.75C294.71,-63.22 298.29,-54.57 301.5,-46.8"/>
<polygon fill="black" stroke="black" points="304.73,-48.15 305.32,-37.57 298.26,-45.47 304.73,-48.15"/>
</g>
<!-- 9836 -->
<g id="node11" class="node">
<title>9836</title>
<path fill="#efb184" stroke="black" d="M532,-166.25C532,-166.25 390,-166.25 390,-166.25 384,-166.25 378,-160.25 378,-154.25 378,-154.25 378,-84 378,-84 378,-78 384,-72 390,-72 390,-72 532,-72 532,-72 538,-72 544,-78 544,-84 544,-84 544,-154.25 544,-154.25 544,-160.25 538,-166.25 532,-166.25"/>
<text text-anchor="middle" x="461" y="-148.95" font-family="Helvetica,sans-Serif" font-size="14.00">22_U &lt;= 0.5</text>
<text text-anchor="middle" x="461" y="-131.7" font-family="Helvetica,sans-Serif" font-size="14.00">entropy = 0.848</text>
<text text-anchor="middle" x="461" y="-114.45" font-family="Helvetica,sans-Serif" font-size="14.00">samples = 5023</text>
<text text-anchor="middle" x="461" y="-97.2" font-family="Helvetica,sans-Serif" font-size="14.00">value = [5746, 2173]</text>
<text text-anchor="middle" x="461" y="-79.95" font-family="Helvetica,sans-Serif" font-size="14.00">class = Animal</text>
</g>
<!-- 9835&#45;&gt;9836 -->
<g id="edge10" class="edge">
<title>9835&#45;&gt;9836</title>
<path fill="none" stroke="black" d="M514.04,-202.07C508.51,-193.54 502.69,-184.54 497.01,-175.77"/>
<polygon fill="black" stroke="black" points="500.11,-174.12 491.74,-167.63 494.24,-177.93 500.11,-174.12"/>
</g>
<!-- 12341 -->
<g id="node14" class="node">
<title>12341</title>
<path fill="#f4c9aa" stroke="black" d="M707.5,-166.25C707.5,-166.25 574.5,-166.25 574.5,-166.25 568.5,-166.25 562.5,-160.25 562.5,-154.25 562.5,-154.25 562.5,-84 562.5,-84 562.5,-78 568.5,-72 574.5,-72 574.5,-72 707.5,-72 707.5,-72 713.5,-72 719.5,-78 719.5,-84 719.5,-84 719.5,-154.25 719.5,-154.25 719.5,-160.25 713.5,-166.25 707.5,-166.25"/>
<text text-anchor="middle" x="641" y="-148.95" font-family="Helvetica,sans-Serif" font-size="14.00">11_C &lt;= 0.5</text>
<text text-anchor="middle" x="641" y="-131.7" font-family="Helvetica,sans-Serif" font-size="14.00">entropy = 0.945</text>
<text text-anchor="middle" x="641" y="-114.45" font-family="Helvetica,sans-Serif" font-size="14.00">samples = 1284</text>
<text text-anchor="middle" x="641" y="-97.2" font-family="Helvetica,sans-Serif" font-size="14.00">value = [1317, 750]</text>
<text text-anchor="middle" x="641" y="-79.95" font-family="Helvetica,sans-Serif" font-size="14.00">class = Animal</text>
</g>
<!-- 9835&#45;&gt;12341 -->
<g id="edge13" class="edge">
<title>9835&#45;&gt;12341</title>
<path fill="none" stroke="black" d="M579.02,-202.07C585.54,-193.45 592.42,-184.35 599.13,-175.49"/>
<polygon fill="black" stroke="black" points="601.88,-177.65 605.12,-167.57 596.3,-173.43 601.88,-177.65"/>
</g>
<!-- 9837 -->
<g id="node12" class="node">
<title>9837</title>
<path fill="#c0c0c0" stroke="black" d="M422,-36C422,-36 392,-36 392,-36 386,-36 380,-30 380,-24 380,-24 380,-12 380,-12 380,-6 386,0 392,0 392,0 422,0 422,0 428,0 434,-6 434,-12 434,-12 434,-24 434,-24 434,-30 428,-36 422,-36"/>
<text text-anchor="middle" x="407" y="-13.32" font-family="Helvetica,sans-Serif" font-size="14.00">(...)</text>
</g>
<!-- 9836&#45;&gt;9837 -->
<g id="edge11" class="edge">
<title>9836&#45;&gt;9837</title>
<path fill="none" stroke="black" d="M435.74,-71.75C430.98,-63.03 426.16,-54.16 421.85,-46.26"/>
<polygon fill="black" stroke="black" points="424.94,-44.61 417.08,-37.5 418.79,-47.96 424.94,-44.61"/>
</g>
<!-- 12046 -->
<g id="node13" class="node">
<title>12046</title>
<path fill="#c0c0c0" stroke="black" d="M494,-36C494,-36 464,-36 464,-36 458,-36 452,-30 452,-24 452,-24 452,-12 452,-12 452,-6 458,0 464,0 464,0 494,0 494,0 500,0 506,-6 506,-12 506,-12 506,-24 506,-24 506,-30 500,-36 494,-36"/>
<text text-anchor="middle" x="479" y="-13.32" font-family="Helvetica,sans-Serif" font-size="14.00">(...)</text>
</g>
<!-- 9836&#45;&gt;12046 -->
<g id="edge12" class="edge">
<title>9836&#45;&gt;12046</title>
<path fill="none" stroke="black" d="M469.42,-71.75C470.93,-63.42 472.47,-54.97 473.85,-47.34"/>
<polygon fill="black" stroke="black" points="477.27,-48.13 475.61,-37.66 470.38,-46.88 477.27,-48.13"/>
</g>
<!-- 12342 -->
<g id="node15" class="node">
<title>12342</title>
<path fill="#c0c0c0" stroke="black" d="M602,-36C602,-36 572,-36 572,-36 566,-36 560,-30 560,-24 560,-24 560,-12 560,-12 560,-6 566,0 572,0 572,0 602,0 602,0 608,0 614,-6 614,-12 614,-12 614,-24 614,-24 614,-30 608,-36 602,-36"/>
<text text-anchor="middle" x="587" y="-13.32" font-family="Helvetica,sans-Serif" font-size="14.00">(...)</text>
</g>
<!-- 12341&#45;&gt;12342 -->
<g id="edge14" class="edge">
<title>12341&#45;&gt;12342</title>
<path fill="none" stroke="black" d="M615.74,-71.75C610.98,-63.03 606.16,-54.16 601.85,-46.26"/>
<polygon fill="black" stroke="black" points="604.94,-44.61 597.08,-37.5 598.79,-47.96 604.94,-44.61"/>
</g>
<!-- 12849 -->
<g id="node16" class="node">
<title>12849</title>
<path fill="#c0c0c0" stroke="black" d="M674,-36C674,-36 644,-36 644,-36 638,-36 632,-30 632,-24 632,-24 632,-12 632,-12 632,-6 638,0 644,0 644,0 674,0 674,0 680,0 686,-6 686,-12 686,-12 686,-24 686,-24 686,-30 680,-36 674,-36"/>
<text text-anchor="middle" x="659" y="-13.32" font-family="Helvetica,sans-Serif" font-size="14.00">(...)</text>
</g>
<!-- 12341&#45;&gt;12849 -->
<g id="edge15" class="edge">
<title>12341&#45;&gt;12849</title>
<path fill="none" stroke="black" d="M649.42,-71.75C650.93,-63.42 652.47,-54.97 653.85,-47.34"/>
<polygon fill="black" stroke="black" points="657.27,-48.13 655.61,-37.66 650.38,-46.88 657.27,-48.13"/>
</g>
<!-- 12987 -->
<g id="node18" class="node">
<title>12987</title>
<path fill="#fbebdf" stroke="black" d="M980,-296.5C980,-296.5 838,-296.5 838,-296.5 832,-296.5 826,-290.5 826,-284.5 826,-284.5 826,-214.25 826,-214.25 826,-208.25 832,-202.25 838,-202.25 838,-202.25 980,-202.25 980,-202.25 986,-202.25 992,-208.25 992,-214.25 992,-214.25 992,-284.5 992,-284.5 992,-290.5 986,-296.5 980,-296.5"/>
<text text-anchor="middle" x="909" y="-279.2" font-family="Helvetica,sans-Serif" font-size="14.00">20_C &lt;= 0.5</text>
<text text-anchor="middle" x="909" y="-261.95" font-family="Helvetica,sans-Serif" font-size="14.00">entropy = 0.994</text>
<text text-anchor="middle" x="909" y="-244.7" font-family="Helvetica,sans-Serif" font-size="14.00">samples = 6181</text>
<text text-anchor="middle" x="909" y="-227.45" font-family="Helvetica,sans-Serif" font-size="14.00">value = [5314, 4459]</text>
<text text-anchor="middle" x="909" y="-210.2" font-family="Helvetica,sans-Serif" font-size="14.00">class = Animal</text>
</g>
<!-- 12986&#45;&gt;12987 -->
<g id="edge17" class="edge">
<title>12986&#45;&gt;12987</title>
<path fill="none" stroke="black" d="M909,-332.32C909,-324.42 909,-316.13 909,-307.98"/>
<polygon fill="black" stroke="black" points="912.5,-308.12 909,-298.12 905.5,-308.12 912.5,-308.12"/>
</g>
<!-- 15884 -->
<g id="node25" class="node">
<title>15884</title>
<path fill="#75bbed" stroke="black" d="M1252,-296.5C1252,-296.5 1110,-296.5 1110,-296.5 1104,-296.5 1098,-290.5 1098,-284.5 1098,-284.5 1098,-214.25 1098,-214.25 1098,-208.25 1104,-202.25 1110,-202.25 1110,-202.25 1252,-202.25 1252,-202.25 1258,-202.25 1264,-208.25 1264,-214.25 1264,-214.25 1264,-284.5 1264,-284.5 1264,-290.5 1258,-296.5 1252,-296.5"/>
<text text-anchor="middle" x="1181" y="-279.2" font-family="Helvetica,sans-Serif" font-size="14.00">22_G &lt;= 0.5</text>
<text text-anchor="middle" x="1181" y="-261.95" font-family="Helvetica,sans-Serif" font-size="14.00">entropy = 0.782</text>
<text text-anchor="middle" x="1181" y="-244.7" font-family="Helvetica,sans-Serif" font-size="14.00">samples = 4651</text>
<text text-anchor="middle" x="1181" y="-227.45" font-family="Helvetica,sans-Serif" font-size="14.00">value = [1719, 5685]</text>
<text text-anchor="middle" x="1181" y="-210.2" font-family="Helvetica,sans-Serif" font-size="14.00">class = Plant</text>
</g>
<!-- 12986&#45;&gt;15884 -->
<g id="edge24" class="edge">
<title>12986&#45;&gt;15884</title>
<path fill="none" stroke="black" d="M996.93,-337.16C1025.81,-323.55 1058.01,-308.36 1087.3,-294.55"/>
<polygon fill="black" stroke="black" points="1088.61,-297.81 1096.16,-290.38 1085.62,-291.48 1088.61,-297.81"/>
</g>
<!-- 12988 -->
<g id="node19" class="node">
<title>12988</title>
<path fill="#f5cfb3" stroke="black" d="M892,-166.25C892,-166.25 750,-166.25 750,-166.25 744,-166.25 738,-160.25 738,-154.25 738,-154.25 738,-84 738,-84 738,-78 744,-72 750,-72 750,-72 892,-72 892,-72 898,-72 904,-78 904,-84 904,-84 904,-154.25 904,-154.25 904,-160.25 898,-166.25 892,-166.25"/>
<text text-anchor="middle" x="821" y="-148.95" font-family="Helvetica,sans-Serif" font-size="14.00">5_U &lt;= 0.5</text>
<text text-anchor="middle" x="821" y="-131.7" font-family="Helvetica,sans-Serif" font-size="14.00">entropy = 0.959</text>
<text text-anchor="middle" x="821" y="-114.45" font-family="Helvetica,sans-Serif" font-size="14.00">samples = 4526</text>
<text text-anchor="middle" x="821" y="-97.2" font-family="Helvetica,sans-Serif" font-size="14.00">value = [4402, 2721]</text>
<text text-anchor="middle" x="821" y="-79.95" font-family="Helvetica,sans-Serif" font-size="14.00">class = Animal</text>
</g>
<!-- 12987&#45;&gt;12988 -->
<g id="edge18" class="edge">
<title>12987&#45;&gt;12988</title>
<path fill="none" stroke="black" d="M877.23,-202.07C871.37,-193.54 865.2,-184.54 859.18,-175.77"/>
<polygon fill="black" stroke="black" points="862.12,-173.87 853.58,-167.61 856.35,-177.83 862.12,-173.87"/>
</g>
<!-- 15265 -->
<g id="node22" class="node">
<title>15265</title>
<path fill="#a1d0f3" stroke="black" d="M1067.5,-166.25C1067.5,-166.25 934.5,-166.25 934.5,-166.25 928.5,-166.25 922.5,-160.25 922.5,-154.25 922.5,-154.25 922.5,-84 922.5,-84 922.5,-78 928.5,-72 934.5,-72 934.5,-72 1067.5,-72 1067.5,-72 1073.5,-72 1079.5,-78 1079.5,-84 1079.5,-84 1079.5,-154.25 1079.5,-154.25 1079.5,-160.25 1073.5,-166.25 1067.5,-166.25"/>
<text text-anchor="middle" x="1001" y="-148.95" font-family="Helvetica,sans-Serif" font-size="14.00">22_U &lt;= 0.5</text>
<text text-anchor="middle" x="1001" y="-131.7" font-family="Helvetica,sans-Serif" font-size="14.00">entropy = 0.929</text>
<text text-anchor="middle" x="1001" y="-114.45" font-family="Helvetica,sans-Serif" font-size="14.00">samples = 1655</text>
<text text-anchor="middle" x="1001" y="-97.2" font-family="Helvetica,sans-Serif" font-size="14.00">value = [912, 1738]</text>
<text text-anchor="middle" x="1001" y="-79.95" font-family="Helvetica,sans-Serif" font-size="14.00">class = Plant</text>
</g>
<!-- 12987&#45;&gt;15265 -->
<g id="edge21" class="edge">
<title>12987&#45;&gt;15265</title>
<path fill="none" stroke="black" d="M942.21,-202.07C948.4,-193.45 954.93,-184.35 961.29,-175.49"/>
<polygon fill="black" stroke="black" points="963.97,-177.75 966.95,-167.59 958.28,-173.67 963.97,-177.75"/>
</g>
<!-- 12989 -->
<g id="node20" class="node">
<title>12989</title>
<path fill="#c0c0c0" stroke="black" d="M782,-36C782,-36 752,-36 752,-36 746,-36 740,-30 740,-24 740,-24 740,-12 740,-12 740,-6 746,0 752,0 752,0 782,0 782,0 788,0 794,-6 794,-12 794,-12 794,-24 794,-24 794,-30 788,-36 782,-36"/>
<text text-anchor="middle" x="767" y="-13.32" font-family="Helvetica,sans-Serif" font-size="14.00">(...)</text>
</g>
<!-- 12988&#45;&gt;12989 -->
<g id="edge19" class="edge">
<title>12988&#45;&gt;12989</title>
<path fill="none" stroke="black" d="M795.74,-71.75C790.98,-63.03 786.16,-54.16 781.85,-46.26"/>
<polygon fill="black" stroke="black" points="784.94,-44.61 777.08,-37.5 778.79,-47.96 784.94,-44.61"/>
</g>
<!-- 14672 -->
<g id="node21" class="node">
<title>14672</title>
<path fill="#c0c0c0" stroke="black" d="M854,-36C854,-36 824,-36 824,-36 818,-36 812,-30 812,-24 812,-24 812,-12 812,-12 812,-6 818,0 824,0 824,0 854,0 854,0 860,0 866,-6 866,-12 866,-12 866,-24 866,-24 866,-30 860,-36 854,-36"/>
<text text-anchor="middle" x="839" y="-13.32" font-family="Helvetica,sans-Serif" font-size="14.00">(...)</text>
</g>
<!-- 12988&#45;&gt;14672 -->
<g id="edge20" class="edge">
<title>12988&#45;&gt;14672</title>
<path fill="none" stroke="black" d="M829.42,-71.75C830.93,-63.42 832.47,-54.97 833.85,-47.34"/>
<polygon fill="black" stroke="black" points="837.27,-48.13 835.61,-37.66 830.38,-46.88 837.27,-48.13"/>
</g>
<!-- 15266 -->
<g id="node23" class="node">
<title>15266</title>
<path fill="#c0c0c0" stroke="black" d="M962,-36C962,-36 932,-36 932,-36 926,-36 920,-30 920,-24 920,-24 920,-12 920,-12 920,-6 926,0 932,0 932,0 962,0 962,0 968,0 974,-6 974,-12 974,-12 974,-24 974,-24 974,-30 968,-36 962,-36"/>
<text text-anchor="middle" x="947" y="-13.32" font-family="Helvetica,sans-Serif" font-size="14.00">(...)</text>
</g>
<!-- 15265&#45;&gt;15266 -->
<g id="edge22" class="edge">
<title>15265&#45;&gt;15266</title>
<path fill="none" stroke="black" d="M975.74,-71.75C970.98,-63.03 966.16,-54.16 961.85,-46.26"/>
<polygon fill="black" stroke="black" points="964.94,-44.61 957.08,-37.5 958.79,-47.96 964.94,-44.61"/>
</g>
<!-- 15817 -->
<g id="node24" class="node">
<title>15817</title>
<path fill="#c0c0c0" stroke="black" d="M1034,-36C1034,-36 1004,-36 1004,-36 998,-36 992,-30 992,-24 992,-24 992,-12 992,-12 992,-6 998,0 1004,0 1004,0 1034,0 1034,0 1040,0 1046,-6 1046,-12 1046,-12 1046,-24 1046,-24 1046,-30 1040,-36 1034,-36"/>
<text text-anchor="middle" x="1019" y="-13.32" font-family="Helvetica,sans-Serif" font-size="14.00">(...)</text>
</g>
<!-- 15265&#45;&gt;15817 -->
<g id="edge23" class="edge">
<title>15265&#45;&gt;15817</title>
<path fill="none" stroke="black" d="M1009.42,-71.75C1010.93,-63.42 1012.47,-54.97 1013.85,-47.34"/>
<polygon fill="black" stroke="black" points="1017.27,-48.13 1015.61,-37.66 1010.38,-46.88 1017.27,-48.13"/>
</g>
<!-- 15885 -->
<g id="node26" class="node">
<title>15885</title>
<path fill="#68b4eb" stroke="black" d="M1252,-166.25C1252,-166.25 1110,-166.25 1110,-166.25 1104,-166.25 1098,-160.25 1098,-154.25 1098,-154.25 1098,-84 1098,-84 1098,-78 1104,-72 1110,-72 1110,-72 1252,-72 1252,-72 1258,-72 1264,-78 1264,-84 1264,-84 1264,-154.25 1264,-154.25 1264,-160.25 1258,-166.25 1252,-166.25"/>
<text text-anchor="middle" x="1181" y="-148.95" font-family="Helvetica,sans-Serif" font-size="14.00">22_A &lt;= 0.5</text>
<text text-anchor="middle" x="1181" y="-131.7" font-family="Helvetica,sans-Serif" font-size="14.00">entropy = 0.705</text>
<text text-anchor="middle" x="1181" y="-114.45" font-family="Helvetica,sans-Serif" font-size="14.00">samples = 4271</text>
<text text-anchor="middle" x="1181" y="-97.2" font-family="Helvetica,sans-Serif" font-size="14.00">value = [1304, 5505]</text>
<text text-anchor="middle" x="1181" y="-79.95" font-family="Helvetica,sans-Serif" font-size="14.00">class = Plant</text>
</g>
<!-- 15884&#45;&gt;15885 -->
<g id="edge25" class="edge">
<title>15884&#45;&gt;15885</title>
<path fill="none" stroke="black" d="M1181,-202.07C1181,-194.17 1181,-185.88 1181,-177.73"/>
<polygon fill="black" stroke="black" points="1184.5,-177.87 1181,-167.87 1177.5,-177.87 1184.5,-177.87"/>
</g>
<!-- 16986 -->
<g id="node29" class="node">
<title>16986</title>
<path fill="#f0b88f" stroke="black" d="M1418,-166.25C1418,-166.25 1294,-166.25 1294,-166.25 1288,-166.25 1282,-160.25 1282,-154.25 1282,-154.25 1282,-84 1282,-84 1282,-78 1288,-72 1294,-72 1294,-72 1418,-72 1418,-72 1424,-72 1430,-78 1430,-84 1430,-84 1430,-154.25 1430,-154.25 1430,-160.25 1424,-166.25 1418,-166.25"/>
<text text-anchor="middle" x="1356" y="-148.95" font-family="Helvetica,sans-Serif" font-size="14.00">8_A &lt;= 0.5</text>
<text text-anchor="middle" x="1356" y="-131.7" font-family="Helvetica,sans-Serif" font-size="14.00">entropy = 0.884</text>
<text text-anchor="middle" x="1356" y="-114.45" font-family="Helvetica,sans-Serif" font-size="14.00">samples = 380</text>
<text text-anchor="middle" x="1356" y="-97.2" font-family="Helvetica,sans-Serif" font-size="14.00">value = [415, 180]</text>
<text text-anchor="middle" x="1356" y="-79.95" font-family="Helvetica,sans-Serif" font-size="14.00">class = Animal</text>
</g>
<!-- 15884&#45;&gt;16986 -->
<g id="edge28" class="edge">
<title>15884&#45;&gt;16986</title>
<path fill="none" stroke="black" d="M1244.18,-202.07C1256.99,-192.69 1270.55,-182.75 1283.64,-173.15"/>
<polygon fill="black" stroke="black" points="1285.4,-176.2 1291.4,-167.47 1281.26,-170.56 1285.4,-176.2"/>
</g>
<!-- 15886 -->
<g id="node27" class="node">
<title>15886</title>
<path fill="#c0c0c0" stroke="black" d="M1157,-36C1157,-36 1127,-36 1127,-36 1121,-36 1115,-30 1115,-24 1115,-24 1115,-12 1115,-12 1115,-6 1121,0 1127,0 1127,0 1157,0 1157,0 1163,0 1169,-6 1169,-12 1169,-12 1169,-24 1169,-24 1169,-30 1163,-36 1157,-36"/>
<text text-anchor="middle" x="1142" y="-13.32" font-family="Helvetica,sans-Serif" font-size="14.00">(...)</text>
</g>
<!-- 15885&#45;&gt;15886 -->
<g id="edge26" class="edge">
<title>15885&#45;&gt;15886</title>
<path fill="none" stroke="black" d="M1162.76,-71.75C1159.4,-63.22 1155.99,-54.57 1152.94,-46.8"/>
<polygon fill="black" stroke="black" points="1156.23,-45.61 1149.31,-37.58 1149.71,-48.17 1156.23,-45.61"/>
</g>
<!-- 16827 -->
<g id="node28" class="node">
<title>16827</title>
<path fill="#c0c0c0" stroke="black" d="M1229,-36C1229,-36 1199,-36 1199,-36 1193,-36 1187,-30 1187,-24 1187,-24 1187,-12 1187,-12 1187,-6 1193,0 1199,0 1199,0 1229,0 1229,0 1235,0 1241,-6 1241,-12 1241,-12 1241,-24 1241,-24 1241,-30 1235,-36 1229,-36"/>
<text text-anchor="middle" x="1214" y="-13.32" font-family="Helvetica,sans-Serif" font-size="14.00">(...)</text>
</g>
<!-- 15885&#45;&gt;16827 -->
<g id="edge27" class="edge">
<title>15885&#45;&gt;16827</title>
<path fill="none" stroke="black" d="M1196.44,-71.75C1199.24,-63.32 1202.09,-54.77 1204.66,-47.07"/>
<polygon fill="black" stroke="black" points="1207.97,-48.2 1207.8,-37.61 1201.33,-45.99 1207.97,-48.2"/>
</g>
<!-- 16987 -->
<g id="node30" class="node">
<title>16987</title>
<path fill="#c0c0c0" stroke="black" d="M1335,-36C1335,-36 1305,-36 1305,-36 1299,-36 1293,-30 1293,-24 1293,-24 1293,-12 1293,-12 1293,-6 1299,0 1305,0 1305,0 1335,0 1335,0 1341,0 1347,-6 1347,-12 1347,-12 1347,-24 1347,-24 1347,-30 1341,-36 1335,-36"/>
<text text-anchor="middle" x="1320" y="-13.32" font-family="Helvetica,sans-Serif" font-size="14.00">(...)</text>
</g>
<!-- 16986&#45;&gt;16987 -->
<g id="edge29" class="edge">
<title>16986&#45;&gt;16987</title>
<path fill="none" stroke="black" d="M1339.16,-71.75C1336.06,-63.22 1332.92,-54.57 1330.1,-46.8"/>
<polygon fill="black" stroke="black" points="1333.46,-45.8 1326.75,-37.6 1326.88,-48.19 1333.46,-45.8"/>
</g>
<!-- 17104 -->
<g id="node31" class="node">
<title>17104</title>
<path fill="#c0c0c0" stroke="black" d="M1407,-36C1407,-36 1377,-36 1377,-36 1371,-36 1365,-30 1365,-24 1365,-24 1365,-12 1365,-12 1365,-6 1371,0 1377,0 1377,0 1407,0 1407,0 1413,0 1419,-6 1419,-12 1419,-12 1419,-24 1419,-24 1419,-30 1413,-36 1407,-36"/>
<text text-anchor="middle" x="1392" y="-13.32" font-family="Helvetica,sans-Serif" font-size="14.00">(...)</text>
</g>
<!-- 16986&#45;&gt;17104 -->
<g id="edge30" class="edge">
<title>16986&#45;&gt;17104</title>
<path fill="none" stroke="black" d="M1372.84,-71.75C1375.94,-63.22 1379.08,-54.57 1381.9,-46.8"/>
<polygon fill="black" stroke="black" points="1385.12,-48.19 1385.25,-37.6 1378.54,-45.8 1385.12,-48.19"/>
</g>
</g>
</svg>
