<?xml version="1.0" encoding="UTF-8" standalone="no"?>
<!DOCTYPE svg PUBLIC "-//W3C//DTD SVG 1.1//EN"
 "http://www.w3.org/Graphics/SVG/1.1/DTD/svg11.dtd">
<!-- Generated by graphviz version 12.0.0 (20240803.0821)
 -->
<!-- Title: Tree Pages: 1 -->
<svg width="1365pt" height="565pt"
 viewBox="0.00 0.00 1364.50 565.00" xmlns="http://www.w3.org/2000/svg" xmlns:xlink="http://www.w3.org/1999/xlink">
<g id="graph0" class="graph" transform="scale(1 1) rotate(0) translate(4 561)">
<title>Tree</title>
<polygon fill="white" stroke="none" points="-4,4 -4,-561 1360.5,-561 1360.5,4 -4,4"/>
<!-- 0 -->
<g id="node1" class="node">
<title>0</title>
<path fill="#fffefd" stroke="black" d="M818,-557C818,-557 658,-557 658,-557 652,-557 646,-551 646,-545 646,-545 646,-474.75 646,-474.75 646,-468.75 652,-462.75 658,-462.75 658,-462.75 818,-462.75 818,-462.75 824,-462.75 830,-468.75 830,-474.75 830,-474.75 830,-545 830,-545 830,-551 824,-557 818,-557"/>
<text text-anchor="middle" x="738" y="-539.7" font-family="Helvetica,sans-Serif" font-size="14.00">23_U &lt;= 0.5</text>
<text text-anchor="middle" x="738" y="-522.45" font-family="Helvetica,sans-Serif" font-size="14.00">entropy = 1.0</text>
<text text-anchor="middle" x="738" y="-505.2" font-family="Helvetica,sans-Serif" font-size="14.00">samples = 38225</text>
<text text-anchor="middle" x="738" y="-487.95" font-family="Helvetica,sans-Serif" font-size="14.00">value = [30343, 30002]</text>
<text text-anchor="middle" x="738" y="-470.7" font-family="Helvetica,sans-Serif" font-size="14.00">class = Animal</text>
</g>
<!-- 1 -->
<g id="node2" class="node">
<title>1</title>
<path fill="#f3f9fd" stroke="black" d="M641,-426.75C641,-426.75 481,-426.75 481,-426.75 475,-426.75 469,-420.75 469,-414.75 469,-414.75 469,-344.5 469,-344.5 469,-338.5 475,-332.5 481,-332.5 481,-332.5 641,-332.5 641,-332.5 647,-332.5 653,-338.5 653,-344.5 653,-344.5 653,-414.75 653,-414.75 653,-420.75 647,-426.75 641,-426.75"/>
<text text-anchor="middle" x="561" y="-409.45" font-family="Helvetica,sans-Serif" font-size="14.00">6_A &lt;= 0.5</text>
<text text-anchor="middle" x="561" y="-392.2" font-family="Helvetica,sans-Serif" font-size="14.00">entropy = 0.999</text>
<text text-anchor="middle" x="561" y="-374.95" font-family="Helvetica,sans-Serif" font-size="14.00">samples = 36249</text>
<text text-anchor="middle" x="561" y="-357.7" font-family="Helvetica,sans-Serif" font-size="14.00">value = [27692, 29515]</text>
<text text-anchor="middle" x="561" y="-340.45" font-family="Helvetica,sans-Serif" font-size="14.00">class = Plant</text>
</g>
<!-- 0&#45;&gt;1 -->
<g id="edge1" class="edge">
<title>0&#45;&gt;1</title>
<path fill="none" stroke="black" d="M673.85,-462.39C660.99,-453.07 647.38,-443.22 634.24,-433.69"/>
<polygon fill="black" stroke="black" points="636.61,-431.09 626.46,-428.05 632.5,-436.75 636.61,-431.09"/>
<text text-anchor="middle" x="629.17" y="-447.18" font-family="Helvetica,sans-Serif" font-size="14.00">True</text>
</g>
<!-- 16018 -->
<g id="node17" class="node">
<title>16018</title>
<path fill="#ea985d" stroke="black" d="M977.5,-426.75C977.5,-426.75 844.5,-426.75 844.5,-426.75 838.5,-426.75 832.5,-420.75 832.5,-414.75 832.5,-414.75 832.5,-344.5 832.5,-344.5 832.5,-338.5 838.5,-332.5 844.5,-332.5 844.5,-332.5 977.5,-332.5 977.5,-332.5 983.5,-332.5 989.5,-338.5 989.5,-344.5 989.5,-344.5 989.5,-414.75 989.5,-414.75 989.5,-420.75 983.5,-426.75 977.5,-426.75"/>
<text text-anchor="middle" x="911" y="-409.45" font-family="Helvetica,sans-Serif" font-size="14.00">25_G &lt;= 0.5</text>
<text text-anchor="middle" x="911" y="-392.2" font-family="Helvetica,sans-Serif" font-size="14.00">entropy = 0.623</text>
<text text-anchor="middle" x="911" y="-374.95" font-family="Helvetica,sans-Serif" font-size="14.00">samples = 1976</text>
<text text-anchor="middle" x="911" y="-357.7" font-family="Helvetica,sans-Serif" font-size="14.00">value = [2651, 487]</text>
<text text-anchor="middle" x="911" y="-340.45" font-family="Helvetica,sans-Serif" font-size="14.00">class = Animal</text>
</g>
<!-- 0&#45;&gt;16018 -->
<g id="edge16" class="edge">
<title>0&#45;&gt;16018</title>
<path fill="none" stroke="black" d="M800.46,-462.57C813,-453.28 826.27,-443.44 839.1,-433.93"/>
<polygon fill="black" stroke="black" points="841.18,-436.74 847.13,-427.97 837.01,-431.12 841.18,-436.74"/>
<text text-anchor="middle" x="844.67" y="-447.13" font-family="Helvetica,sans-Serif" font-size="14.00">False</text>
</g>
<!-- 2 -->
<g id="node3" class="node">
<title>2</title>
<path fill="#fefaf7" stroke="black" d="M365,-296.5C365,-296.5 205,-296.5 205,-296.5 199,-296.5 193,-290.5 193,-284.5 193,-284.5 193,-214.25 193,-214.25 193,-208.25 199,-202.25 205,-202.25 205,-202.25 365,-202.25 365,-202.25 371,-202.25 377,-208.25 377,-214.25 377,-214.25 377,-284.5 377,-284.5 377,-290.5 371,-296.5 365,-296.5"/>
<text text-anchor="middle" x="285" y="-279.2" font-family="Helvetica,sans-Serif" font-size="14.00">9_G &lt;= 0.5</text>
<text text-anchor="middle" x="285" y="-261.95" font-family="Helvetica,sans-Serif" font-size="14.00">entropy = 1.0</text>
<text text-anchor="middle" x="285" y="-244.7" font-family="Helvetica,sans-Serif" font-size="14.00">samples = 27110</text>
<text text-anchor="middle" x="285" y="-227.45" font-family="Helvetica,sans-Serif" font-size="14.00">value = [21842, 20957]</text>
<text text-anchor="middle" x="285" y="-210.2" font-family="Helvetica,sans-Serif" font-size="14.00">class = Animal</text>
</g>
<!-- 1&#45;&gt;2 -->
<g id="edge2" class="edge">
<title>1&#45;&gt;2</title>
<path fill="none" stroke="black" d="M468.71,-335.74C442.59,-323.6 414,-310.32 387.32,-297.92"/>
<polygon fill="black" stroke="black" points="389.12,-294.9 378.57,-293.86 386.17,-301.24 389.12,-294.9"/>
</g>
<!-- 12187 -->
<g id="node10" class="node">
<title>12187</title>
<path fill="#c0e0f7" stroke="black" d="M632,-296.5C632,-296.5 490,-296.5 490,-296.5 484,-296.5 478,-290.5 478,-284.5 478,-284.5 478,-214.25 478,-214.25 478,-208.25 484,-202.25 490,-202.25 490,-202.25 632,-202.25 632,-202.25 638,-202.25 644,-208.25 644,-214.25 644,-214.25 644,-284.5 644,-284.5 644,-290.5 638,-296.5 632,-296.5"/>
<text text-anchor="middle" x="561" y="-279.2" font-family="Helvetica,sans-Serif" font-size="14.00">10_A &lt;= 0.5</text>
<text text-anchor="middle" x="561" y="-261.95" font-family="Helvetica,sans-Serif" font-size="14.00">entropy = 0.974</text>
<text text-anchor="middle" x="561" y="-244.7" font-family="Helvetica,sans-Serif" font-size="14.00">samples = 9139</text>
<text text-anchor="middle" x="561" y="-227.45" font-family="Helvetica,sans-Serif" font-size="14.00">value = [5850, 8558]</text>
<text text-anchor="middle" x="561" y="-210.2" font-family="Helvetica,sans-Serif" font-size="14.00">class = Plant</text>
</g>
<!-- 1&#45;&gt;12187 -->
<g id="edge9" class="edge">
<title>1&#45;&gt;12187</title>
<path fill="none" stroke="black" d="M561,-332.32C561,-324.42 561,-316.13 561,-307.98"/>
<polygon fill="black" stroke="black" points="564.5,-308.12 561,-298.12 557.5,-308.12 564.5,-308.12"/>
</g>
<!-- 3 -->
<g id="node4" class="node">
<title>3</title>
<path fill="#fbece1" stroke="black" d="M172,-166.25C172,-166.25 12,-166.25 12,-166.25 6,-166.25 0,-160.25 0,-154.25 0,-154.25 0,-84 0,-84 0,-78 6,-72 12,-72 12,-72 172,-72 172,-72 178,-72 184,-78 184,-84 184,-84 184,-154.25 184,-154.25 184,-160.25 178,-166.25 172,-166.25"/>
<text text-anchor="middle" x="92" y="-148.95" font-family="Helvetica,sans-Serif" font-size="14.00">22_G &lt;= 0.5</text>
<text text-anchor="middle" x="92" y="-131.7" font-family="Helvetica,sans-Serif" font-size="14.00">entropy = 0.995</text>
<text text-anchor="middle" x="92" y="-114.45" font-family="Helvetica,sans-Serif" font-size="14.00">samples = 20157</text>
<text text-anchor="middle" x="92" y="-97.2" font-family="Helvetica,sans-Serif" font-size="14.00">value = [17248, 14667]</text>
<text text-anchor="middle" x="92" y="-79.95" font-family="Helvetica,sans-Serif" font-size="14.00">class = Animal</text>
</g>
<!-- 2&#45;&gt;3 -->
<g id="edge3" class="edge">
<title>2&#45;&gt;3</title>
<path fill="none" stroke="black" d="M215.05,-201.89C200.89,-192.48 185.9,-182.53 171.45,-172.92"/>
<polygon fill="black" stroke="black" points="173.56,-170.12 163.3,-167.5 169.69,-175.95 173.56,-170.12"/>
</g>
<!-- 9114 -->
<g id="node7" class="node">
<title>9114</title>
<path fill="#cae5f8" stroke="black" d="M356,-166.25C356,-166.25 214,-166.25 214,-166.25 208,-166.25 202,-160.25 202,-154.25 202,-154.25 202,-84 202,-84 202,-78 208,-72 214,-72 214,-72 356,-72 356,-72 362,-72 368,-78 368,-84 368,-84 368,-154.25 368,-154.25 368,-160.25 362,-166.25 356,-166.25"/>
<text text-anchor="middle" x="285" y="-148.95" font-family="Helvetica,sans-Serif" font-size="14.00">18_C &lt;= 0.5</text>
<text text-anchor="middle" x="285" y="-131.7" font-family="Helvetica,sans-Serif" font-size="14.00">entropy = 0.982</text>
<text text-anchor="middle" x="285" y="-114.45" font-family="Helvetica,sans-Serif" font-size="14.00">samples = 6953</text>
<text text-anchor="middle" x="285" y="-97.2" font-family="Helvetica,sans-Serif" font-size="14.00">value = [4594, 6290]</text>
<text text-anchor="middle" x="285" y="-79.95" font-family="Helvetica,sans-Serif" font-size="14.00">class = Plant</text>
</g>
<!-- 2&#45;&gt;9114 -->
<g id="edge6" class="edge">
<title>2&#45;&gt;9114</title>
<path fill="none" stroke="black" d="M285,-202.07C285,-194.17 285,-185.88 285,-177.73"/>
<polygon fill="black" stroke="black" points="288.5,-177.87 285,-167.87 281.5,-177.87 288.5,-177.87"/>
</g>
<!-- 4 -->
<g id="node5" class="node">
<title>4</title>
<path fill="#c0c0c0" stroke="black" d="M71,-36C71,-36 41,-36 41,-36 35,-36 29,-30 29,-24 29,-24 29,-12 29,-12 29,-6 35,0 41,0 41,0 71,0 71,0 77,0 83,-6 83,-12 83,-12 83,-24 83,-24 83,-30 77,-36 71,-36"/>
<text text-anchor="middle" x="56" y="-13.32" font-family="Helvetica,sans-Serif" font-size="14.00">(...)</text>
</g>
<!-- 3&#45;&gt;4 -->
<g id="edge4" class="edge">
<title>3&#45;&gt;4</title>
<path fill="none" stroke="black" d="M75.16,-71.75C72.06,-63.22 68.92,-54.57 66.1,-46.8"/>
<polygon fill="black" stroke="black" points="69.46,-45.8 62.75,-37.6 62.88,-48.19 69.46,-45.8"/>
</g>
<!-- 8055 -->
<g id="node6" class="node">
<title>8055</title>
<path fill="#c0c0c0" stroke="black" d="M143,-36C143,-36 113,-36 113,-36 107,-36 101,-30 101,-24 101,-24 101,-12 101,-12 101,-6 107,0 113,0 113,0 143,0 143,0 149,0 155,-6 155,-12 155,-12 155,-24 155,-24 155,-30 149,-36 143,-36"/>
<text text-anchor="middle" x="128" y="-13.32" font-family="Helvetica,sans-Serif" font-size="14.00">(...)</text>
</g>
<!-- 3&#45;&gt;8055 -->
<g id="edge5" class="edge">
<title>3&#45;&gt;8055</title>
<path fill="none" stroke="black" d="M108.84,-71.75C111.94,-63.22 115.08,-54.57 117.9,-46.8"/>
<polygon fill="black" stroke="black" points="121.12,-48.19 121.25,-37.6 114.54,-45.8 121.12,-48.19"/>
</g>
<!-- 9115 -->
<g id="node8" class="node">
<title>9115</title>
<path fill="#c0c0c0" stroke="black" d="M268,-36C268,-36 238,-36 238,-36 232,-36 226,-30 226,-24 226,-24 226,-12 226,-12 226,-6 232,0 238,0 238,0 268,0 268,0 274,0 280,-6 280,-12 280,-12 280,-24 280,-24 280,-30 274,-36 268,-36"/>
<text text-anchor="middle" x="253" y="-13.32" font-family="Helvetica,sans-Serif" font-size="14.00">(...)</text>
</g>
<!-- 9114&#45;&gt;9115 -->
<g id="edge7" class="edge">
<title>9114&#45;&gt;9115</title>
<path fill="none" stroke="black" d="M270.03,-71.75C267.31,-63.32 264.55,-54.77 262.06,-47.07"/>
<polygon fill="black" stroke="black" points="265.41,-46.05 259.01,-37.61 258.75,-48.2 265.41,-46.05"/>
</g>
<!-- 11508 -->
<g id="node9" class="node">
<title>11508</title>
<path fill="#c0c0c0" stroke="black" d="M340,-36C340,-36 310,-36 310,-36 304,-36 298,-30 298,-24 298,-24 298,-12 298,-12 298,-6 304,0 310,0 310,0 340,0 340,0 346,0 352,-6 352,-12 352,-12 352,-24 352,-24 352,-30 346,-36 340,-36"/>
<text text-anchor="middle" x="325" y="-13.32" font-family="Helvetica,sans-Serif" font-size="14.00">(...)</text>
</g>
<!-- 9114&#45;&gt;11508 -->
<g id="edge8" class="edge">
<title>9114&#45;&gt;11508</title>
<path fill="none" stroke="black" d="M303.71,-71.75C307.15,-63.22 310.65,-54.57 313.78,-46.8"/>
<polygon fill="black" stroke="black" points="317.01,-48.16 317.5,-37.58 310.52,-45.54 317.01,-48.16"/>
</g>
<!-- 12188 -->
<g id="node11" class="node">
<title>12188</title>
<path fill="#ffffff" stroke="black" d="M540,-166.25C540,-166.25 398,-166.25 398,-166.25 392,-166.25 386,-160.25 386,-154.25 386,-154.25 386,-84 386,-84 386,-78 392,-72 398,-72 398,-72 540,-72 540,-72 546,-72 552,-78 552,-84 552,-84 552,-154.25 552,-154.25 552,-160.25 546,-166.25 540,-166.25"/>
<text text-anchor="middle" x="469" y="-148.95" font-family="Helvetica,sans-Serif" font-size="14.00">15_A &lt;= 0.5</text>
<text text-anchor="middle" x="469" y="-131.7" font-family="Helvetica,sans-Serif" font-size="14.00">entropy = 1.0</text>
<text text-anchor="middle" x="469" y="-114.45" font-family="Helvetica,sans-Serif" font-size="14.00">samples = 5850</text>
<text text-anchor="middle" x="469" y="-97.2" font-family="Helvetica,sans-Serif" font-size="14.00">value = [4607, 4617]</text>
<text text-anchor="middle" x="469" y="-79.95" font-family="Helvetica,sans-Serif" font-size="14.00">class = Plant</text>
</g>
<!-- 12187&#45;&gt;12188 -->
<g id="edge10" class="edge">
<title>12187&#45;&gt;12188</title>
<path fill="none" stroke="black" d="M527.79,-202.07C521.6,-193.45 515.07,-184.35 508.71,-175.49"/>
<polygon fill="black" stroke="black" points="511.72,-173.67 503.05,-167.59 506.03,-177.75 511.72,-173.67"/>
</g>
<!-- 15159 -->
<g id="node14" class="node">
<title>15159</title>
<path fill="#77bced" stroke="black" d="M724,-166.25C724,-166.25 582,-166.25 582,-166.25 576,-166.25 570,-160.25 570,-154.25 570,-154.25 570,-84 570,-84 570,-78 576,-72 582,-72 582,-72 724,-72 724,-72 730,-72 736,-78 736,-84 736,-84 736,-154.25 736,-154.25 736,-160.25 730,-166.25 724,-166.25"/>
<text text-anchor="middle" x="653" y="-148.95" font-family="Helvetica,sans-Serif" font-size="14.00">22_U &lt;= 0.5</text>
<text text-anchor="middle" x="653" y="-131.7" font-family="Helvetica,sans-Serif" font-size="14.00">entropy = 0.795</text>
<text text-anchor="middle" x="653" y="-114.45" font-family="Helvetica,sans-Serif" font-size="14.00">samples = 3289</text>
<text text-anchor="middle" x="653" y="-97.2" font-family="Helvetica,sans-Serif" font-size="14.00">value = [1243, 3941]</text>
<text text-anchor="middle" x="653" y="-79.95" font-family="Helvetica,sans-Serif" font-size="14.00">class = Plant</text>
</g>
<!-- 12187&#45;&gt;15159 -->
<g id="edge13" class="edge">
<title>12187&#45;&gt;15159</title>
<path fill="none" stroke="black" d="M594.21,-202.07C600.4,-193.45 606.93,-184.35 613.29,-175.49"/>
<polygon fill="black" stroke="black" points="615.97,-177.75 618.95,-167.59 610.28,-173.67 615.97,-177.75"/>
</g>
<!-- 12189 -->
<g id="node12" class="node">
<title>12189</title>
<path fill="#c0c0c0" stroke="black" d="M432,-36C432,-36 402,-36 402,-36 396,-36 390,-30 390,-24 390,-24 390,-12 390,-12 390,-6 396,0 402,0 402,0 432,0 432,0 438,0 444,-6 444,-12 444,-12 444,-24 444,-24 444,-30 438,-36 432,-36"/>
<text text-anchor="middle" x="417" y="-13.32" font-family="Helvetica,sans-Serif" font-size="14.00">(...)</text>
</g>
<!-- 12188&#45;&gt;12189 -->
<g id="edge11" class="edge">
<title>12188&#45;&gt;12189</title>
<path fill="none" stroke="black" d="M444.67,-71.75C440.1,-63.03 435.45,-54.16 431.3,-46.26"/>
<polygon fill="black" stroke="black" points="434.46,-44.74 426.71,-37.51 428.26,-47.99 434.46,-44.74"/>
</g>
<!-- 14416 -->
<g id="node13" class="node">
<title>14416</title>
<path fill="#c0c0c0" stroke="black" d="M504,-36C504,-36 474,-36 474,-36 468,-36 462,-30 462,-24 462,-24 462,-12 462,-12 462,-6 468,0 474,0 474,0 504,0 504,0 510,0 516,-6 516,-12 516,-12 516,-24 516,-24 516,-30 510,-36 504,-36"/>
<text text-anchor="middle" x="489" y="-13.32" font-family="Helvetica,sans-Serif" font-size="14.00">(...)</text>
</g>
<!-- 12188&#45;&gt;14416 -->
<g id="edge12" class="edge">
<title>12188&#45;&gt;14416</title>
<path fill="none" stroke="black" d="M478.36,-71.75C480.04,-63.42 481.74,-54.97 483.28,-47.34"/>
<polygon fill="black" stroke="black" points="486.69,-48.15 485.24,-37.66 479.83,-46.77 486.69,-48.15"/>
</g>
<!-- 15160 -->
<g id="node15" class="node">
<title>15160</title>
<path fill="#c0c0c0" stroke="black" d="M614,-36C614,-36 584,-36 584,-36 578,-36 572,-30 572,-24 572,-24 572,-12 572,-12 572,-6 578,0 584,0 584,0 614,0 614,0 620,0 626,-6 626,-12 626,-12 626,-24 626,-24 626,-30 620,-36 614,-36"/>
<text text-anchor="middle" x="599" y="-13.32" font-family="Helvetica,sans-Serif" font-size="14.00">(...)</text>
</g>
<!-- 15159&#45;&gt;15160 -->
<g id="edge14" class="edge">
<title>15159&#45;&gt;15160</title>
<path fill="none" stroke="black" d="M627.74,-71.75C622.98,-63.03 618.16,-54.16 613.85,-46.26"/>
<polygon fill="black" stroke="black" points="616.94,-44.61 609.08,-37.5 610.79,-47.96 616.94,-44.61"/>
</g>
<!-- 15911 -->
<g id="node16" class="node">
<title>15911</title>
<path fill="#c0c0c0" stroke="black" d="M686,-36C686,-36 656,-36 656,-36 650,-36 644,-30 644,-24 644,-24 644,-12 644,-12 644,-6 650,0 656,0 656,0 686,0 686,0 692,0 698,-6 698,-12 698,-12 698,-24 698,-24 698,-30 692,-36 686,-36"/>
<text text-anchor="middle" x="671" y="-13.32" font-family="Helvetica,sans-Serif" font-size="14.00">(...)</text>
</g>
<!-- 15159&#45;&gt;15911 -->
<g id="edge15" class="edge">
<title>15159&#45;&gt;15911</title>
<path fill="none" stroke="black" d="M661.42,-71.75C662.93,-63.42 664.47,-54.97 665.85,-47.34"/>
<polygon fill="black" stroke="black" points="669.27,-48.13 667.61,-37.66 662.38,-46.88 669.27,-48.13"/>
</g>
<!-- 16019 -->
<g id="node18" class="node">
<title>16019</title>
<path fill="#ea975b" stroke="black" d="M977.5,-296.5C977.5,-296.5 844.5,-296.5 844.5,-296.5 838.5,-296.5 832.5,-290.5 832.5,-284.5 832.5,-284.5 832.5,-214.25 832.5,-214.25 832.5,-208.25 838.5,-202.25 844.5,-202.25 844.5,-202.25 977.5,-202.25 977.5,-202.25 983.5,-202.25 989.5,-208.25 989.5,-214.25 989.5,-214.25 989.5,-284.5 989.5,-284.5 989.5,-290.5 983.5,-296.5 977.5,-296.5"/>
<text text-anchor="middle" x="911" y="-279.2" font-family="Helvetica,sans-Serif" font-size="14.00">13_G &lt;= 0.5</text>
<text text-anchor="middle" x="911" y="-261.95" font-family="Helvetica,sans-Serif" font-size="14.00">entropy = 0.605</text>
<text text-anchor="middle" x="911" y="-244.7" font-family="Helvetica,sans-Serif" font-size="14.00">samples = 1923</text>
<text text-anchor="middle" x="911" y="-227.45" font-family="Helvetica,sans-Serif" font-size="14.00">value = [2603, 452]</text>
<text text-anchor="middle" x="911" y="-210.2" font-family="Helvetica,sans-Serif" font-size="14.00">class = Animal</text>
</g>
<!-- 16018&#45;&gt;16019 -->
<g id="edge17" class="edge">
<title>16018&#45;&gt;16019</title>
<path fill="none" stroke="black" d="M911,-332.32C911,-324.42 911,-316.13 911,-307.98"/>
<polygon fill="black" stroke="black" points="914.5,-308.12 911,-298.12 907.5,-308.12 914.5,-308.12"/>
</g>
<!-- 16772 -->
<g id="node25" class="node">
<title>16772</title>
<path fill="#f8ddc9" stroke="black" d="M1205.38,-296.5C1205.38,-296.5 1098.62,-296.5 1098.62,-296.5 1092.62,-296.5 1086.62,-290.5 1086.62,-284.5 1086.62,-284.5 1086.62,-214.25 1086.62,-214.25 1086.62,-208.25 1092.62,-202.25 1098.62,-202.25 1098.62,-202.25 1205.38,-202.25 1205.38,-202.25 1211.38,-202.25 1217.38,-208.25 1217.38,-214.25 1217.38,-214.25 1217.38,-284.5 1217.38,-284.5 1217.38,-290.5 1211.38,-296.5 1205.38,-296.5"/>
<text text-anchor="middle" x="1152" y="-279.2" font-family="Helvetica,sans-Serif" font-size="14.00">7_G &lt;= 0.5</text>
<text text-anchor="middle" x="1152" y="-261.95" font-family="Helvetica,sans-Serif" font-size="14.00">entropy = 0.982</text>
<text text-anchor="middle" x="1152" y="-244.7" font-family="Helvetica,sans-Serif" font-size="14.00">samples = 53</text>
<text text-anchor="middle" x="1152" y="-227.45" font-family="Helvetica,sans-Serif" font-size="14.00">value = [48, 35]</text>
<text text-anchor="middle" x="1152" y="-210.2" font-family="Helvetica,sans-Serif" font-size="14.00">class = Animal</text>
</g>
<!-- 16018&#45;&gt;16772 -->
<g id="edge24" class="edge">
<title>16018&#45;&gt;16772</title>
<path fill="none" stroke="black" d="M989.91,-336.63C1017.67,-321.86 1048.77,-305.31 1076.26,-290.68"/>
<polygon fill="black" stroke="black" points="1077.69,-293.88 1084.87,-286.1 1074.4,-287.7 1077.69,-293.88"/>
</g>
<!-- 16020 -->
<g id="node19" class="node">
<title>16020</title>
<path fill="#ea9b62" stroke="black" d="M899.5,-166.25C899.5,-166.25 766.5,-166.25 766.5,-166.25 760.5,-166.25 754.5,-160.25 754.5,-154.25 754.5,-154.25 754.5,-84 754.5,-84 754.5,-78 760.5,-72 766.5,-72 766.5,-72 899.5,-72 899.5,-72 905.5,-72 911.5,-78 911.5,-84 911.5,-84 911.5,-154.25 911.5,-154.25 911.5,-160.25 905.5,-166.25 899.5,-166.25"/>
<text text-anchor="middle" x="833" y="-148.95" font-family="Helvetica,sans-Serif" font-size="14.00">24_A &lt;= 0.5</text>
<text text-anchor="middle" x="833" y="-131.7" font-family="Helvetica,sans-Serif" font-size="14.00">entropy = 0.661</text>
<text text-anchor="middle" x="833" y="-114.45" font-family="Helvetica,sans-Serif" font-size="14.00">samples = 1314</text>
<text text-anchor="middle" x="833" y="-97.2" font-family="Helvetica,sans-Serif" font-size="14.00">value = [1744, 361]</text>
<text text-anchor="middle" x="833" y="-79.95" font-family="Helvetica,sans-Serif" font-size="14.00">class = Animal</text>
</g>
<!-- 16019&#45;&gt;16020 -->
<g id="edge18" class="edge">
<title>16019&#45;&gt;16020</title>
<path fill="none" stroke="black" d="M882.84,-202.07C877.7,-193.63 872.3,-184.74 867.01,-176.05"/>
<polygon fill="black" stroke="black" points="870.09,-174.38 861.9,-167.65 864.11,-178.01 870.09,-174.38"/>
</g>
<!-- 16561 -->
<g id="node22" class="node">
<title>16561</title>
<path fill="#e88e4e" stroke="black" d="M1056.5,-166.25C1056.5,-166.25 941.5,-166.25 941.5,-166.25 935.5,-166.25 929.5,-160.25 929.5,-154.25 929.5,-154.25 929.5,-84 929.5,-84 929.5,-78 935.5,-72 941.5,-72 941.5,-72 1056.5,-72 1056.5,-72 1062.5,-72 1068.5,-78 1068.5,-84 1068.5,-84 1068.5,-154.25 1068.5,-154.25 1068.5,-160.25 1062.5,-166.25 1056.5,-166.25"/>
<text text-anchor="middle" x="999" y="-148.95" font-family="Helvetica,sans-Serif" font-size="14.00">17_G &lt;= 0.5</text>
<text text-anchor="middle" x="999" y="-131.7" font-family="Helvetica,sans-Serif" font-size="14.00">entropy = 0.456</text>
<text text-anchor="middle" x="999" y="-114.45" font-family="Helvetica,sans-Serif" font-size="14.00">samples = 609</text>
<text text-anchor="middle" x="999" y="-97.2" font-family="Helvetica,sans-Serif" font-size="14.00">value = [859, 91]</text>
<text text-anchor="middle" x="999" y="-79.95" font-family="Helvetica,sans-Serif" font-size="14.00">class = Animal</text>
</g>
<!-- 16019&#45;&gt;16561 -->
<g id="edge21" class="edge">
<title>16019&#45;&gt;16561</title>
<path fill="none" stroke="black" d="M942.77,-202.07C948.63,-193.54 954.8,-184.54 960.82,-175.77"/>
<polygon fill="black" stroke="black" points="963.65,-177.83 966.42,-167.61 957.88,-173.87 963.65,-177.83"/>
</g>
<!-- 16021 -->
<g id="node20" class="node">
<title>16021</title>
<path fill="#c0c0c0" stroke="black" d="M787,-36C787,-36 757,-36 757,-36 751,-36 745,-30 745,-24 745,-24 745,-12 745,-12 745,-6 751,0 757,0 757,0 787,0 787,0 793,0 799,-6 799,-12 799,-12 799,-24 799,-24 799,-30 793,-36 787,-36"/>
<text text-anchor="middle" x="772" y="-13.32" font-family="Helvetica,sans-Serif" font-size="14.00">(...)</text>
</g>
<!-- 16020&#45;&gt;16021 -->
<g id="edge19" class="edge">
<title>16020&#45;&gt;16021</title>
<path fill="none" stroke="black" d="M804.46,-71.75C798.97,-62.83 793.39,-53.76 788.44,-45.72"/>
<polygon fill="black" stroke="black" points="791.58,-44.14 783.36,-37.46 785.62,-47.81 791.58,-44.14"/>
</g>
<!-- 16512 -->
<g id="node21" class="node">
<title>16512</title>
<path fill="#c0c0c0" stroke="black" d="M859,-36C859,-36 829,-36 829,-36 823,-36 817,-30 817,-24 817,-24 817,-12 817,-12 817,-6 823,0 829,0 829,0 859,0 859,0 865,0 871,-6 871,-12 871,-12 871,-24 871,-24 871,-30 865,-36 859,-36"/>
<text text-anchor="middle" x="844" y="-13.32" font-family="Helvetica,sans-Serif" font-size="14.00">(...)</text>
</g>
<!-- 16020&#45;&gt;16512 -->
<g id="edge20" class="edge">
<title>16020&#45;&gt;16512</title>
<path fill="none" stroke="black" d="M838.15,-71.75C839.06,-63.52 839.99,-55.17 840.82,-47.61"/>
<polygon fill="black" stroke="black" points="844.3,-48 841.93,-37.68 837.35,-47.23 844.3,-48"/>
</g>
<!-- 16562 -->
<g id="node23" class="node">
<title>16562</title>
<path fill="#c0c0c0" stroke="black" d="M964,-36C964,-36 934,-36 934,-36 928,-36 922,-30 922,-24 922,-24 922,-12 922,-12 922,-6 928,0 934,0 934,0 964,0 964,0 970,0 976,-6 976,-12 976,-12 976,-24 976,-24 976,-30 970,-36 964,-36"/>
<text text-anchor="middle" x="949" y="-13.32" font-family="Helvetica,sans-Serif" font-size="14.00">(...)</text>
</g>
<!-- 16561&#45;&gt;16562 -->
<g id="edge22" class="edge">
<title>16561&#45;&gt;16562</title>
<path fill="none" stroke="black" d="M975.61,-71.75C971.21,-63.03 966.74,-54.16 962.75,-46.26"/>
<polygon fill="black" stroke="black" points="965.97,-44.88 958.34,-37.52 959.72,-48.03 965.97,-44.88"/>
</g>
<!-- 16695 -->
<g id="node24" class="node">
<title>16695</title>
<path fill="#c0c0c0" stroke="black" d="M1036,-36C1036,-36 1006,-36 1006,-36 1000,-36 994,-30 994,-24 994,-24 994,-12 994,-12 994,-6 1000,0 1006,0 1006,0 1036,0 1036,0 1042,0 1048,-6 1048,-12 1048,-12 1048,-24 1048,-24 1048,-30 1042,-36 1036,-36"/>
<text text-anchor="middle" x="1021" y="-13.32" font-family="Helvetica,sans-Serif" font-size="14.00">(...)</text>
</g>
<!-- 16561&#45;&gt;16695 -->
<g id="edge23" class="edge">
<title>16561&#45;&gt;16695</title>
<path fill="none" stroke="black" d="M1009.29,-71.75C1011.14,-63.42 1013.02,-54.97 1014.71,-47.34"/>
<polygon fill="black" stroke="black" points="1018.11,-48.17 1016.86,-37.65 1011.28,-46.65 1018.11,-48.17"/>
</g>
<!-- 16773 -->
<g id="node26" class="node">
<title>16773</title>
<path fill="#eef7fd" stroke="black" d="M1205.38,-166.25C1205.38,-166.25 1098.62,-166.25 1098.62,-166.25 1092.62,-166.25 1086.62,-160.25 1086.62,-154.25 1086.62,-154.25 1086.62,-84 1086.62,-84 1086.62,-78 1092.62,-72 1098.62,-72 1098.62,-72 1205.38,-72 1205.38,-72 1211.38,-72 1217.38,-78 1217.38,-84 1217.38,-84 1217.38,-154.25 1217.38,-154.25 1217.38,-160.25 1211.38,-166.25 1205.38,-166.25"/>
<text text-anchor="middle" x="1152" y="-148.95" font-family="Helvetica,sans-Serif" font-size="14.00">7_C &lt;= 0.5</text>
<text text-anchor="middle" x="1152" y="-131.7" font-family="Helvetica,sans-Serif" font-size="14.00">entropy = 0.999</text>
<text text-anchor="middle" x="1152" y="-114.45" font-family="Helvetica,sans-Serif" font-size="14.00">samples = 44</text>
<text text-anchor="middle" x="1152" y="-97.2" font-family="Helvetica,sans-Serif" font-size="14.00">value = [32, 35]</text>
<text text-anchor="middle" x="1152" y="-79.95" font-family="Helvetica,sans-Serif" font-size="14.00">class = Plant</text>
</g>
<!-- 16772&#45;&gt;16773 -->
<g id="edge25" class="edge">
<title>16772&#45;&gt;16773</title>
<path fill="none" stroke="black" d="M1152,-202.07C1152,-194.17 1152,-185.88 1152,-177.73"/>
<polygon fill="black" stroke="black" points="1155.5,-177.87 1152,-167.87 1148.5,-177.87 1155.5,-177.87"/>
</g>
<!-- 16794 -->
<g id="node29" class="node">
<title>16794</title>
<path fill="#e58139" stroke="black" d="M1344.5,-157.62C1344.5,-157.62 1247.5,-157.62 1247.5,-157.62 1241.5,-157.62 1235.5,-151.62 1235.5,-145.62 1235.5,-145.62 1235.5,-92.62 1235.5,-92.62 1235.5,-86.62 1241.5,-80.62 1247.5,-80.62 1247.5,-80.62 1344.5,-80.62 1344.5,-80.62 1350.5,-80.62 1356.5,-86.62 1356.5,-92.62 1356.5,-92.62 1356.5,-145.62 1356.5,-145.62 1356.5,-151.62 1350.5,-157.62 1344.5,-157.62"/>
<text text-anchor="middle" x="1296" y="-140.32" font-family="Helvetica,sans-Serif" font-size="14.00">entropy = 0.0</text>
<text text-anchor="middle" x="1296" y="-123.08" font-family="Helvetica,sans-Serif" font-size="14.00">samples = 9</text>
<text text-anchor="middle" x="1296" y="-105.83" font-family="Helvetica,sans-Serif" font-size="14.00">value = [16, 0]</text>
<text text-anchor="middle" x="1296" y="-88.58" font-family="Helvetica,sans-Serif" font-size="14.00">class = Animal</text>
</g>
<!-- 16772&#45;&gt;16794 -->
<g id="edge28" class="edge">
<title>16772&#45;&gt;16794</title>
<path fill="none" stroke="black" d="M1203.99,-202.07C1217.34,-190.18 1231.68,-177.41 1244.98,-165.56"/>
<polygon fill="black" stroke="black" points="1247.28,-168.2 1252.42,-158.94 1242.62,-162.98 1247.28,-168.2"/>
</g>
<!-- 16774 -->
<g id="node27" class="node">
<title>16774</title>
<path fill="#c0c0c0" stroke="black" d="M1131,-36C1131,-36 1101,-36 1101,-36 1095,-36 1089,-30 1089,-24 1089,-24 1089,-12 1089,-12 1089,-6 1095,0 1101,0 1101,0 1131,0 1131,0 1137,0 1143,-6 1143,-12 1143,-12 1143,-24 1143,-24 1143,-30 1137,-36 1131,-36"/>
<text text-anchor="middle" x="1116" y="-13.32" font-family="Helvetica,sans-Serif" font-size="14.00">(...)</text>
</g>
<!-- 16773&#45;&gt;16774 -->
<g id="edge26" class="edge">
<title>16773&#45;&gt;16774</title>
<path fill="none" stroke="black" d="M1135.16,-71.75C1132.06,-63.22 1128.92,-54.57 1126.1,-46.8"/>
<polygon fill="black" stroke="black" points="1129.46,-45.8 1122.75,-37.6 1122.88,-48.19 1129.46,-45.8"/>
</g>
<!-- 16789 -->
<g id="node28" class="node">
<title>16789</title>
<path fill="#c0c0c0" stroke="black" d="M1203,-36C1203,-36 1173,-36 1173,-36 1167,-36 1161,-30 1161,-24 1161,-24 1161,-12 1161,-12 1161,-6 1167,0 1173,0 1173,0 1203,0 1203,0 1209,0 1215,-6 1215,-12 1215,-12 1215,-24 1215,-24 1215,-30 1209,-36 1203,-36"/>
<text text-anchor="middle" x="1188" y="-13.32" font-family="Helvetica,sans-Serif" font-size="14.00">(...)</text>
</g>
<!-- 16773&#45;&gt;16789 -->
<g id="edge27" class="edge">
<title>16773&#45;&gt;16789</title>
<path fill="none" stroke="black" d="M1168.84,-71.75C1171.94,-63.22 1175.08,-54.57 1177.9,-46.8"/>
<polygon fill="black" stroke="black" points="1181.12,-48.19 1181.25,-37.6 1174.54,-45.8 1181.12,-48.19"/>
</g>
</g>
</svg>
