<?xml version="1.0" encoding="UTF-8" standalone="no"?>
<!DOCTYPE svg PUBLIC "-//W3C//DTD SVG 1.1//EN"
 "http://www.w3.org/Graphics/SVG/1.1/DTD/svg11.dtd">
<!-- Generated by graphviz version 12.0.0 (20240803.0821)
 -->
<!-- Title: Tree Pages: 1 -->
<svg width="1410pt" height="565pt"
 viewBox="0.00 0.00 1409.50 565.00" xmlns="http://www.w3.org/2000/svg" xmlns:xlink="http://www.w3.org/1999/xlink">
<g id="graph0" class="graph" transform="scale(1 1) rotate(0) translate(4 561)">
<title>Tree</title>
<polygon fill="white" stroke="none" points="-4,4 -4,-561 1405.5,-561 1405.5,4 -4,4"/>
<!-- 0 -->
<g id="node1" class="node">
<title>0</title>
<path fill="#ffffff" stroke="black" d="M799,-557C799,-557 639,-557 639,-557 633,-557 627,-551 627,-545 627,-545 627,-474.75 627,-474.75 627,-468.75 633,-462.75 639,-462.75 639,-462.75 799,-462.75 799,-462.75 805,-462.75 811,-468.75 811,-474.75 811,-474.75 811,-545 811,-545 811,-551 805,-557 799,-557"/>
<text text-anchor="middle" x="719" y="-539.7" font-family="Helvetica,sans-Serif" font-size="14.00">22_G &lt;= 0.5</text>
<text text-anchor="middle" x="719" y="-522.45" font-family="Helvetica,sans-Serif" font-size="14.00">entropy = 1.0</text>
<text text-anchor="middle" x="719" y="-505.2" font-family="Helvetica,sans-Serif" font-size="14.00">samples = 38298</text>
<text text-anchor="middle" x="719" y="-487.95" font-family="Helvetica,sans-Serif" font-size="14.00">value = [30166, 30179]</text>
<text text-anchor="middle" x="719" y="-470.7" font-family="Helvetica,sans-Serif" font-size="14.00">class = Plant</text>
</g>
<!-- 1 -->
<g id="node2" class="node">
<title>1</title>
<path fill="#e1f0fb" stroke="black" d="M631,-426.75C631,-426.75 471,-426.75 471,-426.75 465,-426.75 459,-420.75 459,-414.75 459,-414.75 459,-344.5 459,-344.5 459,-338.5 465,-332.5 471,-332.5 471,-332.5 631,-332.5 631,-332.5 637,-332.5 643,-338.5 643,-344.5 643,-344.5 643,-414.75 643,-414.75 643,-420.75 637,-426.75 631,-426.75"/>
<text text-anchor="middle" x="551" y="-409.45" font-family="Helvetica,sans-Serif" font-size="14.00">23_G &lt;= 0.5</text>
<text text-anchor="middle" x="551" y="-392.2" font-family="Helvetica,sans-Serif" font-size="14.00">entropy = 0.995</text>
<text text-anchor="middle" x="551" y="-374.95" font-family="Helvetica,sans-Serif" font-size="14.00">samples = 33406</text>
<text text-anchor="middle" x="551" y="-357.7" font-family="Helvetica,sans-Serif" font-size="14.00">value = [24121, 28499]</text>
<text text-anchor="middle" x="551" y="-340.45" font-family="Helvetica,sans-Serif" font-size="14.00">class = Plant</text>
</g>
<!-- 0&#45;&gt;1 -->
<g id="edge1" class="edge">
<title>0&#45;&gt;1</title>
<path fill="none" stroke="black" d="M658.35,-462.57C646.17,-453.28 633.28,-443.44 620.82,-433.93"/>
<polygon fill="black" stroke="black" points="623.12,-431.28 613.05,-427.99 618.87,-436.84 623.12,-431.28"/>
<text text-anchor="middle" x="615.17" y="-447.18" font-family="Helvetica,sans-Serif" font-size="14.00">True</text>
</g>
<!-- 15132 -->
<g id="node17" class="node">
<title>15132</title>
<path fill="#eca470" stroke="black" d="M972,-426.75C972,-426.75 830,-426.75 830,-426.75 824,-426.75 818,-420.75 818,-414.75 818,-414.75 818,-344.5 818,-344.5 818,-338.5 824,-332.5 830,-332.5 830,-332.5 972,-332.5 972,-332.5 978,-332.5 984,-338.5 984,-344.5 984,-344.5 984,-414.75 984,-414.75 984,-420.75 978,-426.75 972,-426.75"/>
<text text-anchor="middle" x="901" y="-409.45" font-family="Helvetica,sans-Serif" font-size="14.00">19_U &lt;= 0.5</text>
<text text-anchor="middle" x="901" y="-392.2" font-family="Helvetica,sans-Serif" font-size="14.00">entropy = 0.756</text>
<text text-anchor="middle" x="901" y="-374.95" font-family="Helvetica,sans-Serif" font-size="14.00">samples = 4892</text>
<text text-anchor="middle" x="901" y="-357.7" font-family="Helvetica,sans-Serif" font-size="14.00">value = [6045, 1680]</text>
<text text-anchor="middle" x="901" y="-340.45" font-family="Helvetica,sans-Serif" font-size="14.00">class = Animal</text>
</g>
<!-- 0&#45;&gt;15132 -->
<g id="edge16" class="edge">
<title>0&#45;&gt;15132</title>
<path fill="none" stroke="black" d="M784.96,-462.39C798.19,-453.07 812.18,-443.22 825.69,-433.69"/>
<polygon fill="black" stroke="black" points="827.56,-436.66 833.72,-428.04 823.53,-430.94 827.56,-436.66"/>
<text text-anchor="middle" x="830.69" y="-447.12" font-family="Helvetica,sans-Serif" font-size="14.00">False</text>
</g>
<!-- 2 -->
<g id="node3" class="node">
<title>2</title>
<path fill="#d6ebfa" stroke="black" d="M370,-296.5C370,-296.5 210,-296.5 210,-296.5 204,-296.5 198,-290.5 198,-284.5 198,-284.5 198,-214.25 198,-214.25 198,-208.25 204,-202.25 210,-202.25 210,-202.25 370,-202.25 370,-202.25 376,-202.25 382,-208.25 382,-214.25 382,-214.25 382,-284.5 382,-284.5 382,-290.5 376,-296.5 370,-296.5"/>
<text text-anchor="middle" x="290" y="-279.2" font-family="Helvetica,sans-Serif" font-size="14.00">1_U &lt;= 0.5</text>
<text text-anchor="middle" x="290" y="-261.95" font-family="Helvetica,sans-Serif" font-size="14.00">entropy = 0.99</text>
<text text-anchor="middle" x="290" y="-244.7" font-family="Helvetica,sans-Serif" font-size="14.00">samples = 31923</text>
<text text-anchor="middle" x="290" y="-227.45" font-family="Helvetica,sans-Serif" font-size="14.00">value = [22202, 28062]</text>
<text text-anchor="middle" x="290" y="-210.2" font-family="Helvetica,sans-Serif" font-size="14.00">class = Plant</text>
</g>
<!-- 1&#45;&gt;2 -->
<g id="edge2" class="edge">
<title>1&#45;&gt;2</title>
<path fill="none" stroke="black" d="M458.61,-333.23C437.22,-322.72 414.33,-311.47 392.53,-300.75"/>
<polygon fill="black" stroke="black" points="394.14,-297.65 383.62,-296.38 391.05,-303.93 394.14,-297.65"/>
</g>
<!-- 14635 -->
<g id="node10" class="node">
<title>14635</title>
<path fill="#eb9e66" stroke="black" d="M617.5,-296.5C617.5,-296.5 484.5,-296.5 484.5,-296.5 478.5,-296.5 472.5,-290.5 472.5,-284.5 472.5,-284.5 472.5,-214.25 472.5,-214.25 472.5,-208.25 478.5,-202.25 484.5,-202.25 484.5,-202.25 617.5,-202.25 617.5,-202.25 623.5,-202.25 629.5,-208.25 629.5,-214.25 629.5,-214.25 629.5,-284.5 629.5,-284.5 629.5,-290.5 623.5,-296.5 617.5,-296.5"/>
<text text-anchor="middle" x="551" y="-279.2" font-family="Helvetica,sans-Serif" font-size="14.00">24_G &lt;= 0.5</text>
<text text-anchor="middle" x="551" y="-261.95" font-family="Helvetica,sans-Serif" font-size="14.00">entropy = 0.692</text>
<text text-anchor="middle" x="551" y="-244.7" font-family="Helvetica,sans-Serif" font-size="14.00">samples = 1483</text>
<text text-anchor="middle" x="551" y="-227.45" font-family="Helvetica,sans-Serif" font-size="14.00">value = [1919, 437]</text>
<text text-anchor="middle" x="551" y="-210.2" font-family="Helvetica,sans-Serif" font-size="14.00">class = Animal</text>
</g>
<!-- 1&#45;&gt;14635 -->
<g id="edge9" class="edge">
<title>1&#45;&gt;14635</title>
<path fill="none" stroke="black" d="M551,-332.32C551,-324.42 551,-316.13 551,-307.98"/>
<polygon fill="black" stroke="black" points="554.5,-308.12 551,-298.12 547.5,-308.12 554.5,-308.12"/>
</g>
<!-- 3 -->
<g id="node4" class="node">
<title>3</title>
<path fill="#fbebe0" stroke="black" d="M172,-166.25C172,-166.25 12,-166.25 12,-166.25 6,-166.25 0,-160.25 0,-154.25 0,-154.25 0,-84 0,-84 0,-78 6,-72 12,-72 12,-72 172,-72 172,-72 178,-72 184,-78 184,-84 184,-84 184,-154.25 184,-154.25 184,-160.25 178,-166.25 172,-166.25"/>
<text text-anchor="middle" x="92" y="-148.95" font-family="Helvetica,sans-Serif" font-size="14.00">12_G &lt;= 0.5</text>
<text text-anchor="middle" x="92" y="-131.7" font-family="Helvetica,sans-Serif" font-size="14.00">entropy = 0.995</text>
<text text-anchor="middle" x="92" y="-114.45" font-family="Helvetica,sans-Serif" font-size="14.00">samples = 14652</text>
<text text-anchor="middle" x="92" y="-97.2" font-family="Helvetica,sans-Serif" font-size="14.00">value = [12552, 10565]</text>
<text text-anchor="middle" x="92" y="-79.95" font-family="Helvetica,sans-Serif" font-size="14.00">class = Animal</text>
</g>
<!-- 2&#45;&gt;3 -->
<g id="edge3" class="edge">
<title>2&#45;&gt;3</title>
<path fill="none" stroke="black" d="M218.24,-201.89C203.71,-192.48 188.34,-182.53 173.5,-172.92"/>
<polygon fill="black" stroke="black" points="175.42,-169.99 165.12,-167.49 171.61,-175.86 175.42,-169.99"/>
</g>
<!-- 8170 -->
<g id="node7" class="node">
<title>8170</title>
<path fill="#a6d3f3" stroke="black" d="M365.5,-166.25C365.5,-166.25 214.5,-166.25 214.5,-166.25 208.5,-166.25 202.5,-160.25 202.5,-154.25 202.5,-154.25 202.5,-84 202.5,-84 202.5,-78 208.5,-72 214.5,-72 214.5,-72 365.5,-72 365.5,-72 371.5,-72 377.5,-78 377.5,-84 377.5,-84 377.5,-154.25 377.5,-154.25 377.5,-160.25 371.5,-166.25 365.5,-166.25"/>
<text text-anchor="middle" x="290" y="-148.95" font-family="Helvetica,sans-Serif" font-size="14.00">9_C &lt;= 0.5</text>
<text text-anchor="middle" x="290" y="-131.7" font-family="Helvetica,sans-Serif" font-size="14.00">entropy = 0.939</text>
<text text-anchor="middle" x="290" y="-114.45" font-family="Helvetica,sans-Serif" font-size="14.00">samples = 17271</text>
<text text-anchor="middle" x="290" y="-97.2" font-family="Helvetica,sans-Serif" font-size="14.00">value = [9650, 17497]</text>
<text text-anchor="middle" x="290" y="-79.95" font-family="Helvetica,sans-Serif" font-size="14.00">class = Plant</text>
</g>
<!-- 2&#45;&gt;8170 -->
<g id="edge6" class="edge">
<title>2&#45;&gt;8170</title>
<path fill="none" stroke="black" d="M290,-202.07C290,-194.17 290,-185.88 290,-177.73"/>
<polygon fill="black" stroke="black" points="293.5,-177.87 290,-167.87 286.5,-177.87 293.5,-177.87"/>
</g>
<!-- 4 -->
<g id="node5" class="node">
<title>4</title>
<path fill="#c0c0c0" stroke="black" d="M71,-36C71,-36 41,-36 41,-36 35,-36 29,-30 29,-24 29,-24 29,-12 29,-12 29,-6 35,0 41,0 41,0 71,0 71,0 77,0 83,-6 83,-12 83,-12 83,-24 83,-24 83,-30 77,-36 71,-36"/>
<text text-anchor="middle" x="56" y="-13.32" font-family="Helvetica,sans-Serif" font-size="14.00">(...)</text>
</g>
<!-- 3&#45;&gt;4 -->
<g id="edge4" class="edge">
<title>3&#45;&gt;4</title>
<path fill="none" stroke="black" d="M75.16,-71.75C72.06,-63.22 68.92,-54.57 66.1,-46.8"/>
<polygon fill="black" stroke="black" points="69.46,-45.8 62.75,-37.6 62.88,-48.19 69.46,-45.8"/>
</g>
<!-- 5977 -->
<g id="node6" class="node">
<title>5977</title>
<path fill="#c0c0c0" stroke="black" d="M143,-36C143,-36 113,-36 113,-36 107,-36 101,-30 101,-24 101,-24 101,-12 101,-12 101,-6 107,0 113,0 113,0 143,0 143,0 149,0 155,-6 155,-12 155,-12 155,-24 155,-24 155,-30 149,-36 143,-36"/>
<text text-anchor="middle" x="128" y="-13.32" font-family="Helvetica,sans-Serif" font-size="14.00">(...)</text>
</g>
<!-- 3&#45;&gt;5977 -->
<g id="edge5" class="edge">
<title>3&#45;&gt;5977</title>
<path fill="none" stroke="black" d="M108.84,-71.75C111.94,-63.22 115.08,-54.57 117.9,-46.8"/>
<polygon fill="black" stroke="black" points="121.12,-48.19 121.25,-37.6 114.54,-45.8 121.12,-48.19"/>
</g>
<!-- 8171 -->
<g id="node8" class="node">
<title>8171</title>
<path fill="#c0c0c0" stroke="black" d="M266,-36C266,-36 236,-36 236,-36 230,-36 224,-30 224,-24 224,-24 224,-12 224,-12 224,-6 230,0 236,0 236,0 266,0 266,0 272,0 278,-6 278,-12 278,-12 278,-24 278,-24 278,-30 272,-36 266,-36"/>
<text text-anchor="middle" x="251" y="-13.32" font-family="Helvetica,sans-Serif" font-size="14.00">(...)</text>
</g>
<!-- 8170&#45;&gt;8171 -->
<g id="edge7" class="edge">
<title>8170&#45;&gt;8171</title>
<path fill="none" stroke="black" d="M271.76,-71.75C268.4,-63.22 264.99,-54.57 261.94,-46.8"/>
<polygon fill="black" stroke="black" points="265.23,-45.61 258.31,-37.58 258.71,-48.17 265.23,-45.61"/>
</g>
<!-- 13222 -->
<g id="node9" class="node">
<title>13222</title>
<path fill="#c0c0c0" stroke="black" d="M338,-36C338,-36 308,-36 308,-36 302,-36 296,-30 296,-24 296,-24 296,-12 296,-12 296,-6 302,0 308,0 308,0 338,0 338,0 344,0 350,-6 350,-12 350,-12 350,-24 350,-24 350,-30 344,-36 338,-36"/>
<text text-anchor="middle" x="323" y="-13.32" font-family="Helvetica,sans-Serif" font-size="14.00">(...)</text>
</g>
<!-- 8170&#45;&gt;13222 -->
<g id="edge8" class="edge">
<title>8170&#45;&gt;13222</title>
<path fill="none" stroke="black" d="M305.44,-71.75C308.24,-63.32 311.09,-54.77 313.66,-47.07"/>
<polygon fill="black" stroke="black" points="316.97,-48.2 316.8,-37.61 310.33,-45.99 316.97,-48.2"/>
</g>
<!-- 14636 -->
<g id="node11" class="node">
<title>14636</title>
<path fill="#e99457" stroke="black" d="M540.5,-166.25C540.5,-166.25 407.5,-166.25 407.5,-166.25 401.5,-166.25 395.5,-160.25 395.5,-154.25 395.5,-154.25 395.5,-84 395.5,-84 395.5,-78 401.5,-72 407.5,-72 407.5,-72 540.5,-72 540.5,-72 546.5,-72 552.5,-78 552.5,-84 552.5,-84 552.5,-154.25 552.5,-154.25 552.5,-160.25 546.5,-166.25 540.5,-166.25"/>
<text text-anchor="middle" x="474" y="-148.95" font-family="Helvetica,sans-Serif" font-size="14.00">18_C &lt;= 0.5</text>
<text text-anchor="middle" x="474" y="-131.7" font-family="Helvetica,sans-Serif" font-size="14.00">entropy = 0.567</text>
<text text-anchor="middle" x="474" y="-114.45" font-family="Helvetica,sans-Serif" font-size="14.00">samples = 1296</text>
<text text-anchor="middle" x="474" y="-97.2" font-family="Helvetica,sans-Serif" font-size="14.00">value = [1794, 276]</text>
<text text-anchor="middle" x="474" y="-79.95" font-family="Helvetica,sans-Serif" font-size="14.00">class = Animal</text>
</g>
<!-- 14635&#45;&gt;14636 -->
<g id="edge10" class="edge">
<title>14635&#45;&gt;14636</title>
<path fill="none" stroke="black" d="M523.2,-202.07C518.13,-193.63 512.79,-184.74 507.57,-176.05"/>
<polygon fill="black" stroke="black" points="510.69,-174.43 502.54,-167.66 504.68,-178.03 510.69,-174.43"/>
</g>
<!-- 15037 -->
<g id="node14" class="node">
<title>15037</title>
<path fill="#d3e9f9" stroke="black" d="M707,-166.25C707,-166.25 583,-166.25 583,-166.25 577,-166.25 571,-160.25 571,-154.25 571,-154.25 571,-84 571,-84 571,-78 577,-72 583,-72 583,-72 707,-72 707,-72 713,-72 719,-78 719,-84 719,-84 719,-154.25 719,-154.25 719,-160.25 713,-166.25 707,-166.25"/>
<text text-anchor="middle" x="645" y="-148.95" font-family="Helvetica,sans-Serif" font-size="14.00">22_C &lt;= 0.5</text>
<text text-anchor="middle" x="645" y="-131.7" font-family="Helvetica,sans-Serif" font-size="14.00">entropy = 0.989</text>
<text text-anchor="middle" x="645" y="-114.45" font-family="Helvetica,sans-Serif" font-size="14.00">samples = 187</text>
<text text-anchor="middle" x="645" y="-97.2" font-family="Helvetica,sans-Serif" font-size="14.00">value = [125, 161]</text>
<text text-anchor="middle" x="645" y="-79.95" font-family="Helvetica,sans-Serif" font-size="14.00">class = Plant</text>
</g>
<!-- 14635&#45;&gt;15037 -->
<g id="edge13" class="edge">
<title>14635&#45;&gt;15037</title>
<path fill="none" stroke="black" d="M584.94,-202.07C591.26,-193.45 597.92,-184.35 604.42,-175.49"/>
<polygon fill="black" stroke="black" points="607.13,-177.71 610.22,-167.58 601.48,-173.58 607.13,-177.71"/>
</g>
<!-- 14637 -->
<g id="node12" class="node">
<title>14637</title>
<path fill="#c0c0c0" stroke="black" d="M430,-36C430,-36 400,-36 400,-36 394,-36 388,-30 388,-24 388,-24 388,-12 388,-12 388,-6 394,0 400,0 400,0 430,0 430,0 436,0 442,-6 442,-12 442,-12 442,-24 442,-24 442,-30 436,-36 430,-36"/>
<text text-anchor="middle" x="415" y="-13.32" font-family="Helvetica,sans-Serif" font-size="14.00">(...)</text>
</g>
<!-- 14636&#45;&gt;14637 -->
<g id="edge11" class="edge">
<title>14636&#45;&gt;14637</title>
<path fill="none" stroke="black" d="M446.4,-71.75C441.15,-62.93 435.81,-53.96 431.06,-45.99"/>
<polygon fill="black" stroke="black" points="434.12,-44.28 426,-37.47 428.1,-47.86 434.12,-44.28"/>
</g>
<!-- 14938 -->
<g id="node13" class="node">
<title>14938</title>
<path fill="#c0c0c0" stroke="black" d="M502,-36C502,-36 472,-36 472,-36 466,-36 460,-30 460,-24 460,-24 460,-12 460,-12 460,-6 466,0 472,0 472,0 502,0 502,0 508,0 514,-6 514,-12 514,-12 514,-24 514,-24 514,-30 508,-36 502,-36"/>
<text text-anchor="middle" x="487" y="-13.32" font-family="Helvetica,sans-Serif" font-size="14.00">(...)</text>
</g>
<!-- 14636&#45;&gt;14938 -->
<g id="edge12" class="edge">
<title>14636&#45;&gt;14938</title>
<path fill="none" stroke="black" d="M480.08,-71.75C481.17,-63.42 482.28,-54.97 483.28,-47.34"/>
<polygon fill="black" stroke="black" points="486.72,-48.04 484.55,-37.67 479.78,-47.13 486.72,-48.04"/>
</g>
<!-- 15038 -->
<g id="node15" class="node">
<title>15038</title>
<path fill="#c0c0c0" stroke="black" d="M601,-36C601,-36 571,-36 571,-36 565,-36 559,-30 559,-24 559,-24 559,-12 559,-12 559,-6 565,0 571,0 571,0 601,0 601,0 607,0 613,-6 613,-12 613,-12 613,-24 613,-24 613,-30 607,-36 601,-36"/>
<text text-anchor="middle" x="586" y="-13.32" font-family="Helvetica,sans-Serif" font-size="14.00">(...)</text>
</g>
<!-- 15037&#45;&gt;15038 -->
<g id="edge14" class="edge">
<title>15037&#45;&gt;15038</title>
<path fill="none" stroke="black" d="M617.4,-71.75C612.15,-62.93 606.81,-53.96 602.06,-45.99"/>
<polygon fill="black" stroke="black" points="605.12,-44.28 597,-37.47 599.1,-47.86 605.12,-44.28"/>
</g>
<!-- 15101 -->
<g id="node16" class="node">
<title>15101</title>
<path fill="#c0c0c0" stroke="black" d="M673,-36C673,-36 643,-36 643,-36 637,-36 631,-30 631,-24 631,-24 631,-12 631,-12 631,-6 637,0 643,0 643,0 673,0 673,0 679,0 685,-6 685,-12 685,-12 685,-24 685,-24 685,-30 679,-36 673,-36"/>
<text text-anchor="middle" x="658" y="-13.32" font-family="Helvetica,sans-Serif" font-size="14.00">(...)</text>
</g>
<!-- 15037&#45;&gt;15101 -->
<g id="edge15" class="edge">
<title>15037&#45;&gt;15101</title>
<path fill="none" stroke="black" d="M651.08,-71.75C652.17,-63.42 653.28,-54.97 654.28,-47.34"/>
<polygon fill="black" stroke="black" points="657.72,-48.04 655.55,-37.67 650.78,-47.13 657.72,-48.04"/>
</g>
<!-- 15133 -->
<g id="node18" class="node">
<title>15133</title>
<path fill="#eeab7b" stroke="black" d="M972,-296.5C972,-296.5 830,-296.5 830,-296.5 824,-296.5 818,-290.5 818,-284.5 818,-284.5 818,-214.25 818,-214.25 818,-208.25 824,-202.25 830,-202.25 830,-202.25 972,-202.25 972,-202.25 978,-202.25 984,-208.25 984,-214.25 984,-214.25 984,-284.5 984,-284.5 984,-290.5 978,-296.5 972,-296.5"/>
<text text-anchor="middle" x="901" y="-279.2" font-family="Helvetica,sans-Serif" font-size="14.00">21_U &lt;= 0.5</text>
<text text-anchor="middle" x="901" y="-261.95" font-family="Helvetica,sans-Serif" font-size="14.00">entropy = 0.812</text>
<text text-anchor="middle" x="901" y="-244.7" font-family="Helvetica,sans-Serif" font-size="14.00">samples = 3389</text>
<text text-anchor="middle" x="901" y="-227.45" font-family="Helvetica,sans-Serif" font-size="14.00">value = [3994, 1333]</text>
<text text-anchor="middle" x="901" y="-210.2" font-family="Helvetica,sans-Serif" font-size="14.00">class = Animal</text>
</g>
<!-- 15132&#45;&gt;15133 -->
<g id="edge17" class="edge">
<title>15132&#45;&gt;15133</title>
<path fill="none" stroke="black" d="M901,-332.32C901,-324.42 901,-316.13 901,-307.98"/>
<polygon fill="black" stroke="black" points="904.5,-308.12 901,-298.12 897.5,-308.12 904.5,-308.12"/>
</g>
<!-- 16708 -->
<g id="node25" class="node">
<title>16708</title>
<path fill="#e9965a" stroke="black" d="M1232.5,-296.5C1232.5,-296.5 1099.5,-296.5 1099.5,-296.5 1093.5,-296.5 1087.5,-290.5 1087.5,-284.5 1087.5,-284.5 1087.5,-214.25 1087.5,-214.25 1087.5,-208.25 1093.5,-202.25 1099.5,-202.25 1099.5,-202.25 1232.5,-202.25 1232.5,-202.25 1238.5,-202.25 1244.5,-208.25 1244.5,-214.25 1244.5,-214.25 1244.5,-284.5 1244.5,-284.5 1244.5,-290.5 1238.5,-296.5 1232.5,-296.5"/>
<text text-anchor="middle" x="1166" y="-279.2" font-family="Helvetica,sans-Serif" font-size="14.00">14_G &lt;= 0.5</text>
<text text-anchor="middle" x="1166" y="-261.95" font-family="Helvetica,sans-Serif" font-size="14.00">entropy = 0.596</text>
<text text-anchor="middle" x="1166" y="-244.7" font-family="Helvetica,sans-Serif" font-size="14.00">samples = 1503</text>
<text text-anchor="middle" x="1166" y="-227.45" font-family="Helvetica,sans-Serif" font-size="14.00">value = [2051, 347]</text>
<text text-anchor="middle" x="1166" y="-210.2" font-family="Helvetica,sans-Serif" font-size="14.00">class = Animal</text>
</g>
<!-- 15132&#45;&gt;16708 -->
<g id="edge24" class="edge">
<title>15132&#45;&gt;16708</title>
<path fill="none" stroke="black" d="M984.48,-338.22C1013.93,-323.97 1047.13,-307.91 1077.01,-293.44"/>
<polygon fill="black" stroke="black" points="1078.16,-296.77 1085.64,-289.27 1075.11,-290.47 1078.16,-296.77"/>
</g>
<!-- 15134 -->
<g id="node19" class="node">
<title>15134</title>
<path fill="#efb185" stroke="black" d="M882.5,-166.25C882.5,-166.25 749.5,-166.25 749.5,-166.25 743.5,-166.25 737.5,-160.25 737.5,-154.25 737.5,-154.25 737.5,-84 737.5,-84 737.5,-78 743.5,-72 749.5,-72 749.5,-72 882.5,-72 882.5,-72 888.5,-72 894.5,-78 894.5,-84 894.5,-84 894.5,-154.25 894.5,-154.25 894.5,-160.25 888.5,-166.25 882.5,-166.25"/>
<text text-anchor="middle" x="816" y="-148.95" font-family="Helvetica,sans-Serif" font-size="14.00">17_U &lt;= 0.5</text>
<text text-anchor="middle" x="816" y="-131.7" font-family="Helvetica,sans-Serif" font-size="14.00">entropy = 0.851</text>
<text text-anchor="middle" x="816" y="-114.45" font-family="Helvetica,sans-Serif" font-size="14.00">samples = 2242</text>
<text text-anchor="middle" x="816" y="-97.2" font-family="Helvetica,sans-Serif" font-size="14.00">value = [2571, 983]</text>
<text text-anchor="middle" x="816" y="-79.95" font-family="Helvetica,sans-Serif" font-size="14.00">class = Animal</text>
</g>
<!-- 15133&#45;&gt;15134 -->
<g id="edge18" class="edge">
<title>15133&#45;&gt;15134</title>
<path fill="none" stroke="black" d="M870.31,-202.07C864.66,-193.54 858.7,-184.54 852.88,-175.77"/>
<polygon fill="black" stroke="black" points="855.92,-174.02 847.48,-167.62 850.09,-177.89 855.92,-174.02"/>
</g>
<!-- 16229 -->
<g id="node22" class="node">
<title>16229</title>
<path fill="#eba06a" stroke="black" d="M1057.5,-166.25C1057.5,-166.25 924.5,-166.25 924.5,-166.25 918.5,-166.25 912.5,-160.25 912.5,-154.25 912.5,-154.25 912.5,-84 912.5,-84 912.5,-78 918.5,-72 924.5,-72 924.5,-72 1057.5,-72 1057.5,-72 1063.5,-72 1069.5,-78 1069.5,-84 1069.5,-84 1069.5,-154.25 1069.5,-154.25 1069.5,-160.25 1063.5,-166.25 1057.5,-166.25"/>
<text text-anchor="middle" x="991" y="-148.95" font-family="Helvetica,sans-Serif" font-size="14.00">9_U &lt;= 0.5</text>
<text text-anchor="middle" x="991" y="-131.7" font-family="Helvetica,sans-Serif" font-size="14.00">entropy = 0.717</text>
<text text-anchor="middle" x="991" y="-114.45" font-family="Helvetica,sans-Serif" font-size="14.00">samples = 1147</text>
<text text-anchor="middle" x="991" y="-97.2" font-family="Helvetica,sans-Serif" font-size="14.00">value = [1423, 350]</text>
<text text-anchor="middle" x="991" y="-79.95" font-family="Helvetica,sans-Serif" font-size="14.00">class = Animal</text>
</g>
<!-- 15133&#45;&gt;16229 -->
<g id="edge21" class="edge">
<title>15133&#45;&gt;16229</title>
<path fill="none" stroke="black" d="M933.49,-202.07C939.48,-193.54 945.79,-184.54 951.95,-175.77"/>
<polygon fill="black" stroke="black" points="954.81,-177.79 957.69,-167.6 949.08,-173.77 954.81,-177.79"/>
</g>
<!-- 15135 -->
<g id="node20" class="node">
<title>15135</title>
<path fill="#c0c0c0" stroke="black" d="M774,-36C774,-36 744,-36 744,-36 738,-36 732,-30 732,-24 732,-24 732,-12 732,-12 732,-6 738,0 744,0 744,0 774,0 774,0 780,0 786,-6 786,-12 786,-12 786,-24 786,-24 786,-30 780,-36 774,-36"/>
<text text-anchor="middle" x="759" y="-13.32" font-family="Helvetica,sans-Serif" font-size="14.00">(...)</text>
</g>
<!-- 15134&#45;&gt;15135 -->
<g id="edge19" class="edge">
<title>15134&#45;&gt;15135</title>
<path fill="none" stroke="black" d="M789.34,-71.75C784.26,-62.93 779.1,-53.96 774.52,-45.99"/>
<polygon fill="black" stroke="black" points="777.65,-44.41 769.63,-37.48 771.58,-47.9 777.65,-44.41"/>
</g>
<!-- 15970 -->
<g id="node21" class="node">
<title>15970</title>
<path fill="#c0c0c0" stroke="black" d="M846,-36C846,-36 816,-36 816,-36 810,-36 804,-30 804,-24 804,-24 804,-12 804,-12 804,-6 810,0 816,0 816,0 846,0 846,0 852,0 858,-6 858,-12 858,-12 858,-24 858,-24 858,-30 852,-36 846,-36"/>
<text text-anchor="middle" x="831" y="-13.32" font-family="Helvetica,sans-Serif" font-size="14.00">(...)</text>
</g>
<!-- 15134&#45;&gt;15970 -->
<g id="edge20" class="edge">
<title>15134&#45;&gt;15970</title>
<path fill="none" stroke="black" d="M823.02,-71.75C824.28,-63.42 825.56,-54.97 826.71,-47.34"/>
<polygon fill="black" stroke="black" points="830.14,-48.08 828.17,-37.67 823.22,-47.03 830.14,-48.08"/>
</g>
<!-- 16230 -->
<g id="node23" class="node">
<title>16230</title>
<path fill="#c0c0c0" stroke="black" d="M949,-36C949,-36 919,-36 919,-36 913,-36 907,-30 907,-24 907,-24 907,-12 907,-12 907,-6 913,0 919,0 919,0 949,0 949,0 955,0 961,-6 961,-12 961,-12 961,-24 961,-24 961,-30 955,-36 949,-36"/>
<text text-anchor="middle" x="934" y="-13.32" font-family="Helvetica,sans-Serif" font-size="14.00">(...)</text>
</g>
<!-- 16229&#45;&gt;16230 -->
<g id="edge22" class="edge">
<title>16229&#45;&gt;16230</title>
<path fill="none" stroke="black" d="M964.34,-71.75C959.26,-62.93 954.1,-53.96 949.52,-45.99"/>
<polygon fill="black" stroke="black" points="952.65,-44.41 944.63,-37.48 946.58,-47.9 952.65,-44.41"/>
</g>
<!-- 16561 -->
<g id="node24" class="node">
<title>16561</title>
<path fill="#c0c0c0" stroke="black" d="M1021,-36C1021,-36 991,-36 991,-36 985,-36 979,-30 979,-24 979,-24 979,-12 979,-12 979,-6 985,0 991,0 991,0 1021,0 1021,0 1027,0 1033,-6 1033,-12 1033,-12 1033,-24 1033,-24 1033,-30 1027,-36 1021,-36"/>
<text text-anchor="middle" x="1006" y="-13.32" font-family="Helvetica,sans-Serif" font-size="14.00">(...)</text>
</g>
<!-- 16229&#45;&gt;16561 -->
<g id="edge23" class="edge">
<title>16229&#45;&gt;16561</title>
<path fill="none" stroke="black" d="M998.02,-71.75C999.28,-63.42 1000.56,-54.97 1001.71,-47.34"/>
<polygon fill="black" stroke="black" points="1005.14,-48.08 1003.17,-37.67 998.22,-47.03 1005.14,-48.08"/>
</g>
<!-- 16709 -->
<g id="node26" class="node">
<title>16709</title>
<path fill="#ea995f" stroke="black" d="M1232.5,-166.25C1232.5,-166.25 1099.5,-166.25 1099.5,-166.25 1093.5,-166.25 1087.5,-160.25 1087.5,-154.25 1087.5,-154.25 1087.5,-84 1087.5,-84 1087.5,-78 1093.5,-72 1099.5,-72 1099.5,-72 1232.5,-72 1232.5,-72 1238.5,-72 1244.5,-78 1244.5,-84 1244.5,-84 1244.5,-154.25 1244.5,-154.25 1244.5,-160.25 1238.5,-166.25 1232.5,-166.25"/>
<text text-anchor="middle" x="1166" y="-148.95" font-family="Helvetica,sans-Serif" font-size="14.00">25_G &lt;= 0.5</text>
<text text-anchor="middle" x="1166" y="-131.7" font-family="Helvetica,sans-Serif" font-size="14.00">entropy = 0.64</text>
<text text-anchor="middle" x="1166" y="-114.45" font-family="Helvetica,sans-Serif" font-size="14.00">samples = 1020</text>
<text text-anchor="middle" x="1166" y="-97.2" font-family="Helvetica,sans-Serif" font-size="14.00">value = [1353, 262]</text>
<text text-anchor="middle" x="1166" y="-79.95" font-family="Helvetica,sans-Serif" font-size="14.00">class = Animal</text>
</g>
<!-- 16708&#45;&gt;16709 -->
<g id="edge25" class="edge">
<title>16708&#45;&gt;16709</title>
<path fill="none" stroke="black" d="M1166,-202.07C1166,-194.17 1166,-185.88 1166,-177.73"/>
<polygon fill="black" stroke="black" points="1169.5,-177.87 1166,-167.87 1162.5,-177.87 1169.5,-177.87"/>
</g>
<!-- 17018 -->
<g id="node29" class="node">
<title>17018</title>
<path fill="#e89051" stroke="black" d="M1389.5,-166.25C1389.5,-166.25 1274.5,-166.25 1274.5,-166.25 1268.5,-166.25 1262.5,-160.25 1262.5,-154.25 1262.5,-154.25 1262.5,-84 1262.5,-84 1262.5,-78 1268.5,-72 1274.5,-72 1274.5,-72 1389.5,-72 1389.5,-72 1395.5,-72 1401.5,-78 1401.5,-84 1401.5,-84 1401.5,-154.25 1401.5,-154.25 1401.5,-160.25 1395.5,-166.25 1389.5,-166.25"/>
<text text-anchor="middle" x="1332" y="-148.95" font-family="Helvetica,sans-Serif" font-size="14.00">10_G &lt;= 0.5</text>
<text text-anchor="middle" x="1332" y="-131.7" font-family="Helvetica,sans-Serif" font-size="14.00">entropy = 0.496</text>
<text text-anchor="middle" x="1332" y="-114.45" font-family="Helvetica,sans-Serif" font-size="14.00">samples = 483</text>
<text text-anchor="middle" x="1332" y="-97.2" font-family="Helvetica,sans-Serif" font-size="14.00">value = [698, 85]</text>
<text text-anchor="middle" x="1332" y="-79.95" font-family="Helvetica,sans-Serif" font-size="14.00">class = Animal</text>
</g>
<!-- 16708&#45;&gt;17018 -->
<g id="edge28" class="edge">
<title>16708&#45;&gt;17018</title>
<path fill="none" stroke="black" d="M1225.93,-202.07C1237.96,-192.78 1250.7,-182.94 1263.01,-173.43"/>
<polygon fill="black" stroke="black" points="1264.91,-176.38 1270.68,-167.5 1260.63,-170.84 1264.91,-176.38"/>
</g>
<!-- 16710 -->
<g id="node27" class="node">
<title>16710</title>
<path fill="#c0c0c0" stroke="black" d="M1138,-36C1138,-36 1108,-36 1108,-36 1102,-36 1096,-30 1096,-24 1096,-24 1096,-12 1096,-12 1096,-6 1102,0 1108,0 1108,0 1138,0 1138,0 1144,0 1150,-6 1150,-12 1150,-12 1150,-24 1150,-24 1150,-30 1144,-36 1138,-36"/>
<text text-anchor="middle" x="1123" y="-13.32" font-family="Helvetica,sans-Serif" font-size="14.00">(...)</text>
</g>
<!-- 16709&#45;&gt;16710 -->
<g id="edge26" class="edge">
<title>16709&#45;&gt;16710</title>
<path fill="none" stroke="black" d="M1145.88,-71.75C1142.14,-63.12 1138.34,-54.36 1134.94,-46.53"/>
<polygon fill="black" stroke="black" points="1138.24,-45.34 1131.05,-37.56 1131.82,-48.13 1138.24,-45.34"/>
</g>
<!-- 17009 -->
<g id="node28" class="node">
<title>17009</title>
<path fill="#c0c0c0" stroke="black" d="M1210,-36C1210,-36 1180,-36 1180,-36 1174,-36 1168,-30 1168,-24 1168,-24 1168,-12 1168,-12 1168,-6 1174,0 1180,0 1180,0 1210,0 1210,0 1216,0 1222,-6 1222,-12 1222,-12 1222,-24 1222,-24 1222,-30 1216,-36 1210,-36"/>
<text text-anchor="middle" x="1195" y="-13.32" font-family="Helvetica,sans-Serif" font-size="14.00">(...)</text>
</g>
<!-- 16709&#45;&gt;17009 -->
<g id="edge27" class="edge">
<title>16709&#45;&gt;17009</title>
<path fill="none" stroke="black" d="M1179.57,-71.75C1182.03,-63.32 1184.54,-54.77 1186.79,-47.07"/>
<polygon fill="black" stroke="black" points="1190.1,-48.21 1189.55,-37.63 1183.38,-46.24 1190.1,-48.21"/>
</g>
<!-- 17019 -->
<g id="node30" class="node">
<title>17019</title>
<path fill="#c0c0c0" stroke="black" d="M1311,-36C1311,-36 1281,-36 1281,-36 1275,-36 1269,-30 1269,-24 1269,-24 1269,-12 1269,-12 1269,-6 1275,0 1281,0 1281,0 1311,0 1311,0 1317,0 1323,-6 1323,-12 1323,-12 1323,-24 1323,-24 1323,-30 1317,-36 1311,-36"/>
<text text-anchor="middle" x="1296" y="-13.32" font-family="Helvetica,sans-Serif" font-size="14.00">(...)</text>
</g>
<!-- 17018&#45;&gt;17019 -->
<g id="edge29" class="edge">
<title>17018&#45;&gt;17019</title>
<path fill="none" stroke="black" d="M1315.16,-71.75C1312.06,-63.22 1308.92,-54.57 1306.1,-46.8"/>
<polygon fill="black" stroke="black" points="1309.46,-45.8 1302.75,-37.6 1302.88,-48.19 1309.46,-45.8"/>
</g>
<!-- 17128 -->
<g id="node31" class="node">
<title>17128</title>
<path fill="#c0c0c0" stroke="black" d="M1383,-36C1383,-36 1353,-36 1353,-36 1347,-36 1341,-30 1341,-24 1341,-24 1341,-12 1341,-12 1341,-6 1347,0 1353,0 1353,0 1383,0 1383,0 1389,0 1395,-6 1395,-12 1395,-12 1395,-24 1395,-24 1395,-30 1389,-36 1383,-36"/>
<text text-anchor="middle" x="1368" y="-13.32" font-family="Helvetica,sans-Serif" font-size="14.00">(...)</text>
</g>
<!-- 17018&#45;&gt;17128 -->
<g id="edge30" class="edge">
<title>17018&#45;&gt;17128</title>
<path fill="none" stroke="black" d="M1348.84,-71.75C1351.94,-63.22 1355.08,-54.57 1357.9,-46.8"/>
<polygon fill="black" stroke="black" points="1361.12,-48.19 1361.25,-37.6 1354.54,-45.8 1361.12,-48.19"/>
</g>
</g>
</svg>
