<?xml version="1.0" encoding="UTF-8" standalone="no"?>
<!DOCTYPE svg PUBLIC "-//W3C//DTD SVG 1.1//EN"
 "http://www.w3.org/Graphics/SVG/1.1/DTD/svg11.dtd">
<!-- Generated by graphviz version 12.0.0 (20240803.0821)
 -->
<!-- Title: Tree Pages: 1 -->
<svg width="1419pt" height="565pt"
 viewBox="0.00 0.00 1419.00 565.00" xmlns="http://www.w3.org/2000/svg" xmlns:xlink="http://www.w3.org/1999/xlink">
<g id="graph0" class="graph" transform="scale(1 1) rotate(0) translate(4 561)">
<title>Tree</title>
<polygon fill="white" stroke="none" points="-4,4 -4,-561 1415,-561 1415,4 -4,4"/>
<!-- 0 -->
<g id="node1" class="node">
<title>0</title>
<path fill="#fffefd" stroke="black" d="M817,-557C817,-557 657,-557 657,-557 651,-557 645,-551 645,-545 645,-545 645,-474.75 645,-474.75 645,-468.75 651,-462.75 657,-462.75 657,-462.75 817,-462.75 817,-462.75 823,-462.75 829,-468.75 829,-474.75 829,-474.75 829,-545 829,-545 829,-551 823,-557 817,-557"/>
<text text-anchor="middle" x="737" y="-539.7" font-family="Helvetica,sans-Serif" font-size="14.00">22_U &lt;= 0.5</text>
<text text-anchor="middle" x="737" y="-522.45" font-family="Helvetica,sans-Serif" font-size="14.00">entropy = 1.0</text>
<text text-anchor="middle" x="737" y="-505.2" font-family="Helvetica,sans-Serif" font-size="14.00">samples = 38173</text>
<text text-anchor="middle" x="737" y="-487.95" font-family="Helvetica,sans-Serif" font-size="14.00">value = [30301, 30044]</text>
<text text-anchor="middle" x="737" y="-470.7" font-family="Helvetica,sans-Serif" font-size="14.00">class = Animal</text>
</g>
<!-- 1 -->
<g id="node2" class="node">
<title>1</title>
<path fill="#dceefa" stroke="black" d="M642,-426.75C642,-426.75 482,-426.75 482,-426.75 476,-426.75 470,-420.75 470,-414.75 470,-414.75 470,-344.5 470,-344.5 470,-338.5 476,-332.5 482,-332.5 482,-332.5 642,-332.5 642,-332.5 648,-332.5 654,-338.5 654,-344.5 654,-344.5 654,-414.75 654,-414.75 654,-420.75 648,-426.75 642,-426.75"/>
<text text-anchor="middle" x="562" y="-409.45" font-family="Helvetica,sans-Serif" font-size="14.00">22_G &lt;= 0.5</text>
<text text-anchor="middle" x="562" y="-392.2" font-family="Helvetica,sans-Serif" font-size="14.00">entropy = 0.993</text>
<text text-anchor="middle" x="562" y="-374.95" font-family="Helvetica,sans-Serif" font-size="14.00">samples = 33047</text>
<text text-anchor="middle" x="562" y="-357.7" font-family="Helvetica,sans-Serif" font-size="14.00">value = [23613, 28620]</text>
<text text-anchor="middle" x="562" y="-340.45" font-family="Helvetica,sans-Serif" font-size="14.00">class = Plant</text>
</g>
<!-- 0&#45;&gt;1 -->
<g id="edge1" class="edge">
<title>0&#45;&gt;1</title>
<path fill="none" stroke="black" d="M673.82,-462.57C661.01,-453.19 647.45,-443.25 634.36,-433.65"/>
<polygon fill="black" stroke="black" points="636.74,-431.06 626.6,-427.97 632.6,-436.7 636.74,-431.06"/>
<text text-anchor="middle" x="629.19" y="-447.11" font-family="Helvetica,sans-Serif" font-size="14.00">True</text>
</g>
<!-- 14770 -->
<g id="node17" class="node">
<title>14770</title>
<path fill="#eb9c63" stroke="black" d="M986,-426.75C986,-426.75 844,-426.75 844,-426.75 838,-426.75 832,-420.75 832,-414.75 832,-414.75 832,-344.5 832,-344.5 832,-338.5 838,-332.5 844,-332.5 844,-332.5 986,-332.5 986,-332.5 992,-332.5 998,-338.5 998,-344.5 998,-344.5 998,-414.75 998,-414.75 998,-420.75 992,-426.75 986,-426.75"/>
<text text-anchor="middle" x="915" y="-409.45" font-family="Helvetica,sans-Serif" font-size="14.00">9_G &lt;= 0.5</text>
<text text-anchor="middle" x="915" y="-392.2" font-family="Helvetica,sans-Serif" font-size="14.00">entropy = 0.67</text>
<text text-anchor="middle" x="915" y="-374.95" font-family="Helvetica,sans-Serif" font-size="14.00">samples = 5126</text>
<text text-anchor="middle" x="915" y="-357.7" font-family="Helvetica,sans-Serif" font-size="14.00">value = [6688, 1424]</text>
<text text-anchor="middle" x="915" y="-340.45" font-family="Helvetica,sans-Serif" font-size="14.00">class = Animal</text>
</g>
<!-- 0&#45;&gt;14770 -->
<g id="edge16" class="edge">
<title>0&#45;&gt;14770</title>
<path fill="none" stroke="black" d="M801.51,-462.39C814.45,-453.07 828.13,-443.22 841.35,-433.69"/>
<polygon fill="black" stroke="black" points="843.11,-436.73 849.18,-428.05 839.02,-431.06 843.11,-436.73"/>
<text text-anchor="middle" x="846.4" y="-447.17" font-family="Helvetica,sans-Serif" font-size="14.00">False</text>
</g>
<!-- 2 -->
<g id="node3" class="node">
<title>2</title>
<path fill="#b9dcf6" stroke="black" d="M370,-296.5C370,-296.5 210,-296.5 210,-296.5 204,-296.5 198,-290.5 198,-284.5 198,-284.5 198,-214.25 198,-214.25 198,-208.25 204,-202.25 210,-202.25 210,-202.25 370,-202.25 370,-202.25 376,-202.25 382,-208.25 382,-214.25 382,-214.25 382,-284.5 382,-284.5 382,-290.5 376,-296.5 370,-296.5"/>
<text text-anchor="middle" x="290" y="-279.2" font-family="Helvetica,sans-Serif" font-size="14.00">1_U &lt;= 0.5</text>
<text text-anchor="middle" x="290" y="-261.95" font-family="Helvetica,sans-Serif" font-size="14.00">entropy = 0.967</text>
<text text-anchor="middle" x="290" y="-244.7" font-family="Helvetica,sans-Serif" font-size="14.00">samples = 28086</text>
<text text-anchor="middle" x="290" y="-227.45" font-family="Helvetica,sans-Serif" font-size="14.00">value = [17393, 26875]</text>
<text text-anchor="middle" x="290" y="-210.2" font-family="Helvetica,sans-Serif" font-size="14.00">class = Plant</text>
</g>
<!-- 1&#45;&gt;2 -->
<g id="edge2" class="edge">
<title>1&#45;&gt;2</title>
<path fill="none" stroke="black" d="M469.53,-335.03C444.76,-323.35 417.84,-310.65 392.56,-298.73"/>
<polygon fill="black" stroke="black" points="394.12,-295.6 383.58,-294.5 391.13,-301.93 394.12,-295.6"/>
</g>
<!-- 12801 -->
<g id="node10" class="node">
<title>12801</title>
<path fill="#eca471" stroke="black" d="M633,-296.5C633,-296.5 491,-296.5 491,-296.5 485,-296.5 479,-290.5 479,-284.5 479,-284.5 479,-214.25 479,-214.25 479,-208.25 485,-202.25 491,-202.25 491,-202.25 633,-202.25 633,-202.25 639,-202.25 645,-208.25 645,-214.25 645,-214.25 645,-284.5 645,-284.5 645,-290.5 639,-296.5 633,-296.5"/>
<text text-anchor="middle" x="562" y="-279.2" font-family="Helvetica,sans-Serif" font-size="14.00">13_A &lt;= 0.5</text>
<text text-anchor="middle" x="562" y="-261.95" font-family="Helvetica,sans-Serif" font-size="14.00">entropy = 0.758</text>
<text text-anchor="middle" x="562" y="-244.7" font-family="Helvetica,sans-Serif" font-size="14.00">samples = 4961</text>
<text text-anchor="middle" x="562" y="-227.45" font-family="Helvetica,sans-Serif" font-size="14.00">value = [6220, 1745]</text>
<text text-anchor="middle" x="562" y="-210.2" font-family="Helvetica,sans-Serif" font-size="14.00">class = Animal</text>
</g>
<!-- 1&#45;&gt;12801 -->
<g id="edge9" class="edge">
<title>1&#45;&gt;12801</title>
<path fill="none" stroke="black" d="M562,-332.32C562,-324.42 562,-316.13 562,-307.98"/>
<polygon fill="black" stroke="black" points="565.5,-308.12 562,-298.12 558.5,-308.12 565.5,-308.12"/>
</g>
<!-- 3 -->
<g id="node4" class="node">
<title>3</title>
<path fill="#ffffff" stroke="black" d="M172,-166.25C172,-166.25 12,-166.25 12,-166.25 6,-166.25 0,-160.25 0,-154.25 0,-154.25 0,-84 0,-84 0,-78 6,-72 12,-72 12,-72 172,-72 172,-72 178,-72 184,-78 184,-84 184,-84 184,-154.25 184,-154.25 184,-160.25 178,-166.25 172,-166.25"/>
<text text-anchor="middle" x="92" y="-148.95" font-family="Helvetica,sans-Serif" font-size="14.00">4_U &lt;= 0.5</text>
<text text-anchor="middle" x="92" y="-131.7" font-family="Helvetica,sans-Serif" font-size="14.00">entropy = 1.0</text>
<text text-anchor="middle" x="92" y="-114.45" font-family="Helvetica,sans-Serif" font-size="14.00">samples = 12765</text>
<text text-anchor="middle" x="92" y="-97.2" font-family="Helvetica,sans-Serif" font-size="14.00">value = [10070, 10054]</text>
<text text-anchor="middle" x="92" y="-79.95" font-family="Helvetica,sans-Serif" font-size="14.00">class = Animal</text>
</g>
<!-- 2&#45;&gt;3 -->
<g id="edge3" class="edge">
<title>2&#45;&gt;3</title>
<path fill="none" stroke="black" d="M218.24,-201.89C203.71,-192.48 188.34,-182.53 173.5,-172.92"/>
<polygon fill="black" stroke="black" points="175.42,-169.99 165.12,-167.49 171.61,-175.86 175.42,-169.99"/>
</g>
<!-- 7158 -->
<g id="node7" class="node">
<title>7158</title>
<path fill="#8fc8f0" stroke="black" d="M365.5,-166.25C365.5,-166.25 214.5,-166.25 214.5,-166.25 208.5,-166.25 202.5,-160.25 202.5,-154.25 202.5,-154.25 202.5,-84 202.5,-84 202.5,-78 208.5,-72 214.5,-72 214.5,-72 365.5,-72 365.5,-72 371.5,-72 377.5,-78 377.5,-84 377.5,-84 377.5,-154.25 377.5,-154.25 377.5,-160.25 371.5,-166.25 365.5,-166.25"/>
<text text-anchor="middle" x="290" y="-148.95" font-family="Helvetica,sans-Serif" font-size="14.00">20_C &lt;= 0.5</text>
<text text-anchor="middle" x="290" y="-131.7" font-family="Helvetica,sans-Serif" font-size="14.00">entropy = 0.885</text>
<text text-anchor="middle" x="290" y="-114.45" font-family="Helvetica,sans-Serif" font-size="14.00">samples = 15321</text>
<text text-anchor="middle" x="290" y="-97.2" font-family="Helvetica,sans-Serif" font-size="14.00">value = [7323, 16821]</text>
<text text-anchor="middle" x="290" y="-79.95" font-family="Helvetica,sans-Serif" font-size="14.00">class = Plant</text>
</g>
<!-- 2&#45;&gt;7158 -->
<g id="edge6" class="edge">
<title>2&#45;&gt;7158</title>
<path fill="none" stroke="black" d="M290,-202.07C290,-194.17 290,-185.88 290,-177.73"/>
<polygon fill="black" stroke="black" points="293.5,-177.87 290,-167.87 286.5,-177.87 293.5,-177.87"/>
</g>
<!-- 4 -->
<g id="node5" class="node">
<title>4</title>
<path fill="#c0c0c0" stroke="black" d="M71,-36C71,-36 41,-36 41,-36 35,-36 29,-30 29,-24 29,-24 29,-12 29,-12 29,-6 35,0 41,0 41,0 71,0 71,0 77,0 83,-6 83,-12 83,-12 83,-24 83,-24 83,-30 77,-36 71,-36"/>
<text text-anchor="middle" x="56" y="-13.32" font-family="Helvetica,sans-Serif" font-size="14.00">(...)</text>
</g>
<!-- 3&#45;&gt;4 -->
<g id="edge4" class="edge">
<title>3&#45;&gt;4</title>
<path fill="none" stroke="black" d="M75.16,-71.75C72.06,-63.22 68.92,-54.57 66.1,-46.8"/>
<polygon fill="black" stroke="black" points="69.46,-45.8 62.75,-37.6 62.88,-48.19 69.46,-45.8"/>
</g>
<!-- 5405 -->
<g id="node6" class="node">
<title>5405</title>
<path fill="#c0c0c0" stroke="black" d="M143,-36C143,-36 113,-36 113,-36 107,-36 101,-30 101,-24 101,-24 101,-12 101,-12 101,-6 107,0 113,0 113,0 143,0 143,0 149,0 155,-6 155,-12 155,-12 155,-24 155,-24 155,-30 149,-36 143,-36"/>
<text text-anchor="middle" x="128" y="-13.32" font-family="Helvetica,sans-Serif" font-size="14.00">(...)</text>
</g>
<!-- 3&#45;&gt;5405 -->
<g id="edge5" class="edge">
<title>3&#45;&gt;5405</title>
<path fill="none" stroke="black" d="M108.84,-71.75C111.94,-63.22 115.08,-54.57 117.9,-46.8"/>
<polygon fill="black" stroke="black" points="121.12,-48.19 121.25,-37.6 114.54,-45.8 121.12,-48.19"/>
</g>
<!-- 7159 -->
<g id="node8" class="node">
<title>7159</title>
<path fill="#c0c0c0" stroke="black" d="M274,-36C274,-36 244,-36 244,-36 238,-36 232,-30 232,-24 232,-24 232,-12 232,-12 232,-6 238,0 244,0 244,0 274,0 274,0 280,0 286,-6 286,-12 286,-12 286,-24 286,-24 286,-30 280,-36 274,-36"/>
<text text-anchor="middle" x="259" y="-13.32" font-family="Helvetica,sans-Serif" font-size="14.00">(...)</text>
</g>
<!-- 7158&#45;&gt;7159 -->
<g id="edge7" class="edge">
<title>7158&#45;&gt;7159</title>
<path fill="none" stroke="black" d="M275.5,-71.75C272.86,-63.32 270.19,-54.77 267.78,-47.07"/>
<polygon fill="black" stroke="black" points="271.15,-46.12 264.82,-37.62 264.47,-48.21 271.15,-46.12"/>
</g>
<!-- 11498 -->
<g id="node9" class="node">
<title>11498</title>
<path fill="#c0c0c0" stroke="black" d="M346,-36C346,-36 316,-36 316,-36 310,-36 304,-30 304,-24 304,-24 304,-12 304,-12 304,-6 310,0 316,0 316,0 346,0 346,0 352,0 358,-6 358,-12 358,-12 358,-24 358,-24 358,-30 352,-36 346,-36"/>
<text text-anchor="middle" x="331" y="-13.32" font-family="Helvetica,sans-Serif" font-size="14.00">(...)</text>
</g>
<!-- 7158&#45;&gt;11498 -->
<g id="edge8" class="edge">
<title>7158&#45;&gt;11498</title>
<path fill="none" stroke="black" d="M309.18,-71.75C312.71,-63.22 316.29,-54.57 319.5,-46.8"/>
<polygon fill="black" stroke="black" points="322.73,-48.15 323.32,-37.57 316.26,-45.47 322.73,-48.15"/>
</g>
<!-- 12802 -->
<g id="node11" class="node">
<title>12802</title>
<path fill="#eb9f69" stroke="black" d="M550,-166.25C550,-166.25 408,-166.25 408,-166.25 402,-166.25 396,-160.25 396,-154.25 396,-154.25 396,-84 396,-84 396,-78 402,-72 408,-72 408,-72 550,-72 550,-72 556,-72 562,-78 562,-84 562,-84 562,-154.25 562,-154.25 562,-160.25 556,-166.25 550,-166.25"/>
<text text-anchor="middle" x="479" y="-148.95" font-family="Helvetica,sans-Serif" font-size="14.00">21_U &lt;= 0.5</text>
<text text-anchor="middle" x="479" y="-131.7" font-family="Helvetica,sans-Serif" font-size="14.00">entropy = 0.712</text>
<text text-anchor="middle" x="479" y="-114.45" font-family="Helvetica,sans-Serif" font-size="14.00">samples = 3771</text>
<text text-anchor="middle" x="479" y="-97.2" font-family="Helvetica,sans-Serif" font-size="14.00">value = [4851, 1174]</text>
<text text-anchor="middle" x="479" y="-79.95" font-family="Helvetica,sans-Serif" font-size="14.00">class = Animal</text>
</g>
<!-- 12801&#45;&gt;12802 -->
<g id="edge10" class="edge">
<title>12801&#45;&gt;12802</title>
<path fill="none" stroke="black" d="M532.04,-202.07C526.51,-193.54 520.69,-184.54 515.01,-175.77"/>
<polygon fill="black" stroke="black" points="518.11,-174.12 509.74,-167.63 512.24,-177.93 518.11,-174.12"/>
</g>
<!-- 14265 -->
<g id="node14" class="node">
<title>14265</title>
<path fill="#f0b68c" stroke="black" d="M725.5,-166.25C725.5,-166.25 592.5,-166.25 592.5,-166.25 586.5,-166.25 580.5,-160.25 580.5,-154.25 580.5,-154.25 580.5,-84 580.5,-84 580.5,-78 586.5,-72 592.5,-72 592.5,-72 725.5,-72 725.5,-72 731.5,-72 737.5,-78 737.5,-84 737.5,-84 737.5,-154.25 737.5,-154.25 737.5,-160.25 731.5,-166.25 725.5,-166.25"/>
<text text-anchor="middle" x="659" y="-148.95" font-family="Helvetica,sans-Serif" font-size="14.00">24_G &lt;= 0.5</text>
<text text-anchor="middle" x="659" y="-131.7" font-family="Helvetica,sans-Serif" font-size="14.00">entropy = 0.874</text>
<text text-anchor="middle" x="659" y="-114.45" font-family="Helvetica,sans-Serif" font-size="14.00">samples = 1190</text>
<text text-anchor="middle" x="659" y="-97.2" font-family="Helvetica,sans-Serif" font-size="14.00">value = [1369, 571]</text>
<text text-anchor="middle" x="659" y="-79.95" font-family="Helvetica,sans-Serif" font-size="14.00">class = Animal</text>
</g>
<!-- 12801&#45;&gt;14265 -->
<g id="edge13" class="edge">
<title>12801&#45;&gt;14265</title>
<path fill="none" stroke="black" d="M597.02,-202.07C603.54,-193.45 610.42,-184.35 617.13,-175.49"/>
<polygon fill="black" stroke="black" points="619.88,-177.65 623.12,-167.57 614.3,-173.43 619.88,-177.65"/>
</g>
<!-- 12803 -->
<g id="node12" class="node">
<title>12803</title>
<path fill="#c0c0c0" stroke="black" d="M440,-36C440,-36 410,-36 410,-36 404,-36 398,-30 398,-24 398,-24 398,-12 398,-12 398,-6 404,0 410,0 410,0 440,0 440,0 446,0 452,-6 452,-12 452,-12 452,-24 452,-24 452,-30 446,-36 440,-36"/>
<text text-anchor="middle" x="425" y="-13.32" font-family="Helvetica,sans-Serif" font-size="14.00">(...)</text>
</g>
<!-- 12802&#45;&gt;12803 -->
<g id="edge11" class="edge">
<title>12802&#45;&gt;12803</title>
<path fill="none" stroke="black" d="M453.74,-71.75C448.98,-63.03 444.16,-54.16 439.85,-46.26"/>
<polygon fill="black" stroke="black" points="442.94,-44.61 435.08,-37.5 436.79,-47.96 442.94,-44.61"/>
</g>
<!-- 13854 -->
<g id="node13" class="node">
<title>13854</title>
<path fill="#c0c0c0" stroke="black" d="M512,-36C512,-36 482,-36 482,-36 476,-36 470,-30 470,-24 470,-24 470,-12 470,-12 470,-6 476,0 482,0 482,0 512,0 512,0 518,0 524,-6 524,-12 524,-12 524,-24 524,-24 524,-30 518,-36 512,-36"/>
<text text-anchor="middle" x="497" y="-13.32" font-family="Helvetica,sans-Serif" font-size="14.00">(...)</text>
</g>
<!-- 12802&#45;&gt;13854 -->
<g id="edge12" class="edge">
<title>12802&#45;&gt;13854</title>
<path fill="none" stroke="black" d="M487.42,-71.75C488.93,-63.42 490.47,-54.97 491.85,-47.34"/>
<polygon fill="black" stroke="black" points="495.27,-48.13 493.61,-37.66 488.38,-46.88 495.27,-48.13"/>
</g>
<!-- 14266 -->
<g id="node15" class="node">
<title>14266</title>
<path fill="#c0c0c0" stroke="black" d="M617,-36C617,-36 587,-36 587,-36 581,-36 575,-30 575,-24 575,-24 575,-12 575,-12 575,-6 581,0 587,0 587,0 617,0 617,0 623,0 629,-6 629,-12 629,-12 629,-24 629,-24 629,-30 623,-36 617,-36"/>
<text text-anchor="middle" x="602" y="-13.32" font-family="Helvetica,sans-Serif" font-size="14.00">(...)</text>
</g>
<!-- 14265&#45;&gt;14266 -->
<g id="edge14" class="edge">
<title>14265&#45;&gt;14266</title>
<path fill="none" stroke="black" d="M632.34,-71.75C627.26,-62.93 622.1,-53.96 617.52,-45.99"/>
<polygon fill="black" stroke="black" points="620.65,-44.41 612.63,-37.48 614.58,-47.9 620.65,-44.41"/>
</g>
<!-- 14735 -->
<g id="node16" class="node">
<title>14735</title>
<path fill="#c0c0c0" stroke="black" d="M689,-36C689,-36 659,-36 659,-36 653,-36 647,-30 647,-24 647,-24 647,-12 647,-12 647,-6 653,0 659,0 659,0 689,0 689,0 695,0 701,-6 701,-12 701,-12 701,-24 701,-24 701,-30 695,-36 689,-36"/>
<text text-anchor="middle" x="674" y="-13.32" font-family="Helvetica,sans-Serif" font-size="14.00">(...)</text>
</g>
<!-- 14265&#45;&gt;14735 -->
<g id="edge15" class="edge">
<title>14265&#45;&gt;14735</title>
<path fill="none" stroke="black" d="M666.02,-71.75C667.28,-63.42 668.56,-54.97 669.71,-47.34"/>
<polygon fill="black" stroke="black" points="673.14,-48.08 671.17,-37.67 666.22,-47.03 673.14,-48.08"/>
</g>
<!-- 14771 -->
<g id="node18" class="node">
<title>14771</title>
<path fill="#ea985d" stroke="black" d="M981.5,-296.5C981.5,-296.5 848.5,-296.5 848.5,-296.5 842.5,-296.5 836.5,-290.5 836.5,-284.5 836.5,-284.5 836.5,-214.25 836.5,-214.25 836.5,-208.25 842.5,-202.25 848.5,-202.25 848.5,-202.25 981.5,-202.25 981.5,-202.25 987.5,-202.25 993.5,-208.25 993.5,-214.25 993.5,-214.25 993.5,-284.5 993.5,-284.5 993.5,-290.5 987.5,-296.5 981.5,-296.5"/>
<text text-anchor="middle" x="915" y="-279.2" font-family="Helvetica,sans-Serif" font-size="14.00">1_C &lt;= 0.5</text>
<text text-anchor="middle" x="915" y="-261.95" font-family="Helvetica,sans-Serif" font-size="14.00">entropy = 0.616</text>
<text text-anchor="middle" x="915" y="-244.7" font-family="Helvetica,sans-Serif" font-size="14.00">samples = 4027</text>
<text text-anchor="middle" x="915" y="-227.45" font-family="Helvetica,sans-Serif" font-size="14.00">value = [5409, 973]</text>
<text text-anchor="middle" x="915" y="-210.2" font-family="Helvetica,sans-Serif" font-size="14.00">class = Animal</text>
</g>
<!-- 14770&#45;&gt;14771 -->
<g id="edge17" class="edge">
<title>14770&#45;&gt;14771</title>
<path fill="none" stroke="black" d="M915,-332.32C915,-324.42 915,-316.13 915,-307.98"/>
<polygon fill="black" stroke="black" points="918.5,-308.12 915,-298.12 911.5,-308.12 918.5,-308.12"/>
</g>
<!-- 16240 -->
<g id="node25" class="node">
<title>16240</title>
<path fill="#eead7f" stroke="black" d="M1237.5,-296.5C1237.5,-296.5 1104.5,-296.5 1104.5,-296.5 1098.5,-296.5 1092.5,-290.5 1092.5,-284.5 1092.5,-284.5 1092.5,-214.25 1092.5,-214.25 1092.5,-208.25 1098.5,-202.25 1104.5,-202.25 1104.5,-202.25 1237.5,-202.25 1237.5,-202.25 1243.5,-202.25 1249.5,-208.25 1249.5,-214.25 1249.5,-214.25 1249.5,-284.5 1249.5,-284.5 1249.5,-290.5 1243.5,-296.5 1237.5,-296.5"/>
<text text-anchor="middle" x="1171" y="-279.2" font-family="Helvetica,sans-Serif" font-size="14.00">8_U &lt;= 0.5</text>
<text text-anchor="middle" x="1171" y="-261.95" font-family="Helvetica,sans-Serif" font-size="14.00">entropy = 0.828</text>
<text text-anchor="middle" x="1171" y="-244.7" font-family="Helvetica,sans-Serif" font-size="14.00">samples = 1099</text>
<text text-anchor="middle" x="1171" y="-227.45" font-family="Helvetica,sans-Serif" font-size="14.00">value = [1279, 451]</text>
<text text-anchor="middle" x="1171" y="-210.2" font-family="Helvetica,sans-Serif" font-size="14.00">class = Animal</text>
</g>
<!-- 14770&#45;&gt;16240 -->
<g id="edge24" class="edge">
<title>14770&#45;&gt;16240</title>
<path fill="none" stroke="black" d="M998.47,-336.81C1025.25,-323.39 1055,-308.49 1082.16,-294.88"/>
<polygon fill="black" stroke="black" points="1083.7,-298.03 1091.07,-290.42 1080.56,-291.77 1083.7,-298.03"/>
</g>
<!-- 14772 -->
<g id="node19" class="node">
<title>14772</title>
<path fill="#e99559" stroke="black" d="M900.5,-166.25C900.5,-166.25 767.5,-166.25 767.5,-166.25 761.5,-166.25 755.5,-160.25 755.5,-154.25 755.5,-154.25 755.5,-84 755.5,-84 755.5,-78 761.5,-72 767.5,-72 767.5,-72 900.5,-72 900.5,-72 906.5,-72 912.5,-78 912.5,-84 912.5,-84 912.5,-154.25 912.5,-154.25 912.5,-160.25 906.5,-166.25 900.5,-166.25"/>
<text text-anchor="middle" x="834" y="-148.95" font-family="Helvetica,sans-Serif" font-size="14.00">2_U &lt;= 0.5</text>
<text text-anchor="middle" x="834" y="-131.7" font-family="Helvetica,sans-Serif" font-size="14.00">entropy = 0.583</text>
<text text-anchor="middle" x="834" y="-114.45" font-family="Helvetica,sans-Serif" font-size="14.00">samples = 3372</text>
<text text-anchor="middle" x="834" y="-97.2" font-family="Helvetica,sans-Serif" font-size="14.00">value = [4628, 751]</text>
<text text-anchor="middle" x="834" y="-79.95" font-family="Helvetica,sans-Serif" font-size="14.00">class = Animal</text>
</g>
<!-- 14771&#45;&gt;14772 -->
<g id="edge18" class="edge">
<title>14771&#45;&gt;14772</title>
<path fill="none" stroke="black" d="M885.76,-202.07C880.42,-193.63 874.81,-184.74 869.32,-176.05"/>
<polygon fill="black" stroke="black" points="872.31,-174.22 864.01,-167.64 866.39,-177.96 872.31,-174.22"/>
</g>
<!-- 15967 -->
<g id="node22" class="node">
<title>15967</title>
<path fill="#eca571" stroke="black" d="M1067,-166.25C1067,-166.25 943,-166.25 943,-166.25 937,-166.25 931,-160.25 931,-154.25 931,-154.25 931,-84 931,-84 931,-78 937,-72 943,-72 943,-72 1067,-72 1067,-72 1073,-72 1079,-78 1079,-84 1079,-84 1079,-154.25 1079,-154.25 1079,-160.25 1073,-166.25 1067,-166.25"/>
<text text-anchor="middle" x="1005" y="-148.95" font-family="Helvetica,sans-Serif" font-size="14.00">25_U &lt;= 0.5</text>
<text text-anchor="middle" x="1005" y="-131.7" font-family="Helvetica,sans-Serif" font-size="14.00">entropy = 0.763</text>
<text text-anchor="middle" x="1005" y="-114.45" font-family="Helvetica,sans-Serif" font-size="14.00">samples = 655</text>
<text text-anchor="middle" x="1005" y="-97.2" font-family="Helvetica,sans-Serif" font-size="14.00">value = [781, 222]</text>
<text text-anchor="middle" x="1005" y="-79.95" font-family="Helvetica,sans-Serif" font-size="14.00">class = Animal</text>
</g>
<!-- 14771&#45;&gt;15967 -->
<g id="edge21" class="edge">
<title>14771&#45;&gt;15967</title>
<path fill="none" stroke="black" d="M947.49,-202.07C953.48,-193.54 959.79,-184.54 965.95,-175.77"/>
<polygon fill="black" stroke="black" points="968.81,-177.79 971.69,-167.6 963.08,-173.77 968.81,-177.79"/>
</g>
<!-- 14773 -->
<g id="node20" class="node">
<title>14773</title>
<path fill="#c0c0c0" stroke="black" d="M790,-36C790,-36 760,-36 760,-36 754,-36 748,-30 748,-24 748,-24 748,-12 748,-12 748,-6 754,0 760,0 760,0 790,0 790,0 796,0 802,-6 802,-12 802,-12 802,-24 802,-24 802,-30 796,-36 790,-36"/>
<text text-anchor="middle" x="775" y="-13.32" font-family="Helvetica,sans-Serif" font-size="14.00">(...)</text>
</g>
<!-- 14772&#45;&gt;14773 -->
<g id="edge19" class="edge">
<title>14772&#45;&gt;14773</title>
<path fill="none" stroke="black" d="M806.4,-71.75C801.15,-62.93 795.81,-53.96 791.06,-45.99"/>
<polygon fill="black" stroke="black" points="794.12,-44.28 786,-37.47 788.1,-47.86 794.12,-44.28"/>
</g>
<!-- 15622 -->
<g id="node21" class="node">
<title>15622</title>
<path fill="#c0c0c0" stroke="black" d="M862,-36C862,-36 832,-36 832,-36 826,-36 820,-30 820,-24 820,-24 820,-12 820,-12 820,-6 826,0 832,0 832,0 862,0 862,0 868,0 874,-6 874,-12 874,-12 874,-24 874,-24 874,-30 868,-36 862,-36"/>
<text text-anchor="middle" x="847" y="-13.32" font-family="Helvetica,sans-Serif" font-size="14.00">(...)</text>
</g>
<!-- 14772&#45;&gt;15622 -->
<g id="edge20" class="edge">
<title>14772&#45;&gt;15622</title>
<path fill="none" stroke="black" d="M840.08,-71.75C841.17,-63.42 842.28,-54.97 843.28,-47.34"/>
<polygon fill="black" stroke="black" points="846.72,-48.04 844.55,-37.67 839.78,-47.13 846.72,-48.04"/>
</g>
<!-- 15968 -->
<g id="node23" class="node">
<title>15968</title>
<path fill="#c0c0c0" stroke="black" d="M959,-36C959,-36 929,-36 929,-36 923,-36 917,-30 917,-24 917,-24 917,-12 917,-12 917,-6 923,0 929,0 929,0 959,0 959,0 965,0 971,-6 971,-12 971,-12 971,-24 971,-24 971,-30 965,-36 959,-36"/>
<text text-anchor="middle" x="944" y="-13.32" font-family="Helvetica,sans-Serif" font-size="14.00">(...)</text>
</g>
<!-- 15967&#45;&gt;15968 -->
<g id="edge22" class="edge">
<title>15967&#45;&gt;15968</title>
<path fill="none" stroke="black" d="M976.46,-71.75C970.97,-62.83 965.39,-53.76 960.44,-45.72"/>
<polygon fill="black" stroke="black" points="963.58,-44.14 955.36,-37.46 957.62,-47.81 963.58,-44.14"/>
</g>
<!-- 16233 -->
<g id="node24" class="node">
<title>16233</title>
<path fill="#c0c0c0" stroke="black" d="M1031,-36C1031,-36 1001,-36 1001,-36 995,-36 989,-30 989,-24 989,-24 989,-12 989,-12 989,-6 995,0 1001,0 1001,0 1031,0 1031,0 1037,0 1043,-6 1043,-12 1043,-12 1043,-24 1043,-24 1043,-30 1037,-36 1031,-36"/>
<text text-anchor="middle" x="1016" y="-13.32" font-family="Helvetica,sans-Serif" font-size="14.00">(...)</text>
</g>
<!-- 15967&#45;&gt;16233 -->
<g id="edge23" class="edge">
<title>15967&#45;&gt;16233</title>
<path fill="none" stroke="black" d="M1010.15,-71.75C1011.06,-63.52 1011.99,-55.17 1012.82,-47.61"/>
<polygon fill="black" stroke="black" points="1016.3,-48 1013.93,-37.68 1009.35,-47.23 1016.3,-48"/>
</g>
<!-- 16241 -->
<g id="node26" class="node">
<title>16241</title>
<path fill="#f1b992" stroke="black" d="M1233,-166.25C1233,-166.25 1109,-166.25 1109,-166.25 1103,-166.25 1097,-160.25 1097,-154.25 1097,-154.25 1097,-84 1097,-84 1097,-78 1103,-72 1109,-72 1109,-72 1233,-72 1233,-72 1239,-72 1245,-78 1245,-84 1245,-84 1245,-154.25 1245,-154.25 1245,-160.25 1239,-166.25 1233,-166.25"/>
<text text-anchor="middle" x="1171" y="-148.95" font-family="Helvetica,sans-Serif" font-size="14.00">23_G &lt;= 0.5</text>
<text text-anchor="middle" x="1171" y="-131.7" font-family="Helvetica,sans-Serif" font-size="14.00">entropy = 0.892</text>
<text text-anchor="middle" x="1171" y="-114.45" font-family="Helvetica,sans-Serif" font-size="14.00">samples = 698</text>
<text text-anchor="middle" x="1171" y="-97.2" font-family="Helvetica,sans-Serif" font-size="14.00">value = [767, 343]</text>
<text text-anchor="middle" x="1171" y="-79.95" font-family="Helvetica,sans-Serif" font-size="14.00">class = Animal</text>
</g>
<!-- 16240&#45;&gt;16241 -->
<g id="edge25" class="edge">
<title>16240&#45;&gt;16241</title>
<path fill="none" stroke="black" d="M1171,-202.07C1171,-194.17 1171,-185.88 1171,-177.73"/>
<polygon fill="black" stroke="black" points="1174.5,-177.87 1171,-167.87 1167.5,-177.87 1174.5,-177.87"/>
</g>
<!-- 16596 -->
<g id="node29" class="node">
<title>16596</title>
<path fill="#ea9c63" stroke="black" d="M1399,-166.25C1399,-166.25 1275,-166.25 1275,-166.25 1269,-166.25 1263,-160.25 1263,-154.25 1263,-154.25 1263,-84 1263,-84 1263,-78 1269,-72 1275,-72 1275,-72 1399,-72 1399,-72 1405,-72 1411,-78 1411,-84 1411,-84 1411,-154.25 1411,-154.25 1411,-160.25 1405,-166.25 1399,-166.25"/>
<text text-anchor="middle" x="1337" y="-148.95" font-family="Helvetica,sans-Serif" font-size="14.00">2_A &lt;= 0.5</text>
<text text-anchor="middle" x="1337" y="-131.7" font-family="Helvetica,sans-Serif" font-size="14.00">entropy = 0.667</text>
<text text-anchor="middle" x="1337" y="-114.45" font-family="Helvetica,sans-Serif" font-size="14.00">samples = 401</text>
<text text-anchor="middle" x="1337" y="-97.2" font-family="Helvetica,sans-Serif" font-size="14.00">value = [512, 108]</text>
<text text-anchor="middle" x="1337" y="-79.95" font-family="Helvetica,sans-Serif" font-size="14.00">class = Animal</text>
</g>
<!-- 16240&#45;&gt;16596 -->
<g id="edge28" class="edge">
<title>16240&#45;&gt;16596</title>
<path fill="none" stroke="black" d="M1230.93,-202.07C1242.96,-192.78 1255.7,-182.94 1268.01,-173.43"/>
<polygon fill="black" stroke="black" points="1269.91,-176.38 1275.68,-167.5 1265.63,-170.84 1269.91,-176.38"/>
</g>
<!-- 16242 -->
<g id="node27" class="node">
<title>16242</title>
<path fill="#c0c0c0" stroke="black" d="M1143,-36C1143,-36 1113,-36 1113,-36 1107,-36 1101,-30 1101,-24 1101,-24 1101,-12 1101,-12 1101,-6 1107,0 1113,0 1113,0 1143,0 1143,0 1149,0 1155,-6 1155,-12 1155,-12 1155,-24 1155,-24 1155,-30 1149,-36 1143,-36"/>
<text text-anchor="middle" x="1128" y="-13.32" font-family="Helvetica,sans-Serif" font-size="14.00">(...)</text>
</g>
<!-- 16241&#45;&gt;16242 -->
<g id="edge26" class="edge">
<title>16241&#45;&gt;16242</title>
<path fill="none" stroke="black" d="M1150.88,-71.75C1147.14,-63.12 1143.34,-54.36 1139.94,-46.53"/>
<polygon fill="black" stroke="black" points="1143.24,-45.34 1136.05,-37.56 1136.82,-48.13 1143.24,-45.34"/>
</g>
<!-- 16559 -->
<g id="node28" class="node">
<title>16559</title>
<path fill="#c0c0c0" stroke="black" d="M1215,-36C1215,-36 1185,-36 1185,-36 1179,-36 1173,-30 1173,-24 1173,-24 1173,-12 1173,-12 1173,-6 1179,0 1185,0 1185,0 1215,0 1215,0 1221,0 1227,-6 1227,-12 1227,-12 1227,-24 1227,-24 1227,-30 1221,-36 1215,-36"/>
<text text-anchor="middle" x="1200" y="-13.32" font-family="Helvetica,sans-Serif" font-size="14.00">(...)</text>
</g>
<!-- 16241&#45;&gt;16559 -->
<g id="edge27" class="edge">
<title>16241&#45;&gt;16559</title>
<path fill="none" stroke="black" d="M1184.57,-71.75C1187.03,-63.32 1189.54,-54.77 1191.79,-47.07"/>
<polygon fill="black" stroke="black" points="1195.1,-48.21 1194.55,-37.63 1188.38,-46.24 1195.1,-48.21"/>
</g>
<!-- 16597 -->
<g id="node30" class="node">
<title>16597</title>
<path fill="#c0c0c0" stroke="black" d="M1316,-36C1316,-36 1286,-36 1286,-36 1280,-36 1274,-30 1274,-24 1274,-24 1274,-12 1274,-12 1274,-6 1280,0 1286,0 1286,0 1316,0 1316,0 1322,0 1328,-6 1328,-12 1328,-12 1328,-24 1328,-24 1328,-30 1322,-36 1316,-36"/>
<text text-anchor="middle" x="1301" y="-13.32" font-family="Helvetica,sans-Serif" font-size="14.00">(...)</text>
</g>
<!-- 16596&#45;&gt;16597 -->
<g id="edge29" class="edge">
<title>16596&#45;&gt;16597</title>
<path fill="none" stroke="black" d="M1320.16,-71.75C1317.06,-63.22 1313.92,-54.57 1311.1,-46.8"/>
<polygon fill="black" stroke="black" points="1314.46,-45.8 1307.75,-37.6 1307.88,-48.19 1314.46,-45.8"/>
</g>
<!-- 16726 -->
<g id="node31" class="node">
<title>16726</title>
<path fill="#c0c0c0" stroke="black" d="M1388,-36C1388,-36 1358,-36 1358,-36 1352,-36 1346,-30 1346,-24 1346,-24 1346,-12 1346,-12 1346,-6 1352,0 1358,0 1358,0 1388,0 1388,0 1394,0 1400,-6 1400,-12 1400,-12 1400,-24 1400,-24 1400,-30 1394,-36 1388,-36"/>
<text text-anchor="middle" x="1373" y="-13.32" font-family="Helvetica,sans-Serif" font-size="14.00">(...)</text>
</g>
<!-- 16596&#45;&gt;16726 -->
<g id="edge30" class="edge">
<title>16596&#45;&gt;16726</title>
<path fill="none" stroke="black" d="M1353.84,-71.75C1356.94,-63.22 1360.08,-54.57 1362.9,-46.8"/>
<polygon fill="black" stroke="black" points="1366.12,-48.19 1366.25,-37.6 1359.54,-45.8 1366.12,-48.19"/>
</g>
</g>
</svg>
