<?xml version="1.0" encoding="UTF-8" standalone="no"?>
<!DOCTYPE svg PUBLIC "-//W3C//DTD SVG 1.1//EN"
 "http://www.w3.org/Graphics/SVG/1.1/DTD/svg11.dtd">
<!-- Generated by graphviz version 12.0.0 (20240803.0821)
 -->
<!-- Title: Tree Pages: 1 -->
<svg width="1400pt" height="565pt"
 viewBox="0.00 0.00 1400.00 565.00" xmlns="http://www.w3.org/2000/svg" xmlns:xlink="http://www.w3.org/1999/xlink">
<g id="graph0" class="graph" transform="scale(1 1) rotate(0) translate(4 561)">
<title>Tree</title>
<polygon fill="white" stroke="none" points="-4,4 -4,-561 1396,-561 1396,4 -4,4"/>
<!-- 0 -->
<g id="node1" class="node">
<title>0</title>
<path fill="#fffefe" stroke="black" d="M813,-557C813,-557 653,-557 653,-557 647,-557 641,-551 641,-545 641,-545 641,-474.75 641,-474.75 641,-468.75 647,-462.75 653,-462.75 653,-462.75 813,-462.75 813,-462.75 819,-462.75 825,-468.75 825,-474.75 825,-474.75 825,-545 825,-545 825,-551 819,-557 813,-557"/>
<text text-anchor="middle" x="733" y="-539.7" font-family="Helvetica,sans-Serif" font-size="14.00">23_U &lt;= 0.5</text>
<text text-anchor="middle" x="733" y="-522.45" font-family="Helvetica,sans-Serif" font-size="14.00">entropy = 1.0</text>
<text text-anchor="middle" x="733" y="-505.2" font-family="Helvetica,sans-Serif" font-size="14.00">samples = 38206</text>
<text text-anchor="middle" x="733" y="-487.95" font-family="Helvetica,sans-Serif" font-size="14.00">value = [30275, 30070]</text>
<text text-anchor="middle" x="733" y="-470.7" font-family="Helvetica,sans-Serif" font-size="14.00">class = Animal</text>
</g>
<!-- 1 -->
<g id="node2" class="node">
<title>1</title>
<path fill="#f3f9fd" stroke="black" d="M638,-426.75C638,-426.75 478,-426.75 478,-426.75 472,-426.75 466,-420.75 466,-414.75 466,-414.75 466,-344.5 466,-344.5 466,-338.5 472,-332.5 478,-332.5 478,-332.5 638,-332.5 638,-332.5 644,-332.5 650,-338.5 650,-344.5 650,-344.5 650,-414.75 650,-414.75 650,-420.75 644,-426.75 638,-426.75"/>
<text text-anchor="middle" x="558" y="-409.45" font-family="Helvetica,sans-Serif" font-size="14.00">12_G &lt;= 0.5</text>
<text text-anchor="middle" x="558" y="-392.2" font-family="Helvetica,sans-Serif" font-size="14.00">entropy = 0.999</text>
<text text-anchor="middle" x="558" y="-374.95" font-family="Helvetica,sans-Serif" font-size="14.00">samples = 36285</text>
<text text-anchor="middle" x="558" y="-357.7" font-family="Helvetica,sans-Serif" font-size="14.00">value = [27724, 29567]</text>
<text text-anchor="middle" x="558" y="-340.45" font-family="Helvetica,sans-Serif" font-size="14.00">class = Plant</text>
</g>
<!-- 0&#45;&gt;1 -->
<g id="edge1" class="edge">
<title>0&#45;&gt;1</title>
<path fill="none" stroke="black" d="M669.82,-462.57C657.01,-453.19 643.45,-443.25 630.36,-433.65"/>
<polygon fill="black" stroke="black" points="632.74,-431.06 622.6,-427.97 628.6,-436.7 632.74,-431.06"/>
<text text-anchor="middle" x="625.19" y="-447.11" font-family="Helvetica,sans-Serif" font-size="14.00">True</text>
</g>
<!-- 15922 -->
<g id="node17" class="node">
<title>15922</title>
<path fill="#ea9a60" stroke="black" d="M975.5,-426.75C975.5,-426.75 842.5,-426.75 842.5,-426.75 836.5,-426.75 830.5,-420.75 830.5,-414.75 830.5,-414.75 830.5,-344.5 830.5,-344.5 830.5,-338.5 836.5,-332.5 842.5,-332.5 842.5,-332.5 975.5,-332.5 975.5,-332.5 981.5,-332.5 987.5,-338.5 987.5,-344.5 987.5,-344.5 987.5,-414.75 987.5,-414.75 987.5,-420.75 981.5,-426.75 975.5,-426.75"/>
<text text-anchor="middle" x="909" y="-409.45" font-family="Helvetica,sans-Serif" font-size="14.00">1_U &lt;= 0.5</text>
<text text-anchor="middle" x="909" y="-392.2" font-family="Helvetica,sans-Serif" font-size="14.00">entropy = 0.645</text>
<text text-anchor="middle" x="909" y="-374.95" font-family="Helvetica,sans-Serif" font-size="14.00">samples = 1921</text>
<text text-anchor="middle" x="909" y="-357.7" font-family="Helvetica,sans-Serif" font-size="14.00">value = [2551, 503]</text>
<text text-anchor="middle" x="909" y="-340.45" font-family="Helvetica,sans-Serif" font-size="14.00">class = Animal</text>
</g>
<!-- 0&#45;&gt;15922 -->
<g id="edge16" class="edge">
<title>0&#45;&gt;15922</title>
<path fill="none" stroke="black" d="M796.54,-462.57C809.42,-453.19 823.06,-443.25 836.23,-433.65"/>
<polygon fill="black" stroke="black" points="838.01,-436.68 844.03,-427.96 833.89,-431.03 838.01,-436.68"/>
<text text-anchor="middle" x="841.38" y="-447.1" font-family="Helvetica,sans-Serif" font-size="14.00">False</text>
</g>
<!-- 2 -->
<g id="node3" class="node">
<title>2</title>
<path fill="#fefaf7" stroke="black" d="M365,-296.5C365,-296.5 205,-296.5 205,-296.5 199,-296.5 193,-290.5 193,-284.5 193,-284.5 193,-214.25 193,-214.25 193,-208.25 199,-202.25 205,-202.25 205,-202.25 365,-202.25 365,-202.25 371,-202.25 377,-208.25 377,-214.25 377,-214.25 377,-284.5 377,-284.5 377,-290.5 371,-296.5 365,-296.5"/>
<text text-anchor="middle" x="285" y="-279.2" font-family="Helvetica,sans-Serif" font-size="14.00">16_A &lt;= 0.5</text>
<text text-anchor="middle" x="285" y="-261.95" font-family="Helvetica,sans-Serif" font-size="14.00">entropy = 1.0</text>
<text text-anchor="middle" x="285" y="-244.7" font-family="Helvetica,sans-Serif" font-size="14.00">samples = 25812</text>
<text text-anchor="middle" x="285" y="-227.45" font-family="Helvetica,sans-Serif" font-size="14.00">value = [20840, 19967]</text>
<text text-anchor="middle" x="285" y="-210.2" font-family="Helvetica,sans-Serif" font-size="14.00">class = Animal</text>
</g>
<!-- 1&#45;&gt;2 -->
<g id="edge2" class="edge">
<title>1&#45;&gt;2</title>
<path fill="none" stroke="black" d="M465.57,-335.21C440.45,-323.4 413.09,-310.55 387.44,-298.5"/>
<polygon fill="black" stroke="black" points="389.24,-295.48 378.7,-294.39 386.26,-301.81 389.24,-295.48"/>
</g>
<!-- 11653 -->
<g id="node10" class="node">
<title>11653</title>
<path fill="#c7e3f8" stroke="black" d="M629,-296.5C629,-296.5 487,-296.5 487,-296.5 481,-296.5 475,-290.5 475,-284.5 475,-284.5 475,-214.25 475,-214.25 475,-208.25 481,-202.25 487,-202.25 487,-202.25 629,-202.25 629,-202.25 635,-202.25 641,-208.25 641,-214.25 641,-214.25 641,-284.5 641,-284.5 641,-290.5 635,-296.5 629,-296.5"/>
<text text-anchor="middle" x="558" y="-279.2" font-family="Helvetica,sans-Serif" font-size="14.00">6_U &lt;= 0.5</text>
<text text-anchor="middle" x="558" y="-261.95" font-family="Helvetica,sans-Serif" font-size="14.00">entropy = 0.98</text>
<text text-anchor="middle" x="558" y="-244.7" font-family="Helvetica,sans-Serif" font-size="14.00">samples = 10473</text>
<text text-anchor="middle" x="558" y="-227.45" font-family="Helvetica,sans-Serif" font-size="14.00">value = [6884, 9600]</text>
<text text-anchor="middle" x="558" y="-210.2" font-family="Helvetica,sans-Serif" font-size="14.00">class = Plant</text>
</g>
<!-- 1&#45;&gt;11653 -->
<g id="edge9" class="edge">
<title>1&#45;&gt;11653</title>
<path fill="none" stroke="black" d="M558,-332.32C558,-324.42 558,-316.13 558,-307.98"/>
<polygon fill="black" stroke="black" points="561.5,-308.12 558,-298.12 554.5,-308.12 561.5,-308.12"/>
</g>
<!-- 3 -->
<g id="node4" class="node">
<title>3</title>
<path fill="#fceee5" stroke="black" d="M172,-166.25C172,-166.25 12,-166.25 12,-166.25 6,-166.25 0,-160.25 0,-154.25 0,-154.25 0,-84 0,-84 0,-78 6,-72 12,-72 12,-72 172,-72 172,-72 178,-72 184,-78 184,-84 184,-84 184,-154.25 184,-154.25 184,-160.25 178,-166.25 172,-166.25"/>
<text text-anchor="middle" x="92" y="-148.95" font-family="Helvetica,sans-Serif" font-size="14.00">5_G &lt;= 0.5</text>
<text text-anchor="middle" x="92" y="-131.7" font-family="Helvetica,sans-Serif" font-size="14.00">entropy = 0.996</text>
<text text-anchor="middle" x="92" y="-114.45" font-family="Helvetica,sans-Serif" font-size="14.00">samples = 18767</text>
<text text-anchor="middle" x="92" y="-97.2" font-family="Helvetica,sans-Serif" font-size="14.00">value = [15916, 13797]</text>
<text text-anchor="middle" x="92" y="-79.95" font-family="Helvetica,sans-Serif" font-size="14.00">class = Animal</text>
</g>
<!-- 2&#45;&gt;3 -->
<g id="edge3" class="edge">
<title>2&#45;&gt;3</title>
<path fill="none" stroke="black" d="M215.05,-201.89C200.89,-192.48 185.9,-182.53 171.45,-172.92"/>
<polygon fill="black" stroke="black" points="173.56,-170.12 163.3,-167.5 169.69,-175.95 173.56,-170.12"/>
</g>
<!-- 8864 -->
<g id="node7" class="node">
<title>8864</title>
<path fill="#d7ebfa" stroke="black" d="M356,-166.25C356,-166.25 214,-166.25 214,-166.25 208,-166.25 202,-160.25 202,-154.25 202,-154.25 202,-84 202,-84 202,-78 208,-72 214,-72 214,-72 356,-72 356,-72 362,-72 368,-78 368,-84 368,-84 368,-154.25 368,-154.25 368,-160.25 362,-166.25 356,-166.25"/>
<text text-anchor="middle" x="285" y="-148.95" font-family="Helvetica,sans-Serif" font-size="14.00">2_A &lt;= 0.5</text>
<text text-anchor="middle" x="285" y="-131.7" font-family="Helvetica,sans-Serif" font-size="14.00">entropy = 0.991</text>
<text text-anchor="middle" x="285" y="-114.45" font-family="Helvetica,sans-Serif" font-size="14.00">samples = 7045</text>
<text text-anchor="middle" x="285" y="-97.2" font-family="Helvetica,sans-Serif" font-size="14.00">value = [4924, 6170]</text>
<text text-anchor="middle" x="285" y="-79.95" font-family="Helvetica,sans-Serif" font-size="14.00">class = Plant</text>
</g>
<!-- 2&#45;&gt;8864 -->
<g id="edge6" class="edge">
<title>2&#45;&gt;8864</title>
<path fill="none" stroke="black" d="M285,-202.07C285,-194.17 285,-185.88 285,-177.73"/>
<polygon fill="black" stroke="black" points="288.5,-177.87 285,-167.87 281.5,-177.87 288.5,-177.87"/>
</g>
<!-- 4 -->
<g id="node5" class="node">
<title>4</title>
<path fill="#c0c0c0" stroke="black" d="M71,-36C71,-36 41,-36 41,-36 35,-36 29,-30 29,-24 29,-24 29,-12 29,-12 29,-6 35,0 41,0 41,0 71,0 71,0 77,0 83,-6 83,-12 83,-12 83,-24 83,-24 83,-30 77,-36 71,-36"/>
<text text-anchor="middle" x="56" y="-13.32" font-family="Helvetica,sans-Serif" font-size="14.00">(...)</text>
</g>
<!-- 3&#45;&gt;4 -->
<g id="edge4" class="edge">
<title>3&#45;&gt;4</title>
<path fill="none" stroke="black" d="M75.16,-71.75C72.06,-63.22 68.92,-54.57 66.1,-46.8"/>
<polygon fill="black" stroke="black" points="69.46,-45.8 62.75,-37.6 62.88,-48.19 69.46,-45.8"/>
</g>
<!-- 6419 -->
<g id="node6" class="node">
<title>6419</title>
<path fill="#c0c0c0" stroke="black" d="M143,-36C143,-36 113,-36 113,-36 107,-36 101,-30 101,-24 101,-24 101,-12 101,-12 101,-6 107,0 113,0 113,0 143,0 143,0 149,0 155,-6 155,-12 155,-12 155,-24 155,-24 155,-30 149,-36 143,-36"/>
<text text-anchor="middle" x="128" y="-13.32" font-family="Helvetica,sans-Serif" font-size="14.00">(...)</text>
</g>
<!-- 3&#45;&gt;6419 -->
<g id="edge5" class="edge">
<title>3&#45;&gt;6419</title>
<path fill="none" stroke="black" d="M108.84,-71.75C111.94,-63.22 115.08,-54.57 117.9,-46.8"/>
<polygon fill="black" stroke="black" points="121.12,-48.19 121.25,-37.6 114.54,-45.8 121.12,-48.19"/>
</g>
<!-- 8865 -->
<g id="node8" class="node">
<title>8865</title>
<path fill="#c0c0c0" stroke="black" d="M268,-36C268,-36 238,-36 238,-36 232,-36 226,-30 226,-24 226,-24 226,-12 226,-12 226,-6 232,0 238,0 238,0 268,0 268,0 274,0 280,-6 280,-12 280,-12 280,-24 280,-24 280,-30 274,-36 268,-36"/>
<text text-anchor="middle" x="253" y="-13.32" font-family="Helvetica,sans-Serif" font-size="14.00">(...)</text>
</g>
<!-- 8864&#45;&gt;8865 -->
<g id="edge7" class="edge">
<title>8864&#45;&gt;8865</title>
<path fill="none" stroke="black" d="M270.03,-71.75C267.31,-63.32 264.55,-54.77 262.06,-47.07"/>
<polygon fill="black" stroke="black" points="265.41,-46.05 259.01,-37.61 258.75,-48.2 265.41,-46.05"/>
</g>
<!-- 10956 -->
<g id="node9" class="node">
<title>10956</title>
<path fill="#c0c0c0" stroke="black" d="M340,-36C340,-36 310,-36 310,-36 304,-36 298,-30 298,-24 298,-24 298,-12 298,-12 298,-6 304,0 310,0 310,0 340,0 340,0 346,0 352,-6 352,-12 352,-12 352,-24 352,-24 352,-30 346,-36 340,-36"/>
<text text-anchor="middle" x="325" y="-13.32" font-family="Helvetica,sans-Serif" font-size="14.00">(...)</text>
</g>
<!-- 8864&#45;&gt;10956 -->
<g id="edge8" class="edge">
<title>8864&#45;&gt;10956</title>
<path fill="none" stroke="black" d="M303.71,-71.75C307.15,-63.22 310.65,-54.57 313.78,-46.8"/>
<polygon fill="black" stroke="black" points="317.01,-48.16 317.5,-37.58 310.52,-45.54 317.01,-48.16"/>
</g>
<!-- 11654 -->
<g id="node11" class="node">
<title>11654</title>
<path fill="#acd6f4" stroke="black" d="M540,-166.25C540,-166.25 398,-166.25 398,-166.25 392,-166.25 386,-160.25 386,-154.25 386,-154.25 386,-84 386,-84 386,-78 392,-72 398,-72 398,-72 540,-72 540,-72 546,-72 552,-78 552,-84 552,-84 552,-154.25 552,-154.25 552,-160.25 546,-166.25 540,-166.25"/>
<text text-anchor="middle" x="469" y="-148.95" font-family="Helvetica,sans-Serif" font-size="14.00">10_A &lt;= 0.5</text>
<text text-anchor="middle" x="469" y="-131.7" font-family="Helvetica,sans-Serif" font-size="14.00">entropy = 0.949</text>
<text text-anchor="middle" x="469" y="-114.45" font-family="Helvetica,sans-Serif" font-size="14.00">samples = 8160</text>
<text text-anchor="middle" x="469" y="-97.2" font-family="Helvetica,sans-Serif" font-size="14.00">value = [4717, 8128]</text>
<text text-anchor="middle" x="469" y="-79.95" font-family="Helvetica,sans-Serif" font-size="14.00">class = Plant</text>
</g>
<!-- 11653&#45;&gt;11654 -->
<g id="edge10" class="edge">
<title>11653&#45;&gt;11654</title>
<path fill="none" stroke="black" d="M525.87,-202.07C519.95,-193.54 513.7,-184.54 507.61,-175.77"/>
<polygon fill="black" stroke="black" points="510.52,-173.82 501.95,-167.6 504.77,-177.81 510.52,-173.82"/>
</g>
<!-- 14847 -->
<g id="node14" class="node">
<title>14847</title>
<path fill="#f7d7bf" stroke="black" d="M724,-166.25C724,-166.25 582,-166.25 582,-166.25 576,-166.25 570,-160.25 570,-154.25 570,-154.25 570,-84 570,-84 570,-78 576,-72 582,-72 582,-72 724,-72 724,-72 730,-72 736,-78 736,-84 736,-84 736,-154.25 736,-154.25 736,-160.25 730,-166.25 724,-166.25"/>
<text text-anchor="middle" x="653" y="-148.95" font-family="Helvetica,sans-Serif" font-size="14.00">7_G &lt;= 0.5</text>
<text text-anchor="middle" x="653" y="-131.7" font-family="Helvetica,sans-Serif" font-size="14.00">entropy = 0.974</text>
<text text-anchor="middle" x="653" y="-114.45" font-family="Helvetica,sans-Serif" font-size="14.00">samples = 2313</text>
<text text-anchor="middle" x="653" y="-97.2" font-family="Helvetica,sans-Serif" font-size="14.00">value = [2167, 1472]</text>
<text text-anchor="middle" x="653" y="-79.95" font-family="Helvetica,sans-Serif" font-size="14.00">class = Animal</text>
</g>
<!-- 11653&#45;&gt;14847 -->
<g id="edge13" class="edge">
<title>11653&#45;&gt;14847</title>
<path fill="none" stroke="black" d="M592.3,-202.07C598.69,-193.45 605.42,-184.35 611.99,-175.49"/>
<polygon fill="black" stroke="black" points="614.71,-177.69 617.85,-167.57 609.09,-173.53 614.71,-177.69"/>
</g>
<!-- 11655 -->
<g id="node12" class="node">
<title>11655</title>
<path fill="#c0c0c0" stroke="black" d="M432,-36C432,-36 402,-36 402,-36 396,-36 390,-30 390,-24 390,-24 390,-12 390,-12 390,-6 396,0 402,0 402,0 432,0 432,0 438,0 444,-6 444,-12 444,-12 444,-24 444,-24 444,-30 438,-36 432,-36"/>
<text text-anchor="middle" x="417" y="-13.32" font-family="Helvetica,sans-Serif" font-size="14.00">(...)</text>
</g>
<!-- 11654&#45;&gt;11655 -->
<g id="edge11" class="edge">
<title>11654&#45;&gt;11655</title>
<path fill="none" stroke="black" d="M444.67,-71.75C440.1,-63.03 435.45,-54.16 431.3,-46.26"/>
<polygon fill="black" stroke="black" points="434.46,-44.74 426.71,-37.51 428.26,-47.99 434.46,-44.74"/>
</g>
<!-- 14068 -->
<g id="node13" class="node">
<title>14068</title>
<path fill="#c0c0c0" stroke="black" d="M504,-36C504,-36 474,-36 474,-36 468,-36 462,-30 462,-24 462,-24 462,-12 462,-12 462,-6 468,0 474,0 474,0 504,0 504,0 510,0 516,-6 516,-12 516,-12 516,-24 516,-24 516,-30 510,-36 504,-36"/>
<text text-anchor="middle" x="489" y="-13.32" font-family="Helvetica,sans-Serif" font-size="14.00">(...)</text>
</g>
<!-- 11654&#45;&gt;14068 -->
<g id="edge12" class="edge">
<title>11654&#45;&gt;14068</title>
<path fill="none" stroke="black" d="M478.36,-71.75C480.04,-63.42 481.74,-54.97 483.28,-47.34"/>
<polygon fill="black" stroke="black" points="486.69,-48.15 485.24,-37.66 479.83,-46.77 486.69,-48.15"/>
</g>
<!-- 14848 -->
<g id="node15" class="node">
<title>14848</title>
<path fill="#c0c0c0" stroke="black" d="M611,-36C611,-36 581,-36 581,-36 575,-36 569,-30 569,-24 569,-24 569,-12 569,-12 569,-6 575,0 581,0 581,0 611,0 611,0 617,0 623,-6 623,-12 623,-12 623,-24 623,-24 623,-30 617,-36 611,-36"/>
<text text-anchor="middle" x="596" y="-13.32" font-family="Helvetica,sans-Serif" font-size="14.00">(...)</text>
</g>
<!-- 14847&#45;&gt;14848 -->
<g id="edge14" class="edge">
<title>14847&#45;&gt;14848</title>
<path fill="none" stroke="black" d="M626.34,-71.75C621.26,-62.93 616.1,-53.96 611.52,-45.99"/>
<polygon fill="black" stroke="black" points="614.65,-44.41 606.63,-37.48 608.58,-47.9 614.65,-44.41"/>
</g>
<!-- 15597 -->
<g id="node16" class="node">
<title>15597</title>
<path fill="#c0c0c0" stroke="black" d="M683,-36C683,-36 653,-36 653,-36 647,-36 641,-30 641,-24 641,-24 641,-12 641,-12 641,-6 647,0 653,0 653,0 683,0 683,0 689,0 695,-6 695,-12 695,-12 695,-24 695,-24 695,-30 689,-36 683,-36"/>
<text text-anchor="middle" x="668" y="-13.32" font-family="Helvetica,sans-Serif" font-size="14.00">(...)</text>
</g>
<!-- 14847&#45;&gt;15597 -->
<g id="edge15" class="edge">
<title>14847&#45;&gt;15597</title>
<path fill="none" stroke="black" d="M660.02,-71.75C661.28,-63.42 662.56,-54.97 663.71,-47.34"/>
<polygon fill="black" stroke="black" points="667.14,-48.08 665.17,-37.67 660.22,-47.03 667.14,-48.08"/>
</g>
<!-- 15923 -->
<g id="node18" class="node">
<title>15923</title>
<path fill="#eca26d" stroke="black" d="M975.5,-296.5C975.5,-296.5 842.5,-296.5 842.5,-296.5 836.5,-296.5 830.5,-290.5 830.5,-284.5 830.5,-284.5 830.5,-214.25 830.5,-214.25 830.5,-208.25 836.5,-202.25 842.5,-202.25 842.5,-202.25 975.5,-202.25 975.5,-202.25 981.5,-202.25 987.5,-208.25 987.5,-214.25 987.5,-214.25 987.5,-284.5 987.5,-284.5 987.5,-290.5 981.5,-296.5 975.5,-296.5"/>
<text text-anchor="middle" x="909" y="-279.2" font-family="Helvetica,sans-Serif" font-size="14.00">17_G &lt;= 0.5</text>
<text text-anchor="middle" x="909" y="-261.95" font-family="Helvetica,sans-Serif" font-size="14.00">entropy = 0.737</text>
<text text-anchor="middle" x="909" y="-244.7" font-family="Helvetica,sans-Serif" font-size="14.00">samples = 1037</text>
<text text-anchor="middle" x="909" y="-227.45" font-family="Helvetica,sans-Serif" font-size="14.00">value = [1312, 344]</text>
<text text-anchor="middle" x="909" y="-210.2" font-family="Helvetica,sans-Serif" font-size="14.00">class = Animal</text>
</g>
<!-- 15922&#45;&gt;15923 -->
<g id="edge17" class="edge">
<title>15922&#45;&gt;15923</title>
<path fill="none" stroke="black" d="M909,-332.32C909,-324.42 909,-316.13 909,-307.98"/>
<polygon fill="black" stroke="black" points="912.5,-308.12 909,-298.12 905.5,-308.12 912.5,-308.12"/>
</g>
<!-- 16348 -->
<g id="node25" class="node">
<title>16348</title>
<path fill="#e89152" stroke="black" d="M1231.5,-296.5C1231.5,-296.5 1098.5,-296.5 1098.5,-296.5 1092.5,-296.5 1086.5,-290.5 1086.5,-284.5 1086.5,-284.5 1086.5,-214.25 1086.5,-214.25 1086.5,-208.25 1092.5,-202.25 1098.5,-202.25 1098.5,-202.25 1231.5,-202.25 1231.5,-202.25 1237.5,-202.25 1243.5,-208.25 1243.5,-214.25 1243.5,-214.25 1243.5,-284.5 1243.5,-284.5 1243.5,-290.5 1237.5,-296.5 1231.5,-296.5"/>
<text text-anchor="middle" x="1165" y="-279.2" font-family="Helvetica,sans-Serif" font-size="14.00">24_G &lt;= 0.5</text>
<text text-anchor="middle" x="1165" y="-261.95" font-family="Helvetica,sans-Serif" font-size="14.00">entropy = 0.511</text>
<text text-anchor="middle" x="1165" y="-244.7" font-family="Helvetica,sans-Serif" font-size="14.00">samples = 884</text>
<text text-anchor="middle" x="1165" y="-227.45" font-family="Helvetica,sans-Serif" font-size="14.00">value = [1239, 159]</text>
<text text-anchor="middle" x="1165" y="-210.2" font-family="Helvetica,sans-Serif" font-size="14.00">class = Animal</text>
</g>
<!-- 15922&#45;&gt;16348 -->
<g id="edge24" class="edge">
<title>15922&#45;&gt;16348</title>
<path fill="none" stroke="black" d="M987.9,-339.1C1015.89,-325.08 1047.57,-309.2 1076.33,-294.8"/>
<polygon fill="black" stroke="black" points="1077.64,-298.06 1085.01,-290.45 1074.5,-291.8 1077.64,-298.06"/>
</g>
<!-- 15924 -->
<g id="node19" class="node">
<title>15924</title>
<path fill="#ea9c63" stroke="black" d="M890,-166.25C890,-166.25 766,-166.25 766,-166.25 760,-166.25 754,-160.25 754,-154.25 754,-154.25 754,-84 754,-84 754,-78 760,-72 766,-72 766,-72 890,-72 890,-72 896,-72 902,-78 902,-84 902,-84 902,-154.25 902,-154.25 902,-160.25 896,-166.25 890,-166.25"/>
<text text-anchor="middle" x="828" y="-148.95" font-family="Helvetica,sans-Serif" font-size="14.00">4_G &lt;= 0.5</text>
<text text-anchor="middle" x="828" y="-131.7" font-family="Helvetica,sans-Serif" font-size="14.00">entropy = 0.667</text>
<text text-anchor="middle" x="828" y="-114.45" font-family="Helvetica,sans-Serif" font-size="14.00">samples = 702</text>
<text text-anchor="middle" x="828" y="-97.2" font-family="Helvetica,sans-Serif" font-size="14.00">value = [926, 195]</text>
<text text-anchor="middle" x="828" y="-79.95" font-family="Helvetica,sans-Serif" font-size="14.00">class = Animal</text>
</g>
<!-- 15923&#45;&gt;15924 -->
<g id="edge18" class="edge">
<title>15923&#45;&gt;15924</title>
<path fill="none" stroke="black" d="M879.76,-202.07C874.42,-193.63 868.81,-184.74 863.32,-176.05"/>
<polygon fill="black" stroke="black" points="866.31,-174.22 858.01,-167.64 860.39,-177.96 866.31,-174.22"/>
</g>
<!-- 16201 -->
<g id="node22" class="node">
<title>16201</title>
<path fill="#efb285" stroke="black" d="M1056,-166.25C1056,-166.25 932,-166.25 932,-166.25 926,-166.25 920,-160.25 920,-154.25 920,-154.25 920,-84 920,-84 920,-78 926,-72 932,-72 932,-72 1056,-72 1056,-72 1062,-72 1068,-78 1068,-84 1068,-84 1068,-154.25 1068,-154.25 1068,-160.25 1062,-166.25 1056,-166.25"/>
<text text-anchor="middle" x="994" y="-148.95" font-family="Helvetica,sans-Serif" font-size="14.00">3_U &lt;= 0.5</text>
<text text-anchor="middle" x="994" y="-131.7" font-family="Helvetica,sans-Serif" font-size="14.00">entropy = 0.853</text>
<text text-anchor="middle" x="994" y="-114.45" font-family="Helvetica,sans-Serif" font-size="14.00">samples = 335</text>
<text text-anchor="middle" x="994" y="-97.2" font-family="Helvetica,sans-Serif" font-size="14.00">value = [386, 149]</text>
<text text-anchor="middle" x="994" y="-79.95" font-family="Helvetica,sans-Serif" font-size="14.00">class = Animal</text>
</g>
<!-- 15923&#45;&gt;16201 -->
<g id="edge21" class="edge">
<title>15923&#45;&gt;16201</title>
<path fill="none" stroke="black" d="M939.69,-202.07C945.34,-193.54 951.3,-184.54 957.12,-175.77"/>
<polygon fill="black" stroke="black" points="959.91,-177.89 962.52,-167.62 954.08,-174.02 959.91,-177.89"/>
</g>
<!-- 15925 -->
<g id="node20" class="node">
<title>15925</title>
<path fill="#c0c0c0" stroke="black" d="M782,-36C782,-36 752,-36 752,-36 746,-36 740,-30 740,-24 740,-24 740,-12 740,-12 740,-6 746,0 752,0 752,0 782,0 782,0 788,0 794,-6 794,-12 794,-12 794,-24 794,-24 794,-30 788,-36 782,-36"/>
<text text-anchor="middle" x="767" y="-13.32" font-family="Helvetica,sans-Serif" font-size="14.00">(...)</text>
</g>
<!-- 15924&#45;&gt;15925 -->
<g id="edge19" class="edge">
<title>15924&#45;&gt;15925</title>
<path fill="none" stroke="black" d="M799.46,-71.75C793.97,-62.83 788.39,-53.76 783.44,-45.72"/>
<polygon fill="black" stroke="black" points="786.58,-44.14 778.36,-37.46 780.62,-47.81 786.58,-44.14"/>
</g>
<!-- 16108 -->
<g id="node21" class="node">
<title>16108</title>
<path fill="#c0c0c0" stroke="black" d="M854,-36C854,-36 824,-36 824,-36 818,-36 812,-30 812,-24 812,-24 812,-12 812,-12 812,-6 818,0 824,0 824,0 854,0 854,0 860,0 866,-6 866,-12 866,-12 866,-24 866,-24 866,-30 860,-36 854,-36"/>
<text text-anchor="middle" x="839" y="-13.32" font-family="Helvetica,sans-Serif" font-size="14.00">(...)</text>
</g>
<!-- 15924&#45;&gt;16108 -->
<g id="edge20" class="edge">
<title>15924&#45;&gt;16108</title>
<path fill="none" stroke="black" d="M833.15,-71.75C834.06,-63.52 834.99,-55.17 835.82,-47.61"/>
<polygon fill="black" stroke="black" points="839.3,-48 836.93,-37.68 832.35,-47.23 839.3,-48"/>
</g>
<!-- 16202 -->
<g id="node23" class="node">
<title>16202</title>
<path fill="#c0c0c0" stroke="black" d="M950,-36C950,-36 920,-36 920,-36 914,-36 908,-30 908,-24 908,-24 908,-12 908,-12 908,-6 914,0 920,0 920,0 950,0 950,0 956,0 962,-6 962,-12 962,-12 962,-24 962,-24 962,-30 956,-36 950,-36"/>
<text text-anchor="middle" x="935" y="-13.32" font-family="Helvetica,sans-Serif" font-size="14.00">(...)</text>
</g>
<!-- 16201&#45;&gt;16202 -->
<g id="edge22" class="edge">
<title>16201&#45;&gt;16202</title>
<path fill="none" stroke="black" d="M966.4,-71.75C961.15,-62.93 955.81,-53.96 951.06,-45.99"/>
<polygon fill="black" stroke="black" points="954.12,-44.28 946,-37.47 948.1,-47.86 954.12,-44.28"/>
</g>
<!-- 16305 -->
<g id="node24" class="node">
<title>16305</title>
<path fill="#c0c0c0" stroke="black" d="M1022,-36C1022,-36 992,-36 992,-36 986,-36 980,-30 980,-24 980,-24 980,-12 980,-12 980,-6 986,0 992,0 992,0 1022,0 1022,0 1028,0 1034,-6 1034,-12 1034,-12 1034,-24 1034,-24 1034,-30 1028,-36 1022,-36"/>
<text text-anchor="middle" x="1007" y="-13.32" font-family="Helvetica,sans-Serif" font-size="14.00">(...)</text>
</g>
<!-- 16201&#45;&gt;16305 -->
<g id="edge23" class="edge">
<title>16201&#45;&gt;16305</title>
<path fill="none" stroke="black" d="M1000.08,-71.75C1001.17,-63.42 1002.28,-54.97 1003.28,-47.34"/>
<polygon fill="black" stroke="black" points="1006.72,-48.04 1004.55,-37.67 999.78,-47.13 1006.72,-48.04"/>
</g>
<!-- 16349 -->
<g id="node26" class="node">
<title>16349</title>
<path fill="#e88d4c" stroke="black" d="M1231.5,-166.25C1231.5,-166.25 1098.5,-166.25 1098.5,-166.25 1092.5,-166.25 1086.5,-160.25 1086.5,-154.25 1086.5,-154.25 1086.5,-84 1086.5,-84 1086.5,-78 1092.5,-72 1098.5,-72 1098.5,-72 1231.5,-72 1231.5,-72 1237.5,-72 1243.5,-78 1243.5,-84 1243.5,-84 1243.5,-154.25 1243.5,-154.25 1243.5,-160.25 1237.5,-166.25 1231.5,-166.25"/>
<text text-anchor="middle" x="1165" y="-148.95" font-family="Helvetica,sans-Serif" font-size="14.00">25_U &lt;= 0.5</text>
<text text-anchor="middle" x="1165" y="-131.7" font-family="Helvetica,sans-Serif" font-size="14.00">entropy = 0.43</text>
<text text-anchor="middle" x="1165" y="-114.45" font-family="Helvetica,sans-Serif" font-size="14.00">samples = 789</text>
<text text-anchor="middle" x="1165" y="-97.2" font-family="Helvetica,sans-Serif" font-size="14.00">value = [1148, 111]</text>
<text text-anchor="middle" x="1165" y="-79.95" font-family="Helvetica,sans-Serif" font-size="14.00">class = Animal</text>
</g>
<!-- 16348&#45;&gt;16349 -->
<g id="edge25" class="edge">
<title>16348&#45;&gt;16349</title>
<path fill="none" stroke="black" d="M1165,-202.07C1165,-194.17 1165,-185.88 1165,-177.73"/>
<polygon fill="black" stroke="black" points="1168.5,-177.87 1165,-167.87 1161.5,-177.87 1168.5,-177.87"/>
</g>
<!-- 16600 -->
<g id="node29" class="node">
<title>16600</title>
<path fill="#f3c3a1" stroke="black" d="M1380,-166.25C1380,-166.25 1274,-166.25 1274,-166.25 1268,-166.25 1262,-160.25 1262,-154.25 1262,-154.25 1262,-84 1262,-84 1262,-78 1268,-72 1274,-72 1274,-72 1380,-72 1380,-72 1386,-72 1392,-78 1392,-84 1392,-84 1392,-154.25 1392,-154.25 1392,-160.25 1386,-166.25 1380,-166.25"/>
<text text-anchor="middle" x="1327" y="-148.95" font-family="Helvetica,sans-Serif" font-size="14.00">5_C &lt;= 0.5</text>
<text text-anchor="middle" x="1327" y="-131.7" font-family="Helvetica,sans-Serif" font-size="14.00">entropy = 0.93</text>
<text text-anchor="middle" x="1327" y="-114.45" font-family="Helvetica,sans-Serif" font-size="14.00">samples = 95</text>
<text text-anchor="middle" x="1327" y="-97.2" font-family="Helvetica,sans-Serif" font-size="14.00">value = [91, 48]</text>
<text text-anchor="middle" x="1327" y="-79.95" font-family="Helvetica,sans-Serif" font-size="14.00">class = Animal</text>
</g>
<!-- 16348&#45;&gt;16600 -->
<g id="edge28" class="edge">
<title>16348&#45;&gt;16600</title>
<path fill="none" stroke="black" d="M1223.49,-202.07C1235.11,-192.87 1247.41,-183.13 1259.32,-173.71"/>
<polygon fill="black" stroke="black" points="1261.47,-176.46 1267.14,-167.51 1257.13,-170.98 1261.47,-176.46"/>
</g>
<!-- 16350 -->
<g id="node27" class="node">
<title>16350</title>
<path fill="#c0c0c0" stroke="black" d="M1135,-36C1135,-36 1105,-36 1105,-36 1099,-36 1093,-30 1093,-24 1093,-24 1093,-12 1093,-12 1093,-6 1099,0 1105,0 1105,0 1135,0 1135,0 1141,0 1147,-6 1147,-12 1147,-12 1147,-24 1147,-24 1147,-30 1141,-36 1135,-36"/>
<text text-anchor="middle" x="1120" y="-13.32" font-family="Helvetica,sans-Serif" font-size="14.00">(...)</text>
</g>
<!-- 16349&#45;&gt;16350 -->
<g id="edge26" class="edge">
<title>16349&#45;&gt;16350</title>
<path fill="none" stroke="black" d="M1143.95,-71.75C1140.03,-63.12 1136.05,-54.36 1132.5,-46.53"/>
<polygon fill="black" stroke="black" points="1135.74,-45.21 1128.42,-37.55 1129.37,-48.1 1135.74,-45.21"/>
</g>
<!-- 16585 -->
<g id="node28" class="node">
<title>16585</title>
<path fill="#c0c0c0" stroke="black" d="M1207,-36C1207,-36 1177,-36 1177,-36 1171,-36 1165,-30 1165,-24 1165,-24 1165,-12 1165,-12 1165,-6 1171,0 1177,0 1177,0 1207,0 1207,0 1213,0 1219,-6 1219,-12 1219,-12 1219,-24 1219,-24 1219,-30 1213,-36 1207,-36"/>
<text text-anchor="middle" x="1192" y="-13.32" font-family="Helvetica,sans-Serif" font-size="14.00">(...)</text>
</g>
<!-- 16349&#45;&gt;16585 -->
<g id="edge27" class="edge">
<title>16349&#45;&gt;16585</title>
<path fill="none" stroke="black" d="M1177.63,-71.75C1179.93,-63.32 1182.26,-54.77 1184.35,-47.07"/>
<polygon fill="black" stroke="black" points="1187.67,-48.2 1186.92,-37.63 1180.92,-46.36 1187.67,-48.2"/>
</g>
<!-- 16601 -->
<g id="node30" class="node">
<title>16601</title>
<path fill="#c0c0c0" stroke="black" d="M1306,-36C1306,-36 1276,-36 1276,-36 1270,-36 1264,-30 1264,-24 1264,-24 1264,-12 1264,-12 1264,-6 1270,0 1276,0 1276,0 1306,0 1306,0 1312,0 1318,-6 1318,-12 1318,-12 1318,-24 1318,-24 1318,-30 1312,-36 1306,-36"/>
<text text-anchor="middle" x="1291" y="-13.32" font-family="Helvetica,sans-Serif" font-size="14.00">(...)</text>
</g>
<!-- 16600&#45;&gt;16601 -->
<g id="edge29" class="edge">
<title>16600&#45;&gt;16601</title>
<path fill="none" stroke="black" d="M1310.16,-71.75C1307.06,-63.22 1303.92,-54.57 1301.1,-46.8"/>
<polygon fill="black" stroke="black" points="1304.46,-45.8 1297.75,-37.6 1297.88,-48.19 1304.46,-45.8"/>
</g>
<!-- 16618 -->
<g id="node31" class="node">
<title>16618</title>
<path fill="#c0c0c0" stroke="black" d="M1378,-36C1378,-36 1348,-36 1348,-36 1342,-36 1336,-30 1336,-24 1336,-24 1336,-12 1336,-12 1336,-6 1342,0 1348,0 1348,0 1378,0 1378,0 1384,0 1390,-6 1390,-12 1390,-12 1390,-24 1390,-24 1390,-30 1384,-36 1378,-36"/>
<text text-anchor="middle" x="1363" y="-13.32" font-family="Helvetica,sans-Serif" font-size="14.00">(...)</text>
</g>
<!-- 16600&#45;&gt;16618 -->
<g id="edge30" class="edge">
<title>16600&#45;&gt;16618</title>
<path fill="none" stroke="black" d="M1343.84,-71.75C1346.94,-63.22 1350.08,-54.57 1352.9,-46.8"/>
<polygon fill="black" stroke="black" points="1356.12,-48.19 1356.25,-37.6 1349.54,-45.8 1356.12,-48.19"/>
</g>
</g>
</svg>
