<?xml version="1.0" encoding="UTF-8" standalone="no"?>
<!DOCTYPE svg PUBLIC "-//W3C//DTD SVG 1.1//EN"
 "http://www.w3.org/Graphics/SVG/1.1/DTD/svg11.dtd">
<!-- Generated by graphviz version 12.0.0 (20240803.0821)
 -->
<!-- Title: Tree Pages: 1 -->
<svg width="1412pt" height="565pt"
 viewBox="0.00 0.00 1411.50 565.00" xmlns="http://www.w3.org/2000/svg" xmlns:xlink="http://www.w3.org/1999/xlink">
<g id="graph0" class="graph" transform="scale(1 1) rotate(0) translate(4 561)">
<title>Tree</title>
<polygon fill="white" stroke="none" points="-4,4 -4,-561 1407.5,-561 1407.5,4 -4,4"/>
<!-- 0 -->
<g id="node1" class="node">
<title>0</title>
<path fill="#fffefe" stroke="black" d="M799.5,-557C799.5,-557 639.5,-557 639.5,-557 633.5,-557 627.5,-551 627.5,-545 627.5,-545 627.5,-474.75 627.5,-474.75 627.5,-468.75 633.5,-462.75 639.5,-462.75 639.5,-462.75 799.5,-462.75 799.5,-462.75 805.5,-462.75 811.5,-468.75 811.5,-474.75 811.5,-474.75 811.5,-545 811.5,-545 811.5,-551 805.5,-557 799.5,-557"/>
<text text-anchor="middle" x="719.5" y="-539.7" font-family="Helvetica,sans-Serif" font-size="14.00">22_U &lt;= 0.5</text>
<text text-anchor="middle" x="719.5" y="-522.45" font-family="Helvetica,sans-Serif" font-size="14.00">entropy = 1.0</text>
<text text-anchor="middle" x="719.5" y="-505.2" font-family="Helvetica,sans-Serif" font-size="14.00">samples = 37996</text>
<text text-anchor="middle" x="719.5" y="-487.95" font-family="Helvetica,sans-Serif" font-size="14.00">value = [30259, 30086]</text>
<text text-anchor="middle" x="719.5" y="-470.7" font-family="Helvetica,sans-Serif" font-size="14.00">class = Animal</text>
</g>
<!-- 1 -->
<g id="node2" class="node">
<title>1</title>
<path fill="#ddeefb" stroke="black" d="M630.5,-426.75C630.5,-426.75 470.5,-426.75 470.5,-426.75 464.5,-426.75 458.5,-420.75 458.5,-414.75 458.5,-414.75 458.5,-344.5 458.5,-344.5 458.5,-338.5 464.5,-332.5 470.5,-332.5 470.5,-332.5 630.5,-332.5 630.5,-332.5 636.5,-332.5 642.5,-338.5 642.5,-344.5 642.5,-344.5 642.5,-414.75 642.5,-414.75 642.5,-420.75 636.5,-426.75 630.5,-426.75"/>
<text text-anchor="middle" x="550.5" y="-409.45" font-family="Helvetica,sans-Serif" font-size="14.00">1_U &lt;= 0.5</text>
<text text-anchor="middle" x="550.5" y="-392.2" font-family="Helvetica,sans-Serif" font-size="14.00">entropy = 0.994</text>
<text text-anchor="middle" x="550.5" y="-374.95" font-family="Helvetica,sans-Serif" font-size="14.00">samples = 32972</text>
<text text-anchor="middle" x="550.5" y="-357.7" font-family="Helvetica,sans-Serif" font-size="14.00">value = [23788, 28656]</text>
<text text-anchor="middle" x="550.5" y="-340.45" font-family="Helvetica,sans-Serif" font-size="14.00">class = Plant</text>
</g>
<!-- 0&#45;&gt;1 -->
<g id="edge1" class="edge">
<title>0&#45;&gt;1</title>
<path fill="none" stroke="black" d="M658.49,-462.57C646.24,-453.28 633.27,-443.44 620.74,-433.93"/>
<polygon fill="black" stroke="black" points="622.99,-431.25 612.91,-427.99 618.76,-436.82 622.99,-431.25"/>
<text text-anchor="middle" x="615.1" y="-447.17" font-family="Helvetica,sans-Serif" font-size="14.00">True</text>
</g>
<!-- 14424 -->
<g id="node17" class="node">
<title>14424</title>
<path fill="#eb9d65" stroke="black" d="M968.5,-426.75C968.5,-426.75 826.5,-426.75 826.5,-426.75 820.5,-426.75 814.5,-420.75 814.5,-414.75 814.5,-414.75 814.5,-344.5 814.5,-344.5 814.5,-338.5 820.5,-332.5 826.5,-332.5 826.5,-332.5 968.5,-332.5 968.5,-332.5 974.5,-332.5 980.5,-338.5 980.5,-344.5 980.5,-344.5 980.5,-414.75 980.5,-414.75 980.5,-420.75 974.5,-426.75 968.5,-426.75"/>
<text text-anchor="middle" x="897.5" y="-409.45" font-family="Helvetica,sans-Serif" font-size="14.00">20_U &lt;= 0.5</text>
<text text-anchor="middle" x="897.5" y="-392.2" font-family="Helvetica,sans-Serif" font-size="14.00">entropy = 0.682</text>
<text text-anchor="middle" x="897.5" y="-374.95" font-family="Helvetica,sans-Serif" font-size="14.00">samples = 5024</text>
<text text-anchor="middle" x="897.5" y="-357.7" font-family="Helvetica,sans-Serif" font-size="14.00">value = [6471, 1430]</text>
<text text-anchor="middle" x="897.5" y="-340.45" font-family="Helvetica,sans-Serif" font-size="14.00">class = Animal</text>
</g>
<!-- 0&#45;&gt;14424 -->
<g id="edge16" class="edge">
<title>0&#45;&gt;14424</title>
<path fill="none" stroke="black" d="M784.01,-462.39C796.95,-453.07 810.63,-443.22 823.85,-433.69"/>
<polygon fill="black" stroke="black" points="825.61,-436.73 831.68,-428.05 821.52,-431.06 825.61,-436.73"/>
<text text-anchor="middle" x="828.9" y="-447.17" font-family="Helvetica,sans-Serif" font-size="14.00">False</text>
</g>
<!-- 2 -->
<g id="node3" class="node">
<title>2</title>
<path fill="#fbe9dd" stroke="black" d="M356.5,-296.5C356.5,-296.5 196.5,-296.5 196.5,-296.5 190.5,-296.5 184.5,-290.5 184.5,-284.5 184.5,-284.5 184.5,-214.25 184.5,-214.25 184.5,-208.25 190.5,-202.25 196.5,-202.25 196.5,-202.25 356.5,-202.25 356.5,-202.25 362.5,-202.25 368.5,-208.25 368.5,-214.25 368.5,-214.25 368.5,-284.5 368.5,-284.5 368.5,-290.5 362.5,-296.5 356.5,-296.5"/>
<text text-anchor="middle" x="276.5" y="-279.2" font-family="Helvetica,sans-Serif" font-size="14.00">9_G &lt;= 0.5</text>
<text text-anchor="middle" x="276.5" y="-261.95" font-family="Helvetica,sans-Serif" font-size="14.00">entropy = 0.994</text>
<text text-anchor="middle" x="276.5" y="-244.7" font-family="Helvetica,sans-Serif" font-size="14.00">samples = 15255</text>
<text text-anchor="middle" x="276.5" y="-227.45" font-family="Helvetica,sans-Serif" font-size="14.00">value = [13312, 11009]</text>
<text text-anchor="middle" x="276.5" y="-210.2" font-family="Helvetica,sans-Serif" font-size="14.00">class = Animal</text>
</g>
<!-- 1&#45;&gt;2 -->
<g id="edge2" class="edge">
<title>1&#45;&gt;2</title>
<path fill="none" stroke="black" d="M458.12,-335.38C432.74,-323.51 405.08,-310.56 379.16,-298.43"/>
<polygon fill="black" stroke="black" points="380.86,-295.36 370.32,-294.29 377.89,-301.7 380.86,-295.36"/>
</g>
<!-- 8397 -->
<g id="node10" class="node">
<title>8397</title>
<path fill="#afd7f4" stroke="black" d="M630.5,-296.5C630.5,-296.5 470.5,-296.5 470.5,-296.5 464.5,-296.5 458.5,-290.5 458.5,-284.5 458.5,-284.5 458.5,-214.25 458.5,-214.25 458.5,-208.25 464.5,-202.25 470.5,-202.25 470.5,-202.25 630.5,-202.25 630.5,-202.25 636.5,-202.25 642.5,-208.25 642.5,-214.25 642.5,-214.25 642.5,-284.5 642.5,-284.5 642.5,-290.5 636.5,-296.5 630.5,-296.5"/>
<text text-anchor="middle" x="550.5" y="-279.2" font-family="Helvetica,sans-Serif" font-size="14.00">23_U &lt;= 0.5</text>
<text text-anchor="middle" x="550.5" y="-261.95" font-family="Helvetica,sans-Serif" font-size="14.00">entropy = 0.953</text>
<text text-anchor="middle" x="550.5" y="-244.7" font-family="Helvetica,sans-Serif" font-size="14.00">samples = 17717</text>
<text text-anchor="middle" x="550.5" y="-227.45" font-family="Helvetica,sans-Serif" font-size="14.00">value = [10476, 17647]</text>
<text text-anchor="middle" x="550.5" y="-210.2" font-family="Helvetica,sans-Serif" font-size="14.00">class = Plant</text>
</g>
<!-- 1&#45;&gt;8397 -->
<g id="edge9" class="edge">
<title>1&#45;&gt;8397</title>
<path fill="none" stroke="black" d="M550.5,-332.32C550.5,-324.42 550.5,-316.13 550.5,-307.98"/>
<polygon fill="black" stroke="black" points="554,-308.12 550.5,-298.12 547,-308.12 554,-308.12"/>
</g>
<!-- 3 -->
<g id="node4" class="node">
<title>3</title>
<path fill="#f8ddca" stroke="black" d="M163,-166.25C163,-166.25 12,-166.25 12,-166.25 6,-166.25 0,-160.25 0,-154.25 0,-154.25 0,-84 0,-84 0,-78 6,-72 12,-72 12,-72 163,-72 163,-72 169,-72 175,-78 175,-84 175,-84 175,-154.25 175,-154.25 175,-160.25 169,-166.25 163,-166.25"/>
<text text-anchor="middle" x="87.5" y="-148.95" font-family="Helvetica,sans-Serif" font-size="14.00">19_C &lt;= 0.5</text>
<text text-anchor="middle" x="87.5" y="-131.7" font-family="Helvetica,sans-Serif" font-size="14.00">entropy = 0.983</text>
<text text-anchor="middle" x="87.5" y="-114.45" font-family="Helvetica,sans-Serif" font-size="14.00">samples = 10880</text>
<text text-anchor="middle" x="87.5" y="-97.2" font-family="Helvetica,sans-Serif" font-size="14.00">value = [10012, 7349]</text>
<text text-anchor="middle" x="87.5" y="-79.95" font-family="Helvetica,sans-Serif" font-size="14.00">class = Animal</text>
</g>
<!-- 2&#45;&gt;3 -->
<g id="edge3" class="edge">
<title>2&#45;&gt;3</title>
<path fill="none" stroke="black" d="M208,-201.89C194.13,-192.48 179.46,-182.53 165.3,-172.92"/>
<polygon fill="black" stroke="black" points="167.58,-170.23 157.34,-167.51 163.65,-176.03 167.58,-170.23"/>
</g>
<!-- 6222 -->
<g id="node7" class="node">
<title>6222</title>
<path fill="#ecf5fc" stroke="black" d="M347.5,-166.25C347.5,-166.25 205.5,-166.25 205.5,-166.25 199.5,-166.25 193.5,-160.25 193.5,-154.25 193.5,-154.25 193.5,-84 193.5,-84 193.5,-78 199.5,-72 205.5,-72 205.5,-72 347.5,-72 347.5,-72 353.5,-72 359.5,-78 359.5,-84 359.5,-84 359.5,-154.25 359.5,-154.25 359.5,-160.25 353.5,-166.25 347.5,-166.25"/>
<text text-anchor="middle" x="276.5" y="-148.95" font-family="Helvetica,sans-Serif" font-size="14.00">19_U &lt;= 0.5</text>
<text text-anchor="middle" x="276.5" y="-131.7" font-family="Helvetica,sans-Serif" font-size="14.00">entropy = 0.998</text>
<text text-anchor="middle" x="276.5" y="-114.45" font-family="Helvetica,sans-Serif" font-size="14.00">samples = 4375</text>
<text text-anchor="middle" x="276.5" y="-97.2" font-family="Helvetica,sans-Serif" font-size="14.00">value = [3300, 3660]</text>
<text text-anchor="middle" x="276.5" y="-79.95" font-family="Helvetica,sans-Serif" font-size="14.00">class = Plant</text>
</g>
<!-- 2&#45;&gt;6222 -->
<g id="edge6" class="edge">
<title>2&#45;&gt;6222</title>
<path fill="none" stroke="black" d="M276.5,-202.07C276.5,-194.17 276.5,-185.88 276.5,-177.73"/>
<polygon fill="black" stroke="black" points="280,-177.87 276.5,-167.87 273,-177.87 280,-177.87"/>
</g>
<!-- 4 -->
<g id="node5" class="node">
<title>4</title>
<path fill="#c0c0c0" stroke="black" d="M66.5,-36C66.5,-36 36.5,-36 36.5,-36 30.5,-36 24.5,-30 24.5,-24 24.5,-24 24.5,-12 24.5,-12 24.5,-6 30.5,0 36.5,0 36.5,0 66.5,0 66.5,0 72.5,0 78.5,-6 78.5,-12 78.5,-12 78.5,-24 78.5,-24 78.5,-30 72.5,-36 66.5,-36"/>
<text text-anchor="middle" x="51.5" y="-13.32" font-family="Helvetica,sans-Serif" font-size="14.00">(...)</text>
</g>
<!-- 3&#45;&gt;4 -->
<g id="edge4" class="edge">
<title>3&#45;&gt;4</title>
<path fill="none" stroke="black" d="M70.66,-71.75C67.56,-63.22 64.42,-54.57 61.6,-46.8"/>
<polygon fill="black" stroke="black" points="64.96,-45.8 58.25,-37.6 58.38,-48.19 64.96,-45.8"/>
</g>
<!-- 4613 -->
<g id="node6" class="node">
<title>4613</title>
<path fill="#c0c0c0" stroke="black" d="M138.5,-36C138.5,-36 108.5,-36 108.5,-36 102.5,-36 96.5,-30 96.5,-24 96.5,-24 96.5,-12 96.5,-12 96.5,-6 102.5,0 108.5,0 108.5,0 138.5,0 138.5,0 144.5,0 150.5,-6 150.5,-12 150.5,-12 150.5,-24 150.5,-24 150.5,-30 144.5,-36 138.5,-36"/>
<text text-anchor="middle" x="123.5" y="-13.32" font-family="Helvetica,sans-Serif" font-size="14.00">(...)</text>
</g>
<!-- 3&#45;&gt;4613 -->
<g id="edge5" class="edge">
<title>3&#45;&gt;4613</title>
<path fill="none" stroke="black" d="M104.34,-71.75C107.44,-63.22 110.58,-54.57 113.4,-46.8"/>
<polygon fill="black" stroke="black" points="116.62,-48.19 116.75,-37.6 110.04,-45.8 116.62,-48.19"/>
</g>
<!-- 6223 -->
<g id="node8" class="node">
<title>6223</title>
<path fill="#c0c0c0" stroke="black" d="M260.5,-36C260.5,-36 230.5,-36 230.5,-36 224.5,-36 218.5,-30 218.5,-24 218.5,-24 218.5,-12 218.5,-12 218.5,-6 224.5,0 230.5,0 230.5,0 260.5,0 260.5,0 266.5,0 272.5,-6 272.5,-12 272.5,-12 272.5,-24 272.5,-24 272.5,-30 266.5,-36 260.5,-36"/>
<text text-anchor="middle" x="245.5" y="-13.32" font-family="Helvetica,sans-Serif" font-size="14.00">(...)</text>
</g>
<!-- 6222&#45;&gt;6223 -->
<g id="edge7" class="edge">
<title>6222&#45;&gt;6223</title>
<path fill="none" stroke="black" d="M262,-71.75C259.36,-63.32 256.69,-54.77 254.28,-47.07"/>
<polygon fill="black" stroke="black" points="257.65,-46.12 251.32,-37.62 250.97,-48.21 257.65,-46.12"/>
</g>
<!-- 7822 -->
<g id="node9" class="node">
<title>7822</title>
<path fill="#c0c0c0" stroke="black" d="M332.5,-36C332.5,-36 302.5,-36 302.5,-36 296.5,-36 290.5,-30 290.5,-24 290.5,-24 290.5,-12 290.5,-12 290.5,-6 296.5,0 302.5,0 302.5,0 332.5,0 332.5,0 338.5,0 344.5,-6 344.5,-12 344.5,-12 344.5,-24 344.5,-24 344.5,-30 338.5,-36 332.5,-36"/>
<text text-anchor="middle" x="317.5" y="-13.32" font-family="Helvetica,sans-Serif" font-size="14.00">(...)</text>
</g>
<!-- 6222&#45;&gt;7822 -->
<g id="edge8" class="edge">
<title>6222&#45;&gt;7822</title>
<path fill="none" stroke="black" d="M295.68,-71.75C299.21,-63.22 302.79,-54.57 306,-46.8"/>
<polygon fill="black" stroke="black" points="309.23,-48.15 309.82,-37.57 302.76,-45.47 309.23,-48.15"/>
</g>
<!-- 8398 -->
<g id="node11" class="node">
<title>8398</title>
<path fill="#a5d2f3" stroke="black" d="M541,-166.25C541,-166.25 390,-166.25 390,-166.25 384,-166.25 378,-160.25 378,-154.25 378,-154.25 378,-84 378,-84 378,-78 384,-72 390,-72 390,-72 541,-72 541,-72 547,-72 553,-78 553,-84 553,-84 553,-154.25 553,-154.25 553,-160.25 547,-166.25 541,-166.25"/>
<text text-anchor="middle" x="465.5" y="-148.95" font-family="Helvetica,sans-Serif" font-size="14.00">23_C &lt;= 0.5</text>
<text text-anchor="middle" x="465.5" y="-131.7" font-family="Helvetica,sans-Serif" font-size="14.00">entropy = 0.936</text>
<text text-anchor="middle" x="465.5" y="-114.45" font-family="Helvetica,sans-Serif" font-size="14.00">samples = 16999</text>
<text text-anchor="middle" x="465.5" y="-97.2" font-family="Helvetica,sans-Serif" font-size="14.00">value = [9506, 17478]</text>
<text text-anchor="middle" x="465.5" y="-79.95" font-family="Helvetica,sans-Serif" font-size="14.00">class = Plant</text>
</g>
<!-- 8397&#45;&gt;8398 -->
<g id="edge10" class="edge">
<title>8397&#45;&gt;8398</title>
<path fill="none" stroke="black" d="M519.81,-202.07C514.16,-193.54 508.2,-184.54 502.38,-175.77"/>
<polygon fill="black" stroke="black" points="505.42,-174.02 496.98,-167.62 499.59,-177.89 505.42,-174.02"/>
</g>
<!-- 14189 -->
<g id="node14" class="node">
<title>14189</title>
<path fill="#ea975b" stroke="black" d="M707.5,-166.25C707.5,-166.25 583.5,-166.25 583.5,-166.25 577.5,-166.25 571.5,-160.25 571.5,-154.25 571.5,-154.25 571.5,-84 571.5,-84 571.5,-78 577.5,-72 583.5,-72 583.5,-72 707.5,-72 707.5,-72 713.5,-72 719.5,-78 719.5,-84 719.5,-84 719.5,-154.25 719.5,-154.25 719.5,-160.25 713.5,-166.25 707.5,-166.25"/>
<text text-anchor="middle" x="645.5" y="-148.95" font-family="Helvetica,sans-Serif" font-size="14.00">25_G &lt;= 0.5</text>
<text text-anchor="middle" x="645.5" y="-131.7" font-family="Helvetica,sans-Serif" font-size="14.00">entropy = 0.606</text>
<text text-anchor="middle" x="645.5" y="-114.45" font-family="Helvetica,sans-Serif" font-size="14.00">samples = 718</text>
<text text-anchor="middle" x="645.5" y="-97.2" font-family="Helvetica,sans-Serif" font-size="14.00">value = [970, 169]</text>
<text text-anchor="middle" x="645.5" y="-79.95" font-family="Helvetica,sans-Serif" font-size="14.00">class = Animal</text>
</g>
<!-- 8397&#45;&gt;14189 -->
<g id="edge13" class="edge">
<title>8397&#45;&gt;14189</title>
<path fill="none" stroke="black" d="M584.8,-202.07C591.19,-193.45 597.92,-184.35 604.49,-175.49"/>
<polygon fill="black" stroke="black" points="607.21,-177.69 610.35,-167.57 601.59,-173.53 607.21,-177.69"/>
</g>
<!-- 8399 -->
<g id="node12" class="node">
<title>8399</title>
<path fill="#c0c0c0" stroke="black" d="M426.5,-36C426.5,-36 396.5,-36 396.5,-36 390.5,-36 384.5,-30 384.5,-24 384.5,-24 384.5,-12 384.5,-12 384.5,-6 390.5,0 396.5,0 396.5,0 426.5,0 426.5,0 432.5,0 438.5,-6 438.5,-12 438.5,-12 438.5,-24 438.5,-24 438.5,-30 432.5,-36 426.5,-36"/>
<text text-anchor="middle" x="411.5" y="-13.32" font-family="Helvetica,sans-Serif" font-size="14.00">(...)</text>
</g>
<!-- 8398&#45;&gt;8399 -->
<g id="edge11" class="edge">
<title>8398&#45;&gt;8399</title>
<path fill="none" stroke="black" d="M440.24,-71.75C435.48,-63.03 430.66,-54.16 426.35,-46.26"/>
<polygon fill="black" stroke="black" points="429.44,-44.61 421.58,-37.5 423.29,-47.96 429.44,-44.61"/>
</g>
<!-- 14010 -->
<g id="node13" class="node">
<title>14010</title>
<path fill="#c0c0c0" stroke="black" d="M498.5,-36C498.5,-36 468.5,-36 468.5,-36 462.5,-36 456.5,-30 456.5,-24 456.5,-24 456.5,-12 456.5,-12 456.5,-6 462.5,0 468.5,0 468.5,0 498.5,0 498.5,0 504.5,0 510.5,-6 510.5,-12 510.5,-12 510.5,-24 510.5,-24 510.5,-30 504.5,-36 498.5,-36"/>
<text text-anchor="middle" x="483.5" y="-13.32" font-family="Helvetica,sans-Serif" font-size="14.00">(...)</text>
</g>
<!-- 8398&#45;&gt;14010 -->
<g id="edge12" class="edge">
<title>8398&#45;&gt;14010</title>
<path fill="none" stroke="black" d="M473.92,-71.75C475.43,-63.42 476.97,-54.97 478.35,-47.34"/>
<polygon fill="black" stroke="black" points="481.77,-48.13 480.11,-37.66 474.88,-46.88 481.77,-48.13"/>
</g>
<!-- 14190 -->
<g id="node15" class="node">
<title>14190</title>
<path fill="#c0c0c0" stroke="black" d="M601.5,-36C601.5,-36 571.5,-36 571.5,-36 565.5,-36 559.5,-30 559.5,-24 559.5,-24 559.5,-12 559.5,-12 559.5,-6 565.5,0 571.5,0 571.5,0 601.5,0 601.5,0 607.5,0 613.5,-6 613.5,-12 613.5,-12 613.5,-24 613.5,-24 613.5,-30 607.5,-36 601.5,-36"/>
<text text-anchor="middle" x="586.5" y="-13.32" font-family="Helvetica,sans-Serif" font-size="14.00">(...)</text>
</g>
<!-- 14189&#45;&gt;14190 -->
<g id="edge14" class="edge">
<title>14189&#45;&gt;14190</title>
<path fill="none" stroke="black" d="M617.9,-71.75C612.65,-62.93 607.31,-53.96 602.56,-45.99"/>
<polygon fill="black" stroke="black" points="605.62,-44.28 597.5,-37.47 599.6,-47.86 605.62,-44.28"/>
</g>
<!-- 14411 -->
<g id="node16" class="node">
<title>14411</title>
<path fill="#c0c0c0" stroke="black" d="M673.5,-36C673.5,-36 643.5,-36 643.5,-36 637.5,-36 631.5,-30 631.5,-24 631.5,-24 631.5,-12 631.5,-12 631.5,-6 637.5,0 643.5,0 643.5,0 673.5,0 673.5,0 679.5,0 685.5,-6 685.5,-12 685.5,-12 685.5,-24 685.5,-24 685.5,-30 679.5,-36 673.5,-36"/>
<text text-anchor="middle" x="658.5" y="-13.32" font-family="Helvetica,sans-Serif" font-size="14.00">(...)</text>
</g>
<!-- 14189&#45;&gt;14411 -->
<g id="edge15" class="edge">
<title>14189&#45;&gt;14411</title>
<path fill="none" stroke="black" d="M651.58,-71.75C652.67,-63.42 653.78,-54.97 654.78,-47.34"/>
<polygon fill="black" stroke="black" points="658.22,-48.04 656.05,-37.67 651.28,-47.13 658.22,-48.04"/>
</g>
<!-- 14425 -->
<g id="node18" class="node">
<title>14425</title>
<path fill="#eca36e" stroke="black" d="M968.5,-296.5C968.5,-296.5 826.5,-296.5 826.5,-296.5 820.5,-296.5 814.5,-290.5 814.5,-284.5 814.5,-284.5 814.5,-214.25 814.5,-214.25 814.5,-208.25 820.5,-202.25 826.5,-202.25 826.5,-202.25 968.5,-202.25 968.5,-202.25 974.5,-202.25 980.5,-208.25 980.5,-214.25 980.5,-214.25 980.5,-284.5 980.5,-284.5 980.5,-290.5 974.5,-296.5 968.5,-296.5"/>
<text text-anchor="middle" x="897.5" y="-279.2" font-family="Helvetica,sans-Serif" font-size="14.00">8_A &lt;= 0.5</text>
<text text-anchor="middle" x="897.5" y="-261.95" font-family="Helvetica,sans-Serif" font-size="14.00">entropy = 0.746</text>
<text text-anchor="middle" x="897.5" y="-244.7" font-family="Helvetica,sans-Serif" font-size="14.00">samples = 3390</text>
<text text-anchor="middle" x="897.5" y="-227.45" font-family="Helvetica,sans-Serif" font-size="14.00">value = [4200, 1131]</text>
<text text-anchor="middle" x="897.5" y="-210.2" font-family="Helvetica,sans-Serif" font-size="14.00">class = Animal</text>
</g>
<!-- 14424&#45;&gt;14425 -->
<g id="edge17" class="edge">
<title>14424&#45;&gt;14425</title>
<path fill="none" stroke="black" d="M897.5,-332.32C897.5,-324.42 897.5,-316.13 897.5,-307.98"/>
<polygon fill="black" stroke="black" points="901,-308.12 897.5,-298.12 894,-308.12 901,-308.12"/>
</g>
<!-- 15834 -->
<g id="node25" class="node">
<title>15834</title>
<path fill="#e89253" stroke="black" d="M1225,-296.5C1225,-296.5 1092,-296.5 1092,-296.5 1086,-296.5 1080,-290.5 1080,-284.5 1080,-284.5 1080,-214.25 1080,-214.25 1080,-208.25 1086,-202.25 1092,-202.25 1092,-202.25 1225,-202.25 1225,-202.25 1231,-202.25 1237,-208.25 1237,-214.25 1237,-214.25 1237,-284.5 1237,-284.5 1237,-290.5 1231,-296.5 1225,-296.5"/>
<text text-anchor="middle" x="1158.5" y="-279.2" font-family="Helvetica,sans-Serif" font-size="14.00">13_G &lt;= 0.5</text>
<text text-anchor="middle" x="1158.5" y="-261.95" font-family="Helvetica,sans-Serif" font-size="14.00">entropy = 0.519</text>
<text text-anchor="middle" x="1158.5" y="-244.7" font-family="Helvetica,sans-Serif" font-size="14.00">samples = 1634</text>
<text text-anchor="middle" x="1158.5" y="-227.45" font-family="Helvetica,sans-Serif" font-size="14.00">value = [2271, 299]</text>
<text text-anchor="middle" x="1158.5" y="-210.2" font-family="Helvetica,sans-Serif" font-size="14.00">class = Animal</text>
</g>
<!-- 14424&#45;&gt;15834 -->
<g id="edge24" class="edge">
<title>14424&#45;&gt;15834</title>
<path fill="none" stroke="black" d="M980.8,-337.69C1009.09,-323.79 1040.8,-308.21 1069.52,-294.1"/>
<polygon fill="black" stroke="black" points="1070.75,-297.39 1078.19,-289.84 1067.67,-291.11 1070.75,-297.39"/>
</g>
<!-- 14426 -->
<g id="node19" class="node">
<title>14426</title>
<path fill="#ea9b62" stroke="black" d="M883,-166.25C883,-166.25 750,-166.25 750,-166.25 744,-166.25 738,-160.25 738,-154.25 738,-154.25 738,-84 738,-84 738,-78 744,-72 750,-72 750,-72 883,-72 883,-72 889,-72 895,-78 895,-84 895,-84 895,-154.25 895,-154.25 895,-160.25 889,-166.25 883,-166.25"/>
<text text-anchor="middle" x="816.5" y="-148.95" font-family="Helvetica,sans-Serif" font-size="14.00">3_A &lt;= 0.5</text>
<text text-anchor="middle" x="816.5" y="-131.7" font-family="Helvetica,sans-Serif" font-size="14.00">entropy = 0.66</text>
<text text-anchor="middle" x="816.5" y="-114.45" font-family="Helvetica,sans-Serif" font-size="14.00">samples = 2464</text>
<text text-anchor="middle" x="816.5" y="-97.2" font-family="Helvetica,sans-Serif" font-size="14.00">value = [3228, 666]</text>
<text text-anchor="middle" x="816.5" y="-79.95" font-family="Helvetica,sans-Serif" font-size="14.00">class = Animal</text>
</g>
<!-- 14425&#45;&gt;14426 -->
<g id="edge18" class="edge">
<title>14425&#45;&gt;14426</title>
<path fill="none" stroke="black" d="M868.26,-202.07C862.92,-193.63 857.31,-184.74 851.82,-176.05"/>
<polygon fill="black" stroke="black" points="854.81,-174.22 846.51,-167.64 848.89,-177.96 854.81,-174.22"/>
</g>
<!-- 15409 -->
<g id="node22" class="node">
<title>15409</title>
<path fill="#f1bd98" stroke="black" d="M1049.5,-166.25C1049.5,-166.25 925.5,-166.25 925.5,-166.25 919.5,-166.25 913.5,-160.25 913.5,-154.25 913.5,-154.25 913.5,-84 913.5,-84 913.5,-78 919.5,-72 925.5,-72 925.5,-72 1049.5,-72 1049.5,-72 1055.5,-72 1061.5,-78 1061.5,-84 1061.5,-84 1061.5,-154.25 1061.5,-154.25 1061.5,-160.25 1055.5,-166.25 1049.5,-166.25"/>
<text text-anchor="middle" x="987.5" y="-148.95" font-family="Helvetica,sans-Serif" font-size="14.00">9_G &lt;= 0.5</text>
<text text-anchor="middle" x="987.5" y="-131.7" font-family="Helvetica,sans-Serif" font-size="14.00">entropy = 0.908</text>
<text text-anchor="middle" x="987.5" y="-114.45" font-family="Helvetica,sans-Serif" font-size="14.00">samples = 926</text>
<text text-anchor="middle" x="987.5" y="-97.2" font-family="Helvetica,sans-Serif" font-size="14.00">value = [972, 465]</text>
<text text-anchor="middle" x="987.5" y="-79.95" font-family="Helvetica,sans-Serif" font-size="14.00">class = Animal</text>
</g>
<!-- 14425&#45;&gt;15409 -->
<g id="edge21" class="edge">
<title>14425&#45;&gt;15409</title>
<path fill="none" stroke="black" d="M929.99,-202.07C935.98,-193.54 942.29,-184.54 948.45,-175.77"/>
<polygon fill="black" stroke="black" points="951.31,-177.79 954.19,-167.6 945.58,-173.77 951.31,-177.79"/>
</g>
<!-- 14427 -->
<g id="node20" class="node">
<title>14427</title>
<path fill="#c0c0c0" stroke="black" d="M772.5,-36C772.5,-36 742.5,-36 742.5,-36 736.5,-36 730.5,-30 730.5,-24 730.5,-24 730.5,-12 730.5,-12 730.5,-6 736.5,0 742.5,0 742.5,0 772.5,0 772.5,0 778.5,0 784.5,-6 784.5,-12 784.5,-12 784.5,-24 784.5,-24 784.5,-30 778.5,-36 772.5,-36"/>
<text text-anchor="middle" x="757.5" y="-13.32" font-family="Helvetica,sans-Serif" font-size="14.00">(...)</text>
</g>
<!-- 14426&#45;&gt;14427 -->
<g id="edge19" class="edge">
<title>14426&#45;&gt;14427</title>
<path fill="none" stroke="black" d="M788.9,-71.75C783.65,-62.93 778.31,-53.96 773.56,-45.99"/>
<polygon fill="black" stroke="black" points="776.62,-44.28 768.5,-37.47 770.6,-47.86 776.62,-44.28"/>
</g>
<!-- 15154 -->
<g id="node21" class="node">
<title>15154</title>
<path fill="#c0c0c0" stroke="black" d="M844.5,-36C844.5,-36 814.5,-36 814.5,-36 808.5,-36 802.5,-30 802.5,-24 802.5,-24 802.5,-12 802.5,-12 802.5,-6 808.5,0 814.5,0 814.5,0 844.5,0 844.5,0 850.5,0 856.5,-6 856.5,-12 856.5,-12 856.5,-24 856.5,-24 856.5,-30 850.5,-36 844.5,-36"/>
<text text-anchor="middle" x="829.5" y="-13.32" font-family="Helvetica,sans-Serif" font-size="14.00">(...)</text>
</g>
<!-- 14426&#45;&gt;15154 -->
<g id="edge20" class="edge">
<title>14426&#45;&gt;15154</title>
<path fill="none" stroke="black" d="M822.58,-71.75C823.67,-63.42 824.78,-54.97 825.78,-47.34"/>
<polygon fill="black" stroke="black" points="829.22,-48.04 827.05,-37.67 822.28,-47.13 829.22,-48.04"/>
</g>
<!-- 15410 -->
<g id="node23" class="node">
<title>15410</title>
<path fill="#c0c0c0" stroke="black" d="M943.5,-36C943.5,-36 913.5,-36 913.5,-36 907.5,-36 901.5,-30 901.5,-24 901.5,-24 901.5,-12 901.5,-12 901.5,-6 907.5,0 913.5,0 913.5,0 943.5,0 943.5,0 949.5,0 955.5,-6 955.5,-12 955.5,-12 955.5,-24 955.5,-24 955.5,-30 949.5,-36 943.5,-36"/>
<text text-anchor="middle" x="928.5" y="-13.32" font-family="Helvetica,sans-Serif" font-size="14.00">(...)</text>
</g>
<!-- 15409&#45;&gt;15410 -->
<g id="edge22" class="edge">
<title>15409&#45;&gt;15410</title>
<path fill="none" stroke="black" d="M959.9,-71.75C954.65,-62.93 949.31,-53.96 944.56,-45.99"/>
<polygon fill="black" stroke="black" points="947.62,-44.28 939.5,-37.47 941.6,-47.86 947.62,-44.28"/>
</g>
<!-- 15709 -->
<g id="node24" class="node">
<title>15709</title>
<path fill="#c0c0c0" stroke="black" d="M1015.5,-36C1015.5,-36 985.5,-36 985.5,-36 979.5,-36 973.5,-30 973.5,-24 973.5,-24 973.5,-12 973.5,-12 973.5,-6 979.5,0 985.5,0 985.5,0 1015.5,0 1015.5,0 1021.5,0 1027.5,-6 1027.5,-12 1027.5,-12 1027.5,-24 1027.5,-24 1027.5,-30 1021.5,-36 1015.5,-36"/>
<text text-anchor="middle" x="1000.5" y="-13.32" font-family="Helvetica,sans-Serif" font-size="14.00">(...)</text>
</g>
<!-- 15409&#45;&gt;15709 -->
<g id="edge23" class="edge">
<title>15409&#45;&gt;15709</title>
<path fill="none" stroke="black" d="M993.58,-71.75C994.67,-63.42 995.78,-54.97 996.78,-47.34"/>
<polygon fill="black" stroke="black" points="1000.22,-48.04 998.05,-37.67 993.28,-47.13 1000.22,-48.04"/>
</g>
<!-- 15835 -->
<g id="node26" class="node">
<title>15835</title>
<path fill="#e88e4d" stroke="black" d="M1225,-166.25C1225,-166.25 1092,-166.25 1092,-166.25 1086,-166.25 1080,-160.25 1080,-154.25 1080,-154.25 1080,-84 1080,-84 1080,-78 1086,-72 1092,-72 1092,-72 1225,-72 1225,-72 1231,-72 1237,-78 1237,-84 1237,-84 1237,-154.25 1237,-154.25 1237,-160.25 1231,-166.25 1225,-166.25"/>
<text text-anchor="middle" x="1158.5" y="-148.95" font-family="Helvetica,sans-Serif" font-size="14.00">12_G &lt;= 0.5</text>
<text text-anchor="middle" x="1158.5" y="-131.7" font-family="Helvetica,sans-Serif" font-size="14.00">entropy = 0.438</text>
<text text-anchor="middle" x="1158.5" y="-114.45" font-family="Helvetica,sans-Serif" font-size="14.00">samples = 1169</text>
<text text-anchor="middle" x="1158.5" y="-97.2" font-family="Helvetica,sans-Serif" font-size="14.00">value = [1672, 166]</text>
<text text-anchor="middle" x="1158.5" y="-79.95" font-family="Helvetica,sans-Serif" font-size="14.00">class = Animal</text>
</g>
<!-- 15834&#45;&gt;15835 -->
<g id="edge25" class="edge">
<title>15834&#45;&gt;15835</title>
<path fill="none" stroke="black" d="M1158.5,-202.07C1158.5,-194.17 1158.5,-185.88 1158.5,-177.73"/>
<polygon fill="black" stroke="black" points="1162,-177.87 1158.5,-167.87 1155,-177.87 1162,-177.87"/>
</g>
<!-- 16160 -->
<g id="node29" class="node">
<title>16160</title>
<path fill="#eb9d65" stroke="black" d="M1391.5,-166.25C1391.5,-166.25 1267.5,-166.25 1267.5,-166.25 1261.5,-166.25 1255.5,-160.25 1255.5,-154.25 1255.5,-154.25 1255.5,-84 1255.5,-84 1255.5,-78 1261.5,-72 1267.5,-72 1267.5,-72 1391.5,-72 1391.5,-72 1397.5,-72 1403.5,-78 1403.5,-84 1403.5,-84 1403.5,-154.25 1403.5,-154.25 1403.5,-160.25 1397.5,-166.25 1391.5,-166.25"/>
<text text-anchor="middle" x="1329.5" y="-148.95" font-family="Helvetica,sans-Serif" font-size="14.00">2_G &lt;= 0.5</text>
<text text-anchor="middle" x="1329.5" y="-131.7" font-family="Helvetica,sans-Serif" font-size="14.00">entropy = 0.684</text>
<text text-anchor="middle" x="1329.5" y="-114.45" font-family="Helvetica,sans-Serif" font-size="14.00">samples = 465</text>
<text text-anchor="middle" x="1329.5" y="-97.2" font-family="Helvetica,sans-Serif" font-size="14.00">value = [599, 133]</text>
<text text-anchor="middle" x="1329.5" y="-79.95" font-family="Helvetica,sans-Serif" font-size="14.00">class = Animal</text>
</g>
<!-- 15834&#45;&gt;16160 -->
<g id="edge28" class="edge">
<title>15834&#45;&gt;16160</title>
<path fill="none" stroke="black" d="M1220.23,-202.07C1232.63,-192.78 1245.75,-182.94 1258.43,-173.43"/>
<polygon fill="black" stroke="black" points="1260.46,-176.28 1266.36,-167.48 1256.26,-170.68 1260.46,-176.28"/>
</g>
<!-- 15836 -->
<g id="node27" class="node">
<title>15836</title>
<path fill="#c0c0c0" stroke="black" d="M1132.5,-36C1132.5,-36 1102.5,-36 1102.5,-36 1096.5,-36 1090.5,-30 1090.5,-24 1090.5,-24 1090.5,-12 1090.5,-12 1090.5,-6 1096.5,0 1102.5,0 1102.5,0 1132.5,0 1132.5,0 1138.5,0 1144.5,-6 1144.5,-12 1144.5,-12 1144.5,-24 1144.5,-24 1144.5,-30 1138.5,-36 1132.5,-36"/>
<text text-anchor="middle" x="1117.5" y="-13.32" font-family="Helvetica,sans-Serif" font-size="14.00">(...)</text>
</g>
<!-- 15835&#45;&gt;15836 -->
<g id="edge26" class="edge">
<title>15835&#45;&gt;15836</title>
<path fill="none" stroke="black" d="M1139.32,-71.75C1135.79,-63.22 1132.21,-54.57 1129,-46.8"/>
<polygon fill="black" stroke="black" points="1132.24,-45.47 1125.18,-37.57 1125.77,-48.15 1132.24,-45.47"/>
</g>
<!-- 16067 -->
<g id="node28" class="node">
<title>16067</title>
<path fill="#c0c0c0" stroke="black" d="M1204.5,-36C1204.5,-36 1174.5,-36 1174.5,-36 1168.5,-36 1162.5,-30 1162.5,-24 1162.5,-24 1162.5,-12 1162.5,-12 1162.5,-6 1168.5,0 1174.5,0 1174.5,0 1204.5,0 1204.5,0 1210.5,0 1216.5,-6 1216.5,-12 1216.5,-12 1216.5,-24 1216.5,-24 1216.5,-30 1210.5,-36 1204.5,-36"/>
<text text-anchor="middle" x="1189.5" y="-13.32" font-family="Helvetica,sans-Serif" font-size="14.00">(...)</text>
</g>
<!-- 15835&#45;&gt;16067 -->
<g id="edge27" class="edge">
<title>15835&#45;&gt;16067</title>
<path fill="none" stroke="black" d="M1173,-71.75C1175.64,-63.32 1178.31,-54.77 1180.72,-47.07"/>
<polygon fill="black" stroke="black" points="1184.03,-48.21 1183.68,-37.62 1177.35,-46.12 1184.03,-48.21"/>
</g>
<!-- 16161 -->
<g id="node30" class="node">
<title>16161</title>
<path fill="#c0c0c0" stroke="black" d="M1308.5,-36C1308.5,-36 1278.5,-36 1278.5,-36 1272.5,-36 1266.5,-30 1266.5,-24 1266.5,-24 1266.5,-12 1266.5,-12 1266.5,-6 1272.5,0 1278.5,0 1278.5,0 1308.5,0 1308.5,0 1314.5,0 1320.5,-6 1320.5,-12 1320.5,-12 1320.5,-24 1320.5,-24 1320.5,-30 1314.5,-36 1308.5,-36"/>
<text text-anchor="middle" x="1293.5" y="-13.32" font-family="Helvetica,sans-Serif" font-size="14.00">(...)</text>
</g>
<!-- 16160&#45;&gt;16161 -->
<g id="edge29" class="edge">
<title>16160&#45;&gt;16161</title>
<path fill="none" stroke="black" d="M1312.66,-71.75C1309.56,-63.22 1306.42,-54.57 1303.6,-46.8"/>
<polygon fill="black" stroke="black" points="1306.96,-45.8 1300.25,-37.6 1300.38,-48.19 1306.96,-45.8"/>
</g>
<!-- 16288 -->
<g id="node31" class="node">
<title>16288</title>
<path fill="#c0c0c0" stroke="black" d="M1380.5,-36C1380.5,-36 1350.5,-36 1350.5,-36 1344.5,-36 1338.5,-30 1338.5,-24 1338.5,-24 1338.5,-12 1338.5,-12 1338.5,-6 1344.5,0 1350.5,0 1350.5,0 1380.5,0 1380.5,0 1386.5,0 1392.5,-6 1392.5,-12 1392.5,-12 1392.5,-24 1392.5,-24 1392.5,-30 1386.5,-36 1380.5,-36"/>
<text text-anchor="middle" x="1365.5" y="-13.32" font-family="Helvetica,sans-Serif" font-size="14.00">(...)</text>
</g>
<!-- 16160&#45;&gt;16288 -->
<g id="edge30" class="edge">
<title>16160&#45;&gt;16288</title>
<path fill="none" stroke="black" d="M1346.34,-71.75C1349.44,-63.22 1352.58,-54.57 1355.4,-46.8"/>
<polygon fill="black" stroke="black" points="1358.62,-48.19 1358.75,-37.6 1352.04,-45.8 1358.62,-48.19"/>
</g>
</g>
</svg>
