<?xml version="1.0" encoding="UTF-8" standalone="no"?>
<!DOCTYPE svg PUBLIC "-//W3C//DTD SVG 1.1//EN"
 "http://www.w3.org/Graphics/SVG/1.1/DTD/svg11.dtd">
<!-- Generated by graphviz version 12.0.0 (20240803.0821)
 -->
<!-- Title: Tree Pages: 1 -->
<svg width="1446pt" height="565pt"
 viewBox="0.00 0.00 1446.00 565.00" xmlns="http://www.w3.org/2000/svg" xmlns:xlink="http://www.w3.org/1999/xlink">
<g id="graph0" class="graph" transform="scale(1 1) rotate(0) translate(4 561)">
<title>Tree</title>
<polygon fill="white" stroke="none" points="-4,4 -4,-561 1442,-561 1442,4 -4,4"/>
<!-- 0 -->
<g id="node1" class="node">
<title>0</title>
<path fill="#fdfeff" stroke="black" d="M785.5,-557C785.5,-557 625.5,-557 625.5,-557 619.5,-557 613.5,-551 613.5,-545 613.5,-545 613.5,-474.75 613.5,-474.75 613.5,-468.75 619.5,-462.75 625.5,-462.75 625.5,-462.75 785.5,-462.75 785.5,-462.75 791.5,-462.75 797.5,-468.75 797.5,-474.75 797.5,-474.75 797.5,-545 797.5,-545 797.5,-551 791.5,-557 785.5,-557"/>
<text text-anchor="middle" x="705.5" y="-539.7" font-family="Helvetica,sans-Serif" font-size="14.00">1_U &lt;= 0.5</text>
<text text-anchor="middle" x="705.5" y="-522.45" font-family="Helvetica,sans-Serif" font-size="14.00">entropy = 1.0</text>
<text text-anchor="middle" x="705.5" y="-505.2" font-family="Helvetica,sans-Serif" font-size="14.00">samples = 38137</text>
<text text-anchor="middle" x="705.5" y="-487.95" font-family="Helvetica,sans-Serif" font-size="14.00">value = [30043, 30302]</text>
<text text-anchor="middle" x="705.5" y="-470.7" font-family="Helvetica,sans-Serif" font-size="14.00">class = Plant</text>
</g>
<!-- 1 -->
<g id="node2" class="node">
<title>1</title>
<path fill="#f7dbc6" stroke="black" d="M612.5,-426.75C612.5,-426.75 452.5,-426.75 452.5,-426.75 446.5,-426.75 440.5,-420.75 440.5,-414.75 440.5,-414.75 440.5,-344.5 440.5,-344.5 440.5,-338.5 446.5,-332.5 452.5,-332.5 452.5,-332.5 612.5,-332.5 612.5,-332.5 618.5,-332.5 624.5,-338.5 624.5,-344.5 624.5,-344.5 624.5,-414.75 624.5,-414.75 624.5,-420.75 618.5,-426.75 612.5,-426.75"/>
<text text-anchor="middle" x="532.5" y="-409.45" font-family="Helvetica,sans-Serif" font-size="14.00">9_G &lt;= 0.5</text>
<text text-anchor="middle" x="532.5" y="-392.2" font-family="Helvetica,sans-Serif" font-size="14.00">entropy = 0.979</text>
<text text-anchor="middle" x="532.5" y="-374.95" font-family="Helvetica,sans-Serif" font-size="14.00">samples = 17785</text>
<text text-anchor="middle" x="532.5" y="-357.7" font-family="Helvetica,sans-Serif" font-size="14.00">value = [16394, 11664]</text>
<text text-anchor="middle" x="532.5" y="-340.45" font-family="Helvetica,sans-Serif" font-size="14.00">class = Animal</text>
</g>
<!-- 0&#45;&gt;1 -->
<g id="edge1" class="edge">
<title>0&#45;&gt;1</title>
<path fill="none" stroke="black" d="M643.04,-462.57C630.5,-453.28 617.23,-443.44 604.4,-433.93"/>
<polygon fill="black" stroke="black" points="606.49,-431.12 596.37,-427.97 602.32,-436.74 606.49,-431.12"/>
<text text-anchor="middle" x="598.83" y="-447.13" font-family="Helvetica,sans-Serif" font-size="14.00">True</text>
</g>
<!-- 9658 -->
<g id="node17" class="node">
<title>9658</title>
<path fill="#cae5f8" stroke="black" d="M976.5,-426.75C976.5,-426.75 816.5,-426.75 816.5,-426.75 810.5,-426.75 804.5,-420.75 804.5,-414.75 804.5,-414.75 804.5,-344.5 804.5,-344.5 804.5,-338.5 810.5,-332.5 816.5,-332.5 816.5,-332.5 976.5,-332.5 976.5,-332.5 982.5,-332.5 988.5,-338.5 988.5,-344.5 988.5,-344.5 988.5,-414.75 988.5,-414.75 988.5,-420.75 982.5,-426.75 976.5,-426.75"/>
<text text-anchor="middle" x="896.5" y="-409.45" font-family="Helvetica,sans-Serif" font-size="14.00">9_G &lt;= 0.5</text>
<text text-anchor="middle" x="896.5" y="-392.2" font-family="Helvetica,sans-Serif" font-size="14.00">entropy = 0.983</text>
<text text-anchor="middle" x="896.5" y="-374.95" font-family="Helvetica,sans-Serif" font-size="14.00">samples = 20352</text>
<text text-anchor="middle" x="896.5" y="-357.7" font-family="Helvetica,sans-Serif" font-size="14.00">value = [13649, 18638]</text>
<text text-anchor="middle" x="896.5" y="-340.45" font-family="Helvetica,sans-Serif" font-size="14.00">class = Plant</text>
</g>
<!-- 0&#45;&gt;9658 -->
<g id="edge16" class="edge">
<title>0&#45;&gt;9658</title>
<path fill="none" stroke="black" d="M774.73,-462.39C788.74,-452.98 803.57,-443.03 817.88,-433.42"/>
<polygon fill="black" stroke="black" points="819.58,-436.49 825.93,-428.01 815.68,-430.68 819.58,-436.49"/>
<text text-anchor="middle" x="822.37" y="-447.02" font-family="Helvetica,sans-Serif" font-size="14.00">False</text>
</g>
<!-- 2 -->
<g id="node3" class="node">
<title>2</title>
<path fill="#f5d0b6" stroke="black" d="M347,-296.5C347,-296.5 196,-296.5 196,-296.5 190,-296.5 184,-290.5 184,-284.5 184,-284.5 184,-214.25 184,-214.25 184,-208.25 190,-202.25 196,-202.25 196,-202.25 347,-202.25 347,-202.25 353,-202.25 359,-208.25 359,-214.25 359,-214.25 359,-284.5 359,-284.5 359,-290.5 353,-296.5 347,-296.5"/>
<text text-anchor="middle" x="271.5" y="-279.2" font-family="Helvetica,sans-Serif" font-size="14.00">22_C &lt;= 0.5</text>
<text text-anchor="middle" x="271.5" y="-261.95" font-family="Helvetica,sans-Serif" font-size="14.00">entropy = 0.963</text>
<text text-anchor="middle" x="271.5" y="-244.7" font-family="Helvetica,sans-Serif" font-size="14.00">samples = 12885</text>
<text text-anchor="middle" x="271.5" y="-227.45" font-family="Helvetica,sans-Serif" font-size="14.00">value = [12483, 7872]</text>
<text text-anchor="middle" x="271.5" y="-210.2" font-family="Helvetica,sans-Serif" font-size="14.00">class = Animal</text>
</g>
<!-- 1&#45;&gt;2 -->
<g id="edge2" class="edge">
<title>1&#45;&gt;2</title>
<path fill="none" stroke="black" d="M440.11,-333.23C417.25,-321.99 392.67,-309.92 369.55,-298.55"/>
<polygon fill="black" stroke="black" points="371.26,-295.5 360.74,-294.23 368.18,-301.78 371.26,-295.5"/>
</g>
<!-- 7271 -->
<g id="node10" class="node">
<title>7271</title>
<path fill="#fefbf9" stroke="black" d="M603.5,-296.5C603.5,-296.5 461.5,-296.5 461.5,-296.5 455.5,-296.5 449.5,-290.5 449.5,-284.5 449.5,-284.5 449.5,-214.25 449.5,-214.25 449.5,-208.25 455.5,-202.25 461.5,-202.25 461.5,-202.25 603.5,-202.25 603.5,-202.25 609.5,-202.25 615.5,-208.25 615.5,-214.25 615.5,-214.25 615.5,-284.5 615.5,-284.5 615.5,-290.5 609.5,-296.5 603.5,-296.5"/>
<text text-anchor="middle" x="532.5" y="-279.2" font-family="Helvetica,sans-Serif" font-size="14.00">22_U &lt;= 0.5</text>
<text text-anchor="middle" x="532.5" y="-261.95" font-family="Helvetica,sans-Serif" font-size="14.00">entropy = 1.0</text>
<text text-anchor="middle" x="532.5" y="-244.7" font-family="Helvetica,sans-Serif" font-size="14.00">samples = 4900</text>
<text text-anchor="middle" x="532.5" y="-227.45" font-family="Helvetica,sans-Serif" font-size="14.00">value = [3911, 3792]</text>
<text text-anchor="middle" x="532.5" y="-210.2" font-family="Helvetica,sans-Serif" font-size="14.00">class = Animal</text>
</g>
<!-- 1&#45;&gt;7271 -->
<g id="edge9" class="edge">
<title>1&#45;&gt;7271</title>
<path fill="none" stroke="black" d="M532.5,-332.32C532.5,-324.42 532.5,-316.13 532.5,-307.98"/>
<polygon fill="black" stroke="black" points="536,-308.12 532.5,-298.12 529,-308.12 536,-308.12"/>
</g>
<!-- 3 -->
<g id="node4" class="node">
<title>3</title>
<path fill="#f7d8c1" stroke="black" d="M163,-166.25C163,-166.25 12,-166.25 12,-166.25 6,-166.25 0,-160.25 0,-154.25 0,-154.25 0,-84 0,-84 0,-78 6,-72 12,-72 12,-72 163,-72 163,-72 169,-72 175,-78 175,-84 175,-84 175,-154.25 175,-154.25 175,-160.25 169,-166.25 163,-166.25"/>
<text text-anchor="middle" x="87.5" y="-148.95" font-family="Helvetica,sans-Serif" font-size="14.00">17_A &lt;= 0.5</text>
<text text-anchor="middle" x="87.5" y="-131.7" font-family="Helvetica,sans-Serif" font-size="14.00">entropy = 0.975</text>
<text text-anchor="middle" x="87.5" y="-114.45" font-family="Helvetica,sans-Serif" font-size="14.00">samples = 11348</text>
<text text-anchor="middle" x="87.5" y="-97.2" font-family="Helvetica,sans-Serif" font-size="14.00">value = [10624, 7316]</text>
<text text-anchor="middle" x="87.5" y="-79.95" font-family="Helvetica,sans-Serif" font-size="14.00">class = Animal</text>
</g>
<!-- 2&#45;&gt;3 -->
<g id="edge3" class="edge">
<title>2&#45;&gt;3</title>
<path fill="none" stroke="black" d="M204.81,-201.89C191.44,-192.57 177.3,-182.72 163.64,-173.19"/>
<polygon fill="black" stroke="black" points="165.72,-170.38 155.51,-167.53 161.71,-176.12 165.72,-170.38"/>
</g>
<!-- 6494 -->
<g id="node7" class="node">
<title>6494</title>
<path fill="#eda774" stroke="black" d="M338,-166.25C338,-166.25 205,-166.25 205,-166.25 199,-166.25 193,-160.25 193,-154.25 193,-154.25 193,-84 193,-84 193,-78 199,-72 205,-72 205,-72 338,-72 338,-72 344,-72 350,-78 350,-84 350,-84 350,-154.25 350,-154.25 350,-160.25 344,-166.25 338,-166.25"/>
<text text-anchor="middle" x="271.5" y="-148.95" font-family="Helvetica,sans-Serif" font-size="14.00">24_G &lt;= 0.5</text>
<text text-anchor="middle" x="271.5" y="-131.7" font-family="Helvetica,sans-Serif" font-size="14.00">entropy = 0.778</text>
<text text-anchor="middle" x="271.5" y="-114.45" font-family="Helvetica,sans-Serif" font-size="14.00">samples = 1537</text>
<text text-anchor="middle" x="271.5" y="-97.2" font-family="Helvetica,sans-Serif" font-size="14.00">value = [1859, 556]</text>
<text text-anchor="middle" x="271.5" y="-79.95" font-family="Helvetica,sans-Serif" font-size="14.00">class = Animal</text>
</g>
<!-- 2&#45;&gt;6494 -->
<g id="edge6" class="edge">
<title>2&#45;&gt;6494</title>
<path fill="none" stroke="black" d="M271.5,-202.07C271.5,-194.17 271.5,-185.88 271.5,-177.73"/>
<polygon fill="black" stroke="black" points="275,-177.87 271.5,-167.87 268,-177.87 275,-177.87"/>
</g>
<!-- 4 -->
<g id="node5" class="node">
<title>4</title>
<path fill="#c0c0c0" stroke="black" d="M66.5,-36C66.5,-36 36.5,-36 36.5,-36 30.5,-36 24.5,-30 24.5,-24 24.5,-24 24.5,-12 24.5,-12 24.5,-6 30.5,0 36.5,0 36.5,0 66.5,0 66.5,0 72.5,0 78.5,-6 78.5,-12 78.5,-12 78.5,-24 78.5,-24 78.5,-30 72.5,-36 66.5,-36"/>
<text text-anchor="middle" x="51.5" y="-13.32" font-family="Helvetica,sans-Serif" font-size="14.00">(...)</text>
</g>
<!-- 3&#45;&gt;4 -->
<g id="edge4" class="edge">
<title>3&#45;&gt;4</title>
<path fill="none" stroke="black" d="M70.66,-71.75C67.56,-63.22 64.42,-54.57 61.6,-46.8"/>
<polygon fill="black" stroke="black" points="64.96,-45.8 58.25,-37.6 58.38,-48.19 64.96,-45.8"/>
</g>
<!-- 5053 -->
<g id="node6" class="node">
<title>5053</title>
<path fill="#c0c0c0" stroke="black" d="M138.5,-36C138.5,-36 108.5,-36 108.5,-36 102.5,-36 96.5,-30 96.5,-24 96.5,-24 96.5,-12 96.5,-12 96.5,-6 102.5,0 108.5,0 108.5,0 138.5,0 138.5,0 144.5,0 150.5,-6 150.5,-12 150.5,-12 150.5,-24 150.5,-24 150.5,-30 144.5,-36 138.5,-36"/>
<text text-anchor="middle" x="123.5" y="-13.32" font-family="Helvetica,sans-Serif" font-size="14.00">(...)</text>
</g>
<!-- 3&#45;&gt;5053 -->
<g id="edge5" class="edge">
<title>3&#45;&gt;5053</title>
<path fill="none" stroke="black" d="M104.34,-71.75C107.44,-63.22 110.58,-54.57 113.4,-46.8"/>
<polygon fill="black" stroke="black" points="116.62,-48.19 116.75,-37.6 110.04,-45.8 116.62,-48.19"/>
</g>
<!-- 6495 -->
<g id="node8" class="node">
<title>6495</title>
<path fill="#c0c0c0" stroke="black" d="M247.5,-36C247.5,-36 217.5,-36 217.5,-36 211.5,-36 205.5,-30 205.5,-24 205.5,-24 205.5,-12 205.5,-12 205.5,-6 211.5,0 217.5,0 217.5,0 247.5,0 247.5,0 253.5,0 259.5,-6 259.5,-12 259.5,-12 259.5,-24 259.5,-24 259.5,-30 253.5,-36 247.5,-36"/>
<text text-anchor="middle" x="232.5" y="-13.32" font-family="Helvetica,sans-Serif" font-size="14.00">(...)</text>
</g>
<!-- 6494&#45;&gt;6495 -->
<g id="edge7" class="edge">
<title>6494&#45;&gt;6495</title>
<path fill="none" stroke="black" d="M253.26,-71.75C249.9,-63.22 246.49,-54.57 243.44,-46.8"/>
<polygon fill="black" stroke="black" points="246.73,-45.61 239.81,-37.58 240.21,-48.17 246.73,-45.61"/>
</g>
<!-- 7212 -->
<g id="node9" class="node">
<title>7212</title>
<path fill="#c0c0c0" stroke="black" d="M319.5,-36C319.5,-36 289.5,-36 289.5,-36 283.5,-36 277.5,-30 277.5,-24 277.5,-24 277.5,-12 277.5,-12 277.5,-6 283.5,0 289.5,0 289.5,0 319.5,0 319.5,0 325.5,0 331.5,-6 331.5,-12 331.5,-12 331.5,-24 331.5,-24 331.5,-30 325.5,-36 319.5,-36"/>
<text text-anchor="middle" x="304.5" y="-13.32" font-family="Helvetica,sans-Serif" font-size="14.00">(...)</text>
</g>
<!-- 6494&#45;&gt;7212 -->
<g id="edge8" class="edge">
<title>6494&#45;&gt;7212</title>
<path fill="none" stroke="black" d="M286.94,-71.75C289.74,-63.32 292.59,-54.77 295.16,-47.07"/>
<polygon fill="black" stroke="black" points="298.47,-48.2 298.3,-37.61 291.83,-45.99 298.47,-48.2"/>
</g>
<!-- 7272 -->
<g id="node11" class="node">
<title>7272</title>
<path fill="#ecf6fd" stroke="black" d="M522.5,-166.25C522.5,-166.25 380.5,-166.25 380.5,-166.25 374.5,-166.25 368.5,-160.25 368.5,-154.25 368.5,-154.25 368.5,-84 368.5,-84 368.5,-78 374.5,-72 380.5,-72 380.5,-72 522.5,-72 522.5,-72 528.5,-72 534.5,-78 534.5,-84 534.5,-84 534.5,-154.25 534.5,-154.25 534.5,-160.25 528.5,-166.25 522.5,-166.25"/>
<text text-anchor="middle" x="451.5" y="-148.95" font-family="Helvetica,sans-Serif" font-size="14.00">19_C &lt;= 0.5</text>
<text text-anchor="middle" x="451.5" y="-131.7" font-family="Helvetica,sans-Serif" font-size="14.00">entropy = 0.998</text>
<text text-anchor="middle" x="451.5" y="-114.45" font-family="Helvetica,sans-Serif" font-size="14.00">samples = 4373</text>
<text text-anchor="middle" x="451.5" y="-97.2" font-family="Helvetica,sans-Serif" font-size="14.00">value = [3264, 3601]</text>
<text text-anchor="middle" x="451.5" y="-79.95" font-family="Helvetica,sans-Serif" font-size="14.00">class = Plant</text>
</g>
<!-- 7271&#45;&gt;7272 -->
<g id="edge10" class="edge">
<title>7271&#45;&gt;7272</title>
<path fill="none" stroke="black" d="M503.26,-202.07C497.92,-193.63 492.31,-184.74 486.82,-176.05"/>
<polygon fill="black" stroke="black" points="489.81,-174.22 481.51,-167.64 483.89,-177.96 489.81,-174.22"/>
</g>
<!-- 9385 -->
<g id="node14" class="node">
<title>9385</title>
<path fill="#eda673" stroke="black" d="M688.5,-166.25C688.5,-166.25 564.5,-166.25 564.5,-166.25 558.5,-166.25 552.5,-160.25 552.5,-154.25 552.5,-154.25 552.5,-84 552.5,-84 552.5,-78 558.5,-72 564.5,-72 564.5,-72 688.5,-72 688.5,-72 694.5,-72 700.5,-78 700.5,-84 700.5,-84 700.5,-154.25 700.5,-154.25 700.5,-160.25 694.5,-166.25 688.5,-166.25"/>
<text text-anchor="middle" x="626.5" y="-148.95" font-family="Helvetica,sans-Serif" font-size="14.00">1_C &lt;= 0.5</text>
<text text-anchor="middle" x="626.5" y="-131.7" font-family="Helvetica,sans-Serif" font-size="14.00">entropy = 0.774</text>
<text text-anchor="middle" x="626.5" y="-114.45" font-family="Helvetica,sans-Serif" font-size="14.00">samples = 527</text>
<text text-anchor="middle" x="626.5" y="-97.2" font-family="Helvetica,sans-Serif" font-size="14.00">value = [647, 191]</text>
<text text-anchor="middle" x="626.5" y="-79.95" font-family="Helvetica,sans-Serif" font-size="14.00">class = Animal</text>
</g>
<!-- 7271&#45;&gt;9385 -->
<g id="edge13" class="edge">
<title>7271&#45;&gt;9385</title>
<path fill="none" stroke="black" d="M566.44,-202.07C572.76,-193.45 579.42,-184.35 585.92,-175.49"/>
<polygon fill="black" stroke="black" points="588.63,-177.71 591.72,-167.58 582.98,-173.58 588.63,-177.71"/>
</g>
<!-- 7273 -->
<g id="node12" class="node">
<title>7273</title>
<path fill="#c0c0c0" stroke="black" d="M409.5,-36C409.5,-36 379.5,-36 379.5,-36 373.5,-36 367.5,-30 367.5,-24 367.5,-24 367.5,-12 367.5,-12 367.5,-6 373.5,0 379.5,0 379.5,0 409.5,0 409.5,0 415.5,0 421.5,-6 421.5,-12 421.5,-12 421.5,-24 421.5,-24 421.5,-30 415.5,-36 409.5,-36"/>
<text text-anchor="middle" x="394.5" y="-13.32" font-family="Helvetica,sans-Serif" font-size="14.00">(...)</text>
</g>
<!-- 7272&#45;&gt;7273 -->
<g id="edge11" class="edge">
<title>7272&#45;&gt;7273</title>
<path fill="none" stroke="black" d="M424.84,-71.75C419.76,-62.93 414.6,-53.96 410.02,-45.99"/>
<polygon fill="black" stroke="black" points="413.15,-44.41 405.13,-37.48 407.08,-47.9 413.15,-44.41"/>
</g>
<!-- 8896 -->
<g id="node13" class="node">
<title>8896</title>
<path fill="#c0c0c0" stroke="black" d="M481.5,-36C481.5,-36 451.5,-36 451.5,-36 445.5,-36 439.5,-30 439.5,-24 439.5,-24 439.5,-12 439.5,-12 439.5,-6 445.5,0 451.5,0 451.5,0 481.5,0 481.5,0 487.5,0 493.5,-6 493.5,-12 493.5,-12 493.5,-24 493.5,-24 493.5,-30 487.5,-36 481.5,-36"/>
<text text-anchor="middle" x="466.5" y="-13.32" font-family="Helvetica,sans-Serif" font-size="14.00">(...)</text>
</g>
<!-- 7272&#45;&gt;8896 -->
<g id="edge12" class="edge">
<title>7272&#45;&gt;8896</title>
<path fill="none" stroke="black" d="M458.52,-71.75C459.78,-63.42 461.06,-54.97 462.21,-47.34"/>
<polygon fill="black" stroke="black" points="465.64,-48.08 463.67,-37.67 458.72,-47.03 465.64,-48.08"/>
</g>
<!-- 9386 -->
<g id="node15" class="node">
<title>9386</title>
<path fill="#c0c0c0" stroke="black" d="M587.5,-36C587.5,-36 557.5,-36 557.5,-36 551.5,-36 545.5,-30 545.5,-24 545.5,-24 545.5,-12 545.5,-12 545.5,-6 551.5,0 557.5,0 557.5,0 587.5,0 587.5,0 593.5,0 599.5,-6 599.5,-12 599.5,-12 599.5,-24 599.5,-24 599.5,-30 593.5,-36 587.5,-36"/>
<text text-anchor="middle" x="572.5" y="-13.32" font-family="Helvetica,sans-Serif" font-size="14.00">(...)</text>
</g>
<!-- 9385&#45;&gt;9386 -->
<g id="edge14" class="edge">
<title>9385&#45;&gt;9386</title>
<path fill="none" stroke="black" d="M601.24,-71.75C596.48,-63.03 591.66,-54.16 587.35,-46.26"/>
<polygon fill="black" stroke="black" points="590.44,-44.61 582.58,-37.5 584.29,-47.96 590.44,-44.61"/>
</g>
<!-- 9541 -->
<g id="node16" class="node">
<title>9541</title>
<path fill="#c0c0c0" stroke="black" d="M659.5,-36C659.5,-36 629.5,-36 629.5,-36 623.5,-36 617.5,-30 617.5,-24 617.5,-24 617.5,-12 617.5,-12 617.5,-6 623.5,0 629.5,0 629.5,0 659.5,0 659.5,0 665.5,0 671.5,-6 671.5,-12 671.5,-12 671.5,-24 671.5,-24 671.5,-30 665.5,-36 659.5,-36"/>
<text text-anchor="middle" x="644.5" y="-13.32" font-family="Helvetica,sans-Serif" font-size="14.00">(...)</text>
</g>
<!-- 9385&#45;&gt;9541 -->
<g id="edge15" class="edge">
<title>9385&#45;&gt;9541</title>
<path fill="none" stroke="black" d="M634.92,-71.75C636.43,-63.42 637.97,-54.97 639.35,-47.34"/>
<polygon fill="black" stroke="black" points="642.77,-48.13 641.11,-37.66 635.88,-46.88 642.77,-48.13"/>
</g>
<!-- 9659 -->
<g id="node18" class="node">
<title>9659</title>
<path fill="#e7f3fc" stroke="black" d="M976.5,-296.5C976.5,-296.5 816.5,-296.5 816.5,-296.5 810.5,-296.5 804.5,-290.5 804.5,-284.5 804.5,-284.5 804.5,-214.25 804.5,-214.25 804.5,-208.25 810.5,-202.25 816.5,-202.25 816.5,-202.25 976.5,-202.25 976.5,-202.25 982.5,-202.25 988.5,-208.25 988.5,-214.25 988.5,-214.25 988.5,-284.5 988.5,-284.5 988.5,-290.5 982.5,-296.5 976.5,-296.5"/>
<text text-anchor="middle" x="896.5" y="-279.2" font-family="Helvetica,sans-Serif" font-size="14.00">2_A &lt;= 0.5</text>
<text text-anchor="middle" x="896.5" y="-261.95" font-family="Helvetica,sans-Serif" font-size="14.00">entropy = 0.997</text>
<text text-anchor="middle" x="896.5" y="-244.7" font-family="Helvetica,sans-Serif" font-size="14.00">samples = 14648</text>
<text text-anchor="middle" x="896.5" y="-227.45" font-family="Helvetica,sans-Serif" font-size="14.00">value = [10868, 12341]</text>
<text text-anchor="middle" x="896.5" y="-210.2" font-family="Helvetica,sans-Serif" font-size="14.00">class = Plant</text>
</g>
<!-- 9658&#45;&gt;9659 -->
<g id="edge17" class="edge">
<title>9658&#45;&gt;9659</title>
<path fill="none" stroke="black" d="M896.5,-332.32C896.5,-324.42 896.5,-316.13 896.5,-307.98"/>
<polygon fill="black" stroke="black" points="900,-308.12 896.5,-298.12 893,-308.12 900,-308.12"/>
</g>
<!-- 15072 -->
<g id="node25" class="node">
<title>15072</title>
<path fill="#90c8f0" stroke="black" d="M1250.5,-296.5C1250.5,-296.5 1108.5,-296.5 1108.5,-296.5 1102.5,-296.5 1096.5,-290.5 1096.5,-284.5 1096.5,-284.5 1096.5,-214.25 1096.5,-214.25 1096.5,-208.25 1102.5,-202.25 1108.5,-202.25 1108.5,-202.25 1250.5,-202.25 1250.5,-202.25 1256.5,-202.25 1262.5,-208.25 1262.5,-214.25 1262.5,-214.25 1262.5,-284.5 1262.5,-284.5 1262.5,-290.5 1256.5,-296.5 1250.5,-296.5"/>
<text text-anchor="middle" x="1179.5" y="-279.2" font-family="Helvetica,sans-Serif" font-size="14.00">20_C &lt;= 0.5</text>
<text text-anchor="middle" x="1179.5" y="-261.95" font-family="Helvetica,sans-Serif" font-size="14.00">entropy = 0.889</text>
<text text-anchor="middle" x="1179.5" y="-244.7" font-family="Helvetica,sans-Serif" font-size="14.00">samples = 5704</text>
<text text-anchor="middle" x="1179.5" y="-227.45" font-family="Helvetica,sans-Serif" font-size="14.00">value = [2781, 6297]</text>
<text text-anchor="middle" x="1179.5" y="-210.2" font-family="Helvetica,sans-Serif" font-size="14.00">class = Plant</text>
</g>
<!-- 9658&#45;&gt;15072 -->
<g id="edge24" class="edge">
<title>9658&#45;&gt;15072</title>
<path fill="none" stroke="black" d="M988.77,-336.81C1019.93,-322.69 1054.73,-306.92 1085.98,-292.76"/>
<polygon fill="black" stroke="black" points="1087.39,-295.96 1095.05,-288.65 1084.5,-289.59 1087.39,-295.96"/>
</g>
<!-- 9660 -->
<g id="node19" class="node">
<title>9660</title>
<path fill="#c1e0f7" stroke="black" d="M882,-166.25C882,-166.25 731,-166.25 731,-166.25 725,-166.25 719,-160.25 719,-154.25 719,-154.25 719,-84 719,-84 719,-78 725,-72 731,-72 731,-72 882,-72 882,-72 888,-72 894,-78 894,-84 894,-84 894,-154.25 894,-154.25 894,-160.25 888,-166.25 882,-166.25"/>
<text text-anchor="middle" x="806.5" y="-148.95" font-family="Helvetica,sans-Serif" font-size="14.00">4_A &lt;= 0.5</text>
<text text-anchor="middle" x="806.5" y="-131.7" font-family="Helvetica,sans-Serif" font-size="14.00">entropy = 0.975</text>
<text text-anchor="middle" x="806.5" y="-114.45" font-family="Helvetica,sans-Serif" font-size="14.00">samples = 11884</text>
<text text-anchor="middle" x="806.5" y="-97.2" font-family="Helvetica,sans-Serif" font-size="14.00">value = [7658, 11181]</text>
<text text-anchor="middle" x="806.5" y="-79.95" font-family="Helvetica,sans-Serif" font-size="14.00">class = Plant</text>
</g>
<!-- 9659&#45;&gt;9660 -->
<g id="edge18" class="edge">
<title>9659&#45;&gt;9660</title>
<path fill="none" stroke="black" d="M864.01,-202.07C858.02,-193.54 851.71,-184.54 845.55,-175.77"/>
<polygon fill="black" stroke="black" points="848.42,-173.77 839.81,-167.6 842.69,-177.79 848.42,-173.77"/>
</g>
<!-- 14055 -->
<g id="node22" class="node">
<title>14055</title>
<path fill="#eeaf81" stroke="black" d="M1066.5,-166.25C1066.5,-166.25 924.5,-166.25 924.5,-166.25 918.5,-166.25 912.5,-160.25 912.5,-154.25 912.5,-154.25 912.5,-84 912.5,-84 912.5,-78 918.5,-72 924.5,-72 924.5,-72 1066.5,-72 1066.5,-72 1072.5,-72 1078.5,-78 1078.5,-84 1078.5,-84 1078.5,-154.25 1078.5,-154.25 1078.5,-160.25 1072.5,-166.25 1066.5,-166.25"/>
<text text-anchor="middle" x="995.5" y="-148.95" font-family="Helvetica,sans-Serif" font-size="14.00">22_G &lt;= 0.5</text>
<text text-anchor="middle" x="995.5" y="-131.7" font-family="Helvetica,sans-Serif" font-size="14.00">entropy = 0.835</text>
<text text-anchor="middle" x="995.5" y="-114.45" font-family="Helvetica,sans-Serif" font-size="14.00">samples = 2764</text>
<text text-anchor="middle" x="995.5" y="-97.2" font-family="Helvetica,sans-Serif" font-size="14.00">value = [3210, 1160]</text>
<text text-anchor="middle" x="995.5" y="-79.95" font-family="Helvetica,sans-Serif" font-size="14.00">class = Animal</text>
</g>
<!-- 9659&#45;&gt;14055 -->
<g id="edge21" class="edge">
<title>9659&#45;&gt;14055</title>
<path fill="none" stroke="black" d="M932.24,-202.07C938.97,-193.36 946.07,-184.16 952.98,-175.21"/>
<polygon fill="black" stroke="black" points="955.55,-177.61 958.89,-167.56 950.01,-173.33 955.55,-177.61"/>
</g>
<!-- 9661 -->
<g id="node20" class="node">
<title>9661</title>
<path fill="#c0c0c0" stroke="black" d="M771.5,-36C771.5,-36 741.5,-36 741.5,-36 735.5,-36 729.5,-30 729.5,-24 729.5,-24 729.5,-12 729.5,-12 729.5,-6 735.5,0 741.5,0 741.5,0 771.5,0 771.5,0 777.5,0 783.5,-6 783.5,-12 783.5,-12 783.5,-24 783.5,-24 783.5,-30 777.5,-36 771.5,-36"/>
<text text-anchor="middle" x="756.5" y="-13.32" font-family="Helvetica,sans-Serif" font-size="14.00">(...)</text>
</g>
<!-- 9660&#45;&gt;9661 -->
<g id="edge19" class="edge">
<title>9660&#45;&gt;9661</title>
<path fill="none" stroke="black" d="M783.11,-71.75C778.71,-63.03 774.24,-54.16 770.25,-46.26"/>
<polygon fill="black" stroke="black" points="773.47,-44.88 765.84,-37.52 767.22,-48.03 773.47,-44.88"/>
</g>
<!-- 12974 -->
<g id="node21" class="node">
<title>12974</title>
<path fill="#c0c0c0" stroke="black" d="M843.5,-36C843.5,-36 813.5,-36 813.5,-36 807.5,-36 801.5,-30 801.5,-24 801.5,-24 801.5,-12 801.5,-12 801.5,-6 807.5,0 813.5,0 813.5,0 843.5,0 843.5,0 849.5,0 855.5,-6 855.5,-12 855.5,-12 855.5,-24 855.5,-24 855.5,-30 849.5,-36 843.5,-36"/>
<text text-anchor="middle" x="828.5" y="-13.32" font-family="Helvetica,sans-Serif" font-size="14.00">(...)</text>
</g>
<!-- 9660&#45;&gt;12974 -->
<g id="edge20" class="edge">
<title>9660&#45;&gt;12974</title>
<path fill="none" stroke="black" d="M816.79,-71.75C818.64,-63.42 820.52,-54.97 822.21,-47.34"/>
<polygon fill="black" stroke="black" points="825.61,-48.17 824.36,-37.65 818.78,-46.65 825.61,-48.17"/>
</g>
<!-- 14056 -->
<g id="node23" class="node">
<title>14056</title>
<path fill="#c0c0c0" stroke="black" d="M958.5,-36C958.5,-36 928.5,-36 928.5,-36 922.5,-36 916.5,-30 916.5,-24 916.5,-24 916.5,-12 916.5,-12 916.5,-6 922.5,0 928.5,0 928.5,0 958.5,0 958.5,0 964.5,0 970.5,-6 970.5,-12 970.5,-12 970.5,-24 970.5,-24 970.5,-30 964.5,-36 958.5,-36"/>
<text text-anchor="middle" x="943.5" y="-13.32" font-family="Helvetica,sans-Serif" font-size="14.00">(...)</text>
</g>
<!-- 14055&#45;&gt;14056 -->
<g id="edge22" class="edge">
<title>14055&#45;&gt;14056</title>
<path fill="none" stroke="black" d="M971.17,-71.75C966.6,-63.03 961.95,-54.16 957.8,-46.26"/>
<polygon fill="black" stroke="black" points="960.96,-44.74 953.21,-37.51 954.76,-47.99 960.96,-44.74"/>
</g>
<!-- 14969 -->
<g id="node24" class="node">
<title>14969</title>
<path fill="#c0c0c0" stroke="black" d="M1030.5,-36C1030.5,-36 1000.5,-36 1000.5,-36 994.5,-36 988.5,-30 988.5,-24 988.5,-24 988.5,-12 988.5,-12 988.5,-6 994.5,0 1000.5,0 1000.5,0 1030.5,0 1030.5,0 1036.5,0 1042.5,-6 1042.5,-12 1042.5,-12 1042.5,-24 1042.5,-24 1042.5,-30 1036.5,-36 1030.5,-36"/>
<text text-anchor="middle" x="1015.5" y="-13.32" font-family="Helvetica,sans-Serif" font-size="14.00">(...)</text>
</g>
<!-- 14055&#45;&gt;14969 -->
<g id="edge23" class="edge">
<title>14055&#45;&gt;14969</title>
<path fill="none" stroke="black" d="M1004.86,-71.75C1006.54,-63.42 1008.24,-54.97 1009.78,-47.34"/>
<polygon fill="black" stroke="black" points="1013.19,-48.15 1011.74,-37.66 1006.33,-46.77 1013.19,-48.15"/>
</g>
<!-- 15073 -->
<g id="node26" class="node">
<title>15073</title>
<path fill="#b2d9f5" stroke="black" d="M1250.5,-166.25C1250.5,-166.25 1108.5,-166.25 1108.5,-166.25 1102.5,-166.25 1096.5,-160.25 1096.5,-154.25 1096.5,-154.25 1096.5,-84 1096.5,-84 1096.5,-78 1102.5,-72 1108.5,-72 1108.5,-72 1250.5,-72 1250.5,-72 1256.5,-72 1262.5,-78 1262.5,-84 1262.5,-84 1262.5,-154.25 1262.5,-154.25 1262.5,-160.25 1256.5,-166.25 1250.5,-166.25"/>
<text text-anchor="middle" x="1179.5" y="-148.95" font-family="Helvetica,sans-Serif" font-size="14.00">19_U &lt;= 0.5</text>
<text text-anchor="middle" x="1179.5" y="-131.7" font-family="Helvetica,sans-Serif" font-size="14.00">entropy = 0.958</text>
<text text-anchor="middle" x="1179.5" y="-114.45" font-family="Helvetica,sans-Serif" font-size="14.00">samples = 3600</text>
<text text-anchor="middle" x="1179.5" y="-97.2" font-family="Helvetica,sans-Serif" font-size="14.00">value = [2169, 3550]</text>
<text text-anchor="middle" x="1179.5" y="-79.95" font-family="Helvetica,sans-Serif" font-size="14.00">class = Plant</text>
</g>
<!-- 15072&#45;&gt;15073 -->
<g id="edge25" class="edge">
<title>15072&#45;&gt;15073</title>
<path fill="none" stroke="black" d="M1179.5,-202.07C1179.5,-194.17 1179.5,-185.88 1179.5,-177.73"/>
<polygon fill="black" stroke="black" points="1183,-177.87 1179.5,-167.87 1176,-177.87 1183,-177.87"/>
</g>
<!-- 16586 -->
<g id="node29" class="node">
<title>16586</title>
<path fill="#65b3eb" stroke="black" d="M1426,-166.25C1426,-166.25 1293,-166.25 1293,-166.25 1287,-166.25 1281,-160.25 1281,-154.25 1281,-154.25 1281,-84 1281,-84 1281,-78 1287,-72 1293,-72 1293,-72 1426,-72 1426,-72 1432,-72 1438,-78 1438,-84 1438,-84 1438,-154.25 1438,-154.25 1438,-160.25 1432,-166.25 1426,-166.25"/>
<text text-anchor="middle" x="1359.5" y="-148.95" font-family="Helvetica,sans-Serif" font-size="14.00">19_G &lt;= 0.5</text>
<text text-anchor="middle" x="1359.5" y="-131.7" font-family="Helvetica,sans-Serif" font-size="14.00">entropy = 0.685</text>
<text text-anchor="middle" x="1359.5" y="-114.45" font-family="Helvetica,sans-Serif" font-size="14.00">samples = 2104</text>
<text text-anchor="middle" x="1359.5" y="-97.2" font-family="Helvetica,sans-Serif" font-size="14.00">value = [612, 2747]</text>
<text text-anchor="middle" x="1359.5" y="-79.95" font-family="Helvetica,sans-Serif" font-size="14.00">class = Plant</text>
</g>
<!-- 15072&#45;&gt;16586 -->
<g id="edge28" class="edge">
<title>15072&#45;&gt;16586</title>
<path fill="none" stroke="black" d="M1244.74,-201.89C1257.82,-192.57 1271.65,-182.72 1285.02,-173.19"/>
<polygon fill="black" stroke="black" points="1286.84,-176.2 1292.95,-167.54 1282.77,-170.49 1286.84,-176.2"/>
</g>
<!-- 15074 -->
<g id="node27" class="node">
<title>15074</title>
<path fill="#c0c0c0" stroke="black" d="M1158.5,-36C1158.5,-36 1128.5,-36 1128.5,-36 1122.5,-36 1116.5,-30 1116.5,-24 1116.5,-24 1116.5,-12 1116.5,-12 1116.5,-6 1122.5,0 1128.5,0 1128.5,0 1158.5,0 1158.5,0 1164.5,0 1170.5,-6 1170.5,-12 1170.5,-12 1170.5,-24 1170.5,-24 1170.5,-30 1164.5,-36 1158.5,-36"/>
<text text-anchor="middle" x="1143.5" y="-13.32" font-family="Helvetica,sans-Serif" font-size="14.00">(...)</text>
</g>
<!-- 15073&#45;&gt;15074 -->
<g id="edge26" class="edge">
<title>15073&#45;&gt;15074</title>
<path fill="none" stroke="black" d="M1162.66,-71.75C1159.56,-63.22 1156.42,-54.57 1153.6,-46.8"/>
<polygon fill="black" stroke="black" points="1156.96,-45.8 1150.25,-37.6 1150.38,-48.19 1156.96,-45.8"/>
</g>
<!-- 16207 -->
<g id="node28" class="node">
<title>16207</title>
<path fill="#c0c0c0" stroke="black" d="M1230.5,-36C1230.5,-36 1200.5,-36 1200.5,-36 1194.5,-36 1188.5,-30 1188.5,-24 1188.5,-24 1188.5,-12 1188.5,-12 1188.5,-6 1194.5,0 1200.5,0 1200.5,0 1230.5,0 1230.5,0 1236.5,0 1242.5,-6 1242.5,-12 1242.5,-12 1242.5,-24 1242.5,-24 1242.5,-30 1236.5,-36 1230.5,-36"/>
<text text-anchor="middle" x="1215.5" y="-13.32" font-family="Helvetica,sans-Serif" font-size="14.00">(...)</text>
</g>
<!-- 15073&#45;&gt;16207 -->
<g id="edge27" class="edge">
<title>15073&#45;&gt;16207</title>
<path fill="none" stroke="black" d="M1196.34,-71.75C1199.44,-63.22 1202.58,-54.57 1205.4,-46.8"/>
<polygon fill="black" stroke="black" points="1208.62,-48.19 1208.75,-37.6 1202.04,-45.8 1208.62,-48.19"/>
</g>
<!-- 16587 -->
<g id="node30" class="node">
<title>16587</title>
<path fill="#c0c0c0" stroke="black" d="M1338.5,-36C1338.5,-36 1308.5,-36 1308.5,-36 1302.5,-36 1296.5,-30 1296.5,-24 1296.5,-24 1296.5,-12 1296.5,-12 1296.5,-6 1302.5,0 1308.5,0 1308.5,0 1338.5,0 1338.5,0 1344.5,0 1350.5,-6 1350.5,-12 1350.5,-12 1350.5,-24 1350.5,-24 1350.5,-30 1344.5,-36 1338.5,-36"/>
<text text-anchor="middle" x="1323.5" y="-13.32" font-family="Helvetica,sans-Serif" font-size="14.00">(...)</text>
</g>
<!-- 16586&#45;&gt;16587 -->
<g id="edge29" class="edge">
<title>16586&#45;&gt;16587</title>
<path fill="none" stroke="black" d="M1342.66,-71.75C1339.56,-63.22 1336.42,-54.57 1333.6,-46.8"/>
<polygon fill="black" stroke="black" points="1336.96,-45.8 1330.25,-37.6 1330.38,-48.19 1336.96,-45.8"/>
</g>
<!-- 16934 -->
<g id="node31" class="node">
<title>16934</title>
<path fill="#c0c0c0" stroke="black" d="M1410.5,-36C1410.5,-36 1380.5,-36 1380.5,-36 1374.5,-36 1368.5,-30 1368.5,-24 1368.5,-24 1368.5,-12 1368.5,-12 1368.5,-6 1374.5,0 1380.5,0 1380.5,0 1410.5,0 1410.5,0 1416.5,0 1422.5,-6 1422.5,-12 1422.5,-12 1422.5,-24 1422.5,-24 1422.5,-30 1416.5,-36 1410.5,-36"/>
<text text-anchor="middle" x="1395.5" y="-13.32" font-family="Helvetica,sans-Serif" font-size="14.00">(...)</text>
</g>
<!-- 16586&#45;&gt;16934 -->
<g id="edge30" class="edge">
<title>16586&#45;&gt;16934</title>
<path fill="none" stroke="black" d="M1376.34,-71.75C1379.44,-63.22 1382.58,-54.57 1385.4,-46.8"/>
<polygon fill="black" stroke="black" points="1388.62,-48.19 1388.75,-37.6 1382.04,-45.8 1388.62,-48.19"/>
</g>
</g>
</svg>
