<?xml version="1.0" encoding="UTF-8" standalone="no"?>
<!DOCTYPE svg PUBLIC "-//W3C//DTD SVG 1.1//EN"
 "http://www.w3.org/Graphics/SVG/1.1/DTD/svg11.dtd">
<!-- Generated by graphviz version 12.0.0 (20240803.0821)
 -->
<!-- Title: Tree Pages: 1 -->
<svg width="1418pt" height="565pt"
 viewBox="0.00 0.00 1417.50 565.00" xmlns="http://www.w3.org/2000/svg" xmlns:xlink="http://www.w3.org/1999/xlink">
<g id="graph0" class="graph" transform="scale(1 1) rotate(0) translate(4 561)">
<title>Tree</title>
<polygon fill="white" stroke="none" points="-4,4 -4,-561 1413.5,-561 1413.5,4 -4,4"/>
<!-- 0 -->
<g id="node1" class="node">
<title>0</title>
<path fill="#fffefd" stroke="black" d="M820,-557C820,-557 660,-557 660,-557 654,-557 648,-551 648,-545 648,-545 648,-474.75 648,-474.75 648,-468.75 654,-462.75 660,-462.75 660,-462.75 820,-462.75 820,-462.75 826,-462.75 832,-468.75 832,-474.75 832,-474.75 832,-545 832,-545 832,-551 826,-557 820,-557"/>
<text text-anchor="middle" x="740" y="-539.7" font-family="Helvetica,sans-Serif" font-size="14.00">19_G &lt;= 0.5</text>
<text text-anchor="middle" x="740" y="-522.45" font-family="Helvetica,sans-Serif" font-size="14.00">entropy = 1.0</text>
<text text-anchor="middle" x="740" y="-505.2" font-family="Helvetica,sans-Serif" font-size="14.00">samples = 38261</text>
<text text-anchor="middle" x="740" y="-487.95" font-family="Helvetica,sans-Serif" font-size="14.00">value = [30333, 30012]</text>
<text text-anchor="middle" x="740" y="-470.7" font-family="Helvetica,sans-Serif" font-size="14.00">class = Animal</text>
</g>
<!-- 1 -->
<g id="node2" class="node">
<title>1</title>
<path fill="#f2f9fd" stroke="black" d="M641,-426.75C641,-426.75 481,-426.75 481,-426.75 475,-426.75 469,-420.75 469,-414.75 469,-414.75 469,-344.5 469,-344.5 469,-338.5 475,-332.5 481,-332.5 481,-332.5 641,-332.5 641,-332.5 647,-332.5 653,-338.5 653,-344.5 653,-344.5 653,-414.75 653,-414.75 653,-420.75 647,-426.75 641,-426.75"/>
<text text-anchor="middle" x="561" y="-409.45" font-family="Helvetica,sans-Serif" font-size="14.00">18_U &lt;= 0.5</text>
<text text-anchor="middle" x="561" y="-392.2" font-family="Helvetica,sans-Serif" font-size="14.00">entropy = 0.999</text>
<text text-anchor="middle" x="561" y="-374.95" font-family="Helvetica,sans-Serif" font-size="14.00">samples = 29358</text>
<text text-anchor="middle" x="561" y="-357.7" font-family="Helvetica,sans-Serif" font-size="14.00">value = [22347, 23880]</text>
<text text-anchor="middle" x="561" y="-340.45" font-family="Helvetica,sans-Serif" font-size="14.00">class = Plant</text>
</g>
<!-- 0&#45;&gt;1 -->
<g id="edge1" class="edge">
<title>0&#45;&gt;1</title>
<path fill="none" stroke="black" d="M675.12,-462.39C662.12,-453.07 648.36,-443.22 635.07,-433.69"/>
<polygon fill="black" stroke="black" points="637.35,-431.02 627.19,-428.05 633.28,-436.72 637.35,-431.02"/>
<text text-anchor="middle" x="630.03" y="-447.16" font-family="Helvetica,sans-Serif" font-size="14.00">True</text>
</g>
<!-- 12720 -->
<g id="node17" class="node">
<title>12720</title>
<path fill="#f9e2d1" stroke="black" d="M993,-426.75C993,-426.75 851,-426.75 851,-426.75 845,-426.75 839,-420.75 839,-414.75 839,-414.75 839,-344.5 839,-344.5 839,-338.5 845,-332.5 851,-332.5 851,-332.5 993,-332.5 993,-332.5 999,-332.5 1005,-338.5 1005,-344.5 1005,-344.5 1005,-414.75 1005,-414.75 1005,-420.75 999,-426.75 993,-426.75"/>
<text text-anchor="middle" x="922" y="-409.45" font-family="Helvetica,sans-Serif" font-size="14.00">23_U &lt;= 0.5</text>
<text text-anchor="middle" x="922" y="-392.2" font-family="Helvetica,sans-Serif" font-size="14.00">entropy = 0.988</text>
<text text-anchor="middle" x="922" y="-374.95" font-family="Helvetica,sans-Serif" font-size="14.00">samples = 8903</text>
<text text-anchor="middle" x="922" y="-357.7" font-family="Helvetica,sans-Serif" font-size="14.00">value = [7986, 6132]</text>
<text text-anchor="middle" x="922" y="-340.45" font-family="Helvetica,sans-Serif" font-size="14.00">class = Animal</text>
</g>
<!-- 0&#45;&gt;12720 -->
<g id="edge16" class="edge">
<title>0&#45;&gt;12720</title>
<path fill="none" stroke="black" d="M805.96,-462.39C819.19,-453.07 833.18,-443.22 846.69,-433.69"/>
<polygon fill="black" stroke="black" points="848.56,-436.66 854.72,-428.04 844.53,-430.94 848.56,-436.66"/>
<text text-anchor="middle" x="851.69" y="-447.12" font-family="Helvetica,sans-Serif" font-size="14.00">False</text>
</g>
<!-- 2 -->
<g id="node3" class="node">
<title>2</title>
<path fill="#e2f1fb" stroke="black" d="M365,-296.5C365,-296.5 205,-296.5 205,-296.5 199,-296.5 193,-290.5 193,-284.5 193,-284.5 193,-214.25 193,-214.25 193,-208.25 199,-202.25 205,-202.25 205,-202.25 365,-202.25 365,-202.25 371,-202.25 377,-208.25 377,-214.25 377,-214.25 377,-284.5 377,-284.5 377,-290.5 371,-296.5 365,-296.5"/>
<text text-anchor="middle" x="285" y="-279.2" font-family="Helvetica,sans-Serif" font-size="14.00">8_C &lt;= 0.5</text>
<text text-anchor="middle" x="285" y="-261.95" font-family="Helvetica,sans-Serif" font-size="14.00">entropy = 0.996</text>
<text text-anchor="middle" x="285" y="-244.7" font-family="Helvetica,sans-Serif" font-size="14.00">samples = 22067</text>
<text text-anchor="middle" x="285" y="-227.45" font-family="Helvetica,sans-Serif" font-size="14.00">value = [16039, 18742]</text>
<text text-anchor="middle" x="285" y="-210.2" font-family="Helvetica,sans-Serif" font-size="14.00">class = Plant</text>
</g>
<!-- 1&#45;&gt;2 -->
<g id="edge2" class="edge">
<title>1&#45;&gt;2</title>
<path fill="none" stroke="black" d="M468.71,-335.74C442.59,-323.6 414,-310.32 387.32,-297.92"/>
<polygon fill="black" stroke="black" points="389.12,-294.9 378.57,-293.86 386.17,-301.24 389.12,-294.9"/>
</g>
<!-- 9553 -->
<g id="node10" class="node">
<title>9553</title>
<path fill="#fae8da" stroke="black" d="M632,-296.5C632,-296.5 490,-296.5 490,-296.5 484,-296.5 478,-290.5 478,-284.5 478,-284.5 478,-214.25 478,-214.25 478,-208.25 484,-202.25 490,-202.25 490,-202.25 632,-202.25 632,-202.25 638,-202.25 644,-208.25 644,-214.25 644,-214.25 644,-284.5 644,-284.5 644,-290.5 638,-296.5 632,-296.5"/>
<text text-anchor="middle" x="561" y="-279.2" font-family="Helvetica,sans-Serif" font-size="14.00">19_C &lt;= 0.5</text>
<text text-anchor="middle" x="561" y="-261.95" font-family="Helvetica,sans-Serif" font-size="14.00">entropy = 0.992</text>
<text text-anchor="middle" x="561" y="-244.7" font-family="Helvetica,sans-Serif" font-size="14.00">samples = 7291</text>
<text text-anchor="middle" x="561" y="-227.45" font-family="Helvetica,sans-Serif" font-size="14.00">value = [6308, 5138]</text>
<text text-anchor="middle" x="561" y="-210.2" font-family="Helvetica,sans-Serif" font-size="14.00">class = Animal</text>
</g>
<!-- 1&#45;&gt;9553 -->
<g id="edge9" class="edge">
<title>1&#45;&gt;9553</title>
<path fill="none" stroke="black" d="M561,-332.32C561,-324.42 561,-316.13 561,-307.98"/>
<polygon fill="black" stroke="black" points="564.5,-308.12 561,-298.12 557.5,-308.12 564.5,-308.12"/>
</g>
<!-- 3 -->
<g id="node4" class="node">
<title>3</title>
<path fill="#d0e8f9" stroke="black" d="M172,-166.25C172,-166.25 12,-166.25 12,-166.25 6,-166.25 0,-160.25 0,-154.25 0,-154.25 0,-84 0,-84 0,-78 6,-72 12,-72 12,-72 172,-72 172,-72 178,-72 184,-78 184,-84 184,-84 184,-154.25 184,-154.25 184,-160.25 178,-166.25 172,-166.25"/>
<text text-anchor="middle" x="92" y="-148.95" font-family="Helvetica,sans-Serif" font-size="14.00">23_A &lt;= 0.5</text>
<text text-anchor="middle" x="92" y="-131.7" font-family="Helvetica,sans-Serif" font-size="14.00">entropy = 0.987</text>
<text text-anchor="middle" x="92" y="-114.45" font-family="Helvetica,sans-Serif" font-size="14.00">samples = 17770</text>
<text text-anchor="middle" x="92" y="-97.2" font-family="Helvetica,sans-Serif" font-size="14.00">value = [12089, 15853]</text>
<text text-anchor="middle" x="92" y="-79.95" font-family="Helvetica,sans-Serif" font-size="14.00">class = Plant</text>
</g>
<!-- 2&#45;&gt;3 -->
<g id="edge3" class="edge">
<title>2&#45;&gt;3</title>
<path fill="none" stroke="black" d="M215.05,-201.89C200.89,-192.48 185.9,-182.53 171.45,-172.92"/>
<polygon fill="black" stroke="black" points="173.56,-170.12 163.3,-167.5 169.69,-175.95 173.56,-170.12"/>
</g>
<!-- 7386 -->
<g id="node7" class="node">
<title>7386</title>
<path fill="#f8ddca" stroke="black" d="M356,-166.25C356,-166.25 214,-166.25 214,-166.25 208,-166.25 202,-160.25 202,-154.25 202,-154.25 202,-84 202,-84 202,-78 208,-72 214,-72 214,-72 356,-72 356,-72 362,-72 368,-78 368,-84 368,-84 368,-154.25 368,-154.25 368,-160.25 362,-166.25 356,-166.25"/>
<text text-anchor="middle" x="285" y="-148.95" font-family="Helvetica,sans-Serif" font-size="14.00">16_A &lt;= 0.5</text>
<text text-anchor="middle" x="285" y="-131.7" font-family="Helvetica,sans-Serif" font-size="14.00">entropy = 0.983</text>
<text text-anchor="middle" x="285" y="-114.45" font-family="Helvetica,sans-Serif" font-size="14.00">samples = 4297</text>
<text text-anchor="middle" x="285" y="-97.2" font-family="Helvetica,sans-Serif" font-size="14.00">value = [3950, 2889]</text>
<text text-anchor="middle" x="285" y="-79.95" font-family="Helvetica,sans-Serif" font-size="14.00">class = Animal</text>
</g>
<!-- 2&#45;&gt;7386 -->
<g id="edge6" class="edge">
<title>2&#45;&gt;7386</title>
<path fill="none" stroke="black" d="M285,-202.07C285,-194.17 285,-185.88 285,-177.73"/>
<polygon fill="black" stroke="black" points="288.5,-177.87 285,-167.87 281.5,-177.87 288.5,-177.87"/>
</g>
<!-- 4 -->
<g id="node5" class="node">
<title>4</title>
<path fill="#c0c0c0" stroke="black" d="M71,-36C71,-36 41,-36 41,-36 35,-36 29,-30 29,-24 29,-24 29,-12 29,-12 29,-6 35,0 41,0 41,0 71,0 71,0 77,0 83,-6 83,-12 83,-12 83,-24 83,-24 83,-30 77,-36 71,-36"/>
<text text-anchor="middle" x="56" y="-13.32" font-family="Helvetica,sans-Serif" font-size="14.00">(...)</text>
</g>
<!-- 3&#45;&gt;4 -->
<g id="edge4" class="edge">
<title>3&#45;&gt;4</title>
<path fill="none" stroke="black" d="M75.16,-71.75C72.06,-63.22 68.92,-54.57 66.1,-46.8"/>
<polygon fill="black" stroke="black" points="69.46,-45.8 62.75,-37.6 62.88,-48.19 69.46,-45.8"/>
</g>
<!-- 7047 -->
<g id="node6" class="node">
<title>7047</title>
<path fill="#c0c0c0" stroke="black" d="M143,-36C143,-36 113,-36 113,-36 107,-36 101,-30 101,-24 101,-24 101,-12 101,-12 101,-6 107,0 113,0 113,0 143,0 143,0 149,0 155,-6 155,-12 155,-12 155,-24 155,-24 155,-30 149,-36 143,-36"/>
<text text-anchor="middle" x="128" y="-13.32" font-family="Helvetica,sans-Serif" font-size="14.00">(...)</text>
</g>
<!-- 3&#45;&gt;7047 -->
<g id="edge5" class="edge">
<title>3&#45;&gt;7047</title>
<path fill="none" stroke="black" d="M108.84,-71.75C111.94,-63.22 115.08,-54.57 117.9,-46.8"/>
<polygon fill="black" stroke="black" points="121.12,-48.19 121.25,-37.6 114.54,-45.8 121.12,-48.19"/>
</g>
<!-- 7387 -->
<g id="node8" class="node">
<title>7387</title>
<path fill="#c0c0c0" stroke="black" d="M268,-36C268,-36 238,-36 238,-36 232,-36 226,-30 226,-24 226,-24 226,-12 226,-12 226,-6 232,0 238,0 238,0 268,0 268,0 274,0 280,-6 280,-12 280,-12 280,-24 280,-24 280,-30 274,-36 268,-36"/>
<text text-anchor="middle" x="253" y="-13.32" font-family="Helvetica,sans-Serif" font-size="14.00">(...)</text>
</g>
<!-- 7386&#45;&gt;7387 -->
<g id="edge7" class="edge">
<title>7386&#45;&gt;7387</title>
<path fill="none" stroke="black" d="M270.03,-71.75C267.31,-63.32 264.55,-54.77 262.06,-47.07"/>
<polygon fill="black" stroke="black" points="265.41,-46.05 259.01,-37.61 258.75,-48.2 265.41,-46.05"/>
</g>
<!-- 9082 -->
<g id="node9" class="node">
<title>9082</title>
<path fill="#c0c0c0" stroke="black" d="M340,-36C340,-36 310,-36 310,-36 304,-36 298,-30 298,-24 298,-24 298,-12 298,-12 298,-6 304,0 310,0 310,0 340,0 340,0 346,0 352,-6 352,-12 352,-12 352,-24 352,-24 352,-30 346,-36 340,-36"/>
<text text-anchor="middle" x="325" y="-13.32" font-family="Helvetica,sans-Serif" font-size="14.00">(...)</text>
</g>
<!-- 7386&#45;&gt;9082 -->
<g id="edge8" class="edge">
<title>7386&#45;&gt;9082</title>
<path fill="none" stroke="black" d="M303.71,-71.75C307.15,-63.22 310.65,-54.57 313.78,-46.8"/>
<polygon fill="black" stroke="black" points="317.01,-48.16 317.5,-37.58 310.52,-45.54 317.01,-48.16"/>
</g>
<!-- 9554 -->
<g id="node11" class="node">
<title>9554</title>
<path fill="#f3c6a6" stroke="black" d="M540,-166.25C540,-166.25 398,-166.25 398,-166.25 392,-166.25 386,-160.25 386,-154.25 386,-154.25 386,-84 386,-84 386,-78 392,-72 398,-72 398,-72 540,-72 540,-72 546,-72 552,-78 552,-84 552,-84 552,-154.25 552,-154.25 552,-160.25 546,-166.25 540,-166.25"/>
<text text-anchor="middle" x="469" y="-148.95" font-family="Helvetica,sans-Serif" font-size="14.00">15_C &lt;= 0.5</text>
<text text-anchor="middle" x="469" y="-131.7" font-family="Helvetica,sans-Serif" font-size="14.00">entropy = 0.938</text>
<text text-anchor="middle" x="469" y="-114.45" font-family="Helvetica,sans-Serif" font-size="14.00">samples = 4485</text>
<text text-anchor="middle" x="469" y="-97.2" font-family="Helvetica,sans-Serif" font-size="14.00">value = [4542, 2499]</text>
<text text-anchor="middle" x="469" y="-79.95" font-family="Helvetica,sans-Serif" font-size="14.00">class = Animal</text>
</g>
<!-- 9553&#45;&gt;9554 -->
<g id="edge10" class="edge">
<title>9553&#45;&gt;9554</title>
<path fill="none" stroke="black" d="M527.79,-202.07C521.6,-193.45 515.07,-184.35 508.71,-175.49"/>
<polygon fill="black" stroke="black" points="511.72,-173.67 503.05,-167.59 506.03,-177.75 511.72,-173.67"/>
</g>
<!-- 11621 -->
<g id="node14" class="node">
<title>11621</title>
<path fill="#bedff6" stroke="black" d="M724,-166.25C724,-166.25 582,-166.25 582,-166.25 576,-166.25 570,-160.25 570,-154.25 570,-154.25 570,-84 570,-84 570,-78 576,-72 582,-72 582,-72 724,-72 724,-72 730,-72 736,-78 736,-84 736,-84 736,-154.25 736,-154.25 736,-160.25 730,-166.25 724,-166.25"/>
<text text-anchor="middle" x="653" y="-148.95" font-family="Helvetica,sans-Serif" font-size="14.00">15_C &lt;= 0.5</text>
<text text-anchor="middle" x="653" y="-131.7" font-family="Helvetica,sans-Serif" font-size="14.00">entropy = 0.971</text>
<text text-anchor="middle" x="653" y="-114.45" font-family="Helvetica,sans-Serif" font-size="14.00">samples = 2806</text>
<text text-anchor="middle" x="653" y="-97.2" font-family="Helvetica,sans-Serif" font-size="14.00">value = [1766, 2639]</text>
<text text-anchor="middle" x="653" y="-79.95" font-family="Helvetica,sans-Serif" font-size="14.00">class = Plant</text>
</g>
<!-- 9553&#45;&gt;11621 -->
<g id="edge13" class="edge">
<title>9553&#45;&gt;11621</title>
<path fill="none" stroke="black" d="M594.21,-202.07C600.4,-193.45 606.93,-184.35 613.29,-175.49"/>
<polygon fill="black" stroke="black" points="615.97,-177.75 618.95,-167.59 610.28,-173.67 615.97,-177.75"/>
</g>
<!-- 9555 -->
<g id="node12" class="node">
<title>9555</title>
<path fill="#c0c0c0" stroke="black" d="M432,-36C432,-36 402,-36 402,-36 396,-36 390,-30 390,-24 390,-24 390,-12 390,-12 390,-6 396,0 402,0 402,0 432,0 432,0 438,0 444,-6 444,-12 444,-12 444,-24 444,-24 444,-30 438,-36 432,-36"/>
<text text-anchor="middle" x="417" y="-13.32" font-family="Helvetica,sans-Serif" font-size="14.00">(...)</text>
</g>
<!-- 9554&#45;&gt;9555 -->
<g id="edge11" class="edge">
<title>9554&#45;&gt;9555</title>
<path fill="none" stroke="black" d="M444.67,-71.75C440.1,-63.03 435.45,-54.16 431.3,-46.26"/>
<polygon fill="black" stroke="black" points="434.46,-44.74 426.71,-37.51 428.26,-47.99 434.46,-44.74"/>
</g>
<!-- 11202 -->
<g id="node13" class="node">
<title>11202</title>
<path fill="#c0c0c0" stroke="black" d="M504,-36C504,-36 474,-36 474,-36 468,-36 462,-30 462,-24 462,-24 462,-12 462,-12 462,-6 468,0 474,0 474,0 504,0 504,0 510,0 516,-6 516,-12 516,-12 516,-24 516,-24 516,-30 510,-36 504,-36"/>
<text text-anchor="middle" x="489" y="-13.32" font-family="Helvetica,sans-Serif" font-size="14.00">(...)</text>
</g>
<!-- 9554&#45;&gt;11202 -->
<g id="edge12" class="edge">
<title>9554&#45;&gt;11202</title>
<path fill="none" stroke="black" d="M478.36,-71.75C480.04,-63.42 481.74,-54.97 483.28,-47.34"/>
<polygon fill="black" stroke="black" points="486.69,-48.15 485.24,-37.66 479.83,-46.77 486.69,-48.15"/>
</g>
<!-- 11622 -->
<g id="node15" class="node">
<title>11622</title>
<path fill="#c0c0c0" stroke="black" d="M616,-36C616,-36 586,-36 586,-36 580,-36 574,-30 574,-24 574,-24 574,-12 574,-12 574,-6 580,0 586,0 586,0 616,0 616,0 622,0 628,-6 628,-12 628,-12 628,-24 628,-24 628,-30 622,-36 616,-36"/>
<text text-anchor="middle" x="601" y="-13.32" font-family="Helvetica,sans-Serif" font-size="14.00">(...)</text>
</g>
<!-- 11621&#45;&gt;11622 -->
<g id="edge14" class="edge">
<title>11621&#45;&gt;11622</title>
<path fill="none" stroke="black" d="M628.67,-71.75C624.1,-63.03 619.45,-54.16 615.3,-46.26"/>
<polygon fill="black" stroke="black" points="618.46,-44.74 610.71,-37.51 612.26,-47.99 618.46,-44.74"/>
</g>
<!-- 12469 -->
<g id="node16" class="node">
<title>12469</title>
<path fill="#c0c0c0" stroke="black" d="M688,-36C688,-36 658,-36 658,-36 652,-36 646,-30 646,-24 646,-24 646,-12 646,-12 646,-6 652,0 658,0 658,0 688,0 688,0 694,0 700,-6 700,-12 700,-12 700,-24 700,-24 700,-30 694,-36 688,-36"/>
<text text-anchor="middle" x="673" y="-13.32" font-family="Helvetica,sans-Serif" font-size="14.00">(...)</text>
</g>
<!-- 11621&#45;&gt;12469 -->
<g id="edge15" class="edge">
<title>11621&#45;&gt;12469</title>
<path fill="none" stroke="black" d="M662.36,-71.75C664.04,-63.42 665.74,-54.97 667.28,-47.34"/>
<polygon fill="black" stroke="black" points="670.69,-48.15 669.24,-37.66 663.83,-46.77 670.69,-48.15"/>
</g>
<!-- 12721 -->
<g id="node18" class="node">
<title>12721</title>
<path fill="#fae9dc" stroke="black" d="M993,-296.5C993,-296.5 851,-296.5 851,-296.5 845,-296.5 839,-290.5 839,-284.5 839,-284.5 839,-214.25 839,-214.25 839,-208.25 845,-202.25 851,-202.25 851,-202.25 993,-202.25 993,-202.25 999,-202.25 1005,-208.25 1005,-214.25 1005,-214.25 1005,-284.5 1005,-284.5 1005,-290.5 999,-296.5 993,-296.5"/>
<text text-anchor="middle" x="922" y="-279.2" font-family="Helvetica,sans-Serif" font-size="14.00">18_C &lt;= 0.5</text>
<text text-anchor="middle" x="922" y="-261.95" font-family="Helvetica,sans-Serif" font-size="14.00">entropy = 0.993</text>
<text text-anchor="middle" x="922" y="-244.7" font-family="Helvetica,sans-Serif" font-size="14.00">samples = 8372</text>
<text text-anchor="middle" x="922" y="-227.45" font-family="Helvetica,sans-Serif" font-size="14.00">value = [7269, 5998]</text>
<text text-anchor="middle" x="922" y="-210.2" font-family="Helvetica,sans-Serif" font-size="14.00">class = Animal</text>
</g>
<!-- 12720&#45;&gt;12721 -->
<g id="edge17" class="edge">
<title>12720&#45;&gt;12721</title>
<path fill="none" stroke="black" d="M922,-332.32C922,-324.42 922,-316.13 922,-307.98"/>
<polygon fill="black" stroke="black" points="925.5,-308.12 922,-298.12 918.5,-308.12 925.5,-308.12"/>
</g>
<!-- 16938 -->
<g id="node25" class="node">
<title>16938</title>
<path fill="#ea995e" stroke="black" d="M1245,-296.5C1245,-296.5 1121,-296.5 1121,-296.5 1115,-296.5 1109,-290.5 1109,-284.5 1109,-284.5 1109,-214.25 1109,-214.25 1109,-208.25 1115,-202.25 1121,-202.25 1121,-202.25 1245,-202.25 1245,-202.25 1251,-202.25 1257,-208.25 1257,-214.25 1257,-214.25 1257,-284.5 1257,-284.5 1257,-290.5 1251,-296.5 1245,-296.5"/>
<text text-anchor="middle" x="1183" y="-279.2" font-family="Helvetica,sans-Serif" font-size="14.00">2_C &lt;= 0.5</text>
<text text-anchor="middle" x="1183" y="-261.95" font-family="Helvetica,sans-Serif" font-size="14.00">entropy = 0.628</text>
<text text-anchor="middle" x="1183" y="-244.7" font-family="Helvetica,sans-Serif" font-size="14.00">samples = 531</text>
<text text-anchor="middle" x="1183" y="-227.45" font-family="Helvetica,sans-Serif" font-size="14.00">value = [717, 134]</text>
<text text-anchor="middle" x="1183" y="-210.2" font-family="Helvetica,sans-Serif" font-size="14.00">class = Animal</text>
</g>
<!-- 12720&#45;&gt;16938 -->
<g id="edge24" class="edge">
<title>12720&#45;&gt;16938</title>
<path fill="none" stroke="black" d="M1005.3,-337.69C1035.19,-323.01 1068.9,-306.44 1098.86,-291.72"/>
<polygon fill="black" stroke="black" points="1100.07,-295.02 1107.51,-287.47 1096.99,-288.74 1100.07,-295.02"/>
</g>
<!-- 12722 -->
<g id="node19" class="node">
<title>12722</title>
<path fill="#f8dbc7" stroke="black" d="M908,-166.25C908,-166.25 766,-166.25 766,-166.25 760,-166.25 754,-160.25 754,-154.25 754,-154.25 754,-84 754,-84 754,-78 760,-72 766,-72 766,-72 908,-72 908,-72 914,-72 920,-78 920,-84 920,-84 920,-154.25 920,-154.25 920,-160.25 914,-166.25 908,-166.25"/>
<text text-anchor="middle" x="837" y="-148.95" font-family="Helvetica,sans-Serif" font-size="14.00">22_G &lt;= 0.5</text>
<text text-anchor="middle" x="837" y="-131.7" font-family="Helvetica,sans-Serif" font-size="14.00">entropy = 0.98</text>
<text text-anchor="middle" x="837" y="-114.45" font-family="Helvetica,sans-Serif" font-size="14.00">samples = 7112</text>
<text text-anchor="middle" x="837" y="-97.2" font-family="Helvetica,sans-Serif" font-size="14.00">value = [6562, 4709]</text>
<text text-anchor="middle" x="837" y="-79.95" font-family="Helvetica,sans-Serif" font-size="14.00">class = Animal</text>
</g>
<!-- 12721&#45;&gt;12722 -->
<g id="edge18" class="edge">
<title>12721&#45;&gt;12722</title>
<path fill="none" stroke="black" d="M891.31,-202.07C885.66,-193.54 879.7,-184.54 873.88,-175.77"/>
<polygon fill="black" stroke="black" points="876.92,-174.02 868.48,-167.62 871.09,-177.89 876.92,-174.02"/>
</g>
<!-- 16357 -->
<g id="node22" class="node">
<title>16357</title>
<path fill="#a6d3f3" stroke="black" d="M1083.5,-166.25C1083.5,-166.25 950.5,-166.25 950.5,-166.25 944.5,-166.25 938.5,-160.25 938.5,-154.25 938.5,-154.25 938.5,-84 938.5,-84 938.5,-78 944.5,-72 950.5,-72 950.5,-72 1083.5,-72 1083.5,-72 1089.5,-72 1095.5,-78 1095.5,-84 1095.5,-84 1095.5,-154.25 1095.5,-154.25 1095.5,-160.25 1089.5,-166.25 1083.5,-166.25"/>
<text text-anchor="middle" x="1017" y="-148.95" font-family="Helvetica,sans-Serif" font-size="14.00">21_C &lt;= 0.5</text>
<text text-anchor="middle" x="1017" y="-131.7" font-family="Helvetica,sans-Serif" font-size="14.00">entropy = 0.938</text>
<text text-anchor="middle" x="1017" y="-114.45" font-family="Helvetica,sans-Serif" font-size="14.00">samples = 1260</text>
<text text-anchor="middle" x="1017" y="-97.2" font-family="Helvetica,sans-Serif" font-size="14.00">value = [707, 1289]</text>
<text text-anchor="middle" x="1017" y="-79.95" font-family="Helvetica,sans-Serif" font-size="14.00">class = Plant</text>
</g>
<!-- 12721&#45;&gt;16357 -->
<g id="edge21" class="edge">
<title>12721&#45;&gt;16357</title>
<path fill="none" stroke="black" d="M956.3,-202.07C962.69,-193.45 969.42,-184.35 975.99,-175.49"/>
<polygon fill="black" stroke="black" points="978.71,-177.69 981.85,-167.57 973.09,-173.53 978.71,-177.69"/>
</g>
<!-- 12723 -->
<g id="node20" class="node">
<title>12723</title>
<path fill="#c0c0c0" stroke="black" d="M798,-36C798,-36 768,-36 768,-36 762,-36 756,-30 756,-24 756,-24 756,-12 756,-12 756,-6 762,0 768,0 768,0 798,0 798,0 804,0 810,-6 810,-12 810,-12 810,-24 810,-24 810,-30 804,-36 798,-36"/>
<text text-anchor="middle" x="783" y="-13.32" font-family="Helvetica,sans-Serif" font-size="14.00">(...)</text>
</g>
<!-- 12722&#45;&gt;12723 -->
<g id="edge19" class="edge">
<title>12722&#45;&gt;12723</title>
<path fill="none" stroke="black" d="M811.74,-71.75C806.98,-63.03 802.16,-54.16 797.85,-46.26"/>
<polygon fill="black" stroke="black" points="800.94,-44.61 793.08,-37.5 794.79,-47.96 800.94,-44.61"/>
</g>
<!-- 15920 -->
<g id="node21" class="node">
<title>15920</title>
<path fill="#c0c0c0" stroke="black" d="M870,-36C870,-36 840,-36 840,-36 834,-36 828,-30 828,-24 828,-24 828,-12 828,-12 828,-6 834,0 840,0 840,0 870,0 870,0 876,0 882,-6 882,-12 882,-12 882,-24 882,-24 882,-30 876,-36 870,-36"/>
<text text-anchor="middle" x="855" y="-13.32" font-family="Helvetica,sans-Serif" font-size="14.00">(...)</text>
</g>
<!-- 12722&#45;&gt;15920 -->
<g id="edge20" class="edge">
<title>12722&#45;&gt;15920</title>
<path fill="none" stroke="black" d="M845.42,-71.75C846.93,-63.42 848.47,-54.97 849.85,-47.34"/>
<polygon fill="black" stroke="black" points="853.27,-48.13 851.61,-37.66 846.38,-46.88 853.27,-48.13"/>
</g>
<!-- 16358 -->
<g id="node23" class="node">
<title>16358</title>
<path fill="#c0c0c0" stroke="black" d="M971,-36C971,-36 941,-36 941,-36 935,-36 929,-30 929,-24 929,-24 929,-12 929,-12 929,-6 935,0 941,0 941,0 971,0 971,0 977,0 983,-6 983,-12 983,-12 983,-24 983,-24 983,-30 977,-36 971,-36"/>
<text text-anchor="middle" x="956" y="-13.32" font-family="Helvetica,sans-Serif" font-size="14.00">(...)</text>
</g>
<!-- 16357&#45;&gt;16358 -->
<g id="edge22" class="edge">
<title>16357&#45;&gt;16358</title>
<path fill="none" stroke="black" d="M988.46,-71.75C982.97,-62.83 977.39,-53.76 972.44,-45.72"/>
<polygon fill="black" stroke="black" points="975.58,-44.14 967.36,-37.46 969.62,-47.81 975.58,-44.14"/>
</g>
<!-- 16793 -->
<g id="node24" class="node">
<title>16793</title>
<path fill="#c0c0c0" stroke="black" d="M1043,-36C1043,-36 1013,-36 1013,-36 1007,-36 1001,-30 1001,-24 1001,-24 1001,-12 1001,-12 1001,-6 1007,0 1013,0 1013,0 1043,0 1043,0 1049,0 1055,-6 1055,-12 1055,-12 1055,-24 1055,-24 1055,-30 1049,-36 1043,-36"/>
<text text-anchor="middle" x="1028" y="-13.32" font-family="Helvetica,sans-Serif" font-size="14.00">(...)</text>
</g>
<!-- 16357&#45;&gt;16793 -->
<g id="edge23" class="edge">
<title>16357&#45;&gt;16793</title>
<path fill="none" stroke="black" d="M1022.15,-71.75C1023.06,-63.52 1023.99,-55.17 1024.82,-47.61"/>
<polygon fill="black" stroke="black" points="1028.3,-48 1025.93,-37.68 1021.35,-47.23 1028.3,-48"/>
</g>
<!-- 16939 -->
<g id="node26" class="node">
<title>16939</title>
<path fill="#e89254" stroke="black" d="M1240.5,-166.25C1240.5,-166.25 1125.5,-166.25 1125.5,-166.25 1119.5,-166.25 1113.5,-160.25 1113.5,-154.25 1113.5,-154.25 1113.5,-84 1113.5,-84 1113.5,-78 1119.5,-72 1125.5,-72 1125.5,-72 1240.5,-72 1240.5,-72 1246.5,-72 1252.5,-78 1252.5,-84 1252.5,-84 1252.5,-154.25 1252.5,-154.25 1252.5,-160.25 1246.5,-166.25 1240.5,-166.25"/>
<text text-anchor="middle" x="1183" y="-148.95" font-family="Helvetica,sans-Serif" font-size="14.00">8_C &lt;= 0.5</text>
<text text-anchor="middle" x="1183" y="-131.7" font-family="Helvetica,sans-Serif" font-size="14.00">entropy = 0.525</text>
<text text-anchor="middle" x="1183" y="-114.45" font-family="Helvetica,sans-Serif" font-size="14.00">samples = 422</text>
<text text-anchor="middle" x="1183" y="-97.2" font-family="Helvetica,sans-Serif" font-size="14.00">value = [603, 81]</text>
<text text-anchor="middle" x="1183" y="-79.95" font-family="Helvetica,sans-Serif" font-size="14.00">class = Animal</text>
</g>
<!-- 16938&#45;&gt;16939 -->
<g id="edge25" class="edge">
<title>16938&#45;&gt;16939</title>
<path fill="none" stroke="black" d="M1183,-202.07C1183,-194.17 1183,-185.88 1183,-177.73"/>
<polygon fill="black" stroke="black" points="1186.5,-177.87 1183,-167.87 1179.5,-177.87 1186.5,-177.87"/>
</g>
<!-- 17092 -->
<g id="node29" class="node">
<title>17092</title>
<path fill="#f1bc95" stroke="black" d="M1397.5,-166.25C1397.5,-166.25 1282.5,-166.25 1282.5,-166.25 1276.5,-166.25 1270.5,-160.25 1270.5,-154.25 1270.5,-154.25 1270.5,-84 1270.5,-84 1270.5,-78 1276.5,-72 1282.5,-72 1282.5,-72 1397.5,-72 1397.5,-72 1403.5,-72 1409.5,-78 1409.5,-84 1409.5,-84 1409.5,-154.25 1409.5,-154.25 1409.5,-160.25 1403.5,-166.25 1397.5,-166.25"/>
<text text-anchor="middle" x="1340" y="-148.95" font-family="Helvetica,sans-Serif" font-size="14.00">17_G &lt;= 0.5</text>
<text text-anchor="middle" x="1340" y="-131.7" font-family="Helvetica,sans-Serif" font-size="14.00">entropy = 0.901</text>
<text text-anchor="middle" x="1340" y="-114.45" font-family="Helvetica,sans-Serif" font-size="14.00">samples = 109</text>
<text text-anchor="middle" x="1340" y="-97.2" font-family="Helvetica,sans-Serif" font-size="14.00">value = [114, 53]</text>
<text text-anchor="middle" x="1340" y="-79.95" font-family="Helvetica,sans-Serif" font-size="14.00">class = Animal</text>
</g>
<!-- 16938&#45;&gt;17092 -->
<g id="edge28" class="edge">
<title>16938&#45;&gt;17092</title>
<path fill="none" stroke="black" d="M1239.68,-202.07C1250.95,-192.87 1262.87,-183.13 1274.41,-173.71"/>
<polygon fill="black" stroke="black" points="1276.44,-176.57 1281.97,-167.53 1272.01,-171.15 1276.44,-176.57"/>
</g>
<!-- 16940 -->
<g id="node27" class="node">
<title>16940</title>
<path fill="#c0c0c0" stroke="black" d="M1150,-36C1150,-36 1120,-36 1120,-36 1114,-36 1108,-30 1108,-24 1108,-24 1108,-12 1108,-12 1108,-6 1114,0 1120,0 1120,0 1150,0 1150,0 1156,0 1162,-6 1162,-12 1162,-12 1162,-24 1162,-24 1162,-30 1156,-36 1150,-36"/>
<text text-anchor="middle" x="1135" y="-13.32" font-family="Helvetica,sans-Serif" font-size="14.00">(...)</text>
</g>
<!-- 16939&#45;&gt;16940 -->
<g id="edge26" class="edge">
<title>16939&#45;&gt;16940</title>
<path fill="none" stroke="black" d="M1160.55,-71.75C1156.37,-63.12 1152.12,-54.36 1148.33,-46.53"/>
<polygon fill="black" stroke="black" points="1151.48,-45.01 1143.98,-37.53 1145.18,-48.06 1151.48,-45.01"/>
</g>
<!-- 17063 -->
<g id="node28" class="node">
<title>17063</title>
<path fill="#c0c0c0" stroke="black" d="M1222,-36C1222,-36 1192,-36 1192,-36 1186,-36 1180,-30 1180,-24 1180,-24 1180,-12 1180,-12 1180,-6 1186,0 1192,0 1192,0 1222,0 1222,0 1228,0 1234,-6 1234,-12 1234,-12 1234,-24 1234,-24 1234,-30 1228,-36 1222,-36"/>
<text text-anchor="middle" x="1207" y="-13.32" font-family="Helvetica,sans-Serif" font-size="14.00">(...)</text>
</g>
<!-- 16939&#45;&gt;17063 -->
<g id="edge27" class="edge">
<title>16939&#45;&gt;17063</title>
<path fill="none" stroke="black" d="M1194.23,-71.75C1196.24,-63.42 1198.29,-54.97 1200.14,-47.34"/>
<polygon fill="black" stroke="black" points="1203.53,-48.19 1202.49,-37.64 1196.73,-46.54 1203.53,-48.19"/>
</g>
<!-- 17093 -->
<g id="node30" class="node">
<title>17093</title>
<path fill="#c0c0c0" stroke="black" d="M1319,-36C1319,-36 1289,-36 1289,-36 1283,-36 1277,-30 1277,-24 1277,-24 1277,-12 1277,-12 1277,-6 1283,0 1289,0 1289,0 1319,0 1319,0 1325,0 1331,-6 1331,-12 1331,-12 1331,-24 1331,-24 1331,-30 1325,-36 1319,-36"/>
<text text-anchor="middle" x="1304" y="-13.32" font-family="Helvetica,sans-Serif" font-size="14.00">(...)</text>
</g>
<!-- 17092&#45;&gt;17093 -->
<g id="edge29" class="edge">
<title>17092&#45;&gt;17093</title>
<path fill="none" stroke="black" d="M1323.16,-71.75C1320.06,-63.22 1316.92,-54.57 1314.1,-46.8"/>
<polygon fill="black" stroke="black" points="1317.46,-45.8 1310.75,-37.6 1310.88,-48.19 1317.46,-45.8"/>
</g>
<!-- 17128 -->
<g id="node31" class="node">
<title>17128</title>
<path fill="#c0c0c0" stroke="black" d="M1391,-36C1391,-36 1361,-36 1361,-36 1355,-36 1349,-30 1349,-24 1349,-24 1349,-12 1349,-12 1349,-6 1355,0 1361,0 1361,0 1391,0 1391,0 1397,0 1403,-6 1403,-12 1403,-12 1403,-24 1403,-24 1403,-30 1397,-36 1391,-36"/>
<text text-anchor="middle" x="1376" y="-13.32" font-family="Helvetica,sans-Serif" font-size="14.00">(...)</text>
</g>
<!-- 17092&#45;&gt;17128 -->
<g id="edge30" class="edge">
<title>17092&#45;&gt;17128</title>
<path fill="none" stroke="black" d="M1356.84,-71.75C1359.94,-63.22 1363.08,-54.57 1365.9,-46.8"/>
<polygon fill="black" stroke="black" points="1369.12,-48.19 1369.25,-37.6 1362.54,-45.8 1369.12,-48.19"/>
</g>
</g>
</svg>
