<?xml version="1.0" encoding="UTF-8" standalone="no"?>
<!DOCTYPE svg PUBLIC "-//W3C//DTD SVG 1.1//EN"
 "http://www.w3.org/Graphics/SVG/1.1/DTD/svg11.dtd">
<!-- Generated by graphviz version 12.0.0 (20240803.0821)
 -->
<!-- Title: Tree Pages: 1 -->
<svg width="1436pt" height="565pt"
 viewBox="0.00 0.00 1436.00 565.00" xmlns="http://www.w3.org/2000/svg" xmlns:xlink="http://www.w3.org/1999/xlink">
<g id="graph0" class="graph" transform="scale(1 1) rotate(0) translate(4 561)">
<title>Tree</title>
<polygon fill="white" stroke="none" points="-4,4 -4,-561 1432,-561 1432,4 -4,4"/>
<!-- 0 -->
<g id="node1" class="node">
<title>0</title>
<path fill="#fdfeff" stroke="black" d="M789,-557C789,-557 629,-557 629,-557 623,-557 617,-551 617,-545 617,-545 617,-474.75 617,-474.75 617,-468.75 623,-462.75 629,-462.75 629,-462.75 789,-462.75 789,-462.75 795,-462.75 801,-468.75 801,-474.75 801,-474.75 801,-545 801,-545 801,-551 795,-557 789,-557"/>
<text text-anchor="middle" x="709" y="-539.7" font-family="Helvetica,sans-Serif" font-size="14.00">1_U &lt;= 0.5</text>
<text text-anchor="middle" x="709" y="-522.45" font-family="Helvetica,sans-Serif" font-size="14.00">entropy = 1.0</text>
<text text-anchor="middle" x="709" y="-505.2" font-family="Helvetica,sans-Serif" font-size="14.00">samples = 38112</text>
<text text-anchor="middle" x="709" y="-487.95" font-family="Helvetica,sans-Serif" font-size="14.00">value = [30044, 30301]</text>
<text text-anchor="middle" x="709" y="-470.7" font-family="Helvetica,sans-Serif" font-size="14.00">class = Plant</text>
</g>
<!-- 1 -->
<g id="node2" class="node">
<title>1</title>
<path fill="#f8dbc7" stroke="black" d="M619,-426.75C619,-426.75 459,-426.75 459,-426.75 453,-426.75 447,-420.75 447,-414.75 447,-414.75 447,-344.5 447,-344.5 447,-338.5 453,-332.5 459,-332.5 459,-332.5 619,-332.5 619,-332.5 625,-332.5 631,-338.5 631,-344.5 631,-344.5 631,-414.75 631,-414.75 631,-420.75 625,-426.75 619,-426.75"/>
<text text-anchor="middle" x="539" y="-409.45" font-family="Helvetica,sans-Serif" font-size="14.00">22_G &lt;= 0.5</text>
<text text-anchor="middle" x="539" y="-392.2" font-family="Helvetica,sans-Serif" font-size="14.00">entropy = 0.98</text>
<text text-anchor="middle" x="539" y="-374.95" font-family="Helvetica,sans-Serif" font-size="14.00">samples = 17935</text>
<text text-anchor="middle" x="539" y="-357.7" font-family="Helvetica,sans-Serif" font-size="14.00">value = [16516, 11828]</text>
<text text-anchor="middle" x="539" y="-340.45" font-family="Helvetica,sans-Serif" font-size="14.00">class = Animal</text>
</g>
<!-- 0&#45;&gt;1 -->
<g id="edge1" class="edge">
<title>0&#45;&gt;1</title>
<path fill="none" stroke="black" d="M647.63,-462.57C635.3,-453.28 622.26,-443.44 609.66,-433.93"/>
<polygon fill="black" stroke="black" points="611.87,-431.21 601.78,-427.99 607.65,-436.8 611.87,-431.21"/>
<text text-anchor="middle" x="604.03" y="-447.16" font-family="Helvetica,sans-Serif" font-size="14.00">True</text>
</g>
<!-- 9212 -->
<g id="node17" class="node">
<title>9212</title>
<path fill="#cae5f8" stroke="black" d="M978,-426.75C978,-426.75 818,-426.75 818,-426.75 812,-426.75 806,-420.75 806,-414.75 806,-414.75 806,-344.5 806,-344.5 806,-338.5 812,-332.5 818,-332.5 818,-332.5 978,-332.5 978,-332.5 984,-332.5 990,-338.5 990,-344.5 990,-344.5 990,-414.75 990,-414.75 990,-420.75 984,-426.75 978,-426.75"/>
<text text-anchor="middle" x="898" y="-409.45" font-family="Helvetica,sans-Serif" font-size="14.00">19_C &lt;= 0.5</text>
<text text-anchor="middle" x="898" y="-392.2" font-family="Helvetica,sans-Serif" font-size="14.00">entropy = 0.983</text>
<text text-anchor="middle" x="898" y="-374.95" font-family="Helvetica,sans-Serif" font-size="14.00">samples = 20177</text>
<text text-anchor="middle" x="898" y="-357.7" font-family="Helvetica,sans-Serif" font-size="14.00">value = [13528, 18473]</text>
<text text-anchor="middle" x="898" y="-340.45" font-family="Helvetica,sans-Serif" font-size="14.00">class = Plant</text>
</g>
<!-- 0&#45;&gt;9212 -->
<g id="edge16" class="edge">
<title>0&#45;&gt;9212</title>
<path fill="none" stroke="black" d="M777.5,-462.39C791.37,-452.98 806.04,-443.03 820.2,-433.42"/>
<polygon fill="black" stroke="black" points="821.85,-436.53 828.16,-428.01 817.92,-430.73 821.85,-436.53"/>
<text text-anchor="middle" x="824.71" y="-447.04" font-family="Helvetica,sans-Serif" font-size="14.00">False</text>
</g>
<!-- 2 -->
<g id="node3" class="node">
<title>2</title>
<path fill="#fae7da" stroke="black" d="M361,-296.5C361,-296.5 201,-296.5 201,-296.5 195,-296.5 189,-290.5 189,-284.5 189,-284.5 189,-214.25 189,-214.25 189,-208.25 195,-202.25 201,-202.25 201,-202.25 361,-202.25 361,-202.25 367,-202.25 373,-208.25 373,-214.25 373,-214.25 373,-284.5 373,-284.5 373,-290.5 367,-296.5 361,-296.5"/>
<text text-anchor="middle" x="281" y="-279.2" font-family="Helvetica,sans-Serif" font-size="14.00">22_A &lt;= 0.5</text>
<text text-anchor="middle" x="281" y="-261.95" font-family="Helvetica,sans-Serif" font-size="14.00">entropy = 0.992</text>
<text text-anchor="middle" x="281" y="-244.7" font-family="Helvetica,sans-Serif" font-size="14.00">samples = 15485</text>
<text text-anchor="middle" x="281" y="-227.45" font-family="Helvetica,sans-Serif" font-size="14.00">value = [13523, 10965]</text>
<text text-anchor="middle" x="281" y="-210.2" font-family="Helvetica,sans-Serif" font-size="14.00">class = Animal</text>
</g>
<!-- 1&#45;&gt;2 -->
<g id="edge2" class="edge">
<title>1&#45;&gt;2</title>
<path fill="none" stroke="black" d="M446.58,-332.69C426.08,-322.49 404.24,-311.63 383.36,-301.26"/>
<polygon fill="black" stroke="black" points="385.07,-298.2 374.56,-296.88 381.96,-304.47 385.07,-298.2"/>
</g>
<!-- 8179 -->
<g id="node10" class="node">
<title>8179</title>
<path fill="#eca572" stroke="black" d="M605.5,-296.5C605.5,-296.5 472.5,-296.5 472.5,-296.5 466.5,-296.5 460.5,-290.5 460.5,-284.5 460.5,-284.5 460.5,-214.25 460.5,-214.25 460.5,-208.25 466.5,-202.25 472.5,-202.25 472.5,-202.25 605.5,-202.25 605.5,-202.25 611.5,-202.25 617.5,-208.25 617.5,-214.25 617.5,-214.25 617.5,-284.5 617.5,-284.5 617.5,-290.5 611.5,-296.5 605.5,-296.5"/>
<text text-anchor="middle" x="539" y="-279.2" font-family="Helvetica,sans-Serif" font-size="14.00">19_U &lt;= 0.5</text>
<text text-anchor="middle" x="539" y="-261.95" font-family="Helvetica,sans-Serif" font-size="14.00">entropy = 0.767</text>
<text text-anchor="middle" x="539" y="-244.7" font-family="Helvetica,sans-Serif" font-size="14.00">samples = 2450</text>
<text text-anchor="middle" x="539" y="-227.45" font-family="Helvetica,sans-Serif" font-size="14.00">value = [2993, 863]</text>
<text text-anchor="middle" x="539" y="-210.2" font-family="Helvetica,sans-Serif" font-size="14.00">class = Animal</text>
</g>
<!-- 1&#45;&gt;8179 -->
<g id="edge9" class="edge">
<title>1&#45;&gt;8179</title>
<path fill="none" stroke="black" d="M539,-332.32C539,-324.42 539,-316.13 539,-307.98"/>
<polygon fill="black" stroke="black" points="542.5,-308.12 539,-298.12 535.5,-308.12 542.5,-308.12"/>
</g>
<!-- 3 -->
<g id="node4" class="node">
<title>3</title>
<path fill="#fdf4ee" stroke="black" d="M172,-166.25C172,-166.25 12,-166.25 12,-166.25 6,-166.25 0,-160.25 0,-154.25 0,-154.25 0,-84 0,-84 0,-78 6,-72 12,-72 12,-72 172,-72 172,-72 178,-72 184,-78 184,-84 184,-84 184,-154.25 184,-154.25 184,-160.25 178,-166.25 172,-166.25"/>
<text text-anchor="middle" x="92" y="-148.95" font-family="Helvetica,sans-Serif" font-size="14.00">22_U &lt;= 0.5</text>
<text text-anchor="middle" x="92" y="-131.7" font-family="Helvetica,sans-Serif" font-size="14.00">entropy = 0.998</text>
<text text-anchor="middle" x="92" y="-114.45" font-family="Helvetica,sans-Serif" font-size="14.00">samples = 13419</text>
<text text-anchor="middle" x="92" y="-97.2" font-family="Helvetica,sans-Serif" font-size="14.00">value = [11118, 10148]</text>
<text text-anchor="middle" x="92" y="-79.95" font-family="Helvetica,sans-Serif" font-size="14.00">class = Animal</text>
</g>
<!-- 2&#45;&gt;3 -->
<g id="edge3" class="edge">
<title>2&#45;&gt;3</title>
<path fill="none" stroke="black" d="M212.5,-201.89C198.63,-192.48 183.96,-182.53 169.8,-172.92"/>
<polygon fill="black" stroke="black" points="172.08,-170.23 161.84,-167.51 168.15,-176.03 172.08,-170.23"/>
</g>
<!-- 7140 -->
<g id="node7" class="node">
<title>7140</title>
<path fill="#eeac7c" stroke="black" d="M347.5,-166.25C347.5,-166.25 214.5,-166.25 214.5,-166.25 208.5,-166.25 202.5,-160.25 202.5,-154.25 202.5,-154.25 202.5,-84 202.5,-84 202.5,-78 208.5,-72 214.5,-72 214.5,-72 347.5,-72 347.5,-72 353.5,-72 359.5,-78 359.5,-84 359.5,-84 359.5,-154.25 359.5,-154.25 359.5,-160.25 353.5,-166.25 347.5,-166.25"/>
<text text-anchor="middle" x="281" y="-148.95" font-family="Helvetica,sans-Serif" font-size="14.00">1_C &lt;= 0.5</text>
<text text-anchor="middle" x="281" y="-131.7" font-family="Helvetica,sans-Serif" font-size="14.00">entropy = 0.817</text>
<text text-anchor="middle" x="281" y="-114.45" font-family="Helvetica,sans-Serif" font-size="14.00">samples = 2066</text>
<text text-anchor="middle" x="281" y="-97.2" font-family="Helvetica,sans-Serif" font-size="14.00">value = [2405, 817]</text>
<text text-anchor="middle" x="281" y="-79.95" font-family="Helvetica,sans-Serif" font-size="14.00">class = Animal</text>
</g>
<!-- 2&#45;&gt;7140 -->
<g id="edge6" class="edge">
<title>2&#45;&gt;7140</title>
<path fill="none" stroke="black" d="M281,-202.07C281,-194.17 281,-185.88 281,-177.73"/>
<polygon fill="black" stroke="black" points="284.5,-177.87 281,-167.87 277.5,-177.87 284.5,-177.87"/>
</g>
<!-- 4 -->
<g id="node5" class="node">
<title>4</title>
<path fill="#c0c0c0" stroke="black" d="M71,-36C71,-36 41,-36 41,-36 35,-36 29,-30 29,-24 29,-24 29,-12 29,-12 29,-6 35,0 41,0 41,0 71,0 71,0 77,0 83,-6 83,-12 83,-12 83,-24 83,-24 83,-30 77,-36 71,-36"/>
<text text-anchor="middle" x="56" y="-13.32" font-family="Helvetica,sans-Serif" font-size="14.00">(...)</text>
</g>
<!-- 3&#45;&gt;4 -->
<g id="edge4" class="edge">
<title>3&#45;&gt;4</title>
<path fill="none" stroke="black" d="M75.16,-71.75C72.06,-63.22 68.92,-54.57 66.1,-46.8"/>
<polygon fill="black" stroke="black" points="69.46,-45.8 62.75,-37.6 62.88,-48.19 69.46,-45.8"/>
</g>
<!-- 6137 -->
<g id="node6" class="node">
<title>6137</title>
<path fill="#c0c0c0" stroke="black" d="M143,-36C143,-36 113,-36 113,-36 107,-36 101,-30 101,-24 101,-24 101,-12 101,-12 101,-6 107,0 113,0 113,0 143,0 143,0 149,0 155,-6 155,-12 155,-12 155,-24 155,-24 155,-30 149,-36 143,-36"/>
<text text-anchor="middle" x="128" y="-13.32" font-family="Helvetica,sans-Serif" font-size="14.00">(...)</text>
</g>
<!-- 3&#45;&gt;6137 -->
<g id="edge5" class="edge">
<title>3&#45;&gt;6137</title>
<path fill="none" stroke="black" d="M108.84,-71.75C111.94,-63.22 115.08,-54.57 117.9,-46.8"/>
<polygon fill="black" stroke="black" points="121.12,-48.19 121.25,-37.6 114.54,-45.8 121.12,-48.19"/>
</g>
<!-- 7141 -->
<g id="node8" class="node">
<title>7141</title>
<path fill="#c0c0c0" stroke="black" d="M255,-36C255,-36 225,-36 225,-36 219,-36 213,-30 213,-24 213,-24 213,-12 213,-12 213,-6 219,0 225,0 225,0 255,0 255,0 261,0 267,-6 267,-12 267,-12 267,-24 267,-24 267,-30 261,-36 255,-36"/>
<text text-anchor="middle" x="240" y="-13.32" font-family="Helvetica,sans-Serif" font-size="14.00">(...)</text>
</g>
<!-- 7140&#45;&gt;7141 -->
<g id="edge7" class="edge">
<title>7140&#45;&gt;7141</title>
<path fill="none" stroke="black" d="M261.82,-71.75C258.29,-63.22 254.71,-54.57 251.5,-46.8"/>
<polygon fill="black" stroke="black" points="254.74,-45.47 247.68,-37.57 248.27,-48.15 254.74,-45.47"/>
</g>
<!-- 7814 -->
<g id="node9" class="node">
<title>7814</title>
<path fill="#c0c0c0" stroke="black" d="M327,-36C327,-36 297,-36 297,-36 291,-36 285,-30 285,-24 285,-24 285,-12 285,-12 285,-6 291,0 297,0 297,0 327,0 327,0 333,0 339,-6 339,-12 339,-12 339,-24 339,-24 339,-30 333,-36 327,-36"/>
<text text-anchor="middle" x="312" y="-13.32" font-family="Helvetica,sans-Serif" font-size="14.00">(...)</text>
</g>
<!-- 7140&#45;&gt;7814 -->
<g id="edge8" class="edge">
<title>7140&#45;&gt;7814</title>
<path fill="none" stroke="black" d="M295.5,-71.75C298.14,-63.32 300.81,-54.77 303.22,-47.07"/>
<polygon fill="black" stroke="black" points="306.53,-48.21 306.18,-37.62 299.85,-46.12 306.53,-48.21"/>
</g>
<!-- 8180 -->
<g id="node11" class="node">
<title>8180</title>
<path fill="#eeac7c" stroke="black" d="M522.5,-166.25C522.5,-166.25 389.5,-166.25 389.5,-166.25 383.5,-166.25 377.5,-160.25 377.5,-154.25 377.5,-154.25 377.5,-84 377.5,-84 377.5,-78 383.5,-72 389.5,-72 389.5,-72 522.5,-72 522.5,-72 528.5,-72 534.5,-78 534.5,-84 534.5,-84 534.5,-154.25 534.5,-154.25 534.5,-160.25 528.5,-166.25 522.5,-166.25"/>
<text text-anchor="middle" x="456" y="-148.95" font-family="Helvetica,sans-Serif" font-size="14.00">9_A &lt;= 0.5</text>
<text text-anchor="middle" x="456" y="-131.7" font-family="Helvetica,sans-Serif" font-size="14.00">entropy = 0.816</text>
<text text-anchor="middle" x="456" y="-114.45" font-family="Helvetica,sans-Serif" font-size="14.00">samples = 1643</text>
<text text-anchor="middle" x="456" y="-97.2" font-family="Helvetica,sans-Serif" font-size="14.00">value = [1921, 650]</text>
<text text-anchor="middle" x="456" y="-79.95" font-family="Helvetica,sans-Serif" font-size="14.00">class = Animal</text>
</g>
<!-- 8179&#45;&gt;8180 -->
<g id="edge10" class="edge">
<title>8179&#45;&gt;8180</title>
<path fill="none" stroke="black" d="M509.04,-202.07C503.51,-193.54 497.69,-184.54 492.01,-175.77"/>
<polygon fill="black" stroke="black" points="495.11,-174.12 486.74,-167.63 489.24,-177.93 495.11,-174.12"/>
</g>
<!-- 8945 -->
<g id="node14" class="node">
<title>8945</title>
<path fill="#ea9a60" stroke="black" d="M697.5,-166.25C697.5,-166.25 564.5,-166.25 564.5,-166.25 558.5,-166.25 552.5,-160.25 552.5,-154.25 552.5,-154.25 552.5,-84 552.5,-84 552.5,-78 558.5,-72 564.5,-72 564.5,-72 697.5,-72 697.5,-72 703.5,-72 709.5,-78 709.5,-84 709.5,-84 709.5,-154.25 709.5,-154.25 709.5,-160.25 703.5,-166.25 697.5,-166.25"/>
<text text-anchor="middle" x="631" y="-148.95" font-family="Helvetica,sans-Serif" font-size="14.00">27_U &lt;= 0.5</text>
<text text-anchor="middle" x="631" y="-131.7" font-family="Helvetica,sans-Serif" font-size="14.00">entropy = 0.648</text>
<text text-anchor="middle" x="631" y="-114.45" font-family="Helvetica,sans-Serif" font-size="14.00">samples = 807</text>
<text text-anchor="middle" x="631" y="-97.2" font-family="Helvetica,sans-Serif" font-size="14.00">value = [1072, 213]</text>
<text text-anchor="middle" x="631" y="-79.95" font-family="Helvetica,sans-Serif" font-size="14.00">class = Animal</text>
</g>
<!-- 8179&#45;&gt;8945 -->
<g id="edge13" class="edge">
<title>8179&#45;&gt;8945</title>
<path fill="none" stroke="black" d="M572.21,-202.07C578.4,-193.45 584.93,-184.35 591.29,-175.49"/>
<polygon fill="black" stroke="black" points="593.97,-177.75 596.95,-167.59 588.28,-173.67 593.97,-177.75"/>
</g>
<!-- 8181 -->
<g id="node12" class="node">
<title>8181</title>
<path fill="#c0c0c0" stroke="black" d="M414,-36C414,-36 384,-36 384,-36 378,-36 372,-30 372,-24 372,-24 372,-12 372,-12 372,-6 378,0 384,0 384,0 414,0 414,0 420,0 426,-6 426,-12 426,-12 426,-24 426,-24 426,-30 420,-36 414,-36"/>
<text text-anchor="middle" x="399" y="-13.32" font-family="Helvetica,sans-Serif" font-size="14.00">(...)</text>
</g>
<!-- 8180&#45;&gt;8181 -->
<g id="edge11" class="edge">
<title>8180&#45;&gt;8181</title>
<path fill="none" stroke="black" d="M429.34,-71.75C424.26,-62.93 419.1,-53.96 414.52,-45.99"/>
<polygon fill="black" stroke="black" points="417.65,-44.41 409.63,-37.48 411.58,-47.9 417.65,-44.41"/>
</g>
<!-- 8758 -->
<g id="node13" class="node">
<title>8758</title>
<path fill="#c0c0c0" stroke="black" d="M486,-36C486,-36 456,-36 456,-36 450,-36 444,-30 444,-24 444,-24 444,-12 444,-12 444,-6 450,0 456,0 456,0 486,0 486,0 492,0 498,-6 498,-12 498,-12 498,-24 498,-24 498,-30 492,-36 486,-36"/>
<text text-anchor="middle" x="471" y="-13.32" font-family="Helvetica,sans-Serif" font-size="14.00">(...)</text>
</g>
<!-- 8180&#45;&gt;8758 -->
<g id="edge12" class="edge">
<title>8180&#45;&gt;8758</title>
<path fill="none" stroke="black" d="M463.02,-71.75C464.28,-63.42 465.56,-54.97 466.71,-47.34"/>
<polygon fill="black" stroke="black" points="470.14,-48.08 468.17,-37.67 463.22,-47.03 470.14,-48.08"/>
</g>
<!-- 8946 -->
<g id="node15" class="node">
<title>8946</title>
<path fill="#c0c0c0" stroke="black" d="M592,-36C592,-36 562,-36 562,-36 556,-36 550,-30 550,-24 550,-24 550,-12 550,-12 550,-6 556,0 562,0 562,0 592,0 592,0 598,0 604,-6 604,-12 604,-12 604,-24 604,-24 604,-30 598,-36 592,-36"/>
<text text-anchor="middle" x="577" y="-13.32" font-family="Helvetica,sans-Serif" font-size="14.00">(...)</text>
</g>
<!-- 8945&#45;&gt;8946 -->
<g id="edge14" class="edge">
<title>8945&#45;&gt;8946</title>
<path fill="none" stroke="black" d="M605.74,-71.75C600.98,-63.03 596.16,-54.16 591.85,-46.26"/>
<polygon fill="black" stroke="black" points="594.94,-44.61 587.08,-37.5 588.79,-47.96 594.94,-44.61"/>
</g>
<!-- 9209 -->
<g id="node16" class="node">
<title>9209</title>
<path fill="#c0c0c0" stroke="black" d="M664,-36C664,-36 634,-36 634,-36 628,-36 622,-30 622,-24 622,-24 622,-12 622,-12 622,-6 628,0 634,0 634,0 664,0 664,0 670,0 676,-6 676,-12 676,-12 676,-24 676,-24 676,-30 670,-36 664,-36"/>
<text text-anchor="middle" x="649" y="-13.32" font-family="Helvetica,sans-Serif" font-size="14.00">(...)</text>
</g>
<!-- 8945&#45;&gt;9209 -->
<g id="edge15" class="edge">
<title>8945&#45;&gt;9209</title>
<path fill="none" stroke="black" d="M639.42,-71.75C640.93,-63.42 642.47,-54.97 643.85,-47.34"/>
<polygon fill="black" stroke="black" points="647.27,-48.13 645.61,-37.66 640.38,-46.88 647.27,-48.13"/>
</g>
<!-- 9213 -->
<g id="node18" class="node">
<title>9213</title>
<path fill="#fef9f6" stroke="black" d="M978,-296.5C978,-296.5 818,-296.5 818,-296.5 812,-296.5 806,-290.5 806,-284.5 806,-284.5 806,-214.25 806,-214.25 806,-208.25 812,-202.25 818,-202.25 818,-202.25 978,-202.25 978,-202.25 984,-202.25 990,-208.25 990,-214.25 990,-214.25 990,-284.5 990,-284.5 990,-290.5 984,-296.5 978,-296.5"/>
<text text-anchor="middle" x="898" y="-279.2" font-family="Helvetica,sans-Serif" font-size="14.00">20_G &lt;= 0.5</text>
<text text-anchor="middle" x="898" y="-261.95" font-family="Helvetica,sans-Serif" font-size="14.00">entropy = 1.0</text>
<text text-anchor="middle" x="898" y="-244.7" font-family="Helvetica,sans-Serif" font-size="14.00">samples = 12983</text>
<text text-anchor="middle" x="898" y="-227.45" font-family="Helvetica,sans-Serif" font-size="14.00">value = [10502, 10036]</text>
<text text-anchor="middle" x="898" y="-210.2" font-family="Helvetica,sans-Serif" font-size="14.00">class = Animal</text>
</g>
<!-- 9212&#45;&gt;9213 -->
<g id="edge17" class="edge">
<title>9212&#45;&gt;9213</title>
<path fill="none" stroke="black" d="M898,-332.32C898,-324.42 898,-316.13 898,-307.98"/>
<polygon fill="black" stroke="black" points="901.5,-308.12 898,-298.12 894.5,-308.12 901.5,-308.12"/>
</g>
<!-- 14794 -->
<g id="node25" class="node">
<title>14794</title>
<path fill="#80c0ee" stroke="black" d="M1250,-296.5C1250,-296.5 1108,-296.5 1108,-296.5 1102,-296.5 1096,-290.5 1096,-284.5 1096,-284.5 1096,-214.25 1096,-214.25 1096,-208.25 1102,-202.25 1108,-202.25 1108,-202.25 1250,-202.25 1250,-202.25 1256,-202.25 1262,-208.25 1262,-214.25 1262,-214.25 1262,-284.5 1262,-284.5 1262,-290.5 1256,-296.5 1250,-296.5"/>
<text text-anchor="middle" x="1179" y="-279.2" font-family="Helvetica,sans-Serif" font-size="14.00">4_U &lt;= 0.5</text>
<text text-anchor="middle" x="1179" y="-261.95" font-family="Helvetica,sans-Serif" font-size="14.00">entropy = 0.833</text>
<text text-anchor="middle" x="1179" y="-244.7" font-family="Helvetica,sans-Serif" font-size="14.00">samples = 7194</text>
<text text-anchor="middle" x="1179" y="-227.45" font-family="Helvetica,sans-Serif" font-size="14.00">value = [3026, 8437]</text>
<text text-anchor="middle" x="1179" y="-210.2" font-family="Helvetica,sans-Serif" font-size="14.00">class = Plant</text>
</g>
<!-- 9212&#45;&gt;14794 -->
<g id="edge24" class="edge">
<title>9212&#45;&gt;14794</title>
<path fill="none" stroke="black" d="M990.4,-336.45C1020.87,-322.55 1054.77,-307.08 1085.33,-293.13"/>
<polygon fill="black" stroke="black" points="1086.53,-296.42 1094.18,-289.09 1083.63,-290.06 1086.53,-296.42"/>
</g>
<!-- 9214 -->
<g id="node19" class="node">
<title>9214</title>
<path fill="#deeefb" stroke="black" d="M882,-166.25C882,-166.25 740,-166.25 740,-166.25 734,-166.25 728,-160.25 728,-154.25 728,-154.25 728,-84 728,-84 728,-78 734,-72 740,-72 740,-72 882,-72 882,-72 888,-72 894,-78 894,-84 894,-84 894,-154.25 894,-154.25 894,-160.25 888,-166.25 882,-166.25"/>
<text text-anchor="middle" x="811" y="-148.95" font-family="Helvetica,sans-Serif" font-size="14.00">19_A &lt;= 0.5</text>
<text text-anchor="middle" x="811" y="-131.7" font-family="Helvetica,sans-Serif" font-size="14.00">entropy = 0.994</text>
<text text-anchor="middle" x="811" y="-114.45" font-family="Helvetica,sans-Serif" font-size="14.00">samples = 9800</text>
<text text-anchor="middle" x="811" y="-97.2" font-family="Helvetica,sans-Serif" font-size="14.00">value = [7038, 8467]</text>
<text text-anchor="middle" x="811" y="-79.95" font-family="Helvetica,sans-Serif" font-size="14.00">class = Plant</text>
</g>
<!-- 9213&#45;&gt;9214 -->
<g id="edge18" class="edge">
<title>9213&#45;&gt;9214</title>
<path fill="none" stroke="black" d="M866.59,-202.07C860.8,-193.54 854.7,-184.54 848.75,-175.77"/>
<polygon fill="black" stroke="black" points="851.72,-173.92 843.21,-167.61 845.93,-177.85 851.72,-173.92"/>
</g>
<!-- 13325 -->
<g id="node22" class="node">
<title>13325</title>
<path fill="#f1ba93" stroke="black" d="M1066,-166.25C1066,-166.25 924,-166.25 924,-166.25 918,-166.25 912,-160.25 912,-154.25 912,-154.25 912,-84 912,-84 912,-78 918,-72 924,-72 924,-72 1066,-72 1066,-72 1072,-72 1078,-78 1078,-84 1078,-84 1078,-154.25 1078,-154.25 1078,-160.25 1072,-166.25 1066,-166.25"/>
<text text-anchor="middle" x="995" y="-148.95" font-family="Helvetica,sans-Serif" font-size="14.00">25_G &lt;= 0.5</text>
<text text-anchor="middle" x="995" y="-131.7" font-family="Helvetica,sans-Serif" font-size="14.00">entropy = 0.895</text>
<text text-anchor="middle" x="995" y="-114.45" font-family="Helvetica,sans-Serif" font-size="14.00">samples = 3183</text>
<text text-anchor="middle" x="995" y="-97.2" font-family="Helvetica,sans-Serif" font-size="14.00">value = [3464, 1569]</text>
<text text-anchor="middle" x="995" y="-79.95" font-family="Helvetica,sans-Serif" font-size="14.00">class = Animal</text>
</g>
<!-- 9213&#45;&gt;13325 -->
<g id="edge21" class="edge">
<title>9213&#45;&gt;13325</title>
<path fill="none" stroke="black" d="M933.02,-202.07C939.54,-193.45 946.42,-184.35 953.13,-175.49"/>
<polygon fill="black" stroke="black" points="955.88,-177.65 959.12,-167.57 950.3,-173.43 955.88,-177.65"/>
</g>
<!-- 9215 -->
<g id="node20" class="node">
<title>9215</title>
<path fill="#c0c0c0" stroke="black" d="M774,-36C774,-36 744,-36 744,-36 738,-36 732,-30 732,-24 732,-24 732,-12 732,-12 732,-6 738,0 744,0 744,0 774,0 774,0 780,0 786,-6 786,-12 786,-12 786,-24 786,-24 786,-30 780,-36 774,-36"/>
<text text-anchor="middle" x="759" y="-13.32" font-family="Helvetica,sans-Serif" font-size="14.00">(...)</text>
</g>
<!-- 9214&#45;&gt;9215 -->
<g id="edge19" class="edge">
<title>9214&#45;&gt;9215</title>
<path fill="none" stroke="black" d="M786.67,-71.75C782.1,-63.03 777.45,-54.16 773.3,-46.26"/>
<polygon fill="black" stroke="black" points="776.46,-44.74 768.71,-37.51 770.26,-47.99 776.46,-44.74"/>
</g>
<!-- 12160 -->
<g id="node21" class="node">
<title>12160</title>
<path fill="#c0c0c0" stroke="black" d="M846,-36C846,-36 816,-36 816,-36 810,-36 804,-30 804,-24 804,-24 804,-12 804,-12 804,-6 810,0 816,0 816,0 846,0 846,0 852,0 858,-6 858,-12 858,-12 858,-24 858,-24 858,-30 852,-36 846,-36"/>
<text text-anchor="middle" x="831" y="-13.32" font-family="Helvetica,sans-Serif" font-size="14.00">(...)</text>
</g>
<!-- 9214&#45;&gt;12160 -->
<g id="edge20" class="edge">
<title>9214&#45;&gt;12160</title>
<path fill="none" stroke="black" d="M820.36,-71.75C822.04,-63.42 823.74,-54.97 825.28,-47.34"/>
<polygon fill="black" stroke="black" points="828.69,-48.15 827.24,-37.66 821.83,-46.77 828.69,-48.15"/>
</g>
<!-- 13326 -->
<g id="node23" class="node">
<title>13326</title>
<path fill="#c0c0c0" stroke="black" d="M958,-36C958,-36 928,-36 928,-36 922,-36 916,-30 916,-24 916,-24 916,-12 916,-12 916,-6 922,0 928,0 928,0 958,0 958,0 964,0 970,-6 970,-12 970,-12 970,-24 970,-24 970,-30 964,-36 958,-36"/>
<text text-anchor="middle" x="943" y="-13.32" font-family="Helvetica,sans-Serif" font-size="14.00">(...)</text>
</g>
<!-- 13325&#45;&gt;13326 -->
<g id="edge22" class="edge">
<title>13325&#45;&gt;13326</title>
<path fill="none" stroke="black" d="M970.67,-71.75C966.1,-63.03 961.45,-54.16 957.3,-46.26"/>
<polygon fill="black" stroke="black" points="960.46,-44.74 952.71,-37.51 954.26,-47.99 960.46,-44.74"/>
</g>
<!-- 14793 -->
<g id="node24" class="node">
<title>14793</title>
<path fill="#c0c0c0" stroke="black" d="M1030,-36C1030,-36 1000,-36 1000,-36 994,-36 988,-30 988,-24 988,-24 988,-12 988,-12 988,-6 994,0 1000,0 1000,0 1030,0 1030,0 1036,0 1042,-6 1042,-12 1042,-12 1042,-24 1042,-24 1042,-30 1036,-36 1030,-36"/>
<text text-anchor="middle" x="1015" y="-13.32" font-family="Helvetica,sans-Serif" font-size="14.00">(...)</text>
</g>
<!-- 13325&#45;&gt;14793 -->
<g id="edge23" class="edge">
<title>13325&#45;&gt;14793</title>
<path fill="none" stroke="black" d="M1004.36,-71.75C1006.04,-63.42 1007.74,-54.97 1009.28,-47.34"/>
<polygon fill="black" stroke="black" points="1012.69,-48.15 1011.24,-37.66 1005.83,-46.77 1012.69,-48.15"/>
</g>
<!-- 14795 -->
<g id="node26" class="node">
<title>14795</title>
<path fill="#71b9ec" stroke="black" d="M1250,-166.25C1250,-166.25 1108,-166.25 1108,-166.25 1102,-166.25 1096,-160.25 1096,-154.25 1096,-154.25 1096,-84 1096,-84 1096,-78 1102,-72 1108,-72 1108,-72 1250,-72 1250,-72 1256,-72 1262,-78 1262,-84 1262,-84 1262,-154.25 1262,-154.25 1262,-160.25 1256,-166.25 1250,-166.25"/>
<text text-anchor="middle" x="1179" y="-148.95" font-family="Helvetica,sans-Serif" font-size="14.00">3_G &lt;= 0.5</text>
<text text-anchor="middle" x="1179" y="-131.7" font-family="Helvetica,sans-Serif" font-size="14.00">entropy = 0.76</text>
<text text-anchor="middle" x="1179" y="-114.45" font-family="Helvetica,sans-Serif" font-size="14.00">samples = 6477</text>
<text text-anchor="middle" x="1179" y="-97.2" font-family="Helvetica,sans-Serif" font-size="14.00">value = [2274, 8057]</text>
<text text-anchor="middle" x="1179" y="-79.95" font-family="Helvetica,sans-Serif" font-size="14.00">class = Plant</text>
</g>
<!-- 14794&#45;&gt;14795 -->
<g id="edge25" class="edge">
<title>14794&#45;&gt;14795</title>
<path fill="none" stroke="black" d="M1179,-202.07C1179,-194.17 1179,-185.88 1179,-177.73"/>
<polygon fill="black" stroke="black" points="1182.5,-177.87 1179,-167.87 1175.5,-177.87 1182.5,-177.87"/>
</g>
<!-- 16284 -->
<g id="node29" class="node">
<title>16284</title>
<path fill="#f2c19d" stroke="black" d="M1416,-166.25C1416,-166.25 1292,-166.25 1292,-166.25 1286,-166.25 1280,-160.25 1280,-154.25 1280,-154.25 1280,-84 1280,-84 1280,-78 1286,-72 1292,-72 1292,-72 1416,-72 1416,-72 1422,-72 1428,-78 1428,-84 1428,-84 1428,-154.25 1428,-154.25 1428,-160.25 1422,-166.25 1416,-166.25"/>
<text text-anchor="middle" x="1354" y="-148.95" font-family="Helvetica,sans-Serif" font-size="14.00">9_G &lt;= 0.5</text>
<text text-anchor="middle" x="1354" y="-131.7" font-family="Helvetica,sans-Serif" font-size="14.00">entropy = 0.921</text>
<text text-anchor="middle" x="1354" y="-114.45" font-family="Helvetica,sans-Serif" font-size="14.00">samples = 717</text>
<text text-anchor="middle" x="1354" y="-97.2" font-family="Helvetica,sans-Serif" font-size="14.00">value = [752, 380]</text>
<text text-anchor="middle" x="1354" y="-79.95" font-family="Helvetica,sans-Serif" font-size="14.00">class = Animal</text>
</g>
<!-- 14794&#45;&gt;16284 -->
<g id="edge28" class="edge">
<title>14794&#45;&gt;16284</title>
<path fill="none" stroke="black" d="M1242.18,-202.07C1254.99,-192.69 1268.55,-182.75 1281.64,-173.15"/>
<polygon fill="black" stroke="black" points="1283.4,-176.2 1289.4,-167.47 1279.26,-170.56 1283.4,-176.2"/>
</g>
<!-- 14796 -->
<g id="node27" class="node">
<title>14796</title>
<path fill="#c0c0c0" stroke="black" d="M1155,-36C1155,-36 1125,-36 1125,-36 1119,-36 1113,-30 1113,-24 1113,-24 1113,-12 1113,-12 1113,-6 1119,0 1125,0 1125,0 1155,0 1155,0 1161,0 1167,-6 1167,-12 1167,-12 1167,-24 1167,-24 1167,-30 1161,-36 1155,-36"/>
<text text-anchor="middle" x="1140" y="-13.32" font-family="Helvetica,sans-Serif" font-size="14.00">(...)</text>
</g>
<!-- 14795&#45;&gt;14796 -->
<g id="edge26" class="edge">
<title>14795&#45;&gt;14796</title>
<path fill="none" stroke="black" d="M1160.76,-71.75C1157.4,-63.22 1153.99,-54.57 1150.94,-46.8"/>
<polygon fill="black" stroke="black" points="1154.23,-45.61 1147.31,-37.58 1147.71,-48.17 1154.23,-45.61"/>
</g>
<!-- 15891 -->
<g id="node28" class="node">
<title>15891</title>
<path fill="#c0c0c0" stroke="black" d="M1227,-36C1227,-36 1197,-36 1197,-36 1191,-36 1185,-30 1185,-24 1185,-24 1185,-12 1185,-12 1185,-6 1191,0 1197,0 1197,0 1227,0 1227,0 1233,0 1239,-6 1239,-12 1239,-12 1239,-24 1239,-24 1239,-30 1233,-36 1227,-36"/>
<text text-anchor="middle" x="1212" y="-13.32" font-family="Helvetica,sans-Serif" font-size="14.00">(...)</text>
</g>
<!-- 14795&#45;&gt;15891 -->
<g id="edge27" class="edge">
<title>14795&#45;&gt;15891</title>
<path fill="none" stroke="black" d="M1194.44,-71.75C1197.24,-63.32 1200.09,-54.77 1202.66,-47.07"/>
<polygon fill="black" stroke="black" points="1205.97,-48.2 1205.8,-37.61 1199.33,-45.99 1205.97,-48.2"/>
</g>
<!-- 16285 -->
<g id="node30" class="node">
<title>16285</title>
<path fill="#c0c0c0" stroke="black" d="M1333,-36C1333,-36 1303,-36 1303,-36 1297,-36 1291,-30 1291,-24 1291,-24 1291,-12 1291,-12 1291,-6 1297,0 1303,0 1303,0 1333,0 1333,0 1339,0 1345,-6 1345,-12 1345,-12 1345,-24 1345,-24 1345,-30 1339,-36 1333,-36"/>
<text text-anchor="middle" x="1318" y="-13.32" font-family="Helvetica,sans-Serif" font-size="14.00">(...)</text>
</g>
<!-- 16284&#45;&gt;16285 -->
<g id="edge29" class="edge">
<title>16284&#45;&gt;16285</title>
<path fill="none" stroke="black" d="M1337.16,-71.75C1334.06,-63.22 1330.92,-54.57 1328.1,-46.8"/>
<polygon fill="black" stroke="black" points="1331.46,-45.8 1324.75,-37.6 1324.88,-48.19 1331.46,-45.8"/>
</g>
<!-- 16552 -->
<g id="node31" class="node">
<title>16552</title>
<path fill="#c0c0c0" stroke="black" d="M1405,-36C1405,-36 1375,-36 1375,-36 1369,-36 1363,-30 1363,-24 1363,-24 1363,-12 1363,-12 1363,-6 1369,0 1375,0 1375,0 1405,0 1405,0 1411,0 1417,-6 1417,-12 1417,-12 1417,-24 1417,-24 1417,-30 1411,-36 1405,-36"/>
<text text-anchor="middle" x="1390" y="-13.32" font-family="Helvetica,sans-Serif" font-size="14.00">(...)</text>
</g>
<!-- 16284&#45;&gt;16552 -->
<g id="edge30" class="edge">
<title>16284&#45;&gt;16552</title>
<path fill="none" stroke="black" d="M1370.84,-71.75C1373.94,-63.22 1377.08,-54.57 1379.9,-46.8"/>
<polygon fill="black" stroke="black" points="1383.12,-48.19 1383.25,-37.6 1376.54,-45.8 1383.12,-48.19"/>
</g>
</g>
</svg>
