<?xml version="1.0" encoding="UTF-8" standalone="no"?>
<!DOCTYPE svg PUBLIC "-//W3C//DTD SVG 1.1//EN"
 "http://www.w3.org/Graphics/SVG/1.1/DTD/svg11.dtd">
<!-- Generated by graphviz version 12.0.0 (20240803.0821)
 -->
<!-- Title: Tree Pages: 1 -->
<svg width="1410pt" height="565pt"
 viewBox="0.00 0.00 1409.50 565.00" xmlns="http://www.w3.org/2000/svg" xmlns:xlink="http://www.w3.org/1999/xlink">
<g id="graph0" class="graph" transform="scale(1 1) rotate(0) translate(4 561)">
<title>Tree</title>
<polygon fill="white" stroke="none" points="-4,4 -4,-561 1405.5,-561 1405.5,4 -4,4"/>
<!-- 0 -->
<g id="node1" class="node">
<title>0</title>
<path fill="#fffefd" stroke="black" d="M803,-557C803,-557 643,-557 643,-557 637,-557 631,-551 631,-545 631,-545 631,-474.75 631,-474.75 631,-468.75 637,-462.75 643,-462.75 643,-462.75 803,-462.75 803,-462.75 809,-462.75 815,-468.75 815,-474.75 815,-474.75 815,-545 815,-545 815,-551 809,-557 803,-557"/>
<text text-anchor="middle" x="723" y="-539.7" font-family="Helvetica,sans-Serif" font-size="14.00">10_A &lt;= 0.5</text>
<text text-anchor="middle" x="723" y="-522.45" font-family="Helvetica,sans-Serif" font-size="14.00">entropy = 1.0</text>
<text text-anchor="middle" x="723" y="-505.2" font-family="Helvetica,sans-Serif" font-size="14.00">samples = 38102</text>
<text text-anchor="middle" x="723" y="-487.95" font-family="Helvetica,sans-Serif" font-size="14.00">value = [30329, 30016]</text>
<text text-anchor="middle" x="723" y="-470.7" font-family="Helvetica,sans-Serif" font-size="14.00">class = Animal</text>
</g>
<!-- 1 -->
<g id="node2" class="node">
<title>1</title>
<path fill="#fceee5" stroke="black" d="M632,-426.75C632,-426.75 472,-426.75 472,-426.75 466,-426.75 460,-420.75 460,-414.75 460,-414.75 460,-344.5 460,-344.5 460,-338.5 466,-332.5 472,-332.5 472,-332.5 632,-332.5 632,-332.5 638,-332.5 644,-338.5 644,-344.5 644,-344.5 644,-414.75 644,-414.75 644,-420.75 638,-426.75 632,-426.75"/>
<text text-anchor="middle" x="552" y="-409.45" font-family="Helvetica,sans-Serif" font-size="14.00">22_U &lt;= 0.5</text>
<text text-anchor="middle" x="552" y="-392.2" font-family="Helvetica,sans-Serif" font-size="14.00">entropy = 0.996</text>
<text text-anchor="middle" x="552" y="-374.95" font-family="Helvetica,sans-Serif" font-size="14.00">samples = 27229</text>
<text text-anchor="middle" x="552" y="-357.7" font-family="Helvetica,sans-Serif" font-size="14.00">value = [23120, 20053]</text>
<text text-anchor="middle" x="552" y="-340.45" font-family="Helvetica,sans-Serif" font-size="14.00">class = Animal</text>
</g>
<!-- 0&#45;&gt;1 -->
<g id="edge1" class="edge">
<title>0&#45;&gt;1</title>
<path fill="none" stroke="black" d="M661.27,-462.57C648.87,-453.28 635.75,-443.44 623.07,-433.93"/>
<polygon fill="black" stroke="black" points="625.24,-431.18 615.14,-427.98 621.04,-436.78 625.24,-431.18"/>
<text text-anchor="middle" x="617.47" y="-447.15" font-family="Helvetica,sans-Serif" font-size="14.00">True</text>
</g>
<!-- 12638 -->
<g id="node17" class="node">
<title>12638</title>
<path fill="#c8e4f8" stroke="black" d="M981,-426.75C981,-426.75 839,-426.75 839,-426.75 833,-426.75 827,-420.75 827,-414.75 827,-414.75 827,-344.5 827,-344.5 827,-338.5 833,-332.5 839,-332.5 839,-332.5 981,-332.5 981,-332.5 987,-332.5 993,-338.5 993,-344.5 993,-344.5 993,-414.75 993,-414.75 993,-420.75 987,-426.75 981,-426.75"/>
<text text-anchor="middle" x="910" y="-409.45" font-family="Helvetica,sans-Serif" font-size="14.00">23_G &lt;= 0.5</text>
<text text-anchor="middle" x="910" y="-392.2" font-family="Helvetica,sans-Serif" font-size="14.00">entropy = 0.981</text>
<text text-anchor="middle" x="910" y="-374.95" font-family="Helvetica,sans-Serif" font-size="14.00">samples = 10873</text>
<text text-anchor="middle" x="910" y="-357.7" font-family="Helvetica,sans-Serif" font-size="14.00">value = [7209, 9963]</text>
<text text-anchor="middle" x="910" y="-340.45" font-family="Helvetica,sans-Serif" font-size="14.00">class = Plant</text>
</g>
<!-- 0&#45;&gt;12638 -->
<g id="edge16" class="edge">
<title>0&#45;&gt;12638</title>
<path fill="none" stroke="black" d="M790.78,-462.39C804.49,-452.98 819.01,-443.03 833.02,-433.42"/>
<polygon fill="black" stroke="black" points="834.63,-436.56 840.89,-428.02 830.67,-430.79 834.63,-436.56"/>
<text text-anchor="middle" x="837.56" y="-447.07" font-family="Helvetica,sans-Serif" font-size="14.00">False</text>
</g>
<!-- 2 -->
<g id="node3" class="node">
<title>2</title>
<path fill="#f9fcfe" stroke="black" d="M365,-296.5C365,-296.5 205,-296.5 205,-296.5 199,-296.5 193,-290.5 193,-284.5 193,-284.5 193,-214.25 193,-214.25 193,-208.25 199,-202.25 205,-202.25 205,-202.25 365,-202.25 365,-202.25 371,-202.25 377,-208.25 377,-214.25 377,-214.25 377,-284.5 377,-284.5 377,-290.5 371,-296.5 365,-296.5"/>
<text text-anchor="middle" x="285" y="-279.2" font-family="Helvetica,sans-Serif" font-size="14.00">21_C &lt;= 0.5</text>
<text text-anchor="middle" x="285" y="-261.95" font-family="Helvetica,sans-Serif" font-size="14.00">entropy = 1.0</text>
<text text-anchor="middle" x="285" y="-244.7" font-family="Helvetica,sans-Serif" font-size="14.00">samples = 23488</text>
<text text-anchor="middle" x="285" y="-227.45" font-family="Helvetica,sans-Serif" font-size="14.00">value = [18348, 18944]</text>
<text text-anchor="middle" x="285" y="-210.2" font-family="Helvetica,sans-Serif" font-size="14.00">class = Plant</text>
</g>
<!-- 1&#45;&gt;2 -->
<g id="edge2" class="edge">
<title>1&#45;&gt;2</title>
<path fill="none" stroke="black" d="M459.74,-334.31C436.4,-323.1 411.18,-310.99 387.37,-299.55"/>
<polygon fill="black" stroke="black" points="389.16,-296.52 378.63,-295.35 386.13,-302.83 389.16,-296.52"/>
</g>
<!-- 11203 -->
<g id="node10" class="node">
<title>11203</title>
<path fill="#eb9e67" stroke="black" d="M623,-296.5C623,-296.5 481,-296.5 481,-296.5 475,-296.5 469,-290.5 469,-284.5 469,-284.5 469,-214.25 469,-214.25 469,-208.25 475,-202.25 481,-202.25 481,-202.25 623,-202.25 623,-202.25 629,-202.25 635,-208.25 635,-214.25 635,-214.25 635,-284.5 635,-284.5 635,-290.5 629,-296.5 623,-296.5"/>
<text text-anchor="middle" x="552" y="-279.2" font-family="Helvetica,sans-Serif" font-size="14.00">15_U &lt;= 0.5</text>
<text text-anchor="middle" x="552" y="-261.95" font-family="Helvetica,sans-Serif" font-size="14.00">entropy = 0.698</text>
<text text-anchor="middle" x="552" y="-244.7" font-family="Helvetica,sans-Serif" font-size="14.00">samples = 3741</text>
<text text-anchor="middle" x="552" y="-227.45" font-family="Helvetica,sans-Serif" font-size="14.00">value = [4772, 1109]</text>
<text text-anchor="middle" x="552" y="-210.2" font-family="Helvetica,sans-Serif" font-size="14.00">class = Animal</text>
</g>
<!-- 1&#45;&gt;11203 -->
<g id="edge9" class="edge">
<title>1&#45;&gt;11203</title>
<path fill="none" stroke="black" d="M552,-332.32C552,-324.42 552,-316.13 552,-307.98"/>
<polygon fill="black" stroke="black" points="555.5,-308.12 552,-298.12 548.5,-308.12 555.5,-308.12"/>
</g>
<!-- 3 -->
<g id="node4" class="node">
<title>3</title>
<path fill="#fcf3eb" stroke="black" d="M172,-166.25C172,-166.25 12,-166.25 12,-166.25 6,-166.25 0,-160.25 0,-154.25 0,-154.25 0,-84 0,-84 0,-78 6,-72 12,-72 12,-72 172,-72 172,-72 178,-72 184,-78 184,-84 184,-84 184,-154.25 184,-154.25 184,-160.25 178,-166.25 172,-166.25"/>
<text text-anchor="middle" x="92" y="-148.95" font-family="Helvetica,sans-Serif" font-size="14.00">20_C &lt;= 0.5</text>
<text text-anchor="middle" x="92" y="-131.7" font-family="Helvetica,sans-Serif" font-size="14.00">entropy = 0.998</text>
<text text-anchor="middle" x="92" y="-114.45" font-family="Helvetica,sans-Serif" font-size="14.00">samples = 17608</text>
<text text-anchor="middle" x="92" y="-97.2" font-family="Helvetica,sans-Serif" font-size="14.00">value = [14740, 13283]</text>
<text text-anchor="middle" x="92" y="-79.95" font-family="Helvetica,sans-Serif" font-size="14.00">class = Animal</text>
</g>
<!-- 2&#45;&gt;3 -->
<g id="edge3" class="edge">
<title>2&#45;&gt;3</title>
<path fill="none" stroke="black" d="M215.05,-201.89C200.89,-192.48 185.9,-182.53 171.45,-172.92"/>
<polygon fill="black" stroke="black" points="173.56,-170.12 163.3,-167.5 169.69,-175.95 173.56,-170.12"/>
</g>
<!-- 9060 -->
<g id="node7" class="node">
<title>9060</title>
<path fill="#b7dbf6" stroke="black" d="M356,-166.25C356,-166.25 214,-166.25 214,-166.25 208,-166.25 202,-160.25 202,-154.25 202,-154.25 202,-84 202,-84 202,-78 208,-72 214,-72 214,-72 356,-72 356,-72 362,-72 368,-78 368,-84 368,-84 368,-154.25 368,-154.25 368,-160.25 362,-166.25 356,-166.25"/>
<text text-anchor="middle" x="285" y="-148.95" font-family="Helvetica,sans-Serif" font-size="14.00">22_A &lt;= 0.5</text>
<text text-anchor="middle" x="285" y="-131.7" font-family="Helvetica,sans-Serif" font-size="14.00">entropy = 0.964</text>
<text text-anchor="middle" x="285" y="-114.45" font-family="Helvetica,sans-Serif" font-size="14.00">samples = 5880</text>
<text text-anchor="middle" x="285" y="-97.2" font-family="Helvetica,sans-Serif" font-size="14.00">value = [3608, 5661]</text>
<text text-anchor="middle" x="285" y="-79.95" font-family="Helvetica,sans-Serif" font-size="14.00">class = Plant</text>
</g>
<!-- 2&#45;&gt;9060 -->
<g id="edge6" class="edge">
<title>2&#45;&gt;9060</title>
<path fill="none" stroke="black" d="M285,-202.07C285,-194.17 285,-185.88 285,-177.73"/>
<polygon fill="black" stroke="black" points="288.5,-177.87 285,-167.87 281.5,-177.87 288.5,-177.87"/>
</g>
<!-- 4 -->
<g id="node5" class="node">
<title>4</title>
<path fill="#c0c0c0" stroke="black" d="M71,-36C71,-36 41,-36 41,-36 35,-36 29,-30 29,-24 29,-24 29,-12 29,-12 29,-6 35,0 41,0 41,0 71,0 71,0 77,0 83,-6 83,-12 83,-12 83,-24 83,-24 83,-30 77,-36 71,-36"/>
<text text-anchor="middle" x="56" y="-13.32" font-family="Helvetica,sans-Serif" font-size="14.00">(...)</text>
</g>
<!-- 3&#45;&gt;4 -->
<g id="edge4" class="edge">
<title>3&#45;&gt;4</title>
<path fill="none" stroke="black" d="M75.16,-71.75C72.06,-63.22 68.92,-54.57 66.1,-46.8"/>
<polygon fill="black" stroke="black" points="69.46,-45.8 62.75,-37.6 62.88,-48.19 69.46,-45.8"/>
</g>
<!-- 6883 -->
<g id="node6" class="node">
<title>6883</title>
<path fill="#c0c0c0" stroke="black" d="M143,-36C143,-36 113,-36 113,-36 107,-36 101,-30 101,-24 101,-24 101,-12 101,-12 101,-6 107,0 113,0 113,0 143,0 143,0 149,0 155,-6 155,-12 155,-12 155,-24 155,-24 155,-30 149,-36 143,-36"/>
<text text-anchor="middle" x="128" y="-13.32" font-family="Helvetica,sans-Serif" font-size="14.00">(...)</text>
</g>
<!-- 3&#45;&gt;6883 -->
<g id="edge5" class="edge">
<title>3&#45;&gt;6883</title>
<path fill="none" stroke="black" d="M108.84,-71.75C111.94,-63.22 115.08,-54.57 117.9,-46.8"/>
<polygon fill="black" stroke="black" points="121.12,-48.19 121.25,-37.6 114.54,-45.8 121.12,-48.19"/>
</g>
<!-- 9061 -->
<g id="node8" class="node">
<title>9061</title>
<path fill="#c0c0c0" stroke="black" d="M261,-36C261,-36 231,-36 231,-36 225,-36 219,-30 219,-24 219,-24 219,-12 219,-12 219,-6 225,0 231,0 231,0 261,0 261,0 267,0 273,-6 273,-12 273,-12 273,-24 273,-24 273,-30 267,-36 261,-36"/>
<text text-anchor="middle" x="246" y="-13.32" font-family="Helvetica,sans-Serif" font-size="14.00">(...)</text>
</g>
<!-- 9060&#45;&gt;9061 -->
<g id="edge7" class="edge">
<title>9060&#45;&gt;9061</title>
<path fill="none" stroke="black" d="M266.76,-71.75C263.4,-63.22 259.99,-54.57 256.94,-46.8"/>
<polygon fill="black" stroke="black" points="260.23,-45.61 253.31,-37.58 253.71,-48.17 260.23,-45.61"/>
</g>
<!-- 10850 -->
<g id="node9" class="node">
<title>10850</title>
<path fill="#c0c0c0" stroke="black" d="M333,-36C333,-36 303,-36 303,-36 297,-36 291,-30 291,-24 291,-24 291,-12 291,-12 291,-6 297,0 303,0 303,0 333,0 333,0 339,0 345,-6 345,-12 345,-12 345,-24 345,-24 345,-30 339,-36 333,-36"/>
<text text-anchor="middle" x="318" y="-13.32" font-family="Helvetica,sans-Serif" font-size="14.00">(...)</text>
</g>
<!-- 9060&#45;&gt;10850 -->
<g id="edge8" class="edge">
<title>9060&#45;&gt;10850</title>
<path fill="none" stroke="black" d="M300.44,-71.75C303.24,-63.32 306.09,-54.77 308.66,-47.07"/>
<polygon fill="black" stroke="black" points="311.97,-48.2 311.8,-37.61 305.33,-45.99 311.97,-48.2"/>
</g>
<!-- 11204 -->
<g id="node11" class="node">
<title>11204</title>
<path fill="#eba06a" stroke="black" d="M531.5,-166.25C531.5,-166.25 398.5,-166.25 398.5,-166.25 392.5,-166.25 386.5,-160.25 386.5,-154.25 386.5,-154.25 386.5,-84 386.5,-84 386.5,-78 392.5,-72 398.5,-72 398.5,-72 531.5,-72 531.5,-72 537.5,-72 543.5,-78 543.5,-84 543.5,-84 543.5,-154.25 543.5,-154.25 543.5,-160.25 537.5,-166.25 531.5,-166.25"/>
<text text-anchor="middle" x="465" y="-148.95" font-family="Helvetica,sans-Serif" font-size="14.00">2_U &lt;= 0.5</text>
<text text-anchor="middle" x="465" y="-131.7" font-family="Helvetica,sans-Serif" font-size="14.00">entropy = 0.717</text>
<text text-anchor="middle" x="465" y="-114.45" font-family="Helvetica,sans-Serif" font-size="14.00">samples = 2782</text>
<text text-anchor="middle" x="465" y="-97.2" font-family="Helvetica,sans-Serif" font-size="14.00">value = [3518, 865]</text>
<text text-anchor="middle" x="465" y="-79.95" font-family="Helvetica,sans-Serif" font-size="14.00">class = Animal</text>
</g>
<!-- 11203&#45;&gt;11204 -->
<g id="edge10" class="edge">
<title>11203&#45;&gt;11204</title>
<path fill="none" stroke="black" d="M520.59,-202.07C514.8,-193.54 508.7,-184.54 502.75,-175.77"/>
<polygon fill="black" stroke="black" points="505.72,-173.92 497.21,-167.61 499.93,-177.85 505.72,-173.92"/>
</g>
<!-- 12273 -->
<g id="node14" class="node">
<title>12273</title>
<path fill="#ea9a60" stroke="black" d="M706.5,-166.25C706.5,-166.25 573.5,-166.25 573.5,-166.25 567.5,-166.25 561.5,-160.25 561.5,-154.25 561.5,-154.25 561.5,-84 561.5,-84 561.5,-78 567.5,-72 573.5,-72 573.5,-72 706.5,-72 706.5,-72 712.5,-72 718.5,-78 718.5,-84 718.5,-84 718.5,-154.25 718.5,-154.25 718.5,-160.25 712.5,-166.25 706.5,-166.25"/>
<text text-anchor="middle" x="640" y="-148.95" font-family="Helvetica,sans-Serif" font-size="14.00">1_U &lt;= 0.5</text>
<text text-anchor="middle" x="640" y="-131.7" font-family="Helvetica,sans-Serif" font-size="14.00">entropy = 0.641</text>
<text text-anchor="middle" x="640" y="-114.45" font-family="Helvetica,sans-Serif" font-size="14.00">samples = 959</text>
<text text-anchor="middle" x="640" y="-97.2" font-family="Helvetica,sans-Serif" font-size="14.00">value = [1254, 244]</text>
<text text-anchor="middle" x="640" y="-79.95" font-family="Helvetica,sans-Serif" font-size="14.00">class = Animal</text>
</g>
<!-- 11203&#45;&gt;12273 -->
<g id="edge13" class="edge">
<title>11203&#45;&gt;12273</title>
<path fill="none" stroke="black" d="M583.77,-202.07C589.63,-193.54 595.8,-184.54 601.82,-175.77"/>
<polygon fill="black" stroke="black" points="604.65,-177.83 607.42,-167.61 598.88,-173.87 604.65,-177.83"/>
</g>
<!-- 11205 -->
<g id="node12" class="node">
<title>11205</title>
<path fill="#c0c0c0" stroke="black" d="M423,-36C423,-36 393,-36 393,-36 387,-36 381,-30 381,-24 381,-24 381,-12 381,-12 381,-6 387,0 393,0 393,0 423,0 423,0 429,0 435,-6 435,-12 435,-12 435,-24 435,-24 435,-30 429,-36 423,-36"/>
<text text-anchor="middle" x="408" y="-13.32" font-family="Helvetica,sans-Serif" font-size="14.00">(...)</text>
</g>
<!-- 11204&#45;&gt;11205 -->
<g id="edge11" class="edge">
<title>11204&#45;&gt;11205</title>
<path fill="none" stroke="black" d="M438.34,-71.75C433.26,-62.93 428.1,-53.96 423.52,-45.99"/>
<polygon fill="black" stroke="black" points="426.65,-44.41 418.63,-37.48 420.58,-47.9 426.65,-44.41"/>
</g>
<!-- 11966 -->
<g id="node13" class="node">
<title>11966</title>
<path fill="#c0c0c0" stroke="black" d="M495,-36C495,-36 465,-36 465,-36 459,-36 453,-30 453,-24 453,-24 453,-12 453,-12 453,-6 459,0 465,0 465,0 495,0 495,0 501,0 507,-6 507,-12 507,-12 507,-24 507,-24 507,-30 501,-36 495,-36"/>
<text text-anchor="middle" x="480" y="-13.32" font-family="Helvetica,sans-Serif" font-size="14.00">(...)</text>
</g>
<!-- 11204&#45;&gt;11966 -->
<g id="edge12" class="edge">
<title>11204&#45;&gt;11966</title>
<path fill="none" stroke="black" d="M472.02,-71.75C473.28,-63.42 474.56,-54.97 475.71,-47.34"/>
<polygon fill="black" stroke="black" points="479.14,-48.08 477.17,-37.67 472.22,-47.03 479.14,-48.08"/>
</g>
<!-- 12274 -->
<g id="node15" class="node">
<title>12274</title>
<path fill="#c0c0c0" stroke="black" d="M601,-36C601,-36 571,-36 571,-36 565,-36 559,-30 559,-24 559,-24 559,-12 559,-12 559,-6 565,0 571,0 571,0 601,0 601,0 607,0 613,-6 613,-12 613,-12 613,-24 613,-24 613,-30 607,-36 601,-36"/>
<text text-anchor="middle" x="586" y="-13.32" font-family="Helvetica,sans-Serif" font-size="14.00">(...)</text>
</g>
<!-- 12273&#45;&gt;12274 -->
<g id="edge14" class="edge">
<title>12273&#45;&gt;12274</title>
<path fill="none" stroke="black" d="M614.74,-71.75C609.98,-63.03 605.16,-54.16 600.85,-46.26"/>
<polygon fill="black" stroke="black" points="603.94,-44.61 596.08,-37.5 597.79,-47.96 603.94,-44.61"/>
</g>
<!-- 12439 -->
<g id="node16" class="node">
<title>12439</title>
<path fill="#c0c0c0" stroke="black" d="M673,-36C673,-36 643,-36 643,-36 637,-36 631,-30 631,-24 631,-24 631,-12 631,-12 631,-6 637,0 643,0 643,0 673,0 673,0 679,0 685,-6 685,-12 685,-12 685,-24 685,-24 685,-30 679,-36 673,-36"/>
<text text-anchor="middle" x="658" y="-13.32" font-family="Helvetica,sans-Serif" font-size="14.00">(...)</text>
</g>
<!-- 12273&#45;&gt;12439 -->
<g id="edge15" class="edge">
<title>12273&#45;&gt;12439</title>
<path fill="none" stroke="black" d="M648.42,-71.75C649.93,-63.42 651.47,-54.97 652.85,-47.34"/>
<polygon fill="black" stroke="black" points="656.27,-48.13 654.61,-37.66 649.38,-46.88 656.27,-48.13"/>
</g>
<!-- 12639 -->
<g id="node18" class="node">
<title>12639</title>
<path fill="#bfdff7" stroke="black" d="M981,-296.5C981,-296.5 839,-296.5 839,-296.5 833,-296.5 827,-290.5 827,-284.5 827,-284.5 827,-214.25 827,-214.25 827,-208.25 833,-202.25 839,-202.25 839,-202.25 981,-202.25 981,-202.25 987,-202.25 993,-208.25 993,-214.25 993,-214.25 993,-284.5 993,-284.5 993,-290.5 987,-296.5 981,-296.5"/>
<text text-anchor="middle" x="910" y="-279.2" font-family="Helvetica,sans-Serif" font-size="14.00">9_G &lt;= 0.5</text>
<text text-anchor="middle" x="910" y="-261.95" font-family="Helvetica,sans-Serif" font-size="14.00">entropy = 0.973</text>
<text text-anchor="middle" x="910" y="-244.7" font-family="Helvetica,sans-Serif" font-size="14.00">samples = 10408</text>
<text text-anchor="middle" x="910" y="-227.45" font-family="Helvetica,sans-Serif" font-size="14.00">value = [6634, 9805]</text>
<text text-anchor="middle" x="910" y="-210.2" font-family="Helvetica,sans-Serif" font-size="14.00">class = Plant</text>
</g>
<!-- 12638&#45;&gt;12639 -->
<g id="edge17" class="edge">
<title>12638&#45;&gt;12639</title>
<path fill="none" stroke="black" d="M910,-332.32C910,-324.42 910,-316.13 910,-307.98"/>
<polygon fill="black" stroke="black" points="913.5,-308.12 910,-298.12 906.5,-308.12 913.5,-308.12"/>
</g>
<!-- 16630 -->
<g id="node25" class="node">
<title>16630</title>
<path fill="#eca46f" stroke="black" d="M1237,-296.5C1237,-296.5 1113,-296.5 1113,-296.5 1107,-296.5 1101,-290.5 1101,-284.5 1101,-284.5 1101,-214.25 1101,-214.25 1101,-208.25 1107,-202.25 1113,-202.25 1113,-202.25 1237,-202.25 1237,-202.25 1243,-202.25 1249,-208.25 1249,-214.25 1249,-214.25 1249,-284.5 1249,-284.5 1249,-290.5 1243,-296.5 1237,-296.5"/>
<text text-anchor="middle" x="1175" y="-279.2" font-family="Helvetica,sans-Serif" font-size="14.00">22_G &lt;= 0.5</text>
<text text-anchor="middle" x="1175" y="-261.95" font-family="Helvetica,sans-Serif" font-size="14.00">entropy = 0.752</text>
<text text-anchor="middle" x="1175" y="-244.7" font-family="Helvetica,sans-Serif" font-size="14.00">samples = 465</text>
<text text-anchor="middle" x="1175" y="-227.45" font-family="Helvetica,sans-Serif" font-size="14.00">value = [575, 158]</text>
<text text-anchor="middle" x="1175" y="-210.2" font-family="Helvetica,sans-Serif" font-size="14.00">class = Animal</text>
</g>
<!-- 12638&#45;&gt;16630 -->
<g id="edge24" class="edge">
<title>12638&#45;&gt;16630</title>
<path fill="none" stroke="black" d="M993.48,-338.22C1024.42,-323.25 1059.52,-306.26 1090.54,-291.25"/>
<polygon fill="black" stroke="black" points="1092.06,-294.4 1099.54,-286.9 1089.01,-288.1 1092.06,-294.4"/>
</g>
<!-- 12640 -->
<g id="node19" class="node">
<title>12640</title>
<path fill="#fbede3" stroke="black" d="M891,-166.25C891,-166.25 749,-166.25 749,-166.25 743,-166.25 737,-160.25 737,-154.25 737,-154.25 737,-84 737,-84 737,-78 743,-72 749,-72 749,-72 891,-72 891,-72 897,-72 903,-78 903,-84 903,-84 903,-154.25 903,-154.25 903,-160.25 897,-166.25 891,-166.25"/>
<text text-anchor="middle" x="820" y="-148.95" font-family="Helvetica,sans-Serif" font-size="14.00">11_G &lt;= 0.5</text>
<text text-anchor="middle" x="820" y="-131.7" font-family="Helvetica,sans-Serif" font-size="14.00">entropy = 0.996</text>
<text text-anchor="middle" x="820" y="-114.45" font-family="Helvetica,sans-Serif" font-size="14.00">samples = 5970</text>
<text text-anchor="middle" x="820" y="-97.2" font-family="Helvetica,sans-Serif" font-size="14.00">value = [5057, 4342]</text>
<text text-anchor="middle" x="820" y="-79.95" font-family="Helvetica,sans-Serif" font-size="14.00">class = Animal</text>
</g>
<!-- 12639&#45;&gt;12640 -->
<g id="edge18" class="edge">
<title>12639&#45;&gt;12640</title>
<path fill="none" stroke="black" d="M877.51,-202.07C871.52,-193.54 865.21,-184.54 859.05,-175.77"/>
<polygon fill="black" stroke="black" points="861.92,-173.77 853.31,-167.6 856.19,-177.79 861.92,-173.77"/>
</g>
<!-- 15451 -->
<g id="node22" class="node">
<title>15451</title>
<path fill="#72b9ed" stroke="black" d="M1075,-166.25C1075,-166.25 933,-166.25 933,-166.25 927,-166.25 921,-160.25 921,-154.25 921,-154.25 921,-84 921,-84 921,-78 927,-72 933,-72 933,-72 1075,-72 1075,-72 1081,-72 1087,-78 1087,-84 1087,-84 1087,-154.25 1087,-154.25 1087,-160.25 1081,-166.25 1075,-166.25"/>
<text text-anchor="middle" x="1004" y="-148.95" font-family="Helvetica,sans-Serif" font-size="14.00">14_G &lt;= 0.5</text>
<text text-anchor="middle" x="1004" y="-131.7" font-family="Helvetica,sans-Serif" font-size="14.00">entropy = 0.767</text>
<text text-anchor="middle" x="1004" y="-114.45" font-family="Helvetica,sans-Serif" font-size="14.00">samples = 4438</text>
<text text-anchor="middle" x="1004" y="-97.2" font-family="Helvetica,sans-Serif" font-size="14.00">value = [1577, 5463]</text>
<text text-anchor="middle" x="1004" y="-79.95" font-family="Helvetica,sans-Serif" font-size="14.00">class = Plant</text>
</g>
<!-- 12639&#45;&gt;15451 -->
<g id="edge21" class="edge">
<title>12639&#45;&gt;15451</title>
<path fill="none" stroke="black" d="M943.94,-202.07C950.26,-193.45 956.92,-184.35 963.42,-175.49"/>
<polygon fill="black" stroke="black" points="966.13,-177.71 969.22,-167.58 960.48,-173.58 966.13,-177.71"/>
</g>
<!-- 12641 -->
<g id="node20" class="node">
<title>12641</title>
<path fill="#c0c0c0" stroke="black" d="M783,-36C783,-36 753,-36 753,-36 747,-36 741,-30 741,-24 741,-24 741,-12 741,-12 741,-6 747,0 753,0 753,0 783,0 783,0 789,0 795,-6 795,-12 795,-12 795,-24 795,-24 795,-30 789,-36 783,-36"/>
<text text-anchor="middle" x="768" y="-13.32" font-family="Helvetica,sans-Serif" font-size="14.00">(...)</text>
</g>
<!-- 12640&#45;&gt;12641 -->
<g id="edge19" class="edge">
<title>12640&#45;&gt;12641</title>
<path fill="none" stroke="black" d="M795.67,-71.75C791.1,-63.03 786.45,-54.16 782.3,-46.26"/>
<polygon fill="black" stroke="black" points="785.46,-44.74 777.71,-37.51 779.26,-47.99 785.46,-44.74"/>
</g>
<!-- 14570 -->
<g id="node21" class="node">
<title>14570</title>
<path fill="#c0c0c0" stroke="black" d="M855,-36C855,-36 825,-36 825,-36 819,-36 813,-30 813,-24 813,-24 813,-12 813,-12 813,-6 819,0 825,0 825,0 855,0 855,0 861,0 867,-6 867,-12 867,-12 867,-24 867,-24 867,-30 861,-36 855,-36"/>
<text text-anchor="middle" x="840" y="-13.32" font-family="Helvetica,sans-Serif" font-size="14.00">(...)</text>
</g>
<!-- 12640&#45;&gt;14570 -->
<g id="edge20" class="edge">
<title>12640&#45;&gt;14570</title>
<path fill="none" stroke="black" d="M829.36,-71.75C831.04,-63.42 832.74,-54.97 834.28,-47.34"/>
<polygon fill="black" stroke="black" points="837.69,-48.15 836.24,-37.66 830.83,-46.77 837.69,-48.15"/>
</g>
<!-- 15452 -->
<g id="node23" class="node">
<title>15452</title>
<path fill="#c0c0c0" stroke="black" d="M960,-36C960,-36 930,-36 930,-36 924,-36 918,-30 918,-24 918,-24 918,-12 918,-12 918,-6 924,0 930,0 930,0 960,0 960,0 966,0 972,-6 972,-12 972,-12 972,-24 972,-24 972,-30 966,-36 960,-36"/>
<text text-anchor="middle" x="945" y="-13.32" font-family="Helvetica,sans-Serif" font-size="14.00">(...)</text>
</g>
<!-- 15451&#45;&gt;15452 -->
<g id="edge22" class="edge">
<title>15451&#45;&gt;15452</title>
<path fill="none" stroke="black" d="M976.4,-71.75C971.15,-62.93 965.81,-53.96 961.06,-45.99"/>
<polygon fill="black" stroke="black" points="964.12,-44.28 956,-37.47 958.1,-47.86 964.12,-44.28"/>
</g>
<!-- 16285 -->
<g id="node24" class="node">
<title>16285</title>
<path fill="#c0c0c0" stroke="black" d="M1032,-36C1032,-36 1002,-36 1002,-36 996,-36 990,-30 990,-24 990,-24 990,-12 990,-12 990,-6 996,0 1002,0 1002,0 1032,0 1032,0 1038,0 1044,-6 1044,-12 1044,-12 1044,-24 1044,-24 1044,-30 1038,-36 1032,-36"/>
<text text-anchor="middle" x="1017" y="-13.32" font-family="Helvetica,sans-Serif" font-size="14.00">(...)</text>
</g>
<!-- 15451&#45;&gt;16285 -->
<g id="edge23" class="edge">
<title>15451&#45;&gt;16285</title>
<path fill="none" stroke="black" d="M1010.08,-71.75C1011.17,-63.42 1012.28,-54.97 1013.28,-47.34"/>
<polygon fill="black" stroke="black" points="1016.72,-48.04 1014.55,-37.67 1009.78,-47.13 1016.72,-48.04"/>
</g>
<!-- 16631 -->
<g id="node26" class="node">
<title>16631</title>
<path fill="#e99558" stroke="black" d="M1232.5,-166.25C1232.5,-166.25 1117.5,-166.25 1117.5,-166.25 1111.5,-166.25 1105.5,-160.25 1105.5,-154.25 1105.5,-154.25 1105.5,-84 1105.5,-84 1105.5,-78 1111.5,-72 1117.5,-72 1117.5,-72 1232.5,-72 1232.5,-72 1238.5,-72 1244.5,-78 1244.5,-84 1244.5,-84 1244.5,-154.25 1244.5,-154.25 1244.5,-160.25 1238.5,-166.25 1232.5,-166.25"/>
<text text-anchor="middle" x="1175" y="-148.95" font-family="Helvetica,sans-Serif" font-size="14.00">26_G &lt;= 0.5</text>
<text text-anchor="middle" x="1175" y="-131.7" font-family="Helvetica,sans-Serif" font-size="14.00">entropy = 0.57</text>
<text text-anchor="middle" x="1175" y="-114.45" font-family="Helvetica,sans-Serif" font-size="14.00">samples = 322</text>
<text text-anchor="middle" x="1175" y="-97.2" font-family="Helvetica,sans-Serif" font-size="14.00">value = [457, 71]</text>
<text text-anchor="middle" x="1175" y="-79.95" font-family="Helvetica,sans-Serif" font-size="14.00">class = Animal</text>
</g>
<!-- 16630&#45;&gt;16631 -->
<g id="edge25" class="edge">
<title>16630&#45;&gt;16631</title>
<path fill="none" stroke="black" d="M1175,-202.07C1175,-194.17 1175,-185.88 1175,-177.73"/>
<polygon fill="black" stroke="black" points="1178.5,-177.87 1175,-167.87 1171.5,-177.87 1178.5,-177.87"/>
</g>
<!-- 16744 -->
<g id="node29" class="node">
<title>16744</title>
<path fill="#f8decb" stroke="black" d="M1389.5,-166.25C1389.5,-166.25 1274.5,-166.25 1274.5,-166.25 1268.5,-166.25 1262.5,-160.25 1262.5,-154.25 1262.5,-154.25 1262.5,-84 1262.5,-84 1262.5,-78 1268.5,-72 1274.5,-72 1274.5,-72 1389.5,-72 1389.5,-72 1395.5,-72 1401.5,-78 1401.5,-84 1401.5,-84 1401.5,-154.25 1401.5,-154.25 1401.5,-160.25 1395.5,-166.25 1389.5,-166.25"/>
<text text-anchor="middle" x="1332" y="-148.95" font-family="Helvetica,sans-Serif" font-size="14.00">4_C &lt;= 0.5</text>
<text text-anchor="middle" x="1332" y="-131.7" font-family="Helvetica,sans-Serif" font-size="14.00">entropy = 0.983</text>
<text text-anchor="middle" x="1332" y="-114.45" font-family="Helvetica,sans-Serif" font-size="14.00">samples = 143</text>
<text text-anchor="middle" x="1332" y="-97.2" font-family="Helvetica,sans-Serif" font-size="14.00">value = [118, 87]</text>
<text text-anchor="middle" x="1332" y="-79.95" font-family="Helvetica,sans-Serif" font-size="14.00">class = Animal</text>
</g>
<!-- 16630&#45;&gt;16744 -->
<g id="edge28" class="edge">
<title>16630&#45;&gt;16744</title>
<path fill="none" stroke="black" d="M1231.68,-202.07C1242.95,-192.87 1254.87,-183.13 1266.41,-173.71"/>
<polygon fill="black" stroke="black" points="1268.44,-176.57 1273.97,-167.53 1264.01,-171.15 1268.44,-176.57"/>
</g>
<!-- 16632 -->
<g id="node27" class="node">
<title>16632</title>
<path fill="#c0c0c0" stroke="black" d="M1142,-36C1142,-36 1112,-36 1112,-36 1106,-36 1100,-30 1100,-24 1100,-24 1100,-12 1100,-12 1100,-6 1106,0 1112,0 1112,0 1142,0 1142,0 1148,0 1154,-6 1154,-12 1154,-12 1154,-24 1154,-24 1154,-30 1148,-36 1142,-36"/>
<text text-anchor="middle" x="1127" y="-13.32" font-family="Helvetica,sans-Serif" font-size="14.00">(...)</text>
</g>
<!-- 16631&#45;&gt;16632 -->
<g id="edge26" class="edge">
<title>16631&#45;&gt;16632</title>
<path fill="none" stroke="black" d="M1152.55,-71.75C1148.37,-63.12 1144.12,-54.36 1140.33,-46.53"/>
<polygon fill="black" stroke="black" points="1143.48,-45.01 1135.98,-37.53 1137.18,-48.06 1143.48,-45.01"/>
</g>
<!-- 16741 -->
<g id="node28" class="node">
<title>16741</title>
<path fill="#c0c0c0" stroke="black" d="M1214,-36C1214,-36 1184,-36 1184,-36 1178,-36 1172,-30 1172,-24 1172,-24 1172,-12 1172,-12 1172,-6 1178,0 1184,0 1184,0 1214,0 1214,0 1220,0 1226,-6 1226,-12 1226,-12 1226,-24 1226,-24 1226,-30 1220,-36 1214,-36"/>
<text text-anchor="middle" x="1199" y="-13.32" font-family="Helvetica,sans-Serif" font-size="14.00">(...)</text>
</g>
<!-- 16631&#45;&gt;16741 -->
<g id="edge27" class="edge">
<title>16631&#45;&gt;16741</title>
<path fill="none" stroke="black" d="M1186.23,-71.75C1188.24,-63.42 1190.29,-54.97 1192.14,-47.34"/>
<polygon fill="black" stroke="black" points="1195.53,-48.19 1194.49,-37.64 1188.73,-46.54 1195.53,-48.19"/>
</g>
<!-- 16745 -->
<g id="node30" class="node">
<title>16745</title>
<path fill="#c0c0c0" stroke="black" d="M1311,-36C1311,-36 1281,-36 1281,-36 1275,-36 1269,-30 1269,-24 1269,-24 1269,-12 1269,-12 1269,-6 1275,0 1281,0 1281,0 1311,0 1311,0 1317,0 1323,-6 1323,-12 1323,-12 1323,-24 1323,-24 1323,-30 1317,-36 1311,-36"/>
<text text-anchor="middle" x="1296" y="-13.32" font-family="Helvetica,sans-Serif" font-size="14.00">(...)</text>
</g>
<!-- 16744&#45;&gt;16745 -->
<g id="edge29" class="edge">
<title>16744&#45;&gt;16745</title>
<path fill="none" stroke="black" d="M1315.16,-71.75C1312.06,-63.22 1308.92,-54.57 1306.1,-46.8"/>
<polygon fill="black" stroke="black" points="1309.46,-45.8 1302.75,-37.6 1302.88,-48.19 1309.46,-45.8"/>
</g>
<!-- 16790 -->
<g id="node31" class="node">
<title>16790</title>
<path fill="#c0c0c0" stroke="black" d="M1383,-36C1383,-36 1353,-36 1353,-36 1347,-36 1341,-30 1341,-24 1341,-24 1341,-12 1341,-12 1341,-6 1347,0 1353,0 1353,0 1383,0 1383,0 1389,0 1395,-6 1395,-12 1395,-12 1395,-24 1395,-24 1395,-30 1389,-36 1383,-36"/>
<text text-anchor="middle" x="1368" y="-13.32" font-family="Helvetica,sans-Serif" font-size="14.00">(...)</text>
</g>
<!-- 16744&#45;&gt;16790 -->
<g id="edge30" class="edge">
<title>16744&#45;&gt;16790</title>
<path fill="none" stroke="black" d="M1348.84,-71.75C1351.94,-63.22 1355.08,-54.57 1357.9,-46.8"/>
<polygon fill="black" stroke="black" points="1361.12,-48.19 1361.25,-37.6 1354.54,-45.8 1361.12,-48.19"/>
</g>
</g>
</svg>
