<?xml version="1.0" encoding="UTF-8" standalone="no"?>
<!DOCTYPE svg PUBLIC "-//W3C//DTD SVG 1.1//EN"
 "http://www.w3.org/Graphics/SVG/1.1/DTD/svg11.dtd">
<!-- Generated by graphviz version 12.0.0 (20240803.0821)
 -->
<!-- Title: Tree Pages: 1 -->
<svg width="1437pt" height="565pt"
 viewBox="0.00 0.00 1437.00 565.00" xmlns="http://www.w3.org/2000/svg" xmlns:xlink="http://www.w3.org/1999/xlink">
<g id="graph0" class="graph" transform="scale(1 1) rotate(0) translate(4 561)">
<title>Tree</title>
<polygon fill="white" stroke="none" points="-4,4 -4,-561 1433,-561 1433,4 -4,4"/>
<!-- 0 -->
<g id="node1" class="node">
<title>0</title>
<path fill="#ffffff" stroke="black" d="M797,-557C797,-557 637,-557 637,-557 631,-557 625,-551 625,-545 625,-545 625,-474.75 625,-474.75 625,-468.75 631,-462.75 637,-462.75 637,-462.75 797,-462.75 797,-462.75 803,-462.75 809,-468.75 809,-474.75 809,-474.75 809,-545 809,-545 809,-551 803,-557 797,-557"/>
<text text-anchor="middle" x="717" y="-539.7" font-family="Helvetica,sans-Serif" font-size="14.00">19_C &lt;= 0.5</text>
<text text-anchor="middle" x="717" y="-522.45" font-family="Helvetica,sans-Serif" font-size="14.00">entropy = 1.0</text>
<text text-anchor="middle" x="717" y="-505.2" font-family="Helvetica,sans-Serif" font-size="14.00">samples = 38149</text>
<text text-anchor="middle" x="717" y="-487.95" font-family="Helvetica,sans-Serif" font-size="14.00">value = [30155, 30190]</text>
<text text-anchor="middle" x="717" y="-470.7" font-family="Helvetica,sans-Serif" font-size="14.00">class = Plant</text>
</g>
<!-- 1 -->
<g id="node2" class="node">
<title>1</title>
<path fill="#f9e0cf" stroke="black" d="M626,-426.75C626,-426.75 466,-426.75 466,-426.75 460,-426.75 454,-420.75 454,-414.75 454,-414.75 454,-344.5 454,-344.5 454,-338.5 460,-332.5 466,-332.5 466,-332.5 626,-332.5 626,-332.5 632,-332.5 638,-338.5 638,-344.5 638,-344.5 638,-414.75 638,-414.75 638,-420.75 632,-426.75 626,-426.75"/>
<text text-anchor="middle" x="546" y="-409.45" font-family="Helvetica,sans-Serif" font-size="14.00">23_A &lt;= 0.5</text>
<text text-anchor="middle" x="546" y="-392.2" font-family="Helvetica,sans-Serif" font-size="14.00">entropy = 0.986</text>
<text text-anchor="middle" x="546" y="-374.95" font-family="Helvetica,sans-Serif" font-size="14.00">samples = 25782</text>
<text text-anchor="middle" x="546" y="-357.7" font-family="Helvetica,sans-Serif" font-size="14.00">value = [23305, 17637]</text>
<text text-anchor="middle" x="546" y="-340.45" font-family="Helvetica,sans-Serif" font-size="14.00">class = Animal</text>
</g>
<!-- 0&#45;&gt;1 -->
<g id="edge1" class="edge">
<title>0&#45;&gt;1</title>
<path fill="none" stroke="black" d="M655.27,-462.57C642.87,-453.28 629.75,-443.44 617.07,-433.93"/>
<polygon fill="black" stroke="black" points="619.24,-431.18 609.14,-427.98 615.04,-436.78 619.24,-431.18"/>
<text text-anchor="middle" x="611.47" y="-447.15" font-family="Helvetica,sans-Serif" font-size="14.00">True</text>
</g>
<!-- 12978 -->
<g id="node17" class="node">
<title>12978</title>
<path fill="#a5d2f3" stroke="black" d="M978.5,-426.75C978.5,-426.75 827.5,-426.75 827.5,-426.75 821.5,-426.75 815.5,-420.75 815.5,-414.75 815.5,-414.75 815.5,-344.5 815.5,-344.5 815.5,-338.5 821.5,-332.5 827.5,-332.5 827.5,-332.5 978.5,-332.5 978.5,-332.5 984.5,-332.5 990.5,-338.5 990.5,-344.5 990.5,-344.5 990.5,-414.75 990.5,-414.75 990.5,-420.75 984.5,-426.75 978.5,-426.75"/>
<text text-anchor="middle" x="903" y="-409.45" font-family="Helvetica,sans-Serif" font-size="14.00">9_U &lt;= 0.5</text>
<text text-anchor="middle" x="903" y="-392.2" font-family="Helvetica,sans-Serif" font-size="14.00">entropy = 0.937</text>
<text text-anchor="middle" x="903" y="-374.95" font-family="Helvetica,sans-Serif" font-size="14.00">samples = 12367</text>
<text text-anchor="middle" x="903" y="-357.7" font-family="Helvetica,sans-Serif" font-size="14.00">value = [6850, 12553]</text>
<text text-anchor="middle" x="903" y="-340.45" font-family="Helvetica,sans-Serif" font-size="14.00">class = Plant</text>
</g>
<!-- 0&#45;&gt;12978 -->
<g id="edge16" class="edge">
<title>0&#45;&gt;12978</title>
<path fill="none" stroke="black" d="M784.41,-462.39C797.93,-453.07 812.23,-443.22 826.04,-433.69"/>
<polygon fill="black" stroke="black" points="828.01,-436.58 834.26,-428.02 824.04,-430.82 828.01,-436.58"/>
<text text-anchor="middle" x="830.99" y="-447.08" font-family="Helvetica,sans-Serif" font-size="14.00">False</text>
</g>
<!-- 2 -->
<g id="node3" class="node">
<title>2</title>
<path fill="#f9e4d5" stroke="black" d="M365,-296.5C365,-296.5 205,-296.5 205,-296.5 199,-296.5 193,-290.5 193,-284.5 193,-284.5 193,-214.25 193,-214.25 193,-208.25 199,-202.25 205,-202.25 205,-202.25 365,-202.25 365,-202.25 371,-202.25 377,-208.25 377,-214.25 377,-214.25 377,-284.5 377,-284.5 377,-290.5 371,-296.5 365,-296.5"/>
<text text-anchor="middle" x="285" y="-279.2" font-family="Helvetica,sans-Serif" font-size="14.00">10_C &lt;= 0.5</text>
<text text-anchor="middle" x="285" y="-261.95" font-family="Helvetica,sans-Serif" font-size="14.00">entropy = 0.99</text>
<text text-anchor="middle" x="285" y="-244.7" font-family="Helvetica,sans-Serif" font-size="14.00">samples = 24589</text>
<text text-anchor="middle" x="285" y="-227.45" font-family="Helvetica,sans-Serif" font-size="14.00">value = [21850, 17193]</text>
<text text-anchor="middle" x="285" y="-210.2" font-family="Helvetica,sans-Serif" font-size="14.00">class = Animal</text>
</g>
<!-- 1&#45;&gt;2 -->
<g id="edge2" class="edge">
<title>1&#45;&gt;2</title>
<path fill="none" stroke="black" d="M453.61,-333.23C432.22,-322.72 409.33,-311.47 387.53,-300.75"/>
<polygon fill="black" stroke="black" points="389.14,-297.65 378.62,-296.38 386.05,-303.93 389.14,-297.65"/>
</g>
<!-- 12469 -->
<g id="node10" class="node">
<title>12469</title>
<path fill="#eda775" stroke="black" d="M612.5,-296.5C612.5,-296.5 479.5,-296.5 479.5,-296.5 473.5,-296.5 467.5,-290.5 467.5,-284.5 467.5,-284.5 467.5,-214.25 467.5,-214.25 467.5,-208.25 473.5,-202.25 479.5,-202.25 479.5,-202.25 612.5,-202.25 612.5,-202.25 618.5,-202.25 624.5,-208.25 624.5,-214.25 624.5,-214.25 624.5,-284.5 624.5,-284.5 624.5,-290.5 618.5,-296.5 612.5,-296.5"/>
<text text-anchor="middle" x="546" y="-279.2" font-family="Helvetica,sans-Serif" font-size="14.00">10_G &lt;= 0.5</text>
<text text-anchor="middle" x="546" y="-261.95" font-family="Helvetica,sans-Serif" font-size="14.00">entropy = 0.785</text>
<text text-anchor="middle" x="546" y="-244.7" font-family="Helvetica,sans-Serif" font-size="14.00">samples = 1193</text>
<text text-anchor="middle" x="546" y="-227.45" font-family="Helvetica,sans-Serif" font-size="14.00">value = [1455, 444]</text>
<text text-anchor="middle" x="546" y="-210.2" font-family="Helvetica,sans-Serif" font-size="14.00">class = Animal</text>
</g>
<!-- 1&#45;&gt;12469 -->
<g id="edge9" class="edge">
<title>1&#45;&gt;12469</title>
<path fill="none" stroke="black" d="M546,-332.32C546,-324.42 546,-316.13 546,-307.98"/>
<polygon fill="black" stroke="black" points="549.5,-308.12 546,-298.12 542.5,-308.12 549.5,-308.12"/>
</g>
<!-- 3 -->
<g id="node4" class="node">
<title>3</title>
<path fill="#fbece2" stroke="black" d="M172,-166.25C172,-166.25 12,-166.25 12,-166.25 6,-166.25 0,-160.25 0,-154.25 0,-154.25 0,-84 0,-84 0,-78 6,-72 12,-72 12,-72 172,-72 172,-72 178,-72 184,-78 184,-84 184,-84 184,-154.25 184,-154.25 184,-160.25 178,-166.25 172,-166.25"/>
<text text-anchor="middle" x="92" y="-148.95" font-family="Helvetica,sans-Serif" font-size="14.00">19_A &lt;= 0.5</text>
<text text-anchor="middle" x="92" y="-131.7" font-family="Helvetica,sans-Serif" font-size="14.00">entropy = 0.995</text>
<text text-anchor="middle" x="92" y="-114.45" font-family="Helvetica,sans-Serif" font-size="14.00">samples = 19136</text>
<text text-anchor="middle" x="92" y="-97.2" font-family="Helvetica,sans-Serif" font-size="14.00">value = [16399, 13959]</text>
<text text-anchor="middle" x="92" y="-79.95" font-family="Helvetica,sans-Serif" font-size="14.00">class = Animal</text>
</g>
<!-- 2&#45;&gt;3 -->
<g id="edge3" class="edge">
<title>2&#45;&gt;3</title>
<path fill="none" stroke="black" d="M215.05,-201.89C200.89,-192.48 185.9,-182.53 171.45,-172.92"/>
<polygon fill="black" stroke="black" points="173.56,-170.12 163.3,-167.5 169.69,-175.95 173.56,-170.12"/>
</g>
<!-- 9862 -->
<g id="node7" class="node">
<title>9862</title>
<path fill="#f4ccae" stroke="black" d="M356,-166.25C356,-166.25 214,-166.25 214,-166.25 208,-166.25 202,-160.25 202,-154.25 202,-154.25 202,-84 202,-84 202,-78 208,-72 214,-72 214,-72 356,-72 356,-72 362,-72 368,-78 368,-84 368,-84 368,-154.25 368,-154.25 368,-160.25 362,-166.25 356,-166.25"/>
<text text-anchor="middle" x="285" y="-148.95" font-family="Helvetica,sans-Serif" font-size="14.00">17_A &lt;= 0.5</text>
<text text-anchor="middle" x="285" y="-131.7" font-family="Helvetica,sans-Serif" font-size="14.00">entropy = 0.952</text>
<text text-anchor="middle" x="285" y="-114.45" font-family="Helvetica,sans-Serif" font-size="14.00">samples = 5453</text>
<text text-anchor="middle" x="285" y="-97.2" font-family="Helvetica,sans-Serif" font-size="14.00">value = [5451, 3234]</text>
<text text-anchor="middle" x="285" y="-79.95" font-family="Helvetica,sans-Serif" font-size="14.00">class = Animal</text>
</g>
<!-- 2&#45;&gt;9862 -->
<g id="edge6" class="edge">
<title>2&#45;&gt;9862</title>
<path fill="none" stroke="black" d="M285,-202.07C285,-194.17 285,-185.88 285,-177.73"/>
<polygon fill="black" stroke="black" points="288.5,-177.87 285,-167.87 281.5,-177.87 288.5,-177.87"/>
</g>
<!-- 4 -->
<g id="node5" class="node">
<title>4</title>
<path fill="#c0c0c0" stroke="black" d="M71,-36C71,-36 41,-36 41,-36 35,-36 29,-30 29,-24 29,-24 29,-12 29,-12 29,-6 35,0 41,0 41,0 71,0 71,0 77,0 83,-6 83,-12 83,-12 83,-24 83,-24 83,-30 77,-36 71,-36"/>
<text text-anchor="middle" x="56" y="-13.32" font-family="Helvetica,sans-Serif" font-size="14.00">(...)</text>
</g>
<!-- 3&#45;&gt;4 -->
<g id="edge4" class="edge">
<title>3&#45;&gt;4</title>
<path fill="none" stroke="black" d="M75.16,-71.75C72.06,-63.22 68.92,-54.57 66.1,-46.8"/>
<polygon fill="black" stroke="black" points="69.46,-45.8 62.75,-37.6 62.88,-48.19 69.46,-45.8"/>
</g>
<!-- 7083 -->
<g id="node6" class="node">
<title>7083</title>
<path fill="#c0c0c0" stroke="black" d="M143,-36C143,-36 113,-36 113,-36 107,-36 101,-30 101,-24 101,-24 101,-12 101,-12 101,-6 107,0 113,0 113,0 143,0 143,0 149,0 155,-6 155,-12 155,-12 155,-24 155,-24 155,-30 149,-36 143,-36"/>
<text text-anchor="middle" x="128" y="-13.32" font-family="Helvetica,sans-Serif" font-size="14.00">(...)</text>
</g>
<!-- 3&#45;&gt;7083 -->
<g id="edge5" class="edge">
<title>3&#45;&gt;7083</title>
<path fill="none" stroke="black" d="M108.84,-71.75C111.94,-63.22 115.08,-54.57 117.9,-46.8"/>
<polygon fill="black" stroke="black" points="121.12,-48.19 121.25,-37.6 114.54,-45.8 121.12,-48.19"/>
</g>
<!-- 9863 -->
<g id="node8" class="node">
<title>9863</title>
<path fill="#c0c0c0" stroke="black" d="M259,-36C259,-36 229,-36 229,-36 223,-36 217,-30 217,-24 217,-24 217,-12 217,-12 217,-6 223,0 229,0 229,0 259,0 259,0 265,0 271,-6 271,-12 271,-12 271,-24 271,-24 271,-30 265,-36 259,-36"/>
<text text-anchor="middle" x="244" y="-13.32" font-family="Helvetica,sans-Serif" font-size="14.00">(...)</text>
</g>
<!-- 9862&#45;&gt;9863 -->
<g id="edge7" class="edge">
<title>9862&#45;&gt;9863</title>
<path fill="none" stroke="black" d="M265.82,-71.75C262.29,-63.22 258.71,-54.57 255.5,-46.8"/>
<polygon fill="black" stroke="black" points="258.74,-45.47 251.68,-37.57 252.27,-48.15 258.74,-45.47"/>
</g>
<!-- 11878 -->
<g id="node9" class="node">
<title>11878</title>
<path fill="#c0c0c0" stroke="black" d="M331,-36C331,-36 301,-36 301,-36 295,-36 289,-30 289,-24 289,-24 289,-12 289,-12 289,-6 295,0 301,0 301,0 331,0 331,0 337,0 343,-6 343,-12 343,-12 343,-24 343,-24 343,-30 337,-36 331,-36"/>
<text text-anchor="middle" x="316" y="-13.32" font-family="Helvetica,sans-Serif" font-size="14.00">(...)</text>
</g>
<!-- 9862&#45;&gt;11878 -->
<g id="edge8" class="edge">
<title>9862&#45;&gt;11878</title>
<path fill="none" stroke="black" d="M299.5,-71.75C302.14,-63.32 304.81,-54.77 307.22,-47.07"/>
<polygon fill="black" stroke="black" points="310.53,-48.21 310.18,-37.62 303.85,-46.12 310.53,-48.21"/>
</g>
<!-- 12470 -->
<g id="node11" class="node">
<title>12470</title>
<path fill="#eca26d" stroke="black" d="M531.5,-166.25C531.5,-166.25 398.5,-166.25 398.5,-166.25 392.5,-166.25 386.5,-160.25 386.5,-154.25 386.5,-154.25 386.5,-84 386.5,-84 386.5,-78 392.5,-72 398.5,-72 398.5,-72 531.5,-72 531.5,-72 537.5,-72 543.5,-78 543.5,-84 543.5,-84 543.5,-154.25 543.5,-154.25 543.5,-160.25 537.5,-166.25 531.5,-166.25"/>
<text text-anchor="middle" x="465" y="-148.95" font-family="Helvetica,sans-Serif" font-size="14.00">21_C &lt;= 0.5</text>
<text text-anchor="middle" x="465" y="-131.7" font-family="Helvetica,sans-Serif" font-size="14.00">entropy = 0.739</text>
<text text-anchor="middle" x="465" y="-114.45" font-family="Helvetica,sans-Serif" font-size="14.00">samples = 893</text>
<text text-anchor="middle" x="465" y="-97.2" font-family="Helvetica,sans-Serif" font-size="14.00">value = [1091, 288]</text>
<text text-anchor="middle" x="465" y="-79.95" font-family="Helvetica,sans-Serif" font-size="14.00">class = Animal</text>
</g>
<!-- 12469&#45;&gt;12470 -->
<g id="edge10" class="edge">
<title>12469&#45;&gt;12470</title>
<path fill="none" stroke="black" d="M516.76,-202.07C511.42,-193.63 505.81,-184.74 500.32,-176.05"/>
<polygon fill="black" stroke="black" points="503.31,-174.22 495.01,-167.64 497.39,-177.96 503.31,-174.22"/>
</g>
<!-- 12853 -->
<g id="node14" class="node">
<title>12853</title>
<path fill="#f0b78e" stroke="black" d="M698,-166.25C698,-166.25 574,-166.25 574,-166.25 568,-166.25 562,-160.25 562,-154.25 562,-154.25 562,-84 562,-84 562,-78 568,-72 574,-72 574,-72 698,-72 698,-72 704,-72 710,-78 710,-84 710,-84 710,-154.25 710,-154.25 710,-160.25 704,-166.25 698,-166.25"/>
<text text-anchor="middle" x="636" y="-148.95" font-family="Helvetica,sans-Serif" font-size="14.00">5_C &lt;= 0.5</text>
<text text-anchor="middle" x="636" y="-131.7" font-family="Helvetica,sans-Serif" font-size="14.00">entropy = 0.881</text>
<text text-anchor="middle" x="636" y="-114.45" font-family="Helvetica,sans-Serif" font-size="14.00">samples = 300</text>
<text text-anchor="middle" x="636" y="-97.2" font-family="Helvetica,sans-Serif" font-size="14.00">value = [364, 156]</text>
<text text-anchor="middle" x="636" y="-79.95" font-family="Helvetica,sans-Serif" font-size="14.00">class = Animal</text>
</g>
<!-- 12469&#45;&gt;12853 -->
<g id="edge13" class="edge">
<title>12469&#45;&gt;12853</title>
<path fill="none" stroke="black" d="M578.49,-202.07C584.48,-193.54 590.79,-184.54 596.95,-175.77"/>
<polygon fill="black" stroke="black" points="599.81,-177.79 602.69,-167.6 594.08,-173.77 599.81,-177.79"/>
</g>
<!-- 12471 -->
<g id="node12" class="node">
<title>12471</title>
<path fill="#c0c0c0" stroke="black" d="M421,-36C421,-36 391,-36 391,-36 385,-36 379,-30 379,-24 379,-24 379,-12 379,-12 379,-6 385,0 391,0 391,0 421,0 421,0 427,0 433,-6 433,-12 433,-12 433,-24 433,-24 433,-30 427,-36 421,-36"/>
<text text-anchor="middle" x="406" y="-13.32" font-family="Helvetica,sans-Serif" font-size="14.00">(...)</text>
</g>
<!-- 12470&#45;&gt;12471 -->
<g id="edge11" class="edge">
<title>12470&#45;&gt;12471</title>
<path fill="none" stroke="black" d="M437.4,-71.75C432.15,-62.93 426.81,-53.96 422.06,-45.99"/>
<polygon fill="black" stroke="black" points="425.12,-44.28 417,-37.47 419.1,-47.86 425.12,-44.28"/>
</g>
<!-- 12768 -->
<g id="node13" class="node">
<title>12768</title>
<path fill="#c0c0c0" stroke="black" d="M493,-36C493,-36 463,-36 463,-36 457,-36 451,-30 451,-24 451,-24 451,-12 451,-12 451,-6 457,0 463,0 463,0 493,0 493,0 499,0 505,-6 505,-12 505,-12 505,-24 505,-24 505,-30 499,-36 493,-36"/>
<text text-anchor="middle" x="478" y="-13.32" font-family="Helvetica,sans-Serif" font-size="14.00">(...)</text>
</g>
<!-- 12470&#45;&gt;12768 -->
<g id="edge12" class="edge">
<title>12470&#45;&gt;12768</title>
<path fill="none" stroke="black" d="M471.08,-71.75C472.17,-63.42 473.28,-54.97 474.28,-47.34"/>
<polygon fill="black" stroke="black" points="477.72,-48.04 475.55,-37.67 470.78,-47.13 477.72,-48.04"/>
</g>
<!-- 12854 -->
<g id="node15" class="node">
<title>12854</title>
<path fill="#c0c0c0" stroke="black" d="M597,-36C597,-36 567,-36 567,-36 561,-36 555,-30 555,-24 555,-24 555,-12 555,-12 555,-6 561,0 567,0 567,0 597,0 597,0 603,0 609,-6 609,-12 609,-12 609,-24 609,-24 609,-30 603,-36 597,-36"/>
<text text-anchor="middle" x="582" y="-13.32" font-family="Helvetica,sans-Serif" font-size="14.00">(...)</text>
</g>
<!-- 12853&#45;&gt;12854 -->
<g id="edge14" class="edge">
<title>12853&#45;&gt;12854</title>
<path fill="none" stroke="black" d="M610.74,-71.75C605.98,-63.03 601.16,-54.16 596.85,-46.26"/>
<polygon fill="black" stroke="black" points="599.94,-44.61 592.08,-37.5 593.79,-47.96 599.94,-44.61"/>
</g>
<!-- 12945 -->
<g id="node16" class="node">
<title>12945</title>
<path fill="#c0c0c0" stroke="black" d="M669,-36C669,-36 639,-36 639,-36 633,-36 627,-30 627,-24 627,-24 627,-12 627,-12 627,-6 633,0 639,0 639,0 669,0 669,0 675,0 681,-6 681,-12 681,-12 681,-24 681,-24 681,-30 675,-36 669,-36"/>
<text text-anchor="middle" x="654" y="-13.32" font-family="Helvetica,sans-Serif" font-size="14.00">(...)</text>
</g>
<!-- 12853&#45;&gt;12945 -->
<g id="edge15" class="edge">
<title>12853&#45;&gt;12945</title>
<path fill="none" stroke="black" d="M644.42,-71.75C645.93,-63.42 647.47,-54.97 648.85,-47.34"/>
<polygon fill="black" stroke="black" points="652.27,-48.13 650.61,-37.66 645.38,-46.88 652.27,-48.13"/>
</g>
<!-- 12979 -->
<g id="node18" class="node">
<title>12979</title>
<path fill="#8fc8f0" stroke="black" d="M978.5,-296.5C978.5,-296.5 827.5,-296.5 827.5,-296.5 821.5,-296.5 815.5,-290.5 815.5,-284.5 815.5,-284.5 815.5,-214.25 815.5,-214.25 815.5,-208.25 821.5,-202.25 827.5,-202.25 827.5,-202.25 978.5,-202.25 978.5,-202.25 984.5,-202.25 990.5,-208.25 990.5,-214.25 990.5,-214.25 990.5,-284.5 990.5,-284.5 990.5,-290.5 984.5,-296.5 978.5,-296.5"/>
<text text-anchor="middle" x="903" y="-279.2" font-family="Helvetica,sans-Serif" font-size="14.00">22_U &lt;= 0.5</text>
<text text-anchor="middle" x="903" y="-261.95" font-family="Helvetica,sans-Serif" font-size="14.00">entropy = 0.885</text>
<text text-anchor="middle" x="903" y="-244.7" font-family="Helvetica,sans-Serif" font-size="14.00">samples = 9492</text>
<text text-anchor="middle" x="903" y="-227.45" font-family="Helvetica,sans-Serif" font-size="14.00">value = [4503, 10343]</text>
<text text-anchor="middle" x="903" y="-210.2" font-family="Helvetica,sans-Serif" font-size="14.00">class = Plant</text>
</g>
<!-- 12978&#45;&gt;12979 -->
<g id="edge17" class="edge">
<title>12978&#45;&gt;12979</title>
<path fill="none" stroke="black" d="M903,-332.32C903,-324.42 903,-316.13 903,-307.98"/>
<polygon fill="black" stroke="black" points="906.5,-308.12 903,-298.12 899.5,-308.12 906.5,-308.12"/>
</g>
<!-- 15928 -->
<g id="node25" class="node">
<title>15928</title>
<path fill="#fdf8f3" stroke="black" d="M1251,-296.5C1251,-296.5 1109,-296.5 1109,-296.5 1103,-296.5 1097,-290.5 1097,-284.5 1097,-284.5 1097,-214.25 1097,-214.25 1097,-208.25 1103,-202.25 1109,-202.25 1109,-202.25 1251,-202.25 1251,-202.25 1257,-202.25 1263,-208.25 1263,-214.25 1263,-214.25 1263,-284.5 1263,-284.5 1263,-290.5 1257,-296.5 1251,-296.5"/>
<text text-anchor="middle" x="1180" y="-279.2" font-family="Helvetica,sans-Serif" font-size="14.00">4_G &lt;= 0.5</text>
<text text-anchor="middle" x="1180" y="-261.95" font-family="Helvetica,sans-Serif" font-size="14.00">entropy = 0.999</text>
<text text-anchor="middle" x="1180" y="-244.7" font-family="Helvetica,sans-Serif" font-size="14.00">samples = 2875</text>
<text text-anchor="middle" x="1180" y="-227.45" font-family="Helvetica,sans-Serif" font-size="14.00">value = [2347, 2210]</text>
<text text-anchor="middle" x="1180" y="-210.2" font-family="Helvetica,sans-Serif" font-size="14.00">class = Animal</text>
</g>
<!-- 12978&#45;&gt;15928 -->
<g id="edge24" class="edge">
<title>12978&#45;&gt;15928</title>
<path fill="none" stroke="black" d="M990.64,-338.05C1021.12,-323.94 1055.41,-308.06 1086.35,-293.74"/>
<polygon fill="black" stroke="black" points="1087.73,-296.95 1095.33,-289.58 1084.78,-290.6 1087.73,-296.95"/>
</g>
<!-- 12980 -->
<g id="node19" class="node">
<title>12980</title>
<path fill="#7dbfee" stroke="black" d="M891.5,-166.25C891.5,-166.25 740.5,-166.25 740.5,-166.25 734.5,-166.25 728.5,-160.25 728.5,-154.25 728.5,-154.25 728.5,-84 728.5,-84 728.5,-78 734.5,-72 740.5,-72 740.5,-72 891.5,-72 891.5,-72 897.5,-72 903.5,-78 903.5,-84 903.5,-84 903.5,-154.25 903.5,-154.25 903.5,-160.25 897.5,-166.25 891.5,-166.25"/>
<text text-anchor="middle" x="816" y="-148.95" font-family="Helvetica,sans-Serif" font-size="14.00">22_A &lt;= 0.5</text>
<text text-anchor="middle" x="816" y="-131.7" font-family="Helvetica,sans-Serif" font-size="14.00">entropy = 0.822</text>
<text text-anchor="middle" x="816" y="-114.45" font-family="Helvetica,sans-Serif" font-size="14.00">samples = 8607</text>
<text text-anchor="middle" x="816" y="-97.2" font-family="Helvetica,sans-Serif" font-size="14.00">value = [3458, 10014]</text>
<text text-anchor="middle" x="816" y="-79.95" font-family="Helvetica,sans-Serif" font-size="14.00">class = Plant</text>
</g>
<!-- 12979&#45;&gt;12980 -->
<g id="edge18" class="edge">
<title>12979&#45;&gt;12980</title>
<path fill="none" stroke="black" d="M871.59,-202.07C865.8,-193.54 859.7,-184.54 853.75,-175.77"/>
<polygon fill="black" stroke="black" points="856.72,-173.92 848.21,-167.61 850.93,-177.85 856.72,-173.92"/>
</g>
<!-- 15587 -->
<g id="node22" class="node">
<title>15587</title>
<path fill="#eda977" stroke="black" d="M1066.5,-166.25C1066.5,-166.25 933.5,-166.25 933.5,-166.25 927.5,-166.25 921.5,-160.25 921.5,-154.25 921.5,-154.25 921.5,-84 921.5,-84 921.5,-78 927.5,-72 933.5,-72 933.5,-72 1066.5,-72 1066.5,-72 1072.5,-72 1078.5,-78 1078.5,-84 1078.5,-84 1078.5,-154.25 1078.5,-154.25 1078.5,-160.25 1072.5,-166.25 1066.5,-166.25"/>
<text text-anchor="middle" x="1000" y="-148.95" font-family="Helvetica,sans-Serif" font-size="14.00">17_C &lt;= 0.5</text>
<text text-anchor="middle" x="1000" y="-131.7" font-family="Helvetica,sans-Serif" font-size="14.00">entropy = 0.794</text>
<text text-anchor="middle" x="1000" y="-114.45" font-family="Helvetica,sans-Serif" font-size="14.00">samples = 885</text>
<text text-anchor="middle" x="1000" y="-97.2" font-family="Helvetica,sans-Serif" font-size="14.00">value = [1045, 329]</text>
<text text-anchor="middle" x="1000" y="-79.95" font-family="Helvetica,sans-Serif" font-size="14.00">class = Animal</text>
</g>
<!-- 12979&#45;&gt;15587 -->
<g id="edge21" class="edge">
<title>12979&#45;&gt;15587</title>
<path fill="none" stroke="black" d="M938.02,-202.07C944.54,-193.45 951.42,-184.35 958.13,-175.49"/>
<polygon fill="black" stroke="black" points="960.88,-177.65 964.12,-167.57 955.3,-173.43 960.88,-177.65"/>
</g>
<!-- 12981 -->
<g id="node20" class="node">
<title>12981</title>
<path fill="#c0c0c0" stroke="black" d="M779,-36C779,-36 749,-36 749,-36 743,-36 737,-30 737,-24 737,-24 737,-12 737,-12 737,-6 743,0 749,0 749,0 779,0 779,0 785,0 791,-6 791,-12 791,-12 791,-24 791,-24 791,-30 785,-36 779,-36"/>
<text text-anchor="middle" x="764" y="-13.32" font-family="Helvetica,sans-Serif" font-size="14.00">(...)</text>
</g>
<!-- 12980&#45;&gt;12981 -->
<g id="edge19" class="edge">
<title>12980&#45;&gt;12981</title>
<path fill="none" stroke="black" d="M791.67,-71.75C787.1,-63.03 782.45,-54.16 778.3,-46.26"/>
<polygon fill="black" stroke="black" points="781.46,-44.74 773.71,-37.51 775.26,-47.99 781.46,-44.74"/>
</g>
<!-- 15164 -->
<g id="node21" class="node">
<title>15164</title>
<path fill="#c0c0c0" stroke="black" d="M851,-36C851,-36 821,-36 821,-36 815,-36 809,-30 809,-24 809,-24 809,-12 809,-12 809,-6 815,0 821,0 821,0 851,0 851,0 857,0 863,-6 863,-12 863,-12 863,-24 863,-24 863,-30 857,-36 851,-36"/>
<text text-anchor="middle" x="836" y="-13.32" font-family="Helvetica,sans-Serif" font-size="14.00">(...)</text>
</g>
<!-- 12980&#45;&gt;15164 -->
<g id="edge20" class="edge">
<title>12980&#45;&gt;15164</title>
<path fill="none" stroke="black" d="M825.36,-71.75C827.04,-63.42 828.74,-54.97 830.28,-47.34"/>
<polygon fill="black" stroke="black" points="833.69,-48.15 832.24,-37.66 826.83,-46.77 833.69,-48.15"/>
</g>
<!-- 15588 -->
<g id="node23" class="node">
<title>15588</title>
<path fill="#c0c0c0" stroke="black" d="M961,-36C961,-36 931,-36 931,-36 925,-36 919,-30 919,-24 919,-24 919,-12 919,-12 919,-6 925,0 931,0 931,0 961,0 961,0 967,0 973,-6 973,-12 973,-12 973,-24 973,-24 973,-30 967,-36 961,-36"/>
<text text-anchor="middle" x="946" y="-13.32" font-family="Helvetica,sans-Serif" font-size="14.00">(...)</text>
</g>
<!-- 15587&#45;&gt;15588 -->
<g id="edge22" class="edge">
<title>15587&#45;&gt;15588</title>
<path fill="none" stroke="black" d="M974.74,-71.75C969.98,-63.03 965.16,-54.16 960.85,-46.26"/>
<polygon fill="black" stroke="black" points="963.94,-44.61 956.08,-37.5 957.79,-47.96 963.94,-44.61"/>
</g>
<!-- 15859 -->
<g id="node24" class="node">
<title>15859</title>
<path fill="#c0c0c0" stroke="black" d="M1033,-36C1033,-36 1003,-36 1003,-36 997,-36 991,-30 991,-24 991,-24 991,-12 991,-12 991,-6 997,0 1003,0 1003,0 1033,0 1033,0 1039,0 1045,-6 1045,-12 1045,-12 1045,-24 1045,-24 1045,-30 1039,-36 1033,-36"/>
<text text-anchor="middle" x="1018" y="-13.32" font-family="Helvetica,sans-Serif" font-size="14.00">(...)</text>
</g>
<!-- 15587&#45;&gt;15859 -->
<g id="edge23" class="edge">
<title>15587&#45;&gt;15859</title>
<path fill="none" stroke="black" d="M1008.42,-71.75C1009.93,-63.42 1011.47,-54.97 1012.85,-47.34"/>
<polygon fill="black" stroke="black" points="1016.27,-48.13 1014.61,-37.66 1009.38,-46.88 1016.27,-48.13"/>
</g>
<!-- 15929 -->
<g id="node26" class="node">
<title>15929</title>
<path fill="#e1f0fb" stroke="black" d="M1251,-166.25C1251,-166.25 1109,-166.25 1109,-166.25 1103,-166.25 1097,-160.25 1097,-154.25 1097,-154.25 1097,-84 1097,-84 1097,-78 1103,-72 1109,-72 1109,-72 1251,-72 1251,-72 1257,-72 1263,-78 1263,-84 1263,-84 1263,-154.25 1263,-154.25 1263,-160.25 1257,-166.25 1251,-166.25"/>
<text text-anchor="middle" x="1180" y="-148.95" font-family="Helvetica,sans-Serif" font-size="14.00">12_U &lt;= 0.5</text>
<text text-anchor="middle" x="1180" y="-131.7" font-family="Helvetica,sans-Serif" font-size="14.00">entropy = 0.995</text>
<text text-anchor="middle" x="1180" y="-114.45" font-family="Helvetica,sans-Serif" font-size="14.00">samples = 2173</text>
<text text-anchor="middle" x="1180" y="-97.2" font-family="Helvetica,sans-Serif" font-size="14.00">value = [1582, 1860]</text>
<text text-anchor="middle" x="1180" y="-79.95" font-family="Helvetica,sans-Serif" font-size="14.00">class = Plant</text>
</g>
<!-- 15928&#45;&gt;15929 -->
<g id="edge25" class="edge">
<title>15928&#45;&gt;15929</title>
<path fill="none" stroke="black" d="M1180,-202.07C1180,-194.17 1180,-185.88 1180,-177.73"/>
<polygon fill="black" stroke="black" points="1183.5,-177.87 1180,-167.87 1176.5,-177.87 1183.5,-177.87"/>
</g>
<!-- 16770 -->
<g id="node29" class="node">
<title>16770</title>
<path fill="#f1bb94" stroke="black" d="M1417,-166.25C1417,-166.25 1293,-166.25 1293,-166.25 1287,-166.25 1281,-160.25 1281,-154.25 1281,-154.25 1281,-84 1281,-84 1281,-78 1287,-72 1293,-72 1293,-72 1417,-72 1417,-72 1423,-72 1429,-78 1429,-84 1429,-84 1429,-154.25 1429,-154.25 1429,-160.25 1423,-166.25 1417,-166.25"/>
<text text-anchor="middle" x="1355" y="-148.95" font-family="Helvetica,sans-Serif" font-size="14.00">2_G &lt;= 0.5</text>
<text text-anchor="middle" x="1355" y="-131.7" font-family="Helvetica,sans-Serif" font-size="14.00">entropy = 0.898</text>
<text text-anchor="middle" x="1355" y="-114.45" font-family="Helvetica,sans-Serif" font-size="14.00">samples = 702</text>
<text text-anchor="middle" x="1355" y="-97.2" font-family="Helvetica,sans-Serif" font-size="14.00">value = [765, 350]</text>
<text text-anchor="middle" x="1355" y="-79.95" font-family="Helvetica,sans-Serif" font-size="14.00">class = Animal</text>
</g>
<!-- 15928&#45;&gt;16770 -->
<g id="edge28" class="edge">
<title>15928&#45;&gt;16770</title>
<path fill="none" stroke="black" d="M1243.18,-202.07C1255.99,-192.69 1269.55,-182.75 1282.64,-173.15"/>
<polygon fill="black" stroke="black" points="1284.4,-176.2 1290.4,-167.47 1280.26,-170.56 1284.4,-176.2"/>
</g>
<!-- 15930 -->
<g id="node27" class="node">
<title>15930</title>
<path fill="#c0c0c0" stroke="black" d="M1156,-36C1156,-36 1126,-36 1126,-36 1120,-36 1114,-30 1114,-24 1114,-24 1114,-12 1114,-12 1114,-6 1120,0 1126,0 1126,0 1156,0 1156,0 1162,0 1168,-6 1168,-12 1168,-12 1168,-24 1168,-24 1168,-30 1162,-36 1156,-36"/>
<text text-anchor="middle" x="1141" y="-13.32" font-family="Helvetica,sans-Serif" font-size="14.00">(...)</text>
</g>
<!-- 15929&#45;&gt;15930 -->
<g id="edge26" class="edge">
<title>15929&#45;&gt;15930</title>
<path fill="none" stroke="black" d="M1161.76,-71.75C1158.4,-63.22 1154.99,-54.57 1151.94,-46.8"/>
<polygon fill="black" stroke="black" points="1155.23,-45.61 1148.31,-37.58 1148.71,-48.17 1155.23,-45.61"/>
</g>
<!-- 16537 -->
<g id="node28" class="node">
<title>16537</title>
<path fill="#c0c0c0" stroke="black" d="M1228,-36C1228,-36 1198,-36 1198,-36 1192,-36 1186,-30 1186,-24 1186,-24 1186,-12 1186,-12 1186,-6 1192,0 1198,0 1198,0 1228,0 1228,0 1234,0 1240,-6 1240,-12 1240,-12 1240,-24 1240,-24 1240,-30 1234,-36 1228,-36"/>
<text text-anchor="middle" x="1213" y="-13.32" font-family="Helvetica,sans-Serif" font-size="14.00">(...)</text>
</g>
<!-- 15929&#45;&gt;16537 -->
<g id="edge27" class="edge">
<title>15929&#45;&gt;16537</title>
<path fill="none" stroke="black" d="M1195.44,-71.75C1198.24,-63.32 1201.09,-54.77 1203.66,-47.07"/>
<polygon fill="black" stroke="black" points="1206.97,-48.2 1206.8,-37.61 1200.33,-45.99 1206.97,-48.2"/>
</g>
<!-- 16771 -->
<g id="node30" class="node">
<title>16771</title>
<path fill="#c0c0c0" stroke="black" d="M1334,-36C1334,-36 1304,-36 1304,-36 1298,-36 1292,-30 1292,-24 1292,-24 1292,-12 1292,-12 1292,-6 1298,0 1304,0 1304,0 1334,0 1334,0 1340,0 1346,-6 1346,-12 1346,-12 1346,-24 1346,-24 1346,-30 1340,-36 1334,-36"/>
<text text-anchor="middle" x="1319" y="-13.32" font-family="Helvetica,sans-Serif" font-size="14.00">(...)</text>
</g>
<!-- 16770&#45;&gt;16771 -->
<g id="edge29" class="edge">
<title>16770&#45;&gt;16771</title>
<path fill="none" stroke="black" d="M1338.16,-71.75C1335.06,-63.22 1331.92,-54.57 1329.1,-46.8"/>
<polygon fill="black" stroke="black" points="1332.46,-45.8 1325.75,-37.6 1325.88,-48.19 1332.46,-45.8"/>
</g>
<!-- 17024 -->
<g id="node31" class="node">
<title>17024</title>
<path fill="#c0c0c0" stroke="black" d="M1406,-36C1406,-36 1376,-36 1376,-36 1370,-36 1364,-30 1364,-24 1364,-24 1364,-12 1364,-12 1364,-6 1370,0 1376,0 1376,0 1406,0 1406,0 1412,0 1418,-6 1418,-12 1418,-12 1418,-24 1418,-24 1418,-30 1412,-36 1406,-36"/>
<text text-anchor="middle" x="1391" y="-13.32" font-family="Helvetica,sans-Serif" font-size="14.00">(...)</text>
</g>
<!-- 16770&#45;&gt;17024 -->
<g id="edge30" class="edge">
<title>16770&#45;&gt;17024</title>
<path fill="none" stroke="black" d="M1371.84,-71.75C1374.94,-63.22 1378.08,-54.57 1380.9,-46.8"/>
<polygon fill="black" stroke="black" points="1384.12,-48.19 1384.25,-37.6 1377.54,-45.8 1384.12,-48.19"/>
</g>
</g>
</svg>
