<?xml version="1.0" encoding="UTF-8" standalone="no"?>
<!DOCTYPE svg PUBLIC "-//W3C//DTD SVG 1.1//EN"
 "http://www.w3.org/Graphics/SVG/1.1/DTD/svg11.dtd">
<!-- Generated by graphviz version 12.0.0 (20240803.0821)
 -->
<!-- Title: Tree Pages: 1 -->
<svg width="1411pt" height="565pt"
 viewBox="0.00 0.00 1410.50 565.00" xmlns="http://www.w3.org/2000/svg" xmlns:xlink="http://www.w3.org/1999/xlink">
<g id="graph0" class="graph" transform="scale(1 1) rotate(0) translate(4 561)">
<title>Tree</title>
<polygon fill="white" stroke="none" points="-4,4 -4,-561 1406.5,-561 1406.5,4 -4,4"/>
<!-- 0 -->
<g id="node1" class="node">
<title>0</title>
<path fill="#fffefe" stroke="black" d="M791,-557C791,-557 631,-557 631,-557 625,-557 619,-551 619,-545 619,-545 619,-474.75 619,-474.75 619,-468.75 625,-462.75 631,-462.75 631,-462.75 791,-462.75 791,-462.75 797,-462.75 803,-468.75 803,-474.75 803,-474.75 803,-545 803,-545 803,-551 797,-557 791,-557"/>
<text text-anchor="middle" x="711" y="-539.7" font-family="Helvetica,sans-Serif" font-size="14.00">1_U &lt;= 0.5</text>
<text text-anchor="middle" x="711" y="-522.45" font-family="Helvetica,sans-Serif" font-size="14.00">entropy = 1.0</text>
<text text-anchor="middle" x="711" y="-505.2" font-family="Helvetica,sans-Serif" font-size="14.00">samples = 38119</text>
<text text-anchor="middle" x="711" y="-487.95" font-family="Helvetica,sans-Serif" font-size="14.00">value = [30273, 30072]</text>
<text text-anchor="middle" x="711" y="-470.7" font-family="Helvetica,sans-Serif" font-size="14.00">class = Animal</text>
</g>
<!-- 1 -->
<g id="node2" class="node">
<title>1</title>
<path fill="#f8dcc8" stroke="black" d="M611,-426.75C611,-426.75 451,-426.75 451,-426.75 445,-426.75 439,-420.75 439,-414.75 439,-414.75 439,-344.5 439,-344.5 439,-338.5 445,-332.5 451,-332.5 451,-332.5 611,-332.5 611,-332.5 617,-332.5 623,-338.5 623,-344.5 623,-344.5 623,-414.75 623,-414.75 623,-420.75 617,-426.75 611,-426.75"/>
<text text-anchor="middle" x="531" y="-409.45" font-family="Helvetica,sans-Serif" font-size="14.00">18_U &lt;= 0.5</text>
<text text-anchor="middle" x="531" y="-392.2" font-family="Helvetica,sans-Serif" font-size="14.00">entropy = 0.981</text>
<text text-anchor="middle" x="531" y="-374.95" font-family="Helvetica,sans-Serif" font-size="14.00">samples = 17890</text>
<text text-anchor="middle" x="531" y="-357.7" font-family="Helvetica,sans-Serif" font-size="14.00">value = [16419, 11831]</text>
<text text-anchor="middle" x="531" y="-340.45" font-family="Helvetica,sans-Serif" font-size="14.00">class = Animal</text>
</g>
<!-- 0&#45;&gt;1 -->
<g id="edge1" class="edge">
<title>0&#45;&gt;1</title>
<path fill="none" stroke="black" d="M645.76,-462.39C632.68,-453.07 618.85,-443.22 605.48,-433.69"/>
<polygon fill="black" stroke="black" points="607.73,-430.99 597.55,-428.04 603.66,-436.7 607.73,-430.99"/>
<text text-anchor="middle" x="600.46" y="-447.14" font-family="Helvetica,sans-Serif" font-size="14.00">True</text>
</g>
<!-- 9466 -->
<g id="node17" class="node">
<title>9466</title>
<path fill="#cfe7f9" stroke="black" d="M975,-426.75C975,-426.75 815,-426.75 815,-426.75 809,-426.75 803,-420.75 803,-414.75 803,-414.75 803,-344.5 803,-344.5 803,-338.5 809,-332.5 815,-332.5 815,-332.5 975,-332.5 975,-332.5 981,-332.5 987,-338.5 987,-344.5 987,-344.5 987,-414.75 987,-414.75 987,-420.75 981,-426.75 975,-426.75"/>
<text text-anchor="middle" x="895" y="-409.45" font-family="Helvetica,sans-Serif" font-size="14.00">23_U &lt;= 0.5</text>
<text text-anchor="middle" x="895" y="-392.2" font-family="Helvetica,sans-Serif" font-size="14.00">entropy = 0.986</text>
<text text-anchor="middle" x="895" y="-374.95" font-family="Helvetica,sans-Serif" font-size="14.00">samples = 20229</text>
<text text-anchor="middle" x="895" y="-357.7" font-family="Helvetica,sans-Serif" font-size="14.00">value = [13854, 18241]</text>
<text text-anchor="middle" x="895" y="-340.45" font-family="Helvetica,sans-Serif" font-size="14.00">class = Plant</text>
</g>
<!-- 0&#45;&gt;9466 -->
<g id="edge16" class="edge">
<title>0&#45;&gt;9466</title>
<path fill="none" stroke="black" d="M777.69,-462.39C791.06,-453.07 805.2,-443.22 818.86,-433.69"/>
<polygon fill="black" stroke="black" points="820.79,-436.62 826.99,-428.03 816.78,-430.88 820.79,-436.62"/>
<text text-anchor="middle" x="823.84" y="-447.1" font-family="Helvetica,sans-Serif" font-size="14.00">False</text>
</g>
<!-- 2 -->
<g id="node3" class="node">
<title>2</title>
<path fill="#fae8db" stroke="black" d="M338.5,-296.5C338.5,-296.5 187.5,-296.5 187.5,-296.5 181.5,-296.5 175.5,-290.5 175.5,-284.5 175.5,-284.5 175.5,-214.25 175.5,-214.25 175.5,-208.25 181.5,-202.25 187.5,-202.25 187.5,-202.25 338.5,-202.25 338.5,-202.25 344.5,-202.25 350.5,-208.25 350.5,-214.25 350.5,-214.25 350.5,-284.5 350.5,-284.5 350.5,-290.5 344.5,-296.5 338.5,-296.5"/>
<text text-anchor="middle" x="263" y="-279.2" font-family="Helvetica,sans-Serif" font-size="14.00">22_U &lt;= 0.5</text>
<text text-anchor="middle" x="263" y="-261.95" font-family="Helvetica,sans-Serif" font-size="14.00">entropy = 0.993</text>
<text text-anchor="middle" x="263" y="-244.7" font-family="Helvetica,sans-Serif" font-size="14.00">samples = 13201</text>
<text text-anchor="middle" x="263" y="-227.45" font-family="Helvetica,sans-Serif" font-size="14.00">value = [11483, 9422]</text>
<text text-anchor="middle" x="263" y="-210.2" font-family="Helvetica,sans-Serif" font-size="14.00">class = Animal</text>
</g>
<!-- 1&#45;&gt;2 -->
<g id="edge2" class="edge">
<title>1&#45;&gt;2</title>
<path fill="none" stroke="black" d="M438.77,-334.49C413.75,-322.52 386.57,-309.51 361.24,-297.39"/>
<polygon fill="black" stroke="black" points="362.78,-294.24 352.25,-293.08 359.76,-300.56 362.78,-294.24"/>
</g>
<!-- 6891 -->
<g id="node10" class="node">
<title>6891</title>
<path fill="#f2be9a" stroke="black" d="M602,-296.5C602,-296.5 460,-296.5 460,-296.5 454,-296.5 448,-290.5 448,-284.5 448,-284.5 448,-214.25 448,-214.25 448,-208.25 454,-202.25 460,-202.25 460,-202.25 602,-202.25 602,-202.25 608,-202.25 614,-208.25 614,-214.25 614,-214.25 614,-284.5 614,-284.5 614,-290.5 608,-296.5 602,-296.5"/>
<text text-anchor="middle" x="531" y="-279.2" font-family="Helvetica,sans-Serif" font-size="14.00">11_A &lt;= 0.5</text>
<text text-anchor="middle" x="531" y="-261.95" font-family="Helvetica,sans-Serif" font-size="14.00">entropy = 0.913</text>
<text text-anchor="middle" x="531" y="-244.7" font-family="Helvetica,sans-Serif" font-size="14.00">samples = 4689</text>
<text text-anchor="middle" x="531" y="-227.45" font-family="Helvetica,sans-Serif" font-size="14.00">value = [4936, 2409]</text>
<text text-anchor="middle" x="531" y="-210.2" font-family="Helvetica,sans-Serif" font-size="14.00">class = Animal</text>
</g>
<!-- 1&#45;&gt;6891 -->
<g id="edge9" class="edge">
<title>1&#45;&gt;6891</title>
<path fill="none" stroke="black" d="M531,-332.32C531,-324.42 531,-316.13 531,-307.98"/>
<polygon fill="black" stroke="black" points="534.5,-308.12 531,-298.12 527.5,-308.12 534.5,-308.12"/>
</g>
<!-- 3 -->
<g id="node4" class="node">
<title>3</title>
<path fill="#fefcfa" stroke="black" d="M154,-166.25C154,-166.25 12,-166.25 12,-166.25 6,-166.25 0,-160.25 0,-154.25 0,-154.25 0,-84 0,-84 0,-78 6,-72 12,-72 12,-72 154,-72 154,-72 160,-72 166,-78 166,-84 166,-84 166,-154.25 166,-154.25 166,-160.25 160,-166.25 154,-166.25"/>
<text text-anchor="middle" x="83" y="-148.95" font-family="Helvetica,sans-Serif" font-size="14.00">12_U &lt;= 0.5</text>
<text text-anchor="middle" x="83" y="-131.7" font-family="Helvetica,sans-Serif" font-size="14.00">entropy = 1.0</text>
<text text-anchor="middle" x="83" y="-114.45" font-family="Helvetica,sans-Serif" font-size="14.00">samples = 11323</text>
<text text-anchor="middle" x="83" y="-97.2" font-family="Helvetica,sans-Serif" font-size="14.00">value = [9074, 8838]</text>
<text text-anchor="middle" x="83" y="-79.95" font-family="Helvetica,sans-Serif" font-size="14.00">class = Animal</text>
</g>
<!-- 2&#45;&gt;3 -->
<g id="edge3" class="edge">
<title>2&#45;&gt;3</title>
<path fill="none" stroke="black" d="M197.76,-201.89C184.68,-192.57 170.85,-182.72 157.48,-173.19"/>
<polygon fill="black" stroke="black" points="159.73,-170.49 149.55,-167.54 155.66,-176.2 159.73,-170.49"/>
</g>
<!-- 6112 -->
<g id="node7" class="node">
<title>6112</title>
<path fill="#eba069" stroke="black" d="M329.5,-166.25C329.5,-166.25 196.5,-166.25 196.5,-166.25 190.5,-166.25 184.5,-160.25 184.5,-154.25 184.5,-154.25 184.5,-84 184.5,-84 184.5,-78 190.5,-72 196.5,-72 196.5,-72 329.5,-72 329.5,-72 335.5,-72 341.5,-78 341.5,-84 341.5,-84 341.5,-154.25 341.5,-154.25 341.5,-160.25 335.5,-166.25 329.5,-166.25"/>
<text text-anchor="middle" x="263" y="-148.95" font-family="Helvetica,sans-Serif" font-size="14.00">28_U &lt;= 0.5</text>
<text text-anchor="middle" x="263" y="-131.7" font-family="Helvetica,sans-Serif" font-size="14.00">entropy = 0.712</text>
<text text-anchor="middle" x="263" y="-114.45" font-family="Helvetica,sans-Serif" font-size="14.00">samples = 1878</text>
<text text-anchor="middle" x="263" y="-97.2" font-family="Helvetica,sans-Serif" font-size="14.00">value = [2409, 584]</text>
<text text-anchor="middle" x="263" y="-79.95" font-family="Helvetica,sans-Serif" font-size="14.00">class = Animal</text>
</g>
<!-- 2&#45;&gt;6112 -->
<g id="edge6" class="edge">
<title>2&#45;&gt;6112</title>
<path fill="none" stroke="black" d="M263,-202.07C263,-194.17 263,-185.88 263,-177.73"/>
<polygon fill="black" stroke="black" points="266.5,-177.87 263,-167.87 259.5,-177.87 266.5,-177.87"/>
</g>
<!-- 4 -->
<g id="node5" class="node">
<title>4</title>
<path fill="#c0c0c0" stroke="black" d="M62,-36C62,-36 32,-36 32,-36 26,-36 20,-30 20,-24 20,-24 20,-12 20,-12 20,-6 26,0 32,0 32,0 62,0 62,0 68,0 74,-6 74,-12 74,-12 74,-24 74,-24 74,-30 68,-36 62,-36"/>
<text text-anchor="middle" x="47" y="-13.32" font-family="Helvetica,sans-Serif" font-size="14.00">(...)</text>
</g>
<!-- 3&#45;&gt;4 -->
<g id="edge4" class="edge">
<title>3&#45;&gt;4</title>
<path fill="none" stroke="black" d="M66.16,-71.75C63.06,-63.22 59.92,-54.57 57.1,-46.8"/>
<polygon fill="black" stroke="black" points="60.46,-45.8 53.75,-37.6 53.88,-48.19 60.46,-45.8"/>
</g>
<!-- 4409 -->
<g id="node6" class="node">
<title>4409</title>
<path fill="#c0c0c0" stroke="black" d="M134,-36C134,-36 104,-36 104,-36 98,-36 92,-30 92,-24 92,-24 92,-12 92,-12 92,-6 98,0 104,0 104,0 134,0 134,0 140,0 146,-6 146,-12 146,-12 146,-24 146,-24 146,-30 140,-36 134,-36"/>
<text text-anchor="middle" x="119" y="-13.32" font-family="Helvetica,sans-Serif" font-size="14.00">(...)</text>
</g>
<!-- 3&#45;&gt;4409 -->
<g id="edge5" class="edge">
<title>3&#45;&gt;4409</title>
<path fill="none" stroke="black" d="M99.84,-71.75C102.94,-63.22 106.08,-54.57 108.9,-46.8"/>
<polygon fill="black" stroke="black" points="112.12,-48.19 112.25,-37.6 105.54,-45.8 112.12,-48.19"/>
</g>
<!-- 6113 -->
<g id="node8" class="node">
<title>6113</title>
<path fill="#c0c0c0" stroke="black" d="M242,-36C242,-36 212,-36 212,-36 206,-36 200,-30 200,-24 200,-24 200,-12 200,-12 200,-6 206,0 212,0 212,0 242,0 242,0 248,0 254,-6 254,-12 254,-12 254,-24 254,-24 254,-30 248,-36 242,-36"/>
<text text-anchor="middle" x="227" y="-13.32" font-family="Helvetica,sans-Serif" font-size="14.00">(...)</text>
</g>
<!-- 6112&#45;&gt;6113 -->
<g id="edge7" class="edge">
<title>6112&#45;&gt;6113</title>
<path fill="none" stroke="black" d="M246.16,-71.75C243.06,-63.22 239.92,-54.57 237.1,-46.8"/>
<polygon fill="black" stroke="black" points="240.46,-45.8 233.75,-37.6 233.88,-48.19 240.46,-45.8"/>
</g>
<!-- 6890 -->
<g id="node9" class="node">
<title>6890</title>
<path fill="#c0c0c0" stroke="black" d="M314,-36C314,-36 284,-36 284,-36 278,-36 272,-30 272,-24 272,-24 272,-12 272,-12 272,-6 278,0 284,0 284,0 314,0 314,0 320,0 326,-6 326,-12 326,-12 326,-24 326,-24 326,-30 320,-36 314,-36"/>
<text text-anchor="middle" x="299" y="-13.32" font-family="Helvetica,sans-Serif" font-size="14.00">(...)</text>
</g>
<!-- 6112&#45;&gt;6890 -->
<g id="edge8" class="edge">
<title>6112&#45;&gt;6890</title>
<path fill="none" stroke="black" d="M279.84,-71.75C282.94,-63.22 286.08,-54.57 288.9,-46.8"/>
<polygon fill="black" stroke="black" points="292.12,-48.19 292.25,-37.6 285.54,-45.8 292.12,-48.19"/>
</g>
<!-- 6892 -->
<g id="node11" class="node">
<title>6892</title>
<path fill="#f0b890" stroke="black" d="M514,-166.25C514,-166.25 372,-166.25 372,-166.25 366,-166.25 360,-160.25 360,-154.25 360,-154.25 360,-84 360,-84 360,-78 366,-72 372,-72 372,-72 514,-72 514,-72 520,-72 526,-78 526,-84 526,-84 526,-154.25 526,-154.25 526,-160.25 520,-166.25 514,-166.25"/>
<text text-anchor="middle" x="443" y="-148.95" font-family="Helvetica,sans-Serif" font-size="14.00">19_U &lt;= 0.5</text>
<text text-anchor="middle" x="443" y="-131.7" font-family="Helvetica,sans-Serif" font-size="14.00">entropy = 0.888</text>
<text text-anchor="middle" x="443" y="-114.45" font-family="Helvetica,sans-Serif" font-size="14.00">samples = 3547</text>
<text text-anchor="middle" x="443" y="-97.2" font-family="Helvetica,sans-Serif" font-size="14.00">value = [3851, 1692]</text>
<text text-anchor="middle" x="443" y="-79.95" font-family="Helvetica,sans-Serif" font-size="14.00">class = Animal</text>
</g>
<!-- 6891&#45;&gt;6892 -->
<g id="edge10" class="edge">
<title>6891&#45;&gt;6892</title>
<path fill="none" stroke="black" d="M499.23,-202.07C493.37,-193.54 487.2,-184.54 481.18,-175.77"/>
<polygon fill="black" stroke="black" points="484.12,-173.87 475.58,-167.61 478.35,-177.83 484.12,-173.87"/>
</g>
<!-- 8799 -->
<g id="node14" class="node">
<title>8799</title>
<path fill="#f6d4bc" stroke="black" d="M689.5,-166.25C689.5,-166.25 556.5,-166.25 556.5,-166.25 550.5,-166.25 544.5,-160.25 544.5,-154.25 544.5,-154.25 544.5,-84 544.5,-84 544.5,-78 550.5,-72 556.5,-72 556.5,-72 689.5,-72 689.5,-72 695.5,-72 701.5,-78 701.5,-84 701.5,-84 701.5,-154.25 701.5,-154.25 701.5,-160.25 695.5,-166.25 689.5,-166.25"/>
<text text-anchor="middle" x="623" y="-148.95" font-family="Helvetica,sans-Serif" font-size="14.00">14_G &lt;= 0.5</text>
<text text-anchor="middle" x="623" y="-131.7" font-family="Helvetica,sans-Serif" font-size="14.00">entropy = 0.97</text>
<text text-anchor="middle" x="623" y="-114.45" font-family="Helvetica,sans-Serif" font-size="14.00">samples = 1142</text>
<text text-anchor="middle" x="623" y="-97.2" font-family="Helvetica,sans-Serif" font-size="14.00">value = [1085, 717]</text>
<text text-anchor="middle" x="623" y="-79.95" font-family="Helvetica,sans-Serif" font-size="14.00">class = Animal</text>
</g>
<!-- 6891&#45;&gt;8799 -->
<g id="edge13" class="edge">
<title>6891&#45;&gt;8799</title>
<path fill="none" stroke="black" d="M564.21,-202.07C570.4,-193.45 576.93,-184.35 583.29,-175.49"/>
<polygon fill="black" stroke="black" points="585.97,-177.75 588.95,-167.59 580.28,-173.67 585.97,-177.75"/>
</g>
<!-- 6893 -->
<g id="node12" class="node">
<title>6893</title>
<path fill="#c0c0c0" stroke="black" d="M426,-36C426,-36 396,-36 396,-36 390,-36 384,-30 384,-24 384,-24 384,-12 384,-12 384,-6 390,0 396,0 396,0 426,0 426,0 432,0 438,-6 438,-12 438,-12 438,-24 438,-24 438,-30 432,-36 426,-36"/>
<text text-anchor="middle" x="411" y="-13.32" font-family="Helvetica,sans-Serif" font-size="14.00">(...)</text>
</g>
<!-- 6892&#45;&gt;6893 -->
<g id="edge11" class="edge">
<title>6892&#45;&gt;6893</title>
<path fill="none" stroke="black" d="M428.03,-71.75C425.31,-63.32 422.55,-54.77 420.06,-47.07"/>
<polygon fill="black" stroke="black" points="423.41,-46.05 417.01,-37.61 416.75,-48.2 423.41,-46.05"/>
</g>
<!-- 8290 -->
<g id="node13" class="node">
<title>8290</title>
<path fill="#c0c0c0" stroke="black" d="M498,-36C498,-36 468,-36 468,-36 462,-36 456,-30 456,-24 456,-24 456,-12 456,-12 456,-6 462,0 468,0 468,0 498,0 498,0 504,0 510,-6 510,-12 510,-12 510,-24 510,-24 510,-30 504,-36 498,-36"/>
<text text-anchor="middle" x="483" y="-13.32" font-family="Helvetica,sans-Serif" font-size="14.00">(...)</text>
</g>
<!-- 6892&#45;&gt;8290 -->
<g id="edge12" class="edge">
<title>6892&#45;&gt;8290</title>
<path fill="none" stroke="black" d="M461.71,-71.75C465.15,-63.22 468.65,-54.57 471.78,-46.8"/>
<polygon fill="black" stroke="black" points="475.01,-48.16 475.5,-37.58 468.52,-45.54 475.01,-48.16"/>
</g>
<!-- 8800 -->
<g id="node15" class="node">
<title>8800</title>
<path fill="#c0c0c0" stroke="black" d="M588,-36C588,-36 558,-36 558,-36 552,-36 546,-30 546,-24 546,-24 546,-12 546,-12 546,-6 552,0 558,0 558,0 588,0 588,0 594,0 600,-6 600,-12 600,-12 600,-24 600,-24 600,-30 594,-36 588,-36"/>
<text text-anchor="middle" x="573" y="-13.32" font-family="Helvetica,sans-Serif" font-size="14.00">(...)</text>
</g>
<!-- 8799&#45;&gt;8800 -->
<g id="edge14" class="edge">
<title>8799&#45;&gt;8800</title>
<path fill="none" stroke="black" d="M599.61,-71.75C595.21,-63.03 590.74,-54.16 586.75,-46.26"/>
<polygon fill="black" stroke="black" points="589.97,-44.88 582.34,-37.52 583.72,-48.03 589.97,-44.88"/>
</g>
<!-- 9281 -->
<g id="node16" class="node">
<title>9281</title>
<path fill="#c0c0c0" stroke="black" d="M660,-36C660,-36 630,-36 630,-36 624,-36 618,-30 618,-24 618,-24 618,-12 618,-12 618,-6 624,0 630,0 630,0 660,0 660,0 666,0 672,-6 672,-12 672,-12 672,-24 672,-24 672,-30 666,-36 660,-36"/>
<text text-anchor="middle" x="645" y="-13.32" font-family="Helvetica,sans-Serif" font-size="14.00">(...)</text>
</g>
<!-- 8799&#45;&gt;9281 -->
<g id="edge15" class="edge">
<title>8799&#45;&gt;9281</title>
<path fill="none" stroke="black" d="M633.29,-71.75C635.14,-63.42 637.02,-54.97 638.71,-47.34"/>
<polygon fill="black" stroke="black" points="642.11,-48.17 640.86,-37.65 635.28,-46.65 642.11,-48.17"/>
</g>
<!-- 9467 -->
<g id="node18" class="node">
<title>9467</title>
<path fill="#c3e1f7" stroke="black" d="M975,-296.5C975,-296.5 815,-296.5 815,-296.5 809,-296.5 803,-290.5 803,-284.5 803,-284.5 803,-214.25 803,-214.25 803,-208.25 809,-202.25 815,-202.25 815,-202.25 975,-202.25 975,-202.25 981,-202.25 987,-208.25 987,-214.25 987,-214.25 987,-284.5 987,-284.5 987,-290.5 981,-296.5 975,-296.5"/>
<text text-anchor="middle" x="895" y="-279.2" font-family="Helvetica,sans-Serif" font-size="14.00">23_A &lt;= 0.5</text>
<text text-anchor="middle" x="895" y="-261.95" font-family="Helvetica,sans-Serif" font-size="14.00">entropy = 0.976</text>
<text text-anchor="middle" x="895" y="-244.7" font-family="Helvetica,sans-Serif" font-size="14.00">samples = 19280</text>
<text text-anchor="middle" x="895" y="-227.45" font-family="Helvetica,sans-Serif" font-size="14.00">value = [12533, 18047]</text>
<text text-anchor="middle" x="895" y="-210.2" font-family="Helvetica,sans-Serif" font-size="14.00">class = Plant</text>
</g>
<!-- 9466&#45;&gt;9467 -->
<g id="edge17" class="edge">
<title>9466&#45;&gt;9467</title>
<path fill="none" stroke="black" d="M895,-332.32C895,-324.42 895,-316.13 895,-307.98"/>
<polygon fill="black" stroke="black" points="898.5,-308.12 895,-298.12 891.5,-308.12 898.5,-308.12"/>
</g>
<!-- 16482 -->
<g id="node25" class="node">
<title>16482</title>
<path fill="#e99456" stroke="black" d="M1233.5,-296.5C1233.5,-296.5 1100.5,-296.5 1100.5,-296.5 1094.5,-296.5 1088.5,-290.5 1088.5,-284.5 1088.5,-284.5 1088.5,-214.25 1088.5,-214.25 1088.5,-208.25 1094.5,-202.25 1100.5,-202.25 1100.5,-202.25 1233.5,-202.25 1233.5,-202.25 1239.5,-202.25 1245.5,-208.25 1245.5,-214.25 1245.5,-214.25 1245.5,-284.5 1245.5,-284.5 1245.5,-290.5 1239.5,-296.5 1233.5,-296.5"/>
<text text-anchor="middle" x="1167" y="-279.2" font-family="Helvetica,sans-Serif" font-size="14.00">18_C &lt;= 0.5</text>
<text text-anchor="middle" x="1167" y="-261.95" font-family="Helvetica,sans-Serif" font-size="14.00">entropy = 0.552</text>
<text text-anchor="middle" x="1167" y="-244.7" font-family="Helvetica,sans-Serif" font-size="14.00">samples = 949</text>
<text text-anchor="middle" x="1167" y="-227.45" font-family="Helvetica,sans-Serif" font-size="14.00">value = [1321, 194]</text>
<text text-anchor="middle" x="1167" y="-210.2" font-family="Helvetica,sans-Serif" font-size="14.00">class = Animal</text>
</g>
<!-- 9466&#45;&gt;16482 -->
<g id="edge24" class="edge">
<title>9466&#45;&gt;16482</title>
<path fill="none" stroke="black" d="M987.47,-335.03C1016.81,-321.19 1049.18,-305.93 1078.25,-292.22"/>
<polygon fill="black" stroke="black" points="1079.47,-295.52 1087.02,-288.09 1076.48,-289.18 1079.47,-295.52"/>
</g>
<!-- 9468 -->
<g id="node19" class="node">
<title>9468</title>
<path fill="#baddf6" stroke="black" d="M892,-166.25C892,-166.25 732,-166.25 732,-166.25 726,-166.25 720,-160.25 720,-154.25 720,-154.25 720,-84 720,-84 720,-78 726,-72 732,-72 732,-72 892,-72 892,-72 898,-72 904,-78 904,-84 904,-84 904,-154.25 904,-154.25 904,-160.25 898,-166.25 892,-166.25"/>
<text text-anchor="middle" x="812" y="-148.95" font-family="Helvetica,sans-Serif" font-size="14.00">22_A &lt;= 0.5</text>
<text text-anchor="middle" x="812" y="-131.7" font-family="Helvetica,sans-Serif" font-size="14.00">entropy = 0.968</text>
<text text-anchor="middle" x="812" y="-114.45" font-family="Helvetica,sans-Serif" font-size="14.00">samples = 18619</text>
<text text-anchor="middle" x="812" y="-97.2" font-family="Helvetica,sans-Serif" font-size="14.00">value = [11656, 17850]</text>
<text text-anchor="middle" x="812" y="-79.95" font-family="Helvetica,sans-Serif" font-size="14.00">class = Plant</text>
</g>
<!-- 9467&#45;&gt;9468 -->
<g id="edge18" class="edge">
<title>9467&#45;&gt;9468</title>
<path fill="none" stroke="black" d="M865.04,-202.07C859.51,-193.54 853.69,-184.54 848.01,-175.77"/>
<polygon fill="black" stroke="black" points="851.11,-174.12 842.74,-167.63 845.24,-177.93 851.11,-174.12"/>
</g>
<!-- 16219 -->
<g id="node22" class="node">
<title>16219</title>
<path fill="#eb9d65" stroke="black" d="M1058,-166.25C1058,-166.25 934,-166.25 934,-166.25 928,-166.25 922,-160.25 922,-154.25 922,-154.25 922,-84 922,-84 922,-78 928,-72 934,-72 934,-72 1058,-72 1058,-72 1064,-72 1070,-78 1070,-84 1070,-84 1070,-154.25 1070,-154.25 1070,-160.25 1064,-166.25 1058,-166.25"/>
<text text-anchor="middle" x="996" y="-148.95" font-family="Helvetica,sans-Serif" font-size="14.00">22_G &lt;= 0.5</text>
<text text-anchor="middle" x="996" y="-131.7" font-family="Helvetica,sans-Serif" font-size="14.00">entropy = 0.688</text>
<text text-anchor="middle" x="996" y="-114.45" font-family="Helvetica,sans-Serif" font-size="14.00">samples = 661</text>
<text text-anchor="middle" x="996" y="-97.2" font-family="Helvetica,sans-Serif" font-size="14.00">value = [877, 197]</text>
<text text-anchor="middle" x="996" y="-79.95" font-family="Helvetica,sans-Serif" font-size="14.00">class = Animal</text>
</g>
<!-- 9467&#45;&gt;16219 -->
<g id="edge21" class="edge">
<title>9467&#45;&gt;16219</title>
<path fill="none" stroke="black" d="M931.46,-202.07C938.33,-193.36 945.57,-184.16 952.62,-175.21"/>
<polygon fill="black" stroke="black" points="955.22,-177.57 958.65,-167.55 949.72,-173.24 955.22,-177.57"/>
</g>
<!-- 9469 -->
<g id="node20" class="node">
<title>9469</title>
<path fill="#c0c0c0" stroke="black" d="M775,-36C775,-36 745,-36 745,-36 739,-36 733,-30 733,-24 733,-24 733,-12 733,-12 733,-6 739,0 745,0 745,0 775,0 775,0 781,0 787,-6 787,-12 787,-12 787,-24 787,-24 787,-30 781,-36 775,-36"/>
<text text-anchor="middle" x="760" y="-13.32" font-family="Helvetica,sans-Serif" font-size="14.00">(...)</text>
</g>
<!-- 9468&#45;&gt;9469 -->
<g id="edge19" class="edge">
<title>9468&#45;&gt;9469</title>
<path fill="none" stroke="black" d="M787.67,-71.75C783.1,-63.03 778.45,-54.16 774.3,-46.26"/>
<polygon fill="black" stroke="black" points="777.46,-44.74 769.71,-37.51 771.26,-47.99 777.46,-44.74"/>
</g>
<!-- 15400 -->
<g id="node21" class="node">
<title>15400</title>
<path fill="#c0c0c0" stroke="black" d="M847,-36C847,-36 817,-36 817,-36 811,-36 805,-30 805,-24 805,-24 805,-12 805,-12 805,-6 811,0 817,0 817,0 847,0 847,0 853,0 859,-6 859,-12 859,-12 859,-24 859,-24 859,-30 853,-36 847,-36"/>
<text text-anchor="middle" x="832" y="-13.32" font-family="Helvetica,sans-Serif" font-size="14.00">(...)</text>
</g>
<!-- 9468&#45;&gt;15400 -->
<g id="edge20" class="edge">
<title>9468&#45;&gt;15400</title>
<path fill="none" stroke="black" d="M821.36,-71.75C823.04,-63.42 824.74,-54.97 826.28,-47.34"/>
<polygon fill="black" stroke="black" points="829.69,-48.15 828.24,-37.66 822.83,-46.77 829.69,-48.15"/>
</g>
<!-- 16220 -->
<g id="node23" class="node">
<title>16220</title>
<path fill="#c0c0c0" stroke="black" d="M952,-36C952,-36 922,-36 922,-36 916,-36 910,-30 910,-24 910,-24 910,-12 910,-12 910,-6 916,0 922,0 922,0 952,0 952,0 958,0 964,-6 964,-12 964,-12 964,-24 964,-24 964,-30 958,-36 952,-36"/>
<text text-anchor="middle" x="937" y="-13.32" font-family="Helvetica,sans-Serif" font-size="14.00">(...)</text>
</g>
<!-- 16219&#45;&gt;16220 -->
<g id="edge22" class="edge">
<title>16219&#45;&gt;16220</title>
<path fill="none" stroke="black" d="M968.4,-71.75C963.15,-62.93 957.81,-53.96 953.06,-45.99"/>
<polygon fill="black" stroke="black" points="956.12,-44.28 948,-37.47 950.1,-47.86 956.12,-44.28"/>
</g>
<!-- 16407 -->
<g id="node24" class="node">
<title>16407</title>
<path fill="#c0c0c0" stroke="black" d="M1024,-36C1024,-36 994,-36 994,-36 988,-36 982,-30 982,-24 982,-24 982,-12 982,-12 982,-6 988,0 994,0 994,0 1024,0 1024,0 1030,0 1036,-6 1036,-12 1036,-12 1036,-24 1036,-24 1036,-30 1030,-36 1024,-36"/>
<text text-anchor="middle" x="1009" y="-13.32" font-family="Helvetica,sans-Serif" font-size="14.00">(...)</text>
</g>
<!-- 16219&#45;&gt;16407 -->
<g id="edge23" class="edge">
<title>16219&#45;&gt;16407</title>
<path fill="none" stroke="black" d="M1002.08,-71.75C1003.17,-63.42 1004.28,-54.97 1005.28,-47.34"/>
<polygon fill="black" stroke="black" points="1008.72,-48.04 1006.55,-37.67 1001.78,-47.13 1008.72,-48.04"/>
</g>
<!-- 16483 -->
<g id="node26" class="node">
<title>16483</title>
<path fill="#e89152" stroke="black" d="M1233.5,-166.25C1233.5,-166.25 1100.5,-166.25 1100.5,-166.25 1094.5,-166.25 1088.5,-160.25 1088.5,-154.25 1088.5,-154.25 1088.5,-84 1088.5,-84 1088.5,-78 1094.5,-72 1100.5,-72 1100.5,-72 1233.5,-72 1233.5,-72 1239.5,-72 1245.5,-78 1245.5,-84 1245.5,-84 1245.5,-154.25 1245.5,-154.25 1245.5,-160.25 1239.5,-166.25 1233.5,-166.25"/>
<text text-anchor="middle" x="1167" y="-148.95" font-family="Helvetica,sans-Serif" font-size="14.00">24_A &lt;= 0.5</text>
<text text-anchor="middle" x="1167" y="-131.7" font-family="Helvetica,sans-Serif" font-size="14.00">entropy = 0.506</text>
<text text-anchor="middle" x="1167" y="-114.45" font-family="Helvetica,sans-Serif" font-size="14.00">samples = 771</text>
<text text-anchor="middle" x="1167" y="-97.2" font-family="Helvetica,sans-Serif" font-size="14.00">value = [1085, 137]</text>
<text text-anchor="middle" x="1167" y="-79.95" font-family="Helvetica,sans-Serif" font-size="14.00">class = Animal</text>
</g>
<!-- 16482&#45;&gt;16483 -->
<g id="edge25" class="edge">
<title>16482&#45;&gt;16483</title>
<path fill="none" stroke="black" d="M1167,-202.07C1167,-194.17 1167,-185.88 1167,-177.73"/>
<polygon fill="black" stroke="black" points="1170.5,-177.87 1167,-167.87 1163.5,-177.87 1170.5,-177.87"/>
</g>
<!-- 16714 -->
<g id="node29" class="node">
<title>16714</title>
<path fill="#eb9f69" stroke="black" d="M1390.5,-166.25C1390.5,-166.25 1275.5,-166.25 1275.5,-166.25 1269.5,-166.25 1263.5,-160.25 1263.5,-154.25 1263.5,-154.25 1263.5,-84 1263.5,-84 1263.5,-78 1269.5,-72 1275.5,-72 1275.5,-72 1390.5,-72 1390.5,-72 1396.5,-72 1402.5,-78 1402.5,-84 1402.5,-84 1402.5,-154.25 1402.5,-154.25 1402.5,-160.25 1396.5,-166.25 1390.5,-166.25"/>
<text text-anchor="middle" x="1333" y="-148.95" font-family="Helvetica,sans-Serif" font-size="14.00">20_A &lt;= 0.5</text>
<text text-anchor="middle" x="1333" y="-131.7" font-family="Helvetica,sans-Serif" font-size="14.00">entropy = 0.711</text>
<text text-anchor="middle" x="1333" y="-114.45" font-family="Helvetica,sans-Serif" font-size="14.00">samples = 178</text>
<text text-anchor="middle" x="1333" y="-97.2" font-family="Helvetica,sans-Serif" font-size="14.00">value = [236, 57]</text>
<text text-anchor="middle" x="1333" y="-79.95" font-family="Helvetica,sans-Serif" font-size="14.00">class = Animal</text>
</g>
<!-- 16482&#45;&gt;16714 -->
<g id="edge28" class="edge">
<title>16482&#45;&gt;16714</title>
<path fill="none" stroke="black" d="M1226.93,-202.07C1238.96,-192.78 1251.7,-182.94 1264.01,-173.43"/>
<polygon fill="black" stroke="black" points="1265.91,-176.38 1271.68,-167.5 1261.63,-170.84 1265.91,-176.38"/>
</g>
<!-- 16484 -->
<g id="node27" class="node">
<title>16484</title>
<path fill="#c0c0c0" stroke="black" d="M1139,-36C1139,-36 1109,-36 1109,-36 1103,-36 1097,-30 1097,-24 1097,-24 1097,-12 1097,-12 1097,-6 1103,0 1109,0 1109,0 1139,0 1139,0 1145,0 1151,-6 1151,-12 1151,-12 1151,-24 1151,-24 1151,-30 1145,-36 1139,-36"/>
<text text-anchor="middle" x="1124" y="-13.32" font-family="Helvetica,sans-Serif" font-size="14.00">(...)</text>
</g>
<!-- 16483&#45;&gt;16484 -->
<g id="edge26" class="edge">
<title>16483&#45;&gt;16484</title>
<path fill="none" stroke="black" d="M1146.88,-71.75C1143.14,-63.12 1139.34,-54.36 1135.94,-46.53"/>
<polygon fill="black" stroke="black" points="1139.24,-45.34 1132.05,-37.56 1132.82,-48.13 1139.24,-45.34"/>
</g>
<!-- 16671 -->
<g id="node28" class="node">
<title>16671</title>
<path fill="#c0c0c0" stroke="black" d="M1211,-36C1211,-36 1181,-36 1181,-36 1175,-36 1169,-30 1169,-24 1169,-24 1169,-12 1169,-12 1169,-6 1175,0 1181,0 1181,0 1211,0 1211,0 1217,0 1223,-6 1223,-12 1223,-12 1223,-24 1223,-24 1223,-30 1217,-36 1211,-36"/>
<text text-anchor="middle" x="1196" y="-13.32" font-family="Helvetica,sans-Serif" font-size="14.00">(...)</text>
</g>
<!-- 16483&#45;&gt;16671 -->
<g id="edge27" class="edge">
<title>16483&#45;&gt;16671</title>
<path fill="none" stroke="black" d="M1180.57,-71.75C1183.03,-63.32 1185.54,-54.77 1187.79,-47.07"/>
<polygon fill="black" stroke="black" points="1191.1,-48.21 1190.55,-37.63 1184.38,-46.24 1191.1,-48.21"/>
</g>
<!-- 16715 -->
<g id="node30" class="node">
<title>16715</title>
<path fill="#c0c0c0" stroke="black" d="M1312,-36C1312,-36 1282,-36 1282,-36 1276,-36 1270,-30 1270,-24 1270,-24 1270,-12 1270,-12 1270,-6 1276,0 1282,0 1282,0 1312,0 1312,0 1318,0 1324,-6 1324,-12 1324,-12 1324,-24 1324,-24 1324,-30 1318,-36 1312,-36"/>
<text text-anchor="middle" x="1297" y="-13.32" font-family="Helvetica,sans-Serif" font-size="14.00">(...)</text>
</g>
<!-- 16714&#45;&gt;16715 -->
<g id="edge29" class="edge">
<title>16714&#45;&gt;16715</title>
<path fill="none" stroke="black" d="M1316.16,-71.75C1313.06,-63.22 1309.92,-54.57 1307.1,-46.8"/>
<polygon fill="black" stroke="black" points="1310.46,-45.8 1303.75,-37.6 1303.88,-48.19 1310.46,-45.8"/>
</g>
<!-- 16776 -->
<g id="node31" class="node">
<title>16776</title>
<path fill="#c0c0c0" stroke="black" d="M1384,-36C1384,-36 1354,-36 1354,-36 1348,-36 1342,-30 1342,-24 1342,-24 1342,-12 1342,-12 1342,-6 1348,0 1354,0 1354,0 1384,0 1384,0 1390,0 1396,-6 1396,-12 1396,-12 1396,-24 1396,-24 1396,-30 1390,-36 1384,-36"/>
<text text-anchor="middle" x="1369" y="-13.32" font-family="Helvetica,sans-Serif" font-size="14.00">(...)</text>
</g>
<!-- 16714&#45;&gt;16776 -->
<g id="edge30" class="edge">
<title>16714&#45;&gt;16776</title>
<path fill="none" stroke="black" d="M1349.84,-71.75C1352.94,-63.22 1356.08,-54.57 1358.9,-46.8"/>
<polygon fill="black" stroke="black" points="1362.12,-48.19 1362.25,-37.6 1355.54,-45.8 1362.12,-48.19"/>
</g>
</g>
</svg>
