<?xml version="1.0" encoding="UTF-8" standalone="no"?>
<!DOCTYPE svg PUBLIC "-//W3C//DTD SVG 1.1//EN"
 "http://www.w3.org/Graphics/SVG/1.1/DTD/svg11.dtd">
<!-- Generated by graphviz version 12.0.0 (20240803.0821)
 -->
<!-- Title: Tree Pages: 1 -->
<svg width="1410pt" height="565pt"
 viewBox="0.00 0.00 1410.00 565.00" xmlns="http://www.w3.org/2000/svg" xmlns:xlink="http://www.w3.org/1999/xlink">
<g id="graph0" class="graph" transform="scale(1 1) rotate(0) translate(4 561)">
<title>Tree</title>
<polygon fill="white" stroke="none" points="-4,4 -4,-561 1406,-561 1406,4 -4,4"/>
<!-- 0 -->
<g id="node1" class="node">
<title>0</title>
<path fill="#ffffff" stroke="black" d="M773,-557C773,-557 613,-557 613,-557 607,-557 601,-551 601,-545 601,-545 601,-474.75 601,-474.75 601,-468.75 607,-462.75 613,-462.75 613,-462.75 773,-462.75 773,-462.75 779,-462.75 785,-468.75 785,-474.75 785,-474.75 785,-545 785,-545 785,-551 779,-557 773,-557"/>
<text text-anchor="middle" x="693" y="-539.7" font-family="Helvetica,sans-Serif" font-size="14.00">9_U &lt;= 0.5</text>
<text text-anchor="middle" x="693" y="-522.45" font-family="Helvetica,sans-Serif" font-size="14.00">entropy = 1.0</text>
<text text-anchor="middle" x="693" y="-505.2" font-family="Helvetica,sans-Serif" font-size="14.00">samples = 38111</text>
<text text-anchor="middle" x="693" y="-487.95" font-family="Helvetica,sans-Serif" font-size="14.00">value = [30138, 30207]</text>
<text text-anchor="middle" x="693" y="-470.7" font-family="Helvetica,sans-Serif" font-size="14.00">class = Plant</text>
</g>
<!-- 1 -->
<g id="node2" class="node">
<title>1</title>
<path fill="#ddeefb" stroke="black" d="M614,-426.75C614,-426.75 454,-426.75 454,-426.75 448,-426.75 442,-420.75 442,-414.75 442,-414.75 442,-344.5 442,-344.5 442,-338.5 448,-332.5 454,-332.5 454,-332.5 614,-332.5 614,-332.5 620,-332.5 626,-338.5 626,-344.5 626,-344.5 626,-414.75 626,-414.75 626,-420.75 620,-426.75 614,-426.75"/>
<text text-anchor="middle" x="534" y="-409.45" font-family="Helvetica,sans-Serif" font-size="14.00">23_C &lt;= 0.5</text>
<text text-anchor="middle" x="534" y="-392.2" font-family="Helvetica,sans-Serif" font-size="14.00">entropy = 0.994</text>
<text text-anchor="middle" x="534" y="-374.95" font-family="Helvetica,sans-Serif" font-size="14.00">samples = 27496</text>
<text text-anchor="middle" x="534" y="-357.7" font-family="Helvetica,sans-Serif" font-size="14.00">value = [19780, 23871]</text>
<text text-anchor="middle" x="534" y="-340.45" font-family="Helvetica,sans-Serif" font-size="14.00">class = Plant</text>
</g>
<!-- 0&#45;&gt;1 -->
<g id="edge1" class="edge">
<title>0&#45;&gt;1</title>
<path fill="none" stroke="black" d="M635.6,-462.57C624.19,-453.37 612.11,-443.63 600.43,-434.21"/>
<polygon fill="black" stroke="black" points="602.74,-431.58 592.76,-428.02 598.35,-437.03 602.74,-431.58"/>
<text text-anchor="middle" x="594.25" y="-447.26" font-family="Helvetica,sans-Serif" font-size="14.00">True</text>
</g>
<!-- 12156 -->
<g id="node17" class="node">
<title>12156</title>
<path fill="#f5ceb2" stroke="black" d="M960.5,-426.75C960.5,-426.75 809.5,-426.75 809.5,-426.75 803.5,-426.75 797.5,-420.75 797.5,-414.75 797.5,-414.75 797.5,-344.5 797.5,-344.5 797.5,-338.5 803.5,-332.5 809.5,-332.5 809.5,-332.5 960.5,-332.5 960.5,-332.5 966.5,-332.5 972.5,-338.5 972.5,-344.5 972.5,-344.5 972.5,-414.75 972.5,-414.75 972.5,-420.75 966.5,-426.75 960.5,-426.75"/>
<text text-anchor="middle" x="885" y="-409.45" font-family="Helvetica,sans-Serif" font-size="14.00">22_U &lt;= 0.5</text>
<text text-anchor="middle" x="885" y="-392.2" font-family="Helvetica,sans-Serif" font-size="14.00">entropy = 0.958</text>
<text text-anchor="middle" x="885" y="-374.95" font-family="Helvetica,sans-Serif" font-size="14.00">samples = 10615</text>
<text text-anchor="middle" x="885" y="-357.7" font-family="Helvetica,sans-Serif" font-size="14.00">value = [10358, 6336]</text>
<text text-anchor="middle" x="885" y="-340.45" font-family="Helvetica,sans-Serif" font-size="14.00">class = Animal</text>
</g>
<!-- 0&#45;&gt;12156 -->
<g id="edge16" class="edge">
<title>0&#45;&gt;12156</title>
<path fill="none" stroke="black" d="M762.59,-462.39C776.67,-452.98 791.58,-443.03 805.97,-433.42"/>
<polygon fill="black" stroke="black" points="807.7,-436.47 814.07,-428 803.81,-430.65 807.7,-436.47"/>
<text text-anchor="middle" x="810.45" y="-447.01" font-family="Helvetica,sans-Serif" font-size="14.00">False</text>
</g>
<!-- 2 -->
<g id="node3" class="node">
<title>2</title>
<path fill="#d7ebfa" stroke="black" d="M365,-296.5C365,-296.5 205,-296.5 205,-296.5 199,-296.5 193,-290.5 193,-284.5 193,-284.5 193,-214.25 193,-214.25 193,-208.25 199,-202.25 205,-202.25 205,-202.25 365,-202.25 365,-202.25 371,-202.25 377,-208.25 377,-214.25 377,-214.25 377,-284.5 377,-284.5 377,-290.5 371,-296.5 365,-296.5"/>
<text text-anchor="middle" x="285" y="-279.2" font-family="Helvetica,sans-Serif" font-size="14.00">22_U &lt;= 0.5</text>
<text text-anchor="middle" x="285" y="-261.95" font-family="Helvetica,sans-Serif" font-size="14.00">entropy = 0.991</text>
<text text-anchor="middle" x="285" y="-244.7" font-family="Helvetica,sans-Serif" font-size="14.00">samples = 26617</text>
<text text-anchor="middle" x="285" y="-227.45" font-family="Helvetica,sans-Serif" font-size="14.00">value = [18722, 23497]</text>
<text text-anchor="middle" x="285" y="-210.2" font-family="Helvetica,sans-Serif" font-size="14.00">class = Plant</text>
</g>
<!-- 1&#45;&gt;2 -->
<g id="edge2" class="edge">
<title>1&#45;&gt;2</title>
<path fill="none" stroke="black" d="M443.75,-332.14C424.79,-322.38 404.68,-312.02 385.37,-302.07"/>
<polygon fill="black" stroke="black" points="387.2,-299.07 376.7,-297.61 383.99,-305.3 387.2,-299.07"/>
</g>
<!-- 11665 -->
<g id="node10" class="node">
<title>11665</title>
<path fill="#eeae7f" stroke="black" d="M600.5,-296.5C600.5,-296.5 467.5,-296.5 467.5,-296.5 461.5,-296.5 455.5,-290.5 455.5,-284.5 455.5,-284.5 455.5,-214.25 455.5,-214.25 455.5,-208.25 461.5,-202.25 467.5,-202.25 467.5,-202.25 600.5,-202.25 600.5,-202.25 606.5,-202.25 612.5,-208.25 612.5,-214.25 612.5,-214.25 612.5,-284.5 612.5,-284.5 612.5,-290.5 606.5,-296.5 600.5,-296.5"/>
<text text-anchor="middle" x="534" y="-279.2" font-family="Helvetica,sans-Serif" font-size="14.00">26_G &lt;= 0.5</text>
<text text-anchor="middle" x="534" y="-261.95" font-family="Helvetica,sans-Serif" font-size="14.00">entropy = 0.829</text>
<text text-anchor="middle" x="534" y="-244.7" font-family="Helvetica,sans-Serif" font-size="14.00">samples = 879</text>
<text text-anchor="middle" x="534" y="-227.45" font-family="Helvetica,sans-Serif" font-size="14.00">value = [1058, 374]</text>
<text text-anchor="middle" x="534" y="-210.2" font-family="Helvetica,sans-Serif" font-size="14.00">class = Animal</text>
</g>
<!-- 1&#45;&gt;11665 -->
<g id="edge9" class="edge">
<title>1&#45;&gt;11665</title>
<path fill="none" stroke="black" d="M534,-332.32C534,-324.42 534,-316.13 534,-307.98"/>
<polygon fill="black" stroke="black" points="537.5,-308.12 534,-298.12 530.5,-308.12 537.5,-308.12"/>
</g>
<!-- 3 -->
<g id="node4" class="node">
<title>3</title>
<path fill="#bbddf6" stroke="black" d="M172,-166.25C172,-166.25 12,-166.25 12,-166.25 6,-166.25 0,-160.25 0,-154.25 0,-154.25 0,-84 0,-84 0,-78 6,-72 12,-72 12,-72 172,-72 172,-72 178,-72 184,-78 184,-84 184,-84 184,-154.25 184,-154.25 184,-160.25 178,-166.25 172,-166.25"/>
<text text-anchor="middle" x="92" y="-148.95" font-family="Helvetica,sans-Serif" font-size="14.00">23_A &lt;= 0.5</text>
<text text-anchor="middle" x="92" y="-131.7" font-family="Helvetica,sans-Serif" font-size="14.00">entropy = 0.969</text>
<text text-anchor="middle" x="92" y="-114.45" font-family="Helvetica,sans-Serif" font-size="14.00">samples = 23455</text>
<text text-anchor="middle" x="92" y="-97.2" font-family="Helvetica,sans-Serif" font-size="14.00">value = [14740, 22441]</text>
<text text-anchor="middle" x="92" y="-79.95" font-family="Helvetica,sans-Serif" font-size="14.00">class = Plant</text>
</g>
<!-- 2&#45;&gt;3 -->
<g id="edge3" class="edge">
<title>2&#45;&gt;3</title>
<path fill="none" stroke="black" d="M215.05,-201.89C200.89,-192.48 185.9,-182.53 171.45,-172.92"/>
<polygon fill="black" stroke="black" points="173.56,-170.12 163.3,-167.5 169.69,-175.95 173.56,-170.12"/>
</g>
<!-- 10436 -->
<g id="node7" class="node">
<title>10436</title>
<path fill="#eca26e" stroke="black" d="M356,-166.25C356,-166.25 214,-166.25 214,-166.25 208,-166.25 202,-160.25 202,-154.25 202,-154.25 202,-84 202,-84 202,-78 208,-72 214,-72 214,-72 356,-72 356,-72 362,-72 368,-78 368,-84 368,-84 368,-154.25 368,-154.25 368,-160.25 362,-166.25 356,-166.25"/>
<text text-anchor="middle" x="285" y="-148.95" font-family="Helvetica,sans-Serif" font-size="14.00">9_G &lt;= 0.5</text>
<text text-anchor="middle" x="285" y="-131.7" font-family="Helvetica,sans-Serif" font-size="14.00">entropy = 0.741</text>
<text text-anchor="middle" x="285" y="-114.45" font-family="Helvetica,sans-Serif" font-size="14.00">samples = 3162</text>
<text text-anchor="middle" x="285" y="-97.2" font-family="Helvetica,sans-Serif" font-size="14.00">value = [3982, 1056]</text>
<text text-anchor="middle" x="285" y="-79.95" font-family="Helvetica,sans-Serif" font-size="14.00">class = Animal</text>
</g>
<!-- 2&#45;&gt;10436 -->
<g id="edge6" class="edge">
<title>2&#45;&gt;10436</title>
<path fill="none" stroke="black" d="M285,-202.07C285,-194.17 285,-185.88 285,-177.73"/>
<polygon fill="black" stroke="black" points="288.5,-177.87 285,-167.87 281.5,-177.87 288.5,-177.87"/>
</g>
<!-- 4 -->
<g id="node5" class="node">
<title>4</title>
<path fill="#c0c0c0" stroke="black" d="M71,-36C71,-36 41,-36 41,-36 35,-36 29,-30 29,-24 29,-24 29,-12 29,-12 29,-6 35,0 41,0 41,0 71,0 71,0 77,0 83,-6 83,-12 83,-12 83,-24 83,-24 83,-30 77,-36 71,-36"/>
<text text-anchor="middle" x="56" y="-13.32" font-family="Helvetica,sans-Serif" font-size="14.00">(...)</text>
</g>
<!-- 3&#45;&gt;4 -->
<g id="edge4" class="edge">
<title>3&#45;&gt;4</title>
<path fill="none" stroke="black" d="M75.16,-71.75C72.06,-63.22 68.92,-54.57 66.1,-46.8"/>
<polygon fill="black" stroke="black" points="69.46,-45.8 62.75,-37.6 62.88,-48.19 69.46,-45.8"/>
</g>
<!-- 10045 -->
<g id="node6" class="node">
<title>10045</title>
<path fill="#c0c0c0" stroke="black" d="M143,-36C143,-36 113,-36 113,-36 107,-36 101,-30 101,-24 101,-24 101,-12 101,-12 101,-6 107,0 113,0 113,0 143,0 143,0 149,0 155,-6 155,-12 155,-12 155,-24 155,-24 155,-30 149,-36 143,-36"/>
<text text-anchor="middle" x="128" y="-13.32" font-family="Helvetica,sans-Serif" font-size="14.00">(...)</text>
</g>
<!-- 3&#45;&gt;10045 -->
<g id="edge5" class="edge">
<title>3&#45;&gt;10045</title>
<path fill="none" stroke="black" d="M108.84,-71.75C111.94,-63.22 115.08,-54.57 117.9,-46.8"/>
<polygon fill="black" stroke="black" points="121.12,-48.19 121.25,-37.6 114.54,-45.8 121.12,-48.19"/>
</g>
<!-- 10437 -->
<g id="node8" class="node">
<title>10437</title>
<path fill="#c0c0c0" stroke="black" d="M255,-36C255,-36 225,-36 225,-36 219,-36 213,-30 213,-24 213,-24 213,-12 213,-12 213,-6 219,0 225,0 225,0 255,0 255,0 261,0 267,-6 267,-12 267,-12 267,-24 267,-24 267,-30 261,-36 255,-36"/>
<text text-anchor="middle" x="240" y="-13.32" font-family="Helvetica,sans-Serif" font-size="14.00">(...)</text>
</g>
<!-- 10436&#45;&gt;10437 -->
<g id="edge7" class="edge">
<title>10436&#45;&gt;10437</title>
<path fill="none" stroke="black" d="M263.95,-71.75C260.03,-63.12 256.05,-54.36 252.5,-46.53"/>
<polygon fill="black" stroke="black" points="255.74,-45.21 248.42,-37.55 249.37,-48.1 255.74,-45.21"/>
</g>
<!-- 11216 -->
<g id="node9" class="node">
<title>11216</title>
<path fill="#c0c0c0" stroke="black" d="M327,-36C327,-36 297,-36 297,-36 291,-36 285,-30 285,-24 285,-24 285,-12 285,-12 285,-6 291,0 297,0 297,0 327,0 327,0 333,0 339,-6 339,-12 339,-12 339,-24 339,-24 339,-30 333,-36 327,-36"/>
<text text-anchor="middle" x="312" y="-13.32" font-family="Helvetica,sans-Serif" font-size="14.00">(...)</text>
</g>
<!-- 10436&#45;&gt;11216 -->
<g id="edge8" class="edge">
<title>10436&#45;&gt;11216</title>
<path fill="none" stroke="black" d="M297.63,-71.75C299.93,-63.32 302.26,-54.77 304.35,-47.07"/>
<polygon fill="black" stroke="black" points="307.67,-48.2 306.92,-37.63 300.92,-46.36 307.67,-48.2"/>
</g>
<!-- 11666 -->
<g id="node11" class="node">
<title>11666</title>
<path fill="#eead7d" stroke="black" d="M531.5,-166.25C531.5,-166.25 398.5,-166.25 398.5,-166.25 392.5,-166.25 386.5,-160.25 386.5,-154.25 386.5,-154.25 386.5,-84 386.5,-84 386.5,-78 392.5,-72 398.5,-72 398.5,-72 531.5,-72 531.5,-72 537.5,-72 543.5,-78 543.5,-84 543.5,-84 543.5,-154.25 543.5,-154.25 543.5,-160.25 537.5,-166.25 531.5,-166.25"/>
<text text-anchor="middle" x="465" y="-148.95" font-family="Helvetica,sans-Serif" font-size="14.00">3_G &lt;= 0.5</text>
<text text-anchor="middle" x="465" y="-131.7" font-family="Helvetica,sans-Serif" font-size="14.00">entropy = 0.822</text>
<text text-anchor="middle" x="465" y="-114.45" font-family="Helvetica,sans-Serif" font-size="14.00">samples = 869</text>
<text text-anchor="middle" x="465" y="-97.2" font-family="Helvetica,sans-Serif" font-size="14.00">value = [1054, 364]</text>
<text text-anchor="middle" x="465" y="-79.95" font-family="Helvetica,sans-Serif" font-size="14.00">class = Animal</text>
</g>
<!-- 11665&#45;&gt;11666 -->
<g id="edge10" class="edge">
<title>11665&#45;&gt;11666</title>
<path fill="none" stroke="black" d="M509.09,-202.07C504.59,-193.72 499.86,-184.93 495.24,-176.33"/>
<polygon fill="black" stroke="black" points="498.41,-174.84 490.59,-167.69 492.25,-178.16 498.41,-174.84"/>
</g>
<!-- 12147 -->
<g id="node14" class="node">
<title>12147</title>
<path fill="#88c4ef" stroke="black" d="M680.38,-166.25C680.38,-166.25 573.62,-166.25 573.62,-166.25 567.62,-166.25 561.62,-160.25 561.62,-154.25 561.62,-154.25 561.62,-84 561.62,-84 561.62,-78 567.62,-72 573.62,-72 573.62,-72 680.38,-72 680.38,-72 686.38,-72 692.38,-78 692.38,-84 692.38,-84 692.38,-154.25 692.38,-154.25 692.38,-160.25 686.38,-166.25 680.38,-166.25"/>
<text text-anchor="middle" x="627" y="-148.95" font-family="Helvetica,sans-Serif" font-size="14.00">4_U &lt;= 0.5</text>
<text text-anchor="middle" x="627" y="-131.7" font-family="Helvetica,sans-Serif" font-size="14.00">entropy = 0.863</text>
<text text-anchor="middle" x="627" y="-114.45" font-family="Helvetica,sans-Serif" font-size="14.00">samples = 10</text>
<text text-anchor="middle" x="627" y="-97.2" font-family="Helvetica,sans-Serif" font-size="14.00">value = [4, 10]</text>
<text text-anchor="middle" x="627" y="-79.95" font-family="Helvetica,sans-Serif" font-size="14.00">class = Plant</text>
</g>
<!-- 11665&#45;&gt;12147 -->
<g id="edge13" class="edge">
<title>11665&#45;&gt;12147</title>
<path fill="none" stroke="black" d="M567.58,-202.07C573.83,-193.45 580.43,-184.35 586.85,-175.49"/>
<polygon fill="black" stroke="black" points="589.55,-177.73 592.59,-167.58 583.88,-173.62 589.55,-177.73"/>
</g>
<!-- 11667 -->
<g id="node12" class="node">
<title>11667</title>
<path fill="#c0c0c0" stroke="black" d="M417,-36C417,-36 387,-36 387,-36 381,-36 375,-30 375,-24 375,-24 375,-12 375,-12 375,-6 381,0 387,0 387,0 417,0 417,0 423,0 429,-6 429,-12 429,-12 429,-24 429,-24 429,-30 423,-36 417,-36"/>
<text text-anchor="middle" x="402" y="-13.32" font-family="Helvetica,sans-Serif" font-size="14.00">(...)</text>
</g>
<!-- 11666&#45;&gt;11667 -->
<g id="edge11" class="edge">
<title>11666&#45;&gt;11667</title>
<path fill="none" stroke="black" d="M435.53,-71.75C429.85,-62.83 424.09,-53.76 418.98,-45.72"/>
<polygon fill="black" stroke="black" points="422.04,-44.01 413.73,-37.45 416.14,-47.77 422.04,-44.01"/>
</g>
<!-- 11992 -->
<g id="node13" class="node">
<title>11992</title>
<path fill="#c0c0c0" stroke="black" d="M489,-36C489,-36 459,-36 459,-36 453,-36 447,-30 447,-24 447,-24 447,-12 447,-12 447,-6 453,0 459,0 459,0 489,0 489,0 495,0 501,-6 501,-12 501,-12 501,-24 501,-24 501,-30 495,-36 489,-36"/>
<text text-anchor="middle" x="474" y="-13.32" font-family="Helvetica,sans-Serif" font-size="14.00">(...)</text>
</g>
<!-- 11666&#45;&gt;11992 -->
<g id="edge12" class="edge">
<title>11666&#45;&gt;11992</title>
<path fill="none" stroke="black" d="M469.21,-71.75C469.96,-63.52 470.72,-55.17 471.4,-47.61"/>
<polygon fill="black" stroke="black" points="474.89,-47.96 472.3,-37.68 467.91,-47.32 474.89,-47.96"/>
</g>
<!-- 12148 -->
<g id="node15" class="node">
<title>12148</title>
<path fill="#c0c0c0" stroke="black" d="M581,-36C581,-36 551,-36 551,-36 545,-36 539,-30 539,-24 539,-24 539,-12 539,-12 539,-6 545,0 551,0 551,0 581,0 581,0 587,0 593,-6 593,-12 593,-12 593,-24 593,-24 593,-30 587,-36 581,-36"/>
<text text-anchor="middle" x="566" y="-13.32" font-family="Helvetica,sans-Serif" font-size="14.00">(...)</text>
</g>
<!-- 12147&#45;&gt;12148 -->
<g id="edge14" class="edge">
<title>12147&#45;&gt;12148</title>
<path fill="none" stroke="black" d="M598.46,-71.75C592.97,-62.83 587.39,-53.76 582.44,-45.72"/>
<polygon fill="black" stroke="black" points="585.58,-44.14 577.36,-37.46 579.62,-47.81 585.58,-44.14"/>
</g>
<!-- 12151 -->
<g id="node16" class="node">
<title>12151</title>
<path fill="#c0c0c0" stroke="black" d="M653,-36C653,-36 623,-36 623,-36 617,-36 611,-30 611,-24 611,-24 611,-12 611,-12 611,-6 617,0 623,0 623,0 653,0 653,0 659,0 665,-6 665,-12 665,-12 665,-24 665,-24 665,-30 659,-36 653,-36"/>
<text text-anchor="middle" x="638" y="-13.32" font-family="Helvetica,sans-Serif" font-size="14.00">(...)</text>
</g>
<!-- 12147&#45;&gt;12151 -->
<g id="edge15" class="edge">
<title>12147&#45;&gt;12151</title>
<path fill="none" stroke="black" d="M632.15,-71.75C633.06,-63.52 633.99,-55.17 634.82,-47.61"/>
<polygon fill="black" stroke="black" points="638.3,-48 635.93,-37.68 631.35,-47.23 638.3,-48"/>
</g>
<!-- 12157 -->
<g id="node18" class="node">
<title>12157</title>
<path fill="#f8dfcd" stroke="black" d="M956,-296.5C956,-296.5 814,-296.5 814,-296.5 808,-296.5 802,-290.5 802,-284.5 802,-284.5 802,-214.25 802,-214.25 802,-208.25 808,-202.25 814,-202.25 814,-202.25 956,-202.25 956,-202.25 962,-202.25 968,-208.25 968,-214.25 968,-214.25 968,-284.5 968,-284.5 968,-290.5 962,-296.5 956,-296.5"/>
<text text-anchor="middle" x="885" y="-279.2" font-family="Helvetica,sans-Serif" font-size="14.00">19_C &lt;= 0.5</text>
<text text-anchor="middle" x="885" y="-261.95" font-family="Helvetica,sans-Serif" font-size="14.00">entropy = 0.985</text>
<text text-anchor="middle" x="885" y="-244.7" font-family="Helvetica,sans-Serif" font-size="14.00">samples = 8848</text>
<text text-anchor="middle" x="885" y="-227.45" font-family="Helvetica,sans-Serif" font-size="14.00">value = [7955, 5960]</text>
<text text-anchor="middle" x="885" y="-210.2" font-family="Helvetica,sans-Serif" font-size="14.00">class = Animal</text>
</g>
<!-- 12156&#45;&gt;12157 -->
<g id="edge17" class="edge">
<title>12156&#45;&gt;12157</title>
<path fill="none" stroke="black" d="M885,-332.32C885,-324.42 885,-316.13 885,-307.98"/>
<polygon fill="black" stroke="black" points="888.5,-308.12 885,-298.12 881.5,-308.12 888.5,-308.12"/>
</g>
<!-- 16462 -->
<g id="node25" class="node">
<title>16462</title>
<path fill="#e99558" stroke="black" d="M1223.5,-296.5C1223.5,-296.5 1090.5,-296.5 1090.5,-296.5 1084.5,-296.5 1078.5,-290.5 1078.5,-284.5 1078.5,-284.5 1078.5,-214.25 1078.5,-214.25 1078.5,-208.25 1084.5,-202.25 1090.5,-202.25 1090.5,-202.25 1223.5,-202.25 1223.5,-202.25 1229.5,-202.25 1235.5,-208.25 1235.5,-214.25 1235.5,-214.25 1235.5,-284.5 1235.5,-284.5 1235.5,-290.5 1229.5,-296.5 1223.5,-296.5"/>
<text text-anchor="middle" x="1157" y="-279.2" font-family="Helvetica,sans-Serif" font-size="14.00">4_G &lt;= 0.5</text>
<text text-anchor="middle" x="1157" y="-261.95" font-family="Helvetica,sans-Serif" font-size="14.00">entropy = 0.572</text>
<text text-anchor="middle" x="1157" y="-244.7" font-family="Helvetica,sans-Serif" font-size="14.00">samples = 1767</text>
<text text-anchor="middle" x="1157" y="-227.45" font-family="Helvetica,sans-Serif" font-size="14.00">value = [2403, 376]</text>
<text text-anchor="middle" x="1157" y="-210.2" font-family="Helvetica,sans-Serif" font-size="14.00">class = Animal</text>
</g>
<!-- 12156&#45;&gt;16462 -->
<g id="edge24" class="edge">
<title>12156&#45;&gt;16462</title>
<path fill="none" stroke="black" d="M972.93,-337.16C1003.33,-322.83 1037.41,-306.76 1067.9,-292.38"/>
<polygon fill="black" stroke="black" points="1069.18,-295.65 1076.73,-288.22 1066.19,-289.32 1069.18,-295.65"/>
</g>
<!-- 12158 -->
<g id="node19" class="node">
<title>12158</title>
<path fill="#f5cfb4" stroke="black" d="M864,-166.25C864,-166.25 722,-166.25 722,-166.25 716,-166.25 710,-160.25 710,-154.25 710,-154.25 710,-84 710,-84 710,-78 716,-72 722,-72 722,-72 864,-72 864,-72 870,-72 876,-78 876,-84 876,-84 876,-154.25 876,-154.25 876,-160.25 870,-166.25 864,-166.25"/>
<text text-anchor="middle" x="793" y="-148.95" font-family="Helvetica,sans-Serif" font-size="14.00">21_U &lt;= 0.5</text>
<text text-anchor="middle" x="793" y="-131.7" font-family="Helvetica,sans-Serif" font-size="14.00">entropy = 0.96</text>
<text text-anchor="middle" x="793" y="-114.45" font-family="Helvetica,sans-Serif" font-size="14.00">samples = 6453</text>
<text text-anchor="middle" x="793" y="-97.2" font-family="Helvetica,sans-Serif" font-size="14.00">value = [6254, 3890]</text>
<text text-anchor="middle" x="793" y="-79.95" font-family="Helvetica,sans-Serif" font-size="14.00">class = Animal</text>
</g>
<!-- 12157&#45;&gt;12158 -->
<g id="edge18" class="edge">
<title>12157&#45;&gt;12158</title>
<path fill="none" stroke="black" d="M851.79,-202.07C845.6,-193.45 839.07,-184.35 832.71,-175.49"/>
<polygon fill="black" stroke="black" points="835.72,-173.67 827.05,-167.59 830.03,-177.75 835.72,-173.67"/>
</g>
<!-- 15421 -->
<g id="node22" class="node">
<title>15421</title>
<path fill="#dceefa" stroke="black" d="M1048,-166.25C1048,-166.25 906,-166.25 906,-166.25 900,-166.25 894,-160.25 894,-154.25 894,-154.25 894,-84 894,-84 894,-78 900,-72 906,-72 906,-72 1048,-72 1048,-72 1054,-72 1060,-78 1060,-84 1060,-84 1060,-154.25 1060,-154.25 1060,-160.25 1054,-166.25 1048,-166.25"/>
<text text-anchor="middle" x="977" y="-148.95" font-family="Helvetica,sans-Serif" font-size="14.00">22_G &lt;= 0.5</text>
<text text-anchor="middle" x="977" y="-131.7" font-family="Helvetica,sans-Serif" font-size="14.00">entropy = 0.993</text>
<text text-anchor="middle" x="977" y="-114.45" font-family="Helvetica,sans-Serif" font-size="14.00">samples = 2395</text>
<text text-anchor="middle" x="977" y="-97.2" font-family="Helvetica,sans-Serif" font-size="14.00">value = [1701, 2070]</text>
<text text-anchor="middle" x="977" y="-79.95" font-family="Helvetica,sans-Serif" font-size="14.00">class = Plant</text>
</g>
<!-- 12157&#45;&gt;15421 -->
<g id="edge21" class="edge">
<title>12157&#45;&gt;15421</title>
<path fill="none" stroke="black" d="M918.21,-202.07C924.4,-193.45 930.93,-184.35 937.29,-175.49"/>
<polygon fill="black" stroke="black" points="939.97,-177.75 942.95,-167.59 934.28,-173.67 939.97,-177.75"/>
</g>
<!-- 12159 -->
<g id="node20" class="node">
<title>12159</title>
<path fill="#c0c0c0" stroke="black" d="M756,-36C756,-36 726,-36 726,-36 720,-36 714,-30 714,-24 714,-24 714,-12 714,-12 714,-6 720,0 726,0 726,0 756,0 756,0 762,0 768,-6 768,-12 768,-12 768,-24 768,-24 768,-30 762,-36 756,-36"/>
<text text-anchor="middle" x="741" y="-13.32" font-family="Helvetica,sans-Serif" font-size="14.00">(...)</text>
</g>
<!-- 12158&#45;&gt;12159 -->
<g id="edge19" class="edge">
<title>12158&#45;&gt;12159</title>
<path fill="none" stroke="black" d="M768.67,-71.75C764.1,-63.03 759.45,-54.16 755.3,-46.26"/>
<polygon fill="black" stroke="black" points="758.46,-44.74 750.71,-37.51 752.26,-47.99 758.46,-44.74"/>
</g>
<!-- 14730 -->
<g id="node21" class="node">
<title>14730</title>
<path fill="#c0c0c0" stroke="black" d="M828,-36C828,-36 798,-36 798,-36 792,-36 786,-30 786,-24 786,-24 786,-12 786,-12 786,-6 792,0 798,0 798,0 828,0 828,0 834,0 840,-6 840,-12 840,-12 840,-24 840,-24 840,-30 834,-36 828,-36"/>
<text text-anchor="middle" x="813" y="-13.32" font-family="Helvetica,sans-Serif" font-size="14.00">(...)</text>
</g>
<!-- 12158&#45;&gt;14730 -->
<g id="edge20" class="edge">
<title>12158&#45;&gt;14730</title>
<path fill="none" stroke="black" d="M802.36,-71.75C804.04,-63.42 805.74,-54.97 807.28,-47.34"/>
<polygon fill="black" stroke="black" points="810.69,-48.15 809.24,-37.66 803.83,-46.77 810.69,-48.15"/>
</g>
<!-- 15422 -->
<g id="node23" class="node">
<title>15422</title>
<path fill="#c0c0c0" stroke="black" d="M938,-36C938,-36 908,-36 908,-36 902,-36 896,-30 896,-24 896,-24 896,-12 896,-12 896,-6 902,0 908,0 908,0 938,0 938,0 944,0 950,-6 950,-12 950,-12 950,-24 950,-24 950,-30 944,-36 938,-36"/>
<text text-anchor="middle" x="923" y="-13.32" font-family="Helvetica,sans-Serif" font-size="14.00">(...)</text>
</g>
<!-- 15421&#45;&gt;15422 -->
<g id="edge22" class="edge">
<title>15421&#45;&gt;15422</title>
<path fill="none" stroke="black" d="M951.74,-71.75C946.98,-63.03 942.16,-54.16 937.85,-46.26"/>
<polygon fill="black" stroke="black" points="940.94,-44.61 933.08,-37.5 934.79,-47.96 940.94,-44.61"/>
</g>
<!-- 16305 -->
<g id="node24" class="node">
<title>16305</title>
<path fill="#c0c0c0" stroke="black" d="M1010,-36C1010,-36 980,-36 980,-36 974,-36 968,-30 968,-24 968,-24 968,-12 968,-12 968,-6 974,0 980,0 980,0 1010,0 1010,0 1016,0 1022,-6 1022,-12 1022,-12 1022,-24 1022,-24 1022,-30 1016,-36 1010,-36"/>
<text text-anchor="middle" x="995" y="-13.32" font-family="Helvetica,sans-Serif" font-size="14.00">(...)</text>
</g>
<!-- 15421&#45;&gt;16305 -->
<g id="edge23" class="edge">
<title>15421&#45;&gt;16305</title>
<path fill="none" stroke="black" d="M985.42,-71.75C986.93,-63.42 988.47,-54.97 989.85,-47.34"/>
<polygon fill="black" stroke="black" points="993.27,-48.13 991.61,-37.66 986.38,-46.88 993.27,-48.13"/>
</g>
<!-- 16463 -->
<g id="node26" class="node">
<title>16463</title>
<path fill="#ea985d" stroke="black" d="M1223.5,-166.25C1223.5,-166.25 1090.5,-166.25 1090.5,-166.25 1084.5,-166.25 1078.5,-160.25 1078.5,-154.25 1078.5,-154.25 1078.5,-84 1078.5,-84 1078.5,-78 1084.5,-72 1090.5,-72 1090.5,-72 1223.5,-72 1223.5,-72 1229.5,-72 1235.5,-78 1235.5,-84 1235.5,-84 1235.5,-154.25 1235.5,-154.25 1235.5,-160.25 1229.5,-166.25 1223.5,-166.25"/>
<text text-anchor="middle" x="1157" y="-148.95" font-family="Helvetica,sans-Serif" font-size="14.00">13_A &lt;= 0.5</text>
<text text-anchor="middle" x="1157" y="-131.7" font-family="Helvetica,sans-Serif" font-size="14.00">entropy = 0.623</text>
<text text-anchor="middle" x="1157" y="-114.45" font-family="Helvetica,sans-Serif" font-size="14.00">samples = 1094</text>
<text text-anchor="middle" x="1157" y="-97.2" font-family="Helvetica,sans-Serif" font-size="14.00">value = [1451, 267]</text>
<text text-anchor="middle" x="1157" y="-79.95" font-family="Helvetica,sans-Serif" font-size="14.00">class = Animal</text>
</g>
<!-- 16462&#45;&gt;16463 -->
<g id="edge25" class="edge">
<title>16462&#45;&gt;16463</title>
<path fill="none" stroke="black" d="M1157,-202.07C1157,-194.17 1157,-185.88 1157,-177.73"/>
<polygon fill="black" stroke="black" points="1160.5,-177.87 1157,-167.87 1153.5,-177.87 1160.5,-177.87"/>
</g>
<!-- 16842 -->
<g id="node29" class="node">
<title>16842</title>
<path fill="#e88f50" stroke="black" d="M1390,-166.25C1390,-166.25 1266,-166.25 1266,-166.25 1260,-166.25 1254,-160.25 1254,-154.25 1254,-154.25 1254,-84 1254,-84 1254,-78 1260,-72 1266,-72 1266,-72 1390,-72 1390,-72 1396,-72 1402,-78 1402,-84 1402,-84 1402,-154.25 1402,-154.25 1402,-160.25 1396,-166.25 1390,-166.25"/>
<text text-anchor="middle" x="1328" y="-148.95" font-family="Helvetica,sans-Serif" font-size="14.00">14_C &lt;= 0.5</text>
<text text-anchor="middle" x="1328" y="-131.7" font-family="Helvetica,sans-Serif" font-size="14.00">entropy = 0.478</text>
<text text-anchor="middle" x="1328" y="-114.45" font-family="Helvetica,sans-Serif" font-size="14.00">samples = 673</text>
<text text-anchor="middle" x="1328" y="-97.2" font-family="Helvetica,sans-Serif" font-size="14.00">value = [952, 109]</text>
<text text-anchor="middle" x="1328" y="-79.95" font-family="Helvetica,sans-Serif" font-size="14.00">class = Animal</text>
</g>
<!-- 16462&#45;&gt;16842 -->
<g id="edge28" class="edge">
<title>16462&#45;&gt;16842</title>
<path fill="none" stroke="black" d="M1218.73,-202.07C1231.13,-192.78 1244.25,-182.94 1256.93,-173.43"/>
<polygon fill="black" stroke="black" points="1258.96,-176.28 1264.86,-167.48 1254.76,-170.68 1258.96,-176.28"/>
</g>
<!-- 16464 -->
<g id="node27" class="node">
<title>16464</title>
<path fill="#c0c0c0" stroke="black" d="M1131,-36C1131,-36 1101,-36 1101,-36 1095,-36 1089,-30 1089,-24 1089,-24 1089,-12 1089,-12 1089,-6 1095,0 1101,0 1101,0 1131,0 1131,0 1137,0 1143,-6 1143,-12 1143,-12 1143,-24 1143,-24 1143,-30 1137,-36 1131,-36"/>
<text text-anchor="middle" x="1116" y="-13.32" font-family="Helvetica,sans-Serif" font-size="14.00">(...)</text>
</g>
<!-- 16463&#45;&gt;16464 -->
<g id="edge26" class="edge">
<title>16463&#45;&gt;16464</title>
<path fill="none" stroke="black" d="M1137.82,-71.75C1134.29,-63.22 1130.71,-54.57 1127.5,-46.8"/>
<polygon fill="black" stroke="black" points="1130.74,-45.47 1123.68,-37.57 1124.27,-48.15 1130.74,-45.47"/>
</g>
<!-- 16735 -->
<g id="node28" class="node">
<title>16735</title>
<path fill="#c0c0c0" stroke="black" d="M1203,-36C1203,-36 1173,-36 1173,-36 1167,-36 1161,-30 1161,-24 1161,-24 1161,-12 1161,-12 1161,-6 1167,0 1173,0 1173,0 1203,0 1203,0 1209,0 1215,-6 1215,-12 1215,-12 1215,-24 1215,-24 1215,-30 1209,-36 1203,-36"/>
<text text-anchor="middle" x="1188" y="-13.32" font-family="Helvetica,sans-Serif" font-size="14.00">(...)</text>
</g>
<!-- 16463&#45;&gt;16735 -->
<g id="edge27" class="edge">
<title>16463&#45;&gt;16735</title>
<path fill="none" stroke="black" d="M1171.5,-71.75C1174.14,-63.32 1176.81,-54.77 1179.22,-47.07"/>
<polygon fill="black" stroke="black" points="1182.53,-48.21 1182.18,-37.62 1175.85,-46.12 1182.53,-48.21"/>
</g>
<!-- 16843 -->
<g id="node30" class="node">
<title>16843</title>
<path fill="#c0c0c0" stroke="black" d="M1307,-36C1307,-36 1277,-36 1277,-36 1271,-36 1265,-30 1265,-24 1265,-24 1265,-12 1265,-12 1265,-6 1271,0 1277,0 1277,0 1307,0 1307,0 1313,0 1319,-6 1319,-12 1319,-12 1319,-24 1319,-24 1319,-30 1313,-36 1307,-36"/>
<text text-anchor="middle" x="1292" y="-13.32" font-family="Helvetica,sans-Serif" font-size="14.00">(...)</text>
</g>
<!-- 16842&#45;&gt;16843 -->
<g id="edge29" class="edge">
<title>16842&#45;&gt;16843</title>
<path fill="none" stroke="black" d="M1311.16,-71.75C1308.06,-63.22 1304.92,-54.57 1302.1,-46.8"/>
<polygon fill="black" stroke="black" points="1305.46,-45.8 1298.75,-37.6 1298.88,-48.19 1305.46,-45.8"/>
</g>
<!-- 16968 -->
<g id="node31" class="node">
<title>16968</title>
<path fill="#c0c0c0" stroke="black" d="M1379,-36C1379,-36 1349,-36 1349,-36 1343,-36 1337,-30 1337,-24 1337,-24 1337,-12 1337,-12 1337,-6 1343,0 1349,0 1349,0 1379,0 1379,0 1385,0 1391,-6 1391,-12 1391,-12 1391,-24 1391,-24 1391,-30 1385,-36 1379,-36"/>
<text text-anchor="middle" x="1364" y="-13.32" font-family="Helvetica,sans-Serif" font-size="14.00">(...)</text>
</g>
<!-- 16842&#45;&gt;16968 -->
<g id="edge30" class="edge">
<title>16842&#45;&gt;16968</title>
<path fill="none" stroke="black" d="M1344.84,-71.75C1347.94,-63.22 1351.08,-54.57 1353.9,-46.8"/>
<polygon fill="black" stroke="black" points="1357.12,-48.19 1357.25,-37.6 1350.54,-45.8 1357.12,-48.19"/>
</g>
</g>
</svg>
