<?xml version="1.0" encoding="UTF-8" standalone="no"?>
<!DOCTYPE svg PUBLIC "-//W3C//DTD SVG 1.1//EN"
 "http://www.w3.org/Graphics/SVG/1.1/DTD/svg11.dtd">
<!-- Generated by graphviz version 12.0.0 (20240803.0821)
 -->
<!-- Title: Tree Pages: 1 -->
<svg width="1418pt" height="565pt"
 viewBox="0.00 0.00 1418.00 565.00" xmlns="http://www.w3.org/2000/svg" xmlns:xlink="http://www.w3.org/1999/xlink">
<g id="graph0" class="graph" transform="scale(1 1) rotate(0) translate(4 561)">
<title>Tree</title>
<polygon fill="white" stroke="none" points="-4,4 -4,-561 1414,-561 1414,4 -4,4"/>
<!-- 0 -->
<g id="node1" class="node">
<title>0</title>
<path fill="#fffdfc" stroke="black" d="M807.5,-557C807.5,-557 647.5,-557 647.5,-557 641.5,-557 635.5,-551 635.5,-545 635.5,-545 635.5,-474.75 635.5,-474.75 635.5,-468.75 641.5,-462.75 647.5,-462.75 647.5,-462.75 807.5,-462.75 807.5,-462.75 813.5,-462.75 819.5,-468.75 819.5,-474.75 819.5,-474.75 819.5,-545 819.5,-545 819.5,-551 813.5,-557 807.5,-557"/>
<text text-anchor="middle" x="727.5" y="-539.7" font-family="Helvetica,sans-Serif" font-size="14.00">22_U &lt;= 0.5</text>
<text text-anchor="middle" x="727.5" y="-522.45" font-family="Helvetica,sans-Serif" font-size="14.00">entropy = 1.0</text>
<text text-anchor="middle" x="727.5" y="-505.2" font-family="Helvetica,sans-Serif" font-size="14.00">samples = 38220</text>
<text text-anchor="middle" x="727.5" y="-487.95" font-family="Helvetica,sans-Serif" font-size="14.00">value = [30427, 29918]</text>
<text text-anchor="middle" x="727.5" y="-470.7" font-family="Helvetica,sans-Serif" font-size="14.00">class = Animal</text>
</g>
<!-- 1 -->
<g id="node2" class="node">
<title>1</title>
<path fill="#dfeffb" stroke="black" d="M634.5,-426.75C634.5,-426.75 474.5,-426.75 474.5,-426.75 468.5,-426.75 462.5,-420.75 462.5,-414.75 462.5,-414.75 462.5,-344.5 462.5,-344.5 462.5,-338.5 468.5,-332.5 474.5,-332.5 474.5,-332.5 634.5,-332.5 634.5,-332.5 640.5,-332.5 646.5,-338.5 646.5,-344.5 646.5,-344.5 646.5,-414.75 646.5,-414.75 646.5,-420.75 640.5,-426.75 634.5,-426.75"/>
<text text-anchor="middle" x="554.5" y="-409.45" font-family="Helvetica,sans-Serif" font-size="14.00">1_U &lt;= 0.5</text>
<text text-anchor="middle" x="554.5" y="-392.2" font-family="Helvetica,sans-Serif" font-size="14.00">entropy = 0.994</text>
<text text-anchor="middle" x="554.5" y="-374.95" font-family="Helvetica,sans-Serif" font-size="14.00">samples = 33097</text>
<text text-anchor="middle" x="554.5" y="-357.7" font-family="Helvetica,sans-Serif" font-size="14.00">value = [23794, 28441]</text>
<text text-anchor="middle" x="554.5" y="-340.45" font-family="Helvetica,sans-Serif" font-size="14.00">class = Plant</text>
</g>
<!-- 0&#45;&gt;1 -->
<g id="edge1" class="edge">
<title>0&#45;&gt;1</title>
<path fill="none" stroke="black" d="M665.04,-462.57C652.5,-453.28 639.23,-443.44 626.4,-433.93"/>
<polygon fill="black" stroke="black" points="628.49,-431.12 618.37,-427.97 624.32,-436.74 628.49,-431.12"/>
<text text-anchor="middle" x="620.83" y="-447.13" font-family="Helvetica,sans-Serif" font-size="14.00">True</text>
</g>
<!-- 14858 -->
<g id="node17" class="node">
<title>14858</title>
<path fill="#eb9d65" stroke="black" d="M980.5,-426.75C980.5,-426.75 838.5,-426.75 838.5,-426.75 832.5,-426.75 826.5,-420.75 826.5,-414.75 826.5,-414.75 826.5,-344.5 826.5,-344.5 826.5,-338.5 832.5,-332.5 838.5,-332.5 838.5,-332.5 980.5,-332.5 980.5,-332.5 986.5,-332.5 992.5,-338.5 992.5,-344.5 992.5,-344.5 992.5,-414.75 992.5,-414.75 992.5,-420.75 986.5,-426.75 980.5,-426.75"/>
<text text-anchor="middle" x="909.5" y="-409.45" font-family="Helvetica,sans-Serif" font-size="14.00">9_U &lt;= 0.5</text>
<text text-anchor="middle" x="909.5" y="-392.2" font-family="Helvetica,sans-Serif" font-size="14.00">entropy = 0.685</text>
<text text-anchor="middle" x="909.5" y="-374.95" font-family="Helvetica,sans-Serif" font-size="14.00">samples = 5123</text>
<text text-anchor="middle" x="909.5" y="-357.7" font-family="Helvetica,sans-Serif" font-size="14.00">value = [6633, 1477]</text>
<text text-anchor="middle" x="909.5" y="-340.45" font-family="Helvetica,sans-Serif" font-size="14.00">class = Animal</text>
</g>
<!-- 0&#45;&gt;14858 -->
<g id="edge16" class="edge">
<title>0&#45;&gt;14858</title>
<path fill="none" stroke="black" d="M793.46,-462.39C806.69,-453.07 820.68,-443.22 834.19,-433.69"/>
<polygon fill="black" stroke="black" points="836.06,-436.66 842.22,-428.04 832.03,-430.94 836.06,-436.66"/>
<text text-anchor="middle" x="839.19" y="-447.12" font-family="Helvetica,sans-Serif" font-size="14.00">False</text>
</g>
<!-- 2 -->
<g id="node3" class="node">
<title>2</title>
<path fill="#fbe9dd" stroke="black" d="M356.5,-296.5C356.5,-296.5 196.5,-296.5 196.5,-296.5 190.5,-296.5 184.5,-290.5 184.5,-284.5 184.5,-284.5 184.5,-214.25 184.5,-214.25 184.5,-208.25 190.5,-202.25 196.5,-202.25 196.5,-202.25 356.5,-202.25 356.5,-202.25 362.5,-202.25 368.5,-208.25 368.5,-214.25 368.5,-214.25 368.5,-284.5 368.5,-284.5 368.5,-290.5 362.5,-296.5 356.5,-296.5"/>
<text text-anchor="middle" x="276.5" y="-279.2" font-family="Helvetica,sans-Serif" font-size="14.00">10_C &lt;= 0.5</text>
<text text-anchor="middle" x="276.5" y="-261.95" font-family="Helvetica,sans-Serif" font-size="14.00">entropy = 0.994</text>
<text text-anchor="middle" x="276.5" y="-244.7" font-family="Helvetica,sans-Serif" font-size="14.00">samples = 15403</text>
<text text-anchor="middle" x="276.5" y="-227.45" font-family="Helvetica,sans-Serif" font-size="14.00">value = [13347, 11059]</text>
<text text-anchor="middle" x="276.5" y="-210.2" font-family="Helvetica,sans-Serif" font-size="14.00">class = Animal</text>
</g>
<!-- 1&#45;&gt;2 -->
<g id="edge2" class="edge">
<title>1&#45;&gt;2</title>
<path fill="none" stroke="black" d="M462.32,-336.1C435.69,-323.81 406.46,-310.33 379.24,-297.77"/>
<polygon fill="black" stroke="black" points="380.83,-294.65 370.28,-293.64 377.9,-301.01 380.83,-294.65"/>
</g>
<!-- 8565 -->
<g id="node10" class="node">
<title>8565</title>
<path fill="#b0d8f5" stroke="black" d="M634.5,-296.5C634.5,-296.5 474.5,-296.5 474.5,-296.5 468.5,-296.5 462.5,-290.5 462.5,-284.5 462.5,-284.5 462.5,-214.25 462.5,-214.25 462.5,-208.25 468.5,-202.25 474.5,-202.25 474.5,-202.25 634.5,-202.25 634.5,-202.25 640.5,-202.25 646.5,-208.25 646.5,-214.25 646.5,-214.25 646.5,-284.5 646.5,-284.5 646.5,-290.5 640.5,-296.5 634.5,-296.5"/>
<text text-anchor="middle" x="554.5" y="-279.2" font-family="Helvetica,sans-Serif" font-size="14.00">22_G &lt;= 0.5</text>
<text text-anchor="middle" x="554.5" y="-261.95" font-family="Helvetica,sans-Serif" font-size="14.00">entropy = 0.955</text>
<text text-anchor="middle" x="554.5" y="-244.7" font-family="Helvetica,sans-Serif" font-size="14.00">samples = 17694</text>
<text text-anchor="middle" x="554.5" y="-227.45" font-family="Helvetica,sans-Serif" font-size="14.00">value = [10447, 17382]</text>
<text text-anchor="middle" x="554.5" y="-210.2" font-family="Helvetica,sans-Serif" font-size="14.00">class = Plant</text>
</g>
<!-- 1&#45;&gt;8565 -->
<g id="edge9" class="edge">
<title>1&#45;&gt;8565</title>
<path fill="none" stroke="black" d="M554.5,-332.32C554.5,-324.42 554.5,-316.13 554.5,-307.98"/>
<polygon fill="black" stroke="black" points="558,-308.12 554.5,-298.12 551,-308.12 558,-308.12"/>
</g>
<!-- 3 -->
<g id="node4" class="node">
<title>3</title>
<path fill="#fdf5ef" stroke="black" d="M163,-166.25C163,-166.25 12,-166.25 12,-166.25 6,-166.25 0,-160.25 0,-154.25 0,-154.25 0,-84 0,-84 0,-78 6,-72 12,-72 12,-72 163,-72 163,-72 169,-72 175,-78 175,-84 175,-84 175,-154.25 175,-154.25 175,-160.25 169,-166.25 163,-166.25"/>
<text text-anchor="middle" x="87.5" y="-148.95" font-family="Helvetica,sans-Serif" font-size="14.00">10_G &lt;= 0.5</text>
<text text-anchor="middle" x="87.5" y="-131.7" font-family="Helvetica,sans-Serif" font-size="14.00">entropy = 0.999</text>
<text text-anchor="middle" x="87.5" y="-114.45" font-family="Helvetica,sans-Serif" font-size="14.00">samples = 12146</text>
<text text-anchor="middle" x="87.5" y="-97.2" font-family="Helvetica,sans-Serif" font-size="14.00">value = [10014, 9218]</text>
<text text-anchor="middle" x="87.5" y="-79.95" font-family="Helvetica,sans-Serif" font-size="14.00">class = Animal</text>
</g>
<!-- 2&#45;&gt;3 -->
<g id="edge3" class="edge">
<title>2&#45;&gt;3</title>
<path fill="none" stroke="black" d="M208,-201.89C194.13,-192.48 179.46,-182.53 165.3,-172.92"/>
<polygon fill="black" stroke="black" points="167.58,-170.23 157.34,-167.51 163.65,-176.03 167.58,-170.23"/>
</g>
<!-- 6642 -->
<g id="node7" class="node">
<title>6642</title>
<path fill="#f3c7a6" stroke="black" d="M347.5,-166.25C347.5,-166.25 205.5,-166.25 205.5,-166.25 199.5,-166.25 193.5,-160.25 193.5,-154.25 193.5,-154.25 193.5,-84 193.5,-84 193.5,-78 199.5,-72 205.5,-72 205.5,-72 347.5,-72 347.5,-72 353.5,-72 359.5,-78 359.5,-84 359.5,-84 359.5,-154.25 359.5,-154.25 359.5,-160.25 353.5,-166.25 347.5,-166.25"/>
<text text-anchor="middle" x="276.5" y="-148.95" font-family="Helvetica,sans-Serif" font-size="14.00">9_U &lt;= 0.5</text>
<text text-anchor="middle" x="276.5" y="-131.7" font-family="Helvetica,sans-Serif" font-size="14.00">entropy = 0.939</text>
<text text-anchor="middle" x="276.5" y="-114.45" font-family="Helvetica,sans-Serif" font-size="14.00">samples = 3257</text>
<text text-anchor="middle" x="276.5" y="-97.2" font-family="Helvetica,sans-Serif" font-size="14.00">value = [3333, 1841]</text>
<text text-anchor="middle" x="276.5" y="-79.95" font-family="Helvetica,sans-Serif" font-size="14.00">class = Animal</text>
</g>
<!-- 2&#45;&gt;6642 -->
<g id="edge6" class="edge">
<title>2&#45;&gt;6642</title>
<path fill="none" stroke="black" d="M276.5,-202.07C276.5,-194.17 276.5,-185.88 276.5,-177.73"/>
<polygon fill="black" stroke="black" points="280,-177.87 276.5,-167.87 273,-177.87 280,-177.87"/>
</g>
<!-- 4 -->
<g id="node5" class="node">
<title>4</title>
<path fill="#c0c0c0" stroke="black" d="M66.5,-36C66.5,-36 36.5,-36 36.5,-36 30.5,-36 24.5,-30 24.5,-24 24.5,-24 24.5,-12 24.5,-12 24.5,-6 30.5,0 36.5,0 36.5,0 66.5,0 66.5,0 72.5,0 78.5,-6 78.5,-12 78.5,-12 78.5,-24 78.5,-24 78.5,-30 72.5,-36 66.5,-36"/>
<text text-anchor="middle" x="51.5" y="-13.32" font-family="Helvetica,sans-Serif" font-size="14.00">(...)</text>
</g>
<!-- 3&#45;&gt;4 -->
<g id="edge4" class="edge">
<title>3&#45;&gt;4</title>
<path fill="none" stroke="black" d="M70.66,-71.75C67.56,-63.22 64.42,-54.57 61.6,-46.8"/>
<polygon fill="black" stroke="black" points="64.96,-45.8 58.25,-37.6 58.38,-48.19 64.96,-45.8"/>
</g>
<!-- 4279 -->
<g id="node6" class="node">
<title>4279</title>
<path fill="#c0c0c0" stroke="black" d="M138.5,-36C138.5,-36 108.5,-36 108.5,-36 102.5,-36 96.5,-30 96.5,-24 96.5,-24 96.5,-12 96.5,-12 96.5,-6 102.5,0 108.5,0 108.5,0 138.5,0 138.5,0 144.5,0 150.5,-6 150.5,-12 150.5,-12 150.5,-24 150.5,-24 150.5,-30 144.5,-36 138.5,-36"/>
<text text-anchor="middle" x="123.5" y="-13.32" font-family="Helvetica,sans-Serif" font-size="14.00">(...)</text>
</g>
<!-- 3&#45;&gt;4279 -->
<g id="edge5" class="edge">
<title>3&#45;&gt;4279</title>
<path fill="none" stroke="black" d="M104.34,-71.75C107.44,-63.22 110.58,-54.57 113.4,-46.8"/>
<polygon fill="black" stroke="black" points="116.62,-48.19 116.75,-37.6 110.04,-45.8 116.62,-48.19"/>
</g>
<!-- 6643 -->
<g id="node8" class="node">
<title>6643</title>
<path fill="#c0c0c0" stroke="black" d="M262.5,-36C262.5,-36 232.5,-36 232.5,-36 226.5,-36 220.5,-30 220.5,-24 220.5,-24 220.5,-12 220.5,-12 220.5,-6 226.5,0 232.5,0 232.5,0 262.5,0 262.5,0 268.5,0 274.5,-6 274.5,-12 274.5,-12 274.5,-24 274.5,-24 274.5,-30 268.5,-36 262.5,-36"/>
<text text-anchor="middle" x="247.5" y="-13.32" font-family="Helvetica,sans-Serif" font-size="14.00">(...)</text>
</g>
<!-- 6642&#45;&gt;6643 -->
<g id="edge7" class="edge">
<title>6642&#45;&gt;6643</title>
<path fill="none" stroke="black" d="M262.93,-71.75C260.47,-63.32 257.96,-54.77 255.71,-47.07"/>
<polygon fill="black" stroke="black" points="259.12,-46.24 252.95,-37.63 252.4,-48.21 259.12,-46.24"/>
</g>
<!-- 7908 -->
<g id="node9" class="node">
<title>7908</title>
<path fill="#c0c0c0" stroke="black" d="M334.5,-36C334.5,-36 304.5,-36 304.5,-36 298.5,-36 292.5,-30 292.5,-24 292.5,-24 292.5,-12 292.5,-12 292.5,-6 298.5,0 304.5,0 304.5,0 334.5,0 334.5,0 340.5,0 346.5,-6 346.5,-12 346.5,-12 346.5,-24 346.5,-24 346.5,-30 340.5,-36 334.5,-36"/>
<text text-anchor="middle" x="319.5" y="-13.32" font-family="Helvetica,sans-Serif" font-size="14.00">(...)</text>
</g>
<!-- 6642&#45;&gt;7908 -->
<g id="edge8" class="edge">
<title>6642&#45;&gt;7908</title>
<path fill="none" stroke="black" d="M296.62,-71.75C300.36,-63.12 304.16,-54.36 307.56,-46.53"/>
<polygon fill="black" stroke="black" points="310.68,-48.13 311.45,-37.56 304.26,-45.34 310.68,-48.13"/>
</g>
<!-- 8566 -->
<g id="node11" class="node">
<title>8566</title>
<path fill="#8fc8f0" stroke="black" d="M541,-166.25C541,-166.25 390,-166.25 390,-166.25 384,-166.25 378,-160.25 378,-154.25 378,-154.25 378,-84 378,-84 378,-78 384,-72 390,-72 390,-72 541,-72 541,-72 547,-72 553,-78 553,-84 553,-84 553,-154.25 553,-154.25 553,-160.25 547,-166.25 541,-166.25"/>
<text text-anchor="middle" x="465.5" y="-148.95" font-family="Helvetica,sans-Serif" font-size="14.00">19_C &lt;= 0.5</text>
<text text-anchor="middle" x="465.5" y="-131.7" font-family="Helvetica,sans-Serif" font-size="14.00">entropy = 0.886</text>
<text text-anchor="middle" x="465.5" y="-114.45" font-family="Helvetica,sans-Serif" font-size="14.00">samples = 15225</text>
<text text-anchor="middle" x="465.5" y="-97.2" font-family="Helvetica,sans-Serif" font-size="14.00">value = [7264, 16632]</text>
<text text-anchor="middle" x="465.5" y="-79.95" font-family="Helvetica,sans-Serif" font-size="14.00">class = Plant</text>
</g>
<!-- 8565&#45;&gt;8566 -->
<g id="edge10" class="edge">
<title>8565&#45;&gt;8566</title>
<path fill="none" stroke="black" d="M522.37,-202.07C516.45,-193.54 510.2,-184.54 504.11,-175.77"/>
<polygon fill="black" stroke="black" points="507.02,-173.82 498.45,-167.6 501.27,-177.81 507.02,-173.82"/>
</g>
<!-- 14023 -->
<g id="node14" class="node">
<title>14023</title>
<path fill="#eb9f68" stroke="black" d="M716,-166.25C716,-166.25 583,-166.25 583,-166.25 577,-166.25 571,-160.25 571,-154.25 571,-154.25 571,-84 571,-84 571,-78 577,-72 583,-72 583,-72 716,-72 716,-72 722,-72 728,-78 728,-84 728,-84 728,-154.25 728,-154.25 728,-160.25 722,-166.25 716,-166.25"/>
<text text-anchor="middle" x="649.5" y="-148.95" font-family="Helvetica,sans-Serif" font-size="14.00">17_U &lt;= 0.5</text>
<text text-anchor="middle" x="649.5" y="-131.7" font-family="Helvetica,sans-Serif" font-size="14.00">entropy = 0.703</text>
<text text-anchor="middle" x="649.5" y="-114.45" font-family="Helvetica,sans-Serif" font-size="14.00">samples = 2469</text>
<text text-anchor="middle" x="649.5" y="-97.2" font-family="Helvetica,sans-Serif" font-size="14.00">value = [3183, 750]</text>
<text text-anchor="middle" x="649.5" y="-79.95" font-family="Helvetica,sans-Serif" font-size="14.00">class = Animal</text>
</g>
<!-- 8565&#45;&gt;14023 -->
<g id="edge13" class="edge">
<title>8565&#45;&gt;14023</title>
<path fill="none" stroke="black" d="M588.8,-202.07C595.19,-193.45 601.92,-184.35 608.49,-175.49"/>
<polygon fill="black" stroke="black" points="611.21,-177.69 614.35,-167.57 605.59,-173.53 611.21,-177.69"/>
</g>
<!-- 8567 -->
<g id="node12" class="node">
<title>8567</title>
<path fill="#c0c0c0" stroke="black" d="M428.5,-36C428.5,-36 398.5,-36 398.5,-36 392.5,-36 386.5,-30 386.5,-24 386.5,-24 386.5,-12 386.5,-12 386.5,-6 392.5,0 398.5,0 398.5,0 428.5,0 428.5,0 434.5,0 440.5,-6 440.5,-12 440.5,-12 440.5,-24 440.5,-24 440.5,-30 434.5,-36 428.5,-36"/>
<text text-anchor="middle" x="413.5" y="-13.32" font-family="Helvetica,sans-Serif" font-size="14.00">(...)</text>
</g>
<!-- 8566&#45;&gt;8567 -->
<g id="edge11" class="edge">
<title>8566&#45;&gt;8567</title>
<path fill="none" stroke="black" d="M441.17,-71.75C436.6,-63.03 431.95,-54.16 427.8,-46.26"/>
<polygon fill="black" stroke="black" points="430.96,-44.74 423.21,-37.51 424.76,-47.99 430.96,-44.74"/>
</g>
<!-- 12678 -->
<g id="node13" class="node">
<title>12678</title>
<path fill="#c0c0c0" stroke="black" d="M500.5,-36C500.5,-36 470.5,-36 470.5,-36 464.5,-36 458.5,-30 458.5,-24 458.5,-24 458.5,-12 458.5,-12 458.5,-6 464.5,0 470.5,0 470.5,0 500.5,0 500.5,0 506.5,0 512.5,-6 512.5,-12 512.5,-12 512.5,-24 512.5,-24 512.5,-30 506.5,-36 500.5,-36"/>
<text text-anchor="middle" x="485.5" y="-13.32" font-family="Helvetica,sans-Serif" font-size="14.00">(...)</text>
</g>
<!-- 8566&#45;&gt;12678 -->
<g id="edge12" class="edge">
<title>8566&#45;&gt;12678</title>
<path fill="none" stroke="black" d="M474.86,-71.75C476.54,-63.42 478.24,-54.97 479.78,-47.34"/>
<polygon fill="black" stroke="black" points="483.19,-48.15 481.74,-37.66 476.33,-46.77 483.19,-48.15"/>
</g>
<!-- 14024 -->
<g id="node15" class="node">
<title>14024</title>
<path fill="#c0c0c0" stroke="black" d="M607.5,-36C607.5,-36 577.5,-36 577.5,-36 571.5,-36 565.5,-30 565.5,-24 565.5,-24 565.5,-12 565.5,-12 565.5,-6 571.5,0 577.5,0 577.5,0 607.5,0 607.5,0 613.5,0 619.5,-6 619.5,-12 619.5,-12 619.5,-24 619.5,-24 619.5,-30 613.5,-36 607.5,-36"/>
<text text-anchor="middle" x="592.5" y="-13.32" font-family="Helvetica,sans-Serif" font-size="14.00">(...)</text>
</g>
<!-- 14023&#45;&gt;14024 -->
<g id="edge14" class="edge">
<title>14023&#45;&gt;14024</title>
<path fill="none" stroke="black" d="M622.84,-71.75C617.76,-62.93 612.6,-53.96 608.02,-45.99"/>
<polygon fill="black" stroke="black" points="611.15,-44.41 603.13,-37.48 605.08,-47.9 611.15,-44.41"/>
</g>
<!-- 14651 -->
<g id="node16" class="node">
<title>14651</title>
<path fill="#c0c0c0" stroke="black" d="M679.5,-36C679.5,-36 649.5,-36 649.5,-36 643.5,-36 637.5,-30 637.5,-24 637.5,-24 637.5,-12 637.5,-12 637.5,-6 643.5,0 649.5,0 649.5,0 679.5,0 679.5,0 685.5,0 691.5,-6 691.5,-12 691.5,-12 691.5,-24 691.5,-24 691.5,-30 685.5,-36 679.5,-36"/>
<text text-anchor="middle" x="664.5" y="-13.32" font-family="Helvetica,sans-Serif" font-size="14.00">(...)</text>
</g>
<!-- 14023&#45;&gt;14651 -->
<g id="edge15" class="edge">
<title>14023&#45;&gt;14651</title>
<path fill="none" stroke="black" d="M656.52,-71.75C657.78,-63.42 659.06,-54.97 660.21,-47.34"/>
<polygon fill="black" stroke="black" points="663.64,-48.08 661.67,-37.67 656.72,-47.03 663.64,-48.08"/>
</g>
<!-- 14859 -->
<g id="node18" class="node">
<title>14859</title>
<path fill="#eca36f" stroke="black" d="M980.5,-296.5C980.5,-296.5 838.5,-296.5 838.5,-296.5 832.5,-296.5 826.5,-290.5 826.5,-284.5 826.5,-284.5 826.5,-214.25 826.5,-214.25 826.5,-208.25 832.5,-202.25 838.5,-202.25 838.5,-202.25 980.5,-202.25 980.5,-202.25 986.5,-202.25 992.5,-208.25 992.5,-214.25 992.5,-214.25 992.5,-284.5 992.5,-284.5 992.5,-290.5 986.5,-296.5 980.5,-296.5"/>
<text text-anchor="middle" x="909.5" y="-279.2" font-family="Helvetica,sans-Serif" font-size="14.00">20_U &lt;= 0.5</text>
<text text-anchor="middle" x="909.5" y="-261.95" font-family="Helvetica,sans-Serif" font-size="14.00">entropy = 0.749</text>
<text text-anchor="middle" x="909.5" y="-244.7" font-family="Helvetica,sans-Serif" font-size="14.00">samples = 3366</text>
<text text-anchor="middle" x="909.5" y="-227.45" font-family="Helvetica,sans-Serif" font-size="14.00">value = [4130, 1125]</text>
<text text-anchor="middle" x="909.5" y="-210.2" font-family="Helvetica,sans-Serif" font-size="14.00">class = Animal</text>
</g>
<!-- 14858&#45;&gt;14859 -->
<g id="edge17" class="edge">
<title>14858&#45;&gt;14859</title>
<path fill="none" stroke="black" d="M909.5,-332.32C909.5,-324.42 909.5,-316.13 909.5,-307.98"/>
<polygon fill="black" stroke="black" points="913,-308.12 909.5,-298.12 906,-308.12 913,-308.12"/>
</g>
<!-- 16248 -->
<g id="node25" class="node">
<title>16248</title>
<path fill="#e99355" stroke="black" d="M1241,-296.5C1241,-296.5 1108,-296.5 1108,-296.5 1102,-296.5 1096,-290.5 1096,-284.5 1096,-284.5 1096,-214.25 1096,-214.25 1096,-208.25 1102,-202.25 1108,-202.25 1108,-202.25 1241,-202.25 1241,-202.25 1247,-202.25 1253,-208.25 1253,-214.25 1253,-214.25 1253,-284.5 1253,-284.5 1253,-290.5 1247,-296.5 1241,-296.5"/>
<text text-anchor="middle" x="1174.5" y="-279.2" font-family="Helvetica,sans-Serif" font-size="14.00">2_A &lt;= 0.5</text>
<text text-anchor="middle" x="1174.5" y="-261.95" font-family="Helvetica,sans-Serif" font-size="14.00">entropy = 0.539</text>
<text text-anchor="middle" x="1174.5" y="-244.7" font-family="Helvetica,sans-Serif" font-size="14.00">samples = 1757</text>
<text text-anchor="middle" x="1174.5" y="-227.45" font-family="Helvetica,sans-Serif" font-size="14.00">value = [2503, 352]</text>
<text text-anchor="middle" x="1174.5" y="-210.2" font-family="Helvetica,sans-Serif" font-size="14.00">class = Animal</text>
</g>
<!-- 14858&#45;&gt;16248 -->
<g id="edge24" class="edge">
<title>14858&#45;&gt;16248</title>
<path fill="none" stroke="black" d="M992.98,-338.22C1022.43,-323.97 1055.63,-307.91 1085.51,-293.44"/>
<polygon fill="black" stroke="black" points="1086.66,-296.77 1094.14,-289.27 1083.61,-290.47 1086.66,-296.77"/>
</g>
<!-- 14860 -->
<g id="node19" class="node">
<title>14860</title>
<path fill="#eeab7c" stroke="black" d="M891,-166.25C891,-166.25 758,-166.25 758,-166.25 752,-166.25 746,-160.25 746,-154.25 746,-154.25 746,-84 746,-84 746,-78 752,-72 758,-72 758,-72 891,-72 891,-72 897,-72 903,-78 903,-84 903,-84 903,-154.25 903,-154.25 903,-160.25 897,-166.25 891,-166.25"/>
<text text-anchor="middle" x="824.5" y="-148.95" font-family="Helvetica,sans-Serif" font-size="14.00">21_G &lt;= 0.5</text>
<text text-anchor="middle" x="824.5" y="-131.7" font-family="Helvetica,sans-Serif" font-size="14.00">entropy = 0.814</text>
<text text-anchor="middle" x="824.5" y="-114.45" font-family="Helvetica,sans-Serif" font-size="14.00">samples = 2305</text>
<text text-anchor="middle" x="824.5" y="-97.2" font-family="Helvetica,sans-Serif" font-size="14.00">value = [2707, 912]</text>
<text text-anchor="middle" x="824.5" y="-79.95" font-family="Helvetica,sans-Serif" font-size="14.00">class = Animal</text>
</g>
<!-- 14859&#45;&gt;14860 -->
<g id="edge18" class="edge">
<title>14859&#45;&gt;14860</title>
<path fill="none" stroke="black" d="M878.81,-202.07C873.16,-193.54 867.2,-184.54 861.38,-175.77"/>
<polygon fill="black" stroke="black" points="864.42,-174.02 855.98,-167.62 858.59,-177.89 864.42,-174.02"/>
</g>
<!-- 15909 -->
<g id="node22" class="node">
<title>15909</title>
<path fill="#e99457" stroke="black" d="M1066,-166.25C1066,-166.25 933,-166.25 933,-166.25 927,-166.25 921,-160.25 921,-154.25 921,-154.25 921,-84 921,-84 921,-78 927,-72 933,-72 933,-72 1066,-72 1066,-72 1072,-72 1078,-78 1078,-84 1078,-84 1078,-154.25 1078,-154.25 1078,-160.25 1072,-166.25 1066,-166.25"/>
<text text-anchor="middle" x="999.5" y="-148.95" font-family="Helvetica,sans-Serif" font-size="14.00">8_G &lt;= 0.5</text>
<text text-anchor="middle" x="999.5" y="-131.7" font-family="Helvetica,sans-Serif" font-size="14.00">entropy = 0.558</text>
<text text-anchor="middle" x="999.5" y="-114.45" font-family="Helvetica,sans-Serif" font-size="14.00">samples = 1061</text>
<text text-anchor="middle" x="999.5" y="-97.2" font-family="Helvetica,sans-Serif" font-size="14.00">value = [1423, 213]</text>
<text text-anchor="middle" x="999.5" y="-79.95" font-family="Helvetica,sans-Serif" font-size="14.00">class = Animal</text>
</g>
<!-- 14859&#45;&gt;15909 -->
<g id="edge21" class="edge">
<title>14859&#45;&gt;15909</title>
<path fill="none" stroke="black" d="M941.99,-202.07C947.98,-193.54 954.29,-184.54 960.45,-175.77"/>
<polygon fill="black" stroke="black" points="963.31,-177.79 966.19,-167.6 957.58,-173.77 963.31,-177.79"/>
</g>
<!-- 14861 -->
<g id="node20" class="node">
<title>14861</title>
<path fill="#c0c0c0" stroke="black" d="M782.5,-36C782.5,-36 752.5,-36 752.5,-36 746.5,-36 740.5,-30 740.5,-24 740.5,-24 740.5,-12 740.5,-12 740.5,-6 746.5,0 752.5,0 752.5,0 782.5,0 782.5,0 788.5,0 794.5,-6 794.5,-12 794.5,-12 794.5,-24 794.5,-24 794.5,-30 788.5,-36 782.5,-36"/>
<text text-anchor="middle" x="767.5" y="-13.32" font-family="Helvetica,sans-Serif" font-size="14.00">(...)</text>
</g>
<!-- 14860&#45;&gt;14861 -->
<g id="edge19" class="edge">
<title>14860&#45;&gt;14861</title>
<path fill="none" stroke="black" d="M797.84,-71.75C792.76,-62.93 787.6,-53.96 783.02,-45.99"/>
<polygon fill="black" stroke="black" points="786.15,-44.41 778.13,-37.48 780.08,-47.9 786.15,-44.41"/>
</g>
<!-- 15662 -->
<g id="node21" class="node">
<title>15662</title>
<path fill="#c0c0c0" stroke="black" d="M854.5,-36C854.5,-36 824.5,-36 824.5,-36 818.5,-36 812.5,-30 812.5,-24 812.5,-24 812.5,-12 812.5,-12 812.5,-6 818.5,0 824.5,0 824.5,0 854.5,0 854.5,0 860.5,0 866.5,-6 866.5,-12 866.5,-12 866.5,-24 866.5,-24 866.5,-30 860.5,-36 854.5,-36"/>
<text text-anchor="middle" x="839.5" y="-13.32" font-family="Helvetica,sans-Serif" font-size="14.00">(...)</text>
</g>
<!-- 14860&#45;&gt;15662 -->
<g id="edge20" class="edge">
<title>14860&#45;&gt;15662</title>
<path fill="none" stroke="black" d="M831.52,-71.75C832.78,-63.42 834.06,-54.97 835.21,-47.34"/>
<polygon fill="black" stroke="black" points="838.64,-48.08 836.67,-37.67 831.72,-47.03 838.64,-48.08"/>
</g>
<!-- 15910 -->
<g id="node23" class="node">
<title>15910</title>
<path fill="#c0c0c0" stroke="black" d="M957.5,-36C957.5,-36 927.5,-36 927.5,-36 921.5,-36 915.5,-30 915.5,-24 915.5,-24 915.5,-12 915.5,-12 915.5,-6 921.5,0 927.5,0 927.5,0 957.5,0 957.5,0 963.5,0 969.5,-6 969.5,-12 969.5,-12 969.5,-24 969.5,-24 969.5,-30 963.5,-36 957.5,-36"/>
<text text-anchor="middle" x="942.5" y="-13.32" font-family="Helvetica,sans-Serif" font-size="14.00">(...)</text>
</g>
<!-- 15909&#45;&gt;15910 -->
<g id="edge22" class="edge">
<title>15909&#45;&gt;15910</title>
<path fill="none" stroke="black" d="M972.84,-71.75C967.76,-62.93 962.6,-53.96 958.02,-45.99"/>
<polygon fill="black" stroke="black" points="961.15,-44.41 953.13,-37.48 955.08,-47.9 961.15,-44.41"/>
</g>
<!-- 16165 -->
<g id="node24" class="node">
<title>16165</title>
<path fill="#c0c0c0" stroke="black" d="M1029.5,-36C1029.5,-36 999.5,-36 999.5,-36 993.5,-36 987.5,-30 987.5,-24 987.5,-24 987.5,-12 987.5,-12 987.5,-6 993.5,0 999.5,0 999.5,0 1029.5,0 1029.5,0 1035.5,0 1041.5,-6 1041.5,-12 1041.5,-12 1041.5,-24 1041.5,-24 1041.5,-30 1035.5,-36 1029.5,-36"/>
<text text-anchor="middle" x="1014.5" y="-13.32" font-family="Helvetica,sans-Serif" font-size="14.00">(...)</text>
</g>
<!-- 15909&#45;&gt;16165 -->
<g id="edge23" class="edge">
<title>15909&#45;&gt;16165</title>
<path fill="none" stroke="black" d="M1006.52,-71.75C1007.78,-63.42 1009.06,-54.97 1010.21,-47.34"/>
<polygon fill="black" stroke="black" points="1013.64,-48.08 1011.67,-37.67 1006.72,-47.03 1013.64,-48.08"/>
</g>
<!-- 16249 -->
<g id="node26" class="node">
<title>16249</title>
<path fill="#ea975c" stroke="black" d="M1241,-166.25C1241,-166.25 1108,-166.25 1108,-166.25 1102,-166.25 1096,-160.25 1096,-154.25 1096,-154.25 1096,-84 1096,-84 1096,-78 1102,-72 1108,-72 1108,-72 1241,-72 1241,-72 1247,-72 1253,-78 1253,-84 1253,-84 1253,-154.25 1253,-154.25 1253,-160.25 1247,-166.25 1241,-166.25"/>
<text text-anchor="middle" x="1174.5" y="-148.95" font-family="Helvetica,sans-Serif" font-size="14.00">17_U &lt;= 0.5</text>
<text text-anchor="middle" x="1174.5" y="-131.7" font-family="Helvetica,sans-Serif" font-size="14.00">entropy = 0.606</text>
<text text-anchor="middle" x="1174.5" y="-114.45" font-family="Helvetica,sans-Serif" font-size="14.00">samples = 1239</text>
<text text-anchor="middle" x="1174.5" y="-97.2" font-family="Helvetica,sans-Serif" font-size="14.00">value = [1702, 297]</text>
<text text-anchor="middle" x="1174.5" y="-79.95" font-family="Helvetica,sans-Serif" font-size="14.00">class = Animal</text>
</g>
<!-- 16248&#45;&gt;16249 -->
<g id="edge25" class="edge">
<title>16248&#45;&gt;16249</title>
<path fill="none" stroke="black" d="M1174.5,-202.07C1174.5,-194.17 1174.5,-185.88 1174.5,-177.73"/>
<polygon fill="black" stroke="black" points="1178,-177.87 1174.5,-167.87 1171,-177.87 1178,-177.87"/>
</g>
<!-- 16686 -->
<g id="node29" class="node">
<title>16686</title>
<path fill="#e78a47" stroke="black" d="M1398,-166.25C1398,-166.25 1283,-166.25 1283,-166.25 1277,-166.25 1271,-160.25 1271,-154.25 1271,-154.25 1271,-84 1271,-84 1271,-78 1277,-72 1283,-72 1283,-72 1398,-72 1398,-72 1404,-72 1410,-78 1410,-84 1410,-84 1410,-154.25 1410,-154.25 1410,-160.25 1404,-166.25 1398,-166.25"/>
<text text-anchor="middle" x="1340.5" y="-148.95" font-family="Helvetica,sans-Serif" font-size="14.00">13_C &lt;= 0.5</text>
<text text-anchor="middle" x="1340.5" y="-131.7" font-family="Helvetica,sans-Serif" font-size="14.00">entropy = 0.344</text>
<text text-anchor="middle" x="1340.5" y="-114.45" font-family="Helvetica,sans-Serif" font-size="14.00">samples = 518</text>
<text text-anchor="middle" x="1340.5" y="-97.2" font-family="Helvetica,sans-Serif" font-size="14.00">value = [801, 55]</text>
<text text-anchor="middle" x="1340.5" y="-79.95" font-family="Helvetica,sans-Serif" font-size="14.00">class = Animal</text>
</g>
<!-- 16248&#45;&gt;16686 -->
<g id="edge28" class="edge">
<title>16248&#45;&gt;16686</title>
<path fill="none" stroke="black" d="M1234.43,-202.07C1246.46,-192.78 1259.2,-182.94 1271.51,-173.43"/>
<polygon fill="black" stroke="black" points="1273.41,-176.38 1279.18,-167.5 1269.13,-170.84 1273.41,-176.38"/>
</g>
<!-- 16250 -->
<g id="node27" class="node">
<title>16250</title>
<path fill="#c0c0c0" stroke="black" d="M1146.5,-36C1146.5,-36 1116.5,-36 1116.5,-36 1110.5,-36 1104.5,-30 1104.5,-24 1104.5,-24 1104.5,-12 1104.5,-12 1104.5,-6 1110.5,0 1116.5,0 1116.5,0 1146.5,0 1146.5,0 1152.5,0 1158.5,-6 1158.5,-12 1158.5,-12 1158.5,-24 1158.5,-24 1158.5,-30 1152.5,-36 1146.5,-36"/>
<text text-anchor="middle" x="1131.5" y="-13.32" font-family="Helvetica,sans-Serif" font-size="14.00">(...)</text>
</g>
<!-- 16249&#45;&gt;16250 -->
<g id="edge26" class="edge">
<title>16249&#45;&gt;16250</title>
<path fill="none" stroke="black" d="M1154.38,-71.75C1150.64,-63.12 1146.84,-54.36 1143.44,-46.53"/>
<polygon fill="black" stroke="black" points="1146.74,-45.34 1139.55,-37.56 1140.32,-48.13 1146.74,-45.34"/>
</g>
<!-- 16557 -->
<g id="node28" class="node">
<title>16557</title>
<path fill="#c0c0c0" stroke="black" d="M1218.5,-36C1218.5,-36 1188.5,-36 1188.5,-36 1182.5,-36 1176.5,-30 1176.5,-24 1176.5,-24 1176.5,-12 1176.5,-12 1176.5,-6 1182.5,0 1188.5,0 1188.5,0 1218.5,0 1218.5,0 1224.5,0 1230.5,-6 1230.5,-12 1230.5,-12 1230.5,-24 1230.5,-24 1230.5,-30 1224.5,-36 1218.5,-36"/>
<text text-anchor="middle" x="1203.5" y="-13.32" font-family="Helvetica,sans-Serif" font-size="14.00">(...)</text>
</g>
<!-- 16249&#45;&gt;16557 -->
<g id="edge27" class="edge">
<title>16249&#45;&gt;16557</title>
<path fill="none" stroke="black" d="M1188.07,-71.75C1190.53,-63.32 1193.04,-54.77 1195.29,-47.07"/>
<polygon fill="black" stroke="black" points="1198.6,-48.21 1198.05,-37.63 1191.88,-46.24 1198.6,-48.21"/>
</g>
<!-- 16687 -->
<g id="node30" class="node">
<title>16687</title>
<path fill="#c0c0c0" stroke="black" d="M1319.5,-36C1319.5,-36 1289.5,-36 1289.5,-36 1283.5,-36 1277.5,-30 1277.5,-24 1277.5,-24 1277.5,-12 1277.5,-12 1277.5,-6 1283.5,0 1289.5,0 1289.5,0 1319.5,0 1319.5,0 1325.5,0 1331.5,-6 1331.5,-12 1331.5,-12 1331.5,-24 1331.5,-24 1331.5,-30 1325.5,-36 1319.5,-36"/>
<text text-anchor="middle" x="1304.5" y="-13.32" font-family="Helvetica,sans-Serif" font-size="14.00">(...)</text>
</g>
<!-- 16686&#45;&gt;16687 -->
<g id="edge29" class="edge">
<title>16686&#45;&gt;16687</title>
<path fill="none" stroke="black" d="M1323.66,-71.75C1320.56,-63.22 1317.42,-54.57 1314.6,-46.8"/>
<polygon fill="black" stroke="black" points="1317.96,-45.8 1311.25,-37.6 1311.38,-48.19 1317.96,-45.8"/>
</g>
<!-- 16768 -->
<g id="node31" class="node">
<title>16768</title>
<path fill="#c0c0c0" stroke="black" d="M1391.5,-36C1391.5,-36 1361.5,-36 1361.5,-36 1355.5,-36 1349.5,-30 1349.5,-24 1349.5,-24 1349.5,-12 1349.5,-12 1349.5,-6 1355.5,0 1361.5,0 1361.5,0 1391.5,0 1391.5,0 1397.5,0 1403.5,-6 1403.5,-12 1403.5,-12 1403.5,-24 1403.5,-24 1403.5,-30 1397.5,-36 1391.5,-36"/>
<text text-anchor="middle" x="1376.5" y="-13.32" font-family="Helvetica,sans-Serif" font-size="14.00">(...)</text>
</g>
<!-- 16686&#45;&gt;16768 -->
<g id="edge30" class="edge">
<title>16686&#45;&gt;16768</title>
<path fill="none" stroke="black" d="M1357.34,-71.75C1360.44,-63.22 1363.58,-54.57 1366.4,-46.8"/>
<polygon fill="black" stroke="black" points="1369.62,-48.19 1369.75,-37.6 1363.04,-45.8 1369.62,-48.19"/>
</g>
</g>
</svg>
