<?xml version="1.0" encoding="UTF-8" standalone="no"?>
<!DOCTYPE svg PUBLIC "-//W3C//DTD SVG 1.1//EN"
 "http://www.w3.org/Graphics/SVG/1.1/DTD/svg11.dtd">
<!-- Generated by graphviz version 12.0.0 (20240803.0821)
 -->
<!-- Title: Tree Pages: 1 -->
<svg width="1409pt" height="565pt"
 viewBox="0.00 0.00 1409.00 565.00" xmlns="http://www.w3.org/2000/svg" xmlns:xlink="http://www.w3.org/1999/xlink">
<g id="graph0" class="graph" transform="scale(1 1) rotate(0) translate(4 561)">
<title>Tree</title>
<polygon fill="white" stroke="none" points="-4,4 -4,-561 1405,-561 1405,4 -4,4"/>
<!-- 0 -->
<g id="node1" class="node">
<title>0</title>
<path fill="#fffefe" stroke="black" d="M785,-557C785,-557 625,-557 625,-557 619,-557 613,-551 613,-545 613,-545 613,-474.75 613,-474.75 613,-468.75 619,-462.75 625,-462.75 625,-462.75 785,-462.75 785,-462.75 791,-462.75 797,-468.75 797,-474.75 797,-474.75 797,-545 797,-545 797,-551 791,-557 785,-557"/>
<text text-anchor="middle" x="705" y="-539.7" font-family="Helvetica,sans-Serif" font-size="14.00">1_U &lt;= 0.5</text>
<text text-anchor="middle" x="705" y="-522.45" font-family="Helvetica,sans-Serif" font-size="14.00">entropy = 1.0</text>
<text text-anchor="middle" x="705" y="-505.2" font-family="Helvetica,sans-Serif" font-size="14.00">samples = 38158</text>
<text text-anchor="middle" x="705" y="-487.95" font-family="Helvetica,sans-Serif" font-size="14.00">value = [30238, 30107]</text>
<text text-anchor="middle" x="705" y="-470.7" font-family="Helvetica,sans-Serif" font-size="14.00">class = Animal</text>
</g>
<!-- 1 -->
<g id="node2" class="node">
<title>1</title>
<path fill="#f7dac4" stroke="black" d="M610,-426.75C610,-426.75 450,-426.75 450,-426.75 444,-426.75 438,-420.75 438,-414.75 438,-414.75 438,-344.5 438,-344.5 438,-338.5 444,-332.5 450,-332.5 450,-332.5 610,-332.5 610,-332.5 616,-332.5 622,-338.5 622,-344.5 622,-344.5 622,-414.75 622,-414.75 622,-420.75 616,-426.75 610,-426.75"/>
<text text-anchor="middle" x="530" y="-409.45" font-family="Helvetica,sans-Serif" font-size="14.00">19_C &lt;= 0.5</text>
<text text-anchor="middle" x="530" y="-392.2" font-family="Helvetica,sans-Serif" font-size="14.00">entropy = 0.978</text>
<text text-anchor="middle" x="530" y="-374.95" font-family="Helvetica,sans-Serif" font-size="14.00">samples = 17930</text>
<text text-anchor="middle" x="530" y="-357.7" font-family="Helvetica,sans-Serif" font-size="14.00">value = [16670, 11723]</text>
<text text-anchor="middle" x="530" y="-340.45" font-family="Helvetica,sans-Serif" font-size="14.00">class = Animal</text>
</g>
<!-- 0&#45;&gt;1 -->
<g id="edge1" class="edge">
<title>0&#45;&gt;1</title>
<path fill="none" stroke="black" d="M641.82,-462.57C629.01,-453.19 615.45,-443.25 602.36,-433.65"/>
<polygon fill="black" stroke="black" points="604.74,-431.06 594.6,-427.97 600.6,-436.7 604.74,-431.06"/>
<text text-anchor="middle" x="597.19" y="-447.11" font-family="Helvetica,sans-Serif" font-size="14.00">True</text>
</g>
<!-- 9368 -->
<g id="node17" class="node">
<title>9368</title>
<path fill="#cbe5f8" stroke="black" d="M964,-426.75C964,-426.75 804,-426.75 804,-426.75 798,-426.75 792,-420.75 792,-414.75 792,-414.75 792,-344.5 792,-344.5 792,-338.5 798,-332.5 804,-332.5 804,-332.5 964,-332.5 964,-332.5 970,-332.5 976,-338.5 976,-344.5 976,-344.5 976,-414.75 976,-414.75 976,-420.75 970,-426.75 964,-426.75"/>
<text text-anchor="middle" x="884" y="-409.45" font-family="Helvetica,sans-Serif" font-size="14.00">20_G &lt;= 0.5</text>
<text text-anchor="middle" x="884" y="-392.2" font-family="Helvetica,sans-Serif" font-size="14.00">entropy = 0.984</text>
<text text-anchor="middle" x="884" y="-374.95" font-family="Helvetica,sans-Serif" font-size="14.00">samples = 20228</text>
<text text-anchor="middle" x="884" y="-357.7" font-family="Helvetica,sans-Serif" font-size="14.00">value = [13568, 18384]</text>
<text text-anchor="middle" x="884" y="-340.45" font-family="Helvetica,sans-Serif" font-size="14.00">class = Plant</text>
</g>
<!-- 0&#45;&gt;9368 -->
<g id="edge16" class="edge">
<title>0&#45;&gt;9368</title>
<path fill="none" stroke="black" d="M769.88,-462.39C782.88,-453.07 796.64,-443.22 809.93,-433.69"/>
<polygon fill="black" stroke="black" points="811.72,-436.72 817.81,-428.05 807.65,-431.02 811.72,-436.72"/>
<text text-anchor="middle" x="814.97" y="-447.16" font-family="Helvetica,sans-Serif" font-size="14.00">False</text>
</g>
<!-- 2 -->
<g id="node3" class="node">
<title>2</title>
<path fill="#f4ccaf" stroke="black" d="M342.5,-296.5C342.5,-296.5 191.5,-296.5 191.5,-296.5 185.5,-296.5 179.5,-290.5 179.5,-284.5 179.5,-284.5 179.5,-214.25 179.5,-214.25 179.5,-208.25 185.5,-202.25 191.5,-202.25 191.5,-202.25 342.5,-202.25 342.5,-202.25 348.5,-202.25 354.5,-208.25 354.5,-214.25 354.5,-214.25 354.5,-284.5 354.5,-284.5 354.5,-290.5 348.5,-296.5 342.5,-296.5"/>
<text text-anchor="middle" x="267" y="-279.2" font-family="Helvetica,sans-Serif" font-size="14.00">13_G &lt;= 0.5</text>
<text text-anchor="middle" x="267" y="-261.95" font-family="Helvetica,sans-Serif" font-size="14.00">entropy = 0.953</text>
<text text-anchor="middle" x="267" y="-244.7" font-family="Helvetica,sans-Serif" font-size="14.00">samples = 12813</text>
<text text-anchor="middle" x="267" y="-227.45" font-family="Helvetica,sans-Serif" font-size="14.00">value = [12742, 7576]</text>
<text text-anchor="middle" x="267" y="-210.2" font-family="Helvetica,sans-Serif" font-size="14.00">class = Animal</text>
</g>
<!-- 1&#45;&gt;2 -->
<g id="edge2" class="edge">
<title>1&#45;&gt;2</title>
<path fill="none" stroke="black" d="M437.65,-333.59C414.08,-322.1 388.66,-309.7 364.82,-298.08"/>
<polygon fill="black" stroke="black" points="366.6,-295.05 356.08,-293.81 363.53,-301.34 366.6,-295.05"/>
</g>
<!-- 7021 -->
<g id="node10" class="node">
<title>7021</title>
<path fill="#f5fafe" stroke="black" d="M601,-296.5C601,-296.5 459,-296.5 459,-296.5 453,-296.5 447,-290.5 447,-284.5 447,-284.5 447,-214.25 447,-214.25 447,-208.25 453,-202.25 459,-202.25 459,-202.25 601,-202.25 601,-202.25 607,-202.25 613,-208.25 613,-214.25 613,-214.25 613,-284.5 613,-284.5 613,-290.5 607,-296.5 601,-296.5"/>
<text text-anchor="middle" x="530" y="-279.2" font-family="Helvetica,sans-Serif" font-size="14.00">22_G &lt;= 0.5</text>
<text text-anchor="middle" x="530" y="-261.95" font-family="Helvetica,sans-Serif" font-size="14.00">entropy = 0.999</text>
<text text-anchor="middle" x="530" y="-244.7" font-family="Helvetica,sans-Serif" font-size="14.00">samples = 5117</text>
<text text-anchor="middle" x="530" y="-227.45" font-family="Helvetica,sans-Serif" font-size="14.00">value = [3928, 4147]</text>
<text text-anchor="middle" x="530" y="-210.2" font-family="Helvetica,sans-Serif" font-size="14.00">class = Plant</text>
</g>
<!-- 1&#45;&gt;7021 -->
<g id="edge9" class="edge">
<title>1&#45;&gt;7021</title>
<path fill="none" stroke="black" d="M530,-332.32C530,-324.42 530,-316.13 530,-307.98"/>
<polygon fill="black" stroke="black" points="533.5,-308.12 530,-298.12 526.5,-308.12 533.5,-308.12"/>
</g>
<!-- 3 -->
<g id="node4" class="node">
<title>3</title>
<path fill="#f4c8a8" stroke="black" d="M154,-166.25C154,-166.25 12,-166.25 12,-166.25 6,-166.25 0,-160.25 0,-154.25 0,-154.25 0,-84 0,-84 0,-78 6,-72 12,-72 12,-72 154,-72 154,-72 160,-72 166,-78 166,-84 166,-84 166,-154.25 166,-154.25 166,-160.25 160,-166.25 154,-166.25"/>
<text text-anchor="middle" x="83" y="-148.95" font-family="Helvetica,sans-Serif" font-size="14.00">22_U &lt;= 0.5</text>
<text text-anchor="middle" x="83" y="-131.7" font-family="Helvetica,sans-Serif" font-size="14.00">entropy = 0.943</text>
<text text-anchor="middle" x="83" y="-114.45" font-family="Helvetica,sans-Serif" font-size="14.00">samples = 9105</text>
<text text-anchor="middle" x="83" y="-97.2" font-family="Helvetica,sans-Serif" font-size="14.00">value = [9211, 5182]</text>
<text text-anchor="middle" x="83" y="-79.95" font-family="Helvetica,sans-Serif" font-size="14.00">class = Animal</text>
</g>
<!-- 2&#45;&gt;3 -->
<g id="edge3" class="edge">
<title>2&#45;&gt;3</title>
<path fill="none" stroke="black" d="M200.31,-201.89C186.94,-192.57 172.8,-182.72 159.14,-173.19"/>
<polygon fill="black" stroke="black" points="161.22,-170.38 151.01,-167.53 157.21,-176.12 161.22,-170.38"/>
</g>
<!-- 5038 -->
<g id="node7" class="node">
<title>5038</title>
<path fill="#f7d6bf" stroke="black" d="M338,-166.25C338,-166.25 196,-166.25 196,-166.25 190,-166.25 184,-160.25 184,-154.25 184,-154.25 184,-84 184,-84 184,-78 190,-72 196,-72 196,-72 338,-72 338,-72 344,-72 350,-78 350,-84 350,-84 350,-154.25 350,-154.25 350,-160.25 344,-166.25 338,-166.25"/>
<text text-anchor="middle" x="267" y="-148.95" font-family="Helvetica,sans-Serif" font-size="14.00">8_G &lt;= 0.5</text>
<text text-anchor="middle" x="267" y="-131.7" font-family="Helvetica,sans-Serif" font-size="14.00">entropy = 0.973</text>
<text text-anchor="middle" x="267" y="-114.45" font-family="Helvetica,sans-Serif" font-size="14.00">samples = 3708</text>
<text text-anchor="middle" x="267" y="-97.2" font-family="Helvetica,sans-Serif" font-size="14.00">value = [3531, 2394]</text>
<text text-anchor="middle" x="267" y="-79.95" font-family="Helvetica,sans-Serif" font-size="14.00">class = Animal</text>
</g>
<!-- 2&#45;&gt;5038 -->
<g id="edge6" class="edge">
<title>2&#45;&gt;5038</title>
<path fill="none" stroke="black" d="M267,-202.07C267,-194.17 267,-185.88 267,-177.73"/>
<polygon fill="black" stroke="black" points="270.5,-177.87 267,-167.87 263.5,-177.87 270.5,-177.87"/>
</g>
<!-- 4 -->
<g id="node5" class="node">
<title>4</title>
<path fill="#c0c0c0" stroke="black" d="M62,-36C62,-36 32,-36 32,-36 26,-36 20,-30 20,-24 20,-24 20,-12 20,-12 20,-6 26,0 32,0 32,0 62,0 62,0 68,0 74,-6 74,-12 74,-12 74,-24 74,-24 74,-30 68,-36 62,-36"/>
<text text-anchor="middle" x="47" y="-13.32" font-family="Helvetica,sans-Serif" font-size="14.00">(...)</text>
</g>
<!-- 3&#45;&gt;4 -->
<g id="edge4" class="edge">
<title>3&#45;&gt;4</title>
<path fill="none" stroke="black" d="M66.16,-71.75C63.06,-63.22 59.92,-54.57 57.1,-46.8"/>
<polygon fill="black" stroke="black" points="60.46,-45.8 53.75,-37.6 53.88,-48.19 60.46,-45.8"/>
</g>
<!-- 4561 -->
<g id="node6" class="node">
<title>4561</title>
<path fill="#c0c0c0" stroke="black" d="M134,-36C134,-36 104,-36 104,-36 98,-36 92,-30 92,-24 92,-24 92,-12 92,-12 92,-6 98,0 104,0 104,0 134,0 134,0 140,0 146,-6 146,-12 146,-12 146,-24 146,-24 146,-30 140,-36 134,-36"/>
<text text-anchor="middle" x="119" y="-13.32" font-family="Helvetica,sans-Serif" font-size="14.00">(...)</text>
</g>
<!-- 3&#45;&gt;4561 -->
<g id="edge5" class="edge">
<title>3&#45;&gt;4561</title>
<path fill="none" stroke="black" d="M99.84,-71.75C102.94,-63.22 106.08,-54.57 108.9,-46.8"/>
<polygon fill="black" stroke="black" points="112.12,-48.19 112.25,-37.6 105.54,-45.8 112.12,-48.19"/>
</g>
<!-- 5039 -->
<g id="node8" class="node">
<title>5039</title>
<path fill="#c0c0c0" stroke="black" d="M245,-36C245,-36 215,-36 215,-36 209,-36 203,-30 203,-24 203,-24 203,-12 203,-12 203,-6 209,0 215,0 215,0 245,0 245,0 251,0 257,-6 257,-12 257,-12 257,-24 257,-24 257,-30 251,-36 245,-36"/>
<text text-anchor="middle" x="230" y="-13.32" font-family="Helvetica,sans-Serif" font-size="14.00">(...)</text>
</g>
<!-- 5038&#45;&gt;5039 -->
<g id="edge7" class="edge">
<title>5038&#45;&gt;5039</title>
<path fill="none" stroke="black" d="M249.69,-71.75C246.51,-63.22 243.28,-54.57 240.38,-46.8"/>
<polygon fill="black" stroke="black" points="243.72,-45.74 236.94,-37.59 237.16,-48.18 243.72,-45.74"/>
</g>
<!-- 6436 -->
<g id="node9" class="node">
<title>6436</title>
<path fill="#c0c0c0" stroke="black" d="M317,-36C317,-36 287,-36 287,-36 281,-36 275,-30 275,-24 275,-24 275,-12 275,-12 275,-6 281,0 287,0 287,0 317,0 317,0 323,0 329,-6 329,-12 329,-12 329,-24 329,-24 329,-30 323,-36 317,-36"/>
<text text-anchor="middle" x="302" y="-13.32" font-family="Helvetica,sans-Serif" font-size="14.00">(...)</text>
</g>
<!-- 5038&#45;&gt;6436 -->
<g id="edge8" class="edge">
<title>5038&#45;&gt;6436</title>
<path fill="none" stroke="black" d="M283.37,-71.75C286.39,-63.22 289.44,-54.57 292.18,-46.8"/>
<polygon fill="black" stroke="black" points="295.4,-48.19 295.43,-37.6 288.8,-45.86 295.4,-48.19"/>
</g>
<!-- 7022 -->
<g id="node11" class="node">
<title>7022</title>
<path fill="#dbedfa" stroke="black" d="M522,-166.25C522,-166.25 380,-166.25 380,-166.25 374,-166.25 368,-160.25 368,-154.25 368,-154.25 368,-84 368,-84 368,-78 374,-72 380,-72 380,-72 522,-72 522,-72 528,-72 534,-78 534,-84 534,-84 534,-154.25 534,-154.25 534,-160.25 528,-166.25 522,-166.25"/>
<text text-anchor="middle" x="451" y="-148.95" font-family="Helvetica,sans-Serif" font-size="14.00">22_U &lt;= 0.5</text>
<text text-anchor="middle" x="451" y="-131.7" font-family="Helvetica,sans-Serif" font-size="14.00">entropy = 0.993</text>
<text text-anchor="middle" x="451" y="-114.45" font-family="Helvetica,sans-Serif" font-size="14.00">samples = 4531</text>
<text text-anchor="middle" x="451" y="-97.2" font-family="Helvetica,sans-Serif" font-size="14.00">value = [3202, 3911]</text>
<text text-anchor="middle" x="451" y="-79.95" font-family="Helvetica,sans-Serif" font-size="14.00">class = Plant</text>
</g>
<!-- 7021&#45;&gt;7022 -->
<g id="edge10" class="edge">
<title>7021&#45;&gt;7022</title>
<path fill="none" stroke="black" d="M501.48,-202.07C496.28,-193.63 490.8,-184.74 485.45,-176.05"/>
<polygon fill="black" stroke="black" points="488.5,-174.33 480.27,-167.65 482.54,-178 488.5,-174.33"/>
</g>
<!-- 9043 -->
<g id="node14" class="node">
<title>9043</title>
<path fill="#edaa79" stroke="black" d="M688,-166.25C688,-166.25 564,-166.25 564,-166.25 558,-166.25 552,-160.25 552,-154.25 552,-154.25 552,-84 552,-84 552,-78 558,-72 564,-72 564,-72 688,-72 688,-72 694,-72 700,-78 700,-84 700,-84 700,-154.25 700,-154.25 700,-160.25 694,-166.25 688,-166.25"/>
<text text-anchor="middle" x="626" y="-148.95" font-family="Helvetica,sans-Serif" font-size="14.00">10_U &lt;= 0.5</text>
<text text-anchor="middle" x="626" y="-131.7" font-family="Helvetica,sans-Serif" font-size="14.00">entropy = 0.804</text>
<text text-anchor="middle" x="626" y="-114.45" font-family="Helvetica,sans-Serif" font-size="14.00">samples = 586</text>
<text text-anchor="middle" x="626" y="-97.2" font-family="Helvetica,sans-Serif" font-size="14.00">value = [726, 236]</text>
<text text-anchor="middle" x="626" y="-79.95" font-family="Helvetica,sans-Serif" font-size="14.00">class = Animal</text>
</g>
<!-- 7021&#45;&gt;9043 -->
<g id="edge13" class="edge">
<title>7021&#45;&gt;9043</title>
<path fill="none" stroke="black" d="M564.66,-202.07C571.12,-193.45 577.92,-184.35 584.56,-175.49"/>
<polygon fill="black" stroke="black" points="587.3,-177.67 590.49,-167.57 581.69,-173.48 587.3,-177.67"/>
</g>
<!-- 7023 -->
<g id="node12" class="node">
<title>7023</title>
<path fill="#c0c0c0" stroke="black" d="M409,-36C409,-36 379,-36 379,-36 373,-36 367,-30 367,-24 367,-24 367,-12 367,-12 367,-6 373,0 379,0 379,0 409,0 409,0 415,0 421,-6 421,-12 421,-12 421,-24 421,-24 421,-30 415,-36 409,-36"/>
<text text-anchor="middle" x="394" y="-13.32" font-family="Helvetica,sans-Serif" font-size="14.00">(...)</text>
</g>
<!-- 7022&#45;&gt;7023 -->
<g id="edge11" class="edge">
<title>7022&#45;&gt;7023</title>
<path fill="none" stroke="black" d="M424.34,-71.75C419.26,-62.93 414.1,-53.96 409.52,-45.99"/>
<polygon fill="black" stroke="black" points="412.65,-44.41 404.63,-37.48 406.58,-47.9 412.65,-44.41"/>
</g>
<!-- 8782 -->
<g id="node13" class="node">
<title>8782</title>
<path fill="#c0c0c0" stroke="black" d="M481,-36C481,-36 451,-36 451,-36 445,-36 439,-30 439,-24 439,-24 439,-12 439,-12 439,-6 445,0 451,0 451,0 481,0 481,0 487,0 493,-6 493,-12 493,-12 493,-24 493,-24 493,-30 487,-36 481,-36"/>
<text text-anchor="middle" x="466" y="-13.32" font-family="Helvetica,sans-Serif" font-size="14.00">(...)</text>
</g>
<!-- 7022&#45;&gt;8782 -->
<g id="edge12" class="edge">
<title>7022&#45;&gt;8782</title>
<path fill="none" stroke="black" d="M458.02,-71.75C459.28,-63.42 460.56,-54.97 461.71,-47.34"/>
<polygon fill="black" stroke="black" points="465.14,-48.08 463.17,-37.67 458.22,-47.03 465.14,-48.08"/>
</g>
<!-- 9044 -->
<g id="node15" class="node">
<title>9044</title>
<path fill="#c0c0c0" stroke="black" d="M587,-36C587,-36 557,-36 557,-36 551,-36 545,-30 545,-24 545,-24 545,-12 545,-12 545,-6 551,0 557,0 557,0 587,0 587,0 593,0 599,-6 599,-12 599,-12 599,-24 599,-24 599,-30 593,-36 587,-36"/>
<text text-anchor="middle" x="572" y="-13.32" font-family="Helvetica,sans-Serif" font-size="14.00">(...)</text>
</g>
<!-- 9043&#45;&gt;9044 -->
<g id="edge14" class="edge">
<title>9043&#45;&gt;9044</title>
<path fill="none" stroke="black" d="M600.74,-71.75C595.98,-63.03 591.16,-54.16 586.85,-46.26"/>
<polygon fill="black" stroke="black" points="589.94,-44.61 582.08,-37.5 583.79,-47.96 589.94,-44.61"/>
</g>
<!-- 9299 -->
<g id="node16" class="node">
<title>9299</title>
<path fill="#c0c0c0" stroke="black" d="M659,-36C659,-36 629,-36 629,-36 623,-36 617,-30 617,-24 617,-24 617,-12 617,-12 617,-6 623,0 629,0 629,0 659,0 659,0 665,0 671,-6 671,-12 671,-12 671,-24 671,-24 671,-30 665,-36 659,-36"/>
<text text-anchor="middle" x="644" y="-13.32" font-family="Helvetica,sans-Serif" font-size="14.00">(...)</text>
</g>
<!-- 9043&#45;&gt;9299 -->
<g id="edge15" class="edge">
<title>9043&#45;&gt;9299</title>
<path fill="none" stroke="black" d="M634.42,-71.75C635.93,-63.42 637.47,-54.97 638.85,-47.34"/>
<polygon fill="black" stroke="black" points="642.27,-48.13 640.61,-37.66 635.38,-46.88 642.27,-48.13"/>
</g>
<!-- 9369 -->
<g id="node18" class="node">
<title>9369</title>
<path fill="#afd7f4" stroke="black" d="M959.5,-296.5C959.5,-296.5 808.5,-296.5 808.5,-296.5 802.5,-296.5 796.5,-290.5 796.5,-284.5 796.5,-284.5 796.5,-214.25 796.5,-214.25 796.5,-208.25 802.5,-202.25 808.5,-202.25 808.5,-202.25 959.5,-202.25 959.5,-202.25 965.5,-202.25 971.5,-208.25 971.5,-214.25 971.5,-214.25 971.5,-284.5 971.5,-284.5 971.5,-290.5 965.5,-296.5 959.5,-296.5"/>
<text text-anchor="middle" x="884" y="-279.2" font-family="Helvetica,sans-Serif" font-size="14.00">23_U &lt;= 0.5</text>
<text text-anchor="middle" x="884" y="-261.95" font-family="Helvetica,sans-Serif" font-size="14.00">entropy = 0.953</text>
<text text-anchor="middle" x="884" y="-244.7" font-family="Helvetica,sans-Serif" font-size="14.00">samples = 16307</text>
<text text-anchor="middle" x="884" y="-227.45" font-family="Helvetica,sans-Serif" font-size="14.00">value = [9652, 16206]</text>
<text text-anchor="middle" x="884" y="-210.2" font-family="Helvetica,sans-Serif" font-size="14.00">class = Plant</text>
</g>
<!-- 9368&#45;&gt;9369 -->
<g id="edge17" class="edge">
<title>9368&#45;&gt;9369</title>
<path fill="none" stroke="black" d="M884,-332.32C884,-324.42 884,-316.13 884,-307.98"/>
<polygon fill="black" stroke="black" points="887.5,-308.12 884,-298.12 880.5,-308.12 887.5,-308.12"/>
</g>
<!-- 14924 -->
<g id="node25" class="node">
<title>14924</title>
<path fill="#f3c7a7" stroke="black" d="M1223,-296.5C1223,-296.5 1081,-296.5 1081,-296.5 1075,-296.5 1069,-290.5 1069,-284.5 1069,-284.5 1069,-214.25 1069,-214.25 1069,-208.25 1075,-202.25 1081,-202.25 1081,-202.25 1223,-202.25 1223,-202.25 1229,-202.25 1235,-208.25 1235,-214.25 1235,-214.25 1235,-284.5 1235,-284.5 1235,-290.5 1229,-296.5 1223,-296.5"/>
<text text-anchor="middle" x="1152" y="-279.2" font-family="Helvetica,sans-Serif" font-size="14.00">22_A &lt;= 0.5</text>
<text text-anchor="middle" x="1152" y="-261.95" font-family="Helvetica,sans-Serif" font-size="14.00">entropy = 0.941</text>
<text text-anchor="middle" x="1152" y="-244.7" font-family="Helvetica,sans-Serif" font-size="14.00">samples = 3921</text>
<text text-anchor="middle" x="1152" y="-227.45" font-family="Helvetica,sans-Serif" font-size="14.00">value = [3916, 2178]</text>
<text text-anchor="middle" x="1152" y="-210.2" font-family="Helvetica,sans-Serif" font-size="14.00">class = Animal</text>
</g>
<!-- 9368&#45;&gt;14924 -->
<g id="edge24" class="edge">
<title>9368&#45;&gt;14924</title>
<path fill="none" stroke="black" d="M976.23,-334.49C1002.81,-321.77 1031.83,-307.88 1058.49,-295.12"/>
<polygon fill="black" stroke="black" points="1059.71,-298.42 1067.22,-290.95 1056.69,-292.11 1059.71,-298.42"/>
</g>
<!-- 9370 -->
<g id="node19" class="node">
<title>9370</title>
<path fill="#a4d2f3" stroke="black" d="M881.5,-166.25C881.5,-166.25 730.5,-166.25 730.5,-166.25 724.5,-166.25 718.5,-160.25 718.5,-154.25 718.5,-154.25 718.5,-84 718.5,-84 718.5,-78 724.5,-72 730.5,-72 730.5,-72 881.5,-72 881.5,-72 887.5,-72 893.5,-78 893.5,-84 893.5,-84 893.5,-154.25 893.5,-154.25 893.5,-160.25 887.5,-166.25 881.5,-166.25"/>
<text text-anchor="middle" x="806" y="-148.95" font-family="Helvetica,sans-Serif" font-size="14.00">19_U &lt;= 0.5</text>
<text text-anchor="middle" x="806" y="-131.7" font-family="Helvetica,sans-Serif" font-size="14.00">entropy = 0.935</text>
<text text-anchor="middle" x="806" y="-114.45" font-family="Helvetica,sans-Serif" font-size="14.00">samples = 15633</text>
<text text-anchor="middle" x="806" y="-97.2" font-family="Helvetica,sans-Serif" font-size="14.00">value = [8702, 16110]</text>
<text text-anchor="middle" x="806" y="-79.95" font-family="Helvetica,sans-Serif" font-size="14.00">class = Plant</text>
</g>
<!-- 9369&#45;&gt;9370 -->
<g id="edge18" class="edge">
<title>9369&#45;&gt;9370</title>
<path fill="none" stroke="black" d="M855.84,-202.07C850.7,-193.63 845.3,-184.74 840.01,-176.05"/>
<polygon fill="black" stroke="black" points="843.09,-174.38 834.9,-167.65 837.11,-178.01 843.09,-174.38"/>
</g>
<!-- 14707 -->
<g id="node22" class="node">
<title>14707</title>
<path fill="#e88e4d" stroke="black" d="M1038.5,-166.25C1038.5,-166.25 923.5,-166.25 923.5,-166.25 917.5,-166.25 911.5,-160.25 911.5,-154.25 911.5,-154.25 911.5,-84 911.5,-84 911.5,-78 917.5,-72 923.5,-72 923.5,-72 1038.5,-72 1038.5,-72 1044.5,-72 1050.5,-78 1050.5,-84 1050.5,-84 1050.5,-154.25 1050.5,-154.25 1050.5,-160.25 1044.5,-166.25 1038.5,-166.25"/>
<text text-anchor="middle" x="981" y="-148.95" font-family="Helvetica,sans-Serif" font-size="14.00">7_C &lt;= 0.5</text>
<text text-anchor="middle" x="981" y="-131.7" font-family="Helvetica,sans-Serif" font-size="14.00">entropy = 0.442</text>
<text text-anchor="middle" x="981" y="-114.45" font-family="Helvetica,sans-Serif" font-size="14.00">samples = 674</text>
<text text-anchor="middle" x="981" y="-97.2" font-family="Helvetica,sans-Serif" font-size="14.00">value = [950, 96]</text>
<text text-anchor="middle" x="981" y="-79.95" font-family="Helvetica,sans-Serif" font-size="14.00">class = Animal</text>
</g>
<!-- 9369&#45;&gt;14707 -->
<g id="edge21" class="edge">
<title>9369&#45;&gt;14707</title>
<path fill="none" stroke="black" d="M919.02,-202.07C925.54,-193.45 932.42,-184.35 939.13,-175.49"/>
<polygon fill="black" stroke="black" points="941.88,-177.65 945.12,-167.57 936.3,-173.43 941.88,-177.65"/>
</g>
<!-- 9371 -->
<g id="node20" class="node">
<title>9371</title>
<path fill="#c0c0c0" stroke="black" d="M764,-36C764,-36 734,-36 734,-36 728,-36 722,-30 722,-24 722,-24 722,-12 722,-12 722,-6 728,0 734,0 734,0 764,0 764,0 770,0 776,-6 776,-12 776,-12 776,-24 776,-24 776,-30 770,-36 764,-36"/>
<text text-anchor="middle" x="749" y="-13.32" font-family="Helvetica,sans-Serif" font-size="14.00">(...)</text>
</g>
<!-- 9370&#45;&gt;9371 -->
<g id="edge19" class="edge">
<title>9370&#45;&gt;9371</title>
<path fill="none" stroke="black" d="M779.34,-71.75C774.26,-62.93 769.1,-53.96 764.52,-45.99"/>
<polygon fill="black" stroke="black" points="767.65,-44.41 759.63,-37.48 761.58,-47.9 767.65,-44.41"/>
</g>
<!-- 13336 -->
<g id="node21" class="node">
<title>13336</title>
<path fill="#c0c0c0" stroke="black" d="M836,-36C836,-36 806,-36 806,-36 800,-36 794,-30 794,-24 794,-24 794,-12 794,-12 794,-6 800,0 806,0 806,0 836,0 836,0 842,0 848,-6 848,-12 848,-12 848,-24 848,-24 848,-30 842,-36 836,-36"/>
<text text-anchor="middle" x="821" y="-13.32" font-family="Helvetica,sans-Serif" font-size="14.00">(...)</text>
</g>
<!-- 9370&#45;&gt;13336 -->
<g id="edge20" class="edge">
<title>9370&#45;&gt;13336</title>
<path fill="none" stroke="black" d="M813.02,-71.75C814.28,-63.42 815.56,-54.97 816.71,-47.34"/>
<polygon fill="black" stroke="black" points="820.14,-48.08 818.17,-37.67 813.22,-47.03 820.14,-48.08"/>
</g>
<!-- 14708 -->
<g id="node23" class="node">
<title>14708</title>
<path fill="#c0c0c0" stroke="black" d="M937,-36C937,-36 907,-36 907,-36 901,-36 895,-30 895,-24 895,-24 895,-12 895,-12 895,-6 901,0 907,0 907,0 937,0 937,0 943,0 949,-6 949,-12 949,-12 949,-24 949,-24 949,-30 943,-36 937,-36"/>
<text text-anchor="middle" x="922" y="-13.32" font-family="Helvetica,sans-Serif" font-size="14.00">(...)</text>
</g>
<!-- 14707&#45;&gt;14708 -->
<g id="edge22" class="edge">
<title>14707&#45;&gt;14708</title>
<path fill="none" stroke="black" d="M953.4,-71.75C948.15,-62.93 942.81,-53.96 938.06,-45.99"/>
<polygon fill="black" stroke="black" points="941.12,-44.28 933,-37.47 935.1,-47.86 941.12,-44.28"/>
</g>
<!-- 14877 -->
<g id="node24" class="node">
<title>14877</title>
<path fill="#c0c0c0" stroke="black" d="M1009,-36C1009,-36 979,-36 979,-36 973,-36 967,-30 967,-24 967,-24 967,-12 967,-12 967,-6 973,0 979,0 979,0 1009,0 1009,0 1015,0 1021,-6 1021,-12 1021,-12 1021,-24 1021,-24 1021,-30 1015,-36 1009,-36"/>
<text text-anchor="middle" x="994" y="-13.32" font-family="Helvetica,sans-Serif" font-size="14.00">(...)</text>
</g>
<!-- 14707&#45;&gt;14877 -->
<g id="edge23" class="edge">
<title>14707&#45;&gt;14877</title>
<path fill="none" stroke="black" d="M987.08,-71.75C988.17,-63.42 989.28,-54.97 990.28,-47.34"/>
<polygon fill="black" stroke="black" points="993.72,-48.04 991.55,-37.67 986.78,-47.13 993.72,-48.04"/>
</g>
<!-- 14925 -->
<g id="node26" class="node">
<title>14925</title>
<path fill="#f5cdb0" stroke="black" d="M1223,-166.25C1223,-166.25 1081,-166.25 1081,-166.25 1075,-166.25 1069,-160.25 1069,-154.25 1069,-154.25 1069,-84 1069,-84 1069,-78 1075,-72 1081,-72 1081,-72 1223,-72 1223,-72 1229,-72 1235,-78 1235,-84 1235,-84 1235,-154.25 1235,-154.25 1235,-160.25 1229,-166.25 1223,-166.25"/>
<text text-anchor="middle" x="1152" y="-148.95" font-family="Helvetica,sans-Serif" font-size="14.00">4_G &lt;= 0.5</text>
<text text-anchor="middle" x="1152" y="-131.7" font-family="Helvetica,sans-Serif" font-size="14.00">entropy = 0.955</text>
<text text-anchor="middle" x="1152" y="-114.45" font-family="Helvetica,sans-Serif" font-size="14.00">samples = 3392</text>
<text text-anchor="middle" x="1152" y="-97.2" font-family="Helvetica,sans-Serif" font-size="14.00">value = [3293, 1986]</text>
<text text-anchor="middle" x="1152" y="-79.95" font-family="Helvetica,sans-Serif" font-size="14.00">class = Animal</text>
</g>
<!-- 14924&#45;&gt;14925 -->
<g id="edge25" class="edge">
<title>14924&#45;&gt;14925</title>
<path fill="none" stroke="black" d="M1152,-202.07C1152,-194.17 1152,-185.88 1152,-177.73"/>
<polygon fill="black" stroke="black" points="1155.5,-177.87 1152,-167.87 1148.5,-177.87 1155.5,-177.87"/>
</g>
<!-- 16554 -->
<g id="node29" class="node">
<title>16554</title>
<path fill="#eda876" stroke="black" d="M1389,-166.25C1389,-166.25 1265,-166.25 1265,-166.25 1259,-166.25 1253,-160.25 1253,-154.25 1253,-154.25 1253,-84 1253,-84 1253,-78 1259,-72 1265,-72 1265,-72 1389,-72 1389,-72 1395,-72 1401,-78 1401,-84 1401,-84 1401,-154.25 1401,-154.25 1401,-160.25 1395,-166.25 1389,-166.25"/>
<text text-anchor="middle" x="1327" y="-148.95" font-family="Helvetica,sans-Serif" font-size="14.00">7_G &lt;= 0.5</text>
<text text-anchor="middle" x="1327" y="-131.7" font-family="Helvetica,sans-Serif" font-size="14.00">entropy = 0.788</text>
<text text-anchor="middle" x="1327" y="-114.45" font-family="Helvetica,sans-Serif" font-size="14.00">samples = 529</text>
<text text-anchor="middle" x="1327" y="-97.2" font-family="Helvetica,sans-Serif" font-size="14.00">value = [623, 192]</text>
<text text-anchor="middle" x="1327" y="-79.95" font-family="Helvetica,sans-Serif" font-size="14.00">class = Animal</text>
</g>
<!-- 14924&#45;&gt;16554 -->
<g id="edge28" class="edge">
<title>14924&#45;&gt;16554</title>
<path fill="none" stroke="black" d="M1215.18,-202.07C1227.99,-192.69 1241.55,-182.75 1254.64,-173.15"/>
<polygon fill="black" stroke="black" points="1256.4,-176.2 1262.4,-167.47 1252.26,-170.56 1256.4,-176.2"/>
</g>
<!-- 14926 -->
<g id="node27" class="node">
<title>14926</title>
<path fill="#c0c0c0" stroke="black" d="M1128,-36C1128,-36 1098,-36 1098,-36 1092,-36 1086,-30 1086,-24 1086,-24 1086,-12 1086,-12 1086,-6 1092,0 1098,0 1098,0 1128,0 1128,0 1134,0 1140,-6 1140,-12 1140,-12 1140,-24 1140,-24 1140,-30 1134,-36 1128,-36"/>
<text text-anchor="middle" x="1113" y="-13.32" font-family="Helvetica,sans-Serif" font-size="14.00">(...)</text>
</g>
<!-- 14925&#45;&gt;14926 -->
<g id="edge26" class="edge">
<title>14925&#45;&gt;14926</title>
<path fill="none" stroke="black" d="M1133.76,-71.75C1130.4,-63.22 1126.99,-54.57 1123.94,-46.8"/>
<polygon fill="black" stroke="black" points="1127.23,-45.61 1120.31,-37.58 1120.71,-48.17 1127.23,-45.61"/>
</g>
<!-- 16081 -->
<g id="node28" class="node">
<title>16081</title>
<path fill="#c0c0c0" stroke="black" d="M1200,-36C1200,-36 1170,-36 1170,-36 1164,-36 1158,-30 1158,-24 1158,-24 1158,-12 1158,-12 1158,-6 1164,0 1170,0 1170,0 1200,0 1200,0 1206,0 1212,-6 1212,-12 1212,-12 1212,-24 1212,-24 1212,-30 1206,-36 1200,-36"/>
<text text-anchor="middle" x="1185" y="-13.32" font-family="Helvetica,sans-Serif" font-size="14.00">(...)</text>
</g>
<!-- 14925&#45;&gt;16081 -->
<g id="edge27" class="edge">
<title>14925&#45;&gt;16081</title>
<path fill="none" stroke="black" d="M1167.44,-71.75C1170.24,-63.32 1173.09,-54.77 1175.66,-47.07"/>
<polygon fill="black" stroke="black" points="1178.97,-48.2 1178.8,-37.61 1172.33,-45.99 1178.97,-48.2"/>
</g>
<!-- 16555 -->
<g id="node30" class="node">
<title>16555</title>
<path fill="#c0c0c0" stroke="black" d="M1306,-36C1306,-36 1276,-36 1276,-36 1270,-36 1264,-30 1264,-24 1264,-24 1264,-12 1264,-12 1264,-6 1270,0 1276,0 1276,0 1306,0 1306,0 1312,0 1318,-6 1318,-12 1318,-12 1318,-24 1318,-24 1318,-30 1312,-36 1306,-36"/>
<text text-anchor="middle" x="1291" y="-13.32" font-family="Helvetica,sans-Serif" font-size="14.00">(...)</text>
</g>
<!-- 16554&#45;&gt;16555 -->
<g id="edge29" class="edge">
<title>16554&#45;&gt;16555</title>
<path fill="none" stroke="black" d="M1310.16,-71.75C1307.06,-63.22 1303.92,-54.57 1301.1,-46.8"/>
<polygon fill="black" stroke="black" points="1304.46,-45.8 1297.75,-37.6 1297.88,-48.19 1304.46,-45.8"/>
</g>
<!-- 16728 -->
<g id="node31" class="node">
<title>16728</title>
<path fill="#c0c0c0" stroke="black" d="M1378,-36C1378,-36 1348,-36 1348,-36 1342,-36 1336,-30 1336,-24 1336,-24 1336,-12 1336,-12 1336,-6 1342,0 1348,0 1348,0 1378,0 1378,0 1384,0 1390,-6 1390,-12 1390,-12 1390,-24 1390,-24 1390,-30 1384,-36 1378,-36"/>
<text text-anchor="middle" x="1363" y="-13.32" font-family="Helvetica,sans-Serif" font-size="14.00">(...)</text>
</g>
<!-- 16554&#45;&gt;16728 -->
<g id="edge30" class="edge">
<title>16554&#45;&gt;16728</title>
<path fill="none" stroke="black" d="M1343.84,-71.75C1346.94,-63.22 1350.08,-54.57 1352.9,-46.8"/>
<polygon fill="black" stroke="black" points="1356.12,-48.19 1356.25,-37.6 1349.54,-45.8 1356.12,-48.19"/>
</g>
</g>
</svg>
