<?xml version="1.0" encoding="UTF-8" standalone="no"?>
<!DOCTYPE svg PUBLIC "-//W3C//DTD SVG 1.1//EN"
 "http://www.w3.org/Graphics/SVG/1.1/DTD/svg11.dtd">
<!-- Generated by graphviz version 12.0.0 (20240803.0821)
 -->
<!-- Title: Tree Pages: 1 -->
<svg width="1420pt" height="565pt"
 viewBox="0.00 0.00 1419.50 565.00" xmlns="http://www.w3.org/2000/svg" xmlns:xlink="http://www.w3.org/1999/xlink">
<g id="graph0" class="graph" transform="scale(1 1) rotate(0) translate(4 561)">
<title>Tree</title>
<polygon fill="white" stroke="none" points="-4,4 -4,-561 1415.5,-561 1415.5,4 -4,4"/>
<!-- 0 -->
<g id="node1" class="node">
<title>0</title>
<path fill="#fdfeff" stroke="black" d="M800.5,-557C800.5,-557 640.5,-557 640.5,-557 634.5,-557 628.5,-551 628.5,-545 628.5,-545 628.5,-474.75 628.5,-474.75 628.5,-468.75 634.5,-462.75 640.5,-462.75 640.5,-462.75 800.5,-462.75 800.5,-462.75 806.5,-462.75 812.5,-468.75 812.5,-474.75 812.5,-474.75 812.5,-545 812.5,-545 812.5,-551 806.5,-557 800.5,-557"/>
<text text-anchor="middle" x="720.5" y="-539.7" font-family="Helvetica,sans-Serif" font-size="14.00">9_U &lt;= 0.5</text>
<text text-anchor="middle" x="720.5" y="-522.45" font-family="Helvetica,sans-Serif" font-size="14.00">entropy = 1.0</text>
<text text-anchor="middle" x="720.5" y="-505.2" font-family="Helvetica,sans-Serif" font-size="14.00">samples = 38280</text>
<text text-anchor="middle" x="720.5" y="-487.95" font-family="Helvetica,sans-Serif" font-size="14.00">value = [29996, 30349]</text>
<text text-anchor="middle" x="720.5" y="-470.7" font-family="Helvetica,sans-Serif" font-size="14.00">class = Plant</text>
</g>
<!-- 1 -->
<g id="node2" class="node">
<title>1</title>
<path fill="#daedfa" stroke="black" d="M625.5,-426.75C625.5,-426.75 465.5,-426.75 465.5,-426.75 459.5,-426.75 453.5,-420.75 453.5,-414.75 453.5,-414.75 453.5,-344.5 453.5,-344.5 453.5,-338.5 459.5,-332.5 465.5,-332.5 465.5,-332.5 625.5,-332.5 625.5,-332.5 631.5,-332.5 637.5,-338.5 637.5,-344.5 637.5,-344.5 637.5,-414.75 637.5,-414.75 637.5,-420.75 631.5,-426.75 625.5,-426.75"/>
<text text-anchor="middle" x="545.5" y="-409.45" font-family="Helvetica,sans-Serif" font-size="14.00">8_G &lt;= 0.5</text>
<text text-anchor="middle" x="545.5" y="-392.2" font-family="Helvetica,sans-Serif" font-size="14.00">entropy = 0.992</text>
<text text-anchor="middle" x="545.5" y="-374.95" font-family="Helvetica,sans-Serif" font-size="14.00">samples = 27506</text>
<text text-anchor="middle" x="545.5" y="-357.7" font-family="Helvetica,sans-Serif" font-size="14.00">value = [19386, 23894]</text>
<text text-anchor="middle" x="545.5" y="-340.45" font-family="Helvetica,sans-Serif" font-size="14.00">class = Plant</text>
</g>
<!-- 0&#45;&gt;1 -->
<g id="edge1" class="edge">
<title>0&#45;&gt;1</title>
<path fill="none" stroke="black" d="M657.32,-462.57C644.51,-453.19 630.95,-443.25 617.86,-433.65"/>
<polygon fill="black" stroke="black" points="620.24,-431.06 610.1,-427.97 616.1,-436.7 620.24,-431.06"/>
<text text-anchor="middle" x="612.69" y="-447.11" font-family="Helvetica,sans-Serif" font-size="14.00">True</text>
</g>
<!-- 12370 -->
<g id="node17" class="node">
<title>12370</title>
<path fill="#f5ceb1" stroke="black" d="M975,-426.75C975,-426.75 824,-426.75 824,-426.75 818,-426.75 812,-420.75 812,-414.75 812,-414.75 812,-344.5 812,-344.5 812,-338.5 818,-332.5 824,-332.5 824,-332.5 975,-332.5 975,-332.5 981,-332.5 987,-338.5 987,-344.5 987,-344.5 987,-414.75 987,-414.75 987,-420.75 981,-426.75 975,-426.75"/>
<text text-anchor="middle" x="899.5" y="-409.45" font-family="Helvetica,sans-Serif" font-size="14.00">7_G &lt;= 0.5</text>
<text text-anchor="middle" x="899.5" y="-392.2" font-family="Helvetica,sans-Serif" font-size="14.00">entropy = 0.957</text>
<text text-anchor="middle" x="899.5" y="-374.95" font-family="Helvetica,sans-Serif" font-size="14.00">samples = 10774</text>
<text text-anchor="middle" x="899.5" y="-357.7" font-family="Helvetica,sans-Serif" font-size="14.00">value = [10610, 6455]</text>
<text text-anchor="middle" x="899.5" y="-340.45" font-family="Helvetica,sans-Serif" font-size="14.00">class = Animal</text>
</g>
<!-- 0&#45;&gt;12370 -->
<g id="edge16" class="edge">
<title>0&#45;&gt;12370</title>
<path fill="none" stroke="black" d="M785.38,-462.39C798.38,-453.07 812.14,-443.22 825.43,-433.69"/>
<polygon fill="black" stroke="black" points="827.22,-436.72 833.31,-428.05 823.15,-431.02 827.22,-436.72"/>
<text text-anchor="middle" x="830.47" y="-447.16" font-family="Helvetica,sans-Serif" font-size="14.00">False</text>
</g>
<!-- 2 -->
<g id="node3" class="node">
<title>2</title>
<path fill="#fefcfb" stroke="black" d="M356.5,-296.5C356.5,-296.5 196.5,-296.5 196.5,-296.5 190.5,-296.5 184.5,-290.5 184.5,-284.5 184.5,-284.5 184.5,-214.25 184.5,-214.25 184.5,-208.25 190.5,-202.25 196.5,-202.25 196.5,-202.25 356.5,-202.25 356.5,-202.25 362.5,-202.25 368.5,-208.25 368.5,-214.25 368.5,-214.25 368.5,-284.5 368.5,-284.5 368.5,-290.5 362.5,-296.5 356.5,-296.5"/>
<text text-anchor="middle" x="276.5" y="-279.2" font-family="Helvetica,sans-Serif" font-size="14.00">15_A &lt;= 0.5</text>
<text text-anchor="middle" x="276.5" y="-261.95" font-family="Helvetica,sans-Serif" font-size="14.00">entropy = 1.0</text>
<text text-anchor="middle" x="276.5" y="-244.7" font-family="Helvetica,sans-Serif" font-size="14.00">samples = 18664</text>
<text text-anchor="middle" x="276.5" y="-227.45" font-family="Helvetica,sans-Serif" font-size="14.00">value = [14877, 14571]</text>
<text text-anchor="middle" x="276.5" y="-210.2" font-family="Helvetica,sans-Serif" font-size="14.00">class = Animal</text>
</g>
<!-- 1&#45;&gt;2 -->
<g id="edge2" class="edge">
<title>1&#45;&gt;2</title>
<path fill="none" stroke="black" d="M453.3,-334.67C429.35,-323.25 403.4,-310.88 378.95,-299.22"/>
<polygon fill="black" stroke="black" points="380.48,-296.07 369.94,-294.93 377.46,-302.39 380.48,-296.07"/>
</g>
<!-- 8945 -->
<g id="node10" class="node">
<title>8945</title>
<path fill="#99ccf2" stroke="black" d="M616.5,-296.5C616.5,-296.5 474.5,-296.5 474.5,-296.5 468.5,-296.5 462.5,-290.5 462.5,-284.5 462.5,-284.5 462.5,-214.25 462.5,-214.25 462.5,-208.25 468.5,-202.25 474.5,-202.25 474.5,-202.25 616.5,-202.25 616.5,-202.25 622.5,-202.25 628.5,-208.25 628.5,-214.25 628.5,-214.25 628.5,-284.5 628.5,-284.5 628.5,-290.5 622.5,-296.5 616.5,-296.5"/>
<text text-anchor="middle" x="545.5" y="-279.2" font-family="Helvetica,sans-Serif" font-size="14.00">11_C &lt;= 0.5</text>
<text text-anchor="middle" x="545.5" y="-261.95" font-family="Helvetica,sans-Serif" font-size="14.00">entropy = 0.911</text>
<text text-anchor="middle" x="545.5" y="-244.7" font-family="Helvetica,sans-Serif" font-size="14.00">samples = 8842</text>
<text text-anchor="middle" x="545.5" y="-227.45" font-family="Helvetica,sans-Serif" font-size="14.00">value = [4509, 9323]</text>
<text text-anchor="middle" x="545.5" y="-210.2" font-family="Helvetica,sans-Serif" font-size="14.00">class = Plant</text>
</g>
<!-- 1&#45;&gt;8945 -->
<g id="edge9" class="edge">
<title>1&#45;&gt;8945</title>
<path fill="none" stroke="black" d="M545.5,-332.32C545.5,-324.42 545.5,-316.13 545.5,-307.98"/>
<polygon fill="black" stroke="black" points="549,-308.12 545.5,-298.12 542,-308.12 549,-308.12"/>
</g>
<!-- 3 -->
<g id="node4" class="node">
<title>3</title>
<path fill="#fbebdf" stroke="black" d="M163,-166.25C163,-166.25 12,-166.25 12,-166.25 6,-166.25 0,-160.25 0,-154.25 0,-154.25 0,-84 0,-84 0,-78 6,-72 12,-72 12,-72 163,-72 163,-72 169,-72 175,-78 175,-84 175,-84 175,-154.25 175,-154.25 175,-160.25 169,-166.25 163,-166.25"/>
<text text-anchor="middle" x="87.5" y="-148.95" font-family="Helvetica,sans-Serif" font-size="14.00">7_A &lt;= 0.5</text>
<text text-anchor="middle" x="87.5" y="-131.7" font-family="Helvetica,sans-Serif" font-size="14.00">entropy = 0.994</text>
<text text-anchor="middle" x="87.5" y="-114.45" font-family="Helvetica,sans-Serif" font-size="14.00">samples = 13001</text>
<text text-anchor="middle" x="87.5" y="-97.2" font-family="Helvetica,sans-Serif" font-size="14.00">value = [11177, 9371]</text>
<text text-anchor="middle" x="87.5" y="-79.95" font-family="Helvetica,sans-Serif" font-size="14.00">class = Animal</text>
</g>
<!-- 2&#45;&gt;3 -->
<g id="edge3" class="edge">
<title>2&#45;&gt;3</title>
<path fill="none" stroke="black" d="M208,-201.89C194.13,-192.48 179.46,-182.53 165.3,-172.92"/>
<polygon fill="black" stroke="black" points="167.58,-170.23 157.34,-167.51 163.65,-176.03 167.58,-170.23"/>
</g>
<!-- 6678 -->
<g id="node7" class="node">
<title>6678</title>
<path fill="#c6e3f8" stroke="black" d="M347.5,-166.25C347.5,-166.25 205.5,-166.25 205.5,-166.25 199.5,-166.25 193.5,-160.25 193.5,-154.25 193.5,-154.25 193.5,-84 193.5,-84 193.5,-78 199.5,-72 205.5,-72 205.5,-72 347.5,-72 347.5,-72 353.5,-72 359.5,-78 359.5,-84 359.5,-84 359.5,-154.25 359.5,-154.25 359.5,-160.25 353.5,-166.25 347.5,-166.25"/>
<text text-anchor="middle" x="276.5" y="-148.95" font-family="Helvetica,sans-Serif" font-size="14.00">1_U &lt;= 0.5</text>
<text text-anchor="middle" x="276.5" y="-131.7" font-family="Helvetica,sans-Serif" font-size="14.00">entropy = 0.979</text>
<text text-anchor="middle" x="276.5" y="-114.45" font-family="Helvetica,sans-Serif" font-size="14.00">samples = 5663</text>
<text text-anchor="middle" x="276.5" y="-97.2" font-family="Helvetica,sans-Serif" font-size="14.00">value = [3700, 5200]</text>
<text text-anchor="middle" x="276.5" y="-79.95" font-family="Helvetica,sans-Serif" font-size="14.00">class = Plant</text>
</g>
<!-- 2&#45;&gt;6678 -->
<g id="edge6" class="edge">
<title>2&#45;&gt;6678</title>
<path fill="none" stroke="black" d="M276.5,-202.07C276.5,-194.17 276.5,-185.88 276.5,-177.73"/>
<polygon fill="black" stroke="black" points="280,-177.87 276.5,-167.87 273,-177.87 280,-177.87"/>
</g>
<!-- 4 -->
<g id="node5" class="node">
<title>4</title>
<path fill="#c0c0c0" stroke="black" d="M66.5,-36C66.5,-36 36.5,-36 36.5,-36 30.5,-36 24.5,-30 24.5,-24 24.5,-24 24.5,-12 24.5,-12 24.5,-6 30.5,0 36.5,0 36.5,0 66.5,0 66.5,0 72.5,0 78.5,-6 78.5,-12 78.5,-12 78.5,-24 78.5,-24 78.5,-30 72.5,-36 66.5,-36"/>
<text text-anchor="middle" x="51.5" y="-13.32" font-family="Helvetica,sans-Serif" font-size="14.00">(...)</text>
</g>
<!-- 3&#45;&gt;4 -->
<g id="edge4" class="edge">
<title>3&#45;&gt;4</title>
<path fill="none" stroke="black" d="M70.66,-71.75C67.56,-63.22 64.42,-54.57 61.6,-46.8"/>
<polygon fill="black" stroke="black" points="64.96,-45.8 58.25,-37.6 58.38,-48.19 64.96,-45.8"/>
</g>
<!-- 4965 -->
<g id="node6" class="node">
<title>4965</title>
<path fill="#c0c0c0" stroke="black" d="M138.5,-36C138.5,-36 108.5,-36 108.5,-36 102.5,-36 96.5,-30 96.5,-24 96.5,-24 96.5,-12 96.5,-12 96.5,-6 102.5,0 108.5,0 108.5,0 138.5,0 138.5,0 144.5,0 150.5,-6 150.5,-12 150.5,-12 150.5,-24 150.5,-24 150.5,-30 144.5,-36 138.5,-36"/>
<text text-anchor="middle" x="123.5" y="-13.32" font-family="Helvetica,sans-Serif" font-size="14.00">(...)</text>
</g>
<!-- 3&#45;&gt;4965 -->
<g id="edge5" class="edge">
<title>3&#45;&gt;4965</title>
<path fill="none" stroke="black" d="M104.34,-71.75C107.44,-63.22 110.58,-54.57 113.4,-46.8"/>
<polygon fill="black" stroke="black" points="116.62,-48.19 116.75,-37.6 110.04,-45.8 116.62,-48.19"/>
</g>
<!-- 6679 -->
<g id="node8" class="node">
<title>6679</title>
<path fill="#c0c0c0" stroke="black" d="M257.5,-36C257.5,-36 227.5,-36 227.5,-36 221.5,-36 215.5,-30 215.5,-24 215.5,-24 215.5,-12 215.5,-12 215.5,-6 221.5,0 227.5,0 227.5,0 257.5,0 257.5,0 263.5,0 269.5,-6 269.5,-12 269.5,-12 269.5,-24 269.5,-24 269.5,-30 263.5,-36 257.5,-36"/>
<text text-anchor="middle" x="242.5" y="-13.32" font-family="Helvetica,sans-Serif" font-size="14.00">(...)</text>
</g>
<!-- 6678&#45;&gt;6679 -->
<g id="edge7" class="edge">
<title>6678&#45;&gt;6679</title>
<path fill="none" stroke="black" d="M260.6,-71.75C257.67,-63.22 254.7,-54.57 252.03,-46.8"/>
<polygon fill="black" stroke="black" points="255.44,-45.93 248.88,-37.6 248.82,-48.2 255.44,-45.93"/>
</g>
<!-- 7884 -->
<g id="node9" class="node">
<title>7884</title>
<path fill="#c0c0c0" stroke="black" d="M329.5,-36C329.5,-36 299.5,-36 299.5,-36 293.5,-36 287.5,-30 287.5,-24 287.5,-24 287.5,-12 287.5,-12 287.5,-6 293.5,0 299.5,0 299.5,0 329.5,0 329.5,0 335.5,0 341.5,-6 341.5,-12 341.5,-12 341.5,-24 341.5,-24 341.5,-30 335.5,-36 329.5,-36"/>
<text text-anchor="middle" x="314.5" y="-13.32" font-family="Helvetica,sans-Serif" font-size="14.00">(...)</text>
</g>
<!-- 6678&#45;&gt;7884 -->
<g id="edge8" class="edge">
<title>6678&#45;&gt;7884</title>
<path fill="none" stroke="black" d="M294.28,-71.75C297.55,-63.22 300.87,-54.57 303.84,-46.8"/>
<polygon fill="black" stroke="black" points="307.06,-48.18 307.38,-37.59 300.53,-45.67 307.06,-48.18"/>
</g>
<!-- 8946 -->
<g id="node11" class="node">
<title>8946</title>
<path fill="#8ac5f0" stroke="black" d="M531.5,-166.25C531.5,-166.25 389.5,-166.25 389.5,-166.25 383.5,-166.25 377.5,-160.25 377.5,-154.25 377.5,-154.25 377.5,-84 377.5,-84 377.5,-78 383.5,-72 389.5,-72 389.5,-72 531.5,-72 531.5,-72 537.5,-72 543.5,-78 543.5,-84 543.5,-84 543.5,-154.25 543.5,-154.25 543.5,-160.25 537.5,-166.25 531.5,-166.25"/>
<text text-anchor="middle" x="460.5" y="-148.95" font-family="Helvetica,sans-Serif" font-size="14.00">6_G &lt;= 0.5</text>
<text text-anchor="middle" x="460.5" y="-131.7" font-family="Helvetica,sans-Serif" font-size="14.00">entropy = 0.869</text>
<text text-anchor="middle" x="460.5" y="-114.45" font-family="Helvetica,sans-Serif" font-size="14.00">samples = 7587</text>
<text text-anchor="middle" x="460.5" y="-97.2" font-family="Helvetica,sans-Serif" font-size="14.00">value = [3446, 8435]</text>
<text text-anchor="middle" x="460.5" y="-79.95" font-family="Helvetica,sans-Serif" font-size="14.00">class = Plant</text>
</g>
<!-- 8945&#45;&gt;8946 -->
<g id="edge10" class="edge">
<title>8945&#45;&gt;8946</title>
<path fill="none" stroke="black" d="M514.81,-202.07C509.16,-193.54 503.2,-184.54 497.38,-175.77"/>
<polygon fill="black" stroke="black" points="500.42,-174.02 491.98,-167.62 494.59,-177.89 500.42,-174.02"/>
</g>
<!-- 11689 -->
<g id="node14" class="node">
<title>11689</title>
<path fill="#fbeade" stroke="black" d="M707,-166.25C707,-166.25 574,-166.25 574,-166.25 568,-166.25 562,-160.25 562,-154.25 562,-154.25 562,-84 562,-84 562,-78 568,-72 574,-72 574,-72 707,-72 707,-72 713,-72 719,-78 719,-84 719,-84 719,-154.25 719,-154.25 719,-160.25 713,-166.25 707,-166.25"/>
<text text-anchor="middle" x="640.5" y="-148.95" font-family="Helvetica,sans-Serif" font-size="14.00">6_U &lt;= 0.5</text>
<text text-anchor="middle" x="640.5" y="-131.7" font-family="Helvetica,sans-Serif" font-size="14.00">entropy = 0.994</text>
<text text-anchor="middle" x="640.5" y="-114.45" font-family="Helvetica,sans-Serif" font-size="14.00">samples = 1255</text>
<text text-anchor="middle" x="640.5" y="-97.2" font-family="Helvetica,sans-Serif" font-size="14.00">value = [1063, 888]</text>
<text text-anchor="middle" x="640.5" y="-79.95" font-family="Helvetica,sans-Serif" font-size="14.00">class = Animal</text>
</g>
<!-- 8945&#45;&gt;11689 -->
<g id="edge13" class="edge">
<title>8945&#45;&gt;11689</title>
<path fill="none" stroke="black" d="M579.8,-202.07C586.19,-193.45 592.92,-184.35 599.49,-175.49"/>
<polygon fill="black" stroke="black" points="602.21,-177.69 605.35,-167.57 596.59,-173.53 602.21,-177.69"/>
</g>
<!-- 8947 -->
<g id="node12" class="node">
<title>8947</title>
<path fill="#c0c0c0" stroke="black" d="M421.5,-36C421.5,-36 391.5,-36 391.5,-36 385.5,-36 379.5,-30 379.5,-24 379.5,-24 379.5,-12 379.5,-12 379.5,-6 385.5,0 391.5,0 391.5,0 421.5,0 421.5,0 427.5,0 433.5,-6 433.5,-12 433.5,-12 433.5,-24 433.5,-24 433.5,-30 427.5,-36 421.5,-36"/>
<text text-anchor="middle" x="406.5" y="-13.32" font-family="Helvetica,sans-Serif" font-size="14.00">(...)</text>
</g>
<!-- 8946&#45;&gt;8947 -->
<g id="edge11" class="edge">
<title>8946&#45;&gt;8947</title>
<path fill="none" stroke="black" d="M435.24,-71.75C430.48,-63.03 425.66,-54.16 421.35,-46.26"/>
<polygon fill="black" stroke="black" points="424.44,-44.61 416.58,-37.5 418.29,-47.96 424.44,-44.61"/>
</g>
<!-- 10974 -->
<g id="node13" class="node">
<title>10974</title>
<path fill="#c0c0c0" stroke="black" d="M493.5,-36C493.5,-36 463.5,-36 463.5,-36 457.5,-36 451.5,-30 451.5,-24 451.5,-24 451.5,-12 451.5,-12 451.5,-6 457.5,0 463.5,0 463.5,0 493.5,0 493.5,0 499.5,0 505.5,-6 505.5,-12 505.5,-12 505.5,-24 505.5,-24 505.5,-30 499.5,-36 493.5,-36"/>
<text text-anchor="middle" x="478.5" y="-13.32" font-family="Helvetica,sans-Serif" font-size="14.00">(...)</text>
</g>
<!-- 8946&#45;&gt;10974 -->
<g id="edge12" class="edge">
<title>8946&#45;&gt;10974</title>
<path fill="none" stroke="black" d="M468.92,-71.75C470.43,-63.42 471.97,-54.97 473.35,-47.34"/>
<polygon fill="black" stroke="black" points="476.77,-48.13 475.11,-37.66 469.88,-46.88 476.77,-48.13"/>
</g>
<!-- 11690 -->
<g id="node15" class="node">
<title>11690</title>
<path fill="#c0c0c0" stroke="black" d="M601.5,-36C601.5,-36 571.5,-36 571.5,-36 565.5,-36 559.5,-30 559.5,-24 559.5,-24 559.5,-12 559.5,-12 559.5,-6 565.5,0 571.5,0 571.5,0 601.5,0 601.5,0 607.5,0 613.5,-6 613.5,-12 613.5,-12 613.5,-24 613.5,-24 613.5,-30 607.5,-36 601.5,-36"/>
<text text-anchor="middle" x="586.5" y="-13.32" font-family="Helvetica,sans-Serif" font-size="14.00">(...)</text>
</g>
<!-- 11689&#45;&gt;11690 -->
<g id="edge14" class="edge">
<title>11689&#45;&gt;11690</title>
<path fill="none" stroke="black" d="M615.24,-71.75C610.48,-63.03 605.66,-54.16 601.35,-46.26"/>
<polygon fill="black" stroke="black" points="604.44,-44.61 596.58,-37.5 598.29,-47.96 604.44,-44.61"/>
</g>
<!-- 12179 -->
<g id="node16" class="node">
<title>12179</title>
<path fill="#c0c0c0" stroke="black" d="M673.5,-36C673.5,-36 643.5,-36 643.5,-36 637.5,-36 631.5,-30 631.5,-24 631.5,-24 631.5,-12 631.5,-12 631.5,-6 637.5,0 643.5,0 643.5,0 673.5,0 673.5,0 679.5,0 685.5,-6 685.5,-12 685.5,-12 685.5,-24 685.5,-24 685.5,-30 679.5,-36 673.5,-36"/>
<text text-anchor="middle" x="658.5" y="-13.32" font-family="Helvetica,sans-Serif" font-size="14.00">(...)</text>
</g>
<!-- 11689&#45;&gt;12179 -->
<g id="edge15" class="edge">
<title>11689&#45;&gt;12179</title>
<path fill="none" stroke="black" d="M648.92,-71.75C650.43,-63.42 651.97,-54.97 653.35,-47.34"/>
<polygon fill="black" stroke="black" points="656.77,-48.13 655.11,-37.66 649.88,-46.88 656.77,-48.13"/>
</g>
<!-- 12371 -->
<g id="node18" class="node">
<title>12371</title>
<path fill="#f2c09c" stroke="black" d="M970.5,-296.5C970.5,-296.5 828.5,-296.5 828.5,-296.5 822.5,-296.5 816.5,-290.5 816.5,-284.5 816.5,-284.5 816.5,-214.25 816.5,-214.25 816.5,-208.25 822.5,-202.25 828.5,-202.25 828.5,-202.25 970.5,-202.25 970.5,-202.25 976.5,-202.25 982.5,-208.25 982.5,-214.25 982.5,-214.25 982.5,-284.5 982.5,-284.5 982.5,-290.5 976.5,-296.5 970.5,-296.5"/>
<text text-anchor="middle" x="899.5" y="-279.2" font-family="Helvetica,sans-Serif" font-size="14.00">23_G &lt;= 0.5</text>
<text text-anchor="middle" x="899.5" y="-261.95" font-family="Helvetica,sans-Serif" font-size="14.00">entropy = 0.919</text>
<text text-anchor="middle" x="899.5" y="-244.7" font-family="Helvetica,sans-Serif" font-size="14.00">samples = 7930</text>
<text text-anchor="middle" x="899.5" y="-227.45" font-family="Helvetica,sans-Serif" font-size="14.00">value = [8344, 4190]</text>
<text text-anchor="middle" x="899.5" y="-210.2" font-family="Helvetica,sans-Serif" font-size="14.00">class = Animal</text>
</g>
<!-- 12370&#45;&gt;12371 -->
<g id="edge17" class="edge">
<title>12370&#45;&gt;12371</title>
<path fill="none" stroke="black" d="M899.5,-332.32C899.5,-324.42 899.5,-316.13 899.5,-307.98"/>
<polygon fill="black" stroke="black" points="903,-308.12 899.5,-298.12 896,-308.12 903,-308.12"/>
</g>
<!-- 15844 -->
<g id="node25" class="node">
<title>15844</title>
<path fill="#ffffff" stroke="black" d="M1233.5,-296.5C1233.5,-296.5 1091.5,-296.5 1091.5,-296.5 1085.5,-296.5 1079.5,-290.5 1079.5,-284.5 1079.5,-284.5 1079.5,-214.25 1079.5,-214.25 1079.5,-208.25 1085.5,-202.25 1091.5,-202.25 1091.5,-202.25 1233.5,-202.25 1233.5,-202.25 1239.5,-202.25 1245.5,-208.25 1245.5,-214.25 1245.5,-214.25 1245.5,-284.5 1245.5,-284.5 1245.5,-290.5 1239.5,-296.5 1233.5,-296.5"/>
<text text-anchor="middle" x="1162.5" y="-279.2" font-family="Helvetica,sans-Serif" font-size="14.00">21_U &lt;= 0.5</text>
<text text-anchor="middle" x="1162.5" y="-261.95" font-family="Helvetica,sans-Serif" font-size="14.00">entropy = 1.0</text>
<text text-anchor="middle" x="1162.5" y="-244.7" font-family="Helvetica,sans-Serif" font-size="14.00">samples = 2844</text>
<text text-anchor="middle" x="1162.5" y="-227.45" font-family="Helvetica,sans-Serif" font-size="14.00">value = [2266, 2265]</text>
<text text-anchor="middle" x="1162.5" y="-210.2" font-family="Helvetica,sans-Serif" font-size="14.00">class = Animal</text>
</g>
<!-- 12370&#45;&gt;15844 -->
<g id="edge24" class="edge">
<title>12370&#45;&gt;15844</title>
<path fill="none" stroke="black" d="M987.44,-335.74C1013.66,-322.96 1042.48,-308.9 1069.04,-295.95"/>
<polygon fill="black" stroke="black" points="1070.28,-299.24 1077.73,-291.71 1067.21,-292.95 1070.28,-299.24"/>
</g>
<!-- 12372 -->
<g id="node19" class="node">
<title>12372</title>
<path fill="#f3c4a3" stroke="black" d="M891.5,-166.25C891.5,-166.25 749.5,-166.25 749.5,-166.25 743.5,-166.25 737.5,-160.25 737.5,-154.25 737.5,-154.25 737.5,-84 737.5,-84 737.5,-78 743.5,-72 749.5,-72 749.5,-72 891.5,-72 891.5,-72 897.5,-72 903.5,-78 903.5,-84 903.5,-84 903.5,-154.25 903.5,-154.25 903.5,-160.25 897.5,-166.25 891.5,-166.25"/>
<text text-anchor="middle" x="820.5" y="-148.95" font-family="Helvetica,sans-Serif" font-size="14.00">2_U &lt;= 0.5</text>
<text text-anchor="middle" x="820.5" y="-131.7" font-family="Helvetica,sans-Serif" font-size="14.00">entropy = 0.932</text>
<text text-anchor="middle" x="820.5" y="-114.45" font-family="Helvetica,sans-Serif" font-size="14.00">samples = 7483</text>
<text text-anchor="middle" x="820.5" y="-97.2" font-family="Helvetica,sans-Serif" font-size="14.00">value = [7701, 4105]</text>
<text text-anchor="middle" x="820.5" y="-79.95" font-family="Helvetica,sans-Serif" font-size="14.00">class = Animal</text>
</g>
<!-- 12371&#45;&gt;12372 -->
<g id="edge18" class="edge">
<title>12371&#45;&gt;12372</title>
<path fill="none" stroke="black" d="M870.98,-202.07C865.78,-193.63 860.3,-184.74 854.95,-176.05"/>
<polygon fill="black" stroke="black" points="858,-174.33 849.77,-167.65 852.04,-178 858,-174.33"/>
</g>
<!-- 15703 -->
<g id="node22" class="node">
<title>15703</title>
<path fill="#e89253" stroke="black" d="M1049,-166.25C1049,-166.25 934,-166.25 934,-166.25 928,-166.25 922,-160.25 922,-154.25 922,-154.25 922,-84 922,-84 922,-78 928,-72 934,-72 934,-72 1049,-72 1049,-72 1055,-72 1061,-78 1061,-84 1061,-84 1061,-154.25 1061,-154.25 1061,-160.25 1055,-166.25 1049,-166.25"/>
<text text-anchor="middle" x="991.5" y="-148.95" font-family="Helvetica,sans-Serif" font-size="14.00">11_U &lt;= 0.5</text>
<text text-anchor="middle" x="991.5" y="-131.7" font-family="Helvetica,sans-Serif" font-size="14.00">entropy = 0.52</text>
<text text-anchor="middle" x="991.5" y="-114.45" font-family="Helvetica,sans-Serif" font-size="14.00">samples = 447</text>
<text text-anchor="middle" x="991.5" y="-97.2" font-family="Helvetica,sans-Serif" font-size="14.00">value = [643, 85]</text>
<text text-anchor="middle" x="991.5" y="-79.95" font-family="Helvetica,sans-Serif" font-size="14.00">class = Animal</text>
</g>
<!-- 12371&#45;&gt;15703 -->
<g id="edge21" class="edge">
<title>12371&#45;&gt;15703</title>
<path fill="none" stroke="black" d="M932.71,-202.07C938.9,-193.45 945.43,-184.35 951.79,-175.49"/>
<polygon fill="black" stroke="black" points="954.47,-177.75 957.45,-167.59 948.78,-173.67 954.47,-177.75"/>
</g>
<!-- 12373 -->
<g id="node20" class="node">
<title>12373</title>
<path fill="#c0c0c0" stroke="black" d="M776.5,-36C776.5,-36 746.5,-36 746.5,-36 740.5,-36 734.5,-30 734.5,-24 734.5,-24 734.5,-12 734.5,-12 734.5,-6 740.5,0 746.5,0 746.5,0 776.5,0 776.5,0 782.5,0 788.5,-6 788.5,-12 788.5,-12 788.5,-24 788.5,-24 788.5,-30 782.5,-36 776.5,-36"/>
<text text-anchor="middle" x="761.5" y="-13.32" font-family="Helvetica,sans-Serif" font-size="14.00">(...)</text>
</g>
<!-- 12372&#45;&gt;12373 -->
<g id="edge19" class="edge">
<title>12372&#45;&gt;12373</title>
<path fill="none" stroke="black" d="M792.9,-71.75C787.65,-62.93 782.31,-53.96 777.56,-45.99"/>
<polygon fill="black" stroke="black" points="780.62,-44.28 772.5,-37.47 774.6,-47.86 780.62,-44.28"/>
</g>
<!-- 14804 -->
<g id="node21" class="node">
<title>14804</title>
<path fill="#c0c0c0" stroke="black" d="M848.5,-36C848.5,-36 818.5,-36 818.5,-36 812.5,-36 806.5,-30 806.5,-24 806.5,-24 806.5,-12 806.5,-12 806.5,-6 812.5,0 818.5,0 818.5,0 848.5,0 848.5,0 854.5,0 860.5,-6 860.5,-12 860.5,-12 860.5,-24 860.5,-24 860.5,-30 854.5,-36 848.5,-36"/>
<text text-anchor="middle" x="833.5" y="-13.32" font-family="Helvetica,sans-Serif" font-size="14.00">(...)</text>
</g>
<!-- 12372&#45;&gt;14804 -->
<g id="edge20" class="edge">
<title>12372&#45;&gt;14804</title>
<path fill="none" stroke="black" d="M826.58,-71.75C827.67,-63.42 828.78,-54.97 829.78,-47.34"/>
<polygon fill="black" stroke="black" points="833.22,-48.04 831.05,-37.67 826.28,-47.13 833.22,-48.04"/>
</g>
<!-- 15704 -->
<g id="node23" class="node">
<title>15704</title>
<path fill="#c0c0c0" stroke="black" d="M947.5,-36C947.5,-36 917.5,-36 917.5,-36 911.5,-36 905.5,-30 905.5,-24 905.5,-24 905.5,-12 905.5,-12 905.5,-6 911.5,0 917.5,0 917.5,0 947.5,0 947.5,0 953.5,0 959.5,-6 959.5,-12 959.5,-12 959.5,-24 959.5,-24 959.5,-30 953.5,-36 947.5,-36"/>
<text text-anchor="middle" x="932.5" y="-13.32" font-family="Helvetica,sans-Serif" font-size="14.00">(...)</text>
</g>
<!-- 15703&#45;&gt;15704 -->
<g id="edge22" class="edge">
<title>15703&#45;&gt;15704</title>
<path fill="none" stroke="black" d="M963.9,-71.75C958.65,-62.93 953.31,-53.96 948.56,-45.99"/>
<polygon fill="black" stroke="black" points="951.62,-44.28 943.5,-37.47 945.6,-47.86 951.62,-44.28"/>
</g>
<!-- 15789 -->
<g id="node24" class="node">
<title>15789</title>
<path fill="#c0c0c0" stroke="black" d="M1019.5,-36C1019.5,-36 989.5,-36 989.5,-36 983.5,-36 977.5,-30 977.5,-24 977.5,-24 977.5,-12 977.5,-12 977.5,-6 983.5,0 989.5,0 989.5,0 1019.5,0 1019.5,0 1025.5,0 1031.5,-6 1031.5,-12 1031.5,-12 1031.5,-24 1031.5,-24 1031.5,-30 1025.5,-36 1019.5,-36"/>
<text text-anchor="middle" x="1004.5" y="-13.32" font-family="Helvetica,sans-Serif" font-size="14.00">(...)</text>
</g>
<!-- 15703&#45;&gt;15789 -->
<g id="edge23" class="edge">
<title>15703&#45;&gt;15789</title>
<path fill="none" stroke="black" d="M997.58,-71.75C998.67,-63.42 999.78,-54.97 1000.78,-47.34"/>
<polygon fill="black" stroke="black" points="1004.22,-48.04 1002.05,-37.67 997.28,-47.13 1004.22,-48.04"/>
</g>
<!-- 15845 -->
<g id="node26" class="node">
<title>15845</title>
<path fill="#c8e4f8" stroke="black" d="M1233.5,-166.25C1233.5,-166.25 1091.5,-166.25 1091.5,-166.25 1085.5,-166.25 1079.5,-160.25 1079.5,-154.25 1079.5,-154.25 1079.5,-84 1079.5,-84 1079.5,-78 1085.5,-72 1091.5,-72 1091.5,-72 1233.5,-72 1233.5,-72 1239.5,-72 1245.5,-78 1245.5,-84 1245.5,-84 1245.5,-154.25 1245.5,-154.25 1245.5,-160.25 1239.5,-166.25 1233.5,-166.25"/>
<text text-anchor="middle" x="1162.5" y="-148.95" font-family="Helvetica,sans-Serif" font-size="14.00">16_A &lt;= 0.5</text>
<text text-anchor="middle" x="1162.5" y="-131.7" font-family="Helvetica,sans-Serif" font-size="14.00">entropy = 0.981</text>
<text text-anchor="middle" x="1162.5" y="-114.45" font-family="Helvetica,sans-Serif" font-size="14.00">samples = 2146</text>
<text text-anchor="middle" x="1162.5" y="-97.2" font-family="Helvetica,sans-Serif" font-size="14.00">value = [1436, 1987]</text>
<text text-anchor="middle" x="1162.5" y="-79.95" font-family="Helvetica,sans-Serif" font-size="14.00">class = Plant</text>
</g>
<!-- 15844&#45;&gt;15845 -->
<g id="edge25" class="edge">
<title>15844&#45;&gt;15845</title>
<path fill="none" stroke="black" d="M1162.5,-202.07C1162.5,-194.17 1162.5,-185.88 1162.5,-177.73"/>
<polygon fill="black" stroke="black" points="1166,-177.87 1162.5,-167.87 1159,-177.87 1166,-177.87"/>
</g>
<!-- 16810 -->
<g id="node29" class="node">
<title>16810</title>
<path fill="#eeab7b" stroke="black" d="M1399.5,-166.25C1399.5,-166.25 1275.5,-166.25 1275.5,-166.25 1269.5,-166.25 1263.5,-160.25 1263.5,-154.25 1263.5,-154.25 1263.5,-84 1263.5,-84 1263.5,-78 1269.5,-72 1275.5,-72 1275.5,-72 1399.5,-72 1399.5,-72 1405.5,-72 1411.5,-78 1411.5,-84 1411.5,-84 1411.5,-154.25 1411.5,-154.25 1411.5,-160.25 1405.5,-166.25 1399.5,-166.25"/>
<text text-anchor="middle" x="1337.5" y="-148.95" font-family="Helvetica,sans-Serif" font-size="14.00">23_G &lt;= 0.5</text>
<text text-anchor="middle" x="1337.5" y="-131.7" font-family="Helvetica,sans-Serif" font-size="14.00">entropy = 0.813</text>
<text text-anchor="middle" x="1337.5" y="-114.45" font-family="Helvetica,sans-Serif" font-size="14.00">samples = 698</text>
<text text-anchor="middle" x="1337.5" y="-97.2" font-family="Helvetica,sans-Serif" font-size="14.00">value = [830, 278]</text>
<text text-anchor="middle" x="1337.5" y="-79.95" font-family="Helvetica,sans-Serif" font-size="14.00">class = Animal</text>
</g>
<!-- 15844&#45;&gt;16810 -->
<g id="edge28" class="edge">
<title>15844&#45;&gt;16810</title>
<path fill="none" stroke="black" d="M1225.68,-202.07C1238.49,-192.69 1252.05,-182.75 1265.14,-173.15"/>
<polygon fill="black" stroke="black" points="1266.9,-176.2 1272.9,-167.47 1262.76,-170.56 1266.9,-176.2"/>
</g>
<!-- 15846 -->
<g id="node27" class="node">
<title>15846</title>
<path fill="#c0c0c0" stroke="black" d="M1138.5,-36C1138.5,-36 1108.5,-36 1108.5,-36 1102.5,-36 1096.5,-30 1096.5,-24 1096.5,-24 1096.5,-12 1096.5,-12 1096.5,-6 1102.5,0 1108.5,0 1108.5,0 1138.5,0 1138.5,0 1144.5,0 1150.5,-6 1150.5,-12 1150.5,-12 1150.5,-24 1150.5,-24 1150.5,-30 1144.5,-36 1138.5,-36"/>
<text text-anchor="middle" x="1123.5" y="-13.32" font-family="Helvetica,sans-Serif" font-size="14.00">(...)</text>
</g>
<!-- 15845&#45;&gt;15846 -->
<g id="edge26" class="edge">
<title>15845&#45;&gt;15846</title>
<path fill="none" stroke="black" d="M1144.26,-71.75C1140.9,-63.22 1137.49,-54.57 1134.44,-46.8"/>
<polygon fill="black" stroke="black" points="1137.73,-45.61 1130.81,-37.58 1131.21,-48.17 1137.73,-45.61"/>
</g>
<!-- 16575 -->
<g id="node28" class="node">
<title>16575</title>
<path fill="#c0c0c0" stroke="black" d="M1210.5,-36C1210.5,-36 1180.5,-36 1180.5,-36 1174.5,-36 1168.5,-30 1168.5,-24 1168.5,-24 1168.5,-12 1168.5,-12 1168.5,-6 1174.5,0 1180.5,0 1180.5,0 1210.5,0 1210.5,0 1216.5,0 1222.5,-6 1222.5,-12 1222.5,-12 1222.5,-24 1222.5,-24 1222.5,-30 1216.5,-36 1210.5,-36"/>
<text text-anchor="middle" x="1195.5" y="-13.32" font-family="Helvetica,sans-Serif" font-size="14.00">(...)</text>
</g>
<!-- 15845&#45;&gt;16575 -->
<g id="edge27" class="edge">
<title>15845&#45;&gt;16575</title>
<path fill="none" stroke="black" d="M1177.94,-71.75C1180.74,-63.32 1183.59,-54.77 1186.16,-47.07"/>
<polygon fill="black" stroke="black" points="1189.47,-48.2 1189.3,-37.61 1182.83,-45.99 1189.47,-48.2"/>
</g>
<!-- 16811 -->
<g id="node30" class="node">
<title>16811</title>
<path fill="#c0c0c0" stroke="black" d="M1316.5,-36C1316.5,-36 1286.5,-36 1286.5,-36 1280.5,-36 1274.5,-30 1274.5,-24 1274.5,-24 1274.5,-12 1274.5,-12 1274.5,-6 1280.5,0 1286.5,0 1286.5,0 1316.5,0 1316.5,0 1322.5,0 1328.5,-6 1328.5,-12 1328.5,-12 1328.5,-24 1328.5,-24 1328.5,-30 1322.5,-36 1316.5,-36"/>
<text text-anchor="middle" x="1301.5" y="-13.32" font-family="Helvetica,sans-Serif" font-size="14.00">(...)</text>
</g>
<!-- 16810&#45;&gt;16811 -->
<g id="edge29" class="edge">
<title>16810&#45;&gt;16811</title>
<path fill="none" stroke="black" d="M1320.66,-71.75C1317.56,-63.22 1314.42,-54.57 1311.6,-46.8"/>
<polygon fill="black" stroke="black" points="1314.96,-45.8 1308.25,-37.6 1308.38,-48.19 1314.96,-45.8"/>
</g>
<!-- 17090 -->
<g id="node31" class="node">
<title>17090</title>
<path fill="#c0c0c0" stroke="black" d="M1388.5,-36C1388.5,-36 1358.5,-36 1358.5,-36 1352.5,-36 1346.5,-30 1346.5,-24 1346.5,-24 1346.5,-12 1346.5,-12 1346.5,-6 1352.5,0 1358.5,0 1358.5,0 1388.5,0 1388.5,0 1394.5,0 1400.5,-6 1400.5,-12 1400.5,-12 1400.5,-24 1400.5,-24 1400.5,-30 1394.5,-36 1388.5,-36"/>
<text text-anchor="middle" x="1373.5" y="-13.32" font-family="Helvetica,sans-Serif" font-size="14.00">(...)</text>
</g>
<!-- 16810&#45;&gt;17090 -->
<g id="edge30" class="edge">
<title>16810&#45;&gt;17090</title>
<path fill="none" stroke="black" d="M1354.34,-71.75C1357.44,-63.22 1360.58,-54.57 1363.4,-46.8"/>
<polygon fill="black" stroke="black" points="1366.62,-48.19 1366.75,-37.6 1360.04,-45.8 1366.62,-48.19"/>
</g>
</g>
</svg>
