<?xml version="1.0" encoding="UTF-8" standalone="no"?>
<!DOCTYPE svg PUBLIC "-//W3C//DTD SVG 1.1//EN"
 "http://www.w3.org/Graphics/SVG/1.1/DTD/svg11.dtd">
<!-- Generated by graphviz version 12.0.0 (20240803.0821)
 -->
<!-- Title: Tree Pages: 1 -->
<svg width="1400pt" height="565pt"
 viewBox="0.00 0.00 1400.00 565.00" xmlns="http://www.w3.org/2000/svg" xmlns:xlink="http://www.w3.org/1999/xlink">
<g id="graph0" class="graph" transform="scale(1 1) rotate(0) translate(4 561)">
<title>Tree</title>
<polygon fill="white" stroke="none" points="-4,4 -4,-561 1396,-561 1396,4 -4,4"/>
<!-- 0 -->
<g id="node1" class="node">
<title>0</title>
<path fill="#fffefd" stroke="black" d="M784,-557C784,-557 624,-557 624,-557 618,-557 612,-551 612,-545 612,-545 612,-474.75 612,-474.75 612,-468.75 618,-462.75 624,-462.75 624,-462.75 784,-462.75 784,-462.75 790,-462.75 796,-468.75 796,-474.75 796,-474.75 796,-545 796,-545 796,-551 790,-557 784,-557"/>
<text text-anchor="middle" x="704" y="-539.7" font-family="Helvetica,sans-Serif" font-size="14.00">20_C &lt;= 0.5</text>
<text text-anchor="middle" x="704" y="-522.45" font-family="Helvetica,sans-Serif" font-size="14.00">entropy = 1.0</text>
<text text-anchor="middle" x="704" y="-505.2" font-family="Helvetica,sans-Serif" font-size="14.00">samples = 38048</text>
<text text-anchor="middle" x="704" y="-487.95" font-family="Helvetica,sans-Serif" font-size="14.00">value = [30352, 29993]</text>
<text text-anchor="middle" x="704" y="-470.7" font-family="Helvetica,sans-Serif" font-size="14.00">class = Animal</text>
</g>
<!-- 1 -->
<g id="node2" class="node">
<title>1</title>
<path fill="#fbeade" stroke="black" d="M623,-426.75C623,-426.75 463,-426.75 463,-426.75 457,-426.75 451,-420.75 451,-414.75 451,-414.75 451,-344.5 451,-344.5 451,-338.5 457,-332.5 463,-332.5 463,-332.5 623,-332.5 623,-332.5 629,-332.5 635,-338.5 635,-344.5 635,-344.5 635,-414.75 635,-414.75 635,-420.75 629,-426.75 623,-426.75"/>
<text text-anchor="middle" x="543" y="-409.45" font-family="Helvetica,sans-Serif" font-size="14.00">22_C &lt;= 0.5</text>
<text text-anchor="middle" x="543" y="-392.2" font-family="Helvetica,sans-Serif" font-size="14.00">entropy = 0.994</text>
<text text-anchor="middle" x="543" y="-374.95" font-family="Helvetica,sans-Serif" font-size="14.00">samples = 27967</text>
<text text-anchor="middle" x="543" y="-357.7" font-family="Helvetica,sans-Serif" font-size="14.00">value = [24125, 20141]</text>
<text text-anchor="middle" x="543" y="-340.45" font-family="Helvetica,sans-Serif" font-size="14.00">class = Animal</text>
</g>
<!-- 0&#45;&gt;1 -->
<g id="edge1" class="edge">
<title>0&#45;&gt;1</title>
<path fill="none" stroke="black" d="M645.88,-462.57C634.32,-453.37 622.1,-443.63 610.26,-434.21"/>
<polygon fill="black" stroke="black" points="612.5,-431.51 602.49,-428.02 608.13,-436.98 612.5,-431.51"/>
<text text-anchor="middle" x="604.12" y="-447.24" font-family="Helvetica,sans-Serif" font-size="14.00">True</text>
</g>
<!-- 12874 -->
<g id="node17" class="node">
<title>12874</title>
<path fill="#b6dbf5" stroke="black" d="M960,-426.75C960,-426.75 818,-426.75 818,-426.75 812,-426.75 806,-420.75 806,-414.75 806,-414.75 806,-344.5 806,-344.5 806,-338.5 812,-332.5 818,-332.5 818,-332.5 960,-332.5 960,-332.5 966,-332.5 972,-338.5 972,-344.5 972,-344.5 972,-414.75 972,-414.75 972,-420.75 966,-426.75 960,-426.75"/>
<text text-anchor="middle" x="889" y="-409.45" font-family="Helvetica,sans-Serif" font-size="14.00">22_C &lt;= 0.5</text>
<text text-anchor="middle" x="889" y="-392.2" font-family="Helvetica,sans-Serif" font-size="14.00">entropy = 0.963</text>
<text text-anchor="middle" x="889" y="-374.95" font-family="Helvetica,sans-Serif" font-size="14.00">samples = 10081</text>
<text text-anchor="middle" x="889" y="-357.7" font-family="Helvetica,sans-Serif" font-size="14.00">value = [6227, 9852]</text>
<text text-anchor="middle" x="889" y="-340.45" font-family="Helvetica,sans-Serif" font-size="14.00">class = Plant</text>
</g>
<!-- 0&#45;&gt;12874 -->
<g id="edge16" class="edge">
<title>0&#45;&gt;12874</title>
<path fill="none" stroke="black" d="M771.05,-462.39C784.49,-453.07 798.71,-443.22 812.45,-433.69"/>
<polygon fill="black" stroke="black" points="814.4,-436.6 820.62,-428.03 810.41,-430.85 814.4,-436.6"/>
<text text-anchor="middle" x="817.41" y="-447.09" font-family="Helvetica,sans-Serif" font-size="14.00">False</text>
</g>
<!-- 2 -->
<g id="node3" class="node">
<title>2</title>
<path fill="#fcf3ec" stroke="black" d="M365,-296.5C365,-296.5 205,-296.5 205,-296.5 199,-296.5 193,-290.5 193,-284.5 193,-284.5 193,-214.25 193,-214.25 193,-208.25 199,-202.25 205,-202.25 205,-202.25 365,-202.25 365,-202.25 371,-202.25 377,-208.25 377,-214.25 377,-214.25 377,-284.5 377,-284.5 377,-290.5 371,-296.5 365,-296.5"/>
<text text-anchor="middle" x="285" y="-279.2" font-family="Helvetica,sans-Serif" font-size="14.00">13_U &lt;= 0.5</text>
<text text-anchor="middle" x="285" y="-261.95" font-family="Helvetica,sans-Serif" font-size="14.00">entropy = 0.998</text>
<text text-anchor="middle" x="285" y="-244.7" font-family="Helvetica,sans-Serif" font-size="14.00">samples = 24946</text>
<text text-anchor="middle" x="285" y="-227.45" font-family="Helvetica,sans-Serif" font-size="14.00">value = [20804, 18788]</text>
<text text-anchor="middle" x="285" y="-210.2" font-family="Helvetica,sans-Serif" font-size="14.00">class = Animal</text>
</g>
<!-- 1&#45;&gt;2 -->
<g id="edge2" class="edge">
<title>1&#45;&gt;2</title>
<path fill="none" stroke="black" d="M450.58,-332.69C430.08,-322.49 408.24,-311.63 387.36,-301.26"/>
<polygon fill="black" stroke="black" points="389.07,-298.2 378.56,-296.88 385.96,-304.47 389.07,-298.2"/>
</g>
<!-- 11475 -->
<g id="node10" class="node">
<title>11475</title>
<path fill="#f0b48a" stroke="black" d="M614,-296.5C614,-296.5 472,-296.5 472,-296.5 466,-296.5 460,-290.5 460,-284.5 460,-284.5 460,-214.25 460,-214.25 460,-208.25 466,-202.25 472,-202.25 472,-202.25 614,-202.25 614,-202.25 620,-202.25 626,-208.25 626,-214.25 626,-214.25 626,-284.5 626,-284.5 626,-290.5 620,-296.5 614,-296.5"/>
<text text-anchor="middle" x="543" y="-279.2" font-family="Helvetica,sans-Serif" font-size="14.00">25_G &lt;= 0.5</text>
<text text-anchor="middle" x="543" y="-261.95" font-family="Helvetica,sans-Serif" font-size="14.00">entropy = 0.868</text>
<text text-anchor="middle" x="543" y="-244.7" font-family="Helvetica,sans-Serif" font-size="14.00">samples = 3021</text>
<text text-anchor="middle" x="543" y="-227.45" font-family="Helvetica,sans-Serif" font-size="14.00">value = [3321, 1353]</text>
<text text-anchor="middle" x="543" y="-210.2" font-family="Helvetica,sans-Serif" font-size="14.00">class = Animal</text>
</g>
<!-- 1&#45;&gt;11475 -->
<g id="edge9" class="edge">
<title>1&#45;&gt;11475</title>
<path fill="none" stroke="black" d="M543,-332.32C543,-324.42 543,-316.13 543,-307.98"/>
<polygon fill="black" stroke="black" points="546.5,-308.12 543,-298.12 539.5,-308.12 546.5,-308.12"/>
</g>
<!-- 3 -->
<g id="node4" class="node">
<title>3</title>
<path fill="#fffefd" stroke="black" d="M172,-166.25C172,-166.25 12,-166.25 12,-166.25 6,-166.25 0,-160.25 0,-154.25 0,-154.25 0,-84 0,-84 0,-78 6,-72 12,-72 12,-72 172,-72 172,-72 178,-72 184,-78 184,-84 184,-84 184,-154.25 184,-154.25 184,-160.25 178,-166.25 172,-166.25"/>
<text text-anchor="middle" x="92" y="-148.95" font-family="Helvetica,sans-Serif" font-size="14.00">22_A &lt;= 0.5</text>
<text text-anchor="middle" x="92" y="-131.7" font-family="Helvetica,sans-Serif" font-size="14.00">entropy = 1.0</text>
<text text-anchor="middle" x="92" y="-114.45" font-family="Helvetica,sans-Serif" font-size="14.00">samples = 18544</text>
<text text-anchor="middle" x="92" y="-97.2" font-family="Helvetica,sans-Serif" font-size="14.00">value = [14750, 14619]</text>
<text text-anchor="middle" x="92" y="-79.95" font-family="Helvetica,sans-Serif" font-size="14.00">class = Animal</text>
</g>
<!-- 2&#45;&gt;3 -->
<g id="edge3" class="edge">
<title>2&#45;&gt;3</title>
<path fill="none" stroke="black" d="M215.05,-201.89C200.89,-192.48 185.9,-182.53 171.45,-172.92"/>
<polygon fill="black" stroke="black" points="173.56,-170.12 163.3,-167.5 169.69,-175.95 173.56,-170.12"/>
</g>
<!-- 8184 -->
<g id="node7" class="node">
<title>8184</title>
<path fill="#f7d8c1" stroke="black" d="M356,-166.25C356,-166.25 214,-166.25 214,-166.25 208,-166.25 202,-160.25 202,-154.25 202,-154.25 202,-84 202,-84 202,-78 208,-72 214,-72 214,-72 356,-72 356,-72 362,-72 368,-78 368,-84 368,-84 368,-154.25 368,-154.25 368,-160.25 362,-166.25 356,-166.25"/>
<text text-anchor="middle" x="285" y="-148.95" font-family="Helvetica,sans-Serif" font-size="14.00">9_G &lt;= 0.5</text>
<text text-anchor="middle" x="285" y="-131.7" font-family="Helvetica,sans-Serif" font-size="14.00">entropy = 0.975</text>
<text text-anchor="middle" x="285" y="-114.45" font-family="Helvetica,sans-Serif" font-size="14.00">samples = 6402</text>
<text text-anchor="middle" x="285" y="-97.2" font-family="Helvetica,sans-Serif" font-size="14.00">value = [6054, 4169]</text>
<text text-anchor="middle" x="285" y="-79.95" font-family="Helvetica,sans-Serif" font-size="14.00">class = Animal</text>
</g>
<!-- 2&#45;&gt;8184 -->
<g id="edge6" class="edge">
<title>2&#45;&gt;8184</title>
<path fill="none" stroke="black" d="M285,-202.07C285,-194.17 285,-185.88 285,-177.73"/>
<polygon fill="black" stroke="black" points="288.5,-177.87 285,-167.87 281.5,-177.87 288.5,-177.87"/>
</g>
<!-- 4 -->
<g id="node5" class="node">
<title>4</title>
<path fill="#c0c0c0" stroke="black" d="M71,-36C71,-36 41,-36 41,-36 35,-36 29,-30 29,-24 29,-24 29,-12 29,-12 29,-6 35,0 41,0 41,0 71,0 71,0 77,0 83,-6 83,-12 83,-12 83,-24 83,-24 83,-30 77,-36 71,-36"/>
<text text-anchor="middle" x="56" y="-13.32" font-family="Helvetica,sans-Serif" font-size="14.00">(...)</text>
</g>
<!-- 3&#45;&gt;4 -->
<g id="edge4" class="edge">
<title>3&#45;&gt;4</title>
<path fill="none" stroke="black" d="M75.16,-71.75C72.06,-63.22 68.92,-54.57 66.1,-46.8"/>
<polygon fill="black" stroke="black" points="69.46,-45.8 62.75,-37.6 62.88,-48.19 69.46,-45.8"/>
</g>
<!-- 7033 -->
<g id="node6" class="node">
<title>7033</title>
<path fill="#c0c0c0" stroke="black" d="M143,-36C143,-36 113,-36 113,-36 107,-36 101,-30 101,-24 101,-24 101,-12 101,-12 101,-6 107,0 113,0 113,0 143,0 143,0 149,0 155,-6 155,-12 155,-12 155,-24 155,-24 155,-30 149,-36 143,-36"/>
<text text-anchor="middle" x="128" y="-13.32" font-family="Helvetica,sans-Serif" font-size="14.00">(...)</text>
</g>
<!-- 3&#45;&gt;7033 -->
<g id="edge5" class="edge">
<title>3&#45;&gt;7033</title>
<path fill="none" stroke="black" d="M108.84,-71.75C111.94,-63.22 115.08,-54.57 117.9,-46.8"/>
<polygon fill="black" stroke="black" points="121.12,-48.19 121.25,-37.6 114.54,-45.8 121.12,-48.19"/>
</g>
<!-- 8185 -->
<g id="node8" class="node">
<title>8185</title>
<path fill="#c0c0c0" stroke="black" d="M259,-36C259,-36 229,-36 229,-36 223,-36 217,-30 217,-24 217,-24 217,-12 217,-12 217,-6 223,0 229,0 229,0 259,0 259,0 265,0 271,-6 271,-12 271,-12 271,-24 271,-24 271,-30 265,-36 259,-36"/>
<text text-anchor="middle" x="244" y="-13.32" font-family="Helvetica,sans-Serif" font-size="14.00">(...)</text>
</g>
<!-- 8184&#45;&gt;8185 -->
<g id="edge7" class="edge">
<title>8184&#45;&gt;8185</title>
<path fill="none" stroke="black" d="M265.82,-71.75C262.29,-63.22 258.71,-54.57 255.5,-46.8"/>
<polygon fill="black" stroke="black" points="258.74,-45.47 251.68,-37.57 252.27,-48.15 258.74,-45.47"/>
</g>
<!-- 10582 -->
<g id="node9" class="node">
<title>10582</title>
<path fill="#c0c0c0" stroke="black" d="M331,-36C331,-36 301,-36 301,-36 295,-36 289,-30 289,-24 289,-24 289,-12 289,-12 289,-6 295,0 301,0 301,0 331,0 331,0 337,0 343,-6 343,-12 343,-12 343,-24 343,-24 343,-30 337,-36 331,-36"/>
<text text-anchor="middle" x="316" y="-13.32" font-family="Helvetica,sans-Serif" font-size="14.00">(...)</text>
</g>
<!-- 8184&#45;&gt;10582 -->
<g id="edge8" class="edge">
<title>8184&#45;&gt;10582</title>
<path fill="none" stroke="black" d="M299.5,-71.75C302.14,-63.32 304.81,-54.77 307.22,-47.07"/>
<polygon fill="black" stroke="black" points="310.53,-48.21 310.18,-37.62 303.85,-46.12 310.53,-48.21"/>
</g>
<!-- 11476 -->
<g id="node11" class="node">
<title>11476</title>
<path fill="#efb489" stroke="black" d="M540,-166.25C540,-166.25 398,-166.25 398,-166.25 392,-166.25 386,-160.25 386,-154.25 386,-154.25 386,-84 386,-84 386,-78 392,-72 398,-72 398,-72 540,-72 540,-72 546,-72 552,-78 552,-84 552,-84 552,-154.25 552,-154.25 552,-160.25 546,-166.25 540,-166.25"/>
<text text-anchor="middle" x="469" y="-148.95" font-family="Helvetica,sans-Serif" font-size="14.00">1_A &lt;= 0.5</text>
<text text-anchor="middle" x="469" y="-131.7" font-family="Helvetica,sans-Serif" font-size="14.00">entropy = 0.864</text>
<text text-anchor="middle" x="469" y="-114.45" font-family="Helvetica,sans-Serif" font-size="14.00">samples = 2976</text>
<text text-anchor="middle" x="469" y="-97.2" font-family="Helvetica,sans-Serif" font-size="14.00">value = [3286, 1320]</text>
<text text-anchor="middle" x="469" y="-79.95" font-family="Helvetica,sans-Serif" font-size="14.00">class = Animal</text>
</g>
<!-- 11475&#45;&gt;11476 -->
<g id="edge10" class="edge">
<title>11475&#45;&gt;11476</title>
<path fill="none" stroke="black" d="M516.28,-202.07C511.46,-193.72 506.39,-184.93 501.43,-176.33"/>
<polygon fill="black" stroke="black" points="504.46,-174.58 496.43,-167.67 498.4,-178.08 504.46,-174.58"/>
</g>
<!-- 12849 -->
<g id="node14" class="node">
<title>12849</title>
<path fill="#fef8f4" stroke="black" d="M688.38,-166.25C688.38,-166.25 581.62,-166.25 581.62,-166.25 575.62,-166.25 569.62,-160.25 569.62,-154.25 569.62,-154.25 569.62,-84 569.62,-84 569.62,-78 575.62,-72 581.62,-72 581.62,-72 688.38,-72 688.38,-72 694.38,-72 700.38,-78 700.38,-84 700.38,-84 700.38,-154.25 700.38,-154.25 700.38,-160.25 694.38,-166.25 688.38,-166.25"/>
<text text-anchor="middle" x="635" y="-148.95" font-family="Helvetica,sans-Serif" font-size="14.00">14_G &lt;= 0.5</text>
<text text-anchor="middle" x="635" y="-131.7" font-family="Helvetica,sans-Serif" font-size="14.00">entropy = 0.999</text>
<text text-anchor="middle" x="635" y="-114.45" font-family="Helvetica,sans-Serif" font-size="14.00">samples = 45</text>
<text text-anchor="middle" x="635" y="-97.2" font-family="Helvetica,sans-Serif" font-size="14.00">value = [35, 33]</text>
<text text-anchor="middle" x="635" y="-79.95" font-family="Helvetica,sans-Serif" font-size="14.00">class = Animal</text>
</g>
<!-- 11475&#45;&gt;12849 -->
<g id="edge13" class="edge">
<title>11475&#45;&gt;12849</title>
<path fill="none" stroke="black" d="M576.21,-202.07C582.4,-193.45 588.93,-184.35 595.29,-175.49"/>
<polygon fill="black" stroke="black" points="597.97,-177.75 600.95,-167.59 592.28,-173.67 597.97,-177.75"/>
</g>
<!-- 11477 -->
<g id="node12" class="node">
<title>11477</title>
<path fill="#c0c0c0" stroke="black" d="M423,-36C423,-36 393,-36 393,-36 387,-36 381,-30 381,-24 381,-24 381,-12 381,-12 381,-6 387,0 393,0 393,0 423,0 423,0 429,0 435,-6 435,-12 435,-12 435,-24 435,-24 435,-30 429,-36 423,-36"/>
<text text-anchor="middle" x="408" y="-13.32" font-family="Helvetica,sans-Serif" font-size="14.00">(...)</text>
</g>
<!-- 11476&#45;&gt;11477 -->
<g id="edge11" class="edge">
<title>11476&#45;&gt;11477</title>
<path fill="none" stroke="black" d="M440.46,-71.75C434.97,-62.83 429.39,-53.76 424.44,-45.72"/>
<polygon fill="black" stroke="black" points="427.58,-44.14 419.36,-37.46 421.62,-47.81 427.58,-44.14"/>
</g>
<!-- 12594 -->
<g id="node13" class="node">
<title>12594</title>
<path fill="#c0c0c0" stroke="black" d="M495,-36C495,-36 465,-36 465,-36 459,-36 453,-30 453,-24 453,-24 453,-12 453,-12 453,-6 459,0 465,0 465,0 495,0 495,0 501,0 507,-6 507,-12 507,-12 507,-24 507,-24 507,-30 501,-36 495,-36"/>
<text text-anchor="middle" x="480" y="-13.32" font-family="Helvetica,sans-Serif" font-size="14.00">(...)</text>
</g>
<!-- 11476&#45;&gt;12594 -->
<g id="edge12" class="edge">
<title>11476&#45;&gt;12594</title>
<path fill="none" stroke="black" d="M474.15,-71.75C475.06,-63.52 475.99,-55.17 476.82,-47.61"/>
<polygon fill="black" stroke="black" points="480.3,-48 477.93,-37.68 473.35,-47.23 480.3,-48"/>
</g>
<!-- 12850 -->
<g id="node15" class="node">
<title>12850</title>
<path fill="#c0c0c0" stroke="black" d="M589,-36C589,-36 559,-36 559,-36 553,-36 547,-30 547,-24 547,-24 547,-12 547,-12 547,-6 553,0 559,0 559,0 589,0 589,0 595,0 601,-6 601,-12 601,-12 601,-24 601,-24 601,-30 595,-36 589,-36"/>
<text text-anchor="middle" x="574" y="-13.32" font-family="Helvetica,sans-Serif" font-size="14.00">(...)</text>
</g>
<!-- 12849&#45;&gt;12850 -->
<g id="edge14" class="edge">
<title>12849&#45;&gt;12850</title>
<path fill="none" stroke="black" d="M606.46,-71.75C600.97,-62.83 595.39,-53.76 590.44,-45.72"/>
<polygon fill="black" stroke="black" points="593.58,-44.14 585.36,-37.46 587.62,-47.81 593.58,-44.14"/>
</g>
<!-- 12865 -->
<g id="node16" class="node">
<title>12865</title>
<path fill="#c0c0c0" stroke="black" d="M661,-36C661,-36 631,-36 631,-36 625,-36 619,-30 619,-24 619,-24 619,-12 619,-12 619,-6 625,0 631,0 631,0 661,0 661,0 667,0 673,-6 673,-12 673,-12 673,-24 673,-24 673,-30 667,-36 661,-36"/>
<text text-anchor="middle" x="646" y="-13.32" font-family="Helvetica,sans-Serif" font-size="14.00">(...)</text>
</g>
<!-- 12849&#45;&gt;12865 -->
<g id="edge15" class="edge">
<title>12849&#45;&gt;12865</title>
<path fill="none" stroke="black" d="M640.15,-71.75C641.06,-63.52 641.99,-55.17 642.82,-47.61"/>
<polygon fill="black" stroke="black" points="646.3,-48 643.93,-37.68 639.35,-47.23 646.3,-48"/>
</g>
<!-- 12875 -->
<g id="node18" class="node">
<title>12875</title>
<path fill="#a9d5f4" stroke="black" d="M960,-296.5C960,-296.5 818,-296.5 818,-296.5 812,-296.5 806,-290.5 806,-284.5 806,-284.5 806,-214.25 806,-214.25 806,-208.25 812,-202.25 818,-202.25 818,-202.25 960,-202.25 960,-202.25 966,-202.25 972,-208.25 972,-214.25 972,-214.25 972,-284.5 972,-284.5 972,-290.5 966,-296.5 960,-296.5"/>
<text text-anchor="middle" x="889" y="-279.2" font-family="Helvetica,sans-Serif" font-size="14.00">22_G &lt;= 0.5</text>
<text text-anchor="middle" x="889" y="-261.95" font-family="Helvetica,sans-Serif" font-size="14.00">entropy = 0.945</text>
<text text-anchor="middle" x="889" y="-244.7" font-family="Helvetica,sans-Serif" font-size="14.00">samples = 9319</text>
<text text-anchor="middle" x="889" y="-227.45" font-family="Helvetica,sans-Serif" font-size="14.00">value = [5381, 9474]</text>
<text text-anchor="middle" x="889" y="-210.2" font-family="Helvetica,sans-Serif" font-size="14.00">class = Plant</text>
</g>
<!-- 12874&#45;&gt;12875 -->
<g id="edge17" class="edge">
<title>12874&#45;&gt;12875</title>
<path fill="none" stroke="black" d="M889,-332.32C889,-324.42 889,-316.13 889,-307.98"/>
<polygon fill="black" stroke="black" points="892.5,-308.12 889,-298.12 885.5,-308.12 892.5,-308.12"/>
</g>
<!-- 16384 -->
<g id="node25" class="node">
<title>16384</title>
<path fill="#f1b991" stroke="black" d="M1214,-296.5C1214,-296.5 1090,-296.5 1090,-296.5 1084,-296.5 1078,-290.5 1078,-284.5 1078,-284.5 1078,-214.25 1078,-214.25 1078,-208.25 1084,-202.25 1090,-202.25 1090,-202.25 1214,-202.25 1214,-202.25 1220,-202.25 1226,-208.25 1226,-214.25 1226,-214.25 1226,-284.5 1226,-284.5 1226,-290.5 1220,-296.5 1214,-296.5"/>
<text text-anchor="middle" x="1152" y="-279.2" font-family="Helvetica,sans-Serif" font-size="14.00">1_U &lt;= 0.5</text>
<text text-anchor="middle" x="1152" y="-261.95" font-family="Helvetica,sans-Serif" font-size="14.00">entropy = 0.892</text>
<text text-anchor="middle" x="1152" y="-244.7" font-family="Helvetica,sans-Serif" font-size="14.00">samples = 762</text>
<text text-anchor="middle" x="1152" y="-227.45" font-family="Helvetica,sans-Serif" font-size="14.00">value = [846, 378]</text>
<text text-anchor="middle" x="1152" y="-210.2" font-family="Helvetica,sans-Serif" font-size="14.00">class = Animal</text>
</g>
<!-- 12874&#45;&gt;16384 -->
<g id="edge24" class="edge">
<title>12874&#45;&gt;16384</title>
<path fill="none" stroke="black" d="M972.21,-338.05C1002.64,-323.21 1037.06,-306.42 1067.59,-291.54"/>
<polygon fill="black" stroke="black" points="1068.96,-294.76 1076.42,-287.23 1065.89,-288.47 1068.96,-294.76"/>
</g>
<!-- 12876 -->
<g id="node19" class="node">
<title>12876</title>
<path fill="#91c8f0" stroke="black" d="M872,-166.25C872,-166.25 730,-166.25 730,-166.25 724,-166.25 718,-160.25 718,-154.25 718,-154.25 718,-84 718,-84 718,-78 724,-72 730,-72 730,-72 872,-72 872,-72 878,-72 884,-78 884,-84 884,-84 884,-154.25 884,-154.25 884,-160.25 878,-166.25 872,-166.25"/>
<text text-anchor="middle" x="801" y="-148.95" font-family="Helvetica,sans-Serif" font-size="14.00">19_U &lt;= 0.5</text>
<text text-anchor="middle" x="801" y="-131.7" font-family="Helvetica,sans-Serif" font-size="14.00">entropy = 0.889</text>
<text text-anchor="middle" x="801" y="-114.45" font-family="Helvetica,sans-Serif" font-size="14.00">samples = 8059</text>
<text text-anchor="middle" x="801" y="-97.2" font-family="Helvetica,sans-Serif" font-size="14.00">value = [3943, 8917]</text>
<text text-anchor="middle" x="801" y="-79.95" font-family="Helvetica,sans-Serif" font-size="14.00">class = Plant</text>
</g>
<!-- 12875&#45;&gt;12876 -->
<g id="edge18" class="edge">
<title>12875&#45;&gt;12876</title>
<path fill="none" stroke="black" d="M857.23,-202.07C851.37,-193.54 845.2,-184.54 839.18,-175.77"/>
<polygon fill="black" stroke="black" points="842.12,-173.87 833.58,-167.61 836.35,-177.83 842.12,-173.87"/>
</g>
<!-- 15871 -->
<g id="node22" class="node">
<title>15871</title>
<path fill="#efb286" stroke="black" d="M1047.5,-166.25C1047.5,-166.25 914.5,-166.25 914.5,-166.25 908.5,-166.25 902.5,-160.25 902.5,-154.25 902.5,-154.25 902.5,-84 902.5,-84 902.5,-78 908.5,-72 914.5,-72 914.5,-72 1047.5,-72 1047.5,-72 1053.5,-72 1059.5,-78 1059.5,-84 1059.5,-84 1059.5,-154.25 1059.5,-154.25 1059.5,-160.25 1053.5,-166.25 1047.5,-166.25"/>
<text text-anchor="middle" x="981" y="-148.95" font-family="Helvetica,sans-Serif" font-size="14.00">27_U &lt;= 0.5</text>
<text text-anchor="middle" x="981" y="-131.7" font-family="Helvetica,sans-Serif" font-size="14.00">entropy = 0.854</text>
<text text-anchor="middle" x="981" y="-114.45" font-family="Helvetica,sans-Serif" font-size="14.00">samples = 1260</text>
<text text-anchor="middle" x="981" y="-97.2" font-family="Helvetica,sans-Serif" font-size="14.00">value = [1438, 557]</text>
<text text-anchor="middle" x="981" y="-79.95" font-family="Helvetica,sans-Serif" font-size="14.00">class = Animal</text>
</g>
<!-- 12875&#45;&gt;15871 -->
<g id="edge21" class="edge">
<title>12875&#45;&gt;15871</title>
<path fill="none" stroke="black" d="M922.21,-202.07C928.4,-193.45 934.93,-184.35 941.29,-175.49"/>
<polygon fill="black" stroke="black" points="943.97,-177.75 946.95,-167.59 938.28,-173.67 943.97,-177.75"/>
</g>
<!-- 12877 -->
<g id="node20" class="node">
<title>12877</title>
<path fill="#c0c0c0" stroke="black" d="M762,-36C762,-36 732,-36 732,-36 726,-36 720,-30 720,-24 720,-24 720,-12 720,-12 720,-6 726,0 732,0 732,0 762,0 762,0 768,0 774,-6 774,-12 774,-12 774,-24 774,-24 774,-30 768,-36 762,-36"/>
<text text-anchor="middle" x="747" y="-13.32" font-family="Helvetica,sans-Serif" font-size="14.00">(...)</text>
</g>
<!-- 12876&#45;&gt;12877 -->
<g id="edge19" class="edge">
<title>12876&#45;&gt;12877</title>
<path fill="none" stroke="black" d="M775.74,-71.75C770.98,-63.03 766.16,-54.16 761.85,-46.26"/>
<polygon fill="black" stroke="black" points="764.94,-44.61 757.08,-37.5 758.79,-47.96 764.94,-44.61"/>
</g>
<!-- 15004 -->
<g id="node21" class="node">
<title>15004</title>
<path fill="#c0c0c0" stroke="black" d="M834,-36C834,-36 804,-36 804,-36 798,-36 792,-30 792,-24 792,-24 792,-12 792,-12 792,-6 798,0 804,0 804,0 834,0 834,0 840,0 846,-6 846,-12 846,-12 846,-24 846,-24 846,-30 840,-36 834,-36"/>
<text text-anchor="middle" x="819" y="-13.32" font-family="Helvetica,sans-Serif" font-size="14.00">(...)</text>
</g>
<!-- 12876&#45;&gt;15004 -->
<g id="edge20" class="edge">
<title>12876&#45;&gt;15004</title>
<path fill="none" stroke="black" d="M809.42,-71.75C810.93,-63.42 812.47,-54.97 813.85,-47.34"/>
<polygon fill="black" stroke="black" points="817.27,-48.13 815.61,-37.66 810.38,-46.88 817.27,-48.13"/>
</g>
<!-- 15872 -->
<g id="node23" class="node">
<title>15872</title>
<path fill="#c0c0c0" stroke="black" d="M937,-36C937,-36 907,-36 907,-36 901,-36 895,-30 895,-24 895,-24 895,-12 895,-12 895,-6 901,0 907,0 907,0 937,0 937,0 943,0 949,-6 949,-12 949,-12 949,-24 949,-24 949,-30 943,-36 937,-36"/>
<text text-anchor="middle" x="922" y="-13.32" font-family="Helvetica,sans-Serif" font-size="14.00">(...)</text>
</g>
<!-- 15871&#45;&gt;15872 -->
<g id="edge22" class="edge">
<title>15871&#45;&gt;15872</title>
<path fill="none" stroke="black" d="M953.4,-71.75C948.15,-62.93 942.81,-53.96 938.06,-45.99"/>
<polygon fill="black" stroke="black" points="941.12,-44.28 933,-37.47 935.1,-47.86 941.12,-44.28"/>
</g>
<!-- 16383 -->
<g id="node24" class="node">
<title>16383</title>
<path fill="#c0c0c0" stroke="black" d="M1009,-36C1009,-36 979,-36 979,-36 973,-36 967,-30 967,-24 967,-24 967,-12 967,-12 967,-6 973,0 979,0 979,0 1009,0 1009,0 1015,0 1021,-6 1021,-12 1021,-12 1021,-24 1021,-24 1021,-30 1015,-36 1009,-36"/>
<text text-anchor="middle" x="994" y="-13.32" font-family="Helvetica,sans-Serif" font-size="14.00">(...)</text>
</g>
<!-- 15871&#45;&gt;16383 -->
<g id="edge23" class="edge">
<title>15871&#45;&gt;16383</title>
<path fill="none" stroke="black" d="M987.08,-71.75C988.17,-63.42 989.28,-54.97 990.28,-47.34"/>
<polygon fill="black" stroke="black" points="993.72,-48.04 991.55,-37.67 986.78,-47.13 993.72,-48.04"/>
</g>
<!-- 16385 -->
<g id="node26" class="node">
<title>16385</title>
<path fill="#eca471" stroke="black" d="M1214,-166.25C1214,-166.25 1090,-166.25 1090,-166.25 1084,-166.25 1078,-160.25 1078,-154.25 1078,-154.25 1078,-84 1078,-84 1078,-78 1084,-72 1090,-72 1090,-72 1214,-72 1214,-72 1220,-72 1226,-78 1226,-84 1226,-84 1226,-154.25 1226,-154.25 1226,-160.25 1220,-166.25 1214,-166.25"/>
<text text-anchor="middle" x="1152" y="-148.95" font-family="Helvetica,sans-Serif" font-size="14.00">15_G &lt;= 0.5</text>
<text text-anchor="middle" x="1152" y="-131.7" font-family="Helvetica,sans-Serif" font-size="14.00">entropy = 0.76</text>
<text text-anchor="middle" x="1152" y="-114.45" font-family="Helvetica,sans-Serif" font-size="14.00">samples = 379</text>
<text text-anchor="middle" x="1152" y="-97.2" font-family="Helvetica,sans-Serif" font-size="14.00">value = [483, 136]</text>
<text text-anchor="middle" x="1152" y="-79.95" font-family="Helvetica,sans-Serif" font-size="14.00">class = Animal</text>
</g>
<!-- 16384&#45;&gt;16385 -->
<g id="edge25" class="edge">
<title>16384&#45;&gt;16385</title>
<path fill="none" stroke="black" d="M1152,-202.07C1152,-194.17 1152,-185.88 1152,-177.73"/>
<polygon fill="black" stroke="black" points="1155.5,-177.87 1152,-167.87 1148.5,-177.87 1155.5,-177.87"/>
</g>
<!-- 16592 -->
<g id="node29" class="node">
<title>16592</title>
<path fill="#f6d5bd" stroke="black" d="M1380,-166.25C1380,-166.25 1256,-166.25 1256,-166.25 1250,-166.25 1244,-160.25 1244,-154.25 1244,-154.25 1244,-84 1244,-84 1244,-78 1250,-72 1256,-72 1256,-72 1380,-72 1380,-72 1386,-72 1392,-78 1392,-84 1392,-84 1392,-154.25 1392,-154.25 1392,-160.25 1386,-166.25 1380,-166.25"/>
<text text-anchor="middle" x="1318" y="-148.95" font-family="Helvetica,sans-Serif" font-size="14.00">10_C &lt;= 0.5</text>
<text text-anchor="middle" x="1318" y="-131.7" font-family="Helvetica,sans-Serif" font-size="14.00">entropy = 0.971</text>
<text text-anchor="middle" x="1318" y="-114.45" font-family="Helvetica,sans-Serif" font-size="14.00">samples = 383</text>
<text text-anchor="middle" x="1318" y="-97.2" font-family="Helvetica,sans-Serif" font-size="14.00">value = [363, 242]</text>
<text text-anchor="middle" x="1318" y="-79.95" font-family="Helvetica,sans-Serif" font-size="14.00">class = Animal</text>
</g>
<!-- 16384&#45;&gt;16592 -->
<g id="edge28" class="edge">
<title>16384&#45;&gt;16592</title>
<path fill="none" stroke="black" d="M1211.93,-202.07C1223.96,-192.78 1236.7,-182.94 1249.01,-173.43"/>
<polygon fill="black" stroke="black" points="1250.91,-176.38 1256.68,-167.5 1246.63,-170.84 1250.91,-176.38"/>
</g>
<!-- 16386 -->
<g id="node27" class="node">
<title>16386</title>
<path fill="#c0c0c0" stroke="black" d="M1124,-36C1124,-36 1094,-36 1094,-36 1088,-36 1082,-30 1082,-24 1082,-24 1082,-12 1082,-12 1082,-6 1088,0 1094,0 1094,0 1124,0 1124,0 1130,0 1136,-6 1136,-12 1136,-12 1136,-24 1136,-24 1136,-30 1130,-36 1124,-36"/>
<text text-anchor="middle" x="1109" y="-13.32" font-family="Helvetica,sans-Serif" font-size="14.00">(...)</text>
</g>
<!-- 16385&#45;&gt;16386 -->
<g id="edge26" class="edge">
<title>16385&#45;&gt;16386</title>
<path fill="none" stroke="black" d="M1131.88,-71.75C1128.14,-63.12 1124.34,-54.36 1120.94,-46.53"/>
<polygon fill="black" stroke="black" points="1124.24,-45.34 1117.05,-37.56 1117.82,-48.13 1124.24,-45.34"/>
</g>
<!-- 16541 -->
<g id="node28" class="node">
<title>16541</title>
<path fill="#c0c0c0" stroke="black" d="M1196,-36C1196,-36 1166,-36 1166,-36 1160,-36 1154,-30 1154,-24 1154,-24 1154,-12 1154,-12 1154,-6 1160,0 1166,0 1166,0 1196,0 1196,0 1202,0 1208,-6 1208,-12 1208,-12 1208,-24 1208,-24 1208,-30 1202,-36 1196,-36"/>
<text text-anchor="middle" x="1181" y="-13.32" font-family="Helvetica,sans-Serif" font-size="14.00">(...)</text>
</g>
<!-- 16385&#45;&gt;16541 -->
<g id="edge27" class="edge">
<title>16385&#45;&gt;16541</title>
<path fill="none" stroke="black" d="M1165.57,-71.75C1168.03,-63.32 1170.54,-54.77 1172.79,-47.07"/>
<polygon fill="black" stroke="black" points="1176.1,-48.21 1175.55,-37.63 1169.38,-46.24 1176.1,-48.21"/>
</g>
<!-- 16593 -->
<g id="node30" class="node">
<title>16593</title>
<path fill="#c0c0c0" stroke="black" d="M1297,-36C1297,-36 1267,-36 1267,-36 1261,-36 1255,-30 1255,-24 1255,-24 1255,-12 1255,-12 1255,-6 1261,0 1267,0 1267,0 1297,0 1297,0 1303,0 1309,-6 1309,-12 1309,-12 1309,-24 1309,-24 1309,-30 1303,-36 1297,-36"/>
<text text-anchor="middle" x="1282" y="-13.32" font-family="Helvetica,sans-Serif" font-size="14.00">(...)</text>
</g>
<!-- 16592&#45;&gt;16593 -->
<g id="edge29" class="edge">
<title>16592&#45;&gt;16593</title>
<path fill="none" stroke="black" d="M1301.16,-71.75C1298.06,-63.22 1294.92,-54.57 1292.1,-46.8"/>
<polygon fill="black" stroke="black" points="1295.46,-45.8 1288.75,-37.6 1288.88,-48.19 1295.46,-45.8"/>
</g>
<!-- 16738 -->
<g id="node31" class="node">
<title>16738</title>
<path fill="#c0c0c0" stroke="black" d="M1369,-36C1369,-36 1339,-36 1339,-36 1333,-36 1327,-30 1327,-24 1327,-24 1327,-12 1327,-12 1327,-6 1333,0 1339,0 1339,0 1369,0 1369,0 1375,0 1381,-6 1381,-12 1381,-12 1381,-24 1381,-24 1381,-30 1375,-36 1369,-36"/>
<text text-anchor="middle" x="1354" y="-13.32" font-family="Helvetica,sans-Serif" font-size="14.00">(...)</text>
</g>
<!-- 16592&#45;&gt;16738 -->
<g id="edge30" class="edge">
<title>16592&#45;&gt;16738</title>
<path fill="none" stroke="black" d="M1334.84,-71.75C1337.94,-63.22 1341.08,-54.57 1343.9,-46.8"/>
<polygon fill="black" stroke="black" points="1347.12,-48.19 1347.25,-37.6 1340.54,-45.8 1347.12,-48.19"/>
</g>
</g>
</svg>
