<?xml version="1.0" encoding="UTF-8" standalone="no"?>
<!DOCTYPE svg PUBLIC "-//W3C//DTD SVG 1.1//EN"
 "http://www.w3.org/Graphics/SVG/1.1/DTD/svg11.dtd">
<!-- Generated by graphviz version 12.0.0 (20240803.0821)
 -->
<!-- Title: Tree Pages: 1 -->
<svg width="1384pt" height="565pt"
 viewBox="0.00 0.00 1383.50 565.00" xmlns="http://www.w3.org/2000/svg" xmlns:xlink="http://www.w3.org/1999/xlink">
<g id="graph0" class="graph" transform="scale(1 1) rotate(0) translate(4 561)">
<title>Tree</title>
<polygon fill="white" stroke="none" points="-4,4 -4,-561 1379.5,-561 1379.5,4 -4,4"/>
<!-- 0 -->
<g id="node1" class="node">
<title>0</title>
<path fill="#fffefe" stroke="black" d="M801,-557C801,-557 641,-557 641,-557 635,-557 629,-551 629,-545 629,-545 629,-474.75 629,-474.75 629,-468.75 635,-462.75 641,-462.75 641,-462.75 801,-462.75 801,-462.75 807,-462.75 813,-468.75 813,-474.75 813,-474.75 813,-545 813,-545 813,-551 807,-557 801,-557"/>
<text text-anchor="middle" x="721" y="-539.7" font-family="Helvetica,sans-Serif" font-size="14.00">23_U &lt;= 0.5</text>
<text text-anchor="middle" x="721" y="-522.45" font-family="Helvetica,sans-Serif" font-size="14.00">entropy = 1.0</text>
<text text-anchor="middle" x="721" y="-505.2" font-family="Helvetica,sans-Serif" font-size="14.00">samples = 38157</text>
<text text-anchor="middle" x="721" y="-487.95" font-family="Helvetica,sans-Serif" font-size="14.00">value = [30283, 30062]</text>
<text text-anchor="middle" x="721" y="-470.7" font-family="Helvetica,sans-Serif" font-size="14.00">class = Animal</text>
</g>
<!-- 1 -->
<g id="node2" class="node">
<title>1</title>
<path fill="#f2f9fd" stroke="black" d="M633,-426.75C633,-426.75 473,-426.75 473,-426.75 467,-426.75 461,-420.75 461,-414.75 461,-414.75 461,-344.5 461,-344.5 461,-338.5 467,-332.5 473,-332.5 473,-332.5 633,-332.5 633,-332.5 639,-332.5 645,-338.5 645,-344.5 645,-344.5 645,-414.75 645,-414.75 645,-420.75 639,-426.75 633,-426.75"/>
<text text-anchor="middle" x="553" y="-409.45" font-family="Helvetica,sans-Serif" font-size="14.00">23_G &lt;= 0.5</text>
<text text-anchor="middle" x="553" y="-392.2" font-family="Helvetica,sans-Serif" font-size="14.00">entropy = 0.999</text>
<text text-anchor="middle" x="553" y="-374.95" font-family="Helvetica,sans-Serif" font-size="14.00">samples = 36164</text>
<text text-anchor="middle" x="553" y="-357.7" font-family="Helvetica,sans-Serif" font-size="14.00">value = [27652, 29550]</text>
<text text-anchor="middle" x="553" y="-340.45" font-family="Helvetica,sans-Serif" font-size="14.00">class = Plant</text>
</g>
<!-- 0&#45;&gt;1 -->
<g id="edge1" class="edge">
<title>0&#45;&gt;1</title>
<path fill="none" stroke="black" d="M660.35,-462.57C648.17,-453.28 635.28,-443.44 622.82,-433.93"/>
<polygon fill="black" stroke="black" points="625.12,-431.28 615.05,-427.99 620.87,-436.84 625.12,-431.28"/>
<text text-anchor="middle" x="617.17" y="-447.18" font-family="Helvetica,sans-Serif" font-size="14.00">True</text>
</g>
<!-- 16138 -->
<g id="node17" class="node">
<title>16138</title>
<path fill="#ea9a60" stroke="black" d="M960.5,-426.75C960.5,-426.75 827.5,-426.75 827.5,-426.75 821.5,-426.75 815.5,-420.75 815.5,-414.75 815.5,-414.75 815.5,-344.5 815.5,-344.5 815.5,-338.5 821.5,-332.5 827.5,-332.5 827.5,-332.5 960.5,-332.5 960.5,-332.5 966.5,-332.5 972.5,-338.5 972.5,-344.5 972.5,-344.5 972.5,-414.75 972.5,-414.75 972.5,-420.75 966.5,-426.75 960.5,-426.75"/>
<text text-anchor="middle" x="894" y="-409.45" font-family="Helvetica,sans-Serif" font-size="14.00">3_U &lt;= 0.5</text>
<text text-anchor="middle" x="894" y="-392.2" font-family="Helvetica,sans-Serif" font-size="14.00">entropy = 0.641</text>
<text text-anchor="middle" x="894" y="-374.95" font-family="Helvetica,sans-Serif" font-size="14.00">samples = 1993</text>
<text text-anchor="middle" x="894" y="-357.7" font-family="Helvetica,sans-Serif" font-size="14.00">value = [2631, 512]</text>
<text text-anchor="middle" x="894" y="-340.45" font-family="Helvetica,sans-Serif" font-size="14.00">class = Animal</text>
</g>
<!-- 0&#45;&gt;16138 -->
<g id="edge16" class="edge">
<title>0&#45;&gt;16138</title>
<path fill="none" stroke="black" d="M783.46,-462.57C796,-453.28 809.27,-443.44 822.1,-433.93"/>
<polygon fill="black" stroke="black" points="824.18,-436.74 830.13,-427.97 820.01,-431.12 824.18,-436.74"/>
<text text-anchor="middle" x="827.67" y="-447.13" font-family="Helvetica,sans-Serif" font-size="14.00">False</text>
</g>
<!-- 2 -->
<g id="node3" class="node">
<title>2</title>
<path fill="#e7f3fc" stroke="black" d="M370,-296.5C370,-296.5 210,-296.5 210,-296.5 204,-296.5 198,-290.5 198,-284.5 198,-284.5 198,-214.25 198,-214.25 198,-208.25 204,-202.25 210,-202.25 210,-202.25 370,-202.25 370,-202.25 376,-202.25 382,-208.25 382,-214.25 382,-214.25 382,-284.5 382,-284.5 382,-290.5 376,-296.5 370,-296.5"/>
<text text-anchor="middle" x="290" y="-279.2" font-family="Helvetica,sans-Serif" font-size="14.00">19_C &lt;= 0.5</text>
<text text-anchor="middle" x="290" y="-261.95" font-family="Helvetica,sans-Serif" font-size="14.00">entropy = 0.997</text>
<text text-anchor="middle" x="290" y="-244.7" font-family="Helvetica,sans-Serif" font-size="14.00">samples = 34261</text>
<text text-anchor="middle" x="290" y="-227.45" font-family="Helvetica,sans-Serif" font-size="14.00">value = [25339, 28842]</text>
<text text-anchor="middle" x="290" y="-210.2" font-family="Helvetica,sans-Serif" font-size="14.00">class = Plant</text>
</g>
<!-- 1&#45;&gt;2 -->
<g id="edge2" class="edge">
<title>1&#45;&gt;2</title>
<path fill="none" stroke="black" d="M460.65,-333.59C438.57,-322.82 414.87,-311.27 392.37,-300.3"/>
<polygon fill="black" stroke="black" points="394.01,-297.2 383.49,-295.97 390.95,-303.49 394.01,-297.2"/>
</g>
<!-- 15361 -->
<g id="node10" class="node">
<title>15361</title>
<path fill="#eda876" stroke="black" d="M619.5,-296.5C619.5,-296.5 486.5,-296.5 486.5,-296.5 480.5,-296.5 474.5,-290.5 474.5,-284.5 474.5,-284.5 474.5,-214.25 474.5,-214.25 474.5,-208.25 480.5,-202.25 486.5,-202.25 486.5,-202.25 619.5,-202.25 619.5,-202.25 625.5,-202.25 631.5,-208.25 631.5,-214.25 631.5,-214.25 631.5,-284.5 631.5,-284.5 631.5,-290.5 625.5,-296.5 619.5,-296.5"/>
<text text-anchor="middle" x="553" y="-279.2" font-family="Helvetica,sans-Serif" font-size="14.00">21_U &lt;= 0.5</text>
<text text-anchor="middle" x="553" y="-261.95" font-family="Helvetica,sans-Serif" font-size="14.00">entropy = 0.786</text>
<text text-anchor="middle" x="553" y="-244.7" font-family="Helvetica,sans-Serif" font-size="14.00">samples = 1903</text>
<text text-anchor="middle" x="553" y="-227.45" font-family="Helvetica,sans-Serif" font-size="14.00">value = [2313, 708]</text>
<text text-anchor="middle" x="553" y="-210.2" font-family="Helvetica,sans-Serif" font-size="14.00">class = Animal</text>
</g>
<!-- 1&#45;&gt;15361 -->
<g id="edge9" class="edge">
<title>1&#45;&gt;15361</title>
<path fill="none" stroke="black" d="M553,-332.32C553,-324.42 553,-316.13 553,-307.98"/>
<polygon fill="black" stroke="black" points="556.5,-308.12 553,-298.12 549.5,-308.12 556.5,-308.12"/>
</g>
<!-- 3 -->
<g id="node4" class="node">
<title>3</title>
<path fill="#fbece1" stroke="black" d="M172,-166.25C172,-166.25 12,-166.25 12,-166.25 6,-166.25 0,-160.25 0,-154.25 0,-154.25 0,-84 0,-84 0,-78 6,-72 12,-72 12,-72 172,-72 172,-72 178,-72 184,-78 184,-84 184,-84 184,-154.25 184,-154.25 184,-160.25 178,-166.25 172,-166.25"/>
<text text-anchor="middle" x="92" y="-148.95" font-family="Helvetica,sans-Serif" font-size="14.00">11_G &lt;= 0.5</text>
<text text-anchor="middle" x="92" y="-131.7" font-family="Helvetica,sans-Serif" font-size="14.00">entropy = 0.995</text>
<text text-anchor="middle" x="92" y="-114.45" font-family="Helvetica,sans-Serif" font-size="14.00">samples = 22826</text>
<text text-anchor="middle" x="92" y="-97.2" font-family="Helvetica,sans-Serif" font-size="14.00">value = [19577, 16569]</text>
<text text-anchor="middle" x="92" y="-79.95" font-family="Helvetica,sans-Serif" font-size="14.00">class = Animal</text>
</g>
<!-- 2&#45;&gt;3 -->
<g id="edge3" class="edge">
<title>2&#45;&gt;3</title>
<path fill="none" stroke="black" d="M218.24,-201.89C203.71,-192.48 188.34,-182.53 173.5,-172.92"/>
<polygon fill="black" stroke="black" points="175.42,-169.99 165.12,-167.49 171.61,-175.86 175.42,-169.99"/>
</g>
<!-- 11598 -->
<g id="node7" class="node">
<title>11598</title>
<path fill="#96cbf1" stroke="black" d="M365.5,-166.25C365.5,-166.25 214.5,-166.25 214.5,-166.25 208.5,-166.25 202.5,-160.25 202.5,-154.25 202.5,-154.25 202.5,-84 202.5,-84 202.5,-78 208.5,-72 214.5,-72 214.5,-72 365.5,-72 365.5,-72 371.5,-72 377.5,-78 377.5,-84 377.5,-84 377.5,-154.25 377.5,-154.25 377.5,-160.25 371.5,-166.25 365.5,-166.25"/>
<text text-anchor="middle" x="290" y="-148.95" font-family="Helvetica,sans-Serif" font-size="14.00">15_U &lt;= 0.5</text>
<text text-anchor="middle" x="290" y="-131.7" font-family="Helvetica,sans-Serif" font-size="14.00">entropy = 0.904</text>
<text text-anchor="middle" x="290" y="-114.45" font-family="Helvetica,sans-Serif" font-size="14.00">samples = 11435</text>
<text text-anchor="middle" x="290" y="-97.2" font-family="Helvetica,sans-Serif" font-size="14.00">value = [5762, 12273]</text>
<text text-anchor="middle" x="290" y="-79.95" font-family="Helvetica,sans-Serif" font-size="14.00">class = Plant</text>
</g>
<!-- 2&#45;&gt;11598 -->
<g id="edge6" class="edge">
<title>2&#45;&gt;11598</title>
<path fill="none" stroke="black" d="M290,-202.07C290,-194.17 290,-185.88 290,-177.73"/>
<polygon fill="black" stroke="black" points="293.5,-177.87 290,-167.87 286.5,-177.87 293.5,-177.87"/>
</g>
<!-- 4 -->
<g id="node5" class="node">
<title>4</title>
<path fill="#c0c0c0" stroke="black" d="M71,-36C71,-36 41,-36 41,-36 35,-36 29,-30 29,-24 29,-24 29,-12 29,-12 29,-6 35,0 41,0 41,0 71,0 71,0 77,0 83,-6 83,-12 83,-12 83,-24 83,-24 83,-30 77,-36 71,-36"/>
<text text-anchor="middle" x="56" y="-13.32" font-family="Helvetica,sans-Serif" font-size="14.00">(...)</text>
</g>
<!-- 3&#45;&gt;4 -->
<g id="edge4" class="edge">
<title>3&#45;&gt;4</title>
<path fill="none" stroke="black" d="M75.16,-71.75C72.06,-63.22 68.92,-54.57 66.1,-46.8"/>
<polygon fill="black" stroke="black" points="69.46,-45.8 62.75,-37.6 62.88,-48.19 69.46,-45.8"/>
</g>
<!-- 8349 -->
<g id="node6" class="node">
<title>8349</title>
<path fill="#c0c0c0" stroke="black" d="M143,-36C143,-36 113,-36 113,-36 107,-36 101,-30 101,-24 101,-24 101,-12 101,-12 101,-6 107,0 113,0 113,0 143,0 143,0 149,0 155,-6 155,-12 155,-12 155,-24 155,-24 155,-30 149,-36 143,-36"/>
<text text-anchor="middle" x="128" y="-13.32" font-family="Helvetica,sans-Serif" font-size="14.00">(...)</text>
</g>
<!-- 3&#45;&gt;8349 -->
<g id="edge5" class="edge">
<title>3&#45;&gt;8349</title>
<path fill="none" stroke="black" d="M108.84,-71.75C111.94,-63.22 115.08,-54.57 117.9,-46.8"/>
<polygon fill="black" stroke="black" points="121.12,-48.19 121.25,-37.6 114.54,-45.8 121.12,-48.19"/>
</g>
<!-- 11599 -->
<g id="node8" class="node">
<title>11599</title>
<path fill="#c0c0c0" stroke="black" d="M266,-36C266,-36 236,-36 236,-36 230,-36 224,-30 224,-24 224,-24 224,-12 224,-12 224,-6 230,0 236,0 236,0 266,0 266,0 272,0 278,-6 278,-12 278,-12 278,-24 278,-24 278,-30 272,-36 266,-36"/>
<text text-anchor="middle" x="251" y="-13.32" font-family="Helvetica,sans-Serif" font-size="14.00">(...)</text>
</g>
<!-- 11598&#45;&gt;11599 -->
<g id="edge7" class="edge">
<title>11598&#45;&gt;11599</title>
<path fill="none" stroke="black" d="M271.76,-71.75C268.4,-63.22 264.99,-54.57 261.94,-46.8"/>
<polygon fill="black" stroke="black" points="265.23,-45.61 258.31,-37.58 258.71,-48.17 265.23,-45.61"/>
</g>
<!-- 14386 -->
<g id="node9" class="node">
<title>14386</title>
<path fill="#c0c0c0" stroke="black" d="M338,-36C338,-36 308,-36 308,-36 302,-36 296,-30 296,-24 296,-24 296,-12 296,-12 296,-6 302,0 308,0 308,0 338,0 338,0 344,0 350,-6 350,-12 350,-12 350,-24 350,-24 350,-30 344,-36 338,-36"/>
<text text-anchor="middle" x="323" y="-13.32" font-family="Helvetica,sans-Serif" font-size="14.00">(...)</text>
</g>
<!-- 11598&#45;&gt;14386 -->
<g id="edge8" class="edge">
<title>11598&#45;&gt;14386</title>
<path fill="none" stroke="black" d="M305.44,-71.75C308.24,-63.32 311.09,-54.77 313.66,-47.07"/>
<polygon fill="black" stroke="black" points="316.97,-48.2 316.8,-37.61 310.33,-45.99 316.97,-48.2"/>
</g>
<!-- 15362 -->
<g id="node11" class="node">
<title>15362</title>
<path fill="#eead7e" stroke="black" d="M540.5,-166.25C540.5,-166.25 407.5,-166.25 407.5,-166.25 401.5,-166.25 395.5,-160.25 395.5,-154.25 395.5,-154.25 395.5,-84 395.5,-84 395.5,-78 401.5,-72 407.5,-72 407.5,-72 540.5,-72 540.5,-72 546.5,-72 552.5,-78 552.5,-84 552.5,-84 552.5,-154.25 552.5,-154.25 552.5,-160.25 546.5,-166.25 540.5,-166.25"/>
<text text-anchor="middle" x="474" y="-148.95" font-family="Helvetica,sans-Serif" font-size="14.00">19_C &lt;= 0.5</text>
<text text-anchor="middle" x="474" y="-131.7" font-family="Helvetica,sans-Serif" font-size="14.00">entropy = 0.824</text>
<text text-anchor="middle" x="474" y="-114.45" font-family="Helvetica,sans-Serif" font-size="14.00">samples = 1326</text>
<text text-anchor="middle" x="474" y="-97.2" font-family="Helvetica,sans-Serif" font-size="14.00">value = [1548, 538]</text>
<text text-anchor="middle" x="474" y="-79.95" font-family="Helvetica,sans-Serif" font-size="14.00">class = Animal</text>
</g>
<!-- 15361&#45;&gt;15362 -->
<g id="edge10" class="edge">
<title>15361&#45;&gt;15362</title>
<path fill="none" stroke="black" d="M524.48,-202.07C519.28,-193.63 513.8,-184.74 508.45,-176.05"/>
<polygon fill="black" stroke="black" points="511.5,-174.33 503.27,-167.65 505.54,-178 511.5,-174.33"/>
</g>
<!-- 15947 -->
<g id="node14" class="node">
<title>15947</title>
<path fill="#eb9d65" stroke="black" d="M707,-166.25C707,-166.25 583,-166.25 583,-166.25 577,-166.25 571,-160.25 571,-154.25 571,-154.25 571,-84 571,-84 571,-78 577,-72 583,-72 583,-72 707,-72 707,-72 713,-72 719,-78 719,-84 719,-84 719,-154.25 719,-154.25 719,-160.25 713,-166.25 707,-166.25"/>
<text text-anchor="middle" x="645" y="-148.95" font-family="Helvetica,sans-Serif" font-size="14.00">6_U &lt;= 0.5</text>
<text text-anchor="middle" x="645" y="-131.7" font-family="Helvetica,sans-Serif" font-size="14.00">entropy = 0.684</text>
<text text-anchor="middle" x="645" y="-114.45" font-family="Helvetica,sans-Serif" font-size="14.00">samples = 577</text>
<text text-anchor="middle" x="645" y="-97.2" font-family="Helvetica,sans-Serif" font-size="14.00">value = [765, 170]</text>
<text text-anchor="middle" x="645" y="-79.95" font-family="Helvetica,sans-Serif" font-size="14.00">class = Animal</text>
</g>
<!-- 15361&#45;&gt;15947 -->
<g id="edge13" class="edge">
<title>15361&#45;&gt;15947</title>
<path fill="none" stroke="black" d="M586.21,-202.07C592.4,-193.45 598.93,-184.35 605.29,-175.49"/>
<polygon fill="black" stroke="black" points="607.97,-177.75 610.95,-167.59 602.28,-173.67 607.97,-177.75"/>
</g>
<!-- 15363 -->
<g id="node12" class="node">
<title>15363</title>
<path fill="#c0c0c0" stroke="black" d="M430,-36C430,-36 400,-36 400,-36 394,-36 388,-30 388,-24 388,-24 388,-12 388,-12 388,-6 394,0 400,0 400,0 430,0 430,0 436,0 442,-6 442,-12 442,-12 442,-24 442,-24 442,-30 436,-36 430,-36"/>
<text text-anchor="middle" x="415" y="-13.32" font-family="Helvetica,sans-Serif" font-size="14.00">(...)</text>
</g>
<!-- 15362&#45;&gt;15363 -->
<g id="edge11" class="edge">
<title>15362&#45;&gt;15363</title>
<path fill="none" stroke="black" d="M446.4,-71.75C441.15,-62.93 435.81,-53.96 431.06,-45.99"/>
<polygon fill="black" stroke="black" points="434.12,-44.28 426,-37.47 428.1,-47.86 434.12,-44.28"/>
</g>
<!-- 15812 -->
<g id="node13" class="node">
<title>15812</title>
<path fill="#c0c0c0" stroke="black" d="M502,-36C502,-36 472,-36 472,-36 466,-36 460,-30 460,-24 460,-24 460,-12 460,-12 460,-6 466,0 472,0 472,0 502,0 502,0 508,0 514,-6 514,-12 514,-12 514,-24 514,-24 514,-30 508,-36 502,-36"/>
<text text-anchor="middle" x="487" y="-13.32" font-family="Helvetica,sans-Serif" font-size="14.00">(...)</text>
</g>
<!-- 15362&#45;&gt;15812 -->
<g id="edge12" class="edge">
<title>15362&#45;&gt;15812</title>
<path fill="none" stroke="black" d="M480.08,-71.75C481.17,-63.42 482.28,-54.97 483.28,-47.34"/>
<polygon fill="black" stroke="black" points="486.72,-48.04 484.55,-37.67 479.78,-47.13 486.72,-48.04"/>
</g>
<!-- 15948 -->
<g id="node15" class="node">
<title>15948</title>
<path fill="#c0c0c0" stroke="black" d="M601,-36C601,-36 571,-36 571,-36 565,-36 559,-30 559,-24 559,-24 559,-12 559,-12 559,-6 565,0 571,0 571,0 601,0 601,0 607,0 613,-6 613,-12 613,-12 613,-24 613,-24 613,-30 607,-36 601,-36"/>
<text text-anchor="middle" x="586" y="-13.32" font-family="Helvetica,sans-Serif" font-size="14.00">(...)</text>
</g>
<!-- 15947&#45;&gt;15948 -->
<g id="edge14" class="edge">
<title>15947&#45;&gt;15948</title>
<path fill="none" stroke="black" d="M617.4,-71.75C612.15,-62.93 606.81,-53.96 602.06,-45.99"/>
<polygon fill="black" stroke="black" points="605.12,-44.28 597,-37.47 599.1,-47.86 605.12,-44.28"/>
</g>
<!-- 16089 -->
<g id="node16" class="node">
<title>16089</title>
<path fill="#c0c0c0" stroke="black" d="M673,-36C673,-36 643,-36 643,-36 637,-36 631,-30 631,-24 631,-24 631,-12 631,-12 631,-6 637,0 643,0 643,0 673,0 673,0 679,0 685,-6 685,-12 685,-12 685,-24 685,-24 685,-30 679,-36 673,-36"/>
<text text-anchor="middle" x="658" y="-13.32" font-family="Helvetica,sans-Serif" font-size="14.00">(...)</text>
</g>
<!-- 15947&#45;&gt;16089 -->
<g id="edge15" class="edge">
<title>15947&#45;&gt;16089</title>
<path fill="none" stroke="black" d="M651.08,-71.75C652.17,-63.42 653.28,-54.97 654.28,-47.34"/>
<polygon fill="black" stroke="black" points="657.72,-48.04 655.55,-37.67 650.78,-47.13 657.72,-48.04"/>
</g>
<!-- 16139 -->
<g id="node18" class="node">
<title>16139</title>
<path fill="#e99456" stroke="black" d="M960.5,-296.5C960.5,-296.5 827.5,-296.5 827.5,-296.5 821.5,-296.5 815.5,-290.5 815.5,-284.5 815.5,-284.5 815.5,-214.25 815.5,-214.25 815.5,-208.25 821.5,-202.25 827.5,-202.25 827.5,-202.25 960.5,-202.25 960.5,-202.25 966.5,-202.25 972.5,-208.25 972.5,-214.25 972.5,-214.25 972.5,-284.5 972.5,-284.5 972.5,-290.5 966.5,-296.5 960.5,-296.5"/>
<text text-anchor="middle" x="894" y="-279.2" font-family="Helvetica,sans-Serif" font-size="14.00">6_U &lt;= 0.5</text>
<text text-anchor="middle" x="894" y="-261.95" font-family="Helvetica,sans-Serif" font-size="14.00">entropy = 0.556</text>
<text text-anchor="middle" x="894" y="-244.7" font-family="Helvetica,sans-Serif" font-size="14.00">samples = 1528</text>
<text text-anchor="middle" x="894" y="-227.45" font-family="Helvetica,sans-Serif" font-size="14.00">value = [2083, 310]</text>
<text text-anchor="middle" x="894" y="-210.2" font-family="Helvetica,sans-Serif" font-size="14.00">class = Animal</text>
</g>
<!-- 16138&#45;&gt;16139 -->
<g id="edge17" class="edge">
<title>16138&#45;&gt;16139</title>
<path fill="none" stroke="black" d="M894,-332.32C894,-324.42 894,-316.13 894,-307.98"/>
<polygon fill="black" stroke="black" points="897.5,-308.12 894,-298.12 890.5,-308.12 897.5,-308.12"/>
</g>
<!-- 16648 -->
<g id="node25" class="node">
<title>16648</title>
<path fill="#efaf82" stroke="black" d="M1206,-296.5C1206,-296.5 1082,-296.5 1082,-296.5 1076,-296.5 1070,-290.5 1070,-284.5 1070,-284.5 1070,-214.25 1070,-214.25 1070,-208.25 1076,-202.25 1082,-202.25 1082,-202.25 1206,-202.25 1206,-202.25 1212,-202.25 1218,-208.25 1218,-214.25 1218,-214.25 1218,-284.5 1218,-284.5 1218,-290.5 1212,-296.5 1206,-296.5"/>
<text text-anchor="middle" x="1144" y="-279.2" font-family="Helvetica,sans-Serif" font-size="14.00">4_G &lt;= 0.5</text>
<text text-anchor="middle" x="1144" y="-261.95" font-family="Helvetica,sans-Serif" font-size="14.00">entropy = 0.841</text>
<text text-anchor="middle" x="1144" y="-244.7" font-family="Helvetica,sans-Serif" font-size="14.00">samples = 465</text>
<text text-anchor="middle" x="1144" y="-227.45" font-family="Helvetica,sans-Serif" font-size="14.00">value = [548, 202]</text>
<text text-anchor="middle" x="1144" y="-210.2" font-family="Helvetica,sans-Serif" font-size="14.00">class = Animal</text>
</g>
<!-- 16138&#45;&gt;16648 -->
<g id="edge24" class="edge">
<title>16138&#45;&gt;16648</title>
<path fill="none" stroke="black" d="M972.76,-338.22C1000.42,-324.03 1031.6,-308.04 1059.7,-293.62"/>
<polygon fill="black" stroke="black" points="1061.25,-296.76 1068.55,-289.08 1058.05,-290.53 1061.25,-296.76"/>
</g>
<!-- 16140 -->
<g id="node19" class="node">
<title>16140</title>
<path fill="#e9975b" stroke="black" d="M882.5,-166.25C882.5,-166.25 749.5,-166.25 749.5,-166.25 743.5,-166.25 737.5,-160.25 737.5,-154.25 737.5,-154.25 737.5,-84 737.5,-84 737.5,-78 743.5,-72 749.5,-72 749.5,-72 882.5,-72 882.5,-72 888.5,-72 894.5,-78 894.5,-84 894.5,-84 894.5,-154.25 894.5,-154.25 894.5,-160.25 888.5,-166.25 882.5,-166.25"/>
<text text-anchor="middle" x="816" y="-148.95" font-family="Helvetica,sans-Serif" font-size="14.00">24_A &lt;= 0.5</text>
<text text-anchor="middle" x="816" y="-131.7" font-family="Helvetica,sans-Serif" font-size="14.00">entropy = 0.599</text>
<text text-anchor="middle" x="816" y="-114.45" font-family="Helvetica,sans-Serif" font-size="14.00">samples = 1123</text>
<text text-anchor="middle" x="816" y="-97.2" font-family="Helvetica,sans-Serif" font-size="14.00">value = [1511, 258]</text>
<text text-anchor="middle" x="816" y="-79.95" font-family="Helvetica,sans-Serif" font-size="14.00">class = Animal</text>
</g>
<!-- 16139&#45;&gt;16140 -->
<g id="edge18" class="edge">
<title>16139&#45;&gt;16140</title>
<path fill="none" stroke="black" d="M865.84,-202.07C860.7,-193.63 855.3,-184.74 850.01,-176.05"/>
<polygon fill="black" stroke="black" points="853.09,-174.38 844.9,-167.65 847.11,-178.01 853.09,-174.38"/>
</g>
<!-- 16553 -->
<g id="node22" class="node">
<title>16553</title>
<path fill="#e78c4b" stroke="black" d="M1039.5,-166.25C1039.5,-166.25 924.5,-166.25 924.5,-166.25 918.5,-166.25 912.5,-160.25 912.5,-154.25 912.5,-154.25 912.5,-84 912.5,-84 912.5,-78 918.5,-72 924.5,-72 924.5,-72 1039.5,-72 1039.5,-72 1045.5,-72 1051.5,-78 1051.5,-84 1051.5,-84 1051.5,-154.25 1051.5,-154.25 1051.5,-160.25 1045.5,-166.25 1039.5,-166.25"/>
<text text-anchor="middle" x="982" y="-148.95" font-family="Helvetica,sans-Serif" font-size="14.00">1_G &lt;= 0.5</text>
<text text-anchor="middle" x="982" y="-131.7" font-family="Helvetica,sans-Serif" font-size="14.00">entropy = 0.414</text>
<text text-anchor="middle" x="982" y="-114.45" font-family="Helvetica,sans-Serif" font-size="14.00">samples = 405</text>
<text text-anchor="middle" x="982" y="-97.2" font-family="Helvetica,sans-Serif" font-size="14.00">value = [572, 52]</text>
<text text-anchor="middle" x="982" y="-79.95" font-family="Helvetica,sans-Serif" font-size="14.00">class = Animal</text>
</g>
<!-- 16139&#45;&gt;16553 -->
<g id="edge21" class="edge">
<title>16139&#45;&gt;16553</title>
<path fill="none" stroke="black" d="M925.77,-202.07C931.63,-193.54 937.8,-184.54 943.82,-175.77"/>
<polygon fill="black" stroke="black" points="946.65,-177.83 949.42,-167.61 940.88,-173.87 946.65,-177.83"/>
</g>
<!-- 16141 -->
<g id="node20" class="node">
<title>16141</title>
<path fill="#c0c0c0" stroke="black" d="M770,-36C770,-36 740,-36 740,-36 734,-36 728,-30 728,-24 728,-24 728,-12 728,-12 728,-6 734,0 740,0 740,0 770,0 770,0 776,0 782,-6 782,-12 782,-12 782,-24 782,-24 782,-30 776,-36 770,-36"/>
<text text-anchor="middle" x="755" y="-13.32" font-family="Helvetica,sans-Serif" font-size="14.00">(...)</text>
</g>
<!-- 16140&#45;&gt;16141 -->
<g id="edge19" class="edge">
<title>16140&#45;&gt;16141</title>
<path fill="none" stroke="black" d="M787.46,-71.75C781.97,-62.83 776.39,-53.76 771.44,-45.72"/>
<polygon fill="black" stroke="black" points="774.58,-44.14 766.36,-37.46 768.62,-47.81 774.58,-44.14"/>
</g>
<!-- 16520 -->
<g id="node21" class="node">
<title>16520</title>
<path fill="#c0c0c0" stroke="black" d="M842,-36C842,-36 812,-36 812,-36 806,-36 800,-30 800,-24 800,-24 800,-12 800,-12 800,-6 806,0 812,0 812,0 842,0 842,0 848,0 854,-6 854,-12 854,-12 854,-24 854,-24 854,-30 848,-36 842,-36"/>
<text text-anchor="middle" x="827" y="-13.32" font-family="Helvetica,sans-Serif" font-size="14.00">(...)</text>
</g>
<!-- 16140&#45;&gt;16520 -->
<g id="edge20" class="edge">
<title>16140&#45;&gt;16520</title>
<path fill="none" stroke="black" d="M821.15,-71.75C822.06,-63.52 822.99,-55.17 823.82,-47.61"/>
<polygon fill="black" stroke="black" points="827.3,-48 824.93,-37.68 820.35,-47.23 827.3,-48"/>
</g>
<!-- 16554 -->
<g id="node23" class="node">
<title>16554</title>
<path fill="#c0c0c0" stroke="black" d="M934,-36C934,-36 904,-36 904,-36 898,-36 892,-30 892,-24 892,-24 892,-12 892,-12 892,-6 898,0 904,0 904,0 934,0 934,0 940,0 946,-6 946,-12 946,-12 946,-24 946,-24 946,-30 940,-36 934,-36"/>
<text text-anchor="middle" x="919" y="-13.32" font-family="Helvetica,sans-Serif" font-size="14.00">(...)</text>
</g>
<!-- 16553&#45;&gt;16554 -->
<g id="edge22" class="edge">
<title>16553&#45;&gt;16554</title>
<path fill="none" stroke="black" d="M952.53,-71.75C946.85,-62.83 941.09,-53.76 935.98,-45.72"/>
<polygon fill="black" stroke="black" points="939.04,-44.01 930.73,-37.45 933.14,-47.77 939.04,-44.01"/>
</g>
<!-- 16633 -->
<g id="node24" class="node">
<title>16633</title>
<path fill="#c0c0c0" stroke="black" d="M1006,-36C1006,-36 976,-36 976,-36 970,-36 964,-30 964,-24 964,-24 964,-12 964,-12 964,-6 970,0 976,0 976,0 1006,0 1006,0 1012,0 1018,-6 1018,-12 1018,-12 1018,-24 1018,-24 1018,-30 1012,-36 1006,-36"/>
<text text-anchor="middle" x="991" y="-13.32" font-family="Helvetica,sans-Serif" font-size="14.00">(...)</text>
</g>
<!-- 16553&#45;&gt;16633 -->
<g id="edge23" class="edge">
<title>16553&#45;&gt;16633</title>
<path fill="none" stroke="black" d="M986.21,-71.75C986.96,-63.52 987.72,-55.17 988.4,-47.61"/>
<polygon fill="black" stroke="black" points="991.89,-47.96 989.3,-37.68 984.91,-47.32 991.89,-47.96"/>
</g>
<!-- 16649 -->
<g id="node26" class="node">
<title>16649</title>
<path fill="#f2c09c" stroke="black" d="M1206,-166.25C1206,-166.25 1082,-166.25 1082,-166.25 1076,-166.25 1070,-160.25 1070,-154.25 1070,-154.25 1070,-84 1070,-84 1070,-78 1076,-72 1082,-72 1082,-72 1206,-72 1206,-72 1212,-72 1218,-78 1218,-84 1218,-84 1218,-154.25 1218,-154.25 1218,-160.25 1212,-166.25 1206,-166.25"/>
<text text-anchor="middle" x="1144" y="-148.95" font-family="Helvetica,sans-Serif" font-size="14.00">17_U &lt;= 0.5</text>
<text text-anchor="middle" x="1144" y="-131.7" font-family="Helvetica,sans-Serif" font-size="14.00">entropy = 0.918</text>
<text text-anchor="middle" x="1144" y="-114.45" font-family="Helvetica,sans-Serif" font-size="14.00">samples = 301</text>
<text text-anchor="middle" x="1144" y="-97.2" font-family="Helvetica,sans-Serif" font-size="14.00">value = [322, 161]</text>
<text text-anchor="middle" x="1144" y="-79.95" font-family="Helvetica,sans-Serif" font-size="14.00">class = Animal</text>
</g>
<!-- 16648&#45;&gt;16649 -->
<g id="edge25" class="edge">
<title>16648&#45;&gt;16649</title>
<path fill="none" stroke="black" d="M1144,-202.07C1144,-194.17 1144,-185.88 1144,-177.73"/>
<polygon fill="black" stroke="black" points="1147.5,-177.87 1144,-167.87 1140.5,-177.87 1147.5,-177.87"/>
</g>
<!-- 16792 -->
<g id="node29" class="node">
<title>16792</title>
<path fill="#ea985d" stroke="black" d="M1363.5,-166.25C1363.5,-166.25 1248.5,-166.25 1248.5,-166.25 1242.5,-166.25 1236.5,-160.25 1236.5,-154.25 1236.5,-154.25 1236.5,-84 1236.5,-84 1236.5,-78 1242.5,-72 1248.5,-72 1248.5,-72 1363.5,-72 1363.5,-72 1369.5,-72 1375.5,-78 1375.5,-84 1375.5,-84 1375.5,-154.25 1375.5,-154.25 1375.5,-160.25 1369.5,-166.25 1363.5,-166.25"/>
<text text-anchor="middle" x="1306" y="-148.95" font-family="Helvetica,sans-Serif" font-size="14.00">16_U &lt;= 0.5</text>
<text text-anchor="middle" x="1306" y="-131.7" font-family="Helvetica,sans-Serif" font-size="14.00">entropy = 0.619</text>
<text text-anchor="middle" x="1306" y="-114.45" font-family="Helvetica,sans-Serif" font-size="14.00">samples = 164</text>
<text text-anchor="middle" x="1306" y="-97.2" font-family="Helvetica,sans-Serif" font-size="14.00">value = [226, 41]</text>
<text text-anchor="middle" x="1306" y="-79.95" font-family="Helvetica,sans-Serif" font-size="14.00">class = Animal</text>
</g>
<!-- 16648&#45;&gt;16792 -->
<g id="edge28" class="edge">
<title>16648&#45;&gt;16792</title>
<path fill="none" stroke="black" d="M1202.49,-202.07C1214.11,-192.87 1226.41,-183.13 1238.32,-173.71"/>
<polygon fill="black" stroke="black" points="1240.47,-176.46 1246.14,-167.51 1236.13,-170.98 1240.47,-176.46"/>
</g>
<!-- 16650 -->
<g id="node27" class="node">
<title>16650</title>
<path fill="#c0c0c0" stroke="black" d="M1114,-36C1114,-36 1084,-36 1084,-36 1078,-36 1072,-30 1072,-24 1072,-24 1072,-12 1072,-12 1072,-6 1078,0 1084,0 1084,0 1114,0 1114,0 1120,0 1126,-6 1126,-12 1126,-12 1126,-24 1126,-24 1126,-30 1120,-36 1114,-36"/>
<text text-anchor="middle" x="1099" y="-13.32" font-family="Helvetica,sans-Serif" font-size="14.00">(...)</text>
</g>
<!-- 16649&#45;&gt;16650 -->
<g id="edge26" class="edge">
<title>16649&#45;&gt;16650</title>
<path fill="none" stroke="black" d="M1122.95,-71.75C1119.03,-63.12 1115.05,-54.36 1111.5,-46.53"/>
<polygon fill="black" stroke="black" points="1114.74,-45.21 1107.42,-37.55 1108.37,-48.1 1114.74,-45.21"/>
</g>
<!-- 16751 -->
<g id="node28" class="node">
<title>16751</title>
<path fill="#c0c0c0" stroke="black" d="M1186,-36C1186,-36 1156,-36 1156,-36 1150,-36 1144,-30 1144,-24 1144,-24 1144,-12 1144,-12 1144,-6 1150,0 1156,0 1156,0 1186,0 1186,0 1192,0 1198,-6 1198,-12 1198,-12 1198,-24 1198,-24 1198,-30 1192,-36 1186,-36"/>
<text text-anchor="middle" x="1171" y="-13.32" font-family="Helvetica,sans-Serif" font-size="14.00">(...)</text>
</g>
<!-- 16649&#45;&gt;16751 -->
<g id="edge27" class="edge">
<title>16649&#45;&gt;16751</title>
<path fill="none" stroke="black" d="M1156.63,-71.75C1158.93,-63.32 1161.26,-54.77 1163.35,-47.07"/>
<polygon fill="black" stroke="black" points="1166.67,-48.2 1165.92,-37.63 1159.92,-46.36 1166.67,-48.2"/>
</g>
<!-- 16793 -->
<g id="node30" class="node">
<title>16793</title>
<path fill="#c0c0c0" stroke="black" d="M1285,-36C1285,-36 1255,-36 1255,-36 1249,-36 1243,-30 1243,-24 1243,-24 1243,-12 1243,-12 1243,-6 1249,0 1255,0 1255,0 1285,0 1285,0 1291,0 1297,-6 1297,-12 1297,-12 1297,-24 1297,-24 1297,-30 1291,-36 1285,-36"/>
<text text-anchor="middle" x="1270" y="-13.32" font-family="Helvetica,sans-Serif" font-size="14.00">(...)</text>
</g>
<!-- 16792&#45;&gt;16793 -->
<g id="edge29" class="edge">
<title>16792&#45;&gt;16793</title>
<path fill="none" stroke="black" d="M1289.16,-71.75C1286.06,-63.22 1282.92,-54.57 1280.1,-46.8"/>
<polygon fill="black" stroke="black" points="1283.46,-45.8 1276.75,-37.6 1276.88,-48.19 1283.46,-45.8"/>
</g>
<!-- 16840 -->
<g id="node31" class="node">
<title>16840</title>
<path fill="#c0c0c0" stroke="black" d="M1357,-36C1357,-36 1327,-36 1327,-36 1321,-36 1315,-30 1315,-24 1315,-24 1315,-12 1315,-12 1315,-6 1321,0 1327,0 1327,0 1357,0 1357,0 1363,0 1369,-6 1369,-12 1369,-12 1369,-24 1369,-24 1369,-30 1363,-36 1357,-36"/>
<text text-anchor="middle" x="1342" y="-13.32" font-family="Helvetica,sans-Serif" font-size="14.00">(...)</text>
</g>
<!-- 16792&#45;&gt;16840 -->
<g id="edge30" class="edge">
<title>16792&#45;&gt;16840</title>
<path fill="none" stroke="black" d="M1322.84,-71.75C1325.94,-63.22 1329.08,-54.57 1331.9,-46.8"/>
<polygon fill="black" stroke="black" points="1335.12,-48.19 1335.25,-37.6 1328.54,-45.8 1335.12,-48.19"/>
</g>
</g>
</svg>
