<?xml version="1.0" encoding="UTF-8" standalone="no"?>
<!DOCTYPE svg PUBLIC "-//W3C//DTD SVG 1.1//EN"
 "http://www.w3.org/Graphics/SVG/1.1/DTD/svg11.dtd">
<!-- Generated by graphviz version 12.0.0 (20240803.0821)
 -->
<!-- Title: Tree Pages: 1 -->
<svg width="1383pt" height="565pt"
 viewBox="0.00 0.00 1383.00 565.00" xmlns="http://www.w3.org/2000/svg" xmlns:xlink="http://www.w3.org/1999/xlink">
<g id="graph0" class="graph" transform="scale(1 1) rotate(0) translate(4 561)">
<title>Tree</title>
<polygon fill="white" stroke="none" points="-4,4 -4,-561 1379,-561 1379,4 -4,4"/>
<!-- 0 -->
<g id="node1" class="node">
<title>0</title>
<path fill="#fbfdff" stroke="black" d="M785,-557C785,-557 625,-557 625,-557 619,-557 613,-551 613,-545 613,-545 613,-474.75 613,-474.75 613,-468.75 619,-462.75 625,-462.75 625,-462.75 785,-462.75 785,-462.75 791,-462.75 797,-468.75 797,-474.75 797,-474.75 797,-545 797,-545 797,-551 791,-557 785,-557"/>
<text text-anchor="middle" x="705" y="-539.7" font-family="Helvetica,sans-Serif" font-size="14.00">22_G &lt;= 0.5</text>
<text text-anchor="middle" x="705" y="-522.45" font-family="Helvetica,sans-Serif" font-size="14.00">entropy = 1.0</text>
<text text-anchor="middle" x="705" y="-505.2" font-family="Helvetica,sans-Serif" font-size="14.00">samples = 38025</text>
<text text-anchor="middle" x="705" y="-487.95" font-family="Helvetica,sans-Serif" font-size="14.00">value = [29901, 30444]</text>
<text text-anchor="middle" x="705" y="-470.7" font-family="Helvetica,sans-Serif" font-size="14.00">class = Plant</text>
</g>
<!-- 1 -->
<g id="node2" class="node">
<title>1</title>
<path fill="#deeffb" stroke="black" d="M619,-426.75C619,-426.75 459,-426.75 459,-426.75 453,-426.75 447,-420.75 447,-414.75 447,-414.75 447,-344.5 447,-344.5 447,-338.5 453,-332.5 459,-332.5 459,-332.5 619,-332.5 619,-332.5 625,-332.5 631,-338.5 631,-344.5 631,-344.5 631,-414.75 631,-414.75 631,-420.75 625,-426.75 619,-426.75"/>
<text text-anchor="middle" x="539" y="-409.45" font-family="Helvetica,sans-Serif" font-size="14.00">23_G &lt;= 0.5</text>
<text text-anchor="middle" x="539" y="-392.2" font-family="Helvetica,sans-Serif" font-size="14.00">entropy = 0.994</text>
<text text-anchor="middle" x="539" y="-374.95" font-family="Helvetica,sans-Serif" font-size="14.00">samples = 33132</text>
<text text-anchor="middle" x="539" y="-357.7" font-family="Helvetica,sans-Serif" font-size="14.00">value = [23991, 28720]</text>
<text text-anchor="middle" x="539" y="-340.45" font-family="Helvetica,sans-Serif" font-size="14.00">class = Plant</text>
</g>
<!-- 0&#45;&gt;1 -->
<g id="edge1" class="edge">
<title>0&#45;&gt;1</title>
<path fill="none" stroke="black" d="M645.07,-462.57C633.04,-453.28 620.3,-443.44 607.99,-433.93"/>
<polygon fill="black" stroke="black" points="610.37,-431.34 600.32,-428 606.09,-436.88 610.37,-431.34"/>
<text text-anchor="middle" x="602.3" y="-447.2" font-family="Helvetica,sans-Serif" font-size="14.00">True</text>
</g>
<!-- 14638 -->
<g id="node17" class="node">
<title>14638</title>
<path fill="#eda673" stroke="black" d="M949,-426.75C949,-426.75 807,-426.75 807,-426.75 801,-426.75 795,-420.75 795,-414.75 795,-414.75 795,-344.5 795,-344.5 795,-338.5 801,-332.5 807,-332.5 807,-332.5 949,-332.5 949,-332.5 955,-332.5 961,-338.5 961,-344.5 961,-344.5 961,-414.75 961,-414.75 961,-420.75 955,-426.75 949,-426.75"/>
<text text-anchor="middle" x="878" y="-409.45" font-family="Helvetica,sans-Serif" font-size="14.00">8_G &lt;= 0.5</text>
<text text-anchor="middle" x="878" y="-392.2" font-family="Helvetica,sans-Serif" font-size="14.00">entropy = 0.771</text>
<text text-anchor="middle" x="878" y="-374.95" font-family="Helvetica,sans-Serif" font-size="14.00">samples = 4893</text>
<text text-anchor="middle" x="878" y="-357.7" font-family="Helvetica,sans-Serif" font-size="14.00">value = [5910, 1724]</text>
<text text-anchor="middle" x="878" y="-340.45" font-family="Helvetica,sans-Serif" font-size="14.00">class = Animal</text>
</g>
<!-- 0&#45;&gt;14638 -->
<g id="edge16" class="edge">
<title>0&#45;&gt;14638</title>
<path fill="none" stroke="black" d="M767.46,-462.57C780,-453.28 793.27,-443.44 806.1,-433.93"/>
<polygon fill="black" stroke="black" points="808.18,-436.74 814.13,-427.97 804.01,-431.12 808.18,-436.74"/>
<text text-anchor="middle" x="811.67" y="-447.13" font-family="Helvetica,sans-Serif" font-size="14.00">False</text>
</g>
<!-- 2 -->
<g id="node3" class="node">
<title>2</title>
<path fill="#d4eaf9" stroke="black" d="M361,-296.5C361,-296.5 201,-296.5 201,-296.5 195,-296.5 189,-290.5 189,-284.5 189,-284.5 189,-214.25 189,-214.25 189,-208.25 195,-202.25 201,-202.25 201,-202.25 361,-202.25 361,-202.25 367,-202.25 373,-208.25 373,-214.25 373,-214.25 373,-284.5 373,-284.5 373,-290.5 367,-296.5 361,-296.5"/>
<text text-anchor="middle" x="281" y="-279.2" font-family="Helvetica,sans-Serif" font-size="14.00">23_C &lt;= 0.5</text>
<text text-anchor="middle" x="281" y="-261.95" font-family="Helvetica,sans-Serif" font-size="14.00">entropy = 0.989</text>
<text text-anchor="middle" x="281" y="-244.7" font-family="Helvetica,sans-Serif" font-size="14.00">samples = 31702</text>
<text text-anchor="middle" x="281" y="-227.45" font-family="Helvetica,sans-Serif" font-size="14.00">value = [22135, 28312]</text>
<text text-anchor="middle" x="281" y="-210.2" font-family="Helvetica,sans-Serif" font-size="14.00">class = Plant</text>
</g>
<!-- 1&#45;&gt;2 -->
<g id="edge2" class="edge">
<title>1&#45;&gt;2</title>
<path fill="none" stroke="black" d="M446.58,-332.69C426.08,-322.49 404.24,-311.63 383.36,-301.26"/>
<polygon fill="black" stroke="black" points="385.07,-298.2 374.56,-296.88 381.96,-304.47 385.07,-298.2"/>
</g>
<!-- 14133 -->
<g id="node10" class="node">
<title>14133</title>
<path fill="#eb9d65" stroke="black" d="M605.5,-296.5C605.5,-296.5 472.5,-296.5 472.5,-296.5 466.5,-296.5 460.5,-290.5 460.5,-284.5 460.5,-284.5 460.5,-214.25 460.5,-214.25 460.5,-208.25 466.5,-202.25 472.5,-202.25 472.5,-202.25 605.5,-202.25 605.5,-202.25 611.5,-202.25 617.5,-208.25 617.5,-214.25 617.5,-214.25 617.5,-284.5 617.5,-284.5 617.5,-290.5 611.5,-296.5 605.5,-296.5"/>
<text text-anchor="middle" x="539" y="-279.2" font-family="Helvetica,sans-Serif" font-size="14.00">9_C &lt;= 0.5</text>
<text text-anchor="middle" x="539" y="-261.95" font-family="Helvetica,sans-Serif" font-size="14.00">entropy = 0.681</text>
<text text-anchor="middle" x="539" y="-244.7" font-family="Helvetica,sans-Serif" font-size="14.00">samples = 1430</text>
<text text-anchor="middle" x="539" y="-227.45" font-family="Helvetica,sans-Serif" font-size="14.00">value = [1856, 408]</text>
<text text-anchor="middle" x="539" y="-210.2" font-family="Helvetica,sans-Serif" font-size="14.00">class = Animal</text>
</g>
<!-- 1&#45;&gt;14133 -->
<g id="edge9" class="edge">
<title>1&#45;&gt;14133</title>
<path fill="none" stroke="black" d="M539,-332.32C539,-324.42 539,-316.13 539,-307.98"/>
<polygon fill="black" stroke="black" points="542.5,-308.12 539,-298.12 535.5,-308.12 542.5,-308.12"/>
</g>
<!-- 3 -->
<g id="node4" class="node">
<title>3</title>
<path fill="#cfe7f9" stroke="black" d="M172,-166.25C172,-166.25 12,-166.25 12,-166.25 6,-166.25 0,-160.25 0,-154.25 0,-154.25 0,-84 0,-84 0,-78 6,-72 12,-72 12,-72 172,-72 172,-72 178,-72 184,-78 184,-84 184,-84 184,-154.25 184,-154.25 184,-160.25 178,-166.25 172,-166.25"/>
<text text-anchor="middle" x="92" y="-148.95" font-family="Helvetica,sans-Serif" font-size="14.00">19_U &lt;= 0.5</text>
<text text-anchor="middle" x="92" y="-131.7" font-family="Helvetica,sans-Serif" font-size="14.00">entropy = 0.986</text>
<text text-anchor="middle" x="92" y="-114.45" font-family="Helvetica,sans-Serif" font-size="14.00">samples = 30852</text>
<text text-anchor="middle" x="92" y="-97.2" font-family="Helvetica,sans-Serif" font-size="14.00">value = [21105, 27941]</text>
<text text-anchor="middle" x="92" y="-79.95" font-family="Helvetica,sans-Serif" font-size="14.00">class = Plant</text>
</g>
<!-- 2&#45;&gt;3 -->
<g id="edge3" class="edge">
<title>2&#45;&gt;3</title>
<path fill="none" stroke="black" d="M212.5,-201.89C198.63,-192.48 183.96,-182.53 169.8,-172.92"/>
<polygon fill="black" stroke="black" points="172.08,-170.23 161.84,-167.51 168.15,-176.03 172.08,-170.23"/>
</g>
<!-- 13688 -->
<g id="node7" class="node">
<title>13688</title>
<path fill="#eeae80" stroke="black" d="M347.5,-166.25C347.5,-166.25 214.5,-166.25 214.5,-166.25 208.5,-166.25 202.5,-160.25 202.5,-154.25 202.5,-154.25 202.5,-84 202.5,-84 202.5,-78 208.5,-72 214.5,-72 214.5,-72 347.5,-72 347.5,-72 353.5,-72 359.5,-78 359.5,-84 359.5,-84 359.5,-154.25 359.5,-154.25 359.5,-160.25 353.5,-166.25 347.5,-166.25"/>
<text text-anchor="middle" x="281" y="-148.95" font-family="Helvetica,sans-Serif" font-size="14.00">25_A &lt;= 0.5</text>
<text text-anchor="middle" x="281" y="-131.7" font-family="Helvetica,sans-Serif" font-size="14.00">entropy = 0.834</text>
<text text-anchor="middle" x="281" y="-114.45" font-family="Helvetica,sans-Serif" font-size="14.00">samples = 850</text>
<text text-anchor="middle" x="281" y="-97.2" font-family="Helvetica,sans-Serif" font-size="14.00">value = [1030, 371]</text>
<text text-anchor="middle" x="281" y="-79.95" font-family="Helvetica,sans-Serif" font-size="14.00">class = Animal</text>
</g>
<!-- 2&#45;&gt;13688 -->
<g id="edge6" class="edge">
<title>2&#45;&gt;13688</title>
<path fill="none" stroke="black" d="M281,-202.07C281,-194.17 281,-185.88 281,-177.73"/>
<polygon fill="black" stroke="black" points="284.5,-177.87 281,-167.87 277.5,-177.87 284.5,-177.87"/>
</g>
<!-- 4 -->
<g id="node5" class="node">
<title>4</title>
<path fill="#c0c0c0" stroke="black" d="M71,-36C71,-36 41,-36 41,-36 35,-36 29,-30 29,-24 29,-24 29,-12 29,-12 29,-6 35,0 41,0 41,0 71,0 71,0 77,0 83,-6 83,-12 83,-12 83,-24 83,-24 83,-30 77,-36 71,-36"/>
<text text-anchor="middle" x="56" y="-13.32" font-family="Helvetica,sans-Serif" font-size="14.00">(...)</text>
</g>
<!-- 3&#45;&gt;4 -->
<g id="edge4" class="edge">
<title>3&#45;&gt;4</title>
<path fill="none" stroke="black" d="M75.16,-71.75C72.06,-63.22 68.92,-54.57 66.1,-46.8"/>
<polygon fill="black" stroke="black" points="69.46,-45.8 62.75,-37.6 62.88,-48.19 69.46,-45.8"/>
</g>
<!-- 10059 -->
<g id="node6" class="node">
<title>10059</title>
<path fill="#c0c0c0" stroke="black" d="M143,-36C143,-36 113,-36 113,-36 107,-36 101,-30 101,-24 101,-24 101,-12 101,-12 101,-6 107,0 113,0 113,0 143,0 143,0 149,0 155,-6 155,-12 155,-12 155,-24 155,-24 155,-30 149,-36 143,-36"/>
<text text-anchor="middle" x="128" y="-13.32" font-family="Helvetica,sans-Serif" font-size="14.00">(...)</text>
</g>
<!-- 3&#45;&gt;10059 -->
<g id="edge5" class="edge">
<title>3&#45;&gt;10059</title>
<path fill="none" stroke="black" d="M108.84,-71.75C111.94,-63.22 115.08,-54.57 117.9,-46.8"/>
<polygon fill="black" stroke="black" points="121.12,-48.19 121.25,-37.6 114.54,-45.8 121.12,-48.19"/>
</g>
<!-- 13689 -->
<g id="node8" class="node">
<title>13689</title>
<path fill="#c0c0c0" stroke="black" d="M253,-36C253,-36 223,-36 223,-36 217,-36 211,-30 211,-24 211,-24 211,-12 211,-12 211,-6 217,0 223,0 223,0 253,0 253,0 259,0 265,-6 265,-12 265,-12 265,-24 265,-24 265,-30 259,-36 253,-36"/>
<text text-anchor="middle" x="238" y="-13.32" font-family="Helvetica,sans-Serif" font-size="14.00">(...)</text>
</g>
<!-- 13688&#45;&gt;13689 -->
<g id="edge7" class="edge">
<title>13688&#45;&gt;13689</title>
<path fill="none" stroke="black" d="M260.88,-71.75C257.14,-63.12 253.34,-54.36 249.94,-46.53"/>
<polygon fill="black" stroke="black" points="253.24,-45.34 246.05,-37.56 246.82,-48.13 253.24,-45.34"/>
</g>
<!-- 14114 -->
<g id="node9" class="node">
<title>14114</title>
<path fill="#c0c0c0" stroke="black" d="M325,-36C325,-36 295,-36 295,-36 289,-36 283,-30 283,-24 283,-24 283,-12 283,-12 283,-6 289,0 295,0 295,0 325,0 325,0 331,0 337,-6 337,-12 337,-12 337,-24 337,-24 337,-30 331,-36 325,-36"/>
<text text-anchor="middle" x="310" y="-13.32" font-family="Helvetica,sans-Serif" font-size="14.00">(...)</text>
</g>
<!-- 13688&#45;&gt;14114 -->
<g id="edge8" class="edge">
<title>13688&#45;&gt;14114</title>
<path fill="none" stroke="black" d="M294.57,-71.75C297.03,-63.32 299.54,-54.77 301.79,-47.07"/>
<polygon fill="black" stroke="black" points="305.1,-48.21 304.55,-37.63 298.38,-46.24 305.1,-48.21"/>
</g>
<!-- 14134 -->
<g id="node11" class="node">
<title>14134</title>
<path fill="#ea975c" stroke="black" d="M522.5,-166.25C522.5,-166.25 389.5,-166.25 389.5,-166.25 383.5,-166.25 377.5,-160.25 377.5,-154.25 377.5,-154.25 377.5,-84 377.5,-84 377.5,-78 383.5,-72 389.5,-72 389.5,-72 522.5,-72 522.5,-72 528.5,-72 534.5,-78 534.5,-84 534.5,-84 534.5,-154.25 534.5,-154.25 534.5,-160.25 528.5,-166.25 522.5,-166.25"/>
<text text-anchor="middle" x="456" y="-148.95" font-family="Helvetica,sans-Serif" font-size="14.00">24_G &lt;= 0.5</text>
<text text-anchor="middle" x="456" y="-131.7" font-family="Helvetica,sans-Serif" font-size="14.00">entropy = 0.606</text>
<text text-anchor="middle" x="456" y="-114.45" font-family="Helvetica,sans-Serif" font-size="14.00">samples = 1099</text>
<text text-anchor="middle" x="456" y="-97.2" font-family="Helvetica,sans-Serif" font-size="14.00">value = [1462, 255]</text>
<text text-anchor="middle" x="456" y="-79.95" font-family="Helvetica,sans-Serif" font-size="14.00">class = Animal</text>
</g>
<!-- 14133&#45;&gt;14134 -->
<g id="edge10" class="edge">
<title>14133&#45;&gt;14134</title>
<path fill="none" stroke="black" d="M509.04,-202.07C503.51,-193.54 497.69,-184.54 492.01,-175.77"/>
<polygon fill="black" stroke="black" points="495.11,-174.12 486.74,-167.63 489.24,-177.93 495.11,-174.12"/>
</g>
<!-- 14511 -->
<g id="node14" class="node">
<title>14511</title>
<path fill="#efb286" stroke="black" d="M689,-166.25C689,-166.25 565,-166.25 565,-166.25 559,-166.25 553,-160.25 553,-154.25 553,-154.25 553,-84 553,-84 553,-78 559,-72 565,-72 565,-72 689,-72 689,-72 695,-72 701,-78 701,-84 701,-84 701,-154.25 701,-154.25 701,-160.25 695,-166.25 689,-166.25"/>
<text text-anchor="middle" x="627" y="-148.95" font-family="Helvetica,sans-Serif" font-size="14.00">17_U &lt;= 0.5</text>
<text text-anchor="middle" x="627" y="-131.7" font-family="Helvetica,sans-Serif" font-size="14.00">entropy = 0.855</text>
<text text-anchor="middle" x="627" y="-114.45" font-family="Helvetica,sans-Serif" font-size="14.00">samples = 331</text>
<text text-anchor="middle" x="627" y="-97.2" font-family="Helvetica,sans-Serif" font-size="14.00">value = [394, 153]</text>
<text text-anchor="middle" x="627" y="-79.95" font-family="Helvetica,sans-Serif" font-size="14.00">class = Animal</text>
</g>
<!-- 14133&#45;&gt;14511 -->
<g id="edge13" class="edge">
<title>14133&#45;&gt;14511</title>
<path fill="none" stroke="black" d="M570.77,-202.07C576.63,-193.54 582.8,-184.54 588.82,-175.77"/>
<polygon fill="black" stroke="black" points="591.65,-177.83 594.42,-167.61 585.88,-173.87 591.65,-177.83"/>
</g>
<!-- 14135 -->
<g id="node12" class="node">
<title>14135</title>
<path fill="#c0c0c0" stroke="black" d="M412,-36C412,-36 382,-36 382,-36 376,-36 370,-30 370,-24 370,-24 370,-12 370,-12 370,-6 376,0 382,0 382,0 412,0 412,0 418,0 424,-6 424,-12 424,-12 424,-24 424,-24 424,-30 418,-36 412,-36"/>
<text text-anchor="middle" x="397" y="-13.32" font-family="Helvetica,sans-Serif" font-size="14.00">(...)</text>
</g>
<!-- 14134&#45;&gt;14135 -->
<g id="edge11" class="edge">
<title>14134&#45;&gt;14135</title>
<path fill="none" stroke="black" d="M428.4,-71.75C423.15,-62.93 417.81,-53.96 413.06,-45.99"/>
<polygon fill="black" stroke="black" points="416.12,-44.28 408,-37.47 410.1,-47.86 416.12,-44.28"/>
</g>
<!-- 14444 -->
<g id="node13" class="node">
<title>14444</title>
<path fill="#c0c0c0" stroke="black" d="M484,-36C484,-36 454,-36 454,-36 448,-36 442,-30 442,-24 442,-24 442,-12 442,-12 442,-6 448,0 454,0 454,0 484,0 484,0 490,0 496,-6 496,-12 496,-12 496,-24 496,-24 496,-30 490,-36 484,-36"/>
<text text-anchor="middle" x="469" y="-13.32" font-family="Helvetica,sans-Serif" font-size="14.00">(...)</text>
</g>
<!-- 14134&#45;&gt;14444 -->
<g id="edge12" class="edge">
<title>14134&#45;&gt;14444</title>
<path fill="none" stroke="black" d="M462.08,-71.75C463.17,-63.42 464.28,-54.97 465.28,-47.34"/>
<polygon fill="black" stroke="black" points="468.72,-48.04 466.55,-37.67 461.78,-47.13 468.72,-48.04"/>
</g>
<!-- 14512 -->
<g id="node15" class="node">
<title>14512</title>
<path fill="#c0c0c0" stroke="black" d="M585,-36C585,-36 555,-36 555,-36 549,-36 543,-30 543,-24 543,-24 543,-12 543,-12 543,-6 549,0 555,0 555,0 585,0 585,0 591,0 597,-6 597,-12 597,-12 597,-24 597,-24 597,-30 591,-36 585,-36"/>
<text text-anchor="middle" x="570" y="-13.32" font-family="Helvetica,sans-Serif" font-size="14.00">(...)</text>
</g>
<!-- 14511&#45;&gt;14512 -->
<g id="edge14" class="edge">
<title>14511&#45;&gt;14512</title>
<path fill="none" stroke="black" d="M600.34,-71.75C595.26,-62.93 590.1,-53.96 585.52,-45.99"/>
<polygon fill="black" stroke="black" points="588.65,-44.41 580.63,-37.48 582.58,-47.9 588.65,-44.41"/>
</g>
<!-- 14611 -->
<g id="node16" class="node">
<title>14611</title>
<path fill="#c0c0c0" stroke="black" d="M657,-36C657,-36 627,-36 627,-36 621,-36 615,-30 615,-24 615,-24 615,-12 615,-12 615,-6 621,0 627,0 627,0 657,0 657,0 663,0 669,-6 669,-12 669,-12 669,-24 669,-24 669,-30 663,-36 657,-36"/>
<text text-anchor="middle" x="642" y="-13.32" font-family="Helvetica,sans-Serif" font-size="14.00">(...)</text>
</g>
<!-- 14511&#45;&gt;14611 -->
<g id="edge15" class="edge">
<title>14511&#45;&gt;14611</title>
<path fill="none" stroke="black" d="M634.02,-71.75C635.28,-63.42 636.56,-54.97 637.71,-47.34"/>
<polygon fill="black" stroke="black" points="641.14,-48.08 639.17,-37.67 634.22,-47.03 641.14,-48.08"/>
</g>
<!-- 14639 -->
<g id="node18" class="node">
<title>14639</title>
<path fill="#eb9f68" stroke="black" d="M949,-296.5C949,-296.5 807,-296.5 807,-296.5 801,-296.5 795,-290.5 795,-284.5 795,-284.5 795,-214.25 795,-214.25 795,-208.25 801,-202.25 807,-202.25 807,-202.25 949,-202.25 949,-202.25 955,-202.25 961,-208.25 961,-214.25 961,-214.25 961,-284.5 961,-284.5 961,-290.5 955,-296.5 949,-296.5"/>
<text text-anchor="middle" x="878" y="-279.2" font-family="Helvetica,sans-Serif" font-size="14.00">23_U &lt;= 0.5</text>
<text text-anchor="middle" x="878" y="-261.95" font-family="Helvetica,sans-Serif" font-size="14.00">entropy = 0.707</text>
<text text-anchor="middle" x="878" y="-244.7" font-family="Helvetica,sans-Serif" font-size="14.00">samples = 3671</text>
<text text-anchor="middle" x="878" y="-227.45" font-family="Helvetica,sans-Serif" font-size="14.00">value = [4600, 1098]</text>
<text text-anchor="middle" x="878" y="-210.2" font-family="Helvetica,sans-Serif" font-size="14.00">class = Animal</text>
</g>
<!-- 14638&#45;&gt;14639 -->
<g id="edge17" class="edge">
<title>14638&#45;&gt;14639</title>
<path fill="none" stroke="black" d="M878,-332.32C878,-324.42 878,-316.13 878,-307.98"/>
<polygon fill="black" stroke="black" points="881.5,-308.12 878,-298.12 874.5,-308.12 881.5,-308.12"/>
</g>
<!-- 16096 -->
<g id="node25" class="node">
<title>16096</title>
<path fill="#f1bd98" stroke="black" d="M1201.5,-296.5C1201.5,-296.5 1068.5,-296.5 1068.5,-296.5 1062.5,-296.5 1056.5,-290.5 1056.5,-284.5 1056.5,-284.5 1056.5,-214.25 1056.5,-214.25 1056.5,-208.25 1062.5,-202.25 1068.5,-202.25 1068.5,-202.25 1201.5,-202.25 1201.5,-202.25 1207.5,-202.25 1213.5,-208.25 1213.5,-214.25 1213.5,-214.25 1213.5,-284.5 1213.5,-284.5 1213.5,-290.5 1207.5,-296.5 1201.5,-296.5"/>
<text text-anchor="middle" x="1135" y="-279.2" font-family="Helvetica,sans-Serif" font-size="14.00">9_U &lt;= 0.5</text>
<text text-anchor="middle" x="1135" y="-261.95" font-family="Helvetica,sans-Serif" font-size="14.00">entropy = 0.908</text>
<text text-anchor="middle" x="1135" y="-244.7" font-family="Helvetica,sans-Serif" font-size="14.00">samples = 1222</text>
<text text-anchor="middle" x="1135" y="-227.45" font-family="Helvetica,sans-Serif" font-size="14.00">value = [1310, 626]</text>
<text text-anchor="middle" x="1135" y="-210.2" font-family="Helvetica,sans-Serif" font-size="14.00">class = Animal</text>
</g>
<!-- 14638&#45;&gt;16096 -->
<g id="edge24" class="edge">
<title>14638&#45;&gt;16096</title>
<path fill="none" stroke="black" d="M961.44,-336.99C988.59,-323.44 1018.82,-308.35 1046.34,-294.62"/>
<polygon fill="black" stroke="black" points="1047.6,-297.9 1054.99,-290.3 1044.48,-291.64 1047.6,-297.9"/>
</g>
<!-- 14640 -->
<g id="node19" class="node">
<title>14640</title>
<path fill="#eca26d" stroke="black" d="M873,-166.25C873,-166.25 731,-166.25 731,-166.25 725,-166.25 719,-160.25 719,-154.25 719,-154.25 719,-84 719,-84 719,-78 725,-72 731,-72 731,-72 873,-72 873,-72 879,-72 885,-78 885,-84 885,-84 885,-154.25 885,-154.25 885,-160.25 879,-166.25 873,-166.25"/>
<text text-anchor="middle" x="802" y="-148.95" font-family="Helvetica,sans-Serif" font-size="14.00">25_A &lt;= 0.5</text>
<text text-anchor="middle" x="802" y="-131.7" font-family="Helvetica,sans-Serif" font-size="14.00">entropy = 0.737</text>
<text text-anchor="middle" x="802" y="-114.45" font-family="Helvetica,sans-Serif" font-size="14.00">samples = 3149</text>
<text text-anchor="middle" x="802" y="-97.2" font-family="Helvetica,sans-Serif" font-size="14.00">value = [3860, 1011]</text>
<text text-anchor="middle" x="802" y="-79.95" font-family="Helvetica,sans-Serif" font-size="14.00">class = Animal</text>
</g>
<!-- 14639&#45;&gt;14640 -->
<g id="edge18" class="edge">
<title>14639&#45;&gt;14640</title>
<path fill="none" stroke="black" d="M850.56,-202.07C845.56,-193.63 840.29,-184.74 835.14,-176.05"/>
<polygon fill="black" stroke="black" points="838.28,-174.48 830.17,-167.66 832.26,-178.05 838.28,-174.48"/>
</g>
<!-- 15917 -->
<g id="node22" class="node">
<title>15917</title>
<path fill="#e89050" stroke="black" d="M1030.5,-166.25C1030.5,-166.25 915.5,-166.25 915.5,-166.25 909.5,-166.25 903.5,-160.25 903.5,-154.25 903.5,-154.25 903.5,-84 903.5,-84 903.5,-78 909.5,-72 915.5,-72 915.5,-72 1030.5,-72 1030.5,-72 1036.5,-72 1042.5,-78 1042.5,-84 1042.5,-84 1042.5,-154.25 1042.5,-154.25 1042.5,-160.25 1036.5,-166.25 1030.5,-166.25"/>
<text text-anchor="middle" x="973" y="-148.95" font-family="Helvetica,sans-Serif" font-size="14.00">16_C &lt;= 0.5</text>
<text text-anchor="middle" x="973" y="-131.7" font-family="Helvetica,sans-Serif" font-size="14.00">entropy = 0.485</text>
<text text-anchor="middle" x="973" y="-114.45" font-family="Helvetica,sans-Serif" font-size="14.00">samples = 522</text>
<text text-anchor="middle" x="973" y="-97.2" font-family="Helvetica,sans-Serif" font-size="14.00">value = [740, 87]</text>
<text text-anchor="middle" x="973" y="-79.95" font-family="Helvetica,sans-Serif" font-size="14.00">class = Animal</text>
</g>
<!-- 14639&#45;&gt;15917 -->
<g id="edge21" class="edge">
<title>14639&#45;&gt;15917</title>
<path fill="none" stroke="black" d="M912.3,-202.07C918.69,-193.45 925.42,-184.35 931.99,-175.49"/>
<polygon fill="black" stroke="black" points="934.71,-177.69 937.85,-167.57 929.09,-173.53 934.71,-177.69"/>
</g>
<!-- 14641 -->
<g id="node20" class="node">
<title>14641</title>
<path fill="#c0c0c0" stroke="black" d="M758,-36C758,-36 728,-36 728,-36 722,-36 716,-30 716,-24 716,-24 716,-12 716,-12 716,-6 722,0 728,0 728,0 758,0 758,0 764,0 770,-6 770,-12 770,-12 770,-24 770,-24 770,-30 764,-36 758,-36"/>
<text text-anchor="middle" x="743" y="-13.32" font-family="Helvetica,sans-Serif" font-size="14.00">(...)</text>
</g>
<!-- 14640&#45;&gt;14641 -->
<g id="edge19" class="edge">
<title>14640&#45;&gt;14641</title>
<path fill="none" stroke="black" d="M774.4,-71.75C769.15,-62.93 763.81,-53.96 759.06,-45.99"/>
<polygon fill="black" stroke="black" points="762.12,-44.28 754,-37.47 756.1,-47.86 762.12,-44.28"/>
</g>
<!-- 15894 -->
<g id="node21" class="node">
<title>15894</title>
<path fill="#c0c0c0" stroke="black" d="M830,-36C830,-36 800,-36 800,-36 794,-36 788,-30 788,-24 788,-24 788,-12 788,-12 788,-6 794,0 800,0 800,0 830,0 830,0 836,0 842,-6 842,-12 842,-12 842,-24 842,-24 842,-30 836,-36 830,-36"/>
<text text-anchor="middle" x="815" y="-13.32" font-family="Helvetica,sans-Serif" font-size="14.00">(...)</text>
</g>
<!-- 14640&#45;&gt;15894 -->
<g id="edge20" class="edge">
<title>14640&#45;&gt;15894</title>
<path fill="none" stroke="black" d="M808.08,-71.75C809.17,-63.42 810.28,-54.97 811.28,-47.34"/>
<polygon fill="black" stroke="black" points="814.72,-48.04 812.55,-37.67 807.78,-47.13 814.72,-48.04"/>
</g>
<!-- 15918 -->
<g id="node23" class="node">
<title>15918</title>
<path fill="#c0c0c0" stroke="black" d="M925,-36C925,-36 895,-36 895,-36 889,-36 883,-30 883,-24 883,-24 883,-12 883,-12 883,-6 889,0 895,0 895,0 925,0 925,0 931,0 937,-6 937,-12 937,-12 937,-24 937,-24 937,-30 931,-36 925,-36"/>
<text text-anchor="middle" x="910" y="-13.32" font-family="Helvetica,sans-Serif" font-size="14.00">(...)</text>
</g>
<!-- 15917&#45;&gt;15918 -->
<g id="edge22" class="edge">
<title>15917&#45;&gt;15918</title>
<path fill="none" stroke="black" d="M943.53,-71.75C937.85,-62.83 932.09,-53.76 926.98,-45.72"/>
<polygon fill="black" stroke="black" points="930.04,-44.01 921.73,-37.45 924.14,-47.77 930.04,-44.01"/>
</g>
<!-- 16041 -->
<g id="node24" class="node">
<title>16041</title>
<path fill="#c0c0c0" stroke="black" d="M997,-36C997,-36 967,-36 967,-36 961,-36 955,-30 955,-24 955,-24 955,-12 955,-12 955,-6 961,0 967,0 967,0 997,0 997,0 1003,0 1009,-6 1009,-12 1009,-12 1009,-24 1009,-24 1009,-30 1003,-36 997,-36"/>
<text text-anchor="middle" x="982" y="-13.32" font-family="Helvetica,sans-Serif" font-size="14.00">(...)</text>
</g>
<!-- 15917&#45;&gt;16041 -->
<g id="edge23" class="edge">
<title>15917&#45;&gt;16041</title>
<path fill="none" stroke="black" d="M977.21,-71.75C977.96,-63.52 978.72,-55.17 979.4,-47.61"/>
<polygon fill="black" stroke="black" points="982.89,-47.96 980.3,-37.68 975.91,-47.32 982.89,-47.96"/>
</g>
<!-- 16097 -->
<g id="node26" class="node">
<title>16097</title>
<path fill="#f5ccaf" stroke="black" d="M1197,-166.25C1197,-166.25 1073,-166.25 1073,-166.25 1067,-166.25 1061,-160.25 1061,-154.25 1061,-154.25 1061,-84 1061,-84 1061,-78 1067,-72 1073,-72 1073,-72 1197,-72 1197,-72 1203,-72 1209,-78 1209,-84 1209,-84 1209,-154.25 1209,-154.25 1209,-160.25 1203,-166.25 1197,-166.25"/>
<text text-anchor="middle" x="1135" y="-148.95" font-family="Helvetica,sans-Serif" font-size="14.00">6_G &lt;= 0.5</text>
<text text-anchor="middle" x="1135" y="-131.7" font-family="Helvetica,sans-Serif" font-size="14.00">entropy = 0.954</text>
<text text-anchor="middle" x="1135" y="-114.45" font-family="Helvetica,sans-Serif" font-size="14.00">samples = 838</text>
<text text-anchor="middle" x="1135" y="-97.2" font-family="Helvetica,sans-Serif" font-size="14.00">value = [826, 494]</text>
<text text-anchor="middle" x="1135" y="-79.95" font-family="Helvetica,sans-Serif" font-size="14.00">class = Animal</text>
</g>
<!-- 16096&#45;&gt;16097 -->
<g id="edge25" class="edge">
<title>16096&#45;&gt;16097</title>
<path fill="none" stroke="black" d="M1135,-202.07C1135,-194.17 1135,-185.88 1135,-177.73"/>
<polygon fill="black" stroke="black" points="1138.5,-177.87 1135,-167.87 1131.5,-177.87 1138.5,-177.87"/>
</g>
<!-- 16494 -->
<g id="node29" class="node">
<title>16494</title>
<path fill="#eca36f" stroke="black" d="M1363,-166.25C1363,-166.25 1239,-166.25 1239,-166.25 1233,-166.25 1227,-160.25 1227,-154.25 1227,-154.25 1227,-84 1227,-84 1227,-78 1233,-72 1239,-72 1239,-72 1363,-72 1363,-72 1369,-72 1375,-78 1375,-84 1375,-84 1375,-154.25 1375,-154.25 1375,-160.25 1369,-166.25 1363,-166.25"/>
<text text-anchor="middle" x="1301" y="-148.95" font-family="Helvetica,sans-Serif" font-size="14.00">16_C &lt;= 0.5</text>
<text text-anchor="middle" x="1301" y="-131.7" font-family="Helvetica,sans-Serif" font-size="14.00">entropy = 0.75</text>
<text text-anchor="middle" x="1301" y="-114.45" font-family="Helvetica,sans-Serif" font-size="14.00">samples = 384</text>
<text text-anchor="middle" x="1301" y="-97.2" font-family="Helvetica,sans-Serif" font-size="14.00">value = [484, 132]</text>
<text text-anchor="middle" x="1301" y="-79.95" font-family="Helvetica,sans-Serif" font-size="14.00">class = Animal</text>
</g>
<!-- 16096&#45;&gt;16494 -->
<g id="edge28" class="edge">
<title>16096&#45;&gt;16494</title>
<path fill="none" stroke="black" d="M1194.93,-202.07C1206.96,-192.78 1219.7,-182.94 1232.01,-173.43"/>
<polygon fill="black" stroke="black" points="1233.91,-176.38 1239.68,-167.5 1229.63,-170.84 1233.91,-176.38"/>
</g>
<!-- 16098 -->
<g id="node27" class="node">
<title>16098</title>
<path fill="#c0c0c0" stroke="black" d="M1107,-36C1107,-36 1077,-36 1077,-36 1071,-36 1065,-30 1065,-24 1065,-24 1065,-12 1065,-12 1065,-6 1071,0 1077,0 1077,0 1107,0 1107,0 1113,0 1119,-6 1119,-12 1119,-12 1119,-24 1119,-24 1119,-30 1113,-36 1107,-36"/>
<text text-anchor="middle" x="1092" y="-13.32" font-family="Helvetica,sans-Serif" font-size="14.00">(...)</text>
</g>
<!-- 16097&#45;&gt;16098 -->
<g id="edge26" class="edge">
<title>16097&#45;&gt;16098</title>
<path fill="none" stroke="black" d="M1114.88,-71.75C1111.14,-63.12 1107.34,-54.36 1103.94,-46.53"/>
<polygon fill="black" stroke="black" points="1107.24,-45.34 1100.05,-37.56 1100.82,-48.13 1107.24,-45.34"/>
</g>
<!-- 16387 -->
<g id="node28" class="node">
<title>16387</title>
<path fill="#c0c0c0" stroke="black" d="M1179,-36C1179,-36 1149,-36 1149,-36 1143,-36 1137,-30 1137,-24 1137,-24 1137,-12 1137,-12 1137,-6 1143,0 1149,0 1149,0 1179,0 1179,0 1185,0 1191,-6 1191,-12 1191,-12 1191,-24 1191,-24 1191,-30 1185,-36 1179,-36"/>
<text text-anchor="middle" x="1164" y="-13.32" font-family="Helvetica,sans-Serif" font-size="14.00">(...)</text>
</g>
<!-- 16097&#45;&gt;16387 -->
<g id="edge27" class="edge">
<title>16097&#45;&gt;16387</title>
<path fill="none" stroke="black" d="M1148.57,-71.75C1151.03,-63.32 1153.54,-54.77 1155.79,-47.07"/>
<polygon fill="black" stroke="black" points="1159.1,-48.21 1158.55,-37.63 1152.38,-46.24 1159.1,-48.21"/>
</g>
<!-- 16495 -->
<g id="node30" class="node">
<title>16495</title>
<path fill="#c0c0c0" stroke="black" d="M1280,-36C1280,-36 1250,-36 1250,-36 1244,-36 1238,-30 1238,-24 1238,-24 1238,-12 1238,-12 1238,-6 1244,0 1250,0 1250,0 1280,0 1280,0 1286,0 1292,-6 1292,-12 1292,-12 1292,-24 1292,-24 1292,-30 1286,-36 1280,-36"/>
<text text-anchor="middle" x="1265" y="-13.32" font-family="Helvetica,sans-Serif" font-size="14.00">(...)</text>
</g>
<!-- 16494&#45;&gt;16495 -->
<g id="edge29" class="edge">
<title>16494&#45;&gt;16495</title>
<path fill="none" stroke="black" d="M1284.16,-71.75C1281.06,-63.22 1277.92,-54.57 1275.1,-46.8"/>
<polygon fill="black" stroke="black" points="1278.46,-45.8 1271.75,-37.6 1271.88,-48.19 1278.46,-45.8"/>
</g>
<!-- 16628 -->
<g id="node31" class="node">
<title>16628</title>
<path fill="#c0c0c0" stroke="black" d="M1352,-36C1352,-36 1322,-36 1322,-36 1316,-36 1310,-30 1310,-24 1310,-24 1310,-12 1310,-12 1310,-6 1316,0 1322,0 1322,0 1352,0 1352,0 1358,0 1364,-6 1364,-12 1364,-12 1364,-24 1364,-24 1364,-30 1358,-36 1352,-36"/>
<text text-anchor="middle" x="1337" y="-13.32" font-family="Helvetica,sans-Serif" font-size="14.00">(...)</text>
</g>
<!-- 16494&#45;&gt;16628 -->
<g id="edge30" class="edge">
<title>16494&#45;&gt;16628</title>
<path fill="none" stroke="black" d="M1317.84,-71.75C1320.94,-63.22 1324.08,-54.57 1326.9,-46.8"/>
<polygon fill="black" stroke="black" points="1330.12,-48.19 1330.25,-37.6 1323.54,-45.8 1330.12,-48.19"/>
</g>
</g>
</svg>
