<?xml version="1.0" encoding="UTF-8" standalone="no"?>
<!DOCTYPE svg PUBLIC "-//W3C//DTD SVG 1.1//EN"
 "http://www.w3.org/Graphics/SVG/1.1/DTD/svg11.dtd">
<!-- Generated by graphviz version 12.0.0 (20240803.0821)
 -->
<!-- Title: Tree Pages: 1 -->
<svg width="1400pt" height="565pt"
 viewBox="0.00 0.00 1400.00 565.00" xmlns="http://www.w3.org/2000/svg" xmlns:xlink="http://www.w3.org/1999/xlink">
<g id="graph0" class="graph" transform="scale(1 1) rotate(0) translate(4 561)">
<title>Tree</title>
<polygon fill="white" stroke="none" points="-4,4 -4,-561 1396,-561 1396,4 -4,4"/>
<!-- 0 -->
<g id="node1" class="node">
<title>0</title>
<path fill="#ffffff" stroke="black" d="M809,-557C809,-557 649,-557 649,-557 643,-557 637,-551 637,-545 637,-545 637,-474.75 637,-474.75 637,-468.75 643,-462.75 649,-462.75 649,-462.75 809,-462.75 809,-462.75 815,-462.75 821,-468.75 821,-474.75 821,-474.75 821,-545 821,-545 821,-551 815,-557 809,-557"/>
<text text-anchor="middle" x="729" y="-539.7" font-family="Helvetica,sans-Serif" font-size="14.00">23_G &lt;= 0.5</text>
<text text-anchor="middle" x="729" y="-522.45" font-family="Helvetica,sans-Serif" font-size="14.00">entropy = 1.0</text>
<text text-anchor="middle" x="729" y="-505.2" font-family="Helvetica,sans-Serif" font-size="14.00">samples = 38141</text>
<text text-anchor="middle" x="729" y="-487.95" font-family="Helvetica,sans-Serif" font-size="14.00">value = [30167, 30178]</text>
<text text-anchor="middle" x="729" y="-470.7" font-family="Helvetica,sans-Serif" font-size="14.00">class = Plant</text>
</g>
<!-- 1 -->
<g id="node2" class="node">
<title>1</title>
<path fill="#f5fafe" stroke="black" d="M636,-426.75C636,-426.75 476,-426.75 476,-426.75 470,-426.75 464,-420.75 464,-414.75 464,-414.75 464,-344.5 464,-344.5 464,-338.5 470,-332.5 476,-332.5 476,-332.5 636,-332.5 636,-332.5 642,-332.5 648,-338.5 648,-344.5 648,-344.5 648,-414.75 648,-414.75 648,-420.75 642,-426.75 636,-426.75"/>
<text text-anchor="middle" x="556" y="-409.45" font-family="Helvetica,sans-Serif" font-size="14.00">22_U &lt;= 0.5</text>
<text text-anchor="middle" x="556" y="-392.2" font-family="Helvetica,sans-Serif" font-size="14.00">entropy = 0.999</text>
<text text-anchor="middle" x="556" y="-374.95" font-family="Helvetica,sans-Serif" font-size="14.00">samples = 36218</text>
<text text-anchor="middle" x="556" y="-357.7" font-family="Helvetica,sans-Serif" font-size="14.00">value = [27893, 29454]</text>
<text text-anchor="middle" x="556" y="-340.45" font-family="Helvetica,sans-Serif" font-size="14.00">class = Plant</text>
</g>
<!-- 0&#45;&gt;1 -->
<g id="edge1" class="edge">
<title>0&#45;&gt;1</title>
<path fill="none" stroke="black" d="M666.54,-462.57C654,-453.28 640.73,-443.44 627.9,-433.93"/>
<polygon fill="black" stroke="black" points="629.99,-431.12 619.87,-427.97 625.82,-436.74 629.99,-431.12"/>
<text text-anchor="middle" x="622.33" y="-447.13" font-family="Helvetica,sans-Serif" font-size="14.00">True</text>
</g>
<!-- 16264 -->
<g id="node17" class="node">
<title>16264</title>
<path fill="#eda978" stroke="black" d="M968.5,-426.75C968.5,-426.75 835.5,-426.75 835.5,-426.75 829.5,-426.75 823.5,-420.75 823.5,-414.75 823.5,-414.75 823.5,-344.5 823.5,-344.5 823.5,-338.5 829.5,-332.5 835.5,-332.5 835.5,-332.5 968.5,-332.5 968.5,-332.5 974.5,-332.5 980.5,-338.5 980.5,-344.5 980.5,-344.5 980.5,-414.75 980.5,-414.75 980.5,-420.75 974.5,-426.75 968.5,-426.75"/>
<text text-anchor="middle" x="902" y="-409.45" font-family="Helvetica,sans-Serif" font-size="14.00">4_C &lt;= 0.5</text>
<text text-anchor="middle" x="902" y="-392.2" font-family="Helvetica,sans-Serif" font-size="14.00">entropy = 0.798</text>
<text text-anchor="middle" x="902" y="-374.95" font-family="Helvetica,sans-Serif" font-size="14.00">samples = 1923</text>
<text text-anchor="middle" x="902" y="-357.7" font-family="Helvetica,sans-Serif" font-size="14.00">value = [2274, 724]</text>
<text text-anchor="middle" x="902" y="-340.45" font-family="Helvetica,sans-Serif" font-size="14.00">class = Animal</text>
</g>
<!-- 0&#45;&gt;16264 -->
<g id="edge16" class="edge">
<title>0&#45;&gt;16264</title>
<path fill="none" stroke="black" d="M791.46,-462.57C804,-453.28 817.27,-443.44 830.1,-433.93"/>
<polygon fill="black" stroke="black" points="832.18,-436.74 838.13,-427.97 828.01,-431.12 832.18,-436.74"/>
<text text-anchor="middle" x="835.67" y="-447.13" font-family="Helvetica,sans-Serif" font-size="14.00">False</text>
</g>
<!-- 2 -->
<g id="node3" class="node">
<title>2</title>
<path fill="#d4eaf9" stroke="black" d="M365,-296.5C365,-296.5 205,-296.5 205,-296.5 199,-296.5 193,-290.5 193,-284.5 193,-284.5 193,-214.25 193,-214.25 193,-208.25 199,-202.25 205,-202.25 205,-202.25 365,-202.25 365,-202.25 371,-202.25 377,-208.25 377,-214.25 377,-214.25 377,-284.5 377,-284.5 377,-290.5 371,-296.5 365,-296.5"/>
<text text-anchor="middle" x="285" y="-279.2" font-family="Helvetica,sans-Serif" font-size="14.00">9_U &lt;= 0.5</text>
<text text-anchor="middle" x="285" y="-261.95" font-family="Helvetica,sans-Serif" font-size="14.00">entropy = 0.989</text>
<text text-anchor="middle" x="285" y="-244.7" font-family="Helvetica,sans-Serif" font-size="14.00">samples = 31701</text>
<text text-anchor="middle" x="285" y="-227.45" font-family="Helvetica,sans-Serif" font-size="14.00">value = [22056, 28164]</text>
<text text-anchor="middle" x="285" y="-210.2" font-family="Helvetica,sans-Serif" font-size="14.00">class = Plant</text>
</g>
<!-- 1&#45;&gt;2 -->
<g id="edge2" class="edge">
<title>1&#45;&gt;2</title>
<path fill="none" stroke="black" d="M463.87,-335.03C439.33,-323.41 412.66,-310.79 387.59,-298.93"/>
<polygon fill="black" stroke="black" points="389.24,-295.83 378.7,-294.72 386.24,-302.16 389.24,-295.83"/>
</g>
<!-- 14483 -->
<g id="node10" class="node">
<title>14483</title>
<path fill="#eb9d65" stroke="black" d="M627,-296.5C627,-296.5 485,-296.5 485,-296.5 479,-296.5 473,-290.5 473,-284.5 473,-284.5 473,-214.25 473,-214.25 473,-208.25 479,-202.25 485,-202.25 485,-202.25 627,-202.25 627,-202.25 633,-202.25 639,-208.25 639,-214.25 639,-214.25 639,-284.5 639,-284.5 639,-290.5 633,-296.5 627,-296.5"/>
<text text-anchor="middle" x="556" y="-279.2" font-family="Helvetica,sans-Serif" font-size="14.00">1_A &lt;= 0.5</text>
<text text-anchor="middle" x="556" y="-261.95" font-family="Helvetica,sans-Serif" font-size="14.00">entropy = 0.682</text>
<text text-anchor="middle" x="556" y="-244.7" font-family="Helvetica,sans-Serif" font-size="14.00">samples = 4517</text>
<text text-anchor="middle" x="556" y="-227.45" font-family="Helvetica,sans-Serif" font-size="14.00">value = [5837, 1290]</text>
<text text-anchor="middle" x="556" y="-210.2" font-family="Helvetica,sans-Serif" font-size="14.00">class = Animal</text>
</g>
<!-- 1&#45;&gt;14483 -->
<g id="edge9" class="edge">
<title>1&#45;&gt;14483</title>
<path fill="none" stroke="black" d="M556,-332.32C556,-324.42 556,-316.13 556,-307.98"/>
<polygon fill="black" stroke="black" points="559.5,-308.12 556,-298.12 552.5,-308.12 559.5,-308.12"/>
</g>
<!-- 3 -->
<g id="node4" class="node">
<title>3</title>
<path fill="#baddf6" stroke="black" d="M172,-166.25C172,-166.25 12,-166.25 12,-166.25 6,-166.25 0,-160.25 0,-154.25 0,-154.25 0,-84 0,-84 0,-78 6,-72 12,-72 12,-72 172,-72 172,-72 178,-72 184,-78 184,-84 184,-84 184,-154.25 184,-154.25 184,-160.25 178,-166.25 172,-166.25"/>
<text text-anchor="middle" x="92" y="-148.95" font-family="Helvetica,sans-Serif" font-size="14.00">8_G &lt;= 0.5</text>
<text text-anchor="middle" x="92" y="-131.7" font-family="Helvetica,sans-Serif" font-size="14.00">entropy = 0.968</text>
<text text-anchor="middle" x="92" y="-114.45" font-family="Helvetica,sans-Serif" font-size="14.00">samples = 23223</text>
<text text-anchor="middle" x="92" y="-97.2" font-family="Helvetica,sans-Serif" font-size="14.00">value = [14536, 22228]</text>
<text text-anchor="middle" x="92" y="-79.95" font-family="Helvetica,sans-Serif" font-size="14.00">class = Plant</text>
</g>
<!-- 2&#45;&gt;3 -->
<g id="edge3" class="edge">
<title>2&#45;&gt;3</title>
<path fill="none" stroke="black" d="M215.05,-201.89C200.89,-192.48 185.9,-182.53 171.45,-172.92"/>
<polygon fill="black" stroke="black" points="173.56,-170.12 163.3,-167.5 169.69,-175.95 173.56,-170.12"/>
</g>
<!-- 10246 -->
<g id="node7" class="node">
<title>10246</title>
<path fill="#fae4d5" stroke="black" d="M356,-166.25C356,-166.25 214,-166.25 214,-166.25 208,-166.25 202,-160.25 202,-154.25 202,-154.25 202,-84 202,-84 202,-78 208,-72 214,-72 214,-72 356,-72 356,-72 362,-72 368,-78 368,-84 368,-84 368,-154.25 368,-154.25 368,-160.25 362,-166.25 356,-166.25"/>
<text text-anchor="middle" x="285" y="-148.95" font-family="Helvetica,sans-Serif" font-size="14.00">23_U &lt;= 0.5</text>
<text text-anchor="middle" x="285" y="-131.7" font-family="Helvetica,sans-Serif" font-size="14.00">entropy = 0.99</text>
<text text-anchor="middle" x="285" y="-114.45" font-family="Helvetica,sans-Serif" font-size="14.00">samples = 8478</text>
<text text-anchor="middle" x="285" y="-97.2" font-family="Helvetica,sans-Serif" font-size="14.00">value = [7520, 5936]</text>
<text text-anchor="middle" x="285" y="-79.95" font-family="Helvetica,sans-Serif" font-size="14.00">class = Animal</text>
</g>
<!-- 2&#45;&gt;10246 -->
<g id="edge6" class="edge">
<title>2&#45;&gt;10246</title>
<path fill="none" stroke="black" d="M285,-202.07C285,-194.17 285,-185.88 285,-177.73"/>
<polygon fill="black" stroke="black" points="288.5,-177.87 285,-167.87 281.5,-177.87 288.5,-177.87"/>
</g>
<!-- 4 -->
<g id="node5" class="node">
<title>4</title>
<path fill="#c0c0c0" stroke="black" d="M71,-36C71,-36 41,-36 41,-36 35,-36 29,-30 29,-24 29,-24 29,-12 29,-12 29,-6 35,0 41,0 41,0 71,0 71,0 77,0 83,-6 83,-12 83,-12 83,-24 83,-24 83,-30 77,-36 71,-36"/>
<text text-anchor="middle" x="56" y="-13.32" font-family="Helvetica,sans-Serif" font-size="14.00">(...)</text>
</g>
<!-- 3&#45;&gt;4 -->
<g id="edge4" class="edge">
<title>3&#45;&gt;4</title>
<path fill="none" stroke="black" d="M75.16,-71.75C72.06,-63.22 68.92,-54.57 66.1,-46.8"/>
<polygon fill="black" stroke="black" points="69.46,-45.8 62.75,-37.6 62.88,-48.19 69.46,-45.8"/>
</g>
<!-- 7451 -->
<g id="node6" class="node">
<title>7451</title>
<path fill="#c0c0c0" stroke="black" d="M143,-36C143,-36 113,-36 113,-36 107,-36 101,-30 101,-24 101,-24 101,-12 101,-12 101,-6 107,0 113,0 113,0 143,0 143,0 149,0 155,-6 155,-12 155,-12 155,-24 155,-24 155,-30 149,-36 143,-36"/>
<text text-anchor="middle" x="128" y="-13.32" font-family="Helvetica,sans-Serif" font-size="14.00">(...)</text>
</g>
<!-- 3&#45;&gt;7451 -->
<g id="edge5" class="edge">
<title>3&#45;&gt;7451</title>
<path fill="none" stroke="black" d="M108.84,-71.75C111.94,-63.22 115.08,-54.57 117.9,-46.8"/>
<polygon fill="black" stroke="black" points="121.12,-48.19 121.25,-37.6 114.54,-45.8 121.12,-48.19"/>
</g>
<!-- 10247 -->
<g id="node8" class="node">
<title>10247</title>
<path fill="#c0c0c0" stroke="black" d="M266,-36C266,-36 236,-36 236,-36 230,-36 224,-30 224,-24 224,-24 224,-12 224,-12 224,-6 230,0 236,0 236,0 266,0 266,0 272,0 278,-6 278,-12 278,-12 278,-24 278,-24 278,-30 272,-36 266,-36"/>
<text text-anchor="middle" x="251" y="-13.32" font-family="Helvetica,sans-Serif" font-size="14.00">(...)</text>
</g>
<!-- 10246&#45;&gt;10247 -->
<g id="edge7" class="edge">
<title>10246&#45;&gt;10247</title>
<path fill="none" stroke="black" d="M269.1,-71.75C266.17,-63.22 263.2,-54.57 260.53,-46.8"/>
<polygon fill="black" stroke="black" points="263.94,-45.93 257.38,-37.6 257.32,-48.2 263.94,-45.93"/>
</g>
<!-- 14318 -->
<g id="node9" class="node">
<title>14318</title>
<path fill="#c0c0c0" stroke="black" d="M338,-36C338,-36 308,-36 308,-36 302,-36 296,-30 296,-24 296,-24 296,-12 296,-12 296,-6 302,0 308,0 308,0 338,0 338,0 344,0 350,-6 350,-12 350,-12 350,-24 350,-24 350,-30 344,-36 338,-36"/>
<text text-anchor="middle" x="323" y="-13.32" font-family="Helvetica,sans-Serif" font-size="14.00">(...)</text>
</g>
<!-- 10246&#45;&gt;14318 -->
<g id="edge8" class="edge">
<title>10246&#45;&gt;14318</title>
<path fill="none" stroke="black" d="M302.78,-71.75C306.05,-63.22 309.37,-54.57 312.34,-46.8"/>
<polygon fill="black" stroke="black" points="315.56,-48.18 315.88,-37.59 309.03,-45.67 315.56,-48.18"/>
</g>
<!-- 14484 -->
<g id="node11" class="node">
<title>14484</title>
<path fill="#eca26c" stroke="black" d="M540,-166.25C540,-166.25 398,-166.25 398,-166.25 392,-166.25 386,-160.25 386,-154.25 386,-154.25 386,-84 386,-84 386,-78 392,-72 398,-72 398,-72 540,-72 540,-72 546,-72 552,-78 552,-84 552,-84 552,-154.25 552,-154.25 552,-160.25 546,-166.25 540,-166.25"/>
<text text-anchor="middle" x="469" y="-148.95" font-family="Helvetica,sans-Serif" font-size="14.00">9_G &lt;= 0.5</text>
<text text-anchor="middle" x="469" y="-131.7" font-family="Helvetica,sans-Serif" font-size="14.00">entropy = 0.732</text>
<text text-anchor="middle" x="469" y="-114.45" font-family="Helvetica,sans-Serif" font-size="14.00">samples = 3343</text>
<text text-anchor="middle" x="469" y="-97.2" font-family="Helvetica,sans-Serif" font-size="14.00">value = [4179, 1078]</text>
<text text-anchor="middle" x="469" y="-79.95" font-family="Helvetica,sans-Serif" font-size="14.00">class = Animal</text>
</g>
<!-- 14483&#45;&gt;14484 -->
<g id="edge10" class="edge">
<title>14483&#45;&gt;14484</title>
<path fill="none" stroke="black" d="M524.59,-202.07C518.8,-193.54 512.7,-184.54 506.75,-175.77"/>
<polygon fill="black" stroke="black" points="509.72,-173.92 501.21,-167.61 503.93,-177.85 509.72,-173.92"/>
</g>
<!-- 15831 -->
<g id="node14" class="node">
<title>15831</title>
<path fill="#e89152" stroke="black" d="M715.5,-166.25C715.5,-166.25 582.5,-166.25 582.5,-166.25 576.5,-166.25 570.5,-160.25 570.5,-154.25 570.5,-154.25 570.5,-84 570.5,-84 570.5,-78 576.5,-72 582.5,-72 582.5,-72 715.5,-72 715.5,-72 721.5,-72 727.5,-78 727.5,-84 727.5,-84 727.5,-154.25 727.5,-154.25 727.5,-160.25 721.5,-166.25 715.5,-166.25"/>
<text text-anchor="middle" x="649" y="-148.95" font-family="Helvetica,sans-Serif" font-size="14.00">25_U &lt;= 0.5</text>
<text text-anchor="middle" x="649" y="-131.7" font-family="Helvetica,sans-Serif" font-size="14.00">entropy = 0.51</text>
<text text-anchor="middle" x="649" y="-114.45" font-family="Helvetica,sans-Serif" font-size="14.00">samples = 1174</text>
<text text-anchor="middle" x="649" y="-97.2" font-family="Helvetica,sans-Serif" font-size="14.00">value = [1658, 212]</text>
<text text-anchor="middle" x="649" y="-79.95" font-family="Helvetica,sans-Serif" font-size="14.00">class = Animal</text>
</g>
<!-- 14483&#45;&gt;15831 -->
<g id="edge13" class="edge">
<title>14483&#45;&gt;15831</title>
<path fill="none" stroke="black" d="M589.58,-202.07C595.83,-193.45 602.43,-184.35 608.85,-175.49"/>
<polygon fill="black" stroke="black" points="611.55,-177.73 614.59,-167.58 605.88,-173.62 611.55,-177.73"/>
</g>
<!-- 14485 -->
<g id="node12" class="node">
<title>14485</title>
<path fill="#c0c0c0" stroke="black" d="M430,-36C430,-36 400,-36 400,-36 394,-36 388,-30 388,-24 388,-24 388,-12 388,-12 388,-6 394,0 400,0 400,0 430,0 430,0 436,0 442,-6 442,-12 442,-12 442,-24 442,-24 442,-30 436,-36 430,-36"/>
<text text-anchor="middle" x="415" y="-13.32" font-family="Helvetica,sans-Serif" font-size="14.00">(...)</text>
</g>
<!-- 14484&#45;&gt;14485 -->
<g id="edge11" class="edge">
<title>14484&#45;&gt;14485</title>
<path fill="none" stroke="black" d="M443.74,-71.75C438.98,-63.03 434.16,-54.16 429.85,-46.26"/>
<polygon fill="black" stroke="black" points="432.94,-44.61 425.08,-37.5 426.79,-47.96 432.94,-44.61"/>
</g>
<!-- 15472 -->
<g id="node13" class="node">
<title>15472</title>
<path fill="#c0c0c0" stroke="black" d="M502,-36C502,-36 472,-36 472,-36 466,-36 460,-30 460,-24 460,-24 460,-12 460,-12 460,-6 466,0 472,0 472,0 502,0 502,0 508,0 514,-6 514,-12 514,-12 514,-24 514,-24 514,-30 508,-36 502,-36"/>
<text text-anchor="middle" x="487" y="-13.32" font-family="Helvetica,sans-Serif" font-size="14.00">(...)</text>
</g>
<!-- 14484&#45;&gt;15472 -->
<g id="edge12" class="edge">
<title>14484&#45;&gt;15472</title>
<path fill="none" stroke="black" d="M477.42,-71.75C478.93,-63.42 480.47,-54.97 481.85,-47.34"/>
<polygon fill="black" stroke="black" points="485.27,-48.13 483.61,-37.66 478.38,-46.88 485.27,-48.13"/>
</g>
<!-- 15832 -->
<g id="node15" class="node">
<title>15832</title>
<path fill="#c0c0c0" stroke="black" d="M607,-36C607,-36 577,-36 577,-36 571,-36 565,-30 565,-24 565,-24 565,-12 565,-12 565,-6 571,0 577,0 577,0 607,0 607,0 613,0 619,-6 619,-12 619,-12 619,-24 619,-24 619,-30 613,-36 607,-36"/>
<text text-anchor="middle" x="592" y="-13.32" font-family="Helvetica,sans-Serif" font-size="14.00">(...)</text>
</g>
<!-- 15831&#45;&gt;15832 -->
<g id="edge14" class="edge">
<title>15831&#45;&gt;15832</title>
<path fill="none" stroke="black" d="M622.34,-71.75C617.26,-62.93 612.1,-53.96 607.52,-45.99"/>
<polygon fill="black" stroke="black" points="610.65,-44.41 602.63,-37.48 604.58,-47.9 610.65,-44.41"/>
</g>
<!-- 16259 -->
<g id="node16" class="node">
<title>16259</title>
<path fill="#c0c0c0" stroke="black" d="M679,-36C679,-36 649,-36 649,-36 643,-36 637,-30 637,-24 637,-24 637,-12 637,-12 637,-6 643,0 649,0 649,0 679,0 679,0 685,0 691,-6 691,-12 691,-12 691,-24 691,-24 691,-30 685,-36 679,-36"/>
<text text-anchor="middle" x="664" y="-13.32" font-family="Helvetica,sans-Serif" font-size="14.00">(...)</text>
</g>
<!-- 15831&#45;&gt;16259 -->
<g id="edge15" class="edge">
<title>15831&#45;&gt;16259</title>
<path fill="none" stroke="black" d="M656.02,-71.75C657.28,-63.42 658.56,-54.97 659.71,-47.34"/>
<polygon fill="black" stroke="black" points="663.14,-48.08 661.17,-37.67 656.22,-47.03 663.14,-48.08"/>
</g>
<!-- 16265 -->
<g id="node18" class="node">
<title>16265</title>
<path fill="#eb9e67" stroke="black" d="M968.5,-296.5C968.5,-296.5 835.5,-296.5 835.5,-296.5 829.5,-296.5 823.5,-290.5 823.5,-284.5 823.5,-284.5 823.5,-214.25 823.5,-214.25 823.5,-208.25 829.5,-202.25 835.5,-202.25 835.5,-202.25 968.5,-202.25 968.5,-202.25 974.5,-202.25 980.5,-208.25 980.5,-214.25 980.5,-214.25 980.5,-284.5 980.5,-284.5 980.5,-290.5 974.5,-296.5 968.5,-296.5"/>
<text text-anchor="middle" x="902" y="-279.2" font-family="Helvetica,sans-Serif" font-size="14.00">8_U &lt;= 0.5</text>
<text text-anchor="middle" x="902" y="-261.95" font-family="Helvetica,sans-Serif" font-size="14.00">entropy = 0.696</text>
<text text-anchor="middle" x="902" y="-244.7" font-family="Helvetica,sans-Serif" font-size="14.00">samples = 1383</text>
<text text-anchor="middle" x="902" y="-227.45" font-family="Helvetica,sans-Serif" font-size="14.00">value = [1768, 408]</text>
<text text-anchor="middle" x="902" y="-210.2" font-family="Helvetica,sans-Serif" font-size="14.00">class = Animal</text>
</g>
<!-- 16264&#45;&gt;16265 -->
<g id="edge17" class="edge">
<title>16264&#45;&gt;16265</title>
<path fill="none" stroke="black" d="M902,-332.32C902,-324.42 902,-316.13 902,-307.98"/>
<polygon fill="black" stroke="black" points="905.5,-308.12 902,-298.12 898.5,-308.12 905.5,-308.12"/>
</g>
<!-- 16788 -->
<g id="node25" class="node">
<title>16788</title>
<path fill="#f5d0b5" stroke="black" d="M1214,-296.5C1214,-296.5 1090,-296.5 1090,-296.5 1084,-296.5 1078,-290.5 1078,-284.5 1078,-284.5 1078,-214.25 1078,-214.25 1078,-208.25 1084,-202.25 1090,-202.25 1090,-202.25 1214,-202.25 1214,-202.25 1220,-202.25 1226,-208.25 1226,-214.25 1226,-214.25 1226,-284.5 1226,-284.5 1226,-290.5 1220,-296.5 1214,-296.5"/>
<text text-anchor="middle" x="1152" y="-279.2" font-family="Helvetica,sans-Serif" font-size="14.00">17_U &lt;= 0.5</text>
<text text-anchor="middle" x="1152" y="-261.95" font-family="Helvetica,sans-Serif" font-size="14.00">entropy = 0.961</text>
<text text-anchor="middle" x="1152" y="-244.7" font-family="Helvetica,sans-Serif" font-size="14.00">samples = 540</text>
<text text-anchor="middle" x="1152" y="-227.45" font-family="Helvetica,sans-Serif" font-size="14.00">value = [506, 316]</text>
<text text-anchor="middle" x="1152" y="-210.2" font-family="Helvetica,sans-Serif" font-size="14.00">class = Animal</text>
</g>
<!-- 16264&#45;&gt;16788 -->
<g id="edge24" class="edge">
<title>16264&#45;&gt;16788</title>
<path fill="none" stroke="black" d="M980.76,-338.22C1008.42,-324.03 1039.6,-308.04 1067.7,-293.62"/>
<polygon fill="black" stroke="black" points="1069.25,-296.76 1076.55,-289.08 1066.05,-290.53 1069.25,-296.76"/>
</g>
<!-- 16266 -->
<g id="node19" class="node">
<title>16266</title>
<path fill="#eca470" stroke="black" d="M890.5,-166.25C890.5,-166.25 757.5,-166.25 757.5,-166.25 751.5,-166.25 745.5,-160.25 745.5,-154.25 745.5,-154.25 745.5,-84 745.5,-84 745.5,-78 751.5,-72 757.5,-72 757.5,-72 890.5,-72 890.5,-72 896.5,-72 902.5,-78 902.5,-84 902.5,-84 902.5,-154.25 902.5,-154.25 902.5,-160.25 896.5,-166.25 890.5,-166.25"/>
<text text-anchor="middle" x="824" y="-148.95" font-family="Helvetica,sans-Serif" font-size="14.00">18_U &lt;= 0.5</text>
<text text-anchor="middle" x="824" y="-131.7" font-family="Helvetica,sans-Serif" font-size="14.00">entropy = 0.757</text>
<text text-anchor="middle" x="824" y="-114.45" font-family="Helvetica,sans-Serif" font-size="14.00">samples = 1026</text>
<text text-anchor="middle" x="824" y="-97.2" font-family="Helvetica,sans-Serif" font-size="14.00">value = [1259, 352]</text>
<text text-anchor="middle" x="824" y="-79.95" font-family="Helvetica,sans-Serif" font-size="14.00">class = Animal</text>
</g>
<!-- 16265&#45;&gt;16266 -->
<g id="edge18" class="edge">
<title>16265&#45;&gt;16266</title>
<path fill="none" stroke="black" d="M873.84,-202.07C868.7,-193.63 863.3,-184.74 858.01,-176.05"/>
<polygon fill="black" stroke="black" points="861.09,-174.38 852.9,-167.65 855.11,-178.01 861.09,-174.38"/>
</g>
<!-- 16665 -->
<g id="node22" class="node">
<title>16665</title>
<path fill="#e88f4f" stroke="black" d="M1047.5,-166.25C1047.5,-166.25 932.5,-166.25 932.5,-166.25 926.5,-166.25 920.5,-160.25 920.5,-154.25 920.5,-154.25 920.5,-84 920.5,-84 920.5,-78 926.5,-72 932.5,-72 932.5,-72 1047.5,-72 1047.5,-72 1053.5,-72 1059.5,-78 1059.5,-84 1059.5,-84 1059.5,-154.25 1059.5,-154.25 1059.5,-160.25 1053.5,-166.25 1047.5,-166.25"/>
<text text-anchor="middle" x="990" y="-148.95" font-family="Helvetica,sans-Serif" font-size="14.00">11_U &lt;= 0.5</text>
<text text-anchor="middle" x="990" y="-131.7" font-family="Helvetica,sans-Serif" font-size="14.00">entropy = 0.466</text>
<text text-anchor="middle" x="990" y="-114.45" font-family="Helvetica,sans-Serif" font-size="14.00">samples = 357</text>
<text text-anchor="middle" x="990" y="-97.2" font-family="Helvetica,sans-Serif" font-size="14.00">value = [509, 56]</text>
<text text-anchor="middle" x="990" y="-79.95" font-family="Helvetica,sans-Serif" font-size="14.00">class = Animal</text>
</g>
<!-- 16265&#45;&gt;16665 -->
<g id="edge21" class="edge">
<title>16265&#45;&gt;16665</title>
<path fill="none" stroke="black" d="M933.77,-202.07C939.63,-193.54 945.8,-184.54 951.82,-175.77"/>
<polygon fill="black" stroke="black" points="954.65,-177.83 957.42,-167.61 948.88,-173.87 954.65,-177.83"/>
</g>
<!-- 16267 -->
<g id="node20" class="node">
<title>16267</title>
<path fill="#c0c0c0" stroke="black" d="M778,-36C778,-36 748,-36 748,-36 742,-36 736,-30 736,-24 736,-24 736,-12 736,-12 736,-6 742,0 748,0 748,0 778,0 778,0 784,0 790,-6 790,-12 790,-12 790,-24 790,-24 790,-30 784,-36 778,-36"/>
<text text-anchor="middle" x="763" y="-13.32" font-family="Helvetica,sans-Serif" font-size="14.00">(...)</text>
</g>
<!-- 16266&#45;&gt;16267 -->
<g id="edge19" class="edge">
<title>16266&#45;&gt;16267</title>
<path fill="none" stroke="black" d="M795.46,-71.75C789.97,-62.83 784.39,-53.76 779.44,-45.72"/>
<polygon fill="black" stroke="black" points="782.58,-44.14 774.36,-37.46 776.62,-47.81 782.58,-44.14"/>
</g>
<!-- 16588 -->
<g id="node21" class="node">
<title>16588</title>
<path fill="#c0c0c0" stroke="black" d="M850,-36C850,-36 820,-36 820,-36 814,-36 808,-30 808,-24 808,-24 808,-12 808,-12 808,-6 814,0 820,0 820,0 850,0 850,0 856,0 862,-6 862,-12 862,-12 862,-24 862,-24 862,-30 856,-36 850,-36"/>
<text text-anchor="middle" x="835" y="-13.32" font-family="Helvetica,sans-Serif" font-size="14.00">(...)</text>
</g>
<!-- 16266&#45;&gt;16588 -->
<g id="edge20" class="edge">
<title>16266&#45;&gt;16588</title>
<path fill="none" stroke="black" d="M829.15,-71.75C830.06,-63.52 830.99,-55.17 831.82,-47.61"/>
<polygon fill="black" stroke="black" points="835.3,-48 832.93,-37.68 828.35,-47.23 835.3,-48"/>
</g>
<!-- 16666 -->
<g id="node23" class="node">
<title>16666</title>
<path fill="#c0c0c0" stroke="black" d="M942,-36C942,-36 912,-36 912,-36 906,-36 900,-30 900,-24 900,-24 900,-12 900,-12 900,-6 906,0 912,0 912,0 942,0 942,0 948,0 954,-6 954,-12 954,-12 954,-24 954,-24 954,-30 948,-36 942,-36"/>
<text text-anchor="middle" x="927" y="-13.32" font-family="Helvetica,sans-Serif" font-size="14.00">(...)</text>
</g>
<!-- 16665&#45;&gt;16666 -->
<g id="edge22" class="edge">
<title>16665&#45;&gt;16666</title>
<path fill="none" stroke="black" d="M960.53,-71.75C954.85,-62.83 949.09,-53.76 943.98,-45.72"/>
<polygon fill="black" stroke="black" points="947.04,-44.01 938.73,-37.45 941.14,-47.77 947.04,-44.01"/>
</g>
<!-- 16749 -->
<g id="node24" class="node">
<title>16749</title>
<path fill="#c0c0c0" stroke="black" d="M1014,-36C1014,-36 984,-36 984,-36 978,-36 972,-30 972,-24 972,-24 972,-12 972,-12 972,-6 978,0 984,0 984,0 1014,0 1014,0 1020,0 1026,-6 1026,-12 1026,-12 1026,-24 1026,-24 1026,-30 1020,-36 1014,-36"/>
<text text-anchor="middle" x="999" y="-13.32" font-family="Helvetica,sans-Serif" font-size="14.00">(...)</text>
</g>
<!-- 16665&#45;&gt;16749 -->
<g id="edge23" class="edge">
<title>16665&#45;&gt;16749</title>
<path fill="none" stroke="black" d="M994.21,-71.75C994.96,-63.52 995.72,-55.17 996.4,-47.61"/>
<polygon fill="black" stroke="black" points="999.89,-47.96 997.3,-37.68 992.91,-47.32 999.89,-47.96"/>
</g>
<!-- 16789 -->
<g id="node26" class="node">
<title>16789</title>
<path fill="#f1bc96" stroke="black" d="M1214,-166.25C1214,-166.25 1090,-166.25 1090,-166.25 1084,-166.25 1078,-160.25 1078,-154.25 1078,-154.25 1078,-84 1078,-84 1078,-78 1084,-72 1090,-72 1090,-72 1214,-72 1214,-72 1220,-72 1226,-78 1226,-84 1226,-84 1226,-154.25 1226,-154.25 1226,-160.25 1220,-166.25 1214,-166.25"/>
<text text-anchor="middle" x="1152" y="-148.95" font-family="Helvetica,sans-Serif" font-size="14.00">25_A &lt;= 0.5</text>
<text text-anchor="middle" x="1152" y="-131.7" font-family="Helvetica,sans-Serif" font-size="14.00">entropy = 0.904</text>
<text text-anchor="middle" x="1152" y="-114.45" font-family="Helvetica,sans-Serif" font-size="14.00">samples = 362</text>
<text text-anchor="middle" x="1152" y="-97.2" font-family="Helvetica,sans-Serif" font-size="14.00">value = [372, 175]</text>
<text text-anchor="middle" x="1152" y="-79.95" font-family="Helvetica,sans-Serif" font-size="14.00">class = Animal</text>
</g>
<!-- 16788&#45;&gt;16789 -->
<g id="edge25" class="edge">
<title>16788&#45;&gt;16789</title>
<path fill="none" stroke="black" d="M1152,-202.07C1152,-194.17 1152,-185.88 1152,-177.73"/>
<polygon fill="black" stroke="black" points="1155.5,-177.87 1152,-167.87 1148.5,-177.87 1155.5,-177.87"/>
</g>
<!-- 16944 -->
<g id="node29" class="node">
<title>16944</title>
<path fill="#f5fafe" stroke="black" d="M1380,-166.25C1380,-166.25 1256,-166.25 1256,-166.25 1250,-166.25 1244,-160.25 1244,-154.25 1244,-154.25 1244,-84 1244,-84 1244,-78 1250,-72 1256,-72 1256,-72 1380,-72 1380,-72 1386,-72 1392,-78 1392,-84 1392,-84 1392,-154.25 1392,-154.25 1392,-160.25 1386,-166.25 1380,-166.25"/>
<text text-anchor="middle" x="1318" y="-148.95" font-family="Helvetica,sans-Serif" font-size="14.00">21_G &lt;= 0.5</text>
<text text-anchor="middle" x="1318" y="-131.7" font-family="Helvetica,sans-Serif" font-size="14.00">entropy = 1.0</text>
<text text-anchor="middle" x="1318" y="-114.45" font-family="Helvetica,sans-Serif" font-size="14.00">samples = 178</text>
<text text-anchor="middle" x="1318" y="-97.2" font-family="Helvetica,sans-Serif" font-size="14.00">value = [134, 141]</text>
<text text-anchor="middle" x="1318" y="-79.95" font-family="Helvetica,sans-Serif" font-size="14.00">class = Plant</text>
</g>
<!-- 16788&#45;&gt;16944 -->
<g id="edge28" class="edge">
<title>16788&#45;&gt;16944</title>
<path fill="none" stroke="black" d="M1211.93,-202.07C1223.96,-192.78 1236.7,-182.94 1249.01,-173.43"/>
<polygon fill="black" stroke="black" points="1250.91,-176.38 1256.68,-167.5 1246.63,-170.84 1250.91,-176.38"/>
</g>
<!-- 16790 -->
<g id="node27" class="node">
<title>16790</title>
<path fill="#c0c0c0" stroke="black" d="M1124,-36C1124,-36 1094,-36 1094,-36 1088,-36 1082,-30 1082,-24 1082,-24 1082,-12 1082,-12 1082,-6 1088,0 1094,0 1094,0 1124,0 1124,0 1130,0 1136,-6 1136,-12 1136,-12 1136,-24 1136,-24 1136,-30 1130,-36 1124,-36"/>
<text text-anchor="middle" x="1109" y="-13.32" font-family="Helvetica,sans-Serif" font-size="14.00">(...)</text>
</g>
<!-- 16789&#45;&gt;16790 -->
<g id="edge26" class="edge">
<title>16789&#45;&gt;16790</title>
<path fill="none" stroke="black" d="M1131.88,-71.75C1128.14,-63.12 1124.34,-54.36 1120.94,-46.53"/>
<polygon fill="black" stroke="black" points="1124.24,-45.34 1117.05,-37.56 1117.82,-48.13 1124.24,-45.34"/>
</g>
<!-- 16927 -->
<g id="node28" class="node">
<title>16927</title>
<path fill="#c0c0c0" stroke="black" d="M1196,-36C1196,-36 1166,-36 1166,-36 1160,-36 1154,-30 1154,-24 1154,-24 1154,-12 1154,-12 1154,-6 1160,0 1166,0 1166,0 1196,0 1196,0 1202,0 1208,-6 1208,-12 1208,-12 1208,-24 1208,-24 1208,-30 1202,-36 1196,-36"/>
<text text-anchor="middle" x="1181" y="-13.32" font-family="Helvetica,sans-Serif" font-size="14.00">(...)</text>
</g>
<!-- 16789&#45;&gt;16927 -->
<g id="edge27" class="edge">
<title>16789&#45;&gt;16927</title>
<path fill="none" stroke="black" d="M1165.57,-71.75C1168.03,-63.32 1170.54,-54.77 1172.79,-47.07"/>
<polygon fill="black" stroke="black" points="1176.1,-48.21 1175.55,-37.63 1169.38,-46.24 1176.1,-48.21"/>
</g>
<!-- 16945 -->
<g id="node30" class="node">
<title>16945</title>
<path fill="#c0c0c0" stroke="black" d="M1297,-36C1297,-36 1267,-36 1267,-36 1261,-36 1255,-30 1255,-24 1255,-24 1255,-12 1255,-12 1255,-6 1261,0 1267,0 1267,0 1297,0 1297,0 1303,0 1309,-6 1309,-12 1309,-12 1309,-24 1309,-24 1309,-30 1303,-36 1297,-36"/>
<text text-anchor="middle" x="1282" y="-13.32" font-family="Helvetica,sans-Serif" font-size="14.00">(...)</text>
</g>
<!-- 16944&#45;&gt;16945 -->
<g id="edge29" class="edge">
<title>16944&#45;&gt;16945</title>
<path fill="none" stroke="black" d="M1301.16,-71.75C1298.06,-63.22 1294.92,-54.57 1292.1,-46.8"/>
<polygon fill="black" stroke="black" points="1295.46,-45.8 1288.75,-37.6 1288.88,-48.19 1295.46,-45.8"/>
</g>
<!-- 16990 -->
<g id="node31" class="node">
<title>16990</title>
<path fill="#c0c0c0" stroke="black" d="M1369,-36C1369,-36 1339,-36 1339,-36 1333,-36 1327,-30 1327,-24 1327,-24 1327,-12 1327,-12 1327,-6 1333,0 1339,0 1339,0 1369,0 1369,0 1375,0 1381,-6 1381,-12 1381,-12 1381,-24 1381,-24 1381,-30 1375,-36 1369,-36"/>
<text text-anchor="middle" x="1354" y="-13.32" font-family="Helvetica,sans-Serif" font-size="14.00">(...)</text>
</g>
<!-- 16944&#45;&gt;16990 -->
<g id="edge30" class="edge">
<title>16944&#45;&gt;16990</title>
<path fill="none" stroke="black" d="M1334.84,-71.75C1337.94,-63.22 1341.08,-54.57 1343.9,-46.8"/>
<polygon fill="black" stroke="black" points="1347.12,-48.19 1347.25,-37.6 1340.54,-45.8 1347.12,-48.19"/>
</g>
</g>
</svg>
