<?xml version="1.0" encoding="UTF-8" standalone="no"?>
<!DOCTYPE svg PUBLIC "-//W3C//DTD SVG 1.1//EN"
 "http://www.w3.org/Graphics/SVG/1.1/DTD/svg11.dtd">
<!-- Generated by graphviz version 12.0.0 (20240803.0821)
 -->
<!-- Title: Tree Pages: 1 -->
<svg width="1420pt" height="565pt"
 viewBox="0.00 0.00 1419.50 565.00" xmlns="http://www.w3.org/2000/svg" xmlns:xlink="http://www.w3.org/1999/xlink">
<g id="graph0" class="graph" transform="scale(1 1) rotate(0) translate(4 561)">
<title>Tree</title>
<polygon fill="white" stroke="none" points="-4,4 -4,-561 1415.5,-561 1415.5,4 -4,4"/>
<!-- 0 -->
<g id="node1" class="node">
<title>0</title>
<path fill="#fffffe" stroke="black" d="M803.5,-557C803.5,-557 643.5,-557 643.5,-557 637.5,-557 631.5,-551 631.5,-545 631.5,-545 631.5,-474.75 631.5,-474.75 631.5,-468.75 637.5,-462.75 643.5,-462.75 643.5,-462.75 803.5,-462.75 803.5,-462.75 809.5,-462.75 815.5,-468.75 815.5,-474.75 815.5,-474.75 815.5,-545 815.5,-545 815.5,-551 809.5,-557 803.5,-557"/>
<text text-anchor="middle" x="723.5" y="-539.7" font-family="Helvetica,sans-Serif" font-size="14.00">20_C &lt;= 0.5</text>
<text text-anchor="middle" x="723.5" y="-522.45" font-family="Helvetica,sans-Serif" font-size="14.00">entropy = 1.0</text>
<text text-anchor="middle" x="723.5" y="-505.2" font-family="Helvetica,sans-Serif" font-size="14.00">samples = 38189</text>
<text text-anchor="middle" x="723.5" y="-487.95" font-family="Helvetica,sans-Serif" font-size="14.00">value = [30221, 30124]</text>
<text text-anchor="middle" x="723.5" y="-470.7" font-family="Helvetica,sans-Serif" font-size="14.00">class = Animal</text>
</g>
<!-- 1 -->
<g id="node2" class="node">
<title>1</title>
<path fill="#fbebdf" stroke="black" d="M628.5,-426.75C628.5,-426.75 468.5,-426.75 468.5,-426.75 462.5,-426.75 456.5,-420.75 456.5,-414.75 456.5,-414.75 456.5,-344.5 456.5,-344.5 456.5,-338.5 462.5,-332.5 468.5,-332.5 468.5,-332.5 628.5,-332.5 628.5,-332.5 634.5,-332.5 640.5,-338.5 640.5,-344.5 640.5,-344.5 640.5,-414.75 640.5,-414.75 640.5,-420.75 634.5,-426.75 628.5,-426.75"/>
<text text-anchor="middle" x="548.5" y="-409.45" font-family="Helvetica,sans-Serif" font-size="14.00">19_C &lt;= 0.5</text>
<text text-anchor="middle" x="548.5" y="-392.2" font-family="Helvetica,sans-Serif" font-size="14.00">entropy = 0.994</text>
<text text-anchor="middle" x="548.5" y="-374.95" font-family="Helvetica,sans-Serif" font-size="14.00">samples = 28213</text>
<text text-anchor="middle" x="548.5" y="-357.7" font-family="Helvetica,sans-Serif" font-size="14.00">value = [24266, 20342]</text>
<text text-anchor="middle" x="548.5" y="-340.45" font-family="Helvetica,sans-Serif" font-size="14.00">class = Animal</text>
</g>
<!-- 0&#45;&gt;1 -->
<g id="edge1" class="edge">
<title>0&#45;&gt;1</title>
<path fill="none" stroke="black" d="M660.32,-462.57C647.51,-453.19 633.95,-443.25 620.86,-433.65"/>
<polygon fill="black" stroke="black" points="623.24,-431.06 613.1,-427.97 619.1,-436.7 623.24,-431.06"/>
<text text-anchor="middle" x="615.69" y="-447.11" font-family="Helvetica,sans-Serif" font-size="14.00">True</text>
</g>
<!-- 12886 -->
<g id="node17" class="node">
<title>12886</title>
<path fill="#b2d9f5" stroke="black" d="M972.5,-426.75C972.5,-426.75 830.5,-426.75 830.5,-426.75 824.5,-426.75 818.5,-420.75 818.5,-414.75 818.5,-414.75 818.5,-344.5 818.5,-344.5 818.5,-338.5 824.5,-332.5 830.5,-332.5 830.5,-332.5 972.5,-332.5 972.5,-332.5 978.5,-332.5 984.5,-338.5 984.5,-344.5 984.5,-344.5 984.5,-414.75 984.5,-414.75 984.5,-420.75 978.5,-426.75 972.5,-426.75"/>
<text text-anchor="middle" x="901.5" y="-409.45" font-family="Helvetica,sans-Serif" font-size="14.00">2_A &lt;= 0.5</text>
<text text-anchor="middle" x="901.5" y="-392.2" font-family="Helvetica,sans-Serif" font-size="14.00">entropy = 0.957</text>
<text text-anchor="middle" x="901.5" y="-374.95" font-family="Helvetica,sans-Serif" font-size="14.00">samples = 9976</text>
<text text-anchor="middle" x="901.5" y="-357.7" font-family="Helvetica,sans-Serif" font-size="14.00">value = [5955, 9782]</text>
<text text-anchor="middle" x="901.5" y="-340.45" font-family="Helvetica,sans-Serif" font-size="14.00">class = Plant</text>
</g>
<!-- 0&#45;&gt;12886 -->
<g id="edge16" class="edge">
<title>0&#45;&gt;12886</title>
<path fill="none" stroke="black" d="M788.01,-462.39C800.95,-453.07 814.63,-443.22 827.85,-433.69"/>
<polygon fill="black" stroke="black" points="829.61,-436.73 835.68,-428.05 825.52,-431.06 829.61,-436.73"/>
<text text-anchor="middle" x="832.9" y="-447.17" font-family="Helvetica,sans-Serif" font-size="14.00">False</text>
</g>
<!-- 2 -->
<g id="node3" class="node">
<title>2</title>
<path fill="#f5ceb2" stroke="black" d="M356.5,-296.5C356.5,-296.5 196.5,-296.5 196.5,-296.5 190.5,-296.5 184.5,-290.5 184.5,-284.5 184.5,-284.5 184.5,-214.25 184.5,-214.25 184.5,-208.25 190.5,-202.25 196.5,-202.25 196.5,-202.25 356.5,-202.25 356.5,-202.25 362.5,-202.25 368.5,-208.25 368.5,-214.25 368.5,-214.25 368.5,-284.5 368.5,-284.5 368.5,-290.5 362.5,-296.5 356.5,-296.5"/>
<text text-anchor="middle" x="276.5" y="-279.2" font-family="Helvetica,sans-Serif" font-size="14.00">2_A &lt;= 0.5</text>
<text text-anchor="middle" x="276.5" y="-261.95" font-family="Helvetica,sans-Serif" font-size="14.00">entropy = 0.958</text>
<text text-anchor="middle" x="276.5" y="-244.7" font-family="Helvetica,sans-Serif" font-size="14.00">samples = 19196</text>
<text text-anchor="middle" x="276.5" y="-227.45" font-family="Helvetica,sans-Serif" font-size="14.00">value = [18779, 11504]</text>
<text text-anchor="middle" x="276.5" y="-210.2" font-family="Helvetica,sans-Serif" font-size="14.00">class = Animal</text>
</g>
<!-- 1&#45;&gt;2 -->
<g id="edge2" class="edge">
<title>1&#45;&gt;2</title>
<path fill="none" stroke="black" d="M456.03,-335.03C431.26,-323.35 404.34,-310.65 379.06,-298.73"/>
<polygon fill="black" stroke="black" points="380.62,-295.6 370.08,-294.5 377.63,-301.93 380.62,-295.6"/>
</g>
<!-- 9633 -->
<g id="node10" class="node">
<title>9633</title>
<path fill="#b4daf5" stroke="black" d="M619.5,-296.5C619.5,-296.5 477.5,-296.5 477.5,-296.5 471.5,-296.5 465.5,-290.5 465.5,-284.5 465.5,-284.5 465.5,-214.25 465.5,-214.25 465.5,-208.25 471.5,-202.25 477.5,-202.25 477.5,-202.25 619.5,-202.25 619.5,-202.25 625.5,-202.25 631.5,-208.25 631.5,-214.25 631.5,-214.25 631.5,-284.5 631.5,-284.5 631.5,-290.5 625.5,-296.5 619.5,-296.5"/>
<text text-anchor="middle" x="548.5" y="-279.2" font-family="Helvetica,sans-Serif" font-size="14.00">15_C &lt;= 0.5</text>
<text text-anchor="middle" x="548.5" y="-261.95" font-family="Helvetica,sans-Serif" font-size="14.00">entropy = 0.96</text>
<text text-anchor="middle" x="548.5" y="-244.7" font-family="Helvetica,sans-Serif" font-size="14.00">samples = 9017</text>
<text text-anchor="middle" x="548.5" y="-227.45" font-family="Helvetica,sans-Serif" font-size="14.00">value = [5487, 8838]</text>
<text text-anchor="middle" x="548.5" y="-210.2" font-family="Helvetica,sans-Serif" font-size="14.00">class = Plant</text>
</g>
<!-- 1&#45;&gt;9633 -->
<g id="edge9" class="edge">
<title>1&#45;&gt;9633</title>
<path fill="none" stroke="black" d="M548.5,-332.32C548.5,-324.42 548.5,-316.13 548.5,-307.98"/>
<polygon fill="black" stroke="black" points="552,-308.12 548.5,-298.12 545,-308.12 552,-308.12"/>
</g>
<!-- 3 -->
<g id="node4" class="node">
<title>3</title>
<path fill="#f7dac5" stroke="black" d="M163,-166.25C163,-166.25 12,-166.25 12,-166.25 6,-166.25 0,-160.25 0,-154.25 0,-154.25 0,-84 0,-84 0,-78 6,-72 12,-72 12,-72 163,-72 163,-72 169,-72 175,-78 175,-84 175,-84 175,-154.25 175,-154.25 175,-160.25 169,-166.25 163,-166.25"/>
<text text-anchor="middle" x="87.5" y="-148.95" font-family="Helvetica,sans-Serif" font-size="14.00">8_G &lt;= 0.5</text>
<text text-anchor="middle" x="87.5" y="-131.7" font-family="Helvetica,sans-Serif" font-size="14.00">entropy = 0.979</text>
<text text-anchor="middle" x="87.5" y="-114.45" font-family="Helvetica,sans-Serif" font-size="14.00">samples = 13969</text>
<text text-anchor="middle" x="87.5" y="-97.2" font-family="Helvetica,sans-Serif" font-size="14.00">value = [12864, 9086]</text>
<text text-anchor="middle" x="87.5" y="-79.95" font-family="Helvetica,sans-Serif" font-size="14.00">class = Animal</text>
</g>
<!-- 2&#45;&gt;3 -->
<g id="edge3" class="edge">
<title>2&#45;&gt;3</title>
<path fill="none" stroke="black" d="M208,-201.89C194.13,-192.48 179.46,-182.53 165.3,-172.92"/>
<polygon fill="black" stroke="black" points="167.58,-170.23 157.34,-167.51 163.65,-176.03 167.58,-170.23"/>
</g>
<!-- 7176 -->
<g id="node7" class="node">
<title>7176</title>
<path fill="#f0b58a" stroke="black" d="M347.5,-166.25C347.5,-166.25 205.5,-166.25 205.5,-166.25 199.5,-166.25 193.5,-160.25 193.5,-154.25 193.5,-154.25 193.5,-84 193.5,-84 193.5,-78 199.5,-72 205.5,-72 205.5,-72 347.5,-72 347.5,-72 353.5,-72 359.5,-78 359.5,-84 359.5,-84 359.5,-154.25 359.5,-154.25 359.5,-160.25 353.5,-166.25 347.5,-166.25"/>
<text text-anchor="middle" x="276.5" y="-148.95" font-family="Helvetica,sans-Serif" font-size="14.00">9_U &lt;= 0.5</text>
<text text-anchor="middle" x="276.5" y="-131.7" font-family="Helvetica,sans-Serif" font-size="14.00">entropy = 0.869</text>
<text text-anchor="middle" x="276.5" y="-114.45" font-family="Helvetica,sans-Serif" font-size="14.00">samples = 5227</text>
<text text-anchor="middle" x="276.5" y="-97.2" font-family="Helvetica,sans-Serif" font-size="14.00">value = [5915, 2418]</text>
<text text-anchor="middle" x="276.5" y="-79.95" font-family="Helvetica,sans-Serif" font-size="14.00">class = Animal</text>
</g>
<!-- 2&#45;&gt;7176 -->
<g id="edge6" class="edge">
<title>2&#45;&gt;7176</title>
<path fill="none" stroke="black" d="M276.5,-202.07C276.5,-194.17 276.5,-185.88 276.5,-177.73"/>
<polygon fill="black" stroke="black" points="280,-177.87 276.5,-167.87 273,-177.87 280,-177.87"/>
</g>
<!-- 4 -->
<g id="node5" class="node">
<title>4</title>
<path fill="#c0c0c0" stroke="black" d="M66.5,-36C66.5,-36 36.5,-36 36.5,-36 30.5,-36 24.5,-30 24.5,-24 24.5,-24 24.5,-12 24.5,-12 24.5,-6 30.5,0 36.5,0 36.5,0 66.5,0 66.5,0 72.5,0 78.5,-6 78.5,-12 78.5,-12 78.5,-24 78.5,-24 78.5,-30 72.5,-36 66.5,-36"/>
<text text-anchor="middle" x="51.5" y="-13.32" font-family="Helvetica,sans-Serif" font-size="14.00">(...)</text>
</g>
<!-- 3&#45;&gt;4 -->
<g id="edge4" class="edge">
<title>3&#45;&gt;4</title>
<path fill="none" stroke="black" d="M70.66,-71.75C67.56,-63.22 64.42,-54.57 61.6,-46.8"/>
<polygon fill="black" stroke="black" points="64.96,-45.8 58.25,-37.6 58.38,-48.19 64.96,-45.8"/>
</g>
<!-- 5097 -->
<g id="node6" class="node">
<title>5097</title>
<path fill="#c0c0c0" stroke="black" d="M138.5,-36C138.5,-36 108.5,-36 108.5,-36 102.5,-36 96.5,-30 96.5,-24 96.5,-24 96.5,-12 96.5,-12 96.5,-6 102.5,0 108.5,0 108.5,0 138.5,0 138.5,0 144.5,0 150.5,-6 150.5,-12 150.5,-12 150.5,-24 150.5,-24 150.5,-30 144.5,-36 138.5,-36"/>
<text text-anchor="middle" x="123.5" y="-13.32" font-family="Helvetica,sans-Serif" font-size="14.00">(...)</text>
</g>
<!-- 3&#45;&gt;5097 -->
<g id="edge5" class="edge">
<title>3&#45;&gt;5097</title>
<path fill="none" stroke="black" d="M104.34,-71.75C107.44,-63.22 110.58,-54.57 113.4,-46.8"/>
<polygon fill="black" stroke="black" points="116.62,-48.19 116.75,-37.6 110.04,-45.8 116.62,-48.19"/>
</g>
<!-- 7177 -->
<g id="node8" class="node">
<title>7177</title>
<path fill="#c0c0c0" stroke="black" d="M257.5,-36C257.5,-36 227.5,-36 227.5,-36 221.5,-36 215.5,-30 215.5,-24 215.5,-24 215.5,-12 215.5,-12 215.5,-6 221.5,0 227.5,0 227.5,0 257.5,0 257.5,0 263.5,0 269.5,-6 269.5,-12 269.5,-12 269.5,-24 269.5,-24 269.5,-30 263.5,-36 257.5,-36"/>
<text text-anchor="middle" x="242.5" y="-13.32" font-family="Helvetica,sans-Serif" font-size="14.00">(...)</text>
</g>
<!-- 7176&#45;&gt;7177 -->
<g id="edge7" class="edge">
<title>7176&#45;&gt;7177</title>
<path fill="none" stroke="black" d="M260.6,-71.75C257.67,-63.22 254.7,-54.57 252.03,-46.8"/>
<polygon fill="black" stroke="black" points="255.44,-45.93 248.88,-37.6 248.82,-48.2 255.44,-45.93"/>
</g>
<!-- 8882 -->
<g id="node9" class="node">
<title>8882</title>
<path fill="#c0c0c0" stroke="black" d="M329.5,-36C329.5,-36 299.5,-36 299.5,-36 293.5,-36 287.5,-30 287.5,-24 287.5,-24 287.5,-12 287.5,-12 287.5,-6 293.5,0 299.5,0 299.5,0 329.5,0 329.5,0 335.5,0 341.5,-6 341.5,-12 341.5,-12 341.5,-24 341.5,-24 341.5,-30 335.5,-36 329.5,-36"/>
<text text-anchor="middle" x="314.5" y="-13.32" font-family="Helvetica,sans-Serif" font-size="14.00">(...)</text>
</g>
<!-- 7176&#45;&gt;8882 -->
<g id="edge8" class="edge">
<title>7176&#45;&gt;8882</title>
<path fill="none" stroke="black" d="M294.28,-71.75C297.55,-63.22 300.87,-54.57 303.84,-46.8"/>
<polygon fill="black" stroke="black" points="307.06,-48.18 307.38,-37.59 300.53,-45.67 307.06,-48.18"/>
</g>
<!-- 9634 -->
<g id="node11" class="node">
<title>9634</title>
<path fill="#9ccef2" stroke="black" d="M531.5,-166.25C531.5,-166.25 389.5,-166.25 389.5,-166.25 383.5,-166.25 377.5,-160.25 377.5,-154.25 377.5,-154.25 377.5,-84 377.5,-84 377.5,-78 383.5,-72 389.5,-72 389.5,-72 531.5,-72 531.5,-72 537.5,-72 543.5,-78 543.5,-84 543.5,-84 543.5,-154.25 543.5,-154.25 543.5,-160.25 537.5,-166.25 531.5,-166.25"/>
<text text-anchor="middle" x="460.5" y="-148.95" font-family="Helvetica,sans-Serif" font-size="14.00">8_C &lt;= 0.5</text>
<text text-anchor="middle" x="460.5" y="-131.7" font-family="Helvetica,sans-Serif" font-size="14.00">entropy = 0.919</text>
<text text-anchor="middle" x="460.5" y="-114.45" font-family="Helvetica,sans-Serif" font-size="14.00">samples = 7462</text>
<text text-anchor="middle" x="460.5" y="-97.2" font-family="Helvetica,sans-Serif" font-size="14.00">value = [3970, 7920]</text>
<text text-anchor="middle" x="460.5" y="-79.95" font-family="Helvetica,sans-Serif" font-size="14.00">class = Plant</text>
</g>
<!-- 9633&#45;&gt;9634 -->
<g id="edge10" class="edge">
<title>9633&#45;&gt;9634</title>
<path fill="none" stroke="black" d="M516.73,-202.07C510.87,-193.54 504.7,-184.54 498.68,-175.77"/>
<polygon fill="black" stroke="black" points="501.62,-173.87 493.08,-167.61 495.85,-177.83 501.62,-173.87"/>
</g>
<!-- 12201 -->
<g id="node14" class="node">
<title>12201</title>
<path fill="#f5cdb1" stroke="black" d="M707,-166.25C707,-166.25 574,-166.25 574,-166.25 568,-166.25 562,-160.25 562,-154.25 562,-154.25 562,-84 562,-84 562,-78 568,-72 574,-72 574,-72 707,-72 707,-72 713,-72 719,-78 719,-84 719,-84 719,-154.25 719,-154.25 719,-160.25 713,-166.25 707,-166.25"/>
<text text-anchor="middle" x="640.5" y="-148.95" font-family="Helvetica,sans-Serif" font-size="14.00">8_A &lt;= 0.5</text>
<text text-anchor="middle" x="640.5" y="-131.7" font-family="Helvetica,sans-Serif" font-size="14.00">entropy = 0.956</text>
<text text-anchor="middle" x="640.5" y="-114.45" font-family="Helvetica,sans-Serif" font-size="14.00">samples = 1555</text>
<text text-anchor="middle" x="640.5" y="-97.2" font-family="Helvetica,sans-Serif" font-size="14.00">value = [1517, 918]</text>
<text text-anchor="middle" x="640.5" y="-79.95" font-family="Helvetica,sans-Serif" font-size="14.00">class = Animal</text>
</g>
<!-- 9633&#45;&gt;12201 -->
<g id="edge13" class="edge">
<title>9633&#45;&gt;12201</title>
<path fill="none" stroke="black" d="M581.71,-202.07C587.9,-193.45 594.43,-184.35 600.79,-175.49"/>
<polygon fill="black" stroke="black" points="603.47,-177.75 606.45,-167.59 597.78,-173.67 603.47,-177.75"/>
</g>
<!-- 9635 -->
<g id="node12" class="node">
<title>9635</title>
<path fill="#c0c0c0" stroke="black" d="M421.5,-36C421.5,-36 391.5,-36 391.5,-36 385.5,-36 379.5,-30 379.5,-24 379.5,-24 379.5,-12 379.5,-12 379.5,-6 385.5,0 391.5,0 391.5,0 421.5,0 421.5,0 427.5,0 433.5,-6 433.5,-12 433.5,-12 433.5,-24 433.5,-24 433.5,-30 427.5,-36 421.5,-36"/>
<text text-anchor="middle" x="406.5" y="-13.32" font-family="Helvetica,sans-Serif" font-size="14.00">(...)</text>
</g>
<!-- 9634&#45;&gt;9635 -->
<g id="edge11" class="edge">
<title>9634&#45;&gt;9635</title>
<path fill="none" stroke="black" d="M435.24,-71.75C430.48,-63.03 425.66,-54.16 421.35,-46.26"/>
<polygon fill="black" stroke="black" points="424.44,-44.61 416.58,-37.5 418.29,-47.96 424.44,-44.61"/>
</g>
<!-- 11632 -->
<g id="node13" class="node">
<title>11632</title>
<path fill="#c0c0c0" stroke="black" d="M493.5,-36C493.5,-36 463.5,-36 463.5,-36 457.5,-36 451.5,-30 451.5,-24 451.5,-24 451.5,-12 451.5,-12 451.5,-6 457.5,0 463.5,0 463.5,0 493.5,0 493.5,0 499.5,0 505.5,-6 505.5,-12 505.5,-12 505.5,-24 505.5,-24 505.5,-30 499.5,-36 493.5,-36"/>
<text text-anchor="middle" x="478.5" y="-13.32" font-family="Helvetica,sans-Serif" font-size="14.00">(...)</text>
</g>
<!-- 9634&#45;&gt;11632 -->
<g id="edge12" class="edge">
<title>9634&#45;&gt;11632</title>
<path fill="none" stroke="black" d="M468.92,-71.75C470.43,-63.42 471.97,-54.97 473.35,-47.34"/>
<polygon fill="black" stroke="black" points="476.77,-48.13 475.11,-37.66 469.88,-46.88 476.77,-48.13"/>
</g>
<!-- 12202 -->
<g id="node15" class="node">
<title>12202</title>
<path fill="#c0c0c0" stroke="black" d="M601.5,-36C601.5,-36 571.5,-36 571.5,-36 565.5,-36 559.5,-30 559.5,-24 559.5,-24 559.5,-12 559.5,-12 559.5,-6 565.5,0 571.5,0 571.5,0 601.5,0 601.5,0 607.5,0 613.5,-6 613.5,-12 613.5,-12 613.5,-24 613.5,-24 613.5,-30 607.5,-36 601.5,-36"/>
<text text-anchor="middle" x="586.5" y="-13.32" font-family="Helvetica,sans-Serif" font-size="14.00">(...)</text>
</g>
<!-- 12201&#45;&gt;12202 -->
<g id="edge14" class="edge">
<title>12201&#45;&gt;12202</title>
<path fill="none" stroke="black" d="M615.24,-71.75C610.48,-63.03 605.66,-54.16 601.35,-46.26"/>
<polygon fill="black" stroke="black" points="604.44,-44.61 596.58,-37.5 598.29,-47.96 604.44,-44.61"/>
</g>
<!-- 12717 -->
<g id="node16" class="node">
<title>12717</title>
<path fill="#c0c0c0" stroke="black" d="M673.5,-36C673.5,-36 643.5,-36 643.5,-36 637.5,-36 631.5,-30 631.5,-24 631.5,-24 631.5,-12 631.5,-12 631.5,-6 637.5,0 643.5,0 643.5,0 673.5,0 673.5,0 679.5,0 685.5,-6 685.5,-12 685.5,-12 685.5,-24 685.5,-24 685.5,-30 679.5,-36 673.5,-36"/>
<text text-anchor="middle" x="658.5" y="-13.32" font-family="Helvetica,sans-Serif" font-size="14.00">(...)</text>
</g>
<!-- 12201&#45;&gt;12717 -->
<g id="edge15" class="edge">
<title>12201&#45;&gt;12717</title>
<path fill="none" stroke="black" d="M648.92,-71.75C650.43,-63.42 651.97,-54.97 653.35,-47.34"/>
<polygon fill="black" stroke="black" points="656.77,-48.13 655.11,-37.66 649.88,-46.88 656.77,-48.13"/>
</g>
<!-- 12887 -->
<g id="node18" class="node">
<title>12887</title>
<path fill="#9dcef2" stroke="black" d="M972.5,-296.5C972.5,-296.5 830.5,-296.5 830.5,-296.5 824.5,-296.5 818.5,-290.5 818.5,-284.5 818.5,-284.5 818.5,-214.25 818.5,-214.25 818.5,-208.25 824.5,-202.25 830.5,-202.25 830.5,-202.25 972.5,-202.25 972.5,-202.25 978.5,-202.25 984.5,-208.25 984.5,-214.25 984.5,-214.25 984.5,-284.5 984.5,-284.5 984.5,-290.5 978.5,-296.5 972.5,-296.5"/>
<text text-anchor="middle" x="901.5" y="-279.2" font-family="Helvetica,sans-Serif" font-size="14.00">22_C &lt;= 0.5</text>
<text text-anchor="middle" x="901.5" y="-261.95" font-family="Helvetica,sans-Serif" font-size="14.00">entropy = 0.92</text>
<text text-anchor="middle" x="901.5" y="-244.7" font-family="Helvetica,sans-Serif" font-size="14.00">samples = 8233</text>
<text text-anchor="middle" x="901.5" y="-227.45" font-family="Helvetica,sans-Serif" font-size="14.00">value = [4342, 8632]</text>
<text text-anchor="middle" x="901.5" y="-210.2" font-family="Helvetica,sans-Serif" font-size="14.00">class = Plant</text>
</g>
<!-- 12886&#45;&gt;12887 -->
<g id="edge17" class="edge">
<title>12886&#45;&gt;12887</title>
<path fill="none" stroke="black" d="M901.5,-332.32C901.5,-324.42 901.5,-316.13 901.5,-307.98"/>
<polygon fill="black" stroke="black" points="905,-308.12 901.5,-298.12 898,-308.12 905,-308.12"/>
</g>
<!-- 16058 -->
<g id="node25" class="node">
<title>16058</title>
<path fill="#f8dbc6" stroke="black" d="M1237.5,-296.5C1237.5,-296.5 1095.5,-296.5 1095.5,-296.5 1089.5,-296.5 1083.5,-290.5 1083.5,-284.5 1083.5,-284.5 1083.5,-214.25 1083.5,-214.25 1083.5,-208.25 1089.5,-202.25 1095.5,-202.25 1095.5,-202.25 1237.5,-202.25 1237.5,-202.25 1243.5,-202.25 1249.5,-208.25 1249.5,-214.25 1249.5,-214.25 1249.5,-284.5 1249.5,-284.5 1249.5,-290.5 1243.5,-296.5 1237.5,-296.5"/>
<text text-anchor="middle" x="1166.5" y="-279.2" font-family="Helvetica,sans-Serif" font-size="14.00">1_C &lt;= 0.5</text>
<text text-anchor="middle" x="1166.5" y="-261.95" font-family="Helvetica,sans-Serif" font-size="14.00">entropy = 0.98</text>
<text text-anchor="middle" x="1166.5" y="-244.7" font-family="Helvetica,sans-Serif" font-size="14.00">samples = 1743</text>
<text text-anchor="middle" x="1166.5" y="-227.45" font-family="Helvetica,sans-Serif" font-size="14.00">value = [1613, 1150]</text>
<text text-anchor="middle" x="1166.5" y="-210.2" font-family="Helvetica,sans-Serif" font-size="14.00">class = Animal</text>
</g>
<!-- 12886&#45;&gt;16058 -->
<g id="edge24" class="edge">
<title>12886&#45;&gt;16058</title>
<path fill="none" stroke="black" d="M984.98,-338.22C1013.08,-324.63 1044.59,-309.37 1073.38,-295.44"/>
<polygon fill="black" stroke="black" points="1074.6,-298.74 1082.07,-291.23 1071.55,-292.44 1074.6,-298.74"/>
</g>
<!-- 12888 -->
<g id="node19" class="node">
<title>12888</title>
<path fill="#91c9f1" stroke="black" d="M891.5,-166.25C891.5,-166.25 749.5,-166.25 749.5,-166.25 743.5,-166.25 737.5,-160.25 737.5,-154.25 737.5,-154.25 737.5,-84 737.5,-84 737.5,-78 743.5,-72 749.5,-72 749.5,-72 891.5,-72 891.5,-72 897.5,-72 903.5,-78 903.5,-84 903.5,-84 903.5,-154.25 903.5,-154.25 903.5,-160.25 897.5,-166.25 891.5,-166.25"/>
<text text-anchor="middle" x="820.5" y="-148.95" font-family="Helvetica,sans-Serif" font-size="14.00">22_U &lt;= 0.5</text>
<text text-anchor="middle" x="820.5" y="-131.7" font-family="Helvetica,sans-Serif" font-size="14.00">entropy = 0.892</text>
<text text-anchor="middle" x="820.5" y="-114.45" font-family="Helvetica,sans-Serif" font-size="14.00">samples = 7639</text>
<text text-anchor="middle" x="820.5" y="-97.2" font-family="Helvetica,sans-Serif" font-size="14.00">value = [3713, 8315]</text>
<text text-anchor="middle" x="820.5" y="-79.95" font-family="Helvetica,sans-Serif" font-size="14.00">class = Plant</text>
</g>
<!-- 12887&#45;&gt;12888 -->
<g id="edge18" class="edge">
<title>12887&#45;&gt;12888</title>
<path fill="none" stroke="black" d="M872.26,-202.07C866.92,-193.63 861.31,-184.74 855.82,-176.05"/>
<polygon fill="black" stroke="black" points="858.81,-174.22 850.51,-167.64 852.89,-177.96 858.81,-174.22"/>
</g>
<!-- 15741 -->
<g id="node22" class="node">
<title>15741</title>
<path fill="#f2c19d" stroke="black" d="M1057.5,-166.25C1057.5,-166.25 933.5,-166.25 933.5,-166.25 927.5,-166.25 921.5,-160.25 921.5,-154.25 921.5,-154.25 921.5,-84 921.5,-84 921.5,-78 927.5,-72 933.5,-72 933.5,-72 1057.5,-72 1057.5,-72 1063.5,-72 1069.5,-78 1069.5,-84 1069.5,-84 1069.5,-154.25 1069.5,-154.25 1069.5,-160.25 1063.5,-166.25 1057.5,-166.25"/>
<text text-anchor="middle" x="995.5" y="-148.95" font-family="Helvetica,sans-Serif" font-size="14.00">10_U &lt;= 0.5</text>
<text text-anchor="middle" x="995.5" y="-131.7" font-family="Helvetica,sans-Serif" font-size="14.00">entropy = 0.92</text>
<text text-anchor="middle" x="995.5" y="-114.45" font-family="Helvetica,sans-Serif" font-size="14.00">samples = 594</text>
<text text-anchor="middle" x="995.5" y="-97.2" font-family="Helvetica,sans-Serif" font-size="14.00">value = [629, 317]</text>
<text text-anchor="middle" x="995.5" y="-79.95" font-family="Helvetica,sans-Serif" font-size="14.00">class = Animal</text>
</g>
<!-- 12887&#45;&gt;15741 -->
<g id="edge21" class="edge">
<title>12887&#45;&gt;15741</title>
<path fill="none" stroke="black" d="M935.44,-202.07C941.76,-193.45 948.42,-184.35 954.92,-175.49"/>
<polygon fill="black" stroke="black" points="957.63,-177.71 960.72,-167.58 951.98,-173.58 957.63,-177.71"/>
</g>
<!-- 12889 -->
<g id="node20" class="node">
<title>12889</title>
<path fill="#c0c0c0" stroke="black" d="M778.5,-36C778.5,-36 748.5,-36 748.5,-36 742.5,-36 736.5,-30 736.5,-24 736.5,-24 736.5,-12 736.5,-12 736.5,-6 742.5,0 748.5,0 748.5,0 778.5,0 778.5,0 784.5,0 790.5,-6 790.5,-12 790.5,-12 790.5,-24 790.5,-24 790.5,-30 784.5,-36 778.5,-36"/>
<text text-anchor="middle" x="763.5" y="-13.32" font-family="Helvetica,sans-Serif" font-size="14.00">(...)</text>
</g>
<!-- 12888&#45;&gt;12889 -->
<g id="edge19" class="edge">
<title>12888&#45;&gt;12889</title>
<path fill="none" stroke="black" d="M793.84,-71.75C788.76,-62.93 783.6,-53.96 779.02,-45.99"/>
<polygon fill="black" stroke="black" points="782.15,-44.41 774.13,-37.48 776.08,-47.9 782.15,-44.41"/>
</g>
<!-- 15380 -->
<g id="node21" class="node">
<title>15380</title>
<path fill="#c0c0c0" stroke="black" d="M850.5,-36C850.5,-36 820.5,-36 820.5,-36 814.5,-36 808.5,-30 808.5,-24 808.5,-24 808.5,-12 808.5,-12 808.5,-6 814.5,0 820.5,0 820.5,0 850.5,0 850.5,0 856.5,0 862.5,-6 862.5,-12 862.5,-12 862.5,-24 862.5,-24 862.5,-30 856.5,-36 850.5,-36"/>
<text text-anchor="middle" x="835.5" y="-13.32" font-family="Helvetica,sans-Serif" font-size="14.00">(...)</text>
</g>
<!-- 12888&#45;&gt;15380 -->
<g id="edge20" class="edge">
<title>12888&#45;&gt;15380</title>
<path fill="none" stroke="black" d="M827.52,-71.75C828.78,-63.42 830.06,-54.97 831.21,-47.34"/>
<polygon fill="black" stroke="black" points="834.64,-48.08 832.67,-37.67 827.72,-47.03 834.64,-48.08"/>
</g>
<!-- 15742 -->
<g id="node23" class="node">
<title>15742</title>
<path fill="#c0c0c0" stroke="black" d="M951.5,-36C951.5,-36 921.5,-36 921.5,-36 915.5,-36 909.5,-30 909.5,-24 909.5,-24 909.5,-12 909.5,-12 909.5,-6 915.5,0 921.5,0 921.5,0 951.5,0 951.5,0 957.5,0 963.5,-6 963.5,-12 963.5,-12 963.5,-24 963.5,-24 963.5,-30 957.5,-36 951.5,-36"/>
<text text-anchor="middle" x="936.5" y="-13.32" font-family="Helvetica,sans-Serif" font-size="14.00">(...)</text>
</g>
<!-- 15741&#45;&gt;15742 -->
<g id="edge22" class="edge">
<title>15741&#45;&gt;15742</title>
<path fill="none" stroke="black" d="M967.9,-71.75C962.65,-62.93 957.31,-53.96 952.56,-45.99"/>
<polygon fill="black" stroke="black" points="955.62,-44.28 947.5,-37.47 949.6,-47.86 955.62,-44.28"/>
</g>
<!-- 15989 -->
<g id="node24" class="node">
<title>15989</title>
<path fill="#c0c0c0" stroke="black" d="M1023.5,-36C1023.5,-36 993.5,-36 993.5,-36 987.5,-36 981.5,-30 981.5,-24 981.5,-24 981.5,-12 981.5,-12 981.5,-6 987.5,0 993.5,0 993.5,0 1023.5,0 1023.5,0 1029.5,0 1035.5,-6 1035.5,-12 1035.5,-12 1035.5,-24 1035.5,-24 1035.5,-30 1029.5,-36 1023.5,-36"/>
<text text-anchor="middle" x="1008.5" y="-13.32" font-family="Helvetica,sans-Serif" font-size="14.00">(...)</text>
</g>
<!-- 15741&#45;&gt;15989 -->
<g id="edge23" class="edge">
<title>15741&#45;&gt;15989</title>
<path fill="none" stroke="black" d="M1001.58,-71.75C1002.67,-63.42 1003.78,-54.97 1004.78,-47.34"/>
<polygon fill="black" stroke="black" points="1008.22,-48.04 1006.05,-37.67 1001.28,-47.13 1008.22,-48.04"/>
</g>
<!-- 16059 -->
<g id="node26" class="node">
<title>16059</title>
<path fill="#fdf4ed" stroke="black" d="M1233,-166.25C1233,-166.25 1100,-166.25 1100,-166.25 1094,-166.25 1088,-160.25 1088,-154.25 1088,-154.25 1088,-84 1088,-84 1088,-78 1094,-72 1100,-72 1100,-72 1233,-72 1233,-72 1239,-72 1245,-78 1245,-84 1245,-84 1245,-154.25 1245,-154.25 1245,-160.25 1239,-166.25 1233,-166.25"/>
<text text-anchor="middle" x="1166.5" y="-148.95" font-family="Helvetica,sans-Serif" font-size="14.00">18_C &lt;= 0.5</text>
<text text-anchor="middle" x="1166.5" y="-131.7" font-family="Helvetica,sans-Serif" font-size="14.00">entropy = 0.998</text>
<text text-anchor="middle" x="1166.5" y="-114.45" font-family="Helvetica,sans-Serif" font-size="14.00">samples = 1317</text>
<text text-anchor="middle" x="1166.5" y="-97.2" font-family="Helvetica,sans-Serif" font-size="14.00">value = [1097, 998]</text>
<text text-anchor="middle" x="1166.5" y="-79.95" font-family="Helvetica,sans-Serif" font-size="14.00">class = Animal</text>
</g>
<!-- 16058&#45;&gt;16059 -->
<g id="edge25" class="edge">
<title>16058&#45;&gt;16059</title>
<path fill="none" stroke="black" d="M1166.5,-202.07C1166.5,-194.17 1166.5,-185.88 1166.5,-177.73"/>
<polygon fill="black" stroke="black" points="1170,-177.87 1166.5,-167.87 1163,-177.87 1170,-177.87"/>
</g>
<!-- 16710 -->
<g id="node29" class="node">
<title>16710</title>
<path fill="#eda673" stroke="black" d="M1399.5,-166.25C1399.5,-166.25 1275.5,-166.25 1275.5,-166.25 1269.5,-166.25 1263.5,-160.25 1263.5,-154.25 1263.5,-154.25 1263.5,-84 1263.5,-84 1263.5,-78 1269.5,-72 1275.5,-72 1275.5,-72 1399.5,-72 1399.5,-72 1405.5,-72 1411.5,-78 1411.5,-84 1411.5,-84 1411.5,-154.25 1411.5,-154.25 1411.5,-160.25 1405.5,-166.25 1399.5,-166.25"/>
<text text-anchor="middle" x="1337.5" y="-148.95" font-family="Helvetica,sans-Serif" font-size="14.00">6_C &lt;= 0.5</text>
<text text-anchor="middle" x="1337.5" y="-131.7" font-family="Helvetica,sans-Serif" font-size="14.00">entropy = 0.774</text>
<text text-anchor="middle" x="1337.5" y="-114.45" font-family="Helvetica,sans-Serif" font-size="14.00">samples = 426</text>
<text text-anchor="middle" x="1337.5" y="-97.2" font-family="Helvetica,sans-Serif" font-size="14.00">value = [516, 152]</text>
<text text-anchor="middle" x="1337.5" y="-79.95" font-family="Helvetica,sans-Serif" font-size="14.00">class = Animal</text>
</g>
<!-- 16058&#45;&gt;16710 -->
<g id="edge28" class="edge">
<title>16058&#45;&gt;16710</title>
<path fill="none" stroke="black" d="M1228.23,-202.07C1240.63,-192.78 1253.75,-182.94 1266.43,-173.43"/>
<polygon fill="black" stroke="black" points="1268.46,-176.28 1274.36,-167.48 1264.26,-170.68 1268.46,-176.28"/>
</g>
<!-- 16060 -->
<g id="node27" class="node">
<title>16060</title>
<path fill="#c0c0c0" stroke="black" d="M1140.5,-36C1140.5,-36 1110.5,-36 1110.5,-36 1104.5,-36 1098.5,-30 1098.5,-24 1098.5,-24 1098.5,-12 1098.5,-12 1098.5,-6 1104.5,0 1110.5,0 1110.5,0 1140.5,0 1140.5,0 1146.5,0 1152.5,-6 1152.5,-12 1152.5,-12 1152.5,-24 1152.5,-24 1152.5,-30 1146.5,-36 1140.5,-36"/>
<text text-anchor="middle" x="1125.5" y="-13.32" font-family="Helvetica,sans-Serif" font-size="14.00">(...)</text>
</g>
<!-- 16059&#45;&gt;16060 -->
<g id="edge26" class="edge">
<title>16059&#45;&gt;16060</title>
<path fill="none" stroke="black" d="M1147.32,-71.75C1143.79,-63.22 1140.21,-54.57 1137,-46.8"/>
<polygon fill="black" stroke="black" points="1140.24,-45.47 1133.18,-37.57 1133.77,-48.15 1140.24,-45.47"/>
</g>
<!-- 16573 -->
<g id="node28" class="node">
<title>16573</title>
<path fill="#c0c0c0" stroke="black" d="M1212.5,-36C1212.5,-36 1182.5,-36 1182.5,-36 1176.5,-36 1170.5,-30 1170.5,-24 1170.5,-24 1170.5,-12 1170.5,-12 1170.5,-6 1176.5,0 1182.5,0 1182.5,0 1212.5,0 1212.5,0 1218.5,0 1224.5,-6 1224.5,-12 1224.5,-12 1224.5,-24 1224.5,-24 1224.5,-30 1218.5,-36 1212.5,-36"/>
<text text-anchor="middle" x="1197.5" y="-13.32" font-family="Helvetica,sans-Serif" font-size="14.00">(...)</text>
</g>
<!-- 16059&#45;&gt;16573 -->
<g id="edge27" class="edge">
<title>16059&#45;&gt;16573</title>
<path fill="none" stroke="black" d="M1181,-71.75C1183.64,-63.32 1186.31,-54.77 1188.72,-47.07"/>
<polygon fill="black" stroke="black" points="1192.03,-48.21 1191.68,-37.62 1185.35,-46.12 1192.03,-48.21"/>
</g>
<!-- 16711 -->
<g id="node30" class="node">
<title>16711</title>
<path fill="#c0c0c0" stroke="black" d="M1316.5,-36C1316.5,-36 1286.5,-36 1286.5,-36 1280.5,-36 1274.5,-30 1274.5,-24 1274.5,-24 1274.5,-12 1274.5,-12 1274.5,-6 1280.5,0 1286.5,0 1286.5,0 1316.5,0 1316.5,0 1322.5,0 1328.5,-6 1328.5,-12 1328.5,-12 1328.5,-24 1328.5,-24 1328.5,-30 1322.5,-36 1316.5,-36"/>
<text text-anchor="middle" x="1301.5" y="-13.32" font-family="Helvetica,sans-Serif" font-size="14.00">(...)</text>
</g>
<!-- 16710&#45;&gt;16711 -->
<g id="edge29" class="edge">
<title>16710&#45;&gt;16711</title>
<path fill="none" stroke="black" d="M1320.66,-71.75C1317.56,-63.22 1314.42,-54.57 1311.6,-46.8"/>
<polygon fill="black" stroke="black" points="1314.96,-45.8 1308.25,-37.6 1308.38,-48.19 1314.96,-45.8"/>
</g>
<!-- 16854 -->
<g id="node31" class="node">
<title>16854</title>
<path fill="#c0c0c0" stroke="black" d="M1388.5,-36C1388.5,-36 1358.5,-36 1358.5,-36 1352.5,-36 1346.5,-30 1346.5,-24 1346.5,-24 1346.5,-12 1346.5,-12 1346.5,-6 1352.5,0 1358.5,0 1358.5,0 1388.5,0 1388.5,0 1394.5,0 1400.5,-6 1400.5,-12 1400.5,-12 1400.5,-24 1400.5,-24 1400.5,-30 1394.5,-36 1388.5,-36"/>
<text text-anchor="middle" x="1373.5" y="-13.32" font-family="Helvetica,sans-Serif" font-size="14.00">(...)</text>
</g>
<!-- 16710&#45;&gt;16854 -->
<g id="edge30" class="edge">
<title>16710&#45;&gt;16854</title>
<path fill="none" stroke="black" d="M1354.34,-71.75C1357.44,-63.22 1360.58,-54.57 1363.4,-46.8"/>
<polygon fill="black" stroke="black" points="1366.62,-48.19 1366.75,-37.6 1360.04,-45.8 1366.62,-48.19"/>
</g>
</g>
</svg>
