<?xml version="1.0" encoding="UTF-8" standalone="no"?>
<!DOCTYPE svg PUBLIC "-//W3C//DTD SVG 1.1//EN"
 "http://www.w3.org/Graphics/SVG/1.1/DTD/svg11.dtd">
<!-- Generated by graphviz version 12.0.0 (20240803.0821)
 -->
<!-- Title: Tree Pages: 1 -->
<svg width="1400pt" height="565pt"
 viewBox="0.00 0.00 1399.50 565.00" xmlns="http://www.w3.org/2000/svg" xmlns:xlink="http://www.w3.org/1999/xlink">
<g id="graph0" class="graph" transform="scale(1 1) rotate(0) translate(4 561)">
<title>Tree</title>
<polygon fill="white" stroke="none" points="-4,4 -4,-561 1395.5,-561 1395.5,4 -4,4"/>
<!-- 0 -->
<g id="node1" class="node">
<title>0</title>
<path fill="#fdfeff" stroke="black" d="M799,-557C799,-557 639,-557 639,-557 633,-557 627,-551 627,-545 627,-545 627,-474.75 627,-474.75 627,-468.75 633,-462.75 639,-462.75 639,-462.75 799,-462.75 799,-462.75 805,-462.75 811,-468.75 811,-474.75 811,-474.75 811,-545 811,-545 811,-551 805,-557 799,-557"/>
<text text-anchor="middle" x="719" y="-539.7" font-family="Helvetica,sans-Serif" font-size="14.00">2_G &lt;= 0.5</text>
<text text-anchor="middle" x="719" y="-522.45" font-family="Helvetica,sans-Serif" font-size="14.00">entropy = 1.0</text>
<text text-anchor="middle" x="719" y="-505.2" font-family="Helvetica,sans-Serif" font-size="14.00">samples = 38165</text>
<text text-anchor="middle" x="719" y="-487.95" font-family="Helvetica,sans-Serif" font-size="14.00">value = [30021, 30324]</text>
<text text-anchor="middle" x="719" y="-470.7" font-family="Helvetica,sans-Serif" font-size="14.00">class = Plant</text>
</g>
<!-- 1 -->
<g id="node2" class="node">
<title>1</title>
<path fill="#fdf7f3" stroke="black" d="M620,-426.75C620,-426.75 460,-426.75 460,-426.75 454,-426.75 448,-420.75 448,-414.75 448,-414.75 448,-344.5 448,-344.5 448,-338.5 454,-332.5 460,-332.5 460,-332.5 620,-332.5 620,-332.5 626,-332.5 632,-338.5 632,-344.5 632,-344.5 632,-414.75 632,-414.75 632,-420.75 626,-426.75 620,-426.75"/>
<text text-anchor="middle" x="540" y="-409.45" font-family="Helvetica,sans-Serif" font-size="14.00">1_U &lt;= 0.5</text>
<text text-anchor="middle" x="540" y="-392.2" font-family="Helvetica,sans-Serif" font-size="14.00">entropy = 0.999</text>
<text text-anchor="middle" x="540" y="-374.95" font-family="Helvetica,sans-Serif" font-size="14.00">samples = 26477</text>
<text text-anchor="middle" x="540" y="-357.7" font-family="Helvetica,sans-Serif" font-size="14.00">value = [21567, 20229]</text>
<text text-anchor="middle" x="540" y="-340.45" font-family="Helvetica,sans-Serif" font-size="14.00">class = Animal</text>
</g>
<!-- 0&#45;&gt;1 -->
<g id="edge1" class="edge">
<title>0&#45;&gt;1</title>
<path fill="none" stroke="black" d="M654.12,-462.39C641.12,-453.07 627.36,-443.22 614.07,-433.69"/>
<polygon fill="black" stroke="black" points="616.35,-431.02 606.19,-428.05 612.28,-436.72 616.35,-431.02"/>
<text text-anchor="middle" x="609.03" y="-447.16" font-family="Helvetica,sans-Serif" font-size="14.00">True</text>
</g>
<!-- 12006 -->
<g id="node17" class="node">
<title>12006</title>
<path fill="#dfeffb" stroke="black" d="M979.5,-426.75C979.5,-426.75 828.5,-426.75 828.5,-426.75 822.5,-426.75 816.5,-420.75 816.5,-414.75 816.5,-414.75 816.5,-344.5 816.5,-344.5 816.5,-338.5 822.5,-332.5 828.5,-332.5 828.5,-332.5 979.5,-332.5 979.5,-332.5 985.5,-332.5 991.5,-338.5 991.5,-344.5 991.5,-344.5 991.5,-414.75 991.5,-414.75 991.5,-420.75 985.5,-426.75 979.5,-426.75"/>
<text text-anchor="middle" x="904" y="-409.45" font-family="Helvetica,sans-Serif" font-size="14.00">23_G &lt;= 0.5</text>
<text text-anchor="middle" x="904" y="-392.2" font-family="Helvetica,sans-Serif" font-size="14.00">entropy = 0.994</text>
<text text-anchor="middle" x="904" y="-374.95" font-family="Helvetica,sans-Serif" font-size="14.00">samples = 11688</text>
<text text-anchor="middle" x="904" y="-357.7" font-family="Helvetica,sans-Serif" font-size="14.00">value = [8454, 10095]</text>
<text text-anchor="middle" x="904" y="-340.45" font-family="Helvetica,sans-Serif" font-size="14.00">class = Plant</text>
</g>
<!-- 0&#45;&gt;12006 -->
<g id="edge16" class="edge">
<title>0&#45;&gt;12006</title>
<path fill="none" stroke="black" d="M786.05,-462.39C799.49,-453.07 813.71,-443.22 827.45,-433.69"/>
<polygon fill="black" stroke="black" points="829.4,-436.6 835.62,-428.03 825.41,-430.85 829.4,-436.6"/>
<text text-anchor="middle" x="832.41" y="-447.09" font-family="Helvetica,sans-Serif" font-size="14.00">False</text>
</g>
<!-- 2 -->
<g id="node3" class="node">
<title>2</title>
<path fill="#f6d5bc" stroke="black" d="M342.5,-296.5C342.5,-296.5 191.5,-296.5 191.5,-296.5 185.5,-296.5 179.5,-290.5 179.5,-284.5 179.5,-284.5 179.5,-214.25 179.5,-214.25 179.5,-208.25 185.5,-202.25 191.5,-202.25 191.5,-202.25 342.5,-202.25 342.5,-202.25 348.5,-202.25 354.5,-208.25 354.5,-214.25 354.5,-214.25 354.5,-284.5 354.5,-284.5 354.5,-290.5 348.5,-296.5 342.5,-296.5"/>
<text text-anchor="middle" x="267" y="-279.2" font-family="Helvetica,sans-Serif" font-size="14.00">7_C &lt;= 0.5</text>
<text text-anchor="middle" x="267" y="-261.95" font-family="Helvetica,sans-Serif" font-size="14.00">entropy = 0.97</text>
<text text-anchor="middle" x="267" y="-244.7" font-family="Helvetica,sans-Serif" font-size="14.00">samples = 13196</text>
<text text-anchor="middle" x="267" y="-227.45" font-family="Helvetica,sans-Serif" font-size="14.00">value = [12458, 8263]</text>
<text text-anchor="middle" x="267" y="-210.2" font-family="Helvetica,sans-Serif" font-size="14.00">class = Animal</text>
</g>
<!-- 1&#45;&gt;2 -->
<g id="edge2" class="edge">
<title>1&#45;&gt;2</title>
<path fill="none" stroke="black" d="M447.57,-335.21C420.96,-322.7 391.85,-309.03 364.92,-296.38"/>
<polygon fill="black" stroke="black" points="366.63,-293.31 356.09,-292.23 363.65,-299.65 366.63,-293.31"/>
</g>
<!-- 7033 -->
<g id="node10" class="node">
<title>7033</title>
<path fill="#d0e8f9" stroke="black" d="M615.5,-296.5C615.5,-296.5 464.5,-296.5 464.5,-296.5 458.5,-296.5 452.5,-290.5 452.5,-284.5 452.5,-284.5 452.5,-214.25 452.5,-214.25 452.5,-208.25 458.5,-202.25 464.5,-202.25 464.5,-202.25 615.5,-202.25 615.5,-202.25 621.5,-202.25 627.5,-208.25 627.5,-214.25 627.5,-214.25 627.5,-284.5 627.5,-284.5 627.5,-290.5 621.5,-296.5 615.5,-296.5"/>
<text text-anchor="middle" x="540" y="-279.2" font-family="Helvetica,sans-Serif" font-size="14.00">9_U &lt;= 0.5</text>
<text text-anchor="middle" x="540" y="-261.95" font-family="Helvetica,sans-Serif" font-size="14.00">entropy = 0.987</text>
<text text-anchor="middle" x="540" y="-244.7" font-family="Helvetica,sans-Serif" font-size="14.00">samples = 13281</text>
<text text-anchor="middle" x="540" y="-227.45" font-family="Helvetica,sans-Serif" font-size="14.00">value = [9109, 11966]</text>
<text text-anchor="middle" x="540" y="-210.2" font-family="Helvetica,sans-Serif" font-size="14.00">class = Plant</text>
</g>
<!-- 1&#45;&gt;7033 -->
<g id="edge9" class="edge">
<title>1&#45;&gt;7033</title>
<path fill="none" stroke="black" d="M540,-332.32C540,-324.42 540,-316.13 540,-307.98"/>
<polygon fill="black" stroke="black" points="543.5,-308.12 540,-298.12 536.5,-308.12 543.5,-308.12"/>
</g>
<!-- 3 -->
<g id="node4" class="node">
<title>3</title>
<path fill="#f7dac6" stroke="black" d="M154,-166.25C154,-166.25 12,-166.25 12,-166.25 6,-166.25 0,-160.25 0,-154.25 0,-154.25 0,-84 0,-84 0,-78 6,-72 12,-72 12,-72 154,-72 154,-72 160,-72 166,-78 166,-84 166,-84 166,-154.25 166,-154.25 166,-160.25 160,-166.25 154,-166.25"/>
<text text-anchor="middle" x="83" y="-148.95" font-family="Helvetica,sans-Serif" font-size="14.00">8_C &lt;= 0.5</text>
<text text-anchor="middle" x="83" y="-131.7" font-family="Helvetica,sans-Serif" font-size="14.00">entropy = 0.979</text>
<text text-anchor="middle" x="83" y="-114.45" font-family="Helvetica,sans-Serif" font-size="14.00">samples = 10315</text>
<text text-anchor="middle" x="83" y="-97.2" font-family="Helvetica,sans-Serif" font-size="14.00">value = [9479, 6733]</text>
<text text-anchor="middle" x="83" y="-79.95" font-family="Helvetica,sans-Serif" font-size="14.00">class = Animal</text>
</g>
<!-- 2&#45;&gt;3 -->
<g id="edge3" class="edge">
<title>2&#45;&gt;3</title>
<path fill="none" stroke="black" d="M200.31,-201.89C186.94,-192.57 172.8,-182.72 159.14,-173.19"/>
<polygon fill="black" stroke="black" points="161.22,-170.38 151.01,-167.53 157.21,-176.12 161.22,-170.38"/>
</g>
<!-- 5498 -->
<g id="node7" class="node">
<title>5498</title>
<path fill="#f2c29f" stroke="black" d="M338,-166.25C338,-166.25 196,-166.25 196,-166.25 190,-166.25 184,-160.25 184,-154.25 184,-154.25 184,-84 184,-84 184,-78 190,-72 196,-72 196,-72 338,-72 338,-72 344,-72 350,-78 350,-84 350,-84 350,-154.25 350,-154.25 350,-160.25 344,-166.25 338,-166.25"/>
<text text-anchor="middle" x="267" y="-148.95" font-family="Helvetica,sans-Serif" font-size="14.00">1_G &lt;= 0.5</text>
<text text-anchor="middle" x="267" y="-131.7" font-family="Helvetica,sans-Serif" font-size="14.00">entropy = 0.924</text>
<text text-anchor="middle" x="267" y="-114.45" font-family="Helvetica,sans-Serif" font-size="14.00">samples = 2881</text>
<text text-anchor="middle" x="267" y="-97.2" font-family="Helvetica,sans-Serif" font-size="14.00">value = [2979, 1530]</text>
<text text-anchor="middle" x="267" y="-79.95" font-family="Helvetica,sans-Serif" font-size="14.00">class = Animal</text>
</g>
<!-- 2&#45;&gt;5498 -->
<g id="edge6" class="edge">
<title>2&#45;&gt;5498</title>
<path fill="none" stroke="black" d="M267,-202.07C267,-194.17 267,-185.88 267,-177.73"/>
<polygon fill="black" stroke="black" points="270.5,-177.87 267,-167.87 263.5,-177.87 270.5,-177.87"/>
</g>
<!-- 4 -->
<g id="node5" class="node">
<title>4</title>
<path fill="#c0c0c0" stroke="black" d="M62,-36C62,-36 32,-36 32,-36 26,-36 20,-30 20,-24 20,-24 20,-12 20,-12 20,-6 26,0 32,0 32,0 62,0 62,0 68,0 74,-6 74,-12 74,-12 74,-24 74,-24 74,-30 68,-36 62,-36"/>
<text text-anchor="middle" x="47" y="-13.32" font-family="Helvetica,sans-Serif" font-size="14.00">(...)</text>
</g>
<!-- 3&#45;&gt;4 -->
<g id="edge4" class="edge">
<title>3&#45;&gt;4</title>
<path fill="none" stroke="black" d="M66.16,-71.75C63.06,-63.22 59.92,-54.57 57.1,-46.8"/>
<polygon fill="black" stroke="black" points="60.46,-45.8 53.75,-37.6 53.88,-48.19 60.46,-45.8"/>
</g>
<!-- 4257 -->
<g id="node6" class="node">
<title>4257</title>
<path fill="#c0c0c0" stroke="black" d="M134,-36C134,-36 104,-36 104,-36 98,-36 92,-30 92,-24 92,-24 92,-12 92,-12 92,-6 98,0 104,0 104,0 134,0 134,0 140,0 146,-6 146,-12 146,-12 146,-24 146,-24 146,-30 140,-36 134,-36"/>
<text text-anchor="middle" x="119" y="-13.32" font-family="Helvetica,sans-Serif" font-size="14.00">(...)</text>
</g>
<!-- 3&#45;&gt;4257 -->
<g id="edge5" class="edge">
<title>3&#45;&gt;4257</title>
<path fill="none" stroke="black" d="M99.84,-71.75C102.94,-63.22 106.08,-54.57 108.9,-46.8"/>
<polygon fill="black" stroke="black" points="112.12,-48.19 112.25,-37.6 105.54,-45.8 112.12,-48.19"/>
</g>
<!-- 5499 -->
<g id="node8" class="node">
<title>5499</title>
<path fill="#c0c0c0" stroke="black" d="M250,-36C250,-36 220,-36 220,-36 214,-36 208,-30 208,-24 208,-24 208,-12 208,-12 208,-6 214,0 220,0 220,0 250,0 250,0 256,0 262,-6 262,-12 262,-12 262,-24 262,-24 262,-30 256,-36 250,-36"/>
<text text-anchor="middle" x="235" y="-13.32" font-family="Helvetica,sans-Serif" font-size="14.00">(...)</text>
</g>
<!-- 5498&#45;&gt;5499 -->
<g id="edge7" class="edge">
<title>5498&#45;&gt;5499</title>
<path fill="none" stroke="black" d="M252.03,-71.75C249.31,-63.32 246.55,-54.77 244.06,-47.07"/>
<polygon fill="black" stroke="black" points="247.41,-46.05 241.01,-37.61 240.75,-48.2 247.41,-46.05"/>
</g>
<!-- 6692 -->
<g id="node9" class="node">
<title>6692</title>
<path fill="#c0c0c0" stroke="black" d="M322,-36C322,-36 292,-36 292,-36 286,-36 280,-30 280,-24 280,-24 280,-12 280,-12 280,-6 286,0 292,0 292,0 322,0 322,0 328,0 334,-6 334,-12 334,-12 334,-24 334,-24 334,-30 328,-36 322,-36"/>
<text text-anchor="middle" x="307" y="-13.32" font-family="Helvetica,sans-Serif" font-size="14.00">(...)</text>
</g>
<!-- 5498&#45;&gt;6692 -->
<g id="edge8" class="edge">
<title>5498&#45;&gt;6692</title>
<path fill="none" stroke="black" d="M285.71,-71.75C289.15,-63.22 292.65,-54.57 295.78,-46.8"/>
<polygon fill="black" stroke="black" points="299.01,-48.16 299.5,-37.58 292.52,-45.54 299.01,-48.16"/>
</g>
<!-- 7034 -->
<g id="node11" class="node">
<title>7034</title>
<path fill="#afd7f4" stroke="black" d="M522,-166.25C522,-166.25 380,-166.25 380,-166.25 374,-166.25 368,-160.25 368,-154.25 368,-154.25 368,-84 368,-84 368,-78 374,-72 380,-72 380,-72 522,-72 522,-72 528,-72 534,-78 534,-84 534,-84 534,-154.25 534,-154.25 534,-160.25 528,-166.25 522,-166.25"/>
<text text-anchor="middle" x="451" y="-148.95" font-family="Helvetica,sans-Serif" font-size="14.00">3_G &lt;= 0.5</text>
<text text-anchor="middle" x="451" y="-131.7" font-family="Helvetica,sans-Serif" font-size="14.00">entropy = 0.953</text>
<text text-anchor="middle" x="451" y="-114.45" font-family="Helvetica,sans-Serif" font-size="14.00">samples = 9814</text>
<text text-anchor="middle" x="451" y="-97.2" font-family="Helvetica,sans-Serif" font-size="14.00">value = [5793, 9726]</text>
<text text-anchor="middle" x="451" y="-79.95" font-family="Helvetica,sans-Serif" font-size="14.00">class = Plant</text>
</g>
<!-- 7033&#45;&gt;7034 -->
<g id="edge10" class="edge">
<title>7033&#45;&gt;7034</title>
<path fill="none" stroke="black" d="M507.87,-202.07C501.95,-193.54 495.7,-184.54 489.61,-175.77"/>
<polygon fill="black" stroke="black" points="492.52,-173.82 483.95,-167.6 486.77,-177.81 492.52,-173.82"/>
</g>
<!-- 10491 -->
<g id="node14" class="node">
<title>10491</title>
<path fill="#f7d6bf" stroke="black" d="M706,-166.25C706,-166.25 564,-166.25 564,-166.25 558,-166.25 552,-160.25 552,-154.25 552,-154.25 552,-84 552,-84 552,-78 558,-72 564,-72 564,-72 706,-72 706,-72 712,-72 718,-78 718,-84 718,-84 718,-154.25 718,-154.25 718,-160.25 712,-166.25 706,-166.25"/>
<text text-anchor="middle" x="635" y="-148.95" font-family="Helvetica,sans-Serif" font-size="14.00">20_U &lt;= 0.5</text>
<text text-anchor="middle" x="635" y="-131.7" font-family="Helvetica,sans-Serif" font-size="14.00">entropy = 0.973</text>
<text text-anchor="middle" x="635" y="-114.45" font-family="Helvetica,sans-Serif" font-size="14.00">samples = 3467</text>
<text text-anchor="middle" x="635" y="-97.2" font-family="Helvetica,sans-Serif" font-size="14.00">value = [3316, 2240]</text>
<text text-anchor="middle" x="635" y="-79.95" font-family="Helvetica,sans-Serif" font-size="14.00">class = Animal</text>
</g>
<!-- 7033&#45;&gt;10491 -->
<g id="edge13" class="edge">
<title>7033&#45;&gt;10491</title>
<path fill="none" stroke="black" d="M574.3,-202.07C580.69,-193.45 587.42,-184.35 593.99,-175.49"/>
<polygon fill="black" stroke="black" points="596.71,-177.69 599.85,-167.57 591.09,-173.53 596.71,-177.69"/>
</g>
<!-- 7035 -->
<g id="node12" class="node">
<title>7035</title>
<path fill="#c0c0c0" stroke="black" d="M414,-36C414,-36 384,-36 384,-36 378,-36 372,-30 372,-24 372,-24 372,-12 372,-12 372,-6 378,0 384,0 384,0 414,0 414,0 420,0 426,-6 426,-12 426,-12 426,-24 426,-24 426,-30 420,-36 414,-36"/>
<text text-anchor="middle" x="399" y="-13.32" font-family="Helvetica,sans-Serif" font-size="14.00">(...)</text>
</g>
<!-- 7034&#45;&gt;7035 -->
<g id="edge11" class="edge">
<title>7034&#45;&gt;7035</title>
<path fill="none" stroke="black" d="M426.67,-71.75C422.1,-63.03 417.45,-54.16 413.3,-46.26"/>
<polygon fill="black" stroke="black" points="416.46,-44.74 408.71,-37.51 410.26,-47.99 416.46,-44.74"/>
</g>
<!-- 9556 -->
<g id="node13" class="node">
<title>9556</title>
<path fill="#c0c0c0" stroke="black" d="M486,-36C486,-36 456,-36 456,-36 450,-36 444,-30 444,-24 444,-24 444,-12 444,-12 444,-6 450,0 456,0 456,0 486,0 486,0 492,0 498,-6 498,-12 498,-12 498,-24 498,-24 498,-30 492,-36 486,-36"/>
<text text-anchor="middle" x="471" y="-13.32" font-family="Helvetica,sans-Serif" font-size="14.00">(...)</text>
</g>
<!-- 7034&#45;&gt;9556 -->
<g id="edge12" class="edge">
<title>7034&#45;&gt;9556</title>
<path fill="none" stroke="black" d="M460.36,-71.75C462.04,-63.42 463.74,-54.97 465.28,-47.34"/>
<polygon fill="black" stroke="black" points="468.69,-48.15 467.24,-37.66 461.83,-46.77 468.69,-48.15"/>
</g>
<!-- 10492 -->
<g id="node15" class="node">
<title>10492</title>
<path fill="#c0c0c0" stroke="black" d="M598,-36C598,-36 568,-36 568,-36 562,-36 556,-30 556,-24 556,-24 556,-12 556,-12 556,-6 562,0 568,0 568,0 598,0 598,0 604,0 610,-6 610,-12 610,-12 610,-24 610,-24 610,-30 604,-36 598,-36"/>
<text text-anchor="middle" x="583" y="-13.32" font-family="Helvetica,sans-Serif" font-size="14.00">(...)</text>
</g>
<!-- 10491&#45;&gt;10492 -->
<g id="edge14" class="edge">
<title>10491&#45;&gt;10492</title>
<path fill="none" stroke="black" d="M610.67,-71.75C606.1,-63.03 601.45,-54.16 597.3,-46.26"/>
<polygon fill="black" stroke="black" points="600.46,-44.74 592.71,-37.51 594.26,-47.99 600.46,-44.74"/>
</g>
<!-- 11613 -->
<g id="node16" class="node">
<title>11613</title>
<path fill="#c0c0c0" stroke="black" d="M670,-36C670,-36 640,-36 640,-36 634,-36 628,-30 628,-24 628,-24 628,-12 628,-12 628,-6 634,0 640,0 640,0 670,0 670,0 676,0 682,-6 682,-12 682,-12 682,-24 682,-24 682,-30 676,-36 670,-36"/>
<text text-anchor="middle" x="655" y="-13.32" font-family="Helvetica,sans-Serif" font-size="14.00">(...)</text>
</g>
<!-- 10491&#45;&gt;11613 -->
<g id="edge15" class="edge">
<title>10491&#45;&gt;11613</title>
<path fill="none" stroke="black" d="M644.36,-71.75C646.04,-63.42 647.74,-54.97 649.28,-47.34"/>
<polygon fill="black" stroke="black" points="652.69,-48.15 651.24,-37.66 645.83,-46.77 652.69,-48.15"/>
</g>
<!-- 12007 -->
<g id="node18" class="node">
<title>12007</title>
<path fill="#d4eaf9" stroke="black" d="M975,-296.5C975,-296.5 833,-296.5 833,-296.5 827,-296.5 821,-290.5 821,-284.5 821,-284.5 821,-214.25 821,-214.25 821,-208.25 827,-202.25 833,-202.25 833,-202.25 975,-202.25 975,-202.25 981,-202.25 987,-208.25 987,-214.25 987,-214.25 987,-284.5 987,-284.5 987,-290.5 981,-296.5 975,-296.5"/>
<text text-anchor="middle" x="904" y="-279.2" font-family="Helvetica,sans-Serif" font-size="14.00">22_C &lt;= 0.5</text>
<text text-anchor="middle" x="904" y="-261.95" font-family="Helvetica,sans-Serif" font-size="14.00">entropy = 0.989</text>
<text text-anchor="middle" x="904" y="-244.7" font-family="Helvetica,sans-Serif" font-size="14.00">samples = 11187</text>
<text text-anchor="middle" x="904" y="-227.45" font-family="Helvetica,sans-Serif" font-size="14.00">value = [7784, 9962]</text>
<text text-anchor="middle" x="904" y="-210.2" font-family="Helvetica,sans-Serif" font-size="14.00">class = Plant</text>
</g>
<!-- 12006&#45;&gt;12007 -->
<g id="edge17" class="edge">
<title>12006&#45;&gt;12007</title>
<path fill="none" stroke="black" d="M904,-332.32C904,-324.42 904,-316.13 904,-307.98"/>
<polygon fill="black" stroke="black" points="907.5,-308.12 904,-298.12 900.5,-308.12 907.5,-308.12"/>
</g>
<!-- 16508 -->
<g id="node25" class="node">
<title>16508</title>
<path fill="#ea9a60" stroke="black" d="M1227,-296.5C1227,-296.5 1103,-296.5 1103,-296.5 1097,-296.5 1091,-290.5 1091,-284.5 1091,-284.5 1091,-214.25 1091,-214.25 1091,-208.25 1097,-202.25 1103,-202.25 1103,-202.25 1227,-202.25 1227,-202.25 1233,-202.25 1239,-208.25 1239,-214.25 1239,-214.25 1239,-284.5 1239,-284.5 1239,-290.5 1233,-296.5 1227,-296.5"/>
<text text-anchor="middle" x="1165" y="-279.2" font-family="Helvetica,sans-Serif" font-size="14.00">6_A &lt;= 0.5</text>
<text text-anchor="middle" x="1165" y="-261.95" font-family="Helvetica,sans-Serif" font-size="14.00">entropy = 0.648</text>
<text text-anchor="middle" x="1165" y="-244.7" font-family="Helvetica,sans-Serif" font-size="14.00">samples = 501</text>
<text text-anchor="middle" x="1165" y="-227.45" font-family="Helvetica,sans-Serif" font-size="14.00">value = [670, 133]</text>
<text text-anchor="middle" x="1165" y="-210.2" font-family="Helvetica,sans-Serif" font-size="14.00">class = Animal</text>
</g>
<!-- 12006&#45;&gt;16508 -->
<g id="edge24" class="edge">
<title>12006&#45;&gt;16508</title>
<path fill="none" stroke="black" d="M992,-335.38C1020.6,-321.33 1052.26,-305.77 1080.59,-291.85"/>
<polygon fill="black" stroke="black" points="1082.08,-295.02 1089.51,-287.47 1078.99,-288.74 1082.08,-295.02"/>
</g>
<!-- 12008 -->
<g id="node19" class="node">
<title>12008</title>
<path fill="#c4e2f7" stroke="black" d="M890,-166.25C890,-166.25 748,-166.25 748,-166.25 742,-166.25 736,-160.25 736,-154.25 736,-154.25 736,-84 736,-84 736,-78 742,-72 748,-72 748,-72 890,-72 890,-72 896,-72 902,-78 902,-84 902,-84 902,-154.25 902,-154.25 902,-160.25 896,-166.25 890,-166.25"/>
<text text-anchor="middle" x="819" y="-148.95" font-family="Helvetica,sans-Serif" font-size="14.00">12_U &lt;= 0.5</text>
<text text-anchor="middle" x="819" y="-131.7" font-family="Helvetica,sans-Serif" font-size="14.00">entropy = 0.978</text>
<text text-anchor="middle" x="819" y="-114.45" font-family="Helvetica,sans-Serif" font-size="14.00">samples = 10291</text>
<text text-anchor="middle" x="819" y="-97.2" font-family="Helvetica,sans-Serif" font-size="14.00">value = [6729, 9574]</text>
<text text-anchor="middle" x="819" y="-79.95" font-family="Helvetica,sans-Serif" font-size="14.00">class = Plant</text>
</g>
<!-- 12007&#45;&gt;12008 -->
<g id="edge18" class="edge">
<title>12007&#45;&gt;12008</title>
<path fill="none" stroke="black" d="M873.31,-202.07C867.66,-193.54 861.7,-184.54 855.88,-175.77"/>
<polygon fill="black" stroke="black" points="858.92,-174.02 850.48,-167.62 853.09,-177.89 858.92,-174.02"/>
</g>
<!-- 16013 -->
<g id="node22" class="node">
<title>16013</title>
<path fill="#efaf82" stroke="black" d="M1065.5,-166.25C1065.5,-166.25 932.5,-166.25 932.5,-166.25 926.5,-166.25 920.5,-160.25 920.5,-154.25 920.5,-154.25 920.5,-84 920.5,-84 920.5,-78 926.5,-72 932.5,-72 932.5,-72 1065.5,-72 1065.5,-72 1071.5,-72 1077.5,-78 1077.5,-84 1077.5,-84 1077.5,-154.25 1077.5,-154.25 1077.5,-160.25 1071.5,-166.25 1065.5,-166.25"/>
<text text-anchor="middle" x="999" y="-148.95" font-family="Helvetica,sans-Serif" font-size="14.00">25_G &lt;= 0.5</text>
<text text-anchor="middle" x="999" y="-131.7" font-family="Helvetica,sans-Serif" font-size="14.00">entropy = 0.84</text>
<text text-anchor="middle" x="999" y="-114.45" font-family="Helvetica,sans-Serif" font-size="14.00">samples = 896</text>
<text text-anchor="middle" x="999" y="-97.2" font-family="Helvetica,sans-Serif" font-size="14.00">value = [1055, 388]</text>
<text text-anchor="middle" x="999" y="-79.95" font-family="Helvetica,sans-Serif" font-size="14.00">class = Animal</text>
</g>
<!-- 12007&#45;&gt;16013 -->
<g id="edge21" class="edge">
<title>12007&#45;&gt;16013</title>
<path fill="none" stroke="black" d="M938.3,-202.07C944.69,-193.45 951.42,-184.35 957.99,-175.49"/>
<polygon fill="black" stroke="black" points="960.71,-177.69 963.85,-167.57 955.09,-173.53 960.71,-177.69"/>
</g>
<!-- 12009 -->
<g id="node20" class="node">
<title>12009</title>
<path fill="#c0c0c0" stroke="black" d="M780,-36C780,-36 750,-36 750,-36 744,-36 738,-30 738,-24 738,-24 738,-12 738,-12 738,-6 744,0 750,0 750,0 780,0 780,0 786,0 792,-6 792,-12 792,-12 792,-24 792,-24 792,-30 786,-36 780,-36"/>
<text text-anchor="middle" x="765" y="-13.32" font-family="Helvetica,sans-Serif" font-size="14.00">(...)</text>
</g>
<!-- 12008&#45;&gt;12009 -->
<g id="edge19" class="edge">
<title>12008&#45;&gt;12009</title>
<path fill="none" stroke="black" d="M793.74,-71.75C788.98,-63.03 784.16,-54.16 779.85,-46.26"/>
<polygon fill="black" stroke="black" points="782.94,-44.61 775.08,-37.5 776.79,-47.96 782.94,-44.61"/>
</g>
<!-- 14924 -->
<g id="node21" class="node">
<title>14924</title>
<path fill="#c0c0c0" stroke="black" d="M852,-36C852,-36 822,-36 822,-36 816,-36 810,-30 810,-24 810,-24 810,-12 810,-12 810,-6 816,0 822,0 822,0 852,0 852,0 858,0 864,-6 864,-12 864,-12 864,-24 864,-24 864,-30 858,-36 852,-36"/>
<text text-anchor="middle" x="837" y="-13.32" font-family="Helvetica,sans-Serif" font-size="14.00">(...)</text>
</g>
<!-- 12008&#45;&gt;14924 -->
<g id="edge20" class="edge">
<title>12008&#45;&gt;14924</title>
<path fill="none" stroke="black" d="M827.42,-71.75C828.93,-63.42 830.47,-54.97 831.85,-47.34"/>
<polygon fill="black" stroke="black" points="835.27,-48.13 833.61,-37.66 828.38,-46.88 835.27,-48.13"/>
</g>
<!-- 16014 -->
<g id="node23" class="node">
<title>16014</title>
<path fill="#c0c0c0" stroke="black" d="M953,-36C953,-36 923,-36 923,-36 917,-36 911,-30 911,-24 911,-24 911,-12 911,-12 911,-6 917,0 923,0 923,0 953,0 953,0 959,0 965,-6 965,-12 965,-12 965,-24 965,-24 965,-30 959,-36 953,-36"/>
<text text-anchor="middle" x="938" y="-13.32" font-family="Helvetica,sans-Serif" font-size="14.00">(...)</text>
</g>
<!-- 16013&#45;&gt;16014 -->
<g id="edge22" class="edge">
<title>16013&#45;&gt;16014</title>
<path fill="none" stroke="black" d="M970.46,-71.75C964.97,-62.83 959.39,-53.76 954.44,-45.72"/>
<polygon fill="black" stroke="black" points="957.58,-44.14 949.36,-37.46 951.62,-47.81 957.58,-44.14"/>
</g>
<!-- 16495 -->
<g id="node24" class="node">
<title>16495</title>
<path fill="#c0c0c0" stroke="black" d="M1025,-36C1025,-36 995,-36 995,-36 989,-36 983,-30 983,-24 983,-24 983,-12 983,-12 983,-6 989,0 995,0 995,0 1025,0 1025,0 1031,0 1037,-6 1037,-12 1037,-12 1037,-24 1037,-24 1037,-30 1031,-36 1025,-36"/>
<text text-anchor="middle" x="1010" y="-13.32" font-family="Helvetica,sans-Serif" font-size="14.00">(...)</text>
</g>
<!-- 16013&#45;&gt;16495 -->
<g id="edge23" class="edge">
<title>16013&#45;&gt;16495</title>
<path fill="none" stroke="black" d="M1004.15,-71.75C1005.06,-63.52 1005.99,-55.17 1006.82,-47.61"/>
<polygon fill="black" stroke="black" points="1010.3,-48 1007.93,-37.68 1003.35,-47.23 1010.3,-48"/>
</g>
<!-- 16509 -->
<g id="node26" class="node">
<title>16509</title>
<path fill="#e99254" stroke="black" d="M1222.5,-166.25C1222.5,-166.25 1107.5,-166.25 1107.5,-166.25 1101.5,-166.25 1095.5,-160.25 1095.5,-154.25 1095.5,-154.25 1095.5,-84 1095.5,-84 1095.5,-78 1101.5,-72 1107.5,-72 1107.5,-72 1222.5,-72 1222.5,-72 1228.5,-72 1234.5,-78 1234.5,-84 1234.5,-84 1234.5,-154.25 1234.5,-154.25 1234.5,-160.25 1228.5,-166.25 1222.5,-166.25"/>
<text text-anchor="middle" x="1165" y="-148.95" font-family="Helvetica,sans-Serif" font-size="14.00">5_G &lt;= 0.5</text>
<text text-anchor="middle" x="1165" y="-131.7" font-family="Helvetica,sans-Serif" font-size="14.00">entropy = 0.534</text>
<text text-anchor="middle" x="1165" y="-114.45" font-family="Helvetica,sans-Serif" font-size="14.00">samples = 386</text>
<text text-anchor="middle" x="1165" y="-97.2" font-family="Helvetica,sans-Serif" font-size="14.00">value = [549, 76]</text>
<text text-anchor="middle" x="1165" y="-79.95" font-family="Helvetica,sans-Serif" font-size="14.00">class = Animal</text>
</g>
<!-- 16508&#45;&gt;16509 -->
<g id="edge25" class="edge">
<title>16508&#45;&gt;16509</title>
<path fill="none" stroke="black" d="M1165,-202.07C1165,-194.17 1165,-185.88 1165,-177.73"/>
<polygon fill="black" stroke="black" points="1168.5,-177.87 1165,-167.87 1161.5,-177.87 1168.5,-177.87"/>
</g>
<!-- 16658 -->
<g id="node29" class="node">
<title>16658</title>
<path fill="#f1bc96" stroke="black" d="M1379.5,-166.25C1379.5,-166.25 1264.5,-166.25 1264.5,-166.25 1258.5,-166.25 1252.5,-160.25 1252.5,-154.25 1252.5,-154.25 1252.5,-84 1252.5,-84 1252.5,-78 1258.5,-72 1264.5,-72 1264.5,-72 1379.5,-72 1379.5,-72 1385.5,-72 1391.5,-78 1391.5,-84 1391.5,-84 1391.5,-154.25 1391.5,-154.25 1391.5,-160.25 1385.5,-166.25 1379.5,-166.25"/>
<text text-anchor="middle" x="1322" y="-148.95" font-family="Helvetica,sans-Serif" font-size="14.00">18_A &lt;= 0.5</text>
<text text-anchor="middle" x="1322" y="-131.7" font-family="Helvetica,sans-Serif" font-size="14.00">entropy = 0.905</text>
<text text-anchor="middle" x="1322" y="-114.45" font-family="Helvetica,sans-Serif" font-size="14.00">samples = 115</text>
<text text-anchor="middle" x="1322" y="-97.2" font-family="Helvetica,sans-Serif" font-size="14.00">value = [121, 57]</text>
<text text-anchor="middle" x="1322" y="-79.95" font-family="Helvetica,sans-Serif" font-size="14.00">class = Animal</text>
</g>
<!-- 16508&#45;&gt;16658 -->
<g id="edge28" class="edge">
<title>16508&#45;&gt;16658</title>
<path fill="none" stroke="black" d="M1221.68,-202.07C1232.95,-192.87 1244.87,-183.13 1256.41,-173.71"/>
<polygon fill="black" stroke="black" points="1258.44,-176.57 1263.97,-167.53 1254.01,-171.15 1258.44,-176.57"/>
</g>
<!-- 16510 -->
<g id="node27" class="node">
<title>16510</title>
<path fill="#c0c0c0" stroke="black" d="M1132,-36C1132,-36 1102,-36 1102,-36 1096,-36 1090,-30 1090,-24 1090,-24 1090,-12 1090,-12 1090,-6 1096,0 1102,0 1102,0 1132,0 1132,0 1138,0 1144,-6 1144,-12 1144,-12 1144,-24 1144,-24 1144,-30 1138,-36 1132,-36"/>
<text text-anchor="middle" x="1117" y="-13.32" font-family="Helvetica,sans-Serif" font-size="14.00">(...)</text>
</g>
<!-- 16509&#45;&gt;16510 -->
<g id="edge26" class="edge">
<title>16509&#45;&gt;16510</title>
<path fill="none" stroke="black" d="M1142.55,-71.75C1138.37,-63.12 1134.12,-54.36 1130.33,-46.53"/>
<polygon fill="black" stroke="black" points="1133.48,-45.01 1125.98,-37.53 1127.18,-48.06 1133.48,-45.01"/>
</g>
<!-- 16647 -->
<g id="node28" class="node">
<title>16647</title>
<path fill="#c0c0c0" stroke="black" d="M1204,-36C1204,-36 1174,-36 1174,-36 1168,-36 1162,-30 1162,-24 1162,-24 1162,-12 1162,-12 1162,-6 1168,0 1174,0 1174,0 1204,0 1204,0 1210,0 1216,-6 1216,-12 1216,-12 1216,-24 1216,-24 1216,-30 1210,-36 1204,-36"/>
<text text-anchor="middle" x="1189" y="-13.32" font-family="Helvetica,sans-Serif" font-size="14.00">(...)</text>
</g>
<!-- 16509&#45;&gt;16647 -->
<g id="edge27" class="edge">
<title>16509&#45;&gt;16647</title>
<path fill="none" stroke="black" d="M1176.23,-71.75C1178.24,-63.42 1180.29,-54.97 1182.14,-47.34"/>
<polygon fill="black" stroke="black" points="1185.53,-48.19 1184.49,-37.64 1178.73,-46.54 1185.53,-48.19"/>
</g>
<!-- 16659 -->
<g id="node30" class="node">
<title>16659</title>
<path fill="#c0c0c0" stroke="black" d="M1301,-36C1301,-36 1271,-36 1271,-36 1265,-36 1259,-30 1259,-24 1259,-24 1259,-12 1259,-12 1259,-6 1265,0 1271,0 1271,0 1301,0 1301,0 1307,0 1313,-6 1313,-12 1313,-12 1313,-24 1313,-24 1313,-30 1307,-36 1301,-36"/>
<text text-anchor="middle" x="1286" y="-13.32" font-family="Helvetica,sans-Serif" font-size="14.00">(...)</text>
</g>
<!-- 16658&#45;&gt;16659 -->
<g id="edge29" class="edge">
<title>16658&#45;&gt;16659</title>
<path fill="none" stroke="black" d="M1305.16,-71.75C1302.06,-63.22 1298.92,-54.57 1296.1,-46.8"/>
<polygon fill="black" stroke="black" points="1299.46,-45.8 1292.75,-37.6 1292.88,-48.19 1299.46,-45.8"/>
</g>
<!-- 16704 -->
<g id="node31" class="node">
<title>16704</title>
<path fill="#c0c0c0" stroke="black" d="M1373,-36C1373,-36 1343,-36 1343,-36 1337,-36 1331,-30 1331,-24 1331,-24 1331,-12 1331,-12 1331,-6 1337,0 1343,0 1343,0 1373,0 1373,0 1379,0 1385,-6 1385,-12 1385,-12 1385,-24 1385,-24 1385,-30 1379,-36 1373,-36"/>
<text text-anchor="middle" x="1358" y="-13.32" font-family="Helvetica,sans-Serif" font-size="14.00">(...)</text>
</g>
<!-- 16658&#45;&gt;16704 -->
<g id="edge30" class="edge">
<title>16658&#45;&gt;16704</title>
<path fill="none" stroke="black" d="M1338.84,-71.75C1341.94,-63.22 1345.08,-54.57 1347.9,-46.8"/>
<polygon fill="black" stroke="black" points="1351.12,-48.19 1351.25,-37.6 1344.54,-45.8 1351.12,-48.19"/>
</g>
</g>
</svg>
