<?xml version="1.0" encoding="UTF-8" standalone="no"?>
<!DOCTYPE svg PUBLIC "-//W3C//DTD SVG 1.1//EN"
 "http://www.w3.org/Graphics/SVG/1.1/DTD/svg11.dtd">
<!-- Generated by graphviz version 12.0.0 (20240803.0821)
 -->
<!-- Title: Tree Pages: 1 -->
<svg width="1428pt" height="565pt"
 viewBox="0.00 0.00 1428.00 565.00" xmlns="http://www.w3.org/2000/svg" xmlns:xlink="http://www.w3.org/1999/xlink">
<g id="graph0" class="graph" transform="scale(1 1) rotate(0) translate(4 561)">
<title>Tree</title>
<polygon fill="white" stroke="none" points="-4,4 -4,-561 1424,-561 1424,4 -4,4"/>
<!-- 0 -->
<g id="node1" class="node">
<title>0</title>
<path fill="#ffffff" stroke="black" d="M794,-557C794,-557 634,-557 634,-557 628,-557 622,-551 622,-545 622,-545 622,-474.75 622,-474.75 622,-468.75 628,-462.75 634,-462.75 634,-462.75 794,-462.75 794,-462.75 800,-462.75 806,-468.75 806,-474.75 806,-474.75 806,-545 806,-545 806,-551 800,-557 794,-557"/>
<text text-anchor="middle" x="714" y="-539.7" font-family="Helvetica,sans-Serif" font-size="14.00">10_U &lt;= 0.5</text>
<text text-anchor="middle" x="714" y="-522.45" font-family="Helvetica,sans-Serif" font-size="14.00">entropy = 1.0</text>
<text text-anchor="middle" x="714" y="-505.2" font-family="Helvetica,sans-Serif" font-size="14.00">samples = 38330</text>
<text text-anchor="middle" x="714" y="-487.95" font-family="Helvetica,sans-Serif" font-size="14.00">value = [30141, 30204]</text>
<text text-anchor="middle" x="714" y="-470.7" font-family="Helvetica,sans-Serif" font-size="14.00">class = Plant</text>
</g>
<!-- 1 -->
<g id="node2" class="node">
<title>1</title>
<path fill="#f3f9fd" stroke="black" d="M626,-426.75C626,-426.75 466,-426.75 466,-426.75 460,-426.75 454,-420.75 454,-414.75 454,-414.75 454,-344.5 454,-344.5 454,-338.5 460,-332.5 466,-332.5 466,-332.5 626,-332.5 626,-332.5 632,-332.5 638,-338.5 638,-344.5 638,-344.5 638,-414.75 638,-414.75 638,-420.75 632,-426.75 626,-426.75"/>
<text text-anchor="middle" x="546" y="-409.45" font-family="Helvetica,sans-Serif" font-size="14.00">23_U &lt;= 0.5</text>
<text text-anchor="middle" x="546" y="-392.2" font-family="Helvetica,sans-Serif" font-size="14.00">entropy = 0.999</text>
<text text-anchor="middle" x="546" y="-374.95" font-family="Helvetica,sans-Serif" font-size="14.00">samples = 28954</text>
<text text-anchor="middle" x="546" y="-357.7" font-family="Helvetica,sans-Serif" font-size="14.00">value = [22120, 23599]</text>
<text text-anchor="middle" x="546" y="-340.45" font-family="Helvetica,sans-Serif" font-size="14.00">class = Plant</text>
</g>
<!-- 0&#45;&gt;1 -->
<g id="edge1" class="edge">
<title>0&#45;&gt;1</title>
<path fill="none" stroke="black" d="M653.35,-462.57C641.17,-453.28 628.28,-443.44 615.82,-433.93"/>
<polygon fill="black" stroke="black" points="618.12,-431.28 608.05,-427.99 613.87,-436.84 618.12,-431.28"/>
<text text-anchor="middle" x="610.17" y="-447.18" font-family="Helvetica,sans-Serif" font-size="14.00">True</text>
</g>
<!-- 12548 -->
<g id="node17" class="node">
<title>12548</title>
<path fill="#fae9dc" stroke="black" d="M974,-426.75C974,-426.75 832,-426.75 832,-426.75 826,-426.75 820,-420.75 820,-414.75 820,-414.75 820,-344.5 820,-344.5 820,-338.5 826,-332.5 832,-332.5 832,-332.5 974,-332.5 974,-332.5 980,-332.5 986,-338.5 986,-344.5 986,-344.5 986,-414.75 986,-414.75 986,-420.75 980,-426.75 974,-426.75"/>
<text text-anchor="middle" x="903" y="-409.45" font-family="Helvetica,sans-Serif" font-size="14.00">7_C &lt;= 0.5</text>
<text text-anchor="middle" x="903" y="-392.2" font-family="Helvetica,sans-Serif" font-size="14.00">entropy = 0.993</text>
<text text-anchor="middle" x="903" y="-374.95" font-family="Helvetica,sans-Serif" font-size="14.00">samples = 9376</text>
<text text-anchor="middle" x="903" y="-357.7" font-family="Helvetica,sans-Serif" font-size="14.00">value = [8021, 6605]</text>
<text text-anchor="middle" x="903" y="-340.45" font-family="Helvetica,sans-Serif" font-size="14.00">class = Animal</text>
</g>
<!-- 0&#45;&gt;12548 -->
<g id="edge16" class="edge">
<title>0&#45;&gt;12548</title>
<path fill="none" stroke="black" d="M782.5,-462.39C796.37,-452.98 811.04,-443.03 825.2,-433.42"/>
<polygon fill="black" stroke="black" points="826.85,-436.53 833.16,-428.01 822.92,-430.73 826.85,-436.53"/>
<text text-anchor="middle" x="829.71" y="-447.04" font-family="Helvetica,sans-Serif" font-size="14.00">False</text>
</g>
<!-- 2 -->
<g id="node3" class="node">
<title>2</title>
<path fill="#e6f3fc" stroke="black" d="M365,-296.5C365,-296.5 205,-296.5 205,-296.5 199,-296.5 193,-290.5 193,-284.5 193,-284.5 193,-214.25 193,-214.25 193,-208.25 199,-202.25 205,-202.25 205,-202.25 365,-202.25 365,-202.25 371,-202.25 377,-208.25 377,-214.25 377,-214.25 377,-284.5 377,-284.5 377,-290.5 371,-296.5 365,-296.5"/>
<text text-anchor="middle" x="285" y="-279.2" font-family="Helvetica,sans-Serif" font-size="14.00">22_G &lt;= 0.5</text>
<text text-anchor="middle" x="285" y="-261.95" font-family="Helvetica,sans-Serif" font-size="14.00">entropy = 0.997</text>
<text text-anchor="middle" x="285" y="-244.7" font-family="Helvetica,sans-Serif" font-size="14.00">samples = 27566</text>
<text text-anchor="middle" x="285" y="-227.45" font-family="Helvetica,sans-Serif" font-size="14.00">value = [20273, 23236]</text>
<text text-anchor="middle" x="285" y="-210.2" font-family="Helvetica,sans-Serif" font-size="14.00">class = Plant</text>
</g>
<!-- 1&#45;&gt;2 -->
<g id="edge2" class="edge">
<title>1&#45;&gt;2</title>
<path fill="none" stroke="black" d="M453.61,-333.23C432.22,-322.72 409.33,-311.47 387.53,-300.75"/>
<polygon fill="black" stroke="black" points="389.14,-297.65 378.62,-296.38 386.05,-303.93 389.14,-297.65"/>
</g>
<!-- 11969 -->
<g id="node10" class="node">
<title>11969</title>
<path fill="#ea9a60" stroke="black" d="M612.5,-296.5C612.5,-296.5 479.5,-296.5 479.5,-296.5 473.5,-296.5 467.5,-290.5 467.5,-284.5 467.5,-284.5 467.5,-214.25 467.5,-214.25 467.5,-208.25 473.5,-202.25 479.5,-202.25 479.5,-202.25 612.5,-202.25 612.5,-202.25 618.5,-202.25 624.5,-208.25 624.5,-214.25 624.5,-214.25 624.5,-284.5 624.5,-284.5 624.5,-290.5 618.5,-296.5 612.5,-296.5"/>
<text text-anchor="middle" x="546" y="-279.2" font-family="Helvetica,sans-Serif" font-size="14.00">13_G &lt;= 0.5</text>
<text text-anchor="middle" x="546" y="-261.95" font-family="Helvetica,sans-Serif" font-size="14.00">entropy = 0.644</text>
<text text-anchor="middle" x="546" y="-244.7" font-family="Helvetica,sans-Serif" font-size="14.00">samples = 1388</text>
<text text-anchor="middle" x="546" y="-227.45" font-family="Helvetica,sans-Serif" font-size="14.00">value = [1847, 363]</text>
<text text-anchor="middle" x="546" y="-210.2" font-family="Helvetica,sans-Serif" font-size="14.00">class = Animal</text>
</g>
<!-- 1&#45;&gt;11969 -->
<g id="edge9" class="edge">
<title>1&#45;&gt;11969</title>
<path fill="none" stroke="black" d="M546,-332.32C546,-324.42 546,-316.13 546,-307.98"/>
<polygon fill="black" stroke="black" points="549.5,-308.12 546,-298.12 542.5,-308.12 549.5,-308.12"/>
</g>
<!-- 3 -->
<g id="node4" class="node">
<title>3</title>
<path fill="#cde6f8" stroke="black" d="M172,-166.25C172,-166.25 12,-166.25 12,-166.25 6,-166.25 0,-160.25 0,-154.25 0,-154.25 0,-84 0,-84 0,-78 6,-72 12,-72 12,-72 172,-72 172,-72 178,-72 184,-78 184,-84 184,-84 184,-154.25 184,-154.25 184,-160.25 178,-166.25 172,-166.25"/>
<text text-anchor="middle" x="92" y="-148.95" font-family="Helvetica,sans-Serif" font-size="14.00">19_U &lt;= 0.5</text>
<text text-anchor="middle" x="92" y="-131.7" font-family="Helvetica,sans-Serif" font-size="14.00">entropy = 0.985</text>
<text text-anchor="middle" x="92" y="-114.45" font-family="Helvetica,sans-Serif" font-size="14.00">samples = 24401</text>
<text text-anchor="middle" x="92" y="-97.2" font-family="Helvetica,sans-Serif" font-size="14.00">value = [16478, 22053]</text>
<text text-anchor="middle" x="92" y="-79.95" font-family="Helvetica,sans-Serif" font-size="14.00">class = Plant</text>
</g>
<!-- 2&#45;&gt;3 -->
<g id="edge3" class="edge">
<title>2&#45;&gt;3</title>
<path fill="none" stroke="black" d="M215.05,-201.89C200.89,-192.48 185.9,-182.53 171.45,-172.92"/>
<polygon fill="black" stroke="black" points="173.56,-170.12 163.3,-167.5 169.69,-175.95 173.56,-170.12"/>
</g>
<!-- 10616 -->
<g id="node7" class="node">
<title>10616</title>
<path fill="#eda877" stroke="black" d="M356,-166.25C356,-166.25 214,-166.25 214,-166.25 208,-166.25 202,-160.25 202,-154.25 202,-154.25 202,-84 202,-84 202,-78 208,-72 214,-72 214,-72 356,-72 356,-72 362,-72 368,-78 368,-84 368,-84 368,-154.25 368,-154.25 368,-160.25 362,-166.25 356,-166.25"/>
<text text-anchor="middle" x="285" y="-148.95" font-family="Helvetica,sans-Serif" font-size="14.00">23_G &lt;= 0.5</text>
<text text-anchor="middle" x="285" y="-131.7" font-family="Helvetica,sans-Serif" font-size="14.00">entropy = 0.791</text>
<text text-anchor="middle" x="285" y="-114.45" font-family="Helvetica,sans-Serif" font-size="14.00">samples = 3165</text>
<text text-anchor="middle" x="285" y="-97.2" font-family="Helvetica,sans-Serif" font-size="14.00">value = [3795, 1183]</text>
<text text-anchor="middle" x="285" y="-79.95" font-family="Helvetica,sans-Serif" font-size="14.00">class = Animal</text>
</g>
<!-- 2&#45;&gt;10616 -->
<g id="edge6" class="edge">
<title>2&#45;&gt;10616</title>
<path fill="none" stroke="black" d="M285,-202.07C285,-194.17 285,-185.88 285,-177.73"/>
<polygon fill="black" stroke="black" points="288.5,-177.87 285,-167.87 281.5,-177.87 288.5,-177.87"/>
</g>
<!-- 4 -->
<g id="node5" class="node">
<title>4</title>
<path fill="#c0c0c0" stroke="black" d="M71,-36C71,-36 41,-36 41,-36 35,-36 29,-30 29,-24 29,-24 29,-12 29,-12 29,-6 35,0 41,0 41,0 71,0 71,0 77,0 83,-6 83,-12 83,-12 83,-24 83,-24 83,-30 77,-36 71,-36"/>
<text text-anchor="middle" x="56" y="-13.32" font-family="Helvetica,sans-Serif" font-size="14.00">(...)</text>
</g>
<!-- 3&#45;&gt;4 -->
<g id="edge4" class="edge">
<title>3&#45;&gt;4</title>
<path fill="none" stroke="black" d="M75.16,-71.75C72.06,-63.22 68.92,-54.57 66.1,-46.8"/>
<polygon fill="black" stroke="black" points="69.46,-45.8 62.75,-37.6 62.88,-48.19 69.46,-45.8"/>
</g>
<!-- 8025 -->
<g id="node6" class="node">
<title>8025</title>
<path fill="#c0c0c0" stroke="black" d="M143,-36C143,-36 113,-36 113,-36 107,-36 101,-30 101,-24 101,-24 101,-12 101,-12 101,-6 107,0 113,0 113,0 143,0 143,0 149,0 155,-6 155,-12 155,-12 155,-24 155,-24 155,-30 149,-36 143,-36"/>
<text text-anchor="middle" x="128" y="-13.32" font-family="Helvetica,sans-Serif" font-size="14.00">(...)</text>
</g>
<!-- 3&#45;&gt;8025 -->
<g id="edge5" class="edge">
<title>3&#45;&gt;8025</title>
<path fill="none" stroke="black" d="M108.84,-71.75C111.94,-63.22 115.08,-54.57 117.9,-46.8"/>
<polygon fill="black" stroke="black" points="121.12,-48.19 121.25,-37.6 114.54,-45.8 121.12,-48.19"/>
</g>
<!-- 10617 -->
<g id="node8" class="node">
<title>10617</title>
<path fill="#c0c0c0" stroke="black" d="M259,-36C259,-36 229,-36 229,-36 223,-36 217,-30 217,-24 217,-24 217,-12 217,-12 217,-6 223,0 229,0 229,0 259,0 259,0 265,0 271,-6 271,-12 271,-12 271,-24 271,-24 271,-30 265,-36 259,-36"/>
<text text-anchor="middle" x="244" y="-13.32" font-family="Helvetica,sans-Serif" font-size="14.00">(...)</text>
</g>
<!-- 10616&#45;&gt;10617 -->
<g id="edge7" class="edge">
<title>10616&#45;&gt;10617</title>
<path fill="none" stroke="black" d="M265.82,-71.75C262.29,-63.22 258.71,-54.57 255.5,-46.8"/>
<polygon fill="black" stroke="black" points="258.74,-45.47 251.68,-37.57 252.27,-48.15 258.74,-45.47"/>
</g>
<!-- 11806 -->
<g id="node9" class="node">
<title>11806</title>
<path fill="#c0c0c0" stroke="black" d="M331,-36C331,-36 301,-36 301,-36 295,-36 289,-30 289,-24 289,-24 289,-12 289,-12 289,-6 295,0 301,0 301,0 331,0 331,0 337,0 343,-6 343,-12 343,-12 343,-24 343,-24 343,-30 337,-36 331,-36"/>
<text text-anchor="middle" x="316" y="-13.32" font-family="Helvetica,sans-Serif" font-size="14.00">(...)</text>
</g>
<!-- 10616&#45;&gt;11806 -->
<g id="edge8" class="edge">
<title>10616&#45;&gt;11806</title>
<path fill="none" stroke="black" d="M299.5,-71.75C302.14,-63.32 304.81,-54.77 307.22,-47.07"/>
<polygon fill="black" stroke="black" points="310.53,-48.21 310.18,-37.62 303.85,-46.12 310.53,-48.21"/>
</g>
<!-- 11970 -->
<g id="node11" class="node">
<title>11970</title>
<path fill="#eb9d65" stroke="black" d="M531.5,-166.25C531.5,-166.25 398.5,-166.25 398.5,-166.25 392.5,-166.25 386.5,-160.25 386.5,-154.25 386.5,-154.25 386.5,-84 386.5,-84 386.5,-78 392.5,-72 398.5,-72 398.5,-72 531.5,-72 531.5,-72 537.5,-72 543.5,-78 543.5,-84 543.5,-84 543.5,-154.25 543.5,-154.25 543.5,-160.25 537.5,-166.25 531.5,-166.25"/>
<text text-anchor="middle" x="465" y="-148.95" font-family="Helvetica,sans-Serif" font-size="14.00">8_G &lt;= 0.5</text>
<text text-anchor="middle" x="465" y="-131.7" font-family="Helvetica,sans-Serif" font-size="14.00">entropy = 0.681</text>
<text text-anchor="middle" x="465" y="-114.45" font-family="Helvetica,sans-Serif" font-size="14.00">samples = 915</text>
<text text-anchor="middle" x="465" y="-97.2" font-family="Helvetica,sans-Serif" font-size="14.00">value = [1195, 263]</text>
<text text-anchor="middle" x="465" y="-79.95" font-family="Helvetica,sans-Serif" font-size="14.00">class = Animal</text>
</g>
<!-- 11969&#45;&gt;11970 -->
<g id="edge10" class="edge">
<title>11969&#45;&gt;11970</title>
<path fill="none" stroke="black" d="M516.76,-202.07C511.42,-193.63 505.81,-184.74 500.32,-176.05"/>
<polygon fill="black" stroke="black" points="503.31,-174.22 495.01,-167.64 497.39,-177.96 503.31,-174.22"/>
</g>
<!-- 12385 -->
<g id="node14" class="node">
<title>12385</title>
<path fill="#e99457" stroke="black" d="M698,-166.25C698,-166.25 574,-166.25 574,-166.25 568,-166.25 562,-160.25 562,-154.25 562,-154.25 562,-84 562,-84 562,-78 568,-72 574,-72 574,-72 698,-72 698,-72 704,-72 710,-78 710,-84 710,-84 710,-154.25 710,-154.25 710,-160.25 704,-166.25 698,-166.25"/>
<text text-anchor="middle" x="636" y="-148.95" font-family="Helvetica,sans-Serif" font-size="14.00">9_A &lt;= 0.5</text>
<text text-anchor="middle" x="636" y="-131.7" font-family="Helvetica,sans-Serif" font-size="14.00">entropy = 0.566</text>
<text text-anchor="middle" x="636" y="-114.45" font-family="Helvetica,sans-Serif" font-size="14.00">samples = 473</text>
<text text-anchor="middle" x="636" y="-97.2" font-family="Helvetica,sans-Serif" font-size="14.00">value = [652, 100]</text>
<text text-anchor="middle" x="636" y="-79.95" font-family="Helvetica,sans-Serif" font-size="14.00">class = Animal</text>
</g>
<!-- 11969&#45;&gt;12385 -->
<g id="edge13" class="edge">
<title>11969&#45;&gt;12385</title>
<path fill="none" stroke="black" d="M578.49,-202.07C584.48,-193.54 590.79,-184.54 596.95,-175.77"/>
<polygon fill="black" stroke="black" points="599.81,-177.79 602.69,-167.6 594.08,-173.77 599.81,-177.79"/>
</g>
<!-- 11971 -->
<g id="node12" class="node">
<title>11971</title>
<path fill="#c0c0c0" stroke="black" d="M421,-36C421,-36 391,-36 391,-36 385,-36 379,-30 379,-24 379,-24 379,-12 379,-12 379,-6 385,0 391,0 391,0 421,0 421,0 427,0 433,-6 433,-12 433,-12 433,-24 433,-24 433,-30 427,-36 421,-36"/>
<text text-anchor="middle" x="406" y="-13.32" font-family="Helvetica,sans-Serif" font-size="14.00">(...)</text>
</g>
<!-- 11970&#45;&gt;11971 -->
<g id="edge11" class="edge">
<title>11970&#45;&gt;11971</title>
<path fill="none" stroke="black" d="M437.4,-71.75C432.15,-62.93 426.81,-53.96 422.06,-45.99"/>
<polygon fill="black" stroke="black" points="425.12,-44.28 417,-37.47 419.1,-47.86 425.12,-44.28"/>
</g>
<!-- 12258 -->
<g id="node13" class="node">
<title>12258</title>
<path fill="#c0c0c0" stroke="black" d="M493,-36C493,-36 463,-36 463,-36 457,-36 451,-30 451,-24 451,-24 451,-12 451,-12 451,-6 457,0 463,0 463,0 493,0 493,0 499,0 505,-6 505,-12 505,-12 505,-24 505,-24 505,-30 499,-36 493,-36"/>
<text text-anchor="middle" x="478" y="-13.32" font-family="Helvetica,sans-Serif" font-size="14.00">(...)</text>
</g>
<!-- 11970&#45;&gt;12258 -->
<g id="edge12" class="edge">
<title>11970&#45;&gt;12258</title>
<path fill="none" stroke="black" d="M471.08,-71.75C472.17,-63.42 473.28,-54.97 474.28,-47.34"/>
<polygon fill="black" stroke="black" points="477.72,-48.04 475.55,-37.67 470.78,-47.13 477.72,-48.04"/>
</g>
<!-- 12386 -->
<g id="node15" class="node">
<title>12386</title>
<path fill="#c0c0c0" stroke="black" d="M594,-36C594,-36 564,-36 564,-36 558,-36 552,-30 552,-24 552,-24 552,-12 552,-12 552,-6 558,0 564,0 564,0 594,0 594,0 600,0 606,-6 606,-12 606,-12 606,-24 606,-24 606,-30 600,-36 594,-36"/>
<text text-anchor="middle" x="579" y="-13.32" font-family="Helvetica,sans-Serif" font-size="14.00">(...)</text>
</g>
<!-- 12385&#45;&gt;12386 -->
<g id="edge14" class="edge">
<title>12385&#45;&gt;12386</title>
<path fill="none" stroke="black" d="M609.34,-71.75C604.26,-62.93 599.1,-53.96 594.52,-45.99"/>
<polygon fill="black" stroke="black" points="597.65,-44.41 589.63,-37.48 591.58,-47.9 597.65,-44.41"/>
</g>
<!-- 12511 -->
<g id="node16" class="node">
<title>12511</title>
<path fill="#c0c0c0" stroke="black" d="M666,-36C666,-36 636,-36 636,-36 630,-36 624,-30 624,-24 624,-24 624,-12 624,-12 624,-6 630,0 636,0 636,0 666,0 666,0 672,0 678,-6 678,-12 678,-12 678,-24 678,-24 678,-30 672,-36 666,-36"/>
<text text-anchor="middle" x="651" y="-13.32" font-family="Helvetica,sans-Serif" font-size="14.00">(...)</text>
</g>
<!-- 12385&#45;&gt;12511 -->
<g id="edge15" class="edge">
<title>12385&#45;&gt;12511</title>
<path fill="none" stroke="black" d="M643.02,-71.75C644.28,-63.42 645.56,-54.97 646.71,-47.34"/>
<polygon fill="black" stroke="black" points="650.14,-48.08 648.17,-37.67 643.22,-47.03 650.14,-48.08"/>
</g>
<!-- 12549 -->
<g id="node18" class="node">
<title>12549</title>
<path fill="#fdf6f0" stroke="black" d="M974,-296.5C974,-296.5 832,-296.5 832,-296.5 826,-296.5 820,-290.5 820,-284.5 820,-284.5 820,-214.25 820,-214.25 820,-208.25 826,-202.25 832,-202.25 832,-202.25 974,-202.25 974,-202.25 980,-202.25 986,-208.25 986,-214.25 986,-214.25 986,-284.5 986,-284.5 986,-290.5 980,-296.5 974,-296.5"/>
<text text-anchor="middle" x="903" y="-279.2" font-family="Helvetica,sans-Serif" font-size="14.00">19_C &lt;= 0.5</text>
<text text-anchor="middle" x="903" y="-261.95" font-family="Helvetica,sans-Serif" font-size="14.00">entropy = 0.999</text>
<text text-anchor="middle" x="903" y="-244.7" font-family="Helvetica,sans-Serif" font-size="14.00">samples = 7579</text>
<text text-anchor="middle" x="903" y="-227.45" font-family="Helvetica,sans-Serif" font-size="14.00">value = [6151, 5690]</text>
<text text-anchor="middle" x="903" y="-210.2" font-family="Helvetica,sans-Serif" font-size="14.00">class = Animal</text>
</g>
<!-- 12548&#45;&gt;12549 -->
<g id="edge17" class="edge">
<title>12548&#45;&gt;12549</title>
<path fill="none" stroke="black" d="M903,-332.32C903,-324.42 903,-316.13 903,-307.98"/>
<polygon fill="black" stroke="black" points="906.5,-308.12 903,-298.12 899.5,-308.12 906.5,-308.12"/>
</g>
<!-- 16256 -->
<g id="node25" class="node">
<title>16256</title>
<path fill="#f2bf9a" stroke="black" d="M1241.5,-296.5C1241.5,-296.5 1108.5,-296.5 1108.5,-296.5 1102.5,-296.5 1096.5,-290.5 1096.5,-284.5 1096.5,-284.5 1096.5,-214.25 1096.5,-214.25 1096.5,-208.25 1102.5,-202.25 1108.5,-202.25 1108.5,-202.25 1241.5,-202.25 1241.5,-202.25 1247.5,-202.25 1253.5,-208.25 1253.5,-214.25 1253.5,-214.25 1253.5,-284.5 1253.5,-284.5 1253.5,-290.5 1247.5,-296.5 1241.5,-296.5"/>
<text text-anchor="middle" x="1175" y="-279.2" font-family="Helvetica,sans-Serif" font-size="14.00">2_A &lt;= 0.5</text>
<text text-anchor="middle" x="1175" y="-261.95" font-family="Helvetica,sans-Serif" font-size="14.00">entropy = 0.913</text>
<text text-anchor="middle" x="1175" y="-244.7" font-family="Helvetica,sans-Serif" font-size="14.00">samples = 1797</text>
<text text-anchor="middle" x="1175" y="-227.45" font-family="Helvetica,sans-Serif" font-size="14.00">value = [1870, 915]</text>
<text text-anchor="middle" x="1175" y="-210.2" font-family="Helvetica,sans-Serif" font-size="14.00">class = Animal</text>
</g>
<!-- 12548&#45;&gt;16256 -->
<g id="edge24" class="edge">
<title>12548&#45;&gt;16256</title>
<path fill="none" stroke="black" d="M986.46,-339.27C1018.02,-324.39 1054.05,-307.4 1086.1,-292.29"/>
<polygon fill="black" stroke="black" points="1087.43,-295.54 1094.98,-288.1 1084.44,-289.2 1087.43,-295.54"/>
</g>
<!-- 12550 -->
<g id="node19" class="node">
<title>12550</title>
<path fill="#f8dcc8" stroke="black" d="M882,-166.25C882,-166.25 740,-166.25 740,-166.25 734,-166.25 728,-160.25 728,-154.25 728,-154.25 728,-84 728,-84 728,-78 734,-72 740,-72 740,-72 882,-72 882,-72 888,-72 894,-78 894,-84 894,-84 894,-154.25 894,-154.25 894,-160.25 888,-166.25 882,-166.25"/>
<text text-anchor="middle" x="811" y="-148.95" font-family="Helvetica,sans-Serif" font-size="14.00">23_A &lt;= 0.5</text>
<text text-anchor="middle" x="811" y="-131.7" font-family="Helvetica,sans-Serif" font-size="14.00">entropy = 0.981</text>
<text text-anchor="middle" x="811" y="-114.45" font-family="Helvetica,sans-Serif" font-size="14.00">samples = 5204</text>
<text text-anchor="middle" x="811" y="-97.2" font-family="Helvetica,sans-Serif" font-size="14.00">value = [4736, 3415]</text>
<text text-anchor="middle" x="811" y="-79.95" font-family="Helvetica,sans-Serif" font-size="14.00">class = Animal</text>
</g>
<!-- 12549&#45;&gt;12550 -->
<g id="edge18" class="edge">
<title>12549&#45;&gt;12550</title>
<path fill="none" stroke="black" d="M869.79,-202.07C863.6,-193.45 857.07,-184.35 850.71,-175.49"/>
<polygon fill="black" stroke="black" points="853.72,-173.67 845.05,-167.59 848.03,-177.75 853.72,-173.67"/>
</g>
<!-- 15345 -->
<g id="node22" class="node">
<title>15345</title>
<path fill="#b4daf5" stroke="black" d="M1066,-166.25C1066,-166.25 924,-166.25 924,-166.25 918,-166.25 912,-160.25 912,-154.25 912,-154.25 912,-84 912,-84 912,-78 918,-72 924,-72 924,-72 1066,-72 1066,-72 1072,-72 1078,-78 1078,-84 1078,-84 1078,-154.25 1078,-154.25 1078,-160.25 1072,-166.25 1066,-166.25"/>
<text text-anchor="middle" x="995" y="-148.95" font-family="Helvetica,sans-Serif" font-size="14.00">22_U &lt;= 0.5</text>
<text text-anchor="middle" x="995" y="-131.7" font-family="Helvetica,sans-Serif" font-size="14.00">entropy = 0.96</text>
<text text-anchor="middle" x="995" y="-114.45" font-family="Helvetica,sans-Serif" font-size="14.00">samples = 2375</text>
<text text-anchor="middle" x="995" y="-97.2" font-family="Helvetica,sans-Serif" font-size="14.00">value = [1415, 2275]</text>
<text text-anchor="middle" x="995" y="-79.95" font-family="Helvetica,sans-Serif" font-size="14.00">class = Plant</text>
</g>
<!-- 12549&#45;&gt;15345 -->
<g id="edge21" class="edge">
<title>12549&#45;&gt;15345</title>
<path fill="none" stroke="black" d="M936.21,-202.07C942.4,-193.45 948.93,-184.35 955.29,-175.49"/>
<polygon fill="black" stroke="black" points="957.97,-177.75 960.95,-167.59 952.28,-173.67 957.97,-177.75"/>
</g>
<!-- 12551 -->
<g id="node20" class="node">
<title>12551</title>
<path fill="#c0c0c0" stroke="black" d="M774,-36C774,-36 744,-36 744,-36 738,-36 732,-30 732,-24 732,-24 732,-12 732,-12 732,-6 738,0 744,0 744,0 774,0 774,0 780,0 786,-6 786,-12 786,-12 786,-24 786,-24 786,-30 780,-36 774,-36"/>
<text text-anchor="middle" x="759" y="-13.32" font-family="Helvetica,sans-Serif" font-size="14.00">(...)</text>
</g>
<!-- 12550&#45;&gt;12551 -->
<g id="edge19" class="edge">
<title>12550&#45;&gt;12551</title>
<path fill="none" stroke="black" d="M786.67,-71.75C782.1,-63.03 777.45,-54.16 773.3,-46.26"/>
<polygon fill="black" stroke="black" points="776.46,-44.74 768.71,-37.51 770.26,-47.99 776.46,-44.74"/>
</g>
<!-- 15248 -->
<g id="node21" class="node">
<title>15248</title>
<path fill="#c0c0c0" stroke="black" d="M846,-36C846,-36 816,-36 816,-36 810,-36 804,-30 804,-24 804,-24 804,-12 804,-12 804,-6 810,0 816,0 816,0 846,0 846,0 852,0 858,-6 858,-12 858,-12 858,-24 858,-24 858,-30 852,-36 846,-36"/>
<text text-anchor="middle" x="831" y="-13.32" font-family="Helvetica,sans-Serif" font-size="14.00">(...)</text>
</g>
<!-- 12550&#45;&gt;15248 -->
<g id="edge20" class="edge">
<title>12550&#45;&gt;15248</title>
<path fill="none" stroke="black" d="M820.36,-71.75C822.04,-63.42 823.74,-54.97 825.28,-47.34"/>
<polygon fill="black" stroke="black" points="828.69,-48.15 827.24,-37.66 821.83,-46.77 828.69,-48.15"/>
</g>
<!-- 15346 -->
<g id="node23" class="node">
<title>15346</title>
<path fill="#c0c0c0" stroke="black" d="M956,-36C956,-36 926,-36 926,-36 920,-36 914,-30 914,-24 914,-24 914,-12 914,-12 914,-6 920,0 926,0 926,0 956,0 956,0 962,0 968,-6 968,-12 968,-12 968,-24 968,-24 968,-30 962,-36 956,-36"/>
<text text-anchor="middle" x="941" y="-13.32" font-family="Helvetica,sans-Serif" font-size="14.00">(...)</text>
</g>
<!-- 15345&#45;&gt;15346 -->
<g id="edge22" class="edge">
<title>15345&#45;&gt;15346</title>
<path fill="none" stroke="black" d="M969.74,-71.75C964.98,-63.03 960.16,-54.16 955.85,-46.26"/>
<polygon fill="black" stroke="black" points="958.94,-44.61 951.08,-37.5 952.79,-47.96 958.94,-44.61"/>
</g>
<!-- 16139 -->
<g id="node24" class="node">
<title>16139</title>
<path fill="#c0c0c0" stroke="black" d="M1028,-36C1028,-36 998,-36 998,-36 992,-36 986,-30 986,-24 986,-24 986,-12 986,-12 986,-6 992,0 998,0 998,0 1028,0 1028,0 1034,0 1040,-6 1040,-12 1040,-12 1040,-24 1040,-24 1040,-30 1034,-36 1028,-36"/>
<text text-anchor="middle" x="1013" y="-13.32" font-family="Helvetica,sans-Serif" font-size="14.00">(...)</text>
</g>
<!-- 15345&#45;&gt;16139 -->
<g id="edge23" class="edge">
<title>15345&#45;&gt;16139</title>
<path fill="none" stroke="black" d="M1003.42,-71.75C1004.93,-63.42 1006.47,-54.97 1007.85,-47.34"/>
<polygon fill="black" stroke="black" points="1011.27,-48.13 1009.61,-37.66 1004.38,-46.88 1011.27,-48.13"/>
</g>
<!-- 16257 -->
<g id="node26" class="node">
<title>16257</title>
<path fill="#f5d0b6" stroke="black" d="M1241.5,-166.25C1241.5,-166.25 1108.5,-166.25 1108.5,-166.25 1102.5,-166.25 1096.5,-160.25 1096.5,-154.25 1096.5,-154.25 1096.5,-84 1096.5,-84 1096.5,-78 1102.5,-72 1108.5,-72 1108.5,-72 1241.5,-72 1241.5,-72 1247.5,-72 1253.5,-78 1253.5,-84 1253.5,-84 1253.5,-154.25 1253.5,-154.25 1253.5,-160.25 1247.5,-166.25 1241.5,-166.25"/>
<text text-anchor="middle" x="1175" y="-148.95" font-family="Helvetica,sans-Serif" font-size="14.00">18_G &lt;= 0.5</text>
<text text-anchor="middle" x="1175" y="-131.7" font-family="Helvetica,sans-Serif" font-size="14.00">entropy = 0.962</text>
<text text-anchor="middle" x="1175" y="-114.45" font-family="Helvetica,sans-Serif" font-size="14.00">samples = 1260</text>
<text text-anchor="middle" x="1175" y="-97.2" font-family="Helvetica,sans-Serif" font-size="14.00">value = [1197, 753]</text>
<text text-anchor="middle" x="1175" y="-79.95" font-family="Helvetica,sans-Serif" font-size="14.00">class = Animal</text>
</g>
<!-- 16256&#45;&gt;16257 -->
<g id="edge25" class="edge">
<title>16256&#45;&gt;16257</title>
<path fill="none" stroke="black" d="M1175,-202.07C1175,-194.17 1175,-185.88 1175,-177.73"/>
<polygon fill="black" stroke="black" points="1178.5,-177.87 1175,-167.87 1171.5,-177.87 1178.5,-177.87"/>
</g>
<!-- 17038 -->
<g id="node29" class="node">
<title>17038</title>
<path fill="#eb9f69" stroke="black" d="M1408,-166.25C1408,-166.25 1284,-166.25 1284,-166.25 1278,-166.25 1272,-160.25 1272,-154.25 1272,-154.25 1272,-84 1272,-84 1272,-78 1278,-72 1284,-72 1284,-72 1408,-72 1408,-72 1414,-72 1420,-78 1420,-84 1420,-84 1420,-154.25 1420,-154.25 1420,-160.25 1414,-166.25 1408,-166.25"/>
<text text-anchor="middle" x="1346" y="-148.95" font-family="Helvetica,sans-Serif" font-size="14.00">1_G &lt;= 0.5</text>
<text text-anchor="middle" x="1346" y="-131.7" font-family="Helvetica,sans-Serif" font-size="14.00">entropy = 0.71</text>
<text text-anchor="middle" x="1346" y="-114.45" font-family="Helvetica,sans-Serif" font-size="14.00">samples = 537</text>
<text text-anchor="middle" x="1346" y="-97.2" font-family="Helvetica,sans-Serif" font-size="14.00">value = [673, 162]</text>
<text text-anchor="middle" x="1346" y="-79.95" font-family="Helvetica,sans-Serif" font-size="14.00">class = Animal</text>
</g>
<!-- 16256&#45;&gt;17038 -->
<g id="edge28" class="edge">
<title>16256&#45;&gt;17038</title>
<path fill="none" stroke="black" d="M1236.73,-202.07C1249.13,-192.78 1262.25,-182.94 1274.93,-173.43"/>
<polygon fill="black" stroke="black" points="1276.96,-176.28 1282.86,-167.48 1272.76,-170.68 1276.96,-176.28"/>
</g>
<!-- 16258 -->
<g id="node27" class="node">
<title>16258</title>
<path fill="#c0c0c0" stroke="black" d="M1149,-36C1149,-36 1119,-36 1119,-36 1113,-36 1107,-30 1107,-24 1107,-24 1107,-12 1107,-12 1107,-6 1113,0 1119,0 1119,0 1149,0 1149,0 1155,0 1161,-6 1161,-12 1161,-12 1161,-24 1161,-24 1161,-30 1155,-36 1149,-36"/>
<text text-anchor="middle" x="1134" y="-13.32" font-family="Helvetica,sans-Serif" font-size="14.00">(...)</text>
</g>
<!-- 16257&#45;&gt;16258 -->
<g id="edge26" class="edge">
<title>16257&#45;&gt;16258</title>
<path fill="none" stroke="black" d="M1155.82,-71.75C1152.29,-63.22 1148.71,-54.57 1145.5,-46.8"/>
<polygon fill="black" stroke="black" points="1148.74,-45.47 1141.68,-37.57 1142.27,-48.15 1148.74,-45.47"/>
</g>
<!-- 16843 -->
<g id="node28" class="node">
<title>16843</title>
<path fill="#c0c0c0" stroke="black" d="M1221,-36C1221,-36 1191,-36 1191,-36 1185,-36 1179,-30 1179,-24 1179,-24 1179,-12 1179,-12 1179,-6 1185,0 1191,0 1191,0 1221,0 1221,0 1227,0 1233,-6 1233,-12 1233,-12 1233,-24 1233,-24 1233,-30 1227,-36 1221,-36"/>
<text text-anchor="middle" x="1206" y="-13.32" font-family="Helvetica,sans-Serif" font-size="14.00">(...)</text>
</g>
<!-- 16257&#45;&gt;16843 -->
<g id="edge27" class="edge">
<title>16257&#45;&gt;16843</title>
<path fill="none" stroke="black" d="M1189.5,-71.75C1192.14,-63.32 1194.81,-54.77 1197.22,-47.07"/>
<polygon fill="black" stroke="black" points="1200.53,-48.21 1200.18,-37.62 1193.85,-46.12 1200.53,-48.21"/>
</g>
<!-- 17039 -->
<g id="node30" class="node">
<title>17039</title>
<path fill="#c0c0c0" stroke="black" d="M1325,-36C1325,-36 1295,-36 1295,-36 1289,-36 1283,-30 1283,-24 1283,-24 1283,-12 1283,-12 1283,-6 1289,0 1295,0 1295,0 1325,0 1325,0 1331,0 1337,-6 1337,-12 1337,-12 1337,-24 1337,-24 1337,-30 1331,-36 1325,-36"/>
<text text-anchor="middle" x="1310" y="-13.32" font-family="Helvetica,sans-Serif" font-size="14.00">(...)</text>
</g>
<!-- 17038&#45;&gt;17039 -->
<g id="edge29" class="edge">
<title>17038&#45;&gt;17039</title>
<path fill="none" stroke="black" d="M1329.16,-71.75C1326.06,-63.22 1322.92,-54.57 1320.1,-46.8"/>
<polygon fill="black" stroke="black" points="1323.46,-45.8 1316.75,-37.6 1316.88,-48.19 1323.46,-45.8"/>
</g>
<!-- 17228 -->
<g id="node31" class="node">
<title>17228</title>
<path fill="#c0c0c0" stroke="black" d="M1397,-36C1397,-36 1367,-36 1367,-36 1361,-36 1355,-30 1355,-24 1355,-24 1355,-12 1355,-12 1355,-6 1361,0 1367,0 1367,0 1397,0 1397,0 1403,0 1409,-6 1409,-12 1409,-12 1409,-24 1409,-24 1409,-30 1403,-36 1397,-36"/>
<text text-anchor="middle" x="1382" y="-13.32" font-family="Helvetica,sans-Serif" font-size="14.00">(...)</text>
</g>
<!-- 17038&#45;&gt;17228 -->
<g id="edge30" class="edge">
<title>17038&#45;&gt;17228</title>
<path fill="none" stroke="black" d="M1362.84,-71.75C1365.94,-63.22 1369.08,-54.57 1371.9,-46.8"/>
<polygon fill="black" stroke="black" points="1375.12,-48.19 1375.25,-37.6 1368.54,-45.8 1375.12,-48.19"/>
</g>
</g>
</svg>
