<?xml version="1.0" encoding="UTF-8" standalone="no"?>
<!DOCTYPE svg PUBLIC "-//W3C//DTD SVG 1.1//EN"
 "http://www.w3.org/Graphics/SVG/1.1/DTD/svg11.dtd">
<!-- Generated by graphviz version 12.0.0 (20240803.0821)
 -->
<!-- Title: Tree Pages: 1 -->
<svg width="1428pt" height="565pt"
 viewBox="0.00 0.00 1428.38 565.00" xmlns="http://www.w3.org/2000/svg" xmlns:xlink="http://www.w3.org/1999/xlink">
<g id="graph0" class="graph" transform="scale(1 1) rotate(0) translate(4 561)">
<title>Tree</title>
<polygon fill="white" stroke="none" points="-4,4 -4,-561 1424.38,-561 1424.38,4 -4,4"/>
<!-- 0 -->
<g id="node1" class="node">
<title>0</title>
<path fill="#feffff" stroke="black" d="M812,-557C812,-557 652,-557 652,-557 646,-557 640,-551 640,-545 640,-545 640,-474.75 640,-474.75 640,-468.75 646,-462.75 652,-462.75 652,-462.75 812,-462.75 812,-462.75 818,-462.75 824,-468.75 824,-474.75 824,-474.75 824,-545 824,-545 824,-551 818,-557 812,-557"/>
<text text-anchor="middle" x="732" y="-539.7" font-family="Helvetica,sans-Serif" font-size="14.00">2_A &lt;= 0.5</text>
<text text-anchor="middle" x="732" y="-522.45" font-family="Helvetica,sans-Serif" font-size="14.00">entropy = 1.0</text>
<text text-anchor="middle" x="732" y="-505.2" font-family="Helvetica,sans-Serif" font-size="14.00">samples = 38186</text>
<text text-anchor="middle" x="732" y="-487.95" font-family="Helvetica,sans-Serif" font-size="14.00">value = [30123, 30222]</text>
<text text-anchor="middle" x="732" y="-470.7" font-family="Helvetica,sans-Serif" font-size="14.00">class = Plant</text>
</g>
<!-- 1 -->
<g id="node2" class="node">
<title>1</title>
<path fill="#e0effb" stroke="black" d="M635,-426.75C635,-426.75 475,-426.75 475,-426.75 469,-426.75 463,-420.75 463,-414.75 463,-414.75 463,-344.5 463,-344.5 463,-338.5 469,-332.5 475,-332.5 475,-332.5 635,-332.5 635,-332.5 641,-332.5 647,-338.5 647,-344.5 647,-344.5 647,-414.75 647,-414.75 647,-420.75 641,-426.75 635,-426.75"/>
<text text-anchor="middle" x="555" y="-409.45" font-family="Helvetica,sans-Serif" font-size="14.00">20_G &lt;= 0.5</text>
<text text-anchor="middle" x="555" y="-392.2" font-family="Helvetica,sans-Serif" font-size="14.00">entropy = 0.995</text>
<text text-anchor="middle" x="555" y="-374.95" font-family="Helvetica,sans-Serif" font-size="14.00">samples = 29015</text>
<text text-anchor="middle" x="555" y="-357.7" font-family="Helvetica,sans-Serif" font-size="14.00">value = [20899, 24835]</text>
<text text-anchor="middle" x="555" y="-340.45" font-family="Helvetica,sans-Serif" font-size="14.00">class = Plant</text>
</g>
<!-- 0&#45;&gt;1 -->
<g id="edge1" class="edge">
<title>0&#45;&gt;1</title>
<path fill="none" stroke="black" d="M667.85,-462.39C654.99,-453.07 641.38,-443.22 628.24,-433.69"/>
<polygon fill="black" stroke="black" points="630.61,-431.09 620.46,-428.05 626.5,-436.75 630.61,-431.09"/>
<text text-anchor="middle" x="623.17" y="-447.18" font-family="Helvetica,sans-Serif" font-size="14.00">True</text>
</g>
<!-- 12936 -->
<g id="node17" class="node">
<title>12936</title>
<path fill="#f4cbad" stroke="black" d="M992,-426.75C992,-426.75 850,-426.75 850,-426.75 844,-426.75 838,-420.75 838,-414.75 838,-414.75 838,-344.5 838,-344.5 838,-338.5 844,-332.5 850,-332.5 850,-332.5 992,-332.5 992,-332.5 998,-332.5 1004,-338.5 1004,-344.5 1004,-344.5 1004,-414.75 1004,-414.75 1004,-420.75 998,-426.75 992,-426.75"/>
<text text-anchor="middle" x="921" y="-409.45" font-family="Helvetica,sans-Serif" font-size="14.00">22_U &lt;= 0.5</text>
<text text-anchor="middle" x="921" y="-392.2" font-family="Helvetica,sans-Serif" font-size="14.00">entropy = 0.95</text>
<text text-anchor="middle" x="921" y="-374.95" font-family="Helvetica,sans-Serif" font-size="14.00">samples = 9171</text>
<text text-anchor="middle" x="921" y="-357.7" font-family="Helvetica,sans-Serif" font-size="14.00">value = [9224, 5387]</text>
<text text-anchor="middle" x="921" y="-340.45" font-family="Helvetica,sans-Serif" font-size="14.00">class = Animal</text>
</g>
<!-- 0&#45;&gt;12936 -->
<g id="edge16" class="edge">
<title>0&#45;&gt;12936</title>
<path fill="none" stroke="black" d="M800.5,-462.39C814.37,-452.98 829.04,-443.03 843.2,-433.42"/>
<polygon fill="black" stroke="black" points="844.85,-436.53 851.16,-428.01 840.92,-430.73 844.85,-436.53"/>
<text text-anchor="middle" x="847.71" y="-447.04" font-family="Helvetica,sans-Serif" font-size="14.00">False</text>
</g>
<!-- 2 -->
<g id="node3" class="node">
<title>2</title>
<path fill="#c8e4f8" stroke="black" d="M361,-296.5C361,-296.5 201,-296.5 201,-296.5 195,-296.5 189,-290.5 189,-284.5 189,-284.5 189,-214.25 189,-214.25 189,-208.25 195,-202.25 201,-202.25 201,-202.25 361,-202.25 361,-202.25 367,-202.25 373,-208.25 373,-214.25 373,-214.25 373,-284.5 373,-284.5 373,-290.5 367,-296.5 361,-296.5"/>
<text text-anchor="middle" x="281" y="-279.2" font-family="Helvetica,sans-Serif" font-size="14.00">23_U &lt;= 0.5</text>
<text text-anchor="middle" x="281" y="-261.95" font-family="Helvetica,sans-Serif" font-size="14.00">entropy = 0.981</text>
<text text-anchor="middle" x="281" y="-244.7" font-family="Helvetica,sans-Serif" font-size="14.00">samples = 22943</text>
<text text-anchor="middle" x="281" y="-227.45" font-family="Helvetica,sans-Serif" font-size="14.00">value = [15144, 21038]</text>
<text text-anchor="middle" x="281" y="-210.2" font-family="Helvetica,sans-Serif" font-size="14.00">class = Plant</text>
</g>
<!-- 1&#45;&gt;2 -->
<g id="edge2" class="edge">
<title>1&#45;&gt;2</title>
<path fill="none" stroke="black" d="M462.62,-335.38C437.24,-323.51 409.58,-310.56 383.66,-298.43"/>
<polygon fill="black" stroke="black" points="385.36,-295.36 374.82,-294.29 382.39,-301.7 385.36,-295.36"/>
</g>
<!-- 9781 -->
<g id="node10" class="node">
<title>9781</title>
<path fill="#f6d4bc" stroke="black" d="M626,-296.5C626,-296.5 484,-296.5 484,-296.5 478,-296.5 472,-290.5 472,-284.5 472,-284.5 472,-214.25 472,-214.25 472,-208.25 478,-202.25 484,-202.25 484,-202.25 626,-202.25 626,-202.25 632,-202.25 638,-208.25 638,-214.25 638,-214.25 638,-284.5 638,-284.5 638,-290.5 632,-296.5 626,-296.5"/>
<text text-anchor="middle" x="555" y="-279.2" font-family="Helvetica,sans-Serif" font-size="14.00">5_G &lt;= 0.5</text>
<text text-anchor="middle" x="555" y="-261.95" font-family="Helvetica,sans-Serif" font-size="14.00">entropy = 0.969</text>
<text text-anchor="middle" x="555" y="-244.7" font-family="Helvetica,sans-Serif" font-size="14.00">samples = 6072</text>
<text text-anchor="middle" x="555" y="-227.45" font-family="Helvetica,sans-Serif" font-size="14.00">value = [5755, 3797]</text>
<text text-anchor="middle" x="555" y="-210.2" font-family="Helvetica,sans-Serif" font-size="14.00">class = Animal</text>
</g>
<!-- 1&#45;&gt;9781 -->
<g id="edge9" class="edge">
<title>1&#45;&gt;9781</title>
<path fill="none" stroke="black" d="M555,-332.32C555,-324.42 555,-316.13 555,-307.98"/>
<polygon fill="black" stroke="black" points="558.5,-308.12 555,-298.12 551.5,-308.12 558.5,-308.12"/>
</g>
<!-- 3 -->
<g id="node4" class="node">
<title>3</title>
<path fill="#bcdef6" stroke="black" d="M172,-166.25C172,-166.25 12,-166.25 12,-166.25 6,-166.25 0,-160.25 0,-154.25 0,-154.25 0,-84 0,-84 0,-78 6,-72 12,-72 12,-72 172,-72 172,-72 178,-72 184,-78 184,-84 184,-84 184,-154.25 184,-154.25 184,-160.25 178,-166.25 172,-166.25"/>
<text text-anchor="middle" x="92" y="-148.95" font-family="Helvetica,sans-Serif" font-size="14.00">22_U &lt;= 0.5</text>
<text text-anchor="middle" x="92" y="-131.7" font-family="Helvetica,sans-Serif" font-size="14.00">entropy = 0.97</text>
<text text-anchor="middle" x="92" y="-114.45" font-family="Helvetica,sans-Serif" font-size="14.00">samples = 21892</text>
<text text-anchor="middle" x="92" y="-97.2" font-family="Helvetica,sans-Serif" font-size="14.00">value = [13764, 20755]</text>
<text text-anchor="middle" x="92" y="-79.95" font-family="Helvetica,sans-Serif" font-size="14.00">class = Plant</text>
</g>
<!-- 2&#45;&gt;3 -->
<g id="edge3" class="edge">
<title>2&#45;&gt;3</title>
<path fill="none" stroke="black" d="M212.5,-201.89C198.63,-192.48 183.96,-182.53 169.8,-172.92"/>
<polygon fill="black" stroke="black" points="172.08,-170.23 161.84,-167.51 168.15,-176.03 172.08,-170.23"/>
</g>
<!-- 9342 -->
<g id="node7" class="node">
<title>9342</title>
<path fill="#ea9b62" stroke="black" d="M347.5,-166.25C347.5,-166.25 214.5,-166.25 214.5,-166.25 208.5,-166.25 202.5,-160.25 202.5,-154.25 202.5,-154.25 202.5,-84 202.5,-84 202.5,-78 208.5,-72 214.5,-72 214.5,-72 347.5,-72 347.5,-72 353.5,-72 359.5,-78 359.5,-84 359.5,-84 359.5,-154.25 359.5,-154.25 359.5,-160.25 353.5,-166.25 347.5,-166.25"/>
<text text-anchor="middle" x="281" y="-148.95" font-family="Helvetica,sans-Serif" font-size="14.00">13_G &lt;= 0.5</text>
<text text-anchor="middle" x="281" y="-131.7" font-family="Helvetica,sans-Serif" font-size="14.00">entropy = 0.658</text>
<text text-anchor="middle" x="281" y="-114.45" font-family="Helvetica,sans-Serif" font-size="14.00">samples = 1051</text>
<text text-anchor="middle" x="281" y="-97.2" font-family="Helvetica,sans-Serif" font-size="14.00">value = [1380, 283]</text>
<text text-anchor="middle" x="281" y="-79.95" font-family="Helvetica,sans-Serif" font-size="14.00">class = Animal</text>
</g>
<!-- 2&#45;&gt;9342 -->
<g id="edge6" class="edge">
<title>2&#45;&gt;9342</title>
<path fill="none" stroke="black" d="M281,-202.07C281,-194.17 281,-185.88 281,-177.73"/>
<polygon fill="black" stroke="black" points="284.5,-177.87 281,-167.87 277.5,-177.87 284.5,-177.87"/>
</g>
<!-- 4 -->
<g id="node5" class="node">
<title>4</title>
<path fill="#c0c0c0" stroke="black" d="M71,-36C71,-36 41,-36 41,-36 35,-36 29,-30 29,-24 29,-24 29,-12 29,-12 29,-6 35,0 41,0 41,0 71,0 71,0 77,0 83,-6 83,-12 83,-12 83,-24 83,-24 83,-30 77,-36 71,-36"/>
<text text-anchor="middle" x="56" y="-13.32" font-family="Helvetica,sans-Serif" font-size="14.00">(...)</text>
</g>
<!-- 3&#45;&gt;4 -->
<g id="edge4" class="edge">
<title>3&#45;&gt;4</title>
<path fill="none" stroke="black" d="M75.16,-71.75C72.06,-63.22 68.92,-54.57 66.1,-46.8"/>
<polygon fill="black" stroke="black" points="69.46,-45.8 62.75,-37.6 62.88,-48.19 69.46,-45.8"/>
</g>
<!-- 8329 -->
<g id="node6" class="node">
<title>8329</title>
<path fill="#c0c0c0" stroke="black" d="M143,-36C143,-36 113,-36 113,-36 107,-36 101,-30 101,-24 101,-24 101,-12 101,-12 101,-6 107,0 113,0 113,0 143,0 143,0 149,0 155,-6 155,-12 155,-12 155,-24 155,-24 155,-30 149,-36 143,-36"/>
<text text-anchor="middle" x="128" y="-13.32" font-family="Helvetica,sans-Serif" font-size="14.00">(...)</text>
</g>
<!-- 3&#45;&gt;8329 -->
<g id="edge5" class="edge">
<title>3&#45;&gt;8329</title>
<path fill="none" stroke="black" d="M108.84,-71.75C111.94,-63.22 115.08,-54.57 117.9,-46.8"/>
<polygon fill="black" stroke="black" points="121.12,-48.19 121.25,-37.6 114.54,-45.8 121.12,-48.19"/>
</g>
<!-- 9343 -->
<g id="node8" class="node">
<title>9343</title>
<path fill="#c0c0c0" stroke="black" d="M262,-36C262,-36 232,-36 232,-36 226,-36 220,-30 220,-24 220,-24 220,-12 220,-12 220,-6 226,0 232,0 232,0 262,0 262,0 268,0 274,-6 274,-12 274,-12 274,-24 274,-24 274,-30 268,-36 262,-36"/>
<text text-anchor="middle" x="247" y="-13.32" font-family="Helvetica,sans-Serif" font-size="14.00">(...)</text>
</g>
<!-- 9342&#45;&gt;9343 -->
<g id="edge7" class="edge">
<title>9342&#45;&gt;9343</title>
<path fill="none" stroke="black" d="M265.1,-71.75C262.17,-63.22 259.2,-54.57 256.53,-46.8"/>
<polygon fill="black" stroke="black" points="259.94,-45.93 253.38,-37.6 253.32,-48.2 259.94,-45.93"/>
</g>
<!-- 9672 -->
<g id="node9" class="node">
<title>9672</title>
<path fill="#c0c0c0" stroke="black" d="M334,-36C334,-36 304,-36 304,-36 298,-36 292,-30 292,-24 292,-24 292,-12 292,-12 292,-6 298,0 304,0 304,0 334,0 334,0 340,0 346,-6 346,-12 346,-12 346,-24 346,-24 346,-30 340,-36 334,-36"/>
<text text-anchor="middle" x="319" y="-13.32" font-family="Helvetica,sans-Serif" font-size="14.00">(...)</text>
</g>
<!-- 9342&#45;&gt;9672 -->
<g id="edge8" class="edge">
<title>9342&#45;&gt;9672</title>
<path fill="none" stroke="black" d="M298.78,-71.75C302.05,-63.22 305.37,-54.57 308.34,-46.8"/>
<polygon fill="black" stroke="black" points="311.56,-48.18 311.88,-37.59 305.03,-45.67 311.56,-48.18"/>
</g>
<!-- 9782 -->
<g id="node11" class="node">
<title>9782</title>
<path fill="#f8dbc7" stroke="black" d="M532,-166.25C532,-166.25 390,-166.25 390,-166.25 384,-166.25 378,-160.25 378,-154.25 378,-154.25 378,-84 378,-84 378,-78 384,-72 390,-72 390,-72 532,-72 532,-72 538,-72 544,-78 544,-84 544,-84 544,-154.25 544,-154.25 544,-160.25 538,-166.25 532,-166.25"/>
<text text-anchor="middle" x="461" y="-148.95" font-family="Helvetica,sans-Serif" font-size="14.00">22_G &lt;= 0.5</text>
<text text-anchor="middle" x="461" y="-131.7" font-family="Helvetica,sans-Serif" font-size="14.00">entropy = 0.98</text>
<text text-anchor="middle" x="461" y="-114.45" font-family="Helvetica,sans-Serif" font-size="14.00">samples = 4199</text>
<text text-anchor="middle" x="461" y="-97.2" font-family="Helvetica,sans-Serif" font-size="14.00">value = [3835, 2742]</text>
<text text-anchor="middle" x="461" y="-79.95" font-family="Helvetica,sans-Serif" font-size="14.00">class = Animal</text>
</g>
<!-- 9781&#45;&gt;9782 -->
<g id="edge10" class="edge">
<title>9781&#45;&gt;9782</title>
<path fill="none" stroke="black" d="M521.06,-202.07C514.74,-193.45 508.08,-184.35 501.58,-175.49"/>
<polygon fill="black" stroke="black" points="504.52,-173.58 495.78,-167.58 498.87,-177.71 504.52,-173.58"/>
</g>
<!-- 11965 -->
<g id="node14" class="node">
<title>11965</title>
<path fill="#f3c6a6" stroke="black" d="M716,-166.25C716,-166.25 574,-166.25 574,-166.25 568,-166.25 562,-160.25 562,-154.25 562,-154.25 562,-84 562,-84 562,-78 568,-72 574,-72 574,-72 716,-72 716,-72 722,-72 728,-78 728,-84 728,-84 728,-154.25 728,-154.25 728,-160.25 722,-166.25 716,-166.25"/>
<text text-anchor="middle" x="645" y="-148.95" font-family="Helvetica,sans-Serif" font-size="14.00">17_U &lt;= 0.5</text>
<text text-anchor="middle" x="645" y="-131.7" font-family="Helvetica,sans-Serif" font-size="14.00">entropy = 0.938</text>
<text text-anchor="middle" x="645" y="-114.45" font-family="Helvetica,sans-Serif" font-size="14.00">samples = 1873</text>
<text text-anchor="middle" x="645" y="-97.2" font-family="Helvetica,sans-Serif" font-size="14.00">value = [1920, 1055]</text>
<text text-anchor="middle" x="645" y="-79.95" font-family="Helvetica,sans-Serif" font-size="14.00">class = Animal</text>
</g>
<!-- 9781&#45;&gt;11965 -->
<g id="edge13" class="edge">
<title>9781&#45;&gt;11965</title>
<path fill="none" stroke="black" d="M587.49,-202.07C593.48,-193.54 599.79,-184.54 605.95,-175.77"/>
<polygon fill="black" stroke="black" points="608.81,-177.79 611.69,-167.6 603.08,-173.77 608.81,-177.79"/>
</g>
<!-- 9783 -->
<g id="node12" class="node">
<title>9783</title>
<path fill="#c0c0c0" stroke="black" d="M424,-36C424,-36 394,-36 394,-36 388,-36 382,-30 382,-24 382,-24 382,-12 382,-12 382,-6 388,0 394,0 394,0 424,0 424,0 430,0 436,-6 436,-12 436,-12 436,-24 436,-24 436,-30 430,-36 424,-36"/>
<text text-anchor="middle" x="409" y="-13.32" font-family="Helvetica,sans-Serif" font-size="14.00">(...)</text>
</g>
<!-- 9782&#45;&gt;9783 -->
<g id="edge11" class="edge">
<title>9782&#45;&gt;9783</title>
<path fill="none" stroke="black" d="M436.67,-71.75C432.1,-63.03 427.45,-54.16 423.3,-46.26"/>
<polygon fill="black" stroke="black" points="426.46,-44.74 418.71,-37.51 420.26,-47.99 426.46,-44.74"/>
</g>
<!-- 11734 -->
<g id="node13" class="node">
<title>11734</title>
<path fill="#c0c0c0" stroke="black" d="M496,-36C496,-36 466,-36 466,-36 460,-36 454,-30 454,-24 454,-24 454,-12 454,-12 454,-6 460,0 466,0 466,0 496,0 496,0 502,0 508,-6 508,-12 508,-12 508,-24 508,-24 508,-30 502,-36 496,-36"/>
<text text-anchor="middle" x="481" y="-13.32" font-family="Helvetica,sans-Serif" font-size="14.00">(...)</text>
</g>
<!-- 9782&#45;&gt;11734 -->
<g id="edge12" class="edge">
<title>9782&#45;&gt;11734</title>
<path fill="none" stroke="black" d="M470.36,-71.75C472.04,-63.42 473.74,-54.97 475.28,-47.34"/>
<polygon fill="black" stroke="black" points="478.69,-48.15 477.24,-37.66 471.83,-46.77 478.69,-48.15"/>
</g>
<!-- 11966 -->
<g id="node15" class="node">
<title>11966</title>
<path fill="#c0c0c0" stroke="black" d="M608,-36C608,-36 578,-36 578,-36 572,-36 566,-30 566,-24 566,-24 566,-12 566,-12 566,-6 572,0 578,0 578,0 608,0 608,0 614,0 620,-6 620,-12 620,-12 620,-24 620,-24 620,-30 614,-36 608,-36"/>
<text text-anchor="middle" x="593" y="-13.32" font-family="Helvetica,sans-Serif" font-size="14.00">(...)</text>
</g>
<!-- 11965&#45;&gt;11966 -->
<g id="edge14" class="edge">
<title>11965&#45;&gt;11966</title>
<path fill="none" stroke="black" d="M620.67,-71.75C616.1,-63.03 611.45,-54.16 607.3,-46.26"/>
<polygon fill="black" stroke="black" points="610.46,-44.74 602.71,-37.51 604.26,-47.99 610.46,-44.74"/>
</g>
<!-- 12689 -->
<g id="node16" class="node">
<title>12689</title>
<path fill="#c0c0c0" stroke="black" d="M680,-36C680,-36 650,-36 650,-36 644,-36 638,-30 638,-24 638,-24 638,-12 638,-12 638,-6 644,0 650,0 650,0 680,0 680,0 686,0 692,-6 692,-12 692,-12 692,-24 692,-24 692,-30 686,-36 680,-36"/>
<text text-anchor="middle" x="665" y="-13.32" font-family="Helvetica,sans-Serif" font-size="14.00">(...)</text>
</g>
<!-- 11965&#45;&gt;12689 -->
<g id="edge15" class="edge">
<title>11965&#45;&gt;12689</title>
<path fill="none" stroke="black" d="M654.36,-71.75C656.04,-63.42 657.74,-54.97 659.28,-47.34"/>
<polygon fill="black" stroke="black" points="662.69,-48.15 661.24,-37.66 655.83,-46.77 662.69,-48.15"/>
</g>
<!-- 12937 -->
<g id="node18" class="node">
<title>12937</title>
<path fill="#f7dbc6" stroke="black" d="M992,-296.5C992,-296.5 850,-296.5 850,-296.5 844,-296.5 838,-290.5 838,-284.5 838,-284.5 838,-214.25 838,-214.25 838,-208.25 844,-202.25 850,-202.25 850,-202.25 992,-202.25 992,-202.25 998,-202.25 1004,-208.25 1004,-214.25 1004,-214.25 1004,-284.5 1004,-284.5 1004,-290.5 998,-296.5 992,-296.5"/>
<text text-anchor="middle" x="921" y="-279.2" font-family="Helvetica,sans-Serif" font-size="14.00">4_C &lt;= 0.5</text>
<text text-anchor="middle" x="921" y="-261.95" font-family="Helvetica,sans-Serif" font-size="14.00">entropy = 0.979</text>
<text text-anchor="middle" x="921" y="-244.7" font-family="Helvetica,sans-Serif" font-size="14.00">samples = 7698</text>
<text text-anchor="middle" x="921" y="-227.45" font-family="Helvetica,sans-Serif" font-size="14.00">value = [7199, 5119]</text>
<text text-anchor="middle" x="921" y="-210.2" font-family="Helvetica,sans-Serif" font-size="14.00">class = Animal</text>
</g>
<!-- 12936&#45;&gt;12937 -->
<g id="edge17" class="edge">
<title>12936&#45;&gt;12937</title>
<path fill="none" stroke="black" d="M921,-332.32C921,-324.42 921,-316.13 921,-307.98"/>
<polygon fill="black" stroke="black" points="924.5,-308.12 921,-298.12 917.5,-308.12 924.5,-308.12"/>
</g>
<!-- 16504 -->
<g id="node25" class="node">
<title>16504</title>
<path fill="#e89253" stroke="black" d="M1259.5,-296.5C1259.5,-296.5 1126.5,-296.5 1126.5,-296.5 1120.5,-296.5 1114.5,-290.5 1114.5,-284.5 1114.5,-284.5 1114.5,-214.25 1114.5,-214.25 1114.5,-208.25 1120.5,-202.25 1126.5,-202.25 1126.5,-202.25 1259.5,-202.25 1259.5,-202.25 1265.5,-202.25 1271.5,-208.25 1271.5,-214.25 1271.5,-214.25 1271.5,-284.5 1271.5,-284.5 1271.5,-290.5 1265.5,-296.5 1259.5,-296.5"/>
<text text-anchor="middle" x="1193" y="-279.2" font-family="Helvetica,sans-Serif" font-size="14.00">23_A &lt;= 0.5</text>
<text text-anchor="middle" x="1193" y="-261.95" font-family="Helvetica,sans-Serif" font-size="14.00">entropy = 0.52</text>
<text text-anchor="middle" x="1193" y="-244.7" font-family="Helvetica,sans-Serif" font-size="14.00">samples = 1473</text>
<text text-anchor="middle" x="1193" y="-227.45" font-family="Helvetica,sans-Serif" font-size="14.00">value = [2025, 268]</text>
<text text-anchor="middle" x="1193" y="-210.2" font-family="Helvetica,sans-Serif" font-size="14.00">class = Animal</text>
</g>
<!-- 12936&#45;&gt;16504 -->
<g id="edge24" class="edge">
<title>12936&#45;&gt;16504</title>
<path fill="none" stroke="black" d="M1004.46,-339.27C1036.02,-324.39 1072.05,-307.4 1104.1,-292.29"/>
<polygon fill="black" stroke="black" points="1105.43,-295.54 1112.98,-288.1 1102.44,-289.2 1105.43,-295.54"/>
</g>
<!-- 12938 -->
<g id="node19" class="node">
<title>12938</title>
<path fill="#f3c6a6" stroke="black" d="M900,-166.25C900,-166.25 758,-166.25 758,-166.25 752,-166.25 746,-160.25 746,-154.25 746,-154.25 746,-84 746,-84 746,-78 752,-72 758,-72 758,-72 900,-72 900,-72 906,-72 912,-78 912,-84 912,-84 912,-154.25 912,-154.25 912,-160.25 906,-166.25 900,-166.25"/>
<text text-anchor="middle" x="829" y="-148.95" font-family="Helvetica,sans-Serif" font-size="14.00">22_G &lt;= 0.5</text>
<text text-anchor="middle" x="829" y="-131.7" font-family="Helvetica,sans-Serif" font-size="14.00">entropy = 0.939</text>
<text text-anchor="middle" x="829" y="-114.45" font-family="Helvetica,sans-Serif" font-size="14.00">samples = 5145</text>
<text text-anchor="middle" x="829" y="-97.2" font-family="Helvetica,sans-Serif" font-size="14.00">value = [5296, 2918]</text>
<text text-anchor="middle" x="829" y="-79.95" font-family="Helvetica,sans-Serif" font-size="14.00">class = Animal</text>
</g>
<!-- 12937&#45;&gt;12938 -->
<g id="edge18" class="edge">
<title>12937&#45;&gt;12938</title>
<path fill="none" stroke="black" d="M887.79,-202.07C881.6,-193.45 875.07,-184.35 868.71,-175.49"/>
<polygon fill="black" stroke="black" points="871.72,-173.67 863.05,-167.59 866.03,-177.75 871.72,-173.67"/>
</g>
<!-- 15693 -->
<g id="node22" class="node">
<title>15693</title>
<path fill="#e4f2fb" stroke="black" d="M1084,-166.25C1084,-166.25 942,-166.25 942,-166.25 936,-166.25 930,-160.25 930,-154.25 930,-154.25 930,-84 930,-84 930,-78 936,-72 942,-72 942,-72 1084,-72 1084,-72 1090,-72 1096,-78 1096,-84 1096,-84 1096,-154.25 1096,-154.25 1096,-160.25 1090,-166.25 1084,-166.25"/>
<text text-anchor="middle" x="1013" y="-148.95" font-family="Helvetica,sans-Serif" font-size="14.00">17_G &lt;= 0.5</text>
<text text-anchor="middle" x="1013" y="-131.7" font-family="Helvetica,sans-Serif" font-size="14.00">entropy = 0.996</text>
<text text-anchor="middle" x="1013" y="-114.45" font-family="Helvetica,sans-Serif" font-size="14.00">samples = 2553</text>
<text text-anchor="middle" x="1013" y="-97.2" font-family="Helvetica,sans-Serif" font-size="14.00">value = [1903, 2201]</text>
<text text-anchor="middle" x="1013" y="-79.95" font-family="Helvetica,sans-Serif" font-size="14.00">class = Plant</text>
</g>
<!-- 12937&#45;&gt;15693 -->
<g id="edge21" class="edge">
<title>12937&#45;&gt;15693</title>
<path fill="none" stroke="black" d="M954.21,-202.07C960.4,-193.45 966.93,-184.35 973.29,-175.49"/>
<polygon fill="black" stroke="black" points="975.97,-177.75 978.95,-167.59 970.28,-173.67 975.97,-177.75"/>
</g>
<!-- 12939 -->
<g id="node20" class="node">
<title>12939</title>
<path fill="#c0c0c0" stroke="black" d="M792,-36C792,-36 762,-36 762,-36 756,-36 750,-30 750,-24 750,-24 750,-12 750,-12 750,-6 756,0 762,0 762,0 792,0 792,0 798,0 804,-6 804,-12 804,-12 804,-24 804,-24 804,-30 798,-36 792,-36"/>
<text text-anchor="middle" x="777" y="-13.32" font-family="Helvetica,sans-Serif" font-size="14.00">(...)</text>
</g>
<!-- 12938&#45;&gt;12939 -->
<g id="edge19" class="edge">
<title>12938&#45;&gt;12939</title>
<path fill="none" stroke="black" d="M804.67,-71.75C800.1,-63.03 795.45,-54.16 791.3,-46.26"/>
<polygon fill="black" stroke="black" points="794.46,-44.74 786.71,-37.51 788.26,-47.99 794.46,-44.74"/>
</g>
<!-- 15314 -->
<g id="node21" class="node">
<title>15314</title>
<path fill="#c0c0c0" stroke="black" d="M864,-36C864,-36 834,-36 834,-36 828,-36 822,-30 822,-24 822,-24 822,-12 822,-12 822,-6 828,0 834,0 834,0 864,0 864,0 870,0 876,-6 876,-12 876,-12 876,-24 876,-24 876,-30 870,-36 864,-36"/>
<text text-anchor="middle" x="849" y="-13.32" font-family="Helvetica,sans-Serif" font-size="14.00">(...)</text>
</g>
<!-- 12938&#45;&gt;15314 -->
<g id="edge20" class="edge">
<title>12938&#45;&gt;15314</title>
<path fill="none" stroke="black" d="M838.36,-71.75C840.04,-63.42 841.74,-54.97 843.28,-47.34"/>
<polygon fill="black" stroke="black" points="846.69,-48.15 845.24,-37.66 839.83,-46.77 846.69,-48.15"/>
</g>
<!-- 15694 -->
<g id="node23" class="node">
<title>15694</title>
<path fill="#c0c0c0" stroke="black" d="M974,-36C974,-36 944,-36 944,-36 938,-36 932,-30 932,-24 932,-24 932,-12 932,-12 932,-6 938,0 944,0 944,0 974,0 974,0 980,0 986,-6 986,-12 986,-12 986,-24 986,-24 986,-30 980,-36 974,-36"/>
<text text-anchor="middle" x="959" y="-13.32" font-family="Helvetica,sans-Serif" font-size="14.00">(...)</text>
</g>
<!-- 15693&#45;&gt;15694 -->
<g id="edge22" class="edge">
<title>15693&#45;&gt;15694</title>
<path fill="none" stroke="black" d="M987.74,-71.75C982.98,-63.03 978.16,-54.16 973.85,-46.26"/>
<polygon fill="black" stroke="black" points="976.94,-44.61 969.08,-37.5 970.79,-47.96 976.94,-44.61"/>
</g>
<!-- 16273 -->
<g id="node24" class="node">
<title>16273</title>
<path fill="#c0c0c0" stroke="black" d="M1046,-36C1046,-36 1016,-36 1016,-36 1010,-36 1004,-30 1004,-24 1004,-24 1004,-12 1004,-12 1004,-6 1010,0 1016,0 1016,0 1046,0 1046,0 1052,0 1058,-6 1058,-12 1058,-12 1058,-24 1058,-24 1058,-30 1052,-36 1046,-36"/>
<text text-anchor="middle" x="1031" y="-13.32" font-family="Helvetica,sans-Serif" font-size="14.00">(...)</text>
</g>
<!-- 15693&#45;&gt;16273 -->
<g id="edge23" class="edge">
<title>15693&#45;&gt;16273</title>
<path fill="none" stroke="black" d="M1021.42,-71.75C1022.93,-63.42 1024.47,-54.97 1025.85,-47.34"/>
<polygon fill="black" stroke="black" points="1029.27,-48.13 1027.61,-37.66 1022.38,-46.88 1029.27,-48.13"/>
</g>
<!-- 16505 -->
<g id="node26" class="node">
<title>16505</title>
<path fill="#e89152" stroke="black" d="M1259.5,-166.25C1259.5,-166.25 1126.5,-166.25 1126.5,-166.25 1120.5,-166.25 1114.5,-160.25 1114.5,-154.25 1114.5,-154.25 1114.5,-84 1114.5,-84 1114.5,-78 1120.5,-72 1126.5,-72 1126.5,-72 1259.5,-72 1259.5,-72 1265.5,-72 1271.5,-78 1271.5,-84 1271.5,-84 1271.5,-154.25 1271.5,-154.25 1271.5,-160.25 1265.5,-166.25 1259.5,-166.25"/>
<text text-anchor="middle" x="1193" y="-148.95" font-family="Helvetica,sans-Serif" font-size="14.00">15_G &lt;= 0.5</text>
<text text-anchor="middle" x="1193" y="-131.7" font-family="Helvetica,sans-Serif" font-size="14.00">entropy = 0.503</text>
<text text-anchor="middle" x="1193" y="-114.45" font-family="Helvetica,sans-Serif" font-size="14.00">samples = 1431</text>
<text text-anchor="middle" x="1193" y="-97.2" font-family="Helvetica,sans-Serif" font-size="14.00">value = [1980, 247]</text>
<text text-anchor="middle" x="1193" y="-79.95" font-family="Helvetica,sans-Serif" font-size="14.00">class = Animal</text>
</g>
<!-- 16504&#45;&gt;16505 -->
<g id="edge25" class="edge">
<title>16504&#45;&gt;16505</title>
<path fill="none" stroke="black" d="M1193,-202.07C1193,-194.17 1193,-185.88 1193,-177.73"/>
<polygon fill="black" stroke="black" points="1196.5,-177.87 1193,-167.87 1189.5,-177.87 1196.5,-177.87"/>
</g>
<!-- 16972 -->
<g id="node29" class="node">
<title>16972</title>
<path fill="#f1bc95" stroke="black" d="M1408.38,-166.25C1408.38,-166.25 1301.62,-166.25 1301.62,-166.25 1295.62,-166.25 1289.62,-160.25 1289.62,-154.25 1289.62,-154.25 1289.62,-84 1289.62,-84 1289.62,-78 1295.62,-72 1301.62,-72 1301.62,-72 1408.38,-72 1408.38,-72 1414.38,-72 1420.38,-78 1420.38,-84 1420.38,-84 1420.38,-154.25 1420.38,-154.25 1420.38,-160.25 1414.38,-166.25 1408.38,-166.25"/>
<text text-anchor="middle" x="1355" y="-148.95" font-family="Helvetica,sans-Serif" font-size="14.00">6_U &lt;= 0.5</text>
<text text-anchor="middle" x="1355" y="-131.7" font-family="Helvetica,sans-Serif" font-size="14.00">entropy = 0.902</text>
<text text-anchor="middle" x="1355" y="-114.45" font-family="Helvetica,sans-Serif" font-size="14.00">samples = 42</text>
<text text-anchor="middle" x="1355" y="-97.2" font-family="Helvetica,sans-Serif" font-size="14.00">value = [45, 21]</text>
<text text-anchor="middle" x="1355" y="-79.95" font-family="Helvetica,sans-Serif" font-size="14.00">class = Animal</text>
</g>
<!-- 16504&#45;&gt;16972 -->
<g id="edge28" class="edge">
<title>16504&#45;&gt;16972</title>
<path fill="none" stroke="black" d="M1251.49,-202.07C1263.11,-192.87 1275.41,-183.13 1287.32,-173.71"/>
<polygon fill="black" stroke="black" points="1289.47,-176.46 1295.14,-167.51 1285.13,-170.98 1289.47,-176.46"/>
</g>
<!-- 16506 -->
<g id="node27" class="node">
<title>16506</title>
<path fill="#c0c0c0" stroke="black" d="M1163,-36C1163,-36 1133,-36 1133,-36 1127,-36 1121,-30 1121,-24 1121,-24 1121,-12 1121,-12 1121,-6 1127,0 1133,0 1133,0 1163,0 1163,0 1169,0 1175,-6 1175,-12 1175,-12 1175,-24 1175,-24 1175,-30 1169,-36 1163,-36"/>
<text text-anchor="middle" x="1148" y="-13.32" font-family="Helvetica,sans-Serif" font-size="14.00">(...)</text>
</g>
<!-- 16505&#45;&gt;16506 -->
<g id="edge26" class="edge">
<title>16505&#45;&gt;16506</title>
<path fill="none" stroke="black" d="M1171.95,-71.75C1168.03,-63.12 1164.05,-54.36 1160.5,-46.53"/>
<polygon fill="black" stroke="black" points="1163.74,-45.21 1156.42,-37.55 1157.37,-48.1 1163.74,-45.21"/>
</g>
<!-- 16829 -->
<g id="node28" class="node">
<title>16829</title>
<path fill="#c0c0c0" stroke="black" d="M1235,-36C1235,-36 1205,-36 1205,-36 1199,-36 1193,-30 1193,-24 1193,-24 1193,-12 1193,-12 1193,-6 1199,0 1205,0 1205,0 1235,0 1235,0 1241,0 1247,-6 1247,-12 1247,-12 1247,-24 1247,-24 1247,-30 1241,-36 1235,-36"/>
<text text-anchor="middle" x="1220" y="-13.32" font-family="Helvetica,sans-Serif" font-size="14.00">(...)</text>
</g>
<!-- 16505&#45;&gt;16829 -->
<g id="edge27" class="edge">
<title>16505&#45;&gt;16829</title>
<path fill="none" stroke="black" d="M1205.63,-71.75C1207.93,-63.32 1210.26,-54.77 1212.35,-47.07"/>
<polygon fill="black" stroke="black" points="1215.67,-48.2 1214.92,-37.63 1208.92,-46.36 1215.67,-48.2"/>
</g>
<!-- 16973 -->
<g id="node30" class="node">
<title>16973</title>
<path fill="#c0c0c0" stroke="black" d="M1334,-36C1334,-36 1304,-36 1304,-36 1298,-36 1292,-30 1292,-24 1292,-24 1292,-12 1292,-12 1292,-6 1298,0 1304,0 1304,0 1334,0 1334,0 1340,0 1346,-6 1346,-12 1346,-12 1346,-24 1346,-24 1346,-30 1340,-36 1334,-36"/>
<text text-anchor="middle" x="1319" y="-13.32" font-family="Helvetica,sans-Serif" font-size="14.00">(...)</text>
</g>
<!-- 16972&#45;&gt;16973 -->
<g id="edge29" class="edge">
<title>16972&#45;&gt;16973</title>
<path fill="none" stroke="black" d="M1338.16,-71.75C1335.06,-63.22 1331.92,-54.57 1329.1,-46.8"/>
<polygon fill="black" stroke="black" points="1332.46,-45.8 1325.75,-37.6 1325.88,-48.19 1332.46,-45.8"/>
</g>
<!-- 16994 -->
<g id="node31" class="node">
<title>16994</title>
<path fill="#c0c0c0" stroke="black" d="M1406,-36C1406,-36 1376,-36 1376,-36 1370,-36 1364,-30 1364,-24 1364,-24 1364,-12 1364,-12 1364,-6 1370,0 1376,0 1376,0 1406,0 1406,0 1412,0 1418,-6 1418,-12 1418,-12 1418,-24 1418,-24 1418,-30 1412,-36 1406,-36"/>
<text text-anchor="middle" x="1391" y="-13.32" font-family="Helvetica,sans-Serif" font-size="14.00">(...)</text>
</g>
<!-- 16972&#45;&gt;16994 -->
<g id="edge30" class="edge">
<title>16972&#45;&gt;16994</title>
<path fill="none" stroke="black" d="M1371.84,-71.75C1374.94,-63.22 1378.08,-54.57 1380.9,-46.8"/>
<polygon fill="black" stroke="black" points="1384.12,-48.19 1384.25,-37.6 1377.54,-45.8 1384.12,-48.19"/>
</g>
</g>
</svg>
