<?xml version="1.0" encoding="UTF-8" standalone="no"?>
<!DOCTYPE svg PUBLIC "-//W3C//DTD SVG 1.1//EN"
 "http://www.w3.org/Graphics/SVG/1.1/DTD/svg11.dtd">
<!-- Generated by graphviz version 12.0.0 (20240803.0821)
 -->
<!-- Title: Tree Pages: 1 -->
<svg width="1393pt" height="565pt"
 viewBox="0.00 0.00 1392.50 565.00" xmlns="http://www.w3.org/2000/svg" xmlns:xlink="http://www.w3.org/1999/xlink">
<g id="graph0" class="graph" transform="scale(1 1) rotate(0) translate(4 561)">
<title>Tree</title>
<polygon fill="white" stroke="none" points="-4,4 -4,-561 1388.5,-561 1388.5,4 -4,4"/>
<!-- 0 -->
<g id="node1" class="node">
<title>0</title>
<path fill="#fefeff" stroke="black" d="M799,-557C799,-557 639,-557 639,-557 633,-557 627,-551 627,-545 627,-545 627,-474.75 627,-474.75 627,-468.75 633,-462.75 639,-462.75 639,-462.75 799,-462.75 799,-462.75 805,-462.75 811,-468.75 811,-474.75 811,-474.75 811,-545 811,-545 811,-551 805,-557 799,-557"/>
<text text-anchor="middle" x="719" y="-539.7" font-family="Helvetica,sans-Serif" font-size="14.00">22_A &lt;= 0.5</text>
<text text-anchor="middle" x="719" y="-522.45" font-family="Helvetica,sans-Serif" font-size="14.00">entropy = 1.0</text>
<text text-anchor="middle" x="719" y="-505.2" font-family="Helvetica,sans-Serif" font-size="14.00">samples = 38108</text>
<text text-anchor="middle" x="719" y="-487.95" font-family="Helvetica,sans-Serif" font-size="14.00">value = [30060, 30285]</text>
<text text-anchor="middle" x="719" y="-470.7" font-family="Helvetica,sans-Serif" font-size="14.00">class = Plant</text>
</g>
<!-- 1 -->
<g id="node2" class="node">
<title>1</title>
<path fill="#eaf5fc" stroke="black" d="M628,-426.75C628,-426.75 468,-426.75 468,-426.75 462,-426.75 456,-420.75 456,-414.75 456,-414.75 456,-344.5 456,-344.5 456,-338.5 462,-332.5 468,-332.5 468,-332.5 628,-332.5 628,-332.5 634,-332.5 640,-338.5 640,-344.5 640,-344.5 640,-414.75 640,-414.75 640,-420.75 634,-426.75 628,-426.75"/>
<text text-anchor="middle" x="548" y="-409.45" font-family="Helvetica,sans-Serif" font-size="14.00">21_U &lt;= 0.5</text>
<text text-anchor="middle" x="548" y="-392.2" font-family="Helvetica,sans-Serif" font-size="14.00">entropy = 0.998</text>
<text text-anchor="middle" x="548" y="-374.95" font-family="Helvetica,sans-Serif" font-size="14.00">samples = 33877</text>
<text text-anchor="middle" x="548" y="-357.7" font-family="Helvetica,sans-Serif" font-size="14.00">value = [25326, 28318]</text>
<text text-anchor="middle" x="548" y="-340.45" font-family="Helvetica,sans-Serif" font-size="14.00">class = Plant</text>
</g>
<!-- 0&#45;&gt;1 -->
<g id="edge1" class="edge">
<title>0&#45;&gt;1</title>
<path fill="none" stroke="black" d="M657.27,-462.57C644.87,-453.28 631.75,-443.44 619.07,-433.93"/>
<polygon fill="black" stroke="black" points="621.24,-431.18 611.14,-427.98 617.04,-436.78 621.24,-431.18"/>
<text text-anchor="middle" x="613.47" y="-447.15" font-family="Helvetica,sans-Serif" font-size="14.00">True</text>
</g>
<!-- 15166 -->
<g id="node17" class="node">
<title>15166</title>
<path fill="#f0b58b" stroke="black" d="M965,-426.75C965,-426.75 823,-426.75 823,-426.75 817,-426.75 811,-420.75 811,-414.75 811,-414.75 811,-344.5 811,-344.5 811,-338.5 817,-332.5 823,-332.5 823,-332.5 965,-332.5 965,-332.5 971,-332.5 977,-338.5 977,-344.5 977,-344.5 977,-414.75 977,-414.75 977,-420.75 971,-426.75 965,-426.75"/>
<text text-anchor="middle" x="894" y="-409.45" font-family="Helvetica,sans-Serif" font-size="14.00">19_C &lt;= 0.5</text>
<text text-anchor="middle" x="894" y="-392.2" font-family="Helvetica,sans-Serif" font-size="14.00">entropy = 0.873</text>
<text text-anchor="middle" x="894" y="-374.95" font-family="Helvetica,sans-Serif" font-size="14.00">samples = 4231</text>
<text text-anchor="middle" x="894" y="-357.7" font-family="Helvetica,sans-Serif" font-size="14.00">value = [4734, 1967]</text>
<text text-anchor="middle" x="894" y="-340.45" font-family="Helvetica,sans-Serif" font-size="14.00">class = Animal</text>
</g>
<!-- 0&#45;&gt;15166 -->
<g id="edge16" class="edge">
<title>0&#45;&gt;15166</title>
<path fill="none" stroke="black" d="M782.18,-462.57C794.99,-453.19 808.55,-443.25 821.64,-433.65"/>
<polygon fill="black" stroke="black" points="823.4,-436.7 829.4,-427.97 819.26,-431.06 823.4,-436.7"/>
<text text-anchor="middle" x="826.81" y="-447.11" font-family="Helvetica,sans-Serif" font-size="14.00">False</text>
</g>
<!-- 2 -->
<g id="node3" class="node">
<title>2</title>
<path fill="#d3e9f9" stroke="black" d="M361,-296.5C361,-296.5 201,-296.5 201,-296.5 195,-296.5 189,-290.5 189,-284.5 189,-284.5 189,-214.25 189,-214.25 189,-208.25 195,-202.25 201,-202.25 201,-202.25 361,-202.25 361,-202.25 367,-202.25 373,-208.25 373,-214.25 373,-214.25 373,-284.5 373,-284.5 373,-290.5 367,-296.5 361,-296.5"/>
<text text-anchor="middle" x="281" y="-279.2" font-family="Helvetica,sans-Serif" font-size="14.00">23_U &lt;= 0.5</text>
<text text-anchor="middle" x="281" y="-261.95" font-family="Helvetica,sans-Serif" font-size="14.00">entropy = 0.988</text>
<text text-anchor="middle" x="281" y="-244.7" font-family="Helvetica,sans-Serif" font-size="14.00">samples = 26314</text>
<text text-anchor="middle" x="281" y="-227.45" font-family="Helvetica,sans-Serif" font-size="14.00">value = [18232, 23496]</text>
<text text-anchor="middle" x="281" y="-210.2" font-family="Helvetica,sans-Serif" font-size="14.00">class = Plant</text>
</g>
<!-- 1&#45;&gt;2 -->
<g id="edge2" class="edge">
<title>1&#45;&gt;2</title>
<path fill="none" stroke="black" d="M455.74,-334.31C432.4,-323.1 407.18,-310.99 383.37,-299.55"/>
<polygon fill="black" stroke="black" points="385.16,-296.52 374.63,-295.35 382.13,-302.83 385.16,-296.52"/>
</g>
<!-- 11837 -->
<g id="node10" class="node">
<title>11837</title>
<path fill="#f7d7c0" stroke="black" d="M619,-296.5C619,-296.5 477,-296.5 477,-296.5 471,-296.5 465,-290.5 465,-284.5 465,-284.5 465,-214.25 465,-214.25 465,-208.25 471,-202.25 477,-202.25 477,-202.25 619,-202.25 619,-202.25 625,-202.25 631,-208.25 631,-214.25 631,-214.25 631,-284.5 631,-284.5 631,-290.5 625,-296.5 619,-296.5"/>
<text text-anchor="middle" x="548" y="-279.2" font-family="Helvetica,sans-Serif" font-size="14.00">22_U &lt;= 0.5</text>
<text text-anchor="middle" x="548" y="-261.95" font-family="Helvetica,sans-Serif" font-size="14.00">entropy = 0.974</text>
<text text-anchor="middle" x="548" y="-244.7" font-family="Helvetica,sans-Serif" font-size="14.00">samples = 7563</text>
<text text-anchor="middle" x="548" y="-227.45" font-family="Helvetica,sans-Serif" font-size="14.00">value = [7094, 4822]</text>
<text text-anchor="middle" x="548" y="-210.2" font-family="Helvetica,sans-Serif" font-size="14.00">class = Animal</text>
</g>
<!-- 1&#45;&gt;11837 -->
<g id="edge9" class="edge">
<title>1&#45;&gt;11837</title>
<path fill="none" stroke="black" d="M548,-332.32C548,-324.42 548,-316.13 548,-307.98"/>
<polygon fill="black" stroke="black" points="551.5,-308.12 548,-298.12 544.5,-308.12 551.5,-308.12"/>
</g>
<!-- 3 -->
<g id="node4" class="node">
<title>3</title>
<path fill="#c7e3f8" stroke="black" d="M172,-166.25C172,-166.25 12,-166.25 12,-166.25 6,-166.25 0,-160.25 0,-154.25 0,-154.25 0,-84 0,-84 0,-78 6,-72 12,-72 12,-72 172,-72 172,-72 178,-72 184,-78 184,-84 184,-84 184,-154.25 184,-154.25 184,-160.25 178,-166.25 172,-166.25"/>
<text text-anchor="middle" x="92" y="-148.95" font-family="Helvetica,sans-Serif" font-size="14.00">8_G &lt;= 0.5</text>
<text text-anchor="middle" x="92" y="-131.7" font-family="Helvetica,sans-Serif" font-size="14.00">entropy = 0.98</text>
<text text-anchor="middle" x="92" y="-114.45" font-family="Helvetica,sans-Serif" font-size="14.00">samples = 25138</text>
<text text-anchor="middle" x="92" y="-97.2" font-family="Helvetica,sans-Serif" font-size="14.00">value = [16641, 23174]</text>
<text text-anchor="middle" x="92" y="-79.95" font-family="Helvetica,sans-Serif" font-size="14.00">class = Plant</text>
</g>
<!-- 2&#45;&gt;3 -->
<g id="edge3" class="edge">
<title>2&#45;&gt;3</title>
<path fill="none" stroke="black" d="M212.5,-201.89C198.63,-192.48 183.96,-182.53 169.8,-172.92"/>
<polygon fill="black" stroke="black" points="172.08,-170.23 161.84,-167.51 168.15,-176.03 172.08,-170.23"/>
</g>
<!-- 11404 -->
<g id="node7" class="node">
<title>11404</title>
<path fill="#ea9b61" stroke="black" d="M347.5,-166.25C347.5,-166.25 214.5,-166.25 214.5,-166.25 208.5,-166.25 202.5,-160.25 202.5,-154.25 202.5,-154.25 202.5,-84 202.5,-84 202.5,-78 208.5,-72 214.5,-72 214.5,-72 347.5,-72 347.5,-72 353.5,-72 359.5,-78 359.5,-84 359.5,-84 359.5,-154.25 359.5,-154.25 359.5,-160.25 353.5,-166.25 347.5,-166.25"/>
<text text-anchor="middle" x="281" y="-148.95" font-family="Helvetica,sans-Serif" font-size="14.00">24_A &lt;= 0.5</text>
<text text-anchor="middle" x="281" y="-131.7" font-family="Helvetica,sans-Serif" font-size="14.00">entropy = 0.654</text>
<text text-anchor="middle" x="281" y="-114.45" font-family="Helvetica,sans-Serif" font-size="14.00">samples = 1176</text>
<text text-anchor="middle" x="281" y="-97.2" font-family="Helvetica,sans-Serif" font-size="14.00">value = [1591, 322]</text>
<text text-anchor="middle" x="281" y="-79.95" font-family="Helvetica,sans-Serif" font-size="14.00">class = Animal</text>
</g>
<!-- 2&#45;&gt;11404 -->
<g id="edge6" class="edge">
<title>2&#45;&gt;11404</title>
<path fill="none" stroke="black" d="M281,-202.07C281,-194.17 281,-185.88 281,-177.73"/>
<polygon fill="black" stroke="black" points="284.5,-177.87 281,-167.87 277.5,-177.87 284.5,-177.87"/>
</g>
<!-- 4 -->
<g id="node5" class="node">
<title>4</title>
<path fill="#c0c0c0" stroke="black" d="M71,-36C71,-36 41,-36 41,-36 35,-36 29,-30 29,-24 29,-24 29,-12 29,-12 29,-6 35,0 41,0 41,0 71,0 71,0 77,0 83,-6 83,-12 83,-12 83,-24 83,-24 83,-30 77,-36 71,-36"/>
<text text-anchor="middle" x="56" y="-13.32" font-family="Helvetica,sans-Serif" font-size="14.00">(...)</text>
</g>
<!-- 3&#45;&gt;4 -->
<g id="edge4" class="edge">
<title>3&#45;&gt;4</title>
<path fill="none" stroke="black" d="M75.16,-71.75C72.06,-63.22 68.92,-54.57 66.1,-46.8"/>
<polygon fill="black" stroke="black" points="69.46,-45.8 62.75,-37.6 62.88,-48.19 69.46,-45.8"/>
</g>
<!-- 8357 -->
<g id="node6" class="node">
<title>8357</title>
<path fill="#c0c0c0" stroke="black" d="M143,-36C143,-36 113,-36 113,-36 107,-36 101,-30 101,-24 101,-24 101,-12 101,-12 101,-6 107,0 113,0 113,0 143,0 143,0 149,0 155,-6 155,-12 155,-12 155,-24 155,-24 155,-30 149,-36 143,-36"/>
<text text-anchor="middle" x="128" y="-13.32" font-family="Helvetica,sans-Serif" font-size="14.00">(...)</text>
</g>
<!-- 3&#45;&gt;8357 -->
<g id="edge5" class="edge">
<title>3&#45;&gt;8357</title>
<path fill="none" stroke="black" d="M108.84,-71.75C111.94,-63.22 115.08,-54.57 117.9,-46.8"/>
<polygon fill="black" stroke="black" points="121.12,-48.19 121.25,-37.6 114.54,-45.8 121.12,-48.19"/>
</g>
<!-- 11405 -->
<g id="node8" class="node">
<title>11405</title>
<path fill="#c0c0c0" stroke="black" d="M260,-36C260,-36 230,-36 230,-36 224,-36 218,-30 218,-24 218,-24 218,-12 218,-12 218,-6 224,0 230,0 230,0 260,0 260,0 266,0 272,-6 272,-12 272,-12 272,-24 272,-24 272,-30 266,-36 260,-36"/>
<text text-anchor="middle" x="245" y="-13.32" font-family="Helvetica,sans-Serif" font-size="14.00">(...)</text>
</g>
<!-- 11404&#45;&gt;11405 -->
<g id="edge7" class="edge">
<title>11404&#45;&gt;11405</title>
<path fill="none" stroke="black" d="M264.16,-71.75C261.06,-63.22 257.92,-54.57 255.1,-46.8"/>
<polygon fill="black" stroke="black" points="258.46,-45.8 251.75,-37.6 251.88,-48.19 258.46,-45.8"/>
</g>
<!-- 11800 -->
<g id="node9" class="node">
<title>11800</title>
<path fill="#c0c0c0" stroke="black" d="M332,-36C332,-36 302,-36 302,-36 296,-36 290,-30 290,-24 290,-24 290,-12 290,-12 290,-6 296,0 302,0 302,0 332,0 332,0 338,0 344,-6 344,-12 344,-12 344,-24 344,-24 344,-30 338,-36 332,-36"/>
<text text-anchor="middle" x="317" y="-13.32" font-family="Helvetica,sans-Serif" font-size="14.00">(...)</text>
</g>
<!-- 11404&#45;&gt;11800 -->
<g id="edge8" class="edge">
<title>11404&#45;&gt;11800</title>
<path fill="none" stroke="black" d="M297.84,-71.75C300.94,-63.22 304.08,-54.57 306.9,-46.8"/>
<polygon fill="black" stroke="black" points="310.12,-48.19 310.25,-37.6 303.54,-45.8 310.12,-48.19"/>
</g>
<!-- 11838 -->
<g id="node11" class="node">
<title>11838</title>
<path fill="#fcefe5" stroke="black" d="M532,-166.25C532,-166.25 390,-166.25 390,-166.25 384,-166.25 378,-160.25 378,-154.25 378,-154.25 378,-84 378,-84 378,-78 384,-72 390,-72 390,-72 532,-72 532,-72 538,-72 544,-78 544,-84 544,-84 544,-154.25 544,-154.25 544,-160.25 538,-166.25 532,-166.25"/>
<text text-anchor="middle" x="461" y="-148.95" font-family="Helvetica,sans-Serif" font-size="14.00">10_A &lt;= 0.5</text>
<text text-anchor="middle" x="461" y="-131.7" font-family="Helvetica,sans-Serif" font-size="14.00">entropy = 0.997</text>
<text text-anchor="middle" x="461" y="-114.45" font-family="Helvetica,sans-Serif" font-size="14.00">samples = 6185</text>
<text text-anchor="middle" x="461" y="-97.2" font-family="Helvetica,sans-Serif" font-size="14.00">value = [5198, 4527]</text>
<text text-anchor="middle" x="461" y="-79.95" font-family="Helvetica,sans-Serif" font-size="14.00">class = Animal</text>
</g>
<!-- 11837&#45;&gt;11838 -->
<g id="edge10" class="edge">
<title>11837&#45;&gt;11838</title>
<path fill="none" stroke="black" d="M516.59,-202.07C510.8,-193.54 504.7,-184.54 498.75,-175.77"/>
<polygon fill="black" stroke="black" points="501.72,-173.92 493.21,-167.61 495.93,-177.85 501.72,-173.92"/>
</g>
<!-- 14611 -->
<g id="node14" class="node">
<title>14611</title>
<path fill="#e99558" stroke="black" d="M707.5,-166.25C707.5,-166.25 574.5,-166.25 574.5,-166.25 568.5,-166.25 562.5,-160.25 562.5,-154.25 562.5,-154.25 562.5,-84 562.5,-84 562.5,-78 568.5,-72 574.5,-72 574.5,-72 707.5,-72 707.5,-72 713.5,-72 719.5,-78 719.5,-84 719.5,-84 719.5,-154.25 719.5,-154.25 719.5,-160.25 713.5,-166.25 707.5,-166.25"/>
<text text-anchor="middle" x="641" y="-148.95" font-family="Helvetica,sans-Serif" font-size="14.00">17_G &lt;= 0.5</text>
<text text-anchor="middle" x="641" y="-131.7" font-family="Helvetica,sans-Serif" font-size="14.00">entropy = 0.57</text>
<text text-anchor="middle" x="641" y="-114.45" font-family="Helvetica,sans-Serif" font-size="14.00">samples = 1378</text>
<text text-anchor="middle" x="641" y="-97.2" font-family="Helvetica,sans-Serif" font-size="14.00">value = [1896, 295]</text>
<text text-anchor="middle" x="641" y="-79.95" font-family="Helvetica,sans-Serif" font-size="14.00">class = Animal</text>
</g>
<!-- 11837&#45;&gt;14611 -->
<g id="edge13" class="edge">
<title>11837&#45;&gt;14611</title>
<path fill="none" stroke="black" d="M581.58,-202.07C587.83,-193.45 594.43,-184.35 600.85,-175.49"/>
<polygon fill="black" stroke="black" points="603.55,-177.73 606.59,-167.58 597.88,-173.62 603.55,-177.73"/>
</g>
<!-- 11839 -->
<g id="node12" class="node">
<title>11839</title>
<path fill="#c0c0c0" stroke="black" d="M422,-36C422,-36 392,-36 392,-36 386,-36 380,-30 380,-24 380,-24 380,-12 380,-12 380,-6 386,0 392,0 392,0 422,0 422,0 428,0 434,-6 434,-12 434,-12 434,-24 434,-24 434,-30 428,-36 422,-36"/>
<text text-anchor="middle" x="407" y="-13.32" font-family="Helvetica,sans-Serif" font-size="14.00">(...)</text>
</g>
<!-- 11838&#45;&gt;11839 -->
<g id="edge11" class="edge">
<title>11838&#45;&gt;11839</title>
<path fill="none" stroke="black" d="M435.74,-71.75C430.98,-63.03 426.16,-54.16 421.85,-46.26"/>
<polygon fill="black" stroke="black" points="424.94,-44.61 417.08,-37.5 418.79,-47.96 424.94,-44.61"/>
</g>
<!-- 13870 -->
<g id="node13" class="node">
<title>13870</title>
<path fill="#c0c0c0" stroke="black" d="M494,-36C494,-36 464,-36 464,-36 458,-36 452,-30 452,-24 452,-24 452,-12 452,-12 452,-6 458,0 464,0 464,0 494,0 494,0 500,0 506,-6 506,-12 506,-12 506,-24 506,-24 506,-30 500,-36 494,-36"/>
<text text-anchor="middle" x="479" y="-13.32" font-family="Helvetica,sans-Serif" font-size="14.00">(...)</text>
</g>
<!-- 11838&#45;&gt;13870 -->
<g id="edge12" class="edge">
<title>11838&#45;&gt;13870</title>
<path fill="none" stroke="black" d="M469.42,-71.75C470.93,-63.42 472.47,-54.97 473.85,-47.34"/>
<polygon fill="black" stroke="black" points="477.27,-48.13 475.61,-37.66 470.38,-46.88 477.27,-48.13"/>
</g>
<!-- 14612 -->
<g id="node15" class="node">
<title>14612</title>
<path fill="#c0c0c0" stroke="black" d="M599,-36C599,-36 569,-36 569,-36 563,-36 557,-30 557,-24 557,-24 557,-12 557,-12 557,-6 563,0 569,0 569,0 599,0 599,0 605,0 611,-6 611,-12 611,-12 611,-24 611,-24 611,-30 605,-36 599,-36"/>
<text text-anchor="middle" x="584" y="-13.32" font-family="Helvetica,sans-Serif" font-size="14.00">(...)</text>
</g>
<!-- 14611&#45;&gt;14612 -->
<g id="edge14" class="edge">
<title>14611&#45;&gt;14612</title>
<path fill="none" stroke="black" d="M614.34,-71.75C609.26,-62.93 604.1,-53.96 599.52,-45.99"/>
<polygon fill="black" stroke="black" points="602.65,-44.41 594.63,-37.48 596.58,-47.9 602.65,-44.41"/>
</g>
<!-- 15001 -->
<g id="node16" class="node">
<title>15001</title>
<path fill="#c0c0c0" stroke="black" d="M671,-36C671,-36 641,-36 641,-36 635,-36 629,-30 629,-24 629,-24 629,-12 629,-12 629,-6 635,0 641,0 641,0 671,0 671,0 677,0 683,-6 683,-12 683,-12 683,-24 683,-24 683,-30 677,-36 671,-36"/>
<text text-anchor="middle" x="656" y="-13.32" font-family="Helvetica,sans-Serif" font-size="14.00">(...)</text>
</g>
<!-- 14611&#45;&gt;15001 -->
<g id="edge15" class="edge">
<title>14611&#45;&gt;15001</title>
<path fill="none" stroke="black" d="M648.02,-71.75C649.28,-63.42 650.56,-54.97 651.71,-47.34"/>
<polygon fill="black" stroke="black" points="655.14,-48.08 653.17,-37.67 648.22,-47.03 655.14,-48.08"/>
</g>
<!-- 15167 -->
<g id="node18" class="node">
<title>15167</title>
<path fill="#eda876" stroke="black" d="M965,-296.5C965,-296.5 823,-296.5 823,-296.5 817,-296.5 811,-290.5 811,-284.5 811,-284.5 811,-214.25 811,-214.25 811,-208.25 817,-202.25 823,-202.25 823,-202.25 965,-202.25 965,-202.25 971,-202.25 977,-208.25 977,-214.25 977,-214.25 977,-284.5 977,-284.5 977,-290.5 971,-296.5 965,-296.5"/>
<text text-anchor="middle" x="894" y="-279.2" font-family="Helvetica,sans-Serif" font-size="14.00">7_U &lt;= 0.5</text>
<text text-anchor="middle" x="894" y="-261.95" font-family="Helvetica,sans-Serif" font-size="14.00">entropy = 0.789</text>
<text text-anchor="middle" x="894" y="-244.7" font-family="Helvetica,sans-Serif" font-size="14.00">samples = 2954</text>
<text text-anchor="middle" x="894" y="-227.45" font-family="Helvetica,sans-Serif" font-size="14.00">value = [3560, 1102]</text>
<text text-anchor="middle" x="894" y="-210.2" font-family="Helvetica,sans-Serif" font-size="14.00">class = Animal</text>
</g>
<!-- 15166&#45;&gt;15167 -->
<g id="edge17" class="edge">
<title>15166&#45;&gt;15167</title>
<path fill="none" stroke="black" d="M894,-332.32C894,-324.42 894,-316.13 894,-307.98"/>
<polygon fill="black" stroke="black" points="897.5,-308.12 894,-298.12 890.5,-308.12 897.5,-308.12"/>
</g>
<!-- 16584 -->
<g id="node25" class="node">
<title>16584</title>
<path fill="#f8decb" stroke="black" d="M1219.5,-296.5C1219.5,-296.5 1086.5,-296.5 1086.5,-296.5 1080.5,-296.5 1074.5,-290.5 1074.5,-284.5 1074.5,-284.5 1074.5,-214.25 1074.5,-214.25 1074.5,-208.25 1080.5,-202.25 1086.5,-202.25 1086.5,-202.25 1219.5,-202.25 1219.5,-202.25 1225.5,-202.25 1231.5,-208.25 1231.5,-214.25 1231.5,-214.25 1231.5,-284.5 1231.5,-284.5 1231.5,-290.5 1225.5,-296.5 1219.5,-296.5"/>
<text text-anchor="middle" x="1153" y="-279.2" font-family="Helvetica,sans-Serif" font-size="14.00">23_G &lt;= 0.5</text>
<text text-anchor="middle" x="1153" y="-261.95" font-family="Helvetica,sans-Serif" font-size="14.00">entropy = 0.983</text>
<text text-anchor="middle" x="1153" y="-244.7" font-family="Helvetica,sans-Serif" font-size="14.00">samples = 1277</text>
<text text-anchor="middle" x="1153" y="-227.45" font-family="Helvetica,sans-Serif" font-size="14.00">value = [1174, 865]</text>
<text text-anchor="middle" x="1153" y="-210.2" font-family="Helvetica,sans-Serif" font-size="14.00">class = Animal</text>
</g>
<!-- 15166&#45;&gt;16584 -->
<g id="edge24" class="edge">
<title>15166&#45;&gt;16584</title>
<path fill="none" stroke="black" d="M977.37,-337.34C1005.03,-323.64 1035.92,-308.35 1063.99,-294.45"/>
<polygon fill="black" stroke="black" points="1065.42,-297.65 1072.83,-290.07 1062.32,-291.37 1065.42,-297.65"/>
</g>
<!-- 15168 -->
<g id="node19" class="node">
<title>15168</title>
<path fill="#eca26d" stroke="black" d="M882.5,-166.25C882.5,-166.25 749.5,-166.25 749.5,-166.25 743.5,-166.25 737.5,-160.25 737.5,-154.25 737.5,-154.25 737.5,-84 737.5,-84 737.5,-78 743.5,-72 749.5,-72 749.5,-72 882.5,-72 882.5,-72 888.5,-72 894.5,-78 894.5,-84 894.5,-84 894.5,-154.25 894.5,-154.25 894.5,-160.25 888.5,-166.25 882.5,-166.25"/>
<text text-anchor="middle" x="816" y="-148.95" font-family="Helvetica,sans-Serif" font-size="14.00">6_A &lt;= 0.5</text>
<text text-anchor="middle" x="816" y="-131.7" font-family="Helvetica,sans-Serif" font-size="14.00">entropy = 0.74</text>
<text text-anchor="middle" x="816" y="-114.45" font-family="Helvetica,sans-Serif" font-size="14.00">samples = 2187</text>
<text text-anchor="middle" x="816" y="-97.2" font-family="Helvetica,sans-Serif" font-size="14.00">value = [2745, 727]</text>
<text text-anchor="middle" x="816" y="-79.95" font-family="Helvetica,sans-Serif" font-size="14.00">class = Animal</text>
</g>
<!-- 15167&#45;&gt;15168 -->
<g id="edge18" class="edge">
<title>15167&#45;&gt;15168</title>
<path fill="none" stroke="black" d="M865.84,-202.07C860.7,-193.63 855.3,-184.74 850.01,-176.05"/>
<polygon fill="black" stroke="black" points="853.09,-174.38 844.9,-167.65 847.11,-178.01 853.09,-174.38"/>
</g>
<!-- 16165 -->
<g id="node22" class="node">
<title>16165</title>
<path fill="#f1bb94" stroke="black" d="M1049,-166.25C1049,-166.25 925,-166.25 925,-166.25 919,-166.25 913,-160.25 913,-154.25 913,-154.25 913,-84 913,-84 913,-78 919,-72 925,-72 925,-72 1049,-72 1049,-72 1055,-72 1061,-78 1061,-84 1061,-84 1061,-154.25 1061,-154.25 1061,-160.25 1055,-166.25 1049,-166.25"/>
<text text-anchor="middle" x="987" y="-148.95" font-family="Helvetica,sans-Serif" font-size="14.00">8_U &lt;= 0.5</text>
<text text-anchor="middle" x="987" y="-131.7" font-family="Helvetica,sans-Serif" font-size="14.00">entropy = 0.899</text>
<text text-anchor="middle" x="987" y="-114.45" font-family="Helvetica,sans-Serif" font-size="14.00">samples = 767</text>
<text text-anchor="middle" x="987" y="-97.2" font-family="Helvetica,sans-Serif" font-size="14.00">value = [815, 375]</text>
<text text-anchor="middle" x="987" y="-79.95" font-family="Helvetica,sans-Serif" font-size="14.00">class = Animal</text>
</g>
<!-- 15167&#45;&gt;16165 -->
<g id="edge21" class="edge">
<title>15167&#45;&gt;16165</title>
<path fill="none" stroke="black" d="M927.58,-202.07C933.83,-193.45 940.43,-184.35 946.85,-175.49"/>
<polygon fill="black" stroke="black" points="949.55,-177.73 952.59,-167.58 943.88,-173.62 949.55,-177.73"/>
</g>
<!-- 15169 -->
<g id="node20" class="node">
<title>15169</title>
<path fill="#c0c0c0" stroke="black" d="M772,-36C772,-36 742,-36 742,-36 736,-36 730,-30 730,-24 730,-24 730,-12 730,-12 730,-6 736,0 742,0 742,0 772,0 772,0 778,0 784,-6 784,-12 784,-12 784,-24 784,-24 784,-30 778,-36 772,-36"/>
<text text-anchor="middle" x="757" y="-13.32" font-family="Helvetica,sans-Serif" font-size="14.00">(...)</text>
</g>
<!-- 15168&#45;&gt;15169 -->
<g id="edge19" class="edge">
<title>15168&#45;&gt;15169</title>
<path fill="none" stroke="black" d="M788.4,-71.75C783.15,-62.93 777.81,-53.96 773.06,-45.99"/>
<polygon fill="black" stroke="black" points="776.12,-44.28 768,-37.47 770.1,-47.86 776.12,-44.28"/>
</g>
<!-- 15924 -->
<g id="node21" class="node">
<title>15924</title>
<path fill="#c0c0c0" stroke="black" d="M844,-36C844,-36 814,-36 814,-36 808,-36 802,-30 802,-24 802,-24 802,-12 802,-12 802,-6 808,0 814,0 814,0 844,0 844,0 850,0 856,-6 856,-12 856,-12 856,-24 856,-24 856,-30 850,-36 844,-36"/>
<text text-anchor="middle" x="829" y="-13.32" font-family="Helvetica,sans-Serif" font-size="14.00">(...)</text>
</g>
<!-- 15168&#45;&gt;15924 -->
<g id="edge20" class="edge">
<title>15168&#45;&gt;15924</title>
<path fill="none" stroke="black" d="M822.08,-71.75C823.17,-63.42 824.28,-54.97 825.28,-47.34"/>
<polygon fill="black" stroke="black" points="828.72,-48.04 826.55,-37.67 821.78,-47.13 828.72,-48.04"/>
</g>
<!-- 16166 -->
<g id="node23" class="node">
<title>16166</title>
<path fill="#c0c0c0" stroke="black" d="M941,-36C941,-36 911,-36 911,-36 905,-36 899,-30 899,-24 899,-24 899,-12 899,-12 899,-6 905,0 911,0 911,0 941,0 941,0 947,0 953,-6 953,-12 953,-12 953,-24 953,-24 953,-30 947,-36 941,-36"/>
<text text-anchor="middle" x="926" y="-13.32" font-family="Helvetica,sans-Serif" font-size="14.00">(...)</text>
</g>
<!-- 16165&#45;&gt;16166 -->
<g id="edge22" class="edge">
<title>16165&#45;&gt;16166</title>
<path fill="none" stroke="black" d="M958.46,-71.75C952.97,-62.83 947.39,-53.76 942.44,-45.72"/>
<polygon fill="black" stroke="black" points="945.58,-44.14 937.36,-37.46 939.62,-47.81 945.58,-44.14"/>
</g>
<!-- 16465 -->
<g id="node24" class="node">
<title>16465</title>
<path fill="#c0c0c0" stroke="black" d="M1013,-36C1013,-36 983,-36 983,-36 977,-36 971,-30 971,-24 971,-24 971,-12 971,-12 971,-6 977,0 983,0 983,0 1013,0 1013,0 1019,0 1025,-6 1025,-12 1025,-12 1025,-24 1025,-24 1025,-30 1019,-36 1013,-36"/>
<text text-anchor="middle" x="998" y="-13.32" font-family="Helvetica,sans-Serif" font-size="14.00">(...)</text>
</g>
<!-- 16165&#45;&gt;16465 -->
<g id="edge23" class="edge">
<title>16165&#45;&gt;16465</title>
<path fill="none" stroke="black" d="M992.15,-71.75C993.06,-63.52 993.99,-55.17 994.82,-47.61"/>
<polygon fill="black" stroke="black" points="998.3,-48 995.93,-37.68 991.35,-47.23 998.3,-48"/>
</g>
<!-- 16585 -->
<g id="node26" class="node">
<title>16585</title>
<path fill="#fbece2" stroke="black" d="M1215,-166.25C1215,-166.25 1091,-166.25 1091,-166.25 1085,-166.25 1079,-160.25 1079,-154.25 1079,-154.25 1079,-84 1079,-84 1079,-78 1085,-72 1091,-72 1091,-72 1215,-72 1215,-72 1221,-72 1227,-78 1227,-84 1227,-84 1227,-154.25 1227,-154.25 1227,-160.25 1221,-166.25 1215,-166.25"/>
<text text-anchor="middle" x="1153" y="-148.95" font-family="Helvetica,sans-Serif" font-size="14.00">4_C &lt;= 0.5</text>
<text text-anchor="middle" x="1153" y="-131.7" font-family="Helvetica,sans-Serif" font-size="14.00">entropy = 0.995</text>
<text text-anchor="middle" x="1153" y="-114.45" font-family="Helvetica,sans-Serif" font-size="14.00">samples = 1149</text>
<text text-anchor="middle" x="1153" y="-97.2" font-family="Helvetica,sans-Serif" font-size="14.00">value = [995, 848]</text>
<text text-anchor="middle" x="1153" y="-79.95" font-family="Helvetica,sans-Serif" font-size="14.00">class = Animal</text>
</g>
<!-- 16584&#45;&gt;16585 -->
<g id="edge25" class="edge">
<title>16584&#45;&gt;16585</title>
<path fill="none" stroke="black" d="M1153,-202.07C1153,-194.17 1153,-185.88 1153,-177.73"/>
<polygon fill="black" stroke="black" points="1156.5,-177.87 1153,-167.87 1149.5,-177.87 1156.5,-177.87"/>
</g>
<!-- 17122 -->
<g id="node29" class="node">
<title>17122</title>
<path fill="#e78d4c" stroke="black" d="M1372.5,-166.25C1372.5,-166.25 1257.5,-166.25 1257.5,-166.25 1251.5,-166.25 1245.5,-160.25 1245.5,-154.25 1245.5,-154.25 1245.5,-84 1245.5,-84 1245.5,-78 1251.5,-72 1257.5,-72 1257.5,-72 1372.5,-72 1372.5,-72 1378.5,-72 1384.5,-78 1384.5,-84 1384.5,-84 1384.5,-154.25 1384.5,-154.25 1384.5,-160.25 1378.5,-166.25 1372.5,-166.25"/>
<text text-anchor="middle" x="1315" y="-148.95" font-family="Helvetica,sans-Serif" font-size="14.00">24_G &lt;= 0.5</text>
<text text-anchor="middle" x="1315" y="-131.7" font-family="Helvetica,sans-Serif" font-size="14.00">entropy = 0.425</text>
<text text-anchor="middle" x="1315" y="-114.45" font-family="Helvetica,sans-Serif" font-size="14.00">samples = 128</text>
<text text-anchor="middle" x="1315" y="-97.2" font-family="Helvetica,sans-Serif" font-size="14.00">value = [179, 17]</text>
<text text-anchor="middle" x="1315" y="-79.95" font-family="Helvetica,sans-Serif" font-size="14.00">class = Animal</text>
</g>
<!-- 16584&#45;&gt;17122 -->
<g id="edge28" class="edge">
<title>16584&#45;&gt;17122</title>
<path fill="none" stroke="black" d="M1211.49,-202.07C1223.11,-192.87 1235.41,-183.13 1247.32,-173.71"/>
<polygon fill="black" stroke="black" points="1249.47,-176.46 1255.14,-167.51 1245.13,-170.98 1249.47,-176.46"/>
</g>
<!-- 16586 -->
<g id="node27" class="node">
<title>16586</title>
<path fill="#c0c0c0" stroke="black" d="M1123,-36C1123,-36 1093,-36 1093,-36 1087,-36 1081,-30 1081,-24 1081,-24 1081,-12 1081,-12 1081,-6 1087,0 1093,0 1093,0 1123,0 1123,0 1129,0 1135,-6 1135,-12 1135,-12 1135,-24 1135,-24 1135,-30 1129,-36 1123,-36"/>
<text text-anchor="middle" x="1108" y="-13.32" font-family="Helvetica,sans-Serif" font-size="14.00">(...)</text>
</g>
<!-- 16585&#45;&gt;16586 -->
<g id="edge26" class="edge">
<title>16585&#45;&gt;16586</title>
<path fill="none" stroke="black" d="M1131.95,-71.75C1128.03,-63.12 1124.05,-54.36 1120.5,-46.53"/>
<polygon fill="black" stroke="black" points="1123.74,-45.21 1116.42,-37.55 1117.37,-48.1 1123.74,-45.21"/>
</g>
<!-- 16967 -->
<g id="node28" class="node">
<title>16967</title>
<path fill="#c0c0c0" stroke="black" d="M1195,-36C1195,-36 1165,-36 1165,-36 1159,-36 1153,-30 1153,-24 1153,-24 1153,-12 1153,-12 1153,-6 1159,0 1165,0 1165,0 1195,0 1195,0 1201,0 1207,-6 1207,-12 1207,-12 1207,-24 1207,-24 1207,-30 1201,-36 1195,-36"/>
<text text-anchor="middle" x="1180" y="-13.32" font-family="Helvetica,sans-Serif" font-size="14.00">(...)</text>
</g>
<!-- 16585&#45;&gt;16967 -->
<g id="edge27" class="edge">
<title>16585&#45;&gt;16967</title>
<path fill="none" stroke="black" d="M1165.63,-71.75C1167.93,-63.32 1170.26,-54.77 1172.35,-47.07"/>
<polygon fill="black" stroke="black" points="1175.67,-48.2 1174.92,-37.63 1168.92,-46.36 1175.67,-48.2"/>
</g>
<!-- 17123 -->
<g id="node30" class="node">
<title>17123</title>
<path fill="#c0c0c0" stroke="black" d="M1294,-36C1294,-36 1264,-36 1264,-36 1258,-36 1252,-30 1252,-24 1252,-24 1252,-12 1252,-12 1252,-6 1258,0 1264,0 1264,0 1294,0 1294,0 1300,0 1306,-6 1306,-12 1306,-12 1306,-24 1306,-24 1306,-30 1300,-36 1294,-36"/>
<text text-anchor="middle" x="1279" y="-13.32" font-family="Helvetica,sans-Serif" font-size="14.00">(...)</text>
</g>
<!-- 17122&#45;&gt;17123 -->
<g id="edge29" class="edge">
<title>17122&#45;&gt;17123</title>
<path fill="none" stroke="black" d="M1298.16,-71.75C1295.06,-63.22 1291.92,-54.57 1289.1,-46.8"/>
<polygon fill="black" stroke="black" points="1292.46,-45.8 1285.75,-37.6 1285.88,-48.19 1292.46,-45.8"/>
</g>
<!-- 17158 -->
<g id="node31" class="node">
<title>17158</title>
<path fill="#c0c0c0" stroke="black" d="M1366,-36C1366,-36 1336,-36 1336,-36 1330,-36 1324,-30 1324,-24 1324,-24 1324,-12 1324,-12 1324,-6 1330,0 1336,0 1336,0 1366,0 1366,0 1372,0 1378,-6 1378,-12 1378,-12 1378,-24 1378,-24 1378,-30 1372,-36 1366,-36"/>
<text text-anchor="middle" x="1351" y="-13.32" font-family="Helvetica,sans-Serif" font-size="14.00">(...)</text>
</g>
<!-- 17122&#45;&gt;17158 -->
<g id="edge30" class="edge">
<title>17122&#45;&gt;17158</title>
<path fill="none" stroke="black" d="M1331.84,-71.75C1334.94,-63.22 1338.08,-54.57 1340.9,-46.8"/>
<polygon fill="black" stroke="black" points="1344.12,-48.19 1344.25,-37.6 1337.54,-45.8 1344.12,-48.19"/>
</g>
</g>
</svg>
