<?xml version="1.0" encoding="UTF-8" standalone="no"?>
<!DOCTYPE svg PUBLIC "-//W3C//DTD SVG 1.1//EN"
 "http://www.w3.org/Graphics/SVG/1.1/DTD/svg11.dtd">
<!-- Generated by graphviz version 12.0.0 (20240803.0821)
 -->
<!-- Title: Tree Pages: 1 -->
<svg width="1419pt" height="565pt"
 viewBox="0.00 0.00 1419.00 565.00" xmlns="http://www.w3.org/2000/svg" xmlns:xlink="http://www.w3.org/1999/xlink">
<g id="graph0" class="graph" transform="scale(1 1) rotate(0) translate(4 561)">
<title>Tree</title>
<polygon fill="white" stroke="none" points="-4,4 -4,-561 1415,-561 1415,4 -4,4"/>
<!-- 0 -->
<g id="node1" class="node">
<title>0</title>
<path fill="#fdfeff" stroke="black" d="M791,-557C791,-557 631,-557 631,-557 625,-557 619,-551 619,-545 619,-545 619,-474.75 619,-474.75 619,-468.75 625,-462.75 631,-462.75 631,-462.75 791,-462.75 791,-462.75 797,-462.75 803,-468.75 803,-474.75 803,-474.75 803,-545 803,-545 803,-551 797,-557 791,-557"/>
<text text-anchor="middle" x="711" y="-539.7" font-family="Helvetica,sans-Serif" font-size="14.00">8_G &lt;= 0.5</text>
<text text-anchor="middle" x="711" y="-522.45" font-family="Helvetica,sans-Serif" font-size="14.00">entropy = 1.0</text>
<text text-anchor="middle" x="711" y="-505.2" font-family="Helvetica,sans-Serif" font-size="14.00">samples = 38059</text>
<text text-anchor="middle" x="711" y="-487.95" font-family="Helvetica,sans-Serif" font-size="14.00">value = [30010, 30335]</text>
<text text-anchor="middle" x="711" y="-470.7" font-family="Helvetica,sans-Serif" font-size="14.00">class = Plant</text>
</g>
<!-- 1 -->
<g id="node2" class="node">
<title>1</title>
<path fill="#fbe9dd" stroke="black" d="M625,-426.75C625,-426.75 465,-426.75 465,-426.75 459,-426.75 453,-420.75 453,-414.75 453,-414.75 453,-344.5 453,-344.5 453,-338.5 459,-332.5 465,-332.5 465,-332.5 625,-332.5 625,-332.5 631,-332.5 637,-338.5 637,-344.5 637,-344.5 637,-414.75 637,-414.75 637,-420.75 631,-426.75 625,-426.75"/>
<text text-anchor="middle" x="545" y="-409.45" font-family="Helvetica,sans-Serif" font-size="14.00">22_G &lt;= 0.5</text>
<text text-anchor="middle" x="545" y="-392.2" font-family="Helvetica,sans-Serif" font-size="14.00">entropy = 0.994</text>
<text text-anchor="middle" x="545" y="-374.95" font-family="Helvetica,sans-Serif" font-size="14.00">samples = 26229</text>
<text text-anchor="middle" x="545" y="-357.7" font-family="Helvetica,sans-Serif" font-size="14.00">value = [22698, 18784]</text>
<text text-anchor="middle" x="545" y="-340.45" font-family="Helvetica,sans-Serif" font-size="14.00">class = Animal</text>
</g>
<!-- 0&#45;&gt;1 -->
<g id="edge1" class="edge">
<title>0&#45;&gt;1</title>
<path fill="none" stroke="black" d="M651.07,-462.57C639.04,-453.28 626.3,-443.44 613.99,-433.93"/>
<polygon fill="black" stroke="black" points="616.37,-431.34 606.32,-428 612.09,-436.88 616.37,-431.34"/>
<text text-anchor="middle" x="608.3" y="-447.2" font-family="Helvetica,sans-Serif" font-size="14.00">True</text>
</g>
<!-- 12466 -->
<g id="node17" class="node">
<title>12466</title>
<path fill="#b6dbf5" stroke="black" d="M971.5,-426.75C971.5,-426.75 820.5,-426.75 820.5,-426.75 814.5,-426.75 808.5,-420.75 808.5,-414.75 808.5,-414.75 808.5,-344.5 808.5,-344.5 808.5,-338.5 814.5,-332.5 820.5,-332.5 820.5,-332.5 971.5,-332.5 971.5,-332.5 977.5,-332.5 983.5,-338.5 983.5,-344.5 983.5,-344.5 983.5,-414.75 983.5,-414.75 983.5,-420.75 977.5,-426.75 971.5,-426.75"/>
<text text-anchor="middle" x="896" y="-409.45" font-family="Helvetica,sans-Serif" font-size="14.00">4_A &lt;= 0.5</text>
<text text-anchor="middle" x="896" y="-392.2" font-family="Helvetica,sans-Serif" font-size="14.00">entropy = 0.963</text>
<text text-anchor="middle" x="896" y="-374.95" font-family="Helvetica,sans-Serif" font-size="14.00">samples = 11830</text>
<text text-anchor="middle" x="896" y="-357.7" font-family="Helvetica,sans-Serif" font-size="14.00">value = [7312, 11551]</text>
<text text-anchor="middle" x="896" y="-340.45" font-family="Helvetica,sans-Serif" font-size="14.00">class = Plant</text>
</g>
<!-- 0&#45;&gt;12466 -->
<g id="edge16" class="edge">
<title>0&#45;&gt;12466</title>
<path fill="none" stroke="black" d="M778.05,-462.39C791.49,-453.07 805.71,-443.22 819.45,-433.69"/>
<polygon fill="black" stroke="black" points="821.4,-436.6 827.62,-428.03 817.41,-430.85 821.4,-436.6"/>
<text text-anchor="middle" x="824.41" y="-447.09" font-family="Helvetica,sans-Serif" font-size="14.00">False</text>
</g>
<!-- 2 -->
<g id="node3" class="node">
<title>2</title>
<path fill="#fffdfb" stroke="black" d="M365,-296.5C365,-296.5 205,-296.5 205,-296.5 199,-296.5 193,-290.5 193,-284.5 193,-284.5 193,-214.25 193,-214.25 193,-208.25 199,-202.25 205,-202.25 205,-202.25 365,-202.25 365,-202.25 371,-202.25 377,-208.25 377,-214.25 377,-214.25 377,-284.5 377,-284.5 377,-290.5 371,-296.5 365,-296.5"/>
<text text-anchor="middle" x="285" y="-279.2" font-family="Helvetica,sans-Serif" font-size="14.00">20_U &lt;= 0.5</text>
<text text-anchor="middle" x="285" y="-261.95" font-family="Helvetica,sans-Serif" font-size="14.00">entropy = 1.0</text>
<text text-anchor="middle" x="285" y="-244.7" font-family="Helvetica,sans-Serif" font-size="14.00">samples = 22575</text>
<text text-anchor="middle" x="285" y="-227.45" font-family="Helvetica,sans-Serif" font-size="14.00">value = [18009, 17678]</text>
<text text-anchor="middle" x="285" y="-210.2" font-family="Helvetica,sans-Serif" font-size="14.00">class = Animal</text>
</g>
<!-- 1&#45;&gt;2 -->
<g id="edge2" class="edge">
<title>1&#45;&gt;2</title>
<path fill="none" stroke="black" d="M452.6,-333.05C431.43,-322.61 408.81,-311.45 387.25,-300.81"/>
<polygon fill="black" stroke="black" points="388.97,-297.76 378.46,-296.48 385.88,-304.04 388.97,-297.76"/>
</g>
<!-- 11101 -->
<g id="node10" class="node">
<title>11101</title>
<path fill="#eb9f68" stroke="black" d="M616,-296.5C616,-296.5 474,-296.5 474,-296.5 468,-296.5 462,-290.5 462,-284.5 462,-284.5 462,-214.25 462,-214.25 462,-208.25 468,-202.25 474,-202.25 474,-202.25 616,-202.25 616,-202.25 622,-202.25 628,-208.25 628,-214.25 628,-214.25 628,-284.5 628,-284.5 628,-290.5 622,-296.5 616,-296.5"/>
<text text-anchor="middle" x="545" y="-279.2" font-family="Helvetica,sans-Serif" font-size="14.00">4_C &lt;= 0.5</text>
<text text-anchor="middle" x="545" y="-261.95" font-family="Helvetica,sans-Serif" font-size="14.00">entropy = 0.703</text>
<text text-anchor="middle" x="545" y="-244.7" font-family="Helvetica,sans-Serif" font-size="14.00">samples = 3654</text>
<text text-anchor="middle" x="545" y="-227.45" font-family="Helvetica,sans-Serif" font-size="14.00">value = [4689, 1106]</text>
<text text-anchor="middle" x="545" y="-210.2" font-family="Helvetica,sans-Serif" font-size="14.00">class = Animal</text>
</g>
<!-- 1&#45;&gt;11101 -->
<g id="edge9" class="edge">
<title>1&#45;&gt;11101</title>
<path fill="none" stroke="black" d="M545,-332.32C545,-324.42 545,-316.13 545,-307.98"/>
<polygon fill="black" stroke="black" points="548.5,-308.12 545,-298.12 541.5,-308.12 548.5,-308.12"/>
</g>
<!-- 3 -->
<g id="node4" class="node">
<title>3</title>
<path fill="#ecf5fc" stroke="black" d="M172,-166.25C172,-166.25 12,-166.25 12,-166.25 6,-166.25 0,-160.25 0,-154.25 0,-154.25 0,-84 0,-84 0,-78 6,-72 12,-72 12,-72 172,-72 172,-72 178,-72 184,-78 184,-84 184,-84 184,-154.25 184,-154.25 184,-160.25 178,-166.25 172,-166.25"/>
<text text-anchor="middle" x="92" y="-148.95" font-family="Helvetica,sans-Serif" font-size="14.00">22_U &lt;= 0.5</text>
<text text-anchor="middle" x="92" y="-131.7" font-family="Helvetica,sans-Serif" font-size="14.00">entropy = 0.998</text>
<text text-anchor="middle" x="92" y="-114.45" font-family="Helvetica,sans-Serif" font-size="14.00">samples = 16765</text>
<text text-anchor="middle" x="92" y="-97.2" font-family="Helvetica,sans-Serif" font-size="14.00">value = [12566, 13917]</text>
<text text-anchor="middle" x="92" y="-79.95" font-family="Helvetica,sans-Serif" font-size="14.00">class = Plant</text>
</g>
<!-- 2&#45;&gt;3 -->
<g id="edge3" class="edge">
<title>2&#45;&gt;3</title>
<path fill="none" stroke="black" d="M215.05,-201.89C200.89,-192.48 185.9,-182.53 171.45,-172.92"/>
<polygon fill="black" stroke="black" points="173.56,-170.12 163.3,-167.5 169.69,-175.95 173.56,-170.12"/>
</g>
<!-- 8208 -->
<g id="node7" class="node">
<title>8208</title>
<path fill="#f7d8c2" stroke="black" d="M356,-166.25C356,-166.25 214,-166.25 214,-166.25 208,-166.25 202,-160.25 202,-154.25 202,-154.25 202,-84 202,-84 202,-78 208,-72 214,-72 214,-72 356,-72 356,-72 362,-72 368,-78 368,-84 368,-84 368,-154.25 368,-154.25 368,-160.25 362,-166.25 356,-166.25"/>
<text text-anchor="middle" x="285" y="-148.95" font-family="Helvetica,sans-Serif" font-size="14.00">9_U &lt;= 0.5</text>
<text text-anchor="middle" x="285" y="-131.7" font-family="Helvetica,sans-Serif" font-size="14.00">entropy = 0.976</text>
<text text-anchor="middle" x="285" y="-114.45" font-family="Helvetica,sans-Serif" font-size="14.00">samples = 5810</text>
<text text-anchor="middle" x="285" y="-97.2" font-family="Helvetica,sans-Serif" font-size="14.00">value = [5443, 3761]</text>
<text text-anchor="middle" x="285" y="-79.95" font-family="Helvetica,sans-Serif" font-size="14.00">class = Animal</text>
</g>
<!-- 2&#45;&gt;8208 -->
<g id="edge6" class="edge">
<title>2&#45;&gt;8208</title>
<path fill="none" stroke="black" d="M285,-202.07C285,-194.17 285,-185.88 285,-177.73"/>
<polygon fill="black" stroke="black" points="288.5,-177.87 285,-167.87 281.5,-177.87 288.5,-177.87"/>
</g>
<!-- 4 -->
<g id="node5" class="node">
<title>4</title>
<path fill="#c0c0c0" stroke="black" d="M71,-36C71,-36 41,-36 41,-36 35,-36 29,-30 29,-24 29,-24 29,-12 29,-12 29,-6 35,0 41,0 41,0 71,0 71,0 77,0 83,-6 83,-12 83,-12 83,-24 83,-24 83,-30 77,-36 71,-36"/>
<text text-anchor="middle" x="56" y="-13.32" font-family="Helvetica,sans-Serif" font-size="14.00">(...)</text>
</g>
<!-- 3&#45;&gt;4 -->
<g id="edge4" class="edge">
<title>3&#45;&gt;4</title>
<path fill="none" stroke="black" d="M75.16,-71.75C72.06,-63.22 68.92,-54.57 66.1,-46.8"/>
<polygon fill="black" stroke="black" points="69.46,-45.8 62.75,-37.6 62.88,-48.19 69.46,-45.8"/>
</g>
<!-- 7065 -->
<g id="node6" class="node">
<title>7065</title>
<path fill="#c0c0c0" stroke="black" d="M143,-36C143,-36 113,-36 113,-36 107,-36 101,-30 101,-24 101,-24 101,-12 101,-12 101,-6 107,0 113,0 113,0 143,0 143,0 149,0 155,-6 155,-12 155,-12 155,-24 155,-24 155,-30 149,-36 143,-36"/>
<text text-anchor="middle" x="128" y="-13.32" font-family="Helvetica,sans-Serif" font-size="14.00">(...)</text>
</g>
<!-- 3&#45;&gt;7065 -->
<g id="edge5" class="edge">
<title>3&#45;&gt;7065</title>
<path fill="none" stroke="black" d="M108.84,-71.75C111.94,-63.22 115.08,-54.57 117.9,-46.8"/>
<polygon fill="black" stroke="black" points="121.12,-48.19 121.25,-37.6 114.54,-45.8 121.12,-48.19"/>
</g>
<!-- 8209 -->
<g id="node8" class="node">
<title>8209</title>
<path fill="#c0c0c0" stroke="black" d="M259,-36C259,-36 229,-36 229,-36 223,-36 217,-30 217,-24 217,-24 217,-12 217,-12 217,-6 223,0 229,0 229,0 259,0 259,0 265,0 271,-6 271,-12 271,-12 271,-24 271,-24 271,-30 265,-36 259,-36"/>
<text text-anchor="middle" x="244" y="-13.32" font-family="Helvetica,sans-Serif" font-size="14.00">(...)</text>
</g>
<!-- 8208&#45;&gt;8209 -->
<g id="edge7" class="edge">
<title>8208&#45;&gt;8209</title>
<path fill="none" stroke="black" d="M265.82,-71.75C262.29,-63.22 258.71,-54.57 255.5,-46.8"/>
<polygon fill="black" stroke="black" points="258.74,-45.47 251.68,-37.57 252.27,-48.15 258.74,-45.47"/>
</g>
<!-- 10210 -->
<g id="node9" class="node">
<title>10210</title>
<path fill="#c0c0c0" stroke="black" d="M331,-36C331,-36 301,-36 301,-36 295,-36 289,-30 289,-24 289,-24 289,-12 289,-12 289,-6 295,0 301,0 301,0 331,0 331,0 337,0 343,-6 343,-12 343,-12 343,-24 343,-24 343,-30 337,-36 331,-36"/>
<text text-anchor="middle" x="316" y="-13.32" font-family="Helvetica,sans-Serif" font-size="14.00">(...)</text>
</g>
<!-- 8208&#45;&gt;10210 -->
<g id="edge8" class="edge">
<title>8208&#45;&gt;10210</title>
<path fill="none" stroke="black" d="M299.5,-71.75C302.14,-63.32 304.81,-54.77 307.22,-47.07"/>
<polygon fill="black" stroke="black" points="310.53,-48.21 310.18,-37.62 303.85,-46.12 310.53,-48.21"/>
</g>
<!-- 11102 -->
<g id="node11" class="node">
<title>11102</title>
<path fill="#ea9b62" stroke="black" d="M531.5,-166.25C531.5,-166.25 398.5,-166.25 398.5,-166.25 392.5,-166.25 386.5,-160.25 386.5,-154.25 386.5,-154.25 386.5,-84 386.5,-84 386.5,-78 392.5,-72 398.5,-72 398.5,-72 531.5,-72 531.5,-72 537.5,-72 543.5,-78 543.5,-84 543.5,-84 543.5,-154.25 543.5,-154.25 543.5,-160.25 537.5,-166.25 531.5,-166.25"/>
<text text-anchor="middle" x="465" y="-148.95" font-family="Helvetica,sans-Serif" font-size="14.00">24_G &lt;= 0.5</text>
<text text-anchor="middle" x="465" y="-131.7" font-family="Helvetica,sans-Serif" font-size="14.00">entropy = 0.659</text>
<text text-anchor="middle" x="465" y="-114.45" font-family="Helvetica,sans-Serif" font-size="14.00">samples = 2849</text>
<text text-anchor="middle" x="465" y="-97.2" font-family="Helvetica,sans-Serif" font-size="14.00">value = [3756, 773]</text>
<text text-anchor="middle" x="465" y="-79.95" font-family="Helvetica,sans-Serif" font-size="14.00">class = Animal</text>
</g>
<!-- 11101&#45;&gt;11102 -->
<g id="edge10" class="edge">
<title>11101&#45;&gt;11102</title>
<path fill="none" stroke="black" d="M516.12,-202.07C510.85,-193.63 505.3,-184.74 499.88,-176.05"/>
<polygon fill="black" stroke="black" points="502.9,-174.27 494.64,-167.64 496.96,-177.98 502.9,-174.27"/>
</g>
<!-- 12143 -->
<g id="node14" class="node">
<title>12143</title>
<path fill="#eeae80" stroke="black" d="M698,-166.25C698,-166.25 574,-166.25 574,-166.25 568,-166.25 562,-160.25 562,-154.25 562,-154.25 562,-84 562,-84 562,-78 568,-72 574,-72 574,-72 698,-72 698,-72 704,-72 710,-78 710,-84 710,-84 710,-154.25 710,-154.25 710,-160.25 704,-166.25 698,-166.25"/>
<text text-anchor="middle" x="636" y="-148.95" font-family="Helvetica,sans-Serif" font-size="14.00">24_A &lt;= 0.5</text>
<text text-anchor="middle" x="636" y="-131.7" font-family="Helvetica,sans-Serif" font-size="14.00">entropy = 0.831</text>
<text text-anchor="middle" x="636" y="-114.45" font-family="Helvetica,sans-Serif" font-size="14.00">samples = 805</text>
<text text-anchor="middle" x="636" y="-97.2" font-family="Helvetica,sans-Serif" font-size="14.00">value = [933, 333]</text>
<text text-anchor="middle" x="636" y="-79.95" font-family="Helvetica,sans-Serif" font-size="14.00">class = Animal</text>
</g>
<!-- 11101&#45;&gt;12143 -->
<g id="edge13" class="edge">
<title>11101&#45;&gt;12143</title>
<path fill="none" stroke="black" d="M577.85,-202.07C583.97,-193.45 590.43,-184.35 596.72,-175.49"/>
<polygon fill="black" stroke="black" points="599.39,-177.77 602.32,-167.59 593.68,-173.72 599.39,-177.77"/>
</g>
<!-- 11103 -->
<g id="node12" class="node">
<title>11103</title>
<path fill="#c0c0c0" stroke="black" d="M421,-36C421,-36 391,-36 391,-36 385,-36 379,-30 379,-24 379,-24 379,-12 379,-12 379,-6 385,0 391,0 391,0 421,0 421,0 427,0 433,-6 433,-12 433,-12 433,-24 433,-24 433,-30 427,-36 421,-36"/>
<text text-anchor="middle" x="406" y="-13.32" font-family="Helvetica,sans-Serif" font-size="14.00">(...)</text>
</g>
<!-- 11102&#45;&gt;11103 -->
<g id="edge11" class="edge">
<title>11102&#45;&gt;11103</title>
<path fill="none" stroke="black" d="M437.4,-71.75C432.15,-62.93 426.81,-53.96 422.06,-45.99"/>
<polygon fill="black" stroke="black" points="425.12,-44.28 417,-37.47 419.1,-47.86 425.12,-44.28"/>
</g>
<!-- 12080 -->
<g id="node13" class="node">
<title>12080</title>
<path fill="#c0c0c0" stroke="black" d="M493,-36C493,-36 463,-36 463,-36 457,-36 451,-30 451,-24 451,-24 451,-12 451,-12 451,-6 457,0 463,0 463,0 493,0 493,0 499,0 505,-6 505,-12 505,-12 505,-24 505,-24 505,-30 499,-36 493,-36"/>
<text text-anchor="middle" x="478" y="-13.32" font-family="Helvetica,sans-Serif" font-size="14.00">(...)</text>
</g>
<!-- 11102&#45;&gt;12080 -->
<g id="edge12" class="edge">
<title>11102&#45;&gt;12080</title>
<path fill="none" stroke="black" d="M471.08,-71.75C472.17,-63.42 473.28,-54.97 474.28,-47.34"/>
<polygon fill="black" stroke="black" points="477.72,-48.04 475.55,-37.67 470.78,-47.13 477.72,-48.04"/>
</g>
<!-- 12144 -->
<g id="node15" class="node">
<title>12144</title>
<path fill="#c0c0c0" stroke="black" d="M594,-36C594,-36 564,-36 564,-36 558,-36 552,-30 552,-24 552,-24 552,-12 552,-12 552,-6 558,0 564,0 564,0 594,0 594,0 600,0 606,-6 606,-12 606,-12 606,-24 606,-24 606,-30 600,-36 594,-36"/>
<text text-anchor="middle" x="579" y="-13.32" font-family="Helvetica,sans-Serif" font-size="14.00">(...)</text>
</g>
<!-- 12143&#45;&gt;12144 -->
<g id="edge14" class="edge">
<title>12143&#45;&gt;12144</title>
<path fill="none" stroke="black" d="M609.34,-71.75C604.26,-62.93 599.1,-53.96 594.52,-45.99"/>
<polygon fill="black" stroke="black" points="597.65,-44.41 589.63,-37.48 591.58,-47.9 597.65,-44.41"/>
</g>
<!-- 12443 -->
<g id="node16" class="node">
<title>12443</title>
<path fill="#c0c0c0" stroke="black" d="M666,-36C666,-36 636,-36 636,-36 630,-36 624,-30 624,-24 624,-24 624,-12 624,-12 624,-6 630,0 636,0 636,0 666,0 666,0 672,0 678,-6 678,-12 678,-12 678,-24 678,-24 678,-30 672,-36 666,-36"/>
<text text-anchor="middle" x="651" y="-13.32" font-family="Helvetica,sans-Serif" font-size="14.00">(...)</text>
</g>
<!-- 12143&#45;&gt;12443 -->
<g id="edge15" class="edge">
<title>12143&#45;&gt;12443</title>
<path fill="none" stroke="black" d="M643.02,-71.75C644.28,-63.42 645.56,-54.97 646.71,-47.34"/>
<polygon fill="black" stroke="black" points="650.14,-48.08 648.17,-37.67 643.22,-47.03 650.14,-48.08"/>
</g>
<!-- 12467 -->
<g id="node18" class="node">
<title>12467</title>
<path fill="#d1e8f9" stroke="black" d="M967,-296.5C967,-296.5 825,-296.5 825,-296.5 819,-296.5 813,-290.5 813,-284.5 813,-284.5 813,-214.25 813,-214.25 813,-208.25 819,-202.25 825,-202.25 825,-202.25 967,-202.25 967,-202.25 973,-202.25 979,-208.25 979,-214.25 979,-214.25 979,-284.5 979,-284.5 979,-290.5 973,-296.5 967,-296.5"/>
<text text-anchor="middle" x="896" y="-279.2" font-family="Helvetica,sans-Serif" font-size="14.00">19_U &lt;= 0.5</text>
<text text-anchor="middle" x="896" y="-261.95" font-family="Helvetica,sans-Serif" font-size="14.00">entropy = 0.987</text>
<text text-anchor="middle" x="896" y="-244.7" font-family="Helvetica,sans-Serif" font-size="14.00">samples = 8753</text>
<text text-anchor="middle" x="896" y="-227.45" font-family="Helvetica,sans-Serif" font-size="14.00">value = [6037, 7880]</text>
<text text-anchor="middle" x="896" y="-210.2" font-family="Helvetica,sans-Serif" font-size="14.00">class = Plant</text>
</g>
<!-- 12466&#45;&gt;12467 -->
<g id="edge17" class="edge">
<title>12466&#45;&gt;12467</title>
<path fill="none" stroke="black" d="M896,-332.32C896,-324.42 896,-316.13 896,-307.98"/>
<polygon fill="black" stroke="black" points="899.5,-308.12 896,-298.12 892.5,-308.12 899.5,-308.12"/>
</g>
<!-- 15972 -->
<g id="node25" class="node">
<title>15972</title>
<path fill="#7ebfee" stroke="black" d="M1237,-296.5C1237,-296.5 1095,-296.5 1095,-296.5 1089,-296.5 1083,-290.5 1083,-284.5 1083,-284.5 1083,-214.25 1083,-214.25 1083,-208.25 1089,-202.25 1095,-202.25 1095,-202.25 1237,-202.25 1237,-202.25 1243,-202.25 1249,-208.25 1249,-214.25 1249,-214.25 1249,-284.5 1249,-284.5 1249,-290.5 1243,-296.5 1237,-296.5"/>
<text text-anchor="middle" x="1166" y="-279.2" font-family="Helvetica,sans-Serif" font-size="14.00">2_A &lt;= 0.5</text>
<text text-anchor="middle" x="1166" y="-261.95" font-family="Helvetica,sans-Serif" font-size="14.00">entropy = 0.823</text>
<text text-anchor="middle" x="1166" y="-244.7" font-family="Helvetica,sans-Serif" font-size="14.00">samples = 3077</text>
<text text-anchor="middle" x="1166" y="-227.45" font-family="Helvetica,sans-Serif" font-size="14.00">value = [1275, 3671]</text>
<text text-anchor="middle" x="1166" y="-210.2" font-family="Helvetica,sans-Serif" font-size="14.00">class = Plant</text>
</g>
<!-- 12466&#45;&gt;15972 -->
<g id="edge24" class="edge">
<title>12466&#45;&gt;15972</title>
<path fill="none" stroke="black" d="M983.66,-336.99C1012.17,-323.44 1043.91,-308.37 1072.81,-294.64"/>
<polygon fill="black" stroke="black" points="1074.01,-297.95 1081.54,-290.49 1071.01,-291.62 1074.01,-297.95"/>
</g>
<!-- 12468 -->
<g id="node19" class="node">
<title>12468</title>
<path fill="#b3d9f5" stroke="black" d="M882,-166.25C882,-166.25 740,-166.25 740,-166.25 734,-166.25 728,-160.25 728,-154.25 728,-154.25 728,-84 728,-84 728,-78 734,-72 740,-72 740,-72 882,-72 882,-72 888,-72 894,-78 894,-84 894,-84 894,-154.25 894,-154.25 894,-160.25 888,-166.25 882,-166.25"/>
<text text-anchor="middle" x="811" y="-148.95" font-family="Helvetica,sans-Serif" font-size="14.00">22_U &lt;= 0.5</text>
<text text-anchor="middle" x="811" y="-131.7" font-family="Helvetica,sans-Serif" font-size="14.00">entropy = 0.959</text>
<text text-anchor="middle" x="811" y="-114.45" font-family="Helvetica,sans-Serif" font-size="14.00">samples = 7032</text>
<text text-anchor="middle" x="811" y="-97.2" font-family="Helvetica,sans-Serif" font-size="14.00">value = [4249, 6902]</text>
<text text-anchor="middle" x="811" y="-79.95" font-family="Helvetica,sans-Serif" font-size="14.00">class = Plant</text>
</g>
<!-- 12467&#45;&gt;12468 -->
<g id="edge18" class="edge">
<title>12467&#45;&gt;12468</title>
<path fill="none" stroke="black" d="M865.31,-202.07C859.66,-193.54 853.7,-184.54 847.88,-175.77"/>
<polygon fill="black" stroke="black" points="850.92,-174.02 842.48,-167.62 845.09,-177.89 850.92,-174.02"/>
</g>
<!-- 15079 -->
<g id="node22" class="node">
<title>15079</title>
<path fill="#f3c6a5" stroke="black" d="M1057.5,-166.25C1057.5,-166.25 924.5,-166.25 924.5,-166.25 918.5,-166.25 912.5,-160.25 912.5,-154.25 912.5,-154.25 912.5,-84 912.5,-84 912.5,-78 918.5,-72 924.5,-72 924.5,-72 1057.5,-72 1057.5,-72 1063.5,-72 1069.5,-78 1069.5,-84 1069.5,-84 1069.5,-154.25 1069.5,-154.25 1069.5,-160.25 1063.5,-166.25 1057.5,-166.25"/>
<text text-anchor="middle" x="991" y="-148.95" font-family="Helvetica,sans-Serif" font-size="14.00">5_U &lt;= 0.5</text>
<text text-anchor="middle" x="991" y="-131.7" font-family="Helvetica,sans-Serif" font-size="14.00">entropy = 0.937</text>
<text text-anchor="middle" x="991" y="-114.45" font-family="Helvetica,sans-Serif" font-size="14.00">samples = 1721</text>
<text text-anchor="middle" x="991" y="-97.2" font-family="Helvetica,sans-Serif" font-size="14.00">value = [1788, 978]</text>
<text text-anchor="middle" x="991" y="-79.95" font-family="Helvetica,sans-Serif" font-size="14.00">class = Animal</text>
</g>
<!-- 12467&#45;&gt;15079 -->
<g id="edge21" class="edge">
<title>12467&#45;&gt;15079</title>
<path fill="none" stroke="black" d="M930.3,-202.07C936.69,-193.45 943.42,-184.35 949.99,-175.49"/>
<polygon fill="black" stroke="black" points="952.71,-177.69 955.85,-167.57 947.09,-173.53 952.71,-177.69"/>
</g>
<!-- 12469 -->
<g id="node20" class="node">
<title>12469</title>
<path fill="#c0c0c0" stroke="black" d="M772,-36C772,-36 742,-36 742,-36 736,-36 730,-30 730,-24 730,-24 730,-12 730,-12 730,-6 736,0 742,0 742,0 772,0 772,0 778,0 784,-6 784,-12 784,-12 784,-24 784,-24 784,-30 778,-36 772,-36"/>
<text text-anchor="middle" x="757" y="-13.32" font-family="Helvetica,sans-Serif" font-size="14.00">(...)</text>
</g>
<!-- 12468&#45;&gt;12469 -->
<g id="edge19" class="edge">
<title>12468&#45;&gt;12469</title>
<path fill="none" stroke="black" d="M785.74,-71.75C780.98,-63.03 776.16,-54.16 771.85,-46.26"/>
<polygon fill="black" stroke="black" points="774.94,-44.61 767.08,-37.5 768.79,-47.96 774.94,-44.61"/>
</g>
<!-- 14800 -->
<g id="node21" class="node">
<title>14800</title>
<path fill="#c0c0c0" stroke="black" d="M844,-36C844,-36 814,-36 814,-36 808,-36 802,-30 802,-24 802,-24 802,-12 802,-12 802,-6 808,0 814,0 814,0 844,0 844,0 850,0 856,-6 856,-12 856,-12 856,-24 856,-24 856,-30 850,-36 844,-36"/>
<text text-anchor="middle" x="829" y="-13.32" font-family="Helvetica,sans-Serif" font-size="14.00">(...)</text>
</g>
<!-- 12468&#45;&gt;14800 -->
<g id="edge20" class="edge">
<title>12468&#45;&gt;14800</title>
<path fill="none" stroke="black" d="M819.42,-71.75C820.93,-63.42 822.47,-54.97 823.85,-47.34"/>
<polygon fill="black" stroke="black" points="827.27,-48.13 825.61,-37.66 820.38,-46.88 827.27,-48.13"/>
</g>
<!-- 15080 -->
<g id="node23" class="node">
<title>15080</title>
<path fill="#c0c0c0" stroke="black" d="M949,-36C949,-36 919,-36 919,-36 913,-36 907,-30 907,-24 907,-24 907,-12 907,-12 907,-6 913,0 919,0 919,0 949,0 949,0 955,0 961,-6 961,-12 961,-12 961,-24 961,-24 961,-30 955,-36 949,-36"/>
<text text-anchor="middle" x="934" y="-13.32" font-family="Helvetica,sans-Serif" font-size="14.00">(...)</text>
</g>
<!-- 15079&#45;&gt;15080 -->
<g id="edge22" class="edge">
<title>15079&#45;&gt;15080</title>
<path fill="none" stroke="black" d="M964.34,-71.75C959.26,-62.93 954.1,-53.96 949.52,-45.99"/>
<polygon fill="black" stroke="black" points="952.65,-44.41 944.63,-37.48 946.58,-47.9 952.65,-44.41"/>
</g>
<!-- 15715 -->
<g id="node24" class="node">
<title>15715</title>
<path fill="#c0c0c0" stroke="black" d="M1021,-36C1021,-36 991,-36 991,-36 985,-36 979,-30 979,-24 979,-24 979,-12 979,-12 979,-6 985,0 991,0 991,0 1021,0 1021,0 1027,0 1033,-6 1033,-12 1033,-12 1033,-24 1033,-24 1033,-30 1027,-36 1021,-36"/>
<text text-anchor="middle" x="1006" y="-13.32" font-family="Helvetica,sans-Serif" font-size="14.00">(...)</text>
</g>
<!-- 15079&#45;&gt;15715 -->
<g id="edge23" class="edge">
<title>15079&#45;&gt;15715</title>
<path fill="none" stroke="black" d="M998.02,-71.75C999.28,-63.42 1000.56,-54.97 1001.71,-47.34"/>
<polygon fill="black" stroke="black" points="1005.14,-48.08 1003.17,-37.67 998.22,-47.03 1005.14,-48.08"/>
</g>
<!-- 15973 -->
<g id="node26" class="node">
<title>15973</title>
<path fill="#6db7ec" stroke="black" d="M1232.5,-166.25C1232.5,-166.25 1099.5,-166.25 1099.5,-166.25 1093.5,-166.25 1087.5,-160.25 1087.5,-154.25 1087.5,-154.25 1087.5,-84 1087.5,-84 1087.5,-78 1093.5,-72 1099.5,-72 1099.5,-72 1232.5,-72 1232.5,-72 1238.5,-72 1244.5,-78 1244.5,-84 1244.5,-84 1244.5,-154.25 1244.5,-154.25 1244.5,-160.25 1238.5,-166.25 1232.5,-166.25"/>
<text text-anchor="middle" x="1166" y="-148.95" font-family="Helvetica,sans-Serif" font-size="14.00">22_A &lt;= 0.5</text>
<text text-anchor="middle" x="1166" y="-131.7" font-family="Helvetica,sans-Serif" font-size="14.00">entropy = 0.737</text>
<text text-anchor="middle" x="1166" y="-114.45" font-family="Helvetica,sans-Serif" font-size="14.00">samples = 2682</text>
<text text-anchor="middle" x="1166" y="-97.2" font-family="Helvetica,sans-Serif" font-size="14.00">value = [901, 3433]</text>
<text text-anchor="middle" x="1166" y="-79.95" font-family="Helvetica,sans-Serif" font-size="14.00">class = Plant</text>
</g>
<!-- 15972&#45;&gt;15973 -->
<g id="edge25" class="edge">
<title>15972&#45;&gt;15973</title>
<path fill="none" stroke="black" d="M1166,-202.07C1166,-194.17 1166,-185.88 1166,-177.73"/>
<polygon fill="black" stroke="black" points="1169.5,-177.87 1166,-167.87 1162.5,-177.87 1169.5,-177.87"/>
</g>
<!-- 16764 -->
<g id="node29" class="node">
<title>16764</title>
<path fill="#f6d1b7" stroke="black" d="M1399,-166.25C1399,-166.25 1275,-166.25 1275,-166.25 1269,-166.25 1263,-160.25 1263,-154.25 1263,-154.25 1263,-84 1263,-84 1263,-78 1269,-72 1275,-72 1275,-72 1399,-72 1399,-72 1405,-72 1411,-78 1411,-84 1411,-84 1411,-154.25 1411,-154.25 1411,-160.25 1405,-166.25 1399,-166.25"/>
<text text-anchor="middle" x="1337" y="-148.95" font-family="Helvetica,sans-Serif" font-size="14.00">18_A &lt;= 0.5</text>
<text text-anchor="middle" x="1337" y="-131.7" font-family="Helvetica,sans-Serif" font-size="14.00">entropy = 0.964</text>
<text text-anchor="middle" x="1337" y="-114.45" font-family="Helvetica,sans-Serif" font-size="14.00">samples = 395</text>
<text text-anchor="middle" x="1337" y="-97.2" font-family="Helvetica,sans-Serif" font-size="14.00">value = [374, 238]</text>
<text text-anchor="middle" x="1337" y="-79.95" font-family="Helvetica,sans-Serif" font-size="14.00">class = Animal</text>
</g>
<!-- 15972&#45;&gt;16764 -->
<g id="edge28" class="edge">
<title>15972&#45;&gt;16764</title>
<path fill="none" stroke="black" d="M1227.73,-202.07C1240.13,-192.78 1253.25,-182.94 1265.93,-173.43"/>
<polygon fill="black" stroke="black" points="1267.96,-176.28 1273.86,-167.48 1263.76,-170.68 1267.96,-176.28"/>
</g>
<!-- 15974 -->
<g id="node27" class="node">
<title>15974</title>
<path fill="#c0c0c0" stroke="black" d="M1140,-36C1140,-36 1110,-36 1110,-36 1104,-36 1098,-30 1098,-24 1098,-24 1098,-12 1098,-12 1098,-6 1104,0 1110,0 1110,0 1140,0 1140,0 1146,0 1152,-6 1152,-12 1152,-12 1152,-24 1152,-24 1152,-30 1146,-36 1140,-36"/>
<text text-anchor="middle" x="1125" y="-13.32" font-family="Helvetica,sans-Serif" font-size="14.00">(...)</text>
</g>
<!-- 15973&#45;&gt;15974 -->
<g id="edge26" class="edge">
<title>15973&#45;&gt;15974</title>
<path fill="none" stroke="black" d="M1146.82,-71.75C1143.29,-63.22 1139.71,-54.57 1136.5,-46.8"/>
<polygon fill="black" stroke="black" points="1139.74,-45.47 1132.68,-37.57 1133.27,-48.15 1139.74,-45.47"/>
</g>
<!-- 16679 -->
<g id="node28" class="node">
<title>16679</title>
<path fill="#c0c0c0" stroke="black" d="M1212,-36C1212,-36 1182,-36 1182,-36 1176,-36 1170,-30 1170,-24 1170,-24 1170,-12 1170,-12 1170,-6 1176,0 1182,0 1182,0 1212,0 1212,0 1218,0 1224,-6 1224,-12 1224,-12 1224,-24 1224,-24 1224,-30 1218,-36 1212,-36"/>
<text text-anchor="middle" x="1197" y="-13.32" font-family="Helvetica,sans-Serif" font-size="14.00">(...)</text>
</g>
<!-- 15973&#45;&gt;16679 -->
<g id="edge27" class="edge">
<title>15973&#45;&gt;16679</title>
<path fill="none" stroke="black" d="M1180.5,-71.75C1183.14,-63.32 1185.81,-54.77 1188.22,-47.07"/>
<polygon fill="black" stroke="black" points="1191.53,-48.21 1191.18,-37.62 1184.85,-46.12 1191.53,-48.21"/>
</g>
<!-- 16765 -->
<g id="node30" class="node">
<title>16765</title>
<path fill="#c0c0c0" stroke="black" d="M1316,-36C1316,-36 1286,-36 1286,-36 1280,-36 1274,-30 1274,-24 1274,-24 1274,-12 1274,-12 1274,-6 1280,0 1286,0 1286,0 1316,0 1316,0 1322,0 1328,-6 1328,-12 1328,-12 1328,-24 1328,-24 1328,-30 1322,-36 1316,-36"/>
<text text-anchor="middle" x="1301" y="-13.32" font-family="Helvetica,sans-Serif" font-size="14.00">(...)</text>
</g>
<!-- 16764&#45;&gt;16765 -->
<g id="edge29" class="edge">
<title>16764&#45;&gt;16765</title>
<path fill="none" stroke="black" d="M1320.16,-71.75C1317.06,-63.22 1313.92,-54.57 1311.1,-46.8"/>
<polygon fill="black" stroke="black" points="1314.46,-45.8 1307.75,-37.6 1307.88,-48.19 1314.46,-45.8"/>
</g>
<!-- 16946 -->
<g id="node31" class="node">
<title>16946</title>
<path fill="#c0c0c0" stroke="black" d="M1388,-36C1388,-36 1358,-36 1358,-36 1352,-36 1346,-30 1346,-24 1346,-24 1346,-12 1346,-12 1346,-6 1352,0 1358,0 1358,0 1388,0 1388,0 1394,0 1400,-6 1400,-12 1400,-12 1400,-24 1400,-24 1400,-30 1394,-36 1388,-36"/>
<text text-anchor="middle" x="1373" y="-13.32" font-family="Helvetica,sans-Serif" font-size="14.00">(...)</text>
</g>
<!-- 16764&#45;&gt;16946 -->
<g id="edge30" class="edge">
<title>16764&#45;&gt;16946</title>
<path fill="none" stroke="black" d="M1353.84,-71.75C1356.94,-63.22 1360.08,-54.57 1362.9,-46.8"/>
<polygon fill="black" stroke="black" points="1366.12,-48.19 1366.25,-37.6 1359.54,-45.8 1366.12,-48.19"/>
</g>
</g>
</svg>
