<?xml version="1.0" encoding="UTF-8" standalone="no"?>
<!DOCTYPE svg PUBLIC "-//W3C//DTD SVG 1.1//EN"
 "http://www.w3.org/Graphics/SVG/1.1/DTD/svg11.dtd">
<!-- Generated by graphviz version 12.0.0 (20240803.0821)
 -->
<!-- Title: Tree Pages: 1 -->
<svg width="1429pt" height="565pt"
 viewBox="0.00 0.00 1428.50 565.00" xmlns="http://www.w3.org/2000/svg" xmlns:xlink="http://www.w3.org/1999/xlink">
<g id="graph0" class="graph" transform="scale(1 1) rotate(0) translate(4 561)">
<title>Tree</title>
<polygon fill="white" stroke="none" points="-4,4 -4,-561 1424.5,-561 1424.5,4 -4,4"/>
<!-- 0 -->
<g id="node1" class="node">
<title>0</title>
<path fill="#fffefe" stroke="black" d="M821.5,-557C821.5,-557 661.5,-557 661.5,-557 655.5,-557 649.5,-551 649.5,-545 649.5,-545 649.5,-474.75 649.5,-474.75 649.5,-468.75 655.5,-462.75 661.5,-462.75 661.5,-462.75 821.5,-462.75 821.5,-462.75 827.5,-462.75 833.5,-468.75 833.5,-474.75 833.5,-474.75 833.5,-545 833.5,-545 833.5,-551 827.5,-557 821.5,-557"/>
<text text-anchor="middle" x="741.5" y="-539.7" font-family="Helvetica,sans-Serif" font-size="14.00">22_G &lt;= 0.5</text>
<text text-anchor="middle" x="741.5" y="-522.45" font-family="Helvetica,sans-Serif" font-size="14.00">entropy = 1.0</text>
<text text-anchor="middle" x="741.5" y="-505.2" font-family="Helvetica,sans-Serif" font-size="14.00">samples = 38052</text>
<text text-anchor="middle" x="741.5" y="-487.95" font-family="Helvetica,sans-Serif" font-size="14.00">value = [30237, 30108]</text>
<text text-anchor="middle" x="741.5" y="-470.7" font-family="Helvetica,sans-Serif" font-size="14.00">class = Animal</text>
</g>
<!-- 1 -->
<g id="node2" class="node">
<title>1</title>
<path fill="#e1f0fb" stroke="black" d="M641.5,-426.75C641.5,-426.75 481.5,-426.75 481.5,-426.75 475.5,-426.75 469.5,-420.75 469.5,-414.75 469.5,-414.75 469.5,-344.5 469.5,-344.5 469.5,-338.5 475.5,-332.5 481.5,-332.5 481.5,-332.5 641.5,-332.5 641.5,-332.5 647.5,-332.5 653.5,-338.5 653.5,-344.5 653.5,-344.5 653.5,-414.75 653.5,-414.75 653.5,-420.75 647.5,-426.75 641.5,-426.75"/>
<text text-anchor="middle" x="561.5" y="-409.45" font-family="Helvetica,sans-Serif" font-size="14.00">1_U &lt;= 0.5</text>
<text text-anchor="middle" x="561.5" y="-392.2" font-family="Helvetica,sans-Serif" font-size="14.00">entropy = 0.995</text>
<text text-anchor="middle" x="561.5" y="-374.95" font-family="Helvetica,sans-Serif" font-size="14.00">samples = 33111</text>
<text text-anchor="middle" x="561.5" y="-357.7" font-family="Helvetica,sans-Serif" font-size="14.00">value = [24091, 28435]</text>
<text text-anchor="middle" x="561.5" y="-340.45" font-family="Helvetica,sans-Serif" font-size="14.00">class = Plant</text>
</g>
<!-- 0&#45;&gt;1 -->
<g id="edge1" class="edge">
<title>0&#45;&gt;1</title>
<path fill="none" stroke="black" d="M676.26,-462.39C663.18,-453.07 649.35,-443.22 635.98,-433.69"/>
<polygon fill="black" stroke="black" points="638.23,-430.99 628.05,-428.04 634.16,-436.7 638.23,-430.99"/>
<text text-anchor="middle" x="630.96" y="-447.14" font-family="Helvetica,sans-Serif" font-size="14.00">True</text>
</g>
<!-- 15052 -->
<g id="node17" class="node">
<title>15052</title>
<path fill="#eca36f" stroke="black" d="M996.5,-426.75C996.5,-426.75 854.5,-426.75 854.5,-426.75 848.5,-426.75 842.5,-420.75 842.5,-414.75 842.5,-414.75 842.5,-344.5 842.5,-344.5 842.5,-338.5 848.5,-332.5 854.5,-332.5 854.5,-332.5 996.5,-332.5 996.5,-332.5 1002.5,-332.5 1008.5,-338.5 1008.5,-344.5 1008.5,-344.5 1008.5,-414.75 1008.5,-414.75 1008.5,-420.75 1002.5,-426.75 996.5,-426.75"/>
<text text-anchor="middle" x="925.5" y="-409.45" font-family="Helvetica,sans-Serif" font-size="14.00">1_A &lt;= 0.5</text>
<text text-anchor="middle" x="925.5" y="-392.2" font-family="Helvetica,sans-Serif" font-size="14.00">entropy = 0.749</text>
<text text-anchor="middle" x="925.5" y="-374.95" font-family="Helvetica,sans-Serif" font-size="14.00">samples = 4941</text>
<text text-anchor="middle" x="925.5" y="-357.7" font-family="Helvetica,sans-Serif" font-size="14.00">value = [6146, 1673]</text>
<text text-anchor="middle" x="925.5" y="-340.45" font-family="Helvetica,sans-Serif" font-size="14.00">class = Animal</text>
</g>
<!-- 0&#45;&gt;15052 -->
<g id="edge16" class="edge">
<title>0&#45;&gt;15052</title>
<path fill="none" stroke="black" d="M808.19,-462.39C821.56,-453.07 835.7,-443.22 849.36,-433.69"/>
<polygon fill="black" stroke="black" points="851.29,-436.62 857.49,-428.03 847.28,-430.88 851.29,-436.62"/>
<text text-anchor="middle" x="854.34" y="-447.1" font-family="Helvetica,sans-Serif" font-size="14.00">False</text>
</g>
<!-- 2 -->
<g id="node3" class="node">
<title>2</title>
<path fill="#fae7d9" stroke="black" d="M356.5,-296.5C356.5,-296.5 196.5,-296.5 196.5,-296.5 190.5,-296.5 184.5,-290.5 184.5,-284.5 184.5,-284.5 184.5,-214.25 184.5,-214.25 184.5,-208.25 190.5,-202.25 196.5,-202.25 196.5,-202.25 356.5,-202.25 356.5,-202.25 362.5,-202.25 368.5,-208.25 368.5,-214.25 368.5,-214.25 368.5,-284.5 368.5,-284.5 368.5,-290.5 362.5,-296.5 356.5,-296.5"/>
<text text-anchor="middle" x="276.5" y="-279.2" font-family="Helvetica,sans-Serif" font-size="14.00">10_A &lt;= 0.5</text>
<text text-anchor="middle" x="276.5" y="-261.95" font-family="Helvetica,sans-Serif" font-size="14.00">entropy = 0.992</text>
<text text-anchor="middle" x="276.5" y="-244.7" font-family="Helvetica,sans-Serif" font-size="14.00">samples = 15259</text>
<text text-anchor="middle" x="276.5" y="-227.45" font-family="Helvetica,sans-Serif" font-size="14.00">value = [13356, 10793]</text>
<text text-anchor="middle" x="276.5" y="-210.2" font-family="Helvetica,sans-Serif" font-size="14.00">class = Animal</text>
</g>
<!-- 1&#45;&gt;2 -->
<g id="edge2" class="edge">
<title>1&#45;&gt;2</title>
<path fill="none" stroke="black" d="M469.36,-337.16C440.56,-324.2 408.6,-309.82 379.12,-296.56"/>
<polygon fill="black" stroke="black" points="380.74,-293.45 370.19,-292.53 377.87,-299.83 380.74,-293.45"/>
</g>
<!-- 8317 -->
<g id="node10" class="node">
<title>8317</title>
<path fill="#b1d9f5" stroke="black" d="M641.5,-296.5C641.5,-296.5 481.5,-296.5 481.5,-296.5 475.5,-296.5 469.5,-290.5 469.5,-284.5 469.5,-284.5 469.5,-214.25 469.5,-214.25 469.5,-208.25 475.5,-202.25 481.5,-202.25 481.5,-202.25 641.5,-202.25 641.5,-202.25 647.5,-202.25 653.5,-208.25 653.5,-214.25 653.5,-214.25 653.5,-284.5 653.5,-284.5 653.5,-290.5 647.5,-296.5 641.5,-296.5"/>
<text text-anchor="middle" x="561.5" y="-279.2" font-family="Helvetica,sans-Serif" font-size="14.00">20_G &lt;= 0.5</text>
<text text-anchor="middle" x="561.5" y="-261.95" font-family="Helvetica,sans-Serif" font-size="14.00">entropy = 0.957</text>
<text text-anchor="middle" x="561.5" y="-244.7" font-family="Helvetica,sans-Serif" font-size="14.00">samples = 17852</text>
<text text-anchor="middle" x="561.5" y="-227.45" font-family="Helvetica,sans-Serif" font-size="14.00">value = [10735, 17642]</text>
<text text-anchor="middle" x="561.5" y="-210.2" font-family="Helvetica,sans-Serif" font-size="14.00">class = Plant</text>
</g>
<!-- 1&#45;&gt;8317 -->
<g id="edge9" class="edge">
<title>1&#45;&gt;8317</title>
<path fill="none" stroke="black" d="M561.5,-332.32C561.5,-324.42 561.5,-316.13 561.5,-307.98"/>
<polygon fill="black" stroke="black" points="565,-308.12 561.5,-298.12 558,-308.12 565,-308.12"/>
</g>
<!-- 3 -->
<g id="node4" class="node">
<title>3</title>
<path fill="#f6d5be" stroke="black" d="M163,-166.25C163,-166.25 12,-166.25 12,-166.25 6,-166.25 0,-160.25 0,-154.25 0,-154.25 0,-84 0,-84 0,-78 6,-72 12,-72 12,-72 163,-72 163,-72 169,-72 175,-78 175,-84 175,-84 175,-154.25 175,-154.25 175,-160.25 169,-166.25 163,-166.25"/>
<text text-anchor="middle" x="87.5" y="-148.95" font-family="Helvetica,sans-Serif" font-size="14.00">6_U &lt;= 0.5</text>
<text text-anchor="middle" x="87.5" y="-131.7" font-family="Helvetica,sans-Serif" font-size="14.00">entropy = 0.972</text>
<text text-anchor="middle" x="87.5" y="-114.45" font-family="Helvetica,sans-Serif" font-size="14.00">samples = 11273</text>
<text text-anchor="middle" x="87.5" y="-97.2" font-family="Helvetica,sans-Serif" font-size="14.00">value = [10677, 7155]</text>
<text text-anchor="middle" x="87.5" y="-79.95" font-family="Helvetica,sans-Serif" font-size="14.00">class = Animal</text>
</g>
<!-- 2&#45;&gt;3 -->
<g id="edge3" class="edge">
<title>2&#45;&gt;3</title>
<path fill="none" stroke="black" d="M208,-201.89C194.13,-192.48 179.46,-182.53 165.3,-172.92"/>
<polygon fill="black" stroke="black" points="167.58,-170.23 157.34,-167.51 163.65,-176.03 167.58,-170.23"/>
</g>
<!-- 6364 -->
<g id="node7" class="node">
<title>6364</title>
<path fill="#cbe5f8" stroke="black" d="M347.5,-166.25C347.5,-166.25 205.5,-166.25 205.5,-166.25 199.5,-166.25 193.5,-160.25 193.5,-154.25 193.5,-154.25 193.5,-84 193.5,-84 193.5,-78 199.5,-72 205.5,-72 205.5,-72 347.5,-72 347.5,-72 353.5,-72 359.5,-78 359.5,-84 359.5,-84 359.5,-154.25 359.5,-154.25 359.5,-160.25 353.5,-166.25 347.5,-166.25"/>
<text text-anchor="middle" x="276.5" y="-148.95" font-family="Helvetica,sans-Serif" font-size="14.00">22_U &lt;= 0.5</text>
<text text-anchor="middle" x="276.5" y="-131.7" font-family="Helvetica,sans-Serif" font-size="14.00">entropy = 0.983</text>
<text text-anchor="middle" x="276.5" y="-114.45" font-family="Helvetica,sans-Serif" font-size="14.00">samples = 3986</text>
<text text-anchor="middle" x="276.5" y="-97.2" font-family="Helvetica,sans-Serif" font-size="14.00">value = [2679, 3638]</text>
<text text-anchor="middle" x="276.5" y="-79.95" font-family="Helvetica,sans-Serif" font-size="14.00">class = Plant</text>
</g>
<!-- 2&#45;&gt;6364 -->
<g id="edge6" class="edge">
<title>2&#45;&gt;6364</title>
<path fill="none" stroke="black" d="M276.5,-202.07C276.5,-194.17 276.5,-185.88 276.5,-177.73"/>
<polygon fill="black" stroke="black" points="280,-177.87 276.5,-167.87 273,-177.87 280,-177.87"/>
</g>
<!-- 4 -->
<g id="node5" class="node">
<title>4</title>
<path fill="#c0c0c0" stroke="black" d="M66.5,-36C66.5,-36 36.5,-36 36.5,-36 30.5,-36 24.5,-30 24.5,-24 24.5,-24 24.5,-12 24.5,-12 24.5,-6 30.5,0 36.5,0 36.5,0 66.5,0 66.5,0 72.5,0 78.5,-6 78.5,-12 78.5,-12 78.5,-24 78.5,-24 78.5,-30 72.5,-36 66.5,-36"/>
<text text-anchor="middle" x="51.5" y="-13.32" font-family="Helvetica,sans-Serif" font-size="14.00">(...)</text>
</g>
<!-- 3&#45;&gt;4 -->
<g id="edge4" class="edge">
<title>3&#45;&gt;4</title>
<path fill="none" stroke="black" d="M70.66,-71.75C67.56,-63.22 64.42,-54.57 61.6,-46.8"/>
<polygon fill="black" stroke="black" points="64.96,-45.8 58.25,-37.6 58.38,-48.19 64.96,-45.8"/>
</g>
<!-- 4663 -->
<g id="node6" class="node">
<title>4663</title>
<path fill="#c0c0c0" stroke="black" d="M138.5,-36C138.5,-36 108.5,-36 108.5,-36 102.5,-36 96.5,-30 96.5,-24 96.5,-24 96.5,-12 96.5,-12 96.5,-6 102.5,0 108.5,0 108.5,0 138.5,0 138.5,0 144.5,0 150.5,-6 150.5,-12 150.5,-12 150.5,-24 150.5,-24 150.5,-30 144.5,-36 138.5,-36"/>
<text text-anchor="middle" x="123.5" y="-13.32" font-family="Helvetica,sans-Serif" font-size="14.00">(...)</text>
</g>
<!-- 3&#45;&gt;4663 -->
<g id="edge5" class="edge">
<title>3&#45;&gt;4663</title>
<path fill="none" stroke="black" d="M104.34,-71.75C107.44,-63.22 110.58,-54.57 113.4,-46.8"/>
<polygon fill="black" stroke="black" points="116.62,-48.19 116.75,-37.6 110.04,-45.8 116.62,-48.19"/>
</g>
<!-- 6365 -->
<g id="node8" class="node">
<title>6365</title>
<path fill="#c0c0c0" stroke="black" d="M264.5,-36C264.5,-36 234.5,-36 234.5,-36 228.5,-36 222.5,-30 222.5,-24 222.5,-24 222.5,-12 222.5,-12 222.5,-6 228.5,0 234.5,0 234.5,0 264.5,0 264.5,0 270.5,0 276.5,-6 276.5,-12 276.5,-12 276.5,-24 276.5,-24 276.5,-30 270.5,-36 264.5,-36"/>
<text text-anchor="middle" x="249.5" y="-13.32" font-family="Helvetica,sans-Serif" font-size="14.00">(...)</text>
</g>
<!-- 6364&#45;&gt;6365 -->
<g id="edge7" class="edge">
<title>6364&#45;&gt;6365</title>
<path fill="none" stroke="black" d="M263.87,-71.75C261.57,-63.32 259.24,-54.77 257.15,-47.07"/>
<polygon fill="black" stroke="black" points="260.58,-46.36 254.58,-37.63 253.83,-48.2 260.58,-46.36"/>
</g>
<!-- 8068 -->
<g id="node9" class="node">
<title>8068</title>
<path fill="#c0c0c0" stroke="black" d="M336.5,-36C336.5,-36 306.5,-36 306.5,-36 300.5,-36 294.5,-30 294.5,-24 294.5,-24 294.5,-12 294.5,-12 294.5,-6 300.5,0 306.5,0 306.5,0 336.5,0 336.5,0 342.5,0 348.5,-6 348.5,-12 348.5,-12 348.5,-24 348.5,-24 348.5,-30 342.5,-36 336.5,-36"/>
<text text-anchor="middle" x="321.5" y="-13.32" font-family="Helvetica,sans-Serif" font-size="14.00">(...)</text>
</g>
<!-- 6364&#45;&gt;8068 -->
<g id="edge8" class="edge">
<title>6364&#45;&gt;8068</title>
<path fill="none" stroke="black" d="M297.55,-71.75C301.47,-63.12 305.45,-54.36 309,-46.53"/>
<polygon fill="black" stroke="black" points="312.13,-48.1 313.08,-37.55 305.76,-45.21 312.13,-48.1"/>
</g>
<!-- 8318 -->
<g id="node11" class="node">
<title>8318</title>
<path fill="#9acdf2" stroke="black" d="M541,-166.25C541,-166.25 390,-166.25 390,-166.25 384,-166.25 378,-160.25 378,-154.25 378,-154.25 378,-84 378,-84 378,-78 384,-72 390,-72 390,-72 541,-72 541,-72 547,-72 553,-78 553,-84 553,-84 553,-154.25 553,-154.25 553,-160.25 547,-166.25 541,-166.25"/>
<text text-anchor="middle" x="465.5" y="-148.95" font-family="Helvetica,sans-Serif" font-size="14.00">9_G &lt;= 0.5</text>
<text text-anchor="middle" x="465.5" y="-131.7" font-family="Helvetica,sans-Serif" font-size="14.00">entropy = 0.914</text>
<text text-anchor="middle" x="465.5" y="-114.45" font-family="Helvetica,sans-Serif" font-size="14.00">samples = 14636</text>
<text text-anchor="middle" x="465.5" y="-97.2" font-family="Helvetica,sans-Serif" font-size="14.00">value = [7676, 15621]</text>
<text text-anchor="middle" x="465.5" y="-79.95" font-family="Helvetica,sans-Serif" font-size="14.00">class = Plant</text>
</g>
<!-- 8317&#45;&gt;8318 -->
<g id="edge10" class="edge">
<title>8317&#45;&gt;8318</title>
<path fill="none" stroke="black" d="M526.84,-202.07C520.38,-193.45 513.58,-184.35 506.94,-175.49"/>
<polygon fill="black" stroke="black" points="509.81,-173.48 501.01,-167.57 504.2,-177.67 509.81,-173.48"/>
</g>
<!-- 13437 -->
<g id="node14" class="node">
<title>13437</title>
<path fill="#f6d4bc" stroke="black" d="M725.5,-166.25C725.5,-166.25 583.5,-166.25 583.5,-166.25 577.5,-166.25 571.5,-160.25 571.5,-154.25 571.5,-154.25 571.5,-84 571.5,-84 571.5,-78 577.5,-72 583.5,-72 583.5,-72 725.5,-72 725.5,-72 731.5,-72 737.5,-78 737.5,-84 737.5,-84 737.5,-154.25 737.5,-154.25 737.5,-160.25 731.5,-166.25 725.5,-166.25"/>
<text text-anchor="middle" x="654.5" y="-148.95" font-family="Helvetica,sans-Serif" font-size="14.00">19_C &lt;= 0.5</text>
<text text-anchor="middle" x="654.5" y="-131.7" font-family="Helvetica,sans-Serif" font-size="14.00">entropy = 0.97</text>
<text text-anchor="middle" x="654.5" y="-114.45" font-family="Helvetica,sans-Serif" font-size="14.00">samples = 3216</text>
<text text-anchor="middle" x="654.5" y="-97.2" font-family="Helvetica,sans-Serif" font-size="14.00">value = [3059, 2021]</text>
<text text-anchor="middle" x="654.5" y="-79.95" font-family="Helvetica,sans-Serif" font-size="14.00">class = Animal</text>
</g>
<!-- 8317&#45;&gt;13437 -->
<g id="edge13" class="edge">
<title>8317&#45;&gt;13437</title>
<path fill="none" stroke="black" d="M595.08,-202.07C601.33,-193.45 607.93,-184.35 614.35,-175.49"/>
<polygon fill="black" stroke="black" points="617.05,-177.73 620.09,-167.58 611.38,-173.62 617.05,-177.73"/>
</g>
<!-- 8319 -->
<g id="node12" class="node">
<title>8319</title>
<path fill="#c0c0c0" stroke="black" d="M430.5,-36C430.5,-36 400.5,-36 400.5,-36 394.5,-36 388.5,-30 388.5,-24 388.5,-24 388.5,-12 388.5,-12 388.5,-6 394.5,0 400.5,0 400.5,0 430.5,0 430.5,0 436.5,0 442.5,-6 442.5,-12 442.5,-12 442.5,-24 442.5,-24 442.5,-30 436.5,-36 430.5,-36"/>
<text text-anchor="middle" x="415.5" y="-13.32" font-family="Helvetica,sans-Serif" font-size="14.00">(...)</text>
</g>
<!-- 8318&#45;&gt;8319 -->
<g id="edge11" class="edge">
<title>8318&#45;&gt;8319</title>
<path fill="none" stroke="black" d="M442.11,-71.75C437.71,-63.03 433.24,-54.16 429.25,-46.26"/>
<polygon fill="black" stroke="black" points="432.47,-44.88 424.84,-37.52 426.22,-48.03 432.47,-44.88"/>
</g>
<!-- 12104 -->
<g id="node13" class="node">
<title>12104</title>
<path fill="#c0c0c0" stroke="black" d="M502.5,-36C502.5,-36 472.5,-36 472.5,-36 466.5,-36 460.5,-30 460.5,-24 460.5,-24 460.5,-12 460.5,-12 460.5,-6 466.5,0 472.5,0 472.5,0 502.5,0 502.5,0 508.5,0 514.5,-6 514.5,-12 514.5,-12 514.5,-24 514.5,-24 514.5,-30 508.5,-36 502.5,-36"/>
<text text-anchor="middle" x="487.5" y="-13.32" font-family="Helvetica,sans-Serif" font-size="14.00">(...)</text>
</g>
<!-- 8318&#45;&gt;12104 -->
<g id="edge12" class="edge">
<title>8318&#45;&gt;12104</title>
<path fill="none" stroke="black" d="M475.79,-71.75C477.64,-63.42 479.52,-54.97 481.21,-47.34"/>
<polygon fill="black" stroke="black" points="484.61,-48.17 483.36,-37.65 477.78,-46.65 484.61,-48.17"/>
</g>
<!-- 13438 -->
<g id="node15" class="node">
<title>13438</title>
<path fill="#c0c0c0" stroke="black" d="M617.5,-36C617.5,-36 587.5,-36 587.5,-36 581.5,-36 575.5,-30 575.5,-24 575.5,-24 575.5,-12 575.5,-12 575.5,-6 581.5,0 587.5,0 587.5,0 617.5,0 617.5,0 623.5,0 629.5,-6 629.5,-12 629.5,-12 629.5,-24 629.5,-24 629.5,-30 623.5,-36 617.5,-36"/>
<text text-anchor="middle" x="602.5" y="-13.32" font-family="Helvetica,sans-Serif" font-size="14.00">(...)</text>
</g>
<!-- 13437&#45;&gt;13438 -->
<g id="edge14" class="edge">
<title>13437&#45;&gt;13438</title>
<path fill="none" stroke="black" d="M630.17,-71.75C625.6,-63.03 620.95,-54.16 616.8,-46.26"/>
<polygon fill="black" stroke="black" points="619.96,-44.74 612.21,-37.51 613.76,-47.99 619.96,-44.74"/>
</g>
<!-- 14797 -->
<g id="node16" class="node">
<title>14797</title>
<path fill="#c0c0c0" stroke="black" d="M689.5,-36C689.5,-36 659.5,-36 659.5,-36 653.5,-36 647.5,-30 647.5,-24 647.5,-24 647.5,-12 647.5,-12 647.5,-6 653.5,0 659.5,0 659.5,0 689.5,0 689.5,0 695.5,0 701.5,-6 701.5,-12 701.5,-12 701.5,-24 701.5,-24 701.5,-30 695.5,-36 689.5,-36"/>
<text text-anchor="middle" x="674.5" y="-13.32" font-family="Helvetica,sans-Serif" font-size="14.00">(...)</text>
</g>
<!-- 13437&#45;&gt;14797 -->
<g id="edge15" class="edge">
<title>13437&#45;&gt;14797</title>
<path fill="none" stroke="black" d="M663.86,-71.75C665.54,-63.42 667.24,-54.97 668.78,-47.34"/>
<polygon fill="black" stroke="black" points="672.19,-48.15 670.74,-37.66 665.33,-46.77 672.19,-48.15"/>
</g>
<!-- 15053 -->
<g id="node18" class="node">
<title>15053</title>
<path fill="#eda775" stroke="black" d="M996.5,-296.5C996.5,-296.5 854.5,-296.5 854.5,-296.5 848.5,-296.5 842.5,-290.5 842.5,-284.5 842.5,-284.5 842.5,-214.25 842.5,-214.25 842.5,-208.25 848.5,-202.25 854.5,-202.25 854.5,-202.25 996.5,-202.25 996.5,-202.25 1002.5,-202.25 1008.5,-208.25 1008.5,-214.25 1008.5,-214.25 1008.5,-284.5 1008.5,-284.5 1008.5,-290.5 1002.5,-296.5 996.5,-296.5"/>
<text text-anchor="middle" x="925.5" y="-279.2" font-family="Helvetica,sans-Serif" font-size="14.00">17_U &lt;= 0.5</text>
<text text-anchor="middle" x="925.5" y="-261.95" font-family="Helvetica,sans-Serif" font-size="14.00">entropy = 0.782</text>
<text text-anchor="middle" x="925.5" y="-244.7" font-family="Helvetica,sans-Serif" font-size="14.00">samples = 3766</text>
<text text-anchor="middle" x="925.5" y="-227.45" font-family="Helvetica,sans-Serif" font-size="14.00">value = [4602, 1394]</text>
<text text-anchor="middle" x="925.5" y="-210.2" font-family="Helvetica,sans-Serif" font-size="14.00">class = Animal</text>
</g>
<!-- 15052&#45;&gt;15053 -->
<g id="edge17" class="edge">
<title>15052&#45;&gt;15053</title>
<path fill="none" stroke="black" d="M925.5,-332.32C925.5,-324.42 925.5,-316.13 925.5,-307.98"/>
<polygon fill="black" stroke="black" points="929,-308.12 925.5,-298.12 922,-308.12 929,-308.12"/>
</g>
<!-- 16564 -->
<g id="node25" class="node">
<title>16564</title>
<path fill="#ea985d" stroke="black" d="M1260,-296.5C1260,-296.5 1127,-296.5 1127,-296.5 1121,-296.5 1115,-290.5 1115,-284.5 1115,-284.5 1115,-214.25 1115,-214.25 1115,-208.25 1121,-202.25 1127,-202.25 1127,-202.25 1260,-202.25 1260,-202.25 1266,-202.25 1272,-208.25 1272,-214.25 1272,-214.25 1272,-284.5 1272,-284.5 1272,-290.5 1266,-296.5 1260,-296.5"/>
<text text-anchor="middle" x="1193.5" y="-279.2" font-family="Helvetica,sans-Serif" font-size="14.00">24_U &lt;= 0.5</text>
<text text-anchor="middle" x="1193.5" y="-261.95" font-family="Helvetica,sans-Serif" font-size="14.00">entropy = 0.617</text>
<text text-anchor="middle" x="1193.5" y="-244.7" font-family="Helvetica,sans-Serif" font-size="14.00">samples = 1175</text>
<text text-anchor="middle" x="1193.5" y="-227.45" font-family="Helvetica,sans-Serif" font-size="14.00">value = [1544, 279]</text>
<text text-anchor="middle" x="1193.5" y="-210.2" font-family="Helvetica,sans-Serif" font-size="14.00">class = Animal</text>
</g>
<!-- 15052&#45;&gt;16564 -->
<g id="edge24" class="edge">
<title>15052&#45;&gt;16564</title>
<path fill="none" stroke="black" d="M1008.83,-338.75C1039.2,-324.21 1073.64,-307.73 1104.49,-292.97"/>
<polygon fill="black" stroke="black" points="1105.93,-296.16 1113.44,-288.69 1102.9,-289.85 1105.93,-296.16"/>
</g>
<!-- 15054 -->
<g id="node19" class="node">
<title>15054</title>
<path fill="#efb286" stroke="black" d="M909.5,-166.25C909.5,-166.25 767.5,-166.25 767.5,-166.25 761.5,-166.25 755.5,-160.25 755.5,-154.25 755.5,-154.25 755.5,-84 755.5,-84 755.5,-78 761.5,-72 767.5,-72 767.5,-72 909.5,-72 909.5,-72 915.5,-72 921.5,-78 921.5,-84 921.5,-84 921.5,-154.25 921.5,-154.25 921.5,-160.25 915.5,-166.25 909.5,-166.25"/>
<text text-anchor="middle" x="838.5" y="-148.95" font-family="Helvetica,sans-Serif" font-size="14.00">27_G &lt;= 0.5</text>
<text text-anchor="middle" x="838.5" y="-131.7" font-family="Helvetica,sans-Serif" font-size="14.00">entropy = 0.854</text>
<text text-anchor="middle" x="838.5" y="-114.45" font-family="Helvetica,sans-Serif" font-size="14.00">samples = 2509</text>
<text text-anchor="middle" x="838.5" y="-97.2" font-family="Helvetica,sans-Serif" font-size="14.00">value = [2870, 1111]</text>
<text text-anchor="middle" x="838.5" y="-79.95" font-family="Helvetica,sans-Serif" font-size="14.00">class = Animal</text>
</g>
<!-- 15053&#45;&gt;15054 -->
<g id="edge18" class="edge">
<title>15053&#45;&gt;15054</title>
<path fill="none" stroke="black" d="M894.09,-202.07C888.3,-193.54 882.2,-184.54 876.25,-175.77"/>
<polygon fill="black" stroke="black" points="879.22,-173.92 870.71,-167.61 873.43,-177.85 879.22,-173.92"/>
</g>
<!-- 16181 -->
<g id="node22" class="node">
<title>16181</title>
<path fill="#e99659" stroke="black" d="M1085,-166.25C1085,-166.25 952,-166.25 952,-166.25 946,-166.25 940,-160.25 940,-154.25 940,-154.25 940,-84 940,-84 940,-78 946,-72 952,-72 952,-72 1085,-72 1085,-72 1091,-72 1097,-78 1097,-84 1097,-84 1097,-154.25 1097,-154.25 1097,-160.25 1091,-166.25 1085,-166.25"/>
<text text-anchor="middle" x="1018.5" y="-148.95" font-family="Helvetica,sans-Serif" font-size="14.00">5_C &lt;= 0.5</text>
<text text-anchor="middle" x="1018.5" y="-131.7" font-family="Helvetica,sans-Serif" font-size="14.00">entropy = 0.585</text>
<text text-anchor="middle" x="1018.5" y="-114.45" font-family="Helvetica,sans-Serif" font-size="14.00">samples = 1257</text>
<text text-anchor="middle" x="1018.5" y="-97.2" font-family="Helvetica,sans-Serif" font-size="14.00">value = [1732, 283]</text>
<text text-anchor="middle" x="1018.5" y="-79.95" font-family="Helvetica,sans-Serif" font-size="14.00">class = Animal</text>
</g>
<!-- 15053&#45;&gt;16181 -->
<g id="edge21" class="edge">
<title>15053&#45;&gt;16181</title>
<path fill="none" stroke="black" d="M959.08,-202.07C965.33,-193.45 971.93,-184.35 978.35,-175.49"/>
<polygon fill="black" stroke="black" points="981.05,-177.73 984.09,-167.58 975.38,-173.62 981.05,-177.73"/>
</g>
<!-- 15055 -->
<g id="node20" class="node">
<title>15055</title>
<path fill="#c0c0c0" stroke="black" d="M799.5,-36C799.5,-36 769.5,-36 769.5,-36 763.5,-36 757.5,-30 757.5,-24 757.5,-24 757.5,-12 757.5,-12 757.5,-6 763.5,0 769.5,0 769.5,0 799.5,0 799.5,0 805.5,0 811.5,-6 811.5,-12 811.5,-12 811.5,-24 811.5,-24 811.5,-30 805.5,-36 799.5,-36"/>
<text text-anchor="middle" x="784.5" y="-13.32" font-family="Helvetica,sans-Serif" font-size="14.00">(...)</text>
</g>
<!-- 15054&#45;&gt;15055 -->
<g id="edge19" class="edge">
<title>15054&#45;&gt;15055</title>
<path fill="none" stroke="black" d="M813.24,-71.75C808.48,-63.03 803.66,-54.16 799.35,-46.26"/>
<polygon fill="black" stroke="black" points="802.44,-44.61 794.58,-37.5 796.29,-47.96 802.44,-44.61"/>
</g>
<!-- 16180 -->
<g id="node21" class="node">
<title>16180</title>
<path fill="#c0c0c0" stroke="black" d="M871.5,-36C871.5,-36 841.5,-36 841.5,-36 835.5,-36 829.5,-30 829.5,-24 829.5,-24 829.5,-12 829.5,-12 829.5,-6 835.5,0 841.5,0 841.5,0 871.5,0 871.5,0 877.5,0 883.5,-6 883.5,-12 883.5,-12 883.5,-24 883.5,-24 883.5,-30 877.5,-36 871.5,-36"/>
<text text-anchor="middle" x="856.5" y="-13.32" font-family="Helvetica,sans-Serif" font-size="14.00">(...)</text>
</g>
<!-- 15054&#45;&gt;16180 -->
<g id="edge20" class="edge">
<title>15054&#45;&gt;16180</title>
<path fill="none" stroke="black" d="M846.92,-71.75C848.43,-63.42 849.97,-54.97 851.35,-47.34"/>
<polygon fill="black" stroke="black" points="854.77,-48.13 853.11,-37.66 847.88,-46.88 854.77,-48.13"/>
</g>
<!-- 16182 -->
<g id="node23" class="node">
<title>16182</title>
<path fill="#c0c0c0" stroke="black" d="M976.5,-36C976.5,-36 946.5,-36 946.5,-36 940.5,-36 934.5,-30 934.5,-24 934.5,-24 934.5,-12 934.5,-12 934.5,-6 940.5,0 946.5,0 946.5,0 976.5,0 976.5,0 982.5,0 988.5,-6 988.5,-12 988.5,-12 988.5,-24 988.5,-24 988.5,-30 982.5,-36 976.5,-36"/>
<text text-anchor="middle" x="961.5" y="-13.32" font-family="Helvetica,sans-Serif" font-size="14.00">(...)</text>
</g>
<!-- 16181&#45;&gt;16182 -->
<g id="edge22" class="edge">
<title>16181&#45;&gt;16182</title>
<path fill="none" stroke="black" d="M991.84,-71.75C986.76,-62.93 981.6,-53.96 977.02,-45.99"/>
<polygon fill="black" stroke="black" points="980.15,-44.41 972.13,-37.48 974.08,-47.9 980.15,-44.41"/>
</g>
<!-- 16469 -->
<g id="node24" class="node">
<title>16469</title>
<path fill="#c0c0c0" stroke="black" d="M1048.5,-36C1048.5,-36 1018.5,-36 1018.5,-36 1012.5,-36 1006.5,-30 1006.5,-24 1006.5,-24 1006.5,-12 1006.5,-12 1006.5,-6 1012.5,0 1018.5,0 1018.5,0 1048.5,0 1048.5,0 1054.5,0 1060.5,-6 1060.5,-12 1060.5,-12 1060.5,-24 1060.5,-24 1060.5,-30 1054.5,-36 1048.5,-36"/>
<text text-anchor="middle" x="1033.5" y="-13.32" font-family="Helvetica,sans-Serif" font-size="14.00">(...)</text>
</g>
<!-- 16181&#45;&gt;16469 -->
<g id="edge23" class="edge">
<title>16181&#45;&gt;16469</title>
<path fill="none" stroke="black" d="M1025.52,-71.75C1026.78,-63.42 1028.06,-54.97 1029.21,-47.34"/>
<polygon fill="black" stroke="black" points="1032.64,-48.08 1030.67,-37.67 1025.72,-47.03 1032.64,-48.08"/>
</g>
<!-- 16565 -->
<g id="node26" class="node">
<title>16565</title>
<path fill="#e9965a" stroke="black" d="M1260,-166.25C1260,-166.25 1127,-166.25 1127,-166.25 1121,-166.25 1115,-160.25 1115,-154.25 1115,-154.25 1115,-84 1115,-84 1115,-78 1121,-72 1127,-72 1127,-72 1260,-72 1260,-72 1266,-72 1272,-78 1272,-84 1272,-84 1272,-154.25 1272,-154.25 1272,-160.25 1266,-166.25 1260,-166.25"/>
<text text-anchor="middle" x="1193.5" y="-148.95" font-family="Helvetica,sans-Serif" font-size="14.00">2_U &lt;= 0.5</text>
<text text-anchor="middle" x="1193.5" y="-131.7" font-family="Helvetica,sans-Serif" font-size="14.00">entropy = 0.588</text>
<text text-anchor="middle" x="1193.5" y="-114.45" font-family="Helvetica,sans-Serif" font-size="14.00">samples = 1095</text>
<text text-anchor="middle" x="1193.5" y="-97.2" font-family="Helvetica,sans-Serif" font-size="14.00">value = [1465, 241]</text>
<text text-anchor="middle" x="1193.5" y="-79.95" font-family="Helvetica,sans-Serif" font-size="14.00">class = Animal</text>
</g>
<!-- 16564&#45;&gt;16565 -->
<g id="edge25" class="edge">
<title>16564&#45;&gt;16565</title>
<path fill="none" stroke="black" d="M1193.5,-202.07C1193.5,-194.17 1193.5,-185.88 1193.5,-177.73"/>
<polygon fill="black" stroke="black" points="1197,-177.87 1193.5,-167.87 1190,-177.87 1197,-177.87"/>
</g>
<!-- 16950 -->
<g id="node29" class="node">
<title>16950</title>
<path fill="#f2be98" stroke="black" d="M1408.5,-166.25C1408.5,-166.25 1302.5,-166.25 1302.5,-166.25 1296.5,-166.25 1290.5,-160.25 1290.5,-154.25 1290.5,-154.25 1290.5,-84 1290.5,-84 1290.5,-78 1296.5,-72 1302.5,-72 1302.5,-72 1408.5,-72 1408.5,-72 1414.5,-72 1420.5,-78 1420.5,-84 1420.5,-84 1420.5,-154.25 1420.5,-154.25 1420.5,-160.25 1414.5,-166.25 1408.5,-166.25"/>
<text text-anchor="middle" x="1355.5" y="-148.95" font-family="Helvetica,sans-Serif" font-size="14.00">5_C &lt;= 0.5</text>
<text text-anchor="middle" x="1355.5" y="-131.7" font-family="Helvetica,sans-Serif" font-size="14.00">entropy = 0.91</text>
<text text-anchor="middle" x="1355.5" y="-114.45" font-family="Helvetica,sans-Serif" font-size="14.00">samples = 80</text>
<text text-anchor="middle" x="1355.5" y="-97.2" font-family="Helvetica,sans-Serif" font-size="14.00">value = [79, 38]</text>
<text text-anchor="middle" x="1355.5" y="-79.95" font-family="Helvetica,sans-Serif" font-size="14.00">class = Animal</text>
</g>
<!-- 16564&#45;&gt;16950 -->
<g id="edge28" class="edge">
<title>16564&#45;&gt;16950</title>
<path fill="none" stroke="black" d="M1251.99,-202.07C1263.61,-192.87 1275.91,-183.13 1287.82,-173.71"/>
<polygon fill="black" stroke="black" points="1289.97,-176.46 1295.64,-167.51 1285.63,-170.98 1289.97,-176.46"/>
</g>
<!-- 16566 -->
<g id="node27" class="node">
<title>16566</title>
<path fill="#c0c0c0" stroke="black" d="M1163.5,-36C1163.5,-36 1133.5,-36 1133.5,-36 1127.5,-36 1121.5,-30 1121.5,-24 1121.5,-24 1121.5,-12 1121.5,-12 1121.5,-6 1127.5,0 1133.5,0 1133.5,0 1163.5,0 1163.5,0 1169.5,0 1175.5,-6 1175.5,-12 1175.5,-12 1175.5,-24 1175.5,-24 1175.5,-30 1169.5,-36 1163.5,-36"/>
<text text-anchor="middle" x="1148.5" y="-13.32" font-family="Helvetica,sans-Serif" font-size="14.00">(...)</text>
</g>
<!-- 16565&#45;&gt;16566 -->
<g id="edge26" class="edge">
<title>16565&#45;&gt;16566</title>
<path fill="none" stroke="black" d="M1172.45,-71.75C1168.53,-63.12 1164.55,-54.36 1161,-46.53"/>
<polygon fill="black" stroke="black" points="1164.24,-45.21 1156.92,-37.55 1157.87,-48.1 1164.24,-45.21"/>
</g>
<!-- 16885 -->
<g id="node28" class="node">
<title>16885</title>
<path fill="#c0c0c0" stroke="black" d="M1235.5,-36C1235.5,-36 1205.5,-36 1205.5,-36 1199.5,-36 1193.5,-30 1193.5,-24 1193.5,-24 1193.5,-12 1193.5,-12 1193.5,-6 1199.5,0 1205.5,0 1205.5,0 1235.5,0 1235.5,0 1241.5,0 1247.5,-6 1247.5,-12 1247.5,-12 1247.5,-24 1247.5,-24 1247.5,-30 1241.5,-36 1235.5,-36"/>
<text text-anchor="middle" x="1220.5" y="-13.32" font-family="Helvetica,sans-Serif" font-size="14.00">(...)</text>
</g>
<!-- 16565&#45;&gt;16885 -->
<g id="edge27" class="edge">
<title>16565&#45;&gt;16885</title>
<path fill="none" stroke="black" d="M1206.13,-71.75C1208.43,-63.32 1210.76,-54.77 1212.85,-47.07"/>
<polygon fill="black" stroke="black" points="1216.17,-48.2 1215.42,-37.63 1209.42,-46.36 1216.17,-48.2"/>
</g>
<!-- 16951 -->
<g id="node30" class="node">
<title>16951</title>
<path fill="#c0c0c0" stroke="black" d="M1334.5,-36C1334.5,-36 1304.5,-36 1304.5,-36 1298.5,-36 1292.5,-30 1292.5,-24 1292.5,-24 1292.5,-12 1292.5,-12 1292.5,-6 1298.5,0 1304.5,0 1304.5,0 1334.5,0 1334.5,0 1340.5,0 1346.5,-6 1346.5,-12 1346.5,-12 1346.5,-24 1346.5,-24 1346.5,-30 1340.5,-36 1334.5,-36"/>
<text text-anchor="middle" x="1319.5" y="-13.32" font-family="Helvetica,sans-Serif" font-size="14.00">(...)</text>
</g>
<!-- 16950&#45;&gt;16951 -->
<g id="edge29" class="edge">
<title>16950&#45;&gt;16951</title>
<path fill="none" stroke="black" d="M1338.66,-71.75C1335.56,-63.22 1332.42,-54.57 1329.6,-46.8"/>
<polygon fill="black" stroke="black" points="1332.96,-45.8 1326.25,-37.6 1326.38,-48.19 1332.96,-45.8"/>
</g>
<!-- 16980 -->
<g id="node31" class="node">
<title>16980</title>
<path fill="#c0c0c0" stroke="black" d="M1406.5,-36C1406.5,-36 1376.5,-36 1376.5,-36 1370.5,-36 1364.5,-30 1364.5,-24 1364.5,-24 1364.5,-12 1364.5,-12 1364.5,-6 1370.5,0 1376.5,0 1376.5,0 1406.5,0 1406.5,0 1412.5,0 1418.5,-6 1418.5,-12 1418.5,-12 1418.5,-24 1418.5,-24 1418.5,-30 1412.5,-36 1406.5,-36"/>
<text text-anchor="middle" x="1391.5" y="-13.32" font-family="Helvetica,sans-Serif" font-size="14.00">(...)</text>
</g>
<!-- 16950&#45;&gt;16980 -->
<g id="edge30" class="edge">
<title>16950&#45;&gt;16980</title>
<path fill="none" stroke="black" d="M1372.34,-71.75C1375.44,-63.22 1378.58,-54.57 1381.4,-46.8"/>
<polygon fill="black" stroke="black" points="1384.62,-48.19 1384.75,-37.6 1378.04,-45.8 1384.62,-48.19"/>
</g>
</g>
</svg>
