<?xml version="1.0" encoding="UTF-8" standalone="no"?>
<!DOCTYPE svg PUBLIC "-//W3C//DTD SVG 1.1//EN"
 "http://www.w3.org/Graphics/SVG/1.1/DTD/svg11.dtd">
<!-- Generated by graphviz version 12.0.0 (20240803.0821)
 -->
<!-- Title: Tree Pages: 1 -->
<svg width="1428pt" height="565pt"
 viewBox="0.00 0.00 1427.50 565.00" xmlns="http://www.w3.org/2000/svg" xmlns:xlink="http://www.w3.org/1999/xlink">
<g id="graph0" class="graph" transform="scale(1 1) rotate(0) translate(4 561)">
<title>Tree</title>
<polygon fill="white" stroke="none" points="-4,4 -4,-561 1423.5,-561 1423.5,4 -4,4"/>
<!-- 0 -->
<g id="node1" class="node">
<title>0</title>
<path fill="#ffffff" stroke="black" d="M794,-557C794,-557 634,-557 634,-557 628,-557 622,-551 622,-545 622,-545 622,-474.75 622,-474.75 622,-468.75 628,-462.75 634,-462.75 634,-462.75 794,-462.75 794,-462.75 800,-462.75 806,-468.75 806,-474.75 806,-474.75 806,-545 806,-545 806,-551 800,-557 794,-557"/>
<text text-anchor="middle" x="714" y="-539.7" font-family="Helvetica,sans-Serif" font-size="14.00">2_A &lt;= 0.5</text>
<text text-anchor="middle" x="714" y="-522.45" font-family="Helvetica,sans-Serif" font-size="14.00">entropy = 1.0</text>
<text text-anchor="middle" x="714" y="-505.2" font-family="Helvetica,sans-Serif" font-size="14.00">samples = 38200</text>
<text text-anchor="middle" x="714" y="-487.95" font-family="Helvetica,sans-Serif" font-size="14.00">value = [30195, 30150]</text>
<text text-anchor="middle" x="714" y="-470.7" font-family="Helvetica,sans-Serif" font-size="14.00">class = Animal</text>
</g>
<!-- 1 -->
<g id="node2" class="node">
<title>1</title>
<path fill="#e2f1fb" stroke="black" d="M623,-426.75C623,-426.75 463,-426.75 463,-426.75 457,-426.75 451,-420.75 451,-414.75 451,-414.75 451,-344.5 451,-344.5 451,-338.5 457,-332.5 463,-332.5 463,-332.5 623,-332.5 623,-332.5 629,-332.5 635,-338.5 635,-344.5 635,-344.5 635,-414.75 635,-414.75 635,-420.75 629,-426.75 623,-426.75"/>
<text text-anchor="middle" x="543" y="-409.45" font-family="Helvetica,sans-Serif" font-size="14.00">8_G &lt;= 0.5</text>
<text text-anchor="middle" x="543" y="-392.2" font-family="Helvetica,sans-Serif" font-size="14.00">entropy = 0.995</text>
<text text-anchor="middle" x="543" y="-374.95" font-family="Helvetica,sans-Serif" font-size="14.00">samples = 29139</text>
<text text-anchor="middle" x="543" y="-357.7" font-family="Helvetica,sans-Serif" font-size="14.00">value = [21247, 24919]</text>
<text text-anchor="middle" x="543" y="-340.45" font-family="Helvetica,sans-Serif" font-size="14.00">class = Plant</text>
</g>
<!-- 0&#45;&gt;1 -->
<g id="edge1" class="edge">
<title>0&#45;&gt;1</title>
<path fill="none" stroke="black" d="M652.27,-462.57C639.87,-453.28 626.75,-443.44 614.07,-433.93"/>
<polygon fill="black" stroke="black" points="616.24,-431.18 606.14,-427.98 612.04,-436.78 616.24,-431.18"/>
<text text-anchor="middle" x="608.47" y="-447.15" font-family="Helvetica,sans-Serif" font-size="14.00">True</text>
</g>
<!-- 12796 -->
<g id="node17" class="node">
<title>12796</title>
<path fill="#f4cbad" stroke="black" d="M967,-426.75C967,-426.75 825,-426.75 825,-426.75 819,-426.75 813,-420.75 813,-414.75 813,-414.75 813,-344.5 813,-344.5 813,-338.5 819,-332.5 825,-332.5 825,-332.5 967,-332.5 967,-332.5 973,-332.5 979,-338.5 979,-344.5 979,-344.5 979,-414.75 979,-414.75 979,-420.75 973,-426.75 967,-426.75"/>
<text text-anchor="middle" x="896" y="-409.45" font-family="Helvetica,sans-Serif" font-size="14.00">5_C &lt;= 0.5</text>
<text text-anchor="middle" x="896" y="-392.2" font-family="Helvetica,sans-Serif" font-size="14.00">entropy = 0.95</text>
<text text-anchor="middle" x="896" y="-374.95" font-family="Helvetica,sans-Serif" font-size="14.00">samples = 9061</text>
<text text-anchor="middle" x="896" y="-357.7" font-family="Helvetica,sans-Serif" font-size="14.00">value = [8948, 5231]</text>
<text text-anchor="middle" x="896" y="-340.45" font-family="Helvetica,sans-Serif" font-size="14.00">class = Animal</text>
</g>
<!-- 0&#45;&gt;12796 -->
<g id="edge16" class="edge">
<title>0&#45;&gt;12796</title>
<path fill="none" stroke="black" d="M779.96,-462.39C793.19,-453.07 807.18,-443.22 820.69,-433.69"/>
<polygon fill="black" stroke="black" points="822.56,-436.66 828.72,-428.04 818.53,-430.94 822.56,-436.66"/>
<text text-anchor="middle" x="825.69" y="-447.12" font-family="Helvetica,sans-Serif" font-size="14.00">False</text>
</g>
<!-- 2 -->
<g id="node3" class="node">
<title>2</title>
<path fill="#fefcfb" stroke="black" d="M356,-296.5C356,-296.5 196,-296.5 196,-296.5 190,-296.5 184,-290.5 184,-284.5 184,-284.5 184,-214.25 184,-214.25 184,-208.25 190,-202.25 196,-202.25 196,-202.25 356,-202.25 356,-202.25 362,-202.25 368,-208.25 368,-214.25 368,-214.25 368,-284.5 368,-284.5 368,-290.5 362,-296.5 356,-296.5"/>
<text text-anchor="middle" x="276" y="-279.2" font-family="Helvetica,sans-Serif" font-size="14.00">24_U &lt;= 0.5</text>
<text text-anchor="middle" x="276" y="-261.95" font-family="Helvetica,sans-Serif" font-size="14.00">entropy = 1.0</text>
<text text-anchor="middle" x="276" y="-244.7" font-family="Helvetica,sans-Serif" font-size="14.00">samples = 19967</text>
<text text-anchor="middle" x="276" y="-227.45" font-family="Helvetica,sans-Serif" font-size="14.00">value = [16017, 15698]</text>
<text text-anchor="middle" x="276" y="-210.2" font-family="Helvetica,sans-Serif" font-size="14.00">class = Animal</text>
</g>
<!-- 1&#45;&gt;2 -->
<g id="edge2" class="edge">
<title>1&#45;&gt;2</title>
<path fill="none" stroke="black" d="M450.74,-334.31C427.4,-323.1 402.18,-310.99 378.37,-299.55"/>
<polygon fill="black" stroke="black" points="380.16,-296.52 369.63,-295.35 377.13,-302.83 380.16,-296.52"/>
</g>
<!-- 9347 -->
<g id="node10" class="node">
<title>9347</title>
<path fill="#a9d5f4" stroke="black" d="M614,-296.5C614,-296.5 472,-296.5 472,-296.5 466,-296.5 460,-290.5 460,-284.5 460,-284.5 460,-214.25 460,-214.25 460,-208.25 466,-202.25 472,-202.25 472,-202.25 614,-202.25 614,-202.25 620,-202.25 626,-208.25 626,-214.25 626,-214.25 626,-284.5 626,-284.5 626,-290.5 620,-296.5 614,-296.5"/>
<text text-anchor="middle" x="543" y="-279.2" font-family="Helvetica,sans-Serif" font-size="14.00">6_A &lt;= 0.5</text>
<text text-anchor="middle" x="543" y="-261.95" font-family="Helvetica,sans-Serif" font-size="14.00">entropy = 0.944</text>
<text text-anchor="middle" x="543" y="-244.7" font-family="Helvetica,sans-Serif" font-size="14.00">samples = 9172</text>
<text text-anchor="middle" x="543" y="-227.45" font-family="Helvetica,sans-Serif" font-size="14.00">value = [5230, 9221]</text>
<text text-anchor="middle" x="543" y="-210.2" font-family="Helvetica,sans-Serif" font-size="14.00">class = Plant</text>
</g>
<!-- 1&#45;&gt;9347 -->
<g id="edge9" class="edge">
<title>1&#45;&gt;9347</title>
<path fill="none" stroke="black" d="M543,-332.32C543,-324.42 543,-316.13 543,-307.98"/>
<polygon fill="black" stroke="black" points="546.5,-308.12 543,-298.12 539.5,-308.12 546.5,-308.12"/>
</g>
<!-- 3 -->
<g id="node4" class="node">
<title>3</title>
<path fill="#ffffff" stroke="black" d="M172,-166.25C172,-166.25 12,-166.25 12,-166.25 6,-166.25 0,-160.25 0,-154.25 0,-154.25 0,-84 0,-84 0,-78 6,-72 12,-72 12,-72 172,-72 172,-72 178,-72 184,-78 184,-84 184,-84 184,-154.25 184,-154.25 184,-160.25 178,-166.25 172,-166.25"/>
<text text-anchor="middle" x="92" y="-148.95" font-family="Helvetica,sans-Serif" font-size="14.00">20_C &lt;= 0.5</text>
<text text-anchor="middle" x="92" y="-131.7" font-family="Helvetica,sans-Serif" font-size="14.00">entropy = 1.0</text>
<text text-anchor="middle" x="92" y="-114.45" font-family="Helvetica,sans-Serif" font-size="14.00">samples = 19521</text>
<text text-anchor="middle" x="92" y="-97.2" font-family="Helvetica,sans-Serif" font-size="14.00">value = [15503, 15525]</text>
<text text-anchor="middle" x="92" y="-79.95" font-family="Helvetica,sans-Serif" font-size="14.00">class = Plant</text>
</g>
<!-- 2&#45;&gt;3 -->
<g id="edge3" class="edge">
<title>2&#45;&gt;3</title>
<path fill="none" stroke="black" d="M209.31,-201.89C195.94,-192.57 181.8,-182.72 168.14,-173.19"/>
<polygon fill="black" stroke="black" points="170.22,-170.38 160.01,-167.53 166.21,-176.12 170.22,-170.38"/>
</g>
<!-- 9134 -->
<g id="node7" class="node">
<title>9134</title>
<path fill="#eeab7c" stroke="black" d="M338,-166.25C338,-166.25 214,-166.25 214,-166.25 208,-166.25 202,-160.25 202,-154.25 202,-154.25 202,-84 202,-84 202,-78 208,-72 214,-72 214,-72 338,-72 338,-72 344,-72 350,-78 350,-84 350,-84 350,-154.25 350,-154.25 350,-160.25 344,-166.25 338,-166.25"/>
<text text-anchor="middle" x="276" y="-148.95" font-family="Helvetica,sans-Serif" font-size="14.00">6_C &lt;= 0.5</text>
<text text-anchor="middle" x="276" y="-131.7" font-family="Helvetica,sans-Serif" font-size="14.00">entropy = 0.814</text>
<text text-anchor="middle" x="276" y="-114.45" font-family="Helvetica,sans-Serif" font-size="14.00">samples = 446</text>
<text text-anchor="middle" x="276" y="-97.2" font-family="Helvetica,sans-Serif" font-size="14.00">value = [514, 173]</text>
<text text-anchor="middle" x="276" y="-79.95" font-family="Helvetica,sans-Serif" font-size="14.00">class = Animal</text>
</g>
<!-- 2&#45;&gt;9134 -->
<g id="edge6" class="edge">
<title>2&#45;&gt;9134</title>
<path fill="none" stroke="black" d="M276,-202.07C276,-194.17 276,-185.88 276,-177.73"/>
<polygon fill="black" stroke="black" points="279.5,-177.87 276,-167.87 272.5,-177.87 279.5,-177.87"/>
</g>
<!-- 4 -->
<g id="node5" class="node">
<title>4</title>
<path fill="#c0c0c0" stroke="black" d="M71,-36C71,-36 41,-36 41,-36 35,-36 29,-30 29,-24 29,-24 29,-12 29,-12 29,-6 35,0 41,0 41,0 71,0 71,0 77,0 83,-6 83,-12 83,-12 83,-24 83,-24 83,-30 77,-36 71,-36"/>
<text text-anchor="middle" x="56" y="-13.32" font-family="Helvetica,sans-Serif" font-size="14.00">(...)</text>
</g>
<!-- 3&#45;&gt;4 -->
<g id="edge4" class="edge">
<title>3&#45;&gt;4</title>
<path fill="none" stroke="black" d="M75.16,-71.75C72.06,-63.22 68.92,-54.57 66.1,-46.8"/>
<polygon fill="black" stroke="black" points="69.46,-45.8 62.75,-37.6 62.88,-48.19 69.46,-45.8"/>
</g>
<!-- 6815 -->
<g id="node6" class="node">
<title>6815</title>
<path fill="#c0c0c0" stroke="black" d="M143,-36C143,-36 113,-36 113,-36 107,-36 101,-30 101,-24 101,-24 101,-12 101,-12 101,-6 107,0 113,0 113,0 143,0 143,0 149,0 155,-6 155,-12 155,-12 155,-24 155,-24 155,-30 149,-36 143,-36"/>
<text text-anchor="middle" x="128" y="-13.32" font-family="Helvetica,sans-Serif" font-size="14.00">(...)</text>
</g>
<!-- 3&#45;&gt;6815 -->
<g id="edge5" class="edge">
<title>3&#45;&gt;6815</title>
<path fill="none" stroke="black" d="M108.84,-71.75C111.94,-63.22 115.08,-54.57 117.9,-46.8"/>
<polygon fill="black" stroke="black" points="121.12,-48.19 121.25,-37.6 114.54,-45.8 121.12,-48.19"/>
</g>
<!-- 9135 -->
<g id="node8" class="node">
<title>9135</title>
<path fill="#c0c0c0" stroke="black" d="M254,-36C254,-36 224,-36 224,-36 218,-36 212,-30 212,-24 212,-24 212,-12 212,-12 212,-6 218,0 224,0 224,0 254,0 254,0 260,0 266,-6 266,-12 266,-12 266,-24 266,-24 266,-30 260,-36 254,-36"/>
<text text-anchor="middle" x="239" y="-13.32" font-family="Helvetica,sans-Serif" font-size="14.00">(...)</text>
</g>
<!-- 9134&#45;&gt;9135 -->
<g id="edge7" class="edge">
<title>9134&#45;&gt;9135</title>
<path fill="none" stroke="black" d="M258.69,-71.75C255.51,-63.22 252.28,-54.57 249.38,-46.8"/>
<polygon fill="black" stroke="black" points="252.72,-45.74 245.94,-37.59 246.16,-48.18 252.72,-45.74"/>
</g>
<!-- 9304 -->
<g id="node9" class="node">
<title>9304</title>
<path fill="#c0c0c0" stroke="black" d="M326,-36C326,-36 296,-36 296,-36 290,-36 284,-30 284,-24 284,-24 284,-12 284,-12 284,-6 290,0 296,0 296,0 326,0 326,0 332,0 338,-6 338,-12 338,-12 338,-24 338,-24 338,-30 332,-36 326,-36"/>
<text text-anchor="middle" x="311" y="-13.32" font-family="Helvetica,sans-Serif" font-size="14.00">(...)</text>
</g>
<!-- 9134&#45;&gt;9304 -->
<g id="edge8" class="edge">
<title>9134&#45;&gt;9304</title>
<path fill="none" stroke="black" d="M292.37,-71.75C295.39,-63.22 298.44,-54.57 301.18,-46.8"/>
<polygon fill="black" stroke="black" points="304.4,-48.19 304.43,-37.6 297.8,-45.86 304.4,-48.19"/>
</g>
<!-- 9348 -->
<g id="node11" class="node">
<title>9348</title>
<path fill="#bedff6" stroke="black" d="M522,-166.25C522,-166.25 380,-166.25 380,-166.25 374,-166.25 368,-160.25 368,-154.25 368,-154.25 368,-84 368,-84 368,-78 374,-72 380,-72 380,-72 522,-72 522,-72 528,-72 534,-78 534,-84 534,-84 534,-154.25 534,-154.25 534,-160.25 528,-166.25 522,-166.25"/>
<text text-anchor="middle" x="451" y="-148.95" font-family="Helvetica,sans-Serif" font-size="14.00">13_U &lt;= 0.5</text>
<text text-anchor="middle" x="451" y="-131.7" font-family="Helvetica,sans-Serif" font-size="14.00">entropy = 0.972</text>
<text text-anchor="middle" x="451" y="-114.45" font-family="Helvetica,sans-Serif" font-size="14.00">samples = 6858</text>
<text text-anchor="middle" x="451" y="-97.2" font-family="Helvetica,sans-Serif" font-size="14.00">value = [4314, 6432]</text>
<text text-anchor="middle" x="451" y="-79.95" font-family="Helvetica,sans-Serif" font-size="14.00">class = Plant</text>
</g>
<!-- 9347&#45;&gt;9348 -->
<g id="edge10" class="edge">
<title>9347&#45;&gt;9348</title>
<path fill="none" stroke="black" d="M509.79,-202.07C503.6,-193.45 497.07,-184.35 490.71,-175.49"/>
<polygon fill="black" stroke="black" points="493.72,-173.67 485.05,-167.59 488.03,-177.75 493.72,-173.67"/>
</g>
<!-- 12023 -->
<g id="node14" class="node">
<title>12023</title>
<path fill="#7abdee" stroke="black" d="M697.5,-166.25C697.5,-166.25 564.5,-166.25 564.5,-166.25 558.5,-166.25 552.5,-160.25 552.5,-154.25 552.5,-154.25 552.5,-84 552.5,-84 552.5,-78 558.5,-72 564.5,-72 564.5,-72 697.5,-72 697.5,-72 703.5,-72 709.5,-78 709.5,-84 709.5,-84 709.5,-154.25 709.5,-154.25 709.5,-160.25 703.5,-166.25 697.5,-166.25"/>
<text text-anchor="middle" x="631" y="-148.95" font-family="Helvetica,sans-Serif" font-size="14.00">11_G &lt;= 0.5</text>
<text text-anchor="middle" x="631" y="-131.7" font-family="Helvetica,sans-Serif" font-size="14.00">entropy = 0.807</text>
<text text-anchor="middle" x="631" y="-114.45" font-family="Helvetica,sans-Serif" font-size="14.00">samples = 2314</text>
<text text-anchor="middle" x="631" y="-97.2" font-family="Helvetica,sans-Serif" font-size="14.00">value = [916, 2789]</text>
<text text-anchor="middle" x="631" y="-79.95" font-family="Helvetica,sans-Serif" font-size="14.00">class = Plant</text>
</g>
<!-- 9347&#45;&gt;12023 -->
<g id="edge13" class="edge">
<title>9347&#45;&gt;12023</title>
<path fill="none" stroke="black" d="M574.77,-202.07C580.63,-193.54 586.8,-184.54 592.82,-175.77"/>
<polygon fill="black" stroke="black" points="595.65,-177.83 598.42,-167.61 589.88,-173.87 595.65,-177.83"/>
</g>
<!-- 9349 -->
<g id="node12" class="node">
<title>9349</title>
<path fill="#c0c0c0" stroke="black" d="M431,-36C431,-36 401,-36 401,-36 395,-36 389,-30 389,-24 389,-24 389,-12 389,-12 389,-6 395,0 401,0 401,0 431,0 431,0 437,0 443,-6 443,-12 443,-12 443,-24 443,-24 443,-30 437,-36 431,-36"/>
<text text-anchor="middle" x="416" y="-13.32" font-family="Helvetica,sans-Serif" font-size="14.00">(...)</text>
</g>
<!-- 9348&#45;&gt;9349 -->
<g id="edge11" class="edge">
<title>9348&#45;&gt;9349</title>
<path fill="none" stroke="black" d="M434.63,-71.75C431.61,-63.22 428.56,-54.57 425.82,-46.8"/>
<polygon fill="black" stroke="black" points="429.2,-45.86 422.57,-37.6 422.6,-48.19 429.2,-45.86"/>
</g>
<!-- 11296 -->
<g id="node13" class="node">
<title>11296</title>
<path fill="#c0c0c0" stroke="black" d="M503,-36C503,-36 473,-36 473,-36 467,-36 461,-30 461,-24 461,-24 461,-12 461,-12 461,-6 467,0 473,0 473,0 503,0 503,0 509,0 515,-6 515,-12 515,-12 515,-24 515,-24 515,-30 509,-36 503,-36"/>
<text text-anchor="middle" x="488" y="-13.32" font-family="Helvetica,sans-Serif" font-size="14.00">(...)</text>
</g>
<!-- 9348&#45;&gt;11296 -->
<g id="edge12" class="edge">
<title>9348&#45;&gt;11296</title>
<path fill="none" stroke="black" d="M468.31,-71.75C471.49,-63.22 474.72,-54.57 477.62,-46.8"/>
<polygon fill="black" stroke="black" points="480.84,-48.18 481.06,-37.59 474.28,-45.74 480.84,-48.18"/>
</g>
<!-- 12024 -->
<g id="node15" class="node">
<title>12024</title>
<path fill="#c0c0c0" stroke="black" d="M592,-36C592,-36 562,-36 562,-36 556,-36 550,-30 550,-24 550,-24 550,-12 550,-12 550,-6 556,0 562,0 562,0 592,0 592,0 598,0 604,-6 604,-12 604,-12 604,-24 604,-24 604,-30 598,-36 592,-36"/>
<text text-anchor="middle" x="577" y="-13.32" font-family="Helvetica,sans-Serif" font-size="14.00">(...)</text>
</g>
<!-- 12023&#45;&gt;12024 -->
<g id="edge14" class="edge">
<title>12023&#45;&gt;12024</title>
<path fill="none" stroke="black" d="M605.74,-71.75C600.98,-63.03 596.16,-54.16 591.85,-46.26"/>
<polygon fill="black" stroke="black" points="594.94,-44.61 587.08,-37.5 588.79,-47.96 594.94,-44.61"/>
</g>
<!-- 12533 -->
<g id="node16" class="node">
<title>12533</title>
<path fill="#c0c0c0" stroke="black" d="M664,-36C664,-36 634,-36 634,-36 628,-36 622,-30 622,-24 622,-24 622,-12 622,-12 622,-6 628,0 634,0 634,0 664,0 664,0 670,0 676,-6 676,-12 676,-12 676,-24 676,-24 676,-30 670,-36 664,-36"/>
<text text-anchor="middle" x="649" y="-13.32" font-family="Helvetica,sans-Serif" font-size="14.00">(...)</text>
</g>
<!-- 12023&#45;&gt;12533 -->
<g id="edge15" class="edge">
<title>12023&#45;&gt;12533</title>
<path fill="none" stroke="black" d="M639.42,-71.75C640.93,-63.42 642.47,-54.97 643.85,-47.34"/>
<polygon fill="black" stroke="black" points="647.27,-48.13 645.61,-37.66 640.38,-46.88 647.27,-48.13"/>
</g>
<!-- 12797 -->
<g id="node18" class="node">
<title>12797</title>
<path fill="#f1ba92" stroke="black" d="M967,-296.5C967,-296.5 825,-296.5 825,-296.5 819,-296.5 813,-290.5 813,-284.5 813,-284.5 813,-214.25 813,-214.25 813,-208.25 819,-202.25 825,-202.25 825,-202.25 967,-202.25 967,-202.25 973,-202.25 979,-208.25 979,-214.25 979,-214.25 979,-284.5 979,-284.5 979,-290.5 973,-296.5 967,-296.5"/>
<text text-anchor="middle" x="896" y="-279.2" font-family="Helvetica,sans-Serif" font-size="14.00">8_C &lt;= 0.5</text>
<text text-anchor="middle" x="896" y="-261.95" font-family="Helvetica,sans-Serif" font-size="14.00">entropy = 0.894</text>
<text text-anchor="middle" x="896" y="-244.7" font-family="Helvetica,sans-Serif" font-size="14.00">samples = 6635</text>
<text text-anchor="middle" x="896" y="-227.45" font-family="Helvetica,sans-Serif" font-size="14.00">value = [7154, 3220]</text>
<text text-anchor="middle" x="896" y="-210.2" font-family="Helvetica,sans-Serif" font-size="14.00">class = Animal</text>
</g>
<!-- 12796&#45;&gt;12797 -->
<g id="edge17" class="edge">
<title>12796&#45;&gt;12797</title>
<path fill="none" stroke="black" d="M896,-332.32C896,-324.42 896,-316.13 896,-307.98"/>
<polygon fill="black" stroke="black" points="899.5,-308.12 896,-298.12 892.5,-308.12 899.5,-308.12"/>
</g>
<!-- 15942 -->
<g id="node25" class="node">
<title>15942</title>
<path fill="#eaf4fc" stroke="black" d="M1237,-296.5C1237,-296.5 1095,-296.5 1095,-296.5 1089,-296.5 1083,-290.5 1083,-284.5 1083,-284.5 1083,-214.25 1083,-214.25 1083,-208.25 1089,-202.25 1095,-202.25 1095,-202.25 1237,-202.25 1237,-202.25 1243,-202.25 1249,-208.25 1249,-214.25 1249,-214.25 1249,-284.5 1249,-284.5 1249,-290.5 1243,-296.5 1237,-296.5"/>
<text text-anchor="middle" x="1166" y="-279.2" font-family="Helvetica,sans-Serif" font-size="14.00">7_A &lt;= 0.5</text>
<text text-anchor="middle" x="1166" y="-261.95" font-family="Helvetica,sans-Serif" font-size="14.00">entropy = 0.998</text>
<text text-anchor="middle" x="1166" y="-244.7" font-family="Helvetica,sans-Serif" font-size="14.00">samples = 2426</text>
<text text-anchor="middle" x="1166" y="-227.45" font-family="Helvetica,sans-Serif" font-size="14.00">value = [1794, 2011]</text>
<text text-anchor="middle" x="1166" y="-210.2" font-family="Helvetica,sans-Serif" font-size="14.00">class = Plant</text>
</g>
<!-- 12796&#45;&gt;15942 -->
<g id="edge24" class="edge">
<title>12796&#45;&gt;15942</title>
<path fill="none" stroke="black" d="M979.21,-339.1C1008.72,-325.08 1042.13,-309.21 1072.45,-294.81"/>
<polygon fill="black" stroke="black" points="1073.7,-298.09 1081.23,-290.64 1070.7,-291.77 1073.7,-298.09"/>
</g>
<!-- 12798 -->
<g id="node19" class="node">
<title>12798</title>
<path fill="#f3c7a7" stroke="black" d="M882,-166.25C882,-166.25 740,-166.25 740,-166.25 734,-166.25 728,-160.25 728,-154.25 728,-154.25 728,-84 728,-84 728,-78 734,-72 740,-72 740,-72 882,-72 882,-72 888,-72 894,-78 894,-84 894,-84 894,-154.25 894,-154.25 894,-160.25 888,-166.25 882,-166.25"/>
<text text-anchor="middle" x="811" y="-148.95" font-family="Helvetica,sans-Serif" font-size="14.00">22_U &lt;= 0.5</text>
<text text-anchor="middle" x="811" y="-131.7" font-family="Helvetica,sans-Serif" font-size="14.00">entropy = 0.94</text>
<text text-anchor="middle" x="811" y="-114.45" font-family="Helvetica,sans-Serif" font-size="14.00">samples = 4847</text>
<text text-anchor="middle" x="811" y="-97.2" font-family="Helvetica,sans-Serif" font-size="14.00">value = [4865, 2701]</text>
<text text-anchor="middle" x="811" y="-79.95" font-family="Helvetica,sans-Serif" font-size="14.00">class = Animal</text>
</g>
<!-- 12797&#45;&gt;12798 -->
<g id="edge18" class="edge">
<title>12797&#45;&gt;12798</title>
<path fill="none" stroke="black" d="M865.31,-202.07C859.66,-193.54 853.7,-184.54 847.88,-175.77"/>
<polygon fill="black" stroke="black" points="850.92,-174.02 842.48,-167.62 845.09,-177.89 850.92,-174.02"/>
</g>
<!-- 15313 -->
<g id="node22" class="node">
<title>15313</title>
<path fill="#eb9e66" stroke="black" d="M1057.5,-166.25C1057.5,-166.25 924.5,-166.25 924.5,-166.25 918.5,-166.25 912.5,-160.25 912.5,-154.25 912.5,-154.25 912.5,-84 912.5,-84 912.5,-78 918.5,-72 924.5,-72 924.5,-72 1057.5,-72 1057.5,-72 1063.5,-72 1069.5,-78 1069.5,-84 1069.5,-84 1069.5,-154.25 1069.5,-154.25 1069.5,-160.25 1063.5,-166.25 1057.5,-166.25"/>
<text text-anchor="middle" x="991" y="-148.95" font-family="Helvetica,sans-Serif" font-size="14.00">7_U &lt;= 0.5</text>
<text text-anchor="middle" x="991" y="-131.7" font-family="Helvetica,sans-Serif" font-size="14.00">entropy = 0.691</text>
<text text-anchor="middle" x="991" y="-114.45" font-family="Helvetica,sans-Serif" font-size="14.00">samples = 1788</text>
<text text-anchor="middle" x="991" y="-97.2" font-family="Helvetica,sans-Serif" font-size="14.00">value = [2289, 519]</text>
<text text-anchor="middle" x="991" y="-79.95" font-family="Helvetica,sans-Serif" font-size="14.00">class = Animal</text>
</g>
<!-- 12797&#45;&gt;15313 -->
<g id="edge21" class="edge">
<title>12797&#45;&gt;15313</title>
<path fill="none" stroke="black" d="M930.3,-202.07C936.69,-193.45 943.42,-184.35 949.99,-175.49"/>
<polygon fill="black" stroke="black" points="952.71,-177.69 955.85,-167.57 947.09,-173.53 952.71,-177.69"/>
</g>
<!-- 12799 -->
<g id="node20" class="node">
<title>12799</title>
<path fill="#c0c0c0" stroke="black" d="M772,-36C772,-36 742,-36 742,-36 736,-36 730,-30 730,-24 730,-24 730,-12 730,-12 730,-6 736,0 742,0 742,0 772,0 772,0 778,0 784,-6 784,-12 784,-12 784,-24 784,-24 784,-30 778,-36 772,-36"/>
<text text-anchor="middle" x="757" y="-13.32" font-family="Helvetica,sans-Serif" font-size="14.00">(...)</text>
</g>
<!-- 12798&#45;&gt;12799 -->
<g id="edge19" class="edge">
<title>12798&#45;&gt;12799</title>
<path fill="none" stroke="black" d="M785.74,-71.75C780.98,-63.03 776.16,-54.16 771.85,-46.26"/>
<polygon fill="black" stroke="black" points="774.94,-44.61 767.08,-37.5 768.79,-47.96 774.94,-44.61"/>
</g>
<!-- 15062 -->
<g id="node21" class="node">
<title>15062</title>
<path fill="#c0c0c0" stroke="black" d="M844,-36C844,-36 814,-36 814,-36 808,-36 802,-30 802,-24 802,-24 802,-12 802,-12 802,-6 808,0 814,0 814,0 844,0 844,0 850,0 856,-6 856,-12 856,-12 856,-24 856,-24 856,-30 850,-36 844,-36"/>
<text text-anchor="middle" x="829" y="-13.32" font-family="Helvetica,sans-Serif" font-size="14.00">(...)</text>
</g>
<!-- 12798&#45;&gt;15062 -->
<g id="edge20" class="edge">
<title>12798&#45;&gt;15062</title>
<path fill="none" stroke="black" d="M819.42,-71.75C820.93,-63.42 822.47,-54.97 823.85,-47.34"/>
<polygon fill="black" stroke="black" points="827.27,-48.13 825.61,-37.66 820.38,-46.88 827.27,-48.13"/>
</g>
<!-- 15314 -->
<g id="node23" class="node">
<title>15314</title>
<path fill="#c0c0c0" stroke="black" d="M949,-36C949,-36 919,-36 919,-36 913,-36 907,-30 907,-24 907,-24 907,-12 907,-12 907,-6 913,0 919,0 919,0 949,0 949,0 955,0 961,-6 961,-12 961,-12 961,-24 961,-24 961,-30 955,-36 949,-36"/>
<text text-anchor="middle" x="934" y="-13.32" font-family="Helvetica,sans-Serif" font-size="14.00">(...)</text>
</g>
<!-- 15313&#45;&gt;15314 -->
<g id="edge22" class="edge">
<title>15313&#45;&gt;15314</title>
<path fill="none" stroke="black" d="M964.34,-71.75C959.26,-62.93 954.1,-53.96 949.52,-45.99"/>
<polygon fill="black" stroke="black" points="952.65,-44.41 944.63,-37.48 946.58,-47.9 952.65,-44.41"/>
</g>
<!-- 15797 -->
<g id="node24" class="node">
<title>15797</title>
<path fill="#c0c0c0" stroke="black" d="M1021,-36C1021,-36 991,-36 991,-36 985,-36 979,-30 979,-24 979,-24 979,-12 979,-12 979,-6 985,0 991,0 991,0 1021,0 1021,0 1027,0 1033,-6 1033,-12 1033,-12 1033,-24 1033,-24 1033,-30 1027,-36 1021,-36"/>
<text text-anchor="middle" x="1006" y="-13.32" font-family="Helvetica,sans-Serif" font-size="14.00">(...)</text>
</g>
<!-- 15313&#45;&gt;15797 -->
<g id="edge23" class="edge">
<title>15313&#45;&gt;15797</title>
<path fill="none" stroke="black" d="M998.02,-71.75C999.28,-63.42 1000.56,-54.97 1001.71,-47.34"/>
<polygon fill="black" stroke="black" points="1005.14,-48.08 1003.17,-37.67 998.22,-47.03 1005.14,-48.08"/>
</g>
<!-- 15943 -->
<g id="node26" class="node">
<title>15943</title>
<path fill="#f1bb95" stroke="black" d="M1232.5,-166.25C1232.5,-166.25 1099.5,-166.25 1099.5,-166.25 1093.5,-166.25 1087.5,-160.25 1087.5,-154.25 1087.5,-154.25 1087.5,-84 1087.5,-84 1087.5,-78 1093.5,-72 1099.5,-72 1099.5,-72 1232.5,-72 1232.5,-72 1238.5,-72 1244.5,-78 1244.5,-84 1244.5,-84 1244.5,-154.25 1244.5,-154.25 1244.5,-160.25 1238.5,-166.25 1232.5,-166.25"/>
<text text-anchor="middle" x="1166" y="-148.95" font-family="Helvetica,sans-Serif" font-size="14.00">21_U &lt;= 0.5</text>
<text text-anchor="middle" x="1166" y="-131.7" font-family="Helvetica,sans-Serif" font-size="14.00">entropy = 0.9</text>
<text text-anchor="middle" x="1166" y="-114.45" font-family="Helvetica,sans-Serif" font-size="14.00">samples = 1414</text>
<text text-anchor="middle" x="1166" y="-97.2" font-family="Helvetica,sans-Serif" font-size="14.00">value = [1519, 702]</text>
<text text-anchor="middle" x="1166" y="-79.95" font-family="Helvetica,sans-Serif" font-size="14.00">class = Animal</text>
</g>
<!-- 15942&#45;&gt;15943 -->
<g id="edge25" class="edge">
<title>15942&#45;&gt;15943</title>
<path fill="none" stroke="black" d="M1166,-202.07C1166,-194.17 1166,-185.88 1166,-177.73"/>
<polygon fill="black" stroke="black" points="1169.5,-177.87 1166,-167.87 1162.5,-177.87 1169.5,-177.87"/>
</g>
<!-- 16606 -->
<g id="node29" class="node">
<title>16606</title>
<path fill="#63b2ea" stroke="black" d="M1407.5,-166.25C1407.5,-166.25 1274.5,-166.25 1274.5,-166.25 1268.5,-166.25 1262.5,-160.25 1262.5,-154.25 1262.5,-154.25 1262.5,-84 1262.5,-84 1262.5,-78 1268.5,-72 1274.5,-72 1274.5,-72 1407.5,-72 1407.5,-72 1413.5,-72 1419.5,-78 1419.5,-84 1419.5,-84 1419.5,-154.25 1419.5,-154.25 1419.5,-160.25 1413.5,-166.25 1407.5,-166.25"/>
<text text-anchor="middle" x="1341" y="-148.95" font-family="Helvetica,sans-Serif" font-size="14.00">17_U &lt;= 0.5</text>
<text text-anchor="middle" x="1341" y="-131.7" font-family="Helvetica,sans-Serif" font-size="14.00">entropy = 0.666</text>
<text text-anchor="middle" x="1341" y="-114.45" font-family="Helvetica,sans-Serif" font-size="14.00">samples = 1012</text>
<text text-anchor="middle" x="1341" y="-97.2" font-family="Helvetica,sans-Serif" font-size="14.00">value = [275, 1309]</text>
<text text-anchor="middle" x="1341" y="-79.95" font-family="Helvetica,sans-Serif" font-size="14.00">class = Plant</text>
</g>
<!-- 15942&#45;&gt;16606 -->
<g id="edge28" class="edge">
<title>15942&#45;&gt;16606</title>
<path fill="none" stroke="black" d="M1229.18,-202.07C1241.99,-192.69 1255.55,-182.75 1268.64,-173.15"/>
<polygon fill="black" stroke="black" points="1270.4,-176.2 1276.4,-167.47 1266.26,-170.56 1270.4,-176.2"/>
</g>
<!-- 15944 -->
<g id="node27" class="node">
<title>15944</title>
<path fill="#c0c0c0" stroke="black" d="M1142,-36C1142,-36 1112,-36 1112,-36 1106,-36 1100,-30 1100,-24 1100,-24 1100,-12 1100,-12 1100,-6 1106,0 1112,0 1112,0 1142,0 1142,0 1148,0 1154,-6 1154,-12 1154,-12 1154,-24 1154,-24 1154,-30 1148,-36 1142,-36"/>
<text text-anchor="middle" x="1127" y="-13.32" font-family="Helvetica,sans-Serif" font-size="14.00">(...)</text>
</g>
<!-- 15943&#45;&gt;15944 -->
<g id="edge26" class="edge">
<title>15943&#45;&gt;15944</title>
<path fill="none" stroke="black" d="M1147.76,-71.75C1144.4,-63.22 1140.99,-54.57 1137.94,-46.8"/>
<polygon fill="black" stroke="black" points="1141.23,-45.61 1134.31,-37.58 1134.71,-48.17 1141.23,-45.61"/>
</g>
<!-- 16509 -->
<g id="node28" class="node">
<title>16509</title>
<path fill="#c0c0c0" stroke="black" d="M1214,-36C1214,-36 1184,-36 1184,-36 1178,-36 1172,-30 1172,-24 1172,-24 1172,-12 1172,-12 1172,-6 1178,0 1184,0 1184,0 1214,0 1214,0 1220,0 1226,-6 1226,-12 1226,-12 1226,-24 1226,-24 1226,-30 1220,-36 1214,-36"/>
<text text-anchor="middle" x="1199" y="-13.32" font-family="Helvetica,sans-Serif" font-size="14.00">(...)</text>
</g>
<!-- 15943&#45;&gt;16509 -->
<g id="edge27" class="edge">
<title>15943&#45;&gt;16509</title>
<path fill="none" stroke="black" d="M1181.44,-71.75C1184.24,-63.32 1187.09,-54.77 1189.66,-47.07"/>
<polygon fill="black" stroke="black" points="1192.97,-48.2 1192.8,-37.61 1186.33,-45.99 1192.97,-48.2"/>
</g>
<!-- 16607 -->
<g id="node30" class="node">
<title>16607</title>
<path fill="#c0c0c0" stroke="black" d="M1320,-36C1320,-36 1290,-36 1290,-36 1284,-36 1278,-30 1278,-24 1278,-24 1278,-12 1278,-12 1278,-6 1284,0 1290,0 1290,0 1320,0 1320,0 1326,0 1332,-6 1332,-12 1332,-12 1332,-24 1332,-24 1332,-30 1326,-36 1320,-36"/>
<text text-anchor="middle" x="1305" y="-13.32" font-family="Helvetica,sans-Serif" font-size="14.00">(...)</text>
</g>
<!-- 16606&#45;&gt;16607 -->
<g id="edge29" class="edge">
<title>16606&#45;&gt;16607</title>
<path fill="none" stroke="black" d="M1324.16,-71.75C1321.06,-63.22 1317.92,-54.57 1315.1,-46.8"/>
<polygon fill="black" stroke="black" points="1318.46,-45.8 1311.75,-37.6 1311.88,-48.19 1318.46,-45.8"/>
</g>
<!-- 16758 -->
<g id="node31" class="node">
<title>16758</title>
<path fill="#c0c0c0" stroke="black" d="M1392,-36C1392,-36 1362,-36 1362,-36 1356,-36 1350,-30 1350,-24 1350,-24 1350,-12 1350,-12 1350,-6 1356,0 1362,0 1362,0 1392,0 1392,0 1398,0 1404,-6 1404,-12 1404,-12 1404,-24 1404,-24 1404,-30 1398,-36 1392,-36"/>
<text text-anchor="middle" x="1377" y="-13.32" font-family="Helvetica,sans-Serif" font-size="14.00">(...)</text>
</g>
<!-- 16606&#45;&gt;16758 -->
<g id="edge30" class="edge">
<title>16606&#45;&gt;16758</title>
<path fill="none" stroke="black" d="M1357.84,-71.75C1360.94,-63.22 1364.08,-54.57 1366.9,-46.8"/>
<polygon fill="black" stroke="black" points="1370.12,-48.19 1370.25,-37.6 1363.54,-45.8 1370.12,-48.19"/>
</g>
</g>
</svg>
