<?xml version="1.0" encoding="UTF-8" standalone="no"?>
<!DOCTYPE svg PUBLIC "-//W3C//DTD SVG 1.1//EN"
 "http://www.w3.org/Graphics/SVG/1.1/DTD/svg11.dtd">
<!-- Generated by graphviz version 12.0.0 (20240803.0821)
 -->
<!-- Title: Tree Pages: 1 -->
<svg width="1418pt" height="565pt"
 viewBox="0.00 0.00 1418.00 565.00" xmlns="http://www.w3.org/2000/svg" xmlns:xlink="http://www.w3.org/1999/xlink">
<g id="graph0" class="graph" transform="scale(1 1) rotate(0) translate(4 561)">
<title>Tree</title>
<polygon fill="white" stroke="none" points="-4,4 -4,-561 1414,-561 1414,4 -4,4"/>
<!-- 0 -->
<g id="node1" class="node">
<title>0</title>
<path fill="#fffdfd" stroke="black" d="M789,-557C789,-557 629,-557 629,-557 623,-557 617,-551 617,-545 617,-545 617,-474.75 617,-474.75 617,-468.75 623,-462.75 629,-462.75 629,-462.75 789,-462.75 789,-462.75 795,-462.75 801,-468.75 801,-474.75 801,-474.75 801,-545 801,-545 801,-551 795,-557 789,-557"/>
<text text-anchor="middle" x="709" y="-539.7" font-family="Helvetica,sans-Serif" font-size="14.00">1_U &lt;= 0.5</text>
<text text-anchor="middle" x="709" y="-522.45" font-family="Helvetica,sans-Serif" font-size="14.00">entropy = 1.0</text>
<text text-anchor="middle" x="709" y="-505.2" font-family="Helvetica,sans-Serif" font-size="14.00">samples = 38259</text>
<text text-anchor="middle" x="709" y="-487.95" font-family="Helvetica,sans-Serif" font-size="14.00">value = [30364, 29981]</text>
<text text-anchor="middle" x="709" y="-470.7" font-family="Helvetica,sans-Serif" font-size="14.00">class = Animal</text>
</g>
<!-- 1 -->
<g id="node2" class="node">
<title>1</title>
<path fill="#f7d9c3" stroke="black" d="M612,-426.75C612,-426.75 452,-426.75 452,-426.75 446,-426.75 440,-420.75 440,-414.75 440,-414.75 440,-344.5 440,-344.5 440,-338.5 446,-332.5 452,-332.5 452,-332.5 612,-332.5 612,-332.5 618,-332.5 624,-338.5 624,-344.5 624,-344.5 624,-414.75 624,-414.75 624,-420.75 618,-426.75 612,-426.75"/>
<text text-anchor="middle" x="532" y="-409.45" font-family="Helvetica,sans-Serif" font-size="14.00">19_U &lt;= 0.5</text>
<text text-anchor="middle" x="532" y="-392.2" font-family="Helvetica,sans-Serif" font-size="14.00">entropy = 0.977</text>
<text text-anchor="middle" x="532" y="-374.95" font-family="Helvetica,sans-Serif" font-size="14.00">samples = 17924</text>
<text text-anchor="middle" x="532" y="-357.7" font-family="Helvetica,sans-Serif" font-size="14.00">value = [16654, 11589]</text>
<text text-anchor="middle" x="532" y="-340.45" font-family="Helvetica,sans-Serif" font-size="14.00">class = Animal</text>
</g>
<!-- 0&#45;&gt;1 -->
<g id="edge1" class="edge">
<title>0&#45;&gt;1</title>
<path fill="none" stroke="black" d="M644.85,-462.39C631.99,-453.07 618.38,-443.22 605.24,-433.69"/>
<polygon fill="black" stroke="black" points="607.61,-431.09 597.46,-428.05 603.5,-436.75 607.61,-431.09"/>
<text text-anchor="middle" x="600.17" y="-447.18" font-family="Helvetica,sans-Serif" font-size="14.00">True</text>
</g>
<!-- 9278 -->
<g id="node17" class="node">
<title>9278</title>
<path fill="#cde6f8" stroke="black" d="M976,-426.75C976,-426.75 816,-426.75 816,-426.75 810,-426.75 804,-420.75 804,-414.75 804,-414.75 804,-344.5 804,-344.5 804,-338.5 810,-332.5 816,-332.5 816,-332.5 976,-332.5 976,-332.5 982,-332.5 988,-338.5 988,-344.5 988,-344.5 988,-414.75 988,-414.75 988,-420.75 982,-426.75 976,-426.75"/>
<text text-anchor="middle" x="896" y="-409.45" font-family="Helvetica,sans-Serif" font-size="14.00">23_G &lt;= 0.5</text>
<text text-anchor="middle" x="896" y="-392.2" font-family="Helvetica,sans-Serif" font-size="14.00">entropy = 0.985</text>
<text text-anchor="middle" x="896" y="-374.95" font-family="Helvetica,sans-Serif" font-size="14.00">samples = 20335</text>
<text text-anchor="middle" x="896" y="-357.7" font-family="Helvetica,sans-Serif" font-size="14.00">value = [13710, 18392]</text>
<text text-anchor="middle" x="896" y="-340.45" font-family="Helvetica,sans-Serif" font-size="14.00">class = Plant</text>
</g>
<!-- 0&#45;&gt;9278 -->
<g id="edge16" class="edge">
<title>0&#45;&gt;9278</title>
<path fill="none" stroke="black" d="M776.78,-462.39C790.49,-452.98 805.01,-443.03 819.02,-433.42"/>
<polygon fill="black" stroke="black" points="820.63,-436.56 826.89,-428.02 816.67,-430.79 820.63,-436.56"/>
<text text-anchor="middle" x="823.56" y="-447.07" font-family="Helvetica,sans-Serif" font-size="14.00">False</text>
</g>
<!-- 2 -->
<g id="node3" class="node">
<title>2</title>
<path fill="#fbeade" stroke="black" d="M342.5,-296.5C342.5,-296.5 191.5,-296.5 191.5,-296.5 185.5,-296.5 179.5,-290.5 179.5,-284.5 179.5,-284.5 179.5,-214.25 179.5,-214.25 179.5,-208.25 185.5,-202.25 191.5,-202.25 191.5,-202.25 342.5,-202.25 342.5,-202.25 348.5,-202.25 354.5,-208.25 354.5,-214.25 354.5,-214.25 354.5,-284.5 354.5,-284.5 354.5,-290.5 348.5,-296.5 342.5,-296.5"/>
<text text-anchor="middle" x="267" y="-279.2" font-family="Helvetica,sans-Serif" font-size="14.00">17_A &lt;= 0.5</text>
<text text-anchor="middle" x="267" y="-261.95" font-family="Helvetica,sans-Serif" font-size="14.00">entropy = 0.994</text>
<text text-anchor="middle" x="267" y="-244.7" font-family="Helvetica,sans-Serif" font-size="14.00">samples = 13213</text>
<text text-anchor="middle" x="267" y="-227.45" font-family="Helvetica,sans-Serif" font-size="14.00">value = [11353, 9463]</text>
<text text-anchor="middle" x="267" y="-210.2" font-family="Helvetica,sans-Serif" font-size="14.00">class = Animal</text>
</g>
<!-- 1&#45;&gt;2 -->
<g id="edge2" class="edge">
<title>1&#45;&gt;2</title>
<path fill="none" stroke="black" d="M439.69,-333.95C415.64,-322.31 389.64,-309.73 365.29,-297.95"/>
<polygon fill="black" stroke="black" points="366.86,-294.81 356.33,-293.61 363.81,-301.12 366.86,-294.81"/>
</g>
<!-- 6891 -->
<g id="node10" class="node">
<title>6891</title>
<path fill="#efb488" stroke="black" d="M603,-296.5C603,-296.5 461,-296.5 461,-296.5 455,-296.5 449,-290.5 449,-284.5 449,-284.5 449,-214.25 449,-214.25 449,-208.25 455,-202.25 461,-202.25 461,-202.25 603,-202.25 603,-202.25 609,-202.25 615,-208.25 615,-214.25 615,-214.25 615,-284.5 615,-284.5 615,-290.5 609,-296.5 603,-296.5"/>
<text text-anchor="middle" x="532" y="-279.2" font-family="Helvetica,sans-Serif" font-size="14.00">18_G &lt;= 0.5</text>
<text text-anchor="middle" x="532" y="-261.95" font-family="Helvetica,sans-Serif" font-size="14.00">entropy = 0.864</text>
<text text-anchor="middle" x="532" y="-244.7" font-family="Helvetica,sans-Serif" font-size="14.00">samples = 4711</text>
<text text-anchor="middle" x="532" y="-227.45" font-family="Helvetica,sans-Serif" font-size="14.00">value = [5301, 2126]</text>
<text text-anchor="middle" x="532" y="-210.2" font-family="Helvetica,sans-Serif" font-size="14.00">class = Animal</text>
</g>
<!-- 1&#45;&gt;6891 -->
<g id="edge9" class="edge">
<title>1&#45;&gt;6891</title>
<path fill="none" stroke="black" d="M532,-332.32C532,-324.42 532,-316.13 532,-307.98"/>
<polygon fill="black" stroke="black" points="535.5,-308.12 532,-298.12 528.5,-308.12 535.5,-308.12"/>
</g>
<!-- 3 -->
<g id="node4" class="node">
<title>3</title>
<path fill="#f9e3d3" stroke="black" d="M154,-166.25C154,-166.25 12,-166.25 12,-166.25 6,-166.25 0,-160.25 0,-154.25 0,-154.25 0,-84 0,-84 0,-78 6,-72 12,-72 12,-72 154,-72 154,-72 160,-72 166,-78 166,-84 166,-84 166,-154.25 166,-154.25 166,-160.25 160,-166.25 154,-166.25"/>
<text text-anchor="middle" x="83" y="-148.95" font-family="Helvetica,sans-Serif" font-size="14.00">22_C &lt;= 0.5</text>
<text text-anchor="middle" x="83" y="-131.7" font-family="Helvetica,sans-Serif" font-size="14.00">entropy = 0.989</text>
<text text-anchor="middle" x="83" y="-114.45" font-family="Helvetica,sans-Serif" font-size="14.00">samples = 10442</text>
<text text-anchor="middle" x="83" y="-97.2" font-family="Helvetica,sans-Serif" font-size="14.00">value = [9240, 7172]</text>
<text text-anchor="middle" x="83" y="-79.95" font-family="Helvetica,sans-Serif" font-size="14.00">class = Animal</text>
</g>
<!-- 2&#45;&gt;3 -->
<g id="edge3" class="edge">
<title>2&#45;&gt;3</title>
<path fill="none" stroke="black" d="M200.31,-201.89C186.94,-192.57 172.8,-182.72 159.14,-173.19"/>
<polygon fill="black" stroke="black" points="161.22,-170.38 151.01,-167.53 157.21,-176.12 161.22,-170.38"/>
</g>
<!-- 5304 -->
<g id="node7" class="node">
<title>5304</title>
<path fill="#f0f7fd" stroke="black" d="M338,-166.25C338,-166.25 196,-166.25 196,-166.25 190,-166.25 184,-160.25 184,-154.25 184,-154.25 184,-84 184,-84 184,-78 190,-72 196,-72 196,-72 338,-72 338,-72 344,-72 350,-78 350,-84 350,-84 350,-154.25 350,-154.25 350,-160.25 344,-166.25 338,-166.25"/>
<text text-anchor="middle" x="267" y="-148.95" font-family="Helvetica,sans-Serif" font-size="14.00">1_A &lt;= 0.5</text>
<text text-anchor="middle" x="267" y="-131.7" font-family="Helvetica,sans-Serif" font-size="14.00">entropy = 0.999</text>
<text text-anchor="middle" x="267" y="-114.45" font-family="Helvetica,sans-Serif" font-size="14.00">samples = 2771</text>
<text text-anchor="middle" x="267" y="-97.2" font-family="Helvetica,sans-Serif" font-size="14.00">value = [2113, 2291]</text>
<text text-anchor="middle" x="267" y="-79.95" font-family="Helvetica,sans-Serif" font-size="14.00">class = Plant</text>
</g>
<!-- 2&#45;&gt;5304 -->
<g id="edge6" class="edge">
<title>2&#45;&gt;5304</title>
<path fill="none" stroke="black" d="M267,-202.07C267,-194.17 267,-185.88 267,-177.73"/>
<polygon fill="black" stroke="black" points="270.5,-177.87 267,-167.87 263.5,-177.87 270.5,-177.87"/>
</g>
<!-- 4 -->
<g id="node5" class="node">
<title>4</title>
<path fill="#c0c0c0" stroke="black" d="M62,-36C62,-36 32,-36 32,-36 26,-36 20,-30 20,-24 20,-24 20,-12 20,-12 20,-6 26,0 32,0 32,0 62,0 62,0 68,0 74,-6 74,-12 74,-12 74,-24 74,-24 74,-30 68,-36 62,-36"/>
<text text-anchor="middle" x="47" y="-13.32" font-family="Helvetica,sans-Serif" font-size="14.00">(...)</text>
</g>
<!-- 3&#45;&gt;4 -->
<g id="edge4" class="edge">
<title>3&#45;&gt;4</title>
<path fill="none" stroke="black" d="M66.16,-71.75C63.06,-63.22 59.92,-54.57 57.1,-46.8"/>
<polygon fill="black" stroke="black" points="60.46,-45.8 53.75,-37.6 53.88,-48.19 60.46,-45.8"/>
</g>
<!-- 4715 -->
<g id="node6" class="node">
<title>4715</title>
<path fill="#c0c0c0" stroke="black" d="M134,-36C134,-36 104,-36 104,-36 98,-36 92,-30 92,-24 92,-24 92,-12 92,-12 92,-6 98,0 104,0 104,0 134,0 134,0 140,0 146,-6 146,-12 146,-12 146,-24 146,-24 146,-30 140,-36 134,-36"/>
<text text-anchor="middle" x="119" y="-13.32" font-family="Helvetica,sans-Serif" font-size="14.00">(...)</text>
</g>
<!-- 3&#45;&gt;4715 -->
<g id="edge5" class="edge">
<title>3&#45;&gt;4715</title>
<path fill="none" stroke="black" d="M99.84,-71.75C102.94,-63.22 106.08,-54.57 108.9,-46.8"/>
<polygon fill="black" stroke="black" points="112.12,-48.19 112.25,-37.6 105.54,-45.8 112.12,-48.19"/>
</g>
<!-- 5305 -->
<g id="node8" class="node">
<title>5305</title>
<path fill="#c0c0c0" stroke="black" d="M248,-36C248,-36 218,-36 218,-36 212,-36 206,-30 206,-24 206,-24 206,-12 206,-12 206,-6 212,0 218,0 218,0 248,0 248,0 254,0 260,-6 260,-12 260,-12 260,-24 260,-24 260,-30 254,-36 248,-36"/>
<text text-anchor="middle" x="233" y="-13.32" font-family="Helvetica,sans-Serif" font-size="14.00">(...)</text>
</g>
<!-- 5304&#45;&gt;5305 -->
<g id="edge7" class="edge">
<title>5304&#45;&gt;5305</title>
<path fill="none" stroke="black" d="M251.1,-71.75C248.17,-63.22 245.2,-54.57 242.53,-46.8"/>
<polygon fill="black" stroke="black" points="245.94,-45.93 239.38,-37.6 239.32,-48.2 245.94,-45.93"/>
</g>
<!-- 6156 -->
<g id="node9" class="node">
<title>6156</title>
<path fill="#c0c0c0" stroke="black" d="M320,-36C320,-36 290,-36 290,-36 284,-36 278,-30 278,-24 278,-24 278,-12 278,-12 278,-6 284,0 290,0 290,0 320,0 320,0 326,0 332,-6 332,-12 332,-12 332,-24 332,-24 332,-30 326,-36 320,-36"/>
<text text-anchor="middle" x="305" y="-13.32" font-family="Helvetica,sans-Serif" font-size="14.00">(...)</text>
</g>
<!-- 5304&#45;&gt;6156 -->
<g id="edge8" class="edge">
<title>5304&#45;&gt;6156</title>
<path fill="none" stroke="black" d="M284.78,-71.75C288.05,-63.22 291.37,-54.57 294.34,-46.8"/>
<polygon fill="black" stroke="black" points="297.56,-48.18 297.88,-37.59 291.03,-45.67 297.56,-48.18"/>
</g>
<!-- 6892 -->
<g id="node11" class="node">
<title>6892</title>
<path fill="#eeae80" stroke="black" d="M522,-166.25C522,-166.25 380,-166.25 380,-166.25 374,-166.25 368,-160.25 368,-154.25 368,-154.25 368,-84 368,-84 368,-78 374,-72 380,-72 380,-72 522,-72 522,-72 528,-72 534,-78 534,-84 534,-84 534,-154.25 534,-154.25 534,-160.25 528,-166.25 522,-166.25"/>
<text text-anchor="middle" x="451" y="-148.95" font-family="Helvetica,sans-Serif" font-size="14.00">22_U &lt;= 0.5</text>
<text text-anchor="middle" x="451" y="-131.7" font-family="Helvetica,sans-Serif" font-size="14.00">entropy = 0.833</text>
<text text-anchor="middle" x="451" y="-114.45" font-family="Helvetica,sans-Serif" font-size="14.00">samples = 3633</text>
<text text-anchor="middle" x="451" y="-97.2" font-family="Helvetica,sans-Serif" font-size="14.00">value = [4195, 1505]</text>
<text text-anchor="middle" x="451" y="-79.95" font-family="Helvetica,sans-Serif" font-size="14.00">class = Animal</text>
</g>
<!-- 6891&#45;&gt;6892 -->
<g id="edge10" class="edge">
<title>6891&#45;&gt;6892</title>
<path fill="none" stroke="black" d="M502.76,-202.07C497.42,-193.63 491.81,-184.74 486.32,-176.05"/>
<polygon fill="black" stroke="black" points="489.31,-174.22 481.01,-167.64 483.39,-177.96 489.31,-174.22"/>
</g>
<!-- 8665 -->
<g id="node14" class="node">
<title>8665</title>
<path fill="#f4c8a8" stroke="black" d="M697.5,-166.25C697.5,-166.25 564.5,-166.25 564.5,-166.25 558.5,-166.25 552.5,-160.25 552.5,-154.25 552.5,-154.25 552.5,-84 552.5,-84 552.5,-78 558.5,-72 564.5,-72 564.5,-72 697.5,-72 697.5,-72 703.5,-72 709.5,-78 709.5,-84 709.5,-84 709.5,-154.25 709.5,-154.25 709.5,-160.25 703.5,-166.25 697.5,-166.25"/>
<text text-anchor="middle" x="631" y="-148.95" font-family="Helvetica,sans-Serif" font-size="14.00">10_A &lt;= 0.5</text>
<text text-anchor="middle" x="631" y="-131.7" font-family="Helvetica,sans-Serif" font-size="14.00">entropy = 0.942</text>
<text text-anchor="middle" x="631" y="-114.45" font-family="Helvetica,sans-Serif" font-size="14.00">samples = 1078</text>
<text text-anchor="middle" x="631" y="-97.2" font-family="Helvetica,sans-Serif" font-size="14.00">value = [1106, 621]</text>
<text text-anchor="middle" x="631" y="-79.95" font-family="Helvetica,sans-Serif" font-size="14.00">class = Animal</text>
</g>
<!-- 6891&#45;&gt;8665 -->
<g id="edge13" class="edge">
<title>6891&#45;&gt;8665</title>
<path fill="none" stroke="black" d="M567.74,-202.07C574.47,-193.36 581.57,-184.16 588.48,-175.21"/>
<polygon fill="black" stroke="black" points="591.05,-177.61 594.39,-167.56 585.51,-173.33 591.05,-177.61"/>
</g>
<!-- 6893 -->
<g id="node12" class="node">
<title>6893</title>
<path fill="#c0c0c0" stroke="black" d="M412,-36C412,-36 382,-36 382,-36 376,-36 370,-30 370,-24 370,-24 370,-12 370,-12 370,-6 376,0 382,0 382,0 412,0 412,0 418,0 424,-6 424,-12 424,-12 424,-24 424,-24 424,-30 418,-36 412,-36"/>
<text text-anchor="middle" x="397" y="-13.32" font-family="Helvetica,sans-Serif" font-size="14.00">(...)</text>
</g>
<!-- 6892&#45;&gt;6893 -->
<g id="edge11" class="edge">
<title>6892&#45;&gt;6893</title>
<path fill="none" stroke="black" d="M425.74,-71.75C420.98,-63.03 416.16,-54.16 411.85,-46.26"/>
<polygon fill="black" stroke="black" points="414.94,-44.61 407.08,-37.5 408.79,-47.96 414.94,-44.61"/>
</g>
<!-- 8532 -->
<g id="node13" class="node">
<title>8532</title>
<path fill="#c0c0c0" stroke="black" d="M484,-36C484,-36 454,-36 454,-36 448,-36 442,-30 442,-24 442,-24 442,-12 442,-12 442,-6 448,0 454,0 454,0 484,0 484,0 490,0 496,-6 496,-12 496,-12 496,-24 496,-24 496,-30 490,-36 484,-36"/>
<text text-anchor="middle" x="469" y="-13.32" font-family="Helvetica,sans-Serif" font-size="14.00">(...)</text>
</g>
<!-- 6892&#45;&gt;8532 -->
<g id="edge12" class="edge">
<title>6892&#45;&gt;8532</title>
<path fill="none" stroke="black" d="M459.42,-71.75C460.93,-63.42 462.47,-54.97 463.85,-47.34"/>
<polygon fill="black" stroke="black" points="467.27,-48.13 465.61,-37.66 460.38,-46.88 467.27,-48.13"/>
</g>
<!-- 8666 -->
<g id="node15" class="node">
<title>8666</title>
<path fill="#c0c0c0" stroke="black" d="M592,-36C592,-36 562,-36 562,-36 556,-36 550,-30 550,-24 550,-24 550,-12 550,-12 550,-6 556,0 562,0 562,0 592,0 592,0 598,0 604,-6 604,-12 604,-12 604,-24 604,-24 604,-30 598,-36 592,-36"/>
<text text-anchor="middle" x="577" y="-13.32" font-family="Helvetica,sans-Serif" font-size="14.00">(...)</text>
</g>
<!-- 8665&#45;&gt;8666 -->
<g id="edge14" class="edge">
<title>8665&#45;&gt;8666</title>
<path fill="none" stroke="black" d="M605.74,-71.75C600.98,-63.03 596.16,-54.16 591.85,-46.26"/>
<polygon fill="black" stroke="black" points="594.94,-44.61 587.08,-37.5 588.79,-47.96 594.94,-44.61"/>
</g>
<!-- 9133 -->
<g id="node16" class="node">
<title>9133</title>
<path fill="#c0c0c0" stroke="black" d="M664,-36C664,-36 634,-36 634,-36 628,-36 622,-30 622,-24 622,-24 622,-12 622,-12 622,-6 628,0 634,0 634,0 664,0 664,0 670,0 676,-6 676,-12 676,-12 676,-24 676,-24 676,-30 670,-36 664,-36"/>
<text text-anchor="middle" x="649" y="-13.32" font-family="Helvetica,sans-Serif" font-size="14.00">(...)</text>
</g>
<!-- 8665&#45;&gt;9133 -->
<g id="edge15" class="edge">
<title>8665&#45;&gt;9133</title>
<path fill="none" stroke="black" d="M639.42,-71.75C640.93,-63.42 642.47,-54.97 643.85,-47.34"/>
<polygon fill="black" stroke="black" points="647.27,-48.13 645.61,-37.66 640.38,-46.88 647.27,-48.13"/>
</g>
<!-- 9279 -->
<g id="node18" class="node">
<title>9279</title>
<path fill="#c3e1f7" stroke="black" d="M976,-296.5C976,-296.5 816,-296.5 816,-296.5 810,-296.5 804,-290.5 804,-284.5 804,-284.5 804,-214.25 804,-214.25 804,-208.25 810,-202.25 816,-202.25 816,-202.25 976,-202.25 976,-202.25 982,-202.25 988,-208.25 988,-214.25 988,-214.25 988,-284.5 988,-284.5 988,-290.5 982,-296.5 976,-296.5"/>
<text text-anchor="middle" x="896" y="-279.2" font-family="Helvetica,sans-Serif" font-size="14.00">19_C &lt;= 0.5</text>
<text text-anchor="middle" x="896" y="-261.95" font-family="Helvetica,sans-Serif" font-size="14.00">entropy = 0.977</text>
<text text-anchor="middle" x="896" y="-244.7" font-family="Helvetica,sans-Serif" font-size="14.00">samples = 19426</text>
<text text-anchor="middle" x="896" y="-227.45" font-family="Helvetica,sans-Serif" font-size="14.00">value = [12605, 18066]</text>
<text text-anchor="middle" x="896" y="-210.2" font-family="Helvetica,sans-Serif" font-size="14.00">class = Plant</text>
</g>
<!-- 9278&#45;&gt;9279 -->
<g id="edge17" class="edge">
<title>9278&#45;&gt;9279</title>
<path fill="none" stroke="black" d="M896,-332.32C896,-324.42 896,-316.13 896,-307.98"/>
<polygon fill="black" stroke="black" points="899.5,-308.12 896,-298.12 892.5,-308.12 899.5,-308.12"/>
</g>
<!-- 16264 -->
<g id="node25" class="node">
<title>16264</title>
<path fill="#eda673" stroke="black" d="M1236.5,-296.5C1236.5,-296.5 1103.5,-296.5 1103.5,-296.5 1097.5,-296.5 1091.5,-290.5 1091.5,-284.5 1091.5,-284.5 1091.5,-214.25 1091.5,-214.25 1091.5,-208.25 1097.5,-202.25 1103.5,-202.25 1103.5,-202.25 1236.5,-202.25 1236.5,-202.25 1242.5,-202.25 1248.5,-208.25 1248.5,-214.25 1248.5,-214.25 1248.5,-284.5 1248.5,-284.5 1248.5,-290.5 1242.5,-296.5 1236.5,-296.5"/>
<text text-anchor="middle" x="1170" y="-279.2" font-family="Helvetica,sans-Serif" font-size="14.00">19_A &lt;= 0.5</text>
<text text-anchor="middle" x="1170" y="-261.95" font-family="Helvetica,sans-Serif" font-size="14.00">entropy = 0.774</text>
<text text-anchor="middle" x="1170" y="-244.7" font-family="Helvetica,sans-Serif" font-size="14.00">samples = 909</text>
<text text-anchor="middle" x="1170" y="-227.45" font-family="Helvetica,sans-Serif" font-size="14.00">value = [1105, 326]</text>
<text text-anchor="middle" x="1170" y="-210.2" font-family="Helvetica,sans-Serif" font-size="14.00">class = Animal</text>
</g>
<!-- 9278&#45;&gt;16264 -->
<g id="edge24" class="edge">
<title>9278&#45;&gt;16264</title>
<path fill="none" stroke="black" d="M988.38,-335.38C1018.26,-321.4 1051.32,-305.92 1080.95,-292.05"/>
<polygon fill="black" stroke="black" points="1082.34,-295.27 1089.91,-287.86 1079.37,-288.93 1082.34,-295.27"/>
</g>
<!-- 9280 -->
<g id="node19" class="node">
<title>9280</title>
<path fill="#fffdfc" stroke="black" d="M882,-166.25C882,-166.25 740,-166.25 740,-166.25 734,-166.25 728,-160.25 728,-154.25 728,-154.25 728,-84 728,-84 728,-78 734,-72 740,-72 740,-72 882,-72 882,-72 888,-72 894,-78 894,-84 894,-84 894,-154.25 894,-154.25 894,-160.25 888,-166.25 882,-166.25"/>
<text text-anchor="middle" x="811" y="-148.95" font-family="Helvetica,sans-Serif" font-size="14.00">19_A &lt;= 0.5</text>
<text text-anchor="middle" x="811" y="-131.7" font-family="Helvetica,sans-Serif" font-size="14.00">entropy = 1.0</text>
<text text-anchor="middle" x="811" y="-114.45" font-family="Helvetica,sans-Serif" font-size="14.00">samples = 12370</text>
<text text-anchor="middle" x="811" y="-97.2" font-family="Helvetica,sans-Serif" font-size="14.00">value = [9842, 9694]</text>
<text text-anchor="middle" x="811" y="-79.95" font-family="Helvetica,sans-Serif" font-size="14.00">class = Animal</text>
</g>
<!-- 9279&#45;&gt;9280 -->
<g id="edge18" class="edge">
<title>9279&#45;&gt;9280</title>
<path fill="none" stroke="black" d="M865.31,-202.07C859.66,-193.54 853.7,-184.54 847.88,-175.77"/>
<polygon fill="black" stroke="black" points="850.92,-174.02 842.48,-167.62 845.09,-177.89 850.92,-174.02"/>
</g>
<!-- 14531 -->
<g id="node22" class="node">
<title>14531</title>
<path fill="#7abdee" stroke="black" d="M1066,-166.25C1066,-166.25 924,-166.25 924,-166.25 918,-166.25 912,-160.25 912,-154.25 912,-154.25 912,-84 912,-84 912,-78 918,-72 924,-72 924,-72 1066,-72 1066,-72 1072,-72 1078,-78 1078,-84 1078,-84 1078,-154.25 1078,-154.25 1078,-160.25 1072,-166.25 1066,-166.25"/>
<text text-anchor="middle" x="995" y="-148.95" font-family="Helvetica,sans-Serif" font-size="14.00">16_C &lt;= 0.5</text>
<text text-anchor="middle" x="995" y="-131.7" font-family="Helvetica,sans-Serif" font-size="14.00">entropy = 0.808</text>
<text text-anchor="middle" x="995" y="-114.45" font-family="Helvetica,sans-Serif" font-size="14.00">samples = 7056</text>
<text text-anchor="middle" x="995" y="-97.2" font-family="Helvetica,sans-Serif" font-size="14.00">value = [2763, 8372]</text>
<text text-anchor="middle" x="995" y="-79.95" font-family="Helvetica,sans-Serif" font-size="14.00">class = Plant</text>
</g>
<!-- 9279&#45;&gt;14531 -->
<g id="edge21" class="edge">
<title>9279&#45;&gt;14531</title>
<path fill="none" stroke="black" d="M931.74,-202.07C938.47,-193.36 945.57,-184.16 952.48,-175.21"/>
<polygon fill="black" stroke="black" points="955.05,-177.61 958.39,-167.56 949.51,-173.33 955.05,-177.61"/>
</g>
<!-- 9281 -->
<g id="node20" class="node">
<title>9281</title>
<path fill="#c0c0c0" stroke="black" d="M774,-36C774,-36 744,-36 744,-36 738,-36 732,-30 732,-24 732,-24 732,-12 732,-12 732,-6 738,0 744,0 744,0 774,0 774,0 780,0 786,-6 786,-12 786,-12 786,-24 786,-24 786,-30 780,-36 774,-36"/>
<text text-anchor="middle" x="759" y="-13.32" font-family="Helvetica,sans-Serif" font-size="14.00">(...)</text>
</g>
<!-- 9280&#45;&gt;9281 -->
<g id="edge19" class="edge">
<title>9280&#45;&gt;9281</title>
<path fill="none" stroke="black" d="M786.67,-71.75C782.1,-63.03 777.45,-54.16 773.3,-46.26"/>
<polygon fill="black" stroke="black" points="776.46,-44.74 768.71,-37.51 770.26,-47.99 776.46,-44.74"/>
</g>
<!-- 12992 -->
<g id="node21" class="node">
<title>12992</title>
<path fill="#c0c0c0" stroke="black" d="M846,-36C846,-36 816,-36 816,-36 810,-36 804,-30 804,-24 804,-24 804,-12 804,-12 804,-6 810,0 816,0 816,0 846,0 846,0 852,0 858,-6 858,-12 858,-12 858,-24 858,-24 858,-30 852,-36 846,-36"/>
<text text-anchor="middle" x="831" y="-13.32" font-family="Helvetica,sans-Serif" font-size="14.00">(...)</text>
</g>
<!-- 9280&#45;&gt;12992 -->
<g id="edge20" class="edge">
<title>9280&#45;&gt;12992</title>
<path fill="none" stroke="black" d="M820.36,-71.75C822.04,-63.42 823.74,-54.97 825.28,-47.34"/>
<polygon fill="black" stroke="black" points="828.69,-48.15 827.24,-37.66 821.83,-46.77 828.69,-48.15"/>
</g>
<!-- 14532 -->
<g id="node23" class="node">
<title>14532</title>
<path fill="#c0c0c0" stroke="black" d="M953,-36C953,-36 923,-36 923,-36 917,-36 911,-30 911,-24 911,-24 911,-12 911,-12 911,-6 917,0 923,0 923,0 953,0 953,0 959,0 965,-6 965,-12 965,-12 965,-24 965,-24 965,-30 959,-36 953,-36"/>
<text text-anchor="middle" x="938" y="-13.32" font-family="Helvetica,sans-Serif" font-size="14.00">(...)</text>
</g>
<!-- 14531&#45;&gt;14532 -->
<g id="edge22" class="edge">
<title>14531&#45;&gt;14532</title>
<path fill="none" stroke="black" d="M968.34,-71.75C963.26,-62.93 958.1,-53.96 953.52,-45.99"/>
<polygon fill="black" stroke="black" points="956.65,-44.41 948.63,-37.48 950.58,-47.9 956.65,-44.41"/>
</g>
<!-- 15879 -->
<g id="node24" class="node">
<title>15879</title>
<path fill="#c0c0c0" stroke="black" d="M1025,-36C1025,-36 995,-36 995,-36 989,-36 983,-30 983,-24 983,-24 983,-12 983,-12 983,-6 989,0 995,0 995,0 1025,0 1025,0 1031,0 1037,-6 1037,-12 1037,-12 1037,-24 1037,-24 1037,-30 1031,-36 1025,-36"/>
<text text-anchor="middle" x="1010" y="-13.32" font-family="Helvetica,sans-Serif" font-size="14.00">(...)</text>
</g>
<!-- 14531&#45;&gt;15879 -->
<g id="edge23" class="edge">
<title>14531&#45;&gt;15879</title>
<path fill="none" stroke="black" d="M1002.02,-71.75C1003.28,-63.42 1004.56,-54.97 1005.71,-47.34"/>
<polygon fill="black" stroke="black" points="1009.14,-48.08 1007.17,-37.67 1002.22,-47.03 1009.14,-48.08"/>
</g>
<!-- 16265 -->
<g id="node26" class="node">
<title>16265</title>
<path fill="#ea9b63" stroke="black" d="M1232,-166.25C1232,-166.25 1108,-166.25 1108,-166.25 1102,-166.25 1096,-160.25 1096,-154.25 1096,-154.25 1096,-84 1096,-84 1096,-78 1102,-72 1108,-72 1108,-72 1232,-72 1232,-72 1238,-72 1244,-78 1244,-84 1244,-84 1244,-154.25 1244,-154.25 1244,-160.25 1238,-166.25 1232,-166.25"/>
<text text-anchor="middle" x="1170" y="-148.95" font-family="Helvetica,sans-Serif" font-size="14.00">9_A &lt;= 0.5</text>
<text text-anchor="middle" x="1170" y="-131.7" font-family="Helvetica,sans-Serif" font-size="14.00">entropy = 0.666</text>
<text text-anchor="middle" x="1170" y="-114.45" font-family="Helvetica,sans-Serif" font-size="14.00">samples = 710</text>
<text text-anchor="middle" x="1170" y="-97.2" font-family="Helvetica,sans-Serif" font-size="14.00">value = [938, 197]</text>
<text text-anchor="middle" x="1170" y="-79.95" font-family="Helvetica,sans-Serif" font-size="14.00">class = Animal</text>
</g>
<!-- 16264&#45;&gt;16265 -->
<g id="edge25" class="edge">
<title>16264&#45;&gt;16265</title>
<path fill="none" stroke="black" d="M1170,-202.07C1170,-194.17 1170,-185.88 1170,-177.73"/>
<polygon fill="black" stroke="black" points="1173.5,-177.87 1170,-167.87 1166.5,-177.87 1173.5,-177.87"/>
</g>
<!-- 16452 -->
<g id="node29" class="node">
<title>16452</title>
<path fill="#f9e2d2" stroke="black" d="M1398,-166.25C1398,-166.25 1274,-166.25 1274,-166.25 1268,-166.25 1262,-160.25 1262,-154.25 1262,-154.25 1262,-84 1262,-84 1262,-78 1268,-72 1274,-72 1274,-72 1398,-72 1398,-72 1404,-72 1410,-78 1410,-84 1410,-84 1410,-154.25 1410,-154.25 1410,-160.25 1404,-166.25 1398,-166.25"/>
<text text-anchor="middle" x="1336" y="-148.95" font-family="Helvetica,sans-Serif" font-size="14.00">16_G &lt;= 0.5</text>
<text text-anchor="middle" x="1336" y="-131.7" font-family="Helvetica,sans-Serif" font-size="14.00">entropy = 0.988</text>
<text text-anchor="middle" x="1336" y="-114.45" font-family="Helvetica,sans-Serif" font-size="14.00">samples = 199</text>
<text text-anchor="middle" x="1336" y="-97.2" font-family="Helvetica,sans-Serif" font-size="14.00">value = [167, 129]</text>
<text text-anchor="middle" x="1336" y="-79.95" font-family="Helvetica,sans-Serif" font-size="14.00">class = Animal</text>
</g>
<!-- 16264&#45;&gt;16452 -->
<g id="edge28" class="edge">
<title>16264&#45;&gt;16452</title>
<path fill="none" stroke="black" d="M1229.93,-202.07C1241.96,-192.78 1254.7,-182.94 1267.01,-173.43"/>
<polygon fill="black" stroke="black" points="1268.91,-176.38 1274.68,-167.5 1264.63,-170.84 1268.91,-176.38"/>
</g>
<!-- 16266 -->
<g id="node27" class="node">
<title>16266</title>
<path fill="#c0c0c0" stroke="black" d="M1142,-36C1142,-36 1112,-36 1112,-36 1106,-36 1100,-30 1100,-24 1100,-24 1100,-12 1100,-12 1100,-6 1106,0 1112,0 1112,0 1142,0 1142,0 1148,0 1154,-6 1154,-12 1154,-12 1154,-24 1154,-24 1154,-30 1148,-36 1142,-36"/>
<text text-anchor="middle" x="1127" y="-13.32" font-family="Helvetica,sans-Serif" font-size="14.00">(...)</text>
</g>
<!-- 16265&#45;&gt;16266 -->
<g id="edge26" class="edge">
<title>16265&#45;&gt;16266</title>
<path fill="none" stroke="black" d="M1149.88,-71.75C1146.14,-63.12 1142.34,-54.36 1138.94,-46.53"/>
<polygon fill="black" stroke="black" points="1142.24,-45.34 1135.05,-37.56 1135.82,-48.13 1142.24,-45.34"/>
</g>
<!-- 16411 -->
<g id="node28" class="node">
<title>16411</title>
<path fill="#c0c0c0" stroke="black" d="M1214,-36C1214,-36 1184,-36 1184,-36 1178,-36 1172,-30 1172,-24 1172,-24 1172,-12 1172,-12 1172,-6 1178,0 1184,0 1184,0 1214,0 1214,0 1220,0 1226,-6 1226,-12 1226,-12 1226,-24 1226,-24 1226,-30 1220,-36 1214,-36"/>
<text text-anchor="middle" x="1199" y="-13.32" font-family="Helvetica,sans-Serif" font-size="14.00">(...)</text>
</g>
<!-- 16265&#45;&gt;16411 -->
<g id="edge27" class="edge">
<title>16265&#45;&gt;16411</title>
<path fill="none" stroke="black" d="M1183.57,-71.75C1186.03,-63.32 1188.54,-54.77 1190.79,-47.07"/>
<polygon fill="black" stroke="black" points="1194.1,-48.21 1193.55,-37.63 1187.38,-46.24 1194.1,-48.21"/>
</g>
<!-- 16453 -->
<g id="node30" class="node">
<title>16453</title>
<path fill="#c0c0c0" stroke="black" d="M1315,-36C1315,-36 1285,-36 1285,-36 1279,-36 1273,-30 1273,-24 1273,-24 1273,-12 1273,-12 1273,-6 1279,0 1285,0 1285,0 1315,0 1315,0 1321,0 1327,-6 1327,-12 1327,-12 1327,-24 1327,-24 1327,-30 1321,-36 1315,-36"/>
<text text-anchor="middle" x="1300" y="-13.32" font-family="Helvetica,sans-Serif" font-size="14.00">(...)</text>
</g>
<!-- 16452&#45;&gt;16453 -->
<g id="edge29" class="edge">
<title>16452&#45;&gt;16453</title>
<path fill="none" stroke="black" d="M1319.16,-71.75C1316.06,-63.22 1312.92,-54.57 1310.1,-46.8"/>
<polygon fill="black" stroke="black" points="1313.46,-45.8 1306.75,-37.6 1306.88,-48.19 1313.46,-45.8"/>
</g>
<!-- 16522 -->
<g id="node31" class="node">
<title>16522</title>
<path fill="#c0c0c0" stroke="black" d="M1387,-36C1387,-36 1357,-36 1357,-36 1351,-36 1345,-30 1345,-24 1345,-24 1345,-12 1345,-12 1345,-6 1351,0 1357,0 1357,0 1387,0 1387,0 1393,0 1399,-6 1399,-12 1399,-12 1399,-24 1399,-24 1399,-30 1393,-36 1387,-36"/>
<text text-anchor="middle" x="1372" y="-13.32" font-family="Helvetica,sans-Serif" font-size="14.00">(...)</text>
</g>
<!-- 16452&#45;&gt;16522 -->
<g id="edge30" class="edge">
<title>16452&#45;&gt;16522</title>
<path fill="none" stroke="black" d="M1352.84,-71.75C1355.94,-63.22 1359.08,-54.57 1361.9,-46.8"/>
<polygon fill="black" stroke="black" points="1365.12,-48.19 1365.25,-37.6 1358.54,-45.8 1365.12,-48.19"/>
</g>
</g>
</svg>
