<?xml version="1.0" encoding="UTF-8" standalone="no"?>
<!DOCTYPE svg PUBLIC "-//W3C//DTD SVG 1.1//EN"
 "http://www.w3.org/Graphics/SVG/1.1/DTD/svg11.dtd">
<!-- Generated by graphviz version 12.0.0 (20240803.0821)
 -->
<!-- Title: Tree Pages: 1 -->
<svg width="1409pt" height="565pt"
 viewBox="0.00 0.00 1409.00 565.00" xmlns="http://www.w3.org/2000/svg" xmlns:xlink="http://www.w3.org/1999/xlink">
<g id="graph0" class="graph" transform="scale(1 1) rotate(0) translate(4 561)">
<title>Tree</title>
<polygon fill="white" stroke="none" points="-4,4 -4,-561 1405,-561 1405,4 -4,4"/>
<!-- 0 -->
<g id="node1" class="node">
<title>0</title>
<path fill="#fffefd" stroke="black" d="M816,-557C816,-557 656,-557 656,-557 650,-557 644,-551 644,-545 644,-545 644,-474.75 644,-474.75 644,-468.75 650,-462.75 656,-462.75 656,-462.75 816,-462.75 816,-462.75 822,-462.75 828,-468.75 828,-474.75 828,-474.75 828,-545 828,-545 828,-551 822,-557 816,-557"/>
<text text-anchor="middle" x="736" y="-539.7" font-family="Helvetica,sans-Serif" font-size="14.00">22_U &lt;= 0.5</text>
<text text-anchor="middle" x="736" y="-522.45" font-family="Helvetica,sans-Serif" font-size="14.00">entropy = 1.0</text>
<text text-anchor="middle" x="736" y="-505.2" font-family="Helvetica,sans-Serif" font-size="14.00">samples = 38145</text>
<text text-anchor="middle" x="736" y="-487.95" font-family="Helvetica,sans-Serif" font-size="14.00">value = [30313, 30032]</text>
<text text-anchor="middle" x="736" y="-470.7" font-family="Helvetica,sans-Serif" font-size="14.00">class = Animal</text>
</g>
<!-- 1 -->
<g id="node2" class="node">
<title>1</title>
<path fill="#ddeefa" stroke="black" d="M639,-426.75C639,-426.75 479,-426.75 479,-426.75 473,-426.75 467,-420.75 467,-414.75 467,-414.75 467,-344.5 467,-344.5 467,-338.5 473,-332.5 479,-332.5 479,-332.5 639,-332.5 639,-332.5 645,-332.5 651,-338.5 651,-344.5 651,-344.5 651,-414.75 651,-414.75 651,-420.75 645,-426.75 639,-426.75"/>
<text text-anchor="middle" x="559" y="-409.45" font-family="Helvetica,sans-Serif" font-size="14.00">19_U &lt;= 0.5</text>
<text text-anchor="middle" x="559" y="-392.2" font-family="Helvetica,sans-Serif" font-size="14.00">entropy = 0.994</text>
<text text-anchor="middle" x="559" y="-374.95" font-family="Helvetica,sans-Serif" font-size="14.00">samples = 32976</text>
<text text-anchor="middle" x="559" y="-357.7" font-family="Helvetica,sans-Serif" font-size="14.00">value = [23636, 28587]</text>
<text text-anchor="middle" x="559" y="-340.45" font-family="Helvetica,sans-Serif" font-size="14.00">class = Plant</text>
</g>
<!-- 0&#45;&gt;1 -->
<g id="edge1" class="edge">
<title>0&#45;&gt;1</title>
<path fill="none" stroke="black" d="M671.85,-462.39C658.99,-453.07 645.38,-443.22 632.24,-433.69"/>
<polygon fill="black" stroke="black" points="634.61,-431.09 624.46,-428.05 630.5,-436.75 634.61,-431.09"/>
<text text-anchor="middle" x="627.17" y="-447.18" font-family="Helvetica,sans-Serif" font-size="14.00">True</text>
</g>
<!-- 14792 -->
<g id="node17" class="node">
<title>14792</title>
<path fill="#eb9c64" stroke="black" d="M978,-426.75C978,-426.75 836,-426.75 836,-426.75 830,-426.75 824,-420.75 824,-414.75 824,-414.75 824,-344.5 824,-344.5 824,-338.5 830,-332.5 836,-332.5 836,-332.5 978,-332.5 978,-332.5 984,-332.5 990,-338.5 990,-344.5 990,-344.5 990,-414.75 990,-414.75 990,-420.75 984,-426.75 978,-426.75"/>
<text text-anchor="middle" x="907" y="-409.45" font-family="Helvetica,sans-Serif" font-size="14.00">2_C &lt;= 0.5</text>
<text text-anchor="middle" x="907" y="-392.2" font-family="Helvetica,sans-Serif" font-size="14.00">entropy = 0.675</text>
<text text-anchor="middle" x="907" y="-374.95" font-family="Helvetica,sans-Serif" font-size="14.00">samples = 5169</text>
<text text-anchor="middle" x="907" y="-357.7" font-family="Helvetica,sans-Serif" font-size="14.00">value = [6677, 1445]</text>
<text text-anchor="middle" x="907" y="-340.45" font-family="Helvetica,sans-Serif" font-size="14.00">class = Animal</text>
</g>
<!-- 0&#45;&gt;14792 -->
<g id="edge16" class="edge">
<title>0&#45;&gt;14792</title>
<path fill="none" stroke="black" d="M797.73,-462.57C810.13,-453.28 823.25,-443.44 835.93,-433.93"/>
<polygon fill="black" stroke="black" points="837.96,-436.78 843.86,-427.98 833.76,-431.18 837.96,-436.78"/>
<text text-anchor="middle" x="841.53" y="-447.15" font-family="Helvetica,sans-Serif" font-size="14.00">False</text>
</g>
<!-- 2 -->
<g id="node3" class="node">
<title>2</title>
<path fill="#c2e1f7" stroke="black" d="M365,-296.5C365,-296.5 205,-296.5 205,-296.5 199,-296.5 193,-290.5 193,-284.5 193,-284.5 193,-214.25 193,-214.25 193,-208.25 199,-202.25 205,-202.25 205,-202.25 365,-202.25 365,-202.25 371,-202.25 377,-208.25 377,-214.25 377,-214.25 377,-284.5 377,-284.5 377,-290.5 371,-296.5 365,-296.5"/>
<text text-anchor="middle" x="285" y="-279.2" font-family="Helvetica,sans-Serif" font-size="14.00">18_C &lt;= 0.5</text>
<text text-anchor="middle" x="285" y="-261.95" font-family="Helvetica,sans-Serif" font-size="14.00">entropy = 0.976</text>
<text text-anchor="middle" x="285" y="-244.7" font-family="Helvetica,sans-Serif" font-size="14.00">samples = 25366</text>
<text text-anchor="middle" x="285" y="-227.45" font-family="Helvetica,sans-Serif" font-size="14.00">value = [16392, 23701]</text>
<text text-anchor="middle" x="285" y="-210.2" font-family="Helvetica,sans-Serif" font-size="14.00">class = Plant</text>
</g>
<!-- 1&#45;&gt;2 -->
<g id="edge2" class="edge">
<title>1&#45;&gt;2</title>
<path fill="none" stroke="black" d="M466.62,-335.38C441.24,-323.51 413.58,-310.56 387.66,-298.43"/>
<polygon fill="black" stroke="black" points="389.36,-295.36 378.82,-294.29 386.39,-301.7 389.36,-295.36"/>
</g>
<!-- 10883 -->
<g id="node10" class="node">
<title>10883</title>
<path fill="#f7d6bf" stroke="black" d="M630,-296.5C630,-296.5 488,-296.5 488,-296.5 482,-296.5 476,-290.5 476,-284.5 476,-284.5 476,-214.25 476,-214.25 476,-208.25 482,-202.25 488,-202.25 488,-202.25 630,-202.25 630,-202.25 636,-202.25 642,-208.25 642,-214.25 642,-214.25 642,-284.5 642,-284.5 642,-290.5 636,-296.5 630,-296.5"/>
<text text-anchor="middle" x="559" y="-279.2" font-family="Helvetica,sans-Serif" font-size="14.00">11_U &lt;= 0.5</text>
<text text-anchor="middle" x="559" y="-261.95" font-family="Helvetica,sans-Serif" font-size="14.00">entropy = 0.973</text>
<text text-anchor="middle" x="559" y="-244.7" font-family="Helvetica,sans-Serif" font-size="14.00">samples = 7610</text>
<text text-anchor="middle" x="559" y="-227.45" font-family="Helvetica,sans-Serif" font-size="14.00">value = [7244, 4886]</text>
<text text-anchor="middle" x="559" y="-210.2" font-family="Helvetica,sans-Serif" font-size="14.00">class = Animal</text>
</g>
<!-- 1&#45;&gt;10883 -->
<g id="edge9" class="edge">
<title>1&#45;&gt;10883</title>
<path fill="none" stroke="black" d="M559,-332.32C559,-324.42 559,-316.13 559,-307.98"/>
<polygon fill="black" stroke="black" points="562.5,-308.12 559,-298.12 555.5,-308.12 562.5,-308.12"/>
</g>
<!-- 3 -->
<g id="node4" class="node">
<title>3</title>
<path fill="#dcedfa" stroke="black" d="M172,-166.25C172,-166.25 12,-166.25 12,-166.25 6,-166.25 0,-160.25 0,-154.25 0,-154.25 0,-84 0,-84 0,-78 6,-72 12,-72 12,-72 172,-72 172,-72 178,-72 184,-78 184,-84 184,-84 184,-154.25 184,-154.25 184,-160.25 178,-166.25 172,-166.25"/>
<text text-anchor="middle" x="92" y="-148.95" font-family="Helvetica,sans-Serif" font-size="14.00">7_U &lt;= 0.5</text>
<text text-anchor="middle" x="92" y="-131.7" font-family="Helvetica,sans-Serif" font-size="14.00">entropy = 0.993</text>
<text text-anchor="middle" x="92" y="-114.45" font-family="Helvetica,sans-Serif" font-size="14.00">samples = 18396</text>
<text text-anchor="middle" x="92" y="-97.2" font-family="Helvetica,sans-Serif" font-size="14.00">value = [13114, 15975]</text>
<text text-anchor="middle" x="92" y="-79.95" font-family="Helvetica,sans-Serif" font-size="14.00">class = Plant</text>
</g>
<!-- 2&#45;&gt;3 -->
<g id="edge3" class="edge">
<title>2&#45;&gt;3</title>
<path fill="none" stroke="black" d="M215.05,-201.89C200.89,-192.48 185.9,-182.53 171.45,-172.92"/>
<polygon fill="black" stroke="black" points="173.56,-170.12 163.3,-167.5 169.69,-175.95 173.56,-170.12"/>
</g>
<!-- 8546 -->
<g id="node7" class="node">
<title>8546</title>
<path fill="#8dc7f0" stroke="black" d="M356,-166.25C356,-166.25 214,-166.25 214,-166.25 208,-166.25 202,-160.25 202,-154.25 202,-154.25 202,-84 202,-84 202,-78 208,-72 214,-72 214,-72 356,-72 356,-72 362,-72 368,-78 368,-84 368,-84 368,-154.25 368,-154.25 368,-160.25 362,-166.25 356,-166.25"/>
<text text-anchor="middle" x="285" y="-148.95" font-family="Helvetica,sans-Serif" font-size="14.00">11_G &lt;= 0.5</text>
<text text-anchor="middle" x="285" y="-131.7" font-family="Helvetica,sans-Serif" font-size="14.00">entropy = 0.879</text>
<text text-anchor="middle" x="285" y="-114.45" font-family="Helvetica,sans-Serif" font-size="14.00">samples = 6970</text>
<text text-anchor="middle" x="285" y="-97.2" font-family="Helvetica,sans-Serif" font-size="14.00">value = [3278, 7726]</text>
<text text-anchor="middle" x="285" y="-79.95" font-family="Helvetica,sans-Serif" font-size="14.00">class = Plant</text>
</g>
<!-- 2&#45;&gt;8546 -->
<g id="edge6" class="edge">
<title>2&#45;&gt;8546</title>
<path fill="none" stroke="black" d="M285,-202.07C285,-194.17 285,-185.88 285,-177.73"/>
<polygon fill="black" stroke="black" points="288.5,-177.87 285,-167.87 281.5,-177.87 288.5,-177.87"/>
</g>
<!-- 4 -->
<g id="node5" class="node">
<title>4</title>
<path fill="#c0c0c0" stroke="black" d="M71,-36C71,-36 41,-36 41,-36 35,-36 29,-30 29,-24 29,-24 29,-12 29,-12 29,-6 35,0 41,0 41,0 71,0 71,0 77,0 83,-6 83,-12 83,-12 83,-24 83,-24 83,-30 77,-36 71,-36"/>
<text text-anchor="middle" x="56" y="-13.32" font-family="Helvetica,sans-Serif" font-size="14.00">(...)</text>
</g>
<!-- 3&#45;&gt;4 -->
<g id="edge4" class="edge">
<title>3&#45;&gt;4</title>
<path fill="none" stroke="black" d="M75.16,-71.75C72.06,-63.22 68.92,-54.57 66.1,-46.8"/>
<polygon fill="black" stroke="black" points="69.46,-45.8 62.75,-37.6 62.88,-48.19 69.46,-45.8"/>
</g>
<!-- 6305 -->
<g id="node6" class="node">
<title>6305</title>
<path fill="#c0c0c0" stroke="black" d="M143,-36C143,-36 113,-36 113,-36 107,-36 101,-30 101,-24 101,-24 101,-12 101,-12 101,-6 107,0 113,0 113,0 143,0 143,0 149,0 155,-6 155,-12 155,-12 155,-24 155,-24 155,-30 149,-36 143,-36"/>
<text text-anchor="middle" x="128" y="-13.32" font-family="Helvetica,sans-Serif" font-size="14.00">(...)</text>
</g>
<!-- 3&#45;&gt;6305 -->
<g id="edge5" class="edge">
<title>3&#45;&gt;6305</title>
<path fill="none" stroke="black" d="M108.84,-71.75C111.94,-63.22 115.08,-54.57 117.9,-46.8"/>
<polygon fill="black" stroke="black" points="121.12,-48.19 121.25,-37.6 114.54,-45.8 121.12,-48.19"/>
</g>
<!-- 8547 -->
<g id="node8" class="node">
<title>8547</title>
<path fill="#c0c0c0" stroke="black" d="M268,-36C268,-36 238,-36 238,-36 232,-36 226,-30 226,-24 226,-24 226,-12 226,-12 226,-6 232,0 238,0 238,0 268,0 268,0 274,0 280,-6 280,-12 280,-12 280,-24 280,-24 280,-30 274,-36 268,-36"/>
<text text-anchor="middle" x="253" y="-13.32" font-family="Helvetica,sans-Serif" font-size="14.00">(...)</text>
</g>
<!-- 8546&#45;&gt;8547 -->
<g id="edge7" class="edge">
<title>8546&#45;&gt;8547</title>
<path fill="none" stroke="black" d="M270.03,-71.75C267.31,-63.32 264.55,-54.77 262.06,-47.07"/>
<polygon fill="black" stroke="black" points="265.41,-46.05 259.01,-37.61 258.75,-48.2 265.41,-46.05"/>
</g>
<!-- 10294 -->
<g id="node9" class="node">
<title>10294</title>
<path fill="#c0c0c0" stroke="black" d="M340,-36C340,-36 310,-36 310,-36 304,-36 298,-30 298,-24 298,-24 298,-12 298,-12 298,-6 304,0 310,0 310,0 340,0 340,0 346,0 352,-6 352,-12 352,-12 352,-24 352,-24 352,-30 346,-36 340,-36"/>
<text text-anchor="middle" x="325" y="-13.32" font-family="Helvetica,sans-Serif" font-size="14.00">(...)</text>
</g>
<!-- 8546&#45;&gt;10294 -->
<g id="edge8" class="edge">
<title>8546&#45;&gt;10294</title>
<path fill="none" stroke="black" d="M303.71,-71.75C307.15,-63.22 310.65,-54.57 313.78,-46.8"/>
<polygon fill="black" stroke="black" points="317.01,-48.16 317.5,-37.58 310.52,-45.54 317.01,-48.16"/>
</g>
<!-- 10884 -->
<g id="node11" class="node">
<title>10884</title>
<path fill="#fae5d6" stroke="black" d="M540,-166.25C540,-166.25 398,-166.25 398,-166.25 392,-166.25 386,-160.25 386,-154.25 386,-154.25 386,-84 386,-84 386,-78 392,-72 398,-72 398,-72 540,-72 540,-72 546,-72 552,-78 552,-84 552,-84 552,-154.25 552,-154.25 552,-160.25 546,-166.25 540,-166.25"/>
<text text-anchor="middle" x="469" y="-148.95" font-family="Helvetica,sans-Serif" font-size="14.00">23_C &lt;= 0.5</text>
<text text-anchor="middle" x="469" y="-131.7" font-family="Helvetica,sans-Serif" font-size="14.00">entropy = 0.99</text>
<text text-anchor="middle" x="469" y="-114.45" font-family="Helvetica,sans-Serif" font-size="14.00">samples = 5353</text>
<text text-anchor="middle" x="469" y="-97.2" font-family="Helvetica,sans-Serif" font-size="14.00">value = [4766, 3776]</text>
<text text-anchor="middle" x="469" y="-79.95" font-family="Helvetica,sans-Serif" font-size="14.00">class = Animal</text>
</g>
<!-- 10883&#45;&gt;10884 -->
<g id="edge10" class="edge">
<title>10883&#45;&gt;10884</title>
<path fill="none" stroke="black" d="M526.51,-202.07C520.52,-193.54 514.21,-184.54 508.05,-175.77"/>
<polygon fill="black" stroke="black" points="510.92,-173.77 502.31,-167.6 505.19,-177.79 510.92,-173.77"/>
</g>
<!-- 13703 -->
<g id="node14" class="node">
<title>13703</title>
<path fill="#f1b992" stroke="black" d="M724,-166.25C724,-166.25 582,-166.25 582,-166.25 576,-166.25 570,-160.25 570,-154.25 570,-154.25 570,-84 570,-84 570,-78 576,-72 582,-72 582,-72 724,-72 724,-72 730,-72 736,-78 736,-84 736,-84 736,-154.25 736,-154.25 736,-160.25 730,-166.25 724,-166.25"/>
<text text-anchor="middle" x="653" y="-148.95" font-family="Helvetica,sans-Serif" font-size="14.00">24_A &lt;= 0.5</text>
<text text-anchor="middle" x="653" y="-131.7" font-family="Helvetica,sans-Serif" font-size="14.00">entropy = 0.892</text>
<text text-anchor="middle" x="653" y="-114.45" font-family="Helvetica,sans-Serif" font-size="14.00">samples = 2257</text>
<text text-anchor="middle" x="653" y="-97.2" font-family="Helvetica,sans-Serif" font-size="14.00">value = [2478, 1110]</text>
<text text-anchor="middle" x="653" y="-79.95" font-family="Helvetica,sans-Serif" font-size="14.00">class = Animal</text>
</g>
<!-- 10883&#45;&gt;13703 -->
<g id="edge13" class="edge">
<title>10883&#45;&gt;13703</title>
<path fill="none" stroke="black" d="M592.94,-202.07C599.26,-193.45 605.92,-184.35 612.42,-175.49"/>
<polygon fill="black" stroke="black" points="615.13,-177.71 618.22,-167.58 609.48,-173.58 615.13,-177.71"/>
</g>
<!-- 10885 -->
<g id="node12" class="node">
<title>10885</title>
<path fill="#c0c0c0" stroke="black" d="M432,-36C432,-36 402,-36 402,-36 396,-36 390,-30 390,-24 390,-24 390,-12 390,-12 390,-6 396,0 402,0 402,0 432,0 432,0 438,0 444,-6 444,-12 444,-12 444,-24 444,-24 444,-30 438,-36 432,-36"/>
<text text-anchor="middle" x="417" y="-13.32" font-family="Helvetica,sans-Serif" font-size="14.00">(...)</text>
</g>
<!-- 10884&#45;&gt;10885 -->
<g id="edge11" class="edge">
<title>10884&#45;&gt;10885</title>
<path fill="none" stroke="black" d="M444.67,-71.75C440.1,-63.03 435.45,-54.16 431.3,-46.26"/>
<polygon fill="black" stroke="black" points="434.46,-44.74 426.71,-37.51 428.26,-47.99 434.46,-44.74"/>
</g>
<!-- 13614 -->
<g id="node13" class="node">
<title>13614</title>
<path fill="#c0c0c0" stroke="black" d="M504,-36C504,-36 474,-36 474,-36 468,-36 462,-30 462,-24 462,-24 462,-12 462,-12 462,-6 468,0 474,0 474,0 504,0 504,0 510,0 516,-6 516,-12 516,-12 516,-24 516,-24 516,-30 510,-36 504,-36"/>
<text text-anchor="middle" x="489" y="-13.32" font-family="Helvetica,sans-Serif" font-size="14.00">(...)</text>
</g>
<!-- 10884&#45;&gt;13614 -->
<g id="edge12" class="edge">
<title>10884&#45;&gt;13614</title>
<path fill="none" stroke="black" d="M478.36,-71.75C480.04,-63.42 481.74,-54.97 483.28,-47.34"/>
<polygon fill="black" stroke="black" points="486.69,-48.15 485.24,-37.66 479.83,-46.77 486.69,-48.15"/>
</g>
<!-- 13704 -->
<g id="node15" class="node">
<title>13704</title>
<path fill="#c0c0c0" stroke="black" d="M614,-36C614,-36 584,-36 584,-36 578,-36 572,-30 572,-24 572,-24 572,-12 572,-12 572,-6 578,0 584,0 584,0 614,0 614,0 620,0 626,-6 626,-12 626,-12 626,-24 626,-24 626,-30 620,-36 614,-36"/>
<text text-anchor="middle" x="599" y="-13.32" font-family="Helvetica,sans-Serif" font-size="14.00">(...)</text>
</g>
<!-- 13703&#45;&gt;13704 -->
<g id="edge14" class="edge">
<title>13703&#45;&gt;13704</title>
<path fill="none" stroke="black" d="M627.74,-71.75C622.98,-63.03 618.16,-54.16 613.85,-46.26"/>
<polygon fill="black" stroke="black" points="616.94,-44.61 609.08,-37.5 610.79,-47.96 616.94,-44.61"/>
</g>
<!-- 14763 -->
<g id="node16" class="node">
<title>14763</title>
<path fill="#c0c0c0" stroke="black" d="M686,-36C686,-36 656,-36 656,-36 650,-36 644,-30 644,-24 644,-24 644,-12 644,-12 644,-6 650,0 656,0 656,0 686,0 686,0 692,0 698,-6 698,-12 698,-12 698,-24 698,-24 698,-30 692,-36 686,-36"/>
<text text-anchor="middle" x="671" y="-13.32" font-family="Helvetica,sans-Serif" font-size="14.00">(...)</text>
</g>
<!-- 13703&#45;&gt;14763 -->
<g id="edge15" class="edge">
<title>13703&#45;&gt;14763</title>
<path fill="none" stroke="black" d="M661.42,-71.75C662.93,-63.42 664.47,-54.97 665.85,-47.34"/>
<polygon fill="black" stroke="black" points="669.27,-48.13 667.61,-37.66 662.38,-46.88 669.27,-48.13"/>
</g>
<!-- 14793 -->
<g id="node18" class="node">
<title>14793</title>
<path fill="#ea995f" stroke="black" d="M978,-296.5C978,-296.5 836,-296.5 836,-296.5 830,-296.5 824,-290.5 824,-284.5 824,-284.5 824,-214.25 824,-214.25 824,-208.25 830,-202.25 836,-202.25 836,-202.25 978,-202.25 978,-202.25 984,-202.25 990,-208.25 990,-214.25 990,-214.25 990,-284.5 990,-284.5 990,-290.5 984,-296.5 978,-296.5"/>
<text text-anchor="middle" x="907" y="-279.2" font-family="Helvetica,sans-Serif" font-size="14.00">24_G &lt;= 0.5</text>
<text text-anchor="middle" x="907" y="-261.95" font-family="Helvetica,sans-Serif" font-size="14.00">entropy = 0.636</text>
<text text-anchor="middle" x="907" y="-244.7" font-family="Helvetica,sans-Serif" font-size="14.00">samples = 4186</text>
<text text-anchor="middle" x="907" y="-227.45" font-family="Helvetica,sans-Serif" font-size="14.00">value = [5524, 1058]</text>
<text text-anchor="middle" x="907" y="-210.2" font-family="Helvetica,sans-Serif" font-size="14.00">class = Animal</text>
</g>
<!-- 14792&#45;&gt;14793 -->
<g id="edge17" class="edge">
<title>14792&#45;&gt;14793</title>
<path fill="none" stroke="black" d="M907,-332.32C907,-324.42 907,-316.13 907,-307.98"/>
<polygon fill="black" stroke="black" points="910.5,-308.12 907,-298.12 903.5,-308.12 910.5,-308.12"/>
</g>
<!-- 16272 -->
<g id="node25" class="node">
<title>16272</title>
<path fill="#eeab7b" stroke="black" d="M1227.5,-296.5C1227.5,-296.5 1094.5,-296.5 1094.5,-296.5 1088.5,-296.5 1082.5,-290.5 1082.5,-284.5 1082.5,-284.5 1082.5,-214.25 1082.5,-214.25 1082.5,-208.25 1088.5,-202.25 1094.5,-202.25 1094.5,-202.25 1227.5,-202.25 1227.5,-202.25 1233.5,-202.25 1239.5,-208.25 1239.5,-214.25 1239.5,-214.25 1239.5,-284.5 1239.5,-284.5 1239.5,-290.5 1233.5,-296.5 1227.5,-296.5"/>
<text text-anchor="middle" x="1161" y="-279.2" font-family="Helvetica,sans-Serif" font-size="14.00">17_U &lt;= 0.5</text>
<text text-anchor="middle" x="1161" y="-261.95" font-family="Helvetica,sans-Serif" font-size="14.00">entropy = 0.813</text>
<text text-anchor="middle" x="1161" y="-244.7" font-family="Helvetica,sans-Serif" font-size="14.00">samples = 983</text>
<text text-anchor="middle" x="1161" y="-227.45" font-family="Helvetica,sans-Serif" font-size="14.00">value = [1153, 387]</text>
<text text-anchor="middle" x="1161" y="-210.2" font-family="Helvetica,sans-Serif" font-size="14.00">class = Animal</text>
</g>
<!-- 14792&#45;&gt;16272 -->
<g id="edge24" class="edge">
<title>14792&#45;&gt;16272</title>
<path fill="none" stroke="black" d="M990.17,-336.63C1016.47,-323.35 1045.63,-308.63 1072.3,-295.16"/>
<polygon fill="black" stroke="black" points="1073.69,-298.38 1081.04,-290.75 1070.53,-292.13 1073.69,-298.38"/>
</g>
<!-- 14794 -->
<g id="node19" class="node">
<title>14794</title>
<path fill="#ea985d" stroke="black" d="M899.5,-166.25C899.5,-166.25 766.5,-166.25 766.5,-166.25 760.5,-166.25 754.5,-160.25 754.5,-154.25 754.5,-154.25 754.5,-84 754.5,-84 754.5,-78 760.5,-72 766.5,-72 766.5,-72 899.5,-72 899.5,-72 905.5,-72 911.5,-78 911.5,-84 911.5,-84 911.5,-154.25 911.5,-154.25 911.5,-160.25 905.5,-166.25 899.5,-166.25"/>
<text text-anchor="middle" x="833" y="-148.95" font-family="Helvetica,sans-Serif" font-size="14.00">9_C &lt;= 0.5</text>
<text text-anchor="middle" x="833" y="-131.7" font-family="Helvetica,sans-Serif" font-size="14.00">entropy = 0.62</text>
<text text-anchor="middle" x="833" y="-114.45" font-family="Helvetica,sans-Serif" font-size="14.00">samples = 4035</text>
<text text-anchor="middle" x="833" y="-97.2" font-family="Helvetica,sans-Serif" font-size="14.00">value = [5384, 981]</text>
<text text-anchor="middle" x="833" y="-79.95" font-family="Helvetica,sans-Serif" font-size="14.00">class = Animal</text>
</g>
<!-- 14793&#45;&gt;14794 -->
<g id="edge18" class="edge">
<title>14793&#45;&gt;14794</title>
<path fill="none" stroke="black" d="M880.28,-202.07C875.46,-193.72 870.39,-184.93 865.43,-176.33"/>
<polygon fill="black" stroke="black" points="868.46,-174.58 860.43,-167.67 862.4,-178.08 868.46,-174.58"/>
</g>
<!-- 16201 -->
<g id="node22" class="node">
<title>16201</title>
<path fill="#f3c6a6" stroke="black" d="M1056.5,-166.25C1056.5,-166.25 941.5,-166.25 941.5,-166.25 935.5,-166.25 929.5,-160.25 929.5,-154.25 929.5,-154.25 929.5,-84 929.5,-84 929.5,-78 935.5,-72 941.5,-72 941.5,-72 1056.5,-72 1056.5,-72 1062.5,-72 1068.5,-78 1068.5,-84 1068.5,-84 1068.5,-154.25 1068.5,-154.25 1068.5,-160.25 1062.5,-166.25 1056.5,-166.25"/>
<text text-anchor="middle" x="999" y="-148.95" font-family="Helvetica,sans-Serif" font-size="14.00">4_C &lt;= 0.5</text>
<text text-anchor="middle" x="999" y="-131.7" font-family="Helvetica,sans-Serif" font-size="14.00">entropy = 0.938</text>
<text text-anchor="middle" x="999" y="-114.45" font-family="Helvetica,sans-Serif" font-size="14.00">samples = 151</text>
<text text-anchor="middle" x="999" y="-97.2" font-family="Helvetica,sans-Serif" font-size="14.00">value = [140, 77]</text>
<text text-anchor="middle" x="999" y="-79.95" font-family="Helvetica,sans-Serif" font-size="14.00">class = Animal</text>
</g>
<!-- 14793&#45;&gt;16201 -->
<g id="edge21" class="edge">
<title>14793&#45;&gt;16201</title>
<path fill="none" stroke="black" d="M940.21,-202.07C946.4,-193.45 952.93,-184.35 959.29,-175.49"/>
<polygon fill="black" stroke="black" points="961.97,-177.75 964.95,-167.59 956.28,-173.67 961.97,-177.75"/>
</g>
<!-- 14795 -->
<g id="node20" class="node">
<title>14795</title>
<path fill="#c0c0c0" stroke="black" d="M787,-36C787,-36 757,-36 757,-36 751,-36 745,-30 745,-24 745,-24 745,-12 745,-12 745,-6 751,0 757,0 757,0 787,0 787,0 793,0 799,-6 799,-12 799,-12 799,-24 799,-24 799,-30 793,-36 787,-36"/>
<text text-anchor="middle" x="772" y="-13.32" font-family="Helvetica,sans-Serif" font-size="14.00">(...)</text>
</g>
<!-- 14794&#45;&gt;14795 -->
<g id="edge19" class="edge">
<title>14794&#45;&gt;14795</title>
<path fill="none" stroke="black" d="M804.46,-71.75C798.97,-62.83 793.39,-53.76 788.44,-45.72"/>
<polygon fill="black" stroke="black" points="791.58,-44.14 783.36,-37.46 785.62,-47.81 791.58,-44.14"/>
</g>
<!-- 15872 -->
<g id="node21" class="node">
<title>15872</title>
<path fill="#c0c0c0" stroke="black" d="M859,-36C859,-36 829,-36 829,-36 823,-36 817,-30 817,-24 817,-24 817,-12 817,-12 817,-6 823,0 829,0 829,0 859,0 859,0 865,0 871,-6 871,-12 871,-12 871,-24 871,-24 871,-30 865,-36 859,-36"/>
<text text-anchor="middle" x="844" y="-13.32" font-family="Helvetica,sans-Serif" font-size="14.00">(...)</text>
</g>
<!-- 14794&#45;&gt;15872 -->
<g id="edge20" class="edge">
<title>14794&#45;&gt;15872</title>
<path fill="none" stroke="black" d="M838.15,-71.75C839.06,-63.52 839.99,-55.17 840.82,-47.61"/>
<polygon fill="black" stroke="black" points="844.3,-48 841.93,-37.68 837.35,-47.23 844.3,-48"/>
</g>
<!-- 16202 -->
<g id="node23" class="node">
<title>16202</title>
<path fill="#c0c0c0" stroke="black" d="M951,-36C951,-36 921,-36 921,-36 915,-36 909,-30 909,-24 909,-24 909,-12 909,-12 909,-6 915,0 921,0 921,0 951,0 951,0 957,0 963,-6 963,-12 963,-12 963,-24 963,-24 963,-30 957,-36 951,-36"/>
<text text-anchor="middle" x="936" y="-13.32" font-family="Helvetica,sans-Serif" font-size="14.00">(...)</text>
</g>
<!-- 16201&#45;&gt;16202 -->
<g id="edge22" class="edge">
<title>16201&#45;&gt;16202</title>
<path fill="none" stroke="black" d="M969.53,-71.75C963.85,-62.83 958.09,-53.76 952.98,-45.72"/>
<polygon fill="black" stroke="black" points="956.04,-44.01 947.73,-37.45 950.14,-47.77 956.04,-44.01"/>
</g>
<!-- 16247 -->
<g id="node24" class="node">
<title>16247</title>
<path fill="#c0c0c0" stroke="black" d="M1023,-36C1023,-36 993,-36 993,-36 987,-36 981,-30 981,-24 981,-24 981,-12 981,-12 981,-6 987,0 993,0 993,0 1023,0 1023,0 1029,0 1035,-6 1035,-12 1035,-12 1035,-24 1035,-24 1035,-30 1029,-36 1023,-36"/>
<text text-anchor="middle" x="1008" y="-13.32" font-family="Helvetica,sans-Serif" font-size="14.00">(...)</text>
</g>
<!-- 16201&#45;&gt;16247 -->
<g id="edge23" class="edge">
<title>16201&#45;&gt;16247</title>
<path fill="none" stroke="black" d="M1003.21,-71.75C1003.96,-63.52 1004.72,-55.17 1005.4,-47.61"/>
<polygon fill="black" stroke="black" points="1008.89,-47.96 1006.3,-37.68 1001.91,-47.32 1008.89,-47.96"/>
</g>
<!-- 16273 -->
<g id="node26" class="node">
<title>16273</title>
<path fill="#eca36e" stroke="black" d="M1223,-166.25C1223,-166.25 1099,-166.25 1099,-166.25 1093,-166.25 1087,-160.25 1087,-154.25 1087,-154.25 1087,-84 1087,-84 1087,-78 1093,-72 1099,-72 1099,-72 1223,-72 1223,-72 1229,-72 1235,-78 1235,-84 1235,-84 1235,-154.25 1235,-154.25 1235,-160.25 1229,-166.25 1223,-166.25"/>
<text text-anchor="middle" x="1161" y="-148.95" font-family="Helvetica,sans-Serif" font-size="14.00">21_C &lt;= 0.5</text>
<text text-anchor="middle" x="1161" y="-131.7" font-family="Helvetica,sans-Serif" font-size="14.00">entropy = 0.742</text>
<text text-anchor="middle" x="1161" y="-114.45" font-family="Helvetica,sans-Serif" font-size="14.00">samples = 691</text>
<text text-anchor="middle" x="1161" y="-97.2" font-family="Helvetica,sans-Serif" font-size="14.00">value = [855, 228]</text>
<text text-anchor="middle" x="1161" y="-79.95" font-family="Helvetica,sans-Serif" font-size="14.00">class = Animal</text>
</g>
<!-- 16272&#45;&gt;16273 -->
<g id="edge25" class="edge">
<title>16272&#45;&gt;16273</title>
<path fill="none" stroke="black" d="M1161,-202.07C1161,-194.17 1161,-185.88 1161,-177.73"/>
<polygon fill="black" stroke="black" points="1164.5,-177.87 1161,-167.87 1157.5,-177.87 1164.5,-177.87"/>
</g>
<!-- 16576 -->
<g id="node29" class="node">
<title>16576</title>
<path fill="#f3c4a3" stroke="black" d="M1389,-166.25C1389,-166.25 1265,-166.25 1265,-166.25 1259,-166.25 1253,-160.25 1253,-154.25 1253,-154.25 1253,-84 1253,-84 1253,-78 1259,-72 1265,-72 1265,-72 1389,-72 1389,-72 1395,-72 1401,-78 1401,-84 1401,-84 1401,-154.25 1401,-154.25 1401,-160.25 1395,-166.25 1389,-166.25"/>
<text text-anchor="middle" x="1327" y="-148.95" font-family="Helvetica,sans-Serif" font-size="14.00">18_U &lt;= 0.5</text>
<text text-anchor="middle" x="1327" y="-131.7" font-family="Helvetica,sans-Serif" font-size="14.00">entropy = 0.932</text>
<text text-anchor="middle" x="1327" y="-114.45" font-family="Helvetica,sans-Serif" font-size="14.00">samples = 292</text>
<text text-anchor="middle" x="1327" y="-97.2" font-family="Helvetica,sans-Serif" font-size="14.00">value = [298, 159]</text>
<text text-anchor="middle" x="1327" y="-79.95" font-family="Helvetica,sans-Serif" font-size="14.00">class = Animal</text>
</g>
<!-- 16272&#45;&gt;16576 -->
<g id="edge28" class="edge">
<title>16272&#45;&gt;16576</title>
<path fill="none" stroke="black" d="M1220.93,-202.07C1232.96,-192.78 1245.7,-182.94 1258.01,-173.43"/>
<polygon fill="black" stroke="black" points="1259.91,-176.38 1265.68,-167.5 1255.63,-170.84 1259.91,-176.38"/>
</g>
<!-- 16274 -->
<g id="node27" class="node">
<title>16274</title>
<path fill="#c0c0c0" stroke="black" d="M1133,-36C1133,-36 1103,-36 1103,-36 1097,-36 1091,-30 1091,-24 1091,-24 1091,-12 1091,-12 1091,-6 1097,0 1103,0 1103,0 1133,0 1133,0 1139,0 1145,-6 1145,-12 1145,-12 1145,-24 1145,-24 1145,-30 1139,-36 1133,-36"/>
<text text-anchor="middle" x="1118" y="-13.32" font-family="Helvetica,sans-Serif" font-size="14.00">(...)</text>
</g>
<!-- 16273&#45;&gt;16274 -->
<g id="edge26" class="edge">
<title>16273&#45;&gt;16274</title>
<path fill="none" stroke="black" d="M1140.88,-71.75C1137.14,-63.12 1133.34,-54.36 1129.94,-46.53"/>
<polygon fill="black" stroke="black" points="1133.24,-45.34 1126.05,-37.56 1126.82,-48.13 1133.24,-45.34"/>
</g>
<!-- 16491 -->
<g id="node28" class="node">
<title>16491</title>
<path fill="#c0c0c0" stroke="black" d="M1205,-36C1205,-36 1175,-36 1175,-36 1169,-36 1163,-30 1163,-24 1163,-24 1163,-12 1163,-12 1163,-6 1169,0 1175,0 1175,0 1205,0 1205,0 1211,0 1217,-6 1217,-12 1217,-12 1217,-24 1217,-24 1217,-30 1211,-36 1205,-36"/>
<text text-anchor="middle" x="1190" y="-13.32" font-family="Helvetica,sans-Serif" font-size="14.00">(...)</text>
</g>
<!-- 16273&#45;&gt;16491 -->
<g id="edge27" class="edge">
<title>16273&#45;&gt;16491</title>
<path fill="none" stroke="black" d="M1174.57,-71.75C1177.03,-63.32 1179.54,-54.77 1181.79,-47.07"/>
<polygon fill="black" stroke="black" points="1185.1,-48.21 1184.55,-37.63 1178.38,-46.24 1185.1,-48.21"/>
</g>
<!-- 16577 -->
<g id="node30" class="node">
<title>16577</title>
<path fill="#c0c0c0" stroke="black" d="M1306,-36C1306,-36 1276,-36 1276,-36 1270,-36 1264,-30 1264,-24 1264,-24 1264,-12 1264,-12 1264,-6 1270,0 1276,0 1276,0 1306,0 1306,0 1312,0 1318,-6 1318,-12 1318,-12 1318,-24 1318,-24 1318,-30 1312,-36 1306,-36"/>
<text text-anchor="middle" x="1291" y="-13.32" font-family="Helvetica,sans-Serif" font-size="14.00">(...)</text>
</g>
<!-- 16576&#45;&gt;16577 -->
<g id="edge29" class="edge">
<title>16576&#45;&gt;16577</title>
<path fill="none" stroke="black" d="M1310.16,-71.75C1307.06,-63.22 1303.92,-54.57 1301.1,-46.8"/>
<polygon fill="black" stroke="black" points="1304.46,-45.8 1297.75,-37.6 1297.88,-48.19 1304.46,-45.8"/>
</g>
<!-- 16674 -->
<g id="node31" class="node">
<title>16674</title>
<path fill="#c0c0c0" stroke="black" d="M1378,-36C1378,-36 1348,-36 1348,-36 1342,-36 1336,-30 1336,-24 1336,-24 1336,-12 1336,-12 1336,-6 1342,0 1348,0 1348,0 1378,0 1378,0 1384,0 1390,-6 1390,-12 1390,-12 1390,-24 1390,-24 1390,-30 1384,-36 1378,-36"/>
<text text-anchor="middle" x="1363" y="-13.32" font-family="Helvetica,sans-Serif" font-size="14.00">(...)</text>
</g>
<!-- 16576&#45;&gt;16674 -->
<g id="edge30" class="edge">
<title>16576&#45;&gt;16674</title>
<path fill="none" stroke="black" d="M1343.84,-71.75C1346.94,-63.22 1350.08,-54.57 1352.9,-46.8"/>
<polygon fill="black" stroke="black" points="1356.12,-48.19 1356.25,-37.6 1349.54,-45.8 1356.12,-48.19"/>
</g>
</g>
</svg>
