<?xml version="1.0" encoding="UTF-8" standalone="no"?>
<!DOCTYPE svg PUBLIC "-//W3C//DTD SVG 1.1//EN"
 "http://www.w3.org/Graphics/SVG/1.1/DTD/svg11.dtd">
<!-- Generated by graphviz version 12.0.0 (20240803.0821)
 -->
<!-- Title: Tree Pages: 1 -->
<svg width="1392pt" height="565pt"
 viewBox="0.00 0.00 1391.50 565.00" xmlns="http://www.w3.org/2000/svg" xmlns:xlink="http://www.w3.org/1999/xlink">
<g id="graph0" class="graph" transform="scale(1 1) rotate(0) translate(4 561)">
<title>Tree</title>
<polygon fill="white" stroke="none" points="-4,4 -4,-561 1387.5,-561 1387.5,4 -4,4"/>
<!-- 0 -->
<g id="node1" class="node">
<title>0</title>
<path fill="#fdfeff" stroke="black" d="M816,-557C816,-557 656,-557 656,-557 650,-557 644,-551 644,-545 644,-545 644,-474.75 644,-474.75 644,-468.75 650,-462.75 656,-462.75 656,-462.75 816,-462.75 816,-462.75 822,-462.75 828,-468.75 828,-474.75 828,-474.75 828,-545 828,-545 828,-551 822,-557 816,-557"/>
<text text-anchor="middle" x="736" y="-539.7" font-family="Helvetica,sans-Serif" font-size="14.00">22_U &lt;= 0.5</text>
<text text-anchor="middle" x="736" y="-522.45" font-family="Helvetica,sans-Serif" font-size="14.00">entropy = 1.0</text>
<text text-anchor="middle" x="736" y="-505.2" font-family="Helvetica,sans-Serif" font-size="14.00">samples = 38265</text>
<text text-anchor="middle" x="736" y="-487.95" font-family="Helvetica,sans-Serif" font-size="14.00">value = [30046, 30299]</text>
<text text-anchor="middle" x="736" y="-470.7" font-family="Helvetica,sans-Serif" font-size="14.00">class = Plant</text>
</g>
<!-- 1 -->
<g id="node2" class="node">
<title>1</title>
<path fill="#daedfa" stroke="black" d="M639,-426.75C639,-426.75 479,-426.75 479,-426.75 473,-426.75 467,-420.75 467,-414.75 467,-414.75 467,-344.5 467,-344.5 467,-338.5 473,-332.5 479,-332.5 479,-332.5 639,-332.5 639,-332.5 645,-332.5 651,-338.5 651,-344.5 651,-344.5 651,-414.75 651,-414.75 651,-420.75 645,-426.75 639,-426.75"/>
<text text-anchor="middle" x="559" y="-409.45" font-family="Helvetica,sans-Serif" font-size="14.00">20_G &lt;= 0.5</text>
<text text-anchor="middle" x="559" y="-392.2" font-family="Helvetica,sans-Serif" font-size="14.00">entropy = 0.992</text>
<text text-anchor="middle" x="559" y="-374.95" font-family="Helvetica,sans-Serif" font-size="14.00">samples = 33139</text>
<text text-anchor="middle" x="559" y="-357.7" font-family="Helvetica,sans-Serif" font-size="14.00">value = [23473, 28858]</text>
<text text-anchor="middle" x="559" y="-340.45" font-family="Helvetica,sans-Serif" font-size="14.00">class = Plant</text>
</g>
<!-- 0&#45;&gt;1 -->
<g id="edge1" class="edge">
<title>0&#45;&gt;1</title>
<path fill="none" stroke="black" d="M671.85,-462.39C658.99,-453.07 645.38,-443.22 632.24,-433.69"/>
<polygon fill="black" stroke="black" points="634.61,-431.09 624.46,-428.05 630.5,-436.75 634.61,-431.09"/>
<text text-anchor="middle" x="627.17" y="-447.18" font-family="Helvetica,sans-Serif" font-size="14.00">True</text>
</g>
<!-- 14504 -->
<g id="node17" class="node">
<title>14504</title>
<path fill="#eb9d64" stroke="black" d="M973,-426.75C973,-426.75 831,-426.75 831,-426.75 825,-426.75 819,-420.75 819,-414.75 819,-414.75 819,-344.5 819,-344.5 819,-338.5 825,-332.5 831,-332.5 831,-332.5 973,-332.5 973,-332.5 979,-332.5 985,-338.5 985,-344.5 985,-344.5 985,-414.75 985,-414.75 985,-420.75 979,-426.75 973,-426.75"/>
<text text-anchor="middle" x="902" y="-409.45" font-family="Helvetica,sans-Serif" font-size="14.00">20_C &lt;= 0.5</text>
<text text-anchor="middle" x="902" y="-392.2" font-family="Helvetica,sans-Serif" font-size="14.00">entropy = 0.68</text>
<text text-anchor="middle" x="902" y="-374.95" font-family="Helvetica,sans-Serif" font-size="14.00">samples = 5126</text>
<text text-anchor="middle" x="902" y="-357.7" font-family="Helvetica,sans-Serif" font-size="14.00">value = [6573, 1441]</text>
<text text-anchor="middle" x="902" y="-340.45" font-family="Helvetica,sans-Serif" font-size="14.00">class = Animal</text>
</g>
<!-- 0&#45;&gt;14504 -->
<g id="edge16" class="edge">
<title>0&#45;&gt;14504</title>
<path fill="none" stroke="black" d="M795.93,-462.57C807.96,-453.28 820.7,-443.44 833.01,-433.93"/>
<polygon fill="black" stroke="black" points="834.91,-436.88 840.68,-428 830.63,-431.34 834.91,-436.88"/>
<text text-anchor="middle" x="838.7" y="-447.2" font-family="Helvetica,sans-Serif" font-size="14.00">False</text>
</g>
<!-- 2 -->
<g id="node3" class="node">
<title>2</title>
<path fill="#c5e2f7" stroke="black" d="M365,-296.5C365,-296.5 205,-296.5 205,-296.5 199,-296.5 193,-290.5 193,-284.5 193,-284.5 193,-214.25 193,-214.25 193,-208.25 199,-202.25 205,-202.25 205,-202.25 365,-202.25 365,-202.25 371,-202.25 377,-208.25 377,-214.25 377,-214.25 377,-284.5 377,-284.5 377,-290.5 371,-296.5 365,-296.5"/>
<text text-anchor="middle" x="285" y="-279.2" font-family="Helvetica,sans-Serif" font-size="14.00">22_G &lt;= 0.5</text>
<text text-anchor="middle" x="285" y="-261.95" font-family="Helvetica,sans-Serif" font-size="14.00">entropy = 0.979</text>
<text text-anchor="middle" x="285" y="-244.7" font-family="Helvetica,sans-Serif" font-size="14.00">samples = 25958</text>
<text text-anchor="middle" x="285" y="-227.45" font-family="Helvetica,sans-Serif" font-size="14.00">value = [16969, 23978]</text>
<text text-anchor="middle" x="285" y="-210.2" font-family="Helvetica,sans-Serif" font-size="14.00">class = Plant</text>
</g>
<!-- 1&#45;&gt;2 -->
<g id="edge2" class="edge">
<title>1&#45;&gt;2</title>
<path fill="none" stroke="black" d="M466.62,-335.38C441.24,-323.51 413.58,-310.56 387.66,-298.43"/>
<polygon fill="black" stroke="black" points="389.36,-295.36 378.82,-294.29 386.39,-301.7 389.36,-295.36"/>
</g>
<!-- 10803 -->
<g id="node10" class="node">
<title>10803</title>
<path fill="#f9e0ce" stroke="black" d="M630,-296.5C630,-296.5 488,-296.5 488,-296.5 482,-296.5 476,-290.5 476,-284.5 476,-284.5 476,-214.25 476,-214.25 476,-208.25 482,-202.25 488,-202.25 488,-202.25 630,-202.25 630,-202.25 636,-202.25 642,-208.25 642,-214.25 642,-214.25 642,-284.5 642,-284.5 642,-290.5 636,-296.5 630,-296.5"/>
<text text-anchor="middle" x="559" y="-279.2" font-family="Helvetica,sans-Serif" font-size="14.00">14_C &lt;= 0.5</text>
<text text-anchor="middle" x="559" y="-261.95" font-family="Helvetica,sans-Serif" font-size="14.00">entropy = 0.985</text>
<text text-anchor="middle" x="559" y="-244.7" font-family="Helvetica,sans-Serif" font-size="14.00">samples = 7181</text>
<text text-anchor="middle" x="559" y="-227.45" font-family="Helvetica,sans-Serif" font-size="14.00">value = [6504, 4880]</text>
<text text-anchor="middle" x="559" y="-210.2" font-family="Helvetica,sans-Serif" font-size="14.00">class = Animal</text>
</g>
<!-- 1&#45;&gt;10803 -->
<g id="edge9" class="edge">
<title>1&#45;&gt;10803</title>
<path fill="none" stroke="black" d="M559,-332.32C559,-324.42 559,-316.13 559,-307.98"/>
<polygon fill="black" stroke="black" points="562.5,-308.12 559,-298.12 555.5,-308.12 562.5,-308.12"/>
</g>
<!-- 3 -->
<g id="node4" class="node">
<title>3</title>
<path fill="#a7d4f3" stroke="black" d="M172,-166.25C172,-166.25 12,-166.25 12,-166.25 6,-166.25 0,-160.25 0,-154.25 0,-154.25 0,-84 0,-84 0,-78 6,-72 12,-72 12,-72 172,-72 172,-72 178,-72 184,-78 184,-84 184,-84 184,-154.25 184,-154.25 184,-160.25 178,-166.25 172,-166.25"/>
<text text-anchor="middle" x="92" y="-148.95" font-family="Helvetica,sans-Serif" font-size="14.00">1_C &lt;= 0.5</text>
<text text-anchor="middle" x="92" y="-131.7" font-family="Helvetica,sans-Serif" font-size="14.00">entropy = 0.941</text>
<text text-anchor="middle" x="92" y="-114.45" font-family="Helvetica,sans-Serif" font-size="14.00">samples = 22439</text>
<text text-anchor="middle" x="92" y="-97.2" font-family="Helvetica,sans-Serif" font-size="14.00">value = [12671, 22737]</text>
<text text-anchor="middle" x="92" y="-79.95" font-family="Helvetica,sans-Serif" font-size="14.00">class = Plant</text>
</g>
<!-- 2&#45;&gt;3 -->
<g id="edge3" class="edge">
<title>2&#45;&gt;3</title>
<path fill="none" stroke="black" d="M215.05,-201.89C200.89,-192.48 185.9,-182.53 171.45,-172.92"/>
<polygon fill="black" stroke="black" points="173.56,-170.12 163.3,-167.5 169.69,-175.95 173.56,-170.12"/>
</g>
<!-- 9308 -->
<g id="node7" class="node">
<title>9308</title>
<path fill="#eda572" stroke="black" d="M356,-166.25C356,-166.25 214,-166.25 214,-166.25 208,-166.25 202,-160.25 202,-154.25 202,-154.25 202,-84 202,-84 202,-78 208,-72 214,-72 214,-72 356,-72 356,-72 362,-72 368,-78 368,-84 368,-84 368,-154.25 368,-154.25 368,-160.25 362,-166.25 356,-166.25"/>
<text text-anchor="middle" x="285" y="-148.95" font-family="Helvetica,sans-Serif" font-size="14.00">24_G &lt;= 0.5</text>
<text text-anchor="middle" x="285" y="-131.7" font-family="Helvetica,sans-Serif" font-size="14.00">entropy = 0.767</text>
<text text-anchor="middle" x="285" y="-114.45" font-family="Helvetica,sans-Serif" font-size="14.00">samples = 3519</text>
<text text-anchor="middle" x="285" y="-97.2" font-family="Helvetica,sans-Serif" font-size="14.00">value = [4298, 1241]</text>
<text text-anchor="middle" x="285" y="-79.95" font-family="Helvetica,sans-Serif" font-size="14.00">class = Animal</text>
</g>
<!-- 2&#45;&gt;9308 -->
<g id="edge6" class="edge">
<title>2&#45;&gt;9308</title>
<path fill="none" stroke="black" d="M285,-202.07C285,-194.17 285,-185.88 285,-177.73"/>
<polygon fill="black" stroke="black" points="288.5,-177.87 285,-167.87 281.5,-177.87 288.5,-177.87"/>
</g>
<!-- 4 -->
<g id="node5" class="node">
<title>4</title>
<path fill="#c0c0c0" stroke="black" d="M71,-36C71,-36 41,-36 41,-36 35,-36 29,-30 29,-24 29,-24 29,-12 29,-12 29,-6 35,0 41,0 41,0 71,0 71,0 77,0 83,-6 83,-12 83,-12 83,-24 83,-24 83,-30 77,-36 71,-36"/>
<text text-anchor="middle" x="56" y="-13.32" font-family="Helvetica,sans-Serif" font-size="14.00">(...)</text>
</g>
<!-- 3&#45;&gt;4 -->
<g id="edge4" class="edge">
<title>3&#45;&gt;4</title>
<path fill="none" stroke="black" d="M75.16,-71.75C72.06,-63.22 68.92,-54.57 66.1,-46.8"/>
<polygon fill="black" stroke="black" points="69.46,-45.8 62.75,-37.6 62.88,-48.19 69.46,-45.8"/>
</g>
<!-- 7485 -->
<g id="node6" class="node">
<title>7485</title>
<path fill="#c0c0c0" stroke="black" d="M143,-36C143,-36 113,-36 113,-36 107,-36 101,-30 101,-24 101,-24 101,-12 101,-12 101,-6 107,0 113,0 113,0 143,0 143,0 149,0 155,-6 155,-12 155,-12 155,-24 155,-24 155,-30 149,-36 143,-36"/>
<text text-anchor="middle" x="128" y="-13.32" font-family="Helvetica,sans-Serif" font-size="14.00">(...)</text>
</g>
<!-- 3&#45;&gt;7485 -->
<g id="edge5" class="edge">
<title>3&#45;&gt;7485</title>
<path fill="none" stroke="black" d="M108.84,-71.75C111.94,-63.22 115.08,-54.57 117.9,-46.8"/>
<polygon fill="black" stroke="black" points="121.12,-48.19 121.25,-37.6 114.54,-45.8 121.12,-48.19"/>
</g>
<!-- 9309 -->
<g id="node8" class="node">
<title>9309</title>
<path fill="#c0c0c0" stroke="black" d="M268,-36C268,-36 238,-36 238,-36 232,-36 226,-30 226,-24 226,-24 226,-12 226,-12 226,-6 232,0 238,0 238,0 268,0 268,0 274,0 280,-6 280,-12 280,-12 280,-24 280,-24 280,-30 274,-36 268,-36"/>
<text text-anchor="middle" x="253" y="-13.32" font-family="Helvetica,sans-Serif" font-size="14.00">(...)</text>
</g>
<!-- 9308&#45;&gt;9309 -->
<g id="edge7" class="edge">
<title>9308&#45;&gt;9309</title>
<path fill="none" stroke="black" d="M270.03,-71.75C267.31,-63.32 264.55,-54.77 262.06,-47.07"/>
<polygon fill="black" stroke="black" points="265.41,-46.05 259.01,-37.61 258.75,-48.2 265.41,-46.05"/>
</g>
<!-- 10712 -->
<g id="node9" class="node">
<title>10712</title>
<path fill="#c0c0c0" stroke="black" d="M340,-36C340,-36 310,-36 310,-36 304,-36 298,-30 298,-24 298,-24 298,-12 298,-12 298,-6 304,0 310,0 310,0 340,0 340,0 346,0 352,-6 352,-12 352,-12 352,-24 352,-24 352,-30 346,-36 340,-36"/>
<text text-anchor="middle" x="325" y="-13.32" font-family="Helvetica,sans-Serif" font-size="14.00">(...)</text>
</g>
<!-- 9308&#45;&gt;10712 -->
<g id="edge8" class="edge">
<title>9308&#45;&gt;10712</title>
<path fill="none" stroke="black" d="M303.71,-71.75C307.15,-63.22 310.65,-54.57 313.78,-46.8"/>
<polygon fill="black" stroke="black" points="317.01,-48.16 317.5,-37.58 310.52,-45.54 317.01,-48.16"/>
</g>
<!-- 10804 -->
<g id="node11" class="node">
<title>10804</title>
<path fill="#f7d6be" stroke="black" d="M540,-166.25C540,-166.25 398,-166.25 398,-166.25 392,-166.25 386,-160.25 386,-154.25 386,-154.25 386,-84 386,-84 386,-78 392,-72 398,-72 398,-72 540,-72 540,-72 546,-72 552,-78 552,-84 552,-84 552,-154.25 552,-154.25 552,-160.25 546,-166.25 540,-166.25"/>
<text text-anchor="middle" x="469" y="-148.95" font-family="Helvetica,sans-Serif" font-size="14.00">22_A &lt;= 0.5</text>
<text text-anchor="middle" x="469" y="-131.7" font-family="Helvetica,sans-Serif" font-size="14.00">entropy = 0.972</text>
<text text-anchor="middle" x="469" y="-114.45" font-family="Helvetica,sans-Serif" font-size="14.00">samples = 5690</text>
<text text-anchor="middle" x="469" y="-97.2" font-family="Helvetica,sans-Serif" font-size="14.00">value = [5415, 3649]</text>
<text text-anchor="middle" x="469" y="-79.95" font-family="Helvetica,sans-Serif" font-size="14.00">class = Animal</text>
</g>
<!-- 10803&#45;&gt;10804 -->
<g id="edge10" class="edge">
<title>10803&#45;&gt;10804</title>
<path fill="none" stroke="black" d="M526.51,-202.07C520.52,-193.54 514.21,-184.54 508.05,-175.77"/>
<polygon fill="black" stroke="black" points="510.92,-173.77 502.31,-167.6 505.19,-177.79 510.92,-173.77"/>
</g>
<!-- 13795 -->
<g id="node14" class="node">
<title>13795</title>
<path fill="#e8f4fc" stroke="black" d="M724,-166.25C724,-166.25 582,-166.25 582,-166.25 576,-166.25 570,-160.25 570,-154.25 570,-154.25 570,-84 570,-84 570,-78 576,-72 582,-72 582,-72 724,-72 724,-72 730,-72 736,-78 736,-84 736,-84 736,-154.25 736,-154.25 736,-160.25 730,-166.25 724,-166.25"/>
<text text-anchor="middle" x="653" y="-148.95" font-family="Helvetica,sans-Serif" font-size="14.00">4_C &lt;= 0.5</text>
<text text-anchor="middle" x="653" y="-131.7" font-family="Helvetica,sans-Serif" font-size="14.00">entropy = 0.997</text>
<text text-anchor="middle" x="653" y="-114.45" font-family="Helvetica,sans-Serif" font-size="14.00">samples = 1491</text>
<text text-anchor="middle" x="653" y="-97.2" font-family="Helvetica,sans-Serif" font-size="14.00">value = [1089, 1231]</text>
<text text-anchor="middle" x="653" y="-79.95" font-family="Helvetica,sans-Serif" font-size="14.00">class = Plant</text>
</g>
<!-- 10803&#45;&gt;13795 -->
<g id="edge13" class="edge">
<title>10803&#45;&gt;13795</title>
<path fill="none" stroke="black" d="M592.94,-202.07C599.26,-193.45 605.92,-184.35 612.42,-175.49"/>
<polygon fill="black" stroke="black" points="615.13,-177.71 618.22,-167.58 609.48,-173.58 615.13,-177.71"/>
</g>
<!-- 10805 -->
<g id="node12" class="node">
<title>10805</title>
<path fill="#c0c0c0" stroke="black" d="M432,-36C432,-36 402,-36 402,-36 396,-36 390,-30 390,-24 390,-24 390,-12 390,-12 390,-6 396,0 402,0 402,0 432,0 432,0 438,0 444,-6 444,-12 444,-12 444,-24 444,-24 444,-30 438,-36 432,-36"/>
<text text-anchor="middle" x="417" y="-13.32" font-family="Helvetica,sans-Serif" font-size="14.00">(...)</text>
</g>
<!-- 10804&#45;&gt;10805 -->
<g id="edge11" class="edge">
<title>10804&#45;&gt;10805</title>
<path fill="none" stroke="black" d="M444.67,-71.75C440.1,-63.03 435.45,-54.16 431.3,-46.26"/>
<polygon fill="black" stroke="black" points="434.46,-44.74 426.71,-37.51 428.26,-47.99 434.46,-44.74"/>
</g>
<!-- 13366 -->
<g id="node13" class="node">
<title>13366</title>
<path fill="#c0c0c0" stroke="black" d="M504,-36C504,-36 474,-36 474,-36 468,-36 462,-30 462,-24 462,-24 462,-12 462,-12 462,-6 468,0 474,0 474,0 504,0 504,0 510,0 516,-6 516,-12 516,-12 516,-24 516,-24 516,-30 510,-36 504,-36"/>
<text text-anchor="middle" x="489" y="-13.32" font-family="Helvetica,sans-Serif" font-size="14.00">(...)</text>
</g>
<!-- 10804&#45;&gt;13366 -->
<g id="edge12" class="edge">
<title>10804&#45;&gt;13366</title>
<path fill="none" stroke="black" d="M478.36,-71.75C480.04,-63.42 481.74,-54.97 483.28,-47.34"/>
<polygon fill="black" stroke="black" points="486.69,-48.15 485.24,-37.66 479.83,-46.77 486.69,-48.15"/>
</g>
<!-- 13796 -->
<g id="node15" class="node">
<title>13796</title>
<path fill="#c0c0c0" stroke="black" d="M614,-36C614,-36 584,-36 584,-36 578,-36 572,-30 572,-24 572,-24 572,-12 572,-12 572,-6 578,0 584,0 584,0 614,0 614,0 620,0 626,-6 626,-12 626,-12 626,-24 626,-24 626,-30 620,-36 614,-36"/>
<text text-anchor="middle" x="599" y="-13.32" font-family="Helvetica,sans-Serif" font-size="14.00">(...)</text>
</g>
<!-- 13795&#45;&gt;13796 -->
<g id="edge14" class="edge">
<title>13795&#45;&gt;13796</title>
<path fill="none" stroke="black" d="M627.74,-71.75C622.98,-63.03 618.16,-54.16 613.85,-46.26"/>
<polygon fill="black" stroke="black" points="616.94,-44.61 609.08,-37.5 610.79,-47.96 616.94,-44.61"/>
</g>
<!-- 14353 -->
<g id="node16" class="node">
<title>14353</title>
<path fill="#c0c0c0" stroke="black" d="M686,-36C686,-36 656,-36 656,-36 650,-36 644,-30 644,-24 644,-24 644,-12 644,-12 644,-6 650,0 656,0 656,0 686,0 686,0 692,0 698,-6 698,-12 698,-12 698,-24 698,-24 698,-30 692,-36 686,-36"/>
<text text-anchor="middle" x="671" y="-13.32" font-family="Helvetica,sans-Serif" font-size="14.00">(...)</text>
</g>
<!-- 13795&#45;&gt;14353 -->
<g id="edge15" class="edge">
<title>13795&#45;&gt;14353</title>
<path fill="none" stroke="black" d="M661.42,-71.75C662.93,-63.42 664.47,-54.97 665.85,-47.34"/>
<polygon fill="black" stroke="black" points="669.27,-48.13 667.61,-37.66 662.38,-46.88 669.27,-48.13"/>
</g>
<!-- 14505 -->
<g id="node18" class="node">
<title>14505</title>
<path fill="#ea995f" stroke="black" d="M973,-296.5C973,-296.5 831,-296.5 831,-296.5 825,-296.5 819,-290.5 819,-284.5 819,-284.5 819,-214.25 819,-214.25 819,-208.25 825,-202.25 831,-202.25 831,-202.25 973,-202.25 973,-202.25 979,-202.25 985,-208.25 985,-214.25 985,-214.25 985,-284.5 985,-284.5 985,-290.5 979,-296.5 973,-296.5"/>
<text text-anchor="middle" x="902" y="-279.2" font-family="Helvetica,sans-Serif" font-size="14.00">25_U &lt;= 0.5</text>
<text text-anchor="middle" x="902" y="-261.95" font-family="Helvetica,sans-Serif" font-size="14.00">entropy = 0.634</text>
<text text-anchor="middle" x="902" y="-244.7" font-family="Helvetica,sans-Serif" font-size="14.00">samples = 4126</text>
<text text-anchor="middle" x="902" y="-227.45" font-family="Helvetica,sans-Serif" font-size="14.00">value = [5426, 1034]</text>
<text text-anchor="middle" x="902" y="-210.2" font-family="Helvetica,sans-Serif" font-size="14.00">class = Animal</text>
</g>
<!-- 14504&#45;&gt;14505 -->
<g id="edge17" class="edge">
<title>14504&#45;&gt;14505</title>
<path fill="none" stroke="black" d="M902,-332.32C902,-324.42 902,-316.13 902,-307.98"/>
<polygon fill="black" stroke="black" points="905.5,-308.12 902,-298.12 898.5,-308.12 905.5,-308.12"/>
</g>
<!-- 15946 -->
<g id="node25" class="node">
<title>15946</title>
<path fill="#eeae7f" stroke="black" d="M1218.5,-296.5C1218.5,-296.5 1085.5,-296.5 1085.5,-296.5 1079.5,-296.5 1073.5,-290.5 1073.5,-284.5 1073.5,-284.5 1073.5,-214.25 1073.5,-214.25 1073.5,-208.25 1079.5,-202.25 1085.5,-202.25 1085.5,-202.25 1218.5,-202.25 1218.5,-202.25 1224.5,-202.25 1230.5,-208.25 1230.5,-214.25 1230.5,-214.25 1230.5,-284.5 1230.5,-284.5 1230.5,-290.5 1224.5,-296.5 1218.5,-296.5"/>
<text text-anchor="middle" x="1152" y="-279.2" font-family="Helvetica,sans-Serif" font-size="14.00">1_A &lt;= 0.5</text>
<text text-anchor="middle" x="1152" y="-261.95" font-family="Helvetica,sans-Serif" font-size="14.00">entropy = 0.83</text>
<text text-anchor="middle" x="1152" y="-244.7" font-family="Helvetica,sans-Serif" font-size="14.00">samples = 1000</text>
<text text-anchor="middle" x="1152" y="-227.45" font-family="Helvetica,sans-Serif" font-size="14.00">value = [1147, 407]</text>
<text text-anchor="middle" x="1152" y="-210.2" font-family="Helvetica,sans-Serif" font-size="14.00">class = Animal</text>
</g>
<!-- 14504&#45;&gt;15946 -->
<g id="edge24" class="edge">
<title>14504&#45;&gt;15946</title>
<path fill="none" stroke="black" d="M985.25,-335.92C1010.33,-323.05 1037.94,-308.89 1063.35,-295.85"/>
<polygon fill="black" stroke="black" points="1064.7,-299.09 1072,-291.41 1061.51,-292.86 1064.7,-299.09"/>
</g>
<!-- 14506 -->
<g id="node19" class="node">
<title>14506</title>
<path fill="#ea985d" stroke="black" d="M899.5,-166.25C899.5,-166.25 766.5,-166.25 766.5,-166.25 760.5,-166.25 754.5,-160.25 754.5,-154.25 754.5,-154.25 754.5,-84 754.5,-84 754.5,-78 760.5,-72 766.5,-72 766.5,-72 899.5,-72 899.5,-72 905.5,-72 911.5,-78 911.5,-84 911.5,-84 911.5,-154.25 911.5,-154.25 911.5,-160.25 905.5,-166.25 899.5,-166.25"/>
<text text-anchor="middle" x="833" y="-148.95" font-family="Helvetica,sans-Serif" font-size="14.00">2_G &lt;= 0.5</text>
<text text-anchor="middle" x="833" y="-131.7" font-family="Helvetica,sans-Serif" font-size="14.00">entropy = 0.622</text>
<text text-anchor="middle" x="833" y="-114.45" font-family="Helvetica,sans-Serif" font-size="14.00">samples = 4064</text>
<text text-anchor="middle" x="833" y="-97.2" font-family="Helvetica,sans-Serif" font-size="14.00">value = [5378, 985]</text>
<text text-anchor="middle" x="833" y="-79.95" font-family="Helvetica,sans-Serif" font-size="14.00">class = Animal</text>
</g>
<!-- 14505&#45;&gt;14506 -->
<g id="edge18" class="edge">
<title>14505&#45;&gt;14506</title>
<path fill="none" stroke="black" d="M877.09,-202.07C872.59,-193.72 867.86,-184.93 863.24,-176.33"/>
<polygon fill="black" stroke="black" points="866.41,-174.84 858.59,-167.69 860.25,-178.16 866.41,-174.84"/>
</g>
<!-- 15931 -->
<g id="node22" class="node">
<title>15931</title>
<path fill="#fbfdfe" stroke="black" d="M1048,-166.25C1048,-166.25 942,-166.25 942,-166.25 936,-166.25 930,-160.25 930,-154.25 930,-154.25 930,-84 930,-84 930,-78 936,-72 942,-72 942,-72 1048,-72 1048,-72 1054,-72 1060,-78 1060,-84 1060,-84 1060,-154.25 1060,-154.25 1060,-160.25 1054,-166.25 1048,-166.25"/>
<text text-anchor="middle" x="995" y="-148.95" font-family="Helvetica,sans-Serif" font-size="14.00">2_G &lt;= 0.5</text>
<text text-anchor="middle" x="995" y="-131.7" font-family="Helvetica,sans-Serif" font-size="14.00">entropy = 1.0</text>
<text text-anchor="middle" x="995" y="-114.45" font-family="Helvetica,sans-Serif" font-size="14.00">samples = 62</text>
<text text-anchor="middle" x="995" y="-97.2" font-family="Helvetica,sans-Serif" font-size="14.00">value = [48, 49]</text>
<text text-anchor="middle" x="995" y="-79.95" font-family="Helvetica,sans-Serif" font-size="14.00">class = Plant</text>
</g>
<!-- 14505&#45;&gt;15931 -->
<g id="edge21" class="edge">
<title>14505&#45;&gt;15931</title>
<path fill="none" stroke="black" d="M935.58,-202.07C941.83,-193.45 948.43,-184.35 954.85,-175.49"/>
<polygon fill="black" stroke="black" points="957.55,-177.73 960.59,-167.58 951.88,-173.62 957.55,-177.73"/>
</g>
<!-- 14507 -->
<g id="node20" class="node">
<title>14507</title>
<path fill="#c0c0c0" stroke="black" d="M785,-36C785,-36 755,-36 755,-36 749,-36 743,-30 743,-24 743,-24 743,-12 743,-12 743,-6 749,0 755,0 755,0 785,0 785,0 791,0 797,-6 797,-12 797,-12 797,-24 797,-24 797,-30 791,-36 785,-36"/>
<text text-anchor="middle" x="770" y="-13.32" font-family="Helvetica,sans-Serif" font-size="14.00">(...)</text>
</g>
<!-- 14506&#45;&gt;14507 -->
<g id="edge19" class="edge">
<title>14506&#45;&gt;14507</title>
<path fill="none" stroke="black" d="M803.53,-71.75C797.85,-62.83 792.09,-53.76 786.98,-45.72"/>
<polygon fill="black" stroke="black" points="790.04,-44.01 781.73,-37.45 784.14,-47.77 790.04,-44.01"/>
</g>
<!-- 15556 -->
<g id="node21" class="node">
<title>15556</title>
<path fill="#c0c0c0" stroke="black" d="M857,-36C857,-36 827,-36 827,-36 821,-36 815,-30 815,-24 815,-24 815,-12 815,-12 815,-6 821,0 827,0 827,0 857,0 857,0 863,0 869,-6 869,-12 869,-12 869,-24 869,-24 869,-30 863,-36 857,-36"/>
<text text-anchor="middle" x="842" y="-13.32" font-family="Helvetica,sans-Serif" font-size="14.00">(...)</text>
</g>
<!-- 14506&#45;&gt;15556 -->
<g id="edge20" class="edge">
<title>14506&#45;&gt;15556</title>
<path fill="none" stroke="black" d="M837.21,-71.75C837.96,-63.52 838.72,-55.17 839.4,-47.61"/>
<polygon fill="black" stroke="black" points="842.89,-47.96 840.3,-37.68 835.91,-47.32 842.89,-47.96"/>
</g>
<!-- 15932 -->
<g id="node23" class="node">
<title>15932</title>
<path fill="#c0c0c0" stroke="black" d="M944,-36C944,-36 914,-36 914,-36 908,-36 902,-30 902,-24 902,-24 902,-12 902,-12 902,-6 908,0 914,0 914,0 944,0 944,0 950,0 956,-6 956,-12 956,-12 956,-24 956,-24 956,-30 950,-36 944,-36"/>
<text text-anchor="middle" x="929" y="-13.32" font-family="Helvetica,sans-Serif" font-size="14.00">(...)</text>
</g>
<!-- 15931&#45;&gt;15932 -->
<g id="edge22" class="edge">
<title>15931&#45;&gt;15932</title>
<path fill="none" stroke="black" d="M964.13,-71.75C958.18,-62.83 952.14,-53.76 946.79,-45.72"/>
<polygon fill="black" stroke="black" points="949.73,-43.82 941.27,-37.43 943.9,-47.7 949.73,-43.82"/>
</g>
<!-- 15945 -->
<g id="node24" class="node">
<title>15945</title>
<path fill="#c0c0c0" stroke="black" d="M1016,-36C1016,-36 986,-36 986,-36 980,-36 974,-30 974,-24 974,-24 974,-12 974,-12 974,-6 980,0 986,0 986,0 1016,0 1016,0 1022,0 1028,-6 1028,-12 1028,-12 1028,-24 1028,-24 1028,-30 1022,-36 1016,-36"/>
<text text-anchor="middle" x="1001" y="-13.32" font-family="Helvetica,sans-Serif" font-size="14.00">(...)</text>
</g>
<!-- 15931&#45;&gt;15945 -->
<g id="edge23" class="edge">
<title>15931&#45;&gt;15945</title>
<path fill="none" stroke="black" d="M997.81,-71.75C998.31,-63.52 998.81,-55.17 999.27,-47.61"/>
<polygon fill="black" stroke="black" points="1002.76,-47.88 999.87,-37.68 995.77,-47.45 1002.76,-47.88"/>
</g>
<!-- 15947 -->
<g id="node26" class="node">
<title>15947</title>
<path fill="#f0b489" stroke="black" d="M1214,-166.25C1214,-166.25 1090,-166.25 1090,-166.25 1084,-166.25 1078,-160.25 1078,-154.25 1078,-154.25 1078,-84 1078,-84 1078,-78 1084,-72 1090,-72 1090,-72 1214,-72 1214,-72 1220,-72 1226,-78 1226,-84 1226,-84 1226,-154.25 1226,-154.25 1226,-160.25 1220,-166.25 1214,-166.25"/>
<text text-anchor="middle" x="1152" y="-148.95" font-family="Helvetica,sans-Serif" font-size="14.00">10_G &lt;= 0.5</text>
<text text-anchor="middle" x="1152" y="-131.7" font-family="Helvetica,sans-Serif" font-size="14.00">entropy = 0.866</text>
<text text-anchor="middle" x="1152" y="-114.45" font-family="Helvetica,sans-Serif" font-size="14.00">samples = 755</text>
<text text-anchor="middle" x="1152" y="-97.2" font-family="Helvetica,sans-Serif" font-size="14.00">value = [850, 344]</text>
<text text-anchor="middle" x="1152" y="-79.95" font-family="Helvetica,sans-Serif" font-size="14.00">class = Animal</text>
</g>
<!-- 15946&#45;&gt;15947 -->
<g id="edge25" class="edge">
<title>15946&#45;&gt;15947</title>
<path fill="none" stroke="black" d="M1152,-202.07C1152,-194.17 1152,-185.88 1152,-177.73"/>
<polygon fill="black" stroke="black" points="1155.5,-177.87 1152,-167.87 1148.5,-177.87 1155.5,-177.87"/>
</g>
<!-- 16324 -->
<g id="node29" class="node">
<title>16324</title>
<path fill="#eb9c63" stroke="black" d="M1371.5,-166.25C1371.5,-166.25 1256.5,-166.25 1256.5,-166.25 1250.5,-166.25 1244.5,-160.25 1244.5,-154.25 1244.5,-154.25 1244.5,-84 1244.5,-84 1244.5,-78 1250.5,-72 1256.5,-72 1256.5,-72 1371.5,-72 1371.5,-72 1377.5,-72 1383.5,-78 1383.5,-84 1383.5,-84 1383.5,-154.25 1383.5,-154.25 1383.5,-160.25 1377.5,-166.25 1371.5,-166.25"/>
<text text-anchor="middle" x="1314" y="-148.95" font-family="Helvetica,sans-Serif" font-size="14.00">21_C &lt;= 0.5</text>
<text text-anchor="middle" x="1314" y="-131.7" font-family="Helvetica,sans-Serif" font-size="14.00">entropy = 0.669</text>
<text text-anchor="middle" x="1314" y="-114.45" font-family="Helvetica,sans-Serif" font-size="14.00">samples = 245</text>
<text text-anchor="middle" x="1314" y="-97.2" font-family="Helvetica,sans-Serif" font-size="14.00">value = [297, 63]</text>
<text text-anchor="middle" x="1314" y="-79.95" font-family="Helvetica,sans-Serif" font-size="14.00">class = Animal</text>
</g>
<!-- 15946&#45;&gt;16324 -->
<g id="edge28" class="edge">
<title>15946&#45;&gt;16324</title>
<path fill="none" stroke="black" d="M1210.49,-202.07C1222.11,-192.87 1234.41,-183.13 1246.32,-173.71"/>
<polygon fill="black" stroke="black" points="1248.47,-176.46 1254.14,-167.51 1244.13,-170.98 1248.47,-176.46"/>
</g>
<!-- 15948 -->
<g id="node27" class="node">
<title>15948</title>
<path fill="#c0c0c0" stroke="black" d="M1122,-36C1122,-36 1092,-36 1092,-36 1086,-36 1080,-30 1080,-24 1080,-24 1080,-12 1080,-12 1080,-6 1086,0 1092,0 1092,0 1122,0 1122,0 1128,0 1134,-6 1134,-12 1134,-12 1134,-24 1134,-24 1134,-30 1128,-36 1122,-36"/>
<text text-anchor="middle" x="1107" y="-13.32" font-family="Helvetica,sans-Serif" font-size="14.00">(...)</text>
</g>
<!-- 15947&#45;&gt;15948 -->
<g id="edge26" class="edge">
<title>15947&#45;&gt;15948</title>
<path fill="none" stroke="black" d="M1130.95,-71.75C1127.03,-63.12 1123.05,-54.36 1119.5,-46.53"/>
<polygon fill="black" stroke="black" points="1122.74,-45.21 1115.42,-37.55 1116.37,-48.1 1122.74,-45.21"/>
</g>
<!-- 16241 -->
<g id="node28" class="node">
<title>16241</title>
<path fill="#c0c0c0" stroke="black" d="M1194,-36C1194,-36 1164,-36 1164,-36 1158,-36 1152,-30 1152,-24 1152,-24 1152,-12 1152,-12 1152,-6 1158,0 1164,0 1164,0 1194,0 1194,0 1200,0 1206,-6 1206,-12 1206,-12 1206,-24 1206,-24 1206,-30 1200,-36 1194,-36"/>
<text text-anchor="middle" x="1179" y="-13.32" font-family="Helvetica,sans-Serif" font-size="14.00">(...)</text>
</g>
<!-- 15947&#45;&gt;16241 -->
<g id="edge27" class="edge">
<title>15947&#45;&gt;16241</title>
<path fill="none" stroke="black" d="M1164.63,-71.75C1166.93,-63.32 1169.26,-54.77 1171.35,-47.07"/>
<polygon fill="black" stroke="black" points="1174.67,-48.2 1173.92,-37.63 1167.92,-46.36 1174.67,-48.2"/>
</g>
<!-- 16325 -->
<g id="node30" class="node">
<title>16325</title>
<path fill="#c0c0c0" stroke="black" d="M1293,-36C1293,-36 1263,-36 1263,-36 1257,-36 1251,-30 1251,-24 1251,-24 1251,-12 1251,-12 1251,-6 1257,0 1263,0 1263,0 1293,0 1293,0 1299,0 1305,-6 1305,-12 1305,-12 1305,-24 1305,-24 1305,-30 1299,-36 1293,-36"/>
<text text-anchor="middle" x="1278" y="-13.32" font-family="Helvetica,sans-Serif" font-size="14.00">(...)</text>
</g>
<!-- 16324&#45;&gt;16325 -->
<g id="edge29" class="edge">
<title>16324&#45;&gt;16325</title>
<path fill="none" stroke="black" d="M1297.16,-71.75C1294.06,-63.22 1290.92,-54.57 1288.1,-46.8"/>
<polygon fill="black" stroke="black" points="1291.46,-45.8 1284.75,-37.6 1284.88,-48.19 1291.46,-45.8"/>
</g>
<!-- 16394 -->
<g id="node31" class="node">
<title>16394</title>
<path fill="#c0c0c0" stroke="black" d="M1365,-36C1365,-36 1335,-36 1335,-36 1329,-36 1323,-30 1323,-24 1323,-24 1323,-12 1323,-12 1323,-6 1329,0 1335,0 1335,0 1365,0 1365,0 1371,0 1377,-6 1377,-12 1377,-12 1377,-24 1377,-24 1377,-30 1371,-36 1365,-36"/>
<text text-anchor="middle" x="1350" y="-13.32" font-family="Helvetica,sans-Serif" font-size="14.00">(...)</text>
</g>
<!-- 16324&#45;&gt;16394 -->
<g id="edge30" class="edge">
<title>16324&#45;&gt;16394</title>
<path fill="none" stroke="black" d="M1330.84,-71.75C1333.94,-63.22 1337.08,-54.57 1339.9,-46.8"/>
<polygon fill="black" stroke="black" points="1343.12,-48.19 1343.25,-37.6 1336.54,-45.8 1343.12,-48.19"/>
</g>
</g>
</svg>
