<?xml version="1.0" encoding="UTF-8" standalone="no"?>
<!DOCTYPE svg PUBLIC "-//W3C//DTD SVG 1.1//EN"
 "http://www.w3.org/Graphics/SVG/1.1/DTD/svg11.dtd">
<!-- Generated by graphviz version 12.0.0 (20240803.0821)
 -->
<!-- Title: Tree Pages: 1 -->
<svg width="1411pt" height="565pt"
 viewBox="0.00 0.00 1411.00 565.00" xmlns="http://www.w3.org/2000/svg" xmlns:xlink="http://www.w3.org/1999/xlink">
<g id="graph0" class="graph" transform="scale(1 1) rotate(0) translate(4 561)">
<title>Tree</title>
<polygon fill="white" stroke="none" points="-4,4 -4,-561 1407,-561 1407,4 -4,4"/>
<!-- 0 -->
<g id="node1" class="node">
<title>0</title>
<path fill="#fdfeff" stroke="black" d="M804,-557C804,-557 644,-557 644,-557 638,-557 632,-551 632,-545 632,-545 632,-474.75 632,-474.75 632,-468.75 638,-462.75 644,-462.75 644,-462.75 804,-462.75 804,-462.75 810,-462.75 816,-468.75 816,-474.75 816,-474.75 816,-545 816,-545 816,-551 810,-557 804,-557"/>
<text text-anchor="middle" x="724" y="-539.7" font-family="Helvetica,sans-Serif" font-size="14.00">19_U &lt;= 0.5</text>
<text text-anchor="middle" x="724" y="-522.45" font-family="Helvetica,sans-Serif" font-size="14.00">entropy = 1.0</text>
<text text-anchor="middle" x="724" y="-505.2" font-family="Helvetica,sans-Serif" font-size="14.00">samples = 38182</text>
<text text-anchor="middle" x="724" y="-487.95" font-family="Helvetica,sans-Serif" font-size="14.00">value = [30057, 30288]</text>
<text text-anchor="middle" x="724" y="-470.7" font-family="Helvetica,sans-Serif" font-size="14.00">class = Plant</text>
</g>
<!-- 1 -->
<g id="node2" class="node">
<title>1</title>
<path fill="#deeefb" stroke="black" d="M631,-426.75C631,-426.75 471,-426.75 471,-426.75 465,-426.75 459,-420.75 459,-414.75 459,-414.75 459,-344.5 459,-344.5 459,-338.5 465,-332.5 471,-332.5 471,-332.5 631,-332.5 631,-332.5 637,-332.5 643,-338.5 643,-344.5 643,-344.5 643,-414.75 643,-414.75 643,-420.75 637,-426.75 631,-426.75"/>
<text text-anchor="middle" x="551" y="-409.45" font-family="Helvetica,sans-Serif" font-size="14.00">18_C &lt;= 0.5</text>
<text text-anchor="middle" x="551" y="-392.2" font-family="Helvetica,sans-Serif" font-size="14.00">entropy = 0.994</text>
<text text-anchor="middle" x="551" y="-374.95" font-family="Helvetica,sans-Serif" font-size="14.00">samples = 29211</text>
<text text-anchor="middle" x="551" y="-357.7" font-family="Helvetica,sans-Serif" font-size="14.00">value = [20937, 25189]</text>
<text text-anchor="middle" x="551" y="-340.45" font-family="Helvetica,sans-Serif" font-size="14.00">class = Plant</text>
</g>
<!-- 0&#45;&gt;1 -->
<g id="edge1" class="edge">
<title>0&#45;&gt;1</title>
<path fill="none" stroke="black" d="M661.54,-462.57C649,-453.28 635.73,-443.44 622.9,-433.93"/>
<polygon fill="black" stroke="black" points="624.99,-431.12 614.87,-427.97 620.82,-436.74 624.99,-431.12"/>
<text text-anchor="middle" x="617.33" y="-447.13" font-family="Helvetica,sans-Serif" font-size="14.00">True</text>
</g>
<!-- 12596 -->
<g id="node17" class="node">
<title>12596</title>
<path fill="#f4c7a8" stroke="black" d="M970,-426.75C970,-426.75 828,-426.75 828,-426.75 822,-426.75 816,-420.75 816,-414.75 816,-414.75 816,-344.5 816,-344.5 816,-338.5 822,-332.5 828,-332.5 828,-332.5 970,-332.5 970,-332.5 976,-332.5 982,-338.5 982,-344.5 982,-344.5 982,-414.75 982,-414.75 982,-420.75 976,-426.75 970,-426.75"/>
<text text-anchor="middle" x="899" y="-409.45" font-family="Helvetica,sans-Serif" font-size="14.00">22_G &lt;= 0.5</text>
<text text-anchor="middle" x="899" y="-392.2" font-family="Helvetica,sans-Serif" font-size="14.00">entropy = 0.942</text>
<text text-anchor="middle" x="899" y="-374.95" font-family="Helvetica,sans-Serif" font-size="14.00">samples = 8971</text>
<text text-anchor="middle" x="899" y="-357.7" font-family="Helvetica,sans-Serif" font-size="14.00">value = [9120, 5099]</text>
<text text-anchor="middle" x="899" y="-340.45" font-family="Helvetica,sans-Serif" font-size="14.00">class = Animal</text>
</g>
<!-- 0&#45;&gt;12596 -->
<g id="edge16" class="edge">
<title>0&#45;&gt;12596</title>
<path fill="none" stroke="black" d="M787.18,-462.57C799.99,-453.19 813.55,-443.25 826.64,-433.65"/>
<polygon fill="black" stroke="black" points="828.4,-436.7 834.4,-427.97 824.26,-431.06 828.4,-436.7"/>
<text text-anchor="middle" x="831.81" y="-447.11" font-family="Helvetica,sans-Serif" font-size="14.00">False</text>
</g>
<!-- 2 -->
<g id="node3" class="node">
<title>2</title>
<path fill="#fcfeff" stroke="black" d="M361,-296.5C361,-296.5 201,-296.5 201,-296.5 195,-296.5 189,-290.5 189,-284.5 189,-284.5 189,-214.25 189,-214.25 189,-208.25 195,-202.25 201,-202.25 201,-202.25 361,-202.25 361,-202.25 367,-202.25 373,-208.25 373,-214.25 373,-214.25 373,-284.5 373,-284.5 373,-290.5 367,-296.5 361,-296.5"/>
<text text-anchor="middle" x="281" y="-279.2" font-family="Helvetica,sans-Serif" font-size="14.00">23_G &lt;= 0.5</text>
<text text-anchor="middle" x="281" y="-261.95" font-family="Helvetica,sans-Serif" font-size="14.00">entropy = 1.0</text>
<text text-anchor="middle" x="281" y="-244.7" font-family="Helvetica,sans-Serif" font-size="14.00">samples = 21462</text>
<text text-anchor="middle" x="281" y="-227.45" font-family="Helvetica,sans-Serif" font-size="14.00">value = [16832, 17060]</text>
<text text-anchor="middle" x="281" y="-210.2" font-family="Helvetica,sans-Serif" font-size="14.00">class = Plant</text>
</g>
<!-- 1&#45;&gt;2 -->
<g id="edge2" class="edge">
<title>1&#45;&gt;2</title>
<path fill="none" stroke="black" d="M458.84,-334.85C434.53,-323.3 408.17,-310.78 383.36,-299"/>
<polygon fill="black" stroke="black" points="385.11,-295.95 374.57,-294.82 382.1,-302.27 385.11,-295.95"/>
</g>
<!-- 9827 -->
<g id="node10" class="node">
<title>9827</title>
<path fill="#9dcef2" stroke="black" d="M622,-296.5C622,-296.5 480,-296.5 480,-296.5 474,-296.5 468,-290.5 468,-284.5 468,-284.5 468,-214.25 468,-214.25 468,-208.25 474,-202.25 480,-202.25 480,-202.25 622,-202.25 622,-202.25 628,-202.25 634,-208.25 634,-214.25 634,-214.25 634,-284.5 634,-284.5 634,-290.5 628,-296.5 622,-296.5"/>
<text text-anchor="middle" x="551" y="-279.2" font-family="Helvetica,sans-Serif" font-size="14.00">9_G &lt;= 0.5</text>
<text text-anchor="middle" x="551" y="-261.95" font-family="Helvetica,sans-Serif" font-size="14.00">entropy = 0.92</text>
<text text-anchor="middle" x="551" y="-244.7" font-family="Helvetica,sans-Serif" font-size="14.00">samples = 7749</text>
<text text-anchor="middle" x="551" y="-227.45" font-family="Helvetica,sans-Serif" font-size="14.00">value = [4105, 8129]</text>
<text text-anchor="middle" x="551" y="-210.2" font-family="Helvetica,sans-Serif" font-size="14.00">class = Plant</text>
</g>
<!-- 1&#45;&gt;9827 -->
<g id="edge9" class="edge">
<title>1&#45;&gt;9827</title>
<path fill="none" stroke="black" d="M551,-332.32C551,-324.42 551,-316.13 551,-307.98"/>
<polygon fill="black" stroke="black" points="554.5,-308.12 551,-298.12 547.5,-308.12 554.5,-308.12"/>
</g>
<!-- 3 -->
<g id="node4" class="node">
<title>3</title>
<path fill="#f1f8fd" stroke="black" d="M172,-166.25C172,-166.25 12,-166.25 12,-166.25 6,-166.25 0,-160.25 0,-154.25 0,-154.25 0,-84 0,-84 0,-78 6,-72 12,-72 12,-72 172,-72 172,-72 178,-72 184,-78 184,-84 184,-84 184,-154.25 184,-154.25 184,-160.25 178,-166.25 172,-166.25"/>
<text text-anchor="middle" x="92" y="-148.95" font-family="Helvetica,sans-Serif" font-size="14.00">23_U &lt;= 0.5</text>
<text text-anchor="middle" x="92" y="-131.7" font-family="Helvetica,sans-Serif" font-size="14.00">entropy = 0.999</text>
<text text-anchor="middle" x="92" y="-114.45" font-family="Helvetica,sans-Serif" font-size="14.00">samples = 20352</text>
<text text-anchor="middle" x="92" y="-97.2" font-family="Helvetica,sans-Serif" font-size="14.00">value = [15454, 16669]</text>
<text text-anchor="middle" x="92" y="-79.95" font-family="Helvetica,sans-Serif" font-size="14.00">class = Plant</text>
</g>
<!-- 2&#45;&gt;3 -->
<g id="edge3" class="edge">
<title>2&#45;&gt;3</title>
<path fill="none" stroke="black" d="M212.5,-201.89C198.63,-192.48 183.96,-182.53 169.8,-172.92"/>
<polygon fill="black" stroke="black" points="172.08,-170.23 161.84,-167.51 168.15,-176.03 172.08,-170.23"/>
</g>
<!-- 9396 -->
<g id="node7" class="node">
<title>9396</title>
<path fill="#eca571" stroke="black" d="M347.5,-166.25C347.5,-166.25 214.5,-166.25 214.5,-166.25 208.5,-166.25 202.5,-160.25 202.5,-154.25 202.5,-154.25 202.5,-84 202.5,-84 202.5,-78 208.5,-72 214.5,-72 214.5,-72 347.5,-72 347.5,-72 353.5,-72 359.5,-78 359.5,-84 359.5,-84 359.5,-154.25 359.5,-154.25 359.5,-160.25 353.5,-166.25 347.5,-166.25"/>
<text text-anchor="middle" x="281" y="-148.95" font-family="Helvetica,sans-Serif" font-size="14.00">4_C &lt;= 0.5</text>
<text text-anchor="middle" x="281" y="-131.7" font-family="Helvetica,sans-Serif" font-size="14.00">entropy = 0.762</text>
<text text-anchor="middle" x="281" y="-114.45" font-family="Helvetica,sans-Serif" font-size="14.00">samples = 1110</text>
<text text-anchor="middle" x="281" y="-97.2" font-family="Helvetica,sans-Serif" font-size="14.00">value = [1378, 391]</text>
<text text-anchor="middle" x="281" y="-79.95" font-family="Helvetica,sans-Serif" font-size="14.00">class = Animal</text>
</g>
<!-- 2&#45;&gt;9396 -->
<g id="edge6" class="edge">
<title>2&#45;&gt;9396</title>
<path fill="none" stroke="black" d="M281,-202.07C281,-194.17 281,-185.88 281,-177.73"/>
<polygon fill="black" stroke="black" points="284.5,-177.87 281,-167.87 277.5,-177.87 284.5,-177.87"/>
</g>
<!-- 4 -->
<g id="node5" class="node">
<title>4</title>
<path fill="#c0c0c0" stroke="black" d="M71,-36C71,-36 41,-36 41,-36 35,-36 29,-30 29,-24 29,-24 29,-12 29,-12 29,-6 35,0 41,0 41,0 71,0 71,0 77,0 83,-6 83,-12 83,-12 83,-24 83,-24 83,-30 77,-36 71,-36"/>
<text text-anchor="middle" x="56" y="-13.32" font-family="Helvetica,sans-Serif" font-size="14.00">(...)</text>
</g>
<!-- 3&#45;&gt;4 -->
<g id="edge4" class="edge">
<title>3&#45;&gt;4</title>
<path fill="none" stroke="black" d="M75.16,-71.75C72.06,-63.22 68.92,-54.57 66.1,-46.8"/>
<polygon fill="black" stroke="black" points="69.46,-45.8 62.75,-37.6 62.88,-48.19 69.46,-45.8"/>
</g>
<!-- 8985 -->
<g id="node6" class="node">
<title>8985</title>
<path fill="#c0c0c0" stroke="black" d="M143,-36C143,-36 113,-36 113,-36 107,-36 101,-30 101,-24 101,-24 101,-12 101,-12 101,-6 107,0 113,0 113,0 143,0 143,0 149,0 155,-6 155,-12 155,-12 155,-24 155,-24 155,-30 149,-36 143,-36"/>
<text text-anchor="middle" x="128" y="-13.32" font-family="Helvetica,sans-Serif" font-size="14.00">(...)</text>
</g>
<!-- 3&#45;&gt;8985 -->
<g id="edge5" class="edge">
<title>3&#45;&gt;8985</title>
<path fill="none" stroke="black" d="M108.84,-71.75C111.94,-63.22 115.08,-54.57 117.9,-46.8"/>
<polygon fill="black" stroke="black" points="121.12,-48.19 121.25,-37.6 114.54,-45.8 121.12,-48.19"/>
</g>
<!-- 9397 -->
<g id="node8" class="node">
<title>9397</title>
<path fill="#c0c0c0" stroke="black" d="M260,-36C260,-36 230,-36 230,-36 224,-36 218,-30 218,-24 218,-24 218,-12 218,-12 218,-6 224,0 230,0 230,0 260,0 260,0 266,0 272,-6 272,-12 272,-12 272,-24 272,-24 272,-30 266,-36 260,-36"/>
<text text-anchor="middle" x="245" y="-13.32" font-family="Helvetica,sans-Serif" font-size="14.00">(...)</text>
</g>
<!-- 9396&#45;&gt;9397 -->
<g id="edge7" class="edge">
<title>9396&#45;&gt;9397</title>
<path fill="none" stroke="black" d="M264.16,-71.75C261.06,-63.22 257.92,-54.57 255.1,-46.8"/>
<polygon fill="black" stroke="black" points="258.46,-45.8 251.75,-37.6 251.88,-48.19 258.46,-45.8"/>
</g>
<!-- 9694 -->
<g id="node9" class="node">
<title>9694</title>
<path fill="#c0c0c0" stroke="black" d="M332,-36C332,-36 302,-36 302,-36 296,-36 290,-30 290,-24 290,-24 290,-12 290,-12 290,-6 296,0 302,0 302,0 332,0 332,0 338,0 344,-6 344,-12 344,-12 344,-24 344,-24 344,-30 338,-36 332,-36"/>
<text text-anchor="middle" x="317" y="-13.32" font-family="Helvetica,sans-Serif" font-size="14.00">(...)</text>
</g>
<!-- 9396&#45;&gt;9694 -->
<g id="edge8" class="edge">
<title>9396&#45;&gt;9694</title>
<path fill="none" stroke="black" d="M297.84,-71.75C300.94,-63.22 304.08,-54.57 306.9,-46.8"/>
<polygon fill="black" stroke="black" points="310.12,-48.19 310.25,-37.6 303.54,-45.8 310.12,-48.19"/>
</g>
<!-- 9828 -->
<g id="node11" class="node">
<title>9828</title>
<path fill="#edf6fd" stroke="black" d="M532,-166.25C532,-166.25 390,-166.25 390,-166.25 384,-166.25 378,-160.25 378,-154.25 378,-154.25 378,-84 378,-84 378,-78 384,-72 390,-72 390,-72 532,-72 532,-72 538,-72 544,-78 544,-84 544,-84 544,-154.25 544,-154.25 544,-160.25 538,-166.25 532,-166.25"/>
<text text-anchor="middle" x="461" y="-148.95" font-family="Helvetica,sans-Serif" font-size="14.00">9_U &lt;= 0.5</text>
<text text-anchor="middle" x="461" y="-131.7" font-family="Helvetica,sans-Serif" font-size="14.00">entropy = 0.998</text>
<text text-anchor="middle" x="461" y="-114.45" font-family="Helvetica,sans-Serif" font-size="14.00">samples = 4367</text>
<text text-anchor="middle" x="461" y="-97.2" font-family="Helvetica,sans-Serif" font-size="14.00">value = [3274, 3606]</text>
<text text-anchor="middle" x="461" y="-79.95" font-family="Helvetica,sans-Serif" font-size="14.00">class = Plant</text>
</g>
<!-- 9827&#45;&gt;9828 -->
<g id="edge10" class="edge">
<title>9827&#45;&gt;9828</title>
<path fill="none" stroke="black" d="M518.51,-202.07C512.52,-193.54 506.21,-184.54 500.05,-175.77"/>
<polygon fill="black" stroke="black" points="502.92,-173.77 494.31,-167.6 497.19,-177.79 502.92,-173.77"/>
</g>
<!-- 11899 -->
<g id="node14" class="node">
<title>11899</title>
<path fill="#5dafea" stroke="black" d="M707.5,-166.25C707.5,-166.25 574.5,-166.25 574.5,-166.25 568.5,-166.25 562.5,-160.25 562.5,-154.25 562.5,-154.25 562.5,-84 562.5,-84 562.5,-78 568.5,-72 574.5,-72 574.5,-72 707.5,-72 707.5,-72 713.5,-72 719.5,-78 719.5,-84 719.5,-84 719.5,-154.25 719.5,-154.25 719.5,-160.25 713.5,-166.25 707.5,-166.25"/>
<text text-anchor="middle" x="641" y="-148.95" font-family="Helvetica,sans-Serif" font-size="14.00">8_U &lt;= 0.5</text>
<text text-anchor="middle" x="641" y="-131.7" font-family="Helvetica,sans-Serif" font-size="14.00">entropy = 0.623</text>
<text text-anchor="middle" x="641" y="-114.45" font-family="Helvetica,sans-Serif" font-size="14.00">samples = 3382</text>
<text text-anchor="middle" x="641" y="-97.2" font-family="Helvetica,sans-Serif" font-size="14.00">value = [831, 4523]</text>
<text text-anchor="middle" x="641" y="-79.95" font-family="Helvetica,sans-Serif" font-size="14.00">class = Plant</text>
</g>
<!-- 9827&#45;&gt;11899 -->
<g id="edge13" class="edge">
<title>9827&#45;&gt;11899</title>
<path fill="none" stroke="black" d="M583.49,-202.07C589.48,-193.54 595.79,-184.54 601.95,-175.77"/>
<polygon fill="black" stroke="black" points="604.81,-177.79 607.69,-167.6 599.08,-173.77 604.81,-177.79"/>
</g>
<!-- 9829 -->
<g id="node12" class="node">
<title>9829</title>
<path fill="#c0c0c0" stroke="black" d="M422,-36C422,-36 392,-36 392,-36 386,-36 380,-30 380,-24 380,-24 380,-12 380,-12 380,-6 386,0 392,0 392,0 422,0 422,0 428,0 434,-6 434,-12 434,-12 434,-24 434,-24 434,-30 428,-36 422,-36"/>
<text text-anchor="middle" x="407" y="-13.32" font-family="Helvetica,sans-Serif" font-size="14.00">(...)</text>
</g>
<!-- 9828&#45;&gt;9829 -->
<g id="edge11" class="edge">
<title>9828&#45;&gt;9829</title>
<path fill="none" stroke="black" d="M435.74,-71.75C430.98,-63.03 426.16,-54.16 421.85,-46.26"/>
<polygon fill="black" stroke="black" points="424.94,-44.61 417.08,-37.5 418.79,-47.96 424.94,-44.61"/>
</g>
<!-- 11164 -->
<g id="node13" class="node">
<title>11164</title>
<path fill="#c0c0c0" stroke="black" d="M494,-36C494,-36 464,-36 464,-36 458,-36 452,-30 452,-24 452,-24 452,-12 452,-12 452,-6 458,0 464,0 464,0 494,0 494,0 500,0 506,-6 506,-12 506,-12 506,-24 506,-24 506,-30 500,-36 494,-36"/>
<text text-anchor="middle" x="479" y="-13.32" font-family="Helvetica,sans-Serif" font-size="14.00">(...)</text>
</g>
<!-- 9828&#45;&gt;11164 -->
<g id="edge12" class="edge">
<title>9828&#45;&gt;11164</title>
<path fill="none" stroke="black" d="M469.42,-71.75C470.93,-63.42 472.47,-54.97 473.85,-47.34"/>
<polygon fill="black" stroke="black" points="477.27,-48.13 475.61,-37.66 470.38,-46.88 477.27,-48.13"/>
</g>
<!-- 11900 -->
<g id="node15" class="node">
<title>11900</title>
<path fill="#c0c0c0" stroke="black" d="M602,-36C602,-36 572,-36 572,-36 566,-36 560,-30 560,-24 560,-24 560,-12 560,-12 560,-6 566,0 572,0 572,0 602,0 602,0 608,0 614,-6 614,-12 614,-12 614,-24 614,-24 614,-30 608,-36 602,-36"/>
<text text-anchor="middle" x="587" y="-13.32" font-family="Helvetica,sans-Serif" font-size="14.00">(...)</text>
</g>
<!-- 11899&#45;&gt;11900 -->
<g id="edge14" class="edge">
<title>11899&#45;&gt;11900</title>
<path fill="none" stroke="black" d="M615.74,-71.75C610.98,-63.03 606.16,-54.16 601.85,-46.26"/>
<polygon fill="black" stroke="black" points="604.94,-44.61 597.08,-37.5 598.79,-47.96 604.94,-44.61"/>
</g>
<!-- 12387 -->
<g id="node16" class="node">
<title>12387</title>
<path fill="#c0c0c0" stroke="black" d="M674,-36C674,-36 644,-36 644,-36 638,-36 632,-30 632,-24 632,-24 632,-12 632,-12 632,-6 638,0 644,0 644,0 674,0 674,0 680,0 686,-6 686,-12 686,-12 686,-24 686,-24 686,-30 680,-36 674,-36"/>
<text text-anchor="middle" x="659" y="-13.32" font-family="Helvetica,sans-Serif" font-size="14.00">(...)</text>
</g>
<!-- 11899&#45;&gt;12387 -->
<g id="edge15" class="edge">
<title>11899&#45;&gt;12387</title>
<path fill="none" stroke="black" d="M649.42,-71.75C650.93,-63.42 652.47,-54.97 653.85,-47.34"/>
<polygon fill="black" stroke="black" points="657.27,-48.13 655.61,-37.66 650.38,-46.88 657.27,-48.13"/>
</g>
<!-- 12597 -->
<g id="node18" class="node">
<title>12597</title>
<path fill="#f6d5bd" stroke="black" d="M970,-296.5C970,-296.5 828,-296.5 828,-296.5 822,-296.5 816,-290.5 816,-284.5 816,-284.5 816,-214.25 816,-214.25 816,-208.25 822,-202.25 828,-202.25 828,-202.25 970,-202.25 970,-202.25 976,-202.25 982,-208.25 982,-214.25 982,-214.25 982,-284.5 982,-284.5 982,-290.5 976,-296.5 970,-296.5"/>
<text text-anchor="middle" x="899" y="-279.2" font-family="Helvetica,sans-Serif" font-size="14.00">23_G &lt;= 0.5</text>
<text text-anchor="middle" x="899" y="-261.95" font-family="Helvetica,sans-Serif" font-size="14.00">entropy = 0.971</text>
<text text-anchor="middle" x="899" y="-244.7" font-family="Helvetica,sans-Serif" font-size="14.00">samples = 7428</text>
<text text-anchor="middle" x="899" y="-227.45" font-family="Helvetica,sans-Serif" font-size="14.00">value = [7089, 4724]</text>
<text text-anchor="middle" x="899" y="-210.2" font-family="Helvetica,sans-Serif" font-size="14.00">class = Animal</text>
</g>
<!-- 12596&#45;&gt;12597 -->
<g id="edge17" class="edge">
<title>12596&#45;&gt;12597</title>
<path fill="none" stroke="black" d="M899,-332.32C899,-324.42 899,-316.13 899,-307.98"/>
<polygon fill="black" stroke="black" points="902.5,-308.12 899,-298.12 895.5,-308.12 902.5,-308.12"/>
</g>
<!-- 16542 -->
<g id="node25" class="node">
<title>16542</title>
<path fill="#ea985e" stroke="black" d="M1224.5,-296.5C1224.5,-296.5 1091.5,-296.5 1091.5,-296.5 1085.5,-296.5 1079.5,-290.5 1079.5,-284.5 1079.5,-284.5 1079.5,-214.25 1079.5,-214.25 1079.5,-208.25 1085.5,-202.25 1091.5,-202.25 1091.5,-202.25 1224.5,-202.25 1224.5,-202.25 1230.5,-202.25 1236.5,-208.25 1236.5,-214.25 1236.5,-214.25 1236.5,-284.5 1236.5,-284.5 1236.5,-290.5 1230.5,-296.5 1224.5,-296.5"/>
<text text-anchor="middle" x="1158" y="-279.2" font-family="Helvetica,sans-Serif" font-size="14.00">10_G &lt;= 0.5</text>
<text text-anchor="middle" x="1158" y="-261.95" font-family="Helvetica,sans-Serif" font-size="14.00">entropy = 0.624</text>
<text text-anchor="middle" x="1158" y="-244.7" font-family="Helvetica,sans-Serif" font-size="14.00">samples = 1543</text>
<text text-anchor="middle" x="1158" y="-227.45" font-family="Helvetica,sans-Serif" font-size="14.00">value = [2031, 375]</text>
<text text-anchor="middle" x="1158" y="-210.2" font-family="Helvetica,sans-Serif" font-size="14.00">class = Animal</text>
</g>
<!-- 12596&#45;&gt;16542 -->
<g id="edge24" class="edge">
<title>12596&#45;&gt;16542</title>
<path fill="none" stroke="black" d="M982.37,-337.34C1010.03,-323.64 1040.92,-308.35 1068.99,-294.45"/>
<polygon fill="black" stroke="black" points="1070.42,-297.65 1077.83,-290.07 1067.32,-291.37 1070.42,-297.65"/>
</g>
<!-- 12598 -->
<g id="node19" class="node">
<title>12598</title>
<path fill="#f7dac4" stroke="black" d="M892,-166.25C892,-166.25 750,-166.25 750,-166.25 744,-166.25 738,-160.25 738,-154.25 738,-154.25 738,-84 738,-84 738,-78 744,-72 750,-72 750,-72 892,-72 892,-72 898,-72 904,-78 904,-84 904,-84 904,-154.25 904,-154.25 904,-160.25 898,-166.25 892,-166.25"/>
<text text-anchor="middle" x="821" y="-148.95" font-family="Helvetica,sans-Serif" font-size="14.00">11_G &lt;= 0.5</text>
<text text-anchor="middle" x="821" y="-131.7" font-family="Helvetica,sans-Serif" font-size="14.00">entropy = 0.978</text>
<text text-anchor="middle" x="821" y="-114.45" font-family="Helvetica,sans-Serif" font-size="14.00">samples = 7066</text>
<text text-anchor="middle" x="821" y="-97.2" font-family="Helvetica,sans-Serif" font-size="14.00">value = [6597, 4645]</text>
<text text-anchor="middle" x="821" y="-79.95" font-family="Helvetica,sans-Serif" font-size="14.00">class = Animal</text>
</g>
<!-- 12597&#45;&gt;12598 -->
<g id="edge18" class="edge">
<title>12597&#45;&gt;12598</title>
<path fill="none" stroke="black" d="M870.84,-202.07C865.7,-193.63 860.3,-184.74 855.01,-176.05"/>
<polygon fill="black" stroke="black" points="858.09,-174.38 849.9,-167.65 852.11,-178.01 858.09,-174.38"/>
</g>
<!-- 16407 -->
<g id="node22" class="node">
<title>16407</title>
<path fill="#e99559" stroke="black" d="M1049.5,-166.25C1049.5,-166.25 934.5,-166.25 934.5,-166.25 928.5,-166.25 922.5,-160.25 922.5,-154.25 922.5,-154.25 922.5,-84 922.5,-84 922.5,-78 928.5,-72 934.5,-72 934.5,-72 1049.5,-72 1049.5,-72 1055.5,-72 1061.5,-78 1061.5,-84 1061.5,-84 1061.5,-154.25 1061.5,-154.25 1061.5,-160.25 1055.5,-166.25 1049.5,-166.25"/>
<text text-anchor="middle" x="992" y="-148.95" font-family="Helvetica,sans-Serif" font-size="14.00">9_G &lt;= 0.5</text>
<text text-anchor="middle" x="992" y="-131.7" font-family="Helvetica,sans-Serif" font-size="14.00">entropy = 0.58</text>
<text text-anchor="middle" x="992" y="-114.45" font-family="Helvetica,sans-Serif" font-size="14.00">samples = 362</text>
<text text-anchor="middle" x="992" y="-97.2" font-family="Helvetica,sans-Serif" font-size="14.00">value = [492, 79]</text>
<text text-anchor="middle" x="992" y="-79.95" font-family="Helvetica,sans-Serif" font-size="14.00">class = Animal</text>
</g>
<!-- 12597&#45;&gt;16407 -->
<g id="edge21" class="edge">
<title>12597&#45;&gt;16407</title>
<path fill="none" stroke="black" d="M932.58,-202.07C938.83,-193.45 945.43,-184.35 951.85,-175.49"/>
<polygon fill="black" stroke="black" points="954.55,-177.73 957.59,-167.58 948.88,-173.62 954.55,-177.73"/>
</g>
<!-- 12599 -->
<g id="node20" class="node">
<title>12599</title>
<path fill="#c0c0c0" stroke="black" d="M777,-36C777,-36 747,-36 747,-36 741,-36 735,-30 735,-24 735,-24 735,-12 735,-12 735,-6 741,0 747,0 747,0 777,0 777,0 783,0 789,-6 789,-12 789,-12 789,-24 789,-24 789,-30 783,-36 777,-36"/>
<text text-anchor="middle" x="762" y="-13.32" font-family="Helvetica,sans-Serif" font-size="14.00">(...)</text>
</g>
<!-- 12598&#45;&gt;12599 -->
<g id="edge19" class="edge">
<title>12598&#45;&gt;12599</title>
<path fill="none" stroke="black" d="M793.4,-71.75C788.15,-62.93 782.81,-53.96 778.06,-45.99"/>
<polygon fill="black" stroke="black" points="781.12,-44.28 773,-37.47 775.1,-47.86 781.12,-44.28"/>
</g>
<!-- 15346 -->
<g id="node21" class="node">
<title>15346</title>
<path fill="#c0c0c0" stroke="black" d="M849,-36C849,-36 819,-36 819,-36 813,-36 807,-30 807,-24 807,-24 807,-12 807,-12 807,-6 813,0 819,0 819,0 849,0 849,0 855,0 861,-6 861,-12 861,-12 861,-24 861,-24 861,-30 855,-36 849,-36"/>
<text text-anchor="middle" x="834" y="-13.32" font-family="Helvetica,sans-Serif" font-size="14.00">(...)</text>
</g>
<!-- 12598&#45;&gt;15346 -->
<g id="edge20" class="edge">
<title>12598&#45;&gt;15346</title>
<path fill="none" stroke="black" d="M827.08,-71.75C828.17,-63.42 829.28,-54.97 830.28,-47.34"/>
<polygon fill="black" stroke="black" points="833.72,-48.04 831.55,-37.67 826.78,-47.13 833.72,-48.04"/>
</g>
<!-- 16408 -->
<g id="node23" class="node">
<title>16408</title>
<path fill="#c0c0c0" stroke="black" d="M946,-36C946,-36 916,-36 916,-36 910,-36 904,-30 904,-24 904,-24 904,-12 904,-12 904,-6 910,0 916,0 916,0 946,0 946,0 952,0 958,-6 958,-12 958,-12 958,-24 958,-24 958,-30 952,-36 946,-36"/>
<text text-anchor="middle" x="931" y="-13.32" font-family="Helvetica,sans-Serif" font-size="14.00">(...)</text>
</g>
<!-- 16407&#45;&gt;16408 -->
<g id="edge22" class="edge">
<title>16407&#45;&gt;16408</title>
<path fill="none" stroke="black" d="M963.46,-71.75C957.97,-62.83 952.39,-53.76 947.44,-45.72"/>
<polygon fill="black" stroke="black" points="950.58,-44.14 942.36,-37.46 944.62,-47.81 950.58,-44.14"/>
</g>
<!-- 16503 -->
<g id="node24" class="node">
<title>16503</title>
<path fill="#c0c0c0" stroke="black" d="M1018,-36C1018,-36 988,-36 988,-36 982,-36 976,-30 976,-24 976,-24 976,-12 976,-12 976,-6 982,0 988,0 988,0 1018,0 1018,0 1024,0 1030,-6 1030,-12 1030,-12 1030,-24 1030,-24 1030,-30 1024,-36 1018,-36"/>
<text text-anchor="middle" x="1003" y="-13.32" font-family="Helvetica,sans-Serif" font-size="14.00">(...)</text>
</g>
<!-- 16407&#45;&gt;16503 -->
<g id="edge23" class="edge">
<title>16407&#45;&gt;16503</title>
<path fill="none" stroke="black" d="M997.15,-71.75C998.06,-63.52 998.99,-55.17 999.82,-47.61"/>
<polygon fill="black" stroke="black" points="1003.3,-48 1000.93,-37.68 996.35,-47.23 1003.3,-48"/>
</g>
<!-- 16543 -->
<g id="node26" class="node">
<title>16543</title>
<path fill="#e99457" stroke="black" d="M1224.5,-166.25C1224.5,-166.25 1091.5,-166.25 1091.5,-166.25 1085.5,-166.25 1079.5,-160.25 1079.5,-154.25 1079.5,-154.25 1079.5,-84 1079.5,-84 1079.5,-78 1085.5,-72 1091.5,-72 1091.5,-72 1224.5,-72 1224.5,-72 1230.5,-72 1236.5,-78 1236.5,-84 1236.5,-84 1236.5,-154.25 1236.5,-154.25 1236.5,-160.25 1230.5,-166.25 1224.5,-166.25"/>
<text text-anchor="middle" x="1158" y="-148.95" font-family="Helvetica,sans-Serif" font-size="14.00">9_U &lt;= 0.5</text>
<text text-anchor="middle" x="1158" y="-131.7" font-family="Helvetica,sans-Serif" font-size="14.00">entropy = 0.562</text>
<text text-anchor="middle" x="1158" y="-114.45" font-family="Helvetica,sans-Serif" font-size="14.00">samples = 1222</text>
<text text-anchor="middle" x="1158" y="-97.2" font-family="Helvetica,sans-Serif" font-size="14.00">value = [1637, 248]</text>
<text text-anchor="middle" x="1158" y="-79.95" font-family="Helvetica,sans-Serif" font-size="14.00">class = Animal</text>
</g>
<!-- 16542&#45;&gt;16543 -->
<g id="edge25" class="edge">
<title>16542&#45;&gt;16543</title>
<path fill="none" stroke="black" d="M1158,-202.07C1158,-194.17 1158,-185.88 1158,-177.73"/>
<polygon fill="black" stroke="black" points="1161.5,-177.87 1158,-167.87 1154.5,-177.87 1161.5,-177.87"/>
</g>
<!-- 16934 -->
<g id="node29" class="node">
<title>16934</title>
<path fill="#edaa79" stroke="black" d="M1391,-166.25C1391,-166.25 1267,-166.25 1267,-166.25 1261,-166.25 1255,-160.25 1255,-154.25 1255,-154.25 1255,-84 1255,-84 1255,-78 1261,-72 1267,-72 1267,-72 1391,-72 1391,-72 1397,-72 1403,-78 1403,-84 1403,-84 1403,-154.25 1403,-154.25 1403,-160.25 1397,-166.25 1391,-166.25"/>
<text text-anchor="middle" x="1329" y="-148.95" font-family="Helvetica,sans-Serif" font-size="14.00">5_A &lt;= 0.5</text>
<text text-anchor="middle" x="1329" y="-131.7" font-family="Helvetica,sans-Serif" font-size="14.00">entropy = 0.801</text>
<text text-anchor="middle" x="1329" y="-114.45" font-family="Helvetica,sans-Serif" font-size="14.00">samples = 321</text>
<text text-anchor="middle" x="1329" y="-97.2" font-family="Helvetica,sans-Serif" font-size="14.00">value = [394, 127]</text>
<text text-anchor="middle" x="1329" y="-79.95" font-family="Helvetica,sans-Serif" font-size="14.00">class = Animal</text>
</g>
<!-- 16542&#45;&gt;16934 -->
<g id="edge28" class="edge">
<title>16542&#45;&gt;16934</title>
<path fill="none" stroke="black" d="M1219.73,-202.07C1232.13,-192.78 1245.25,-182.94 1257.93,-173.43"/>
<polygon fill="black" stroke="black" points="1259.96,-176.28 1265.86,-167.48 1255.76,-170.68 1259.96,-176.28"/>
</g>
<!-- 16544 -->
<g id="node27" class="node">
<title>16544</title>
<path fill="#c0c0c0" stroke="black" d="M1132,-36C1132,-36 1102,-36 1102,-36 1096,-36 1090,-30 1090,-24 1090,-24 1090,-12 1090,-12 1090,-6 1096,0 1102,0 1102,0 1132,0 1132,0 1138,0 1144,-6 1144,-12 1144,-12 1144,-24 1144,-24 1144,-30 1138,-36 1132,-36"/>
<text text-anchor="middle" x="1117" y="-13.32" font-family="Helvetica,sans-Serif" font-size="14.00">(...)</text>
</g>
<!-- 16543&#45;&gt;16544 -->
<g id="edge26" class="edge">
<title>16543&#45;&gt;16544</title>
<path fill="none" stroke="black" d="M1138.82,-71.75C1135.29,-63.22 1131.71,-54.57 1128.5,-46.8"/>
<polygon fill="black" stroke="black" points="1131.74,-45.47 1124.68,-37.57 1125.27,-48.15 1131.74,-45.47"/>
</g>
<!-- 16851 -->
<g id="node28" class="node">
<title>16851</title>
<path fill="#c0c0c0" stroke="black" d="M1204,-36C1204,-36 1174,-36 1174,-36 1168,-36 1162,-30 1162,-24 1162,-24 1162,-12 1162,-12 1162,-6 1168,0 1174,0 1174,0 1204,0 1204,0 1210,0 1216,-6 1216,-12 1216,-12 1216,-24 1216,-24 1216,-30 1210,-36 1204,-36"/>
<text text-anchor="middle" x="1189" y="-13.32" font-family="Helvetica,sans-Serif" font-size="14.00">(...)</text>
</g>
<!-- 16543&#45;&gt;16851 -->
<g id="edge27" class="edge">
<title>16543&#45;&gt;16851</title>
<path fill="none" stroke="black" d="M1172.5,-71.75C1175.14,-63.32 1177.81,-54.77 1180.22,-47.07"/>
<polygon fill="black" stroke="black" points="1183.53,-48.21 1183.18,-37.62 1176.85,-46.12 1183.53,-48.21"/>
</g>
<!-- 16935 -->
<g id="node30" class="node">
<title>16935</title>
<path fill="#c0c0c0" stroke="black" d="M1308,-36C1308,-36 1278,-36 1278,-36 1272,-36 1266,-30 1266,-24 1266,-24 1266,-12 1266,-12 1266,-6 1272,0 1278,0 1278,0 1308,0 1308,0 1314,0 1320,-6 1320,-12 1320,-12 1320,-24 1320,-24 1320,-30 1314,-36 1308,-36"/>
<text text-anchor="middle" x="1293" y="-13.32" font-family="Helvetica,sans-Serif" font-size="14.00">(...)</text>
</g>
<!-- 16934&#45;&gt;16935 -->
<g id="edge29" class="edge">
<title>16934&#45;&gt;16935</title>
<path fill="none" stroke="black" d="M1312.16,-71.75C1309.06,-63.22 1305.92,-54.57 1303.1,-46.8"/>
<polygon fill="black" stroke="black" points="1306.46,-45.8 1299.75,-37.6 1299.88,-48.19 1306.46,-45.8"/>
</g>
<!-- 17036 -->
<g id="node31" class="node">
<title>17036</title>
<path fill="#c0c0c0" stroke="black" d="M1380,-36C1380,-36 1350,-36 1350,-36 1344,-36 1338,-30 1338,-24 1338,-24 1338,-12 1338,-12 1338,-6 1344,0 1350,0 1350,0 1380,0 1380,0 1386,0 1392,-6 1392,-12 1392,-12 1392,-24 1392,-24 1392,-30 1386,-36 1380,-36"/>
<text text-anchor="middle" x="1365" y="-13.32" font-family="Helvetica,sans-Serif" font-size="14.00">(...)</text>
</g>
<!-- 16934&#45;&gt;17036 -->
<g id="edge30" class="edge">
<title>16934&#45;&gt;17036</title>
<path fill="none" stroke="black" d="M1345.84,-71.75C1348.94,-63.22 1352.08,-54.57 1354.9,-46.8"/>
<polygon fill="black" stroke="black" points="1358.12,-48.19 1358.25,-37.6 1351.54,-45.8 1358.12,-48.19"/>
</g>
</g>
</svg>
