<?xml version="1.0" encoding="UTF-8" standalone="no"?>
<!DOCTYPE svg PUBLIC "-//W3C//DTD SVG 1.1//EN"
 "http://www.w3.org/Graphics/SVG/1.1/DTD/svg11.dtd">
<!-- Generated by graphviz version 12.0.0 (20240803.0821)
 -->
<!-- Title: Tree Pages: 1 -->
<svg width="1382pt" height="565pt"
 viewBox="0.00 0.00 1382.00 565.00" xmlns="http://www.w3.org/2000/svg" xmlns:xlink="http://www.w3.org/1999/xlink">
<g id="graph0" class="graph" transform="scale(1 1) rotate(0) translate(4 561)">
<title>Tree</title>
<polygon fill="white" stroke="none" points="-4,4 -4,-561 1378,-561 1378,4 -4,4"/>
<!-- 0 -->
<g id="node1" class="node">
<title>0</title>
<path fill="#ffffff" stroke="black" d="M776,-557C776,-557 616,-557 616,-557 610,-557 604,-551 604,-545 604,-545 604,-474.75 604,-474.75 604,-468.75 610,-462.75 616,-462.75 616,-462.75 776,-462.75 776,-462.75 782,-462.75 788,-468.75 788,-474.75 788,-474.75 788,-545 788,-545 788,-551 782,-557 776,-557"/>
<text text-anchor="middle" x="696" y="-539.7" font-family="Helvetica,sans-Serif" font-size="14.00">1_C &lt;= 0.5</text>
<text text-anchor="middle" x="696" y="-522.45" font-family="Helvetica,sans-Serif" font-size="14.00">entropy = 1.0</text>
<text text-anchor="middle" x="696" y="-505.2" font-family="Helvetica,sans-Serif" font-size="14.00">samples = 38162</text>
<text text-anchor="middle" x="696" y="-487.95" font-family="Helvetica,sans-Serif" font-size="14.00">value = [30186, 30159]</text>
<text text-anchor="middle" x="696" y="-470.7" font-family="Helvetica,sans-Serif" font-size="14.00">class = Animal</text>
</g>
<!-- 1 -->
<g id="node2" class="node">
<title>1</title>
<path fill="#f6fbfe" stroke="black" d="M617,-426.75C617,-426.75 457,-426.75 457,-426.75 451,-426.75 445,-420.75 445,-414.75 445,-414.75 445,-344.5 445,-344.5 445,-338.5 451,-332.5 457,-332.5 457,-332.5 617,-332.5 617,-332.5 623,-332.5 629,-338.5 629,-344.5 629,-344.5 629,-414.75 629,-414.75 629,-420.75 623,-426.75 617,-426.75"/>
<text text-anchor="middle" x="537" y="-409.45" font-family="Helvetica,sans-Serif" font-size="14.00">23_U &lt;= 0.5</text>
<text text-anchor="middle" x="537" y="-392.2" font-family="Helvetica,sans-Serif" font-size="14.00">entropy = 1.0</text>
<text text-anchor="middle" x="537" y="-374.95" font-family="Helvetica,sans-Serif" font-size="14.00">samples = 32126</text>
<text text-anchor="middle" x="537" y="-357.7" font-family="Helvetica,sans-Serif" font-size="14.00">value = [24841, 25964]</text>
<text text-anchor="middle" x="537" y="-340.45" font-family="Helvetica,sans-Serif" font-size="14.00">class = Plant</text>
</g>
<!-- 0&#45;&gt;1 -->
<g id="edge1" class="edge">
<title>0&#45;&gt;1</title>
<path fill="none" stroke="black" d="M638.6,-462.57C627.19,-453.37 615.11,-443.63 603.43,-434.21"/>
<polygon fill="black" stroke="black" points="605.74,-431.58 595.76,-428.02 601.35,-437.03 605.74,-431.58"/>
<text text-anchor="middle" x="597.25" y="-447.26" font-family="Helvetica,sans-Serif" font-size="14.00">True</text>
</g>
<!-- 14018 -->
<g id="node17" class="node">
<title>14018</title>
<path fill="#f9e4d4" stroke="black" d="M942,-426.75C942,-426.75 800,-426.75 800,-426.75 794,-426.75 788,-420.75 788,-414.75 788,-414.75 788,-344.5 788,-344.5 788,-338.5 794,-332.5 800,-332.5 800,-332.5 942,-332.5 942,-332.5 948,-332.5 954,-338.5 954,-344.5 954,-344.5 954,-414.75 954,-414.75 954,-420.75 948,-426.75 942,-426.75"/>
<text text-anchor="middle" x="871" y="-409.45" font-family="Helvetica,sans-Serif" font-size="14.00">12_G &lt;= 0.5</text>
<text text-anchor="middle" x="871" y="-392.2" font-family="Helvetica,sans-Serif" font-size="14.00">entropy = 0.989</text>
<text text-anchor="middle" x="871" y="-374.95" font-family="Helvetica,sans-Serif" font-size="14.00">samples = 6036</text>
<text text-anchor="middle" x="871" y="-357.7" font-family="Helvetica,sans-Serif" font-size="14.00">value = [5345, 4195]</text>
<text text-anchor="middle" x="871" y="-340.45" font-family="Helvetica,sans-Serif" font-size="14.00">class = Animal</text>
</g>
<!-- 0&#45;&gt;14018 -->
<g id="edge16" class="edge">
<title>0&#45;&gt;14018</title>
<path fill="none" stroke="black" d="M759.18,-462.57C771.99,-453.19 785.55,-443.25 798.64,-433.65"/>
<polygon fill="black" stroke="black" points="800.4,-436.7 806.4,-427.97 796.26,-431.06 800.4,-436.7"/>
<text text-anchor="middle" x="803.81" y="-447.11" font-family="Helvetica,sans-Serif" font-size="14.00">False</text>
</g>
<!-- 2 -->
<g id="node3" class="node">
<title>2</title>
<path fill="#e9f4fc" stroke="black" d="M365,-296.5C365,-296.5 205,-296.5 205,-296.5 199,-296.5 193,-290.5 193,-284.5 193,-284.5 193,-214.25 193,-214.25 193,-208.25 199,-202.25 205,-202.25 205,-202.25 365,-202.25 365,-202.25 371,-202.25 377,-208.25 377,-214.25 377,-214.25 377,-284.5 377,-284.5 377,-290.5 371,-296.5 365,-296.5"/>
<text text-anchor="middle" x="285" y="-279.2" font-family="Helvetica,sans-Serif" font-size="14.00">10_A &lt;= 0.5</text>
<text text-anchor="middle" x="285" y="-261.95" font-family="Helvetica,sans-Serif" font-size="14.00">entropy = 0.997</text>
<text text-anchor="middle" x="285" y="-244.7" font-family="Helvetica,sans-Serif" font-size="14.00">samples = 30435</text>
<text text-anchor="middle" x="285" y="-227.45" font-family="Helvetica,sans-Serif" font-size="14.00">value = [22625, 25512]</text>
<text text-anchor="middle" x="285" y="-210.2" font-family="Helvetica,sans-Serif" font-size="14.00">class = Plant</text>
</g>
<!-- 1&#45;&gt;2 -->
<g id="edge2" class="edge">
<title>1&#45;&gt;2</title>
<path fill="none" stroke="black" d="M445.67,-332.14C426.47,-322.38 406.12,-312.02 386.58,-302.07"/>
<polygon fill="black" stroke="black" points="388.29,-299.02 377.79,-297.6 385.12,-305.26 388.29,-299.02"/>
</g>
<!-- 13385 -->
<g id="node10" class="node">
<title>13385</title>
<path fill="#ea9b61" stroke="black" d="M603.5,-296.5C603.5,-296.5 470.5,-296.5 470.5,-296.5 464.5,-296.5 458.5,-290.5 458.5,-284.5 458.5,-284.5 458.5,-214.25 458.5,-214.25 458.5,-208.25 464.5,-202.25 470.5,-202.25 470.5,-202.25 603.5,-202.25 603.5,-202.25 609.5,-202.25 615.5,-208.25 615.5,-214.25 615.5,-214.25 615.5,-284.5 615.5,-284.5 615.5,-290.5 609.5,-296.5 603.5,-296.5"/>
<text text-anchor="middle" x="537" y="-279.2" font-family="Helvetica,sans-Serif" font-size="14.00">24_A &lt;= 0.5</text>
<text text-anchor="middle" x="537" y="-261.95" font-family="Helvetica,sans-Serif" font-size="14.00">entropy = 0.656</text>
<text text-anchor="middle" x="537" y="-244.7" font-family="Helvetica,sans-Serif" font-size="14.00">samples = 1691</text>
<text text-anchor="middle" x="537" y="-227.45" font-family="Helvetica,sans-Serif" font-size="14.00">value = [2216, 452]</text>
<text text-anchor="middle" x="537" y="-210.2" font-family="Helvetica,sans-Serif" font-size="14.00">class = Animal</text>
</g>
<!-- 1&#45;&gt;13385 -->
<g id="edge9" class="edge">
<title>1&#45;&gt;13385</title>
<path fill="none" stroke="black" d="M537,-332.32C537,-324.42 537,-316.13 537,-307.98"/>
<polygon fill="black" stroke="black" points="540.5,-308.12 537,-298.12 533.5,-308.12 540.5,-308.12"/>
</g>
<!-- 3 -->
<g id="node4" class="node">
<title>3</title>
<path fill="#fffdfc" stroke="black" d="M172,-166.25C172,-166.25 12,-166.25 12,-166.25 6,-166.25 0,-160.25 0,-154.25 0,-154.25 0,-84 0,-84 0,-78 6,-72 12,-72 12,-72 172,-72 172,-72 178,-72 184,-78 184,-84 184,-84 184,-154.25 184,-154.25 184,-160.25 178,-166.25 172,-166.25"/>
<text text-anchor="middle" x="92" y="-148.95" font-family="Helvetica,sans-Serif" font-size="14.00">8_U &lt;= 0.5</text>
<text text-anchor="middle" x="92" y="-131.7" font-family="Helvetica,sans-Serif" font-size="14.00">entropy = 1.0</text>
<text text-anchor="middle" x="92" y="-114.45" font-family="Helvetica,sans-Serif" font-size="14.00">samples = 21380</text>
<text text-anchor="middle" x="92" y="-97.2" font-family="Helvetica,sans-Serif" font-size="14.00">value = [17022, 16771]</text>
<text text-anchor="middle" x="92" y="-79.95" font-family="Helvetica,sans-Serif" font-size="14.00">class = Animal</text>
</g>
<!-- 2&#45;&gt;3 -->
<g id="edge3" class="edge">
<title>2&#45;&gt;3</title>
<path fill="none" stroke="black" d="M215.05,-201.89C200.89,-192.48 185.9,-182.53 171.45,-172.92"/>
<polygon fill="black" stroke="black" points="173.56,-170.12 163.3,-167.5 169.69,-175.95 173.56,-170.12"/>
</g>
<!-- 10044 -->
<g id="node7" class="node">
<title>10044</title>
<path fill="#b8dcf6" stroke="black" d="M356,-166.25C356,-166.25 214,-166.25 214,-166.25 208,-166.25 202,-160.25 202,-154.25 202,-154.25 202,-84 202,-84 202,-78 208,-72 214,-72 214,-72 356,-72 356,-72 362,-72 368,-78 368,-84 368,-84 368,-154.25 368,-154.25 368,-160.25 362,-166.25 356,-166.25"/>
<text text-anchor="middle" x="285" y="-148.95" font-family="Helvetica,sans-Serif" font-size="14.00">18_C &lt;= 0.5</text>
<text text-anchor="middle" x="285" y="-131.7" font-family="Helvetica,sans-Serif" font-size="14.00">entropy = 0.965</text>
<text text-anchor="middle" x="285" y="-114.45" font-family="Helvetica,sans-Serif" font-size="14.00">samples = 9055</text>
<text text-anchor="middle" x="285" y="-97.2" font-family="Helvetica,sans-Serif" font-size="14.00">value = [5603, 8741]</text>
<text text-anchor="middle" x="285" y="-79.95" font-family="Helvetica,sans-Serif" font-size="14.00">class = Plant</text>
</g>
<!-- 2&#45;&gt;10044 -->
<g id="edge6" class="edge">
<title>2&#45;&gt;10044</title>
<path fill="none" stroke="black" d="M285,-202.07C285,-194.17 285,-185.88 285,-177.73"/>
<polygon fill="black" stroke="black" points="288.5,-177.87 285,-167.87 281.5,-177.87 288.5,-177.87"/>
</g>
<!-- 4 -->
<g id="node5" class="node">
<title>4</title>
<path fill="#c0c0c0" stroke="black" d="M71,-36C71,-36 41,-36 41,-36 35,-36 29,-30 29,-24 29,-24 29,-12 29,-12 29,-6 35,0 41,0 41,0 71,0 71,0 77,0 83,-6 83,-12 83,-12 83,-24 83,-24 83,-30 77,-36 71,-36"/>
<text text-anchor="middle" x="56" y="-13.32" font-family="Helvetica,sans-Serif" font-size="14.00">(...)</text>
</g>
<!-- 3&#45;&gt;4 -->
<g id="edge4" class="edge">
<title>3&#45;&gt;4</title>
<path fill="none" stroke="black" d="M75.16,-71.75C72.06,-63.22 68.92,-54.57 66.1,-46.8"/>
<polygon fill="black" stroke="black" points="69.46,-45.8 62.75,-37.6 62.88,-48.19 69.46,-45.8"/>
</g>
<!-- 7311 -->
<g id="node6" class="node">
<title>7311</title>
<path fill="#c0c0c0" stroke="black" d="M143,-36C143,-36 113,-36 113,-36 107,-36 101,-30 101,-24 101,-24 101,-12 101,-12 101,-6 107,0 113,0 113,0 143,0 143,0 149,0 155,-6 155,-12 155,-12 155,-24 155,-24 155,-30 149,-36 143,-36"/>
<text text-anchor="middle" x="128" y="-13.32" font-family="Helvetica,sans-Serif" font-size="14.00">(...)</text>
</g>
<!-- 3&#45;&gt;7311 -->
<g id="edge5" class="edge">
<title>3&#45;&gt;7311</title>
<path fill="none" stroke="black" d="M108.84,-71.75C111.94,-63.22 115.08,-54.57 117.9,-46.8"/>
<polygon fill="black" stroke="black" points="121.12,-48.19 121.25,-37.6 114.54,-45.8 121.12,-48.19"/>
</g>
<!-- 10045 -->
<g id="node8" class="node">
<title>10045</title>
<path fill="#c0c0c0" stroke="black" d="M255,-36C255,-36 225,-36 225,-36 219,-36 213,-30 213,-24 213,-24 213,-12 213,-12 213,-6 219,0 225,0 225,0 255,0 255,0 261,0 267,-6 267,-12 267,-12 267,-24 267,-24 267,-30 261,-36 255,-36"/>
<text text-anchor="middle" x="240" y="-13.32" font-family="Helvetica,sans-Serif" font-size="14.00">(...)</text>
</g>
<!-- 10044&#45;&gt;10045 -->
<g id="edge7" class="edge">
<title>10044&#45;&gt;10045</title>
<path fill="none" stroke="black" d="M263.95,-71.75C260.03,-63.12 256.05,-54.36 252.5,-46.53"/>
<polygon fill="black" stroke="black" points="255.74,-45.21 248.42,-37.55 249.37,-48.1 255.74,-45.21"/>
</g>
<!-- 12620 -->
<g id="node9" class="node">
<title>12620</title>
<path fill="#c0c0c0" stroke="black" d="M327,-36C327,-36 297,-36 297,-36 291,-36 285,-30 285,-24 285,-24 285,-12 285,-12 285,-6 291,0 297,0 297,0 327,0 327,0 333,0 339,-6 339,-12 339,-12 339,-24 339,-24 339,-30 333,-36 327,-36"/>
<text text-anchor="middle" x="312" y="-13.32" font-family="Helvetica,sans-Serif" font-size="14.00">(...)</text>
</g>
<!-- 10044&#45;&gt;12620 -->
<g id="edge8" class="edge">
<title>10044&#45;&gt;12620</title>
<path fill="none" stroke="black" d="M297.63,-71.75C299.93,-63.32 302.26,-54.77 304.35,-47.07"/>
<polygon fill="black" stroke="black" points="307.67,-48.2 306.92,-37.63 300.92,-46.36 307.67,-48.2"/>
</g>
<!-- 13386 -->
<g id="node11" class="node">
<title>13386</title>
<path fill="#ea985d" stroke="black" d="M531.5,-166.25C531.5,-166.25 398.5,-166.25 398.5,-166.25 392.5,-166.25 386.5,-160.25 386.5,-154.25 386.5,-154.25 386.5,-84 386.5,-84 386.5,-78 392.5,-72 398.5,-72 398.5,-72 531.5,-72 531.5,-72 537.5,-72 543.5,-78 543.5,-84 543.5,-84 543.5,-154.25 543.5,-154.25 543.5,-160.25 537.5,-166.25 531.5,-166.25"/>
<text text-anchor="middle" x="465" y="-148.95" font-family="Helvetica,sans-Serif" font-size="14.00">14_U &lt;= 0.5</text>
<text text-anchor="middle" x="465" y="-131.7" font-family="Helvetica,sans-Serif" font-size="14.00">entropy = 0.616</text>
<text text-anchor="middle" x="465" y="-114.45" font-family="Helvetica,sans-Serif" font-size="14.00">samples = 1609</text>
<text text-anchor="middle" x="465" y="-97.2" font-family="Helvetica,sans-Serif" font-size="14.00">value = [2159, 389]</text>
<text text-anchor="middle" x="465" y="-79.95" font-family="Helvetica,sans-Serif" font-size="14.00">class = Animal</text>
</g>
<!-- 13385&#45;&gt;13386 -->
<g id="edge10" class="edge">
<title>13385&#45;&gt;13386</title>
<path fill="none" stroke="black" d="M511.01,-202.07C506.32,-193.72 501.38,-184.93 496.55,-176.33"/>
<polygon fill="black" stroke="black" points="499.64,-174.68 491.7,-167.68 493.54,-178.11 499.64,-174.68"/>
</g>
<!-- 13953 -->
<g id="node14" class="node">
<title>13953</title>
<path fill="#ecf6fd" stroke="black" d="M680.38,-166.25C680.38,-166.25 573.62,-166.25 573.62,-166.25 567.62,-166.25 561.62,-160.25 561.62,-154.25 561.62,-154.25 561.62,-84 561.62,-84 561.62,-78 567.62,-72 573.62,-72 573.62,-72 680.38,-72 680.38,-72 686.38,-72 692.38,-78 692.38,-84 692.38,-84 692.38,-154.25 692.38,-154.25 692.38,-160.25 686.38,-166.25 680.38,-166.25"/>
<text text-anchor="middle" x="627" y="-148.95" font-family="Helvetica,sans-Serif" font-size="14.00">26_U &lt;= 0.5</text>
<text text-anchor="middle" x="627" y="-131.7" font-family="Helvetica,sans-Serif" font-size="14.00">entropy = 0.998</text>
<text text-anchor="middle" x="627" y="-114.45" font-family="Helvetica,sans-Serif" font-size="14.00">samples = 82</text>
<text text-anchor="middle" x="627" y="-97.2" font-family="Helvetica,sans-Serif" font-size="14.00">value = [57, 63]</text>
<text text-anchor="middle" x="627" y="-79.95" font-family="Helvetica,sans-Serif" font-size="14.00">class = Plant</text>
</g>
<!-- 13385&#45;&gt;13953 -->
<g id="edge13" class="edge">
<title>13385&#45;&gt;13953</title>
<path fill="none" stroke="black" d="M569.49,-202.07C575.48,-193.54 581.79,-184.54 587.95,-175.77"/>
<polygon fill="black" stroke="black" points="590.81,-177.79 593.69,-167.6 585.08,-173.77 590.81,-177.79"/>
</g>
<!-- 13387 -->
<g id="node12" class="node">
<title>13387</title>
<path fill="#c0c0c0" stroke="black" d="M417,-36C417,-36 387,-36 387,-36 381,-36 375,-30 375,-24 375,-24 375,-12 375,-12 375,-6 381,0 387,0 387,0 417,0 417,0 423,0 429,-6 429,-12 429,-12 429,-24 429,-24 429,-30 423,-36 417,-36"/>
<text text-anchor="middle" x="402" y="-13.32" font-family="Helvetica,sans-Serif" font-size="14.00">(...)</text>
</g>
<!-- 13386&#45;&gt;13387 -->
<g id="edge11" class="edge">
<title>13386&#45;&gt;13387</title>
<path fill="none" stroke="black" d="M435.53,-71.75C429.85,-62.83 424.09,-53.76 418.98,-45.72"/>
<polygon fill="black" stroke="black" points="422.04,-44.01 413.73,-37.45 416.14,-47.77 422.04,-44.01"/>
</g>
<!-- 13788 -->
<g id="node13" class="node">
<title>13788</title>
<path fill="#c0c0c0" stroke="black" d="M489,-36C489,-36 459,-36 459,-36 453,-36 447,-30 447,-24 447,-24 447,-12 447,-12 447,-6 453,0 459,0 459,0 489,0 489,0 495,0 501,-6 501,-12 501,-12 501,-24 501,-24 501,-30 495,-36 489,-36"/>
<text text-anchor="middle" x="474" y="-13.32" font-family="Helvetica,sans-Serif" font-size="14.00">(...)</text>
</g>
<!-- 13386&#45;&gt;13788 -->
<g id="edge12" class="edge">
<title>13386&#45;&gt;13788</title>
<path fill="none" stroke="black" d="M469.21,-71.75C469.96,-63.52 470.72,-55.17 471.4,-47.61"/>
<polygon fill="black" stroke="black" points="474.89,-47.96 472.3,-37.68 467.91,-47.32 474.89,-47.96"/>
</g>
<!-- 13954 -->
<g id="node15" class="node">
<title>13954</title>
<path fill="#c0c0c0" stroke="black" d="M581,-36C581,-36 551,-36 551,-36 545,-36 539,-30 539,-24 539,-24 539,-12 539,-12 539,-6 545,0 551,0 551,0 581,0 581,0 587,0 593,-6 593,-12 593,-12 593,-24 593,-24 593,-30 587,-36 581,-36"/>
<text text-anchor="middle" x="566" y="-13.32" font-family="Helvetica,sans-Serif" font-size="14.00">(...)</text>
</g>
<!-- 13953&#45;&gt;13954 -->
<g id="edge14" class="edge">
<title>13953&#45;&gt;13954</title>
<path fill="none" stroke="black" d="M598.46,-71.75C592.97,-62.83 587.39,-53.76 582.44,-45.72"/>
<polygon fill="black" stroke="black" points="585.58,-44.14 577.36,-37.46 579.62,-47.81 585.58,-44.14"/>
</g>
<!-- 14009 -->
<g id="node16" class="node">
<title>14009</title>
<path fill="#c0c0c0" stroke="black" d="M653,-36C653,-36 623,-36 623,-36 617,-36 611,-30 611,-24 611,-24 611,-12 611,-12 611,-6 617,0 623,0 623,0 653,0 653,0 659,0 665,-6 665,-12 665,-12 665,-24 665,-24 665,-30 659,-36 653,-36"/>
<text text-anchor="middle" x="638" y="-13.32" font-family="Helvetica,sans-Serif" font-size="14.00">(...)</text>
</g>
<!-- 13953&#45;&gt;14009 -->
<g id="edge15" class="edge">
<title>13953&#45;&gt;14009</title>
<path fill="none" stroke="black" d="M632.15,-71.75C633.06,-63.52 633.99,-55.17 634.82,-47.61"/>
<polygon fill="black" stroke="black" points="638.3,-48 635.93,-37.68 631.35,-47.23 638.3,-48"/>
</g>
<!-- 14019 -->
<g id="node18" class="node">
<title>14019</title>
<path fill="#f5cfb4" stroke="black" d="M942,-296.5C942,-296.5 800,-296.5 800,-296.5 794,-296.5 788,-290.5 788,-284.5 788,-284.5 788,-214.25 788,-214.25 788,-208.25 794,-202.25 800,-202.25 800,-202.25 942,-202.25 942,-202.25 948,-202.25 954,-208.25 954,-214.25 954,-214.25 954,-284.5 954,-284.5 954,-290.5 948,-296.5 942,-296.5"/>
<text text-anchor="middle" x="871" y="-279.2" font-family="Helvetica,sans-Serif" font-size="14.00">22_G &lt;= 0.5</text>
<text text-anchor="middle" x="871" y="-261.95" font-family="Helvetica,sans-Serif" font-size="14.00">entropy = 0.96</text>
<text text-anchor="middle" x="871" y="-244.7" font-family="Helvetica,sans-Serif" font-size="14.00">samples = 4186</text>
<text text-anchor="middle" x="871" y="-227.45" font-family="Helvetica,sans-Serif" font-size="14.00">value = [4059, 2520]</text>
<text text-anchor="middle" x="871" y="-210.2" font-family="Helvetica,sans-Serif" font-size="14.00">class = Animal</text>
</g>
<!-- 14018&#45;&gt;14019 -->
<g id="edge17" class="edge">
<title>14018&#45;&gt;14019</title>
<path fill="none" stroke="black" d="M871,-332.32C871,-324.42 871,-316.13 871,-307.98"/>
<polygon fill="black" stroke="black" points="874.5,-308.12 871,-298.12 867.5,-308.12 874.5,-308.12"/>
</g>
<!-- 16340 -->
<g id="node25" class="node">
<title>16340</title>
<path fill="#d1e8f9" stroke="black" d="M1205,-296.5C1205,-296.5 1063,-296.5 1063,-296.5 1057,-296.5 1051,-290.5 1051,-284.5 1051,-284.5 1051,-214.25 1051,-214.25 1051,-208.25 1057,-202.25 1063,-202.25 1063,-202.25 1205,-202.25 1205,-202.25 1211,-202.25 1217,-208.25 1217,-214.25 1217,-214.25 1217,-284.5 1217,-284.5 1217,-290.5 1211,-296.5 1205,-296.5"/>
<text text-anchor="middle" x="1134" y="-279.2" font-family="Helvetica,sans-Serif" font-size="14.00">8_G &lt;= 0.5</text>
<text text-anchor="middle" x="1134" y="-261.95" font-family="Helvetica,sans-Serif" font-size="14.00">entropy = 0.988</text>
<text text-anchor="middle" x="1134" y="-244.7" font-family="Helvetica,sans-Serif" font-size="14.00">samples = 1850</text>
<text text-anchor="middle" x="1134" y="-227.45" font-family="Helvetica,sans-Serif" font-size="14.00">value = [1286, 1675]</text>
<text text-anchor="middle" x="1134" y="-210.2" font-family="Helvetica,sans-Serif" font-size="14.00">class = Plant</text>
</g>
<!-- 14018&#45;&gt;16340 -->
<g id="edge24" class="edge">
<title>14018&#45;&gt;16340</title>
<path fill="none" stroke="black" d="M954.21,-338.05C981.69,-324.65 1012.43,-309.66 1040.62,-295.91"/>
<polygon fill="black" stroke="black" points="1042.06,-299.1 1049.52,-291.57 1038.99,-292.81 1042.06,-299.1"/>
</g>
<!-- 14020 -->
<g id="node19" class="node">
<title>14020</title>
<path fill="#f7d6be" stroke="black" d="M864,-166.25C864,-166.25 722,-166.25 722,-166.25 716,-166.25 710,-160.25 710,-154.25 710,-154.25 710,-84 710,-84 710,-78 716,-72 722,-72 722,-72 864,-72 864,-72 870,-72 876,-78 876,-84 876,-84 876,-154.25 876,-154.25 876,-160.25 870,-166.25 864,-166.25"/>
<text text-anchor="middle" x="793" y="-148.95" font-family="Helvetica,sans-Serif" font-size="14.00">9_A &lt;= 0.5</text>
<text text-anchor="middle" x="793" y="-131.7" font-family="Helvetica,sans-Serif" font-size="14.00">entropy = 0.972</text>
<text text-anchor="middle" x="793" y="-114.45" font-family="Helvetica,sans-Serif" font-size="14.00">samples = 3578</text>
<text text-anchor="middle" x="793" y="-97.2" font-family="Helvetica,sans-Serif" font-size="14.00">value = [3366, 2266]</text>
<text text-anchor="middle" x="793" y="-79.95" font-family="Helvetica,sans-Serif" font-size="14.00">class = Animal</text>
</g>
<!-- 14019&#45;&gt;14020 -->
<g id="edge18" class="edge">
<title>14019&#45;&gt;14020</title>
<path fill="none" stroke="black" d="M842.84,-202.07C837.7,-193.63 832.3,-184.74 827.01,-176.05"/>
<polygon fill="black" stroke="black" points="830.09,-174.38 821.9,-167.65 824.11,-178.01 830.09,-174.38"/>
</g>
<!-- 16017 -->
<g id="node22" class="node">
<title>16017</title>
<path fill="#efaf82" stroke="black" d="M1030,-166.25C1030,-166.25 906,-166.25 906,-166.25 900,-166.25 894,-160.25 894,-154.25 894,-154.25 894,-84 894,-84 894,-78 900,-72 906,-72 906,-72 1030,-72 1030,-72 1036,-72 1042,-78 1042,-84 1042,-84 1042,-154.25 1042,-154.25 1042,-160.25 1036,-166.25 1030,-166.25"/>
<text text-anchor="middle" x="968" y="-148.95" font-family="Helvetica,sans-Serif" font-size="14.00">15_U &lt;= 0.5</text>
<text text-anchor="middle" x="968" y="-131.7" font-family="Helvetica,sans-Serif" font-size="14.00">entropy = 0.839</text>
<text text-anchor="middle" x="968" y="-114.45" font-family="Helvetica,sans-Serif" font-size="14.00">samples = 608</text>
<text text-anchor="middle" x="968" y="-97.2" font-family="Helvetica,sans-Serif" font-size="14.00">value = [693, 254]</text>
<text text-anchor="middle" x="968" y="-79.95" font-family="Helvetica,sans-Serif" font-size="14.00">class = Animal</text>
</g>
<!-- 14019&#45;&gt;16017 -->
<g id="edge21" class="edge">
<title>14019&#45;&gt;16017</title>
<path fill="none" stroke="black" d="M906.02,-202.07C912.54,-193.45 919.42,-184.35 926.13,-175.49"/>
<polygon fill="black" stroke="black" points="928.88,-177.65 932.12,-167.57 923.3,-173.43 928.88,-177.65"/>
</g>
<!-- 14021 -->
<g id="node20" class="node">
<title>14021</title>
<path fill="#c0c0c0" stroke="black" d="M751,-36C751,-36 721,-36 721,-36 715,-36 709,-30 709,-24 709,-24 709,-12 709,-12 709,-6 715,0 721,0 721,0 751,0 751,0 757,0 763,-6 763,-12 763,-12 763,-24 763,-24 763,-30 757,-36 751,-36"/>
<text text-anchor="middle" x="736" y="-13.32" font-family="Helvetica,sans-Serif" font-size="14.00">(...)</text>
</g>
<!-- 14020&#45;&gt;14021 -->
<g id="edge19" class="edge">
<title>14020&#45;&gt;14021</title>
<path fill="none" stroke="black" d="M766.34,-71.75C761.26,-62.93 756.1,-53.96 751.52,-45.99"/>
<polygon fill="black" stroke="black" points="754.65,-44.41 746.63,-37.48 748.58,-47.9 754.65,-44.41"/>
</g>
<!-- 15576 -->
<g id="node21" class="node">
<title>15576</title>
<path fill="#c0c0c0" stroke="black" d="M823,-36C823,-36 793,-36 793,-36 787,-36 781,-30 781,-24 781,-24 781,-12 781,-12 781,-6 787,0 793,0 793,0 823,0 823,0 829,0 835,-6 835,-12 835,-12 835,-24 835,-24 835,-30 829,-36 823,-36"/>
<text text-anchor="middle" x="808" y="-13.32" font-family="Helvetica,sans-Serif" font-size="14.00">(...)</text>
</g>
<!-- 14020&#45;&gt;15576 -->
<g id="edge20" class="edge">
<title>14020&#45;&gt;15576</title>
<path fill="none" stroke="black" d="M800.02,-71.75C801.28,-63.42 802.56,-54.97 803.71,-47.34"/>
<polygon fill="black" stroke="black" points="807.14,-48.08 805.17,-37.67 800.22,-47.03 807.14,-48.08"/>
</g>
<!-- 16018 -->
<g id="node23" class="node">
<title>16018</title>
<path fill="#c0c0c0" stroke="black" d="M922,-36C922,-36 892,-36 892,-36 886,-36 880,-30 880,-24 880,-24 880,-12 880,-12 880,-6 886,0 892,0 892,0 922,0 922,0 928,0 934,-6 934,-12 934,-12 934,-24 934,-24 934,-30 928,-36 922,-36"/>
<text text-anchor="middle" x="907" y="-13.32" font-family="Helvetica,sans-Serif" font-size="14.00">(...)</text>
</g>
<!-- 16017&#45;&gt;16018 -->
<g id="edge22" class="edge">
<title>16017&#45;&gt;16018</title>
<path fill="none" stroke="black" d="M939.46,-71.75C933.97,-62.83 928.39,-53.76 923.44,-45.72"/>
<polygon fill="black" stroke="black" points="926.58,-44.14 918.36,-37.46 920.62,-47.81 926.58,-44.14"/>
</g>
<!-- 16251 -->
<g id="node24" class="node">
<title>16251</title>
<path fill="#c0c0c0" stroke="black" d="M994,-36C994,-36 964,-36 964,-36 958,-36 952,-30 952,-24 952,-24 952,-12 952,-12 952,-6 958,0 964,0 964,0 994,0 994,0 1000,0 1006,-6 1006,-12 1006,-12 1006,-24 1006,-24 1006,-30 1000,-36 994,-36"/>
<text text-anchor="middle" x="979" y="-13.32" font-family="Helvetica,sans-Serif" font-size="14.00">(...)</text>
</g>
<!-- 16017&#45;&gt;16251 -->
<g id="edge23" class="edge">
<title>16017&#45;&gt;16251</title>
<path fill="none" stroke="black" d="M973.15,-71.75C974.06,-63.52 974.99,-55.17 975.82,-47.61"/>
<polygon fill="black" stroke="black" points="979.3,-48 976.93,-37.68 972.35,-47.23 979.3,-48"/>
</g>
<!-- 16341 -->
<g id="node26" class="node">
<title>16341</title>
<path fill="#f9e3d4" stroke="black" d="M1196,-166.25C1196,-166.25 1072,-166.25 1072,-166.25 1066,-166.25 1060,-160.25 1060,-154.25 1060,-154.25 1060,-84 1060,-84 1060,-78 1066,-72 1072,-72 1072,-72 1196,-72 1196,-72 1202,-72 1208,-78 1208,-84 1208,-84 1208,-154.25 1208,-154.25 1208,-160.25 1202,-166.25 1196,-166.25"/>
<text text-anchor="middle" x="1134" y="-148.95" font-family="Helvetica,sans-Serif" font-size="14.00">22_A &lt;= 0.5</text>
<text text-anchor="middle" x="1134" y="-131.7" font-family="Helvetica,sans-Serif" font-size="14.00">entropy = 0.989</text>
<text text-anchor="middle" x="1134" y="-114.45" font-family="Helvetica,sans-Serif" font-size="14.00">samples = 1082</text>
<text text-anchor="middle" x="1134" y="-97.2" font-family="Helvetica,sans-Serif" font-size="14.00">value = [970, 757]</text>
<text text-anchor="middle" x="1134" y="-79.95" font-family="Helvetica,sans-Serif" font-size="14.00">class = Animal</text>
</g>
<!-- 16340&#45;&gt;16341 -->
<g id="edge25" class="edge">
<title>16340&#45;&gt;16341</title>
<path fill="none" stroke="black" d="M1134,-202.07C1134,-194.17 1134,-185.88 1134,-177.73"/>
<polygon fill="black" stroke="black" points="1137.5,-177.87 1134,-167.87 1130.5,-177.87 1137.5,-177.87"/>
</g>
<!-- 16940 -->
<g id="node29" class="node">
<title>16940</title>
<path fill="#7dbfee" stroke="black" d="M1362,-166.25C1362,-166.25 1238,-166.25 1238,-166.25 1232,-166.25 1226,-160.25 1226,-154.25 1226,-154.25 1226,-84 1226,-84 1226,-78 1232,-72 1238,-72 1238,-72 1362,-72 1362,-72 1368,-72 1374,-78 1374,-84 1374,-84 1374,-154.25 1374,-154.25 1374,-160.25 1368,-166.25 1362,-166.25"/>
<text text-anchor="middle" x="1300" y="-148.95" font-family="Helvetica,sans-Serif" font-size="14.00">15_C &lt;= 0.5</text>
<text text-anchor="middle" x="1300" y="-131.7" font-family="Helvetica,sans-Serif" font-size="14.00">entropy = 0.821</text>
<text text-anchor="middle" x="1300" y="-114.45" font-family="Helvetica,sans-Serif" font-size="14.00">samples = 768</text>
<text text-anchor="middle" x="1300" y="-97.2" font-family="Helvetica,sans-Serif" font-size="14.00">value = [316, 918]</text>
<text text-anchor="middle" x="1300" y="-79.95" font-family="Helvetica,sans-Serif" font-size="14.00">class = Plant</text>
</g>
<!-- 16340&#45;&gt;16940 -->
<g id="edge28" class="edge">
<title>16340&#45;&gt;16940</title>
<path fill="none" stroke="black" d="M1193.93,-202.07C1205.96,-192.78 1218.7,-182.94 1231.01,-173.43"/>
<polygon fill="black" stroke="black" points="1232.91,-176.38 1238.68,-167.5 1228.63,-170.84 1232.91,-176.38"/>
</g>
<!-- 16342 -->
<g id="node27" class="node">
<title>16342</title>
<path fill="#c0c0c0" stroke="black" d="M1106,-36C1106,-36 1076,-36 1076,-36 1070,-36 1064,-30 1064,-24 1064,-24 1064,-12 1064,-12 1064,-6 1070,0 1076,0 1076,0 1106,0 1106,0 1112,0 1118,-6 1118,-12 1118,-12 1118,-24 1118,-24 1118,-30 1112,-36 1106,-36"/>
<text text-anchor="middle" x="1091" y="-13.32" font-family="Helvetica,sans-Serif" font-size="14.00">(...)</text>
</g>
<!-- 16341&#45;&gt;16342 -->
<g id="edge26" class="edge">
<title>16341&#45;&gt;16342</title>
<path fill="none" stroke="black" d="M1113.88,-71.75C1110.14,-63.12 1106.34,-54.36 1102.94,-46.53"/>
<polygon fill="black" stroke="black" points="1106.24,-45.34 1099.05,-37.56 1099.82,-48.13 1106.24,-45.34"/>
</g>
<!-- 16871 -->
<g id="node28" class="node">
<title>16871</title>
<path fill="#c0c0c0" stroke="black" d="M1178,-36C1178,-36 1148,-36 1148,-36 1142,-36 1136,-30 1136,-24 1136,-24 1136,-12 1136,-12 1136,-6 1142,0 1148,0 1148,0 1178,0 1178,0 1184,0 1190,-6 1190,-12 1190,-12 1190,-24 1190,-24 1190,-30 1184,-36 1178,-36"/>
<text text-anchor="middle" x="1163" y="-13.32" font-family="Helvetica,sans-Serif" font-size="14.00">(...)</text>
</g>
<!-- 16341&#45;&gt;16871 -->
<g id="edge27" class="edge">
<title>16341&#45;&gt;16871</title>
<path fill="none" stroke="black" d="M1147.57,-71.75C1150.03,-63.32 1152.54,-54.77 1154.79,-47.07"/>
<polygon fill="black" stroke="black" points="1158.1,-48.21 1157.55,-37.63 1151.38,-46.24 1158.1,-48.21"/>
</g>
<!-- 16941 -->
<g id="node30" class="node">
<title>16941</title>
<path fill="#c0c0c0" stroke="black" d="M1279,-36C1279,-36 1249,-36 1249,-36 1243,-36 1237,-30 1237,-24 1237,-24 1237,-12 1237,-12 1237,-6 1243,0 1249,0 1249,0 1279,0 1279,0 1285,0 1291,-6 1291,-12 1291,-12 1291,-24 1291,-24 1291,-30 1285,-36 1279,-36"/>
<text text-anchor="middle" x="1264" y="-13.32" font-family="Helvetica,sans-Serif" font-size="14.00">(...)</text>
</g>
<!-- 16940&#45;&gt;16941 -->
<g id="edge29" class="edge">
<title>16940&#45;&gt;16941</title>
<path fill="none" stroke="black" d="M1283.16,-71.75C1280.06,-63.22 1276.92,-54.57 1274.1,-46.8"/>
<polygon fill="black" stroke="black" points="1277.46,-45.8 1270.75,-37.6 1270.88,-48.19 1277.46,-45.8"/>
</g>
<!-- 17112 -->
<g id="node31" class="node">
<title>17112</title>
<path fill="#c0c0c0" stroke="black" d="M1351,-36C1351,-36 1321,-36 1321,-36 1315,-36 1309,-30 1309,-24 1309,-24 1309,-12 1309,-12 1309,-6 1315,0 1321,0 1321,0 1351,0 1351,0 1357,0 1363,-6 1363,-12 1363,-12 1363,-24 1363,-24 1363,-30 1357,-36 1351,-36"/>
<text text-anchor="middle" x="1336" y="-13.32" font-family="Helvetica,sans-Serif" font-size="14.00">(...)</text>
</g>
<!-- 16940&#45;&gt;17112 -->
<g id="edge30" class="edge">
<title>16940&#45;&gt;17112</title>
<path fill="none" stroke="black" d="M1316.84,-71.75C1319.94,-63.22 1323.08,-54.57 1325.9,-46.8"/>
<polygon fill="black" stroke="black" points="1329.12,-48.19 1329.25,-37.6 1322.54,-45.8 1329.12,-48.19"/>
</g>
</g>
</svg>
