<?xml version="1.0" encoding="UTF-8" standalone="no"?>
<!DOCTYPE svg PUBLIC "-//W3C//DTD SVG 1.1//EN"
 "http://www.w3.org/Graphics/SVG/1.1/DTD/svg11.dtd">
<!-- Generated by graphviz version 12.0.0 (20240803.0821)
 -->
<!-- Title: Tree Pages: 1 -->
<svg width="1428pt" height="565pt"
 viewBox="0.00 0.00 1428.00 565.00" xmlns="http://www.w3.org/2000/svg" xmlns:xlink="http://www.w3.org/1999/xlink">
<g id="graph0" class="graph" transform="scale(1 1) rotate(0) translate(4 561)">
<title>Tree</title>
<polygon fill="white" stroke="none" points="-4,4 -4,-561 1424,-561 1424,4 -4,4"/>
<!-- 0 -->
<g id="node1" class="node">
<title>0</title>
<path fill="#feffff" stroke="black" d="M812,-557C812,-557 652,-557 652,-557 646,-557 640,-551 640,-545 640,-545 640,-474.75 640,-474.75 640,-468.75 646,-462.75 652,-462.75 652,-462.75 812,-462.75 812,-462.75 818,-462.75 824,-468.75 824,-474.75 824,-474.75 824,-545 824,-545 824,-551 818,-557 812,-557"/>
<text text-anchor="middle" x="732" y="-539.7" font-family="Helvetica,sans-Serif" font-size="14.00">19_U &lt;= 0.5</text>
<text text-anchor="middle" x="732" y="-522.45" font-family="Helvetica,sans-Serif" font-size="14.00">entropy = 1.0</text>
<text text-anchor="middle" x="732" y="-505.2" font-family="Helvetica,sans-Serif" font-size="14.00">samples = 38186</text>
<text text-anchor="middle" x="732" y="-487.95" font-family="Helvetica,sans-Serif" font-size="14.00">value = [30105, 30240]</text>
<text text-anchor="middle" x="732" y="-470.7" font-family="Helvetica,sans-Serif" font-size="14.00">class = Plant</text>
</g>
<!-- 1 -->
<g id="node2" class="node">
<title>1</title>
<path fill="#deeffb" stroke="black" d="M637,-426.75C637,-426.75 477,-426.75 477,-426.75 471,-426.75 465,-420.75 465,-414.75 465,-414.75 465,-344.5 465,-344.5 465,-338.5 471,-332.5 477,-332.5 477,-332.5 637,-332.5 637,-332.5 643,-332.5 649,-338.5 649,-344.5 649,-344.5 649,-414.75 649,-414.75 649,-420.75 643,-426.75 637,-426.75"/>
<text text-anchor="middle" x="557" y="-409.45" font-family="Helvetica,sans-Serif" font-size="14.00">22_U &lt;= 0.5</text>
<text text-anchor="middle" x="557" y="-392.2" font-family="Helvetica,sans-Serif" font-size="14.00">entropy = 0.994</text>
<text text-anchor="middle" x="557" y="-374.95" font-family="Helvetica,sans-Serif" font-size="14.00">samples = 29213</text>
<text text-anchor="middle" x="557" y="-357.7" font-family="Helvetica,sans-Serif" font-size="14.00">value = [21031, 25202]</text>
<text text-anchor="middle" x="557" y="-340.45" font-family="Helvetica,sans-Serif" font-size="14.00">class = Plant</text>
</g>
<!-- 0&#45;&gt;1 -->
<g id="edge1" class="edge">
<title>0&#45;&gt;1</title>
<path fill="none" stroke="black" d="M668.82,-462.57C656.01,-453.19 642.45,-443.25 629.36,-433.65"/>
<polygon fill="black" stroke="black" points="631.74,-431.06 621.6,-427.97 627.6,-436.7 631.74,-431.06"/>
<text text-anchor="middle" x="624.19" y="-447.11" font-family="Helvetica,sans-Serif" font-size="14.00">True</text>
</g>
<!-- 12452 -->
<g id="node17" class="node">
<title>12452</title>
<path fill="#f3c7a7" stroke="black" d="M979,-426.75C979,-426.75 837,-426.75 837,-426.75 831,-426.75 825,-420.75 825,-414.75 825,-414.75 825,-344.5 825,-344.5 825,-338.5 831,-332.5 837,-332.5 837,-332.5 979,-332.5 979,-332.5 985,-332.5 991,-338.5 991,-344.5 991,-344.5 991,-414.75 991,-414.75 991,-420.75 985,-426.75 979,-426.75"/>
<text text-anchor="middle" x="908" y="-409.45" font-family="Helvetica,sans-Serif" font-size="14.00">20_C &lt;= 0.5</text>
<text text-anchor="middle" x="908" y="-392.2" font-family="Helvetica,sans-Serif" font-size="14.00">entropy = 0.94</text>
<text text-anchor="middle" x="908" y="-374.95" font-family="Helvetica,sans-Serif" font-size="14.00">samples = 8973</text>
<text text-anchor="middle" x="908" y="-357.7" font-family="Helvetica,sans-Serif" font-size="14.00">value = [9074, 5038]</text>
<text text-anchor="middle" x="908" y="-340.45" font-family="Helvetica,sans-Serif" font-size="14.00">class = Animal</text>
</g>
<!-- 0&#45;&gt;12452 -->
<g id="edge16" class="edge">
<title>0&#45;&gt;12452</title>
<path fill="none" stroke="black" d="M795.54,-462.57C808.42,-453.19 822.06,-443.25 835.23,-433.65"/>
<polygon fill="black" stroke="black" points="837.01,-436.68 843.03,-427.96 832.89,-431.03 837.01,-436.68"/>
<text text-anchor="middle" x="840.38" y="-447.1" font-family="Helvetica,sans-Serif" font-size="14.00">False</text>
</g>
<!-- 2 -->
<g id="node3" class="node">
<title>2</title>
<path fill="#c0e0f7" stroke="black" d="M365,-296.5C365,-296.5 205,-296.5 205,-296.5 199,-296.5 193,-290.5 193,-284.5 193,-284.5 193,-214.25 193,-214.25 193,-208.25 199,-202.25 205,-202.25 205,-202.25 365,-202.25 365,-202.25 371,-202.25 377,-208.25 377,-214.25 377,-214.25 377,-284.5 377,-284.5 377,-290.5 371,-296.5 365,-296.5"/>
<text text-anchor="middle" x="285" y="-279.2" font-family="Helvetica,sans-Serif" font-size="14.00">8_C &lt;= 0.5</text>
<text text-anchor="middle" x="285" y="-261.95" font-family="Helvetica,sans-Serif" font-size="14.00">entropy = 0.974</text>
<text text-anchor="middle" x="285" y="-244.7" font-family="Helvetica,sans-Serif" font-size="14.00">samples = 25500</text>
<text text-anchor="middle" x="285" y="-227.45" font-family="Helvetica,sans-Serif" font-size="14.00">value = [16384, 23962]</text>
<text text-anchor="middle" x="285" y="-210.2" font-family="Helvetica,sans-Serif" font-size="14.00">class = Plant</text>
</g>
<!-- 1&#45;&gt;2 -->
<g id="edge2" class="edge">
<title>1&#45;&gt;2</title>
<path fill="none" stroke="black" d="M464.53,-335.03C439.76,-323.35 412.84,-310.65 387.56,-298.73"/>
<polygon fill="black" stroke="black" points="389.12,-295.6 378.58,-294.5 386.13,-301.93 389.12,-295.6"/>
</g>
<!-- 10953 -->
<g id="node10" class="node">
<title>10953</title>
<path fill="#eca36e" stroke="black" d="M628,-296.5C628,-296.5 486,-296.5 486,-296.5 480,-296.5 474,-290.5 474,-284.5 474,-284.5 474,-214.25 474,-214.25 474,-208.25 480,-202.25 486,-202.25 486,-202.25 628,-202.25 628,-202.25 634,-202.25 640,-208.25 640,-214.25 640,-214.25 640,-284.5 640,-284.5 640,-290.5 634,-296.5 628,-296.5"/>
<text text-anchor="middle" x="557" y="-279.2" font-family="Helvetica,sans-Serif" font-size="14.00">2_A &lt;= 0.5</text>
<text text-anchor="middle" x="557" y="-261.95" font-family="Helvetica,sans-Serif" font-size="14.00">entropy = 0.743</text>
<text text-anchor="middle" x="557" y="-244.7" font-family="Helvetica,sans-Serif" font-size="14.00">samples = 3713</text>
<text text-anchor="middle" x="557" y="-227.45" font-family="Helvetica,sans-Serif" font-size="14.00">value = [4647, 1240]</text>
<text text-anchor="middle" x="557" y="-210.2" font-family="Helvetica,sans-Serif" font-size="14.00">class = Animal</text>
</g>
<!-- 1&#45;&gt;10953 -->
<g id="edge9" class="edge">
<title>1&#45;&gt;10953</title>
<path fill="none" stroke="black" d="M557,-332.32C557,-324.42 557,-316.13 557,-307.98"/>
<polygon fill="black" stroke="black" points="560.5,-308.12 557,-298.12 553.5,-308.12 560.5,-308.12"/>
</g>
<!-- 3 -->
<g id="node4" class="node">
<title>3</title>
<path fill="#afd7f4" stroke="black" d="M172,-166.25C172,-166.25 12,-166.25 12,-166.25 6,-166.25 0,-160.25 0,-154.25 0,-154.25 0,-84 0,-84 0,-78 6,-72 12,-72 12,-72 172,-72 172,-72 178,-72 184,-78 184,-84 184,-84 184,-154.25 184,-154.25 184,-160.25 178,-166.25 172,-166.25"/>
<text text-anchor="middle" x="92" y="-148.95" font-family="Helvetica,sans-Serif" font-size="14.00">23_U &lt;= 0.5</text>
<text text-anchor="middle" x="92" y="-131.7" font-family="Helvetica,sans-Serif" font-size="14.00">entropy = 0.953</text>
<text text-anchor="middle" x="92" y="-114.45" font-family="Helvetica,sans-Serif" font-size="14.00">samples = 20699</text>
<text text-anchor="middle" x="92" y="-97.2" font-family="Helvetica,sans-Serif" font-size="14.00">value = [12249, 20558]</text>
<text text-anchor="middle" x="92" y="-79.95" font-family="Helvetica,sans-Serif" font-size="14.00">class = Plant</text>
</g>
<!-- 2&#45;&gt;3 -->
<g id="edge3" class="edge">
<title>2&#45;&gt;3</title>
<path fill="none" stroke="black" d="M215.05,-201.89C200.89,-192.48 185.9,-182.53 171.45,-172.92"/>
<polygon fill="black" stroke="black" points="173.56,-170.12 163.3,-167.5 169.69,-175.95 173.56,-170.12"/>
</g>
<!-- 8392 -->
<g id="node7" class="node">
<title>8392</title>
<path fill="#fae9dc" stroke="black" d="M356,-166.25C356,-166.25 214,-166.25 214,-166.25 208,-166.25 202,-160.25 202,-154.25 202,-154.25 202,-84 202,-84 202,-78 208,-72 214,-72 214,-72 356,-72 356,-72 362,-72 368,-78 368,-84 368,-84 368,-154.25 368,-154.25 368,-160.25 362,-166.25 356,-166.25"/>
<text text-anchor="middle" x="285" y="-148.95" font-family="Helvetica,sans-Serif" font-size="14.00">21_A &lt;= 0.5</text>
<text text-anchor="middle" x="285" y="-131.7" font-family="Helvetica,sans-Serif" font-size="14.00">entropy = 0.993</text>
<text text-anchor="middle" x="285" y="-114.45" font-family="Helvetica,sans-Serif" font-size="14.00">samples = 4801</text>
<text text-anchor="middle" x="285" y="-97.2" font-family="Helvetica,sans-Serif" font-size="14.00">value = [4135, 3404]</text>
<text text-anchor="middle" x="285" y="-79.95" font-family="Helvetica,sans-Serif" font-size="14.00">class = Animal</text>
</g>
<!-- 2&#45;&gt;8392 -->
<g id="edge6" class="edge">
<title>2&#45;&gt;8392</title>
<path fill="none" stroke="black" d="M285,-202.07C285,-194.17 285,-185.88 285,-177.73"/>
<polygon fill="black" stroke="black" points="288.5,-177.87 285,-167.87 281.5,-177.87 288.5,-177.87"/>
</g>
<!-- 4 -->
<g id="node5" class="node">
<title>4</title>
<path fill="#c0c0c0" stroke="black" d="M71,-36C71,-36 41,-36 41,-36 35,-36 29,-30 29,-24 29,-24 29,-12 29,-12 29,-6 35,0 41,0 41,0 71,0 71,0 77,0 83,-6 83,-12 83,-12 83,-24 83,-24 83,-30 77,-36 71,-36"/>
<text text-anchor="middle" x="56" y="-13.32" font-family="Helvetica,sans-Serif" font-size="14.00">(...)</text>
</g>
<!-- 3&#45;&gt;4 -->
<g id="edge4" class="edge">
<title>3&#45;&gt;4</title>
<path fill="none" stroke="black" d="M75.16,-71.75C72.06,-63.22 68.92,-54.57 66.1,-46.8"/>
<polygon fill="black" stroke="black" points="69.46,-45.8 62.75,-37.6 62.88,-48.19 69.46,-45.8"/>
</g>
<!-- 8063 -->
<g id="node6" class="node">
<title>8063</title>
<path fill="#c0c0c0" stroke="black" d="M143,-36C143,-36 113,-36 113,-36 107,-36 101,-30 101,-24 101,-24 101,-12 101,-12 101,-6 107,0 113,0 113,0 143,0 143,0 149,0 155,-6 155,-12 155,-12 155,-24 155,-24 155,-30 149,-36 143,-36"/>
<text text-anchor="middle" x="128" y="-13.32" font-family="Helvetica,sans-Serif" font-size="14.00">(...)</text>
</g>
<!-- 3&#45;&gt;8063 -->
<g id="edge5" class="edge">
<title>3&#45;&gt;8063</title>
<path fill="none" stroke="black" d="M108.84,-71.75C111.94,-63.22 115.08,-54.57 117.9,-46.8"/>
<polygon fill="black" stroke="black" points="121.12,-48.19 121.25,-37.6 114.54,-45.8 121.12,-48.19"/>
</g>
<!-- 8393 -->
<g id="node8" class="node">
<title>8393</title>
<path fill="#c0c0c0" stroke="black" d="M266,-36C266,-36 236,-36 236,-36 230,-36 224,-30 224,-24 224,-24 224,-12 224,-12 224,-6 230,0 236,0 236,0 266,0 266,0 272,0 278,-6 278,-12 278,-12 278,-24 278,-24 278,-30 272,-36 266,-36"/>
<text text-anchor="middle" x="251" y="-13.32" font-family="Helvetica,sans-Serif" font-size="14.00">(...)</text>
</g>
<!-- 8392&#45;&gt;8393 -->
<g id="edge7" class="edge">
<title>8392&#45;&gt;8393</title>
<path fill="none" stroke="black" d="M269.1,-71.75C266.17,-63.22 263.2,-54.57 260.53,-46.8"/>
<polygon fill="black" stroke="black" points="263.94,-45.93 257.38,-37.6 257.32,-48.2 263.94,-45.93"/>
</g>
<!-- 10410 -->
<g id="node9" class="node">
<title>10410</title>
<path fill="#c0c0c0" stroke="black" d="M338,-36C338,-36 308,-36 308,-36 302,-36 296,-30 296,-24 296,-24 296,-12 296,-12 296,-6 302,0 308,0 308,0 338,0 338,0 344,0 350,-6 350,-12 350,-12 350,-24 350,-24 350,-30 344,-36 338,-36"/>
<text text-anchor="middle" x="323" y="-13.32" font-family="Helvetica,sans-Serif" font-size="14.00">(...)</text>
</g>
<!-- 8392&#45;&gt;10410 -->
<g id="edge8" class="edge">
<title>8392&#45;&gt;10410</title>
<path fill="none" stroke="black" d="M302.78,-71.75C306.05,-63.22 309.37,-54.57 312.34,-46.8"/>
<polygon fill="black" stroke="black" points="315.56,-48.18 315.88,-37.59 309.03,-45.67 315.56,-48.18"/>
</g>
<!-- 10954 -->
<g id="node11" class="node">
<title>10954</title>
<path fill="#eeab7a" stroke="black" d="M540,-166.25C540,-166.25 398,-166.25 398,-166.25 392,-166.25 386,-160.25 386,-154.25 386,-154.25 386,-84 386,-84 386,-78 392,-72 398,-72 398,-72 540,-72 540,-72 546,-72 552,-78 552,-84 552,-84 552,-154.25 552,-154.25 552,-160.25 546,-166.25 540,-166.25"/>
<text text-anchor="middle" x="469" y="-148.95" font-family="Helvetica,sans-Serif" font-size="14.00">9_U &lt;= 0.5</text>
<text text-anchor="middle" x="469" y="-131.7" font-family="Helvetica,sans-Serif" font-size="14.00">entropy = 0.808</text>
<text text-anchor="middle" x="469" y="-114.45" font-family="Helvetica,sans-Serif" font-size="14.00">samples = 2629</text>
<text text-anchor="middle" x="469" y="-97.2" font-family="Helvetica,sans-Serif" font-size="14.00">value = [3117, 1027]</text>
<text text-anchor="middle" x="469" y="-79.95" font-family="Helvetica,sans-Serif" font-size="14.00">class = Animal</text>
</g>
<!-- 10953&#45;&gt;10954 -->
<g id="edge10" class="edge">
<title>10953&#45;&gt;10954</title>
<path fill="none" stroke="black" d="M525.23,-202.07C519.37,-193.54 513.2,-184.54 507.18,-175.77"/>
<polygon fill="black" stroke="black" points="510.12,-173.87 501.58,-167.61 504.35,-177.83 510.12,-173.87"/>
</g>
<!-- 12107 -->
<g id="node14" class="node">
<title>12107</title>
<path fill="#e99355" stroke="black" d="M715.5,-166.25C715.5,-166.25 582.5,-166.25 582.5,-166.25 576.5,-166.25 570.5,-160.25 570.5,-154.25 570.5,-154.25 570.5,-84 570.5,-84 570.5,-78 576.5,-72 582.5,-72 582.5,-72 715.5,-72 715.5,-72 721.5,-72 727.5,-78 727.5,-84 727.5,-84 727.5,-154.25 727.5,-154.25 727.5,-160.25 721.5,-166.25 715.5,-166.25"/>
<text text-anchor="middle" x="649" y="-148.95" font-family="Helvetica,sans-Serif" font-size="14.00">6_C &lt;= 0.5</text>
<text text-anchor="middle" x="649" y="-131.7" font-family="Helvetica,sans-Serif" font-size="14.00">entropy = 0.536</text>
<text text-anchor="middle" x="649" y="-114.45" font-family="Helvetica,sans-Serif" font-size="14.00">samples = 1084</text>
<text text-anchor="middle" x="649" y="-97.2" font-family="Helvetica,sans-Serif" font-size="14.00">value = [1530, 213]</text>
<text text-anchor="middle" x="649" y="-79.95" font-family="Helvetica,sans-Serif" font-size="14.00">class = Animal</text>
</g>
<!-- 10953&#45;&gt;12107 -->
<g id="edge13" class="edge">
<title>10953&#45;&gt;12107</title>
<path fill="none" stroke="black" d="M590.21,-202.07C596.4,-193.45 602.93,-184.35 609.29,-175.49"/>
<polygon fill="black" stroke="black" points="611.97,-177.75 614.95,-167.59 606.28,-173.67 611.97,-177.75"/>
</g>
<!-- 10955 -->
<g id="node12" class="node">
<title>10955</title>
<path fill="#c0c0c0" stroke="black" d="M430,-36C430,-36 400,-36 400,-36 394,-36 388,-30 388,-24 388,-24 388,-12 388,-12 388,-6 394,0 400,0 400,0 430,0 430,0 436,0 442,-6 442,-12 442,-12 442,-24 442,-24 442,-30 436,-36 430,-36"/>
<text text-anchor="middle" x="415" y="-13.32" font-family="Helvetica,sans-Serif" font-size="14.00">(...)</text>
</g>
<!-- 10954&#45;&gt;10955 -->
<g id="edge11" class="edge">
<title>10954&#45;&gt;10955</title>
<path fill="none" stroke="black" d="M443.74,-71.75C438.98,-63.03 434.16,-54.16 429.85,-46.26"/>
<polygon fill="black" stroke="black" points="432.94,-44.61 425.08,-37.5 426.79,-47.96 432.94,-44.61"/>
</g>
<!-- 11786 -->
<g id="node13" class="node">
<title>11786</title>
<path fill="#c0c0c0" stroke="black" d="M502,-36C502,-36 472,-36 472,-36 466,-36 460,-30 460,-24 460,-24 460,-12 460,-12 460,-6 466,0 472,0 472,0 502,0 502,0 508,0 514,-6 514,-12 514,-12 514,-24 514,-24 514,-30 508,-36 502,-36"/>
<text text-anchor="middle" x="487" y="-13.32" font-family="Helvetica,sans-Serif" font-size="14.00">(...)</text>
</g>
<!-- 10954&#45;&gt;11786 -->
<g id="edge12" class="edge">
<title>10954&#45;&gt;11786</title>
<path fill="none" stroke="black" d="M477.42,-71.75C478.93,-63.42 480.47,-54.97 481.85,-47.34"/>
<polygon fill="black" stroke="black" points="485.27,-48.13 483.61,-37.66 478.38,-46.88 485.27,-48.13"/>
</g>
<!-- 12108 -->
<g id="node15" class="node">
<title>12108</title>
<path fill="#c0c0c0" stroke="black" d="M610,-36C610,-36 580,-36 580,-36 574,-36 568,-30 568,-24 568,-24 568,-12 568,-12 568,-6 574,0 580,0 580,0 610,0 610,0 616,0 622,-6 622,-12 622,-12 622,-24 622,-24 622,-30 616,-36 610,-36"/>
<text text-anchor="middle" x="595" y="-13.32" font-family="Helvetica,sans-Serif" font-size="14.00">(...)</text>
</g>
<!-- 12107&#45;&gt;12108 -->
<g id="edge14" class="edge">
<title>12107&#45;&gt;12108</title>
<path fill="none" stroke="black" d="M623.74,-71.75C618.98,-63.03 614.16,-54.16 609.85,-46.26"/>
<polygon fill="black" stroke="black" points="612.94,-44.61 605.08,-37.5 606.79,-47.96 612.94,-44.61"/>
</g>
<!-- 12371 -->
<g id="node16" class="node">
<title>12371</title>
<path fill="#c0c0c0" stroke="black" d="M682,-36C682,-36 652,-36 652,-36 646,-36 640,-30 640,-24 640,-24 640,-12 640,-12 640,-6 646,0 652,0 652,0 682,0 682,0 688,0 694,-6 694,-12 694,-12 694,-24 694,-24 694,-30 688,-36 682,-36"/>
<text text-anchor="middle" x="667" y="-13.32" font-family="Helvetica,sans-Serif" font-size="14.00">(...)</text>
</g>
<!-- 12107&#45;&gt;12371 -->
<g id="edge15" class="edge">
<title>12107&#45;&gt;12371</title>
<path fill="none" stroke="black" d="M657.42,-71.75C658.93,-63.42 660.47,-54.97 661.85,-47.34"/>
<polygon fill="black" stroke="black" points="665.27,-48.13 663.61,-37.66 658.38,-46.88 665.27,-48.13"/>
</g>
<!-- 12453 -->
<g id="node18" class="node">
<title>12453</title>
<path fill="#f1bb95" stroke="black" d="M979,-296.5C979,-296.5 837,-296.5 837,-296.5 831,-296.5 825,-290.5 825,-284.5 825,-284.5 825,-214.25 825,-214.25 825,-208.25 831,-202.25 837,-202.25 837,-202.25 979,-202.25 979,-202.25 985,-202.25 991,-208.25 991,-214.25 991,-214.25 991,-284.5 991,-284.5 991,-290.5 985,-296.5 979,-296.5"/>
<text text-anchor="middle" x="908" y="-279.2" font-family="Helvetica,sans-Serif" font-size="14.00">23_U &lt;= 0.5</text>
<text text-anchor="middle" x="908" y="-261.95" font-family="Helvetica,sans-Serif" font-size="14.00">entropy = 0.9</text>
<text text-anchor="middle" x="908" y="-244.7" font-family="Helvetica,sans-Serif" font-size="14.00">samples = 6715</text>
<text text-anchor="middle" x="908" y="-227.45" font-family="Helvetica,sans-Serif" font-size="14.00">value = [7210, 3334]</text>
<text text-anchor="middle" x="908" y="-210.2" font-family="Helvetica,sans-Serif" font-size="14.00">class = Animal</text>
</g>
<!-- 12452&#45;&gt;12453 -->
<g id="edge17" class="edge">
<title>12452&#45;&gt;12453</title>
<path fill="none" stroke="black" d="M908,-332.32C908,-324.42 908,-316.13 908,-307.98"/>
<polygon fill="black" stroke="black" points="911.5,-308.12 908,-298.12 904.5,-308.12 911.5,-308.12"/>
</g>
<!-- 15780 -->
<g id="node25" class="node">
<title>15780</title>
<path fill="#fdf4ee" stroke="black" d="M1242,-296.5C1242,-296.5 1100,-296.5 1100,-296.5 1094,-296.5 1088,-290.5 1088,-284.5 1088,-284.5 1088,-214.25 1088,-214.25 1088,-208.25 1094,-202.25 1100,-202.25 1100,-202.25 1242,-202.25 1242,-202.25 1248,-202.25 1254,-208.25 1254,-214.25 1254,-214.25 1254,-284.5 1254,-284.5 1254,-290.5 1248,-296.5 1242,-296.5"/>
<text text-anchor="middle" x="1171" y="-279.2" font-family="Helvetica,sans-Serif" font-size="14.00">17_A &lt;= 0.5</text>
<text text-anchor="middle" x="1171" y="-261.95" font-family="Helvetica,sans-Serif" font-size="14.00">entropy = 0.999</text>
<text text-anchor="middle" x="1171" y="-244.7" font-family="Helvetica,sans-Serif" font-size="14.00">samples = 2258</text>
<text text-anchor="middle" x="1171" y="-227.45" font-family="Helvetica,sans-Serif" font-size="14.00">value = [1864, 1704]</text>
<text text-anchor="middle" x="1171" y="-210.2" font-family="Helvetica,sans-Serif" font-size="14.00">class = Animal</text>
</g>
<!-- 12452&#45;&gt;15780 -->
<g id="edge24" class="edge">
<title>12452&#45;&gt;15780</title>
<path fill="none" stroke="black" d="M991.21,-338.05C1018.69,-324.65 1049.43,-309.66 1077.62,-295.91"/>
<polygon fill="black" stroke="black" points="1079.06,-299.1 1086.52,-291.57 1075.99,-292.81 1079.06,-299.1"/>
</g>
<!-- 12454 -->
<g id="node19" class="node">
<title>12454</title>
<path fill="#f2c09b" stroke="black" d="M900,-166.25C900,-166.25 758,-166.25 758,-166.25 752,-166.25 746,-160.25 746,-154.25 746,-154.25 746,-84 746,-84 746,-78 752,-72 758,-72 758,-72 900,-72 900,-72 906,-72 912,-78 912,-84 912,-84 912,-154.25 912,-154.25 912,-160.25 906,-166.25 900,-166.25"/>
<text text-anchor="middle" x="829" y="-148.95" font-family="Helvetica,sans-Serif" font-size="14.00">4_C &lt;= 0.5</text>
<text text-anchor="middle" x="829" y="-131.7" font-family="Helvetica,sans-Serif" font-size="14.00">entropy = 0.917</text>
<text text-anchor="middle" x="829" y="-114.45" font-family="Helvetica,sans-Serif" font-size="14.00">samples = 6237</text>
<text text-anchor="middle" x="829" y="-97.2" font-family="Helvetica,sans-Serif" font-size="14.00">value = [6564, 3261]</text>
<text text-anchor="middle" x="829" y="-79.95" font-family="Helvetica,sans-Serif" font-size="14.00">class = Animal</text>
</g>
<!-- 12453&#45;&gt;12454 -->
<g id="edge18" class="edge">
<title>12453&#45;&gt;12454</title>
<path fill="none" stroke="black" d="M879.48,-202.07C874.28,-193.63 868.8,-184.74 863.45,-176.05"/>
<polygon fill="black" stroke="black" points="866.5,-174.33 858.27,-167.65 860.54,-178 866.5,-174.33"/>
</g>
<!-- 15633 -->
<g id="node22" class="node">
<title>15633</title>
<path fill="#e88f4f" stroke="black" d="M1057.5,-166.25C1057.5,-166.25 942.5,-166.25 942.5,-166.25 936.5,-166.25 930.5,-160.25 930.5,-154.25 930.5,-154.25 930.5,-84 930.5,-84 930.5,-78 936.5,-72 942.5,-72 942.5,-72 1057.5,-72 1057.5,-72 1063.5,-72 1069.5,-78 1069.5,-84 1069.5,-84 1069.5,-154.25 1069.5,-154.25 1069.5,-160.25 1063.5,-166.25 1057.5,-166.25"/>
<text text-anchor="middle" x="1000" y="-148.95" font-family="Helvetica,sans-Serif" font-size="14.00">10_A &lt;= 0.5</text>
<text text-anchor="middle" x="1000" y="-131.7" font-family="Helvetica,sans-Serif" font-size="14.00">entropy = 0.474</text>
<text text-anchor="middle" x="1000" y="-114.45" font-family="Helvetica,sans-Serif" font-size="14.00">samples = 478</text>
<text text-anchor="middle" x="1000" y="-97.2" font-family="Helvetica,sans-Serif" font-size="14.00">value = [646, 73]</text>
<text text-anchor="middle" x="1000" y="-79.95" font-family="Helvetica,sans-Serif" font-size="14.00">class = Animal</text>
</g>
<!-- 12453&#45;&gt;15633 -->
<g id="edge21" class="edge">
<title>12453&#45;&gt;15633</title>
<path fill="none" stroke="black" d="M941.21,-202.07C947.4,-193.45 953.93,-184.35 960.29,-175.49"/>
<polygon fill="black" stroke="black" points="962.97,-177.75 965.95,-167.59 957.28,-173.67 962.97,-177.75"/>
</g>
<!-- 12455 -->
<g id="node20" class="node">
<title>12455</title>
<path fill="#c0c0c0" stroke="black" d="M785,-36C785,-36 755,-36 755,-36 749,-36 743,-30 743,-24 743,-24 743,-12 743,-12 743,-6 749,0 755,0 755,0 785,0 785,0 791,0 797,-6 797,-12 797,-12 797,-24 797,-24 797,-30 791,-36 785,-36"/>
<text text-anchor="middle" x="770" y="-13.32" font-family="Helvetica,sans-Serif" font-size="14.00">(...)</text>
</g>
<!-- 12454&#45;&gt;12455 -->
<g id="edge19" class="edge">
<title>12454&#45;&gt;12455</title>
<path fill="none" stroke="black" d="M801.4,-71.75C796.15,-62.93 790.81,-53.96 786.06,-45.99"/>
<polygon fill="black" stroke="black" points="789.12,-44.28 781,-37.47 783.1,-47.86 789.12,-44.28"/>
</g>
<!-- 14998 -->
<g id="node21" class="node">
<title>14998</title>
<path fill="#c0c0c0" stroke="black" d="M857,-36C857,-36 827,-36 827,-36 821,-36 815,-30 815,-24 815,-24 815,-12 815,-12 815,-6 821,0 827,0 827,0 857,0 857,0 863,0 869,-6 869,-12 869,-12 869,-24 869,-24 869,-30 863,-36 857,-36"/>
<text text-anchor="middle" x="842" y="-13.32" font-family="Helvetica,sans-Serif" font-size="14.00">(...)</text>
</g>
<!-- 12454&#45;&gt;14998 -->
<g id="edge20" class="edge">
<title>12454&#45;&gt;14998</title>
<path fill="none" stroke="black" d="M835.08,-71.75C836.17,-63.42 837.28,-54.97 838.28,-47.34"/>
<polygon fill="black" stroke="black" points="841.72,-48.04 839.55,-37.67 834.78,-47.13 841.72,-48.04"/>
</g>
<!-- 15634 -->
<g id="node23" class="node">
<title>15634</title>
<path fill="#c0c0c0" stroke="black" d="M956,-36C956,-36 926,-36 926,-36 920,-36 914,-30 914,-24 914,-24 914,-12 914,-12 914,-6 920,0 926,0 926,0 956,0 956,0 962,0 968,-6 968,-12 968,-12 968,-24 968,-24 968,-30 962,-36 956,-36"/>
<text text-anchor="middle" x="941" y="-13.32" font-family="Helvetica,sans-Serif" font-size="14.00">(...)</text>
</g>
<!-- 15633&#45;&gt;15634 -->
<g id="edge22" class="edge">
<title>15633&#45;&gt;15634</title>
<path fill="none" stroke="black" d="M972.4,-71.75C967.15,-62.93 961.81,-53.96 957.06,-45.99"/>
<polygon fill="black" stroke="black" points="960.12,-44.28 952,-37.47 954.1,-47.86 960.12,-44.28"/>
</g>
<!-- 15761 -->
<g id="node24" class="node">
<title>15761</title>
<path fill="#c0c0c0" stroke="black" d="M1028,-36C1028,-36 998,-36 998,-36 992,-36 986,-30 986,-24 986,-24 986,-12 986,-12 986,-6 992,0 998,0 998,0 1028,0 1028,0 1034,0 1040,-6 1040,-12 1040,-12 1040,-24 1040,-24 1040,-30 1034,-36 1028,-36"/>
<text text-anchor="middle" x="1013" y="-13.32" font-family="Helvetica,sans-Serif" font-size="14.00">(...)</text>
</g>
<!-- 15633&#45;&gt;15761 -->
<g id="edge23" class="edge">
<title>15633&#45;&gt;15761</title>
<path fill="none" stroke="black" d="M1006.08,-71.75C1007.17,-63.42 1008.28,-54.97 1009.28,-47.34"/>
<polygon fill="black" stroke="black" points="1012.72,-48.04 1010.55,-37.67 1005.78,-47.13 1012.72,-48.04"/>
</g>
<!-- 15781 -->
<g id="node26" class="node">
<title>15781</title>
<path fill="#f8dbc7" stroke="black" d="M1242,-166.25C1242,-166.25 1100,-166.25 1100,-166.25 1094,-166.25 1088,-160.25 1088,-154.25 1088,-154.25 1088,-84 1088,-84 1088,-78 1094,-72 1100,-72 1100,-72 1242,-72 1242,-72 1248,-72 1254,-78 1254,-84 1254,-84 1254,-154.25 1254,-154.25 1254,-160.25 1248,-166.25 1242,-166.25"/>
<text text-anchor="middle" x="1171" y="-148.95" font-family="Helvetica,sans-Serif" font-size="14.00">11_G &lt;= 0.5</text>
<text text-anchor="middle" x="1171" y="-131.7" font-family="Helvetica,sans-Serif" font-size="14.00">entropy = 0.98</text>
<text text-anchor="middle" x="1171" y="-114.45" font-family="Helvetica,sans-Serif" font-size="14.00">samples = 1535</text>
<text text-anchor="middle" x="1171" y="-97.2" font-family="Helvetica,sans-Serif" font-size="14.00">value = [1427, 1024]</text>
<text text-anchor="middle" x="1171" y="-79.95" font-family="Helvetica,sans-Serif" font-size="14.00">class = Animal</text>
</g>
<!-- 15780&#45;&gt;15781 -->
<g id="edge25" class="edge">
<title>15780&#45;&gt;15781</title>
<path fill="none" stroke="black" d="M1171,-202.07C1171,-194.17 1171,-185.88 1171,-177.73"/>
<polygon fill="black" stroke="black" points="1174.5,-177.87 1171,-167.87 1167.5,-177.87 1174.5,-177.87"/>
</g>
<!-- 16618 -->
<g id="node29" class="node">
<title>16618</title>
<path fill="#b8dcf6" stroke="black" d="M1408,-166.25C1408,-166.25 1284,-166.25 1284,-166.25 1278,-166.25 1272,-160.25 1272,-154.25 1272,-154.25 1272,-84 1272,-84 1272,-78 1278,-72 1284,-72 1284,-72 1408,-72 1408,-72 1414,-72 1420,-78 1420,-84 1420,-84 1420,-154.25 1420,-154.25 1420,-160.25 1414,-166.25 1408,-166.25"/>
<text text-anchor="middle" x="1346" y="-148.95" font-family="Helvetica,sans-Serif" font-size="14.00">21_U &lt;= 0.5</text>
<text text-anchor="middle" x="1346" y="-131.7" font-family="Helvetica,sans-Serif" font-size="14.00">entropy = 0.966</text>
<text text-anchor="middle" x="1346" y="-114.45" font-family="Helvetica,sans-Serif" font-size="14.00">samples = 723</text>
<text text-anchor="middle" x="1346" y="-97.2" font-family="Helvetica,sans-Serif" font-size="14.00">value = [437, 680]</text>
<text text-anchor="middle" x="1346" y="-79.95" font-family="Helvetica,sans-Serif" font-size="14.00">class = Plant</text>
</g>
<!-- 15780&#45;&gt;16618 -->
<g id="edge28" class="edge">
<title>15780&#45;&gt;16618</title>
<path fill="none" stroke="black" d="M1234.18,-202.07C1246.99,-192.69 1260.55,-182.75 1273.64,-173.15"/>
<polygon fill="black" stroke="black" points="1275.4,-176.2 1281.4,-167.47 1271.26,-170.56 1275.4,-176.2"/>
</g>
<!-- 15782 -->
<g id="node27" class="node">
<title>15782</title>
<path fill="#c0c0c0" stroke="black" d="M1147,-36C1147,-36 1117,-36 1117,-36 1111,-36 1105,-30 1105,-24 1105,-24 1105,-12 1105,-12 1105,-6 1111,0 1117,0 1117,0 1147,0 1147,0 1153,0 1159,-6 1159,-12 1159,-12 1159,-24 1159,-24 1159,-30 1153,-36 1147,-36"/>
<text text-anchor="middle" x="1132" y="-13.32" font-family="Helvetica,sans-Serif" font-size="14.00">(...)</text>
</g>
<!-- 15781&#45;&gt;15782 -->
<g id="edge26" class="edge">
<title>15781&#45;&gt;15782</title>
<path fill="none" stroke="black" d="M1152.76,-71.75C1149.4,-63.22 1145.99,-54.57 1142.94,-46.8"/>
<polygon fill="black" stroke="black" points="1146.23,-45.61 1139.31,-37.58 1139.71,-48.17 1146.23,-45.61"/>
</g>
<!-- 16405 -->
<g id="node28" class="node">
<title>16405</title>
<path fill="#c0c0c0" stroke="black" d="M1219,-36C1219,-36 1189,-36 1189,-36 1183,-36 1177,-30 1177,-24 1177,-24 1177,-12 1177,-12 1177,-6 1183,0 1189,0 1189,0 1219,0 1219,0 1225,0 1231,-6 1231,-12 1231,-12 1231,-24 1231,-24 1231,-30 1225,-36 1219,-36"/>
<text text-anchor="middle" x="1204" y="-13.32" font-family="Helvetica,sans-Serif" font-size="14.00">(...)</text>
</g>
<!-- 15781&#45;&gt;16405 -->
<g id="edge27" class="edge">
<title>15781&#45;&gt;16405</title>
<path fill="none" stroke="black" d="M1186.44,-71.75C1189.24,-63.32 1192.09,-54.77 1194.66,-47.07"/>
<polygon fill="black" stroke="black" points="1197.97,-48.2 1197.8,-37.61 1191.33,-45.99 1197.97,-48.2"/>
</g>
<!-- 16619 -->
<g id="node30" class="node">
<title>16619</title>
<path fill="#c0c0c0" stroke="black" d="M1325,-36C1325,-36 1295,-36 1295,-36 1289,-36 1283,-30 1283,-24 1283,-24 1283,-12 1283,-12 1283,-6 1289,0 1295,0 1295,0 1325,0 1325,0 1331,0 1337,-6 1337,-12 1337,-12 1337,-24 1337,-24 1337,-30 1331,-36 1325,-36"/>
<text text-anchor="middle" x="1310" y="-13.32" font-family="Helvetica,sans-Serif" font-size="14.00">(...)</text>
</g>
<!-- 16618&#45;&gt;16619 -->
<g id="edge29" class="edge">
<title>16618&#45;&gt;16619</title>
<path fill="none" stroke="black" d="M1329.16,-71.75C1326.06,-63.22 1322.92,-54.57 1320.1,-46.8"/>
<polygon fill="black" stroke="black" points="1323.46,-45.8 1316.75,-37.6 1316.88,-48.19 1323.46,-45.8"/>
</g>
<!-- 16798 -->
<g id="node31" class="node">
<title>16798</title>
<path fill="#c0c0c0" stroke="black" d="M1397,-36C1397,-36 1367,-36 1367,-36 1361,-36 1355,-30 1355,-24 1355,-24 1355,-12 1355,-12 1355,-6 1361,0 1367,0 1367,0 1397,0 1397,0 1403,0 1409,-6 1409,-12 1409,-12 1409,-24 1409,-24 1409,-30 1403,-36 1397,-36"/>
<text text-anchor="middle" x="1382" y="-13.32" font-family="Helvetica,sans-Serif" font-size="14.00">(...)</text>
</g>
<!-- 16618&#45;&gt;16798 -->
<g id="edge30" class="edge">
<title>16618&#45;&gt;16798</title>
<path fill="none" stroke="black" d="M1362.84,-71.75C1365.94,-63.22 1369.08,-54.57 1371.9,-46.8"/>
<polygon fill="black" stroke="black" points="1375.12,-48.19 1375.25,-37.6 1368.54,-45.8 1375.12,-48.19"/>
</g>
</g>
</svg>
