<?xml version="1.0" encoding="UTF-8" standalone="no"?>
<!DOCTYPE svg PUBLIC "-//W3C//DTD SVG 1.1//EN"
 "http://www.w3.org/Graphics/SVG/1.1/DTD/svg11.dtd">
<!-- Generated by graphviz version 12.0.0 (20240803.0821)
 -->
<!-- Title: Tree Pages: 1 -->
<svg width="1401pt" height="565pt"
 viewBox="0.00 0.00 1400.50 565.00" xmlns="http://www.w3.org/2000/svg" xmlns:xlink="http://www.w3.org/1999/xlink">
<g id="graph0" class="graph" transform="scale(1 1) rotate(0) translate(4 561)">
<title>Tree</title>
<polygon fill="white" stroke="none" points="-4,4 -4,-561 1396.5,-561 1396.5,4 -4,4"/>
<!-- 0 -->
<g id="node1" class="node">
<title>0</title>
<path fill="#ffffff" stroke="black" d="M798,-557C798,-557 638,-557 638,-557 632,-557 626,-551 626,-545 626,-545 626,-474.75 626,-474.75 626,-468.75 632,-462.75 638,-462.75 638,-462.75 798,-462.75 798,-462.75 804,-462.75 810,-468.75 810,-474.75 810,-474.75 810,-545 810,-545 810,-551 804,-557 798,-557"/>
<text text-anchor="middle" x="718" y="-539.7" font-family="Helvetica,sans-Serif" font-size="14.00">22_G &lt;= 0.5</text>
<text text-anchor="middle" x="718" y="-522.45" font-family="Helvetica,sans-Serif" font-size="14.00">entropy = 1.0</text>
<text text-anchor="middle" x="718" y="-505.2" font-family="Helvetica,sans-Serif" font-size="14.00">samples = 38102</text>
<text text-anchor="middle" x="718" y="-487.95" font-family="Helvetica,sans-Serif" font-size="14.00">value = [30174, 30171]</text>
<text text-anchor="middle" x="718" y="-470.7" font-family="Helvetica,sans-Serif" font-size="14.00">class = Animal</text>
</g>
<!-- 1 -->
<g id="node2" class="node">
<title>1</title>
<path fill="#e1f0fb" stroke="black" d="M625,-426.75C625,-426.75 465,-426.75 465,-426.75 459,-426.75 453,-420.75 453,-414.75 453,-414.75 453,-344.5 453,-344.5 453,-338.5 459,-332.5 465,-332.5 465,-332.5 625,-332.5 625,-332.5 631,-332.5 637,-338.5 637,-344.5 637,-344.5 637,-414.75 637,-414.75 637,-420.75 631,-426.75 625,-426.75"/>
<text text-anchor="middle" x="545" y="-409.45" font-family="Helvetica,sans-Serif" font-size="14.00">20_C &lt;= 0.5</text>
<text text-anchor="middle" x="545" y="-392.2" font-family="Helvetica,sans-Serif" font-size="14.00">entropy = 0.995</text>
<text text-anchor="middle" x="545" y="-374.95" font-family="Helvetica,sans-Serif" font-size="14.00">samples = 33139</text>
<text text-anchor="middle" x="545" y="-357.7" font-family="Helvetica,sans-Serif" font-size="14.00">value = [24142, 28422]</text>
<text text-anchor="middle" x="545" y="-340.45" font-family="Helvetica,sans-Serif" font-size="14.00">class = Plant</text>
</g>
<!-- 0&#45;&gt;1 -->
<g id="edge1" class="edge">
<title>0&#45;&gt;1</title>
<path fill="none" stroke="black" d="M655.54,-462.57C643,-453.28 629.73,-443.44 616.9,-433.93"/>
<polygon fill="black" stroke="black" points="618.99,-431.12 608.87,-427.97 614.82,-436.74 618.99,-431.12"/>
<text text-anchor="middle" x="611.33" y="-447.13" font-family="Helvetica,sans-Serif" font-size="14.00">True</text>
</g>
<!-- 14934 -->
<g id="node17" class="node">
<title>14934</title>
<path fill="#eda672" stroke="black" d="M969,-426.75C969,-426.75 827,-426.75 827,-426.75 821,-426.75 815,-420.75 815,-414.75 815,-414.75 815,-344.5 815,-344.5 815,-338.5 821,-332.5 827,-332.5 827,-332.5 969,-332.5 969,-332.5 975,-332.5 981,-338.5 981,-344.5 981,-344.5 981,-414.75 981,-414.75 981,-420.75 975,-426.75 969,-426.75"/>
<text text-anchor="middle" x="898" y="-409.45" font-family="Helvetica,sans-Serif" font-size="14.00">5_C &lt;= 0.5</text>
<text text-anchor="middle" x="898" y="-392.2" font-family="Helvetica,sans-Serif" font-size="14.00">entropy = 0.769</text>
<text text-anchor="middle" x="898" y="-374.95" font-family="Helvetica,sans-Serif" font-size="14.00">samples = 4963</text>
<text text-anchor="middle" x="898" y="-357.7" font-family="Helvetica,sans-Serif" font-size="14.00">value = [6032, 1749]</text>
<text text-anchor="middle" x="898" y="-340.45" font-family="Helvetica,sans-Serif" font-size="14.00">class = Animal</text>
</g>
<!-- 0&#45;&gt;14934 -->
<g id="edge16" class="edge">
<title>0&#45;&gt;14934</title>
<path fill="none" stroke="black" d="M783.24,-462.39C796.32,-453.07 810.15,-443.22 823.52,-433.69"/>
<polygon fill="black" stroke="black" points="825.34,-436.7 831.45,-428.04 821.27,-430.99 825.34,-436.7"/>
<text text-anchor="middle" x="828.54" y="-447.14" font-family="Helvetica,sans-Serif" font-size="14.00">False</text>
</g>
<!-- 2 -->
<g id="node3" class="node">
<title>2</title>
<path fill="#fffdfb" stroke="black" d="M356,-296.5C356,-296.5 196,-296.5 196,-296.5 190,-296.5 184,-290.5 184,-284.5 184,-284.5 184,-214.25 184,-214.25 184,-208.25 190,-202.25 196,-202.25 196,-202.25 356,-202.25 356,-202.25 362,-202.25 368,-208.25 368,-214.25 368,-214.25 368,-284.5 368,-284.5 368,-290.5 362,-296.5 356,-296.5"/>
<text text-anchor="middle" x="276" y="-279.2" font-family="Helvetica,sans-Serif" font-size="14.00">23_A &lt;= 0.5</text>
<text text-anchor="middle" x="276" y="-261.95" font-family="Helvetica,sans-Serif" font-size="14.00">entropy = 1.0</text>
<text text-anchor="middle" x="276" y="-244.7" font-family="Helvetica,sans-Serif" font-size="14.00">samples = 24397</text>
<text text-anchor="middle" x="276" y="-227.45" font-family="Helvetica,sans-Serif" font-size="14.00">value = [19554, 19182]</text>
<text text-anchor="middle" x="276" y="-210.2" font-family="Helvetica,sans-Serif" font-size="14.00">class = Animal</text>
</g>
<!-- 1&#45;&gt;2 -->
<g id="edge2" class="edge">
<title>1&#45;&gt;2</title>
<path fill="none" stroke="black" d="M452.8,-334.67C428.85,-323.25 402.9,-310.88 378.45,-299.22"/>
<polygon fill="black" stroke="black" points="379.98,-296.07 369.44,-294.93 376.96,-302.39 379.98,-296.07"/>
</g>
<!-- 11641 -->
<g id="node10" class="node">
<title>11641</title>
<path fill="#9bcef2" stroke="black" d="M616,-296.5C616,-296.5 474,-296.5 474,-296.5 468,-296.5 462,-290.5 462,-284.5 462,-284.5 462,-214.25 462,-214.25 462,-208.25 468,-202.25 474,-202.25 474,-202.25 616,-202.25 616,-202.25 622,-202.25 628,-208.25 628,-214.25 628,-214.25 628,-284.5 628,-284.5 628,-290.5 622,-296.5 616,-296.5"/>
<text text-anchor="middle" x="545" y="-279.2" font-family="Helvetica,sans-Serif" font-size="14.00">2_A &lt;= 0.5</text>
<text text-anchor="middle" x="545" y="-261.95" font-family="Helvetica,sans-Serif" font-size="14.00">entropy = 0.917</text>
<text text-anchor="middle" x="545" y="-244.7" font-family="Helvetica,sans-Serif" font-size="14.00">samples = 8742</text>
<text text-anchor="middle" x="545" y="-227.45" font-family="Helvetica,sans-Serif" font-size="14.00">value = [4588, 9240]</text>
<text text-anchor="middle" x="545" y="-210.2" font-family="Helvetica,sans-Serif" font-size="14.00">class = Plant</text>
</g>
<!-- 1&#45;&gt;11641 -->
<g id="edge9" class="edge">
<title>1&#45;&gt;11641</title>
<path fill="none" stroke="black" d="M545,-332.32C545,-324.42 545,-316.13 545,-307.98"/>
<polygon fill="black" stroke="black" points="548.5,-308.12 545,-298.12 541.5,-308.12 548.5,-308.12"/>
</g>
<!-- 3 -->
<g id="node4" class="node">
<title>3</title>
<path fill="#ffffff" stroke="black" d="M172,-166.25C172,-166.25 12,-166.25 12,-166.25 6,-166.25 0,-160.25 0,-154.25 0,-154.25 0,-84 0,-84 0,-78 6,-72 12,-72 12,-72 172,-72 172,-72 178,-72 184,-78 184,-84 184,-84 184,-154.25 184,-154.25 184,-160.25 178,-166.25 172,-166.25"/>
<text text-anchor="middle" x="92" y="-148.95" font-family="Helvetica,sans-Serif" font-size="14.00">16_G &lt;= 0.5</text>
<text text-anchor="middle" x="92" y="-131.7" font-family="Helvetica,sans-Serif" font-size="14.00">entropy = 1.0</text>
<text text-anchor="middle" x="92" y="-114.45" font-family="Helvetica,sans-Serif" font-size="14.00">samples = 23809</text>
<text text-anchor="middle" x="92" y="-97.2" font-family="Helvetica,sans-Serif" font-size="14.00">value = [18917, 18906]</text>
<text text-anchor="middle" x="92" y="-79.95" font-family="Helvetica,sans-Serif" font-size="14.00">class = Animal</text>
</g>
<!-- 2&#45;&gt;3 -->
<g id="edge3" class="edge">
<title>2&#45;&gt;3</title>
<path fill="none" stroke="black" d="M209.31,-201.89C195.94,-192.57 181.8,-182.72 168.14,-173.19"/>
<polygon fill="black" stroke="black" points="170.22,-170.38 160.01,-167.53 166.21,-176.12 170.22,-170.38"/>
</g>
<!-- 11294 -->
<g id="node7" class="node">
<title>11294</title>
<path fill="#f0b88f" stroke="black" d="M338,-166.25C338,-166.25 214,-166.25 214,-166.25 208,-166.25 202,-160.25 202,-154.25 202,-154.25 202,-84 202,-84 202,-78 208,-72 214,-72 214,-72 338,-72 338,-72 344,-72 350,-78 350,-84 350,-84 350,-154.25 350,-154.25 350,-160.25 344,-166.25 338,-166.25"/>
<text text-anchor="middle" x="276" y="-148.95" font-family="Helvetica,sans-Serif" font-size="14.00">24_A &lt;= 0.5</text>
<text text-anchor="middle" x="276" y="-131.7" font-family="Helvetica,sans-Serif" font-size="14.00">entropy = 0.884</text>
<text text-anchor="middle" x="276" y="-114.45" font-family="Helvetica,sans-Serif" font-size="14.00">samples = 588</text>
<text text-anchor="middle" x="276" y="-97.2" font-family="Helvetica,sans-Serif" font-size="14.00">value = [637, 276]</text>
<text text-anchor="middle" x="276" y="-79.95" font-family="Helvetica,sans-Serif" font-size="14.00">class = Animal</text>
</g>
<!-- 2&#45;&gt;11294 -->
<g id="edge6" class="edge">
<title>2&#45;&gt;11294</title>
<path fill="none" stroke="black" d="M276,-202.07C276,-194.17 276,-185.88 276,-177.73"/>
<polygon fill="black" stroke="black" points="279.5,-177.87 276,-167.87 272.5,-177.87 279.5,-177.87"/>
</g>
<!-- 4 -->
<g id="node5" class="node">
<title>4</title>
<path fill="#c0c0c0" stroke="black" d="M71,-36C71,-36 41,-36 41,-36 35,-36 29,-30 29,-24 29,-24 29,-12 29,-12 29,-6 35,0 41,0 41,0 71,0 71,0 77,0 83,-6 83,-12 83,-12 83,-24 83,-24 83,-30 77,-36 71,-36"/>
<text text-anchor="middle" x="56" y="-13.32" font-family="Helvetica,sans-Serif" font-size="14.00">(...)</text>
</g>
<!-- 3&#45;&gt;4 -->
<g id="edge4" class="edge">
<title>3&#45;&gt;4</title>
<path fill="none" stroke="black" d="M75.16,-71.75C72.06,-63.22 68.92,-54.57 66.1,-46.8"/>
<polygon fill="black" stroke="black" points="69.46,-45.8 62.75,-37.6 62.88,-48.19 69.46,-45.8"/>
</g>
<!-- 8319 -->
<g id="node6" class="node">
<title>8319</title>
<path fill="#c0c0c0" stroke="black" d="M143,-36C143,-36 113,-36 113,-36 107,-36 101,-30 101,-24 101,-24 101,-12 101,-12 101,-6 107,0 113,0 113,0 143,0 143,0 149,0 155,-6 155,-12 155,-12 155,-24 155,-24 155,-30 149,-36 143,-36"/>
<text text-anchor="middle" x="128" y="-13.32" font-family="Helvetica,sans-Serif" font-size="14.00">(...)</text>
</g>
<!-- 3&#45;&gt;8319 -->
<g id="edge5" class="edge">
<title>3&#45;&gt;8319</title>
<path fill="none" stroke="black" d="M108.84,-71.75C111.94,-63.22 115.08,-54.57 117.9,-46.8"/>
<polygon fill="black" stroke="black" points="121.12,-48.19 121.25,-37.6 114.54,-45.8 121.12,-48.19"/>
</g>
<!-- 11295 -->
<g id="node8" class="node">
<title>11295</title>
<path fill="#c0c0c0" stroke="black" d="M255,-36C255,-36 225,-36 225,-36 219,-36 213,-30 213,-24 213,-24 213,-12 213,-12 213,-6 219,0 225,0 225,0 255,0 255,0 261,0 267,-6 267,-12 267,-12 267,-24 267,-24 267,-30 261,-36 255,-36"/>
<text text-anchor="middle" x="240" y="-13.32" font-family="Helvetica,sans-Serif" font-size="14.00">(...)</text>
</g>
<!-- 11294&#45;&gt;11295 -->
<g id="edge7" class="edge">
<title>11294&#45;&gt;11295</title>
<path fill="none" stroke="black" d="M259.16,-71.75C256.06,-63.22 252.92,-54.57 250.1,-46.8"/>
<polygon fill="black" stroke="black" points="253.46,-45.8 246.75,-37.6 246.88,-48.19 253.46,-45.8"/>
</g>
<!-- 11592 -->
<g id="node9" class="node">
<title>11592</title>
<path fill="#c0c0c0" stroke="black" d="M327,-36C327,-36 297,-36 297,-36 291,-36 285,-30 285,-24 285,-24 285,-12 285,-12 285,-6 291,0 297,0 297,0 327,0 327,0 333,0 339,-6 339,-12 339,-12 339,-24 339,-24 339,-30 333,-36 327,-36"/>
<text text-anchor="middle" x="312" y="-13.32" font-family="Helvetica,sans-Serif" font-size="14.00">(...)</text>
</g>
<!-- 11294&#45;&gt;11592 -->
<g id="edge8" class="edge">
<title>11294&#45;&gt;11592</title>
<path fill="none" stroke="black" d="M292.84,-71.75C295.94,-63.22 299.08,-54.57 301.9,-46.8"/>
<polygon fill="black" stroke="black" points="305.12,-48.19 305.25,-37.6 298.54,-45.8 305.12,-48.19"/>
</g>
<!-- 11642 -->
<g id="node11" class="node">
<title>11642</title>
<path fill="#88c4ef" stroke="black" d="M522,-166.25C522,-166.25 380,-166.25 380,-166.25 374,-166.25 368,-160.25 368,-154.25 368,-154.25 368,-84 368,-84 368,-78 374,-72 380,-72 380,-72 522,-72 522,-72 528,-72 534,-78 534,-84 534,-84 534,-154.25 534,-154.25 534,-160.25 528,-166.25 522,-166.25"/>
<text text-anchor="middle" x="451" y="-148.95" font-family="Helvetica,sans-Serif" font-size="14.00">14_C &lt;= 0.5</text>
<text text-anchor="middle" x="451" y="-131.7" font-family="Helvetica,sans-Serif" font-size="14.00">entropy = 0.863</text>
<text text-anchor="middle" x="451" y="-114.45" font-family="Helvetica,sans-Serif" font-size="14.00">samples = 7196</text>
<text text-anchor="middle" x="451" y="-97.2" font-family="Helvetica,sans-Serif" font-size="14.00">value = [3244, 8111]</text>
<text text-anchor="middle" x="451" y="-79.95" font-family="Helvetica,sans-Serif" font-size="14.00">class = Plant</text>
</g>
<!-- 11641&#45;&gt;11642 -->
<g id="edge10" class="edge">
<title>11641&#45;&gt;11642</title>
<path fill="none" stroke="black" d="M511.06,-202.07C504.74,-193.45 498.08,-184.35 491.58,-175.49"/>
<polygon fill="black" stroke="black" points="494.52,-173.58 485.78,-167.58 488.87,-177.71 494.52,-173.58"/>
</g>
<!-- 14137 -->
<g id="node14" class="node">
<title>14137</title>
<path fill="#fbebdf" stroke="black" d="M706,-166.25C706,-166.25 564,-166.25 564,-166.25 558,-166.25 552,-160.25 552,-154.25 552,-154.25 552,-84 552,-84 552,-78 558,-72 564,-72 564,-72 706,-72 706,-72 712,-72 718,-78 718,-84 718,-84 718,-154.25 718,-154.25 718,-160.25 712,-166.25 706,-166.25"/>
<text text-anchor="middle" x="635" y="-148.95" font-family="Helvetica,sans-Serif" font-size="14.00">22_C &lt;= 0.5</text>
<text text-anchor="middle" x="635" y="-131.7" font-family="Helvetica,sans-Serif" font-size="14.00">entropy = 0.995</text>
<text text-anchor="middle" x="635" y="-114.45" font-family="Helvetica,sans-Serif" font-size="14.00">samples = 1546</text>
<text text-anchor="middle" x="635" y="-97.2" font-family="Helvetica,sans-Serif" font-size="14.00">value = [1344, 1129]</text>
<text text-anchor="middle" x="635" y="-79.95" font-family="Helvetica,sans-Serif" font-size="14.00">class = Animal</text>
</g>
<!-- 11641&#45;&gt;14137 -->
<g id="edge13" class="edge">
<title>11641&#45;&gt;14137</title>
<path fill="none" stroke="black" d="M577.49,-202.07C583.48,-193.54 589.79,-184.54 595.95,-175.77"/>
<polygon fill="black" stroke="black" points="598.81,-177.79 601.69,-167.6 593.08,-173.77 598.81,-177.79"/>
</g>
<!-- 11643 -->
<g id="node12" class="node">
<title>11643</title>
<path fill="#c0c0c0" stroke="black" d="M434,-36C434,-36 404,-36 404,-36 398,-36 392,-30 392,-24 392,-24 392,-12 392,-12 392,-6 398,0 404,0 404,0 434,0 434,0 440,0 446,-6 446,-12 446,-12 446,-24 446,-24 446,-30 440,-36 434,-36"/>
<text text-anchor="middle" x="419" y="-13.32" font-family="Helvetica,sans-Serif" font-size="14.00">(...)</text>
</g>
<!-- 11642&#45;&gt;11643 -->
<g id="edge11" class="edge">
<title>11642&#45;&gt;11643</title>
<path fill="none" stroke="black" d="M436.03,-71.75C433.31,-63.32 430.55,-54.77 428.06,-47.07"/>
<polygon fill="black" stroke="black" points="431.41,-46.05 425.01,-37.61 424.75,-48.2 431.41,-46.05"/>
</g>
<!-- 13558 -->
<g id="node13" class="node">
<title>13558</title>
<path fill="#c0c0c0" stroke="black" d="M506,-36C506,-36 476,-36 476,-36 470,-36 464,-30 464,-24 464,-24 464,-12 464,-12 464,-6 470,0 476,0 476,0 506,0 506,0 512,0 518,-6 518,-12 518,-12 518,-24 518,-24 518,-30 512,-36 506,-36"/>
<text text-anchor="middle" x="491" y="-13.32" font-family="Helvetica,sans-Serif" font-size="14.00">(...)</text>
</g>
<!-- 11642&#45;&gt;13558 -->
<g id="edge12" class="edge">
<title>11642&#45;&gt;13558</title>
<path fill="none" stroke="black" d="M469.71,-71.75C473.15,-63.22 476.65,-54.57 479.78,-46.8"/>
<polygon fill="black" stroke="black" points="483.01,-48.16 483.5,-37.58 476.52,-45.54 483.01,-48.16"/>
</g>
<!-- 14138 -->
<g id="node15" class="node">
<title>14138</title>
<path fill="#c0c0c0" stroke="black" d="M596,-36C596,-36 566,-36 566,-36 560,-36 554,-30 554,-24 554,-24 554,-12 554,-12 554,-6 560,0 566,0 566,0 596,0 596,0 602,0 608,-6 608,-12 608,-12 608,-24 608,-24 608,-30 602,-36 596,-36"/>
<text text-anchor="middle" x="581" y="-13.32" font-family="Helvetica,sans-Serif" font-size="14.00">(...)</text>
</g>
<!-- 14137&#45;&gt;14138 -->
<g id="edge14" class="edge">
<title>14137&#45;&gt;14138</title>
<path fill="none" stroke="black" d="M609.74,-71.75C604.98,-63.03 600.16,-54.16 595.85,-46.26"/>
<polygon fill="black" stroke="black" points="598.94,-44.61 591.08,-37.5 592.79,-47.96 598.94,-44.61"/>
</g>
<!-- 14853 -->
<g id="node16" class="node">
<title>14853</title>
<path fill="#c0c0c0" stroke="black" d="M668,-36C668,-36 638,-36 638,-36 632,-36 626,-30 626,-24 626,-24 626,-12 626,-12 626,-6 632,0 638,0 638,0 668,0 668,0 674,0 680,-6 680,-12 680,-12 680,-24 680,-24 680,-30 674,-36 668,-36"/>
<text text-anchor="middle" x="653" y="-13.32" font-family="Helvetica,sans-Serif" font-size="14.00">(...)</text>
</g>
<!-- 14137&#45;&gt;14853 -->
<g id="edge15" class="edge">
<title>14137&#45;&gt;14853</title>
<path fill="none" stroke="black" d="M643.42,-71.75C644.93,-63.42 646.47,-54.97 647.85,-47.34"/>
<polygon fill="black" stroke="black" points="651.27,-48.13 649.61,-37.66 644.38,-46.88 651.27,-48.13"/>
</g>
<!-- 14935 -->
<g id="node18" class="node">
<title>14935</title>
<path fill="#eca26c" stroke="black" d="M969,-296.5C969,-296.5 827,-296.5 827,-296.5 821,-296.5 815,-290.5 815,-284.5 815,-284.5 815,-214.25 815,-214.25 815,-208.25 821,-202.25 827,-202.25 827,-202.25 969,-202.25 969,-202.25 975,-202.25 981,-208.25 981,-214.25 981,-214.25 981,-284.5 981,-284.5 981,-290.5 975,-296.5 969,-296.5"/>
<text text-anchor="middle" x="898" y="-279.2" font-family="Helvetica,sans-Serif" font-size="14.00">21_U &lt;= 0.5</text>
<text text-anchor="middle" x="898" y="-261.95" font-family="Helvetica,sans-Serif" font-size="14.00">entropy = 0.732</text>
<text text-anchor="middle" x="898" y="-244.7" font-family="Helvetica,sans-Serif" font-size="14.00">samples = 3826</text>
<text text-anchor="middle" x="898" y="-227.45" font-family="Helvetica,sans-Serif" font-size="14.00">value = [4768, 1231]</text>
<text text-anchor="middle" x="898" y="-210.2" font-family="Helvetica,sans-Serif" font-size="14.00">class = Animal</text>
</g>
<!-- 14934&#45;&gt;14935 -->
<g id="edge17" class="edge">
<title>14934&#45;&gt;14935</title>
<path fill="none" stroke="black" d="M898,-332.32C898,-324.42 898,-316.13 898,-307.98"/>
<polygon fill="black" stroke="black" points="901.5,-308.12 898,-298.12 894.5,-308.12 901.5,-308.12"/>
</g>
<!-- 16450 -->
<g id="node25" class="node">
<title>16450</title>
<path fill="#f0b58a" stroke="black" d="M1227.5,-296.5C1227.5,-296.5 1094.5,-296.5 1094.5,-296.5 1088.5,-296.5 1082.5,-290.5 1082.5,-284.5 1082.5,-284.5 1082.5,-214.25 1082.5,-214.25 1082.5,-208.25 1088.5,-202.25 1094.5,-202.25 1094.5,-202.25 1227.5,-202.25 1227.5,-202.25 1233.5,-202.25 1239.5,-208.25 1239.5,-214.25 1239.5,-214.25 1239.5,-284.5 1239.5,-284.5 1239.5,-290.5 1233.5,-296.5 1227.5,-296.5"/>
<text text-anchor="middle" x="1161" y="-279.2" font-family="Helvetica,sans-Serif" font-size="14.00">8_A &lt;= 0.5</text>
<text text-anchor="middle" x="1161" y="-261.95" font-family="Helvetica,sans-Serif" font-size="14.00">entropy = 0.87</text>
<text text-anchor="middle" x="1161" y="-244.7" font-family="Helvetica,sans-Serif" font-size="14.00">samples = 1137</text>
<text text-anchor="middle" x="1161" y="-227.45" font-family="Helvetica,sans-Serif" font-size="14.00">value = [1264, 518]</text>
<text text-anchor="middle" x="1161" y="-210.2" font-family="Helvetica,sans-Serif" font-size="14.00">class = Animal</text>
</g>
<!-- 14934&#45;&gt;16450 -->
<g id="edge24" class="edge">
<title>14934&#45;&gt;16450</title>
<path fill="none" stroke="black" d="M981.21,-338.05C1010.16,-323.93 1042.72,-308.05 1072.11,-293.72"/>
<polygon fill="black" stroke="black" points="1073.54,-296.92 1081,-289.39 1070.48,-290.62 1073.54,-296.92"/>
</g>
<!-- 14936 -->
<g id="node19" class="node">
<title>14936</title>
<path fill="#eda775" stroke="black" d="M881.5,-166.25C881.5,-166.25 748.5,-166.25 748.5,-166.25 742.5,-166.25 736.5,-160.25 736.5,-154.25 736.5,-154.25 736.5,-84 736.5,-84 736.5,-78 742.5,-72 748.5,-72 748.5,-72 881.5,-72 881.5,-72 887.5,-72 893.5,-78 893.5,-84 893.5,-84 893.5,-154.25 893.5,-154.25 893.5,-160.25 887.5,-166.25 881.5,-166.25"/>
<text text-anchor="middle" x="815" y="-148.95" font-family="Helvetica,sans-Serif" font-size="14.00">8_G &lt;= 0.5</text>
<text text-anchor="middle" x="815" y="-131.7" font-family="Helvetica,sans-Serif" font-size="14.00">entropy = 0.784</text>
<text text-anchor="middle" x="815" y="-114.45" font-family="Helvetica,sans-Serif" font-size="14.00">samples = 2559</text>
<text text-anchor="middle" x="815" y="-97.2" font-family="Helvetica,sans-Serif" font-size="14.00">value = [3056, 932]</text>
<text text-anchor="middle" x="815" y="-79.95" font-family="Helvetica,sans-Serif" font-size="14.00">class = Animal</text>
</g>
<!-- 14935&#45;&gt;14936 -->
<g id="edge18" class="edge">
<title>14935&#45;&gt;14936</title>
<path fill="none" stroke="black" d="M868.04,-202.07C862.51,-193.54 856.69,-184.54 851.01,-175.77"/>
<polygon fill="black" stroke="black" points="854.11,-174.12 845.74,-167.63 848.24,-177.93 854.11,-174.12"/>
</g>
<!-- 16027 -->
<g id="node22" class="node">
<title>16027</title>
<path fill="#ea975c" stroke="black" d="M1056.5,-166.25C1056.5,-166.25 923.5,-166.25 923.5,-166.25 917.5,-166.25 911.5,-160.25 911.5,-154.25 911.5,-154.25 911.5,-84 911.5,-84 911.5,-78 917.5,-72 923.5,-72 923.5,-72 1056.5,-72 1056.5,-72 1062.5,-72 1068.5,-78 1068.5,-84 1068.5,-84 1068.5,-154.25 1068.5,-154.25 1068.5,-160.25 1062.5,-166.25 1056.5,-166.25"/>
<text text-anchor="middle" x="990" y="-148.95" font-family="Helvetica,sans-Serif" font-size="14.00">9_A &lt;= 0.5</text>
<text text-anchor="middle" x="990" y="-131.7" font-family="Helvetica,sans-Serif" font-size="14.00">entropy = 0.607</text>
<text text-anchor="middle" x="990" y="-114.45" font-family="Helvetica,sans-Serif" font-size="14.00">samples = 1267</text>
<text text-anchor="middle" x="990" y="-97.2" font-family="Helvetica,sans-Serif" font-size="14.00">value = [1712, 299]</text>
<text text-anchor="middle" x="990" y="-79.95" font-family="Helvetica,sans-Serif" font-size="14.00">class = Animal</text>
</g>
<!-- 14935&#45;&gt;16027 -->
<g id="edge21" class="edge">
<title>14935&#45;&gt;16027</title>
<path fill="none" stroke="black" d="M931.21,-202.07C937.4,-193.45 943.93,-184.35 950.29,-175.49"/>
<polygon fill="black" stroke="black" points="952.97,-177.75 955.95,-167.59 947.28,-173.67 952.97,-177.75"/>
</g>
<!-- 14937 -->
<g id="node20" class="node">
<title>14937</title>
<path fill="#c0c0c0" stroke="black" d="M773,-36C773,-36 743,-36 743,-36 737,-36 731,-30 731,-24 731,-24 731,-12 731,-12 731,-6 737,0 743,0 743,0 773,0 773,0 779,0 785,-6 785,-12 785,-12 785,-24 785,-24 785,-30 779,-36 773,-36"/>
<text text-anchor="middle" x="758" y="-13.32" font-family="Helvetica,sans-Serif" font-size="14.00">(...)</text>
</g>
<!-- 14936&#45;&gt;14937 -->
<g id="edge19" class="edge">
<title>14936&#45;&gt;14937</title>
<path fill="none" stroke="black" d="M788.34,-71.75C783.26,-62.93 778.1,-53.96 773.52,-45.99"/>
<polygon fill="black" stroke="black" points="776.65,-44.41 768.63,-37.48 770.58,-47.9 776.65,-44.41"/>
</g>
<!-- 15664 -->
<g id="node21" class="node">
<title>15664</title>
<path fill="#c0c0c0" stroke="black" d="M845,-36C845,-36 815,-36 815,-36 809,-36 803,-30 803,-24 803,-24 803,-12 803,-12 803,-6 809,0 815,0 815,0 845,0 845,0 851,0 857,-6 857,-12 857,-12 857,-24 857,-24 857,-30 851,-36 845,-36"/>
<text text-anchor="middle" x="830" y="-13.32" font-family="Helvetica,sans-Serif" font-size="14.00">(...)</text>
</g>
<!-- 14936&#45;&gt;15664 -->
<g id="edge20" class="edge">
<title>14936&#45;&gt;15664</title>
<path fill="none" stroke="black" d="M822.02,-71.75C823.28,-63.42 824.56,-54.97 825.71,-47.34"/>
<polygon fill="black" stroke="black" points="829.14,-48.08 827.17,-37.67 822.22,-47.03 829.14,-48.08"/>
</g>
<!-- 16028 -->
<g id="node23" class="node">
<title>16028</title>
<path fill="#c0c0c0" stroke="black" d="M946,-36C946,-36 916,-36 916,-36 910,-36 904,-30 904,-24 904,-24 904,-12 904,-12 904,-6 910,0 916,0 916,0 946,0 946,0 952,0 958,-6 958,-12 958,-12 958,-24 958,-24 958,-30 952,-36 946,-36"/>
<text text-anchor="middle" x="931" y="-13.32" font-family="Helvetica,sans-Serif" font-size="14.00">(...)</text>
</g>
<!-- 16027&#45;&gt;16028 -->
<g id="edge22" class="edge">
<title>16027&#45;&gt;16028</title>
<path fill="none" stroke="black" d="M962.4,-71.75C957.15,-62.93 951.81,-53.96 947.06,-45.99"/>
<polygon fill="black" stroke="black" points="950.12,-44.28 942,-37.47 944.1,-47.86 950.12,-44.28"/>
</g>
<!-- 16341 -->
<g id="node24" class="node">
<title>16341</title>
<path fill="#c0c0c0" stroke="black" d="M1018,-36C1018,-36 988,-36 988,-36 982,-36 976,-30 976,-24 976,-24 976,-12 976,-12 976,-6 982,0 988,0 988,0 1018,0 1018,0 1024,0 1030,-6 1030,-12 1030,-12 1030,-24 1030,-24 1030,-30 1024,-36 1018,-36"/>
<text text-anchor="middle" x="1003" y="-13.32" font-family="Helvetica,sans-Serif" font-size="14.00">(...)</text>
</g>
<!-- 16027&#45;&gt;16341 -->
<g id="edge23" class="edge">
<title>16027&#45;&gt;16341</title>
<path fill="none" stroke="black" d="M996.08,-71.75C997.17,-63.42 998.28,-54.97 999.28,-47.34"/>
<polygon fill="black" stroke="black" points="1002.72,-48.04 1000.55,-37.67 995.78,-47.13 1002.72,-48.04"/>
</g>
<!-- 16451 -->
<g id="node26" class="node">
<title>16451</title>
<path fill="#f2bf9b" stroke="black" d="M1223,-166.25C1223,-166.25 1099,-166.25 1099,-166.25 1093,-166.25 1087,-160.25 1087,-154.25 1087,-154.25 1087,-84 1087,-84 1087,-78 1093,-72 1099,-72 1099,-72 1223,-72 1223,-72 1229,-72 1235,-78 1235,-84 1235,-84 1235,-154.25 1235,-154.25 1235,-160.25 1229,-166.25 1223,-166.25"/>
<text text-anchor="middle" x="1161" y="-148.95" font-family="Helvetica,sans-Serif" font-size="14.00">6_A &lt;= 0.5</text>
<text text-anchor="middle" x="1161" y="-131.7" font-family="Helvetica,sans-Serif" font-size="14.00">entropy = 0.915</text>
<text text-anchor="middle" x="1161" y="-114.45" font-family="Helvetica,sans-Serif" font-size="14.00">samples = 815</text>
<text text-anchor="middle" x="1161" y="-97.2" font-family="Helvetica,sans-Serif" font-size="14.00">value = [859, 423]</text>
<text text-anchor="middle" x="1161" y="-79.95" font-family="Helvetica,sans-Serif" font-size="14.00">class = Animal</text>
</g>
<!-- 16450&#45;&gt;16451 -->
<g id="edge25" class="edge">
<title>16450&#45;&gt;16451</title>
<path fill="none" stroke="black" d="M1161,-202.07C1161,-194.17 1161,-185.88 1161,-177.73"/>
<polygon fill="black" stroke="black" points="1164.5,-177.87 1161,-167.87 1157.5,-177.87 1164.5,-177.87"/>
</g>
<!-- 16856 -->
<g id="node29" class="node">
<title>16856</title>
<path fill="#eb9f67" stroke="black" d="M1380.5,-166.25C1380.5,-166.25 1265.5,-166.25 1265.5,-166.25 1259.5,-166.25 1253.5,-160.25 1253.5,-154.25 1253.5,-154.25 1253.5,-84 1253.5,-84 1253.5,-78 1259.5,-72 1265.5,-72 1265.5,-72 1380.5,-72 1380.5,-72 1386.5,-72 1392.5,-78 1392.5,-84 1392.5,-84 1392.5,-154.25 1392.5,-154.25 1392.5,-160.25 1386.5,-166.25 1380.5,-166.25"/>
<text text-anchor="middle" x="1323" y="-148.95" font-family="Helvetica,sans-Serif" font-size="14.00">10_A &lt;= 0.5</text>
<text text-anchor="middle" x="1323" y="-131.7" font-family="Helvetica,sans-Serif" font-size="14.00">entropy = 0.701</text>
<text text-anchor="middle" x="1323" y="-114.45" font-family="Helvetica,sans-Serif" font-size="14.00">samples = 322</text>
<text text-anchor="middle" x="1323" y="-97.2" font-family="Helvetica,sans-Serif" font-size="14.00">value = [405, 95]</text>
<text text-anchor="middle" x="1323" y="-79.95" font-family="Helvetica,sans-Serif" font-size="14.00">class = Animal</text>
</g>
<!-- 16450&#45;&gt;16856 -->
<g id="edge28" class="edge">
<title>16450&#45;&gt;16856</title>
<path fill="none" stroke="black" d="M1219.49,-202.07C1231.11,-192.87 1243.41,-183.13 1255.32,-173.71"/>
<polygon fill="black" stroke="black" points="1257.47,-176.46 1263.14,-167.51 1253.13,-170.98 1257.47,-176.46"/>
</g>
<!-- 16452 -->
<g id="node27" class="node">
<title>16452</title>
<path fill="#c0c0c0" stroke="black" d="M1131,-36C1131,-36 1101,-36 1101,-36 1095,-36 1089,-30 1089,-24 1089,-24 1089,-12 1089,-12 1089,-6 1095,0 1101,0 1101,0 1131,0 1131,0 1137,0 1143,-6 1143,-12 1143,-12 1143,-24 1143,-24 1143,-30 1137,-36 1131,-36"/>
<text text-anchor="middle" x="1116" y="-13.32" font-family="Helvetica,sans-Serif" font-size="14.00">(...)</text>
</g>
<!-- 16451&#45;&gt;16452 -->
<g id="edge26" class="edge">
<title>16451&#45;&gt;16452</title>
<path fill="none" stroke="black" d="M1139.95,-71.75C1136.03,-63.12 1132.05,-54.36 1128.5,-46.53"/>
<polygon fill="black" stroke="black" points="1131.74,-45.21 1124.42,-37.55 1125.37,-48.1 1131.74,-45.21"/>
</g>
<!-- 16755 -->
<g id="node28" class="node">
<title>16755</title>
<path fill="#c0c0c0" stroke="black" d="M1203,-36C1203,-36 1173,-36 1173,-36 1167,-36 1161,-30 1161,-24 1161,-24 1161,-12 1161,-12 1161,-6 1167,0 1173,0 1173,0 1203,0 1203,0 1209,0 1215,-6 1215,-12 1215,-12 1215,-24 1215,-24 1215,-30 1209,-36 1203,-36"/>
<text text-anchor="middle" x="1188" y="-13.32" font-family="Helvetica,sans-Serif" font-size="14.00">(...)</text>
</g>
<!-- 16451&#45;&gt;16755 -->
<g id="edge27" class="edge">
<title>16451&#45;&gt;16755</title>
<path fill="none" stroke="black" d="M1173.63,-71.75C1175.93,-63.32 1178.26,-54.77 1180.35,-47.07"/>
<polygon fill="black" stroke="black" points="1183.67,-48.2 1182.92,-37.63 1176.92,-46.36 1183.67,-48.2"/>
</g>
<!-- 16857 -->
<g id="node30" class="node">
<title>16857</title>
<path fill="#c0c0c0" stroke="black" d="M1302,-36C1302,-36 1272,-36 1272,-36 1266,-36 1260,-30 1260,-24 1260,-24 1260,-12 1260,-12 1260,-6 1266,0 1272,0 1272,0 1302,0 1302,0 1308,0 1314,-6 1314,-12 1314,-12 1314,-24 1314,-24 1314,-30 1308,-36 1302,-36"/>
<text text-anchor="middle" x="1287" y="-13.32" font-family="Helvetica,sans-Serif" font-size="14.00">(...)</text>
</g>
<!-- 16856&#45;&gt;16857 -->
<g id="edge29" class="edge">
<title>16856&#45;&gt;16857</title>
<path fill="none" stroke="black" d="M1306.16,-71.75C1303.06,-63.22 1299.92,-54.57 1297.1,-46.8"/>
<polygon fill="black" stroke="black" points="1300.46,-45.8 1293.75,-37.6 1293.88,-48.19 1300.46,-45.8"/>
</g>
<!-- 16954 -->
<g id="node31" class="node">
<title>16954</title>
<path fill="#c0c0c0" stroke="black" d="M1374,-36C1374,-36 1344,-36 1344,-36 1338,-36 1332,-30 1332,-24 1332,-24 1332,-12 1332,-12 1332,-6 1338,0 1344,0 1344,0 1374,0 1374,0 1380,0 1386,-6 1386,-12 1386,-12 1386,-24 1386,-24 1386,-30 1380,-36 1374,-36"/>
<text text-anchor="middle" x="1359" y="-13.32" font-family="Helvetica,sans-Serif" font-size="14.00">(...)</text>
</g>
<!-- 16856&#45;&gt;16954 -->
<g id="edge30" class="edge">
<title>16856&#45;&gt;16954</title>
<path fill="none" stroke="black" d="M1339.84,-71.75C1342.94,-63.22 1346.08,-54.57 1348.9,-46.8"/>
<polygon fill="black" stroke="black" points="1352.12,-48.19 1352.25,-37.6 1345.54,-45.8 1352.12,-48.19"/>
</g>
</g>
</svg>
