<?xml version="1.0" encoding="UTF-8" standalone="no"?>
<!DOCTYPE svg PUBLIC "-//W3C//DTD SVG 1.1//EN"
 "http://www.w3.org/Graphics/SVG/1.1/DTD/svg11.dtd">
<!-- Generated by graphviz version 12.0.0 (20240803.0821)
 -->
<!-- Title: Tree Pages: 1 -->
<svg width="1418pt" height="565pt"
 viewBox="0.00 0.00 1418.00 565.00" xmlns="http://www.w3.org/2000/svg" xmlns:xlink="http://www.w3.org/1999/xlink">
<g id="graph0" class="graph" transform="scale(1 1) rotate(0) translate(4 561)">
<title>Tree</title>
<polygon fill="white" stroke="none" points="-4,4 -4,-561 1414,-561 1414,4 -4,4"/>
<!-- 0 -->
<g id="node1" class="node">
<title>0</title>
<path fill="#ffffff" stroke="black" d="M784,-557C784,-557 624,-557 624,-557 618,-557 612,-551 612,-545 612,-545 612,-474.75 612,-474.75 612,-468.75 618,-462.75 624,-462.75 624,-462.75 784,-462.75 784,-462.75 790,-462.75 796,-468.75 796,-474.75 796,-474.75 796,-545 796,-545 796,-551 790,-557 784,-557"/>
<text text-anchor="middle" x="704" y="-539.7" font-family="Helvetica,sans-Serif" font-size="14.00">2_A &lt;= 0.5</text>
<text text-anchor="middle" x="704" y="-522.45" font-family="Helvetica,sans-Serif" font-size="14.00">entropy = 1.0</text>
<text text-anchor="middle" x="704" y="-505.2" font-family="Helvetica,sans-Serif" font-size="14.00">samples = 38236</text>
<text text-anchor="middle" x="704" y="-487.95" font-family="Helvetica,sans-Serif" font-size="14.00">value = [30157, 30188]</text>
<text text-anchor="middle" x="704" y="-470.7" font-family="Helvetica,sans-Serif" font-size="14.00">class = Plant</text>
</g>
<!-- 1 -->
<g id="node2" class="node">
<title>1</title>
<path fill="#e1f0fb" stroke="black" d="M621,-426.75C621,-426.75 461,-426.75 461,-426.75 455,-426.75 449,-420.75 449,-414.75 449,-414.75 449,-344.5 449,-344.5 449,-338.5 455,-332.5 461,-332.5 461,-332.5 621,-332.5 621,-332.5 627,-332.5 633,-338.5 633,-344.5 633,-344.5 633,-414.75 633,-414.75 633,-420.75 627,-426.75 621,-426.75"/>
<text text-anchor="middle" x="541" y="-409.45" font-family="Helvetica,sans-Serif" font-size="14.00">23_C &lt;= 0.5</text>
<text text-anchor="middle" x="541" y="-392.2" font-family="Helvetica,sans-Serif" font-size="14.00">entropy = 0.995</text>
<text text-anchor="middle" x="541" y="-374.95" font-family="Helvetica,sans-Serif" font-size="14.00">samples = 29081</text>
<text text-anchor="middle" x="541" y="-357.7" font-family="Helvetica,sans-Serif" font-size="14.00">value = [21016, 24832]</text>
<text text-anchor="middle" x="541" y="-340.45" font-family="Helvetica,sans-Serif" font-size="14.00">class = Plant</text>
</g>
<!-- 0&#45;&gt;1 -->
<g id="edge1" class="edge">
<title>0&#45;&gt;1</title>
<path fill="none" stroke="black" d="M645.15,-462.57C633.34,-453.28 620.84,-443.44 608.75,-433.93"/>
<polygon fill="black" stroke="black" points="611.25,-431.44 601.22,-428.01 606.92,-436.94 611.25,-431.44"/>
<text text-anchor="middle" x="603" y="-447.22" font-family="Helvetica,sans-Serif" font-size="14.00">True</text>
</g>
<!-- 12856 -->
<g id="node17" class="node">
<title>12856</title>
<path fill="#f4cbad" stroke="black" d="M964,-426.75C964,-426.75 822,-426.75 822,-426.75 816,-426.75 810,-420.75 810,-414.75 810,-414.75 810,-344.5 810,-344.5 810,-338.5 816,-332.5 822,-332.5 822,-332.5 964,-332.5 964,-332.5 970,-332.5 976,-338.5 976,-344.5 976,-344.5 976,-414.75 976,-414.75 976,-420.75 970,-426.75 964,-426.75"/>
<text text-anchor="middle" x="893" y="-409.45" font-family="Helvetica,sans-Serif" font-size="14.00">21_U &lt;= 0.5</text>
<text text-anchor="middle" x="893" y="-392.2" font-family="Helvetica,sans-Serif" font-size="14.00">entropy = 0.95</text>
<text text-anchor="middle" x="893" y="-374.95" font-family="Helvetica,sans-Serif" font-size="14.00">samples = 9155</text>
<text text-anchor="middle" x="893" y="-357.7" font-family="Helvetica,sans-Serif" font-size="14.00">value = [9141, 5356]</text>
<text text-anchor="middle" x="893" y="-340.45" font-family="Helvetica,sans-Serif" font-size="14.00">class = Animal</text>
</g>
<!-- 0&#45;&gt;12856 -->
<g id="edge16" class="edge">
<title>0&#45;&gt;12856</title>
<path fill="none" stroke="black" d="M772.5,-462.39C786.37,-452.98 801.04,-443.03 815.2,-433.42"/>
<polygon fill="black" stroke="black" points="816.85,-436.53 823.16,-428.01 812.92,-430.73 816.85,-436.53"/>
<text text-anchor="middle" x="819.71" y="-447.04" font-family="Helvetica,sans-Serif" font-size="14.00">False</text>
</g>
<!-- 2 -->
<g id="node3" class="node">
<title>2</title>
<path fill="#d9ecfa" stroke="black" d="M365,-296.5C365,-296.5 205,-296.5 205,-296.5 199,-296.5 193,-290.5 193,-284.5 193,-284.5 193,-214.25 193,-214.25 193,-208.25 199,-202.25 205,-202.25 205,-202.25 365,-202.25 365,-202.25 371,-202.25 377,-208.25 377,-214.25 377,-214.25 377,-284.5 377,-284.5 377,-290.5 371,-296.5 365,-296.5"/>
<text text-anchor="middle" x="285" y="-279.2" font-family="Helvetica,sans-Serif" font-size="14.00">8_G &lt;= 0.5</text>
<text text-anchor="middle" x="285" y="-261.95" font-family="Helvetica,sans-Serif" font-size="14.00">entropy = 0.992</text>
<text text-anchor="middle" x="285" y="-244.7" font-family="Helvetica,sans-Serif" font-size="14.00">samples = 28088</text>
<text text-anchor="middle" x="285" y="-227.45" font-family="Helvetica,sans-Serif" font-size="14.00">value = [19810, 24475]</text>
<text text-anchor="middle" x="285" y="-210.2" font-family="Helvetica,sans-Serif" font-size="14.00">class = Plant</text>
</g>
<!-- 1&#45;&gt;2 -->
<g id="edge2" class="edge">
<title>1&#45;&gt;2</title>
<path fill="none" stroke="black" d="M448.58,-332.32C428.73,-322.38 407.64,-311.82 387.44,-301.69"/>
<polygon fill="black" stroke="black" points="389.15,-298.64 378.64,-297.29 386.01,-304.89 389.15,-298.64"/>
</g>
<!-- 12381 -->
<g id="node10" class="node">
<title>12381</title>
<path fill="#eda674" stroke="black" d="M607.5,-296.5C607.5,-296.5 474.5,-296.5 474.5,-296.5 468.5,-296.5 462.5,-290.5 462.5,-284.5 462.5,-284.5 462.5,-214.25 462.5,-214.25 462.5,-208.25 468.5,-202.25 474.5,-202.25 474.5,-202.25 607.5,-202.25 607.5,-202.25 613.5,-202.25 619.5,-208.25 619.5,-214.25 619.5,-214.25 619.5,-284.5 619.5,-284.5 619.5,-290.5 613.5,-296.5 607.5,-296.5"/>
<text text-anchor="middle" x="541" y="-279.2" font-family="Helvetica,sans-Serif" font-size="14.00">16_U &lt;= 0.5</text>
<text text-anchor="middle" x="541" y="-261.95" font-family="Helvetica,sans-Serif" font-size="14.00">entropy = 0.775</text>
<text text-anchor="middle" x="541" y="-244.7" font-family="Helvetica,sans-Serif" font-size="14.00">samples = 993</text>
<text text-anchor="middle" x="541" y="-227.45" font-family="Helvetica,sans-Serif" font-size="14.00">value = [1206, 357]</text>
<text text-anchor="middle" x="541" y="-210.2" font-family="Helvetica,sans-Serif" font-size="14.00">class = Animal</text>
</g>
<!-- 1&#45;&gt;12381 -->
<g id="edge9" class="edge">
<title>1&#45;&gt;12381</title>
<path fill="none" stroke="black" d="M541,-332.32C541,-324.42 541,-316.13 541,-307.98"/>
<polygon fill="black" stroke="black" points="544.5,-308.12 541,-298.12 537.5,-308.12 544.5,-308.12"/>
</g>
<!-- 3 -->
<g id="node4" class="node">
<title>3</title>
<path fill="#f6fbfe" stroke="black" d="M172,-166.25C172,-166.25 12,-166.25 12,-166.25 6,-166.25 0,-160.25 0,-154.25 0,-154.25 0,-84 0,-84 0,-78 6,-72 12,-72 12,-72 172,-72 172,-72 178,-72 184,-78 184,-84 184,-84 184,-154.25 184,-154.25 184,-160.25 178,-166.25 172,-166.25"/>
<text text-anchor="middle" x="92" y="-148.95" font-family="Helvetica,sans-Serif" font-size="14.00">22_C &lt;= 0.5</text>
<text text-anchor="middle" x="92" y="-131.7" font-family="Helvetica,sans-Serif" font-size="14.00">entropy = 1.0</text>
<text text-anchor="middle" x="92" y="-114.45" font-family="Helvetica,sans-Serif" font-size="14.00">samples = 19211</text>
<text text-anchor="middle" x="92" y="-97.2" font-family="Helvetica,sans-Serif" font-size="14.00">value = [14825, 15509]</text>
<text text-anchor="middle" x="92" y="-79.95" font-family="Helvetica,sans-Serif" font-size="14.00">class = Plant</text>
</g>
<!-- 2&#45;&gt;3 -->
<g id="edge3" class="edge">
<title>2&#45;&gt;3</title>
<path fill="none" stroke="black" d="M215.05,-201.89C200.89,-192.48 185.9,-182.53 171.45,-172.92"/>
<polygon fill="black" stroke="black" points="173.56,-170.12 163.3,-167.5 169.69,-175.95 173.56,-170.12"/>
</g>
<!-- 9072 -->
<g id="node7" class="node">
<title>9072</title>
<path fill="#a7d3f3" stroke="black" d="M356,-166.25C356,-166.25 214,-166.25 214,-166.25 208,-166.25 202,-160.25 202,-154.25 202,-154.25 202,-84 202,-84 202,-78 208,-72 214,-72 214,-72 356,-72 356,-72 362,-72 368,-78 368,-84 368,-84 368,-154.25 368,-154.25 368,-160.25 362,-166.25 356,-166.25"/>
<text text-anchor="middle" x="285" y="-148.95" font-family="Helvetica,sans-Serif" font-size="14.00">1_U &lt;= 0.5</text>
<text text-anchor="middle" x="285" y="-131.7" font-family="Helvetica,sans-Serif" font-size="14.00">entropy = 0.94</text>
<text text-anchor="middle" x="285" y="-114.45" font-family="Helvetica,sans-Serif" font-size="14.00">samples = 8877</text>
<text text-anchor="middle" x="285" y="-97.2" font-family="Helvetica,sans-Serif" font-size="14.00">value = [4985, 8966]</text>
<text text-anchor="middle" x="285" y="-79.95" font-family="Helvetica,sans-Serif" font-size="14.00">class = Plant</text>
</g>
<!-- 2&#45;&gt;9072 -->
<g id="edge6" class="edge">
<title>2&#45;&gt;9072</title>
<path fill="none" stroke="black" d="M285,-202.07C285,-194.17 285,-185.88 285,-177.73"/>
<polygon fill="black" stroke="black" points="288.5,-177.87 285,-167.87 281.5,-177.87 288.5,-177.87"/>
</g>
<!-- 4 -->
<g id="node5" class="node">
<title>4</title>
<path fill="#c0c0c0" stroke="black" d="M71,-36C71,-36 41,-36 41,-36 35,-36 29,-30 29,-24 29,-24 29,-12 29,-12 29,-6 35,0 41,0 41,0 71,0 71,0 77,0 83,-6 83,-12 83,-12 83,-24 83,-24 83,-30 77,-36 71,-36"/>
<text text-anchor="middle" x="56" y="-13.32" font-family="Helvetica,sans-Serif" font-size="14.00">(...)</text>
</g>
<!-- 3&#45;&gt;4 -->
<g id="edge4" class="edge">
<title>3&#45;&gt;4</title>
<path fill="none" stroke="black" d="M75.16,-71.75C72.06,-63.22 68.92,-54.57 66.1,-46.8"/>
<polygon fill="black" stroke="black" points="69.46,-45.8 62.75,-37.6 62.88,-48.19 69.46,-45.8"/>
</g>
<!-- 8121 -->
<g id="node6" class="node">
<title>8121</title>
<path fill="#c0c0c0" stroke="black" d="M143,-36C143,-36 113,-36 113,-36 107,-36 101,-30 101,-24 101,-24 101,-12 101,-12 101,-6 107,0 113,0 113,0 143,0 143,0 149,0 155,-6 155,-12 155,-12 155,-24 155,-24 155,-30 149,-36 143,-36"/>
<text text-anchor="middle" x="128" y="-13.32" font-family="Helvetica,sans-Serif" font-size="14.00">(...)</text>
</g>
<!-- 3&#45;&gt;8121 -->
<g id="edge5" class="edge">
<title>3&#45;&gt;8121</title>
<path fill="none" stroke="black" d="M108.84,-71.75C111.94,-63.22 115.08,-54.57 117.9,-46.8"/>
<polygon fill="black" stroke="black" points="121.12,-48.19 121.25,-37.6 114.54,-45.8 121.12,-48.19"/>
</g>
<!-- 9073 -->
<g id="node8" class="node">
<title>9073</title>
<path fill="#c0c0c0" stroke="black" d="M255,-36C255,-36 225,-36 225,-36 219,-36 213,-30 213,-24 213,-24 213,-12 213,-12 213,-6 219,0 225,0 225,0 255,0 255,0 261,0 267,-6 267,-12 267,-12 267,-24 267,-24 267,-30 261,-36 255,-36"/>
<text text-anchor="middle" x="240" y="-13.32" font-family="Helvetica,sans-Serif" font-size="14.00">(...)</text>
</g>
<!-- 9072&#45;&gt;9073 -->
<g id="edge7" class="edge">
<title>9072&#45;&gt;9073</title>
<path fill="none" stroke="black" d="M263.95,-71.75C260.03,-63.12 256.05,-54.36 252.5,-46.53"/>
<polygon fill="black" stroke="black" points="255.74,-45.21 248.42,-37.55 249.37,-48.1 255.74,-45.21"/>
</g>
<!-- 10840 -->
<g id="node9" class="node">
<title>10840</title>
<path fill="#c0c0c0" stroke="black" d="M327,-36C327,-36 297,-36 297,-36 291,-36 285,-30 285,-24 285,-24 285,-12 285,-12 285,-6 291,0 297,0 297,0 327,0 327,0 333,0 339,-6 339,-12 339,-12 339,-24 339,-24 339,-30 333,-36 327,-36"/>
<text text-anchor="middle" x="312" y="-13.32" font-family="Helvetica,sans-Serif" font-size="14.00">(...)</text>
</g>
<!-- 9072&#45;&gt;10840 -->
<g id="edge8" class="edge">
<title>9072&#45;&gt;10840</title>
<path fill="none" stroke="black" d="M297.63,-71.75C299.93,-63.32 302.26,-54.77 304.35,-47.07"/>
<polygon fill="black" stroke="black" points="307.67,-48.2 306.92,-37.63 300.92,-46.36 307.67,-48.2"/>
</g>
<!-- 12382 -->
<g id="node11" class="node">
<title>12382</title>
<path fill="#eb9e66" stroke="black" d="M522,-166.25C522,-166.25 398,-166.25 398,-166.25 392,-166.25 386,-160.25 386,-154.25 386,-154.25 386,-84 386,-84 386,-78 392,-72 398,-72 398,-72 522,-72 522,-72 528,-72 534,-78 534,-84 534,-84 534,-154.25 534,-154.25 534,-160.25 528,-166.25 522,-166.25"/>
<text text-anchor="middle" x="460" y="-148.95" font-family="Helvetica,sans-Serif" font-size="14.00">22_C &lt;= 0.5</text>
<text text-anchor="middle" x="460" y="-131.7" font-family="Helvetica,sans-Serif" font-size="14.00">entropy = 0.693</text>
<text text-anchor="middle" x="460" y="-114.45" font-family="Helvetica,sans-Serif" font-size="14.00">samples = 688</text>
<text text-anchor="middle" x="460" y="-97.2" font-family="Helvetica,sans-Serif" font-size="14.00">value = [881, 201]</text>
<text text-anchor="middle" x="460" y="-79.95" font-family="Helvetica,sans-Serif" font-size="14.00">class = Animal</text>
</g>
<!-- 12381&#45;&gt;12382 -->
<g id="edge10" class="edge">
<title>12381&#45;&gt;12382</title>
<path fill="none" stroke="black" d="M511.76,-202.07C506.42,-193.63 500.81,-184.74 495.32,-176.05"/>
<polygon fill="black" stroke="black" points="498.31,-174.22 490.01,-167.64 492.39,-177.96 498.31,-174.22"/>
</g>
<!-- 12689 -->
<g id="node14" class="node">
<title>12689</title>
<path fill="#f1bd98" stroke="black" d="M688,-166.25C688,-166.25 564,-166.25 564,-166.25 558,-166.25 552,-160.25 552,-154.25 552,-154.25 552,-84 552,-84 552,-78 558,-72 564,-72 564,-72 688,-72 688,-72 694,-72 700,-78 700,-84 700,-84 700,-154.25 700,-154.25 700,-160.25 694,-166.25 688,-166.25"/>
<text text-anchor="middle" x="626" y="-148.95" font-family="Helvetica,sans-Serif" font-size="14.00">24_G &lt;= 0.5</text>
<text text-anchor="middle" x="626" y="-131.7" font-family="Helvetica,sans-Serif" font-size="14.00">entropy = 0.909</text>
<text text-anchor="middle" x="626" y="-114.45" font-family="Helvetica,sans-Serif" font-size="14.00">samples = 305</text>
<text text-anchor="middle" x="626" y="-97.2" font-family="Helvetica,sans-Serif" font-size="14.00">value = [325, 156]</text>
<text text-anchor="middle" x="626" y="-79.95" font-family="Helvetica,sans-Serif" font-size="14.00">class = Animal</text>
</g>
<!-- 12381&#45;&gt;12689 -->
<g id="edge13" class="edge">
<title>12381&#45;&gt;12689</title>
<path fill="none" stroke="black" d="M571.69,-202.07C577.34,-193.54 583.3,-184.54 589.12,-175.77"/>
<polygon fill="black" stroke="black" points="591.91,-177.89 594.52,-167.62 586.08,-174.02 591.91,-177.89"/>
</g>
<!-- 12383 -->
<g id="node12" class="node">
<title>12383</title>
<path fill="#c0c0c0" stroke="black" d="M414,-36C414,-36 384,-36 384,-36 378,-36 372,-30 372,-24 372,-24 372,-12 372,-12 372,-6 378,0 384,0 384,0 414,0 414,0 420,0 426,-6 426,-12 426,-12 426,-24 426,-24 426,-30 420,-36 414,-36"/>
<text text-anchor="middle" x="399" y="-13.32" font-family="Helvetica,sans-Serif" font-size="14.00">(...)</text>
</g>
<!-- 12382&#45;&gt;12383 -->
<g id="edge11" class="edge">
<title>12382&#45;&gt;12383</title>
<path fill="none" stroke="black" d="M431.46,-71.75C425.97,-62.83 420.39,-53.76 415.44,-45.72"/>
<polygon fill="black" stroke="black" points="418.58,-44.14 410.36,-37.46 412.62,-47.81 418.58,-44.14"/>
</g>
<!-- 12600 -->
<g id="node13" class="node">
<title>12600</title>
<path fill="#c0c0c0" stroke="black" d="M486,-36C486,-36 456,-36 456,-36 450,-36 444,-30 444,-24 444,-24 444,-12 444,-12 444,-6 450,0 456,0 456,0 486,0 486,0 492,0 498,-6 498,-12 498,-12 498,-24 498,-24 498,-30 492,-36 486,-36"/>
<text text-anchor="middle" x="471" y="-13.32" font-family="Helvetica,sans-Serif" font-size="14.00">(...)</text>
</g>
<!-- 12382&#45;&gt;12600 -->
<g id="edge12" class="edge">
<title>12382&#45;&gt;12600</title>
<path fill="none" stroke="black" d="M465.15,-71.75C466.06,-63.52 466.99,-55.17 467.82,-47.61"/>
<polygon fill="black" stroke="black" points="471.3,-48 468.93,-37.68 464.35,-47.23 471.3,-48"/>
</g>
<!-- 12690 -->
<g id="node15" class="node">
<title>12690</title>
<path fill="#c0c0c0" stroke="black" d="M584,-36C584,-36 554,-36 554,-36 548,-36 542,-30 542,-24 542,-24 542,-12 542,-12 542,-6 548,0 554,0 554,0 584,0 584,0 590,0 596,-6 596,-12 596,-12 596,-24 596,-24 596,-30 590,-36 584,-36"/>
<text text-anchor="middle" x="569" y="-13.32" font-family="Helvetica,sans-Serif" font-size="14.00">(...)</text>
</g>
<!-- 12689&#45;&gt;12690 -->
<g id="edge14" class="edge">
<title>12689&#45;&gt;12690</title>
<path fill="none" stroke="black" d="M599.34,-71.75C594.26,-62.93 589.1,-53.96 584.52,-45.99"/>
<polygon fill="black" stroke="black" points="587.65,-44.41 579.63,-37.48 581.58,-47.9 587.65,-44.41"/>
</g>
<!-- 12835 -->
<g id="node16" class="node">
<title>12835</title>
<path fill="#c0c0c0" stroke="black" d="M656,-36C656,-36 626,-36 626,-36 620,-36 614,-30 614,-24 614,-24 614,-12 614,-12 614,-6 620,0 626,0 626,0 656,0 656,0 662,0 668,-6 668,-12 668,-12 668,-24 668,-24 668,-30 662,-36 656,-36"/>
<text text-anchor="middle" x="641" y="-13.32" font-family="Helvetica,sans-Serif" font-size="14.00">(...)</text>
</g>
<!-- 12689&#45;&gt;12835 -->
<g id="edge15" class="edge">
<title>12689&#45;&gt;12835</title>
<path fill="none" stroke="black" d="M633.02,-71.75C634.28,-63.42 635.56,-54.97 636.71,-47.34"/>
<polygon fill="black" stroke="black" points="640.14,-48.08 638.17,-37.67 633.22,-47.03 640.14,-48.08"/>
</g>
<!-- 12857 -->
<g id="node18" class="node">
<title>12857</title>
<path fill="#f6d4bb" stroke="black" d="M964,-296.5C964,-296.5 822,-296.5 822,-296.5 816,-296.5 810,-290.5 810,-284.5 810,-284.5 810,-214.25 810,-214.25 810,-208.25 816,-202.25 822,-202.25 822,-202.25 964,-202.25 964,-202.25 970,-202.25 976,-208.25 976,-214.25 976,-214.25 976,-284.5 976,-284.5 976,-290.5 970,-296.5 964,-296.5"/>
<text text-anchor="middle" x="893" y="-279.2" font-family="Helvetica,sans-Serif" font-size="14.00">7_A &lt;= 0.5</text>
<text text-anchor="middle" x="893" y="-261.95" font-family="Helvetica,sans-Serif" font-size="14.00">entropy = 0.969</text>
<text text-anchor="middle" x="893" y="-244.7" font-family="Helvetica,sans-Serif" font-size="14.00">samples = 7052</text>
<text text-anchor="middle" x="893" y="-227.45" font-family="Helvetica,sans-Serif" font-size="14.00">value = [6755, 4440]</text>
<text text-anchor="middle" x="893" y="-210.2" font-family="Helvetica,sans-Serif" font-size="14.00">class = Animal</text>
</g>
<!-- 12856&#45;&gt;12857 -->
<g id="edge17" class="edge">
<title>12856&#45;&gt;12857</title>
<path fill="none" stroke="black" d="M893,-332.32C893,-324.42 893,-316.13 893,-307.98"/>
<polygon fill="black" stroke="black" points="896.5,-308.12 893,-298.12 889.5,-308.12 896.5,-308.12"/>
</g>
<!-- 16062 -->
<g id="node25" class="node">
<title>16062</title>
<path fill="#efb185" stroke="black" d="M1231.5,-296.5C1231.5,-296.5 1098.5,-296.5 1098.5,-296.5 1092.5,-296.5 1086.5,-290.5 1086.5,-284.5 1086.5,-284.5 1086.5,-214.25 1086.5,-214.25 1086.5,-208.25 1092.5,-202.25 1098.5,-202.25 1098.5,-202.25 1231.5,-202.25 1231.5,-202.25 1237.5,-202.25 1243.5,-208.25 1243.5,-214.25 1243.5,-214.25 1243.5,-284.5 1243.5,-284.5 1243.5,-290.5 1237.5,-296.5 1231.5,-296.5"/>
<text text-anchor="middle" x="1165" y="-279.2" font-family="Helvetica,sans-Serif" font-size="14.00">17_C &lt;= 0.5</text>
<text text-anchor="middle" x="1165" y="-261.95" font-family="Helvetica,sans-Serif" font-size="14.00">entropy = 0.852</text>
<text text-anchor="middle" x="1165" y="-244.7" font-family="Helvetica,sans-Serif" font-size="14.00">samples = 2103</text>
<text text-anchor="middle" x="1165" y="-227.45" font-family="Helvetica,sans-Serif" font-size="14.00">value = [2386, 916]</text>
<text text-anchor="middle" x="1165" y="-210.2" font-family="Helvetica,sans-Serif" font-size="14.00">class = Animal</text>
</g>
<!-- 12856&#45;&gt;16062 -->
<g id="edge24" class="edge">
<title>12856&#45;&gt;16062</title>
<path fill="none" stroke="black" d="M976.46,-339.27C1008.02,-324.39 1044.05,-307.4 1076.1,-292.29"/>
<polygon fill="black" stroke="black" points="1077.43,-295.54 1084.98,-288.1 1074.44,-289.2 1077.43,-295.54"/>
</g>
<!-- 12858 -->
<g id="node19" class="node">
<title>12858</title>
<path fill="#f2c19e" stroke="black" d="M872,-166.25C872,-166.25 730,-166.25 730,-166.25 724,-166.25 718,-160.25 718,-154.25 718,-154.25 718,-84 718,-84 718,-78 724,-72 730,-72 730,-72 872,-72 872,-72 878,-72 884,-78 884,-84 884,-84 884,-154.25 884,-154.25 884,-160.25 878,-166.25 872,-166.25"/>
<text text-anchor="middle" x="801" y="-148.95" font-family="Helvetica,sans-Serif" font-size="14.00">11_G &lt;= 0.5</text>
<text text-anchor="middle" x="801" y="-131.7" font-family="Helvetica,sans-Serif" font-size="14.00">entropy = 0.922</text>
<text text-anchor="middle" x="801" y="-114.45" font-family="Helvetica,sans-Serif" font-size="14.00">samples = 4384</text>
<text text-anchor="middle" x="801" y="-97.2" font-family="Helvetica,sans-Serif" font-size="14.00">value = [4594, 2332]</text>
<text text-anchor="middle" x="801" y="-79.95" font-family="Helvetica,sans-Serif" font-size="14.00">class = Animal</text>
</g>
<!-- 12857&#45;&gt;12858 -->
<g id="edge18" class="edge">
<title>12857&#45;&gt;12858</title>
<path fill="none" stroke="black" d="M859.79,-202.07C853.6,-193.45 847.07,-184.35 840.71,-175.49"/>
<polygon fill="black" stroke="black" points="843.72,-173.67 835.05,-167.59 838.03,-177.75 843.72,-173.67"/>
</g>
<!-- 15177 -->
<g id="node22" class="node">
<title>15177</title>
<path fill="#fefcfa" stroke="black" d="M1056,-166.25C1056,-166.25 914,-166.25 914,-166.25 908,-166.25 902,-160.25 902,-154.25 902,-154.25 902,-84 902,-84 902,-78 908,-72 914,-72 914,-72 1056,-72 1056,-72 1062,-72 1068,-78 1068,-84 1068,-84 1068,-154.25 1068,-154.25 1068,-160.25 1062,-166.25 1056,-166.25"/>
<text text-anchor="middle" x="985" y="-148.95" font-family="Helvetica,sans-Serif" font-size="14.00">5_C &lt;= 0.5</text>
<text text-anchor="middle" x="985" y="-131.7" font-family="Helvetica,sans-Serif" font-size="14.00">entropy = 1.0</text>
<text text-anchor="middle" x="985" y="-114.45" font-family="Helvetica,sans-Serif" font-size="14.00">samples = 2668</text>
<text text-anchor="middle" x="985" y="-97.2" font-family="Helvetica,sans-Serif" font-size="14.00">value = [2161, 2108]</text>
<text text-anchor="middle" x="985" y="-79.95" font-family="Helvetica,sans-Serif" font-size="14.00">class = Animal</text>
</g>
<!-- 12857&#45;&gt;15177 -->
<g id="edge21" class="edge">
<title>12857&#45;&gt;15177</title>
<path fill="none" stroke="black" d="M926.21,-202.07C932.4,-193.45 938.93,-184.35 945.29,-175.49"/>
<polygon fill="black" stroke="black" points="947.97,-177.75 950.95,-167.59 942.28,-173.67 947.97,-177.75"/>
</g>
<!-- 12859 -->
<g id="node20" class="node">
<title>12859</title>
<path fill="#c0c0c0" stroke="black" d="M764,-36C764,-36 734,-36 734,-36 728,-36 722,-30 722,-24 722,-24 722,-12 722,-12 722,-6 728,0 734,0 734,0 764,0 764,0 770,0 776,-6 776,-12 776,-12 776,-24 776,-24 776,-30 770,-36 764,-36"/>
<text text-anchor="middle" x="749" y="-13.32" font-family="Helvetica,sans-Serif" font-size="14.00">(...)</text>
</g>
<!-- 12858&#45;&gt;12859 -->
<g id="edge19" class="edge">
<title>12858&#45;&gt;12859</title>
<path fill="none" stroke="black" d="M776.67,-71.75C772.1,-63.03 767.45,-54.16 763.3,-46.26"/>
<polygon fill="black" stroke="black" points="766.46,-44.74 758.71,-37.51 760.26,-47.99 766.46,-44.74"/>
</g>
<!-- 14622 -->
<g id="node21" class="node">
<title>14622</title>
<path fill="#c0c0c0" stroke="black" d="M836,-36C836,-36 806,-36 806,-36 800,-36 794,-30 794,-24 794,-24 794,-12 794,-12 794,-6 800,0 806,0 806,0 836,0 836,0 842,0 848,-6 848,-12 848,-12 848,-24 848,-24 848,-30 842,-36 836,-36"/>
<text text-anchor="middle" x="821" y="-13.32" font-family="Helvetica,sans-Serif" font-size="14.00">(...)</text>
</g>
<!-- 12858&#45;&gt;14622 -->
<g id="edge20" class="edge">
<title>12858&#45;&gt;14622</title>
<path fill="none" stroke="black" d="M810.36,-71.75C812.04,-63.42 813.74,-54.97 815.28,-47.34"/>
<polygon fill="black" stroke="black" points="818.69,-48.15 817.24,-37.66 811.83,-46.77 818.69,-48.15"/>
</g>
<!-- 15178 -->
<g id="node23" class="node">
<title>15178</title>
<path fill="#c0c0c0" stroke="black" d="M946,-36C946,-36 916,-36 916,-36 910,-36 904,-30 904,-24 904,-24 904,-12 904,-12 904,-6 910,0 916,0 916,0 946,0 946,0 952,0 958,-6 958,-12 958,-12 958,-24 958,-24 958,-30 952,-36 946,-36"/>
<text text-anchor="middle" x="931" y="-13.32" font-family="Helvetica,sans-Serif" font-size="14.00">(...)</text>
</g>
<!-- 15177&#45;&gt;15178 -->
<g id="edge22" class="edge">
<title>15177&#45;&gt;15178</title>
<path fill="none" stroke="black" d="M959.74,-71.75C954.98,-63.03 950.16,-54.16 945.85,-46.26"/>
<polygon fill="black" stroke="black" points="948.94,-44.61 941.08,-37.5 942.79,-47.96 948.94,-44.61"/>
</g>
<!-- 15897 -->
<g id="node24" class="node">
<title>15897</title>
<path fill="#c0c0c0" stroke="black" d="M1018,-36C1018,-36 988,-36 988,-36 982,-36 976,-30 976,-24 976,-24 976,-12 976,-12 976,-6 982,0 988,0 988,0 1018,0 1018,0 1024,0 1030,-6 1030,-12 1030,-12 1030,-24 1030,-24 1030,-30 1024,-36 1018,-36"/>
<text text-anchor="middle" x="1003" y="-13.32" font-family="Helvetica,sans-Serif" font-size="14.00">(...)</text>
</g>
<!-- 15177&#45;&gt;15897 -->
<g id="edge23" class="edge">
<title>15177&#45;&gt;15897</title>
<path fill="none" stroke="black" d="M993.42,-71.75C994.93,-63.42 996.47,-54.97 997.85,-47.34"/>
<polygon fill="black" stroke="black" points="1001.27,-48.13 999.61,-37.66 994.38,-46.88 1001.27,-48.13"/>
</g>
<!-- 16063 -->
<g id="node26" class="node">
<title>16063</title>
<path fill="#f1bd97" stroke="black" d="M1231.5,-166.25C1231.5,-166.25 1098.5,-166.25 1098.5,-166.25 1092.5,-166.25 1086.5,-160.25 1086.5,-154.25 1086.5,-154.25 1086.5,-84 1086.5,-84 1086.5,-78 1092.5,-72 1098.5,-72 1098.5,-72 1231.5,-72 1231.5,-72 1237.5,-72 1243.5,-78 1243.5,-84 1243.5,-84 1243.5,-154.25 1243.5,-154.25 1243.5,-160.25 1237.5,-166.25 1231.5,-166.25"/>
<text text-anchor="middle" x="1165" y="-148.95" font-family="Helvetica,sans-Serif" font-size="14.00">15_A &lt;= 0.5</text>
<text text-anchor="middle" x="1165" y="-131.7" font-family="Helvetica,sans-Serif" font-size="14.00">entropy = 0.906</text>
<text text-anchor="middle" x="1165" y="-114.45" font-family="Helvetica,sans-Serif" font-size="14.00">samples = 1369</text>
<text text-anchor="middle" x="1165" y="-97.2" font-family="Helvetica,sans-Serif" font-size="14.00">value = [1455, 690]</text>
<text text-anchor="middle" x="1165" y="-79.95" font-family="Helvetica,sans-Serif" font-size="14.00">class = Animal</text>
</g>
<!-- 16062&#45;&gt;16063 -->
<g id="edge25" class="edge">
<title>16062&#45;&gt;16063</title>
<path fill="none" stroke="black" d="M1165,-202.07C1165,-194.17 1165,-185.88 1165,-177.73"/>
<polygon fill="black" stroke="black" points="1168.5,-177.87 1165,-167.87 1161.5,-177.87 1168.5,-177.87"/>
</g>
<!-- 16768 -->
<g id="node29" class="node">
<title>16768</title>
<path fill="#eba069" stroke="black" d="M1398,-166.25C1398,-166.25 1274,-166.25 1274,-166.25 1268,-166.25 1262,-160.25 1262,-154.25 1262,-154.25 1262,-84 1262,-84 1262,-78 1268,-72 1274,-72 1274,-72 1398,-72 1398,-72 1404,-72 1410,-78 1410,-84 1410,-84 1410,-154.25 1410,-154.25 1410,-160.25 1404,-166.25 1398,-166.25"/>
<text text-anchor="middle" x="1336" y="-148.95" font-family="Helvetica,sans-Serif" font-size="14.00">13_A &lt;= 0.5</text>
<text text-anchor="middle" x="1336" y="-131.7" font-family="Helvetica,sans-Serif" font-size="14.00">entropy = 0.712</text>
<text text-anchor="middle" x="1336" y="-114.45" font-family="Helvetica,sans-Serif" font-size="14.00">samples = 734</text>
<text text-anchor="middle" x="1336" y="-97.2" font-family="Helvetica,sans-Serif" font-size="14.00">value = [931, 226]</text>
<text text-anchor="middle" x="1336" y="-79.95" font-family="Helvetica,sans-Serif" font-size="14.00">class = Animal</text>
</g>
<!-- 16062&#45;&gt;16768 -->
<g id="edge28" class="edge">
<title>16062&#45;&gt;16768</title>
<path fill="none" stroke="black" d="M1226.73,-202.07C1239.13,-192.78 1252.25,-182.94 1264.93,-173.43"/>
<polygon fill="black" stroke="black" points="1266.96,-176.28 1272.86,-167.48 1262.76,-170.68 1266.96,-176.28"/>
</g>
<!-- 16064 -->
<g id="node27" class="node">
<title>16064</title>
<path fill="#c0c0c0" stroke="black" d="M1139,-36C1139,-36 1109,-36 1109,-36 1103,-36 1097,-30 1097,-24 1097,-24 1097,-12 1097,-12 1097,-6 1103,0 1109,0 1109,0 1139,0 1139,0 1145,0 1151,-6 1151,-12 1151,-12 1151,-24 1151,-24 1151,-30 1145,-36 1139,-36"/>
<text text-anchor="middle" x="1124" y="-13.32" font-family="Helvetica,sans-Serif" font-size="14.00">(...)</text>
</g>
<!-- 16063&#45;&gt;16064 -->
<g id="edge26" class="edge">
<title>16063&#45;&gt;16064</title>
<path fill="none" stroke="black" d="M1145.82,-71.75C1142.29,-63.22 1138.71,-54.57 1135.5,-46.8"/>
<polygon fill="black" stroke="black" points="1138.74,-45.47 1131.68,-37.57 1132.27,-48.15 1138.74,-45.47"/>
</g>
<!-- 16627 -->
<g id="node28" class="node">
<title>16627</title>
<path fill="#c0c0c0" stroke="black" d="M1211,-36C1211,-36 1181,-36 1181,-36 1175,-36 1169,-30 1169,-24 1169,-24 1169,-12 1169,-12 1169,-6 1175,0 1181,0 1181,0 1211,0 1211,0 1217,0 1223,-6 1223,-12 1223,-12 1223,-24 1223,-24 1223,-30 1217,-36 1211,-36"/>
<text text-anchor="middle" x="1196" y="-13.32" font-family="Helvetica,sans-Serif" font-size="14.00">(...)</text>
</g>
<!-- 16063&#45;&gt;16627 -->
<g id="edge27" class="edge">
<title>16063&#45;&gt;16627</title>
<path fill="none" stroke="black" d="M1179.5,-71.75C1182.14,-63.32 1184.81,-54.77 1187.22,-47.07"/>
<polygon fill="black" stroke="black" points="1190.53,-48.21 1190.18,-37.62 1183.85,-46.12 1190.53,-48.21"/>
</g>
<!-- 16769 -->
<g id="node30" class="node">
<title>16769</title>
<path fill="#c0c0c0" stroke="black" d="M1315,-36C1315,-36 1285,-36 1285,-36 1279,-36 1273,-30 1273,-24 1273,-24 1273,-12 1273,-12 1273,-6 1279,0 1285,0 1285,0 1315,0 1315,0 1321,0 1327,-6 1327,-12 1327,-12 1327,-24 1327,-24 1327,-30 1321,-36 1315,-36"/>
<text text-anchor="middle" x="1300" y="-13.32" font-family="Helvetica,sans-Serif" font-size="14.00">(...)</text>
</g>
<!-- 16768&#45;&gt;16769 -->
<g id="edge29" class="edge">
<title>16768&#45;&gt;16769</title>
<path fill="none" stroke="black" d="M1319.16,-71.75C1316.06,-63.22 1312.92,-54.57 1310.1,-46.8"/>
<polygon fill="black" stroke="black" points="1313.46,-45.8 1306.75,-37.6 1306.88,-48.19 1313.46,-45.8"/>
</g>
<!-- 16926 -->
<g id="node31" class="node">
<title>16926</title>
<path fill="#c0c0c0" stroke="black" d="M1387,-36C1387,-36 1357,-36 1357,-36 1351,-36 1345,-30 1345,-24 1345,-24 1345,-12 1345,-12 1345,-6 1351,0 1357,0 1357,0 1387,0 1387,0 1393,0 1399,-6 1399,-12 1399,-12 1399,-24 1399,-24 1399,-30 1393,-36 1387,-36"/>
<text text-anchor="middle" x="1372" y="-13.32" font-family="Helvetica,sans-Serif" font-size="14.00">(...)</text>
</g>
<!-- 16768&#45;&gt;16926 -->
<g id="edge30" class="edge">
<title>16768&#45;&gt;16926</title>
<path fill="none" stroke="black" d="M1352.84,-71.75C1355.94,-63.22 1359.08,-54.57 1361.9,-46.8"/>
<polygon fill="black" stroke="black" points="1365.12,-48.19 1365.25,-37.6 1358.54,-45.8 1365.12,-48.19"/>
</g>
</g>
</svg>
