<?xml version="1.0" encoding="UTF-8" standalone="no"?>
<!DOCTYPE svg PUBLIC "-//W3C//DTD SVG 1.1//EN"
 "http://www.w3.org/Graphics/SVG/1.1/DTD/svg11.dtd">
<!-- Generated by graphviz version 12.0.0 (20240803.0821)
 -->
<!-- Title: Tree Pages: 1 -->
<svg width="1445pt" height="565pt"
 viewBox="0.00 0.00 1445.00 565.00" xmlns="http://www.w3.org/2000/svg" xmlns:xlink="http://www.w3.org/1999/xlink">
<g id="graph0" class="graph" transform="scale(1 1) rotate(0) translate(4 561)">
<title>Tree</title>
<polygon fill="white" stroke="none" points="-4,4 -4,-561 1441,-561 1441,4 -4,4"/>
<!-- 0 -->
<g id="node1" class="node">
<title>0</title>
<path fill="#ffffff" stroke="black" d="M790.5,-557C790.5,-557 630.5,-557 630.5,-557 624.5,-557 618.5,-551 618.5,-545 618.5,-545 618.5,-474.75 618.5,-474.75 618.5,-468.75 624.5,-462.75 630.5,-462.75 630.5,-462.75 790.5,-462.75 790.5,-462.75 796.5,-462.75 802.5,-468.75 802.5,-474.75 802.5,-474.75 802.5,-545 802.5,-545 802.5,-551 796.5,-557 790.5,-557"/>
<text text-anchor="middle" x="710.5" y="-539.7" font-family="Helvetica,sans-Serif" font-size="14.00">8_G &lt;= 0.5</text>
<text text-anchor="middle" x="710.5" y="-522.45" font-family="Helvetica,sans-Serif" font-size="14.00">entropy = 1.0</text>
<text text-anchor="middle" x="710.5" y="-505.2" font-family="Helvetica,sans-Serif" font-size="14.00">samples = 38140</text>
<text text-anchor="middle" x="710.5" y="-487.95" font-family="Helvetica,sans-Serif" font-size="14.00">value = [30163, 30182]</text>
<text text-anchor="middle" x="710.5" y="-470.7" font-family="Helvetica,sans-Serif" font-size="14.00">class = Plant</text>
</g>
<!-- 1 -->
<g id="node2" class="node">
<title>1</title>
<path fill="#fae7d9" stroke="black" d="M620.5,-426.75C620.5,-426.75 460.5,-426.75 460.5,-426.75 454.5,-426.75 448.5,-420.75 448.5,-414.75 448.5,-414.75 448.5,-344.5 448.5,-344.5 448.5,-338.5 454.5,-332.5 460.5,-332.5 460.5,-332.5 620.5,-332.5 620.5,-332.5 626.5,-332.5 632.5,-338.5 632.5,-344.5 632.5,-344.5 632.5,-414.75 632.5,-414.75 632.5,-420.75 626.5,-426.75 620.5,-426.75"/>
<text text-anchor="middle" x="540.5" y="-409.45" font-family="Helvetica,sans-Serif" font-size="14.00">23_U &lt;= 0.5</text>
<text text-anchor="middle" x="540.5" y="-392.2" font-family="Helvetica,sans-Serif" font-size="14.00">entropy = 0.992</text>
<text text-anchor="middle" x="540.5" y="-374.95" font-family="Helvetica,sans-Serif" font-size="14.00">samples = 26292</text>
<text text-anchor="middle" x="540.5" y="-357.7" font-family="Helvetica,sans-Serif" font-size="14.00">value = [23022, 18634]</text>
<text text-anchor="middle" x="540.5" y="-340.45" font-family="Helvetica,sans-Serif" font-size="14.00">class = Animal</text>
</g>
<!-- 0&#45;&gt;1 -->
<g id="edge1" class="edge">
<title>0&#45;&gt;1</title>
<path fill="none" stroke="black" d="M649.13,-462.57C636.8,-453.28 623.76,-443.44 611.16,-433.93"/>
<polygon fill="black" stroke="black" points="613.37,-431.21 603.28,-427.99 609.15,-436.8 613.37,-431.21"/>
<text text-anchor="middle" x="605.53" y="-447.16" font-family="Helvetica,sans-Serif" font-size="14.00">True</text>
</g>
<!-- 12100 -->
<g id="node17" class="node">
<title>12100</title>
<path fill="#b3daf5" stroke="black" d="M978,-426.75C978,-426.75 827,-426.75 827,-426.75 821,-426.75 815,-420.75 815,-414.75 815,-414.75 815,-344.5 815,-344.5 815,-338.5 821,-332.5 827,-332.5 827,-332.5 978,-332.5 978,-332.5 984,-332.5 990,-338.5 990,-344.5 990,-344.5 990,-414.75 990,-414.75 990,-420.75 984,-426.75 978,-426.75"/>
<text text-anchor="middle" x="902.5" y="-409.45" font-family="Helvetica,sans-Serif" font-size="14.00">19_C &lt;= 0.5</text>
<text text-anchor="middle" x="902.5" y="-392.2" font-family="Helvetica,sans-Serif" font-size="14.00">entropy = 0.96</text>
<text text-anchor="middle" x="902.5" y="-374.95" font-family="Helvetica,sans-Serif" font-size="14.00">samples = 11848</text>
<text text-anchor="middle" x="902.5" y="-357.7" font-family="Helvetica,sans-Serif" font-size="14.00">value = [7141, 11548]</text>
<text text-anchor="middle" x="902.5" y="-340.45" font-family="Helvetica,sans-Serif" font-size="14.00">class = Plant</text>
</g>
<!-- 0&#45;&gt;12100 -->
<g id="edge16" class="edge">
<title>0&#45;&gt;12100</title>
<path fill="none" stroke="black" d="M780.09,-462.39C794.17,-452.98 809.08,-443.03 823.47,-433.42"/>
<polygon fill="black" stroke="black" points="825.2,-436.47 831.57,-428 821.31,-430.65 825.2,-436.47"/>
<text text-anchor="middle" x="827.95" y="-447.01" font-family="Helvetica,sans-Serif" font-size="14.00">False</text>
</g>
<!-- 2 -->
<g id="node3" class="node">
<title>2</title>
<path fill="#fcefe6" stroke="black" d="M360.5,-296.5C360.5,-296.5 200.5,-296.5 200.5,-296.5 194.5,-296.5 188.5,-290.5 188.5,-284.5 188.5,-284.5 188.5,-214.25 188.5,-214.25 188.5,-208.25 194.5,-202.25 200.5,-202.25 200.5,-202.25 360.5,-202.25 360.5,-202.25 366.5,-202.25 372.5,-208.25 372.5,-214.25 372.5,-214.25 372.5,-284.5 372.5,-284.5 372.5,-290.5 366.5,-296.5 360.5,-296.5"/>
<text text-anchor="middle" x="280.5" y="-279.2" font-family="Helvetica,sans-Serif" font-size="14.00">1_U &lt;= 0.5</text>
<text text-anchor="middle" x="280.5" y="-261.95" font-family="Helvetica,sans-Serif" font-size="14.00">entropy = 0.997</text>
<text text-anchor="middle" x="280.5" y="-244.7" font-family="Helvetica,sans-Serif" font-size="14.00">samples = 24813</text>
<text text-anchor="middle" x="280.5" y="-227.45" font-family="Helvetica,sans-Serif" font-size="14.00">value = [20984, 18294]</text>
<text text-anchor="middle" x="280.5" y="-210.2" font-family="Helvetica,sans-Serif" font-size="14.00">class = Animal</text>
</g>
<!-- 1&#45;&gt;2 -->
<g id="edge2" class="edge">
<title>1&#45;&gt;2</title>
<path fill="none" stroke="black" d="M448.1,-333.05C426.93,-322.61 404.31,-311.45 382.75,-300.81"/>
<polygon fill="black" stroke="black" points="384.47,-297.76 373.96,-296.48 381.38,-304.04 384.47,-297.76"/>
</g>
<!-- 11557 -->
<g id="node10" class="node">
<title>11557</title>
<path fill="#e9965a" stroke="black" d="M607,-296.5C607,-296.5 474,-296.5 474,-296.5 468,-296.5 462,-290.5 462,-284.5 462,-284.5 462,-214.25 462,-214.25 462,-208.25 468,-202.25 474,-202.25 474,-202.25 607,-202.25 607,-202.25 613,-202.25 619,-208.25 619,-214.25 619,-214.25 619,-284.5 619,-284.5 619,-290.5 613,-296.5 607,-296.5"/>
<text text-anchor="middle" x="540.5" y="-279.2" font-family="Helvetica,sans-Serif" font-size="14.00">6_C &lt;= 0.5</text>
<text text-anchor="middle" x="540.5" y="-261.95" font-family="Helvetica,sans-Serif" font-size="14.00">entropy = 0.592</text>
<text text-anchor="middle" x="540.5" y="-244.7" font-family="Helvetica,sans-Serif" font-size="14.00">samples = 1479</text>
<text text-anchor="middle" x="540.5" y="-227.45" font-family="Helvetica,sans-Serif" font-size="14.00">value = [2038, 340]</text>
<text text-anchor="middle" x="540.5" y="-210.2" font-family="Helvetica,sans-Serif" font-size="14.00">class = Animal</text>
</g>
<!-- 1&#45;&gt;11557 -->
<g id="edge9" class="edge">
<title>1&#45;&gt;11557</title>
<path fill="none" stroke="black" d="M540.5,-332.32C540.5,-324.42 540.5,-316.13 540.5,-307.98"/>
<polygon fill="black" stroke="black" points="544,-308.12 540.5,-298.12 537,-308.12 544,-308.12"/>
</g>
<!-- 3 -->
<g id="node4" class="node">
<title>3</title>
<path fill="#f6d3ba" stroke="black" d="M163,-166.25C163,-166.25 12,-166.25 12,-166.25 6,-166.25 0,-160.25 0,-154.25 0,-154.25 0,-84 0,-84 0,-78 6,-72 12,-72 12,-72 163,-72 163,-72 169,-72 175,-78 175,-84 175,-84 175,-154.25 175,-154.25 175,-160.25 169,-166.25 163,-166.25"/>
<text text-anchor="middle" x="87.5" y="-148.95" font-family="Helvetica,sans-Serif" font-size="14.00">22_U &lt;= 0.5</text>
<text text-anchor="middle" x="87.5" y="-131.7" font-family="Helvetica,sans-Serif" font-size="14.00">entropy = 0.968</text>
<text text-anchor="middle" x="87.5" y="-114.45" font-family="Helvetica,sans-Serif" font-size="14.00">samples = 12109</text>
<text text-anchor="middle" x="87.5" y="-97.2" font-family="Helvetica,sans-Serif" font-size="14.00">value = [11656, 7614]</text>
<text text-anchor="middle" x="87.5" y="-79.95" font-family="Helvetica,sans-Serif" font-size="14.00">class = Animal</text>
</g>
<!-- 2&#45;&gt;3 -->
<g id="edge3" class="edge">
<title>2&#45;&gt;3</title>
<path fill="none" stroke="black" d="M210.55,-201.89C196.39,-192.48 181.4,-182.53 166.95,-172.92"/>
<polygon fill="black" stroke="black" points="169.06,-170.12 158.8,-167.5 165.19,-175.95 169.06,-170.12"/>
</g>
<!-- 6698 -->
<g id="node7" class="node">
<title>6698</title>
<path fill="#e6f3fc" stroke="black" d="M356,-166.25C356,-166.25 205,-166.25 205,-166.25 199,-166.25 193,-160.25 193,-154.25 193,-154.25 193,-84 193,-84 193,-78 199,-72 205,-72 205,-72 356,-72 356,-72 362,-72 368,-78 368,-84 368,-84 368,-154.25 368,-154.25 368,-160.25 362,-166.25 356,-166.25"/>
<text text-anchor="middle" x="280.5" y="-148.95" font-family="Helvetica,sans-Serif" font-size="14.00">22_A &lt;= 0.5</text>
<text text-anchor="middle" x="280.5" y="-131.7" font-family="Helvetica,sans-Serif" font-size="14.00">entropy = 0.997</text>
<text text-anchor="middle" x="280.5" y="-114.45" font-family="Helvetica,sans-Serif" font-size="14.00">samples = 12704</text>
<text text-anchor="middle" x="280.5" y="-97.2" font-family="Helvetica,sans-Serif" font-size="14.00">value = [9328, 10680]</text>
<text text-anchor="middle" x="280.5" y="-79.95" font-family="Helvetica,sans-Serif" font-size="14.00">class = Plant</text>
</g>
<!-- 2&#45;&gt;6698 -->
<g id="edge6" class="edge">
<title>2&#45;&gt;6698</title>
<path fill="none" stroke="black" d="M280.5,-202.07C280.5,-194.17 280.5,-185.88 280.5,-177.73"/>
<polygon fill="black" stroke="black" points="284,-177.87 280.5,-167.87 277,-177.87 284,-177.87"/>
</g>
<!-- 4 -->
<g id="node5" class="node">
<title>4</title>
<path fill="#c0c0c0" stroke="black" d="M66.5,-36C66.5,-36 36.5,-36 36.5,-36 30.5,-36 24.5,-30 24.5,-24 24.5,-24 24.5,-12 24.5,-12 24.5,-6 30.5,0 36.5,0 36.5,0 66.5,0 66.5,0 72.5,0 78.5,-6 78.5,-12 78.5,-12 78.5,-24 78.5,-24 78.5,-30 72.5,-36 66.5,-36"/>
<text text-anchor="middle" x="51.5" y="-13.32" font-family="Helvetica,sans-Serif" font-size="14.00">(...)</text>
</g>
<!-- 3&#45;&gt;4 -->
<g id="edge4" class="edge">
<title>3&#45;&gt;4</title>
<path fill="none" stroke="black" d="M70.66,-71.75C67.56,-63.22 64.42,-54.57 61.6,-46.8"/>
<polygon fill="black" stroke="black" points="64.96,-45.8 58.25,-37.6 58.38,-48.19 64.96,-45.8"/>
</g>
<!-- 6005 -->
<g id="node6" class="node">
<title>6005</title>
<path fill="#c0c0c0" stroke="black" d="M138.5,-36C138.5,-36 108.5,-36 108.5,-36 102.5,-36 96.5,-30 96.5,-24 96.5,-24 96.5,-12 96.5,-12 96.5,-6 102.5,0 108.5,0 108.5,0 138.5,0 138.5,0 144.5,0 150.5,-6 150.5,-12 150.5,-12 150.5,-24 150.5,-24 150.5,-30 144.5,-36 138.5,-36"/>
<text text-anchor="middle" x="123.5" y="-13.32" font-family="Helvetica,sans-Serif" font-size="14.00">(...)</text>
</g>
<!-- 3&#45;&gt;6005 -->
<g id="edge5" class="edge">
<title>3&#45;&gt;6005</title>
<path fill="none" stroke="black" d="M104.34,-71.75C107.44,-63.22 110.58,-54.57 113.4,-46.8"/>
<polygon fill="black" stroke="black" points="116.62,-48.19 116.75,-37.6 110.04,-45.8 116.62,-48.19"/>
</g>
<!-- 6699 -->
<g id="node8" class="node">
<title>6699</title>
<path fill="#c0c0c0" stroke="black" d="M256.5,-36C256.5,-36 226.5,-36 226.5,-36 220.5,-36 214.5,-30 214.5,-24 214.5,-24 214.5,-12 214.5,-12 214.5,-6 220.5,0 226.5,0 226.5,0 256.5,0 256.5,0 262.5,0 268.5,-6 268.5,-12 268.5,-12 268.5,-24 268.5,-24 268.5,-30 262.5,-36 256.5,-36"/>
<text text-anchor="middle" x="241.5" y="-13.32" font-family="Helvetica,sans-Serif" font-size="14.00">(...)</text>
</g>
<!-- 6698&#45;&gt;6699 -->
<g id="edge7" class="edge">
<title>6698&#45;&gt;6699</title>
<path fill="none" stroke="black" d="M262.26,-71.75C258.9,-63.22 255.49,-54.57 252.44,-46.8"/>
<polygon fill="black" stroke="black" points="255.73,-45.61 248.81,-37.58 249.21,-48.17 255.73,-45.61"/>
</g>
<!-- 10962 -->
<g id="node9" class="node">
<title>10962</title>
<path fill="#c0c0c0" stroke="black" d="M328.5,-36C328.5,-36 298.5,-36 298.5,-36 292.5,-36 286.5,-30 286.5,-24 286.5,-24 286.5,-12 286.5,-12 286.5,-6 292.5,0 298.5,0 298.5,0 328.5,0 328.5,0 334.5,0 340.5,-6 340.5,-12 340.5,-12 340.5,-24 340.5,-24 340.5,-30 334.5,-36 328.5,-36"/>
<text text-anchor="middle" x="313.5" y="-13.32" font-family="Helvetica,sans-Serif" font-size="14.00">(...)</text>
</g>
<!-- 6698&#45;&gt;10962 -->
<g id="edge8" class="edge">
<title>6698&#45;&gt;10962</title>
<path fill="none" stroke="black" d="M295.94,-71.75C298.74,-63.32 301.59,-54.77 304.16,-47.07"/>
<polygon fill="black" stroke="black" points="307.47,-48.2 307.3,-37.61 300.83,-45.99 307.47,-48.2"/>
</g>
<!-- 11558 -->
<g id="node11" class="node">
<title>11558</title>
<path fill="#e99355" stroke="black" d="M531,-166.25C531,-166.25 398,-166.25 398,-166.25 392,-166.25 386,-160.25 386,-154.25 386,-154.25 386,-84 386,-84 386,-78 392,-72 398,-72 398,-72 531,-72 531,-72 537,-72 543,-78 543,-84 543,-84 543,-154.25 543,-154.25 543,-160.25 537,-166.25 531,-166.25"/>
<text text-anchor="middle" x="464.5" y="-148.95" font-family="Helvetica,sans-Serif" font-size="14.00">17_G &lt;= 0.5</text>
<text text-anchor="middle" x="464.5" y="-131.7" font-family="Helvetica,sans-Serif" font-size="14.00">entropy = 0.538</text>
<text text-anchor="middle" x="464.5" y="-114.45" font-family="Helvetica,sans-Serif" font-size="14.00">samples = 1163</text>
<text text-anchor="middle" x="464.5" y="-97.2" font-family="Helvetica,sans-Serif" font-size="14.00">value = [1609, 226]</text>
<text text-anchor="middle" x="464.5" y="-79.95" font-family="Helvetica,sans-Serif" font-size="14.00">class = Animal</text>
</g>
<!-- 11557&#45;&gt;11558 -->
<g id="edge10" class="edge">
<title>11557&#45;&gt;11558</title>
<path fill="none" stroke="black" d="M513.06,-202.07C508.06,-193.63 502.79,-184.74 497.64,-176.05"/>
<polygon fill="black" stroke="black" points="500.78,-174.48 492.67,-167.66 494.76,-178.05 500.78,-174.48"/>
</g>
<!-- 11951 -->
<g id="node14" class="node">
<title>11951</title>
<path fill="#eca26e" stroke="black" d="M697.5,-166.25C697.5,-166.25 573.5,-166.25 573.5,-166.25 567.5,-166.25 561.5,-160.25 561.5,-154.25 561.5,-154.25 561.5,-84 561.5,-84 561.5,-78 567.5,-72 573.5,-72 573.5,-72 697.5,-72 697.5,-72 703.5,-72 709.5,-78 709.5,-84 709.5,-84 709.5,-154.25 709.5,-154.25 709.5,-160.25 703.5,-166.25 697.5,-166.25"/>
<text text-anchor="middle" x="635.5" y="-148.95" font-family="Helvetica,sans-Serif" font-size="14.00">15_A &lt;= 0.5</text>
<text text-anchor="middle" x="635.5" y="-131.7" font-family="Helvetica,sans-Serif" font-size="14.00">entropy = 0.741</text>
<text text-anchor="middle" x="635.5" y="-114.45" font-family="Helvetica,sans-Serif" font-size="14.00">samples = 316</text>
<text text-anchor="middle" x="635.5" y="-97.2" font-family="Helvetica,sans-Serif" font-size="14.00">value = [429, 114]</text>
<text text-anchor="middle" x="635.5" y="-79.95" font-family="Helvetica,sans-Serif" font-size="14.00">class = Animal</text>
</g>
<!-- 11557&#45;&gt;11951 -->
<g id="edge13" class="edge">
<title>11557&#45;&gt;11951</title>
<path fill="none" stroke="black" d="M574.8,-202.07C581.19,-193.45 587.92,-184.35 594.49,-175.49"/>
<polygon fill="black" stroke="black" points="597.21,-177.69 600.35,-167.57 591.59,-173.53 597.21,-177.69"/>
</g>
<!-- 11559 -->
<g id="node12" class="node">
<title>11559</title>
<path fill="#c0c0c0" stroke="black" d="M420.5,-36C420.5,-36 390.5,-36 390.5,-36 384.5,-36 378.5,-30 378.5,-24 378.5,-24 378.5,-12 378.5,-12 378.5,-6 384.5,0 390.5,0 390.5,0 420.5,0 420.5,0 426.5,0 432.5,-6 432.5,-12 432.5,-12 432.5,-24 432.5,-24 432.5,-30 426.5,-36 420.5,-36"/>
<text text-anchor="middle" x="405.5" y="-13.32" font-family="Helvetica,sans-Serif" font-size="14.00">(...)</text>
</g>
<!-- 11558&#45;&gt;11559 -->
<g id="edge11" class="edge">
<title>11558&#45;&gt;11559</title>
<path fill="none" stroke="black" d="M436.9,-71.75C431.65,-62.93 426.31,-53.96 421.56,-45.99"/>
<polygon fill="black" stroke="black" points="424.62,-44.28 416.5,-37.47 418.6,-47.86 424.62,-44.28"/>
</g>
<!-- 11828 -->
<g id="node13" class="node">
<title>11828</title>
<path fill="#c0c0c0" stroke="black" d="M492.5,-36C492.5,-36 462.5,-36 462.5,-36 456.5,-36 450.5,-30 450.5,-24 450.5,-24 450.5,-12 450.5,-12 450.5,-6 456.5,0 462.5,0 462.5,0 492.5,0 492.5,0 498.5,0 504.5,-6 504.5,-12 504.5,-12 504.5,-24 504.5,-24 504.5,-30 498.5,-36 492.5,-36"/>
<text text-anchor="middle" x="477.5" y="-13.32" font-family="Helvetica,sans-Serif" font-size="14.00">(...)</text>
</g>
<!-- 11558&#45;&gt;11828 -->
<g id="edge12" class="edge">
<title>11558&#45;&gt;11828</title>
<path fill="none" stroke="black" d="M470.58,-71.75C471.67,-63.42 472.78,-54.97 473.78,-47.34"/>
<polygon fill="black" stroke="black" points="477.22,-48.04 475.05,-37.67 470.28,-47.13 477.22,-48.04"/>
</g>
<!-- 11952 -->
<g id="node15" class="node">
<title>11952</title>
<path fill="#c0c0c0" stroke="black" d="M593.5,-36C593.5,-36 563.5,-36 563.5,-36 557.5,-36 551.5,-30 551.5,-24 551.5,-24 551.5,-12 551.5,-12 551.5,-6 557.5,0 563.5,0 563.5,0 593.5,0 593.5,0 599.5,0 605.5,-6 605.5,-12 605.5,-12 605.5,-24 605.5,-24 605.5,-30 599.5,-36 593.5,-36"/>
<text text-anchor="middle" x="578.5" y="-13.32" font-family="Helvetica,sans-Serif" font-size="14.00">(...)</text>
</g>
<!-- 11951&#45;&gt;11952 -->
<g id="edge14" class="edge">
<title>11951&#45;&gt;11952</title>
<path fill="none" stroke="black" d="M608.84,-71.75C603.76,-62.93 598.6,-53.96 594.02,-45.99"/>
<polygon fill="black" stroke="black" points="597.15,-44.41 589.13,-37.48 591.08,-47.9 597.15,-44.41"/>
</g>
<!-- 12063 -->
<g id="node16" class="node">
<title>12063</title>
<path fill="#c0c0c0" stroke="black" d="M665.5,-36C665.5,-36 635.5,-36 635.5,-36 629.5,-36 623.5,-30 623.5,-24 623.5,-24 623.5,-12 623.5,-12 623.5,-6 629.5,0 635.5,0 635.5,0 665.5,0 665.5,0 671.5,0 677.5,-6 677.5,-12 677.5,-12 677.5,-24 677.5,-24 677.5,-30 671.5,-36 665.5,-36"/>
<text text-anchor="middle" x="650.5" y="-13.32" font-family="Helvetica,sans-Serif" font-size="14.00">(...)</text>
</g>
<!-- 11951&#45;&gt;12063 -->
<g id="edge15" class="edge">
<title>11951&#45;&gt;12063</title>
<path fill="none" stroke="black" d="M642.52,-71.75C643.78,-63.42 645.06,-54.97 646.21,-47.34"/>
<polygon fill="black" stroke="black" points="649.64,-48.08 647.67,-37.67 642.72,-47.03 649.64,-48.08"/>
</g>
<!-- 12101 -->
<g id="node18" class="node">
<title>12101</title>
<path fill="#f2f8fd" stroke="black" d="M973.5,-296.5C973.5,-296.5 831.5,-296.5 831.5,-296.5 825.5,-296.5 819.5,-290.5 819.5,-284.5 819.5,-284.5 819.5,-214.25 819.5,-214.25 819.5,-208.25 825.5,-202.25 831.5,-202.25 831.5,-202.25 973.5,-202.25 973.5,-202.25 979.5,-202.25 985.5,-208.25 985.5,-214.25 985.5,-214.25 985.5,-284.5 985.5,-284.5 985.5,-290.5 979.5,-296.5 973.5,-296.5"/>
<text text-anchor="middle" x="902.5" y="-279.2" font-family="Helvetica,sans-Serif" font-size="14.00">19_U &lt;= 0.5</text>
<text text-anchor="middle" x="902.5" y="-261.95" font-family="Helvetica,sans-Serif" font-size="14.00">entropy = 0.999</text>
<text text-anchor="middle" x="902.5" y="-244.7" font-family="Helvetica,sans-Serif" font-size="14.00">samples = 7672</text>
<text text-anchor="middle" x="902.5" y="-227.45" font-family="Helvetica,sans-Serif" font-size="14.00">value = [5817, 6236]</text>
<text text-anchor="middle" x="902.5" y="-210.2" font-family="Helvetica,sans-Serif" font-size="14.00">class = Plant</text>
</g>
<!-- 12100&#45;&gt;12101 -->
<g id="edge17" class="edge">
<title>12100&#45;&gt;12101</title>
<path fill="none" stroke="black" d="M902.5,-332.32C902.5,-324.42 902.5,-316.13 902.5,-307.98"/>
<polygon fill="black" stroke="black" points="906,-308.12 902.5,-298.12 899,-308.12 906,-308.12"/>
</g>
<!-- 15512 -->
<g id="node25" class="node">
<title>15512</title>
<path fill="#6ab5eb" stroke="black" d="M1249.5,-296.5C1249.5,-296.5 1107.5,-296.5 1107.5,-296.5 1101.5,-296.5 1095.5,-290.5 1095.5,-284.5 1095.5,-284.5 1095.5,-214.25 1095.5,-214.25 1095.5,-208.25 1101.5,-202.25 1107.5,-202.25 1107.5,-202.25 1249.5,-202.25 1249.5,-202.25 1255.5,-202.25 1261.5,-208.25 1261.5,-214.25 1261.5,-214.25 1261.5,-284.5 1261.5,-284.5 1261.5,-290.5 1255.5,-296.5 1249.5,-296.5"/>
<text text-anchor="middle" x="1178.5" y="-279.2" font-family="Helvetica,sans-Serif" font-size="14.00">5_A &lt;= 0.5</text>
<text text-anchor="middle" x="1178.5" y="-261.95" font-family="Helvetica,sans-Serif" font-size="14.00">entropy = 0.721</text>
<text text-anchor="middle" x="1178.5" y="-244.7" font-family="Helvetica,sans-Serif" font-size="14.00">samples = 4176</text>
<text text-anchor="middle" x="1178.5" y="-227.45" font-family="Helvetica,sans-Serif" font-size="14.00">value = [1324, 5312]</text>
<text text-anchor="middle" x="1178.5" y="-210.2" font-family="Helvetica,sans-Serif" font-size="14.00">class = Plant</text>
</g>
<!-- 12100&#45;&gt;15512 -->
<g id="edge24" class="edge">
<title>12100&#45;&gt;15512</title>
<path fill="none" stroke="black" d="M990.21,-337.87C1020.41,-323.83 1054.34,-308.07 1085,-293.82"/>
<polygon fill="black" stroke="black" points="1086.29,-297.08 1093.88,-289.69 1083.34,-290.73 1086.29,-297.08"/>
</g>
<!-- 12102 -->
<g id="node19" class="node">
<title>12102</title>
<path fill="#d0e8f9" stroke="black" d="M881.5,-166.25C881.5,-166.25 739.5,-166.25 739.5,-166.25 733.5,-166.25 727.5,-160.25 727.5,-154.25 727.5,-154.25 727.5,-84 727.5,-84 727.5,-78 733.5,-72 739.5,-72 739.5,-72 881.5,-72 881.5,-72 887.5,-72 893.5,-78 893.5,-84 893.5,-84 893.5,-154.25 893.5,-154.25 893.5,-160.25 887.5,-166.25 881.5,-166.25"/>
<text text-anchor="middle" x="810.5" y="-148.95" font-family="Helvetica,sans-Serif" font-size="14.00">5_A &lt;= 0.5</text>
<text text-anchor="middle" x="810.5" y="-131.7" font-family="Helvetica,sans-Serif" font-size="14.00">entropy = 0.987</text>
<text text-anchor="middle" x="810.5" y="-114.45" font-family="Helvetica,sans-Serif" font-size="14.00">samples = 5385</text>
<text text-anchor="middle" x="810.5" y="-97.2" font-family="Helvetica,sans-Serif" font-size="14.00">value = [3637, 4766]</text>
<text text-anchor="middle" x="810.5" y="-79.95" font-family="Helvetica,sans-Serif" font-size="14.00">class = Plant</text>
</g>
<!-- 12101&#45;&gt;12102 -->
<g id="edge18" class="edge">
<title>12101&#45;&gt;12102</title>
<path fill="none" stroke="black" d="M869.29,-202.07C863.1,-193.45 856.57,-184.35 850.21,-175.49"/>
<polygon fill="black" stroke="black" points="853.22,-173.67 844.55,-167.59 847.53,-177.75 853.22,-173.67"/>
</g>
<!-- 14387 -->
<g id="node22" class="node">
<title>14387</title>
<path fill="#f7d6bf" stroke="black" d="M1065.5,-166.25C1065.5,-166.25 923.5,-166.25 923.5,-166.25 917.5,-166.25 911.5,-160.25 911.5,-154.25 911.5,-154.25 911.5,-84 911.5,-84 911.5,-78 917.5,-72 923.5,-72 923.5,-72 1065.5,-72 1065.5,-72 1071.5,-72 1077.5,-78 1077.5,-84 1077.5,-84 1077.5,-154.25 1077.5,-154.25 1077.5,-160.25 1071.5,-166.25 1065.5,-166.25"/>
<text text-anchor="middle" x="994.5" y="-148.95" font-family="Helvetica,sans-Serif" font-size="14.00">16_A &lt;= 0.5</text>
<text text-anchor="middle" x="994.5" y="-131.7" font-family="Helvetica,sans-Serif" font-size="14.00">entropy = 0.973</text>
<text text-anchor="middle" x="994.5" y="-114.45" font-family="Helvetica,sans-Serif" font-size="14.00">samples = 2287</text>
<text text-anchor="middle" x="994.5" y="-97.2" font-family="Helvetica,sans-Serif" font-size="14.00">value = [2180, 1470]</text>
<text text-anchor="middle" x="994.5" y="-79.95" font-family="Helvetica,sans-Serif" font-size="14.00">class = Animal</text>
</g>
<!-- 12101&#45;&gt;14387 -->
<g id="edge21" class="edge">
<title>12101&#45;&gt;14387</title>
<path fill="none" stroke="black" d="M935.71,-202.07C941.9,-193.45 948.43,-184.35 954.79,-175.49"/>
<polygon fill="black" stroke="black" points="957.47,-177.75 960.45,-167.59 951.78,-173.67 957.47,-177.75"/>
</g>
<!-- 12103 -->
<g id="node20" class="node">
<title>12103</title>
<path fill="#c0c0c0" stroke="black" d="M773.5,-36C773.5,-36 743.5,-36 743.5,-36 737.5,-36 731.5,-30 731.5,-24 731.5,-24 731.5,-12 731.5,-12 731.5,-6 737.5,0 743.5,0 743.5,0 773.5,0 773.5,0 779.5,0 785.5,-6 785.5,-12 785.5,-12 785.5,-24 785.5,-24 785.5,-30 779.5,-36 773.5,-36"/>
<text text-anchor="middle" x="758.5" y="-13.32" font-family="Helvetica,sans-Serif" font-size="14.00">(...)</text>
</g>
<!-- 12102&#45;&gt;12103 -->
<g id="edge19" class="edge">
<title>12102&#45;&gt;12103</title>
<path fill="none" stroke="black" d="M786.17,-71.75C781.6,-63.03 776.95,-54.16 772.8,-46.26"/>
<polygon fill="black" stroke="black" points="775.96,-44.74 768.21,-37.51 769.76,-47.99 775.96,-44.74"/>
</g>
<!-- 13850 -->
<g id="node21" class="node">
<title>13850</title>
<path fill="#c0c0c0" stroke="black" d="M845.5,-36C845.5,-36 815.5,-36 815.5,-36 809.5,-36 803.5,-30 803.5,-24 803.5,-24 803.5,-12 803.5,-12 803.5,-6 809.5,0 815.5,0 815.5,0 845.5,0 845.5,0 851.5,0 857.5,-6 857.5,-12 857.5,-12 857.5,-24 857.5,-24 857.5,-30 851.5,-36 845.5,-36"/>
<text text-anchor="middle" x="830.5" y="-13.32" font-family="Helvetica,sans-Serif" font-size="14.00">(...)</text>
</g>
<!-- 12102&#45;&gt;13850 -->
<g id="edge20" class="edge">
<title>12102&#45;&gt;13850</title>
<path fill="none" stroke="black" d="M819.86,-71.75C821.54,-63.42 823.24,-54.97 824.78,-47.34"/>
<polygon fill="black" stroke="black" points="828.19,-48.15 826.74,-37.66 821.33,-46.77 828.19,-48.15"/>
</g>
<!-- 14388 -->
<g id="node23" class="node">
<title>14388</title>
<path fill="#c0c0c0" stroke="black" d="M957.5,-36C957.5,-36 927.5,-36 927.5,-36 921.5,-36 915.5,-30 915.5,-24 915.5,-24 915.5,-12 915.5,-12 915.5,-6 921.5,0 927.5,0 927.5,0 957.5,0 957.5,0 963.5,0 969.5,-6 969.5,-12 969.5,-12 969.5,-24 969.5,-24 969.5,-30 963.5,-36 957.5,-36"/>
<text text-anchor="middle" x="942.5" y="-13.32" font-family="Helvetica,sans-Serif" font-size="14.00">(...)</text>
</g>
<!-- 14387&#45;&gt;14388 -->
<g id="edge22" class="edge">
<title>14387&#45;&gt;14388</title>
<path fill="none" stroke="black" d="M970.17,-71.75C965.6,-63.03 960.95,-54.16 956.8,-46.26"/>
<polygon fill="black" stroke="black" points="959.96,-44.74 952.21,-37.51 953.76,-47.99 959.96,-44.74"/>
</g>
<!-- 15245 -->
<g id="node24" class="node">
<title>15245</title>
<path fill="#c0c0c0" stroke="black" d="M1029.5,-36C1029.5,-36 999.5,-36 999.5,-36 993.5,-36 987.5,-30 987.5,-24 987.5,-24 987.5,-12 987.5,-12 987.5,-6 993.5,0 999.5,0 999.5,0 1029.5,0 1029.5,0 1035.5,0 1041.5,-6 1041.5,-12 1041.5,-12 1041.5,-24 1041.5,-24 1041.5,-30 1035.5,-36 1029.5,-36"/>
<text text-anchor="middle" x="1014.5" y="-13.32" font-family="Helvetica,sans-Serif" font-size="14.00">(...)</text>
</g>
<!-- 14387&#45;&gt;15245 -->
<g id="edge23" class="edge">
<title>14387&#45;&gt;15245</title>
<path fill="none" stroke="black" d="M1003.86,-71.75C1005.54,-63.42 1007.24,-54.97 1008.78,-47.34"/>
<polygon fill="black" stroke="black" points="1012.19,-48.15 1010.74,-37.66 1005.33,-46.77 1012.19,-48.15"/>
</g>
<!-- 15513 -->
<g id="node26" class="node">
<title>15513</title>
<path fill="#84c2ef" stroke="black" d="M1249.5,-166.25C1249.5,-166.25 1107.5,-166.25 1107.5,-166.25 1101.5,-166.25 1095.5,-160.25 1095.5,-154.25 1095.5,-154.25 1095.5,-84 1095.5,-84 1095.5,-78 1101.5,-72 1107.5,-72 1107.5,-72 1249.5,-72 1249.5,-72 1255.5,-72 1261.5,-78 1261.5,-84 1261.5,-84 1261.5,-154.25 1261.5,-154.25 1261.5,-160.25 1255.5,-166.25 1249.5,-166.25"/>
<text text-anchor="middle" x="1178.5" y="-148.95" font-family="Helvetica,sans-Serif" font-size="14.00">4_G &lt;= 0.5</text>
<text text-anchor="middle" x="1178.5" y="-131.7" font-family="Helvetica,sans-Serif" font-size="14.00">entropy = 0.847</text>
<text text-anchor="middle" x="1178.5" y="-114.45" font-family="Helvetica,sans-Serif" font-size="14.00">samples = 2416</text>
<text text-anchor="middle" x="1178.5" y="-97.2" font-family="Helvetica,sans-Serif" font-size="14.00">value = [1045, 2766]</text>
<text text-anchor="middle" x="1178.5" y="-79.95" font-family="Helvetica,sans-Serif" font-size="14.00">class = Plant</text>
</g>
<!-- 15512&#45;&gt;15513 -->
<g id="edge25" class="edge">
<title>15512&#45;&gt;15513</title>
<path fill="none" stroke="black" d="M1178.5,-202.07C1178.5,-194.17 1178.5,-185.88 1178.5,-177.73"/>
<polygon fill="black" stroke="black" points="1182,-177.87 1178.5,-167.87 1175,-177.87 1182,-177.87"/>
</g>
<!-- 16274 -->
<g id="node29" class="node">
<title>16274</title>
<path fill="#4fa8e8" stroke="black" d="M1425,-166.25C1425,-166.25 1292,-166.25 1292,-166.25 1286,-166.25 1280,-160.25 1280,-154.25 1280,-154.25 1280,-84 1280,-84 1280,-78 1286,-72 1292,-72 1292,-72 1425,-72 1425,-72 1431,-72 1437,-78 1437,-84 1437,-84 1437,-154.25 1437,-154.25 1437,-160.25 1431,-166.25 1425,-166.25"/>
<text text-anchor="middle" x="1358.5" y="-148.95" font-family="Helvetica,sans-Serif" font-size="14.00">22_U &lt;= 0.5</text>
<text text-anchor="middle" x="1358.5" y="-131.7" font-family="Helvetica,sans-Serif" font-size="14.00">entropy = 0.465</text>
<text text-anchor="middle" x="1358.5" y="-114.45" font-family="Helvetica,sans-Serif" font-size="14.00">samples = 1760</text>
<text text-anchor="middle" x="1358.5" y="-97.2" font-family="Helvetica,sans-Serif" font-size="14.00">value = [279, 2546]</text>
<text text-anchor="middle" x="1358.5" y="-79.95" font-family="Helvetica,sans-Serif" font-size="14.00">class = Plant</text>
</g>
<!-- 15512&#45;&gt;16274 -->
<g id="edge28" class="edge">
<title>15512&#45;&gt;16274</title>
<path fill="none" stroke="black" d="M1243.74,-201.89C1256.82,-192.57 1270.65,-182.72 1284.02,-173.19"/>
<polygon fill="black" stroke="black" points="1285.84,-176.2 1291.95,-167.54 1281.77,-170.49 1285.84,-176.2"/>
</g>
<!-- 15514 -->
<g id="node27" class="node">
<title>15514</title>
<path fill="#c0c0c0" stroke="black" d="M1157.5,-36C1157.5,-36 1127.5,-36 1127.5,-36 1121.5,-36 1115.5,-30 1115.5,-24 1115.5,-24 1115.5,-12 1115.5,-12 1115.5,-6 1121.5,0 1127.5,0 1127.5,0 1157.5,0 1157.5,0 1163.5,0 1169.5,-6 1169.5,-12 1169.5,-12 1169.5,-24 1169.5,-24 1169.5,-30 1163.5,-36 1157.5,-36"/>
<text text-anchor="middle" x="1142.5" y="-13.32" font-family="Helvetica,sans-Serif" font-size="14.00">(...)</text>
</g>
<!-- 15513&#45;&gt;15514 -->
<g id="edge26" class="edge">
<title>15513&#45;&gt;15514</title>
<path fill="none" stroke="black" d="M1161.66,-71.75C1158.56,-63.22 1155.42,-54.57 1152.6,-46.8"/>
<polygon fill="black" stroke="black" points="1155.96,-45.8 1149.25,-37.6 1149.38,-48.19 1155.96,-45.8"/>
</g>
<!-- 16053 -->
<g id="node28" class="node">
<title>16053</title>
<path fill="#c0c0c0" stroke="black" d="M1229.5,-36C1229.5,-36 1199.5,-36 1199.5,-36 1193.5,-36 1187.5,-30 1187.5,-24 1187.5,-24 1187.5,-12 1187.5,-12 1187.5,-6 1193.5,0 1199.5,0 1199.5,0 1229.5,0 1229.5,0 1235.5,0 1241.5,-6 1241.5,-12 1241.5,-12 1241.5,-24 1241.5,-24 1241.5,-30 1235.5,-36 1229.5,-36"/>
<text text-anchor="middle" x="1214.5" y="-13.32" font-family="Helvetica,sans-Serif" font-size="14.00">(...)</text>
</g>
<!-- 15513&#45;&gt;16053 -->
<g id="edge27" class="edge">
<title>15513&#45;&gt;16053</title>
<path fill="none" stroke="black" d="M1195.34,-71.75C1198.44,-63.22 1201.58,-54.57 1204.4,-46.8"/>
<polygon fill="black" stroke="black" points="1207.62,-48.19 1207.75,-37.6 1201.04,-45.8 1207.62,-48.19"/>
</g>
<!-- 16275 -->
<g id="node30" class="node">
<title>16275</title>
<path fill="#c0c0c0" stroke="black" d="M1337.5,-36C1337.5,-36 1307.5,-36 1307.5,-36 1301.5,-36 1295.5,-30 1295.5,-24 1295.5,-24 1295.5,-12 1295.5,-12 1295.5,-6 1301.5,0 1307.5,0 1307.5,0 1337.5,0 1337.5,0 1343.5,0 1349.5,-6 1349.5,-12 1349.5,-12 1349.5,-24 1349.5,-24 1349.5,-30 1343.5,-36 1337.5,-36"/>
<text text-anchor="middle" x="1322.5" y="-13.32" font-family="Helvetica,sans-Serif" font-size="14.00">(...)</text>
</g>
<!-- 16274&#45;&gt;16275 -->
<g id="edge29" class="edge">
<title>16274&#45;&gt;16275</title>
<path fill="none" stroke="black" d="M1341.66,-71.75C1338.56,-63.22 1335.42,-54.57 1332.6,-46.8"/>
<polygon fill="black" stroke="black" points="1335.96,-45.8 1329.25,-37.6 1329.38,-48.19 1335.96,-45.8"/>
</g>
<!-- 16496 -->
<g id="node31" class="node">
<title>16496</title>
<path fill="#c0c0c0" stroke="black" d="M1409.5,-36C1409.5,-36 1379.5,-36 1379.5,-36 1373.5,-36 1367.5,-30 1367.5,-24 1367.5,-24 1367.5,-12 1367.5,-12 1367.5,-6 1373.5,0 1379.5,0 1379.5,0 1409.5,0 1409.5,0 1415.5,0 1421.5,-6 1421.5,-12 1421.5,-12 1421.5,-24 1421.5,-24 1421.5,-30 1415.5,-36 1409.5,-36"/>
<text text-anchor="middle" x="1394.5" y="-13.32" font-family="Helvetica,sans-Serif" font-size="14.00">(...)</text>
</g>
<!-- 16274&#45;&gt;16496 -->
<g id="edge30" class="edge">
<title>16274&#45;&gt;16496</title>
<path fill="none" stroke="black" d="M1375.34,-71.75C1378.44,-63.22 1381.58,-54.57 1384.4,-46.8"/>
<polygon fill="black" stroke="black" points="1387.62,-48.19 1387.75,-37.6 1381.04,-45.8 1387.62,-48.19"/>
</g>
</g>
</svg>
