<?xml version="1.0" encoding="UTF-8" standalone="no"?>
<!DOCTYPE svg PUBLIC "-//W3C//DTD SVG 1.1//EN"
 "http://www.w3.org/Graphics/SVG/1.1/DTD/svg11.dtd">
<!-- Generated by graphviz version 12.0.0 (20240803.0821)
 -->
<!-- Title: Tree Pages: 1 -->
<svg width="1428pt" height="565pt"
 viewBox="0.00 0.00 1427.50 565.00" xmlns="http://www.w3.org/2000/svg" xmlns:xlink="http://www.w3.org/1999/xlink">
<g id="graph0" class="graph" transform="scale(1 1) rotate(0) translate(4 561)">
<title>Tree</title>
<polygon fill="white" stroke="none" points="-4,4 -4,-561 1423.5,-561 1423.5,4 -4,4"/>
<!-- 0 -->
<g id="node1" class="node">
<title>0</title>
<path fill="#fdfeff" stroke="black" d="M807.5,-557C807.5,-557 647.5,-557 647.5,-557 641.5,-557 635.5,-551 635.5,-545 635.5,-545 635.5,-474.75 635.5,-474.75 635.5,-468.75 641.5,-462.75 647.5,-462.75 647.5,-462.75 807.5,-462.75 807.5,-462.75 813.5,-462.75 819.5,-468.75 819.5,-474.75 819.5,-474.75 819.5,-545 819.5,-545 819.5,-551 813.5,-557 807.5,-557"/>
<text text-anchor="middle" x="727.5" y="-539.7" font-family="Helvetica,sans-Serif" font-size="14.00">22_C &lt;= 0.5</text>
<text text-anchor="middle" x="727.5" y="-522.45" font-family="Helvetica,sans-Serif" font-size="14.00">entropy = 1.0</text>
<text text-anchor="middle" x="727.5" y="-505.2" font-family="Helvetica,sans-Serif" font-size="14.00">samples = 38129</text>
<text text-anchor="middle" x="727.5" y="-487.95" font-family="Helvetica,sans-Serif" font-size="14.00">value = [29999, 30346]</text>
<text text-anchor="middle" x="727.5" y="-470.7" font-family="Helvetica,sans-Serif" font-size="14.00">class = Plant</text>
</g>
<!-- 1 -->
<g id="node2" class="node">
<title>1</title>
<path fill="#ecf6fd" stroke="black" d="M634.5,-426.75C634.5,-426.75 474.5,-426.75 474.5,-426.75 468.5,-426.75 462.5,-420.75 462.5,-414.75 462.5,-414.75 462.5,-344.5 462.5,-344.5 462.5,-338.5 468.5,-332.5 474.5,-332.5 474.5,-332.5 634.5,-332.5 634.5,-332.5 640.5,-332.5 646.5,-338.5 646.5,-344.5 646.5,-344.5 646.5,-414.75 646.5,-414.75 646.5,-420.75 640.5,-426.75 634.5,-426.75"/>
<text text-anchor="middle" x="554.5" y="-409.45" font-family="Helvetica,sans-Serif" font-size="14.00">1_U &lt;= 0.5</text>
<text text-anchor="middle" x="554.5" y="-392.2" font-family="Helvetica,sans-Serif" font-size="14.00">entropy = 0.998</text>
<text text-anchor="middle" x="554.5" y="-374.95" font-family="Helvetica,sans-Serif" font-size="14.00">samples = 34414</text>
<text text-anchor="middle" x="554.5" y="-357.7" font-family="Helvetica,sans-Serif" font-size="14.00">value = [25850, 28570]</text>
<text text-anchor="middle" x="554.5" y="-340.45" font-family="Helvetica,sans-Serif" font-size="14.00">class = Plant</text>
</g>
<!-- 0&#45;&gt;1 -->
<g id="edge1" class="edge">
<title>0&#45;&gt;1</title>
<path fill="none" stroke="black" d="M665.04,-462.57C652.5,-453.28 639.23,-443.44 626.4,-433.93"/>
<polygon fill="black" stroke="black" points="628.49,-431.12 618.37,-427.97 624.32,-436.74 628.49,-431.12"/>
<text text-anchor="middle" x="620.83" y="-447.13" font-family="Helvetica,sans-Serif" font-size="14.00">True</text>
</g>
<!-- 14810 -->
<g id="node17" class="node">
<title>14810</title>
<path fill="#f0b78e" stroke="black" d="M980.5,-426.75C980.5,-426.75 838.5,-426.75 838.5,-426.75 832.5,-426.75 826.5,-420.75 826.5,-414.75 826.5,-414.75 826.5,-344.5 826.5,-344.5 826.5,-338.5 832.5,-332.5 838.5,-332.5 838.5,-332.5 980.5,-332.5 980.5,-332.5 986.5,-332.5 992.5,-338.5 992.5,-344.5 992.5,-344.5 992.5,-414.75 992.5,-414.75 992.5,-420.75 986.5,-426.75 980.5,-426.75"/>
<text text-anchor="middle" x="909.5" y="-409.45" font-family="Helvetica,sans-Serif" font-size="14.00">18_U &lt;= 0.5</text>
<text text-anchor="middle" x="909.5" y="-392.2" font-family="Helvetica,sans-Serif" font-size="14.00">entropy = 0.881</text>
<text text-anchor="middle" x="909.5" y="-374.95" font-family="Helvetica,sans-Serif" font-size="14.00">samples = 3715</text>
<text text-anchor="middle" x="909.5" y="-357.7" font-family="Helvetica,sans-Serif" font-size="14.00">value = [4149, 1776]</text>
<text text-anchor="middle" x="909.5" y="-340.45" font-family="Helvetica,sans-Serif" font-size="14.00">class = Animal</text>
</g>
<!-- 0&#45;&gt;14810 -->
<g id="edge16" class="edge">
<title>0&#45;&gt;14810</title>
<path fill="none" stroke="black" d="M793.46,-462.39C806.69,-453.07 820.68,-443.22 834.19,-433.69"/>
<polygon fill="black" stroke="black" points="836.06,-436.66 842.22,-428.04 832.03,-430.94 836.06,-436.66"/>
<text text-anchor="middle" x="839.19" y="-447.12" font-family="Helvetica,sans-Serif" font-size="14.00">False</text>
</g>
<!-- 2 -->
<g id="node3" class="node">
<title>2</title>
<path fill="#f9e4d4" stroke="black" d="M356.5,-296.5C356.5,-296.5 196.5,-296.5 196.5,-296.5 190.5,-296.5 184.5,-290.5 184.5,-284.5 184.5,-284.5 184.5,-214.25 184.5,-214.25 184.5,-208.25 190.5,-202.25 196.5,-202.25 196.5,-202.25 356.5,-202.25 356.5,-202.25 362.5,-202.25 368.5,-208.25 368.5,-214.25 368.5,-214.25 368.5,-284.5 368.5,-284.5 368.5,-290.5 362.5,-296.5 356.5,-296.5"/>
<text text-anchor="middle" x="276.5" y="-279.2" font-family="Helvetica,sans-Serif" font-size="14.00">8_G &lt;= 0.5</text>
<text text-anchor="middle" x="276.5" y="-261.95" font-family="Helvetica,sans-Serif" font-size="14.00">entropy = 0.989</text>
<text text-anchor="middle" x="276.5" y="-244.7" font-family="Helvetica,sans-Serif" font-size="14.00">samples = 15810</text>
<text text-anchor="middle" x="276.5" y="-227.45" font-family="Helvetica,sans-Serif" font-size="14.00">value = [14045, 11009]</text>
<text text-anchor="middle" x="276.5" y="-210.2" font-family="Helvetica,sans-Serif" font-size="14.00">class = Animal</text>
</g>
<!-- 1&#45;&gt;2 -->
<g id="edge2" class="edge">
<title>1&#45;&gt;2</title>
<path fill="none" stroke="black" d="M462.32,-336.1C435.69,-323.81 406.46,-310.33 379.24,-297.77"/>
<polygon fill="black" stroke="black" points="380.83,-294.65 370.28,-293.64 377.9,-301.01 380.83,-294.65"/>
</g>
<!-- 8399 -->
<g id="node10" class="node">
<title>8399</title>
<path fill="#bedff6" stroke="black" d="M634.5,-296.5C634.5,-296.5 474.5,-296.5 474.5,-296.5 468.5,-296.5 462.5,-290.5 462.5,-284.5 462.5,-284.5 462.5,-214.25 462.5,-214.25 462.5,-208.25 468.5,-202.25 474.5,-202.25 474.5,-202.25 634.5,-202.25 634.5,-202.25 640.5,-202.25 646.5,-208.25 646.5,-214.25 646.5,-214.25 646.5,-284.5 646.5,-284.5 646.5,-290.5 640.5,-296.5 634.5,-296.5"/>
<text text-anchor="middle" x="554.5" y="-279.2" font-family="Helvetica,sans-Serif" font-size="14.00">22_U &lt;= 0.5</text>
<text text-anchor="middle" x="554.5" y="-261.95" font-family="Helvetica,sans-Serif" font-size="14.00">entropy = 0.972</text>
<text text-anchor="middle" x="554.5" y="-244.7" font-family="Helvetica,sans-Serif" font-size="14.00">samples = 18604</text>
<text text-anchor="middle" x="554.5" y="-227.45" font-family="Helvetica,sans-Serif" font-size="14.00">value = [11805, 17561]</text>
<text text-anchor="middle" x="554.5" y="-210.2" font-family="Helvetica,sans-Serif" font-size="14.00">class = Plant</text>
</g>
<!-- 1&#45;&gt;8399 -->
<g id="edge9" class="edge">
<title>1&#45;&gt;8399</title>
<path fill="none" stroke="black" d="M554.5,-332.32C554.5,-324.42 554.5,-316.13 554.5,-307.98"/>
<polygon fill="black" stroke="black" points="558,-308.12 554.5,-298.12 551,-308.12 558,-308.12"/>
</g>
<!-- 3 -->
<g id="node4" class="node">
<title>3</title>
<path fill="#f6d4bb" stroke="black" d="M163,-166.25C163,-166.25 12,-166.25 12,-166.25 6,-166.25 0,-160.25 0,-154.25 0,-154.25 0,-84 0,-84 0,-78 6,-72 12,-72 12,-72 163,-72 163,-72 169,-72 175,-78 175,-84 175,-84 175,-154.25 175,-154.25 175,-160.25 169,-166.25 163,-166.25"/>
<text text-anchor="middle" x="87.5" y="-148.95" font-family="Helvetica,sans-Serif" font-size="14.00">18_G &lt;= 0.5</text>
<text text-anchor="middle" x="87.5" y="-131.7" font-family="Helvetica,sans-Serif" font-size="14.00">entropy = 0.969</text>
<text text-anchor="middle" x="87.5" y="-114.45" font-family="Helvetica,sans-Serif" font-size="14.00">samples = 11489</text>
<text text-anchor="middle" x="87.5" y="-97.2" font-family="Helvetica,sans-Serif" font-size="14.00">value = [10956, 7217]</text>
<text text-anchor="middle" x="87.5" y="-79.95" font-family="Helvetica,sans-Serif" font-size="14.00">class = Animal</text>
</g>
<!-- 2&#45;&gt;3 -->
<g id="edge3" class="edge">
<title>2&#45;&gt;3</title>
<path fill="none" stroke="black" d="M208,-201.89C194.13,-192.48 179.46,-182.53 165.3,-172.92"/>
<polygon fill="black" stroke="black" points="167.58,-170.23 157.34,-167.51 163.65,-176.03 167.58,-170.23"/>
</g>
<!-- 6162 -->
<g id="node7" class="node">
<title>6162</title>
<path fill="#daedfa" stroke="black" d="M347.5,-166.25C347.5,-166.25 205.5,-166.25 205.5,-166.25 199.5,-166.25 193.5,-160.25 193.5,-154.25 193.5,-154.25 193.5,-84 193.5,-84 193.5,-78 199.5,-72 205.5,-72 205.5,-72 347.5,-72 347.5,-72 353.5,-72 359.5,-78 359.5,-84 359.5,-84 359.5,-154.25 359.5,-154.25 359.5,-160.25 353.5,-166.25 347.5,-166.25"/>
<text text-anchor="middle" x="276.5" y="-148.95" font-family="Helvetica,sans-Serif" font-size="14.00">11_U &lt;= 0.5</text>
<text text-anchor="middle" x="276.5" y="-131.7" font-family="Helvetica,sans-Serif" font-size="14.00">entropy = 0.992</text>
<text text-anchor="middle" x="276.5" y="-114.45" font-family="Helvetica,sans-Serif" font-size="14.00">samples = 4321</text>
<text text-anchor="middle" x="276.5" y="-97.2" font-family="Helvetica,sans-Serif" font-size="14.00">value = [3089, 3792]</text>
<text text-anchor="middle" x="276.5" y="-79.95" font-family="Helvetica,sans-Serif" font-size="14.00">class = Plant</text>
</g>
<!-- 2&#45;&gt;6162 -->
<g id="edge6" class="edge">
<title>2&#45;&gt;6162</title>
<path fill="none" stroke="black" d="M276.5,-202.07C276.5,-194.17 276.5,-185.88 276.5,-177.73"/>
<polygon fill="black" stroke="black" points="280,-177.87 276.5,-167.87 273,-177.87 280,-177.87"/>
</g>
<!-- 4 -->
<g id="node5" class="node">
<title>4</title>
<path fill="#c0c0c0" stroke="black" d="M66.5,-36C66.5,-36 36.5,-36 36.5,-36 30.5,-36 24.5,-30 24.5,-24 24.5,-24 24.5,-12 24.5,-12 24.5,-6 30.5,0 36.5,0 36.5,0 66.5,0 66.5,0 72.5,0 78.5,-6 78.5,-12 78.5,-12 78.5,-24 78.5,-24 78.5,-30 72.5,-36 66.5,-36"/>
<text text-anchor="middle" x="51.5" y="-13.32" font-family="Helvetica,sans-Serif" font-size="14.00">(...)</text>
</g>
<!-- 3&#45;&gt;4 -->
<g id="edge4" class="edge">
<title>3&#45;&gt;4</title>
<path fill="none" stroke="black" d="M70.66,-71.75C67.56,-63.22 64.42,-54.57 61.6,-46.8"/>
<polygon fill="black" stroke="black" points="64.96,-45.8 58.25,-37.6 58.38,-48.19 64.96,-45.8"/>
</g>
<!-- 4453 -->
<g id="node6" class="node">
<title>4453</title>
<path fill="#c0c0c0" stroke="black" d="M138.5,-36C138.5,-36 108.5,-36 108.5,-36 102.5,-36 96.5,-30 96.5,-24 96.5,-24 96.5,-12 96.5,-12 96.5,-6 102.5,0 108.5,0 108.5,0 138.5,0 138.5,0 144.5,0 150.5,-6 150.5,-12 150.5,-12 150.5,-24 150.5,-24 150.5,-30 144.5,-36 138.5,-36"/>
<text text-anchor="middle" x="123.5" y="-13.32" font-family="Helvetica,sans-Serif" font-size="14.00">(...)</text>
</g>
<!-- 3&#45;&gt;4453 -->
<g id="edge5" class="edge">
<title>3&#45;&gt;4453</title>
<path fill="none" stroke="black" d="M104.34,-71.75C107.44,-63.22 110.58,-54.57 113.4,-46.8"/>
<polygon fill="black" stroke="black" points="116.62,-48.19 116.75,-37.6 110.04,-45.8 116.62,-48.19"/>
</g>
<!-- 6163 -->
<g id="node8" class="node">
<title>6163</title>
<path fill="#c0c0c0" stroke="black" d="M262.5,-36C262.5,-36 232.5,-36 232.5,-36 226.5,-36 220.5,-30 220.5,-24 220.5,-24 220.5,-12 220.5,-12 220.5,-6 226.5,0 232.5,0 232.5,0 262.5,0 262.5,0 268.5,0 274.5,-6 274.5,-12 274.5,-12 274.5,-24 274.5,-24 274.5,-30 268.5,-36 262.5,-36"/>
<text text-anchor="middle" x="247.5" y="-13.32" font-family="Helvetica,sans-Serif" font-size="14.00">(...)</text>
</g>
<!-- 6162&#45;&gt;6163 -->
<g id="edge7" class="edge">
<title>6162&#45;&gt;6163</title>
<path fill="none" stroke="black" d="M262.93,-71.75C260.47,-63.32 257.96,-54.77 255.71,-47.07"/>
<polygon fill="black" stroke="black" points="259.12,-46.24 252.95,-37.63 252.4,-48.21 259.12,-46.24"/>
</g>
<!-- 7816 -->
<g id="node9" class="node">
<title>7816</title>
<path fill="#c0c0c0" stroke="black" d="M334.5,-36C334.5,-36 304.5,-36 304.5,-36 298.5,-36 292.5,-30 292.5,-24 292.5,-24 292.5,-12 292.5,-12 292.5,-6 298.5,0 304.5,0 304.5,0 334.5,0 334.5,0 340.5,0 346.5,-6 346.5,-12 346.5,-12 346.5,-24 346.5,-24 346.5,-30 340.5,-36 334.5,-36"/>
<text text-anchor="middle" x="319.5" y="-13.32" font-family="Helvetica,sans-Serif" font-size="14.00">(...)</text>
</g>
<!-- 6162&#45;&gt;7816 -->
<g id="edge8" class="edge">
<title>6162&#45;&gt;7816</title>
<path fill="none" stroke="black" d="M296.62,-71.75C300.36,-63.12 304.16,-54.36 307.56,-46.53"/>
<polygon fill="black" stroke="black" points="310.68,-48.13 311.45,-37.56 304.26,-45.34 310.68,-48.13"/>
</g>
<!-- 8400 -->
<g id="node11" class="node">
<title>8400</title>
<path fill="#9ecff2" stroke="black" d="M541,-166.25C541,-166.25 390,-166.25 390,-166.25 384,-166.25 378,-160.25 378,-154.25 378,-154.25 378,-84 378,-84 378,-78 384,-72 390,-72 390,-72 541,-72 541,-72 547,-72 553,-78 553,-84 553,-84 553,-154.25 553,-154.25 553,-160.25 547,-166.25 541,-166.25"/>
<text text-anchor="middle" x="465.5" y="-148.95" font-family="Helvetica,sans-Serif" font-size="14.00">23_A &lt;= 0.5</text>
<text text-anchor="middle" x="465.5" y="-131.7" font-family="Helvetica,sans-Serif" font-size="14.00">entropy = 0.922</text>
<text text-anchor="middle" x="465.5" y="-114.45" font-family="Helvetica,sans-Serif" font-size="14.00">samples = 16057</text>
<text text-anchor="middle" x="465.5" y="-97.2" font-family="Helvetica,sans-Serif" font-size="14.00">value = [8560, 16802]</text>
<text text-anchor="middle" x="465.5" y="-79.95" font-family="Helvetica,sans-Serif" font-size="14.00">class = Plant</text>
</g>
<!-- 8399&#45;&gt;8400 -->
<g id="edge10" class="edge">
<title>8399&#45;&gt;8400</title>
<path fill="none" stroke="black" d="M522.37,-202.07C516.45,-193.54 510.2,-184.54 504.11,-175.77"/>
<polygon fill="black" stroke="black" points="507.02,-173.82 498.45,-167.6 501.27,-177.81 507.02,-173.82"/>
</g>
<!-- 13875 -->
<g id="node14" class="node">
<title>13875</title>
<path fill="#eb9e67" stroke="black" d="M716,-166.25C716,-166.25 583,-166.25 583,-166.25 577,-166.25 571,-160.25 571,-154.25 571,-154.25 571,-84 571,-84 571,-78 577,-72 583,-72 583,-72 716,-72 716,-72 722,-72 728,-78 728,-84 728,-84 728,-154.25 728,-154.25 728,-160.25 722,-166.25 716,-166.25"/>
<text text-anchor="middle" x="649.5" y="-148.95" font-family="Helvetica,sans-Serif" font-size="14.00">21_A &lt;= 0.5</text>
<text text-anchor="middle" x="649.5" y="-131.7" font-family="Helvetica,sans-Serif" font-size="14.00">entropy = 0.701</text>
<text text-anchor="middle" x="649.5" y="-114.45" font-family="Helvetica,sans-Serif" font-size="14.00">samples = 2547</text>
<text text-anchor="middle" x="649.5" y="-97.2" font-family="Helvetica,sans-Serif" font-size="14.00">value = [3245, 759]</text>
<text text-anchor="middle" x="649.5" y="-79.95" font-family="Helvetica,sans-Serif" font-size="14.00">class = Animal</text>
</g>
<!-- 8399&#45;&gt;13875 -->
<g id="edge13" class="edge">
<title>8399&#45;&gt;13875</title>
<path fill="none" stroke="black" d="M588.8,-202.07C595.19,-193.45 601.92,-184.35 608.49,-175.49"/>
<polygon fill="black" stroke="black" points="611.21,-177.69 614.35,-167.57 605.59,-173.53 611.21,-177.69"/>
</g>
<!-- 8401 -->
<g id="node12" class="node">
<title>8401</title>
<path fill="#c0c0c0" stroke="black" d="M428.5,-36C428.5,-36 398.5,-36 398.5,-36 392.5,-36 386.5,-30 386.5,-24 386.5,-24 386.5,-12 386.5,-12 386.5,-6 392.5,0 398.5,0 398.5,0 428.5,0 428.5,0 434.5,0 440.5,-6 440.5,-12 440.5,-12 440.5,-24 440.5,-24 440.5,-30 434.5,-36 428.5,-36"/>
<text text-anchor="middle" x="413.5" y="-13.32" font-family="Helvetica,sans-Serif" font-size="14.00">(...)</text>
</g>
<!-- 8400&#45;&gt;8401 -->
<g id="edge11" class="edge">
<title>8400&#45;&gt;8401</title>
<path fill="none" stroke="black" d="M441.17,-71.75C436.6,-63.03 431.95,-54.16 427.8,-46.26"/>
<polygon fill="black" stroke="black" points="430.96,-44.74 423.21,-37.51 424.76,-47.99 430.96,-44.74"/>
</g>
<!-- 13688 -->
<g id="node13" class="node">
<title>13688</title>
<path fill="#c0c0c0" stroke="black" d="M500.5,-36C500.5,-36 470.5,-36 470.5,-36 464.5,-36 458.5,-30 458.5,-24 458.5,-24 458.5,-12 458.5,-12 458.5,-6 464.5,0 470.5,0 470.5,0 500.5,0 500.5,0 506.5,0 512.5,-6 512.5,-12 512.5,-12 512.5,-24 512.5,-24 512.5,-30 506.5,-36 500.5,-36"/>
<text text-anchor="middle" x="485.5" y="-13.32" font-family="Helvetica,sans-Serif" font-size="14.00">(...)</text>
</g>
<!-- 8400&#45;&gt;13688 -->
<g id="edge12" class="edge">
<title>8400&#45;&gt;13688</title>
<path fill="none" stroke="black" d="M474.86,-71.75C476.54,-63.42 478.24,-54.97 479.78,-47.34"/>
<polygon fill="black" stroke="black" points="483.19,-48.15 481.74,-37.66 476.33,-46.77 483.19,-48.15"/>
</g>
<!-- 13876 -->
<g id="node15" class="node">
<title>13876</title>
<path fill="#c0c0c0" stroke="black" d="M607.5,-36C607.5,-36 577.5,-36 577.5,-36 571.5,-36 565.5,-30 565.5,-24 565.5,-24 565.5,-12 565.5,-12 565.5,-6 571.5,0 577.5,0 577.5,0 607.5,0 607.5,0 613.5,0 619.5,-6 619.5,-12 619.5,-12 619.5,-24 619.5,-24 619.5,-30 613.5,-36 607.5,-36"/>
<text text-anchor="middle" x="592.5" y="-13.32" font-family="Helvetica,sans-Serif" font-size="14.00">(...)</text>
</g>
<!-- 13875&#45;&gt;13876 -->
<g id="edge14" class="edge">
<title>13875&#45;&gt;13876</title>
<path fill="none" stroke="black" d="M622.84,-71.75C617.76,-62.93 612.6,-53.96 608.02,-45.99"/>
<polygon fill="black" stroke="black" points="611.15,-44.41 603.13,-37.48 605.08,-47.9 611.15,-44.41"/>
</g>
<!-- 14577 -->
<g id="node16" class="node">
<title>14577</title>
<path fill="#c0c0c0" stroke="black" d="M679.5,-36C679.5,-36 649.5,-36 649.5,-36 643.5,-36 637.5,-30 637.5,-24 637.5,-24 637.5,-12 637.5,-12 637.5,-6 643.5,0 649.5,0 649.5,0 679.5,0 679.5,0 685.5,0 691.5,-6 691.5,-12 691.5,-12 691.5,-24 691.5,-24 691.5,-30 685.5,-36 679.5,-36"/>
<text text-anchor="middle" x="664.5" y="-13.32" font-family="Helvetica,sans-Serif" font-size="14.00">(...)</text>
</g>
<!-- 13875&#45;&gt;14577 -->
<g id="edge15" class="edge">
<title>13875&#45;&gt;14577</title>
<path fill="none" stroke="black" d="M656.52,-71.75C657.78,-63.42 659.06,-54.97 660.21,-47.34"/>
<polygon fill="black" stroke="black" points="663.64,-48.08 661.67,-37.67 656.72,-47.03 663.64,-48.08"/>
</g>
<!-- 14811 -->
<g id="node18" class="node">
<title>14811</title>
<path fill="#f1bd98" stroke="black" d="M980.5,-296.5C980.5,-296.5 838.5,-296.5 838.5,-296.5 832.5,-296.5 826.5,-290.5 826.5,-284.5 826.5,-284.5 826.5,-214.25 826.5,-214.25 826.5,-208.25 832.5,-202.25 838.5,-202.25 838.5,-202.25 980.5,-202.25 980.5,-202.25 986.5,-202.25 992.5,-208.25 992.5,-214.25 992.5,-214.25 992.5,-284.5 992.5,-284.5 992.5,-290.5 986.5,-296.5 980.5,-296.5"/>
<text text-anchor="middle" x="909.5" y="-279.2" font-family="Helvetica,sans-Serif" font-size="14.00">1_U &lt;= 0.5</text>
<text text-anchor="middle" x="909.5" y="-261.95" font-family="Helvetica,sans-Serif" font-size="14.00">entropy = 0.909</text>
<text text-anchor="middle" x="909.5" y="-244.7" font-family="Helvetica,sans-Serif" font-size="14.00">samples = 2694</text>
<text text-anchor="middle" x="909.5" y="-227.45" font-family="Helvetica,sans-Serif" font-size="14.00">value = [2898, 1388]</text>
<text text-anchor="middle" x="909.5" y="-210.2" font-family="Helvetica,sans-Serif" font-size="14.00">class = Animal</text>
</g>
<!-- 14810&#45;&gt;14811 -->
<g id="edge17" class="edge">
<title>14810&#45;&gt;14811</title>
<path fill="none" stroke="black" d="M909.5,-332.32C909.5,-324.42 909.5,-316.13 909.5,-307.98"/>
<polygon fill="black" stroke="black" points="913,-308.12 909.5,-298.12 906,-308.12 913,-308.12"/>
</g>
<!-- 16192 -->
<g id="node25" class="node">
<title>16192</title>
<path fill="#eda876" stroke="black" d="M1241,-296.5C1241,-296.5 1108,-296.5 1108,-296.5 1102,-296.5 1096,-290.5 1096,-284.5 1096,-284.5 1096,-214.25 1096,-214.25 1096,-208.25 1102,-202.25 1108,-202.25 1108,-202.25 1241,-202.25 1241,-202.25 1247,-202.25 1253,-208.25 1253,-214.25 1253,-214.25 1253,-284.5 1253,-284.5 1253,-290.5 1247,-296.5 1241,-296.5"/>
<text text-anchor="middle" x="1174.5" y="-279.2" font-family="Helvetica,sans-Serif" font-size="14.00">19_C &lt;= 0.5</text>
<text text-anchor="middle" x="1174.5" y="-261.95" font-family="Helvetica,sans-Serif" font-size="14.00">entropy = 0.79</text>
<text text-anchor="middle" x="1174.5" y="-244.7" font-family="Helvetica,sans-Serif" font-size="14.00">samples = 1021</text>
<text text-anchor="middle" x="1174.5" y="-227.45" font-family="Helvetica,sans-Serif" font-size="14.00">value = [1251, 388]</text>
<text text-anchor="middle" x="1174.5" y="-210.2" font-family="Helvetica,sans-Serif" font-size="14.00">class = Animal</text>
</g>
<!-- 14810&#45;&gt;16192 -->
<g id="edge24" class="edge">
<title>14810&#45;&gt;16192</title>
<path fill="none" stroke="black" d="M992.98,-338.22C1022.43,-323.97 1055.63,-307.91 1085.51,-293.44"/>
<polygon fill="black" stroke="black" points="1086.66,-296.77 1094.14,-289.27 1083.61,-290.47 1086.66,-296.77"/>
</g>
<!-- 14812 -->
<g id="node19" class="node">
<title>14812</title>
<path fill="#eeac7c" stroke="black" d="M891,-166.25C891,-166.25 758,-166.25 758,-166.25 752,-166.25 746,-160.25 746,-154.25 746,-154.25 746,-84 746,-84 746,-78 752,-72 758,-72 758,-72 891,-72 891,-72 897,-72 903,-78 903,-84 903,-84 903,-154.25 903,-154.25 903,-160.25 897,-166.25 891,-166.25"/>
<text text-anchor="middle" x="824.5" y="-148.95" font-family="Helvetica,sans-Serif" font-size="14.00">9_A &lt;= 0.5</text>
<text text-anchor="middle" x="824.5" y="-131.7" font-family="Helvetica,sans-Serif" font-size="14.00">entropy = 0.816</text>
<text text-anchor="middle" x="824.5" y="-114.45" font-family="Helvetica,sans-Serif" font-size="14.00">samples = 1405</text>
<text text-anchor="middle" x="824.5" y="-97.2" font-family="Helvetica,sans-Serif" font-size="14.00">value = [1633, 554]</text>
<text text-anchor="middle" x="824.5" y="-79.95" font-family="Helvetica,sans-Serif" font-size="14.00">class = Animal</text>
</g>
<!-- 14811&#45;&gt;14812 -->
<g id="edge18" class="edge">
<title>14811&#45;&gt;14812</title>
<path fill="none" stroke="black" d="M878.81,-202.07C873.16,-193.54 867.2,-184.54 861.38,-175.77"/>
<polygon fill="black" stroke="black" points="864.42,-174.02 855.98,-167.62 858.59,-177.89 864.42,-174.02"/>
</g>
<!-- 15567 -->
<g id="node22" class="node">
<title>15567</title>
<path fill="#f6d4bc" stroke="black" d="M1066,-166.25C1066,-166.25 933,-166.25 933,-166.25 927,-166.25 921,-160.25 921,-154.25 921,-154.25 921,-84 921,-84 921,-78 927,-72 933,-72 933,-72 1066,-72 1066,-72 1072,-72 1078,-78 1078,-84 1078,-84 1078,-154.25 1078,-154.25 1078,-160.25 1072,-166.25 1066,-166.25"/>
<text text-anchor="middle" x="999.5" y="-148.95" font-family="Helvetica,sans-Serif" font-size="14.00">19_G &lt;= 0.5</text>
<text text-anchor="middle" x="999.5" y="-131.7" font-family="Helvetica,sans-Serif" font-size="14.00">entropy = 0.969</text>
<text text-anchor="middle" x="999.5" y="-114.45" font-family="Helvetica,sans-Serif" font-size="14.00">samples = 1289</text>
<text text-anchor="middle" x="999.5" y="-97.2" font-family="Helvetica,sans-Serif" font-size="14.00">value = [1265, 834]</text>
<text text-anchor="middle" x="999.5" y="-79.95" font-family="Helvetica,sans-Serif" font-size="14.00">class = Animal</text>
</g>
<!-- 14811&#45;&gt;15567 -->
<g id="edge21" class="edge">
<title>14811&#45;&gt;15567</title>
<path fill="none" stroke="black" d="M941.99,-202.07C947.98,-193.54 954.29,-184.54 960.45,-175.77"/>
<polygon fill="black" stroke="black" points="963.31,-177.79 966.19,-167.6 957.58,-173.77 963.31,-177.79"/>
</g>
<!-- 14813 -->
<g id="node20" class="node">
<title>14813</title>
<path fill="#c0c0c0" stroke="black" d="M782.5,-36C782.5,-36 752.5,-36 752.5,-36 746.5,-36 740.5,-30 740.5,-24 740.5,-24 740.5,-12 740.5,-12 740.5,-6 746.5,0 752.5,0 752.5,0 782.5,0 782.5,0 788.5,0 794.5,-6 794.5,-12 794.5,-12 794.5,-24 794.5,-24 794.5,-30 788.5,-36 782.5,-36"/>
<text text-anchor="middle" x="767.5" y="-13.32" font-family="Helvetica,sans-Serif" font-size="14.00">(...)</text>
</g>
<!-- 14812&#45;&gt;14813 -->
<g id="edge19" class="edge">
<title>14812&#45;&gt;14813</title>
<path fill="none" stroke="black" d="M797.84,-71.75C792.76,-62.93 787.6,-53.96 783.02,-45.99"/>
<polygon fill="black" stroke="black" points="786.15,-44.41 778.13,-37.48 780.08,-47.9 786.15,-44.41"/>
</g>
<!-- 15388 -->
<g id="node21" class="node">
<title>15388</title>
<path fill="#c0c0c0" stroke="black" d="M854.5,-36C854.5,-36 824.5,-36 824.5,-36 818.5,-36 812.5,-30 812.5,-24 812.5,-24 812.5,-12 812.5,-12 812.5,-6 818.5,0 824.5,0 824.5,0 854.5,0 854.5,0 860.5,0 866.5,-6 866.5,-12 866.5,-12 866.5,-24 866.5,-24 866.5,-30 860.5,-36 854.5,-36"/>
<text text-anchor="middle" x="839.5" y="-13.32" font-family="Helvetica,sans-Serif" font-size="14.00">(...)</text>
</g>
<!-- 14812&#45;&gt;15388 -->
<g id="edge20" class="edge">
<title>14812&#45;&gt;15388</title>
<path fill="none" stroke="black" d="M831.52,-71.75C832.78,-63.42 834.06,-54.97 835.21,-47.34"/>
<polygon fill="black" stroke="black" points="838.64,-48.08 836.67,-37.67 831.72,-47.03 838.64,-48.08"/>
</g>
<!-- 15568 -->
<g id="node23" class="node">
<title>15568</title>
<path fill="#c0c0c0" stroke="black" d="M957.5,-36C957.5,-36 927.5,-36 927.5,-36 921.5,-36 915.5,-30 915.5,-24 915.5,-24 915.5,-12 915.5,-12 915.5,-6 921.5,0 927.5,0 927.5,0 957.5,0 957.5,0 963.5,0 969.5,-6 969.5,-12 969.5,-12 969.5,-24 969.5,-24 969.5,-30 963.5,-36 957.5,-36"/>
<text text-anchor="middle" x="942.5" y="-13.32" font-family="Helvetica,sans-Serif" font-size="14.00">(...)</text>
</g>
<!-- 15567&#45;&gt;15568 -->
<g id="edge22" class="edge">
<title>15567&#45;&gt;15568</title>
<path fill="none" stroke="black" d="M972.84,-71.75C967.76,-62.93 962.6,-53.96 958.02,-45.99"/>
<polygon fill="black" stroke="black" points="961.15,-44.41 953.13,-37.48 955.08,-47.9 961.15,-44.41"/>
</g>
<!-- 16059 -->
<g id="node24" class="node">
<title>16059</title>
<path fill="#c0c0c0" stroke="black" d="M1029.5,-36C1029.5,-36 999.5,-36 999.5,-36 993.5,-36 987.5,-30 987.5,-24 987.5,-24 987.5,-12 987.5,-12 987.5,-6 993.5,0 999.5,0 999.5,0 1029.5,0 1029.5,0 1035.5,0 1041.5,-6 1041.5,-12 1041.5,-12 1041.5,-24 1041.5,-24 1041.5,-30 1035.5,-36 1029.5,-36"/>
<text text-anchor="middle" x="1014.5" y="-13.32" font-family="Helvetica,sans-Serif" font-size="14.00">(...)</text>
</g>
<!-- 15567&#45;&gt;16059 -->
<g id="edge23" class="edge">
<title>15567&#45;&gt;16059</title>
<path fill="none" stroke="black" d="M1006.52,-71.75C1007.78,-63.42 1009.06,-54.97 1010.21,-47.34"/>
<polygon fill="black" stroke="black" points="1013.64,-48.08 1011.67,-37.67 1006.72,-47.03 1013.64,-48.08"/>
</g>
<!-- 16193 -->
<g id="node26" class="node">
<title>16193</title>
<path fill="#eb9e66" stroke="black" d="M1241,-166.25C1241,-166.25 1108,-166.25 1108,-166.25 1102,-166.25 1096,-160.25 1096,-154.25 1096,-154.25 1096,-84 1096,-84 1096,-78 1102,-72 1108,-72 1108,-72 1241,-72 1241,-72 1247,-72 1253,-78 1253,-84 1253,-84 1253,-154.25 1253,-154.25 1253,-160.25 1247,-166.25 1241,-166.25"/>
<text text-anchor="middle" x="1174.5" y="-148.95" font-family="Helvetica,sans-Serif" font-size="14.00">10_C &lt;= 0.5</text>
<text text-anchor="middle" x="1174.5" y="-131.7" font-family="Helvetica,sans-Serif" font-size="14.00">entropy = 0.69</text>
<text text-anchor="middle" x="1174.5" y="-114.45" font-family="Helvetica,sans-Serif" font-size="14.00">samples = 765</text>
<text text-anchor="middle" x="1174.5" y="-97.2" font-family="Helvetica,sans-Serif" font-size="14.00">value = [1011, 229]</text>
<text text-anchor="middle" x="1174.5" y="-79.95" font-family="Helvetica,sans-Serif" font-size="14.00">class = Animal</text>
</g>
<!-- 16192&#45;&gt;16193 -->
<g id="edge25" class="edge">
<title>16192&#45;&gt;16193</title>
<path fill="none" stroke="black" d="M1174.5,-202.07C1174.5,-194.17 1174.5,-185.88 1174.5,-177.73"/>
<polygon fill="black" stroke="black" points="1178,-177.87 1174.5,-167.87 1171,-177.87 1178,-177.87"/>
</g>
<!-- 16526 -->
<g id="node29" class="node">
<title>16526</title>
<path fill="#f6d4bc" stroke="black" d="M1407.5,-166.25C1407.5,-166.25 1283.5,-166.25 1283.5,-166.25 1277.5,-166.25 1271.5,-160.25 1271.5,-154.25 1271.5,-154.25 1271.5,-84 1271.5,-84 1271.5,-78 1277.5,-72 1283.5,-72 1283.5,-72 1407.5,-72 1407.5,-72 1413.5,-72 1419.5,-78 1419.5,-84 1419.5,-84 1419.5,-154.25 1419.5,-154.25 1419.5,-160.25 1413.5,-166.25 1407.5,-166.25"/>
<text text-anchor="middle" x="1345.5" y="-148.95" font-family="Helvetica,sans-Serif" font-size="14.00">17_G &lt;= 0.5</text>
<text text-anchor="middle" x="1345.5" y="-131.7" font-family="Helvetica,sans-Serif" font-size="14.00">entropy = 0.97</text>
<text text-anchor="middle" x="1345.5" y="-114.45" font-family="Helvetica,sans-Serif" font-size="14.00">samples = 256</text>
<text text-anchor="middle" x="1345.5" y="-97.2" font-family="Helvetica,sans-Serif" font-size="14.00">value = [240, 159]</text>
<text text-anchor="middle" x="1345.5" y="-79.95" font-family="Helvetica,sans-Serif" font-size="14.00">class = Animal</text>
</g>
<!-- 16192&#45;&gt;16526 -->
<g id="edge28" class="edge">
<title>16192&#45;&gt;16526</title>
<path fill="none" stroke="black" d="M1236.23,-202.07C1248.63,-192.78 1261.75,-182.94 1274.43,-173.43"/>
<polygon fill="black" stroke="black" points="1276.46,-176.28 1282.36,-167.48 1272.26,-170.68 1276.46,-176.28"/>
</g>
<!-- 16194 -->
<g id="node27" class="node">
<title>16194</title>
<path fill="#c0c0c0" stroke="black" d="M1148.5,-36C1148.5,-36 1118.5,-36 1118.5,-36 1112.5,-36 1106.5,-30 1106.5,-24 1106.5,-24 1106.5,-12 1106.5,-12 1106.5,-6 1112.5,0 1118.5,0 1118.5,0 1148.5,0 1148.5,0 1154.5,0 1160.5,-6 1160.5,-12 1160.5,-12 1160.5,-24 1160.5,-24 1160.5,-30 1154.5,-36 1148.5,-36"/>
<text text-anchor="middle" x="1133.5" y="-13.32" font-family="Helvetica,sans-Serif" font-size="14.00">(...)</text>
</g>
<!-- 16193&#45;&gt;16194 -->
<g id="edge26" class="edge">
<title>16193&#45;&gt;16194</title>
<path fill="none" stroke="black" d="M1155.32,-71.75C1151.79,-63.22 1148.21,-54.57 1145,-46.8"/>
<polygon fill="black" stroke="black" points="1148.24,-45.47 1141.18,-37.57 1141.77,-48.15 1148.24,-45.47"/>
</g>
<!-- 16447 -->
<g id="node28" class="node">
<title>16447</title>
<path fill="#c0c0c0" stroke="black" d="M1220.5,-36C1220.5,-36 1190.5,-36 1190.5,-36 1184.5,-36 1178.5,-30 1178.5,-24 1178.5,-24 1178.5,-12 1178.5,-12 1178.5,-6 1184.5,0 1190.5,0 1190.5,0 1220.5,0 1220.5,0 1226.5,0 1232.5,-6 1232.5,-12 1232.5,-12 1232.5,-24 1232.5,-24 1232.5,-30 1226.5,-36 1220.5,-36"/>
<text text-anchor="middle" x="1205.5" y="-13.32" font-family="Helvetica,sans-Serif" font-size="14.00">(...)</text>
</g>
<!-- 16193&#45;&gt;16447 -->
<g id="edge27" class="edge">
<title>16193&#45;&gt;16447</title>
<path fill="none" stroke="black" d="M1189,-71.75C1191.64,-63.32 1194.31,-54.77 1196.72,-47.07"/>
<polygon fill="black" stroke="black" points="1200.03,-48.21 1199.68,-37.62 1193.35,-46.12 1200.03,-48.21"/>
</g>
<!-- 16527 -->
<g id="node30" class="node">
<title>16527</title>
<path fill="#c0c0c0" stroke="black" d="M1324.5,-36C1324.5,-36 1294.5,-36 1294.5,-36 1288.5,-36 1282.5,-30 1282.5,-24 1282.5,-24 1282.5,-12 1282.5,-12 1282.5,-6 1288.5,0 1294.5,0 1294.5,0 1324.5,0 1324.5,0 1330.5,0 1336.5,-6 1336.5,-12 1336.5,-12 1336.5,-24 1336.5,-24 1336.5,-30 1330.5,-36 1324.5,-36"/>
<text text-anchor="middle" x="1309.5" y="-13.32" font-family="Helvetica,sans-Serif" font-size="14.00">(...)</text>
</g>
<!-- 16526&#45;&gt;16527 -->
<g id="edge29" class="edge">
<title>16526&#45;&gt;16527</title>
<path fill="none" stroke="black" d="M1328.66,-71.75C1325.56,-63.22 1322.42,-54.57 1319.6,-46.8"/>
<polygon fill="black" stroke="black" points="1322.96,-45.8 1316.25,-37.6 1316.38,-48.19 1322.96,-45.8"/>
</g>
<!-- 16622 -->
<g id="node31" class="node">
<title>16622</title>
<path fill="#c0c0c0" stroke="black" d="M1396.5,-36C1396.5,-36 1366.5,-36 1366.5,-36 1360.5,-36 1354.5,-30 1354.5,-24 1354.5,-24 1354.5,-12 1354.5,-12 1354.5,-6 1360.5,0 1366.5,0 1366.5,0 1396.5,0 1396.5,0 1402.5,0 1408.5,-6 1408.5,-12 1408.5,-12 1408.5,-24 1408.5,-24 1408.5,-30 1402.5,-36 1396.5,-36"/>
<text text-anchor="middle" x="1381.5" y="-13.32" font-family="Helvetica,sans-Serif" font-size="14.00">(...)</text>
</g>
<!-- 16526&#45;&gt;16622 -->
<g id="edge30" class="edge">
<title>16526&#45;&gt;16622</title>
<path fill="none" stroke="black" d="M1362.34,-71.75C1365.44,-63.22 1368.58,-54.57 1371.4,-46.8"/>
<polygon fill="black" stroke="black" points="1374.62,-48.19 1374.75,-37.6 1368.04,-45.8 1374.62,-48.19"/>
</g>
</g>
</svg>
