<?xml version="1.0" encoding="UTF-8" standalone="no"?>
<!DOCTYPE svg PUBLIC "-//W3C//DTD SVG 1.1//EN"
 "http://www.w3.org/Graphics/SVG/1.1/DTD/svg11.dtd">
<!-- Generated by graphviz version 12.0.0 (20240803.0821)
 -->
<!-- Title: Tree Pages: 1 -->
<svg width="1419pt" height="565pt"
 viewBox="0.00 0.00 1418.50 565.00" xmlns="http://www.w3.org/2000/svg" xmlns:xlink="http://www.w3.org/1999/xlink">
<g id="graph0" class="graph" transform="scale(1 1) rotate(0) translate(4 561)">
<title>Tree</title>
<polygon fill="white" stroke="none" points="-4,4 -4,-561 1414.5,-561 1414.5,4 -4,4"/>
<!-- 0 -->
<g id="node1" class="node">
<title>0</title>
<path fill="#fffefe" stroke="black" d="M785,-557C785,-557 625,-557 625,-557 619,-557 613,-551 613,-545 613,-545 613,-474.75 613,-474.75 613,-468.75 619,-462.75 625,-462.75 625,-462.75 785,-462.75 785,-462.75 791,-462.75 797,-468.75 797,-474.75 797,-474.75 797,-545 797,-545 797,-551 791,-557 785,-557"/>
<text text-anchor="middle" x="705" y="-539.7" font-family="Helvetica,sans-Serif" font-size="14.00">18_C &lt;= 0.5</text>
<text text-anchor="middle" x="705" y="-522.45" font-family="Helvetica,sans-Serif" font-size="14.00">entropy = 1.0</text>
<text text-anchor="middle" x="705" y="-505.2" font-family="Helvetica,sans-Serif" font-size="14.00">samples = 38168</text>
<text text-anchor="middle" x="705" y="-487.95" font-family="Helvetica,sans-Serif" font-size="14.00">value = [30255, 30090]</text>
<text text-anchor="middle" x="705" y="-470.7" font-family="Helvetica,sans-Serif" font-size="14.00">class = Animal</text>
</g>
<!-- 1 -->
<g id="node2" class="node">
<title>1</title>
<path fill="#fbede3" stroke="black" d="M621,-426.75C621,-426.75 461,-426.75 461,-426.75 455,-426.75 449,-420.75 449,-414.75 449,-414.75 449,-344.5 449,-344.5 449,-338.5 455,-332.5 461,-332.5 461,-332.5 621,-332.5 621,-332.5 627,-332.5 633,-338.5 633,-344.5 633,-344.5 633,-414.75 633,-414.75 633,-420.75 627,-426.75 621,-426.75"/>
<text text-anchor="middle" x="541" y="-409.45" font-family="Helvetica,sans-Serif" font-size="14.00">22_U &lt;= 0.5</text>
<text text-anchor="middle" x="541" y="-392.2" font-family="Helvetica,sans-Serif" font-size="14.00">entropy = 0.996</text>
<text text-anchor="middle" x="541" y="-374.95" font-family="Helvetica,sans-Serif" font-size="14.00">samples = 27871</text>
<text text-anchor="middle" x="541" y="-357.7" font-family="Helvetica,sans-Serif" font-size="14.00">value = [23620, 20311]</text>
<text text-anchor="middle" x="541" y="-340.45" font-family="Helvetica,sans-Serif" font-size="14.00">class = Animal</text>
</g>
<!-- 0&#45;&gt;1 -->
<g id="edge1" class="edge">
<title>0&#45;&gt;1</title>
<path fill="none" stroke="black" d="M645.79,-462.57C633.91,-453.28 621.32,-443.44 609.16,-433.93"/>
<polygon fill="black" stroke="black" points="611.62,-431.41 601.59,-428.01 607.31,-436.92 611.62,-431.41"/>
<text text-anchor="middle" x="603.43" y="-447.21" font-family="Helvetica,sans-Serif" font-size="14.00">True</text>
</g>
<!-- 12896 -->
<g id="node17" class="node">
<title>12896</title>
<path fill="#bfdff7" stroke="black" d="M958,-426.75C958,-426.75 816,-426.75 816,-426.75 810,-426.75 804,-420.75 804,-414.75 804,-414.75 804,-344.5 804,-344.5 804,-338.5 810,-332.5 816,-332.5 816,-332.5 958,-332.5 958,-332.5 964,-332.5 970,-338.5 970,-344.5 970,-344.5 970,-414.75 970,-414.75 970,-420.75 964,-426.75 958,-426.75"/>
<text text-anchor="middle" x="887" y="-409.45" font-family="Helvetica,sans-Serif" font-size="14.00">19_C &lt;= 0.5</text>
<text text-anchor="middle" x="887" y="-392.2" font-family="Helvetica,sans-Serif" font-size="14.00">entropy = 0.973</text>
<text text-anchor="middle" x="887" y="-374.95" font-family="Helvetica,sans-Serif" font-size="14.00">samples = 10297</text>
<text text-anchor="middle" x="887" y="-357.7" font-family="Helvetica,sans-Serif" font-size="14.00">value = [6635, 9779]</text>
<text text-anchor="middle" x="887" y="-340.45" font-family="Helvetica,sans-Serif" font-size="14.00">class = Plant</text>
</g>
<!-- 0&#45;&gt;12896 -->
<g id="edge16" class="edge">
<title>0&#45;&gt;12896</title>
<path fill="none" stroke="black" d="M770.96,-462.39C784.19,-453.07 798.18,-443.22 811.69,-433.69"/>
<polygon fill="black" stroke="black" points="813.56,-436.66 819.72,-428.04 809.53,-430.94 813.56,-436.66"/>
<text text-anchor="middle" x="816.69" y="-447.12" font-family="Helvetica,sans-Serif" font-size="14.00">False</text>
</g>
<!-- 2 -->
<g id="node3" class="node">
<title>2</title>
<path fill="#f7fbfe" stroke="black" d="M365,-296.5C365,-296.5 205,-296.5 205,-296.5 199,-296.5 193,-290.5 193,-284.5 193,-284.5 193,-214.25 193,-214.25 193,-208.25 199,-202.25 205,-202.25 205,-202.25 365,-202.25 365,-202.25 371,-202.25 377,-208.25 377,-214.25 377,-214.25 377,-284.5 377,-284.5 377,-290.5 371,-296.5 365,-296.5"/>
<text text-anchor="middle" x="285" y="-279.2" font-family="Helvetica,sans-Serif" font-size="14.00">21_U &lt;= 0.5</text>
<text text-anchor="middle" x="285" y="-261.95" font-family="Helvetica,sans-Serif" font-size="14.00">entropy = 1.0</text>
<text text-anchor="middle" x="285" y="-244.7" font-family="Helvetica,sans-Serif" font-size="14.00">samples = 23949</text>
<text text-anchor="middle" x="285" y="-227.45" font-family="Helvetica,sans-Serif" font-size="14.00">value = [18523, 19325]</text>
<text text-anchor="middle" x="285" y="-210.2" font-family="Helvetica,sans-Serif" font-size="14.00">class = Plant</text>
</g>
<!-- 1&#45;&gt;2 -->
<g id="edge2" class="edge">
<title>1&#45;&gt;2</title>
<path fill="none" stroke="black" d="M448.58,-332.32C428.73,-322.38 407.64,-311.82 387.44,-301.69"/>
<polygon fill="black" stroke="black" points="389.15,-298.64 378.64,-297.29 386.01,-304.89 389.15,-298.64"/>
</g>
<!-- 11397 -->
<g id="node10" class="node">
<title>11397</title>
<path fill="#ea995f" stroke="black" d="M607.5,-296.5C607.5,-296.5 474.5,-296.5 474.5,-296.5 468.5,-296.5 462.5,-290.5 462.5,-284.5 462.5,-284.5 462.5,-214.25 462.5,-214.25 462.5,-208.25 468.5,-202.25 474.5,-202.25 474.5,-202.25 607.5,-202.25 607.5,-202.25 613.5,-202.25 619.5,-208.25 619.5,-214.25 619.5,-214.25 619.5,-284.5 619.5,-284.5 619.5,-290.5 613.5,-296.5 607.5,-296.5"/>
<text text-anchor="middle" x="541" y="-279.2" font-family="Helvetica,sans-Serif" font-size="14.00">23_U &lt;= 0.5</text>
<text text-anchor="middle" x="541" y="-261.95" font-family="Helvetica,sans-Serif" font-size="14.00">entropy = 0.639</text>
<text text-anchor="middle" x="541" y="-244.7" font-family="Helvetica,sans-Serif" font-size="14.00">samples = 3922</text>
<text text-anchor="middle" x="541" y="-227.45" font-family="Helvetica,sans-Serif" font-size="14.00">value = [5097, 986]</text>
<text text-anchor="middle" x="541" y="-210.2" font-family="Helvetica,sans-Serif" font-size="14.00">class = Animal</text>
</g>
<!-- 1&#45;&gt;11397 -->
<g id="edge9" class="edge">
<title>1&#45;&gt;11397</title>
<path fill="none" stroke="black" d="M541,-332.32C541,-324.42 541,-316.13 541,-307.98"/>
<polygon fill="black" stroke="black" points="544.5,-308.12 541,-298.12 537.5,-308.12 544.5,-308.12"/>
</g>
<!-- 3 -->
<g id="node4" class="node">
<title>3</title>
<path fill="#e3f1fb" stroke="black" d="M172,-166.25C172,-166.25 12,-166.25 12,-166.25 6,-166.25 0,-160.25 0,-154.25 0,-154.25 0,-84 0,-84 0,-78 6,-72 12,-72 12,-72 172,-72 172,-72 178,-72 184,-78 184,-84 184,-84 184,-154.25 184,-154.25 184,-160.25 178,-166.25 172,-166.25"/>
<text text-anchor="middle" x="92" y="-148.95" font-family="Helvetica,sans-Serif" font-size="14.00">23_C &lt;= 0.5</text>
<text text-anchor="middle" x="92" y="-131.7" font-family="Helvetica,sans-Serif" font-size="14.00">entropy = 0.996</text>
<text text-anchor="middle" x="92" y="-114.45" font-family="Helvetica,sans-Serif" font-size="14.00">samples = 18410</text>
<text text-anchor="middle" x="92" y="-97.2" font-family="Helvetica,sans-Serif" font-size="14.00">value = [13441, 15629]</text>
<text text-anchor="middle" x="92" y="-79.95" font-family="Helvetica,sans-Serif" font-size="14.00">class = Plant</text>
</g>
<!-- 2&#45;&gt;3 -->
<g id="edge3" class="edge">
<title>2&#45;&gt;3</title>
<path fill="none" stroke="black" d="M215.05,-201.89C200.89,-192.48 185.9,-182.53 171.45,-172.92"/>
<polygon fill="black" stroke="black" points="173.56,-170.12 163.3,-167.5 169.69,-175.95 173.56,-170.12"/>
</g>
<!-- 8964 -->
<g id="node7" class="node">
<title>8964</title>
<path fill="#f8ddc9" stroke="black" d="M356,-166.25C356,-166.25 214,-166.25 214,-166.25 208,-166.25 202,-160.25 202,-154.25 202,-154.25 202,-84 202,-84 202,-78 208,-72 214,-72 214,-72 356,-72 356,-72 362,-72 368,-78 368,-84 368,-84 368,-154.25 368,-154.25 368,-160.25 362,-166.25 356,-166.25"/>
<text text-anchor="middle" x="285" y="-148.95" font-family="Helvetica,sans-Serif" font-size="14.00">2_U &lt;= 0.5</text>
<text text-anchor="middle" x="285" y="-131.7" font-family="Helvetica,sans-Serif" font-size="14.00">entropy = 0.982</text>
<text text-anchor="middle" x="285" y="-114.45" font-family="Helvetica,sans-Serif" font-size="14.00">samples = 5539</text>
<text text-anchor="middle" x="285" y="-97.2" font-family="Helvetica,sans-Serif" font-size="14.00">value = [5082, 3696]</text>
<text text-anchor="middle" x="285" y="-79.95" font-family="Helvetica,sans-Serif" font-size="14.00">class = Animal</text>
</g>
<!-- 2&#45;&gt;8964 -->
<g id="edge6" class="edge">
<title>2&#45;&gt;8964</title>
<path fill="none" stroke="black" d="M285,-202.07C285,-194.17 285,-185.88 285,-177.73"/>
<polygon fill="black" stroke="black" points="288.5,-177.87 285,-167.87 281.5,-177.87 288.5,-177.87"/>
</g>
<!-- 4 -->
<g id="node5" class="node">
<title>4</title>
<path fill="#c0c0c0" stroke="black" d="M71,-36C71,-36 41,-36 41,-36 35,-36 29,-30 29,-24 29,-24 29,-12 29,-12 29,-6 35,0 41,0 41,0 71,0 71,0 77,0 83,-6 83,-12 83,-12 83,-24 83,-24 83,-30 77,-36 71,-36"/>
<text text-anchor="middle" x="56" y="-13.32" font-family="Helvetica,sans-Serif" font-size="14.00">(...)</text>
</g>
<!-- 3&#45;&gt;4 -->
<g id="edge4" class="edge">
<title>3&#45;&gt;4</title>
<path fill="none" stroke="black" d="M75.16,-71.75C72.06,-63.22 68.92,-54.57 66.1,-46.8"/>
<polygon fill="black" stroke="black" points="69.46,-45.8 62.75,-37.6 62.88,-48.19 69.46,-45.8"/>
</g>
<!-- 8665 -->
<g id="node6" class="node">
<title>8665</title>
<path fill="#c0c0c0" stroke="black" d="M143,-36C143,-36 113,-36 113,-36 107,-36 101,-30 101,-24 101,-24 101,-12 101,-12 101,-6 107,0 113,0 113,0 143,0 143,0 149,0 155,-6 155,-12 155,-12 155,-24 155,-24 155,-30 149,-36 143,-36"/>
<text text-anchor="middle" x="128" y="-13.32" font-family="Helvetica,sans-Serif" font-size="14.00">(...)</text>
</g>
<!-- 3&#45;&gt;8665 -->
<g id="edge5" class="edge">
<title>3&#45;&gt;8665</title>
<path fill="none" stroke="black" d="M108.84,-71.75C111.94,-63.22 115.08,-54.57 117.9,-46.8"/>
<polygon fill="black" stroke="black" points="121.12,-48.19 121.25,-37.6 114.54,-45.8 121.12,-48.19"/>
</g>
<!-- 8965 -->
<g id="node8" class="node">
<title>8965</title>
<path fill="#c0c0c0" stroke="black" d="M257,-36C257,-36 227,-36 227,-36 221,-36 215,-30 215,-24 215,-24 215,-12 215,-12 215,-6 221,0 227,0 227,0 257,0 257,0 263,0 269,-6 269,-12 269,-12 269,-24 269,-24 269,-30 263,-36 257,-36"/>
<text text-anchor="middle" x="242" y="-13.32" font-family="Helvetica,sans-Serif" font-size="14.00">(...)</text>
</g>
<!-- 8964&#45;&gt;8965 -->
<g id="edge7" class="edge">
<title>8964&#45;&gt;8965</title>
<path fill="none" stroke="black" d="M264.88,-71.75C261.14,-63.12 257.34,-54.36 253.94,-46.53"/>
<polygon fill="black" stroke="black" points="257.24,-45.34 250.05,-37.56 250.82,-48.13 257.24,-45.34"/>
</g>
<!-- 10730 -->
<g id="node9" class="node">
<title>10730</title>
<path fill="#c0c0c0" stroke="black" d="M329,-36C329,-36 299,-36 299,-36 293,-36 287,-30 287,-24 287,-24 287,-12 287,-12 287,-6 293,0 299,0 299,0 329,0 329,0 335,0 341,-6 341,-12 341,-12 341,-24 341,-24 341,-30 335,-36 329,-36"/>
<text text-anchor="middle" x="314" y="-13.32" font-family="Helvetica,sans-Serif" font-size="14.00">(...)</text>
</g>
<!-- 8964&#45;&gt;10730 -->
<g id="edge8" class="edge">
<title>8964&#45;&gt;10730</title>
<path fill="none" stroke="black" d="M298.57,-71.75C301.03,-63.32 303.54,-54.77 305.79,-47.07"/>
<polygon fill="black" stroke="black" points="309.1,-48.21 308.55,-37.63 302.38,-46.24 309.1,-48.21"/>
</g>
<!-- 11398 -->
<g id="node11" class="node">
<title>11398</title>
<path fill="#ea9a61" stroke="black" d="M531.5,-166.25C531.5,-166.25 398.5,-166.25 398.5,-166.25 392.5,-166.25 386.5,-160.25 386.5,-154.25 386.5,-154.25 386.5,-84 386.5,-84 386.5,-78 392.5,-72 398.5,-72 398.5,-72 531.5,-72 531.5,-72 537.5,-72 543.5,-78 543.5,-84 543.5,-84 543.5,-154.25 543.5,-154.25 543.5,-160.25 537.5,-166.25 531.5,-166.25"/>
<text text-anchor="middle" x="465" y="-148.95" font-family="Helvetica,sans-Serif" font-size="14.00">14_C &lt;= 0.5</text>
<text text-anchor="middle" x="465" y="-131.7" font-family="Helvetica,sans-Serif" font-size="14.00">entropy = 0.653</text>
<text text-anchor="middle" x="465" y="-114.45" font-family="Helvetica,sans-Serif" font-size="14.00">samples = 3595</text>
<text text-anchor="middle" x="465" y="-97.2" font-family="Helvetica,sans-Serif" font-size="14.00">value = [4634, 934]</text>
<text text-anchor="middle" x="465" y="-79.95" font-family="Helvetica,sans-Serif" font-size="14.00">class = Animal</text>
</g>
<!-- 11397&#45;&gt;11398 -->
<g id="edge10" class="edge">
<title>11397&#45;&gt;11398</title>
<path fill="none" stroke="black" d="M513.56,-202.07C508.56,-193.63 503.29,-184.74 498.14,-176.05"/>
<polygon fill="black" stroke="black" points="501.28,-174.48 493.17,-167.66 495.26,-178.05 501.28,-174.48"/>
</g>
<!-- 12793 -->
<g id="node14" class="node">
<title>12793</title>
<path fill="#e88f4f" stroke="black" d="M688.5,-166.25C688.5,-166.25 573.5,-166.25 573.5,-166.25 567.5,-166.25 561.5,-160.25 561.5,-154.25 561.5,-154.25 561.5,-84 561.5,-84 561.5,-78 567.5,-72 573.5,-72 573.5,-72 688.5,-72 688.5,-72 694.5,-72 700.5,-78 700.5,-84 700.5,-84 700.5,-154.25 700.5,-154.25 700.5,-160.25 694.5,-166.25 688.5,-166.25"/>
<text text-anchor="middle" x="631" y="-148.95" font-family="Helvetica,sans-Serif" font-size="14.00">17_G &lt;= 0.5</text>
<text text-anchor="middle" x="631" y="-131.7" font-family="Helvetica,sans-Serif" font-size="14.00">entropy = 0.472</text>
<text text-anchor="middle" x="631" y="-114.45" font-family="Helvetica,sans-Serif" font-size="14.00">samples = 327</text>
<text text-anchor="middle" x="631" y="-97.2" font-family="Helvetica,sans-Serif" font-size="14.00">value = [463, 52]</text>
<text text-anchor="middle" x="631" y="-79.95" font-family="Helvetica,sans-Serif" font-size="14.00">class = Animal</text>
</g>
<!-- 11397&#45;&gt;12793 -->
<g id="edge13" class="edge">
<title>11397&#45;&gt;12793</title>
<path fill="none" stroke="black" d="M573.49,-202.07C579.48,-193.54 585.79,-184.54 591.95,-175.77"/>
<polygon fill="black" stroke="black" points="594.81,-177.79 597.69,-167.6 589.08,-173.77 594.81,-177.79"/>
</g>
<!-- 11399 -->
<g id="node12" class="node">
<title>11399</title>
<path fill="#c0c0c0" stroke="black" d="M419,-36C419,-36 389,-36 389,-36 383,-36 377,-30 377,-24 377,-24 377,-12 377,-12 377,-6 383,0 389,0 389,0 419,0 419,0 425,0 431,-6 431,-12 431,-12 431,-24 431,-24 431,-30 425,-36 419,-36"/>
<text text-anchor="middle" x="404" y="-13.32" font-family="Helvetica,sans-Serif" font-size="14.00">(...)</text>
</g>
<!-- 11398&#45;&gt;11399 -->
<g id="edge11" class="edge">
<title>11398&#45;&gt;11399</title>
<path fill="none" stroke="black" d="M436.46,-71.75C430.97,-62.83 425.39,-53.76 420.44,-45.72"/>
<polygon fill="black" stroke="black" points="423.58,-44.14 415.36,-37.46 417.62,-47.81 423.58,-44.14"/>
</g>
<!-- 12486 -->
<g id="node13" class="node">
<title>12486</title>
<path fill="#c0c0c0" stroke="black" d="M491,-36C491,-36 461,-36 461,-36 455,-36 449,-30 449,-24 449,-24 449,-12 449,-12 449,-6 455,0 461,0 461,0 491,0 491,0 497,0 503,-6 503,-12 503,-12 503,-24 503,-24 503,-30 497,-36 491,-36"/>
<text text-anchor="middle" x="476" y="-13.32" font-family="Helvetica,sans-Serif" font-size="14.00">(...)</text>
</g>
<!-- 11398&#45;&gt;12486 -->
<g id="edge12" class="edge">
<title>11398&#45;&gt;12486</title>
<path fill="none" stroke="black" d="M470.15,-71.75C471.06,-63.52 471.99,-55.17 472.82,-47.61"/>
<polygon fill="black" stroke="black" points="476.3,-48 473.93,-37.68 469.35,-47.23 476.3,-48"/>
</g>
<!-- 12794 -->
<g id="node15" class="node">
<title>12794</title>
<path fill="#c0c0c0" stroke="black" d="M587,-36C587,-36 557,-36 557,-36 551,-36 545,-30 545,-24 545,-24 545,-12 545,-12 545,-6 551,0 557,0 557,0 587,0 587,0 593,0 599,-6 599,-12 599,-12 599,-24 599,-24 599,-30 593,-36 587,-36"/>
<text text-anchor="middle" x="572" y="-13.32" font-family="Helvetica,sans-Serif" font-size="14.00">(...)</text>
</g>
<!-- 12793&#45;&gt;12794 -->
<g id="edge14" class="edge">
<title>12793&#45;&gt;12794</title>
<path fill="none" stroke="black" d="M603.4,-71.75C598.15,-62.93 592.81,-53.96 588.06,-45.99"/>
<polygon fill="black" stroke="black" points="591.12,-44.28 583,-37.47 585.1,-47.86 591.12,-44.28"/>
</g>
<!-- 12857 -->
<g id="node16" class="node">
<title>12857</title>
<path fill="#c0c0c0" stroke="black" d="M659,-36C659,-36 629,-36 629,-36 623,-36 617,-30 617,-24 617,-24 617,-12 617,-12 617,-6 623,0 629,0 629,0 659,0 659,0 665,0 671,-6 671,-12 671,-12 671,-24 671,-24 671,-30 665,-36 659,-36"/>
<text text-anchor="middle" x="644" y="-13.32" font-family="Helvetica,sans-Serif" font-size="14.00">(...)</text>
</g>
<!-- 12793&#45;&gt;12857 -->
<g id="edge15" class="edge">
<title>12793&#45;&gt;12857</title>
<path fill="none" stroke="black" d="M637.08,-71.75C638.17,-63.42 639.28,-54.97 640.28,-47.34"/>
<polygon fill="black" stroke="black" points="643.72,-48.04 641.55,-37.67 636.78,-47.13 643.72,-48.04"/>
</g>
<!-- 12897 -->
<g id="node18" class="node">
<title>12897</title>
<path fill="#f3f9fd" stroke="black" d="M958,-296.5C958,-296.5 816,-296.5 816,-296.5 810,-296.5 804,-290.5 804,-284.5 804,-284.5 804,-214.25 804,-214.25 804,-208.25 810,-202.25 816,-202.25 816,-202.25 958,-202.25 958,-202.25 964,-202.25 970,-208.25 970,-214.25 970,-214.25 970,-284.5 970,-284.5 970,-290.5 964,-296.5 958,-296.5"/>
<text text-anchor="middle" x="887" y="-279.2" font-family="Helvetica,sans-Serif" font-size="14.00">22_U &lt;= 0.5</text>
<text text-anchor="middle" x="887" y="-261.95" font-family="Helvetica,sans-Serif" font-size="14.00">entropy = 0.999</text>
<text text-anchor="middle" x="887" y="-244.7" font-family="Helvetica,sans-Serif" font-size="14.00">samples = 6277</text>
<text text-anchor="middle" x="887" y="-227.45" font-family="Helvetica,sans-Serif" font-size="14.00">value = [4838, 5141]</text>
<text text-anchor="middle" x="887" y="-210.2" font-family="Helvetica,sans-Serif" font-size="14.00">class = Plant</text>
</g>
<!-- 12896&#45;&gt;12897 -->
<g id="edge17" class="edge">
<title>12896&#45;&gt;12897</title>
<path fill="none" stroke="black" d="M887,-332.32C887,-324.42 887,-316.13 887,-307.98"/>
<polygon fill="black" stroke="black" points="890.5,-308.12 887,-298.12 883.5,-308.12 890.5,-308.12"/>
</g>
<!-- 15682 -->
<g id="node25" class="node">
<title>15682</title>
<path fill="#86c3ef" stroke="black" d="M1228,-296.5C1228,-296.5 1086,-296.5 1086,-296.5 1080,-296.5 1074,-290.5 1074,-284.5 1074,-284.5 1074,-214.25 1074,-214.25 1074,-208.25 1080,-202.25 1086,-202.25 1086,-202.25 1228,-202.25 1228,-202.25 1234,-202.25 1240,-208.25 1240,-214.25 1240,-214.25 1240,-284.5 1240,-284.5 1240,-290.5 1234,-296.5 1228,-296.5"/>
<text text-anchor="middle" x="1157" y="-279.2" font-family="Helvetica,sans-Serif" font-size="14.00">1_U &lt;= 0.5</text>
<text text-anchor="middle" x="1157" y="-261.95" font-family="Helvetica,sans-Serif" font-size="14.00">entropy = 0.854</text>
<text text-anchor="middle" x="1157" y="-244.7" font-family="Helvetica,sans-Serif" font-size="14.00">samples = 4020</text>
<text text-anchor="middle" x="1157" y="-227.45" font-family="Helvetica,sans-Serif" font-size="14.00">value = [1797, 4638]</text>
<text text-anchor="middle" x="1157" y="-210.2" font-family="Helvetica,sans-Serif" font-size="14.00">class = Plant</text>
</g>
<!-- 12896&#45;&gt;15682 -->
<g id="edge24" class="edge">
<title>12896&#45;&gt;15682</title>
<path fill="none" stroke="black" d="M970.21,-339.1C999.72,-325.08 1033.13,-309.21 1063.45,-294.81"/>
<polygon fill="black" stroke="black" points="1064.7,-298.09 1072.23,-290.64 1061.7,-291.77 1064.7,-298.09"/>
</g>
<!-- 12898 -->
<g id="node19" class="node">
<title>12898</title>
<path fill="#d3e9f9" stroke="black" d="M873,-166.25C873,-166.25 731,-166.25 731,-166.25 725,-166.25 719,-160.25 719,-154.25 719,-154.25 719,-84 719,-84 719,-78 725,-72 731,-72 731,-72 873,-72 873,-72 879,-72 885,-78 885,-84 885,-84 885,-154.25 885,-154.25 885,-160.25 879,-166.25 873,-166.25"/>
<text text-anchor="middle" x="802" y="-148.95" font-family="Helvetica,sans-Serif" font-size="14.00">11_G &lt;= 0.5</text>
<text text-anchor="middle" x="802" y="-131.7" font-family="Helvetica,sans-Serif" font-size="14.00">entropy = 0.989</text>
<text text-anchor="middle" x="802" y="-114.45" font-family="Helvetica,sans-Serif" font-size="14.00">samples = 5433</text>
<text text-anchor="middle" x="802" y="-97.2" font-family="Helvetica,sans-Serif" font-size="14.00">value = [3775, 4860]</text>
<text text-anchor="middle" x="802" y="-79.95" font-family="Helvetica,sans-Serif" font-size="14.00">class = Plant</text>
</g>
<!-- 12897&#45;&gt;12898 -->
<g id="edge18" class="edge">
<title>12897&#45;&gt;12898</title>
<path fill="none" stroke="black" d="M856.31,-202.07C850.66,-193.54 844.7,-184.54 838.88,-175.77"/>
<polygon fill="black" stroke="black" points="841.92,-174.02 833.48,-167.62 836.09,-177.89 841.92,-174.02"/>
</g>
<!-- 15427 -->
<g id="node22" class="node">
<title>15427</title>
<path fill="#eca26d" stroke="black" d="M1048.5,-166.25C1048.5,-166.25 915.5,-166.25 915.5,-166.25 909.5,-166.25 903.5,-160.25 903.5,-154.25 903.5,-154.25 903.5,-84 903.5,-84 903.5,-78 909.5,-72 915.5,-72 915.5,-72 1048.5,-72 1048.5,-72 1054.5,-72 1060.5,-78 1060.5,-84 1060.5,-84 1060.5,-154.25 1060.5,-154.25 1060.5,-160.25 1054.5,-166.25 1048.5,-166.25"/>
<text text-anchor="middle" x="982" y="-148.95" font-family="Helvetica,sans-Serif" font-size="14.00">23_G &lt;= 0.5</text>
<text text-anchor="middle" x="982" y="-131.7" font-family="Helvetica,sans-Serif" font-size="14.00">entropy = 0.74</text>
<text text-anchor="middle" x="982" y="-114.45" font-family="Helvetica,sans-Serif" font-size="14.00">samples = 844</text>
<text text-anchor="middle" x="982" y="-97.2" font-family="Helvetica,sans-Serif" font-size="14.00">value = [1063, 281]</text>
<text text-anchor="middle" x="982" y="-79.95" font-family="Helvetica,sans-Serif" font-size="14.00">class = Animal</text>
</g>
<!-- 12897&#45;&gt;15427 -->
<g id="edge21" class="edge">
<title>12897&#45;&gt;15427</title>
<path fill="none" stroke="black" d="M921.3,-202.07C927.69,-193.45 934.42,-184.35 940.99,-175.49"/>
<polygon fill="black" stroke="black" points="943.71,-177.69 946.85,-167.57 938.09,-173.53 943.71,-177.69"/>
</g>
<!-- 12899 -->
<g id="node20" class="node">
<title>12899</title>
<path fill="#c0c0c0" stroke="black" d="M763,-36C763,-36 733,-36 733,-36 727,-36 721,-30 721,-24 721,-24 721,-12 721,-12 721,-6 727,0 733,0 733,0 763,0 763,0 769,0 775,-6 775,-12 775,-12 775,-24 775,-24 775,-30 769,-36 763,-36"/>
<text text-anchor="middle" x="748" y="-13.32" font-family="Helvetica,sans-Serif" font-size="14.00">(...)</text>
</g>
<!-- 12898&#45;&gt;12899 -->
<g id="edge19" class="edge">
<title>12898&#45;&gt;12899</title>
<path fill="none" stroke="black" d="M776.74,-71.75C771.98,-63.03 767.16,-54.16 762.85,-46.26"/>
<polygon fill="black" stroke="black" points="765.94,-44.61 758.08,-37.5 759.79,-47.96 765.94,-44.61"/>
</g>
<!-- 14700 -->
<g id="node21" class="node">
<title>14700</title>
<path fill="#c0c0c0" stroke="black" d="M835,-36C835,-36 805,-36 805,-36 799,-36 793,-30 793,-24 793,-24 793,-12 793,-12 793,-6 799,0 805,0 805,0 835,0 835,0 841,0 847,-6 847,-12 847,-12 847,-24 847,-24 847,-30 841,-36 835,-36"/>
<text text-anchor="middle" x="820" y="-13.32" font-family="Helvetica,sans-Serif" font-size="14.00">(...)</text>
</g>
<!-- 12898&#45;&gt;14700 -->
<g id="edge20" class="edge">
<title>12898&#45;&gt;14700</title>
<path fill="none" stroke="black" d="M810.42,-71.75C811.93,-63.42 813.47,-54.97 814.85,-47.34"/>
<polygon fill="black" stroke="black" points="818.27,-48.13 816.61,-37.66 811.38,-46.88 818.27,-48.13"/>
</g>
<!-- 15428 -->
<g id="node23" class="node">
<title>15428</title>
<path fill="#c0c0c0" stroke="black" d="M940,-36C940,-36 910,-36 910,-36 904,-36 898,-30 898,-24 898,-24 898,-12 898,-12 898,-6 904,0 910,0 910,0 940,0 940,0 946,0 952,-6 952,-12 952,-12 952,-24 952,-24 952,-30 946,-36 940,-36"/>
<text text-anchor="middle" x="925" y="-13.32" font-family="Helvetica,sans-Serif" font-size="14.00">(...)</text>
</g>
<!-- 15427&#45;&gt;15428 -->
<g id="edge22" class="edge">
<title>15427&#45;&gt;15428</title>
<path fill="none" stroke="black" d="M955.34,-71.75C950.26,-62.93 945.1,-53.96 940.52,-45.99"/>
<polygon fill="black" stroke="black" points="943.65,-44.41 935.63,-37.48 937.58,-47.9 943.65,-44.41"/>
</g>
<!-- 15663 -->
<g id="node24" class="node">
<title>15663</title>
<path fill="#c0c0c0" stroke="black" d="M1012,-36C1012,-36 982,-36 982,-36 976,-36 970,-30 970,-24 970,-24 970,-12 970,-12 970,-6 976,0 982,0 982,0 1012,0 1012,0 1018,0 1024,-6 1024,-12 1024,-12 1024,-24 1024,-24 1024,-30 1018,-36 1012,-36"/>
<text text-anchor="middle" x="997" y="-13.32" font-family="Helvetica,sans-Serif" font-size="14.00">(...)</text>
</g>
<!-- 15427&#45;&gt;15663 -->
<g id="edge23" class="edge">
<title>15427&#45;&gt;15663</title>
<path fill="none" stroke="black" d="M989.02,-71.75C990.28,-63.42 991.56,-54.97 992.71,-47.34"/>
<polygon fill="black" stroke="black" points="996.14,-48.08 994.17,-37.67 989.22,-47.03 996.14,-48.08"/>
</g>
<!-- 15683 -->
<g id="node26" class="node">
<title>15683</title>
<path fill="#e7f3fc" stroke="black" d="M1223.5,-166.25C1223.5,-166.25 1090.5,-166.25 1090.5,-166.25 1084.5,-166.25 1078.5,-160.25 1078.5,-154.25 1078.5,-154.25 1078.5,-84 1078.5,-84 1078.5,-78 1084.5,-72 1090.5,-72 1090.5,-72 1223.5,-72 1223.5,-72 1229.5,-72 1235.5,-78 1235.5,-84 1235.5,-84 1235.5,-154.25 1235.5,-154.25 1235.5,-160.25 1229.5,-166.25 1223.5,-166.25"/>
<text text-anchor="middle" x="1157" y="-148.95" font-family="Helvetica,sans-Serif" font-size="14.00">20_G &lt;= 0.5</text>
<text text-anchor="middle" x="1157" y="-131.7" font-family="Helvetica,sans-Serif" font-size="14.00">entropy = 0.997</text>
<text text-anchor="middle" x="1157" y="-114.45" font-family="Helvetica,sans-Serif" font-size="14.00">samples = 1296</text>
<text text-anchor="middle" x="1157" y="-97.2" font-family="Helvetica,sans-Serif" font-size="14.00">value = [961, 1094]</text>
<text text-anchor="middle" x="1157" y="-79.95" font-family="Helvetica,sans-Serif" font-size="14.00">class = Plant</text>
</g>
<!-- 15682&#45;&gt;15683 -->
<g id="edge25" class="edge">
<title>15682&#45;&gt;15683</title>
<path fill="none" stroke="black" d="M1157,-202.07C1157,-194.17 1157,-185.88 1157,-177.73"/>
<polygon fill="black" stroke="black" points="1160.5,-177.87 1157,-167.87 1153.5,-177.87 1160.5,-177.87"/>
</g>
<!-- 16198 -->
<g id="node29" class="node">
<title>16198</title>
<path fill="#68b4eb" stroke="black" d="M1398.5,-166.25C1398.5,-166.25 1265.5,-166.25 1265.5,-166.25 1259.5,-166.25 1253.5,-160.25 1253.5,-154.25 1253.5,-154.25 1253.5,-84 1253.5,-84 1253.5,-78 1259.5,-72 1265.5,-72 1265.5,-72 1398.5,-72 1398.5,-72 1404.5,-72 1410.5,-78 1410.5,-84 1410.5,-84 1410.5,-154.25 1410.5,-154.25 1410.5,-160.25 1404.5,-166.25 1398.5,-166.25"/>
<text text-anchor="middle" x="1332" y="-148.95" font-family="Helvetica,sans-Serif" font-size="14.00">13_C &lt;= 0.5</text>
<text text-anchor="middle" x="1332" y="-131.7" font-family="Helvetica,sans-Serif" font-size="14.00">entropy = 0.703</text>
<text text-anchor="middle" x="1332" y="-114.45" font-family="Helvetica,sans-Serif" font-size="14.00">samples = 2724</text>
<text text-anchor="middle" x="1332" y="-97.2" font-family="Helvetica,sans-Serif" font-size="14.00">value = [836, 3544]</text>
<text text-anchor="middle" x="1332" y="-79.95" font-family="Helvetica,sans-Serif" font-size="14.00">class = Plant</text>
</g>
<!-- 15682&#45;&gt;16198 -->
<g id="edge28" class="edge">
<title>15682&#45;&gt;16198</title>
<path fill="none" stroke="black" d="M1220.18,-202.07C1232.99,-192.69 1246.55,-182.75 1259.64,-173.15"/>
<polygon fill="black" stroke="black" points="1261.4,-176.2 1267.4,-167.47 1257.26,-170.56 1261.4,-176.2"/>
</g>
<!-- 15684 -->
<g id="node27" class="node">
<title>15684</title>
<path fill="#c0c0c0" stroke="black" d="M1133,-36C1133,-36 1103,-36 1103,-36 1097,-36 1091,-30 1091,-24 1091,-24 1091,-12 1091,-12 1091,-6 1097,0 1103,0 1103,0 1133,0 1133,0 1139,0 1145,-6 1145,-12 1145,-12 1145,-24 1145,-24 1145,-30 1139,-36 1133,-36"/>
<text text-anchor="middle" x="1118" y="-13.32" font-family="Helvetica,sans-Serif" font-size="14.00">(...)</text>
</g>
<!-- 15683&#45;&gt;15684 -->
<g id="edge26" class="edge">
<title>15683&#45;&gt;15684</title>
<path fill="none" stroke="black" d="M1138.76,-71.75C1135.4,-63.22 1131.99,-54.57 1128.94,-46.8"/>
<polygon fill="black" stroke="black" points="1132.23,-45.61 1125.31,-37.58 1125.71,-48.17 1132.23,-45.61"/>
</g>
<!-- 16101 -->
<g id="node28" class="node">
<title>16101</title>
<path fill="#c0c0c0" stroke="black" d="M1205,-36C1205,-36 1175,-36 1175,-36 1169,-36 1163,-30 1163,-24 1163,-24 1163,-12 1163,-12 1163,-6 1169,0 1175,0 1175,0 1205,0 1205,0 1211,0 1217,-6 1217,-12 1217,-12 1217,-24 1217,-24 1217,-30 1211,-36 1205,-36"/>
<text text-anchor="middle" x="1190" y="-13.32" font-family="Helvetica,sans-Serif" font-size="14.00">(...)</text>
</g>
<!-- 15683&#45;&gt;16101 -->
<g id="edge27" class="edge">
<title>15683&#45;&gt;16101</title>
<path fill="none" stroke="black" d="M1172.44,-71.75C1175.24,-63.32 1178.09,-54.77 1180.66,-47.07"/>
<polygon fill="black" stroke="black" points="1183.97,-48.2 1183.8,-37.61 1177.33,-45.99 1183.97,-48.2"/>
</g>
<!-- 16199 -->
<g id="node30" class="node">
<title>16199</title>
<path fill="#c0c0c0" stroke="black" d="M1311,-36C1311,-36 1281,-36 1281,-36 1275,-36 1269,-30 1269,-24 1269,-24 1269,-12 1269,-12 1269,-6 1275,0 1281,0 1281,0 1311,0 1311,0 1317,0 1323,-6 1323,-12 1323,-12 1323,-24 1323,-24 1323,-30 1317,-36 1311,-36"/>
<text text-anchor="middle" x="1296" y="-13.32" font-family="Helvetica,sans-Serif" font-size="14.00">(...)</text>
</g>
<!-- 16198&#45;&gt;16199 -->
<g id="edge29" class="edge">
<title>16198&#45;&gt;16199</title>
<path fill="none" stroke="black" d="M1315.16,-71.75C1312.06,-63.22 1308.92,-54.57 1306.1,-46.8"/>
<polygon fill="black" stroke="black" points="1309.46,-45.8 1302.75,-37.6 1302.88,-48.19 1309.46,-45.8"/>
</g>
<!-- 16556 -->
<g id="node31" class="node">
<title>16556</title>
<path fill="#c0c0c0" stroke="black" d="M1383,-36C1383,-36 1353,-36 1353,-36 1347,-36 1341,-30 1341,-24 1341,-24 1341,-12 1341,-12 1341,-6 1347,0 1353,0 1353,0 1383,0 1383,0 1389,0 1395,-6 1395,-12 1395,-12 1395,-24 1395,-24 1395,-30 1389,-36 1383,-36"/>
<text text-anchor="middle" x="1368" y="-13.32" font-family="Helvetica,sans-Serif" font-size="14.00">(...)</text>
</g>
<!-- 16198&#45;&gt;16556 -->
<g id="edge30" class="edge">
<title>16198&#45;&gt;16556</title>
<path fill="none" stroke="black" d="M1348.84,-71.75C1351.94,-63.22 1355.08,-54.57 1357.9,-46.8"/>
<polygon fill="black" stroke="black" points="1361.12,-48.19 1361.25,-37.6 1354.54,-45.8 1361.12,-48.19"/>
</g>
</g>
</svg>
