<?xml version="1.0" encoding="UTF-8" standalone="no"?>
<!DOCTYPE svg PUBLIC "-//W3C//DTD SVG 1.1//EN"
 "http://www.w3.org/Graphics/SVG/1.1/DTD/svg11.dtd">
<!-- Generated by graphviz version 12.0.0 (20240803.0821)
 -->
<!-- Title: Tree Pages: 1 -->
<svg width="1418pt" height="565pt"
 viewBox="0.00 0.00 1418.38 565.00" xmlns="http://www.w3.org/2000/svg" xmlns:xlink="http://www.w3.org/1999/xlink">
<g id="graph0" class="graph" transform="scale(1 1) rotate(0) translate(4 561)">
<title>Tree</title>
<polygon fill="white" stroke="none" points="-4,4 -4,-561 1414.38,-561 1414.38,4 -4,4"/>
<!-- 0 -->
<g id="node1" class="node">
<title>0</title>
<path fill="#ffffff" stroke="black" d="M809,-557C809,-557 649,-557 649,-557 643,-557 637,-551 637,-545 637,-545 637,-474.75 637,-474.75 637,-468.75 643,-462.75 649,-462.75 649,-462.75 809,-462.75 809,-462.75 815,-462.75 821,-468.75 821,-474.75 821,-474.75 821,-545 821,-545 821,-551 815,-557 809,-557"/>
<text text-anchor="middle" x="729" y="-539.7" font-family="Helvetica,sans-Serif" font-size="14.00">8_G &lt;= 0.5</text>
<text text-anchor="middle" x="729" y="-522.45" font-family="Helvetica,sans-Serif" font-size="14.00">entropy = 1.0</text>
<text text-anchor="middle" x="729" y="-505.2" font-family="Helvetica,sans-Serif" font-size="14.00">samples = 38127</text>
<text text-anchor="middle" x="729" y="-487.95" font-family="Helvetica,sans-Serif" font-size="14.00">value = [30147, 30198]</text>
<text text-anchor="middle" x="729" y="-470.7" font-family="Helvetica,sans-Serif" font-size="14.00">class = Plant</text>
</g>
<!-- 1 -->
<g id="node2" class="node">
<title>1</title>
<path fill="#fae7d9" stroke="black" d="M634,-426.75C634,-426.75 474,-426.75 474,-426.75 468,-426.75 462,-420.75 462,-414.75 462,-414.75 462,-344.5 462,-344.5 462,-338.5 468,-332.5 474,-332.5 474,-332.5 634,-332.5 634,-332.5 640,-332.5 646,-338.5 646,-344.5 646,-344.5 646,-414.75 646,-414.75 646,-420.75 640,-426.75 634,-426.75"/>
<text text-anchor="middle" x="554" y="-409.45" font-family="Helvetica,sans-Serif" font-size="14.00">22_A &lt;= 0.5</text>
<text text-anchor="middle" x="554" y="-392.2" font-family="Helvetica,sans-Serif" font-size="14.00">entropy = 0.992</text>
<text text-anchor="middle" x="554" y="-374.95" font-family="Helvetica,sans-Serif" font-size="14.00">samples = 26235</text>
<text text-anchor="middle" x="554" y="-357.7" font-family="Helvetica,sans-Serif" font-size="14.00">value = [22949, 18530]</text>
<text text-anchor="middle" x="554" y="-340.45" font-family="Helvetica,sans-Serif" font-size="14.00">class = Animal</text>
</g>
<!-- 0&#45;&gt;1 -->
<g id="edge1" class="edge">
<title>0&#45;&gt;1</title>
<path fill="none" stroke="black" d="M665.82,-462.57C653.01,-453.19 639.45,-443.25 626.36,-433.65"/>
<polygon fill="black" stroke="black" points="628.74,-431.06 618.6,-427.97 624.6,-436.7 628.74,-431.06"/>
<text text-anchor="middle" x="621.19" y="-447.11" font-family="Helvetica,sans-Serif" font-size="14.00">True</text>
</g>
<!-- 12370 -->
<g id="node17" class="node">
<title>12370</title>
<path fill="#b3d9f5" stroke="black" d="M993.5,-426.75C993.5,-426.75 842.5,-426.75 842.5,-426.75 836.5,-426.75 830.5,-420.75 830.5,-414.75 830.5,-414.75 830.5,-344.5 830.5,-344.5 830.5,-338.5 836.5,-332.5 842.5,-332.5 842.5,-332.5 993.5,-332.5 993.5,-332.5 999.5,-332.5 1005.5,-338.5 1005.5,-344.5 1005.5,-344.5 1005.5,-414.75 1005.5,-414.75 1005.5,-420.75 999.5,-426.75 993.5,-426.75"/>
<text text-anchor="middle" x="918" y="-409.45" font-family="Helvetica,sans-Serif" font-size="14.00">23_U &lt;= 0.5</text>
<text text-anchor="middle" x="918" y="-392.2" font-family="Helvetica,sans-Serif" font-size="14.00">entropy = 0.959</text>
<text text-anchor="middle" x="918" y="-374.95" font-family="Helvetica,sans-Serif" font-size="14.00">samples = 11892</text>
<text text-anchor="middle" x="918" y="-357.7" font-family="Helvetica,sans-Serif" font-size="14.00">value = [7198, 11668]</text>
<text text-anchor="middle" x="918" y="-340.45" font-family="Helvetica,sans-Serif" font-size="14.00">class = Plant</text>
</g>
<!-- 0&#45;&gt;12370 -->
<g id="edge16" class="edge">
<title>0&#45;&gt;12370</title>
<path fill="none" stroke="black" d="M797.5,-462.39C811.37,-452.98 826.04,-443.03 840.2,-433.42"/>
<polygon fill="black" stroke="black" points="841.85,-436.53 848.16,-428.01 837.92,-430.73 841.85,-436.53"/>
<text text-anchor="middle" x="844.71" y="-447.04" font-family="Helvetica,sans-Serif" font-size="14.00">False</text>
</g>
<!-- 2 -->
<g id="node3" class="node">
<title>2</title>
<path fill="#fcf1e9" stroke="black" d="M365,-296.5C365,-296.5 205,-296.5 205,-296.5 199,-296.5 193,-290.5 193,-284.5 193,-284.5 193,-214.25 193,-214.25 193,-208.25 199,-202.25 205,-202.25 205,-202.25 365,-202.25 365,-202.25 371,-202.25 377,-208.25 377,-214.25 377,-214.25 377,-284.5 377,-284.5 377,-290.5 371,-296.5 365,-296.5"/>
<text text-anchor="middle" x="285" y="-279.2" font-family="Helvetica,sans-Serif" font-size="14.00">10_C &lt;= 0.5</text>
<text text-anchor="middle" x="285" y="-261.95" font-family="Helvetica,sans-Serif" font-size="14.00">entropy = 0.998</text>
<text text-anchor="middle" x="285" y="-244.7" font-family="Helvetica,sans-Serif" font-size="14.00">samples = 23136</text>
<text text-anchor="middle" x="285" y="-227.45" font-family="Helvetica,sans-Serif" font-size="14.00">value = [19351, 17231]</text>
<text text-anchor="middle" x="285" y="-210.2" font-family="Helvetica,sans-Serif" font-size="14.00">class = Animal</text>
</g>
<!-- 1&#45;&gt;2 -->
<g id="edge2" class="edge">
<title>1&#45;&gt;2</title>
<path fill="none" stroke="black" d="M461.8,-334.67C437.85,-323.25 411.9,-310.88 387.45,-299.22"/>
<polygon fill="black" stroke="black" points="388.98,-296.07 378.44,-294.93 385.96,-302.39 388.98,-296.07"/>
</g>
<!-- 10951 -->
<g id="node10" class="node">
<title>10951</title>
<path fill="#eeae80" stroke="black" d="M625,-296.5C625,-296.5 483,-296.5 483,-296.5 477,-296.5 471,-290.5 471,-284.5 471,-284.5 471,-214.25 471,-214.25 471,-208.25 477,-202.25 483,-202.25 483,-202.25 625,-202.25 625,-202.25 631,-202.25 637,-208.25 637,-214.25 637,-214.25 637,-284.5 637,-284.5 637,-290.5 631,-296.5 625,-296.5"/>
<text text-anchor="middle" x="554" y="-279.2" font-family="Helvetica,sans-Serif" font-size="14.00">3_A &lt;= 0.5</text>
<text text-anchor="middle" x="554" y="-261.95" font-family="Helvetica,sans-Serif" font-size="14.00">entropy = 0.835</text>
<text text-anchor="middle" x="554" y="-244.7" font-family="Helvetica,sans-Serif" font-size="14.00">samples = 3099</text>
<text text-anchor="middle" x="554" y="-227.45" font-family="Helvetica,sans-Serif" font-size="14.00">value = [3598, 1299]</text>
<text text-anchor="middle" x="554" y="-210.2" font-family="Helvetica,sans-Serif" font-size="14.00">class = Animal</text>
</g>
<!-- 1&#45;&gt;10951 -->
<g id="edge9" class="edge">
<title>1&#45;&gt;10951</title>
<path fill="none" stroke="black" d="M554,-332.32C554,-324.42 554,-316.13 554,-307.98"/>
<polygon fill="black" stroke="black" points="557.5,-308.12 554,-298.12 550.5,-308.12 557.5,-308.12"/>
</g>
<!-- 3 -->
<g id="node4" class="node">
<title>3</title>
<path fill="#fefaf7" stroke="black" d="M172,-166.25C172,-166.25 12,-166.25 12,-166.25 6,-166.25 0,-160.25 0,-154.25 0,-154.25 0,-84 0,-84 0,-78 6,-72 12,-72 12,-72 172,-72 172,-72 178,-72 184,-78 184,-84 184,-84 184,-154.25 184,-154.25 184,-160.25 178,-166.25 172,-166.25"/>
<text text-anchor="middle" x="92" y="-148.95" font-family="Helvetica,sans-Serif" font-size="14.00">22_G &lt;= 0.5</text>
<text text-anchor="middle" x="92" y="-131.7" font-family="Helvetica,sans-Serif" font-size="14.00">entropy = 1.0</text>
<text text-anchor="middle" x="92" y="-114.45" font-family="Helvetica,sans-Serif" font-size="14.00">samples = 18206</text>
<text text-anchor="middle" x="92" y="-97.2" font-family="Helvetica,sans-Serif" font-size="14.00">value = [14745, 14115]</text>
<text text-anchor="middle" x="92" y="-79.95" font-family="Helvetica,sans-Serif" font-size="14.00">class = Animal</text>
</g>
<!-- 2&#45;&gt;3 -->
<g id="edge3" class="edge">
<title>2&#45;&gt;3</title>
<path fill="none" stroke="black" d="M215.05,-201.89C200.89,-192.48 185.9,-182.53 171.45,-172.92"/>
<polygon fill="black" stroke="black" points="173.56,-170.12 163.3,-167.5 169.69,-175.95 173.56,-170.12"/>
</g>
<!-- 8528 -->
<g id="node7" class="node">
<title>8528</title>
<path fill="#f7d6bf" stroke="black" d="M356,-166.25C356,-166.25 214,-166.25 214,-166.25 208,-166.25 202,-160.25 202,-154.25 202,-154.25 202,-84 202,-84 202,-78 208,-72 214,-72 214,-72 356,-72 356,-72 362,-72 368,-78 368,-84 368,-84 368,-154.25 368,-154.25 368,-160.25 362,-166.25 356,-166.25"/>
<text text-anchor="middle" x="285" y="-148.95" font-family="Helvetica,sans-Serif" font-size="14.00">14_U &lt;= 0.5</text>
<text text-anchor="middle" x="285" y="-131.7" font-family="Helvetica,sans-Serif" font-size="14.00">entropy = 0.973</text>
<text text-anchor="middle" x="285" y="-114.45" font-family="Helvetica,sans-Serif" font-size="14.00">samples = 4930</text>
<text text-anchor="middle" x="285" y="-97.2" font-family="Helvetica,sans-Serif" font-size="14.00">value = [4606, 3116]</text>
<text text-anchor="middle" x="285" y="-79.95" font-family="Helvetica,sans-Serif" font-size="14.00">class = Animal</text>
</g>
<!-- 2&#45;&gt;8528 -->
<g id="edge6" class="edge">
<title>2&#45;&gt;8528</title>
<path fill="none" stroke="black" d="M285,-202.07C285,-194.17 285,-185.88 285,-177.73"/>
<polygon fill="black" stroke="black" points="288.5,-177.87 285,-167.87 281.5,-177.87 288.5,-177.87"/>
</g>
<!-- 4 -->
<g id="node5" class="node">
<title>4</title>
<path fill="#c0c0c0" stroke="black" d="M71,-36C71,-36 41,-36 41,-36 35,-36 29,-30 29,-24 29,-24 29,-12 29,-12 29,-6 35,0 41,0 41,0 71,0 71,0 77,0 83,-6 83,-12 83,-12 83,-24 83,-24 83,-30 77,-36 71,-36"/>
<text text-anchor="middle" x="56" y="-13.32" font-family="Helvetica,sans-Serif" font-size="14.00">(...)</text>
</g>
<!-- 3&#45;&gt;4 -->
<g id="edge4" class="edge">
<title>3&#45;&gt;4</title>
<path fill="none" stroke="black" d="M75.16,-71.75C72.06,-63.22 68.92,-54.57 66.1,-46.8"/>
<polygon fill="black" stroke="black" points="69.46,-45.8 62.75,-37.6 62.88,-48.19 69.46,-45.8"/>
</g>
<!-- 7463 -->
<g id="node6" class="node">
<title>7463</title>
<path fill="#c0c0c0" stroke="black" d="M143,-36C143,-36 113,-36 113,-36 107,-36 101,-30 101,-24 101,-24 101,-12 101,-12 101,-6 107,0 113,0 113,0 143,0 143,0 149,0 155,-6 155,-12 155,-12 155,-24 155,-24 155,-30 149,-36 143,-36"/>
<text text-anchor="middle" x="128" y="-13.32" font-family="Helvetica,sans-Serif" font-size="14.00">(...)</text>
</g>
<!-- 3&#45;&gt;7463 -->
<g id="edge5" class="edge">
<title>3&#45;&gt;7463</title>
<path fill="none" stroke="black" d="M108.84,-71.75C111.94,-63.22 115.08,-54.57 117.9,-46.8"/>
<polygon fill="black" stroke="black" points="121.12,-48.19 121.25,-37.6 114.54,-45.8 121.12,-48.19"/>
</g>
<!-- 8529 -->
<g id="node8" class="node">
<title>8529</title>
<path fill="#c0c0c0" stroke="black" d="M266,-36C266,-36 236,-36 236,-36 230,-36 224,-30 224,-24 224,-24 224,-12 224,-12 224,-6 230,0 236,0 236,0 266,0 266,0 272,0 278,-6 278,-12 278,-12 278,-24 278,-24 278,-30 272,-36 266,-36"/>
<text text-anchor="middle" x="251" y="-13.32" font-family="Helvetica,sans-Serif" font-size="14.00">(...)</text>
</g>
<!-- 8528&#45;&gt;8529 -->
<g id="edge7" class="edge">
<title>8528&#45;&gt;8529</title>
<path fill="none" stroke="black" d="M269.1,-71.75C266.17,-63.22 263.2,-54.57 260.53,-46.8"/>
<polygon fill="black" stroke="black" points="263.94,-45.93 257.38,-37.6 257.32,-48.2 263.94,-45.93"/>
</g>
<!-- 10250 -->
<g id="node9" class="node">
<title>10250</title>
<path fill="#c0c0c0" stroke="black" d="M338,-36C338,-36 308,-36 308,-36 302,-36 296,-30 296,-24 296,-24 296,-12 296,-12 296,-6 302,0 308,0 308,0 338,0 338,0 344,0 350,-6 350,-12 350,-12 350,-24 350,-24 350,-30 344,-36 338,-36"/>
<text text-anchor="middle" x="323" y="-13.32" font-family="Helvetica,sans-Serif" font-size="14.00">(...)</text>
</g>
<!-- 8528&#45;&gt;10250 -->
<g id="edge8" class="edge">
<title>8528&#45;&gt;10250</title>
<path fill="none" stroke="black" d="M302.78,-71.75C306.05,-63.22 309.37,-54.57 312.34,-46.8"/>
<polygon fill="black" stroke="black" points="315.56,-48.18 315.88,-37.59 309.03,-45.67 315.56,-48.18"/>
</g>
<!-- 10952 -->
<g id="node11" class="node">
<title>10952</title>
<path fill="#f0b78e" stroke="black" d="M540,-166.25C540,-166.25 398,-166.25 398,-166.25 392,-166.25 386,-160.25 386,-154.25 386,-154.25 386,-84 386,-84 386,-78 392,-72 398,-72 398,-72 540,-72 540,-72 546,-72 552,-78 552,-84 552,-84 552,-154.25 552,-154.25 552,-160.25 546,-166.25 540,-166.25"/>
<text text-anchor="middle" x="469" y="-148.95" font-family="Helvetica,sans-Serif" font-size="14.00">11_C &lt;= 0.5</text>
<text text-anchor="middle" x="469" y="-131.7" font-family="Helvetica,sans-Serif" font-size="14.00">entropy = 0.881</text>
<text text-anchor="middle" x="469" y="-114.45" font-family="Helvetica,sans-Serif" font-size="14.00">samples = 2188</text>
<text text-anchor="middle" x="469" y="-97.2" font-family="Helvetica,sans-Serif" font-size="14.00">value = [2415, 1035]</text>
<text text-anchor="middle" x="469" y="-79.95" font-family="Helvetica,sans-Serif" font-size="14.00">class = Animal</text>
</g>
<!-- 10951&#45;&gt;10952 -->
<g id="edge10" class="edge">
<title>10951&#45;&gt;10952</title>
<path fill="none" stroke="black" d="M523.31,-202.07C517.66,-193.54 511.7,-184.54 505.88,-175.77"/>
<polygon fill="black" stroke="black" points="508.92,-174.02 500.48,-167.62 503.09,-177.89 508.92,-174.02"/>
</g>
<!-- 12059 -->
<g id="node14" class="node">
<title>12059</title>
<path fill="#eb9d65" stroke="black" d="M715.5,-166.25C715.5,-166.25 582.5,-166.25 582.5,-166.25 576.5,-166.25 570.5,-160.25 570.5,-154.25 570.5,-154.25 570.5,-84 570.5,-84 570.5,-78 576.5,-72 582.5,-72 582.5,-72 715.5,-72 715.5,-72 721.5,-72 727.5,-78 727.5,-84 727.5,-84 727.5,-154.25 727.5,-154.25 727.5,-160.25 721.5,-166.25 715.5,-166.25"/>
<text text-anchor="middle" x="649" y="-148.95" font-family="Helvetica,sans-Serif" font-size="14.00">17_C &lt;= 0.5</text>
<text text-anchor="middle" x="649" y="-131.7" font-family="Helvetica,sans-Serif" font-size="14.00">entropy = 0.685</text>
<text text-anchor="middle" x="649" y="-114.45" font-family="Helvetica,sans-Serif" font-size="14.00">samples = 911</text>
<text text-anchor="middle" x="649" y="-97.2" font-family="Helvetica,sans-Serif" font-size="14.00">value = [1183, 264]</text>
<text text-anchor="middle" x="649" y="-79.95" font-family="Helvetica,sans-Serif" font-size="14.00">class = Animal</text>
</g>
<!-- 10951&#45;&gt;12059 -->
<g id="edge13" class="edge">
<title>10951&#45;&gt;12059</title>
<path fill="none" stroke="black" d="M588.3,-202.07C594.69,-193.45 601.42,-184.35 607.99,-175.49"/>
<polygon fill="black" stroke="black" points="610.71,-177.69 613.85,-167.57 605.09,-173.53 610.71,-177.69"/>
</g>
<!-- 10953 -->
<g id="node12" class="node">
<title>10953</title>
<path fill="#c0c0c0" stroke="black" d="M430,-36C430,-36 400,-36 400,-36 394,-36 388,-30 388,-24 388,-24 388,-12 388,-12 388,-6 394,0 400,0 400,0 430,0 430,0 436,0 442,-6 442,-12 442,-12 442,-24 442,-24 442,-30 436,-36 430,-36"/>
<text text-anchor="middle" x="415" y="-13.32" font-family="Helvetica,sans-Serif" font-size="14.00">(...)</text>
</g>
<!-- 10952&#45;&gt;10953 -->
<g id="edge11" class="edge">
<title>10952&#45;&gt;10953</title>
<path fill="none" stroke="black" d="M443.74,-71.75C438.98,-63.03 434.16,-54.16 429.85,-46.26"/>
<polygon fill="black" stroke="black" points="432.94,-44.61 425.08,-37.5 426.79,-47.96 432.94,-44.61"/>
</g>
<!-- 11822 -->
<g id="node13" class="node">
<title>11822</title>
<path fill="#c0c0c0" stroke="black" d="M502,-36C502,-36 472,-36 472,-36 466,-36 460,-30 460,-24 460,-24 460,-12 460,-12 460,-6 466,0 472,0 472,0 502,0 502,0 508,0 514,-6 514,-12 514,-12 514,-24 514,-24 514,-30 508,-36 502,-36"/>
<text text-anchor="middle" x="487" y="-13.32" font-family="Helvetica,sans-Serif" font-size="14.00">(...)</text>
</g>
<!-- 10952&#45;&gt;11822 -->
<g id="edge12" class="edge">
<title>10952&#45;&gt;11822</title>
<path fill="none" stroke="black" d="M477.42,-71.75C478.93,-63.42 480.47,-54.97 481.85,-47.34"/>
<polygon fill="black" stroke="black" points="485.27,-48.13 483.61,-37.66 478.38,-46.88 485.27,-48.13"/>
</g>
<!-- 12060 -->
<g id="node15" class="node">
<title>12060</title>
<path fill="#c0c0c0" stroke="black" d="M610,-36C610,-36 580,-36 580,-36 574,-36 568,-30 568,-24 568,-24 568,-12 568,-12 568,-6 574,0 580,0 580,0 610,0 610,0 616,0 622,-6 622,-12 622,-12 622,-24 622,-24 622,-30 616,-36 610,-36"/>
<text text-anchor="middle" x="595" y="-13.32" font-family="Helvetica,sans-Serif" font-size="14.00">(...)</text>
</g>
<!-- 12059&#45;&gt;12060 -->
<g id="edge14" class="edge">
<title>12059&#45;&gt;12060</title>
<path fill="none" stroke="black" d="M623.74,-71.75C618.98,-63.03 614.16,-54.16 609.85,-46.26"/>
<polygon fill="black" stroke="black" points="612.94,-44.61 605.08,-37.5 606.79,-47.96 612.94,-44.61"/>
</g>
<!-- 12321 -->
<g id="node16" class="node">
<title>12321</title>
<path fill="#c0c0c0" stroke="black" d="M682,-36C682,-36 652,-36 652,-36 646,-36 640,-30 640,-24 640,-24 640,-12 640,-12 640,-6 646,0 652,0 652,0 682,0 682,0 688,0 694,-6 694,-12 694,-12 694,-24 694,-24 694,-30 688,-36 682,-36"/>
<text text-anchor="middle" x="667" y="-13.32" font-family="Helvetica,sans-Serif" font-size="14.00">(...)</text>
</g>
<!-- 12059&#45;&gt;12321 -->
<g id="edge15" class="edge">
<title>12059&#45;&gt;12321</title>
<path fill="none" stroke="black" d="M657.42,-71.75C658.93,-63.42 660.47,-54.97 661.85,-47.34"/>
<polygon fill="black" stroke="black" points="665.27,-48.13 663.61,-37.66 658.38,-46.88 665.27,-48.13"/>
</g>
<!-- 12371 -->
<g id="node18" class="node">
<title>12371</title>
<path fill="#abd6f4" stroke="black" d="M993.5,-296.5C993.5,-296.5 842.5,-296.5 842.5,-296.5 836.5,-296.5 830.5,-290.5 830.5,-284.5 830.5,-284.5 830.5,-214.25 830.5,-214.25 830.5,-208.25 836.5,-202.25 842.5,-202.25 842.5,-202.25 993.5,-202.25 993.5,-202.25 999.5,-202.25 1005.5,-208.25 1005.5,-214.25 1005.5,-214.25 1005.5,-284.5 1005.5,-284.5 1005.5,-290.5 999.5,-296.5 993.5,-296.5"/>
<text text-anchor="middle" x="918" y="-279.2" font-family="Helvetica,sans-Serif" font-size="14.00">20_U &lt;= 0.5</text>
<text text-anchor="middle" x="918" y="-261.95" font-family="Helvetica,sans-Serif" font-size="14.00">entropy = 0.948</text>
<text text-anchor="middle" x="918" y="-244.7" font-family="Helvetica,sans-Serif" font-size="14.00">samples = 11425</text>
<text text-anchor="middle" x="918" y="-227.45" font-family="Helvetica,sans-Serif" font-size="14.00">value = [6633, 11474]</text>
<text text-anchor="middle" x="918" y="-210.2" font-family="Helvetica,sans-Serif" font-size="14.00">class = Plant</text>
</g>
<!-- 12370&#45;&gt;12371 -->
<g id="edge17" class="edge">
<title>12370&#45;&gt;12371</title>
<path fill="none" stroke="black" d="M918,-332.32C918,-324.42 918,-316.13 918,-307.98"/>
<polygon fill="black" stroke="black" points="921.5,-308.12 918,-298.12 914.5,-308.12 921.5,-308.12"/>
</g>
<!-- 16838 -->
<g id="node25" class="node">
<title>16838</title>
<path fill="#eeac7d" stroke="black" d="M1250,-296.5C1250,-296.5 1126,-296.5 1126,-296.5 1120,-296.5 1114,-290.5 1114,-284.5 1114,-284.5 1114,-214.25 1114,-214.25 1114,-208.25 1120,-202.25 1126,-202.25 1126,-202.25 1250,-202.25 1250,-202.25 1256,-202.25 1262,-208.25 1262,-214.25 1262,-214.25 1262,-284.5 1262,-284.5 1262,-290.5 1256,-296.5 1250,-296.5"/>
<text text-anchor="middle" x="1188" y="-279.2" font-family="Helvetica,sans-Serif" font-size="14.00">24_G &lt;= 0.5</text>
<text text-anchor="middle" x="1188" y="-261.95" font-family="Helvetica,sans-Serif" font-size="14.00">entropy = 0.82</text>
<text text-anchor="middle" x="1188" y="-244.7" font-family="Helvetica,sans-Serif" font-size="14.00">samples = 467</text>
<text text-anchor="middle" x="1188" y="-227.45" font-family="Helvetica,sans-Serif" font-size="14.00">value = [565, 194]</text>
<text text-anchor="middle" x="1188" y="-210.2" font-family="Helvetica,sans-Serif" font-size="14.00">class = Animal</text>
</g>
<!-- 12370&#45;&gt;16838 -->
<g id="edge24" class="edge">
<title>12370&#45;&gt;16838</title>
<path fill="none" stroke="black" d="M1005.66,-336.99C1037.06,-322.07 1072.38,-305.29 1103.51,-290.51"/>
<polygon fill="black" stroke="black" points="1105,-293.68 1112.53,-286.22 1101.99,-287.35 1105,-293.68"/>
</g>
<!-- 12372 -->
<g id="node19" class="node">
<title>12372</title>
<path fill="#cce6f8" stroke="black" d="M900,-166.25C900,-166.25 758,-166.25 758,-166.25 752,-166.25 746,-160.25 746,-154.25 746,-154.25 746,-84 746,-84 746,-78 752,-72 758,-72 758,-72 900,-72 900,-72 906,-72 912,-78 912,-84 912,-84 912,-154.25 912,-154.25 912,-160.25 906,-166.25 900,-166.25"/>
<text text-anchor="middle" x="829" y="-148.95" font-family="Helvetica,sans-Serif" font-size="14.00">22_U &lt;= 0.5</text>
<text text-anchor="middle" x="829" y="-131.7" font-family="Helvetica,sans-Serif" font-size="14.00">entropy = 0.984</text>
<text text-anchor="middle" x="829" y="-114.45" font-family="Helvetica,sans-Serif" font-size="14.00">samples = 7120</text>
<text text-anchor="middle" x="829" y="-97.2" font-family="Helvetica,sans-Serif" font-size="14.00">value = [4807, 6467]</text>
<text text-anchor="middle" x="829" y="-79.95" font-family="Helvetica,sans-Serif" font-size="14.00">class = Plant</text>
</g>
<!-- 12371&#45;&gt;12372 -->
<g id="edge18" class="edge">
<title>12371&#45;&gt;12372</title>
<path fill="none" stroke="black" d="M885.87,-202.07C879.95,-193.54 873.7,-184.54 867.61,-175.77"/>
<polygon fill="black" stroke="black" points="870.52,-173.82 861.95,-167.6 864.77,-177.81 870.52,-173.82"/>
</g>
<!-- 15665 -->
<g id="node22" class="node">
<title>15665</title>
<path fill="#81c1ee" stroke="black" d="M1084,-166.25C1084,-166.25 942,-166.25 942,-166.25 936,-166.25 930,-160.25 930,-154.25 930,-154.25 930,-84 930,-84 930,-78 936,-72 942,-72 942,-72 1084,-72 1084,-72 1090,-72 1096,-78 1096,-84 1096,-84 1096,-154.25 1096,-154.25 1096,-160.25 1090,-166.25 1084,-166.25"/>
<text text-anchor="middle" x="1013" y="-148.95" font-family="Helvetica,sans-Serif" font-size="14.00">15_A &lt;= 0.5</text>
<text text-anchor="middle" x="1013" y="-131.7" font-family="Helvetica,sans-Serif" font-size="14.00">entropy = 0.837</text>
<text text-anchor="middle" x="1013" y="-114.45" font-family="Helvetica,sans-Serif" font-size="14.00">samples = 4305</text>
<text text-anchor="middle" x="1013" y="-97.2" font-family="Helvetica,sans-Serif" font-size="14.00">value = [1826, 5007]</text>
<text text-anchor="middle" x="1013" y="-79.95" font-family="Helvetica,sans-Serif" font-size="14.00">class = Plant</text>
</g>
<!-- 12371&#45;&gt;15665 -->
<g id="edge21" class="edge">
<title>12371&#45;&gt;15665</title>
<path fill="none" stroke="black" d="M952.3,-202.07C958.69,-193.45 965.42,-184.35 971.99,-175.49"/>
<polygon fill="black" stroke="black" points="974.71,-177.69 977.85,-167.57 969.09,-173.53 974.71,-177.69"/>
</g>
<!-- 12373 -->
<g id="node20" class="node">
<title>12373</title>
<path fill="#c0c0c0" stroke="black" d="M792,-36C792,-36 762,-36 762,-36 756,-36 750,-30 750,-24 750,-24 750,-12 750,-12 750,-6 756,0 762,0 762,0 792,0 792,0 798,0 804,-6 804,-12 804,-12 804,-24 804,-24 804,-30 798,-36 792,-36"/>
<text text-anchor="middle" x="777" y="-13.32" font-family="Helvetica,sans-Serif" font-size="14.00">(...)</text>
</g>
<!-- 12372&#45;&gt;12373 -->
<g id="edge19" class="edge">
<title>12372&#45;&gt;12373</title>
<path fill="none" stroke="black" d="M804.67,-71.75C800.1,-63.03 795.45,-54.16 791.3,-46.26"/>
<polygon fill="black" stroke="black" points="794.46,-44.74 786.71,-37.51 788.26,-47.99 794.46,-44.74"/>
</g>
<!-- 15282 -->
<g id="node21" class="node">
<title>15282</title>
<path fill="#c0c0c0" stroke="black" d="M864,-36C864,-36 834,-36 834,-36 828,-36 822,-30 822,-24 822,-24 822,-12 822,-12 822,-6 828,0 834,0 834,0 864,0 864,0 870,0 876,-6 876,-12 876,-12 876,-24 876,-24 876,-30 870,-36 864,-36"/>
<text text-anchor="middle" x="849" y="-13.32" font-family="Helvetica,sans-Serif" font-size="14.00">(...)</text>
</g>
<!-- 12372&#45;&gt;15282 -->
<g id="edge20" class="edge">
<title>12372&#45;&gt;15282</title>
<path fill="none" stroke="black" d="M838.36,-71.75C840.04,-63.42 841.74,-54.97 843.28,-47.34"/>
<polygon fill="black" stroke="black" points="846.69,-48.15 845.24,-37.66 839.83,-46.77 846.69,-48.15"/>
</g>
<!-- 15666 -->
<g id="node23" class="node">
<title>15666</title>
<path fill="#c0c0c0" stroke="black" d="M971,-36C971,-36 941,-36 941,-36 935,-36 929,-30 929,-24 929,-24 929,-12 929,-12 929,-6 935,0 941,0 941,0 971,0 971,0 977,0 983,-6 983,-12 983,-12 983,-24 983,-24 983,-30 977,-36 971,-36"/>
<text text-anchor="middle" x="956" y="-13.32" font-family="Helvetica,sans-Serif" font-size="14.00">(...)</text>
</g>
<!-- 15665&#45;&gt;15666 -->
<g id="edge22" class="edge">
<title>15665&#45;&gt;15666</title>
<path fill="none" stroke="black" d="M986.34,-71.75C981.26,-62.93 976.1,-53.96 971.52,-45.99"/>
<polygon fill="black" stroke="black" points="974.65,-44.41 966.63,-37.48 968.58,-47.9 974.65,-44.41"/>
</g>
<!-- 16577 -->
<g id="node24" class="node">
<title>16577</title>
<path fill="#c0c0c0" stroke="black" d="M1043,-36C1043,-36 1013,-36 1013,-36 1007,-36 1001,-30 1001,-24 1001,-24 1001,-12 1001,-12 1001,-6 1007,0 1013,0 1013,0 1043,0 1043,0 1049,0 1055,-6 1055,-12 1055,-12 1055,-24 1055,-24 1055,-30 1049,-36 1043,-36"/>
<text text-anchor="middle" x="1028" y="-13.32" font-family="Helvetica,sans-Serif" font-size="14.00">(...)</text>
</g>
<!-- 15665&#45;&gt;16577 -->
<g id="edge23" class="edge">
<title>15665&#45;&gt;16577</title>
<path fill="none" stroke="black" d="M1020.02,-71.75C1021.28,-63.42 1022.56,-54.97 1023.71,-47.34"/>
<polygon fill="black" stroke="black" points="1027.14,-48.08 1025.17,-37.67 1020.22,-47.03 1027.14,-48.08"/>
</g>
<!-- 16839 -->
<g id="node26" class="node">
<title>16839</title>
<path fill="#eba06a" stroke="black" d="M1250,-166.25C1250,-166.25 1126,-166.25 1126,-166.25 1120,-166.25 1114,-160.25 1114,-154.25 1114,-154.25 1114,-84 1114,-84 1114,-78 1120,-72 1126,-72 1126,-72 1250,-72 1250,-72 1256,-72 1262,-78 1262,-84 1262,-84 1262,-154.25 1262,-154.25 1262,-160.25 1256,-166.25 1250,-166.25"/>
<text text-anchor="middle" x="1188" y="-148.95" font-family="Helvetica,sans-Serif" font-size="14.00">9_C &lt;= 0.5</text>
<text text-anchor="middle" x="1188" y="-131.7" font-family="Helvetica,sans-Serif" font-size="14.00">entropy = 0.72</text>
<text text-anchor="middle" x="1188" y="-114.45" font-family="Helvetica,sans-Serif" font-size="14.00">samples = 387</text>
<text text-anchor="middle" x="1188" y="-97.2" font-family="Helvetica,sans-Serif" font-size="14.00">value = [507, 126]</text>
<text text-anchor="middle" x="1188" y="-79.95" font-family="Helvetica,sans-Serif" font-size="14.00">class = Animal</text>
</g>
<!-- 16838&#45;&gt;16839 -->
<g id="edge25" class="edge">
<title>16838&#45;&gt;16839</title>
<path fill="none" stroke="black" d="M1188,-202.07C1188,-194.17 1188,-185.88 1188,-177.73"/>
<polygon fill="black" stroke="black" points="1191.5,-177.87 1188,-167.87 1184.5,-177.87 1191.5,-177.87"/>
</g>
<!-- 16996 -->
<g id="node29" class="node">
<title>16996</title>
<path fill="#e2f1fb" stroke="black" d="M1398.38,-166.25C1398.38,-166.25 1291.62,-166.25 1291.62,-166.25 1285.62,-166.25 1279.62,-160.25 1279.62,-154.25 1279.62,-154.25 1279.62,-84 1279.62,-84 1279.62,-78 1285.62,-72 1291.62,-72 1291.62,-72 1398.38,-72 1398.38,-72 1404.38,-72 1410.38,-78 1410.38,-84 1410.38,-84 1410.38,-154.25 1410.38,-154.25 1410.38,-160.25 1404.38,-166.25 1398.38,-166.25"/>
<text text-anchor="middle" x="1345" y="-148.95" font-family="Helvetica,sans-Serif" font-size="14.00">7_U &lt;= 0.5</text>
<text text-anchor="middle" x="1345" y="-131.7" font-family="Helvetica,sans-Serif" font-size="14.00">entropy = 0.995</text>
<text text-anchor="middle" x="1345" y="-114.45" font-family="Helvetica,sans-Serif" font-size="14.00">samples = 80</text>
<text text-anchor="middle" x="1345" y="-97.2" font-family="Helvetica,sans-Serif" font-size="14.00">value = [58, 68]</text>
<text text-anchor="middle" x="1345" y="-79.95" font-family="Helvetica,sans-Serif" font-size="14.00">class = Plant</text>
</g>
<!-- 16838&#45;&gt;16996 -->
<g id="edge28" class="edge">
<title>16838&#45;&gt;16996</title>
<path fill="none" stroke="black" d="M1244.68,-202.07C1255.95,-192.87 1267.87,-183.13 1279.41,-173.71"/>
<polygon fill="black" stroke="black" points="1281.44,-176.57 1286.97,-167.53 1277.01,-171.15 1281.44,-176.57"/>
</g>
<!-- 16840 -->
<g id="node27" class="node">
<title>16840</title>
<path fill="#c0c0c0" stroke="black" d="M1155,-36C1155,-36 1125,-36 1125,-36 1119,-36 1113,-30 1113,-24 1113,-24 1113,-12 1113,-12 1113,-6 1119,0 1125,0 1125,0 1155,0 1155,0 1161,0 1167,-6 1167,-12 1167,-12 1167,-24 1167,-24 1167,-30 1161,-36 1155,-36"/>
<text text-anchor="middle" x="1140" y="-13.32" font-family="Helvetica,sans-Serif" font-size="14.00">(...)</text>
</g>
<!-- 16839&#45;&gt;16840 -->
<g id="edge26" class="edge">
<title>16839&#45;&gt;16840</title>
<path fill="none" stroke="black" d="M1165.55,-71.75C1161.37,-63.12 1157.12,-54.36 1153.33,-46.53"/>
<polygon fill="black" stroke="black" points="1156.48,-45.01 1148.98,-37.53 1150.18,-48.06 1156.48,-45.01"/>
</g>
<!-- 16981 -->
<g id="node28" class="node">
<title>16981</title>
<path fill="#c0c0c0" stroke="black" d="M1227,-36C1227,-36 1197,-36 1197,-36 1191,-36 1185,-30 1185,-24 1185,-24 1185,-12 1185,-12 1185,-6 1191,0 1197,0 1197,0 1227,0 1227,0 1233,0 1239,-6 1239,-12 1239,-12 1239,-24 1239,-24 1239,-30 1233,-36 1227,-36"/>
<text text-anchor="middle" x="1212" y="-13.32" font-family="Helvetica,sans-Serif" font-size="14.00">(...)</text>
</g>
<!-- 16839&#45;&gt;16981 -->
<g id="edge27" class="edge">
<title>16839&#45;&gt;16981</title>
<path fill="none" stroke="black" d="M1199.23,-71.75C1201.24,-63.42 1203.29,-54.97 1205.14,-47.34"/>
<polygon fill="black" stroke="black" points="1208.53,-48.19 1207.49,-37.64 1201.73,-46.54 1208.53,-48.19"/>
</g>
<!-- 16997 -->
<g id="node30" class="node">
<title>16997</title>
<path fill="#c0c0c0" stroke="black" d="M1324,-36C1324,-36 1294,-36 1294,-36 1288,-36 1282,-30 1282,-24 1282,-24 1282,-12 1282,-12 1282,-6 1288,0 1294,0 1294,0 1324,0 1324,0 1330,0 1336,-6 1336,-12 1336,-12 1336,-24 1336,-24 1336,-30 1330,-36 1324,-36"/>
<text text-anchor="middle" x="1309" y="-13.32" font-family="Helvetica,sans-Serif" font-size="14.00">(...)</text>
</g>
<!-- 16996&#45;&gt;16997 -->
<g id="edge29" class="edge">
<title>16996&#45;&gt;16997</title>
<path fill="none" stroke="black" d="M1328.16,-71.75C1325.06,-63.22 1321.92,-54.57 1319.1,-46.8"/>
<polygon fill="black" stroke="black" points="1322.46,-45.8 1315.75,-37.6 1315.88,-48.19 1322.46,-45.8"/>
</g>
<!-- 17026 -->
<g id="node31" class="node">
<title>17026</title>
<path fill="#c0c0c0" stroke="black" d="M1396,-36C1396,-36 1366,-36 1366,-36 1360,-36 1354,-30 1354,-24 1354,-24 1354,-12 1354,-12 1354,-6 1360,0 1366,0 1366,0 1396,0 1396,0 1402,0 1408,-6 1408,-12 1408,-12 1408,-24 1408,-24 1408,-30 1402,-36 1396,-36"/>
<text text-anchor="middle" x="1381" y="-13.32" font-family="Helvetica,sans-Serif" font-size="14.00">(...)</text>
</g>
<!-- 16996&#45;&gt;17026 -->
<g id="edge30" class="edge">
<title>16996&#45;&gt;17026</title>
<path fill="none" stroke="black" d="M1361.84,-71.75C1364.94,-63.22 1368.08,-54.57 1370.9,-46.8"/>
<polygon fill="black" stroke="black" points="1374.12,-48.19 1374.25,-37.6 1367.54,-45.8 1374.12,-48.19"/>
</g>
</g>
</svg>
