<?xml version="1.0" encoding="UTF-8" standalone="no"?>
<!DOCTYPE svg PUBLIC "-//W3C//DTD SVG 1.1//EN"
 "http://www.w3.org/Graphics/SVG/1.1/DTD/svg11.dtd">
<!-- Generated by graphviz version 12.0.0 (20240803.0821)
 -->
<!-- Title: Tree Pages: 1 -->
<svg width="1454pt" height="565pt"
 viewBox="0.00 0.00 1453.50 565.00" xmlns="http://www.w3.org/2000/svg" xmlns:xlink="http://www.w3.org/1999/xlink">
<g id="graph0" class="graph" transform="scale(1 1) rotate(0) translate(4 561)">
<title>Tree</title>
<polygon fill="white" stroke="none" points="-4,4 -4,-561 1449.5,-561 1449.5,4 -4,4"/>
<!-- 0 -->
<g id="node1" class="node">
<title>0</title>
<path fill="#fffefe" stroke="black" d="M817,-557C817,-557 657,-557 657,-557 651,-557 645,-551 645,-545 645,-545 645,-474.75 645,-474.75 645,-468.75 651,-462.75 657,-462.75 657,-462.75 817,-462.75 817,-462.75 823,-462.75 829,-468.75 829,-474.75 829,-474.75 829,-545 829,-545 829,-551 823,-557 817,-557"/>
<text text-anchor="middle" x="737" y="-539.7" font-family="Helvetica,sans-Serif" font-size="14.00">9_U &lt;= 0.5</text>
<text text-anchor="middle" x="737" y="-522.45" font-family="Helvetica,sans-Serif" font-size="14.00">entropy = 1.0</text>
<text text-anchor="middle" x="737" y="-505.2" font-family="Helvetica,sans-Serif" font-size="14.00">samples = 38239</text>
<text text-anchor="middle" x="737" y="-487.95" font-family="Helvetica,sans-Serif" font-size="14.00">value = [30264, 30081]</text>
<text text-anchor="middle" x="737" y="-470.7" font-family="Helvetica,sans-Serif" font-size="14.00">class = Animal</text>
</g>
<!-- 1 -->
<g id="node2" class="node">
<title>1</title>
<path fill="#ddeefa" stroke="black" d="M638,-426.75C638,-426.75 478,-426.75 478,-426.75 472,-426.75 466,-420.75 466,-414.75 466,-414.75 466,-344.5 466,-344.5 466,-338.5 472,-332.5 478,-332.5 478,-332.5 638,-332.5 638,-332.5 644,-332.5 650,-338.5 650,-344.5 650,-344.5 650,-414.75 650,-414.75 650,-420.75 644,-426.75 638,-426.75"/>
<text text-anchor="middle" x="558" y="-409.45" font-family="Helvetica,sans-Serif" font-size="14.00">19_U &lt;= 0.5</text>
<text text-anchor="middle" x="558" y="-392.2" font-family="Helvetica,sans-Serif" font-size="14.00">entropy = 0.993</text>
<text text-anchor="middle" x="558" y="-374.95" font-family="Helvetica,sans-Serif" font-size="14.00">samples = 27416</text>
<text text-anchor="middle" x="558" y="-357.7" font-family="Helvetica,sans-Serif" font-size="14.00">value = [19547, 23665]</text>
<text text-anchor="middle" x="558" y="-340.45" font-family="Helvetica,sans-Serif" font-size="14.00">class = Plant</text>
</g>
<!-- 0&#45;&gt;1 -->
<g id="edge1" class="edge">
<title>0&#45;&gt;1</title>
<path fill="none" stroke="black" d="M672.12,-462.39C659.12,-453.07 645.36,-443.22 632.07,-433.69"/>
<polygon fill="black" stroke="black" points="634.35,-431.02 624.19,-428.05 630.28,-436.72 634.35,-431.02"/>
<text text-anchor="middle" x="627.03" y="-447.16" font-family="Helvetica,sans-Serif" font-size="14.00">True</text>
</g>
<!-- 12226 -->
<g id="node17" class="node">
<title>12226</title>
<path fill="#f5ccb0" stroke="black" d="M997.5,-426.75C997.5,-426.75 846.5,-426.75 846.5,-426.75 840.5,-426.75 834.5,-420.75 834.5,-414.75 834.5,-414.75 834.5,-344.5 834.5,-344.5 834.5,-338.5 840.5,-332.5 846.5,-332.5 846.5,-332.5 997.5,-332.5 997.5,-332.5 1003.5,-332.5 1009.5,-338.5 1009.5,-344.5 1009.5,-344.5 1009.5,-414.75 1009.5,-414.75 1009.5,-420.75 1003.5,-426.75 997.5,-426.75"/>
<text text-anchor="middle" x="922" y="-409.45" font-family="Helvetica,sans-Serif" font-size="14.00">20_C &lt;= 0.5</text>
<text text-anchor="middle" x="922" y="-392.2" font-family="Helvetica,sans-Serif" font-size="14.00">entropy = 0.954</text>
<text text-anchor="middle" x="922" y="-374.95" font-family="Helvetica,sans-Serif" font-size="14.00">samples = 10823</text>
<text text-anchor="middle" x="922" y="-357.7" font-family="Helvetica,sans-Serif" font-size="14.00">value = [10717, 6416]</text>
<text text-anchor="middle" x="922" y="-340.45" font-family="Helvetica,sans-Serif" font-size="14.00">class = Animal</text>
</g>
<!-- 0&#45;&gt;12226 -->
<g id="edge16" class="edge">
<title>0&#45;&gt;12226</title>
<path fill="none" stroke="black" d="M804.05,-462.39C817.49,-453.07 831.71,-443.22 845.45,-433.69"/>
<polygon fill="black" stroke="black" points="847.4,-436.6 853.62,-428.03 843.41,-430.85 847.4,-436.6"/>
<text text-anchor="middle" x="850.41" y="-447.09" font-family="Helvetica,sans-Serif" font-size="14.00">False</text>
</g>
<!-- 2 -->
<g id="node3" class="node">
<title>2</title>
<path fill="#bedff6" stroke="black" d="M365,-296.5C365,-296.5 205,-296.5 205,-296.5 199,-296.5 193,-290.5 193,-284.5 193,-284.5 193,-214.25 193,-214.25 193,-208.25 199,-202.25 205,-202.25 205,-202.25 365,-202.25 365,-202.25 371,-202.25 377,-208.25 377,-214.25 377,-214.25 377,-284.5 377,-284.5 377,-290.5 371,-296.5 365,-296.5"/>
<text text-anchor="middle" x="285" y="-279.2" font-family="Helvetica,sans-Serif" font-size="14.00">6_A &lt;= 0.5</text>
<text text-anchor="middle" x="285" y="-261.95" font-family="Helvetica,sans-Serif" font-size="14.00">entropy = 0.972</text>
<text text-anchor="middle" x="285" y="-244.7" font-family="Helvetica,sans-Serif" font-size="14.00">samples = 21122</text>
<text text-anchor="middle" x="285" y="-227.45" font-family="Helvetica,sans-Serif" font-size="14.00">value = [13419, 19954]</text>
<text text-anchor="middle" x="285" y="-210.2" font-family="Helvetica,sans-Serif" font-size="14.00">class = Plant</text>
</g>
<!-- 1&#45;&gt;2 -->
<g id="edge2" class="edge">
<title>1&#45;&gt;2</title>
<path fill="none" stroke="black" d="M465.57,-335.21C440.45,-323.4 413.09,-310.55 387.44,-298.5"/>
<polygon fill="black" stroke="black" points="389.24,-295.48 378.7,-294.39 386.26,-301.81 389.24,-295.48"/>
</g>
<!-- 8975 -->
<g id="node10" class="node">
<title>8975</title>
<path fill="#f5cdb1" stroke="black" d="M629,-296.5C629,-296.5 487,-296.5 487,-296.5 481,-296.5 475,-290.5 475,-284.5 475,-284.5 475,-214.25 475,-214.25 475,-208.25 481,-202.25 487,-202.25 487,-202.25 629,-202.25 629,-202.25 635,-202.25 641,-208.25 641,-214.25 641,-214.25 641,-284.5 641,-284.5 641,-290.5 635,-296.5 629,-296.5"/>
<text text-anchor="middle" x="558" y="-279.2" font-family="Helvetica,sans-Serif" font-size="14.00">20_C &lt;= 0.5</text>
<text text-anchor="middle" x="558" y="-261.95" font-family="Helvetica,sans-Serif" font-size="14.00">entropy = 0.956</text>
<text text-anchor="middle" x="558" y="-244.7" font-family="Helvetica,sans-Serif" font-size="14.00">samples = 6294</text>
<text text-anchor="middle" x="558" y="-227.45" font-family="Helvetica,sans-Serif" font-size="14.00">value = [6128, 3711]</text>
<text text-anchor="middle" x="558" y="-210.2" font-family="Helvetica,sans-Serif" font-size="14.00">class = Animal</text>
</g>
<!-- 1&#45;&gt;8975 -->
<g id="edge9" class="edge">
<title>1&#45;&gt;8975</title>
<path fill="none" stroke="black" d="M558,-332.32C558,-324.42 558,-316.13 558,-307.98"/>
<polygon fill="black" stroke="black" points="561.5,-308.12 558,-298.12 554.5,-308.12 561.5,-308.12"/>
</g>
<!-- 3 -->
<g id="node4" class="node">
<title>3</title>
<path fill="#d6ebfa" stroke="black" d="M172,-166.25C172,-166.25 12,-166.25 12,-166.25 6,-166.25 0,-160.25 0,-154.25 0,-154.25 0,-84 0,-84 0,-78 6,-72 12,-72 12,-72 172,-72 172,-72 178,-72 184,-78 184,-84 184,-84 184,-154.25 184,-154.25 184,-160.25 178,-166.25 172,-166.25"/>
<text text-anchor="middle" x="92" y="-148.95" font-family="Helvetica,sans-Serif" font-size="14.00">19_G &lt;= 0.5</text>
<text text-anchor="middle" x="92" y="-131.7" font-family="Helvetica,sans-Serif" font-size="14.00">entropy = 0.99</text>
<text text-anchor="middle" x="92" y="-114.45" font-family="Helvetica,sans-Serif" font-size="14.00">samples = 15049</text>
<text text-anchor="middle" x="92" y="-97.2" font-family="Helvetica,sans-Serif" font-size="14.00">value = [10497, 13238]</text>
<text text-anchor="middle" x="92" y="-79.95" font-family="Helvetica,sans-Serif" font-size="14.00">class = Plant</text>
</g>
<!-- 2&#45;&gt;3 -->
<g id="edge3" class="edge">
<title>2&#45;&gt;3</title>
<path fill="none" stroke="black" d="M215.05,-201.89C200.89,-192.48 185.9,-182.53 171.45,-172.92"/>
<polygon fill="black" stroke="black" points="173.56,-170.12 163.3,-167.5 169.69,-175.95 173.56,-170.12"/>
</g>
<!-- 6874 -->
<g id="node7" class="node">
<title>6874</title>
<path fill="#8fc8f0" stroke="black" d="M356,-166.25C356,-166.25 214,-166.25 214,-166.25 208,-166.25 202,-160.25 202,-154.25 202,-154.25 202,-84 202,-84 202,-78 208,-72 214,-72 214,-72 356,-72 356,-72 362,-72 368,-78 368,-84 368,-84 368,-154.25 368,-154.25 368,-160.25 362,-166.25 356,-166.25"/>
<text text-anchor="middle" x="285" y="-148.95" font-family="Helvetica,sans-Serif" font-size="14.00">22_A &lt;= 0.5</text>
<text text-anchor="middle" x="285" y="-131.7" font-family="Helvetica,sans-Serif" font-size="14.00">entropy = 0.885</text>
<text text-anchor="middle" x="285" y="-114.45" font-family="Helvetica,sans-Serif" font-size="14.00">samples = 6073</text>
<text text-anchor="middle" x="285" y="-97.2" font-family="Helvetica,sans-Serif" font-size="14.00">value = [2922, 6716]</text>
<text text-anchor="middle" x="285" y="-79.95" font-family="Helvetica,sans-Serif" font-size="14.00">class = Plant</text>
</g>
<!-- 2&#45;&gt;6874 -->
<g id="edge6" class="edge">
<title>2&#45;&gt;6874</title>
<path fill="none" stroke="black" d="M285,-202.07C285,-194.17 285,-185.88 285,-177.73"/>
<polygon fill="black" stroke="black" points="288.5,-177.87 285,-167.87 281.5,-177.87 288.5,-177.87"/>
</g>
<!-- 4 -->
<g id="node5" class="node">
<title>4</title>
<path fill="#c0c0c0" stroke="black" d="M71,-36C71,-36 41,-36 41,-36 35,-36 29,-30 29,-24 29,-24 29,-12 29,-12 29,-6 35,0 41,0 41,0 71,0 71,0 77,0 83,-6 83,-12 83,-12 83,-24 83,-24 83,-30 77,-36 71,-36"/>
<text text-anchor="middle" x="56" y="-13.32" font-family="Helvetica,sans-Serif" font-size="14.00">(...)</text>
</g>
<!-- 3&#45;&gt;4 -->
<g id="edge4" class="edge">
<title>3&#45;&gt;4</title>
<path fill="none" stroke="black" d="M75.16,-71.75C72.06,-63.22 68.92,-54.57 66.1,-46.8"/>
<polygon fill="black" stroke="black" points="69.46,-45.8 62.75,-37.6 62.88,-48.19 69.46,-45.8"/>
</g>
<!-- 4475 -->
<g id="node6" class="node">
<title>4475</title>
<path fill="#c0c0c0" stroke="black" d="M143,-36C143,-36 113,-36 113,-36 107,-36 101,-30 101,-24 101,-24 101,-12 101,-12 101,-6 107,0 113,0 113,0 143,0 143,0 149,0 155,-6 155,-12 155,-12 155,-24 155,-24 155,-30 149,-36 143,-36"/>
<text text-anchor="middle" x="128" y="-13.32" font-family="Helvetica,sans-Serif" font-size="14.00">(...)</text>
</g>
<!-- 3&#45;&gt;4475 -->
<g id="edge5" class="edge">
<title>3&#45;&gt;4475</title>
<path fill="none" stroke="black" d="M108.84,-71.75C111.94,-63.22 115.08,-54.57 117.9,-46.8"/>
<polygon fill="black" stroke="black" points="121.12,-48.19 121.25,-37.6 114.54,-45.8 121.12,-48.19"/>
</g>
<!-- 6875 -->
<g id="node8" class="node">
<title>6875</title>
<path fill="#c0c0c0" stroke="black" d="M268,-36C268,-36 238,-36 238,-36 232,-36 226,-30 226,-24 226,-24 226,-12 226,-12 226,-6 232,0 238,0 238,0 268,0 268,0 274,0 280,-6 280,-12 280,-12 280,-24 280,-24 280,-30 274,-36 268,-36"/>
<text text-anchor="middle" x="253" y="-13.32" font-family="Helvetica,sans-Serif" font-size="14.00">(...)</text>
</g>
<!-- 6874&#45;&gt;6875 -->
<g id="edge7" class="edge">
<title>6874&#45;&gt;6875</title>
<path fill="none" stroke="black" d="M270.03,-71.75C267.31,-63.32 264.55,-54.77 262.06,-47.07"/>
<polygon fill="black" stroke="black" points="265.41,-46.05 259.01,-37.61 258.75,-48.2 265.41,-46.05"/>
</g>
<!-- 8736 -->
<g id="node9" class="node">
<title>8736</title>
<path fill="#c0c0c0" stroke="black" d="M340,-36C340,-36 310,-36 310,-36 304,-36 298,-30 298,-24 298,-24 298,-12 298,-12 298,-6 304,0 310,0 310,0 340,0 340,0 346,0 352,-6 352,-12 352,-12 352,-24 352,-24 352,-30 346,-36 340,-36"/>
<text text-anchor="middle" x="325" y="-13.32" font-family="Helvetica,sans-Serif" font-size="14.00">(...)</text>
</g>
<!-- 6874&#45;&gt;8736 -->
<g id="edge8" class="edge">
<title>6874&#45;&gt;8736</title>
<path fill="none" stroke="black" d="M303.71,-71.75C307.15,-63.22 310.65,-54.57 313.78,-46.8"/>
<polygon fill="black" stroke="black" points="317.01,-48.16 317.5,-37.58 310.52,-45.54 317.01,-48.16"/>
</g>
<!-- 8976 -->
<g id="node11" class="node">
<title>8976</title>
<path fill="#f2c29f" stroke="black" d="M540,-166.25C540,-166.25 398,-166.25 398,-166.25 392,-166.25 386,-160.25 386,-154.25 386,-154.25 386,-84 386,-84 386,-78 392,-72 398,-72 398,-72 540,-72 540,-72 546,-72 552,-78 552,-84 552,-84 552,-154.25 552,-154.25 552,-160.25 546,-166.25 540,-166.25"/>
<text text-anchor="middle" x="469" y="-148.95" font-family="Helvetica,sans-Serif" font-size="14.00">2_A &lt;= 0.5</text>
<text text-anchor="middle" x="469" y="-131.7" font-family="Helvetica,sans-Serif" font-size="14.00">entropy = 0.924</text>
<text text-anchor="middle" x="469" y="-114.45" font-family="Helvetica,sans-Serif" font-size="14.00">samples = 4654</text>
<text text-anchor="middle" x="469" y="-97.2" font-family="Helvetica,sans-Serif" font-size="14.00">value = [4789, 2458]</text>
<text text-anchor="middle" x="469" y="-79.95" font-family="Helvetica,sans-Serif" font-size="14.00">class = Animal</text>
</g>
<!-- 8975&#45;&gt;8976 -->
<g id="edge10" class="edge">
<title>8975&#45;&gt;8976</title>
<path fill="none" stroke="black" d="M525.87,-202.07C519.95,-193.54 513.7,-184.54 507.61,-175.77"/>
<polygon fill="black" stroke="black" points="510.52,-173.82 501.95,-167.6 504.77,-177.81 510.52,-173.82"/>
</g>
<!-- 11381 -->
<g id="node14" class="node">
<title>11381</title>
<path fill="#fdf7f2" stroke="black" d="M724,-166.25C724,-166.25 582,-166.25 582,-166.25 576,-166.25 570,-160.25 570,-154.25 570,-154.25 570,-84 570,-84 570,-78 576,-72 582,-72 582,-72 724,-72 724,-72 730,-72 736,-78 736,-84 736,-84 736,-154.25 736,-154.25 736,-160.25 730,-166.25 724,-166.25"/>
<text text-anchor="middle" x="653" y="-148.95" font-family="Helvetica,sans-Serif" font-size="14.00">8_C &lt;= 0.5</text>
<text text-anchor="middle" x="653" y="-131.7" font-family="Helvetica,sans-Serif" font-size="14.00">entropy = 0.999</text>
<text text-anchor="middle" x="653" y="-114.45" font-family="Helvetica,sans-Serif" font-size="14.00">samples = 1640</text>
<text text-anchor="middle" x="653" y="-97.2" font-family="Helvetica,sans-Serif" font-size="14.00">value = [1339, 1253]</text>
<text text-anchor="middle" x="653" y="-79.95" font-family="Helvetica,sans-Serif" font-size="14.00">class = Animal</text>
</g>
<!-- 8975&#45;&gt;11381 -->
<g id="edge13" class="edge">
<title>8975&#45;&gt;11381</title>
<path fill="none" stroke="black" d="M592.3,-202.07C598.69,-193.45 605.42,-184.35 611.99,-175.49"/>
<polygon fill="black" stroke="black" points="614.71,-177.69 617.85,-167.57 609.09,-173.53 614.71,-177.69"/>
</g>
<!-- 8977 -->
<g id="node12" class="node">
<title>8977</title>
<path fill="#c0c0c0" stroke="black" d="M432,-36C432,-36 402,-36 402,-36 396,-36 390,-30 390,-24 390,-24 390,-12 390,-12 390,-6 396,0 402,0 402,0 432,0 432,0 438,0 444,-6 444,-12 444,-12 444,-24 444,-24 444,-30 438,-36 432,-36"/>
<text text-anchor="middle" x="417" y="-13.32" font-family="Helvetica,sans-Serif" font-size="14.00">(...)</text>
</g>
<!-- 8976&#45;&gt;8977 -->
<g id="edge11" class="edge">
<title>8976&#45;&gt;8977</title>
<path fill="none" stroke="black" d="M444.67,-71.75C440.1,-63.03 435.45,-54.16 431.3,-46.26"/>
<polygon fill="black" stroke="black" points="434.46,-44.74 426.71,-37.51 428.26,-47.99 434.46,-44.74"/>
</g>
<!-- 10742 -->
<g id="node13" class="node">
<title>10742</title>
<path fill="#c0c0c0" stroke="black" d="M504,-36C504,-36 474,-36 474,-36 468,-36 462,-30 462,-24 462,-24 462,-12 462,-12 462,-6 468,0 474,0 474,0 504,0 504,0 510,0 516,-6 516,-12 516,-12 516,-24 516,-24 516,-30 510,-36 504,-36"/>
<text text-anchor="middle" x="489" y="-13.32" font-family="Helvetica,sans-Serif" font-size="14.00">(...)</text>
</g>
<!-- 8976&#45;&gt;10742 -->
<g id="edge12" class="edge">
<title>8976&#45;&gt;10742</title>
<path fill="none" stroke="black" d="M478.36,-71.75C480.04,-63.42 481.74,-54.97 483.28,-47.34"/>
<polygon fill="black" stroke="black" points="486.69,-48.15 485.24,-37.66 479.83,-46.77 486.69,-48.15"/>
</g>
<!-- 11382 -->
<g id="node15" class="node">
<title>11382</title>
<path fill="#c0c0c0" stroke="black" d="M616,-36C616,-36 586,-36 586,-36 580,-36 574,-30 574,-24 574,-24 574,-12 574,-12 574,-6 580,0 586,0 586,0 616,0 616,0 622,0 628,-6 628,-12 628,-12 628,-24 628,-24 628,-30 622,-36 616,-36"/>
<text text-anchor="middle" x="601" y="-13.32" font-family="Helvetica,sans-Serif" font-size="14.00">(...)</text>
</g>
<!-- 11381&#45;&gt;11382 -->
<g id="edge14" class="edge">
<title>11381&#45;&gt;11382</title>
<path fill="none" stroke="black" d="M628.67,-71.75C624.1,-63.03 619.45,-54.16 615.3,-46.26"/>
<polygon fill="black" stroke="black" points="618.46,-44.74 610.71,-37.51 612.26,-47.99 618.46,-44.74"/>
</g>
<!-- 12005 -->
<g id="node16" class="node">
<title>12005</title>
<path fill="#c0c0c0" stroke="black" d="M688,-36C688,-36 658,-36 658,-36 652,-36 646,-30 646,-24 646,-24 646,-12 646,-12 646,-6 652,0 658,0 658,0 688,0 688,0 694,0 700,-6 700,-12 700,-12 700,-24 700,-24 700,-30 694,-36 688,-36"/>
<text text-anchor="middle" x="673" y="-13.32" font-family="Helvetica,sans-Serif" font-size="14.00">(...)</text>
</g>
<!-- 11381&#45;&gt;12005 -->
<g id="edge15" class="edge">
<title>11381&#45;&gt;12005</title>
<path fill="none" stroke="black" d="M662.36,-71.75C664.04,-63.42 665.74,-54.97 667.28,-47.34"/>
<polygon fill="black" stroke="black" points="670.69,-48.15 669.24,-37.66 663.83,-46.77 670.69,-48.15"/>
</g>
<!-- 12227 -->
<g id="node18" class="node">
<title>12227</title>
<path fill="#f2c09d" stroke="black" d="M993,-296.5C993,-296.5 851,-296.5 851,-296.5 845,-296.5 839,-290.5 839,-284.5 839,-284.5 839,-214.25 839,-214.25 839,-208.25 845,-202.25 851,-202.25 851,-202.25 993,-202.25 993,-202.25 999,-202.25 1005,-208.25 1005,-214.25 1005,-214.25 1005,-284.5 1005,-284.5 1005,-290.5 999,-296.5 993,-296.5"/>
<text text-anchor="middle" x="922" y="-279.2" font-family="Helvetica,sans-Serif" font-size="14.00">2_A &lt;= 0.5</text>
<text text-anchor="middle" x="922" y="-261.95" font-family="Helvetica,sans-Serif" font-size="14.00">entropy = 0.92</text>
<text text-anchor="middle" x="922" y="-244.7" font-family="Helvetica,sans-Serif" font-size="14.00">samples = 8265</text>
<text text-anchor="middle" x="922" y="-227.45" font-family="Helvetica,sans-Serif" font-size="14.00">value = [8687, 4375]</text>
<text text-anchor="middle" x="922" y="-210.2" font-family="Helvetica,sans-Serif" font-size="14.00">class = Animal</text>
</g>
<!-- 12226&#45;&gt;12227 -->
<g id="edge17" class="edge">
<title>12226&#45;&gt;12227</title>
<path fill="none" stroke="black" d="M922,-332.32C922,-324.42 922,-316.13 922,-307.98"/>
<polygon fill="black" stroke="black" points="925.5,-308.12 922,-298.12 918.5,-308.12 925.5,-308.12"/>
</g>
<!-- 16004 -->
<g id="node25" class="node">
<title>16004</title>
<path fill="#fefeff" stroke="black" d="M1263,-296.5C1263,-296.5 1121,-296.5 1121,-296.5 1115,-296.5 1109,-290.5 1109,-284.5 1109,-284.5 1109,-214.25 1109,-214.25 1109,-208.25 1115,-202.25 1121,-202.25 1121,-202.25 1263,-202.25 1263,-202.25 1269,-202.25 1275,-208.25 1275,-214.25 1275,-214.25 1275,-284.5 1275,-284.5 1275,-290.5 1269,-296.5 1263,-296.5"/>
<text text-anchor="middle" x="1192" y="-279.2" font-family="Helvetica,sans-Serif" font-size="14.00">16_A &lt;= 0.5</text>
<text text-anchor="middle" x="1192" y="-261.95" font-family="Helvetica,sans-Serif" font-size="14.00">entropy = 1.0</text>
<text text-anchor="middle" x="1192" y="-244.7" font-family="Helvetica,sans-Serif" font-size="14.00">samples = 2558</text>
<text text-anchor="middle" x="1192" y="-227.45" font-family="Helvetica,sans-Serif" font-size="14.00">value = [2030, 2041]</text>
<text text-anchor="middle" x="1192" y="-210.2" font-family="Helvetica,sans-Serif" font-size="14.00">class = Plant</text>
</g>
<!-- 12226&#45;&gt;16004 -->
<g id="edge24" class="edge">
<title>12226&#45;&gt;16004</title>
<path fill="none" stroke="black" d="M1009.66,-336.99C1038.17,-323.44 1069.91,-308.37 1098.81,-294.64"/>
<polygon fill="black" stroke="black" points="1100.01,-297.95 1107.54,-290.49 1097.01,-291.62 1100.01,-297.95"/>
</g>
<!-- 12228 -->
<g id="node19" class="node">
<title>12228</title>
<path fill="#f6d2b8" stroke="black" d="M908,-166.25C908,-166.25 766,-166.25 766,-166.25 760,-166.25 754,-160.25 754,-154.25 754,-154.25 754,-84 754,-84 754,-78 760,-72 766,-72 766,-72 908,-72 908,-72 914,-72 920,-78 920,-84 920,-84 920,-154.25 920,-154.25 920,-160.25 914,-166.25 908,-166.25"/>
<text text-anchor="middle" x="837" y="-148.95" font-family="Helvetica,sans-Serif" font-size="14.00">21_U &lt;= 0.5</text>
<text text-anchor="middle" x="837" y="-131.7" font-family="Helvetica,sans-Serif" font-size="14.00">entropy = 0.965</text>
<text text-anchor="middle" x="837" y="-114.45" font-family="Helvetica,sans-Serif" font-size="14.00">samples = 5881</text>
<text text-anchor="middle" x="837" y="-97.2" font-family="Helvetica,sans-Serif" font-size="14.00">value = [5664, 3627]</text>
<text text-anchor="middle" x="837" y="-79.95" font-family="Helvetica,sans-Serif" font-size="14.00">class = Animal</text>
</g>
<!-- 12227&#45;&gt;12228 -->
<g id="edge18" class="edge">
<title>12227&#45;&gt;12228</title>
<path fill="none" stroke="black" d="M891.31,-202.07C885.66,-193.54 879.7,-184.54 873.88,-175.77"/>
<polygon fill="black" stroke="black" points="876.92,-174.02 868.48,-167.62 871.09,-177.89 876.92,-174.02"/>
</g>
<!-- 15073 -->
<g id="node22" class="node">
<title>15073</title>
<path fill="#eba06a" stroke="black" d="M1083.5,-166.25C1083.5,-166.25 950.5,-166.25 950.5,-166.25 944.5,-166.25 938.5,-160.25 938.5,-154.25 938.5,-154.25 938.5,-84 938.5,-84 938.5,-78 944.5,-72 950.5,-72 950.5,-72 1083.5,-72 1083.5,-72 1089.5,-72 1095.5,-78 1095.5,-84 1095.5,-84 1095.5,-154.25 1095.5,-154.25 1095.5,-160.25 1089.5,-166.25 1083.5,-166.25"/>
<text text-anchor="middle" x="1017" y="-148.95" font-family="Helvetica,sans-Serif" font-size="14.00">17_C &lt;= 0.5</text>
<text text-anchor="middle" x="1017" y="-131.7" font-family="Helvetica,sans-Serif" font-size="14.00">entropy = 0.719</text>
<text text-anchor="middle" x="1017" y="-114.45" font-family="Helvetica,sans-Serif" font-size="14.00">samples = 2384</text>
<text text-anchor="middle" x="1017" y="-97.2" font-family="Helvetica,sans-Serif" font-size="14.00">value = [3023, 748]</text>
<text text-anchor="middle" x="1017" y="-79.95" font-family="Helvetica,sans-Serif" font-size="14.00">class = Animal</text>
</g>
<!-- 12227&#45;&gt;15073 -->
<g id="edge21" class="edge">
<title>12227&#45;&gt;15073</title>
<path fill="none" stroke="black" d="M956.3,-202.07C962.69,-193.45 969.42,-184.35 975.99,-175.49"/>
<polygon fill="black" stroke="black" points="978.71,-177.69 981.85,-167.57 973.09,-173.53 978.71,-177.69"/>
</g>
<!-- 12229 -->
<g id="node20" class="node">
<title>12229</title>
<path fill="#c0c0c0" stroke="black" d="M798,-36C798,-36 768,-36 768,-36 762,-36 756,-30 756,-24 756,-24 756,-12 756,-12 756,-6 762,0 768,0 768,0 798,0 798,0 804,0 810,-6 810,-12 810,-12 810,-24 810,-24 810,-30 804,-36 798,-36"/>
<text text-anchor="middle" x="783" y="-13.32" font-family="Helvetica,sans-Serif" font-size="14.00">(...)</text>
</g>
<!-- 12228&#45;&gt;12229 -->
<g id="edge19" class="edge">
<title>12228&#45;&gt;12229</title>
<path fill="none" stroke="black" d="M811.74,-71.75C806.98,-63.03 802.16,-54.16 797.85,-46.26"/>
<polygon fill="black" stroke="black" points="800.94,-44.61 793.08,-37.5 794.79,-47.96 800.94,-44.61"/>
</g>
<!-- 14498 -->
<g id="node21" class="node">
<title>14498</title>
<path fill="#c0c0c0" stroke="black" d="M870,-36C870,-36 840,-36 840,-36 834,-36 828,-30 828,-24 828,-24 828,-12 828,-12 828,-6 834,0 840,0 840,0 870,0 870,0 876,0 882,-6 882,-12 882,-12 882,-24 882,-24 882,-30 876,-36 870,-36"/>
<text text-anchor="middle" x="855" y="-13.32" font-family="Helvetica,sans-Serif" font-size="14.00">(...)</text>
</g>
<!-- 12228&#45;&gt;14498 -->
<g id="edge20" class="edge">
<title>12228&#45;&gt;14498</title>
<path fill="none" stroke="black" d="M845.42,-71.75C846.93,-63.42 848.47,-54.97 849.85,-47.34"/>
<polygon fill="black" stroke="black" points="853.27,-48.13 851.61,-37.66 846.38,-46.88 853.27,-48.13"/>
</g>
<!-- 15074 -->
<g id="node23" class="node">
<title>15074</title>
<path fill="#c0c0c0" stroke="black" d="M975,-36C975,-36 945,-36 945,-36 939,-36 933,-30 933,-24 933,-24 933,-12 933,-12 933,-6 939,0 945,0 945,0 975,0 975,0 981,0 987,-6 987,-12 987,-12 987,-24 987,-24 987,-30 981,-36 975,-36"/>
<text text-anchor="middle" x="960" y="-13.32" font-family="Helvetica,sans-Serif" font-size="14.00">(...)</text>
</g>
<!-- 15073&#45;&gt;15074 -->
<g id="edge22" class="edge">
<title>15073&#45;&gt;15074</title>
<path fill="none" stroke="black" d="M990.34,-71.75C985.26,-62.93 980.1,-53.96 975.52,-45.99"/>
<polygon fill="black" stroke="black" points="978.65,-44.41 970.63,-37.48 972.58,-47.9 978.65,-44.41"/>
</g>
<!-- 15795 -->
<g id="node24" class="node">
<title>15795</title>
<path fill="#c0c0c0" stroke="black" d="M1047,-36C1047,-36 1017,-36 1017,-36 1011,-36 1005,-30 1005,-24 1005,-24 1005,-12 1005,-12 1005,-6 1011,0 1017,0 1017,0 1047,0 1047,0 1053,0 1059,-6 1059,-12 1059,-12 1059,-24 1059,-24 1059,-30 1053,-36 1047,-36"/>
<text text-anchor="middle" x="1032" y="-13.32" font-family="Helvetica,sans-Serif" font-size="14.00">(...)</text>
</g>
<!-- 15073&#45;&gt;15795 -->
<g id="edge23" class="edge">
<title>15073&#45;&gt;15795</title>
<path fill="none" stroke="black" d="M1024.02,-71.75C1025.28,-63.42 1026.56,-54.97 1027.71,-47.34"/>
<polygon fill="black" stroke="black" points="1031.14,-48.08 1029.17,-37.67 1024.22,-47.03 1031.14,-48.08"/>
</g>
<!-- 16005 -->
<g id="node26" class="node">
<title>16005</title>
<path fill="#f6d2b8" stroke="black" d="M1258.5,-166.25C1258.5,-166.25 1125.5,-166.25 1125.5,-166.25 1119.5,-166.25 1113.5,-160.25 1113.5,-154.25 1113.5,-154.25 1113.5,-84 1113.5,-84 1113.5,-78 1119.5,-72 1125.5,-72 1125.5,-72 1258.5,-72 1258.5,-72 1264.5,-72 1270.5,-78 1270.5,-84 1270.5,-84 1270.5,-154.25 1270.5,-154.25 1270.5,-160.25 1264.5,-166.25 1258.5,-166.25"/>
<text text-anchor="middle" x="1192" y="-148.95" font-family="Helvetica,sans-Serif" font-size="14.00">23_C &lt;= 0.5</text>
<text text-anchor="middle" x="1192" y="-131.7" font-family="Helvetica,sans-Serif" font-size="14.00">entropy = 0.966</text>
<text text-anchor="middle" x="1192" y="-114.45" font-family="Helvetica,sans-Serif" font-size="14.00">samples = 1440</text>
<text text-anchor="middle" x="1192" y="-97.2" font-family="Helvetica,sans-Serif" font-size="14.00">value = [1418, 911]</text>
<text text-anchor="middle" x="1192" y="-79.95" font-family="Helvetica,sans-Serif" font-size="14.00">class = Animal</text>
</g>
<!-- 16004&#45;&gt;16005 -->
<g id="edge25" class="edge">
<title>16004&#45;&gt;16005</title>
<path fill="none" stroke="black" d="M1192,-202.07C1192,-194.17 1192,-185.88 1192,-177.73"/>
<polygon fill="black" stroke="black" points="1195.5,-177.87 1192,-167.87 1188.5,-177.87 1195.5,-177.87"/>
</g>
<!-- 16856 -->
<g id="node29" class="node">
<title>16856</title>
<path fill="#a4d2f3" stroke="black" d="M1433.5,-166.25C1433.5,-166.25 1300.5,-166.25 1300.5,-166.25 1294.5,-166.25 1288.5,-160.25 1288.5,-154.25 1288.5,-154.25 1288.5,-84 1288.5,-84 1288.5,-78 1294.5,-72 1300.5,-72 1300.5,-72 1433.5,-72 1433.5,-72 1439.5,-72 1445.5,-78 1445.5,-84 1445.5,-84 1445.5,-154.25 1445.5,-154.25 1445.5,-160.25 1439.5,-166.25 1433.5,-166.25"/>
<text text-anchor="middle" x="1367" y="-148.95" font-family="Helvetica,sans-Serif" font-size="14.00">11_C &lt;= 0.5</text>
<text text-anchor="middle" x="1367" y="-131.7" font-family="Helvetica,sans-Serif" font-size="14.00">entropy = 0.935</text>
<text text-anchor="middle" x="1367" y="-114.45" font-family="Helvetica,sans-Serif" font-size="14.00">samples = 1118</text>
<text text-anchor="middle" x="1367" y="-97.2" font-family="Helvetica,sans-Serif" font-size="14.00">value = [612, 1130]</text>
<text text-anchor="middle" x="1367" y="-79.95" font-family="Helvetica,sans-Serif" font-size="14.00">class = Plant</text>
</g>
<!-- 16004&#45;&gt;16856 -->
<g id="edge28" class="edge">
<title>16004&#45;&gt;16856</title>
<path fill="none" stroke="black" d="M1255.18,-202.07C1267.99,-192.69 1281.55,-182.75 1294.64,-173.15"/>
<polygon fill="black" stroke="black" points="1296.4,-176.2 1302.4,-167.47 1292.26,-170.56 1296.4,-176.2"/>
</g>
<!-- 16006 -->
<g id="node27" class="node">
<title>16006</title>
<path fill="#c0c0c0" stroke="black" d="M1168,-36C1168,-36 1138,-36 1138,-36 1132,-36 1126,-30 1126,-24 1126,-24 1126,-12 1126,-12 1126,-6 1132,0 1138,0 1138,0 1168,0 1168,0 1174,0 1180,-6 1180,-12 1180,-12 1180,-24 1180,-24 1180,-30 1174,-36 1168,-36"/>
<text text-anchor="middle" x="1153" y="-13.32" font-family="Helvetica,sans-Serif" font-size="14.00">(...)</text>
</g>
<!-- 16005&#45;&gt;16006 -->
<g id="edge26" class="edge">
<title>16005&#45;&gt;16006</title>
<path fill="none" stroke="black" d="M1173.76,-71.75C1170.4,-63.22 1166.99,-54.57 1163.94,-46.8"/>
<polygon fill="black" stroke="black" points="1167.23,-45.61 1160.31,-37.58 1160.71,-48.17 1167.23,-45.61"/>
</g>
<!-- 16823 -->
<g id="node28" class="node">
<title>16823</title>
<path fill="#c0c0c0" stroke="black" d="M1240,-36C1240,-36 1210,-36 1210,-36 1204,-36 1198,-30 1198,-24 1198,-24 1198,-12 1198,-12 1198,-6 1204,0 1210,0 1210,0 1240,0 1240,0 1246,0 1252,-6 1252,-12 1252,-12 1252,-24 1252,-24 1252,-30 1246,-36 1240,-36"/>
<text text-anchor="middle" x="1225" y="-13.32" font-family="Helvetica,sans-Serif" font-size="14.00">(...)</text>
</g>
<!-- 16005&#45;&gt;16823 -->
<g id="edge27" class="edge">
<title>16005&#45;&gt;16823</title>
<path fill="none" stroke="black" d="M1207.44,-71.75C1210.24,-63.32 1213.09,-54.77 1215.66,-47.07"/>
<polygon fill="black" stroke="black" points="1218.97,-48.2 1218.8,-37.61 1212.33,-45.99 1218.97,-48.2"/>
</g>
<!-- 16857 -->
<g id="node30" class="node">
<title>16857</title>
<path fill="#c0c0c0" stroke="black" d="M1346,-36C1346,-36 1316,-36 1316,-36 1310,-36 1304,-30 1304,-24 1304,-24 1304,-12 1304,-12 1304,-6 1310,0 1316,0 1316,0 1346,0 1346,0 1352,0 1358,-6 1358,-12 1358,-12 1358,-24 1358,-24 1358,-30 1352,-36 1346,-36"/>
<text text-anchor="middle" x="1331" y="-13.32" font-family="Helvetica,sans-Serif" font-size="14.00">(...)</text>
</g>
<!-- 16856&#45;&gt;16857 -->
<g id="edge29" class="edge">
<title>16856&#45;&gt;16857</title>
<path fill="none" stroke="black" d="M1350.16,-71.75C1347.06,-63.22 1343.92,-54.57 1341.1,-46.8"/>
<polygon fill="black" stroke="black" points="1344.46,-45.8 1337.75,-37.6 1337.88,-48.19 1344.46,-45.8"/>
</g>
<!-- 17074 -->
<g id="node31" class="node">
<title>17074</title>
<path fill="#c0c0c0" stroke="black" d="M1418,-36C1418,-36 1388,-36 1388,-36 1382,-36 1376,-30 1376,-24 1376,-24 1376,-12 1376,-12 1376,-6 1382,0 1388,0 1388,0 1418,0 1418,0 1424,0 1430,-6 1430,-12 1430,-12 1430,-24 1430,-24 1430,-30 1424,-36 1418,-36"/>
<text text-anchor="middle" x="1403" y="-13.32" font-family="Helvetica,sans-Serif" font-size="14.00">(...)</text>
</g>
<!-- 16856&#45;&gt;17074 -->
<g id="edge30" class="edge">
<title>16856&#45;&gt;17074</title>
<path fill="none" stroke="black" d="M1383.84,-71.75C1386.94,-63.22 1390.08,-54.57 1392.9,-46.8"/>
<polygon fill="black" stroke="black" points="1396.12,-48.19 1396.25,-37.6 1389.54,-45.8 1396.12,-48.19"/>
</g>
</g>
</svg>
