<?xml version="1.0" encoding="UTF-8" standalone="no"?>
<!DOCTYPE svg PUBLIC "-//W3C//DTD SVG 1.1//EN"
 "http://www.w3.org/Graphics/SVG/1.1/DTD/svg11.dtd">
<!-- Generated by graphviz version 12.0.0 (20240803.0821)
 -->
<!-- Title: Tree Pages: 1 -->
<svg width="1445pt" height="565pt"
 viewBox="0.00 0.00 1444.50 565.00" xmlns="http://www.w3.org/2000/svg" xmlns:xlink="http://www.w3.org/1999/xlink">
<g id="graph0" class="graph" transform="scale(1 1) rotate(0) translate(4 561)">
<title>Tree</title>
<polygon fill="white" stroke="none" points="-4,4 -4,-561 1440.5,-561 1440.5,4 -4,4"/>
<!-- 0 -->
<g id="node1" class="node">
<title>0</title>
<path fill="#fefeff" stroke="black" d="M802,-557C802,-557 642,-557 642,-557 636,-557 630,-551 630,-545 630,-545 630,-474.75 630,-474.75 630,-468.75 636,-462.75 642,-462.75 642,-462.75 802,-462.75 802,-462.75 808,-462.75 814,-468.75 814,-474.75 814,-474.75 814,-545 814,-545 814,-551 808,-557 802,-557"/>
<text text-anchor="middle" x="722" y="-539.7" font-family="Helvetica,sans-Serif" font-size="14.00">2_A &lt;= 0.5</text>
<text text-anchor="middle" x="722" y="-522.45" font-family="Helvetica,sans-Serif" font-size="14.00">entropy = 1.0</text>
<text text-anchor="middle" x="722" y="-505.2" font-family="Helvetica,sans-Serif" font-size="14.00">samples = 38281</text>
<text text-anchor="middle" x="722" y="-487.95" font-family="Helvetica,sans-Serif" font-size="14.00">value = [30078, 30267]</text>
<text text-anchor="middle" x="722" y="-470.7" font-family="Helvetica,sans-Serif" font-size="14.00">class = Plant</text>
</g>
<!-- 1 -->
<g id="node2" class="node">
<title>1</title>
<path fill="#dfeffb" stroke="black" d="M632,-426.75C632,-426.75 472,-426.75 472,-426.75 466,-426.75 460,-420.75 460,-414.75 460,-414.75 460,-344.5 460,-344.5 460,-338.5 466,-332.5 472,-332.5 472,-332.5 632,-332.5 632,-332.5 638,-332.5 644,-338.5 644,-344.5 644,-344.5 644,-414.75 644,-414.75 644,-420.75 638,-426.75 632,-426.75"/>
<text text-anchor="middle" x="552" y="-409.45" font-family="Helvetica,sans-Serif" font-size="14.00">22_C &lt;= 0.5</text>
<text text-anchor="middle" x="552" y="-392.2" font-family="Helvetica,sans-Serif" font-size="14.00">entropy = 0.995</text>
<text text-anchor="middle" x="552" y="-374.95" font-family="Helvetica,sans-Serif" font-size="14.00">samples = 29021</text>
<text text-anchor="middle" x="552" y="-357.7" font-family="Helvetica,sans-Serif" font-size="14.00">value = [20908, 24893]</text>
<text text-anchor="middle" x="552" y="-340.45" font-family="Helvetica,sans-Serif" font-size="14.00">class = Plant</text>
</g>
<!-- 0&#45;&gt;1 -->
<g id="edge1" class="edge">
<title>0&#45;&gt;1</title>
<path fill="none" stroke="black" d="M660.63,-462.57C648.3,-453.28 635.26,-443.44 622.66,-433.93"/>
<polygon fill="black" stroke="black" points="624.87,-431.21 614.78,-427.99 620.65,-436.8 624.87,-431.21"/>
<text text-anchor="middle" x="617.03" y="-447.16" font-family="Helvetica,sans-Serif" font-size="14.00">True</text>
</g>
<!-- 12866 -->
<g id="node17" class="node">
<title>12866</title>
<path fill="#f4cbad" stroke="black" d="M980,-426.75C980,-426.75 838,-426.75 838,-426.75 832,-426.75 826,-420.75 826,-414.75 826,-414.75 826,-344.5 826,-344.5 826,-338.5 832,-332.5 838,-332.5 838,-332.5 980,-332.5 980,-332.5 986,-332.5 992,-338.5 992,-344.5 992,-344.5 992,-414.75 992,-414.75 992,-420.75 986,-426.75 980,-426.75"/>
<text text-anchor="middle" x="909" y="-409.45" font-family="Helvetica,sans-Serif" font-size="14.00">5_C &lt;= 0.5</text>
<text text-anchor="middle" x="909" y="-392.2" font-family="Helvetica,sans-Serif" font-size="14.00">entropy = 0.95</text>
<text text-anchor="middle" x="909" y="-374.95" font-family="Helvetica,sans-Serif" font-size="14.00">samples = 9260</text>
<text text-anchor="middle" x="909" y="-357.7" font-family="Helvetica,sans-Serif" font-size="14.00">value = [9170, 5374]</text>
<text text-anchor="middle" x="909" y="-340.45" font-family="Helvetica,sans-Serif" font-size="14.00">class = Animal</text>
</g>
<!-- 0&#45;&gt;12866 -->
<g id="edge16" class="edge">
<title>0&#45;&gt;12866</title>
<path fill="none" stroke="black" d="M789.78,-462.39C803.49,-452.98 818.01,-443.03 832.02,-433.42"/>
<polygon fill="black" stroke="black" points="833.63,-436.56 839.89,-428.02 829.67,-430.79 833.63,-436.56"/>
<text text-anchor="middle" x="836.56" y="-447.07" font-family="Helvetica,sans-Serif" font-size="14.00">False</text>
</g>
<!-- 2 -->
<g id="node3" class="node">
<title>2</title>
<path fill="#cfe7f9" stroke="black" d="M365,-296.5C365,-296.5 205,-296.5 205,-296.5 199,-296.5 193,-290.5 193,-284.5 193,-284.5 193,-214.25 193,-214.25 193,-208.25 199,-202.25 205,-202.25 205,-202.25 365,-202.25 365,-202.25 371,-202.25 377,-208.25 377,-214.25 377,-214.25 377,-284.5 377,-284.5 377,-290.5 371,-296.5 365,-296.5"/>
<text text-anchor="middle" x="285" y="-279.2" font-family="Helvetica,sans-Serif" font-size="14.00">1_A &lt;= 0.5</text>
<text text-anchor="middle" x="285" y="-261.95" font-family="Helvetica,sans-Serif" font-size="14.00">entropy = 0.986</text>
<text text-anchor="middle" x="285" y="-244.7" font-family="Helvetica,sans-Serif" font-size="14.00">samples = 26143</text>
<text text-anchor="middle" x="285" y="-227.45" font-family="Helvetica,sans-Serif" font-size="14.00">value = [17772, 23503]</text>
<text text-anchor="middle" x="285" y="-210.2" font-family="Helvetica,sans-Serif" font-size="14.00">class = Plant</text>
</g>
<!-- 1&#45;&gt;2 -->
<g id="edge2" class="edge">
<title>1&#45;&gt;2</title>
<path fill="none" stroke="black" d="M459.74,-334.31C436.4,-323.1 411.18,-310.99 387.37,-299.55"/>
<polygon fill="black" stroke="black" points="389.16,-296.52 378.63,-295.35 386.13,-302.83 389.16,-296.52"/>
</g>
<!-- 11351 -->
<g id="node10" class="node">
<title>11351</title>
<path fill="#f1b991" stroke="black" d="M623,-296.5C623,-296.5 481,-296.5 481,-296.5 475,-296.5 469,-290.5 469,-284.5 469,-284.5 469,-214.25 469,-214.25 469,-208.25 475,-202.25 481,-202.25 481,-202.25 623,-202.25 623,-202.25 629,-202.25 635,-208.25 635,-214.25 635,-214.25 635,-284.5 635,-284.5 635,-290.5 629,-296.5 623,-296.5"/>
<text text-anchor="middle" x="552" y="-279.2" font-family="Helvetica,sans-Serif" font-size="14.00">9_U &lt;= 0.5</text>
<text text-anchor="middle" x="552" y="-261.95" font-family="Helvetica,sans-Serif" font-size="14.00">entropy = 0.89</text>
<text text-anchor="middle" x="552" y="-244.7" font-family="Helvetica,sans-Serif" font-size="14.00">samples = 2878</text>
<text text-anchor="middle" x="552" y="-227.45" font-family="Helvetica,sans-Serif" font-size="14.00">value = [3136, 1390]</text>
<text text-anchor="middle" x="552" y="-210.2" font-family="Helvetica,sans-Serif" font-size="14.00">class = Animal</text>
</g>
<!-- 1&#45;&gt;11351 -->
<g id="edge9" class="edge">
<title>1&#45;&gt;11351</title>
<path fill="none" stroke="black" d="M552,-332.32C552,-324.42 552,-316.13 552,-307.98"/>
<polygon fill="black" stroke="black" points="555.5,-308.12 552,-298.12 548.5,-308.12 555.5,-308.12"/>
</g>
<!-- 3 -->
<g id="node4" class="node">
<title>3</title>
<path fill="#baddf6" stroke="black" d="M172,-166.25C172,-166.25 12,-166.25 12,-166.25 6,-166.25 0,-160.25 0,-154.25 0,-154.25 0,-84 0,-84 0,-78 6,-72 12,-72 12,-72 172,-72 172,-72 178,-72 184,-78 184,-84 184,-84 184,-154.25 184,-154.25 184,-160.25 178,-166.25 172,-166.25"/>
<text text-anchor="middle" x="92" y="-148.95" font-family="Helvetica,sans-Serif" font-size="14.00">9_U &lt;= 0.5</text>
<text text-anchor="middle" x="92" y="-131.7" font-family="Helvetica,sans-Serif" font-size="14.00">entropy = 0.968</text>
<text text-anchor="middle" x="92" y="-114.45" font-family="Helvetica,sans-Serif" font-size="14.00">samples = 21183</text>
<text text-anchor="middle" x="92" y="-97.2" font-family="Helvetica,sans-Serif" font-size="14.00">value = [13222, 20266]</text>
<text text-anchor="middle" x="92" y="-79.95" font-family="Helvetica,sans-Serif" font-size="14.00">class = Plant</text>
</g>
<!-- 2&#45;&gt;3 -->
<g id="edge3" class="edge">
<title>2&#45;&gt;3</title>
<path fill="none" stroke="black" d="M215.05,-201.89C200.89,-192.48 185.9,-182.53 171.45,-172.92"/>
<polygon fill="black" stroke="black" points="173.56,-170.12 163.3,-167.5 169.69,-175.95 173.56,-170.12"/>
</g>
<!-- 8722 -->
<g id="node7" class="node">
<title>8722</title>
<path fill="#f7dbc6" stroke="black" d="M356,-166.25C356,-166.25 214,-166.25 214,-166.25 208,-166.25 202,-160.25 202,-154.25 202,-154.25 202,-84 202,-84 202,-78 208,-72 214,-72 214,-72 356,-72 356,-72 362,-72 368,-78 368,-84 368,-84 368,-154.25 368,-154.25 368,-160.25 362,-166.25 356,-166.25"/>
<text text-anchor="middle" x="285" y="-148.95" font-family="Helvetica,sans-Serif" font-size="14.00">19_U &lt;= 0.5</text>
<text text-anchor="middle" x="285" y="-131.7" font-family="Helvetica,sans-Serif" font-size="14.00">entropy = 0.979</text>
<text text-anchor="middle" x="285" y="-114.45" font-family="Helvetica,sans-Serif" font-size="14.00">samples = 4960</text>
<text text-anchor="middle" x="285" y="-97.2" font-family="Helvetica,sans-Serif" font-size="14.00">value = [4550, 3237]</text>
<text text-anchor="middle" x="285" y="-79.95" font-family="Helvetica,sans-Serif" font-size="14.00">class = Animal</text>
</g>
<!-- 2&#45;&gt;8722 -->
<g id="edge6" class="edge">
<title>2&#45;&gt;8722</title>
<path fill="none" stroke="black" d="M285,-202.07C285,-194.17 285,-185.88 285,-177.73"/>
<polygon fill="black" stroke="black" points="288.5,-177.87 285,-167.87 281.5,-177.87 288.5,-177.87"/>
</g>
<!-- 4 -->
<g id="node5" class="node">
<title>4</title>
<path fill="#c0c0c0" stroke="black" d="M71,-36C71,-36 41,-36 41,-36 35,-36 29,-30 29,-24 29,-24 29,-12 29,-12 29,-6 35,0 41,0 41,0 71,0 71,0 77,0 83,-6 83,-12 83,-12 83,-24 83,-24 83,-30 77,-36 71,-36"/>
<text text-anchor="middle" x="56" y="-13.32" font-family="Helvetica,sans-Serif" font-size="14.00">(...)</text>
</g>
<!-- 3&#45;&gt;4 -->
<g id="edge4" class="edge">
<title>3&#45;&gt;4</title>
<path fill="none" stroke="black" d="M75.16,-71.75C72.06,-63.22 68.92,-54.57 66.1,-46.8"/>
<polygon fill="black" stroke="black" points="69.46,-45.8 62.75,-37.6 62.88,-48.19 69.46,-45.8"/>
</g>
<!-- 6217 -->
<g id="node6" class="node">
<title>6217</title>
<path fill="#c0c0c0" stroke="black" d="M143,-36C143,-36 113,-36 113,-36 107,-36 101,-30 101,-24 101,-24 101,-12 101,-12 101,-6 107,0 113,0 113,0 143,0 143,0 149,0 155,-6 155,-12 155,-12 155,-24 155,-24 155,-30 149,-36 143,-36"/>
<text text-anchor="middle" x="128" y="-13.32" font-family="Helvetica,sans-Serif" font-size="14.00">(...)</text>
</g>
<!-- 3&#45;&gt;6217 -->
<g id="edge5" class="edge">
<title>3&#45;&gt;6217</title>
<path fill="none" stroke="black" d="M108.84,-71.75C111.94,-63.22 115.08,-54.57 117.9,-46.8"/>
<polygon fill="black" stroke="black" points="121.12,-48.19 121.25,-37.6 114.54,-45.8 121.12,-48.19"/>
</g>
<!-- 8723 -->
<g id="node8" class="node">
<title>8723</title>
<path fill="#c0c0c0" stroke="black" d="M263,-36C263,-36 233,-36 233,-36 227,-36 221,-30 221,-24 221,-24 221,-12 221,-12 221,-6 227,0 233,0 233,0 263,0 263,0 269,0 275,-6 275,-12 275,-12 275,-24 275,-24 275,-30 269,-36 263,-36"/>
<text text-anchor="middle" x="248" y="-13.32" font-family="Helvetica,sans-Serif" font-size="14.00">(...)</text>
</g>
<!-- 8722&#45;&gt;8723 -->
<g id="edge7" class="edge">
<title>8722&#45;&gt;8723</title>
<path fill="none" stroke="black" d="M267.69,-71.75C264.51,-63.22 261.28,-54.57 258.38,-46.8"/>
<polygon fill="black" stroke="black" points="261.72,-45.74 254.94,-37.59 255.16,-48.18 261.72,-45.74"/>
</g>
<!-- 10690 -->
<g id="node9" class="node">
<title>10690</title>
<path fill="#c0c0c0" stroke="black" d="M335,-36C335,-36 305,-36 305,-36 299,-36 293,-30 293,-24 293,-24 293,-12 293,-12 293,-6 299,0 305,0 305,0 335,0 335,0 341,0 347,-6 347,-12 347,-12 347,-24 347,-24 347,-30 341,-36 335,-36"/>
<text text-anchor="middle" x="320" y="-13.32" font-family="Helvetica,sans-Serif" font-size="14.00">(...)</text>
</g>
<!-- 8722&#45;&gt;10690 -->
<g id="edge8" class="edge">
<title>8722&#45;&gt;10690</title>
<path fill="none" stroke="black" d="M301.37,-71.75C304.39,-63.22 307.44,-54.57 310.18,-46.8"/>
<polygon fill="black" stroke="black" points="313.4,-48.19 313.43,-37.6 306.8,-45.86 313.4,-48.19"/>
</g>
<!-- 11352 -->
<g id="node11" class="node">
<title>11352</title>
<path fill="#f1bd98" stroke="black" d="M540,-166.25C540,-166.25 398,-166.25 398,-166.25 392,-166.25 386,-160.25 386,-154.25 386,-154.25 386,-84 386,-84 386,-78 392,-72 398,-72 398,-72 540,-72 540,-72 546,-72 552,-78 552,-84 552,-84 552,-154.25 552,-154.25 552,-160.25 546,-166.25 540,-166.25"/>
<text text-anchor="middle" x="469" y="-148.95" font-family="Helvetica,sans-Serif" font-size="14.00">5_A &lt;= 0.5</text>
<text text-anchor="middle" x="469" y="-131.7" font-family="Helvetica,sans-Serif" font-size="14.00">entropy = 0.909</text>
<text text-anchor="middle" x="469" y="-114.45" font-family="Helvetica,sans-Serif" font-size="14.00">samples = 2075</text>
<text text-anchor="middle" x="469" y="-97.2" font-family="Helvetica,sans-Serif" font-size="14.00">value = [2211, 1060]</text>
<text text-anchor="middle" x="469" y="-79.95" font-family="Helvetica,sans-Serif" font-size="14.00">class = Animal</text>
</g>
<!-- 11351&#45;&gt;11352 -->
<g id="edge10" class="edge">
<title>11351&#45;&gt;11352</title>
<path fill="none" stroke="black" d="M522.04,-202.07C516.51,-193.54 510.69,-184.54 505.01,-175.77"/>
<polygon fill="black" stroke="black" points="508.11,-174.12 499.74,-167.63 502.24,-177.93 508.11,-174.12"/>
</g>
<!-- 12455 -->
<g id="node14" class="node">
<title>12455</title>
<path fill="#eeae80" stroke="black" d="M706,-166.25C706,-166.25 582,-166.25 582,-166.25 576,-166.25 570,-160.25 570,-154.25 570,-154.25 570,-84 570,-84 570,-78 576,-72 582,-72 582,-72 706,-72 706,-72 712,-72 718,-78 718,-84 718,-84 718,-154.25 718,-154.25 718,-160.25 712,-166.25 706,-166.25"/>
<text text-anchor="middle" x="644" y="-148.95" font-family="Helvetica,sans-Serif" font-size="14.00">2_U &lt;= 0.5</text>
<text text-anchor="middle" x="644" y="-131.7" font-family="Helvetica,sans-Serif" font-size="14.00">entropy = 0.831</text>
<text text-anchor="middle" x="644" y="-114.45" font-family="Helvetica,sans-Serif" font-size="14.00">samples = 803</text>
<text text-anchor="middle" x="644" y="-97.2" font-family="Helvetica,sans-Serif" font-size="14.00">value = [925, 330]</text>
<text text-anchor="middle" x="644" y="-79.95" font-family="Helvetica,sans-Serif" font-size="14.00">class = Animal</text>
</g>
<!-- 11351&#45;&gt;12455 -->
<g id="edge13" class="edge">
<title>11351&#45;&gt;12455</title>
<path fill="none" stroke="black" d="M585.21,-202.07C591.4,-193.45 597.93,-184.35 604.29,-175.49"/>
<polygon fill="black" stroke="black" points="606.97,-177.75 609.95,-167.59 601.28,-173.67 606.97,-177.75"/>
</g>
<!-- 11353 -->
<g id="node12" class="node">
<title>11353</title>
<path fill="#c0c0c0" stroke="black" d="M427,-36C427,-36 397,-36 397,-36 391,-36 385,-30 385,-24 385,-24 385,-12 385,-12 385,-6 391,0 397,0 397,0 427,0 427,0 433,0 439,-6 439,-12 439,-12 439,-24 439,-24 439,-30 433,-36 427,-36"/>
<text text-anchor="middle" x="412" y="-13.32" font-family="Helvetica,sans-Serif" font-size="14.00">(...)</text>
</g>
<!-- 11352&#45;&gt;11353 -->
<g id="edge11" class="edge">
<title>11352&#45;&gt;11353</title>
<path fill="none" stroke="black" d="M442.34,-71.75C437.26,-62.93 432.1,-53.96 427.52,-45.99"/>
<polygon fill="black" stroke="black" points="430.65,-44.41 422.63,-37.48 424.58,-47.9 430.65,-44.41"/>
</g>
<!-- 12168 -->
<g id="node13" class="node">
<title>12168</title>
<path fill="#c0c0c0" stroke="black" d="M499,-36C499,-36 469,-36 469,-36 463,-36 457,-30 457,-24 457,-24 457,-12 457,-12 457,-6 463,0 469,0 469,0 499,0 499,0 505,0 511,-6 511,-12 511,-12 511,-24 511,-24 511,-30 505,-36 499,-36"/>
<text text-anchor="middle" x="484" y="-13.32" font-family="Helvetica,sans-Serif" font-size="14.00">(...)</text>
</g>
<!-- 11352&#45;&gt;12168 -->
<g id="edge12" class="edge">
<title>11352&#45;&gt;12168</title>
<path fill="none" stroke="black" d="M476.02,-71.75C477.28,-63.42 478.56,-54.97 479.71,-47.34"/>
<polygon fill="black" stroke="black" points="483.14,-48.08 481.17,-37.67 476.22,-47.03 483.14,-48.08"/>
</g>
<!-- 12456 -->
<g id="node15" class="node">
<title>12456</title>
<path fill="#c0c0c0" stroke="black" d="M602,-36C602,-36 572,-36 572,-36 566,-36 560,-30 560,-24 560,-24 560,-12 560,-12 560,-6 566,0 572,0 572,0 602,0 602,0 608,0 614,-6 614,-12 614,-12 614,-24 614,-24 614,-30 608,-36 602,-36"/>
<text text-anchor="middle" x="587" y="-13.32" font-family="Helvetica,sans-Serif" font-size="14.00">(...)</text>
</g>
<!-- 12455&#45;&gt;12456 -->
<g id="edge14" class="edge">
<title>12455&#45;&gt;12456</title>
<path fill="none" stroke="black" d="M617.34,-71.75C612.26,-62.93 607.1,-53.96 602.52,-45.99"/>
<polygon fill="black" stroke="black" points="605.65,-44.41 597.63,-37.48 599.58,-47.9 605.65,-44.41"/>
</g>
<!-- 12749 -->
<g id="node16" class="node">
<title>12749</title>
<path fill="#c0c0c0" stroke="black" d="M674,-36C674,-36 644,-36 644,-36 638,-36 632,-30 632,-24 632,-24 632,-12 632,-12 632,-6 638,0 644,0 644,0 674,0 674,0 680,0 686,-6 686,-12 686,-12 686,-24 686,-24 686,-30 680,-36 674,-36"/>
<text text-anchor="middle" x="659" y="-13.32" font-family="Helvetica,sans-Serif" font-size="14.00">(...)</text>
</g>
<!-- 12455&#45;&gt;12749 -->
<g id="edge15" class="edge">
<title>12455&#45;&gt;12749</title>
<path fill="none" stroke="black" d="M651.02,-71.75C652.28,-63.42 653.56,-54.97 654.71,-47.34"/>
<polygon fill="black" stroke="black" points="658.14,-48.08 656.17,-37.67 651.22,-47.03 658.14,-48.08"/>
</g>
<!-- 12867 -->
<g id="node18" class="node">
<title>12867</title>
<path fill="#f1bb94" stroke="black" d="M980,-296.5C980,-296.5 838,-296.5 838,-296.5 832,-296.5 826,-290.5 826,-284.5 826,-284.5 826,-214.25 826,-214.25 826,-208.25 832,-202.25 838,-202.25 838,-202.25 980,-202.25 980,-202.25 986,-202.25 992,-208.25 992,-214.25 992,-214.25 992,-284.5 992,-284.5 992,-290.5 986,-296.5 980,-296.5"/>
<text text-anchor="middle" x="909" y="-279.2" font-family="Helvetica,sans-Serif" font-size="14.00">1_A &lt;= 0.5</text>
<text text-anchor="middle" x="909" y="-261.95" font-family="Helvetica,sans-Serif" font-size="14.00">entropy = 0.898</text>
<text text-anchor="middle" x="909" y="-244.7" font-family="Helvetica,sans-Serif" font-size="14.00">samples = 6821</text>
<text text-anchor="middle" x="909" y="-227.45" font-family="Helvetica,sans-Serif" font-size="14.00">value = [7335, 3357]</text>
<text text-anchor="middle" x="909" y="-210.2" font-family="Helvetica,sans-Serif" font-size="14.00">class = Animal</text>
</g>
<!-- 12866&#45;&gt;12867 -->
<g id="edge17" class="edge">
<title>12866&#45;&gt;12867</title>
<path fill="none" stroke="black" d="M909,-332.32C909,-324.42 909,-316.13 909,-307.98"/>
<polygon fill="black" stroke="black" points="912.5,-308.12 909,-298.12 905.5,-308.12 912.5,-308.12"/>
</g>
<!-- 16178 -->
<g id="node25" class="node">
<title>16178</title>
<path fill="#edf6fd" stroke="black" d="M1254,-296.5C1254,-296.5 1112,-296.5 1112,-296.5 1106,-296.5 1100,-290.5 1100,-284.5 1100,-284.5 1100,-214.25 1100,-214.25 1100,-208.25 1106,-202.25 1112,-202.25 1112,-202.25 1254,-202.25 1254,-202.25 1260,-202.25 1266,-208.25 1266,-214.25 1266,-214.25 1266,-284.5 1266,-284.5 1266,-290.5 1260,-296.5 1254,-296.5"/>
<text text-anchor="middle" x="1183" y="-279.2" font-family="Helvetica,sans-Serif" font-size="14.00">15_U &lt;= 0.5</text>
<text text-anchor="middle" x="1183" y="-261.95" font-family="Helvetica,sans-Serif" font-size="14.00">entropy = 0.998</text>
<text text-anchor="middle" x="1183" y="-244.7" font-family="Helvetica,sans-Serif" font-size="14.00">samples = 2439</text>
<text text-anchor="middle" x="1183" y="-227.45" font-family="Helvetica,sans-Serif" font-size="14.00">value = [1835, 2017]</text>
<text text-anchor="middle" x="1183" y="-210.2" font-family="Helvetica,sans-Serif" font-size="14.00">class = Plant</text>
</g>
<!-- 12866&#45;&gt;16178 -->
<g id="edge24" class="edge">
<title>12866&#45;&gt;16178</title>
<path fill="none" stroke="black" d="M992.33,-339.62C1023.01,-325.26 1057.97,-308.9 1089.49,-294.14"/>
<polygon fill="black" stroke="black" points="1090.66,-297.46 1098.23,-290.05 1087.69,-291.12 1090.66,-297.46"/>
</g>
<!-- 12868 -->
<g id="node19" class="node">
<title>12868</title>
<path fill="#f0b58b" stroke="black" d="M890,-166.25C890,-166.25 748,-166.25 748,-166.25 742,-166.25 736,-160.25 736,-154.25 736,-154.25 736,-84 736,-84 736,-78 742,-72 748,-72 748,-72 890,-72 890,-72 896,-72 902,-78 902,-84 902,-84 902,-154.25 902,-154.25 902,-160.25 896,-166.25 890,-166.25"/>
<text text-anchor="middle" x="819" y="-148.95" font-family="Helvetica,sans-Serif" font-size="14.00">21_U &lt;= 0.5</text>
<text text-anchor="middle" x="819" y="-131.7" font-family="Helvetica,sans-Serif" font-size="14.00">entropy = 0.873</text>
<text text-anchor="middle" x="819" y="-114.45" font-family="Helvetica,sans-Serif" font-size="14.00">samples = 4960</text>
<text text-anchor="middle" x="819" y="-97.2" font-family="Helvetica,sans-Serif" font-size="14.00">value = [5514, 2286]</text>
<text text-anchor="middle" x="819" y="-79.95" font-family="Helvetica,sans-Serif" font-size="14.00">class = Animal</text>
</g>
<!-- 12867&#45;&gt;12868 -->
<g id="edge18" class="edge">
<title>12867&#45;&gt;12868</title>
<path fill="none" stroke="black" d="M876.51,-202.07C870.52,-193.54 864.21,-184.54 858.05,-175.77"/>
<polygon fill="black" stroke="black" points="860.92,-173.77 852.31,-167.6 855.19,-177.79 860.92,-173.77"/>
</g>
<!-- 15301 -->
<g id="node22" class="node">
<title>15301</title>
<path fill="#f4cbad" stroke="black" d="M1074,-166.25C1074,-166.25 932,-166.25 932,-166.25 926,-166.25 920,-160.25 920,-154.25 920,-154.25 920,-84 920,-84 920,-78 926,-72 932,-72 932,-72 1074,-72 1074,-72 1080,-72 1086,-78 1086,-84 1086,-84 1086,-154.25 1086,-154.25 1086,-160.25 1080,-166.25 1074,-166.25"/>
<text text-anchor="middle" x="1003" y="-148.95" font-family="Helvetica,sans-Serif" font-size="14.00">12_G &lt;= 0.5</text>
<text text-anchor="middle" x="1003" y="-131.7" font-family="Helvetica,sans-Serif" font-size="14.00">entropy = 0.951</text>
<text text-anchor="middle" x="1003" y="-114.45" font-family="Helvetica,sans-Serif" font-size="14.00">samples = 1861</text>
<text text-anchor="middle" x="1003" y="-97.2" font-family="Helvetica,sans-Serif" font-size="14.00">value = [1821, 1071]</text>
<text text-anchor="middle" x="1003" y="-79.95" font-family="Helvetica,sans-Serif" font-size="14.00">class = Animal</text>
</g>
<!-- 12867&#45;&gt;15301 -->
<g id="edge21" class="edge">
<title>12867&#45;&gt;15301</title>
<path fill="none" stroke="black" d="M942.94,-202.07C949.26,-193.45 955.92,-184.35 962.42,-175.49"/>
<polygon fill="black" stroke="black" points="965.13,-177.71 968.22,-167.58 959.48,-173.58 965.13,-177.71"/>
</g>
<!-- 12869 -->
<g id="node20" class="node">
<title>12869</title>
<path fill="#c0c0c0" stroke="black" d="M782,-36C782,-36 752,-36 752,-36 746,-36 740,-30 740,-24 740,-24 740,-12 740,-12 740,-6 746,0 752,0 752,0 782,0 782,0 788,0 794,-6 794,-12 794,-12 794,-24 794,-24 794,-30 788,-36 782,-36"/>
<text text-anchor="middle" x="767" y="-13.32" font-family="Helvetica,sans-Serif" font-size="14.00">(...)</text>
</g>
<!-- 12868&#45;&gt;12869 -->
<g id="edge19" class="edge">
<title>12868&#45;&gt;12869</title>
<path fill="none" stroke="black" d="M794.67,-71.75C790.1,-63.03 785.45,-54.16 781.3,-46.26"/>
<polygon fill="black" stroke="black" points="784.46,-44.74 776.71,-37.51 778.26,-47.99 784.46,-44.74"/>
</g>
<!-- 14812 -->
<g id="node21" class="node">
<title>14812</title>
<path fill="#c0c0c0" stroke="black" d="M854,-36C854,-36 824,-36 824,-36 818,-36 812,-30 812,-24 812,-24 812,-12 812,-12 812,-6 818,0 824,0 824,0 854,0 854,0 860,0 866,-6 866,-12 866,-12 866,-24 866,-24 866,-30 860,-36 854,-36"/>
<text text-anchor="middle" x="839" y="-13.32" font-family="Helvetica,sans-Serif" font-size="14.00">(...)</text>
</g>
<!-- 12868&#45;&gt;14812 -->
<g id="edge20" class="edge">
<title>12868&#45;&gt;14812</title>
<path fill="none" stroke="black" d="M828.36,-71.75C830.04,-63.42 831.74,-54.97 833.28,-47.34"/>
<polygon fill="black" stroke="black" points="836.69,-48.15 835.24,-37.66 829.83,-46.77 836.69,-48.15"/>
</g>
<!-- 15302 -->
<g id="node23" class="node">
<title>15302</title>
<path fill="#c0c0c0" stroke="black" d="M964,-36C964,-36 934,-36 934,-36 928,-36 922,-30 922,-24 922,-24 922,-12 922,-12 922,-6 928,0 934,0 934,0 964,0 964,0 970,0 976,-6 976,-12 976,-12 976,-24 976,-24 976,-30 970,-36 964,-36"/>
<text text-anchor="middle" x="949" y="-13.32" font-family="Helvetica,sans-Serif" font-size="14.00">(...)</text>
</g>
<!-- 15301&#45;&gt;15302 -->
<g id="edge22" class="edge">
<title>15301&#45;&gt;15302</title>
<path fill="none" stroke="black" d="M977.74,-71.75C972.98,-63.03 968.16,-54.16 963.85,-46.26"/>
<polygon fill="black" stroke="black" points="966.94,-44.61 959.08,-37.5 960.79,-47.96 966.94,-44.61"/>
</g>
<!-- 15939 -->
<g id="node24" class="node">
<title>15939</title>
<path fill="#c0c0c0" stroke="black" d="M1036,-36C1036,-36 1006,-36 1006,-36 1000,-36 994,-30 994,-24 994,-24 994,-12 994,-12 994,-6 1000,0 1006,0 1006,0 1036,0 1036,0 1042,0 1048,-6 1048,-12 1048,-12 1048,-24 1048,-24 1048,-30 1042,-36 1036,-36"/>
<text text-anchor="middle" x="1021" y="-13.32" font-family="Helvetica,sans-Serif" font-size="14.00">(...)</text>
</g>
<!-- 15301&#45;&gt;15939 -->
<g id="edge23" class="edge">
<title>15301&#45;&gt;15939</title>
<path fill="none" stroke="black" d="M1011.42,-71.75C1012.93,-63.42 1014.47,-54.97 1015.85,-47.34"/>
<polygon fill="black" stroke="black" points="1019.27,-48.13 1017.61,-37.66 1012.38,-46.88 1019.27,-48.13"/>
</g>
<!-- 16179 -->
<g id="node26" class="node">
<title>16179</title>
<path fill="#f4caac" stroke="black" d="M1249.5,-166.25C1249.5,-166.25 1116.5,-166.25 1116.5,-166.25 1110.5,-166.25 1104.5,-160.25 1104.5,-154.25 1104.5,-154.25 1104.5,-84 1104.5,-84 1104.5,-78 1110.5,-72 1116.5,-72 1116.5,-72 1249.5,-72 1249.5,-72 1255.5,-72 1261.5,-78 1261.5,-84 1261.5,-84 1261.5,-154.25 1261.5,-154.25 1261.5,-160.25 1255.5,-166.25 1249.5,-166.25"/>
<text text-anchor="middle" x="1183" y="-148.95" font-family="Helvetica,sans-Serif" font-size="14.00">7_A &lt;= 0.5</text>
<text text-anchor="middle" x="1183" y="-131.7" font-family="Helvetica,sans-Serif" font-size="14.00">entropy = 0.948</text>
<text text-anchor="middle" x="1183" y="-114.45" font-family="Helvetica,sans-Serif" font-size="14.00">samples = 1440</text>
<text text-anchor="middle" x="1183" y="-97.2" font-family="Helvetica,sans-Serif" font-size="14.00">value = [1461, 847]</text>
<text text-anchor="middle" x="1183" y="-79.95" font-family="Helvetica,sans-Serif" font-size="14.00">class = Animal</text>
</g>
<!-- 16178&#45;&gt;16179 -->
<g id="edge25" class="edge">
<title>16178&#45;&gt;16179</title>
<path fill="none" stroke="black" d="M1183,-202.07C1183,-194.17 1183,-185.88 1183,-177.73"/>
<polygon fill="black" stroke="black" points="1186.5,-177.87 1183,-167.87 1179.5,-177.87 1186.5,-177.87"/>
</g>
<!-- 16830 -->
<g id="node29" class="node">
<title>16830</title>
<path fill="#78bced" stroke="black" d="M1424.5,-166.25C1424.5,-166.25 1291.5,-166.25 1291.5,-166.25 1285.5,-166.25 1279.5,-160.25 1279.5,-154.25 1279.5,-154.25 1279.5,-84 1279.5,-84 1279.5,-78 1285.5,-72 1291.5,-72 1291.5,-72 1424.5,-72 1424.5,-72 1430.5,-72 1436.5,-78 1436.5,-84 1436.5,-84 1436.5,-154.25 1436.5,-154.25 1436.5,-160.25 1430.5,-166.25 1424.5,-166.25"/>
<text text-anchor="middle" x="1358" y="-148.95" font-family="Helvetica,sans-Serif" font-size="14.00">12_G &lt;= 0.5</text>
<text text-anchor="middle" x="1358" y="-131.7" font-family="Helvetica,sans-Serif" font-size="14.00">entropy = 0.799</text>
<text text-anchor="middle" x="1358" y="-114.45" font-family="Helvetica,sans-Serif" font-size="14.00">samples = 999</text>
<text text-anchor="middle" x="1358" y="-97.2" font-family="Helvetica,sans-Serif" font-size="14.00">value = [374, 1170]</text>
<text text-anchor="middle" x="1358" y="-79.95" font-family="Helvetica,sans-Serif" font-size="14.00">class = Plant</text>
</g>
<!-- 16178&#45;&gt;16830 -->
<g id="edge28" class="edge">
<title>16178&#45;&gt;16830</title>
<path fill="none" stroke="black" d="M1246.18,-202.07C1258.99,-192.69 1272.55,-182.75 1285.64,-173.15"/>
<polygon fill="black" stroke="black" points="1287.4,-176.2 1293.4,-167.47 1283.26,-170.56 1287.4,-176.2"/>
</g>
<!-- 16180 -->
<g id="node27" class="node">
<title>16180</title>
<path fill="#c0c0c0" stroke="black" d="M1159,-36C1159,-36 1129,-36 1129,-36 1123,-36 1117,-30 1117,-24 1117,-24 1117,-12 1117,-12 1117,-6 1123,0 1129,0 1129,0 1159,0 1159,0 1165,0 1171,-6 1171,-12 1171,-12 1171,-24 1171,-24 1171,-30 1165,-36 1159,-36"/>
<text text-anchor="middle" x="1144" y="-13.32" font-family="Helvetica,sans-Serif" font-size="14.00">(...)</text>
</g>
<!-- 16179&#45;&gt;16180 -->
<g id="edge26" class="edge">
<title>16179&#45;&gt;16180</title>
<path fill="none" stroke="black" d="M1164.76,-71.75C1161.4,-63.22 1157.99,-54.57 1154.94,-46.8"/>
<polygon fill="black" stroke="black" points="1158.23,-45.61 1151.31,-37.58 1151.71,-48.17 1158.23,-45.61"/>
</g>
<!-- 16695 -->
<g id="node28" class="node">
<title>16695</title>
<path fill="#c0c0c0" stroke="black" d="M1231,-36C1231,-36 1201,-36 1201,-36 1195,-36 1189,-30 1189,-24 1189,-24 1189,-12 1189,-12 1189,-6 1195,0 1201,0 1201,0 1231,0 1231,0 1237,0 1243,-6 1243,-12 1243,-12 1243,-24 1243,-24 1243,-30 1237,-36 1231,-36"/>
<text text-anchor="middle" x="1216" y="-13.32" font-family="Helvetica,sans-Serif" font-size="14.00">(...)</text>
</g>
<!-- 16179&#45;&gt;16695 -->
<g id="edge27" class="edge">
<title>16179&#45;&gt;16695</title>
<path fill="none" stroke="black" d="M1198.44,-71.75C1201.24,-63.32 1204.09,-54.77 1206.66,-47.07"/>
<polygon fill="black" stroke="black" points="1209.97,-48.2 1209.8,-37.61 1203.33,-45.99 1209.97,-48.2"/>
</g>
<!-- 16831 -->
<g id="node30" class="node">
<title>16831</title>
<path fill="#c0c0c0" stroke="black" d="M1337,-36C1337,-36 1307,-36 1307,-36 1301,-36 1295,-30 1295,-24 1295,-24 1295,-12 1295,-12 1295,-6 1301,0 1307,0 1307,0 1337,0 1337,0 1343,0 1349,-6 1349,-12 1349,-12 1349,-24 1349,-24 1349,-30 1343,-36 1337,-36"/>
<text text-anchor="middle" x="1322" y="-13.32" font-family="Helvetica,sans-Serif" font-size="14.00">(...)</text>
</g>
<!-- 16830&#45;&gt;16831 -->
<g id="edge29" class="edge">
<title>16830&#45;&gt;16831</title>
<path fill="none" stroke="black" d="M1341.16,-71.75C1338.06,-63.22 1334.92,-54.57 1332.1,-46.8"/>
<polygon fill="black" stroke="black" points="1335.46,-45.8 1328.75,-37.6 1328.88,-48.19 1335.46,-45.8"/>
</g>
<!-- 17014 -->
<g id="node31" class="node">
<title>17014</title>
<path fill="#c0c0c0" stroke="black" d="M1409,-36C1409,-36 1379,-36 1379,-36 1373,-36 1367,-30 1367,-24 1367,-24 1367,-12 1367,-12 1367,-6 1373,0 1379,0 1379,0 1409,0 1409,0 1415,0 1421,-6 1421,-12 1421,-12 1421,-24 1421,-24 1421,-30 1415,-36 1409,-36"/>
<text text-anchor="middle" x="1394" y="-13.32" font-family="Helvetica,sans-Serif" font-size="14.00">(...)</text>
</g>
<!-- 16830&#45;&gt;17014 -->
<g id="edge30" class="edge">
<title>16830&#45;&gt;17014</title>
<path fill="none" stroke="black" d="M1374.84,-71.75C1377.94,-63.22 1381.08,-54.57 1383.9,-46.8"/>
<polygon fill="black" stroke="black" points="1387.12,-48.19 1387.25,-37.6 1380.54,-45.8 1387.12,-48.19"/>
</g>
</g>
</svg>
