<?xml version="1.0" encoding="UTF-8" standalone="no"?>
<!DOCTYPE svg PUBLIC "-//W3C//DTD SVG 1.1//EN"
 "http://www.w3.org/Graphics/SVG/1.1/DTD/svg11.dtd">
<!-- Generated by graphviz version 12.0.0 (20240803.0821)
 -->
<!-- Title: Tree Pages: 1 -->
<svg width="1366pt" height="565pt"
 viewBox="0.00 0.00 1365.50 565.00" xmlns="http://www.w3.org/2000/svg" xmlns:xlink="http://www.w3.org/1999/xlink">
<g id="graph0" class="graph" transform="scale(1 1) rotate(0) translate(4 561)">
<title>Tree</title>
<polygon fill="white" stroke="none" points="-4,4 -4,-561 1361.5,-561 1361.5,4 -4,4"/>
<!-- 0 -->
<g id="node1" class="node">
<title>0</title>
<path fill="#fffdfd" stroke="black" d="M783,-557C783,-557 623,-557 623,-557 617,-557 611,-551 611,-545 611,-545 611,-474.75 611,-474.75 611,-468.75 617,-462.75 623,-462.75 623,-462.75 783,-462.75 783,-462.75 789,-462.75 795,-468.75 795,-474.75 795,-474.75 795,-545 795,-545 795,-551 789,-557 783,-557"/>
<text text-anchor="middle" x="703" y="-539.7" font-family="Helvetica,sans-Serif" font-size="14.00">23_U &lt;= 0.5</text>
<text text-anchor="middle" x="703" y="-522.45" font-family="Helvetica,sans-Serif" font-size="14.00">entropy = 1.0</text>
<text text-anchor="middle" x="703" y="-505.2" font-family="Helvetica,sans-Serif" font-size="14.00">samples = 38107</text>
<text text-anchor="middle" x="703" y="-487.95" font-family="Helvetica,sans-Serif" font-size="14.00">value = [30360, 29985]</text>
<text text-anchor="middle" x="703" y="-470.7" font-family="Helvetica,sans-Serif" font-size="14.00">class = Animal</text>
</g>
<!-- 1 -->
<g id="node2" class="node">
<title>1</title>
<path fill="#f4f9fd" stroke="black" d="M619,-426.75C619,-426.75 459,-426.75 459,-426.75 453,-426.75 447,-420.75 447,-414.75 447,-414.75 447,-344.5 447,-344.5 447,-338.5 453,-332.5 459,-332.5 459,-332.5 619,-332.5 619,-332.5 625,-332.5 631,-338.5 631,-344.5 631,-344.5 631,-414.75 631,-414.75 631,-420.75 625,-426.75 619,-426.75"/>
<text text-anchor="middle" x="539" y="-409.45" font-family="Helvetica,sans-Serif" font-size="14.00">23_G &lt;= 0.5</text>
<text text-anchor="middle" x="539" y="-392.2" font-family="Helvetica,sans-Serif" font-size="14.00">entropy = 0.999</text>
<text text-anchor="middle" x="539" y="-374.95" font-family="Helvetica,sans-Serif" font-size="14.00">samples = 36157</text>
<text text-anchor="middle" x="539" y="-357.7" font-family="Helvetica,sans-Serif" font-size="14.00">value = [27757, 29459]</text>
<text text-anchor="middle" x="539" y="-340.45" font-family="Helvetica,sans-Serif" font-size="14.00">class = Plant</text>
</g>
<!-- 0&#45;&gt;1 -->
<g id="edge1" class="edge">
<title>0&#45;&gt;1</title>
<path fill="none" stroke="black" d="M643.79,-462.57C631.91,-453.28 619.32,-443.44 607.16,-433.93"/>
<polygon fill="black" stroke="black" points="609.62,-431.41 599.59,-428.01 605.31,-436.92 609.62,-431.41"/>
<text text-anchor="middle" x="601.43" y="-447.21" font-family="Helvetica,sans-Serif" font-size="14.00">True</text>
</g>
<!-- 15774 -->
<g id="node17" class="node">
<title>15774</title>
<path fill="#ea9a61" stroke="black" d="M945.5,-426.75C945.5,-426.75 812.5,-426.75 812.5,-426.75 806.5,-426.75 800.5,-420.75 800.5,-414.75 800.5,-414.75 800.5,-344.5 800.5,-344.5 800.5,-338.5 806.5,-332.5 812.5,-332.5 812.5,-332.5 945.5,-332.5 945.5,-332.5 951.5,-332.5 957.5,-338.5 957.5,-344.5 957.5,-344.5 957.5,-414.75 957.5,-414.75 957.5,-420.75 951.5,-426.75 945.5,-426.75"/>
<text text-anchor="middle" x="879" y="-409.45" font-family="Helvetica,sans-Serif" font-size="14.00">19_U &lt;= 0.5</text>
<text text-anchor="middle" x="879" y="-392.2" font-family="Helvetica,sans-Serif" font-size="14.00">entropy = 0.653</text>
<text text-anchor="middle" x="879" y="-374.95" font-family="Helvetica,sans-Serif" font-size="14.00">samples = 1950</text>
<text text-anchor="middle" x="879" y="-357.7" font-family="Helvetica,sans-Serif" font-size="14.00">value = [2603, 526]</text>
<text text-anchor="middle" x="879" y="-340.45" font-family="Helvetica,sans-Serif" font-size="14.00">class = Animal</text>
</g>
<!-- 0&#45;&gt;15774 -->
<g id="edge16" class="edge">
<title>0&#45;&gt;15774</title>
<path fill="none" stroke="black" d="M766.54,-462.57C779.42,-453.19 793.06,-443.25 806.23,-433.65"/>
<polygon fill="black" stroke="black" points="808.01,-436.68 814.03,-427.96 803.89,-431.03 808.01,-436.68"/>
<text text-anchor="middle" x="811.38" y="-447.1" font-family="Helvetica,sans-Serif" font-size="14.00">False</text>
</g>
<!-- 2 -->
<g id="node3" class="node">
<title>2</title>
<path fill="#e8f4fc" stroke="black" d="M361,-296.5C361,-296.5 201,-296.5 201,-296.5 195,-296.5 189,-290.5 189,-284.5 189,-284.5 189,-214.25 189,-214.25 189,-208.25 195,-202.25 201,-202.25 201,-202.25 361,-202.25 361,-202.25 367,-202.25 373,-208.25 373,-214.25 373,-214.25 373,-284.5 373,-284.5 373,-290.5 367,-296.5 361,-296.5"/>
<text text-anchor="middle" x="281" y="-279.2" font-family="Helvetica,sans-Serif" font-size="14.00">23_A &lt;= 0.5</text>
<text text-anchor="middle" x="281" y="-261.95" font-family="Helvetica,sans-Serif" font-size="14.00">entropy = 0.997</text>
<text text-anchor="middle" x="281" y="-244.7" font-family="Helvetica,sans-Serif" font-size="14.00">samples = 34278</text>
<text text-anchor="middle" x="281" y="-227.45" font-family="Helvetica,sans-Serif" font-size="14.00">value = [25467, 28753]</text>
<text text-anchor="middle" x="281" y="-210.2" font-family="Helvetica,sans-Serif" font-size="14.00">class = Plant</text>
</g>
<!-- 1&#45;&gt;2 -->
<g id="edge2" class="edge">
<title>1&#45;&gt;2</title>
<path fill="none" stroke="black" d="M446.58,-332.69C426.08,-322.49 404.24,-311.63 383.36,-301.26"/>
<polygon fill="black" stroke="black" points="385.07,-298.2 374.56,-296.88 381.96,-304.47 385.07,-298.2"/>
</g>
<!-- 15065 -->
<g id="node10" class="node">
<title>15065</title>
<path fill="#eda876" stroke="black" d="M605.5,-296.5C605.5,-296.5 472.5,-296.5 472.5,-296.5 466.5,-296.5 460.5,-290.5 460.5,-284.5 460.5,-284.5 460.5,-214.25 460.5,-214.25 460.5,-208.25 466.5,-202.25 472.5,-202.25 472.5,-202.25 605.5,-202.25 605.5,-202.25 611.5,-202.25 617.5,-208.25 617.5,-214.25 617.5,-214.25 617.5,-284.5 617.5,-284.5 617.5,-290.5 611.5,-296.5 605.5,-296.5"/>
<text text-anchor="middle" x="539" y="-279.2" font-family="Helvetica,sans-Serif" font-size="14.00">9_U &lt;= 0.5</text>
<text text-anchor="middle" x="539" y="-261.95" font-family="Helvetica,sans-Serif" font-size="14.00">entropy = 0.788</text>
<text text-anchor="middle" x="539" y="-244.7" font-family="Helvetica,sans-Serif" font-size="14.00">samples = 1879</text>
<text text-anchor="middle" x="539" y="-227.45" font-family="Helvetica,sans-Serif" font-size="14.00">value = [2290, 706]</text>
<text text-anchor="middle" x="539" y="-210.2" font-family="Helvetica,sans-Serif" font-size="14.00">class = Animal</text>
</g>
<!-- 1&#45;&gt;15065 -->
<g id="edge9" class="edge">
<title>1&#45;&gt;15065</title>
<path fill="none" stroke="black" d="M539,-332.32C539,-324.42 539,-316.13 539,-307.98"/>
<polygon fill="black" stroke="black" points="542.5,-308.12 539,-298.12 535.5,-308.12 542.5,-308.12"/>
</g>
<!-- 3 -->
<g id="node4" class="node">
<title>3</title>
<path fill="#dfeffb" stroke="black" d="M172,-166.25C172,-166.25 12,-166.25 12,-166.25 6,-166.25 0,-160.25 0,-154.25 0,-154.25 0,-84 0,-84 0,-78 6,-72 12,-72 12,-72 172,-72 172,-72 178,-72 184,-78 184,-84 184,-84 184,-154.25 184,-154.25 184,-160.25 178,-166.25 172,-166.25"/>
<text text-anchor="middle" x="92" y="-148.95" font-family="Helvetica,sans-Serif" font-size="14.00">22_A &lt;= 0.5</text>
<text text-anchor="middle" x="92" y="-131.7" font-family="Helvetica,sans-Serif" font-size="14.00">entropy = 0.995</text>
<text text-anchor="middle" x="92" y="-114.45" font-family="Helvetica,sans-Serif" font-size="14.00">samples = 32751</text>
<text text-anchor="middle" x="92" y="-97.2" font-family="Helvetica,sans-Serif" font-size="14.00">value = [23684, 28191]</text>
<text text-anchor="middle" x="92" y="-79.95" font-family="Helvetica,sans-Serif" font-size="14.00">class = Plant</text>
</g>
<!-- 2&#45;&gt;3 -->
<g id="edge3" class="edge">
<title>2&#45;&gt;3</title>
<path fill="none" stroke="black" d="M212.5,-201.89C198.63,-192.48 183.96,-182.53 169.8,-172.92"/>
<polygon fill="black" stroke="black" points="172.08,-170.23 161.84,-167.51 168.15,-176.03 172.08,-170.23"/>
</g>
<!-- 14316 -->
<g id="node7" class="node">
<title>14316</title>
<path fill="#eda977" stroke="black" d="M347.5,-166.25C347.5,-166.25 214.5,-166.25 214.5,-166.25 208.5,-166.25 202.5,-160.25 202.5,-154.25 202.5,-154.25 202.5,-84 202.5,-84 202.5,-78 208.5,-72 214.5,-72 214.5,-72 347.5,-72 347.5,-72 353.5,-72 359.5,-78 359.5,-84 359.5,-84 359.5,-154.25 359.5,-154.25 359.5,-160.25 353.5,-166.25 347.5,-166.25"/>
<text text-anchor="middle" x="281" y="-148.95" font-family="Helvetica,sans-Serif" font-size="14.00">24_A &lt;= 0.5</text>
<text text-anchor="middle" x="281" y="-131.7" font-family="Helvetica,sans-Serif" font-size="14.00">entropy = 0.794</text>
<text text-anchor="middle" x="281" y="-114.45" font-family="Helvetica,sans-Serif" font-size="14.00">samples = 1527</text>
<text text-anchor="middle" x="281" y="-97.2" font-family="Helvetica,sans-Serif" font-size="14.00">value = [1783, 562]</text>
<text text-anchor="middle" x="281" y="-79.95" font-family="Helvetica,sans-Serif" font-size="14.00">class = Animal</text>
</g>
<!-- 2&#45;&gt;14316 -->
<g id="edge6" class="edge">
<title>2&#45;&gt;14316</title>
<path fill="none" stroke="black" d="M281,-202.07C281,-194.17 281,-185.88 281,-177.73"/>
<polygon fill="black" stroke="black" points="284.5,-177.87 281,-167.87 277.5,-177.87 284.5,-177.87"/>
</g>
<!-- 4 -->
<g id="node5" class="node">
<title>4</title>
<path fill="#c0c0c0" stroke="black" d="M71,-36C71,-36 41,-36 41,-36 35,-36 29,-30 29,-24 29,-24 29,-12 29,-12 29,-6 35,0 41,0 41,0 71,0 71,0 77,0 83,-6 83,-12 83,-12 83,-24 83,-24 83,-30 77,-36 71,-36"/>
<text text-anchor="middle" x="56" y="-13.32" font-family="Helvetica,sans-Serif" font-size="14.00">(...)</text>
</g>
<!-- 3&#45;&gt;4 -->
<g id="edge4" class="edge">
<title>3&#45;&gt;4</title>
<path fill="none" stroke="black" d="M75.16,-71.75C72.06,-63.22 68.92,-54.57 66.1,-46.8"/>
<polygon fill="black" stroke="black" points="69.46,-45.8 62.75,-37.6 62.88,-48.19 69.46,-45.8"/>
</g>
<!-- 12871 -->
<g id="node6" class="node">
<title>12871</title>
<path fill="#c0c0c0" stroke="black" d="M143,-36C143,-36 113,-36 113,-36 107,-36 101,-30 101,-24 101,-24 101,-12 101,-12 101,-6 107,0 113,0 113,0 143,0 143,0 149,0 155,-6 155,-12 155,-12 155,-24 155,-24 155,-30 149,-36 143,-36"/>
<text text-anchor="middle" x="128" y="-13.32" font-family="Helvetica,sans-Serif" font-size="14.00">(...)</text>
</g>
<!-- 3&#45;&gt;12871 -->
<g id="edge5" class="edge">
<title>3&#45;&gt;12871</title>
<path fill="none" stroke="black" d="M108.84,-71.75C111.94,-63.22 115.08,-54.57 117.9,-46.8"/>
<polygon fill="black" stroke="black" points="121.12,-48.19 121.25,-37.6 114.54,-45.8 121.12,-48.19"/>
</g>
<!-- 14317 -->
<g id="node8" class="node">
<title>14317</title>
<path fill="#c0c0c0" stroke="black" d="M253,-36C253,-36 223,-36 223,-36 217,-36 211,-30 211,-24 211,-24 211,-12 211,-12 211,-6 217,0 223,0 223,0 253,0 253,0 259,0 265,-6 265,-12 265,-12 265,-24 265,-24 265,-30 259,-36 253,-36"/>
<text text-anchor="middle" x="238" y="-13.32" font-family="Helvetica,sans-Serif" font-size="14.00">(...)</text>
</g>
<!-- 14316&#45;&gt;14317 -->
<g id="edge7" class="edge">
<title>14316&#45;&gt;14317</title>
<path fill="none" stroke="black" d="M260.88,-71.75C257.14,-63.12 253.34,-54.36 249.94,-46.53"/>
<polygon fill="black" stroke="black" points="253.24,-45.34 246.05,-37.56 246.82,-48.13 253.24,-45.34"/>
</g>
<!-- 14998 -->
<g id="node9" class="node">
<title>14998</title>
<path fill="#c0c0c0" stroke="black" d="M325,-36C325,-36 295,-36 295,-36 289,-36 283,-30 283,-24 283,-24 283,-12 283,-12 283,-6 289,0 295,0 295,0 325,0 325,0 331,0 337,-6 337,-12 337,-12 337,-24 337,-24 337,-30 331,-36 325,-36"/>
<text text-anchor="middle" x="310" y="-13.32" font-family="Helvetica,sans-Serif" font-size="14.00">(...)</text>
</g>
<!-- 14316&#45;&gt;14998 -->
<g id="edge8" class="edge">
<title>14316&#45;&gt;14998</title>
<path fill="none" stroke="black" d="M294.57,-71.75C297.03,-63.32 299.54,-54.77 301.79,-47.07"/>
<polygon fill="black" stroke="black" points="305.1,-48.21 304.55,-37.63 298.38,-46.24 305.1,-48.21"/>
</g>
<!-- 15066 -->
<g id="node11" class="node">
<title>15066</title>
<path fill="#efb184" stroke="black" d="M522.5,-166.25C522.5,-166.25 389.5,-166.25 389.5,-166.25 383.5,-166.25 377.5,-160.25 377.5,-154.25 377.5,-154.25 377.5,-84 377.5,-84 377.5,-78 383.5,-72 389.5,-72 389.5,-72 522.5,-72 522.5,-72 528.5,-72 534.5,-78 534.5,-84 534.5,-84 534.5,-154.25 534.5,-154.25 534.5,-160.25 528.5,-166.25 522.5,-166.25"/>
<text text-anchor="middle" x="456" y="-148.95" font-family="Helvetica,sans-Serif" font-size="14.00">22_A &lt;= 0.5</text>
<text text-anchor="middle" x="456" y="-131.7" font-family="Helvetica,sans-Serif" font-size="14.00">entropy = 0.85</text>
<text text-anchor="middle" x="456" y="-114.45" font-family="Helvetica,sans-Serif" font-size="14.00">samples = 1255</text>
<text text-anchor="middle" x="456" y="-97.2" font-family="Helvetica,sans-Serif" font-size="14.00">value = [1459, 556]</text>
<text text-anchor="middle" x="456" y="-79.95" font-family="Helvetica,sans-Serif" font-size="14.00">class = Animal</text>
</g>
<!-- 15065&#45;&gt;15066 -->
<g id="edge10" class="edge">
<title>15065&#45;&gt;15066</title>
<path fill="none" stroke="black" d="M509.04,-202.07C503.51,-193.54 497.69,-184.54 492.01,-175.77"/>
<polygon fill="black" stroke="black" points="495.11,-174.12 486.74,-167.63 489.24,-177.93 495.11,-174.12"/>
</g>
<!-- 15585 -->
<g id="node14" class="node">
<title>15585</title>
<path fill="#ea985d" stroke="black" d="M689,-166.25C689,-166.25 565,-166.25 565,-166.25 559,-166.25 553,-160.25 553,-154.25 553,-154.25 553,-84 553,-84 553,-78 559,-72 565,-72 565,-72 689,-72 689,-72 695,-72 701,-78 701,-84 701,-84 701,-154.25 701,-154.25 701,-160.25 695,-166.25 689,-166.25"/>
<text text-anchor="middle" x="627" y="-148.95" font-family="Helvetica,sans-Serif" font-size="14.00">2_C &lt;= 0.5</text>
<text text-anchor="middle" x="627" y="-131.7" font-family="Helvetica,sans-Serif" font-size="14.00">entropy = 0.617</text>
<text text-anchor="middle" x="627" y="-114.45" font-family="Helvetica,sans-Serif" font-size="14.00">samples = 624</text>
<text text-anchor="middle" x="627" y="-97.2" font-family="Helvetica,sans-Serif" font-size="14.00">value = [831, 150]</text>
<text text-anchor="middle" x="627" y="-79.95" font-family="Helvetica,sans-Serif" font-size="14.00">class = Animal</text>
</g>
<!-- 15065&#45;&gt;15585 -->
<g id="edge13" class="edge">
<title>15065&#45;&gt;15585</title>
<path fill="none" stroke="black" d="M570.77,-202.07C576.63,-193.54 582.8,-184.54 588.82,-175.77"/>
<polygon fill="black" stroke="black" points="591.65,-177.83 594.42,-167.61 585.88,-173.87 591.65,-177.83"/>
</g>
<!-- 15067 -->
<g id="node12" class="node">
<title>15067</title>
<path fill="#c0c0c0" stroke="black" d="M412,-36C412,-36 382,-36 382,-36 376,-36 370,-30 370,-24 370,-24 370,-12 370,-12 370,-6 376,0 382,0 382,0 412,0 412,0 418,0 424,-6 424,-12 424,-12 424,-24 424,-24 424,-30 418,-36 412,-36"/>
<text text-anchor="middle" x="397" y="-13.32" font-family="Helvetica,sans-Serif" font-size="14.00">(...)</text>
</g>
<!-- 15066&#45;&gt;15067 -->
<g id="edge11" class="edge">
<title>15066&#45;&gt;15067</title>
<path fill="none" stroke="black" d="M428.4,-71.75C423.15,-62.93 417.81,-53.96 413.06,-45.99"/>
<polygon fill="black" stroke="black" points="416.12,-44.28 408,-37.47 410.1,-47.86 416.12,-44.28"/>
</g>
<!-- 15480 -->
<g id="node13" class="node">
<title>15480</title>
<path fill="#c0c0c0" stroke="black" d="M484,-36C484,-36 454,-36 454,-36 448,-36 442,-30 442,-24 442,-24 442,-12 442,-12 442,-6 448,0 454,0 454,0 484,0 484,0 490,0 496,-6 496,-12 496,-12 496,-24 496,-24 496,-30 490,-36 484,-36"/>
<text text-anchor="middle" x="469" y="-13.32" font-family="Helvetica,sans-Serif" font-size="14.00">(...)</text>
</g>
<!-- 15066&#45;&gt;15480 -->
<g id="edge12" class="edge">
<title>15066&#45;&gt;15480</title>
<path fill="none" stroke="black" d="M462.08,-71.75C463.17,-63.42 464.28,-54.97 465.28,-47.34"/>
<polygon fill="black" stroke="black" points="468.72,-48.04 466.55,-37.67 461.78,-47.13 468.72,-48.04"/>
</g>
<!-- 15586 -->
<g id="node15" class="node">
<title>15586</title>
<path fill="#c0c0c0" stroke="black" d="M583,-36C583,-36 553,-36 553,-36 547,-36 541,-30 541,-24 541,-24 541,-12 541,-12 541,-6 547,0 553,0 553,0 583,0 583,0 589,0 595,-6 595,-12 595,-12 595,-24 595,-24 595,-30 589,-36 583,-36"/>
<text text-anchor="middle" x="568" y="-13.32" font-family="Helvetica,sans-Serif" font-size="14.00">(...)</text>
</g>
<!-- 15585&#45;&gt;15586 -->
<g id="edge14" class="edge">
<title>15585&#45;&gt;15586</title>
<path fill="none" stroke="black" d="M599.4,-71.75C594.15,-62.93 588.81,-53.96 584.06,-45.99"/>
<polygon fill="black" stroke="black" points="587.12,-44.28 579,-37.47 581.1,-47.86 587.12,-44.28"/>
</g>
<!-- 15727 -->
<g id="node16" class="node">
<title>15727</title>
<path fill="#c0c0c0" stroke="black" d="M655,-36C655,-36 625,-36 625,-36 619,-36 613,-30 613,-24 613,-24 613,-12 613,-12 613,-6 619,0 625,0 625,0 655,0 655,0 661,0 667,-6 667,-12 667,-12 667,-24 667,-24 667,-30 661,-36 655,-36"/>
<text text-anchor="middle" x="640" y="-13.32" font-family="Helvetica,sans-Serif" font-size="14.00">(...)</text>
</g>
<!-- 15585&#45;&gt;15727 -->
<g id="edge15" class="edge">
<title>15585&#45;&gt;15727</title>
<path fill="none" stroke="black" d="M633.08,-71.75C634.17,-63.42 635.28,-54.97 636.28,-47.34"/>
<polygon fill="black" stroke="black" points="639.72,-48.04 637.55,-37.67 632.78,-47.13 639.72,-48.04"/>
</g>
<!-- 15775 -->
<g id="node18" class="node">
<title>15775</title>
<path fill="#eb9f69" stroke="black" d="M945.5,-296.5C945.5,-296.5 812.5,-296.5 812.5,-296.5 806.5,-296.5 800.5,-290.5 800.5,-284.5 800.5,-284.5 800.5,-214.25 800.5,-214.25 800.5,-208.25 806.5,-202.25 812.5,-202.25 812.5,-202.25 945.5,-202.25 945.5,-202.25 951.5,-202.25 957.5,-208.25 957.5,-214.25 957.5,-214.25 957.5,-284.5 957.5,-284.5 957.5,-290.5 951.5,-296.5 945.5,-296.5"/>
<text text-anchor="middle" x="879" y="-279.2" font-family="Helvetica,sans-Serif" font-size="14.00">3_U &lt;= 0.5</text>
<text text-anchor="middle" x="879" y="-261.95" font-family="Helvetica,sans-Serif" font-size="14.00">entropy = 0.711</text>
<text text-anchor="middle" x="879" y="-244.7" font-family="Helvetica,sans-Serif" font-size="14.00">samples = 1325</text>
<text text-anchor="middle" x="879" y="-227.45" font-family="Helvetica,sans-Serif" font-size="14.00">value = [1731, 418]</text>
<text text-anchor="middle" x="879" y="-210.2" font-family="Helvetica,sans-Serif" font-size="14.00">class = Animal</text>
</g>
<!-- 15774&#45;&gt;15775 -->
<g id="edge17" class="edge">
<title>15774&#45;&gt;15775</title>
<path fill="none" stroke="black" d="M879,-332.32C879,-324.42 879,-316.13 879,-307.98"/>
<polygon fill="black" stroke="black" points="882.5,-308.12 879,-298.12 875.5,-308.12 882.5,-308.12"/>
</g>
<!-- 16330 -->
<g id="node25" class="node">
<title>16330</title>
<path fill="#e89152" stroke="black" d="M1193,-296.5C1193,-296.5 1069,-296.5 1069,-296.5 1063,-296.5 1057,-290.5 1057,-284.5 1057,-284.5 1057,-214.25 1057,-214.25 1057,-208.25 1063,-202.25 1069,-202.25 1069,-202.25 1193,-202.25 1193,-202.25 1199,-202.25 1205,-208.25 1205,-214.25 1205,-214.25 1205,-284.5 1205,-284.5 1205,-290.5 1199,-296.5 1193,-296.5"/>
<text text-anchor="middle" x="1131" y="-279.2" font-family="Helvetica,sans-Serif" font-size="14.00">12_A &lt;= 0.5</text>
<text text-anchor="middle" x="1131" y="-261.95" font-family="Helvetica,sans-Serif" font-size="14.00">entropy = 0.501</text>
<text text-anchor="middle" x="1131" y="-244.7" font-family="Helvetica,sans-Serif" font-size="14.00">samples = 625</text>
<text text-anchor="middle" x="1131" y="-227.45" font-family="Helvetica,sans-Serif" font-size="14.00">value = [872, 108]</text>
<text text-anchor="middle" x="1131" y="-210.2" font-family="Helvetica,sans-Serif" font-size="14.00">class = Animal</text>
</g>
<!-- 15774&#45;&gt;16330 -->
<g id="edge24" class="edge">
<title>15774&#45;&gt;16330</title>
<path fill="none" stroke="black" d="M957.7,-338.57C985.99,-324.18 1018,-307.88 1046.75,-293.25"/>
<polygon fill="black" stroke="black" points="1048.09,-296.5 1055.42,-288.84 1044.92,-290.26 1048.09,-296.5"/>
</g>
<!-- 15776 -->
<g id="node19" class="node">
<title>15776</title>
<path fill="#ea995f" stroke="black" d="M864.5,-166.25C864.5,-166.25 731.5,-166.25 731.5,-166.25 725.5,-166.25 719.5,-160.25 719.5,-154.25 719.5,-154.25 719.5,-84 719.5,-84 719.5,-78 725.5,-72 731.5,-72 731.5,-72 864.5,-72 864.5,-72 870.5,-72 876.5,-78 876.5,-84 876.5,-84 876.5,-154.25 876.5,-154.25 876.5,-160.25 870.5,-166.25 864.5,-166.25"/>
<text text-anchor="middle" x="798" y="-148.95" font-family="Helvetica,sans-Serif" font-size="14.00">3_C &lt;= 0.5</text>
<text text-anchor="middle" x="798" y="-131.7" font-family="Helvetica,sans-Serif" font-size="14.00">entropy = 0.639</text>
<text text-anchor="middle" x="798" y="-114.45" font-family="Helvetica,sans-Serif" font-size="14.00">samples = 1001</text>
<text text-anchor="middle" x="798" y="-97.2" font-family="Helvetica,sans-Serif" font-size="14.00">value = [1364, 264]</text>
<text text-anchor="middle" x="798" y="-79.95" font-family="Helvetica,sans-Serif" font-size="14.00">class = Animal</text>
</g>
<!-- 15775&#45;&gt;15776 -->
<g id="edge18" class="edge">
<title>15775&#45;&gt;15776</title>
<path fill="none" stroke="black" d="M849.76,-202.07C844.42,-193.63 838.81,-184.74 833.32,-176.05"/>
<polygon fill="black" stroke="black" points="836.31,-174.22 828.01,-167.64 830.39,-177.96 836.31,-174.22"/>
</g>
<!-- 16183 -->
<g id="node22" class="node">
<title>16183</title>
<path fill="#f0b68c" stroke="black" d="M1031,-166.25C1031,-166.25 907,-166.25 907,-166.25 901,-166.25 895,-160.25 895,-154.25 895,-154.25 895,-84 895,-84 895,-78 901,-72 907,-72 907,-72 1031,-72 1031,-72 1037,-72 1043,-78 1043,-84 1043,-84 1043,-154.25 1043,-154.25 1043,-160.25 1037,-166.25 1031,-166.25"/>
<text text-anchor="middle" x="969" y="-148.95" font-family="Helvetica,sans-Serif" font-size="14.00">5_U &lt;= 0.5</text>
<text text-anchor="middle" x="969" y="-131.7" font-family="Helvetica,sans-Serif" font-size="14.00">entropy = 0.876</text>
<text text-anchor="middle" x="969" y="-114.45" font-family="Helvetica,sans-Serif" font-size="14.00">samples = 324</text>
<text text-anchor="middle" x="969" y="-97.2" font-family="Helvetica,sans-Serif" font-size="14.00">value = [367, 154]</text>
<text text-anchor="middle" x="969" y="-79.95" font-family="Helvetica,sans-Serif" font-size="14.00">class = Animal</text>
</g>
<!-- 15775&#45;&gt;16183 -->
<g id="edge21" class="edge">
<title>15775&#45;&gt;16183</title>
<path fill="none" stroke="black" d="M911.49,-202.07C917.48,-193.54 923.79,-184.54 929.95,-175.77"/>
<polygon fill="black" stroke="black" points="932.81,-177.79 935.69,-167.6 927.08,-173.77 932.81,-177.79"/>
</g>
<!-- 15777 -->
<g id="node20" class="node">
<title>15777</title>
<path fill="#c0c0c0" stroke="black" d="M754,-36C754,-36 724,-36 724,-36 718,-36 712,-30 712,-24 712,-24 712,-12 712,-12 712,-6 718,0 724,0 724,0 754,0 754,0 760,0 766,-6 766,-12 766,-12 766,-24 766,-24 766,-30 760,-36 754,-36"/>
<text text-anchor="middle" x="739" y="-13.32" font-family="Helvetica,sans-Serif" font-size="14.00">(...)</text>
</g>
<!-- 15776&#45;&gt;15777 -->
<g id="edge19" class="edge">
<title>15776&#45;&gt;15777</title>
<path fill="none" stroke="black" d="M770.4,-71.75C765.15,-62.93 759.81,-53.96 755.06,-45.99"/>
<polygon fill="black" stroke="black" points="758.12,-44.28 750,-37.47 752.1,-47.86 758.12,-44.28"/>
</g>
<!-- 16044 -->
<g id="node21" class="node">
<title>16044</title>
<path fill="#c0c0c0" stroke="black" d="M826,-36C826,-36 796,-36 796,-36 790,-36 784,-30 784,-24 784,-24 784,-12 784,-12 784,-6 790,0 796,0 796,0 826,0 826,0 832,0 838,-6 838,-12 838,-12 838,-24 838,-24 838,-30 832,-36 826,-36"/>
<text text-anchor="middle" x="811" y="-13.32" font-family="Helvetica,sans-Serif" font-size="14.00">(...)</text>
</g>
<!-- 15776&#45;&gt;16044 -->
<g id="edge20" class="edge">
<title>15776&#45;&gt;16044</title>
<path fill="none" stroke="black" d="M804.08,-71.75C805.17,-63.42 806.28,-54.97 807.28,-47.34"/>
<polygon fill="black" stroke="black" points="810.72,-48.04 808.55,-37.67 803.78,-47.13 810.72,-48.04"/>
</g>
<!-- 16184 -->
<g id="node23" class="node">
<title>16184</title>
<path fill="#c0c0c0" stroke="black" d="M921,-36C921,-36 891,-36 891,-36 885,-36 879,-30 879,-24 879,-24 879,-12 879,-12 879,-6 885,0 891,0 891,0 921,0 921,0 927,0 933,-6 933,-12 933,-12 933,-24 933,-24 933,-30 927,-36 921,-36"/>
<text text-anchor="middle" x="906" y="-13.32" font-family="Helvetica,sans-Serif" font-size="14.00">(...)</text>
</g>
<!-- 16183&#45;&gt;16184 -->
<g id="edge22" class="edge">
<title>16183&#45;&gt;16184</title>
<path fill="none" stroke="black" d="M939.53,-71.75C933.85,-62.83 928.09,-53.76 922.98,-45.72"/>
<polygon fill="black" stroke="black" points="926.04,-44.01 917.73,-37.45 920.14,-47.77 926.04,-44.01"/>
</g>
<!-- 16307 -->
<g id="node24" class="node">
<title>16307</title>
<path fill="#c0c0c0" stroke="black" d="M993,-36C993,-36 963,-36 963,-36 957,-36 951,-30 951,-24 951,-24 951,-12 951,-12 951,-6 957,0 963,0 963,0 993,0 993,0 999,0 1005,-6 1005,-12 1005,-12 1005,-24 1005,-24 1005,-30 999,-36 993,-36"/>
<text text-anchor="middle" x="978" y="-13.32" font-family="Helvetica,sans-Serif" font-size="14.00">(...)</text>
</g>
<!-- 16183&#45;&gt;16307 -->
<g id="edge23" class="edge">
<title>16183&#45;&gt;16307</title>
<path fill="none" stroke="black" d="M973.21,-71.75C973.96,-63.52 974.72,-55.17 975.4,-47.61"/>
<polygon fill="black" stroke="black" points="978.89,-47.96 976.3,-37.68 971.91,-47.32 978.89,-47.96"/>
</g>
<!-- 16331 -->
<g id="node26" class="node">
<title>16331</title>
<path fill="#e88e4e" stroke="black" d="M1188.5,-166.25C1188.5,-166.25 1073.5,-166.25 1073.5,-166.25 1067.5,-166.25 1061.5,-160.25 1061.5,-154.25 1061.5,-154.25 1061.5,-84 1061.5,-84 1061.5,-78 1067.5,-72 1073.5,-72 1073.5,-72 1188.5,-72 1188.5,-72 1194.5,-72 1200.5,-78 1200.5,-84 1200.5,-84 1200.5,-154.25 1200.5,-154.25 1200.5,-160.25 1194.5,-166.25 1188.5,-166.25"/>
<text text-anchor="middle" x="1131" y="-148.95" font-family="Helvetica,sans-Serif" font-size="14.00">3_G &lt;= 0.5</text>
<text text-anchor="middle" x="1131" y="-131.7" font-family="Helvetica,sans-Serif" font-size="14.00">entropy = 0.458</text>
<text text-anchor="middle" x="1131" y="-114.45" font-family="Helvetica,sans-Serif" font-size="14.00">samples = 464</text>
<text text-anchor="middle" x="1131" y="-97.2" font-family="Helvetica,sans-Serif" font-size="14.00">value = [654, 70]</text>
<text text-anchor="middle" x="1131" y="-79.95" font-family="Helvetica,sans-Serif" font-size="14.00">class = Animal</text>
</g>
<!-- 16330&#45;&gt;16331 -->
<g id="edge25" class="edge">
<title>16330&#45;&gt;16331</title>
<path fill="none" stroke="black" d="M1131,-202.07C1131,-194.17 1131,-185.88 1131,-177.73"/>
<polygon fill="black" stroke="black" points="1134.5,-177.87 1131,-167.87 1127.5,-177.87 1134.5,-177.87"/>
</g>
<!-- 16490 -->
<g id="node29" class="node">
<title>16490</title>
<path fill="#ea975c" stroke="black" d="M1345.5,-166.25C1345.5,-166.25 1230.5,-166.25 1230.5,-166.25 1224.5,-166.25 1218.5,-160.25 1218.5,-154.25 1218.5,-154.25 1218.5,-84 1218.5,-84 1218.5,-78 1224.5,-72 1230.5,-72 1230.5,-72 1345.5,-72 1345.5,-72 1351.5,-72 1357.5,-78 1357.5,-84 1357.5,-84 1357.5,-154.25 1357.5,-154.25 1357.5,-160.25 1351.5,-166.25 1345.5,-166.25"/>
<text text-anchor="middle" x="1288" y="-148.95" font-family="Helvetica,sans-Serif" font-size="14.00">11_C &lt;= 0.5</text>
<text text-anchor="middle" x="1288" y="-131.7" font-family="Helvetica,sans-Serif" font-size="14.00">entropy = 0.606</text>
<text text-anchor="middle" x="1288" y="-114.45" font-family="Helvetica,sans-Serif" font-size="14.00">samples = 161</text>
<text text-anchor="middle" x="1288" y="-97.2" font-family="Helvetica,sans-Serif" font-size="14.00">value = [218, 38]</text>
<text text-anchor="middle" x="1288" y="-79.95" font-family="Helvetica,sans-Serif" font-size="14.00">class = Animal</text>
</g>
<!-- 16330&#45;&gt;16490 -->
<g id="edge28" class="edge">
<title>16330&#45;&gt;16490</title>
<path fill="none" stroke="black" d="M1187.68,-202.07C1198.95,-192.87 1210.87,-183.13 1222.41,-173.71"/>
<polygon fill="black" stroke="black" points="1224.44,-176.57 1229.97,-167.53 1220.01,-171.15 1224.44,-176.57"/>
</g>
<!-- 16332 -->
<g id="node27" class="node">
<title>16332</title>
<path fill="#c0c0c0" stroke="black" d="M1098,-36C1098,-36 1068,-36 1068,-36 1062,-36 1056,-30 1056,-24 1056,-24 1056,-12 1056,-12 1056,-6 1062,0 1068,0 1068,0 1098,0 1098,0 1104,0 1110,-6 1110,-12 1110,-12 1110,-24 1110,-24 1110,-30 1104,-36 1098,-36"/>
<text text-anchor="middle" x="1083" y="-13.32" font-family="Helvetica,sans-Serif" font-size="14.00">(...)</text>
</g>
<!-- 16331&#45;&gt;16332 -->
<g id="edge26" class="edge">
<title>16331&#45;&gt;16332</title>
<path fill="none" stroke="black" d="M1108.55,-71.75C1104.37,-63.12 1100.12,-54.36 1096.33,-46.53"/>
<polygon fill="black" stroke="black" points="1099.48,-45.01 1091.98,-37.53 1093.18,-48.06 1099.48,-45.01"/>
</g>
<!-- 16469 -->
<g id="node28" class="node">
<title>16469</title>
<path fill="#c0c0c0" stroke="black" d="M1170,-36C1170,-36 1140,-36 1140,-36 1134,-36 1128,-30 1128,-24 1128,-24 1128,-12 1128,-12 1128,-6 1134,0 1140,0 1140,0 1170,0 1170,0 1176,0 1182,-6 1182,-12 1182,-12 1182,-24 1182,-24 1182,-30 1176,-36 1170,-36"/>
<text text-anchor="middle" x="1155" y="-13.32" font-family="Helvetica,sans-Serif" font-size="14.00">(...)</text>
</g>
<!-- 16331&#45;&gt;16469 -->
<g id="edge27" class="edge">
<title>16331&#45;&gt;16469</title>
<path fill="none" stroke="black" d="M1142.23,-71.75C1144.24,-63.42 1146.29,-54.97 1148.14,-47.34"/>
<polygon fill="black" stroke="black" points="1151.53,-48.19 1150.49,-37.64 1144.73,-46.54 1151.53,-48.19"/>
</g>
<!-- 16491 -->
<g id="node30" class="node">
<title>16491</title>
<path fill="#c0c0c0" stroke="black" d="M1267,-36C1267,-36 1237,-36 1237,-36 1231,-36 1225,-30 1225,-24 1225,-24 1225,-12 1225,-12 1225,-6 1231,0 1237,0 1237,0 1267,0 1267,0 1273,0 1279,-6 1279,-12 1279,-12 1279,-24 1279,-24 1279,-30 1273,-36 1267,-36"/>
<text text-anchor="middle" x="1252" y="-13.32" font-family="Helvetica,sans-Serif" font-size="14.00">(...)</text>
</g>
<!-- 16490&#45;&gt;16491 -->
<g id="edge29" class="edge">
<title>16490&#45;&gt;16491</title>
<path fill="none" stroke="black" d="M1271.16,-71.75C1268.06,-63.22 1264.92,-54.57 1262.1,-46.8"/>
<polygon fill="black" stroke="black" points="1265.46,-45.8 1258.75,-37.6 1258.88,-48.19 1265.46,-45.8"/>
</g>
<!-- 16536 -->
<g id="node31" class="node">
<title>16536</title>
<path fill="#c0c0c0" stroke="black" d="M1339,-36C1339,-36 1309,-36 1309,-36 1303,-36 1297,-30 1297,-24 1297,-24 1297,-12 1297,-12 1297,-6 1303,0 1309,0 1309,0 1339,0 1339,0 1345,0 1351,-6 1351,-12 1351,-12 1351,-24 1351,-24 1351,-30 1345,-36 1339,-36"/>
<text text-anchor="middle" x="1324" y="-13.32" font-family="Helvetica,sans-Serif" font-size="14.00">(...)</text>
</g>
<!-- 16490&#45;&gt;16536 -->
<g id="edge30" class="edge">
<title>16490&#45;&gt;16536</title>
<path fill="none" stroke="black" d="M1304.84,-71.75C1307.94,-63.22 1311.08,-54.57 1313.9,-46.8"/>
<polygon fill="black" stroke="black" points="1317.12,-48.19 1317.25,-37.6 1310.54,-45.8 1317.12,-48.19"/>
</g>
</g>
</svg>
