<?xml version="1.0" encoding="UTF-8" standalone="no"?>
<!DOCTYPE svg PUBLIC "-//W3C//DTD SVG 1.1//EN"
 "http://www.w3.org/Graphics/SVG/1.1/DTD/svg11.dtd">
<!-- Generated by graphviz version 12.0.0 (20240803.0821)
 -->
<!-- Title: Tree Pages: 1 -->
<svg width="1411pt" height="565pt"
 viewBox="0.00 0.00 1410.50 565.00" xmlns="http://www.w3.org/2000/svg" xmlns:xlink="http://www.w3.org/1999/xlink">
<g id="graph0" class="graph" transform="scale(1 1) rotate(0) translate(4 561)">
<title>Tree</title>
<polygon fill="white" stroke="none" points="-4,4 -4,-561 1406.5,-561 1406.5,4 -4,4"/>
<!-- 0 -->
<g id="node1" class="node">
<title>0</title>
<path fill="#ffffff" stroke="black" d="M808,-557C808,-557 648,-557 648,-557 642,-557 636,-551 636,-545 636,-545 636,-474.75 636,-474.75 636,-468.75 642,-462.75 648,-462.75 648,-462.75 808,-462.75 808,-462.75 814,-462.75 820,-468.75 820,-474.75 820,-474.75 820,-545 820,-545 820,-551 814,-557 808,-557"/>
<text text-anchor="middle" x="728" y="-539.7" font-family="Helvetica,sans-Serif" font-size="14.00">22_U &lt;= 0.5</text>
<text text-anchor="middle" x="728" y="-522.45" font-family="Helvetica,sans-Serif" font-size="14.00">entropy = 1.0</text>
<text text-anchor="middle" x="728" y="-505.2" font-family="Helvetica,sans-Serif" font-size="14.00">samples = 38086</text>
<text text-anchor="middle" x="728" y="-487.95" font-family="Helvetica,sans-Serif" font-size="14.00">value = [30204, 30141]</text>
<text text-anchor="middle" x="728" y="-470.7" font-family="Helvetica,sans-Serif" font-size="14.00">class = Animal</text>
</g>
<!-- 1 -->
<g id="node2" class="node">
<title>1</title>
<path fill="#dceefa" stroke="black" d="M633,-426.75C633,-426.75 473,-426.75 473,-426.75 467,-426.75 461,-420.75 461,-414.75 461,-414.75 461,-344.5 461,-344.5 461,-338.5 467,-332.5 473,-332.5 473,-332.5 633,-332.5 633,-332.5 639,-332.5 645,-338.5 645,-344.5 645,-344.5 645,-414.75 645,-414.75 645,-420.75 639,-426.75 633,-426.75"/>
<text text-anchor="middle" x="553" y="-409.45" font-family="Helvetica,sans-Serif" font-size="14.00">9_G &lt;= 0.5</text>
<text text-anchor="middle" x="553" y="-392.2" font-family="Helvetica,sans-Serif" font-size="14.00">entropy = 0.993</text>
<text text-anchor="middle" x="553" y="-374.95" font-family="Helvetica,sans-Serif" font-size="14.00">samples = 32956</text>
<text text-anchor="middle" x="553" y="-357.7" font-family="Helvetica,sans-Serif" font-size="14.00">value = [23579, 28640]</text>
<text text-anchor="middle" x="553" y="-340.45" font-family="Helvetica,sans-Serif" font-size="14.00">class = Plant</text>
</g>
<!-- 0&#45;&gt;1 -->
<g id="edge1" class="edge">
<title>0&#45;&gt;1</title>
<path fill="none" stroke="black" d="M664.82,-462.57C652.01,-453.19 638.45,-443.25 625.36,-433.65"/>
<polygon fill="black" stroke="black" points="627.74,-431.06 617.6,-427.97 623.6,-436.7 627.74,-431.06"/>
<text text-anchor="middle" x="620.19" y="-447.11" font-family="Helvetica,sans-Serif" font-size="14.00">True</text>
</g>
<!-- 15032 -->
<g id="node17" class="node">
<title>15032</title>
<path fill="#eb9e66" stroke="black" d="M979,-426.75C979,-426.75 837,-426.75 837,-426.75 831,-426.75 825,-420.75 825,-414.75 825,-414.75 825,-344.5 825,-344.5 825,-338.5 831,-332.5 837,-332.5 837,-332.5 979,-332.5 979,-332.5 985,-332.5 991,-338.5 991,-344.5 991,-344.5 991,-414.75 991,-414.75 991,-420.75 985,-426.75 979,-426.75"/>
<text text-anchor="middle" x="908" y="-409.45" font-family="Helvetica,sans-Serif" font-size="14.00">16_G &lt;= 0.5</text>
<text text-anchor="middle" x="908" y="-392.2" font-family="Helvetica,sans-Serif" font-size="14.00">entropy = 0.69</text>
<text text-anchor="middle" x="908" y="-374.95" font-family="Helvetica,sans-Serif" font-size="14.00">samples = 5130</text>
<text text-anchor="middle" x="908" y="-357.7" font-family="Helvetica,sans-Serif" font-size="14.00">value = [6625, 1501]</text>
<text text-anchor="middle" x="908" y="-340.45" font-family="Helvetica,sans-Serif" font-size="14.00">class = Animal</text>
</g>
<!-- 0&#45;&gt;15032 -->
<g id="edge16" class="edge">
<title>0&#45;&gt;15032</title>
<path fill="none" stroke="black" d="M793.24,-462.39C806.32,-453.07 820.15,-443.22 833.52,-433.69"/>
<polygon fill="black" stroke="black" points="835.34,-436.7 841.45,-428.04 831.27,-430.99 835.34,-436.7"/>
<text text-anchor="middle" x="838.54" y="-447.14" font-family="Helvetica,sans-Serif" font-size="14.00">False</text>
</g>
<!-- 2 -->
<g id="node3" class="node">
<title>2</title>
<path fill="#f4fafe" stroke="black" d="M361,-296.5C361,-296.5 201,-296.5 201,-296.5 195,-296.5 189,-290.5 189,-284.5 189,-284.5 189,-214.25 189,-214.25 189,-208.25 195,-202.25 201,-202.25 201,-202.25 361,-202.25 361,-202.25 367,-202.25 373,-208.25 373,-214.25 373,-214.25 373,-284.5 373,-284.5 373,-290.5 367,-296.5 361,-296.5"/>
<text text-anchor="middle" x="281" y="-279.2" font-family="Helvetica,sans-Serif" font-size="14.00">23_U &lt;= 0.5</text>
<text text-anchor="middle" x="281" y="-261.95" font-family="Helvetica,sans-Serif" font-size="14.00">entropy = 0.999</text>
<text text-anchor="middle" x="281" y="-244.7" font-family="Helvetica,sans-Serif" font-size="14.00">samples = 23496</text>
<text text-anchor="middle" x="281" y="-227.45" font-family="Helvetica,sans-Serif" font-size="14.00">value = [18114, 19141]</text>
<text text-anchor="middle" x="281" y="-210.2" font-family="Helvetica,sans-Serif" font-size="14.00">class = Plant</text>
</g>
<!-- 1&#45;&gt;2 -->
<g id="edge2" class="edge">
<title>1&#45;&gt;2</title>
<path fill="none" stroke="black" d="M460.53,-335.03C435.76,-323.35 408.84,-310.65 383.56,-298.73"/>
<polygon fill="black" stroke="black" points="385.12,-295.6 374.58,-294.5 382.13,-301.93 385.12,-295.6"/>
</g>
<!-- 10981 -->
<g id="node10" class="node">
<title>10981</title>
<path fill="#abd5f4" stroke="black" d="M624,-296.5C624,-296.5 482,-296.5 482,-296.5 476,-296.5 470,-290.5 470,-284.5 470,-284.5 470,-214.25 470,-214.25 470,-208.25 476,-202.25 482,-202.25 482,-202.25 624,-202.25 624,-202.25 630,-202.25 636,-208.25 636,-214.25 636,-214.25 636,-284.5 636,-284.5 636,-290.5 630,-296.5 624,-296.5"/>
<text text-anchor="middle" x="553" y="-279.2" font-family="Helvetica,sans-Serif" font-size="14.00">5_A &lt;= 0.5</text>
<text text-anchor="middle" x="553" y="-261.95" font-family="Helvetica,sans-Serif" font-size="14.00">entropy = 0.947</text>
<text text-anchor="middle" x="553" y="-244.7" font-family="Helvetica,sans-Serif" font-size="14.00">samples = 9460</text>
<text text-anchor="middle" x="553" y="-227.45" font-family="Helvetica,sans-Serif" font-size="14.00">value = [5465, 9499]</text>
<text text-anchor="middle" x="553" y="-210.2" font-family="Helvetica,sans-Serif" font-size="14.00">class = Plant</text>
</g>
<!-- 1&#45;&gt;10981 -->
<g id="edge9" class="edge">
<title>1&#45;&gt;10981</title>
<path fill="none" stroke="black" d="M553,-332.32C553,-324.42 553,-316.13 553,-307.98"/>
<polygon fill="black" stroke="black" points="556.5,-308.12 553,-298.12 549.5,-308.12 556.5,-308.12"/>
</g>
<!-- 3 -->
<g id="node4" class="node">
<title>3</title>
<path fill="#e8f3fc" stroke="black" d="M172,-166.25C172,-166.25 12,-166.25 12,-166.25 6,-166.25 0,-160.25 0,-154.25 0,-154.25 0,-84 0,-84 0,-78 6,-72 12,-72 12,-72 172,-72 172,-72 178,-72 184,-78 184,-84 184,-84 184,-154.25 184,-154.25 184,-160.25 178,-166.25 172,-166.25"/>
<text text-anchor="middle" x="92" y="-148.95" font-family="Helvetica,sans-Serif" font-size="14.00">8_U &lt;= 0.5</text>
<text text-anchor="middle" x="92" y="-131.7" font-family="Helvetica,sans-Serif" font-size="14.00">entropy = 0.997</text>
<text text-anchor="middle" x="92" y="-114.45" font-family="Helvetica,sans-Serif" font-size="14.00">samples = 22261</text>
<text text-anchor="middle" x="92" y="-97.2" font-family="Helvetica,sans-Serif" font-size="14.00">value = [16545, 18773]</text>
<text text-anchor="middle" x="92" y="-79.95" font-family="Helvetica,sans-Serif" font-size="14.00">class = Plant</text>
</g>
<!-- 2&#45;&gt;3 -->
<g id="edge3" class="edge">
<title>2&#45;&gt;3</title>
<path fill="none" stroke="black" d="M212.5,-201.89C198.63,-192.48 183.96,-182.53 169.8,-172.92"/>
<polygon fill="black" stroke="black" points="172.08,-170.23 161.84,-167.51 168.15,-176.03 172.08,-170.23"/>
</g>
<!-- 10544 -->
<g id="node7" class="node">
<title>10544</title>
<path fill="#eb9f67" stroke="black" d="M347.5,-166.25C347.5,-166.25 214.5,-166.25 214.5,-166.25 208.5,-166.25 202.5,-160.25 202.5,-154.25 202.5,-154.25 202.5,-84 202.5,-84 202.5,-78 208.5,-72 214.5,-72 214.5,-72 347.5,-72 347.5,-72 353.5,-72 359.5,-78 359.5,-84 359.5,-84 359.5,-154.25 359.5,-154.25 359.5,-160.25 353.5,-166.25 347.5,-166.25"/>
<text text-anchor="middle" x="281" y="-148.95" font-family="Helvetica,sans-Serif" font-size="14.00">1_G &lt;= 0.5</text>
<text text-anchor="middle" x="281" y="-131.7" font-family="Helvetica,sans-Serif" font-size="14.00">entropy = 0.701</text>
<text text-anchor="middle" x="281" y="-114.45" font-family="Helvetica,sans-Serif" font-size="14.00">samples = 1235</text>
<text text-anchor="middle" x="281" y="-97.2" font-family="Helvetica,sans-Serif" font-size="14.00">value = [1569, 368]</text>
<text text-anchor="middle" x="281" y="-79.95" font-family="Helvetica,sans-Serif" font-size="14.00">class = Animal</text>
</g>
<!-- 2&#45;&gt;10544 -->
<g id="edge6" class="edge">
<title>2&#45;&gt;10544</title>
<path fill="none" stroke="black" d="M281,-202.07C281,-194.17 281,-185.88 281,-177.73"/>
<polygon fill="black" stroke="black" points="284.5,-177.87 281,-167.87 277.5,-177.87 284.5,-177.87"/>
</g>
<!-- 4 -->
<g id="node5" class="node">
<title>4</title>
<path fill="#c0c0c0" stroke="black" d="M71,-36C71,-36 41,-36 41,-36 35,-36 29,-30 29,-24 29,-24 29,-12 29,-12 29,-6 35,0 41,0 41,0 71,0 71,0 77,0 83,-6 83,-12 83,-12 83,-24 83,-24 83,-30 77,-36 71,-36"/>
<text text-anchor="middle" x="56" y="-13.32" font-family="Helvetica,sans-Serif" font-size="14.00">(...)</text>
</g>
<!-- 3&#45;&gt;4 -->
<g id="edge4" class="edge">
<title>3&#45;&gt;4</title>
<path fill="none" stroke="black" d="M75.16,-71.75C72.06,-63.22 68.92,-54.57 66.1,-46.8"/>
<polygon fill="black" stroke="black" points="69.46,-45.8 62.75,-37.6 62.88,-48.19 69.46,-45.8"/>
</g>
<!-- 7821 -->
<g id="node6" class="node">
<title>7821</title>
<path fill="#c0c0c0" stroke="black" d="M143,-36C143,-36 113,-36 113,-36 107,-36 101,-30 101,-24 101,-24 101,-12 101,-12 101,-6 107,0 113,0 113,0 143,0 143,0 149,0 155,-6 155,-12 155,-12 155,-24 155,-24 155,-30 149,-36 143,-36"/>
<text text-anchor="middle" x="128" y="-13.32" font-family="Helvetica,sans-Serif" font-size="14.00">(...)</text>
</g>
<!-- 3&#45;&gt;7821 -->
<g id="edge5" class="edge">
<title>3&#45;&gt;7821</title>
<path fill="none" stroke="black" d="M108.84,-71.75C111.94,-63.22 115.08,-54.57 117.9,-46.8"/>
<polygon fill="black" stroke="black" points="121.12,-48.19 121.25,-37.6 114.54,-45.8 121.12,-48.19"/>
</g>
<!-- 10545 -->
<g id="node8" class="node">
<title>10545</title>
<path fill="#c0c0c0" stroke="black" d="M262,-36C262,-36 232,-36 232,-36 226,-36 220,-30 220,-24 220,-24 220,-12 220,-12 220,-6 226,0 232,0 232,0 262,0 262,0 268,0 274,-6 274,-12 274,-12 274,-24 274,-24 274,-30 268,-36 262,-36"/>
<text text-anchor="middle" x="247" y="-13.32" font-family="Helvetica,sans-Serif" font-size="14.00">(...)</text>
</g>
<!-- 10544&#45;&gt;10545 -->
<g id="edge7" class="edge">
<title>10544&#45;&gt;10545</title>
<path fill="none" stroke="black" d="M265.1,-71.75C262.17,-63.22 259.2,-54.57 256.53,-46.8"/>
<polygon fill="black" stroke="black" points="259.94,-45.93 253.38,-37.6 253.32,-48.2 259.94,-45.93"/>
</g>
<!-- 10906 -->
<g id="node9" class="node">
<title>10906</title>
<path fill="#c0c0c0" stroke="black" d="M334,-36C334,-36 304,-36 304,-36 298,-36 292,-30 292,-24 292,-24 292,-12 292,-12 292,-6 298,0 304,0 304,0 334,0 334,0 340,0 346,-6 346,-12 346,-12 346,-24 346,-24 346,-30 340,-36 334,-36"/>
<text text-anchor="middle" x="319" y="-13.32" font-family="Helvetica,sans-Serif" font-size="14.00">(...)</text>
</g>
<!-- 10544&#45;&gt;10906 -->
<g id="edge8" class="edge">
<title>10544&#45;&gt;10906</title>
<path fill="none" stroke="black" d="M298.78,-71.75C302.05,-63.22 305.37,-54.57 308.34,-46.8"/>
<polygon fill="black" stroke="black" points="311.56,-48.18 311.88,-37.59 305.03,-45.67 311.56,-48.18"/>
</g>
<!-- 10982 -->
<g id="node11" class="node">
<title>10982</title>
<path fill="#d2e9f9" stroke="black" d="M532,-166.25C532,-166.25 390,-166.25 390,-166.25 384,-166.25 378,-160.25 378,-154.25 378,-154.25 378,-84 378,-84 378,-78 384,-72 390,-72 390,-72 532,-72 532,-72 538,-72 544,-78 544,-84 544,-84 544,-154.25 544,-154.25 544,-160.25 538,-166.25 532,-166.25"/>
<text text-anchor="middle" x="461" y="-148.95" font-family="Helvetica,sans-Serif" font-size="14.00">18_C &lt;= 0.5</text>
<text text-anchor="middle" x="461" y="-131.7" font-family="Helvetica,sans-Serif" font-size="14.00">entropy = 0.988</text>
<text text-anchor="middle" x="461" y="-114.45" font-family="Helvetica,sans-Serif" font-size="14.00">samples = 6264</text>
<text text-anchor="middle" x="461" y="-97.2" font-family="Helvetica,sans-Serif" font-size="14.00">value = [4320, 5597]</text>
<text text-anchor="middle" x="461" y="-79.95" font-family="Helvetica,sans-Serif" font-size="14.00">class = Plant</text>
</g>
<!-- 10981&#45;&gt;10982 -->
<g id="edge10" class="edge">
<title>10981&#45;&gt;10982</title>
<path fill="none" stroke="black" d="M519.79,-202.07C513.6,-193.45 507.07,-184.35 500.71,-175.49"/>
<polygon fill="black" stroke="black" points="503.72,-173.67 495.05,-167.59 498.03,-177.75 503.72,-173.67"/>
</g>
<!-- 14023 -->
<g id="node14" class="node">
<title>14023</title>
<path fill="#73baed" stroke="black" d="M716,-166.25C716,-166.25 574,-166.25 574,-166.25 568,-166.25 562,-160.25 562,-154.25 562,-154.25 562,-84 562,-84 562,-78 568,-72 574,-72 574,-72 716,-72 716,-72 722,-72 728,-78 728,-84 728,-84 728,-154.25 728,-154.25 728,-160.25 722,-166.25 716,-166.25"/>
<text text-anchor="middle" x="645" y="-148.95" font-family="Helvetica,sans-Serif" font-size="14.00">19_U &lt;= 0.5</text>
<text text-anchor="middle" x="645" y="-131.7" font-family="Helvetica,sans-Serif" font-size="14.00">entropy = 0.773</text>
<text text-anchor="middle" x="645" y="-114.45" font-family="Helvetica,sans-Serif" font-size="14.00">samples = 3196</text>
<text text-anchor="middle" x="645" y="-97.2" font-family="Helvetica,sans-Serif" font-size="14.00">value = [1145, 3902]</text>
<text text-anchor="middle" x="645" y="-79.95" font-family="Helvetica,sans-Serif" font-size="14.00">class = Plant</text>
</g>
<!-- 10981&#45;&gt;14023 -->
<g id="edge13" class="edge">
<title>10981&#45;&gt;14023</title>
<path fill="none" stroke="black" d="M586.21,-202.07C592.4,-193.45 598.93,-184.35 605.29,-175.49"/>
<polygon fill="black" stroke="black" points="607.97,-177.75 610.95,-167.59 602.28,-173.67 607.97,-177.75"/>
</g>
<!-- 10983 -->
<g id="node12" class="node">
<title>10983</title>
<path fill="#c0c0c0" stroke="black" d="M424,-36C424,-36 394,-36 394,-36 388,-36 382,-30 382,-24 382,-24 382,-12 382,-12 382,-6 388,0 394,0 394,0 424,0 424,0 430,0 436,-6 436,-12 436,-12 436,-24 436,-24 436,-30 430,-36 424,-36"/>
<text text-anchor="middle" x="409" y="-13.32" font-family="Helvetica,sans-Serif" font-size="14.00">(...)</text>
</g>
<!-- 10982&#45;&gt;10983 -->
<g id="edge11" class="edge">
<title>10982&#45;&gt;10983</title>
<path fill="none" stroke="black" d="M436.67,-71.75C432.1,-63.03 427.45,-54.16 423.3,-46.26"/>
<polygon fill="black" stroke="black" points="426.46,-44.74 418.71,-37.51 420.26,-47.99 426.46,-44.74"/>
</g>
<!-- 13374 -->
<g id="node13" class="node">
<title>13374</title>
<path fill="#c0c0c0" stroke="black" d="M496,-36C496,-36 466,-36 466,-36 460,-36 454,-30 454,-24 454,-24 454,-12 454,-12 454,-6 460,0 466,0 466,0 496,0 496,0 502,0 508,-6 508,-12 508,-12 508,-24 508,-24 508,-30 502,-36 496,-36"/>
<text text-anchor="middle" x="481" y="-13.32" font-family="Helvetica,sans-Serif" font-size="14.00">(...)</text>
</g>
<!-- 10982&#45;&gt;13374 -->
<g id="edge12" class="edge">
<title>10982&#45;&gt;13374</title>
<path fill="none" stroke="black" d="M470.36,-71.75C472.04,-63.42 473.74,-54.97 475.28,-47.34"/>
<polygon fill="black" stroke="black" points="478.69,-48.15 477.24,-37.66 471.83,-46.77 478.69,-48.15"/>
</g>
<!-- 14024 -->
<g id="node15" class="node">
<title>14024</title>
<path fill="#c0c0c0" stroke="black" d="M606,-36C606,-36 576,-36 576,-36 570,-36 564,-30 564,-24 564,-24 564,-12 564,-12 564,-6 570,0 576,0 576,0 606,0 606,0 612,0 618,-6 618,-12 618,-12 618,-24 618,-24 618,-30 612,-36 606,-36"/>
<text text-anchor="middle" x="591" y="-13.32" font-family="Helvetica,sans-Serif" font-size="14.00">(...)</text>
</g>
<!-- 14023&#45;&gt;14024 -->
<g id="edge14" class="edge">
<title>14023&#45;&gt;14024</title>
<path fill="none" stroke="black" d="M619.74,-71.75C614.98,-63.03 610.16,-54.16 605.85,-46.26"/>
<polygon fill="black" stroke="black" points="608.94,-44.61 601.08,-37.5 602.79,-47.96 608.94,-44.61"/>
</g>
<!-- 14745 -->
<g id="node16" class="node">
<title>14745</title>
<path fill="#c0c0c0" stroke="black" d="M678,-36C678,-36 648,-36 648,-36 642,-36 636,-30 636,-24 636,-24 636,-12 636,-12 636,-6 642,0 648,0 648,0 678,0 678,0 684,0 690,-6 690,-12 690,-12 690,-24 690,-24 690,-30 684,-36 678,-36"/>
<text text-anchor="middle" x="663" y="-13.32" font-family="Helvetica,sans-Serif" font-size="14.00">(...)</text>
</g>
<!-- 14023&#45;&gt;14745 -->
<g id="edge15" class="edge">
<title>14023&#45;&gt;14745</title>
<path fill="none" stroke="black" d="M653.42,-71.75C654.93,-63.42 656.47,-54.97 657.85,-47.34"/>
<polygon fill="black" stroke="black" points="661.27,-48.13 659.61,-37.66 654.38,-46.88 661.27,-48.13"/>
</g>
<!-- 15033 -->
<g id="node18" class="node">
<title>15033</title>
<path fill="#ea9b62" stroke="black" d="M979,-296.5C979,-296.5 837,-296.5 837,-296.5 831,-296.5 825,-290.5 825,-284.5 825,-284.5 825,-214.25 825,-214.25 825,-208.25 831,-202.25 837,-202.25 837,-202.25 979,-202.25 979,-202.25 985,-202.25 991,-208.25 991,-214.25 991,-214.25 991,-284.5 991,-284.5 991,-290.5 985,-296.5 979,-296.5"/>
<text text-anchor="middle" x="908" y="-279.2" font-family="Helvetica,sans-Serif" font-size="14.00">9_U &lt;= 0.5</text>
<text text-anchor="middle" x="908" y="-261.95" font-family="Helvetica,sans-Serif" font-size="14.00">entropy = 0.658</text>
<text text-anchor="middle" x="908" y="-244.7" font-family="Helvetica,sans-Serif" font-size="14.00">samples = 4018</text>
<text text-anchor="middle" x="908" y="-227.45" font-family="Helvetica,sans-Serif" font-size="14.00">value = [5286, 1083]</text>
<text text-anchor="middle" x="908" y="-210.2" font-family="Helvetica,sans-Serif" font-size="14.00">class = Animal</text>
</g>
<!-- 15032&#45;&gt;15033 -->
<g id="edge17" class="edge">
<title>15032&#45;&gt;15033</title>
<path fill="none" stroke="black" d="M908,-332.32C908,-324.42 908,-316.13 908,-307.98"/>
<polygon fill="black" stroke="black" points="911.5,-308.12 908,-298.12 904.5,-308.12 911.5,-308.12"/>
</g>
<!-- 16554 -->
<g id="node25" class="node">
<title>16554</title>
<path fill="#eda877" stroke="black" d="M1237.5,-296.5C1237.5,-296.5 1104.5,-296.5 1104.5,-296.5 1098.5,-296.5 1092.5,-290.5 1092.5,-284.5 1092.5,-284.5 1092.5,-214.25 1092.5,-214.25 1092.5,-208.25 1098.5,-202.25 1104.5,-202.25 1104.5,-202.25 1237.5,-202.25 1237.5,-202.25 1243.5,-202.25 1249.5,-208.25 1249.5,-214.25 1249.5,-214.25 1249.5,-284.5 1249.5,-284.5 1249.5,-290.5 1243.5,-296.5 1237.5,-296.5"/>
<text text-anchor="middle" x="1171" y="-279.2" font-family="Helvetica,sans-Serif" font-size="14.00">2_A &lt;= 0.5</text>
<text text-anchor="middle" x="1171" y="-261.95" font-family="Helvetica,sans-Serif" font-size="14.00">entropy = 0.792</text>
<text text-anchor="middle" x="1171" y="-244.7" font-family="Helvetica,sans-Serif" font-size="14.00">samples = 1112</text>
<text text-anchor="middle" x="1171" y="-227.45" font-family="Helvetica,sans-Serif" font-size="14.00">value = [1339, 418]</text>
<text text-anchor="middle" x="1171" y="-210.2" font-family="Helvetica,sans-Serif" font-size="14.00">class = Animal</text>
</g>
<!-- 15032&#45;&gt;16554 -->
<g id="edge24" class="edge">
<title>15032&#45;&gt;16554</title>
<path fill="none" stroke="black" d="M991.21,-338.05C1020.16,-323.93 1052.72,-308.05 1082.11,-293.72"/>
<polygon fill="black" stroke="black" points="1083.54,-296.92 1091,-289.39 1080.48,-290.62 1083.54,-296.92"/>
</g>
<!-- 15034 -->
<g id="node19" class="node">
<title>15034</title>
<path fill="#eca16b" stroke="black" d="M891.5,-166.25C891.5,-166.25 758.5,-166.25 758.5,-166.25 752.5,-166.25 746.5,-160.25 746.5,-154.25 746.5,-154.25 746.5,-84 746.5,-84 746.5,-78 752.5,-72 758.5,-72 758.5,-72 891.5,-72 891.5,-72 897.5,-72 903.5,-78 903.5,-84 903.5,-84 903.5,-154.25 903.5,-154.25 903.5,-160.25 897.5,-166.25 891.5,-166.25"/>
<text text-anchor="middle" x="825" y="-148.95" font-family="Helvetica,sans-Serif" font-size="14.00">5_U &lt;= 0.5</text>
<text text-anchor="middle" x="825" y="-131.7" font-family="Helvetica,sans-Serif" font-size="14.00">entropy = 0.726</text>
<text text-anchor="middle" x="825" y="-114.45" font-family="Helvetica,sans-Serif" font-size="14.00">samples = 2537</text>
<text text-anchor="middle" x="825" y="-97.2" font-family="Helvetica,sans-Serif" font-size="14.00">value = [3196, 810]</text>
<text text-anchor="middle" x="825" y="-79.95" font-family="Helvetica,sans-Serif" font-size="14.00">class = Animal</text>
</g>
<!-- 15033&#45;&gt;15034 -->
<g id="edge18" class="edge">
<title>15033&#45;&gt;15034</title>
<path fill="none" stroke="black" d="M878.04,-202.07C872.51,-193.54 866.69,-184.54 861.01,-175.77"/>
<polygon fill="black" stroke="black" points="864.11,-174.12 855.74,-167.63 858.24,-177.93 864.11,-174.12"/>
</g>
<!-- 16111 -->
<g id="node22" class="node">
<title>16111</title>
<path fill="#e89153" stroke="black" d="M1066.5,-166.25C1066.5,-166.25 933.5,-166.25 933.5,-166.25 927.5,-166.25 921.5,-160.25 921.5,-154.25 921.5,-154.25 921.5,-84 921.5,-84 921.5,-78 927.5,-72 933.5,-72 933.5,-72 1066.5,-72 1066.5,-72 1072.5,-72 1078.5,-78 1078.5,-84 1078.5,-84 1078.5,-154.25 1078.5,-154.25 1078.5,-160.25 1072.5,-166.25 1066.5,-166.25"/>
<text text-anchor="middle" x="1000" y="-148.95" font-family="Helvetica,sans-Serif" font-size="14.00">5_G &lt;= 0.5</text>
<text text-anchor="middle" x="1000" y="-131.7" font-family="Helvetica,sans-Serif" font-size="14.00">entropy = 0.516</text>
<text text-anchor="middle" x="1000" y="-114.45" font-family="Helvetica,sans-Serif" font-size="14.00">samples = 1481</text>
<text text-anchor="middle" x="1000" y="-97.2" font-family="Helvetica,sans-Serif" font-size="14.00">value = [2090, 273]</text>
<text text-anchor="middle" x="1000" y="-79.95" font-family="Helvetica,sans-Serif" font-size="14.00">class = Animal</text>
</g>
<!-- 15033&#45;&gt;16111 -->
<g id="edge21" class="edge">
<title>15033&#45;&gt;16111</title>
<path fill="none" stroke="black" d="M941.21,-202.07C947.4,-193.45 953.93,-184.35 960.29,-175.49"/>
<polygon fill="black" stroke="black" points="962.97,-177.75 965.95,-167.59 957.28,-173.67 962.97,-177.75"/>
</g>
<!-- 15035 -->
<g id="node20" class="node">
<title>15035</title>
<path fill="#c0c0c0" stroke="black" d="M783,-36C783,-36 753,-36 753,-36 747,-36 741,-30 741,-24 741,-24 741,-12 741,-12 741,-6 747,0 753,0 753,0 783,0 783,0 789,0 795,-6 795,-12 795,-12 795,-24 795,-24 795,-30 789,-36 783,-36"/>
<text text-anchor="middle" x="768" y="-13.32" font-family="Helvetica,sans-Serif" font-size="14.00">(...)</text>
</g>
<!-- 15034&#45;&gt;15035 -->
<g id="edge19" class="edge">
<title>15034&#45;&gt;15035</title>
<path fill="none" stroke="black" d="M798.34,-71.75C793.26,-62.93 788.1,-53.96 783.52,-45.99"/>
<polygon fill="black" stroke="black" points="786.65,-44.41 778.63,-37.48 780.58,-47.9 786.65,-44.41"/>
</g>
<!-- 15838 -->
<g id="node21" class="node">
<title>15838</title>
<path fill="#c0c0c0" stroke="black" d="M855,-36C855,-36 825,-36 825,-36 819,-36 813,-30 813,-24 813,-24 813,-12 813,-12 813,-6 819,0 825,0 825,0 855,0 855,0 861,0 867,-6 867,-12 867,-12 867,-24 867,-24 867,-30 861,-36 855,-36"/>
<text text-anchor="middle" x="840" y="-13.32" font-family="Helvetica,sans-Serif" font-size="14.00">(...)</text>
</g>
<!-- 15034&#45;&gt;15838 -->
<g id="edge20" class="edge">
<title>15034&#45;&gt;15838</title>
<path fill="none" stroke="black" d="M832.02,-71.75C833.28,-63.42 834.56,-54.97 835.71,-47.34"/>
<polygon fill="black" stroke="black" points="839.14,-48.08 837.17,-37.67 832.22,-47.03 839.14,-48.08"/>
</g>
<!-- 16112 -->
<g id="node23" class="node">
<title>16112</title>
<path fill="#c0c0c0" stroke="black" d="M956,-36C956,-36 926,-36 926,-36 920,-36 914,-30 914,-24 914,-24 914,-12 914,-12 914,-6 920,0 926,0 926,0 956,0 956,0 962,0 968,-6 968,-12 968,-12 968,-24 968,-24 968,-30 962,-36 956,-36"/>
<text text-anchor="middle" x="941" y="-13.32" font-family="Helvetica,sans-Serif" font-size="14.00">(...)</text>
</g>
<!-- 16111&#45;&gt;16112 -->
<g id="edge22" class="edge">
<title>16111&#45;&gt;16112</title>
<path fill="none" stroke="black" d="M972.4,-71.75C967.15,-62.93 961.81,-53.96 957.06,-45.99"/>
<polygon fill="black" stroke="black" points="960.12,-44.28 952,-37.47 954.1,-47.86 960.12,-44.28"/>
</g>
<!-- 16407 -->
<g id="node24" class="node">
<title>16407</title>
<path fill="#c0c0c0" stroke="black" d="M1028,-36C1028,-36 998,-36 998,-36 992,-36 986,-30 986,-24 986,-24 986,-12 986,-12 986,-6 992,0 998,0 998,0 1028,0 1028,0 1034,0 1040,-6 1040,-12 1040,-12 1040,-24 1040,-24 1040,-30 1034,-36 1028,-36"/>
<text text-anchor="middle" x="1013" y="-13.32" font-family="Helvetica,sans-Serif" font-size="14.00">(...)</text>
</g>
<!-- 16111&#45;&gt;16407 -->
<g id="edge23" class="edge">
<title>16111&#45;&gt;16407</title>
<path fill="none" stroke="black" d="M1006.08,-71.75C1007.17,-63.42 1008.28,-54.97 1009.28,-47.34"/>
<polygon fill="black" stroke="black" points="1012.72,-48.04 1010.55,-37.67 1005.78,-47.13 1012.72,-48.04"/>
</g>
<!-- 16555 -->
<g id="node26" class="node">
<title>16555</title>
<path fill="#f0b58b" stroke="black" d="M1233,-166.25C1233,-166.25 1109,-166.25 1109,-166.25 1103,-166.25 1097,-160.25 1097,-154.25 1097,-154.25 1097,-84 1097,-84 1097,-78 1103,-72 1109,-72 1109,-72 1233,-72 1233,-72 1239,-72 1245,-78 1245,-84 1245,-84 1245,-154.25 1245,-154.25 1245,-160.25 1239,-166.25 1233,-166.25"/>
<text text-anchor="middle" x="1171" y="-148.95" font-family="Helvetica,sans-Serif" font-size="14.00">18_C &lt;= 0.5</text>
<text text-anchor="middle" x="1171" y="-131.7" font-family="Helvetica,sans-Serif" font-size="14.00">entropy = 0.871</text>
<text text-anchor="middle" x="1171" y="-114.45" font-family="Helvetica,sans-Serif" font-size="14.00">samples = 753</text>
<text text-anchor="middle" x="1171" y="-97.2" font-family="Helvetica,sans-Serif" font-size="14.00">value = [847, 349]</text>
<text text-anchor="middle" x="1171" y="-79.95" font-family="Helvetica,sans-Serif" font-size="14.00">class = Animal</text>
</g>
<!-- 16554&#45;&gt;16555 -->
<g id="edge25" class="edge">
<title>16554&#45;&gt;16555</title>
<path fill="none" stroke="black" d="M1171,-202.07C1171,-194.17 1171,-185.88 1171,-177.73"/>
<polygon fill="black" stroke="black" points="1174.5,-177.87 1171,-167.87 1167.5,-177.87 1174.5,-177.87"/>
</g>
<!-- 16936 -->
<g id="node29" class="node">
<title>16936</title>
<path fill="#e99355" stroke="black" d="M1390.5,-166.25C1390.5,-166.25 1275.5,-166.25 1275.5,-166.25 1269.5,-166.25 1263.5,-160.25 1263.5,-154.25 1263.5,-154.25 1263.5,-84 1263.5,-84 1263.5,-78 1269.5,-72 1275.5,-72 1275.5,-72 1390.5,-72 1390.5,-72 1396.5,-72 1402.5,-78 1402.5,-84 1402.5,-84 1402.5,-154.25 1402.5,-154.25 1402.5,-160.25 1396.5,-166.25 1390.5,-166.25"/>
<text text-anchor="middle" x="1333" y="-148.95" font-family="Helvetica,sans-Serif" font-size="14.00">21_G &lt;= 0.5</text>
<text text-anchor="middle" x="1333" y="-131.7" font-family="Helvetica,sans-Serif" font-size="14.00">entropy = 0.538</text>
<text text-anchor="middle" x="1333" y="-114.45" font-family="Helvetica,sans-Serif" font-size="14.00">samples = 359</text>
<text text-anchor="middle" x="1333" y="-97.2" font-family="Helvetica,sans-Serif" font-size="14.00">value = [492, 69]</text>
<text text-anchor="middle" x="1333" y="-79.95" font-family="Helvetica,sans-Serif" font-size="14.00">class = Animal</text>
</g>
<!-- 16554&#45;&gt;16936 -->
<g id="edge28" class="edge">
<title>16554&#45;&gt;16936</title>
<path fill="none" stroke="black" d="M1229.49,-202.07C1241.11,-192.87 1253.41,-183.13 1265.32,-173.71"/>
<polygon fill="black" stroke="black" points="1267.47,-176.46 1273.14,-167.51 1263.13,-170.98 1267.47,-176.46"/>
</g>
<!-- 16556 -->
<g id="node27" class="node">
<title>16556</title>
<path fill="#c0c0c0" stroke="black" d="M1141,-36C1141,-36 1111,-36 1111,-36 1105,-36 1099,-30 1099,-24 1099,-24 1099,-12 1099,-12 1099,-6 1105,0 1111,0 1111,0 1141,0 1141,0 1147,0 1153,-6 1153,-12 1153,-12 1153,-24 1153,-24 1153,-30 1147,-36 1141,-36"/>
<text text-anchor="middle" x="1126" y="-13.32" font-family="Helvetica,sans-Serif" font-size="14.00">(...)</text>
</g>
<!-- 16555&#45;&gt;16556 -->
<g id="edge26" class="edge">
<title>16555&#45;&gt;16556</title>
<path fill="none" stroke="black" d="M1149.95,-71.75C1146.03,-63.12 1142.05,-54.36 1138.5,-46.53"/>
<polygon fill="black" stroke="black" points="1141.74,-45.21 1134.42,-37.55 1135.37,-48.1 1141.74,-45.21"/>
</g>
<!-- 16857 -->
<g id="node28" class="node">
<title>16857</title>
<path fill="#c0c0c0" stroke="black" d="M1213,-36C1213,-36 1183,-36 1183,-36 1177,-36 1171,-30 1171,-24 1171,-24 1171,-12 1171,-12 1171,-6 1177,0 1183,0 1183,0 1213,0 1213,0 1219,0 1225,-6 1225,-12 1225,-12 1225,-24 1225,-24 1225,-30 1219,-36 1213,-36"/>
<text text-anchor="middle" x="1198" y="-13.32" font-family="Helvetica,sans-Serif" font-size="14.00">(...)</text>
</g>
<!-- 16555&#45;&gt;16857 -->
<g id="edge27" class="edge">
<title>16555&#45;&gt;16857</title>
<path fill="none" stroke="black" d="M1183.63,-71.75C1185.93,-63.32 1188.26,-54.77 1190.35,-47.07"/>
<polygon fill="black" stroke="black" points="1193.67,-48.2 1192.92,-37.63 1186.92,-46.36 1193.67,-48.2"/>
</g>
<!-- 16937 -->
<g id="node30" class="node">
<title>16937</title>
<path fill="#c0c0c0" stroke="black" d="M1312,-36C1312,-36 1282,-36 1282,-36 1276,-36 1270,-30 1270,-24 1270,-24 1270,-12 1270,-12 1270,-6 1276,0 1282,0 1282,0 1312,0 1312,0 1318,0 1324,-6 1324,-12 1324,-12 1324,-24 1324,-24 1324,-30 1318,-36 1312,-36"/>
<text text-anchor="middle" x="1297" y="-13.32" font-family="Helvetica,sans-Serif" font-size="14.00">(...)</text>
</g>
<!-- 16936&#45;&gt;16937 -->
<g id="edge29" class="edge">
<title>16936&#45;&gt;16937</title>
<path fill="none" stroke="black" d="M1316.16,-71.75C1313.06,-63.22 1309.92,-54.57 1307.1,-46.8"/>
<polygon fill="black" stroke="black" points="1310.46,-45.8 1303.75,-37.6 1303.88,-48.19 1310.46,-45.8"/>
</g>
<!-- 17010 -->
<g id="node31" class="node">
<title>17010</title>
<path fill="#c0c0c0" stroke="black" d="M1384,-36C1384,-36 1354,-36 1354,-36 1348,-36 1342,-30 1342,-24 1342,-24 1342,-12 1342,-12 1342,-6 1348,0 1354,0 1354,0 1384,0 1384,0 1390,0 1396,-6 1396,-12 1396,-12 1396,-24 1396,-24 1396,-30 1390,-36 1384,-36"/>
<text text-anchor="middle" x="1369" y="-13.32" font-family="Helvetica,sans-Serif" font-size="14.00">(...)</text>
</g>
<!-- 16936&#45;&gt;17010 -->
<g id="edge30" class="edge">
<title>16936&#45;&gt;17010</title>
<path fill="none" stroke="black" d="M1349.84,-71.75C1352.94,-63.22 1356.08,-54.57 1358.9,-46.8"/>
<polygon fill="black" stroke="black" points="1362.12,-48.19 1362.25,-37.6 1355.54,-45.8 1362.12,-48.19"/>
</g>
</g>
</svg>
