<?xml version="1.0" encoding="UTF-8" standalone="no"?>
<!DOCTYPE svg PUBLIC "-//W3C//DTD SVG 1.1//EN"
 "http://www.w3.org/Graphics/SVG/1.1/DTD/svg11.dtd">
<!-- Generated by graphviz version 12.0.0 (20240803.0821)
 -->
<!-- Title: Tree Pages: 1 -->
<svg width="1427pt" height="565pt"
 viewBox="0.00 0.00 1427.00 565.00" xmlns="http://www.w3.org/2000/svg" xmlns:xlink="http://www.w3.org/1999/xlink">
<g id="graph0" class="graph" transform="scale(1 1) rotate(0) translate(4 561)">
<title>Tree</title>
<polygon fill="white" stroke="none" points="-4,4 -4,-561 1423,-561 1423,4 -4,4"/>
<!-- 0 -->
<g id="node1" class="node">
<title>0</title>
<path fill="#fffefe" stroke="black" d="M793,-557C793,-557 633,-557 633,-557 627,-557 621,-551 621,-545 621,-545 621,-474.75 621,-474.75 621,-468.75 627,-462.75 633,-462.75 633,-462.75 793,-462.75 793,-462.75 799,-462.75 805,-468.75 805,-474.75 805,-474.75 805,-545 805,-545 805,-551 799,-557 793,-557"/>
<text text-anchor="middle" x="713" y="-539.7" font-family="Helvetica,sans-Serif" font-size="14.00">1_U &lt;= 0.5</text>
<text text-anchor="middle" x="713" y="-522.45" font-family="Helvetica,sans-Serif" font-size="14.00">entropy = 1.0</text>
<text text-anchor="middle" x="713" y="-505.2" font-family="Helvetica,sans-Serif" font-size="14.00">samples = 38155</text>
<text text-anchor="middle" x="713" y="-487.95" font-family="Helvetica,sans-Serif" font-size="14.00">value = [30264, 30081]</text>
<text text-anchor="middle" x="713" y="-470.7" font-family="Helvetica,sans-Serif" font-size="14.00">class = Animal</text>
</g>
<!-- 1 -->
<g id="node2" class="node">
<title>1</title>
<path fill="#f7dac5" stroke="black" d="M621,-426.75C621,-426.75 461,-426.75 461,-426.75 455,-426.75 449,-420.75 449,-414.75 449,-414.75 449,-344.5 449,-344.5 449,-338.5 455,-332.5 461,-332.5 461,-332.5 621,-332.5 621,-332.5 627,-332.5 633,-338.5 633,-344.5 633,-344.5 633,-414.75 633,-414.75 633,-420.75 627,-426.75 621,-426.75"/>
<text text-anchor="middle" x="541" y="-409.45" font-family="Helvetica,sans-Serif" font-size="14.00">22_U &lt;= 0.5</text>
<text text-anchor="middle" x="541" y="-392.2" font-family="Helvetica,sans-Serif" font-size="14.00">entropy = 0.978</text>
<text text-anchor="middle" x="541" y="-374.95" font-family="Helvetica,sans-Serif" font-size="14.00">samples = 17868</text>
<text text-anchor="middle" x="541" y="-357.7" font-family="Helvetica,sans-Serif" font-size="14.00">value = [16613, 11709]</text>
<text text-anchor="middle" x="541" y="-340.45" font-family="Helvetica,sans-Serif" font-size="14.00">class = Animal</text>
</g>
<!-- 0&#45;&gt;1 -->
<g id="edge1" class="edge">
<title>0&#45;&gt;1</title>
<path fill="none" stroke="black" d="M650.9,-462.57C638.44,-453.28 625.24,-443.44 612.49,-433.93"/>
<polygon fill="black" stroke="black" points="614.62,-431.15 604.51,-427.98 610.43,-436.76 614.62,-431.15"/>
<text text-anchor="middle" x="606.9" y="-447.14" font-family="Helvetica,sans-Serif" font-size="14.00">True</text>
</g>
<!-- 9212 -->
<g id="node17" class="node">
<title>9212</title>
<path fill="#cce6f8" stroke="black" d="M978,-426.75C978,-426.75 818,-426.75 818,-426.75 812,-426.75 806,-420.75 806,-414.75 806,-414.75 806,-344.5 806,-344.5 806,-338.5 812,-332.5 818,-332.5 818,-332.5 978,-332.5 978,-332.5 984,-332.5 990,-338.5 990,-344.5 990,-344.5 990,-414.75 990,-414.75 990,-420.75 984,-426.75 978,-426.75"/>
<text text-anchor="middle" x="898" y="-409.45" font-family="Helvetica,sans-Serif" font-size="14.00">2_A &lt;= 0.5</text>
<text text-anchor="middle" x="898" y="-392.2" font-family="Helvetica,sans-Serif" font-size="14.00">entropy = 0.984</text>
<text text-anchor="middle" x="898" y="-374.95" font-family="Helvetica,sans-Serif" font-size="14.00">samples = 20287</text>
<text text-anchor="middle" x="898" y="-357.7" font-family="Helvetica,sans-Serif" font-size="14.00">value = [13651, 18372]</text>
<text text-anchor="middle" x="898" y="-340.45" font-family="Helvetica,sans-Serif" font-size="14.00">class = Plant</text>
</g>
<!-- 0&#45;&gt;9212 -->
<g id="edge16" class="edge">
<title>0&#45;&gt;9212</title>
<path fill="none" stroke="black" d="M780.05,-462.39C793.49,-453.07 807.71,-443.22 821.45,-433.69"/>
<polygon fill="black" stroke="black" points="823.4,-436.6 829.62,-428.03 819.41,-430.85 823.4,-436.6"/>
<text text-anchor="middle" x="826.41" y="-447.09" font-family="Helvetica,sans-Serif" font-size="14.00">False</text>
</g>
<!-- 2 -->
<g id="node3" class="node">
<title>2</title>
<path fill="#fbeade" stroke="black" d="M361,-296.5C361,-296.5 201,-296.5 201,-296.5 195,-296.5 189,-290.5 189,-284.5 189,-284.5 189,-214.25 189,-214.25 189,-208.25 195,-202.25 201,-202.25 201,-202.25 361,-202.25 361,-202.25 367,-202.25 373,-208.25 373,-214.25 373,-214.25 373,-284.5 373,-284.5 373,-290.5 367,-296.5 361,-296.5"/>
<text text-anchor="middle" x="281" y="-279.2" font-family="Helvetica,sans-Serif" font-size="14.00">22_C &lt;= 0.5</text>
<text text-anchor="middle" x="281" y="-261.95" font-family="Helvetica,sans-Serif" font-size="14.00">entropy = 0.994</text>
<text text-anchor="middle" x="281" y="-244.7" font-family="Helvetica,sans-Serif" font-size="14.00">samples = 15294</text>
<text text-anchor="middle" x="281" y="-227.45" font-family="Helvetica,sans-Serif" font-size="14.00">value = [13239, 11023]</text>
<text text-anchor="middle" x="281" y="-210.2" font-family="Helvetica,sans-Serif" font-size="14.00">class = Animal</text>
</g>
<!-- 1&#45;&gt;2 -->
<g id="edge2" class="edge">
<title>1&#45;&gt;2</title>
<path fill="none" stroke="black" d="M448.6,-333.05C427.43,-322.61 404.81,-311.45 383.25,-300.81"/>
<polygon fill="black" stroke="black" points="384.97,-297.76 374.46,-296.48 381.88,-304.04 384.97,-297.76"/>
</g>
<!-- 8225 -->
<g id="node10" class="node">
<title>8225</title>
<path fill="#ea9b61" stroke="black" d="M607.5,-296.5C607.5,-296.5 474.5,-296.5 474.5,-296.5 468.5,-296.5 462.5,-290.5 462.5,-284.5 462.5,-284.5 462.5,-214.25 462.5,-214.25 462.5,-208.25 468.5,-202.25 474.5,-202.25 474.5,-202.25 607.5,-202.25 607.5,-202.25 613.5,-202.25 619.5,-208.25 619.5,-214.25 619.5,-214.25 619.5,-284.5 619.5,-284.5 619.5,-290.5 613.5,-296.5 607.5,-296.5"/>
<text text-anchor="middle" x="541" y="-279.2" font-family="Helvetica,sans-Serif" font-size="14.00">1_A &lt;= 0.5</text>
<text text-anchor="middle" x="541" y="-261.95" font-family="Helvetica,sans-Serif" font-size="14.00">entropy = 0.655</text>
<text text-anchor="middle" x="541" y="-244.7" font-family="Helvetica,sans-Serif" font-size="14.00">samples = 2574</text>
<text text-anchor="middle" x="541" y="-227.45" font-family="Helvetica,sans-Serif" font-size="14.00">value = [3374, 686]</text>
<text text-anchor="middle" x="541" y="-210.2" font-family="Helvetica,sans-Serif" font-size="14.00">class = Animal</text>
</g>
<!-- 1&#45;&gt;8225 -->
<g id="edge9" class="edge">
<title>1&#45;&gt;8225</title>
<path fill="none" stroke="black" d="M541,-332.32C541,-324.42 541,-316.13 541,-307.98"/>
<polygon fill="black" stroke="black" points="544.5,-308.12 541,-298.12 537.5,-308.12 544.5,-308.12"/>
</g>
<!-- 3 -->
<g id="node4" class="node">
<title>3</title>
<path fill="#fefaf7" stroke="black" d="M172,-166.25C172,-166.25 12,-166.25 12,-166.25 6,-166.25 0,-160.25 0,-154.25 0,-154.25 0,-84 0,-84 0,-78 6,-72 12,-72 12,-72 172,-72 172,-72 178,-72 184,-78 184,-84 184,-84 184,-154.25 184,-154.25 184,-160.25 178,-166.25 172,-166.25"/>
<text text-anchor="middle" x="92" y="-148.95" font-family="Helvetica,sans-Serif" font-size="14.00">22_A &lt;= 0.5</text>
<text text-anchor="middle" x="92" y="-131.7" font-family="Helvetica,sans-Serif" font-size="14.00">entropy = 1.0</text>
<text text-anchor="middle" x="92" y="-114.45" font-family="Helvetica,sans-Serif" font-size="14.00">samples = 13268</text>
<text text-anchor="middle" x="92" y="-97.2" font-family="Helvetica,sans-Serif" font-size="14.00">value = [10736, 10278]</text>
<text text-anchor="middle" x="92" y="-79.95" font-family="Helvetica,sans-Serif" font-size="14.00">class = Animal</text>
</g>
<!-- 2&#45;&gt;3 -->
<g id="edge3" class="edge">
<title>2&#45;&gt;3</title>
<path fill="none" stroke="black" d="M212.5,-201.89C198.63,-192.48 183.96,-182.53 169.8,-172.92"/>
<polygon fill="black" stroke="black" points="172.08,-170.23 161.84,-167.51 168.15,-176.03 172.08,-170.23"/>
</g>
<!-- 7224 -->
<g id="node7" class="node">
<title>7224</title>
<path fill="#eda774" stroke="black" d="M347.5,-166.25C347.5,-166.25 214.5,-166.25 214.5,-166.25 208.5,-166.25 202.5,-160.25 202.5,-154.25 202.5,-154.25 202.5,-84 202.5,-84 202.5,-78 208.5,-72 214.5,-72 214.5,-72 347.5,-72 347.5,-72 353.5,-72 359.5,-78 359.5,-84 359.5,-84 359.5,-154.25 359.5,-154.25 359.5,-160.25 353.5,-166.25 347.5,-166.25"/>
<text text-anchor="middle" x="281" y="-148.95" font-family="Helvetica,sans-Serif" font-size="14.00">26_G &lt;= 0.5</text>
<text text-anchor="middle" x="281" y="-131.7" font-family="Helvetica,sans-Serif" font-size="14.00">entropy = 0.777</text>
<text text-anchor="middle" x="281" y="-114.45" font-family="Helvetica,sans-Serif" font-size="14.00">samples = 2026</text>
<text text-anchor="middle" x="281" y="-97.2" font-family="Helvetica,sans-Serif" font-size="14.00">value = [2503, 745]</text>
<text text-anchor="middle" x="281" y="-79.95" font-family="Helvetica,sans-Serif" font-size="14.00">class = Animal</text>
</g>
<!-- 2&#45;&gt;7224 -->
<g id="edge6" class="edge">
<title>2&#45;&gt;7224</title>
<path fill="none" stroke="black" d="M281,-202.07C281,-194.17 281,-185.88 281,-177.73"/>
<polygon fill="black" stroke="black" points="284.5,-177.87 281,-167.87 277.5,-177.87 284.5,-177.87"/>
</g>
<!-- 4 -->
<g id="node5" class="node">
<title>4</title>
<path fill="#c0c0c0" stroke="black" d="M71,-36C71,-36 41,-36 41,-36 35,-36 29,-30 29,-24 29,-24 29,-12 29,-12 29,-6 35,0 41,0 41,0 71,0 71,0 77,0 83,-6 83,-12 83,-12 83,-24 83,-24 83,-30 77,-36 71,-36"/>
<text text-anchor="middle" x="56" y="-13.32" font-family="Helvetica,sans-Serif" font-size="14.00">(...)</text>
</g>
<!-- 3&#45;&gt;4 -->
<g id="edge4" class="edge">
<title>3&#45;&gt;4</title>
<path fill="none" stroke="black" d="M75.16,-71.75C72.06,-63.22 68.92,-54.57 66.1,-46.8"/>
<polygon fill="black" stroke="black" points="69.46,-45.8 62.75,-37.6 62.88,-48.19 69.46,-45.8"/>
</g>
<!-- 6211 -->
<g id="node6" class="node">
<title>6211</title>
<path fill="#c0c0c0" stroke="black" d="M143,-36C143,-36 113,-36 113,-36 107,-36 101,-30 101,-24 101,-24 101,-12 101,-12 101,-6 107,0 113,0 113,0 143,0 143,0 149,0 155,-6 155,-12 155,-12 155,-24 155,-24 155,-30 149,-36 143,-36"/>
<text text-anchor="middle" x="128" y="-13.32" font-family="Helvetica,sans-Serif" font-size="14.00">(...)</text>
</g>
<!-- 3&#45;&gt;6211 -->
<g id="edge5" class="edge">
<title>3&#45;&gt;6211</title>
<path fill="none" stroke="black" d="M108.84,-71.75C111.94,-63.22 115.08,-54.57 117.9,-46.8"/>
<polygon fill="black" stroke="black" points="121.12,-48.19 121.25,-37.6 114.54,-45.8 121.12,-48.19"/>
</g>
<!-- 7225 -->
<g id="node8" class="node">
<title>7225</title>
<path fill="#c0c0c0" stroke="black" d="M255,-36C255,-36 225,-36 225,-36 219,-36 213,-30 213,-24 213,-24 213,-12 213,-12 213,-6 219,0 225,0 225,0 255,0 255,0 261,0 267,-6 267,-12 267,-12 267,-24 267,-24 267,-30 261,-36 255,-36"/>
<text text-anchor="middle" x="240" y="-13.32" font-family="Helvetica,sans-Serif" font-size="14.00">(...)</text>
</g>
<!-- 7224&#45;&gt;7225 -->
<g id="edge7" class="edge">
<title>7224&#45;&gt;7225</title>
<path fill="none" stroke="black" d="M261.82,-71.75C258.29,-63.22 254.71,-54.57 251.5,-46.8"/>
<polygon fill="black" stroke="black" points="254.74,-45.47 247.68,-37.57 248.27,-48.15 254.74,-45.47"/>
</g>
<!-- 8212 -->
<g id="node9" class="node">
<title>8212</title>
<path fill="#c0c0c0" stroke="black" d="M327,-36C327,-36 297,-36 297,-36 291,-36 285,-30 285,-24 285,-24 285,-12 285,-12 285,-6 291,0 297,0 297,0 327,0 327,0 333,0 339,-6 339,-12 339,-12 339,-24 339,-24 339,-30 333,-36 327,-36"/>
<text text-anchor="middle" x="312" y="-13.32" font-family="Helvetica,sans-Serif" font-size="14.00">(...)</text>
</g>
<!-- 7224&#45;&gt;8212 -->
<g id="edge8" class="edge">
<title>7224&#45;&gt;8212</title>
<path fill="none" stroke="black" d="M295.5,-71.75C298.14,-63.32 300.81,-54.77 303.22,-47.07"/>
<polygon fill="black" stroke="black" points="306.53,-48.21 306.18,-37.62 299.85,-46.12 306.53,-48.21"/>
</g>
<!-- 8226 -->
<g id="node11" class="node">
<title>8226</title>
<path fill="#eda775" stroke="black" d="M522.5,-166.25C522.5,-166.25 389.5,-166.25 389.5,-166.25 383.5,-166.25 377.5,-160.25 377.5,-154.25 377.5,-154.25 377.5,-84 377.5,-84 377.5,-78 383.5,-72 389.5,-72 389.5,-72 522.5,-72 522.5,-72 528.5,-72 534.5,-78 534.5,-84 534.5,-84 534.5,-154.25 534.5,-154.25 534.5,-160.25 528.5,-166.25 522.5,-166.25"/>
<text text-anchor="middle" x="456" y="-148.95" font-family="Helvetica,sans-Serif" font-size="14.00">15_C &lt;= 0.5</text>
<text text-anchor="middle" x="456" y="-131.7" font-family="Helvetica,sans-Serif" font-size="14.00">entropy = 0.782</text>
<text text-anchor="middle" x="456" y="-114.45" font-family="Helvetica,sans-Serif" font-size="14.00">samples = 1287</text>
<text text-anchor="middle" x="456" y="-97.2" font-family="Helvetica,sans-Serif" font-size="14.00">value = [1564, 473]</text>
<text text-anchor="middle" x="456" y="-79.95" font-family="Helvetica,sans-Serif" font-size="14.00">class = Animal</text>
</g>
<!-- 8225&#45;&gt;8226 -->
<g id="edge10" class="edge">
<title>8225&#45;&gt;8226</title>
<path fill="none" stroke="black" d="M510.31,-202.07C504.66,-193.54 498.7,-184.54 492.88,-175.77"/>
<polygon fill="black" stroke="black" points="495.92,-174.02 487.48,-167.62 490.09,-177.89 495.92,-174.02"/>
</g>
<!-- 8841 -->
<g id="node14" class="node">
<title>8841</title>
<path fill="#e89050" stroke="black" d="M697.5,-166.25C697.5,-166.25 564.5,-166.25 564.5,-166.25 558.5,-166.25 552.5,-160.25 552.5,-154.25 552.5,-154.25 552.5,-84 552.5,-84 552.5,-78 558.5,-72 564.5,-72 564.5,-72 697.5,-72 697.5,-72 703.5,-72 709.5,-78 709.5,-84 709.5,-84 709.5,-154.25 709.5,-154.25 709.5,-160.25 703.5,-166.25 697.5,-166.25"/>
<text text-anchor="middle" x="631" y="-148.95" font-family="Helvetica,sans-Serif" font-size="14.00">16_C &lt;= 0.5</text>
<text text-anchor="middle" x="631" y="-131.7" font-family="Helvetica,sans-Serif" font-size="14.00">entropy = 0.486</text>
<text text-anchor="middle" x="631" y="-114.45" font-family="Helvetica,sans-Serif" font-size="14.00">samples = 1287</text>
<text text-anchor="middle" x="631" y="-97.2" font-family="Helvetica,sans-Serif" font-size="14.00">value = [1810, 213]</text>
<text text-anchor="middle" x="631" y="-79.95" font-family="Helvetica,sans-Serif" font-size="14.00">class = Animal</text>
</g>
<!-- 8225&#45;&gt;8841 -->
<g id="edge13" class="edge">
<title>8225&#45;&gt;8841</title>
<path fill="none" stroke="black" d="M573.49,-202.07C579.48,-193.54 585.79,-184.54 591.95,-175.77"/>
<polygon fill="black" stroke="black" points="594.81,-177.79 597.69,-167.6 589.08,-173.77 594.81,-177.79"/>
</g>
<!-- 8227 -->
<g id="node12" class="node">
<title>8227</title>
<path fill="#c0c0c0" stroke="black" d="M414,-36C414,-36 384,-36 384,-36 378,-36 372,-30 372,-24 372,-24 372,-12 372,-12 372,-6 378,0 384,0 384,0 414,0 414,0 420,0 426,-6 426,-12 426,-12 426,-24 426,-24 426,-30 420,-36 414,-36"/>
<text text-anchor="middle" x="399" y="-13.32" font-family="Helvetica,sans-Serif" font-size="14.00">(...)</text>
</g>
<!-- 8226&#45;&gt;8227 -->
<g id="edge11" class="edge">
<title>8226&#45;&gt;8227</title>
<path fill="none" stroke="black" d="M429.34,-71.75C424.26,-62.93 419.1,-53.96 414.52,-45.99"/>
<polygon fill="black" stroke="black" points="417.65,-44.41 409.63,-37.48 411.58,-47.9 417.65,-44.41"/>
</g>
<!-- 8684 -->
<g id="node13" class="node">
<title>8684</title>
<path fill="#c0c0c0" stroke="black" d="M486,-36C486,-36 456,-36 456,-36 450,-36 444,-30 444,-24 444,-24 444,-12 444,-12 444,-6 450,0 456,0 456,0 486,0 486,0 492,0 498,-6 498,-12 498,-12 498,-24 498,-24 498,-30 492,-36 486,-36"/>
<text text-anchor="middle" x="471" y="-13.32" font-family="Helvetica,sans-Serif" font-size="14.00">(...)</text>
</g>
<!-- 8226&#45;&gt;8684 -->
<g id="edge12" class="edge">
<title>8226&#45;&gt;8684</title>
<path fill="none" stroke="black" d="M463.02,-71.75C464.28,-63.42 465.56,-54.97 466.71,-47.34"/>
<polygon fill="black" stroke="black" points="470.14,-48.08 468.17,-37.67 463.22,-47.03 470.14,-48.08"/>
</g>
<!-- 8842 -->
<g id="node15" class="node">
<title>8842</title>
<path fill="#c0c0c0" stroke="black" d="M594,-36C594,-36 564,-36 564,-36 558,-36 552,-30 552,-24 552,-24 552,-12 552,-12 552,-6 558,0 564,0 564,0 594,0 594,0 600,0 606,-6 606,-12 606,-12 606,-24 606,-24 606,-30 600,-36 594,-36"/>
<text text-anchor="middle" x="579" y="-13.32" font-family="Helvetica,sans-Serif" font-size="14.00">(...)</text>
</g>
<!-- 8841&#45;&gt;8842 -->
<g id="edge14" class="edge">
<title>8841&#45;&gt;8842</title>
<path fill="none" stroke="black" d="M606.67,-71.75C602.1,-63.03 597.45,-54.16 593.3,-46.26"/>
<polygon fill="black" stroke="black" points="596.46,-44.74 588.71,-37.51 590.26,-47.99 596.46,-44.74"/>
</g>
<!-- 9133 -->
<g id="node16" class="node">
<title>9133</title>
<path fill="#c0c0c0" stroke="black" d="M666,-36C666,-36 636,-36 636,-36 630,-36 624,-30 624,-24 624,-24 624,-12 624,-12 624,-6 630,0 636,0 636,0 666,0 666,0 672,0 678,-6 678,-12 678,-12 678,-24 678,-24 678,-30 672,-36 666,-36"/>
<text text-anchor="middle" x="651" y="-13.32" font-family="Helvetica,sans-Serif" font-size="14.00">(...)</text>
</g>
<!-- 8841&#45;&gt;9133 -->
<g id="edge15" class="edge">
<title>8841&#45;&gt;9133</title>
<path fill="none" stroke="black" d="M640.36,-71.75C642.04,-63.42 643.74,-54.97 645.28,-47.34"/>
<polygon fill="black" stroke="black" points="648.69,-48.15 647.24,-37.66 641.83,-46.77 648.69,-48.15"/>
</g>
<!-- 9213 -->
<g id="node18" class="node">
<title>9213</title>
<path fill="#b2d9f5" stroke="black" d="M973.5,-296.5C973.5,-296.5 822.5,-296.5 822.5,-296.5 816.5,-296.5 810.5,-290.5 810.5,-284.5 810.5,-284.5 810.5,-214.25 810.5,-214.25 810.5,-208.25 816.5,-202.25 822.5,-202.25 822.5,-202.25 973.5,-202.25 973.5,-202.25 979.5,-202.25 985.5,-208.25 985.5,-214.25 985.5,-214.25 985.5,-284.5 985.5,-284.5 985.5,-290.5 979.5,-296.5 973.5,-296.5"/>
<text text-anchor="middle" x="898" y="-279.2" font-family="Helvetica,sans-Serif" font-size="14.00">23_G &lt;= 0.5</text>
<text text-anchor="middle" x="898" y="-261.95" font-family="Helvetica,sans-Serif" font-size="14.00">entropy = 0.958</text>
<text text-anchor="middle" x="898" y="-244.7" font-family="Helvetica,sans-Serif" font-size="14.00">samples = 16541</text>
<text text-anchor="middle" x="898" y="-227.45" font-family="Helvetica,sans-Serif" font-size="14.00">value = [9945, 16213]</text>
<text text-anchor="middle" x="898" y="-210.2" font-family="Helvetica,sans-Serif" font-size="14.00">class = Plant</text>
</g>
<!-- 9212&#45;&gt;9213 -->
<g id="edge17" class="edge">
<title>9212&#45;&gt;9213</title>
<path fill="none" stroke="black" d="M898,-332.32C898,-324.42 898,-316.13 898,-307.98"/>
<polygon fill="black" stroke="black" points="901.5,-308.12 898,-298.12 894.5,-308.12 901.5,-308.12"/>
</g>
<!-- 15196 -->
<g id="node25" class="node">
<title>15196</title>
<path fill="#f4caac" stroke="black" d="M1241,-296.5C1241,-296.5 1099,-296.5 1099,-296.5 1093,-296.5 1087,-290.5 1087,-284.5 1087,-284.5 1087,-214.25 1087,-214.25 1087,-208.25 1093,-202.25 1099,-202.25 1099,-202.25 1241,-202.25 1241,-202.25 1247,-202.25 1253,-208.25 1253,-214.25 1253,-214.25 1253,-284.5 1253,-284.5 1253,-290.5 1247,-296.5 1241,-296.5"/>
<text text-anchor="middle" x="1170" y="-279.2" font-family="Helvetica,sans-Serif" font-size="14.00">18_C &lt;= 0.5</text>
<text text-anchor="middle" x="1170" y="-261.95" font-family="Helvetica,sans-Serif" font-size="14.00">entropy = 0.949</text>
<text text-anchor="middle" x="1170" y="-244.7" font-family="Helvetica,sans-Serif" font-size="14.00">samples = 3746</text>
<text text-anchor="middle" x="1170" y="-227.45" font-family="Helvetica,sans-Serif" font-size="14.00">value = [3706, 2159]</text>
<text text-anchor="middle" x="1170" y="-210.2" font-family="Helvetica,sans-Serif" font-size="14.00">class = Animal</text>
</g>
<!-- 9212&#45;&gt;15196 -->
<g id="edge24" class="edge">
<title>9212&#45;&gt;15196</title>
<path fill="none" stroke="black" d="M990.47,-335.03C1018.31,-321.9 1048.88,-307.49 1076.77,-294.33"/>
<polygon fill="black" stroke="black" points="1078,-297.63 1085.55,-290.19 1075.01,-291.29 1078,-297.63"/>
</g>
<!-- 9214 -->
<g id="node19" class="node">
<title>9214</title>
<path fill="#aad5f4" stroke="black" d="M890.5,-166.25C890.5,-166.25 739.5,-166.25 739.5,-166.25 733.5,-166.25 727.5,-160.25 727.5,-154.25 727.5,-154.25 727.5,-84 727.5,-84 727.5,-78 733.5,-72 739.5,-72 739.5,-72 890.5,-72 890.5,-72 896.5,-72 902.5,-78 902.5,-84 902.5,-84 902.5,-154.25 902.5,-154.25 902.5,-160.25 896.5,-166.25 890.5,-166.25"/>
<text text-anchor="middle" x="815" y="-148.95" font-family="Helvetica,sans-Serif" font-size="14.00">22_C &lt;= 0.5</text>
<text text-anchor="middle" x="815" y="-131.7" font-family="Helvetica,sans-Serif" font-size="14.00">entropy = 0.946</text>
<text text-anchor="middle" x="815" y="-114.45" font-family="Helvetica,sans-Serif" font-size="14.00">samples = 15948</text>
<text text-anchor="middle" x="815" y="-97.2" font-family="Helvetica,sans-Serif" font-size="14.00">value = [9173, 16014]</text>
<text text-anchor="middle" x="815" y="-79.95" font-family="Helvetica,sans-Serif" font-size="14.00">class = Plant</text>
</g>
<!-- 9213&#45;&gt;9214 -->
<g id="edge18" class="edge">
<title>9213&#45;&gt;9214</title>
<path fill="none" stroke="black" d="M868.04,-202.07C862.51,-193.54 856.69,-184.54 851.01,-175.77"/>
<polygon fill="black" stroke="black" points="854.11,-174.12 845.74,-167.63 848.24,-177.93 854.11,-174.12"/>
</g>
<!-- 14957 -->
<g id="node22" class="node">
<title>14957</title>
<path fill="#eca16c" stroke="black" d="M1057,-166.25C1057,-166.25 933,-166.25 933,-166.25 927,-166.25 921,-160.25 921,-154.25 921,-154.25 921,-84 921,-84 921,-78 927,-72 933,-72 933,-72 1057,-72 1057,-72 1063,-72 1069,-78 1069,-84 1069,-84 1069,-154.25 1069,-154.25 1069,-160.25 1063,-166.25 1057,-166.25"/>
<text text-anchor="middle" x="995" y="-148.95" font-family="Helvetica,sans-Serif" font-size="14.00">8_U &lt;= 0.5</text>
<text text-anchor="middle" x="995" y="-131.7" font-family="Helvetica,sans-Serif" font-size="14.00">entropy = 0.732</text>
<text text-anchor="middle" x="995" y="-114.45" font-family="Helvetica,sans-Serif" font-size="14.00">samples = 593</text>
<text text-anchor="middle" x="995" y="-97.2" font-family="Helvetica,sans-Serif" font-size="14.00">value = [772, 199]</text>
<text text-anchor="middle" x="995" y="-79.95" font-family="Helvetica,sans-Serif" font-size="14.00">class = Animal</text>
</g>
<!-- 9213&#45;&gt;14957 -->
<g id="edge21" class="edge">
<title>9213&#45;&gt;14957</title>
<path fill="none" stroke="black" d="M933.02,-202.07C939.54,-193.45 946.42,-184.35 953.13,-175.49"/>
<polygon fill="black" stroke="black" points="955.88,-177.65 959.12,-167.57 950.3,-173.43 955.88,-177.65"/>
</g>
<!-- 9215 -->
<g id="node20" class="node">
<title>9215</title>
<path fill="#c0c0c0" stroke="black" d="M776,-36C776,-36 746,-36 746,-36 740,-36 734,-30 734,-24 734,-24 734,-12 734,-12 734,-6 740,0 746,0 746,0 776,0 776,0 782,0 788,-6 788,-12 788,-12 788,-24 788,-24 788,-30 782,-36 776,-36"/>
<text text-anchor="middle" x="761" y="-13.32" font-family="Helvetica,sans-Serif" font-size="14.00">(...)</text>
</g>
<!-- 9214&#45;&gt;9215 -->
<g id="edge19" class="edge">
<title>9214&#45;&gt;9215</title>
<path fill="none" stroke="black" d="M789.74,-71.75C784.98,-63.03 780.16,-54.16 775.85,-46.26"/>
<polygon fill="black" stroke="black" points="778.94,-44.61 771.08,-37.5 772.79,-47.96 778.94,-44.61"/>
</g>
<!-- 14272 -->
<g id="node21" class="node">
<title>14272</title>
<path fill="#c0c0c0" stroke="black" d="M848,-36C848,-36 818,-36 818,-36 812,-36 806,-30 806,-24 806,-24 806,-12 806,-12 806,-6 812,0 818,0 818,0 848,0 848,0 854,0 860,-6 860,-12 860,-12 860,-24 860,-24 860,-30 854,-36 848,-36"/>
<text text-anchor="middle" x="833" y="-13.32" font-family="Helvetica,sans-Serif" font-size="14.00">(...)</text>
</g>
<!-- 9214&#45;&gt;14272 -->
<g id="edge20" class="edge">
<title>9214&#45;&gt;14272</title>
<path fill="none" stroke="black" d="M823.42,-71.75C824.93,-63.42 826.47,-54.97 827.85,-47.34"/>
<polygon fill="black" stroke="black" points="831.27,-48.13 829.61,-37.66 824.38,-46.88 831.27,-48.13"/>
</g>
<!-- 14958 -->
<g id="node23" class="node">
<title>14958</title>
<path fill="#c0c0c0" stroke="black" d="M953,-36C953,-36 923,-36 923,-36 917,-36 911,-30 911,-24 911,-24 911,-12 911,-12 911,-6 917,0 923,0 923,0 953,0 953,0 959,0 965,-6 965,-12 965,-12 965,-24 965,-24 965,-30 959,-36 953,-36"/>
<text text-anchor="middle" x="938" y="-13.32" font-family="Helvetica,sans-Serif" font-size="14.00">(...)</text>
</g>
<!-- 14957&#45;&gt;14958 -->
<g id="edge22" class="edge">
<title>14957&#45;&gt;14958</title>
<path fill="none" stroke="black" d="M968.34,-71.75C963.26,-62.93 958.1,-53.96 953.52,-45.99"/>
<polygon fill="black" stroke="black" points="956.65,-44.41 948.63,-37.48 950.58,-47.9 956.65,-44.41"/>
</g>
<!-- 15113 -->
<g id="node24" class="node">
<title>15113</title>
<path fill="#c0c0c0" stroke="black" d="M1025,-36C1025,-36 995,-36 995,-36 989,-36 983,-30 983,-24 983,-24 983,-12 983,-12 983,-6 989,0 995,0 995,0 1025,0 1025,0 1031,0 1037,-6 1037,-12 1037,-12 1037,-24 1037,-24 1037,-30 1031,-36 1025,-36"/>
<text text-anchor="middle" x="1010" y="-13.32" font-family="Helvetica,sans-Serif" font-size="14.00">(...)</text>
</g>
<!-- 14957&#45;&gt;15113 -->
<g id="edge23" class="edge">
<title>14957&#45;&gt;15113</title>
<path fill="none" stroke="black" d="M1002.02,-71.75C1003.28,-63.42 1004.56,-54.97 1005.71,-47.34"/>
<polygon fill="black" stroke="black" points="1009.14,-48.08 1007.17,-37.67 1002.22,-47.03 1009.14,-48.08"/>
</g>
<!-- 15197 -->
<g id="node26" class="node">
<title>15197</title>
<path fill="#efb388" stroke="black" d="M1241,-166.25C1241,-166.25 1099,-166.25 1099,-166.25 1093,-166.25 1087,-160.25 1087,-154.25 1087,-154.25 1087,-84 1087,-84 1087,-78 1093,-72 1099,-72 1099,-72 1241,-72 1241,-72 1247,-72 1253,-78 1253,-84 1253,-84 1253,-154.25 1253,-154.25 1253,-160.25 1247,-166.25 1241,-166.25"/>
<text text-anchor="middle" x="1170" y="-148.95" font-family="Helvetica,sans-Serif" font-size="14.00">6_C &lt;= 0.5</text>
<text text-anchor="middle" x="1170" y="-131.7" font-family="Helvetica,sans-Serif" font-size="14.00">entropy = 0.863</text>
<text text-anchor="middle" x="1170" y="-114.45" font-family="Helvetica,sans-Serif" font-size="14.00">samples = 2703</text>
<text text-anchor="middle" x="1170" y="-97.2" font-family="Helvetica,sans-Serif" font-size="14.00">value = [2996, 1198]</text>
<text text-anchor="middle" x="1170" y="-79.95" font-family="Helvetica,sans-Serif" font-size="14.00">class = Animal</text>
</g>
<!-- 15196&#45;&gt;15197 -->
<g id="edge25" class="edge">
<title>15196&#45;&gt;15197</title>
<path fill="none" stroke="black" d="M1170,-202.07C1170,-194.17 1170,-185.88 1170,-177.73"/>
<polygon fill="black" stroke="black" points="1173.5,-177.87 1170,-167.87 1166.5,-177.87 1173.5,-177.87"/>
</g>
<!-- 16256 -->
<g id="node29" class="node">
<title>16256</title>
<path fill="#cbe5f8" stroke="black" d="M1407,-166.25C1407,-166.25 1283,-166.25 1283,-166.25 1277,-166.25 1271,-160.25 1271,-154.25 1271,-154.25 1271,-84 1271,-84 1271,-78 1277,-72 1283,-72 1283,-72 1407,-72 1407,-72 1413,-72 1419,-78 1419,-84 1419,-84 1419,-154.25 1419,-154.25 1419,-160.25 1413,-166.25 1407,-166.25"/>
<text text-anchor="middle" x="1345" y="-148.95" font-family="Helvetica,sans-Serif" font-size="14.00">13_A &lt;= 0.5</text>
<text text-anchor="middle" x="1345" y="-131.7" font-family="Helvetica,sans-Serif" font-size="14.00">entropy = 0.984</text>
<text text-anchor="middle" x="1345" y="-114.45" font-family="Helvetica,sans-Serif" font-size="14.00">samples = 1043</text>
<text text-anchor="middle" x="1345" y="-97.2" font-family="Helvetica,sans-Serif" font-size="14.00">value = [710, 961]</text>
<text text-anchor="middle" x="1345" y="-79.95" font-family="Helvetica,sans-Serif" font-size="14.00">class = Plant</text>
</g>
<!-- 15196&#45;&gt;16256 -->
<g id="edge28" class="edge">
<title>15196&#45;&gt;16256</title>
<path fill="none" stroke="black" d="M1233.18,-202.07C1245.99,-192.69 1259.55,-182.75 1272.64,-173.15"/>
<polygon fill="black" stroke="black" points="1274.4,-176.2 1280.4,-167.47 1270.26,-170.56 1274.4,-176.2"/>
</g>
<!-- 15198 -->
<g id="node27" class="node">
<title>15198</title>
<path fill="#c0c0c0" stroke="black" d="M1146,-36C1146,-36 1116,-36 1116,-36 1110,-36 1104,-30 1104,-24 1104,-24 1104,-12 1104,-12 1104,-6 1110,0 1116,0 1116,0 1146,0 1146,0 1152,0 1158,-6 1158,-12 1158,-12 1158,-24 1158,-24 1158,-30 1152,-36 1146,-36"/>
<text text-anchor="middle" x="1131" y="-13.32" font-family="Helvetica,sans-Serif" font-size="14.00">(...)</text>
</g>
<!-- 15197&#45;&gt;15198 -->
<g id="edge26" class="edge">
<title>15197&#45;&gt;15198</title>
<path fill="none" stroke="black" d="M1151.76,-71.75C1148.4,-63.22 1144.99,-54.57 1141.94,-46.8"/>
<polygon fill="black" stroke="black" points="1145.23,-45.61 1138.31,-37.58 1138.71,-48.17 1145.23,-45.61"/>
</g>
<!-- 16017 -->
<g id="node28" class="node">
<title>16017</title>
<path fill="#c0c0c0" stroke="black" d="M1218,-36C1218,-36 1188,-36 1188,-36 1182,-36 1176,-30 1176,-24 1176,-24 1176,-12 1176,-12 1176,-6 1182,0 1188,0 1188,0 1218,0 1218,0 1224,0 1230,-6 1230,-12 1230,-12 1230,-24 1230,-24 1230,-30 1224,-36 1218,-36"/>
<text text-anchor="middle" x="1203" y="-13.32" font-family="Helvetica,sans-Serif" font-size="14.00">(...)</text>
</g>
<!-- 15197&#45;&gt;16017 -->
<g id="edge27" class="edge">
<title>15197&#45;&gt;16017</title>
<path fill="none" stroke="black" d="M1185.44,-71.75C1188.24,-63.32 1191.09,-54.77 1193.66,-47.07"/>
<polygon fill="black" stroke="black" points="1196.97,-48.2 1196.8,-37.61 1190.33,-45.99 1196.97,-48.2"/>
</g>
<!-- 16257 -->
<g id="node30" class="node">
<title>16257</title>
<path fill="#c0c0c0" stroke="black" d="M1324,-36C1324,-36 1294,-36 1294,-36 1288,-36 1282,-30 1282,-24 1282,-24 1282,-12 1282,-12 1282,-6 1288,0 1294,0 1294,0 1324,0 1324,0 1330,0 1336,-6 1336,-12 1336,-12 1336,-24 1336,-24 1336,-30 1330,-36 1324,-36"/>
<text text-anchor="middle" x="1309" y="-13.32" font-family="Helvetica,sans-Serif" font-size="14.00">(...)</text>
</g>
<!-- 16256&#45;&gt;16257 -->
<g id="edge29" class="edge">
<title>16256&#45;&gt;16257</title>
<path fill="none" stroke="black" d="M1328.16,-71.75C1325.06,-63.22 1321.92,-54.57 1319.1,-46.8"/>
<polygon fill="black" stroke="black" points="1322.46,-45.8 1315.75,-37.6 1315.88,-48.19 1322.46,-45.8"/>
</g>
<!-- 16436 -->
<g id="node31" class="node">
<title>16436</title>
<path fill="#c0c0c0" stroke="black" d="M1396,-36C1396,-36 1366,-36 1366,-36 1360,-36 1354,-30 1354,-24 1354,-24 1354,-12 1354,-12 1354,-6 1360,0 1366,0 1366,0 1396,0 1396,0 1402,0 1408,-6 1408,-12 1408,-12 1408,-24 1408,-24 1408,-30 1402,-36 1396,-36"/>
<text text-anchor="middle" x="1381" y="-13.32" font-family="Helvetica,sans-Serif" font-size="14.00">(...)</text>
</g>
<!-- 16256&#45;&gt;16436 -->
<g id="edge30" class="edge">
<title>16256&#45;&gt;16436</title>
<path fill="none" stroke="black" d="M1361.84,-71.75C1364.94,-63.22 1368.08,-54.57 1370.9,-46.8"/>
<polygon fill="black" stroke="black" points="1374.12,-48.19 1374.25,-37.6 1367.54,-45.8 1374.12,-48.19"/>
</g>
</g>
</svg>
