<?xml version="1.0" encoding="UTF-8" standalone="no"?>
<!DOCTYPE svg PUBLIC "-//W3C//DTD SVG 1.1//EN"
 "http://www.w3.org/Graphics/SVG/1.1/DTD/svg11.dtd">
<!-- Generated by graphviz version 12.0.0 (20240803.0821)
 -->
<!-- Title: Tree Pages: 1 -->
<svg width="1428pt" height="565pt"
 viewBox="0.00 0.00 1428.00 565.00" xmlns="http://www.w3.org/2000/svg" xmlns:xlink="http://www.w3.org/1999/xlink">
<g id="graph0" class="graph" transform="scale(1 1) rotate(0) translate(4 561)">
<title>Tree</title>
<polygon fill="white" stroke="none" points="-4,4 -4,-561 1424,-561 1424,4 -4,4"/>
<!-- 0 -->
<g id="node1" class="node">
<title>0</title>
<path fill="#ffffff" stroke="black" d="M808,-557C808,-557 648,-557 648,-557 642,-557 636,-551 636,-545 636,-545 636,-474.75 636,-474.75 636,-468.75 642,-462.75 648,-462.75 648,-462.75 808,-462.75 808,-462.75 814,-462.75 820,-468.75 820,-474.75 820,-474.75 820,-545 820,-545 820,-551 814,-557 808,-557"/>
<text text-anchor="middle" x="728" y="-539.7" font-family="Helvetica,sans-Serif" font-size="14.00">22_U &lt;= 0.5</text>
<text text-anchor="middle" x="728" y="-522.45" font-family="Helvetica,sans-Serif" font-size="14.00">entropy = 1.0</text>
<text text-anchor="middle" x="728" y="-505.2" font-family="Helvetica,sans-Serif" font-size="14.00">samples = 38174</text>
<text text-anchor="middle" x="728" y="-487.95" font-family="Helvetica,sans-Serif" font-size="14.00">value = [30175, 30170]</text>
<text text-anchor="middle" x="728" y="-470.7" font-family="Helvetica,sans-Serif" font-size="14.00">class = Animal</text>
</g>
<!-- 1 -->
<g id="node2" class="node">
<title>1</title>
<path fill="#dcedfa" stroke="black" d="M637,-426.75C637,-426.75 477,-426.75 477,-426.75 471,-426.75 465,-420.75 465,-414.75 465,-414.75 465,-344.5 465,-344.5 465,-338.5 471,-332.5 477,-332.5 477,-332.5 637,-332.5 637,-332.5 643,-332.5 649,-338.5 649,-344.5 649,-344.5 649,-414.75 649,-414.75 649,-420.75 643,-426.75 637,-426.75"/>
<text text-anchor="middle" x="557" y="-409.45" font-family="Helvetica,sans-Serif" font-size="14.00">19_C &lt;= 0.5</text>
<text text-anchor="middle" x="557" y="-392.2" font-family="Helvetica,sans-Serif" font-size="14.00">entropy = 0.993</text>
<text text-anchor="middle" x="557" y="-374.95" font-family="Helvetica,sans-Serif" font-size="14.00">samples = 32969</text>
<text text-anchor="middle" x="557" y="-357.7" font-family="Helvetica,sans-Serif" font-size="14.00">value = [23509, 28643]</text>
<text text-anchor="middle" x="557" y="-340.45" font-family="Helvetica,sans-Serif" font-size="14.00">class = Plant</text>
</g>
<!-- 0&#45;&gt;1 -->
<g id="edge1" class="edge">
<title>0&#45;&gt;1</title>
<path fill="none" stroke="black" d="M666.27,-462.57C653.87,-453.28 640.75,-443.44 628.07,-433.93"/>
<polygon fill="black" stroke="black" points="630.24,-431.18 620.14,-427.98 626.04,-436.78 630.24,-431.18"/>
<text text-anchor="middle" x="622.47" y="-447.15" font-family="Helvetica,sans-Serif" font-size="14.00">True</text>
</g>
<!-- 14834 -->
<g id="node17" class="node">
<title>14834</title>
<path fill="#eb9e66" stroke="black" d="M981,-426.75C981,-426.75 839,-426.75 839,-426.75 833,-426.75 827,-420.75 827,-414.75 827,-414.75 827,-344.5 827,-344.5 827,-338.5 833,-332.5 839,-332.5 839,-332.5 981,-332.5 981,-332.5 987,-332.5 993,-338.5 993,-344.5 993,-344.5 993,-414.75 993,-414.75 993,-420.75 987,-426.75 981,-426.75"/>
<text text-anchor="middle" x="910" y="-409.45" font-family="Helvetica,sans-Serif" font-size="14.00">13_G &lt;= 0.5</text>
<text text-anchor="middle" x="910" y="-392.2" font-family="Helvetica,sans-Serif" font-size="14.00">entropy = 0.694</text>
<text text-anchor="middle" x="910" y="-374.95" font-family="Helvetica,sans-Serif" font-size="14.00">samples = 5205</text>
<text text-anchor="middle" x="910" y="-357.7" font-family="Helvetica,sans-Serif" font-size="14.00">value = [6666, 1527]</text>
<text text-anchor="middle" x="910" y="-340.45" font-family="Helvetica,sans-Serif" font-size="14.00">class = Animal</text>
</g>
<!-- 0&#45;&gt;14834 -->
<g id="edge16" class="edge">
<title>0&#45;&gt;14834</title>
<path fill="none" stroke="black" d="M793.96,-462.39C807.19,-453.07 821.18,-443.22 834.69,-433.69"/>
<polygon fill="black" stroke="black" points="836.56,-436.66 842.72,-428.04 832.53,-430.94 836.56,-436.66"/>
<text text-anchor="middle" x="839.69" y="-447.12" font-family="Helvetica,sans-Serif" font-size="14.00">False</text>
</g>
<!-- 2 -->
<g id="node3" class="node">
<title>2</title>
<path fill="#fdf4ed" stroke="black" d="M365,-296.5C365,-296.5 205,-296.5 205,-296.5 199,-296.5 193,-290.5 193,-284.5 193,-284.5 193,-214.25 193,-214.25 193,-208.25 199,-202.25 205,-202.25 205,-202.25 365,-202.25 365,-202.25 371,-202.25 377,-208.25 377,-214.25 377,-214.25 377,-284.5 377,-284.5 377,-290.5 371,-296.5 365,-296.5"/>
<text text-anchor="middle" x="285" y="-279.2" font-family="Helvetica,sans-Serif" font-size="14.00">22_C &lt;= 0.5</text>
<text text-anchor="middle" x="285" y="-261.95" font-family="Helvetica,sans-Serif" font-size="14.00">entropy = 0.998</text>
<text text-anchor="middle" x="285" y="-244.7" font-family="Helvetica,sans-Serif" font-size="14.00">samples = 21944</text>
<text text-anchor="middle" x="285" y="-227.45" font-family="Helvetica,sans-Serif" font-size="14.00">value = [18231, 16576]</text>
<text text-anchor="middle" x="285" y="-210.2" font-family="Helvetica,sans-Serif" font-size="14.00">class = Animal</text>
</g>
<!-- 1&#45;&gt;2 -->
<g id="edge2" class="edge">
<title>1&#45;&gt;2</title>
<path fill="none" stroke="black" d="M464.53,-335.03C439.76,-323.35 412.84,-310.65 387.56,-298.73"/>
<polygon fill="black" stroke="black" points="389.12,-295.6 378.58,-294.5 386.13,-301.93 389.12,-295.6"/>
</g>
<!-- 11257 -->
<g id="node10" class="node">
<title>11257</title>
<path fill="#90c8f0" stroke="black" d="M632.5,-296.5C632.5,-296.5 481.5,-296.5 481.5,-296.5 475.5,-296.5 469.5,-290.5 469.5,-284.5 469.5,-284.5 469.5,-214.25 469.5,-214.25 469.5,-208.25 475.5,-202.25 481.5,-202.25 481.5,-202.25 632.5,-202.25 632.5,-202.25 638.5,-202.25 644.5,-208.25 644.5,-214.25 644.5,-214.25 644.5,-284.5 644.5,-284.5 644.5,-290.5 638.5,-296.5 632.5,-296.5"/>
<text text-anchor="middle" x="557" y="-279.2" font-family="Helvetica,sans-Serif" font-size="14.00">23_C &lt;= 0.5</text>
<text text-anchor="middle" x="557" y="-261.95" font-family="Helvetica,sans-Serif" font-size="14.00">entropy = 0.886</text>
<text text-anchor="middle" x="557" y="-244.7" font-family="Helvetica,sans-Serif" font-size="14.00">samples = 11025</text>
<text text-anchor="middle" x="557" y="-227.45" font-family="Helvetica,sans-Serif" font-size="14.00">value = [5278, 12067]</text>
<text text-anchor="middle" x="557" y="-210.2" font-family="Helvetica,sans-Serif" font-size="14.00">class = Plant</text>
</g>
<!-- 1&#45;&gt;11257 -->
<g id="edge9" class="edge">
<title>1&#45;&gt;11257</title>
<path fill="none" stroke="black" d="M557,-332.32C557,-324.42 557,-316.13 557,-307.98"/>
<polygon fill="black" stroke="black" points="560.5,-308.12 557,-298.12 553.5,-308.12 560.5,-308.12"/>
</g>
<!-- 3 -->
<g id="node4" class="node">
<title>3</title>
<path fill="#fbfdff" stroke="black" d="M172,-166.25C172,-166.25 12,-166.25 12,-166.25 6,-166.25 0,-160.25 0,-154.25 0,-154.25 0,-84 0,-84 0,-78 6,-72 12,-72 12,-72 172,-72 172,-72 178,-72 184,-78 184,-84 184,-84 184,-154.25 184,-154.25 184,-160.25 178,-166.25 172,-166.25"/>
<text text-anchor="middle" x="92" y="-148.95" font-family="Helvetica,sans-Serif" font-size="14.00">21_U &lt;= 0.5</text>
<text text-anchor="middle" x="92" y="-131.7" font-family="Helvetica,sans-Serif" font-size="14.00">entropy = 1.0</text>
<text text-anchor="middle" x="92" y="-114.45" font-family="Helvetica,sans-Serif" font-size="14.00">samples = 19280</text>
<text text-anchor="middle" x="92" y="-97.2" font-family="Helvetica,sans-Serif" font-size="14.00">value = [15140, 15435]</text>
<text text-anchor="middle" x="92" y="-79.95" font-family="Helvetica,sans-Serif" font-size="14.00">class = Plant</text>
</g>
<!-- 2&#45;&gt;3 -->
<g id="edge3" class="edge">
<title>2&#45;&gt;3</title>
<path fill="none" stroke="black" d="M215.05,-201.89C200.89,-192.48 185.9,-182.53 171.45,-172.92"/>
<polygon fill="black" stroke="black" points="173.56,-170.12 163.3,-167.5 169.69,-175.95 173.56,-170.12"/>
</g>
<!-- 9924 -->
<g id="node7" class="node">
<title>9924</title>
<path fill="#efb082" stroke="black" d="M356,-166.25C356,-166.25 214,-166.25 214,-166.25 208,-166.25 202,-160.25 202,-154.25 202,-154.25 202,-84 202,-84 202,-78 208,-72 214,-72 214,-72 356,-72 356,-72 362,-72 368,-78 368,-84 368,-84 368,-154.25 368,-154.25 368,-160.25 362,-166.25 356,-166.25"/>
<text text-anchor="middle" x="285" y="-148.95" font-family="Helvetica,sans-Serif" font-size="14.00">2_C &lt;= 0.5</text>
<text text-anchor="middle" x="285" y="-131.7" font-family="Helvetica,sans-Serif" font-size="14.00">entropy = 0.841</text>
<text text-anchor="middle" x="285" y="-114.45" font-family="Helvetica,sans-Serif" font-size="14.00">samples = 2664</text>
<text text-anchor="middle" x="285" y="-97.2" font-family="Helvetica,sans-Serif" font-size="14.00">value = [3091, 1141]</text>
<text text-anchor="middle" x="285" y="-79.95" font-family="Helvetica,sans-Serif" font-size="14.00">class = Animal</text>
</g>
<!-- 2&#45;&gt;9924 -->
<g id="edge6" class="edge">
<title>2&#45;&gt;9924</title>
<path fill="none" stroke="black" d="M285,-202.07C285,-194.17 285,-185.88 285,-177.73"/>
<polygon fill="black" stroke="black" points="288.5,-177.87 285,-167.87 281.5,-177.87 288.5,-177.87"/>
</g>
<!-- 4 -->
<g id="node5" class="node">
<title>4</title>
<path fill="#c0c0c0" stroke="black" d="M71,-36C71,-36 41,-36 41,-36 35,-36 29,-30 29,-24 29,-24 29,-12 29,-12 29,-6 35,0 41,0 41,0 71,0 71,0 77,0 83,-6 83,-12 83,-12 83,-24 83,-24 83,-30 77,-36 71,-36"/>
<text text-anchor="middle" x="56" y="-13.32" font-family="Helvetica,sans-Serif" font-size="14.00">(...)</text>
</g>
<!-- 3&#45;&gt;4 -->
<g id="edge4" class="edge">
<title>3&#45;&gt;4</title>
<path fill="none" stroke="black" d="M75.16,-71.75C72.06,-63.22 68.92,-54.57 66.1,-46.8"/>
<polygon fill="black" stroke="black" points="69.46,-45.8 62.75,-37.6 62.88,-48.19 69.46,-45.8"/>
</g>
<!-- 7841 -->
<g id="node6" class="node">
<title>7841</title>
<path fill="#c0c0c0" stroke="black" d="M143,-36C143,-36 113,-36 113,-36 107,-36 101,-30 101,-24 101,-24 101,-12 101,-12 101,-6 107,0 113,0 113,0 143,0 143,0 149,0 155,-6 155,-12 155,-12 155,-24 155,-24 155,-30 149,-36 143,-36"/>
<text text-anchor="middle" x="128" y="-13.32" font-family="Helvetica,sans-Serif" font-size="14.00">(...)</text>
</g>
<!-- 3&#45;&gt;7841 -->
<g id="edge5" class="edge">
<title>3&#45;&gt;7841</title>
<path fill="none" stroke="black" d="M108.84,-71.75C111.94,-63.22 115.08,-54.57 117.9,-46.8"/>
<polygon fill="black" stroke="black" points="121.12,-48.19 121.25,-37.6 114.54,-45.8 121.12,-48.19"/>
</g>
<!-- 9925 -->
<g id="node8" class="node">
<title>9925</title>
<path fill="#c0c0c0" stroke="black" d="M269,-36C269,-36 239,-36 239,-36 233,-36 227,-30 227,-24 227,-24 227,-12 227,-12 227,-6 233,0 239,0 239,0 269,0 269,0 275,0 281,-6 281,-12 281,-12 281,-24 281,-24 281,-30 275,-36 269,-36"/>
<text text-anchor="middle" x="254" y="-13.32" font-family="Helvetica,sans-Serif" font-size="14.00">(...)</text>
</g>
<!-- 9924&#45;&gt;9925 -->
<g id="edge7" class="edge">
<title>9924&#45;&gt;9925</title>
<path fill="none" stroke="black" d="M270.5,-71.75C267.86,-63.32 265.19,-54.77 262.78,-47.07"/>
<polygon fill="black" stroke="black" points="266.15,-46.12 259.82,-37.62 259.47,-48.21 266.15,-46.12"/>
</g>
<!-- 10968 -->
<g id="node9" class="node">
<title>10968</title>
<path fill="#c0c0c0" stroke="black" d="M341,-36C341,-36 311,-36 311,-36 305,-36 299,-30 299,-24 299,-24 299,-12 299,-12 299,-6 305,0 311,0 311,0 341,0 341,0 347,0 353,-6 353,-12 353,-12 353,-24 353,-24 353,-30 347,-36 341,-36"/>
<text text-anchor="middle" x="326" y="-13.32" font-family="Helvetica,sans-Serif" font-size="14.00">(...)</text>
</g>
<!-- 9924&#45;&gt;10968 -->
<g id="edge8" class="edge">
<title>9924&#45;&gt;10968</title>
<path fill="none" stroke="black" d="M304.18,-71.75C307.71,-63.22 311.29,-54.57 314.5,-46.8"/>
<polygon fill="black" stroke="black" points="317.73,-48.15 318.32,-37.57 311.26,-45.47 317.73,-48.15"/>
</g>
<!-- 11258 -->
<g id="node11" class="node">
<title>11258</title>
<path fill="#8bc6f0" stroke="black" d="M549.5,-166.25C549.5,-166.25 398.5,-166.25 398.5,-166.25 392.5,-166.25 386.5,-160.25 386.5,-154.25 386.5,-154.25 386.5,-84 386.5,-84 386.5,-78 392.5,-72 398.5,-72 398.5,-72 549.5,-72 549.5,-72 555.5,-72 561.5,-78 561.5,-84 561.5,-84 561.5,-154.25 561.5,-154.25 561.5,-160.25 555.5,-166.25 549.5,-166.25"/>
<text text-anchor="middle" x="474" y="-148.95" font-family="Helvetica,sans-Serif" font-size="14.00">22_G &lt;= 0.5</text>
<text text-anchor="middle" x="474" y="-131.7" font-family="Helvetica,sans-Serif" font-size="14.00">entropy = 0.874</text>
<text text-anchor="middle" x="474" y="-114.45" font-family="Helvetica,sans-Serif" font-size="14.00">samples = 10760</text>
<text text-anchor="middle" x="474" y="-97.2" font-family="Helvetica,sans-Serif" font-size="14.00">value = [4974, 11941]</text>
<text text-anchor="middle" x="474" y="-79.95" font-family="Helvetica,sans-Serif" font-size="14.00">class = Plant</text>
</g>
<!-- 11257&#45;&gt;11258 -->
<g id="edge10" class="edge">
<title>11257&#45;&gt;11258</title>
<path fill="none" stroke="black" d="M527.04,-202.07C521.51,-193.54 515.69,-184.54 510.01,-175.77"/>
<polygon fill="black" stroke="black" points="513.11,-174.12 504.74,-167.63 507.24,-177.93 513.11,-174.12"/>
</g>
<!-- 14693 -->
<g id="node14" class="node">
<title>14693</title>
<path fill="#f0b58b" stroke="black" d="M716,-166.25C716,-166.25 592,-166.25 592,-166.25 586,-166.25 580,-160.25 580,-154.25 580,-154.25 580,-84 580,-84 580,-78 586,-72 592,-72 592,-72 716,-72 716,-72 722,-72 728,-78 728,-84 728,-84 728,-154.25 728,-154.25 728,-160.25 722,-166.25 716,-166.25"/>
<text text-anchor="middle" x="654" y="-148.95" font-family="Helvetica,sans-Serif" font-size="14.00">27_A &lt;= 0.5</text>
<text text-anchor="middle" x="654" y="-131.7" font-family="Helvetica,sans-Serif" font-size="14.00">entropy = 0.873</text>
<text text-anchor="middle" x="654" y="-114.45" font-family="Helvetica,sans-Serif" font-size="14.00">samples = 265</text>
<text text-anchor="middle" x="654" y="-97.2" font-family="Helvetica,sans-Serif" font-size="14.00">value = [304, 126]</text>
<text text-anchor="middle" x="654" y="-79.95" font-family="Helvetica,sans-Serif" font-size="14.00">class = Animal</text>
</g>
<!-- 11257&#45;&gt;14693 -->
<g id="edge13" class="edge">
<title>11257&#45;&gt;14693</title>
<path fill="none" stroke="black" d="M592.02,-202.07C598.54,-193.45 605.42,-184.35 612.13,-175.49"/>
<polygon fill="black" stroke="black" points="614.88,-177.65 618.12,-167.57 609.3,-173.43 614.88,-177.65"/>
</g>
<!-- 11259 -->
<g id="node12" class="node">
<title>11259</title>
<path fill="#c0c0c0" stroke="black" d="M435,-36C435,-36 405,-36 405,-36 399,-36 393,-30 393,-24 393,-24 393,-12 393,-12 393,-6 399,0 405,0 405,0 435,0 435,0 441,0 447,-6 447,-12 447,-12 447,-24 447,-24 447,-30 441,-36 435,-36"/>
<text text-anchor="middle" x="420" y="-13.32" font-family="Helvetica,sans-Serif" font-size="14.00">(...)</text>
</g>
<!-- 11258&#45;&gt;11259 -->
<g id="edge11" class="edge">
<title>11258&#45;&gt;11259</title>
<path fill="none" stroke="black" d="M448.74,-71.75C443.98,-63.03 439.16,-54.16 434.85,-46.26"/>
<polygon fill="black" stroke="black" points="437.94,-44.61 430.08,-37.5 431.79,-47.96 437.94,-44.61"/>
</g>
<!-- 14272 -->
<g id="node13" class="node">
<title>14272</title>
<path fill="#c0c0c0" stroke="black" d="M507,-36C507,-36 477,-36 477,-36 471,-36 465,-30 465,-24 465,-24 465,-12 465,-12 465,-6 471,0 477,0 477,0 507,0 507,0 513,0 519,-6 519,-12 519,-12 519,-24 519,-24 519,-30 513,-36 507,-36"/>
<text text-anchor="middle" x="492" y="-13.32" font-family="Helvetica,sans-Serif" font-size="14.00">(...)</text>
</g>
<!-- 11258&#45;&gt;14272 -->
<g id="edge12" class="edge">
<title>11258&#45;&gt;14272</title>
<path fill="none" stroke="black" d="M482.42,-71.75C483.93,-63.42 485.47,-54.97 486.85,-47.34"/>
<polygon fill="black" stroke="black" points="490.27,-48.13 488.61,-37.66 483.38,-46.88 490.27,-48.13"/>
</g>
<!-- 14694 -->
<g id="node15" class="node">
<title>14694</title>
<path fill="#c0c0c0" stroke="black" d="M610,-36C610,-36 580,-36 580,-36 574,-36 568,-30 568,-24 568,-24 568,-12 568,-12 568,-6 574,0 580,0 580,0 610,0 610,0 616,0 622,-6 622,-12 622,-12 622,-24 622,-24 622,-30 616,-36 610,-36"/>
<text text-anchor="middle" x="595" y="-13.32" font-family="Helvetica,sans-Serif" font-size="14.00">(...)</text>
</g>
<!-- 14693&#45;&gt;14694 -->
<g id="edge14" class="edge">
<title>14693&#45;&gt;14694</title>
<path fill="none" stroke="black" d="M626.4,-71.75C621.15,-62.93 615.81,-53.96 611.06,-45.99"/>
<polygon fill="black" stroke="black" points="614.12,-44.28 606,-37.47 608.1,-47.86 614.12,-44.28"/>
</g>
<!-- 14833 -->
<g id="node16" class="node">
<title>14833</title>
<path fill="#c0c0c0" stroke="black" d="M682,-36C682,-36 652,-36 652,-36 646,-36 640,-30 640,-24 640,-24 640,-12 640,-12 640,-6 646,0 652,0 652,0 682,0 682,0 688,0 694,-6 694,-12 694,-12 694,-24 694,-24 694,-30 688,-36 682,-36"/>
<text text-anchor="middle" x="667" y="-13.32" font-family="Helvetica,sans-Serif" font-size="14.00">(...)</text>
</g>
<!-- 14693&#45;&gt;14833 -->
<g id="edge15" class="edge">
<title>14693&#45;&gt;14833</title>
<path fill="none" stroke="black" d="M660.08,-71.75C661.17,-63.42 662.28,-54.97 663.28,-47.34"/>
<polygon fill="black" stroke="black" points="666.72,-48.04 664.55,-37.67 659.78,-47.13 666.72,-48.04"/>
</g>
<!-- 14835 -->
<g id="node18" class="node">
<title>14835</title>
<path fill="#ea9b61" stroke="black" d="M981,-296.5C981,-296.5 839,-296.5 839,-296.5 833,-296.5 827,-290.5 827,-284.5 827,-284.5 827,-214.25 827,-214.25 827,-208.25 833,-202.25 839,-202.25 839,-202.25 981,-202.25 981,-202.25 987,-202.25 993,-208.25 993,-214.25 993,-214.25 993,-284.5 993,-284.5 993,-290.5 987,-296.5 981,-296.5"/>
<text text-anchor="middle" x="910" y="-279.2" font-family="Helvetica,sans-Serif" font-size="14.00">18_U &lt;= 0.5</text>
<text text-anchor="middle" x="910" y="-261.95" font-family="Helvetica,sans-Serif" font-size="14.00">entropy = 0.655</text>
<text text-anchor="middle" x="910" y="-244.7" font-family="Helvetica,sans-Serif" font-size="14.00">samples = 3835</text>
<text text-anchor="middle" x="910" y="-227.45" font-family="Helvetica,sans-Serif" font-size="14.00">value = [5029, 1020]</text>
<text text-anchor="middle" x="910" y="-210.2" font-family="Helvetica,sans-Serif" font-size="14.00">class = Animal</text>
</g>
<!-- 14834&#45;&gt;14835 -->
<g id="edge17" class="edge">
<title>14834&#45;&gt;14835</title>
<path fill="none" stroke="black" d="M910,-332.32C910,-324.42 910,-316.13 910,-307.98"/>
<polygon fill="black" stroke="black" points="913.5,-308.12 910,-298.12 906.5,-308.12 913.5,-308.12"/>
</g>
<!-- 16266 -->
<g id="node25" class="node">
<title>16266</title>
<path fill="#eda876" stroke="black" d="M1241.5,-296.5C1241.5,-296.5 1108.5,-296.5 1108.5,-296.5 1102.5,-296.5 1096.5,-290.5 1096.5,-284.5 1096.5,-284.5 1096.5,-214.25 1096.5,-214.25 1096.5,-208.25 1102.5,-202.25 1108.5,-202.25 1108.5,-202.25 1241.5,-202.25 1241.5,-202.25 1247.5,-202.25 1253.5,-208.25 1253.5,-214.25 1253.5,-214.25 1253.5,-284.5 1253.5,-284.5 1253.5,-290.5 1247.5,-296.5 1241.5,-296.5"/>
<text text-anchor="middle" x="1175" y="-279.2" font-family="Helvetica,sans-Serif" font-size="14.00">14_C &lt;= 0.5</text>
<text text-anchor="middle" x="1175" y="-261.95" font-family="Helvetica,sans-Serif" font-size="14.00">entropy = 0.789</text>
<text text-anchor="middle" x="1175" y="-244.7" font-family="Helvetica,sans-Serif" font-size="14.00">samples = 1370</text>
<text text-anchor="middle" x="1175" y="-227.45" font-family="Helvetica,sans-Serif" font-size="14.00">value = [1637, 507]</text>
<text text-anchor="middle" x="1175" y="-210.2" font-family="Helvetica,sans-Serif" font-size="14.00">class = Animal</text>
</g>
<!-- 14834&#45;&gt;16266 -->
<g id="edge24" class="edge">
<title>14834&#45;&gt;16266</title>
<path fill="none" stroke="black" d="M993.48,-338.22C1022.93,-323.97 1056.13,-307.91 1086.01,-293.44"/>
<polygon fill="black" stroke="black" points="1087.16,-296.77 1094.64,-289.27 1084.11,-290.47 1087.16,-296.77"/>
</g>
<!-- 14836 -->
<g id="node19" class="node">
<title>14836</title>
<path fill="#eb9f68" stroke="black" d="M891.5,-166.25C891.5,-166.25 758.5,-166.25 758.5,-166.25 752.5,-166.25 746.5,-160.25 746.5,-154.25 746.5,-154.25 746.5,-84 746.5,-84 746.5,-78 752.5,-72 758.5,-72 758.5,-72 891.5,-72 891.5,-72 897.5,-72 903.5,-78 903.5,-84 903.5,-84 903.5,-154.25 903.5,-154.25 903.5,-160.25 897.5,-166.25 891.5,-166.25"/>
<text text-anchor="middle" x="825" y="-148.95" font-family="Helvetica,sans-Serif" font-size="14.00">19_U &lt;= 0.5</text>
<text text-anchor="middle" x="825" y="-131.7" font-family="Helvetica,sans-Serif" font-size="14.00">entropy = 0.707</text>
<text text-anchor="middle" x="825" y="-114.45" font-family="Helvetica,sans-Serif" font-size="14.00">samples = 2543</text>
<text text-anchor="middle" x="825" y="-97.2" font-family="Helvetica,sans-Serif" font-size="14.00">value = [3240, 772]</text>
<text text-anchor="middle" x="825" y="-79.95" font-family="Helvetica,sans-Serif" font-size="14.00">class = Animal</text>
</g>
<!-- 14835&#45;&gt;14836 -->
<g id="edge18" class="edge">
<title>14835&#45;&gt;14836</title>
<path fill="none" stroke="black" d="M879.31,-202.07C873.66,-193.54 867.7,-184.54 861.88,-175.77"/>
<polygon fill="black" stroke="black" points="864.92,-174.02 856.48,-167.62 859.09,-177.89 864.92,-174.02"/>
</g>
<!-- 15853 -->
<g id="node22" class="node">
<title>15853</title>
<path fill="#e99254" stroke="black" d="M1066.5,-166.25C1066.5,-166.25 933.5,-166.25 933.5,-166.25 927.5,-166.25 921.5,-160.25 921.5,-154.25 921.5,-154.25 921.5,-84 921.5,-84 921.5,-78 927.5,-72 933.5,-72 933.5,-72 1066.5,-72 1066.5,-72 1072.5,-72 1078.5,-78 1078.5,-84 1078.5,-84 1078.5,-154.25 1078.5,-154.25 1078.5,-160.25 1072.5,-166.25 1066.5,-166.25"/>
<text text-anchor="middle" x="1000" y="-148.95" font-family="Helvetica,sans-Serif" font-size="14.00">19_C &lt;= 0.5</text>
<text text-anchor="middle" x="1000" y="-131.7" font-family="Helvetica,sans-Serif" font-size="14.00">entropy = 0.534</text>
<text text-anchor="middle" x="1000" y="-114.45" font-family="Helvetica,sans-Serif" font-size="14.00">samples = 1292</text>
<text text-anchor="middle" x="1000" y="-97.2" font-family="Helvetica,sans-Serif" font-size="14.00">value = [1789, 248]</text>
<text text-anchor="middle" x="1000" y="-79.95" font-family="Helvetica,sans-Serif" font-size="14.00">class = Animal</text>
</g>
<!-- 14835&#45;&gt;15853 -->
<g id="edge21" class="edge">
<title>14835&#45;&gt;15853</title>
<path fill="none" stroke="black" d="M942.49,-202.07C948.48,-193.54 954.79,-184.54 960.95,-175.77"/>
<polygon fill="black" stroke="black" points="963.81,-177.79 966.69,-167.6 958.08,-173.77 963.81,-177.79"/>
</g>
<!-- 14837 -->
<g id="node20" class="node">
<title>14837</title>
<path fill="#c0c0c0" stroke="black" d="M783,-36C783,-36 753,-36 753,-36 747,-36 741,-30 741,-24 741,-24 741,-12 741,-12 741,-6 747,0 753,0 753,0 783,0 783,0 789,0 795,-6 795,-12 795,-12 795,-24 795,-24 795,-30 789,-36 783,-36"/>
<text text-anchor="middle" x="768" y="-13.32" font-family="Helvetica,sans-Serif" font-size="14.00">(...)</text>
</g>
<!-- 14836&#45;&gt;14837 -->
<g id="edge19" class="edge">
<title>14836&#45;&gt;14837</title>
<path fill="none" stroke="black" d="M798.34,-71.75C793.26,-62.93 788.1,-53.96 783.52,-45.99"/>
<polygon fill="black" stroke="black" points="786.65,-44.41 778.63,-37.48 780.58,-47.9 786.65,-44.41"/>
</g>
<!-- 15612 -->
<g id="node21" class="node">
<title>15612</title>
<path fill="#c0c0c0" stroke="black" d="M855,-36C855,-36 825,-36 825,-36 819,-36 813,-30 813,-24 813,-24 813,-12 813,-12 813,-6 819,0 825,0 825,0 855,0 855,0 861,0 867,-6 867,-12 867,-12 867,-24 867,-24 867,-30 861,-36 855,-36"/>
<text text-anchor="middle" x="840" y="-13.32" font-family="Helvetica,sans-Serif" font-size="14.00">(...)</text>
</g>
<!-- 14836&#45;&gt;15612 -->
<g id="edge20" class="edge">
<title>14836&#45;&gt;15612</title>
<path fill="none" stroke="black" d="M832.02,-71.75C833.28,-63.42 834.56,-54.97 835.71,-47.34"/>
<polygon fill="black" stroke="black" points="839.14,-48.08 837.17,-37.67 832.22,-47.03 839.14,-48.08"/>
</g>
<!-- 15854 -->
<g id="node23" class="node">
<title>15854</title>
<path fill="#c0c0c0" stroke="black" d="M958,-36C958,-36 928,-36 928,-36 922,-36 916,-30 916,-24 916,-24 916,-12 916,-12 916,-6 922,0 928,0 928,0 958,0 958,0 964,0 970,-6 970,-12 970,-12 970,-24 970,-24 970,-30 964,-36 958,-36"/>
<text text-anchor="middle" x="943" y="-13.32" font-family="Helvetica,sans-Serif" font-size="14.00">(...)</text>
</g>
<!-- 15853&#45;&gt;15854 -->
<g id="edge22" class="edge">
<title>15853&#45;&gt;15854</title>
<path fill="none" stroke="black" d="M973.34,-71.75C968.26,-62.93 963.1,-53.96 958.52,-45.99"/>
<polygon fill="black" stroke="black" points="961.65,-44.41 953.63,-37.48 955.58,-47.9 961.65,-44.41"/>
</g>
<!-- 16163 -->
<g id="node24" class="node">
<title>16163</title>
<path fill="#c0c0c0" stroke="black" d="M1030,-36C1030,-36 1000,-36 1000,-36 994,-36 988,-30 988,-24 988,-24 988,-12 988,-12 988,-6 994,0 1000,0 1000,0 1030,0 1030,0 1036,0 1042,-6 1042,-12 1042,-12 1042,-24 1042,-24 1042,-30 1036,-36 1030,-36"/>
<text text-anchor="middle" x="1015" y="-13.32" font-family="Helvetica,sans-Serif" font-size="14.00">(...)</text>
</g>
<!-- 15853&#45;&gt;16163 -->
<g id="edge23" class="edge">
<title>15853&#45;&gt;16163</title>
<path fill="none" stroke="black" d="M1007.02,-71.75C1008.28,-63.42 1009.56,-54.97 1010.71,-47.34"/>
<polygon fill="black" stroke="black" points="1014.14,-48.08 1012.17,-37.67 1007.22,-47.03 1014.14,-48.08"/>
</g>
<!-- 16267 -->
<g id="node26" class="node">
<title>16267</title>
<path fill="#eca470" stroke="black" d="M1241.5,-166.25C1241.5,-166.25 1108.5,-166.25 1108.5,-166.25 1102.5,-166.25 1096.5,-160.25 1096.5,-154.25 1096.5,-154.25 1096.5,-84 1096.5,-84 1096.5,-78 1102.5,-72 1108.5,-72 1108.5,-72 1241.5,-72 1241.5,-72 1247.5,-72 1253.5,-78 1253.5,-84 1253.5,-84 1253.5,-154.25 1253.5,-154.25 1253.5,-160.25 1247.5,-166.25 1241.5,-166.25"/>
<text text-anchor="middle" x="1175" y="-148.95" font-family="Helvetica,sans-Serif" font-size="14.00">25_U &lt;= 0.5</text>
<text text-anchor="middle" x="1175" y="-131.7" font-family="Helvetica,sans-Serif" font-size="14.00">entropy = 0.754</text>
<text text-anchor="middle" x="1175" y="-114.45" font-family="Helvetica,sans-Serif" font-size="14.00">samples = 1177</text>
<text text-anchor="middle" x="1175" y="-97.2" font-family="Helvetica,sans-Serif" font-size="14.00">value = [1442, 399]</text>
<text text-anchor="middle" x="1175" y="-79.95" font-family="Helvetica,sans-Serif" font-size="14.00">class = Animal</text>
</g>
<!-- 16266&#45;&gt;16267 -->
<g id="edge25" class="edge">
<title>16266&#45;&gt;16267</title>
<path fill="none" stroke="black" d="M1175,-202.07C1175,-194.17 1175,-185.88 1175,-177.73"/>
<polygon fill="black" stroke="black" points="1178.5,-177.87 1175,-167.87 1171.5,-177.87 1178.5,-177.87"/>
</g>
<!-- 16742 -->
<g id="node29" class="node">
<title>16742</title>
<path fill="#f3c7a7" stroke="black" d="M1408,-166.25C1408,-166.25 1284,-166.25 1284,-166.25 1278,-166.25 1272,-160.25 1272,-154.25 1272,-154.25 1272,-84 1272,-84 1272,-78 1278,-72 1284,-72 1284,-72 1408,-72 1408,-72 1414,-72 1420,-78 1420,-84 1420,-84 1420,-154.25 1420,-154.25 1420,-160.25 1414,-166.25 1408,-166.25"/>
<text text-anchor="middle" x="1346" y="-148.95" font-family="Helvetica,sans-Serif" font-size="14.00">7_U &lt;= 0.5</text>
<text text-anchor="middle" x="1346" y="-131.7" font-family="Helvetica,sans-Serif" font-size="14.00">entropy = 0.94</text>
<text text-anchor="middle" x="1346" y="-114.45" font-family="Helvetica,sans-Serif" font-size="14.00">samples = 193</text>
<text text-anchor="middle" x="1346" y="-97.2" font-family="Helvetica,sans-Serif" font-size="14.00">value = [195, 108]</text>
<text text-anchor="middle" x="1346" y="-79.95" font-family="Helvetica,sans-Serif" font-size="14.00">class = Animal</text>
</g>
<!-- 16266&#45;&gt;16742 -->
<g id="edge28" class="edge">
<title>16266&#45;&gt;16742</title>
<path fill="none" stroke="black" d="M1236.73,-202.07C1249.13,-192.78 1262.25,-182.94 1274.93,-173.43"/>
<polygon fill="black" stroke="black" points="1276.96,-176.28 1282.86,-167.48 1272.76,-170.68 1276.96,-176.28"/>
</g>
<!-- 16268 -->
<g id="node27" class="node">
<title>16268</title>
<path fill="#c0c0c0" stroke="black" d="M1149,-36C1149,-36 1119,-36 1119,-36 1113,-36 1107,-30 1107,-24 1107,-24 1107,-12 1107,-12 1107,-6 1113,0 1119,0 1119,0 1149,0 1149,0 1155,0 1161,-6 1161,-12 1161,-12 1161,-24 1161,-24 1161,-30 1155,-36 1149,-36"/>
<text text-anchor="middle" x="1134" y="-13.32" font-family="Helvetica,sans-Serif" font-size="14.00">(...)</text>
</g>
<!-- 16267&#45;&gt;16268 -->
<g id="edge26" class="edge">
<title>16267&#45;&gt;16268</title>
<path fill="none" stroke="black" d="M1155.82,-71.75C1152.29,-63.22 1148.71,-54.57 1145.5,-46.8"/>
<polygon fill="black" stroke="black" points="1148.74,-45.47 1141.68,-37.57 1142.27,-48.15 1148.74,-45.47"/>
</g>
<!-- 16735 -->
<g id="node28" class="node">
<title>16735</title>
<path fill="#c0c0c0" stroke="black" d="M1221,-36C1221,-36 1191,-36 1191,-36 1185,-36 1179,-30 1179,-24 1179,-24 1179,-12 1179,-12 1179,-6 1185,0 1191,0 1191,0 1221,0 1221,0 1227,0 1233,-6 1233,-12 1233,-12 1233,-24 1233,-24 1233,-30 1227,-36 1221,-36"/>
<text text-anchor="middle" x="1206" y="-13.32" font-family="Helvetica,sans-Serif" font-size="14.00">(...)</text>
</g>
<!-- 16267&#45;&gt;16735 -->
<g id="edge27" class="edge">
<title>16267&#45;&gt;16735</title>
<path fill="none" stroke="black" d="M1189.5,-71.75C1192.14,-63.32 1194.81,-54.77 1197.22,-47.07"/>
<polygon fill="black" stroke="black" points="1200.53,-48.21 1200.18,-37.62 1193.85,-46.12 1200.53,-48.21"/>
</g>
<!-- 16743 -->
<g id="node30" class="node">
<title>16743</title>
<path fill="#c0c0c0" stroke="black" d="M1325,-36C1325,-36 1295,-36 1295,-36 1289,-36 1283,-30 1283,-24 1283,-24 1283,-12 1283,-12 1283,-6 1289,0 1295,0 1295,0 1325,0 1325,0 1331,0 1337,-6 1337,-12 1337,-12 1337,-24 1337,-24 1337,-30 1331,-36 1325,-36"/>
<text text-anchor="middle" x="1310" y="-13.32" font-family="Helvetica,sans-Serif" font-size="14.00">(...)</text>
</g>
<!-- 16742&#45;&gt;16743 -->
<g id="edge29" class="edge">
<title>16742&#45;&gt;16743</title>
<path fill="none" stroke="black" d="M1329.16,-71.75C1326.06,-63.22 1322.92,-54.57 1320.1,-46.8"/>
<polygon fill="black" stroke="black" points="1323.46,-45.8 1316.75,-37.6 1316.88,-48.19 1323.46,-45.8"/>
</g>
<!-- 16832 -->
<g id="node31" class="node">
<title>16832</title>
<path fill="#c0c0c0" stroke="black" d="M1397,-36C1397,-36 1367,-36 1367,-36 1361,-36 1355,-30 1355,-24 1355,-24 1355,-12 1355,-12 1355,-6 1361,0 1367,0 1367,0 1397,0 1397,0 1403,0 1409,-6 1409,-12 1409,-12 1409,-24 1409,-24 1409,-30 1403,-36 1397,-36"/>
<text text-anchor="middle" x="1382" y="-13.32" font-family="Helvetica,sans-Serif" font-size="14.00">(...)</text>
</g>
<!-- 16742&#45;&gt;16832 -->
<g id="edge30" class="edge">
<title>16742&#45;&gt;16832</title>
<path fill="none" stroke="black" d="M1362.84,-71.75C1365.94,-63.22 1369.08,-54.57 1371.9,-46.8"/>
<polygon fill="black" stroke="black" points="1375.12,-48.19 1375.25,-37.6 1368.54,-45.8 1375.12,-48.19"/>
</g>
</g>
</svg>
