<?xml version="1.0" encoding="UTF-8" standalone="no"?>
<!DOCTYPE svg PUBLIC "-//W3C//DTD SVG 1.1//EN"
 "http://www.w3.org/Graphics/SVG/1.1/DTD/svg11.dtd">
<!-- Generated by graphviz version 12.0.0 (20240803.0821)
 -->
<!-- Title: Tree Pages: 1 -->
<svg width="1383pt" height="565pt"
 viewBox="0.00 0.00 1382.88 565.00" xmlns="http://www.w3.org/2000/svg" xmlns:xlink="http://www.w3.org/1999/xlink">
<g id="graph0" class="graph" transform="scale(1 1) rotate(0) translate(4 561)">
<title>Tree</title>
<polygon fill="white" stroke="none" points="-4,4 -4,-561 1378.88,-561 1378.88,4 -4,4"/>
<!-- 0 -->
<g id="node1" class="node">
<title>0</title>
<path fill="#ffffff" stroke="black" d="M818.5,-557C818.5,-557 658.5,-557 658.5,-557 652.5,-557 646.5,-551 646.5,-545 646.5,-545 646.5,-474.75 646.5,-474.75 646.5,-468.75 652.5,-462.75 658.5,-462.75 658.5,-462.75 818.5,-462.75 818.5,-462.75 824.5,-462.75 830.5,-468.75 830.5,-474.75 830.5,-474.75 830.5,-545 830.5,-545 830.5,-551 824.5,-557 818.5,-557"/>
<text text-anchor="middle" x="738.5" y="-539.7" font-family="Helvetica,sans-Serif" font-size="14.00">23_U &lt;= 0.5</text>
<text text-anchor="middle" x="738.5" y="-522.45" font-family="Helvetica,sans-Serif" font-size="14.00">entropy = 1.0</text>
<text text-anchor="middle" x="738.5" y="-505.2" font-family="Helvetica,sans-Serif" font-size="14.00">samples = 38178</text>
<text text-anchor="middle" x="738.5" y="-487.95" font-family="Helvetica,sans-Serif" font-size="14.00">value = [30164, 30181]</text>
<text text-anchor="middle" x="738.5" y="-470.7" font-family="Helvetica,sans-Serif" font-size="14.00">class = Plant</text>
</g>
<!-- 1 -->
<g id="node2" class="node">
<title>1</title>
<path fill="#f1f8fd" stroke="black" d="M638.5,-426.75C638.5,-426.75 478.5,-426.75 478.5,-426.75 472.5,-426.75 466.5,-420.75 466.5,-414.75 466.5,-414.75 466.5,-344.5 466.5,-344.5 466.5,-338.5 472.5,-332.5 478.5,-332.5 478.5,-332.5 638.5,-332.5 638.5,-332.5 644.5,-332.5 650.5,-338.5 650.5,-344.5 650.5,-344.5 650.5,-414.75 650.5,-414.75 650.5,-420.75 644.5,-426.75 638.5,-426.75"/>
<text text-anchor="middle" x="558.5" y="-409.45" font-family="Helvetica,sans-Serif" font-size="14.00">2_A &lt;= 0.5</text>
<text text-anchor="middle" x="558.5" y="-392.2" font-family="Helvetica,sans-Serif" font-size="14.00">entropy = 0.999</text>
<text text-anchor="middle" x="558.5" y="-374.95" font-family="Helvetica,sans-Serif" font-size="14.00">samples = 36253</text>
<text text-anchor="middle" x="558.5" y="-357.7" font-family="Helvetica,sans-Serif" font-size="14.00">value = [27622, 29703]</text>
<text text-anchor="middle" x="558.5" y="-340.45" font-family="Helvetica,sans-Serif" font-size="14.00">class = Plant</text>
</g>
<!-- 0&#45;&gt;1 -->
<g id="edge1" class="edge">
<title>0&#45;&gt;1</title>
<path fill="none" stroke="black" d="M673.26,-462.39C660.18,-453.07 646.35,-443.22 632.98,-433.69"/>
<polygon fill="black" stroke="black" points="635.23,-430.99 625.05,-428.04 631.16,-436.7 635.23,-430.99"/>
<text text-anchor="middle" x="627.96" y="-447.14" font-family="Helvetica,sans-Serif" font-size="14.00">True</text>
</g>
<!-- 16274 -->
<g id="node17" class="node">
<title>16274</title>
<path fill="#ea995e" stroke="black" d="M983,-426.75C983,-426.75 850,-426.75 850,-426.75 844,-426.75 838,-420.75 838,-414.75 838,-414.75 838,-344.5 838,-344.5 838,-338.5 844,-332.5 850,-332.5 850,-332.5 983,-332.5 983,-332.5 989,-332.5 995,-338.5 995,-344.5 995,-344.5 995,-414.75 995,-414.75 995,-420.75 989,-426.75 983,-426.75"/>
<text text-anchor="middle" x="916.5" y="-409.45" font-family="Helvetica,sans-Serif" font-size="14.00">25_A &lt;= 0.5</text>
<text text-anchor="middle" x="916.5" y="-392.2" font-family="Helvetica,sans-Serif" font-size="14.00">entropy = 0.63</text>
<text text-anchor="middle" x="916.5" y="-374.95" font-family="Helvetica,sans-Serif" font-size="14.00">samples = 1925</text>
<text text-anchor="middle" x="916.5" y="-357.7" font-family="Helvetica,sans-Serif" font-size="14.00">value = [2542, 478]</text>
<text text-anchor="middle" x="916.5" y="-340.45" font-family="Helvetica,sans-Serif" font-size="14.00">class = Animal</text>
</g>
<!-- 0&#45;&gt;16274 -->
<g id="edge16" class="edge">
<title>0&#45;&gt;16274</title>
<path fill="none" stroke="black" d="M803.01,-462.39C815.95,-453.07 829.63,-443.22 842.85,-433.69"/>
<polygon fill="black" stroke="black" points="844.61,-436.73 850.68,-428.05 840.52,-431.06 844.61,-436.73"/>
<text text-anchor="middle" x="847.9" y="-447.17" font-family="Helvetica,sans-Serif" font-size="14.00">False</text>
</g>
<!-- 2 -->
<g id="node3" class="node">
<title>2</title>
<path fill="#d3e9f9" stroke="black" d="M360.5,-296.5C360.5,-296.5 200.5,-296.5 200.5,-296.5 194.5,-296.5 188.5,-290.5 188.5,-284.5 188.5,-284.5 188.5,-214.25 188.5,-214.25 188.5,-208.25 194.5,-202.25 200.5,-202.25 200.5,-202.25 360.5,-202.25 360.5,-202.25 366.5,-202.25 372.5,-208.25 372.5,-214.25 372.5,-214.25 372.5,-284.5 372.5,-284.5 372.5,-290.5 366.5,-296.5 360.5,-296.5"/>
<text text-anchor="middle" x="280.5" y="-279.2" font-family="Helvetica,sans-Serif" font-size="14.00">1_U &lt;= 0.5</text>
<text text-anchor="middle" x="280.5" y="-261.95" font-family="Helvetica,sans-Serif" font-size="14.00">entropy = 0.989</text>
<text text-anchor="middle" x="280.5" y="-244.7" font-family="Helvetica,sans-Serif" font-size="14.00">samples = 27638</text>
<text text-anchor="middle" x="280.5" y="-227.45" font-family="Helvetica,sans-Serif" font-size="14.00">value = [19119, 24521]</text>
<text text-anchor="middle" x="280.5" y="-210.2" font-family="Helvetica,sans-Serif" font-size="14.00">class = Plant</text>
</g>
<!-- 1&#45;&gt;2 -->
<g id="edge2" class="edge">
<title>1&#45;&gt;2</title>
<path fill="none" stroke="black" d="M466.32,-336.1C439.69,-323.81 410.46,-310.33 383.24,-297.77"/>
<polygon fill="black" stroke="black" points="384.83,-294.65 374.28,-293.64 381.9,-301.01 384.83,-294.65"/>
</g>
<!-- 12379 -->
<g id="node10" class="node">
<title>12379</title>
<path fill="#f5ceb2" stroke="black" d="M629.5,-296.5C629.5,-296.5 487.5,-296.5 487.5,-296.5 481.5,-296.5 475.5,-290.5 475.5,-284.5 475.5,-284.5 475.5,-214.25 475.5,-214.25 475.5,-208.25 481.5,-202.25 487.5,-202.25 487.5,-202.25 629.5,-202.25 629.5,-202.25 635.5,-202.25 641.5,-208.25 641.5,-214.25 641.5,-214.25 641.5,-284.5 641.5,-284.5 641.5,-290.5 635.5,-296.5 629.5,-296.5"/>
<text text-anchor="middle" x="558.5" y="-279.2" font-family="Helvetica,sans-Serif" font-size="14.00">15_U &lt;= 0.5</text>
<text text-anchor="middle" x="558.5" y="-261.95" font-family="Helvetica,sans-Serif" font-size="14.00">entropy = 0.957</text>
<text text-anchor="middle" x="558.5" y="-244.7" font-family="Helvetica,sans-Serif" font-size="14.00">samples = 8615</text>
<text text-anchor="middle" x="558.5" y="-227.45" font-family="Helvetica,sans-Serif" font-size="14.00">value = [8503, 5182]</text>
<text text-anchor="middle" x="558.5" y="-210.2" font-family="Helvetica,sans-Serif" font-size="14.00">class = Animal</text>
</g>
<!-- 1&#45;&gt;12379 -->
<g id="edge9" class="edge">
<title>1&#45;&gt;12379</title>
<path fill="none" stroke="black" d="M558.5,-332.32C558.5,-324.42 558.5,-316.13 558.5,-307.98"/>
<polygon fill="black" stroke="black" points="562,-308.12 558.5,-298.12 555,-308.12 562,-308.12"/>
</g>
<!-- 3 -->
<g id="node4" class="node">
<title>3</title>
<path fill="#fae8db" stroke="black" d="M163,-166.25C163,-166.25 12,-166.25 12,-166.25 6,-166.25 0,-160.25 0,-154.25 0,-154.25 0,-84 0,-84 0,-78 6,-72 12,-72 12,-72 163,-72 163,-72 169,-72 175,-78 175,-84 175,-84 175,-154.25 175,-154.25 175,-160.25 169,-166.25 163,-166.25"/>
<text text-anchor="middle" x="87.5" y="-148.95" font-family="Helvetica,sans-Serif" font-size="14.00">11_U &lt;= 0.5</text>
<text text-anchor="middle" x="87.5" y="-131.7" font-family="Helvetica,sans-Serif" font-size="14.00">entropy = 0.993</text>
<text text-anchor="middle" x="87.5" y="-114.45" font-family="Helvetica,sans-Serif" font-size="14.00">samples = 11780</text>
<text text-anchor="middle" x="87.5" y="-97.2" font-family="Helvetica,sans-Serif" font-size="14.00">value = [10228, 8375]</text>
<text text-anchor="middle" x="87.5" y="-79.95" font-family="Helvetica,sans-Serif" font-size="14.00">class = Animal</text>
</g>
<!-- 2&#45;&gt;3 -->
<g id="edge3" class="edge">
<title>2&#45;&gt;3</title>
<path fill="none" stroke="black" d="M210.55,-201.89C196.39,-192.48 181.4,-182.53 166.95,-172.92"/>
<polygon fill="black" stroke="black" points="169.06,-170.12 158.8,-167.5 165.19,-175.95 169.06,-170.12"/>
</g>
<!-- 6530 -->
<g id="node7" class="node">
<title>6530</title>
<path fill="#a6d3f3" stroke="black" d="M356,-166.25C356,-166.25 205,-166.25 205,-166.25 199,-166.25 193,-160.25 193,-154.25 193,-154.25 193,-84 193,-84 193,-78 199,-72 205,-72 205,-72 356,-72 356,-72 362,-72 368,-78 368,-84 368,-84 368,-154.25 368,-154.25 368,-160.25 362,-166.25 356,-166.25"/>
<text text-anchor="middle" x="280.5" y="-148.95" font-family="Helvetica,sans-Serif" font-size="14.00">20_G &lt;= 0.5</text>
<text text-anchor="middle" x="280.5" y="-131.7" font-family="Helvetica,sans-Serif" font-size="14.00">entropy = 0.939</text>
<text text-anchor="middle" x="280.5" y="-114.45" font-family="Helvetica,sans-Serif" font-size="14.00">samples = 15858</text>
<text text-anchor="middle" x="280.5" y="-97.2" font-family="Helvetica,sans-Serif" font-size="14.00">value = [8891, 16146]</text>
<text text-anchor="middle" x="280.5" y="-79.95" font-family="Helvetica,sans-Serif" font-size="14.00">class = Plant</text>
</g>
<!-- 2&#45;&gt;6530 -->
<g id="edge6" class="edge">
<title>2&#45;&gt;6530</title>
<path fill="none" stroke="black" d="M280.5,-202.07C280.5,-194.17 280.5,-185.88 280.5,-177.73"/>
<polygon fill="black" stroke="black" points="284,-177.87 280.5,-167.87 277,-177.87 284,-177.87"/>
</g>
<!-- 4 -->
<g id="node5" class="node">
<title>4</title>
<path fill="#c0c0c0" stroke="black" d="M66.5,-36C66.5,-36 36.5,-36 36.5,-36 30.5,-36 24.5,-30 24.5,-24 24.5,-24 24.5,-12 24.5,-12 24.5,-6 30.5,0 36.5,0 36.5,0 66.5,0 66.5,0 72.5,0 78.5,-6 78.5,-12 78.5,-12 78.5,-24 78.5,-24 78.5,-30 72.5,-36 66.5,-36"/>
<text text-anchor="middle" x="51.5" y="-13.32" font-family="Helvetica,sans-Serif" font-size="14.00">(...)</text>
</g>
<!-- 3&#45;&gt;4 -->
<g id="edge4" class="edge">
<title>3&#45;&gt;4</title>
<path fill="none" stroke="black" d="M70.66,-71.75C67.56,-63.22 64.42,-54.57 61.6,-46.8"/>
<polygon fill="black" stroke="black" points="64.96,-45.8 58.25,-37.6 58.38,-48.19 64.96,-45.8"/>
</g>
<!-- 4751 -->
<g id="node6" class="node">
<title>4751</title>
<path fill="#c0c0c0" stroke="black" d="M138.5,-36C138.5,-36 108.5,-36 108.5,-36 102.5,-36 96.5,-30 96.5,-24 96.5,-24 96.5,-12 96.5,-12 96.5,-6 102.5,0 108.5,0 108.5,0 138.5,0 138.5,0 144.5,0 150.5,-6 150.5,-12 150.5,-12 150.5,-24 150.5,-24 150.5,-30 144.5,-36 138.5,-36"/>
<text text-anchor="middle" x="123.5" y="-13.32" font-family="Helvetica,sans-Serif" font-size="14.00">(...)</text>
</g>
<!-- 3&#45;&gt;4751 -->
<g id="edge5" class="edge">
<title>3&#45;&gt;4751</title>
<path fill="none" stroke="black" d="M104.34,-71.75C107.44,-63.22 110.58,-54.57 113.4,-46.8"/>
<polygon fill="black" stroke="black" points="116.62,-48.19 116.75,-37.6 110.04,-45.8 116.62,-48.19"/>
</g>
<!-- 6531 -->
<g id="node8" class="node">
<title>6531</title>
<path fill="#c0c0c0" stroke="black" d="M266.5,-36C266.5,-36 236.5,-36 236.5,-36 230.5,-36 224.5,-30 224.5,-24 224.5,-24 224.5,-12 224.5,-12 224.5,-6 230.5,0 236.5,0 236.5,0 266.5,0 266.5,0 272.5,0 278.5,-6 278.5,-12 278.5,-12 278.5,-24 278.5,-24 278.5,-30 272.5,-36 266.5,-36"/>
<text text-anchor="middle" x="251.5" y="-13.32" font-family="Helvetica,sans-Serif" font-size="14.00">(...)</text>
</g>
<!-- 6530&#45;&gt;6531 -->
<g id="edge7" class="edge">
<title>6530&#45;&gt;6531</title>
<path fill="none" stroke="black" d="M266.93,-71.75C264.47,-63.32 261.96,-54.77 259.71,-47.07"/>
<polygon fill="black" stroke="black" points="263.12,-46.24 256.95,-37.63 256.4,-48.21 263.12,-46.24"/>
</g>
<!-- 10860 -->
<g id="node9" class="node">
<title>10860</title>
<path fill="#c0c0c0" stroke="black" d="M338.5,-36C338.5,-36 308.5,-36 308.5,-36 302.5,-36 296.5,-30 296.5,-24 296.5,-24 296.5,-12 296.5,-12 296.5,-6 302.5,0 308.5,0 308.5,0 338.5,0 338.5,0 344.5,0 350.5,-6 350.5,-12 350.5,-12 350.5,-24 350.5,-24 350.5,-30 344.5,-36 338.5,-36"/>
<text text-anchor="middle" x="323.5" y="-13.32" font-family="Helvetica,sans-Serif" font-size="14.00">(...)</text>
</g>
<!-- 6530&#45;&gt;10860 -->
<g id="edge8" class="edge">
<title>6530&#45;&gt;10860</title>
<path fill="none" stroke="black" d="M300.62,-71.75C304.36,-63.12 308.16,-54.36 311.56,-46.53"/>
<polygon fill="black" stroke="black" points="314.68,-48.13 315.45,-37.56 308.26,-45.34 314.68,-48.13"/>
</g>
<!-- 12380 -->
<g id="node11" class="node">
<title>12380</title>
<path fill="#f2be99" stroke="black" d="M540.5,-166.25C540.5,-166.25 398.5,-166.25 398.5,-166.25 392.5,-166.25 386.5,-160.25 386.5,-154.25 386.5,-154.25 386.5,-84 386.5,-84 386.5,-78 392.5,-72 398.5,-72 398.5,-72 540.5,-72 540.5,-72 546.5,-72 552.5,-78 552.5,-84 552.5,-84 552.5,-154.25 552.5,-154.25 552.5,-160.25 546.5,-166.25 540.5,-166.25"/>
<text text-anchor="middle" x="469.5" y="-148.95" font-family="Helvetica,sans-Serif" font-size="14.00">4_C &lt;= 0.5</text>
<text text-anchor="middle" x="469.5" y="-131.7" font-family="Helvetica,sans-Serif" font-size="14.00">entropy = 0.911</text>
<text text-anchor="middle" x="469.5" y="-114.45" font-family="Helvetica,sans-Serif" font-size="14.00">samples = 5561</text>
<text text-anchor="middle" x="469.5" y="-97.2" font-family="Helvetica,sans-Serif" font-size="14.00">value = [5955, 2889]</text>
<text text-anchor="middle" x="469.5" y="-79.95" font-family="Helvetica,sans-Serif" font-size="14.00">class = Animal</text>
</g>
<!-- 12379&#45;&gt;12380 -->
<g id="edge10" class="edge">
<title>12379&#45;&gt;12380</title>
<path fill="none" stroke="black" d="M526.37,-202.07C520.45,-193.54 514.2,-184.54 508.11,-175.77"/>
<polygon fill="black" stroke="black" points="511.02,-173.82 502.45,-167.6 505.27,-177.81 511.02,-173.82"/>
</g>
<!-- 15145 -->
<g id="node14" class="node">
<title>15145</title>
<path fill="#fcf2eb" stroke="black" d="M724.5,-166.25C724.5,-166.25 582.5,-166.25 582.5,-166.25 576.5,-166.25 570.5,-160.25 570.5,-154.25 570.5,-154.25 570.5,-84 570.5,-84 570.5,-78 576.5,-72 582.5,-72 582.5,-72 724.5,-72 724.5,-72 730.5,-72 736.5,-78 736.5,-84 736.5,-84 736.5,-154.25 736.5,-154.25 736.5,-160.25 730.5,-166.25 724.5,-166.25"/>
<text text-anchor="middle" x="653.5" y="-148.95" font-family="Helvetica,sans-Serif" font-size="14.00">13_U &lt;= 0.5</text>
<text text-anchor="middle" x="653.5" y="-131.7" font-family="Helvetica,sans-Serif" font-size="14.00">entropy = 0.998</text>
<text text-anchor="middle" x="653.5" y="-114.45" font-family="Helvetica,sans-Serif" font-size="14.00">samples = 3054</text>
<text text-anchor="middle" x="653.5" y="-97.2" font-family="Helvetica,sans-Serif" font-size="14.00">value = [2548, 2293]</text>
<text text-anchor="middle" x="653.5" y="-79.95" font-family="Helvetica,sans-Serif" font-size="14.00">class = Animal</text>
</g>
<!-- 12379&#45;&gt;15145 -->
<g id="edge13" class="edge">
<title>12379&#45;&gt;15145</title>
<path fill="none" stroke="black" d="M592.8,-202.07C599.19,-193.45 605.92,-184.35 612.49,-175.49"/>
<polygon fill="black" stroke="black" points="615.21,-177.69 618.35,-167.57 609.59,-173.53 615.21,-177.69"/>
</g>
<!-- 12381 -->
<g id="node12" class="node">
<title>12381</title>
<path fill="#c0c0c0" stroke="black" d="M432.5,-36C432.5,-36 402.5,-36 402.5,-36 396.5,-36 390.5,-30 390.5,-24 390.5,-24 390.5,-12 390.5,-12 390.5,-6 396.5,0 402.5,0 402.5,0 432.5,0 432.5,0 438.5,0 444.5,-6 444.5,-12 444.5,-12 444.5,-24 444.5,-24 444.5,-30 438.5,-36 432.5,-36"/>
<text text-anchor="middle" x="417.5" y="-13.32" font-family="Helvetica,sans-Serif" font-size="14.00">(...)</text>
</g>
<!-- 12380&#45;&gt;12381 -->
<g id="edge11" class="edge">
<title>12380&#45;&gt;12381</title>
<path fill="none" stroke="black" d="M445.17,-71.75C440.6,-63.03 435.95,-54.16 431.8,-46.26"/>
<polygon fill="black" stroke="black" points="434.96,-44.74 427.21,-37.51 428.76,-47.99 434.96,-44.74"/>
</g>
<!-- 14528 -->
<g id="node13" class="node">
<title>14528</title>
<path fill="#c0c0c0" stroke="black" d="M504.5,-36C504.5,-36 474.5,-36 474.5,-36 468.5,-36 462.5,-30 462.5,-24 462.5,-24 462.5,-12 462.5,-12 462.5,-6 468.5,0 474.5,0 474.5,0 504.5,0 504.5,0 510.5,0 516.5,-6 516.5,-12 516.5,-12 516.5,-24 516.5,-24 516.5,-30 510.5,-36 504.5,-36"/>
<text text-anchor="middle" x="489.5" y="-13.32" font-family="Helvetica,sans-Serif" font-size="14.00">(...)</text>
</g>
<!-- 12380&#45;&gt;14528 -->
<g id="edge12" class="edge">
<title>12380&#45;&gt;14528</title>
<path fill="none" stroke="black" d="M478.86,-71.75C480.54,-63.42 482.24,-54.97 483.78,-47.34"/>
<polygon fill="black" stroke="black" points="487.19,-48.15 485.74,-37.66 480.33,-46.77 487.19,-48.15"/>
</g>
<!-- 15146 -->
<g id="node15" class="node">
<title>15146</title>
<path fill="#c0c0c0" stroke="black" d="M614.5,-36C614.5,-36 584.5,-36 584.5,-36 578.5,-36 572.5,-30 572.5,-24 572.5,-24 572.5,-12 572.5,-12 572.5,-6 578.5,0 584.5,0 584.5,0 614.5,0 614.5,0 620.5,0 626.5,-6 626.5,-12 626.5,-12 626.5,-24 626.5,-24 626.5,-30 620.5,-36 614.5,-36"/>
<text text-anchor="middle" x="599.5" y="-13.32" font-family="Helvetica,sans-Serif" font-size="14.00">(...)</text>
</g>
<!-- 15145&#45;&gt;15146 -->
<g id="edge14" class="edge">
<title>15145&#45;&gt;15146</title>
<path fill="none" stroke="black" d="M628.24,-71.75C623.48,-63.03 618.66,-54.16 614.35,-46.26"/>
<polygon fill="black" stroke="black" points="617.44,-44.61 609.58,-37.5 611.29,-47.96 617.44,-44.61"/>
</g>
<!-- 15945 -->
<g id="node16" class="node">
<title>15945</title>
<path fill="#c0c0c0" stroke="black" d="M686.5,-36C686.5,-36 656.5,-36 656.5,-36 650.5,-36 644.5,-30 644.5,-24 644.5,-24 644.5,-12 644.5,-12 644.5,-6 650.5,0 656.5,0 656.5,0 686.5,0 686.5,0 692.5,0 698.5,-6 698.5,-12 698.5,-12 698.5,-24 698.5,-24 698.5,-30 692.5,-36 686.5,-36"/>
<text text-anchor="middle" x="671.5" y="-13.32" font-family="Helvetica,sans-Serif" font-size="14.00">(...)</text>
</g>
<!-- 15145&#45;&gt;15945 -->
<g id="edge15" class="edge">
<title>15145&#45;&gt;15945</title>
<path fill="none" stroke="black" d="M661.92,-71.75C663.43,-63.42 664.97,-54.97 666.35,-47.34"/>
<polygon fill="black" stroke="black" points="669.77,-48.13 668.11,-37.66 662.88,-46.88 669.77,-48.13"/>
</g>
<!-- 16275 -->
<g id="node18" class="node">
<title>16275</title>
<path fill="#ea975c" stroke="black" d="M983,-296.5C983,-296.5 850,-296.5 850,-296.5 844,-296.5 838,-290.5 838,-284.5 838,-284.5 838,-214.25 838,-214.25 838,-208.25 844,-202.25 850,-202.25 850,-202.25 983,-202.25 983,-202.25 989,-202.25 995,-208.25 995,-214.25 995,-214.25 995,-284.5 995,-284.5 995,-290.5 989,-296.5 983,-296.5"/>
<text text-anchor="middle" x="916.5" y="-279.2" font-family="Helvetica,sans-Serif" font-size="14.00">20_A &lt;= 0.5</text>
<text text-anchor="middle" x="916.5" y="-261.95" font-family="Helvetica,sans-Serif" font-size="14.00">entropy = 0.607</text>
<text text-anchor="middle" x="916.5" y="-244.7" font-family="Helvetica,sans-Serif" font-size="14.00">samples = 1869</text>
<text text-anchor="middle" x="916.5" y="-227.45" font-family="Helvetica,sans-Serif" font-size="14.00">value = [2481, 434]</text>
<text text-anchor="middle" x="916.5" y="-210.2" font-family="Helvetica,sans-Serif" font-size="14.00">class = Animal</text>
</g>
<!-- 16274&#45;&gt;16275 -->
<g id="edge17" class="edge">
<title>16274&#45;&gt;16275</title>
<path fill="none" stroke="black" d="M916.5,-332.32C916.5,-324.42 916.5,-316.13 916.5,-307.98"/>
<polygon fill="black" stroke="black" points="920,-308.12 916.5,-298.12 913,-308.12 920,-308.12"/>
</g>
<!-- 16958 -->
<g id="node25" class="node">
<title>16958</title>
<path fill="#f8dcc8" stroke="black" d="M1214.88,-296.5C1214.88,-296.5 1108.12,-296.5 1108.12,-296.5 1102.12,-296.5 1096.12,-290.5 1096.12,-284.5 1096.12,-284.5 1096.12,-214.25 1096.12,-214.25 1096.12,-208.25 1102.12,-202.25 1108.12,-202.25 1108.12,-202.25 1214.88,-202.25 1214.88,-202.25 1220.88,-202.25 1226.88,-208.25 1226.88,-214.25 1226.88,-214.25 1226.88,-284.5 1226.88,-284.5 1226.88,-290.5 1220.88,-296.5 1214.88,-296.5"/>
<text text-anchor="middle" x="1161.5" y="-279.2" font-family="Helvetica,sans-Serif" font-size="14.00">11_G &lt;= 0.5</text>
<text text-anchor="middle" x="1161.5" y="-261.95" font-family="Helvetica,sans-Serif" font-size="14.00">entropy = 0.981</text>
<text text-anchor="middle" x="1161.5" y="-244.7" font-family="Helvetica,sans-Serif" font-size="14.00">samples = 56</text>
<text text-anchor="middle" x="1161.5" y="-227.45" font-family="Helvetica,sans-Serif" font-size="14.00">value = [61, 44]</text>
<text text-anchor="middle" x="1161.5" y="-210.2" font-family="Helvetica,sans-Serif" font-size="14.00">class = Animal</text>
</g>
<!-- 16274&#45;&gt;16958 -->
<g id="edge24" class="edge">
<title>16274&#45;&gt;16958</title>
<path fill="none" stroke="black" d="M995.37,-337.34C1024.4,-322.14 1057.19,-304.98 1085.92,-289.94"/>
<polygon fill="black" stroke="black" points="1087.33,-293.15 1094.56,-285.41 1084.08,-286.95 1087.33,-293.15"/>
</g>
<!-- 16276 -->
<g id="node19" class="node">
<title>16276</title>
<path fill="#e99457" stroke="black" d="M900,-166.25C900,-166.25 767,-166.25 767,-166.25 761,-166.25 755,-160.25 755,-154.25 755,-154.25 755,-84 755,-84 755,-78 761,-72 767,-72 767,-72 900,-72 900,-72 906,-72 912,-78 912,-84 912,-84 912,-154.25 912,-154.25 912,-160.25 906,-166.25 900,-166.25"/>
<text text-anchor="middle" x="833.5" y="-148.95" font-family="Helvetica,sans-Serif" font-size="14.00">1_U &lt;= 0.5</text>
<text text-anchor="middle" x="833.5" y="-131.7" font-family="Helvetica,sans-Serif" font-size="14.00">entropy = 0.559</text>
<text text-anchor="middle" x="833.5" y="-114.45" font-family="Helvetica,sans-Serif" font-size="14.00">samples = 1555</text>
<text text-anchor="middle" x="833.5" y="-97.2" font-family="Helvetica,sans-Serif" font-size="14.00">value = [2109, 317]</text>
<text text-anchor="middle" x="833.5" y="-79.95" font-family="Helvetica,sans-Serif" font-size="14.00">class = Animal</text>
</g>
<!-- 16275&#45;&gt;16276 -->
<g id="edge18" class="edge">
<title>16275&#45;&gt;16276</title>
<path fill="none" stroke="black" d="M886.54,-202.07C881.01,-193.54 875.19,-184.54 869.51,-175.77"/>
<polygon fill="black" stroke="black" points="872.61,-174.12 864.24,-167.63 866.74,-177.93 872.61,-174.12"/>
</g>
<!-- 16789 -->
<g id="node22" class="node">
<title>16789</title>
<path fill="#eda977" stroke="black" d="M1066.5,-166.25C1066.5,-166.25 942.5,-166.25 942.5,-166.25 936.5,-166.25 930.5,-160.25 930.5,-154.25 930.5,-154.25 930.5,-84 930.5,-84 930.5,-78 936.5,-72 942.5,-72 942.5,-72 1066.5,-72 1066.5,-72 1072.5,-72 1078.5,-78 1078.5,-84 1078.5,-84 1078.5,-154.25 1078.5,-154.25 1078.5,-160.25 1072.5,-166.25 1066.5,-166.25"/>
<text text-anchor="middle" x="1004.5" y="-148.95" font-family="Helvetica,sans-Serif" font-size="14.00">21_C &lt;= 0.5</text>
<text text-anchor="middle" x="1004.5" y="-131.7" font-family="Helvetica,sans-Serif" font-size="14.00">entropy = 0.794</text>
<text text-anchor="middle" x="1004.5" y="-114.45" font-family="Helvetica,sans-Serif" font-size="14.00">samples = 314</text>
<text text-anchor="middle" x="1004.5" y="-97.2" font-family="Helvetica,sans-Serif" font-size="14.00">value = [372, 117]</text>
<text text-anchor="middle" x="1004.5" y="-79.95" font-family="Helvetica,sans-Serif" font-size="14.00">class = Animal</text>
</g>
<!-- 16275&#45;&gt;16789 -->
<g id="edge21" class="edge">
<title>16275&#45;&gt;16789</title>
<path fill="none" stroke="black" d="M948.27,-202.07C954.13,-193.54 960.3,-184.54 966.32,-175.77"/>
<polygon fill="black" stroke="black" points="969.15,-177.83 971.92,-167.61 963.38,-173.87 969.15,-177.83"/>
</g>
<!-- 16277 -->
<g id="node20" class="node">
<title>16277</title>
<path fill="#c0c0c0" stroke="black" d="M789.5,-36C789.5,-36 759.5,-36 759.5,-36 753.5,-36 747.5,-30 747.5,-24 747.5,-24 747.5,-12 747.5,-12 747.5,-6 753.5,0 759.5,0 759.5,0 789.5,0 789.5,0 795.5,0 801.5,-6 801.5,-12 801.5,-12 801.5,-24 801.5,-24 801.5,-30 795.5,-36 789.5,-36"/>
<text text-anchor="middle" x="774.5" y="-13.32" font-family="Helvetica,sans-Serif" font-size="14.00">(...)</text>
</g>
<!-- 16276&#45;&gt;16277 -->
<g id="edge19" class="edge">
<title>16276&#45;&gt;16277</title>
<path fill="none" stroke="black" d="M805.9,-71.75C800.65,-62.93 795.31,-53.96 790.56,-45.99"/>
<polygon fill="black" stroke="black" points="793.62,-44.28 785.5,-37.47 787.6,-47.86 793.62,-44.28"/>
</g>
<!-- 16598 -->
<g id="node21" class="node">
<title>16598</title>
<path fill="#c0c0c0" stroke="black" d="M861.5,-36C861.5,-36 831.5,-36 831.5,-36 825.5,-36 819.5,-30 819.5,-24 819.5,-24 819.5,-12 819.5,-12 819.5,-6 825.5,0 831.5,0 831.5,0 861.5,0 861.5,0 867.5,0 873.5,-6 873.5,-12 873.5,-12 873.5,-24 873.5,-24 873.5,-30 867.5,-36 861.5,-36"/>
<text text-anchor="middle" x="846.5" y="-13.32" font-family="Helvetica,sans-Serif" font-size="14.00">(...)</text>
</g>
<!-- 16276&#45;&gt;16598 -->
<g id="edge20" class="edge">
<title>16276&#45;&gt;16598</title>
<path fill="none" stroke="black" d="M839.58,-71.75C840.67,-63.42 841.78,-54.97 842.78,-47.34"/>
<polygon fill="black" stroke="black" points="846.22,-48.04 844.05,-37.67 839.28,-47.13 846.22,-48.04"/>
</g>
<!-- 16790 -->
<g id="node23" class="node">
<title>16790</title>
<path fill="#c0c0c0" stroke="black" d="M953.5,-36C953.5,-36 923.5,-36 923.5,-36 917.5,-36 911.5,-30 911.5,-24 911.5,-24 911.5,-12 911.5,-12 911.5,-6 917.5,0 923.5,0 923.5,0 953.5,0 953.5,0 959.5,0 965.5,-6 965.5,-12 965.5,-12 965.5,-24 965.5,-24 965.5,-30 959.5,-36 953.5,-36"/>
<text text-anchor="middle" x="938.5" y="-13.32" font-family="Helvetica,sans-Serif" font-size="14.00">(...)</text>
</g>
<!-- 16789&#45;&gt;16790 -->
<g id="edge22" class="edge">
<title>16789&#45;&gt;16790</title>
<path fill="none" stroke="black" d="M973.63,-71.75C967.68,-62.83 961.64,-53.76 956.29,-45.72"/>
<polygon fill="black" stroke="black" points="959.23,-43.82 950.77,-37.43 953.4,-47.7 959.23,-43.82"/>
</g>
<!-- 16899 -->
<g id="node24" class="node">
<title>16899</title>
<path fill="#c0c0c0" stroke="black" d="M1025.5,-36C1025.5,-36 995.5,-36 995.5,-36 989.5,-36 983.5,-30 983.5,-24 983.5,-24 983.5,-12 983.5,-12 983.5,-6 989.5,0 995.5,0 995.5,0 1025.5,0 1025.5,0 1031.5,0 1037.5,-6 1037.5,-12 1037.5,-12 1037.5,-24 1037.5,-24 1037.5,-30 1031.5,-36 1025.5,-36"/>
<text text-anchor="middle" x="1010.5" y="-13.32" font-family="Helvetica,sans-Serif" font-size="14.00">(...)</text>
</g>
<!-- 16789&#45;&gt;16899 -->
<g id="edge23" class="edge">
<title>16789&#45;&gt;16899</title>
<path fill="none" stroke="black" d="M1007.31,-71.75C1007.81,-63.52 1008.31,-55.17 1008.77,-47.61"/>
<polygon fill="black" stroke="black" points="1012.26,-47.88 1009.37,-37.68 1005.27,-47.45 1012.26,-47.88"/>
</g>
<!-- 16959 -->
<g id="node26" class="node">
<title>16959</title>
<path fill="#fafcfe" stroke="black" d="M1214.5,-166.25C1214.5,-166.25 1108.5,-166.25 1108.5,-166.25 1102.5,-166.25 1096.5,-160.25 1096.5,-154.25 1096.5,-154.25 1096.5,-84 1096.5,-84 1096.5,-78 1102.5,-72 1108.5,-72 1108.5,-72 1214.5,-72 1214.5,-72 1220.5,-72 1226.5,-78 1226.5,-84 1226.5,-84 1226.5,-154.25 1226.5,-154.25 1226.5,-160.25 1220.5,-166.25 1214.5,-166.25"/>
<text text-anchor="middle" x="1161.5" y="-148.95" font-family="Helvetica,sans-Serif" font-size="14.00">1_U &lt;= 0.5</text>
<text text-anchor="middle" x="1161.5" y="-131.7" font-family="Helvetica,sans-Serif" font-size="14.00">entropy = 1.0</text>
<text text-anchor="middle" x="1161.5" y="-114.45" font-family="Helvetica,sans-Serif" font-size="14.00">samples = 44</text>
<text text-anchor="middle" x="1161.5" y="-97.2" font-family="Helvetica,sans-Serif" font-size="14.00">value = [38, 39]</text>
<text text-anchor="middle" x="1161.5" y="-79.95" font-family="Helvetica,sans-Serif" font-size="14.00">class = Plant</text>
</g>
<!-- 16958&#45;&gt;16959 -->
<g id="edge25" class="edge">
<title>16958&#45;&gt;16959</title>
<path fill="none" stroke="black" d="M1161.5,-202.07C1161.5,-194.17 1161.5,-185.88 1161.5,-177.73"/>
<polygon fill="black" stroke="black" points="1165,-177.87 1161.5,-167.87 1158,-177.87 1165,-177.87"/>
</g>
<!-- 16990 -->
<g id="node29" class="node">
<title>16990</title>
<path fill="#eb9c64" stroke="black" d="M1362.88,-166.25C1362.88,-166.25 1256.12,-166.25 1256.12,-166.25 1250.12,-166.25 1244.12,-160.25 1244.12,-154.25 1244.12,-154.25 1244.12,-84 1244.12,-84 1244.12,-78 1250.12,-72 1256.12,-72 1256.12,-72 1362.88,-72 1362.88,-72 1368.88,-72 1374.88,-78 1374.88,-84 1374.88,-84 1374.88,-154.25 1374.88,-154.25 1374.88,-160.25 1368.88,-166.25 1362.88,-166.25"/>
<text text-anchor="middle" x="1309.5" y="-148.95" font-family="Helvetica,sans-Serif" font-size="14.00">7_U &lt;= 0.5</text>
<text text-anchor="middle" x="1309.5" y="-131.7" font-family="Helvetica,sans-Serif" font-size="14.00">entropy = 0.677</text>
<text text-anchor="middle" x="1309.5" y="-114.45" font-family="Helvetica,sans-Serif" font-size="14.00">samples = 12</text>
<text text-anchor="middle" x="1309.5" y="-97.2" font-family="Helvetica,sans-Serif" font-size="14.00">value = [23, 5]</text>
<text text-anchor="middle" x="1309.5" y="-79.95" font-family="Helvetica,sans-Serif" font-size="14.00">class = Animal</text>
</g>
<!-- 16958&#45;&gt;16990 -->
<g id="edge28" class="edge">
<title>16958&#45;&gt;16990</title>
<path fill="none" stroke="black" d="M1214.93,-202.07C1225.52,-192.9 1236.71,-183.2 1247.55,-173.81"/>
<polygon fill="black" stroke="black" points="1249.74,-176.54 1255,-167.35 1245.15,-171.25 1249.74,-176.54"/>
</g>
<!-- 16960 -->
<g id="node27" class="node">
<title>16960</title>
<path fill="#c0c0c0" stroke="black" d="M1124.5,-36C1124.5,-36 1094.5,-36 1094.5,-36 1088.5,-36 1082.5,-30 1082.5,-24 1082.5,-24 1082.5,-12 1082.5,-12 1082.5,-6 1088.5,0 1094.5,0 1094.5,0 1124.5,0 1124.5,0 1130.5,0 1136.5,-6 1136.5,-12 1136.5,-12 1136.5,-24 1136.5,-24 1136.5,-30 1130.5,-36 1124.5,-36"/>
<text text-anchor="middle" x="1109.5" y="-13.32" font-family="Helvetica,sans-Serif" font-size="14.00">(...)</text>
</g>
<!-- 16959&#45;&gt;16960 -->
<g id="edge26" class="edge">
<title>16959&#45;&gt;16960</title>
<path fill="none" stroke="black" d="M1137.17,-71.75C1132.6,-63.03 1127.95,-54.16 1123.8,-46.26"/>
<polygon fill="black" stroke="black" points="1126.96,-44.74 1119.21,-37.51 1120.76,-47.99 1126.96,-44.74"/>
</g>
<!-- 16979 -->
<g id="node28" class="node">
<title>16979</title>
<path fill="#c0c0c0" stroke="black" d="M1196.5,-36C1196.5,-36 1166.5,-36 1166.5,-36 1160.5,-36 1154.5,-30 1154.5,-24 1154.5,-24 1154.5,-12 1154.5,-12 1154.5,-6 1160.5,0 1166.5,0 1166.5,0 1196.5,0 1196.5,0 1202.5,0 1208.5,-6 1208.5,-12 1208.5,-12 1208.5,-24 1208.5,-24 1208.5,-30 1202.5,-36 1196.5,-36"/>
<text text-anchor="middle" x="1181.5" y="-13.32" font-family="Helvetica,sans-Serif" font-size="14.00">(...)</text>
</g>
<!-- 16959&#45;&gt;16979 -->
<g id="edge27" class="edge">
<title>16959&#45;&gt;16979</title>
<path fill="none" stroke="black" d="M1170.86,-71.75C1172.54,-63.42 1174.24,-54.97 1175.78,-47.34"/>
<polygon fill="black" stroke="black" points="1179.19,-48.15 1177.74,-37.66 1172.33,-46.77 1179.19,-48.15"/>
</g>
<!-- 16991 -->
<g id="node30" class="node">
<title>16991</title>
<path fill="#c0c0c0" stroke="black" d="M1288.5,-36C1288.5,-36 1258.5,-36 1258.5,-36 1252.5,-36 1246.5,-30 1246.5,-24 1246.5,-24 1246.5,-12 1246.5,-12 1246.5,-6 1252.5,0 1258.5,0 1258.5,0 1288.5,0 1288.5,0 1294.5,0 1300.5,-6 1300.5,-12 1300.5,-12 1300.5,-24 1300.5,-24 1300.5,-30 1294.5,-36 1288.5,-36"/>
<text text-anchor="middle" x="1273.5" y="-13.32" font-family="Helvetica,sans-Serif" font-size="14.00">(...)</text>
</g>
<!-- 16990&#45;&gt;16991 -->
<g id="edge29" class="edge">
<title>16990&#45;&gt;16991</title>
<path fill="none" stroke="black" d="M1292.66,-71.75C1289.56,-63.22 1286.42,-54.57 1283.6,-46.8"/>
<polygon fill="black" stroke="black" points="1286.96,-45.8 1280.25,-37.6 1280.38,-48.19 1286.96,-45.8"/>
</g>
<!-- 16992 -->
<g id="node31" class="node">
<title>16992</title>
<path fill="#c0c0c0" stroke="black" d="M1360.5,-36C1360.5,-36 1330.5,-36 1330.5,-36 1324.5,-36 1318.5,-30 1318.5,-24 1318.5,-24 1318.5,-12 1318.5,-12 1318.5,-6 1324.5,0 1330.5,0 1330.5,0 1360.5,0 1360.5,0 1366.5,0 1372.5,-6 1372.5,-12 1372.5,-12 1372.5,-24 1372.5,-24 1372.5,-30 1366.5,-36 1360.5,-36"/>
<text text-anchor="middle" x="1345.5" y="-13.32" font-family="Helvetica,sans-Serif" font-size="14.00">(...)</text>
</g>
<!-- 16990&#45;&gt;16992 -->
<g id="edge30" class="edge">
<title>16990&#45;&gt;16992</title>
<path fill="none" stroke="black" d="M1326.34,-71.75C1329.44,-63.22 1332.58,-54.57 1335.4,-46.8"/>
<polygon fill="black" stroke="black" points="1338.62,-48.19 1338.75,-37.6 1332.04,-45.8 1338.62,-48.19"/>
</g>
</g>
</svg>
