<?xml version="1.0" encoding="UTF-8" standalone="no"?>
<!DOCTYPE svg PUBLIC "-//W3C//DTD SVG 1.1//EN"
 "http://www.w3.org/Graphics/SVG/1.1/DTD/svg11.dtd">
<!-- Generated by graphviz version 12.0.0 (20240803.0821)
 -->
<!-- Title: Tree Pages: 1 -->
<svg width="1419pt" height="565pt"
 viewBox="0.00 0.00 1418.50 565.00" xmlns="http://www.w3.org/2000/svg" xmlns:xlink="http://www.w3.org/1999/xlink">
<g id="graph0" class="graph" transform="scale(1 1) rotate(0) translate(4 561)">
<title>Tree</title>
<polygon fill="white" stroke="none" points="-4,4 -4,-561 1414.5,-561 1414.5,4 -4,4"/>
<!-- 0 -->
<g id="node1" class="node">
<title>0</title>
<path fill="#fffefe" stroke="black" d="M805,-557C805,-557 645,-557 645,-557 639,-557 633,-551 633,-545 633,-545 633,-474.75 633,-474.75 633,-468.75 639,-462.75 645,-462.75 645,-462.75 805,-462.75 805,-462.75 811,-462.75 817,-468.75 817,-474.75 817,-474.75 817,-545 817,-545 817,-551 811,-557 805,-557"/>
<text text-anchor="middle" x="725" y="-539.7" font-family="Helvetica,sans-Serif" font-size="14.00">19_C &lt;= 0.5</text>
<text text-anchor="middle" x="725" y="-522.45" font-family="Helvetica,sans-Serif" font-size="14.00">entropy = 1.0</text>
<text text-anchor="middle" x="725" y="-505.2" font-family="Helvetica,sans-Serif" font-size="14.00">samples = 38064</text>
<text text-anchor="middle" x="725" y="-487.95" font-family="Helvetica,sans-Serif" font-size="14.00">value = [30260, 30085]</text>
<text text-anchor="middle" x="725" y="-470.7" font-family="Helvetica,sans-Serif" font-size="14.00">class = Animal</text>
</g>
<!-- 1 -->
<g id="node2" class="node">
<title>1</title>
<path fill="#f9e0ce" stroke="black" d="M623,-426.75C623,-426.75 463,-426.75 463,-426.75 457,-426.75 451,-420.75 451,-414.75 451,-414.75 451,-344.5 451,-344.5 451,-338.5 457,-332.5 463,-332.5 463,-332.5 623,-332.5 623,-332.5 629,-332.5 635,-338.5 635,-344.5 635,-344.5 635,-414.75 635,-414.75 635,-420.75 629,-426.75 623,-426.75"/>
<text text-anchor="middle" x="543" y="-409.45" font-family="Helvetica,sans-Serif" font-size="14.00">1_U &lt;= 0.5</text>
<text text-anchor="middle" x="543" y="-392.2" font-family="Helvetica,sans-Serif" font-size="14.00">entropy = 0.985</text>
<text text-anchor="middle" x="543" y="-374.95" font-family="Helvetica,sans-Serif" font-size="14.00">samples = 25788</text>
<text text-anchor="middle" x="543" y="-357.7" font-family="Helvetica,sans-Serif" font-size="14.00">value = [23270, 17483]</text>
<text text-anchor="middle" x="543" y="-340.45" font-family="Helvetica,sans-Serif" font-size="14.00">class = Animal</text>
</g>
<!-- 0&#45;&gt;1 -->
<g id="edge1" class="edge">
<title>0&#45;&gt;1</title>
<path fill="none" stroke="black" d="M659.04,-462.39C645.81,-453.07 631.82,-443.22 618.31,-433.69"/>
<polygon fill="black" stroke="black" points="620.47,-430.94 610.28,-428.04 616.44,-436.66 620.47,-430.94"/>
<text text-anchor="middle" x="613.31" y="-447.12" font-family="Helvetica,sans-Serif" font-size="14.00">True</text>
</g>
<!-- 12518 -->
<g id="node17" class="node">
<title>12518</title>
<path fill="#a7d3f3" stroke="black" d="M991.5,-426.75C991.5,-426.75 840.5,-426.75 840.5,-426.75 834.5,-426.75 828.5,-420.75 828.5,-414.75 828.5,-414.75 828.5,-344.5 828.5,-344.5 828.5,-338.5 834.5,-332.5 840.5,-332.5 840.5,-332.5 991.5,-332.5 991.5,-332.5 997.5,-332.5 1003.5,-338.5 1003.5,-344.5 1003.5,-344.5 1003.5,-414.75 1003.5,-414.75 1003.5,-420.75 997.5,-426.75 991.5,-426.75"/>
<text text-anchor="middle" x="916" y="-409.45" font-family="Helvetica,sans-Serif" font-size="14.00">22_U &lt;= 0.5</text>
<text text-anchor="middle" x="916" y="-392.2" font-family="Helvetica,sans-Serif" font-size="14.00">entropy = 0.94</text>
<text text-anchor="middle" x="916" y="-374.95" font-family="Helvetica,sans-Serif" font-size="14.00">samples = 12276</text>
<text text-anchor="middle" x="916" y="-357.7" font-family="Helvetica,sans-Serif" font-size="14.00">value = [6990, 12602]</text>
<text text-anchor="middle" x="916" y="-340.45" font-family="Helvetica,sans-Serif" font-size="14.00">class = Plant</text>
</g>
<!-- 0&#45;&gt;12518 -->
<g id="edge16" class="edge">
<title>0&#45;&gt;12518</title>
<path fill="none" stroke="black" d="M794.23,-462.39C808.24,-452.98 823.07,-443.03 837.38,-433.42"/>
<polygon fill="black" stroke="black" points="839.08,-436.49 845.43,-428.01 835.18,-430.68 839.08,-436.49"/>
<text text-anchor="middle" x="841.87" y="-447.02" font-family="Helvetica,sans-Serif" font-size="14.00">False</text>
</g>
<!-- 2 -->
<g id="node3" class="node">
<title>2</title>
<path fill="#f5cdb0" stroke="black" d="M342.5,-296.5C342.5,-296.5 191.5,-296.5 191.5,-296.5 185.5,-296.5 179.5,-290.5 179.5,-284.5 179.5,-284.5 179.5,-214.25 179.5,-214.25 179.5,-208.25 185.5,-202.25 191.5,-202.25 191.5,-202.25 342.5,-202.25 342.5,-202.25 348.5,-202.25 354.5,-208.25 354.5,-214.25 354.5,-214.25 354.5,-284.5 354.5,-284.5 354.5,-290.5 348.5,-296.5 342.5,-296.5"/>
<text text-anchor="middle" x="267" y="-279.2" font-family="Helvetica,sans-Serif" font-size="14.00">5_U &lt;= 0.5</text>
<text text-anchor="middle" x="267" y="-261.95" font-family="Helvetica,sans-Serif" font-size="14.00">entropy = 0.955</text>
<text text-anchor="middle" x="267" y="-244.7" font-family="Helvetica,sans-Serif" font-size="14.00">samples = 12714</text>
<text text-anchor="middle" x="267" y="-227.45" font-family="Helvetica,sans-Serif" font-size="14.00">value = [12578, 7554]</text>
<text text-anchor="middle" x="267" y="-210.2" font-family="Helvetica,sans-Serif" font-size="14.00">class = Animal</text>
</g>
<!-- 1&#45;&gt;2 -->
<g id="edge2" class="edge">
<title>1&#45;&gt;2</title>
<path fill="none" stroke="black" d="M450.71,-335.74C423.22,-322.97 392.99,-308.92 365.14,-295.98"/>
<polygon fill="black" stroke="black" points="366.91,-292.94 356.37,-291.9 363.96,-299.29 366.91,-292.94"/>
</g>
<!-- 6877 -->
<g id="node10" class="node">
<title>6877</title>
<path fill="#fdf6f1" stroke="black" d="M618.5,-296.5C618.5,-296.5 467.5,-296.5 467.5,-296.5 461.5,-296.5 455.5,-290.5 455.5,-284.5 455.5,-284.5 455.5,-214.25 455.5,-214.25 455.5,-208.25 461.5,-202.25 467.5,-202.25 467.5,-202.25 618.5,-202.25 618.5,-202.25 624.5,-202.25 630.5,-208.25 630.5,-214.25 630.5,-214.25 630.5,-284.5 630.5,-284.5 630.5,-290.5 624.5,-296.5 618.5,-296.5"/>
<text text-anchor="middle" x="543" y="-279.2" font-family="Helvetica,sans-Serif" font-size="14.00">11_G &lt;= 0.5</text>
<text text-anchor="middle" x="543" y="-261.95" font-family="Helvetica,sans-Serif" font-size="14.00">entropy = 0.999</text>
<text text-anchor="middle" x="543" y="-244.7" font-family="Helvetica,sans-Serif" font-size="14.00">samples = 13074</text>
<text text-anchor="middle" x="543" y="-227.45" font-family="Helvetica,sans-Serif" font-size="14.00">value = [10692, 9929]</text>
<text text-anchor="middle" x="543" y="-210.2" font-family="Helvetica,sans-Serif" font-size="14.00">class = Animal</text>
</g>
<!-- 1&#45;&gt;6877 -->
<g id="edge9" class="edge">
<title>1&#45;&gt;6877</title>
<path fill="none" stroke="black" d="M543,-332.32C543,-324.42 543,-316.13 543,-307.98"/>
<polygon fill="black" stroke="black" points="546.5,-308.12 543,-298.12 539.5,-308.12 546.5,-308.12"/>
</g>
<!-- 3 -->
<g id="node4" class="node">
<title>3</title>
<path fill="#f3c6a5" stroke="black" d="M154,-166.25C154,-166.25 12,-166.25 12,-166.25 6,-166.25 0,-160.25 0,-154.25 0,-154.25 0,-84 0,-84 0,-78 6,-72 12,-72 12,-72 154,-72 154,-72 160,-72 166,-78 166,-84 166,-84 166,-154.25 166,-154.25 166,-160.25 160,-166.25 154,-166.25"/>
<text text-anchor="middle" x="83" y="-148.95" font-family="Helvetica,sans-Serif" font-size="14.00">20_C &lt;= 0.5</text>
<text text-anchor="middle" x="83" y="-131.7" font-family="Helvetica,sans-Serif" font-size="14.00">entropy = 0.938</text>
<text text-anchor="middle" x="83" y="-114.45" font-family="Helvetica,sans-Serif" font-size="14.00">samples = 9310</text>
<text text-anchor="middle" x="83" y="-97.2" font-family="Helvetica,sans-Serif" font-size="14.00">value = [9488, 5197]</text>
<text text-anchor="middle" x="83" y="-79.95" font-family="Helvetica,sans-Serif" font-size="14.00">class = Animal</text>
</g>
<!-- 2&#45;&gt;3 -->
<g id="edge3" class="edge">
<title>2&#45;&gt;3</title>
<path fill="none" stroke="black" d="M200.31,-201.89C186.94,-192.57 172.8,-182.72 159.14,-173.19"/>
<polygon fill="black" stroke="black" points="161.22,-170.38 151.01,-167.53 157.21,-176.12 161.22,-170.38"/>
</g>
<!-- 5162 -->
<g id="node7" class="node">
<title>5162</title>
<path fill="#f9e1d0" stroke="black" d="M338,-166.25C338,-166.25 196,-166.25 196,-166.25 190,-166.25 184,-160.25 184,-154.25 184,-154.25 184,-84 184,-84 184,-78 190,-72 196,-72 196,-72 338,-72 338,-72 344,-72 350,-78 350,-84 350,-84 350,-154.25 350,-154.25 350,-160.25 344,-166.25 338,-166.25"/>
<text text-anchor="middle" x="267" y="-148.95" font-family="Helvetica,sans-Serif" font-size="14.00">4_C &lt;= 0.5</text>
<text text-anchor="middle" x="267" y="-131.7" font-family="Helvetica,sans-Serif" font-size="14.00">entropy = 0.987</text>
<text text-anchor="middle" x="267" y="-114.45" font-family="Helvetica,sans-Serif" font-size="14.00">samples = 3404</text>
<text text-anchor="middle" x="267" y="-97.2" font-family="Helvetica,sans-Serif" font-size="14.00">value = [3090, 2357]</text>
<text text-anchor="middle" x="267" y="-79.95" font-family="Helvetica,sans-Serif" font-size="14.00">class = Animal</text>
</g>
<!-- 2&#45;&gt;5162 -->
<g id="edge6" class="edge">
<title>2&#45;&gt;5162</title>
<path fill="none" stroke="black" d="M267,-202.07C267,-194.17 267,-185.88 267,-177.73"/>
<polygon fill="black" stroke="black" points="270.5,-177.87 267,-167.87 263.5,-177.87 270.5,-177.87"/>
</g>
<!-- 4 -->
<g id="node5" class="node">
<title>4</title>
<path fill="#c0c0c0" stroke="black" d="M62,-36C62,-36 32,-36 32,-36 26,-36 20,-30 20,-24 20,-24 20,-12 20,-12 20,-6 26,0 32,0 32,0 62,0 62,0 68,0 74,-6 74,-12 74,-12 74,-24 74,-24 74,-30 68,-36 62,-36"/>
<text text-anchor="middle" x="47" y="-13.32" font-family="Helvetica,sans-Serif" font-size="14.00">(...)</text>
</g>
<!-- 3&#45;&gt;4 -->
<g id="edge4" class="edge">
<title>3&#45;&gt;4</title>
<path fill="none" stroke="black" d="M66.16,-71.75C63.06,-63.22 59.92,-54.57 57.1,-46.8"/>
<polygon fill="black" stroke="black" points="60.46,-45.8 53.75,-37.6 53.88,-48.19 60.46,-45.8"/>
</g>
<!-- 3945 -->
<g id="node6" class="node">
<title>3945</title>
<path fill="#c0c0c0" stroke="black" d="M134,-36C134,-36 104,-36 104,-36 98,-36 92,-30 92,-24 92,-24 92,-12 92,-12 92,-6 98,0 104,0 104,0 134,0 134,0 140,0 146,-6 146,-12 146,-12 146,-24 146,-24 146,-30 140,-36 134,-36"/>
<text text-anchor="middle" x="119" y="-13.32" font-family="Helvetica,sans-Serif" font-size="14.00">(...)</text>
</g>
<!-- 3&#45;&gt;3945 -->
<g id="edge5" class="edge">
<title>3&#45;&gt;3945</title>
<path fill="none" stroke="black" d="M99.84,-71.75C102.94,-63.22 106.08,-54.57 108.9,-46.8"/>
<polygon fill="black" stroke="black" points="112.12,-48.19 112.25,-37.6 105.54,-45.8 112.12,-48.19"/>
</g>
<!-- 5163 -->
<g id="node8" class="node">
<title>5163</title>
<path fill="#c0c0c0" stroke="black" d="M250,-36C250,-36 220,-36 220,-36 214,-36 208,-30 208,-24 208,-24 208,-12 208,-12 208,-6 214,0 220,0 220,0 250,0 250,0 256,0 262,-6 262,-12 262,-12 262,-24 262,-24 262,-30 256,-36 250,-36"/>
<text text-anchor="middle" x="235" y="-13.32" font-family="Helvetica,sans-Serif" font-size="14.00">(...)</text>
</g>
<!-- 5162&#45;&gt;5163 -->
<g id="edge7" class="edge">
<title>5162&#45;&gt;5163</title>
<path fill="none" stroke="black" d="M252.03,-71.75C249.31,-63.32 246.55,-54.77 244.06,-47.07"/>
<polygon fill="black" stroke="black" points="247.41,-46.05 241.01,-37.61 240.75,-48.2 247.41,-46.05"/>
</g>
<!-- 6446 -->
<g id="node9" class="node">
<title>6446</title>
<path fill="#c0c0c0" stroke="black" d="M322,-36C322,-36 292,-36 292,-36 286,-36 280,-30 280,-24 280,-24 280,-12 280,-12 280,-6 286,0 292,0 292,0 322,0 322,0 328,0 334,-6 334,-12 334,-12 334,-24 334,-24 334,-30 328,-36 322,-36"/>
<text text-anchor="middle" x="307" y="-13.32" font-family="Helvetica,sans-Serif" font-size="14.00">(...)</text>
</g>
<!-- 5162&#45;&gt;6446 -->
<g id="edge8" class="edge">
<title>5162&#45;&gt;6446</title>
<path fill="none" stroke="black" d="M285.71,-71.75C289.15,-63.22 292.65,-54.57 295.78,-46.8"/>
<polygon fill="black" stroke="black" points="299.01,-48.16 299.5,-37.58 292.52,-45.54 299.01,-48.16"/>
</g>
<!-- 6878 -->
<g id="node11" class="node">
<title>6878</title>
<path fill="#f8dcc8" stroke="black" d="M522,-166.25C522,-166.25 380,-166.25 380,-166.25 374,-166.25 368,-160.25 368,-154.25 368,-154.25 368,-84 368,-84 368,-78 374,-72 380,-72 380,-72 522,-72 522,-72 528,-72 534,-78 534,-84 534,-84 534,-154.25 534,-154.25 534,-160.25 528,-166.25 522,-166.25"/>
<text text-anchor="middle" x="451" y="-148.95" font-family="Helvetica,sans-Serif" font-size="14.00">9_G &lt;= 0.5</text>
<text text-anchor="middle" x="451" y="-131.7" font-family="Helvetica,sans-Serif" font-size="14.00">entropy = 0.981</text>
<text text-anchor="middle" x="451" y="-114.45" font-family="Helvetica,sans-Serif" font-size="14.00">samples = 8912</text>
<text text-anchor="middle" x="451" y="-97.2" font-family="Helvetica,sans-Serif" font-size="14.00">value = [8127, 5881]</text>
<text text-anchor="middle" x="451" y="-79.95" font-family="Helvetica,sans-Serif" font-size="14.00">class = Animal</text>
</g>
<!-- 6877&#45;&gt;6878 -->
<g id="edge10" class="edge">
<title>6877&#45;&gt;6878</title>
<path fill="none" stroke="black" d="M509.79,-202.07C503.6,-193.45 497.07,-184.35 490.71,-175.49"/>
<polygon fill="black" stroke="black" points="493.72,-173.67 485.05,-167.59 488.03,-177.75 493.72,-173.67"/>
</g>
<!-- 10989 -->
<g id="node14" class="node">
<title>10989</title>
<path fill="#b6dbf5" stroke="black" d="M706,-166.25C706,-166.25 564,-166.25 564,-166.25 558,-166.25 552,-160.25 552,-154.25 552,-154.25 552,-84 552,-84 552,-78 558,-72 564,-72 564,-72 706,-72 706,-72 712,-72 718,-78 718,-84 718,-84 718,-154.25 718,-154.25 718,-160.25 712,-166.25 706,-166.25"/>
<text text-anchor="middle" x="635" y="-148.95" font-family="Helvetica,sans-Serif" font-size="14.00">13_U &lt;= 0.5</text>
<text text-anchor="middle" x="635" y="-131.7" font-family="Helvetica,sans-Serif" font-size="14.00">entropy = 0.963</text>
<text text-anchor="middle" x="635" y="-114.45" font-family="Helvetica,sans-Serif" font-size="14.00">samples = 4162</text>
<text text-anchor="middle" x="635" y="-97.2" font-family="Helvetica,sans-Serif" font-size="14.00">value = [2565, 4048]</text>
<text text-anchor="middle" x="635" y="-79.95" font-family="Helvetica,sans-Serif" font-size="14.00">class = Plant</text>
</g>
<!-- 6877&#45;&gt;10989 -->
<g id="edge13" class="edge">
<title>6877&#45;&gt;10989</title>
<path fill="none" stroke="black" d="M576.21,-202.07C582.4,-193.45 588.93,-184.35 595.29,-175.49"/>
<polygon fill="black" stroke="black" points="597.97,-177.75 600.95,-167.59 592.28,-173.67 597.97,-177.75"/>
</g>
<!-- 6879 -->
<g id="node12" class="node">
<title>6879</title>
<path fill="#c0c0c0" stroke="black" d="M414,-36C414,-36 384,-36 384,-36 378,-36 372,-30 372,-24 372,-24 372,-12 372,-12 372,-6 378,0 384,0 384,0 414,0 414,0 420,0 426,-6 426,-12 426,-12 426,-24 426,-24 426,-30 420,-36 414,-36"/>
<text text-anchor="middle" x="399" y="-13.32" font-family="Helvetica,sans-Serif" font-size="14.00">(...)</text>
</g>
<!-- 6878&#45;&gt;6879 -->
<g id="edge11" class="edge">
<title>6878&#45;&gt;6879</title>
<path fill="none" stroke="black" d="M426.67,-71.75C422.1,-63.03 417.45,-54.16 413.3,-46.26"/>
<polygon fill="black" stroke="black" points="416.46,-44.74 408.71,-37.51 410.26,-47.99 416.46,-44.74"/>
</g>
<!-- 9844 -->
<g id="node13" class="node">
<title>9844</title>
<path fill="#c0c0c0" stroke="black" d="M486,-36C486,-36 456,-36 456,-36 450,-36 444,-30 444,-24 444,-24 444,-12 444,-12 444,-6 450,0 456,0 456,0 486,0 486,0 492,0 498,-6 498,-12 498,-12 498,-24 498,-24 498,-30 492,-36 486,-36"/>
<text text-anchor="middle" x="471" y="-13.32" font-family="Helvetica,sans-Serif" font-size="14.00">(...)</text>
</g>
<!-- 6878&#45;&gt;9844 -->
<g id="edge12" class="edge">
<title>6878&#45;&gt;9844</title>
<path fill="none" stroke="black" d="M460.36,-71.75C462.04,-63.42 463.74,-54.97 465.28,-47.34"/>
<polygon fill="black" stroke="black" points="468.69,-48.15 467.24,-37.66 461.83,-46.77 468.69,-48.15"/>
</g>
<!-- 10990 -->
<g id="node15" class="node">
<title>10990</title>
<path fill="#c0c0c0" stroke="black" d="M600,-36C600,-36 570,-36 570,-36 564,-36 558,-30 558,-24 558,-24 558,-12 558,-12 558,-6 564,0 570,0 570,0 600,0 600,0 606,0 612,-6 612,-12 612,-12 612,-24 612,-24 612,-30 606,-36 600,-36"/>
<text text-anchor="middle" x="585" y="-13.32" font-family="Helvetica,sans-Serif" font-size="14.00">(...)</text>
</g>
<!-- 10989&#45;&gt;10990 -->
<g id="edge14" class="edge">
<title>10989&#45;&gt;10990</title>
<path fill="none" stroke="black" d="M611.61,-71.75C607.21,-63.03 602.74,-54.16 598.75,-46.26"/>
<polygon fill="black" stroke="black" points="601.97,-44.88 594.34,-37.52 595.72,-48.03 601.97,-44.88"/>
</g>
<!-- 12101 -->
<g id="node16" class="node">
<title>12101</title>
<path fill="#c0c0c0" stroke="black" d="M672,-36C672,-36 642,-36 642,-36 636,-36 630,-30 630,-24 630,-24 630,-12 630,-12 630,-6 636,0 642,0 642,0 672,0 672,0 678,0 684,-6 684,-12 684,-12 684,-24 684,-24 684,-30 678,-36 672,-36"/>
<text text-anchor="middle" x="657" y="-13.32" font-family="Helvetica,sans-Serif" font-size="14.00">(...)</text>
</g>
<!-- 10989&#45;&gt;12101 -->
<g id="edge15" class="edge">
<title>10989&#45;&gt;12101</title>
<path fill="none" stroke="black" d="M645.29,-71.75C647.14,-63.42 649.02,-54.97 650.71,-47.34"/>
<polygon fill="black" stroke="black" points="654.11,-48.17 652.86,-37.65 647.28,-46.65 654.11,-48.17"/>
</g>
<!-- 12519 -->
<g id="node18" class="node">
<title>12519</title>
<path fill="#90c8f0" stroke="black" d="M991.5,-296.5C991.5,-296.5 840.5,-296.5 840.5,-296.5 834.5,-296.5 828.5,-290.5 828.5,-284.5 828.5,-284.5 828.5,-214.25 828.5,-214.25 828.5,-208.25 834.5,-202.25 840.5,-202.25 840.5,-202.25 991.5,-202.25 991.5,-202.25 997.5,-202.25 1003.5,-208.25 1003.5,-214.25 1003.5,-214.25 1003.5,-284.5 1003.5,-284.5 1003.5,-290.5 997.5,-296.5 991.5,-296.5"/>
<text text-anchor="middle" x="916" y="-279.2" font-family="Helvetica,sans-Serif" font-size="14.00">15_C &lt;= 0.5</text>
<text text-anchor="middle" x="916" y="-261.95" font-family="Helvetica,sans-Serif" font-size="14.00">entropy = 0.888</text>
<text text-anchor="middle" x="916" y="-244.7" font-family="Helvetica,sans-Serif" font-size="14.00">samples = 11013</text>
<text text-anchor="middle" x="916" y="-227.45" font-family="Helvetica,sans-Serif" font-size="14.00">value = [5362, 12179]</text>
<text text-anchor="middle" x="916" y="-210.2" font-family="Helvetica,sans-Serif" font-size="14.00">class = Plant</text>
</g>
<!-- 12518&#45;&gt;12519 -->
<g id="edge17" class="edge">
<title>12518&#45;&gt;12519</title>
<path fill="none" stroke="black" d="M916,-332.32C916,-324.42 916,-316.13 916,-307.98"/>
<polygon fill="black" stroke="black" points="919.5,-308.12 916,-298.12 912.5,-308.12 919.5,-308.12"/>
</g>
<!-- 16110 -->
<g id="node25" class="node">
<title>16110</title>
<path fill="#eca26c" stroke="black" d="M1259.5,-296.5C1259.5,-296.5 1126.5,-296.5 1126.5,-296.5 1120.5,-296.5 1114.5,-290.5 1114.5,-284.5 1114.5,-284.5 1114.5,-214.25 1114.5,-214.25 1114.5,-208.25 1120.5,-202.25 1126.5,-202.25 1126.5,-202.25 1259.5,-202.25 1259.5,-202.25 1265.5,-202.25 1271.5,-208.25 1271.5,-214.25 1271.5,-214.25 1271.5,-284.5 1271.5,-284.5 1271.5,-290.5 1265.5,-296.5 1259.5,-296.5"/>
<text text-anchor="middle" x="1193" y="-279.2" font-family="Helvetica,sans-Serif" font-size="14.00">28_U &lt;= 0.5</text>
<text text-anchor="middle" x="1193" y="-261.95" font-family="Helvetica,sans-Serif" font-size="14.00">entropy = 0.734</text>
<text text-anchor="middle" x="1193" y="-244.7" font-family="Helvetica,sans-Serif" font-size="14.00">samples = 1263</text>
<text text-anchor="middle" x="1193" y="-227.45" font-family="Helvetica,sans-Serif" font-size="14.00">value = [1628, 423]</text>
<text text-anchor="middle" x="1193" y="-210.2" font-family="Helvetica,sans-Serif" font-size="14.00">class = Animal</text>
</g>
<!-- 12518&#45;&gt;16110 -->
<g id="edge24" class="edge">
<title>12518&#45;&gt;16110</title>
<path fill="none" stroke="black" d="M1003.64,-338.05C1035.68,-323.21 1071.93,-306.43 1104.08,-291.54"/>
<polygon fill="black" stroke="black" points="1105.39,-294.8 1112.99,-287.42 1102.45,-288.44 1105.39,-294.8"/>
</g>
<!-- 12520 -->
<g id="node19" class="node">
<title>12520</title>
<path fill="#81c1ee" stroke="black" d="M899.5,-166.25C899.5,-166.25 748.5,-166.25 748.5,-166.25 742.5,-166.25 736.5,-160.25 736.5,-154.25 736.5,-154.25 736.5,-84 736.5,-84 736.5,-78 742.5,-72 748.5,-72 748.5,-72 899.5,-72 899.5,-72 905.5,-72 911.5,-78 911.5,-84 911.5,-84 911.5,-154.25 911.5,-154.25 911.5,-160.25 905.5,-166.25 899.5,-166.25"/>
<text text-anchor="middle" x="824" y="-148.95" font-family="Helvetica,sans-Serif" font-size="14.00">5_U &lt;= 0.5</text>
<text text-anchor="middle" x="824" y="-131.7" font-family="Helvetica,sans-Serif" font-size="14.00">entropy = 0.836</text>
<text text-anchor="middle" x="824" y="-114.45" font-family="Helvetica,sans-Serif" font-size="14.00">samples = 9216</text>
<text text-anchor="middle" x="824" y="-97.2" font-family="Helvetica,sans-Serif" font-size="14.00">value = [3912, 10772]</text>
<text text-anchor="middle" x="824" y="-79.95" font-family="Helvetica,sans-Serif" font-size="14.00">class = Plant</text>
</g>
<!-- 12519&#45;&gt;12520 -->
<g id="edge18" class="edge">
<title>12519&#45;&gt;12520</title>
<path fill="none" stroke="black" d="M882.79,-202.07C876.6,-193.45 870.07,-184.35 863.71,-175.49"/>
<polygon fill="black" stroke="black" points="866.72,-173.67 858.05,-167.59 861.03,-177.75 866.72,-173.67"/>
</g>
<!-- 15273 -->
<g id="node22" class="node">
<title>15273</title>
<path fill="#fefbf9" stroke="black" d="M1084,-166.25C1084,-166.25 942,-166.25 942,-166.25 936,-166.25 930,-160.25 930,-154.25 930,-154.25 930,-84 930,-84 930,-78 936,-72 942,-72 942,-72 1084,-72 1084,-72 1090,-72 1096,-78 1096,-84 1096,-84 1096,-154.25 1096,-154.25 1096,-160.25 1090,-166.25 1084,-166.25"/>
<text text-anchor="middle" x="1013" y="-148.95" font-family="Helvetica,sans-Serif" font-size="14.00">7_A &lt;= 0.5</text>
<text text-anchor="middle" x="1013" y="-131.7" font-family="Helvetica,sans-Serif" font-size="14.00">entropy = 1.0</text>
<text text-anchor="middle" x="1013" y="-114.45" font-family="Helvetica,sans-Serif" font-size="14.00">samples = 1797</text>
<text text-anchor="middle" x="1013" y="-97.2" font-family="Helvetica,sans-Serif" font-size="14.00">value = [1450, 1407]</text>
<text text-anchor="middle" x="1013" y="-79.95" font-family="Helvetica,sans-Serif" font-size="14.00">class = Animal</text>
</g>
<!-- 12519&#45;&gt;15273 -->
<g id="edge21" class="edge">
<title>12519&#45;&gt;15273</title>
<path fill="none" stroke="black" d="M951.02,-202.07C957.54,-193.45 964.42,-184.35 971.13,-175.49"/>
<polygon fill="black" stroke="black" points="973.88,-177.65 977.12,-167.57 968.3,-173.43 973.88,-177.65"/>
</g>
<!-- 12521 -->
<g id="node20" class="node">
<title>12521</title>
<path fill="#c0c0c0" stroke="black" d="M789,-36C789,-36 759,-36 759,-36 753,-36 747,-30 747,-24 747,-24 747,-12 747,-12 747,-6 753,0 759,0 759,0 789,0 789,0 795,0 801,-6 801,-12 801,-12 801,-24 801,-24 801,-30 795,-36 789,-36"/>
<text text-anchor="middle" x="774" y="-13.32" font-family="Helvetica,sans-Serif" font-size="14.00">(...)</text>
</g>
<!-- 12520&#45;&gt;12521 -->
<g id="edge19" class="edge">
<title>12520&#45;&gt;12521</title>
<path fill="none" stroke="black" d="M800.61,-71.75C796.21,-63.03 791.74,-54.16 787.75,-46.26"/>
<polygon fill="black" stroke="black" points="790.97,-44.88 783.34,-37.52 784.72,-48.03 790.97,-44.88"/>
</g>
<!-- 14604 -->
<g id="node21" class="node">
<title>14604</title>
<path fill="#c0c0c0" stroke="black" d="M861,-36C861,-36 831,-36 831,-36 825,-36 819,-30 819,-24 819,-24 819,-12 819,-12 819,-6 825,0 831,0 831,0 861,0 861,0 867,0 873,-6 873,-12 873,-12 873,-24 873,-24 873,-30 867,-36 861,-36"/>
<text text-anchor="middle" x="846" y="-13.32" font-family="Helvetica,sans-Serif" font-size="14.00">(...)</text>
</g>
<!-- 12520&#45;&gt;14604 -->
<g id="edge20" class="edge">
<title>12520&#45;&gt;14604</title>
<path fill="none" stroke="black" d="M834.29,-71.75C836.14,-63.42 838.02,-54.97 839.71,-47.34"/>
<polygon fill="black" stroke="black" points="843.11,-48.17 841.86,-37.65 836.28,-46.65 843.11,-48.17"/>
</g>
<!-- 15274 -->
<g id="node23" class="node">
<title>15274</title>
<path fill="#c0c0c0" stroke="black" d="M992,-36C992,-36 962,-36 962,-36 956,-36 950,-30 950,-24 950,-24 950,-12 950,-12 950,-6 956,0 962,0 962,0 992,0 992,0 998,0 1004,-6 1004,-12 1004,-12 1004,-24 1004,-24 1004,-30 998,-36 992,-36"/>
<text text-anchor="middle" x="977" y="-13.32" font-family="Helvetica,sans-Serif" font-size="14.00">(...)</text>
</g>
<!-- 15273&#45;&gt;15274 -->
<g id="edge22" class="edge">
<title>15273&#45;&gt;15274</title>
<path fill="none" stroke="black" d="M996.16,-71.75C993.06,-63.22 989.92,-54.57 987.1,-46.8"/>
<polygon fill="black" stroke="black" points="990.46,-45.8 983.75,-37.6 983.88,-48.19 990.46,-45.8"/>
</g>
<!-- 15899 -->
<g id="node24" class="node">
<title>15899</title>
<path fill="#c0c0c0" stroke="black" d="M1064,-36C1064,-36 1034,-36 1034,-36 1028,-36 1022,-30 1022,-24 1022,-24 1022,-12 1022,-12 1022,-6 1028,0 1034,0 1034,0 1064,0 1064,0 1070,0 1076,-6 1076,-12 1076,-12 1076,-24 1076,-24 1076,-30 1070,-36 1064,-36"/>
<text text-anchor="middle" x="1049" y="-13.32" font-family="Helvetica,sans-Serif" font-size="14.00">(...)</text>
</g>
<!-- 15273&#45;&gt;15899 -->
<g id="edge23" class="edge">
<title>15273&#45;&gt;15899</title>
<path fill="none" stroke="black" d="M1029.84,-71.75C1032.94,-63.22 1036.08,-54.57 1038.9,-46.8"/>
<polygon fill="black" stroke="black" points="1042.12,-48.19 1042.25,-37.6 1035.54,-45.8 1042.12,-48.19"/>
</g>
<!-- 16111 -->
<g id="node26" class="node">
<title>16111</title>
<path fill="#eca26d" stroke="black" d="M1259.5,-166.25C1259.5,-166.25 1126.5,-166.25 1126.5,-166.25 1120.5,-166.25 1114.5,-160.25 1114.5,-154.25 1114.5,-154.25 1114.5,-84 1114.5,-84 1114.5,-78 1120.5,-72 1126.5,-72 1126.5,-72 1259.5,-72 1259.5,-72 1265.5,-72 1271.5,-78 1271.5,-84 1271.5,-84 1271.5,-154.25 1271.5,-154.25 1271.5,-160.25 1265.5,-166.25 1259.5,-166.25"/>
<text text-anchor="middle" x="1193" y="-148.95" font-family="Helvetica,sans-Serif" font-size="14.00">4_C &lt;= 0.5</text>
<text text-anchor="middle" x="1193" y="-131.7" font-family="Helvetica,sans-Serif" font-size="14.00">entropy = 0.737</text>
<text text-anchor="middle" x="1193" y="-114.45" font-family="Helvetica,sans-Serif" font-size="14.00">samples = 1255</text>
<text text-anchor="middle" x="1193" y="-97.2" font-family="Helvetica,sans-Serif" font-size="14.00">value = [1616, 423]</text>
<text text-anchor="middle" x="1193" y="-79.95" font-family="Helvetica,sans-Serif" font-size="14.00">class = Animal</text>
</g>
<!-- 16110&#45;&gt;16111 -->
<g id="edge25" class="edge">
<title>16110&#45;&gt;16111</title>
<path fill="none" stroke="black" d="M1193,-202.07C1193,-194.17 1193,-185.88 1193,-177.73"/>
<polygon fill="black" stroke="black" points="1196.5,-177.87 1193,-167.87 1189.5,-177.87 1196.5,-177.87"/>
</g>
<!-- 16616 -->
<g id="node29" class="node">
<title>16616</title>
<path fill="#e58139" stroke="black" d="M1398.5,-157.62C1398.5,-157.62 1301.5,-157.62 1301.5,-157.62 1295.5,-157.62 1289.5,-151.62 1289.5,-145.62 1289.5,-145.62 1289.5,-92.62 1289.5,-92.62 1289.5,-86.62 1295.5,-80.62 1301.5,-80.62 1301.5,-80.62 1398.5,-80.62 1398.5,-80.62 1404.5,-80.62 1410.5,-86.62 1410.5,-92.62 1410.5,-92.62 1410.5,-145.62 1410.5,-145.62 1410.5,-151.62 1404.5,-157.62 1398.5,-157.62"/>
<text text-anchor="middle" x="1350" y="-140.32" font-family="Helvetica,sans-Serif" font-size="14.00">entropy = 0.0</text>
<text text-anchor="middle" x="1350" y="-123.08" font-family="Helvetica,sans-Serif" font-size="14.00">samples = 8</text>
<text text-anchor="middle" x="1350" y="-105.83" font-family="Helvetica,sans-Serif" font-size="14.00">value = [12, 0]</text>
<text text-anchor="middle" x="1350" y="-88.58" font-family="Helvetica,sans-Serif" font-size="14.00">class = Animal</text>
</g>
<!-- 16110&#45;&gt;16616 -->
<g id="edge28" class="edge">
<title>16110&#45;&gt;16616</title>
<path fill="none" stroke="black" d="M1249.68,-202.07C1264.51,-189.96 1280.47,-176.92 1295.2,-164.89"/>
<polygon fill="black" stroke="black" points="1297.02,-167.93 1302.55,-158.89 1292.59,-162.51 1297.02,-167.93"/>
</g>
<!-- 16112 -->
<g id="node27" class="node">
<title>16112</title>
<path fill="#c0c0c0" stroke="black" d="M1172,-36C1172,-36 1142,-36 1142,-36 1136,-36 1130,-30 1130,-24 1130,-24 1130,-12 1130,-12 1130,-6 1136,0 1142,0 1142,0 1172,0 1172,0 1178,0 1184,-6 1184,-12 1184,-12 1184,-24 1184,-24 1184,-30 1178,-36 1172,-36"/>
<text text-anchor="middle" x="1157" y="-13.32" font-family="Helvetica,sans-Serif" font-size="14.00">(...)</text>
</g>
<!-- 16111&#45;&gt;16112 -->
<g id="edge26" class="edge">
<title>16111&#45;&gt;16112</title>
<path fill="none" stroke="black" d="M1176.16,-71.75C1173.06,-63.22 1169.92,-54.57 1167.1,-46.8"/>
<polygon fill="black" stroke="black" points="1170.46,-45.8 1163.75,-37.6 1163.88,-48.19 1170.46,-45.8"/>
</g>
<!-- 16461 -->
<g id="node28" class="node">
<title>16461</title>
<path fill="#c0c0c0" stroke="black" d="M1244,-36C1244,-36 1214,-36 1214,-36 1208,-36 1202,-30 1202,-24 1202,-24 1202,-12 1202,-12 1202,-6 1208,0 1214,0 1214,0 1244,0 1244,0 1250,0 1256,-6 1256,-12 1256,-12 1256,-24 1256,-24 1256,-30 1250,-36 1244,-36"/>
<text text-anchor="middle" x="1229" y="-13.32" font-family="Helvetica,sans-Serif" font-size="14.00">(...)</text>
</g>
<!-- 16111&#45;&gt;16461 -->
<g id="edge27" class="edge">
<title>16111&#45;&gt;16461</title>
<path fill="none" stroke="black" d="M1209.84,-71.75C1212.94,-63.22 1216.08,-54.57 1218.9,-46.8"/>
<polygon fill="black" stroke="black" points="1222.12,-48.19 1222.25,-37.6 1215.54,-45.8 1222.12,-48.19"/>
</g>
</g>
</svg>
