<?xml version="1.0" encoding="UTF-8" standalone="no"?>
<!DOCTYPE svg PUBLIC "-//W3C//DTD SVG 1.1//EN"
 "http://www.w3.org/Graphics/SVG/1.1/DTD/svg11.dtd">
<!-- Generated by graphviz version 12.0.0 (20240803.0821)
 -->
<!-- Title: Tree Pages: 1 -->
<svg width="1402pt" height="565pt"
 viewBox="0.00 0.00 1402.38 565.00" xmlns="http://www.w3.org/2000/svg" xmlns:xlink="http://www.w3.org/1999/xlink">
<g id="graph0" class="graph" transform="scale(1 1) rotate(0) translate(4 561)">
<title>Tree</title>
<polygon fill="white" stroke="none" points="-4,4 -4,-561 1398.38,-561 1398.38,4 -4,4"/>
<!-- 0 -->
<g id="node1" class="node">
<title>0</title>
<path fill="#fffefe" stroke="black" d="M828,-557C828,-557 668,-557 668,-557 662,-557 656,-551 656,-545 656,-545 656,-474.75 656,-474.75 656,-468.75 662,-462.75 668,-462.75 668,-462.75 828,-462.75 828,-462.75 834,-462.75 840,-468.75 840,-474.75 840,-474.75 840,-545 840,-545 840,-551 834,-557 828,-557"/>
<text text-anchor="middle" x="748" y="-539.7" font-family="Helvetica,sans-Serif" font-size="14.00">23_A &lt;= 0.5</text>
<text text-anchor="middle" x="748" y="-522.45" font-family="Helvetica,sans-Serif" font-size="14.00">entropy = 1.0</text>
<text text-anchor="middle" x="748" y="-505.2" font-family="Helvetica,sans-Serif" font-size="14.00">samples = 38032</text>
<text text-anchor="middle" x="748" y="-487.95" font-family="Helvetica,sans-Serif" font-size="14.00">value = [30272, 30073]</text>
<text text-anchor="middle" x="748" y="-470.7" font-family="Helvetica,sans-Serif" font-size="14.00">class = Animal</text>
</g>
<!-- 1 -->
<g id="node2" class="node">
<title>1</title>
<path fill="#f8fbfe" stroke="black" d="M648,-426.75C648,-426.75 488,-426.75 488,-426.75 482,-426.75 476,-420.75 476,-414.75 476,-414.75 476,-344.5 476,-344.5 476,-338.5 482,-332.5 488,-332.5 488,-332.5 648,-332.5 648,-332.5 654,-332.5 660,-338.5 660,-344.5 660,-344.5 660,-414.75 660,-414.75 660,-420.75 654,-426.75 648,-426.75"/>
<text text-anchor="middle" x="568" y="-409.45" font-family="Helvetica,sans-Serif" font-size="14.00">2_A &lt;= 0.5</text>
<text text-anchor="middle" x="568" y="-392.2" font-family="Helvetica,sans-Serif" font-size="14.00">entropy = 1.0</text>
<text text-anchor="middle" x="568" y="-374.95" font-family="Helvetica,sans-Serif" font-size="14.00">samples = 36493</text>
<text text-anchor="middle" x="568" y="-357.7" font-family="Helvetica,sans-Serif" font-size="14.00">value = [28409, 29484]</text>
<text text-anchor="middle" x="568" y="-340.45" font-family="Helvetica,sans-Serif" font-size="14.00">class = Plant</text>
</g>
<!-- 0&#45;&gt;1 -->
<g id="edge1" class="edge">
<title>0&#45;&gt;1</title>
<path fill="none" stroke="black" d="M682.76,-462.39C669.68,-453.07 655.85,-443.22 642.48,-433.69"/>
<polygon fill="black" stroke="black" points="644.73,-430.99 634.55,-428.04 640.66,-436.7 644.73,-430.99"/>
<text text-anchor="middle" x="637.46" y="-447.14" font-family="Helvetica,sans-Serif" font-size="14.00">True</text>
</g>
<!-- 16026 -->
<g id="node17" class="node">
<title>16026</title>
<path fill="#eda978" stroke="black" d="M992.5,-426.75C992.5,-426.75 859.5,-426.75 859.5,-426.75 853.5,-426.75 847.5,-420.75 847.5,-414.75 847.5,-414.75 847.5,-344.5 847.5,-344.5 847.5,-338.5 853.5,-332.5 859.5,-332.5 859.5,-332.5 992.5,-332.5 992.5,-332.5 998.5,-332.5 1004.5,-338.5 1004.5,-344.5 1004.5,-344.5 1004.5,-414.75 1004.5,-414.75 1004.5,-420.75 998.5,-426.75 992.5,-426.75"/>
<text text-anchor="middle" x="926" y="-409.45" font-family="Helvetica,sans-Serif" font-size="14.00">24_U &lt;= 0.5</text>
<text text-anchor="middle" x="926" y="-392.2" font-family="Helvetica,sans-Serif" font-size="14.00">entropy = 0.795</text>
<text text-anchor="middle" x="926" y="-374.95" font-family="Helvetica,sans-Serif" font-size="14.00">samples = 1539</text>
<text text-anchor="middle" x="926" y="-357.7" font-family="Helvetica,sans-Serif" font-size="14.00">value = [1863, 589]</text>
<text text-anchor="middle" x="926" y="-340.45" font-family="Helvetica,sans-Serif" font-size="14.00">class = Animal</text>
</g>
<!-- 0&#45;&gt;16026 -->
<g id="edge16" class="edge">
<title>0&#45;&gt;16026</title>
<path fill="none" stroke="black" d="M812.51,-462.39C825.45,-453.07 839.13,-443.22 852.35,-433.69"/>
<polygon fill="black" stroke="black" points="854.11,-436.73 860.18,-428.05 850.02,-431.06 854.11,-436.73"/>
<text text-anchor="middle" x="857.4" y="-447.17" font-family="Helvetica,sans-Serif" font-size="14.00">False</text>
</g>
<!-- 2 -->
<g id="node3" class="node">
<title>2</title>
<path fill="#daedfa" stroke="black" d="M370,-296.5C370,-296.5 210,-296.5 210,-296.5 204,-296.5 198,-290.5 198,-284.5 198,-284.5 198,-214.25 198,-214.25 198,-208.25 204,-202.25 210,-202.25 210,-202.25 370,-202.25 370,-202.25 376,-202.25 382,-208.25 382,-214.25 382,-214.25 382,-284.5 382,-284.5 382,-290.5 376,-296.5 370,-296.5"/>
<text text-anchor="middle" x="290" y="-279.2" font-family="Helvetica,sans-Serif" font-size="14.00">19_C &lt;= 0.5</text>
<text text-anchor="middle" x="290" y="-261.95" font-family="Helvetica,sans-Serif" font-size="14.00">entropy = 0.992</text>
<text text-anchor="middle" x="290" y="-244.7" font-family="Helvetica,sans-Serif" font-size="14.00">samples = 27779</text>
<text text-anchor="middle" x="290" y="-227.45" font-family="Helvetica,sans-Serif" font-size="14.00">value = [19793, 24315]</text>
<text text-anchor="middle" x="290" y="-210.2" font-family="Helvetica,sans-Serif" font-size="14.00">class = Plant</text>
</g>
<!-- 1&#45;&gt;2 -->
<g id="edge2" class="edge">
<title>1&#45;&gt;2</title>
<path fill="none" stroke="black" d="M475.82,-336.1C449.19,-323.81 419.96,-310.33 392.74,-297.77"/>
<polygon fill="black" stroke="black" points="394.33,-294.65 383.78,-293.64 391.4,-301.01 394.33,-294.65"/>
</g>
<!-- 12091 -->
<g id="node10" class="node">
<title>12091</title>
<path fill="#f5cdb0" stroke="black" d="M639,-296.5C639,-296.5 497,-296.5 497,-296.5 491,-296.5 485,-290.5 485,-284.5 485,-284.5 485,-214.25 485,-214.25 485,-208.25 491,-202.25 497,-202.25 497,-202.25 639,-202.25 639,-202.25 645,-202.25 651,-208.25 651,-214.25 651,-214.25 651,-284.5 651,-284.5 651,-290.5 645,-296.5 639,-296.5"/>
<text text-anchor="middle" x="568" y="-279.2" font-family="Helvetica,sans-Serif" font-size="14.00">9_G &lt;= 0.5</text>
<text text-anchor="middle" x="568" y="-261.95" font-family="Helvetica,sans-Serif" font-size="14.00">entropy = 0.954</text>
<text text-anchor="middle" x="568" y="-244.7" font-family="Helvetica,sans-Serif" font-size="14.00">samples = 8714</text>
<text text-anchor="middle" x="568" y="-227.45" font-family="Helvetica,sans-Serif" font-size="14.00">value = [8616, 5169]</text>
<text text-anchor="middle" x="568" y="-210.2" font-family="Helvetica,sans-Serif" font-size="14.00">class = Animal</text>
</g>
<!-- 1&#45;&gt;12091 -->
<g id="edge9" class="edge">
<title>1&#45;&gt;12091</title>
<path fill="none" stroke="black" d="M568,-332.32C568,-324.42 568,-316.13 568,-307.98"/>
<polygon fill="black" stroke="black" points="571.5,-308.12 568,-298.12 564.5,-308.12 571.5,-308.12"/>
</g>
<!-- 3 -->
<g id="node4" class="node">
<title>3</title>
<path fill="#fdf4ed" stroke="black" d="M172,-166.25C172,-166.25 12,-166.25 12,-166.25 6,-166.25 0,-160.25 0,-154.25 0,-154.25 0,-84 0,-84 0,-78 6,-72 12,-72 12,-72 172,-72 172,-72 178,-72 184,-78 184,-84 184,-84 184,-154.25 184,-154.25 184,-160.25 178,-166.25 172,-166.25"/>
<text text-anchor="middle" x="92" y="-148.95" font-family="Helvetica,sans-Serif" font-size="14.00">22_U &lt;= 0.5</text>
<text text-anchor="middle" x="92" y="-131.7" font-family="Helvetica,sans-Serif" font-size="14.00">entropy = 0.998</text>
<text text-anchor="middle" x="92" y="-114.45" font-family="Helvetica,sans-Serif" font-size="14.00">samples = 18450</text>
<text text-anchor="middle" x="92" y="-97.2" font-family="Helvetica,sans-Serif" font-size="14.00">value = [15313, 13940]</text>
<text text-anchor="middle" x="92" y="-79.95" font-family="Helvetica,sans-Serif" font-size="14.00">class = Animal</text>
</g>
<!-- 2&#45;&gt;3 -->
<g id="edge3" class="edge">
<title>2&#45;&gt;3</title>
<path fill="none" stroke="black" d="M218.24,-201.89C203.71,-192.48 188.34,-182.53 173.5,-172.92"/>
<polygon fill="black" stroke="black" points="175.42,-169.99 165.12,-167.49 171.61,-175.86 175.42,-169.99"/>
</g>
<!-- 9050 -->
<g id="node7" class="node">
<title>9050</title>
<path fill="#8ec7f0" stroke="black" d="M365.5,-166.25C365.5,-166.25 214.5,-166.25 214.5,-166.25 208.5,-166.25 202.5,-160.25 202.5,-154.25 202.5,-154.25 202.5,-84 202.5,-84 202.5,-78 208.5,-72 214.5,-72 214.5,-72 365.5,-72 365.5,-72 371.5,-72 377.5,-78 377.5,-84 377.5,-84 377.5,-154.25 377.5,-154.25 377.5,-160.25 371.5,-166.25 365.5,-166.25"/>
<text text-anchor="middle" x="290" y="-148.95" font-family="Helvetica,sans-Serif" font-size="14.00">16_G &lt;= 0.5</text>
<text text-anchor="middle" x="290" y="-131.7" font-family="Helvetica,sans-Serif" font-size="14.00">entropy = 0.883</text>
<text text-anchor="middle" x="290" y="-114.45" font-family="Helvetica,sans-Serif" font-size="14.00">samples = 9329</text>
<text text-anchor="middle" x="290" y="-97.2" font-family="Helvetica,sans-Serif" font-size="14.00">value = [4480, 10375]</text>
<text text-anchor="middle" x="290" y="-79.95" font-family="Helvetica,sans-Serif" font-size="14.00">class = Plant</text>
</g>
<!-- 2&#45;&gt;9050 -->
<g id="edge6" class="edge">
<title>2&#45;&gt;9050</title>
<path fill="none" stroke="black" d="M290,-202.07C290,-194.17 290,-185.88 290,-177.73"/>
<polygon fill="black" stroke="black" points="293.5,-177.87 290,-167.87 286.5,-177.87 293.5,-177.87"/>
</g>
<!-- 4 -->
<g id="node5" class="node">
<title>4</title>
<path fill="#c0c0c0" stroke="black" d="M71,-36C71,-36 41,-36 41,-36 35,-36 29,-30 29,-24 29,-24 29,-12 29,-12 29,-6 35,0 41,0 41,0 71,0 71,0 77,0 83,-6 83,-12 83,-12 83,-24 83,-24 83,-30 77,-36 71,-36"/>
<text text-anchor="middle" x="56" y="-13.32" font-family="Helvetica,sans-Serif" font-size="14.00">(...)</text>
</g>
<!-- 3&#45;&gt;4 -->
<g id="edge4" class="edge">
<title>3&#45;&gt;4</title>
<path fill="none" stroke="black" d="M75.16,-71.75C72.06,-63.22 68.92,-54.57 66.1,-46.8"/>
<polygon fill="black" stroke="black" points="69.46,-45.8 62.75,-37.6 62.88,-48.19 69.46,-45.8"/>
</g>
<!-- 7961 -->
<g id="node6" class="node">
<title>7961</title>
<path fill="#c0c0c0" stroke="black" d="M143,-36C143,-36 113,-36 113,-36 107,-36 101,-30 101,-24 101,-24 101,-12 101,-12 101,-6 107,0 113,0 113,0 143,0 143,0 149,0 155,-6 155,-12 155,-12 155,-24 155,-24 155,-30 149,-36 143,-36"/>
<text text-anchor="middle" x="128" y="-13.32" font-family="Helvetica,sans-Serif" font-size="14.00">(...)</text>
</g>
<!-- 3&#45;&gt;7961 -->
<g id="edge5" class="edge">
<title>3&#45;&gt;7961</title>
<path fill="none" stroke="black" d="M108.84,-71.75C111.94,-63.22 115.08,-54.57 117.9,-46.8"/>
<polygon fill="black" stroke="black" points="121.12,-48.19 121.25,-37.6 114.54,-45.8 121.12,-48.19"/>
</g>
<!-- 9051 -->
<g id="node8" class="node">
<title>9051</title>
<path fill="#c0c0c0" stroke="black" d="M276,-36C276,-36 246,-36 246,-36 240,-36 234,-30 234,-24 234,-24 234,-12 234,-12 234,-6 240,0 246,0 246,0 276,0 276,0 282,0 288,-6 288,-12 288,-12 288,-24 288,-24 288,-30 282,-36 276,-36"/>
<text text-anchor="middle" x="261" y="-13.32" font-family="Helvetica,sans-Serif" font-size="14.00">(...)</text>
</g>
<!-- 9050&#45;&gt;9051 -->
<g id="edge7" class="edge">
<title>9050&#45;&gt;9051</title>
<path fill="none" stroke="black" d="M276.43,-71.75C273.97,-63.32 271.46,-54.77 269.21,-47.07"/>
<polygon fill="black" stroke="black" points="272.62,-46.24 266.45,-37.63 265.9,-48.21 272.62,-46.24"/>
</g>
<!-- 11324 -->
<g id="node9" class="node">
<title>11324</title>
<path fill="#c0c0c0" stroke="black" d="M348,-36C348,-36 318,-36 318,-36 312,-36 306,-30 306,-24 306,-24 306,-12 306,-12 306,-6 312,0 318,0 318,0 348,0 348,0 354,0 360,-6 360,-12 360,-12 360,-24 360,-24 360,-30 354,-36 348,-36"/>
<text text-anchor="middle" x="333" y="-13.32" font-family="Helvetica,sans-Serif" font-size="14.00">(...)</text>
</g>
<!-- 9050&#45;&gt;11324 -->
<g id="edge8" class="edge">
<title>9050&#45;&gt;11324</title>
<path fill="none" stroke="black" d="M310.12,-71.75C313.86,-63.12 317.66,-54.36 321.06,-46.53"/>
<polygon fill="black" stroke="black" points="324.18,-48.13 324.95,-37.56 317.76,-45.34 324.18,-48.13"/>
</g>
<!-- 12092 -->
<g id="node11" class="node">
<title>12092</title>
<path fill="#f0b58b" stroke="black" d="M550,-166.25C550,-166.25 408,-166.25 408,-166.25 402,-166.25 396,-160.25 396,-154.25 396,-154.25 396,-84 396,-84 396,-78 402,-72 408,-72 408,-72 550,-72 550,-72 556,-72 562,-78 562,-84 562,-84 562,-154.25 562,-154.25 562,-160.25 556,-166.25 550,-166.25"/>
<text text-anchor="middle" x="479" y="-148.95" font-family="Helvetica,sans-Serif" font-size="14.00">4_G &lt;= 0.5</text>
<text text-anchor="middle" x="479" y="-131.7" font-family="Helvetica,sans-Serif" font-size="14.00">entropy = 0.874</text>
<text text-anchor="middle" x="479" y="-114.45" font-family="Helvetica,sans-Serif" font-size="14.00">samples = 6185</text>
<text text-anchor="middle" x="479" y="-97.2" font-family="Helvetica,sans-Serif" font-size="14.00">value = [6921, 2882]</text>
<text text-anchor="middle" x="479" y="-79.95" font-family="Helvetica,sans-Serif" font-size="14.00">class = Animal</text>
</g>
<!-- 12091&#45;&gt;12092 -->
<g id="edge10" class="edge">
<title>12091&#45;&gt;12092</title>
<path fill="none" stroke="black" d="M535.87,-202.07C529.95,-193.54 523.7,-184.54 517.61,-175.77"/>
<polygon fill="black" stroke="black" points="520.52,-173.82 511.95,-167.6 514.77,-177.81 520.52,-173.82"/>
</g>
<!-- 15025 -->
<g id="node14" class="node">
<title>15025</title>
<path fill="#cce6f8" stroke="black" d="M734,-166.25C734,-166.25 592,-166.25 592,-166.25 586,-166.25 580,-160.25 580,-154.25 580,-154.25 580,-84 580,-84 580,-78 586,-72 592,-72 592,-72 734,-72 734,-72 740,-72 746,-78 746,-84 746,-84 746,-154.25 746,-154.25 746,-160.25 740,-166.25 734,-166.25"/>
<text text-anchor="middle" x="663" y="-148.95" font-family="Helvetica,sans-Serif" font-size="14.00">10_G &lt;= 0.5</text>
<text text-anchor="middle" x="663" y="-131.7" font-family="Helvetica,sans-Serif" font-size="14.00">entropy = 0.984</text>
<text text-anchor="middle" x="663" y="-114.45" font-family="Helvetica,sans-Serif" font-size="14.00">samples = 2529</text>
<text text-anchor="middle" x="663" y="-97.2" font-family="Helvetica,sans-Serif" font-size="14.00">value = [1695, 2287]</text>
<text text-anchor="middle" x="663" y="-79.95" font-family="Helvetica,sans-Serif" font-size="14.00">class = Plant</text>
</g>
<!-- 12091&#45;&gt;15025 -->
<g id="edge13" class="edge">
<title>12091&#45;&gt;15025</title>
<path fill="none" stroke="black" d="M602.3,-202.07C608.69,-193.45 615.42,-184.35 621.99,-175.49"/>
<polygon fill="black" stroke="black" points="624.71,-177.69 627.85,-167.57 619.09,-173.53 624.71,-177.69"/>
</g>
<!-- 12093 -->
<g id="node12" class="node">
<title>12093</title>
<path fill="#c0c0c0" stroke="black" d="M442,-36C442,-36 412,-36 412,-36 406,-36 400,-30 400,-24 400,-24 400,-12 400,-12 400,-6 406,0 412,0 412,0 442,0 442,0 448,0 454,-6 454,-12 454,-12 454,-24 454,-24 454,-30 448,-36 442,-36"/>
<text text-anchor="middle" x="427" y="-13.32" font-family="Helvetica,sans-Serif" font-size="14.00">(...)</text>
</g>
<!-- 12092&#45;&gt;12093 -->
<g id="edge11" class="edge">
<title>12092&#45;&gt;12093</title>
<path fill="none" stroke="black" d="M454.67,-71.75C450.1,-63.03 445.45,-54.16 441.3,-46.26"/>
<polygon fill="black" stroke="black" points="444.46,-44.74 436.71,-37.51 438.26,-47.99 444.46,-44.74"/>
</g>
<!-- 14164 -->
<g id="node13" class="node">
<title>14164</title>
<path fill="#c0c0c0" stroke="black" d="M514,-36C514,-36 484,-36 484,-36 478,-36 472,-30 472,-24 472,-24 472,-12 472,-12 472,-6 478,0 484,0 484,0 514,0 514,0 520,0 526,-6 526,-12 526,-12 526,-24 526,-24 526,-30 520,-36 514,-36"/>
<text text-anchor="middle" x="499" y="-13.32" font-family="Helvetica,sans-Serif" font-size="14.00">(...)</text>
</g>
<!-- 12092&#45;&gt;14164 -->
<g id="edge12" class="edge">
<title>12092&#45;&gt;14164</title>
<path fill="none" stroke="black" d="M488.36,-71.75C490.04,-63.42 491.74,-54.97 493.28,-47.34"/>
<polygon fill="black" stroke="black" points="496.69,-48.15 495.24,-37.66 489.83,-46.77 496.69,-48.15"/>
</g>
<!-- 15026 -->
<g id="node15" class="node">
<title>15026</title>
<path fill="#c0c0c0" stroke="black" d="M624,-36C624,-36 594,-36 594,-36 588,-36 582,-30 582,-24 582,-24 582,-12 582,-12 582,-6 588,0 594,0 594,0 624,0 624,0 630,0 636,-6 636,-12 636,-12 636,-24 636,-24 636,-30 630,-36 624,-36"/>
<text text-anchor="middle" x="609" y="-13.32" font-family="Helvetica,sans-Serif" font-size="14.00">(...)</text>
</g>
<!-- 15025&#45;&gt;15026 -->
<g id="edge14" class="edge">
<title>15025&#45;&gt;15026</title>
<path fill="none" stroke="black" d="M637.74,-71.75C632.98,-63.03 628.16,-54.16 623.85,-46.26"/>
<polygon fill="black" stroke="black" points="626.94,-44.61 619.08,-37.5 620.79,-47.96 626.94,-44.61"/>
</g>
<!-- 15743 -->
<g id="node16" class="node">
<title>15743</title>
<path fill="#c0c0c0" stroke="black" d="M696,-36C696,-36 666,-36 666,-36 660,-36 654,-30 654,-24 654,-24 654,-12 654,-12 654,-6 660,0 666,0 666,0 696,0 696,0 702,0 708,-6 708,-12 708,-12 708,-24 708,-24 708,-30 702,-36 696,-36"/>
<text text-anchor="middle" x="681" y="-13.32" font-family="Helvetica,sans-Serif" font-size="14.00">(...)</text>
</g>
<!-- 15025&#45;&gt;15743 -->
<g id="edge15" class="edge">
<title>15025&#45;&gt;15743</title>
<path fill="none" stroke="black" d="M671.42,-71.75C672.93,-63.42 674.47,-54.97 675.85,-47.34"/>
<polygon fill="black" stroke="black" points="679.27,-48.13 677.61,-37.66 672.38,-46.88 679.27,-48.13"/>
</g>
<!-- 16027 -->
<g id="node18" class="node">
<title>16027</title>
<path fill="#eca571" stroke="black" d="M992.5,-296.5C992.5,-296.5 859.5,-296.5 859.5,-296.5 853.5,-296.5 847.5,-290.5 847.5,-284.5 847.5,-284.5 847.5,-214.25 847.5,-214.25 847.5,-208.25 853.5,-202.25 859.5,-202.25 859.5,-202.25 992.5,-202.25 992.5,-202.25 998.5,-202.25 1004.5,-208.25 1004.5,-214.25 1004.5,-214.25 1004.5,-284.5 1004.5,-284.5 1004.5,-290.5 998.5,-296.5 992.5,-296.5"/>
<text text-anchor="middle" x="926" y="-279.2" font-family="Helvetica,sans-Serif" font-size="14.00">24_C &lt;= 0.5</text>
<text text-anchor="middle" x="926" y="-261.95" font-family="Helvetica,sans-Serif" font-size="14.00">entropy = 0.761</text>
<text text-anchor="middle" x="926" y="-244.7" font-family="Helvetica,sans-Serif" font-size="14.00">samples = 1403</text>
<text text-anchor="middle" x="926" y="-227.45" font-family="Helvetica,sans-Serif" font-size="14.00">value = [1742, 492]</text>
<text text-anchor="middle" x="926" y="-210.2" font-family="Helvetica,sans-Serif" font-size="14.00">class = Animal</text>
</g>
<!-- 16026&#45;&gt;16027 -->
<g id="edge17" class="edge">
<title>16026&#45;&gt;16027</title>
<path fill="none" stroke="black" d="M926,-332.32C926,-324.42 926,-316.13 926,-307.98"/>
<polygon fill="black" stroke="black" points="929.5,-308.12 926,-298.12 922.5,-308.12 929.5,-308.12"/>
</g>
<!-- 16662 -->
<g id="node25" class="node">
<title>16662</title>
<path fill="#fae6d8" stroke="black" d="M1233.5,-296.5C1233.5,-296.5 1118.5,-296.5 1118.5,-296.5 1112.5,-296.5 1106.5,-290.5 1106.5,-284.5 1106.5,-284.5 1106.5,-214.25 1106.5,-214.25 1106.5,-208.25 1112.5,-202.25 1118.5,-202.25 1118.5,-202.25 1233.5,-202.25 1233.5,-202.25 1239.5,-202.25 1245.5,-208.25 1245.5,-214.25 1245.5,-214.25 1245.5,-284.5 1245.5,-284.5 1245.5,-290.5 1239.5,-296.5 1233.5,-296.5"/>
<text text-anchor="middle" x="1176" y="-279.2" font-family="Helvetica,sans-Serif" font-size="14.00">13_U &lt;= 0.5</text>
<text text-anchor="middle" x="1176" y="-261.95" font-family="Helvetica,sans-Serif" font-size="14.00">entropy = 0.991</text>
<text text-anchor="middle" x="1176" y="-244.7" font-family="Helvetica,sans-Serif" font-size="14.00">samples = 136</text>
<text text-anchor="middle" x="1176" y="-227.45" font-family="Helvetica,sans-Serif" font-size="14.00">value = [121, 97]</text>
<text text-anchor="middle" x="1176" y="-210.2" font-family="Helvetica,sans-Serif" font-size="14.00">class = Animal</text>
</g>
<!-- 16026&#45;&gt;16662 -->
<g id="edge24" class="edge">
<title>16026&#45;&gt;16662</title>
<path fill="none" stroke="black" d="M1004.76,-338.22C1033.82,-323.31 1066.77,-306.41 1095.94,-291.44"/>
<polygon fill="black" stroke="black" points="1097.45,-294.61 1104.75,-286.93 1094.25,-288.38 1097.45,-294.61"/>
</g>
<!-- 16028 -->
<g id="node19" class="node">
<title>16028</title>
<path fill="#eb9f68" stroke="black" d="M909.5,-166.25C909.5,-166.25 776.5,-166.25 776.5,-166.25 770.5,-166.25 764.5,-160.25 764.5,-154.25 764.5,-154.25 764.5,-84 764.5,-84 764.5,-78 770.5,-72 776.5,-72 776.5,-72 909.5,-72 909.5,-72 915.5,-72 921.5,-78 921.5,-84 921.5,-84 921.5,-154.25 921.5,-154.25 921.5,-160.25 915.5,-166.25 909.5,-166.25"/>
<text text-anchor="middle" x="843" y="-148.95" font-family="Helvetica,sans-Serif" font-size="14.00">15_U &lt;= 0.5</text>
<text text-anchor="middle" x="843" y="-131.7" font-family="Helvetica,sans-Serif" font-size="14.00">entropy = 0.706</text>
<text text-anchor="middle" x="843" y="-114.45" font-family="Helvetica,sans-Serif" font-size="14.00">samples = 1262</text>
<text text-anchor="middle" x="843" y="-97.2" font-family="Helvetica,sans-Serif" font-size="14.00">value = [1616, 385]</text>
<text text-anchor="middle" x="843" y="-79.95" font-family="Helvetica,sans-Serif" font-size="14.00">class = Animal</text>
</g>
<!-- 16027&#45;&gt;16028 -->
<g id="edge18" class="edge">
<title>16027&#45;&gt;16028</title>
<path fill="none" stroke="black" d="M896.04,-202.07C890.51,-193.54 884.69,-184.54 879.01,-175.77"/>
<polygon fill="black" stroke="black" points="882.11,-174.12 873.74,-167.63 876.24,-177.93 882.11,-174.12"/>
</g>
<!-- 16587 -->
<g id="node22" class="node">
<title>16587</title>
<path fill="#fbece1" stroke="black" d="M1076,-166.25C1076,-166.25 952,-166.25 952,-166.25 946,-166.25 940,-160.25 940,-154.25 940,-154.25 940,-84 940,-84 940,-78 946,-72 952,-72 952,-72 1076,-72 1076,-72 1082,-72 1088,-78 1088,-84 1088,-84 1088,-154.25 1088,-154.25 1088,-160.25 1082,-166.25 1076,-166.25"/>
<text text-anchor="middle" x="1014" y="-148.95" font-family="Helvetica,sans-Serif" font-size="14.00">9_A &lt;= 0.5</text>
<text text-anchor="middle" x="1014" y="-131.7" font-family="Helvetica,sans-Serif" font-size="14.00">entropy = 0.995</text>
<text text-anchor="middle" x="1014" y="-114.45" font-family="Helvetica,sans-Serif" font-size="14.00">samples = 141</text>
<text text-anchor="middle" x="1014" y="-97.2" font-family="Helvetica,sans-Serif" font-size="14.00">value = [126, 107]</text>
<text text-anchor="middle" x="1014" y="-79.95" font-family="Helvetica,sans-Serif" font-size="14.00">class = Animal</text>
</g>
<!-- 16027&#45;&gt;16587 -->
<g id="edge21" class="edge">
<title>16027&#45;&gt;16587</title>
<path fill="none" stroke="black" d="M957.77,-202.07C963.63,-193.54 969.8,-184.54 975.82,-175.77"/>
<polygon fill="black" stroke="black" points="978.65,-177.83 981.42,-167.61 972.88,-173.87 978.65,-177.83"/>
</g>
<!-- 16029 -->
<g id="node20" class="node">
<title>16029</title>
<path fill="#c0c0c0" stroke="black" d="M799,-36C799,-36 769,-36 769,-36 763,-36 757,-30 757,-24 757,-24 757,-12 757,-12 757,-6 763,0 769,0 769,0 799,0 799,0 805,0 811,-6 811,-12 811,-12 811,-24 811,-24 811,-30 805,-36 799,-36"/>
<text text-anchor="middle" x="784" y="-13.32" font-family="Helvetica,sans-Serif" font-size="14.00">(...)</text>
</g>
<!-- 16028&#45;&gt;16029 -->
<g id="edge19" class="edge">
<title>16028&#45;&gt;16029</title>
<path fill="none" stroke="black" d="M815.4,-71.75C810.15,-62.93 804.81,-53.96 800.06,-45.99"/>
<polygon fill="black" stroke="black" points="803.12,-44.28 795,-37.47 797.1,-47.86 803.12,-44.28"/>
</g>
<!-- 16456 -->
<g id="node21" class="node">
<title>16456</title>
<path fill="#c0c0c0" stroke="black" d="M871,-36C871,-36 841,-36 841,-36 835,-36 829,-30 829,-24 829,-24 829,-12 829,-12 829,-6 835,0 841,0 841,0 871,0 871,0 877,0 883,-6 883,-12 883,-12 883,-24 883,-24 883,-30 877,-36 871,-36"/>
<text text-anchor="middle" x="856" y="-13.32" font-family="Helvetica,sans-Serif" font-size="14.00">(...)</text>
</g>
<!-- 16028&#45;&gt;16456 -->
<g id="edge20" class="edge">
<title>16028&#45;&gt;16456</title>
<path fill="none" stroke="black" d="M849.08,-71.75C850.17,-63.42 851.28,-54.97 852.28,-47.34"/>
<polygon fill="black" stroke="black" points="855.72,-48.04 853.55,-37.67 848.78,-47.13 855.72,-48.04"/>
</g>
<!-- 16588 -->
<g id="node23" class="node">
<title>16588</title>
<path fill="#c0c0c0" stroke="black" d="M966,-36C966,-36 936,-36 936,-36 930,-36 924,-30 924,-24 924,-24 924,-12 924,-12 924,-6 930,0 936,0 936,0 966,0 966,0 972,0 978,-6 978,-12 978,-12 978,-24 978,-24 978,-30 972,-36 966,-36"/>
<text text-anchor="middle" x="951" y="-13.32" font-family="Helvetica,sans-Serif" font-size="14.00">(...)</text>
</g>
<!-- 16587&#45;&gt;16588 -->
<g id="edge22" class="edge">
<title>16587&#45;&gt;16588</title>
<path fill="none" stroke="black" d="M984.53,-71.75C978.85,-62.83 973.09,-53.76 967.98,-45.72"/>
<polygon fill="black" stroke="black" points="971.04,-44.01 962.73,-37.45 965.14,-47.77 971.04,-44.01"/>
</g>
<!-- 16647 -->
<g id="node24" class="node">
<title>16647</title>
<path fill="#c0c0c0" stroke="black" d="M1038,-36C1038,-36 1008,-36 1008,-36 1002,-36 996,-30 996,-24 996,-24 996,-12 996,-12 996,-6 1002,0 1008,0 1008,0 1038,0 1038,0 1044,0 1050,-6 1050,-12 1050,-12 1050,-24 1050,-24 1050,-30 1044,-36 1038,-36"/>
<text text-anchor="middle" x="1023" y="-13.32" font-family="Helvetica,sans-Serif" font-size="14.00">(...)</text>
</g>
<!-- 16587&#45;&gt;16647 -->
<g id="edge23" class="edge">
<title>16587&#45;&gt;16647</title>
<path fill="none" stroke="black" d="M1018.21,-71.75C1018.96,-63.52 1019.72,-55.17 1020.4,-47.61"/>
<polygon fill="black" stroke="black" points="1023.89,-47.96 1021.3,-37.68 1016.91,-47.32 1023.89,-47.96"/>
</g>
<!-- 16663 -->
<g id="node26" class="node">
<title>16663</title>
<path fill="#f5ceb1" stroke="black" d="M1233.5,-166.25C1233.5,-166.25 1118.5,-166.25 1118.5,-166.25 1112.5,-166.25 1106.5,-160.25 1106.5,-154.25 1106.5,-154.25 1106.5,-84 1106.5,-84 1106.5,-78 1112.5,-72 1118.5,-72 1118.5,-72 1233.5,-72 1233.5,-72 1239.5,-72 1245.5,-78 1245.5,-84 1245.5,-84 1245.5,-154.25 1245.5,-154.25 1245.5,-160.25 1239.5,-166.25 1233.5,-166.25"/>
<text text-anchor="middle" x="1176" y="-148.95" font-family="Helvetica,sans-Serif" font-size="14.00">7_G &lt;= 0.5</text>
<text text-anchor="middle" x="1176" y="-131.7" font-family="Helvetica,sans-Serif" font-size="14.00">entropy = 0.957</text>
<text text-anchor="middle" x="1176" y="-114.45" font-family="Helvetica,sans-Serif" font-size="14.00">samples = 103</text>
<text text-anchor="middle" x="1176" y="-97.2" font-family="Helvetica,sans-Serif" font-size="14.00">value = [102, 62]</text>
<text text-anchor="middle" x="1176" y="-79.95" font-family="Helvetica,sans-Serif" font-size="14.00">class = Animal</text>
</g>
<!-- 16662&#45;&gt;16663 -->
<g id="edge25" class="edge">
<title>16662&#45;&gt;16663</title>
<path fill="none" stroke="black" d="M1176,-202.07C1176,-194.17 1176,-185.88 1176,-177.73"/>
<polygon fill="black" stroke="black" points="1179.5,-177.87 1176,-167.87 1172.5,-177.87 1179.5,-177.87"/>
</g>
<!-- 16732 -->
<g id="node29" class="node">
<title>16732</title>
<path fill="#a4d2f3" stroke="black" d="M1382.38,-166.25C1382.38,-166.25 1275.62,-166.25 1275.62,-166.25 1269.62,-166.25 1263.62,-160.25 1263.62,-154.25 1263.62,-154.25 1263.62,-84 1263.62,-84 1263.62,-78 1269.62,-72 1275.62,-72 1275.62,-72 1382.38,-72 1382.38,-72 1388.38,-72 1394.38,-78 1394.38,-84 1394.38,-84 1394.38,-154.25 1394.38,-154.25 1394.38,-160.25 1388.38,-166.25 1382.38,-166.25"/>
<text text-anchor="middle" x="1329" y="-148.95" font-family="Helvetica,sans-Serif" font-size="14.00">16_U &lt;= 0.5</text>
<text text-anchor="middle" x="1329" y="-131.7" font-family="Helvetica,sans-Serif" font-size="14.00">entropy = 0.936</text>
<text text-anchor="middle" x="1329" y="-114.45" font-family="Helvetica,sans-Serif" font-size="14.00">samples = 33</text>
<text text-anchor="middle" x="1329" y="-97.2" font-family="Helvetica,sans-Serif" font-size="14.00">value = [19, 35]</text>
<text text-anchor="middle" x="1329" y="-79.95" font-family="Helvetica,sans-Serif" font-size="14.00">class = Plant</text>
</g>
<!-- 16662&#45;&gt;16732 -->
<g id="edge28" class="edge">
<title>16662&#45;&gt;16732</title>
<path fill="none" stroke="black" d="M1231.24,-202.07C1242.22,-192.87 1253.83,-183.13 1265.08,-173.71"/>
<polygon fill="black" stroke="black" points="1267.01,-176.65 1272.43,-167.55 1262.52,-171.29 1267.01,-176.65"/>
</g>
<!-- 16664 -->
<g id="node27" class="node">
<title>16664</title>
<path fill="#c0c0c0" stroke="black" d="M1141,-36C1141,-36 1111,-36 1111,-36 1105,-36 1099,-30 1099,-24 1099,-24 1099,-12 1099,-12 1099,-6 1105,0 1111,0 1111,0 1141,0 1141,0 1147,0 1153,-6 1153,-12 1153,-12 1153,-24 1153,-24 1153,-30 1147,-36 1141,-36"/>
<text text-anchor="middle" x="1126" y="-13.32" font-family="Helvetica,sans-Serif" font-size="14.00">(...)</text>
</g>
<!-- 16663&#45;&gt;16664 -->
<g id="edge26" class="edge">
<title>16663&#45;&gt;16664</title>
<path fill="none" stroke="black" d="M1152.61,-71.75C1148.21,-63.03 1143.74,-54.16 1139.75,-46.26"/>
<polygon fill="black" stroke="black" points="1142.97,-44.88 1135.34,-37.52 1136.72,-48.03 1142.97,-44.88"/>
</g>
<!-- 16709 -->
<g id="node28" class="node">
<title>16709</title>
<path fill="#c0c0c0" stroke="black" d="M1213,-36C1213,-36 1183,-36 1183,-36 1177,-36 1171,-30 1171,-24 1171,-24 1171,-12 1171,-12 1171,-6 1177,0 1183,0 1183,0 1213,0 1213,0 1219,0 1225,-6 1225,-12 1225,-12 1225,-24 1225,-24 1225,-30 1219,-36 1213,-36"/>
<text text-anchor="middle" x="1198" y="-13.32" font-family="Helvetica,sans-Serif" font-size="14.00">(...)</text>
</g>
<!-- 16663&#45;&gt;16709 -->
<g id="edge27" class="edge">
<title>16663&#45;&gt;16709</title>
<path fill="none" stroke="black" d="M1186.29,-71.75C1188.14,-63.42 1190.02,-54.97 1191.71,-47.34"/>
<polygon fill="black" stroke="black" points="1195.11,-48.17 1193.86,-37.65 1188.28,-46.65 1195.11,-48.17"/>
</g>
<!-- 16733 -->
<g id="node30" class="node">
<title>16733</title>
<path fill="#c0c0c0" stroke="black" d="M1308,-36C1308,-36 1278,-36 1278,-36 1272,-36 1266,-30 1266,-24 1266,-24 1266,-12 1266,-12 1266,-6 1272,0 1278,0 1278,0 1308,0 1308,0 1314,0 1320,-6 1320,-12 1320,-12 1320,-24 1320,-24 1320,-30 1314,-36 1308,-36"/>
<text text-anchor="middle" x="1293" y="-13.32" font-family="Helvetica,sans-Serif" font-size="14.00">(...)</text>
</g>
<!-- 16732&#45;&gt;16733 -->
<g id="edge29" class="edge">
<title>16732&#45;&gt;16733</title>
<path fill="none" stroke="black" d="M1312.16,-71.75C1309.06,-63.22 1305.92,-54.57 1303.1,-46.8"/>
<polygon fill="black" stroke="black" points="1306.46,-45.8 1299.75,-37.6 1299.88,-48.19 1306.46,-45.8"/>
</g>
<!-- 16750 -->
<g id="node31" class="node">
<title>16750</title>
<path fill="#c0c0c0" stroke="black" d="M1380,-36C1380,-36 1350,-36 1350,-36 1344,-36 1338,-30 1338,-24 1338,-24 1338,-12 1338,-12 1338,-6 1344,0 1350,0 1350,0 1380,0 1380,0 1386,0 1392,-6 1392,-12 1392,-12 1392,-24 1392,-24 1392,-30 1386,-36 1380,-36"/>
<text text-anchor="middle" x="1365" y="-13.32" font-family="Helvetica,sans-Serif" font-size="14.00">(...)</text>
</g>
<!-- 16732&#45;&gt;16750 -->
<g id="edge30" class="edge">
<title>16732&#45;&gt;16750</title>
<path fill="none" stroke="black" d="M1345.84,-71.75C1348.94,-63.22 1352.08,-54.57 1354.9,-46.8"/>
<polygon fill="black" stroke="black" points="1358.12,-48.19 1358.25,-37.6 1351.54,-45.8 1358.12,-48.19"/>
</g>
</g>
</svg>
