<?xml version="1.0" encoding="UTF-8" standalone="no"?>
<!DOCTYPE svg PUBLIC "-//W3C//DTD SVG 1.1//EN"
 "http://www.w3.org/Graphics/SVG/1.1/DTD/svg11.dtd">
<!-- Generated by graphviz version 12.0.0 (20240803.0821)
 -->
<!-- Title: Tree Pages: 1 -->
<svg width="1382pt" height="565pt"
 viewBox="0.00 0.00 1382.00 565.00" xmlns="http://www.w3.org/2000/svg" xmlns:xlink="http://www.w3.org/1999/xlink">
<g id="graph0" class="graph" transform="scale(1 1) rotate(0) translate(4 561)">
<title>Tree</title>
<polygon fill="white" stroke="none" points="-4,4 -4,-561 1378,-561 1378,4 -4,4"/>
<!-- 0 -->
<g id="node1" class="node">
<title>0</title>
<path fill="#ffffff" stroke="black" d="M818,-557C818,-557 658,-557 658,-557 652,-557 646,-551 646,-545 646,-545 646,-474.75 646,-474.75 646,-468.75 652,-462.75 658,-462.75 658,-462.75 818,-462.75 818,-462.75 824,-462.75 830,-468.75 830,-474.75 830,-474.75 830,-545 830,-545 830,-551 824,-557 818,-557"/>
<text text-anchor="middle" x="738" y="-539.7" font-family="Helvetica,sans-Serif" font-size="14.00">23_G &lt;= 0.5</text>
<text text-anchor="middle" x="738" y="-522.45" font-family="Helvetica,sans-Serif" font-size="14.00">entropy = 1.0</text>
<text text-anchor="middle" x="738" y="-505.2" font-family="Helvetica,sans-Serif" font-size="14.00">samples = 38065</text>
<text text-anchor="middle" x="738" y="-487.95" font-family="Helvetica,sans-Serif" font-size="14.00">value = [30200, 30145]</text>
<text text-anchor="middle" x="738" y="-470.7" font-family="Helvetica,sans-Serif" font-size="14.00">class = Animal</text>
</g>
<!-- 1 -->
<g id="node2" class="node">
<title>1</title>
<path fill="#f5fafe" stroke="black" d="M645,-426.75C645,-426.75 485,-426.75 485,-426.75 479,-426.75 473,-420.75 473,-414.75 473,-414.75 473,-344.5 473,-344.5 473,-338.5 479,-332.5 485,-332.5 485,-332.5 645,-332.5 645,-332.5 651,-332.5 657,-338.5 657,-344.5 657,-344.5 657,-414.75 657,-414.75 657,-420.75 651,-426.75 645,-426.75"/>
<text text-anchor="middle" x="565" y="-409.45" font-family="Helvetica,sans-Serif" font-size="14.00">22_A &lt;= 0.5</text>
<text text-anchor="middle" x="565" y="-392.2" font-family="Helvetica,sans-Serif" font-size="14.00">entropy = 1.0</text>
<text text-anchor="middle" x="565" y="-374.95" font-family="Helvetica,sans-Serif" font-size="14.00">samples = 36162</text>
<text text-anchor="middle" x="565" y="-357.7" font-family="Helvetica,sans-Serif" font-size="14.00">value = [27926, 29401]</text>
<text text-anchor="middle" x="565" y="-340.45" font-family="Helvetica,sans-Serif" font-size="14.00">class = Plant</text>
</g>
<!-- 0&#45;&gt;1 -->
<g id="edge1" class="edge">
<title>0&#45;&gt;1</title>
<path fill="none" stroke="black" d="M675.54,-462.57C663,-453.28 649.73,-443.44 636.9,-433.93"/>
<polygon fill="black" stroke="black" points="638.99,-431.12 628.87,-427.97 634.82,-436.74 638.99,-431.12"/>
<text text-anchor="middle" x="631.33" y="-447.13" font-family="Helvetica,sans-Serif" font-size="14.00">True</text>
</g>
<!-- 15878 -->
<g id="node17" class="node">
<title>15878</title>
<path fill="#eeaa7a" stroke="black" d="M982.5,-426.75C982.5,-426.75 849.5,-426.75 849.5,-426.75 843.5,-426.75 837.5,-420.75 837.5,-414.75 837.5,-414.75 837.5,-344.5 837.5,-344.5 837.5,-338.5 843.5,-332.5 849.5,-332.5 849.5,-332.5 982.5,-332.5 982.5,-332.5 988.5,-332.5 994.5,-338.5 994.5,-344.5 994.5,-344.5 994.5,-414.75 994.5,-414.75 994.5,-420.75 988.5,-426.75 982.5,-426.75"/>
<text text-anchor="middle" x="916" y="-409.45" font-family="Helvetica,sans-Serif" font-size="14.00">25_U &lt;= 0.5</text>
<text text-anchor="middle" x="916" y="-392.2" font-family="Helvetica,sans-Serif" font-size="14.00">entropy = 0.806</text>
<text text-anchor="middle" x="916" y="-374.95" font-family="Helvetica,sans-Serif" font-size="14.00">samples = 1903</text>
<text text-anchor="middle" x="916" y="-357.7" font-family="Helvetica,sans-Serif" font-size="14.00">value = [2274, 744]</text>
<text text-anchor="middle" x="916" y="-340.45" font-family="Helvetica,sans-Serif" font-size="14.00">class = Animal</text>
</g>
<!-- 0&#45;&gt;15878 -->
<g id="edge16" class="edge">
<title>0&#45;&gt;15878</title>
<path fill="none" stroke="black" d="M802.51,-462.39C815.45,-453.07 829.13,-443.22 842.35,-433.69"/>
<polygon fill="black" stroke="black" points="844.11,-436.73 850.18,-428.05 840.02,-431.06 844.11,-436.73"/>
<text text-anchor="middle" x="847.4" y="-447.17" font-family="Helvetica,sans-Serif" font-size="14.00">False</text>
</g>
<!-- 2 -->
<g id="node3" class="node">
<title>2</title>
<path fill="#e3f1fb" stroke="black" d="M374,-296.5C374,-296.5 214,-296.5 214,-296.5 208,-296.5 202,-290.5 202,-284.5 202,-284.5 202,-214.25 202,-214.25 202,-208.25 208,-202.25 214,-202.25 214,-202.25 374,-202.25 374,-202.25 380,-202.25 386,-208.25 386,-214.25 386,-214.25 386,-284.5 386,-284.5 386,-290.5 380,-296.5 374,-296.5"/>
<text text-anchor="middle" x="294" y="-279.2" font-family="Helvetica,sans-Serif" font-size="14.00">1_U &lt;= 0.5</text>
<text text-anchor="middle" x="294" y="-261.95" font-family="Helvetica,sans-Serif" font-size="14.00">entropy = 0.996</text>
<text text-anchor="middle" x="294" y="-244.7" font-family="Helvetica,sans-Serif" font-size="14.00">samples = 32502</text>
<text text-anchor="middle" x="294" y="-227.45" font-family="Helvetica,sans-Serif" font-size="14.00">value = [23832, 27710]</text>
<text text-anchor="middle" x="294" y="-210.2" font-family="Helvetica,sans-Serif" font-size="14.00">class = Plant</text>
</g>
<!-- 1&#45;&gt;2 -->
<g id="edge2" class="edge">
<title>1&#45;&gt;2</title>
<path fill="none" stroke="black" d="M472.87,-335.03C448.33,-323.41 421.66,-310.79 396.59,-298.93"/>
<polygon fill="black" stroke="black" points="398.24,-295.83 387.7,-294.72 395.24,-302.16 398.24,-295.83"/>
</g>
<!-- 14105 -->
<g id="node10" class="node">
<title>14105</title>
<path fill="#f0b58b" stroke="black" d="M636,-296.5C636,-296.5 494,-296.5 494,-296.5 488,-296.5 482,-290.5 482,-284.5 482,-284.5 482,-214.25 482,-214.25 482,-208.25 488,-202.25 494,-202.25 494,-202.25 636,-202.25 636,-202.25 642,-202.25 648,-208.25 648,-214.25 648,-214.25 648,-284.5 648,-284.5 648,-290.5 642,-296.5 636,-296.5"/>
<text text-anchor="middle" x="565" y="-279.2" font-family="Helvetica,sans-Serif" font-size="14.00">13_C &lt;= 0.5</text>
<text text-anchor="middle" x="565" y="-261.95" font-family="Helvetica,sans-Serif" font-size="14.00">entropy = 0.872</text>
<text text-anchor="middle" x="565" y="-244.7" font-family="Helvetica,sans-Serif" font-size="14.00">samples = 3660</text>
<text text-anchor="middle" x="565" y="-227.45" font-family="Helvetica,sans-Serif" font-size="14.00">value = [4094, 1691]</text>
<text text-anchor="middle" x="565" y="-210.2" font-family="Helvetica,sans-Serif" font-size="14.00">class = Animal</text>
</g>
<!-- 1&#45;&gt;14105 -->
<g id="edge9" class="edge">
<title>1&#45;&gt;14105</title>
<path fill="none" stroke="black" d="M565,-332.32C565,-324.42 565,-316.13 565,-307.98"/>
<polygon fill="black" stroke="black" points="568.5,-308.12 565,-298.12 561.5,-308.12 568.5,-308.12"/>
</g>
<!-- 3 -->
<g id="node4" class="node">
<title>3</title>
<path fill="#fae8db" stroke="black" d="M172,-166.25C172,-166.25 12,-166.25 12,-166.25 6,-166.25 0,-160.25 0,-154.25 0,-154.25 0,-84 0,-84 0,-78 6,-72 12,-72 12,-72 172,-72 172,-72 178,-72 184,-78 184,-84 184,-84 184,-154.25 184,-154.25 184,-160.25 178,-166.25 172,-166.25"/>
<text text-anchor="middle" x="92" y="-148.95" font-family="Helvetica,sans-Serif" font-size="14.00">12_G &lt;= 0.5</text>
<text text-anchor="middle" x="92" y="-131.7" font-family="Helvetica,sans-Serif" font-size="14.00">entropy = 0.993</text>
<text text-anchor="middle" x="92" y="-114.45" font-family="Helvetica,sans-Serif" font-size="14.00">samples = 15132</text>
<text text-anchor="middle" x="92" y="-97.2" font-family="Helvetica,sans-Serif" font-size="14.00">value = [13166, 10772]</text>
<text text-anchor="middle" x="92" y="-79.95" font-family="Helvetica,sans-Serif" font-size="14.00">class = Animal</text>
</g>
<!-- 2&#45;&gt;3 -->
<g id="edge3" class="edge">
<title>2&#45;&gt;3</title>
<path fill="none" stroke="black" d="M220.79,-201.89C205.83,-192.39 189.99,-182.34 174.72,-172.64"/>
<polygon fill="black" stroke="black" points="176.9,-169.88 166.58,-167.48 173.15,-175.79 176.9,-169.88"/>
</g>
<!-- 7962 -->
<g id="node7" class="node">
<title>7962</title>
<path fill="#b6dbf5" stroke="black" d="M374,-166.25C374,-166.25 214,-166.25 214,-166.25 208,-166.25 202,-160.25 202,-154.25 202,-154.25 202,-84 202,-84 202,-78 208,-72 214,-72 214,-72 374,-72 374,-72 380,-72 386,-78 386,-84 386,-84 386,-154.25 386,-154.25 386,-160.25 380,-166.25 374,-166.25"/>
<text text-anchor="middle" x="294" y="-148.95" font-family="Helvetica,sans-Serif" font-size="14.00">9_G &lt;= 0.5</text>
<text text-anchor="middle" x="294" y="-131.7" font-family="Helvetica,sans-Serif" font-size="14.00">entropy = 0.962</text>
<text text-anchor="middle" x="294" y="-114.45" font-family="Helvetica,sans-Serif" font-size="14.00">samples = 17370</text>
<text text-anchor="middle" x="294" y="-97.2" font-family="Helvetica,sans-Serif" font-size="14.00">value = [10666, 16938]</text>
<text text-anchor="middle" x="294" y="-79.95" font-family="Helvetica,sans-Serif" font-size="14.00">class = Plant</text>
</g>
<!-- 2&#45;&gt;7962 -->
<g id="edge6" class="edge">
<title>2&#45;&gt;7962</title>
<path fill="none" stroke="black" d="M294,-202.07C294,-194.17 294,-185.88 294,-177.73"/>
<polygon fill="black" stroke="black" points="297.5,-177.87 294,-167.87 290.5,-177.87 297.5,-177.87"/>
</g>
<!-- 4 -->
<g id="node5" class="node">
<title>4</title>
<path fill="#c0c0c0" stroke="black" d="M71,-36C71,-36 41,-36 41,-36 35,-36 29,-30 29,-24 29,-24 29,-12 29,-12 29,-6 35,0 41,0 41,0 71,0 71,0 77,0 83,-6 83,-12 83,-12 83,-24 83,-24 83,-30 77,-36 71,-36"/>
<text text-anchor="middle" x="56" y="-13.32" font-family="Helvetica,sans-Serif" font-size="14.00">(...)</text>
</g>
<!-- 3&#45;&gt;4 -->
<g id="edge4" class="edge">
<title>3&#45;&gt;4</title>
<path fill="none" stroke="black" d="M75.16,-71.75C72.06,-63.22 68.92,-54.57 66.1,-46.8"/>
<polygon fill="black" stroke="black" points="69.46,-45.8 62.75,-37.6 62.88,-48.19 69.46,-45.8"/>
</g>
<!-- 5747 -->
<g id="node6" class="node">
<title>5747</title>
<path fill="#c0c0c0" stroke="black" d="M143,-36C143,-36 113,-36 113,-36 107,-36 101,-30 101,-24 101,-24 101,-12 101,-12 101,-6 107,0 113,0 113,0 143,0 143,0 149,0 155,-6 155,-12 155,-12 155,-24 155,-24 155,-30 149,-36 143,-36"/>
<text text-anchor="middle" x="128" y="-13.32" font-family="Helvetica,sans-Serif" font-size="14.00">(...)</text>
</g>
<!-- 3&#45;&gt;5747 -->
<g id="edge5" class="edge">
<title>3&#45;&gt;5747</title>
<path fill="none" stroke="black" d="M108.84,-71.75C111.94,-63.22 115.08,-54.57 117.9,-46.8"/>
<polygon fill="black" stroke="black" points="121.12,-48.19 121.25,-37.6 114.54,-45.8 121.12,-48.19"/>
</g>
<!-- 7963 -->
<g id="node8" class="node">
<title>7963</title>
<path fill="#c0c0c0" stroke="black" d="M277,-36C277,-36 247,-36 247,-36 241,-36 235,-30 235,-24 235,-24 235,-12 235,-12 235,-6 241,0 247,0 247,0 277,0 277,0 283,0 289,-6 289,-12 289,-12 289,-24 289,-24 289,-30 283,-36 277,-36"/>
<text text-anchor="middle" x="262" y="-13.32" font-family="Helvetica,sans-Serif" font-size="14.00">(...)</text>
</g>
<!-- 7962&#45;&gt;7963 -->
<g id="edge7" class="edge">
<title>7962&#45;&gt;7963</title>
<path fill="none" stroke="black" d="M279.03,-71.75C276.31,-63.32 273.55,-54.77 271.06,-47.07"/>
<polygon fill="black" stroke="black" points="274.41,-46.05 268.01,-37.61 267.75,-48.2 274.41,-46.05"/>
</g>
<!-- 12488 -->
<g id="node9" class="node">
<title>12488</title>
<path fill="#c0c0c0" stroke="black" d="M349,-36C349,-36 319,-36 319,-36 313,-36 307,-30 307,-24 307,-24 307,-12 307,-12 307,-6 313,0 319,0 319,0 349,0 349,0 355,0 361,-6 361,-12 361,-12 361,-24 361,-24 361,-30 355,-36 349,-36"/>
<text text-anchor="middle" x="334" y="-13.32" font-family="Helvetica,sans-Serif" font-size="14.00">(...)</text>
</g>
<!-- 7962&#45;&gt;12488 -->
<g id="edge8" class="edge">
<title>7962&#45;&gt;12488</title>
<path fill="none" stroke="black" d="M312.71,-71.75C316.15,-63.22 319.65,-54.57 322.78,-46.8"/>
<polygon fill="black" stroke="black" points="326.01,-48.16 326.5,-37.58 319.52,-45.54 326.01,-48.16"/>
</g>
<!-- 14106 -->
<g id="node11" class="node">
<title>14106</title>
<path fill="#eeac7c" stroke="black" d="M558,-166.25C558,-166.25 416,-166.25 416,-166.25 410,-166.25 404,-160.25 404,-154.25 404,-154.25 404,-84 404,-84 404,-78 410,-72 416,-72 416,-72 558,-72 558,-72 564,-72 570,-78 570,-84 570,-84 570,-154.25 570,-154.25 570,-160.25 564,-166.25 558,-166.25"/>
<text text-anchor="middle" x="487" y="-148.95" font-family="Helvetica,sans-Serif" font-size="14.00">10_C &lt;= 0.5</text>
<text text-anchor="middle" x="487" y="-131.7" font-family="Helvetica,sans-Serif" font-size="14.00">entropy = 0.817</text>
<text text-anchor="middle" x="487" y="-114.45" font-family="Helvetica,sans-Serif" font-size="14.00">samples = 2698</text>
<text text-anchor="middle" x="487" y="-97.2" font-family="Helvetica,sans-Serif" font-size="14.00">value = [3202, 1088]</text>
<text text-anchor="middle" x="487" y="-79.95" font-family="Helvetica,sans-Serif" font-size="14.00">class = Animal</text>
</g>
<!-- 14105&#45;&gt;14106 -->
<g id="edge10" class="edge">
<title>14105&#45;&gt;14106</title>
<path fill="none" stroke="black" d="M536.84,-202.07C531.7,-193.63 526.3,-184.74 521.01,-176.05"/>
<polygon fill="black" stroke="black" points="524.09,-174.38 515.9,-167.65 518.11,-178.01 524.09,-174.38"/>
</g>
<!-- 15473 -->
<g id="node14" class="node">
<title>15473</title>
<path fill="#f7d6bf" stroke="black" d="M724,-166.25C724,-166.25 600,-166.25 600,-166.25 594,-166.25 588,-160.25 588,-154.25 588,-154.25 588,-84 588,-84 588,-78 594,-72 600,-72 600,-72 724,-72 724,-72 730,-72 736,-78 736,-84 736,-84 736,-154.25 736,-154.25 736,-160.25 730,-166.25 724,-166.25"/>
<text text-anchor="middle" x="662" y="-148.95" font-family="Helvetica,sans-Serif" font-size="14.00">10_U &lt;= 0.5</text>
<text text-anchor="middle" x="662" y="-131.7" font-family="Helvetica,sans-Serif" font-size="14.00">entropy = 0.973</text>
<text text-anchor="middle" x="662" y="-114.45" font-family="Helvetica,sans-Serif" font-size="14.00">samples = 962</text>
<text text-anchor="middle" x="662" y="-97.2" font-family="Helvetica,sans-Serif" font-size="14.00">value = [892, 603]</text>
<text text-anchor="middle" x="662" y="-79.95" font-family="Helvetica,sans-Serif" font-size="14.00">class = Animal</text>
</g>
<!-- 14105&#45;&gt;15473 -->
<g id="edge13" class="edge">
<title>14105&#45;&gt;15473</title>
<path fill="none" stroke="black" d="M600.02,-202.07C606.54,-193.45 613.42,-184.35 620.13,-175.49"/>
<polygon fill="black" stroke="black" points="622.88,-177.65 626.12,-167.57 617.3,-173.43 622.88,-177.65"/>
</g>
<!-- 14107 -->
<g id="node12" class="node">
<title>14107</title>
<path fill="#c0c0c0" stroke="black" d="M445,-36C445,-36 415,-36 415,-36 409,-36 403,-30 403,-24 403,-24 403,-12 403,-12 403,-6 409,0 415,0 415,0 445,0 445,0 451,0 457,-6 457,-12 457,-12 457,-24 457,-24 457,-30 451,-36 445,-36"/>
<text text-anchor="middle" x="430" y="-13.32" font-family="Helvetica,sans-Serif" font-size="14.00">(...)</text>
</g>
<!-- 14106&#45;&gt;14107 -->
<g id="edge11" class="edge">
<title>14106&#45;&gt;14107</title>
<path fill="none" stroke="black" d="M460.34,-71.75C455.26,-62.93 450.1,-53.96 445.52,-45.99"/>
<polygon fill="black" stroke="black" points="448.65,-44.41 440.63,-37.48 442.58,-47.9 448.65,-44.41"/>
</g>
<!-- 15202 -->
<g id="node13" class="node">
<title>15202</title>
<path fill="#c0c0c0" stroke="black" d="M517,-36C517,-36 487,-36 487,-36 481,-36 475,-30 475,-24 475,-24 475,-12 475,-12 475,-6 481,0 487,0 487,0 517,0 517,0 523,0 529,-6 529,-12 529,-12 529,-24 529,-24 529,-30 523,-36 517,-36"/>
<text text-anchor="middle" x="502" y="-13.32" font-family="Helvetica,sans-Serif" font-size="14.00">(...)</text>
</g>
<!-- 14106&#45;&gt;15202 -->
<g id="edge12" class="edge">
<title>14106&#45;&gt;15202</title>
<path fill="none" stroke="black" d="M494.02,-71.75C495.28,-63.42 496.56,-54.97 497.71,-47.34"/>
<polygon fill="black" stroke="black" points="501.14,-48.08 499.17,-37.67 494.22,-47.03 501.14,-48.08"/>
</g>
<!-- 15474 -->
<g id="node15" class="node">
<title>15474</title>
<path fill="#c0c0c0" stroke="black" d="M618,-36C618,-36 588,-36 588,-36 582,-36 576,-30 576,-24 576,-24 576,-12 576,-12 576,-6 582,0 588,0 588,0 618,0 618,0 624,0 630,-6 630,-12 630,-12 630,-24 630,-24 630,-30 624,-36 618,-36"/>
<text text-anchor="middle" x="603" y="-13.32" font-family="Helvetica,sans-Serif" font-size="14.00">(...)</text>
</g>
<!-- 15473&#45;&gt;15474 -->
<g id="edge14" class="edge">
<title>15473&#45;&gt;15474</title>
<path fill="none" stroke="black" d="M634.4,-71.75C629.15,-62.93 623.81,-53.96 619.06,-45.99"/>
<polygon fill="black" stroke="black" points="622.12,-44.28 614,-37.47 616.1,-47.86 622.12,-44.28"/>
</g>
<!-- 15769 -->
<g id="node16" class="node">
<title>15769</title>
<path fill="#c0c0c0" stroke="black" d="M690,-36C690,-36 660,-36 660,-36 654,-36 648,-30 648,-24 648,-24 648,-12 648,-12 648,-6 654,0 660,0 660,0 690,0 690,0 696,0 702,-6 702,-12 702,-12 702,-24 702,-24 702,-30 696,-36 690,-36"/>
<text text-anchor="middle" x="675" y="-13.32" font-family="Helvetica,sans-Serif" font-size="14.00">(...)</text>
</g>
<!-- 15473&#45;&gt;15769 -->
<g id="edge15" class="edge">
<title>15473&#45;&gt;15769</title>
<path fill="none" stroke="black" d="M668.08,-71.75C669.17,-63.42 670.28,-54.97 671.28,-47.34"/>
<polygon fill="black" stroke="black" points="674.72,-48.04 672.55,-37.67 667.78,-47.13 674.72,-48.04"/>
</g>
<!-- 15879 -->
<g id="node18" class="node">
<title>15879</title>
<path fill="#eda674" stroke="black" d="M982.5,-296.5C982.5,-296.5 849.5,-296.5 849.5,-296.5 843.5,-296.5 837.5,-290.5 837.5,-284.5 837.5,-284.5 837.5,-214.25 837.5,-214.25 837.5,-208.25 843.5,-202.25 849.5,-202.25 849.5,-202.25 982.5,-202.25 982.5,-202.25 988.5,-202.25 994.5,-208.25 994.5,-214.25 994.5,-214.25 994.5,-284.5 994.5,-284.5 994.5,-290.5 988.5,-296.5 982.5,-296.5"/>
<text text-anchor="middle" x="916" y="-279.2" font-family="Helvetica,sans-Serif" font-size="14.00">22_G &lt;= 0.5</text>
<text text-anchor="middle" x="916" y="-261.95" font-family="Helvetica,sans-Serif" font-size="14.00">entropy = 0.775</text>
<text text-anchor="middle" x="916" y="-244.7" font-family="Helvetica,sans-Serif" font-size="14.00">samples = 1813</text>
<text text-anchor="middle" x="916" y="-227.45" font-family="Helvetica,sans-Serif" font-size="14.00">value = [2218, 657]</text>
<text text-anchor="middle" x="916" y="-210.2" font-family="Helvetica,sans-Serif" font-size="14.00">class = Animal</text>
</g>
<!-- 15878&#45;&gt;15879 -->
<g id="edge17" class="edge">
<title>15878&#45;&gt;15879</title>
<path fill="none" stroke="black" d="M916,-332.32C916,-324.42 916,-316.13 916,-307.98"/>
<polygon fill="black" stroke="black" points="919.5,-308.12 916,-298.12 912.5,-308.12 919.5,-308.12"/>
</g>
<!-- 16588 -->
<g id="node25" class="node">
<title>16588</title>
<path fill="#b8dcf6" stroke="black" d="M1214.38,-296.5C1214.38,-296.5 1107.62,-296.5 1107.62,-296.5 1101.62,-296.5 1095.62,-290.5 1095.62,-284.5 1095.62,-284.5 1095.62,-214.25 1095.62,-214.25 1095.62,-208.25 1101.62,-202.25 1107.62,-202.25 1107.62,-202.25 1214.38,-202.25 1214.38,-202.25 1220.38,-202.25 1226.38,-208.25 1226.38,-214.25 1226.38,-214.25 1226.38,-284.5 1226.38,-284.5 1226.38,-290.5 1220.38,-296.5 1214.38,-296.5"/>
<text text-anchor="middle" x="1161" y="-279.2" font-family="Helvetica,sans-Serif" font-size="14.00">18_C &lt;= 0.5</text>
<text text-anchor="middle" x="1161" y="-261.95" font-family="Helvetica,sans-Serif" font-size="14.00">entropy = 0.966</text>
<text text-anchor="middle" x="1161" y="-244.7" font-family="Helvetica,sans-Serif" font-size="14.00">samples = 90</text>
<text text-anchor="middle" x="1161" y="-227.45" font-family="Helvetica,sans-Serif" font-size="14.00">value = [56, 87]</text>
<text text-anchor="middle" x="1161" y="-210.2" font-family="Helvetica,sans-Serif" font-size="14.00">class = Plant</text>
</g>
<!-- 15878&#45;&gt;16588 -->
<g id="edge24" class="edge">
<title>15878&#45;&gt;16588</title>
<path fill="none" stroke="black" d="M994.87,-337.34C1023.9,-322.14 1056.69,-304.98 1085.42,-289.94"/>
<polygon fill="black" stroke="black" points="1086.83,-293.15 1094.06,-285.41 1083.58,-286.95 1086.83,-293.15"/>
</g>
<!-- 15880 -->
<g id="node19" class="node">
<title>15880</title>
<path fill="#ea9a60" stroke="black" d="M899.5,-166.25C899.5,-166.25 766.5,-166.25 766.5,-166.25 760.5,-166.25 754.5,-160.25 754.5,-154.25 754.5,-154.25 754.5,-84 754.5,-84 754.5,-78 760.5,-72 766.5,-72 766.5,-72 899.5,-72 899.5,-72 905.5,-72 911.5,-78 911.5,-84 911.5,-84 911.5,-154.25 911.5,-154.25 911.5,-160.25 905.5,-166.25 899.5,-166.25"/>
<text text-anchor="middle" x="833" y="-148.95" font-family="Helvetica,sans-Serif" font-size="14.00">24_C &lt;= 0.5</text>
<text text-anchor="middle" x="833" y="-131.7" font-family="Helvetica,sans-Serif" font-size="14.00">entropy = 0.642</text>
<text text-anchor="middle" x="833" y="-114.45" font-family="Helvetica,sans-Serif" font-size="14.00">samples = 1345</text>
<text text-anchor="middle" x="833" y="-97.2" font-family="Helvetica,sans-Serif" font-size="14.00">value = [1764, 344]</text>
<text text-anchor="middle" x="833" y="-79.95" font-family="Helvetica,sans-Serif" font-size="14.00">class = Animal</text>
</g>
<!-- 15879&#45;&gt;15880 -->
<g id="edge18" class="edge">
<title>15879&#45;&gt;15880</title>
<path fill="none" stroke="black" d="M886.04,-202.07C880.51,-193.54 874.69,-184.54 869.01,-175.77"/>
<polygon fill="black" stroke="black" points="872.11,-174.12 863.74,-167.63 866.24,-177.93 872.11,-174.12"/>
</g>
<!-- 16349 -->
<g id="node22" class="node">
<title>16349</title>
<path fill="#f7d8c2" stroke="black" d="M1066,-166.25C1066,-166.25 942,-166.25 942,-166.25 936,-166.25 930,-160.25 930,-154.25 930,-154.25 930,-84 930,-84 930,-78 936,-72 942,-72 942,-72 1066,-72 1066,-72 1072,-72 1078,-78 1078,-84 1078,-84 1078,-154.25 1078,-154.25 1078,-160.25 1072,-166.25 1066,-166.25"/>
<text text-anchor="middle" x="1004" y="-148.95" font-family="Helvetica,sans-Serif" font-size="14.00">13_C &lt;= 0.5</text>
<text text-anchor="middle" x="1004" y="-131.7" font-family="Helvetica,sans-Serif" font-size="14.00">entropy = 0.975</text>
<text text-anchor="middle" x="1004" y="-114.45" font-family="Helvetica,sans-Serif" font-size="14.00">samples = 468</text>
<text text-anchor="middle" x="1004" y="-97.2" font-family="Helvetica,sans-Serif" font-size="14.00">value = [454, 313]</text>
<text text-anchor="middle" x="1004" y="-79.95" font-family="Helvetica,sans-Serif" font-size="14.00">class = Animal</text>
</g>
<!-- 15879&#45;&gt;16349 -->
<g id="edge21" class="edge">
<title>15879&#45;&gt;16349</title>
<path fill="none" stroke="black" d="M947.77,-202.07C953.63,-193.54 959.8,-184.54 965.82,-175.77"/>
<polygon fill="black" stroke="black" points="968.65,-177.83 971.42,-167.61 962.88,-173.87 968.65,-177.83"/>
</g>
<!-- 15881 -->
<g id="node20" class="node">
<title>15881</title>
<path fill="#c0c0c0" stroke="black" d="M789,-36C789,-36 759,-36 759,-36 753,-36 747,-30 747,-24 747,-24 747,-12 747,-12 747,-6 753,0 759,0 759,0 789,0 789,0 795,0 801,-6 801,-12 801,-12 801,-24 801,-24 801,-30 795,-36 789,-36"/>
<text text-anchor="middle" x="774" y="-13.32" font-family="Helvetica,sans-Serif" font-size="14.00">(...)</text>
</g>
<!-- 15880&#45;&gt;15881 -->
<g id="edge19" class="edge">
<title>15880&#45;&gt;15881</title>
<path fill="none" stroke="black" d="M805.4,-71.75C800.15,-62.93 794.81,-53.96 790.06,-45.99"/>
<polygon fill="black" stroke="black" points="793.12,-44.28 785,-37.47 787.1,-47.86 793.12,-44.28"/>
</g>
<!-- 16294 -->
<g id="node21" class="node">
<title>16294</title>
<path fill="#c0c0c0" stroke="black" d="M861,-36C861,-36 831,-36 831,-36 825,-36 819,-30 819,-24 819,-24 819,-12 819,-12 819,-6 825,0 831,0 831,0 861,0 861,0 867,0 873,-6 873,-12 873,-12 873,-24 873,-24 873,-30 867,-36 861,-36"/>
<text text-anchor="middle" x="846" y="-13.32" font-family="Helvetica,sans-Serif" font-size="14.00">(...)</text>
</g>
<!-- 15880&#45;&gt;16294 -->
<g id="edge20" class="edge">
<title>15880&#45;&gt;16294</title>
<path fill="none" stroke="black" d="M839.08,-71.75C840.17,-63.42 841.28,-54.97 842.28,-47.34"/>
<polygon fill="black" stroke="black" points="845.72,-48.04 843.55,-37.67 838.78,-47.13 845.72,-48.04"/>
</g>
<!-- 16350 -->
<g id="node23" class="node">
<title>16350</title>
<path fill="#c0c0c0" stroke="black" d="M953,-36C953,-36 923,-36 923,-36 917,-36 911,-30 911,-24 911,-24 911,-12 911,-12 911,-6 917,0 923,0 923,0 953,0 953,0 959,0 965,-6 965,-12 965,-12 965,-24 965,-24 965,-30 959,-36 953,-36"/>
<text text-anchor="middle" x="938" y="-13.32" font-family="Helvetica,sans-Serif" font-size="14.00">(...)</text>
</g>
<!-- 16349&#45;&gt;16350 -->
<g id="edge22" class="edge">
<title>16349&#45;&gt;16350</title>
<path fill="none" stroke="black" d="M973.13,-71.75C967.18,-62.83 961.14,-53.76 955.79,-45.72"/>
<polygon fill="black" stroke="black" points="958.73,-43.82 950.27,-37.43 952.9,-47.7 958.73,-43.82"/>
</g>
<!-- 16553 -->
<g id="node24" class="node">
<title>16553</title>
<path fill="#c0c0c0" stroke="black" d="M1025,-36C1025,-36 995,-36 995,-36 989,-36 983,-30 983,-24 983,-24 983,-12 983,-12 983,-6 989,0 995,0 995,0 1025,0 1025,0 1031,0 1037,-6 1037,-12 1037,-12 1037,-24 1037,-24 1037,-30 1031,-36 1025,-36"/>
<text text-anchor="middle" x="1010" y="-13.32" font-family="Helvetica,sans-Serif" font-size="14.00">(...)</text>
</g>
<!-- 16349&#45;&gt;16553 -->
<g id="edge23" class="edge">
<title>16349&#45;&gt;16553</title>
<path fill="none" stroke="black" d="M1006.81,-71.75C1007.31,-63.52 1007.81,-55.17 1008.27,-47.61"/>
<polygon fill="black" stroke="black" points="1011.76,-47.88 1008.87,-37.68 1004.77,-47.45 1011.76,-47.88"/>
</g>
<!-- 16589 -->
<g id="node26" class="node">
<title>16589</title>
<path fill="#f0b489" stroke="black" d="M1214.38,-166.25C1214.38,-166.25 1107.62,-166.25 1107.62,-166.25 1101.62,-166.25 1095.62,-160.25 1095.62,-154.25 1095.62,-154.25 1095.62,-84 1095.62,-84 1095.62,-78 1101.62,-72 1107.62,-72 1107.62,-72 1214.38,-72 1214.38,-72 1220.38,-72 1226.38,-78 1226.38,-84 1226.38,-84 1226.38,-154.25 1226.38,-154.25 1226.38,-160.25 1220.38,-166.25 1214.38,-166.25"/>
<text text-anchor="middle" x="1161" y="-148.95" font-family="Helvetica,sans-Serif" font-size="14.00">15_A &lt;= 0.5</text>
<text text-anchor="middle" x="1161" y="-131.7" font-family="Helvetica,sans-Serif" font-size="14.00">entropy = 0.866</text>
<text text-anchor="middle" x="1161" y="-114.45" font-family="Helvetica,sans-Serif" font-size="14.00">samples = 33</text>
<text text-anchor="middle" x="1161" y="-97.2" font-family="Helvetica,sans-Serif" font-size="14.00">value = [42, 17]</text>
<text text-anchor="middle" x="1161" y="-79.95" font-family="Helvetica,sans-Serif" font-size="14.00">class = Animal</text>
</g>
<!-- 16588&#45;&gt;16589 -->
<g id="edge25" class="edge">
<title>16588&#45;&gt;16589</title>
<path fill="none" stroke="black" d="M1161,-202.07C1161,-194.17 1161,-185.88 1161,-177.73"/>
<polygon fill="black" stroke="black" points="1164.5,-177.87 1161,-167.87 1157.5,-177.87 1164.5,-177.87"/>
</g>
<!-- 16610 -->
<g id="node29" class="node">
<title>16610</title>
<path fill="#61b1ea" stroke="black" d="M1362,-166.25C1362,-166.25 1256,-166.25 1256,-166.25 1250,-166.25 1244,-160.25 1244,-154.25 1244,-154.25 1244,-84 1244,-84 1244,-78 1250,-72 1256,-72 1256,-72 1362,-72 1362,-72 1368,-72 1374,-78 1374,-84 1374,-84 1374,-154.25 1374,-154.25 1374,-160.25 1368,-166.25 1362,-166.25"/>
<text text-anchor="middle" x="1309" y="-148.95" font-family="Helvetica,sans-Serif" font-size="14.00">1_C &lt;= 0.5</text>
<text text-anchor="middle" x="1309" y="-131.7" font-family="Helvetica,sans-Serif" font-size="14.00">entropy = 0.65</text>
<text text-anchor="middle" x="1309" y="-114.45" font-family="Helvetica,sans-Serif" font-size="14.00">samples = 57</text>
<text text-anchor="middle" x="1309" y="-97.2" font-family="Helvetica,sans-Serif" font-size="14.00">value = [14, 70]</text>
<text text-anchor="middle" x="1309" y="-79.95" font-family="Helvetica,sans-Serif" font-size="14.00">class = Plant</text>
</g>
<!-- 16588&#45;&gt;16610 -->
<g id="edge28" class="edge">
<title>16588&#45;&gt;16610</title>
<path fill="none" stroke="black" d="M1214.43,-202.07C1225.02,-192.9 1236.21,-183.2 1247.05,-173.81"/>
<polygon fill="black" stroke="black" points="1249.24,-176.54 1254.5,-167.35 1244.65,-171.25 1249.24,-176.54"/>
</g>
<!-- 16590 -->
<g id="node27" class="node">
<title>16590</title>
<path fill="#c0c0c0" stroke="black" d="M1124,-36C1124,-36 1094,-36 1094,-36 1088,-36 1082,-30 1082,-24 1082,-24 1082,-12 1082,-12 1082,-6 1088,0 1094,0 1094,0 1124,0 1124,0 1130,0 1136,-6 1136,-12 1136,-12 1136,-24 1136,-24 1136,-30 1130,-36 1124,-36"/>
<text text-anchor="middle" x="1109" y="-13.32" font-family="Helvetica,sans-Serif" font-size="14.00">(...)</text>
</g>
<!-- 16589&#45;&gt;16590 -->
<g id="edge26" class="edge">
<title>16589&#45;&gt;16590</title>
<path fill="none" stroke="black" d="M1136.67,-71.75C1132.1,-63.03 1127.45,-54.16 1123.3,-46.26"/>
<polygon fill="black" stroke="black" points="1126.46,-44.74 1118.71,-37.51 1120.26,-47.99 1126.46,-44.74"/>
</g>
<!-- 16603 -->
<g id="node28" class="node">
<title>16603</title>
<path fill="#c0c0c0" stroke="black" d="M1196,-36C1196,-36 1166,-36 1166,-36 1160,-36 1154,-30 1154,-24 1154,-24 1154,-12 1154,-12 1154,-6 1160,0 1166,0 1166,0 1196,0 1196,0 1202,0 1208,-6 1208,-12 1208,-12 1208,-24 1208,-24 1208,-30 1202,-36 1196,-36"/>
<text text-anchor="middle" x="1181" y="-13.32" font-family="Helvetica,sans-Serif" font-size="14.00">(...)</text>
</g>
<!-- 16589&#45;&gt;16603 -->
<g id="edge27" class="edge">
<title>16589&#45;&gt;16603</title>
<path fill="none" stroke="black" d="M1170.36,-71.75C1172.04,-63.42 1173.74,-54.97 1175.28,-47.34"/>
<polygon fill="black" stroke="black" points="1178.69,-48.15 1177.24,-37.66 1171.83,-46.77 1178.69,-48.15"/>
</g>
<!-- 16611 -->
<g id="node30" class="node">
<title>16611</title>
<path fill="#c0c0c0" stroke="black" d="M1288,-36C1288,-36 1258,-36 1258,-36 1252,-36 1246,-30 1246,-24 1246,-24 1246,-12 1246,-12 1246,-6 1252,0 1258,0 1258,0 1288,0 1288,0 1294,0 1300,-6 1300,-12 1300,-12 1300,-24 1300,-24 1300,-30 1294,-36 1288,-36"/>
<text text-anchor="middle" x="1273" y="-13.32" font-family="Helvetica,sans-Serif" font-size="14.00">(...)</text>
</g>
<!-- 16610&#45;&gt;16611 -->
<g id="edge29" class="edge">
<title>16610&#45;&gt;16611</title>
<path fill="none" stroke="black" d="M1292.16,-71.75C1289.06,-63.22 1285.92,-54.57 1283.1,-46.8"/>
<polygon fill="black" stroke="black" points="1286.46,-45.8 1279.75,-37.6 1279.88,-48.19 1286.46,-45.8"/>
</g>
<!-- 16626 -->
<g id="node31" class="node">
<title>16626</title>
<path fill="#c0c0c0" stroke="black" d="M1360,-36C1360,-36 1330,-36 1330,-36 1324,-36 1318,-30 1318,-24 1318,-24 1318,-12 1318,-12 1318,-6 1324,0 1330,0 1330,0 1360,0 1360,0 1366,0 1372,-6 1372,-12 1372,-12 1372,-24 1372,-24 1372,-30 1366,-36 1360,-36"/>
<text text-anchor="middle" x="1345" y="-13.32" font-family="Helvetica,sans-Serif" font-size="14.00">(...)</text>
</g>
<!-- 16610&#45;&gt;16626 -->
<g id="edge30" class="edge">
<title>16610&#45;&gt;16626</title>
<path fill="none" stroke="black" d="M1325.84,-71.75C1328.94,-63.22 1332.08,-54.57 1334.9,-46.8"/>
<polygon fill="black" stroke="black" points="1338.12,-48.19 1338.25,-37.6 1331.54,-45.8 1338.12,-48.19"/>
</g>
</g>
</svg>
