<?xml version="1.0" encoding="UTF-8" standalone="no"?>
<!DOCTYPE svg PUBLIC "-//W3C//DTD SVG 1.1//EN"
 "http://www.w3.org/Graphics/SVG/1.1/DTD/svg11.dtd">
<!-- Generated by graphviz version 12.0.0 (20240803.0821)
 -->
<!-- Title: Tree Pages: 1 -->
<svg width="1428pt" height="565pt"
 viewBox="0.00 0.00 1428.00 565.00" xmlns="http://www.w3.org/2000/svg" xmlns:xlink="http://www.w3.org/1999/xlink">
<g id="graph0" class="graph" transform="scale(1 1) rotate(0) translate(4 561)">
<title>Tree</title>
<polygon fill="white" stroke="none" points="-4,4 -4,-561 1424,-561 1424,4 -4,4"/>
<!-- 0 -->
<g id="node1" class="node">
<title>0</title>
<path fill="#fffefd" stroke="black" d="M812,-557C812,-557 652,-557 652,-557 646,-557 640,-551 640,-545 640,-545 640,-474.75 640,-474.75 640,-468.75 646,-462.75 652,-462.75 652,-462.75 812,-462.75 812,-462.75 818,-462.75 824,-468.75 824,-474.75 824,-474.75 824,-545 824,-545 824,-551 818,-557 812,-557"/>
<text text-anchor="middle" x="732" y="-539.7" font-family="Helvetica,sans-Serif" font-size="14.00">19_U &lt;= 0.5</text>
<text text-anchor="middle" x="732" y="-522.45" font-family="Helvetica,sans-Serif" font-size="14.00">entropy = 1.0</text>
<text text-anchor="middle" x="732" y="-505.2" font-family="Helvetica,sans-Serif" font-size="14.00">samples = 38187</text>
<text text-anchor="middle" x="732" y="-487.95" font-family="Helvetica,sans-Serif" font-size="14.00">value = [30322, 30023]</text>
<text text-anchor="middle" x="732" y="-470.7" font-family="Helvetica,sans-Serif" font-size="14.00">class = Animal</text>
</g>
<!-- 1 -->
<g id="node2" class="node">
<title>1</title>
<path fill="#e1f0fb" stroke="black" d="M628,-426.75C628,-426.75 468,-426.75 468,-426.75 462,-426.75 456,-420.75 456,-414.75 456,-414.75 456,-344.5 456,-344.5 456,-338.5 462,-332.5 468,-332.5 468,-332.5 628,-332.5 628,-332.5 634,-332.5 640,-338.5 640,-344.5 640,-344.5 640,-414.75 640,-414.75 640,-420.75 634,-426.75 628,-426.75"/>
<text text-anchor="middle" x="548" y="-409.45" font-family="Helvetica,sans-Serif" font-size="14.00">1_U &lt;= 0.5</text>
<text text-anchor="middle" x="548" y="-392.2" font-family="Helvetica,sans-Serif" font-size="14.00">entropy = 0.995</text>
<text text-anchor="middle" x="548" y="-374.95" font-family="Helvetica,sans-Serif" font-size="14.00">samples = 29116</text>
<text text-anchor="middle" x="548" y="-357.7" font-family="Helvetica,sans-Serif" font-size="14.00">value = [21087, 24890]</text>
<text text-anchor="middle" x="548" y="-340.45" font-family="Helvetica,sans-Serif" font-size="14.00">class = Plant</text>
</g>
<!-- 0&#45;&gt;1 -->
<g id="edge1" class="edge">
<title>0&#45;&gt;1</title>
<path fill="none" stroke="black" d="M665.31,-462.39C651.94,-453.07 637.8,-443.22 624.14,-433.69"/>
<polygon fill="black" stroke="black" points="626.22,-430.88 616.01,-428.03 622.21,-436.62 626.22,-430.88"/>
<text text-anchor="middle" x="619.16" y="-447.1" font-family="Helvetica,sans-Serif" font-size="14.00">True</text>
</g>
<!-- 12522 -->
<g id="node17" class="node">
<title>12522</title>
<path fill="#f3c7a7" stroke="black" d="M983,-426.75C983,-426.75 841,-426.75 841,-426.75 835,-426.75 829,-420.75 829,-414.75 829,-414.75 829,-344.5 829,-344.5 829,-338.5 835,-332.5 841,-332.5 841,-332.5 983,-332.5 983,-332.5 989,-332.5 995,-338.5 995,-344.5 995,-344.5 995,-414.75 995,-414.75 995,-420.75 989,-426.75 983,-426.75"/>
<text text-anchor="middle" x="912" y="-409.45" font-family="Helvetica,sans-Serif" font-size="14.00">1_C &lt;= 0.5</text>
<text text-anchor="middle" x="912" y="-392.2" font-family="Helvetica,sans-Serif" font-size="14.00">entropy = 0.94</text>
<text text-anchor="middle" x="912" y="-374.95" font-family="Helvetica,sans-Serif" font-size="14.00">samples = 9071</text>
<text text-anchor="middle" x="912" y="-357.7" font-family="Helvetica,sans-Serif" font-size="14.00">value = [9235, 5133]</text>
<text text-anchor="middle" x="912" y="-340.45" font-family="Helvetica,sans-Serif" font-size="14.00">class = Animal</text>
</g>
<!-- 0&#45;&gt;12522 -->
<g id="edge16" class="edge">
<title>0&#45;&gt;12522</title>
<path fill="none" stroke="black" d="M797.24,-462.39C810.32,-453.07 824.15,-443.22 837.52,-433.69"/>
<polygon fill="black" stroke="black" points="839.34,-436.7 845.45,-428.04 835.27,-430.99 839.34,-436.7"/>
<text text-anchor="middle" x="842.54" y="-447.14" font-family="Helvetica,sans-Serif" font-size="14.00">False</text>
</g>
<!-- 2 -->
<g id="node3" class="node">
<title>2</title>
<path fill="#fbece1" stroke="black" d="M342.5,-296.5C342.5,-296.5 191.5,-296.5 191.5,-296.5 185.5,-296.5 179.5,-290.5 179.5,-284.5 179.5,-284.5 179.5,-214.25 179.5,-214.25 179.5,-208.25 185.5,-202.25 191.5,-202.25 191.5,-202.25 342.5,-202.25 342.5,-202.25 348.5,-202.25 354.5,-208.25 354.5,-214.25 354.5,-214.25 354.5,-284.5 354.5,-284.5 354.5,-290.5 348.5,-296.5 342.5,-296.5"/>
<text text-anchor="middle" x="267" y="-279.2" font-family="Helvetica,sans-Serif" font-size="14.00">8_C &lt;= 0.5</text>
<text text-anchor="middle" x="267" y="-261.95" font-family="Helvetica,sans-Serif" font-size="14.00">entropy = 0.995</text>
<text text-anchor="middle" x="267" y="-244.7" font-family="Helvetica,sans-Serif" font-size="14.00">samples = 13190</text>
<text text-anchor="middle" x="267" y="-227.45" font-family="Helvetica,sans-Serif" font-size="14.00">value = [11240, 9557]</text>
<text text-anchor="middle" x="267" y="-210.2" font-family="Helvetica,sans-Serif" font-size="14.00">class = Animal</text>
</g>
<!-- 1&#45;&gt;2 -->
<g id="edge2" class="edge">
<title>1&#45;&gt;2</title>
<path fill="none" stroke="black" d="M455.6,-336.45C426.55,-323.2 394.39,-308.51 364.97,-295.09"/>
<polygon fill="black" stroke="black" points="366.61,-291.99 356.06,-291.02 363.71,-298.36 366.61,-291.99"/>
</g>
<!-- 6963 -->
<g id="node10" class="node">
<title>6963</title>
<path fill="#b8dcf6" stroke="black" d="M623.5,-296.5C623.5,-296.5 472.5,-296.5 472.5,-296.5 466.5,-296.5 460.5,-290.5 460.5,-284.5 460.5,-284.5 460.5,-214.25 460.5,-214.25 460.5,-208.25 466.5,-202.25 472.5,-202.25 472.5,-202.25 623.5,-202.25 623.5,-202.25 629.5,-202.25 635.5,-208.25 635.5,-214.25 635.5,-214.25 635.5,-284.5 635.5,-284.5 635.5,-290.5 629.5,-296.5 623.5,-296.5"/>
<text text-anchor="middle" x="548" y="-279.2" font-family="Helvetica,sans-Serif" font-size="14.00">3_U &lt;= 0.5</text>
<text text-anchor="middle" x="548" y="-261.95" font-family="Helvetica,sans-Serif" font-size="14.00">entropy = 0.965</text>
<text text-anchor="middle" x="548" y="-244.7" font-family="Helvetica,sans-Serif" font-size="14.00">samples = 15926</text>
<text text-anchor="middle" x="548" y="-227.45" font-family="Helvetica,sans-Serif" font-size="14.00">value = [9847, 15333]</text>
<text text-anchor="middle" x="548" y="-210.2" font-family="Helvetica,sans-Serif" font-size="14.00">class = Plant</text>
</g>
<!-- 1&#45;&gt;6963 -->
<g id="edge9" class="edge">
<title>1&#45;&gt;6963</title>
<path fill="none" stroke="black" d="M548,-332.32C548,-324.42 548,-316.13 548,-307.98"/>
<polygon fill="black" stroke="black" points="551.5,-308.12 548,-298.12 544.5,-308.12 551.5,-308.12"/>
</g>
<!-- 3 -->
<g id="node4" class="node">
<title>3</title>
<path fill="#fef8f4" stroke="black" d="M154,-166.25C154,-166.25 12,-166.25 12,-166.25 6,-166.25 0,-160.25 0,-154.25 0,-154.25 0,-84 0,-84 0,-78 6,-72 12,-72 12,-72 154,-72 154,-72 160,-72 166,-78 166,-84 166,-84 166,-154.25 166,-154.25 166,-160.25 160,-166.25 154,-166.25"/>
<text text-anchor="middle" x="83" y="-148.95" font-family="Helvetica,sans-Serif" font-size="14.00">22_C &lt;= 0.5</text>
<text text-anchor="middle" x="83" y="-131.7" font-family="Helvetica,sans-Serif" font-size="14.00">entropy = 0.999</text>
<text text-anchor="middle" x="83" y="-114.45" font-family="Helvetica,sans-Serif" font-size="14.00">samples = 10491</text>
<text text-anchor="middle" x="83" y="-97.2" font-family="Helvetica,sans-Serif" font-size="14.00">value = [8546, 8058]</text>
<text text-anchor="middle" x="83" y="-79.95" font-family="Helvetica,sans-Serif" font-size="14.00">class = Animal</text>
</g>
<!-- 2&#45;&gt;3 -->
<g id="edge3" class="edge">
<title>2&#45;&gt;3</title>
<path fill="none" stroke="black" d="M200.31,-201.89C186.94,-192.57 172.8,-182.72 159.14,-173.19"/>
<polygon fill="black" stroke="black" points="161.22,-170.38 151.01,-167.53 157.21,-176.12 161.22,-170.38"/>
</g>
<!-- 5418 -->
<g id="node7" class="node">
<title>5418</title>
<path fill="#f3c7a7" stroke="black" d="M338,-166.25C338,-166.25 196,-166.25 196,-166.25 190,-166.25 184,-160.25 184,-154.25 184,-154.25 184,-84 184,-84 184,-78 190,-72 196,-72 196,-72 338,-72 338,-72 344,-72 350,-78 350,-84 350,-84 350,-154.25 350,-154.25 350,-160.25 344,-166.25 338,-166.25"/>
<text text-anchor="middle" x="267" y="-148.95" font-family="Helvetica,sans-Serif" font-size="14.00">5_G &lt;= 0.5</text>
<text text-anchor="middle" x="267" y="-131.7" font-family="Helvetica,sans-Serif" font-size="14.00">entropy = 0.941</text>
<text text-anchor="middle" x="267" y="-114.45" font-family="Helvetica,sans-Serif" font-size="14.00">samples = 2699</text>
<text text-anchor="middle" x="267" y="-97.2" font-family="Helvetica,sans-Serif" font-size="14.00">value = [2694, 1499]</text>
<text text-anchor="middle" x="267" y="-79.95" font-family="Helvetica,sans-Serif" font-size="14.00">class = Animal</text>
</g>
<!-- 2&#45;&gt;5418 -->
<g id="edge6" class="edge">
<title>2&#45;&gt;5418</title>
<path fill="none" stroke="black" d="M267,-202.07C267,-194.17 267,-185.88 267,-177.73"/>
<polygon fill="black" stroke="black" points="270.5,-177.87 267,-167.87 263.5,-177.87 270.5,-177.87"/>
</g>
<!-- 4 -->
<g id="node5" class="node">
<title>4</title>
<path fill="#c0c0c0" stroke="black" d="M62,-36C62,-36 32,-36 32,-36 26,-36 20,-30 20,-24 20,-24 20,-12 20,-12 20,-6 26,0 32,0 32,0 62,0 62,0 68,0 74,-6 74,-12 74,-12 74,-24 74,-24 74,-30 68,-36 62,-36"/>
<text text-anchor="middle" x="47" y="-13.32" font-family="Helvetica,sans-Serif" font-size="14.00">(...)</text>
</g>
<!-- 3&#45;&gt;4 -->
<g id="edge4" class="edge">
<title>3&#45;&gt;4</title>
<path fill="none" stroke="black" d="M66.16,-71.75C63.06,-63.22 59.92,-54.57 57.1,-46.8"/>
<polygon fill="black" stroke="black" points="60.46,-45.8 53.75,-37.6 53.88,-48.19 60.46,-45.8"/>
</g>
<!-- 4857 -->
<g id="node6" class="node">
<title>4857</title>
<path fill="#c0c0c0" stroke="black" d="M134,-36C134,-36 104,-36 104,-36 98,-36 92,-30 92,-24 92,-24 92,-12 92,-12 92,-6 98,0 104,0 104,0 134,0 134,0 140,0 146,-6 146,-12 146,-12 146,-24 146,-24 146,-30 140,-36 134,-36"/>
<text text-anchor="middle" x="119" y="-13.32" font-family="Helvetica,sans-Serif" font-size="14.00">(...)</text>
</g>
<!-- 3&#45;&gt;4857 -->
<g id="edge5" class="edge">
<title>3&#45;&gt;4857</title>
<path fill="none" stroke="black" d="M99.84,-71.75C102.94,-63.22 106.08,-54.57 108.9,-46.8"/>
<polygon fill="black" stroke="black" points="112.12,-48.19 112.25,-37.6 105.54,-45.8 112.12,-48.19"/>
</g>
<!-- 5419 -->
<g id="node8" class="node">
<title>5419</title>
<path fill="#c0c0c0" stroke="black" d="M255,-36C255,-36 225,-36 225,-36 219,-36 213,-30 213,-24 213,-24 213,-12 213,-12 213,-6 219,0 225,0 225,0 255,0 255,0 261,0 267,-6 267,-12 267,-12 267,-24 267,-24 267,-30 261,-36 255,-36"/>
<text text-anchor="middle" x="240" y="-13.32" font-family="Helvetica,sans-Serif" font-size="14.00">(...)</text>
</g>
<!-- 5418&#45;&gt;5419 -->
<g id="edge7" class="edge">
<title>5418&#45;&gt;5419</title>
<path fill="none" stroke="black" d="M254.37,-71.75C252.07,-63.32 249.74,-54.77 247.65,-47.07"/>
<polygon fill="black" stroke="black" points="251.08,-46.36 245.08,-37.63 244.33,-48.2 251.08,-46.36"/>
</g>
<!-- 6534 -->
<g id="node9" class="node">
<title>6534</title>
<path fill="#c0c0c0" stroke="black" d="M327,-36C327,-36 297,-36 297,-36 291,-36 285,-30 285,-24 285,-24 285,-12 285,-12 285,-6 291,0 297,0 297,0 327,0 327,0 333,0 339,-6 339,-12 339,-12 339,-24 339,-24 339,-30 333,-36 327,-36"/>
<text text-anchor="middle" x="312" y="-13.32" font-family="Helvetica,sans-Serif" font-size="14.00">(...)</text>
</g>
<!-- 5418&#45;&gt;6534 -->
<g id="edge8" class="edge">
<title>5418&#45;&gt;6534</title>
<path fill="none" stroke="black" d="M288.05,-71.75C291.97,-63.12 295.95,-54.36 299.5,-46.53"/>
<polygon fill="black" stroke="black" points="302.63,-48.1 303.58,-37.55 296.26,-45.21 302.63,-48.1"/>
</g>
<!-- 6964 -->
<g id="node11" class="node">
<title>6964</title>
<path fill="#a8d4f4" stroke="black" d="M531.5,-166.25C531.5,-166.25 380.5,-166.25 380.5,-166.25 374.5,-166.25 368.5,-160.25 368.5,-154.25 368.5,-154.25 368.5,-84 368.5,-84 368.5,-78 374.5,-72 380.5,-72 380.5,-72 531.5,-72 531.5,-72 537.5,-72 543.5,-78 543.5,-84 543.5,-84 543.5,-154.25 543.5,-154.25 543.5,-160.25 537.5,-166.25 531.5,-166.25"/>
<text text-anchor="middle" x="456" y="-148.95" font-family="Helvetica,sans-Serif" font-size="14.00">19_C &lt;= 0.5</text>
<text text-anchor="middle" x="456" y="-131.7" font-family="Helvetica,sans-Serif" font-size="14.00">entropy = 0.941</text>
<text text-anchor="middle" x="456" y="-114.45" font-family="Helvetica,sans-Serif" font-size="14.00">samples = 13102</text>
<text text-anchor="middle" x="456" y="-97.2" font-family="Helvetica,sans-Serif" font-size="14.00">value = [7435, 13305]</text>
<text text-anchor="middle" x="456" y="-79.95" font-family="Helvetica,sans-Serif" font-size="14.00">class = Plant</text>
</g>
<!-- 6963&#45;&gt;6964 -->
<g id="edge10" class="edge">
<title>6963&#45;&gt;6964</title>
<path fill="none" stroke="black" d="M514.79,-202.07C508.6,-193.45 502.07,-184.35 495.71,-175.49"/>
<polygon fill="black" stroke="black" points="498.72,-173.67 490.05,-167.59 493.03,-177.75 498.72,-173.67"/>
</g>
<!-- 11117 -->
<g id="node14" class="node">
<title>11117</title>
<path fill="#fbebdf" stroke="black" d="M716,-166.25C716,-166.25 574,-166.25 574,-166.25 568,-166.25 562,-160.25 562,-154.25 562,-154.25 562,-84 562,-84 562,-78 568,-72 574,-72 574,-72 716,-72 716,-72 722,-72 728,-78 728,-84 728,-84 728,-154.25 728,-154.25 728,-160.25 722,-166.25 716,-166.25"/>
<text text-anchor="middle" x="645" y="-148.95" font-family="Helvetica,sans-Serif" font-size="14.00">2_A &lt;= 0.5</text>
<text text-anchor="middle" x="645" y="-131.7" font-family="Helvetica,sans-Serif" font-size="14.00">entropy = 0.995</text>
<text text-anchor="middle" x="645" y="-114.45" font-family="Helvetica,sans-Serif" font-size="14.00">samples = 2824</text>
<text text-anchor="middle" x="645" y="-97.2" font-family="Helvetica,sans-Serif" font-size="14.00">value = [2412, 2028]</text>
<text text-anchor="middle" x="645" y="-79.95" font-family="Helvetica,sans-Serif" font-size="14.00">class = Animal</text>
</g>
<!-- 6963&#45;&gt;11117 -->
<g id="edge13" class="edge">
<title>6963&#45;&gt;11117</title>
<path fill="none" stroke="black" d="M583.02,-202.07C589.54,-193.45 596.42,-184.35 603.13,-175.49"/>
<polygon fill="black" stroke="black" points="605.88,-177.65 609.12,-167.57 600.3,-173.43 605.88,-177.65"/>
</g>
<!-- 6965 -->
<g id="node12" class="node">
<title>6965</title>
<path fill="#c0c0c0" stroke="black" d="M421,-36C421,-36 391,-36 391,-36 385,-36 379,-30 379,-24 379,-24 379,-12 379,-12 379,-6 385,0 391,0 391,0 421,0 421,0 427,0 433,-6 433,-12 433,-12 433,-24 433,-24 433,-30 427,-36 421,-36"/>
<text text-anchor="middle" x="406" y="-13.32" font-family="Helvetica,sans-Serif" font-size="14.00">(...)</text>
</g>
<!-- 6964&#45;&gt;6965 -->
<g id="edge11" class="edge">
<title>6964&#45;&gt;6965</title>
<path fill="none" stroke="black" d="M432.61,-71.75C428.21,-63.03 423.74,-54.16 419.75,-46.26"/>
<polygon fill="black" stroke="black" points="422.97,-44.88 415.34,-37.52 416.72,-48.03 422.97,-44.88"/>
</g>
<!-- 9636 -->
<g id="node13" class="node">
<title>9636</title>
<path fill="#c0c0c0" stroke="black" d="M493,-36C493,-36 463,-36 463,-36 457,-36 451,-30 451,-24 451,-24 451,-12 451,-12 451,-6 457,0 463,0 463,0 493,0 493,0 499,0 505,-6 505,-12 505,-12 505,-24 505,-24 505,-30 499,-36 493,-36"/>
<text text-anchor="middle" x="478" y="-13.32" font-family="Helvetica,sans-Serif" font-size="14.00">(...)</text>
</g>
<!-- 6964&#45;&gt;9636 -->
<g id="edge12" class="edge">
<title>6964&#45;&gt;9636</title>
<path fill="none" stroke="black" d="M466.29,-71.75C468.14,-63.42 470.02,-54.97 471.71,-47.34"/>
<polygon fill="black" stroke="black" points="475.11,-48.17 473.86,-37.65 468.28,-46.65 475.11,-48.17"/>
</g>
<!-- 11118 -->
<g id="node15" class="node">
<title>11118</title>
<path fill="#c0c0c0" stroke="black" d="M608,-36C608,-36 578,-36 578,-36 572,-36 566,-30 566,-24 566,-24 566,-12 566,-12 566,-6 572,0 578,0 578,0 608,0 608,0 614,0 620,-6 620,-12 620,-12 620,-24 620,-24 620,-30 614,-36 608,-36"/>
<text text-anchor="middle" x="593" y="-13.32" font-family="Helvetica,sans-Serif" font-size="14.00">(...)</text>
</g>
<!-- 11117&#45;&gt;11118 -->
<g id="edge14" class="edge">
<title>11117&#45;&gt;11118</title>
<path fill="none" stroke="black" d="M620.67,-71.75C616.1,-63.03 611.45,-54.16 607.3,-46.26"/>
<polygon fill="black" stroke="black" points="610.46,-44.74 602.71,-37.51 604.26,-47.99 610.46,-44.74"/>
</g>
<!-- 12289 -->
<g id="node16" class="node">
<title>12289</title>
<path fill="#c0c0c0" stroke="black" d="M680,-36C680,-36 650,-36 650,-36 644,-36 638,-30 638,-24 638,-24 638,-12 638,-12 638,-6 644,0 650,0 650,0 680,0 680,0 686,0 692,-6 692,-12 692,-12 692,-24 692,-24 692,-30 686,-36 680,-36"/>
<text text-anchor="middle" x="665" y="-13.32" font-family="Helvetica,sans-Serif" font-size="14.00">(...)</text>
</g>
<!-- 11117&#45;&gt;12289 -->
<g id="edge15" class="edge">
<title>11117&#45;&gt;12289</title>
<path fill="none" stroke="black" d="M654.36,-71.75C656.04,-63.42 657.74,-54.97 659.28,-47.34"/>
<polygon fill="black" stroke="black" points="662.69,-48.15 661.24,-37.66 655.83,-46.77 662.69,-48.15"/>
</g>
<!-- 12523 -->
<g id="node18" class="node">
<title>12523</title>
<path fill="#f5cdb0" stroke="black" d="M983,-296.5C983,-296.5 841,-296.5 841,-296.5 835,-296.5 829,-290.5 829,-284.5 829,-284.5 829,-214.25 829,-214.25 829,-208.25 835,-202.25 841,-202.25 841,-202.25 983,-202.25 983,-202.25 989,-202.25 995,-208.25 995,-214.25 995,-214.25 995,-284.5 995,-284.5 995,-290.5 989,-296.5 983,-296.5"/>
<text text-anchor="middle" x="912" y="-279.2" font-family="Helvetica,sans-Serif" font-size="14.00">23_C &lt;= 0.5</text>
<text text-anchor="middle" x="912" y="-261.95" font-family="Helvetica,sans-Serif" font-size="14.00">entropy = 0.955</text>
<text text-anchor="middle" x="912" y="-244.7" font-family="Helvetica,sans-Serif" font-size="14.00">samples = 7537</text>
<text text-anchor="middle" x="912" y="-227.45" font-family="Helvetica,sans-Serif" font-size="14.00">value = [7470, 4498]</text>
<text text-anchor="middle" x="912" y="-210.2" font-family="Helvetica,sans-Serif" font-size="14.00">class = Animal</text>
</g>
<!-- 12522&#45;&gt;12523 -->
<g id="edge17" class="edge">
<title>12522&#45;&gt;12523</title>
<path fill="none" stroke="black" d="M912,-332.32C912,-324.42 912,-316.13 912,-307.98"/>
<polygon fill="black" stroke="black" points="915.5,-308.12 912,-298.12 908.5,-308.12 915.5,-308.12"/>
</g>
<!-- 16200 -->
<g id="node25" class="node">
<title>16200</title>
<path fill="#eeae80" stroke="black" d="M1241.5,-296.5C1241.5,-296.5 1108.5,-296.5 1108.5,-296.5 1102.5,-296.5 1096.5,-290.5 1096.5,-284.5 1096.5,-284.5 1096.5,-214.25 1096.5,-214.25 1096.5,-208.25 1102.5,-202.25 1108.5,-202.25 1108.5,-202.25 1241.5,-202.25 1241.5,-202.25 1247.5,-202.25 1253.5,-208.25 1253.5,-214.25 1253.5,-214.25 1253.5,-284.5 1253.5,-284.5 1253.5,-290.5 1247.5,-296.5 1241.5,-296.5"/>
<text text-anchor="middle" x="1175" y="-279.2" font-family="Helvetica,sans-Serif" font-size="14.00">15_C &lt;= 0.5</text>
<text text-anchor="middle" x="1175" y="-261.95" font-family="Helvetica,sans-Serif" font-size="14.00">entropy = 0.834</text>
<text text-anchor="middle" x="1175" y="-244.7" font-family="Helvetica,sans-Serif" font-size="14.00">samples = 1534</text>
<text text-anchor="middle" x="1175" y="-227.45" font-family="Helvetica,sans-Serif" font-size="14.00">value = [1765, 635]</text>
<text text-anchor="middle" x="1175" y="-210.2" font-family="Helvetica,sans-Serif" font-size="14.00">class = Animal</text>
</g>
<!-- 12522&#45;&gt;16200 -->
<g id="edge24" class="edge">
<title>12522&#45;&gt;16200</title>
<path fill="none" stroke="black" d="M995.21,-338.05C1024.16,-323.93 1056.72,-308.05 1086.11,-293.72"/>
<polygon fill="black" stroke="black" points="1087.54,-296.92 1095,-289.39 1084.48,-290.62 1087.54,-296.92"/>
</g>
<!-- 12524 -->
<g id="node19" class="node">
<title>12524</title>
<path fill="#f5cfb4" stroke="black" d="M900,-166.25C900,-166.25 758,-166.25 758,-166.25 752,-166.25 746,-160.25 746,-154.25 746,-154.25 746,-84 746,-84 746,-78 752,-72 758,-72 758,-72 900,-72 900,-72 906,-72 912,-78 912,-84 912,-84 912,-154.25 912,-154.25 912,-160.25 906,-166.25 900,-166.25"/>
<text text-anchor="middle" x="829" y="-148.95" font-family="Helvetica,sans-Serif" font-size="14.00">16_A &lt;= 0.5</text>
<text text-anchor="middle" x="829" y="-131.7" font-family="Helvetica,sans-Serif" font-size="14.00">entropy = 0.96</text>
<text text-anchor="middle" x="829" y="-114.45" font-family="Helvetica,sans-Serif" font-size="14.00">samples = 7241</text>
<text text-anchor="middle" x="829" y="-97.2" font-family="Helvetica,sans-Serif" font-size="14.00">value = [7103, 4397]</text>
<text text-anchor="middle" x="829" y="-79.95" font-family="Helvetica,sans-Serif" font-size="14.00">class = Animal</text>
</g>
<!-- 12523&#45;&gt;12524 -->
<g id="edge18" class="edge">
<title>12523&#45;&gt;12524</title>
<path fill="none" stroke="black" d="M882.04,-202.07C876.51,-193.54 870.69,-184.54 865.01,-175.77"/>
<polygon fill="black" stroke="black" points="868.11,-174.12 859.74,-167.63 862.24,-177.93 868.11,-174.12"/>
</g>
<!-- 16069 -->
<g id="node22" class="node">
<title>16069</title>
<path fill="#eca46f" stroke="black" d="M1066,-166.25C1066,-166.25 942,-166.25 942,-166.25 936,-166.25 930,-160.25 930,-154.25 930,-154.25 930,-84 930,-84 930,-78 936,-72 942,-72 942,-72 1066,-72 1066,-72 1072,-72 1078,-78 1078,-84 1078,-84 1078,-154.25 1078,-154.25 1078,-160.25 1072,-166.25 1066,-166.25"/>
<text text-anchor="middle" x="1004" y="-148.95" font-family="Helvetica,sans-Serif" font-size="14.00">16_G &lt;= 0.5</text>
<text text-anchor="middle" x="1004" y="-131.7" font-family="Helvetica,sans-Serif" font-size="14.00">entropy = 0.752</text>
<text text-anchor="middle" x="1004" y="-114.45" font-family="Helvetica,sans-Serif" font-size="14.00">samples = 296</text>
<text text-anchor="middle" x="1004" y="-97.2" font-family="Helvetica,sans-Serif" font-size="14.00">value = [367, 101]</text>
<text text-anchor="middle" x="1004" y="-79.95" font-family="Helvetica,sans-Serif" font-size="14.00">class = Animal</text>
</g>
<!-- 12523&#45;&gt;16069 -->
<g id="edge21" class="edge">
<title>12523&#45;&gt;16069</title>
<path fill="none" stroke="black" d="M945.21,-202.07C951.4,-193.45 957.93,-184.35 964.29,-175.49"/>
<polygon fill="black" stroke="black" points="966.97,-177.75 969.95,-167.59 961.28,-173.67 966.97,-177.75"/>
</g>
<!-- 12525 -->
<g id="node20" class="node">
<title>12525</title>
<path fill="#c0c0c0" stroke="black" d="M787,-36C787,-36 757,-36 757,-36 751,-36 745,-30 745,-24 745,-24 745,-12 745,-12 745,-6 751,0 757,0 757,0 787,0 787,0 793,0 799,-6 799,-12 799,-12 799,-24 799,-24 799,-30 793,-36 787,-36"/>
<text text-anchor="middle" x="772" y="-13.32" font-family="Helvetica,sans-Serif" font-size="14.00">(...)</text>
</g>
<!-- 12524&#45;&gt;12525 -->
<g id="edge19" class="edge">
<title>12524&#45;&gt;12525</title>
<path fill="none" stroke="black" d="M802.34,-71.75C797.26,-62.93 792.1,-53.96 787.52,-45.99"/>
<polygon fill="black" stroke="black" points="790.65,-44.41 782.63,-37.48 784.58,-47.9 790.65,-44.41"/>
</g>
<!-- 15242 -->
<g id="node21" class="node">
<title>15242</title>
<path fill="#c0c0c0" stroke="black" d="M859,-36C859,-36 829,-36 829,-36 823,-36 817,-30 817,-24 817,-24 817,-12 817,-12 817,-6 823,0 829,0 829,0 859,0 859,0 865,0 871,-6 871,-12 871,-12 871,-24 871,-24 871,-30 865,-36 859,-36"/>
<text text-anchor="middle" x="844" y="-13.32" font-family="Helvetica,sans-Serif" font-size="14.00">(...)</text>
</g>
<!-- 12524&#45;&gt;15242 -->
<g id="edge20" class="edge">
<title>12524&#45;&gt;15242</title>
<path fill="none" stroke="black" d="M836.02,-71.75C837.28,-63.42 838.56,-54.97 839.71,-47.34"/>
<polygon fill="black" stroke="black" points="843.14,-48.08 841.17,-37.67 836.22,-47.03 843.14,-48.08"/>
</g>
<!-- 16070 -->
<g id="node23" class="node">
<title>16070</title>
<path fill="#c0c0c0" stroke="black" d="M960,-36C960,-36 930,-36 930,-36 924,-36 918,-30 918,-24 918,-24 918,-12 918,-12 918,-6 924,0 930,0 930,0 960,0 960,0 966,0 972,-6 972,-12 972,-12 972,-24 972,-24 972,-30 966,-36 960,-36"/>
<text text-anchor="middle" x="945" y="-13.32" font-family="Helvetica,sans-Serif" font-size="14.00">(...)</text>
</g>
<!-- 16069&#45;&gt;16070 -->
<g id="edge22" class="edge">
<title>16069&#45;&gt;16070</title>
<path fill="none" stroke="black" d="M976.4,-71.75C971.15,-62.93 965.81,-53.96 961.06,-45.99"/>
<polygon fill="black" stroke="black" points="964.12,-44.28 956,-37.47 958.1,-47.86 964.12,-44.28"/>
</g>
<!-- 16155 -->
<g id="node24" class="node">
<title>16155</title>
<path fill="#c0c0c0" stroke="black" d="M1032,-36C1032,-36 1002,-36 1002,-36 996,-36 990,-30 990,-24 990,-24 990,-12 990,-12 990,-6 996,0 1002,0 1002,0 1032,0 1032,0 1038,0 1044,-6 1044,-12 1044,-12 1044,-24 1044,-24 1044,-30 1038,-36 1032,-36"/>
<text text-anchor="middle" x="1017" y="-13.32" font-family="Helvetica,sans-Serif" font-size="14.00">(...)</text>
</g>
<!-- 16069&#45;&gt;16155 -->
<g id="edge23" class="edge">
<title>16069&#45;&gt;16155</title>
<path fill="none" stroke="black" d="M1010.08,-71.75C1011.17,-63.42 1012.28,-54.97 1013.28,-47.34"/>
<polygon fill="black" stroke="black" points="1016.72,-48.04 1014.55,-37.67 1009.78,-47.13 1016.72,-48.04"/>
</g>
<!-- 16201 -->
<g id="node26" class="node">
<title>16201</title>
<path fill="#eda774" stroke="black" d="M1241.5,-166.25C1241.5,-166.25 1108.5,-166.25 1108.5,-166.25 1102.5,-166.25 1096.5,-160.25 1096.5,-154.25 1096.5,-154.25 1096.5,-84 1096.5,-84 1096.5,-78 1102.5,-72 1108.5,-72 1108.5,-72 1241.5,-72 1241.5,-72 1247.5,-72 1253.5,-78 1253.5,-84 1253.5,-84 1253.5,-154.25 1253.5,-154.25 1253.5,-160.25 1247.5,-166.25 1241.5,-166.25"/>
<text text-anchor="middle" x="1175" y="-148.95" font-family="Helvetica,sans-Serif" font-size="14.00">8_A &lt;= 0.5</text>
<text text-anchor="middle" x="1175" y="-131.7" font-family="Helvetica,sans-Serif" font-size="14.00">entropy = 0.779</text>
<text text-anchor="middle" x="1175" y="-114.45" font-family="Helvetica,sans-Serif" font-size="14.00">samples = 1194</text>
<text text-anchor="middle" x="1175" y="-97.2" font-family="Helvetica,sans-Serif" font-size="14.00">value = [1437, 430]</text>
<text text-anchor="middle" x="1175" y="-79.95" font-family="Helvetica,sans-Serif" font-size="14.00">class = Animal</text>
</g>
<!-- 16200&#45;&gt;16201 -->
<g id="edge25" class="edge">
<title>16200&#45;&gt;16201</title>
<path fill="none" stroke="black" d="M1175,-202.07C1175,-194.17 1175,-185.88 1175,-177.73"/>
<polygon fill="black" stroke="black" points="1178.5,-177.87 1175,-167.87 1171.5,-177.87 1178.5,-177.87"/>
</g>
<!-- 16752 -->
<g id="node29" class="node">
<title>16752</title>
<path fill="#f5d0b5" stroke="black" d="M1408,-166.25C1408,-166.25 1284,-166.25 1284,-166.25 1278,-166.25 1272,-160.25 1272,-154.25 1272,-154.25 1272,-84 1272,-84 1272,-78 1278,-72 1284,-72 1284,-72 1408,-72 1408,-72 1414,-72 1420,-78 1420,-84 1420,-84 1420,-154.25 1420,-154.25 1420,-160.25 1414,-166.25 1408,-166.25"/>
<text text-anchor="middle" x="1346" y="-148.95" font-family="Helvetica,sans-Serif" font-size="14.00">18_C &lt;= 0.5</text>
<text text-anchor="middle" x="1346" y="-131.7" font-family="Helvetica,sans-Serif" font-size="14.00">entropy = 0.961</text>
<text text-anchor="middle" x="1346" y="-114.45" font-family="Helvetica,sans-Serif" font-size="14.00">samples = 340</text>
<text text-anchor="middle" x="1346" y="-97.2" font-family="Helvetica,sans-Serif" font-size="14.00">value = [328, 205]</text>
<text text-anchor="middle" x="1346" y="-79.95" font-family="Helvetica,sans-Serif" font-size="14.00">class = Animal</text>
</g>
<!-- 16200&#45;&gt;16752 -->
<g id="edge28" class="edge">
<title>16200&#45;&gt;16752</title>
<path fill="none" stroke="black" d="M1236.73,-202.07C1249.13,-192.78 1262.25,-182.94 1274.93,-173.43"/>
<polygon fill="black" stroke="black" points="1276.96,-176.28 1282.86,-167.48 1272.76,-170.68 1276.96,-176.28"/>
</g>
<!-- 16202 -->
<g id="node27" class="node">
<title>16202</title>
<path fill="#c0c0c0" stroke="black" d="M1149,-36C1149,-36 1119,-36 1119,-36 1113,-36 1107,-30 1107,-24 1107,-24 1107,-12 1107,-12 1107,-6 1113,0 1119,0 1119,0 1149,0 1149,0 1155,0 1161,-6 1161,-12 1161,-12 1161,-24 1161,-24 1161,-30 1155,-36 1149,-36"/>
<text text-anchor="middle" x="1134" y="-13.32" font-family="Helvetica,sans-Serif" font-size="14.00">(...)</text>
</g>
<!-- 16201&#45;&gt;16202 -->
<g id="edge26" class="edge">
<title>16201&#45;&gt;16202</title>
<path fill="none" stroke="black" d="M1155.82,-71.75C1152.29,-63.22 1148.71,-54.57 1145.5,-46.8"/>
<polygon fill="black" stroke="black" points="1148.74,-45.47 1141.68,-37.57 1142.27,-48.15 1148.74,-45.47"/>
</g>
<!-- 16617 -->
<g id="node28" class="node">
<title>16617</title>
<path fill="#c0c0c0" stroke="black" d="M1221,-36C1221,-36 1191,-36 1191,-36 1185,-36 1179,-30 1179,-24 1179,-24 1179,-12 1179,-12 1179,-6 1185,0 1191,0 1191,0 1221,0 1221,0 1227,0 1233,-6 1233,-12 1233,-12 1233,-24 1233,-24 1233,-30 1227,-36 1221,-36"/>
<text text-anchor="middle" x="1206" y="-13.32" font-family="Helvetica,sans-Serif" font-size="14.00">(...)</text>
</g>
<!-- 16201&#45;&gt;16617 -->
<g id="edge27" class="edge">
<title>16201&#45;&gt;16617</title>
<path fill="none" stroke="black" d="M1189.5,-71.75C1192.14,-63.32 1194.81,-54.77 1197.22,-47.07"/>
<polygon fill="black" stroke="black" points="1200.53,-48.21 1200.18,-37.62 1193.85,-46.12 1200.53,-48.21"/>
</g>
<!-- 16753 -->
<g id="node30" class="node">
<title>16753</title>
<path fill="#c0c0c0" stroke="black" d="M1325,-36C1325,-36 1295,-36 1295,-36 1289,-36 1283,-30 1283,-24 1283,-24 1283,-12 1283,-12 1283,-6 1289,0 1295,0 1295,0 1325,0 1325,0 1331,0 1337,-6 1337,-12 1337,-12 1337,-24 1337,-24 1337,-30 1331,-36 1325,-36"/>
<text text-anchor="middle" x="1310" y="-13.32" font-family="Helvetica,sans-Serif" font-size="14.00">(...)</text>
</g>
<!-- 16752&#45;&gt;16753 -->
<g id="edge29" class="edge">
<title>16752&#45;&gt;16753</title>
<path fill="none" stroke="black" d="M1329.16,-71.75C1326.06,-63.22 1322.92,-54.57 1320.1,-46.8"/>
<polygon fill="black" stroke="black" points="1323.46,-45.8 1316.75,-37.6 1316.88,-48.19 1323.46,-45.8"/>
</g>
<!-- 16870 -->
<g id="node31" class="node">
<title>16870</title>
<path fill="#c0c0c0" stroke="black" d="M1397,-36C1397,-36 1367,-36 1367,-36 1361,-36 1355,-30 1355,-24 1355,-24 1355,-12 1355,-12 1355,-6 1361,0 1367,0 1367,0 1397,0 1397,0 1403,0 1409,-6 1409,-12 1409,-12 1409,-24 1409,-24 1409,-30 1403,-36 1397,-36"/>
<text text-anchor="middle" x="1382" y="-13.32" font-family="Helvetica,sans-Serif" font-size="14.00">(...)</text>
</g>
<!-- 16752&#45;&gt;16870 -->
<g id="edge30" class="edge">
<title>16752&#45;&gt;16870</title>
<path fill="none" stroke="black" d="M1362.84,-71.75C1365.94,-63.22 1369.08,-54.57 1371.9,-46.8"/>
<polygon fill="black" stroke="black" points="1375.12,-48.19 1375.25,-37.6 1368.54,-45.8 1375.12,-48.19"/>
</g>
</g>
</svg>
