<?xml version="1.0" encoding="UTF-8" standalone="no"?>
<!DOCTYPE svg PUBLIC "-//W3C//DTD SVG 1.1//EN"
 "http://www.w3.org/Graphics/SVG/1.1/DTD/svg11.dtd">
<!-- Generated by graphviz version 12.0.0 (20240803.0821)
 -->
<!-- Title: Tree Pages: 1 -->
<svg width="1409pt" height="565pt"
 viewBox="0.00 0.00 1408.50 565.00" xmlns="http://www.w3.org/2000/svg" xmlns:xlink="http://www.w3.org/1999/xlink">
<g id="graph0" class="graph" transform="scale(1 1) rotate(0) translate(4 561)">
<title>Tree</title>
<polygon fill="white" stroke="none" points="-4,4 -4,-561 1404.5,-561 1404.5,4 -4,4"/>
<!-- 0 -->
<g id="node1" class="node">
<title>0</title>
<path fill="#fffefe" stroke="black" d="M782,-557C782,-557 622,-557 622,-557 616,-557 610,-551 610,-545 610,-545 610,-474.75 610,-474.75 610,-468.75 616,-462.75 622,-462.75 622,-462.75 782,-462.75 782,-462.75 788,-462.75 794,-468.75 794,-474.75 794,-474.75 794,-545 794,-545 794,-551 788,-557 782,-557"/>
<text text-anchor="middle" x="702" y="-539.7" font-family="Helvetica,sans-Serif" font-size="14.00">8_G &lt;= 0.5</text>
<text text-anchor="middle" x="702" y="-522.45" font-family="Helvetica,sans-Serif" font-size="14.00">entropy = 1.0</text>
<text text-anchor="middle" x="702" y="-505.2" font-family="Helvetica,sans-Serif" font-size="14.00">samples = 38129</text>
<text text-anchor="middle" x="702" y="-487.95" font-family="Helvetica,sans-Serif" font-size="14.00">value = [30276, 30069]</text>
<text text-anchor="middle" x="702" y="-470.7" font-family="Helvetica,sans-Serif" font-size="14.00">class = Animal</text>
</g>
<!-- 1 -->
<g id="node2" class="node">
<title>1</title>
<path fill="#fae7da" stroke="black" d="M616,-426.75C616,-426.75 456,-426.75 456,-426.75 450,-426.75 444,-420.75 444,-414.75 444,-414.75 444,-344.5 444,-344.5 444,-338.5 450,-332.5 456,-332.5 456,-332.5 616,-332.5 616,-332.5 622,-332.5 628,-338.5 628,-344.5 628,-344.5 628,-414.75 628,-414.75 628,-420.75 622,-426.75 616,-426.75"/>
<text text-anchor="middle" x="536" y="-409.45" font-family="Helvetica,sans-Serif" font-size="14.00">2_A &lt;= 0.5</text>
<text text-anchor="middle" x="536" y="-392.2" font-family="Helvetica,sans-Serif" font-size="14.00">entropy = 0.992</text>
<text text-anchor="middle" x="536" y="-374.95" font-family="Helvetica,sans-Serif" font-size="14.00">samples = 26334</text>
<text text-anchor="middle" x="536" y="-357.7" font-family="Helvetica,sans-Serif" font-size="14.00">value = [22955, 18668]</text>
<text text-anchor="middle" x="536" y="-340.45" font-family="Helvetica,sans-Serif" font-size="14.00">class = Animal</text>
</g>
<!-- 0&#45;&gt;1 -->
<g id="edge1" class="edge">
<title>0&#45;&gt;1</title>
<path fill="none" stroke="black" d="M642.07,-462.57C630.04,-453.28 617.3,-443.44 604.99,-433.93"/>
<polygon fill="black" stroke="black" points="607.37,-431.34 597.32,-428 603.09,-436.88 607.37,-431.34"/>
<text text-anchor="middle" x="599.3" y="-447.2" font-family="Helvetica,sans-Serif" font-size="14.00">True</text>
</g>
<!-- 12210 -->
<g id="node17" class="node">
<title>12210</title>
<path fill="#b8dcf6" stroke="black" d="M966.5,-426.75C966.5,-426.75 815.5,-426.75 815.5,-426.75 809.5,-426.75 803.5,-420.75 803.5,-414.75 803.5,-414.75 803.5,-344.5 803.5,-344.5 803.5,-338.5 809.5,-332.5 815.5,-332.5 815.5,-332.5 966.5,-332.5 966.5,-332.5 972.5,-332.5 978.5,-338.5 978.5,-344.5 978.5,-344.5 978.5,-414.75 978.5,-414.75 978.5,-420.75 972.5,-426.75 966.5,-426.75"/>
<text text-anchor="middle" x="891" y="-409.45" font-family="Helvetica,sans-Serif" font-size="14.00">22_A &lt;= 0.5</text>
<text text-anchor="middle" x="891" y="-392.2" font-family="Helvetica,sans-Serif" font-size="14.00">entropy = 0.965</text>
<text text-anchor="middle" x="891" y="-374.95" font-family="Helvetica,sans-Serif" font-size="14.00">samples = 11795</text>
<text text-anchor="middle" x="891" y="-357.7" font-family="Helvetica,sans-Serif" font-size="14.00">value = [7321, 11401]</text>
<text text-anchor="middle" x="891" y="-340.45" font-family="Helvetica,sans-Serif" font-size="14.00">class = Plant</text>
</g>
<!-- 0&#45;&gt;12210 -->
<g id="edge16" class="edge">
<title>0&#45;&gt;12210</title>
<path fill="none" stroke="black" d="M770.5,-462.39C784.37,-452.98 799.04,-443.03 813.2,-433.42"/>
<polygon fill="black" stroke="black" points="814.85,-436.53 821.16,-428.01 810.92,-430.73 814.85,-436.53"/>
<text text-anchor="middle" x="817.71" y="-447.04" font-family="Helvetica,sans-Serif" font-size="14.00">False</text>
</g>
<!-- 2 -->
<g id="node3" class="node">
<title>2</title>
<path fill="#fefeff" stroke="black" d="M356,-296.5C356,-296.5 196,-296.5 196,-296.5 190,-296.5 184,-290.5 184,-284.5 184,-284.5 184,-214.25 184,-214.25 184,-208.25 190,-202.25 196,-202.25 196,-202.25 356,-202.25 356,-202.25 362,-202.25 368,-208.25 368,-214.25 368,-214.25 368,-284.5 368,-284.5 368,-290.5 362,-296.5 356,-296.5"/>
<text text-anchor="middle" x="276" y="-279.2" font-family="Helvetica,sans-Serif" font-size="14.00">23_C &lt;= 0.5</text>
<text text-anchor="middle" x="276" y="-261.95" font-family="Helvetica,sans-Serif" font-size="14.00">entropy = 1.0</text>
<text text-anchor="middle" x="276" y="-244.7" font-family="Helvetica,sans-Serif" font-size="14.00">samples = 19912</text>
<text text-anchor="middle" x="276" y="-227.45" font-family="Helvetica,sans-Serif" font-size="14.00">value = [15694, 15777]</text>
<text text-anchor="middle" x="276" y="-210.2" font-family="Helvetica,sans-Serif" font-size="14.00">class = Plant</text>
</g>
<!-- 1&#45;&gt;2 -->
<g id="edge2" class="edge">
<title>1&#45;&gt;2</title>
<path fill="none" stroke="black" d="M443.6,-333.05C422.43,-322.61 399.81,-311.45 378.25,-300.81"/>
<polygon fill="black" stroke="black" points="379.97,-297.76 369.46,-296.48 376.88,-304.04 379.97,-297.76"/>
</g>
<!-- 9169 -->
<g id="node10" class="node">
<title>9169</title>
<path fill="#efb388" stroke="black" d="M607,-296.5C607,-296.5 465,-296.5 465,-296.5 459,-296.5 453,-290.5 453,-284.5 453,-284.5 453,-214.25 453,-214.25 453,-208.25 459,-202.25 465,-202.25 465,-202.25 607,-202.25 607,-202.25 613,-202.25 619,-208.25 619,-214.25 619,-214.25 619,-284.5 619,-284.5 619,-290.5 613,-296.5 607,-296.5"/>
<text text-anchor="middle" x="536" y="-279.2" font-family="Helvetica,sans-Serif" font-size="14.00">23_G &lt;= 0.5</text>
<text text-anchor="middle" x="536" y="-261.95" font-family="Helvetica,sans-Serif" font-size="14.00">entropy = 0.862</text>
<text text-anchor="middle" x="536" y="-244.7" font-family="Helvetica,sans-Serif" font-size="14.00">samples = 6422</text>
<text text-anchor="middle" x="536" y="-227.45" font-family="Helvetica,sans-Serif" font-size="14.00">value = [7261, 2891]</text>
<text text-anchor="middle" x="536" y="-210.2" font-family="Helvetica,sans-Serif" font-size="14.00">class = Animal</text>
</g>
<!-- 1&#45;&gt;9169 -->
<g id="edge9" class="edge">
<title>1&#45;&gt;9169</title>
<path fill="none" stroke="black" d="M536,-332.32C536,-324.42 536,-316.13 536,-307.98"/>
<polygon fill="black" stroke="black" points="539.5,-308.12 536,-298.12 532.5,-308.12 539.5,-308.12"/>
</g>
<!-- 3 -->
<g id="node4" class="node">
<title>3</title>
<path fill="#f5fafe" stroke="black" d="M172,-166.25C172,-166.25 12,-166.25 12,-166.25 6,-166.25 0,-160.25 0,-154.25 0,-154.25 0,-84 0,-84 0,-78 6,-72 12,-72 12,-72 172,-72 172,-72 178,-72 184,-78 184,-84 184,-84 184,-154.25 184,-154.25 184,-160.25 178,-166.25 172,-166.25"/>
<text text-anchor="middle" x="92" y="-148.95" font-family="Helvetica,sans-Serif" font-size="14.00">24_U &lt;= 0.5</text>
<text text-anchor="middle" x="92" y="-131.7" font-family="Helvetica,sans-Serif" font-size="14.00">entropy = 1.0</text>
<text text-anchor="middle" x="92" y="-114.45" font-family="Helvetica,sans-Serif" font-size="14.00">samples = 19166</text>
<text text-anchor="middle" x="92" y="-97.2" font-family="Helvetica,sans-Serif" font-size="14.00">value = [14734, 15511]</text>
<text text-anchor="middle" x="92" y="-79.95" font-family="Helvetica,sans-Serif" font-size="14.00">class = Plant</text>
</g>
<!-- 2&#45;&gt;3 -->
<g id="edge3" class="edge">
<title>2&#45;&gt;3</title>
<path fill="none" stroke="black" d="M209.31,-201.89C195.94,-192.57 181.8,-182.72 168.14,-173.19"/>
<polygon fill="black" stroke="black" points="170.22,-170.38 160.01,-167.53 166.21,-176.12 170.22,-170.38"/>
</g>
<!-- 8828 -->
<g id="node7" class="node">
<title>8828</title>
<path fill="#eca470" stroke="black" d="M338,-166.25C338,-166.25 214,-166.25 214,-166.25 208,-166.25 202,-160.25 202,-154.25 202,-154.25 202,-84 202,-84 202,-78 208,-72 214,-72 214,-72 338,-72 338,-72 344,-72 350,-78 350,-84 350,-84 350,-154.25 350,-154.25 350,-160.25 344,-166.25 338,-166.25"/>
<text text-anchor="middle" x="276" y="-148.95" font-family="Helvetica,sans-Serif" font-size="14.00">3_G &lt;= 0.5</text>
<text text-anchor="middle" x="276" y="-131.7" font-family="Helvetica,sans-Serif" font-size="14.00">entropy = 0.755</text>
<text text-anchor="middle" x="276" y="-114.45" font-family="Helvetica,sans-Serif" font-size="14.00">samples = 746</text>
<text text-anchor="middle" x="276" y="-97.2" font-family="Helvetica,sans-Serif" font-size="14.00">value = [960, 266]</text>
<text text-anchor="middle" x="276" y="-79.95" font-family="Helvetica,sans-Serif" font-size="14.00">class = Animal</text>
</g>
<!-- 2&#45;&gt;8828 -->
<g id="edge6" class="edge">
<title>2&#45;&gt;8828</title>
<path fill="none" stroke="black" d="M276,-202.07C276,-194.17 276,-185.88 276,-177.73"/>
<polygon fill="black" stroke="black" points="279.5,-177.87 276,-167.87 272.5,-177.87 279.5,-177.87"/>
</g>
<!-- 4 -->
<g id="node5" class="node">
<title>4</title>
<path fill="#c0c0c0" stroke="black" d="M71,-36C71,-36 41,-36 41,-36 35,-36 29,-30 29,-24 29,-24 29,-12 29,-12 29,-6 35,0 41,0 41,0 71,0 71,0 77,0 83,-6 83,-12 83,-12 83,-24 83,-24 83,-30 77,-36 71,-36"/>
<text text-anchor="middle" x="56" y="-13.32" font-family="Helvetica,sans-Serif" font-size="14.00">(...)</text>
</g>
<!-- 3&#45;&gt;4 -->
<g id="edge4" class="edge">
<title>3&#45;&gt;4</title>
<path fill="none" stroke="black" d="M75.16,-71.75C72.06,-63.22 68.92,-54.57 66.1,-46.8"/>
<polygon fill="black" stroke="black" points="69.46,-45.8 62.75,-37.6 62.88,-48.19 69.46,-45.8"/>
</g>
<!-- 8683 -->
<g id="node6" class="node">
<title>8683</title>
<path fill="#c0c0c0" stroke="black" d="M143,-36C143,-36 113,-36 113,-36 107,-36 101,-30 101,-24 101,-24 101,-12 101,-12 101,-6 107,0 113,0 113,0 143,0 143,0 149,0 155,-6 155,-12 155,-12 155,-24 155,-24 155,-30 149,-36 143,-36"/>
<text text-anchor="middle" x="128" y="-13.32" font-family="Helvetica,sans-Serif" font-size="14.00">(...)</text>
</g>
<!-- 3&#45;&gt;8683 -->
<g id="edge5" class="edge">
<title>3&#45;&gt;8683</title>
<path fill="none" stroke="black" d="M108.84,-71.75C111.94,-63.22 115.08,-54.57 117.9,-46.8"/>
<polygon fill="black" stroke="black" points="121.12,-48.19 121.25,-37.6 114.54,-45.8 121.12,-48.19"/>
</g>
<!-- 8829 -->
<g id="node8" class="node">
<title>8829</title>
<path fill="#c0c0c0" stroke="black" d="M250,-36C250,-36 220,-36 220,-36 214,-36 208,-30 208,-24 208,-24 208,-12 208,-12 208,-6 214,0 220,0 220,0 250,0 250,0 256,0 262,-6 262,-12 262,-12 262,-24 262,-24 262,-30 256,-36 250,-36"/>
<text text-anchor="middle" x="235" y="-13.32" font-family="Helvetica,sans-Serif" font-size="14.00">(...)</text>
</g>
<!-- 8828&#45;&gt;8829 -->
<g id="edge7" class="edge">
<title>8828&#45;&gt;8829</title>
<path fill="none" stroke="black" d="M256.82,-71.75C253.29,-63.22 249.71,-54.57 246.5,-46.8"/>
<polygon fill="black" stroke="black" points="249.74,-45.47 242.68,-37.57 243.27,-48.15 249.74,-45.47"/>
</g>
<!-- 9042 -->
<g id="node9" class="node">
<title>9042</title>
<path fill="#c0c0c0" stroke="black" d="M322,-36C322,-36 292,-36 292,-36 286,-36 280,-30 280,-24 280,-24 280,-12 280,-12 280,-6 286,0 292,0 292,0 322,0 322,0 328,0 334,-6 334,-12 334,-12 334,-24 334,-24 334,-30 328,-36 322,-36"/>
<text text-anchor="middle" x="307" y="-13.32" font-family="Helvetica,sans-Serif" font-size="14.00">(...)</text>
</g>
<!-- 8828&#45;&gt;9042 -->
<g id="edge8" class="edge">
<title>8828&#45;&gt;9042</title>
<path fill="none" stroke="black" d="M290.5,-71.75C293.14,-63.32 295.81,-54.77 298.22,-47.07"/>
<polygon fill="black" stroke="black" points="301.53,-48.21 301.18,-37.62 294.85,-46.12 301.53,-48.21"/>
</g>
<!-- 9170 -->
<g id="node11" class="node">
<title>9170</title>
<path fill="#f0b68c" stroke="black" d="M522,-166.25C522,-166.25 380,-166.25 380,-166.25 374,-166.25 368,-160.25 368,-154.25 368,-154.25 368,-84 368,-84 368,-78 374,-72 380,-72 380,-72 522,-72 522,-72 528,-72 534,-78 534,-84 534,-84 534,-154.25 534,-154.25 534,-160.25 528,-166.25 522,-166.25"/>
<text text-anchor="middle" x="451" y="-148.95" font-family="Helvetica,sans-Serif" font-size="14.00">14_G &lt;= 0.5</text>
<text text-anchor="middle" x="451" y="-131.7" font-family="Helvetica,sans-Serif" font-size="14.00">entropy = 0.876</text>
<text text-anchor="middle" x="451" y="-114.45" font-family="Helvetica,sans-Serif" font-size="14.00">samples = 5926</text>
<text text-anchor="middle" x="451" y="-97.2" font-family="Helvetica,sans-Serif" font-size="14.00">value = [6604, 2777]</text>
<text text-anchor="middle" x="451" y="-79.95" font-family="Helvetica,sans-Serif" font-size="14.00">class = Animal</text>
</g>
<!-- 9169&#45;&gt;9170 -->
<g id="edge10" class="edge">
<title>9169&#45;&gt;9170</title>
<path fill="none" stroke="black" d="M505.31,-202.07C499.66,-193.54 493.7,-184.54 487.88,-175.77"/>
<polygon fill="black" stroke="black" points="490.92,-174.02 482.48,-167.62 485.09,-177.89 490.92,-174.02"/>
</g>
<!-- 12067 -->
<g id="node14" class="node">
<title>12067</title>
<path fill="#ea975b" stroke="black" d="M688,-166.25C688,-166.25 564,-166.25 564,-166.25 558,-166.25 552,-160.25 552,-154.25 552,-154.25 552,-84 552,-84 552,-78 558,-72 564,-72 564,-72 688,-72 688,-72 694,-72 700,-78 700,-84 700,-84 700,-154.25 700,-154.25 700,-160.25 694,-166.25 688,-166.25"/>
<text text-anchor="middle" x="626" y="-148.95" font-family="Helvetica,sans-Serif" font-size="14.00">7_G &lt;= 0.5</text>
<text text-anchor="middle" x="626" y="-131.7" font-family="Helvetica,sans-Serif" font-size="14.00">entropy = 0.604</text>
<text text-anchor="middle" x="626" y="-114.45" font-family="Helvetica,sans-Serif" font-size="14.00">samples = 496</text>
<text text-anchor="middle" x="626" y="-97.2" font-family="Helvetica,sans-Serif" font-size="14.00">value = [657, 114]</text>
<text text-anchor="middle" x="626" y="-79.95" font-family="Helvetica,sans-Serif" font-size="14.00">class = Animal</text>
</g>
<!-- 9169&#45;&gt;12067 -->
<g id="edge13" class="edge">
<title>9169&#45;&gt;12067</title>
<path fill="none" stroke="black" d="M568.49,-202.07C574.48,-193.54 580.79,-184.54 586.95,-175.77"/>
<polygon fill="black" stroke="black" points="589.81,-177.79 592.69,-167.6 584.08,-173.77 589.81,-177.79"/>
</g>
<!-- 9171 -->
<g id="node12" class="node">
<title>9171</title>
<path fill="#c0c0c0" stroke="black" d="M425,-36C425,-36 395,-36 395,-36 389,-36 383,-30 383,-24 383,-24 383,-12 383,-12 383,-6 389,0 395,0 395,0 425,0 425,0 431,0 437,-6 437,-12 437,-12 437,-24 437,-24 437,-30 431,-36 425,-36"/>
<text text-anchor="middle" x="410" y="-13.32" font-family="Helvetica,sans-Serif" font-size="14.00">(...)</text>
</g>
<!-- 9170&#45;&gt;9171 -->
<g id="edge11" class="edge">
<title>9170&#45;&gt;9171</title>
<path fill="none" stroke="black" d="M431.82,-71.75C428.29,-63.22 424.71,-54.57 421.5,-46.8"/>
<polygon fill="black" stroke="black" points="424.74,-45.47 417.68,-37.57 418.27,-48.15 424.74,-45.47"/>
</g>
<!-- 11290 -->
<g id="node13" class="node">
<title>11290</title>
<path fill="#c0c0c0" stroke="black" d="M497,-36C497,-36 467,-36 467,-36 461,-36 455,-30 455,-24 455,-24 455,-12 455,-12 455,-6 461,0 467,0 467,0 497,0 497,0 503,0 509,-6 509,-12 509,-12 509,-24 509,-24 509,-30 503,-36 497,-36"/>
<text text-anchor="middle" x="482" y="-13.32" font-family="Helvetica,sans-Serif" font-size="14.00">(...)</text>
</g>
<!-- 9170&#45;&gt;11290 -->
<g id="edge12" class="edge">
<title>9170&#45;&gt;11290</title>
<path fill="none" stroke="black" d="M465.5,-71.75C468.14,-63.32 470.81,-54.77 473.22,-47.07"/>
<polygon fill="black" stroke="black" points="476.53,-48.21 476.18,-37.62 469.85,-46.12 476.53,-48.21"/>
</g>
<!-- 12068 -->
<g id="node15" class="node">
<title>12068</title>
<path fill="#c0c0c0" stroke="black" d="M584,-36C584,-36 554,-36 554,-36 548,-36 542,-30 542,-24 542,-24 542,-12 542,-12 542,-6 548,0 554,0 554,0 584,0 584,0 590,0 596,-6 596,-12 596,-12 596,-24 596,-24 596,-30 590,-36 584,-36"/>
<text text-anchor="middle" x="569" y="-13.32" font-family="Helvetica,sans-Serif" font-size="14.00">(...)</text>
</g>
<!-- 12067&#45;&gt;12068 -->
<g id="edge14" class="edge">
<title>12067&#45;&gt;12068</title>
<path fill="none" stroke="black" d="M599.34,-71.75C594.26,-62.93 589.1,-53.96 584.52,-45.99"/>
<polygon fill="black" stroke="black" points="587.65,-44.41 579.63,-37.48 581.58,-47.9 587.65,-44.41"/>
</g>
<!-- 12179 -->
<g id="node16" class="node">
<title>12179</title>
<path fill="#c0c0c0" stroke="black" d="M656,-36C656,-36 626,-36 626,-36 620,-36 614,-30 614,-24 614,-24 614,-12 614,-12 614,-6 620,0 626,0 626,0 656,0 656,0 662,0 668,-6 668,-12 668,-12 668,-24 668,-24 668,-30 662,-36 656,-36"/>
<text text-anchor="middle" x="641" y="-13.32" font-family="Helvetica,sans-Serif" font-size="14.00">(...)</text>
</g>
<!-- 12067&#45;&gt;12179 -->
<g id="edge15" class="edge">
<title>12067&#45;&gt;12179</title>
<path fill="none" stroke="black" d="M633.02,-71.75C634.28,-63.42 635.56,-54.97 636.71,-47.34"/>
<polygon fill="black" stroke="black" points="640.14,-48.08 638.17,-37.67 633.22,-47.03 640.14,-48.08"/>
</g>
<!-- 12211 -->
<g id="node18" class="node">
<title>12211</title>
<path fill="#a9d5f4" stroke="black" d="M966.5,-296.5C966.5,-296.5 815.5,-296.5 815.5,-296.5 809.5,-296.5 803.5,-290.5 803.5,-284.5 803.5,-284.5 803.5,-214.25 803.5,-214.25 803.5,-208.25 809.5,-202.25 815.5,-202.25 815.5,-202.25 966.5,-202.25 966.5,-202.25 972.5,-202.25 978.5,-208.25 978.5,-214.25 978.5,-214.25 978.5,-284.5 978.5,-284.5 978.5,-290.5 972.5,-296.5 966.5,-296.5"/>
<text text-anchor="middle" x="891" y="-279.2" font-family="Helvetica,sans-Serif" font-size="14.00">10_A &lt;= 0.5</text>
<text text-anchor="middle" x="891" y="-261.95" font-family="Helvetica,sans-Serif" font-size="14.00">entropy = 0.944</text>
<text text-anchor="middle" x="891" y="-244.7" font-family="Helvetica,sans-Serif" font-size="14.00">samples = 10668</text>
<text text-anchor="middle" x="891" y="-227.45" font-family="Helvetica,sans-Serif" font-size="14.00">value = [6127, 10797]</text>
<text text-anchor="middle" x="891" y="-210.2" font-family="Helvetica,sans-Serif" font-size="14.00">class = Plant</text>
</g>
<!-- 12210&#45;&gt;12211 -->
<g id="edge17" class="edge">
<title>12210&#45;&gt;12211</title>
<path fill="none" stroke="black" d="M891,-332.32C891,-324.42 891,-316.13 891,-307.98"/>
<polygon fill="black" stroke="black" points="894.5,-308.12 891,-298.12 887.5,-308.12 894.5,-308.12"/>
</g>
<!-- 16262 -->
<g id="node25" class="node">
<title>16262</title>
<path fill="#f2c19d" stroke="black" d="M1231.5,-296.5C1231.5,-296.5 1098.5,-296.5 1098.5,-296.5 1092.5,-296.5 1086.5,-290.5 1086.5,-284.5 1086.5,-284.5 1086.5,-214.25 1086.5,-214.25 1086.5,-208.25 1092.5,-202.25 1098.5,-202.25 1098.5,-202.25 1231.5,-202.25 1231.5,-202.25 1237.5,-202.25 1243.5,-208.25 1243.5,-214.25 1243.5,-214.25 1243.5,-284.5 1243.5,-284.5 1243.5,-290.5 1237.5,-296.5 1231.5,-296.5"/>
<text text-anchor="middle" x="1165" y="-279.2" font-family="Helvetica,sans-Serif" font-size="14.00">23_G &lt;= 0.5</text>
<text text-anchor="middle" x="1165" y="-261.95" font-family="Helvetica,sans-Serif" font-size="14.00">entropy = 0.921</text>
<text text-anchor="middle" x="1165" y="-244.7" font-family="Helvetica,sans-Serif" font-size="14.00">samples = 1127</text>
<text text-anchor="middle" x="1165" y="-227.45" font-family="Helvetica,sans-Serif" font-size="14.00">value = [1194, 604]</text>
<text text-anchor="middle" x="1165" y="-210.2" font-family="Helvetica,sans-Serif" font-size="14.00">class = Animal</text>
</g>
<!-- 12210&#45;&gt;16262 -->
<g id="edge24" class="edge">
<title>12210&#45;&gt;16262</title>
<path fill="none" stroke="black" d="M978.83,-337.52C1009.77,-323.04 1044.56,-306.75 1075.63,-292.21"/>
<polygon fill="black" stroke="black" points="1077.07,-295.4 1084.64,-287.99 1074.1,-289.06 1077.07,-295.4"/>
</g>
<!-- 12212 -->
<g id="node19" class="node">
<title>12212</title>
<path fill="#c3e1f7" stroke="black" d="M872,-166.25C872,-166.25 730,-166.25 730,-166.25 724,-166.25 718,-160.25 718,-154.25 718,-154.25 718,-84 718,-84 718,-78 724,-72 730,-72 730,-72 872,-72 872,-72 878,-72 884,-78 884,-84 884,-84 884,-154.25 884,-154.25 884,-160.25 878,-166.25 872,-166.25"/>
<text text-anchor="middle" x="801" y="-148.95" font-family="Helvetica,sans-Serif" font-size="14.00">2_U &lt;= 0.5</text>
<text text-anchor="middle" x="801" y="-131.7" font-family="Helvetica,sans-Serif" font-size="14.00">entropy = 0.977</text>
<text text-anchor="middle" x="801" y="-114.45" font-family="Helvetica,sans-Serif" font-size="14.00">samples = 6701</text>
<text text-anchor="middle" x="801" y="-97.2" font-family="Helvetica,sans-Serif" font-size="14.00">value = [4371, 6256]</text>
<text text-anchor="middle" x="801" y="-79.95" font-family="Helvetica,sans-Serif" font-size="14.00">class = Plant</text>
</g>
<!-- 12211&#45;&gt;12212 -->
<g id="edge18" class="edge">
<title>12211&#45;&gt;12212</title>
<path fill="none" stroke="black" d="M858.51,-202.07C852.52,-193.54 846.21,-184.54 840.05,-175.77"/>
<polygon fill="black" stroke="black" points="842.92,-173.77 834.31,-167.6 837.19,-177.79 842.92,-173.77"/>
</g>
<!-- 15187 -->
<g id="node22" class="node">
<title>15187</title>
<path fill="#86c3ef" stroke="black" d="M1056,-166.25C1056,-166.25 914,-166.25 914,-166.25 908,-166.25 902,-160.25 902,-154.25 902,-154.25 902,-84 902,-84 902,-78 908,-72 914,-72 914,-72 1056,-72 1056,-72 1062,-72 1068,-78 1068,-84 1068,-84 1068,-154.25 1068,-154.25 1068,-160.25 1062,-166.25 1056,-166.25"/>
<text text-anchor="middle" x="985" y="-148.95" font-family="Helvetica,sans-Serif" font-size="14.00">12_U &lt;= 0.5</text>
<text text-anchor="middle" x="985" y="-131.7" font-family="Helvetica,sans-Serif" font-size="14.00">entropy = 0.854</text>
<text text-anchor="middle" x="985" y="-114.45" font-family="Helvetica,sans-Serif" font-size="14.00">samples = 3967</text>
<text text-anchor="middle" x="985" y="-97.2" font-family="Helvetica,sans-Serif" font-size="14.00">value = [1756, 4541]</text>
<text text-anchor="middle" x="985" y="-79.95" font-family="Helvetica,sans-Serif" font-size="14.00">class = Plant</text>
</g>
<!-- 12211&#45;&gt;15187 -->
<g id="edge21" class="edge">
<title>12211&#45;&gt;15187</title>
<path fill="none" stroke="black" d="M924.94,-202.07C931.26,-193.45 937.92,-184.35 944.42,-175.49"/>
<polygon fill="black" stroke="black" points="947.13,-177.71 950.22,-167.58 941.48,-173.58 947.13,-177.71"/>
</g>
<!-- 12213 -->
<g id="node20" class="node">
<title>12213</title>
<path fill="#c0c0c0" stroke="black" d="M764,-36C764,-36 734,-36 734,-36 728,-36 722,-30 722,-24 722,-24 722,-12 722,-12 722,-6 728,0 734,0 734,0 764,0 764,0 770,0 776,-6 776,-12 776,-12 776,-24 776,-24 776,-30 770,-36 764,-36"/>
<text text-anchor="middle" x="749" y="-13.32" font-family="Helvetica,sans-Serif" font-size="14.00">(...)</text>
</g>
<!-- 12212&#45;&gt;12213 -->
<g id="edge19" class="edge">
<title>12212&#45;&gt;12213</title>
<path fill="none" stroke="black" d="M776.67,-71.75C772.1,-63.03 767.45,-54.16 763.3,-46.26"/>
<polygon fill="black" stroke="black" points="766.46,-44.74 758.71,-37.51 760.26,-47.99 766.46,-44.74"/>
</g>
<!-- 14480 -->
<g id="node21" class="node">
<title>14480</title>
<path fill="#c0c0c0" stroke="black" d="M836,-36C836,-36 806,-36 806,-36 800,-36 794,-30 794,-24 794,-24 794,-12 794,-12 794,-6 800,0 806,0 806,0 836,0 836,0 842,0 848,-6 848,-12 848,-12 848,-24 848,-24 848,-30 842,-36 836,-36"/>
<text text-anchor="middle" x="821" y="-13.32" font-family="Helvetica,sans-Serif" font-size="14.00">(...)</text>
</g>
<!-- 12212&#45;&gt;14480 -->
<g id="edge20" class="edge">
<title>12212&#45;&gt;14480</title>
<path fill="none" stroke="black" d="M810.36,-71.75C812.04,-63.42 813.74,-54.97 815.28,-47.34"/>
<polygon fill="black" stroke="black" points="818.69,-48.15 817.24,-37.66 811.83,-46.77 818.69,-48.15"/>
</g>
<!-- 15188 -->
<g id="node23" class="node">
<title>15188</title>
<path fill="#c0c0c0" stroke="black" d="M946,-36C946,-36 916,-36 916,-36 910,-36 904,-30 904,-24 904,-24 904,-12 904,-12 904,-6 910,0 916,0 916,0 946,0 946,0 952,0 958,-6 958,-12 958,-12 958,-24 958,-24 958,-30 952,-36 946,-36"/>
<text text-anchor="middle" x="931" y="-13.32" font-family="Helvetica,sans-Serif" font-size="14.00">(...)</text>
</g>
<!-- 15187&#45;&gt;15188 -->
<g id="edge22" class="edge">
<title>15187&#45;&gt;15188</title>
<path fill="none" stroke="black" d="M959.74,-71.75C954.98,-63.03 950.16,-54.16 945.85,-46.26"/>
<polygon fill="black" stroke="black" points="948.94,-44.61 941.08,-37.5 942.79,-47.96 948.94,-44.61"/>
</g>
<!-- 16009 -->
<g id="node24" class="node">
<title>16009</title>
<path fill="#c0c0c0" stroke="black" d="M1018,-36C1018,-36 988,-36 988,-36 982,-36 976,-30 976,-24 976,-24 976,-12 976,-12 976,-6 982,0 988,0 988,0 1018,0 1018,0 1024,0 1030,-6 1030,-12 1030,-12 1030,-24 1030,-24 1030,-30 1024,-36 1018,-36"/>
<text text-anchor="middle" x="1003" y="-13.32" font-family="Helvetica,sans-Serif" font-size="14.00">(...)</text>
</g>
<!-- 15187&#45;&gt;16009 -->
<g id="edge23" class="edge">
<title>15187&#45;&gt;16009</title>
<path fill="none" stroke="black" d="M993.42,-71.75C994.93,-63.42 996.47,-54.97 997.85,-47.34"/>
<polygon fill="black" stroke="black" points="1001.27,-48.13 999.61,-37.66 994.38,-46.88 1001.27,-48.13"/>
</g>
<!-- 16263 -->
<g id="node26" class="node">
<title>16263</title>
<path fill="#f3c6a6" stroke="black" d="M1231.5,-166.25C1231.5,-166.25 1098.5,-166.25 1098.5,-166.25 1092.5,-166.25 1086.5,-160.25 1086.5,-154.25 1086.5,-154.25 1086.5,-84 1086.5,-84 1086.5,-78 1092.5,-72 1098.5,-72 1098.5,-72 1231.5,-72 1231.5,-72 1237.5,-72 1243.5,-78 1243.5,-84 1243.5,-84 1243.5,-154.25 1243.5,-154.25 1243.5,-160.25 1237.5,-166.25 1231.5,-166.25"/>
<text text-anchor="middle" x="1165" y="-148.95" font-family="Helvetica,sans-Serif" font-size="14.00">11_C &lt;= 0.5</text>
<text text-anchor="middle" x="1165" y="-131.7" font-family="Helvetica,sans-Serif" font-size="14.00">entropy = 0.938</text>
<text text-anchor="middle" x="1165" y="-114.45" font-family="Helvetica,sans-Serif" font-size="14.00">samples = 1029</text>
<text text-anchor="middle" x="1165" y="-97.2" font-family="Helvetica,sans-Serif" font-size="14.00">value = [1068, 586]</text>
<text text-anchor="middle" x="1165" y="-79.95" font-family="Helvetica,sans-Serif" font-size="14.00">class = Animal</text>
</g>
<!-- 16262&#45;&gt;16263 -->
<g id="edge25" class="edge">
<title>16262&#45;&gt;16263</title>
<path fill="none" stroke="black" d="M1165,-202.07C1165,-194.17 1165,-185.88 1165,-177.73"/>
<polygon fill="black" stroke="black" points="1168.5,-177.87 1165,-167.87 1161.5,-177.87 1168.5,-177.87"/>
</g>
<!-- 16750 -->
<g id="node29" class="node">
<title>16750</title>
<path fill="#e99355" stroke="black" d="M1388.5,-166.25C1388.5,-166.25 1273.5,-166.25 1273.5,-166.25 1267.5,-166.25 1261.5,-160.25 1261.5,-154.25 1261.5,-154.25 1261.5,-84 1261.5,-84 1261.5,-78 1267.5,-72 1273.5,-72 1273.5,-72 1388.5,-72 1388.5,-72 1394.5,-72 1400.5,-78 1400.5,-84 1400.5,-84 1400.5,-154.25 1400.5,-154.25 1400.5,-160.25 1394.5,-166.25 1388.5,-166.25"/>
<text text-anchor="middle" x="1331" y="-148.95" font-family="Helvetica,sans-Serif" font-size="14.00">5_G &lt;= 0.5</text>
<text text-anchor="middle" x="1331" y="-131.7" font-family="Helvetica,sans-Serif" font-size="14.00">entropy = 0.544</text>
<text text-anchor="middle" x="1331" y="-114.45" font-family="Helvetica,sans-Serif" font-size="14.00">samples = 98</text>
<text text-anchor="middle" x="1331" y="-97.2" font-family="Helvetica,sans-Serif" font-size="14.00">value = [126, 18]</text>
<text text-anchor="middle" x="1331" y="-79.95" font-family="Helvetica,sans-Serif" font-size="14.00">class = Animal</text>
</g>
<!-- 16262&#45;&gt;16750 -->
<g id="edge28" class="edge">
<title>16262&#45;&gt;16750</title>
<path fill="none" stroke="black" d="M1224.93,-202.07C1236.96,-192.78 1249.7,-182.94 1262.01,-173.43"/>
<polygon fill="black" stroke="black" points="1263.91,-176.38 1269.68,-167.5 1259.63,-170.84 1263.91,-176.38"/>
</g>
<!-- 16264 -->
<g id="node27" class="node">
<title>16264</title>
<path fill="#c0c0c0" stroke="black" d="M1137,-36C1137,-36 1107,-36 1107,-36 1101,-36 1095,-30 1095,-24 1095,-24 1095,-12 1095,-12 1095,-6 1101,0 1107,0 1107,0 1137,0 1137,0 1143,0 1149,-6 1149,-12 1149,-12 1149,-24 1149,-24 1149,-30 1143,-36 1137,-36"/>
<text text-anchor="middle" x="1122" y="-13.32" font-family="Helvetica,sans-Serif" font-size="14.00">(...)</text>
</g>
<!-- 16263&#45;&gt;16264 -->
<g id="edge26" class="edge">
<title>16263&#45;&gt;16264</title>
<path fill="none" stroke="black" d="M1144.88,-71.75C1141.14,-63.12 1137.34,-54.36 1133.94,-46.53"/>
<polygon fill="black" stroke="black" points="1137.24,-45.34 1130.05,-37.56 1130.82,-48.13 1137.24,-45.34"/>
</g>
<!-- 16653 -->
<g id="node28" class="node">
<title>16653</title>
<path fill="#c0c0c0" stroke="black" d="M1209,-36C1209,-36 1179,-36 1179,-36 1173,-36 1167,-30 1167,-24 1167,-24 1167,-12 1167,-12 1167,-6 1173,0 1179,0 1179,0 1209,0 1209,0 1215,0 1221,-6 1221,-12 1221,-12 1221,-24 1221,-24 1221,-30 1215,-36 1209,-36"/>
<text text-anchor="middle" x="1194" y="-13.32" font-family="Helvetica,sans-Serif" font-size="14.00">(...)</text>
</g>
<!-- 16263&#45;&gt;16653 -->
<g id="edge27" class="edge">
<title>16263&#45;&gt;16653</title>
<path fill="none" stroke="black" d="M1178.57,-71.75C1181.03,-63.32 1183.54,-54.77 1185.79,-47.07"/>
<polygon fill="black" stroke="black" points="1189.1,-48.21 1188.55,-37.63 1182.38,-46.24 1189.1,-48.21"/>
</g>
<!-- 16751 -->
<g id="node30" class="node">
<title>16751</title>
<path fill="#c0c0c0" stroke="black" d="M1310,-36C1310,-36 1280,-36 1280,-36 1274,-36 1268,-30 1268,-24 1268,-24 1268,-12 1268,-12 1268,-6 1274,0 1280,0 1280,0 1310,0 1310,0 1316,0 1322,-6 1322,-12 1322,-12 1322,-24 1322,-24 1322,-30 1316,-36 1310,-36"/>
<text text-anchor="middle" x="1295" y="-13.32" font-family="Helvetica,sans-Serif" font-size="14.00">(...)</text>
</g>
<!-- 16750&#45;&gt;16751 -->
<g id="edge29" class="edge">
<title>16750&#45;&gt;16751</title>
<path fill="none" stroke="black" d="M1314.16,-71.75C1311.06,-63.22 1307.92,-54.57 1305.1,-46.8"/>
<polygon fill="black" stroke="black" points="1308.46,-45.8 1301.75,-37.6 1301.88,-48.19 1308.46,-45.8"/>
</g>
<!-- 16780 -->
<g id="node31" class="node">
<title>16780</title>
<path fill="#c0c0c0" stroke="black" d="M1382,-36C1382,-36 1352,-36 1352,-36 1346,-36 1340,-30 1340,-24 1340,-24 1340,-12 1340,-12 1340,-6 1346,0 1352,0 1352,0 1382,0 1382,0 1388,0 1394,-6 1394,-12 1394,-12 1394,-24 1394,-24 1394,-30 1388,-36 1382,-36"/>
<text text-anchor="middle" x="1367" y="-13.32" font-family="Helvetica,sans-Serif" font-size="14.00">(...)</text>
</g>
<!-- 16750&#45;&gt;16780 -->
<g id="edge30" class="edge">
<title>16750&#45;&gt;16780</title>
<path fill="none" stroke="black" d="M1347.84,-71.75C1350.94,-63.22 1354.08,-54.57 1356.9,-46.8"/>
<polygon fill="black" stroke="black" points="1360.12,-48.19 1360.25,-37.6 1353.54,-45.8 1360.12,-48.19"/>
</g>
</g>
</svg>
