<?xml version="1.0" encoding="UTF-8" standalone="no"?>
<!DOCTYPE svg PUBLIC "-//W3C//DTD SVG 1.1//EN"
 "http://www.w3.org/Graphics/SVG/1.1/DTD/svg11.dtd">
<!-- Generated by graphviz version 12.0.0 (20240803.0821)
 -->
<!-- Title: Tree Pages: 1 -->
<svg width="1401pt" height="565pt"
 viewBox="0.00 0.00 1400.50 565.00" xmlns="http://www.w3.org/2000/svg" xmlns:xlink="http://www.w3.org/1999/xlink">
<g id="graph0" class="graph" transform="scale(1 1) rotate(0) translate(4 561)">
<title>Tree</title>
<polygon fill="white" stroke="none" points="-4,4 -4,-561 1396.5,-561 1396.5,4 -4,4"/>
<!-- 0 -->
<g id="node1" class="node">
<title>0</title>
<path fill="#feffff" stroke="black" d="M785,-557C785,-557 625,-557 625,-557 619,-557 613,-551 613,-545 613,-545 613,-474.75 613,-474.75 613,-468.75 619,-462.75 625,-462.75 625,-462.75 785,-462.75 785,-462.75 791,-462.75 797,-468.75 797,-474.75 797,-474.75 797,-545 797,-545 797,-551 791,-557 785,-557"/>
<text text-anchor="middle" x="705" y="-539.7" font-family="Helvetica,sans-Serif" font-size="14.00">1_U &lt;= 0.5</text>
<text text-anchor="middle" x="705" y="-522.45" font-family="Helvetica,sans-Serif" font-size="14.00">entropy = 1.0</text>
<text text-anchor="middle" x="705" y="-505.2" font-family="Helvetica,sans-Serif" font-size="14.00">samples = 38163</text>
<text text-anchor="middle" x="705" y="-487.95" font-family="Helvetica,sans-Serif" font-size="14.00">value = [30104, 30241]</text>
<text text-anchor="middle" x="705" y="-470.7" font-family="Helvetica,sans-Serif" font-size="14.00">class = Plant</text>
</g>
<!-- 1 -->
<g id="node2" class="node">
<title>1</title>
<path fill="#f7d9c4" stroke="black" d="M610,-426.75C610,-426.75 450,-426.75 450,-426.75 444,-426.75 438,-420.75 438,-414.75 438,-414.75 438,-344.5 438,-344.5 438,-338.5 444,-332.5 450,-332.5 450,-332.5 610,-332.5 610,-332.5 616,-332.5 622,-338.5 622,-344.5 622,-344.5 622,-414.75 622,-414.75 622,-420.75 616,-426.75 610,-426.75"/>
<text text-anchor="middle" x="530" y="-409.45" font-family="Helvetica,sans-Serif" font-size="14.00">12_G &lt;= 0.5</text>
<text text-anchor="middle" x="530" y="-392.2" font-family="Helvetica,sans-Serif" font-size="14.00">entropy = 0.978</text>
<text text-anchor="middle" x="530" y="-374.95" font-family="Helvetica,sans-Serif" font-size="14.00">samples = 17907</text>
<text text-anchor="middle" x="530" y="-357.7" font-family="Helvetica,sans-Serif" font-size="14.00">value = [16638, 11680]</text>
<text text-anchor="middle" x="530" y="-340.45" font-family="Helvetica,sans-Serif" font-size="14.00">class = Animal</text>
</g>
<!-- 0&#45;&gt;1 -->
<g id="edge1" class="edge">
<title>0&#45;&gt;1</title>
<path fill="none" stroke="black" d="M641.82,-462.57C629.01,-453.19 615.45,-443.25 602.36,-433.65"/>
<polygon fill="black" stroke="black" points="604.74,-431.06 594.6,-427.97 600.6,-436.7 604.74,-431.06"/>
<text text-anchor="middle" x="597.19" y="-447.11" font-family="Helvetica,sans-Serif" font-size="14.00">True</text>
</g>
<!-- 9564 -->
<g id="node17" class="node">
<title>9564</title>
<path fill="#c9e4f8" stroke="black" d="M969,-426.75C969,-426.75 809,-426.75 809,-426.75 803,-426.75 797,-420.75 797,-414.75 797,-414.75 797,-344.5 797,-344.5 797,-338.5 803,-332.5 809,-332.5 809,-332.5 969,-332.5 969,-332.5 975,-332.5 981,-338.5 981,-344.5 981,-344.5 981,-414.75 981,-414.75 981,-420.75 975,-426.75 969,-426.75"/>
<text text-anchor="middle" x="889" y="-409.45" font-family="Helvetica,sans-Serif" font-size="14.00">23_U &lt;= 0.5</text>
<text text-anchor="middle" x="889" y="-392.2" font-family="Helvetica,sans-Serif" font-size="14.00">entropy = 0.982</text>
<text text-anchor="middle" x="889" y="-374.95" font-family="Helvetica,sans-Serif" font-size="14.00">samples = 20256</text>
<text text-anchor="middle" x="889" y="-357.7" font-family="Helvetica,sans-Serif" font-size="14.00">value = [13466, 18561]</text>
<text text-anchor="middle" x="889" y="-340.45" font-family="Helvetica,sans-Serif" font-size="14.00">class = Plant</text>
</g>
<!-- 0&#45;&gt;9564 -->
<g id="edge16" class="edge">
<title>0&#45;&gt;9564</title>
<path fill="none" stroke="black" d="M771.69,-462.39C785.06,-453.07 799.2,-443.22 812.86,-433.69"/>
<polygon fill="black" stroke="black" points="814.79,-436.62 820.99,-428.03 810.78,-430.88 814.79,-436.62"/>
<text text-anchor="middle" x="817.84" y="-447.1" font-family="Helvetica,sans-Serif" font-size="14.00">False</text>
</g>
<!-- 2 -->
<g id="node3" class="node">
<title>2</title>
<path fill="#f4cbad" stroke="black" d="M342.5,-296.5C342.5,-296.5 191.5,-296.5 191.5,-296.5 185.5,-296.5 179.5,-290.5 179.5,-284.5 179.5,-284.5 179.5,-214.25 179.5,-214.25 179.5,-208.25 185.5,-202.25 191.5,-202.25 191.5,-202.25 342.5,-202.25 342.5,-202.25 348.5,-202.25 354.5,-208.25 354.5,-214.25 354.5,-214.25 354.5,-284.5 354.5,-284.5 354.5,-290.5 348.5,-296.5 342.5,-296.5"/>
<text text-anchor="middle" x="267" y="-279.2" font-family="Helvetica,sans-Serif" font-size="14.00">6_A &lt;= 0.5</text>
<text text-anchor="middle" x="267" y="-261.95" font-family="Helvetica,sans-Serif" font-size="14.00">entropy = 0.95</text>
<text text-anchor="middle" x="267" y="-244.7" font-family="Helvetica,sans-Serif" font-size="14.00">samples = 12587</text>
<text text-anchor="middle" x="267" y="-227.45" font-family="Helvetica,sans-Serif" font-size="14.00">value = [12528, 7348]</text>
<text text-anchor="middle" x="267" y="-210.2" font-family="Helvetica,sans-Serif" font-size="14.00">class = Animal</text>
</g>
<!-- 1&#45;&gt;2 -->
<g id="edge2" class="edge">
<title>1&#45;&gt;2</title>
<path fill="none" stroke="black" d="M437.65,-333.59C414.08,-322.1 388.66,-309.7 364.82,-298.08"/>
<polygon fill="black" stroke="black" points="366.6,-295.05 356.08,-293.81 363.53,-301.34 366.6,-295.05"/>
</g>
<!-- 7057 -->
<g id="node10" class="node">
<title>7057</title>
<path fill="#f5fafe" stroke="black" d="M601,-296.5C601,-296.5 459,-296.5 459,-296.5 453,-296.5 447,-290.5 447,-284.5 447,-284.5 447,-214.25 447,-214.25 447,-208.25 453,-202.25 459,-202.25 459,-202.25 601,-202.25 601,-202.25 607,-202.25 613,-208.25 613,-214.25 613,-214.25 613,-284.5 613,-284.5 613,-290.5 607,-296.5 601,-296.5"/>
<text text-anchor="middle" x="530" y="-279.2" font-family="Helvetica,sans-Serif" font-size="14.00">22_U &lt;= 0.5</text>
<text text-anchor="middle" x="530" y="-261.95" font-family="Helvetica,sans-Serif" font-size="14.00">entropy = 1.0</text>
<text text-anchor="middle" x="530" y="-244.7" font-family="Helvetica,sans-Serif" font-size="14.00">samples = 5320</text>
<text text-anchor="middle" x="530" y="-227.45" font-family="Helvetica,sans-Serif" font-size="14.00">value = [4110, 4332]</text>
<text text-anchor="middle" x="530" y="-210.2" font-family="Helvetica,sans-Serif" font-size="14.00">class = Plant</text>
</g>
<!-- 1&#45;&gt;7057 -->
<g id="edge9" class="edge">
<title>1&#45;&gt;7057</title>
<path fill="none" stroke="black" d="M530,-332.32C530,-324.42 530,-316.13 530,-307.98"/>
<polygon fill="black" stroke="black" points="533.5,-308.12 530,-298.12 526.5,-308.12 533.5,-308.12"/>
</g>
<!-- 3 -->
<g id="node4" class="node">
<title>3</title>
<path fill="#f3c7a7" stroke="black" d="M154,-166.25C154,-166.25 12,-166.25 12,-166.25 6,-166.25 0,-160.25 0,-154.25 0,-154.25 0,-84 0,-84 0,-78 6,-72 12,-72 12,-72 154,-72 154,-72 160,-72 166,-78 166,-84 166,-84 166,-154.25 166,-154.25 166,-160.25 160,-166.25 154,-166.25"/>
<text text-anchor="middle" x="83" y="-148.95" font-family="Helvetica,sans-Serif" font-size="14.00">19_U &lt;= 0.5</text>
<text text-anchor="middle" x="83" y="-131.7" font-family="Helvetica,sans-Serif" font-size="14.00">entropy = 0.939</text>
<text text-anchor="middle" x="83" y="-114.45" font-family="Helvetica,sans-Serif" font-size="14.00">samples = 9758</text>
<text text-anchor="middle" x="83" y="-97.2" font-family="Helvetica,sans-Serif" font-size="14.00">value = [9898, 5475]</text>
<text text-anchor="middle" x="83" y="-79.95" font-family="Helvetica,sans-Serif" font-size="14.00">class = Animal</text>
</g>
<!-- 2&#45;&gt;3 -->
<g id="edge3" class="edge">
<title>2&#45;&gt;3</title>
<path fill="none" stroke="black" d="M200.31,-201.89C186.94,-192.57 172.8,-182.72 159.14,-173.19"/>
<polygon fill="black" stroke="black" points="161.22,-170.38 151.01,-167.53 157.21,-176.12 161.22,-170.38"/>
</g>
<!-- 5486 -->
<g id="node7" class="node">
<title>5486</title>
<path fill="#f8dbc6" stroke="black" d="M338,-166.25C338,-166.25 196,-166.25 196,-166.25 190,-166.25 184,-160.25 184,-154.25 184,-154.25 184,-84 184,-84 184,-78 190,-72 196,-72 196,-72 338,-72 338,-72 344,-72 350,-78 350,-84 350,-84 350,-154.25 350,-154.25 350,-160.25 344,-166.25 338,-166.25"/>
<text text-anchor="middle" x="267" y="-148.95" font-family="Helvetica,sans-Serif" font-size="14.00">22_U &lt;= 0.5</text>
<text text-anchor="middle" x="267" y="-131.7" font-family="Helvetica,sans-Serif" font-size="14.00">entropy = 0.98</text>
<text text-anchor="middle" x="267" y="-114.45" font-family="Helvetica,sans-Serif" font-size="14.00">samples = 2829</text>
<text text-anchor="middle" x="267" y="-97.2" font-family="Helvetica,sans-Serif" font-size="14.00">value = [2630, 1873]</text>
<text text-anchor="middle" x="267" y="-79.95" font-family="Helvetica,sans-Serif" font-size="14.00">class = Animal</text>
</g>
<!-- 2&#45;&gt;5486 -->
<g id="edge6" class="edge">
<title>2&#45;&gt;5486</title>
<path fill="none" stroke="black" d="M267,-202.07C267,-194.17 267,-185.88 267,-177.73"/>
<polygon fill="black" stroke="black" points="270.5,-177.87 267,-167.87 263.5,-177.87 270.5,-177.87"/>
</g>
<!-- 4 -->
<g id="node5" class="node">
<title>4</title>
<path fill="#c0c0c0" stroke="black" d="M62,-36C62,-36 32,-36 32,-36 26,-36 20,-30 20,-24 20,-24 20,-12 20,-12 20,-6 26,0 32,0 32,0 62,0 62,0 68,0 74,-6 74,-12 74,-12 74,-24 74,-24 74,-30 68,-36 62,-36"/>
<text text-anchor="middle" x="47" y="-13.32" font-family="Helvetica,sans-Serif" font-size="14.00">(...)</text>
</g>
<!-- 3&#45;&gt;4 -->
<g id="edge4" class="edge">
<title>3&#45;&gt;4</title>
<path fill="none" stroke="black" d="M66.16,-71.75C63.06,-63.22 59.92,-54.57 57.1,-46.8"/>
<polygon fill="black" stroke="black" points="60.46,-45.8 53.75,-37.6 53.88,-48.19 60.46,-45.8"/>
</g>
<!-- 4173 -->
<g id="node6" class="node">
<title>4173</title>
<path fill="#c0c0c0" stroke="black" d="M134,-36C134,-36 104,-36 104,-36 98,-36 92,-30 92,-24 92,-24 92,-12 92,-12 92,-6 98,0 104,0 104,0 134,0 134,0 140,0 146,-6 146,-12 146,-12 146,-24 146,-24 146,-30 140,-36 134,-36"/>
<text text-anchor="middle" x="119" y="-13.32" font-family="Helvetica,sans-Serif" font-size="14.00">(...)</text>
</g>
<!-- 3&#45;&gt;4173 -->
<g id="edge5" class="edge">
<title>3&#45;&gt;4173</title>
<path fill="none" stroke="black" d="M99.84,-71.75C102.94,-63.22 106.08,-54.57 108.9,-46.8"/>
<polygon fill="black" stroke="black" points="112.12,-48.19 112.25,-37.6 105.54,-45.8 112.12,-48.19"/>
</g>
<!-- 5487 -->
<g id="node8" class="node">
<title>5487</title>
<path fill="#c0c0c0" stroke="black" d="M245,-36C245,-36 215,-36 215,-36 209,-36 203,-30 203,-24 203,-24 203,-12 203,-12 203,-6 209,0 215,0 215,0 245,0 245,0 251,0 257,-6 257,-12 257,-12 257,-24 257,-24 257,-30 251,-36 245,-36"/>
<text text-anchor="middle" x="230" y="-13.32" font-family="Helvetica,sans-Serif" font-size="14.00">(...)</text>
</g>
<!-- 5486&#45;&gt;5487 -->
<g id="edge7" class="edge">
<title>5486&#45;&gt;5487</title>
<path fill="none" stroke="black" d="M249.69,-71.75C246.51,-63.22 243.28,-54.57 240.38,-46.8"/>
<polygon fill="black" stroke="black" points="243.72,-45.74 236.94,-37.59 237.16,-48.18 243.72,-45.74"/>
</g>
<!-- 6880 -->
<g id="node9" class="node">
<title>6880</title>
<path fill="#c0c0c0" stroke="black" d="M317,-36C317,-36 287,-36 287,-36 281,-36 275,-30 275,-24 275,-24 275,-12 275,-12 275,-6 281,0 287,0 287,0 317,0 317,0 323,0 329,-6 329,-12 329,-12 329,-24 329,-24 329,-30 323,-36 317,-36"/>
<text text-anchor="middle" x="302" y="-13.32" font-family="Helvetica,sans-Serif" font-size="14.00">(...)</text>
</g>
<!-- 5486&#45;&gt;6880 -->
<g id="edge8" class="edge">
<title>5486&#45;&gt;6880</title>
<path fill="none" stroke="black" d="M283.37,-71.75C286.39,-63.22 289.44,-54.57 292.18,-46.8"/>
<polygon fill="black" stroke="black" points="295.4,-48.19 295.43,-37.6 288.8,-45.86 295.4,-48.19"/>
</g>
<!-- 7058 -->
<g id="node11" class="node">
<title>7058</title>
<path fill="#d5eaf9" stroke="black" d="M522,-166.25C522,-166.25 380,-166.25 380,-166.25 374,-166.25 368,-160.25 368,-154.25 368,-154.25 368,-84 368,-84 368,-78 374,-72 380,-72 380,-72 522,-72 522,-72 528,-72 534,-78 534,-84 534,-84 534,-154.25 534,-154.25 534,-160.25 528,-166.25 522,-166.25"/>
<text text-anchor="middle" x="451" y="-148.95" font-family="Helvetica,sans-Serif" font-size="14.00">4_A &lt;= 0.5</text>
<text text-anchor="middle" x="451" y="-131.7" font-family="Helvetica,sans-Serif" font-size="14.00">entropy = 0.99</text>
<text text-anchor="middle" x="451" y="-114.45" font-family="Helvetica,sans-Serif" font-size="14.00">samples = 4639</text>
<text text-anchor="middle" x="451" y="-97.2" font-family="Helvetica,sans-Serif" font-size="14.00">value = [3239, 4110]</text>
<text text-anchor="middle" x="451" y="-79.95" font-family="Helvetica,sans-Serif" font-size="14.00">class = Plant</text>
</g>
<!-- 7057&#45;&gt;7058 -->
<g id="edge10" class="edge">
<title>7057&#45;&gt;7058</title>
<path fill="none" stroke="black" d="M501.48,-202.07C496.28,-193.63 490.8,-184.74 485.45,-176.05"/>
<polygon fill="black" stroke="black" points="488.5,-174.33 480.27,-167.65 482.54,-178 488.5,-174.33"/>
</g>
<!-- 9261 -->
<g id="node14" class="node">
<title>9261</title>
<path fill="#eca16b" stroke="black" d="M688,-166.25C688,-166.25 564,-166.25 564,-166.25 558,-166.25 552,-160.25 552,-154.25 552,-154.25 552,-84 552,-84 552,-78 558,-72 564,-72 564,-72 688,-72 688,-72 694,-72 700,-78 700,-84 700,-84 700,-154.25 700,-154.25 700,-160.25 694,-166.25 688,-166.25"/>
<text text-anchor="middle" x="626" y="-148.95" font-family="Helvetica,sans-Serif" font-size="14.00">19_U &lt;= 0.5</text>
<text text-anchor="middle" x="626" y="-131.7" font-family="Helvetica,sans-Serif" font-size="14.00">entropy = 0.728</text>
<text text-anchor="middle" x="626" y="-114.45" font-family="Helvetica,sans-Serif" font-size="14.00">samples = 681</text>
<text text-anchor="middle" x="626" y="-97.2" font-family="Helvetica,sans-Serif" font-size="14.00">value = [871, 222]</text>
<text text-anchor="middle" x="626" y="-79.95" font-family="Helvetica,sans-Serif" font-size="14.00">class = Animal</text>
</g>
<!-- 7057&#45;&gt;9261 -->
<g id="edge13" class="edge">
<title>7057&#45;&gt;9261</title>
<path fill="none" stroke="black" d="M564.66,-202.07C571.12,-193.45 577.92,-184.35 584.56,-175.49"/>
<polygon fill="black" stroke="black" points="587.3,-177.67 590.49,-167.57 581.69,-173.48 587.3,-177.67"/>
</g>
<!-- 7059 -->
<g id="node12" class="node">
<title>7059</title>
<path fill="#c0c0c0" stroke="black" d="M409,-36C409,-36 379,-36 379,-36 373,-36 367,-30 367,-24 367,-24 367,-12 367,-12 367,-6 373,0 379,0 379,0 409,0 409,0 415,0 421,-6 421,-12 421,-12 421,-24 421,-24 421,-30 415,-36 409,-36"/>
<text text-anchor="middle" x="394" y="-13.32" font-family="Helvetica,sans-Serif" font-size="14.00">(...)</text>
</g>
<!-- 7058&#45;&gt;7059 -->
<g id="edge11" class="edge">
<title>7058&#45;&gt;7059</title>
<path fill="none" stroke="black" d="M424.34,-71.75C419.26,-62.93 414.1,-53.96 409.52,-45.99"/>
<polygon fill="black" stroke="black" points="412.65,-44.41 404.63,-37.48 406.58,-47.9 412.65,-44.41"/>
</g>
<!-- 8776 -->
<g id="node13" class="node">
<title>8776</title>
<path fill="#c0c0c0" stroke="black" d="M481,-36C481,-36 451,-36 451,-36 445,-36 439,-30 439,-24 439,-24 439,-12 439,-12 439,-6 445,0 451,0 451,0 481,0 481,0 487,0 493,-6 493,-12 493,-12 493,-24 493,-24 493,-30 487,-36 481,-36"/>
<text text-anchor="middle" x="466" y="-13.32" font-family="Helvetica,sans-Serif" font-size="14.00">(...)</text>
</g>
<!-- 7058&#45;&gt;8776 -->
<g id="edge12" class="edge">
<title>7058&#45;&gt;8776</title>
<path fill="none" stroke="black" d="M458.02,-71.75C459.28,-63.42 460.56,-54.97 461.71,-47.34"/>
<polygon fill="black" stroke="black" points="465.14,-48.08 463.17,-37.67 458.22,-47.03 465.14,-48.08"/>
</g>
<!-- 9262 -->
<g id="node15" class="node">
<title>9262</title>
<path fill="#c0c0c0" stroke="black" d="M587,-36C587,-36 557,-36 557,-36 551,-36 545,-30 545,-24 545,-24 545,-12 545,-12 545,-6 551,0 557,0 557,0 587,0 587,0 593,0 599,-6 599,-12 599,-12 599,-24 599,-24 599,-30 593,-36 587,-36"/>
<text text-anchor="middle" x="572" y="-13.32" font-family="Helvetica,sans-Serif" font-size="14.00">(...)</text>
</g>
<!-- 9261&#45;&gt;9262 -->
<g id="edge14" class="edge">
<title>9261&#45;&gt;9262</title>
<path fill="none" stroke="black" d="M600.74,-71.75C595.98,-63.03 591.16,-54.16 586.85,-46.26"/>
<polygon fill="black" stroke="black" points="589.94,-44.61 582.08,-37.5 583.79,-47.96 589.94,-44.61"/>
</g>
<!-- 9483 -->
<g id="node16" class="node">
<title>9483</title>
<path fill="#c0c0c0" stroke="black" d="M659,-36C659,-36 629,-36 629,-36 623,-36 617,-30 617,-24 617,-24 617,-12 617,-12 617,-6 623,0 629,0 629,0 659,0 659,0 665,0 671,-6 671,-12 671,-12 671,-24 671,-24 671,-30 665,-36 659,-36"/>
<text text-anchor="middle" x="644" y="-13.32" font-family="Helvetica,sans-Serif" font-size="14.00">(...)</text>
</g>
<!-- 9261&#45;&gt;9483 -->
<g id="edge15" class="edge">
<title>9261&#45;&gt;9483</title>
<path fill="none" stroke="black" d="M634.42,-71.75C635.93,-63.42 637.47,-54.97 638.85,-47.34"/>
<polygon fill="black" stroke="black" points="642.27,-48.13 640.61,-37.66 635.38,-46.88 642.27,-48.13"/>
</g>
<!-- 9565 -->
<g id="node18" class="node">
<title>9565</title>
<path fill="#bcdef6" stroke="black" d="M969,-296.5C969,-296.5 809,-296.5 809,-296.5 803,-296.5 797,-290.5 797,-284.5 797,-284.5 797,-214.25 797,-214.25 797,-208.25 803,-202.25 809,-202.25 809,-202.25 969,-202.25 969,-202.25 975,-202.25 981,-208.25 981,-214.25 981,-214.25 981,-284.5 981,-284.5 981,-290.5 975,-296.5 969,-296.5"/>
<text text-anchor="middle" x="889" y="-279.2" font-family="Helvetica,sans-Serif" font-size="14.00">22_G &lt;= 0.5</text>
<text text-anchor="middle" x="889" y="-261.95" font-family="Helvetica,sans-Serif" font-size="14.00">entropy = 0.97</text>
<text text-anchor="middle" x="889" y="-244.7" font-family="Helvetica,sans-Serif" font-size="14.00">samples = 19342</text>
<text text-anchor="middle" x="889" y="-227.45" font-family="Helvetica,sans-Serif" font-size="14.00">value = [12201, 18402]</text>
<text text-anchor="middle" x="889" y="-210.2" font-family="Helvetica,sans-Serif" font-size="14.00">class = Plant</text>
</g>
<!-- 9564&#45;&gt;9565 -->
<g id="edge17" class="edge">
<title>9564&#45;&gt;9565</title>
<path fill="none" stroke="black" d="M889,-332.32C889,-324.42 889,-316.13 889,-307.98"/>
<polygon fill="black" stroke="black" points="892.5,-308.12 889,-298.12 885.5,-308.12 892.5,-308.12"/>
</g>
<!-- 16506 -->
<g id="node25" class="node">
<title>16506</title>
<path fill="#e89152" stroke="black" d="M1227.5,-296.5C1227.5,-296.5 1094.5,-296.5 1094.5,-296.5 1088.5,-296.5 1082.5,-290.5 1082.5,-284.5 1082.5,-284.5 1082.5,-214.25 1082.5,-214.25 1082.5,-208.25 1088.5,-202.25 1094.5,-202.25 1094.5,-202.25 1227.5,-202.25 1227.5,-202.25 1233.5,-202.25 1239.5,-208.25 1239.5,-214.25 1239.5,-214.25 1239.5,-284.5 1239.5,-284.5 1239.5,-290.5 1233.5,-296.5 1227.5,-296.5"/>
<text text-anchor="middle" x="1161" y="-279.2" font-family="Helvetica,sans-Serif" font-size="14.00">20_U &lt;= 0.5</text>
<text text-anchor="middle" x="1161" y="-261.95" font-family="Helvetica,sans-Serif" font-size="14.00">entropy = 0.505</text>
<text text-anchor="middle" x="1161" y="-244.7" font-family="Helvetica,sans-Serif" font-size="14.00">samples = 914</text>
<text text-anchor="middle" x="1161" y="-227.45" font-family="Helvetica,sans-Serif" font-size="14.00">value = [1265, 159]</text>
<text text-anchor="middle" x="1161" y="-210.2" font-family="Helvetica,sans-Serif" font-size="14.00">class = Animal</text>
</g>
<!-- 9564&#45;&gt;16506 -->
<g id="edge24" class="edge">
<title>9564&#45;&gt;16506</title>
<path fill="none" stroke="black" d="M981.47,-335.03C1010.81,-321.19 1043.18,-305.93 1072.25,-292.22"/>
<polygon fill="black" stroke="black" points="1073.47,-295.52 1081.02,-288.09 1070.48,-289.18 1073.47,-295.52"/>
</g>
<!-- 9566 -->
<g id="node19" class="node">
<title>9566</title>
<path fill="#a5d3f3" stroke="black" d="M881.5,-166.25C881.5,-166.25 730.5,-166.25 730.5,-166.25 724.5,-166.25 718.5,-160.25 718.5,-154.25 718.5,-154.25 718.5,-84 718.5,-84 718.5,-78 724.5,-72 730.5,-72 730.5,-72 881.5,-72 881.5,-72 887.5,-72 893.5,-78 893.5,-84 893.5,-84 893.5,-154.25 893.5,-154.25 893.5,-160.25 887.5,-166.25 881.5,-166.25"/>
<text text-anchor="middle" x="806" y="-148.95" font-family="Helvetica,sans-Serif" font-size="14.00">20_C &lt;= 0.5</text>
<text text-anchor="middle" x="806" y="-131.7" font-family="Helvetica,sans-Serif" font-size="14.00">entropy = 0.937</text>
<text text-anchor="middle" x="806" y="-114.45" font-family="Helvetica,sans-Serif" font-size="14.00">samples = 17225</text>
<text text-anchor="middle" x="806" y="-97.2" font-family="Helvetica,sans-Serif" font-size="14.00">value = [9637, 17648]</text>
<text text-anchor="middle" x="806" y="-79.95" font-family="Helvetica,sans-Serif" font-size="14.00">class = Plant</text>
</g>
<!-- 9565&#45;&gt;9566 -->
<g id="edge18" class="edge">
<title>9565&#45;&gt;9566</title>
<path fill="none" stroke="black" d="M859.04,-202.07C853.51,-193.54 847.69,-184.54 842.01,-175.77"/>
<polygon fill="black" stroke="black" points="845.11,-174.12 836.74,-167.63 839.24,-177.93 845.11,-174.12"/>
</g>
<!-- 15757 -->
<g id="node22" class="node">
<title>15757</title>
<path fill="#eda673" stroke="black" d="M1056.5,-166.25C1056.5,-166.25 923.5,-166.25 923.5,-166.25 917.5,-166.25 911.5,-160.25 911.5,-154.25 911.5,-154.25 911.5,-84 911.5,-84 911.5,-78 917.5,-72 923.5,-72 923.5,-72 1056.5,-72 1056.5,-72 1062.5,-72 1068.5,-78 1068.5,-84 1068.5,-84 1068.5,-154.25 1068.5,-154.25 1068.5,-160.25 1062.5,-166.25 1056.5,-166.25"/>
<text text-anchor="middle" x="990" y="-148.95" font-family="Helvetica,sans-Serif" font-size="14.00">5_G &lt;= 0.5</text>
<text text-anchor="middle" x="990" y="-131.7" font-family="Helvetica,sans-Serif" font-size="14.00">entropy = 0.773</text>
<text text-anchor="middle" x="990" y="-114.45" font-family="Helvetica,sans-Serif" font-size="14.00">samples = 2117</text>
<text text-anchor="middle" x="990" y="-97.2" font-family="Helvetica,sans-Serif" font-size="14.00">value = [2564, 754]</text>
<text text-anchor="middle" x="990" y="-79.95" font-family="Helvetica,sans-Serif" font-size="14.00">class = Animal</text>
</g>
<!-- 9565&#45;&gt;15757 -->
<g id="edge21" class="edge">
<title>9565&#45;&gt;15757</title>
<path fill="none" stroke="black" d="M925.46,-202.07C932.33,-193.36 939.57,-184.16 946.62,-175.21"/>
<polygon fill="black" stroke="black" points="949.22,-177.57 952.65,-167.55 943.72,-173.24 949.22,-177.57"/>
</g>
<!-- 9567 -->
<g id="node20" class="node">
<title>9567</title>
<path fill="#c0c0c0" stroke="black" d="M769,-36C769,-36 739,-36 739,-36 733,-36 727,-30 727,-24 727,-24 727,-12 727,-12 727,-6 733,0 739,0 739,0 769,0 769,0 775,0 781,-6 781,-12 781,-12 781,-24 781,-24 781,-30 775,-36 769,-36"/>
<text text-anchor="middle" x="754" y="-13.32" font-family="Helvetica,sans-Serif" font-size="14.00">(...)</text>
</g>
<!-- 9566&#45;&gt;9567 -->
<g id="edge19" class="edge">
<title>9566&#45;&gt;9567</title>
<path fill="none" stroke="black" d="M781.67,-71.75C777.1,-63.03 772.45,-54.16 768.3,-46.26"/>
<polygon fill="black" stroke="black" points="771.46,-44.74 763.71,-37.51 765.26,-47.99 771.46,-44.74"/>
</g>
<!-- 14324 -->
<g id="node21" class="node">
<title>14324</title>
<path fill="#c0c0c0" stroke="black" d="M841,-36C841,-36 811,-36 811,-36 805,-36 799,-30 799,-24 799,-24 799,-12 799,-12 799,-6 805,0 811,0 811,0 841,0 841,0 847,0 853,-6 853,-12 853,-12 853,-24 853,-24 853,-30 847,-36 841,-36"/>
<text text-anchor="middle" x="826" y="-13.32" font-family="Helvetica,sans-Serif" font-size="14.00">(...)</text>
</g>
<!-- 9566&#45;&gt;14324 -->
<g id="edge20" class="edge">
<title>9566&#45;&gt;14324</title>
<path fill="none" stroke="black" d="M815.36,-71.75C817.04,-63.42 818.74,-54.97 820.28,-47.34"/>
<polygon fill="black" stroke="black" points="823.69,-48.15 822.24,-37.66 816.83,-46.77 823.69,-48.15"/>
</g>
<!-- 15758 -->
<g id="node23" class="node">
<title>15758</title>
<path fill="#c0c0c0" stroke="black" d="M946,-36C946,-36 916,-36 916,-36 910,-36 904,-30 904,-24 904,-24 904,-12 904,-12 904,-6 910,0 916,0 916,0 946,0 946,0 952,0 958,-6 958,-12 958,-12 958,-24 958,-24 958,-30 952,-36 946,-36"/>
<text text-anchor="middle" x="931" y="-13.32" font-family="Helvetica,sans-Serif" font-size="14.00">(...)</text>
</g>
<!-- 15757&#45;&gt;15758 -->
<g id="edge22" class="edge">
<title>15757&#45;&gt;15758</title>
<path fill="none" stroke="black" d="M962.4,-71.75C957.15,-62.93 951.81,-53.96 947.06,-45.99"/>
<polygon fill="black" stroke="black" points="950.12,-44.28 942,-37.47 944.1,-47.86 950.12,-44.28"/>
</g>
<!-- 16315 -->
<g id="node24" class="node">
<title>16315</title>
<path fill="#c0c0c0" stroke="black" d="M1018,-36C1018,-36 988,-36 988,-36 982,-36 976,-30 976,-24 976,-24 976,-12 976,-12 976,-6 982,0 988,0 988,0 1018,0 1018,0 1024,0 1030,-6 1030,-12 1030,-12 1030,-24 1030,-24 1030,-30 1024,-36 1018,-36"/>
<text text-anchor="middle" x="1003" y="-13.32" font-family="Helvetica,sans-Serif" font-size="14.00">(...)</text>
</g>
<!-- 15757&#45;&gt;16315 -->
<g id="edge23" class="edge">
<title>15757&#45;&gt;16315</title>
<path fill="none" stroke="black" d="M996.08,-71.75C997.17,-63.42 998.28,-54.97 999.28,-47.34"/>
<polygon fill="black" stroke="black" points="1002.72,-48.04 1000.55,-37.67 995.78,-47.13 1002.72,-48.04"/>
</g>
<!-- 16507 -->
<g id="node26" class="node">
<title>16507</title>
<path fill="#ea985c" stroke="black" d="M1223,-166.25C1223,-166.25 1099,-166.25 1099,-166.25 1093,-166.25 1087,-160.25 1087,-154.25 1087,-154.25 1087,-84 1087,-84 1087,-78 1093,-72 1099,-72 1099,-72 1223,-72 1223,-72 1229,-72 1235,-78 1235,-84 1235,-84 1235,-154.25 1235,-154.25 1235,-160.25 1229,-166.25 1223,-166.25"/>
<text text-anchor="middle" x="1161" y="-148.95" font-family="Helvetica,sans-Serif" font-size="14.00">14_U &lt;= 0.5</text>
<text text-anchor="middle" x="1161" y="-131.7" font-family="Helvetica,sans-Serif" font-size="14.00">entropy = 0.614</text>
<text text-anchor="middle" x="1161" y="-114.45" font-family="Helvetica,sans-Serif" font-size="14.00">samples = 580</text>
<text text-anchor="middle" x="1161" y="-97.2" font-family="Helvetica,sans-Serif" font-size="14.00">value = [755, 135]</text>
<text text-anchor="middle" x="1161" y="-79.95" font-family="Helvetica,sans-Serif" font-size="14.00">class = Animal</text>
</g>
<!-- 16506&#45;&gt;16507 -->
<g id="edge25" class="edge">
<title>16506&#45;&gt;16507</title>
<path fill="none" stroke="black" d="M1161,-202.07C1161,-194.17 1161,-185.88 1161,-177.73"/>
<polygon fill="black" stroke="black" points="1164.5,-177.87 1161,-167.87 1157.5,-177.87 1164.5,-177.87"/>
</g>
<!-- 16738 -->
<g id="node29" class="node">
<title>16738</title>
<path fill="#e68742" stroke="black" d="M1380.5,-166.25C1380.5,-166.25 1265.5,-166.25 1265.5,-166.25 1259.5,-166.25 1253.5,-160.25 1253.5,-154.25 1253.5,-154.25 1253.5,-84 1253.5,-84 1253.5,-78 1259.5,-72 1265.5,-72 1265.5,-72 1380.5,-72 1380.5,-72 1386.5,-72 1392.5,-78 1392.5,-84 1392.5,-84 1392.5,-154.25 1392.5,-154.25 1392.5,-160.25 1386.5,-166.25 1380.5,-166.25"/>
<text text-anchor="middle" x="1323" y="-148.95" font-family="Helvetica,sans-Serif" font-size="14.00">24_A &lt;= 0.5</text>
<text text-anchor="middle" x="1323" y="-131.7" font-family="Helvetica,sans-Serif" font-size="14.00">entropy = 0.265</text>
<text text-anchor="middle" x="1323" y="-114.45" font-family="Helvetica,sans-Serif" font-size="14.00">samples = 334</text>
<text text-anchor="middle" x="1323" y="-97.2" font-family="Helvetica,sans-Serif" font-size="14.00">value = [510, 24]</text>
<text text-anchor="middle" x="1323" y="-79.95" font-family="Helvetica,sans-Serif" font-size="14.00">class = Animal</text>
</g>
<!-- 16506&#45;&gt;16738 -->
<g id="edge28" class="edge">
<title>16506&#45;&gt;16738</title>
<path fill="none" stroke="black" d="M1219.49,-202.07C1231.11,-192.87 1243.41,-183.13 1255.32,-173.71"/>
<polygon fill="black" stroke="black" points="1257.47,-176.46 1263.14,-167.51 1253.13,-170.98 1257.47,-176.46"/>
</g>
<!-- 16508 -->
<g id="node27" class="node">
<title>16508</title>
<path fill="#c0c0c0" stroke="black" d="M1131,-36C1131,-36 1101,-36 1101,-36 1095,-36 1089,-30 1089,-24 1089,-24 1089,-12 1089,-12 1089,-6 1095,0 1101,0 1101,0 1131,0 1131,0 1137,0 1143,-6 1143,-12 1143,-12 1143,-24 1143,-24 1143,-30 1137,-36 1131,-36"/>
<text text-anchor="middle" x="1116" y="-13.32" font-family="Helvetica,sans-Serif" font-size="14.00">(...)</text>
</g>
<!-- 16507&#45;&gt;16508 -->
<g id="edge26" class="edge">
<title>16507&#45;&gt;16508</title>
<path fill="none" stroke="black" d="M1139.95,-71.75C1136.03,-63.12 1132.05,-54.36 1128.5,-46.53"/>
<polygon fill="black" stroke="black" points="1131.74,-45.21 1124.42,-37.55 1125.37,-48.1 1131.74,-45.21"/>
</g>
<!-- 16701 -->
<g id="node28" class="node">
<title>16701</title>
<path fill="#c0c0c0" stroke="black" d="M1203,-36C1203,-36 1173,-36 1173,-36 1167,-36 1161,-30 1161,-24 1161,-24 1161,-12 1161,-12 1161,-6 1167,0 1173,0 1173,0 1203,0 1203,0 1209,0 1215,-6 1215,-12 1215,-12 1215,-24 1215,-24 1215,-30 1209,-36 1203,-36"/>
<text text-anchor="middle" x="1188" y="-13.32" font-family="Helvetica,sans-Serif" font-size="14.00">(...)</text>
</g>
<!-- 16507&#45;&gt;16701 -->
<g id="edge27" class="edge">
<title>16507&#45;&gt;16701</title>
<path fill="none" stroke="black" d="M1173.63,-71.75C1175.93,-63.32 1178.26,-54.77 1180.35,-47.07"/>
<polygon fill="black" stroke="black" points="1183.67,-48.2 1182.92,-37.63 1176.92,-46.36 1183.67,-48.2"/>
</g>
<!-- 16739 -->
<g id="node30" class="node">
<title>16739</title>
<path fill="#c0c0c0" stroke="black" d="M1302,-36C1302,-36 1272,-36 1272,-36 1266,-36 1260,-30 1260,-24 1260,-24 1260,-12 1260,-12 1260,-6 1266,0 1272,0 1272,0 1302,0 1302,0 1308,0 1314,-6 1314,-12 1314,-12 1314,-24 1314,-24 1314,-30 1308,-36 1302,-36"/>
<text text-anchor="middle" x="1287" y="-13.32" font-family="Helvetica,sans-Serif" font-size="14.00">(...)</text>
</g>
<!-- 16738&#45;&gt;16739 -->
<g id="edge29" class="edge">
<title>16738&#45;&gt;16739</title>
<path fill="none" stroke="black" d="M1306.16,-71.75C1303.06,-63.22 1299.92,-54.57 1297.1,-46.8"/>
<polygon fill="black" stroke="black" points="1300.46,-45.8 1293.75,-37.6 1293.88,-48.19 1300.46,-45.8"/>
</g>
<!-- 16800 -->
<g id="node31" class="node">
<title>16800</title>
<path fill="#c0c0c0" stroke="black" d="M1374,-36C1374,-36 1344,-36 1344,-36 1338,-36 1332,-30 1332,-24 1332,-24 1332,-12 1332,-12 1332,-6 1338,0 1344,0 1344,0 1374,0 1374,0 1380,0 1386,-6 1386,-12 1386,-12 1386,-24 1386,-24 1386,-30 1380,-36 1374,-36"/>
<text text-anchor="middle" x="1359" y="-13.32" font-family="Helvetica,sans-Serif" font-size="14.00">(...)</text>
</g>
<!-- 16738&#45;&gt;16800 -->
<g id="edge30" class="edge">
<title>16738&#45;&gt;16800</title>
<path fill="none" stroke="black" d="M1339.84,-71.75C1342.94,-63.22 1346.08,-54.57 1348.9,-46.8"/>
<polygon fill="black" stroke="black" points="1352.12,-48.19 1352.25,-37.6 1345.54,-45.8 1352.12,-48.19"/>
</g>
</g>
</svg>
