<?xml version="1.0" encoding="UTF-8" standalone="no"?>
<!DOCTYPE svg PUBLIC "-//W3C//DTD SVG 1.1//EN"
 "http://www.w3.org/Graphics/SVG/1.1/DTD/svg11.dtd">
<!-- Generated by graphviz version 12.0.0 (20240803.0821)
 -->
<!-- Title: Tree Pages: 1 -->
<svg width="1446pt" height="565pt"
 viewBox="0.00 0.00 1445.50 565.00" xmlns="http://www.w3.org/2000/svg" xmlns:xlink="http://www.w3.org/1999/xlink">
<g id="graph0" class="graph" transform="scale(1 1) rotate(0) translate(4 561)">
<title>Tree</title>
<polygon fill="white" stroke="none" points="-4,4 -4,-561 1441.5,-561 1441.5,4 -4,4"/>
<!-- 0 -->
<g id="node1" class="node">
<title>0</title>
<path fill="#fffefe" stroke="black" d="M803,-557C803,-557 643,-557 643,-557 637,-557 631,-551 631,-545 631,-545 631,-474.75 631,-474.75 631,-468.75 637,-462.75 643,-462.75 643,-462.75 803,-462.75 803,-462.75 809,-462.75 815,-468.75 815,-474.75 815,-474.75 815,-545 815,-545 815,-551 809,-557 803,-557"/>
<text text-anchor="middle" x="723" y="-539.7" font-family="Helvetica,sans-Serif" font-size="14.00">6_A &lt;= 0.5</text>
<text text-anchor="middle" x="723" y="-522.45" font-family="Helvetica,sans-Serif" font-size="14.00">entropy = 1.0</text>
<text text-anchor="middle" x="723" y="-505.2" font-family="Helvetica,sans-Serif" font-size="14.00">samples = 38021</text>
<text text-anchor="middle" x="723" y="-487.95" font-family="Helvetica,sans-Serif" font-size="14.00">value = [30287, 30058]</text>
<text text-anchor="middle" x="723" y="-470.7" font-family="Helvetica,sans-Serif" font-size="14.00">class = Animal</text>
</g>
<!-- 1 -->
<g id="node2" class="node">
<title>1</title>
<path fill="#fcf1ea" stroke="black" d="M632,-426.75C632,-426.75 472,-426.75 472,-426.75 466,-426.75 460,-420.75 460,-414.75 460,-414.75 460,-344.5 460,-344.5 460,-338.5 466,-332.5 472,-332.5 472,-332.5 632,-332.5 632,-332.5 638,-332.5 644,-338.5 644,-344.5 644,-344.5 644,-414.75 644,-414.75 644,-420.75 638,-426.75 632,-426.75"/>
<text text-anchor="middle" x="552" y="-409.45" font-family="Helvetica,sans-Serif" font-size="14.00">22_U &lt;= 0.5</text>
<text text-anchor="middle" x="552" y="-392.2" font-family="Helvetica,sans-Serif" font-size="14.00">entropy = 0.998</text>
<text text-anchor="middle" x="552" y="-374.95" font-family="Helvetica,sans-Serif" font-size="14.00">samples = 28554</text>
<text text-anchor="middle" x="552" y="-357.7" font-family="Helvetica,sans-Serif" font-size="14.00">value = [23960, 21369]</text>
<text text-anchor="middle" x="552" y="-340.45" font-family="Helvetica,sans-Serif" font-size="14.00">class = Animal</text>
</g>
<!-- 0&#45;&gt;1 -->
<g id="edge1" class="edge">
<title>0&#45;&gt;1</title>
<path fill="none" stroke="black" d="M661.27,-462.57C648.87,-453.28 635.75,-443.44 623.07,-433.93"/>
<polygon fill="black" stroke="black" points="625.24,-431.18 615.14,-427.98 621.04,-436.78 625.24,-431.18"/>
<text text-anchor="middle" x="617.47" y="-447.15" font-family="Helvetica,sans-Serif" font-size="14.00">True</text>
</g>
<!-- 12860 -->
<g id="node17" class="node">
<title>12860</title>
<path fill="#c9e4f8" stroke="black" d="M981,-426.75C981,-426.75 839,-426.75 839,-426.75 833,-426.75 827,-420.75 827,-414.75 827,-414.75 827,-344.5 827,-344.5 827,-338.5 833,-332.5 839,-332.5 839,-332.5 981,-332.5 981,-332.5 987,-332.5 993,-338.5 993,-344.5 993,-344.5 993,-414.75 993,-414.75 993,-420.75 987,-426.75 981,-426.75"/>
<text text-anchor="middle" x="910" y="-409.45" font-family="Helvetica,sans-Serif" font-size="14.00">8_G &lt;= 0.5</text>
<text text-anchor="middle" x="910" y="-392.2" font-family="Helvetica,sans-Serif" font-size="14.00">entropy = 0.982</text>
<text text-anchor="middle" x="910" y="-374.95" font-family="Helvetica,sans-Serif" font-size="14.00">samples = 9467</text>
<text text-anchor="middle" x="910" y="-357.7" font-family="Helvetica,sans-Serif" font-size="14.00">value = [6327, 8689]</text>
<text text-anchor="middle" x="910" y="-340.45" font-family="Helvetica,sans-Serif" font-size="14.00">class = Plant</text>
</g>
<!-- 0&#45;&gt;12860 -->
<g id="edge16" class="edge">
<title>0&#45;&gt;12860</title>
<path fill="none" stroke="black" d="M790.78,-462.39C804.49,-452.98 819.01,-443.03 833.02,-433.42"/>
<polygon fill="black" stroke="black" points="834.63,-436.56 840.89,-428.02 830.67,-430.79 834.63,-436.56"/>
<text text-anchor="middle" x="837.56" y="-447.07" font-family="Helvetica,sans-Serif" font-size="14.00">False</text>
</g>
<!-- 2 -->
<g id="node3" class="node">
<title>2</title>
<path fill="#f0f7fd" stroke="black" d="M365,-296.5C365,-296.5 205,-296.5 205,-296.5 199,-296.5 193,-290.5 193,-284.5 193,-284.5 193,-214.25 193,-214.25 193,-208.25 199,-202.25 205,-202.25 205,-202.25 365,-202.25 365,-202.25 371,-202.25 377,-208.25 377,-214.25 377,-214.25 377,-284.5 377,-284.5 377,-290.5 371,-296.5 365,-296.5"/>
<text text-anchor="middle" x="285" y="-279.2" font-family="Helvetica,sans-Serif" font-size="14.00">21_C &lt;= 0.5</text>
<text text-anchor="middle" x="285" y="-261.95" font-family="Helvetica,sans-Serif" font-size="14.00">entropy = 0.999</text>
<text text-anchor="middle" x="285" y="-244.7" font-family="Helvetica,sans-Serif" font-size="14.00">samples = 24513</text>
<text text-anchor="middle" x="285" y="-227.45" font-family="Helvetica,sans-Serif" font-size="14.00">value = [18674, 20242]</text>
<text text-anchor="middle" x="285" y="-210.2" font-family="Helvetica,sans-Serif" font-size="14.00">class = Plant</text>
</g>
<!-- 1&#45;&gt;2 -->
<g id="edge2" class="edge">
<title>1&#45;&gt;2</title>
<path fill="none" stroke="black" d="M459.74,-334.31C436.4,-323.1 411.18,-310.99 387.37,-299.55"/>
<polygon fill="black" stroke="black" points="389.16,-296.52 378.63,-295.35 386.13,-302.83 389.16,-296.52"/>
</g>
<!-- 11399 -->
<g id="node10" class="node">
<title>11399</title>
<path fill="#eb9c63" stroke="black" d="M623,-296.5C623,-296.5 481,-296.5 481,-296.5 475,-296.5 469,-290.5 469,-284.5 469,-284.5 469,-214.25 469,-214.25 469,-208.25 475,-202.25 481,-202.25 481,-202.25 623,-202.25 623,-202.25 629,-202.25 635,-208.25 635,-214.25 635,-214.25 635,-284.5 635,-284.5 635,-290.5 629,-296.5 623,-296.5"/>
<text text-anchor="middle" x="552" y="-279.2" font-family="Helvetica,sans-Serif" font-size="14.00">15_A &lt;= 0.5</text>
<text text-anchor="middle" x="552" y="-261.95" font-family="Helvetica,sans-Serif" font-size="14.00">entropy = 0.671</text>
<text text-anchor="middle" x="552" y="-244.7" font-family="Helvetica,sans-Serif" font-size="14.00">samples = 4041</text>
<text text-anchor="middle" x="552" y="-227.45" font-family="Helvetica,sans-Serif" font-size="14.00">value = [5286, 1127]</text>
<text text-anchor="middle" x="552" y="-210.2" font-family="Helvetica,sans-Serif" font-size="14.00">class = Animal</text>
</g>
<!-- 1&#45;&gt;11399 -->
<g id="edge9" class="edge">
<title>1&#45;&gt;11399</title>
<path fill="none" stroke="black" d="M552,-332.32C552,-324.42 552,-316.13 552,-307.98"/>
<polygon fill="black" stroke="black" points="555.5,-308.12 552,-298.12 548.5,-308.12 555.5,-308.12"/>
</g>
<!-- 3 -->
<g id="node4" class="node">
<title>3</title>
<path fill="#fefbf9" stroke="black" d="M172,-166.25C172,-166.25 12,-166.25 12,-166.25 6,-166.25 0,-160.25 0,-154.25 0,-154.25 0,-84 0,-84 0,-78 6,-72 12,-72 12,-72 172,-72 172,-72 178,-72 184,-78 184,-84 184,-84 184,-154.25 184,-154.25 184,-160.25 178,-166.25 172,-166.25"/>
<text text-anchor="middle" x="92" y="-148.95" font-family="Helvetica,sans-Serif" font-size="14.00">19_C &lt;= 0.5</text>
<text text-anchor="middle" x="92" y="-131.7" font-family="Helvetica,sans-Serif" font-size="14.00">entropy = 1.0</text>
<text text-anchor="middle" x="92" y="-114.45" font-family="Helvetica,sans-Serif" font-size="14.00">samples = 18824</text>
<text text-anchor="middle" x="92" y="-97.2" font-family="Helvetica,sans-Serif" font-size="14.00">value = [15183, 14691]</text>
<text text-anchor="middle" x="92" y="-79.95" font-family="Helvetica,sans-Serif" font-size="14.00">class = Animal</text>
</g>
<!-- 2&#45;&gt;3 -->
<g id="edge3" class="edge">
<title>2&#45;&gt;3</title>
<path fill="none" stroke="black" d="M215.05,-201.89C200.89,-192.48 185.9,-182.53 171.45,-172.92"/>
<polygon fill="black" stroke="black" points="173.56,-170.12 163.3,-167.5 169.69,-175.95 173.56,-170.12"/>
</g>
<!-- 9086 -->
<g id="node7" class="node">
<title>9086</title>
<path fill="#b6dbf5" stroke="black" d="M356,-166.25C356,-166.25 214,-166.25 214,-166.25 208,-166.25 202,-160.25 202,-154.25 202,-154.25 202,-84 202,-84 202,-78 208,-72 214,-72 214,-72 356,-72 356,-72 362,-72 368,-78 368,-84 368,-84 368,-154.25 368,-154.25 368,-160.25 362,-166.25 356,-166.25"/>
<text text-anchor="middle" x="285" y="-148.95" font-family="Helvetica,sans-Serif" font-size="14.00">14_C &lt;= 0.5</text>
<text text-anchor="middle" x="285" y="-131.7" font-family="Helvetica,sans-Serif" font-size="14.00">entropy = 0.962</text>
<text text-anchor="middle" x="285" y="-114.45" font-family="Helvetica,sans-Serif" font-size="14.00">samples = 5689</text>
<text text-anchor="middle" x="285" y="-97.2" font-family="Helvetica,sans-Serif" font-size="14.00">value = [3491, 5551]</text>
<text text-anchor="middle" x="285" y="-79.95" font-family="Helvetica,sans-Serif" font-size="14.00">class = Plant</text>
</g>
<!-- 2&#45;&gt;9086 -->
<g id="edge6" class="edge">
<title>2&#45;&gt;9086</title>
<path fill="none" stroke="black" d="M285,-202.07C285,-194.17 285,-185.88 285,-177.73"/>
<polygon fill="black" stroke="black" points="288.5,-177.87 285,-167.87 281.5,-177.87 288.5,-177.87"/>
</g>
<!-- 4 -->
<g id="node5" class="node">
<title>4</title>
<path fill="#c0c0c0" stroke="black" d="M71,-36C71,-36 41,-36 41,-36 35,-36 29,-30 29,-24 29,-24 29,-12 29,-12 29,-6 35,0 41,0 41,0 71,0 71,0 77,0 83,-6 83,-12 83,-12 83,-24 83,-24 83,-30 77,-36 71,-36"/>
<text text-anchor="middle" x="56" y="-13.32" font-family="Helvetica,sans-Serif" font-size="14.00">(...)</text>
</g>
<!-- 3&#45;&gt;4 -->
<g id="edge4" class="edge">
<title>3&#45;&gt;4</title>
<path fill="none" stroke="black" d="M75.16,-71.75C72.06,-63.22 68.92,-54.57 66.1,-46.8"/>
<polygon fill="black" stroke="black" points="69.46,-45.8 62.75,-37.6 62.88,-48.19 69.46,-45.8"/>
</g>
<!-- 6829 -->
<g id="node6" class="node">
<title>6829</title>
<path fill="#c0c0c0" stroke="black" d="M143,-36C143,-36 113,-36 113,-36 107,-36 101,-30 101,-24 101,-24 101,-12 101,-12 101,-6 107,0 113,0 113,0 143,0 143,0 149,0 155,-6 155,-12 155,-12 155,-24 155,-24 155,-30 149,-36 143,-36"/>
<text text-anchor="middle" x="128" y="-13.32" font-family="Helvetica,sans-Serif" font-size="14.00">(...)</text>
</g>
<!-- 3&#45;&gt;6829 -->
<g id="edge5" class="edge">
<title>3&#45;&gt;6829</title>
<path fill="none" stroke="black" d="M108.84,-71.75C111.94,-63.22 115.08,-54.57 117.9,-46.8"/>
<polygon fill="black" stroke="black" points="121.12,-48.19 121.25,-37.6 114.54,-45.8 121.12,-48.19"/>
</g>
<!-- 9087 -->
<g id="node8" class="node">
<title>9087</title>
<path fill="#c0c0c0" stroke="black" d="M261,-36C261,-36 231,-36 231,-36 225,-36 219,-30 219,-24 219,-24 219,-12 219,-12 219,-6 225,0 231,0 231,0 261,0 261,0 267,0 273,-6 273,-12 273,-12 273,-24 273,-24 273,-30 267,-36 261,-36"/>
<text text-anchor="middle" x="246" y="-13.32" font-family="Helvetica,sans-Serif" font-size="14.00">(...)</text>
</g>
<!-- 9086&#45;&gt;9087 -->
<g id="edge7" class="edge">
<title>9086&#45;&gt;9087</title>
<path fill="none" stroke="black" d="M266.76,-71.75C263.4,-63.22 259.99,-54.57 256.94,-46.8"/>
<polygon fill="black" stroke="black" points="260.23,-45.61 253.31,-37.58 253.71,-48.17 260.23,-45.61"/>
</g>
<!-- 10944 -->
<g id="node9" class="node">
<title>10944</title>
<path fill="#c0c0c0" stroke="black" d="M333,-36C333,-36 303,-36 303,-36 297,-36 291,-30 291,-24 291,-24 291,-12 291,-12 291,-6 297,0 303,0 303,0 333,0 333,0 339,0 345,-6 345,-12 345,-12 345,-24 345,-24 345,-30 339,-36 333,-36"/>
<text text-anchor="middle" x="318" y="-13.32" font-family="Helvetica,sans-Serif" font-size="14.00">(...)</text>
</g>
<!-- 9086&#45;&gt;10944 -->
<g id="edge8" class="edge">
<title>9086&#45;&gt;10944</title>
<path fill="none" stroke="black" d="M300.44,-71.75C303.24,-63.32 306.09,-54.77 308.66,-47.07"/>
<polygon fill="black" stroke="black" points="311.97,-48.2 311.8,-37.61 305.33,-45.99 311.97,-48.2"/>
</g>
<!-- 11400 -->
<g id="node11" class="node">
<title>11400</title>
<path fill="#eb9e67" stroke="black" d="M531.5,-166.25C531.5,-166.25 398.5,-166.25 398.5,-166.25 392.5,-166.25 386.5,-160.25 386.5,-154.25 386.5,-154.25 386.5,-84 386.5,-84 386.5,-78 392.5,-72 398.5,-72 398.5,-72 531.5,-72 531.5,-72 537.5,-72 543.5,-78 543.5,-84 543.5,-84 543.5,-154.25 543.5,-154.25 543.5,-160.25 537.5,-166.25 531.5,-166.25"/>
<text text-anchor="middle" x="465" y="-148.95" font-family="Helvetica,sans-Serif" font-size="14.00">5_U &lt;= 0.5</text>
<text text-anchor="middle" x="465" y="-131.7" font-family="Helvetica,sans-Serif" font-size="14.00">entropy = 0.7</text>
<text text-anchor="middle" x="465" y="-114.45" font-family="Helvetica,sans-Serif" font-size="14.00">samples = 2965</text>
<text text-anchor="middle" x="465" y="-97.2" font-family="Helvetica,sans-Serif" font-size="14.00">value = [3793, 887]</text>
<text text-anchor="middle" x="465" y="-79.95" font-family="Helvetica,sans-Serif" font-size="14.00">class = Animal</text>
</g>
<!-- 11399&#45;&gt;11400 -->
<g id="edge10" class="edge">
<title>11399&#45;&gt;11400</title>
<path fill="none" stroke="black" d="M520.59,-202.07C514.8,-193.54 508.7,-184.54 502.75,-175.77"/>
<polygon fill="black" stroke="black" points="505.72,-173.92 497.21,-167.61 499.93,-177.85 505.72,-173.92"/>
</g>
<!-- 12525 -->
<g id="node14" class="node">
<title>12525</title>
<path fill="#e99559" stroke="black" d="M706.5,-166.25C706.5,-166.25 573.5,-166.25 573.5,-166.25 567.5,-166.25 561.5,-160.25 561.5,-154.25 561.5,-154.25 561.5,-84 561.5,-84 561.5,-78 567.5,-72 573.5,-72 573.5,-72 706.5,-72 706.5,-72 712.5,-72 718.5,-78 718.5,-84 718.5,-84 718.5,-154.25 718.5,-154.25 718.5,-160.25 712.5,-166.25 706.5,-166.25"/>
<text text-anchor="middle" x="640" y="-148.95" font-family="Helvetica,sans-Serif" font-size="14.00">9_G &lt;= 0.5</text>
<text text-anchor="middle" x="640" y="-131.7" font-family="Helvetica,sans-Serif" font-size="14.00">entropy = 0.58</text>
<text text-anchor="middle" x="640" y="-114.45" font-family="Helvetica,sans-Serif" font-size="14.00">samples = 1076</text>
<text text-anchor="middle" x="640" y="-97.2" font-family="Helvetica,sans-Serif" font-size="14.00">value = [1493, 240]</text>
<text text-anchor="middle" x="640" y="-79.95" font-family="Helvetica,sans-Serif" font-size="14.00">class = Animal</text>
</g>
<!-- 11399&#45;&gt;12525 -->
<g id="edge13" class="edge">
<title>11399&#45;&gt;12525</title>
<path fill="none" stroke="black" d="M583.77,-202.07C589.63,-193.54 595.8,-184.54 601.82,-175.77"/>
<polygon fill="black" stroke="black" points="604.65,-177.83 607.42,-167.61 598.88,-173.87 604.65,-177.83"/>
</g>
<!-- 11401 -->
<g id="node12" class="node">
<title>11401</title>
<path fill="#c0c0c0" stroke="black" d="M423,-36C423,-36 393,-36 393,-36 387,-36 381,-30 381,-24 381,-24 381,-12 381,-12 381,-6 387,0 393,0 393,0 423,0 423,0 429,0 435,-6 435,-12 435,-12 435,-24 435,-24 435,-30 429,-36 423,-36"/>
<text text-anchor="middle" x="408" y="-13.32" font-family="Helvetica,sans-Serif" font-size="14.00">(...)</text>
</g>
<!-- 11400&#45;&gt;11401 -->
<g id="edge11" class="edge">
<title>11400&#45;&gt;11401</title>
<path fill="none" stroke="black" d="M438.34,-71.75C433.26,-62.93 428.1,-53.96 423.52,-45.99"/>
<polygon fill="black" stroke="black" points="426.65,-44.41 418.63,-37.48 420.58,-47.9 426.65,-44.41"/>
</g>
<!-- 12234 -->
<g id="node13" class="node">
<title>12234</title>
<path fill="#c0c0c0" stroke="black" d="M495,-36C495,-36 465,-36 465,-36 459,-36 453,-30 453,-24 453,-24 453,-12 453,-12 453,-6 459,0 465,0 465,0 495,0 495,0 501,0 507,-6 507,-12 507,-12 507,-24 507,-24 507,-30 501,-36 495,-36"/>
<text text-anchor="middle" x="480" y="-13.32" font-family="Helvetica,sans-Serif" font-size="14.00">(...)</text>
</g>
<!-- 11400&#45;&gt;12234 -->
<g id="edge12" class="edge">
<title>11400&#45;&gt;12234</title>
<path fill="none" stroke="black" d="M472.02,-71.75C473.28,-63.42 474.56,-54.97 475.71,-47.34"/>
<polygon fill="black" stroke="black" points="479.14,-48.08 477.17,-37.67 472.22,-47.03 479.14,-48.08"/>
</g>
<!-- 12526 -->
<g id="node15" class="node">
<title>12526</title>
<path fill="#c0c0c0" stroke="black" d="M601,-36C601,-36 571,-36 571,-36 565,-36 559,-30 559,-24 559,-24 559,-12 559,-12 559,-6 565,0 571,0 571,0 601,0 601,0 607,0 613,-6 613,-12 613,-12 613,-24 613,-24 613,-30 607,-36 601,-36"/>
<text text-anchor="middle" x="586" y="-13.32" font-family="Helvetica,sans-Serif" font-size="14.00">(...)</text>
</g>
<!-- 12525&#45;&gt;12526 -->
<g id="edge14" class="edge">
<title>12525&#45;&gt;12526</title>
<path fill="none" stroke="black" d="M614.74,-71.75C609.98,-63.03 605.16,-54.16 600.85,-46.26"/>
<polygon fill="black" stroke="black" points="603.94,-44.61 596.08,-37.5 597.79,-47.96 603.94,-44.61"/>
</g>
<!-- 12773 -->
<g id="node16" class="node">
<title>12773</title>
<path fill="#c0c0c0" stroke="black" d="M673,-36C673,-36 643,-36 643,-36 637,-36 631,-30 631,-24 631,-24 631,-12 631,-12 631,-6 637,0 643,0 643,0 673,0 673,0 679,0 685,-6 685,-12 685,-12 685,-24 685,-24 685,-30 679,-36 673,-36"/>
<text text-anchor="middle" x="658" y="-13.32" font-family="Helvetica,sans-Serif" font-size="14.00">(...)</text>
</g>
<!-- 12525&#45;&gt;12773 -->
<g id="edge15" class="edge">
<title>12525&#45;&gt;12773</title>
<path fill="none" stroke="black" d="M648.42,-71.75C649.93,-63.42 651.47,-54.97 652.85,-47.34"/>
<polygon fill="black" stroke="black" points="656.27,-48.13 654.61,-37.66 649.38,-46.88 656.27,-48.13"/>
</g>
<!-- 12861 -->
<g id="node18" class="node">
<title>12861</title>
<path fill="#fcf3ec" stroke="black" d="M981,-296.5C981,-296.5 839,-296.5 839,-296.5 833,-296.5 827,-290.5 827,-284.5 827,-284.5 827,-214.25 827,-214.25 827,-208.25 833,-202.25 839,-202.25 839,-202.25 981,-202.25 981,-202.25 987,-202.25 993,-208.25 993,-214.25 993,-214.25 993,-284.5 993,-284.5 993,-290.5 987,-296.5 981,-296.5"/>
<text text-anchor="middle" x="910" y="-279.2" font-family="Helvetica,sans-Serif" font-size="14.00">10_G &lt;= 0.5</text>
<text text-anchor="middle" x="910" y="-261.95" font-family="Helvetica,sans-Serif" font-size="14.00">entropy = 0.998</text>
<text text-anchor="middle" x="910" y="-244.7" font-family="Helvetica,sans-Serif" font-size="14.00">samples = 6197</text>
<text text-anchor="middle" x="910" y="-227.45" font-family="Helvetica,sans-Serif" font-size="14.00">value = [5160, 4652]</text>
<text text-anchor="middle" x="910" y="-210.2" font-family="Helvetica,sans-Serif" font-size="14.00">class = Animal</text>
</g>
<!-- 12860&#45;&gt;12861 -->
<g id="edge17" class="edge">
<title>12860&#45;&gt;12861</title>
<path fill="none" stroke="black" d="M910,-332.32C910,-324.42 910,-316.13 910,-307.98"/>
<polygon fill="black" stroke="black" points="913.5,-308.12 910,-298.12 906.5,-308.12 913.5,-308.12"/>
</g>
<!-- 15750 -->
<g id="node25" class="node">
<title>15750</title>
<path fill="#72b9ed" stroke="black" d="M1255,-296.5C1255,-296.5 1113,-296.5 1113,-296.5 1107,-296.5 1101,-290.5 1101,-284.5 1101,-284.5 1101,-214.25 1101,-214.25 1101,-208.25 1107,-202.25 1113,-202.25 1113,-202.25 1255,-202.25 1255,-202.25 1261,-202.25 1267,-208.25 1267,-214.25 1267,-214.25 1267,-284.5 1267,-284.5 1267,-290.5 1261,-296.5 1255,-296.5"/>
<text text-anchor="middle" x="1184" y="-279.2" font-family="Helvetica,sans-Serif" font-size="14.00">15_U &lt;= 0.5</text>
<text text-anchor="middle" x="1184" y="-261.95" font-family="Helvetica,sans-Serif" font-size="14.00">entropy = 0.768</text>
<text text-anchor="middle" x="1184" y="-244.7" font-family="Helvetica,sans-Serif" font-size="14.00">samples = 3270</text>
<text text-anchor="middle" x="1184" y="-227.45" font-family="Helvetica,sans-Serif" font-size="14.00">value = [1167, 4037]</text>
<text text-anchor="middle" x="1184" y="-210.2" font-family="Helvetica,sans-Serif" font-size="14.00">class = Plant</text>
</g>
<!-- 12860&#45;&gt;15750 -->
<g id="edge24" class="edge">
<title>12860&#45;&gt;15750</title>
<path fill="none" stroke="black" d="M993.33,-339.62C1024.01,-325.26 1058.97,-308.9 1090.49,-294.14"/>
<polygon fill="black" stroke="black" points="1091.66,-297.46 1099.23,-290.05 1088.69,-291.12 1091.66,-297.46"/>
</g>
<!-- 12862 -->
<g id="node19" class="node">
<title>12862</title>
<path fill="#fae6d8" stroke="black" d="M891,-166.25C891,-166.25 749,-166.25 749,-166.25 743,-166.25 737,-160.25 737,-154.25 737,-154.25 737,-84 737,-84 737,-78 743,-72 749,-72 749,-72 891,-72 891,-72 897,-72 903,-78 903,-84 903,-84 903,-154.25 903,-154.25 903,-160.25 897,-166.25 891,-166.25"/>
<text text-anchor="middle" x="820" y="-148.95" font-family="Helvetica,sans-Serif" font-size="14.00">16_G &lt;= 0.5</text>
<text text-anchor="middle" x="820" y="-131.7" font-family="Helvetica,sans-Serif" font-size="14.00">entropy = 0.992</text>
<text text-anchor="middle" x="820" y="-114.45" font-family="Helvetica,sans-Serif" font-size="14.00">samples = 4317</text>
<text text-anchor="middle" x="820" y="-97.2" font-family="Helvetica,sans-Serif" font-size="14.00">value = [3787, 3047]</text>
<text text-anchor="middle" x="820" y="-79.95" font-family="Helvetica,sans-Serif" font-size="14.00">class = Animal</text>
</g>
<!-- 12861&#45;&gt;12862 -->
<g id="edge18" class="edge">
<title>12861&#45;&gt;12862</title>
<path fill="none" stroke="black" d="M877.51,-202.07C871.52,-193.54 865.21,-184.54 859.05,-175.77"/>
<polygon fill="black" stroke="black" points="861.92,-173.77 853.31,-167.6 856.19,-177.79 861.92,-173.77"/>
</g>
<!-- 14961 -->
<g id="node22" class="node">
<title>14961</title>
<path fill="#e2f1fb" stroke="black" d="M1075,-166.25C1075,-166.25 933,-166.25 933,-166.25 927,-166.25 921,-160.25 921,-154.25 921,-154.25 921,-84 921,-84 921,-78 927,-72 933,-72 933,-72 1075,-72 1075,-72 1081,-72 1087,-78 1087,-84 1087,-84 1087,-154.25 1087,-154.25 1087,-160.25 1081,-166.25 1075,-166.25"/>
<text text-anchor="middle" x="1004" y="-148.95" font-family="Helvetica,sans-Serif" font-size="14.00">22_G &lt;= 0.5</text>
<text text-anchor="middle" x="1004" y="-131.7" font-family="Helvetica,sans-Serif" font-size="14.00">entropy = 0.996</text>
<text text-anchor="middle" x="1004" y="-114.45" font-family="Helvetica,sans-Serif" font-size="14.00">samples = 1880</text>
<text text-anchor="middle" x="1004" y="-97.2" font-family="Helvetica,sans-Serif" font-size="14.00">value = [1373, 1605]</text>
<text text-anchor="middle" x="1004" y="-79.95" font-family="Helvetica,sans-Serif" font-size="14.00">class = Plant</text>
</g>
<!-- 12861&#45;&gt;14961 -->
<g id="edge21" class="edge">
<title>12861&#45;&gt;14961</title>
<path fill="none" stroke="black" d="M943.94,-202.07C950.26,-193.45 956.92,-184.35 963.42,-175.49"/>
<polygon fill="black" stroke="black" points="966.13,-177.71 969.22,-167.58 960.48,-173.58 966.13,-177.71"/>
</g>
<!-- 12863 -->
<g id="node20" class="node">
<title>12863</title>
<path fill="#c0c0c0" stroke="black" d="M783,-36C783,-36 753,-36 753,-36 747,-36 741,-30 741,-24 741,-24 741,-12 741,-12 741,-6 747,0 753,0 753,0 783,0 783,0 789,0 795,-6 795,-12 795,-12 795,-24 795,-24 795,-30 789,-36 783,-36"/>
<text text-anchor="middle" x="768" y="-13.32" font-family="Helvetica,sans-Serif" font-size="14.00">(...)</text>
</g>
<!-- 12862&#45;&gt;12863 -->
<g id="edge19" class="edge">
<title>12862&#45;&gt;12863</title>
<path fill="none" stroke="black" d="M795.67,-71.75C791.1,-63.03 786.45,-54.16 782.3,-46.26"/>
<polygon fill="black" stroke="black" points="785.46,-44.74 777.71,-37.51 779.26,-47.99 785.46,-44.74"/>
</g>
<!-- 14420 -->
<g id="node21" class="node">
<title>14420</title>
<path fill="#c0c0c0" stroke="black" d="M855,-36C855,-36 825,-36 825,-36 819,-36 813,-30 813,-24 813,-24 813,-12 813,-12 813,-6 819,0 825,0 825,0 855,0 855,0 861,0 867,-6 867,-12 867,-12 867,-24 867,-24 867,-30 861,-36 855,-36"/>
<text text-anchor="middle" x="840" y="-13.32" font-family="Helvetica,sans-Serif" font-size="14.00">(...)</text>
</g>
<!-- 12862&#45;&gt;14420 -->
<g id="edge20" class="edge">
<title>12862&#45;&gt;14420</title>
<path fill="none" stroke="black" d="M829.36,-71.75C831.04,-63.42 832.74,-54.97 834.28,-47.34"/>
<polygon fill="black" stroke="black" points="837.69,-48.15 836.24,-37.66 830.83,-46.77 837.69,-48.15"/>
</g>
<!-- 14962 -->
<g id="node23" class="node">
<title>14962</title>
<path fill="#c0c0c0" stroke="black" d="M965,-36C965,-36 935,-36 935,-36 929,-36 923,-30 923,-24 923,-24 923,-12 923,-12 923,-6 929,0 935,0 935,0 965,0 965,0 971,0 977,-6 977,-12 977,-12 977,-24 977,-24 977,-30 971,-36 965,-36"/>
<text text-anchor="middle" x="950" y="-13.32" font-family="Helvetica,sans-Serif" font-size="14.00">(...)</text>
</g>
<!-- 14961&#45;&gt;14962 -->
<g id="edge22" class="edge">
<title>14961&#45;&gt;14962</title>
<path fill="none" stroke="black" d="M978.74,-71.75C973.98,-63.03 969.16,-54.16 964.85,-46.26"/>
<polygon fill="black" stroke="black" points="967.94,-44.61 960.08,-37.5 961.79,-47.96 967.94,-44.61"/>
</g>
<!-- 15671 -->
<g id="node24" class="node">
<title>15671</title>
<path fill="#c0c0c0" stroke="black" d="M1037,-36C1037,-36 1007,-36 1007,-36 1001,-36 995,-30 995,-24 995,-24 995,-12 995,-12 995,-6 1001,0 1007,0 1007,0 1037,0 1037,0 1043,0 1049,-6 1049,-12 1049,-12 1049,-24 1049,-24 1049,-30 1043,-36 1037,-36"/>
<text text-anchor="middle" x="1022" y="-13.32" font-family="Helvetica,sans-Serif" font-size="14.00">(...)</text>
</g>
<!-- 14961&#45;&gt;15671 -->
<g id="edge23" class="edge">
<title>14961&#45;&gt;15671</title>
<path fill="none" stroke="black" d="M1012.42,-71.75C1013.93,-63.42 1015.47,-54.97 1016.85,-47.34"/>
<polygon fill="black" stroke="black" points="1020.27,-48.13 1018.61,-37.66 1013.38,-46.88 1020.27,-48.13"/>
</g>
<!-- 15751 -->
<g id="node26" class="node">
<title>15751</title>
<path fill="#98ccf2" stroke="black" d="M1250.5,-166.25C1250.5,-166.25 1117.5,-166.25 1117.5,-166.25 1111.5,-166.25 1105.5,-160.25 1105.5,-154.25 1105.5,-154.25 1105.5,-84 1105.5,-84 1105.5,-78 1111.5,-72 1117.5,-72 1117.5,-72 1250.5,-72 1250.5,-72 1256.5,-72 1262.5,-78 1262.5,-84 1262.5,-84 1262.5,-154.25 1262.5,-154.25 1262.5,-160.25 1256.5,-166.25 1250.5,-166.25"/>
<text text-anchor="middle" x="1184" y="-148.95" font-family="Helvetica,sans-Serif" font-size="14.00">11_C &lt;= 0.5</text>
<text text-anchor="middle" x="1184" y="-131.7" font-family="Helvetica,sans-Serif" font-size="14.00">entropy = 0.91</text>
<text text-anchor="middle" x="1184" y="-114.45" font-family="Helvetica,sans-Serif" font-size="14.00">samples = 1809</text>
<text text-anchor="middle" x="1184" y="-97.2" font-family="Helvetica,sans-Serif" font-size="14.00">value = [959, 1990]</text>
<text text-anchor="middle" x="1184" y="-79.95" font-family="Helvetica,sans-Serif" font-size="14.00">class = Plant</text>
</g>
<!-- 15750&#45;&gt;15751 -->
<g id="edge25" class="edge">
<title>15750&#45;&gt;15751</title>
<path fill="none" stroke="black" d="M1184,-202.07C1184,-194.17 1184,-185.88 1184,-177.73"/>
<polygon fill="black" stroke="black" points="1187.5,-177.87 1184,-167.87 1180.5,-177.87 1187.5,-177.87"/>
</g>
<!-- 16540 -->
<g id="node29" class="node">
<title>16540</title>
<path fill="#4da7e8" stroke="black" d="M1425.5,-166.25C1425.5,-166.25 1292.5,-166.25 1292.5,-166.25 1286.5,-166.25 1280.5,-160.25 1280.5,-154.25 1280.5,-154.25 1280.5,-84 1280.5,-84 1280.5,-78 1286.5,-72 1292.5,-72 1292.5,-72 1425.5,-72 1425.5,-72 1431.5,-72 1437.5,-78 1437.5,-84 1437.5,-84 1437.5,-154.25 1437.5,-154.25 1437.5,-160.25 1431.5,-166.25 1425.5,-166.25"/>
<text text-anchor="middle" x="1359" y="-148.95" font-family="Helvetica,sans-Serif" font-size="14.00">18_G &lt;= 0.5</text>
<text text-anchor="middle" x="1359" y="-131.7" font-family="Helvetica,sans-Serif" font-size="14.00">entropy = 0.444</text>
<text text-anchor="middle" x="1359" y="-114.45" font-family="Helvetica,sans-Serif" font-size="14.00">samples = 1461</text>
<text text-anchor="middle" x="1359" y="-97.2" font-family="Helvetica,sans-Serif" font-size="14.00">value = [208, 2047]</text>
<text text-anchor="middle" x="1359" y="-79.95" font-family="Helvetica,sans-Serif" font-size="14.00">class = Plant</text>
</g>
<!-- 15750&#45;&gt;16540 -->
<g id="edge28" class="edge">
<title>15750&#45;&gt;16540</title>
<path fill="none" stroke="black" d="M1247.18,-202.07C1259.99,-192.69 1273.55,-182.75 1286.64,-173.15"/>
<polygon fill="black" stroke="black" points="1288.4,-176.2 1294.4,-167.47 1284.26,-170.56 1288.4,-176.2"/>
</g>
<!-- 15752 -->
<g id="node27" class="node">
<title>15752</title>
<path fill="#c0c0c0" stroke="black" d="M1160,-36C1160,-36 1130,-36 1130,-36 1124,-36 1118,-30 1118,-24 1118,-24 1118,-12 1118,-12 1118,-6 1124,0 1130,0 1130,0 1160,0 1160,0 1166,0 1172,-6 1172,-12 1172,-12 1172,-24 1172,-24 1172,-30 1166,-36 1160,-36"/>
<text text-anchor="middle" x="1145" y="-13.32" font-family="Helvetica,sans-Serif" font-size="14.00">(...)</text>
</g>
<!-- 15751&#45;&gt;15752 -->
<g id="edge26" class="edge">
<title>15751&#45;&gt;15752</title>
<path fill="none" stroke="black" d="M1165.76,-71.75C1162.4,-63.22 1158.99,-54.57 1155.94,-46.8"/>
<polygon fill="black" stroke="black" points="1159.23,-45.61 1152.31,-37.58 1152.71,-48.17 1159.23,-45.61"/>
</g>
<!-- 16385 -->
<g id="node28" class="node">
<title>16385</title>
<path fill="#c0c0c0" stroke="black" d="M1232,-36C1232,-36 1202,-36 1202,-36 1196,-36 1190,-30 1190,-24 1190,-24 1190,-12 1190,-12 1190,-6 1196,0 1202,0 1202,0 1232,0 1232,0 1238,0 1244,-6 1244,-12 1244,-12 1244,-24 1244,-24 1244,-30 1238,-36 1232,-36"/>
<text text-anchor="middle" x="1217" y="-13.32" font-family="Helvetica,sans-Serif" font-size="14.00">(...)</text>
</g>
<!-- 15751&#45;&gt;16385 -->
<g id="edge27" class="edge">
<title>15751&#45;&gt;16385</title>
<path fill="none" stroke="black" d="M1199.44,-71.75C1202.24,-63.32 1205.09,-54.77 1207.66,-47.07"/>
<polygon fill="black" stroke="black" points="1210.97,-48.2 1210.8,-37.61 1204.33,-45.99 1210.97,-48.2"/>
</g>
<!-- 16541 -->
<g id="node30" class="node">
<title>16541</title>
<path fill="#c0c0c0" stroke="black" d="M1338,-36C1338,-36 1308,-36 1308,-36 1302,-36 1296,-30 1296,-24 1296,-24 1296,-12 1296,-12 1296,-6 1302,0 1308,0 1308,0 1338,0 1338,0 1344,0 1350,-6 1350,-12 1350,-12 1350,-24 1350,-24 1350,-30 1344,-36 1338,-36"/>
<text text-anchor="middle" x="1323" y="-13.32" font-family="Helvetica,sans-Serif" font-size="14.00">(...)</text>
</g>
<!-- 16540&#45;&gt;16541 -->
<g id="edge29" class="edge">
<title>16540&#45;&gt;16541</title>
<path fill="none" stroke="black" d="M1342.16,-71.75C1339.06,-63.22 1335.92,-54.57 1333.1,-46.8"/>
<polygon fill="black" stroke="black" points="1336.46,-45.8 1329.75,-37.6 1329.88,-48.19 1336.46,-45.8"/>
</g>
<!-- 16726 -->
<g id="node31" class="node">
<title>16726</title>
<path fill="#c0c0c0" stroke="black" d="M1410,-36C1410,-36 1380,-36 1380,-36 1374,-36 1368,-30 1368,-24 1368,-24 1368,-12 1368,-12 1368,-6 1374,0 1380,0 1380,0 1410,0 1410,0 1416,0 1422,-6 1422,-12 1422,-12 1422,-24 1422,-24 1422,-30 1416,-36 1410,-36"/>
<text text-anchor="middle" x="1395" y="-13.32" font-family="Helvetica,sans-Serif" font-size="14.00">(...)</text>
</g>
<!-- 16540&#45;&gt;16726 -->
<g id="edge30" class="edge">
<title>16540&#45;&gt;16726</title>
<path fill="none" stroke="black" d="M1375.84,-71.75C1378.94,-63.22 1382.08,-54.57 1384.9,-46.8"/>
<polygon fill="black" stroke="black" points="1388.12,-48.19 1388.25,-37.6 1381.54,-45.8 1388.12,-48.19"/>
</g>
</g>
</svg>
