<?xml version="1.0" encoding="UTF-8" standalone="no"?>
<!DOCTYPE svg PUBLIC "-//W3C//DTD SVG 1.1//EN"
 "http://www.w3.org/Graphics/SVG/1.1/DTD/svg11.dtd">
<!-- Generated by graphviz version 12.0.0 (20240803.0821)
 -->
<!-- Title: Tree Pages: 1 -->
<svg width="1454pt" height="565pt"
 viewBox="0.00 0.00 1453.50 565.00" xmlns="http://www.w3.org/2000/svg" xmlns:xlink="http://www.w3.org/1999/xlink">
<g id="graph0" class="graph" transform="scale(1 1) rotate(0) translate(4 561)">
<title>Tree</title>
<polygon fill="white" stroke="none" points="-4,4 -4,-561 1449.5,-561 1449.5,4 -4,4"/>
<!-- 0 -->
<g id="node1" class="node">
<title>0</title>
<path fill="#fffefd" stroke="black" d="M808.5,-557C808.5,-557 648.5,-557 648.5,-557 642.5,-557 636.5,-551 636.5,-545 636.5,-545 636.5,-474.75 636.5,-474.75 636.5,-468.75 642.5,-462.75 648.5,-462.75 648.5,-462.75 808.5,-462.75 808.5,-462.75 814.5,-462.75 820.5,-468.75 820.5,-474.75 820.5,-474.75 820.5,-545 820.5,-545 820.5,-551 814.5,-557 808.5,-557"/>
<text text-anchor="middle" x="728.5" y="-539.7" font-family="Helvetica,sans-Serif" font-size="14.00">19_C &lt;= 0.5</text>
<text text-anchor="middle" x="728.5" y="-522.45" font-family="Helvetica,sans-Serif" font-size="14.00">entropy = 1.0</text>
<text text-anchor="middle" x="728.5" y="-505.2" font-family="Helvetica,sans-Serif" font-size="14.00">samples = 38226</text>
<text text-anchor="middle" x="728.5" y="-487.95" font-family="Helvetica,sans-Serif" font-size="14.00">value = [30326, 30019]</text>
<text text-anchor="middle" x="728.5" y="-470.7" font-family="Helvetica,sans-Serif" font-size="14.00">class = Animal</text>
</g>
<!-- 1 -->
<g id="node2" class="node">
<title>1</title>
<path fill="#f8dfcc" stroke="black" d="M629.5,-426.75C629.5,-426.75 469.5,-426.75 469.5,-426.75 463.5,-426.75 457.5,-420.75 457.5,-414.75 457.5,-414.75 457.5,-344.5 457.5,-344.5 457.5,-338.5 463.5,-332.5 469.5,-332.5 469.5,-332.5 629.5,-332.5 629.5,-332.5 635.5,-332.5 641.5,-338.5 641.5,-344.5 641.5,-344.5 641.5,-414.75 641.5,-414.75 641.5,-420.75 635.5,-426.75 629.5,-426.75"/>
<text text-anchor="middle" x="549.5" y="-409.45" font-family="Helvetica,sans-Serif" font-size="14.00">13_G &lt;= 0.5</text>
<text text-anchor="middle" x="549.5" y="-392.2" font-family="Helvetica,sans-Serif" font-size="14.00">entropy = 0.984</text>
<text text-anchor="middle" x="549.5" y="-374.95" font-family="Helvetica,sans-Serif" font-size="14.00">samples = 25881</text>
<text text-anchor="middle" x="549.5" y="-357.7" font-family="Helvetica,sans-Serif" font-size="14.00">value = [23486, 17433]</text>
<text text-anchor="middle" x="549.5" y="-340.45" font-family="Helvetica,sans-Serif" font-size="14.00">class = Animal</text>
</g>
<!-- 0&#45;&gt;1 -->
<g id="edge1" class="edge">
<title>0&#45;&gt;1</title>
<path fill="none" stroke="black" d="M663.62,-462.39C650.62,-453.07 636.86,-443.22 623.57,-433.69"/>
<polygon fill="black" stroke="black" points="625.85,-431.02 615.69,-428.05 621.78,-436.72 625.85,-431.02"/>
<text text-anchor="middle" x="618.53" y="-447.16" font-family="Helvetica,sans-Serif" font-size="14.00">True</text>
</g>
<!-- 12682 -->
<g id="node17" class="node">
<title>12682</title>
<path fill="#a5d2f3" stroke="black" d="M993,-426.75C993,-426.75 842,-426.75 842,-426.75 836,-426.75 830,-420.75 830,-414.75 830,-414.75 830,-344.5 830,-344.5 830,-338.5 836,-332.5 842,-332.5 842,-332.5 993,-332.5 993,-332.5 999,-332.5 1005,-338.5 1005,-344.5 1005,-344.5 1005,-414.75 1005,-414.75 1005,-420.75 999,-426.75 993,-426.75"/>
<text text-anchor="middle" x="917.5" y="-409.45" font-family="Helvetica,sans-Serif" font-size="14.00">9_U &lt;= 0.5</text>
<text text-anchor="middle" x="917.5" y="-392.2" font-family="Helvetica,sans-Serif" font-size="14.00">entropy = 0.936</text>
<text text-anchor="middle" x="917.5" y="-374.95" font-family="Helvetica,sans-Serif" font-size="14.00">samples = 12345</text>
<text text-anchor="middle" x="917.5" y="-357.7" font-family="Helvetica,sans-Serif" font-size="14.00">value = [6840, 12586]</text>
<text text-anchor="middle" x="917.5" y="-340.45" font-family="Helvetica,sans-Serif" font-size="14.00">class = Plant</text>
</g>
<!-- 0&#45;&gt;12682 -->
<g id="edge16" class="edge">
<title>0&#45;&gt;12682</title>
<path fill="none" stroke="black" d="M797,-462.39C810.87,-452.98 825.54,-443.03 839.7,-433.42"/>
<polygon fill="black" stroke="black" points="841.35,-436.53 847.66,-428.01 837.42,-430.73 841.35,-436.53"/>
<text text-anchor="middle" x="844.21" y="-447.04" font-family="Helvetica,sans-Serif" font-size="14.00">False</text>
</g>
<!-- 2 -->
<g id="node3" class="node">
<title>2</title>
<path fill="#f5d1b6" stroke="black" d="M356.5,-296.5C356.5,-296.5 196.5,-296.5 196.5,-296.5 190.5,-296.5 184.5,-290.5 184.5,-284.5 184.5,-284.5 184.5,-214.25 184.5,-214.25 184.5,-208.25 190.5,-202.25 196.5,-202.25 196.5,-202.25 356.5,-202.25 356.5,-202.25 362.5,-202.25 368.5,-208.25 368.5,-214.25 368.5,-214.25 368.5,-284.5 368.5,-284.5 368.5,-290.5 362.5,-296.5 356.5,-296.5"/>
<text text-anchor="middle" x="276.5" y="-279.2" font-family="Helvetica,sans-Serif" font-size="14.00">21_U &lt;= 0.5</text>
<text text-anchor="middle" x="276.5" y="-261.95" font-family="Helvetica,sans-Serif" font-size="14.00">entropy = 0.963</text>
<text text-anchor="middle" x="276.5" y="-244.7" font-family="Helvetica,sans-Serif" font-size="14.00">samples = 17849</text>
<text text-anchor="middle" x="276.5" y="-227.45" font-family="Helvetica,sans-Serif" font-size="14.00">value = [17225, 10871]</text>
<text text-anchor="middle" x="276.5" y="-210.2" font-family="Helvetica,sans-Serif" font-size="14.00">class = Animal</text>
</g>
<!-- 1&#45;&gt;2 -->
<g id="edge2" class="edge">
<title>1&#45;&gt;2</title>
<path fill="none" stroke="black" d="M457.07,-335.21C431.95,-323.4 404.59,-310.55 378.94,-298.5"/>
<polygon fill="black" stroke="black" points="380.74,-295.48 370.2,-294.39 377.76,-301.81 380.74,-295.48"/>
</g>
<!-- 9135 -->
<g id="node10" class="node">
<title>9135</title>
<path fill="#f6fbfe" stroke="black" d="M620.5,-296.5C620.5,-296.5 478.5,-296.5 478.5,-296.5 472.5,-296.5 466.5,-290.5 466.5,-284.5 466.5,-284.5 466.5,-214.25 466.5,-214.25 466.5,-208.25 472.5,-202.25 478.5,-202.25 478.5,-202.25 620.5,-202.25 620.5,-202.25 626.5,-202.25 632.5,-208.25 632.5,-214.25 632.5,-214.25 632.5,-284.5 632.5,-284.5 632.5,-290.5 626.5,-296.5 620.5,-296.5"/>
<text text-anchor="middle" x="549.5" y="-279.2" font-family="Helvetica,sans-Serif" font-size="14.00">11_G &lt;= 0.5</text>
<text text-anchor="middle" x="549.5" y="-261.95" font-family="Helvetica,sans-Serif" font-size="14.00">entropy = 1.0</text>
<text text-anchor="middle" x="549.5" y="-244.7" font-family="Helvetica,sans-Serif" font-size="14.00">samples = 8032</text>
<text text-anchor="middle" x="549.5" y="-227.45" font-family="Helvetica,sans-Serif" font-size="14.00">value = [6261, 6562]</text>
<text text-anchor="middle" x="549.5" y="-210.2" font-family="Helvetica,sans-Serif" font-size="14.00">class = Plant</text>
</g>
<!-- 1&#45;&gt;9135 -->
<g id="edge9" class="edge">
<title>1&#45;&gt;9135</title>
<path fill="none" stroke="black" d="M549.5,-332.32C549.5,-324.42 549.5,-316.13 549.5,-307.98"/>
<polygon fill="black" stroke="black" points="553,-308.12 549.5,-298.12 546,-308.12 553,-308.12"/>
</g>
<!-- 3 -->
<g id="node4" class="node">
<title>3</title>
<path fill="#f8decc" stroke="black" d="M163,-166.25C163,-166.25 12,-166.25 12,-166.25 6,-166.25 0,-160.25 0,-154.25 0,-154.25 0,-84 0,-84 0,-78 6,-72 12,-72 12,-72 163,-72 163,-72 169,-72 175,-78 175,-84 175,-84 175,-154.25 175,-154.25 175,-160.25 169,-166.25 163,-166.25"/>
<text text-anchor="middle" x="87.5" y="-148.95" font-family="Helvetica,sans-Serif" font-size="14.00">22_A &lt;= 0.5</text>
<text text-anchor="middle" x="87.5" y="-131.7" font-family="Helvetica,sans-Serif" font-size="14.00">entropy = 0.984</text>
<text text-anchor="middle" x="87.5" y="-114.45" font-family="Helvetica,sans-Serif" font-size="14.00">samples = 13108</text>
<text text-anchor="middle" x="87.5" y="-97.2" font-family="Helvetica,sans-Serif" font-size="14.00">value = [11807, 8749]</text>
<text text-anchor="middle" x="87.5" y="-79.95" font-family="Helvetica,sans-Serif" font-size="14.00">class = Animal</text>
</g>
<!-- 2&#45;&gt;3 -->
<g id="edge3" class="edge">
<title>2&#45;&gt;3</title>
<path fill="none" stroke="black" d="M208,-201.89C194.13,-192.48 179.46,-182.53 165.3,-172.92"/>
<polygon fill="black" stroke="black" points="167.58,-170.23 157.34,-167.51 163.65,-176.03 167.58,-170.23"/>
</g>
<!-- 7164 -->
<g id="node7" class="node">
<title>7164</title>
<path fill="#efb287" stroke="black" d="M347.5,-166.25C347.5,-166.25 205.5,-166.25 205.5,-166.25 199.5,-166.25 193.5,-160.25 193.5,-154.25 193.5,-154.25 193.5,-84 193.5,-84 193.5,-78 199.5,-72 205.5,-72 205.5,-72 347.5,-72 347.5,-72 353.5,-72 359.5,-78 359.5,-84 359.5,-84 359.5,-154.25 359.5,-154.25 359.5,-160.25 353.5,-166.25 347.5,-166.25"/>
<text text-anchor="middle" x="276.5" y="-148.95" font-family="Helvetica,sans-Serif" font-size="14.00">8_G &lt;= 0.5</text>
<text text-anchor="middle" x="276.5" y="-131.7" font-family="Helvetica,sans-Serif" font-size="14.00">entropy = 0.857</text>
<text text-anchor="middle" x="276.5" y="-114.45" font-family="Helvetica,sans-Serif" font-size="14.00">samples = 4741</text>
<text text-anchor="middle" x="276.5" y="-97.2" font-family="Helvetica,sans-Serif" font-size="14.00">value = [5418, 2122]</text>
<text text-anchor="middle" x="276.5" y="-79.95" font-family="Helvetica,sans-Serif" font-size="14.00">class = Animal</text>
</g>
<!-- 2&#45;&gt;7164 -->
<g id="edge6" class="edge">
<title>2&#45;&gt;7164</title>
<path fill="none" stroke="black" d="M276.5,-202.07C276.5,-194.17 276.5,-185.88 276.5,-177.73"/>
<polygon fill="black" stroke="black" points="280,-177.87 276.5,-167.87 273,-177.87 280,-177.87"/>
</g>
<!-- 4 -->
<g id="node5" class="node">
<title>4</title>
<path fill="#c0c0c0" stroke="black" d="M66.5,-36C66.5,-36 36.5,-36 36.5,-36 30.5,-36 24.5,-30 24.5,-24 24.5,-24 24.5,-12 24.5,-12 24.5,-6 30.5,0 36.5,0 36.5,0 66.5,0 66.5,0 72.5,0 78.5,-6 78.5,-12 78.5,-12 78.5,-24 78.5,-24 78.5,-30 72.5,-36 66.5,-36"/>
<text text-anchor="middle" x="51.5" y="-13.32" font-family="Helvetica,sans-Serif" font-size="14.00">(...)</text>
</g>
<!-- 3&#45;&gt;4 -->
<g id="edge4" class="edge">
<title>3&#45;&gt;4</title>
<path fill="none" stroke="black" d="M70.66,-71.75C67.56,-63.22 64.42,-54.57 61.6,-46.8"/>
<polygon fill="black" stroke="black" points="64.96,-45.8 58.25,-37.6 58.38,-48.19 64.96,-45.8"/>
</g>
<!-- 6401 -->
<g id="node6" class="node">
<title>6401</title>
<path fill="#c0c0c0" stroke="black" d="M138.5,-36C138.5,-36 108.5,-36 108.5,-36 102.5,-36 96.5,-30 96.5,-24 96.5,-24 96.5,-12 96.5,-12 96.5,-6 102.5,0 108.5,0 108.5,0 138.5,0 138.5,0 144.5,0 150.5,-6 150.5,-12 150.5,-12 150.5,-24 150.5,-24 150.5,-30 144.5,-36 138.5,-36"/>
<text text-anchor="middle" x="123.5" y="-13.32" font-family="Helvetica,sans-Serif" font-size="14.00">(...)</text>
</g>
<!-- 3&#45;&gt;6401 -->
<g id="edge5" class="edge">
<title>3&#45;&gt;6401</title>
<path fill="none" stroke="black" d="M104.34,-71.75C107.44,-63.22 110.58,-54.57 113.4,-46.8"/>
<polygon fill="black" stroke="black" points="116.62,-48.19 116.75,-37.6 110.04,-45.8 116.62,-48.19"/>
</g>
<!-- 7165 -->
<g id="node8" class="node">
<title>7165</title>
<path fill="#c0c0c0" stroke="black" d="M259.5,-36C259.5,-36 229.5,-36 229.5,-36 223.5,-36 217.5,-30 217.5,-24 217.5,-24 217.5,-12 217.5,-12 217.5,-6 223.5,0 229.5,0 229.5,0 259.5,0 259.5,0 265.5,0 271.5,-6 271.5,-12 271.5,-12 271.5,-24 271.5,-24 271.5,-30 265.5,-36 259.5,-36"/>
<text text-anchor="middle" x="244.5" y="-13.32" font-family="Helvetica,sans-Serif" font-size="14.00">(...)</text>
</g>
<!-- 7164&#45;&gt;7165 -->
<g id="edge7" class="edge">
<title>7164&#45;&gt;7165</title>
<path fill="none" stroke="black" d="M261.53,-71.75C258.81,-63.32 256.05,-54.77 253.56,-47.07"/>
<polygon fill="black" stroke="black" points="256.91,-46.05 250.51,-37.61 250.25,-48.2 256.91,-46.05"/>
</g>
<!-- 8646 -->
<g id="node9" class="node">
<title>8646</title>
<path fill="#c0c0c0" stroke="black" d="M331.5,-36C331.5,-36 301.5,-36 301.5,-36 295.5,-36 289.5,-30 289.5,-24 289.5,-24 289.5,-12 289.5,-12 289.5,-6 295.5,0 301.5,0 301.5,0 331.5,0 331.5,0 337.5,0 343.5,-6 343.5,-12 343.5,-12 343.5,-24 343.5,-24 343.5,-30 337.5,-36 331.5,-36"/>
<text text-anchor="middle" x="316.5" y="-13.32" font-family="Helvetica,sans-Serif" font-size="14.00">(...)</text>
</g>
<!-- 7164&#45;&gt;8646 -->
<g id="edge8" class="edge">
<title>7164&#45;&gt;8646</title>
<path fill="none" stroke="black" d="M295.21,-71.75C298.65,-63.22 302.15,-54.57 305.28,-46.8"/>
<polygon fill="black" stroke="black" points="308.51,-48.16 309,-37.58 302.02,-45.54 308.51,-48.16"/>
</g>
<!-- 9136 -->
<g id="node11" class="node">
<title>9136</title>
<path fill="#f7d9c4" stroke="black" d="M531.5,-166.25C531.5,-166.25 389.5,-166.25 389.5,-166.25 383.5,-166.25 377.5,-160.25 377.5,-154.25 377.5,-154.25 377.5,-84 377.5,-84 377.5,-78 383.5,-72 389.5,-72 389.5,-72 531.5,-72 531.5,-72 537.5,-72 543.5,-78 543.5,-84 543.5,-84 543.5,-154.25 543.5,-154.25 543.5,-160.25 537.5,-166.25 531.5,-166.25"/>
<text text-anchor="middle" x="460.5" y="-148.95" font-family="Helvetica,sans-Serif" font-size="14.00">1_U &lt;= 0.5</text>
<text text-anchor="middle" x="460.5" y="-131.7" font-family="Helvetica,sans-Serif" font-size="14.00">entropy = 0.978</text>
<text text-anchor="middle" x="460.5" y="-114.45" font-family="Helvetica,sans-Serif" font-size="14.00">samples = 4895</text>
<text text-anchor="middle" x="460.5" y="-97.2" font-family="Helvetica,sans-Serif" font-size="14.00">value = [4592, 3225]</text>
<text text-anchor="middle" x="460.5" y="-79.95" font-family="Helvetica,sans-Serif" font-size="14.00">class = Animal</text>
</g>
<!-- 9135&#45;&gt;9136 -->
<g id="edge10" class="edge">
<title>9135&#45;&gt;9136</title>
<path fill="none" stroke="black" d="M517.37,-202.07C511.45,-193.54 505.2,-184.54 499.11,-175.77"/>
<polygon fill="black" stroke="black" points="502.02,-173.82 493.45,-167.6 496.27,-177.81 502.02,-173.82"/>
</g>
<!-- 11753 -->
<g id="node14" class="node">
<title>11753</title>
<path fill="#9ccef2" stroke="black" d="M715.5,-166.25C715.5,-166.25 573.5,-166.25 573.5,-166.25 567.5,-166.25 561.5,-160.25 561.5,-154.25 561.5,-154.25 561.5,-84 561.5,-84 561.5,-78 567.5,-72 573.5,-72 573.5,-72 715.5,-72 715.5,-72 721.5,-72 727.5,-78 727.5,-84 727.5,-84 727.5,-154.25 727.5,-154.25 727.5,-160.25 721.5,-166.25 715.5,-166.25"/>
<text text-anchor="middle" x="644.5" y="-148.95" font-family="Helvetica,sans-Serif" font-size="14.00">17_G &lt;= 0.5</text>
<text text-anchor="middle" x="644.5" y="-131.7" font-family="Helvetica,sans-Serif" font-size="14.00">entropy = 0.918</text>
<text text-anchor="middle" x="644.5" y="-114.45" font-family="Helvetica,sans-Serif" font-size="14.00">samples = 3137</text>
<text text-anchor="middle" x="644.5" y="-97.2" font-family="Helvetica,sans-Serif" font-size="14.00">value = [1669, 3337]</text>
<text text-anchor="middle" x="644.5" y="-79.95" font-family="Helvetica,sans-Serif" font-size="14.00">class = Plant</text>
</g>
<!-- 9135&#45;&gt;11753 -->
<g id="edge13" class="edge">
<title>9135&#45;&gt;11753</title>
<path fill="none" stroke="black" d="M583.8,-202.07C590.19,-193.45 596.92,-184.35 603.49,-175.49"/>
<polygon fill="black" stroke="black" points="606.21,-177.69 609.35,-167.57 600.59,-173.53 606.21,-177.69"/>
</g>
<!-- 9137 -->
<g id="node12" class="node">
<title>9137</title>
<path fill="#c0c0c0" stroke="black" d="M423.5,-36C423.5,-36 393.5,-36 393.5,-36 387.5,-36 381.5,-30 381.5,-24 381.5,-24 381.5,-12 381.5,-12 381.5,-6 387.5,0 393.5,0 393.5,0 423.5,0 423.5,0 429.5,0 435.5,-6 435.5,-12 435.5,-12 435.5,-24 435.5,-24 435.5,-30 429.5,-36 423.5,-36"/>
<text text-anchor="middle" x="408.5" y="-13.32" font-family="Helvetica,sans-Serif" font-size="14.00">(...)</text>
</g>
<!-- 9136&#45;&gt;9137 -->
<g id="edge11" class="edge">
<title>9136&#45;&gt;9137</title>
<path fill="none" stroke="black" d="M436.17,-71.75C431.6,-63.03 426.95,-54.16 422.8,-46.26"/>
<polygon fill="black" stroke="black" points="425.96,-44.74 418.21,-37.51 419.76,-47.99 425.96,-44.74"/>
</g>
<!-- 10642 -->
<g id="node13" class="node">
<title>10642</title>
<path fill="#c0c0c0" stroke="black" d="M495.5,-36C495.5,-36 465.5,-36 465.5,-36 459.5,-36 453.5,-30 453.5,-24 453.5,-24 453.5,-12 453.5,-12 453.5,-6 459.5,0 465.5,0 465.5,0 495.5,0 495.5,0 501.5,0 507.5,-6 507.5,-12 507.5,-12 507.5,-24 507.5,-24 507.5,-30 501.5,-36 495.5,-36"/>
<text text-anchor="middle" x="480.5" y="-13.32" font-family="Helvetica,sans-Serif" font-size="14.00">(...)</text>
</g>
<!-- 9136&#45;&gt;10642 -->
<g id="edge12" class="edge">
<title>9136&#45;&gt;10642</title>
<path fill="none" stroke="black" d="M469.86,-71.75C471.54,-63.42 473.24,-54.97 474.78,-47.34"/>
<polygon fill="black" stroke="black" points="478.19,-48.15 476.74,-37.66 471.33,-46.77 478.19,-48.15"/>
</g>
<!-- 11754 -->
<g id="node15" class="node">
<title>11754</title>
<path fill="#c0c0c0" stroke="black" d="M607.5,-36C607.5,-36 577.5,-36 577.5,-36 571.5,-36 565.5,-30 565.5,-24 565.5,-24 565.5,-12 565.5,-12 565.5,-6 571.5,0 577.5,0 577.5,0 607.5,0 607.5,0 613.5,0 619.5,-6 619.5,-12 619.5,-12 619.5,-24 619.5,-24 619.5,-30 613.5,-36 607.5,-36"/>
<text text-anchor="middle" x="592.5" y="-13.32" font-family="Helvetica,sans-Serif" font-size="14.00">(...)</text>
</g>
<!-- 11753&#45;&gt;11754 -->
<g id="edge14" class="edge">
<title>11753&#45;&gt;11754</title>
<path fill="none" stroke="black" d="M620.17,-71.75C615.6,-63.03 610.95,-54.16 606.8,-46.26"/>
<polygon fill="black" stroke="black" points="609.96,-44.74 602.21,-37.51 603.76,-47.99 609.96,-44.74"/>
</g>
<!-- 12391 -->
<g id="node16" class="node">
<title>12391</title>
<path fill="#c0c0c0" stroke="black" d="M679.5,-36C679.5,-36 649.5,-36 649.5,-36 643.5,-36 637.5,-30 637.5,-24 637.5,-24 637.5,-12 637.5,-12 637.5,-6 643.5,0 649.5,0 649.5,0 679.5,0 679.5,0 685.5,0 691.5,-6 691.5,-12 691.5,-12 691.5,-24 691.5,-24 691.5,-30 685.5,-36 679.5,-36"/>
<text text-anchor="middle" x="664.5" y="-13.32" font-family="Helvetica,sans-Serif" font-size="14.00">(...)</text>
</g>
<!-- 11753&#45;&gt;12391 -->
<g id="edge15" class="edge">
<title>11753&#45;&gt;12391</title>
<path fill="none" stroke="black" d="M653.86,-71.75C655.54,-63.42 657.24,-54.97 658.78,-47.34"/>
<polygon fill="black" stroke="black" points="662.19,-48.15 660.74,-37.66 655.33,-46.77 662.19,-48.15"/>
</g>
<!-- 12683 -->
<g id="node18" class="node">
<title>12683</title>
<path fill="#8ec7f0" stroke="black" d="M993,-296.5C993,-296.5 842,-296.5 842,-296.5 836,-296.5 830,-290.5 830,-284.5 830,-284.5 830,-214.25 830,-214.25 830,-208.25 836,-202.25 842,-202.25 842,-202.25 993,-202.25 993,-202.25 999,-202.25 1005,-208.25 1005,-214.25 1005,-214.25 1005,-284.5 1005,-284.5 1005,-290.5 999,-296.5 993,-296.5"/>
<text text-anchor="middle" x="917.5" y="-279.2" font-family="Helvetica,sans-Serif" font-size="14.00">1_U &lt;= 0.5</text>
<text text-anchor="middle" x="917.5" y="-261.95" font-family="Helvetica,sans-Serif" font-size="14.00">entropy = 0.881</text>
<text text-anchor="middle" x="917.5" y="-244.7" font-family="Helvetica,sans-Serif" font-size="14.00">samples = 9425</text>
<text text-anchor="middle" x="917.5" y="-227.45" font-family="Helvetica,sans-Serif" font-size="14.00">value = [4428, 10325]</text>
<text text-anchor="middle" x="917.5" y="-210.2" font-family="Helvetica,sans-Serif" font-size="14.00">class = Plant</text>
</g>
<!-- 12682&#45;&gt;12683 -->
<g id="edge17" class="edge">
<title>12682&#45;&gt;12683</title>
<path fill="none" stroke="black" d="M917.5,-332.32C917.5,-324.42 917.5,-316.13 917.5,-307.98"/>
<polygon fill="black" stroke="black" points="921,-308.12 917.5,-298.12 914,-308.12 921,-308.12"/>
</g>
<!-- 15738 -->
<g id="node25" class="node">
<title>15738</title>
<path fill="#fdf7f3" stroke="black" d="M1267.5,-296.5C1267.5,-296.5 1125.5,-296.5 1125.5,-296.5 1119.5,-296.5 1113.5,-290.5 1113.5,-284.5 1113.5,-284.5 1113.5,-214.25 1113.5,-214.25 1113.5,-208.25 1119.5,-202.25 1125.5,-202.25 1125.5,-202.25 1267.5,-202.25 1267.5,-202.25 1273.5,-202.25 1279.5,-208.25 1279.5,-214.25 1279.5,-214.25 1279.5,-284.5 1279.5,-284.5 1279.5,-290.5 1273.5,-296.5 1267.5,-296.5"/>
<text text-anchor="middle" x="1196.5" y="-279.2" font-family="Helvetica,sans-Serif" font-size="14.00">8_G &lt;= 0.5</text>
<text text-anchor="middle" x="1196.5" y="-261.95" font-family="Helvetica,sans-Serif" font-size="14.00">entropy = 0.999</text>
<text text-anchor="middle" x="1196.5" y="-244.7" font-family="Helvetica,sans-Serif" font-size="14.00">samples = 2920</text>
<text text-anchor="middle" x="1196.5" y="-227.45" font-family="Helvetica,sans-Serif" font-size="14.00">value = [2412, 2261]</text>
<text text-anchor="middle" x="1196.5" y="-210.2" font-family="Helvetica,sans-Serif" font-size="14.00">class = Animal</text>
</g>
<!-- 12682&#45;&gt;15738 -->
<g id="edge24" class="edge">
<title>12682&#45;&gt;15738</title>
<path fill="none" stroke="black" d="M1005.39,-338.22C1036.53,-323.91 1071.65,-307.77 1103.21,-293.26"/>
<polygon fill="black" stroke="black" points="1104.33,-296.6 1111.95,-289.24 1101.4,-290.24 1104.33,-296.6"/>
</g>
<!-- 12684 -->
<g id="node19" class="node">
<title>12684</title>
<path fill="#e0effb" stroke="black" d="M899.5,-166.25C899.5,-166.25 757.5,-166.25 757.5,-166.25 751.5,-166.25 745.5,-160.25 745.5,-154.25 745.5,-154.25 745.5,-84 745.5,-84 745.5,-78 751.5,-72 757.5,-72 757.5,-72 899.5,-72 899.5,-72 905.5,-72 911.5,-78 911.5,-84 911.5,-84 911.5,-154.25 911.5,-154.25 911.5,-160.25 905.5,-166.25 899.5,-166.25"/>
<text text-anchor="middle" x="828.5" y="-148.95" font-family="Helvetica,sans-Serif" font-size="14.00">12_G &lt;= 0.5</text>
<text text-anchor="middle" x="828.5" y="-131.7" font-family="Helvetica,sans-Serif" font-size="14.00">entropy = 0.995</text>
<text text-anchor="middle" x="828.5" y="-114.45" font-family="Helvetica,sans-Serif" font-size="14.00">samples = 3573</text>
<text text-anchor="middle" x="828.5" y="-97.2" font-family="Helvetica,sans-Serif" font-size="14.00">value = [2568, 3051]</text>
<text text-anchor="middle" x="828.5" y="-79.95" font-family="Helvetica,sans-Serif" font-size="14.00">class = Plant</text>
</g>
<!-- 12683&#45;&gt;12684 -->
<g id="edge18" class="edge">
<title>12683&#45;&gt;12684</title>
<path fill="none" stroke="black" d="M885.37,-202.07C879.45,-193.54 873.2,-184.54 867.11,-175.77"/>
<polygon fill="black" stroke="black" points="870.02,-173.82 861.45,-167.6 864.27,-177.81 870.02,-173.82"/>
</g>
<!-- 14419 -->
<g id="node22" class="node">
<title>14419</title>
<path fill="#6cb6ec" stroke="black" d="M1083.5,-166.25C1083.5,-166.25 941.5,-166.25 941.5,-166.25 935.5,-166.25 929.5,-160.25 929.5,-154.25 929.5,-154.25 929.5,-84 929.5,-84 929.5,-78 935.5,-72 941.5,-72 941.5,-72 1083.5,-72 1083.5,-72 1089.5,-72 1095.5,-78 1095.5,-84 1095.5,-84 1095.5,-154.25 1095.5,-154.25 1095.5,-160.25 1089.5,-166.25 1083.5,-166.25"/>
<text text-anchor="middle" x="1012.5" y="-148.95" font-family="Helvetica,sans-Serif" font-size="14.00">22_U &lt;= 0.5</text>
<text text-anchor="middle" x="1012.5" y="-131.7" font-family="Helvetica,sans-Serif" font-size="14.00">entropy = 0.729</text>
<text text-anchor="middle" x="1012.5" y="-114.45" font-family="Helvetica,sans-Serif" font-size="14.00">samples = 5852</text>
<text text-anchor="middle" x="1012.5" y="-97.2" font-family="Helvetica,sans-Serif" font-size="14.00">value = [1860, 7274]</text>
<text text-anchor="middle" x="1012.5" y="-79.95" font-family="Helvetica,sans-Serif" font-size="14.00">class = Plant</text>
</g>
<!-- 12683&#45;&gt;14419 -->
<g id="edge21" class="edge">
<title>12683&#45;&gt;14419</title>
<path fill="none" stroke="black" d="M951.8,-202.07C958.19,-193.45 964.92,-184.35 971.49,-175.49"/>
<polygon fill="black" stroke="black" points="974.21,-177.69 977.35,-167.57 968.59,-173.53 974.21,-177.69"/>
</g>
<!-- 12685 -->
<g id="node20" class="node">
<title>12685</title>
<path fill="#c0c0c0" stroke="black" d="M791.5,-36C791.5,-36 761.5,-36 761.5,-36 755.5,-36 749.5,-30 749.5,-24 749.5,-24 749.5,-12 749.5,-12 749.5,-6 755.5,0 761.5,0 761.5,0 791.5,0 791.5,0 797.5,0 803.5,-6 803.5,-12 803.5,-12 803.5,-24 803.5,-24 803.5,-30 797.5,-36 791.5,-36"/>
<text text-anchor="middle" x="776.5" y="-13.32" font-family="Helvetica,sans-Serif" font-size="14.00">(...)</text>
</g>
<!-- 12684&#45;&gt;12685 -->
<g id="edge19" class="edge">
<title>12684&#45;&gt;12685</title>
<path fill="none" stroke="black" d="M804.17,-71.75C799.6,-63.03 794.95,-54.16 790.8,-46.26"/>
<polygon fill="black" stroke="black" points="793.96,-44.74 786.21,-37.51 787.76,-47.99 793.96,-44.74"/>
</g>
<!-- 13956 -->
<g id="node21" class="node">
<title>13956</title>
<path fill="#c0c0c0" stroke="black" d="M863.5,-36C863.5,-36 833.5,-36 833.5,-36 827.5,-36 821.5,-30 821.5,-24 821.5,-24 821.5,-12 821.5,-12 821.5,-6 827.5,0 833.5,0 833.5,0 863.5,0 863.5,0 869.5,0 875.5,-6 875.5,-12 875.5,-12 875.5,-24 875.5,-24 875.5,-30 869.5,-36 863.5,-36"/>
<text text-anchor="middle" x="848.5" y="-13.32" font-family="Helvetica,sans-Serif" font-size="14.00">(...)</text>
</g>
<!-- 12684&#45;&gt;13956 -->
<g id="edge20" class="edge">
<title>12684&#45;&gt;13956</title>
<path fill="none" stroke="black" d="M837.86,-71.75C839.54,-63.42 841.24,-54.97 842.78,-47.34"/>
<polygon fill="black" stroke="black" points="846.19,-48.15 844.74,-37.66 839.33,-46.77 846.19,-48.15"/>
</g>
<!-- 14420 -->
<g id="node23" class="node">
<title>14420</title>
<path fill="#c0c0c0" stroke="black" d="M975.5,-36C975.5,-36 945.5,-36 945.5,-36 939.5,-36 933.5,-30 933.5,-24 933.5,-24 933.5,-12 933.5,-12 933.5,-6 939.5,0 945.5,0 945.5,0 975.5,0 975.5,0 981.5,0 987.5,-6 987.5,-12 987.5,-12 987.5,-24 987.5,-24 987.5,-30 981.5,-36 975.5,-36"/>
<text text-anchor="middle" x="960.5" y="-13.32" font-family="Helvetica,sans-Serif" font-size="14.00">(...)</text>
</g>
<!-- 14419&#45;&gt;14420 -->
<g id="edge22" class="edge">
<title>14419&#45;&gt;14420</title>
<path fill="none" stroke="black" d="M988.17,-71.75C983.6,-63.03 978.95,-54.16 974.8,-46.26"/>
<polygon fill="black" stroke="black" points="977.96,-44.74 970.21,-37.51 971.76,-47.99 977.96,-44.74"/>
</g>
<!-- 15567 -->
<g id="node24" class="node">
<title>15567</title>
<path fill="#c0c0c0" stroke="black" d="M1047.5,-36C1047.5,-36 1017.5,-36 1017.5,-36 1011.5,-36 1005.5,-30 1005.5,-24 1005.5,-24 1005.5,-12 1005.5,-12 1005.5,-6 1011.5,0 1017.5,0 1017.5,0 1047.5,0 1047.5,0 1053.5,0 1059.5,-6 1059.5,-12 1059.5,-12 1059.5,-24 1059.5,-24 1059.5,-30 1053.5,-36 1047.5,-36"/>
<text text-anchor="middle" x="1032.5" y="-13.32" font-family="Helvetica,sans-Serif" font-size="14.00">(...)</text>
</g>
<!-- 14419&#45;&gt;15567 -->
<g id="edge23" class="edge">
<title>14419&#45;&gt;15567</title>
<path fill="none" stroke="black" d="M1021.86,-71.75C1023.54,-63.42 1025.24,-54.97 1026.78,-47.34"/>
<polygon fill="black" stroke="black" points="1030.19,-48.15 1028.74,-37.66 1023.33,-46.77 1030.19,-48.15"/>
</g>
<!-- 15739 -->
<g id="node26" class="node">
<title>15739</title>
<path fill="#f8decb" stroke="black" d="M1267.5,-166.25C1267.5,-166.25 1125.5,-166.25 1125.5,-166.25 1119.5,-166.25 1113.5,-160.25 1113.5,-154.25 1113.5,-154.25 1113.5,-84 1113.5,-84 1113.5,-78 1119.5,-72 1125.5,-72 1125.5,-72 1267.5,-72 1267.5,-72 1273.5,-72 1279.5,-78 1279.5,-84 1279.5,-84 1279.5,-154.25 1279.5,-154.25 1279.5,-160.25 1273.5,-166.25 1267.5,-166.25"/>
<text text-anchor="middle" x="1196.5" y="-148.95" font-family="Helvetica,sans-Serif" font-size="14.00">7_G &lt;= 0.5</text>
<text text-anchor="middle" x="1196.5" y="-131.7" font-family="Helvetica,sans-Serif" font-size="14.00">entropy = 0.984</text>
<text text-anchor="middle" x="1196.5" y="-114.45" font-family="Helvetica,sans-Serif" font-size="14.00">samples = 2132</text>
<text text-anchor="middle" x="1196.5" y="-97.2" font-family="Helvetica,sans-Serif" font-size="14.00">value = [1975, 1461]</text>
<text text-anchor="middle" x="1196.5" y="-79.95" font-family="Helvetica,sans-Serif" font-size="14.00">class = Animal</text>
</g>
<!-- 15738&#45;&gt;15739 -->
<g id="edge25" class="edge">
<title>15738&#45;&gt;15739</title>
<path fill="none" stroke="black" d="M1196.5,-202.07C1196.5,-194.17 1196.5,-185.88 1196.5,-177.73"/>
<polygon fill="black" stroke="black" points="1200,-177.87 1196.5,-167.87 1193,-177.87 1200,-177.87"/>
</g>
<!-- 16674 -->
<g id="node29" class="node">
<title>16674</title>
<path fill="#a5d3f3" stroke="black" d="M1433.5,-166.25C1433.5,-166.25 1309.5,-166.25 1309.5,-166.25 1303.5,-166.25 1297.5,-160.25 1297.5,-154.25 1297.5,-154.25 1297.5,-84 1297.5,-84 1297.5,-78 1303.5,-72 1309.5,-72 1309.5,-72 1433.5,-72 1433.5,-72 1439.5,-72 1445.5,-78 1445.5,-84 1445.5,-84 1445.5,-154.25 1445.5,-154.25 1445.5,-160.25 1439.5,-166.25 1433.5,-166.25"/>
<text text-anchor="middle" x="1371.5" y="-148.95" font-family="Helvetica,sans-Serif" font-size="14.00">3_A &lt;= 0.5</text>
<text text-anchor="middle" x="1371.5" y="-131.7" font-family="Helvetica,sans-Serif" font-size="14.00">entropy = 0.937</text>
<text text-anchor="middle" x="1371.5" y="-114.45" font-family="Helvetica,sans-Serif" font-size="14.00">samples = 788</text>
<text text-anchor="middle" x="1371.5" y="-97.2" font-family="Helvetica,sans-Serif" font-size="14.00">value = [437, 800]</text>
<text text-anchor="middle" x="1371.5" y="-79.95" font-family="Helvetica,sans-Serif" font-size="14.00">class = Plant</text>
</g>
<!-- 15738&#45;&gt;16674 -->
<g id="edge28" class="edge">
<title>15738&#45;&gt;16674</title>
<path fill="none" stroke="black" d="M1259.68,-202.07C1272.49,-192.69 1286.05,-182.75 1299.14,-173.15"/>
<polygon fill="black" stroke="black" points="1300.9,-176.2 1306.9,-167.47 1296.76,-170.56 1300.9,-176.2"/>
</g>
<!-- 15740 -->
<g id="node27" class="node">
<title>15740</title>
<path fill="#c0c0c0" stroke="black" d="M1172.5,-36C1172.5,-36 1142.5,-36 1142.5,-36 1136.5,-36 1130.5,-30 1130.5,-24 1130.5,-24 1130.5,-12 1130.5,-12 1130.5,-6 1136.5,0 1142.5,0 1142.5,0 1172.5,0 1172.5,0 1178.5,0 1184.5,-6 1184.5,-12 1184.5,-12 1184.5,-24 1184.5,-24 1184.5,-30 1178.5,-36 1172.5,-36"/>
<text text-anchor="middle" x="1157.5" y="-13.32" font-family="Helvetica,sans-Serif" font-size="14.00">(...)</text>
</g>
<!-- 15739&#45;&gt;15740 -->
<g id="edge26" class="edge">
<title>15739&#45;&gt;15740</title>
<path fill="none" stroke="black" d="M1178.26,-71.75C1174.9,-63.22 1171.49,-54.57 1168.44,-46.8"/>
<polygon fill="black" stroke="black" points="1171.73,-45.61 1164.81,-37.58 1165.21,-48.17 1171.73,-45.61"/>
</g>
<!-- 16459 -->
<g id="node28" class="node">
<title>16459</title>
<path fill="#c0c0c0" stroke="black" d="M1244.5,-36C1244.5,-36 1214.5,-36 1214.5,-36 1208.5,-36 1202.5,-30 1202.5,-24 1202.5,-24 1202.5,-12 1202.5,-12 1202.5,-6 1208.5,0 1214.5,0 1214.5,0 1244.5,0 1244.5,0 1250.5,0 1256.5,-6 1256.5,-12 1256.5,-12 1256.5,-24 1256.5,-24 1256.5,-30 1250.5,-36 1244.5,-36"/>
<text text-anchor="middle" x="1229.5" y="-13.32" font-family="Helvetica,sans-Serif" font-size="14.00">(...)</text>
</g>
<!-- 15739&#45;&gt;16459 -->
<g id="edge27" class="edge">
<title>15739&#45;&gt;16459</title>
<path fill="none" stroke="black" d="M1211.94,-71.75C1214.74,-63.32 1217.59,-54.77 1220.16,-47.07"/>
<polygon fill="black" stroke="black" points="1223.47,-48.2 1223.3,-37.61 1216.83,-45.99 1223.47,-48.2"/>
</g>
<!-- 16675 -->
<g id="node30" class="node">
<title>16675</title>
<path fill="#c0c0c0" stroke="black" d="M1350.5,-36C1350.5,-36 1320.5,-36 1320.5,-36 1314.5,-36 1308.5,-30 1308.5,-24 1308.5,-24 1308.5,-12 1308.5,-12 1308.5,-6 1314.5,0 1320.5,0 1320.5,0 1350.5,0 1350.5,0 1356.5,0 1362.5,-6 1362.5,-12 1362.5,-12 1362.5,-24 1362.5,-24 1362.5,-30 1356.5,-36 1350.5,-36"/>
<text text-anchor="middle" x="1335.5" y="-13.32" font-family="Helvetica,sans-Serif" font-size="14.00">(...)</text>
</g>
<!-- 16674&#45;&gt;16675 -->
<g id="edge29" class="edge">
<title>16674&#45;&gt;16675</title>
<path fill="none" stroke="black" d="M1354.66,-71.75C1351.56,-63.22 1348.42,-54.57 1345.6,-46.8"/>
<polygon fill="black" stroke="black" points="1348.96,-45.8 1342.25,-37.6 1342.38,-48.19 1348.96,-45.8"/>
</g>
<!-- 16906 -->
<g id="node31" class="node">
<title>16906</title>
<path fill="#c0c0c0" stroke="black" d="M1422.5,-36C1422.5,-36 1392.5,-36 1392.5,-36 1386.5,-36 1380.5,-30 1380.5,-24 1380.5,-24 1380.5,-12 1380.5,-12 1380.5,-6 1386.5,0 1392.5,0 1392.5,0 1422.5,0 1422.5,0 1428.5,0 1434.5,-6 1434.5,-12 1434.5,-12 1434.5,-24 1434.5,-24 1434.5,-30 1428.5,-36 1422.5,-36"/>
<text text-anchor="middle" x="1407.5" y="-13.32" font-family="Helvetica,sans-Serif" font-size="14.00">(...)</text>
</g>
<!-- 16674&#45;&gt;16906 -->
<g id="edge30" class="edge">
<title>16674&#45;&gt;16906</title>
<path fill="none" stroke="black" d="M1388.34,-71.75C1391.44,-63.22 1394.58,-54.57 1397.4,-46.8"/>
<polygon fill="black" stroke="black" points="1400.62,-48.19 1400.75,-37.6 1394.04,-45.8 1400.62,-48.19"/>
</g>
</g>
</svg>
