<?xml version="1.0" encoding="UTF-8" standalone="no"?>
<!DOCTYPE svg PUBLIC "-//W3C//DTD SVG 1.1//EN"
 "http://www.w3.org/Graphics/SVG/1.1/DTD/svg11.dtd">
<!-- Generated by graphviz version 12.0.0 (20240803.0821)
 -->
<!-- Title: Tree Pages: 1 -->
<svg width="1429pt" height="565pt"
 viewBox="0.00 0.00 1428.50 565.00" xmlns="http://www.w3.org/2000/svg" xmlns:xlink="http://www.w3.org/1999/xlink">
<g id="graph0" class="graph" transform="scale(1 1) rotate(0) translate(4 561)">
<title>Tree</title>
<polygon fill="white" stroke="none" points="-4,4 -4,-561 1424.5,-561 1424.5,4 -4,4"/>
<!-- 0 -->
<g id="node1" class="node">
<title>0</title>
<path fill="#ffffff" stroke="black" d="M826,-557C826,-557 666,-557 666,-557 660,-557 654,-551 654,-545 654,-545 654,-474.75 654,-474.75 654,-468.75 660,-462.75 666,-462.75 666,-462.75 826,-462.75 826,-462.75 832,-462.75 838,-468.75 838,-474.75 838,-474.75 838,-545 838,-545 838,-551 832,-557 826,-557"/>
<text text-anchor="middle" x="746" y="-539.7" font-family="Helvetica,sans-Serif" font-size="14.00">22_G &lt;= 0.5</text>
<text text-anchor="middle" x="746" y="-522.45" font-family="Helvetica,sans-Serif" font-size="14.00">entropy = 1.0</text>
<text text-anchor="middle" x="746" y="-505.2" font-family="Helvetica,sans-Serif" font-size="14.00">samples = 38156</text>
<text text-anchor="middle" x="746" y="-487.95" font-family="Helvetica,sans-Serif" font-size="14.00">value = [30142, 30203]</text>
<text text-anchor="middle" x="746" y="-470.7" font-family="Helvetica,sans-Serif" font-size="14.00">class = Plant</text>
</g>
<!-- 1 -->
<g id="node2" class="node">
<title>1</title>
<path fill="#e0f0fb" stroke="black" d="M646,-426.75C646,-426.75 486,-426.75 486,-426.75 480,-426.75 474,-420.75 474,-414.75 474,-414.75 474,-344.5 474,-344.5 474,-338.5 480,-332.5 486,-332.5 486,-332.5 646,-332.5 646,-332.5 652,-332.5 658,-338.5 658,-344.5 658,-344.5 658,-414.75 658,-414.75 658,-420.75 652,-426.75 646,-426.75"/>
<text text-anchor="middle" x="566" y="-409.45" font-family="Helvetica,sans-Serif" font-size="14.00">2_A &lt;= 0.5</text>
<text text-anchor="middle" x="566" y="-392.2" font-family="Helvetica,sans-Serif" font-size="14.00">entropy = 0.995</text>
<text text-anchor="middle" x="566" y="-374.95" font-family="Helvetica,sans-Serif" font-size="14.00">samples = 33243</text>
<text text-anchor="middle" x="566" y="-357.7" font-family="Helvetica,sans-Serif" font-size="14.00">value = [24085, 28478]</text>
<text text-anchor="middle" x="566" y="-340.45" font-family="Helvetica,sans-Serif" font-size="14.00">class = Plant</text>
</g>
<!-- 0&#45;&gt;1 -->
<g id="edge1" class="edge">
<title>0&#45;&gt;1</title>
<path fill="none" stroke="black" d="M680.76,-462.39C667.68,-453.07 653.85,-443.22 640.48,-433.69"/>
<polygon fill="black" stroke="black" points="642.73,-430.99 632.55,-428.04 638.66,-436.7 642.73,-430.99"/>
<text text-anchor="middle" x="635.46" y="-447.14" font-family="Helvetica,sans-Serif" font-size="14.00">True</text>
</g>
<!-- 14728 -->
<g id="node17" class="node">
<title>14728</title>
<path fill="#eca571" stroke="black" d="M999,-426.75C999,-426.75 857,-426.75 857,-426.75 851,-426.75 845,-420.75 845,-414.75 845,-414.75 845,-344.5 845,-344.5 845,-338.5 851,-332.5 857,-332.5 857,-332.5 999,-332.5 999,-332.5 1005,-332.5 1011,-338.5 1011,-344.5 1011,-344.5 1011,-414.75 1011,-414.75 1011,-420.75 1005,-426.75 999,-426.75"/>
<text text-anchor="middle" x="928" y="-409.45" font-family="Helvetica,sans-Serif" font-size="14.00">23_G &lt;= 0.5</text>
<text text-anchor="middle" x="928" y="-392.2" font-family="Helvetica,sans-Serif" font-size="14.00">entropy = 0.763</text>
<text text-anchor="middle" x="928" y="-374.95" font-family="Helvetica,sans-Serif" font-size="14.00">samples = 4913</text>
<text text-anchor="middle" x="928" y="-357.7" font-family="Helvetica,sans-Serif" font-size="14.00">value = [6057, 1725]</text>
<text text-anchor="middle" x="928" y="-340.45" font-family="Helvetica,sans-Serif" font-size="14.00">class = Animal</text>
</g>
<!-- 0&#45;&gt;14728 -->
<g id="edge16" class="edge">
<title>0&#45;&gt;14728</title>
<path fill="none" stroke="black" d="M811.96,-462.39C825.19,-453.07 839.18,-443.22 852.69,-433.69"/>
<polygon fill="black" stroke="black" points="854.56,-436.66 860.72,-428.04 850.53,-430.94 854.56,-436.66"/>
<text text-anchor="middle" x="857.69" y="-447.12" font-family="Helvetica,sans-Serif" font-size="14.00">False</text>
</g>
<!-- 2 -->
<g id="node3" class="node">
<title>2</title>
<path fill="#c6e3f8" stroke="black" d="M370,-296.5C370,-296.5 210,-296.5 210,-296.5 204,-296.5 198,-290.5 198,-284.5 198,-284.5 198,-214.25 198,-214.25 198,-208.25 204,-202.25 210,-202.25 210,-202.25 370,-202.25 370,-202.25 376,-202.25 382,-208.25 382,-214.25 382,-214.25 382,-284.5 382,-284.5 382,-290.5 376,-296.5 370,-296.5"/>
<text text-anchor="middle" x="290" y="-279.2" font-family="Helvetica,sans-Serif" font-size="14.00">19_C &lt;= 0.5</text>
<text text-anchor="middle" x="290" y="-261.95" font-family="Helvetica,sans-Serif" font-size="14.00">entropy = 0.98</text>
<text text-anchor="middle" x="290" y="-244.7" font-family="Helvetica,sans-Serif" font-size="14.00">samples = 25664</text>
<text text-anchor="middle" x="290" y="-227.45" font-family="Helvetica,sans-Serif" font-size="14.00">value = [16909, 23716]</text>
<text text-anchor="middle" x="290" y="-210.2" font-family="Helvetica,sans-Serif" font-size="14.00">class = Plant</text>
</g>
<!-- 1&#45;&gt;2 -->
<g id="edge2" class="edge">
<title>1&#45;&gt;2</title>
<path fill="none" stroke="black" d="M473.71,-335.74C447.59,-323.6 419,-310.32 392.32,-297.92"/>
<polygon fill="black" stroke="black" points="394.12,-294.9 383.57,-293.86 391.17,-301.24 394.12,-294.9"/>
</g>
<!-- 11171 -->
<g id="node10" class="node">
<title>11171</title>
<path fill="#f6d5bc" stroke="black" d="M637,-296.5C637,-296.5 495,-296.5 495,-296.5 489,-296.5 483,-290.5 483,-284.5 483,-284.5 483,-214.25 483,-214.25 483,-208.25 489,-202.25 495,-202.25 495,-202.25 637,-202.25 637,-202.25 643,-202.25 649,-208.25 649,-214.25 649,-214.25 649,-284.5 649,-284.5 649,-290.5 643,-296.5 637,-296.5"/>
<text text-anchor="middle" x="566" y="-279.2" font-family="Helvetica,sans-Serif" font-size="14.00">6_A &lt;= 0.5</text>
<text text-anchor="middle" x="566" y="-261.95" font-family="Helvetica,sans-Serif" font-size="14.00">entropy = 0.97</text>
<text text-anchor="middle" x="566" y="-244.7" font-family="Helvetica,sans-Serif" font-size="14.00">samples = 7579</text>
<text text-anchor="middle" x="566" y="-227.45" font-family="Helvetica,sans-Serif" font-size="14.00">value = [7176, 4762]</text>
<text text-anchor="middle" x="566" y="-210.2" font-family="Helvetica,sans-Serif" font-size="14.00">class = Animal</text>
</g>
<!-- 1&#45;&gt;11171 -->
<g id="edge9" class="edge">
<title>1&#45;&gt;11171</title>
<path fill="none" stroke="black" d="M566,-332.32C566,-324.42 566,-316.13 566,-307.98"/>
<polygon fill="black" stroke="black" points="569.5,-308.12 566,-298.12 562.5,-308.12 569.5,-308.12"/>
</g>
<!-- 3 -->
<g id="node4" class="node">
<title>3</title>
<path fill="#f9fcfe" stroke="black" d="M172,-166.25C172,-166.25 12,-166.25 12,-166.25 6,-166.25 0,-160.25 0,-154.25 0,-154.25 0,-84 0,-84 0,-78 6,-72 12,-72 12,-72 172,-72 172,-72 178,-72 184,-78 184,-84 184,-84 184,-154.25 184,-154.25 184,-160.25 178,-166.25 172,-166.25"/>
<text text-anchor="middle" x="92" y="-148.95" font-family="Helvetica,sans-Serif" font-size="14.00">19_U &lt;= 0.5</text>
<text text-anchor="middle" x="92" y="-131.7" font-family="Helvetica,sans-Serif" font-size="14.00">entropy = 1.0</text>
<text text-anchor="middle" x="92" y="-114.45" font-family="Helvetica,sans-Serif" font-size="14.00">samples = 16642</text>
<text text-anchor="middle" x="92" y="-97.2" font-family="Helvetica,sans-Serif" font-size="14.00">value = [12949, 13357]</text>
<text text-anchor="middle" x="92" y="-79.95" font-family="Helvetica,sans-Serif" font-size="14.00">class = Plant</text>
</g>
<!-- 2&#45;&gt;3 -->
<g id="edge3" class="edge">
<title>2&#45;&gt;3</title>
<path fill="none" stroke="black" d="M218.24,-201.89C203.71,-192.48 188.34,-182.53 173.5,-172.92"/>
<polygon fill="black" stroke="black" points="175.42,-169.99 165.12,-167.49 171.61,-175.86 175.42,-169.99"/>
</g>
<!-- 8366 -->
<g id="node7" class="node">
<title>8366</title>
<path fill="#85c2ef" stroke="black" d="M365.5,-166.25C365.5,-166.25 214.5,-166.25 214.5,-166.25 208.5,-166.25 202.5,-160.25 202.5,-154.25 202.5,-154.25 202.5,-84 202.5,-84 202.5,-78 208.5,-72 214.5,-72 214.5,-72 365.5,-72 365.5,-72 371.5,-72 377.5,-78 377.5,-84 377.5,-84 377.5,-154.25 377.5,-154.25 377.5,-160.25 371.5,-166.25 365.5,-166.25"/>
<text text-anchor="middle" x="290" y="-148.95" font-family="Helvetica,sans-Serif" font-size="14.00">23_U &lt;= 0.5</text>
<text text-anchor="middle" x="290" y="-131.7" font-family="Helvetica,sans-Serif" font-size="14.00">entropy = 0.851</text>
<text text-anchor="middle" x="290" y="-114.45" font-family="Helvetica,sans-Serif" font-size="14.00">samples = 9022</text>
<text text-anchor="middle" x="290" y="-97.2" font-family="Helvetica,sans-Serif" font-size="14.00">value = [3960, 10359]</text>
<text text-anchor="middle" x="290" y="-79.95" font-family="Helvetica,sans-Serif" font-size="14.00">class = Plant</text>
</g>
<!-- 2&#45;&gt;8366 -->
<g id="edge6" class="edge">
<title>2&#45;&gt;8366</title>
<path fill="none" stroke="black" d="M290,-202.07C290,-194.17 290,-185.88 290,-177.73"/>
<polygon fill="black" stroke="black" points="293.5,-177.87 290,-167.87 286.5,-177.87 293.5,-177.87"/>
</g>
<!-- 4 -->
<g id="node5" class="node">
<title>4</title>
<path fill="#c0c0c0" stroke="black" d="M71,-36C71,-36 41,-36 41,-36 35,-36 29,-30 29,-24 29,-24 29,-12 29,-12 29,-6 35,0 41,0 41,0 71,0 71,0 77,0 83,-6 83,-12 83,-12 83,-24 83,-24 83,-30 77,-36 71,-36"/>
<text text-anchor="middle" x="56" y="-13.32" font-family="Helvetica,sans-Serif" font-size="14.00">(...)</text>
</g>
<!-- 3&#45;&gt;4 -->
<g id="edge4" class="edge">
<title>3&#45;&gt;4</title>
<path fill="none" stroke="black" d="M75.16,-71.75C72.06,-63.22 68.92,-54.57 66.1,-46.8"/>
<polygon fill="black" stroke="black" points="69.46,-45.8 62.75,-37.6 62.88,-48.19 69.46,-45.8"/>
</g>
<!-- 5411 -->
<g id="node6" class="node">
<title>5411</title>
<path fill="#c0c0c0" stroke="black" d="M143,-36C143,-36 113,-36 113,-36 107,-36 101,-30 101,-24 101,-24 101,-12 101,-12 101,-6 107,0 113,0 113,0 143,0 143,0 149,0 155,-6 155,-12 155,-12 155,-24 155,-24 155,-30 149,-36 143,-36"/>
<text text-anchor="middle" x="128" y="-13.32" font-family="Helvetica,sans-Serif" font-size="14.00">(...)</text>
</g>
<!-- 3&#45;&gt;5411 -->
<g id="edge5" class="edge">
<title>3&#45;&gt;5411</title>
<path fill="none" stroke="black" d="M108.84,-71.75C111.94,-63.22 115.08,-54.57 117.9,-46.8"/>
<polygon fill="black" stroke="black" points="121.12,-48.19 121.25,-37.6 114.54,-45.8 121.12,-48.19"/>
</g>
<!-- 8367 -->
<g id="node8" class="node">
<title>8367</title>
<path fill="#c0c0c0" stroke="black" d="M276,-36C276,-36 246,-36 246,-36 240,-36 234,-30 234,-24 234,-24 234,-12 234,-12 234,-6 240,0 246,0 246,0 276,0 276,0 282,0 288,-6 288,-12 288,-12 288,-24 288,-24 288,-30 282,-36 276,-36"/>
<text text-anchor="middle" x="261" y="-13.32" font-family="Helvetica,sans-Serif" font-size="14.00">(...)</text>
</g>
<!-- 8366&#45;&gt;8367 -->
<g id="edge7" class="edge">
<title>8366&#45;&gt;8367</title>
<path fill="none" stroke="black" d="M276.43,-71.75C273.97,-63.32 271.46,-54.77 269.21,-47.07"/>
<polygon fill="black" stroke="black" points="272.62,-46.24 266.45,-37.63 265.9,-48.21 272.62,-46.24"/>
</g>
<!-- 11044 -->
<g id="node9" class="node">
<title>11044</title>
<path fill="#c0c0c0" stroke="black" d="M348,-36C348,-36 318,-36 318,-36 312,-36 306,-30 306,-24 306,-24 306,-12 306,-12 306,-6 312,0 318,0 318,0 348,0 348,0 354,0 360,-6 360,-12 360,-12 360,-24 360,-24 360,-30 354,-36 348,-36"/>
<text text-anchor="middle" x="333" y="-13.32" font-family="Helvetica,sans-Serif" font-size="14.00">(...)</text>
</g>
<!-- 8366&#45;&gt;11044 -->
<g id="edge8" class="edge">
<title>8366&#45;&gt;11044</title>
<path fill="none" stroke="black" d="M310.12,-71.75C313.86,-63.12 317.66,-54.36 321.06,-46.53"/>
<polygon fill="black" stroke="black" points="324.18,-48.13 324.95,-37.56 317.76,-45.34 324.18,-48.13"/>
</g>
<!-- 11172 -->
<g id="node11" class="node">
<title>11172</title>
<path fill="#f2be99" stroke="black" d="M550,-166.25C550,-166.25 408,-166.25 408,-166.25 402,-166.25 396,-160.25 396,-154.25 396,-154.25 396,-84 396,-84 396,-78 402,-72 408,-72 408,-72 550,-72 550,-72 556,-72 562,-78 562,-84 562,-84 562,-154.25 562,-154.25 562,-160.25 556,-166.25 550,-166.25"/>
<text text-anchor="middle" x="479" y="-148.95" font-family="Helvetica,sans-Serif" font-size="14.00">9_U &lt;= 0.5</text>
<text text-anchor="middle" x="479" y="-131.7" font-family="Helvetica,sans-Serif" font-size="14.00">entropy = 0.911</text>
<text text-anchor="middle" x="479" y="-114.45" font-family="Helvetica,sans-Serif" font-size="14.00">samples = 5576</text>
<text text-anchor="middle" x="479" y="-97.2" font-family="Helvetica,sans-Serif" font-size="14.00">value = [5922, 2873]</text>
<text text-anchor="middle" x="479" y="-79.95" font-family="Helvetica,sans-Serif" font-size="14.00">class = Animal</text>
</g>
<!-- 11171&#45;&gt;11172 -->
<g id="edge10" class="edge">
<title>11171&#45;&gt;11172</title>
<path fill="none" stroke="black" d="M534.59,-202.07C528.8,-193.54 522.7,-184.54 516.75,-175.77"/>
<polygon fill="black" stroke="black" points="519.72,-173.92 511.21,-167.61 513.93,-177.85 519.72,-173.92"/>
</g>
<!-- 13843 -->
<g id="node14" class="node">
<title>13843</title>
<path fill="#bcdef6" stroke="black" d="M734,-166.25C734,-166.25 592,-166.25 592,-166.25 586,-166.25 580,-160.25 580,-154.25 580,-154.25 580,-84 580,-84 580,-78 586,-72 592,-72 592,-72 734,-72 734,-72 740,-72 746,-78 746,-84 746,-84 746,-154.25 746,-154.25 746,-160.25 740,-166.25 734,-166.25"/>
<text text-anchor="middle" x="663" y="-148.95" font-family="Helvetica,sans-Serif" font-size="14.00">18_C &lt;= 0.5</text>
<text text-anchor="middle" x="663" y="-131.7" font-family="Helvetica,sans-Serif" font-size="14.00">entropy = 0.97</text>
<text text-anchor="middle" x="663" y="-114.45" font-family="Helvetica,sans-Serif" font-size="14.00">samples = 2003</text>
<text text-anchor="middle" x="663" y="-97.2" font-family="Helvetica,sans-Serif" font-size="14.00">value = [1254, 1889]</text>
<text text-anchor="middle" x="663" y="-79.95" font-family="Helvetica,sans-Serif" font-size="14.00">class = Plant</text>
</g>
<!-- 11171&#45;&gt;13843 -->
<g id="edge13" class="edge">
<title>11171&#45;&gt;13843</title>
<path fill="none" stroke="black" d="M601.02,-202.07C607.54,-193.45 614.42,-184.35 621.13,-175.49"/>
<polygon fill="black" stroke="black" points="623.88,-177.65 627.12,-167.57 618.3,-173.43 623.88,-177.65"/>
</g>
<!-- 11173 -->
<g id="node12" class="node">
<title>11173</title>
<path fill="#c0c0c0" stroke="black" d="M442,-36C442,-36 412,-36 412,-36 406,-36 400,-30 400,-24 400,-24 400,-12 400,-12 400,-6 406,0 412,0 412,0 442,0 442,0 448,0 454,-6 454,-12 454,-12 454,-24 454,-24 454,-30 448,-36 442,-36"/>
<text text-anchor="middle" x="427" y="-13.32" font-family="Helvetica,sans-Serif" font-size="14.00">(...)</text>
</g>
<!-- 11172&#45;&gt;11173 -->
<g id="edge11" class="edge">
<title>11172&#45;&gt;11173</title>
<path fill="none" stroke="black" d="M454.67,-71.75C450.1,-63.03 445.45,-54.16 441.3,-46.26"/>
<polygon fill="black" stroke="black" points="444.46,-44.74 436.71,-37.51 438.26,-47.99 444.46,-44.74"/>
</g>
<!-- 13126 -->
<g id="node13" class="node">
<title>13126</title>
<path fill="#c0c0c0" stroke="black" d="M514,-36C514,-36 484,-36 484,-36 478,-36 472,-30 472,-24 472,-24 472,-12 472,-12 472,-6 478,0 484,0 484,0 514,0 514,0 520,0 526,-6 526,-12 526,-12 526,-24 526,-24 526,-30 520,-36 514,-36"/>
<text text-anchor="middle" x="499" y="-13.32" font-family="Helvetica,sans-Serif" font-size="14.00">(...)</text>
</g>
<!-- 11172&#45;&gt;13126 -->
<g id="edge12" class="edge">
<title>11172&#45;&gt;13126</title>
<path fill="none" stroke="black" d="M488.36,-71.75C490.04,-63.42 491.74,-54.97 493.28,-47.34"/>
<polygon fill="black" stroke="black" points="496.69,-48.15 495.24,-37.66 489.83,-46.77 496.69,-48.15"/>
</g>
<!-- 13844 -->
<g id="node15" class="node">
<title>13844</title>
<path fill="#c0c0c0" stroke="black" d="M624,-36C624,-36 594,-36 594,-36 588,-36 582,-30 582,-24 582,-24 582,-12 582,-12 582,-6 588,0 594,0 594,0 624,0 624,0 630,0 636,-6 636,-12 636,-12 636,-24 636,-24 636,-30 630,-36 624,-36"/>
<text text-anchor="middle" x="609" y="-13.32" font-family="Helvetica,sans-Serif" font-size="14.00">(...)</text>
</g>
<!-- 13843&#45;&gt;13844 -->
<g id="edge14" class="edge">
<title>13843&#45;&gt;13844</title>
<path fill="none" stroke="black" d="M637.74,-71.75C632.98,-63.03 628.16,-54.16 623.85,-46.26"/>
<polygon fill="black" stroke="black" points="626.94,-44.61 619.08,-37.5 620.79,-47.96 626.94,-44.61"/>
</g>
<!-- 14547 -->
<g id="node16" class="node">
<title>14547</title>
<path fill="#c0c0c0" stroke="black" d="M696,-36C696,-36 666,-36 666,-36 660,-36 654,-30 654,-24 654,-24 654,-12 654,-12 654,-6 660,0 666,0 666,0 696,0 696,0 702,0 708,-6 708,-12 708,-12 708,-24 708,-24 708,-30 702,-36 696,-36"/>
<text text-anchor="middle" x="681" y="-13.32" font-family="Helvetica,sans-Serif" font-size="14.00">(...)</text>
</g>
<!-- 13843&#45;&gt;14547 -->
<g id="edge15" class="edge">
<title>13843&#45;&gt;14547</title>
<path fill="none" stroke="black" d="M671.42,-71.75C672.93,-63.42 674.47,-54.97 675.85,-47.34"/>
<polygon fill="black" stroke="black" points="679.27,-48.13 677.61,-37.66 672.38,-46.88 679.27,-48.13"/>
</g>
<!-- 14729 -->
<g id="node18" class="node">
<title>14729</title>
<path fill="#eba06a" stroke="black" d="M999,-296.5C999,-296.5 857,-296.5 857,-296.5 851,-296.5 845,-290.5 845,-284.5 845,-284.5 845,-214.25 845,-214.25 845,-208.25 851,-202.25 857,-202.25 857,-202.25 999,-202.25 999,-202.25 1005,-202.25 1011,-208.25 1011,-214.25 1011,-214.25 1011,-284.5 1011,-284.5 1011,-290.5 1005,-296.5 999,-296.5"/>
<text text-anchor="middle" x="928" y="-279.2" font-family="Helvetica,sans-Serif" font-size="14.00">8_G &lt;= 0.5</text>
<text text-anchor="middle" x="928" y="-261.95" font-family="Helvetica,sans-Serif" font-size="14.00">entropy = 0.722</text>
<text text-anchor="middle" x="928" y="-244.7" font-family="Helvetica,sans-Serif" font-size="14.00">samples = 4433</text>
<text text-anchor="middle" x="928" y="-227.45" font-family="Helvetica,sans-Serif" font-size="14.00">value = [5626, 1406]</text>
<text text-anchor="middle" x="928" y="-210.2" font-family="Helvetica,sans-Serif" font-size="14.00">class = Animal</text>
</g>
<!-- 14728&#45;&gt;14729 -->
<g id="edge17" class="edge">
<title>14728&#45;&gt;14729</title>
<path fill="none" stroke="black" d="M928,-332.32C928,-324.42 928,-316.13 928,-307.98"/>
<polygon fill="black" stroke="black" points="931.5,-308.12 928,-298.12 924.5,-308.12 931.5,-308.12"/>
</g>
<!-- 16448 -->
<g id="node25" class="node">
<title>16448</title>
<path fill="#f8decc" stroke="black" d="M1251,-296.5C1251,-296.5 1127,-296.5 1127,-296.5 1121,-296.5 1115,-290.5 1115,-284.5 1115,-284.5 1115,-214.25 1115,-214.25 1115,-208.25 1121,-202.25 1127,-202.25 1127,-202.25 1251,-202.25 1251,-202.25 1257,-202.25 1263,-208.25 1263,-214.25 1263,-214.25 1263,-284.5 1263,-284.5 1263,-290.5 1257,-296.5 1251,-296.5"/>
<text text-anchor="middle" x="1189" y="-279.2" font-family="Helvetica,sans-Serif" font-size="14.00">21_C &lt;= 0.5</text>
<text text-anchor="middle" x="1189" y="-261.95" font-family="Helvetica,sans-Serif" font-size="14.00">entropy = 0.984</text>
<text text-anchor="middle" x="1189" y="-244.7" font-family="Helvetica,sans-Serif" font-size="14.00">samples = 480</text>
<text text-anchor="middle" x="1189" y="-227.45" font-family="Helvetica,sans-Serif" font-size="14.00">value = [431, 319]</text>
<text text-anchor="middle" x="1189" y="-210.2" font-family="Helvetica,sans-Serif" font-size="14.00">class = Animal</text>
</g>
<!-- 14728&#45;&gt;16448 -->
<g id="edge24" class="edge">
<title>14728&#45;&gt;16448</title>
<path fill="none" stroke="black" d="M1011.3,-337.69C1041.19,-323.01 1074.9,-306.44 1104.86,-291.72"/>
<polygon fill="black" stroke="black" points="1106.07,-295.02 1113.51,-287.47 1102.99,-288.74 1106.07,-295.02"/>
</g>
<!-- 14730 -->
<g id="node19" class="node">
<title>14730</title>
<path fill="#ea9b62" stroke="black" d="M909.5,-166.25C909.5,-166.25 776.5,-166.25 776.5,-166.25 770.5,-166.25 764.5,-160.25 764.5,-154.25 764.5,-154.25 764.5,-84 764.5,-84 764.5,-78 770.5,-72 776.5,-72 776.5,-72 909.5,-72 909.5,-72 915.5,-72 921.5,-78 921.5,-84 921.5,-84 921.5,-154.25 921.5,-154.25 921.5,-160.25 915.5,-166.25 909.5,-166.25"/>
<text text-anchor="middle" x="843" y="-148.95" font-family="Helvetica,sans-Serif" font-size="14.00">9_A &lt;= 0.5</text>
<text text-anchor="middle" x="843" y="-131.7" font-family="Helvetica,sans-Serif" font-size="14.00">entropy = 0.659</text>
<text text-anchor="middle" x="843" y="-114.45" font-family="Helvetica,sans-Serif" font-size="14.00">samples = 3299</text>
<text text-anchor="middle" x="843" y="-97.2" font-family="Helvetica,sans-Serif" font-size="14.00">value = [4332, 892]</text>
<text text-anchor="middle" x="843" y="-79.95" font-family="Helvetica,sans-Serif" font-size="14.00">class = Animal</text>
</g>
<!-- 14729&#45;&gt;14730 -->
<g id="edge18" class="edge">
<title>14729&#45;&gt;14730</title>
<path fill="none" stroke="black" d="M897.31,-202.07C891.66,-193.54 885.7,-184.54 879.88,-175.77"/>
<polygon fill="black" stroke="black" points="882.92,-174.02 874.48,-167.62 877.09,-177.89 882.92,-174.02"/>
</g>
<!-- 15969 -->
<g id="node22" class="node">
<title>15969</title>
<path fill="#efb388" stroke="black" d="M1084.5,-166.25C1084.5,-166.25 951.5,-166.25 951.5,-166.25 945.5,-166.25 939.5,-160.25 939.5,-154.25 939.5,-154.25 939.5,-84 939.5,-84 939.5,-78 945.5,-72 951.5,-72 951.5,-72 1084.5,-72 1084.5,-72 1090.5,-72 1096.5,-78 1096.5,-84 1096.5,-84 1096.5,-154.25 1096.5,-154.25 1096.5,-160.25 1090.5,-166.25 1084.5,-166.25"/>
<text text-anchor="middle" x="1018" y="-148.95" font-family="Helvetica,sans-Serif" font-size="14.00">26_C &lt;= 0.5</text>
<text text-anchor="middle" x="1018" y="-131.7" font-family="Helvetica,sans-Serif" font-size="14.00">entropy = 0.861</text>
<text text-anchor="middle" x="1018" y="-114.45" font-family="Helvetica,sans-Serif" font-size="14.00">samples = 1134</text>
<text text-anchor="middle" x="1018" y="-97.2" font-family="Helvetica,sans-Serif" font-size="14.00">value = [1294, 514]</text>
<text text-anchor="middle" x="1018" y="-79.95" font-family="Helvetica,sans-Serif" font-size="14.00">class = Animal</text>
</g>
<!-- 14729&#45;&gt;15969 -->
<g id="edge21" class="edge">
<title>14729&#45;&gt;15969</title>
<path fill="none" stroke="black" d="M960.49,-202.07C966.48,-193.54 972.79,-184.54 978.95,-175.77"/>
<polygon fill="black" stroke="black" points="981.81,-177.79 984.69,-167.6 976.08,-173.77 981.81,-177.79"/>
</g>
<!-- 14731 -->
<g id="node20" class="node">
<title>14731</title>
<path fill="#c0c0c0" stroke="black" d="M801,-36C801,-36 771,-36 771,-36 765,-36 759,-30 759,-24 759,-24 759,-12 759,-12 759,-6 765,0 771,0 771,0 801,0 801,0 807,0 813,-6 813,-12 813,-12 813,-24 813,-24 813,-30 807,-36 801,-36"/>
<text text-anchor="middle" x="786" y="-13.32" font-family="Helvetica,sans-Serif" font-size="14.00">(...)</text>
</g>
<!-- 14730&#45;&gt;14731 -->
<g id="edge19" class="edge">
<title>14730&#45;&gt;14731</title>
<path fill="none" stroke="black" d="M816.34,-71.75C811.26,-62.93 806.1,-53.96 801.52,-45.99"/>
<polygon fill="black" stroke="black" points="804.65,-44.41 796.63,-37.48 798.58,-47.9 804.65,-44.41"/>
</g>
<!-- 15702 -->
<g id="node21" class="node">
<title>15702</title>
<path fill="#c0c0c0" stroke="black" d="M873,-36C873,-36 843,-36 843,-36 837,-36 831,-30 831,-24 831,-24 831,-12 831,-12 831,-6 837,0 843,0 843,0 873,0 873,0 879,0 885,-6 885,-12 885,-12 885,-24 885,-24 885,-30 879,-36 873,-36"/>
<text text-anchor="middle" x="858" y="-13.32" font-family="Helvetica,sans-Serif" font-size="14.00">(...)</text>
</g>
<!-- 14730&#45;&gt;15702 -->
<g id="edge20" class="edge">
<title>14730&#45;&gt;15702</title>
<path fill="none" stroke="black" d="M850.02,-71.75C851.28,-63.42 852.56,-54.97 853.71,-47.34"/>
<polygon fill="black" stroke="black" points="857.14,-48.08 855.17,-37.67 850.22,-47.03 857.14,-48.08"/>
</g>
<!-- 15970 -->
<g id="node23" class="node">
<title>15970</title>
<path fill="#c0c0c0" stroke="black" d="M974,-36C974,-36 944,-36 944,-36 938,-36 932,-30 932,-24 932,-24 932,-12 932,-12 932,-6 938,0 944,0 944,0 974,0 974,0 980,0 986,-6 986,-12 986,-12 986,-24 986,-24 986,-30 980,-36 974,-36"/>
<text text-anchor="middle" x="959" y="-13.32" font-family="Helvetica,sans-Serif" font-size="14.00">(...)</text>
</g>
<!-- 15969&#45;&gt;15970 -->
<g id="edge22" class="edge">
<title>15969&#45;&gt;15970</title>
<path fill="none" stroke="black" d="M990.4,-71.75C985.15,-62.93 979.81,-53.96 975.06,-45.99"/>
<polygon fill="black" stroke="black" points="978.12,-44.28 970,-37.47 972.1,-47.86 978.12,-44.28"/>
</g>
<!-- 16447 -->
<g id="node24" class="node">
<title>16447</title>
<path fill="#c0c0c0" stroke="black" d="M1046,-36C1046,-36 1016,-36 1016,-36 1010,-36 1004,-30 1004,-24 1004,-24 1004,-12 1004,-12 1004,-6 1010,0 1016,0 1016,0 1046,0 1046,0 1052,0 1058,-6 1058,-12 1058,-12 1058,-24 1058,-24 1058,-30 1052,-36 1046,-36"/>
<text text-anchor="middle" x="1031" y="-13.32" font-family="Helvetica,sans-Serif" font-size="14.00">(...)</text>
</g>
<!-- 15969&#45;&gt;16447 -->
<g id="edge23" class="edge">
<title>15969&#45;&gt;16447</title>
<path fill="none" stroke="black" d="M1024.08,-71.75C1025.17,-63.42 1026.28,-54.97 1027.28,-47.34"/>
<polygon fill="black" stroke="black" points="1030.72,-48.04 1028.55,-37.67 1023.78,-47.13 1030.72,-48.04"/>
</g>
<!-- 16449 -->
<g id="node26" class="node">
<title>16449</title>
<path fill="#f2bf9b" stroke="black" d="M1251,-166.25C1251,-166.25 1127,-166.25 1127,-166.25 1121,-166.25 1115,-160.25 1115,-154.25 1115,-154.25 1115,-84 1115,-84 1115,-78 1121,-72 1127,-72 1127,-72 1251,-72 1251,-72 1257,-72 1263,-78 1263,-84 1263,-84 1263,-154.25 1263,-154.25 1263,-160.25 1257,-166.25 1251,-166.25"/>
<text text-anchor="middle" x="1189" y="-148.95" font-family="Helvetica,sans-Serif" font-size="14.00">24_U &lt;= 0.5</text>
<text text-anchor="middle" x="1189" y="-131.7" font-family="Helvetica,sans-Serif" font-size="14.00">entropy = 0.916</text>
<text text-anchor="middle" x="1189" y="-114.45" font-family="Helvetica,sans-Serif" font-size="14.00">samples = 324</text>
<text text-anchor="middle" x="1189" y="-97.2" font-family="Helvetica,sans-Serif" font-size="14.00">value = [342, 169]</text>
<text text-anchor="middle" x="1189" y="-79.95" font-family="Helvetica,sans-Serif" font-size="14.00">class = Animal</text>
</g>
<!-- 16448&#45;&gt;16449 -->
<g id="edge25" class="edge">
<title>16448&#45;&gt;16449</title>
<path fill="none" stroke="black" d="M1189,-202.07C1189,-194.17 1189,-185.88 1189,-177.73"/>
<polygon fill="black" stroke="black" points="1192.5,-177.87 1189,-167.87 1185.5,-177.87 1192.5,-177.87"/>
</g>
<!-- 16612 -->
<g id="node29" class="node">
<title>16612</title>
<path fill="#aed7f4" stroke="black" d="M1408.5,-166.25C1408.5,-166.25 1293.5,-166.25 1293.5,-166.25 1287.5,-166.25 1281.5,-160.25 1281.5,-154.25 1281.5,-154.25 1281.5,-84 1281.5,-84 1281.5,-78 1287.5,-72 1293.5,-72 1293.5,-72 1408.5,-72 1408.5,-72 1414.5,-72 1420.5,-78 1420.5,-84 1420.5,-84 1420.5,-154.25 1420.5,-154.25 1420.5,-160.25 1414.5,-166.25 1408.5,-166.25"/>
<text text-anchor="middle" x="1351" y="-148.95" font-family="Helvetica,sans-Serif" font-size="14.00">19_C &lt;= 0.5</text>
<text text-anchor="middle" x="1351" y="-131.7" font-family="Helvetica,sans-Serif" font-size="14.00">entropy = 0.952</text>
<text text-anchor="middle" x="1351" y="-114.45" font-family="Helvetica,sans-Serif" font-size="14.00">samples = 156</text>
<text text-anchor="middle" x="1351" y="-97.2" font-family="Helvetica,sans-Serif" font-size="14.00">value = [89, 150]</text>
<text text-anchor="middle" x="1351" y="-79.95" font-family="Helvetica,sans-Serif" font-size="14.00">class = Plant</text>
</g>
<!-- 16448&#45;&gt;16612 -->
<g id="edge28" class="edge">
<title>16448&#45;&gt;16612</title>
<path fill="none" stroke="black" d="M1247.49,-202.07C1259.11,-192.87 1271.41,-183.13 1283.32,-173.71"/>
<polygon fill="black" stroke="black" points="1285.47,-176.46 1291.14,-167.51 1281.13,-170.98 1285.47,-176.46"/>
</g>
<!-- 16450 -->
<g id="node27" class="node">
<title>16450</title>
<path fill="#c0c0c0" stroke="black" d="M1159,-36C1159,-36 1129,-36 1129,-36 1123,-36 1117,-30 1117,-24 1117,-24 1117,-12 1117,-12 1117,-6 1123,0 1129,0 1129,0 1159,0 1159,0 1165,0 1171,-6 1171,-12 1171,-12 1171,-24 1171,-24 1171,-30 1165,-36 1159,-36"/>
<text text-anchor="middle" x="1144" y="-13.32" font-family="Helvetica,sans-Serif" font-size="14.00">(...)</text>
</g>
<!-- 16449&#45;&gt;16450 -->
<g id="edge26" class="edge">
<title>16449&#45;&gt;16450</title>
<path fill="none" stroke="black" d="M1167.95,-71.75C1164.03,-63.12 1160.05,-54.36 1156.5,-46.53"/>
<polygon fill="black" stroke="black" points="1159.74,-45.21 1152.42,-37.55 1153.37,-48.1 1159.74,-45.21"/>
</g>
<!-- 16589 -->
<g id="node28" class="node">
<title>16589</title>
<path fill="#c0c0c0" stroke="black" d="M1231,-36C1231,-36 1201,-36 1201,-36 1195,-36 1189,-30 1189,-24 1189,-24 1189,-12 1189,-12 1189,-6 1195,0 1201,0 1201,0 1231,0 1231,0 1237,0 1243,-6 1243,-12 1243,-12 1243,-24 1243,-24 1243,-30 1237,-36 1231,-36"/>
<text text-anchor="middle" x="1216" y="-13.32" font-family="Helvetica,sans-Serif" font-size="14.00">(...)</text>
</g>
<!-- 16449&#45;&gt;16589 -->
<g id="edge27" class="edge">
<title>16449&#45;&gt;16589</title>
<path fill="none" stroke="black" d="M1201.63,-71.75C1203.93,-63.32 1206.26,-54.77 1208.35,-47.07"/>
<polygon fill="black" stroke="black" points="1211.67,-48.2 1210.92,-37.63 1204.92,-46.36 1211.67,-48.2"/>
</g>
<!-- 16613 -->
<g id="node30" class="node">
<title>16613</title>
<path fill="#c0c0c0" stroke="black" d="M1330,-36C1330,-36 1300,-36 1300,-36 1294,-36 1288,-30 1288,-24 1288,-24 1288,-12 1288,-12 1288,-6 1294,0 1300,0 1300,0 1330,0 1330,0 1336,0 1342,-6 1342,-12 1342,-12 1342,-24 1342,-24 1342,-30 1336,-36 1330,-36"/>
<text text-anchor="middle" x="1315" y="-13.32" font-family="Helvetica,sans-Serif" font-size="14.00">(...)</text>
</g>
<!-- 16612&#45;&gt;16613 -->
<g id="edge29" class="edge">
<title>16612&#45;&gt;16613</title>
<path fill="none" stroke="black" d="M1334.16,-71.75C1331.06,-63.22 1327.92,-54.57 1325.1,-46.8"/>
<polygon fill="black" stroke="black" points="1328.46,-45.8 1321.75,-37.6 1321.88,-48.19 1328.46,-45.8"/>
</g>
<!-- 16658 -->
<g id="node31" class="node">
<title>16658</title>
<path fill="#c0c0c0" stroke="black" d="M1402,-36C1402,-36 1372,-36 1372,-36 1366,-36 1360,-30 1360,-24 1360,-24 1360,-12 1360,-12 1360,-6 1366,0 1372,0 1372,0 1402,0 1402,0 1408,0 1414,-6 1414,-12 1414,-12 1414,-24 1414,-24 1414,-30 1408,-36 1402,-36"/>
<text text-anchor="middle" x="1387" y="-13.32" font-family="Helvetica,sans-Serif" font-size="14.00">(...)</text>
</g>
<!-- 16612&#45;&gt;16658 -->
<g id="edge30" class="edge">
<title>16612&#45;&gt;16658</title>
<path fill="none" stroke="black" d="M1367.84,-71.75C1370.94,-63.22 1374.08,-54.57 1376.9,-46.8"/>
<polygon fill="black" stroke="black" points="1380.12,-48.19 1380.25,-37.6 1373.54,-45.8 1380.12,-48.19"/>
</g>
</g>
</svg>
