<?xml version="1.0" encoding="UTF-8" standalone="no"?>
<!DOCTYPE svg PUBLIC "-//W3C//DTD SVG 1.1//EN"
 "http://www.w3.org/Graphics/SVG/1.1/DTD/svg11.dtd">
<!-- Generated by graphviz version 12.0.0 (20240803.0821)
 -->
<!-- Title: Tree Pages: 1 -->
<svg width="1384pt" height="565pt"
 viewBox="0.00 0.00 1384.38 565.00" xmlns="http://www.w3.org/2000/svg" xmlns:xlink="http://www.w3.org/1999/xlink">
<g id="graph0" class="graph" transform="scale(1 1) rotate(0) translate(4 561)">
<title>Tree</title>
<polygon fill="white" stroke="none" points="-4,4 -4,-561 1380.38,-561 1380.38,4 -4,4"/>
<!-- 0 -->
<g id="node1" class="node">
<title>0</title>
<path fill="#fffefd" stroke="black" d="M804,-557C804,-557 644,-557 644,-557 638,-557 632,-551 632,-545 632,-545 632,-474.75 632,-474.75 632,-468.75 638,-462.75 644,-462.75 644,-462.75 804,-462.75 804,-462.75 810,-462.75 816,-468.75 816,-474.75 816,-474.75 816,-545 816,-545 816,-551 810,-557 804,-557"/>
<text text-anchor="middle" x="724" y="-539.7" font-family="Helvetica,sans-Serif" font-size="14.00">19_U &lt;= 0.5</text>
<text text-anchor="middle" x="724" y="-522.45" font-family="Helvetica,sans-Serif" font-size="14.00">entropy = 1.0</text>
<text text-anchor="middle" x="724" y="-505.2" font-family="Helvetica,sans-Serif" font-size="14.00">samples = 38114</text>
<text text-anchor="middle" x="724" y="-487.95" font-family="Helvetica,sans-Serif" font-size="14.00">value = [30289, 30056]</text>
<text text-anchor="middle" x="724" y="-470.7" font-family="Helvetica,sans-Serif" font-size="14.00">class = Animal</text>
</g>
<!-- 1 -->
<g id="node2" class="node">
<title>1</title>
<path fill="#e1f0fb" stroke="black" d="M631,-426.75C631,-426.75 471,-426.75 471,-426.75 465,-426.75 459,-420.75 459,-414.75 459,-414.75 459,-344.5 459,-344.5 459,-338.5 465,-332.5 471,-332.5 471,-332.5 631,-332.5 631,-332.5 637,-332.5 643,-338.5 643,-344.5 643,-344.5 643,-414.75 643,-414.75 643,-420.75 637,-426.75 631,-426.75"/>
<text text-anchor="middle" x="551" y="-409.45" font-family="Helvetica,sans-Serif" font-size="14.00">18_C &lt;= 0.5</text>
<text text-anchor="middle" x="551" y="-392.2" font-family="Helvetica,sans-Serif" font-size="14.00">entropy = 0.995</text>
<text text-anchor="middle" x="551" y="-374.95" font-family="Helvetica,sans-Serif" font-size="14.00">samples = 29082</text>
<text text-anchor="middle" x="551" y="-357.7" font-family="Helvetica,sans-Serif" font-size="14.00">value = [21195, 24937]</text>
<text text-anchor="middle" x="551" y="-340.45" font-family="Helvetica,sans-Serif" font-size="14.00">class = Plant</text>
</g>
<!-- 0&#45;&gt;1 -->
<g id="edge1" class="edge">
<title>0&#45;&gt;1</title>
<path fill="none" stroke="black" d="M661.54,-462.57C649,-453.28 635.73,-443.44 622.9,-433.93"/>
<polygon fill="black" stroke="black" points="624.99,-431.12 614.87,-427.97 620.82,-436.74 624.99,-431.12"/>
<text text-anchor="middle" x="617.33" y="-447.13" font-family="Helvetica,sans-Serif" font-size="14.00">True</text>
</g>
<!-- 12360 -->
<g id="node17" class="node">
<title>12360</title>
<path fill="#f4c8a8" stroke="black" d="M980,-426.75C980,-426.75 838,-426.75 838,-426.75 832,-426.75 826,-420.75 826,-414.75 826,-414.75 826,-344.5 826,-344.5 826,-338.5 832,-332.5 838,-332.5 838,-332.5 980,-332.5 980,-332.5 986,-332.5 992,-338.5 992,-344.5 992,-344.5 992,-414.75 992,-414.75 992,-420.75 986,-426.75 980,-426.75"/>
<text text-anchor="middle" x="909" y="-409.45" font-family="Helvetica,sans-Serif" font-size="14.00">23_U &lt;= 0.5</text>
<text text-anchor="middle" x="909" y="-392.2" font-family="Helvetica,sans-Serif" font-size="14.00">entropy = 0.943</text>
<text text-anchor="middle" x="909" y="-374.95" font-family="Helvetica,sans-Serif" font-size="14.00">samples = 9032</text>
<text text-anchor="middle" x="909" y="-357.7" font-family="Helvetica,sans-Serif" font-size="14.00">value = [9094, 5119]</text>
<text text-anchor="middle" x="909" y="-340.45" font-family="Helvetica,sans-Serif" font-size="14.00">class = Animal</text>
</g>
<!-- 0&#45;&gt;12360 -->
<g id="edge16" class="edge">
<title>0&#45;&gt;12360</title>
<path fill="none" stroke="black" d="M791.05,-462.39C804.49,-453.07 818.71,-443.22 832.45,-433.69"/>
<polygon fill="black" stroke="black" points="834.4,-436.6 840.62,-428.03 830.41,-430.85 834.4,-436.6"/>
<text text-anchor="middle" x="837.41" y="-447.09" font-family="Helvetica,sans-Serif" font-size="14.00">False</text>
</g>
<!-- 2 -->
<g id="node3" class="node">
<title>2</title>
<path fill="#fffdfc" stroke="black" d="M361,-296.5C361,-296.5 201,-296.5 201,-296.5 195,-296.5 189,-290.5 189,-284.5 189,-284.5 189,-214.25 189,-214.25 189,-208.25 195,-202.25 201,-202.25 201,-202.25 361,-202.25 361,-202.25 367,-202.25 373,-208.25 373,-214.25 373,-214.25 373,-284.5 373,-284.5 373,-290.5 367,-296.5 361,-296.5"/>
<text text-anchor="middle" x="281" y="-279.2" font-family="Helvetica,sans-Serif" font-size="14.00">22_U &lt;= 0.5</text>
<text text-anchor="middle" x="281" y="-261.95" font-family="Helvetica,sans-Serif" font-size="14.00">entropy = 1.0</text>
<text text-anchor="middle" x="281" y="-244.7" font-family="Helvetica,sans-Serif" font-size="14.00">samples = 21338</text>
<text text-anchor="middle" x="281" y="-227.45" font-family="Helvetica,sans-Serif" font-size="14.00">value = [17129, 16882]</text>
<text text-anchor="middle" x="281" y="-210.2" font-family="Helvetica,sans-Serif" font-size="14.00">class = Animal</text>
</g>
<!-- 1&#45;&gt;2 -->
<g id="edge2" class="edge">
<title>1&#45;&gt;2</title>
<path fill="none" stroke="black" d="M458.84,-334.85C434.53,-323.3 408.17,-310.78 383.36,-299"/>
<polygon fill="black" stroke="black" points="385.11,-295.95 374.57,-294.82 382.1,-302.27 385.11,-295.95"/>
</g>
<!-- 9629 -->
<g id="node10" class="node">
<title>9629</title>
<path fill="#9dcef2" stroke="black" d="M622,-296.5C622,-296.5 480,-296.5 480,-296.5 474,-296.5 468,-290.5 468,-284.5 468,-284.5 468,-214.25 468,-214.25 468,-208.25 474,-202.25 480,-202.25 480,-202.25 622,-202.25 622,-202.25 628,-202.25 634,-208.25 634,-214.25 634,-214.25 634,-284.5 634,-284.5 634,-290.5 628,-296.5 622,-296.5"/>
<text text-anchor="middle" x="551" y="-279.2" font-family="Helvetica,sans-Serif" font-size="14.00">3_G &lt;= 0.5</text>
<text text-anchor="middle" x="551" y="-261.95" font-family="Helvetica,sans-Serif" font-size="14.00">entropy = 0.92</text>
<text text-anchor="middle" x="551" y="-244.7" font-family="Helvetica,sans-Serif" font-size="14.00">samples = 7744</text>
<text text-anchor="middle" x="551" y="-227.45" font-family="Helvetica,sans-Serif" font-size="14.00">value = [4066, 8055]</text>
<text text-anchor="middle" x="551" y="-210.2" font-family="Helvetica,sans-Serif" font-size="14.00">class = Plant</text>
</g>
<!-- 1&#45;&gt;9629 -->
<g id="edge9" class="edge">
<title>1&#45;&gt;9629</title>
<path fill="none" stroke="black" d="M551,-332.32C551,-324.42 551,-316.13 551,-307.98"/>
<polygon fill="black" stroke="black" points="554.5,-308.12 551,-298.12 547.5,-308.12 554.5,-308.12"/>
</g>
<!-- 3 -->
<g id="node4" class="node">
<title>3</title>
<path fill="#deeefb" stroke="black" d="M172,-166.25C172,-166.25 12,-166.25 12,-166.25 6,-166.25 0,-160.25 0,-154.25 0,-154.25 0,-84 0,-84 0,-78 6,-72 12,-72 12,-72 172,-72 172,-72 178,-72 184,-78 184,-84 184,-84 184,-154.25 184,-154.25 184,-160.25 178,-166.25 172,-166.25"/>
<text text-anchor="middle" x="92" y="-148.95" font-family="Helvetica,sans-Serif" font-size="14.00">23_U &lt;= 0.5</text>
<text text-anchor="middle" x="92" y="-131.7" font-family="Helvetica,sans-Serif" font-size="14.00">entropy = 0.994</text>
<text text-anchor="middle" x="92" y="-114.45" font-family="Helvetica,sans-Serif" font-size="14.00">samples = 18441</text>
<text text-anchor="middle" x="92" y="-97.2" font-family="Helvetica,sans-Serif" font-size="14.00">value = [13349, 16056]</text>
<text text-anchor="middle" x="92" y="-79.95" font-family="Helvetica,sans-Serif" font-size="14.00">class = Plant</text>
</g>
<!-- 2&#45;&gt;3 -->
<g id="edge3" class="edge">
<title>2&#45;&gt;3</title>
<path fill="none" stroke="black" d="M212.5,-201.89C198.63,-192.48 183.96,-182.53 169.8,-172.92"/>
<polygon fill="black" stroke="black" points="172.08,-170.23 161.84,-167.51 168.15,-176.03 172.08,-170.23"/>
</g>
<!-- 8448 -->
<g id="node7" class="node">
<title>8448</title>
<path fill="#eb9d64" stroke="black" d="M347.5,-166.25C347.5,-166.25 214.5,-166.25 214.5,-166.25 208.5,-166.25 202.5,-160.25 202.5,-154.25 202.5,-154.25 202.5,-84 202.5,-84 202.5,-78 208.5,-72 214.5,-72 214.5,-72 347.5,-72 347.5,-72 353.5,-72 359.5,-78 359.5,-84 359.5,-84 359.5,-154.25 359.5,-154.25 359.5,-160.25 353.5,-166.25 347.5,-166.25"/>
<text text-anchor="middle" x="281" y="-148.95" font-family="Helvetica,sans-Serif" font-size="14.00">7_G &lt;= 0.5</text>
<text text-anchor="middle" x="281" y="-131.7" font-family="Helvetica,sans-Serif" font-size="14.00">entropy = 0.679</text>
<text text-anchor="middle" x="281" y="-114.45" font-family="Helvetica,sans-Serif" font-size="14.00">samples = 2897</text>
<text text-anchor="middle" x="281" y="-97.2" font-family="Helvetica,sans-Serif" font-size="14.00">value = [3780, 826]</text>
<text text-anchor="middle" x="281" y="-79.95" font-family="Helvetica,sans-Serif" font-size="14.00">class = Animal</text>
</g>
<!-- 2&#45;&gt;8448 -->
<g id="edge6" class="edge">
<title>2&#45;&gt;8448</title>
<path fill="none" stroke="black" d="M281,-202.07C281,-194.17 281,-185.88 281,-177.73"/>
<polygon fill="black" stroke="black" points="284.5,-177.87 281,-167.87 277.5,-177.87 284.5,-177.87"/>
</g>
<!-- 4 -->
<g id="node5" class="node">
<title>4</title>
<path fill="#c0c0c0" stroke="black" d="M71,-36C71,-36 41,-36 41,-36 35,-36 29,-30 29,-24 29,-24 29,-12 29,-12 29,-6 35,0 41,0 41,0 71,0 71,0 77,0 83,-6 83,-12 83,-12 83,-24 83,-24 83,-30 77,-36 71,-36"/>
<text text-anchor="middle" x="56" y="-13.32" font-family="Helvetica,sans-Serif" font-size="14.00">(...)</text>
</g>
<!-- 3&#45;&gt;4 -->
<g id="edge4" class="edge">
<title>3&#45;&gt;4</title>
<path fill="none" stroke="black" d="M75.16,-71.75C72.06,-63.22 68.92,-54.57 66.1,-46.8"/>
<polygon fill="black" stroke="black" points="69.46,-45.8 62.75,-37.6 62.88,-48.19 69.46,-45.8"/>
</g>
<!-- 8101 -->
<g id="node6" class="node">
<title>8101</title>
<path fill="#c0c0c0" stroke="black" d="M143,-36C143,-36 113,-36 113,-36 107,-36 101,-30 101,-24 101,-24 101,-12 101,-12 101,-6 107,0 113,0 113,0 143,0 143,0 149,0 155,-6 155,-12 155,-12 155,-24 155,-24 155,-30 149,-36 143,-36"/>
<text text-anchor="middle" x="128" y="-13.32" font-family="Helvetica,sans-Serif" font-size="14.00">(...)</text>
</g>
<!-- 3&#45;&gt;8101 -->
<g id="edge5" class="edge">
<title>3&#45;&gt;8101</title>
<path fill="none" stroke="black" d="M108.84,-71.75C111.94,-63.22 115.08,-54.57 117.9,-46.8"/>
<polygon fill="black" stroke="black" points="121.12,-48.19 121.25,-37.6 114.54,-45.8 121.12,-48.19"/>
</g>
<!-- 8449 -->
<g id="node8" class="node">
<title>8449</title>
<path fill="#c0c0c0" stroke="black" d="M260,-36C260,-36 230,-36 230,-36 224,-36 218,-30 218,-24 218,-24 218,-12 218,-12 218,-6 224,0 230,0 230,0 260,0 260,0 266,0 272,-6 272,-12 272,-12 272,-24 272,-24 272,-30 266,-36 260,-36"/>
<text text-anchor="middle" x="245" y="-13.32" font-family="Helvetica,sans-Serif" font-size="14.00">(...)</text>
</g>
<!-- 8448&#45;&gt;8449 -->
<g id="edge7" class="edge">
<title>8448&#45;&gt;8449</title>
<path fill="none" stroke="black" d="M264.16,-71.75C261.06,-63.22 257.92,-54.57 255.1,-46.8"/>
<polygon fill="black" stroke="black" points="258.46,-45.8 251.75,-37.6 251.88,-48.19 258.46,-45.8"/>
</g>
<!-- 9306 -->
<g id="node9" class="node">
<title>9306</title>
<path fill="#c0c0c0" stroke="black" d="M332,-36C332,-36 302,-36 302,-36 296,-36 290,-30 290,-24 290,-24 290,-12 290,-12 290,-6 296,0 302,0 302,0 332,0 332,0 338,0 344,-6 344,-12 344,-12 344,-24 344,-24 344,-30 338,-36 332,-36"/>
<text text-anchor="middle" x="317" y="-13.32" font-family="Helvetica,sans-Serif" font-size="14.00">(...)</text>
</g>
<!-- 8448&#45;&gt;9306 -->
<g id="edge8" class="edge">
<title>8448&#45;&gt;9306</title>
<path fill="none" stroke="black" d="M297.84,-71.75C300.94,-63.22 304.08,-54.57 306.9,-46.8"/>
<polygon fill="black" stroke="black" points="310.12,-48.19 310.25,-37.6 303.54,-45.8 310.12,-48.19"/>
</g>
<!-- 9630 -->
<g id="node11" class="node">
<title>9630</title>
<path fill="#ddeefb" stroke="black" d="M532,-166.25C532,-166.25 390,-166.25 390,-166.25 384,-166.25 378,-160.25 378,-154.25 378,-154.25 378,-84 378,-84 378,-78 384,-72 390,-72 390,-72 532,-72 532,-72 538,-72 544,-78 544,-84 544,-84 544,-154.25 544,-154.25 544,-160.25 538,-166.25 532,-166.25"/>
<text text-anchor="middle" x="461" y="-148.95" font-family="Helvetica,sans-Serif" font-size="14.00">10_U &lt;= 0.5</text>
<text text-anchor="middle" x="461" y="-131.7" font-family="Helvetica,sans-Serif" font-size="14.00">entropy = 0.994</text>
<text text-anchor="middle" x="461" y="-114.45" font-family="Helvetica,sans-Serif" font-size="14.00">samples = 4430</text>
<text text-anchor="middle" x="461" y="-97.2" font-family="Helvetica,sans-Serif" font-size="14.00">value = [3136, 3792]</text>
<text text-anchor="middle" x="461" y="-79.95" font-family="Helvetica,sans-Serif" font-size="14.00">class = Plant</text>
</g>
<!-- 9629&#45;&gt;9630 -->
<g id="edge10" class="edge">
<title>9629&#45;&gt;9630</title>
<path fill="none" stroke="black" d="M518.51,-202.07C512.52,-193.54 506.21,-184.54 500.05,-175.77"/>
<polygon fill="black" stroke="black" points="502.92,-173.77 494.31,-167.6 497.19,-177.79 502.92,-173.77"/>
</g>
<!-- 11515 -->
<g id="node14" class="node">
<title>11515</title>
<path fill="#64b2eb" stroke="black" d="M707.5,-166.25C707.5,-166.25 574.5,-166.25 574.5,-166.25 568.5,-166.25 562.5,-160.25 562.5,-154.25 562.5,-154.25 562.5,-84 562.5,-84 562.5,-78 568.5,-72 574.5,-72 574.5,-72 707.5,-72 707.5,-72 713.5,-72 719.5,-78 719.5,-84 719.5,-84 719.5,-154.25 719.5,-154.25 719.5,-160.25 713.5,-166.25 707.5,-166.25"/>
<text text-anchor="middle" x="641" y="-148.95" font-family="Helvetica,sans-Serif" font-size="14.00">8_U &lt;= 0.5</text>
<text text-anchor="middle" x="641" y="-131.7" font-family="Helvetica,sans-Serif" font-size="14.00">entropy = 0.678</text>
<text text-anchor="middle" x="641" y="-114.45" font-family="Helvetica,sans-Serif" font-size="14.00">samples = 3314</text>
<text text-anchor="middle" x="641" y="-97.2" font-family="Helvetica,sans-Serif" font-size="14.00">value = [930, 4263]</text>
<text text-anchor="middle" x="641" y="-79.95" font-family="Helvetica,sans-Serif" font-size="14.00">class = Plant</text>
</g>
<!-- 9629&#45;&gt;11515 -->
<g id="edge13" class="edge">
<title>9629&#45;&gt;11515</title>
<path fill="none" stroke="black" d="M583.49,-202.07C589.48,-193.54 595.79,-184.54 601.95,-175.77"/>
<polygon fill="black" stroke="black" points="604.81,-177.79 607.69,-167.6 599.08,-173.77 604.81,-177.79"/>
</g>
<!-- 9631 -->
<g id="node12" class="node">
<title>9631</title>
<path fill="#c0c0c0" stroke="black" d="M422,-36C422,-36 392,-36 392,-36 386,-36 380,-30 380,-24 380,-24 380,-12 380,-12 380,-6 386,0 392,0 392,0 422,0 422,0 428,0 434,-6 434,-12 434,-12 434,-24 434,-24 434,-30 428,-36 422,-36"/>
<text text-anchor="middle" x="407" y="-13.32" font-family="Helvetica,sans-Serif" font-size="14.00">(...)</text>
</g>
<!-- 9630&#45;&gt;9631 -->
<g id="edge11" class="edge">
<title>9630&#45;&gt;9631</title>
<path fill="none" stroke="black" d="M435.74,-71.75C430.98,-63.03 426.16,-54.16 421.85,-46.26"/>
<polygon fill="black" stroke="black" points="424.94,-44.61 417.08,-37.5 418.79,-47.96 424.94,-44.61"/>
</g>
<!-- 10996 -->
<g id="node13" class="node">
<title>10996</title>
<path fill="#c0c0c0" stroke="black" d="M494,-36C494,-36 464,-36 464,-36 458,-36 452,-30 452,-24 452,-24 452,-12 452,-12 452,-6 458,0 464,0 464,0 494,0 494,0 500,0 506,-6 506,-12 506,-12 506,-24 506,-24 506,-30 500,-36 494,-36"/>
<text text-anchor="middle" x="479" y="-13.32" font-family="Helvetica,sans-Serif" font-size="14.00">(...)</text>
</g>
<!-- 9630&#45;&gt;10996 -->
<g id="edge12" class="edge">
<title>9630&#45;&gt;10996</title>
<path fill="none" stroke="black" d="M469.42,-71.75C470.93,-63.42 472.47,-54.97 473.85,-47.34"/>
<polygon fill="black" stroke="black" points="477.27,-48.13 475.61,-37.66 470.38,-46.88 477.27,-48.13"/>
</g>
<!-- 11516 -->
<g id="node15" class="node">
<title>11516</title>
<path fill="#c0c0c0" stroke="black" d="M602,-36C602,-36 572,-36 572,-36 566,-36 560,-30 560,-24 560,-24 560,-12 560,-12 560,-6 566,0 572,0 572,0 602,0 602,0 608,0 614,-6 614,-12 614,-12 614,-24 614,-24 614,-30 608,-36 602,-36"/>
<text text-anchor="middle" x="587" y="-13.32" font-family="Helvetica,sans-Serif" font-size="14.00">(...)</text>
</g>
<!-- 11515&#45;&gt;11516 -->
<g id="edge14" class="edge">
<title>11515&#45;&gt;11516</title>
<path fill="none" stroke="black" d="M615.74,-71.75C610.98,-63.03 606.16,-54.16 601.85,-46.26"/>
<polygon fill="black" stroke="black" points="604.94,-44.61 597.08,-37.5 598.79,-47.96 604.94,-44.61"/>
</g>
<!-- 12139 -->
<g id="node16" class="node">
<title>12139</title>
<path fill="#c0c0c0" stroke="black" d="M674,-36C674,-36 644,-36 644,-36 638,-36 632,-30 632,-24 632,-24 632,-12 632,-12 632,-6 638,0 644,0 644,0 674,0 674,0 680,0 686,-6 686,-12 686,-12 686,-24 686,-24 686,-30 680,-36 674,-36"/>
<text text-anchor="middle" x="659" y="-13.32" font-family="Helvetica,sans-Serif" font-size="14.00">(...)</text>
</g>
<!-- 11515&#45;&gt;12139 -->
<g id="edge15" class="edge">
<title>11515&#45;&gt;12139</title>
<path fill="none" stroke="black" d="M649.42,-71.75C650.93,-63.42 652.47,-54.97 653.85,-47.34"/>
<polygon fill="black" stroke="black" points="657.27,-48.13 655.61,-37.66 650.38,-46.88 657.27,-48.13"/>
</g>
<!-- 12361 -->
<g id="node18" class="node">
<title>12361</title>
<path fill="#f5cdb1" stroke="black" d="M980,-296.5C980,-296.5 838,-296.5 838,-296.5 832,-296.5 826,-290.5 826,-284.5 826,-284.5 826,-214.25 826,-214.25 826,-208.25 832,-202.25 838,-202.25 838,-202.25 980,-202.25 980,-202.25 986,-202.25 992,-208.25 992,-214.25 992,-214.25 992,-284.5 992,-284.5 992,-290.5 986,-296.5 980,-296.5"/>
<text text-anchor="middle" x="909" y="-279.2" font-family="Helvetica,sans-Serif" font-size="14.00">22_U &lt;= 0.5</text>
<text text-anchor="middle" x="909" y="-261.95" font-family="Helvetica,sans-Serif" font-size="14.00">entropy = 0.956</text>
<text text-anchor="middle" x="909" y="-244.7" font-family="Helvetica,sans-Serif" font-size="14.00">samples = 8423</text>
<text text-anchor="middle" x="909" y="-227.45" font-family="Helvetica,sans-Serif" font-size="14.00">value = [8271, 5006]</text>
<text text-anchor="middle" x="909" y="-210.2" font-family="Helvetica,sans-Serif" font-size="14.00">class = Animal</text>
</g>
<!-- 12360&#45;&gt;12361 -->
<g id="edge17" class="edge">
<title>12360&#45;&gt;12361</title>
<path fill="none" stroke="black" d="M909,-332.32C909,-324.42 909,-316.13 909,-307.98"/>
<polygon fill="black" stroke="black" points="912.5,-308.12 909,-298.12 905.5,-308.12 912.5,-308.12"/>
</g>
<!-- 16534 -->
<g id="node25" class="node">
<title>16534</title>
<path fill="#e99254" stroke="black" d="M1234,-296.5C1234,-296.5 1110,-296.5 1110,-296.5 1104,-296.5 1098,-290.5 1098,-284.5 1098,-284.5 1098,-214.25 1098,-214.25 1098,-208.25 1104,-202.25 1110,-202.25 1110,-202.25 1234,-202.25 1234,-202.25 1240,-202.25 1246,-208.25 1246,-214.25 1246,-214.25 1246,-284.5 1246,-284.5 1246,-290.5 1240,-296.5 1234,-296.5"/>
<text text-anchor="middle" x="1172" y="-279.2" font-family="Helvetica,sans-Serif" font-size="14.00">27_A &lt;= 0.5</text>
<text text-anchor="middle" x="1172" y="-261.95" font-family="Helvetica,sans-Serif" font-size="14.00">entropy = 0.531</text>
<text text-anchor="middle" x="1172" y="-244.7" font-family="Helvetica,sans-Serif" font-size="14.00">samples = 609</text>
<text text-anchor="middle" x="1172" y="-227.45" font-family="Helvetica,sans-Serif" font-size="14.00">value = [823, 113]</text>
<text text-anchor="middle" x="1172" y="-210.2" font-family="Helvetica,sans-Serif" font-size="14.00">class = Animal</text>
</g>
<!-- 12360&#45;&gt;16534 -->
<g id="edge24" class="edge">
<title>12360&#45;&gt;16534</title>
<path fill="none" stroke="black" d="M992.21,-338.05C1022.64,-323.21 1057.06,-306.42 1087.59,-291.54"/>
<polygon fill="black" stroke="black" points="1088.96,-294.76 1096.42,-287.23 1085.89,-288.47 1088.96,-294.76"/>
</g>
<!-- 12362 -->
<g id="node19" class="node">
<title>12362</title>
<path fill="#f8dcc7" stroke="black" d="M892,-166.25C892,-166.25 750,-166.25 750,-166.25 744,-166.25 738,-160.25 738,-154.25 738,-154.25 738,-84 738,-84 738,-78 744,-72 750,-72 750,-72 892,-72 892,-72 898,-72 904,-78 904,-84 904,-84 904,-154.25 904,-154.25 904,-160.25 898,-166.25 892,-166.25"/>
<text text-anchor="middle" x="821" y="-148.95" font-family="Helvetica,sans-Serif" font-size="14.00">18_U &lt;= 0.5</text>
<text text-anchor="middle" x="821" y="-131.7" font-family="Helvetica,sans-Serif" font-size="14.00">entropy = 0.981</text>
<text text-anchor="middle" x="821" y="-114.45" font-family="Helvetica,sans-Serif" font-size="14.00">samples = 7181</text>
<text text-anchor="middle" x="821" y="-97.2" font-family="Helvetica,sans-Serif" font-size="14.00">value = [6604, 4744]</text>
<text text-anchor="middle" x="821" y="-79.95" font-family="Helvetica,sans-Serif" font-size="14.00">class = Animal</text>
</g>
<!-- 12361&#45;&gt;12362 -->
<g id="edge18" class="edge">
<title>12361&#45;&gt;12362</title>
<path fill="none" stroke="black" d="M877.23,-202.07C871.37,-193.54 865.2,-184.54 859.18,-175.77"/>
<polygon fill="black" stroke="black" points="862.12,-173.87 853.58,-167.61 856.35,-177.83 862.12,-173.87"/>
</g>
<!-- 16093 -->
<g id="node22" class="node">
<title>16093</title>
<path fill="#e99558" stroke="black" d="M1067.5,-166.25C1067.5,-166.25 934.5,-166.25 934.5,-166.25 928.5,-166.25 922.5,-160.25 922.5,-154.25 922.5,-154.25 922.5,-84 922.5,-84 922.5,-78 928.5,-72 934.5,-72 934.5,-72 1067.5,-72 1067.5,-72 1073.5,-72 1079.5,-78 1079.5,-84 1079.5,-84 1079.5,-154.25 1079.5,-154.25 1079.5,-160.25 1073.5,-166.25 1067.5,-166.25"/>
<text text-anchor="middle" x="1001" y="-148.95" font-family="Helvetica,sans-Serif" font-size="14.00">18_G &lt;= 0.5</text>
<text text-anchor="middle" x="1001" y="-131.7" font-family="Helvetica,sans-Serif" font-size="14.00">entropy = 0.573</text>
<text text-anchor="middle" x="1001" y="-114.45" font-family="Helvetica,sans-Serif" font-size="14.00">samples = 1242</text>
<text text-anchor="middle" x="1001" y="-97.2" font-family="Helvetica,sans-Serif" font-size="14.00">value = [1667, 262]</text>
<text text-anchor="middle" x="1001" y="-79.95" font-family="Helvetica,sans-Serif" font-size="14.00">class = Animal</text>
</g>
<!-- 12361&#45;&gt;16093 -->
<g id="edge21" class="edge">
<title>12361&#45;&gt;16093</title>
<path fill="none" stroke="black" d="M942.21,-202.07C948.4,-193.45 954.93,-184.35 961.29,-175.49"/>
<polygon fill="black" stroke="black" points="963.97,-177.75 966.95,-167.59 958.28,-173.67 963.97,-177.75"/>
</g>
<!-- 12363 -->
<g id="node20" class="node">
<title>12363</title>
<path fill="#c0c0c0" stroke="black" d="M782,-36C782,-36 752,-36 752,-36 746,-36 740,-30 740,-24 740,-24 740,-12 740,-12 740,-6 746,0 752,0 752,0 782,0 782,0 788,0 794,-6 794,-12 794,-12 794,-24 794,-24 794,-30 788,-36 782,-36"/>
<text text-anchor="middle" x="767" y="-13.32" font-family="Helvetica,sans-Serif" font-size="14.00">(...)</text>
</g>
<!-- 12362&#45;&gt;12363 -->
<g id="edge19" class="edge">
<title>12362&#45;&gt;12363</title>
<path fill="none" stroke="black" d="M795.74,-71.75C790.98,-63.03 786.16,-54.16 781.85,-46.26"/>
<polygon fill="black" stroke="black" points="784.94,-44.61 777.08,-37.5 778.79,-47.96 784.94,-44.61"/>
</g>
<!-- 15038 -->
<g id="node21" class="node">
<title>15038</title>
<path fill="#c0c0c0" stroke="black" d="M854,-36C854,-36 824,-36 824,-36 818,-36 812,-30 812,-24 812,-24 812,-12 812,-12 812,-6 818,0 824,0 824,0 854,0 854,0 860,0 866,-6 866,-12 866,-12 866,-24 866,-24 866,-30 860,-36 854,-36"/>
<text text-anchor="middle" x="839" y="-13.32" font-family="Helvetica,sans-Serif" font-size="14.00">(...)</text>
</g>
<!-- 12362&#45;&gt;15038 -->
<g id="edge20" class="edge">
<title>12362&#45;&gt;15038</title>
<path fill="none" stroke="black" d="M829.42,-71.75C830.93,-63.42 832.47,-54.97 833.85,-47.34"/>
<polygon fill="black" stroke="black" points="837.27,-48.13 835.61,-37.66 830.38,-46.88 837.27,-48.13"/>
</g>
<!-- 16094 -->
<g id="node23" class="node">
<title>16094</title>
<path fill="#c0c0c0" stroke="black" d="M975,-36C975,-36 945,-36 945,-36 939,-36 933,-30 933,-24 933,-24 933,-12 933,-12 933,-6 939,0 945,0 945,0 975,0 975,0 981,0 987,-6 987,-12 987,-12 987,-24 987,-24 987,-30 981,-36 975,-36"/>
<text text-anchor="middle" x="960" y="-13.32" font-family="Helvetica,sans-Serif" font-size="14.00">(...)</text>
</g>
<!-- 16093&#45;&gt;16094 -->
<g id="edge22" class="edge">
<title>16093&#45;&gt;16094</title>
<path fill="none" stroke="black" d="M981.82,-71.75C978.29,-63.22 974.71,-54.57 971.5,-46.8"/>
<polygon fill="black" stroke="black" points="974.74,-45.47 967.68,-37.57 968.27,-48.15 974.74,-45.47"/>
</g>
<!-- 16417 -->
<g id="node24" class="node">
<title>16417</title>
<path fill="#c0c0c0" stroke="black" d="M1047,-36C1047,-36 1017,-36 1017,-36 1011,-36 1005,-30 1005,-24 1005,-24 1005,-12 1005,-12 1005,-6 1011,0 1017,0 1017,0 1047,0 1047,0 1053,0 1059,-6 1059,-12 1059,-12 1059,-24 1059,-24 1059,-30 1053,-36 1047,-36"/>
<text text-anchor="middle" x="1032" y="-13.32" font-family="Helvetica,sans-Serif" font-size="14.00">(...)</text>
</g>
<!-- 16093&#45;&gt;16417 -->
<g id="edge23" class="edge">
<title>16093&#45;&gt;16417</title>
<path fill="none" stroke="black" d="M1015.5,-71.75C1018.14,-63.32 1020.81,-54.77 1023.22,-47.07"/>
<polygon fill="black" stroke="black" points="1026.53,-48.21 1026.18,-37.62 1019.85,-46.12 1026.53,-48.21"/>
</g>
<!-- 16535 -->
<g id="node26" class="node">
<title>16535</title>
<path fill="#e99254" stroke="black" d="M1234,-166.25C1234,-166.25 1110,-166.25 1110,-166.25 1104,-166.25 1098,-160.25 1098,-154.25 1098,-154.25 1098,-84 1098,-84 1098,-78 1104,-72 1110,-72 1110,-72 1234,-72 1234,-72 1240,-72 1246,-78 1246,-84 1246,-84 1246,-154.25 1246,-154.25 1246,-160.25 1240,-166.25 1234,-166.25"/>
<text text-anchor="middle" x="1172" y="-148.95" font-family="Helvetica,sans-Serif" font-size="14.00">17_C &lt;= 0.5</text>
<text text-anchor="middle" x="1172" y="-131.7" font-family="Helvetica,sans-Serif" font-size="14.00">entropy = 0.526</text>
<text text-anchor="middle" x="1172" y="-114.45" font-family="Helvetica,sans-Serif" font-size="14.00">samples = 607</text>
<text text-anchor="middle" x="1172" y="-97.2" font-family="Helvetica,sans-Serif" font-size="14.00">value = [823, 111]</text>
<text text-anchor="middle" x="1172" y="-79.95" font-family="Helvetica,sans-Serif" font-size="14.00">class = Animal</text>
</g>
<!-- 16534&#45;&gt;16535 -->
<g id="edge25" class="edge">
<title>16534&#45;&gt;16535</title>
<path fill="none" stroke="black" d="M1172,-202.07C1172,-194.17 1172,-185.88 1172,-177.73"/>
<polygon fill="black" stroke="black" points="1175.5,-177.87 1172,-167.87 1168.5,-177.87 1175.5,-177.87"/>
</g>
<!-- 16724 -->
<g id="node29" class="node">
<title>16724</title>
<path fill="#399de5" stroke="black" d="M1364.38,-157.62C1364.38,-157.62 1275.62,-157.62 1275.62,-157.62 1269.62,-157.62 1263.62,-151.62 1263.62,-145.62 1263.62,-145.62 1263.62,-92.62 1263.62,-92.62 1263.62,-86.62 1269.62,-80.62 1275.62,-80.62 1275.62,-80.62 1364.38,-80.62 1364.38,-80.62 1370.38,-80.62 1376.38,-86.62 1376.38,-92.62 1376.38,-92.62 1376.38,-145.62 1376.38,-145.62 1376.38,-151.62 1370.38,-157.62 1364.38,-157.62"/>
<text text-anchor="middle" x="1320" y="-140.32" font-family="Helvetica,sans-Serif" font-size="14.00">entropy = 0.0</text>
<text text-anchor="middle" x="1320" y="-123.08" font-family="Helvetica,sans-Serif" font-size="14.00">samples = 2</text>
<text text-anchor="middle" x="1320" y="-105.83" font-family="Helvetica,sans-Serif" font-size="14.00">value = [0, 2]</text>
<text text-anchor="middle" x="1320" y="-88.58" font-family="Helvetica,sans-Serif" font-size="14.00">class = Plant</text>
</g>
<!-- 16534&#45;&gt;16724 -->
<g id="edge28" class="edge">
<title>16534&#45;&gt;16724</title>
<path fill="none" stroke="black" d="M1225.43,-202.07C1239.28,-190.07 1254.18,-177.16 1267.96,-165.22"/>
<polygon fill="black" stroke="black" points="1269.96,-168.12 1275.23,-158.92 1265.38,-162.83 1269.96,-168.12"/>
</g>
<!-- 16536 -->
<g id="node27" class="node">
<title>16536</title>
<path fill="#c0c0c0" stroke="black" d="M1151,-36C1151,-36 1121,-36 1121,-36 1115,-36 1109,-30 1109,-24 1109,-24 1109,-12 1109,-12 1109,-6 1115,0 1121,0 1121,0 1151,0 1151,0 1157,0 1163,-6 1163,-12 1163,-12 1163,-24 1163,-24 1163,-30 1157,-36 1151,-36"/>
<text text-anchor="middle" x="1136" y="-13.32" font-family="Helvetica,sans-Serif" font-size="14.00">(...)</text>
</g>
<!-- 16535&#45;&gt;16536 -->
<g id="edge26" class="edge">
<title>16535&#45;&gt;16536</title>
<path fill="none" stroke="black" d="M1155.16,-71.75C1152.06,-63.22 1148.92,-54.57 1146.1,-46.8"/>
<polygon fill="black" stroke="black" points="1149.46,-45.8 1142.75,-37.6 1142.88,-48.19 1149.46,-45.8"/>
</g>
<!-- 16673 -->
<g id="node28" class="node">
<title>16673</title>
<path fill="#c0c0c0" stroke="black" d="M1223,-36C1223,-36 1193,-36 1193,-36 1187,-36 1181,-30 1181,-24 1181,-24 1181,-12 1181,-12 1181,-6 1187,0 1193,0 1193,0 1223,0 1223,0 1229,0 1235,-6 1235,-12 1235,-12 1235,-24 1235,-24 1235,-30 1229,-36 1223,-36"/>
<text text-anchor="middle" x="1208" y="-13.32" font-family="Helvetica,sans-Serif" font-size="14.00">(...)</text>
</g>
<!-- 16535&#45;&gt;16673 -->
<g id="edge27" class="edge">
<title>16535&#45;&gt;16673</title>
<path fill="none" stroke="black" d="M1188.84,-71.75C1191.94,-63.22 1195.08,-54.57 1197.9,-46.8"/>
<polygon fill="black" stroke="black" points="1201.12,-48.19 1201.25,-37.6 1194.54,-45.8 1201.12,-48.19"/>
</g>
</g>
</svg>
