<?xml version="1.0" encoding="UTF-8" standalone="no"?>
<!DOCTYPE svg PUBLIC "-//W3C//DTD SVG 1.1//EN"
 "http://www.w3.org/Graphics/SVG/1.1/DTD/svg11.dtd">
<!-- Generated by graphviz version 12.0.0 (20240803.0821)
 -->
<!-- Title: Tree Pages: 1 -->
<svg width="1418pt" height="565pt"
 viewBox="0.00 0.00 1418.00 565.00" xmlns="http://www.w3.org/2000/svg" xmlns:xlink="http://www.w3.org/1999/xlink">
<g id="graph0" class="graph" transform="scale(1 1) rotate(0) translate(4 561)">
<title>Tree</title>
<polygon fill="white" stroke="none" points="-4,4 -4,-561 1414,-561 1414,4 -4,4"/>
<!-- 0 -->
<g id="node1" class="node">
<title>0</title>
<path fill="#fefeff" stroke="black" d="M820.5,-557C820.5,-557 660.5,-557 660.5,-557 654.5,-557 648.5,-551 648.5,-545 648.5,-545 648.5,-474.75 648.5,-474.75 648.5,-468.75 654.5,-462.75 660.5,-462.75 660.5,-462.75 820.5,-462.75 820.5,-462.75 826.5,-462.75 832.5,-468.75 832.5,-474.75 832.5,-474.75 832.5,-545 832.5,-545 832.5,-551 826.5,-557 820.5,-557"/>
<text text-anchor="middle" x="740.5" y="-539.7" font-family="Helvetica,sans-Serif" font-size="14.00">22_A &lt;= 0.5</text>
<text text-anchor="middle" x="740.5" y="-522.45" font-family="Helvetica,sans-Serif" font-size="14.00">entropy = 1.0</text>
<text text-anchor="middle" x="740.5" y="-505.2" font-family="Helvetica,sans-Serif" font-size="14.00">samples = 38118</text>
<text text-anchor="middle" x="740.5" y="-487.95" font-family="Helvetica,sans-Serif" font-size="14.00">value = [30069, 30276]</text>
<text text-anchor="middle" x="740.5" y="-470.7" font-family="Helvetica,sans-Serif" font-size="14.00">class = Plant</text>
</g>
<!-- 1 -->
<g id="node2" class="node">
<title>1</title>
<path fill="#eaf5fc" stroke="black" d="M641.5,-426.75C641.5,-426.75 481.5,-426.75 481.5,-426.75 475.5,-426.75 469.5,-420.75 469.5,-414.75 469.5,-414.75 469.5,-344.5 469.5,-344.5 469.5,-338.5 475.5,-332.5 481.5,-332.5 481.5,-332.5 641.5,-332.5 641.5,-332.5 647.5,-332.5 653.5,-338.5 653.5,-344.5 653.5,-344.5 653.5,-414.75 653.5,-414.75 653.5,-420.75 647.5,-426.75 641.5,-426.75"/>
<text text-anchor="middle" x="561.5" y="-409.45" font-family="Helvetica,sans-Serif" font-size="14.00">8_G &lt;= 0.5</text>
<text text-anchor="middle" x="561.5" y="-392.2" font-family="Helvetica,sans-Serif" font-size="14.00">entropy = 0.998</text>
<text text-anchor="middle" x="561.5" y="-374.95" font-family="Helvetica,sans-Serif" font-size="14.00">samples = 33917</text>
<text text-anchor="middle" x="561.5" y="-357.7" font-family="Helvetica,sans-Serif" font-size="14.00">value = [25345, 28326]</text>
<text text-anchor="middle" x="561.5" y="-340.45" font-family="Helvetica,sans-Serif" font-size="14.00">class = Plant</text>
</g>
<!-- 0&#45;&gt;1 -->
<g id="edge1" class="edge">
<title>0&#45;&gt;1</title>
<path fill="none" stroke="black" d="M675.62,-462.39C662.62,-453.07 648.86,-443.22 635.57,-433.69"/>
<polygon fill="black" stroke="black" points="637.85,-431.02 627.69,-428.05 633.78,-436.72 637.85,-431.02"/>
<text text-anchor="middle" x="630.53" y="-447.16" font-family="Helvetica,sans-Serif" font-size="14.00">True</text>
</g>
<!-- 14716 -->
<g id="node17" class="node">
<title>14716</title>
<path fill="#f0b58b" stroke="black" d="M988.5,-426.75C988.5,-426.75 846.5,-426.75 846.5,-426.75 840.5,-426.75 834.5,-420.75 834.5,-414.75 834.5,-414.75 834.5,-344.5 834.5,-344.5 834.5,-338.5 840.5,-332.5 846.5,-332.5 846.5,-332.5 988.5,-332.5 988.5,-332.5 994.5,-332.5 1000.5,-338.5 1000.5,-344.5 1000.5,-344.5 1000.5,-414.75 1000.5,-414.75 1000.5,-420.75 994.5,-426.75 988.5,-426.75"/>
<text text-anchor="middle" x="917.5" y="-409.45" font-family="Helvetica,sans-Serif" font-size="14.00">10_C &lt;= 0.5</text>
<text text-anchor="middle" x="917.5" y="-392.2" font-family="Helvetica,sans-Serif" font-size="14.00">entropy = 0.872</text>
<text text-anchor="middle" x="917.5" y="-374.95" font-family="Helvetica,sans-Serif" font-size="14.00">samples = 4201</text>
<text text-anchor="middle" x="917.5" y="-357.7" font-family="Helvetica,sans-Serif" font-size="14.00">value = [4724, 1950]</text>
<text text-anchor="middle" x="917.5" y="-340.45" font-family="Helvetica,sans-Serif" font-size="14.00">class = Animal</text>
</g>
<!-- 0&#45;&gt;14716 -->
<g id="edge16" class="edge">
<title>0&#45;&gt;14716</title>
<path fill="none" stroke="black" d="M804.65,-462.39C817.51,-453.07 831.12,-443.22 844.26,-433.69"/>
<polygon fill="black" stroke="black" points="846,-436.75 852.04,-428.05 841.89,-431.09 846,-436.75"/>
<text text-anchor="middle" x="849.33" y="-447.18" font-family="Helvetica,sans-Serif" font-size="14.00">False</text>
</g>
<!-- 2 -->
<g id="node3" class="node">
<title>2</title>
<path fill="#fdf3ec" stroke="black" d="M360.5,-296.5C360.5,-296.5 200.5,-296.5 200.5,-296.5 194.5,-296.5 188.5,-290.5 188.5,-284.5 188.5,-284.5 188.5,-214.25 188.5,-214.25 188.5,-208.25 194.5,-202.25 200.5,-202.25 200.5,-202.25 360.5,-202.25 360.5,-202.25 366.5,-202.25 372.5,-208.25 372.5,-214.25 372.5,-214.25 372.5,-284.5 372.5,-284.5 372.5,-290.5 366.5,-296.5 360.5,-296.5"/>
<text text-anchor="middle" x="280.5" y="-279.2" font-family="Helvetica,sans-Serif" font-size="14.00">1_U &lt;= 0.5</text>
<text text-anchor="middle" x="280.5" y="-261.95" font-family="Helvetica,sans-Serif" font-size="14.00">entropy = 0.998</text>
<text text-anchor="middle" x="280.5" y="-244.7" font-family="Helvetica,sans-Serif" font-size="14.00">samples = 23201</text>
<text text-anchor="middle" x="280.5" y="-227.45" font-family="Helvetica,sans-Serif" font-size="14.00">value = [19267, 17444]</text>
<text text-anchor="middle" x="280.5" y="-210.2" font-family="Helvetica,sans-Serif" font-size="14.00">class = Animal</text>
</g>
<!-- 1&#45;&gt;2 -->
<g id="edge2" class="edge">
<title>1&#45;&gt;2</title>
<path fill="none" stroke="black" d="M469.1,-336.45C441.6,-323.9 411.31,-310.08 383.2,-297.25"/>
<polygon fill="black" stroke="black" points="384.88,-294.17 374.33,-293.2 381.98,-300.54 384.88,-294.17"/>
</g>
<!-- 10729 -->
<g id="node10" class="node">
<title>10729</title>
<path fill="#a8d4f4" stroke="black" d="M637,-296.5C637,-296.5 486,-296.5 486,-296.5 480,-296.5 474,-290.5 474,-284.5 474,-284.5 474,-214.25 474,-214.25 474,-208.25 480,-202.25 486,-202.25 486,-202.25 637,-202.25 637,-202.25 643,-202.25 649,-208.25 649,-214.25 649,-214.25 649,-284.5 649,-284.5 649,-290.5 643,-296.5 637,-296.5"/>
<text text-anchor="middle" x="561.5" y="-279.2" font-family="Helvetica,sans-Serif" font-size="14.00">13_U &lt;= 0.5</text>
<text text-anchor="middle" x="561.5" y="-261.95" font-family="Helvetica,sans-Serif" font-size="14.00">entropy = 0.941</text>
<text text-anchor="middle" x="561.5" y="-244.7" font-family="Helvetica,sans-Serif" font-size="14.00">samples = 10716</text>
<text text-anchor="middle" x="561.5" y="-227.45" font-family="Helvetica,sans-Serif" font-size="14.00">value = [6078, 10882]</text>
<text text-anchor="middle" x="561.5" y="-210.2" font-family="Helvetica,sans-Serif" font-size="14.00">class = Plant</text>
</g>
<!-- 1&#45;&gt;10729 -->
<g id="edge9" class="edge">
<title>1&#45;&gt;10729</title>
<path fill="none" stroke="black" d="M561.5,-332.32C561.5,-324.42 561.5,-316.13 561.5,-307.98"/>
<polygon fill="black" stroke="black" points="565,-308.12 561.5,-298.12 558,-308.12 565,-308.12"/>
</g>
<!-- 3 -->
<g id="node4" class="node">
<title>3</title>
<path fill="#f6d5bc" stroke="black" d="M163,-166.25C163,-166.25 12,-166.25 12,-166.25 6,-166.25 0,-160.25 0,-154.25 0,-154.25 0,-84 0,-84 0,-78 6,-72 12,-72 12,-72 163,-72 163,-72 169,-72 175,-78 175,-84 175,-84 175,-154.25 175,-154.25 175,-160.25 169,-166.25 163,-166.25"/>
<text text-anchor="middle" x="87.5" y="-148.95" font-family="Helvetica,sans-Serif" font-size="14.00">10_A &lt;= 0.5</text>
<text text-anchor="middle" x="87.5" y="-131.7" font-family="Helvetica,sans-Serif" font-size="14.00">entropy = 0.97</text>
<text text-anchor="middle" x="87.5" y="-114.45" font-family="Helvetica,sans-Serif" font-size="14.00">samples = 11342</text>
<text text-anchor="middle" x="87.5" y="-97.2" font-family="Helvetica,sans-Serif" font-size="14.00">value = [10821, 7184]</text>
<text text-anchor="middle" x="87.5" y="-79.95" font-family="Helvetica,sans-Serif" font-size="14.00">class = Animal</text>
</g>
<!-- 2&#45;&gt;3 -->
<g id="edge3" class="edge">
<title>2&#45;&gt;3</title>
<path fill="none" stroke="black" d="M210.55,-201.89C196.39,-192.48 181.4,-182.53 166.95,-172.92"/>
<polygon fill="black" stroke="black" points="169.06,-170.12 158.8,-167.5 165.19,-175.95 169.06,-170.12"/>
</g>
<!-- 6096 -->
<g id="node7" class="node">
<title>6096</title>
<path fill="#dceefa" stroke="black" d="M356,-166.25C356,-166.25 205,-166.25 205,-166.25 199,-166.25 193,-160.25 193,-154.25 193,-154.25 193,-84 193,-84 193,-78 199,-72 205,-72 205,-72 356,-72 356,-72 362,-72 368,-78 368,-84 368,-84 368,-154.25 368,-154.25 368,-160.25 362,-166.25 356,-166.25"/>
<text text-anchor="middle" x="280.5" y="-148.95" font-family="Helvetica,sans-Serif" font-size="14.00">22_U &lt;= 0.5</text>
<text text-anchor="middle" x="280.5" y="-131.7" font-family="Helvetica,sans-Serif" font-size="14.00">entropy = 0.993</text>
<text text-anchor="middle" x="280.5" y="-114.45" font-family="Helvetica,sans-Serif" font-size="14.00">samples = 11859</text>
<text text-anchor="middle" x="280.5" y="-97.2" font-family="Helvetica,sans-Serif" font-size="14.00">value = [8446, 10260]</text>
<text text-anchor="middle" x="280.5" y="-79.95" font-family="Helvetica,sans-Serif" font-size="14.00">class = Plant</text>
</g>
<!-- 2&#45;&gt;6096 -->
<g id="edge6" class="edge">
<title>2&#45;&gt;6096</title>
<path fill="none" stroke="black" d="M280.5,-202.07C280.5,-194.17 280.5,-185.88 280.5,-177.73"/>
<polygon fill="black" stroke="black" points="284,-177.87 280.5,-167.87 277,-177.87 284,-177.87"/>
</g>
<!-- 4 -->
<g id="node5" class="node">
<title>4</title>
<path fill="#c0c0c0" stroke="black" d="M66.5,-36C66.5,-36 36.5,-36 36.5,-36 30.5,-36 24.5,-30 24.5,-24 24.5,-24 24.5,-12 24.5,-12 24.5,-6 30.5,0 36.5,0 36.5,0 66.5,0 66.5,0 72.5,0 78.5,-6 78.5,-12 78.5,-12 78.5,-24 78.5,-24 78.5,-30 72.5,-36 66.5,-36"/>
<text text-anchor="middle" x="51.5" y="-13.32" font-family="Helvetica,sans-Serif" font-size="14.00">(...)</text>
</g>
<!-- 3&#45;&gt;4 -->
<g id="edge4" class="edge">
<title>3&#45;&gt;4</title>
<path fill="none" stroke="black" d="M70.66,-71.75C67.56,-63.22 64.42,-54.57 61.6,-46.8"/>
<polygon fill="black" stroke="black" points="64.96,-45.8 58.25,-37.6 58.38,-48.19 64.96,-45.8"/>
</g>
<!-- 4697 -->
<g id="node6" class="node">
<title>4697</title>
<path fill="#c0c0c0" stroke="black" d="M138.5,-36C138.5,-36 108.5,-36 108.5,-36 102.5,-36 96.5,-30 96.5,-24 96.5,-24 96.5,-12 96.5,-12 96.5,-6 102.5,0 108.5,0 108.5,0 138.5,0 138.5,0 144.5,0 150.5,-6 150.5,-12 150.5,-12 150.5,-24 150.5,-24 150.5,-30 144.5,-36 138.5,-36"/>
<text text-anchor="middle" x="123.5" y="-13.32" font-family="Helvetica,sans-Serif" font-size="14.00">(...)</text>
</g>
<!-- 3&#45;&gt;4697 -->
<g id="edge5" class="edge">
<title>3&#45;&gt;4697</title>
<path fill="none" stroke="black" d="M104.34,-71.75C107.44,-63.22 110.58,-54.57 113.4,-46.8"/>
<polygon fill="black" stroke="black" points="116.62,-48.19 116.75,-37.6 110.04,-45.8 116.62,-48.19"/>
</g>
<!-- 6097 -->
<g id="node8" class="node">
<title>6097</title>
<path fill="#c0c0c0" stroke="black" d="M266.5,-36C266.5,-36 236.5,-36 236.5,-36 230.5,-36 224.5,-30 224.5,-24 224.5,-24 224.5,-12 224.5,-12 224.5,-6 230.5,0 236.5,0 236.5,0 266.5,0 266.5,0 272.5,0 278.5,-6 278.5,-12 278.5,-12 278.5,-24 278.5,-24 278.5,-30 272.5,-36 266.5,-36"/>
<text text-anchor="middle" x="251.5" y="-13.32" font-family="Helvetica,sans-Serif" font-size="14.00">(...)</text>
</g>
<!-- 6096&#45;&gt;6097 -->
<g id="edge7" class="edge">
<title>6096&#45;&gt;6097</title>
<path fill="none" stroke="black" d="M266.93,-71.75C264.47,-63.32 261.96,-54.77 259.71,-47.07"/>
<polygon fill="black" stroke="black" points="263.12,-46.24 256.95,-37.63 256.4,-48.21 263.12,-46.24"/>
</g>
<!-- 10038 -->
<g id="node9" class="node">
<title>10038</title>
<path fill="#c0c0c0" stroke="black" d="M338.5,-36C338.5,-36 308.5,-36 308.5,-36 302.5,-36 296.5,-30 296.5,-24 296.5,-24 296.5,-12 296.5,-12 296.5,-6 302.5,0 308.5,0 308.5,0 338.5,0 338.5,0 344.5,0 350.5,-6 350.5,-12 350.5,-12 350.5,-24 350.5,-24 350.5,-30 344.5,-36 338.5,-36"/>
<text text-anchor="middle" x="323.5" y="-13.32" font-family="Helvetica,sans-Serif" font-size="14.00">(...)</text>
</g>
<!-- 6096&#45;&gt;10038 -->
<g id="edge8" class="edge">
<title>6096&#45;&gt;10038</title>
<path fill="none" stroke="black" d="M300.62,-71.75C304.36,-63.12 308.16,-54.36 311.56,-46.53"/>
<polygon fill="black" stroke="black" points="314.68,-48.13 315.45,-37.56 308.26,-45.34 314.68,-48.13"/>
</g>
<!-- 10730 -->
<g id="node11" class="node">
<title>10730</title>
<path fill="#8dc7f0" stroke="black" d="M540.5,-166.25C540.5,-166.25 398.5,-166.25 398.5,-166.25 392.5,-166.25 386.5,-160.25 386.5,-154.25 386.5,-154.25 386.5,-84 386.5,-84 386.5,-78 392.5,-72 398.5,-72 398.5,-72 540.5,-72 540.5,-72 546.5,-72 552.5,-78 552.5,-84 552.5,-84 552.5,-154.25 552.5,-154.25 552.5,-160.25 546.5,-166.25 540.5,-166.25"/>
<text text-anchor="middle" x="469.5" y="-148.95" font-family="Helvetica,sans-Serif" font-size="14.00">10_A &lt;= 0.5</text>
<text text-anchor="middle" x="469.5" y="-131.7" font-family="Helvetica,sans-Serif" font-size="14.00">entropy = 0.88</text>
<text text-anchor="middle" x="469.5" y="-114.45" font-family="Helvetica,sans-Serif" font-size="14.00">samples = 8363</text>
<text text-anchor="middle" x="469.5" y="-97.2" font-family="Helvetica,sans-Serif" font-size="14.00">value = [3957, 9295]</text>
<text text-anchor="middle" x="469.5" y="-79.95" font-family="Helvetica,sans-Serif" font-size="14.00">class = Plant</text>
</g>
<!-- 10729&#45;&gt;10730 -->
<g id="edge10" class="edge">
<title>10729&#45;&gt;10730</title>
<path fill="none" stroke="black" d="M528.29,-202.07C522.1,-193.45 515.57,-184.35 509.21,-175.49"/>
<polygon fill="black" stroke="black" points="512.22,-173.67 503.55,-167.59 506.53,-177.75 512.22,-173.67"/>
</g>
<!-- 13563 -->
<g id="node14" class="node">
<title>13563</title>
<path fill="#f8dfcd" stroke="black" d="M724.5,-166.25C724.5,-166.25 582.5,-166.25 582.5,-166.25 576.5,-166.25 570.5,-160.25 570.5,-154.25 570.5,-154.25 570.5,-84 570.5,-84 570.5,-78 576.5,-72 582.5,-72 582.5,-72 724.5,-72 724.5,-72 730.5,-72 736.5,-78 736.5,-84 736.5,-84 736.5,-154.25 736.5,-154.25 736.5,-160.25 730.5,-166.25 724.5,-166.25"/>
<text text-anchor="middle" x="653.5" y="-148.95" font-family="Helvetica,sans-Serif" font-size="14.00">19_C &lt;= 0.5</text>
<text text-anchor="middle" x="653.5" y="-131.7" font-family="Helvetica,sans-Serif" font-size="14.00">entropy = 0.985</text>
<text text-anchor="middle" x="653.5" y="-114.45" font-family="Helvetica,sans-Serif" font-size="14.00">samples = 2353</text>
<text text-anchor="middle" x="653.5" y="-97.2" font-family="Helvetica,sans-Serif" font-size="14.00">value = [2121, 1587]</text>
<text text-anchor="middle" x="653.5" y="-79.95" font-family="Helvetica,sans-Serif" font-size="14.00">class = Animal</text>
</g>
<!-- 10729&#45;&gt;13563 -->
<g id="edge13" class="edge">
<title>10729&#45;&gt;13563</title>
<path fill="none" stroke="black" d="M594.71,-202.07C600.9,-193.45 607.43,-184.35 613.79,-175.49"/>
<polygon fill="black" stroke="black" points="616.47,-177.75 619.45,-167.59 610.78,-173.67 616.47,-177.75"/>
</g>
<!-- 10731 -->
<g id="node12" class="node">
<title>10731</title>
<path fill="#c0c0c0" stroke="black" d="M432.5,-36C432.5,-36 402.5,-36 402.5,-36 396.5,-36 390.5,-30 390.5,-24 390.5,-24 390.5,-12 390.5,-12 390.5,-6 396.5,0 402.5,0 402.5,0 432.5,0 432.5,0 438.5,0 444.5,-6 444.5,-12 444.5,-12 444.5,-24 444.5,-24 444.5,-30 438.5,-36 432.5,-36"/>
<text text-anchor="middle" x="417.5" y="-13.32" font-family="Helvetica,sans-Serif" font-size="14.00">(...)</text>
</g>
<!-- 10730&#45;&gt;10731 -->
<g id="edge11" class="edge">
<title>10730&#45;&gt;10731</title>
<path fill="none" stroke="black" d="M445.17,-71.75C440.6,-63.03 435.95,-54.16 431.8,-46.26"/>
<polygon fill="black" stroke="black" points="434.96,-44.74 427.21,-37.51 428.76,-47.99 434.96,-44.74"/>
</g>
<!-- 12806 -->
<g id="node13" class="node">
<title>12806</title>
<path fill="#c0c0c0" stroke="black" d="M504.5,-36C504.5,-36 474.5,-36 474.5,-36 468.5,-36 462.5,-30 462.5,-24 462.5,-24 462.5,-12 462.5,-12 462.5,-6 468.5,0 474.5,0 474.5,0 504.5,0 504.5,0 510.5,0 516.5,-6 516.5,-12 516.5,-12 516.5,-24 516.5,-24 516.5,-30 510.5,-36 504.5,-36"/>
<text text-anchor="middle" x="489.5" y="-13.32" font-family="Helvetica,sans-Serif" font-size="14.00">(...)</text>
</g>
<!-- 10730&#45;&gt;12806 -->
<g id="edge12" class="edge">
<title>10730&#45;&gt;12806</title>
<path fill="none" stroke="black" d="M478.86,-71.75C480.54,-63.42 482.24,-54.97 483.78,-47.34"/>
<polygon fill="black" stroke="black" points="487.19,-48.15 485.74,-37.66 480.33,-46.77 487.19,-48.15"/>
</g>
<!-- 13564 -->
<g id="node15" class="node">
<title>13564</title>
<path fill="#c0c0c0" stroke="black" d="M616.5,-36C616.5,-36 586.5,-36 586.5,-36 580.5,-36 574.5,-30 574.5,-24 574.5,-24 574.5,-12 574.5,-12 574.5,-6 580.5,0 586.5,0 586.5,0 616.5,0 616.5,0 622.5,0 628.5,-6 628.5,-12 628.5,-12 628.5,-24 628.5,-24 628.5,-30 622.5,-36 616.5,-36"/>
<text text-anchor="middle" x="601.5" y="-13.32" font-family="Helvetica,sans-Serif" font-size="14.00">(...)</text>
</g>
<!-- 13563&#45;&gt;13564 -->
<g id="edge14" class="edge">
<title>13563&#45;&gt;13564</title>
<path fill="none" stroke="black" d="M629.17,-71.75C624.6,-63.03 619.95,-54.16 615.8,-46.26"/>
<polygon fill="black" stroke="black" points="618.96,-44.74 611.21,-37.51 612.76,-47.99 618.96,-44.74"/>
</g>
<!-- 14411 -->
<g id="node16" class="node">
<title>14411</title>
<path fill="#c0c0c0" stroke="black" d="M688.5,-36C688.5,-36 658.5,-36 658.5,-36 652.5,-36 646.5,-30 646.5,-24 646.5,-24 646.5,-12 646.5,-12 646.5,-6 652.5,0 658.5,0 658.5,0 688.5,0 688.5,0 694.5,0 700.5,-6 700.5,-12 700.5,-12 700.5,-24 700.5,-24 700.5,-30 694.5,-36 688.5,-36"/>
<text text-anchor="middle" x="673.5" y="-13.32" font-family="Helvetica,sans-Serif" font-size="14.00">(...)</text>
</g>
<!-- 13563&#45;&gt;14411 -->
<g id="edge15" class="edge">
<title>13563&#45;&gt;14411</title>
<path fill="none" stroke="black" d="M662.86,-71.75C664.54,-63.42 666.24,-54.97 667.78,-47.34"/>
<polygon fill="black" stroke="black" points="671.19,-48.15 669.74,-37.66 664.33,-46.77 671.19,-48.15"/>
</g>
<!-- 14717 -->
<g id="node18" class="node">
<title>14717</title>
<path fill="#eeaf81" stroke="black" d="M988.5,-296.5C988.5,-296.5 846.5,-296.5 846.5,-296.5 840.5,-296.5 834.5,-290.5 834.5,-284.5 834.5,-284.5 834.5,-214.25 834.5,-214.25 834.5,-208.25 840.5,-202.25 846.5,-202.25 846.5,-202.25 988.5,-202.25 988.5,-202.25 994.5,-202.25 1000.5,-208.25 1000.5,-214.25 1000.5,-214.25 1000.5,-284.5 1000.5,-284.5 1000.5,-290.5 994.5,-296.5 988.5,-296.5"/>
<text text-anchor="middle" x="917.5" y="-279.2" font-family="Helvetica,sans-Serif" font-size="14.00">24_U &lt;= 0.5</text>
<text text-anchor="middle" x="917.5" y="-261.95" font-family="Helvetica,sans-Serif" font-size="14.00">entropy = 0.838</text>
<text text-anchor="middle" x="917.5" y="-244.7" font-family="Helvetica,sans-Serif" font-size="14.00">samples = 3020</text>
<text text-anchor="middle" x="917.5" y="-227.45" font-family="Helvetica,sans-Serif" font-size="14.00">value = [3525, 1287]</text>
<text text-anchor="middle" x="917.5" y="-210.2" font-family="Helvetica,sans-Serif" font-size="14.00">class = Animal</text>
</g>
<!-- 14716&#45;&gt;14717 -->
<g id="edge17" class="edge">
<title>14716&#45;&gt;14717</title>
<path fill="none" stroke="black" d="M917.5,-332.32C917.5,-324.42 917.5,-316.13 917.5,-307.98"/>
<polygon fill="black" stroke="black" points="921,-308.12 917.5,-298.12 914,-308.12 921,-308.12"/>
</g>
<!-- 16214 -->
<g id="node25" class="node">
<title>16214</title>
<path fill="#f3c7a6" stroke="black" d="M1245,-296.5C1245,-296.5 1112,-296.5 1112,-296.5 1106,-296.5 1100,-290.5 1100,-284.5 1100,-284.5 1100,-214.25 1100,-214.25 1100,-208.25 1106,-202.25 1112,-202.25 1112,-202.25 1245,-202.25 1245,-202.25 1251,-202.25 1257,-208.25 1257,-214.25 1257,-214.25 1257,-284.5 1257,-284.5 1257,-290.5 1251,-296.5 1245,-296.5"/>
<text text-anchor="middle" x="1178.5" y="-279.2" font-family="Helvetica,sans-Serif" font-size="14.00">19_G &lt;= 0.5</text>
<text text-anchor="middle" x="1178.5" y="-261.95" font-family="Helvetica,sans-Serif" font-size="14.00">entropy = 0.939</text>
<text text-anchor="middle" x="1178.5" y="-244.7" font-family="Helvetica,sans-Serif" font-size="14.00">samples = 1181</text>
<text text-anchor="middle" x="1178.5" y="-227.45" font-family="Helvetica,sans-Serif" font-size="14.00">value = [1199, 663]</text>
<text text-anchor="middle" x="1178.5" y="-210.2" font-family="Helvetica,sans-Serif" font-size="14.00">class = Animal</text>
</g>
<!-- 14716&#45;&gt;16214 -->
<g id="edge24" class="edge">
<title>14716&#45;&gt;16214</title>
<path fill="none" stroke="black" d="M1000.8,-337.69C1029.09,-323.79 1060.8,-308.21 1089.52,-294.1"/>
<polygon fill="black" stroke="black" points="1090.75,-297.39 1098.19,-289.84 1087.67,-291.11 1090.75,-297.39"/>
</g>
<!-- 14718 -->
<g id="node19" class="node">
<title>14718</title>
<path fill="#eead7e" stroke="black" d="M908.5,-166.25C908.5,-166.25 766.5,-166.25 766.5,-166.25 760.5,-166.25 754.5,-160.25 754.5,-154.25 754.5,-154.25 754.5,-84 754.5,-84 754.5,-78 760.5,-72 766.5,-72 766.5,-72 908.5,-72 908.5,-72 914.5,-72 920.5,-78 920.5,-84 920.5,-84 920.5,-154.25 920.5,-154.25 920.5,-160.25 914.5,-166.25 908.5,-166.25"/>
<text text-anchor="middle" x="837.5" y="-148.95" font-family="Helvetica,sans-Serif" font-size="14.00">11_C &lt;= 0.5</text>
<text text-anchor="middle" x="837.5" y="-131.7" font-family="Helvetica,sans-Serif" font-size="14.00">entropy = 0.826</text>
<text text-anchor="middle" x="837.5" y="-114.45" font-family="Helvetica,sans-Serif" font-size="14.00">samples = 2861</text>
<text text-anchor="middle" x="837.5" y="-97.2" font-family="Helvetica,sans-Serif" font-size="14.00">value = [3366, 1180]</text>
<text text-anchor="middle" x="837.5" y="-79.95" font-family="Helvetica,sans-Serif" font-size="14.00">class = Animal</text>
</g>
<!-- 14717&#45;&gt;14718 -->
<g id="edge18" class="edge">
<title>14717&#45;&gt;14718</title>
<path fill="none" stroke="black" d="M888.62,-202.07C883.35,-193.63 877.8,-184.74 872.38,-176.05"/>
<polygon fill="black" stroke="black" points="875.4,-174.27 867.14,-167.64 869.46,-177.98 875.4,-174.27"/>
</g>
<!-- 16125 -->
<g id="node22" class="node">
<title>16125</title>
<path fill="#f6d6be" stroke="black" d="M1074.5,-166.25C1074.5,-166.25 950.5,-166.25 950.5,-166.25 944.5,-166.25 938.5,-160.25 938.5,-154.25 938.5,-154.25 938.5,-84 938.5,-84 938.5,-78 944.5,-72 950.5,-72 950.5,-72 1074.5,-72 1074.5,-72 1080.5,-72 1086.5,-78 1086.5,-84 1086.5,-84 1086.5,-154.25 1086.5,-154.25 1086.5,-160.25 1080.5,-166.25 1074.5,-166.25"/>
<text text-anchor="middle" x="1012.5" y="-148.95" font-family="Helvetica,sans-Serif" font-size="14.00">21_C &lt;= 0.5</text>
<text text-anchor="middle" x="1012.5" y="-131.7" font-family="Helvetica,sans-Serif" font-size="14.00">entropy = 0.972</text>
<text text-anchor="middle" x="1012.5" y="-114.45" font-family="Helvetica,sans-Serif" font-size="14.00">samples = 159</text>
<text text-anchor="middle" x="1012.5" y="-97.2" font-family="Helvetica,sans-Serif" font-size="14.00">value = [159, 107]</text>
<text text-anchor="middle" x="1012.5" y="-79.95" font-family="Helvetica,sans-Serif" font-size="14.00">class = Animal</text>
</g>
<!-- 14717&#45;&gt;16125 -->
<g id="edge21" class="edge">
<title>14717&#45;&gt;16125</title>
<path fill="none" stroke="black" d="M951.8,-202.07C958.19,-193.45 964.92,-184.35 971.49,-175.49"/>
<polygon fill="black" stroke="black" points="974.21,-177.69 977.35,-167.57 968.59,-173.53 974.21,-177.69"/>
</g>
<!-- 14719 -->
<g id="node20" class="node">
<title>14719</title>
<path fill="#c0c0c0" stroke="black" d="M795.5,-36C795.5,-36 765.5,-36 765.5,-36 759.5,-36 753.5,-30 753.5,-24 753.5,-24 753.5,-12 753.5,-12 753.5,-6 759.5,0 765.5,0 765.5,0 795.5,0 795.5,0 801.5,0 807.5,-6 807.5,-12 807.5,-12 807.5,-24 807.5,-24 807.5,-30 801.5,-36 795.5,-36"/>
<text text-anchor="middle" x="780.5" y="-13.32" font-family="Helvetica,sans-Serif" font-size="14.00">(...)</text>
</g>
<!-- 14718&#45;&gt;14719 -->
<g id="edge19" class="edge">
<title>14718&#45;&gt;14719</title>
<path fill="none" stroke="black" d="M810.84,-71.75C805.76,-62.93 800.6,-53.96 796.02,-45.99"/>
<polygon fill="black" stroke="black" points="799.15,-44.41 791.13,-37.48 793.08,-47.9 799.15,-44.41"/>
</g>
<!-- 15866 -->
<g id="node21" class="node">
<title>15866</title>
<path fill="#c0c0c0" stroke="black" d="M867.5,-36C867.5,-36 837.5,-36 837.5,-36 831.5,-36 825.5,-30 825.5,-24 825.5,-24 825.5,-12 825.5,-12 825.5,-6 831.5,0 837.5,0 837.5,0 867.5,0 867.5,0 873.5,0 879.5,-6 879.5,-12 879.5,-12 879.5,-24 879.5,-24 879.5,-30 873.5,-36 867.5,-36"/>
<text text-anchor="middle" x="852.5" y="-13.32" font-family="Helvetica,sans-Serif" font-size="14.00">(...)</text>
</g>
<!-- 14718&#45;&gt;15866 -->
<g id="edge20" class="edge">
<title>14718&#45;&gt;15866</title>
<path fill="none" stroke="black" d="M844.52,-71.75C845.78,-63.42 847.06,-54.97 848.21,-47.34"/>
<polygon fill="black" stroke="black" points="851.64,-48.08 849.67,-37.67 844.72,-47.03 851.64,-48.08"/>
</g>
<!-- 16126 -->
<g id="node23" class="node">
<title>16126</title>
<path fill="#c0c0c0" stroke="black" d="M966.5,-36C966.5,-36 936.5,-36 936.5,-36 930.5,-36 924.5,-30 924.5,-24 924.5,-24 924.5,-12 924.5,-12 924.5,-6 930.5,0 936.5,0 936.5,0 966.5,0 966.5,0 972.5,0 978.5,-6 978.5,-12 978.5,-12 978.5,-24 978.5,-24 978.5,-30 972.5,-36 966.5,-36"/>
<text text-anchor="middle" x="951.5" y="-13.32" font-family="Helvetica,sans-Serif" font-size="14.00">(...)</text>
</g>
<!-- 16125&#45;&gt;16126 -->
<g id="edge22" class="edge">
<title>16125&#45;&gt;16126</title>
<path fill="none" stroke="black" d="M983.96,-71.75C978.47,-62.83 972.89,-53.76 967.94,-45.72"/>
<polygon fill="black" stroke="black" points="971.08,-44.14 962.86,-37.46 965.12,-47.81 971.08,-44.14"/>
</g>
<!-- 16199 -->
<g id="node24" class="node">
<title>16199</title>
<path fill="#c0c0c0" stroke="black" d="M1038.5,-36C1038.5,-36 1008.5,-36 1008.5,-36 1002.5,-36 996.5,-30 996.5,-24 996.5,-24 996.5,-12 996.5,-12 996.5,-6 1002.5,0 1008.5,0 1008.5,0 1038.5,0 1038.5,0 1044.5,0 1050.5,-6 1050.5,-12 1050.5,-12 1050.5,-24 1050.5,-24 1050.5,-30 1044.5,-36 1038.5,-36"/>
<text text-anchor="middle" x="1023.5" y="-13.32" font-family="Helvetica,sans-Serif" font-size="14.00">(...)</text>
</g>
<!-- 16125&#45;&gt;16199 -->
<g id="edge23" class="edge">
<title>16125&#45;&gt;16199</title>
<path fill="none" stroke="black" d="M1017.65,-71.75C1018.56,-63.52 1019.49,-55.17 1020.32,-47.61"/>
<polygon fill="black" stroke="black" points="1023.8,-48 1021.43,-37.68 1016.85,-47.23 1023.8,-48"/>
</g>
<!-- 16215 -->
<g id="node26" class="node">
<title>16215</title>
<path fill="#f7d8c2" stroke="black" d="M1240.5,-166.25C1240.5,-166.25 1116.5,-166.25 1116.5,-166.25 1110.5,-166.25 1104.5,-160.25 1104.5,-154.25 1104.5,-154.25 1104.5,-84 1104.5,-84 1104.5,-78 1110.5,-72 1116.5,-72 1116.5,-72 1240.5,-72 1240.5,-72 1246.5,-72 1252.5,-78 1252.5,-84 1252.5,-84 1252.5,-154.25 1252.5,-154.25 1252.5,-160.25 1246.5,-166.25 1240.5,-166.25"/>
<text text-anchor="middle" x="1178.5" y="-148.95" font-family="Helvetica,sans-Serif" font-size="14.00">23_G &lt;= 0.5</text>
<text text-anchor="middle" x="1178.5" y="-131.7" font-family="Helvetica,sans-Serif" font-size="14.00">entropy = 0.976</text>
<text text-anchor="middle" x="1178.5" y="-114.45" font-family="Helvetica,sans-Serif" font-size="14.00">samples = 943</text>
<text text-anchor="middle" x="1178.5" y="-97.2" font-family="Helvetica,sans-Serif" font-size="14.00">value = [885, 611]</text>
<text text-anchor="middle" x="1178.5" y="-79.95" font-family="Helvetica,sans-Serif" font-size="14.00">class = Animal</text>
</g>
<!-- 16214&#45;&gt;16215 -->
<g id="edge25" class="edge">
<title>16214&#45;&gt;16215</title>
<path fill="none" stroke="black" d="M1178.5,-202.07C1178.5,-194.17 1178.5,-185.88 1178.5,-177.73"/>
<polygon fill="black" stroke="black" points="1182,-177.87 1178.5,-167.87 1175,-177.87 1182,-177.87"/>
</g>
<!-- 16582 -->
<g id="node29" class="node">
<title>16582</title>
<path fill="#e9965a" stroke="black" d="M1398,-166.25C1398,-166.25 1283,-166.25 1283,-166.25 1277,-166.25 1271,-160.25 1271,-154.25 1271,-154.25 1271,-84 1271,-84 1271,-78 1277,-72 1283,-72 1283,-72 1398,-72 1398,-72 1404,-72 1410,-78 1410,-84 1410,-84 1410,-154.25 1410,-154.25 1410,-160.25 1404,-166.25 1398,-166.25"/>
<text text-anchor="middle" x="1340.5" y="-148.95" font-family="Helvetica,sans-Serif" font-size="14.00">1_U &lt;= 0.5</text>
<text text-anchor="middle" x="1340.5" y="-131.7" font-family="Helvetica,sans-Serif" font-size="14.00">entropy = 0.59</text>
<text text-anchor="middle" x="1340.5" y="-114.45" font-family="Helvetica,sans-Serif" font-size="14.00">samples = 238</text>
<text text-anchor="middle" x="1340.5" y="-97.2" font-family="Helvetica,sans-Serif" font-size="14.00">value = [314, 52]</text>
<text text-anchor="middle" x="1340.5" y="-79.95" font-family="Helvetica,sans-Serif" font-size="14.00">class = Animal</text>
</g>
<!-- 16214&#45;&gt;16582 -->
<g id="edge28" class="edge">
<title>16214&#45;&gt;16582</title>
<path fill="none" stroke="black" d="M1236.99,-202.07C1248.61,-192.87 1260.91,-183.13 1272.82,-173.71"/>
<polygon fill="black" stroke="black" points="1274.97,-176.46 1280.64,-167.51 1270.63,-170.98 1274.97,-176.46"/>
</g>
<!-- 16216 -->
<g id="node27" class="node">
<title>16216</title>
<path fill="#c0c0c0" stroke="black" d="M1148.5,-36C1148.5,-36 1118.5,-36 1118.5,-36 1112.5,-36 1106.5,-30 1106.5,-24 1106.5,-24 1106.5,-12 1106.5,-12 1106.5,-6 1112.5,0 1118.5,0 1118.5,0 1148.5,0 1148.5,0 1154.5,0 1160.5,-6 1160.5,-12 1160.5,-12 1160.5,-24 1160.5,-24 1160.5,-30 1154.5,-36 1148.5,-36"/>
<text text-anchor="middle" x="1133.5" y="-13.32" font-family="Helvetica,sans-Serif" font-size="14.00">(...)</text>
</g>
<!-- 16215&#45;&gt;16216 -->
<g id="edge26" class="edge">
<title>16215&#45;&gt;16216</title>
<path fill="none" stroke="black" d="M1157.45,-71.75C1153.53,-63.12 1149.55,-54.36 1146,-46.53"/>
<polygon fill="black" stroke="black" points="1149.24,-45.21 1141.92,-37.55 1142.87,-48.1 1149.24,-45.21"/>
</g>
<!-- 16543 -->
<g id="node28" class="node">
<title>16543</title>
<path fill="#c0c0c0" stroke="black" d="M1220.5,-36C1220.5,-36 1190.5,-36 1190.5,-36 1184.5,-36 1178.5,-30 1178.5,-24 1178.5,-24 1178.5,-12 1178.5,-12 1178.5,-6 1184.5,0 1190.5,0 1190.5,0 1220.5,0 1220.5,0 1226.5,0 1232.5,-6 1232.5,-12 1232.5,-12 1232.5,-24 1232.5,-24 1232.5,-30 1226.5,-36 1220.5,-36"/>
<text text-anchor="middle" x="1205.5" y="-13.32" font-family="Helvetica,sans-Serif" font-size="14.00">(...)</text>
</g>
<!-- 16215&#45;&gt;16543 -->
<g id="edge27" class="edge">
<title>16215&#45;&gt;16543</title>
<path fill="none" stroke="black" d="M1191.13,-71.75C1193.43,-63.32 1195.76,-54.77 1197.85,-47.07"/>
<polygon fill="black" stroke="black" points="1201.17,-48.2 1200.42,-37.63 1194.42,-46.36 1201.17,-48.2"/>
</g>
<!-- 16583 -->
<g id="node30" class="node">
<title>16583</title>
<path fill="#c0c0c0" stroke="black" d="M1319.5,-36C1319.5,-36 1289.5,-36 1289.5,-36 1283.5,-36 1277.5,-30 1277.5,-24 1277.5,-24 1277.5,-12 1277.5,-12 1277.5,-6 1283.5,0 1289.5,0 1289.5,0 1319.5,0 1319.5,0 1325.5,0 1331.5,-6 1331.5,-12 1331.5,-12 1331.5,-24 1331.5,-24 1331.5,-30 1325.5,-36 1319.5,-36"/>
<text text-anchor="middle" x="1304.5" y="-13.32" font-family="Helvetica,sans-Serif" font-size="14.00">(...)</text>
</g>
<!-- 16582&#45;&gt;16583 -->
<g id="edge29" class="edge">
<title>16582&#45;&gt;16583</title>
<path fill="none" stroke="black" d="M1323.66,-71.75C1320.56,-63.22 1317.42,-54.57 1314.6,-46.8"/>
<polygon fill="black" stroke="black" points="1317.96,-45.8 1311.25,-37.6 1311.38,-48.19 1317.96,-45.8"/>
</g>
<!-- 16618 -->
<g id="node31" class="node">
<title>16618</title>
<path fill="#c0c0c0" stroke="black" d="M1391.5,-36C1391.5,-36 1361.5,-36 1361.5,-36 1355.5,-36 1349.5,-30 1349.5,-24 1349.5,-24 1349.5,-12 1349.5,-12 1349.5,-6 1355.5,0 1361.5,0 1361.5,0 1391.5,0 1391.5,0 1397.5,0 1403.5,-6 1403.5,-12 1403.5,-12 1403.5,-24 1403.5,-24 1403.5,-30 1397.5,-36 1391.5,-36"/>
<text text-anchor="middle" x="1376.5" y="-13.32" font-family="Helvetica,sans-Serif" font-size="14.00">(...)</text>
</g>
<!-- 16582&#45;&gt;16618 -->
<g id="edge30" class="edge">
<title>16582&#45;&gt;16618</title>
<path fill="none" stroke="black" d="M1357.34,-71.75C1360.44,-63.22 1363.58,-54.57 1366.4,-46.8"/>
<polygon fill="black" stroke="black" points="1369.62,-48.19 1369.75,-37.6 1363.04,-45.8 1369.62,-48.19"/>
</g>
</g>
</svg>
