<?xml version="1.0" encoding="UTF-8" standalone="no"?>
<!DOCTYPE svg PUBLIC "-//W3C//DTD SVG 1.1//EN"
 "http://www.w3.org/Graphics/SVG/1.1/DTD/svg11.dtd">
<!-- Generated by graphviz version 12.0.0 (20240803.0821)
 -->
<!-- Title: Tree Pages: 1 -->
<svg width="1428pt" height="565pt"
 viewBox="0.00 0.00 1427.50 565.00" xmlns="http://www.w3.org/2000/svg" xmlns:xlink="http://www.w3.org/1999/xlink">
<g id="graph0" class="graph" transform="scale(1 1) rotate(0) translate(4 561)">
<title>Tree</title>
<polygon fill="white" stroke="none" points="-4,4 -4,-561 1423.5,-561 1423.5,4 -4,4"/>
<!-- 0 -->
<g id="node1" class="node">
<title>0</title>
<path fill="#ffffff" stroke="black" d="M800.5,-557C800.5,-557 640.5,-557 640.5,-557 634.5,-557 628.5,-551 628.5,-545 628.5,-545 628.5,-474.75 628.5,-474.75 628.5,-468.75 634.5,-462.75 640.5,-462.75 640.5,-462.75 800.5,-462.75 800.5,-462.75 806.5,-462.75 812.5,-468.75 812.5,-474.75 812.5,-474.75 812.5,-545 812.5,-545 812.5,-551 806.5,-557 800.5,-557"/>
<text text-anchor="middle" x="720.5" y="-539.7" font-family="Helvetica,sans-Serif" font-size="14.00">8_G &lt;= 0.5</text>
<text text-anchor="middle" x="720.5" y="-522.45" font-family="Helvetica,sans-Serif" font-size="14.00">entropy = 1.0</text>
<text text-anchor="middle" x="720.5" y="-505.2" font-family="Helvetica,sans-Serif" font-size="14.00">samples = 38169</text>
<text text-anchor="middle" x="720.5" y="-487.95" font-family="Helvetica,sans-Serif" font-size="14.00">value = [30143, 30202]</text>
<text text-anchor="middle" x="720.5" y="-470.7" font-family="Helvetica,sans-Serif" font-size="14.00">class = Plant</text>
</g>
<!-- 1 -->
<g id="node2" class="node">
<title>1</title>
<path fill="#fae7d9" stroke="black" d="M625.5,-426.75C625.5,-426.75 465.5,-426.75 465.5,-426.75 459.5,-426.75 453.5,-420.75 453.5,-414.75 453.5,-414.75 453.5,-344.5 453.5,-344.5 453.5,-338.5 459.5,-332.5 465.5,-332.5 465.5,-332.5 625.5,-332.5 625.5,-332.5 631.5,-332.5 637.5,-338.5 637.5,-344.5 637.5,-344.5 637.5,-414.75 637.5,-414.75 637.5,-420.75 631.5,-426.75 625.5,-426.75"/>
<text text-anchor="middle" x="545.5" y="-409.45" font-family="Helvetica,sans-Serif" font-size="14.00">1_A &lt;= 0.5</text>
<text text-anchor="middle" x="545.5" y="-392.2" font-family="Helvetica,sans-Serif" font-size="14.00">entropy = 0.992</text>
<text text-anchor="middle" x="545.5" y="-374.95" font-family="Helvetica,sans-Serif" font-size="14.00">samples = 26309</text>
<text text-anchor="middle" x="545.5" y="-357.7" font-family="Helvetica,sans-Serif" font-size="14.00">value = [22988, 18615]</text>
<text text-anchor="middle" x="545.5" y="-340.45" font-family="Helvetica,sans-Serif" font-size="14.00">class = Animal</text>
</g>
<!-- 0&#45;&gt;1 -->
<g id="edge1" class="edge">
<title>0&#45;&gt;1</title>
<path fill="none" stroke="black" d="M657.32,-462.57C644.51,-453.19 630.95,-443.25 617.86,-433.65"/>
<polygon fill="black" stroke="black" points="620.24,-431.06 610.1,-427.97 616.1,-436.7 620.24,-431.06"/>
<text text-anchor="middle" x="612.69" y="-447.11" font-family="Helvetica,sans-Serif" font-size="14.00">True</text>
</g>
<!-- 12246 -->
<g id="node17" class="node">
<title>12246</title>
<path fill="#b3daf5" stroke="black" d="M983,-426.75C983,-426.75 832,-426.75 832,-426.75 826,-426.75 820,-420.75 820,-414.75 820,-414.75 820,-344.5 820,-344.5 820,-338.5 826,-332.5 832,-332.5 832,-332.5 983,-332.5 983,-332.5 989,-332.5 995,-338.5 995,-344.5 995,-344.5 995,-414.75 995,-414.75 995,-420.75 989,-426.75 983,-426.75"/>
<text text-anchor="middle" x="907.5" y="-409.45" font-family="Helvetica,sans-Serif" font-size="14.00">22_A &lt;= 0.5</text>
<text text-anchor="middle" x="907.5" y="-392.2" font-family="Helvetica,sans-Serif" font-size="14.00">entropy = 0.959</text>
<text text-anchor="middle" x="907.5" y="-374.95" font-family="Helvetica,sans-Serif" font-size="14.00">samples = 11860</text>
<text text-anchor="middle" x="907.5" y="-357.7" font-family="Helvetica,sans-Serif" font-size="14.00">value = [7155, 11587]</text>
<text text-anchor="middle" x="907.5" y="-340.45" font-family="Helvetica,sans-Serif" font-size="14.00">class = Plant</text>
</g>
<!-- 0&#45;&gt;12246 -->
<g id="edge16" class="edge">
<title>0&#45;&gt;12246</title>
<path fill="none" stroke="black" d="M788.28,-462.39C801.99,-452.98 816.51,-443.03 830.52,-433.42"/>
<polygon fill="black" stroke="black" points="832.13,-436.56 838.39,-428.02 828.17,-430.79 832.13,-436.56"/>
<text text-anchor="middle" x="835.06" y="-447.07" font-family="Helvetica,sans-Serif" font-size="14.00">False</text>
</g>
<!-- 2 -->
<g id="node3" class="node">
<title>2</title>
<path fill="#fdf6f0" stroke="black" d="M356.5,-296.5C356.5,-296.5 196.5,-296.5 196.5,-296.5 190.5,-296.5 184.5,-290.5 184.5,-284.5 184.5,-284.5 184.5,-214.25 184.5,-214.25 184.5,-208.25 190.5,-202.25 196.5,-202.25 196.5,-202.25 356.5,-202.25 356.5,-202.25 362.5,-202.25 368.5,-208.25 368.5,-214.25 368.5,-214.25 368.5,-284.5 368.5,-284.5 368.5,-290.5 362.5,-296.5 356.5,-296.5"/>
<text text-anchor="middle" x="276.5" y="-279.2" font-family="Helvetica,sans-Serif" font-size="14.00">19_C &lt;= 0.5</text>
<text text-anchor="middle" x="276.5" y="-261.95" font-family="Helvetica,sans-Serif" font-size="14.00">entropy = 0.999</text>
<text text-anchor="middle" x="276.5" y="-244.7" font-family="Helvetica,sans-Serif" font-size="14.00">samples = 20406</text>
<text text-anchor="middle" x="276.5" y="-227.45" font-family="Helvetica,sans-Serif" font-size="14.00">value = [16764, 15513]</text>
<text text-anchor="middle" x="276.5" y="-210.2" font-family="Helvetica,sans-Serif" font-size="14.00">class = Animal</text>
</g>
<!-- 1&#45;&gt;2 -->
<g id="edge2" class="edge">
<title>1&#45;&gt;2</title>
<path fill="none" stroke="black" d="M453.3,-334.67C429.35,-323.25 403.4,-310.88 378.95,-299.22"/>
<polygon fill="black" stroke="black" points="380.48,-296.07 369.94,-294.93 377.46,-302.39 380.48,-296.07"/>
</g>
<!-- 9295 -->
<g id="node10" class="node">
<title>9295</title>
<path fill="#f2c09c" stroke="black" d="M616.5,-296.5C616.5,-296.5 474.5,-296.5 474.5,-296.5 468.5,-296.5 462.5,-290.5 462.5,-284.5 462.5,-284.5 462.5,-214.25 462.5,-214.25 462.5,-208.25 468.5,-202.25 474.5,-202.25 474.5,-202.25 616.5,-202.25 616.5,-202.25 622.5,-202.25 628.5,-208.25 628.5,-214.25 628.5,-214.25 628.5,-284.5 628.5,-284.5 628.5,-290.5 622.5,-296.5 616.5,-296.5"/>
<text text-anchor="middle" x="545.5" y="-279.2" font-family="Helvetica,sans-Serif" font-size="14.00">3_C &lt;= 0.5</text>
<text text-anchor="middle" x="545.5" y="-261.95" font-family="Helvetica,sans-Serif" font-size="14.00">entropy = 0.918</text>
<text text-anchor="middle" x="545.5" y="-244.7" font-family="Helvetica,sans-Serif" font-size="14.00">samples = 5903</text>
<text text-anchor="middle" x="545.5" y="-227.45" font-family="Helvetica,sans-Serif" font-size="14.00">value = [6224, 3102]</text>
<text text-anchor="middle" x="545.5" y="-210.2" font-family="Helvetica,sans-Serif" font-size="14.00">class = Animal</text>
</g>
<!-- 1&#45;&gt;9295 -->
<g id="edge9" class="edge">
<title>1&#45;&gt;9295</title>
<path fill="none" stroke="black" d="M545.5,-332.32C545.5,-324.42 545.5,-316.13 545.5,-307.98"/>
<polygon fill="black" stroke="black" points="549,-308.12 545.5,-298.12 542,-308.12 549,-308.12"/>
</g>
<!-- 3 -->
<g id="node4" class="node">
<title>3</title>
<path fill="#f8ddca" stroke="black" d="M163,-166.25C163,-166.25 12,-166.25 12,-166.25 6,-166.25 0,-160.25 0,-154.25 0,-154.25 0,-84 0,-84 0,-78 6,-72 12,-72 12,-72 163,-72 163,-72 169,-72 175,-78 175,-84 175,-84 175,-154.25 175,-154.25 175,-160.25 169,-166.25 163,-166.25"/>
<text text-anchor="middle" x="87.5" y="-148.95" font-family="Helvetica,sans-Serif" font-size="14.00">22_G &lt;= 0.5</text>
<text text-anchor="middle" x="87.5" y="-131.7" font-family="Helvetica,sans-Serif" font-size="14.00">entropy = 0.983</text>
<text text-anchor="middle" x="87.5" y="-114.45" font-family="Helvetica,sans-Serif" font-size="14.00">samples = 13901</text>
<text text-anchor="middle" x="87.5" y="-97.2" font-family="Helvetica,sans-Serif" font-size="14.00">value = [12689, 9282]</text>
<text text-anchor="middle" x="87.5" y="-79.95" font-family="Helvetica,sans-Serif" font-size="14.00">class = Animal</text>
</g>
<!-- 2&#45;&gt;3 -->
<g id="edge3" class="edge">
<title>2&#45;&gt;3</title>
<path fill="none" stroke="black" d="M208,-201.89C194.13,-192.48 179.46,-182.53 165.3,-172.92"/>
<polygon fill="black" stroke="black" points="167.58,-170.23 157.34,-167.51 163.65,-176.03 167.58,-170.23"/>
</g>
<!-- 6774 -->
<g id="node7" class="node">
<title>6774</title>
<path fill="#baddf6" stroke="black" d="M347.5,-166.25C347.5,-166.25 205.5,-166.25 205.5,-166.25 199.5,-166.25 193.5,-160.25 193.5,-154.25 193.5,-154.25 193.5,-84 193.5,-84 193.5,-78 199.5,-72 205.5,-72 205.5,-72 347.5,-72 347.5,-72 353.5,-72 359.5,-78 359.5,-84 359.5,-84 359.5,-154.25 359.5,-154.25 359.5,-160.25 353.5,-166.25 347.5,-166.25"/>
<text text-anchor="middle" x="276.5" y="-148.95" font-family="Helvetica,sans-Serif" font-size="14.00">15_G &lt;= 0.5</text>
<text text-anchor="middle" x="276.5" y="-131.7" font-family="Helvetica,sans-Serif" font-size="14.00">entropy = 0.968</text>
<text text-anchor="middle" x="276.5" y="-114.45" font-family="Helvetica,sans-Serif" font-size="14.00">samples = 6505</text>
<text text-anchor="middle" x="276.5" y="-97.2" font-family="Helvetica,sans-Serif" font-size="14.00">value = [4075, 6231]</text>
<text text-anchor="middle" x="276.5" y="-79.95" font-family="Helvetica,sans-Serif" font-size="14.00">class = Plant</text>
</g>
<!-- 2&#45;&gt;6774 -->
<g id="edge6" class="edge">
<title>2&#45;&gt;6774</title>
<path fill="none" stroke="black" d="M276.5,-202.07C276.5,-194.17 276.5,-185.88 276.5,-177.73"/>
<polygon fill="black" stroke="black" points="280,-177.87 276.5,-167.87 273,-177.87 280,-177.87"/>
</g>
<!-- 4 -->
<g id="node5" class="node">
<title>4</title>
<path fill="#c0c0c0" stroke="black" d="M66.5,-36C66.5,-36 36.5,-36 36.5,-36 30.5,-36 24.5,-30 24.5,-24 24.5,-24 24.5,-12 24.5,-12 24.5,-6 30.5,0 36.5,0 36.5,0 66.5,0 66.5,0 72.5,0 78.5,-6 78.5,-12 78.5,-12 78.5,-24 78.5,-24 78.5,-30 72.5,-36 66.5,-36"/>
<text text-anchor="middle" x="51.5" y="-13.32" font-family="Helvetica,sans-Serif" font-size="14.00">(...)</text>
</g>
<!-- 3&#45;&gt;4 -->
<g id="edge4" class="edge">
<title>3&#45;&gt;4</title>
<path fill="none" stroke="black" d="M70.66,-71.75C67.56,-63.22 64.42,-54.57 61.6,-46.8"/>
<polygon fill="black" stroke="black" points="64.96,-45.8 58.25,-37.6 58.38,-48.19 64.96,-45.8"/>
</g>
<!-- 5991 -->
<g id="node6" class="node">
<title>5991</title>
<path fill="#c0c0c0" stroke="black" d="M138.5,-36C138.5,-36 108.5,-36 108.5,-36 102.5,-36 96.5,-30 96.5,-24 96.5,-24 96.5,-12 96.5,-12 96.5,-6 102.5,0 108.5,0 108.5,0 138.5,0 138.5,0 144.5,0 150.5,-6 150.5,-12 150.5,-12 150.5,-24 150.5,-24 150.5,-30 144.5,-36 138.5,-36"/>
<text text-anchor="middle" x="123.5" y="-13.32" font-family="Helvetica,sans-Serif" font-size="14.00">(...)</text>
</g>
<!-- 3&#45;&gt;5991 -->
<g id="edge5" class="edge">
<title>3&#45;&gt;5991</title>
<path fill="none" stroke="black" d="M104.34,-71.75C107.44,-63.22 110.58,-54.57 113.4,-46.8"/>
<polygon fill="black" stroke="black" points="116.62,-48.19 116.75,-37.6 110.04,-45.8 116.62,-48.19"/>
</g>
<!-- 6775 -->
<g id="node8" class="node">
<title>6775</title>
<path fill="#c0c0c0" stroke="black" d="M257.5,-36C257.5,-36 227.5,-36 227.5,-36 221.5,-36 215.5,-30 215.5,-24 215.5,-24 215.5,-12 215.5,-12 215.5,-6 221.5,0 227.5,0 227.5,0 257.5,0 257.5,0 263.5,0 269.5,-6 269.5,-12 269.5,-12 269.5,-24 269.5,-24 269.5,-30 263.5,-36 257.5,-36"/>
<text text-anchor="middle" x="242.5" y="-13.32" font-family="Helvetica,sans-Serif" font-size="14.00">(...)</text>
</g>
<!-- 6774&#45;&gt;6775 -->
<g id="edge7" class="edge">
<title>6774&#45;&gt;6775</title>
<path fill="none" stroke="black" d="M260.6,-71.75C257.67,-63.22 254.7,-54.57 252.03,-46.8"/>
<polygon fill="black" stroke="black" points="255.44,-45.93 248.88,-37.6 248.82,-48.2 255.44,-45.93"/>
</g>
<!-- 8630 -->
<g id="node9" class="node">
<title>8630</title>
<path fill="#c0c0c0" stroke="black" d="M329.5,-36C329.5,-36 299.5,-36 299.5,-36 293.5,-36 287.5,-30 287.5,-24 287.5,-24 287.5,-12 287.5,-12 287.5,-6 293.5,0 299.5,0 299.5,0 329.5,0 329.5,0 335.5,0 341.5,-6 341.5,-12 341.5,-12 341.5,-24 341.5,-24 341.5,-30 335.5,-36 329.5,-36"/>
<text text-anchor="middle" x="314.5" y="-13.32" font-family="Helvetica,sans-Serif" font-size="14.00">(...)</text>
</g>
<!-- 6774&#45;&gt;8630 -->
<g id="edge8" class="edge">
<title>6774&#45;&gt;8630</title>
<path fill="none" stroke="black" d="M294.28,-71.75C297.55,-63.22 300.87,-54.57 303.84,-46.8"/>
<polygon fill="black" stroke="black" points="307.06,-48.18 307.38,-37.59 300.53,-45.67 307.06,-48.18"/>
</g>
<!-- 9296 -->
<g id="node11" class="node">
<title>9296</title>
<path fill="#f5cdb0" stroke="black" d="M531.5,-166.25C531.5,-166.25 389.5,-166.25 389.5,-166.25 383.5,-166.25 377.5,-160.25 377.5,-154.25 377.5,-154.25 377.5,-84 377.5,-84 377.5,-78 383.5,-72 389.5,-72 389.5,-72 531.5,-72 531.5,-72 537.5,-72 543.5,-78 543.5,-84 543.5,-84 543.5,-154.25 543.5,-154.25 543.5,-160.25 537.5,-166.25 531.5,-166.25"/>
<text text-anchor="middle" x="460.5" y="-148.95" font-family="Helvetica,sans-Serif" font-size="14.00">18_G &lt;= 0.5</text>
<text text-anchor="middle" x="460.5" y="-131.7" font-family="Helvetica,sans-Serif" font-size="14.00">entropy = 0.955</text>
<text text-anchor="middle" x="460.5" y="-114.45" font-family="Helvetica,sans-Serif" font-size="14.00">samples = 4504</text>
<text text-anchor="middle" x="460.5" y="-97.2" font-family="Helvetica,sans-Serif" font-size="14.00">value = [4435, 2670]</text>
<text text-anchor="middle" x="460.5" y="-79.95" font-family="Helvetica,sans-Serif" font-size="14.00">class = Animal</text>
</g>
<!-- 9295&#45;&gt;9296 -->
<g id="edge10" class="edge">
<title>9295&#45;&gt;9296</title>
<path fill="none" stroke="black" d="M514.81,-202.07C509.16,-193.54 503.2,-184.54 497.38,-175.77"/>
<polygon fill="black" stroke="black" points="500.42,-174.02 491.98,-167.62 494.59,-177.89 500.42,-174.02"/>
</g>
<!-- 11615 -->
<g id="node14" class="node">
<title>11615</title>
<path fill="#eb9f69" stroke="black" d="M707,-166.25C707,-166.25 574,-166.25 574,-166.25 568,-166.25 562,-160.25 562,-154.25 562,-154.25 562,-84 562,-84 562,-78 568,-72 574,-72 574,-72 707,-72 707,-72 713,-72 719,-78 719,-84 719,-84 719,-154.25 719,-154.25 719,-160.25 713,-166.25 707,-166.25"/>
<text text-anchor="middle" x="640.5" y="-148.95" font-family="Helvetica,sans-Serif" font-size="14.00">24_A &lt;= 0.5</text>
<text text-anchor="middle" x="640.5" y="-131.7" font-family="Helvetica,sans-Serif" font-size="14.00">entropy = 0.711</text>
<text text-anchor="middle" x="640.5" y="-114.45" font-family="Helvetica,sans-Serif" font-size="14.00">samples = 1399</text>
<text text-anchor="middle" x="640.5" y="-97.2" font-family="Helvetica,sans-Serif" font-size="14.00">value = [1789, 432]</text>
<text text-anchor="middle" x="640.5" y="-79.95" font-family="Helvetica,sans-Serif" font-size="14.00">class = Animal</text>
</g>
<!-- 9295&#45;&gt;11615 -->
<g id="edge13" class="edge">
<title>9295&#45;&gt;11615</title>
<path fill="none" stroke="black" d="M579.8,-202.07C586.19,-193.45 592.92,-184.35 599.49,-175.49"/>
<polygon fill="black" stroke="black" points="602.21,-177.69 605.35,-167.57 596.59,-173.53 602.21,-177.69"/>
</g>
<!-- 9297 -->
<g id="node12" class="node">
<title>9297</title>
<path fill="#c0c0c0" stroke="black" d="M421.5,-36C421.5,-36 391.5,-36 391.5,-36 385.5,-36 379.5,-30 379.5,-24 379.5,-24 379.5,-12 379.5,-12 379.5,-6 385.5,0 391.5,0 391.5,0 421.5,0 421.5,0 427.5,0 433.5,-6 433.5,-12 433.5,-12 433.5,-24 433.5,-24 433.5,-30 427.5,-36 421.5,-36"/>
<text text-anchor="middle" x="406.5" y="-13.32" font-family="Helvetica,sans-Serif" font-size="14.00">(...)</text>
</g>
<!-- 9296&#45;&gt;9297 -->
<g id="edge11" class="edge">
<title>9296&#45;&gt;9297</title>
<path fill="none" stroke="black" d="M435.24,-71.75C430.48,-63.03 425.66,-54.16 421.35,-46.26"/>
<polygon fill="black" stroke="black" points="424.44,-44.61 416.58,-37.5 418.29,-47.96 424.44,-44.61"/>
</g>
<!-- 10982 -->
<g id="node13" class="node">
<title>10982</title>
<path fill="#c0c0c0" stroke="black" d="M493.5,-36C493.5,-36 463.5,-36 463.5,-36 457.5,-36 451.5,-30 451.5,-24 451.5,-24 451.5,-12 451.5,-12 451.5,-6 457.5,0 463.5,0 463.5,0 493.5,0 493.5,0 499.5,0 505.5,-6 505.5,-12 505.5,-12 505.5,-24 505.5,-24 505.5,-30 499.5,-36 493.5,-36"/>
<text text-anchor="middle" x="478.5" y="-13.32" font-family="Helvetica,sans-Serif" font-size="14.00">(...)</text>
</g>
<!-- 9296&#45;&gt;10982 -->
<g id="edge12" class="edge">
<title>9296&#45;&gt;10982</title>
<path fill="none" stroke="black" d="M468.92,-71.75C470.43,-63.42 471.97,-54.97 473.35,-47.34"/>
<polygon fill="black" stroke="black" points="476.77,-48.13 475.11,-37.66 469.88,-46.88 476.77,-48.13"/>
</g>
<!-- 11616 -->
<g id="node15" class="node">
<title>11616</title>
<path fill="#c0c0c0" stroke="black" d="M601.5,-36C601.5,-36 571.5,-36 571.5,-36 565.5,-36 559.5,-30 559.5,-24 559.5,-24 559.5,-12 559.5,-12 559.5,-6 565.5,0 571.5,0 571.5,0 601.5,0 601.5,0 607.5,0 613.5,-6 613.5,-12 613.5,-12 613.5,-24 613.5,-24 613.5,-30 607.5,-36 601.5,-36"/>
<text text-anchor="middle" x="586.5" y="-13.32" font-family="Helvetica,sans-Serif" font-size="14.00">(...)</text>
</g>
<!-- 11615&#45;&gt;11616 -->
<g id="edge14" class="edge">
<title>11615&#45;&gt;11616</title>
<path fill="none" stroke="black" d="M615.24,-71.75C610.48,-63.03 605.66,-54.16 601.35,-46.26"/>
<polygon fill="black" stroke="black" points="604.44,-44.61 596.58,-37.5 598.29,-47.96 604.44,-44.61"/>
</g>
<!-- 12237 -->
<g id="node16" class="node">
<title>12237</title>
<path fill="#c0c0c0" stroke="black" d="M673.5,-36C673.5,-36 643.5,-36 643.5,-36 637.5,-36 631.5,-30 631.5,-24 631.5,-24 631.5,-12 631.5,-12 631.5,-6 637.5,0 643.5,0 643.5,0 673.5,0 673.5,0 679.5,0 685.5,-6 685.5,-12 685.5,-12 685.5,-24 685.5,-24 685.5,-30 679.5,-36 673.5,-36"/>
<text text-anchor="middle" x="658.5" y="-13.32" font-family="Helvetica,sans-Serif" font-size="14.00">(...)</text>
</g>
<!-- 11615&#45;&gt;12237 -->
<g id="edge15" class="edge">
<title>11615&#45;&gt;12237</title>
<path fill="none" stroke="black" d="M648.92,-71.75C650.43,-63.42 651.97,-54.97 653.35,-47.34"/>
<polygon fill="black" stroke="black" points="656.77,-48.13 655.11,-37.66 649.88,-46.88 656.77,-48.13"/>
</g>
<!-- 12247 -->
<g id="node18" class="node">
<title>12247</title>
<path fill="#a7d3f3" stroke="black" d="M983,-296.5C983,-296.5 832,-296.5 832,-296.5 826,-296.5 820,-290.5 820,-284.5 820,-284.5 820,-214.25 820,-214.25 820,-208.25 826,-202.25 832,-202.25 832,-202.25 983,-202.25 983,-202.25 989,-202.25 995,-208.25 995,-214.25 995,-214.25 995,-284.5 995,-284.5 995,-290.5 989,-296.5 983,-296.5"/>
<text text-anchor="middle" x="907.5" y="-279.2" font-family="Helvetica,sans-Serif" font-size="14.00">19_U &lt;= 0.5</text>
<text text-anchor="middle" x="907.5" y="-261.95" font-family="Helvetica,sans-Serif" font-size="14.00">entropy = 0.94</text>
<text text-anchor="middle" x="907.5" y="-244.7" font-family="Helvetica,sans-Serif" font-size="14.00">samples = 10772</text>
<text text-anchor="middle" x="907.5" y="-227.45" font-family="Helvetica,sans-Serif" font-size="14.00">value = [6090, 10970]</text>
<text text-anchor="middle" x="907.5" y="-210.2" font-family="Helvetica,sans-Serif" font-size="14.00">class = Plant</text>
</g>
<!-- 12246&#45;&gt;12247 -->
<g id="edge17" class="edge">
<title>12246&#45;&gt;12247</title>
<path fill="none" stroke="black" d="M907.5,-332.32C907.5,-324.42 907.5,-316.13 907.5,-307.98"/>
<polygon fill="black" stroke="black" points="911,-308.12 907.5,-298.12 904,-308.12 911,-308.12"/>
</g>
<!-- 16310 -->
<g id="node25" class="node">
<title>16310</title>
<path fill="#f4caac" stroke="black" d="M1246,-296.5C1246,-296.5 1113,-296.5 1113,-296.5 1107,-296.5 1101,-290.5 1101,-284.5 1101,-284.5 1101,-214.25 1101,-214.25 1101,-208.25 1107,-202.25 1113,-202.25 1113,-202.25 1246,-202.25 1246,-202.25 1252,-202.25 1258,-208.25 1258,-214.25 1258,-214.25 1258,-284.5 1258,-284.5 1258,-290.5 1252,-296.5 1246,-296.5"/>
<text text-anchor="middle" x="1179.5" y="-279.2" font-family="Helvetica,sans-Serif" font-size="14.00">2_G &lt;= 0.5</text>
<text text-anchor="middle" x="1179.5" y="-261.95" font-family="Helvetica,sans-Serif" font-size="14.00">entropy = 0.948</text>
<text text-anchor="middle" x="1179.5" y="-244.7" font-family="Helvetica,sans-Serif" font-size="14.00">samples = 1088</text>
<text text-anchor="middle" x="1179.5" y="-227.45" font-family="Helvetica,sans-Serif" font-size="14.00">value = [1065, 617]</text>
<text text-anchor="middle" x="1179.5" y="-210.2" font-family="Helvetica,sans-Serif" font-size="14.00">class = Animal</text>
</g>
<!-- 12246&#45;&gt;16310 -->
<g id="edge24" class="edge">
<title>12246&#45;&gt;16310</title>
<path fill="none" stroke="black" d="M995.43,-337.16C1025.83,-322.83 1059.91,-306.76 1090.4,-292.38"/>
<polygon fill="black" stroke="black" points="1091.68,-295.65 1099.23,-288.22 1088.69,-289.32 1091.68,-295.65"/>
</g>
<!-- 12248 -->
<g id="node19" class="node">
<title>12248</title>
<path fill="#91c9f1" stroke="black" d="M891.5,-166.25C891.5,-166.25 749.5,-166.25 749.5,-166.25 743.5,-166.25 737.5,-160.25 737.5,-154.25 737.5,-154.25 737.5,-84 737.5,-84 737.5,-78 743.5,-72 749.5,-72 749.5,-72 891.5,-72 891.5,-72 897.5,-72 903.5,-78 903.5,-84 903.5,-84 903.5,-154.25 903.5,-154.25 903.5,-160.25 897.5,-166.25 891.5,-166.25"/>
<text text-anchor="middle" x="820.5" y="-148.95" font-family="Helvetica,sans-Serif" font-size="14.00">22_U &lt;= 0.5</text>
<text text-anchor="middle" x="820.5" y="-131.7" font-family="Helvetica,sans-Serif" font-size="14.00">entropy = 0.892</text>
<text text-anchor="middle" x="820.5" y="-114.45" font-family="Helvetica,sans-Serif" font-size="14.00">samples = 8770</text>
<text text-anchor="middle" x="820.5" y="-97.2" font-family="Helvetica,sans-Serif" font-size="14.00">value = [4287, 9601]</text>
<text text-anchor="middle" x="820.5" y="-79.95" font-family="Helvetica,sans-Serif" font-size="14.00">class = Plant</text>
</g>
<!-- 12247&#45;&gt;12248 -->
<g id="edge18" class="edge">
<title>12247&#45;&gt;12248</title>
<path fill="none" stroke="black" d="M876.09,-202.07C870.3,-193.54 864.2,-184.54 858.25,-175.77"/>
<polygon fill="black" stroke="black" points="861.22,-173.92 852.71,-167.61 855.43,-177.85 861.22,-173.92"/>
</g>
<!-- 15183 -->
<g id="node22" class="node">
<title>15183</title>
<path fill="#f9e1cf" stroke="black" d="M1075.5,-166.25C1075.5,-166.25 933.5,-166.25 933.5,-166.25 927.5,-166.25 921.5,-160.25 921.5,-154.25 921.5,-154.25 921.5,-84 921.5,-84 921.5,-78 927.5,-72 933.5,-72 933.5,-72 1075.5,-72 1075.5,-72 1081.5,-72 1087.5,-78 1087.5,-84 1087.5,-84 1087.5,-154.25 1087.5,-154.25 1087.5,-160.25 1081.5,-166.25 1075.5,-166.25"/>
<text text-anchor="middle" x="1004.5" y="-148.95" font-family="Helvetica,sans-Serif" font-size="14.00">9_U &lt;= 0.5</text>
<text text-anchor="middle" x="1004.5" y="-131.7" font-family="Helvetica,sans-Serif" font-size="14.00">entropy = 0.986</text>
<text text-anchor="middle" x="1004.5" y="-114.45" font-family="Helvetica,sans-Serif" font-size="14.00">samples = 2002</text>
<text text-anchor="middle" x="1004.5" y="-97.2" font-family="Helvetica,sans-Serif" font-size="14.00">value = [1803, 1369]</text>
<text text-anchor="middle" x="1004.5" y="-79.95" font-family="Helvetica,sans-Serif" font-size="14.00">class = Animal</text>
</g>
<!-- 12247&#45;&gt;15183 -->
<g id="edge21" class="edge">
<title>12247&#45;&gt;15183</title>
<path fill="none" stroke="black" d="M942.52,-202.07C949.04,-193.45 955.92,-184.35 962.63,-175.49"/>
<polygon fill="black" stroke="black" points="965.38,-177.65 968.62,-167.57 959.8,-173.43 965.38,-177.65"/>
</g>
<!-- 12249 -->
<g id="node20" class="node">
<title>12249</title>
<path fill="#c0c0c0" stroke="black" d="M783.5,-36C783.5,-36 753.5,-36 753.5,-36 747.5,-36 741.5,-30 741.5,-24 741.5,-24 741.5,-12 741.5,-12 741.5,-6 747.5,0 753.5,0 753.5,0 783.5,0 783.5,0 789.5,0 795.5,-6 795.5,-12 795.5,-12 795.5,-24 795.5,-24 795.5,-30 789.5,-36 783.5,-36"/>
<text text-anchor="middle" x="768.5" y="-13.32" font-family="Helvetica,sans-Serif" font-size="14.00">(...)</text>
</g>
<!-- 12248&#45;&gt;12249 -->
<g id="edge19" class="edge">
<title>12248&#45;&gt;12249</title>
<path fill="none" stroke="black" d="M796.17,-71.75C791.6,-63.03 786.95,-54.16 782.8,-46.26"/>
<polygon fill="black" stroke="black" points="785.96,-44.74 778.21,-37.51 779.76,-47.99 785.96,-44.74"/>
</g>
<!-- 14794 -->
<g id="node21" class="node">
<title>14794</title>
<path fill="#c0c0c0" stroke="black" d="M855.5,-36C855.5,-36 825.5,-36 825.5,-36 819.5,-36 813.5,-30 813.5,-24 813.5,-24 813.5,-12 813.5,-12 813.5,-6 819.5,0 825.5,0 825.5,0 855.5,0 855.5,0 861.5,0 867.5,-6 867.5,-12 867.5,-12 867.5,-24 867.5,-24 867.5,-30 861.5,-36 855.5,-36"/>
<text text-anchor="middle" x="840.5" y="-13.32" font-family="Helvetica,sans-Serif" font-size="14.00">(...)</text>
</g>
<!-- 12248&#45;&gt;14794 -->
<g id="edge20" class="edge">
<title>12248&#45;&gt;14794</title>
<path fill="none" stroke="black" d="M829.86,-71.75C831.54,-63.42 833.24,-54.97 834.78,-47.34"/>
<polygon fill="black" stroke="black" points="838.19,-48.15 836.74,-37.66 831.33,-46.77 838.19,-48.15"/>
</g>
<!-- 15184 -->
<g id="node23" class="node">
<title>15184</title>
<path fill="#c0c0c0" stroke="black" d="M962.5,-36C962.5,-36 932.5,-36 932.5,-36 926.5,-36 920.5,-30 920.5,-24 920.5,-24 920.5,-12 920.5,-12 920.5,-6 926.5,0 932.5,0 932.5,0 962.5,0 962.5,0 968.5,0 974.5,-6 974.5,-12 974.5,-12 974.5,-24 974.5,-24 974.5,-30 968.5,-36 962.5,-36"/>
<text text-anchor="middle" x="947.5" y="-13.32" font-family="Helvetica,sans-Serif" font-size="14.00">(...)</text>
</g>
<!-- 15183&#45;&gt;15184 -->
<g id="edge22" class="edge">
<title>15183&#45;&gt;15184</title>
<path fill="none" stroke="black" d="M977.84,-71.75C972.76,-62.93 967.6,-53.96 963.02,-45.99"/>
<polygon fill="black" stroke="black" points="966.15,-44.41 958.13,-37.48 960.08,-47.9 966.15,-44.41"/>
</g>
<!-- 16005 -->
<g id="node24" class="node">
<title>16005</title>
<path fill="#c0c0c0" stroke="black" d="M1034.5,-36C1034.5,-36 1004.5,-36 1004.5,-36 998.5,-36 992.5,-30 992.5,-24 992.5,-24 992.5,-12 992.5,-12 992.5,-6 998.5,0 1004.5,0 1004.5,0 1034.5,0 1034.5,0 1040.5,0 1046.5,-6 1046.5,-12 1046.5,-12 1046.5,-24 1046.5,-24 1046.5,-30 1040.5,-36 1034.5,-36"/>
<text text-anchor="middle" x="1019.5" y="-13.32" font-family="Helvetica,sans-Serif" font-size="14.00">(...)</text>
</g>
<!-- 15183&#45;&gt;16005 -->
<g id="edge23" class="edge">
<title>15183&#45;&gt;16005</title>
<path fill="none" stroke="black" d="M1011.52,-71.75C1012.78,-63.42 1014.06,-54.97 1015.21,-47.34"/>
<polygon fill="black" stroke="black" points="1018.64,-48.08 1016.67,-37.67 1011.72,-47.03 1018.64,-48.08"/>
</g>
<!-- 16311 -->
<g id="node26" class="node">
<title>16311</title>
<path fill="#eeaf81" stroke="black" d="M1241.5,-166.25C1241.5,-166.25 1117.5,-166.25 1117.5,-166.25 1111.5,-166.25 1105.5,-160.25 1105.5,-154.25 1105.5,-154.25 1105.5,-84 1105.5,-84 1105.5,-78 1111.5,-72 1117.5,-72 1117.5,-72 1241.5,-72 1241.5,-72 1247.5,-72 1253.5,-78 1253.5,-84 1253.5,-84 1253.5,-154.25 1253.5,-154.25 1253.5,-160.25 1247.5,-166.25 1241.5,-166.25"/>
<text text-anchor="middle" x="1179.5" y="-148.95" font-family="Helvetica,sans-Serif" font-size="14.00">6_A &lt;= 0.5</text>
<text text-anchor="middle" x="1179.5" y="-131.7" font-family="Helvetica,sans-Serif" font-size="14.00">entropy = 0.835</text>
<text text-anchor="middle" x="1179.5" y="-114.45" font-family="Helvetica,sans-Serif" font-size="14.00">samples = 734</text>
<text text-anchor="middle" x="1179.5" y="-97.2" font-family="Helvetica,sans-Serif" font-size="14.00">value = [824, 298]</text>
<text text-anchor="middle" x="1179.5" y="-79.95" font-family="Helvetica,sans-Serif" font-size="14.00">class = Animal</text>
</g>
<!-- 16310&#45;&gt;16311 -->
<g id="edge25" class="edge">
<title>16310&#45;&gt;16311</title>
<path fill="none" stroke="black" d="M1179.5,-202.07C1179.5,-194.17 1179.5,-185.88 1179.5,-177.73"/>
<polygon fill="black" stroke="black" points="1183,-177.87 1179.5,-167.87 1176,-177.87 1183,-177.87"/>
</g>
<!-- 16674 -->
<g id="node29" class="node">
<title>16674</title>
<path fill="#cfe7f9" stroke="black" d="M1407.5,-166.25C1407.5,-166.25 1283.5,-166.25 1283.5,-166.25 1277.5,-166.25 1271.5,-160.25 1271.5,-154.25 1271.5,-154.25 1271.5,-84 1271.5,-84 1271.5,-78 1277.5,-72 1283.5,-72 1283.5,-72 1407.5,-72 1407.5,-72 1413.5,-72 1419.5,-78 1419.5,-84 1419.5,-84 1419.5,-154.25 1419.5,-154.25 1419.5,-160.25 1413.5,-166.25 1407.5,-166.25"/>
<text text-anchor="middle" x="1345.5" y="-148.95" font-family="Helvetica,sans-Serif" font-size="14.00">5_A &lt;= 0.5</text>
<text text-anchor="middle" x="1345.5" y="-131.7" font-family="Helvetica,sans-Serif" font-size="14.00">entropy = 0.986</text>
<text text-anchor="middle" x="1345.5" y="-114.45" font-family="Helvetica,sans-Serif" font-size="14.00">samples = 354</text>
<text text-anchor="middle" x="1345.5" y="-97.2" font-family="Helvetica,sans-Serif" font-size="14.00">value = [241, 319]</text>
<text text-anchor="middle" x="1345.5" y="-79.95" font-family="Helvetica,sans-Serif" font-size="14.00">class = Plant</text>
</g>
<!-- 16310&#45;&gt;16674 -->
<g id="edge28" class="edge">
<title>16310&#45;&gt;16674</title>
<path fill="none" stroke="black" d="M1239.43,-202.07C1251.46,-192.78 1264.2,-182.94 1276.51,-173.43"/>
<polygon fill="black" stroke="black" points="1278.41,-176.38 1284.18,-167.5 1274.13,-170.84 1278.41,-176.38"/>
</g>
<!-- 16312 -->
<g id="node27" class="node">
<title>16312</title>
<path fill="#c0c0c0" stroke="black" d="M1151.5,-36C1151.5,-36 1121.5,-36 1121.5,-36 1115.5,-36 1109.5,-30 1109.5,-24 1109.5,-24 1109.5,-12 1109.5,-12 1109.5,-6 1115.5,0 1121.5,0 1121.5,0 1151.5,0 1151.5,0 1157.5,0 1163.5,-6 1163.5,-12 1163.5,-12 1163.5,-24 1163.5,-24 1163.5,-30 1157.5,-36 1151.5,-36"/>
<text text-anchor="middle" x="1136.5" y="-13.32" font-family="Helvetica,sans-Serif" font-size="14.00">(...)</text>
</g>
<!-- 16311&#45;&gt;16312 -->
<g id="edge26" class="edge">
<title>16311&#45;&gt;16312</title>
<path fill="none" stroke="black" d="M1159.38,-71.75C1155.64,-63.12 1151.84,-54.36 1148.44,-46.53"/>
<polygon fill="black" stroke="black" points="1151.74,-45.34 1144.55,-37.56 1145.32,-48.13 1151.74,-45.34"/>
</g>
<!-- 16581 -->
<g id="node28" class="node">
<title>16581</title>
<path fill="#c0c0c0" stroke="black" d="M1223.5,-36C1223.5,-36 1193.5,-36 1193.5,-36 1187.5,-36 1181.5,-30 1181.5,-24 1181.5,-24 1181.5,-12 1181.5,-12 1181.5,-6 1187.5,0 1193.5,0 1193.5,0 1223.5,0 1223.5,0 1229.5,0 1235.5,-6 1235.5,-12 1235.5,-12 1235.5,-24 1235.5,-24 1235.5,-30 1229.5,-36 1223.5,-36"/>
<text text-anchor="middle" x="1208.5" y="-13.32" font-family="Helvetica,sans-Serif" font-size="14.00">(...)</text>
</g>
<!-- 16311&#45;&gt;16581 -->
<g id="edge27" class="edge">
<title>16311&#45;&gt;16581</title>
<path fill="none" stroke="black" d="M1193.07,-71.75C1195.53,-63.32 1198.04,-54.77 1200.29,-47.07"/>
<polygon fill="black" stroke="black" points="1203.6,-48.21 1203.05,-37.63 1196.88,-46.24 1203.6,-48.21"/>
</g>
<!-- 16675 -->
<g id="node30" class="node">
<title>16675</title>
<path fill="#c0c0c0" stroke="black" d="M1324.5,-36C1324.5,-36 1294.5,-36 1294.5,-36 1288.5,-36 1282.5,-30 1282.5,-24 1282.5,-24 1282.5,-12 1282.5,-12 1282.5,-6 1288.5,0 1294.5,0 1294.5,0 1324.5,0 1324.5,0 1330.5,0 1336.5,-6 1336.5,-12 1336.5,-12 1336.5,-24 1336.5,-24 1336.5,-30 1330.5,-36 1324.5,-36"/>
<text text-anchor="middle" x="1309.5" y="-13.32" font-family="Helvetica,sans-Serif" font-size="14.00">(...)</text>
</g>
<!-- 16674&#45;&gt;16675 -->
<g id="edge29" class="edge">
<title>16674&#45;&gt;16675</title>
<path fill="none" stroke="black" d="M1328.66,-71.75C1325.56,-63.22 1322.42,-54.57 1319.6,-46.8"/>
<polygon fill="black" stroke="black" points="1322.96,-45.8 1316.25,-37.6 1316.38,-48.19 1322.96,-45.8"/>
</g>
<!-- 16796 -->
<g id="node31" class="node">
<title>16796</title>
<path fill="#c0c0c0" stroke="black" d="M1396.5,-36C1396.5,-36 1366.5,-36 1366.5,-36 1360.5,-36 1354.5,-30 1354.5,-24 1354.5,-24 1354.5,-12 1354.5,-12 1354.5,-6 1360.5,0 1366.5,0 1366.5,0 1396.5,0 1396.5,0 1402.5,0 1408.5,-6 1408.5,-12 1408.5,-12 1408.5,-24 1408.5,-24 1408.5,-30 1402.5,-36 1396.5,-36"/>
<text text-anchor="middle" x="1381.5" y="-13.32" font-family="Helvetica,sans-Serif" font-size="14.00">(...)</text>
</g>
<!-- 16674&#45;&gt;16796 -->
<g id="edge30" class="edge">
<title>16674&#45;&gt;16796</title>
<path fill="none" stroke="black" d="M1362.34,-71.75C1365.44,-63.22 1368.58,-54.57 1371.4,-46.8"/>
<polygon fill="black" stroke="black" points="1374.62,-48.19 1374.75,-37.6 1368.04,-45.8 1374.62,-48.19"/>
</g>
</g>
</svg>
