<?xml version="1.0" encoding="UTF-8" standalone="no"?>
<!DOCTYPE svg PUBLIC "-//W3C//DTD SVG 1.1//EN"
 "http://www.w3.org/Graphics/SVG/1.1/DTD/svg11.dtd">
<!-- Generated by graphviz version 12.0.0 (20240803.0821)
 -->
<!-- Title: Tree Pages: 1 -->
<svg width="1409pt" height="565pt"
 viewBox="0.00 0.00 1408.50 565.00" xmlns="http://www.w3.org/2000/svg" xmlns:xlink="http://www.w3.org/1999/xlink">
<g id="graph0" class="graph" transform="scale(1 1) rotate(0) translate(4 561)">
<title>Tree</title>
<polygon fill="white" stroke="none" points="-4,4 -4,-561 1404.5,-561 1404.5,4 -4,4"/>
<!-- 0 -->
<g id="node1" class="node">
<title>0</title>
<path fill="#fffefe" stroke="black" d="M781,-557C781,-557 621,-557 621,-557 615,-557 609,-551 609,-545 609,-545 609,-474.75 609,-474.75 609,-468.75 615,-462.75 621,-462.75 621,-462.75 781,-462.75 781,-462.75 787,-462.75 793,-468.75 793,-474.75 793,-474.75 793,-545 793,-545 793,-551 787,-557 781,-557"/>
<text text-anchor="middle" x="701" y="-539.7" font-family="Helvetica,sans-Serif" font-size="14.00">19_C &lt;= 0.5</text>
<text text-anchor="middle" x="701" y="-522.45" font-family="Helvetica,sans-Serif" font-size="14.00">entropy = 1.0</text>
<text text-anchor="middle" x="701" y="-505.2" font-family="Helvetica,sans-Serif" font-size="14.00">samples = 38224</text>
<text text-anchor="middle" x="701" y="-487.95" font-family="Helvetica,sans-Serif" font-size="14.00">value = [30279, 30066]</text>
<text text-anchor="middle" x="701" y="-470.7" font-family="Helvetica,sans-Serif" font-size="14.00">class = Animal</text>
</g>
<!-- 1 -->
<g id="node2" class="node">
<title>1</title>
<path fill="#f8dfcc" stroke="black" d="M618,-426.75C618,-426.75 458,-426.75 458,-426.75 452,-426.75 446,-420.75 446,-414.75 446,-414.75 446,-344.5 446,-344.5 446,-338.5 452,-332.5 458,-332.5 458,-332.5 618,-332.5 618,-332.5 624,-332.5 630,-338.5 630,-344.5 630,-344.5 630,-414.75 630,-414.75 630,-420.75 624,-426.75 618,-426.75"/>
<text text-anchor="middle" x="538" y="-409.45" font-family="Helvetica,sans-Serif" font-size="14.00">23_C &lt;= 0.5</text>
<text text-anchor="middle" x="538" y="-392.2" font-family="Helvetica,sans-Serif" font-size="14.00">entropy = 0.984</text>
<text text-anchor="middle" x="538" y="-374.95" font-family="Helvetica,sans-Serif" font-size="14.00">samples = 25887</text>
<text text-anchor="middle" x="538" y="-357.7" font-family="Helvetica,sans-Serif" font-size="14.00">value = [23489, 17443]</text>
<text text-anchor="middle" x="538" y="-340.45" font-family="Helvetica,sans-Serif" font-size="14.00">class = Animal</text>
</g>
<!-- 0&#45;&gt;1 -->
<g id="edge1" class="edge">
<title>0&#45;&gt;1</title>
<path fill="none" stroke="black" d="M642.15,-462.57C630.34,-453.28 617.84,-443.44 605.75,-433.93"/>
<polygon fill="black" stroke="black" points="608.25,-431.44 598.22,-428.01 603.92,-436.94 608.25,-431.44"/>
<text text-anchor="middle" x="600" y="-447.22" font-family="Helvetica,sans-Serif" font-size="14.00">True</text>
</g>
<!-- 12714 -->
<g id="node17" class="node">
<title>12714</title>
<path fill="#a4d2f3" stroke="black" d="M966.5,-426.75C966.5,-426.75 815.5,-426.75 815.5,-426.75 809.5,-426.75 803.5,-420.75 803.5,-414.75 803.5,-414.75 803.5,-344.5 803.5,-344.5 803.5,-338.5 809.5,-332.5 815.5,-332.5 815.5,-332.5 966.5,-332.5 966.5,-332.5 972.5,-332.5 978.5,-338.5 978.5,-344.5 978.5,-344.5 978.5,-414.75 978.5,-414.75 978.5,-420.75 972.5,-426.75 966.5,-426.75"/>
<text text-anchor="middle" x="891" y="-409.45" font-family="Helvetica,sans-Serif" font-size="14.00">22_U &lt;= 0.5</text>
<text text-anchor="middle" x="891" y="-392.2" font-family="Helvetica,sans-Serif" font-size="14.00">entropy = 0.934</text>
<text text-anchor="middle" x="891" y="-374.95" font-family="Helvetica,sans-Serif" font-size="14.00">samples = 12337</text>
<text text-anchor="middle" x="891" y="-357.7" font-family="Helvetica,sans-Serif" font-size="14.00">value = [6790, 12623]</text>
<text text-anchor="middle" x="891" y="-340.45" font-family="Helvetica,sans-Serif" font-size="14.00">class = Plant</text>
</g>
<!-- 0&#45;&gt;12714 -->
<g id="edge16" class="edge">
<title>0&#45;&gt;12714</title>
<path fill="none" stroke="black" d="M769.86,-462.39C783.8,-452.98 798.55,-443.03 812.79,-433.42"/>
<polygon fill="black" stroke="black" points="814.47,-436.51 820.8,-428.01 810.55,-430.7 814.47,-436.51"/>
<text text-anchor="middle" x="817.29" y="-447.03" font-family="Helvetica,sans-Serif" font-size="14.00">False</text>
</g>
<!-- 2 -->
<g id="node3" class="node">
<title>2</title>
<path fill="#f9e2d1" stroke="black" d="M365,-296.5C365,-296.5 205,-296.5 205,-296.5 199,-296.5 193,-290.5 193,-284.5 193,-284.5 193,-214.25 193,-214.25 193,-208.25 199,-202.25 205,-202.25 205,-202.25 365,-202.25 365,-202.25 371,-202.25 377,-208.25 377,-214.25 377,-214.25 377,-284.5 377,-284.5 377,-290.5 371,-296.5 365,-296.5"/>
<text text-anchor="middle" x="285" y="-279.2" font-family="Helvetica,sans-Serif" font-size="14.00">13_A &lt;= 0.5</text>
<text text-anchor="middle" x="285" y="-261.95" font-family="Helvetica,sans-Serif" font-size="14.00">entropy = 0.988</text>
<text text-anchor="middle" x="285" y="-244.7" font-family="Helvetica,sans-Serif" font-size="14.00">samples = 24835</text>
<text text-anchor="middle" x="285" y="-227.45" font-family="Helvetica,sans-Serif" font-size="14.00">value = [22164, 17066]</text>
<text text-anchor="middle" x="285" y="-210.2" font-family="Helvetica,sans-Serif" font-size="14.00">class = Animal</text>
</g>
<!-- 1&#45;&gt;2 -->
<g id="edge2" class="edge">
<title>1&#45;&gt;2</title>
<path fill="none" stroke="black" d="M446.3,-332.14C427.04,-322.38 406.6,-312.02 386.98,-302.07"/>
<polygon fill="black" stroke="black" points="388.66,-299 378.16,-297.6 385.5,-305.24 388.66,-299"/>
</g>
<!-- 12233 -->
<g id="node10" class="node">
<title>12233</title>
<path fill="#eca571" stroke="black" d="M604.5,-296.5C604.5,-296.5 471.5,-296.5 471.5,-296.5 465.5,-296.5 459.5,-290.5 459.5,-284.5 459.5,-284.5 459.5,-214.25 459.5,-214.25 459.5,-208.25 465.5,-202.25 471.5,-202.25 471.5,-202.25 604.5,-202.25 604.5,-202.25 610.5,-202.25 616.5,-208.25 616.5,-214.25 616.5,-214.25 616.5,-284.5 616.5,-284.5 616.5,-290.5 610.5,-296.5 604.5,-296.5"/>
<text text-anchor="middle" x="538" y="-279.2" font-family="Helvetica,sans-Serif" font-size="14.00">1_U &lt;= 0.5</text>
<text text-anchor="middle" x="538" y="-261.95" font-family="Helvetica,sans-Serif" font-size="14.00">entropy = 0.763</text>
<text text-anchor="middle" x="538" y="-244.7" font-family="Helvetica,sans-Serif" font-size="14.00">samples = 1052</text>
<text text-anchor="middle" x="538" y="-227.45" font-family="Helvetica,sans-Serif" font-size="14.00">value = [1325, 377]</text>
<text text-anchor="middle" x="538" y="-210.2" font-family="Helvetica,sans-Serif" font-size="14.00">class = Animal</text>
</g>
<!-- 1&#45;&gt;12233 -->
<g id="edge9" class="edge">
<title>1&#45;&gt;12233</title>
<path fill="none" stroke="black" d="M538,-332.32C538,-324.42 538,-316.13 538,-307.98"/>
<polygon fill="black" stroke="black" points="541.5,-308.12 538,-298.12 534.5,-308.12 541.5,-308.12"/>
</g>
<!-- 3 -->
<g id="node4" class="node">
<title>3</title>
<path fill="#fae8da" stroke="black" d="M172,-166.25C172,-166.25 12,-166.25 12,-166.25 6,-166.25 0,-160.25 0,-154.25 0,-154.25 0,-84 0,-84 0,-78 6,-72 12,-72 12,-72 172,-72 172,-72 178,-72 184,-78 184,-84 184,-84 184,-154.25 184,-154.25 184,-160.25 178,-166.25 172,-166.25"/>
<text text-anchor="middle" x="92" y="-148.95" font-family="Helvetica,sans-Serif" font-size="14.00">9_U &lt;= 0.5</text>
<text text-anchor="middle" x="92" y="-131.7" font-family="Helvetica,sans-Serif" font-size="14.00">entropy = 0.992</text>
<text text-anchor="middle" x="92" y="-114.45" font-family="Helvetica,sans-Serif" font-size="14.00">samples = 19115</text>
<text text-anchor="middle" x="92" y="-97.2" font-family="Helvetica,sans-Serif" font-size="14.00">value = [16720, 13621]</text>
<text text-anchor="middle" x="92" y="-79.95" font-family="Helvetica,sans-Serif" font-size="14.00">class = Animal</text>
</g>
<!-- 2&#45;&gt;3 -->
<g id="edge3" class="edge">
<title>2&#45;&gt;3</title>
<path fill="none" stroke="black" d="M215.05,-201.89C200.89,-192.48 185.9,-182.53 171.45,-172.92"/>
<polygon fill="black" stroke="black" points="173.56,-170.12 163.3,-167.5 169.69,-175.95 173.56,-170.12"/>
</g>
<!-- 9184 -->
<g id="node7" class="node">
<title>9184</title>
<path fill="#f5d1b6" stroke="black" d="M356,-166.25C356,-166.25 214,-166.25 214,-166.25 208,-166.25 202,-160.25 202,-154.25 202,-154.25 202,-84 202,-84 202,-78 208,-72 214,-72 214,-72 356,-72 356,-72 362,-72 368,-78 368,-84 368,-84 368,-154.25 368,-154.25 368,-160.25 362,-166.25 356,-166.25"/>
<text text-anchor="middle" x="285" y="-148.95" font-family="Helvetica,sans-Serif" font-size="14.00">8_G &lt;= 0.5</text>
<text text-anchor="middle" x="285" y="-131.7" font-family="Helvetica,sans-Serif" font-size="14.00">entropy = 0.963</text>
<text text-anchor="middle" x="285" y="-114.45" font-family="Helvetica,sans-Serif" font-size="14.00">samples = 5720</text>
<text text-anchor="middle" x="285" y="-97.2" font-family="Helvetica,sans-Serif" font-size="14.00">value = [5444, 3445]</text>
<text text-anchor="middle" x="285" y="-79.95" font-family="Helvetica,sans-Serif" font-size="14.00">class = Animal</text>
</g>
<!-- 2&#45;&gt;9184 -->
<g id="edge6" class="edge">
<title>2&#45;&gt;9184</title>
<path fill="none" stroke="black" d="M285,-202.07C285,-194.17 285,-185.88 285,-177.73"/>
<polygon fill="black" stroke="black" points="288.5,-177.87 285,-167.87 281.5,-177.87 288.5,-177.87"/>
</g>
<!-- 4 -->
<g id="node5" class="node">
<title>4</title>
<path fill="#c0c0c0" stroke="black" d="M71,-36C71,-36 41,-36 41,-36 35,-36 29,-30 29,-24 29,-24 29,-12 29,-12 29,-6 35,0 41,0 41,0 71,0 71,0 77,0 83,-6 83,-12 83,-12 83,-24 83,-24 83,-30 77,-36 71,-36"/>
<text text-anchor="middle" x="56" y="-13.32" font-family="Helvetica,sans-Serif" font-size="14.00">(...)</text>
</g>
<!-- 3&#45;&gt;4 -->
<g id="edge4" class="edge">
<title>3&#45;&gt;4</title>
<path fill="none" stroke="black" d="M75.16,-71.75C72.06,-63.22 68.92,-54.57 66.1,-46.8"/>
<polygon fill="black" stroke="black" points="69.46,-45.8 62.75,-37.6 62.88,-48.19 69.46,-45.8"/>
</g>
<!-- 6597 -->
<g id="node6" class="node">
<title>6597</title>
<path fill="#c0c0c0" stroke="black" d="M143,-36C143,-36 113,-36 113,-36 107,-36 101,-30 101,-24 101,-24 101,-12 101,-12 101,-6 107,0 113,0 113,0 143,0 143,0 149,0 155,-6 155,-12 155,-12 155,-24 155,-24 155,-30 149,-36 143,-36"/>
<text text-anchor="middle" x="128" y="-13.32" font-family="Helvetica,sans-Serif" font-size="14.00">(...)</text>
</g>
<!-- 3&#45;&gt;6597 -->
<g id="edge5" class="edge">
<title>3&#45;&gt;6597</title>
<path fill="none" stroke="black" d="M108.84,-71.75C111.94,-63.22 115.08,-54.57 117.9,-46.8"/>
<polygon fill="black" stroke="black" points="121.12,-48.19 121.25,-37.6 114.54,-45.8 121.12,-48.19"/>
</g>
<!-- 9185 -->
<g id="node8" class="node">
<title>9185</title>
<path fill="#c0c0c0" stroke="black" d="M255,-36C255,-36 225,-36 225,-36 219,-36 213,-30 213,-24 213,-24 213,-12 213,-12 213,-6 219,0 225,0 225,0 255,0 255,0 261,0 267,-6 267,-12 267,-12 267,-24 267,-24 267,-30 261,-36 255,-36"/>
<text text-anchor="middle" x="240" y="-13.32" font-family="Helvetica,sans-Serif" font-size="14.00">(...)</text>
</g>
<!-- 9184&#45;&gt;9185 -->
<g id="edge7" class="edge">
<title>9184&#45;&gt;9185</title>
<path fill="none" stroke="black" d="M263.95,-71.75C260.03,-63.12 256.05,-54.36 252.5,-46.53"/>
<polygon fill="black" stroke="black" points="255.74,-45.21 248.42,-37.55 249.37,-48.1 255.74,-45.21"/>
</g>
<!-- 11408 -->
<g id="node9" class="node">
<title>11408</title>
<path fill="#c0c0c0" stroke="black" d="M327,-36C327,-36 297,-36 297,-36 291,-36 285,-30 285,-24 285,-24 285,-12 285,-12 285,-6 291,0 297,0 297,0 327,0 327,0 333,0 339,-6 339,-12 339,-12 339,-24 339,-24 339,-30 333,-36 327,-36"/>
<text text-anchor="middle" x="312" y="-13.32" font-family="Helvetica,sans-Serif" font-size="14.00">(...)</text>
</g>
<!-- 9184&#45;&gt;11408 -->
<g id="edge8" class="edge">
<title>9184&#45;&gt;11408</title>
<path fill="none" stroke="black" d="M297.63,-71.75C299.93,-63.32 302.26,-54.77 304.35,-47.07"/>
<polygon fill="black" stroke="black" points="307.67,-48.2 306.92,-37.63 300.92,-46.36 307.67,-48.2"/>
</g>
<!-- 12234 -->
<g id="node11" class="node">
<title>12234</title>
<path fill="#efb387" stroke="black" d="M522,-166.25C522,-166.25 398,-166.25 398,-166.25 392,-166.25 386,-160.25 386,-154.25 386,-154.25 386,-84 386,-84 386,-78 392,-72 398,-72 398,-72 522,-72 522,-72 528,-72 534,-78 534,-84 534,-84 534,-154.25 534,-154.25 534,-160.25 528,-166.25 522,-166.25"/>
<text text-anchor="middle" x="460" y="-148.95" font-family="Helvetica,sans-Serif" font-size="14.00">20_C &lt;= 0.5</text>
<text text-anchor="middle" x="460" y="-131.7" font-family="Helvetica,sans-Serif" font-size="14.00">entropy = 0.86</text>
<text text-anchor="middle" x="460" y="-114.45" font-family="Helvetica,sans-Serif" font-size="14.00">samples = 578</text>
<text text-anchor="middle" x="460" y="-97.2" font-family="Helvetica,sans-Serif" font-size="14.00">value = [679, 268]</text>
<text text-anchor="middle" x="460" y="-79.95" font-family="Helvetica,sans-Serif" font-size="14.00">class = Animal</text>
</g>
<!-- 12233&#45;&gt;12234 -->
<g id="edge10" class="edge">
<title>12233&#45;&gt;12234</title>
<path fill="none" stroke="black" d="M509.84,-202.07C504.7,-193.63 499.3,-184.74 494.01,-176.05"/>
<polygon fill="black" stroke="black" points="497.09,-174.38 488.9,-167.65 491.11,-178.01 497.09,-174.38"/>
</g>
<!-- 12543 -->
<g id="node14" class="node">
<title>12543</title>
<path fill="#e9965a" stroke="black" d="M688,-166.25C688,-166.25 564,-166.25 564,-166.25 558,-166.25 552,-160.25 552,-154.25 552,-154.25 552,-84 552,-84 552,-78 558,-72 564,-72 564,-72 688,-72 688,-72 694,-72 700,-78 700,-84 700,-84 700,-154.25 700,-154.25 700,-160.25 694,-166.25 688,-166.25"/>
<text text-anchor="middle" x="626" y="-148.95" font-family="Helvetica,sans-Serif" font-size="14.00">10_C &lt;= 0.5</text>
<text text-anchor="middle" x="626" y="-131.7" font-family="Helvetica,sans-Serif" font-size="14.00">entropy = 0.596</text>
<text text-anchor="middle" x="626" y="-114.45" font-family="Helvetica,sans-Serif" font-size="14.00">samples = 474</text>
<text text-anchor="middle" x="626" y="-97.2" font-family="Helvetica,sans-Serif" font-size="14.00">value = [646, 109]</text>
<text text-anchor="middle" x="626" y="-79.95" font-family="Helvetica,sans-Serif" font-size="14.00">class = Animal</text>
</g>
<!-- 12233&#45;&gt;12543 -->
<g id="edge13" class="edge">
<title>12233&#45;&gt;12543</title>
<path fill="none" stroke="black" d="M569.77,-202.07C575.63,-193.54 581.8,-184.54 587.82,-175.77"/>
<polygon fill="black" stroke="black" points="590.65,-177.83 593.42,-167.61 584.88,-173.87 590.65,-177.83"/>
</g>
<!-- 12235 -->
<g id="node12" class="node">
<title>12235</title>
<path fill="#c0c0c0" stroke="black" d="M414,-36C414,-36 384,-36 384,-36 378,-36 372,-30 372,-24 372,-24 372,-12 372,-12 372,-6 378,0 384,0 384,0 414,0 414,0 420,0 426,-6 426,-12 426,-12 426,-24 426,-24 426,-30 420,-36 414,-36"/>
<text text-anchor="middle" x="399" y="-13.32" font-family="Helvetica,sans-Serif" font-size="14.00">(...)</text>
</g>
<!-- 12234&#45;&gt;12235 -->
<g id="edge11" class="edge">
<title>12234&#45;&gt;12235</title>
<path fill="none" stroke="black" d="M431.46,-71.75C425.97,-62.83 420.39,-53.76 415.44,-45.72"/>
<polygon fill="black" stroke="black" points="418.58,-44.14 410.36,-37.46 412.62,-47.81 418.58,-44.14"/>
</g>
<!-- 12460 -->
<g id="node13" class="node">
<title>12460</title>
<path fill="#c0c0c0" stroke="black" d="M486,-36C486,-36 456,-36 456,-36 450,-36 444,-30 444,-24 444,-24 444,-12 444,-12 444,-6 450,0 456,0 456,0 486,0 486,0 492,0 498,-6 498,-12 498,-12 498,-24 498,-24 498,-30 492,-36 486,-36"/>
<text text-anchor="middle" x="471" y="-13.32" font-family="Helvetica,sans-Serif" font-size="14.00">(...)</text>
</g>
<!-- 12234&#45;&gt;12460 -->
<g id="edge12" class="edge">
<title>12234&#45;&gt;12460</title>
<path fill="none" stroke="black" d="M465.15,-71.75C466.06,-63.52 466.99,-55.17 467.82,-47.61"/>
<polygon fill="black" stroke="black" points="471.3,-48 468.93,-37.68 464.35,-47.23 471.3,-48"/>
</g>
<!-- 12544 -->
<g id="node15" class="node">
<title>12544</title>
<path fill="#c0c0c0" stroke="black" d="M584,-36C584,-36 554,-36 554,-36 548,-36 542,-30 542,-24 542,-24 542,-12 542,-12 542,-6 548,0 554,0 554,0 584,0 584,0 590,0 596,-6 596,-12 596,-12 596,-24 596,-24 596,-30 590,-36 584,-36"/>
<text text-anchor="middle" x="569" y="-13.32" font-family="Helvetica,sans-Serif" font-size="14.00">(...)</text>
</g>
<!-- 12543&#45;&gt;12544 -->
<g id="edge14" class="edge">
<title>12543&#45;&gt;12544</title>
<path fill="none" stroke="black" d="M599.34,-71.75C594.26,-62.93 589.1,-53.96 584.52,-45.99"/>
<polygon fill="black" stroke="black" points="587.65,-44.41 579.63,-37.48 581.58,-47.9 587.65,-44.41"/>
</g>
<!-- 12671 -->
<g id="node16" class="node">
<title>12671</title>
<path fill="#c0c0c0" stroke="black" d="M656,-36C656,-36 626,-36 626,-36 620,-36 614,-30 614,-24 614,-24 614,-12 614,-12 614,-6 620,0 626,0 626,0 656,0 656,0 662,0 668,-6 668,-12 668,-12 668,-24 668,-24 668,-30 662,-36 656,-36"/>
<text text-anchor="middle" x="641" y="-13.32" font-family="Helvetica,sans-Serif" font-size="14.00">(...)</text>
</g>
<!-- 12543&#45;&gt;12671 -->
<g id="edge15" class="edge">
<title>12543&#45;&gt;12671</title>
<path fill="none" stroke="black" d="M633.02,-71.75C634.28,-63.42 635.56,-54.97 636.71,-47.34"/>
<polygon fill="black" stroke="black" points="640.14,-48.08 638.17,-37.67 633.22,-47.03 640.14,-48.08"/>
</g>
<!-- 12715 -->
<g id="node18" class="node">
<title>12715</title>
<path fill="#8ec7f0" stroke="black" d="M966.5,-296.5C966.5,-296.5 815.5,-296.5 815.5,-296.5 809.5,-296.5 803.5,-290.5 803.5,-284.5 803.5,-284.5 803.5,-214.25 803.5,-214.25 803.5,-208.25 809.5,-202.25 815.5,-202.25 815.5,-202.25 966.5,-202.25 966.5,-202.25 972.5,-202.25 978.5,-208.25 978.5,-214.25 978.5,-214.25 978.5,-284.5 978.5,-284.5 978.5,-290.5 972.5,-296.5 966.5,-296.5"/>
<text text-anchor="middle" x="891" y="-279.2" font-family="Helvetica,sans-Serif" font-size="14.00">7_U &lt;= 0.5</text>
<text text-anchor="middle" x="891" y="-261.95" font-family="Helvetica,sans-Serif" font-size="14.00">entropy = 0.881</text>
<text text-anchor="middle" x="891" y="-244.7" font-family="Helvetica,sans-Serif" font-size="14.00">samples = 11067</text>
<text text-anchor="middle" x="891" y="-227.45" font-family="Helvetica,sans-Serif" font-size="14.00">value = [5219, 12212]</text>
<text text-anchor="middle" x="891" y="-210.2" font-family="Helvetica,sans-Serif" font-size="14.00">class = Plant</text>
</g>
<!-- 12714&#45;&gt;12715 -->
<g id="edge17" class="edge">
<title>12714&#45;&gt;12715</title>
<path fill="none" stroke="black" d="M891,-332.32C891,-324.42 891,-316.13 891,-307.98"/>
<polygon fill="black" stroke="black" points="894.5,-308.12 891,-298.12 887.5,-308.12 894.5,-308.12"/>
</g>
<!-- 16220 -->
<g id="node25" class="node">
<title>16220</title>
<path fill="#eca26d" stroke="black" d="M1231.5,-296.5C1231.5,-296.5 1098.5,-296.5 1098.5,-296.5 1092.5,-296.5 1086.5,-290.5 1086.5,-284.5 1086.5,-284.5 1086.5,-214.25 1086.5,-214.25 1086.5,-208.25 1092.5,-202.25 1098.5,-202.25 1098.5,-202.25 1231.5,-202.25 1231.5,-202.25 1237.5,-202.25 1243.5,-208.25 1243.5,-214.25 1243.5,-214.25 1243.5,-284.5 1243.5,-284.5 1243.5,-290.5 1237.5,-296.5 1231.5,-296.5"/>
<text text-anchor="middle" x="1165" y="-279.2" font-family="Helvetica,sans-Serif" font-size="14.00">8_C &lt;= 0.5</text>
<text text-anchor="middle" x="1165" y="-261.95" font-family="Helvetica,sans-Serif" font-size="14.00">entropy = 0.736</text>
<text text-anchor="middle" x="1165" y="-244.7" font-family="Helvetica,sans-Serif" font-size="14.00">samples = 1270</text>
<text text-anchor="middle" x="1165" y="-227.45" font-family="Helvetica,sans-Serif" font-size="14.00">value = [1571, 411]</text>
<text text-anchor="middle" x="1165" y="-210.2" font-family="Helvetica,sans-Serif" font-size="14.00">class = Animal</text>
</g>
<!-- 12714&#45;&gt;16220 -->
<g id="edge24" class="edge">
<title>12714&#45;&gt;16220</title>
<path fill="none" stroke="black" d="M978.83,-337.52C1009.77,-323.04 1044.56,-306.75 1075.63,-292.21"/>
<polygon fill="black" stroke="black" points="1077.07,-295.4 1084.64,-287.99 1074.1,-289.06 1077.07,-295.4"/>
</g>
<!-- 12716 -->
<g id="node19" class="node">
<title>12716</title>
<path fill="#96cbf1" stroke="black" d="M872,-166.25C872,-166.25 730,-166.25 730,-166.25 724,-166.25 718,-160.25 718,-154.25 718,-154.25 718,-84 718,-84 718,-78 724,-72 730,-72 730,-72 872,-72 872,-72 878,-72 884,-78 884,-84 884,-84 884,-154.25 884,-154.25 884,-160.25 878,-166.25 872,-166.25"/>
<text text-anchor="middle" x="801" y="-148.95" font-family="Helvetica,sans-Serif" font-size="14.00">22_G &lt;= 0.5</text>
<text text-anchor="middle" x="801" y="-131.7" font-family="Helvetica,sans-Serif" font-size="14.00">entropy = 0.905</text>
<text text-anchor="middle" x="801" y="-114.45" font-family="Helvetica,sans-Serif" font-size="14.00">samples = 8000</text>
<text text-anchor="middle" x="801" y="-97.2" font-family="Helvetica,sans-Serif" font-size="14.00">value = [4046, 8579]</text>
<text text-anchor="middle" x="801" y="-79.95" font-family="Helvetica,sans-Serif" font-size="14.00">class = Plant</text>
</g>
<!-- 12715&#45;&gt;12716 -->
<g id="edge18" class="edge">
<title>12715&#45;&gt;12716</title>
<path fill="none" stroke="black" d="M858.51,-202.07C852.52,-193.54 846.21,-184.54 840.05,-175.77"/>
<polygon fill="black" stroke="black" points="842.92,-173.77 834.31,-167.6 837.19,-177.79 842.92,-173.77"/>
</g>
<!-- 15329 -->
<g id="node22" class="node">
<title>15329</title>
<path fill="#79bded" stroke="black" d="M1056,-166.25C1056,-166.25 914,-166.25 914,-166.25 908,-166.25 902,-160.25 902,-154.25 902,-154.25 902,-84 902,-84 902,-78 908,-72 914,-72 914,-72 1056,-72 1056,-72 1062,-72 1068,-78 1068,-84 1068,-84 1068,-154.25 1068,-154.25 1068,-160.25 1062,-166.25 1056,-166.25"/>
<text text-anchor="middle" x="985" y="-148.95" font-family="Helvetica,sans-Serif" font-size="14.00">15_C &lt;= 0.5</text>
<text text-anchor="middle" x="985" y="-131.7" font-family="Helvetica,sans-Serif" font-size="14.00">entropy = 0.802</text>
<text text-anchor="middle" x="985" y="-114.45" font-family="Helvetica,sans-Serif" font-size="14.00">samples = 3067</text>
<text text-anchor="middle" x="985" y="-97.2" font-family="Helvetica,sans-Serif" font-size="14.00">value = [1173, 3633]</text>
<text text-anchor="middle" x="985" y="-79.95" font-family="Helvetica,sans-Serif" font-size="14.00">class = Plant</text>
</g>
<!-- 12715&#45;&gt;15329 -->
<g id="edge21" class="edge">
<title>12715&#45;&gt;15329</title>
<path fill="none" stroke="black" d="M924.94,-202.07C931.26,-193.45 937.92,-184.35 944.42,-175.49"/>
<polygon fill="black" stroke="black" points="947.13,-177.71 950.22,-167.58 941.48,-173.58 947.13,-177.71"/>
</g>
<!-- 12717 -->
<g id="node20" class="node">
<title>12717</title>
<path fill="#c0c0c0" stroke="black" d="M764,-36C764,-36 734,-36 734,-36 728,-36 722,-30 722,-24 722,-24 722,-12 722,-12 722,-6 728,0 734,0 734,0 764,0 764,0 770,0 776,-6 776,-12 776,-12 776,-24 776,-24 776,-30 770,-36 764,-36"/>
<text text-anchor="middle" x="749" y="-13.32" font-family="Helvetica,sans-Serif" font-size="14.00">(...)</text>
</g>
<!-- 12716&#45;&gt;12717 -->
<g id="edge19" class="edge">
<title>12716&#45;&gt;12717</title>
<path fill="none" stroke="black" d="M776.67,-71.75C772.1,-63.03 767.45,-54.16 763.3,-46.26"/>
<polygon fill="black" stroke="black" points="766.46,-44.74 758.71,-37.51 760.26,-47.99 766.46,-44.74"/>
</g>
<!-- 14978 -->
<g id="node21" class="node">
<title>14978</title>
<path fill="#c0c0c0" stroke="black" d="M836,-36C836,-36 806,-36 806,-36 800,-36 794,-30 794,-24 794,-24 794,-12 794,-12 794,-6 800,0 806,0 806,0 836,0 836,0 842,0 848,-6 848,-12 848,-12 848,-24 848,-24 848,-30 842,-36 836,-36"/>
<text text-anchor="middle" x="821" y="-13.32" font-family="Helvetica,sans-Serif" font-size="14.00">(...)</text>
</g>
<!-- 12716&#45;&gt;14978 -->
<g id="edge20" class="edge">
<title>12716&#45;&gt;14978</title>
<path fill="none" stroke="black" d="M810.36,-71.75C812.04,-63.42 813.74,-54.97 815.28,-47.34"/>
<polygon fill="black" stroke="black" points="818.69,-48.15 817.24,-37.66 811.83,-46.77 818.69,-48.15"/>
</g>
<!-- 15330 -->
<g id="node23" class="node">
<title>15330</title>
<path fill="#c0c0c0" stroke="black" d="M946,-36C946,-36 916,-36 916,-36 910,-36 904,-30 904,-24 904,-24 904,-12 904,-12 904,-6 910,0 916,0 916,0 946,0 946,0 952,0 958,-6 958,-12 958,-12 958,-24 958,-24 958,-30 952,-36 946,-36"/>
<text text-anchor="middle" x="931" y="-13.32" font-family="Helvetica,sans-Serif" font-size="14.00">(...)</text>
</g>
<!-- 15329&#45;&gt;15330 -->
<g id="edge22" class="edge">
<title>15329&#45;&gt;15330</title>
<path fill="none" stroke="black" d="M959.74,-71.75C954.98,-63.03 950.16,-54.16 945.85,-46.26"/>
<polygon fill="black" stroke="black" points="948.94,-44.61 941.08,-37.5 942.79,-47.96 948.94,-44.61"/>
</g>
<!-- 16019 -->
<g id="node24" class="node">
<title>16019</title>
<path fill="#c0c0c0" stroke="black" d="M1018,-36C1018,-36 988,-36 988,-36 982,-36 976,-30 976,-24 976,-24 976,-12 976,-12 976,-6 982,0 988,0 988,0 1018,0 1018,0 1024,0 1030,-6 1030,-12 1030,-12 1030,-24 1030,-24 1030,-30 1024,-36 1018,-36"/>
<text text-anchor="middle" x="1003" y="-13.32" font-family="Helvetica,sans-Serif" font-size="14.00">(...)</text>
</g>
<!-- 15329&#45;&gt;16019 -->
<g id="edge23" class="edge">
<title>15329&#45;&gt;16019</title>
<path fill="none" stroke="black" d="M993.42,-71.75C994.93,-63.42 996.47,-54.97 997.85,-47.34"/>
<polygon fill="black" stroke="black" points="1001.27,-48.13 999.61,-37.66 994.38,-46.88 1001.27,-48.13"/>
</g>
<!-- 16221 -->
<g id="node26" class="node">
<title>16221</title>
<path fill="#eead7f" stroke="black" d="M1231.5,-166.25C1231.5,-166.25 1098.5,-166.25 1098.5,-166.25 1092.5,-166.25 1086.5,-160.25 1086.5,-154.25 1086.5,-154.25 1086.5,-84 1086.5,-84 1086.5,-78 1092.5,-72 1098.5,-72 1098.5,-72 1231.5,-72 1231.5,-72 1237.5,-72 1243.5,-78 1243.5,-84 1243.5,-84 1243.5,-154.25 1243.5,-154.25 1243.5,-160.25 1237.5,-166.25 1231.5,-166.25"/>
<text text-anchor="middle" x="1165" y="-148.95" font-family="Helvetica,sans-Serif" font-size="14.00">15_G &lt;= 0.5</text>
<text text-anchor="middle" x="1165" y="-131.7" font-family="Helvetica,sans-Serif" font-size="14.00">entropy = 0.827</text>
<text text-anchor="middle" x="1165" y="-114.45" font-family="Helvetica,sans-Serif" font-size="14.00">samples = 884</text>
<text text-anchor="middle" x="1165" y="-97.2" font-family="Helvetica,sans-Serif" font-size="14.00">value = [1034, 364]</text>
<text text-anchor="middle" x="1165" y="-79.95" font-family="Helvetica,sans-Serif" font-size="14.00">class = Animal</text>
</g>
<!-- 16220&#45;&gt;16221 -->
<g id="edge25" class="edge">
<title>16220&#45;&gt;16221</title>
<path fill="none" stroke="black" d="M1165,-202.07C1165,-194.17 1165,-185.88 1165,-177.73"/>
<polygon fill="black" stroke="black" points="1168.5,-177.87 1165,-167.87 1161.5,-177.87 1168.5,-177.87"/>
</g>
<!-- 16654 -->
<g id="node29" class="node">
<title>16654</title>
<path fill="#e78c4a" stroke="black" d="M1388.5,-166.25C1388.5,-166.25 1273.5,-166.25 1273.5,-166.25 1267.5,-166.25 1261.5,-160.25 1261.5,-154.25 1261.5,-154.25 1261.5,-84 1261.5,-84 1261.5,-78 1267.5,-72 1273.5,-72 1273.5,-72 1388.5,-72 1388.5,-72 1394.5,-72 1400.5,-78 1400.5,-84 1400.5,-84 1400.5,-154.25 1400.5,-154.25 1400.5,-160.25 1394.5,-166.25 1388.5,-166.25"/>
<text text-anchor="middle" x="1331" y="-148.95" font-family="Helvetica,sans-Serif" font-size="14.00">10_C &lt;= 0.5</text>
<text text-anchor="middle" x="1331" y="-131.7" font-family="Helvetica,sans-Serif" font-size="14.00">entropy = 0.404</text>
<text text-anchor="middle" x="1331" y="-114.45" font-family="Helvetica,sans-Serif" font-size="14.00">samples = 386</text>
<text text-anchor="middle" x="1331" y="-97.2" font-family="Helvetica,sans-Serif" font-size="14.00">value = [537, 47]</text>
<text text-anchor="middle" x="1331" y="-79.95" font-family="Helvetica,sans-Serif" font-size="14.00">class = Animal</text>
</g>
<!-- 16220&#45;&gt;16654 -->
<g id="edge28" class="edge">
<title>16220&#45;&gt;16654</title>
<path fill="none" stroke="black" d="M1224.93,-202.07C1236.96,-192.78 1249.7,-182.94 1262.01,-173.43"/>
<polygon fill="black" stroke="black" points="1263.91,-176.38 1269.68,-167.5 1259.63,-170.84 1263.91,-176.38"/>
</g>
<!-- 16222 -->
<g id="node27" class="node">
<title>16222</title>
<path fill="#c0c0c0" stroke="black" d="M1137,-36C1137,-36 1107,-36 1107,-36 1101,-36 1095,-30 1095,-24 1095,-24 1095,-12 1095,-12 1095,-6 1101,0 1107,0 1107,0 1137,0 1137,0 1143,0 1149,-6 1149,-12 1149,-12 1149,-24 1149,-24 1149,-30 1143,-36 1137,-36"/>
<text text-anchor="middle" x="1122" y="-13.32" font-family="Helvetica,sans-Serif" font-size="14.00">(...)</text>
</g>
<!-- 16221&#45;&gt;16222 -->
<g id="edge26" class="edge">
<title>16221&#45;&gt;16222</title>
<path fill="none" stroke="black" d="M1144.88,-71.75C1141.14,-63.12 1137.34,-54.36 1133.94,-46.53"/>
<polygon fill="black" stroke="black" points="1137.24,-45.34 1130.05,-37.56 1130.82,-48.13 1137.24,-45.34"/>
</g>
<!-- 16535 -->
<g id="node28" class="node">
<title>16535</title>
<path fill="#c0c0c0" stroke="black" d="M1209,-36C1209,-36 1179,-36 1179,-36 1173,-36 1167,-30 1167,-24 1167,-24 1167,-12 1167,-12 1167,-6 1173,0 1179,0 1179,0 1209,0 1209,0 1215,0 1221,-6 1221,-12 1221,-12 1221,-24 1221,-24 1221,-30 1215,-36 1209,-36"/>
<text text-anchor="middle" x="1194" y="-13.32" font-family="Helvetica,sans-Serif" font-size="14.00">(...)</text>
</g>
<!-- 16221&#45;&gt;16535 -->
<g id="edge27" class="edge">
<title>16221&#45;&gt;16535</title>
<path fill="none" stroke="black" d="M1178.57,-71.75C1181.03,-63.32 1183.54,-54.77 1185.79,-47.07"/>
<polygon fill="black" stroke="black" points="1189.1,-48.21 1188.55,-37.63 1182.38,-46.24 1189.1,-48.21"/>
</g>
<!-- 16655 -->
<g id="node30" class="node">
<title>16655</title>
<path fill="#c0c0c0" stroke="black" d="M1310,-36C1310,-36 1280,-36 1280,-36 1274,-36 1268,-30 1268,-24 1268,-24 1268,-12 1268,-12 1268,-6 1274,0 1280,0 1280,0 1310,0 1310,0 1316,0 1322,-6 1322,-12 1322,-12 1322,-24 1322,-24 1322,-30 1316,-36 1310,-36"/>
<text text-anchor="middle" x="1295" y="-13.32" font-family="Helvetica,sans-Serif" font-size="14.00">(...)</text>
</g>
<!-- 16654&#45;&gt;16655 -->
<g id="edge29" class="edge">
<title>16654&#45;&gt;16655</title>
<path fill="none" stroke="black" d="M1314.16,-71.75C1311.06,-63.22 1307.92,-54.57 1305.1,-46.8"/>
<polygon fill="black" stroke="black" points="1308.46,-45.8 1301.75,-37.6 1301.88,-48.19 1308.46,-45.8"/>
</g>
<!-- 16730 -->
<g id="node31" class="node">
<title>16730</title>
<path fill="#c0c0c0" stroke="black" d="M1382,-36C1382,-36 1352,-36 1352,-36 1346,-36 1340,-30 1340,-24 1340,-24 1340,-12 1340,-12 1340,-6 1346,0 1352,0 1352,0 1382,0 1382,0 1388,0 1394,-6 1394,-12 1394,-12 1394,-24 1394,-24 1394,-30 1388,-36 1382,-36"/>
<text text-anchor="middle" x="1367" y="-13.32" font-family="Helvetica,sans-Serif" font-size="14.00">(...)</text>
</g>
<!-- 16654&#45;&gt;16730 -->
<g id="edge30" class="edge">
<title>16654&#45;&gt;16730</title>
<path fill="none" stroke="black" d="M1347.84,-71.75C1350.94,-63.22 1354.08,-54.57 1356.9,-46.8"/>
<polygon fill="black" stroke="black" points="1360.12,-48.19 1360.25,-37.6 1353.54,-45.8 1360.12,-48.19"/>
</g>
</g>
</svg>
