<?xml version="1.0" encoding="UTF-8" standalone="no"?>
<!DOCTYPE svg PUBLIC "-//W3C//DTD SVG 1.1//EN"
 "http://www.w3.org/Graphics/SVG/1.1/DTD/svg11.dtd">
<!-- Generated by graphviz version 12.0.0 (20240803.0821)
 -->
<!-- Title: Tree Pages: 1 -->
<svg width="1372pt" height="565pt"
 viewBox="0.00 0.00 1371.75 565.00" xmlns="http://www.w3.org/2000/svg" xmlns:xlink="http://www.w3.org/1999/xlink">
<g id="graph0" class="graph" transform="scale(1 1) rotate(0) translate(4 561)">
<title>Tree</title>
<polygon fill="white" stroke="none" points="-4,4 -4,-561 1367.75,-561 1367.75,4 -4,4"/>
<!-- 0 -->
<g id="node1" class="node">
<title>0</title>
<path fill="#ffffff" stroke="black" d="M818,-557C818,-557 658,-557 658,-557 652,-557 646,-551 646,-545 646,-545 646,-474.75 646,-474.75 646,-468.75 652,-462.75 658,-462.75 658,-462.75 818,-462.75 818,-462.75 824,-462.75 830,-468.75 830,-474.75 830,-474.75 830,-545 830,-545 830,-551 824,-557 818,-557"/>
<text text-anchor="middle" x="738" y="-539.7" font-family="Helvetica,sans-Serif" font-size="14.00">23_A &lt;= 0.5</text>
<text text-anchor="middle" x="738" y="-522.45" font-family="Helvetica,sans-Serif" font-size="14.00">entropy = 1.0</text>
<text text-anchor="middle" x="738" y="-505.2" font-family="Helvetica,sans-Serif" font-size="14.00">samples = 37999</text>
<text text-anchor="middle" x="738" y="-487.95" font-family="Helvetica,sans-Serif" font-size="14.00">value = [30194, 30151]</text>
<text text-anchor="middle" x="738" y="-470.7" font-family="Helvetica,sans-Serif" font-size="14.00">class = Animal</text>
</g>
<!-- 1 -->
<g id="node2" class="node">
<title>1</title>
<path fill="#f7fbfe" stroke="black" d="M641,-426.75C641,-426.75 481,-426.75 481,-426.75 475,-426.75 469,-420.75 469,-414.75 469,-414.75 469,-344.5 469,-344.5 469,-338.5 475,-332.5 481,-332.5 481,-332.5 641,-332.5 641,-332.5 647,-332.5 653,-338.5 653,-344.5 653,-344.5 653,-414.75 653,-414.75 653,-420.75 647,-426.75 641,-426.75"/>
<text text-anchor="middle" x="561" y="-409.45" font-family="Helvetica,sans-Serif" font-size="14.00">12_G &lt;= 0.5</text>
<text text-anchor="middle" x="561" y="-392.2" font-family="Helvetica,sans-Serif" font-size="14.00">entropy = 1.0</text>
<text text-anchor="middle" x="561" y="-374.95" font-family="Helvetica,sans-Serif" font-size="14.00">samples = 36479</text>
<text text-anchor="middle" x="561" y="-357.7" font-family="Helvetica,sans-Serif" font-size="14.00">value = [28381, 29556]</text>
<text text-anchor="middle" x="561" y="-340.45" font-family="Helvetica,sans-Serif" font-size="14.00">class = Plant</text>
</g>
<!-- 0&#45;&gt;1 -->
<g id="edge1" class="edge">
<title>0&#45;&gt;1</title>
<path fill="none" stroke="black" d="M673.85,-462.39C660.99,-453.07 647.38,-443.22 634.24,-433.69"/>
<polygon fill="black" stroke="black" points="636.61,-431.09 626.46,-428.05 632.5,-436.75 636.61,-431.09"/>
<text text-anchor="middle" x="629.17" y="-447.18" font-family="Helvetica,sans-Serif" font-size="14.00">True</text>
</g>
<!-- 16194 -->
<g id="node17" class="node">
<title>16194</title>
<path fill="#eeaa7a" stroke="black" d="M973.5,-426.75C973.5,-426.75 840.5,-426.75 840.5,-426.75 834.5,-426.75 828.5,-420.75 828.5,-414.75 828.5,-414.75 828.5,-344.5 828.5,-344.5 828.5,-338.5 834.5,-332.5 840.5,-332.5 840.5,-332.5 973.5,-332.5 973.5,-332.5 979.5,-332.5 985.5,-338.5 985.5,-344.5 985.5,-344.5 985.5,-414.75 985.5,-414.75 985.5,-420.75 979.5,-426.75 973.5,-426.75"/>
<text text-anchor="middle" x="907" y="-409.45" font-family="Helvetica,sans-Serif" font-size="14.00">22_A &lt;= 0.5</text>
<text text-anchor="middle" x="907" y="-392.2" font-family="Helvetica,sans-Serif" font-size="14.00">entropy = 0.807</text>
<text text-anchor="middle" x="907" y="-374.95" font-family="Helvetica,sans-Serif" font-size="14.00">samples = 1520</text>
<text text-anchor="middle" x="907" y="-357.7" font-family="Helvetica,sans-Serif" font-size="14.00">value = [1813, 595]</text>
<text text-anchor="middle" x="907" y="-340.45" font-family="Helvetica,sans-Serif" font-size="14.00">class = Animal</text>
</g>
<!-- 0&#45;&gt;16194 -->
<g id="edge16" class="edge">
<title>0&#45;&gt;16194</title>
<path fill="none" stroke="black" d="M799.01,-462.57C811.26,-453.28 824.23,-443.44 836.76,-433.93"/>
<polygon fill="black" stroke="black" points="838.74,-436.82 844.59,-427.99 834.51,-431.25 838.74,-436.82"/>
<text text-anchor="middle" x="842.4" y="-447.17" font-family="Helvetica,sans-Serif" font-size="14.00">False</text>
</g>
<!-- 2 -->
<g id="node3" class="node">
<title>2</title>
<path fill="#fdf7f3" stroke="black" d="M365,-296.5C365,-296.5 205,-296.5 205,-296.5 199,-296.5 193,-290.5 193,-284.5 193,-284.5 193,-214.25 193,-214.25 193,-208.25 199,-202.25 205,-202.25 205,-202.25 365,-202.25 365,-202.25 371,-202.25 377,-208.25 377,-214.25 377,-214.25 377,-284.5 377,-284.5 377,-290.5 371,-296.5 365,-296.5"/>
<text text-anchor="middle" x="285" y="-279.2" font-family="Helvetica,sans-Serif" font-size="14.00">22_G &lt;= 0.5</text>
<text text-anchor="middle" x="285" y="-261.95" font-family="Helvetica,sans-Serif" font-size="14.00">entropy = 0.999</text>
<text text-anchor="middle" x="285" y="-244.7" font-family="Helvetica,sans-Serif" font-size="14.00">samples = 25843</text>
<text text-anchor="middle" x="285" y="-227.45" font-family="Helvetica,sans-Serif" font-size="14.00">value = [21170, 19909]</text>
<text text-anchor="middle" x="285" y="-210.2" font-family="Helvetica,sans-Serif" font-size="14.00">class = Animal</text>
</g>
<!-- 1&#45;&gt;2 -->
<g id="edge2" class="edge">
<title>1&#45;&gt;2</title>
<path fill="none" stroke="black" d="M468.71,-335.74C442.59,-323.6 414,-310.32 387.32,-297.92"/>
<polygon fill="black" stroke="black" points="389.12,-294.9 378.57,-293.86 386.17,-301.24 389.12,-294.9"/>
</g>
<!-- 11809 -->
<g id="node10" class="node">
<title>11809</title>
<path fill="#cde6f8" stroke="black" d="M632,-296.5C632,-296.5 490,-296.5 490,-296.5 484,-296.5 478,-290.5 478,-284.5 478,-284.5 478,-214.25 478,-214.25 478,-208.25 484,-202.25 490,-202.25 490,-202.25 632,-202.25 632,-202.25 638,-202.25 644,-208.25 644,-214.25 644,-214.25 644,-284.5 644,-284.5 644,-290.5 638,-296.5 632,-296.5"/>
<text text-anchor="middle" x="561" y="-279.2" font-family="Helvetica,sans-Serif" font-size="14.00">9_U &lt;= 0.5</text>
<text text-anchor="middle" x="561" y="-261.95" font-family="Helvetica,sans-Serif" font-size="14.00">entropy = 0.985</text>
<text text-anchor="middle" x="561" y="-244.7" font-family="Helvetica,sans-Serif" font-size="14.00">samples = 10636</text>
<text text-anchor="middle" x="561" y="-227.45" font-family="Helvetica,sans-Serif" font-size="14.00">value = [7211, 9647]</text>
<text text-anchor="middle" x="561" y="-210.2" font-family="Helvetica,sans-Serif" font-size="14.00">class = Plant</text>
</g>
<!-- 1&#45;&gt;11809 -->
<g id="edge9" class="edge">
<title>1&#45;&gt;11809</title>
<path fill="none" stroke="black" d="M561,-332.32C561,-324.42 561,-316.13 561,-307.98"/>
<polygon fill="black" stroke="black" points="564.5,-308.12 561,-298.12 557.5,-308.12 564.5,-308.12"/>
</g>
<!-- 3 -->
<g id="node4" class="node">
<title>3</title>
<path fill="#eef6fd" stroke="black" d="M172,-166.25C172,-166.25 12,-166.25 12,-166.25 6,-166.25 0,-160.25 0,-154.25 0,-154.25 0,-84 0,-84 0,-78 6,-72 12,-72 12,-72 172,-72 172,-72 178,-72 184,-78 184,-84 184,-84 184,-154.25 184,-154.25 184,-160.25 178,-166.25 172,-166.25"/>
<text text-anchor="middle" x="92" y="-148.95" font-family="Helvetica,sans-Serif" font-size="14.00">9_U &lt;= 0.5</text>
<text text-anchor="middle" x="92" y="-131.7" font-family="Helvetica,sans-Serif" font-size="14.00">entropy = 0.998</text>
<text text-anchor="middle" x="92" y="-114.45" font-family="Helvetica,sans-Serif" font-size="14.00">samples = 22638</text>
<text text-anchor="middle" x="92" y="-97.2" font-family="Helvetica,sans-Serif" font-size="14.00">value = [17123, 18762]</text>
<text text-anchor="middle" x="92" y="-79.95" font-family="Helvetica,sans-Serif" font-size="14.00">class = Plant</text>
</g>
<!-- 2&#45;&gt;3 -->
<g id="edge3" class="edge">
<title>2&#45;&gt;3</title>
<path fill="none" stroke="black" d="M215.05,-201.89C200.89,-192.48 185.9,-182.53 171.45,-172.92"/>
<polygon fill="black" stroke="black" points="173.56,-170.12 163.3,-167.5 169.69,-175.95 173.56,-170.12"/>
</g>
<!-- 10492 -->
<g id="node7" class="node">
<title>10492</title>
<path fill="#eca571" stroke="black" d="M356,-166.25C356,-166.25 214,-166.25 214,-166.25 208,-166.25 202,-160.25 202,-154.25 202,-154.25 202,-84 202,-84 202,-78 208,-72 214,-72 214,-72 356,-72 356,-72 362,-72 368,-78 368,-84 368,-84 368,-154.25 368,-154.25 368,-160.25 362,-166.25 356,-166.25"/>
<text text-anchor="middle" x="285" y="-148.95" font-family="Helvetica,sans-Serif" font-size="14.00">19_U &lt;= 0.5</text>
<text text-anchor="middle" x="285" y="-131.7" font-family="Helvetica,sans-Serif" font-size="14.00">entropy = 0.762</text>
<text text-anchor="middle" x="285" y="-114.45" font-family="Helvetica,sans-Serif" font-size="14.00">samples = 3205</text>
<text text-anchor="middle" x="285" y="-97.2" font-family="Helvetica,sans-Serif" font-size="14.00">value = [4047, 1147]</text>
<text text-anchor="middle" x="285" y="-79.95" font-family="Helvetica,sans-Serif" font-size="14.00">class = Animal</text>
</g>
<!-- 2&#45;&gt;10492 -->
<g id="edge6" class="edge">
<title>2&#45;&gt;10492</title>
<path fill="none" stroke="black" d="M285,-202.07C285,-194.17 285,-185.88 285,-177.73"/>
<polygon fill="black" stroke="black" points="288.5,-177.87 285,-167.87 281.5,-177.87 288.5,-177.87"/>
</g>
<!-- 4 -->
<g id="node5" class="node">
<title>4</title>
<path fill="#c0c0c0" stroke="black" d="M71,-36C71,-36 41,-36 41,-36 35,-36 29,-30 29,-24 29,-24 29,-12 29,-12 29,-6 35,0 41,0 41,0 71,0 71,0 77,0 83,-6 83,-12 83,-12 83,-24 83,-24 83,-30 77,-36 71,-36"/>
<text text-anchor="middle" x="56" y="-13.32" font-family="Helvetica,sans-Serif" font-size="14.00">(...)</text>
</g>
<!-- 3&#45;&gt;4 -->
<g id="edge4" class="edge">
<title>3&#45;&gt;4</title>
<path fill="none" stroke="black" d="M75.16,-71.75C72.06,-63.22 68.92,-54.57 66.1,-46.8"/>
<polygon fill="black" stroke="black" points="69.46,-45.8 62.75,-37.6 62.88,-48.19 69.46,-45.8"/>
</g>
<!-- 7421 -->
<g id="node6" class="node">
<title>7421</title>
<path fill="#c0c0c0" stroke="black" d="M143,-36C143,-36 113,-36 113,-36 107,-36 101,-30 101,-24 101,-24 101,-12 101,-12 101,-6 107,0 113,0 113,0 143,0 143,0 149,0 155,-6 155,-12 155,-12 155,-24 155,-24 155,-30 149,-36 143,-36"/>
<text text-anchor="middle" x="128" y="-13.32" font-family="Helvetica,sans-Serif" font-size="14.00">(...)</text>
</g>
<!-- 3&#45;&gt;7421 -->
<g id="edge5" class="edge">
<title>3&#45;&gt;7421</title>
<path fill="none" stroke="black" d="M108.84,-71.75C111.94,-63.22 115.08,-54.57 117.9,-46.8"/>
<polygon fill="black" stroke="black" points="121.12,-48.19 121.25,-37.6 114.54,-45.8 121.12,-48.19"/>
</g>
<!-- 10493 -->
<g id="node8" class="node">
<title>10493</title>
<path fill="#c0c0c0" stroke="black" d="M268,-36C268,-36 238,-36 238,-36 232,-36 226,-30 226,-24 226,-24 226,-12 226,-12 226,-6 232,0 238,0 238,0 268,0 268,0 274,0 280,-6 280,-12 280,-12 280,-24 280,-24 280,-30 274,-36 268,-36"/>
<text text-anchor="middle" x="253" y="-13.32" font-family="Helvetica,sans-Serif" font-size="14.00">(...)</text>
</g>
<!-- 10492&#45;&gt;10493 -->
<g id="edge7" class="edge">
<title>10492&#45;&gt;10493</title>
<path fill="none" stroke="black" d="M270.03,-71.75C267.31,-63.32 264.55,-54.77 262.06,-47.07"/>
<polygon fill="black" stroke="black" points="265.41,-46.05 259.01,-37.61 258.75,-48.2 265.41,-46.05"/>
</g>
<!-- 11474 -->
<g id="node9" class="node">
<title>11474</title>
<path fill="#c0c0c0" stroke="black" d="M340,-36C340,-36 310,-36 310,-36 304,-36 298,-30 298,-24 298,-24 298,-12 298,-12 298,-6 304,0 310,0 310,0 340,0 340,0 346,0 352,-6 352,-12 352,-12 352,-24 352,-24 352,-30 346,-36 340,-36"/>
<text text-anchor="middle" x="325" y="-13.32" font-family="Helvetica,sans-Serif" font-size="14.00">(...)</text>
</g>
<!-- 10492&#45;&gt;11474 -->
<g id="edge8" class="edge">
<title>10492&#45;&gt;11474</title>
<path fill="none" stroke="black" d="M303.71,-71.75C307.15,-63.22 310.65,-54.57 313.78,-46.8"/>
<polygon fill="black" stroke="black" points="317.01,-48.16 317.5,-37.58 310.52,-45.54 317.01,-48.16"/>
</g>
<!-- 11810 -->
<g id="node11" class="node">
<title>11810</title>
<path fill="#b0d8f5" stroke="black" d="M540,-166.25C540,-166.25 398,-166.25 398,-166.25 392,-166.25 386,-160.25 386,-154.25 386,-154.25 386,-84 386,-84 386,-78 392,-72 398,-72 398,-72 540,-72 540,-72 546,-72 552,-78 552,-84 552,-84 552,-154.25 552,-154.25 552,-160.25 546,-166.25 540,-166.25"/>
<text text-anchor="middle" x="469" y="-148.95" font-family="Helvetica,sans-Serif" font-size="14.00">6_U &lt;= 0.5</text>
<text text-anchor="middle" x="469" y="-131.7" font-family="Helvetica,sans-Serif" font-size="14.00">entropy = 0.954</text>
<text text-anchor="middle" x="469" y="-114.45" font-family="Helvetica,sans-Serif" font-size="14.00">samples = 7998</text>
<text text-anchor="middle" x="469" y="-97.2" font-family="Helvetica,sans-Serif" font-size="14.00">value = [4744, 7912]</text>
<text text-anchor="middle" x="469" y="-79.95" font-family="Helvetica,sans-Serif" font-size="14.00">class = Plant</text>
</g>
<!-- 11809&#45;&gt;11810 -->
<g id="edge10" class="edge">
<title>11809&#45;&gt;11810</title>
<path fill="none" stroke="black" d="M527.79,-202.07C521.6,-193.45 515.07,-184.35 508.71,-175.49"/>
<polygon fill="black" stroke="black" points="511.72,-173.67 503.05,-167.59 506.03,-177.75 511.72,-173.67"/>
</g>
<!-- 14967 -->
<g id="node14" class="node">
<title>14967</title>
<path fill="#f7dac4" stroke="black" d="M724,-166.25C724,-166.25 582,-166.25 582,-166.25 576,-166.25 570,-160.25 570,-154.25 570,-154.25 570,-84 570,-84 570,-78 576,-72 582,-72 582,-72 724,-72 724,-72 730,-72 736,-78 736,-84 736,-84 736,-154.25 736,-154.25 736,-160.25 730,-166.25 724,-166.25"/>
<text text-anchor="middle" x="653" y="-148.95" font-family="Helvetica,sans-Serif" font-size="14.00">22_U &lt;= 0.5</text>
<text text-anchor="middle" x="653" y="-131.7" font-family="Helvetica,sans-Serif" font-size="14.00">entropy = 0.978</text>
<text text-anchor="middle" x="653" y="-114.45" font-family="Helvetica,sans-Serif" font-size="14.00">samples = 2638</text>
<text text-anchor="middle" x="653" y="-97.2" font-family="Helvetica,sans-Serif" font-size="14.00">value = [2467, 1735]</text>
<text text-anchor="middle" x="653" y="-79.95" font-family="Helvetica,sans-Serif" font-size="14.00">class = Animal</text>
</g>
<!-- 11809&#45;&gt;14967 -->
<g id="edge13" class="edge">
<title>11809&#45;&gt;14967</title>
<path fill="none" stroke="black" d="M594.21,-202.07C600.4,-193.45 606.93,-184.35 613.29,-175.49"/>
<polygon fill="black" stroke="black" points="615.97,-177.75 618.95,-167.59 610.28,-173.67 615.97,-177.75"/>
</g>
<!-- 11811 -->
<g id="node12" class="node">
<title>11811</title>
<path fill="#c0c0c0" stroke="black" d="M432,-36C432,-36 402,-36 402,-36 396,-36 390,-30 390,-24 390,-24 390,-12 390,-12 390,-6 396,0 402,0 402,0 432,0 432,0 438,0 444,-6 444,-12 444,-12 444,-24 444,-24 444,-30 438,-36 432,-36"/>
<text text-anchor="middle" x="417" y="-13.32" font-family="Helvetica,sans-Serif" font-size="14.00">(...)</text>
</g>
<!-- 11810&#45;&gt;11811 -->
<g id="edge11" class="edge">
<title>11810&#45;&gt;11811</title>
<path fill="none" stroke="black" d="M444.67,-71.75C440.1,-63.03 435.45,-54.16 431.3,-46.26"/>
<polygon fill="black" stroke="black" points="434.46,-44.74 426.71,-37.51 428.26,-47.99 434.46,-44.74"/>
</g>
<!-- 14188 -->
<g id="node13" class="node">
<title>14188</title>
<path fill="#c0c0c0" stroke="black" d="M504,-36C504,-36 474,-36 474,-36 468,-36 462,-30 462,-24 462,-24 462,-12 462,-12 462,-6 468,0 474,0 474,0 504,0 504,0 510,0 516,-6 516,-12 516,-12 516,-24 516,-24 516,-30 510,-36 504,-36"/>
<text text-anchor="middle" x="489" y="-13.32" font-family="Helvetica,sans-Serif" font-size="14.00">(...)</text>
</g>
<!-- 11810&#45;&gt;14188 -->
<g id="edge12" class="edge">
<title>11810&#45;&gt;14188</title>
<path fill="none" stroke="black" d="M478.36,-71.75C480.04,-63.42 481.74,-54.97 483.28,-47.34"/>
<polygon fill="black" stroke="black" points="486.69,-48.15 485.24,-37.66 479.83,-46.77 486.69,-48.15"/>
</g>
<!-- 14968 -->
<g id="node15" class="node">
<title>14968</title>
<path fill="#c0c0c0" stroke="black" d="M614,-36C614,-36 584,-36 584,-36 578,-36 572,-30 572,-24 572,-24 572,-12 572,-12 572,-6 578,0 584,0 584,0 614,0 614,0 620,0 626,-6 626,-12 626,-12 626,-24 626,-24 626,-30 620,-36 614,-36"/>
<text text-anchor="middle" x="599" y="-13.32" font-family="Helvetica,sans-Serif" font-size="14.00">(...)</text>
</g>
<!-- 14967&#45;&gt;14968 -->
<g id="edge14" class="edge">
<title>14967&#45;&gt;14968</title>
<path fill="none" stroke="black" d="M627.74,-71.75C622.98,-63.03 618.16,-54.16 613.85,-46.26"/>
<polygon fill="black" stroke="black" points="616.94,-44.61 609.08,-37.5 610.79,-47.96 616.94,-44.61"/>
</g>
<!-- 16057 -->
<g id="node16" class="node">
<title>16057</title>
<path fill="#c0c0c0" stroke="black" d="M686,-36C686,-36 656,-36 656,-36 650,-36 644,-30 644,-24 644,-24 644,-12 644,-12 644,-6 650,0 656,0 656,0 686,0 686,0 692,0 698,-6 698,-12 698,-12 698,-24 698,-24 698,-30 692,-36 686,-36"/>
<text text-anchor="middle" x="671" y="-13.32" font-family="Helvetica,sans-Serif" font-size="14.00">(...)</text>
</g>
<!-- 14967&#45;&gt;16057 -->
<g id="edge15" class="edge">
<title>14967&#45;&gt;16057</title>
<path fill="none" stroke="black" d="M661.42,-71.75C662.93,-63.42 664.47,-54.97 665.85,-47.34"/>
<polygon fill="black" stroke="black" points="669.27,-48.13 667.61,-37.66 662.38,-46.88 669.27,-48.13"/>
</g>
<!-- 16195 -->
<g id="node18" class="node">
<title>16195</title>
<path fill="#eda572" stroke="black" d="M973.5,-296.5C973.5,-296.5 840.5,-296.5 840.5,-296.5 834.5,-296.5 828.5,-290.5 828.5,-284.5 828.5,-284.5 828.5,-214.25 828.5,-214.25 828.5,-208.25 834.5,-202.25 840.5,-202.25 840.5,-202.25 973.5,-202.25 973.5,-202.25 979.5,-202.25 985.5,-208.25 985.5,-214.25 985.5,-214.25 985.5,-284.5 985.5,-284.5 985.5,-290.5 979.5,-296.5 973.5,-296.5"/>
<text text-anchor="middle" x="907" y="-279.2" font-family="Helvetica,sans-Serif" font-size="14.00">27_A &lt;= 0.5</text>
<text text-anchor="middle" x="907" y="-261.95" font-family="Helvetica,sans-Serif" font-size="14.00">entropy = 0.768</text>
<text text-anchor="middle" x="907" y="-244.7" font-family="Helvetica,sans-Serif" font-size="14.00">samples = 1286</text>
<text text-anchor="middle" x="907" y="-227.45" font-family="Helvetica,sans-Serif" font-size="14.00">value = [1592, 461]</text>
<text text-anchor="middle" x="907" y="-210.2" font-family="Helvetica,sans-Serif" font-size="14.00">class = Animal</text>
</g>
<!-- 16194&#45;&gt;16195 -->
<g id="edge17" class="edge">
<title>16194&#45;&gt;16195</title>
<path fill="none" stroke="black" d="M907,-332.32C907,-324.42 907,-316.13 907,-307.98"/>
<polygon fill="black" stroke="black" points="910.5,-308.12 907,-298.12 903.5,-308.12 910.5,-308.12"/>
</g>
<!-- 16760 -->
<g id="node25" class="node">
<title>16760</title>
<path fill="#f5cdb1" stroke="black" d="M1214,-296.5C1214,-296.5 1090,-296.5 1090,-296.5 1084,-296.5 1078,-290.5 1078,-284.5 1078,-284.5 1078,-214.25 1078,-214.25 1078,-208.25 1084,-202.25 1090,-202.25 1090,-202.25 1214,-202.25 1214,-202.25 1220,-202.25 1226,-208.25 1226,-214.25 1226,-214.25 1226,-284.5 1226,-284.5 1226,-290.5 1220,-296.5 1214,-296.5"/>
<text text-anchor="middle" x="1152" y="-279.2" font-family="Helvetica,sans-Serif" font-size="14.00">28_A &lt;= 0.5</text>
<text text-anchor="middle" x="1152" y="-261.95" font-family="Helvetica,sans-Serif" font-size="14.00">entropy = 0.956</text>
<text text-anchor="middle" x="1152" y="-244.7" font-family="Helvetica,sans-Serif" font-size="14.00">samples = 234</text>
<text text-anchor="middle" x="1152" y="-227.45" font-family="Helvetica,sans-Serif" font-size="14.00">value = [221, 134]</text>
<text text-anchor="middle" x="1152" y="-210.2" font-family="Helvetica,sans-Serif" font-size="14.00">class = Animal</text>
</g>
<!-- 16194&#45;&gt;16760 -->
<g id="edge24" class="edge">
<title>16194&#45;&gt;16760</title>
<path fill="none" stroke="black" d="M985.87,-337.34C1012.04,-323.64 1041.27,-308.34 1067.83,-294.44"/>
<polygon fill="black" stroke="black" points="1069.28,-297.63 1076.52,-289.89 1066.04,-291.42 1069.28,-297.63"/>
</g>
<!-- 16196 -->
<g id="node19" class="node">
<title>16196</title>
<path fill="#eca571" stroke="black" d="M899.5,-166.25C899.5,-166.25 766.5,-166.25 766.5,-166.25 760.5,-166.25 754.5,-160.25 754.5,-154.25 754.5,-154.25 754.5,-84 754.5,-84 754.5,-78 760.5,-72 766.5,-72 766.5,-72 899.5,-72 899.5,-72 905.5,-72 911.5,-78 911.5,-84 911.5,-84 911.5,-154.25 911.5,-154.25 911.5,-160.25 905.5,-166.25 899.5,-166.25"/>
<text text-anchor="middle" x="833" y="-148.95" font-family="Helvetica,sans-Serif" font-size="14.00">17_U &lt;= 0.5</text>
<text text-anchor="middle" x="833" y="-131.7" font-family="Helvetica,sans-Serif" font-size="14.00">entropy = 0.761</text>
<text text-anchor="middle" x="833" y="-114.45" font-family="Helvetica,sans-Serif" font-size="14.00">samples = 1276</text>
<text text-anchor="middle" x="833" y="-97.2" font-family="Helvetica,sans-Serif" font-size="14.00">value = [1589, 449]</text>
<text text-anchor="middle" x="833" y="-79.95" font-family="Helvetica,sans-Serif" font-size="14.00">class = Animal</text>
</g>
<!-- 16195&#45;&gt;16196 -->
<g id="edge18" class="edge">
<title>16195&#45;&gt;16196</title>
<path fill="none" stroke="black" d="M880.28,-202.07C875.46,-193.72 870.39,-184.93 865.43,-176.33"/>
<polygon fill="black" stroke="black" points="868.46,-174.58 860.43,-167.67 862.4,-178.08 868.46,-174.58"/>
</g>
<!-- 16753 -->
<g id="node22" class="node">
<title>16753</title>
<path fill="#6ab6ec" stroke="black" d="M1048.38,-166.25C1048.38,-166.25 941.62,-166.25 941.62,-166.25 935.62,-166.25 929.62,-160.25 929.62,-154.25 929.62,-154.25 929.62,-84 929.62,-84 929.62,-78 935.62,-72 941.62,-72 941.62,-72 1048.38,-72 1048.38,-72 1054.38,-72 1060.38,-78 1060.38,-84 1060.38,-84 1060.38,-154.25 1060.38,-154.25 1060.38,-160.25 1054.38,-166.25 1048.38,-166.25"/>
<text text-anchor="middle" x="995" y="-148.95" font-family="Helvetica,sans-Serif" font-size="14.00">22_G &lt;= 0.5</text>
<text text-anchor="middle" x="995" y="-131.7" font-family="Helvetica,sans-Serif" font-size="14.00">entropy = 0.722</text>
<text text-anchor="middle" x="995" y="-114.45" font-family="Helvetica,sans-Serif" font-size="14.00">samples = 10</text>
<text text-anchor="middle" x="995" y="-97.2" font-family="Helvetica,sans-Serif" font-size="14.00">value = [3, 12]</text>
<text text-anchor="middle" x="995" y="-79.95" font-family="Helvetica,sans-Serif" font-size="14.00">class = Plant</text>
</g>
<!-- 16195&#45;&gt;16753 -->
<g id="edge21" class="edge">
<title>16195&#45;&gt;16753</title>
<path fill="none" stroke="black" d="M938.77,-202.07C944.63,-193.54 950.8,-184.54 956.82,-175.77"/>
<polygon fill="black" stroke="black" points="959.65,-177.83 962.42,-167.61 953.88,-173.87 959.65,-177.83"/>
</g>
<!-- 16197 -->
<g id="node20" class="node">
<title>16197</title>
<path fill="#c0c0c0" stroke="black" d="M785,-36C785,-36 755,-36 755,-36 749,-36 743,-30 743,-24 743,-24 743,-12 743,-12 743,-6 749,0 755,0 755,0 785,0 785,0 791,0 797,-6 797,-12 797,-12 797,-24 797,-24 797,-30 791,-36 785,-36"/>
<text text-anchor="middle" x="770" y="-13.32" font-family="Helvetica,sans-Serif" font-size="14.00">(...)</text>
</g>
<!-- 16196&#45;&gt;16197 -->
<g id="edge19" class="edge">
<title>16196&#45;&gt;16197</title>
<path fill="none" stroke="black" d="M803.53,-71.75C797.85,-62.83 792.09,-53.76 786.98,-45.72"/>
<polygon fill="black" stroke="black" points="790.04,-44.01 781.73,-37.45 784.14,-47.77 790.04,-44.01"/>
</g>
<!-- 16614 -->
<g id="node21" class="node">
<title>16614</title>
<path fill="#c0c0c0" stroke="black" d="M857,-36C857,-36 827,-36 827,-36 821,-36 815,-30 815,-24 815,-24 815,-12 815,-12 815,-6 821,0 827,0 827,0 857,0 857,0 863,0 869,-6 869,-12 869,-12 869,-24 869,-24 869,-30 863,-36 857,-36"/>
<text text-anchor="middle" x="842" y="-13.32" font-family="Helvetica,sans-Serif" font-size="14.00">(...)</text>
</g>
<!-- 16196&#45;&gt;16614 -->
<g id="edge20" class="edge">
<title>16196&#45;&gt;16614</title>
<path fill="none" stroke="black" d="M837.21,-71.75C837.96,-63.52 838.72,-55.17 839.4,-47.61"/>
<polygon fill="black" stroke="black" points="842.89,-47.96 840.3,-37.68 835.91,-47.32 842.89,-47.96"/>
</g>
<!-- 16754 -->
<g id="node23" class="node">
<title>16754</title>
<path fill="#c0c0c0" stroke="black" d="M962,-36C962,-36 932,-36 932,-36 926,-36 920,-30 920,-24 920,-24 920,-12 920,-12 920,-6 926,0 932,0 932,0 962,0 962,0 968,0 974,-6 974,-12 974,-12 974,-24 974,-24 974,-30 968,-36 962,-36"/>
<text text-anchor="middle" x="947" y="-13.32" font-family="Helvetica,sans-Serif" font-size="14.00">(...)</text>
</g>
<!-- 16753&#45;&gt;16754 -->
<g id="edge22" class="edge">
<title>16753&#45;&gt;16754</title>
<path fill="none" stroke="black" d="M972.55,-71.75C968.37,-63.12 964.12,-54.36 960.33,-46.53"/>
<polygon fill="black" stroke="black" points="963.48,-45.01 955.98,-37.53 957.18,-48.06 963.48,-45.01"/>
</g>
<!-- 16759 -->
<g id="node24" class="node">
<title>16759</title>
<path fill="#c0c0c0" stroke="black" d="M1034,-36C1034,-36 1004,-36 1004,-36 998,-36 992,-30 992,-24 992,-24 992,-12 992,-12 992,-6 998,0 1004,0 1004,0 1034,0 1034,0 1040,0 1046,-6 1046,-12 1046,-12 1046,-24 1046,-24 1046,-30 1040,-36 1034,-36"/>
<text text-anchor="middle" x="1019" y="-13.32" font-family="Helvetica,sans-Serif" font-size="14.00">(...)</text>
</g>
<!-- 16753&#45;&gt;16759 -->
<g id="edge23" class="edge">
<title>16753&#45;&gt;16759</title>
<path fill="none" stroke="black" d="M1006.23,-71.75C1008.24,-63.42 1010.29,-54.97 1012.14,-47.34"/>
<polygon fill="black" stroke="black" points="1015.53,-48.19 1014.49,-37.64 1008.73,-46.54 1015.53,-48.19"/>
</g>
<!-- 16761 -->
<g id="node26" class="node">
<title>16761</title>
<path fill="#f5ceb2" stroke="black" d="M1214,-166.25C1214,-166.25 1090,-166.25 1090,-166.25 1084,-166.25 1078,-160.25 1078,-154.25 1078,-154.25 1078,-84 1078,-84 1078,-78 1084,-72 1090,-72 1090,-72 1214,-72 1214,-72 1220,-72 1226,-78 1226,-84 1226,-84 1226,-154.25 1226,-154.25 1226,-160.25 1220,-166.25 1214,-166.25"/>
<text text-anchor="middle" x="1152" y="-148.95" font-family="Helvetica,sans-Serif" font-size="14.00">4_A &lt;= 0.5</text>
<text text-anchor="middle" x="1152" y="-131.7" font-family="Helvetica,sans-Serif" font-size="14.00">entropy = 0.958</text>
<text text-anchor="middle" x="1152" y="-114.45" font-family="Helvetica,sans-Serif" font-size="14.00">samples = 233</text>
<text text-anchor="middle" x="1152" y="-97.2" font-family="Helvetica,sans-Serif" font-size="14.00">value = [219, 134]</text>
<text text-anchor="middle" x="1152" y="-79.95" font-family="Helvetica,sans-Serif" font-size="14.00">class = Animal</text>
</g>
<!-- 16760&#45;&gt;16761 -->
<g id="edge25" class="edge">
<title>16760&#45;&gt;16761</title>
<path fill="none" stroke="black" d="M1152,-202.07C1152,-194.17 1152,-185.88 1152,-177.73"/>
<polygon fill="black" stroke="black" points="1155.5,-177.87 1152,-167.87 1148.5,-177.87 1155.5,-177.87"/>
</g>
<!-- 16924 -->
<g id="node29" class="node">
<title>16924</title>
<path fill="#e58139" stroke="black" d="M1351.75,-157.62C1351.75,-157.62 1256.25,-157.62 1256.25,-157.62 1250.25,-157.62 1244.25,-151.62 1244.25,-145.62 1244.25,-145.62 1244.25,-92.62 1244.25,-92.62 1244.25,-86.62 1250.25,-80.62 1256.25,-80.62 1256.25,-80.62 1351.75,-80.62 1351.75,-80.62 1357.75,-80.62 1363.75,-86.62 1363.75,-92.62 1363.75,-92.62 1363.75,-145.62 1363.75,-145.62 1363.75,-151.62 1357.75,-157.62 1351.75,-157.62"/>
<text text-anchor="middle" x="1304" y="-140.32" font-family="Helvetica,sans-Serif" font-size="14.00">entropy = 0.0</text>
<text text-anchor="middle" x="1304" y="-123.08" font-family="Helvetica,sans-Serif" font-size="14.00">samples = 1</text>
<text text-anchor="middle" x="1304" y="-105.83" font-family="Helvetica,sans-Serif" font-size="14.00">value = [2, 0]</text>
<text text-anchor="middle" x="1304" y="-88.58" font-family="Helvetica,sans-Serif" font-size="14.00">class = Animal</text>
</g>
<!-- 16760&#45;&gt;16924 -->
<g id="edge28" class="edge">
<title>16760&#45;&gt;16924</title>
<path fill="none" stroke="black" d="M1206.88,-202.07C1221.1,-190.07 1236.4,-177.16 1250.55,-165.22"/>
<polygon fill="black" stroke="black" points="1252.65,-168.03 1258.03,-158.91 1248.13,-162.68 1252.65,-168.03"/>
</g>
<!-- 16762 -->
<g id="node27" class="node">
<title>16762</title>
<path fill="#c0c0c0" stroke="black" d="M1131,-36C1131,-36 1101,-36 1101,-36 1095,-36 1089,-30 1089,-24 1089,-24 1089,-12 1089,-12 1089,-6 1095,0 1101,0 1101,0 1131,0 1131,0 1137,0 1143,-6 1143,-12 1143,-12 1143,-24 1143,-24 1143,-30 1137,-36 1131,-36"/>
<text text-anchor="middle" x="1116" y="-13.32" font-family="Helvetica,sans-Serif" font-size="14.00">(...)</text>
</g>
<!-- 16761&#45;&gt;16762 -->
<g id="edge26" class="edge">
<title>16761&#45;&gt;16762</title>
<path fill="none" stroke="black" d="M1135.16,-71.75C1132.06,-63.22 1128.92,-54.57 1126.1,-46.8"/>
<polygon fill="black" stroke="black" points="1129.46,-45.8 1122.75,-37.6 1122.88,-48.19 1129.46,-45.8"/>
</g>
<!-- 16887 -->
<g id="node28" class="node">
<title>16887</title>
<path fill="#c0c0c0" stroke="black" d="M1203,-36C1203,-36 1173,-36 1173,-36 1167,-36 1161,-30 1161,-24 1161,-24 1161,-12 1161,-12 1161,-6 1167,0 1173,0 1173,0 1203,0 1203,0 1209,0 1215,-6 1215,-12 1215,-12 1215,-24 1215,-24 1215,-30 1209,-36 1203,-36"/>
<text text-anchor="middle" x="1188" y="-13.32" font-family="Helvetica,sans-Serif" font-size="14.00">(...)</text>
</g>
<!-- 16761&#45;&gt;16887 -->
<g id="edge27" class="edge">
<title>16761&#45;&gt;16887</title>
<path fill="none" stroke="black" d="M1168.84,-71.75C1171.94,-63.22 1175.08,-54.57 1177.9,-46.8"/>
<polygon fill="black" stroke="black" points="1181.12,-48.19 1181.25,-37.6 1174.54,-45.8 1181.12,-48.19"/>
</g>
</g>
</svg>
