<?xml version="1.0" encoding="UTF-8" standalone="no"?>
<!DOCTYPE svg PUBLIC "-//W3C//DTD SVG 1.1//EN"
 "http://www.w3.org/Graphics/SVG/1.1/DTD/svg11.dtd">
<!-- Generated by graphviz version 12.0.0 (20240803.0821)
 -->
<!-- Title: Tree Pages: 1 -->
<svg width="1420pt" height="565pt"
 viewBox="0.00 0.00 1419.50 565.00" xmlns="http://www.w3.org/2000/svg" xmlns:xlink="http://www.w3.org/1999/xlink">
<g id="graph0" class="graph" transform="scale(1 1) rotate(0) translate(4 561)">
<title>Tree</title>
<polygon fill="white" stroke="none" points="-4,4 -4,-561 1415.5,-561 1415.5,4 -4,4"/>
<!-- 0 -->
<g id="node1" class="node">
<title>0</title>
<path fill="#feffff" stroke="black" d="M804,-557C804,-557 644,-557 644,-557 638,-557 632,-551 632,-545 632,-545 632,-474.75 632,-474.75 632,-468.75 638,-462.75 644,-462.75 644,-462.75 804,-462.75 804,-462.75 810,-462.75 816,-468.75 816,-474.75 816,-474.75 816,-545 816,-545 816,-551 810,-557 804,-557"/>
<text text-anchor="middle" x="724" y="-539.7" font-family="Helvetica,sans-Serif" font-size="14.00">20_G &lt;= 0.5</text>
<text text-anchor="middle" x="724" y="-522.45" font-family="Helvetica,sans-Serif" font-size="14.00">entropy = 1.0</text>
<text text-anchor="middle" x="724" y="-505.2" font-family="Helvetica,sans-Serif" font-size="14.00">samples = 38137</text>
<text text-anchor="middle" x="724" y="-487.95" font-family="Helvetica,sans-Serif" font-size="14.00">value = [30132, 30213]</text>
<text text-anchor="middle" x="724" y="-470.7" font-family="Helvetica,sans-Serif" font-size="14.00">class = Plant</text>
</g>
<!-- 1 -->
<g id="node2" class="node">
<title>1</title>
<path fill="#e6f3fc" stroke="black" d="M631,-426.75C631,-426.75 471,-426.75 471,-426.75 465,-426.75 459,-420.75 459,-414.75 459,-414.75 459,-344.5 459,-344.5 459,-338.5 465,-332.5 471,-332.5 471,-332.5 631,-332.5 631,-332.5 637,-332.5 643,-338.5 643,-344.5 643,-344.5 643,-414.75 643,-414.75 643,-420.75 637,-426.75 631,-426.75"/>
<text text-anchor="middle" x="551" y="-409.45" font-family="Helvetica,sans-Serif" font-size="14.00">15_C &lt;= 0.5</text>
<text text-anchor="middle" x="551" y="-392.2" font-family="Helvetica,sans-Serif" font-size="14.00">entropy = 0.997</text>
<text text-anchor="middle" x="551" y="-374.95" font-family="Helvetica,sans-Serif" font-size="14.00">samples = 29421</text>
<text text-anchor="middle" x="551" y="-357.7" font-family="Helvetica,sans-Serif" font-size="14.00">value = [21659, 24806]</text>
<text text-anchor="middle" x="551" y="-340.45" font-family="Helvetica,sans-Serif" font-size="14.00">class = Plant</text>
</g>
<!-- 0&#45;&gt;1 -->
<g id="edge1" class="edge">
<title>0&#45;&gt;1</title>
<path fill="none" stroke="black" d="M661.54,-462.57C649,-453.28 635.73,-443.44 622.9,-433.93"/>
<polygon fill="black" stroke="black" points="624.99,-431.12 614.87,-427.97 620.82,-436.74 624.99,-431.12"/>
<text text-anchor="middle" x="617.33" y="-447.13" font-family="Helvetica,sans-Serif" font-size="14.00">True</text>
</g>
<!-- 12744 -->
<g id="node17" class="node">
<title>12744</title>
<path fill="#f6d1b7" stroke="black" d="M981,-426.75C981,-426.75 839,-426.75 839,-426.75 833,-426.75 827,-420.75 827,-414.75 827,-414.75 827,-344.5 827,-344.5 827,-338.5 833,-332.5 839,-332.5 839,-332.5 981,-332.5 981,-332.5 987,-332.5 993,-338.5 993,-344.5 993,-344.5 993,-414.75 993,-414.75 993,-420.75 987,-426.75 981,-426.75"/>
<text text-anchor="middle" x="910" y="-409.45" font-family="Helvetica,sans-Serif" font-size="14.00">22_A &lt;= 0.5</text>
<text text-anchor="middle" x="910" y="-392.2" font-family="Helvetica,sans-Serif" font-size="14.00">entropy = 0.965</text>
<text text-anchor="middle" x="910" y="-374.95" font-family="Helvetica,sans-Serif" font-size="14.00">samples = 8716</text>
<text text-anchor="middle" x="910" y="-357.7" font-family="Helvetica,sans-Serif" font-size="14.00">value = [8473, 5407]</text>
<text text-anchor="middle" x="910" y="-340.45" font-family="Helvetica,sans-Serif" font-size="14.00">class = Animal</text>
</g>
<!-- 0&#45;&gt;12744 -->
<g id="edge16" class="edge">
<title>0&#45;&gt;12744</title>
<path fill="none" stroke="black" d="M791.41,-462.39C804.93,-453.07 819.23,-443.22 833.04,-433.69"/>
<polygon fill="black" stroke="black" points="835.01,-436.58 841.26,-428.02 831.04,-430.82 835.01,-436.58"/>
<text text-anchor="middle" x="837.99" y="-447.08" font-family="Helvetica,sans-Serif" font-size="14.00">False</text>
</g>
<!-- 2 -->
<g id="node3" class="node">
<title>2</title>
<path fill="#d9ecfa" stroke="black" d="M361,-296.5C361,-296.5 201,-296.5 201,-296.5 195,-296.5 189,-290.5 189,-284.5 189,-284.5 189,-214.25 189,-214.25 189,-208.25 195,-202.25 201,-202.25 201,-202.25 361,-202.25 361,-202.25 367,-202.25 373,-208.25 373,-214.25 373,-214.25 373,-284.5 373,-284.5 373,-290.5 367,-296.5 361,-296.5"/>
<text text-anchor="middle" x="281" y="-279.2" font-family="Helvetica,sans-Serif" font-size="14.00">22_U &lt;= 0.5</text>
<text text-anchor="middle" x="281" y="-261.95" font-family="Helvetica,sans-Serif" font-size="14.00">entropy = 0.992</text>
<text text-anchor="middle" x="281" y="-244.7" font-family="Helvetica,sans-Serif" font-size="14.00">samples = 23777</text>
<text text-anchor="middle" x="281" y="-227.45" font-family="Helvetica,sans-Serif" font-size="14.00">value = [16786, 20771]</text>
<text text-anchor="middle" x="281" y="-210.2" font-family="Helvetica,sans-Serif" font-size="14.00">class = Plant</text>
</g>
<!-- 1&#45;&gt;2 -->
<g id="edge2" class="edge">
<title>1&#45;&gt;2</title>
<path fill="none" stroke="black" d="M458.84,-334.85C434.53,-323.3 408.17,-310.78 383.36,-299"/>
<polygon fill="black" stroke="black" points="385.11,-295.95 374.57,-294.82 382.1,-302.27 385.11,-295.95"/>
</g>
<!-- 10003 -->
<g id="node10" class="node">
<title>10003</title>
<path fill="#fbe9dd" stroke="black" d="M622,-296.5C622,-296.5 480,-296.5 480,-296.5 474,-296.5 468,-290.5 468,-284.5 468,-284.5 468,-214.25 468,-214.25 468,-208.25 474,-202.25 480,-202.25 480,-202.25 622,-202.25 622,-202.25 628,-202.25 634,-208.25 634,-214.25 634,-214.25 634,-284.5 634,-284.5 634,-290.5 628,-296.5 622,-296.5"/>
<text text-anchor="middle" x="551" y="-279.2" font-family="Helvetica,sans-Serif" font-size="14.00">19_A &lt;= 0.5</text>
<text text-anchor="middle" x="551" y="-261.95" font-family="Helvetica,sans-Serif" font-size="14.00">entropy = 0.994</text>
<text text-anchor="middle" x="551" y="-244.7" font-family="Helvetica,sans-Serif" font-size="14.00">samples = 5644</text>
<text text-anchor="middle" x="551" y="-227.45" font-family="Helvetica,sans-Serif" font-size="14.00">value = [4873, 4035]</text>
<text text-anchor="middle" x="551" y="-210.2" font-family="Helvetica,sans-Serif" font-size="14.00">class = Animal</text>
</g>
<!-- 1&#45;&gt;10003 -->
<g id="edge9" class="edge">
<title>1&#45;&gt;10003</title>
<path fill="none" stroke="black" d="M551,-332.32C551,-324.42 551,-316.13 551,-307.98"/>
<polygon fill="black" stroke="black" points="554.5,-308.12 551,-298.12 547.5,-308.12 554.5,-308.12"/>
</g>
<!-- 3 -->
<g id="node4" class="node">
<title>3</title>
<path fill="#bcdef6" stroke="black" d="M172,-166.25C172,-166.25 12,-166.25 12,-166.25 6,-166.25 0,-160.25 0,-154.25 0,-154.25 0,-84 0,-84 0,-78 6,-72 12,-72 12,-72 172,-72 172,-72 178,-72 184,-78 184,-84 184,-84 184,-154.25 184,-154.25 184,-160.25 178,-166.25 172,-166.25"/>
<text text-anchor="middle" x="92" y="-148.95" font-family="Helvetica,sans-Serif" font-size="14.00">9_U &lt;= 0.5</text>
<text text-anchor="middle" x="92" y="-131.7" font-family="Helvetica,sans-Serif" font-size="14.00">entropy = 0.97</text>
<text text-anchor="middle" x="92" y="-114.45" font-family="Helvetica,sans-Serif" font-size="14.00">samples = 20928</text>
<text text-anchor="middle" x="92" y="-97.2" font-family="Helvetica,sans-Serif" font-size="14.00">value = [13184, 19894]</text>
<text text-anchor="middle" x="92" y="-79.95" font-family="Helvetica,sans-Serif" font-size="14.00">class = Plant</text>
</g>
<!-- 2&#45;&gt;3 -->
<g id="edge3" class="edge">
<title>2&#45;&gt;3</title>
<path fill="none" stroke="black" d="M212.5,-201.89C198.63,-192.48 183.96,-182.53 169.8,-172.92"/>
<polygon fill="black" stroke="black" points="172.08,-170.23 161.84,-167.51 168.15,-176.03 172.08,-170.23"/>
</g>
<!-- 8828 -->
<g id="node7" class="node">
<title>8828</title>
<path fill="#eba069" stroke="black" d="M347.5,-166.25C347.5,-166.25 214.5,-166.25 214.5,-166.25 208.5,-166.25 202.5,-160.25 202.5,-154.25 202.5,-154.25 202.5,-84 202.5,-84 202.5,-78 208.5,-72 214.5,-72 214.5,-72 347.5,-72 347.5,-72 353.5,-72 359.5,-78 359.5,-84 359.5,-84 359.5,-154.25 359.5,-154.25 359.5,-160.25 353.5,-166.25 347.5,-166.25"/>
<text text-anchor="middle" x="281" y="-148.95" font-family="Helvetica,sans-Serif" font-size="14.00">8_C &lt;= 0.5</text>
<text text-anchor="middle" x="281" y="-131.7" font-family="Helvetica,sans-Serif" font-size="14.00">entropy = 0.713</text>
<text text-anchor="middle" x="281" y="-114.45" font-family="Helvetica,sans-Serif" font-size="14.00">samples = 2849</text>
<text text-anchor="middle" x="281" y="-97.2" font-family="Helvetica,sans-Serif" font-size="14.00">value = [3602, 877]</text>
<text text-anchor="middle" x="281" y="-79.95" font-family="Helvetica,sans-Serif" font-size="14.00">class = Animal</text>
</g>
<!-- 2&#45;&gt;8828 -->
<g id="edge6" class="edge">
<title>2&#45;&gt;8828</title>
<path fill="none" stroke="black" d="M281,-202.07C281,-194.17 281,-185.88 281,-177.73"/>
<polygon fill="black" stroke="black" points="284.5,-177.87 281,-167.87 277.5,-177.87 284.5,-177.87"/>
</g>
<!-- 4 -->
<g id="node5" class="node">
<title>4</title>
<path fill="#c0c0c0" stroke="black" d="M71,-36C71,-36 41,-36 41,-36 35,-36 29,-30 29,-24 29,-24 29,-12 29,-12 29,-6 35,0 41,0 41,0 71,0 71,0 77,0 83,-6 83,-12 83,-12 83,-24 83,-24 83,-30 77,-36 71,-36"/>
<text text-anchor="middle" x="56" y="-13.32" font-family="Helvetica,sans-Serif" font-size="14.00">(...)</text>
</g>
<!-- 3&#45;&gt;4 -->
<g id="edge4" class="edge">
<title>3&#45;&gt;4</title>
<path fill="none" stroke="black" d="M75.16,-71.75C72.06,-63.22 68.92,-54.57 66.1,-46.8"/>
<polygon fill="black" stroke="black" points="69.46,-45.8 62.75,-37.6 62.88,-48.19 69.46,-45.8"/>
</g>
<!-- 6209 -->
<g id="node6" class="node">
<title>6209</title>
<path fill="#c0c0c0" stroke="black" d="M143,-36C143,-36 113,-36 113,-36 107,-36 101,-30 101,-24 101,-24 101,-12 101,-12 101,-6 107,0 113,0 113,0 143,0 143,0 149,0 155,-6 155,-12 155,-12 155,-24 155,-24 155,-30 149,-36 143,-36"/>
<text text-anchor="middle" x="128" y="-13.32" font-family="Helvetica,sans-Serif" font-size="14.00">(...)</text>
</g>
<!-- 3&#45;&gt;6209 -->
<g id="edge5" class="edge">
<title>3&#45;&gt;6209</title>
<path fill="none" stroke="black" d="M108.84,-71.75C111.94,-63.22 115.08,-54.57 117.9,-46.8"/>
<polygon fill="black" stroke="black" points="121.12,-48.19 121.25,-37.6 114.54,-45.8 121.12,-48.19"/>
</g>
<!-- 8829 -->
<g id="node8" class="node">
<title>8829</title>
<path fill="#c0c0c0" stroke="black" d="M260,-36C260,-36 230,-36 230,-36 224,-36 218,-30 218,-24 218,-24 218,-12 218,-12 218,-6 224,0 230,0 230,0 260,0 260,0 266,0 272,-6 272,-12 272,-12 272,-24 272,-24 272,-30 266,-36 260,-36"/>
<text text-anchor="middle" x="245" y="-13.32" font-family="Helvetica,sans-Serif" font-size="14.00">(...)</text>
</g>
<!-- 8828&#45;&gt;8829 -->
<g id="edge7" class="edge">
<title>8828&#45;&gt;8829</title>
<path fill="none" stroke="black" d="M264.16,-71.75C261.06,-63.22 257.92,-54.57 255.1,-46.8"/>
<polygon fill="black" stroke="black" points="258.46,-45.8 251.75,-37.6 251.88,-48.19 258.46,-45.8"/>
</g>
<!-- 9744 -->
<g id="node9" class="node">
<title>9744</title>
<path fill="#c0c0c0" stroke="black" d="M332,-36C332,-36 302,-36 302,-36 296,-36 290,-30 290,-24 290,-24 290,-12 290,-12 290,-6 296,0 302,0 302,0 332,0 332,0 338,0 344,-6 344,-12 344,-12 344,-24 344,-24 344,-30 338,-36 332,-36"/>
<text text-anchor="middle" x="317" y="-13.32" font-family="Helvetica,sans-Serif" font-size="14.00">(...)</text>
</g>
<!-- 8828&#45;&gt;9744 -->
<g id="edge8" class="edge">
<title>8828&#45;&gt;9744</title>
<path fill="none" stroke="black" d="M297.84,-71.75C300.94,-63.22 304.08,-54.57 306.9,-46.8"/>
<polygon fill="black" stroke="black" points="310.12,-48.19 310.25,-37.6 303.54,-45.8 310.12,-48.19"/>
</g>
<!-- 10004 -->
<g id="node11" class="node">
<title>10004</title>
<path fill="#f7d9c4" stroke="black" d="M532,-166.25C532,-166.25 390,-166.25 390,-166.25 384,-166.25 378,-160.25 378,-154.25 378,-154.25 378,-84 378,-84 378,-78 384,-72 390,-72 390,-72 532,-72 532,-72 538,-72 544,-78 544,-84 544,-84 544,-154.25 544,-154.25 544,-160.25 538,-166.25 532,-166.25"/>
<text text-anchor="middle" x="461" y="-148.95" font-family="Helvetica,sans-Serif" font-size="14.00">22_G &lt;= 0.5</text>
<text text-anchor="middle" x="461" y="-131.7" font-family="Helvetica,sans-Serif" font-size="14.00">entropy = 0.977</text>
<text text-anchor="middle" x="461" y="-114.45" font-family="Helvetica,sans-Serif" font-size="14.00">samples = 4401</text>
<text text-anchor="middle" x="461" y="-97.2" font-family="Helvetica,sans-Serif" font-size="14.00">value = [4093, 2865]</text>
<text text-anchor="middle" x="461" y="-79.95" font-family="Helvetica,sans-Serif" font-size="14.00">class = Animal</text>
</g>
<!-- 10003&#45;&gt;10004 -->
<g id="edge10" class="edge">
<title>10003&#45;&gt;10004</title>
<path fill="none" stroke="black" d="M518.51,-202.07C512.52,-193.54 506.21,-184.54 500.05,-175.77"/>
<polygon fill="black" stroke="black" points="502.92,-173.77 494.31,-167.6 497.19,-177.79 502.92,-173.77"/>
</g>
<!-- 12225 -->
<g id="node14" class="node">
<title>12225</title>
<path fill="#bddef6" stroke="black" d="M707.5,-166.25C707.5,-166.25 574.5,-166.25 574.5,-166.25 568.5,-166.25 562.5,-160.25 562.5,-154.25 562.5,-154.25 562.5,-84 562.5,-84 562.5,-78 568.5,-72 574.5,-72 574.5,-72 707.5,-72 707.5,-72 713.5,-72 719.5,-78 719.5,-84 719.5,-84 719.5,-154.25 719.5,-154.25 719.5,-160.25 713.5,-166.25 707.5,-166.25"/>
<text text-anchor="middle" x="641" y="-148.95" font-family="Helvetica,sans-Serif" font-size="14.00">5_U &lt;= 0.5</text>
<text text-anchor="middle" x="641" y="-131.7" font-family="Helvetica,sans-Serif" font-size="14.00">entropy = 0.971</text>
<text text-anchor="middle" x="641" y="-114.45" font-family="Helvetica,sans-Serif" font-size="14.00">samples = 1243</text>
<text text-anchor="middle" x="641" y="-97.2" font-family="Helvetica,sans-Serif" font-size="14.00">value = [780, 1170]</text>
<text text-anchor="middle" x="641" y="-79.95" font-family="Helvetica,sans-Serif" font-size="14.00">class = Plant</text>
</g>
<!-- 10003&#45;&gt;12225 -->
<g id="edge13" class="edge">
<title>10003&#45;&gt;12225</title>
<path fill="none" stroke="black" d="M583.49,-202.07C589.48,-193.54 595.79,-184.54 601.95,-175.77"/>
<polygon fill="black" stroke="black" points="604.81,-177.79 607.69,-167.6 599.08,-173.77 604.81,-177.79"/>
</g>
<!-- 10005 -->
<g id="node12" class="node">
<title>10005</title>
<path fill="#c0c0c0" stroke="black" d="M422,-36C422,-36 392,-36 392,-36 386,-36 380,-30 380,-24 380,-24 380,-12 380,-12 380,-6 386,0 392,0 392,0 422,0 422,0 428,0 434,-6 434,-12 434,-12 434,-24 434,-24 434,-30 428,-36 422,-36"/>
<text text-anchor="middle" x="407" y="-13.32" font-family="Helvetica,sans-Serif" font-size="14.00">(...)</text>
</g>
<!-- 10004&#45;&gt;10005 -->
<g id="edge11" class="edge">
<title>10004&#45;&gt;10005</title>
<path fill="none" stroke="black" d="M435.74,-71.75C430.98,-63.03 426.16,-54.16 421.85,-46.26"/>
<polygon fill="black" stroke="black" points="424.94,-44.61 417.08,-37.5 418.79,-47.96 424.94,-44.61"/>
</g>
<!-- 11942 -->
<g id="node13" class="node">
<title>11942</title>
<path fill="#c0c0c0" stroke="black" d="M494,-36C494,-36 464,-36 464,-36 458,-36 452,-30 452,-24 452,-24 452,-12 452,-12 452,-6 458,0 464,0 464,0 494,0 494,0 500,0 506,-6 506,-12 506,-12 506,-24 506,-24 506,-30 500,-36 494,-36"/>
<text text-anchor="middle" x="479" y="-13.32" font-family="Helvetica,sans-Serif" font-size="14.00">(...)</text>
</g>
<!-- 10004&#45;&gt;11942 -->
<g id="edge12" class="edge">
<title>10004&#45;&gt;11942</title>
<path fill="none" stroke="black" d="M469.42,-71.75C470.93,-63.42 472.47,-54.97 473.85,-47.34"/>
<polygon fill="black" stroke="black" points="477.27,-48.13 475.61,-37.66 470.38,-46.88 477.27,-48.13"/>
</g>
<!-- 12226 -->
<g id="node15" class="node">
<title>12226</title>
<path fill="#c0c0c0" stroke="black" d="M602,-36C602,-36 572,-36 572,-36 566,-36 560,-30 560,-24 560,-24 560,-12 560,-12 560,-6 566,0 572,0 572,0 602,0 602,0 608,0 614,-6 614,-12 614,-12 614,-24 614,-24 614,-30 608,-36 602,-36"/>
<text text-anchor="middle" x="587" y="-13.32" font-family="Helvetica,sans-Serif" font-size="14.00">(...)</text>
</g>
<!-- 12225&#45;&gt;12226 -->
<g id="edge14" class="edge">
<title>12225&#45;&gt;12226</title>
<path fill="none" stroke="black" d="M615.74,-71.75C610.98,-63.03 606.16,-54.16 601.85,-46.26"/>
<polygon fill="black" stroke="black" points="604.94,-44.61 597.08,-37.5 598.79,-47.96 604.94,-44.61"/>
</g>
<!-- 12567 -->
<g id="node16" class="node">
<title>12567</title>
<path fill="#c0c0c0" stroke="black" d="M674,-36C674,-36 644,-36 644,-36 638,-36 632,-30 632,-24 632,-24 632,-12 632,-12 632,-6 638,0 644,0 644,0 674,0 674,0 680,0 686,-6 686,-12 686,-12 686,-24 686,-24 686,-30 680,-36 674,-36"/>
<text text-anchor="middle" x="659" y="-13.32" font-family="Helvetica,sans-Serif" font-size="14.00">(...)</text>
</g>
<!-- 12225&#45;&gt;12567 -->
<g id="edge15" class="edge">
<title>12225&#45;&gt;12567</title>
<path fill="none" stroke="black" d="M649.42,-71.75C650.93,-63.42 652.47,-54.97 653.85,-47.34"/>
<polygon fill="black" stroke="black" points="657.27,-48.13 655.61,-37.66 650.38,-46.88 657.27,-48.13"/>
</g>
<!-- 12745 -->
<g id="node18" class="node">
<title>12745</title>
<path fill="#f7d8c2" stroke="black" d="M981,-296.5C981,-296.5 839,-296.5 839,-296.5 833,-296.5 827,-290.5 827,-284.5 827,-284.5 827,-214.25 827,-214.25 827,-208.25 833,-202.25 839,-202.25 839,-202.25 981,-202.25 981,-202.25 987,-202.25 993,-208.25 993,-214.25 993,-214.25 993,-284.5 993,-284.5 993,-290.5 987,-296.5 981,-296.5"/>
<text text-anchor="middle" x="910" y="-279.2" font-family="Helvetica,sans-Serif" font-size="14.00">8_G &lt;= 0.5</text>
<text text-anchor="middle" x="910" y="-261.95" font-family="Helvetica,sans-Serif" font-size="14.00">entropy = 0.976</text>
<text text-anchor="middle" x="910" y="-244.7" font-family="Helvetica,sans-Serif" font-size="14.00">samples = 7539</text>
<text text-anchor="middle" x="910" y="-227.45" font-family="Helvetica,sans-Serif" font-size="14.00">value = [7093, 4919]</text>
<text text-anchor="middle" x="910" y="-210.2" font-family="Helvetica,sans-Serif" font-size="14.00">class = Animal</text>
</g>
<!-- 12744&#45;&gt;12745 -->
<g id="edge17" class="edge">
<title>12744&#45;&gt;12745</title>
<path fill="none" stroke="black" d="M910,-332.32C910,-324.42 910,-316.13 910,-307.98"/>
<polygon fill="black" stroke="black" points="913.5,-308.12 910,-298.12 906.5,-308.12 913.5,-308.12"/>
</g>
<!-- 16544 -->
<g id="node25" class="node">
<title>16544</title>
<path fill="#eeae7f" stroke="black" d="M1246.5,-296.5C1246.5,-296.5 1113.5,-296.5 1113.5,-296.5 1107.5,-296.5 1101.5,-290.5 1101.5,-284.5 1101.5,-284.5 1101.5,-214.25 1101.5,-214.25 1101.5,-208.25 1107.5,-202.25 1113.5,-202.25 1113.5,-202.25 1246.5,-202.25 1246.5,-202.25 1252.5,-202.25 1258.5,-208.25 1258.5,-214.25 1258.5,-214.25 1258.5,-284.5 1258.5,-284.5 1258.5,-290.5 1252.5,-296.5 1246.5,-296.5"/>
<text text-anchor="middle" x="1180" y="-279.2" font-family="Helvetica,sans-Serif" font-size="14.00">13_A &lt;= 0.5</text>
<text text-anchor="middle" x="1180" y="-261.95" font-family="Helvetica,sans-Serif" font-size="14.00">entropy = 0.829</text>
<text text-anchor="middle" x="1180" y="-244.7" font-family="Helvetica,sans-Serif" font-size="14.00">samples = 1177</text>
<text text-anchor="middle" x="1180" y="-227.45" font-family="Helvetica,sans-Serif" font-size="14.00">value = [1380, 488]</text>
<text text-anchor="middle" x="1180" y="-210.2" font-family="Helvetica,sans-Serif" font-size="14.00">class = Animal</text>
</g>
<!-- 12744&#45;&gt;16544 -->
<g id="edge24" class="edge">
<title>12744&#45;&gt;16544</title>
<path fill="none" stroke="black" d="M993.21,-339.1C1024.25,-324.36 1059.59,-307.57 1091.12,-292.59"/>
<polygon fill="black" stroke="black" points="1092.32,-295.9 1099.85,-288.45 1089.31,-289.58 1092.32,-295.9"/>
</g>
<!-- 12746 -->
<g id="node19" class="node">
<title>12746</title>
<path fill="#f4caac" stroke="black" d="M892,-166.25C892,-166.25 750,-166.25 750,-166.25 744,-166.25 738,-160.25 738,-154.25 738,-154.25 738,-84 738,-84 738,-78 744,-72 750,-72 750,-72 892,-72 892,-72 898,-72 904,-78 904,-84 904,-84 904,-154.25 904,-154.25 904,-160.25 898,-166.25 892,-166.25"/>
<text text-anchor="middle" x="821" y="-148.95" font-family="Helvetica,sans-Serif" font-size="14.00">3_G &lt;= 0.5</text>
<text text-anchor="middle" x="821" y="-131.7" font-family="Helvetica,sans-Serif" font-size="14.00">entropy = 0.949</text>
<text text-anchor="middle" x="821" y="-114.45" font-family="Helvetica,sans-Serif" font-size="14.00">samples = 5061</text>
<text text-anchor="middle" x="821" y="-97.2" font-family="Helvetica,sans-Serif" font-size="14.00">value = [5128, 2980]</text>
<text text-anchor="middle" x="821" y="-79.95" font-family="Helvetica,sans-Serif" font-size="14.00">class = Animal</text>
</g>
<!-- 12745&#45;&gt;12746 -->
<g id="edge18" class="edge">
<title>12745&#45;&gt;12746</title>
<path fill="none" stroke="black" d="M877.87,-202.07C871.95,-193.54 865.7,-184.54 859.61,-175.77"/>
<polygon fill="black" stroke="black" points="862.52,-173.82 853.95,-167.6 856.77,-177.81 862.52,-173.82"/>
</g>
<!-- 15487 -->
<g id="node22" class="node">
<title>15487</title>
<path fill="#fffdfc" stroke="black" d="M1076,-166.25C1076,-166.25 934,-166.25 934,-166.25 928,-166.25 922,-160.25 922,-154.25 922,-154.25 922,-84 922,-84 922,-78 928,-72 934,-72 934,-72 1076,-72 1076,-72 1082,-72 1088,-78 1088,-84 1088,-84 1088,-154.25 1088,-154.25 1088,-160.25 1082,-166.25 1076,-166.25"/>
<text text-anchor="middle" x="1005" y="-148.95" font-family="Helvetica,sans-Serif" font-size="14.00">18_C &lt;= 0.5</text>
<text text-anchor="middle" x="1005" y="-131.7" font-family="Helvetica,sans-Serif" font-size="14.00">entropy = 1.0</text>
<text text-anchor="middle" x="1005" y="-114.45" font-family="Helvetica,sans-Serif" font-size="14.00">samples = 2478</text>
<text text-anchor="middle" x="1005" y="-97.2" font-family="Helvetica,sans-Serif" font-size="14.00">value = [1965, 1939]</text>
<text text-anchor="middle" x="1005" y="-79.95" font-family="Helvetica,sans-Serif" font-size="14.00">class = Animal</text>
</g>
<!-- 12745&#45;&gt;15487 -->
<g id="edge21" class="edge">
<title>12745&#45;&gt;15487</title>
<path fill="none" stroke="black" d="M944.3,-202.07C950.69,-193.45 957.42,-184.35 963.99,-175.49"/>
<polygon fill="black" stroke="black" points="966.71,-177.69 969.85,-167.57 961.09,-173.53 966.71,-177.69"/>
</g>
<!-- 12747 -->
<g id="node20" class="node">
<title>12747</title>
<path fill="#c0c0c0" stroke="black" d="M784,-36C784,-36 754,-36 754,-36 748,-36 742,-30 742,-24 742,-24 742,-12 742,-12 742,-6 748,0 754,0 754,0 784,0 784,0 790,0 796,-6 796,-12 796,-12 796,-24 796,-24 796,-30 790,-36 784,-36"/>
<text text-anchor="middle" x="769" y="-13.32" font-family="Helvetica,sans-Serif" font-size="14.00">(...)</text>
</g>
<!-- 12746&#45;&gt;12747 -->
<g id="edge19" class="edge">
<title>12746&#45;&gt;12747</title>
<path fill="none" stroke="black" d="M796.67,-71.75C792.1,-63.03 787.45,-54.16 783.3,-46.26"/>
<polygon fill="black" stroke="black" points="786.46,-44.74 778.71,-37.51 780.26,-47.99 786.46,-44.74"/>
</g>
<!-- 14682 -->
<g id="node21" class="node">
<title>14682</title>
<path fill="#c0c0c0" stroke="black" d="M856,-36C856,-36 826,-36 826,-36 820,-36 814,-30 814,-24 814,-24 814,-12 814,-12 814,-6 820,0 826,0 826,0 856,0 856,0 862,0 868,-6 868,-12 868,-12 868,-24 868,-24 868,-30 862,-36 856,-36"/>
<text text-anchor="middle" x="841" y="-13.32" font-family="Helvetica,sans-Serif" font-size="14.00">(...)</text>
</g>
<!-- 12746&#45;&gt;14682 -->
<g id="edge20" class="edge">
<title>12746&#45;&gt;14682</title>
<path fill="none" stroke="black" d="M830.36,-71.75C832.04,-63.42 833.74,-54.97 835.28,-47.34"/>
<polygon fill="black" stroke="black" points="838.69,-48.15 837.24,-37.66 831.83,-46.77 838.69,-48.15"/>
</g>
<!-- 15488 -->
<g id="node23" class="node">
<title>15488</title>
<path fill="#c0c0c0" stroke="black" d="M963,-36C963,-36 933,-36 933,-36 927,-36 921,-30 921,-24 921,-24 921,-12 921,-12 921,-6 927,0 933,0 933,0 963,0 963,0 969,0 975,-6 975,-12 975,-12 975,-24 975,-24 975,-30 969,-36 963,-36"/>
<text text-anchor="middle" x="948" y="-13.32" font-family="Helvetica,sans-Serif" font-size="14.00">(...)</text>
</g>
<!-- 15487&#45;&gt;15488 -->
<g id="edge22" class="edge">
<title>15487&#45;&gt;15488</title>
<path fill="none" stroke="black" d="M978.34,-71.75C973.26,-62.93 968.1,-53.96 963.52,-45.99"/>
<polygon fill="black" stroke="black" points="966.65,-44.41 958.63,-37.48 960.58,-47.9 966.65,-44.41"/>
</g>
<!-- 16237 -->
<g id="node24" class="node">
<title>16237</title>
<path fill="#c0c0c0" stroke="black" d="M1035,-36C1035,-36 1005,-36 1005,-36 999,-36 993,-30 993,-24 993,-24 993,-12 993,-12 993,-6 999,0 1005,0 1005,0 1035,0 1035,0 1041,0 1047,-6 1047,-12 1047,-12 1047,-24 1047,-24 1047,-30 1041,-36 1035,-36"/>
<text text-anchor="middle" x="1020" y="-13.32" font-family="Helvetica,sans-Serif" font-size="14.00">(...)</text>
</g>
<!-- 15487&#45;&gt;16237 -->
<g id="edge23" class="edge">
<title>15487&#45;&gt;16237</title>
<path fill="none" stroke="black" d="M1012.02,-71.75C1013.28,-63.42 1014.56,-54.97 1015.71,-47.34"/>
<polygon fill="black" stroke="black" points="1019.14,-48.08 1017.17,-37.67 1012.22,-47.03 1019.14,-48.08"/>
</g>
<!-- 16545 -->
<g id="node26" class="node">
<title>16545</title>
<path fill="#f1ba93" stroke="black" d="M1242,-166.25C1242,-166.25 1118,-166.25 1118,-166.25 1112,-166.25 1106,-160.25 1106,-154.25 1106,-154.25 1106,-84 1106,-84 1106,-78 1112,-72 1118,-72 1118,-72 1242,-72 1242,-72 1248,-72 1254,-78 1254,-84 1254,-84 1254,-154.25 1254,-154.25 1254,-160.25 1248,-166.25 1242,-166.25"/>
<text text-anchor="middle" x="1180" y="-148.95" font-family="Helvetica,sans-Serif" font-size="14.00">6_A &lt;= 0.5</text>
<text text-anchor="middle" x="1180" y="-131.7" font-family="Helvetica,sans-Serif" font-size="14.00">entropy = 0.896</text>
<text text-anchor="middle" x="1180" y="-114.45" font-family="Helvetica,sans-Serif" font-size="14.00">samples = 802</text>
<text text-anchor="middle" x="1180" y="-97.2" font-family="Helvetica,sans-Serif" font-size="14.00">value = [861, 392]</text>
<text text-anchor="middle" x="1180" y="-79.95" font-family="Helvetica,sans-Serif" font-size="14.00">class = Animal</text>
</g>
<!-- 16544&#45;&gt;16545 -->
<g id="edge25" class="edge">
<title>16544&#45;&gt;16545</title>
<path fill="none" stroke="black" d="M1180,-202.07C1180,-194.17 1180,-185.88 1180,-177.73"/>
<polygon fill="black" stroke="black" points="1183.5,-177.87 1180,-167.87 1176.5,-177.87 1183.5,-177.87"/>
</g>
<!-- 16946 -->
<g id="node29" class="node">
<title>16946</title>
<path fill="#ea985e" stroke="black" d="M1399.5,-166.25C1399.5,-166.25 1284.5,-166.25 1284.5,-166.25 1278.5,-166.25 1272.5,-160.25 1272.5,-154.25 1272.5,-154.25 1272.5,-84 1272.5,-84 1272.5,-78 1278.5,-72 1284.5,-72 1284.5,-72 1399.5,-72 1399.5,-72 1405.5,-72 1411.5,-78 1411.5,-84 1411.5,-84 1411.5,-154.25 1411.5,-154.25 1411.5,-160.25 1405.5,-166.25 1399.5,-166.25"/>
<text text-anchor="middle" x="1342" y="-148.95" font-family="Helvetica,sans-Serif" font-size="14.00">12_C &lt;= 0.5</text>
<text text-anchor="middle" x="1342" y="-131.7" font-family="Helvetica,sans-Serif" font-size="14.00">entropy = 0.625</text>
<text text-anchor="middle" x="1342" y="-114.45" font-family="Helvetica,sans-Serif" font-size="14.00">samples = 375</text>
<text text-anchor="middle" x="1342" y="-97.2" font-family="Helvetica,sans-Serif" font-size="14.00">value = [519, 96]</text>
<text text-anchor="middle" x="1342" y="-79.95" font-family="Helvetica,sans-Serif" font-size="14.00">class = Animal</text>
</g>
<!-- 16544&#45;&gt;16946 -->
<g id="edge28" class="edge">
<title>16544&#45;&gt;16946</title>
<path fill="none" stroke="black" d="M1238.49,-202.07C1250.11,-192.87 1262.41,-183.13 1274.32,-173.71"/>
<polygon fill="black" stroke="black" points="1276.47,-176.46 1282.14,-167.51 1272.13,-170.98 1276.47,-176.46"/>
</g>
<!-- 16546 -->
<g id="node27" class="node">
<title>16546</title>
<path fill="#c0c0c0" stroke="black" d="M1150,-36C1150,-36 1120,-36 1120,-36 1114,-36 1108,-30 1108,-24 1108,-24 1108,-12 1108,-12 1108,-6 1114,0 1120,0 1120,0 1150,0 1150,0 1156,0 1162,-6 1162,-12 1162,-12 1162,-24 1162,-24 1162,-30 1156,-36 1150,-36"/>
<text text-anchor="middle" x="1135" y="-13.32" font-family="Helvetica,sans-Serif" font-size="14.00">(...)</text>
</g>
<!-- 16545&#45;&gt;16546 -->
<g id="edge26" class="edge">
<title>16545&#45;&gt;16546</title>
<path fill="none" stroke="black" d="M1158.95,-71.75C1155.03,-63.12 1151.05,-54.36 1147.5,-46.53"/>
<polygon fill="black" stroke="black" points="1150.74,-45.21 1143.42,-37.55 1144.37,-48.1 1150.74,-45.21"/>
</g>
<!-- 16861 -->
<g id="node28" class="node">
<title>16861</title>
<path fill="#c0c0c0" stroke="black" d="M1222,-36C1222,-36 1192,-36 1192,-36 1186,-36 1180,-30 1180,-24 1180,-24 1180,-12 1180,-12 1180,-6 1186,0 1192,0 1192,0 1222,0 1222,0 1228,0 1234,-6 1234,-12 1234,-12 1234,-24 1234,-24 1234,-30 1228,-36 1222,-36"/>
<text text-anchor="middle" x="1207" y="-13.32" font-family="Helvetica,sans-Serif" font-size="14.00">(...)</text>
</g>
<!-- 16545&#45;&gt;16861 -->
<g id="edge27" class="edge">
<title>16545&#45;&gt;16861</title>
<path fill="none" stroke="black" d="M1192.63,-71.75C1194.93,-63.32 1197.26,-54.77 1199.35,-47.07"/>
<polygon fill="black" stroke="black" points="1202.67,-48.2 1201.92,-37.63 1195.92,-46.36 1202.67,-48.2"/>
</g>
<!-- 16947 -->
<g id="node30" class="node">
<title>16947</title>
<path fill="#c0c0c0" stroke="black" d="M1321,-36C1321,-36 1291,-36 1291,-36 1285,-36 1279,-30 1279,-24 1279,-24 1279,-12 1279,-12 1279,-6 1285,0 1291,0 1291,0 1321,0 1321,0 1327,0 1333,-6 1333,-12 1333,-12 1333,-24 1333,-24 1333,-30 1327,-36 1321,-36"/>
<text text-anchor="middle" x="1306" y="-13.32" font-family="Helvetica,sans-Serif" font-size="14.00">(...)</text>
</g>
<!-- 16946&#45;&gt;16947 -->
<g id="edge29" class="edge">
<title>16946&#45;&gt;16947</title>
<path fill="none" stroke="black" d="M1325.16,-71.75C1322.06,-63.22 1318.92,-54.57 1316.1,-46.8"/>
<polygon fill="black" stroke="black" points="1319.46,-45.8 1312.75,-37.6 1312.88,-48.19 1319.46,-45.8"/>
</g>
<!-- 17056 -->
<g id="node31" class="node">
<title>17056</title>
<path fill="#c0c0c0" stroke="black" d="M1393,-36C1393,-36 1363,-36 1363,-36 1357,-36 1351,-30 1351,-24 1351,-24 1351,-12 1351,-12 1351,-6 1357,0 1363,0 1363,0 1393,0 1393,0 1399,0 1405,-6 1405,-12 1405,-12 1405,-24 1405,-24 1405,-30 1399,-36 1393,-36"/>
<text text-anchor="middle" x="1378" y="-13.32" font-family="Helvetica,sans-Serif" font-size="14.00">(...)</text>
</g>
<!-- 16946&#45;&gt;17056 -->
<g id="edge30" class="edge">
<title>16946&#45;&gt;17056</title>
<path fill="none" stroke="black" d="M1358.84,-71.75C1361.94,-63.22 1365.08,-54.57 1367.9,-46.8"/>
<polygon fill="black" stroke="black" points="1371.12,-48.19 1371.25,-37.6 1364.54,-45.8 1371.12,-48.19"/>
</g>
</g>
</svg>
