<?xml version="1.0" encoding="UTF-8" standalone="no"?>
<!DOCTYPE svg PUBLIC "-//W3C//DTD SVG 1.1//EN"
 "http://www.w3.org/Graphics/SVG/1.1/DTD/svg11.dtd">
<!-- Generated by graphviz version 12.0.0 (20240803.0821)
 -->
<!-- Title: Tree Pages: 1 -->
<svg width="1419pt" height="565pt"
 viewBox="0.00 0.00 1418.50 565.00" xmlns="http://www.w3.org/2000/svg" xmlns:xlink="http://www.w3.org/1999/xlink">
<g id="graph0" class="graph" transform="scale(1 1) rotate(0) translate(4 561)">
<title>Tree</title>
<polygon fill="white" stroke="none" points="-4,4 -4,-561 1414.5,-561 1414.5,4 -4,4"/>
<!-- 0 -->
<g id="node1" class="node">
<title>0</title>
<path fill="#fffefd" stroke="black" d="M796.5,-557C796.5,-557 636.5,-557 636.5,-557 630.5,-557 624.5,-551 624.5,-545 624.5,-545 624.5,-474.75 624.5,-474.75 624.5,-468.75 630.5,-462.75 636.5,-462.75 636.5,-462.75 796.5,-462.75 796.5,-462.75 802.5,-462.75 808.5,-468.75 808.5,-474.75 808.5,-474.75 808.5,-545 808.5,-545 808.5,-551 802.5,-557 796.5,-557"/>
<text text-anchor="middle" x="716.5" y="-539.7" font-family="Helvetica,sans-Serif" font-size="14.00">19_C &lt;= 0.5</text>
<text text-anchor="middle" x="716.5" y="-522.45" font-family="Helvetica,sans-Serif" font-size="14.00">entropy = 1.0</text>
<text text-anchor="middle" x="716.5" y="-505.2" font-family="Helvetica,sans-Serif" font-size="14.00">samples = 37993</text>
<text text-anchor="middle" x="716.5" y="-487.95" font-family="Helvetica,sans-Serif" font-size="14.00">value = [30330, 30015]</text>
<text text-anchor="middle" x="716.5" y="-470.7" font-family="Helvetica,sans-Serif" font-size="14.00">class = Animal</text>
</g>
<!-- 1 -->
<g id="node2" class="node">
<title>1</title>
<path fill="#f9e0ce" stroke="black" d="M623.5,-426.75C623.5,-426.75 463.5,-426.75 463.5,-426.75 457.5,-426.75 451.5,-420.75 451.5,-414.75 451.5,-414.75 451.5,-344.5 451.5,-344.5 451.5,-338.5 457.5,-332.5 463.5,-332.5 463.5,-332.5 623.5,-332.5 623.5,-332.5 629.5,-332.5 635.5,-338.5 635.5,-344.5 635.5,-344.5 635.5,-414.75 635.5,-414.75 635.5,-420.75 629.5,-426.75 623.5,-426.75"/>
<text text-anchor="middle" x="543.5" y="-409.45" font-family="Helvetica,sans-Serif" font-size="14.00">22_A &lt;= 0.5</text>
<text text-anchor="middle" x="543.5" y="-392.2" font-family="Helvetica,sans-Serif" font-size="14.00">entropy = 0.985</text>
<text text-anchor="middle" x="543.5" y="-374.95" font-family="Helvetica,sans-Serif" font-size="14.00">samples = 25709</text>
<text text-anchor="middle" x="543.5" y="-357.7" font-family="Helvetica,sans-Serif" font-size="14.00">value = [23360, 17532]</text>
<text text-anchor="middle" x="543.5" y="-340.45" font-family="Helvetica,sans-Serif" font-size="14.00">class = Animal</text>
</g>
<!-- 0&#45;&gt;1 -->
<g id="edge1" class="edge">
<title>0&#45;&gt;1</title>
<path fill="none" stroke="black" d="M654.04,-462.57C641.5,-453.28 628.23,-443.44 615.4,-433.93"/>
<polygon fill="black" stroke="black" points="617.49,-431.12 607.37,-427.97 613.32,-436.74 617.49,-431.12"/>
<text text-anchor="middle" x="609.83" y="-447.13" font-family="Helvetica,sans-Serif" font-size="14.00">True</text>
</g>
<!-- 12574 -->
<g id="node17" class="node">
<title>12574</title>
<path fill="#a8d4f4" stroke="black" d="M976,-426.75C976,-426.75 825,-426.75 825,-426.75 819,-426.75 813,-420.75 813,-414.75 813,-414.75 813,-344.5 813,-344.5 813,-338.5 819,-332.5 825,-332.5 825,-332.5 976,-332.5 976,-332.5 982,-332.5 988,-338.5 988,-344.5 988,-344.5 988,-414.75 988,-414.75 988,-420.75 982,-426.75 976,-426.75"/>
<text text-anchor="middle" x="900.5" y="-409.45" font-family="Helvetica,sans-Serif" font-size="14.00">22_G &lt;= 0.5</text>
<text text-anchor="middle" x="900.5" y="-392.2" font-family="Helvetica,sans-Serif" font-size="14.00">entropy = 0.941</text>
<text text-anchor="middle" x="900.5" y="-374.95" font-family="Helvetica,sans-Serif" font-size="14.00">samples = 12284</text>
<text text-anchor="middle" x="900.5" y="-357.7" font-family="Helvetica,sans-Serif" font-size="14.00">value = [6970, 12483]</text>
<text text-anchor="middle" x="900.5" y="-340.45" font-family="Helvetica,sans-Serif" font-size="14.00">class = Plant</text>
</g>
<!-- 0&#45;&gt;12574 -->
<g id="edge16" class="edge">
<title>0&#45;&gt;12574</title>
<path fill="none" stroke="black" d="M783.19,-462.39C796.56,-453.07 810.7,-443.22 824.36,-433.69"/>
<polygon fill="black" stroke="black" points="826.29,-436.62 832.49,-428.03 822.28,-430.88 826.29,-436.62"/>
<text text-anchor="middle" x="829.34" y="-447.1" font-family="Helvetica,sans-Serif" font-size="14.00">False</text>
</g>
<!-- 2 -->
<g id="node3" class="node">
<title>2</title>
<path fill="#fbebdf" stroke="black" d="M356.5,-296.5C356.5,-296.5 196.5,-296.5 196.5,-296.5 190.5,-296.5 184.5,-290.5 184.5,-284.5 184.5,-284.5 184.5,-214.25 184.5,-214.25 184.5,-208.25 190.5,-202.25 196.5,-202.25 196.5,-202.25 356.5,-202.25 356.5,-202.25 362.5,-202.25 368.5,-208.25 368.5,-214.25 368.5,-214.25 368.5,-284.5 368.5,-284.5 368.5,-290.5 362.5,-296.5 356.5,-296.5"/>
<text text-anchor="middle" x="276.5" y="-279.2" font-family="Helvetica,sans-Serif" font-size="14.00">1_U &lt;= 0.5</text>
<text text-anchor="middle" x="276.5" y="-261.95" font-family="Helvetica,sans-Serif" font-size="14.00">entropy = 0.994</text>
<text text-anchor="middle" x="276.5" y="-244.7" font-family="Helvetica,sans-Serif" font-size="14.00">samples = 22748</text>
<text text-anchor="middle" x="276.5" y="-227.45" font-family="Helvetica,sans-Serif" font-size="14.00">value = [19684, 16488]</text>
<text text-anchor="middle" x="276.5" y="-210.2" font-family="Helvetica,sans-Serif" font-size="14.00">class = Animal</text>
</g>
<!-- 1&#45;&gt;2 -->
<g id="edge2" class="edge">
<title>1&#45;&gt;2</title>
<path fill="none" stroke="black" d="M451.24,-334.31C427.9,-323.1 402.68,-310.99 378.87,-299.55"/>
<polygon fill="black" stroke="black" points="380.66,-296.52 370.13,-295.35 377.63,-302.83 380.66,-296.52"/>
</g>
<!-- 11239 -->
<g id="node10" class="node">
<title>11239</title>
<path fill="#eca571" stroke="black" d="M614.5,-296.5C614.5,-296.5 472.5,-296.5 472.5,-296.5 466.5,-296.5 460.5,-290.5 460.5,-284.5 460.5,-284.5 460.5,-214.25 460.5,-214.25 460.5,-208.25 466.5,-202.25 472.5,-202.25 472.5,-202.25 614.5,-202.25 614.5,-202.25 620.5,-202.25 626.5,-208.25 626.5,-214.25 626.5,-214.25 626.5,-284.5 626.5,-284.5 626.5,-290.5 620.5,-296.5 614.5,-296.5"/>
<text text-anchor="middle" x="543.5" y="-279.2" font-family="Helvetica,sans-Serif" font-size="14.00">6_U &lt;= 0.5</text>
<text text-anchor="middle" x="543.5" y="-261.95" font-family="Helvetica,sans-Serif" font-size="14.00">entropy = 0.762</text>
<text text-anchor="middle" x="543.5" y="-244.7" font-family="Helvetica,sans-Serif" font-size="14.00">samples = 2961</text>
<text text-anchor="middle" x="543.5" y="-227.45" font-family="Helvetica,sans-Serif" font-size="14.00">value = [3676, 1044]</text>
<text text-anchor="middle" x="543.5" y="-210.2" font-family="Helvetica,sans-Serif" font-size="14.00">class = Animal</text>
</g>
<!-- 1&#45;&gt;11239 -->
<g id="edge9" class="edge">
<title>1&#45;&gt;11239</title>
<path fill="none" stroke="black" d="M543.5,-332.32C543.5,-324.42 543.5,-316.13 543.5,-307.98"/>
<polygon fill="black" stroke="black" points="547,-308.12 543.5,-298.12 540,-308.12 547,-308.12"/>
</g>
<!-- 3 -->
<g id="node4" class="node">
<title>3</title>
<path fill="#f6d3ba" stroke="black" d="M163,-166.25C163,-166.25 12,-166.25 12,-166.25 6,-166.25 0,-160.25 0,-154.25 0,-154.25 0,-84 0,-84 0,-78 6,-72 12,-72 12,-72 163,-72 163,-72 169,-72 175,-78 175,-84 175,-84 175,-154.25 175,-154.25 175,-160.25 169,-166.25 163,-166.25"/>
<text text-anchor="middle" x="87.5" y="-148.95" font-family="Helvetica,sans-Serif" font-size="14.00">16_C &lt;= 0.5</text>
<text text-anchor="middle" x="87.5" y="-131.7" font-family="Helvetica,sans-Serif" font-size="14.00">entropy = 0.968</text>
<text text-anchor="middle" x="87.5" y="-114.45" font-family="Helvetica,sans-Serif" font-size="14.00">samples = 11158</text>
<text text-anchor="middle" x="87.5" y="-97.2" font-family="Helvetica,sans-Serif" font-size="14.00">value = [10708, 6995]</text>
<text text-anchor="middle" x="87.5" y="-79.95" font-family="Helvetica,sans-Serif" font-size="14.00">class = Animal</text>
</g>
<!-- 2&#45;&gt;3 -->
<g id="edge3" class="edge">
<title>2&#45;&gt;3</title>
<path fill="none" stroke="black" d="M208,-201.89C194.13,-192.48 179.46,-182.53 165.3,-172.92"/>
<polygon fill="black" stroke="black" points="167.58,-170.23 157.34,-167.51 163.65,-176.03 167.58,-170.23"/>
</g>
<!-- 6340 -->
<g id="node7" class="node">
<title>6340</title>
<path fill="#f4fafe" stroke="black" d="M347.5,-166.25C347.5,-166.25 205.5,-166.25 205.5,-166.25 199.5,-166.25 193.5,-160.25 193.5,-154.25 193.5,-154.25 193.5,-84 193.5,-84 193.5,-78 199.5,-72 205.5,-72 205.5,-72 347.5,-72 347.5,-72 353.5,-72 359.5,-78 359.5,-84 359.5,-84 359.5,-154.25 359.5,-154.25 359.5,-160.25 353.5,-166.25 347.5,-166.25"/>
<text text-anchor="middle" x="276.5" y="-148.95" font-family="Helvetica,sans-Serif" font-size="14.00">9_G &lt;= 0.5</text>
<text text-anchor="middle" x="276.5" y="-131.7" font-family="Helvetica,sans-Serif" font-size="14.00">entropy = 0.999</text>
<text text-anchor="middle" x="276.5" y="-114.45" font-family="Helvetica,sans-Serif" font-size="14.00">samples = 11590</text>
<text text-anchor="middle" x="276.5" y="-97.2" font-family="Helvetica,sans-Serif" font-size="14.00">value = [8976, 9493]</text>
<text text-anchor="middle" x="276.5" y="-79.95" font-family="Helvetica,sans-Serif" font-size="14.00">class = Plant</text>
</g>
<!-- 2&#45;&gt;6340 -->
<g id="edge6" class="edge">
<title>2&#45;&gt;6340</title>
<path fill="none" stroke="black" d="M276.5,-202.07C276.5,-194.17 276.5,-185.88 276.5,-177.73"/>
<polygon fill="black" stroke="black" points="280,-177.87 276.5,-167.87 273,-177.87 280,-177.87"/>
</g>
<!-- 4 -->
<g id="node5" class="node">
<title>4</title>
<path fill="#c0c0c0" stroke="black" d="M66.5,-36C66.5,-36 36.5,-36 36.5,-36 30.5,-36 24.5,-30 24.5,-24 24.5,-24 24.5,-12 24.5,-12 24.5,-6 30.5,0 36.5,0 36.5,0 66.5,0 66.5,0 72.5,0 78.5,-6 78.5,-12 78.5,-12 78.5,-24 78.5,-24 78.5,-30 72.5,-36 66.5,-36"/>
<text text-anchor="middle" x="51.5" y="-13.32" font-family="Helvetica,sans-Serif" font-size="14.00">(...)</text>
</g>
<!-- 3&#45;&gt;4 -->
<g id="edge4" class="edge">
<title>3&#45;&gt;4</title>
<path fill="none" stroke="black" d="M70.66,-71.75C67.56,-63.22 64.42,-54.57 61.6,-46.8"/>
<polygon fill="black" stroke="black" points="64.96,-45.8 58.25,-37.6 58.38,-48.19 64.96,-45.8"/>
</g>
<!-- 4829 -->
<g id="node6" class="node">
<title>4829</title>
<path fill="#c0c0c0" stroke="black" d="M138.5,-36C138.5,-36 108.5,-36 108.5,-36 102.5,-36 96.5,-30 96.5,-24 96.5,-24 96.5,-12 96.5,-12 96.5,-6 102.5,0 108.5,0 108.5,0 138.5,0 138.5,0 144.5,0 150.5,-6 150.5,-12 150.5,-12 150.5,-24 150.5,-24 150.5,-30 144.5,-36 138.5,-36"/>
<text text-anchor="middle" x="123.5" y="-13.32" font-family="Helvetica,sans-Serif" font-size="14.00">(...)</text>
</g>
<!-- 3&#45;&gt;4829 -->
<g id="edge5" class="edge">
<title>3&#45;&gt;4829</title>
<path fill="none" stroke="black" d="M104.34,-71.75C107.44,-63.22 110.58,-54.57 113.4,-46.8"/>
<polygon fill="black" stroke="black" points="116.62,-48.19 116.75,-37.6 110.04,-45.8 116.62,-48.19"/>
</g>
<!-- 6341 -->
<g id="node8" class="node">
<title>6341</title>
<path fill="#c0c0c0" stroke="black" d="M252.5,-36C252.5,-36 222.5,-36 222.5,-36 216.5,-36 210.5,-30 210.5,-24 210.5,-24 210.5,-12 210.5,-12 210.5,-6 216.5,0 222.5,0 222.5,0 252.5,0 252.5,0 258.5,0 264.5,-6 264.5,-12 264.5,-12 264.5,-24 264.5,-24 264.5,-30 258.5,-36 252.5,-36"/>
<text text-anchor="middle" x="237.5" y="-13.32" font-family="Helvetica,sans-Serif" font-size="14.00">(...)</text>
</g>
<!-- 6340&#45;&gt;6341 -->
<g id="edge7" class="edge">
<title>6340&#45;&gt;6341</title>
<path fill="none" stroke="black" d="M258.26,-71.75C254.9,-63.22 251.49,-54.57 248.44,-46.8"/>
<polygon fill="black" stroke="black" points="251.73,-45.61 244.81,-37.58 245.21,-48.17 251.73,-45.61"/>
</g>
<!-- 9920 -->
<g id="node9" class="node">
<title>9920</title>
<path fill="#c0c0c0" stroke="black" d="M324.5,-36C324.5,-36 294.5,-36 294.5,-36 288.5,-36 282.5,-30 282.5,-24 282.5,-24 282.5,-12 282.5,-12 282.5,-6 288.5,0 294.5,0 294.5,0 324.5,0 324.5,0 330.5,0 336.5,-6 336.5,-12 336.5,-12 336.5,-24 336.5,-24 336.5,-30 330.5,-36 324.5,-36"/>
<text text-anchor="middle" x="309.5" y="-13.32" font-family="Helvetica,sans-Serif" font-size="14.00">(...)</text>
</g>
<!-- 6340&#45;&gt;9920 -->
<g id="edge8" class="edge">
<title>6340&#45;&gt;9920</title>
<path fill="none" stroke="black" d="M291.94,-71.75C294.74,-63.32 297.59,-54.77 300.16,-47.07"/>
<polygon fill="black" stroke="black" points="303.47,-48.2 303.3,-37.61 296.83,-45.99 303.47,-48.2"/>
</g>
<!-- 11240 -->
<g id="node11" class="node">
<title>11240</title>
<path fill="#eeab7c" stroke="black" d="M523,-166.25C523,-166.25 390,-166.25 390,-166.25 384,-166.25 378,-160.25 378,-154.25 378,-154.25 378,-84 378,-84 378,-78 384,-72 390,-72 390,-72 523,-72 523,-72 529,-72 535,-78 535,-84 535,-84 535,-154.25 535,-154.25 535,-160.25 529,-166.25 523,-166.25"/>
<text text-anchor="middle" x="456.5" y="-148.95" font-family="Helvetica,sans-Serif" font-size="14.00">8_U &lt;= 0.5</text>
<text text-anchor="middle" x="456.5" y="-131.7" font-family="Helvetica,sans-Serif" font-size="14.00">entropy = 0.814</text>
<text text-anchor="middle" x="456.5" y="-114.45" font-family="Helvetica,sans-Serif" font-size="14.00">samples = 2018</text>
<text text-anchor="middle" x="456.5" y="-97.2" font-family="Helvetica,sans-Serif" font-size="14.00">value = [2422, 815]</text>
<text text-anchor="middle" x="456.5" y="-79.95" font-family="Helvetica,sans-Serif" font-size="14.00">class = Animal</text>
</g>
<!-- 11239&#45;&gt;11240 -->
<g id="edge10" class="edge">
<title>11239&#45;&gt;11240</title>
<path fill="none" stroke="black" d="M512.09,-202.07C506.3,-193.54 500.2,-184.54 494.25,-175.77"/>
<polygon fill="black" stroke="black" points="497.22,-173.92 488.71,-167.61 491.43,-177.85 497.22,-173.92"/>
</g>
<!-- 12227 -->
<g id="node14" class="node">
<title>12227</title>
<path fill="#ea985d" stroke="black" d="M698,-166.25C698,-166.25 565,-166.25 565,-166.25 559,-166.25 553,-160.25 553,-154.25 553,-154.25 553,-84 553,-84 553,-78 559,-72 565,-72 565,-72 698,-72 698,-72 704,-72 710,-78 710,-84 710,-84 710,-154.25 710,-154.25 710,-160.25 704,-166.25 698,-166.25"/>
<text text-anchor="middle" x="631.5" y="-148.95" font-family="Helvetica,sans-Serif" font-size="14.00">12_U &lt;= 0.5</text>
<text text-anchor="middle" x="631.5" y="-131.7" font-family="Helvetica,sans-Serif" font-size="14.00">entropy = 0.621</text>
<text text-anchor="middle" x="631.5" y="-114.45" font-family="Helvetica,sans-Serif" font-size="14.00">samples = 943</text>
<text text-anchor="middle" x="631.5" y="-97.2" font-family="Helvetica,sans-Serif" font-size="14.00">value = [1254, 229]</text>
<text text-anchor="middle" x="631.5" y="-79.95" font-family="Helvetica,sans-Serif" font-size="14.00">class = Animal</text>
</g>
<!-- 11239&#45;&gt;12227 -->
<g id="edge13" class="edge">
<title>11239&#45;&gt;12227</title>
<path fill="none" stroke="black" d="M575.27,-202.07C581.13,-193.54 587.3,-184.54 593.32,-175.77"/>
<polygon fill="black" stroke="black" points="596.15,-177.83 598.92,-167.61 590.38,-173.87 596.15,-177.83"/>
</g>
<!-- 11241 -->
<g id="node12" class="node">
<title>11241</title>
<path fill="#c0c0c0" stroke="black" d="M414.5,-36C414.5,-36 384.5,-36 384.5,-36 378.5,-36 372.5,-30 372.5,-24 372.5,-24 372.5,-12 372.5,-12 372.5,-6 378.5,0 384.5,0 384.5,0 414.5,0 414.5,0 420.5,0 426.5,-6 426.5,-12 426.5,-12 426.5,-24 426.5,-24 426.5,-30 420.5,-36 414.5,-36"/>
<text text-anchor="middle" x="399.5" y="-13.32" font-family="Helvetica,sans-Serif" font-size="14.00">(...)</text>
</g>
<!-- 11240&#45;&gt;11241 -->
<g id="edge11" class="edge">
<title>11240&#45;&gt;11241</title>
<path fill="none" stroke="black" d="M429.84,-71.75C424.76,-62.93 419.6,-53.96 415.02,-45.99"/>
<polygon fill="black" stroke="black" points="418.15,-44.41 410.13,-37.48 412.08,-47.9 418.15,-44.41"/>
</g>
<!-- 12004 -->
<g id="node13" class="node">
<title>12004</title>
<path fill="#c0c0c0" stroke="black" d="M486.5,-36C486.5,-36 456.5,-36 456.5,-36 450.5,-36 444.5,-30 444.5,-24 444.5,-24 444.5,-12 444.5,-12 444.5,-6 450.5,0 456.5,0 456.5,0 486.5,0 486.5,0 492.5,0 498.5,-6 498.5,-12 498.5,-12 498.5,-24 498.5,-24 498.5,-30 492.5,-36 486.5,-36"/>
<text text-anchor="middle" x="471.5" y="-13.32" font-family="Helvetica,sans-Serif" font-size="14.00">(...)</text>
</g>
<!-- 11240&#45;&gt;12004 -->
<g id="edge12" class="edge">
<title>11240&#45;&gt;12004</title>
<path fill="none" stroke="black" d="M463.52,-71.75C464.78,-63.42 466.06,-54.97 467.21,-47.34"/>
<polygon fill="black" stroke="black" points="470.64,-48.08 468.67,-37.67 463.72,-47.03 470.64,-48.08"/>
</g>
<!-- 12228 -->
<g id="node15" class="node">
<title>12228</title>
<path fill="#c0c0c0" stroke="black" d="M594.5,-36C594.5,-36 564.5,-36 564.5,-36 558.5,-36 552.5,-30 552.5,-24 552.5,-24 552.5,-12 552.5,-12 552.5,-6 558.5,0 564.5,0 564.5,0 594.5,0 594.5,0 600.5,0 606.5,-6 606.5,-12 606.5,-12 606.5,-24 606.5,-24 606.5,-30 600.5,-36 594.5,-36"/>
<text text-anchor="middle" x="579.5" y="-13.32" font-family="Helvetica,sans-Serif" font-size="14.00">(...)</text>
</g>
<!-- 12227&#45;&gt;12228 -->
<g id="edge14" class="edge">
<title>12227&#45;&gt;12228</title>
<path fill="none" stroke="black" d="M607.17,-71.75C602.6,-63.03 597.95,-54.16 593.8,-46.26"/>
<polygon fill="black" stroke="black" points="596.96,-44.74 589.21,-37.51 590.76,-47.99 596.96,-44.74"/>
</g>
<!-- 12493 -->
<g id="node16" class="node">
<title>12493</title>
<path fill="#c0c0c0" stroke="black" d="M666.5,-36C666.5,-36 636.5,-36 636.5,-36 630.5,-36 624.5,-30 624.5,-24 624.5,-24 624.5,-12 624.5,-12 624.5,-6 630.5,0 636.5,0 636.5,0 666.5,0 666.5,0 672.5,0 678.5,-6 678.5,-12 678.5,-12 678.5,-24 678.5,-24 678.5,-30 672.5,-36 666.5,-36"/>
<text text-anchor="middle" x="651.5" y="-13.32" font-family="Helvetica,sans-Serif" font-size="14.00">(...)</text>
</g>
<!-- 12227&#45;&gt;12493 -->
<g id="edge15" class="edge">
<title>12227&#45;&gt;12493</title>
<path fill="none" stroke="black" d="M640.86,-71.75C642.54,-63.42 644.24,-54.97 645.78,-47.34"/>
<polygon fill="black" stroke="black" points="649.19,-48.15 647.74,-37.66 642.33,-46.77 649.19,-48.15"/>
</g>
<!-- 12575 -->
<g id="node18" class="node">
<title>12575</title>
<path fill="#99ccf2" stroke="black" d="M976,-296.5C976,-296.5 825,-296.5 825,-296.5 819,-296.5 813,-290.5 813,-284.5 813,-284.5 813,-214.25 813,-214.25 813,-208.25 819,-202.25 825,-202.25 825,-202.25 976,-202.25 976,-202.25 982,-202.25 988,-208.25 988,-214.25 988,-214.25 988,-284.5 988,-284.5 988,-290.5 982,-296.5 976,-296.5"/>
<text text-anchor="middle" x="900.5" y="-279.2" font-family="Helvetica,sans-Serif" font-size="14.00">4_U &lt;= 0.5</text>
<text text-anchor="middle" x="900.5" y="-261.95" font-family="Helvetica,sans-Serif" font-size="14.00">entropy = 0.91</text>
<text text-anchor="middle" x="900.5" y="-244.7" font-family="Helvetica,sans-Serif" font-size="14.00">samples = 11265</text>
<text text-anchor="middle" x="900.5" y="-227.45" font-family="Helvetica,sans-Serif" font-size="14.00">value = [5792, 11999]</text>
<text text-anchor="middle" x="900.5" y="-210.2" font-family="Helvetica,sans-Serif" font-size="14.00">class = Plant</text>
</g>
<!-- 12574&#45;&gt;12575 -->
<g id="edge17" class="edge">
<title>12574&#45;&gt;12575</title>
<path fill="none" stroke="black" d="M900.5,-332.32C900.5,-324.42 900.5,-316.13 900.5,-307.98"/>
<polygon fill="black" stroke="black" points="904,-308.12 900.5,-298.12 897,-308.12 904,-308.12"/>
</g>
<!-- 16176 -->
<g id="node25" class="node">
<title>16176</title>
<path fill="#f0b58a" stroke="black" d="M1237,-296.5C1237,-296.5 1104,-296.5 1104,-296.5 1098,-296.5 1092,-290.5 1092,-284.5 1092,-284.5 1092,-214.25 1092,-214.25 1092,-208.25 1098,-202.25 1104,-202.25 1104,-202.25 1237,-202.25 1237,-202.25 1243,-202.25 1249,-208.25 1249,-214.25 1249,-214.25 1249,-284.5 1249,-284.5 1249,-290.5 1243,-296.5 1237,-296.5"/>
<text text-anchor="middle" x="1170.5" y="-279.2" font-family="Helvetica,sans-Serif" font-size="14.00">1_C &lt;= 0.5</text>
<text text-anchor="middle" x="1170.5" y="-261.95" font-family="Helvetica,sans-Serif" font-size="14.00">entropy = 0.87</text>
<text text-anchor="middle" x="1170.5" y="-244.7" font-family="Helvetica,sans-Serif" font-size="14.00">samples = 1019</text>
<text text-anchor="middle" x="1170.5" y="-227.45" font-family="Helvetica,sans-Serif" font-size="14.00">value = [1178, 484]</text>
<text text-anchor="middle" x="1170.5" y="-210.2" font-family="Helvetica,sans-Serif" font-size="14.00">class = Animal</text>
</g>
<!-- 12574&#45;&gt;16176 -->
<g id="edge24" class="edge">
<title>12574&#45;&gt;16176</title>
<path fill="none" stroke="black" d="M988.16,-336.99C1018.18,-322.73 1051.78,-306.77 1081.87,-292.47"/>
<polygon fill="black" stroke="black" points="1083.04,-295.79 1090.57,-288.34 1080.03,-289.47 1083.04,-295.79"/>
</g>
<!-- 12576 -->
<g id="node19" class="node">
<title>12576</title>
<path fill="#85c3ef" stroke="black" d="M891,-166.25C891,-166.25 740,-166.25 740,-166.25 734,-166.25 728,-160.25 728,-154.25 728,-154.25 728,-84 728,-84 728,-78 734,-72 740,-72 740,-72 891,-72 891,-72 897,-72 903,-78 903,-84 903,-84 903,-154.25 903,-154.25 903,-160.25 897,-166.25 891,-166.25"/>
<text text-anchor="middle" x="815.5" y="-148.95" font-family="Helvetica,sans-Serif" font-size="14.00">16_G &lt;= 0.5</text>
<text text-anchor="middle" x="815.5" y="-131.7" font-family="Helvetica,sans-Serif" font-size="14.00">entropy = 0.852</text>
<text text-anchor="middle" x="815.5" y="-114.45" font-family="Helvetica,sans-Serif" font-size="14.00">samples = 9767</text>
<text text-anchor="middle" x="815.5" y="-97.2" font-family="Helvetica,sans-Serif" font-size="14.00">value = [4276, 11141]</text>
<text text-anchor="middle" x="815.5" y="-79.95" font-family="Helvetica,sans-Serif" font-size="14.00">class = Plant</text>
</g>
<!-- 12575&#45;&gt;12576 -->
<g id="edge18" class="edge">
<title>12575&#45;&gt;12576</title>
<path fill="none" stroke="black" d="M869.81,-202.07C864.16,-193.54 858.2,-184.54 852.38,-175.77"/>
<polygon fill="black" stroke="black" points="855.42,-174.02 846.98,-167.62 849.59,-177.89 855.42,-174.02"/>
</g>
<!-- 15333 -->
<g id="node22" class="node">
<title>15333</title>
<path fill="#f4c8a9" stroke="black" d="M1066,-166.25C1066,-166.25 933,-166.25 933,-166.25 927,-166.25 921,-160.25 921,-154.25 921,-154.25 921,-84 921,-84 921,-78 927,-72 933,-72 933,-72 1066,-72 1066,-72 1072,-72 1078,-78 1078,-84 1078,-84 1078,-154.25 1078,-154.25 1078,-160.25 1072,-166.25 1066,-166.25"/>
<text text-anchor="middle" x="999.5" y="-148.95" font-family="Helvetica,sans-Serif" font-size="14.00">21_G &lt;= 0.5</text>
<text text-anchor="middle" x="999.5" y="-131.7" font-family="Helvetica,sans-Serif" font-size="14.00">entropy = 0.944</text>
<text text-anchor="middle" x="999.5" y="-114.45" font-family="Helvetica,sans-Serif" font-size="14.00">samples = 1498</text>
<text text-anchor="middle" x="999.5" y="-97.2" font-family="Helvetica,sans-Serif" font-size="14.00">value = [1516, 858]</text>
<text text-anchor="middle" x="999.5" y="-79.95" font-family="Helvetica,sans-Serif" font-size="14.00">class = Animal</text>
</g>
<!-- 12575&#45;&gt;15333 -->
<g id="edge21" class="edge">
<title>12575&#45;&gt;15333</title>
<path fill="none" stroke="black" d="M936.24,-202.07C942.97,-193.36 950.07,-184.16 956.98,-175.21"/>
<polygon fill="black" stroke="black" points="959.55,-177.61 962.89,-167.56 954.01,-173.33 959.55,-177.61"/>
</g>
<!-- 12577 -->
<g id="node20" class="node">
<title>12577</title>
<path fill="#c0c0c0" stroke="black" d="M778.5,-36C778.5,-36 748.5,-36 748.5,-36 742.5,-36 736.5,-30 736.5,-24 736.5,-24 736.5,-12 736.5,-12 736.5,-6 742.5,0 748.5,0 748.5,0 778.5,0 778.5,0 784.5,0 790.5,-6 790.5,-12 790.5,-12 790.5,-24 790.5,-24 790.5,-30 784.5,-36 778.5,-36"/>
<text text-anchor="middle" x="763.5" y="-13.32" font-family="Helvetica,sans-Serif" font-size="14.00">(...)</text>
</g>
<!-- 12576&#45;&gt;12577 -->
<g id="edge19" class="edge">
<title>12576&#45;&gt;12577</title>
<path fill="none" stroke="black" d="M791.17,-71.75C786.6,-63.03 781.95,-54.16 777.8,-46.26"/>
<polygon fill="black" stroke="black" points="780.96,-44.74 773.21,-37.51 774.76,-47.99 780.96,-44.74"/>
</g>
<!-- 14710 -->
<g id="node21" class="node">
<title>14710</title>
<path fill="#c0c0c0" stroke="black" d="M850.5,-36C850.5,-36 820.5,-36 820.5,-36 814.5,-36 808.5,-30 808.5,-24 808.5,-24 808.5,-12 808.5,-12 808.5,-6 814.5,0 820.5,0 820.5,0 850.5,0 850.5,0 856.5,0 862.5,-6 862.5,-12 862.5,-12 862.5,-24 862.5,-24 862.5,-30 856.5,-36 850.5,-36"/>
<text text-anchor="middle" x="835.5" y="-13.32" font-family="Helvetica,sans-Serif" font-size="14.00">(...)</text>
</g>
<!-- 12576&#45;&gt;14710 -->
<g id="edge20" class="edge">
<title>12576&#45;&gt;14710</title>
<path fill="none" stroke="black" d="M824.86,-71.75C826.54,-63.42 828.24,-54.97 829.78,-47.34"/>
<polygon fill="black" stroke="black" points="833.19,-48.15 831.74,-37.66 826.33,-46.77 833.19,-48.15"/>
</g>
<!-- 15334 -->
<g id="node23" class="node">
<title>15334</title>
<path fill="#c0c0c0" stroke="black" d="M955.5,-36C955.5,-36 925.5,-36 925.5,-36 919.5,-36 913.5,-30 913.5,-24 913.5,-24 913.5,-12 913.5,-12 913.5,-6 919.5,0 925.5,0 925.5,0 955.5,0 955.5,0 961.5,0 967.5,-6 967.5,-12 967.5,-12 967.5,-24 967.5,-24 967.5,-30 961.5,-36 955.5,-36"/>
<text text-anchor="middle" x="940.5" y="-13.32" font-family="Helvetica,sans-Serif" font-size="14.00">(...)</text>
</g>
<!-- 15333&#45;&gt;15334 -->
<g id="edge22" class="edge">
<title>15333&#45;&gt;15334</title>
<path fill="none" stroke="black" d="M971.9,-71.75C966.65,-62.93 961.31,-53.96 956.56,-45.99"/>
<polygon fill="black" stroke="black" points="959.62,-44.28 951.5,-37.47 953.6,-47.86 959.62,-44.28"/>
</g>
<!-- 15979 -->
<g id="node24" class="node">
<title>15979</title>
<path fill="#c0c0c0" stroke="black" d="M1027.5,-36C1027.5,-36 997.5,-36 997.5,-36 991.5,-36 985.5,-30 985.5,-24 985.5,-24 985.5,-12 985.5,-12 985.5,-6 991.5,0 997.5,0 997.5,0 1027.5,0 1027.5,0 1033.5,0 1039.5,-6 1039.5,-12 1039.5,-12 1039.5,-24 1039.5,-24 1039.5,-30 1033.5,-36 1027.5,-36"/>
<text text-anchor="middle" x="1012.5" y="-13.32" font-family="Helvetica,sans-Serif" font-size="14.00">(...)</text>
</g>
<!-- 15333&#45;&gt;15979 -->
<g id="edge23" class="edge">
<title>15333&#45;&gt;15979</title>
<path fill="none" stroke="black" d="M1005.58,-71.75C1006.67,-63.42 1007.78,-54.97 1008.78,-47.34"/>
<polygon fill="black" stroke="black" points="1012.22,-48.04 1010.05,-37.67 1005.28,-47.13 1012.22,-48.04"/>
</g>
<!-- 16177 -->
<g id="node26" class="node">
<title>16177</title>
<path fill="#eeac7d" stroke="black" d="M1232.5,-166.25C1232.5,-166.25 1108.5,-166.25 1108.5,-166.25 1102.5,-166.25 1096.5,-160.25 1096.5,-154.25 1096.5,-154.25 1096.5,-84 1096.5,-84 1096.5,-78 1102.5,-72 1108.5,-72 1108.5,-72 1232.5,-72 1232.5,-72 1238.5,-72 1244.5,-78 1244.5,-84 1244.5,-84 1244.5,-154.25 1244.5,-154.25 1244.5,-160.25 1238.5,-166.25 1232.5,-166.25"/>
<text text-anchor="middle" x="1170.5" y="-148.95" font-family="Helvetica,sans-Serif" font-size="14.00">24_G &lt;= 0.5</text>
<text text-anchor="middle" x="1170.5" y="-131.7" font-family="Helvetica,sans-Serif" font-size="14.00">entropy = 0.821</text>
<text text-anchor="middle" x="1170.5" y="-114.45" font-family="Helvetica,sans-Serif" font-size="14.00">samples = 827</text>
<text text-anchor="middle" x="1170.5" y="-97.2" font-family="Helvetica,sans-Serif" font-size="14.00">value = [988, 340]</text>
<text text-anchor="middle" x="1170.5" y="-79.95" font-family="Helvetica,sans-Serif" font-size="14.00">class = Animal</text>
</g>
<!-- 16176&#45;&gt;16177 -->
<g id="edge25" class="edge">
<title>16176&#45;&gt;16177</title>
<path fill="none" stroke="black" d="M1170.5,-202.07C1170.5,-194.17 1170.5,-185.88 1170.5,-177.73"/>
<polygon fill="black" stroke="black" points="1174,-177.87 1170.5,-167.87 1167,-177.87 1174,-177.87"/>
</g>
<!-- 16544 -->
<g id="node29" class="node">
<title>16544</title>
<path fill="#f9e0cf" stroke="black" d="M1398.5,-166.25C1398.5,-166.25 1274.5,-166.25 1274.5,-166.25 1268.5,-166.25 1262.5,-160.25 1262.5,-154.25 1262.5,-154.25 1262.5,-84 1262.5,-84 1262.5,-78 1268.5,-72 1274.5,-72 1274.5,-72 1398.5,-72 1398.5,-72 1404.5,-72 1410.5,-78 1410.5,-84 1410.5,-84 1410.5,-154.25 1410.5,-154.25 1410.5,-160.25 1404.5,-166.25 1398.5,-166.25"/>
<text text-anchor="middle" x="1336.5" y="-148.95" font-family="Helvetica,sans-Serif" font-size="14.00">20_G &lt;= 0.5</text>
<text text-anchor="middle" x="1336.5" y="-131.7" font-family="Helvetica,sans-Serif" font-size="14.00">entropy = 0.986</text>
<text text-anchor="middle" x="1336.5" y="-114.45" font-family="Helvetica,sans-Serif" font-size="14.00">samples = 192</text>
<text text-anchor="middle" x="1336.5" y="-97.2" font-family="Helvetica,sans-Serif" font-size="14.00">value = [190, 144]</text>
<text text-anchor="middle" x="1336.5" y="-79.95" font-family="Helvetica,sans-Serif" font-size="14.00">class = Animal</text>
</g>
<!-- 16176&#45;&gt;16544 -->
<g id="edge28" class="edge">
<title>16176&#45;&gt;16544</title>
<path fill="none" stroke="black" d="M1230.43,-202.07C1242.46,-192.78 1255.2,-182.94 1267.51,-173.43"/>
<polygon fill="black" stroke="black" points="1269.41,-176.38 1275.18,-167.5 1265.13,-170.84 1269.41,-176.38"/>
</g>
<!-- 16178 -->
<g id="node27" class="node">
<title>16178</title>
<path fill="#c0c0c0" stroke="black" d="M1142.5,-36C1142.5,-36 1112.5,-36 1112.5,-36 1106.5,-36 1100.5,-30 1100.5,-24 1100.5,-24 1100.5,-12 1100.5,-12 1100.5,-6 1106.5,0 1112.5,0 1112.5,0 1142.5,0 1142.5,0 1148.5,0 1154.5,-6 1154.5,-12 1154.5,-12 1154.5,-24 1154.5,-24 1154.5,-30 1148.5,-36 1142.5,-36"/>
<text text-anchor="middle" x="1127.5" y="-13.32" font-family="Helvetica,sans-Serif" font-size="14.00">(...)</text>
</g>
<!-- 16177&#45;&gt;16178 -->
<g id="edge26" class="edge">
<title>16177&#45;&gt;16178</title>
<path fill="none" stroke="black" d="M1150.38,-71.75C1146.64,-63.12 1142.84,-54.36 1139.44,-46.53"/>
<polygon fill="black" stroke="black" points="1142.74,-45.34 1135.55,-37.56 1136.32,-48.13 1142.74,-45.34"/>
</g>
<!-- 16525 -->
<g id="node28" class="node">
<title>16525</title>
<path fill="#c0c0c0" stroke="black" d="M1214.5,-36C1214.5,-36 1184.5,-36 1184.5,-36 1178.5,-36 1172.5,-30 1172.5,-24 1172.5,-24 1172.5,-12 1172.5,-12 1172.5,-6 1178.5,0 1184.5,0 1184.5,0 1214.5,0 1214.5,0 1220.5,0 1226.5,-6 1226.5,-12 1226.5,-12 1226.5,-24 1226.5,-24 1226.5,-30 1220.5,-36 1214.5,-36"/>
<text text-anchor="middle" x="1199.5" y="-13.32" font-family="Helvetica,sans-Serif" font-size="14.00">(...)</text>
</g>
<!-- 16177&#45;&gt;16525 -->
<g id="edge27" class="edge">
<title>16177&#45;&gt;16525</title>
<path fill="none" stroke="black" d="M1184.07,-71.75C1186.53,-63.32 1189.04,-54.77 1191.29,-47.07"/>
<polygon fill="black" stroke="black" points="1194.6,-48.21 1194.05,-37.63 1187.88,-46.24 1194.6,-48.21"/>
</g>
<!-- 16545 -->
<g id="node30" class="node">
<title>16545</title>
<path fill="#c0c0c0" stroke="black" d="M1315.5,-36C1315.5,-36 1285.5,-36 1285.5,-36 1279.5,-36 1273.5,-30 1273.5,-24 1273.5,-24 1273.5,-12 1273.5,-12 1273.5,-6 1279.5,0 1285.5,0 1285.5,0 1315.5,0 1315.5,0 1321.5,0 1327.5,-6 1327.5,-12 1327.5,-12 1327.5,-24 1327.5,-24 1327.5,-30 1321.5,-36 1315.5,-36"/>
<text text-anchor="middle" x="1300.5" y="-13.32" font-family="Helvetica,sans-Serif" font-size="14.00">(...)</text>
</g>
<!-- 16544&#45;&gt;16545 -->
<g id="edge29" class="edge">
<title>16544&#45;&gt;16545</title>
<path fill="none" stroke="black" d="M1319.66,-71.75C1316.56,-63.22 1313.42,-54.57 1310.6,-46.8"/>
<polygon fill="black" stroke="black" points="1313.96,-45.8 1307.25,-37.6 1307.38,-48.19 1313.96,-45.8"/>
</g>
<!-- 16624 -->
<g id="node31" class="node">
<title>16624</title>
<path fill="#c0c0c0" stroke="black" d="M1387.5,-36C1387.5,-36 1357.5,-36 1357.5,-36 1351.5,-36 1345.5,-30 1345.5,-24 1345.5,-24 1345.5,-12 1345.5,-12 1345.5,-6 1351.5,0 1357.5,0 1357.5,0 1387.5,0 1387.5,0 1393.5,0 1399.5,-6 1399.5,-12 1399.5,-12 1399.5,-24 1399.5,-24 1399.5,-30 1393.5,-36 1387.5,-36"/>
<text text-anchor="middle" x="1372.5" y="-13.32" font-family="Helvetica,sans-Serif" font-size="14.00">(...)</text>
</g>
<!-- 16544&#45;&gt;16624 -->
<g id="edge30" class="edge">
<title>16544&#45;&gt;16624</title>
<path fill="none" stroke="black" d="M1353.34,-71.75C1356.44,-63.22 1359.58,-54.57 1362.4,-46.8"/>
<polygon fill="black" stroke="black" points="1365.62,-48.19 1365.75,-37.6 1359.04,-45.8 1365.62,-48.19"/>
</g>
</g>
</svg>
