<?xml version="1.0" encoding="UTF-8" standalone="no"?>
<!DOCTYPE svg PUBLIC "-//W3C//DTD SVG 1.1//EN"
 "http://www.w3.org/Graphics/SVG/1.1/DTD/svg11.dtd">
<!-- Generated by graphviz version 12.0.0 (20240803.0821)
 -->
<!-- Title: Tree Pages: 1 -->
<svg width="1408pt" height="565pt"
 viewBox="0.00 0.00 1408.38 565.00" xmlns="http://www.w3.org/2000/svg" xmlns:xlink="http://www.w3.org/1999/xlink">
<g id="graph0" class="graph" transform="scale(1 1) rotate(0) translate(4 561)">
<title>Tree</title>
<polygon fill="white" stroke="none" points="-4,4 -4,-561 1404.38,-561 1404.38,4 -4,4"/>
<!-- 0 -->
<g id="node1" class="node">
<title>0</title>
<path fill="#fffefe" stroke="black" d="M789,-557C789,-557 629,-557 629,-557 623,-557 617,-551 617,-545 617,-545 617,-474.75 617,-474.75 617,-468.75 623,-462.75 629,-462.75 629,-462.75 789,-462.75 789,-462.75 795,-462.75 801,-468.75 801,-474.75 801,-474.75 801,-545 801,-545 801,-551 795,-557 789,-557"/>
<text text-anchor="middle" x="709" y="-539.7" font-family="Helvetica,sans-Serif" font-size="14.00">1_U &lt;= 0.5</text>
<text text-anchor="middle" x="709" y="-522.45" font-family="Helvetica,sans-Serif" font-size="14.00">entropy = 1.0</text>
<text text-anchor="middle" x="709" y="-505.2" font-family="Helvetica,sans-Serif" font-size="14.00">samples = 38118</text>
<text text-anchor="middle" x="709" y="-487.95" font-family="Helvetica,sans-Serif" font-size="14.00">value = [30271, 30074]</text>
<text text-anchor="middle" x="709" y="-470.7" font-family="Helvetica,sans-Serif" font-size="14.00">class = Animal</text>
</g>
<!-- 1 -->
<g id="node2" class="node">
<title>1</title>
<path fill="#f8dbc6" stroke="black" d="M612,-426.75C612,-426.75 452,-426.75 452,-426.75 446,-426.75 440,-420.75 440,-414.75 440,-414.75 440,-344.5 440,-344.5 440,-338.5 446,-332.5 452,-332.5 452,-332.5 612,-332.5 612,-332.5 618,-332.5 624,-338.5 624,-344.5 624,-344.5 624,-414.75 624,-414.75 624,-420.75 618,-426.75 612,-426.75"/>
<text text-anchor="middle" x="532" y="-409.45" font-family="Helvetica,sans-Serif" font-size="14.00">10_C &lt;= 0.5</text>
<text text-anchor="middle" x="532" y="-392.2" font-family="Helvetica,sans-Serif" font-size="14.00">entropy = 0.979</text>
<text text-anchor="middle" x="532" y="-374.95" font-family="Helvetica,sans-Serif" font-size="14.00">samples = 17874</text>
<text text-anchor="middle" x="532" y="-357.7" font-family="Helvetica,sans-Serif" font-size="14.00">value = [16501, 11748]</text>
<text text-anchor="middle" x="532" y="-340.45" font-family="Helvetica,sans-Serif" font-size="14.00">class = Animal</text>
</g>
<!-- 0&#45;&gt;1 -->
<g id="edge1" class="edge">
<title>0&#45;&gt;1</title>
<path fill="none" stroke="black" d="M644.85,-462.39C631.99,-453.07 618.38,-443.22 605.24,-433.69"/>
<polygon fill="black" stroke="black" points="607.61,-431.09 597.46,-428.05 603.5,-436.75 607.61,-431.09"/>
<text text-anchor="middle" x="600.17" y="-447.18" font-family="Helvetica,sans-Serif" font-size="14.00">True</text>
</g>
<!-- 9356 -->
<g id="node17" class="node">
<title>9356</title>
<path fill="#cee7f9" stroke="black" d="M982,-426.75C982,-426.75 822,-426.75 822,-426.75 816,-426.75 810,-420.75 810,-414.75 810,-414.75 810,-344.5 810,-344.5 810,-338.5 816,-332.5 822,-332.5 822,-332.5 982,-332.5 982,-332.5 988,-332.5 994,-338.5 994,-344.5 994,-344.5 994,-414.75 994,-414.75 994,-420.75 988,-426.75 982,-426.75"/>
<text text-anchor="middle" x="902" y="-409.45" font-family="Helvetica,sans-Serif" font-size="14.00">23_C &lt;= 0.5</text>
<text text-anchor="middle" x="902" y="-392.2" font-family="Helvetica,sans-Serif" font-size="14.00">entropy = 0.985</text>
<text text-anchor="middle" x="902" y="-374.95" font-family="Helvetica,sans-Serif" font-size="14.00">samples = 20244</text>
<text text-anchor="middle" x="902" y="-357.7" font-family="Helvetica,sans-Serif" font-size="14.00">value = [13770, 18326]</text>
<text text-anchor="middle" x="902" y="-340.45" font-family="Helvetica,sans-Serif" font-size="14.00">class = Plant</text>
</g>
<!-- 0&#45;&gt;9356 -->
<g id="edge16" class="edge">
<title>0&#45;&gt;9356</title>
<path fill="none" stroke="black" d="M778.95,-462.39C793.11,-452.98 808.1,-443.03 822.55,-433.42"/>
<polygon fill="black" stroke="black" points="824.31,-436.45 830.7,-428 820.44,-430.62 824.31,-436.45"/>
<text text-anchor="middle" x="827.02" y="-447" font-family="Helvetica,sans-Serif" font-size="14.00">False</text>
</g>
<!-- 2 -->
<g id="node3" class="node">
<title>2</title>
<path fill="#f9e4d5" stroke="black" d="M342.5,-296.5C342.5,-296.5 191.5,-296.5 191.5,-296.5 185.5,-296.5 179.5,-290.5 179.5,-284.5 179.5,-284.5 179.5,-214.25 179.5,-214.25 179.5,-208.25 185.5,-202.25 191.5,-202.25 191.5,-202.25 342.5,-202.25 342.5,-202.25 348.5,-202.25 354.5,-208.25 354.5,-214.25 354.5,-214.25 354.5,-284.5 354.5,-284.5 354.5,-290.5 348.5,-296.5 342.5,-296.5"/>
<text text-anchor="middle" x="267" y="-279.2" font-family="Helvetica,sans-Serif" font-size="14.00">9_C &lt;= 0.5</text>
<text text-anchor="middle" x="267" y="-261.95" font-family="Helvetica,sans-Serif" font-size="14.00">entropy = 0.99</text>
<text text-anchor="middle" x="267" y="-244.7" font-family="Helvetica,sans-Serif" font-size="14.00">samples = 13951</text>
<text text-anchor="middle" x="267" y="-227.45" font-family="Helvetica,sans-Serif" font-size="14.00">value = [12323, 9686]</text>
<text text-anchor="middle" x="267" y="-210.2" font-family="Helvetica,sans-Serif" font-size="14.00">class = Animal</text>
</g>
<!-- 1&#45;&gt;2 -->
<g id="edge2" class="edge">
<title>1&#45;&gt;2</title>
<path fill="none" stroke="black" d="M439.69,-333.95C415.64,-322.31 389.64,-309.73 365.29,-297.95"/>
<polygon fill="black" stroke="black" points="366.86,-294.81 356.33,-293.61 363.81,-301.12 366.86,-294.81"/>
</g>
<!-- 7271 -->
<g id="node10" class="node">
<title>7271</title>
<path fill="#f2bf9b" stroke="black" d="M603,-296.5C603,-296.5 461,-296.5 461,-296.5 455,-296.5 449,-290.5 449,-284.5 449,-284.5 449,-214.25 449,-214.25 449,-208.25 455,-202.25 461,-202.25 461,-202.25 603,-202.25 603,-202.25 609,-202.25 615,-208.25 615,-214.25 615,-214.25 615,-284.5 615,-284.5 615,-290.5 609,-296.5 603,-296.5"/>
<text text-anchor="middle" x="532" y="-279.2" font-family="Helvetica,sans-Serif" font-size="14.00">22_C &lt;= 0.5</text>
<text text-anchor="middle" x="532" y="-261.95" font-family="Helvetica,sans-Serif" font-size="14.00">entropy = 0.915</text>
<text text-anchor="middle" x="532" y="-244.7" font-family="Helvetica,sans-Serif" font-size="14.00">samples = 3923</text>
<text text-anchor="middle" x="532" y="-227.45" font-family="Helvetica,sans-Serif" font-size="14.00">value = [4178, 2062]</text>
<text text-anchor="middle" x="532" y="-210.2" font-family="Helvetica,sans-Serif" font-size="14.00">class = Animal</text>
</g>
<!-- 1&#45;&gt;7271 -->
<g id="edge9" class="edge">
<title>1&#45;&gt;7271</title>
<path fill="none" stroke="black" d="M532,-332.32C532,-324.42 532,-316.13 532,-307.98"/>
<polygon fill="black" stroke="black" points="535.5,-308.12 532,-298.12 528.5,-308.12 535.5,-308.12"/>
</g>
<!-- 3 -->
<g id="node4" class="node">
<title>3</title>
<path fill="#fbe9dd" stroke="black" d="M154,-166.25C154,-166.25 12,-166.25 12,-166.25 6,-166.25 0,-160.25 0,-154.25 0,-154.25 0,-84 0,-84 0,-78 6,-72 12,-72 12,-72 154,-72 154,-72 160,-72 166,-78 166,-84 166,-84 166,-154.25 166,-154.25 166,-160.25 160,-166.25 154,-166.25"/>
<text text-anchor="middle" x="83" y="-148.95" font-family="Helvetica,sans-Serif" font-size="14.00">23_G &lt;= 0.5</text>
<text text-anchor="middle" x="83" y="-131.7" font-family="Helvetica,sans-Serif" font-size="14.00">entropy = 0.994</text>
<text text-anchor="middle" x="83" y="-114.45" font-family="Helvetica,sans-Serif" font-size="14.00">samples = 11176</text>
<text text-anchor="middle" x="83" y="-97.2" font-family="Helvetica,sans-Serif" font-size="14.00">value = [9636, 7987]</text>
<text text-anchor="middle" x="83" y="-79.95" font-family="Helvetica,sans-Serif" font-size="14.00">class = Animal</text>
</g>
<!-- 2&#45;&gt;3 -->
<g id="edge3" class="edge">
<title>2&#45;&gt;3</title>
<path fill="none" stroke="black" d="M200.31,-201.89C186.94,-192.57 172.8,-182.72 159.14,-173.19"/>
<polygon fill="black" stroke="black" points="161.22,-170.38 151.01,-167.53 157.21,-176.12 161.22,-170.38"/>
</g>
<!-- 5638 -->
<g id="node7" class="node">
<title>5638</title>
<path fill="#f5d1b6" stroke="black" d="M338,-166.25C338,-166.25 196,-166.25 196,-166.25 190,-166.25 184,-160.25 184,-154.25 184,-154.25 184,-84 184,-84 184,-78 190,-72 196,-72 196,-72 338,-72 338,-72 344,-72 350,-78 350,-84 350,-84 350,-154.25 350,-154.25 350,-160.25 344,-166.25 338,-166.25"/>
<text text-anchor="middle" x="267" y="-148.95" font-family="Helvetica,sans-Serif" font-size="14.00">19_U &lt;= 0.5</text>
<text text-anchor="middle" x="267" y="-131.7" font-family="Helvetica,sans-Serif" font-size="14.00">entropy = 0.963</text>
<text text-anchor="middle" x="267" y="-114.45" font-family="Helvetica,sans-Serif" font-size="14.00">samples = 2775</text>
<text text-anchor="middle" x="267" y="-97.2" font-family="Helvetica,sans-Serif" font-size="14.00">value = [2687, 1699]</text>
<text text-anchor="middle" x="267" y="-79.95" font-family="Helvetica,sans-Serif" font-size="14.00">class = Animal</text>
</g>
<!-- 2&#45;&gt;5638 -->
<g id="edge6" class="edge">
<title>2&#45;&gt;5638</title>
<path fill="none" stroke="black" d="M267,-202.07C267,-194.17 267,-185.88 267,-177.73"/>
<polygon fill="black" stroke="black" points="270.5,-177.87 267,-167.87 263.5,-177.87 270.5,-177.87"/>
</g>
<!-- 4 -->
<g id="node5" class="node">
<title>4</title>
<path fill="#c0c0c0" stroke="black" d="M62,-36C62,-36 32,-36 32,-36 26,-36 20,-30 20,-24 20,-24 20,-12 20,-12 20,-6 26,0 32,0 32,0 62,0 62,0 68,0 74,-6 74,-12 74,-12 74,-24 74,-24 74,-30 68,-36 62,-36"/>
<text text-anchor="middle" x="47" y="-13.32" font-family="Helvetica,sans-Serif" font-size="14.00">(...)</text>
</g>
<!-- 3&#45;&gt;4 -->
<g id="edge4" class="edge">
<title>3&#45;&gt;4</title>
<path fill="none" stroke="black" d="M66.16,-71.75C63.06,-63.22 59.92,-54.57 57.1,-46.8"/>
<polygon fill="black" stroke="black" points="60.46,-45.8 53.75,-37.6 53.88,-48.19 60.46,-45.8"/>
</g>
<!-- 5405 -->
<g id="node6" class="node">
<title>5405</title>
<path fill="#c0c0c0" stroke="black" d="M134,-36C134,-36 104,-36 104,-36 98,-36 92,-30 92,-24 92,-24 92,-12 92,-12 92,-6 98,0 104,0 104,0 134,0 134,0 140,0 146,-6 146,-12 146,-12 146,-24 146,-24 146,-30 140,-36 134,-36"/>
<text text-anchor="middle" x="119" y="-13.32" font-family="Helvetica,sans-Serif" font-size="14.00">(...)</text>
</g>
<!-- 3&#45;&gt;5405 -->
<g id="edge5" class="edge">
<title>3&#45;&gt;5405</title>
<path fill="none" stroke="black" d="M99.84,-71.75C102.94,-63.22 106.08,-54.57 108.9,-46.8"/>
<polygon fill="black" stroke="black" points="112.12,-48.19 112.25,-37.6 105.54,-45.8 112.12,-48.19"/>
</g>
<!-- 5639 -->
<g id="node8" class="node">
<title>5639</title>
<path fill="#c0c0c0" stroke="black" d="M245,-36C245,-36 215,-36 215,-36 209,-36 203,-30 203,-24 203,-24 203,-12 203,-12 203,-6 209,0 215,0 215,0 245,0 245,0 251,0 257,-6 257,-12 257,-12 257,-24 257,-24 257,-30 251,-36 245,-36"/>
<text text-anchor="middle" x="230" y="-13.32" font-family="Helvetica,sans-Serif" font-size="14.00">(...)</text>
</g>
<!-- 5638&#45;&gt;5639 -->
<g id="edge7" class="edge">
<title>5638&#45;&gt;5639</title>
<path fill="none" stroke="black" d="M249.69,-71.75C246.51,-63.22 243.28,-54.57 240.38,-46.8"/>
<polygon fill="black" stroke="black" points="243.72,-45.74 236.94,-37.59 237.16,-48.18 243.72,-45.74"/>
</g>
<!-- 6844 -->
<g id="node9" class="node">
<title>6844</title>
<path fill="#c0c0c0" stroke="black" d="M317,-36C317,-36 287,-36 287,-36 281,-36 275,-30 275,-24 275,-24 275,-12 275,-12 275,-6 281,0 287,0 287,0 317,0 317,0 323,0 329,-6 329,-12 329,-12 329,-24 329,-24 329,-30 323,-36 317,-36"/>
<text text-anchor="middle" x="302" y="-13.32" font-family="Helvetica,sans-Serif" font-size="14.00">(...)</text>
</g>
<!-- 5638&#45;&gt;6844 -->
<g id="edge8" class="edge">
<title>5638&#45;&gt;6844</title>
<path fill="none" stroke="black" d="M283.37,-71.75C286.39,-63.22 289.44,-54.57 292.18,-46.8"/>
<polygon fill="black" stroke="black" points="295.4,-48.19 295.43,-37.6 288.8,-45.86 295.4,-48.19"/>
</g>
<!-- 7272 -->
<g id="node11" class="node">
<title>7272</title>
<path fill="#f3c7a7" stroke="black" d="M522,-166.25C522,-166.25 380,-166.25 380,-166.25 374,-166.25 368,-160.25 368,-154.25 368,-154.25 368,-84 368,-84 368,-78 374,-72 380,-72 380,-72 522,-72 522,-72 528,-72 534,-78 534,-84 534,-84 534,-154.25 534,-154.25 534,-160.25 528,-166.25 522,-166.25"/>
<text text-anchor="middle" x="451" y="-148.95" font-family="Helvetica,sans-Serif" font-size="14.00">4_C &lt;= 0.5</text>
<text text-anchor="middle" x="451" y="-131.7" font-family="Helvetica,sans-Serif" font-size="14.00">entropy = 0.941</text>
<text text-anchor="middle" x="451" y="-114.45" font-family="Helvetica,sans-Serif" font-size="14.00">samples = 3351</text>
<text text-anchor="middle" x="451" y="-97.2" font-family="Helvetica,sans-Serif" font-size="14.00">value = [3409, 1896]</text>
<text text-anchor="middle" x="451" y="-79.95" font-family="Helvetica,sans-Serif" font-size="14.00">class = Animal</text>
</g>
<!-- 7271&#45;&gt;7272 -->
<g id="edge10" class="edge">
<title>7271&#45;&gt;7272</title>
<path fill="none" stroke="black" d="M502.76,-202.07C497.42,-193.63 491.81,-184.74 486.32,-176.05"/>
<polygon fill="black" stroke="black" points="489.31,-174.22 481.01,-167.64 483.39,-177.96 489.31,-174.22"/>
</g>
<!-- 9129 -->
<g id="node14" class="node">
<title>9129</title>
<path fill="#eb9c64" stroke="black" d="M688,-166.25C688,-166.25 564,-166.25 564,-166.25 558,-166.25 552,-160.25 552,-154.25 552,-154.25 552,-84 552,-84 552,-78 558,-72 564,-72 564,-72 688,-72 688,-72 694,-72 700,-78 700,-84 700,-84 700,-154.25 700,-154.25 700,-160.25 694,-166.25 688,-166.25"/>
<text text-anchor="middle" x="626" y="-148.95" font-family="Helvetica,sans-Serif" font-size="14.00">15_A &lt;= 0.5</text>
<text text-anchor="middle" x="626" y="-131.7" font-family="Helvetica,sans-Serif" font-size="14.00">entropy = 0.675</text>
<text text-anchor="middle" x="626" y="-114.45" font-family="Helvetica,sans-Serif" font-size="14.00">samples = 572</text>
<text text-anchor="middle" x="626" y="-97.2" font-family="Helvetica,sans-Serif" font-size="14.00">value = [769, 166]</text>
<text text-anchor="middle" x="626" y="-79.95" font-family="Helvetica,sans-Serif" font-size="14.00">class = Animal</text>
</g>
<!-- 7271&#45;&gt;9129 -->
<g id="edge13" class="edge">
<title>7271&#45;&gt;9129</title>
<path fill="none" stroke="black" d="M565.94,-202.07C572.26,-193.45 578.92,-184.35 585.42,-175.49"/>
<polygon fill="black" stroke="black" points="588.13,-177.71 591.22,-167.58 582.48,-173.58 588.13,-177.71"/>
</g>
<!-- 7273 -->
<g id="node12" class="node">
<title>7273</title>
<path fill="#c0c0c0" stroke="black" d="M409,-36C409,-36 379,-36 379,-36 373,-36 367,-30 367,-24 367,-24 367,-12 367,-12 367,-6 373,0 379,0 379,0 409,0 409,0 415,0 421,-6 421,-12 421,-12 421,-24 421,-24 421,-30 415,-36 409,-36"/>
<text text-anchor="middle" x="394" y="-13.32" font-family="Helvetica,sans-Serif" font-size="14.00">(...)</text>
</g>
<!-- 7272&#45;&gt;7273 -->
<g id="edge11" class="edge">
<title>7272&#45;&gt;7273</title>
<path fill="none" stroke="black" d="M424.34,-71.75C419.26,-62.93 414.1,-53.96 409.52,-45.99"/>
<polygon fill="black" stroke="black" points="412.65,-44.41 404.63,-37.48 406.58,-47.9 412.65,-44.41"/>
</g>
<!-- 8626 -->
<g id="node13" class="node">
<title>8626</title>
<path fill="#c0c0c0" stroke="black" d="M481,-36C481,-36 451,-36 451,-36 445,-36 439,-30 439,-24 439,-24 439,-12 439,-12 439,-6 445,0 451,0 451,0 481,0 481,0 487,0 493,-6 493,-12 493,-12 493,-24 493,-24 493,-30 487,-36 481,-36"/>
<text text-anchor="middle" x="466" y="-13.32" font-family="Helvetica,sans-Serif" font-size="14.00">(...)</text>
</g>
<!-- 7272&#45;&gt;8626 -->
<g id="edge12" class="edge">
<title>7272&#45;&gt;8626</title>
<path fill="none" stroke="black" d="M458.02,-71.75C459.28,-63.42 460.56,-54.97 461.71,-47.34"/>
<polygon fill="black" stroke="black" points="465.14,-48.08 463.17,-37.67 458.22,-47.03 465.14,-48.08"/>
</g>
<!-- 9130 -->
<g id="node15" class="node">
<title>9130</title>
<path fill="#c0c0c0" stroke="black" d="M589,-36C589,-36 559,-36 559,-36 553,-36 547,-30 547,-24 547,-24 547,-12 547,-12 547,-6 553,0 559,0 559,0 589,0 589,0 595,0 601,-6 601,-12 601,-12 601,-24 601,-24 601,-30 595,-36 589,-36"/>
<text text-anchor="middle" x="574" y="-13.32" font-family="Helvetica,sans-Serif" font-size="14.00">(...)</text>
</g>
<!-- 9129&#45;&gt;9130 -->
<g id="edge14" class="edge">
<title>9129&#45;&gt;9130</title>
<path fill="none" stroke="black" d="M601.67,-71.75C597.1,-63.03 592.45,-54.16 588.3,-46.26"/>
<polygon fill="black" stroke="black" points="591.46,-44.74 583.71,-37.51 585.26,-47.99 591.46,-44.74"/>
</g>
<!-- 9307 -->
<g id="node16" class="node">
<title>9307</title>
<path fill="#c0c0c0" stroke="black" d="M661,-36C661,-36 631,-36 631,-36 625,-36 619,-30 619,-24 619,-24 619,-12 619,-12 619,-6 625,0 631,0 631,0 661,0 661,0 667,0 673,-6 673,-12 673,-12 673,-24 673,-24 673,-30 667,-36 661,-36"/>
<text text-anchor="middle" x="646" y="-13.32" font-family="Helvetica,sans-Serif" font-size="14.00">(...)</text>
</g>
<!-- 9129&#45;&gt;9307 -->
<g id="edge15" class="edge">
<title>9129&#45;&gt;9307</title>
<path fill="none" stroke="black" d="M635.36,-71.75C637.04,-63.42 638.74,-54.97 640.28,-47.34"/>
<polygon fill="black" stroke="black" points="643.69,-48.15 642.24,-37.66 636.83,-46.77 643.69,-48.15"/>
</g>
<!-- 9357 -->
<g id="node18" class="node">
<title>9357</title>
<path fill="#c6e3f8" stroke="black" d="M982,-296.5C982,-296.5 822,-296.5 822,-296.5 816,-296.5 810,-290.5 810,-284.5 810,-284.5 810,-214.25 810,-214.25 810,-208.25 816,-202.25 822,-202.25 822,-202.25 982,-202.25 982,-202.25 988,-202.25 994,-208.25 994,-214.25 994,-214.25 994,-284.5 994,-284.5 994,-290.5 988,-296.5 982,-296.5"/>
<text text-anchor="middle" x="902" y="-279.2" font-family="Helvetica,sans-Serif" font-size="14.00">22_C &lt;= 0.5</text>
<text text-anchor="middle" x="902" y="-261.95" font-family="Helvetica,sans-Serif" font-size="14.00">entropy = 0.98</text>
<text text-anchor="middle" x="902" y="-244.7" font-family="Helvetica,sans-Serif" font-size="14.00">samples = 19638</text>
<text text-anchor="middle" x="902" y="-227.45" font-family="Helvetica,sans-Serif" font-size="14.00">value = [12979, 18186]</text>
<text text-anchor="middle" x="902" y="-210.2" font-family="Helvetica,sans-Serif" font-size="14.00">class = Plant</text>
</g>
<!-- 9356&#45;&gt;9357 -->
<g id="edge17" class="edge">
<title>9356&#45;&gt;9357</title>
<path fill="none" stroke="black" d="M902,-332.32C902,-324.42 902,-316.13 902,-307.98"/>
<polygon fill="black" stroke="black" points="905.5,-308.12 902,-298.12 898.5,-308.12 905.5,-308.12"/>
</g>
<!-- 16572 -->
<g id="node25" class="node">
<title>16572</title>
<path fill="#ea975c" stroke="black" d="M1240,-296.5C1240,-296.5 1116,-296.5 1116,-296.5 1110,-296.5 1104,-290.5 1104,-284.5 1104,-284.5 1104,-214.25 1104,-214.25 1104,-208.25 1110,-202.25 1116,-202.25 1116,-202.25 1240,-202.25 1240,-202.25 1246,-202.25 1252,-208.25 1252,-214.25 1252,-214.25 1252,-284.5 1252,-284.5 1252,-290.5 1246,-296.5 1240,-296.5"/>
<text text-anchor="middle" x="1178" y="-279.2" font-family="Helvetica,sans-Serif" font-size="14.00">26_C &lt;= 0.5</text>
<text text-anchor="middle" x="1178" y="-261.95" font-family="Helvetica,sans-Serif" font-size="14.00">entropy = 0.611</text>
<text text-anchor="middle" x="1178" y="-244.7" font-family="Helvetica,sans-Serif" font-size="14.00">samples = 606</text>
<text text-anchor="middle" x="1178" y="-227.45" font-family="Helvetica,sans-Serif" font-size="14.00">value = [791, 140]</text>
<text text-anchor="middle" x="1178" y="-210.2" font-family="Helvetica,sans-Serif" font-size="14.00">class = Animal</text>
</g>
<!-- 9356&#45;&gt;16572 -->
<g id="edge24" class="edge">
<title>9356&#45;&gt;16572</title>
<path fill="none" stroke="black" d="M994.29,-335.74C1026.39,-320.83 1062.21,-304.18 1093.63,-289.58"/>
<polygon fill="black" stroke="black" points="1094.7,-292.94 1102.3,-285.55 1091.75,-286.59 1094.7,-292.94"/>
</g>
<!-- 9358 -->
<g id="node19" class="node">
<title>9358</title>
<path fill="#bddef6" stroke="black" d="M890,-166.25C890,-166.25 730,-166.25 730,-166.25 724,-166.25 718,-160.25 718,-154.25 718,-154.25 718,-84 718,-84 718,-78 724,-72 730,-72 730,-72 890,-72 890,-72 896,-72 902,-78 902,-84 902,-84 902,-154.25 902,-154.25 902,-160.25 896,-166.25 890,-166.25"/>
<text text-anchor="middle" x="810" y="-148.95" font-family="Helvetica,sans-Serif" font-size="14.00">8_U &lt;= 0.5</text>
<text text-anchor="middle" x="810" y="-131.7" font-family="Helvetica,sans-Serif" font-size="14.00">entropy = 0.971</text>
<text text-anchor="middle" x="810" y="-114.45" font-family="Helvetica,sans-Serif" font-size="14.00">samples = 18008</text>
<text text-anchor="middle" x="810" y="-97.2" font-family="Helvetica,sans-Serif" font-size="14.00">value = [11421, 17184]</text>
<text text-anchor="middle" x="810" y="-79.95" font-family="Helvetica,sans-Serif" font-size="14.00">class = Plant</text>
</g>
<!-- 9357&#45;&gt;9358 -->
<g id="edge18" class="edge">
<title>9357&#45;&gt;9358</title>
<path fill="none" stroke="black" d="M868.79,-202.07C862.6,-193.45 856.07,-184.35 849.71,-175.49"/>
<polygon fill="black" stroke="black" points="852.72,-173.67 844.05,-167.59 847.03,-177.75 852.72,-173.67"/>
</g>
<!-- 15779 -->
<g id="node22" class="node">
<title>15779</title>
<path fill="#f6d2b8" stroke="black" d="M1074,-166.25C1074,-166.25 932,-166.25 932,-166.25 926,-166.25 920,-160.25 920,-154.25 920,-154.25 920,-84 920,-84 920,-78 926,-72 932,-72 932,-72 1074,-72 1074,-72 1080,-72 1086,-78 1086,-84 1086,-84 1086,-154.25 1086,-154.25 1086,-160.25 1080,-166.25 1074,-166.25"/>
<text text-anchor="middle" x="1003" y="-148.95" font-family="Helvetica,sans-Serif" font-size="14.00">2_A &lt;= 0.5</text>
<text text-anchor="middle" x="1003" y="-131.7" font-family="Helvetica,sans-Serif" font-size="14.00">entropy = 0.966</text>
<text text-anchor="middle" x="1003" y="-114.45" font-family="Helvetica,sans-Serif" font-size="14.00">samples = 1630</text>
<text text-anchor="middle" x="1003" y="-97.2" font-family="Helvetica,sans-Serif" font-size="14.00">value = [1558, 1002]</text>
<text text-anchor="middle" x="1003" y="-79.95" font-family="Helvetica,sans-Serif" font-size="14.00">class = Animal</text>
</g>
<!-- 9357&#45;&gt;15779 -->
<g id="edge21" class="edge">
<title>9357&#45;&gt;15779</title>
<path fill="none" stroke="black" d="M938.46,-202.07C945.33,-193.36 952.57,-184.16 959.62,-175.21"/>
<polygon fill="black" stroke="black" points="962.22,-177.57 965.65,-167.55 956.72,-173.24 962.22,-177.57"/>
</g>
<!-- 9359 -->
<g id="node20" class="node">
<title>9359</title>
<path fill="#c0c0c0" stroke="black" d="M777,-36C777,-36 747,-36 747,-36 741,-36 735,-30 735,-24 735,-24 735,-12 735,-12 735,-6 741,0 747,0 747,0 777,0 777,0 783,0 789,-6 789,-12 789,-12 789,-24 789,-24 789,-30 783,-36 777,-36"/>
<text text-anchor="middle" x="762" y="-13.32" font-family="Helvetica,sans-Serif" font-size="14.00">(...)</text>
</g>
<!-- 9358&#45;&gt;9359 -->
<g id="edge19" class="edge">
<title>9358&#45;&gt;9359</title>
<path fill="none" stroke="black" d="M787.55,-71.75C783.37,-63.12 779.12,-54.36 775.33,-46.53"/>
<polygon fill="black" stroke="black" points="778.48,-45.01 770.98,-37.53 772.18,-48.06 778.48,-45.01"/>
</g>
<!-- 14050 -->
<g id="node21" class="node">
<title>14050</title>
<path fill="#c0c0c0" stroke="black" d="M849,-36C849,-36 819,-36 819,-36 813,-36 807,-30 807,-24 807,-24 807,-12 807,-12 807,-6 813,0 819,0 819,0 849,0 849,0 855,0 861,-6 861,-12 861,-12 861,-24 861,-24 861,-30 855,-36 849,-36"/>
<text text-anchor="middle" x="834" y="-13.32" font-family="Helvetica,sans-Serif" font-size="14.00">(...)</text>
</g>
<!-- 9358&#45;&gt;14050 -->
<g id="edge20" class="edge">
<title>9358&#45;&gt;14050</title>
<path fill="none" stroke="black" d="M821.23,-71.75C823.24,-63.42 825.29,-54.97 827.14,-47.34"/>
<polygon fill="black" stroke="black" points="830.53,-48.19 829.49,-37.64 823.73,-46.54 830.53,-48.19"/>
</g>
<!-- 15780 -->
<g id="node23" class="node">
<title>15780</title>
<path fill="#c0c0c0" stroke="black" d="M961,-36C961,-36 931,-36 931,-36 925,-36 919,-30 919,-24 919,-24 919,-12 919,-12 919,-6 925,0 931,0 931,0 961,0 961,0 967,0 973,-6 973,-12 973,-12 973,-24 973,-24 973,-30 967,-36 961,-36"/>
<text text-anchor="middle" x="946" y="-13.32" font-family="Helvetica,sans-Serif" font-size="14.00">(...)</text>
</g>
<!-- 15779&#45;&gt;15780 -->
<g id="edge22" class="edge">
<title>15779&#45;&gt;15780</title>
<path fill="none" stroke="black" d="M976.34,-71.75C971.26,-62.93 966.1,-53.96 961.52,-45.99"/>
<polygon fill="black" stroke="black" points="964.65,-44.41 956.63,-37.48 958.58,-47.9 964.65,-44.41"/>
</g>
<!-- 16457 -->
<g id="node24" class="node">
<title>16457</title>
<path fill="#c0c0c0" stroke="black" d="M1033,-36C1033,-36 1003,-36 1003,-36 997,-36 991,-30 991,-24 991,-24 991,-12 991,-12 991,-6 997,0 1003,0 1003,0 1033,0 1033,0 1039,0 1045,-6 1045,-12 1045,-12 1045,-24 1045,-24 1045,-30 1039,-36 1033,-36"/>
<text text-anchor="middle" x="1018" y="-13.32" font-family="Helvetica,sans-Serif" font-size="14.00">(...)</text>
</g>
<!-- 15779&#45;&gt;16457 -->
<g id="edge23" class="edge">
<title>15779&#45;&gt;16457</title>
<path fill="none" stroke="black" d="M1010.02,-71.75C1011.28,-63.42 1012.56,-54.97 1013.71,-47.34"/>
<polygon fill="black" stroke="black" points="1017.14,-48.08 1015.17,-37.67 1010.22,-47.03 1017.14,-48.08"/>
</g>
<!-- 16573 -->
<g id="node26" class="node">
<title>16573</title>
<path fill="#e99559" stroke="black" d="M1240,-166.25C1240,-166.25 1116,-166.25 1116,-166.25 1110,-166.25 1104,-160.25 1104,-154.25 1104,-154.25 1104,-84 1104,-84 1104,-78 1110,-72 1116,-72 1116,-72 1240,-72 1240,-72 1246,-72 1252,-78 1252,-84 1252,-84 1252,-154.25 1252,-154.25 1252,-160.25 1246,-166.25 1240,-166.25"/>
<text text-anchor="middle" x="1178" y="-148.95" font-family="Helvetica,sans-Serif" font-size="14.00">13_C &lt;= 0.5</text>
<text text-anchor="middle" x="1178" y="-131.7" font-family="Helvetica,sans-Serif" font-size="14.00">entropy = 0.578</text>
<text text-anchor="middle" x="1178" y="-114.45" font-family="Helvetica,sans-Serif" font-size="14.00">samples = 597</text>
<text text-anchor="middle" x="1178" y="-97.2" font-family="Helvetica,sans-Serif" font-size="14.00">value = [790, 126]</text>
<text text-anchor="middle" x="1178" y="-79.95" font-family="Helvetica,sans-Serif" font-size="14.00">class = Animal</text>
</g>
<!-- 16572&#45;&gt;16573 -->
<g id="edge25" class="edge">
<title>16572&#45;&gt;16573</title>
<path fill="none" stroke="black" d="M1178,-202.07C1178,-194.17 1178,-185.88 1178,-177.73"/>
<polygon fill="black" stroke="black" points="1181.5,-177.87 1178,-167.87 1174.5,-177.87 1181.5,-177.87"/>
</g>
<!-- 16814 -->
<g id="node29" class="node">
<title>16814</title>
<path fill="#47a4e7" stroke="black" d="M1388.38,-166.25C1388.38,-166.25 1281.62,-166.25 1281.62,-166.25 1275.62,-166.25 1269.62,-160.25 1269.62,-154.25 1269.62,-154.25 1269.62,-84 1269.62,-84 1269.62,-78 1275.62,-72 1281.62,-72 1281.62,-72 1388.38,-72 1388.38,-72 1394.38,-72 1400.38,-78 1400.38,-84 1400.38,-84 1400.38,-154.25 1400.38,-154.25 1400.38,-160.25 1394.38,-166.25 1388.38,-166.25"/>
<text text-anchor="middle" x="1335" y="-148.95" font-family="Helvetica,sans-Serif" font-size="14.00">13_G &lt;= 0.5</text>
<text text-anchor="middle" x="1335" y="-131.7" font-family="Helvetica,sans-Serif" font-size="14.00">entropy = 0.353</text>
<text text-anchor="middle" x="1335" y="-114.45" font-family="Helvetica,sans-Serif" font-size="14.00">samples = 9</text>
<text text-anchor="middle" x="1335" y="-97.2" font-family="Helvetica,sans-Serif" font-size="14.00">value = [1, 14]</text>
<text text-anchor="middle" x="1335" y="-79.95" font-family="Helvetica,sans-Serif" font-size="14.00">class = Plant</text>
</g>
<!-- 16572&#45;&gt;16814 -->
<g id="edge28" class="edge">
<title>16572&#45;&gt;16814</title>
<path fill="none" stroke="black" d="M1234.68,-202.07C1245.95,-192.87 1257.87,-183.13 1269.41,-173.71"/>
<polygon fill="black" stroke="black" points="1271.44,-176.57 1276.97,-167.53 1267.01,-171.15 1271.44,-176.57"/>
</g>
<!-- 16574 -->
<g id="node27" class="node">
<title>16574</title>
<path fill="#c0c0c0" stroke="black" d="M1145,-36C1145,-36 1115,-36 1115,-36 1109,-36 1103,-30 1103,-24 1103,-24 1103,-12 1103,-12 1103,-6 1109,0 1115,0 1115,0 1145,0 1145,0 1151,0 1157,-6 1157,-12 1157,-12 1157,-24 1157,-24 1157,-30 1151,-36 1145,-36"/>
<text text-anchor="middle" x="1130" y="-13.32" font-family="Helvetica,sans-Serif" font-size="14.00">(...)</text>
</g>
<!-- 16573&#45;&gt;16574 -->
<g id="edge26" class="edge">
<title>16573&#45;&gt;16574</title>
<path fill="none" stroke="black" d="M1155.55,-71.75C1151.37,-63.12 1147.12,-54.36 1143.33,-46.53"/>
<polygon fill="black" stroke="black" points="1146.48,-45.01 1138.98,-37.53 1140.18,-48.06 1146.48,-45.01"/>
</g>
<!-- 16771 -->
<g id="node28" class="node">
<title>16771</title>
<path fill="#c0c0c0" stroke="black" d="M1217,-36C1217,-36 1187,-36 1187,-36 1181,-36 1175,-30 1175,-24 1175,-24 1175,-12 1175,-12 1175,-6 1181,0 1187,0 1187,0 1217,0 1217,0 1223,0 1229,-6 1229,-12 1229,-12 1229,-24 1229,-24 1229,-30 1223,-36 1217,-36"/>
<text text-anchor="middle" x="1202" y="-13.32" font-family="Helvetica,sans-Serif" font-size="14.00">(...)</text>
</g>
<!-- 16573&#45;&gt;16771 -->
<g id="edge27" class="edge">
<title>16573&#45;&gt;16771</title>
<path fill="none" stroke="black" d="M1189.23,-71.75C1191.24,-63.42 1193.29,-54.97 1195.14,-47.34"/>
<polygon fill="black" stroke="black" points="1198.53,-48.19 1197.49,-37.64 1191.73,-46.54 1198.53,-48.19"/>
</g>
<!-- 16815 -->
<g id="node30" class="node">
<title>16815</title>
<path fill="#c0c0c0" stroke="black" d="M1314,-36C1314,-36 1284,-36 1284,-36 1278,-36 1272,-30 1272,-24 1272,-24 1272,-12 1272,-12 1272,-6 1278,0 1284,0 1284,0 1314,0 1314,0 1320,0 1326,-6 1326,-12 1326,-12 1326,-24 1326,-24 1326,-30 1320,-36 1314,-36"/>
<text text-anchor="middle" x="1299" y="-13.32" font-family="Helvetica,sans-Serif" font-size="14.00">(...)</text>
</g>
<!-- 16814&#45;&gt;16815 -->
<g id="edge29" class="edge">
<title>16814&#45;&gt;16815</title>
<path fill="none" stroke="black" d="M1318.16,-71.75C1315.06,-63.22 1311.92,-54.57 1309.1,-46.8"/>
<polygon fill="black" stroke="black" points="1312.46,-45.8 1305.75,-37.6 1305.88,-48.19 1312.46,-45.8"/>
</g>
<!-- 16816 -->
<g id="node31" class="node">
<title>16816</title>
<path fill="#c0c0c0" stroke="black" d="M1386,-36C1386,-36 1356,-36 1356,-36 1350,-36 1344,-30 1344,-24 1344,-24 1344,-12 1344,-12 1344,-6 1350,0 1356,0 1356,0 1386,0 1386,0 1392,0 1398,-6 1398,-12 1398,-12 1398,-24 1398,-24 1398,-30 1392,-36 1386,-36"/>
<text text-anchor="middle" x="1371" y="-13.32" font-family="Helvetica,sans-Serif" font-size="14.00">(...)</text>
</g>
<!-- 16814&#45;&gt;16816 -->
<g id="edge30" class="edge">
<title>16814&#45;&gt;16816</title>
<path fill="none" stroke="black" d="M1351.84,-71.75C1354.94,-63.22 1358.08,-54.57 1360.9,-46.8"/>
<polygon fill="black" stroke="black" points="1364.12,-48.19 1364.25,-37.6 1357.54,-45.8 1364.12,-48.19"/>
</g>
</g>
</svg>
