<?xml version="1.0" encoding="UTF-8" standalone="no"?>
<!DOCTYPE svg PUBLIC "-//W3C//DTD SVG 1.1//EN"
 "http://www.w3.org/Graphics/SVG/1.1/DTD/svg11.dtd">
<!-- Generated by graphviz version 12.0.0 (20240803.0821)
 -->
<!-- Title: Tree Pages: 1 -->
<svg width="1427pt" height="565pt"
 viewBox="0.00 0.00 1427.00 565.00" xmlns="http://www.w3.org/2000/svg" xmlns:xlink="http://www.w3.org/1999/xlink">
<g id="graph0" class="graph" transform="scale(1 1) rotate(0) translate(4 561)">
<title>Tree</title>
<polygon fill="white" stroke="none" points="-4,4 -4,-561 1423,-561 1423,4 -4,4"/>
<!-- 0 -->
<g id="node1" class="node">
<title>0</title>
<path fill="#fffefe" stroke="black" d="M801,-557C801,-557 641,-557 641,-557 635,-557 629,-551 629,-545 629,-545 629,-474.75 629,-474.75 629,-468.75 635,-462.75 641,-462.75 641,-462.75 801,-462.75 801,-462.75 807,-462.75 813,-468.75 813,-474.75 813,-474.75 813,-545 813,-545 813,-551 807,-557 801,-557"/>
<text text-anchor="middle" x="721" y="-539.7" font-family="Helvetica,sans-Serif" font-size="14.00">8_G &lt;= 0.5</text>
<text text-anchor="middle" x="721" y="-522.45" font-family="Helvetica,sans-Serif" font-size="14.00">entropy = 1.0</text>
<text text-anchor="middle" x="721" y="-505.2" font-family="Helvetica,sans-Serif" font-size="14.00">samples = 38096</text>
<text text-anchor="middle" x="721" y="-487.95" font-family="Helvetica,sans-Serif" font-size="14.00">value = [30240, 30105]</text>
<text text-anchor="middle" x="721" y="-470.7" font-family="Helvetica,sans-Serif" font-size="14.00">class = Animal</text>
</g>
<!-- 1 -->
<g id="node2" class="node">
<title>1</title>
<path fill="#fae7d9" stroke="black" d="M630,-426.75C630,-426.75 470,-426.75 470,-426.75 464,-426.75 458,-420.75 458,-414.75 458,-414.75 458,-344.5 458,-344.5 458,-338.5 464,-332.5 470,-332.5 470,-332.5 630,-332.5 630,-332.5 636,-332.5 642,-338.5 642,-344.5 642,-344.5 642,-414.75 642,-414.75 642,-420.75 636,-426.75 630,-426.75"/>
<text text-anchor="middle" x="550" y="-409.45" font-family="Helvetica,sans-Serif" font-size="14.00">22_G &lt;= 0.5</text>
<text text-anchor="middle" x="550" y="-392.2" font-family="Helvetica,sans-Serif" font-size="14.00">entropy = 0.992</text>
<text text-anchor="middle" x="550" y="-374.95" font-family="Helvetica,sans-Serif" font-size="14.00">samples = 26396</text>
<text text-anchor="middle" x="550" y="-357.7" font-family="Helvetica,sans-Serif" font-size="14.00">value = [23054, 18651]</text>
<text text-anchor="middle" x="550" y="-340.45" font-family="Helvetica,sans-Serif" font-size="14.00">class = Animal</text>
</g>
<!-- 0&#45;&gt;1 -->
<g id="edge1" class="edge">
<title>0&#45;&gt;1</title>
<path fill="none" stroke="black" d="M659.27,-462.57C646.87,-453.28 633.75,-443.44 621.07,-433.93"/>
<polygon fill="black" stroke="black" points="623.24,-431.18 613.14,-427.98 619.04,-436.78 623.24,-431.18"/>
<text text-anchor="middle" x="615.47" y="-447.15" font-family="Helvetica,sans-Serif" font-size="14.00">True</text>
</g>
<!-- 12226 -->
<g id="node17" class="node">
<title>12226</title>
<path fill="#b5daf5" stroke="black" d="M982.5,-426.75C982.5,-426.75 831.5,-426.75 831.5,-426.75 825.5,-426.75 819.5,-420.75 819.5,-414.75 819.5,-414.75 819.5,-344.5 819.5,-344.5 819.5,-338.5 825.5,-332.5 831.5,-332.5 831.5,-332.5 982.5,-332.5 982.5,-332.5 988.5,-332.5 994.5,-338.5 994.5,-344.5 994.5,-344.5 994.5,-414.75 994.5,-414.75 994.5,-420.75 988.5,-426.75 982.5,-426.75"/>
<text text-anchor="middle" x="907" y="-409.45" font-family="Helvetica,sans-Serif" font-size="14.00">22_C &lt;= 0.5</text>
<text text-anchor="middle" x="907" y="-392.2" font-family="Helvetica,sans-Serif" font-size="14.00">entropy = 0.962</text>
<text text-anchor="middle" x="907" y="-374.95" font-family="Helvetica,sans-Serif" font-size="14.00">samples = 11700</text>
<text text-anchor="middle" x="907" y="-357.7" font-family="Helvetica,sans-Serif" font-size="14.00">value = [7186, 11454]</text>
<text text-anchor="middle" x="907" y="-340.45" font-family="Helvetica,sans-Serif" font-size="14.00">class = Plant</text>
</g>
<!-- 0&#45;&gt;12226 -->
<g id="edge16" class="edge">
<title>0&#45;&gt;12226</title>
<path fill="none" stroke="black" d="M788.41,-462.39C801.93,-453.07 816.23,-443.22 830.04,-433.69"/>
<polygon fill="black" stroke="black" points="832.01,-436.58 838.26,-428.02 828.04,-430.82 832.01,-436.58"/>
<text text-anchor="middle" x="834.99" y="-447.08" font-family="Helvetica,sans-Serif" font-size="14.00">False</text>
</g>
<!-- 2 -->
<g id="node3" class="node">
<title>2</title>
<path fill="#fefaf7" stroke="black" d="M365,-296.5C365,-296.5 205,-296.5 205,-296.5 199,-296.5 193,-290.5 193,-284.5 193,-284.5 193,-214.25 193,-214.25 193,-208.25 199,-202.25 205,-202.25 205,-202.25 365,-202.25 365,-202.25 371,-202.25 377,-208.25 377,-214.25 377,-214.25 377,-284.5 377,-284.5 377,-290.5 371,-296.5 365,-296.5"/>
<text text-anchor="middle" x="285" y="-279.2" font-family="Helvetica,sans-Serif" font-size="14.00">19_U &lt;= 0.5</text>
<text text-anchor="middle" x="285" y="-261.95" font-family="Helvetica,sans-Serif" font-size="14.00">entropy = 1.0</text>
<text text-anchor="middle" x="285" y="-244.7" font-family="Helvetica,sans-Serif" font-size="14.00">samples = 22726</text>
<text text-anchor="middle" x="285" y="-227.45" font-family="Helvetica,sans-Serif" font-size="14.00">value = [18328, 17585]</text>
<text text-anchor="middle" x="285" y="-210.2" font-family="Helvetica,sans-Serif" font-size="14.00">class = Animal</text>
</g>
<!-- 1&#45;&gt;2 -->
<g id="edge2" class="edge">
<title>1&#45;&gt;2</title>
<path fill="none" stroke="black" d="M457.69,-333.95C435.05,-322.99 410.68,-311.2 387.59,-300.02"/>
<polygon fill="black" stroke="black" points="389.32,-296.97 378.79,-295.77 386.27,-303.27 389.32,-296.97"/>
</g>
<!-- 10777 -->
<g id="node10" class="node">
<title>10777</title>
<path fill="#eb9d66" stroke="black" d="M621,-296.5C621,-296.5 479,-296.5 479,-296.5 473,-296.5 467,-290.5 467,-284.5 467,-284.5 467,-214.25 467,-214.25 467,-208.25 473,-202.25 479,-202.25 479,-202.25 621,-202.25 621,-202.25 627,-202.25 633,-208.25 633,-214.25 633,-214.25 633,-284.5 633,-284.5 633,-290.5 627,-296.5 621,-296.5"/>
<text text-anchor="middle" x="550" y="-279.2" font-family="Helvetica,sans-Serif" font-size="14.00">20_G &lt;= 0.5</text>
<text text-anchor="middle" x="550" y="-261.95" font-family="Helvetica,sans-Serif" font-size="14.00">entropy = 0.689</text>
<text text-anchor="middle" x="550" y="-244.7" font-family="Helvetica,sans-Serif" font-size="14.00">samples = 3670</text>
<text text-anchor="middle" x="550" y="-227.45" font-family="Helvetica,sans-Serif" font-size="14.00">value = [4726, 1066]</text>
<text text-anchor="middle" x="550" y="-210.2" font-family="Helvetica,sans-Serif" font-size="14.00">class = Animal</text>
</g>
<!-- 1&#45;&gt;10777 -->
<g id="edge9" class="edge">
<title>1&#45;&gt;10777</title>
<path fill="none" stroke="black" d="M550,-332.32C550,-324.42 550,-316.13 550,-307.98"/>
<polygon fill="black" stroke="black" points="553.5,-308.12 550,-298.12 546.5,-308.12 553.5,-308.12"/>
</g>
<!-- 3 -->
<g id="node4" class="node">
<title>3</title>
<path fill="#ecf6fd" stroke="black" d="M172,-166.25C172,-166.25 12,-166.25 12,-166.25 6,-166.25 0,-160.25 0,-154.25 0,-154.25 0,-84 0,-84 0,-78 6,-72 12,-72 12,-72 172,-72 172,-72 178,-72 184,-78 184,-84 184,-84 184,-154.25 184,-154.25 184,-160.25 178,-166.25 172,-166.25"/>
<text text-anchor="middle" x="92" y="-148.95" font-family="Helvetica,sans-Serif" font-size="14.00">5_G &lt;= 0.5</text>
<text text-anchor="middle" x="92" y="-131.7" font-family="Helvetica,sans-Serif" font-size="14.00">entropy = 0.998</text>
<text text-anchor="middle" x="92" y="-114.45" font-family="Helvetica,sans-Serif" font-size="14.00">samples = 17127</text>
<text text-anchor="middle" x="92" y="-97.2" font-family="Helvetica,sans-Serif" font-size="14.00">value = [12877, 14228]</text>
<text text-anchor="middle" x="92" y="-79.95" font-family="Helvetica,sans-Serif" font-size="14.00">class = Plant</text>
</g>
<!-- 2&#45;&gt;3 -->
<g id="edge3" class="edge">
<title>2&#45;&gt;3</title>
<path fill="none" stroke="black" d="M215.05,-201.89C200.89,-192.48 185.9,-182.53 171.45,-172.92"/>
<polygon fill="black" stroke="black" points="173.56,-170.12 163.3,-167.5 169.69,-175.95 173.56,-170.12"/>
</g>
<!-- 8026 -->
<g id="node7" class="node">
<title>8026</title>
<path fill="#f5cfb3" stroke="black" d="M356,-166.25C356,-166.25 214,-166.25 214,-166.25 208,-166.25 202,-160.25 202,-154.25 202,-154.25 202,-84 202,-84 202,-78 208,-72 214,-72 214,-72 356,-72 356,-72 362,-72 368,-78 368,-84 368,-84 368,-154.25 368,-154.25 368,-160.25 362,-166.25 356,-166.25"/>
<text text-anchor="middle" x="285" y="-148.95" font-family="Helvetica,sans-Serif" font-size="14.00">1_U &lt;= 0.5</text>
<text text-anchor="middle" x="285" y="-131.7" font-family="Helvetica,sans-Serif" font-size="14.00">entropy = 0.959</text>
<text text-anchor="middle" x="285" y="-114.45" font-family="Helvetica,sans-Serif" font-size="14.00">samples = 5599</text>
<text text-anchor="middle" x="285" y="-97.2" font-family="Helvetica,sans-Serif" font-size="14.00">value = [5451, 3357]</text>
<text text-anchor="middle" x="285" y="-79.95" font-family="Helvetica,sans-Serif" font-size="14.00">class = Animal</text>
</g>
<!-- 2&#45;&gt;8026 -->
<g id="edge6" class="edge">
<title>2&#45;&gt;8026</title>
<path fill="none" stroke="black" d="M285,-202.07C285,-194.17 285,-185.88 285,-177.73"/>
<polygon fill="black" stroke="black" points="288.5,-177.87 285,-167.87 281.5,-177.87 288.5,-177.87"/>
</g>
<!-- 4 -->
<g id="node5" class="node">
<title>4</title>
<path fill="#c0c0c0" stroke="black" d="M71,-36C71,-36 41,-36 41,-36 35,-36 29,-30 29,-24 29,-24 29,-12 29,-12 29,-6 35,0 41,0 41,0 71,0 71,0 77,0 83,-6 83,-12 83,-12 83,-24 83,-24 83,-30 77,-36 71,-36"/>
<text text-anchor="middle" x="56" y="-13.32" font-family="Helvetica,sans-Serif" font-size="14.00">(...)</text>
</g>
<!-- 3&#45;&gt;4 -->
<g id="edge4" class="edge">
<title>3&#45;&gt;4</title>
<path fill="none" stroke="black" d="M75.16,-71.75C72.06,-63.22 68.92,-54.57 66.1,-46.8"/>
<polygon fill="black" stroke="black" points="69.46,-45.8 62.75,-37.6 62.88,-48.19 69.46,-45.8"/>
</g>
<!-- 5617 -->
<g id="node6" class="node">
<title>5617</title>
<path fill="#c0c0c0" stroke="black" d="M143,-36C143,-36 113,-36 113,-36 107,-36 101,-30 101,-24 101,-24 101,-12 101,-12 101,-6 107,0 113,0 113,0 143,0 143,0 149,0 155,-6 155,-12 155,-12 155,-24 155,-24 155,-30 149,-36 143,-36"/>
<text text-anchor="middle" x="128" y="-13.32" font-family="Helvetica,sans-Serif" font-size="14.00">(...)</text>
</g>
<!-- 3&#45;&gt;5617 -->
<g id="edge5" class="edge">
<title>3&#45;&gt;5617</title>
<path fill="none" stroke="black" d="M108.84,-71.75C111.94,-63.22 115.08,-54.57 117.9,-46.8"/>
<polygon fill="black" stroke="black" points="121.12,-48.19 121.25,-37.6 114.54,-45.8 121.12,-48.19"/>
</g>
<!-- 8027 -->
<g id="node8" class="node">
<title>8027</title>
<path fill="#c0c0c0" stroke="black" d="M261,-36C261,-36 231,-36 231,-36 225,-36 219,-30 219,-24 219,-24 219,-12 219,-12 219,-6 225,0 231,0 231,0 261,0 261,0 267,0 273,-6 273,-12 273,-12 273,-24 273,-24 273,-30 267,-36 261,-36"/>
<text text-anchor="middle" x="246" y="-13.32" font-family="Helvetica,sans-Serif" font-size="14.00">(...)</text>
</g>
<!-- 8026&#45;&gt;8027 -->
<g id="edge7" class="edge">
<title>8026&#45;&gt;8027</title>
<path fill="none" stroke="black" d="M266.76,-71.75C263.4,-63.22 259.99,-54.57 256.94,-46.8"/>
<polygon fill="black" stroke="black" points="260.23,-45.61 253.31,-37.58 253.71,-48.17 260.23,-45.61"/>
</g>
<!-- 9548 -->
<g id="node9" class="node">
<title>9548</title>
<path fill="#c0c0c0" stroke="black" d="M333,-36C333,-36 303,-36 303,-36 297,-36 291,-30 291,-24 291,-24 291,-12 291,-12 291,-6 297,0 303,0 303,0 333,0 333,0 339,0 345,-6 345,-12 345,-12 345,-24 345,-24 345,-30 339,-36 333,-36"/>
<text text-anchor="middle" x="318" y="-13.32" font-family="Helvetica,sans-Serif" font-size="14.00">(...)</text>
</g>
<!-- 8026&#45;&gt;9548 -->
<g id="edge8" class="edge">
<title>8026&#45;&gt;9548</title>
<path fill="none" stroke="black" d="M300.44,-71.75C303.24,-63.32 306.09,-54.77 308.66,-47.07"/>
<polygon fill="black" stroke="black" points="311.97,-48.2 311.8,-37.61 305.33,-45.99 311.97,-48.2"/>
</g>
<!-- 10778 -->
<g id="node11" class="node">
<title>10778</title>
<path fill="#eca16c" stroke="black" d="M531.5,-166.25C531.5,-166.25 398.5,-166.25 398.5,-166.25 392.5,-166.25 386.5,-160.25 386.5,-154.25 386.5,-154.25 386.5,-84 386.5,-84 386.5,-78 392.5,-72 398.5,-72 398.5,-72 531.5,-72 531.5,-72 537.5,-72 543.5,-78 543.5,-84 543.5,-84 543.5,-154.25 543.5,-154.25 543.5,-160.25 537.5,-166.25 531.5,-166.25"/>
<text text-anchor="middle" x="465" y="-148.95" font-family="Helvetica,sans-Serif" font-size="14.00">4_C &lt;= 0.5</text>
<text text-anchor="middle" x="465" y="-131.7" font-family="Helvetica,sans-Serif" font-size="14.00">entropy = 0.731</text>
<text text-anchor="middle" x="465" y="-114.45" font-family="Helvetica,sans-Serif" font-size="14.00">samples = 2635</text>
<text text-anchor="middle" x="465" y="-97.2" font-family="Helvetica,sans-Serif" font-size="14.00">value = [3318, 854]</text>
<text text-anchor="middle" x="465" y="-79.95" font-family="Helvetica,sans-Serif" font-size="14.00">class = Animal</text>
</g>
<!-- 10777&#45;&gt;10778 -->
<g id="edge10" class="edge">
<title>10777&#45;&gt;10778</title>
<path fill="none" stroke="black" d="M519.31,-202.07C513.66,-193.54 507.7,-184.54 501.88,-175.77"/>
<polygon fill="black" stroke="black" points="504.92,-174.02 496.48,-167.62 499.09,-177.89 504.92,-174.02"/>
</g>
<!-- 11859 -->
<g id="node14" class="node">
<title>11859</title>
<path fill="#e99457" stroke="black" d="M706.5,-166.25C706.5,-166.25 573.5,-166.25 573.5,-166.25 567.5,-166.25 561.5,-160.25 561.5,-154.25 561.5,-154.25 561.5,-84 561.5,-84 561.5,-78 567.5,-72 573.5,-72 573.5,-72 706.5,-72 706.5,-72 712.5,-72 718.5,-78 718.5,-84 718.5,-84 718.5,-154.25 718.5,-154.25 718.5,-160.25 712.5,-166.25 706.5,-166.25"/>
<text text-anchor="middle" x="640" y="-148.95" font-family="Helvetica,sans-Serif" font-size="14.00">15_U &lt;= 0.5</text>
<text text-anchor="middle" x="640" y="-131.7" font-family="Helvetica,sans-Serif" font-size="14.00">entropy = 0.56</text>
<text text-anchor="middle" x="640" y="-114.45" font-family="Helvetica,sans-Serif" font-size="14.00">samples = 1035</text>
<text text-anchor="middle" x="640" y="-97.2" font-family="Helvetica,sans-Serif" font-size="14.00">value = [1408, 212]</text>
<text text-anchor="middle" x="640" y="-79.95" font-family="Helvetica,sans-Serif" font-size="14.00">class = Animal</text>
</g>
<!-- 10777&#45;&gt;11859 -->
<g id="edge13" class="edge">
<title>10777&#45;&gt;11859</title>
<path fill="none" stroke="black" d="M582.49,-202.07C588.48,-193.54 594.79,-184.54 600.95,-175.77"/>
<polygon fill="black" stroke="black" points="603.81,-177.79 606.69,-167.6 598.08,-173.77 603.81,-177.79"/>
</g>
<!-- 10779 -->
<g id="node12" class="node">
<title>10779</title>
<path fill="#c0c0c0" stroke="black" d="M423,-36C423,-36 393,-36 393,-36 387,-36 381,-30 381,-24 381,-24 381,-12 381,-12 381,-6 387,0 393,0 393,0 423,0 423,0 429,0 435,-6 435,-12 435,-12 435,-24 435,-24 435,-30 429,-36 423,-36"/>
<text text-anchor="middle" x="408" y="-13.32" font-family="Helvetica,sans-Serif" font-size="14.00">(...)</text>
</g>
<!-- 10778&#45;&gt;10779 -->
<g id="edge11" class="edge">
<title>10778&#45;&gt;10779</title>
<path fill="none" stroke="black" d="M438.34,-71.75C433.26,-62.93 428.1,-53.96 423.52,-45.99"/>
<polygon fill="black" stroke="black" points="426.65,-44.41 418.63,-37.48 420.58,-47.9 426.65,-44.41"/>
</g>
<!-- 11596 -->
<g id="node13" class="node">
<title>11596</title>
<path fill="#c0c0c0" stroke="black" d="M495,-36C495,-36 465,-36 465,-36 459,-36 453,-30 453,-24 453,-24 453,-12 453,-12 453,-6 459,0 465,0 465,0 495,0 495,0 501,0 507,-6 507,-12 507,-12 507,-24 507,-24 507,-30 501,-36 495,-36"/>
<text text-anchor="middle" x="480" y="-13.32" font-family="Helvetica,sans-Serif" font-size="14.00">(...)</text>
</g>
<!-- 10778&#45;&gt;11596 -->
<g id="edge12" class="edge">
<title>10778&#45;&gt;11596</title>
<path fill="none" stroke="black" d="M472.02,-71.75C473.28,-63.42 474.56,-54.97 475.71,-47.34"/>
<polygon fill="black" stroke="black" points="479.14,-48.08 477.17,-37.67 472.22,-47.03 479.14,-48.08"/>
</g>
<!-- 11860 -->
<g id="node15" class="node">
<title>11860</title>
<path fill="#c0c0c0" stroke="black" d="M601,-36C601,-36 571,-36 571,-36 565,-36 559,-30 559,-24 559,-24 559,-12 559,-12 559,-6 565,0 571,0 571,0 601,0 601,0 607,0 613,-6 613,-12 613,-12 613,-24 613,-24 613,-30 607,-36 601,-36"/>
<text text-anchor="middle" x="586" y="-13.32" font-family="Helvetica,sans-Serif" font-size="14.00">(...)</text>
</g>
<!-- 11859&#45;&gt;11860 -->
<g id="edge14" class="edge">
<title>11859&#45;&gt;11860</title>
<path fill="none" stroke="black" d="M614.74,-71.75C609.98,-63.03 605.16,-54.16 600.85,-46.26"/>
<polygon fill="black" stroke="black" points="603.94,-44.61 596.08,-37.5 597.79,-47.96 603.94,-44.61"/>
</g>
<!-- 12141 -->
<g id="node16" class="node">
<title>12141</title>
<path fill="#c0c0c0" stroke="black" d="M673,-36C673,-36 643,-36 643,-36 637,-36 631,-30 631,-24 631,-24 631,-12 631,-12 631,-6 637,0 643,0 643,0 673,0 673,0 679,0 685,-6 685,-12 685,-12 685,-24 685,-24 685,-30 679,-36 673,-36"/>
<text text-anchor="middle" x="658" y="-13.32" font-family="Helvetica,sans-Serif" font-size="14.00">(...)</text>
</g>
<!-- 11859&#45;&gt;12141 -->
<g id="edge15" class="edge">
<title>11859&#45;&gt;12141</title>
<path fill="none" stroke="black" d="M648.42,-71.75C649.93,-63.42 651.47,-54.97 652.85,-47.34"/>
<polygon fill="black" stroke="black" points="656.27,-48.13 654.61,-37.66 649.38,-46.88 656.27,-48.13"/>
</g>
<!-- 12227 -->
<g id="node18" class="node">
<title>12227</title>
<path fill="#a8d4f4" stroke="black" d="M982.5,-296.5C982.5,-296.5 831.5,-296.5 831.5,-296.5 825.5,-296.5 819.5,-290.5 819.5,-284.5 819.5,-284.5 819.5,-214.25 819.5,-214.25 819.5,-208.25 825.5,-202.25 831.5,-202.25 831.5,-202.25 982.5,-202.25 982.5,-202.25 988.5,-202.25 994.5,-208.25 994.5,-214.25 994.5,-214.25 994.5,-284.5 994.5,-284.5 994.5,-290.5 988.5,-296.5 982.5,-296.5"/>
<text text-anchor="middle" x="907" y="-279.2" font-family="Helvetica,sans-Serif" font-size="14.00">19_U &lt;= 0.5</text>
<text text-anchor="middle" x="907" y="-261.95" font-family="Helvetica,sans-Serif" font-size="14.00">entropy = 0.943</text>
<text text-anchor="middle" x="907" y="-244.7" font-family="Helvetica,sans-Serif" font-size="14.00">samples = 10687</text>
<text text-anchor="middle" x="907" y="-227.45" font-family="Helvetica,sans-Serif" font-size="14.00">value = [6141, 10906]</text>
<text text-anchor="middle" x="907" y="-210.2" font-family="Helvetica,sans-Serif" font-size="14.00">class = Plant</text>
</g>
<!-- 12226&#45;&gt;12227 -->
<g id="edge17" class="edge">
<title>12226&#45;&gt;12227</title>
<path fill="none" stroke="black" d="M907,-332.32C907,-324.42 907,-316.13 907,-307.98"/>
<polygon fill="black" stroke="black" points="910.5,-308.12 907,-298.12 903.5,-308.12 910.5,-308.12"/>
</g>
<!-- 16246 -->
<g id="node25" class="node">
<title>16246</title>
<path fill="#f3c3a1" stroke="black" d="M1245.5,-296.5C1245.5,-296.5 1112.5,-296.5 1112.5,-296.5 1106.5,-296.5 1100.5,-290.5 1100.5,-284.5 1100.5,-284.5 1100.5,-214.25 1100.5,-214.25 1100.5,-208.25 1106.5,-202.25 1112.5,-202.25 1112.5,-202.25 1245.5,-202.25 1245.5,-202.25 1251.5,-202.25 1257.5,-208.25 1257.5,-214.25 1257.5,-214.25 1257.5,-284.5 1257.5,-284.5 1257.5,-290.5 1251.5,-296.5 1245.5,-296.5"/>
<text text-anchor="middle" x="1179" y="-279.2" font-family="Helvetica,sans-Serif" font-size="14.00">14_C &lt;= 0.5</text>
<text text-anchor="middle" x="1179" y="-261.95" font-family="Helvetica,sans-Serif" font-size="14.00">entropy = 0.929</text>
<text text-anchor="middle" x="1179" y="-244.7" font-family="Helvetica,sans-Serif" font-size="14.00">samples = 1013</text>
<text text-anchor="middle" x="1179" y="-227.45" font-family="Helvetica,sans-Serif" font-size="14.00">value = [1045, 548]</text>
<text text-anchor="middle" x="1179" y="-210.2" font-family="Helvetica,sans-Serif" font-size="14.00">class = Animal</text>
</g>
<!-- 12226&#45;&gt;16246 -->
<g id="edge24" class="edge">
<title>12226&#45;&gt;16246</title>
<path fill="none" stroke="black" d="M994.93,-337.16C1025.33,-322.83 1059.41,-306.76 1089.9,-292.38"/>
<polygon fill="black" stroke="black" points="1091.18,-295.65 1098.73,-288.22 1088.19,-289.32 1091.18,-295.65"/>
</g>
<!-- 12228 -->
<g id="node19" class="node">
<title>12228</title>
<path fill="#93caf1" stroke="black" d="M891,-166.25C891,-166.25 749,-166.25 749,-166.25 743,-166.25 737,-160.25 737,-154.25 737,-154.25 737,-84 737,-84 737,-78 743,-72 749,-72 749,-72 891,-72 891,-72 897,-72 903,-78 903,-84 903,-84 903,-154.25 903,-154.25 903,-160.25 897,-166.25 891,-166.25"/>
<text text-anchor="middle" x="820" y="-148.95" font-family="Helvetica,sans-Serif" font-size="14.00">22_G &lt;= 0.5</text>
<text text-anchor="middle" x="820" y="-131.7" font-family="Helvetica,sans-Serif" font-size="14.00">entropy = 0.897</text>
<text text-anchor="middle" x="820" y="-114.45" font-family="Helvetica,sans-Serif" font-size="14.00">samples = 8737</text>
<text text-anchor="middle" x="820" y="-97.2" font-family="Helvetica,sans-Serif" font-size="14.00">value = [4383, 9598]</text>
<text text-anchor="middle" x="820" y="-79.95" font-family="Helvetica,sans-Serif" font-size="14.00">class = Plant</text>
</g>
<!-- 12227&#45;&gt;12228 -->
<g id="edge18" class="edge">
<title>12227&#45;&gt;12228</title>
<path fill="none" stroke="black" d="M875.59,-202.07C869.8,-193.54 863.7,-184.54 857.75,-175.77"/>
<polygon fill="black" stroke="black" points="860.72,-173.92 852.21,-167.61 854.93,-177.85 860.72,-173.92"/>
</g>
<!-- 15171 -->
<g id="node22" class="node">
<title>15171</title>
<path fill="#f8dfcc" stroke="black" d="M1075,-166.25C1075,-166.25 933,-166.25 933,-166.25 927,-166.25 921,-160.25 921,-154.25 921,-154.25 921,-84 921,-84 921,-78 927,-72 933,-72 933,-72 1075,-72 1075,-72 1081,-72 1087,-78 1087,-84 1087,-84 1087,-154.25 1087,-154.25 1087,-160.25 1081,-166.25 1075,-166.25"/>
<text text-anchor="middle" x="1004" y="-148.95" font-family="Helvetica,sans-Serif" font-size="14.00">21_U &lt;= 0.5</text>
<text text-anchor="middle" x="1004" y="-131.7" font-family="Helvetica,sans-Serif" font-size="14.00">entropy = 0.984</text>
<text text-anchor="middle" x="1004" y="-114.45" font-family="Helvetica,sans-Serif" font-size="14.00">samples = 1950</text>
<text text-anchor="middle" x="1004" y="-97.2" font-family="Helvetica,sans-Serif" font-size="14.00">value = [1758, 1308]</text>
<text text-anchor="middle" x="1004" y="-79.95" font-family="Helvetica,sans-Serif" font-size="14.00">class = Animal</text>
</g>
<!-- 12227&#45;&gt;15171 -->
<g id="edge21" class="edge">
<title>12227&#45;&gt;15171</title>
<path fill="none" stroke="black" d="M942.02,-202.07C948.54,-193.45 955.42,-184.35 962.13,-175.49"/>
<polygon fill="black" stroke="black" points="964.88,-177.65 968.12,-167.57 959.3,-173.43 964.88,-177.65"/>
</g>
<!-- 12229 -->
<g id="node20" class="node">
<title>12229</title>
<path fill="#c0c0c0" stroke="black" d="M783,-36C783,-36 753,-36 753,-36 747,-36 741,-30 741,-24 741,-24 741,-12 741,-12 741,-6 747,0 753,0 753,0 783,0 783,0 789,0 795,-6 795,-12 795,-12 795,-24 795,-24 795,-30 789,-36 783,-36"/>
<text text-anchor="middle" x="768" y="-13.32" font-family="Helvetica,sans-Serif" font-size="14.00">(...)</text>
</g>
<!-- 12228&#45;&gt;12229 -->
<g id="edge19" class="edge">
<title>12228&#45;&gt;12229</title>
<path fill="none" stroke="black" d="M795.67,-71.75C791.1,-63.03 786.45,-54.16 782.3,-46.26"/>
<polygon fill="black" stroke="black" points="785.46,-44.74 777.71,-37.51 779.26,-47.99 785.46,-44.74"/>
</g>
<!-- 14784 -->
<g id="node21" class="node">
<title>14784</title>
<path fill="#c0c0c0" stroke="black" d="M855,-36C855,-36 825,-36 825,-36 819,-36 813,-30 813,-24 813,-24 813,-12 813,-12 813,-6 819,0 825,0 825,0 855,0 855,0 861,0 867,-6 867,-12 867,-12 867,-24 867,-24 867,-30 861,-36 855,-36"/>
<text text-anchor="middle" x="840" y="-13.32" font-family="Helvetica,sans-Serif" font-size="14.00">(...)</text>
</g>
<!-- 12228&#45;&gt;14784 -->
<g id="edge20" class="edge">
<title>12228&#45;&gt;14784</title>
<path fill="none" stroke="black" d="M829.36,-71.75C831.04,-63.42 832.74,-54.97 834.28,-47.34"/>
<polygon fill="black" stroke="black" points="837.69,-48.15 836.24,-37.66 830.83,-46.77 837.69,-48.15"/>
</g>
<!-- 15172 -->
<g id="node23" class="node">
<title>15172</title>
<path fill="#c0c0c0" stroke="black" d="M962,-36C962,-36 932,-36 932,-36 926,-36 920,-30 920,-24 920,-24 920,-12 920,-12 920,-6 926,0 932,0 932,0 962,0 962,0 968,0 974,-6 974,-12 974,-12 974,-24 974,-24 974,-30 968,-36 962,-36"/>
<text text-anchor="middle" x="947" y="-13.32" font-family="Helvetica,sans-Serif" font-size="14.00">(...)</text>
</g>
<!-- 15171&#45;&gt;15172 -->
<g id="edge22" class="edge">
<title>15171&#45;&gt;15172</title>
<path fill="none" stroke="black" d="M977.34,-71.75C972.26,-62.93 967.1,-53.96 962.52,-45.99"/>
<polygon fill="black" stroke="black" points="965.65,-44.41 957.63,-37.48 959.58,-47.9 965.65,-44.41"/>
</g>
<!-- 16037 -->
<g id="node24" class="node">
<title>16037</title>
<path fill="#c0c0c0" stroke="black" d="M1034,-36C1034,-36 1004,-36 1004,-36 998,-36 992,-30 992,-24 992,-24 992,-12 992,-12 992,-6 998,0 1004,0 1004,0 1034,0 1034,0 1040,0 1046,-6 1046,-12 1046,-12 1046,-24 1046,-24 1046,-30 1040,-36 1034,-36"/>
<text text-anchor="middle" x="1019" y="-13.32" font-family="Helvetica,sans-Serif" font-size="14.00">(...)</text>
</g>
<!-- 15171&#45;&gt;16037 -->
<g id="edge23" class="edge">
<title>15171&#45;&gt;16037</title>
<path fill="none" stroke="black" d="M1011.02,-71.75C1012.28,-63.42 1013.56,-54.97 1014.71,-47.34"/>
<polygon fill="black" stroke="black" points="1018.14,-48.08 1016.17,-37.67 1011.22,-47.03 1018.14,-48.08"/>
</g>
<!-- 16247 -->
<g id="node26" class="node">
<title>16247</title>
<path fill="#efb488" stroke="black" d="M1241,-166.25C1241,-166.25 1117,-166.25 1117,-166.25 1111,-166.25 1105,-160.25 1105,-154.25 1105,-154.25 1105,-84 1105,-84 1105,-78 1111,-72 1117,-72 1117,-72 1241,-72 1241,-72 1247,-72 1253,-78 1253,-84 1253,-84 1253,-154.25 1253,-154.25 1253,-160.25 1247,-166.25 1241,-166.25"/>
<text text-anchor="middle" x="1179" y="-148.95" font-family="Helvetica,sans-Serif" font-size="14.00">7_A &lt;= 0.5</text>
<text text-anchor="middle" x="1179" y="-131.7" font-family="Helvetica,sans-Serif" font-size="14.00">entropy = 0.864</text>
<text text-anchor="middle" x="1179" y="-114.45" font-family="Helvetica,sans-Serif" font-size="14.00">samples = 764</text>
<text text-anchor="middle" x="1179" y="-97.2" font-family="Helvetica,sans-Serif" font-size="14.00">value = [873, 350]</text>
<text text-anchor="middle" x="1179" y="-79.95" font-family="Helvetica,sans-Serif" font-size="14.00">class = Animal</text>
</g>
<!-- 16246&#45;&gt;16247 -->
<g id="edge25" class="edge">
<title>16246&#45;&gt;16247</title>
<path fill="none" stroke="black" d="M1179,-202.07C1179,-194.17 1179,-185.88 1179,-177.73"/>
<polygon fill="black" stroke="black" points="1182.5,-177.87 1179,-167.87 1175.5,-177.87 1182.5,-177.87"/>
</g>
<!-- 16660 -->
<g id="node29" class="node">
<title>16660</title>
<path fill="#e5f2fc" stroke="black" d="M1407,-166.25C1407,-166.25 1283,-166.25 1283,-166.25 1277,-166.25 1271,-160.25 1271,-154.25 1271,-154.25 1271,-84 1271,-84 1271,-78 1277,-72 1283,-72 1283,-72 1407,-72 1407,-72 1413,-72 1419,-78 1419,-84 1419,-84 1419,-154.25 1419,-154.25 1419,-160.25 1413,-166.25 1407,-166.25"/>
<text text-anchor="middle" x="1345" y="-148.95" font-family="Helvetica,sans-Serif" font-size="14.00">6_A &lt;= 0.5</text>
<text text-anchor="middle" x="1345" y="-131.7" font-family="Helvetica,sans-Serif" font-size="14.00">entropy = 0.996</text>
<text text-anchor="middle" x="1345" y="-114.45" font-family="Helvetica,sans-Serif" font-size="14.00">samples = 249</text>
<text text-anchor="middle" x="1345" y="-97.2" font-family="Helvetica,sans-Serif" font-size="14.00">value = [172, 198]</text>
<text text-anchor="middle" x="1345" y="-79.95" font-family="Helvetica,sans-Serif" font-size="14.00">class = Plant</text>
</g>
<!-- 16246&#45;&gt;16660 -->
<g id="edge28" class="edge">
<title>16246&#45;&gt;16660</title>
<path fill="none" stroke="black" d="M1238.93,-202.07C1250.96,-192.78 1263.7,-182.94 1276.01,-173.43"/>
<polygon fill="black" stroke="black" points="1277.91,-176.38 1283.68,-167.5 1273.63,-170.84 1277.91,-176.38"/>
</g>
<!-- 16248 -->
<g id="node27" class="node">
<title>16248</title>
<path fill="#c0c0c0" stroke="black" d="M1151,-36C1151,-36 1121,-36 1121,-36 1115,-36 1109,-30 1109,-24 1109,-24 1109,-12 1109,-12 1109,-6 1115,0 1121,0 1121,0 1151,0 1151,0 1157,0 1163,-6 1163,-12 1163,-12 1163,-24 1163,-24 1163,-30 1157,-36 1151,-36"/>
<text text-anchor="middle" x="1136" y="-13.32" font-family="Helvetica,sans-Serif" font-size="14.00">(...)</text>
</g>
<!-- 16247&#45;&gt;16248 -->
<g id="edge26" class="edge">
<title>16247&#45;&gt;16248</title>
<path fill="none" stroke="black" d="M1158.88,-71.75C1155.14,-63.12 1151.34,-54.36 1147.94,-46.53"/>
<polygon fill="black" stroke="black" points="1151.24,-45.34 1144.05,-37.56 1144.82,-48.13 1151.24,-45.34"/>
</g>
<!-- 16563 -->
<g id="node28" class="node">
<title>16563</title>
<path fill="#c0c0c0" stroke="black" d="M1223,-36C1223,-36 1193,-36 1193,-36 1187,-36 1181,-30 1181,-24 1181,-24 1181,-12 1181,-12 1181,-6 1187,0 1193,0 1193,0 1223,0 1223,0 1229,0 1235,-6 1235,-12 1235,-12 1235,-24 1235,-24 1235,-30 1229,-36 1223,-36"/>
<text text-anchor="middle" x="1208" y="-13.32" font-family="Helvetica,sans-Serif" font-size="14.00">(...)</text>
</g>
<!-- 16247&#45;&gt;16563 -->
<g id="edge27" class="edge">
<title>16247&#45;&gt;16563</title>
<path fill="none" stroke="black" d="M1192.57,-71.75C1195.03,-63.32 1197.54,-54.77 1199.79,-47.07"/>
<polygon fill="black" stroke="black" points="1203.1,-48.21 1202.55,-37.63 1196.38,-46.24 1203.1,-48.21"/>
</g>
<!-- 16661 -->
<g id="node30" class="node">
<title>16661</title>
<path fill="#c0c0c0" stroke="black" d="M1324,-36C1324,-36 1294,-36 1294,-36 1288,-36 1282,-30 1282,-24 1282,-24 1282,-12 1282,-12 1282,-6 1288,0 1294,0 1294,0 1324,0 1324,0 1330,0 1336,-6 1336,-12 1336,-12 1336,-24 1336,-24 1336,-30 1330,-36 1324,-36"/>
<text text-anchor="middle" x="1309" y="-13.32" font-family="Helvetica,sans-Serif" font-size="14.00">(...)</text>
</g>
<!-- 16660&#45;&gt;16661 -->
<g id="edge29" class="edge">
<title>16660&#45;&gt;16661</title>
<path fill="none" stroke="black" d="M1328.16,-71.75C1325.06,-63.22 1321.92,-54.57 1319.1,-46.8"/>
<polygon fill="black" stroke="black" points="1322.46,-45.8 1315.75,-37.6 1315.88,-48.19 1322.46,-45.8"/>
</g>
<!-- 16744 -->
<g id="node31" class="node">
<title>16744</title>
<path fill="#c0c0c0" stroke="black" d="M1396,-36C1396,-36 1366,-36 1366,-36 1360,-36 1354,-30 1354,-24 1354,-24 1354,-12 1354,-12 1354,-6 1360,0 1366,0 1366,0 1396,0 1396,0 1402,0 1408,-6 1408,-12 1408,-12 1408,-24 1408,-24 1408,-30 1402,-36 1396,-36"/>
<text text-anchor="middle" x="1381" y="-13.32" font-family="Helvetica,sans-Serif" font-size="14.00">(...)</text>
</g>
<!-- 16660&#45;&gt;16744 -->
<g id="edge30" class="edge">
<title>16660&#45;&gt;16744</title>
<path fill="none" stroke="black" d="M1361.84,-71.75C1364.94,-63.22 1368.08,-54.57 1370.9,-46.8"/>
<polygon fill="black" stroke="black" points="1374.12,-48.19 1374.25,-37.6 1367.54,-45.8 1374.12,-48.19"/>
</g>
</g>
</svg>
