<?xml version="1.0" encoding="UTF-8" standalone="no"?>
<!DOCTYPE svg PUBLIC "-//W3C//DTD SVG 1.1//EN"
 "http://www.w3.org/Graphics/SVG/1.1/DTD/svg11.dtd">
<!-- Generated by graphviz version 12.0.0 (20240803.0821)
 -->
<!-- Title: Tree Pages: 1 -->
<svg width="1410pt" height="565pt"
 viewBox="0.00 0.00 1410.00 565.00" xmlns="http://www.w3.org/2000/svg" xmlns:xlink="http://www.w3.org/1999/xlink">
<g id="graph0" class="graph" transform="scale(1 1) rotate(0) translate(4 561)">
<title>Tree</title>
<polygon fill="white" stroke="none" points="-4,4 -4,-561 1406,-561 1406,4 -4,4"/>
<!-- 0 -->
<g id="node1" class="node">
<title>0</title>
<path fill="#fffefe" stroke="black" d="M790,-557C790,-557 630,-557 630,-557 624,-557 618,-551 618,-545 618,-545 618,-474.75 618,-474.75 618,-468.75 624,-462.75 630,-462.75 630,-462.75 790,-462.75 790,-462.75 796,-462.75 802,-468.75 802,-474.75 802,-474.75 802,-545 802,-545 802,-551 796,-557 790,-557"/>
<text text-anchor="middle" x="710" y="-539.7" font-family="Helvetica,sans-Serif" font-size="14.00">22_G &lt;= 0.5</text>
<text text-anchor="middle" x="710" y="-522.45" font-family="Helvetica,sans-Serif" font-size="14.00">entropy = 1.0</text>
<text text-anchor="middle" x="710" y="-505.2" font-family="Helvetica,sans-Serif" font-size="14.00">samples = 38229</text>
<text text-anchor="middle" x="710" y="-487.95" font-family="Helvetica,sans-Serif" font-size="14.00">value = [30272, 30073]</text>
<text text-anchor="middle" x="710" y="-470.7" font-family="Helvetica,sans-Serif" font-size="14.00">class = Animal</text>
</g>
<!-- 1 -->
<g id="node2" class="node">
<title>1</title>
<path fill="#e2f1fb" stroke="black" d="M624,-426.75C624,-426.75 464,-426.75 464,-426.75 458,-426.75 452,-420.75 452,-414.75 452,-414.75 452,-344.5 452,-344.5 452,-338.5 458,-332.5 464,-332.5 464,-332.5 624,-332.5 624,-332.5 630,-332.5 636,-338.5 636,-344.5 636,-344.5 636,-414.75 636,-414.75 636,-420.75 630,-426.75 624,-426.75"/>
<text text-anchor="middle" x="544" y="-409.45" font-family="Helvetica,sans-Serif" font-size="14.00">6_A &lt;= 0.5</text>
<text text-anchor="middle" x="544" y="-392.2" font-family="Helvetica,sans-Serif" font-size="14.00">entropy = 0.995</text>
<text text-anchor="middle" x="544" y="-374.95" font-family="Helvetica,sans-Serif" font-size="14.00">samples = 33291</text>
<text text-anchor="middle" x="544" y="-357.7" font-family="Helvetica,sans-Serif" font-size="14.00">value = [24188, 28378]</text>
<text text-anchor="middle" x="544" y="-340.45" font-family="Helvetica,sans-Serif" font-size="14.00">class = Plant</text>
</g>
<!-- 0&#45;&gt;1 -->
<g id="edge1" class="edge">
<title>0&#45;&gt;1</title>
<path fill="none" stroke="black" d="M650.07,-462.57C638.04,-453.28 625.3,-443.44 612.99,-433.93"/>
<polygon fill="black" stroke="black" points="615.37,-431.34 605.32,-428 611.09,-436.88 615.37,-431.34"/>
<text text-anchor="middle" x="607.3" y="-447.2" font-family="Helvetica,sans-Serif" font-size="14.00">True</text>
</g>
<!-- 14650 -->
<g id="node17" class="node">
<title>14650</title>
<path fill="#eca470" stroke="black" d="M963,-426.75C963,-426.75 821,-426.75 821,-426.75 815,-426.75 809,-420.75 809,-414.75 809,-414.75 809,-344.5 809,-344.5 809,-338.5 815,-332.5 821,-332.5 821,-332.5 963,-332.5 963,-332.5 969,-332.5 975,-338.5 975,-344.5 975,-344.5 975,-414.75 975,-414.75 975,-420.75 969,-426.75 963,-426.75"/>
<text text-anchor="middle" x="892" y="-409.45" font-family="Helvetica,sans-Serif" font-size="14.00">8_G &lt;= 0.5</text>
<text text-anchor="middle" x="892" y="-392.2" font-family="Helvetica,sans-Serif" font-size="14.00">entropy = 0.756</text>
<text text-anchor="middle" x="892" y="-374.95" font-family="Helvetica,sans-Serif" font-size="14.00">samples = 4938</text>
<text text-anchor="middle" x="892" y="-357.7" font-family="Helvetica,sans-Serif" font-size="14.00">value = [6084, 1695]</text>
<text text-anchor="middle" x="892" y="-340.45" font-family="Helvetica,sans-Serif" font-size="14.00">class = Animal</text>
</g>
<!-- 0&#45;&gt;14650 -->
<g id="edge16" class="edge">
<title>0&#45;&gt;14650</title>
<path fill="none" stroke="black" d="M775.96,-462.39C789.19,-453.07 803.18,-443.22 816.69,-433.69"/>
<polygon fill="black" stroke="black" points="818.56,-436.66 824.72,-428.04 814.53,-430.94 818.56,-436.66"/>
<text text-anchor="middle" x="821.69" y="-447.12" font-family="Helvetica,sans-Serif" font-size="14.00">False</text>
</g>
<!-- 2 -->
<g id="node3" class="node">
<title>2</title>
<path fill="#f7fbfe" stroke="black" d="M361,-296.5C361,-296.5 201,-296.5 201,-296.5 195,-296.5 189,-290.5 189,-284.5 189,-284.5 189,-214.25 189,-214.25 189,-208.25 195,-202.25 201,-202.25 201,-202.25 361,-202.25 361,-202.25 367,-202.25 373,-208.25 373,-214.25 373,-214.25 373,-284.5 373,-284.5 373,-290.5 367,-296.5 361,-296.5"/>
<text text-anchor="middle" x="281" y="-279.2" font-family="Helvetica,sans-Serif" font-size="14.00">23_G &lt;= 0.5</text>
<text text-anchor="middle" x="281" y="-261.95" font-family="Helvetica,sans-Serif" font-size="14.00">entropy = 1.0</text>
<text text-anchor="middle" x="281" y="-244.7" font-family="Helvetica,sans-Serif" font-size="14.00">samples = 24803</text>
<text text-anchor="middle" x="281" y="-227.45" font-family="Helvetica,sans-Serif" font-size="14.00">value = [19162, 19986]</text>
<text text-anchor="middle" x="281" y="-210.2" font-family="Helvetica,sans-Serif" font-size="14.00">class = Plant</text>
</g>
<!-- 1&#45;&gt;2 -->
<g id="edge2" class="edge">
<title>1&#45;&gt;2</title>
<path fill="none" stroke="black" d="M451.65,-333.59C429.57,-322.82 405.87,-311.27 383.37,-300.3"/>
<polygon fill="black" stroke="black" points="385.01,-297.2 374.49,-295.97 381.95,-303.49 385.01,-297.2"/>
</g>
<!-- 11113 -->
<g id="node10" class="node">
<title>11113</title>
<path fill="#b0d8f5" stroke="black" d="M615,-296.5C615,-296.5 473,-296.5 473,-296.5 467,-296.5 461,-290.5 461,-284.5 461,-284.5 461,-214.25 461,-214.25 461,-208.25 467,-202.25 473,-202.25 473,-202.25 615,-202.25 615,-202.25 621,-202.25 627,-208.25 627,-214.25 627,-214.25 627,-284.5 627,-284.5 627,-290.5 621,-296.5 615,-296.5"/>
<text text-anchor="middle" x="544" y="-279.2" font-family="Helvetica,sans-Serif" font-size="14.00">22_C &lt;= 0.5</text>
<text text-anchor="middle" x="544" y="-261.95" font-family="Helvetica,sans-Serif" font-size="14.00">entropy = 0.954</text>
<text text-anchor="middle" x="544" y="-244.7" font-family="Helvetica,sans-Serif" font-size="14.00">samples = 8488</text>
<text text-anchor="middle" x="544" y="-227.45" font-family="Helvetica,sans-Serif" font-size="14.00">value = [5026, 8392]</text>
<text text-anchor="middle" x="544" y="-210.2" font-family="Helvetica,sans-Serif" font-size="14.00">class = Plant</text>
</g>
<!-- 1&#45;&gt;11113 -->
<g id="edge9" class="edge">
<title>1&#45;&gt;11113</title>
<path fill="none" stroke="black" d="M544,-332.32C544,-324.42 544,-316.13 544,-307.98"/>
<polygon fill="black" stroke="black" points="547.5,-308.12 544,-298.12 540.5,-308.12 547.5,-308.12"/>
</g>
<!-- 3 -->
<g id="node4" class="node">
<title>3</title>
<path fill="#ebf5fc" stroke="black" d="M172,-166.25C172,-166.25 12,-166.25 12,-166.25 6,-166.25 0,-160.25 0,-154.25 0,-154.25 0,-84 0,-84 0,-78 6,-72 12,-72 12,-72 172,-72 172,-72 178,-72 184,-78 184,-84 184,-84 184,-154.25 184,-154.25 184,-160.25 178,-166.25 172,-166.25"/>
<text text-anchor="middle" x="92" y="-148.95" font-family="Helvetica,sans-Serif" font-size="14.00">1_U &lt;= 0.5</text>
<text text-anchor="middle" x="92" y="-131.7" font-family="Helvetica,sans-Serif" font-size="14.00">entropy = 0.998</text>
<text text-anchor="middle" x="92" y="-114.45" font-family="Helvetica,sans-Serif" font-size="14.00">samples = 23682</text>
<text text-anchor="middle" x="92" y="-97.2" font-family="Helvetica,sans-Serif" font-size="14.00">value = [17703, 19644]</text>
<text text-anchor="middle" x="92" y="-79.95" font-family="Helvetica,sans-Serif" font-size="14.00">class = Plant</text>
</g>
<!-- 2&#45;&gt;3 -->
<g id="edge3" class="edge">
<title>2&#45;&gt;3</title>
<path fill="none" stroke="black" d="M212.5,-201.89C198.63,-192.48 183.96,-182.53 169.8,-172.92"/>
<polygon fill="black" stroke="black" points="172.08,-170.23 161.84,-167.51 168.15,-176.03 172.08,-170.23"/>
</g>
<!-- 10750 -->
<g id="node7" class="node">
<title>10750</title>
<path fill="#eb9f67" stroke="black" d="M347.5,-166.25C347.5,-166.25 214.5,-166.25 214.5,-166.25 208.5,-166.25 202.5,-160.25 202.5,-154.25 202.5,-154.25 202.5,-84 202.5,-84 202.5,-78 208.5,-72 214.5,-72 214.5,-72 347.5,-72 347.5,-72 353.5,-72 359.5,-78 359.5,-84 359.5,-84 359.5,-154.25 359.5,-154.25 359.5,-160.25 353.5,-166.25 347.5,-166.25"/>
<text text-anchor="middle" x="281" y="-148.95" font-family="Helvetica,sans-Serif" font-size="14.00">12_U &lt;= 0.5</text>
<text text-anchor="middle" x="281" y="-131.7" font-family="Helvetica,sans-Serif" font-size="14.00">entropy = 0.701</text>
<text text-anchor="middle" x="281" y="-114.45" font-family="Helvetica,sans-Serif" font-size="14.00">samples = 1121</text>
<text text-anchor="middle" x="281" y="-97.2" font-family="Helvetica,sans-Serif" font-size="14.00">value = [1459, 342]</text>
<text text-anchor="middle" x="281" y="-79.95" font-family="Helvetica,sans-Serif" font-size="14.00">class = Animal</text>
</g>
<!-- 2&#45;&gt;10750 -->
<g id="edge6" class="edge">
<title>2&#45;&gt;10750</title>
<path fill="none" stroke="black" d="M281,-202.07C281,-194.17 281,-185.88 281,-177.73"/>
<polygon fill="black" stroke="black" points="284.5,-177.87 281,-167.87 277.5,-177.87 284.5,-177.87"/>
</g>
<!-- 4 -->
<g id="node5" class="node">
<title>4</title>
<path fill="#c0c0c0" stroke="black" d="M71,-36C71,-36 41,-36 41,-36 35,-36 29,-30 29,-24 29,-24 29,-12 29,-12 29,-6 35,0 41,0 41,0 71,0 71,0 77,0 83,-6 83,-12 83,-12 83,-24 83,-24 83,-30 77,-36 71,-36"/>
<text text-anchor="middle" x="56" y="-13.32" font-family="Helvetica,sans-Serif" font-size="14.00">(...)</text>
</g>
<!-- 3&#45;&gt;4 -->
<g id="edge4" class="edge">
<title>3&#45;&gt;4</title>
<path fill="none" stroke="black" d="M75.16,-71.75C72.06,-63.22 68.92,-54.57 66.1,-46.8"/>
<polygon fill="black" stroke="black" points="69.46,-45.8 62.75,-37.6 62.88,-48.19 69.46,-45.8"/>
</g>
<!-- 6073 -->
<g id="node6" class="node">
<title>6073</title>
<path fill="#c0c0c0" stroke="black" d="M143,-36C143,-36 113,-36 113,-36 107,-36 101,-30 101,-24 101,-24 101,-12 101,-12 101,-6 107,0 113,0 113,0 143,0 143,0 149,0 155,-6 155,-12 155,-12 155,-24 155,-24 155,-30 149,-36 143,-36"/>
<text text-anchor="middle" x="128" y="-13.32" font-family="Helvetica,sans-Serif" font-size="14.00">(...)</text>
</g>
<!-- 3&#45;&gt;6073 -->
<g id="edge5" class="edge">
<title>3&#45;&gt;6073</title>
<path fill="none" stroke="black" d="M108.84,-71.75C111.94,-63.22 115.08,-54.57 117.9,-46.8"/>
<polygon fill="black" stroke="black" points="121.12,-48.19 121.25,-37.6 114.54,-45.8 121.12,-48.19"/>
</g>
<!-- 10751 -->
<g id="node8" class="node">
<title>10751</title>
<path fill="#c0c0c0" stroke="black" d="M257,-36C257,-36 227,-36 227,-36 221,-36 215,-30 215,-24 215,-24 215,-12 215,-12 215,-6 221,0 227,0 227,0 257,0 257,0 263,0 269,-6 269,-12 269,-12 269,-24 269,-24 269,-30 263,-36 257,-36"/>
<text text-anchor="middle" x="242" y="-13.32" font-family="Helvetica,sans-Serif" font-size="14.00">(...)</text>
</g>
<!-- 10750&#45;&gt;10751 -->
<g id="edge7" class="edge">
<title>10750&#45;&gt;10751</title>
<path fill="none" stroke="black" d="M262.76,-71.75C259.4,-63.22 255.99,-54.57 252.94,-46.8"/>
<polygon fill="black" stroke="black" points="256.23,-45.61 249.31,-37.58 249.71,-48.17 256.23,-45.61"/>
</g>
<!-- 11036 -->
<g id="node9" class="node">
<title>11036</title>
<path fill="#c0c0c0" stroke="black" d="M329,-36C329,-36 299,-36 299,-36 293,-36 287,-30 287,-24 287,-24 287,-12 287,-12 287,-6 293,0 299,0 299,0 329,0 329,0 335,0 341,-6 341,-12 341,-12 341,-24 341,-24 341,-30 335,-36 329,-36"/>
<text text-anchor="middle" x="314" y="-13.32" font-family="Helvetica,sans-Serif" font-size="14.00">(...)</text>
</g>
<!-- 10750&#45;&gt;11036 -->
<g id="edge8" class="edge">
<title>10750&#45;&gt;11036</title>
<path fill="none" stroke="black" d="M296.44,-71.75C299.24,-63.32 302.09,-54.77 304.66,-47.07"/>
<polygon fill="black" stroke="black" points="307.97,-48.2 307.8,-37.61 301.33,-45.99 307.97,-48.2"/>
</g>
<!-- 11114 -->
<g id="node11" class="node">
<title>11114</title>
<path fill="#a0d0f3" stroke="black" d="M532,-166.25C532,-166.25 390,-166.25 390,-166.25 384,-166.25 378,-160.25 378,-154.25 378,-154.25 378,-84 378,-84 378,-78 384,-72 390,-72 390,-72 532,-72 532,-72 538,-72 544,-78 544,-84 544,-84 544,-154.25 544,-154.25 544,-160.25 538,-166.25 532,-166.25"/>
<text text-anchor="middle" x="461" y="-148.95" font-family="Helvetica,sans-Serif" font-size="14.00">16_A &lt;= 0.5</text>
<text text-anchor="middle" x="461" y="-131.7" font-family="Helvetica,sans-Serif" font-size="14.00">entropy = 0.928</text>
<text text-anchor="middle" x="461" y="-114.45" font-family="Helvetica,sans-Serif" font-size="14.00">samples = 7603</text>
<text text-anchor="middle" x="461" y="-97.2" font-family="Helvetica,sans-Serif" font-size="14.00">value = [4126, 7908]</text>
<text text-anchor="middle" x="461" y="-79.95" font-family="Helvetica,sans-Serif" font-size="14.00">class = Plant</text>
</g>
<!-- 11113&#45;&gt;11114 -->
<g id="edge10" class="edge">
<title>11113&#45;&gt;11114</title>
<path fill="none" stroke="black" d="M514.04,-202.07C508.51,-193.54 502.69,-184.54 497.01,-175.77"/>
<polygon fill="black" stroke="black" points="500.11,-174.12 491.74,-167.63 494.24,-177.93 500.11,-174.12"/>
</g>
<!-- 14223 -->
<g id="node14" class="node">
<title>14223</title>
<path fill="#f3c5a3" stroke="black" d="M698,-166.25C698,-166.25 574,-166.25 574,-166.25 568,-166.25 562,-160.25 562,-154.25 562,-154.25 562,-84 562,-84 562,-78 568,-72 574,-72 574,-72 698,-72 698,-72 704,-72 710,-78 710,-84 710,-84 710,-154.25 710,-154.25 710,-160.25 704,-166.25 698,-166.25"/>
<text text-anchor="middle" x="636" y="-148.95" font-family="Helvetica,sans-Serif" font-size="14.00">3_C &lt;= 0.5</text>
<text text-anchor="middle" x="636" y="-131.7" font-family="Helvetica,sans-Serif" font-size="14.00">entropy = 0.934</text>
<text text-anchor="middle" x="636" y="-114.45" font-family="Helvetica,sans-Serif" font-size="14.00">samples = 885</text>
<text text-anchor="middle" x="636" y="-97.2" font-family="Helvetica,sans-Serif" font-size="14.00">value = [900, 484]</text>
<text text-anchor="middle" x="636" y="-79.95" font-family="Helvetica,sans-Serif" font-size="14.00">class = Animal</text>
</g>
<!-- 11113&#45;&gt;14223 -->
<g id="edge13" class="edge">
<title>11113&#45;&gt;14223</title>
<path fill="none" stroke="black" d="M577.21,-202.07C583.4,-193.45 589.93,-184.35 596.29,-175.49"/>
<polygon fill="black" stroke="black" points="598.97,-177.75 601.95,-167.59 593.28,-173.67 598.97,-177.75"/>
</g>
<!-- 11115 -->
<g id="node12" class="node">
<title>11115</title>
<path fill="#c0c0c0" stroke="black" d="M419,-36C419,-36 389,-36 389,-36 383,-36 377,-30 377,-24 377,-24 377,-12 377,-12 377,-6 383,0 389,0 389,0 419,0 419,0 425,0 431,-6 431,-12 431,-12 431,-24 431,-24 431,-30 425,-36 419,-36"/>
<text text-anchor="middle" x="404" y="-13.32" font-family="Helvetica,sans-Serif" font-size="14.00">(...)</text>
</g>
<!-- 11114&#45;&gt;11115 -->
<g id="edge11" class="edge">
<title>11114&#45;&gt;11115</title>
<path fill="none" stroke="black" d="M434.34,-71.75C429.26,-62.93 424.1,-53.96 419.52,-45.99"/>
<polygon fill="black" stroke="black" points="422.65,-44.41 414.63,-37.48 416.58,-47.9 422.65,-44.41"/>
</g>
<!-- 13420 -->
<g id="node13" class="node">
<title>13420</title>
<path fill="#c0c0c0" stroke="black" d="M491,-36C491,-36 461,-36 461,-36 455,-36 449,-30 449,-24 449,-24 449,-12 449,-12 449,-6 455,0 461,0 461,0 491,0 491,0 497,0 503,-6 503,-12 503,-12 503,-24 503,-24 503,-30 497,-36 491,-36"/>
<text text-anchor="middle" x="476" y="-13.32" font-family="Helvetica,sans-Serif" font-size="14.00">(...)</text>
</g>
<!-- 11114&#45;&gt;13420 -->
<g id="edge12" class="edge">
<title>11114&#45;&gt;13420</title>
<path fill="none" stroke="black" d="M468.02,-71.75C469.28,-63.42 470.56,-54.97 471.71,-47.34"/>
<polygon fill="black" stroke="black" points="475.14,-48.08 473.17,-37.67 468.22,-47.03 475.14,-48.08"/>
</g>
<!-- 14224 -->
<g id="node15" class="node">
<title>14224</title>
<path fill="#c0c0c0" stroke="black" d="M592,-36C592,-36 562,-36 562,-36 556,-36 550,-30 550,-24 550,-24 550,-12 550,-12 550,-6 556,0 562,0 562,0 592,0 592,0 598,0 604,-6 604,-12 604,-12 604,-24 604,-24 604,-30 598,-36 592,-36"/>
<text text-anchor="middle" x="577" y="-13.32" font-family="Helvetica,sans-Serif" font-size="14.00">(...)</text>
</g>
<!-- 14223&#45;&gt;14224 -->
<g id="edge14" class="edge">
<title>14223&#45;&gt;14224</title>
<path fill="none" stroke="black" d="M608.4,-71.75C603.15,-62.93 597.81,-53.96 593.06,-45.99"/>
<polygon fill="black" stroke="black" points="596.12,-44.28 588,-37.47 590.1,-47.86 596.12,-44.28"/>
</g>
<!-- 14565 -->
<g id="node16" class="node">
<title>14565</title>
<path fill="#c0c0c0" stroke="black" d="M664,-36C664,-36 634,-36 634,-36 628,-36 622,-30 622,-24 622,-24 622,-12 622,-12 622,-6 628,0 634,0 634,0 664,0 664,0 670,0 676,-6 676,-12 676,-12 676,-24 676,-24 676,-30 670,-36 664,-36"/>
<text text-anchor="middle" x="649" y="-13.32" font-family="Helvetica,sans-Serif" font-size="14.00">(...)</text>
</g>
<!-- 14223&#45;&gt;14565 -->
<g id="edge15" class="edge">
<title>14223&#45;&gt;14565</title>
<path fill="none" stroke="black" d="M642.08,-71.75C643.17,-63.42 644.28,-54.97 645.28,-47.34"/>
<polygon fill="black" stroke="black" points="648.72,-48.04 646.55,-37.67 641.78,-47.13 648.72,-48.04"/>
</g>
<!-- 14651 -->
<g id="node18" class="node">
<title>14651</title>
<path fill="#eb9d66" stroke="black" d="M963,-296.5C963,-296.5 821,-296.5 821,-296.5 815,-296.5 809,-290.5 809,-284.5 809,-284.5 809,-214.25 809,-214.25 809,-208.25 815,-202.25 821,-202.25 821,-202.25 963,-202.25 963,-202.25 969,-202.25 975,-208.25 975,-214.25 975,-214.25 975,-284.5 975,-284.5 975,-290.5 969,-296.5 963,-296.5"/>
<text text-anchor="middle" x="892" y="-279.2" font-family="Helvetica,sans-Serif" font-size="14.00">9_U &lt;= 0.5</text>
<text text-anchor="middle" x="892" y="-261.95" font-family="Helvetica,sans-Serif" font-size="14.00">entropy = 0.688</text>
<text text-anchor="middle" x="892" y="-244.7" font-family="Helvetica,sans-Serif" font-size="14.00">samples = 3686</text>
<text text-anchor="middle" x="892" y="-227.45" font-family="Helvetica,sans-Serif" font-size="14.00">value = [4740, 1066]</text>
<text text-anchor="middle" x="892" y="-210.2" font-family="Helvetica,sans-Serif" font-size="14.00">class = Animal</text>
</g>
<!-- 14650&#45;&gt;14651 -->
<g id="edge17" class="edge">
<title>14650&#45;&gt;14651</title>
<path fill="none" stroke="black" d="M892,-332.32C892,-324.42 892,-316.13 892,-307.98"/>
<polygon fill="black" stroke="black" points="895.5,-308.12 892,-298.12 888.5,-308.12 895.5,-308.12"/>
</g>
<!-- 16064 -->
<g id="node25" class="node">
<title>16064</title>
<path fill="#f1bc96" stroke="black" d="M1223.5,-296.5C1223.5,-296.5 1090.5,-296.5 1090.5,-296.5 1084.5,-296.5 1078.5,-290.5 1078.5,-284.5 1078.5,-284.5 1078.5,-214.25 1078.5,-214.25 1078.5,-208.25 1084.5,-202.25 1090.5,-202.25 1090.5,-202.25 1223.5,-202.25 1223.5,-202.25 1229.5,-202.25 1235.5,-208.25 1235.5,-214.25 1235.5,-214.25 1235.5,-284.5 1235.5,-284.5 1235.5,-290.5 1229.5,-296.5 1223.5,-296.5"/>
<text text-anchor="middle" x="1157" y="-279.2" font-family="Helvetica,sans-Serif" font-size="14.00">6_U &lt;= 0.5</text>
<text text-anchor="middle" x="1157" y="-261.95" font-family="Helvetica,sans-Serif" font-size="14.00">entropy = 0.903</text>
<text text-anchor="middle" x="1157" y="-244.7" font-family="Helvetica,sans-Serif" font-size="14.00">samples = 1252</text>
<text text-anchor="middle" x="1157" y="-227.45" font-family="Helvetica,sans-Serif" font-size="14.00">value = [1344, 629]</text>
<text text-anchor="middle" x="1157" y="-210.2" font-family="Helvetica,sans-Serif" font-size="14.00">class = Animal</text>
</g>
<!-- 14650&#45;&gt;16064 -->
<g id="edge24" class="edge">
<title>14650&#45;&gt;16064</title>
<path fill="none" stroke="black" d="M975.48,-338.22C1004.93,-323.97 1038.13,-307.91 1068.01,-293.44"/>
<polygon fill="black" stroke="black" points="1069.16,-296.77 1076.64,-289.27 1066.11,-290.47 1069.16,-296.77"/>
</g>
<!-- 14652 -->
<g id="node19" class="node">
<title>14652</title>
<path fill="#eca571" stroke="black" d="M873.5,-166.25C873.5,-166.25 740.5,-166.25 740.5,-166.25 734.5,-166.25 728.5,-160.25 728.5,-154.25 728.5,-154.25 728.5,-84 728.5,-84 728.5,-78 734.5,-72 740.5,-72 740.5,-72 873.5,-72 873.5,-72 879.5,-72 885.5,-78 885.5,-84 885.5,-84 885.5,-154.25 885.5,-154.25 885.5,-160.25 879.5,-166.25 873.5,-166.25"/>
<text text-anchor="middle" x="807" y="-148.95" font-family="Helvetica,sans-Serif" font-size="14.00">18_U &lt;= 0.5</text>
<text text-anchor="middle" x="807" y="-131.7" font-family="Helvetica,sans-Serif" font-size="14.00">entropy = 0.761</text>
<text text-anchor="middle" x="807" y="-114.45" font-family="Helvetica,sans-Serif" font-size="14.00">samples = 2340</text>
<text text-anchor="middle" x="807" y="-97.2" font-family="Helvetica,sans-Serif" font-size="14.00">value = [2861, 809]</text>
<text text-anchor="middle" x="807" y="-79.95" font-family="Helvetica,sans-Serif" font-size="14.00">class = Animal</text>
</g>
<!-- 14651&#45;&gt;14652 -->
<g id="edge18" class="edge">
<title>14651&#45;&gt;14652</title>
<path fill="none" stroke="black" d="M861.31,-202.07C855.66,-193.54 849.7,-184.54 843.88,-175.77"/>
<polygon fill="black" stroke="black" points="846.92,-174.02 838.48,-167.62 841.09,-177.89 846.92,-174.02"/>
</g>
<!-- 15677 -->
<g id="node22" class="node">
<title>15677</title>
<path fill="#e99254" stroke="black" d="M1048.5,-166.25C1048.5,-166.25 915.5,-166.25 915.5,-166.25 909.5,-166.25 903.5,-160.25 903.5,-154.25 903.5,-154.25 903.5,-84 903.5,-84 903.5,-78 909.5,-72 915.5,-72 915.5,-72 1048.5,-72 1048.5,-72 1054.5,-72 1060.5,-78 1060.5,-84 1060.5,-84 1060.5,-154.25 1060.5,-154.25 1060.5,-160.25 1054.5,-166.25 1048.5,-166.25"/>
<text text-anchor="middle" x="982" y="-148.95" font-family="Helvetica,sans-Serif" font-size="14.00">11_C &lt;= 0.5</text>
<text text-anchor="middle" x="982" y="-131.7" font-family="Helvetica,sans-Serif" font-size="14.00">entropy = 0.53</text>
<text text-anchor="middle" x="982" y="-114.45" font-family="Helvetica,sans-Serif" font-size="14.00">samples = 1346</text>
<text text-anchor="middle" x="982" y="-97.2" font-family="Helvetica,sans-Serif" font-size="14.00">value = [1879, 257]</text>
<text text-anchor="middle" x="982" y="-79.95" font-family="Helvetica,sans-Serif" font-size="14.00">class = Animal</text>
</g>
<!-- 14651&#45;&gt;15677 -->
<g id="edge21" class="edge">
<title>14651&#45;&gt;15677</title>
<path fill="none" stroke="black" d="M924.49,-202.07C930.48,-193.54 936.79,-184.54 942.95,-175.77"/>
<polygon fill="black" stroke="black" points="945.81,-177.79 948.69,-167.6 940.08,-173.77 945.81,-177.79"/>
</g>
<!-- 14653 -->
<g id="node20" class="node">
<title>14653</title>
<path fill="#c0c0c0" stroke="black" d="M765,-36C765,-36 735,-36 735,-36 729,-36 723,-30 723,-24 723,-24 723,-12 723,-12 723,-6 729,0 735,0 735,0 765,0 765,0 771,0 777,-6 777,-12 777,-12 777,-24 777,-24 777,-30 771,-36 765,-36"/>
<text text-anchor="middle" x="750" y="-13.32" font-family="Helvetica,sans-Serif" font-size="14.00">(...)</text>
</g>
<!-- 14652&#45;&gt;14653 -->
<g id="edge19" class="edge">
<title>14652&#45;&gt;14653</title>
<path fill="none" stroke="black" d="M780.34,-71.75C775.26,-62.93 770.1,-53.96 765.52,-45.99"/>
<polygon fill="black" stroke="black" points="768.65,-44.41 760.63,-37.48 762.58,-47.9 768.65,-44.41"/>
</g>
<!-- 15402 -->
<g id="node21" class="node">
<title>15402</title>
<path fill="#c0c0c0" stroke="black" d="M837,-36C837,-36 807,-36 807,-36 801,-36 795,-30 795,-24 795,-24 795,-12 795,-12 795,-6 801,0 807,0 807,0 837,0 837,0 843,0 849,-6 849,-12 849,-12 849,-24 849,-24 849,-30 843,-36 837,-36"/>
<text text-anchor="middle" x="822" y="-13.32" font-family="Helvetica,sans-Serif" font-size="14.00">(...)</text>
</g>
<!-- 14652&#45;&gt;15402 -->
<g id="edge20" class="edge">
<title>14652&#45;&gt;15402</title>
<path fill="none" stroke="black" d="M814.02,-71.75C815.28,-63.42 816.56,-54.97 817.71,-47.34"/>
<polygon fill="black" stroke="black" points="821.14,-48.08 819.17,-37.67 814.22,-47.03 821.14,-48.08"/>
</g>
<!-- 15678 -->
<g id="node23" class="node">
<title>15678</title>
<path fill="#c0c0c0" stroke="black" d="M940,-36C940,-36 910,-36 910,-36 904,-36 898,-30 898,-24 898,-24 898,-12 898,-12 898,-6 904,0 910,0 910,0 940,0 940,0 946,0 952,-6 952,-12 952,-12 952,-24 952,-24 952,-30 946,-36 940,-36"/>
<text text-anchor="middle" x="925" y="-13.32" font-family="Helvetica,sans-Serif" font-size="14.00">(...)</text>
</g>
<!-- 15677&#45;&gt;15678 -->
<g id="edge22" class="edge">
<title>15677&#45;&gt;15678</title>
<path fill="none" stroke="black" d="M955.34,-71.75C950.26,-62.93 945.1,-53.96 940.52,-45.99"/>
<polygon fill="black" stroke="black" points="943.65,-44.41 935.63,-37.48 937.58,-47.9 943.65,-44.41"/>
</g>
<!-- 15973 -->
<g id="node24" class="node">
<title>15973</title>
<path fill="#c0c0c0" stroke="black" d="M1012,-36C1012,-36 982,-36 982,-36 976,-36 970,-30 970,-24 970,-24 970,-12 970,-12 970,-6 976,0 982,0 982,0 1012,0 1012,0 1018,0 1024,-6 1024,-12 1024,-12 1024,-24 1024,-24 1024,-30 1018,-36 1012,-36"/>
<text text-anchor="middle" x="997" y="-13.32" font-family="Helvetica,sans-Serif" font-size="14.00">(...)</text>
</g>
<!-- 15677&#45;&gt;15973 -->
<g id="edge23" class="edge">
<title>15677&#45;&gt;15973</title>
<path fill="none" stroke="black" d="M989.02,-71.75C990.28,-63.42 991.56,-54.97 992.71,-47.34"/>
<polygon fill="black" stroke="black" points="996.14,-48.08 994.17,-37.67 989.22,-47.03 996.14,-48.08"/>
</g>
<!-- 16065 -->
<g id="node26" class="node">
<title>16065</title>
<path fill="#eeac7c" stroke="black" d="M1223.5,-166.25C1223.5,-166.25 1090.5,-166.25 1090.5,-166.25 1084.5,-166.25 1078.5,-160.25 1078.5,-154.25 1078.5,-154.25 1078.5,-84 1078.5,-84 1078.5,-78 1084.5,-72 1090.5,-72 1090.5,-72 1223.5,-72 1223.5,-72 1229.5,-72 1235.5,-78 1235.5,-84 1235.5,-84 1235.5,-154.25 1235.5,-154.25 1235.5,-160.25 1229.5,-166.25 1223.5,-166.25"/>
<text text-anchor="middle" x="1157" y="-148.95" font-family="Helvetica,sans-Serif" font-size="14.00">24_U &lt;= 0.5</text>
<text text-anchor="middle" x="1157" y="-131.7" font-family="Helvetica,sans-Serif" font-size="14.00">entropy = 0.817</text>
<text text-anchor="middle" x="1157" y="-114.45" font-family="Helvetica,sans-Serif" font-size="14.00">samples = 902</text>
<text text-anchor="middle" x="1157" y="-97.2" font-family="Helvetica,sans-Serif" font-size="14.00">value = [1058, 359]</text>
<text text-anchor="middle" x="1157" y="-79.95" font-family="Helvetica,sans-Serif" font-size="14.00">class = Animal</text>
</g>
<!-- 16064&#45;&gt;16065 -->
<g id="edge25" class="edge">
<title>16064&#45;&gt;16065</title>
<path fill="none" stroke="black" d="M1157,-202.07C1157,-194.17 1157,-185.88 1157,-177.73"/>
<polygon fill="black" stroke="black" points="1160.5,-177.87 1157,-167.87 1153.5,-177.87 1160.5,-177.87"/>
</g>
<!-- 16400 -->
<g id="node29" class="node">
<title>16400</title>
<path fill="#fef8f4" stroke="black" d="M1390,-166.25C1390,-166.25 1266,-166.25 1266,-166.25 1260,-166.25 1254,-160.25 1254,-154.25 1254,-154.25 1254,-84 1254,-84 1254,-78 1260,-72 1266,-72 1266,-72 1390,-72 1390,-72 1396,-72 1402,-78 1402,-84 1402,-84 1402,-154.25 1402,-154.25 1402,-160.25 1396,-166.25 1390,-166.25"/>
<text text-anchor="middle" x="1328" y="-148.95" font-family="Helvetica,sans-Serif" font-size="14.00">21_A &lt;= 0.5</text>
<text text-anchor="middle" x="1328" y="-131.7" font-family="Helvetica,sans-Serif" font-size="14.00">entropy = 0.999</text>
<text text-anchor="middle" x="1328" y="-114.45" font-family="Helvetica,sans-Serif" font-size="14.00">samples = 350</text>
<text text-anchor="middle" x="1328" y="-97.2" font-family="Helvetica,sans-Serif" font-size="14.00">value = [286, 270]</text>
<text text-anchor="middle" x="1328" y="-79.95" font-family="Helvetica,sans-Serif" font-size="14.00">class = Animal</text>
</g>
<!-- 16064&#45;&gt;16400 -->
<g id="edge28" class="edge">
<title>16064&#45;&gt;16400</title>
<path fill="none" stroke="black" d="M1218.73,-202.07C1231.13,-192.78 1244.25,-182.94 1256.93,-173.43"/>
<polygon fill="black" stroke="black" points="1258.96,-176.28 1264.86,-167.48 1254.76,-170.68 1258.96,-176.28"/>
</g>
<!-- 16066 -->
<g id="node27" class="node">
<title>16066</title>
<path fill="#c0c0c0" stroke="black" d="M1131,-36C1131,-36 1101,-36 1101,-36 1095,-36 1089,-30 1089,-24 1089,-24 1089,-12 1089,-12 1089,-6 1095,0 1101,0 1101,0 1131,0 1131,0 1137,0 1143,-6 1143,-12 1143,-12 1143,-24 1143,-24 1143,-30 1137,-36 1131,-36"/>
<text text-anchor="middle" x="1116" y="-13.32" font-family="Helvetica,sans-Serif" font-size="14.00">(...)</text>
</g>
<!-- 16065&#45;&gt;16066 -->
<g id="edge26" class="edge">
<title>16065&#45;&gt;16066</title>
<path fill="none" stroke="black" d="M1137.82,-71.75C1134.29,-63.22 1130.71,-54.57 1127.5,-46.8"/>
<polygon fill="black" stroke="black" points="1130.74,-45.47 1123.68,-37.57 1124.27,-48.15 1130.74,-45.47"/>
</g>
<!-- 16369 -->
<g id="node28" class="node">
<title>16369</title>
<path fill="#c0c0c0" stroke="black" d="M1203,-36C1203,-36 1173,-36 1173,-36 1167,-36 1161,-30 1161,-24 1161,-24 1161,-12 1161,-12 1161,-6 1167,0 1173,0 1173,0 1203,0 1203,0 1209,0 1215,-6 1215,-12 1215,-12 1215,-24 1215,-24 1215,-30 1209,-36 1203,-36"/>
<text text-anchor="middle" x="1188" y="-13.32" font-family="Helvetica,sans-Serif" font-size="14.00">(...)</text>
</g>
<!-- 16065&#45;&gt;16369 -->
<g id="edge27" class="edge">
<title>16065&#45;&gt;16369</title>
<path fill="none" stroke="black" d="M1171.5,-71.75C1174.14,-63.32 1176.81,-54.77 1179.22,-47.07"/>
<polygon fill="black" stroke="black" points="1182.53,-48.21 1182.18,-37.62 1175.85,-46.12 1182.53,-48.21"/>
</g>
<!-- 16401 -->
<g id="node30" class="node">
<title>16401</title>
<path fill="#c0c0c0" stroke="black" d="M1307,-36C1307,-36 1277,-36 1277,-36 1271,-36 1265,-30 1265,-24 1265,-24 1265,-12 1265,-12 1265,-6 1271,0 1277,0 1277,0 1307,0 1307,0 1313,0 1319,-6 1319,-12 1319,-12 1319,-24 1319,-24 1319,-30 1313,-36 1307,-36"/>
<text text-anchor="middle" x="1292" y="-13.32" font-family="Helvetica,sans-Serif" font-size="14.00">(...)</text>
</g>
<!-- 16400&#45;&gt;16401 -->
<g id="edge29" class="edge">
<title>16400&#45;&gt;16401</title>
<path fill="none" stroke="black" d="M1311.16,-71.75C1308.06,-63.22 1304.92,-54.57 1302.1,-46.8"/>
<polygon fill="black" stroke="black" points="1305.46,-45.8 1298.75,-37.6 1298.88,-48.19 1305.46,-45.8"/>
</g>
<!-- 16514 -->
<g id="node31" class="node">
<title>16514</title>
<path fill="#c0c0c0" stroke="black" d="M1379,-36C1379,-36 1349,-36 1349,-36 1343,-36 1337,-30 1337,-24 1337,-24 1337,-12 1337,-12 1337,-6 1343,0 1349,0 1349,0 1379,0 1379,0 1385,0 1391,-6 1391,-12 1391,-12 1391,-24 1391,-24 1391,-30 1385,-36 1379,-36"/>
<text text-anchor="middle" x="1364" y="-13.32" font-family="Helvetica,sans-Serif" font-size="14.00">(...)</text>
</g>
<!-- 16400&#45;&gt;16514 -->
<g id="edge30" class="edge">
<title>16400&#45;&gt;16514</title>
<path fill="none" stroke="black" d="M1344.84,-71.75C1347.94,-63.22 1351.08,-54.57 1353.9,-46.8"/>
<polygon fill="black" stroke="black" points="1357.12,-48.19 1357.25,-37.6 1350.54,-45.8 1357.12,-48.19"/>
</g>
</g>
</svg>
