<?xml version="1.0" encoding="UTF-8" standalone="no"?>
<!DOCTYPE svg PUBLIC "-//W3C//DTD SVG 1.1//EN"
 "http://www.w3.org/Graphics/SVG/1.1/DTD/svg11.dtd">
<!-- Generated by graphviz version 12.0.0 (20240803.0821)
 -->
<!-- Title: Tree Pages: 1 -->
<svg width="1436pt" height="565pt"
 viewBox="0.00 0.00 1436.00 565.00" xmlns="http://www.w3.org/2000/svg" xmlns:xlink="http://www.w3.org/1999/xlink">
<g id="graph0" class="graph" transform="scale(1 1) rotate(0) translate(4 561)">
<title>Tree</title>
<polygon fill="white" stroke="none" points="-4,4 -4,-561 1432,-561 1432,4 -4,4"/>
<!-- 0 -->
<g id="node1" class="node">
<title>0</title>
<path fill="#feffff" stroke="black" d="M793,-557C793,-557 633,-557 633,-557 627,-557 621,-551 621,-545 621,-545 621,-474.75 621,-474.75 621,-468.75 627,-462.75 633,-462.75 633,-462.75 793,-462.75 793,-462.75 799,-462.75 805,-468.75 805,-474.75 805,-474.75 805,-545 805,-545 805,-551 799,-557 793,-557"/>
<text text-anchor="middle" x="713" y="-539.7" font-family="Helvetica,sans-Serif" font-size="14.00">1_U &lt;= 0.5</text>
<text text-anchor="middle" x="713" y="-522.45" font-family="Helvetica,sans-Serif" font-size="14.00">entropy = 1.0</text>
<text text-anchor="middle" x="713" y="-505.2" font-family="Helvetica,sans-Serif" font-size="14.00">samples = 38104</text>
<text text-anchor="middle" x="713" y="-487.95" font-family="Helvetica,sans-Serif" font-size="14.00">value = [30108, 30237]</text>
<text text-anchor="middle" x="713" y="-470.7" font-family="Helvetica,sans-Serif" font-size="14.00">class = Plant</text>
</g>
<!-- 1 -->
<g id="node2" class="node">
<title>1</title>
<path fill="#f8dbc6" stroke="black" d="M614,-426.75C614,-426.75 454,-426.75 454,-426.75 448,-426.75 442,-420.75 442,-414.75 442,-414.75 442,-344.5 442,-344.5 442,-338.5 448,-332.5 454,-332.5 454,-332.5 614,-332.5 614,-332.5 620,-332.5 626,-338.5 626,-344.5 626,-344.5 626,-414.75 626,-414.75 626,-420.75 620,-426.75 614,-426.75"/>
<text text-anchor="middle" x="534" y="-409.45" font-family="Helvetica,sans-Serif" font-size="14.00">17_C &lt;= 0.5</text>
<text text-anchor="middle" x="534" y="-392.2" font-family="Helvetica,sans-Serif" font-size="14.00">entropy = 0.98</text>
<text text-anchor="middle" x="534" y="-374.95" font-family="Helvetica,sans-Serif" font-size="14.00">samples = 17892</text>
<text text-anchor="middle" x="534" y="-357.7" font-family="Helvetica,sans-Serif" font-size="14.00">value = [16564, 11804]</text>
<text text-anchor="middle" x="534" y="-340.45" font-family="Helvetica,sans-Serif" font-size="14.00">class = Animal</text>
</g>
<!-- 0&#45;&gt;1 -->
<g id="edge1" class="edge">
<title>0&#45;&gt;1</title>
<path fill="none" stroke="black" d="M648.12,-462.39C635.12,-453.07 621.36,-443.22 608.07,-433.69"/>
<polygon fill="black" stroke="black" points="610.35,-431.02 600.19,-428.05 606.28,-436.72 610.35,-431.02"/>
<text text-anchor="middle" x="603.03" y="-447.16" font-family="Helvetica,sans-Serif" font-size="14.00">True</text>
</g>
<!-- 9520 -->
<g id="node17" class="node">
<title>9520</title>
<path fill="#cae5f8" stroke="black" d="M982,-426.75C982,-426.75 822,-426.75 822,-426.75 816,-426.75 810,-420.75 810,-414.75 810,-414.75 810,-344.5 810,-344.5 810,-338.5 816,-332.5 822,-332.5 822,-332.5 982,-332.5 982,-332.5 988,-332.5 994,-338.5 994,-344.5 994,-344.5 994,-414.75 994,-414.75 994,-420.75 988,-426.75 982,-426.75"/>
<text text-anchor="middle" x="902" y="-409.45" font-family="Helvetica,sans-Serif" font-size="14.00">20_G &lt;= 0.5</text>
<text text-anchor="middle" x="902" y="-392.2" font-family="Helvetica,sans-Serif" font-size="14.00">entropy = 0.983</text>
<text text-anchor="middle" x="902" y="-374.95" font-family="Helvetica,sans-Serif" font-size="14.00">samples = 20212</text>
<text text-anchor="middle" x="902" y="-357.7" font-family="Helvetica,sans-Serif" font-size="14.00">value = [13544, 18433]</text>
<text text-anchor="middle" x="902" y="-340.45" font-family="Helvetica,sans-Serif" font-size="14.00">class = Plant</text>
</g>
<!-- 0&#45;&gt;9520 -->
<g id="edge16" class="edge">
<title>0&#45;&gt;9520</title>
<path fill="none" stroke="black" d="M781.5,-462.39C795.37,-452.98 810.04,-443.03 824.2,-433.42"/>
<polygon fill="black" stroke="black" points="825.85,-436.53 832.16,-428.01 821.92,-430.73 825.85,-436.53"/>
<text text-anchor="middle" x="828.71" y="-447.04" font-family="Helvetica,sans-Serif" font-size="14.00">False</text>
</g>
<!-- 2 -->
<g id="node3" class="node">
<title>2</title>
<path fill="#f9e2d1" stroke="black" d="M342.5,-296.5C342.5,-296.5 191.5,-296.5 191.5,-296.5 185.5,-296.5 179.5,-290.5 179.5,-284.5 179.5,-284.5 179.5,-214.25 179.5,-214.25 179.5,-208.25 185.5,-202.25 191.5,-202.25 191.5,-202.25 342.5,-202.25 342.5,-202.25 348.5,-202.25 354.5,-208.25 354.5,-214.25 354.5,-214.25 354.5,-284.5 354.5,-284.5 354.5,-290.5 348.5,-296.5 342.5,-296.5"/>
<text text-anchor="middle" x="267" y="-279.2" font-family="Helvetica,sans-Serif" font-size="14.00">10_C &lt;= 0.5</text>
<text text-anchor="middle" x="267" y="-261.95" font-family="Helvetica,sans-Serif" font-size="14.00">entropy = 0.988</text>
<text text-anchor="middle" x="267" y="-244.7" font-family="Helvetica,sans-Serif" font-size="14.00">samples = 13768</text>
<text text-anchor="middle" x="267" y="-227.45" font-family="Helvetica,sans-Serif" font-size="14.00">value = [12378, 9516]</text>
<text text-anchor="middle" x="267" y="-210.2" font-family="Helvetica,sans-Serif" font-size="14.00">class = Animal</text>
</g>
<!-- 1&#45;&gt;2 -->
<g id="edge2" class="edge">
<title>1&#45;&gt;2</title>
<path fill="none" stroke="black" d="M441.74,-334.31C416.97,-322.41 390.09,-309.5 365.02,-297.46"/>
<polygon fill="black" stroke="black" points="366.66,-294.36 356.13,-293.19 363.63,-300.67 366.66,-294.36"/>
</g>
<!-- 7355 -->
<g id="node10" class="node">
<title>7355</title>
<path fill="#f3c6a5" stroke="black" d="M605,-296.5C605,-296.5 463,-296.5 463,-296.5 457,-296.5 451,-290.5 451,-284.5 451,-284.5 451,-214.25 451,-214.25 451,-208.25 457,-202.25 463,-202.25 463,-202.25 605,-202.25 605,-202.25 611,-202.25 617,-208.25 617,-214.25 617,-214.25 617,-284.5 617,-284.5 617,-290.5 611,-296.5 605,-296.5"/>
<text text-anchor="middle" x="534" y="-279.2" font-family="Helvetica,sans-Serif" font-size="14.00">6_U &lt;= 0.5</text>
<text text-anchor="middle" x="534" y="-261.95" font-family="Helvetica,sans-Serif" font-size="14.00">entropy = 0.937</text>
<text text-anchor="middle" x="534" y="-244.7" font-family="Helvetica,sans-Serif" font-size="14.00">samples = 4124</text>
<text text-anchor="middle" x="534" y="-227.45" font-family="Helvetica,sans-Serif" font-size="14.00">value = [4186, 2288]</text>
<text text-anchor="middle" x="534" y="-210.2" font-family="Helvetica,sans-Serif" font-size="14.00">class = Animal</text>
</g>
<!-- 1&#45;&gt;7355 -->
<g id="edge9" class="edge">
<title>1&#45;&gt;7355</title>
<path fill="none" stroke="black" d="M534,-332.32C534,-324.42 534,-316.13 534,-307.98"/>
<polygon fill="black" stroke="black" points="537.5,-308.12 534,-298.12 530.5,-308.12 537.5,-308.12"/>
</g>
<!-- 3 -->
<g id="node4" class="node">
<title>3</title>
<path fill="#fbebdf" stroke="black" d="M154,-166.25C154,-166.25 12,-166.25 12,-166.25 6,-166.25 0,-160.25 0,-154.25 0,-154.25 0,-84 0,-84 0,-78 6,-72 12,-72 12,-72 154,-72 154,-72 160,-72 166,-78 166,-84 166,-84 166,-154.25 166,-154.25 166,-160.25 160,-166.25 154,-166.25"/>
<text text-anchor="middle" x="83" y="-148.95" font-family="Helvetica,sans-Serif" font-size="14.00">3_G &lt;= 0.5</text>
<text text-anchor="middle" x="83" y="-131.7" font-family="Helvetica,sans-Serif" font-size="14.00">entropy = 0.995</text>
<text text-anchor="middle" x="83" y="-114.45" font-family="Helvetica,sans-Serif" font-size="14.00">samples = 10868</text>
<text text-anchor="middle" x="83" y="-97.2" font-family="Helvetica,sans-Serif" font-size="14.00">value = [9396, 7895]</text>
<text text-anchor="middle" x="83" y="-79.95" font-family="Helvetica,sans-Serif" font-size="14.00">class = Animal</text>
</g>
<!-- 2&#45;&gt;3 -->
<g id="edge3" class="edge">
<title>2&#45;&gt;3</title>
<path fill="none" stroke="black" d="M200.31,-201.89C186.94,-192.57 172.8,-182.72 159.14,-173.19"/>
<polygon fill="black" stroke="black" points="161.22,-170.38 151.01,-167.53 157.21,-176.12 161.22,-170.38"/>
</g>
<!-- 5670 -->
<g id="node7" class="node">
<title>5670</title>
<path fill="#f3c5a5" stroke="black" d="M338,-166.25C338,-166.25 196,-166.25 196,-166.25 190,-166.25 184,-160.25 184,-154.25 184,-154.25 184,-84 184,-84 184,-78 190,-72 196,-72 196,-72 338,-72 338,-72 344,-72 350,-78 350,-84 350,-84 350,-154.25 350,-154.25 350,-160.25 344,-166.25 338,-166.25"/>
<text text-anchor="middle" x="267" y="-148.95" font-family="Helvetica,sans-Serif" font-size="14.00">18_C &lt;= 0.5</text>
<text text-anchor="middle" x="267" y="-131.7" font-family="Helvetica,sans-Serif" font-size="14.00">entropy = 0.936</text>
<text text-anchor="middle" x="267" y="-114.45" font-family="Helvetica,sans-Serif" font-size="14.00">samples = 2900</text>
<text text-anchor="middle" x="267" y="-97.2" font-family="Helvetica,sans-Serif" font-size="14.00">value = [2982, 1621]</text>
<text text-anchor="middle" x="267" y="-79.95" font-family="Helvetica,sans-Serif" font-size="14.00">class = Animal</text>
</g>
<!-- 2&#45;&gt;5670 -->
<g id="edge6" class="edge">
<title>2&#45;&gt;5670</title>
<path fill="none" stroke="black" d="M267,-202.07C267,-194.17 267,-185.88 267,-177.73"/>
<polygon fill="black" stroke="black" points="270.5,-177.87 267,-167.87 263.5,-177.87 270.5,-177.87"/>
</g>
<!-- 4 -->
<g id="node5" class="node">
<title>4</title>
<path fill="#c0c0c0" stroke="black" d="M62,-36C62,-36 32,-36 32,-36 26,-36 20,-30 20,-24 20,-24 20,-12 20,-12 20,-6 26,0 32,0 32,0 62,0 62,0 68,0 74,-6 74,-12 74,-12 74,-24 74,-24 74,-30 68,-36 62,-36"/>
<text text-anchor="middle" x="47" y="-13.32" font-family="Helvetica,sans-Serif" font-size="14.00">(...)</text>
</g>
<!-- 3&#45;&gt;4 -->
<g id="edge4" class="edge">
<title>3&#45;&gt;4</title>
<path fill="none" stroke="black" d="M66.16,-71.75C63.06,-63.22 59.92,-54.57 57.1,-46.8"/>
<polygon fill="black" stroke="black" points="60.46,-45.8 53.75,-37.6 53.88,-48.19 60.46,-45.8"/>
</g>
<!-- 3973 -->
<g id="node6" class="node">
<title>3973</title>
<path fill="#c0c0c0" stroke="black" d="M134,-36C134,-36 104,-36 104,-36 98,-36 92,-30 92,-24 92,-24 92,-12 92,-12 92,-6 98,0 104,0 104,0 134,0 134,0 140,0 146,-6 146,-12 146,-12 146,-24 146,-24 146,-30 140,-36 134,-36"/>
<text text-anchor="middle" x="119" y="-13.32" font-family="Helvetica,sans-Serif" font-size="14.00">(...)</text>
</g>
<!-- 3&#45;&gt;3973 -->
<g id="edge5" class="edge">
<title>3&#45;&gt;3973</title>
<path fill="none" stroke="black" d="M99.84,-71.75C102.94,-63.22 106.08,-54.57 108.9,-46.8"/>
<polygon fill="black" stroke="black" points="112.12,-48.19 112.25,-37.6 105.54,-45.8 112.12,-48.19"/>
</g>
<!-- 5671 -->
<g id="node8" class="node">
<title>5671</title>
<path fill="#c0c0c0" stroke="black" d="M248,-36C248,-36 218,-36 218,-36 212,-36 206,-30 206,-24 206,-24 206,-12 206,-12 206,-6 212,0 218,0 218,0 248,0 248,0 254,0 260,-6 260,-12 260,-12 260,-24 260,-24 260,-30 254,-36 248,-36"/>
<text text-anchor="middle" x="233" y="-13.32" font-family="Helvetica,sans-Serif" font-size="14.00">(...)</text>
</g>
<!-- 5670&#45;&gt;5671 -->
<g id="edge7" class="edge">
<title>5670&#45;&gt;5671</title>
<path fill="none" stroke="black" d="M251.1,-71.75C248.17,-63.22 245.2,-54.57 242.53,-46.8"/>
<polygon fill="black" stroke="black" points="245.94,-45.93 239.38,-37.6 239.32,-48.2 245.94,-45.93"/>
</g>
<!-- 6944 -->
<g id="node9" class="node">
<title>6944</title>
<path fill="#c0c0c0" stroke="black" d="M320,-36C320,-36 290,-36 290,-36 284,-36 278,-30 278,-24 278,-24 278,-12 278,-12 278,-6 284,0 290,0 290,0 320,0 320,0 326,0 332,-6 332,-12 332,-12 332,-24 332,-24 332,-30 326,-36 320,-36"/>
<text text-anchor="middle" x="305" y="-13.32" font-family="Helvetica,sans-Serif" font-size="14.00">(...)</text>
</g>
<!-- 5670&#45;&gt;6944 -->
<g id="edge8" class="edge">
<title>5670&#45;&gt;6944</title>
<path fill="none" stroke="black" d="M284.78,-71.75C288.05,-63.22 291.37,-54.57 294.34,-46.8"/>
<polygon fill="black" stroke="black" points="297.56,-48.18 297.88,-37.59 291.03,-45.67 297.56,-48.18"/>
</g>
<!-- 7356 -->
<g id="node11" class="node">
<title>7356</title>
<path fill="#f5cfb4" stroke="black" d="M522,-166.25C522,-166.25 380,-166.25 380,-166.25 374,-166.25 368,-160.25 368,-154.25 368,-154.25 368,-84 368,-84 368,-78 374,-72 380,-72 380,-72 522,-72 522,-72 528,-72 534,-78 534,-84 534,-84 534,-154.25 534,-154.25 534,-160.25 528,-166.25 522,-166.25"/>
<text text-anchor="middle" x="451" y="-148.95" font-family="Helvetica,sans-Serif" font-size="14.00">22_U &lt;= 0.5</text>
<text text-anchor="middle" x="451" y="-131.7" font-family="Helvetica,sans-Serif" font-size="14.00">entropy = 0.96</text>
<text text-anchor="middle" x="451" y="-114.45" font-family="Helvetica,sans-Serif" font-size="14.00">samples = 3044</text>
<text text-anchor="middle" x="451" y="-97.2" font-family="Helvetica,sans-Serif" font-size="14.00">value = [2949, 1826]</text>
<text text-anchor="middle" x="451" y="-79.95" font-family="Helvetica,sans-Serif" font-size="14.00">class = Animal</text>
</g>
<!-- 7355&#45;&gt;7356 -->
<g id="edge10" class="edge">
<title>7355&#45;&gt;7356</title>
<path fill="none" stroke="black" d="M504.04,-202.07C498.51,-193.54 492.69,-184.54 487.01,-175.77"/>
<polygon fill="black" stroke="black" points="490.11,-174.12 481.74,-167.63 484.24,-177.93 490.11,-174.12"/>
</g>
<!-- 8931 -->
<g id="node14" class="node">
<title>8931</title>
<path fill="#efb083" stroke="black" d="M697.5,-166.25C697.5,-166.25 564.5,-166.25 564.5,-166.25 558.5,-166.25 552.5,-160.25 552.5,-154.25 552.5,-154.25 552.5,-84 552.5,-84 552.5,-78 558.5,-72 564.5,-72 564.5,-72 697.5,-72 697.5,-72 703.5,-72 709.5,-78 709.5,-84 709.5,-84 709.5,-154.25 709.5,-154.25 709.5,-160.25 703.5,-166.25 697.5,-166.25"/>
<text text-anchor="middle" x="631" y="-148.95" font-family="Helvetica,sans-Serif" font-size="14.00">8_C &lt;= 0.5</text>
<text text-anchor="middle" x="631" y="-131.7" font-family="Helvetica,sans-Serif" font-size="14.00">entropy = 0.844</text>
<text text-anchor="middle" x="631" y="-114.45" font-family="Helvetica,sans-Serif" font-size="14.00">samples = 1080</text>
<text text-anchor="middle" x="631" y="-97.2" font-family="Helvetica,sans-Serif" font-size="14.00">value = [1237, 462]</text>
<text text-anchor="middle" x="631" y="-79.95" font-family="Helvetica,sans-Serif" font-size="14.00">class = Animal</text>
</g>
<!-- 7355&#45;&gt;8931 -->
<g id="edge13" class="edge">
<title>7355&#45;&gt;8931</title>
<path fill="none" stroke="black" d="M569.02,-202.07C575.54,-193.45 582.42,-184.35 589.13,-175.49"/>
<polygon fill="black" stroke="black" points="591.88,-177.65 595.12,-167.57 586.3,-173.43 591.88,-177.65"/>
</g>
<!-- 7357 -->
<g id="node12" class="node">
<title>7357</title>
<path fill="#c0c0c0" stroke="black" d="M412,-36C412,-36 382,-36 382,-36 376,-36 370,-30 370,-24 370,-24 370,-12 370,-12 370,-6 376,0 382,0 382,0 412,0 412,0 418,0 424,-6 424,-12 424,-12 424,-24 424,-24 424,-30 418,-36 412,-36"/>
<text text-anchor="middle" x="397" y="-13.32" font-family="Helvetica,sans-Serif" font-size="14.00">(...)</text>
</g>
<!-- 7356&#45;&gt;7357 -->
<g id="edge11" class="edge">
<title>7356&#45;&gt;7357</title>
<path fill="none" stroke="black" d="M425.74,-71.75C420.98,-63.03 416.16,-54.16 411.85,-46.26"/>
<polygon fill="black" stroke="black" points="414.94,-44.61 407.08,-37.5 408.79,-47.96 414.94,-44.61"/>
</g>
<!-- 8798 -->
<g id="node13" class="node">
<title>8798</title>
<path fill="#c0c0c0" stroke="black" d="M484,-36C484,-36 454,-36 454,-36 448,-36 442,-30 442,-24 442,-24 442,-12 442,-12 442,-6 448,0 454,0 454,0 484,0 484,0 490,0 496,-6 496,-12 496,-12 496,-24 496,-24 496,-30 490,-36 484,-36"/>
<text text-anchor="middle" x="469" y="-13.32" font-family="Helvetica,sans-Serif" font-size="14.00">(...)</text>
</g>
<!-- 7356&#45;&gt;8798 -->
<g id="edge12" class="edge">
<title>7356&#45;&gt;8798</title>
<path fill="none" stroke="black" d="M459.42,-71.75C460.93,-63.42 462.47,-54.97 463.85,-47.34"/>
<polygon fill="black" stroke="black" points="467.27,-48.13 465.61,-37.66 460.38,-46.88 467.27,-48.13"/>
</g>
<!-- 8932 -->
<g id="node15" class="node">
<title>8932</title>
<path fill="#c0c0c0" stroke="black" d="M594,-36C594,-36 564,-36 564,-36 558,-36 552,-30 552,-24 552,-24 552,-12 552,-12 552,-6 558,0 564,0 564,0 594,0 594,0 600,0 606,-6 606,-12 606,-12 606,-24 606,-24 606,-30 600,-36 594,-36"/>
<text text-anchor="middle" x="579" y="-13.32" font-family="Helvetica,sans-Serif" font-size="14.00">(...)</text>
</g>
<!-- 8931&#45;&gt;8932 -->
<g id="edge14" class="edge">
<title>8931&#45;&gt;8932</title>
<path fill="none" stroke="black" d="M606.67,-71.75C602.1,-63.03 597.45,-54.16 593.3,-46.26"/>
<polygon fill="black" stroke="black" points="596.46,-44.74 588.71,-37.51 590.26,-47.99 596.46,-44.74"/>
</g>
<!-- 9391 -->
<g id="node16" class="node">
<title>9391</title>
<path fill="#c0c0c0" stroke="black" d="M666,-36C666,-36 636,-36 636,-36 630,-36 624,-30 624,-24 624,-24 624,-12 624,-12 624,-6 630,0 636,0 636,0 666,0 666,0 672,0 678,-6 678,-12 678,-12 678,-24 678,-24 678,-30 672,-36 666,-36"/>
<text text-anchor="middle" x="651" y="-13.32" font-family="Helvetica,sans-Serif" font-size="14.00">(...)</text>
</g>
<!-- 8931&#45;&gt;9391 -->
<g id="edge15" class="edge">
<title>8931&#45;&gt;9391</title>
<path fill="none" stroke="black" d="M640.36,-71.75C642.04,-63.42 643.74,-54.97 645.28,-47.34"/>
<polygon fill="black" stroke="black" points="648.69,-48.15 647.24,-37.66 641.83,-46.77 648.69,-48.15"/>
</g>
<!-- 9521 -->
<g id="node18" class="node">
<title>9521</title>
<path fill="#afd7f4" stroke="black" d="M977.5,-296.5C977.5,-296.5 826.5,-296.5 826.5,-296.5 820.5,-296.5 814.5,-290.5 814.5,-284.5 814.5,-284.5 814.5,-214.25 814.5,-214.25 814.5,-208.25 820.5,-202.25 826.5,-202.25 826.5,-202.25 977.5,-202.25 977.5,-202.25 983.5,-202.25 989.5,-208.25 989.5,-214.25 989.5,-214.25 989.5,-284.5 989.5,-284.5 989.5,-290.5 983.5,-296.5 977.5,-296.5"/>
<text text-anchor="middle" x="902" y="-279.2" font-family="Helvetica,sans-Serif" font-size="14.00">22_U &lt;= 0.5</text>
<text text-anchor="middle" x="902" y="-261.95" font-family="Helvetica,sans-Serif" font-size="14.00">entropy = 0.953</text>
<text text-anchor="middle" x="902" y="-244.7" font-family="Helvetica,sans-Serif" font-size="14.00">samples = 16349</text>
<text text-anchor="middle" x="902" y="-227.45" font-family="Helvetica,sans-Serif" font-size="14.00">value = [9654, 16206]</text>
<text text-anchor="middle" x="902" y="-210.2" font-family="Helvetica,sans-Serif" font-size="14.00">class = Plant</text>
</g>
<!-- 9520&#45;&gt;9521 -->
<g id="edge17" class="edge">
<title>9520&#45;&gt;9521</title>
<path fill="none" stroke="black" d="M902,-332.32C902,-324.42 902,-316.13 902,-307.98"/>
<polygon fill="black" stroke="black" points="905.5,-308.12 902,-298.12 898.5,-308.12 905.5,-308.12"/>
</g>
<!-- 15004 -->
<g id="node25" class="node">
<title>15004</title>
<path fill="#f4c9aa" stroke="black" d="M1250,-296.5C1250,-296.5 1108,-296.5 1108,-296.5 1102,-296.5 1096,-290.5 1096,-284.5 1096,-284.5 1096,-214.25 1096,-214.25 1096,-208.25 1102,-202.25 1108,-202.25 1108,-202.25 1250,-202.25 1250,-202.25 1256,-202.25 1262,-208.25 1262,-214.25 1262,-214.25 1262,-284.5 1262,-284.5 1262,-290.5 1256,-296.5 1250,-296.5"/>
<text text-anchor="middle" x="1179" y="-279.2" font-family="Helvetica,sans-Serif" font-size="14.00">5_C &lt;= 0.5</text>
<text text-anchor="middle" x="1179" y="-261.95" font-family="Helvetica,sans-Serif" font-size="14.00">entropy = 0.946</text>
<text text-anchor="middle" x="1179" y="-244.7" font-family="Helvetica,sans-Serif" font-size="14.00">samples = 3863</text>
<text text-anchor="middle" x="1179" y="-227.45" font-family="Helvetica,sans-Serif" font-size="14.00">value = [3890, 2227]</text>
<text text-anchor="middle" x="1179" y="-210.2" font-family="Helvetica,sans-Serif" font-size="14.00">class = Animal</text>
</g>
<!-- 9520&#45;&gt;15004 -->
<g id="edge24" class="edge">
<title>9520&#45;&gt;15004</title>
<path fill="none" stroke="black" d="M994.24,-335.92C1023.52,-322.36 1055.92,-307.36 1085.3,-293.76"/>
<polygon fill="black" stroke="black" points="1086.58,-297.02 1094.19,-289.64 1083.64,-290.67 1086.58,-297.02"/>
</g>
<!-- 9522 -->
<g id="node19" class="node">
<title>9522</title>
<path fill="#96cbf1" stroke="black" d="M890.5,-166.25C890.5,-166.25 739.5,-166.25 739.5,-166.25 733.5,-166.25 727.5,-160.25 727.5,-154.25 727.5,-154.25 727.5,-84 727.5,-84 727.5,-78 733.5,-72 739.5,-72 739.5,-72 890.5,-72 890.5,-72 896.5,-72 902.5,-78 902.5,-84 902.5,-84 902.5,-154.25 902.5,-154.25 902.5,-160.25 896.5,-166.25 890.5,-166.25"/>
<text text-anchor="middle" x="815" y="-148.95" font-family="Helvetica,sans-Serif" font-size="14.00">9_G &lt;= 0.5</text>
<text text-anchor="middle" x="815" y="-131.7" font-family="Helvetica,sans-Serif" font-size="14.00">entropy = 0.905</text>
<text text-anchor="middle" x="815" y="-114.45" font-family="Helvetica,sans-Serif" font-size="14.00">samples = 14543</text>
<text text-anchor="middle" x="815" y="-97.2" font-family="Helvetica,sans-Serif" font-size="14.00">value = [7368, 15641]</text>
<text text-anchor="middle" x="815" y="-79.95" font-family="Helvetica,sans-Serif" font-size="14.00">class = Plant</text>
</g>
<!-- 9521&#45;&gt;9522 -->
<g id="edge18" class="edge">
<title>9521&#45;&gt;9522</title>
<path fill="none" stroke="black" d="M870.59,-202.07C864.8,-193.54 858.7,-184.54 852.75,-175.77"/>
<polygon fill="black" stroke="black" points="855.72,-173.92 847.21,-167.61 849.93,-177.85 855.72,-173.92"/>
</g>
<!-- 14267 -->
<g id="node22" class="node">
<title>14267</title>
<path fill="#eba06a" stroke="black" d="M1065.5,-166.25C1065.5,-166.25 932.5,-166.25 932.5,-166.25 926.5,-166.25 920.5,-160.25 920.5,-154.25 920.5,-154.25 920.5,-84 920.5,-84 920.5,-78 926.5,-72 932.5,-72 932.5,-72 1065.5,-72 1065.5,-72 1071.5,-72 1077.5,-78 1077.5,-84 1077.5,-84 1077.5,-154.25 1077.5,-154.25 1077.5,-160.25 1071.5,-166.25 1065.5,-166.25"/>
<text text-anchor="middle" x="999" y="-148.95" font-family="Helvetica,sans-Serif" font-size="14.00">8_A &lt;= 0.5</text>
<text text-anchor="middle" x="999" y="-131.7" font-family="Helvetica,sans-Serif" font-size="14.00">entropy = 0.718</text>
<text text-anchor="middle" x="999" y="-114.45" font-family="Helvetica,sans-Serif" font-size="14.00">samples = 1806</text>
<text text-anchor="middle" x="999" y="-97.2" font-family="Helvetica,sans-Serif" font-size="14.00">value = [2286, 565]</text>
<text text-anchor="middle" x="999" y="-79.95" font-family="Helvetica,sans-Serif" font-size="14.00">class = Animal</text>
</g>
<!-- 9521&#45;&gt;14267 -->
<g id="edge21" class="edge">
<title>9521&#45;&gt;14267</title>
<path fill="none" stroke="black" d="M937.02,-202.07C943.54,-193.45 950.42,-184.35 957.13,-175.49"/>
<polygon fill="black" stroke="black" points="959.88,-177.65 963.12,-167.57 954.3,-173.43 959.88,-177.65"/>
</g>
<!-- 9523 -->
<g id="node20" class="node">
<title>9523</title>
<path fill="#c0c0c0" stroke="black" d="M778,-36C778,-36 748,-36 748,-36 742,-36 736,-30 736,-24 736,-24 736,-12 736,-12 736,-6 742,0 748,0 748,0 778,0 778,0 784,0 790,-6 790,-12 790,-12 790,-24 790,-24 790,-30 784,-36 778,-36"/>
<text text-anchor="middle" x="763" y="-13.32" font-family="Helvetica,sans-Serif" font-size="14.00">(...)</text>
</g>
<!-- 9522&#45;&gt;9523 -->
<g id="edge19" class="edge">
<title>9522&#45;&gt;9523</title>
<path fill="none" stroke="black" d="M790.67,-71.75C786.1,-63.03 781.45,-54.16 777.3,-46.26"/>
<polygon fill="black" stroke="black" points="780.46,-44.74 772.71,-37.51 774.26,-47.99 780.46,-44.74"/>
</g>
<!-- 13046 -->
<g id="node21" class="node">
<title>13046</title>
<path fill="#c0c0c0" stroke="black" d="M850,-36C850,-36 820,-36 820,-36 814,-36 808,-30 808,-24 808,-24 808,-12 808,-12 808,-6 814,0 820,0 820,0 850,0 850,0 856,0 862,-6 862,-12 862,-12 862,-24 862,-24 862,-30 856,-36 850,-36"/>
<text text-anchor="middle" x="835" y="-13.32" font-family="Helvetica,sans-Serif" font-size="14.00">(...)</text>
</g>
<!-- 9522&#45;&gt;13046 -->
<g id="edge20" class="edge">
<title>9522&#45;&gt;13046</title>
<path fill="none" stroke="black" d="M824.36,-71.75C826.04,-63.42 827.74,-54.97 829.28,-47.34"/>
<polygon fill="black" stroke="black" points="832.69,-48.15 831.24,-37.66 825.83,-46.77 832.69,-48.15"/>
</g>
<!-- 14268 -->
<g id="node23" class="node">
<title>14268</title>
<path fill="#c0c0c0" stroke="black" d="M960,-36C960,-36 930,-36 930,-36 924,-36 918,-30 918,-24 918,-24 918,-12 918,-12 918,-6 924,0 930,0 930,0 960,0 960,0 966,0 972,-6 972,-12 972,-12 972,-24 972,-24 972,-30 966,-36 960,-36"/>
<text text-anchor="middle" x="945" y="-13.32" font-family="Helvetica,sans-Serif" font-size="14.00">(...)</text>
</g>
<!-- 14267&#45;&gt;14268 -->
<g id="edge22" class="edge">
<title>14267&#45;&gt;14268</title>
<path fill="none" stroke="black" d="M973.74,-71.75C968.98,-63.03 964.16,-54.16 959.85,-46.26"/>
<polygon fill="black" stroke="black" points="962.94,-44.61 955.08,-37.5 956.79,-47.96 962.94,-44.61"/>
</g>
<!-- 14799 -->
<g id="node24" class="node">
<title>14799</title>
<path fill="#c0c0c0" stroke="black" d="M1032,-36C1032,-36 1002,-36 1002,-36 996,-36 990,-30 990,-24 990,-24 990,-12 990,-12 990,-6 996,0 1002,0 1002,0 1032,0 1032,0 1038,0 1044,-6 1044,-12 1044,-12 1044,-24 1044,-24 1044,-30 1038,-36 1032,-36"/>
<text text-anchor="middle" x="1017" y="-13.32" font-family="Helvetica,sans-Serif" font-size="14.00">(...)</text>
</g>
<!-- 14267&#45;&gt;14799 -->
<g id="edge23" class="edge">
<title>14267&#45;&gt;14799</title>
<path fill="none" stroke="black" d="M1007.42,-71.75C1008.93,-63.42 1010.47,-54.97 1011.85,-47.34"/>
<polygon fill="black" stroke="black" points="1015.27,-48.13 1013.61,-37.66 1008.38,-46.88 1015.27,-48.13"/>
</g>
<!-- 15005 -->
<g id="node26" class="node">
<title>15005</title>
<path fill="#f2c29f" stroke="black" d="M1250,-166.25C1250,-166.25 1108,-166.25 1108,-166.25 1102,-166.25 1096,-160.25 1096,-154.25 1096,-154.25 1096,-84 1096,-84 1096,-78 1102,-72 1108,-72 1108,-72 1250,-72 1250,-72 1256,-72 1262,-78 1262,-84 1262,-84 1262,-154.25 1262,-154.25 1262,-160.25 1256,-166.25 1250,-166.25"/>
<text text-anchor="middle" x="1179" y="-148.95" font-family="Helvetica,sans-Serif" font-size="14.00">23_G &lt;= 0.5</text>
<text text-anchor="middle" x="1179" y="-131.7" font-family="Helvetica,sans-Serif" font-size="14.00">entropy = 0.926</text>
<text text-anchor="middle" x="1179" y="-114.45" font-family="Helvetica,sans-Serif" font-size="14.00">samples = 3120</text>
<text text-anchor="middle" x="1179" y="-97.2" font-family="Helvetica,sans-Serif" font-size="14.00">value = [3256, 1683]</text>
<text text-anchor="middle" x="1179" y="-79.95" font-family="Helvetica,sans-Serif" font-size="14.00">class = Animal</text>
</g>
<!-- 15004&#45;&gt;15005 -->
<g id="edge25" class="edge">
<title>15004&#45;&gt;15005</title>
<path fill="none" stroke="black" d="M1179,-202.07C1179,-194.17 1179,-185.88 1179,-177.73"/>
<polygon fill="black" stroke="black" points="1182.5,-177.87 1179,-167.87 1175.5,-177.87 1182.5,-177.87"/>
</g>
<!-- 16456 -->
<g id="node29" class="node">
<title>16456</title>
<path fill="#fbede3" stroke="black" d="M1416,-166.25C1416,-166.25 1292,-166.25 1292,-166.25 1286,-166.25 1280,-160.25 1280,-154.25 1280,-154.25 1280,-84 1280,-84 1280,-78 1286,-72 1292,-72 1292,-72 1416,-72 1416,-72 1422,-72 1428,-78 1428,-84 1428,-84 1428,-154.25 1428,-154.25 1428,-160.25 1422,-166.25 1416,-166.25"/>
<text text-anchor="middle" x="1354" y="-148.95" font-family="Helvetica,sans-Serif" font-size="14.00">14_A &lt;= 0.5</text>
<text text-anchor="middle" x="1354" y="-131.7" font-family="Helvetica,sans-Serif" font-size="14.00">entropy = 0.996</text>
<text text-anchor="middle" x="1354" y="-114.45" font-family="Helvetica,sans-Serif" font-size="14.00">samples = 743</text>
<text text-anchor="middle" x="1354" y="-97.2" font-family="Helvetica,sans-Serif" font-size="14.00">value = [634, 544]</text>
<text text-anchor="middle" x="1354" y="-79.95" font-family="Helvetica,sans-Serif" font-size="14.00">class = Animal</text>
</g>
<!-- 15004&#45;&gt;16456 -->
<g id="edge28" class="edge">
<title>15004&#45;&gt;16456</title>
<path fill="none" stroke="black" d="M1242.18,-202.07C1254.99,-192.69 1268.55,-182.75 1281.64,-173.15"/>
<polygon fill="black" stroke="black" points="1283.4,-176.2 1289.4,-167.47 1279.26,-170.56 1283.4,-176.2"/>
</g>
<!-- 15006 -->
<g id="node27" class="node">
<title>15006</title>
<path fill="#c0c0c0" stroke="black" d="M1155,-36C1155,-36 1125,-36 1125,-36 1119,-36 1113,-30 1113,-24 1113,-24 1113,-12 1113,-12 1113,-6 1119,0 1125,0 1125,0 1155,0 1155,0 1161,0 1167,-6 1167,-12 1167,-12 1167,-24 1167,-24 1167,-30 1161,-36 1155,-36"/>
<text text-anchor="middle" x="1140" y="-13.32" font-family="Helvetica,sans-Serif" font-size="14.00">(...)</text>
</g>
<!-- 15005&#45;&gt;15006 -->
<g id="edge26" class="edge">
<title>15005&#45;&gt;15006</title>
<path fill="none" stroke="black" d="M1160.76,-71.75C1157.4,-63.22 1153.99,-54.57 1150.94,-46.8"/>
<polygon fill="black" stroke="black" points="1154.23,-45.61 1147.31,-37.58 1147.71,-48.17 1154.23,-45.61"/>
</g>
<!-- 16397 -->
<g id="node28" class="node">
<title>16397</title>
<path fill="#c0c0c0" stroke="black" d="M1227,-36C1227,-36 1197,-36 1197,-36 1191,-36 1185,-30 1185,-24 1185,-24 1185,-12 1185,-12 1185,-6 1191,0 1197,0 1197,0 1227,0 1227,0 1233,0 1239,-6 1239,-12 1239,-12 1239,-24 1239,-24 1239,-30 1233,-36 1227,-36"/>
<text text-anchor="middle" x="1212" y="-13.32" font-family="Helvetica,sans-Serif" font-size="14.00">(...)</text>
</g>
<!-- 15005&#45;&gt;16397 -->
<g id="edge27" class="edge">
<title>15005&#45;&gt;16397</title>
<path fill="none" stroke="black" d="M1194.44,-71.75C1197.24,-63.32 1200.09,-54.77 1202.66,-47.07"/>
<polygon fill="black" stroke="black" points="1205.97,-48.2 1205.8,-37.61 1199.33,-45.99 1205.97,-48.2"/>
</g>
<!-- 16457 -->
<g id="node30" class="node">
<title>16457</title>
<path fill="#c0c0c0" stroke="black" d="M1333,-36C1333,-36 1303,-36 1303,-36 1297,-36 1291,-30 1291,-24 1291,-24 1291,-12 1291,-12 1291,-6 1297,0 1303,0 1303,0 1333,0 1333,0 1339,0 1345,-6 1345,-12 1345,-12 1345,-24 1345,-24 1345,-30 1339,-36 1333,-36"/>
<text text-anchor="middle" x="1318" y="-13.32" font-family="Helvetica,sans-Serif" font-size="14.00">(...)</text>
</g>
<!-- 16456&#45;&gt;16457 -->
<g id="edge29" class="edge">
<title>16456&#45;&gt;16457</title>
<path fill="none" stroke="black" d="M1337.16,-71.75C1334.06,-63.22 1330.92,-54.57 1328.1,-46.8"/>
<polygon fill="black" stroke="black" points="1331.46,-45.8 1324.75,-37.6 1324.88,-48.19 1331.46,-45.8"/>
</g>
<!-- 16746 -->
<g id="node31" class="node">
<title>16746</title>
<path fill="#c0c0c0" stroke="black" d="M1405,-36C1405,-36 1375,-36 1375,-36 1369,-36 1363,-30 1363,-24 1363,-24 1363,-12 1363,-12 1363,-6 1369,0 1375,0 1375,0 1405,0 1405,0 1411,0 1417,-6 1417,-12 1417,-12 1417,-24 1417,-24 1417,-30 1411,-36 1405,-36"/>
<text text-anchor="middle" x="1390" y="-13.32" font-family="Helvetica,sans-Serif" font-size="14.00">(...)</text>
</g>
<!-- 16456&#45;&gt;16746 -->
<g id="edge30" class="edge">
<title>16456&#45;&gt;16746</title>
<path fill="none" stroke="black" d="M1370.84,-71.75C1373.94,-63.22 1377.08,-54.57 1379.9,-46.8"/>
<polygon fill="black" stroke="black" points="1383.12,-48.19 1383.25,-37.6 1376.54,-45.8 1383.12,-48.19"/>
</g>
</g>
</svg>
