<?xml version="1.0" encoding="UTF-8" standalone="no"?>
<!DOCTYPE svg PUBLIC "-//W3C//DTD SVG 1.1//EN"
 "http://www.w3.org/Graphics/SVG/1.1/DTD/svg11.dtd">
<!-- Generated by graphviz version 12.0.0 (20240803.0821)
 -->
<!-- Title: Tree Pages: 1 -->
<svg width="1446pt" height="565pt"
 viewBox="0.00 0.00 1446.00 565.00" xmlns="http://www.w3.org/2000/svg" xmlns:xlink="http://www.w3.org/1999/xlink">
<g id="graph0" class="graph" transform="scale(1 1) rotate(0) translate(4 561)">
<title>Tree</title>
<polygon fill="white" stroke="none" points="-4,4 -4,-561 1442,-561 1442,4 -4,4"/>
<!-- 0 -->
<g id="node1" class="node">
<title>0</title>
<path fill="#ffffff" stroke="black" d="M804,-557C804,-557 644,-557 644,-557 638,-557 632,-551 632,-545 632,-545 632,-474.75 632,-474.75 632,-468.75 638,-462.75 644,-462.75 644,-462.75 804,-462.75 804,-462.75 810,-462.75 816,-468.75 816,-474.75 816,-474.75 816,-545 816,-545 816,-551 810,-557 804,-557"/>
<text text-anchor="middle" x="724" y="-539.7" font-family="Helvetica,sans-Serif" font-size="14.00">12_G &lt;= 0.5</text>
<text text-anchor="middle" x="724" y="-522.45" font-family="Helvetica,sans-Serif" font-size="14.00">entropy = 1.0</text>
<text text-anchor="middle" x="724" y="-505.2" font-family="Helvetica,sans-Serif" font-size="14.00">samples = 38202</text>
<text text-anchor="middle" x="724" y="-487.95" font-family="Helvetica,sans-Serif" font-size="14.00">value = [30197, 30148]</text>
<text text-anchor="middle" x="724" y="-470.7" font-family="Helvetica,sans-Serif" font-size="14.00">class = Animal</text>
</g>
<!-- 1 -->
<g id="node2" class="node">
<title>1</title>
<path fill="#fcf2ea" stroke="black" d="M631,-426.75C631,-426.75 471,-426.75 471,-426.75 465,-426.75 459,-420.75 459,-414.75 459,-414.75 459,-344.5 459,-344.5 459,-338.5 465,-332.5 471,-332.5 471,-332.5 631,-332.5 631,-332.5 637,-332.5 643,-338.5 643,-344.5 643,-344.5 643,-414.75 643,-414.75 643,-420.75 637,-426.75 631,-426.75"/>
<text text-anchor="middle" x="551" y="-409.45" font-family="Helvetica,sans-Serif" font-size="14.00">21_C &lt;= 0.5</text>
<text text-anchor="middle" x="551" y="-392.2" font-family="Helvetica,sans-Serif" font-size="14.00">entropy = 0.998</text>
<text text-anchor="middle" x="551" y="-374.95" font-family="Helvetica,sans-Serif" font-size="14.00">samples = 27227</text>
<text text-anchor="middle" x="551" y="-357.7" font-family="Helvetica,sans-Serif" font-size="14.00">value = [22708, 20276]</text>
<text text-anchor="middle" x="551" y="-340.45" font-family="Helvetica,sans-Serif" font-size="14.00">class = Animal</text>
</g>
<!-- 0&#45;&gt;1 -->
<g id="edge1" class="edge">
<title>0&#45;&gt;1</title>
<path fill="none" stroke="black" d="M661.54,-462.57C649,-453.28 635.73,-443.44 622.9,-433.93"/>
<polygon fill="black" stroke="black" points="624.99,-431.12 614.87,-427.97 620.82,-436.74 624.99,-431.12"/>
<text text-anchor="middle" x="617.33" y="-447.13" font-family="Helvetica,sans-Serif" font-size="14.00">True</text>
</g>
<!-- 12616 -->
<g id="node17" class="node">
<title>12616</title>
<path fill="#cfe7f9" stroke="black" d="M984,-426.75C984,-426.75 842,-426.75 842,-426.75 836,-426.75 830,-420.75 830,-414.75 830,-414.75 830,-344.5 830,-344.5 830,-338.5 836,-332.5 842,-332.5 842,-332.5 984,-332.5 984,-332.5 990,-332.5 996,-338.5 996,-344.5 996,-344.5 996,-414.75 996,-414.75 996,-420.75 990,-426.75 984,-426.75"/>
<text text-anchor="middle" x="913" y="-409.45" font-family="Helvetica,sans-Serif" font-size="14.00">13_U &lt;= 0.5</text>
<text text-anchor="middle" x="913" y="-392.2" font-family="Helvetica,sans-Serif" font-size="14.00">entropy = 0.986</text>
<text text-anchor="middle" x="913" y="-374.95" font-family="Helvetica,sans-Serif" font-size="14.00">samples = 10975</text>
<text text-anchor="middle" x="913" y="-357.7" font-family="Helvetica,sans-Serif" font-size="14.00">value = [7489, 9872]</text>
<text text-anchor="middle" x="913" y="-340.45" font-family="Helvetica,sans-Serif" font-size="14.00">class = Plant</text>
</g>
<!-- 0&#45;&gt;12616 -->
<g id="edge16" class="edge">
<title>0&#45;&gt;12616</title>
<path fill="none" stroke="black" d="M792.5,-462.39C806.37,-452.98 821.04,-443.03 835.2,-433.42"/>
<polygon fill="black" stroke="black" points="836.85,-436.53 843.16,-428.01 832.92,-430.73 836.85,-436.53"/>
<text text-anchor="middle" x="839.71" y="-447.04" font-family="Helvetica,sans-Serif" font-size="14.00">False</text>
</g>
<!-- 2 -->
<g id="node3" class="node">
<title>2</title>
<path fill="#fae6d7" stroke="black" d="M361,-296.5C361,-296.5 201,-296.5 201,-296.5 195,-296.5 189,-290.5 189,-284.5 189,-284.5 189,-214.25 189,-214.25 189,-208.25 195,-202.25 201,-202.25 201,-202.25 361,-202.25 361,-202.25 367,-202.25 373,-208.25 373,-214.25 373,-214.25 373,-284.5 373,-284.5 373,-290.5 367,-296.5 361,-296.5"/>
<text text-anchor="middle" x="281" y="-279.2" font-family="Helvetica,sans-Serif" font-size="14.00">23_G &lt;= 0.5</text>
<text text-anchor="middle" x="281" y="-261.95" font-family="Helvetica,sans-Serif" font-size="14.00">entropy = 0.991</text>
<text text-anchor="middle" x="281" y="-244.7" font-family="Helvetica,sans-Serif" font-size="14.00">samples = 20809</text>
<text text-anchor="middle" x="281" y="-227.45" font-family="Helvetica,sans-Serif" font-size="14.00">value = [18263, 14615]</text>
<text text-anchor="middle" x="281" y="-210.2" font-family="Helvetica,sans-Serif" font-size="14.00">class = Animal</text>
</g>
<!-- 1&#45;&gt;2 -->
<g id="edge2" class="edge">
<title>1&#45;&gt;2</title>
<path fill="none" stroke="black" d="M458.84,-334.85C434.53,-323.3 408.17,-310.78 383.36,-299"/>
<polygon fill="black" stroke="black" points="385.11,-295.95 374.57,-294.82 382.1,-302.27 385.11,-295.95"/>
</g>
<!-- 9951 -->
<g id="node10" class="node">
<title>9951</title>
<path fill="#d4eaf9" stroke="black" d="M622,-296.5C622,-296.5 480,-296.5 480,-296.5 474,-296.5 468,-290.5 468,-284.5 468,-284.5 468,-214.25 468,-214.25 468,-208.25 474,-202.25 480,-202.25 480,-202.25 622,-202.25 622,-202.25 628,-202.25 634,-208.25 634,-214.25 634,-214.25 634,-284.5 634,-284.5 634,-290.5 628,-296.5 622,-296.5"/>
<text text-anchor="middle" x="551" y="-279.2" font-family="Helvetica,sans-Serif" font-size="14.00">19_A &lt;= 0.5</text>
<text text-anchor="middle" x="551" y="-261.95" font-family="Helvetica,sans-Serif" font-size="14.00">entropy = 0.99</text>
<text text-anchor="middle" x="551" y="-244.7" font-family="Helvetica,sans-Serif" font-size="14.00">samples = 6418</text>
<text text-anchor="middle" x="551" y="-227.45" font-family="Helvetica,sans-Serif" font-size="14.00">value = [4445, 5661]</text>
<text text-anchor="middle" x="551" y="-210.2" font-family="Helvetica,sans-Serif" font-size="14.00">class = Plant</text>
</g>
<!-- 1&#45;&gt;9951 -->
<g id="edge9" class="edge">
<title>1&#45;&gt;9951</title>
<path fill="none" stroke="black" d="M551,-332.32C551,-324.42 551,-316.13 551,-307.98"/>
<polygon fill="black" stroke="black" points="554.5,-308.12 551,-298.12 547.5,-308.12 554.5,-308.12"/>
</g>
<!-- 3 -->
<g id="node4" class="node">
<title>3</title>
<path fill="#fbebe0" stroke="black" d="M172,-166.25C172,-166.25 12,-166.25 12,-166.25 6,-166.25 0,-160.25 0,-154.25 0,-154.25 0,-84 0,-84 0,-78 6,-72 12,-72 12,-72 172,-72 172,-72 178,-72 184,-78 184,-84 184,-84 184,-154.25 184,-154.25 184,-160.25 178,-166.25 172,-166.25"/>
<text text-anchor="middle" x="92" y="-148.95" font-family="Helvetica,sans-Serif" font-size="14.00">8_G &lt;= 0.5</text>
<text text-anchor="middle" x="92" y="-131.7" font-family="Helvetica,sans-Serif" font-size="14.00">entropy = 0.995</text>
<text text-anchor="middle" x="92" y="-114.45" font-family="Helvetica,sans-Serif" font-size="14.00">samples = 19792</text>
<text text-anchor="middle" x="92" y="-97.2" font-family="Helvetica,sans-Serif" font-size="14.00">value = [16940, 14314]</text>
<text text-anchor="middle" x="92" y="-79.95" font-family="Helvetica,sans-Serif" font-size="14.00">class = Animal</text>
</g>
<!-- 2&#45;&gt;3 -->
<g id="edge3" class="edge">
<title>2&#45;&gt;3</title>
<path fill="none" stroke="black" d="M212.5,-201.89C198.63,-192.48 183.96,-182.53 169.8,-172.92"/>
<polygon fill="black" stroke="black" points="172.08,-170.23 161.84,-167.51 168.15,-176.03 172.08,-170.23"/>
</g>
<!-- 9560 -->
<g id="node7" class="node">
<title>9560</title>
<path fill="#eb9e66" stroke="black" d="M347.5,-166.25C347.5,-166.25 214.5,-166.25 214.5,-166.25 208.5,-166.25 202.5,-160.25 202.5,-154.25 202.5,-154.25 202.5,-84 202.5,-84 202.5,-78 208.5,-72 214.5,-72 214.5,-72 347.5,-72 347.5,-72 353.5,-72 359.5,-78 359.5,-84 359.5,-84 359.5,-154.25 359.5,-154.25 359.5,-160.25 353.5,-166.25 347.5,-166.25"/>
<text text-anchor="middle" x="281" y="-148.95" font-family="Helvetica,sans-Serif" font-size="14.00">1_C &lt;= 0.5</text>
<text text-anchor="middle" x="281" y="-131.7" font-family="Helvetica,sans-Serif" font-size="14.00">entropy = 0.692</text>
<text text-anchor="middle" x="281" y="-114.45" font-family="Helvetica,sans-Serif" font-size="14.00">samples = 1017</text>
<text text-anchor="middle" x="281" y="-97.2" font-family="Helvetica,sans-Serif" font-size="14.00">value = [1323, 301]</text>
<text text-anchor="middle" x="281" y="-79.95" font-family="Helvetica,sans-Serif" font-size="14.00">class = Animal</text>
</g>
<!-- 2&#45;&gt;9560 -->
<g id="edge6" class="edge">
<title>2&#45;&gt;9560</title>
<path fill="none" stroke="black" d="M281,-202.07C281,-194.17 281,-185.88 281,-177.73"/>
<polygon fill="black" stroke="black" points="284.5,-177.87 281,-167.87 277.5,-177.87 284.5,-177.87"/>
</g>
<!-- 4 -->
<g id="node5" class="node">
<title>4</title>
<path fill="#c0c0c0" stroke="black" d="M71,-36C71,-36 41,-36 41,-36 35,-36 29,-30 29,-24 29,-24 29,-12 29,-12 29,-6 35,0 41,0 41,0 71,0 71,0 77,0 83,-6 83,-12 83,-12 83,-24 83,-24 83,-30 77,-36 71,-36"/>
<text text-anchor="middle" x="56" y="-13.32" font-family="Helvetica,sans-Serif" font-size="14.00">(...)</text>
</g>
<!-- 3&#45;&gt;4 -->
<g id="edge4" class="edge">
<title>3&#45;&gt;4</title>
<path fill="none" stroke="black" d="M75.16,-71.75C72.06,-63.22 68.92,-54.57 66.1,-46.8"/>
<polygon fill="black" stroke="black" points="69.46,-45.8 62.75,-37.6 62.88,-48.19 69.46,-45.8"/>
</g>
<!-- 7147 -->
<g id="node6" class="node">
<title>7147</title>
<path fill="#c0c0c0" stroke="black" d="M143,-36C143,-36 113,-36 113,-36 107,-36 101,-30 101,-24 101,-24 101,-12 101,-12 101,-6 107,0 113,0 113,0 143,0 143,0 149,0 155,-6 155,-12 155,-12 155,-24 155,-24 155,-30 149,-36 143,-36"/>
<text text-anchor="middle" x="128" y="-13.32" font-family="Helvetica,sans-Serif" font-size="14.00">(...)</text>
</g>
<!-- 3&#45;&gt;7147 -->
<g id="edge5" class="edge">
<title>3&#45;&gt;7147</title>
<path fill="none" stroke="black" d="M108.84,-71.75C111.94,-63.22 115.08,-54.57 117.9,-46.8"/>
<polygon fill="black" stroke="black" points="121.12,-48.19 121.25,-37.6 114.54,-45.8 121.12,-48.19"/>
</g>
<!-- 9561 -->
<g id="node8" class="node">
<title>9561</title>
<path fill="#c0c0c0" stroke="black" d="M260,-36C260,-36 230,-36 230,-36 224,-36 218,-30 218,-24 218,-24 218,-12 218,-12 218,-6 224,0 230,0 230,0 260,0 260,0 266,0 272,-6 272,-12 272,-12 272,-24 272,-24 272,-30 266,-36 260,-36"/>
<text text-anchor="middle" x="245" y="-13.32" font-family="Helvetica,sans-Serif" font-size="14.00">(...)</text>
</g>
<!-- 9560&#45;&gt;9561 -->
<g id="edge7" class="edge">
<title>9560&#45;&gt;9561</title>
<path fill="none" stroke="black" d="M264.16,-71.75C261.06,-63.22 257.92,-54.57 255.1,-46.8"/>
<polygon fill="black" stroke="black" points="258.46,-45.8 251.75,-37.6 251.88,-48.19 258.46,-45.8"/>
</g>
<!-- 9856 -->
<g id="node9" class="node">
<title>9856</title>
<path fill="#c0c0c0" stroke="black" d="M332,-36C332,-36 302,-36 302,-36 296,-36 290,-30 290,-24 290,-24 290,-12 290,-12 290,-6 296,0 302,0 302,0 332,0 332,0 338,0 344,-6 344,-12 344,-12 344,-24 344,-24 344,-30 338,-36 332,-36"/>
<text text-anchor="middle" x="317" y="-13.32" font-family="Helvetica,sans-Serif" font-size="14.00">(...)</text>
</g>
<!-- 9560&#45;&gt;9856 -->
<g id="edge8" class="edge">
<title>9560&#45;&gt;9856</title>
<path fill="none" stroke="black" d="M297.84,-71.75C300.94,-63.22 304.08,-54.57 306.9,-46.8"/>
<polygon fill="black" stroke="black" points="310.12,-48.19 310.25,-37.6 303.54,-45.8 310.12,-48.19"/>
</g>
<!-- 9952 -->
<g id="node11" class="node">
<title>9952</title>
<path fill="#eff7fd" stroke="black" d="M532,-166.25C532,-166.25 390,-166.25 390,-166.25 384,-166.25 378,-160.25 378,-154.25 378,-154.25 378,-84 378,-84 378,-78 384,-72 390,-72 390,-72 532,-72 532,-72 538,-72 544,-78 544,-84 544,-84 544,-154.25 544,-154.25 544,-160.25 538,-166.25 532,-166.25"/>
<text text-anchor="middle" x="461" y="-148.95" font-family="Helvetica,sans-Serif" font-size="14.00">10_G &lt;= 0.5</text>
<text text-anchor="middle" x="461" y="-131.7" font-family="Helvetica,sans-Serif" font-size="14.00">entropy = 0.999</text>
<text text-anchor="middle" x="461" y="-114.45" font-family="Helvetica,sans-Serif" font-size="14.00">samples = 4868</text>
<text text-anchor="middle" x="461" y="-97.2" font-family="Helvetica,sans-Serif" font-size="14.00">value = [3675, 3994]</text>
<text text-anchor="middle" x="461" y="-79.95" font-family="Helvetica,sans-Serif" font-size="14.00">class = Plant</text>
</g>
<!-- 9951&#45;&gt;9952 -->
<g id="edge10" class="edge">
<title>9951&#45;&gt;9952</title>
<path fill="none" stroke="black" d="M518.51,-202.07C512.52,-193.54 506.21,-184.54 500.05,-175.77"/>
<polygon fill="black" stroke="black" points="502.92,-173.77 494.31,-167.6 497.19,-177.79 502.92,-173.77"/>
</g>
<!-- 11975 -->
<g id="node14" class="node">
<title>11975</title>
<path fill="#94caf1" stroke="black" d="M707.5,-166.25C707.5,-166.25 574.5,-166.25 574.5,-166.25 568.5,-166.25 562.5,-160.25 562.5,-154.25 562.5,-154.25 562.5,-84 562.5,-84 562.5,-78 568.5,-72 574.5,-72 574.5,-72 707.5,-72 707.5,-72 713.5,-72 719.5,-78 719.5,-84 719.5,-84 719.5,-154.25 719.5,-154.25 719.5,-160.25 713.5,-166.25 707.5,-166.25"/>
<text text-anchor="middle" x="641" y="-148.95" font-family="Helvetica,sans-Serif" font-size="14.00">5_U &lt;= 0.5</text>
<text text-anchor="middle" x="641" y="-131.7" font-family="Helvetica,sans-Serif" font-size="14.00">entropy = 0.9</text>
<text text-anchor="middle" x="641" y="-114.45" font-family="Helvetica,sans-Serif" font-size="14.00">samples = 1550</text>
<text text-anchor="middle" x="641" y="-97.2" font-family="Helvetica,sans-Serif" font-size="14.00">value = [770, 1667]</text>
<text text-anchor="middle" x="641" y="-79.95" font-family="Helvetica,sans-Serif" font-size="14.00">class = Plant</text>
</g>
<!-- 9951&#45;&gt;11975 -->
<g id="edge13" class="edge">
<title>9951&#45;&gt;11975</title>
<path fill="none" stroke="black" d="M583.49,-202.07C589.48,-193.54 595.79,-184.54 601.95,-175.77"/>
<polygon fill="black" stroke="black" points="604.81,-177.79 607.69,-167.6 599.08,-173.77 604.81,-177.79"/>
</g>
<!-- 9953 -->
<g id="node12" class="node">
<title>9953</title>
<path fill="#c0c0c0" stroke="black" d="M422,-36C422,-36 392,-36 392,-36 386,-36 380,-30 380,-24 380,-24 380,-12 380,-12 380,-6 386,0 392,0 392,0 422,0 422,0 428,0 434,-6 434,-12 434,-12 434,-24 434,-24 434,-30 428,-36 422,-36"/>
<text text-anchor="middle" x="407" y="-13.32" font-family="Helvetica,sans-Serif" font-size="14.00">(...)</text>
</g>
<!-- 9952&#45;&gt;9953 -->
<g id="edge11" class="edge">
<title>9952&#45;&gt;9953</title>
<path fill="none" stroke="black" d="M435.74,-71.75C430.98,-63.03 426.16,-54.16 421.85,-46.26"/>
<polygon fill="black" stroke="black" points="424.94,-44.61 417.08,-37.5 418.79,-47.96 424.94,-44.61"/>
</g>
<!-- 11414 -->
<g id="node13" class="node">
<title>11414</title>
<path fill="#c0c0c0" stroke="black" d="M494,-36C494,-36 464,-36 464,-36 458,-36 452,-30 452,-24 452,-24 452,-12 452,-12 452,-6 458,0 464,0 464,0 494,0 494,0 500,0 506,-6 506,-12 506,-12 506,-24 506,-24 506,-30 500,-36 494,-36"/>
<text text-anchor="middle" x="479" y="-13.32" font-family="Helvetica,sans-Serif" font-size="14.00">(...)</text>
</g>
<!-- 9952&#45;&gt;11414 -->
<g id="edge12" class="edge">
<title>9952&#45;&gt;11414</title>
<path fill="none" stroke="black" d="M469.42,-71.75C470.93,-63.42 472.47,-54.97 473.85,-47.34"/>
<polygon fill="black" stroke="black" points="477.27,-48.13 475.61,-37.66 470.38,-46.88 477.27,-48.13"/>
</g>
<!-- 11976 -->
<g id="node15" class="node">
<title>11976</title>
<path fill="#c0c0c0" stroke="black" d="M602,-36C602,-36 572,-36 572,-36 566,-36 560,-30 560,-24 560,-24 560,-12 560,-12 560,-6 566,0 572,0 572,0 602,0 602,0 608,0 614,-6 614,-12 614,-12 614,-24 614,-24 614,-30 608,-36 602,-36"/>
<text text-anchor="middle" x="587" y="-13.32" font-family="Helvetica,sans-Serif" font-size="14.00">(...)</text>
</g>
<!-- 11975&#45;&gt;11976 -->
<g id="edge14" class="edge">
<title>11975&#45;&gt;11976</title>
<path fill="none" stroke="black" d="M615.74,-71.75C610.98,-63.03 606.16,-54.16 601.85,-46.26"/>
<polygon fill="black" stroke="black" points="604.94,-44.61 597.08,-37.5 598.79,-47.96 604.94,-44.61"/>
</g>
<!-- 12441 -->
<g id="node16" class="node">
<title>12441</title>
<path fill="#c0c0c0" stroke="black" d="M674,-36C674,-36 644,-36 644,-36 638,-36 632,-30 632,-24 632,-24 632,-12 632,-12 632,-6 638,0 644,0 644,0 674,0 674,0 680,0 686,-6 686,-12 686,-12 686,-24 686,-24 686,-30 680,-36 674,-36"/>
<text text-anchor="middle" x="659" y="-13.32" font-family="Helvetica,sans-Serif" font-size="14.00">(...)</text>
</g>
<!-- 11975&#45;&gt;12441 -->
<g id="edge15" class="edge">
<title>11975&#45;&gt;12441</title>
<path fill="none" stroke="black" d="M649.42,-71.75C650.93,-63.42 652.47,-54.97 653.85,-47.34"/>
<polygon fill="black" stroke="black" points="657.27,-48.13 655.61,-37.66 650.38,-46.88 657.27,-48.13"/>
</g>
<!-- 12617 -->
<g id="node18" class="node">
<title>12617</title>
<path fill="#b5daf5" stroke="black" d="M984,-296.5C984,-296.5 842,-296.5 842,-296.5 836,-296.5 830,-290.5 830,-284.5 830,-284.5 830,-214.25 830,-214.25 830,-208.25 836,-202.25 842,-202.25 842,-202.25 984,-202.25 984,-202.25 990,-202.25 996,-208.25 996,-214.25 996,-214.25 996,-284.5 996,-284.5 996,-290.5 990,-296.5 984,-296.5"/>
<text text-anchor="middle" x="913" y="-279.2" font-family="Helvetica,sans-Serif" font-size="14.00">17_G &lt;= 0.5</text>
<text text-anchor="middle" x="913" y="-261.95" font-family="Helvetica,sans-Serif" font-size="14.00">entropy = 0.961</text>
<text text-anchor="middle" x="913" y="-244.7" font-family="Helvetica,sans-Serif" font-size="14.00">samples = 8713</text>
<text text-anchor="middle" x="913" y="-227.45" font-family="Helvetica,sans-Serif" font-size="14.00">value = [5329, 8528]</text>
<text text-anchor="middle" x="913" y="-210.2" font-family="Helvetica,sans-Serif" font-size="14.00">class = Plant</text>
</g>
<!-- 12616&#45;&gt;12617 -->
<g id="edge17" class="edge">
<title>12616&#45;&gt;12617</title>
<path fill="none" stroke="black" d="M913,-332.32C913,-324.42 913,-316.13 913,-307.98"/>
<polygon fill="black" stroke="black" points="916.5,-308.12 913,-298.12 909.5,-308.12 916.5,-308.12"/>
</g>
<!-- 15866 -->
<g id="node25" class="node">
<title>15866</title>
<path fill="#f5cfb4" stroke="black" d="M1260,-296.5C1260,-296.5 1118,-296.5 1118,-296.5 1112,-296.5 1106,-290.5 1106,-284.5 1106,-284.5 1106,-214.25 1106,-214.25 1106,-208.25 1112,-202.25 1118,-202.25 1118,-202.25 1260,-202.25 1260,-202.25 1266,-202.25 1272,-208.25 1272,-214.25 1272,-214.25 1272,-284.5 1272,-284.5 1272,-290.5 1266,-296.5 1260,-296.5"/>
<text text-anchor="middle" x="1189" y="-279.2" font-family="Helvetica,sans-Serif" font-size="14.00">16_U &lt;= 0.5</text>
<text text-anchor="middle" x="1189" y="-261.95" font-family="Helvetica,sans-Serif" font-size="14.00">entropy = 0.961</text>
<text text-anchor="middle" x="1189" y="-244.7" font-family="Helvetica,sans-Serif" font-size="14.00">samples = 2262</text>
<text text-anchor="middle" x="1189" y="-227.45" font-family="Helvetica,sans-Serif" font-size="14.00">value = [2160, 1344]</text>
<text text-anchor="middle" x="1189" y="-210.2" font-family="Helvetica,sans-Serif" font-size="14.00">class = Animal</text>
</g>
<!-- 12616&#45;&gt;15866 -->
<g id="edge24" class="edge">
<title>12616&#45;&gt;15866</title>
<path fill="none" stroke="black" d="M996.18,-339.97C1027.41,-325.46 1063.1,-308.88 1095.22,-293.95"/>
<polygon fill="black" stroke="black" points="1096.54,-297.2 1104.14,-289.81 1093.59,-290.85 1096.54,-297.2"/>
</g>
<!-- 12618 -->
<g id="node19" class="node">
<title>12618</title>
<path fill="#c6e3f7" stroke="black" d="M892,-166.25C892,-166.25 750,-166.25 750,-166.25 744,-166.25 738,-160.25 738,-154.25 738,-154.25 738,-84 738,-84 738,-78 744,-72 750,-72 750,-72 892,-72 892,-72 898,-72 904,-78 904,-84 904,-84 904,-154.25 904,-154.25 904,-160.25 898,-166.25 892,-166.25"/>
<text text-anchor="middle" x="821" y="-148.95" font-family="Helvetica,sans-Serif" font-size="14.00">10_G &lt;= 0.5</text>
<text text-anchor="middle" x="821" y="-131.7" font-family="Helvetica,sans-Serif" font-size="14.00">entropy = 0.979</text>
<text text-anchor="middle" x="821" y="-114.45" font-family="Helvetica,sans-Serif" font-size="14.00">samples = 6053</text>
<text text-anchor="middle" x="821" y="-97.2" font-family="Helvetica,sans-Serif" font-size="14.00">value = [3991, 5618]</text>
<text text-anchor="middle" x="821" y="-79.95" font-family="Helvetica,sans-Serif" font-size="14.00">class = Plant</text>
</g>
<!-- 12617&#45;&gt;12618 -->
<g id="edge18" class="edge">
<title>12617&#45;&gt;12618</title>
<path fill="none" stroke="black" d="M879.79,-202.07C873.6,-193.45 867.07,-184.35 860.71,-175.49"/>
<polygon fill="black" stroke="black" points="863.72,-173.67 855.05,-167.59 858.03,-177.75 863.72,-173.67"/>
</g>
<!-- 14937 -->
<g id="node22" class="node">
<title>14937</title>
<path fill="#94caf1" stroke="black" d="M1076,-166.25C1076,-166.25 934,-166.25 934,-166.25 928,-166.25 922,-160.25 922,-154.25 922,-154.25 922,-84 922,-84 922,-78 928,-72 934,-72 934,-72 1076,-72 1076,-72 1082,-72 1088,-78 1088,-84 1088,-84 1088,-154.25 1088,-154.25 1088,-160.25 1082,-166.25 1076,-166.25"/>
<text text-anchor="middle" x="1005" y="-148.95" font-family="Helvetica,sans-Serif" font-size="14.00">10_A &lt;= 0.5</text>
<text text-anchor="middle" x="1005" y="-131.7" font-family="Helvetica,sans-Serif" font-size="14.00">entropy = 0.899</text>
<text text-anchor="middle" x="1005" y="-114.45" font-family="Helvetica,sans-Serif" font-size="14.00">samples = 2660</text>
<text text-anchor="middle" x="1005" y="-97.2" font-family="Helvetica,sans-Serif" font-size="14.00">value = [1338, 2910]</text>
<text text-anchor="middle" x="1005" y="-79.95" font-family="Helvetica,sans-Serif" font-size="14.00">class = Plant</text>
</g>
<!-- 12617&#45;&gt;14937 -->
<g id="edge21" class="edge">
<title>12617&#45;&gt;14937</title>
<path fill="none" stroke="black" d="M946.21,-202.07C952.4,-193.45 958.93,-184.35 965.29,-175.49"/>
<polygon fill="black" stroke="black" points="967.97,-177.75 970.95,-167.59 962.28,-173.67 967.97,-177.75"/>
</g>
<!-- 12619 -->
<g id="node20" class="node">
<title>12619</title>
<path fill="#c0c0c0" stroke="black" d="M784,-36C784,-36 754,-36 754,-36 748,-36 742,-30 742,-24 742,-24 742,-12 742,-12 742,-6 748,0 754,0 754,0 784,0 784,0 790,0 796,-6 796,-12 796,-12 796,-24 796,-24 796,-30 790,-36 784,-36"/>
<text text-anchor="middle" x="769" y="-13.32" font-family="Helvetica,sans-Serif" font-size="14.00">(...)</text>
</g>
<!-- 12618&#45;&gt;12619 -->
<g id="edge19" class="edge">
<title>12618&#45;&gt;12619</title>
<path fill="none" stroke="black" d="M796.67,-71.75C792.1,-63.03 787.45,-54.16 783.3,-46.26"/>
<polygon fill="black" stroke="black" points="786.46,-44.74 778.71,-37.51 780.26,-47.99 786.46,-44.74"/>
</g>
<!-- 14396 -->
<g id="node21" class="node">
<title>14396</title>
<path fill="#c0c0c0" stroke="black" d="M856,-36C856,-36 826,-36 826,-36 820,-36 814,-30 814,-24 814,-24 814,-12 814,-12 814,-6 820,0 826,0 826,0 856,0 856,0 862,0 868,-6 868,-12 868,-12 868,-24 868,-24 868,-30 862,-36 856,-36"/>
<text text-anchor="middle" x="841" y="-13.32" font-family="Helvetica,sans-Serif" font-size="14.00">(...)</text>
</g>
<!-- 12618&#45;&gt;14396 -->
<g id="edge20" class="edge">
<title>12618&#45;&gt;14396</title>
<path fill="none" stroke="black" d="M830.36,-71.75C832.04,-63.42 833.74,-54.97 835.28,-47.34"/>
<polygon fill="black" stroke="black" points="838.69,-48.15 837.24,-37.66 831.83,-46.77 838.69,-48.15"/>
</g>
<!-- 14938 -->
<g id="node23" class="node">
<title>14938</title>
<path fill="#c0c0c0" stroke="black" d="M968,-36C968,-36 938,-36 938,-36 932,-36 926,-30 926,-24 926,-24 926,-12 926,-12 926,-6 932,0 938,0 938,0 968,0 968,0 974,0 980,-6 980,-12 980,-12 980,-24 980,-24 980,-30 974,-36 968,-36"/>
<text text-anchor="middle" x="953" y="-13.32" font-family="Helvetica,sans-Serif" font-size="14.00">(...)</text>
</g>
<!-- 14937&#45;&gt;14938 -->
<g id="edge22" class="edge">
<title>14937&#45;&gt;14938</title>
<path fill="none" stroke="black" d="M980.67,-71.75C976.1,-63.03 971.45,-54.16 967.3,-46.26"/>
<polygon fill="black" stroke="black" points="970.46,-44.74 962.71,-37.51 964.26,-47.99 970.46,-44.74"/>
</g>
<!-- 15645 -->
<g id="node24" class="node">
<title>15645</title>
<path fill="#c0c0c0" stroke="black" d="M1040,-36C1040,-36 1010,-36 1010,-36 1004,-36 998,-30 998,-24 998,-24 998,-12 998,-12 998,-6 1004,0 1010,0 1010,0 1040,0 1040,0 1046,0 1052,-6 1052,-12 1052,-12 1052,-24 1052,-24 1052,-30 1046,-36 1040,-36"/>
<text text-anchor="middle" x="1025" y="-13.32" font-family="Helvetica,sans-Serif" font-size="14.00">(...)</text>
</g>
<!-- 14937&#45;&gt;15645 -->
<g id="edge23" class="edge">
<title>14937&#45;&gt;15645</title>
<path fill="none" stroke="black" d="M1014.36,-71.75C1016.04,-63.42 1017.74,-54.97 1019.28,-47.34"/>
<polygon fill="black" stroke="black" points="1022.69,-48.15 1021.24,-37.66 1015.83,-46.77 1022.69,-48.15"/>
</g>
<!-- 15867 -->
<g id="node26" class="node">
<title>15867</title>
<path fill="#f9e0ce" stroke="black" d="M1260,-166.25C1260,-166.25 1118,-166.25 1118,-166.25 1112,-166.25 1106,-160.25 1106,-154.25 1106,-154.25 1106,-84 1106,-84 1106,-78 1112,-72 1118,-72 1118,-72 1260,-72 1260,-72 1266,-72 1272,-78 1272,-84 1272,-84 1272,-154.25 1272,-154.25 1272,-160.25 1266,-166.25 1260,-166.25"/>
<text text-anchor="middle" x="1189" y="-148.95" font-family="Helvetica,sans-Serif" font-size="14.00">2_A &lt;= 0.5</text>
<text text-anchor="middle" x="1189" y="-131.7" font-family="Helvetica,sans-Serif" font-size="14.00">entropy = 0.986</text>
<text text-anchor="middle" x="1189" y="-114.45" font-family="Helvetica,sans-Serif" font-size="14.00">samples = 1579</text>
<text text-anchor="middle" x="1189" y="-97.2" font-family="Helvetica,sans-Serif" font-size="14.00">value = [1406, 1058]</text>
<text text-anchor="middle" x="1189" y="-79.95" font-family="Helvetica,sans-Serif" font-size="14.00">class = Animal</text>
</g>
<!-- 15866&#45;&gt;15867 -->
<g id="edge25" class="edge">
<title>15866&#45;&gt;15867</title>
<path fill="none" stroke="black" d="M1189,-202.07C1189,-194.17 1189,-185.88 1189,-177.73"/>
<polygon fill="black" stroke="black" points="1192.5,-177.87 1189,-167.87 1185.5,-177.87 1192.5,-177.87"/>
</g>
<!-- 16698 -->
<g id="node29" class="node">
<title>16698</title>
<path fill="#efb184" stroke="black" d="M1426,-166.25C1426,-166.25 1302,-166.25 1302,-166.25 1296,-166.25 1290,-160.25 1290,-154.25 1290,-154.25 1290,-84 1290,-84 1290,-78 1296,-72 1302,-72 1302,-72 1426,-72 1426,-72 1432,-72 1438,-78 1438,-84 1438,-84 1438,-154.25 1438,-154.25 1438,-160.25 1432,-166.25 1426,-166.25"/>
<text text-anchor="middle" x="1364" y="-148.95" font-family="Helvetica,sans-Serif" font-size="14.00">3_A &lt;= 0.5</text>
<text text-anchor="middle" x="1364" y="-131.7" font-family="Helvetica,sans-Serif" font-size="14.00">entropy = 0.849</text>
<text text-anchor="middle" x="1364" y="-114.45" font-family="Helvetica,sans-Serif" font-size="14.00">samples = 683</text>
<text text-anchor="middle" x="1364" y="-97.2" font-family="Helvetica,sans-Serif" font-size="14.00">value = [754, 286]</text>
<text text-anchor="middle" x="1364" y="-79.95" font-family="Helvetica,sans-Serif" font-size="14.00">class = Animal</text>
</g>
<!-- 15866&#45;&gt;16698 -->
<g id="edge28" class="edge">
<title>15866&#45;&gt;16698</title>
<path fill="none" stroke="black" d="M1252.18,-202.07C1264.99,-192.69 1278.55,-182.75 1291.64,-173.15"/>
<polygon fill="black" stroke="black" points="1293.4,-176.2 1299.4,-167.47 1289.26,-170.56 1293.4,-176.2"/>
</g>
<!-- 15868 -->
<g id="node27" class="node">
<title>15868</title>
<path fill="#c0c0c0" stroke="black" d="M1165,-36C1165,-36 1135,-36 1135,-36 1129,-36 1123,-30 1123,-24 1123,-24 1123,-12 1123,-12 1123,-6 1129,0 1135,0 1135,0 1165,0 1165,0 1171,0 1177,-6 1177,-12 1177,-12 1177,-24 1177,-24 1177,-30 1171,-36 1165,-36"/>
<text text-anchor="middle" x="1150" y="-13.32" font-family="Helvetica,sans-Serif" font-size="14.00">(...)</text>
</g>
<!-- 15867&#45;&gt;15868 -->
<g id="edge26" class="edge">
<title>15867&#45;&gt;15868</title>
<path fill="none" stroke="black" d="M1170.76,-71.75C1167.4,-63.22 1163.99,-54.57 1160.94,-46.8"/>
<polygon fill="black" stroke="black" points="1164.23,-45.61 1157.31,-37.58 1157.71,-48.17 1164.23,-45.61"/>
</g>
<!-- 16493 -->
<g id="node28" class="node">
<title>16493</title>
<path fill="#c0c0c0" stroke="black" d="M1237,-36C1237,-36 1207,-36 1207,-36 1201,-36 1195,-30 1195,-24 1195,-24 1195,-12 1195,-12 1195,-6 1201,0 1207,0 1207,0 1237,0 1237,0 1243,0 1249,-6 1249,-12 1249,-12 1249,-24 1249,-24 1249,-30 1243,-36 1237,-36"/>
<text text-anchor="middle" x="1222" y="-13.32" font-family="Helvetica,sans-Serif" font-size="14.00">(...)</text>
</g>
<!-- 15867&#45;&gt;16493 -->
<g id="edge27" class="edge">
<title>15867&#45;&gt;16493</title>
<path fill="none" stroke="black" d="M1204.44,-71.75C1207.24,-63.32 1210.09,-54.77 1212.66,-47.07"/>
<polygon fill="black" stroke="black" points="1215.97,-48.2 1215.8,-37.61 1209.33,-45.99 1215.97,-48.2"/>
</g>
<!-- 16699 -->
<g id="node30" class="node">
<title>16699</title>
<path fill="#c0c0c0" stroke="black" d="M1343,-36C1343,-36 1313,-36 1313,-36 1307,-36 1301,-30 1301,-24 1301,-24 1301,-12 1301,-12 1301,-6 1307,0 1313,0 1313,0 1343,0 1343,0 1349,0 1355,-6 1355,-12 1355,-12 1355,-24 1355,-24 1355,-30 1349,-36 1343,-36"/>
<text text-anchor="middle" x="1328" y="-13.32" font-family="Helvetica,sans-Serif" font-size="14.00">(...)</text>
</g>
<!-- 16698&#45;&gt;16699 -->
<g id="edge29" class="edge">
<title>16698&#45;&gt;16699</title>
<path fill="none" stroke="black" d="M1347.16,-71.75C1344.06,-63.22 1340.92,-54.57 1338.1,-46.8"/>
<polygon fill="black" stroke="black" points="1341.46,-45.8 1334.75,-37.6 1334.88,-48.19 1341.46,-45.8"/>
</g>
<!-- 16958 -->
<g id="node31" class="node">
<title>16958</title>
<path fill="#c0c0c0" stroke="black" d="M1415,-36C1415,-36 1385,-36 1385,-36 1379,-36 1373,-30 1373,-24 1373,-24 1373,-12 1373,-12 1373,-6 1379,0 1385,0 1385,0 1415,0 1415,0 1421,0 1427,-6 1427,-12 1427,-12 1427,-24 1427,-24 1427,-30 1421,-36 1415,-36"/>
<text text-anchor="middle" x="1400" y="-13.32" font-family="Helvetica,sans-Serif" font-size="14.00">(...)</text>
</g>
<!-- 16698&#45;&gt;16958 -->
<g id="edge30" class="edge">
<title>16698&#45;&gt;16958</title>
<path fill="none" stroke="black" d="M1380.84,-71.75C1383.94,-63.22 1387.08,-54.57 1389.9,-46.8"/>
<polygon fill="black" stroke="black" points="1393.12,-48.19 1393.25,-37.6 1386.54,-45.8 1393.12,-48.19"/>
</g>
</g>
</svg>
