<?xml version="1.0" encoding="UTF-8" standalone="no"?>
<!DOCTYPE svg PUBLIC "-//W3C//DTD SVG 1.1//EN"
 "http://www.w3.org/Graphics/SVG/1.1/DTD/svg11.dtd">
<!-- Generated by graphviz version 12.0.0 (20240803.0821)
 -->
<!-- Title: Tree Pages: 1 -->
<svg width="1382pt" height="565pt"
 viewBox="0.00 0.00 1382.00 565.00" xmlns="http://www.w3.org/2000/svg" xmlns:xlink="http://www.w3.org/1999/xlink">
<g id="graph0" class="graph" transform="scale(1 1) rotate(0) translate(4 561)">
<title>Tree</title>
<polygon fill="white" stroke="none" points="-4,4 -4,-561 1378,-561 1378,4 -4,4"/>
<!-- 0 -->
<g id="node1" class="node">
<title>0</title>
<path fill="#fffefe" stroke="black" d="M780,-557C780,-557 620,-557 620,-557 614,-557 608,-551 608,-545 608,-545 608,-474.75 608,-474.75 608,-468.75 614,-462.75 620,-462.75 620,-462.75 780,-462.75 780,-462.75 786,-462.75 792,-468.75 792,-474.75 792,-474.75 792,-545 792,-545 792,-551 786,-557 780,-557"/>
<text text-anchor="middle" x="700" y="-539.7" font-family="Helvetica,sans-Serif" font-size="14.00">22_C &lt;= 0.5</text>
<text text-anchor="middle" x="700" y="-522.45" font-family="Helvetica,sans-Serif" font-size="14.00">entropy = 1.0</text>
<text text-anchor="middle" x="700" y="-505.2" font-family="Helvetica,sans-Serif" font-size="14.00">samples = 38279</text>
<text text-anchor="middle" x="700" y="-487.95" font-family="Helvetica,sans-Serif" font-size="14.00">value = [30256, 30089]</text>
<text text-anchor="middle" x="700" y="-470.7" font-family="Helvetica,sans-Serif" font-size="14.00">class = Animal</text>
</g>
<!-- 1 -->
<g id="node2" class="node">
<title>1</title>
<path fill="#eef7fd" stroke="black" d="M619,-426.75C619,-426.75 459,-426.75 459,-426.75 453,-426.75 447,-420.75 447,-414.75 447,-414.75 447,-344.5 447,-344.5 447,-338.5 453,-332.5 459,-332.5 459,-332.5 619,-332.5 619,-332.5 625,-332.5 631,-338.5 631,-344.5 631,-344.5 631,-414.75 631,-414.75 631,-420.75 625,-426.75 619,-426.75"/>
<text text-anchor="middle" x="539" y="-409.45" font-family="Helvetica,sans-Serif" font-size="14.00">23_U &lt;= 0.5</text>
<text text-anchor="middle" x="539" y="-392.2" font-family="Helvetica,sans-Serif" font-size="14.00">entropy = 0.999</text>
<text text-anchor="middle" x="539" y="-374.95" font-family="Helvetica,sans-Serif" font-size="14.00">samples = 34534</text>
<text text-anchor="middle" x="539" y="-357.7" font-family="Helvetica,sans-Serif" font-size="14.00">value = [26003, 28367]</text>
<text text-anchor="middle" x="539" y="-340.45" font-family="Helvetica,sans-Serif" font-size="14.00">class = Plant</text>
</g>
<!-- 0&#45;&gt;1 -->
<g id="edge1" class="edge">
<title>0&#45;&gt;1</title>
<path fill="none" stroke="black" d="M641.88,-462.57C630.32,-453.37 618.1,-443.63 606.26,-434.21"/>
<polygon fill="black" stroke="black" points="608.5,-431.51 598.49,-428.02 604.13,-436.98 608.5,-431.51"/>
<text text-anchor="middle" x="600.12" y="-447.24" font-family="Helvetica,sans-Serif" font-size="14.00">True</text>
</g>
<!-- 15006 -->
<g id="node17" class="node">
<title>15006</title>
<path fill="#f0b489" stroke="black" d="M946,-426.75C946,-426.75 804,-426.75 804,-426.75 798,-426.75 792,-420.75 792,-414.75 792,-414.75 792,-344.5 792,-344.5 792,-338.5 798,-332.5 804,-332.5 804,-332.5 946,-332.5 946,-332.5 952,-332.5 958,-338.5 958,-344.5 958,-344.5 958,-414.75 958,-414.75 958,-420.75 952,-426.75 946,-426.75"/>
<text text-anchor="middle" x="875" y="-409.45" font-family="Helvetica,sans-Serif" font-size="14.00">20_A &lt;= 0.5</text>
<text text-anchor="middle" x="875" y="-392.2" font-family="Helvetica,sans-Serif" font-size="14.00">entropy = 0.866</text>
<text text-anchor="middle" x="875" y="-374.95" font-family="Helvetica,sans-Serif" font-size="14.00">samples = 3745</text>
<text text-anchor="middle" x="875" y="-357.7" font-family="Helvetica,sans-Serif" font-size="14.00">value = [4253, 1722]</text>
<text text-anchor="middle" x="875" y="-340.45" font-family="Helvetica,sans-Serif" font-size="14.00">class = Animal</text>
</g>
<!-- 0&#45;&gt;15006 -->
<g id="edge16" class="edge">
<title>0&#45;&gt;15006</title>
<path fill="none" stroke="black" d="M763.18,-462.57C775.99,-453.19 789.55,-443.25 802.64,-433.65"/>
<polygon fill="black" stroke="black" points="804.4,-436.7 810.4,-427.97 800.26,-431.06 804.4,-436.7"/>
<text text-anchor="middle" x="807.81" y="-447.11" font-family="Helvetica,sans-Serif" font-size="14.00">False</text>
</g>
<!-- 2 -->
<g id="node3" class="node">
<title>2</title>
<path fill="#e4f2fb" stroke="black" d="M365,-296.5C365,-296.5 205,-296.5 205,-296.5 199,-296.5 193,-290.5 193,-284.5 193,-284.5 193,-214.25 193,-214.25 193,-208.25 199,-202.25 205,-202.25 205,-202.25 365,-202.25 365,-202.25 371,-202.25 377,-208.25 377,-214.25 377,-214.25 377,-284.5 377,-284.5 377,-290.5 371,-296.5 365,-296.5"/>
<text text-anchor="middle" x="285" y="-279.2" font-family="Helvetica,sans-Serif" font-size="14.00">1_A &lt;= 0.5</text>
<text text-anchor="middle" x="285" y="-261.95" font-family="Helvetica,sans-Serif" font-size="14.00">entropy = 0.996</text>
<text text-anchor="middle" x="285" y="-244.7" font-family="Helvetica,sans-Serif" font-size="14.00">samples = 33095</text>
<text text-anchor="middle" x="285" y="-227.45" font-family="Helvetica,sans-Serif" font-size="14.00">value = [24131, 27953]</text>
<text text-anchor="middle" x="285" y="-210.2" font-family="Helvetica,sans-Serif" font-size="14.00">class = Plant</text>
</g>
<!-- 1&#45;&gt;2 -->
<g id="edge2" class="edge">
<title>1&#45;&gt;2</title>
<path fill="none" stroke="black" d="M446.94,-332.14C427.6,-322.38 407.08,-312.02 387.39,-302.07"/>
<polygon fill="black" stroke="black" points="389.03,-298.98 378.52,-297.6 385.87,-305.23 389.03,-298.98"/>
</g>
<!-- 14407 -->
<g id="node10" class="node">
<title>14407</title>
<path fill="#eb9d65" stroke="black" d="M605.5,-296.5C605.5,-296.5 472.5,-296.5 472.5,-296.5 466.5,-296.5 460.5,-290.5 460.5,-284.5 460.5,-284.5 460.5,-214.25 460.5,-214.25 460.5,-208.25 466.5,-202.25 472.5,-202.25 472.5,-202.25 605.5,-202.25 605.5,-202.25 611.5,-202.25 617.5,-208.25 617.5,-214.25 617.5,-214.25 617.5,-284.5 617.5,-284.5 617.5,-290.5 611.5,-296.5 605.5,-296.5"/>
<text text-anchor="middle" x="539" y="-279.2" font-family="Helvetica,sans-Serif" font-size="14.00">17_U &lt;= 0.5</text>
<text text-anchor="middle" x="539" y="-261.95" font-family="Helvetica,sans-Serif" font-size="14.00">entropy = 0.682</text>
<text text-anchor="middle" x="539" y="-244.7" font-family="Helvetica,sans-Serif" font-size="14.00">samples = 1439</text>
<text text-anchor="middle" x="539" y="-227.45" font-family="Helvetica,sans-Serif" font-size="14.00">value = [1872, 414]</text>
<text text-anchor="middle" x="539" y="-210.2" font-family="Helvetica,sans-Serif" font-size="14.00">class = Animal</text>
</g>
<!-- 1&#45;&gt;14407 -->
<g id="edge9" class="edge">
<title>1&#45;&gt;14407</title>
<path fill="none" stroke="black" d="M539,-332.32C539,-324.42 539,-316.13 539,-307.98"/>
<polygon fill="black" stroke="black" points="542.5,-308.12 539,-298.12 535.5,-308.12 542.5,-308.12"/>
</g>
<!-- 3 -->
<g id="node4" class="node">
<title>3</title>
<path fill="#cfe7f9" stroke="black" d="M172,-166.25C172,-166.25 12,-166.25 12,-166.25 6,-166.25 0,-160.25 0,-154.25 0,-154.25 0,-84 0,-84 0,-78 6,-72 12,-72 12,-72 172,-72 172,-72 178,-72 184,-78 184,-84 184,-84 184,-154.25 184,-154.25 184,-160.25 178,-166.25 172,-166.25"/>
<text text-anchor="middle" x="92" y="-148.95" font-family="Helvetica,sans-Serif" font-size="14.00">2_G &lt;= 0.5</text>
<text text-anchor="middle" x="92" y="-131.7" font-family="Helvetica,sans-Serif" font-size="14.00">entropy = 0.986</text>
<text text-anchor="middle" x="92" y="-114.45" font-family="Helvetica,sans-Serif" font-size="14.00">samples = 26397</text>
<text text-anchor="middle" x="92" y="-97.2" font-family="Helvetica,sans-Serif" font-size="14.00">value = [17940, 23661]</text>
<text text-anchor="middle" x="92" y="-79.95" font-family="Helvetica,sans-Serif" font-size="14.00">class = Plant</text>
</g>
<!-- 2&#45;&gt;3 -->
<g id="edge3" class="edge">
<title>2&#45;&gt;3</title>
<path fill="none" stroke="black" d="M215.05,-201.89C200.89,-192.48 185.9,-182.53 171.45,-172.92"/>
<polygon fill="black" stroke="black" points="173.56,-170.12 163.3,-167.5 169.69,-175.95 173.56,-170.12"/>
</g>
<!-- 11106 -->
<g id="node7" class="node">
<title>11106</title>
<path fill="#f7d8c2" stroke="black" d="M356,-166.25C356,-166.25 214,-166.25 214,-166.25 208,-166.25 202,-160.25 202,-154.25 202,-154.25 202,-84 202,-84 202,-78 208,-72 214,-72 214,-72 356,-72 356,-72 362,-72 368,-78 368,-84 368,-84 368,-154.25 368,-154.25 368,-160.25 362,-166.25 356,-166.25"/>
<text text-anchor="middle" x="285" y="-148.95" font-family="Helvetica,sans-Serif" font-size="14.00">22_U &lt;= 0.5</text>
<text text-anchor="middle" x="285" y="-131.7" font-family="Helvetica,sans-Serif" font-size="14.00">entropy = 0.976</text>
<text text-anchor="middle" x="285" y="-114.45" font-family="Helvetica,sans-Serif" font-size="14.00">samples = 6698</text>
<text text-anchor="middle" x="285" y="-97.2" font-family="Helvetica,sans-Serif" font-size="14.00">value = [6191, 4292]</text>
<text text-anchor="middle" x="285" y="-79.95" font-family="Helvetica,sans-Serif" font-size="14.00">class = Animal</text>
</g>
<!-- 2&#45;&gt;11106 -->
<g id="edge6" class="edge">
<title>2&#45;&gt;11106</title>
<path fill="none" stroke="black" d="M285,-202.07C285,-194.17 285,-185.88 285,-177.73"/>
<polygon fill="black" stroke="black" points="288.5,-177.87 285,-167.87 281.5,-177.87 288.5,-177.87"/>
</g>
<!-- 4 -->
<g id="node5" class="node">
<title>4</title>
<path fill="#c0c0c0" stroke="black" d="M71,-36C71,-36 41,-36 41,-36 35,-36 29,-30 29,-24 29,-24 29,-12 29,-12 29,-6 35,0 41,0 41,0 71,0 71,0 77,0 83,-6 83,-12 83,-12 83,-24 83,-24 83,-30 77,-36 71,-36"/>
<text text-anchor="middle" x="56" y="-13.32" font-family="Helvetica,sans-Serif" font-size="14.00">(...)</text>
</g>
<!-- 3&#45;&gt;4 -->
<g id="edge4" class="edge">
<title>3&#45;&gt;4</title>
<path fill="none" stroke="black" d="M75.16,-71.75C72.06,-63.22 68.92,-54.57 66.1,-46.8"/>
<polygon fill="black" stroke="black" points="69.46,-45.8 62.75,-37.6 62.88,-48.19 69.46,-45.8"/>
</g>
<!-- 8041 -->
<g id="node6" class="node">
<title>8041</title>
<path fill="#c0c0c0" stroke="black" d="M143,-36C143,-36 113,-36 113,-36 107,-36 101,-30 101,-24 101,-24 101,-12 101,-12 101,-6 107,0 113,0 113,0 143,0 143,0 149,0 155,-6 155,-12 155,-12 155,-24 155,-24 155,-30 149,-36 143,-36"/>
<text text-anchor="middle" x="128" y="-13.32" font-family="Helvetica,sans-Serif" font-size="14.00">(...)</text>
</g>
<!-- 3&#45;&gt;8041 -->
<g id="edge5" class="edge">
<title>3&#45;&gt;8041</title>
<path fill="none" stroke="black" d="M108.84,-71.75C111.94,-63.22 115.08,-54.57 117.9,-46.8"/>
<polygon fill="black" stroke="black" points="121.12,-48.19 121.25,-37.6 114.54,-45.8 121.12,-48.19"/>
</g>
<!-- 11107 -->
<g id="node8" class="node">
<title>11107</title>
<path fill="#c0c0c0" stroke="black" d="M257,-36C257,-36 227,-36 227,-36 221,-36 215,-30 215,-24 215,-24 215,-12 215,-12 215,-6 221,0 227,0 227,0 257,0 257,0 263,0 269,-6 269,-12 269,-12 269,-24 269,-24 269,-30 263,-36 257,-36"/>
<text text-anchor="middle" x="242" y="-13.32" font-family="Helvetica,sans-Serif" font-size="14.00">(...)</text>
</g>
<!-- 11106&#45;&gt;11107 -->
<g id="edge7" class="edge">
<title>11106&#45;&gt;11107</title>
<path fill="none" stroke="black" d="M264.88,-71.75C261.14,-63.12 257.34,-54.36 253.94,-46.53"/>
<polygon fill="black" stroke="black" points="257.24,-45.34 250.05,-37.56 250.82,-48.13 257.24,-45.34"/>
</g>
<!-- 14038 -->
<g id="node9" class="node">
<title>14038</title>
<path fill="#c0c0c0" stroke="black" d="M329,-36C329,-36 299,-36 299,-36 293,-36 287,-30 287,-24 287,-24 287,-12 287,-12 287,-6 293,0 299,0 299,0 329,0 329,0 335,0 341,-6 341,-12 341,-12 341,-24 341,-24 341,-30 335,-36 329,-36"/>
<text text-anchor="middle" x="314" y="-13.32" font-family="Helvetica,sans-Serif" font-size="14.00">(...)</text>
</g>
<!-- 11106&#45;&gt;14038 -->
<g id="edge8" class="edge">
<title>11106&#45;&gt;14038</title>
<path fill="none" stroke="black" d="M298.57,-71.75C301.03,-63.32 303.54,-54.77 305.79,-47.07"/>
<polygon fill="black" stroke="black" points="309.1,-48.21 308.55,-37.63 302.38,-46.24 309.1,-48.21"/>
</g>
<!-- 14408 -->
<g id="node11" class="node">
<title>14408</title>
<path fill="#eda672" stroke="black" d="M531.5,-166.25C531.5,-166.25 398.5,-166.25 398.5,-166.25 392.5,-166.25 386.5,-160.25 386.5,-154.25 386.5,-154.25 386.5,-84 386.5,-84 386.5,-78 392.5,-72 398.5,-72 398.5,-72 531.5,-72 531.5,-72 537.5,-72 543.5,-78 543.5,-84 543.5,-84 543.5,-154.25 543.5,-154.25 543.5,-160.25 537.5,-166.25 531.5,-166.25"/>
<text text-anchor="middle" x="465" y="-148.95" font-family="Helvetica,sans-Serif" font-size="14.00">1_G &lt;= 0.5</text>
<text text-anchor="middle" x="465" y="-131.7" font-family="Helvetica,sans-Serif" font-size="14.00">entropy = 0.769</text>
<text text-anchor="middle" x="465" y="-114.45" font-family="Helvetica,sans-Serif" font-size="14.00">samples = 984</text>
<text text-anchor="middle" x="465" y="-97.2" font-family="Helvetica,sans-Serif" font-size="14.00">value = [1202, 349]</text>
<text text-anchor="middle" x="465" y="-79.95" font-family="Helvetica,sans-Serif" font-size="14.00">class = Animal</text>
</g>
<!-- 14407&#45;&gt;14408 -->
<g id="edge10" class="edge">
<title>14407&#45;&gt;14408</title>
<path fill="none" stroke="black" d="M512.28,-202.07C507.46,-193.72 502.39,-184.93 497.43,-176.33"/>
<polygon fill="black" stroke="black" points="500.46,-174.58 492.43,-167.67 494.4,-178.08 500.46,-174.58"/>
</g>
<!-- 14879 -->
<g id="node14" class="node">
<title>14879</title>
<path fill="#e88d4c" stroke="black" d="M688.5,-166.25C688.5,-166.25 573.5,-166.25 573.5,-166.25 567.5,-166.25 561.5,-160.25 561.5,-154.25 561.5,-154.25 561.5,-84 561.5,-84 561.5,-78 567.5,-72 573.5,-72 573.5,-72 688.5,-72 688.5,-72 694.5,-72 700.5,-78 700.5,-84 700.5,-84 700.5,-154.25 700.5,-154.25 700.5,-160.25 694.5,-166.25 688.5,-166.25"/>
<text text-anchor="middle" x="631" y="-148.95" font-family="Helvetica,sans-Serif" font-size="14.00">14_U &lt;= 0.5</text>
<text text-anchor="middle" x="631" y="-131.7" font-family="Helvetica,sans-Serif" font-size="14.00">entropy = 0.431</text>
<text text-anchor="middle" x="631" y="-114.45" font-family="Helvetica,sans-Serif" font-size="14.00">samples = 455</text>
<text text-anchor="middle" x="631" y="-97.2" font-family="Helvetica,sans-Serif" font-size="14.00">value = [670, 65]</text>
<text text-anchor="middle" x="631" y="-79.95" font-family="Helvetica,sans-Serif" font-size="14.00">class = Animal</text>
</g>
<!-- 14407&#45;&gt;14879 -->
<g id="edge13" class="edge">
<title>14407&#45;&gt;14879</title>
<path fill="none" stroke="black" d="M572.21,-202.07C578.4,-193.45 584.93,-184.35 591.29,-175.49"/>
<polygon fill="black" stroke="black" points="593.97,-177.75 596.95,-167.59 588.28,-173.67 593.97,-177.75"/>
</g>
<!-- 14409 -->
<g id="node12" class="node">
<title>14409</title>
<path fill="#c0c0c0" stroke="black" d="M419,-36C419,-36 389,-36 389,-36 383,-36 377,-30 377,-24 377,-24 377,-12 377,-12 377,-6 383,0 389,0 389,0 419,0 419,0 425,0 431,-6 431,-12 431,-12 431,-24 431,-24 431,-30 425,-36 419,-36"/>
<text text-anchor="middle" x="404" y="-13.32" font-family="Helvetica,sans-Serif" font-size="14.00">(...)</text>
</g>
<!-- 14408&#45;&gt;14409 -->
<g id="edge11" class="edge">
<title>14408&#45;&gt;14409</title>
<path fill="none" stroke="black" d="M436.46,-71.75C430.97,-62.83 425.39,-53.76 420.44,-45.72"/>
<polygon fill="black" stroke="black" points="423.58,-44.14 415.36,-37.46 417.62,-47.81 423.58,-44.14"/>
</g>
<!-- 14812 -->
<g id="node13" class="node">
<title>14812</title>
<path fill="#c0c0c0" stroke="black" d="M491,-36C491,-36 461,-36 461,-36 455,-36 449,-30 449,-24 449,-24 449,-12 449,-12 449,-6 455,0 461,0 461,0 491,0 491,0 497,0 503,-6 503,-12 503,-12 503,-24 503,-24 503,-30 497,-36 491,-36"/>
<text text-anchor="middle" x="476" y="-13.32" font-family="Helvetica,sans-Serif" font-size="14.00">(...)</text>
</g>
<!-- 14408&#45;&gt;14812 -->
<g id="edge12" class="edge">
<title>14408&#45;&gt;14812</title>
<path fill="none" stroke="black" d="M470.15,-71.75C471.06,-63.52 471.99,-55.17 472.82,-47.61"/>
<polygon fill="black" stroke="black" points="476.3,-48 473.93,-37.68 469.35,-47.23 476.3,-48"/>
</g>
<!-- 14880 -->
<g id="node15" class="node">
<title>14880</title>
<path fill="#c0c0c0" stroke="black" d="M585,-36C585,-36 555,-36 555,-36 549,-36 543,-30 543,-24 543,-24 543,-12 543,-12 543,-6 549,0 555,0 555,0 585,0 585,0 591,0 597,-6 597,-12 597,-12 597,-24 597,-24 597,-30 591,-36 585,-36"/>
<text text-anchor="middle" x="570" y="-13.32" font-family="Helvetica,sans-Serif" font-size="14.00">(...)</text>
</g>
<!-- 14879&#45;&gt;14880 -->
<g id="edge14" class="edge">
<title>14879&#45;&gt;14880</title>
<path fill="none" stroke="black" d="M602.46,-71.75C596.97,-62.83 591.39,-53.76 586.44,-45.72"/>
<polygon fill="black" stroke="black" points="589.58,-44.14 581.36,-37.46 583.62,-47.81 589.58,-44.14"/>
</g>
<!-- 14985 -->
<g id="node16" class="node">
<title>14985</title>
<path fill="#c0c0c0" stroke="black" d="M657,-36C657,-36 627,-36 627,-36 621,-36 615,-30 615,-24 615,-24 615,-12 615,-12 615,-6 621,0 627,0 627,0 657,0 657,0 663,0 669,-6 669,-12 669,-12 669,-24 669,-24 669,-30 663,-36 657,-36"/>
<text text-anchor="middle" x="642" y="-13.32" font-family="Helvetica,sans-Serif" font-size="14.00">(...)</text>
</g>
<!-- 14879&#45;&gt;14985 -->
<g id="edge15" class="edge">
<title>14879&#45;&gt;14985</title>
<path fill="none" stroke="black" d="M636.15,-71.75C637.06,-63.52 637.99,-55.17 638.82,-47.61"/>
<polygon fill="black" stroke="black" points="642.3,-48 639.93,-37.68 635.35,-47.23 642.3,-48"/>
</g>
<!-- 15007 -->
<g id="node18" class="node">
<title>15007</title>
<path fill="#eeaf81" stroke="black" d="M946,-296.5C946,-296.5 804,-296.5 804,-296.5 798,-296.5 792,-290.5 792,-284.5 792,-284.5 792,-214.25 792,-214.25 792,-208.25 798,-202.25 804,-202.25 804,-202.25 946,-202.25 946,-202.25 952,-202.25 958,-208.25 958,-214.25 958,-214.25 958,-284.5 958,-284.5 958,-290.5 952,-296.5 946,-296.5"/>
<text text-anchor="middle" x="875" y="-279.2" font-family="Helvetica,sans-Serif" font-size="14.00">14_C &lt;= 0.5</text>
<text text-anchor="middle" x="875" y="-261.95" font-family="Helvetica,sans-Serif" font-size="14.00">entropy = 0.836</text>
<text text-anchor="middle" x="875" y="-244.7" font-family="Helvetica,sans-Serif" font-size="14.00">samples = 2770</text>
<text text-anchor="middle" x="875" y="-227.45" font-family="Helvetica,sans-Serif" font-size="14.00">value = [3236, 1174]</text>
<text text-anchor="middle" x="875" y="-210.2" font-family="Helvetica,sans-Serif" font-size="14.00">class = Animal</text>
</g>
<!-- 15006&#45;&gt;15007 -->
<g id="edge17" class="edge">
<title>15006&#45;&gt;15007</title>
<path fill="none" stroke="black" d="M875,-332.32C875,-324.42 875,-316.13 875,-307.98"/>
<polygon fill="black" stroke="black" points="878.5,-308.12 875,-298.12 871.5,-308.12 878.5,-308.12"/>
</g>
<!-- 16398 -->
<g id="node25" class="node">
<title>16398</title>
<path fill="#f3c5a4" stroke="black" d="M1200.5,-296.5C1200.5,-296.5 1067.5,-296.5 1067.5,-296.5 1061.5,-296.5 1055.5,-290.5 1055.5,-284.5 1055.5,-284.5 1055.5,-214.25 1055.5,-214.25 1055.5,-208.25 1061.5,-202.25 1067.5,-202.25 1067.5,-202.25 1200.5,-202.25 1200.5,-202.25 1206.5,-202.25 1212.5,-208.25 1212.5,-214.25 1212.5,-214.25 1212.5,-284.5 1212.5,-284.5 1212.5,-290.5 1206.5,-296.5 1200.5,-296.5"/>
<text text-anchor="middle" x="1134" y="-279.2" font-family="Helvetica,sans-Serif" font-size="14.00">8_G &lt;= 0.5</text>
<text text-anchor="middle" x="1134" y="-261.95" font-family="Helvetica,sans-Serif" font-size="14.00">entropy = 0.934</text>
<text text-anchor="middle" x="1134" y="-244.7" font-family="Helvetica,sans-Serif" font-size="14.00">samples = 975</text>
<text text-anchor="middle" x="1134" y="-227.45" font-family="Helvetica,sans-Serif" font-size="14.00">value = [1017, 548]</text>
<text text-anchor="middle" x="1134" y="-210.2" font-family="Helvetica,sans-Serif" font-size="14.00">class = Animal</text>
</g>
<!-- 15006&#45;&gt;16398 -->
<g id="edge24" class="edge">
<title>15006&#45;&gt;16398</title>
<path fill="none" stroke="black" d="M958.37,-337.34C986.03,-323.64 1016.92,-308.35 1044.99,-294.45"/>
<polygon fill="black" stroke="black" points="1046.42,-297.65 1053.83,-290.07 1043.32,-291.37 1046.42,-297.65"/>
</g>
<!-- 15008 -->
<g id="node19" class="node">
<title>15008</title>
<path fill="#eda876" stroke="black" d="M863.5,-166.25C863.5,-166.25 730.5,-166.25 730.5,-166.25 724.5,-166.25 718.5,-160.25 718.5,-154.25 718.5,-154.25 718.5,-84 718.5,-84 718.5,-78 724.5,-72 730.5,-72 730.5,-72 863.5,-72 863.5,-72 869.5,-72 875.5,-78 875.5,-84 875.5,-84 875.5,-154.25 875.5,-154.25 875.5,-160.25 869.5,-166.25 863.5,-166.25"/>
<text text-anchor="middle" x="797" y="-148.95" font-family="Helvetica,sans-Serif" font-size="14.00">11_C &lt;= 0.5</text>
<text text-anchor="middle" x="797" y="-131.7" font-family="Helvetica,sans-Serif" font-size="14.00">entropy = 0.787</text>
<text text-anchor="middle" x="797" y="-114.45" font-family="Helvetica,sans-Serif" font-size="14.00">samples = 2138</text>
<text text-anchor="middle" x="797" y="-97.2" font-family="Helvetica,sans-Serif" font-size="14.00">value = [2600, 800]</text>
<text text-anchor="middle" x="797" y="-79.95" font-family="Helvetica,sans-Serif" font-size="14.00">class = Animal</text>
</g>
<!-- 15007&#45;&gt;15008 -->
<g id="edge18" class="edge">
<title>15007&#45;&gt;15008</title>
<path fill="none" stroke="black" d="M846.84,-202.07C841.7,-193.63 836.3,-184.74 831.01,-176.05"/>
<polygon fill="black" stroke="black" points="834.09,-174.38 825.9,-167.65 828.11,-178.01 834.09,-174.38"/>
</g>
<!-- 16083 -->
<g id="node22" class="node">
<title>16083</title>
<path fill="#f4cbad" stroke="black" d="M1030,-166.25C1030,-166.25 906,-166.25 906,-166.25 900,-166.25 894,-160.25 894,-154.25 894,-154.25 894,-84 894,-84 894,-78 900,-72 906,-72 906,-72 1030,-72 1030,-72 1036,-72 1042,-78 1042,-84 1042,-84 1042,-154.25 1042,-154.25 1042,-160.25 1036,-166.25 1030,-166.25"/>
<text text-anchor="middle" x="968" y="-148.95" font-family="Helvetica,sans-Serif" font-size="14.00">9_G &lt;= 0.5</text>
<text text-anchor="middle" x="968" y="-131.7" font-family="Helvetica,sans-Serif" font-size="14.00">entropy = 0.951</text>
<text text-anchor="middle" x="968" y="-114.45" font-family="Helvetica,sans-Serif" font-size="14.00">samples = 632</text>
<text text-anchor="middle" x="968" y="-97.2" font-family="Helvetica,sans-Serif" font-size="14.00">value = [636, 374]</text>
<text text-anchor="middle" x="968" y="-79.95" font-family="Helvetica,sans-Serif" font-size="14.00">class = Animal</text>
</g>
<!-- 15007&#45;&gt;16083 -->
<g id="edge21" class="edge">
<title>15007&#45;&gt;16083</title>
<path fill="none" stroke="black" d="M908.58,-202.07C914.83,-193.45 921.43,-184.35 927.85,-175.49"/>
<polygon fill="black" stroke="black" points="930.55,-177.73 933.59,-167.58 924.88,-173.62 930.55,-177.73"/>
</g>
<!-- 15009 -->
<g id="node20" class="node">
<title>15009</title>
<path fill="#c0c0c0" stroke="black" d="M753,-36C753,-36 723,-36 723,-36 717,-36 711,-30 711,-24 711,-24 711,-12 711,-12 711,-6 717,0 723,0 723,0 753,0 753,0 759,0 765,-6 765,-12 765,-12 765,-24 765,-24 765,-30 759,-36 753,-36"/>
<text text-anchor="middle" x="738" y="-13.32" font-family="Helvetica,sans-Serif" font-size="14.00">(...)</text>
</g>
<!-- 15008&#45;&gt;15009 -->
<g id="edge19" class="edge">
<title>15008&#45;&gt;15009</title>
<path fill="none" stroke="black" d="M769.4,-71.75C764.15,-62.93 758.81,-53.96 754.06,-45.99"/>
<polygon fill="black" stroke="black" points="757.12,-44.28 749,-37.47 751.1,-47.86 757.12,-44.28"/>
</g>
<!-- 15870 -->
<g id="node21" class="node">
<title>15870</title>
<path fill="#c0c0c0" stroke="black" d="M825,-36C825,-36 795,-36 795,-36 789,-36 783,-30 783,-24 783,-24 783,-12 783,-12 783,-6 789,0 795,0 795,0 825,0 825,0 831,0 837,-6 837,-12 837,-12 837,-24 837,-24 837,-30 831,-36 825,-36"/>
<text text-anchor="middle" x="810" y="-13.32" font-family="Helvetica,sans-Serif" font-size="14.00">(...)</text>
</g>
<!-- 15008&#45;&gt;15870 -->
<g id="edge20" class="edge">
<title>15008&#45;&gt;15870</title>
<path fill="none" stroke="black" d="M803.08,-71.75C804.17,-63.42 805.28,-54.97 806.28,-47.34"/>
<polygon fill="black" stroke="black" points="809.72,-48.04 807.55,-37.67 802.78,-47.13 809.72,-48.04"/>
</g>
<!-- 16084 -->
<g id="node23" class="node">
<title>16084</title>
<path fill="#c0c0c0" stroke="black" d="M922,-36C922,-36 892,-36 892,-36 886,-36 880,-30 880,-24 880,-24 880,-12 880,-12 880,-6 886,0 892,0 892,0 922,0 922,0 928,0 934,-6 934,-12 934,-12 934,-24 934,-24 934,-30 928,-36 922,-36"/>
<text text-anchor="middle" x="907" y="-13.32" font-family="Helvetica,sans-Serif" font-size="14.00">(...)</text>
</g>
<!-- 16083&#45;&gt;16084 -->
<g id="edge22" class="edge">
<title>16083&#45;&gt;16084</title>
<path fill="none" stroke="black" d="M939.46,-71.75C933.97,-62.83 928.39,-53.76 923.44,-45.72"/>
<polygon fill="black" stroke="black" points="926.58,-44.14 918.36,-37.46 920.62,-47.81 926.58,-44.14"/>
</g>
<!-- 16311 -->
<g id="node24" class="node">
<title>16311</title>
<path fill="#c0c0c0" stroke="black" d="M994,-36C994,-36 964,-36 964,-36 958,-36 952,-30 952,-24 952,-24 952,-12 952,-12 952,-6 958,0 964,0 964,0 994,0 994,0 1000,0 1006,-6 1006,-12 1006,-12 1006,-24 1006,-24 1006,-30 1000,-36 994,-36"/>
<text text-anchor="middle" x="979" y="-13.32" font-family="Helvetica,sans-Serif" font-size="14.00">(...)</text>
</g>
<!-- 16083&#45;&gt;16311 -->
<g id="edge23" class="edge">
<title>16083&#45;&gt;16311</title>
<path fill="none" stroke="black" d="M973.15,-71.75C974.06,-63.52 974.99,-55.17 975.82,-47.61"/>
<polygon fill="black" stroke="black" points="979.3,-48 976.93,-37.68 972.35,-47.23 979.3,-48"/>
</g>
<!-- 16399 -->
<g id="node26" class="node">
<title>16399</title>
<path fill="#f2bf9b" stroke="black" d="M1196,-166.25C1196,-166.25 1072,-166.25 1072,-166.25 1066,-166.25 1060,-160.25 1060,-154.25 1060,-154.25 1060,-84 1060,-84 1060,-78 1066,-72 1072,-72 1072,-72 1196,-72 1196,-72 1202,-72 1208,-78 1208,-84 1208,-84 1208,-154.25 1208,-154.25 1208,-160.25 1202,-166.25 1196,-166.25"/>
<text text-anchor="middle" x="1134" y="-148.95" font-family="Helvetica,sans-Serif" font-size="14.00">18_G &lt;= 0.5</text>
<text text-anchor="middle" x="1134" y="-131.7" font-family="Helvetica,sans-Serif" font-size="14.00">entropy = 0.916</text>
<text text-anchor="middle" x="1134" y="-114.45" font-family="Helvetica,sans-Serif" font-size="14.00">samples = 680</text>
<text text-anchor="middle" x="1134" y="-97.2" font-family="Helvetica,sans-Serif" font-size="14.00">value = [743, 367]</text>
<text text-anchor="middle" x="1134" y="-79.95" font-family="Helvetica,sans-Serif" font-size="14.00">class = Animal</text>
</g>
<!-- 16398&#45;&gt;16399 -->
<g id="edge25" class="edge">
<title>16398&#45;&gt;16399</title>
<path fill="none" stroke="black" d="M1134,-202.07C1134,-194.17 1134,-185.88 1134,-177.73"/>
<polygon fill="black" stroke="black" points="1137.5,-177.87 1134,-167.87 1130.5,-177.87 1137.5,-177.87"/>
</g>
<!-- 16752 -->
<g id="node29" class="node">
<title>16752</title>
<path fill="#f6d4bc" stroke="black" d="M1362,-166.25C1362,-166.25 1238,-166.25 1238,-166.25 1232,-166.25 1226,-160.25 1226,-154.25 1226,-154.25 1226,-84 1226,-84 1226,-78 1232,-72 1238,-72 1238,-72 1362,-72 1362,-72 1368,-72 1374,-78 1374,-84 1374,-84 1374,-154.25 1374,-154.25 1374,-160.25 1368,-166.25 1362,-166.25"/>
<text text-anchor="middle" x="1300" y="-148.95" font-family="Helvetica,sans-Serif" font-size="14.00">25_G &lt;= 0.5</text>
<text text-anchor="middle" x="1300" y="-131.7" font-family="Helvetica,sans-Serif" font-size="14.00">entropy = 0.97</text>
<text text-anchor="middle" x="1300" y="-114.45" font-family="Helvetica,sans-Serif" font-size="14.00">samples = 295</text>
<text text-anchor="middle" x="1300" y="-97.2" font-family="Helvetica,sans-Serif" font-size="14.00">value = [274, 181]</text>
<text text-anchor="middle" x="1300" y="-79.95" font-family="Helvetica,sans-Serif" font-size="14.00">class = Animal</text>
</g>
<!-- 16398&#45;&gt;16752 -->
<g id="edge28" class="edge">
<title>16398&#45;&gt;16752</title>
<path fill="none" stroke="black" d="M1193.93,-202.07C1205.96,-192.78 1218.7,-182.94 1231.01,-173.43"/>
<polygon fill="black" stroke="black" points="1232.91,-176.38 1238.68,-167.5 1228.63,-170.84 1232.91,-176.38"/>
</g>
<!-- 16400 -->
<g id="node27" class="node">
<title>16400</title>
<path fill="#c0c0c0" stroke="black" d="M1106,-36C1106,-36 1076,-36 1076,-36 1070,-36 1064,-30 1064,-24 1064,-24 1064,-12 1064,-12 1064,-6 1070,0 1076,0 1076,0 1106,0 1106,0 1112,0 1118,-6 1118,-12 1118,-12 1118,-24 1118,-24 1118,-30 1112,-36 1106,-36"/>
<text text-anchor="middle" x="1091" y="-13.32" font-family="Helvetica,sans-Serif" font-size="14.00">(...)</text>
</g>
<!-- 16399&#45;&gt;16400 -->
<g id="edge26" class="edge">
<title>16399&#45;&gt;16400</title>
<path fill="none" stroke="black" d="M1113.88,-71.75C1110.14,-63.12 1106.34,-54.36 1102.94,-46.53"/>
<polygon fill="black" stroke="black" points="1106.24,-45.34 1099.05,-37.56 1099.82,-48.13 1106.24,-45.34"/>
</g>
<!-- 16627 -->
<g id="node28" class="node">
<title>16627</title>
<path fill="#c0c0c0" stroke="black" d="M1178,-36C1178,-36 1148,-36 1148,-36 1142,-36 1136,-30 1136,-24 1136,-24 1136,-12 1136,-12 1136,-6 1142,0 1148,0 1148,0 1178,0 1178,0 1184,0 1190,-6 1190,-12 1190,-12 1190,-24 1190,-24 1190,-30 1184,-36 1178,-36"/>
<text text-anchor="middle" x="1163" y="-13.32" font-family="Helvetica,sans-Serif" font-size="14.00">(...)</text>
</g>
<!-- 16399&#45;&gt;16627 -->
<g id="edge27" class="edge">
<title>16399&#45;&gt;16627</title>
<path fill="none" stroke="black" d="M1147.57,-71.75C1150.03,-63.32 1152.54,-54.77 1154.79,-47.07"/>
<polygon fill="black" stroke="black" points="1158.1,-48.21 1157.55,-37.63 1151.38,-46.24 1158.1,-48.21"/>
</g>
<!-- 16753 -->
<g id="node30" class="node">
<title>16753</title>
<path fill="#c0c0c0" stroke="black" d="M1279,-36C1279,-36 1249,-36 1249,-36 1243,-36 1237,-30 1237,-24 1237,-24 1237,-12 1237,-12 1237,-6 1243,0 1249,0 1249,0 1279,0 1279,0 1285,0 1291,-6 1291,-12 1291,-12 1291,-24 1291,-24 1291,-30 1285,-36 1279,-36"/>
<text text-anchor="middle" x="1264" y="-13.32" font-family="Helvetica,sans-Serif" font-size="14.00">(...)</text>
</g>
<!-- 16752&#45;&gt;16753 -->
<g id="edge29" class="edge">
<title>16752&#45;&gt;16753</title>
<path fill="none" stroke="black" d="M1283.16,-71.75C1280.06,-63.22 1276.92,-54.57 1274.1,-46.8"/>
<polygon fill="black" stroke="black" points="1277.46,-45.8 1270.75,-37.6 1270.88,-48.19 1277.46,-45.8"/>
</g>
<!-- 16918 -->
<g id="node31" class="node">
<title>16918</title>
<path fill="#c0c0c0" stroke="black" d="M1351,-36C1351,-36 1321,-36 1321,-36 1315,-36 1309,-30 1309,-24 1309,-24 1309,-12 1309,-12 1309,-6 1315,0 1321,0 1321,0 1351,0 1351,0 1357,0 1363,-6 1363,-12 1363,-12 1363,-24 1363,-24 1363,-30 1357,-36 1351,-36"/>
<text text-anchor="middle" x="1336" y="-13.32" font-family="Helvetica,sans-Serif" font-size="14.00">(...)</text>
</g>
<!-- 16752&#45;&gt;16918 -->
<g id="edge30" class="edge">
<title>16752&#45;&gt;16918</title>
<path fill="none" stroke="black" d="M1316.84,-71.75C1319.94,-63.22 1323.08,-54.57 1325.9,-46.8"/>
<polygon fill="black" stroke="black" points="1329.12,-48.19 1329.25,-37.6 1322.54,-45.8 1329.12,-48.19"/>
</g>
</g>
</svg>
