<?xml version="1.0" encoding="UTF-8" standalone="no"?>
<!DOCTYPE svg PUBLIC "-//W3C//DTD SVG 1.1//EN"
 "http://www.w3.org/Graphics/SVG/1.1/DTD/svg11.dtd">
<!-- Generated by graphviz version 12.0.0 (20240803.0821)
 -->
<!-- Title: Tree Pages: 1 -->
<svg width="1401pt" height="565pt"
 viewBox="0.00 0.00 1401.00 565.00" xmlns="http://www.w3.org/2000/svg" xmlns:xlink="http://www.w3.org/1999/xlink">
<g id="graph0" class="graph" transform="scale(1 1) rotate(0) translate(4 561)">
<title>Tree</title>
<polygon fill="white" stroke="none" points="-4,4 -4,-561 1397,-561 1397,4 -4,4"/>
<!-- 0 -->
<g id="node1" class="node">
<title>0</title>
<path fill="#fefeff" stroke="black" d="M805,-557C805,-557 645,-557 645,-557 639,-557 633,-551 633,-545 633,-545 633,-474.75 633,-474.75 633,-468.75 639,-462.75 645,-462.75 645,-462.75 805,-462.75 805,-462.75 811,-462.75 817,-468.75 817,-474.75 817,-474.75 817,-545 817,-545 817,-551 811,-557 805,-557"/>
<text text-anchor="middle" x="725" y="-539.7" font-family="Helvetica,sans-Serif" font-size="14.00">19_C &lt;= 0.5</text>
<text text-anchor="middle" x="725" y="-522.45" font-family="Helvetica,sans-Serif" font-size="14.00">entropy = 1.0</text>
<text text-anchor="middle" x="725" y="-505.2" font-family="Helvetica,sans-Serif" font-size="14.00">samples = 38184</text>
<text text-anchor="middle" x="725" y="-487.95" font-family="Helvetica,sans-Serif" font-size="14.00">value = [30092, 30253]</text>
<text text-anchor="middle" x="725" y="-470.7" font-family="Helvetica,sans-Serif" font-size="14.00">class = Plant</text>
</g>
<!-- 1 -->
<g id="node2" class="node">
<title>1</title>
<path fill="#f9e1d0" stroke="black" d="M630,-426.75C630,-426.75 470,-426.75 470,-426.75 464,-426.75 458,-420.75 458,-414.75 458,-414.75 458,-344.5 458,-344.5 458,-338.5 464,-332.5 470,-332.5 470,-332.5 630,-332.5 630,-332.5 636,-332.5 642,-338.5 642,-344.5 642,-344.5 642,-414.75 642,-414.75 642,-420.75 636,-426.75 630,-426.75"/>
<text text-anchor="middle" x="550" y="-409.45" font-family="Helvetica,sans-Serif" font-size="14.00">22_G &lt;= 0.5</text>
<text text-anchor="middle" x="550" y="-392.2" font-family="Helvetica,sans-Serif" font-size="14.00">entropy = 0.987</text>
<text text-anchor="middle" x="550" y="-374.95" font-family="Helvetica,sans-Serif" font-size="14.00">samples = 25966</text>
<text text-anchor="middle" x="550" y="-357.7" font-family="Helvetica,sans-Serif" font-size="14.00">value = [23312, 17834]</text>
<text text-anchor="middle" x="550" y="-340.45" font-family="Helvetica,sans-Serif" font-size="14.00">class = Animal</text>
</g>
<!-- 0&#45;&gt;1 -->
<g id="edge1" class="edge">
<title>0&#45;&gt;1</title>
<path fill="none" stroke="black" d="M661.82,-462.57C649.01,-453.19 635.45,-443.25 622.36,-433.65"/>
<polygon fill="black" stroke="black" points="624.74,-431.06 614.6,-427.97 620.6,-436.7 624.74,-431.06"/>
<text text-anchor="middle" x="617.19" y="-447.11" font-family="Helvetica,sans-Serif" font-size="14.00">True</text>
</g>
<!-- 12654 -->
<g id="node17" class="node">
<title>12654</title>
<path fill="#a5d3f3" stroke="black" d="M983.5,-426.75C983.5,-426.75 832.5,-426.75 832.5,-426.75 826.5,-426.75 820.5,-420.75 820.5,-414.75 820.5,-414.75 820.5,-344.5 820.5,-344.5 820.5,-338.5 826.5,-332.5 832.5,-332.5 832.5,-332.5 983.5,-332.5 983.5,-332.5 989.5,-332.5 995.5,-338.5 995.5,-344.5 995.5,-344.5 995.5,-414.75 995.5,-414.75 995.5,-420.75 989.5,-426.75 983.5,-426.75"/>
<text text-anchor="middle" x="908" y="-409.45" font-family="Helvetica,sans-Serif" font-size="14.00">23_G &lt;= 0.5</text>
<text text-anchor="middle" x="908" y="-392.2" font-family="Helvetica,sans-Serif" font-size="14.00">entropy = 0.937</text>
<text text-anchor="middle" x="908" y="-374.95" font-family="Helvetica,sans-Serif" font-size="14.00">samples = 12218</text>
<text text-anchor="middle" x="908" y="-357.7" font-family="Helvetica,sans-Serif" font-size="14.00">value = [6780, 12419]</text>
<text text-anchor="middle" x="908" y="-340.45" font-family="Helvetica,sans-Serif" font-size="14.00">class = Plant</text>
</g>
<!-- 0&#45;&gt;12654 -->
<g id="edge16" class="edge">
<title>0&#45;&gt;12654</title>
<path fill="none" stroke="black" d="M791.33,-462.39C804.62,-453.07 818.69,-443.22 832.28,-433.69"/>
<polygon fill="black" stroke="black" points="834.17,-436.64 840.35,-428.03 830.16,-430.91 834.17,-436.64"/>
<text text-anchor="middle" x="837.26" y="-447.11" font-family="Helvetica,sans-Serif" font-size="14.00">False</text>
</g>
<!-- 2 -->
<g id="node3" class="node">
<title>2</title>
<path fill="#fcf2ea" stroke="black" d="M361,-296.5C361,-296.5 201,-296.5 201,-296.5 195,-296.5 189,-290.5 189,-284.5 189,-284.5 189,-214.25 189,-214.25 189,-208.25 195,-202.25 201,-202.25 201,-202.25 361,-202.25 361,-202.25 367,-202.25 373,-208.25 373,-214.25 373,-214.25 373,-284.5 373,-284.5 373,-290.5 367,-296.5 361,-296.5"/>
<text text-anchor="middle" x="281" y="-279.2" font-family="Helvetica,sans-Serif" font-size="14.00">23_U &lt;= 0.5</text>
<text text-anchor="middle" x="281" y="-261.95" font-family="Helvetica,sans-Serif" font-size="14.00">entropy = 0.998</text>
<text text-anchor="middle" x="281" y="-244.7" font-family="Helvetica,sans-Serif" font-size="14.00">samples = 22100</text>
<text text-anchor="middle" x="281" y="-227.45" font-family="Helvetica,sans-Serif" font-size="14.00">value = [18466, 16510]</text>
<text text-anchor="middle" x="281" y="-210.2" font-family="Helvetica,sans-Serif" font-size="14.00">class = Animal</text>
</g>
<!-- 1&#45;&gt;2 -->
<g id="edge2" class="edge">
<title>1&#45;&gt;2</title>
<path fill="none" stroke="black" d="M457.8,-334.67C433.85,-323.25 407.9,-310.88 383.45,-299.22"/>
<polygon fill="black" stroke="black" points="384.98,-296.07 374.44,-294.93 381.96,-302.39 384.98,-296.07"/>
</g>
<!-- 11151 -->
<g id="node10" class="node">
<title>11151</title>
<path fill="#eca36f" stroke="black" d="M621,-296.5C621,-296.5 479,-296.5 479,-296.5 473,-296.5 467,-290.5 467,-284.5 467,-284.5 467,-214.25 467,-214.25 467,-208.25 473,-202.25 479,-202.25 479,-202.25 621,-202.25 621,-202.25 627,-202.25 633,-208.25 633,-214.25 633,-214.25 633,-284.5 633,-284.5 633,-290.5 627,-296.5 621,-296.5"/>
<text text-anchor="middle" x="550" y="-279.2" font-family="Helvetica,sans-Serif" font-size="14.00">21_A &lt;= 0.5</text>
<text text-anchor="middle" x="550" y="-261.95" font-family="Helvetica,sans-Serif" font-size="14.00">entropy = 0.75</text>
<text text-anchor="middle" x="550" y="-244.7" font-family="Helvetica,sans-Serif" font-size="14.00">samples = 3866</text>
<text text-anchor="middle" x="550" y="-227.45" font-family="Helvetica,sans-Serif" font-size="14.00">value = [4846, 1324]</text>
<text text-anchor="middle" x="550" y="-210.2" font-family="Helvetica,sans-Serif" font-size="14.00">class = Animal</text>
</g>
<!-- 1&#45;&gt;11151 -->
<g id="edge9" class="edge">
<title>1&#45;&gt;11151</title>
<path fill="none" stroke="black" d="M550,-332.32C550,-324.42 550,-316.13 550,-307.98"/>
<polygon fill="black" stroke="black" points="553.5,-308.12 550,-298.12 546.5,-308.12 553.5,-308.12"/>
</g>
<!-- 3 -->
<g id="node4" class="node">
<title>3</title>
<path fill="#fef9f5" stroke="black" d="M172,-166.25C172,-166.25 12,-166.25 12,-166.25 6,-166.25 0,-160.25 0,-154.25 0,-154.25 0,-84 0,-84 0,-78 6,-72 12,-72 12,-72 172,-72 172,-72 178,-72 184,-78 184,-84 184,-84 184,-154.25 184,-154.25 184,-160.25 178,-166.25 172,-166.25"/>
<text text-anchor="middle" x="92" y="-148.95" font-family="Helvetica,sans-Serif" font-size="14.00">4_G &lt;= 0.5</text>
<text text-anchor="middle" x="92" y="-131.7" font-family="Helvetica,sans-Serif" font-size="14.00">entropy = 1.0</text>
<text text-anchor="middle" x="92" y="-114.45" font-family="Helvetica,sans-Serif" font-size="14.00">samples = 21120</text>
<text text-anchor="middle" x="92" y="-97.2" font-family="Helvetica,sans-Serif" font-size="14.00">value = [17157, 16288]</text>
<text text-anchor="middle" x="92" y="-79.95" font-family="Helvetica,sans-Serif" font-size="14.00">class = Animal</text>
</g>
<!-- 2&#45;&gt;3 -->
<g id="edge3" class="edge">
<title>2&#45;&gt;3</title>
<path fill="none" stroke="black" d="M212.5,-201.89C198.63,-192.48 183.96,-182.53 169.8,-172.92"/>
<polygon fill="black" stroke="black" points="172.08,-170.23 161.84,-167.51 168.15,-176.03 172.08,-170.23"/>
</g>
<!-- 10760 -->
<g id="node7" class="node">
<title>10760</title>
<path fill="#e9965b" stroke="black" d="M347.5,-166.25C347.5,-166.25 214.5,-166.25 214.5,-166.25 208.5,-166.25 202.5,-160.25 202.5,-154.25 202.5,-154.25 202.5,-84 202.5,-84 202.5,-78 208.5,-72 214.5,-72 214.5,-72 347.5,-72 347.5,-72 353.5,-72 359.5,-78 359.5,-84 359.5,-84 359.5,-154.25 359.5,-154.25 359.5,-160.25 353.5,-166.25 347.5,-166.25"/>
<text text-anchor="middle" x="281" y="-148.95" font-family="Helvetica,sans-Serif" font-size="14.00">22_U &lt;= 0.5</text>
<text text-anchor="middle" x="281" y="-131.7" font-family="Helvetica,sans-Serif" font-size="14.00">entropy = 0.597</text>
<text text-anchor="middle" x="281" y="-114.45" font-family="Helvetica,sans-Serif" font-size="14.00">samples = 980</text>
<text text-anchor="middle" x="281" y="-97.2" font-family="Helvetica,sans-Serif" font-size="14.00">value = [1309, 222]</text>
<text text-anchor="middle" x="281" y="-79.95" font-family="Helvetica,sans-Serif" font-size="14.00">class = Animal</text>
</g>
<!-- 2&#45;&gt;10760 -->
<g id="edge6" class="edge">
<title>2&#45;&gt;10760</title>
<path fill="none" stroke="black" d="M281,-202.07C281,-194.17 281,-185.88 281,-177.73"/>
<polygon fill="black" stroke="black" points="284.5,-177.87 281,-167.87 277.5,-177.87 284.5,-177.87"/>
</g>
<!-- 4 -->
<g id="node5" class="node">
<title>4</title>
<path fill="#c0c0c0" stroke="black" d="M71,-36C71,-36 41,-36 41,-36 35,-36 29,-30 29,-24 29,-24 29,-12 29,-12 29,-6 35,0 41,0 41,0 71,0 71,0 77,0 83,-6 83,-12 83,-12 83,-24 83,-24 83,-30 77,-36 71,-36"/>
<text text-anchor="middle" x="56" y="-13.32" font-family="Helvetica,sans-Serif" font-size="14.00">(...)</text>
</g>
<!-- 3&#45;&gt;4 -->
<g id="edge4" class="edge">
<title>3&#45;&gt;4</title>
<path fill="none" stroke="black" d="M75.16,-71.75C72.06,-63.22 68.92,-54.57 66.1,-46.8"/>
<polygon fill="black" stroke="black" points="69.46,-45.8 62.75,-37.6 62.88,-48.19 69.46,-45.8"/>
</g>
<!-- 7447 -->
<g id="node6" class="node">
<title>7447</title>
<path fill="#c0c0c0" stroke="black" d="M143,-36C143,-36 113,-36 113,-36 107,-36 101,-30 101,-24 101,-24 101,-12 101,-12 101,-6 107,0 113,0 113,0 143,0 143,0 149,0 155,-6 155,-12 155,-12 155,-24 155,-24 155,-30 149,-36 143,-36"/>
<text text-anchor="middle" x="128" y="-13.32" font-family="Helvetica,sans-Serif" font-size="14.00">(...)</text>
</g>
<!-- 3&#45;&gt;7447 -->
<g id="edge5" class="edge">
<title>3&#45;&gt;7447</title>
<path fill="none" stroke="black" d="M108.84,-71.75C111.94,-63.22 115.08,-54.57 117.9,-46.8"/>
<polygon fill="black" stroke="black" points="121.12,-48.19 121.25,-37.6 114.54,-45.8 121.12,-48.19"/>
</g>
<!-- 10761 -->
<g id="node8" class="node">
<title>10761</title>
<path fill="#c0c0c0" stroke="black" d="M260,-36C260,-36 230,-36 230,-36 224,-36 218,-30 218,-24 218,-24 218,-12 218,-12 218,-6 224,0 230,0 230,0 260,0 260,0 266,0 272,-6 272,-12 272,-12 272,-24 272,-24 272,-30 266,-36 260,-36"/>
<text text-anchor="middle" x="245" y="-13.32" font-family="Helvetica,sans-Serif" font-size="14.00">(...)</text>
</g>
<!-- 10760&#45;&gt;10761 -->
<g id="edge7" class="edge">
<title>10760&#45;&gt;10761</title>
<path fill="none" stroke="black" d="M264.16,-71.75C261.06,-63.22 257.92,-54.57 255.1,-46.8"/>
<polygon fill="black" stroke="black" points="258.46,-45.8 251.75,-37.6 251.88,-48.19 258.46,-45.8"/>
</g>
<!-- 11044 -->
<g id="node9" class="node">
<title>11044</title>
<path fill="#c0c0c0" stroke="black" d="M332,-36C332,-36 302,-36 302,-36 296,-36 290,-30 290,-24 290,-24 290,-12 290,-12 290,-6 296,0 302,0 302,0 332,0 332,0 338,0 344,-6 344,-12 344,-12 344,-24 344,-24 344,-30 338,-36 332,-36"/>
<text text-anchor="middle" x="317" y="-13.32" font-family="Helvetica,sans-Serif" font-size="14.00">(...)</text>
</g>
<!-- 10760&#45;&gt;11044 -->
<g id="edge8" class="edge">
<title>10760&#45;&gt;11044</title>
<path fill="none" stroke="black" d="M297.84,-71.75C300.94,-63.22 304.08,-54.57 306.9,-46.8"/>
<polygon fill="black" stroke="black" points="310.12,-48.19 310.25,-37.6 303.54,-45.8 310.12,-48.19"/>
</g>
<!-- 11152 -->
<g id="node11" class="node">
<title>11152</title>
<path fill="#eda978" stroke="black" d="M532,-166.25C532,-166.25 390,-166.25 390,-166.25 384,-166.25 378,-160.25 378,-154.25 378,-154.25 378,-84 378,-84 378,-78 384,-72 390,-72 390,-72 532,-72 532,-72 538,-72 544,-78 544,-84 544,-84 544,-154.25 544,-154.25 544,-160.25 538,-166.25 532,-166.25"/>
<text text-anchor="middle" x="461" y="-148.95" font-family="Helvetica,sans-Serif" font-size="14.00">9_G &lt;= 0.5</text>
<text text-anchor="middle" x="461" y="-131.7" font-family="Helvetica,sans-Serif" font-size="14.00">entropy = 0.795</text>
<text text-anchor="middle" x="461" y="-114.45" font-family="Helvetica,sans-Serif" font-size="14.00">samples = 2868</text>
<text text-anchor="middle" x="461" y="-97.2" font-family="Helvetica,sans-Serif" font-size="14.00">value = [3466, 1095]</text>
<text text-anchor="middle" x="461" y="-79.95" font-family="Helvetica,sans-Serif" font-size="14.00">class = Animal</text>
</g>
<!-- 11151&#45;&gt;11152 -->
<g id="edge10" class="edge">
<title>11151&#45;&gt;11152</title>
<path fill="none" stroke="black" d="M517.87,-202.07C511.95,-193.54 505.7,-184.54 499.61,-175.77"/>
<polygon fill="black" stroke="black" points="502.52,-173.82 493.95,-167.6 496.77,-177.81 502.52,-173.82"/>
</g>
<!-- 12271 -->
<g id="node14" class="node">
<title>12271</title>
<path fill="#e9965a" stroke="black" d="M707.5,-166.25C707.5,-166.25 574.5,-166.25 574.5,-166.25 568.5,-166.25 562.5,-160.25 562.5,-154.25 562.5,-154.25 562.5,-84 562.5,-84 562.5,-78 568.5,-72 574.5,-72 574.5,-72 707.5,-72 707.5,-72 713.5,-72 719.5,-78 719.5,-84 719.5,-84 719.5,-154.25 719.5,-154.25 719.5,-160.25 713.5,-166.25 707.5,-166.25"/>
<text text-anchor="middle" x="641" y="-148.95" font-family="Helvetica,sans-Serif" font-size="14.00">14_U &lt;= 0.5</text>
<text text-anchor="middle" x="641" y="-131.7" font-family="Helvetica,sans-Serif" font-size="14.00">entropy = 0.59</text>
<text text-anchor="middle" x="641" y="-114.45" font-family="Helvetica,sans-Serif" font-size="14.00">samples = 998</text>
<text text-anchor="middle" x="641" y="-97.2" font-family="Helvetica,sans-Serif" font-size="14.00">value = [1380, 229]</text>
<text text-anchor="middle" x="641" y="-79.95" font-family="Helvetica,sans-Serif" font-size="14.00">class = Animal</text>
</g>
<!-- 11151&#45;&gt;12271 -->
<g id="edge13" class="edge">
<title>11151&#45;&gt;12271</title>
<path fill="none" stroke="black" d="M582.85,-202.07C588.97,-193.45 595.43,-184.35 601.72,-175.49"/>
<polygon fill="black" stroke="black" points="604.39,-177.77 607.32,-167.59 598.68,-173.72 604.39,-177.77"/>
</g>
<!-- 11153 -->
<g id="node12" class="node">
<title>11153</title>
<path fill="#c0c0c0" stroke="black" d="M422,-36C422,-36 392,-36 392,-36 386,-36 380,-30 380,-24 380,-24 380,-12 380,-12 380,-6 386,0 392,0 392,0 422,0 422,0 428,0 434,-6 434,-12 434,-12 434,-24 434,-24 434,-30 428,-36 422,-36"/>
<text text-anchor="middle" x="407" y="-13.32" font-family="Helvetica,sans-Serif" font-size="14.00">(...)</text>
</g>
<!-- 11152&#45;&gt;11153 -->
<g id="edge11" class="edge">
<title>11152&#45;&gt;11153</title>
<path fill="none" stroke="black" d="M435.74,-71.75C430.98,-63.03 426.16,-54.16 421.85,-46.26"/>
<polygon fill="black" stroke="black" points="424.94,-44.61 417.08,-37.5 418.79,-47.96 424.94,-44.61"/>
</g>
<!-- 11982 -->
<g id="node13" class="node">
<title>11982</title>
<path fill="#c0c0c0" stroke="black" d="M494,-36C494,-36 464,-36 464,-36 458,-36 452,-30 452,-24 452,-24 452,-12 452,-12 452,-6 458,0 464,0 464,0 494,0 494,0 500,0 506,-6 506,-12 506,-12 506,-24 506,-24 506,-30 500,-36 494,-36"/>
<text text-anchor="middle" x="479" y="-13.32" font-family="Helvetica,sans-Serif" font-size="14.00">(...)</text>
</g>
<!-- 11152&#45;&gt;11982 -->
<g id="edge12" class="edge">
<title>11152&#45;&gt;11982</title>
<path fill="none" stroke="black" d="M469.42,-71.75C470.93,-63.42 472.47,-54.97 473.85,-47.34"/>
<polygon fill="black" stroke="black" points="477.27,-48.13 475.61,-37.66 470.38,-46.88 477.27,-48.13"/>
</g>
<!-- 12272 -->
<g id="node15" class="node">
<title>12272</title>
<path fill="#c0c0c0" stroke="black" d="M604,-36C604,-36 574,-36 574,-36 568,-36 562,-30 562,-24 562,-24 562,-12 562,-12 562,-6 568,0 574,0 574,0 604,0 604,0 610,0 616,-6 616,-12 616,-12 616,-24 616,-24 616,-30 610,-36 604,-36"/>
<text text-anchor="middle" x="589" y="-13.32" font-family="Helvetica,sans-Serif" font-size="14.00">(...)</text>
</g>
<!-- 12271&#45;&gt;12272 -->
<g id="edge14" class="edge">
<title>12271&#45;&gt;12272</title>
<path fill="none" stroke="black" d="M616.67,-71.75C612.1,-63.03 607.45,-54.16 603.3,-46.26"/>
<polygon fill="black" stroke="black" points="606.46,-44.74 598.71,-37.51 600.26,-47.99 606.46,-44.74"/>
</g>
<!-- 12589 -->
<g id="node16" class="node">
<title>12589</title>
<path fill="#c0c0c0" stroke="black" d="M676,-36C676,-36 646,-36 646,-36 640,-36 634,-30 634,-24 634,-24 634,-12 634,-12 634,-6 640,0 646,0 646,0 676,0 676,0 682,0 688,-6 688,-12 688,-12 688,-24 688,-24 688,-30 682,-36 676,-36"/>
<text text-anchor="middle" x="661" y="-13.32" font-family="Helvetica,sans-Serif" font-size="14.00">(...)</text>
</g>
<!-- 12271&#45;&gt;12589 -->
<g id="edge15" class="edge">
<title>12271&#45;&gt;12589</title>
<path fill="none" stroke="black" d="M650.36,-71.75C652.04,-63.42 653.74,-54.97 655.28,-47.34"/>
<polygon fill="black" stroke="black" points="658.69,-48.15 657.24,-37.66 651.83,-46.77 658.69,-48.15"/>
</g>
<!-- 12655 -->
<g id="node18" class="node">
<title>12655</title>
<path fill="#9dcff2" stroke="black" d="M983.5,-296.5C983.5,-296.5 832.5,-296.5 832.5,-296.5 826.5,-296.5 820.5,-290.5 820.5,-284.5 820.5,-284.5 820.5,-214.25 820.5,-214.25 820.5,-208.25 826.5,-202.25 832.5,-202.25 832.5,-202.25 983.5,-202.25 983.5,-202.25 989.5,-202.25 995.5,-208.25 995.5,-214.25 995.5,-214.25 995.5,-284.5 995.5,-284.5 995.5,-290.5 989.5,-296.5 983.5,-296.5"/>
<text text-anchor="middle" x="908" y="-279.2" font-family="Helvetica,sans-Serif" font-size="14.00">23_A &lt;= 0.5</text>
<text text-anchor="middle" x="908" y="-261.95" font-family="Helvetica,sans-Serif" font-size="14.00">entropy = 0.921</text>
<text text-anchor="middle" x="908" y="-244.7" font-family="Helvetica,sans-Serif" font-size="14.00">samples = 11770</text>
<text text-anchor="middle" x="908" y="-227.45" font-family="Helvetica,sans-Serif" font-size="14.00">value = [6229, 12279]</text>
<text text-anchor="middle" x="908" y="-210.2" font-family="Helvetica,sans-Serif" font-size="14.00">class = Plant</text>
</g>
<!-- 12654&#45;&gt;12655 -->
<g id="edge17" class="edge">
<title>12654&#45;&gt;12655</title>
<path fill="none" stroke="black" d="M908,-332.32C908,-324.42 908,-316.13 908,-307.98"/>
<polygon fill="black" stroke="black" points="911.5,-308.12 908,-298.12 904.5,-308.12 911.5,-308.12"/>
</g>
<!-- 16640 -->
<g id="node25" class="node">
<title>16640</title>
<path fill="#eca16b" stroke="black" d="M1233,-296.5C1233,-296.5 1109,-296.5 1109,-296.5 1103,-296.5 1097,-290.5 1097,-284.5 1097,-284.5 1097,-214.25 1097,-214.25 1097,-208.25 1103,-202.25 1109,-202.25 1109,-202.25 1233,-202.25 1233,-202.25 1239,-202.25 1245,-208.25 1245,-214.25 1245,-214.25 1245,-284.5 1245,-284.5 1245,-290.5 1239,-296.5 1233,-296.5"/>
<text text-anchor="middle" x="1171" y="-279.2" font-family="Helvetica,sans-Serif" font-size="14.00">22_A &lt;= 0.5</text>
<text text-anchor="middle" x="1171" y="-261.95" font-family="Helvetica,sans-Serif" font-size="14.00">entropy = 0.727</text>
<text text-anchor="middle" x="1171" y="-244.7" font-family="Helvetica,sans-Serif" font-size="14.00">samples = 448</text>
<text text-anchor="middle" x="1171" y="-227.45" font-family="Helvetica,sans-Serif" font-size="14.00">value = [551, 140]</text>
<text text-anchor="middle" x="1171" y="-210.2" font-family="Helvetica,sans-Serif" font-size="14.00">class = Animal</text>
</g>
<!-- 12654&#45;&gt;16640 -->
<g id="edge24" class="edge">
<title>12654&#45;&gt;16640</title>
<path fill="none" stroke="black" d="M995.94,-335.74C1025.19,-321.48 1057.69,-305.63 1086.67,-291.5"/>
<polygon fill="black" stroke="black" points="1087.94,-294.77 1095.4,-287.24 1084.87,-288.48 1087.94,-294.77"/>
</g>
<!-- 12656 -->
<g id="node19" class="node">
<title>12656</title>
<path fill="#99ccf2" stroke="black" d="M900.5,-166.25C900.5,-166.25 749.5,-166.25 749.5,-166.25 743.5,-166.25 737.5,-160.25 737.5,-154.25 737.5,-154.25 737.5,-84 737.5,-84 737.5,-78 743.5,-72 749.5,-72 749.5,-72 900.5,-72 900.5,-72 906.5,-72 912.5,-78 912.5,-84 912.5,-84 912.5,-154.25 912.5,-154.25 912.5,-160.25 906.5,-166.25 900.5,-166.25"/>
<text text-anchor="middle" x="825" y="-148.95" font-family="Helvetica,sans-Serif" font-size="14.00">22_U &lt;= 0.5</text>
<text text-anchor="middle" x="825" y="-131.7" font-family="Helvetica,sans-Serif" font-size="14.00">entropy = 0.911</text>
<text text-anchor="middle" x="825" y="-114.45" font-family="Helvetica,sans-Serif" font-size="14.00">samples = 11419</text>
<text text-anchor="middle" x="825" y="-97.2" font-family="Helvetica,sans-Serif" font-size="14.00">value = [5858, 12088]</text>
<text text-anchor="middle" x="825" y="-79.95" font-family="Helvetica,sans-Serif" font-size="14.00">class = Plant</text>
</g>
<!-- 12655&#45;&gt;12656 -->
<g id="edge18" class="edge">
<title>12655&#45;&gt;12656</title>
<path fill="none" stroke="black" d="M878.04,-202.07C872.51,-193.54 866.69,-184.54 861.01,-175.77"/>
<polygon fill="black" stroke="black" points="864.11,-174.12 855.74,-167.63 858.24,-177.93 864.11,-174.12"/>
</g>
<!-- 16437 -->
<g id="node22" class="node">
<title>16437</title>
<path fill="#f2c29f" stroke="black" d="M1067,-166.25C1067,-166.25 943,-166.25 943,-166.25 937,-166.25 931,-160.25 931,-154.25 931,-154.25 931,-84 931,-84 931,-78 937,-72 943,-72 943,-72 1067,-72 1067,-72 1073,-72 1079,-78 1079,-84 1079,-84 1079,-154.25 1079,-154.25 1079,-160.25 1073,-166.25 1067,-166.25"/>
<text text-anchor="middle" x="1005" y="-148.95" font-family="Helvetica,sans-Serif" font-size="14.00">20_G &lt;= 0.5</text>
<text text-anchor="middle" x="1005" y="-131.7" font-family="Helvetica,sans-Serif" font-size="14.00">entropy = 0.925</text>
<text text-anchor="middle" x="1005" y="-114.45" font-family="Helvetica,sans-Serif" font-size="14.00">samples = 351</text>
<text text-anchor="middle" x="1005" y="-97.2" font-family="Helvetica,sans-Serif" font-size="14.00">value = [371, 191]</text>
<text text-anchor="middle" x="1005" y="-79.95" font-family="Helvetica,sans-Serif" font-size="14.00">class = Animal</text>
</g>
<!-- 12655&#45;&gt;16437 -->
<g id="edge21" class="edge">
<title>12655&#45;&gt;16437</title>
<path fill="none" stroke="black" d="M943.02,-202.07C949.54,-193.45 956.42,-184.35 963.13,-175.49"/>
<polygon fill="black" stroke="black" points="965.88,-177.65 969.12,-167.57 960.3,-173.43 965.88,-177.65"/>
</g>
<!-- 12657 -->
<g id="node20" class="node">
<title>12657</title>
<path fill="#c0c0c0" stroke="black" d="M786,-36C786,-36 756,-36 756,-36 750,-36 744,-30 744,-24 744,-24 744,-12 744,-12 744,-6 750,0 756,0 756,0 786,0 786,0 792,0 798,-6 798,-12 798,-12 798,-24 798,-24 798,-30 792,-36 786,-36"/>
<text text-anchor="middle" x="771" y="-13.32" font-family="Helvetica,sans-Serif" font-size="14.00">(...)</text>
</g>
<!-- 12656&#45;&gt;12657 -->
<g id="edge19" class="edge">
<title>12656&#45;&gt;12657</title>
<path fill="none" stroke="black" d="M799.74,-71.75C794.98,-63.03 790.16,-54.16 785.85,-46.26"/>
<polygon fill="black" stroke="black" points="788.94,-44.61 781.08,-37.5 782.79,-47.96 788.94,-44.61"/>
</g>
<!-- 15992 -->
<g id="node21" class="node">
<title>15992</title>
<path fill="#c0c0c0" stroke="black" d="M858,-36C858,-36 828,-36 828,-36 822,-36 816,-30 816,-24 816,-24 816,-12 816,-12 816,-6 822,0 828,0 828,0 858,0 858,0 864,0 870,-6 870,-12 870,-12 870,-24 870,-24 870,-30 864,-36 858,-36"/>
<text text-anchor="middle" x="843" y="-13.32" font-family="Helvetica,sans-Serif" font-size="14.00">(...)</text>
</g>
<!-- 12656&#45;&gt;15992 -->
<g id="edge20" class="edge">
<title>12656&#45;&gt;15992</title>
<path fill="none" stroke="black" d="M833.42,-71.75C834.93,-63.42 836.47,-54.97 837.85,-47.34"/>
<polygon fill="black" stroke="black" points="841.27,-48.13 839.61,-37.66 834.38,-46.88 841.27,-48.13"/>
</g>
<!-- 16438 -->
<g id="node23" class="node">
<title>16438</title>
<path fill="#c0c0c0" stroke="black" d="M959,-36C959,-36 929,-36 929,-36 923,-36 917,-30 917,-24 917,-24 917,-12 917,-12 917,-6 923,0 929,0 929,0 959,0 959,0 965,0 971,-6 971,-12 971,-12 971,-24 971,-24 971,-30 965,-36 959,-36"/>
<text text-anchor="middle" x="944" y="-13.32" font-family="Helvetica,sans-Serif" font-size="14.00">(...)</text>
</g>
<!-- 16437&#45;&gt;16438 -->
<g id="edge22" class="edge">
<title>16437&#45;&gt;16438</title>
<path fill="none" stroke="black" d="M976.46,-71.75C970.97,-62.83 965.39,-53.76 960.44,-45.72"/>
<polygon fill="black" stroke="black" points="963.58,-44.14 955.36,-37.46 957.62,-47.81 963.58,-44.14"/>
</g>
<!-- 16591 -->
<g id="node24" class="node">
<title>16591</title>
<path fill="#c0c0c0" stroke="black" d="M1031,-36C1031,-36 1001,-36 1001,-36 995,-36 989,-30 989,-24 989,-24 989,-12 989,-12 989,-6 995,0 1001,0 1001,0 1031,0 1031,0 1037,0 1043,-6 1043,-12 1043,-12 1043,-24 1043,-24 1043,-30 1037,-36 1031,-36"/>
<text text-anchor="middle" x="1016" y="-13.32" font-family="Helvetica,sans-Serif" font-size="14.00">(...)</text>
</g>
<!-- 16437&#45;&gt;16591 -->
<g id="edge23" class="edge">
<title>16437&#45;&gt;16591</title>
<path fill="none" stroke="black" d="M1010.15,-71.75C1011.06,-63.52 1011.99,-55.17 1012.82,-47.61"/>
<polygon fill="black" stroke="black" points="1016.3,-48 1013.93,-37.68 1009.35,-47.23 1016.3,-48"/>
</g>
<!-- 16641 -->
<g id="node26" class="node">
<title>16641</title>
<path fill="#eeae80" stroke="black" d="M1233,-166.25C1233,-166.25 1109,-166.25 1109,-166.25 1103,-166.25 1097,-160.25 1097,-154.25 1097,-154.25 1097,-84 1097,-84 1097,-78 1103,-72 1109,-72 1109,-72 1233,-72 1233,-72 1239,-72 1245,-78 1245,-84 1245,-84 1245,-154.25 1245,-154.25 1245,-160.25 1239,-166.25 1233,-166.25"/>
<text text-anchor="middle" x="1171" y="-148.95" font-family="Helvetica,sans-Serif" font-size="14.00">9_G &lt;= 0.5</text>
<text text-anchor="middle" x="1171" y="-131.7" font-family="Helvetica,sans-Serif" font-size="14.00">entropy = 0.834</text>
<text text-anchor="middle" x="1171" y="-114.45" font-family="Helvetica,sans-Serif" font-size="14.00">samples = 327</text>
<text text-anchor="middle" x="1171" y="-97.2" font-family="Helvetica,sans-Serif" font-size="14.00">value = [367, 132]</text>
<text text-anchor="middle" x="1171" y="-79.95" font-family="Helvetica,sans-Serif" font-size="14.00">class = Animal</text>
</g>
<!-- 16640&#45;&gt;16641 -->
<g id="edge25" class="edge">
<title>16640&#45;&gt;16641</title>
<path fill="none" stroke="black" d="M1171,-202.07C1171,-194.17 1171,-185.88 1171,-177.73"/>
<polygon fill="black" stroke="black" points="1174.5,-177.87 1171,-167.87 1167.5,-177.87 1174.5,-177.87"/>
</g>
<!-- 16774 -->
<g id="node29" class="node">
<title>16774</title>
<path fill="#e68642" stroke="black" d="M1381,-166.25C1381,-166.25 1275,-166.25 1275,-166.25 1269,-166.25 1263,-160.25 1263,-154.25 1263,-154.25 1263,-84 1263,-84 1263,-78 1269,-72 1275,-72 1275,-72 1381,-72 1381,-72 1387,-72 1393,-78 1393,-84 1393,-84 1393,-154.25 1393,-154.25 1393,-160.25 1387,-166.25 1381,-166.25"/>
<text text-anchor="middle" x="1328" y="-148.95" font-family="Helvetica,sans-Serif" font-size="14.00">18_A &lt;= 0.5</text>
<text text-anchor="middle" x="1328" y="-131.7" font-family="Helvetica,sans-Serif" font-size="14.00">entropy = 0.25</text>
<text text-anchor="middle" x="1328" y="-114.45" font-family="Helvetica,sans-Serif" font-size="14.00">samples = 121</text>
<text text-anchor="middle" x="1328" y="-97.2" font-family="Helvetica,sans-Serif" font-size="14.00">value = [184, 8]</text>
<text text-anchor="middle" x="1328" y="-79.95" font-family="Helvetica,sans-Serif" font-size="14.00">class = Animal</text>
</g>
<!-- 16640&#45;&gt;16774 -->
<g id="edge28" class="edge">
<title>16640&#45;&gt;16774</title>
<path fill="none" stroke="black" d="M1227.68,-202.07C1238.95,-192.87 1250.87,-183.13 1262.41,-173.71"/>
<polygon fill="black" stroke="black" points="1264.44,-176.57 1269.97,-167.53 1260.01,-171.15 1264.44,-176.57"/>
</g>
<!-- 16642 -->
<g id="node27" class="node">
<title>16642</title>
<path fill="#c0c0c0" stroke="black" d="M1138,-36C1138,-36 1108,-36 1108,-36 1102,-36 1096,-30 1096,-24 1096,-24 1096,-12 1096,-12 1096,-6 1102,0 1108,0 1108,0 1138,0 1138,0 1144,0 1150,-6 1150,-12 1150,-12 1150,-24 1150,-24 1150,-30 1144,-36 1138,-36"/>
<text text-anchor="middle" x="1123" y="-13.32" font-family="Helvetica,sans-Serif" font-size="14.00">(...)</text>
</g>
<!-- 16641&#45;&gt;16642 -->
<g id="edge26" class="edge">
<title>16641&#45;&gt;16642</title>
<path fill="none" stroke="black" d="M1148.55,-71.75C1144.37,-63.12 1140.12,-54.36 1136.33,-46.53"/>
<polygon fill="black" stroke="black" points="1139.48,-45.01 1131.98,-37.53 1133.18,-48.06 1139.48,-45.01"/>
</g>
<!-- 16745 -->
<g id="node28" class="node">
<title>16745</title>
<path fill="#c0c0c0" stroke="black" d="M1210,-36C1210,-36 1180,-36 1180,-36 1174,-36 1168,-30 1168,-24 1168,-24 1168,-12 1168,-12 1168,-6 1174,0 1180,0 1180,0 1210,0 1210,0 1216,0 1222,-6 1222,-12 1222,-12 1222,-24 1222,-24 1222,-30 1216,-36 1210,-36"/>
<text text-anchor="middle" x="1195" y="-13.32" font-family="Helvetica,sans-Serif" font-size="14.00">(...)</text>
</g>
<!-- 16641&#45;&gt;16745 -->
<g id="edge27" class="edge">
<title>16641&#45;&gt;16745</title>
<path fill="none" stroke="black" d="M1182.23,-71.75C1184.24,-63.42 1186.29,-54.97 1188.14,-47.34"/>
<polygon fill="black" stroke="black" points="1191.53,-48.19 1190.49,-37.64 1184.73,-46.54 1191.53,-48.19"/>
</g>
<!-- 16775 -->
<g id="node30" class="node">
<title>16775</title>
<path fill="#c0c0c0" stroke="black" d="M1307,-36C1307,-36 1277,-36 1277,-36 1271,-36 1265,-30 1265,-24 1265,-24 1265,-12 1265,-12 1265,-6 1271,0 1277,0 1277,0 1307,0 1307,0 1313,0 1319,-6 1319,-12 1319,-12 1319,-24 1319,-24 1319,-30 1313,-36 1307,-36"/>
<text text-anchor="middle" x="1292" y="-13.32" font-family="Helvetica,sans-Serif" font-size="14.00">(...)</text>
</g>
<!-- 16774&#45;&gt;16775 -->
<g id="edge29" class="edge">
<title>16774&#45;&gt;16775</title>
<path fill="none" stroke="black" d="M1311.16,-71.75C1308.06,-63.22 1304.92,-54.57 1302.1,-46.8"/>
<polygon fill="black" stroke="black" points="1305.46,-45.8 1298.75,-37.6 1298.88,-48.19 1305.46,-45.8"/>
</g>
<!-- 16784 -->
<g id="node31" class="node">
<title>16784</title>
<path fill="#c0c0c0" stroke="black" d="M1379,-36C1379,-36 1349,-36 1349,-36 1343,-36 1337,-30 1337,-24 1337,-24 1337,-12 1337,-12 1337,-6 1343,0 1349,0 1349,0 1379,0 1379,0 1385,0 1391,-6 1391,-12 1391,-12 1391,-24 1391,-24 1391,-30 1385,-36 1379,-36"/>
<text text-anchor="middle" x="1364" y="-13.32" font-family="Helvetica,sans-Serif" font-size="14.00">(...)</text>
</g>
<!-- 16774&#45;&gt;16784 -->
<g id="edge30" class="edge">
<title>16774&#45;&gt;16784</title>
<path fill="none" stroke="black" d="M1344.84,-71.75C1347.94,-63.22 1351.08,-54.57 1353.9,-46.8"/>
<polygon fill="black" stroke="black" points="1357.12,-48.19 1357.25,-37.6 1350.54,-45.8 1357.12,-48.19"/>
</g>
</g>
</svg>
