<?xml version="1.0" encoding="UTF-8" standalone="no"?>
<!DOCTYPE svg PUBLIC "-//W3C//DTD SVG 1.1//EN"
 "http://www.w3.org/Graphics/SVG/1.1/DTD/svg11.dtd">
<!-- Generated by graphviz version 12.0.0 (20240803.0821)
 -->
<!-- Title: Tree Pages: 1 -->
<svg width="1456pt" height="565pt"
 viewBox="0.00 0.00 1456.00 565.00" xmlns="http://www.w3.org/2000/svg" xmlns:xlink="http://www.w3.org/1999/xlink">
<g id="graph0" class="graph" transform="scale(1 1) rotate(0) translate(4 561)">
<title>Tree</title>
<polygon fill="white" stroke="none" points="-4,4 -4,-561 1452,-561 1452,4 -4,4"/>
<!-- 0 -->
<g id="node1" class="node">
<title>0</title>
<path fill="#fffefd" stroke="black" d="M822,-557C822,-557 662,-557 662,-557 656,-557 650,-551 650,-545 650,-545 650,-474.75 650,-474.75 650,-468.75 656,-462.75 662,-462.75 662,-462.75 822,-462.75 822,-462.75 828,-462.75 834,-468.75 834,-474.75 834,-474.75 834,-545 834,-545 834,-551 828,-557 822,-557"/>
<text text-anchor="middle" x="742" y="-539.7" font-family="Helvetica,sans-Serif" font-size="14.00">19_U &lt;= 0.5</text>
<text text-anchor="middle" x="742" y="-522.45" font-family="Helvetica,sans-Serif" font-size="14.00">entropy = 1.0</text>
<text text-anchor="middle" x="742" y="-505.2" font-family="Helvetica,sans-Serif" font-size="14.00">samples = 38083</text>
<text text-anchor="middle" x="742" y="-487.95" font-family="Helvetica,sans-Serif" font-size="14.00">value = [30349, 29996]</text>
<text text-anchor="middle" x="742" y="-470.7" font-family="Helvetica,sans-Serif" font-size="14.00">class = Animal</text>
</g>
<!-- 1 -->
<g id="node2" class="node">
<title>1</title>
<path fill="#e1f0fb" stroke="black" d="M644,-426.75C644,-426.75 484,-426.75 484,-426.75 478,-426.75 472,-420.75 472,-414.75 472,-414.75 472,-344.5 472,-344.5 472,-338.5 478,-332.5 484,-332.5 484,-332.5 644,-332.5 644,-332.5 650,-332.5 656,-338.5 656,-344.5 656,-344.5 656,-414.75 656,-414.75 656,-420.75 650,-426.75 644,-426.75"/>
<text text-anchor="middle" x="564" y="-409.45" font-family="Helvetica,sans-Serif" font-size="14.00">2_A &lt;= 0.5</text>
<text text-anchor="middle" x="564" y="-392.2" font-family="Helvetica,sans-Serif" font-size="14.00">entropy = 0.995</text>
<text text-anchor="middle" x="564" y="-374.95" font-family="Helvetica,sans-Serif" font-size="14.00">samples = 29222</text>
<text text-anchor="middle" x="564" y="-357.7" font-family="Helvetica,sans-Serif" font-size="14.00">value = [21228, 25020]</text>
<text text-anchor="middle" x="564" y="-340.45" font-family="Helvetica,sans-Serif" font-size="14.00">class = Plant</text>
</g>
<!-- 0&#45;&gt;1 -->
<g id="edge1" class="edge">
<title>0&#45;&gt;1</title>
<path fill="none" stroke="black" d="M677.49,-462.39C664.55,-453.07 650.87,-443.22 637.65,-433.69"/>
<polygon fill="black" stroke="black" points="639.98,-431.06 629.82,-428.05 635.89,-436.73 639.98,-431.06"/>
<text text-anchor="middle" x="632.6" y="-447.17" font-family="Helvetica,sans-Serif" font-size="14.00">True</text>
</g>
<!-- 12488 -->
<g id="node17" class="node">
<title>12488</title>
<path fill="#f3c6a5" stroke="black" d="M1002,-426.75C1002,-426.75 860,-426.75 860,-426.75 854,-426.75 848,-420.75 848,-414.75 848,-414.75 848,-344.5 848,-344.5 848,-338.5 854,-332.5 860,-332.5 860,-332.5 1002,-332.5 1002,-332.5 1008,-332.5 1014,-338.5 1014,-344.5 1014,-344.5 1014,-414.75 1014,-414.75 1014,-420.75 1008,-426.75 1002,-426.75"/>
<text text-anchor="middle" x="931" y="-409.45" font-family="Helvetica,sans-Serif" font-size="14.00">21_U &lt;= 0.5</text>
<text text-anchor="middle" x="931" y="-392.2" font-family="Helvetica,sans-Serif" font-size="14.00">entropy = 0.937</text>
<text text-anchor="middle" x="931" y="-374.95" font-family="Helvetica,sans-Serif" font-size="14.00">samples = 8861</text>
<text text-anchor="middle" x="931" y="-357.7" font-family="Helvetica,sans-Serif" font-size="14.00">value = [9121, 4976]</text>
<text text-anchor="middle" x="931" y="-340.45" font-family="Helvetica,sans-Serif" font-size="14.00">class = Animal</text>
</g>
<!-- 0&#45;&gt;12488 -->
<g id="edge16" class="edge">
<title>0&#45;&gt;12488</title>
<path fill="none" stroke="black" d="M810.5,-462.39C824.37,-452.98 839.04,-443.03 853.2,-433.42"/>
<polygon fill="black" stroke="black" points="854.85,-436.53 861.16,-428.01 850.92,-430.73 854.85,-436.53"/>
<text text-anchor="middle" x="857.71" y="-447.04" font-family="Helvetica,sans-Serif" font-size="14.00">False</text>
</g>
<!-- 2 -->
<g id="node3" class="node">
<title>2</title>
<path fill="#c7e3f8" stroke="black" d="M370,-296.5C370,-296.5 210,-296.5 210,-296.5 204,-296.5 198,-290.5 198,-284.5 198,-284.5 198,-214.25 198,-214.25 198,-208.25 204,-202.25 210,-202.25 210,-202.25 370,-202.25 370,-202.25 376,-202.25 382,-208.25 382,-214.25 382,-214.25 382,-284.5 382,-284.5 382,-290.5 376,-296.5 370,-296.5"/>
<text text-anchor="middle" x="290" y="-279.2" font-family="Helvetica,sans-Serif" font-size="14.00">19_C &lt;= 0.5</text>
<text text-anchor="middle" x="290" y="-261.95" font-family="Helvetica,sans-Serif" font-size="14.00">entropy = 0.98</text>
<text text-anchor="middle" x="290" y="-244.7" font-family="Helvetica,sans-Serif" font-size="14.00">samples = 22655</text>
<text text-anchor="middle" x="290" y="-227.45" font-family="Helvetica,sans-Serif" font-size="14.00">value = [14956, 20834]</text>
<text text-anchor="middle" x="290" y="-210.2" font-family="Helvetica,sans-Serif" font-size="14.00">class = Plant</text>
</g>
<!-- 1&#45;&gt;2 -->
<g id="edge2" class="edge">
<title>1&#45;&gt;2</title>
<path fill="none" stroke="black" d="M471.62,-335.38C446.24,-323.51 418.58,-310.56 392.66,-298.43"/>
<polygon fill="black" stroke="black" points="394.36,-295.36 383.82,-294.29 391.39,-301.7 394.36,-295.36"/>
</g>
<!-- 9491 -->
<g id="node10" class="node">
<title>9491</title>
<path fill="#f6d5bd" stroke="black" d="M635,-296.5C635,-296.5 493,-296.5 493,-296.5 487,-296.5 481,-290.5 481,-284.5 481,-284.5 481,-214.25 481,-214.25 481,-208.25 487,-202.25 493,-202.25 493,-202.25 635,-202.25 635,-202.25 641,-202.25 647,-208.25 647,-214.25 647,-214.25 647,-284.5 647,-284.5 647,-290.5 641,-296.5 635,-296.5"/>
<text text-anchor="middle" x="564" y="-279.2" font-family="Helvetica,sans-Serif" font-size="14.00">8_C &lt;= 0.5</text>
<text text-anchor="middle" x="564" y="-261.95" font-family="Helvetica,sans-Serif" font-size="14.00">entropy = 0.971</text>
<text text-anchor="middle" x="564" y="-244.7" font-family="Helvetica,sans-Serif" font-size="14.00">samples = 6567</text>
<text text-anchor="middle" x="564" y="-227.45" font-family="Helvetica,sans-Serif" font-size="14.00">value = [6272, 4186]</text>
<text text-anchor="middle" x="564" y="-210.2" font-family="Helvetica,sans-Serif" font-size="14.00">class = Animal</text>
</g>
<!-- 1&#45;&gt;9491 -->
<g id="edge9" class="edge">
<title>1&#45;&gt;9491</title>
<path fill="none" stroke="black" d="M564,-332.32C564,-324.42 564,-316.13 564,-307.98"/>
<polygon fill="black" stroke="black" points="567.5,-308.12 564,-298.12 560.5,-308.12 567.5,-308.12"/>
</g>
<!-- 3 -->
<g id="node4" class="node">
<title>3</title>
<path fill="#ffffff" stroke="black" d="M172,-166.25C172,-166.25 12,-166.25 12,-166.25 6,-166.25 0,-160.25 0,-154.25 0,-154.25 0,-84 0,-84 0,-78 6,-72 12,-72 12,-72 172,-72 172,-72 178,-72 184,-78 184,-84 184,-84 184,-154.25 184,-154.25 184,-160.25 178,-166.25 172,-166.25"/>
<text text-anchor="middle" x="92" y="-148.95" font-family="Helvetica,sans-Serif" font-size="14.00">22_G &lt;= 0.5</text>
<text text-anchor="middle" x="92" y="-131.7" font-family="Helvetica,sans-Serif" font-size="14.00">entropy = 1.0</text>
<text text-anchor="middle" x="92" y="-114.45" font-family="Helvetica,sans-Serif" font-size="14.00">samples = 12896</text>
<text text-anchor="middle" x="92" y="-97.2" font-family="Helvetica,sans-Serif" font-size="14.00">value = [10122, 10137]</text>
<text text-anchor="middle" x="92" y="-79.95" font-family="Helvetica,sans-Serif" font-size="14.00">class = Plant</text>
</g>
<!-- 2&#45;&gt;3 -->
<g id="edge3" class="edge">
<title>2&#45;&gt;3</title>
<path fill="none" stroke="black" d="M218.24,-201.89C203.71,-192.48 188.34,-182.53 173.5,-172.92"/>
<polygon fill="black" stroke="black" points="175.42,-169.99 165.12,-167.49 171.61,-175.86 175.42,-169.99"/>
</g>
<!-- 6332 -->
<g id="node7" class="node">
<title>6332</title>
<path fill="#92c9f1" stroke="black" d="M365.5,-166.25C365.5,-166.25 214.5,-166.25 214.5,-166.25 208.5,-166.25 202.5,-160.25 202.5,-154.25 202.5,-154.25 202.5,-84 202.5,-84 202.5,-78 208.5,-72 214.5,-72 214.5,-72 365.5,-72 365.5,-72 371.5,-72 377.5,-78 377.5,-84 377.5,-84 377.5,-154.25 377.5,-154.25 377.5,-160.25 371.5,-166.25 365.5,-166.25"/>
<text text-anchor="middle" x="290" y="-148.95" font-family="Helvetica,sans-Serif" font-size="14.00">22_U &lt;= 0.5</text>
<text text-anchor="middle" x="290" y="-131.7" font-family="Helvetica,sans-Serif" font-size="14.00">entropy = 0.895</text>
<text text-anchor="middle" x="290" y="-114.45" font-family="Helvetica,sans-Serif" font-size="14.00">samples = 9759</text>
<text text-anchor="middle" x="290" y="-97.2" font-family="Helvetica,sans-Serif" font-size="14.00">value = [4834, 10697]</text>
<text text-anchor="middle" x="290" y="-79.95" font-family="Helvetica,sans-Serif" font-size="14.00">class = Plant</text>
</g>
<!-- 2&#45;&gt;6332 -->
<g id="edge6" class="edge">
<title>2&#45;&gt;6332</title>
<path fill="none" stroke="black" d="M290,-202.07C290,-194.17 290,-185.88 290,-177.73"/>
<polygon fill="black" stroke="black" points="293.5,-177.87 290,-167.87 286.5,-177.87 293.5,-177.87"/>
</g>
<!-- 4 -->
<g id="node5" class="node">
<title>4</title>
<path fill="#c0c0c0" stroke="black" d="M71,-36C71,-36 41,-36 41,-36 35,-36 29,-30 29,-24 29,-24 29,-12 29,-12 29,-6 35,0 41,0 41,0 71,0 71,0 77,0 83,-6 83,-12 83,-12 83,-24 83,-24 83,-30 77,-36 71,-36"/>
<text text-anchor="middle" x="56" y="-13.32" font-family="Helvetica,sans-Serif" font-size="14.00">(...)</text>
</g>
<!-- 3&#45;&gt;4 -->
<g id="edge4" class="edge">
<title>3&#45;&gt;4</title>
<path fill="none" stroke="black" d="M75.16,-71.75C72.06,-63.22 68.92,-54.57 66.1,-46.8"/>
<polygon fill="black" stroke="black" points="69.46,-45.8 62.75,-37.6 62.88,-48.19 69.46,-45.8"/>
</g>
<!-- 5601 -->
<g id="node6" class="node">
<title>5601</title>
<path fill="#c0c0c0" stroke="black" d="M143,-36C143,-36 113,-36 113,-36 107,-36 101,-30 101,-24 101,-24 101,-12 101,-12 101,-6 107,0 113,0 113,0 143,0 143,0 149,0 155,-6 155,-12 155,-12 155,-24 155,-24 155,-30 149,-36 143,-36"/>
<text text-anchor="middle" x="128" y="-13.32" font-family="Helvetica,sans-Serif" font-size="14.00">(...)</text>
</g>
<!-- 3&#45;&gt;5601 -->
<g id="edge5" class="edge">
<title>3&#45;&gt;5601</title>
<path fill="none" stroke="black" d="M108.84,-71.75C111.94,-63.22 115.08,-54.57 117.9,-46.8"/>
<polygon fill="black" stroke="black" points="121.12,-48.19 121.25,-37.6 114.54,-45.8 121.12,-48.19"/>
</g>
<!-- 6333 -->
<g id="node8" class="node">
<title>6333</title>
<path fill="#c0c0c0" stroke="black" d="M274,-36C274,-36 244,-36 244,-36 238,-36 232,-30 232,-24 232,-24 232,-12 232,-12 232,-6 238,0 244,0 244,0 274,0 274,0 280,0 286,-6 286,-12 286,-12 286,-24 286,-24 286,-30 280,-36 274,-36"/>
<text text-anchor="middle" x="259" y="-13.32" font-family="Helvetica,sans-Serif" font-size="14.00">(...)</text>
</g>
<!-- 6332&#45;&gt;6333 -->
<g id="edge7" class="edge">
<title>6332&#45;&gt;6333</title>
<path fill="none" stroke="black" d="M275.5,-71.75C272.86,-63.32 270.19,-54.77 267.78,-47.07"/>
<polygon fill="black" stroke="black" points="271.15,-46.12 264.82,-37.62 264.47,-48.21 271.15,-46.12"/>
</g>
<!-- 9074 -->
<g id="node9" class="node">
<title>9074</title>
<path fill="#c0c0c0" stroke="black" d="M346,-36C346,-36 316,-36 316,-36 310,-36 304,-30 304,-24 304,-24 304,-12 304,-12 304,-6 310,0 316,0 316,0 346,0 346,0 352,0 358,-6 358,-12 358,-12 358,-24 358,-24 358,-30 352,-36 346,-36"/>
<text text-anchor="middle" x="331" y="-13.32" font-family="Helvetica,sans-Serif" font-size="14.00">(...)</text>
</g>
<!-- 6332&#45;&gt;9074 -->
<g id="edge8" class="edge">
<title>6332&#45;&gt;9074</title>
<path fill="none" stroke="black" d="M309.18,-71.75C312.71,-63.22 316.29,-54.57 319.5,-46.8"/>
<polygon fill="black" stroke="black" points="322.73,-48.15 323.32,-37.57 316.26,-45.47 322.73,-48.15"/>
</g>
<!-- 9492 -->
<g id="node11" class="node">
<title>9492</title>
<path fill="#fbeade" stroke="black" d="M550,-166.25C550,-166.25 408,-166.25 408,-166.25 402,-166.25 396,-160.25 396,-154.25 396,-154.25 396,-84 396,-84 396,-78 402,-72 408,-72 408,-72 550,-72 550,-72 556,-72 562,-78 562,-84 562,-84 562,-154.25 562,-154.25 562,-160.25 556,-166.25 550,-166.25"/>
<text text-anchor="middle" x="479" y="-148.95" font-family="Helvetica,sans-Serif" font-size="14.00">12_G &lt;= 0.5</text>
<text text-anchor="middle" x="479" y="-131.7" font-family="Helvetica,sans-Serif" font-size="14.00">entropy = 0.994</text>
<text text-anchor="middle" x="479" y="-114.45" font-family="Helvetica,sans-Serif" font-size="14.00">samples = 4998</text>
<text text-anchor="middle" x="479" y="-97.2" font-family="Helvetica,sans-Serif" font-size="14.00">value = [4347, 3620]</text>
<text text-anchor="middle" x="479" y="-79.95" font-family="Helvetica,sans-Serif" font-size="14.00">class = Animal</text>
</g>
<!-- 9491&#45;&gt;9492 -->
<g id="edge10" class="edge">
<title>9491&#45;&gt;9492</title>
<path fill="none" stroke="black" d="M533.31,-202.07C527.66,-193.54 521.7,-184.54 515.88,-175.77"/>
<polygon fill="black" stroke="black" points="518.92,-174.02 510.48,-167.62 513.09,-177.89 518.92,-174.02"/>
</g>
<!-- 11829 -->
<g id="node14" class="node">
<title>11829</title>
<path fill="#eda673" stroke="black" d="M725.5,-166.25C725.5,-166.25 592.5,-166.25 592.5,-166.25 586.5,-166.25 580.5,-160.25 580.5,-154.25 580.5,-154.25 580.5,-84 580.5,-84 580.5,-78 586.5,-72 592.5,-72 592.5,-72 725.5,-72 725.5,-72 731.5,-72 737.5,-78 737.5,-84 737.5,-84 737.5,-154.25 737.5,-154.25 737.5,-160.25 731.5,-166.25 725.5,-166.25"/>
<text text-anchor="middle" x="659" y="-148.95" font-family="Helvetica,sans-Serif" font-size="14.00">10_A &lt;= 0.5</text>
<text text-anchor="middle" x="659" y="-131.7" font-family="Helvetica,sans-Serif" font-size="14.00">entropy = 0.773</text>
<text text-anchor="middle" x="659" y="-114.45" font-family="Helvetica,sans-Serif" font-size="14.00">samples = 1569</text>
<text text-anchor="middle" x="659" y="-97.2" font-family="Helvetica,sans-Serif" font-size="14.00">value = [1925, 566]</text>
<text text-anchor="middle" x="659" y="-79.95" font-family="Helvetica,sans-Serif" font-size="14.00">class = Animal</text>
</g>
<!-- 9491&#45;&gt;11829 -->
<g id="edge13" class="edge">
<title>9491&#45;&gt;11829</title>
<path fill="none" stroke="black" d="M598.3,-202.07C604.69,-193.45 611.42,-184.35 617.99,-175.49"/>
<polygon fill="black" stroke="black" points="620.71,-177.69 623.85,-167.57 615.09,-173.53 620.71,-177.69"/>
</g>
<!-- 9493 -->
<g id="node12" class="node">
<title>9493</title>
<path fill="#c0c0c0" stroke="black" d="M440,-36C440,-36 410,-36 410,-36 404,-36 398,-30 398,-24 398,-24 398,-12 398,-12 398,-6 404,0 410,0 410,0 440,0 440,0 446,0 452,-6 452,-12 452,-12 452,-24 452,-24 452,-30 446,-36 440,-36"/>
<text text-anchor="middle" x="425" y="-13.32" font-family="Helvetica,sans-Serif" font-size="14.00">(...)</text>
</g>
<!-- 9492&#45;&gt;9493 -->
<g id="edge11" class="edge">
<title>9492&#45;&gt;9493</title>
<path fill="none" stroke="black" d="M453.74,-71.75C448.98,-63.03 444.16,-54.16 439.85,-46.26"/>
<polygon fill="black" stroke="black" points="442.94,-44.61 435.08,-37.5 436.79,-47.96 442.94,-44.61"/>
</g>
<!-- 11154 -->
<g id="node13" class="node">
<title>11154</title>
<path fill="#c0c0c0" stroke="black" d="M512,-36C512,-36 482,-36 482,-36 476,-36 470,-30 470,-24 470,-24 470,-12 470,-12 470,-6 476,0 482,0 482,0 512,0 512,0 518,0 524,-6 524,-12 524,-12 524,-24 524,-24 524,-30 518,-36 512,-36"/>
<text text-anchor="middle" x="497" y="-13.32" font-family="Helvetica,sans-Serif" font-size="14.00">(...)</text>
</g>
<!-- 9492&#45;&gt;11154 -->
<g id="edge12" class="edge">
<title>9492&#45;&gt;11154</title>
<path fill="none" stroke="black" d="M487.42,-71.75C488.93,-63.42 490.47,-54.97 491.85,-47.34"/>
<polygon fill="black" stroke="black" points="495.27,-48.13 493.61,-37.66 488.38,-46.88 495.27,-48.13"/>
</g>
<!-- 11830 -->
<g id="node15" class="node">
<title>11830</title>
<path fill="#c0c0c0" stroke="black" d="M620,-36C620,-36 590,-36 590,-36 584,-36 578,-30 578,-24 578,-24 578,-12 578,-12 578,-6 584,0 590,0 590,0 620,0 620,0 626,0 632,-6 632,-12 632,-12 632,-24 632,-24 632,-30 626,-36 620,-36"/>
<text text-anchor="middle" x="605" y="-13.32" font-family="Helvetica,sans-Serif" font-size="14.00">(...)</text>
</g>
<!-- 11829&#45;&gt;11830 -->
<g id="edge14" class="edge">
<title>11829&#45;&gt;11830</title>
<path fill="none" stroke="black" d="M633.74,-71.75C628.98,-63.03 624.16,-54.16 619.85,-46.26"/>
<polygon fill="black" stroke="black" points="622.94,-44.61 615.08,-37.5 616.79,-47.96 622.94,-44.61"/>
</g>
<!-- 12339 -->
<g id="node16" class="node">
<title>12339</title>
<path fill="#c0c0c0" stroke="black" d="M692,-36C692,-36 662,-36 662,-36 656,-36 650,-30 650,-24 650,-24 650,-12 650,-12 650,-6 656,0 662,0 662,0 692,0 692,0 698,0 704,-6 704,-12 704,-12 704,-24 704,-24 704,-30 698,-36 692,-36"/>
<text text-anchor="middle" x="677" y="-13.32" font-family="Helvetica,sans-Serif" font-size="14.00">(...)</text>
</g>
<!-- 11829&#45;&gt;12339 -->
<g id="edge15" class="edge">
<title>11829&#45;&gt;12339</title>
<path fill="none" stroke="black" d="M667.42,-71.75C668.93,-63.42 670.47,-54.97 671.85,-47.34"/>
<polygon fill="black" stroke="black" points="675.27,-48.13 673.61,-37.66 668.38,-46.88 675.27,-48.13"/>
</g>
<!-- 12489 -->
<g id="node18" class="node">
<title>12489</title>
<path fill="#f5d0b5" stroke="black" d="M1002,-296.5C1002,-296.5 860,-296.5 860,-296.5 854,-296.5 848,-290.5 848,-284.5 848,-284.5 848,-214.25 848,-214.25 848,-208.25 854,-202.25 860,-202.25 860,-202.25 1002,-202.25 1002,-202.25 1008,-202.25 1014,-208.25 1014,-214.25 1014,-214.25 1014,-284.5 1014,-284.5 1014,-290.5 1008,-296.5 1002,-296.5"/>
<text text-anchor="middle" x="931" y="-279.2" font-family="Helvetica,sans-Serif" font-size="14.00">12_C &lt;= 0.5</text>
<text text-anchor="middle" x="931" y="-261.95" font-family="Helvetica,sans-Serif" font-size="14.00">entropy = 0.962</text>
<text text-anchor="middle" x="931" y="-244.7" font-family="Helvetica,sans-Serif" font-size="14.00">samples = 6575</text>
<text text-anchor="middle" x="931" y="-227.45" font-family="Helvetica,sans-Serif" font-size="14.00">value = [6378, 3999]</text>
<text text-anchor="middle" x="931" y="-210.2" font-family="Helvetica,sans-Serif" font-size="14.00">class = Animal</text>
</g>
<!-- 12488&#45;&gt;12489 -->
<g id="edge17" class="edge">
<title>12488&#45;&gt;12489</title>
<path fill="none" stroke="black" d="M931,-332.32C931,-324.42 931,-316.13 931,-307.98"/>
<polygon fill="black" stroke="black" points="934.5,-308.12 931,-298.12 927.5,-308.12 934.5,-308.12"/>
</g>
<!-- 15976 -->
<g id="node25" class="node">
<title>15976</title>
<path fill="#eeae80" stroke="black" d="M1269.5,-296.5C1269.5,-296.5 1136.5,-296.5 1136.5,-296.5 1130.5,-296.5 1124.5,-290.5 1124.5,-284.5 1124.5,-284.5 1124.5,-214.25 1124.5,-214.25 1124.5,-208.25 1130.5,-202.25 1136.5,-202.25 1136.5,-202.25 1269.5,-202.25 1269.5,-202.25 1275.5,-202.25 1281.5,-208.25 1281.5,-214.25 1281.5,-214.25 1281.5,-284.5 1281.5,-284.5 1281.5,-290.5 1275.5,-296.5 1269.5,-296.5"/>
<text text-anchor="middle" x="1203" y="-279.2" font-family="Helvetica,sans-Serif" font-size="14.00">16_U &lt;= 0.5</text>
<text text-anchor="middle" x="1203" y="-261.95" font-family="Helvetica,sans-Serif" font-size="14.00">entropy = 0.831</text>
<text text-anchor="middle" x="1203" y="-244.7" font-family="Helvetica,sans-Serif" font-size="14.00">samples = 2286</text>
<text text-anchor="middle" x="1203" y="-227.45" font-family="Helvetica,sans-Serif" font-size="14.00">value = [2743, 977]</text>
<text text-anchor="middle" x="1203" y="-210.2" font-family="Helvetica,sans-Serif" font-size="14.00">class = Animal</text>
</g>
<!-- 12488&#45;&gt;15976 -->
<g id="edge24" class="edge">
<title>12488&#45;&gt;15976</title>
<path fill="none" stroke="black" d="M1014.46,-339.27C1046.02,-324.39 1082.05,-307.4 1114.1,-292.29"/>
<polygon fill="black" stroke="black" points="1115.43,-295.54 1122.98,-288.1 1112.44,-289.2 1115.43,-295.54"/>
</g>
<!-- 12490 -->
<g id="node19" class="node">
<title>12490</title>
<path fill="#f3c6a6" stroke="black" d="M910,-166.25C910,-166.25 768,-166.25 768,-166.25 762,-166.25 756,-160.25 756,-154.25 756,-154.25 756,-84 756,-84 756,-78 762,-72 768,-72 768,-72 910,-72 910,-72 916,-72 922,-78 922,-84 922,-84 922,-154.25 922,-154.25 922,-160.25 916,-166.25 910,-166.25"/>
<text text-anchor="middle" x="839" y="-148.95" font-family="Helvetica,sans-Serif" font-size="14.00">20_C &lt;= 0.5</text>
<text text-anchor="middle" x="839" y="-131.7" font-family="Helvetica,sans-Serif" font-size="14.00">entropy = 0.938</text>
<text text-anchor="middle" x="839" y="-114.45" font-family="Helvetica,sans-Serif" font-size="14.00">samples = 4891</text>
<text text-anchor="middle" x="839" y="-97.2" font-family="Helvetica,sans-Serif" font-size="14.00">value = [4991, 2745]</text>
<text text-anchor="middle" x="839" y="-79.95" font-family="Helvetica,sans-Serif" font-size="14.00">class = Animal</text>
</g>
<!-- 12489&#45;&gt;12490 -->
<g id="edge18" class="edge">
<title>12489&#45;&gt;12490</title>
<path fill="none" stroke="black" d="M897.79,-202.07C891.6,-193.45 885.07,-184.35 878.71,-175.49"/>
<polygon fill="black" stroke="black" points="881.72,-173.67 873.05,-167.59 876.03,-177.75 881.72,-173.67"/>
</g>
<!-- 15215 -->
<g id="node22" class="node">
<title>15215</title>
<path fill="#fdf3ec" stroke="black" d="M1094,-166.25C1094,-166.25 952,-166.25 952,-166.25 946,-166.25 940,-160.25 940,-154.25 940,-154.25 940,-84 940,-84 940,-78 946,-72 952,-72 952,-72 1094,-72 1094,-72 1100,-72 1106,-78 1106,-84 1106,-84 1106,-154.25 1106,-154.25 1106,-160.25 1100,-166.25 1094,-166.25"/>
<text text-anchor="middle" x="1023" y="-148.95" font-family="Helvetica,sans-Serif" font-size="14.00">20_C &lt;= 0.5</text>
<text text-anchor="middle" x="1023" y="-131.7" font-family="Helvetica,sans-Serif" font-size="14.00">entropy = 0.998</text>
<text text-anchor="middle" x="1023" y="-114.45" font-family="Helvetica,sans-Serif" font-size="14.00">samples = 1684</text>
<text text-anchor="middle" x="1023" y="-97.2" font-family="Helvetica,sans-Serif" font-size="14.00">value = [1387, 1254]</text>
<text text-anchor="middle" x="1023" y="-79.95" font-family="Helvetica,sans-Serif" font-size="14.00">class = Animal</text>
</g>
<!-- 12489&#45;&gt;15215 -->
<g id="edge21" class="edge">
<title>12489&#45;&gt;15215</title>
<path fill="none" stroke="black" d="M964.21,-202.07C970.4,-193.45 976.93,-184.35 983.29,-175.49"/>
<polygon fill="black" stroke="black" points="985.97,-177.75 988.95,-167.59 980.28,-173.67 985.97,-177.75"/>
</g>
<!-- 12491 -->
<g id="node20" class="node">
<title>12491</title>
<path fill="#c0c0c0" stroke="black" d="M802,-36C802,-36 772,-36 772,-36 766,-36 760,-30 760,-24 760,-24 760,-12 760,-12 760,-6 766,0 772,0 772,0 802,0 802,0 808,0 814,-6 814,-12 814,-12 814,-24 814,-24 814,-30 808,-36 802,-36"/>
<text text-anchor="middle" x="787" y="-13.32" font-family="Helvetica,sans-Serif" font-size="14.00">(...)</text>
</g>
<!-- 12490&#45;&gt;12491 -->
<g id="edge19" class="edge">
<title>12490&#45;&gt;12491</title>
<path fill="none" stroke="black" d="M814.67,-71.75C810.1,-63.03 805.45,-54.16 801.3,-46.26"/>
<polygon fill="black" stroke="black" points="804.46,-44.74 796.71,-37.51 798.26,-47.99 804.46,-44.74"/>
</g>
<!-- 14624 -->
<g id="node21" class="node">
<title>14624</title>
<path fill="#c0c0c0" stroke="black" d="M874,-36C874,-36 844,-36 844,-36 838,-36 832,-30 832,-24 832,-24 832,-12 832,-12 832,-6 838,0 844,0 844,0 874,0 874,0 880,0 886,-6 886,-12 886,-12 886,-24 886,-24 886,-30 880,-36 874,-36"/>
<text text-anchor="middle" x="859" y="-13.32" font-family="Helvetica,sans-Serif" font-size="14.00">(...)</text>
</g>
<!-- 12490&#45;&gt;14624 -->
<g id="edge20" class="edge">
<title>12490&#45;&gt;14624</title>
<path fill="none" stroke="black" d="M848.36,-71.75C850.04,-63.42 851.74,-54.97 853.28,-47.34"/>
<polygon fill="black" stroke="black" points="856.69,-48.15 855.24,-37.66 849.83,-46.77 856.69,-48.15"/>
</g>
<!-- 15216 -->
<g id="node23" class="node">
<title>15216</title>
<path fill="#c0c0c0" stroke="black" d="M984,-36C984,-36 954,-36 954,-36 948,-36 942,-30 942,-24 942,-24 942,-12 942,-12 942,-6 948,0 954,0 954,0 984,0 984,0 990,0 996,-6 996,-12 996,-12 996,-24 996,-24 996,-30 990,-36 984,-36"/>
<text text-anchor="middle" x="969" y="-13.32" font-family="Helvetica,sans-Serif" font-size="14.00">(...)</text>
</g>
<!-- 15215&#45;&gt;15216 -->
<g id="edge22" class="edge">
<title>15215&#45;&gt;15216</title>
<path fill="none" stroke="black" d="M997.74,-71.75C992.98,-63.03 988.16,-54.16 983.85,-46.26"/>
<polygon fill="black" stroke="black" points="986.94,-44.61 979.08,-37.5 980.79,-47.96 986.94,-44.61"/>
</g>
<!-- 15795 -->
<g id="node24" class="node">
<title>15795</title>
<path fill="#c0c0c0" stroke="black" d="M1056,-36C1056,-36 1026,-36 1026,-36 1020,-36 1014,-30 1014,-24 1014,-24 1014,-12 1014,-12 1014,-6 1020,0 1026,0 1026,0 1056,0 1056,0 1062,0 1068,-6 1068,-12 1068,-12 1068,-24 1068,-24 1068,-30 1062,-36 1056,-36"/>
<text text-anchor="middle" x="1041" y="-13.32" font-family="Helvetica,sans-Serif" font-size="14.00">(...)</text>
</g>
<!-- 15215&#45;&gt;15795 -->
<g id="edge23" class="edge">
<title>15215&#45;&gt;15795</title>
<path fill="none" stroke="black" d="M1031.42,-71.75C1032.93,-63.42 1034.47,-54.97 1035.85,-47.34"/>
<polygon fill="black" stroke="black" points="1039.27,-48.13 1037.61,-37.66 1032.38,-46.88 1039.27,-48.13"/>
</g>
<!-- 15977 -->
<g id="node26" class="node">
<title>15977</title>
<path fill="#eeac7c" stroke="black" d="M1269.5,-166.25C1269.5,-166.25 1136.5,-166.25 1136.5,-166.25 1130.5,-166.25 1124.5,-160.25 1124.5,-154.25 1124.5,-154.25 1124.5,-84 1124.5,-84 1124.5,-78 1130.5,-72 1136.5,-72 1136.5,-72 1269.5,-72 1269.5,-72 1275.5,-72 1281.5,-78 1281.5,-84 1281.5,-84 1281.5,-154.25 1281.5,-154.25 1281.5,-160.25 1275.5,-166.25 1269.5,-166.25"/>
<text text-anchor="middle" x="1203" y="-148.95" font-family="Helvetica,sans-Serif" font-size="14.00">22_G &lt;= 0.5</text>
<text text-anchor="middle" x="1203" y="-131.7" font-family="Helvetica,sans-Serif" font-size="14.00">entropy = 0.817</text>
<text text-anchor="middle" x="1203" y="-114.45" font-family="Helvetica,sans-Serif" font-size="14.00">samples = 1779</text>
<text text-anchor="middle" x="1203" y="-97.2" font-family="Helvetica,sans-Serif" font-size="14.00">value = [2170, 738]</text>
<text text-anchor="middle" x="1203" y="-79.95" font-family="Helvetica,sans-Serif" font-size="14.00">class = Animal</text>
</g>
<!-- 15976&#45;&gt;15977 -->
<g id="edge25" class="edge">
<title>15976&#45;&gt;15977</title>
<path fill="none" stroke="black" d="M1203,-202.07C1203,-194.17 1203,-185.88 1203,-177.73"/>
<polygon fill="black" stroke="black" points="1206.5,-177.87 1203,-167.87 1199.5,-177.87 1206.5,-177.87"/>
</g>
<!-- 16686 -->
<g id="node29" class="node">
<title>16686</title>
<path fill="#f0b68c" stroke="black" d="M1436,-166.25C1436,-166.25 1312,-166.25 1312,-166.25 1306,-166.25 1300,-160.25 1300,-154.25 1300,-154.25 1300,-84 1300,-84 1300,-78 1306,-72 1312,-72 1312,-72 1436,-72 1436,-72 1442,-72 1448,-78 1448,-84 1448,-84 1448,-154.25 1448,-154.25 1448,-160.25 1442,-166.25 1436,-166.25"/>
<text text-anchor="middle" x="1374" y="-148.95" font-family="Helvetica,sans-Serif" font-size="14.00">22_U &lt;= 0.5</text>
<text text-anchor="middle" x="1374" y="-131.7" font-family="Helvetica,sans-Serif" font-size="14.00">entropy = 0.874</text>
<text text-anchor="middle" x="1374" y="-114.45" font-family="Helvetica,sans-Serif" font-size="14.00">samples = 507</text>
<text text-anchor="middle" x="1374" y="-97.2" font-family="Helvetica,sans-Serif" font-size="14.00">value = [573, 239]</text>
<text text-anchor="middle" x="1374" y="-79.95" font-family="Helvetica,sans-Serif" font-size="14.00">class = Animal</text>
</g>
<!-- 15976&#45;&gt;16686 -->
<g id="edge28" class="edge">
<title>15976&#45;&gt;16686</title>
<path fill="none" stroke="black" d="M1264.73,-202.07C1277.13,-192.78 1290.25,-182.94 1302.93,-173.43"/>
<polygon fill="black" stroke="black" points="1304.96,-176.28 1310.86,-167.48 1300.76,-170.68 1304.96,-176.28"/>
</g>
<!-- 15978 -->
<g id="node27" class="node">
<title>15978</title>
<path fill="#c0c0c0" stroke="black" d="M1177,-36C1177,-36 1147,-36 1147,-36 1141,-36 1135,-30 1135,-24 1135,-24 1135,-12 1135,-12 1135,-6 1141,0 1147,0 1147,0 1177,0 1177,0 1183,0 1189,-6 1189,-12 1189,-12 1189,-24 1189,-24 1189,-30 1183,-36 1177,-36"/>
<text text-anchor="middle" x="1162" y="-13.32" font-family="Helvetica,sans-Serif" font-size="14.00">(...)</text>
</g>
<!-- 15977&#45;&gt;15978 -->
<g id="edge26" class="edge">
<title>15977&#45;&gt;15978</title>
<path fill="none" stroke="black" d="M1183.82,-71.75C1180.29,-63.22 1176.71,-54.57 1173.5,-46.8"/>
<polygon fill="black" stroke="black" points="1176.74,-45.47 1169.68,-37.57 1170.27,-48.15 1176.74,-45.47"/>
</g>
<!-- 16579 -->
<g id="node28" class="node">
<title>16579</title>
<path fill="#c0c0c0" stroke="black" d="M1249,-36C1249,-36 1219,-36 1219,-36 1213,-36 1207,-30 1207,-24 1207,-24 1207,-12 1207,-12 1207,-6 1213,0 1219,0 1219,0 1249,0 1249,0 1255,0 1261,-6 1261,-12 1261,-12 1261,-24 1261,-24 1261,-30 1255,-36 1249,-36"/>
<text text-anchor="middle" x="1234" y="-13.32" font-family="Helvetica,sans-Serif" font-size="14.00">(...)</text>
</g>
<!-- 15977&#45;&gt;16579 -->
<g id="edge27" class="edge">
<title>15977&#45;&gt;16579</title>
<path fill="none" stroke="black" d="M1217.5,-71.75C1220.14,-63.32 1222.81,-54.77 1225.22,-47.07"/>
<polygon fill="black" stroke="black" points="1228.53,-48.21 1228.18,-37.62 1221.85,-46.12 1228.53,-48.21"/>
</g>
<!-- 16687 -->
<g id="node30" class="node">
<title>16687</title>
<path fill="#c0c0c0" stroke="black" d="M1353,-36C1353,-36 1323,-36 1323,-36 1317,-36 1311,-30 1311,-24 1311,-24 1311,-12 1311,-12 1311,-6 1317,0 1323,0 1323,0 1353,0 1353,0 1359,0 1365,-6 1365,-12 1365,-12 1365,-24 1365,-24 1365,-30 1359,-36 1353,-36"/>
<text text-anchor="middle" x="1338" y="-13.32" font-family="Helvetica,sans-Serif" font-size="14.00">(...)</text>
</g>
<!-- 16686&#45;&gt;16687 -->
<g id="edge29" class="edge">
<title>16686&#45;&gt;16687</title>
<path fill="none" stroke="black" d="M1357.16,-71.75C1354.06,-63.22 1350.92,-54.57 1348.1,-46.8"/>
<polygon fill="black" stroke="black" points="1351.46,-45.8 1344.75,-37.6 1344.88,-48.19 1351.46,-45.8"/>
</g>
<!-- 16908 -->
<g id="node31" class="node">
<title>16908</title>
<path fill="#c0c0c0" stroke="black" d="M1425,-36C1425,-36 1395,-36 1395,-36 1389,-36 1383,-30 1383,-24 1383,-24 1383,-12 1383,-12 1383,-6 1389,0 1395,0 1395,0 1425,0 1425,0 1431,0 1437,-6 1437,-12 1437,-12 1437,-24 1437,-24 1437,-30 1431,-36 1425,-36"/>
<text text-anchor="middle" x="1410" y="-13.32" font-family="Helvetica,sans-Serif" font-size="14.00">(...)</text>
</g>
<!-- 16686&#45;&gt;16908 -->
<g id="edge30" class="edge">
<title>16686&#45;&gt;16908</title>
<path fill="none" stroke="black" d="M1390.84,-71.75C1393.94,-63.22 1397.08,-54.57 1399.9,-46.8"/>
<polygon fill="black" stroke="black" points="1403.12,-48.19 1403.25,-37.6 1396.54,-45.8 1403.12,-48.19"/>
</g>
</g>
</svg>
