<?xml version="1.0" encoding="UTF-8" standalone="no"?>
<!DOCTYPE svg PUBLIC "-//W3C//DTD SVG 1.1//EN"
 "http://www.w3.org/Graphics/SVG/1.1/DTD/svg11.dtd">
<!-- Generated by graphviz version 12.0.0 (20240803.0821)
 -->
<!-- Title: Tree Pages: 1 -->
<svg width="1464pt" height="565pt"
 viewBox="0.00 0.00 1464.00 565.00" xmlns="http://www.w3.org/2000/svg" xmlns:xlink="http://www.w3.org/1999/xlink">
<g id="graph0" class="graph" transform="scale(1 1) rotate(0) translate(4 561)">
<title>Tree</title>
<polygon fill="white" stroke="none" points="-4,4 -4,-561 1460,-561 1460,4 -4,4"/>
<!-- 0 -->
<g id="node1" class="node">
<title>0</title>
<path fill="#ffffff" stroke="black" d="M803.5,-557C803.5,-557 643.5,-557 643.5,-557 637.5,-557 631.5,-551 631.5,-545 631.5,-545 631.5,-474.75 631.5,-474.75 631.5,-468.75 637.5,-462.75 643.5,-462.75 643.5,-462.75 803.5,-462.75 803.5,-462.75 809.5,-462.75 815.5,-468.75 815.5,-474.75 815.5,-474.75 815.5,-545 815.5,-545 815.5,-551 809.5,-557 803.5,-557"/>
<text text-anchor="middle" x="723.5" y="-539.7" font-family="Helvetica,sans-Serif" font-size="14.00">1_U &lt;= 0.5</text>
<text text-anchor="middle" x="723.5" y="-522.45" font-family="Helvetica,sans-Serif" font-size="14.00">entropy = 1.0</text>
<text text-anchor="middle" x="723.5" y="-505.2" font-family="Helvetica,sans-Serif" font-size="14.00">samples = 38212</text>
<text text-anchor="middle" x="723.5" y="-487.95" font-family="Helvetica,sans-Serif" font-size="14.00">value = [30139, 30206]</text>
<text text-anchor="middle" x="723.5" y="-470.7" font-family="Helvetica,sans-Serif" font-size="14.00">class = Plant</text>
</g>
<!-- 1 -->
<g id="node2" class="node">
<title>1</title>
<path fill="#f7dac6" stroke="black" d="M621.5,-426.75C621.5,-426.75 461.5,-426.75 461.5,-426.75 455.5,-426.75 449.5,-420.75 449.5,-414.75 449.5,-414.75 449.5,-344.5 449.5,-344.5 449.5,-338.5 455.5,-332.5 461.5,-332.5 461.5,-332.5 621.5,-332.5 621.5,-332.5 627.5,-332.5 633.5,-338.5 633.5,-344.5 633.5,-344.5 633.5,-414.75 633.5,-414.75 633.5,-420.75 627.5,-426.75 621.5,-426.75"/>
<text text-anchor="middle" x="541.5" y="-409.45" font-family="Helvetica,sans-Serif" font-size="14.00">12_G &lt;= 0.5</text>
<text text-anchor="middle" x="541.5" y="-392.2" font-family="Helvetica,sans-Serif" font-size="14.00">entropy = 0.979</text>
<text text-anchor="middle" x="541.5" y="-374.95" font-family="Helvetica,sans-Serif" font-size="14.00">samples = 17966</text>
<text text-anchor="middle" x="541.5" y="-357.7" font-family="Helvetica,sans-Serif" font-size="14.00">value = [16597, 11783]</text>
<text text-anchor="middle" x="541.5" y="-340.45" font-family="Helvetica,sans-Serif" font-size="14.00">class = Animal</text>
</g>
<!-- 0&#45;&gt;1 -->
<g id="edge1" class="edge">
<title>0&#45;&gt;1</title>
<path fill="none" stroke="black" d="M657.54,-462.39C644.31,-453.07 630.32,-443.22 616.81,-433.69"/>
<polygon fill="black" stroke="black" points="618.97,-430.94 608.78,-428.04 614.94,-436.66 618.97,-430.94"/>
<text text-anchor="middle" x="611.81" y="-447.12" font-family="Helvetica,sans-Serif" font-size="14.00">True</text>
</g>
<!-- 9686 -->
<g id="node17" class="node">
<title>9686</title>
<path fill="#cbe5f8" stroke="black" d="M996.5,-426.75C996.5,-426.75 836.5,-426.75 836.5,-426.75 830.5,-426.75 824.5,-420.75 824.5,-414.75 824.5,-414.75 824.5,-344.5 824.5,-344.5 824.5,-338.5 830.5,-332.5 836.5,-332.5 836.5,-332.5 996.5,-332.5 996.5,-332.5 1002.5,-332.5 1008.5,-338.5 1008.5,-344.5 1008.5,-344.5 1008.5,-414.75 1008.5,-414.75 1008.5,-420.75 1002.5,-426.75 996.5,-426.75"/>
<text text-anchor="middle" x="916.5" y="-409.45" font-family="Helvetica,sans-Serif" font-size="14.00">9_U &lt;= 0.5</text>
<text text-anchor="middle" x="916.5" y="-392.2" font-family="Helvetica,sans-Serif" font-size="14.00">entropy = 0.983</text>
<text text-anchor="middle" x="916.5" y="-374.95" font-family="Helvetica,sans-Serif" font-size="14.00">samples = 20246</text>
<text text-anchor="middle" x="916.5" y="-357.7" font-family="Helvetica,sans-Serif" font-size="14.00">value = [13542, 18423]</text>
<text text-anchor="middle" x="916.5" y="-340.45" font-family="Helvetica,sans-Serif" font-size="14.00">class = Plant</text>
</g>
<!-- 0&#45;&gt;9686 -->
<g id="edge16" class="edge">
<title>0&#45;&gt;9686</title>
<path fill="none" stroke="black" d="M793.45,-462.39C807.61,-452.98 822.6,-443.03 837.05,-433.42"/>
<polygon fill="black" stroke="black" points="838.81,-436.45 845.2,-428 834.94,-430.62 838.81,-436.45"/>
<text text-anchor="middle" x="841.52" y="-447" font-family="Helvetica,sans-Serif" font-size="14.00">False</text>
</g>
<!-- 2 -->
<g id="node3" class="node">
<title>2</title>
<path fill="#f4cbad" stroke="black" d="M347,-296.5C347,-296.5 196,-296.5 196,-296.5 190,-296.5 184,-290.5 184,-284.5 184,-284.5 184,-214.25 184,-214.25 184,-208.25 190,-202.25 196,-202.25 196,-202.25 347,-202.25 347,-202.25 353,-202.25 359,-208.25 359,-214.25 359,-214.25 359,-284.5 359,-284.5 359,-290.5 353,-296.5 347,-296.5"/>
<text text-anchor="middle" x="271.5" y="-279.2" font-family="Helvetica,sans-Serif" font-size="14.00">23_U &lt;= 0.5</text>
<text text-anchor="middle" x="271.5" y="-261.95" font-family="Helvetica,sans-Serif" font-size="14.00">entropy = 0.95</text>
<text text-anchor="middle" x="271.5" y="-244.7" font-family="Helvetica,sans-Serif" font-size="14.00">samples = 12660</text>
<text text-anchor="middle" x="271.5" y="-227.45" font-family="Helvetica,sans-Serif" font-size="14.00">value = [12582, 7370]</text>
<text text-anchor="middle" x="271.5" y="-210.2" font-family="Helvetica,sans-Serif" font-size="14.00">class = Animal</text>
</g>
<!-- 1&#45;&gt;2 -->
<g id="edge2" class="edge">
<title>1&#45;&gt;2</title>
<path fill="none" stroke="black" d="M449.34,-334.85C423.58,-322.61 395.5,-309.27 369.42,-296.89"/>
<polygon fill="black" stroke="black" points="371.05,-293.79 360.52,-292.66 368.05,-300.11 371.05,-293.79"/>
</g>
<!-- 7065 -->
<g id="node10" class="node">
<title>7065</title>
<path fill="#edf6fd" stroke="black" d="M612.5,-296.5C612.5,-296.5 470.5,-296.5 470.5,-296.5 464.5,-296.5 458.5,-290.5 458.5,-284.5 458.5,-284.5 458.5,-214.25 458.5,-214.25 458.5,-208.25 464.5,-202.25 470.5,-202.25 470.5,-202.25 612.5,-202.25 612.5,-202.25 618.5,-202.25 624.5,-208.25 624.5,-214.25 624.5,-214.25 624.5,-284.5 624.5,-284.5 624.5,-290.5 618.5,-296.5 612.5,-296.5"/>
<text text-anchor="middle" x="541.5" y="-279.2" font-family="Helvetica,sans-Serif" font-size="14.00">9_G &lt;= 0.5</text>
<text text-anchor="middle" x="541.5" y="-261.95" font-family="Helvetica,sans-Serif" font-size="14.00">entropy = 0.998</text>
<text text-anchor="middle" x="541.5" y="-244.7" font-family="Helvetica,sans-Serif" font-size="14.00">samples = 5306</text>
<text text-anchor="middle" x="541.5" y="-227.45" font-family="Helvetica,sans-Serif" font-size="14.00">value = [4015, 4413]</text>
<text text-anchor="middle" x="541.5" y="-210.2" font-family="Helvetica,sans-Serif" font-size="14.00">class = Plant</text>
</g>
<!-- 1&#45;&gt;7065 -->
<g id="edge9" class="edge">
<title>1&#45;&gt;7065</title>
<path fill="none" stroke="black" d="M541.5,-332.32C541.5,-324.42 541.5,-316.13 541.5,-307.98"/>
<polygon fill="black" stroke="black" points="545,-308.12 541.5,-298.12 538,-308.12 545,-308.12"/>
</g>
<!-- 3 -->
<g id="node4" class="node">
<title>3</title>
<path fill="#f5cfb3" stroke="black" d="M163,-166.25C163,-166.25 12,-166.25 12,-166.25 6,-166.25 0,-160.25 0,-154.25 0,-154.25 0,-84 0,-84 0,-78 6,-72 12,-72 12,-72 163,-72 163,-72 169,-72 175,-78 175,-84 175,-84 175,-154.25 175,-154.25 175,-160.25 169,-166.25 163,-166.25"/>
<text text-anchor="middle" x="87.5" y="-148.95" font-family="Helvetica,sans-Serif" font-size="14.00">2_G &lt;= 0.5</text>
<text text-anchor="middle" x="87.5" y="-131.7" font-family="Helvetica,sans-Serif" font-size="14.00">entropy = 0.959</text>
<text text-anchor="middle" x="87.5" y="-114.45" font-family="Helvetica,sans-Serif" font-size="14.00">samples = 11865</text>
<text text-anchor="middle" x="87.5" y="-97.2" font-family="Helvetica,sans-Serif" font-size="14.00">value = [11558, 7126]</text>
<text text-anchor="middle" x="87.5" y="-79.95" font-family="Helvetica,sans-Serif" font-size="14.00">class = Animal</text>
</g>
<!-- 2&#45;&gt;3 -->
<g id="edge3" class="edge">
<title>2&#45;&gt;3</title>
<path fill="none" stroke="black" d="M204.81,-201.89C191.44,-192.57 177.3,-182.72 163.64,-173.19"/>
<polygon fill="black" stroke="black" points="165.72,-170.38 155.51,-167.53 161.71,-176.12 165.72,-170.38"/>
</g>
<!-- 6742 -->
<g id="node7" class="node">
<title>6742</title>
<path fill="#eb9f68" stroke="black" d="M338,-166.25C338,-166.25 205,-166.25 205,-166.25 199,-166.25 193,-160.25 193,-154.25 193,-154.25 193,-84 193,-84 193,-78 199,-72 205,-72 205,-72 338,-72 338,-72 344,-72 350,-78 350,-84 350,-84 350,-154.25 350,-154.25 350,-160.25 344,-166.25 338,-166.25"/>
<text text-anchor="middle" x="271.5" y="-148.95" font-family="Helvetica,sans-Serif" font-size="14.00">13_U &lt;= 0.5</text>
<text text-anchor="middle" x="271.5" y="-131.7" font-family="Helvetica,sans-Serif" font-size="14.00">entropy = 0.707</text>
<text text-anchor="middle" x="271.5" y="-114.45" font-family="Helvetica,sans-Serif" font-size="14.00">samples = 795</text>
<text text-anchor="middle" x="271.5" y="-97.2" font-family="Helvetica,sans-Serif" font-size="14.00">value = [1024, 244]</text>
<text text-anchor="middle" x="271.5" y="-79.95" font-family="Helvetica,sans-Serif" font-size="14.00">class = Animal</text>
</g>
<!-- 2&#45;&gt;6742 -->
<g id="edge6" class="edge">
<title>2&#45;&gt;6742</title>
<path fill="none" stroke="black" d="M271.5,-202.07C271.5,-194.17 271.5,-185.88 271.5,-177.73"/>
<polygon fill="black" stroke="black" points="275,-177.87 271.5,-167.87 268,-177.87 275,-177.87"/>
</g>
<!-- 4 -->
<g id="node5" class="node">
<title>4</title>
<path fill="#c0c0c0" stroke="black" d="M66.5,-36C66.5,-36 36.5,-36 36.5,-36 30.5,-36 24.5,-30 24.5,-24 24.5,-24 24.5,-12 24.5,-12 24.5,-6 30.5,0 36.5,0 36.5,0 66.5,0 66.5,0 72.5,0 78.5,-6 78.5,-12 78.5,-12 78.5,-24 78.5,-24 78.5,-30 72.5,-36 66.5,-36"/>
<text text-anchor="middle" x="51.5" y="-13.32" font-family="Helvetica,sans-Serif" font-size="14.00">(...)</text>
</g>
<!-- 3&#45;&gt;4 -->
<g id="edge4" class="edge">
<title>3&#45;&gt;4</title>
<path fill="none" stroke="black" d="M70.66,-71.75C67.56,-63.22 64.42,-54.57 61.6,-46.8"/>
<polygon fill="black" stroke="black" points="64.96,-45.8 58.25,-37.6 58.38,-48.19 64.96,-45.8"/>
</g>
<!-- 4969 -->
<g id="node6" class="node">
<title>4969</title>
<path fill="#c0c0c0" stroke="black" d="M138.5,-36C138.5,-36 108.5,-36 108.5,-36 102.5,-36 96.5,-30 96.5,-24 96.5,-24 96.5,-12 96.5,-12 96.5,-6 102.5,0 108.5,0 108.5,0 138.5,0 138.5,0 144.5,0 150.5,-6 150.5,-12 150.5,-12 150.5,-24 150.5,-24 150.5,-30 144.5,-36 138.5,-36"/>
<text text-anchor="middle" x="123.5" y="-13.32" font-family="Helvetica,sans-Serif" font-size="14.00">(...)</text>
</g>
<!-- 3&#45;&gt;4969 -->
<g id="edge5" class="edge">
<title>3&#45;&gt;4969</title>
<path fill="none" stroke="black" d="M104.34,-71.75C107.44,-63.22 110.58,-54.57 113.4,-46.8"/>
<polygon fill="black" stroke="black" points="116.62,-48.19 116.75,-37.6 110.04,-45.8 116.62,-48.19"/>
</g>
<!-- 6743 -->
<g id="node8" class="node">
<title>6743</title>
<path fill="#c0c0c0" stroke="black" d="M252.5,-36C252.5,-36 222.5,-36 222.5,-36 216.5,-36 210.5,-30 210.5,-24 210.5,-24 210.5,-12 210.5,-12 210.5,-6 216.5,0 222.5,0 222.5,0 252.5,0 252.5,0 258.5,0 264.5,-6 264.5,-12 264.5,-12 264.5,-24 264.5,-24 264.5,-30 258.5,-36 252.5,-36"/>
<text text-anchor="middle" x="237.5" y="-13.32" font-family="Helvetica,sans-Serif" font-size="14.00">(...)</text>
</g>
<!-- 6742&#45;&gt;6743 -->
<g id="edge7" class="edge">
<title>6742&#45;&gt;6743</title>
<path fill="none" stroke="black" d="M255.6,-71.75C252.67,-63.22 249.7,-54.57 247.03,-46.8"/>
<polygon fill="black" stroke="black" points="250.44,-45.93 243.88,-37.6 243.82,-48.2 250.44,-45.93"/>
</g>
<!-- 6972 -->
<g id="node9" class="node">
<title>6972</title>
<path fill="#c0c0c0" stroke="black" d="M324.5,-36C324.5,-36 294.5,-36 294.5,-36 288.5,-36 282.5,-30 282.5,-24 282.5,-24 282.5,-12 282.5,-12 282.5,-6 288.5,0 294.5,0 294.5,0 324.5,0 324.5,0 330.5,0 336.5,-6 336.5,-12 336.5,-12 336.5,-24 336.5,-24 336.5,-30 330.5,-36 324.5,-36"/>
<text text-anchor="middle" x="309.5" y="-13.32" font-family="Helvetica,sans-Serif" font-size="14.00">(...)</text>
</g>
<!-- 6742&#45;&gt;6972 -->
<g id="edge8" class="edge">
<title>6742&#45;&gt;6972</title>
<path fill="none" stroke="black" d="M289.28,-71.75C292.55,-63.22 295.87,-54.57 298.84,-46.8"/>
<polygon fill="black" stroke="black" points="302.06,-48.18 302.38,-37.59 295.53,-45.67 302.06,-48.18"/>
</g>
<!-- 7066 -->
<g id="node11" class="node">
<title>7066</title>
<path fill="#fae5d6" stroke="black" d="M522.5,-166.25C522.5,-166.25 380.5,-166.25 380.5,-166.25 374.5,-166.25 368.5,-160.25 368.5,-154.25 368.5,-154.25 368.5,-84 368.5,-84 368.5,-78 374.5,-72 380.5,-72 380.5,-72 522.5,-72 522.5,-72 528.5,-72 534.5,-78 534.5,-84 534.5,-84 534.5,-154.25 534.5,-154.25 534.5,-160.25 528.5,-166.25 522.5,-166.25"/>
<text text-anchor="middle" x="451.5" y="-148.95" font-family="Helvetica,sans-Serif" font-size="14.00">6_G &lt;= 0.5</text>
<text text-anchor="middle" x="451.5" y="-131.7" font-family="Helvetica,sans-Serif" font-size="14.00">entropy = 0.991</text>
<text text-anchor="middle" x="451.5" y="-114.45" font-family="Helvetica,sans-Serif" font-size="14.00">samples = 3322</text>
<text text-anchor="middle" x="451.5" y="-97.2" font-family="Helvetica,sans-Serif" font-size="14.00">value = [2895, 2302]</text>
<text text-anchor="middle" x="451.5" y="-79.95" font-family="Helvetica,sans-Serif" font-size="14.00">class = Animal</text>
</g>
<!-- 7065&#45;&gt;7066 -->
<g id="edge10" class="edge">
<title>7065&#45;&gt;7066</title>
<path fill="none" stroke="black" d="M509.01,-202.07C503.02,-193.54 496.71,-184.54 490.55,-175.77"/>
<polygon fill="black" stroke="black" points="493.42,-173.77 484.81,-167.6 487.69,-177.79 493.42,-173.77"/>
</g>
<!-- 8989 -->
<g id="node14" class="node">
<title>8989</title>
<path fill="#a2d1f3" stroke="black" d="M706.5,-166.25C706.5,-166.25 564.5,-166.25 564.5,-166.25 558.5,-166.25 552.5,-160.25 552.5,-154.25 552.5,-154.25 552.5,-84 552.5,-84 552.5,-78 558.5,-72 564.5,-72 564.5,-72 706.5,-72 706.5,-72 712.5,-72 718.5,-78 718.5,-84 718.5,-84 718.5,-154.25 718.5,-154.25 718.5,-160.25 712.5,-166.25 706.5,-166.25"/>
<text text-anchor="middle" x="635.5" y="-148.95" font-family="Helvetica,sans-Serif" font-size="14.00">2_C &lt;= 0.5</text>
<text text-anchor="middle" x="635.5" y="-131.7" font-family="Helvetica,sans-Serif" font-size="14.00">entropy = 0.931</text>
<text text-anchor="middle" x="635.5" y="-114.45" font-family="Helvetica,sans-Serif" font-size="14.00">samples = 1984</text>
<text text-anchor="middle" x="635.5" y="-97.2" font-family="Helvetica,sans-Serif" font-size="14.00">value = [1120, 2111]</text>
<text text-anchor="middle" x="635.5" y="-79.95" font-family="Helvetica,sans-Serif" font-size="14.00">class = Plant</text>
</g>
<!-- 7065&#45;&gt;8989 -->
<g id="edge13" class="edge">
<title>7065&#45;&gt;8989</title>
<path fill="none" stroke="black" d="M575.44,-202.07C581.76,-193.45 588.42,-184.35 594.92,-175.49"/>
<polygon fill="black" stroke="black" points="597.63,-177.71 600.72,-167.58 591.98,-173.58 597.63,-177.71"/>
</g>
<!-- 7067 -->
<g id="node12" class="node">
<title>7067</title>
<path fill="#c0c0c0" stroke="black" d="M414.5,-36C414.5,-36 384.5,-36 384.5,-36 378.5,-36 372.5,-30 372.5,-24 372.5,-24 372.5,-12 372.5,-12 372.5,-6 378.5,0 384.5,0 384.5,0 414.5,0 414.5,0 420.5,0 426.5,-6 426.5,-12 426.5,-12 426.5,-24 426.5,-24 426.5,-30 420.5,-36 414.5,-36"/>
<text text-anchor="middle" x="399.5" y="-13.32" font-family="Helvetica,sans-Serif" font-size="14.00">(...)</text>
</g>
<!-- 7066&#45;&gt;7067 -->
<g id="edge11" class="edge">
<title>7066&#45;&gt;7067</title>
<path fill="none" stroke="black" d="M427.17,-71.75C422.6,-63.03 417.95,-54.16 413.8,-46.26"/>
<polygon fill="black" stroke="black" points="416.96,-44.74 409.21,-37.51 410.76,-47.99 416.96,-44.74"/>
</g>
<!-- 8462 -->
<g id="node13" class="node">
<title>8462</title>
<path fill="#c0c0c0" stroke="black" d="M486.5,-36C486.5,-36 456.5,-36 456.5,-36 450.5,-36 444.5,-30 444.5,-24 444.5,-24 444.5,-12 444.5,-12 444.5,-6 450.5,0 456.5,0 456.5,0 486.5,0 486.5,0 492.5,0 498.5,-6 498.5,-12 498.5,-12 498.5,-24 498.5,-24 498.5,-30 492.5,-36 486.5,-36"/>
<text text-anchor="middle" x="471.5" y="-13.32" font-family="Helvetica,sans-Serif" font-size="14.00">(...)</text>
</g>
<!-- 7066&#45;&gt;8462 -->
<g id="edge12" class="edge">
<title>7066&#45;&gt;8462</title>
<path fill="none" stroke="black" d="M460.86,-71.75C462.54,-63.42 464.24,-54.97 465.78,-47.34"/>
<polygon fill="black" stroke="black" points="469.19,-48.15 467.74,-37.66 462.33,-46.77 469.19,-48.15"/>
</g>
<!-- 8990 -->
<g id="node15" class="node">
<title>8990</title>
<path fill="#c0c0c0" stroke="black" d="M600.5,-36C600.5,-36 570.5,-36 570.5,-36 564.5,-36 558.5,-30 558.5,-24 558.5,-24 558.5,-12 558.5,-12 558.5,-6 564.5,0 570.5,0 570.5,0 600.5,0 600.5,0 606.5,0 612.5,-6 612.5,-12 612.5,-12 612.5,-24 612.5,-24 612.5,-30 606.5,-36 600.5,-36"/>
<text text-anchor="middle" x="585.5" y="-13.32" font-family="Helvetica,sans-Serif" font-size="14.00">(...)</text>
</g>
<!-- 8989&#45;&gt;8990 -->
<g id="edge14" class="edge">
<title>8989&#45;&gt;8990</title>
<path fill="none" stroke="black" d="M612.11,-71.75C607.71,-63.03 603.24,-54.16 599.25,-46.26"/>
<polygon fill="black" stroke="black" points="602.47,-44.88 594.84,-37.52 596.22,-48.03 602.47,-44.88"/>
</g>
<!-- 9565 -->
<g id="node16" class="node">
<title>9565</title>
<path fill="#c0c0c0" stroke="black" d="M672.5,-36C672.5,-36 642.5,-36 642.5,-36 636.5,-36 630.5,-30 630.5,-24 630.5,-24 630.5,-12 630.5,-12 630.5,-6 636.5,0 642.5,0 642.5,0 672.5,0 672.5,0 678.5,0 684.5,-6 684.5,-12 684.5,-12 684.5,-24 684.5,-24 684.5,-30 678.5,-36 672.5,-36"/>
<text text-anchor="middle" x="657.5" y="-13.32" font-family="Helvetica,sans-Serif" font-size="14.00">(...)</text>
</g>
<!-- 8989&#45;&gt;9565 -->
<g id="edge15" class="edge">
<title>8989&#45;&gt;9565</title>
<path fill="none" stroke="black" d="M645.79,-71.75C647.64,-63.42 649.52,-54.97 651.21,-47.34"/>
<polygon fill="black" stroke="black" points="654.61,-48.17 653.36,-37.65 647.78,-46.65 654.61,-48.17"/>
</g>
<!-- 9687 -->
<g id="node18" class="node">
<title>9687</title>
<path fill="#a8d4f4" stroke="black" d="M992,-296.5C992,-296.5 841,-296.5 841,-296.5 835,-296.5 829,-290.5 829,-284.5 829,-284.5 829,-214.25 829,-214.25 829,-208.25 835,-202.25 841,-202.25 841,-202.25 992,-202.25 992,-202.25 998,-202.25 1004,-208.25 1004,-214.25 1004,-214.25 1004,-284.5 1004,-284.5 1004,-290.5 998,-296.5 992,-296.5"/>
<text text-anchor="middle" x="916.5" y="-279.2" font-family="Helvetica,sans-Serif" font-size="14.00">2_A &lt;= 0.5</text>
<text text-anchor="middle" x="916.5" y="-261.95" font-family="Helvetica,sans-Serif" font-size="14.00">entropy = 0.942</text>
<text text-anchor="middle" x="916.5" y="-244.7" font-family="Helvetica,sans-Serif" font-size="14.00">samples = 14759</text>
<text text-anchor="middle" x="916.5" y="-227.45" font-family="Helvetica,sans-Serif" font-size="14.00">value = [8367, 14947]</text>
<text text-anchor="middle" x="916.5" y="-210.2" font-family="Helvetica,sans-Serif" font-size="14.00">class = Plant</text>
</g>
<!-- 9686&#45;&gt;9687 -->
<g id="edge17" class="edge">
<title>9686&#45;&gt;9687</title>
<path fill="none" stroke="black" d="M916.5,-332.32C916.5,-324.42 916.5,-316.13 916.5,-307.98"/>
<polygon fill="black" stroke="black" points="920,-308.12 916.5,-298.12 913,-308.12 920,-308.12"/>
</g>
<!-- 14972 -->
<g id="node25" class="node">
<title>14972</title>
<path fill="#f6d6be" stroke="black" d="M1268.5,-296.5C1268.5,-296.5 1126.5,-296.5 1126.5,-296.5 1120.5,-296.5 1114.5,-290.5 1114.5,-284.5 1114.5,-284.5 1114.5,-214.25 1114.5,-214.25 1114.5,-208.25 1120.5,-202.25 1126.5,-202.25 1126.5,-202.25 1268.5,-202.25 1268.5,-202.25 1274.5,-202.25 1280.5,-208.25 1280.5,-214.25 1280.5,-214.25 1280.5,-284.5 1280.5,-284.5 1280.5,-290.5 1274.5,-296.5 1268.5,-296.5"/>
<text text-anchor="middle" x="1197.5" y="-279.2" font-family="Helvetica,sans-Serif" font-size="14.00">2_A &lt;= 0.5</text>
<text text-anchor="middle" x="1197.5" y="-261.95" font-family="Helvetica,sans-Serif" font-size="14.00">entropy = 0.972</text>
<text text-anchor="middle" x="1197.5" y="-244.7" font-family="Helvetica,sans-Serif" font-size="14.00">samples = 5487</text>
<text text-anchor="middle" x="1197.5" y="-227.45" font-family="Helvetica,sans-Serif" font-size="14.00">value = [5175, 3476]</text>
<text text-anchor="middle" x="1197.5" y="-210.2" font-family="Helvetica,sans-Serif" font-size="14.00">class = Animal</text>
</g>
<!-- 9686&#45;&gt;14972 -->
<g id="edge24" class="edge">
<title>9686&#45;&gt;14972</title>
<path fill="none" stroke="black" d="M1008.9,-336.45C1039.37,-322.55 1073.27,-307.08 1103.83,-293.13"/>
<polygon fill="black" stroke="black" points="1105.03,-296.42 1112.68,-289.09 1102.13,-290.06 1105.03,-296.42"/>
</g>
<!-- 9688 -->
<g id="node19" class="node">
<title>9688</title>
<path fill="#94caf1" stroke="black" d="M900,-166.25C900,-166.25 749,-166.25 749,-166.25 743,-166.25 737,-160.25 737,-154.25 737,-154.25 737,-84 737,-84 737,-78 743,-72 749,-72 749,-72 900,-72 900,-72 906,-72 912,-78 912,-84 912,-84 912,-154.25 912,-154.25 912,-160.25 906,-166.25 900,-166.25"/>
<text text-anchor="middle" x="824.5" y="-148.95" font-family="Helvetica,sans-Serif" font-size="14.00">8_U &lt;= 0.5</text>
<text text-anchor="middle" x="824.5" y="-131.7" font-family="Helvetica,sans-Serif" font-size="14.00">entropy = 0.899</text>
<text text-anchor="middle" x="824.5" y="-114.45" font-family="Helvetica,sans-Serif" font-size="14.00">samples = 12215</text>
<text text-anchor="middle" x="824.5" y="-97.2" font-family="Helvetica,sans-Serif" font-size="14.00">value = [6080, 13190]</text>
<text text-anchor="middle" x="824.5" y="-79.95" font-family="Helvetica,sans-Serif" font-size="14.00">class = Plant</text>
</g>
<!-- 9687&#45;&gt;9688 -->
<g id="edge18" class="edge">
<title>9687&#45;&gt;9688</title>
<path fill="none" stroke="black" d="M883.29,-202.07C877.1,-193.45 870.57,-184.35 864.21,-175.49"/>
<polygon fill="black" stroke="black" points="867.22,-173.67 858.55,-167.59 861.53,-177.75 867.22,-173.67"/>
</g>
<!-- 13961 -->
<g id="node22" class="node">
<title>13961</title>
<path fill="#f9e2d1" stroke="black" d="M1084.5,-166.25C1084.5,-166.25 942.5,-166.25 942.5,-166.25 936.5,-166.25 930.5,-160.25 930.5,-154.25 930.5,-154.25 930.5,-84 930.5,-84 930.5,-78 936.5,-72 942.5,-72 942.5,-72 1084.5,-72 1084.5,-72 1090.5,-72 1096.5,-78 1096.5,-84 1096.5,-84 1096.5,-154.25 1096.5,-154.25 1096.5,-160.25 1090.5,-166.25 1084.5,-166.25"/>
<text text-anchor="middle" x="1013.5" y="-148.95" font-family="Helvetica,sans-Serif" font-size="14.00">18_C &lt;= 0.5</text>
<text text-anchor="middle" x="1013.5" y="-131.7" font-family="Helvetica,sans-Serif" font-size="14.00">entropy = 0.988</text>
<text text-anchor="middle" x="1013.5" y="-114.45" font-family="Helvetica,sans-Serif" font-size="14.00">samples = 2544</text>
<text text-anchor="middle" x="1013.5" y="-97.2" font-family="Helvetica,sans-Serif" font-size="14.00">value = [2287, 1757]</text>
<text text-anchor="middle" x="1013.5" y="-79.95" font-family="Helvetica,sans-Serif" font-size="14.00">class = Animal</text>
</g>
<!-- 9687&#45;&gt;13961 -->
<g id="edge21" class="edge">
<title>9687&#45;&gt;13961</title>
<path fill="none" stroke="black" d="M951.52,-202.07C958.04,-193.45 964.92,-184.35 971.63,-175.49"/>
<polygon fill="black" stroke="black" points="974.38,-177.65 977.62,-167.57 968.8,-173.43 974.38,-177.65"/>
</g>
<!-- 9689 -->
<g id="node20" class="node">
<title>9689</title>
<path fill="#c0c0c0" stroke="black" d="M789.5,-36C789.5,-36 759.5,-36 759.5,-36 753.5,-36 747.5,-30 747.5,-24 747.5,-24 747.5,-12 747.5,-12 747.5,-6 753.5,0 759.5,0 759.5,0 789.5,0 789.5,0 795.5,0 801.5,-6 801.5,-12 801.5,-12 801.5,-24 801.5,-24 801.5,-30 795.5,-36 789.5,-36"/>
<text text-anchor="middle" x="774.5" y="-13.32" font-family="Helvetica,sans-Serif" font-size="14.00">(...)</text>
</g>
<!-- 9688&#45;&gt;9689 -->
<g id="edge19" class="edge">
<title>9688&#45;&gt;9689</title>
<path fill="none" stroke="black" d="M801.11,-71.75C796.71,-63.03 792.24,-54.16 788.25,-46.26"/>
<polygon fill="black" stroke="black" points="791.47,-44.88 783.84,-37.52 785.22,-48.03 791.47,-44.88"/>
</g>
<!-- 12794 -->
<g id="node21" class="node">
<title>12794</title>
<path fill="#c0c0c0" stroke="black" d="M861.5,-36C861.5,-36 831.5,-36 831.5,-36 825.5,-36 819.5,-30 819.5,-24 819.5,-24 819.5,-12 819.5,-12 819.5,-6 825.5,0 831.5,0 831.5,0 861.5,0 861.5,0 867.5,0 873.5,-6 873.5,-12 873.5,-12 873.5,-24 873.5,-24 873.5,-30 867.5,-36 861.5,-36"/>
<text text-anchor="middle" x="846.5" y="-13.32" font-family="Helvetica,sans-Serif" font-size="14.00">(...)</text>
</g>
<!-- 9688&#45;&gt;12794 -->
<g id="edge20" class="edge">
<title>9688&#45;&gt;12794</title>
<path fill="none" stroke="black" d="M834.79,-71.75C836.64,-63.42 838.52,-54.97 840.21,-47.34"/>
<polygon fill="black" stroke="black" points="843.61,-48.17 842.36,-37.65 836.78,-46.65 843.61,-48.17"/>
</g>
<!-- 13962 -->
<g id="node23" class="node">
<title>13962</title>
<path fill="#c0c0c0" stroke="black" d="M976.5,-36C976.5,-36 946.5,-36 946.5,-36 940.5,-36 934.5,-30 934.5,-24 934.5,-24 934.5,-12 934.5,-12 934.5,-6 940.5,0 946.5,0 946.5,0 976.5,0 976.5,0 982.5,0 988.5,-6 988.5,-12 988.5,-12 988.5,-24 988.5,-24 988.5,-30 982.5,-36 976.5,-36"/>
<text text-anchor="middle" x="961.5" y="-13.32" font-family="Helvetica,sans-Serif" font-size="14.00">(...)</text>
</g>
<!-- 13961&#45;&gt;13962 -->
<g id="edge22" class="edge">
<title>13961&#45;&gt;13962</title>
<path fill="none" stroke="black" d="M989.17,-71.75C984.6,-63.03 979.95,-54.16 975.8,-46.26"/>
<polygon fill="black" stroke="black" points="978.96,-44.74 971.21,-37.51 972.76,-47.99 978.96,-44.74"/>
</g>
<!-- 14793 -->
<g id="node24" class="node">
<title>14793</title>
<path fill="#c0c0c0" stroke="black" d="M1048.5,-36C1048.5,-36 1018.5,-36 1018.5,-36 1012.5,-36 1006.5,-30 1006.5,-24 1006.5,-24 1006.5,-12 1006.5,-12 1006.5,-6 1012.5,0 1018.5,0 1018.5,0 1048.5,0 1048.5,0 1054.5,0 1060.5,-6 1060.5,-12 1060.5,-12 1060.5,-24 1060.5,-24 1060.5,-30 1054.5,-36 1048.5,-36"/>
<text text-anchor="middle" x="1033.5" y="-13.32" font-family="Helvetica,sans-Serif" font-size="14.00">(...)</text>
</g>
<!-- 13961&#45;&gt;14793 -->
<g id="edge23" class="edge">
<title>13961&#45;&gt;14793</title>
<path fill="none" stroke="black" d="M1022.86,-71.75C1024.54,-63.42 1026.24,-54.97 1027.78,-47.34"/>
<polygon fill="black" stroke="black" points="1031.19,-48.15 1029.74,-37.66 1024.33,-46.77 1031.19,-48.15"/>
</g>
<!-- 14973 -->
<g id="node26" class="node">
<title>14973</title>
<path fill="#fceee5" stroke="black" d="M1268.5,-166.25C1268.5,-166.25 1126.5,-166.25 1126.5,-166.25 1120.5,-166.25 1114.5,-160.25 1114.5,-154.25 1114.5,-154.25 1114.5,-84 1114.5,-84 1114.5,-78 1120.5,-72 1126.5,-72 1126.5,-72 1268.5,-72 1268.5,-72 1274.5,-72 1280.5,-78 1280.5,-84 1280.5,-84 1280.5,-154.25 1280.5,-154.25 1280.5,-160.25 1274.5,-166.25 1268.5,-166.25"/>
<text text-anchor="middle" x="1197.5" y="-148.95" font-family="Helvetica,sans-Serif" font-size="14.00">3_C &lt;= 0.5</text>
<text text-anchor="middle" x="1197.5" y="-131.7" font-family="Helvetica,sans-Serif" font-size="14.00">entropy = 0.996</text>
<text text-anchor="middle" x="1197.5" y="-114.45" font-family="Helvetica,sans-Serif" font-size="14.00">samples = 4275</text>
<text text-anchor="middle" x="1197.5" y="-97.2" font-family="Helvetica,sans-Serif" font-size="14.00">value = [3592, 3119]</text>
<text text-anchor="middle" x="1197.5" y="-79.95" font-family="Helvetica,sans-Serif" font-size="14.00">class = Animal</text>
</g>
<!-- 14972&#45;&gt;14973 -->
<g id="edge25" class="edge">
<title>14972&#45;&gt;14973</title>
<path fill="none" stroke="black" d="M1197.5,-202.07C1197.5,-194.17 1197.5,-185.88 1197.5,-177.73"/>
<polygon fill="black" stroke="black" points="1201,-177.87 1197.5,-167.87 1194,-177.87 1201,-177.87"/>
</g>
<!-- 16702 -->
<g id="node29" class="node">
<title>16702</title>
<path fill="#eb9d66" stroke="black" d="M1444,-166.25C1444,-166.25 1311,-166.25 1311,-166.25 1305,-166.25 1299,-160.25 1299,-154.25 1299,-154.25 1299,-84 1299,-84 1299,-78 1305,-72 1311,-72 1311,-72 1444,-72 1444,-72 1450,-72 1456,-78 1456,-84 1456,-84 1456,-154.25 1456,-154.25 1456,-160.25 1450,-166.25 1444,-166.25"/>
<text text-anchor="middle" x="1377.5" y="-148.95" font-family="Helvetica,sans-Serif" font-size="14.00">21_G &lt;= 0.5</text>
<text text-anchor="middle" x="1377.5" y="-131.7" font-family="Helvetica,sans-Serif" font-size="14.00">entropy = 0.689</text>
<text text-anchor="middle" x="1377.5" y="-114.45" font-family="Helvetica,sans-Serif" font-size="14.00">samples = 1212</text>
<text text-anchor="middle" x="1377.5" y="-97.2" font-family="Helvetica,sans-Serif" font-size="14.00">value = [1583, 357]</text>
<text text-anchor="middle" x="1377.5" y="-79.95" font-family="Helvetica,sans-Serif" font-size="14.00">class = Animal</text>
</g>
<!-- 14972&#45;&gt;16702 -->
<g id="edge28" class="edge">
<title>14972&#45;&gt;16702</title>
<path fill="none" stroke="black" d="M1262.74,-201.89C1275.82,-192.57 1289.65,-182.72 1303.02,-173.19"/>
<polygon fill="black" stroke="black" points="1304.84,-176.2 1310.95,-167.54 1300.77,-170.49 1304.84,-176.2"/>
</g>
<!-- 14974 -->
<g id="node27" class="node">
<title>14974</title>
<path fill="#c0c0c0" stroke="black" d="M1176.5,-36C1176.5,-36 1146.5,-36 1146.5,-36 1140.5,-36 1134.5,-30 1134.5,-24 1134.5,-24 1134.5,-12 1134.5,-12 1134.5,-6 1140.5,0 1146.5,0 1146.5,0 1176.5,0 1176.5,0 1182.5,0 1188.5,-6 1188.5,-12 1188.5,-12 1188.5,-24 1188.5,-24 1188.5,-30 1182.5,-36 1176.5,-36"/>
<text text-anchor="middle" x="1161.5" y="-13.32" font-family="Helvetica,sans-Serif" font-size="14.00">(...)</text>
</g>
<!-- 14973&#45;&gt;14974 -->
<g id="edge26" class="edge">
<title>14973&#45;&gt;14974</title>
<path fill="none" stroke="black" d="M1180.66,-71.75C1177.56,-63.22 1174.42,-54.57 1171.6,-46.8"/>
<polygon fill="black" stroke="black" points="1174.96,-45.8 1168.25,-37.6 1168.38,-48.19 1174.96,-45.8"/>
</g>
<!-- 16337 -->
<g id="node28" class="node">
<title>16337</title>
<path fill="#c0c0c0" stroke="black" d="M1248.5,-36C1248.5,-36 1218.5,-36 1218.5,-36 1212.5,-36 1206.5,-30 1206.5,-24 1206.5,-24 1206.5,-12 1206.5,-12 1206.5,-6 1212.5,0 1218.5,0 1218.5,0 1248.5,0 1248.5,0 1254.5,0 1260.5,-6 1260.5,-12 1260.5,-12 1260.5,-24 1260.5,-24 1260.5,-30 1254.5,-36 1248.5,-36"/>
<text text-anchor="middle" x="1233.5" y="-13.32" font-family="Helvetica,sans-Serif" font-size="14.00">(...)</text>
</g>
<!-- 14973&#45;&gt;16337 -->
<g id="edge27" class="edge">
<title>14973&#45;&gt;16337</title>
<path fill="none" stroke="black" d="M1214.34,-71.75C1217.44,-63.22 1220.58,-54.57 1223.4,-46.8"/>
<polygon fill="black" stroke="black" points="1226.62,-48.19 1226.75,-37.6 1220.04,-45.8 1226.62,-48.19"/>
</g>
<!-- 16703 -->
<g id="node30" class="node">
<title>16703</title>
<path fill="#c0c0c0" stroke="black" d="M1356.5,-36C1356.5,-36 1326.5,-36 1326.5,-36 1320.5,-36 1314.5,-30 1314.5,-24 1314.5,-24 1314.5,-12 1314.5,-12 1314.5,-6 1320.5,0 1326.5,0 1326.5,0 1356.5,0 1356.5,0 1362.5,0 1368.5,-6 1368.5,-12 1368.5,-12 1368.5,-24 1368.5,-24 1368.5,-30 1362.5,-36 1356.5,-36"/>
<text text-anchor="middle" x="1341.5" y="-13.32" font-family="Helvetica,sans-Serif" font-size="14.00">(...)</text>
</g>
<!-- 16702&#45;&gt;16703 -->
<g id="edge29" class="edge">
<title>16702&#45;&gt;16703</title>
<path fill="none" stroke="black" d="M1360.66,-71.75C1357.56,-63.22 1354.42,-54.57 1351.6,-46.8"/>
<polygon fill="black" stroke="black" points="1354.96,-45.8 1348.25,-37.6 1348.38,-48.19 1354.96,-45.8"/>
</g>
<!-- 17084 -->
<g id="node31" class="node">
<title>17084</title>
<path fill="#c0c0c0" stroke="black" d="M1428.5,-36C1428.5,-36 1398.5,-36 1398.5,-36 1392.5,-36 1386.5,-30 1386.5,-24 1386.5,-24 1386.5,-12 1386.5,-12 1386.5,-6 1392.5,0 1398.5,0 1398.5,0 1428.5,0 1428.5,0 1434.5,0 1440.5,-6 1440.5,-12 1440.5,-12 1440.5,-24 1440.5,-24 1440.5,-30 1434.5,-36 1428.5,-36"/>
<text text-anchor="middle" x="1413.5" y="-13.32" font-family="Helvetica,sans-Serif" font-size="14.00">(...)</text>
</g>
<!-- 16702&#45;&gt;17084 -->
<g id="edge30" class="edge">
<title>16702&#45;&gt;17084</title>
<path fill="none" stroke="black" d="M1394.34,-71.75C1397.44,-63.22 1400.58,-54.57 1403.4,-46.8"/>
<polygon fill="black" stroke="black" points="1406.62,-48.19 1406.75,-37.6 1400.04,-45.8 1406.62,-48.19"/>
</g>
</g>
</svg>
