<?xml version="1.0" encoding="UTF-8" standalone="no"?>
<!DOCTYPE svg PUBLIC "-//W3C//DTD SVG 1.1//EN"
 "http://www.w3.org/Graphics/SVG/1.1/DTD/svg11.dtd">
<!-- Generated by graphviz version 12.0.0 (20240803.0821)
 -->
<!-- Title: Tree Pages: 1 -->
<svg width="1411pt" height="565pt"
 viewBox="0.00 0.00 1410.50 565.00" xmlns="http://www.w3.org/2000/svg" xmlns:xlink="http://www.w3.org/1999/xlink">
<g id="graph0" class="graph" transform="scale(1 1) rotate(0) translate(4 561)">
<title>Tree</title>
<polygon fill="white" stroke="none" points="-4,4 -4,-561 1406.5,-561 1406.5,4 -4,4"/>
<!-- 0 -->
<g id="node1" class="node">
<title>0</title>
<path fill="#fffefd" stroke="black" d="M776.5,-557C776.5,-557 616.5,-557 616.5,-557 610.5,-557 604.5,-551 604.5,-545 604.5,-545 604.5,-474.75 604.5,-474.75 604.5,-468.75 610.5,-462.75 616.5,-462.75 616.5,-462.75 776.5,-462.75 776.5,-462.75 782.5,-462.75 788.5,-468.75 788.5,-474.75 788.5,-474.75 788.5,-545 788.5,-545 788.5,-551 782.5,-557 776.5,-557"/>
<text text-anchor="middle" x="696.5" y="-539.7" font-family="Helvetica,sans-Serif" font-size="14.00">19_U &lt;= 0.5</text>
<text text-anchor="middle" x="696.5" y="-522.45" font-family="Helvetica,sans-Serif" font-size="14.00">entropy = 1.0</text>
<text text-anchor="middle" x="696.5" y="-505.2" font-family="Helvetica,sans-Serif" font-size="14.00">samples = 38070</text>
<text text-anchor="middle" x="696.5" y="-487.95" font-family="Helvetica,sans-Serif" font-size="14.00">value = [30313, 30032]</text>
<text text-anchor="middle" x="696.5" y="-470.7" font-family="Helvetica,sans-Serif" font-size="14.00">class = Animal</text>
</g>
<!-- 1 -->
<g id="node2" class="node">
<title>1</title>
<path fill="#e1f0fb" stroke="black" d="M614.5,-426.75C614.5,-426.75 454.5,-426.75 454.5,-426.75 448.5,-426.75 442.5,-420.75 442.5,-414.75 442.5,-414.75 442.5,-344.5 442.5,-344.5 442.5,-338.5 448.5,-332.5 454.5,-332.5 454.5,-332.5 614.5,-332.5 614.5,-332.5 620.5,-332.5 626.5,-338.5 626.5,-344.5 626.5,-344.5 626.5,-414.75 626.5,-414.75 626.5,-420.75 620.5,-426.75 614.5,-426.75"/>
<text text-anchor="middle" x="534.5" y="-409.45" font-family="Helvetica,sans-Serif" font-size="14.00">23_A &lt;= 0.5</text>
<text text-anchor="middle" x="534.5" y="-392.2" font-family="Helvetica,sans-Serif" font-size="14.00">entropy = 0.995</text>
<text text-anchor="middle" x="534.5" y="-374.95" font-family="Helvetica,sans-Serif" font-size="14.00">samples = 28971</text>
<text text-anchor="middle" x="534.5" y="-357.7" font-family="Helvetica,sans-Serif" font-size="14.00">value = [21044, 24844]</text>
<text text-anchor="middle" x="534.5" y="-340.45" font-family="Helvetica,sans-Serif" font-size="14.00">class = Plant</text>
</g>
<!-- 0&#45;&gt;1 -->
<g id="edge1" class="edge">
<title>0&#45;&gt;1</title>
<path fill="none" stroke="black" d="M638.01,-462.57C626.39,-453.37 614.09,-443.63 602.18,-434.21"/>
<polygon fill="black" stroke="black" points="604.37,-431.48 594.36,-428.01 600.03,-436.96 604.37,-431.48"/>
<text text-anchor="middle" x="596.06" y="-447.23" font-family="Helvetica,sans-Serif" font-size="14.00">True</text>
</g>
<!-- 12570 -->
<g id="node17" class="node">
<title>12570</title>
<path fill="#f4c8a8" stroke="black" d="M952.5,-426.75C952.5,-426.75 810.5,-426.75 810.5,-426.75 804.5,-426.75 798.5,-420.75 798.5,-414.75 798.5,-414.75 798.5,-344.5 798.5,-344.5 798.5,-338.5 804.5,-332.5 810.5,-332.5 810.5,-332.5 952.5,-332.5 952.5,-332.5 958.5,-332.5 964.5,-338.5 964.5,-344.5 964.5,-344.5 964.5,-414.75 964.5,-414.75 964.5,-420.75 958.5,-426.75 952.5,-426.75"/>
<text text-anchor="middle" x="881.5" y="-409.45" font-family="Helvetica,sans-Serif" font-size="14.00">8_G &lt;= 0.5</text>
<text text-anchor="middle" x="881.5" y="-392.2" font-family="Helvetica,sans-Serif" font-size="14.00">entropy = 0.942</text>
<text text-anchor="middle" x="881.5" y="-374.95" font-family="Helvetica,sans-Serif" font-size="14.00">samples = 9099</text>
<text text-anchor="middle" x="881.5" y="-357.7" font-family="Helvetica,sans-Serif" font-size="14.00">value = [9269, 5188]</text>
<text text-anchor="middle" x="881.5" y="-340.45" font-family="Helvetica,sans-Serif" font-size="14.00">class = Animal</text>
</g>
<!-- 0&#45;&gt;12570 -->
<g id="edge16" class="edge">
<title>0&#45;&gt;12570</title>
<path fill="none" stroke="black" d="M763.55,-462.39C776.99,-453.07 791.21,-443.22 804.95,-433.69"/>
<polygon fill="black" stroke="black" points="806.9,-436.6 813.12,-428.03 802.91,-430.85 806.9,-436.6"/>
<text text-anchor="middle" x="809.91" y="-447.09" font-family="Helvetica,sans-Serif" font-size="14.00">False</text>
</g>
<!-- 2 -->
<g id="node3" class="node">
<title>2</title>
<path fill="#dbedfa" stroke="black" d="M360.5,-296.5C360.5,-296.5 200.5,-296.5 200.5,-296.5 194.5,-296.5 188.5,-290.5 188.5,-284.5 188.5,-284.5 188.5,-214.25 188.5,-214.25 188.5,-208.25 194.5,-202.25 200.5,-202.25 200.5,-202.25 360.5,-202.25 360.5,-202.25 366.5,-202.25 372.5,-208.25 372.5,-214.25 372.5,-214.25 372.5,-284.5 372.5,-284.5 372.5,-290.5 366.5,-296.5 360.5,-296.5"/>
<text text-anchor="middle" x="280.5" y="-279.2" font-family="Helvetica,sans-Serif" font-size="14.00">1_U &lt;= 0.5</text>
<text text-anchor="middle" x="280.5" y="-261.95" font-family="Helvetica,sans-Serif" font-size="14.00">entropy = 0.993</text>
<text text-anchor="middle" x="280.5" y="-244.7" font-family="Helvetica,sans-Serif" font-size="14.00">samples = 27934</text>
<text text-anchor="middle" x="280.5" y="-227.45" font-family="Helvetica,sans-Serif" font-size="14.00">value = [19893, 24374]</text>
<text text-anchor="middle" x="280.5" y="-210.2" font-family="Helvetica,sans-Serif" font-size="14.00">class = Plant</text>
</g>
<!-- 1&#45;&gt;2 -->
<g id="edge2" class="edge">
<title>1&#45;&gt;2</title>
<path fill="none" stroke="black" d="M442.44,-332.14C423.1,-322.38 402.58,-312.02 382.89,-302.07"/>
<polygon fill="black" stroke="black" points="384.53,-298.98 374.02,-297.6 381.37,-305.23 384.53,-298.98"/>
</g>
<!-- 11997 -->
<g id="node10" class="node">
<title>11997</title>
<path fill="#f0b48a" stroke="black" d="M601,-296.5C601,-296.5 468,-296.5 468,-296.5 462,-296.5 456,-290.5 456,-284.5 456,-284.5 456,-214.25 456,-214.25 456,-208.25 462,-202.25 468,-202.25 468,-202.25 601,-202.25 601,-202.25 607,-202.25 613,-208.25 613,-214.25 613,-214.25 613,-284.5 613,-284.5 613,-290.5 607,-296.5 601,-296.5"/>
<text text-anchor="middle" x="534.5" y="-279.2" font-family="Helvetica,sans-Serif" font-size="14.00">18_A &lt;= 0.5</text>
<text text-anchor="middle" x="534.5" y="-261.95" font-family="Helvetica,sans-Serif" font-size="14.00">entropy = 0.869</text>
<text text-anchor="middle" x="534.5" y="-244.7" font-family="Helvetica,sans-Serif" font-size="14.00">samples = 1037</text>
<text text-anchor="middle" x="534.5" y="-227.45" font-family="Helvetica,sans-Serif" font-size="14.00">value = [1151, 470]</text>
<text text-anchor="middle" x="534.5" y="-210.2" font-family="Helvetica,sans-Serif" font-size="14.00">class = Animal</text>
</g>
<!-- 1&#45;&gt;11997 -->
<g id="edge9" class="edge">
<title>1&#45;&gt;11997</title>
<path fill="none" stroke="black" d="M534.5,-332.32C534.5,-324.42 534.5,-316.13 534.5,-307.98"/>
<polygon fill="black" stroke="black" points="538,-308.12 534.5,-298.12 531,-308.12 538,-308.12"/>
</g>
<!-- 3 -->
<g id="node4" class="node">
<title>3</title>
<path fill="#fceee4" stroke="black" d="M163,-166.25C163,-166.25 12,-166.25 12,-166.25 6,-166.25 0,-160.25 0,-154.25 0,-154.25 0,-84 0,-84 0,-78 6,-72 12,-72 12,-72 163,-72 163,-72 169,-72 175,-78 175,-84 175,-84 175,-154.25 175,-154.25 175,-160.25 169,-166.25 163,-166.25"/>
<text text-anchor="middle" x="87.5" y="-148.95" font-family="Helvetica,sans-Serif" font-size="14.00">22_A &lt;= 0.5</text>
<text text-anchor="middle" x="87.5" y="-131.7" font-family="Helvetica,sans-Serif" font-size="14.00">entropy = 0.996</text>
<text text-anchor="middle" x="87.5" y="-114.45" font-family="Helvetica,sans-Serif" font-size="14.00">samples = 12539</text>
<text text-anchor="middle" x="87.5" y="-97.2" font-family="Helvetica,sans-Serif" font-size="14.00">value = [10662, 9228]</text>
<text text-anchor="middle" x="87.5" y="-79.95" font-family="Helvetica,sans-Serif" font-size="14.00">class = Animal</text>
</g>
<!-- 2&#45;&gt;3 -->
<g id="edge3" class="edge">
<title>2&#45;&gt;3</title>
<path fill="none" stroke="black" d="M210.55,-201.89C196.39,-192.48 181.4,-182.53 166.95,-172.92"/>
<polygon fill="black" stroke="black" points="169.06,-170.12 158.8,-167.5 165.19,-175.95 169.06,-170.12"/>
</g>
<!-- 6858 -->
<g id="node7" class="node">
<title>6858</title>
<path fill="#b2d9f5" stroke="black" d="M356,-166.25C356,-166.25 205,-166.25 205,-166.25 199,-166.25 193,-160.25 193,-154.25 193,-154.25 193,-84 193,-84 193,-78 199,-72 205,-72 205,-72 356,-72 356,-72 362,-72 368,-78 368,-84 368,-84 368,-154.25 368,-154.25 368,-160.25 362,-166.25 356,-166.25"/>
<text text-anchor="middle" x="280.5" y="-148.95" font-family="Helvetica,sans-Serif" font-size="14.00">19_G &lt;= 0.5</text>
<text text-anchor="middle" x="280.5" y="-131.7" font-family="Helvetica,sans-Serif" font-size="14.00">entropy = 0.957</text>
<text text-anchor="middle" x="280.5" y="-114.45" font-family="Helvetica,sans-Serif" font-size="14.00">samples = 15395</text>
<text text-anchor="middle" x="280.5" y="-97.2" font-family="Helvetica,sans-Serif" font-size="14.00">value = [9231, 15146]</text>
<text text-anchor="middle" x="280.5" y="-79.95" font-family="Helvetica,sans-Serif" font-size="14.00">class = Plant</text>
</g>
<!-- 2&#45;&gt;6858 -->
<g id="edge6" class="edge">
<title>2&#45;&gt;6858</title>
<path fill="none" stroke="black" d="M280.5,-202.07C280.5,-194.17 280.5,-185.88 280.5,-177.73"/>
<polygon fill="black" stroke="black" points="284,-177.87 280.5,-167.87 277,-177.87 284,-177.87"/>
</g>
<!-- 4 -->
<g id="node5" class="node">
<title>4</title>
<path fill="#c0c0c0" stroke="black" d="M66.5,-36C66.5,-36 36.5,-36 36.5,-36 30.5,-36 24.5,-30 24.5,-24 24.5,-24 24.5,-12 24.5,-12 24.5,-6 30.5,0 36.5,0 36.5,0 66.5,0 66.5,0 72.5,0 78.5,-6 78.5,-12 78.5,-12 78.5,-24 78.5,-24 78.5,-30 72.5,-36 66.5,-36"/>
<text text-anchor="middle" x="51.5" y="-13.32" font-family="Helvetica,sans-Serif" font-size="14.00">(...)</text>
</g>
<!-- 3&#45;&gt;4 -->
<g id="edge4" class="edge">
<title>3&#45;&gt;4</title>
<path fill="none" stroke="black" d="M70.66,-71.75C67.56,-63.22 64.42,-54.57 61.6,-46.8"/>
<polygon fill="black" stroke="black" points="64.96,-45.8 58.25,-37.6 58.38,-48.19 64.96,-45.8"/>
</g>
<!-- 6163 -->
<g id="node6" class="node">
<title>6163</title>
<path fill="#c0c0c0" stroke="black" d="M138.5,-36C138.5,-36 108.5,-36 108.5,-36 102.5,-36 96.5,-30 96.5,-24 96.5,-24 96.5,-12 96.5,-12 96.5,-6 102.5,0 108.5,0 108.5,0 138.5,0 138.5,0 144.5,0 150.5,-6 150.5,-12 150.5,-12 150.5,-24 150.5,-24 150.5,-30 144.5,-36 138.5,-36"/>
<text text-anchor="middle" x="123.5" y="-13.32" font-family="Helvetica,sans-Serif" font-size="14.00">(...)</text>
</g>
<!-- 3&#45;&gt;6163 -->
<g id="edge5" class="edge">
<title>3&#45;&gt;6163</title>
<path fill="none" stroke="black" d="M104.34,-71.75C107.44,-63.22 110.58,-54.57 113.4,-46.8"/>
<polygon fill="black" stroke="black" points="116.62,-48.19 116.75,-37.6 110.04,-45.8 116.62,-48.19"/>
</g>
<!-- 6859 -->
<g id="node8" class="node">
<title>6859</title>
<path fill="#c0c0c0" stroke="black" d="M250.5,-36C250.5,-36 220.5,-36 220.5,-36 214.5,-36 208.5,-30 208.5,-24 208.5,-24 208.5,-12 208.5,-12 208.5,-6 214.5,0 220.5,0 220.5,0 250.5,0 250.5,0 256.5,0 262.5,-6 262.5,-12 262.5,-12 262.5,-24 262.5,-24 262.5,-30 256.5,-36 250.5,-36"/>
<text text-anchor="middle" x="235.5" y="-13.32" font-family="Helvetica,sans-Serif" font-size="14.00">(...)</text>
</g>
<!-- 6858&#45;&gt;6859 -->
<g id="edge7" class="edge">
<title>6858&#45;&gt;6859</title>
<path fill="none" stroke="black" d="M259.45,-71.75C255.53,-63.12 251.55,-54.36 248,-46.53"/>
<polygon fill="black" stroke="black" points="251.24,-45.21 243.92,-37.55 244.87,-48.1 251.24,-45.21"/>
</g>
<!-- 10210 -->
<g id="node9" class="node">
<title>10210</title>
<path fill="#c0c0c0" stroke="black" d="M322.5,-36C322.5,-36 292.5,-36 292.5,-36 286.5,-36 280.5,-30 280.5,-24 280.5,-24 280.5,-12 280.5,-12 280.5,-6 286.5,0 292.5,0 292.5,0 322.5,0 322.5,0 328.5,0 334.5,-6 334.5,-12 334.5,-12 334.5,-24 334.5,-24 334.5,-30 328.5,-36 322.5,-36"/>
<text text-anchor="middle" x="307.5" y="-13.32" font-family="Helvetica,sans-Serif" font-size="14.00">(...)</text>
</g>
<!-- 6858&#45;&gt;10210 -->
<g id="edge8" class="edge">
<title>6858&#45;&gt;10210</title>
<path fill="none" stroke="black" d="M293.13,-71.75C295.43,-63.32 297.76,-54.77 299.85,-47.07"/>
<polygon fill="black" stroke="black" points="303.17,-48.2 302.42,-37.63 296.42,-46.36 303.17,-48.2"/>
</g>
<!-- 11998 -->
<g id="node11" class="node">
<title>11998</title>
<path fill="#f2bf9a" stroke="black" d="M522.5,-166.25C522.5,-166.25 398.5,-166.25 398.5,-166.25 392.5,-166.25 386.5,-160.25 386.5,-154.25 386.5,-154.25 386.5,-84 386.5,-84 386.5,-78 392.5,-72 398.5,-72 398.5,-72 522.5,-72 522.5,-72 528.5,-72 534.5,-78 534.5,-84 534.5,-84 534.5,-154.25 534.5,-154.25 534.5,-160.25 528.5,-166.25 522.5,-166.25"/>
<text text-anchor="middle" x="460.5" y="-148.95" font-family="Helvetica,sans-Serif" font-size="14.00">24_U &lt;= 0.5</text>
<text text-anchor="middle" x="460.5" y="-131.7" font-family="Helvetica,sans-Serif" font-size="14.00">entropy = 0.915</text>
<text text-anchor="middle" x="460.5" y="-114.45" font-family="Helvetica,sans-Serif" font-size="14.00">samples = 751</text>
<text text-anchor="middle" x="460.5" y="-97.2" font-family="Helvetica,sans-Serif" font-size="14.00">value = [777, 382]</text>
<text text-anchor="middle" x="460.5" y="-79.95" font-family="Helvetica,sans-Serif" font-size="14.00">class = Animal</text>
</g>
<!-- 11997&#45;&gt;11998 -->
<g id="edge10" class="edge">
<title>11997&#45;&gt;11998</title>
<path fill="none" stroke="black" d="M507.78,-202.07C502.96,-193.72 497.89,-184.93 492.93,-176.33"/>
<polygon fill="black" stroke="black" points="495.96,-174.58 487.93,-167.67 489.9,-178.08 495.96,-174.58"/>
</g>
<!-- 12433 -->
<g id="node14" class="node">
<title>12433</title>
<path fill="#eb9f68" stroke="black" d="M680,-166.25C680,-166.25 565,-166.25 565,-166.25 559,-166.25 553,-160.25 553,-154.25 553,-154.25 553,-84 553,-84 553,-78 559,-72 565,-72 565,-72 680,-72 680,-72 686,-72 692,-78 692,-84 692,-84 692,-154.25 692,-154.25 692,-160.25 686,-166.25 680,-166.25"/>
<text text-anchor="middle" x="622.5" y="-148.95" font-family="Helvetica,sans-Serif" font-size="14.00">24_U &lt;= 0.5</text>
<text text-anchor="middle" x="622.5" y="-131.7" font-family="Helvetica,sans-Serif" font-size="14.00">entropy = 0.702</text>
<text text-anchor="middle" x="622.5" y="-114.45" font-family="Helvetica,sans-Serif" font-size="14.00">samples = 286</text>
<text text-anchor="middle" x="622.5" y="-97.2" font-family="Helvetica,sans-Serif" font-size="14.00">value = [374, 88]</text>
<text text-anchor="middle" x="622.5" y="-79.95" font-family="Helvetica,sans-Serif" font-size="14.00">class = Animal</text>
</g>
<!-- 11997&#45;&gt;12433 -->
<g id="edge13" class="edge">
<title>11997&#45;&gt;12433</title>
<path fill="none" stroke="black" d="M566.27,-202.07C572.13,-193.54 578.3,-184.54 584.32,-175.77"/>
<polygon fill="black" stroke="black" points="587.15,-177.83 589.92,-167.61 581.38,-173.87 587.15,-177.83"/>
</g>
<!-- 11999 -->
<g id="node12" class="node">
<title>11999</title>
<path fill="#c0c0c0" stroke="black" d="M412.5,-36C412.5,-36 382.5,-36 382.5,-36 376.5,-36 370.5,-30 370.5,-24 370.5,-24 370.5,-12 370.5,-12 370.5,-6 376.5,0 382.5,0 382.5,0 412.5,0 412.5,0 418.5,0 424.5,-6 424.5,-12 424.5,-12 424.5,-24 424.5,-24 424.5,-30 418.5,-36 412.5,-36"/>
<text text-anchor="middle" x="397.5" y="-13.32" font-family="Helvetica,sans-Serif" font-size="14.00">(...)</text>
</g>
<!-- 11998&#45;&gt;11999 -->
<g id="edge11" class="edge">
<title>11998&#45;&gt;11999</title>
<path fill="none" stroke="black" d="M431.03,-71.75C425.35,-62.83 419.59,-53.76 414.48,-45.72"/>
<polygon fill="black" stroke="black" points="417.54,-44.01 409.23,-37.45 411.64,-47.77 417.54,-44.01"/>
</g>
<!-- 12378 -->
<g id="node13" class="node">
<title>12378</title>
<path fill="#c0c0c0" stroke="black" d="M484.5,-36C484.5,-36 454.5,-36 454.5,-36 448.5,-36 442.5,-30 442.5,-24 442.5,-24 442.5,-12 442.5,-12 442.5,-6 448.5,0 454.5,0 454.5,0 484.5,0 484.5,0 490.5,0 496.5,-6 496.5,-12 496.5,-12 496.5,-24 496.5,-24 496.5,-30 490.5,-36 484.5,-36"/>
<text text-anchor="middle" x="469.5" y="-13.32" font-family="Helvetica,sans-Serif" font-size="14.00">(...)</text>
</g>
<!-- 11998&#45;&gt;12378 -->
<g id="edge12" class="edge">
<title>11998&#45;&gt;12378</title>
<path fill="none" stroke="black" d="M464.71,-71.75C465.46,-63.52 466.22,-55.17 466.9,-47.61"/>
<polygon fill="black" stroke="black" points="470.39,-47.96 467.8,-37.68 463.41,-47.32 470.39,-47.96"/>
</g>
<!-- 12434 -->
<g id="node15" class="node">
<title>12434</title>
<path fill="#c0c0c0" stroke="black" d="M578.5,-36C578.5,-36 548.5,-36 548.5,-36 542.5,-36 536.5,-30 536.5,-24 536.5,-24 536.5,-12 536.5,-12 536.5,-6 542.5,0 548.5,0 548.5,0 578.5,0 578.5,0 584.5,0 590.5,-6 590.5,-12 590.5,-12 590.5,-24 590.5,-24 590.5,-30 584.5,-36 578.5,-36"/>
<text text-anchor="middle" x="563.5" y="-13.32" font-family="Helvetica,sans-Serif" font-size="14.00">(...)</text>
</g>
<!-- 12433&#45;&gt;12434 -->
<g id="edge14" class="edge">
<title>12433&#45;&gt;12434</title>
<path fill="none" stroke="black" d="M594.9,-71.75C589.65,-62.93 584.31,-53.96 579.56,-45.99"/>
<polygon fill="black" stroke="black" points="582.62,-44.28 574.5,-37.47 576.6,-47.86 582.62,-44.28"/>
</g>
<!-- 12549 -->
<g id="node16" class="node">
<title>12549</title>
<path fill="#c0c0c0" stroke="black" d="M650.5,-36C650.5,-36 620.5,-36 620.5,-36 614.5,-36 608.5,-30 608.5,-24 608.5,-24 608.5,-12 608.5,-12 608.5,-6 614.5,0 620.5,0 620.5,0 650.5,0 650.5,0 656.5,0 662.5,-6 662.5,-12 662.5,-12 662.5,-24 662.5,-24 662.5,-30 656.5,-36 650.5,-36"/>
<text text-anchor="middle" x="635.5" y="-13.32" font-family="Helvetica,sans-Serif" font-size="14.00">(...)</text>
</g>
<!-- 12433&#45;&gt;12549 -->
<g id="edge15" class="edge">
<title>12433&#45;&gt;12549</title>
<path fill="none" stroke="black" d="M628.58,-71.75C629.67,-63.42 630.78,-54.97 631.78,-47.34"/>
<polygon fill="black" stroke="black" points="635.22,-48.04 633.05,-37.67 628.28,-47.13 635.22,-48.04"/>
</g>
<!-- 12571 -->
<g id="node18" class="node">
<title>12571</title>
<path fill="#f2c29f" stroke="black" d="M952.5,-296.5C952.5,-296.5 810.5,-296.5 810.5,-296.5 804.5,-296.5 798.5,-290.5 798.5,-284.5 798.5,-284.5 798.5,-214.25 798.5,-214.25 798.5,-208.25 804.5,-202.25 810.5,-202.25 810.5,-202.25 952.5,-202.25 952.5,-202.25 958.5,-202.25 964.5,-208.25 964.5,-214.25 964.5,-214.25 964.5,-284.5 964.5,-284.5 964.5,-290.5 958.5,-296.5 952.5,-296.5"/>
<text text-anchor="middle" x="881.5" y="-279.2" font-family="Helvetica,sans-Serif" font-size="14.00">20_G &lt;= 0.5</text>
<text text-anchor="middle" x="881.5" y="-261.95" font-family="Helvetica,sans-Serif" font-size="14.00">entropy = 0.924</text>
<text text-anchor="middle" x="881.5" y="-244.7" font-family="Helvetica,sans-Serif" font-size="14.00">samples = 6828</text>
<text text-anchor="middle" x="881.5" y="-227.45" font-family="Helvetica,sans-Serif" font-size="14.00">value = [7171, 3677]</text>
<text text-anchor="middle" x="881.5" y="-210.2" font-family="Helvetica,sans-Serif" font-size="14.00">class = Animal</text>
</g>
<!-- 12570&#45;&gt;12571 -->
<g id="edge17" class="edge">
<title>12570&#45;&gt;12571</title>
<path fill="none" stroke="black" d="M881.5,-332.32C881.5,-324.42 881.5,-316.13 881.5,-307.98"/>
<polygon fill="black" stroke="black" points="885,-308.12 881.5,-298.12 878,-308.12 885,-308.12"/>
</g>
<!-- 15780 -->
<g id="node25" class="node">
<title>15780</title>
<path fill="#f8dcc8" stroke="black" d="M1224.5,-296.5C1224.5,-296.5 1082.5,-296.5 1082.5,-296.5 1076.5,-296.5 1070.5,-290.5 1070.5,-284.5 1070.5,-284.5 1070.5,-214.25 1070.5,-214.25 1070.5,-208.25 1076.5,-202.25 1082.5,-202.25 1082.5,-202.25 1224.5,-202.25 1224.5,-202.25 1230.5,-202.25 1236.5,-208.25 1236.5,-214.25 1236.5,-214.25 1236.5,-284.5 1236.5,-284.5 1236.5,-290.5 1230.5,-296.5 1224.5,-296.5"/>
<text text-anchor="middle" x="1153.5" y="-279.2" font-family="Helvetica,sans-Serif" font-size="14.00">4_C &lt;= 0.5</text>
<text text-anchor="middle" x="1153.5" y="-261.95" font-family="Helvetica,sans-Serif" font-size="14.00">entropy = 0.981</text>
<text text-anchor="middle" x="1153.5" y="-244.7" font-family="Helvetica,sans-Serif" font-size="14.00">samples = 2271</text>
<text text-anchor="middle" x="1153.5" y="-227.45" font-family="Helvetica,sans-Serif" font-size="14.00">value = [2098, 1511]</text>
<text text-anchor="middle" x="1153.5" y="-210.2" font-family="Helvetica,sans-Serif" font-size="14.00">class = Animal</text>
</g>
<!-- 12570&#45;&gt;15780 -->
<g id="edge24" class="edge">
<title>12570&#45;&gt;15780</title>
<path fill="none" stroke="black" d="M964.96,-339.27C994.98,-325.12 1029.04,-309.06 1059.88,-294.52"/>
<polygon fill="black" stroke="black" points="1061.28,-297.73 1068.83,-290.3 1058.29,-291.4 1061.28,-297.73"/>
</g>
<!-- 12572 -->
<g id="node19" class="node">
<title>12572</title>
<path fill="#f5cdb0" stroke="black" d="M864.5,-166.25C864.5,-166.25 722.5,-166.25 722.5,-166.25 716.5,-166.25 710.5,-160.25 710.5,-154.25 710.5,-154.25 710.5,-84 710.5,-84 710.5,-78 716.5,-72 722.5,-72 722.5,-72 864.5,-72 864.5,-72 870.5,-72 876.5,-78 876.5,-84 876.5,-84 876.5,-154.25 876.5,-154.25 876.5,-160.25 870.5,-166.25 864.5,-166.25"/>
<text text-anchor="middle" x="793.5" y="-148.95" font-family="Helvetica,sans-Serif" font-size="14.00">22_G &lt;= 0.5</text>
<text text-anchor="middle" x="793.5" y="-131.7" font-family="Helvetica,sans-Serif" font-size="14.00">entropy = 0.955</text>
<text text-anchor="middle" x="793.5" y="-114.45" font-family="Helvetica,sans-Serif" font-size="14.00">samples = 4724</text>
<text text-anchor="middle" x="793.5" y="-97.2" font-family="Helvetica,sans-Serif" font-size="14.00">value = [4680, 2820]</text>
<text text-anchor="middle" x="793.5" y="-79.95" font-family="Helvetica,sans-Serif" font-size="14.00">class = Animal</text>
</g>
<!-- 12571&#45;&gt;12572 -->
<g id="edge18" class="edge">
<title>12571&#45;&gt;12572</title>
<path fill="none" stroke="black" d="M849.73,-202.07C843.87,-193.54 837.7,-184.54 831.68,-175.77"/>
<polygon fill="black" stroke="black" points="834.62,-173.87 826.08,-167.61 828.85,-177.83 834.62,-173.87"/>
</g>
<!-- 14731 -->
<g id="node22" class="node">
<title>14731</title>
<path fill="#eeac7d" stroke="black" d="M1040,-166.25C1040,-166.25 907,-166.25 907,-166.25 901,-166.25 895,-160.25 895,-154.25 895,-154.25 895,-84 895,-84 895,-78 901,-72 907,-72 907,-72 1040,-72 1040,-72 1046,-72 1052,-78 1052,-84 1052,-84 1052,-154.25 1052,-154.25 1052,-160.25 1046,-166.25 1040,-166.25"/>
<text text-anchor="middle" x="973.5" y="-148.95" font-family="Helvetica,sans-Serif" font-size="14.00">23_U &lt;= 0.5</text>
<text text-anchor="middle" x="973.5" y="-131.7" font-family="Helvetica,sans-Serif" font-size="14.00">entropy = 0.821</text>
<text text-anchor="middle" x="973.5" y="-114.45" font-family="Helvetica,sans-Serif" font-size="14.00">samples = 2104</text>
<text text-anchor="middle" x="973.5" y="-97.2" font-family="Helvetica,sans-Serif" font-size="14.00">value = [2491, 857]</text>
<text text-anchor="middle" x="973.5" y="-79.95" font-family="Helvetica,sans-Serif" font-size="14.00">class = Animal</text>
</g>
<!-- 12571&#45;&gt;14731 -->
<g id="edge21" class="edge">
<title>12571&#45;&gt;14731</title>
<path fill="none" stroke="black" d="M914.71,-202.07C920.9,-193.45 927.43,-184.35 933.79,-175.49"/>
<polygon fill="black" stroke="black" points="936.47,-177.75 939.45,-167.59 930.78,-173.67 936.47,-177.75"/>
</g>
<!-- 12573 -->
<g id="node20" class="node">
<title>12573</title>
<path fill="#c0c0c0" stroke="black" d="M754.5,-36C754.5,-36 724.5,-36 724.5,-36 718.5,-36 712.5,-30 712.5,-24 712.5,-24 712.5,-12 712.5,-12 712.5,-6 718.5,0 724.5,0 724.5,0 754.5,0 754.5,0 760.5,0 766.5,-6 766.5,-12 766.5,-12 766.5,-24 766.5,-24 766.5,-30 760.5,-36 754.5,-36"/>
<text text-anchor="middle" x="739.5" y="-13.32" font-family="Helvetica,sans-Serif" font-size="14.00">(...)</text>
</g>
<!-- 12572&#45;&gt;12573 -->
<g id="edge19" class="edge">
<title>12572&#45;&gt;12573</title>
<path fill="none" stroke="black" d="M768.24,-71.75C763.48,-63.03 758.66,-54.16 754.35,-46.26"/>
<polygon fill="black" stroke="black" points="757.44,-44.61 749.58,-37.5 751.29,-47.96 757.44,-44.61"/>
</g>
<!-- 14494 -->
<g id="node21" class="node">
<title>14494</title>
<path fill="#c0c0c0" stroke="black" d="M826.5,-36C826.5,-36 796.5,-36 796.5,-36 790.5,-36 784.5,-30 784.5,-24 784.5,-24 784.5,-12 784.5,-12 784.5,-6 790.5,0 796.5,0 796.5,0 826.5,0 826.5,0 832.5,0 838.5,-6 838.5,-12 838.5,-12 838.5,-24 838.5,-24 838.5,-30 832.5,-36 826.5,-36"/>
<text text-anchor="middle" x="811.5" y="-13.32" font-family="Helvetica,sans-Serif" font-size="14.00">(...)</text>
</g>
<!-- 12572&#45;&gt;14494 -->
<g id="edge20" class="edge">
<title>12572&#45;&gt;14494</title>
<path fill="none" stroke="black" d="M801.92,-71.75C803.43,-63.42 804.97,-54.97 806.35,-47.34"/>
<polygon fill="black" stroke="black" points="809.77,-48.13 808.11,-37.66 802.88,-46.88 809.77,-48.13"/>
</g>
<!-- 14732 -->
<g id="node23" class="node">
<title>14732</title>
<path fill="#c0c0c0" stroke="black" d="M934.5,-36C934.5,-36 904.5,-36 904.5,-36 898.5,-36 892.5,-30 892.5,-24 892.5,-24 892.5,-12 892.5,-12 892.5,-6 898.5,0 904.5,0 904.5,0 934.5,0 934.5,0 940.5,0 946.5,-6 946.5,-12 946.5,-12 946.5,-24 946.5,-24 946.5,-30 940.5,-36 934.5,-36"/>
<text text-anchor="middle" x="919.5" y="-13.32" font-family="Helvetica,sans-Serif" font-size="14.00">(...)</text>
</g>
<!-- 14731&#45;&gt;14732 -->
<g id="edge22" class="edge">
<title>14731&#45;&gt;14732</title>
<path fill="none" stroke="black" d="M948.24,-71.75C943.48,-63.03 938.66,-54.16 934.35,-46.26"/>
<polygon fill="black" stroke="black" points="937.44,-44.61 929.58,-37.5 931.29,-47.96 937.44,-44.61"/>
</g>
<!-- 15737 -->
<g id="node24" class="node">
<title>15737</title>
<path fill="#c0c0c0" stroke="black" d="M1006.5,-36C1006.5,-36 976.5,-36 976.5,-36 970.5,-36 964.5,-30 964.5,-24 964.5,-24 964.5,-12 964.5,-12 964.5,-6 970.5,0 976.5,0 976.5,0 1006.5,0 1006.5,0 1012.5,0 1018.5,-6 1018.5,-12 1018.5,-12 1018.5,-24 1018.5,-24 1018.5,-30 1012.5,-36 1006.5,-36"/>
<text text-anchor="middle" x="991.5" y="-13.32" font-family="Helvetica,sans-Serif" font-size="14.00">(...)</text>
</g>
<!-- 14731&#45;&gt;15737 -->
<g id="edge23" class="edge">
<title>14731&#45;&gt;15737</title>
<path fill="none" stroke="black" d="M981.92,-71.75C983.43,-63.42 984.97,-54.97 986.35,-47.34"/>
<polygon fill="black" stroke="black" points="989.77,-48.13 988.11,-37.66 982.88,-46.88 989.77,-48.13"/>
</g>
<!-- 15781 -->
<g id="node26" class="node">
<title>15781</title>
<path fill="#feffff" stroke="black" d="M1224.5,-166.25C1224.5,-166.25 1082.5,-166.25 1082.5,-166.25 1076.5,-166.25 1070.5,-160.25 1070.5,-154.25 1070.5,-154.25 1070.5,-84 1070.5,-84 1070.5,-78 1076.5,-72 1082.5,-72 1082.5,-72 1224.5,-72 1224.5,-72 1230.5,-72 1236.5,-78 1236.5,-84 1236.5,-84 1236.5,-154.25 1236.5,-154.25 1236.5,-160.25 1230.5,-166.25 1224.5,-166.25"/>
<text text-anchor="middle" x="1153.5" y="-148.95" font-family="Helvetica,sans-Serif" font-size="14.00">3_A &lt;= 0.5</text>
<text text-anchor="middle" x="1153.5" y="-131.7" font-family="Helvetica,sans-Serif" font-size="14.00">entropy = 1.0</text>
<text text-anchor="middle" x="1153.5" y="-114.45" font-family="Helvetica,sans-Serif" font-size="14.00">samples = 1666</text>
<text text-anchor="middle" x="1153.5" y="-97.2" font-family="Helvetica,sans-Serif" font-size="14.00">value = [1312, 1316]</text>
<text text-anchor="middle" x="1153.5" y="-79.95" font-family="Helvetica,sans-Serif" font-size="14.00">class = Plant</text>
</g>
<!-- 15780&#45;&gt;15781 -->
<g id="edge25" class="edge">
<title>15780&#45;&gt;15781</title>
<path fill="none" stroke="black" d="M1153.5,-202.07C1153.5,-194.17 1153.5,-185.88 1153.5,-177.73"/>
<polygon fill="black" stroke="black" points="1157,-177.87 1153.5,-167.87 1150,-177.87 1157,-177.87"/>
</g>
<!-- 16710 -->
<g id="node29" class="node">
<title>16710</title>
<path fill="#eba06a" stroke="black" d="M1390.5,-166.25C1390.5,-166.25 1266.5,-166.25 1266.5,-166.25 1260.5,-166.25 1254.5,-160.25 1254.5,-154.25 1254.5,-154.25 1254.5,-84 1254.5,-84 1254.5,-78 1260.5,-72 1266.5,-72 1266.5,-72 1390.5,-72 1390.5,-72 1396.5,-72 1402.5,-78 1402.5,-84 1402.5,-84 1402.5,-154.25 1402.5,-154.25 1402.5,-160.25 1396.5,-166.25 1390.5,-166.25"/>
<text text-anchor="middle" x="1328.5" y="-148.95" font-family="Helvetica,sans-Serif" font-size="14.00">23_C &lt;= 0.5</text>
<text text-anchor="middle" x="1328.5" y="-131.7" font-family="Helvetica,sans-Serif" font-size="14.00">entropy = 0.719</text>
<text text-anchor="middle" x="1328.5" y="-114.45" font-family="Helvetica,sans-Serif" font-size="14.00">samples = 605</text>
<text text-anchor="middle" x="1328.5" y="-97.2" font-family="Helvetica,sans-Serif" font-size="14.00">value = [786, 195]</text>
<text text-anchor="middle" x="1328.5" y="-79.95" font-family="Helvetica,sans-Serif" font-size="14.00">class = Animal</text>
</g>
<!-- 15780&#45;&gt;16710 -->
<g id="edge28" class="edge">
<title>15780&#45;&gt;16710</title>
<path fill="none" stroke="black" d="M1216.68,-202.07C1229.49,-192.69 1243.05,-182.75 1256.14,-173.15"/>
<polygon fill="black" stroke="black" points="1257.9,-176.2 1263.9,-167.47 1253.76,-170.56 1257.9,-176.2"/>
</g>
<!-- 15782 -->
<g id="node27" class="node">
<title>15782</title>
<path fill="#c0c0c0" stroke="black" d="M1129.5,-36C1129.5,-36 1099.5,-36 1099.5,-36 1093.5,-36 1087.5,-30 1087.5,-24 1087.5,-24 1087.5,-12 1087.5,-12 1087.5,-6 1093.5,0 1099.5,0 1099.5,0 1129.5,0 1129.5,0 1135.5,0 1141.5,-6 1141.5,-12 1141.5,-12 1141.5,-24 1141.5,-24 1141.5,-30 1135.5,-36 1129.5,-36"/>
<text text-anchor="middle" x="1114.5" y="-13.32" font-family="Helvetica,sans-Serif" font-size="14.00">(...)</text>
</g>
<!-- 15781&#45;&gt;15782 -->
<g id="edge26" class="edge">
<title>15781&#45;&gt;15782</title>
<path fill="none" stroke="black" d="M1135.26,-71.75C1131.9,-63.22 1128.49,-54.57 1125.44,-46.8"/>
<polygon fill="black" stroke="black" points="1128.73,-45.61 1121.81,-37.58 1122.21,-48.17 1128.73,-45.61"/>
</g>
<!-- 16459 -->
<g id="node28" class="node">
<title>16459</title>
<path fill="#c0c0c0" stroke="black" d="M1201.5,-36C1201.5,-36 1171.5,-36 1171.5,-36 1165.5,-36 1159.5,-30 1159.5,-24 1159.5,-24 1159.5,-12 1159.5,-12 1159.5,-6 1165.5,0 1171.5,0 1171.5,0 1201.5,0 1201.5,0 1207.5,0 1213.5,-6 1213.5,-12 1213.5,-12 1213.5,-24 1213.5,-24 1213.5,-30 1207.5,-36 1201.5,-36"/>
<text text-anchor="middle" x="1186.5" y="-13.32" font-family="Helvetica,sans-Serif" font-size="14.00">(...)</text>
</g>
<!-- 15781&#45;&gt;16459 -->
<g id="edge27" class="edge">
<title>15781&#45;&gt;16459</title>
<path fill="none" stroke="black" d="M1168.94,-71.75C1171.74,-63.32 1174.59,-54.77 1177.16,-47.07"/>
<polygon fill="black" stroke="black" points="1180.47,-48.2 1180.3,-37.61 1173.83,-45.99 1180.47,-48.2"/>
</g>
<!-- 16711 -->
<g id="node30" class="node">
<title>16711</title>
<path fill="#c0c0c0" stroke="black" d="M1307.5,-36C1307.5,-36 1277.5,-36 1277.5,-36 1271.5,-36 1265.5,-30 1265.5,-24 1265.5,-24 1265.5,-12 1265.5,-12 1265.5,-6 1271.5,0 1277.5,0 1277.5,0 1307.5,0 1307.5,0 1313.5,0 1319.5,-6 1319.5,-12 1319.5,-12 1319.5,-24 1319.5,-24 1319.5,-30 1313.5,-36 1307.5,-36"/>
<text text-anchor="middle" x="1292.5" y="-13.32" font-family="Helvetica,sans-Serif" font-size="14.00">(...)</text>
</g>
<!-- 16710&#45;&gt;16711 -->
<g id="edge29" class="edge">
<title>16710&#45;&gt;16711</title>
<path fill="none" stroke="black" d="M1311.66,-71.75C1308.56,-63.22 1305.42,-54.57 1302.6,-46.8"/>
<polygon fill="black" stroke="black" points="1305.96,-45.8 1299.25,-37.6 1299.38,-48.19 1305.96,-45.8"/>
</g>
<!-- 16966 -->
<g id="node31" class="node">
<title>16966</title>
<path fill="#c0c0c0" stroke="black" d="M1379.5,-36C1379.5,-36 1349.5,-36 1349.5,-36 1343.5,-36 1337.5,-30 1337.5,-24 1337.5,-24 1337.5,-12 1337.5,-12 1337.5,-6 1343.5,0 1349.5,0 1349.5,0 1379.5,0 1379.5,0 1385.5,0 1391.5,-6 1391.5,-12 1391.5,-12 1391.5,-24 1391.5,-24 1391.5,-30 1385.5,-36 1379.5,-36"/>
<text text-anchor="middle" x="1364.5" y="-13.32" font-family="Helvetica,sans-Serif" font-size="14.00">(...)</text>
</g>
<!-- 16710&#45;&gt;16966 -->
<g id="edge30" class="edge">
<title>16710&#45;&gt;16966</title>
<path fill="none" stroke="black" d="M1345.34,-71.75C1348.44,-63.22 1351.58,-54.57 1354.4,-46.8"/>
<polygon fill="black" stroke="black" points="1357.62,-48.19 1357.75,-37.6 1351.04,-45.8 1357.62,-48.19"/>
</g>
</g>
</svg>
