<?xml version="1.0" encoding="UTF-8" standalone="no"?>
<!DOCTYPE svg PUBLIC "-//W3C//DTD SVG 1.1//EN"
 "http://www.w3.org/Graphics/SVG/1.1/DTD/svg11.dtd">
<!-- Generated by graphviz version 12.0.0 (20240803.0821)
 -->
<!-- Title: Tree Pages: 1 -->
<svg width="1393pt" height="565pt"
 viewBox="0.00 0.00 1392.50 565.00" xmlns="http://www.w3.org/2000/svg" xmlns:xlink="http://www.w3.org/1999/xlink">
<g id="graph0" class="graph" transform="scale(1 1) rotate(0) translate(4 561)">
<title>Tree</title>
<polygon fill="white" stroke="none" points="-4,4 -4,-561 1388.5,-561 1388.5,4 -4,4"/>
<!-- 0 -->
<g id="node1" class="node">
<title>0</title>
<path fill="#feffff" stroke="black" d="M810,-557C810,-557 650,-557 650,-557 644,-557 638,-551 638,-545 638,-545 638,-474.75 638,-474.75 638,-468.75 644,-462.75 650,-462.75 650,-462.75 810,-462.75 810,-462.75 816,-462.75 822,-468.75 822,-474.75 822,-474.75 822,-545 822,-545 822,-551 816,-557 810,-557"/>
<text text-anchor="middle" x="730" y="-539.7" font-family="Helvetica,sans-Serif" font-size="14.00">23_A &lt;= 0.5</text>
<text text-anchor="middle" x="730" y="-522.45" font-family="Helvetica,sans-Serif" font-size="14.00">entropy = 1.0</text>
<text text-anchor="middle" x="730" y="-505.2" font-family="Helvetica,sans-Serif" font-size="14.00">samples = 38018</text>
<text text-anchor="middle" x="730" y="-487.95" font-family="Helvetica,sans-Serif" font-size="14.00">value = [30128, 30217]</text>
<text text-anchor="middle" x="730" y="-470.7" font-family="Helvetica,sans-Serif" font-size="14.00">class = Plant</text>
</g>
<!-- 1 -->
<g id="node2" class="node">
<title>1</title>
<path fill="#f6fbfe" stroke="black" d="M637,-426.75C637,-426.75 477,-426.75 477,-426.75 471,-426.75 465,-420.75 465,-414.75 465,-414.75 465,-344.5 465,-344.5 465,-338.5 471,-332.5 477,-332.5 477,-332.5 637,-332.5 637,-332.5 643,-332.5 649,-338.5 649,-344.5 649,-344.5 649,-414.75 649,-414.75 649,-420.75 643,-426.75 637,-426.75"/>
<text text-anchor="middle" x="557" y="-409.45" font-family="Helvetica,sans-Serif" font-size="14.00">8_G &lt;= 0.5</text>
<text text-anchor="middle" x="557" y="-392.2" font-family="Helvetica,sans-Serif" font-size="14.00">entropy = 1.0</text>
<text text-anchor="middle" x="557" y="-374.95" font-family="Helvetica,sans-Serif" font-size="14.00">samples = 36477</text>
<text text-anchor="middle" x="557" y="-357.7" font-family="Helvetica,sans-Serif" font-size="14.00">value = [28242, 29601]</text>
<text text-anchor="middle" x="557" y="-340.45" font-family="Helvetica,sans-Serif" font-size="14.00">class = Plant</text>
</g>
<!-- 0&#45;&gt;1 -->
<g id="edge1" class="edge">
<title>0&#45;&gt;1</title>
<path fill="none" stroke="black" d="M667.54,-462.57C655,-453.28 641.73,-443.44 628.9,-433.93"/>
<polygon fill="black" stroke="black" points="630.99,-431.12 620.87,-427.97 626.82,-436.74 630.99,-431.12"/>
<text text-anchor="middle" x="623.33" y="-447.13" font-family="Helvetica,sans-Serif" font-size="14.00">True</text>
</g>
<!-- 16082 -->
<g id="node17" class="node">
<title>16082</title>
<path fill="#edaa7a" stroke="black" d="M972.5,-426.75C972.5,-426.75 839.5,-426.75 839.5,-426.75 833.5,-426.75 827.5,-420.75 827.5,-414.75 827.5,-414.75 827.5,-344.5 827.5,-344.5 827.5,-338.5 833.5,-332.5 839.5,-332.5 839.5,-332.5 972.5,-332.5 972.5,-332.5 978.5,-332.5 984.5,-338.5 984.5,-344.5 984.5,-344.5 984.5,-414.75 984.5,-414.75 984.5,-420.75 978.5,-426.75 972.5,-426.75"/>
<text text-anchor="middle" x="906" y="-409.45" font-family="Helvetica,sans-Serif" font-size="14.00">20_U &lt;= 0.5</text>
<text text-anchor="middle" x="906" y="-392.2" font-family="Helvetica,sans-Serif" font-size="14.00">entropy = 0.805</text>
<text text-anchor="middle" x="906" y="-374.95" font-family="Helvetica,sans-Serif" font-size="14.00">samples = 1541</text>
<text text-anchor="middle" x="906" y="-357.7" font-family="Helvetica,sans-Serif" font-size="14.00">value = [1886, 616]</text>
<text text-anchor="middle" x="906" y="-340.45" font-family="Helvetica,sans-Serif" font-size="14.00">class = Animal</text>
</g>
<!-- 0&#45;&gt;16082 -->
<g id="edge16" class="edge">
<title>0&#45;&gt;16082</title>
<path fill="none" stroke="black" d="M793.54,-462.57C806.42,-453.19 820.06,-443.25 833.23,-433.65"/>
<polygon fill="black" stroke="black" points="835.01,-436.68 841.03,-427.96 830.89,-431.03 835.01,-436.68"/>
<text text-anchor="middle" x="838.38" y="-447.1" font-family="Helvetica,sans-Serif" font-size="14.00">False</text>
</g>
<!-- 2 -->
<g id="node3" class="node">
<title>2</title>
<path fill="#fbebdf" stroke="black" d="M361,-296.5C361,-296.5 201,-296.5 201,-296.5 195,-296.5 189,-290.5 189,-284.5 189,-284.5 189,-214.25 189,-214.25 189,-208.25 195,-202.25 201,-202.25 201,-202.25 361,-202.25 361,-202.25 367,-202.25 373,-208.25 373,-214.25 373,-214.25 373,-284.5 373,-284.5 373,-290.5 367,-296.5 361,-296.5"/>
<text text-anchor="middle" x="281" y="-279.2" font-family="Helvetica,sans-Serif" font-size="14.00">23_G &lt;= 0.5</text>
<text text-anchor="middle" x="281" y="-261.95" font-family="Helvetica,sans-Serif" font-size="14.00">entropy = 0.994</text>
<text text-anchor="middle" x="281" y="-244.7" font-family="Helvetica,sans-Serif" font-size="14.00">samples = 25107</text>
<text text-anchor="middle" x="281" y="-227.45" font-family="Helvetica,sans-Serif" font-size="14.00">value = [21634, 18152]</text>
<text text-anchor="middle" x="281" y="-210.2" font-family="Helvetica,sans-Serif" font-size="14.00">class = Animal</text>
</g>
<!-- 1&#45;&gt;2 -->
<g id="edge2" class="edge">
<title>1&#45;&gt;2</title>
<path fill="none" stroke="black" d="M464.71,-335.74C438.59,-323.6 410,-310.32 383.32,-297.92"/>
<polygon fill="black" stroke="black" points="385.12,-294.9 374.57,-293.86 382.17,-301.24 385.12,-294.9"/>
</g>
<!-- 11757 -->
<g id="node10" class="node">
<title>11757</title>
<path fill="#abd6f4" stroke="black" d="M632.5,-296.5C632.5,-296.5 481.5,-296.5 481.5,-296.5 475.5,-296.5 469.5,-290.5 469.5,-284.5 469.5,-284.5 469.5,-214.25 469.5,-214.25 469.5,-208.25 475.5,-202.25 481.5,-202.25 481.5,-202.25 632.5,-202.25 632.5,-202.25 638.5,-202.25 644.5,-208.25 644.5,-214.25 644.5,-214.25 644.5,-284.5 644.5,-284.5 644.5,-290.5 638.5,-296.5 632.5,-296.5"/>
<text text-anchor="middle" x="557" y="-279.2" font-family="Helvetica,sans-Serif" font-size="14.00">9_U &lt;= 0.5</text>
<text text-anchor="middle" x="557" y="-261.95" font-family="Helvetica,sans-Serif" font-size="14.00">entropy = 0.948</text>
<text text-anchor="middle" x="557" y="-244.7" font-family="Helvetica,sans-Serif" font-size="14.00">samples = 11370</text>
<text text-anchor="middle" x="557" y="-227.45" font-family="Helvetica,sans-Serif" font-size="14.00">value = [6608, 11449]</text>
<text text-anchor="middle" x="557" y="-210.2" font-family="Helvetica,sans-Serif" font-size="14.00">class = Plant</text>
</g>
<!-- 1&#45;&gt;11757 -->
<g id="edge9" class="edge">
<title>1&#45;&gt;11757</title>
<path fill="none" stroke="black" d="M557,-332.32C557,-324.42 557,-316.13 557,-307.98"/>
<polygon fill="black" stroke="black" points="560.5,-308.12 557,-298.12 553.5,-308.12 560.5,-308.12"/>
</g>
<!-- 3 -->
<g id="node4" class="node">
<title>3</title>
<path fill="#fcf1e9" stroke="black" d="M172,-166.25C172,-166.25 12,-166.25 12,-166.25 6,-166.25 0,-160.25 0,-154.25 0,-154.25 0,-84 0,-84 0,-78 6,-72 12,-72 12,-72 172,-72 172,-72 178,-72 184,-78 184,-84 184,-84 184,-154.25 184,-154.25 184,-160.25 178,-166.25 172,-166.25"/>
<text text-anchor="middle" x="92" y="-148.95" font-family="Helvetica,sans-Serif" font-size="14.00">1_U &lt;= 0.5</text>
<text text-anchor="middle" x="92" y="-131.7" font-family="Helvetica,sans-Serif" font-size="14.00">entropy = 0.998</text>
<text text-anchor="middle" x="92" y="-114.45" font-family="Helvetica,sans-Serif" font-size="14.00">samples = 23616</text>
<text text-anchor="middle" x="92" y="-97.2" font-family="Helvetica,sans-Serif" font-size="14.00">value = [19785, 17587]</text>
<text text-anchor="middle" x="92" y="-79.95" font-family="Helvetica,sans-Serif" font-size="14.00">class = Animal</text>
</g>
<!-- 2&#45;&gt;3 -->
<g id="edge3" class="edge">
<title>2&#45;&gt;3</title>
<path fill="none" stroke="black" d="M212.5,-201.89C198.63,-192.48 183.96,-182.53 169.8,-172.92"/>
<polygon fill="black" stroke="black" points="172.08,-170.23 161.84,-167.51 168.15,-176.03 172.08,-170.23"/>
</g>
<!-- 11208 -->
<g id="node7" class="node">
<title>11208</title>
<path fill="#eda876" stroke="black" d="M347.5,-166.25C347.5,-166.25 214.5,-166.25 214.5,-166.25 208.5,-166.25 202.5,-160.25 202.5,-154.25 202.5,-154.25 202.5,-84 202.5,-84 202.5,-78 208.5,-72 214.5,-72 214.5,-72 347.5,-72 347.5,-72 353.5,-72 359.5,-78 359.5,-84 359.5,-84 359.5,-154.25 359.5,-154.25 359.5,-160.25 353.5,-166.25 347.5,-166.25"/>
<text text-anchor="middle" x="281" y="-148.95" font-family="Helvetica,sans-Serif" font-size="14.00">11_U &lt;= 0.5</text>
<text text-anchor="middle" x="281" y="-131.7" font-family="Helvetica,sans-Serif" font-size="14.00">entropy = 0.785</text>
<text text-anchor="middle" x="281" y="-114.45" font-family="Helvetica,sans-Serif" font-size="14.00">samples = 1491</text>
<text text-anchor="middle" x="281" y="-97.2" font-family="Helvetica,sans-Serif" font-size="14.00">value = [1849, 565]</text>
<text text-anchor="middle" x="281" y="-79.95" font-family="Helvetica,sans-Serif" font-size="14.00">class = Animal</text>
</g>
<!-- 2&#45;&gt;11208 -->
<g id="edge6" class="edge">
<title>2&#45;&gt;11208</title>
<path fill="none" stroke="black" d="M281,-202.07C281,-194.17 281,-185.88 281,-177.73"/>
<polygon fill="black" stroke="black" points="284.5,-177.87 281,-167.87 277.5,-177.87 284.5,-177.87"/>
</g>
<!-- 4 -->
<g id="node5" class="node">
<title>4</title>
<path fill="#c0c0c0" stroke="black" d="M71,-36C71,-36 41,-36 41,-36 35,-36 29,-30 29,-24 29,-24 29,-12 29,-12 29,-6 35,0 41,0 41,0 71,0 71,0 77,0 83,-6 83,-12 83,-12 83,-24 83,-24 83,-30 77,-36 71,-36"/>
<text text-anchor="middle" x="56" y="-13.32" font-family="Helvetica,sans-Serif" font-size="14.00">(...)</text>
</g>
<!-- 3&#45;&gt;4 -->
<g id="edge4" class="edge">
<title>3&#45;&gt;4</title>
<path fill="none" stroke="black" d="M75.16,-71.75C72.06,-63.22 68.92,-54.57 66.1,-46.8"/>
<polygon fill="black" stroke="black" points="69.46,-45.8 62.75,-37.6 62.88,-48.19 69.46,-45.8"/>
</g>
<!-- 6341 -->
<g id="node6" class="node">
<title>6341</title>
<path fill="#c0c0c0" stroke="black" d="M143,-36C143,-36 113,-36 113,-36 107,-36 101,-30 101,-24 101,-24 101,-12 101,-12 101,-6 107,0 113,0 113,0 143,0 143,0 149,0 155,-6 155,-12 155,-12 155,-24 155,-24 155,-30 149,-36 143,-36"/>
<text text-anchor="middle" x="128" y="-13.32" font-family="Helvetica,sans-Serif" font-size="14.00">(...)</text>
</g>
<!-- 3&#45;&gt;6341 -->
<g id="edge5" class="edge">
<title>3&#45;&gt;6341</title>
<path fill="none" stroke="black" d="M108.84,-71.75C111.94,-63.22 115.08,-54.57 117.9,-46.8"/>
<polygon fill="black" stroke="black" points="121.12,-48.19 121.25,-37.6 114.54,-45.8 121.12,-48.19"/>
</g>
<!-- 11209 -->
<g id="node8" class="node">
<title>11209</title>
<path fill="#c0c0c0" stroke="black" d="M262,-36C262,-36 232,-36 232,-36 226,-36 220,-30 220,-24 220,-24 220,-12 220,-12 220,-6 226,0 232,0 232,0 262,0 262,0 268,0 274,-6 274,-12 274,-12 274,-24 274,-24 274,-30 268,-36 262,-36"/>
<text text-anchor="middle" x="247" y="-13.32" font-family="Helvetica,sans-Serif" font-size="14.00">(...)</text>
</g>
<!-- 11208&#45;&gt;11209 -->
<g id="edge7" class="edge">
<title>11208&#45;&gt;11209</title>
<path fill="none" stroke="black" d="M265.1,-71.75C262.17,-63.22 259.2,-54.57 256.53,-46.8"/>
<polygon fill="black" stroke="black" points="259.94,-45.93 253.38,-37.6 253.32,-48.2 259.94,-45.93"/>
</g>
<!-- 11586 -->
<g id="node9" class="node">
<title>11586</title>
<path fill="#c0c0c0" stroke="black" d="M334,-36C334,-36 304,-36 304,-36 298,-36 292,-30 292,-24 292,-24 292,-12 292,-12 292,-6 298,0 304,0 304,0 334,0 334,0 340,0 346,-6 346,-12 346,-12 346,-24 346,-24 346,-30 340,-36 334,-36"/>
<text text-anchor="middle" x="319" y="-13.32" font-family="Helvetica,sans-Serif" font-size="14.00">(...)</text>
</g>
<!-- 11208&#45;&gt;11586 -->
<g id="edge8" class="edge">
<title>11208&#45;&gt;11586</title>
<path fill="none" stroke="black" d="M298.78,-71.75C302.05,-63.22 305.37,-54.57 308.34,-46.8"/>
<polygon fill="black" stroke="black" points="311.56,-48.18 311.88,-37.59 305.03,-45.67 311.56,-48.18"/>
</g>
<!-- 11758 -->
<g id="node11" class="node">
<title>11758</title>
<path fill="#95caf1" stroke="black" d="M532,-166.25C532,-166.25 390,-166.25 390,-166.25 384,-166.25 378,-160.25 378,-154.25 378,-154.25 378,-84 378,-84 378,-78 384,-72 390,-72 390,-72 532,-72 532,-72 538,-72 544,-78 544,-84 544,-84 544,-154.25 544,-154.25 544,-160.25 538,-166.25 532,-166.25"/>
<text text-anchor="middle" x="461" y="-148.95" font-family="Helvetica,sans-Serif" font-size="14.00">19_C &lt;= 0.5</text>
<text text-anchor="middle" x="461" y="-131.7" font-family="Helvetica,sans-Serif" font-size="14.00">entropy = 0.901</text>
<text text-anchor="middle" x="461" y="-114.45" font-family="Helvetica,sans-Serif" font-size="14.00">samples = 8505</text>
<text text-anchor="middle" x="461" y="-97.2" font-family="Helvetica,sans-Serif" font-size="14.00">value = [4300, 9275]</text>
<text text-anchor="middle" x="461" y="-79.95" font-family="Helvetica,sans-Serif" font-size="14.00">class = Plant</text>
</g>
<!-- 11757&#45;&gt;11758 -->
<g id="edge10" class="edge">
<title>11757&#45;&gt;11758</title>
<path fill="none" stroke="black" d="M522.34,-202.07C515.88,-193.45 509.08,-184.35 502.44,-175.49"/>
<polygon fill="black" stroke="black" points="505.31,-173.48 496.51,-167.57 499.7,-177.67 505.31,-173.48"/>
</g>
<!-- 14945 -->
<g id="node14" class="node">
<title>14945</title>
<path fill="#fdf8f4" stroke="black" d="M716,-166.25C716,-166.25 574,-166.25 574,-166.25 568,-166.25 562,-160.25 562,-154.25 562,-154.25 562,-84 562,-84 562,-78 568,-72 574,-72 574,-72 716,-72 716,-72 722,-72 728,-78 728,-84 728,-84 728,-154.25 728,-154.25 728,-160.25 722,-166.25 716,-166.25"/>
<text text-anchor="middle" x="645" y="-148.95" font-family="Helvetica,sans-Serif" font-size="14.00">14_U &lt;= 0.5</text>
<text text-anchor="middle" x="645" y="-131.7" font-family="Helvetica,sans-Serif" font-size="14.00">entropy = 0.999</text>
<text text-anchor="middle" x="645" y="-114.45" font-family="Helvetica,sans-Serif" font-size="14.00">samples = 2865</text>
<text text-anchor="middle" x="645" y="-97.2" font-family="Helvetica,sans-Serif" font-size="14.00">value = [2308, 2174]</text>
<text text-anchor="middle" x="645" y="-79.95" font-family="Helvetica,sans-Serif" font-size="14.00">class = Animal</text>
</g>
<!-- 11757&#45;&gt;14945 -->
<g id="edge13" class="edge">
<title>11757&#45;&gt;14945</title>
<path fill="none" stroke="black" d="M588.77,-202.07C594.63,-193.54 600.8,-184.54 606.82,-175.77"/>
<polygon fill="black" stroke="black" points="609.65,-177.83 612.42,-167.61 603.88,-173.87 609.65,-177.83"/>
</g>
<!-- 11759 -->
<g id="node12" class="node">
<title>11759</title>
<path fill="#c0c0c0" stroke="black" d="M424,-36C424,-36 394,-36 394,-36 388,-36 382,-30 382,-24 382,-24 382,-12 382,-12 382,-6 388,0 394,0 394,0 424,0 424,0 430,0 436,-6 436,-12 436,-12 436,-24 436,-24 436,-30 430,-36 424,-36"/>
<text text-anchor="middle" x="409" y="-13.32" font-family="Helvetica,sans-Serif" font-size="14.00">(...)</text>
</g>
<!-- 11758&#45;&gt;11759 -->
<g id="edge11" class="edge">
<title>11758&#45;&gt;11759</title>
<path fill="none" stroke="black" d="M436.67,-71.75C432.1,-63.03 427.45,-54.16 423.3,-46.26"/>
<polygon fill="black" stroke="black" points="426.46,-44.74 418.71,-37.51 420.26,-47.99 426.46,-44.74"/>
</g>
<!-- 14198 -->
<g id="node13" class="node">
<title>14198</title>
<path fill="#c0c0c0" stroke="black" d="M496,-36C496,-36 466,-36 466,-36 460,-36 454,-30 454,-24 454,-24 454,-12 454,-12 454,-6 460,0 466,0 466,0 496,0 496,0 502,0 508,-6 508,-12 508,-12 508,-24 508,-24 508,-30 502,-36 496,-36"/>
<text text-anchor="middle" x="481" y="-13.32" font-family="Helvetica,sans-Serif" font-size="14.00">(...)</text>
</g>
<!-- 11758&#45;&gt;14198 -->
<g id="edge12" class="edge">
<title>11758&#45;&gt;14198</title>
<path fill="none" stroke="black" d="M470.36,-71.75C472.04,-63.42 473.74,-54.97 475.28,-47.34"/>
<polygon fill="black" stroke="black" points="478.69,-48.15 477.24,-37.66 471.83,-46.77 478.69,-48.15"/>
</g>
<!-- 14946 -->
<g id="node15" class="node">
<title>14946</title>
<path fill="#c0c0c0" stroke="black" d="M606,-36C606,-36 576,-36 576,-36 570,-36 564,-30 564,-24 564,-24 564,-12 564,-12 564,-6 570,0 576,0 576,0 606,0 606,0 612,0 618,-6 618,-12 618,-12 618,-24 618,-24 618,-30 612,-36 606,-36"/>
<text text-anchor="middle" x="591" y="-13.32" font-family="Helvetica,sans-Serif" font-size="14.00">(...)</text>
</g>
<!-- 14945&#45;&gt;14946 -->
<g id="edge14" class="edge">
<title>14945&#45;&gt;14946</title>
<path fill="none" stroke="black" d="M619.74,-71.75C614.98,-63.03 610.16,-54.16 605.85,-46.26"/>
<polygon fill="black" stroke="black" points="608.94,-44.61 601.08,-37.5 602.79,-47.96 608.94,-44.61"/>
</g>
<!-- 15737 -->
<g id="node16" class="node">
<title>15737</title>
<path fill="#c0c0c0" stroke="black" d="M678,-36C678,-36 648,-36 648,-36 642,-36 636,-30 636,-24 636,-24 636,-12 636,-12 636,-6 642,0 648,0 648,0 678,0 678,0 684,0 690,-6 690,-12 690,-12 690,-24 690,-24 690,-30 684,-36 678,-36"/>
<text text-anchor="middle" x="663" y="-13.32" font-family="Helvetica,sans-Serif" font-size="14.00">(...)</text>
</g>
<!-- 14945&#45;&gt;15737 -->
<g id="edge15" class="edge">
<title>14945&#45;&gt;15737</title>
<path fill="none" stroke="black" d="M653.42,-71.75C654.93,-63.42 656.47,-54.97 657.85,-47.34"/>
<polygon fill="black" stroke="black" points="661.27,-48.13 659.61,-37.66 654.38,-46.88 661.27,-48.13"/>
</g>
<!-- 16083 -->
<g id="node18" class="node">
<title>16083</title>
<path fill="#efb184" stroke="black" d="M972.5,-296.5C972.5,-296.5 839.5,-296.5 839.5,-296.5 833.5,-296.5 827.5,-290.5 827.5,-284.5 827.5,-284.5 827.5,-214.25 827.5,-214.25 827.5,-208.25 833.5,-202.25 839.5,-202.25 839.5,-202.25 972.5,-202.25 972.5,-202.25 978.5,-202.25 984.5,-208.25 984.5,-214.25 984.5,-214.25 984.5,-284.5 984.5,-284.5 984.5,-290.5 978.5,-296.5 972.5,-296.5"/>
<text text-anchor="middle" x="906" y="-279.2" font-family="Helvetica,sans-Serif" font-size="14.00">19_C &lt;= 0.5</text>
<text text-anchor="middle" x="906" y="-261.95" font-family="Helvetica,sans-Serif" font-size="14.00">entropy = 0.847</text>
<text text-anchor="middle" x="906" y="-244.7" font-family="Helvetica,sans-Serif" font-size="14.00">samples = 1164</text>
<text text-anchor="middle" x="906" y="-227.45" font-family="Helvetica,sans-Serif" font-size="14.00">value = [1358, 512]</text>
<text text-anchor="middle" x="906" y="-210.2" font-family="Helvetica,sans-Serif" font-size="14.00">class = Animal</text>
</g>
<!-- 16082&#45;&gt;16083 -->
<g id="edge17" class="edge">
<title>16082&#45;&gt;16083</title>
<path fill="none" stroke="black" d="M906,-332.32C906,-324.42 906,-316.13 906,-307.98"/>
<polygon fill="black" stroke="black" points="909.5,-308.12 906,-298.12 902.5,-308.12 909.5,-308.12"/>
</g>
<!-- 16640 -->
<g id="node25" class="node">
<title>16640</title>
<path fill="#ea9a60" stroke="black" d="M1220,-296.5C1220,-296.5 1096,-296.5 1096,-296.5 1090,-296.5 1084,-290.5 1084,-284.5 1084,-284.5 1084,-214.25 1084,-214.25 1084,-208.25 1090,-202.25 1096,-202.25 1096,-202.25 1220,-202.25 1220,-202.25 1226,-202.25 1232,-208.25 1232,-214.25 1232,-214.25 1232,-284.5 1232,-284.5 1232,-290.5 1226,-296.5 1220,-296.5"/>
<text text-anchor="middle" x="1158" y="-279.2" font-family="Helvetica,sans-Serif" font-size="14.00">1_U &lt;= 0.5</text>
<text text-anchor="middle" x="1158" y="-261.95" font-family="Helvetica,sans-Serif" font-size="14.00">entropy = 0.645</text>
<text text-anchor="middle" x="1158" y="-244.7" font-family="Helvetica,sans-Serif" font-size="14.00">samples = 377</text>
<text text-anchor="middle" x="1158" y="-227.45" font-family="Helvetica,sans-Serif" font-size="14.00">value = [528, 104]</text>
<text text-anchor="middle" x="1158" y="-210.2" font-family="Helvetica,sans-Serif" font-size="14.00">class = Animal</text>
</g>
<!-- 16082&#45;&gt;16640 -->
<g id="edge24" class="edge">
<title>16082&#45;&gt;16640</title>
<path fill="none" stroke="black" d="M984.7,-338.57C1012.99,-324.18 1045,-307.88 1073.75,-293.25"/>
<polygon fill="black" stroke="black" points="1075.09,-296.5 1082.42,-288.84 1071.92,-290.26 1075.09,-296.5"/>
</g>
<!-- 16084 -->
<g id="node19" class="node">
<title>16084</title>
<path fill="#eda674" stroke="black" d="M891.5,-166.25C891.5,-166.25 758.5,-166.25 758.5,-166.25 752.5,-166.25 746.5,-160.25 746.5,-154.25 746.5,-154.25 746.5,-84 746.5,-84 746.5,-78 752.5,-72 758.5,-72 758.5,-72 891.5,-72 891.5,-72 897.5,-72 903.5,-78 903.5,-84 903.5,-84 903.5,-154.25 903.5,-154.25 903.5,-160.25 897.5,-166.25 891.5,-166.25"/>
<text text-anchor="middle" x="825" y="-148.95" font-family="Helvetica,sans-Serif" font-size="14.00">19_U &lt;= 0.5</text>
<text text-anchor="middle" x="825" y="-131.7" font-family="Helvetica,sans-Serif" font-size="14.00">entropy = 0.775</text>
<text text-anchor="middle" x="825" y="-114.45" font-family="Helvetica,sans-Serif" font-size="14.00">samples = 881</text>
<text text-anchor="middle" x="825" y="-97.2" font-family="Helvetica,sans-Serif" font-size="14.00">value = [1075, 318]</text>
<text text-anchor="middle" x="825" y="-79.95" font-family="Helvetica,sans-Serif" font-size="14.00">class = Animal</text>
</g>
<!-- 16083&#45;&gt;16084 -->
<g id="edge18" class="edge">
<title>16083&#45;&gt;16084</title>
<path fill="none" stroke="black" d="M876.76,-202.07C871.42,-193.63 865.81,-184.74 860.32,-176.05"/>
<polygon fill="black" stroke="black" points="863.31,-174.22 855.01,-167.64 857.39,-177.96 863.31,-174.22"/>
</g>
<!-- 16501 -->
<g id="node22" class="node">
<title>16501</title>
<path fill="#f7d7c1" stroke="black" d="M1058,-166.25C1058,-166.25 934,-166.25 934,-166.25 928,-166.25 922,-160.25 922,-154.25 922,-154.25 922,-84 922,-84 922,-78 928,-72 934,-72 934,-72 1058,-72 1058,-72 1064,-72 1070,-78 1070,-84 1070,-84 1070,-154.25 1070,-154.25 1070,-160.25 1064,-166.25 1058,-166.25"/>
<text text-anchor="middle" x="996" y="-148.95" font-family="Helvetica,sans-Serif" font-size="14.00">7_G &lt;= 0.5</text>
<text text-anchor="middle" x="996" y="-131.7" font-family="Helvetica,sans-Serif" font-size="14.00">entropy = 0.975</text>
<text text-anchor="middle" x="996" y="-114.45" font-family="Helvetica,sans-Serif" font-size="14.00">samples = 283</text>
<text text-anchor="middle" x="996" y="-97.2" font-family="Helvetica,sans-Serif" font-size="14.00">value = [283, 194]</text>
<text text-anchor="middle" x="996" y="-79.95" font-family="Helvetica,sans-Serif" font-size="14.00">class = Animal</text>
</g>
<!-- 16083&#45;&gt;16501 -->
<g id="edge21" class="edge">
<title>16083&#45;&gt;16501</title>
<path fill="none" stroke="black" d="M938.49,-202.07C944.48,-193.54 950.79,-184.54 956.95,-175.77"/>
<polygon fill="black" stroke="black" points="959.81,-177.79 962.69,-167.6 954.08,-173.77 959.81,-177.79"/>
</g>
<!-- 16085 -->
<g id="node20" class="node">
<title>16085</title>
<path fill="#c0c0c0" stroke="black" d="M781,-36C781,-36 751,-36 751,-36 745,-36 739,-30 739,-24 739,-24 739,-12 739,-12 739,-6 745,0 751,0 751,0 781,0 781,0 787,0 793,-6 793,-12 793,-12 793,-24 793,-24 793,-30 787,-36 781,-36"/>
<text text-anchor="middle" x="766" y="-13.32" font-family="Helvetica,sans-Serif" font-size="14.00">(...)</text>
</g>
<!-- 16084&#45;&gt;16085 -->
<g id="edge19" class="edge">
<title>16084&#45;&gt;16085</title>
<path fill="none" stroke="black" d="M797.4,-71.75C792.15,-62.93 786.81,-53.96 782.06,-45.99"/>
<polygon fill="black" stroke="black" points="785.12,-44.28 777,-37.47 779.1,-47.86 785.12,-44.28"/>
</g>
<!-- 16342 -->
<g id="node21" class="node">
<title>16342</title>
<path fill="#c0c0c0" stroke="black" d="M853,-36C853,-36 823,-36 823,-36 817,-36 811,-30 811,-24 811,-24 811,-12 811,-12 811,-6 817,0 823,0 823,0 853,0 853,0 859,0 865,-6 865,-12 865,-12 865,-24 865,-24 865,-30 859,-36 853,-36"/>
<text text-anchor="middle" x="838" y="-13.32" font-family="Helvetica,sans-Serif" font-size="14.00">(...)</text>
</g>
<!-- 16084&#45;&gt;16342 -->
<g id="edge20" class="edge">
<title>16084&#45;&gt;16342</title>
<path fill="none" stroke="black" d="M831.08,-71.75C832.17,-63.42 833.28,-54.97 834.28,-47.34"/>
<polygon fill="black" stroke="black" points="837.72,-48.04 835.55,-37.67 830.78,-47.13 837.72,-48.04"/>
</g>
<!-- 16502 -->
<g id="node23" class="node">
<title>16502</title>
<path fill="#c0c0c0" stroke="black" d="M948,-36C948,-36 918,-36 918,-36 912,-36 906,-30 906,-24 906,-24 906,-12 906,-12 906,-6 912,0 918,0 918,0 948,0 948,0 954,0 960,-6 960,-12 960,-12 960,-24 960,-24 960,-30 954,-36 948,-36"/>
<text text-anchor="middle" x="933" y="-13.32" font-family="Helvetica,sans-Serif" font-size="14.00">(...)</text>
</g>
<!-- 16501&#45;&gt;16502 -->
<g id="edge22" class="edge">
<title>16501&#45;&gt;16502</title>
<path fill="none" stroke="black" d="M966.53,-71.75C960.85,-62.83 955.09,-53.76 949.98,-45.72"/>
<polygon fill="black" stroke="black" points="953.04,-44.01 944.73,-37.45 947.14,-47.77 953.04,-44.01"/>
</g>
<!-- 16601 -->
<g id="node24" class="node">
<title>16601</title>
<path fill="#c0c0c0" stroke="black" d="M1020,-36C1020,-36 990,-36 990,-36 984,-36 978,-30 978,-24 978,-24 978,-12 978,-12 978,-6 984,0 990,0 990,0 1020,0 1020,0 1026,0 1032,-6 1032,-12 1032,-12 1032,-24 1032,-24 1032,-30 1026,-36 1020,-36"/>
<text text-anchor="middle" x="1005" y="-13.32" font-family="Helvetica,sans-Serif" font-size="14.00">(...)</text>
</g>
<!-- 16501&#45;&gt;16601 -->
<g id="edge23" class="edge">
<title>16501&#45;&gt;16601</title>
<path fill="none" stroke="black" d="M1000.21,-71.75C1000.96,-63.52 1001.72,-55.17 1002.4,-47.61"/>
<polygon fill="black" stroke="black" points="1005.89,-47.96 1003.3,-37.68 998.91,-47.32 1005.89,-47.96"/>
</g>
<!-- 16641 -->
<g id="node26" class="node">
<title>16641</title>
<path fill="#eca36e" stroke="black" d="M1215.5,-166.25C1215.5,-166.25 1100.5,-166.25 1100.5,-166.25 1094.5,-166.25 1088.5,-160.25 1088.5,-154.25 1088.5,-154.25 1088.5,-84 1088.5,-84 1088.5,-78 1094.5,-72 1100.5,-72 1100.5,-72 1215.5,-72 1215.5,-72 1221.5,-72 1227.5,-78 1227.5,-84 1227.5,-84 1227.5,-154.25 1227.5,-154.25 1227.5,-160.25 1221.5,-166.25 1215.5,-166.25"/>
<text text-anchor="middle" x="1158" y="-148.95" font-family="Helvetica,sans-Serif" font-size="14.00">5_A &lt;= 0.5</text>
<text text-anchor="middle" x="1158" y="-131.7" font-family="Helvetica,sans-Serif" font-size="14.00">entropy = 0.746</text>
<text text-anchor="middle" x="1158" y="-114.45" font-family="Helvetica,sans-Serif" font-size="14.00">samples = 225</text>
<text text-anchor="middle" x="1158" y="-97.2" font-family="Helvetica,sans-Serif" font-size="14.00">value = [300, 81]</text>
<text text-anchor="middle" x="1158" y="-79.95" font-family="Helvetica,sans-Serif" font-size="14.00">class = Animal</text>
</g>
<!-- 16640&#45;&gt;16641 -->
<g id="edge25" class="edge">
<title>16640&#45;&gt;16641</title>
<path fill="none" stroke="black" d="M1158,-202.07C1158,-194.17 1158,-185.88 1158,-177.73"/>
<polygon fill="black" stroke="black" points="1161.5,-177.87 1158,-167.87 1154.5,-177.87 1161.5,-177.87"/>
</g>
<!-- 16760 -->
<g id="node29" class="node">
<title>16760</title>
<path fill="#e88e4d" stroke="black" d="M1372.5,-166.25C1372.5,-166.25 1257.5,-166.25 1257.5,-166.25 1251.5,-166.25 1245.5,-160.25 1245.5,-154.25 1245.5,-154.25 1245.5,-84 1245.5,-84 1245.5,-78 1251.5,-72 1257.5,-72 1257.5,-72 1372.5,-72 1372.5,-72 1378.5,-72 1384.5,-78 1384.5,-84 1384.5,-84 1384.5,-154.25 1384.5,-154.25 1384.5,-160.25 1378.5,-166.25 1372.5,-166.25"/>
<text text-anchor="middle" x="1315" y="-148.95" font-family="Helvetica,sans-Serif" font-size="14.00">21_U &lt;= 0.5</text>
<text text-anchor="middle" x="1315" y="-131.7" font-family="Helvetica,sans-Serif" font-size="14.00">entropy = 0.442</text>
<text text-anchor="middle" x="1315" y="-114.45" font-family="Helvetica,sans-Serif" font-size="14.00">samples = 152</text>
<text text-anchor="middle" x="1315" y="-97.2" font-family="Helvetica,sans-Serif" font-size="14.00">value = [228, 23]</text>
<text text-anchor="middle" x="1315" y="-79.95" font-family="Helvetica,sans-Serif" font-size="14.00">class = Animal</text>
</g>
<!-- 16640&#45;&gt;16760 -->
<g id="edge28" class="edge">
<title>16640&#45;&gt;16760</title>
<path fill="none" stroke="black" d="M1214.68,-202.07C1225.95,-192.87 1237.87,-183.13 1249.41,-173.71"/>
<polygon fill="black" stroke="black" points="1251.44,-176.57 1256.97,-167.53 1247.01,-171.15 1251.44,-176.57"/>
</g>
<!-- 16642 -->
<g id="node27" class="node">
<title>16642</title>
<path fill="#c0c0c0" stroke="black" d="M1125,-36C1125,-36 1095,-36 1095,-36 1089,-36 1083,-30 1083,-24 1083,-24 1083,-12 1083,-12 1083,-6 1089,0 1095,0 1095,0 1125,0 1125,0 1131,0 1137,-6 1137,-12 1137,-12 1137,-24 1137,-24 1137,-30 1131,-36 1125,-36"/>
<text text-anchor="middle" x="1110" y="-13.32" font-family="Helvetica,sans-Serif" font-size="14.00">(...)</text>
</g>
<!-- 16641&#45;&gt;16642 -->
<g id="edge26" class="edge">
<title>16641&#45;&gt;16642</title>
<path fill="none" stroke="black" d="M1135.55,-71.75C1131.37,-63.12 1127.12,-54.36 1123.33,-46.53"/>
<polygon fill="black" stroke="black" points="1126.48,-45.01 1118.98,-37.53 1120.18,-48.06 1126.48,-45.01"/>
</g>
<!-- 16747 -->
<g id="node28" class="node">
<title>16747</title>
<path fill="#c0c0c0" stroke="black" d="M1197,-36C1197,-36 1167,-36 1167,-36 1161,-36 1155,-30 1155,-24 1155,-24 1155,-12 1155,-12 1155,-6 1161,0 1167,0 1167,0 1197,0 1197,0 1203,0 1209,-6 1209,-12 1209,-12 1209,-24 1209,-24 1209,-30 1203,-36 1197,-36"/>
<text text-anchor="middle" x="1182" y="-13.32" font-family="Helvetica,sans-Serif" font-size="14.00">(...)</text>
</g>
<!-- 16641&#45;&gt;16747 -->
<g id="edge27" class="edge">
<title>16641&#45;&gt;16747</title>
<path fill="none" stroke="black" d="M1169.23,-71.75C1171.24,-63.42 1173.29,-54.97 1175.14,-47.34"/>
<polygon fill="black" stroke="black" points="1178.53,-48.19 1177.49,-37.64 1171.73,-46.54 1178.53,-48.19"/>
</g>
<!-- 16761 -->
<g id="node30" class="node">
<title>16761</title>
<path fill="#c0c0c0" stroke="black" d="M1294,-36C1294,-36 1264,-36 1264,-36 1258,-36 1252,-30 1252,-24 1252,-24 1252,-12 1252,-12 1252,-6 1258,0 1264,0 1264,0 1294,0 1294,0 1300,0 1306,-6 1306,-12 1306,-12 1306,-24 1306,-24 1306,-30 1300,-36 1294,-36"/>
<text text-anchor="middle" x="1279" y="-13.32" font-family="Helvetica,sans-Serif" font-size="14.00">(...)</text>
</g>
<!-- 16760&#45;&gt;16761 -->
<g id="edge29" class="edge">
<title>16760&#45;&gt;16761</title>
<path fill="none" stroke="black" d="M1298.16,-71.75C1295.06,-63.22 1291.92,-54.57 1289.1,-46.8"/>
<polygon fill="black" stroke="black" points="1292.46,-45.8 1285.75,-37.6 1285.88,-48.19 1292.46,-45.8"/>
</g>
<!-- 16796 -->
<g id="node31" class="node">
<title>16796</title>
<path fill="#c0c0c0" stroke="black" d="M1366,-36C1366,-36 1336,-36 1336,-36 1330,-36 1324,-30 1324,-24 1324,-24 1324,-12 1324,-12 1324,-6 1330,0 1336,0 1336,0 1366,0 1366,0 1372,0 1378,-6 1378,-12 1378,-12 1378,-24 1378,-24 1378,-30 1372,-36 1366,-36"/>
<text text-anchor="middle" x="1351" y="-13.32" font-family="Helvetica,sans-Serif" font-size="14.00">(...)</text>
</g>
<!-- 16760&#45;&gt;16796 -->
<g id="edge30" class="edge">
<title>16760&#45;&gt;16796</title>
<path fill="none" stroke="black" d="M1331.84,-71.75C1334.94,-63.22 1338.08,-54.57 1340.9,-46.8"/>
<polygon fill="black" stroke="black" points="1344.12,-48.19 1344.25,-37.6 1337.54,-45.8 1344.12,-48.19"/>
</g>
</g>
</svg>
