<?xml version="1.0" encoding="UTF-8" standalone="no"?>
<!DOCTYPE svg PUBLIC "-//W3C//DTD SVG 1.1//EN"
 "http://www.w3.org/Graphics/SVG/1.1/DTD/svg11.dtd">
<!-- Generated by graphviz version 12.0.0 (20240803.0821)
 -->
<!-- Title: Tree Pages: 1 -->
<svg width="1445pt" height="565pt"
 viewBox="0.00 0.00 1445.00 565.00" xmlns="http://www.w3.org/2000/svg" xmlns:xlink="http://www.w3.org/1999/xlink">
<g id="graph0" class="graph" transform="scale(1 1) rotate(0) translate(4 561)">
<title>Tree</title>
<polygon fill="white" stroke="none" points="-4,4 -4,-561 1441,-561 1441,4 -4,4"/>
<!-- 0 -->
<g id="node1" class="node">
<title>0</title>
<path fill="#fdfeff" stroke="black" d="M813,-557C813,-557 653,-557 653,-557 647,-557 641,-551 641,-545 641,-545 641,-474.75 641,-474.75 641,-468.75 647,-462.75 653,-462.75 653,-462.75 813,-462.75 813,-462.75 819,-462.75 825,-468.75 825,-474.75 825,-474.75 825,-545 825,-545 825,-551 819,-557 813,-557"/>
<text text-anchor="middle" x="733" y="-539.7" font-family="Helvetica,sans-Serif" font-size="14.00">8_G &lt;= 0.5</text>
<text text-anchor="middle" x="733" y="-522.45" font-family="Helvetica,sans-Serif" font-size="14.00">entropy = 1.0</text>
<text text-anchor="middle" x="733" y="-505.2" font-family="Helvetica,sans-Serif" font-size="14.00">samples = 38116</text>
<text text-anchor="middle" x="733" y="-487.95" font-family="Helvetica,sans-Serif" font-size="14.00">value = [29987, 30358]</text>
<text text-anchor="middle" x="733" y="-470.7" font-family="Helvetica,sans-Serif" font-size="14.00">class = Plant</text>
</g>
<!-- 1 -->
<g id="node2" class="node">
<title>1</title>
<path fill="#fae9dd" stroke="black" d="M636,-426.75C636,-426.75 476,-426.75 476,-426.75 470,-426.75 464,-420.75 464,-414.75 464,-414.75 464,-344.5 464,-344.5 464,-338.5 470,-332.5 476,-332.5 476,-332.5 636,-332.5 636,-332.5 642,-332.5 648,-338.5 648,-344.5 648,-344.5 648,-414.75 648,-414.75 648,-420.75 642,-426.75 636,-426.75"/>
<text text-anchor="middle" x="556" y="-409.45" font-family="Helvetica,sans-Serif" font-size="14.00">2_A &lt;= 0.5</text>
<text text-anchor="middle" x="556" y="-392.2" font-family="Helvetica,sans-Serif" font-size="14.00">entropy = 0.993</text>
<text text-anchor="middle" x="556" y="-374.95" font-family="Helvetica,sans-Serif" font-size="14.00">samples = 26292</text>
<text text-anchor="middle" x="556" y="-357.7" font-family="Helvetica,sans-Serif" font-size="14.00">value = [22786, 18828]</text>
<text text-anchor="middle" x="556" y="-340.45" font-family="Helvetica,sans-Serif" font-size="14.00">class = Animal</text>
</g>
<!-- 0&#45;&gt;1 -->
<g id="edge1" class="edge">
<title>0&#45;&gt;1</title>
<path fill="none" stroke="black" d="M668.85,-462.39C655.99,-453.07 642.38,-443.22 629.24,-433.69"/>
<polygon fill="black" stroke="black" points="631.61,-431.09 621.46,-428.05 627.5,-436.75 631.61,-431.09"/>
<text text-anchor="middle" x="624.17" y="-447.18" font-family="Helvetica,sans-Serif" font-size="14.00">True</text>
</g>
<!-- 12446 -->
<g id="node17" class="node">
<title>12446</title>
<path fill="#b5daf5" stroke="black" d="M995.5,-426.75C995.5,-426.75 844.5,-426.75 844.5,-426.75 838.5,-426.75 832.5,-420.75 832.5,-414.75 832.5,-414.75 832.5,-344.5 832.5,-344.5 832.5,-338.5 838.5,-332.5 844.5,-332.5 844.5,-332.5 995.5,-332.5 995.5,-332.5 1001.5,-332.5 1007.5,-338.5 1007.5,-344.5 1007.5,-344.5 1007.5,-414.75 1007.5,-414.75 1007.5,-420.75 1001.5,-426.75 995.5,-426.75"/>
<text text-anchor="middle" x="920" y="-409.45" font-family="Helvetica,sans-Serif" font-size="14.00">22_G &lt;= 0.5</text>
<text text-anchor="middle" x="920" y="-392.2" font-family="Helvetica,sans-Serif" font-size="14.00">entropy = 0.961</text>
<text text-anchor="middle" x="920" y="-374.95" font-family="Helvetica,sans-Serif" font-size="14.00">samples = 11824</text>
<text text-anchor="middle" x="920" y="-357.7" font-family="Helvetica,sans-Serif" font-size="14.00">value = [7201, 11530]</text>
<text text-anchor="middle" x="920" y="-340.45" font-family="Helvetica,sans-Serif" font-size="14.00">class = Plant</text>
</g>
<!-- 0&#45;&gt;12446 -->
<g id="edge16" class="edge">
<title>0&#45;&gt;12446</title>
<path fill="none" stroke="black" d="M800.78,-462.39C814.49,-452.98 829.01,-443.03 843.02,-433.42"/>
<polygon fill="black" stroke="black" points="844.63,-436.56 850.89,-428.02 840.67,-430.79 844.63,-436.56"/>
<text text-anchor="middle" x="847.56" y="-447.07" font-family="Helvetica,sans-Serif" font-size="14.00">False</text>
</g>
<!-- 2 -->
<g id="node3" class="node">
<title>2</title>
<path fill="#fafdfe" stroke="black" d="M365,-296.5C365,-296.5 205,-296.5 205,-296.5 199,-296.5 193,-290.5 193,-284.5 193,-284.5 193,-214.25 193,-214.25 193,-208.25 199,-202.25 205,-202.25 205,-202.25 365,-202.25 365,-202.25 371,-202.25 377,-208.25 377,-214.25 377,-214.25 377,-284.5 377,-284.5 377,-290.5 371,-296.5 365,-296.5"/>
<text text-anchor="middle" x="285" y="-279.2" font-family="Helvetica,sans-Serif" font-size="14.00">9_G &lt;= 0.5</text>
<text text-anchor="middle" x="285" y="-261.95" font-family="Helvetica,sans-Serif" font-size="14.00">entropy = 1.0</text>
<text text-anchor="middle" x="285" y="-244.7" font-family="Helvetica,sans-Serif" font-size="14.00">samples = 19816</text>
<text text-anchor="middle" x="285" y="-227.45" font-family="Helvetica,sans-Serif" font-size="14.00">value = [15529, 15933]</text>
<text text-anchor="middle" x="285" y="-210.2" font-family="Helvetica,sans-Serif" font-size="14.00">class = Plant</text>
</g>
<!-- 1&#45;&gt;2 -->
<g id="edge2" class="edge">
<title>1&#45;&gt;2</title>
<path fill="none" stroke="black" d="M463.87,-335.03C439.33,-323.41 412.66,-310.79 387.59,-298.93"/>
<polygon fill="black" stroke="black" points="389.24,-295.83 378.7,-294.72 386.24,-302.16 389.24,-295.83"/>
</g>
<!-- 9355 -->
<g id="node10" class="node">
<title>9355</title>
<path fill="#efb388" stroke="black" d="M627,-296.5C627,-296.5 485,-296.5 485,-296.5 479,-296.5 473,-290.5 473,-284.5 473,-284.5 473,-214.25 473,-214.25 473,-208.25 479,-202.25 485,-202.25 485,-202.25 627,-202.25 627,-202.25 633,-202.25 639,-208.25 639,-214.25 639,-214.25 639,-284.5 639,-284.5 639,-290.5 633,-296.5 627,-296.5"/>
<text text-anchor="middle" x="556" y="-279.2" font-family="Helvetica,sans-Serif" font-size="14.00">9_U &lt;= 0.5</text>
<text text-anchor="middle" x="556" y="-261.95" font-family="Helvetica,sans-Serif" font-size="14.00">entropy = 0.862</text>
<text text-anchor="middle" x="556" y="-244.7" font-family="Helvetica,sans-Serif" font-size="14.00">samples = 6476</text>
<text text-anchor="middle" x="556" y="-227.45" font-family="Helvetica,sans-Serif" font-size="14.00">value = [7257, 2895]</text>
<text text-anchor="middle" x="556" y="-210.2" font-family="Helvetica,sans-Serif" font-size="14.00">class = Animal</text>
</g>
<!-- 1&#45;&gt;9355 -->
<g id="edge9" class="edge">
<title>1&#45;&gt;9355</title>
<path fill="none" stroke="black" d="M556,-332.32C556,-324.42 556,-316.13 556,-307.98"/>
<polygon fill="black" stroke="black" points="559.5,-308.12 556,-298.12 552.5,-308.12 559.5,-308.12"/>
</g>
<!-- 3 -->
<g id="node4" class="node">
<title>3</title>
<path fill="#fbede2" stroke="black" d="M172,-166.25C172,-166.25 12,-166.25 12,-166.25 6,-166.25 0,-160.25 0,-154.25 0,-154.25 0,-84 0,-84 0,-78 6,-72 12,-72 12,-72 172,-72 172,-72 178,-72 184,-78 184,-84 184,-84 184,-154.25 184,-154.25 184,-160.25 178,-166.25 172,-166.25"/>
<text text-anchor="middle" x="92" y="-148.95" font-family="Helvetica,sans-Serif" font-size="14.00">23_A &lt;= 0.5</text>
<text text-anchor="middle" x="92" y="-131.7" font-family="Helvetica,sans-Serif" font-size="14.00">entropy = 0.996</text>
<text text-anchor="middle" x="92" y="-114.45" font-family="Helvetica,sans-Serif" font-size="14.00">samples = 13877</text>
<text text-anchor="middle" x="92" y="-97.2" font-family="Helvetica,sans-Serif" font-size="14.00">value = [11896, 10174]</text>
<text text-anchor="middle" x="92" y="-79.95" font-family="Helvetica,sans-Serif" font-size="14.00">class = Animal</text>
</g>
<!-- 2&#45;&gt;3 -->
<g id="edge3" class="edge">
<title>2&#45;&gt;3</title>
<path fill="none" stroke="black" d="M215.05,-201.89C200.89,-192.48 185.9,-182.53 171.45,-172.92"/>
<polygon fill="black" stroke="black" points="173.56,-170.12 163.3,-167.5 169.69,-175.95 173.56,-170.12"/>
</g>
<!-- 6912 -->
<g id="node7" class="node">
<title>6912</title>
<path fill="#b6dbf5" stroke="black" d="M356,-166.25C356,-166.25 214,-166.25 214,-166.25 208,-166.25 202,-160.25 202,-154.25 202,-154.25 202,-84 202,-84 202,-78 208,-72 214,-72 214,-72 356,-72 356,-72 362,-72 368,-78 368,-84 368,-84 368,-154.25 368,-154.25 368,-160.25 362,-166.25 356,-166.25"/>
<text text-anchor="middle" x="285" y="-148.95" font-family="Helvetica,sans-Serif" font-size="14.00">7_G &lt;= 0.5</text>
<text text-anchor="middle" x="285" y="-131.7" font-family="Helvetica,sans-Serif" font-size="14.00">entropy = 0.963</text>
<text text-anchor="middle" x="285" y="-114.45" font-family="Helvetica,sans-Serif" font-size="14.00">samples = 5939</text>
<text text-anchor="middle" x="285" y="-97.2" font-family="Helvetica,sans-Serif" font-size="14.00">value = [3633, 5759]</text>
<text text-anchor="middle" x="285" y="-79.95" font-family="Helvetica,sans-Serif" font-size="14.00">class = Plant</text>
</g>
<!-- 2&#45;&gt;6912 -->
<g id="edge6" class="edge">
<title>2&#45;&gt;6912</title>
<path fill="none" stroke="black" d="M285,-202.07C285,-194.17 285,-185.88 285,-177.73"/>
<polygon fill="black" stroke="black" points="288.5,-177.87 285,-167.87 281.5,-177.87 288.5,-177.87"/>
</g>
<!-- 4 -->
<g id="node5" class="node">
<title>4</title>
<path fill="#c0c0c0" stroke="black" d="M71,-36C71,-36 41,-36 41,-36 35,-36 29,-30 29,-24 29,-24 29,-12 29,-12 29,-6 35,0 41,0 41,0 71,0 71,0 77,0 83,-6 83,-12 83,-12 83,-24 83,-24 83,-30 77,-36 71,-36"/>
<text text-anchor="middle" x="56" y="-13.32" font-family="Helvetica,sans-Serif" font-size="14.00">(...)</text>
</g>
<!-- 3&#45;&gt;4 -->
<g id="edge4" class="edge">
<title>3&#45;&gt;4</title>
<path fill="none" stroke="black" d="M75.16,-71.75C72.06,-63.22 68.92,-54.57 66.1,-46.8"/>
<polygon fill="black" stroke="black" points="69.46,-45.8 62.75,-37.6 62.88,-48.19 69.46,-45.8"/>
</g>
<!-- 6603 -->
<g id="node6" class="node">
<title>6603</title>
<path fill="#c0c0c0" stroke="black" d="M143,-36C143,-36 113,-36 113,-36 107,-36 101,-30 101,-24 101,-24 101,-12 101,-12 101,-6 107,0 113,0 113,0 143,0 143,0 149,0 155,-6 155,-12 155,-12 155,-24 155,-24 155,-30 149,-36 143,-36"/>
<text text-anchor="middle" x="128" y="-13.32" font-family="Helvetica,sans-Serif" font-size="14.00">(...)</text>
</g>
<!-- 3&#45;&gt;6603 -->
<g id="edge5" class="edge">
<title>3&#45;&gt;6603</title>
<path fill="none" stroke="black" d="M108.84,-71.75C111.94,-63.22 115.08,-54.57 117.9,-46.8"/>
<polygon fill="black" stroke="black" points="121.12,-48.19 121.25,-37.6 114.54,-45.8 121.12,-48.19"/>
</g>
<!-- 6913 -->
<g id="node8" class="node">
<title>6913</title>
<path fill="#c0c0c0" stroke="black" d="M266,-36C266,-36 236,-36 236,-36 230,-36 224,-30 224,-24 224,-24 224,-12 224,-12 224,-6 230,0 236,0 236,0 266,0 266,0 272,0 278,-6 278,-12 278,-12 278,-24 278,-24 278,-30 272,-36 266,-36"/>
<text text-anchor="middle" x="251" y="-13.32" font-family="Helvetica,sans-Serif" font-size="14.00">(...)</text>
</g>
<!-- 6912&#45;&gt;6913 -->
<g id="edge7" class="edge">
<title>6912&#45;&gt;6913</title>
<path fill="none" stroke="black" d="M269.1,-71.75C266.17,-63.22 263.2,-54.57 260.53,-46.8"/>
<polygon fill="black" stroke="black" points="263.94,-45.93 257.38,-37.6 257.32,-48.2 263.94,-45.93"/>
</g>
<!-- 8716 -->
<g id="node9" class="node">
<title>8716</title>
<path fill="#c0c0c0" stroke="black" d="M338,-36C338,-36 308,-36 308,-36 302,-36 296,-30 296,-24 296,-24 296,-12 296,-12 296,-6 302,0 308,0 308,0 338,0 338,0 344,0 350,-6 350,-12 350,-12 350,-24 350,-24 350,-30 344,-36 338,-36"/>
<text text-anchor="middle" x="323" y="-13.32" font-family="Helvetica,sans-Serif" font-size="14.00">(...)</text>
</g>
<!-- 6912&#45;&gt;8716 -->
<g id="edge8" class="edge">
<title>6912&#45;&gt;8716</title>
<path fill="none" stroke="black" d="M302.78,-71.75C306.05,-63.22 309.37,-54.57 312.34,-46.8"/>
<polygon fill="black" stroke="black" points="315.56,-48.18 315.88,-37.59 309.03,-45.67 315.56,-48.18"/>
</g>
<!-- 9356 -->
<g id="node11" class="node">
<title>9356</title>
<path fill="#f2c09b" stroke="black" d="M540,-166.25C540,-166.25 398,-166.25 398,-166.25 392,-166.25 386,-160.25 386,-154.25 386,-154.25 386,-84 386,-84 386,-78 392,-72 398,-72 398,-72 540,-72 540,-72 546,-72 552,-78 552,-84 552,-84 552,-154.25 552,-154.25 552,-160.25 546,-166.25 540,-166.25"/>
<text text-anchor="middle" x="469" y="-148.95" font-family="Helvetica,sans-Serif" font-size="14.00">24_A &lt;= 0.5</text>
<text text-anchor="middle" x="469" y="-131.7" font-family="Helvetica,sans-Serif" font-size="14.00">entropy = 0.917</text>
<text text-anchor="middle" x="469" y="-114.45" font-family="Helvetica,sans-Serif" font-size="14.00">samples = 4275</text>
<text text-anchor="middle" x="469" y="-97.2" font-family="Helvetica,sans-Serif" font-size="14.00">value = [4480, 2223]</text>
<text text-anchor="middle" x="469" y="-79.95" font-family="Helvetica,sans-Serif" font-size="14.00">class = Animal</text>
</g>
<!-- 9355&#45;&gt;9356 -->
<g id="edge10" class="edge">
<title>9355&#45;&gt;9356</title>
<path fill="none" stroke="black" d="M524.59,-202.07C518.8,-193.54 512.7,-184.54 506.75,-175.77"/>
<polygon fill="black" stroke="black" points="509.72,-173.92 501.21,-167.61 503.93,-177.85 509.72,-173.92"/>
</g>
<!-- 11545 -->
<g id="node14" class="node">
<title>11545</title>
<path fill="#eb9f69" stroke="black" d="M715.5,-166.25C715.5,-166.25 582.5,-166.25 582.5,-166.25 576.5,-166.25 570.5,-160.25 570.5,-154.25 570.5,-154.25 570.5,-84 570.5,-84 570.5,-78 576.5,-72 582.5,-72 582.5,-72 715.5,-72 715.5,-72 721.5,-72 727.5,-78 727.5,-84 727.5,-84 727.5,-154.25 727.5,-154.25 727.5,-160.25 721.5,-166.25 715.5,-166.25"/>
<text text-anchor="middle" x="649" y="-148.95" font-family="Helvetica,sans-Serif" font-size="14.00">20_C &lt;= 0.5</text>
<text text-anchor="middle" x="649" y="-131.7" font-family="Helvetica,sans-Serif" font-size="14.00">entropy = 0.711</text>
<text text-anchor="middle" x="649" y="-114.45" font-family="Helvetica,sans-Serif" font-size="14.00">samples = 2201</text>
<text text-anchor="middle" x="649" y="-97.2" font-family="Helvetica,sans-Serif" font-size="14.00">value = [2777, 672]</text>
<text text-anchor="middle" x="649" y="-79.95" font-family="Helvetica,sans-Serif" font-size="14.00">class = Animal</text>
</g>
<!-- 9355&#45;&gt;11545 -->
<g id="edge13" class="edge">
<title>9355&#45;&gt;11545</title>
<path fill="none" stroke="black" d="M589.58,-202.07C595.83,-193.45 602.43,-184.35 608.85,-175.49"/>
<polygon fill="black" stroke="black" points="611.55,-177.73 614.59,-167.58 605.88,-173.62 611.55,-177.73"/>
</g>
<!-- 9357 -->
<g id="node12" class="node">
<title>9357</title>
<path fill="#c0c0c0" stroke="black" d="M430,-36C430,-36 400,-36 400,-36 394,-36 388,-30 388,-24 388,-24 388,-12 388,-12 388,-6 394,0 400,0 400,0 430,0 430,0 436,0 442,-6 442,-12 442,-12 442,-24 442,-24 442,-30 436,-36 430,-36"/>
<text text-anchor="middle" x="415" y="-13.32" font-family="Helvetica,sans-Serif" font-size="14.00">(...)</text>
</g>
<!-- 9356&#45;&gt;9357 -->
<g id="edge11" class="edge">
<title>9356&#45;&gt;9357</title>
<path fill="none" stroke="black" d="M443.74,-71.75C438.98,-63.03 434.16,-54.16 429.85,-46.26"/>
<polygon fill="black" stroke="black" points="432.94,-44.61 425.08,-37.5 426.79,-47.96 432.94,-44.61"/>
</g>
<!-- 11504 -->
<g id="node13" class="node">
<title>11504</title>
<path fill="#c0c0c0" stroke="black" d="M502,-36C502,-36 472,-36 472,-36 466,-36 460,-30 460,-24 460,-24 460,-12 460,-12 460,-6 466,0 472,0 472,0 502,0 502,0 508,0 514,-6 514,-12 514,-12 514,-24 514,-24 514,-30 508,-36 502,-36"/>
<text text-anchor="middle" x="487" y="-13.32" font-family="Helvetica,sans-Serif" font-size="14.00">(...)</text>
</g>
<!-- 9356&#45;&gt;11504 -->
<g id="edge12" class="edge">
<title>9356&#45;&gt;11504</title>
<path fill="none" stroke="black" d="M477.42,-71.75C478.93,-63.42 480.47,-54.97 481.85,-47.34"/>
<polygon fill="black" stroke="black" points="485.27,-48.13 483.61,-37.66 478.38,-46.88 485.27,-48.13"/>
</g>
<!-- 11546 -->
<g id="node15" class="node">
<title>11546</title>
<path fill="#c0c0c0" stroke="black" d="M612,-36C612,-36 582,-36 582,-36 576,-36 570,-30 570,-24 570,-24 570,-12 570,-12 570,-6 576,0 582,0 582,0 612,0 612,0 618,0 624,-6 624,-12 624,-12 624,-24 624,-24 624,-30 618,-36 612,-36"/>
<text text-anchor="middle" x="597" y="-13.32" font-family="Helvetica,sans-Serif" font-size="14.00">(...)</text>
</g>
<!-- 11545&#45;&gt;11546 -->
<g id="edge14" class="edge">
<title>11545&#45;&gt;11546</title>
<path fill="none" stroke="black" d="M624.67,-71.75C620.1,-63.03 615.45,-54.16 611.3,-46.26"/>
<polygon fill="black" stroke="black" points="614.46,-44.74 606.71,-37.51 608.26,-47.99 614.46,-44.74"/>
</g>
<!-- 12291 -->
<g id="node16" class="node">
<title>12291</title>
<path fill="#c0c0c0" stroke="black" d="M684,-36C684,-36 654,-36 654,-36 648,-36 642,-30 642,-24 642,-24 642,-12 642,-12 642,-6 648,0 654,0 654,0 684,0 684,0 690,0 696,-6 696,-12 696,-12 696,-24 696,-24 696,-30 690,-36 684,-36"/>
<text text-anchor="middle" x="669" y="-13.32" font-family="Helvetica,sans-Serif" font-size="14.00">(...)</text>
</g>
<!-- 11545&#45;&gt;12291 -->
<g id="edge15" class="edge">
<title>11545&#45;&gt;12291</title>
<path fill="none" stroke="black" d="M658.36,-71.75C660.04,-63.42 661.74,-54.97 663.28,-47.34"/>
<polygon fill="black" stroke="black" points="666.69,-48.15 665.24,-37.66 659.83,-46.77 666.69,-48.15"/>
</g>
<!-- 12447 -->
<g id="node18" class="node">
<title>12447</title>
<path fill="#a3d1f3" stroke="black" d="M995.5,-296.5C995.5,-296.5 844.5,-296.5 844.5,-296.5 838.5,-296.5 832.5,-290.5 832.5,-284.5 832.5,-284.5 832.5,-214.25 832.5,-214.25 832.5,-208.25 838.5,-202.25 844.5,-202.25 844.5,-202.25 995.5,-202.25 995.5,-202.25 1001.5,-202.25 1007.5,-208.25 1007.5,-214.25 1007.5,-214.25 1007.5,-284.5 1007.5,-284.5 1007.5,-290.5 1001.5,-296.5 995.5,-296.5"/>
<text text-anchor="middle" x="920" y="-279.2" font-family="Helvetica,sans-Serif" font-size="14.00">22_U &lt;= 0.5</text>
<text text-anchor="middle" x="920" y="-261.95" font-family="Helvetica,sans-Serif" font-size="14.00">entropy = 0.932</text>
<text text-anchor="middle" x="920" y="-244.7" font-family="Helvetica,sans-Serif" font-size="14.00">samples = 10572</text>
<text text-anchor="middle" x="920" y="-227.45" font-family="Helvetica,sans-Serif" font-size="14.00">value = [5825, 10921]</text>
<text text-anchor="middle" x="920" y="-210.2" font-family="Helvetica,sans-Serif" font-size="14.00">class = Plant</text>
</g>
<!-- 12446&#45;&gt;12447 -->
<g id="edge17" class="edge">
<title>12446&#45;&gt;12447</title>
<path fill="none" stroke="black" d="M920,-332.32C920,-324.42 920,-316.13 920,-307.98"/>
<polygon fill="black" stroke="black" points="923.5,-308.12 920,-298.12 916.5,-308.12 923.5,-308.12"/>
</g>
<!-- 16398 -->
<g id="node25" class="node">
<title>16398</title>
<path fill="#f1b991" stroke="black" d="M1258.5,-296.5C1258.5,-296.5 1125.5,-296.5 1125.5,-296.5 1119.5,-296.5 1113.5,-290.5 1113.5,-284.5 1113.5,-284.5 1113.5,-214.25 1113.5,-214.25 1113.5,-208.25 1119.5,-202.25 1125.5,-202.25 1125.5,-202.25 1258.5,-202.25 1258.5,-202.25 1264.5,-202.25 1270.5,-208.25 1270.5,-214.25 1270.5,-214.25 1270.5,-284.5 1270.5,-284.5 1270.5,-290.5 1264.5,-296.5 1258.5,-296.5"/>
<text text-anchor="middle" x="1192" y="-279.2" font-family="Helvetica,sans-Serif" font-size="14.00">9_A &lt;= 0.5</text>
<text text-anchor="middle" x="1192" y="-261.95" font-family="Helvetica,sans-Serif" font-size="14.00">entropy = 0.889</text>
<text text-anchor="middle" x="1192" y="-244.7" font-family="Helvetica,sans-Serif" font-size="14.00">samples = 1252</text>
<text text-anchor="middle" x="1192" y="-227.45" font-family="Helvetica,sans-Serif" font-size="14.00">value = [1376, 609]</text>
<text text-anchor="middle" x="1192" y="-210.2" font-family="Helvetica,sans-Serif" font-size="14.00">class = Animal</text>
</g>
<!-- 12446&#45;&gt;16398 -->
<g id="edge24" class="edge">
<title>12446&#45;&gt;16398</title>
<path fill="none" stroke="black" d="M1007.93,-337.16C1038.33,-322.83 1072.41,-306.76 1102.9,-292.38"/>
<polygon fill="black" stroke="black" points="1104.18,-295.65 1111.73,-288.22 1101.19,-289.32 1104.18,-295.65"/>
</g>
<!-- 12448 -->
<g id="node19" class="node">
<title>12448</title>
<path fill="#88c4ef" stroke="black" d="M908.5,-166.25C908.5,-166.25 757.5,-166.25 757.5,-166.25 751.5,-166.25 745.5,-160.25 745.5,-154.25 745.5,-154.25 745.5,-84 745.5,-84 745.5,-78 751.5,-72 757.5,-72 757.5,-72 908.5,-72 908.5,-72 914.5,-72 920.5,-78 920.5,-84 920.5,-84 920.5,-154.25 920.5,-154.25 920.5,-160.25 914.5,-166.25 908.5,-166.25"/>
<text text-anchor="middle" x="833" y="-148.95" font-family="Helvetica,sans-Serif" font-size="14.00">18_C &lt;= 0.5</text>
<text text-anchor="middle" x="833" y="-131.7" font-family="Helvetica,sans-Serif" font-size="14.00">entropy = 0.863</text>
<text text-anchor="middle" x="833" y="-114.45" font-family="Helvetica,sans-Serif" font-size="14.00">samples = 9320</text>
<text text-anchor="middle" x="833" y="-97.2" font-family="Helvetica,sans-Serif" font-size="14.00">value = [4222, 10551]</text>
<text text-anchor="middle" x="833" y="-79.95" font-family="Helvetica,sans-Serif" font-size="14.00">class = Plant</text>
</g>
<!-- 12447&#45;&gt;12448 -->
<g id="edge18" class="edge">
<title>12447&#45;&gt;12448</title>
<path fill="none" stroke="black" d="M888.59,-202.07C882.8,-193.54 876.7,-184.54 870.75,-175.77"/>
<polygon fill="black" stroke="black" points="873.72,-173.92 865.21,-167.61 867.93,-177.85 873.72,-173.92"/>
</g>
<!-- 15859 -->
<g id="node22" class="node">
<title>15859</title>
<path fill="#eb9e67" stroke="black" d="M1083.5,-166.25C1083.5,-166.25 950.5,-166.25 950.5,-166.25 944.5,-166.25 938.5,-160.25 938.5,-154.25 938.5,-154.25 938.5,-84 938.5,-84 938.5,-78 944.5,-72 950.5,-72 950.5,-72 1083.5,-72 1083.5,-72 1089.5,-72 1095.5,-78 1095.5,-84 1095.5,-84 1095.5,-154.25 1095.5,-154.25 1095.5,-160.25 1089.5,-166.25 1083.5,-166.25"/>
<text text-anchor="middle" x="1017" y="-148.95" font-family="Helvetica,sans-Serif" font-size="14.00">3_A &lt;= 0.5</text>
<text text-anchor="middle" x="1017" y="-131.7" font-family="Helvetica,sans-Serif" font-size="14.00">entropy = 0.696</text>
<text text-anchor="middle" x="1017" y="-114.45" font-family="Helvetica,sans-Serif" font-size="14.00">samples = 1252</text>
<text text-anchor="middle" x="1017" y="-97.2" font-family="Helvetica,sans-Serif" font-size="14.00">value = [1603, 370]</text>
<text text-anchor="middle" x="1017" y="-79.95" font-family="Helvetica,sans-Serif" font-size="14.00">class = Animal</text>
</g>
<!-- 12447&#45;&gt;15859 -->
<g id="edge21" class="edge">
<title>12447&#45;&gt;15859</title>
<path fill="none" stroke="black" d="M955.02,-202.07C961.54,-193.45 968.42,-184.35 975.13,-175.49"/>
<polygon fill="black" stroke="black" points="977.88,-177.65 981.12,-167.57 972.3,-173.43 977.88,-177.65"/>
</g>
<!-- 12449 -->
<g id="node20" class="node">
<title>12449</title>
<path fill="#c0c0c0" stroke="black" d="M796,-36C796,-36 766,-36 766,-36 760,-36 754,-30 754,-24 754,-24 754,-12 754,-12 754,-6 760,0 766,0 766,0 796,0 796,0 802,0 808,-6 808,-12 808,-12 808,-24 808,-24 808,-30 802,-36 796,-36"/>
<text text-anchor="middle" x="781" y="-13.32" font-family="Helvetica,sans-Serif" font-size="14.00">(...)</text>
</g>
<!-- 12448&#45;&gt;12449 -->
<g id="edge19" class="edge">
<title>12448&#45;&gt;12449</title>
<path fill="none" stroke="black" d="M808.67,-71.75C804.1,-63.03 799.45,-54.16 795.3,-46.26"/>
<polygon fill="black" stroke="black" points="798.46,-44.74 790.71,-37.51 792.26,-47.99 798.46,-44.74"/>
</g>
<!-- 15020 -->
<g id="node21" class="node">
<title>15020</title>
<path fill="#c0c0c0" stroke="black" d="M868,-36C868,-36 838,-36 838,-36 832,-36 826,-30 826,-24 826,-24 826,-12 826,-12 826,-6 832,0 838,0 838,0 868,0 868,0 874,0 880,-6 880,-12 880,-12 880,-24 880,-24 880,-30 874,-36 868,-36"/>
<text text-anchor="middle" x="853" y="-13.32" font-family="Helvetica,sans-Serif" font-size="14.00">(...)</text>
</g>
<!-- 12448&#45;&gt;15020 -->
<g id="edge20" class="edge">
<title>12448&#45;&gt;15020</title>
<path fill="none" stroke="black" d="M842.36,-71.75C844.04,-63.42 845.74,-54.97 847.28,-47.34"/>
<polygon fill="black" stroke="black" points="850.69,-48.15 849.24,-37.66 843.83,-46.77 850.69,-48.15"/>
</g>
<!-- 15860 -->
<g id="node23" class="node">
<title>15860</title>
<path fill="#c0c0c0" stroke="black" d="M975,-36C975,-36 945,-36 945,-36 939,-36 933,-30 933,-24 933,-24 933,-12 933,-12 933,-6 939,0 945,0 945,0 975,0 975,0 981,0 987,-6 987,-12 987,-12 987,-24 987,-24 987,-30 981,-36 975,-36"/>
<text text-anchor="middle" x="960" y="-13.32" font-family="Helvetica,sans-Serif" font-size="14.00">(...)</text>
</g>
<!-- 15859&#45;&gt;15860 -->
<g id="edge22" class="edge">
<title>15859&#45;&gt;15860</title>
<path fill="none" stroke="black" d="M990.34,-71.75C985.26,-62.93 980.1,-53.96 975.52,-45.99"/>
<polygon fill="black" stroke="black" points="978.65,-44.41 970.63,-37.48 972.58,-47.9 978.65,-44.41"/>
</g>
<!-- 16239 -->
<g id="node24" class="node">
<title>16239</title>
<path fill="#c0c0c0" stroke="black" d="M1047,-36C1047,-36 1017,-36 1017,-36 1011,-36 1005,-30 1005,-24 1005,-24 1005,-12 1005,-12 1005,-6 1011,0 1017,0 1017,0 1047,0 1047,0 1053,0 1059,-6 1059,-12 1059,-12 1059,-24 1059,-24 1059,-30 1053,-36 1047,-36"/>
<text text-anchor="middle" x="1032" y="-13.32" font-family="Helvetica,sans-Serif" font-size="14.00">(...)</text>
</g>
<!-- 15859&#45;&gt;16239 -->
<g id="edge23" class="edge">
<title>15859&#45;&gt;16239</title>
<path fill="none" stroke="black" d="M1024.02,-71.75C1025.28,-63.42 1026.56,-54.97 1027.71,-47.34"/>
<polygon fill="black" stroke="black" points="1031.14,-48.08 1029.17,-37.67 1024.22,-47.03 1031.14,-48.08"/>
</g>
<!-- 16399 -->
<g id="node26" class="node">
<title>16399</title>
<path fill="#eeab7b" stroke="black" d="M1258.5,-166.25C1258.5,-166.25 1125.5,-166.25 1125.5,-166.25 1119.5,-166.25 1113.5,-160.25 1113.5,-154.25 1113.5,-154.25 1113.5,-84 1113.5,-84 1113.5,-78 1119.5,-72 1125.5,-72 1125.5,-72 1258.5,-72 1258.5,-72 1264.5,-72 1270.5,-78 1270.5,-84 1270.5,-84 1270.5,-154.25 1270.5,-154.25 1270.5,-160.25 1264.5,-166.25 1258.5,-166.25"/>
<text text-anchor="middle" x="1192" y="-148.95" font-family="Helvetica,sans-Serif" font-size="14.00">3_U &lt;= 0.5</text>
<text text-anchor="middle" x="1192" y="-131.7" font-family="Helvetica,sans-Serif" font-size="14.00">entropy = 0.809</text>
<text text-anchor="middle" x="1192" y="-114.45" font-family="Helvetica,sans-Serif" font-size="14.00">samples = 933</text>
<text text-anchor="middle" x="1192" y="-97.2" font-family="Helvetica,sans-Serif" font-size="14.00">value = [1123, 372]</text>
<text text-anchor="middle" x="1192" y="-79.95" font-family="Helvetica,sans-Serif" font-size="14.00">class = Animal</text>
</g>
<!-- 16398&#45;&gt;16399 -->
<g id="edge25" class="edge">
<title>16398&#45;&gt;16399</title>
<path fill="none" stroke="black" d="M1192,-202.07C1192,-194.17 1192,-185.88 1192,-177.73"/>
<polygon fill="black" stroke="black" points="1195.5,-177.87 1192,-167.87 1188.5,-177.87 1195.5,-177.87"/>
</g>
<!-- 16816 -->
<g id="node29" class="node">
<title>16816</title>
<path fill="#fdf7f2" stroke="black" d="M1425,-166.25C1425,-166.25 1301,-166.25 1301,-166.25 1295,-166.25 1289,-160.25 1289,-154.25 1289,-154.25 1289,-84 1289,-84 1289,-78 1295,-72 1301,-72 1301,-72 1425,-72 1425,-72 1431,-72 1437,-78 1437,-84 1437,-84 1437,-154.25 1437,-154.25 1437,-160.25 1431,-166.25 1425,-166.25"/>
<text text-anchor="middle" x="1363" y="-148.95" font-family="Helvetica,sans-Serif" font-size="14.00">19_U &lt;= 0.5</text>
<text text-anchor="middle" x="1363" y="-131.7" font-family="Helvetica,sans-Serif" font-size="14.00">entropy = 0.999</text>
<text text-anchor="middle" x="1363" y="-114.45" font-family="Helvetica,sans-Serif" font-size="14.00">samples = 319</text>
<text text-anchor="middle" x="1363" y="-97.2" font-family="Helvetica,sans-Serif" font-size="14.00">value = [253, 237]</text>
<text text-anchor="middle" x="1363" y="-79.95" font-family="Helvetica,sans-Serif" font-size="14.00">class = Animal</text>
</g>
<!-- 16398&#45;&gt;16816 -->
<g id="edge28" class="edge">
<title>16398&#45;&gt;16816</title>
<path fill="none" stroke="black" d="M1253.73,-202.07C1266.13,-192.78 1279.25,-182.94 1291.93,-173.43"/>
<polygon fill="black" stroke="black" points="1293.96,-176.28 1299.86,-167.48 1289.76,-170.68 1293.96,-176.28"/>
</g>
<!-- 16400 -->
<g id="node27" class="node">
<title>16400</title>
<path fill="#c0c0c0" stroke="black" d="M1166,-36C1166,-36 1136,-36 1136,-36 1130,-36 1124,-30 1124,-24 1124,-24 1124,-12 1124,-12 1124,-6 1130,0 1136,0 1136,0 1166,0 1166,0 1172,0 1178,-6 1178,-12 1178,-12 1178,-24 1178,-24 1178,-30 1172,-36 1166,-36"/>
<text text-anchor="middle" x="1151" y="-13.32" font-family="Helvetica,sans-Serif" font-size="14.00">(...)</text>
</g>
<!-- 16399&#45;&gt;16400 -->
<g id="edge26" class="edge">
<title>16399&#45;&gt;16400</title>
<path fill="none" stroke="black" d="M1172.82,-71.75C1169.29,-63.22 1165.71,-54.57 1162.5,-46.8"/>
<polygon fill="black" stroke="black" points="1165.74,-45.47 1158.68,-37.57 1159.27,-48.15 1165.74,-45.47"/>
</g>
<!-- 16755 -->
<g id="node28" class="node">
<title>16755</title>
<path fill="#c0c0c0" stroke="black" d="M1238,-36C1238,-36 1208,-36 1208,-36 1202,-36 1196,-30 1196,-24 1196,-24 1196,-12 1196,-12 1196,-6 1202,0 1208,0 1208,0 1238,0 1238,0 1244,0 1250,-6 1250,-12 1250,-12 1250,-24 1250,-24 1250,-30 1244,-36 1238,-36"/>
<text text-anchor="middle" x="1223" y="-13.32" font-family="Helvetica,sans-Serif" font-size="14.00">(...)</text>
</g>
<!-- 16399&#45;&gt;16755 -->
<g id="edge27" class="edge">
<title>16399&#45;&gt;16755</title>
<path fill="none" stroke="black" d="M1206.5,-71.75C1209.14,-63.32 1211.81,-54.77 1214.22,-47.07"/>
<polygon fill="black" stroke="black" points="1217.53,-48.21 1217.18,-37.62 1210.85,-46.12 1217.53,-48.21"/>
</g>
<!-- 16817 -->
<g id="node30" class="node">
<title>16817</title>
<path fill="#c0c0c0" stroke="black" d="M1342,-36C1342,-36 1312,-36 1312,-36 1306,-36 1300,-30 1300,-24 1300,-24 1300,-12 1300,-12 1300,-6 1306,0 1312,0 1312,0 1342,0 1342,0 1348,0 1354,-6 1354,-12 1354,-12 1354,-24 1354,-24 1354,-30 1348,-36 1342,-36"/>
<text text-anchor="middle" x="1327" y="-13.32" font-family="Helvetica,sans-Serif" font-size="14.00">(...)</text>
</g>
<!-- 16816&#45;&gt;16817 -->
<g id="edge29" class="edge">
<title>16816&#45;&gt;16817</title>
<path fill="none" stroke="black" d="M1346.16,-71.75C1343.06,-63.22 1339.92,-54.57 1337.1,-46.8"/>
<polygon fill="black" stroke="black" points="1340.46,-45.8 1333.75,-37.6 1333.88,-48.19 1340.46,-45.8"/>
</g>
<!-- 16910 -->
<g id="node31" class="node">
<title>16910</title>
<path fill="#c0c0c0" stroke="black" d="M1414,-36C1414,-36 1384,-36 1384,-36 1378,-36 1372,-30 1372,-24 1372,-24 1372,-12 1372,-12 1372,-6 1378,0 1384,0 1384,0 1414,0 1414,0 1420,0 1426,-6 1426,-12 1426,-12 1426,-24 1426,-24 1426,-30 1420,-36 1414,-36"/>
<text text-anchor="middle" x="1399" y="-13.32" font-family="Helvetica,sans-Serif" font-size="14.00">(...)</text>
</g>
<!-- 16816&#45;&gt;16910 -->
<g id="edge30" class="edge">
<title>16816&#45;&gt;16910</title>
<path fill="none" stroke="black" d="M1379.84,-71.75C1382.94,-63.22 1386.08,-54.57 1388.9,-46.8"/>
<polygon fill="black" stroke="black" points="1392.12,-48.19 1392.25,-37.6 1385.54,-45.8 1392.12,-48.19"/>
</g>
</g>
</svg>
