<?xml version="1.0" encoding="UTF-8" standalone="no"?>
<!DOCTYPE svg PUBLIC "-//W3C//DTD SVG 1.1//EN"
 "http://www.w3.org/Graphics/SVG/1.1/DTD/svg11.dtd">
<!-- Generated by graphviz version 12.0.0 (20240803.0821)
 -->
<!-- Title: Tree Pages: 1 -->
<svg width="1400pt" height="565pt"
 viewBox="0.00 0.00 1400.00 565.00" xmlns="http://www.w3.org/2000/svg" xmlns:xlink="http://www.w3.org/1999/xlink">
<g id="graph0" class="graph" transform="scale(1 1) rotate(0) translate(4 561)">
<title>Tree</title>
<polygon fill="white" stroke="none" points="-4,4 -4,-561 1396,-561 1396,4 -4,4"/>
<!-- 0 -->
<g id="node1" class="node">
<title>0</title>
<path fill="#fffefd" stroke="black" d="M812,-557C812,-557 652,-557 652,-557 646,-557 640,-551 640,-545 640,-545 640,-474.75 640,-474.75 640,-468.75 646,-462.75 652,-462.75 652,-462.75 812,-462.75 812,-462.75 818,-462.75 824,-468.75 824,-474.75 824,-474.75 824,-545 824,-545 824,-551 818,-557 812,-557"/>
<text text-anchor="middle" x="732" y="-539.7" font-family="Helvetica,sans-Serif" font-size="14.00">22_C &lt;= 0.5</text>
<text text-anchor="middle" x="732" y="-522.45" font-family="Helvetica,sans-Serif" font-size="14.00">entropy = 1.0</text>
<text text-anchor="middle" x="732" y="-505.2" font-family="Helvetica,sans-Serif" font-size="14.00">samples = 38170</text>
<text text-anchor="middle" x="732" y="-487.95" font-family="Helvetica,sans-Serif" font-size="14.00">value = [30343, 30002]</text>
<text text-anchor="middle" x="732" y="-470.7" font-family="Helvetica,sans-Serif" font-size="14.00">class = Animal</text>
</g>
<!-- 1 -->
<g id="node2" class="node">
<title>1</title>
<path fill="#f1f8fd" stroke="black" d="M639,-426.75C639,-426.75 479,-426.75 479,-426.75 473,-426.75 467,-420.75 467,-414.75 467,-414.75 467,-344.5 467,-344.5 467,-338.5 473,-332.5 479,-332.5 479,-332.5 639,-332.5 639,-332.5 645,-332.5 651,-338.5 651,-344.5 651,-344.5 651,-414.75 651,-414.75 651,-420.75 645,-426.75 639,-426.75"/>
<text text-anchor="middle" x="559" y="-409.45" font-family="Helvetica,sans-Serif" font-size="14.00">22_U &lt;= 0.5</text>
<text text-anchor="middle" x="559" y="-392.2" font-family="Helvetica,sans-Serif" font-size="14.00">entropy = 0.999</text>
<text text-anchor="middle" x="559" y="-374.95" font-family="Helvetica,sans-Serif" font-size="14.00">samples = 34452</text>
<text text-anchor="middle" x="559" y="-357.7" font-family="Helvetica,sans-Serif" font-size="14.00">value = [26227, 28272]</text>
<text text-anchor="middle" x="559" y="-340.45" font-family="Helvetica,sans-Serif" font-size="14.00">class = Plant</text>
</g>
<!-- 0&#45;&gt;1 -->
<g id="edge1" class="edge">
<title>0&#45;&gt;1</title>
<path fill="none" stroke="black" d="M669.54,-462.57C657,-453.28 643.73,-443.44 630.9,-433.93"/>
<polygon fill="black" stroke="black" points="632.99,-431.12 622.87,-427.97 628.82,-436.74 632.99,-431.12"/>
<text text-anchor="middle" x="625.33" y="-447.13" font-family="Helvetica,sans-Serif" font-size="14.00">True</text>
</g>
<!-- 14932 -->
<g id="node17" class="node">
<title>14932</title>
<path fill="#f0b68c" stroke="black" d="M974,-426.75C974,-426.75 832,-426.75 832,-426.75 826,-426.75 820,-420.75 820,-414.75 820,-414.75 820,-344.5 820,-344.5 820,-338.5 826,-332.5 832,-332.5 832,-332.5 974,-332.5 974,-332.5 980,-332.5 986,-338.5 986,-344.5 986,-344.5 986,-414.75 986,-414.75 986,-420.75 980,-426.75 974,-426.75"/>
<text text-anchor="middle" x="903" y="-409.45" font-family="Helvetica,sans-Serif" font-size="14.00">6_A &lt;= 0.5</text>
<text text-anchor="middle" x="903" y="-392.2" font-family="Helvetica,sans-Serif" font-size="14.00">entropy = 0.876</text>
<text text-anchor="middle" x="903" y="-374.95" font-family="Helvetica,sans-Serif" font-size="14.00">samples = 3718</text>
<text text-anchor="middle" x="903" y="-357.7" font-family="Helvetica,sans-Serif" font-size="14.00">value = [4116, 1730]</text>
<text text-anchor="middle" x="903" y="-340.45" font-family="Helvetica,sans-Serif" font-size="14.00">class = Animal</text>
</g>
<!-- 0&#45;&gt;14932 -->
<g id="edge16" class="edge">
<title>0&#45;&gt;14932</title>
<path fill="none" stroke="black" d="M793.73,-462.57C806.13,-453.28 819.25,-443.44 831.93,-433.93"/>
<polygon fill="black" stroke="black" points="833.96,-436.78 839.86,-427.98 829.76,-431.18 833.96,-436.78"/>
<text text-anchor="middle" x="837.53" y="-447.15" font-family="Helvetica,sans-Serif" font-size="14.00">False</text>
</g>
<!-- 2 -->
<g id="node3" class="node">
<title>2</title>
<path fill="#c9e4f8" stroke="black" d="M370,-296.5C370,-296.5 210,-296.5 210,-296.5 204,-296.5 198,-290.5 198,-284.5 198,-284.5 198,-214.25 198,-214.25 198,-208.25 204,-202.25 210,-202.25 210,-202.25 370,-202.25 370,-202.25 376,-202.25 382,-208.25 382,-214.25 382,-214.25 382,-284.5 382,-284.5 382,-290.5 376,-296.5 370,-296.5"/>
<text text-anchor="middle" x="290" y="-279.2" font-family="Helvetica,sans-Serif" font-size="14.00">19_C &lt;= 0.5</text>
<text text-anchor="middle" x="290" y="-261.95" font-family="Helvetica,sans-Serif" font-size="14.00">entropy = 0.982</text>
<text text-anchor="middle" x="290" y="-244.7" font-family="Helvetica,sans-Serif" font-size="14.00">samples = 29348</text>
<text text-anchor="middle" x="290" y="-227.45" font-family="Helvetica,sans-Serif" font-size="14.00">value = [19574, 26863]</text>
<text text-anchor="middle" x="290" y="-210.2" font-family="Helvetica,sans-Serif" font-size="14.00">class = Plant</text>
</g>
<!-- 1&#45;&gt;2 -->
<g id="edge2" class="edge">
<title>1&#45;&gt;2</title>
<path fill="none" stroke="black" d="M466.8,-334.67C442.85,-323.25 416.9,-310.88 392.45,-299.22"/>
<polygon fill="black" stroke="black" points="393.98,-296.07 383.44,-294.93 390.96,-302.39 393.98,-296.07"/>
</g>
<!-- 12979 -->
<g id="node10" class="node">
<title>12979</title>
<path fill="#eb9c63" stroke="black" d="M630,-296.5C630,-296.5 488,-296.5 488,-296.5 482,-296.5 476,-290.5 476,-284.5 476,-284.5 476,-214.25 476,-214.25 476,-208.25 482,-202.25 488,-202.25 488,-202.25 630,-202.25 630,-202.25 636,-202.25 642,-208.25 642,-214.25 642,-214.25 642,-284.5 642,-284.5 642,-290.5 636,-296.5 630,-296.5"/>
<text text-anchor="middle" x="559" y="-279.2" font-family="Helvetica,sans-Serif" font-size="14.00">9_G &lt;= 0.5</text>
<text text-anchor="middle" x="559" y="-261.95" font-family="Helvetica,sans-Serif" font-size="14.00">entropy = 0.669</text>
<text text-anchor="middle" x="559" y="-244.7" font-family="Helvetica,sans-Serif" font-size="14.00">samples = 5104</text>
<text text-anchor="middle" x="559" y="-227.45" font-family="Helvetica,sans-Serif" font-size="14.00">value = [6653, 1409]</text>
<text text-anchor="middle" x="559" y="-210.2" font-family="Helvetica,sans-Serif" font-size="14.00">class = Animal</text>
</g>
<!-- 1&#45;&gt;12979 -->
<g id="edge9" class="edge">
<title>1&#45;&gt;12979</title>
<path fill="none" stroke="black" d="M559,-332.32C559,-324.42 559,-316.13 559,-307.98"/>
<polygon fill="black" stroke="black" points="562.5,-308.12 559,-298.12 555.5,-308.12 562.5,-308.12"/>
</g>
<!-- 3 -->
<g id="node4" class="node">
<title>3</title>
<path fill="#fdfeff" stroke="black" d="M172,-166.25C172,-166.25 12,-166.25 12,-166.25 6,-166.25 0,-160.25 0,-154.25 0,-154.25 0,-84 0,-84 0,-78 6,-72 12,-72 12,-72 172,-72 172,-72 178,-72 184,-78 184,-84 184,-84 184,-154.25 184,-154.25 184,-160.25 178,-166.25 172,-166.25"/>
<text text-anchor="middle" x="92" y="-148.95" font-family="Helvetica,sans-Serif" font-size="14.00">8_U &lt;= 0.5</text>
<text text-anchor="middle" x="92" y="-131.7" font-family="Helvetica,sans-Serif" font-size="14.00">entropy = 1.0</text>
<text text-anchor="middle" x="92" y="-114.45" font-family="Helvetica,sans-Serif" font-size="14.00">samples = 19444</text>
<text text-anchor="middle" x="92" y="-97.2" font-family="Helvetica,sans-Serif" font-size="14.00">value = [15296, 15489]</text>
<text text-anchor="middle" x="92" y="-79.95" font-family="Helvetica,sans-Serif" font-size="14.00">class = Plant</text>
</g>
<!-- 2&#45;&gt;3 -->
<g id="edge3" class="edge">
<title>2&#45;&gt;3</title>
<path fill="none" stroke="black" d="M218.24,-201.89C203.71,-192.48 188.34,-182.53 173.5,-172.92"/>
<polygon fill="black" stroke="black" points="175.42,-169.99 165.12,-167.49 171.61,-175.86 175.42,-169.99"/>
</g>
<!-- 9892 -->
<g id="node7" class="node">
<title>9892</title>
<path fill="#83c2ef" stroke="black" d="M365.5,-166.25C365.5,-166.25 214.5,-166.25 214.5,-166.25 208.5,-166.25 202.5,-160.25 202.5,-154.25 202.5,-154.25 202.5,-84 202.5,-84 202.5,-78 208.5,-72 214.5,-72 214.5,-72 365.5,-72 365.5,-72 371.5,-72 377.5,-78 377.5,-84 377.5,-84 377.5,-154.25 377.5,-154.25 377.5,-160.25 371.5,-166.25 365.5,-166.25"/>
<text text-anchor="middle" x="290" y="-148.95" font-family="Helvetica,sans-Serif" font-size="14.00">16_G &lt;= 0.5</text>
<text text-anchor="middle" x="290" y="-131.7" font-family="Helvetica,sans-Serif" font-size="14.00">entropy = 0.846</text>
<text text-anchor="middle" x="290" y="-114.45" font-family="Helvetica,sans-Serif" font-size="14.00">samples = 9904</text>
<text text-anchor="middle" x="290" y="-97.2" font-family="Helvetica,sans-Serif" font-size="14.00">value = [4278, 11374]</text>
<text text-anchor="middle" x="290" y="-79.95" font-family="Helvetica,sans-Serif" font-size="14.00">class = Plant</text>
</g>
<!-- 2&#45;&gt;9892 -->
<g id="edge6" class="edge">
<title>2&#45;&gt;9892</title>
<path fill="none" stroke="black" d="M290,-202.07C290,-194.17 290,-185.88 290,-177.73"/>
<polygon fill="black" stroke="black" points="293.5,-177.87 290,-167.87 286.5,-177.87 293.5,-177.87"/>
</g>
<!-- 4 -->
<g id="node5" class="node">
<title>4</title>
<path fill="#c0c0c0" stroke="black" d="M71,-36C71,-36 41,-36 41,-36 35,-36 29,-30 29,-24 29,-24 29,-12 29,-12 29,-6 35,0 41,0 41,0 71,0 71,0 77,0 83,-6 83,-12 83,-12 83,-24 83,-24 83,-30 77,-36 71,-36"/>
<text text-anchor="middle" x="56" y="-13.32" font-family="Helvetica,sans-Serif" font-size="14.00">(...)</text>
</g>
<!-- 3&#45;&gt;4 -->
<g id="edge4" class="edge">
<title>3&#45;&gt;4</title>
<path fill="none" stroke="black" d="M75.16,-71.75C72.06,-63.22 68.92,-54.57 66.1,-46.8"/>
<polygon fill="black" stroke="black" points="69.46,-45.8 62.75,-37.6 62.88,-48.19 69.46,-45.8"/>
</g>
<!-- 7213 -->
<g id="node6" class="node">
<title>7213</title>
<path fill="#c0c0c0" stroke="black" d="M143,-36C143,-36 113,-36 113,-36 107,-36 101,-30 101,-24 101,-24 101,-12 101,-12 101,-6 107,0 113,0 113,0 143,0 143,0 149,0 155,-6 155,-12 155,-12 155,-24 155,-24 155,-30 149,-36 143,-36"/>
<text text-anchor="middle" x="128" y="-13.32" font-family="Helvetica,sans-Serif" font-size="14.00">(...)</text>
</g>
<!-- 3&#45;&gt;7213 -->
<g id="edge5" class="edge">
<title>3&#45;&gt;7213</title>
<path fill="none" stroke="black" d="M108.84,-71.75C111.94,-63.22 115.08,-54.57 117.9,-46.8"/>
<polygon fill="black" stroke="black" points="121.12,-48.19 121.25,-37.6 114.54,-45.8 121.12,-48.19"/>
</g>
<!-- 9893 -->
<g id="node8" class="node">
<title>9893</title>
<path fill="#c0c0c0" stroke="black" d="M268,-36C268,-36 238,-36 238,-36 232,-36 226,-30 226,-24 226,-24 226,-12 226,-12 226,-6 232,0 238,0 238,0 268,0 268,0 274,0 280,-6 280,-12 280,-12 280,-24 280,-24 280,-30 274,-36 268,-36"/>
<text text-anchor="middle" x="253" y="-13.32" font-family="Helvetica,sans-Serif" font-size="14.00">(...)</text>
</g>
<!-- 9892&#45;&gt;9893 -->
<g id="edge7" class="edge">
<title>9892&#45;&gt;9893</title>
<path fill="none" stroke="black" d="M272.69,-71.75C269.51,-63.22 266.28,-54.57 263.38,-46.8"/>
<polygon fill="black" stroke="black" points="266.72,-45.74 259.94,-37.59 260.16,-48.18 266.72,-45.74"/>
</g>
<!-- 12210 -->
<g id="node9" class="node">
<title>12210</title>
<path fill="#c0c0c0" stroke="black" d="M340,-36C340,-36 310,-36 310,-36 304,-36 298,-30 298,-24 298,-24 298,-12 298,-12 298,-6 304,0 310,0 310,0 340,0 340,0 346,0 352,-6 352,-12 352,-12 352,-24 352,-24 352,-30 346,-36 340,-36"/>
<text text-anchor="middle" x="325" y="-13.32" font-family="Helvetica,sans-Serif" font-size="14.00">(...)</text>
</g>
<!-- 9892&#45;&gt;12210 -->
<g id="edge8" class="edge">
<title>9892&#45;&gt;12210</title>
<path fill="none" stroke="black" d="M306.37,-71.75C309.39,-63.22 312.44,-54.57 315.18,-46.8"/>
<polygon fill="black" stroke="black" points="318.4,-48.19 318.43,-37.6 311.8,-45.86 318.4,-48.19"/>
</g>
<!-- 12980 -->
<g id="node11" class="node">
<title>12980</title>
<path fill="#ea985d" stroke="black" d="M540.5,-166.25C540.5,-166.25 407.5,-166.25 407.5,-166.25 401.5,-166.25 395.5,-160.25 395.5,-154.25 395.5,-154.25 395.5,-84 395.5,-84 395.5,-78 401.5,-72 407.5,-72 407.5,-72 540.5,-72 540.5,-72 546.5,-72 552.5,-78 552.5,-84 552.5,-84 552.5,-154.25 552.5,-154.25 552.5,-160.25 546.5,-166.25 540.5,-166.25"/>
<text text-anchor="middle" x="474" y="-148.95" font-family="Helvetica,sans-Serif" font-size="14.00">19_G &lt;= 0.5</text>
<text text-anchor="middle" x="474" y="-131.7" font-family="Helvetica,sans-Serif" font-size="14.00">entropy = 0.618</text>
<text text-anchor="middle" x="474" y="-114.45" font-family="Helvetica,sans-Serif" font-size="14.00">samples = 3993</text>
<text text-anchor="middle" x="474" y="-97.2" font-family="Helvetica,sans-Serif" font-size="14.00">value = [5320, 963]</text>
<text text-anchor="middle" x="474" y="-79.95" font-family="Helvetica,sans-Serif" font-size="14.00">class = Animal</text>
</g>
<!-- 12979&#45;&gt;12980 -->
<g id="edge10" class="edge">
<title>12979&#45;&gt;12980</title>
<path fill="none" stroke="black" d="M528.31,-202.07C522.66,-193.54 516.7,-184.54 510.88,-175.77"/>
<polygon fill="black" stroke="black" points="513.92,-174.02 505.48,-167.62 508.09,-177.89 513.92,-174.02"/>
</g>
<!-- 14401 -->
<g id="node14" class="node">
<title>14401</title>
<path fill="#eeab7b" stroke="black" d="M715.5,-166.25C715.5,-166.25 582.5,-166.25 582.5,-166.25 576.5,-166.25 570.5,-160.25 570.5,-154.25 570.5,-154.25 570.5,-84 570.5,-84 570.5,-78 576.5,-72 582.5,-72 582.5,-72 715.5,-72 715.5,-72 721.5,-72 727.5,-78 727.5,-84 727.5,-84 727.5,-154.25 727.5,-154.25 727.5,-160.25 721.5,-166.25 715.5,-166.25"/>
<text text-anchor="middle" x="649" y="-148.95" font-family="Helvetica,sans-Serif" font-size="14.00">16_C &lt;= 0.5</text>
<text text-anchor="middle" x="649" y="-131.7" font-family="Helvetica,sans-Serif" font-size="14.00">entropy = 0.812</text>
<text text-anchor="middle" x="649" y="-114.45" font-family="Helvetica,sans-Serif" font-size="14.00">samples = 1111</text>
<text text-anchor="middle" x="649" y="-97.2" font-family="Helvetica,sans-Serif" font-size="14.00">value = [1333, 446]</text>
<text text-anchor="middle" x="649" y="-79.95" font-family="Helvetica,sans-Serif" font-size="14.00">class = Animal</text>
</g>
<!-- 12979&#45;&gt;14401 -->
<g id="edge13" class="edge">
<title>12979&#45;&gt;14401</title>
<path fill="none" stroke="black" d="M591.49,-202.07C597.48,-193.54 603.79,-184.54 609.95,-175.77"/>
<polygon fill="black" stroke="black" points="612.81,-177.79 615.69,-167.6 607.08,-173.77 612.81,-177.79"/>
</g>
<!-- 12981 -->
<g id="node12" class="node">
<title>12981</title>
<path fill="#c0c0c0" stroke="black" d="M432,-36C432,-36 402,-36 402,-36 396,-36 390,-30 390,-24 390,-24 390,-12 390,-12 390,-6 396,0 402,0 402,0 432,0 432,0 438,0 444,-6 444,-12 444,-12 444,-24 444,-24 444,-30 438,-36 432,-36"/>
<text text-anchor="middle" x="417" y="-13.32" font-family="Helvetica,sans-Serif" font-size="14.00">(...)</text>
</g>
<!-- 12980&#45;&gt;12981 -->
<g id="edge11" class="edge">
<title>12980&#45;&gt;12981</title>
<path fill="none" stroke="black" d="M447.34,-71.75C442.26,-62.93 437.1,-53.96 432.52,-45.99"/>
<polygon fill="black" stroke="black" points="435.65,-44.41 427.63,-37.48 429.58,-47.9 435.65,-44.41"/>
</g>
<!-- 14004 -->
<g id="node13" class="node">
<title>14004</title>
<path fill="#c0c0c0" stroke="black" d="M504,-36C504,-36 474,-36 474,-36 468,-36 462,-30 462,-24 462,-24 462,-12 462,-12 462,-6 468,0 474,0 474,0 504,0 504,0 510,0 516,-6 516,-12 516,-12 516,-24 516,-24 516,-30 510,-36 504,-36"/>
<text text-anchor="middle" x="489" y="-13.32" font-family="Helvetica,sans-Serif" font-size="14.00">(...)</text>
</g>
<!-- 12980&#45;&gt;14004 -->
<g id="edge12" class="edge">
<title>12980&#45;&gt;14004</title>
<path fill="none" stroke="black" d="M481.02,-71.75C482.28,-63.42 483.56,-54.97 484.71,-47.34"/>
<polygon fill="black" stroke="black" points="488.14,-48.08 486.17,-37.67 481.22,-47.03 488.14,-48.08"/>
</g>
<!-- 14402 -->
<g id="node15" class="node">
<title>14402</title>
<path fill="#c0c0c0" stroke="black" d="M610,-36C610,-36 580,-36 580,-36 574,-36 568,-30 568,-24 568,-24 568,-12 568,-12 568,-6 574,0 580,0 580,0 610,0 610,0 616,0 622,-6 622,-12 622,-12 622,-24 622,-24 622,-30 616,-36 610,-36"/>
<text text-anchor="middle" x="595" y="-13.32" font-family="Helvetica,sans-Serif" font-size="14.00">(...)</text>
</g>
<!-- 14401&#45;&gt;14402 -->
<g id="edge14" class="edge">
<title>14401&#45;&gt;14402</title>
<path fill="none" stroke="black" d="M623.74,-71.75C618.98,-63.03 614.16,-54.16 609.85,-46.26"/>
<polygon fill="black" stroke="black" points="612.94,-44.61 605.08,-37.5 606.79,-47.96 612.94,-44.61"/>
</g>
<!-- 14851 -->
<g id="node16" class="node">
<title>14851</title>
<path fill="#c0c0c0" stroke="black" d="M682,-36C682,-36 652,-36 652,-36 646,-36 640,-30 640,-24 640,-24 640,-12 640,-12 640,-6 646,0 652,0 652,0 682,0 682,0 688,0 694,-6 694,-12 694,-12 694,-24 694,-24 694,-30 688,-36 682,-36"/>
<text text-anchor="middle" x="667" y="-13.32" font-family="Helvetica,sans-Serif" font-size="14.00">(...)</text>
</g>
<!-- 14401&#45;&gt;14851 -->
<g id="edge15" class="edge">
<title>14401&#45;&gt;14851</title>
<path fill="none" stroke="black" d="M657.42,-71.75C658.93,-63.42 660.47,-54.97 661.85,-47.34"/>
<polygon fill="black" stroke="black" points="665.27,-48.13 663.61,-37.66 658.38,-46.88 665.27,-48.13"/>
</g>
<!-- 14933 -->
<g id="node18" class="node">
<title>14933</title>
<path fill="#efb184" stroke="black" d="M974,-296.5C974,-296.5 832,-296.5 832,-296.5 826,-296.5 820,-290.5 820,-284.5 820,-284.5 820,-214.25 820,-214.25 820,-208.25 826,-202.25 832,-202.25 832,-202.25 974,-202.25 974,-202.25 980,-202.25 986,-208.25 986,-214.25 986,-214.25 986,-284.5 986,-284.5 986,-290.5 980,-296.5 974,-296.5"/>
<text text-anchor="middle" x="903" y="-279.2" font-family="Helvetica,sans-Serif" font-size="14.00">25_A &lt;= 0.5</text>
<text text-anchor="middle" x="903" y="-261.95" font-family="Helvetica,sans-Serif" font-size="14.00">entropy = 0.848</text>
<text text-anchor="middle" x="903" y="-244.7" font-family="Helvetica,sans-Serif" font-size="14.00">samples = 2862</text>
<text text-anchor="middle" x="903" y="-227.45" font-family="Helvetica,sans-Serif" font-size="14.00">value = [3266, 1238]</text>
<text text-anchor="middle" x="903" y="-210.2" font-family="Helvetica,sans-Serif" font-size="14.00">class = Animal</text>
</g>
<!-- 14932&#45;&gt;14933 -->
<g id="edge17" class="edge">
<title>14932&#45;&gt;14933</title>
<path fill="none" stroke="black" d="M903,-332.32C903,-324.42 903,-316.13 903,-307.98"/>
<polygon fill="black" stroke="black" points="906.5,-308.12 903,-298.12 899.5,-308.12 906.5,-308.12"/>
</g>
<!-- 16386 -->
<g id="node25" class="node">
<title>16386</title>
<path fill="#f4caac" stroke="black" d="M1214,-296.5C1214,-296.5 1090,-296.5 1090,-296.5 1084,-296.5 1078,-290.5 1078,-284.5 1078,-284.5 1078,-214.25 1078,-214.25 1078,-208.25 1084,-202.25 1090,-202.25 1090,-202.25 1214,-202.25 1214,-202.25 1220,-202.25 1226,-208.25 1226,-214.25 1226,-214.25 1226,-284.5 1226,-284.5 1226,-290.5 1220,-296.5 1214,-296.5"/>
<text text-anchor="middle" x="1152" y="-279.2" font-family="Helvetica,sans-Serif" font-size="14.00">14_U &lt;= 0.5</text>
<text text-anchor="middle" x="1152" y="-261.95" font-family="Helvetica,sans-Serif" font-size="14.00">entropy = 0.948</text>
<text text-anchor="middle" x="1152" y="-244.7" font-family="Helvetica,sans-Serif" font-size="14.00">samples = 856</text>
<text text-anchor="middle" x="1152" y="-227.45" font-family="Helvetica,sans-Serif" font-size="14.00">value = [850, 492]</text>
<text text-anchor="middle" x="1152" y="-210.2" font-family="Helvetica,sans-Serif" font-size="14.00">class = Animal</text>
</g>
<!-- 14932&#45;&gt;16386 -->
<g id="edge24" class="edge">
<title>14932&#45;&gt;16386</title>
<path fill="none" stroke="black" d="M986.26,-335.74C1012.46,-322.25 1041.41,-307.34 1067.68,-293.8"/>
<polygon fill="black" stroke="black" points="1068.98,-297.07 1076.26,-289.38 1065.77,-290.85 1068.98,-297.07"/>
</g>
<!-- 14934 -->
<g id="node19" class="node">
<title>14934</title>
<path fill="#efb082" stroke="black" d="M900,-166.25C900,-166.25 758,-166.25 758,-166.25 752,-166.25 746,-160.25 746,-154.25 746,-154.25 746,-84 746,-84 746,-78 752,-72 758,-72 758,-72 900,-72 900,-72 906,-72 912,-78 912,-84 912,-84 912,-154.25 912,-154.25 912,-160.25 906,-166.25 900,-166.25"/>
<text text-anchor="middle" x="829" y="-148.95" font-family="Helvetica,sans-Serif" font-size="14.00">1_A &lt;= 0.5</text>
<text text-anchor="middle" x="829" y="-131.7" font-family="Helvetica,sans-Serif" font-size="14.00">entropy = 0.841</text>
<text text-anchor="middle" x="829" y="-114.45" font-family="Helvetica,sans-Serif" font-size="14.00">samples = 2819</text>
<text text-anchor="middle" x="829" y="-97.2" font-family="Helvetica,sans-Serif" font-size="14.00">value = [3239, 1196]</text>
<text text-anchor="middle" x="829" y="-79.95" font-family="Helvetica,sans-Serif" font-size="14.00">class = Animal</text>
</g>
<!-- 14933&#45;&gt;14934 -->
<g id="edge18" class="edge">
<title>14933&#45;&gt;14934</title>
<path fill="none" stroke="black" d="M876.28,-202.07C871.46,-193.72 866.39,-184.93 861.43,-176.33"/>
<polygon fill="black" stroke="black" points="864.46,-174.58 856.43,-167.67 858.4,-178.08 864.46,-174.58"/>
</g>
<!-- 16359 -->
<g id="node22" class="node">
<title>16359</title>
<path fill="#b8dcf6" stroke="black" d="M1048.38,-166.25C1048.38,-166.25 941.62,-166.25 941.62,-166.25 935.62,-166.25 929.62,-160.25 929.62,-154.25 929.62,-154.25 929.62,-84 929.62,-84 929.62,-78 935.62,-72 941.62,-72 941.62,-72 1048.38,-72 1048.38,-72 1054.38,-72 1060.38,-78 1060.38,-84 1060.38,-84 1060.38,-154.25 1060.38,-154.25 1060.38,-160.25 1054.38,-166.25 1048.38,-166.25"/>
<text text-anchor="middle" x="995" y="-148.95" font-family="Helvetica,sans-Serif" font-size="14.00">16_U &lt;= 0.5</text>
<text text-anchor="middle" x="995" y="-131.7" font-family="Helvetica,sans-Serif" font-size="14.00">entropy = 0.966</text>
<text text-anchor="middle" x="995" y="-114.45" font-family="Helvetica,sans-Serif" font-size="14.00">samples = 43</text>
<text text-anchor="middle" x="995" y="-97.2" font-family="Helvetica,sans-Serif" font-size="14.00">value = [27, 42]</text>
<text text-anchor="middle" x="995" y="-79.95" font-family="Helvetica,sans-Serif" font-size="14.00">class = Plant</text>
</g>
<!-- 14933&#45;&gt;16359 -->
<g id="edge21" class="edge">
<title>14933&#45;&gt;16359</title>
<path fill="none" stroke="black" d="M936.21,-202.07C942.4,-193.45 948.93,-184.35 955.29,-175.49"/>
<polygon fill="black" stroke="black" points="957.97,-177.75 960.95,-167.59 952.28,-173.67 957.97,-177.75"/>
</g>
<!-- 14935 -->
<g id="node20" class="node">
<title>14935</title>
<path fill="#c0c0c0" stroke="black" d="M783,-36C783,-36 753,-36 753,-36 747,-36 741,-30 741,-24 741,-24 741,-12 741,-12 741,-6 747,0 753,0 753,0 783,0 783,0 789,0 795,-6 795,-12 795,-12 795,-24 795,-24 795,-30 789,-36 783,-36"/>
<text text-anchor="middle" x="768" y="-13.32" font-family="Helvetica,sans-Serif" font-size="14.00">(...)</text>
</g>
<!-- 14934&#45;&gt;14935 -->
<g id="edge19" class="edge">
<title>14934&#45;&gt;14935</title>
<path fill="none" stroke="black" d="M800.46,-71.75C794.97,-62.83 789.39,-53.76 784.44,-45.72"/>
<polygon fill="black" stroke="black" points="787.58,-44.14 779.36,-37.46 781.62,-47.81 787.58,-44.14"/>
</g>
<!-- 16068 -->
<g id="node21" class="node">
<title>16068</title>
<path fill="#c0c0c0" stroke="black" d="M855,-36C855,-36 825,-36 825,-36 819,-36 813,-30 813,-24 813,-24 813,-12 813,-12 813,-6 819,0 825,0 825,0 855,0 855,0 861,0 867,-6 867,-12 867,-12 867,-24 867,-24 867,-30 861,-36 855,-36"/>
<text text-anchor="middle" x="840" y="-13.32" font-family="Helvetica,sans-Serif" font-size="14.00">(...)</text>
</g>
<!-- 14934&#45;&gt;16068 -->
<g id="edge20" class="edge">
<title>14934&#45;&gt;16068</title>
<path fill="none" stroke="black" d="M834.15,-71.75C835.06,-63.52 835.99,-55.17 836.82,-47.61"/>
<polygon fill="black" stroke="black" points="840.3,-48 837.93,-37.68 833.35,-47.23 840.3,-48"/>
</g>
<!-- 16360 -->
<g id="node23" class="node">
<title>16360</title>
<path fill="#c0c0c0" stroke="black" d="M944,-36C944,-36 914,-36 914,-36 908,-36 902,-30 902,-24 902,-24 902,-12 902,-12 902,-6 908,0 914,0 914,0 944,0 944,0 950,0 956,-6 956,-12 956,-12 956,-24 956,-24 956,-30 950,-36 944,-36"/>
<text text-anchor="middle" x="929" y="-13.32" font-family="Helvetica,sans-Serif" font-size="14.00">(...)</text>
</g>
<!-- 16359&#45;&gt;16360 -->
<g id="edge22" class="edge">
<title>16359&#45;&gt;16360</title>
<path fill="none" stroke="black" d="M964.13,-71.75C958.18,-62.83 952.14,-53.76 946.79,-45.72"/>
<polygon fill="black" stroke="black" points="949.73,-43.82 941.27,-37.43 943.9,-47.7 949.73,-43.82"/>
</g>
<!-- 16375 -->
<g id="node24" class="node">
<title>16375</title>
<path fill="#c0c0c0" stroke="black" d="M1016,-36C1016,-36 986,-36 986,-36 980,-36 974,-30 974,-24 974,-24 974,-12 974,-12 974,-6 980,0 986,0 986,0 1016,0 1016,0 1022,0 1028,-6 1028,-12 1028,-12 1028,-24 1028,-24 1028,-30 1022,-36 1016,-36"/>
<text text-anchor="middle" x="1001" y="-13.32" font-family="Helvetica,sans-Serif" font-size="14.00">(...)</text>
</g>
<!-- 16359&#45;&gt;16375 -->
<g id="edge23" class="edge">
<title>16359&#45;&gt;16375</title>
<path fill="none" stroke="black" d="M997.81,-71.75C998.31,-63.52 998.81,-55.17 999.27,-47.61"/>
<polygon fill="black" stroke="black" points="1002.76,-47.88 999.87,-37.68 995.77,-47.45 1002.76,-47.88"/>
</g>
<!-- 16387 -->
<g id="node26" class="node">
<title>16387</title>
<path fill="#f7d8c2" stroke="black" d="M1214,-166.25C1214,-166.25 1090,-166.25 1090,-166.25 1084,-166.25 1078,-160.25 1078,-154.25 1078,-154.25 1078,-84 1078,-84 1078,-78 1084,-72 1090,-72 1090,-72 1214,-72 1214,-72 1220,-72 1226,-78 1226,-84 1226,-84 1226,-154.25 1226,-154.25 1226,-160.25 1220,-166.25 1214,-166.25"/>
<text text-anchor="middle" x="1152" y="-148.95" font-family="Helvetica,sans-Serif" font-size="14.00">8_G &lt;= 0.5</text>
<text text-anchor="middle" x="1152" y="-131.7" font-family="Helvetica,sans-Serif" font-size="14.00">entropy = 0.976</text>
<text text-anchor="middle" x="1152" y="-114.45" font-family="Helvetica,sans-Serif" font-size="14.00">samples = 603</text>
<text text-anchor="middle" x="1152" y="-97.2" font-family="Helvetica,sans-Serif" font-size="14.00">value = [561, 388]</text>
<text text-anchor="middle" x="1152" y="-79.95" font-family="Helvetica,sans-Serif" font-size="14.00">class = Animal</text>
</g>
<!-- 16386&#45;&gt;16387 -->
<g id="edge25" class="edge">
<title>16386&#45;&gt;16387</title>
<path fill="none" stroke="black" d="M1152,-202.07C1152,-194.17 1152,-185.88 1152,-177.73"/>
<polygon fill="black" stroke="black" points="1155.5,-177.87 1152,-167.87 1148.5,-177.87 1155.5,-177.87"/>
</g>
<!-- 16696 -->
<g id="node29" class="node">
<title>16696</title>
<path fill="#eeae80" stroke="black" d="M1380,-166.25C1380,-166.25 1256,-166.25 1256,-166.25 1250,-166.25 1244,-160.25 1244,-154.25 1244,-154.25 1244,-84 1244,-84 1244,-78 1250,-72 1256,-72 1256,-72 1380,-72 1380,-72 1386,-72 1392,-78 1392,-84 1392,-84 1392,-154.25 1392,-154.25 1392,-160.25 1386,-166.25 1380,-166.25"/>
<text text-anchor="middle" x="1318" y="-148.95" font-family="Helvetica,sans-Serif" font-size="14.00">16_G &lt;= 0.5</text>
<text text-anchor="middle" x="1318" y="-131.7" font-family="Helvetica,sans-Serif" font-size="14.00">entropy = 0.834</text>
<text text-anchor="middle" x="1318" y="-114.45" font-family="Helvetica,sans-Serif" font-size="14.00">samples = 253</text>
<text text-anchor="middle" x="1318" y="-97.2" font-family="Helvetica,sans-Serif" font-size="14.00">value = [289, 104]</text>
<text text-anchor="middle" x="1318" y="-79.95" font-family="Helvetica,sans-Serif" font-size="14.00">class = Animal</text>
</g>
<!-- 16386&#45;&gt;16696 -->
<g id="edge28" class="edge">
<title>16386&#45;&gt;16696</title>
<path fill="none" stroke="black" d="M1211.93,-202.07C1223.96,-192.78 1236.7,-182.94 1249.01,-173.43"/>
<polygon fill="black" stroke="black" points="1250.91,-176.38 1256.68,-167.5 1246.63,-170.84 1250.91,-176.38"/>
</g>
<!-- 16388 -->
<g id="node27" class="node">
<title>16388</title>
<path fill="#c0c0c0" stroke="black" d="M1124,-36C1124,-36 1094,-36 1094,-36 1088,-36 1082,-30 1082,-24 1082,-24 1082,-12 1082,-12 1082,-6 1088,0 1094,0 1094,0 1124,0 1124,0 1130,0 1136,-6 1136,-12 1136,-12 1136,-24 1136,-24 1136,-30 1130,-36 1124,-36"/>
<text text-anchor="middle" x="1109" y="-13.32" font-family="Helvetica,sans-Serif" font-size="14.00">(...)</text>
</g>
<!-- 16387&#45;&gt;16388 -->
<g id="edge26" class="edge">
<title>16387&#45;&gt;16388</title>
<path fill="none" stroke="black" d="M1131.88,-71.75C1128.14,-63.12 1124.34,-54.36 1120.94,-46.53"/>
<polygon fill="black" stroke="black" points="1124.24,-45.34 1117.05,-37.56 1117.82,-48.13 1124.24,-45.34"/>
</g>
<!-- 16613 -->
<g id="node28" class="node">
<title>16613</title>
<path fill="#c0c0c0" stroke="black" d="M1196,-36C1196,-36 1166,-36 1166,-36 1160,-36 1154,-30 1154,-24 1154,-24 1154,-12 1154,-12 1154,-6 1160,0 1166,0 1166,0 1196,0 1196,0 1202,0 1208,-6 1208,-12 1208,-12 1208,-24 1208,-24 1208,-30 1202,-36 1196,-36"/>
<text text-anchor="middle" x="1181" y="-13.32" font-family="Helvetica,sans-Serif" font-size="14.00">(...)</text>
</g>
<!-- 16387&#45;&gt;16613 -->
<g id="edge27" class="edge">
<title>16387&#45;&gt;16613</title>
<path fill="none" stroke="black" d="M1165.57,-71.75C1168.03,-63.32 1170.54,-54.77 1172.79,-47.07"/>
<polygon fill="black" stroke="black" points="1176.1,-48.21 1175.55,-37.63 1169.38,-46.24 1176.1,-48.21"/>
</g>
<!-- 16697 -->
<g id="node30" class="node">
<title>16697</title>
<path fill="#c0c0c0" stroke="black" d="M1297,-36C1297,-36 1267,-36 1267,-36 1261,-36 1255,-30 1255,-24 1255,-24 1255,-12 1255,-12 1255,-6 1261,0 1267,0 1267,0 1297,0 1297,0 1303,0 1309,-6 1309,-12 1309,-12 1309,-24 1309,-24 1309,-30 1303,-36 1297,-36"/>
<text text-anchor="middle" x="1282" y="-13.32" font-family="Helvetica,sans-Serif" font-size="14.00">(...)</text>
</g>
<!-- 16696&#45;&gt;16697 -->
<g id="edge29" class="edge">
<title>16696&#45;&gt;16697</title>
<path fill="none" stroke="black" d="M1301.16,-71.75C1298.06,-63.22 1294.92,-54.57 1292.1,-46.8"/>
<polygon fill="black" stroke="black" points="1295.46,-45.8 1288.75,-37.6 1288.88,-48.19 1295.46,-45.8"/>
</g>
<!-- 16816 -->
<g id="node31" class="node">
<title>16816</title>
<path fill="#c0c0c0" stroke="black" d="M1369,-36C1369,-36 1339,-36 1339,-36 1333,-36 1327,-30 1327,-24 1327,-24 1327,-12 1327,-12 1327,-6 1333,0 1339,0 1339,0 1369,0 1369,0 1375,0 1381,-6 1381,-12 1381,-12 1381,-24 1381,-24 1381,-30 1375,-36 1369,-36"/>
<text text-anchor="middle" x="1354" y="-13.32" font-family="Helvetica,sans-Serif" font-size="14.00">(...)</text>
</g>
<!-- 16696&#45;&gt;16816 -->
<g id="edge30" class="edge">
<title>16696&#45;&gt;16816</title>
<path fill="none" stroke="black" d="M1334.84,-71.75C1337.94,-63.22 1341.08,-54.57 1343.9,-46.8"/>
<polygon fill="black" stroke="black" points="1347.12,-48.19 1347.25,-37.6 1340.54,-45.8 1347.12,-48.19"/>
</g>
</g>
</svg>
