<?xml version="1.0" encoding="UTF-8" standalone="no"?>
<!DOCTYPE svg PUBLIC "-//W3C//DTD SVG 1.1//EN"
 "http://www.w3.org/Graphics/SVG/1.1/DTD/svg11.dtd">
<!-- Generated by graphviz version 12.0.0 (20240803.0821)
 -->
<!-- Title: Tree Pages: 1 -->
<svg width="1428pt" height="565pt"
 viewBox="0.00 0.00 1427.50 565.00" xmlns="http://www.w3.org/2000/svg" xmlns:xlink="http://www.w3.org/1999/xlink">
<g id="graph0" class="graph" transform="scale(1 1) rotate(0) translate(4 561)">
<title>Tree</title>
<polygon fill="white" stroke="none" points="-4,4 -4,-561 1423.5,-561 1423.5,4 -4,4"/>
<!-- 0 -->
<g id="node1" class="node">
<title>0</title>
<path fill="#fffefe" stroke="black" d="M812,-557C812,-557 652,-557 652,-557 646,-557 640,-551 640,-545 640,-545 640,-474.75 640,-474.75 640,-468.75 646,-462.75 652,-462.75 652,-462.75 812,-462.75 812,-462.75 818,-462.75 824,-468.75 824,-474.75 824,-474.75 824,-545 824,-545 824,-551 818,-557 812,-557"/>
<text text-anchor="middle" x="732" y="-539.7" font-family="Helvetica,sans-Serif" font-size="14.00">19_U &lt;= 0.5</text>
<text text-anchor="middle" x="732" y="-522.45" font-family="Helvetica,sans-Serif" font-size="14.00">entropy = 1.0</text>
<text text-anchor="middle" x="732" y="-505.2" font-family="Helvetica,sans-Serif" font-size="14.00">samples = 38068</text>
<text text-anchor="middle" x="732" y="-487.95" font-family="Helvetica,sans-Serif" font-size="14.00">value = [30265, 30080]</text>
<text text-anchor="middle" x="732" y="-470.7" font-family="Helvetica,sans-Serif" font-size="14.00">class = Animal</text>
</g>
<!-- 1 -->
<g id="node2" class="node">
<title>1</title>
<path fill="#dfeffb" stroke="black" d="M630,-426.75C630,-426.75 470,-426.75 470,-426.75 464,-426.75 458,-420.75 458,-414.75 458,-414.75 458,-344.5 458,-344.5 458,-338.5 464,-332.5 470,-332.5 470,-332.5 630,-332.5 630,-332.5 636,-332.5 642,-338.5 642,-344.5 642,-344.5 642,-414.75 642,-414.75 642,-420.75 636,-426.75 630,-426.75"/>
<text text-anchor="middle" x="550" y="-409.45" font-family="Helvetica,sans-Serif" font-size="14.00">9_U &lt;= 0.5</text>
<text text-anchor="middle" x="550" y="-392.2" font-family="Helvetica,sans-Serif" font-size="14.00">entropy = 0.995</text>
<text text-anchor="middle" x="550" y="-374.95" font-family="Helvetica,sans-Serif" font-size="14.00">samples = 29104</text>
<text text-anchor="middle" x="550" y="-357.7" font-family="Helvetica,sans-Serif" font-size="14.00">value = [21035, 25056]</text>
<text text-anchor="middle" x="550" y="-340.45" font-family="Helvetica,sans-Serif" font-size="14.00">class = Plant</text>
</g>
<!-- 0&#45;&gt;1 -->
<g id="edge1" class="edge">
<title>0&#45;&gt;1</title>
<path fill="none" stroke="black" d="M666.04,-462.39C652.81,-453.07 638.82,-443.22 625.31,-433.69"/>
<polygon fill="black" stroke="black" points="627.47,-430.94 617.28,-428.04 623.44,-436.66 627.47,-430.94"/>
<text text-anchor="middle" x="620.31" y="-447.12" font-family="Helvetica,sans-Serif" font-size="14.00">True</text>
</g>
<!-- 12652 -->
<g id="node17" class="node">
<title>12652</title>
<path fill="#f3c6a5" stroke="black" d="M987,-426.75C987,-426.75 845,-426.75 845,-426.75 839,-426.75 833,-420.75 833,-414.75 833,-414.75 833,-344.5 833,-344.5 833,-338.5 839,-332.5 845,-332.5 845,-332.5 987,-332.5 987,-332.5 993,-332.5 999,-338.5 999,-344.5 999,-344.5 999,-414.75 999,-414.75 999,-420.75 993,-426.75 987,-426.75"/>
<text text-anchor="middle" x="916" y="-409.45" font-family="Helvetica,sans-Serif" font-size="14.00">7_C &lt;= 0.5</text>
<text text-anchor="middle" x="916" y="-392.2" font-family="Helvetica,sans-Serif" font-size="14.00">entropy = 0.936</text>
<text text-anchor="middle" x="916" y="-374.95" font-family="Helvetica,sans-Serif" font-size="14.00">samples = 8964</text>
<text text-anchor="middle" x="916" y="-357.7" font-family="Helvetica,sans-Serif" font-size="14.00">value = [9230, 5024]</text>
<text text-anchor="middle" x="916" y="-340.45" font-family="Helvetica,sans-Serif" font-size="14.00">class = Animal</text>
</g>
<!-- 0&#45;&gt;12652 -->
<g id="edge16" class="edge">
<title>0&#45;&gt;12652</title>
<path fill="none" stroke="black" d="M798.69,-462.39C812.06,-453.07 826.2,-443.22 839.86,-433.69"/>
<polygon fill="black" stroke="black" points="841.79,-436.62 847.99,-428.03 837.78,-430.88 841.79,-436.62"/>
<text text-anchor="middle" x="844.84" y="-447.1" font-family="Helvetica,sans-Serif" font-size="14.00">False</text>
</g>
<!-- 2 -->
<g id="node3" class="node">
<title>2</title>
<path fill="#bfdff7" stroke="black" d="M352,-296.5C352,-296.5 192,-296.5 192,-296.5 186,-296.5 180,-290.5 180,-284.5 180,-284.5 180,-214.25 180,-214.25 180,-208.25 186,-202.25 192,-202.25 192,-202.25 352,-202.25 352,-202.25 358,-202.25 364,-208.25 364,-214.25 364,-214.25 364,-284.5 364,-284.5 364,-290.5 358,-296.5 352,-296.5"/>
<text text-anchor="middle" x="272" y="-279.2" font-family="Helvetica,sans-Serif" font-size="14.00">19_C &lt;= 0.5</text>
<text text-anchor="middle" x="272" y="-261.95" font-family="Helvetica,sans-Serif" font-size="14.00">entropy = 0.973</text>
<text text-anchor="middle" x="272" y="-244.7" font-family="Helvetica,sans-Serif" font-size="14.00">samples = 21173</text>
<text text-anchor="middle" x="272" y="-227.45" font-family="Helvetica,sans-Serif" font-size="14.00">value = [13542, 20026]</text>
<text text-anchor="middle" x="272" y="-210.2" font-family="Helvetica,sans-Serif" font-size="14.00">class = Plant</text>
</g>
<!-- 1&#45;&gt;2 -->
<g id="edge2" class="edge">
<title>1&#45;&gt;2</title>
<path fill="none" stroke="black" d="M457.82,-336.1C431.19,-323.81 401.96,-310.33 374.74,-297.77"/>
<polygon fill="black" stroke="black" points="376.33,-294.65 365.78,-293.64 373.4,-301.01 376.33,-294.65"/>
</g>
<!-- 9063 -->
<g id="node10" class="node">
<title>9063</title>
<path fill="#f6d6be" stroke="black" d="M621,-296.5C621,-296.5 479,-296.5 479,-296.5 473,-296.5 467,-290.5 467,-284.5 467,-284.5 467,-214.25 467,-214.25 467,-208.25 473,-202.25 479,-202.25 479,-202.25 621,-202.25 621,-202.25 627,-202.25 633,-208.25 633,-214.25 633,-214.25 633,-284.5 633,-284.5 633,-290.5 627,-296.5 621,-296.5"/>
<text text-anchor="middle" x="550" y="-279.2" font-family="Helvetica,sans-Serif" font-size="14.00">7_G &lt;= 0.5</text>
<text text-anchor="middle" x="550" y="-261.95" font-family="Helvetica,sans-Serif" font-size="14.00">entropy = 0.972</text>
<text text-anchor="middle" x="550" y="-244.7" font-family="Helvetica,sans-Serif" font-size="14.00">samples = 7931</text>
<text text-anchor="middle" x="550" y="-227.45" font-family="Helvetica,sans-Serif" font-size="14.00">value = [7493, 5030]</text>
<text text-anchor="middle" x="550" y="-210.2" font-family="Helvetica,sans-Serif" font-size="14.00">class = Animal</text>
</g>
<!-- 1&#45;&gt;9063 -->
<g id="edge9" class="edge">
<title>1&#45;&gt;9063</title>
<path fill="none" stroke="black" d="M550,-332.32C550,-324.42 550,-316.13 550,-307.98"/>
<polygon fill="black" stroke="black" points="553.5,-308.12 550,-298.12 546.5,-308.12 553.5,-308.12"/>
</g>
<!-- 3 -->
<g id="node4" class="node">
<title>3</title>
<path fill="#f0f8fd" stroke="black" d="M154,-166.25C154,-166.25 12,-166.25 12,-166.25 6,-166.25 0,-160.25 0,-154.25 0,-154.25 0,-84 0,-84 0,-78 6,-72 12,-72 12,-72 154,-72 154,-72 160,-72 166,-78 166,-84 166,-84 166,-154.25 166,-154.25 166,-160.25 160,-166.25 154,-166.25"/>
<text text-anchor="middle" x="83" y="-148.95" font-family="Helvetica,sans-Serif" font-size="14.00">13_G &lt;= 0.5</text>
<text text-anchor="middle" x="83" y="-131.7" font-family="Helvetica,sans-Serif" font-size="14.00">entropy = 0.999</text>
<text text-anchor="middle" x="83" y="-114.45" font-family="Helvetica,sans-Serif" font-size="14.00">samples = 11787</text>
<text text-anchor="middle" x="83" y="-97.2" font-family="Helvetica,sans-Serif" font-size="14.00">value = [8975, 9687]</text>
<text text-anchor="middle" x="83" y="-79.95" font-family="Helvetica,sans-Serif" font-size="14.00">class = Plant</text>
</g>
<!-- 2&#45;&gt;3 -->
<g id="edge3" class="edge">
<title>2&#45;&gt;3</title>
<path fill="none" stroke="black" d="M203.5,-201.89C189.63,-192.48 174.96,-182.53 160.8,-172.92"/>
<polygon fill="black" stroke="black" points="163.08,-170.23 152.84,-167.51 159.15,-176.03 163.08,-170.23"/>
</g>
<!-- 6032 -->
<g id="node7" class="node">
<title>6032</title>
<path fill="#90c8f0" stroke="black" d="M347.5,-166.25C347.5,-166.25 196.5,-166.25 196.5,-166.25 190.5,-166.25 184.5,-160.25 184.5,-154.25 184.5,-154.25 184.5,-84 184.5,-84 184.5,-78 190.5,-72 196.5,-72 196.5,-72 347.5,-72 347.5,-72 353.5,-72 359.5,-78 359.5,-84 359.5,-84 359.5,-154.25 359.5,-154.25 359.5,-160.25 353.5,-166.25 347.5,-166.25"/>
<text text-anchor="middle" x="272" y="-148.95" font-family="Helvetica,sans-Serif" font-size="14.00">12_G &lt;= 0.5</text>
<text text-anchor="middle" x="272" y="-131.7" font-family="Helvetica,sans-Serif" font-size="14.00">entropy = 0.889</text>
<text text-anchor="middle" x="272" y="-114.45" font-family="Helvetica,sans-Serif" font-size="14.00">samples = 9386</text>
<text text-anchor="middle" x="272" y="-97.2" font-family="Helvetica,sans-Serif" font-size="14.00">value = [4567, 10339]</text>
<text text-anchor="middle" x="272" y="-79.95" font-family="Helvetica,sans-Serif" font-size="14.00">class = Plant</text>
</g>
<!-- 2&#45;&gt;6032 -->
<g id="edge6" class="edge">
<title>2&#45;&gt;6032</title>
<path fill="none" stroke="black" d="M272,-202.07C272,-194.17 272,-185.88 272,-177.73"/>
<polygon fill="black" stroke="black" points="275.5,-177.87 272,-167.87 268.5,-177.87 275.5,-177.87"/>
</g>
<!-- 4 -->
<g id="node5" class="node">
<title>4</title>
<path fill="#c0c0c0" stroke="black" d="M62,-36C62,-36 32,-36 32,-36 26,-36 20,-30 20,-24 20,-24 20,-12 20,-12 20,-6 26,0 32,0 32,0 62,0 62,0 68,0 74,-6 74,-12 74,-12 74,-24 74,-24 74,-30 68,-36 62,-36"/>
<text text-anchor="middle" x="47" y="-13.32" font-family="Helvetica,sans-Serif" font-size="14.00">(...)</text>
</g>
<!-- 3&#45;&gt;4 -->
<g id="edge4" class="edge">
<title>3&#45;&gt;4</title>
<path fill="none" stroke="black" d="M66.16,-71.75C63.06,-63.22 59.92,-54.57 57.1,-46.8"/>
<polygon fill="black" stroke="black" points="60.46,-45.8 53.75,-37.6 53.88,-48.19 60.46,-45.8"/>
</g>
<!-- 4253 -->
<g id="node6" class="node">
<title>4253</title>
<path fill="#c0c0c0" stroke="black" d="M134,-36C134,-36 104,-36 104,-36 98,-36 92,-30 92,-24 92,-24 92,-12 92,-12 92,-6 98,0 104,0 104,0 134,0 134,0 140,0 146,-6 146,-12 146,-12 146,-24 146,-24 146,-30 140,-36 134,-36"/>
<text text-anchor="middle" x="119" y="-13.32" font-family="Helvetica,sans-Serif" font-size="14.00">(...)</text>
</g>
<!-- 3&#45;&gt;4253 -->
<g id="edge5" class="edge">
<title>3&#45;&gt;4253</title>
<path fill="none" stroke="black" d="M99.84,-71.75C102.94,-63.22 106.08,-54.57 108.9,-46.8"/>
<polygon fill="black" stroke="black" points="112.12,-48.19 112.25,-37.6 105.54,-45.8 112.12,-48.19"/>
</g>
<!-- 6033 -->
<g id="node8" class="node">
<title>6033</title>
<path fill="#c0c0c0" stroke="black" d="M258,-36C258,-36 228,-36 228,-36 222,-36 216,-30 216,-24 216,-24 216,-12 216,-12 216,-6 222,0 228,0 228,0 258,0 258,0 264,0 270,-6 270,-12 270,-12 270,-24 270,-24 270,-30 264,-36 258,-36"/>
<text text-anchor="middle" x="243" y="-13.32" font-family="Helvetica,sans-Serif" font-size="14.00">(...)</text>
</g>
<!-- 6032&#45;&gt;6033 -->
<g id="edge7" class="edge">
<title>6032&#45;&gt;6033</title>
<path fill="none" stroke="black" d="M258.43,-71.75C255.97,-63.32 253.46,-54.77 251.21,-47.07"/>
<polygon fill="black" stroke="black" points="254.62,-46.24 248.45,-37.63 247.9,-48.21 254.62,-46.24"/>
</g>
<!-- 8242 -->
<g id="node9" class="node">
<title>8242</title>
<path fill="#c0c0c0" stroke="black" d="M330,-36C330,-36 300,-36 300,-36 294,-36 288,-30 288,-24 288,-24 288,-12 288,-12 288,-6 294,0 300,0 300,0 330,0 330,0 336,0 342,-6 342,-12 342,-12 342,-24 342,-24 342,-30 336,-36 330,-36"/>
<text text-anchor="middle" x="315" y="-13.32" font-family="Helvetica,sans-Serif" font-size="14.00">(...)</text>
</g>
<!-- 6032&#45;&gt;8242 -->
<g id="edge8" class="edge">
<title>6032&#45;&gt;8242</title>
<path fill="none" stroke="black" d="M292.12,-71.75C295.86,-63.12 299.66,-54.36 303.06,-46.53"/>
<polygon fill="black" stroke="black" points="306.18,-48.13 306.95,-37.56 299.76,-45.34 306.18,-48.13"/>
</g>
<!-- 9064 -->
<g id="node11" class="node">
<title>9064</title>
<path fill="#f4c9aa" stroke="black" d="M532,-166.25C532,-166.25 390,-166.25 390,-166.25 384,-166.25 378,-160.25 378,-154.25 378,-154.25 378,-84 378,-84 378,-78 384,-72 390,-72 390,-72 532,-72 532,-72 538,-72 544,-78 544,-84 544,-84 544,-154.25 544,-154.25 544,-160.25 538,-166.25 532,-166.25"/>
<text text-anchor="middle" x="461" y="-148.95" font-family="Helvetica,sans-Serif" font-size="14.00">23_U &lt;= 0.5</text>
<text text-anchor="middle" x="461" y="-131.7" font-family="Helvetica,sans-Serif" font-size="14.00">entropy = 0.945</text>
<text text-anchor="middle" x="461" y="-114.45" font-family="Helvetica,sans-Serif" font-size="14.00">samples = 5890</text>
<text text-anchor="middle" x="461" y="-97.2" font-family="Helvetica,sans-Serif" font-size="14.00">value = [5940, 3380]</text>
<text text-anchor="middle" x="461" y="-79.95" font-family="Helvetica,sans-Serif" font-size="14.00">class = Animal</text>
</g>
<!-- 9063&#45;&gt;9064 -->
<g id="edge10" class="edge">
<title>9063&#45;&gt;9064</title>
<path fill="none" stroke="black" d="M517.87,-202.07C511.95,-193.54 505.7,-184.54 499.61,-175.77"/>
<polygon fill="black" stroke="black" points="502.52,-173.82 493.95,-167.6 496.77,-177.81 502.52,-173.82"/>
</g>
<!-- 11733 -->
<g id="node14" class="node">
<title>11733</title>
<path fill="#f3f9fd" stroke="black" d="M716,-166.25C716,-166.25 574,-166.25 574,-166.25 568,-166.25 562,-160.25 562,-154.25 562,-154.25 562,-84 562,-84 562,-78 568,-72 574,-72 574,-72 716,-72 716,-72 722,-72 728,-78 728,-84 728,-84 728,-154.25 728,-154.25 728,-160.25 722,-166.25 716,-166.25"/>
<text text-anchor="middle" x="645" y="-148.95" font-family="Helvetica,sans-Serif" font-size="14.00">21_U &lt;= 0.5</text>
<text text-anchor="middle" x="645" y="-131.7" font-family="Helvetica,sans-Serif" font-size="14.00">entropy = 0.999</text>
<text text-anchor="middle" x="645" y="-114.45" font-family="Helvetica,sans-Serif" font-size="14.00">samples = 2041</text>
<text text-anchor="middle" x="645" y="-97.2" font-family="Helvetica,sans-Serif" font-size="14.00">value = [1553, 1650]</text>
<text text-anchor="middle" x="645" y="-79.95" font-family="Helvetica,sans-Serif" font-size="14.00">class = Plant</text>
</g>
<!-- 9063&#45;&gt;11733 -->
<g id="edge13" class="edge">
<title>9063&#45;&gt;11733</title>
<path fill="none" stroke="black" d="M584.3,-202.07C590.69,-193.45 597.42,-184.35 603.99,-175.49"/>
<polygon fill="black" stroke="black" points="606.71,-177.69 609.85,-167.57 601.09,-173.53 606.71,-177.69"/>
</g>
<!-- 9065 -->
<g id="node12" class="node">
<title>9065</title>
<path fill="#c0c0c0" stroke="black" d="M424,-36C424,-36 394,-36 394,-36 388,-36 382,-30 382,-24 382,-24 382,-12 382,-12 382,-6 388,0 394,0 394,0 424,0 424,0 430,0 436,-6 436,-12 436,-12 436,-24 436,-24 436,-30 430,-36 424,-36"/>
<text text-anchor="middle" x="409" y="-13.32" font-family="Helvetica,sans-Serif" font-size="14.00">(...)</text>
</g>
<!-- 9064&#45;&gt;9065 -->
<g id="edge11" class="edge">
<title>9064&#45;&gt;9065</title>
<path fill="none" stroke="black" d="M436.67,-71.75C432.1,-63.03 427.45,-54.16 423.3,-46.26"/>
<polygon fill="black" stroke="black" points="426.46,-44.74 418.71,-37.51 420.26,-47.99 426.46,-44.74"/>
</g>
<!-- 11610 -->
<g id="node13" class="node">
<title>11610</title>
<path fill="#c0c0c0" stroke="black" d="M496,-36C496,-36 466,-36 466,-36 460,-36 454,-30 454,-24 454,-24 454,-12 454,-12 454,-6 460,0 466,0 466,0 496,0 496,0 502,0 508,-6 508,-12 508,-12 508,-24 508,-24 508,-30 502,-36 496,-36"/>
<text text-anchor="middle" x="481" y="-13.32" font-family="Helvetica,sans-Serif" font-size="14.00">(...)</text>
</g>
<!-- 9064&#45;&gt;11610 -->
<g id="edge12" class="edge">
<title>9064&#45;&gt;11610</title>
<path fill="none" stroke="black" d="M470.36,-71.75C472.04,-63.42 473.74,-54.97 475.28,-47.34"/>
<polygon fill="black" stroke="black" points="478.69,-48.15 477.24,-37.66 471.83,-46.77 478.69,-48.15"/>
</g>
<!-- 11734 -->
<g id="node15" class="node">
<title>11734</title>
<path fill="#c0c0c0" stroke="black" d="M608,-36C608,-36 578,-36 578,-36 572,-36 566,-30 566,-24 566,-24 566,-12 566,-12 566,-6 572,0 578,0 578,0 608,0 608,0 614,0 620,-6 620,-12 620,-12 620,-24 620,-24 620,-30 614,-36 608,-36"/>
<text text-anchor="middle" x="593" y="-13.32" font-family="Helvetica,sans-Serif" font-size="14.00">(...)</text>
</g>
<!-- 11733&#45;&gt;11734 -->
<g id="edge14" class="edge">
<title>11733&#45;&gt;11734</title>
<path fill="none" stroke="black" d="M620.67,-71.75C616.1,-63.03 611.45,-54.16 607.3,-46.26"/>
<polygon fill="black" stroke="black" points="610.46,-44.74 602.71,-37.51 604.26,-47.99 610.46,-44.74"/>
</g>
<!-- 12433 -->
<g id="node16" class="node">
<title>12433</title>
<path fill="#c0c0c0" stroke="black" d="M680,-36C680,-36 650,-36 650,-36 644,-36 638,-30 638,-24 638,-24 638,-12 638,-12 638,-6 644,0 650,0 650,0 680,0 680,0 686,0 692,-6 692,-12 692,-12 692,-24 692,-24 692,-30 686,-36 680,-36"/>
<text text-anchor="middle" x="665" y="-13.32" font-family="Helvetica,sans-Serif" font-size="14.00">(...)</text>
</g>
<!-- 11733&#45;&gt;12433 -->
<g id="edge15" class="edge">
<title>11733&#45;&gt;12433</title>
<path fill="none" stroke="black" d="M654.36,-71.75C656.04,-63.42 657.74,-54.97 659.28,-47.34"/>
<polygon fill="black" stroke="black" points="662.69,-48.15 661.24,-37.66 655.83,-46.77 662.69,-48.15"/>
</g>
<!-- 12653 -->
<g id="node18" class="node">
<title>12653</title>
<path fill="#f4cbad" stroke="black" d="M987,-296.5C987,-296.5 845,-296.5 845,-296.5 839,-296.5 833,-290.5 833,-284.5 833,-284.5 833,-214.25 833,-214.25 833,-208.25 839,-202.25 845,-202.25 845,-202.25 987,-202.25 987,-202.25 993,-202.25 999,-208.25 999,-214.25 999,-214.25 999,-284.5 999,-284.5 999,-290.5 993,-296.5 987,-296.5"/>
<text text-anchor="middle" x="916" y="-279.2" font-family="Helvetica,sans-Serif" font-size="14.00">22_G &lt;= 0.5</text>
<text text-anchor="middle" x="916" y="-261.95" font-family="Helvetica,sans-Serif" font-size="14.00">entropy = 0.95</text>
<text text-anchor="middle" x="916" y="-244.7" font-family="Helvetica,sans-Serif" font-size="14.00">samples = 6986</text>
<text text-anchor="middle" x="916" y="-227.45" font-family="Helvetica,sans-Serif" font-size="14.00">value = [6988, 4081]</text>
<text text-anchor="middle" x="916" y="-210.2" font-family="Helvetica,sans-Serif" font-size="14.00">class = Animal</text>
</g>
<!-- 12652&#45;&gt;12653 -->
<g id="edge17" class="edge">
<title>12652&#45;&gt;12653</title>
<path fill="none" stroke="black" d="M916,-332.32C916,-324.42 916,-316.13 916,-307.98"/>
<polygon fill="black" stroke="black" points="919.5,-308.12 916,-298.12 912.5,-308.12 919.5,-308.12"/>
</g>
<!-- 16006 -->
<g id="node25" class="node">
<title>16006</title>
<path fill="#f0b68c" stroke="black" d="M1250.5,-296.5C1250.5,-296.5 1117.5,-296.5 1117.5,-296.5 1111.5,-296.5 1105.5,-290.5 1105.5,-284.5 1105.5,-284.5 1105.5,-214.25 1105.5,-214.25 1105.5,-208.25 1111.5,-202.25 1117.5,-202.25 1117.5,-202.25 1250.5,-202.25 1250.5,-202.25 1256.5,-202.25 1262.5,-208.25 1262.5,-214.25 1262.5,-214.25 1262.5,-284.5 1262.5,-284.5 1262.5,-290.5 1256.5,-296.5 1250.5,-296.5"/>
<text text-anchor="middle" x="1184" y="-279.2" font-family="Helvetica,sans-Serif" font-size="14.00">22_A &lt;= 0.5</text>
<text text-anchor="middle" x="1184" y="-261.95" font-family="Helvetica,sans-Serif" font-size="14.00">entropy = 0.876</text>
<text text-anchor="middle" x="1184" y="-244.7" font-family="Helvetica,sans-Serif" font-size="14.00">samples = 1978</text>
<text text-anchor="middle" x="1184" y="-227.45" font-family="Helvetica,sans-Serif" font-size="14.00">value = [2242, 943]</text>
<text text-anchor="middle" x="1184" y="-210.2" font-family="Helvetica,sans-Serif" font-size="14.00">class = Animal</text>
</g>
<!-- 12652&#45;&gt;16006 -->
<g id="edge24" class="edge">
<title>12652&#45;&gt;16006</title>
<path fill="none" stroke="black" d="M999.33,-338.75C1029.7,-324.21 1064.14,-307.73 1094.99,-292.97"/>
<polygon fill="black" stroke="black" points="1096.43,-296.16 1103.94,-288.69 1093.4,-289.85 1096.43,-296.16"/>
</g>
<!-- 12654 -->
<g id="node19" class="node">
<title>12654</title>
<path fill="#f7d8c2" stroke="black" d="M900,-166.25C900,-166.25 758,-166.25 758,-166.25 752,-166.25 746,-160.25 746,-154.25 746,-154.25 746,-84 746,-84 746,-78 752,-72 758,-72 758,-72 900,-72 900,-72 906,-72 912,-78 912,-84 912,-84 912,-154.25 912,-154.25 912,-160.25 906,-166.25 900,-166.25"/>
<text text-anchor="middle" x="829" y="-148.95" font-family="Helvetica,sans-Serif" font-size="14.00">23_U &lt;= 0.5</text>
<text text-anchor="middle" x="829" y="-131.7" font-family="Helvetica,sans-Serif" font-size="14.00">entropy = 0.976</text>
<text text-anchor="middle" x="829" y="-114.45" font-family="Helvetica,sans-Serif" font-size="14.00">samples = 5845</text>
<text text-anchor="middle" x="829" y="-97.2" font-family="Helvetica,sans-Serif" font-size="14.00">value = [5479, 3779]</text>
<text text-anchor="middle" x="829" y="-79.95" font-family="Helvetica,sans-Serif" font-size="14.00">class = Animal</text>
</g>
<!-- 12653&#45;&gt;12654 -->
<g id="edge18" class="edge">
<title>12653&#45;&gt;12654</title>
<path fill="none" stroke="black" d="M884.59,-202.07C878.8,-193.54 872.7,-184.54 866.75,-175.77"/>
<polygon fill="black" stroke="black" points="869.72,-173.92 861.21,-167.61 863.93,-177.85 869.72,-173.92"/>
</g>
<!-- 15605 -->
<g id="node22" class="node">
<title>15605</title>
<path fill="#ea9a61" stroke="black" d="M1075.5,-166.25C1075.5,-166.25 942.5,-166.25 942.5,-166.25 936.5,-166.25 930.5,-160.25 930.5,-154.25 930.5,-154.25 930.5,-84 930.5,-84 930.5,-78 936.5,-72 942.5,-72 942.5,-72 1075.5,-72 1075.5,-72 1081.5,-72 1087.5,-78 1087.5,-84 1087.5,-84 1087.5,-154.25 1087.5,-154.25 1087.5,-160.25 1081.5,-166.25 1075.5,-166.25"/>
<text text-anchor="middle" x="1009" y="-148.95" font-family="Helvetica,sans-Serif" font-size="14.00">27_U &lt;= 0.5</text>
<text text-anchor="middle" x="1009" y="-131.7" font-family="Helvetica,sans-Serif" font-size="14.00">entropy = 0.65</text>
<text text-anchor="middle" x="1009" y="-114.45" font-family="Helvetica,sans-Serif" font-size="14.00">samples = 1141</text>
<text text-anchor="middle" x="1009" y="-97.2" font-family="Helvetica,sans-Serif" font-size="14.00">value = [1509, 302]</text>
<text text-anchor="middle" x="1009" y="-79.95" font-family="Helvetica,sans-Serif" font-size="14.00">class = Animal</text>
</g>
<!-- 12653&#45;&gt;15605 -->
<g id="edge21" class="edge">
<title>12653&#45;&gt;15605</title>
<path fill="none" stroke="black" d="M949.58,-202.07C955.83,-193.45 962.43,-184.35 968.85,-175.49"/>
<polygon fill="black" stroke="black" points="971.55,-177.73 974.59,-167.58 965.88,-173.62 971.55,-177.73"/>
</g>
<!-- 12655 -->
<g id="node20" class="node">
<title>12655</title>
<path fill="#c0c0c0" stroke="black" d="M790,-36C790,-36 760,-36 760,-36 754,-36 748,-30 748,-24 748,-24 748,-12 748,-12 748,-6 754,0 760,0 760,0 790,0 790,0 796,0 802,-6 802,-12 802,-12 802,-24 802,-24 802,-30 796,-36 790,-36"/>
<text text-anchor="middle" x="775" y="-13.32" font-family="Helvetica,sans-Serif" font-size="14.00">(...)</text>
</g>
<!-- 12654&#45;&gt;12655 -->
<g id="edge19" class="edge">
<title>12654&#45;&gt;12655</title>
<path fill="none" stroke="black" d="M803.74,-71.75C798.98,-63.03 794.16,-54.16 789.85,-46.26"/>
<polygon fill="black" stroke="black" points="792.94,-44.61 785.08,-37.5 786.79,-47.96 792.94,-44.61"/>
</g>
<!-- 15522 -->
<g id="node21" class="node">
<title>15522</title>
<path fill="#c0c0c0" stroke="black" d="M862,-36C862,-36 832,-36 832,-36 826,-36 820,-30 820,-24 820,-24 820,-12 820,-12 820,-6 826,0 832,0 832,0 862,0 862,0 868,0 874,-6 874,-12 874,-12 874,-24 874,-24 874,-30 868,-36 862,-36"/>
<text text-anchor="middle" x="847" y="-13.32" font-family="Helvetica,sans-Serif" font-size="14.00">(...)</text>
</g>
<!-- 12654&#45;&gt;15522 -->
<g id="edge20" class="edge">
<title>12654&#45;&gt;15522</title>
<path fill="none" stroke="black" d="M837.42,-71.75C838.93,-63.42 840.47,-54.97 841.85,-47.34"/>
<polygon fill="black" stroke="black" points="845.27,-48.13 843.61,-37.66 838.38,-46.88 845.27,-48.13"/>
</g>
<!-- 15606 -->
<g id="node23" class="node">
<title>15606</title>
<path fill="#c0c0c0" stroke="black" d="M967,-36C967,-36 937,-36 937,-36 931,-36 925,-30 925,-24 925,-24 925,-12 925,-12 925,-6 931,0 937,0 937,0 967,0 967,0 973,0 979,-6 979,-12 979,-12 979,-24 979,-24 979,-30 973,-36 967,-36"/>
<text text-anchor="middle" x="952" y="-13.32" font-family="Helvetica,sans-Serif" font-size="14.00">(...)</text>
</g>
<!-- 15605&#45;&gt;15606 -->
<g id="edge22" class="edge">
<title>15605&#45;&gt;15606</title>
<path fill="none" stroke="black" d="M982.34,-71.75C977.26,-62.93 972.1,-53.96 967.52,-45.99"/>
<polygon fill="black" stroke="black" points="970.65,-44.41 962.63,-37.48 964.58,-47.9 970.65,-44.41"/>
</g>
<!-- 16005 -->
<g id="node24" class="node">
<title>16005</title>
<path fill="#c0c0c0" stroke="black" d="M1039,-36C1039,-36 1009,-36 1009,-36 1003,-36 997,-30 997,-24 997,-24 997,-12 997,-12 997,-6 1003,0 1009,0 1009,0 1039,0 1039,0 1045,0 1051,-6 1051,-12 1051,-12 1051,-24 1051,-24 1051,-30 1045,-36 1039,-36"/>
<text text-anchor="middle" x="1024" y="-13.32" font-family="Helvetica,sans-Serif" font-size="14.00">(...)</text>
</g>
<!-- 15605&#45;&gt;16005 -->
<g id="edge23" class="edge">
<title>15605&#45;&gt;16005</title>
<path fill="none" stroke="black" d="M1016.02,-71.75C1017.28,-63.42 1018.56,-54.97 1019.71,-47.34"/>
<polygon fill="black" stroke="black" points="1023.14,-48.08 1021.17,-37.67 1016.22,-47.03 1023.14,-48.08"/>
</g>
<!-- 16007 -->
<g id="node26" class="node">
<title>16007</title>
<path fill="#f2be99" stroke="black" d="M1250.5,-166.25C1250.5,-166.25 1117.5,-166.25 1117.5,-166.25 1111.5,-166.25 1105.5,-160.25 1105.5,-154.25 1105.5,-154.25 1105.5,-84 1105.5,-84 1105.5,-78 1111.5,-72 1117.5,-72 1117.5,-72 1250.5,-72 1250.5,-72 1256.5,-72 1262.5,-78 1262.5,-84 1262.5,-84 1262.5,-154.25 1262.5,-154.25 1262.5,-160.25 1256.5,-166.25 1250.5,-166.25"/>
<text text-anchor="middle" x="1184" y="-148.95" font-family="Helvetica,sans-Serif" font-size="14.00">22_U &lt;= 0.5</text>
<text text-anchor="middle" x="1184" y="-131.7" font-family="Helvetica,sans-Serif" font-size="14.00">entropy = 0.912</text>
<text text-anchor="middle" x="1184" y="-114.45" font-family="Helvetica,sans-Serif" font-size="14.00">samples = 1707</text>
<text text-anchor="middle" x="1184" y="-97.2" font-family="Helvetica,sans-Serif" font-size="14.00">value = [1846, 898]</text>
<text text-anchor="middle" x="1184" y="-79.95" font-family="Helvetica,sans-Serif" font-size="14.00">class = Animal</text>
</g>
<!-- 16006&#45;&gt;16007 -->
<g id="edge25" class="edge">
<title>16006&#45;&gt;16007</title>
<path fill="none" stroke="black" d="M1184,-202.07C1184,-194.17 1184,-185.88 1184,-177.73"/>
<polygon fill="black" stroke="black" points="1187.5,-177.87 1184,-167.87 1180.5,-177.87 1187.5,-177.87"/>
</g>
<!-- 16876 -->
<g id="node29" class="node">
<title>16876</title>
<path fill="#e88f50" stroke="black" d="M1407.5,-166.25C1407.5,-166.25 1292.5,-166.25 1292.5,-166.25 1286.5,-166.25 1280.5,-160.25 1280.5,-154.25 1280.5,-154.25 1280.5,-84 1280.5,-84 1280.5,-78 1286.5,-72 1292.5,-72 1292.5,-72 1407.5,-72 1407.5,-72 1413.5,-72 1419.5,-78 1419.5,-84 1419.5,-84 1419.5,-154.25 1419.5,-154.25 1419.5,-160.25 1413.5,-166.25 1407.5,-166.25"/>
<text text-anchor="middle" x="1350" y="-148.95" font-family="Helvetica,sans-Serif" font-size="14.00">1_U &lt;= 0.5</text>
<text text-anchor="middle" x="1350" y="-131.7" font-family="Helvetica,sans-Serif" font-size="14.00">entropy = 0.475</text>
<text text-anchor="middle" x="1350" y="-114.45" font-family="Helvetica,sans-Serif" font-size="14.00">samples = 271</text>
<text text-anchor="middle" x="1350" y="-97.2" font-family="Helvetica,sans-Serif" font-size="14.00">value = [396, 45]</text>
<text text-anchor="middle" x="1350" y="-79.95" font-family="Helvetica,sans-Serif" font-size="14.00">class = Animal</text>
</g>
<!-- 16006&#45;&gt;16876 -->
<g id="edge28" class="edge">
<title>16006&#45;&gt;16876</title>
<path fill="none" stroke="black" d="M1243.93,-202.07C1255.96,-192.78 1268.7,-182.94 1281.01,-173.43"/>
<polygon fill="black" stroke="black" points="1282.91,-176.38 1288.68,-167.5 1278.63,-170.84 1282.91,-176.38"/>
</g>
<!-- 16008 -->
<g id="node27" class="node">
<title>16008</title>
<path fill="#c0c0c0" stroke="black" d="M1156,-36C1156,-36 1126,-36 1126,-36 1120,-36 1114,-30 1114,-24 1114,-24 1114,-12 1114,-12 1114,-6 1120,0 1126,0 1126,0 1156,0 1156,0 1162,0 1168,-6 1168,-12 1168,-12 1168,-24 1168,-24 1168,-30 1162,-36 1156,-36"/>
<text text-anchor="middle" x="1141" y="-13.32" font-family="Helvetica,sans-Serif" font-size="14.00">(...)</text>
</g>
<!-- 16007&#45;&gt;16008 -->
<g id="edge26" class="edge">
<title>16007&#45;&gt;16008</title>
<path fill="none" stroke="black" d="M1163.88,-71.75C1160.14,-63.12 1156.34,-54.36 1152.94,-46.53"/>
<polygon fill="black" stroke="black" points="1156.24,-45.34 1149.05,-37.56 1149.82,-48.13 1156.24,-45.34"/>
</g>
<!-- 16763 -->
<g id="node28" class="node">
<title>16763</title>
<path fill="#c0c0c0" stroke="black" d="M1228,-36C1228,-36 1198,-36 1198,-36 1192,-36 1186,-30 1186,-24 1186,-24 1186,-12 1186,-12 1186,-6 1192,0 1198,0 1198,0 1228,0 1228,0 1234,0 1240,-6 1240,-12 1240,-12 1240,-24 1240,-24 1240,-30 1234,-36 1228,-36"/>
<text text-anchor="middle" x="1213" y="-13.32" font-family="Helvetica,sans-Serif" font-size="14.00">(...)</text>
</g>
<!-- 16007&#45;&gt;16763 -->
<g id="edge27" class="edge">
<title>16007&#45;&gt;16763</title>
<path fill="none" stroke="black" d="M1197.57,-71.75C1200.03,-63.32 1202.54,-54.77 1204.79,-47.07"/>
<polygon fill="black" stroke="black" points="1208.1,-48.21 1207.55,-37.63 1201.38,-46.24 1208.1,-48.21"/>
</g>
<!-- 16877 -->
<g id="node30" class="node">
<title>16877</title>
<path fill="#c0c0c0" stroke="black" d="M1329,-36C1329,-36 1299,-36 1299,-36 1293,-36 1287,-30 1287,-24 1287,-24 1287,-12 1287,-12 1287,-6 1293,0 1299,0 1299,0 1329,0 1329,0 1335,0 1341,-6 1341,-12 1341,-12 1341,-24 1341,-24 1341,-30 1335,-36 1329,-36"/>
<text text-anchor="middle" x="1314" y="-13.32" font-family="Helvetica,sans-Serif" font-size="14.00">(...)</text>
</g>
<!-- 16876&#45;&gt;16877 -->
<g id="edge29" class="edge">
<title>16876&#45;&gt;16877</title>
<path fill="none" stroke="black" d="M1333.16,-71.75C1330.06,-63.22 1326.92,-54.57 1324.1,-46.8"/>
<polygon fill="black" stroke="black" points="1327.46,-45.8 1320.75,-37.6 1320.88,-48.19 1327.46,-45.8"/>
</g>
<!-- 16952 -->
<g id="node31" class="node">
<title>16952</title>
<path fill="#c0c0c0" stroke="black" d="M1401,-36C1401,-36 1371,-36 1371,-36 1365,-36 1359,-30 1359,-24 1359,-24 1359,-12 1359,-12 1359,-6 1365,0 1371,0 1371,0 1401,0 1401,0 1407,0 1413,-6 1413,-12 1413,-12 1413,-24 1413,-24 1413,-30 1407,-36 1401,-36"/>
<text text-anchor="middle" x="1386" y="-13.32" font-family="Helvetica,sans-Serif" font-size="14.00">(...)</text>
</g>
<!-- 16876&#45;&gt;16952 -->
<g id="edge30" class="edge">
<title>16876&#45;&gt;16952</title>
<path fill="none" stroke="black" d="M1366.84,-71.75C1369.94,-63.22 1373.08,-54.57 1375.9,-46.8"/>
<polygon fill="black" stroke="black" points="1379.12,-48.19 1379.25,-37.6 1372.54,-45.8 1379.12,-48.19"/>
</g>
</g>
</svg>
