<?xml version="1.0" encoding="UTF-8" standalone="no"?>
<!DOCTYPE svg PUBLIC "-//W3C//DTD SVG 1.1//EN"
 "http://www.w3.org/Graphics/SVG/1.1/DTD/svg11.dtd">
<!-- Generated by graphviz version 12.0.0 (20240803.0821)
 -->
<!-- Title: Tree Pages: 1 -->
<svg width="1419pt" height="565pt"
 viewBox="0.00 0.00 1418.50 565.00" xmlns="http://www.w3.org/2000/svg" xmlns:xlink="http://www.w3.org/1999/xlink">
<g id="graph0" class="graph" transform="scale(1 1) rotate(0) translate(4 561)">
<title>Tree</title>
<polygon fill="white" stroke="none" points="-4,4 -4,-561 1414.5,-561 1414.5,4 -4,4"/>
<!-- 0 -->
<g id="node1" class="node">
<title>0</title>
<path fill="#fffefd" stroke="black" d="M785.5,-557C785.5,-557 625.5,-557 625.5,-557 619.5,-557 613.5,-551 613.5,-545 613.5,-545 613.5,-474.75 613.5,-474.75 613.5,-468.75 619.5,-462.75 625.5,-462.75 625.5,-462.75 785.5,-462.75 785.5,-462.75 791.5,-462.75 797.5,-468.75 797.5,-474.75 797.5,-474.75 797.5,-545 797.5,-545 797.5,-551 791.5,-557 785.5,-557"/>
<text text-anchor="middle" x="705.5" y="-539.7" font-family="Helvetica,sans-Serif" font-size="14.00">1_U &lt;= 0.5</text>
<text text-anchor="middle" x="705.5" y="-522.45" font-family="Helvetica,sans-Serif" font-size="14.00">entropy = 1.0</text>
<text text-anchor="middle" x="705.5" y="-505.2" font-family="Helvetica,sans-Serif" font-size="14.00">samples = 38113</text>
<text text-anchor="middle" x="705.5" y="-487.95" font-family="Helvetica,sans-Serif" font-size="14.00">value = [30335, 30010]</text>
<text text-anchor="middle" x="705.5" y="-470.7" font-family="Helvetica,sans-Serif" font-size="14.00">class = Animal</text>
</g>
<!-- 1 -->
<g id="node2" class="node">
<title>1</title>
<path fill="#f7dac5" stroke="black" d="M612.5,-426.75C612.5,-426.75 452.5,-426.75 452.5,-426.75 446.5,-426.75 440.5,-420.75 440.5,-414.75 440.5,-414.75 440.5,-344.5 440.5,-344.5 440.5,-338.5 446.5,-332.5 452.5,-332.5 452.5,-332.5 612.5,-332.5 612.5,-332.5 618.5,-332.5 624.5,-338.5 624.5,-344.5 624.5,-344.5 624.5,-414.75 624.5,-414.75 624.5,-420.75 618.5,-426.75 612.5,-426.75"/>
<text text-anchor="middle" x="532.5" y="-409.45" font-family="Helvetica,sans-Serif" font-size="14.00">10_A &lt;= 0.5</text>
<text text-anchor="middle" x="532.5" y="-392.2" font-family="Helvetica,sans-Serif" font-size="14.00">entropy = 0.979</text>
<text text-anchor="middle" x="532.5" y="-374.95" font-family="Helvetica,sans-Serif" font-size="14.00">samples = 17834</text>
<text text-anchor="middle" x="532.5" y="-357.7" font-family="Helvetica,sans-Serif" font-size="14.00">value = [16520, 11668]</text>
<text text-anchor="middle" x="532.5" y="-340.45" font-family="Helvetica,sans-Serif" font-size="14.00">class = Animal</text>
</g>
<!-- 0&#45;&gt;1 -->
<g id="edge1" class="edge">
<title>0&#45;&gt;1</title>
<path fill="none" stroke="black" d="M643.04,-462.57C630.5,-453.28 617.23,-443.44 604.4,-433.93"/>
<polygon fill="black" stroke="black" points="606.49,-431.12 596.37,-427.97 602.32,-436.74 606.49,-431.12"/>
<text text-anchor="middle" x="598.83" y="-447.13" font-family="Helvetica,sans-Serif" font-size="14.00">True</text>
</g>
<!-- 9464 -->
<g id="node17" class="node">
<title>9464</title>
<path fill="#cee7f9" stroke="black" d="M971.5,-426.75C971.5,-426.75 811.5,-426.75 811.5,-426.75 805.5,-426.75 799.5,-420.75 799.5,-414.75 799.5,-414.75 799.5,-344.5 799.5,-344.5 799.5,-338.5 805.5,-332.5 811.5,-332.5 811.5,-332.5 971.5,-332.5 971.5,-332.5 977.5,-332.5 983.5,-338.5 983.5,-344.5 983.5,-344.5 983.5,-414.75 983.5,-414.75 983.5,-420.75 977.5,-426.75 971.5,-426.75"/>
<text text-anchor="middle" x="891.5" y="-409.45" font-family="Helvetica,sans-Serif" font-size="14.00">22_C &lt;= 0.5</text>
<text text-anchor="middle" x="891.5" y="-392.2" font-family="Helvetica,sans-Serif" font-size="14.00">entropy = 0.986</text>
<text text-anchor="middle" x="891.5" y="-374.95" font-family="Helvetica,sans-Serif" font-size="14.00">samples = 20279</text>
<text text-anchor="middle" x="891.5" y="-357.7" font-family="Helvetica,sans-Serif" font-size="14.00">value = [13815, 18342]</text>
<text text-anchor="middle" x="891.5" y="-340.45" font-family="Helvetica,sans-Serif" font-size="14.00">class = Plant</text>
</g>
<!-- 0&#45;&gt;9464 -->
<g id="edge16" class="edge">
<title>0&#45;&gt;9464</title>
<path fill="none" stroke="black" d="M772.91,-462.39C786.43,-453.07 800.73,-443.22 814.54,-433.69"/>
<polygon fill="black" stroke="black" points="816.51,-436.58 822.76,-428.02 812.54,-430.82 816.51,-436.58"/>
<text text-anchor="middle" x="819.49" y="-447.08" font-family="Helvetica,sans-Serif" font-size="14.00">False</text>
</g>
<!-- 2 -->
<g id="node3" class="node">
<title>2</title>
<path fill="#f5ceb2" stroke="black" d="M347,-296.5C347,-296.5 196,-296.5 196,-296.5 190,-296.5 184,-290.5 184,-284.5 184,-284.5 184,-214.25 184,-214.25 184,-208.25 190,-202.25 196,-202.25 196,-202.25 347,-202.25 347,-202.25 353,-202.25 359,-208.25 359,-214.25 359,-214.25 359,-284.5 359,-284.5 359,-290.5 353,-296.5 347,-296.5"/>
<text text-anchor="middle" x="271.5" y="-279.2" font-family="Helvetica,sans-Serif" font-size="14.00">22_G &lt;= 0.5</text>
<text text-anchor="middle" x="271.5" y="-261.95" font-family="Helvetica,sans-Serif" font-size="14.00">entropy = 0.957</text>
<text text-anchor="middle" x="271.5" y="-244.7" font-family="Helvetica,sans-Serif" font-size="14.00">samples = 13209</text>
<text text-anchor="middle" x="271.5" y="-227.45" font-family="Helvetica,sans-Serif" font-size="14.00">value = [12973, 7909]</text>
<text text-anchor="middle" x="271.5" y="-210.2" font-family="Helvetica,sans-Serif" font-size="14.00">class = Animal</text>
</g>
<!-- 1&#45;&gt;2 -->
<g id="edge2" class="edge">
<title>1&#45;&gt;2</title>
<path fill="none" stroke="black" d="M440.11,-333.23C417.25,-321.99 392.67,-309.92 369.55,-298.55"/>
<polygon fill="black" stroke="black" points="371.26,-295.5 360.74,-294.23 368.18,-301.78 371.26,-295.5"/>
</g>
<!-- 7223 -->
<g id="node10" class="node">
<title>7223</title>
<path fill="#f4f9fe" stroke="black" d="M603.5,-296.5C603.5,-296.5 461.5,-296.5 461.5,-296.5 455.5,-296.5 449.5,-290.5 449.5,-284.5 449.5,-284.5 449.5,-214.25 449.5,-214.25 449.5,-208.25 455.5,-202.25 461.5,-202.25 461.5,-202.25 603.5,-202.25 603.5,-202.25 609.5,-202.25 615.5,-208.25 615.5,-214.25 615.5,-214.25 615.5,-284.5 615.5,-284.5 615.5,-290.5 609.5,-296.5 603.5,-296.5"/>
<text text-anchor="middle" x="532.5" y="-279.2" font-family="Helvetica,sans-Serif" font-size="14.00">22_U &lt;= 0.5</text>
<text text-anchor="middle" x="532.5" y="-261.95" font-family="Helvetica,sans-Serif" font-size="14.00">entropy = 0.999</text>
<text text-anchor="middle" x="532.5" y="-244.7" font-family="Helvetica,sans-Serif" font-size="14.00">samples = 4625</text>
<text text-anchor="middle" x="532.5" y="-227.45" font-family="Helvetica,sans-Serif" font-size="14.00">value = [3547, 3759]</text>
<text text-anchor="middle" x="532.5" y="-210.2" font-family="Helvetica,sans-Serif" font-size="14.00">class = Plant</text>
</g>
<!-- 1&#45;&gt;7223 -->
<g id="edge9" class="edge">
<title>1&#45;&gt;7223</title>
<path fill="none" stroke="black" d="M532.5,-332.32C532.5,-324.42 532.5,-316.13 532.5,-307.98"/>
<polygon fill="black" stroke="black" points="536,-308.12 532.5,-298.12 529,-308.12 536,-308.12"/>
</g>
<!-- 3 -->
<g id="node4" class="node">
<title>3</title>
<path fill="#f6d5bc" stroke="black" d="M163,-166.25C163,-166.25 12,-166.25 12,-166.25 6,-166.25 0,-160.25 0,-154.25 0,-154.25 0,-84 0,-84 0,-78 6,-72 12,-72 12,-72 163,-72 163,-72 169,-72 175,-78 175,-84 175,-84 175,-154.25 175,-154.25 175,-160.25 169,-166.25 163,-166.25"/>
<text text-anchor="middle" x="87.5" y="-148.95" font-family="Helvetica,sans-Serif" font-size="14.00">22_A &lt;= 0.5</text>
<text text-anchor="middle" x="87.5" y="-131.7" font-family="Helvetica,sans-Serif" font-size="14.00">entropy = 0.97</text>
<text text-anchor="middle" x="87.5" y="-114.45" font-family="Helvetica,sans-Serif" font-size="14.00">samples = 11316</text>
<text text-anchor="middle" x="87.5" y="-97.2" font-family="Helvetica,sans-Serif" font-size="14.00">value = [10782, 7150]</text>
<text text-anchor="middle" x="87.5" y="-79.95" font-family="Helvetica,sans-Serif" font-size="14.00">class = Animal</text>
</g>
<!-- 2&#45;&gt;3 -->
<g id="edge3" class="edge">
<title>2&#45;&gt;3</title>
<path fill="none" stroke="black" d="M204.81,-201.89C191.44,-192.57 177.3,-182.72 163.64,-173.19"/>
<polygon fill="black" stroke="black" points="165.72,-170.38 155.51,-167.53 161.71,-176.12 165.72,-170.38"/>
</g>
<!-- 6232 -->
<g id="node7" class="node">
<title>6232</title>
<path fill="#eead7e" stroke="black" d="M338,-166.25C338,-166.25 205,-166.25 205,-166.25 199,-166.25 193,-160.25 193,-154.25 193,-154.25 193,-84 193,-84 193,-78 199,-72 205,-72 205,-72 338,-72 338,-72 344,-72 350,-78 350,-84 350,-84 350,-154.25 350,-154.25 350,-160.25 344,-166.25 338,-166.25"/>
<text text-anchor="middle" x="271.5" y="-148.95" font-family="Helvetica,sans-Serif" font-size="14.00">24_G &lt;= 0.5</text>
<text text-anchor="middle" x="271.5" y="-131.7" font-family="Helvetica,sans-Serif" font-size="14.00">entropy = 0.823</text>
<text text-anchor="middle" x="271.5" y="-114.45" font-family="Helvetica,sans-Serif" font-size="14.00">samples = 1893</text>
<text text-anchor="middle" x="271.5" y="-97.2" font-family="Helvetica,sans-Serif" font-size="14.00">value = [2191, 759]</text>
<text text-anchor="middle" x="271.5" y="-79.95" font-family="Helvetica,sans-Serif" font-size="14.00">class = Animal</text>
</g>
<!-- 2&#45;&gt;6232 -->
<g id="edge6" class="edge">
<title>2&#45;&gt;6232</title>
<path fill="none" stroke="black" d="M271.5,-202.07C271.5,-194.17 271.5,-185.88 271.5,-177.73"/>
<polygon fill="black" stroke="black" points="275,-177.87 271.5,-167.87 268,-177.87 275,-177.87"/>
</g>
<!-- 4 -->
<g id="node5" class="node">
<title>4</title>
<path fill="#c0c0c0" stroke="black" d="M66.5,-36C66.5,-36 36.5,-36 36.5,-36 30.5,-36 24.5,-30 24.5,-24 24.5,-24 24.5,-12 24.5,-12 24.5,-6 30.5,0 36.5,0 36.5,0 66.5,0 66.5,0 72.5,0 78.5,-6 78.5,-12 78.5,-12 78.5,-24 78.5,-24 78.5,-30 72.5,-36 66.5,-36"/>
<text text-anchor="middle" x="51.5" y="-13.32" font-family="Helvetica,sans-Serif" font-size="14.00">(...)</text>
</g>
<!-- 3&#45;&gt;4 -->
<g id="edge4" class="edge">
<title>3&#45;&gt;4</title>
<path fill="none" stroke="black" d="M70.66,-71.75C67.56,-63.22 64.42,-54.57 61.6,-46.8"/>
<polygon fill="black" stroke="black" points="64.96,-45.8 58.25,-37.6 58.38,-48.19 64.96,-45.8"/>
</g>
<!-- 5421 -->
<g id="node6" class="node">
<title>5421</title>
<path fill="#c0c0c0" stroke="black" d="M138.5,-36C138.5,-36 108.5,-36 108.5,-36 102.5,-36 96.5,-30 96.5,-24 96.5,-24 96.5,-12 96.5,-12 96.5,-6 102.5,0 108.5,0 108.5,0 138.5,0 138.5,0 144.5,0 150.5,-6 150.5,-12 150.5,-12 150.5,-24 150.5,-24 150.5,-30 144.5,-36 138.5,-36"/>
<text text-anchor="middle" x="123.5" y="-13.32" font-family="Helvetica,sans-Serif" font-size="14.00">(...)</text>
</g>
<!-- 3&#45;&gt;5421 -->
<g id="edge5" class="edge">
<title>3&#45;&gt;5421</title>
<path fill="none" stroke="black" d="M104.34,-71.75C107.44,-63.22 110.58,-54.57 113.4,-46.8"/>
<polygon fill="black" stroke="black" points="116.62,-48.19 116.75,-37.6 110.04,-45.8 116.62,-48.19"/>
</g>
<!-- 6233 -->
<g id="node8" class="node">
<title>6233</title>
<path fill="#c0c0c0" stroke="black" d="M247.5,-36C247.5,-36 217.5,-36 217.5,-36 211.5,-36 205.5,-30 205.5,-24 205.5,-24 205.5,-12 205.5,-12 205.5,-6 211.5,0 217.5,0 217.5,0 247.5,0 247.5,0 253.5,0 259.5,-6 259.5,-12 259.5,-12 259.5,-24 259.5,-24 259.5,-30 253.5,-36 247.5,-36"/>
<text text-anchor="middle" x="232.5" y="-13.32" font-family="Helvetica,sans-Serif" font-size="14.00">(...)</text>
</g>
<!-- 6232&#45;&gt;6233 -->
<g id="edge7" class="edge">
<title>6232&#45;&gt;6233</title>
<path fill="none" stroke="black" d="M253.26,-71.75C249.9,-63.22 246.49,-54.57 243.44,-46.8"/>
<polygon fill="black" stroke="black" points="246.73,-45.61 239.81,-37.58 240.21,-48.17 246.73,-45.61"/>
</g>
<!-- 7158 -->
<g id="node9" class="node">
<title>7158</title>
<path fill="#c0c0c0" stroke="black" d="M319.5,-36C319.5,-36 289.5,-36 289.5,-36 283.5,-36 277.5,-30 277.5,-24 277.5,-24 277.5,-12 277.5,-12 277.5,-6 283.5,0 289.5,0 289.5,0 319.5,0 319.5,0 325.5,0 331.5,-6 331.5,-12 331.5,-12 331.5,-24 331.5,-24 331.5,-30 325.5,-36 319.5,-36"/>
<text text-anchor="middle" x="304.5" y="-13.32" font-family="Helvetica,sans-Serif" font-size="14.00">(...)</text>
</g>
<!-- 6232&#45;&gt;7158 -->
<g id="edge8" class="edge">
<title>6232&#45;&gt;7158</title>
<path fill="none" stroke="black" d="M286.94,-71.75C289.74,-63.32 292.59,-54.77 295.16,-47.07"/>
<polygon fill="black" stroke="black" points="298.47,-48.2 298.3,-37.61 291.83,-45.99 298.47,-48.2"/>
</g>
<!-- 7224 -->
<g id="node11" class="node">
<title>7224</title>
<path fill="#cfe7f9" stroke="black" d="M522.5,-166.25C522.5,-166.25 380.5,-166.25 380.5,-166.25 374.5,-166.25 368.5,-160.25 368.5,-154.25 368.5,-154.25 368.5,-84 368.5,-84 368.5,-78 374.5,-72 380.5,-72 380.5,-72 522.5,-72 522.5,-72 528.5,-72 534.5,-78 534.5,-84 534.5,-84 534.5,-154.25 534.5,-154.25 534.5,-160.25 528.5,-166.25 522.5,-166.25"/>
<text text-anchor="middle" x="451.5" y="-148.95" font-family="Helvetica,sans-Serif" font-size="14.00">12_U &lt;= 0.5</text>
<text text-anchor="middle" x="451.5" y="-131.7" font-family="Helvetica,sans-Serif" font-size="14.00">entropy = 0.986</text>
<text text-anchor="middle" x="451.5" y="-114.45" font-family="Helvetica,sans-Serif" font-size="14.00">samples = 3994</text>
<text text-anchor="middle" x="451.5" y="-97.2" font-family="Helvetica,sans-Serif" font-size="14.00">value = [2727, 3603]</text>
<text text-anchor="middle" x="451.5" y="-79.95" font-family="Helvetica,sans-Serif" font-size="14.00">class = Plant</text>
</g>
<!-- 7223&#45;&gt;7224 -->
<g id="edge10" class="edge">
<title>7223&#45;&gt;7224</title>
<path fill="none" stroke="black" d="M503.26,-202.07C497.92,-193.63 492.31,-184.74 486.82,-176.05"/>
<polygon fill="black" stroke="black" points="489.81,-174.22 481.51,-167.64 483.89,-177.96 489.81,-174.22"/>
</g>
<!-- 9221 -->
<g id="node14" class="node">
<title>9221</title>
<path fill="#ea995f" stroke="black" d="M688.5,-166.25C688.5,-166.25 564.5,-166.25 564.5,-166.25 558.5,-166.25 552.5,-160.25 552.5,-154.25 552.5,-154.25 552.5,-84 552.5,-84 552.5,-78 558.5,-72 564.5,-72 564.5,-72 688.5,-72 688.5,-72 694.5,-72 700.5,-78 700.5,-84 700.5,-84 700.5,-154.25 700.5,-154.25 700.5,-160.25 694.5,-166.25 688.5,-166.25"/>
<text text-anchor="middle" x="626.5" y="-148.95" font-family="Helvetica,sans-Serif" font-size="14.00">21_C &lt;= 0.5</text>
<text text-anchor="middle" x="626.5" y="-131.7" font-family="Helvetica,sans-Serif" font-size="14.00">entropy = 0.634</text>
<text text-anchor="middle" x="626.5" y="-114.45" font-family="Helvetica,sans-Serif" font-size="14.00">samples = 631</text>
<text text-anchor="middle" x="626.5" y="-97.2" font-family="Helvetica,sans-Serif" font-size="14.00">value = [820, 156]</text>
<text text-anchor="middle" x="626.5" y="-79.95" font-family="Helvetica,sans-Serif" font-size="14.00">class = Animal</text>
</g>
<!-- 7223&#45;&gt;9221 -->
<g id="edge13" class="edge">
<title>7223&#45;&gt;9221</title>
<path fill="none" stroke="black" d="M566.44,-202.07C572.76,-193.45 579.42,-184.35 585.92,-175.49"/>
<polygon fill="black" stroke="black" points="588.63,-177.71 591.72,-167.58 582.98,-173.58 588.63,-177.71"/>
</g>
<!-- 7225 -->
<g id="node12" class="node">
<title>7225</title>
<path fill="#c0c0c0" stroke="black" d="M409.5,-36C409.5,-36 379.5,-36 379.5,-36 373.5,-36 367.5,-30 367.5,-24 367.5,-24 367.5,-12 367.5,-12 367.5,-6 373.5,0 379.5,0 379.5,0 409.5,0 409.5,0 415.5,0 421.5,-6 421.5,-12 421.5,-12 421.5,-24 421.5,-24 421.5,-30 415.5,-36 409.5,-36"/>
<text text-anchor="middle" x="394.5" y="-13.32" font-family="Helvetica,sans-Serif" font-size="14.00">(...)</text>
</g>
<!-- 7224&#45;&gt;7225 -->
<g id="edge11" class="edge">
<title>7224&#45;&gt;7225</title>
<path fill="none" stroke="black" d="M424.84,-71.75C419.76,-62.93 414.6,-53.96 410.02,-45.99"/>
<polygon fill="black" stroke="black" points="413.15,-44.41 405.13,-37.48 407.08,-47.9 413.15,-44.41"/>
</g>
<!-- 8716 -->
<g id="node13" class="node">
<title>8716</title>
<path fill="#c0c0c0" stroke="black" d="M481.5,-36C481.5,-36 451.5,-36 451.5,-36 445.5,-36 439.5,-30 439.5,-24 439.5,-24 439.5,-12 439.5,-12 439.5,-6 445.5,0 451.5,0 451.5,0 481.5,0 481.5,0 487.5,0 493.5,-6 493.5,-12 493.5,-12 493.5,-24 493.5,-24 493.5,-30 487.5,-36 481.5,-36"/>
<text text-anchor="middle" x="466.5" y="-13.32" font-family="Helvetica,sans-Serif" font-size="14.00">(...)</text>
</g>
<!-- 7224&#45;&gt;8716 -->
<g id="edge12" class="edge">
<title>7224&#45;&gt;8716</title>
<path fill="none" stroke="black" d="M458.52,-71.75C459.78,-63.42 461.06,-54.97 462.21,-47.34"/>
<polygon fill="black" stroke="black" points="465.64,-48.08 463.67,-37.67 458.72,-47.03 465.64,-48.08"/>
</g>
<!-- 9222 -->
<g id="node15" class="node">
<title>9222</title>
<path fill="#c0c0c0" stroke="black" d="M587.5,-36C587.5,-36 557.5,-36 557.5,-36 551.5,-36 545.5,-30 545.5,-24 545.5,-24 545.5,-12 545.5,-12 545.5,-6 551.5,0 557.5,0 557.5,0 587.5,0 587.5,0 593.5,0 599.5,-6 599.5,-12 599.5,-12 599.5,-24 599.5,-24 599.5,-30 593.5,-36 587.5,-36"/>
<text text-anchor="middle" x="572.5" y="-13.32" font-family="Helvetica,sans-Serif" font-size="14.00">(...)</text>
</g>
<!-- 9221&#45;&gt;9222 -->
<g id="edge14" class="edge">
<title>9221&#45;&gt;9222</title>
<path fill="none" stroke="black" d="M601.24,-71.75C596.48,-63.03 591.66,-54.16 587.35,-46.26"/>
<polygon fill="black" stroke="black" points="590.44,-44.61 582.58,-37.5 584.29,-47.96 590.44,-44.61"/>
</g>
<!-- 9403 -->
<g id="node16" class="node">
<title>9403</title>
<path fill="#c0c0c0" stroke="black" d="M659.5,-36C659.5,-36 629.5,-36 629.5,-36 623.5,-36 617.5,-30 617.5,-24 617.5,-24 617.5,-12 617.5,-12 617.5,-6 623.5,0 629.5,0 629.5,0 659.5,0 659.5,0 665.5,0 671.5,-6 671.5,-12 671.5,-12 671.5,-24 671.5,-24 671.5,-30 665.5,-36 659.5,-36"/>
<text text-anchor="middle" x="644.5" y="-13.32" font-family="Helvetica,sans-Serif" font-size="14.00">(...)</text>
</g>
<!-- 9221&#45;&gt;9403 -->
<g id="edge15" class="edge">
<title>9221&#45;&gt;9403</title>
<path fill="none" stroke="black" d="M634.92,-71.75C636.43,-63.42 637.97,-54.97 639.35,-47.34"/>
<polygon fill="black" stroke="black" points="642.77,-48.13 641.11,-37.66 635.88,-46.88 642.77,-48.13"/>
</g>
<!-- 9465 -->
<g id="node18" class="node">
<title>9465</title>
<path fill="#c2e1f7" stroke="black" d="M971.5,-296.5C971.5,-296.5 811.5,-296.5 811.5,-296.5 805.5,-296.5 799.5,-290.5 799.5,-284.5 799.5,-284.5 799.5,-214.25 799.5,-214.25 799.5,-208.25 805.5,-202.25 811.5,-202.25 811.5,-202.25 971.5,-202.25 971.5,-202.25 977.5,-202.25 983.5,-208.25 983.5,-214.25 983.5,-214.25 983.5,-284.5 983.5,-284.5 983.5,-290.5 977.5,-296.5 971.5,-296.5"/>
<text text-anchor="middle" x="891.5" y="-279.2" font-family="Helvetica,sans-Serif" font-size="14.00">22_G &lt;= 0.5</text>
<text text-anchor="middle" x="891.5" y="-261.95" font-family="Helvetica,sans-Serif" font-size="14.00">entropy = 0.976</text>
<text text-anchor="middle" x="891.5" y="-244.7" font-family="Helvetica,sans-Serif" font-size="14.00">samples = 18586</text>
<text text-anchor="middle" x="891.5" y="-227.45" font-family="Helvetica,sans-Serif" font-size="14.00">value = [12084, 17412]</text>
<text text-anchor="middle" x="891.5" y="-210.2" font-family="Helvetica,sans-Serif" font-size="14.00">class = Plant</text>
</g>
<!-- 9464&#45;&gt;9465 -->
<g id="edge17" class="edge">
<title>9464&#45;&gt;9465</title>
<path fill="none" stroke="black" d="M891.5,-332.32C891.5,-324.42 891.5,-316.13 891.5,-307.98"/>
<polygon fill="black" stroke="black" points="895,-308.12 891.5,-298.12 888,-308.12 895,-308.12"/>
</g>
<!-- 15948 -->
<g id="node25" class="node">
<title>15948</title>
<path fill="#f3c5a3" stroke="black" d="M1232,-296.5C1232,-296.5 1099,-296.5 1099,-296.5 1093,-296.5 1087,-290.5 1087,-284.5 1087,-284.5 1087,-214.25 1087,-214.25 1087,-208.25 1093,-202.25 1099,-202.25 1099,-202.25 1232,-202.25 1232,-202.25 1238,-202.25 1244,-208.25 1244,-214.25 1244,-214.25 1244,-284.5 1244,-284.5 1244,-290.5 1238,-296.5 1232,-296.5"/>
<text text-anchor="middle" x="1165.5" y="-279.2" font-family="Helvetica,sans-Serif" font-size="14.00">9_G &lt;= 0.5</text>
<text text-anchor="middle" x="1165.5" y="-261.95" font-family="Helvetica,sans-Serif" font-size="14.00">entropy = 0.934</text>
<text text-anchor="middle" x="1165.5" y="-244.7" font-family="Helvetica,sans-Serif" font-size="14.00">samples = 1693</text>
<text text-anchor="middle" x="1165.5" y="-227.45" font-family="Helvetica,sans-Serif" font-size="14.00">value = [1731, 930]</text>
<text text-anchor="middle" x="1165.5" y="-210.2" font-family="Helvetica,sans-Serif" font-size="14.00">class = Animal</text>
</g>
<!-- 9464&#45;&gt;15948 -->
<g id="edge24" class="edge">
<title>9464&#45;&gt;15948</title>
<path fill="none" stroke="black" d="M983.88,-335.38C1013.76,-321.4 1046.82,-305.92 1076.45,-292.05"/>
<polygon fill="black" stroke="black" points="1077.84,-295.27 1085.41,-287.86 1074.87,-288.93 1077.84,-295.27"/>
</g>
<!-- 9466 -->
<g id="node19" class="node">
<title>9466</title>
<path fill="#a3d2f3" stroke="black" d="M882,-166.25C882,-166.25 731,-166.25 731,-166.25 725,-166.25 719,-160.25 719,-154.25 719,-154.25 719,-84 719,-84 719,-78 725,-72 731,-72 731,-72 882,-72 882,-72 888,-72 894,-78 894,-84 894,-84 894,-154.25 894,-154.25 894,-160.25 888,-166.25 882,-166.25"/>
<text text-anchor="middle" x="806.5" y="-148.95" font-family="Helvetica,sans-Serif" font-size="14.00">9_U &lt;= 0.5</text>
<text text-anchor="middle" x="806.5" y="-131.7" font-family="Helvetica,sans-Serif" font-size="14.00">entropy = 0.934</text>
<text text-anchor="middle" x="806.5" y="-114.45" font-family="Helvetica,sans-Serif" font-size="14.00">samples = 16121</text>
<text text-anchor="middle" x="806.5" y="-97.2" font-family="Helvetica,sans-Serif" font-size="14.00">value = [8916, 16595]</text>
<text text-anchor="middle" x="806.5" y="-79.95" font-family="Helvetica,sans-Serif" font-size="14.00">class = Plant</text>
</g>
<!-- 9465&#45;&gt;9466 -->
<g id="edge18" class="edge">
<title>9465&#45;&gt;9466</title>
<path fill="none" stroke="black" d="M860.81,-202.07C855.16,-193.54 849.2,-184.54 843.38,-175.77"/>
<polygon fill="black" stroke="black" points="846.42,-174.02 837.98,-167.62 840.59,-177.89 846.42,-174.02"/>
</g>
<!-- 15157 -->
<g id="node22" class="node">
<title>15157</title>
<path fill="#eca16c" stroke="black" d="M1057,-166.25C1057,-166.25 924,-166.25 924,-166.25 918,-166.25 912,-160.25 912,-154.25 912,-154.25 912,-84 912,-84 912,-78 918,-72 924,-72 924,-72 1057,-72 1057,-72 1063,-72 1069,-78 1069,-84 1069,-84 1069,-154.25 1069,-154.25 1069,-160.25 1063,-166.25 1057,-166.25"/>
<text text-anchor="middle" x="990.5" y="-148.95" font-family="Helvetica,sans-Serif" font-size="14.00">24_A &lt;= 0.5</text>
<text text-anchor="middle" x="990.5" y="-131.7" font-family="Helvetica,sans-Serif" font-size="14.00">entropy = 0.732</text>
<text text-anchor="middle" x="990.5" y="-114.45" font-family="Helvetica,sans-Serif" font-size="14.00">samples = 2465</text>
<text text-anchor="middle" x="990.5" y="-97.2" font-family="Helvetica,sans-Serif" font-size="14.00">value = [3168, 817]</text>
<text text-anchor="middle" x="990.5" y="-79.95" font-family="Helvetica,sans-Serif" font-size="14.00">class = Animal</text>
</g>
<!-- 9465&#45;&gt;15157 -->
<g id="edge21" class="edge">
<title>9465&#45;&gt;15157</title>
<path fill="none" stroke="black" d="M927.24,-202.07C933.97,-193.36 941.07,-184.16 947.98,-175.21"/>
<polygon fill="black" stroke="black" points="950.55,-177.61 953.89,-167.56 945.01,-173.33 950.55,-177.61"/>
</g>
<!-- 9467 -->
<g id="node20" class="node">
<title>9467</title>
<path fill="#c0c0c0" stroke="black" d="M769.5,-36C769.5,-36 739.5,-36 739.5,-36 733.5,-36 727.5,-30 727.5,-24 727.5,-24 727.5,-12 727.5,-12 727.5,-6 733.5,0 739.5,0 739.5,0 769.5,0 769.5,0 775.5,0 781.5,-6 781.5,-12 781.5,-12 781.5,-24 781.5,-24 781.5,-30 775.5,-36 769.5,-36"/>
<text text-anchor="middle" x="754.5" y="-13.32" font-family="Helvetica,sans-Serif" font-size="14.00">(...)</text>
</g>
<!-- 9466&#45;&gt;9467 -->
<g id="edge19" class="edge">
<title>9466&#45;&gt;9467</title>
<path fill="none" stroke="black" d="M782.17,-71.75C777.6,-63.03 772.95,-54.16 768.8,-46.26"/>
<polygon fill="black" stroke="black" points="771.96,-44.74 764.21,-37.51 765.76,-47.99 771.96,-44.74"/>
</g>
<!-- 13496 -->
<g id="node21" class="node">
<title>13496</title>
<path fill="#c0c0c0" stroke="black" d="M841.5,-36C841.5,-36 811.5,-36 811.5,-36 805.5,-36 799.5,-30 799.5,-24 799.5,-24 799.5,-12 799.5,-12 799.5,-6 805.5,0 811.5,0 811.5,0 841.5,0 841.5,0 847.5,0 853.5,-6 853.5,-12 853.5,-12 853.5,-24 853.5,-24 853.5,-30 847.5,-36 841.5,-36"/>
<text text-anchor="middle" x="826.5" y="-13.32" font-family="Helvetica,sans-Serif" font-size="14.00">(...)</text>
</g>
<!-- 9466&#45;&gt;13496 -->
<g id="edge20" class="edge">
<title>9466&#45;&gt;13496</title>
<path fill="none" stroke="black" d="M815.86,-71.75C817.54,-63.42 819.24,-54.97 820.78,-47.34"/>
<polygon fill="black" stroke="black" points="824.19,-48.15 822.74,-37.66 817.33,-46.77 824.19,-48.15"/>
</g>
<!-- 15158 -->
<g id="node23" class="node">
<title>15158</title>
<path fill="#c0c0c0" stroke="black" d="M948.5,-36C948.5,-36 918.5,-36 918.5,-36 912.5,-36 906.5,-30 906.5,-24 906.5,-24 906.5,-12 906.5,-12 906.5,-6 912.5,0 918.5,0 918.5,0 948.5,0 948.5,0 954.5,0 960.5,-6 960.5,-12 960.5,-12 960.5,-24 960.5,-24 960.5,-30 954.5,-36 948.5,-36"/>
<text text-anchor="middle" x="933.5" y="-13.32" font-family="Helvetica,sans-Serif" font-size="14.00">(...)</text>
</g>
<!-- 15157&#45;&gt;15158 -->
<g id="edge22" class="edge">
<title>15157&#45;&gt;15158</title>
<path fill="none" stroke="black" d="M963.84,-71.75C958.76,-62.93 953.6,-53.96 949.02,-45.99"/>
<polygon fill="black" stroke="black" points="952.15,-44.41 944.13,-37.48 946.08,-47.9 952.15,-44.41"/>
</g>
<!-- 15901 -->
<g id="node24" class="node">
<title>15901</title>
<path fill="#c0c0c0" stroke="black" d="M1020.5,-36C1020.5,-36 990.5,-36 990.5,-36 984.5,-36 978.5,-30 978.5,-24 978.5,-24 978.5,-12 978.5,-12 978.5,-6 984.5,0 990.5,0 990.5,0 1020.5,0 1020.5,0 1026.5,0 1032.5,-6 1032.5,-12 1032.5,-12 1032.5,-24 1032.5,-24 1032.5,-30 1026.5,-36 1020.5,-36"/>
<text text-anchor="middle" x="1005.5" y="-13.32" font-family="Helvetica,sans-Serif" font-size="14.00">(...)</text>
</g>
<!-- 15157&#45;&gt;15901 -->
<g id="edge23" class="edge">
<title>15157&#45;&gt;15901</title>
<path fill="none" stroke="black" d="M997.52,-71.75C998.78,-63.42 1000.06,-54.97 1001.21,-47.34"/>
<polygon fill="black" stroke="black" points="1004.64,-48.08 1002.67,-37.67 997.72,-47.03 1004.64,-48.08"/>
</g>
<!-- 15949 -->
<g id="node26" class="node">
<title>15949</title>
<path fill="#f0b78d" stroke="black" d="M1232,-166.25C1232,-166.25 1099,-166.25 1099,-166.25 1093,-166.25 1087,-160.25 1087,-154.25 1087,-154.25 1087,-84 1087,-84 1087,-78 1093,-72 1099,-72 1099,-72 1232,-72 1232,-72 1238,-72 1244,-78 1244,-84 1244,-84 1244,-154.25 1244,-154.25 1244,-160.25 1238,-166.25 1232,-166.25"/>
<text text-anchor="middle" x="1165.5" y="-148.95" font-family="Helvetica,sans-Serif" font-size="14.00">11_C &lt;= 0.5</text>
<text text-anchor="middle" x="1165.5" y="-131.7" font-family="Helvetica,sans-Serif" font-size="14.00">entropy = 0.879</text>
<text text-anchor="middle" x="1165.5" y="-114.45" font-family="Helvetica,sans-Serif" font-size="14.00">samples = 1255</text>
<text text-anchor="middle" x="1165.5" y="-97.2" font-family="Helvetica,sans-Serif" font-size="14.00">value = [1391, 591]</text>
<text text-anchor="middle" x="1165.5" y="-79.95" font-family="Helvetica,sans-Serif" font-size="14.00">class = Animal</text>
</g>
<!-- 15948&#45;&gt;15949 -->
<g id="edge25" class="edge">
<title>15948&#45;&gt;15949</title>
<path fill="none" stroke="black" d="M1165.5,-202.07C1165.5,-194.17 1165.5,-185.88 1165.5,-177.73"/>
<polygon fill="black" stroke="black" points="1169,-177.87 1165.5,-167.87 1162,-177.87 1169,-177.87"/>
</g>
<!-- 16574 -->
<g id="node29" class="node">
<title>16574</title>
<path fill="#fffffe" stroke="black" d="M1398.5,-166.25C1398.5,-166.25 1274.5,-166.25 1274.5,-166.25 1268.5,-166.25 1262.5,-160.25 1262.5,-154.25 1262.5,-154.25 1262.5,-84 1262.5,-84 1262.5,-78 1268.5,-72 1274.5,-72 1274.5,-72 1398.5,-72 1398.5,-72 1404.5,-72 1410.5,-78 1410.5,-84 1410.5,-84 1410.5,-154.25 1410.5,-154.25 1410.5,-160.25 1404.5,-166.25 1398.5,-166.25"/>
<text text-anchor="middle" x="1336.5" y="-148.95" font-family="Helvetica,sans-Serif" font-size="14.00">20_G &lt;= 0.5</text>
<text text-anchor="middle" x="1336.5" y="-131.7" font-family="Helvetica,sans-Serif" font-size="14.00">entropy = 1.0</text>
<text text-anchor="middle" x="1336.5" y="-114.45" font-family="Helvetica,sans-Serif" font-size="14.00">samples = 438</text>
<text text-anchor="middle" x="1336.5" y="-97.2" font-family="Helvetica,sans-Serif" font-size="14.00">value = [340, 339]</text>
<text text-anchor="middle" x="1336.5" y="-79.95" font-family="Helvetica,sans-Serif" font-size="14.00">class = Animal</text>
</g>
<!-- 15948&#45;&gt;16574 -->
<g id="edge28" class="edge">
<title>15948&#45;&gt;16574</title>
<path fill="none" stroke="black" d="M1227.23,-202.07C1239.63,-192.78 1252.75,-182.94 1265.43,-173.43"/>
<polygon fill="black" stroke="black" points="1267.46,-176.28 1273.36,-167.48 1263.26,-170.68 1267.46,-176.28"/>
</g>
<!-- 15950 -->
<g id="node27" class="node">
<title>15950</title>
<path fill="#c0c0c0" stroke="black" d="M1139.5,-36C1139.5,-36 1109.5,-36 1109.5,-36 1103.5,-36 1097.5,-30 1097.5,-24 1097.5,-24 1097.5,-12 1097.5,-12 1097.5,-6 1103.5,0 1109.5,0 1109.5,0 1139.5,0 1139.5,0 1145.5,0 1151.5,-6 1151.5,-12 1151.5,-12 1151.5,-24 1151.5,-24 1151.5,-30 1145.5,-36 1139.5,-36"/>
<text text-anchor="middle" x="1124.5" y="-13.32" font-family="Helvetica,sans-Serif" font-size="14.00">(...)</text>
</g>
<!-- 15949&#45;&gt;15950 -->
<g id="edge26" class="edge">
<title>15949&#45;&gt;15950</title>
<path fill="none" stroke="black" d="M1146.32,-71.75C1142.79,-63.22 1139.21,-54.57 1136,-46.8"/>
<polygon fill="black" stroke="black" points="1139.24,-45.47 1132.18,-37.57 1132.77,-48.15 1139.24,-45.47"/>
</g>
<!-- 16427 -->
<g id="node28" class="node">
<title>16427</title>
<path fill="#c0c0c0" stroke="black" d="M1211.5,-36C1211.5,-36 1181.5,-36 1181.5,-36 1175.5,-36 1169.5,-30 1169.5,-24 1169.5,-24 1169.5,-12 1169.5,-12 1169.5,-6 1175.5,0 1181.5,0 1181.5,0 1211.5,0 1211.5,0 1217.5,0 1223.5,-6 1223.5,-12 1223.5,-12 1223.5,-24 1223.5,-24 1223.5,-30 1217.5,-36 1211.5,-36"/>
<text text-anchor="middle" x="1196.5" y="-13.32" font-family="Helvetica,sans-Serif" font-size="14.00">(...)</text>
</g>
<!-- 15949&#45;&gt;16427 -->
<g id="edge27" class="edge">
<title>15949&#45;&gt;16427</title>
<path fill="none" stroke="black" d="M1180,-71.75C1182.64,-63.32 1185.31,-54.77 1187.72,-47.07"/>
<polygon fill="black" stroke="black" points="1191.03,-48.21 1190.68,-37.62 1184.35,-46.12 1191.03,-48.21"/>
</g>
<!-- 16575 -->
<g id="node30" class="node">
<title>16575</title>
<path fill="#c0c0c0" stroke="black" d="M1315.5,-36C1315.5,-36 1285.5,-36 1285.5,-36 1279.5,-36 1273.5,-30 1273.5,-24 1273.5,-24 1273.5,-12 1273.5,-12 1273.5,-6 1279.5,0 1285.5,0 1285.5,0 1315.5,0 1315.5,0 1321.5,0 1327.5,-6 1327.5,-12 1327.5,-12 1327.5,-24 1327.5,-24 1327.5,-30 1321.5,-36 1315.5,-36"/>
<text text-anchor="middle" x="1300.5" y="-13.32" font-family="Helvetica,sans-Serif" font-size="14.00">(...)</text>
</g>
<!-- 16574&#45;&gt;16575 -->
<g id="edge29" class="edge">
<title>16574&#45;&gt;16575</title>
<path fill="none" stroke="black" d="M1319.66,-71.75C1316.56,-63.22 1313.42,-54.57 1310.6,-46.8"/>
<polygon fill="black" stroke="black" points="1313.96,-45.8 1307.25,-37.6 1307.38,-48.19 1313.96,-45.8"/>
</g>
<!-- 16746 -->
<g id="node31" class="node">
<title>16746</title>
<path fill="#c0c0c0" stroke="black" d="M1387.5,-36C1387.5,-36 1357.5,-36 1357.5,-36 1351.5,-36 1345.5,-30 1345.5,-24 1345.5,-24 1345.5,-12 1345.5,-12 1345.5,-6 1351.5,0 1357.5,0 1357.5,0 1387.5,0 1387.5,0 1393.5,0 1399.5,-6 1399.5,-12 1399.5,-12 1399.5,-24 1399.5,-24 1399.5,-30 1393.5,-36 1387.5,-36"/>
<text text-anchor="middle" x="1372.5" y="-13.32" font-family="Helvetica,sans-Serif" font-size="14.00">(...)</text>
</g>
<!-- 16574&#45;&gt;16746 -->
<g id="edge30" class="edge">
<title>16574&#45;&gt;16746</title>
<path fill="none" stroke="black" d="M1353.34,-71.75C1356.44,-63.22 1359.58,-54.57 1362.4,-46.8"/>
<polygon fill="black" stroke="black" points="1365.62,-48.19 1365.75,-37.6 1359.04,-45.8 1365.62,-48.19"/>
</g>
</g>
</svg>
