<?xml version="1.0" encoding="UTF-8" standalone="no"?>
<!DOCTYPE svg PUBLIC "-//W3C//DTD SVG 1.1//EN"
 "http://www.w3.org/Graphics/SVG/1.1/DTD/svg11.dtd">
<!-- Generated by graphviz version 12.0.0 (20240803.0821)
 -->
<!-- Title: Tree Pages: 1 -->
<svg width="1392pt" height="565pt"
 viewBox="0.00 0.00 1392.38 565.00" xmlns="http://www.w3.org/2000/svg" xmlns:xlink="http://www.w3.org/1999/xlink">
<g id="graph0" class="graph" transform="scale(1 1) rotate(0) translate(4 561)">
<title>Tree</title>
<polygon fill="white" stroke="none" points="-4,4 -4,-561 1388.38,-561 1388.38,4 -4,4"/>
<!-- 0 -->
<g id="node1" class="node">
<title>0</title>
<path fill="#feffff" stroke="black" d="M794,-557C794,-557 634,-557 634,-557 628,-557 622,-551 622,-545 622,-545 622,-474.75 622,-474.75 622,-468.75 628,-462.75 634,-462.75 634,-462.75 794,-462.75 794,-462.75 800,-462.75 806,-468.75 806,-474.75 806,-474.75 806,-545 806,-545 806,-551 800,-557 794,-557"/>
<text text-anchor="middle" x="714" y="-539.7" font-family="Helvetica,sans-Serif" font-size="14.00">19_U &lt;= 0.5</text>
<text text-anchor="middle" x="714" y="-522.45" font-family="Helvetica,sans-Serif" font-size="14.00">entropy = 1.0</text>
<text text-anchor="middle" x="714" y="-505.2" font-family="Helvetica,sans-Serif" font-size="14.00">samples = 38240</text>
<text text-anchor="middle" x="714" y="-487.95" font-family="Helvetica,sans-Serif" font-size="14.00">value = [30119, 30226]</text>
<text text-anchor="middle" x="714" y="-470.7" font-family="Helvetica,sans-Serif" font-size="14.00">class = Plant</text>
</g>
<!-- 1 -->
<g id="node2" class="node">
<title>1</title>
<path fill="#ddeefb" stroke="black" d="M623,-426.75C623,-426.75 463,-426.75 463,-426.75 457,-426.75 451,-420.75 451,-414.75 451,-414.75 451,-344.5 451,-344.5 451,-338.5 457,-332.5 463,-332.5 463,-332.5 623,-332.5 623,-332.5 629,-332.5 635,-338.5 635,-344.5 635,-344.5 635,-414.75 635,-414.75 635,-420.75 629,-426.75 623,-426.75"/>
<text text-anchor="middle" x="543" y="-409.45" font-family="Helvetica,sans-Serif" font-size="14.00">2_A &lt;= 0.5</text>
<text text-anchor="middle" x="543" y="-392.2" font-family="Helvetica,sans-Serif" font-size="14.00">entropy = 0.994</text>
<text text-anchor="middle" x="543" y="-374.95" font-family="Helvetica,sans-Serif" font-size="14.00">samples = 29165</text>
<text text-anchor="middle" x="543" y="-357.7" font-family="Helvetica,sans-Serif" font-size="14.00">value = [20826, 25168]</text>
<text text-anchor="middle" x="543" y="-340.45" font-family="Helvetica,sans-Serif" font-size="14.00">class = Plant</text>
</g>
<!-- 0&#45;&gt;1 -->
<g id="edge1" class="edge">
<title>0&#45;&gt;1</title>
<path fill="none" stroke="black" d="M652.27,-462.57C639.87,-453.28 626.75,-443.44 614.07,-433.93"/>
<polygon fill="black" stroke="black" points="616.24,-431.18 606.14,-427.98 612.04,-436.78 616.24,-431.18"/>
<text text-anchor="middle" x="608.47" y="-447.15" font-family="Helvetica,sans-Serif" font-size="14.00">True</text>
</g>
<!-- 12540 -->
<g id="node17" class="node">
<title>12540</title>
<path fill="#f3c6a5" stroke="black" d="M970,-426.75C970,-426.75 828,-426.75 828,-426.75 822,-426.75 816,-420.75 816,-414.75 816,-414.75 816,-344.5 816,-344.5 816,-338.5 822,-332.5 828,-332.5 828,-332.5 970,-332.5 970,-332.5 976,-332.5 982,-338.5 982,-344.5 982,-344.5 982,-414.75 982,-414.75 982,-420.75 976,-426.75 970,-426.75"/>
<text text-anchor="middle" x="899" y="-409.45" font-family="Helvetica,sans-Serif" font-size="14.00">23_U &lt;= 0.5</text>
<text text-anchor="middle" x="899" y="-392.2" font-family="Helvetica,sans-Serif" font-size="14.00">entropy = 0.936</text>
<text text-anchor="middle" x="899" y="-374.95" font-family="Helvetica,sans-Serif" font-size="14.00">samples = 9075</text>
<text text-anchor="middle" x="899" y="-357.7" font-family="Helvetica,sans-Serif" font-size="14.00">value = [9293, 5058]</text>
<text text-anchor="middle" x="899" y="-340.45" font-family="Helvetica,sans-Serif" font-size="14.00">class = Animal</text>
</g>
<!-- 0&#45;&gt;12540 -->
<g id="edge16" class="edge">
<title>0&#45;&gt;12540</title>
<path fill="none" stroke="black" d="M781.05,-462.39C794.49,-453.07 808.71,-443.22 822.45,-433.69"/>
<polygon fill="black" stroke="black" points="824.4,-436.6 830.62,-428.03 820.41,-430.85 824.4,-436.6"/>
<text text-anchor="middle" x="827.41" y="-447.09" font-family="Helvetica,sans-Serif" font-size="14.00">False</text>
</g>
<!-- 2 -->
<g id="node3" class="node">
<title>2</title>
<path fill="#c3e1f7" stroke="black" d="M356,-296.5C356,-296.5 196,-296.5 196,-296.5 190,-296.5 184,-290.5 184,-284.5 184,-284.5 184,-214.25 184,-214.25 184,-208.25 190,-202.25 196,-202.25 196,-202.25 356,-202.25 356,-202.25 362,-202.25 368,-208.25 368,-214.25 368,-214.25 368,-284.5 368,-284.5 368,-290.5 362,-296.5 356,-296.5"/>
<text text-anchor="middle" x="276" y="-279.2" font-family="Helvetica,sans-Serif" font-size="14.00">23_A &lt;= 0.5</text>
<text text-anchor="middle" x="276" y="-261.95" font-family="Helvetica,sans-Serif" font-size="14.00">entropy = 0.977</text>
<text text-anchor="middle" x="276" y="-244.7" font-family="Helvetica,sans-Serif" font-size="14.00">samples = 22641</text>
<text text-anchor="middle" x="276" y="-227.45" font-family="Helvetica,sans-Serif" font-size="14.00">value = [14662, 21043]</text>
<text text-anchor="middle" x="276" y="-210.2" font-family="Helvetica,sans-Serif" font-size="14.00">class = Plant</text>
</g>
<!-- 1&#45;&gt;2 -->
<g id="edge2" class="edge">
<title>1&#45;&gt;2</title>
<path fill="none" stroke="black" d="M450.74,-334.31C427.4,-323.1 402.18,-310.99 378.37,-299.55"/>
<polygon fill="black" stroke="black" points="380.16,-296.52 369.63,-295.35 377.13,-302.83 380.16,-296.52"/>
</g>
<!-- 9573 -->
<g id="node10" class="node">
<title>9573</title>
<path fill="#f6d5be" stroke="black" d="M614,-296.5C614,-296.5 472,-296.5 472,-296.5 466,-296.5 460,-290.5 460,-284.5 460,-284.5 460,-214.25 460,-214.25 460,-208.25 466,-202.25 472,-202.25 472,-202.25 614,-202.25 614,-202.25 620,-202.25 626,-208.25 626,-214.25 626,-214.25 626,-284.5 626,-284.5 626,-290.5 620,-296.5 614,-296.5"/>
<text text-anchor="middle" x="543" y="-279.2" font-family="Helvetica,sans-Serif" font-size="14.00">22_U &lt;= 0.5</text>
<text text-anchor="middle" x="543" y="-261.95" font-family="Helvetica,sans-Serif" font-size="14.00">entropy = 0.971</text>
<text text-anchor="middle" x="543" y="-244.7" font-family="Helvetica,sans-Serif" font-size="14.00">samples = 6524</text>
<text text-anchor="middle" x="543" y="-227.45" font-family="Helvetica,sans-Serif" font-size="14.00">value = [6164, 4125]</text>
<text text-anchor="middle" x="543" y="-210.2" font-family="Helvetica,sans-Serif" font-size="14.00">class = Animal</text>
</g>
<!-- 1&#45;&gt;9573 -->
<g id="edge9" class="edge">
<title>1&#45;&gt;9573</title>
<path fill="none" stroke="black" d="M543,-332.32C543,-324.42 543,-316.13 543,-307.98"/>
<polygon fill="black" stroke="black" points="546.5,-308.12 543,-298.12 539.5,-308.12 546.5,-308.12"/>
</g>
<!-- 3 -->
<g id="node4" class="node">
<title>3</title>
<path fill="#bddef6" stroke="black" d="M172,-166.25C172,-166.25 12,-166.25 12,-166.25 6,-166.25 0,-160.25 0,-154.25 0,-154.25 0,-84 0,-84 0,-78 6,-72 12,-72 12,-72 172,-72 172,-72 178,-72 184,-78 184,-84 184,-84 184,-154.25 184,-154.25 184,-160.25 178,-166.25 172,-166.25"/>
<text text-anchor="middle" x="92" y="-148.95" font-family="Helvetica,sans-Serif" font-size="14.00">24_U &lt;= 0.5</text>
<text text-anchor="middle" x="92" y="-131.7" font-family="Helvetica,sans-Serif" font-size="14.00">entropy = 0.971</text>
<text text-anchor="middle" x="92" y="-114.45" font-family="Helvetica,sans-Serif" font-size="14.00">samples = 21853</text>
<text text-anchor="middle" x="92" y="-97.2" font-family="Helvetica,sans-Serif" font-size="14.00">value = [13812, 20670]</text>
<text text-anchor="middle" x="92" y="-79.95" font-family="Helvetica,sans-Serif" font-size="14.00">class = Plant</text>
</g>
<!-- 2&#45;&gt;3 -->
<g id="edge3" class="edge">
<title>2&#45;&gt;3</title>
<path fill="none" stroke="black" d="M209.31,-201.89C195.94,-192.57 181.8,-182.72 168.14,-173.19"/>
<polygon fill="black" stroke="black" points="170.22,-170.38 160.01,-167.53 166.21,-176.12 170.22,-170.38"/>
</g>
<!-- 9188 -->
<g id="node7" class="node">
<title>9188</title>
<path fill="#f0b890" stroke="black" d="M338,-166.25C338,-166.25 214,-166.25 214,-166.25 208,-166.25 202,-160.25 202,-154.25 202,-154.25 202,-84 202,-84 202,-78 208,-72 214,-72 214,-72 338,-72 338,-72 344,-72 350,-78 350,-84 350,-84 350,-154.25 350,-154.25 350,-160.25 344,-166.25 338,-166.25"/>
<text text-anchor="middle" x="276" y="-148.95" font-family="Helvetica,sans-Serif" font-size="14.00">1_C &lt;= 0.5</text>
<text text-anchor="middle" x="276" y="-131.7" font-family="Helvetica,sans-Serif" font-size="14.00">entropy = 0.887</text>
<text text-anchor="middle" x="276" y="-114.45" font-family="Helvetica,sans-Serif" font-size="14.00">samples = 788</text>
<text text-anchor="middle" x="276" y="-97.2" font-family="Helvetica,sans-Serif" font-size="14.00">value = [850, 373]</text>
<text text-anchor="middle" x="276" y="-79.95" font-family="Helvetica,sans-Serif" font-size="14.00">class = Animal</text>
</g>
<!-- 2&#45;&gt;9188 -->
<g id="edge6" class="edge">
<title>2&#45;&gt;9188</title>
<path fill="none" stroke="black" d="M276,-202.07C276,-194.17 276,-185.88 276,-177.73"/>
<polygon fill="black" stroke="black" points="279.5,-177.87 276,-167.87 272.5,-177.87 279.5,-177.87"/>
</g>
<!-- 4 -->
<g id="node5" class="node">
<title>4</title>
<path fill="#c0c0c0" stroke="black" d="M71,-36C71,-36 41,-36 41,-36 35,-36 29,-30 29,-24 29,-24 29,-12 29,-12 29,-6 35,0 41,0 41,0 71,0 71,0 77,0 83,-6 83,-12 83,-12 83,-24 83,-24 83,-30 77,-36 71,-36"/>
<text text-anchor="middle" x="56" y="-13.32" font-family="Helvetica,sans-Serif" font-size="14.00">(...)</text>
</g>
<!-- 3&#45;&gt;4 -->
<g id="edge4" class="edge">
<title>3&#45;&gt;4</title>
<path fill="none" stroke="black" d="M75.16,-71.75C72.06,-63.22 68.92,-54.57 66.1,-46.8"/>
<polygon fill="black" stroke="black" points="69.46,-45.8 62.75,-37.6 62.88,-48.19 69.46,-45.8"/>
</g>
<!-- 9035 -->
<g id="node6" class="node">
<title>9035</title>
<path fill="#c0c0c0" stroke="black" d="M143,-36C143,-36 113,-36 113,-36 107,-36 101,-30 101,-24 101,-24 101,-12 101,-12 101,-6 107,0 113,0 113,0 143,0 143,0 149,0 155,-6 155,-12 155,-12 155,-24 155,-24 155,-30 149,-36 143,-36"/>
<text text-anchor="middle" x="128" y="-13.32" font-family="Helvetica,sans-Serif" font-size="14.00">(...)</text>
</g>
<!-- 3&#45;&gt;9035 -->
<g id="edge5" class="edge">
<title>3&#45;&gt;9035</title>
<path fill="none" stroke="black" d="M108.84,-71.75C111.94,-63.22 115.08,-54.57 117.9,-46.8"/>
<polygon fill="black" stroke="black" points="121.12,-48.19 121.25,-37.6 114.54,-45.8 121.12,-48.19"/>
</g>
<!-- 9189 -->
<g id="node8" class="node">
<title>9189</title>
<path fill="#c0c0c0" stroke="black" d="M254,-36C254,-36 224,-36 224,-36 218,-36 212,-30 212,-24 212,-24 212,-12 212,-12 212,-6 218,0 224,0 224,0 254,0 254,0 260,0 266,-6 266,-12 266,-12 266,-24 266,-24 266,-30 260,-36 254,-36"/>
<text text-anchor="middle" x="239" y="-13.32" font-family="Helvetica,sans-Serif" font-size="14.00">(...)</text>
</g>
<!-- 9188&#45;&gt;9189 -->
<g id="edge7" class="edge">
<title>9188&#45;&gt;9189</title>
<path fill="none" stroke="black" d="M258.69,-71.75C255.51,-63.22 252.28,-54.57 249.38,-46.8"/>
<polygon fill="black" stroke="black" points="252.72,-45.74 245.94,-37.59 246.16,-48.18 252.72,-45.74"/>
</g>
<!-- 9516 -->
<g id="node9" class="node">
<title>9516</title>
<path fill="#c0c0c0" stroke="black" d="M326,-36C326,-36 296,-36 296,-36 290,-36 284,-30 284,-24 284,-24 284,-12 284,-12 284,-6 290,0 296,0 296,0 326,0 326,0 332,0 338,-6 338,-12 338,-12 338,-24 338,-24 338,-30 332,-36 326,-36"/>
<text text-anchor="middle" x="311" y="-13.32" font-family="Helvetica,sans-Serif" font-size="14.00">(...)</text>
</g>
<!-- 9188&#45;&gt;9516 -->
<g id="edge8" class="edge">
<title>9188&#45;&gt;9516</title>
<path fill="none" stroke="black" d="M292.37,-71.75C295.39,-63.22 298.44,-54.57 301.18,-46.8"/>
<polygon fill="black" stroke="black" points="304.4,-48.19 304.43,-37.6 297.8,-45.86 304.4,-48.19"/>
</g>
<!-- 9574 -->
<g id="node11" class="node">
<title>9574</title>
<path fill="#fbebe0" stroke="black" d="M522,-166.25C522,-166.25 380,-166.25 380,-166.25 374,-166.25 368,-160.25 368,-154.25 368,-154.25 368,-84 368,-84 368,-78 374,-72 380,-72 380,-72 522,-72 522,-72 528,-72 534,-78 534,-84 534,-84 534,-154.25 534,-154.25 534,-160.25 528,-166.25 522,-166.25"/>
<text text-anchor="middle" x="451" y="-148.95" font-family="Helvetica,sans-Serif" font-size="14.00">6_A &lt;= 0.5</text>
<text text-anchor="middle" x="451" y="-131.7" font-family="Helvetica,sans-Serif" font-size="14.00">entropy = 0.995</text>
<text text-anchor="middle" x="451" y="-114.45" font-family="Helvetica,sans-Serif" font-size="14.00">samples = 5414</text>
<text text-anchor="middle" x="451" y="-97.2" font-family="Helvetica,sans-Serif" font-size="14.00">value = [4634, 3915]</text>
<text text-anchor="middle" x="451" y="-79.95" font-family="Helvetica,sans-Serif" font-size="14.00">class = Animal</text>
</g>
<!-- 9573&#45;&gt;9574 -->
<g id="edge10" class="edge">
<title>9573&#45;&gt;9574</title>
<path fill="none" stroke="black" d="M509.79,-202.07C503.6,-193.45 497.07,-184.35 490.71,-175.49"/>
<polygon fill="black" stroke="black" points="493.72,-173.67 485.05,-167.59 488.03,-177.75 493.72,-173.67"/>
</g>
<!-- 12201 -->
<g id="node14" class="node">
<title>12201</title>
<path fill="#e99254" stroke="black" d="M697.5,-166.25C697.5,-166.25 564.5,-166.25 564.5,-166.25 558.5,-166.25 552.5,-160.25 552.5,-154.25 552.5,-154.25 552.5,-84 552.5,-84 552.5,-78 558.5,-72 564.5,-72 564.5,-72 697.5,-72 697.5,-72 703.5,-72 709.5,-78 709.5,-84 709.5,-84 709.5,-154.25 709.5,-154.25 709.5,-160.25 703.5,-166.25 697.5,-166.25"/>
<text text-anchor="middle" x="631" y="-148.95" font-family="Helvetica,sans-Serif" font-size="14.00">9_U &lt;= 0.5</text>
<text text-anchor="middle" x="631" y="-131.7" font-family="Helvetica,sans-Serif" font-size="14.00">entropy = 0.531</text>
<text text-anchor="middle" x="631" y="-114.45" font-family="Helvetica,sans-Serif" font-size="14.00">samples = 1110</text>
<text text-anchor="middle" x="631" y="-97.2" font-family="Helvetica,sans-Serif" font-size="14.00">value = [1530, 210]</text>
<text text-anchor="middle" x="631" y="-79.95" font-family="Helvetica,sans-Serif" font-size="14.00">class = Animal</text>
</g>
<!-- 9573&#45;&gt;12201 -->
<g id="edge13" class="edge">
<title>9573&#45;&gt;12201</title>
<path fill="none" stroke="black" d="M574.77,-202.07C580.63,-193.54 586.8,-184.54 592.82,-175.77"/>
<polygon fill="black" stroke="black" points="595.65,-177.83 598.42,-167.61 589.88,-173.87 595.65,-177.83"/>
</g>
<!-- 9575 -->
<g id="node12" class="node">
<title>9575</title>
<path fill="#c0c0c0" stroke="black" d="M431,-36C431,-36 401,-36 401,-36 395,-36 389,-30 389,-24 389,-24 389,-12 389,-12 389,-6 395,0 401,0 401,0 431,0 431,0 437,0 443,-6 443,-12 443,-12 443,-24 443,-24 443,-30 437,-36 431,-36"/>
<text text-anchor="middle" x="416" y="-13.32" font-family="Helvetica,sans-Serif" font-size="14.00">(...)</text>
</g>
<!-- 9574&#45;&gt;9575 -->
<g id="edge11" class="edge">
<title>9574&#45;&gt;9575</title>
<path fill="none" stroke="black" d="M434.63,-71.75C431.61,-63.22 428.56,-54.57 425.82,-46.8"/>
<polygon fill="black" stroke="black" points="429.2,-45.86 422.57,-37.6 422.6,-48.19 429.2,-45.86"/>
</g>
<!-- 11628 -->
<g id="node13" class="node">
<title>11628</title>
<path fill="#c0c0c0" stroke="black" d="M503,-36C503,-36 473,-36 473,-36 467,-36 461,-30 461,-24 461,-24 461,-12 461,-12 461,-6 467,0 473,0 473,0 503,0 503,0 509,0 515,-6 515,-12 515,-12 515,-24 515,-24 515,-30 509,-36 503,-36"/>
<text text-anchor="middle" x="488" y="-13.32" font-family="Helvetica,sans-Serif" font-size="14.00">(...)</text>
</g>
<!-- 9574&#45;&gt;11628 -->
<g id="edge12" class="edge">
<title>9574&#45;&gt;11628</title>
<path fill="none" stroke="black" d="M468.31,-71.75C471.49,-63.22 474.72,-54.57 477.62,-46.8"/>
<polygon fill="black" stroke="black" points="480.84,-48.18 481.06,-37.59 474.28,-45.74 480.84,-48.18"/>
</g>
<!-- 12202 -->
<g id="node15" class="node">
<title>12202</title>
<path fill="#c0c0c0" stroke="black" d="M592,-36C592,-36 562,-36 562,-36 556,-36 550,-30 550,-24 550,-24 550,-12 550,-12 550,-6 556,0 562,0 562,0 592,0 592,0 598,0 604,-6 604,-12 604,-12 604,-24 604,-24 604,-30 598,-36 592,-36"/>
<text text-anchor="middle" x="577" y="-13.32" font-family="Helvetica,sans-Serif" font-size="14.00">(...)</text>
</g>
<!-- 12201&#45;&gt;12202 -->
<g id="edge14" class="edge">
<title>12201&#45;&gt;12202</title>
<path fill="none" stroke="black" d="M605.74,-71.75C600.98,-63.03 596.16,-54.16 591.85,-46.26"/>
<polygon fill="black" stroke="black" points="594.94,-44.61 587.08,-37.5 588.79,-47.96 594.94,-44.61"/>
</g>
<!-- 12459 -->
<g id="node16" class="node">
<title>12459</title>
<path fill="#c0c0c0" stroke="black" d="M664,-36C664,-36 634,-36 634,-36 628,-36 622,-30 622,-24 622,-24 622,-12 622,-12 622,-6 628,0 634,0 634,0 664,0 664,0 670,0 676,-6 676,-12 676,-12 676,-24 676,-24 676,-30 670,-36 664,-36"/>
<text text-anchor="middle" x="649" y="-13.32" font-family="Helvetica,sans-Serif" font-size="14.00">(...)</text>
</g>
<!-- 12201&#45;&gt;12459 -->
<g id="edge15" class="edge">
<title>12201&#45;&gt;12459</title>
<path fill="none" stroke="black" d="M639.42,-71.75C640.93,-63.42 642.47,-54.97 643.85,-47.34"/>
<polygon fill="black" stroke="black" points="647.27,-48.13 645.61,-37.66 640.38,-46.88 647.27,-48.13"/>
</g>
<!-- 12541 -->
<g id="node18" class="node">
<title>12541</title>
<path fill="#f4cbad" stroke="black" d="M970,-296.5C970,-296.5 828,-296.5 828,-296.5 822,-296.5 816,-290.5 816,-284.5 816,-284.5 816,-214.25 816,-214.25 816,-208.25 822,-202.25 828,-202.25 828,-202.25 970,-202.25 970,-202.25 976,-202.25 982,-208.25 982,-214.25 982,-214.25 982,-284.5 982,-284.5 982,-290.5 976,-296.5 970,-296.5"/>
<text text-anchor="middle" x="899" y="-279.2" font-family="Helvetica,sans-Serif" font-size="14.00">1_A &lt;= 0.5</text>
<text text-anchor="middle" x="899" y="-261.95" font-family="Helvetica,sans-Serif" font-size="14.00">entropy = 0.95</text>
<text text-anchor="middle" x="899" y="-244.7" font-family="Helvetica,sans-Serif" font-size="14.00">samples = 8436</text>
<text text-anchor="middle" x="899" y="-227.45" font-family="Helvetica,sans-Serif" font-size="14.00">value = [8420, 4923]</text>
<text text-anchor="middle" x="899" y="-210.2" font-family="Helvetica,sans-Serif" font-size="14.00">class = Animal</text>
</g>
<!-- 12540&#45;&gt;12541 -->
<g id="edge17" class="edge">
<title>12540&#45;&gt;12541</title>
<path fill="none" stroke="black" d="M899,-332.32C899,-324.42 899,-316.13 899,-307.98"/>
<polygon fill="black" stroke="black" points="902.5,-308.12 899,-298.12 895.5,-308.12 902.5,-308.12"/>
</g>
<!-- 16766 -->
<g id="node25" class="node">
<title>16766</title>
<path fill="#e99458" stroke="black" d="M1224,-296.5C1224,-296.5 1100,-296.5 1100,-296.5 1094,-296.5 1088,-290.5 1088,-284.5 1088,-284.5 1088,-214.25 1088,-214.25 1088,-208.25 1094,-202.25 1100,-202.25 1100,-202.25 1224,-202.25 1224,-202.25 1230,-202.25 1236,-208.25 1236,-214.25 1236,-214.25 1236,-284.5 1236,-284.5 1236,-290.5 1230,-296.5 1224,-296.5"/>
<text text-anchor="middle" x="1162" y="-279.2" font-family="Helvetica,sans-Serif" font-size="14.00">25_A &lt;= 0.5</text>
<text text-anchor="middle" x="1162" y="-261.95" font-family="Helvetica,sans-Serif" font-size="14.00">entropy = 0.568</text>
<text text-anchor="middle" x="1162" y="-244.7" font-family="Helvetica,sans-Serif" font-size="14.00">samples = 639</text>
<text text-anchor="middle" x="1162" y="-227.45" font-family="Helvetica,sans-Serif" font-size="14.00">value = [873, 135]</text>
<text text-anchor="middle" x="1162" y="-210.2" font-family="Helvetica,sans-Serif" font-size="14.00">class = Animal</text>
</g>
<!-- 12540&#45;&gt;16766 -->
<g id="edge24" class="edge">
<title>12540&#45;&gt;16766</title>
<path fill="none" stroke="black" d="M982.21,-338.05C1012.64,-323.21 1047.06,-306.42 1077.59,-291.54"/>
<polygon fill="black" stroke="black" points="1078.96,-294.76 1086.42,-287.23 1075.89,-288.47 1078.96,-294.76"/>
</g>
<!-- 12542 -->
<g id="node19" class="node">
<title>12542</title>
<path fill="#f6d4bc" stroke="black" d="M882,-166.25C882,-166.25 740,-166.25 740,-166.25 734,-166.25 728,-160.25 728,-154.25 728,-154.25 728,-84 728,-84 728,-78 734,-72 740,-72 740,-72 882,-72 882,-72 888,-72 894,-78 894,-84 894,-84 894,-154.25 894,-154.25 894,-160.25 888,-166.25 882,-166.25"/>
<text text-anchor="middle" x="811" y="-148.95" font-family="Helvetica,sans-Serif" font-size="14.00">1_C &lt;= 0.5</text>
<text text-anchor="middle" x="811" y="-131.7" font-family="Helvetica,sans-Serif" font-size="14.00">entropy = 0.969</text>
<text text-anchor="middle" x="811" y="-114.45" font-family="Helvetica,sans-Serif" font-size="14.00">samples = 6438</text>
<text text-anchor="middle" x="811" y="-97.2" font-family="Helvetica,sans-Serif" font-size="14.00">value = [6121, 4039]</text>
<text text-anchor="middle" x="811" y="-79.95" font-family="Helvetica,sans-Serif" font-size="14.00">class = Animal</text>
</g>
<!-- 12541&#45;&gt;12542 -->
<g id="edge18" class="edge">
<title>12541&#45;&gt;12542</title>
<path fill="none" stroke="black" d="M867.23,-202.07C861.37,-193.54 855.2,-184.54 849.18,-175.77"/>
<polygon fill="black" stroke="black" points="852.12,-173.87 843.58,-167.61 846.35,-177.83 852.12,-173.87"/>
</g>
<!-- 15751 -->
<g id="node22" class="node">
<title>15751</title>
<path fill="#efb185" stroke="black" d="M1057.5,-166.25C1057.5,-166.25 924.5,-166.25 924.5,-166.25 918.5,-166.25 912.5,-160.25 912.5,-154.25 912.5,-154.25 912.5,-84 912.5,-84 912.5,-78 918.5,-72 924.5,-72 924.5,-72 1057.5,-72 1057.5,-72 1063.5,-72 1069.5,-78 1069.5,-84 1069.5,-84 1069.5,-154.25 1069.5,-154.25 1069.5,-160.25 1063.5,-166.25 1057.5,-166.25"/>
<text text-anchor="middle" x="991" y="-148.95" font-family="Helvetica,sans-Serif" font-size="14.00">8_G &lt;= 0.5</text>
<text text-anchor="middle" x="991" y="-131.7" font-family="Helvetica,sans-Serif" font-size="14.00">entropy = 0.852</text>
<text text-anchor="middle" x="991" y="-114.45" font-family="Helvetica,sans-Serif" font-size="14.00">samples = 1998</text>
<text text-anchor="middle" x="991" y="-97.2" font-family="Helvetica,sans-Serif" font-size="14.00">value = [2299, 884]</text>
<text text-anchor="middle" x="991" y="-79.95" font-family="Helvetica,sans-Serif" font-size="14.00">class = Animal</text>
</g>
<!-- 12541&#45;&gt;15751 -->
<g id="edge21" class="edge">
<title>12541&#45;&gt;15751</title>
<path fill="none" stroke="black" d="M932.21,-202.07C938.4,-193.45 944.93,-184.35 951.29,-175.49"/>
<polygon fill="black" stroke="black" points="953.97,-177.75 956.95,-167.59 948.28,-173.67 953.97,-177.75"/>
</g>
<!-- 12543 -->
<g id="node20" class="node">
<title>12543</title>
<path fill="#c0c0c0" stroke="black" d="M772,-36C772,-36 742,-36 742,-36 736,-36 730,-30 730,-24 730,-24 730,-12 730,-12 730,-6 736,0 742,0 742,0 772,0 772,0 778,0 784,-6 784,-12 784,-12 784,-24 784,-24 784,-30 778,-36 772,-36"/>
<text text-anchor="middle" x="757" y="-13.32" font-family="Helvetica,sans-Serif" font-size="14.00">(...)</text>
</g>
<!-- 12542&#45;&gt;12543 -->
<g id="edge19" class="edge">
<title>12542&#45;&gt;12543</title>
<path fill="none" stroke="black" d="M785.74,-71.75C780.98,-63.03 776.16,-54.16 771.85,-46.26"/>
<polygon fill="black" stroke="black" points="774.94,-44.61 767.08,-37.5 768.79,-47.96 774.94,-44.61"/>
</g>
<!-- 14962 -->
<g id="node21" class="node">
<title>14962</title>
<path fill="#c0c0c0" stroke="black" d="M844,-36C844,-36 814,-36 814,-36 808,-36 802,-30 802,-24 802,-24 802,-12 802,-12 802,-6 808,0 814,0 814,0 844,0 844,0 850,0 856,-6 856,-12 856,-12 856,-24 856,-24 856,-30 850,-36 844,-36"/>
<text text-anchor="middle" x="829" y="-13.32" font-family="Helvetica,sans-Serif" font-size="14.00">(...)</text>
</g>
<!-- 12542&#45;&gt;14962 -->
<g id="edge20" class="edge">
<title>12542&#45;&gt;14962</title>
<path fill="none" stroke="black" d="M819.42,-71.75C820.93,-63.42 822.47,-54.97 823.85,-47.34"/>
<polygon fill="black" stroke="black" points="827.27,-48.13 825.61,-37.66 820.38,-46.88 827.27,-48.13"/>
</g>
<!-- 15752 -->
<g id="node23" class="node">
<title>15752</title>
<path fill="#c0c0c0" stroke="black" d="M947,-36C947,-36 917,-36 917,-36 911,-36 905,-30 905,-24 905,-24 905,-12 905,-12 905,-6 911,0 917,0 917,0 947,0 947,0 953,0 959,-6 959,-12 959,-12 959,-24 959,-24 959,-30 953,-36 947,-36"/>
<text text-anchor="middle" x="932" y="-13.32" font-family="Helvetica,sans-Serif" font-size="14.00">(...)</text>
</g>
<!-- 15751&#45;&gt;15752 -->
<g id="edge22" class="edge">
<title>15751&#45;&gt;15752</title>
<path fill="none" stroke="black" d="M963.4,-71.75C958.15,-62.93 952.81,-53.96 948.06,-45.99"/>
<polygon fill="black" stroke="black" points="951.12,-44.28 943,-37.47 945.1,-47.86 951.12,-44.28"/>
</g>
<!-- 16499 -->
<g id="node24" class="node">
<title>16499</title>
<path fill="#c0c0c0" stroke="black" d="M1019,-36C1019,-36 989,-36 989,-36 983,-36 977,-30 977,-24 977,-24 977,-12 977,-12 977,-6 983,0 989,0 989,0 1019,0 1019,0 1025,0 1031,-6 1031,-12 1031,-12 1031,-24 1031,-24 1031,-30 1025,-36 1019,-36"/>
<text text-anchor="middle" x="1004" y="-13.32" font-family="Helvetica,sans-Serif" font-size="14.00">(...)</text>
</g>
<!-- 15751&#45;&gt;16499 -->
<g id="edge23" class="edge">
<title>15751&#45;&gt;16499</title>
<path fill="none" stroke="black" d="M997.08,-71.75C998.17,-63.42 999.28,-54.97 1000.28,-47.34"/>
<polygon fill="black" stroke="black" points="1003.72,-48.04 1001.55,-37.67 996.78,-47.13 1003.72,-48.04"/>
</g>
<!-- 16767 -->
<g id="node26" class="node">
<title>16767</title>
<path fill="#e99254" stroke="black" d="M1224,-166.25C1224,-166.25 1100,-166.25 1100,-166.25 1094,-166.25 1088,-160.25 1088,-154.25 1088,-154.25 1088,-84 1088,-84 1088,-78 1094,-72 1100,-72 1100,-72 1224,-72 1224,-72 1230,-72 1236,-78 1236,-84 1236,-84 1236,-154.25 1236,-154.25 1236,-160.25 1230,-166.25 1224,-166.25"/>
<text text-anchor="middle" x="1162" y="-148.95" font-family="Helvetica,sans-Serif" font-size="14.00">24_A &lt;= 0.5</text>
<text text-anchor="middle" x="1162" y="-131.7" font-family="Helvetica,sans-Serif" font-size="14.00">entropy = 0.527</text>
<text text-anchor="middle" x="1162" y="-114.45" font-family="Helvetica,sans-Serif" font-size="14.00">samples = 624</text>
<text text-anchor="middle" x="1162" y="-97.2" font-family="Helvetica,sans-Serif" font-size="14.00">value = [864, 117]</text>
<text text-anchor="middle" x="1162" y="-79.95" font-family="Helvetica,sans-Serif" font-size="14.00">class = Animal</text>
</g>
<!-- 16766&#45;&gt;16767 -->
<g id="edge25" class="edge">
<title>16766&#45;&gt;16767</title>
<path fill="none" stroke="black" d="M1162,-202.07C1162,-194.17 1162,-185.88 1162,-177.73"/>
<polygon fill="black" stroke="black" points="1165.5,-177.87 1162,-167.87 1158.5,-177.87 1165.5,-177.87"/>
</g>
<!-- 16962 -->
<g id="node29" class="node">
<title>16962</title>
<path fill="#9ccef2" stroke="black" d="M1372.38,-166.25C1372.38,-166.25 1265.62,-166.25 1265.62,-166.25 1259.62,-166.25 1253.62,-160.25 1253.62,-154.25 1253.62,-154.25 1253.62,-84 1253.62,-84 1253.62,-78 1259.62,-72 1265.62,-72 1265.62,-72 1372.38,-72 1372.38,-72 1378.38,-72 1384.38,-78 1384.38,-84 1384.38,-84 1384.38,-154.25 1384.38,-154.25 1384.38,-160.25 1378.38,-166.25 1372.38,-166.25"/>
<text text-anchor="middle" x="1319" y="-148.95" font-family="Helvetica,sans-Serif" font-size="14.00">4_G &lt;= 0.5</text>
<text text-anchor="middle" x="1319" y="-131.7" font-family="Helvetica,sans-Serif" font-size="14.00">entropy = 0.918</text>
<text text-anchor="middle" x="1319" y="-114.45" font-family="Helvetica,sans-Serif" font-size="14.00">samples = 15</text>
<text text-anchor="middle" x="1319" y="-97.2" font-family="Helvetica,sans-Serif" font-size="14.00">value = [9, 18]</text>
<text text-anchor="middle" x="1319" y="-79.95" font-family="Helvetica,sans-Serif" font-size="14.00">class = Plant</text>
</g>
<!-- 16766&#45;&gt;16962 -->
<g id="edge28" class="edge">
<title>16766&#45;&gt;16962</title>
<path fill="none" stroke="black" d="M1218.68,-202.07C1229.95,-192.87 1241.87,-183.13 1253.41,-173.71"/>
<polygon fill="black" stroke="black" points="1255.44,-176.57 1260.97,-167.53 1251.01,-171.15 1255.44,-176.57"/>
</g>
<!-- 16768 -->
<g id="node27" class="node">
<title>16768</title>
<path fill="#c0c0c0" stroke="black" d="M1129,-36C1129,-36 1099,-36 1099,-36 1093,-36 1087,-30 1087,-24 1087,-24 1087,-12 1087,-12 1087,-6 1093,0 1099,0 1099,0 1129,0 1129,0 1135,0 1141,-6 1141,-12 1141,-12 1141,-24 1141,-24 1141,-30 1135,-36 1129,-36"/>
<text text-anchor="middle" x="1114" y="-13.32" font-family="Helvetica,sans-Serif" font-size="14.00">(...)</text>
</g>
<!-- 16767&#45;&gt;16768 -->
<g id="edge26" class="edge">
<title>16767&#45;&gt;16768</title>
<path fill="none" stroke="black" d="M1139.55,-71.75C1135.37,-63.12 1131.12,-54.36 1127.33,-46.53"/>
<polygon fill="black" stroke="black" points="1130.48,-45.01 1122.98,-37.53 1124.18,-48.06 1130.48,-45.01"/>
</g>
<!-- 16945 -->
<g id="node28" class="node">
<title>16945</title>
<path fill="#c0c0c0" stroke="black" d="M1201,-36C1201,-36 1171,-36 1171,-36 1165,-36 1159,-30 1159,-24 1159,-24 1159,-12 1159,-12 1159,-6 1165,0 1171,0 1171,0 1201,0 1201,0 1207,0 1213,-6 1213,-12 1213,-12 1213,-24 1213,-24 1213,-30 1207,-36 1201,-36"/>
<text text-anchor="middle" x="1186" y="-13.32" font-family="Helvetica,sans-Serif" font-size="14.00">(...)</text>
</g>
<!-- 16767&#45;&gt;16945 -->
<g id="edge27" class="edge">
<title>16767&#45;&gt;16945</title>
<path fill="none" stroke="black" d="M1173.23,-71.75C1175.24,-63.42 1177.29,-54.97 1179.14,-47.34"/>
<polygon fill="black" stroke="black" points="1182.53,-48.19 1181.49,-37.64 1175.73,-46.54 1182.53,-48.19"/>
</g>
<!-- 16963 -->
<g id="node30" class="node">
<title>16963</title>
<path fill="#c0c0c0" stroke="black" d="M1298,-36C1298,-36 1268,-36 1268,-36 1262,-36 1256,-30 1256,-24 1256,-24 1256,-12 1256,-12 1256,-6 1262,0 1268,0 1268,0 1298,0 1298,0 1304,0 1310,-6 1310,-12 1310,-12 1310,-24 1310,-24 1310,-30 1304,-36 1298,-36"/>
<text text-anchor="middle" x="1283" y="-13.32" font-family="Helvetica,sans-Serif" font-size="14.00">(...)</text>
</g>
<!-- 16962&#45;&gt;16963 -->
<g id="edge29" class="edge">
<title>16962&#45;&gt;16963</title>
<path fill="none" stroke="black" d="M1302.16,-71.75C1299.06,-63.22 1295.92,-54.57 1293.1,-46.8"/>
<polygon fill="black" stroke="black" points="1296.46,-45.8 1289.75,-37.6 1289.88,-48.19 1296.46,-45.8"/>
</g>
<!-- 16970 -->
<g id="node31" class="node">
<title>16970</title>
<path fill="#c0c0c0" stroke="black" d="M1370,-36C1370,-36 1340,-36 1340,-36 1334,-36 1328,-30 1328,-24 1328,-24 1328,-12 1328,-12 1328,-6 1334,0 1340,0 1340,0 1370,0 1370,0 1376,0 1382,-6 1382,-12 1382,-12 1382,-24 1382,-24 1382,-30 1376,-36 1370,-36"/>
<text text-anchor="middle" x="1355" y="-13.32" font-family="Helvetica,sans-Serif" font-size="14.00">(...)</text>
</g>
<!-- 16962&#45;&gt;16970 -->
<g id="edge30" class="edge">
<title>16962&#45;&gt;16970</title>
<path fill="none" stroke="black" d="M1335.84,-71.75C1338.94,-63.22 1342.08,-54.57 1344.9,-46.8"/>
<polygon fill="black" stroke="black" points="1348.12,-48.19 1348.25,-37.6 1341.54,-45.8 1348.12,-48.19"/>
</g>
</g>
</svg>
