<?xml version="1.0" encoding="UTF-8" standalone="no"?>
<!DOCTYPE svg PUBLIC "-//W3C//DTD SVG 1.1//EN"
 "http://www.w3.org/Graphics/SVG/1.1/DTD/svg11.dtd">
<!-- Generated by graphviz version 12.0.0 (20240803.0821)
 -->
<!-- Title: Tree Pages: 1 -->
<svg width="1428pt" height="565pt"
 viewBox="0.00 0.00 1428.00 565.00" xmlns="http://www.w3.org/2000/svg" xmlns:xlink="http://www.w3.org/1999/xlink">
<g id="graph0" class="graph" transform="scale(1 1) rotate(0) translate(4 561)">
<title>Tree</title>
<polygon fill="white" stroke="none" points="-4,4 -4,-561 1424,-561 1424,4 -4,4"/>
<!-- 0 -->
<g id="node1" class="node">
<title>0</title>
<path fill="#fefeff" stroke="black" d="M791,-557C791,-557 631,-557 631,-557 625,-557 619,-551 619,-545 619,-545 619,-474.75 619,-474.75 619,-468.75 625,-462.75 631,-462.75 631,-462.75 791,-462.75 791,-462.75 797,-462.75 803,-468.75 803,-474.75 803,-474.75 803,-545 803,-545 803,-551 797,-557 791,-557"/>
<text text-anchor="middle" x="711" y="-539.7" font-family="Helvetica,sans-Serif" font-size="14.00">19_C &lt;= 0.5</text>
<text text-anchor="middle" x="711" y="-522.45" font-family="Helvetica,sans-Serif" font-size="14.00">entropy = 1.0</text>
<text text-anchor="middle" x="711" y="-505.2" font-family="Helvetica,sans-Serif" font-size="14.00">samples = 38004</text>
<text text-anchor="middle" x="711" y="-487.95" font-family="Helvetica,sans-Serif" font-size="14.00">value = [30082, 30263]</text>
<text text-anchor="middle" x="711" y="-470.7" font-family="Helvetica,sans-Serif" font-size="14.00">class = Plant</text>
</g>
<!-- 1 -->
<g id="node2" class="node">
<title>1</title>
<path fill="#f9e1cf" stroke="black" d="M623,-426.75C623,-426.75 463,-426.75 463,-426.75 457,-426.75 451,-420.75 451,-414.75 451,-414.75 451,-344.5 451,-344.5 451,-338.5 457,-332.5 463,-332.5 463,-332.5 623,-332.5 623,-332.5 629,-332.5 635,-338.5 635,-344.5 635,-344.5 635,-414.75 635,-414.75 635,-420.75 629,-426.75 623,-426.75"/>
<text text-anchor="middle" x="543" y="-409.45" font-family="Helvetica,sans-Serif" font-size="14.00">22_U &lt;= 0.5</text>
<text text-anchor="middle" x="543" y="-392.2" font-family="Helvetica,sans-Serif" font-size="14.00">entropy = 0.986</text>
<text text-anchor="middle" x="543" y="-374.95" font-family="Helvetica,sans-Serif" font-size="14.00">samples = 25706</text>
<text text-anchor="middle" x="543" y="-357.7" font-family="Helvetica,sans-Serif" font-size="14.00">value = [23195, 17611]</text>
<text text-anchor="middle" x="543" y="-340.45" font-family="Helvetica,sans-Serif" font-size="14.00">class = Animal</text>
</g>
<!-- 0&#45;&gt;1 -->
<g id="edge1" class="edge">
<title>0&#45;&gt;1</title>
<path fill="none" stroke="black" d="M650.35,-462.57C638.17,-453.28 625.28,-443.44 612.82,-433.93"/>
<polygon fill="black" stroke="black" points="615.12,-431.28 605.05,-427.99 610.87,-436.84 615.12,-431.28"/>
<text text-anchor="middle" x="607.17" y="-447.18" font-family="Helvetica,sans-Serif" font-size="14.00">True</text>
</g>
<!-- 12488 -->
<g id="node17" class="node">
<title>12488</title>
<path fill="#a5d2f3" stroke="black" d="M973.5,-426.75C973.5,-426.75 822.5,-426.75 822.5,-426.75 816.5,-426.75 810.5,-420.75 810.5,-414.75 810.5,-414.75 810.5,-344.5 810.5,-344.5 810.5,-338.5 816.5,-332.5 822.5,-332.5 822.5,-332.5 973.5,-332.5 973.5,-332.5 979.5,-332.5 985.5,-338.5 985.5,-344.5 985.5,-344.5 985.5,-414.75 985.5,-414.75 985.5,-420.75 979.5,-426.75 973.5,-426.75"/>
<text text-anchor="middle" x="898" y="-409.45" font-family="Helvetica,sans-Serif" font-size="14.00">4_U &lt;= 0.5</text>
<text text-anchor="middle" x="898" y="-392.2" font-family="Helvetica,sans-Serif" font-size="14.00">entropy = 0.936</text>
<text text-anchor="middle" x="898" y="-374.95" font-family="Helvetica,sans-Serif" font-size="14.00">samples = 12298</text>
<text text-anchor="middle" x="898" y="-357.7" font-family="Helvetica,sans-Serif" font-size="14.00">value = [6887, 12652]</text>
<text text-anchor="middle" x="898" y="-340.45" font-family="Helvetica,sans-Serif" font-size="14.00">class = Plant</text>
</g>
<!-- 0&#45;&gt;12488 -->
<g id="edge16" class="edge">
<title>0&#45;&gt;12488</title>
<path fill="none" stroke="black" d="M778.78,-462.39C792.49,-452.98 807.01,-443.03 821.02,-433.42"/>
<polygon fill="black" stroke="black" points="822.63,-436.56 828.89,-428.02 818.67,-430.79 822.63,-436.56"/>
<text text-anchor="middle" x="825.56" y="-447.07" font-family="Helvetica,sans-Serif" font-size="14.00">False</text>
</g>
<!-- 2 -->
<g id="node3" class="node">
<title>2</title>
<path fill="#fdf4ed" stroke="black" d="M361,-296.5C361,-296.5 201,-296.5 201,-296.5 195,-296.5 189,-290.5 189,-284.5 189,-284.5 189,-214.25 189,-214.25 189,-208.25 195,-202.25 201,-202.25 201,-202.25 361,-202.25 361,-202.25 367,-202.25 373,-208.25 373,-214.25 373,-214.25 373,-284.5 373,-284.5 373,-290.5 367,-296.5 361,-296.5"/>
<text text-anchor="middle" x="281" y="-279.2" font-family="Helvetica,sans-Serif" font-size="14.00">23_U &lt;= 0.5</text>
<text text-anchor="middle" x="281" y="-261.95" font-family="Helvetica,sans-Serif" font-size="14.00">entropy = 0.998</text>
<text text-anchor="middle" x="281" y="-244.7" font-family="Helvetica,sans-Serif" font-size="14.00">samples = 21886</text>
<text text-anchor="middle" x="281" y="-227.45" font-family="Helvetica,sans-Serif" font-size="14.00">value = [18165, 16549]</text>
<text text-anchor="middle" x="281" y="-210.2" font-family="Helvetica,sans-Serif" font-size="14.00">class = Animal</text>
</g>
<!-- 1&#45;&gt;2 -->
<g id="edge2" class="edge">
<title>1&#45;&gt;2</title>
<path fill="none" stroke="black" d="M450.63,-333.41C428.91,-322.78 405.63,-311.38 383.5,-300.55"/>
<polygon fill="black" stroke="black" points="385.3,-297.53 374.78,-296.28 382.22,-303.82 385.3,-297.53"/>
</g>
<!-- 11051 -->
<g id="node10" class="node">
<title>11051</title>
<path fill="#ea9c63" stroke="black" d="M614,-296.5C614,-296.5 472,-296.5 472,-296.5 466,-296.5 460,-290.5 460,-284.5 460,-284.5 460,-214.25 460,-214.25 460,-208.25 466,-202.25 472,-202.25 472,-202.25 614,-202.25 614,-202.25 620,-202.25 626,-208.25 626,-214.25 626,-214.25 626,-284.5 626,-284.5 626,-290.5 620,-296.5 614,-296.5"/>
<text text-anchor="middle" x="543" y="-279.2" font-family="Helvetica,sans-Serif" font-size="14.00">19_G &lt;= 0.5</text>
<text text-anchor="middle" x="543" y="-261.95" font-family="Helvetica,sans-Serif" font-size="14.00">entropy = 0.668</text>
<text text-anchor="middle" x="543" y="-244.7" font-family="Helvetica,sans-Serif" font-size="14.00">samples = 3820</text>
<text text-anchor="middle" x="543" y="-227.45" font-family="Helvetica,sans-Serif" font-size="14.00">value = [5030, 1062]</text>
<text text-anchor="middle" x="543" y="-210.2" font-family="Helvetica,sans-Serif" font-size="14.00">class = Animal</text>
</g>
<!-- 1&#45;&gt;11051 -->
<g id="edge9" class="edge">
<title>1&#45;&gt;11051</title>
<path fill="none" stroke="black" d="M543,-332.32C543,-324.42 543,-316.13 543,-307.98"/>
<polygon fill="black" stroke="black" points="546.5,-308.12 543,-298.12 539.5,-308.12 546.5,-308.12"/>
</g>
<!-- 3 -->
<g id="node4" class="node">
<title>3</title>
<path fill="#fefdfb" stroke="black" d="M172,-166.25C172,-166.25 12,-166.25 12,-166.25 6,-166.25 0,-160.25 0,-154.25 0,-154.25 0,-84 0,-84 0,-78 6,-72 12,-72 12,-72 172,-72 172,-72 178,-72 184,-78 184,-84 184,-84 184,-154.25 184,-154.25 184,-160.25 178,-166.25 172,-166.25"/>
<text text-anchor="middle" x="92" y="-148.95" font-family="Helvetica,sans-Serif" font-size="14.00">10_A &lt;= 0.5</text>
<text text-anchor="middle" x="92" y="-131.7" font-family="Helvetica,sans-Serif" font-size="14.00">entropy = 1.0</text>
<text text-anchor="middle" x="92" y="-114.45" font-family="Helvetica,sans-Serif" font-size="14.00">samples = 20697</text>
<text text-anchor="middle" x="92" y="-97.2" font-family="Helvetica,sans-Serif" font-size="14.00">value = [16562, 16236]</text>
<text text-anchor="middle" x="92" y="-79.95" font-family="Helvetica,sans-Serif" font-size="14.00">class = Animal</text>
</g>
<!-- 2&#45;&gt;3 -->
<g id="edge3" class="edge">
<title>2&#45;&gt;3</title>
<path fill="none" stroke="black" d="M212.5,-201.89C198.63,-192.48 183.96,-182.53 169.8,-172.92"/>
<polygon fill="black" stroke="black" points="172.08,-170.23 161.84,-167.51 168.15,-176.03 172.08,-170.23"/>
</g>
<!-- 10626 -->
<g id="node7" class="node">
<title>10626</title>
<path fill="#ea9a60" stroke="black" d="M347.5,-166.25C347.5,-166.25 214.5,-166.25 214.5,-166.25 208.5,-166.25 202.5,-160.25 202.5,-154.25 202.5,-154.25 202.5,-84 202.5,-84 202.5,-78 208.5,-72 214.5,-72 214.5,-72 347.5,-72 347.5,-72 353.5,-72 359.5,-78 359.5,-84 359.5,-84 359.5,-154.25 359.5,-154.25 359.5,-160.25 353.5,-166.25 347.5,-166.25"/>
<text text-anchor="middle" x="281" y="-148.95" font-family="Helvetica,sans-Serif" font-size="14.00">10_U &lt;= 0.5</text>
<text text-anchor="middle" x="281" y="-131.7" font-family="Helvetica,sans-Serif" font-size="14.00">entropy = 0.642</text>
<text text-anchor="middle" x="281" y="-114.45" font-family="Helvetica,sans-Serif" font-size="14.00">samples = 1189</text>
<text text-anchor="middle" x="281" y="-97.2" font-family="Helvetica,sans-Serif" font-size="14.00">value = [1603, 313]</text>
<text text-anchor="middle" x="281" y="-79.95" font-family="Helvetica,sans-Serif" font-size="14.00">class = Animal</text>
</g>
<!-- 2&#45;&gt;10626 -->
<g id="edge6" class="edge">
<title>2&#45;&gt;10626</title>
<path fill="none" stroke="black" d="M281,-202.07C281,-194.17 281,-185.88 281,-177.73"/>
<polygon fill="black" stroke="black" points="284.5,-177.87 281,-167.87 277.5,-177.87 284.5,-177.87"/>
</g>
<!-- 4 -->
<g id="node5" class="node">
<title>4</title>
<path fill="#c0c0c0" stroke="black" d="M71,-36C71,-36 41,-36 41,-36 35,-36 29,-30 29,-24 29,-24 29,-12 29,-12 29,-6 35,0 41,0 41,0 71,0 71,0 77,0 83,-6 83,-12 83,-12 83,-24 83,-24 83,-30 77,-36 71,-36"/>
<text text-anchor="middle" x="56" y="-13.32" font-family="Helvetica,sans-Serif" font-size="14.00">(...)</text>
</g>
<!-- 3&#45;&gt;4 -->
<g id="edge4" class="edge">
<title>3&#45;&gt;4</title>
<path fill="none" stroke="black" d="M75.16,-71.75C72.06,-63.22 68.92,-54.57 66.1,-46.8"/>
<polygon fill="black" stroke="black" points="69.46,-45.8 62.75,-37.6 62.88,-48.19 69.46,-45.8"/>
</g>
<!-- 7963 -->
<g id="node6" class="node">
<title>7963</title>
<path fill="#c0c0c0" stroke="black" d="M143,-36C143,-36 113,-36 113,-36 107,-36 101,-30 101,-24 101,-24 101,-12 101,-12 101,-6 107,0 113,0 113,0 143,0 143,0 149,0 155,-6 155,-12 155,-12 155,-24 155,-24 155,-30 149,-36 143,-36"/>
<text text-anchor="middle" x="128" y="-13.32" font-family="Helvetica,sans-Serif" font-size="14.00">(...)</text>
</g>
<!-- 3&#45;&gt;7963 -->
<g id="edge5" class="edge">
<title>3&#45;&gt;7963</title>
<path fill="none" stroke="black" d="M108.84,-71.75C111.94,-63.22 115.08,-54.57 117.9,-46.8"/>
<polygon fill="black" stroke="black" points="121.12,-48.19 121.25,-37.6 114.54,-45.8 121.12,-48.19"/>
</g>
<!-- 10627 -->
<g id="node8" class="node">
<title>10627</title>
<path fill="#c0c0c0" stroke="black" d="M255,-36C255,-36 225,-36 225,-36 219,-36 213,-30 213,-24 213,-24 213,-12 213,-12 213,-6 219,0 225,0 225,0 255,0 255,0 261,0 267,-6 267,-12 267,-12 267,-24 267,-24 267,-30 261,-36 255,-36"/>
<text text-anchor="middle" x="240" y="-13.32" font-family="Helvetica,sans-Serif" font-size="14.00">(...)</text>
</g>
<!-- 10626&#45;&gt;10627 -->
<g id="edge7" class="edge">
<title>10626&#45;&gt;10627</title>
<path fill="none" stroke="black" d="M261.82,-71.75C258.29,-63.22 254.71,-54.57 251.5,-46.8"/>
<polygon fill="black" stroke="black" points="254.74,-45.47 247.68,-37.57 248.27,-48.15 254.74,-45.47"/>
</g>
<!-- 10950 -->
<g id="node9" class="node">
<title>10950</title>
<path fill="#c0c0c0" stroke="black" d="M327,-36C327,-36 297,-36 297,-36 291,-36 285,-30 285,-24 285,-24 285,-12 285,-12 285,-6 291,0 297,0 297,0 327,0 327,0 333,0 339,-6 339,-12 339,-12 339,-24 339,-24 339,-30 333,-36 327,-36"/>
<text text-anchor="middle" x="312" y="-13.32" font-family="Helvetica,sans-Serif" font-size="14.00">(...)</text>
</g>
<!-- 10626&#45;&gt;10950 -->
<g id="edge8" class="edge">
<title>10626&#45;&gt;10950</title>
<path fill="none" stroke="black" d="M295.5,-71.75C298.14,-63.32 300.81,-54.77 303.22,-47.07"/>
<polygon fill="black" stroke="black" points="306.53,-48.21 306.18,-37.62 299.85,-46.12 306.53,-48.21"/>
</g>
<!-- 11052 -->
<g id="node11" class="node">
<title>11052</title>
<path fill="#e99559" stroke="black" d="M522.5,-166.25C522.5,-166.25 389.5,-166.25 389.5,-166.25 383.5,-166.25 377.5,-160.25 377.5,-154.25 377.5,-154.25 377.5,-84 377.5,-84 377.5,-78 383.5,-72 389.5,-72 389.5,-72 522.5,-72 522.5,-72 528.5,-72 534.5,-78 534.5,-84 534.5,-84 534.5,-154.25 534.5,-154.25 534.5,-160.25 528.5,-166.25 522.5,-166.25"/>
<text text-anchor="middle" x="456" y="-148.95" font-family="Helvetica,sans-Serif" font-size="14.00">18_G &lt;= 0.5</text>
<text text-anchor="middle" x="456" y="-131.7" font-family="Helvetica,sans-Serif" font-size="14.00">entropy = 0.581</text>
<text text-anchor="middle" x="456" y="-114.45" font-family="Helvetica,sans-Serif" font-size="14.00">samples = 2393</text>
<text text-anchor="middle" x="456" y="-97.2" font-family="Helvetica,sans-Serif" font-size="14.00">value = [3271, 527]</text>
<text text-anchor="middle" x="456" y="-79.95" font-family="Helvetica,sans-Serif" font-size="14.00">class = Animal</text>
</g>
<!-- 11051&#45;&gt;11052 -->
<g id="edge10" class="edge">
<title>11051&#45;&gt;11052</title>
<path fill="none" stroke="black" d="M511.59,-202.07C505.8,-193.54 499.7,-184.54 493.75,-175.77"/>
<polygon fill="black" stroke="black" points="496.72,-173.92 488.21,-167.61 490.93,-177.85 496.72,-173.92"/>
</g>
<!-- 11937 -->
<g id="node14" class="node">
<title>11937</title>
<path fill="#eda775" stroke="black" d="M697.5,-166.25C697.5,-166.25 564.5,-166.25 564.5,-166.25 558.5,-166.25 552.5,-160.25 552.5,-154.25 552.5,-154.25 552.5,-84 552.5,-84 552.5,-78 558.5,-72 564.5,-72 564.5,-72 697.5,-72 697.5,-72 703.5,-72 709.5,-78 709.5,-84 709.5,-84 709.5,-154.25 709.5,-154.25 709.5,-160.25 703.5,-166.25 697.5,-166.25"/>
<text text-anchor="middle" x="631" y="-148.95" font-family="Helvetica,sans-Serif" font-size="14.00">5_A &lt;= 0.5</text>
<text text-anchor="middle" x="631" y="-131.7" font-family="Helvetica,sans-Serif" font-size="14.00">entropy = 0.784</text>
<text text-anchor="middle" x="631" y="-114.45" font-family="Helvetica,sans-Serif" font-size="14.00">samples = 1427</text>
<text text-anchor="middle" x="631" y="-97.2" font-family="Helvetica,sans-Serif" font-size="14.00">value = [1759, 535]</text>
<text text-anchor="middle" x="631" y="-79.95" font-family="Helvetica,sans-Serif" font-size="14.00">class = Animal</text>
</g>
<!-- 11051&#45;&gt;11937 -->
<g id="edge13" class="edge">
<title>11051&#45;&gt;11937</title>
<path fill="none" stroke="black" d="M574.77,-202.07C580.63,-193.54 586.8,-184.54 592.82,-175.77"/>
<polygon fill="black" stroke="black" points="595.65,-177.83 598.42,-167.61 589.88,-173.87 595.65,-177.83"/>
</g>
<!-- 11053 -->
<g id="node12" class="node">
<title>11053</title>
<path fill="#c0c0c0" stroke="black" d="M414,-36C414,-36 384,-36 384,-36 378,-36 372,-30 372,-24 372,-24 372,-12 372,-12 372,-6 378,0 384,0 384,0 414,0 414,0 420,0 426,-6 426,-12 426,-12 426,-24 426,-24 426,-30 420,-36 414,-36"/>
<text text-anchor="middle" x="399" y="-13.32" font-family="Helvetica,sans-Serif" font-size="14.00">(...)</text>
</g>
<!-- 11052&#45;&gt;11053 -->
<g id="edge11" class="edge">
<title>11052&#45;&gt;11053</title>
<path fill="none" stroke="black" d="M429.34,-71.75C424.26,-62.93 419.1,-53.96 414.52,-45.99"/>
<polygon fill="black" stroke="black" points="417.65,-44.41 409.63,-37.48 411.58,-47.9 417.65,-44.41"/>
</g>
<!-- 11682 -->
<g id="node13" class="node">
<title>11682</title>
<path fill="#c0c0c0" stroke="black" d="M486,-36C486,-36 456,-36 456,-36 450,-36 444,-30 444,-24 444,-24 444,-12 444,-12 444,-6 450,0 456,0 456,0 486,0 486,0 492,0 498,-6 498,-12 498,-12 498,-24 498,-24 498,-30 492,-36 486,-36"/>
<text text-anchor="middle" x="471" y="-13.32" font-family="Helvetica,sans-Serif" font-size="14.00">(...)</text>
</g>
<!-- 11052&#45;&gt;11682 -->
<g id="edge12" class="edge">
<title>11052&#45;&gt;11682</title>
<path fill="none" stroke="black" d="M463.02,-71.75C464.28,-63.42 465.56,-54.97 466.71,-47.34"/>
<polygon fill="black" stroke="black" points="470.14,-48.08 468.17,-37.67 463.22,-47.03 470.14,-48.08"/>
</g>
<!-- 11938 -->
<g id="node15" class="node">
<title>11938</title>
<path fill="#c0c0c0" stroke="black" d="M592,-36C592,-36 562,-36 562,-36 556,-36 550,-30 550,-24 550,-24 550,-12 550,-12 550,-6 556,0 562,0 562,0 592,0 592,0 598,0 604,-6 604,-12 604,-12 604,-24 604,-24 604,-30 598,-36 592,-36"/>
<text text-anchor="middle" x="577" y="-13.32" font-family="Helvetica,sans-Serif" font-size="14.00">(...)</text>
</g>
<!-- 11937&#45;&gt;11938 -->
<g id="edge14" class="edge">
<title>11937&#45;&gt;11938</title>
<path fill="none" stroke="black" d="M605.74,-71.75C600.98,-63.03 596.16,-54.16 591.85,-46.26"/>
<polygon fill="black" stroke="black" points="594.94,-44.61 587.08,-37.5 588.79,-47.96 594.94,-44.61"/>
</g>
<!-- 12353 -->
<g id="node16" class="node">
<title>12353</title>
<path fill="#c0c0c0" stroke="black" d="M664,-36C664,-36 634,-36 634,-36 628,-36 622,-30 622,-24 622,-24 622,-12 622,-12 622,-6 628,0 634,0 634,0 664,0 664,0 670,0 676,-6 676,-12 676,-12 676,-24 676,-24 676,-30 670,-36 664,-36"/>
<text text-anchor="middle" x="649" y="-13.32" font-family="Helvetica,sans-Serif" font-size="14.00">(...)</text>
</g>
<!-- 11937&#45;&gt;12353 -->
<g id="edge15" class="edge">
<title>11937&#45;&gt;12353</title>
<path fill="none" stroke="black" d="M639.42,-71.75C640.93,-63.42 642.47,-54.97 643.85,-47.34"/>
<polygon fill="black" stroke="black" points="647.27,-48.13 645.61,-37.66 640.38,-46.88 647.27,-48.13"/>
</g>
<!-- 12489 -->
<g id="node18" class="node">
<title>12489</title>
<path fill="#90c8f0" stroke="black" d="M973.5,-296.5C973.5,-296.5 822.5,-296.5 822.5,-296.5 816.5,-296.5 810.5,-290.5 810.5,-284.5 810.5,-284.5 810.5,-214.25 810.5,-214.25 810.5,-208.25 816.5,-202.25 822.5,-202.25 822.5,-202.25 973.5,-202.25 973.5,-202.25 979.5,-202.25 985.5,-208.25 985.5,-214.25 985.5,-214.25 985.5,-284.5 985.5,-284.5 985.5,-290.5 979.5,-296.5 973.5,-296.5"/>
<text text-anchor="middle" x="898" y="-279.2" font-family="Helvetica,sans-Serif" font-size="14.00">2_U &lt;= 0.5</text>
<text text-anchor="middle" x="898" y="-261.95" font-family="Helvetica,sans-Serif" font-size="14.00">entropy = 0.887</text>
<text text-anchor="middle" x="898" y="-244.7" font-family="Helvetica,sans-Serif" font-size="14.00">samples = 10572</text>
<text text-anchor="middle" x="898" y="-227.45" font-family="Helvetica,sans-Serif" font-size="14.00">value = [5106, 11638]</text>
<text text-anchor="middle" x="898" y="-210.2" font-family="Helvetica,sans-Serif" font-size="14.00">class = Plant</text>
</g>
<!-- 12488&#45;&gt;12489 -->
<g id="edge17" class="edge">
<title>12488&#45;&gt;12489</title>
<path fill="none" stroke="black" d="M898,-332.32C898,-324.42 898,-316.13 898,-307.98"/>
<polygon fill="black" stroke="black" points="901.5,-308.12 898,-298.12 894.5,-308.12 901.5,-308.12"/>
</g>
<!-- 15772 -->
<g id="node25" class="node">
<title>15772</title>
<path fill="#f4c9aa" stroke="black" d="M1246,-296.5C1246,-296.5 1104,-296.5 1104,-296.5 1098,-296.5 1092,-290.5 1092,-284.5 1092,-284.5 1092,-214.25 1092,-214.25 1092,-208.25 1098,-202.25 1104,-202.25 1104,-202.25 1246,-202.25 1246,-202.25 1252,-202.25 1258,-208.25 1258,-214.25 1258,-214.25 1258,-284.5 1258,-284.5 1258,-290.5 1252,-296.5 1246,-296.5"/>
<text text-anchor="middle" x="1175" y="-279.2" font-family="Helvetica,sans-Serif" font-size="14.00">2_A &lt;= 0.5</text>
<text text-anchor="middle" x="1175" y="-261.95" font-family="Helvetica,sans-Serif" font-size="14.00">entropy = 0.945</text>
<text text-anchor="middle" x="1175" y="-244.7" font-family="Helvetica,sans-Serif" font-size="14.00">samples = 1726</text>
<text text-anchor="middle" x="1175" y="-227.45" font-family="Helvetica,sans-Serif" font-size="14.00">value = [1781, 1014]</text>
<text text-anchor="middle" x="1175" y="-210.2" font-family="Helvetica,sans-Serif" font-size="14.00">class = Animal</text>
</g>
<!-- 12488&#45;&gt;15772 -->
<g id="edge24" class="edge">
<title>12488&#45;&gt;15772</title>
<path fill="none" stroke="black" d="M985.64,-338.05C1016.12,-323.94 1050.41,-308.06 1081.35,-293.74"/>
<polygon fill="black" stroke="black" points="1082.73,-296.95 1090.33,-289.58 1079.78,-290.6 1082.73,-296.95"/>
</g>
<!-- 12490 -->
<g id="node19" class="node">
<title>12490</title>
<path fill="#9dcef2" stroke="black" d="M882,-166.25C882,-166.25 740,-166.25 740,-166.25 734,-166.25 728,-160.25 728,-154.25 728,-154.25 728,-84 728,-84 728,-78 734,-72 740,-72 740,-72 882,-72 882,-72 888,-72 894,-78 894,-84 894,-84 894,-154.25 894,-154.25 894,-160.25 888,-166.25 882,-166.25"/>
<text text-anchor="middle" x="811" y="-148.95" font-family="Helvetica,sans-Serif" font-size="14.00">1_U &lt;= 0.5</text>
<text text-anchor="middle" x="811" y="-131.7" font-family="Helvetica,sans-Serif" font-size="14.00">entropy = 0.92</text>
<text text-anchor="middle" x="811" y="-114.45" font-family="Helvetica,sans-Serif" font-size="14.00">samples = 7380</text>
<text text-anchor="middle" x="811" y="-97.2" font-family="Helvetica,sans-Serif" font-size="14.00">value = [3917, 7786]</text>
<text text-anchor="middle" x="811" y="-79.95" font-family="Helvetica,sans-Serif" font-size="14.00">class = Plant</text>
</g>
<!-- 12489&#45;&gt;12490 -->
<g id="edge18" class="edge">
<title>12489&#45;&gt;12490</title>
<path fill="none" stroke="black" d="M866.59,-202.07C860.8,-193.54 854.7,-184.54 848.75,-175.77"/>
<polygon fill="black" stroke="black" points="851.72,-173.92 843.21,-167.61 845.93,-177.85 851.72,-173.92"/>
</g>
<!-- 14955 -->
<g id="node22" class="node">
<title>14955</title>
<path fill="#76bbed" stroke="black" d="M1066,-166.25C1066,-166.25 924,-166.25 924,-166.25 918,-166.25 912,-160.25 912,-154.25 912,-154.25 912,-84 912,-84 912,-78 918,-72 924,-72 924,-72 1066,-72 1066,-72 1072,-72 1078,-78 1078,-84 1078,-84 1078,-154.25 1078,-154.25 1078,-160.25 1072,-166.25 1066,-166.25"/>
<text text-anchor="middle" x="995" y="-148.95" font-family="Helvetica,sans-Serif" font-size="14.00">1_A &lt;= 0.5</text>
<text text-anchor="middle" x="995" y="-131.7" font-family="Helvetica,sans-Serif" font-size="14.00">entropy = 0.788</text>
<text text-anchor="middle" x="995" y="-114.45" font-family="Helvetica,sans-Serif" font-size="14.00">samples = 3192</text>
<text text-anchor="middle" x="995" y="-97.2" font-family="Helvetica,sans-Serif" font-size="14.00">value = [1189, 3852]</text>
<text text-anchor="middle" x="995" y="-79.95" font-family="Helvetica,sans-Serif" font-size="14.00">class = Plant</text>
</g>
<!-- 12489&#45;&gt;14955 -->
<g id="edge21" class="edge">
<title>12489&#45;&gt;14955</title>
<path fill="none" stroke="black" d="M933.02,-202.07C939.54,-193.45 946.42,-184.35 953.13,-175.49"/>
<polygon fill="black" stroke="black" points="955.88,-177.65 959.12,-167.57 950.3,-173.43 955.88,-177.65"/>
</g>
<!-- 12491 -->
<g id="node20" class="node">
<title>12491</title>
<path fill="#c0c0c0" stroke="black" d="M774,-36C774,-36 744,-36 744,-36 738,-36 732,-30 732,-24 732,-24 732,-12 732,-12 732,-6 738,0 744,0 744,0 774,0 774,0 780,0 786,-6 786,-12 786,-12 786,-24 786,-24 786,-30 780,-36 774,-36"/>
<text text-anchor="middle" x="759" y="-13.32" font-family="Helvetica,sans-Serif" font-size="14.00">(...)</text>
</g>
<!-- 12490&#45;&gt;12491 -->
<g id="edge19" class="edge">
<title>12490&#45;&gt;12491</title>
<path fill="none" stroke="black" d="M786.67,-71.75C782.1,-63.03 777.45,-54.16 773.3,-46.26"/>
<polygon fill="black" stroke="black" points="776.46,-44.74 768.71,-37.51 770.26,-47.99 776.46,-44.74"/>
</g>
<!-- 13874 -->
<g id="node21" class="node">
<title>13874</title>
<path fill="#c0c0c0" stroke="black" d="M846,-36C846,-36 816,-36 816,-36 810,-36 804,-30 804,-24 804,-24 804,-12 804,-12 804,-6 810,0 816,0 816,0 846,0 846,0 852,0 858,-6 858,-12 858,-12 858,-24 858,-24 858,-30 852,-36 846,-36"/>
<text text-anchor="middle" x="831" y="-13.32" font-family="Helvetica,sans-Serif" font-size="14.00">(...)</text>
</g>
<!-- 12490&#45;&gt;13874 -->
<g id="edge20" class="edge">
<title>12490&#45;&gt;13874</title>
<path fill="none" stroke="black" d="M820.36,-71.75C822.04,-63.42 823.74,-54.97 825.28,-47.34"/>
<polygon fill="black" stroke="black" points="828.69,-48.15 827.24,-37.66 821.83,-46.77 828.69,-48.15"/>
</g>
<!-- 14956 -->
<g id="node23" class="node">
<title>14956</title>
<path fill="#c0c0c0" stroke="black" d="M956,-36C956,-36 926,-36 926,-36 920,-36 914,-30 914,-24 914,-24 914,-12 914,-12 914,-6 920,0 926,0 926,0 956,0 956,0 962,0 968,-6 968,-12 968,-12 968,-24 968,-24 968,-30 962,-36 956,-36"/>
<text text-anchor="middle" x="941" y="-13.32" font-family="Helvetica,sans-Serif" font-size="14.00">(...)</text>
</g>
<!-- 14955&#45;&gt;14956 -->
<g id="edge22" class="edge">
<title>14955&#45;&gt;14956</title>
<path fill="none" stroke="black" d="M969.74,-71.75C964.98,-63.03 960.16,-54.16 955.85,-46.26"/>
<polygon fill="black" stroke="black" points="958.94,-44.61 951.08,-37.5 952.79,-47.96 958.94,-44.61"/>
</g>
<!-- 15625 -->
<g id="node24" class="node">
<title>15625</title>
<path fill="#c0c0c0" stroke="black" d="M1028,-36C1028,-36 998,-36 998,-36 992,-36 986,-30 986,-24 986,-24 986,-12 986,-12 986,-6 992,0 998,0 998,0 1028,0 1028,0 1034,0 1040,-6 1040,-12 1040,-12 1040,-24 1040,-24 1040,-30 1034,-36 1028,-36"/>
<text text-anchor="middle" x="1013" y="-13.32" font-family="Helvetica,sans-Serif" font-size="14.00">(...)</text>
</g>
<!-- 14955&#45;&gt;15625 -->
<g id="edge23" class="edge">
<title>14955&#45;&gt;15625</title>
<path fill="none" stroke="black" d="M1003.42,-71.75C1004.93,-63.42 1006.47,-54.97 1007.85,-47.34"/>
<polygon fill="black" stroke="black" points="1011.27,-48.13 1009.61,-37.66 1004.38,-46.88 1011.27,-48.13"/>
</g>
<!-- 15773 -->
<g id="node26" class="node">
<title>15773</title>
<path fill="#f7d8c2" stroke="black" d="M1241.5,-166.25C1241.5,-166.25 1108.5,-166.25 1108.5,-166.25 1102.5,-166.25 1096.5,-160.25 1096.5,-154.25 1096.5,-154.25 1096.5,-84 1096.5,-84 1096.5,-78 1102.5,-72 1108.5,-72 1108.5,-72 1241.5,-72 1241.5,-72 1247.5,-72 1253.5,-78 1253.5,-84 1253.5,-84 1253.5,-154.25 1253.5,-154.25 1253.5,-160.25 1247.5,-166.25 1241.5,-166.25"/>
<text text-anchor="middle" x="1175" y="-148.95" font-family="Helvetica,sans-Serif" font-size="14.00">9_U &lt;= 0.5</text>
<text text-anchor="middle" x="1175" y="-131.7" font-family="Helvetica,sans-Serif" font-size="14.00">entropy = 0.976</text>
<text text-anchor="middle" x="1175" y="-114.45" font-family="Helvetica,sans-Serif" font-size="14.00">samples = 1193</text>
<text text-anchor="middle" x="1175" y="-97.2" font-family="Helvetica,sans-Serif" font-size="14.00">value = [1135, 788]</text>
<text text-anchor="middle" x="1175" y="-79.95" font-family="Helvetica,sans-Serif" font-size="14.00">class = Animal</text>
</g>
<!-- 15772&#45;&gt;15773 -->
<g id="edge25" class="edge">
<title>15772&#45;&gt;15773</title>
<path fill="none" stroke="black" d="M1175,-202.07C1175,-194.17 1175,-185.88 1175,-177.73"/>
<polygon fill="black" stroke="black" points="1178.5,-177.87 1175,-167.87 1171.5,-177.87 1178.5,-177.87"/>
</g>
<!-- 16438 -->
<g id="node29" class="node">
<title>16438</title>
<path fill="#eead7e" stroke="black" d="M1408,-166.25C1408,-166.25 1284,-166.25 1284,-166.25 1278,-166.25 1272,-160.25 1272,-154.25 1272,-154.25 1272,-84 1272,-84 1272,-78 1278,-72 1284,-72 1284,-72 1408,-72 1408,-72 1414,-72 1420,-78 1420,-84 1420,-84 1420,-154.25 1420,-154.25 1420,-160.25 1414,-166.25 1408,-166.25"/>
<text text-anchor="middle" x="1346" y="-148.95" font-family="Helvetica,sans-Serif" font-size="14.00">18_A &lt;= 0.5</text>
<text text-anchor="middle" x="1346" y="-131.7" font-family="Helvetica,sans-Serif" font-size="14.00">entropy = 0.825</text>
<text text-anchor="middle" x="1346" y="-114.45" font-family="Helvetica,sans-Serif" font-size="14.00">samples = 533</text>
<text text-anchor="middle" x="1346" y="-97.2" font-family="Helvetica,sans-Serif" font-size="14.00">value = [646, 226]</text>
<text text-anchor="middle" x="1346" y="-79.95" font-family="Helvetica,sans-Serif" font-size="14.00">class = Animal</text>
</g>
<!-- 15772&#45;&gt;16438 -->
<g id="edge28" class="edge">
<title>15772&#45;&gt;16438</title>
<path fill="none" stroke="black" d="M1236.73,-202.07C1249.13,-192.78 1262.25,-182.94 1274.93,-173.43"/>
<polygon fill="black" stroke="black" points="1276.96,-176.28 1282.86,-167.48 1272.76,-170.68 1276.96,-176.28"/>
</g>
<!-- 15774 -->
<g id="node27" class="node">
<title>15774</title>
<path fill="#c0c0c0" stroke="black" d="M1149,-36C1149,-36 1119,-36 1119,-36 1113,-36 1107,-30 1107,-24 1107,-24 1107,-12 1107,-12 1107,-6 1113,0 1119,0 1119,0 1149,0 1149,0 1155,0 1161,-6 1161,-12 1161,-12 1161,-24 1161,-24 1161,-30 1155,-36 1149,-36"/>
<text text-anchor="middle" x="1134" y="-13.32" font-family="Helvetica,sans-Serif" font-size="14.00">(...)</text>
</g>
<!-- 15773&#45;&gt;15774 -->
<g id="edge26" class="edge">
<title>15773&#45;&gt;15774</title>
<path fill="none" stroke="black" d="M1155.82,-71.75C1152.29,-63.22 1148.71,-54.57 1145.5,-46.8"/>
<polygon fill="black" stroke="black" points="1148.74,-45.47 1141.68,-37.57 1142.27,-48.15 1148.74,-45.47"/>
</g>
<!-- 16247 -->
<g id="node28" class="node">
<title>16247</title>
<path fill="#c0c0c0" stroke="black" d="M1221,-36C1221,-36 1191,-36 1191,-36 1185,-36 1179,-30 1179,-24 1179,-24 1179,-12 1179,-12 1179,-6 1185,0 1191,0 1191,0 1221,0 1221,0 1227,0 1233,-6 1233,-12 1233,-12 1233,-24 1233,-24 1233,-30 1227,-36 1221,-36"/>
<text text-anchor="middle" x="1206" y="-13.32" font-family="Helvetica,sans-Serif" font-size="14.00">(...)</text>
</g>
<!-- 15773&#45;&gt;16247 -->
<g id="edge27" class="edge">
<title>15773&#45;&gt;16247</title>
<path fill="none" stroke="black" d="M1189.5,-71.75C1192.14,-63.32 1194.81,-54.77 1197.22,-47.07"/>
<polygon fill="black" stroke="black" points="1200.53,-48.21 1200.18,-37.62 1193.85,-46.12 1200.53,-48.21"/>
</g>
<!-- 16439 -->
<g id="node30" class="node">
<title>16439</title>
<path fill="#c0c0c0" stroke="black" d="M1325,-36C1325,-36 1295,-36 1295,-36 1289,-36 1283,-30 1283,-24 1283,-24 1283,-12 1283,-12 1283,-6 1289,0 1295,0 1295,0 1325,0 1325,0 1331,0 1337,-6 1337,-12 1337,-12 1337,-24 1337,-24 1337,-30 1331,-36 1325,-36"/>
<text text-anchor="middle" x="1310" y="-13.32" font-family="Helvetica,sans-Serif" font-size="14.00">(...)</text>
</g>
<!-- 16438&#45;&gt;16439 -->
<g id="edge29" class="edge">
<title>16438&#45;&gt;16439</title>
<path fill="none" stroke="black" d="M1329.16,-71.75C1326.06,-63.22 1322.92,-54.57 1320.1,-46.8"/>
<polygon fill="black" stroke="black" points="1323.46,-45.8 1316.75,-37.6 1316.88,-48.19 1323.46,-45.8"/>
</g>
<!-- 16604 -->
<g id="node31" class="node">
<title>16604</title>
<path fill="#c0c0c0" stroke="black" d="M1397,-36C1397,-36 1367,-36 1367,-36 1361,-36 1355,-30 1355,-24 1355,-24 1355,-12 1355,-12 1355,-6 1361,0 1367,0 1367,0 1397,0 1397,0 1403,0 1409,-6 1409,-12 1409,-12 1409,-24 1409,-24 1409,-30 1403,-36 1397,-36"/>
<text text-anchor="middle" x="1382" y="-13.32" font-family="Helvetica,sans-Serif" font-size="14.00">(...)</text>
</g>
<!-- 16438&#45;&gt;16604 -->
<g id="edge30" class="edge">
<title>16438&#45;&gt;16604</title>
<path fill="none" stroke="black" d="M1362.84,-71.75C1365.94,-63.22 1369.08,-54.57 1371.9,-46.8"/>
<polygon fill="black" stroke="black" points="1375.12,-48.19 1375.25,-37.6 1368.54,-45.8 1375.12,-48.19"/>
</g>
</g>
</svg>
