<?xml version="1.0" encoding="UTF-8" standalone="no"?>
<!DOCTYPE svg PUBLIC "-//W3C//DTD SVG 1.1//EN"
 "http://www.w3.org/Graphics/SVG/1.1/DTD/svg11.dtd">
<!-- Generated by graphviz version 12.0.0 (20240803.0821)
 -->
<!-- Title: Tree Pages: 1 -->
<svg width="1410pt" height="565pt"
 viewBox="0.00 0.00 1410.38 565.00" xmlns="http://www.w3.org/2000/svg" xmlns:xlink="http://www.w3.org/1999/xlink">
<g id="graph0" class="graph" transform="scale(1 1) rotate(0) translate(4 561)">
<title>Tree</title>
<polygon fill="white" stroke="none" points="-4,4 -4,-561 1406.38,-561 1406.38,4 -4,4"/>
<!-- 0 -->
<g id="node1" class="node">
<title>0</title>
<path fill="#feffff" stroke="black" d="M828,-557C828,-557 668,-557 668,-557 662,-557 656,-551 656,-545 656,-545 656,-474.75 656,-474.75 656,-468.75 662,-462.75 668,-462.75 668,-462.75 828,-462.75 828,-462.75 834,-462.75 840,-468.75 840,-474.75 840,-474.75 840,-545 840,-545 840,-551 834,-557 828,-557"/>
<text text-anchor="middle" x="748" y="-539.7" font-family="Helvetica,sans-Serif" font-size="14.00">23_U &lt;= 0.5</text>
<text text-anchor="middle" x="748" y="-522.45" font-family="Helvetica,sans-Serif" font-size="14.00">entropy = 1.0</text>
<text text-anchor="middle" x="748" y="-505.2" font-family="Helvetica,sans-Serif" font-size="14.00">samples = 38276</text>
<text text-anchor="middle" x="748" y="-487.95" font-family="Helvetica,sans-Serif" font-size="14.00">value = [30097, 30248]</text>
<text text-anchor="middle" x="748" y="-470.7" font-family="Helvetica,sans-Serif" font-size="14.00">class = Plant</text>
</g>
<!-- 1 -->
<g id="node2" class="node">
<title>1</title>
<path fill="#f0f8fd" stroke="black" d="M648,-426.75C648,-426.75 488,-426.75 488,-426.75 482,-426.75 476,-420.75 476,-414.75 476,-414.75 476,-344.5 476,-344.5 476,-338.5 482,-332.5 488,-332.5 488,-332.5 648,-332.5 648,-332.5 654,-332.5 660,-338.5 660,-344.5 660,-344.5 660,-414.75 660,-414.75 660,-420.75 654,-426.75 648,-426.75"/>
<text text-anchor="middle" x="568" y="-409.45" font-family="Helvetica,sans-Serif" font-size="14.00">19_C &lt;= 0.5</text>
<text text-anchor="middle" x="568" y="-392.2" font-family="Helvetica,sans-Serif" font-size="14.00">entropy = 0.999</text>
<text text-anchor="middle" x="568" y="-374.95" font-family="Helvetica,sans-Serif" font-size="14.00">samples = 36316</text>
<text text-anchor="middle" x="568" y="-357.7" font-family="Helvetica,sans-Serif" font-size="14.00">value = [27538, 29762]</text>
<text text-anchor="middle" x="568" y="-340.45" font-family="Helvetica,sans-Serif" font-size="14.00">class = Plant</text>
</g>
<!-- 0&#45;&gt;1 -->
<g id="edge1" class="edge">
<title>0&#45;&gt;1</title>
<path fill="none" stroke="black" d="M682.76,-462.39C669.68,-453.07 655.85,-443.22 642.48,-433.69"/>
<polygon fill="black" stroke="black" points="644.73,-430.99 634.55,-428.04 640.66,-436.7 644.73,-430.99"/>
<text text-anchor="middle" x="637.46" y="-447.14" font-family="Helvetica,sans-Serif" font-size="14.00">True</text>
</g>
<!-- 16328 -->
<g id="node17" class="node">
<title>16328</title>
<path fill="#ea995f" stroke="black" d="M992.5,-426.75C992.5,-426.75 859.5,-426.75 859.5,-426.75 853.5,-426.75 847.5,-420.75 847.5,-414.75 847.5,-414.75 847.5,-344.5 847.5,-344.5 847.5,-338.5 853.5,-332.5 859.5,-332.5 859.5,-332.5 992.5,-332.5 992.5,-332.5 998.5,-332.5 1004.5,-338.5 1004.5,-344.5 1004.5,-344.5 1004.5,-414.75 1004.5,-414.75 1004.5,-420.75 998.5,-426.75 992.5,-426.75"/>
<text text-anchor="middle" x="926" y="-409.45" font-family="Helvetica,sans-Serif" font-size="14.00">13_G &lt;= 0.5</text>
<text text-anchor="middle" x="926" y="-392.2" font-family="Helvetica,sans-Serif" font-size="14.00">entropy = 0.633</text>
<text text-anchor="middle" x="926" y="-374.95" font-family="Helvetica,sans-Serif" font-size="14.00">samples = 1960</text>
<text text-anchor="middle" x="926" y="-357.7" font-family="Helvetica,sans-Serif" font-size="14.00">value = [2559, 486]</text>
<text text-anchor="middle" x="926" y="-340.45" font-family="Helvetica,sans-Serif" font-size="14.00">class = Animal</text>
</g>
<!-- 0&#45;&gt;16328 -->
<g id="edge16" class="edge">
<title>0&#45;&gt;16328</title>
<path fill="none" stroke="black" d="M812.51,-462.39C825.45,-453.07 839.13,-443.22 852.35,-433.69"/>
<polygon fill="black" stroke="black" points="854.11,-436.73 860.18,-428.05 850.02,-431.06 854.11,-436.73"/>
<text text-anchor="middle" x="857.4" y="-447.17" font-family="Helvetica,sans-Serif" font-size="14.00">False</text>
</g>
<!-- 2 -->
<g id="node3" class="node">
<title>2</title>
<path fill="#fae7da" stroke="black" d="M365,-296.5C365,-296.5 205,-296.5 205,-296.5 199,-296.5 193,-290.5 193,-284.5 193,-284.5 193,-214.25 193,-214.25 193,-208.25 199,-202.25 205,-202.25 205,-202.25 365,-202.25 365,-202.25 371,-202.25 377,-208.25 377,-214.25 377,-214.25 377,-284.5 377,-284.5 377,-290.5 371,-296.5 365,-296.5"/>
<text text-anchor="middle" x="285" y="-279.2" font-family="Helvetica,sans-Serif" font-size="14.00">19_A &lt;= 0.5</text>
<text text-anchor="middle" x="285" y="-261.95" font-family="Helvetica,sans-Serif" font-size="14.00">entropy = 0.992</text>
<text text-anchor="middle" x="285" y="-244.7" font-family="Helvetica,sans-Serif" font-size="14.00">samples = 24356</text>
<text text-anchor="middle" x="285" y="-227.45" font-family="Helvetica,sans-Serif" font-size="14.00">value = [21211, 17241]</text>
<text text-anchor="middle" x="285" y="-210.2" font-family="Helvetica,sans-Serif" font-size="14.00">class = Animal</text>
</g>
<!-- 1&#45;&gt;2 -->
<g id="edge2" class="edge">
<title>1&#45;&gt;2</title>
<path fill="none" stroke="black" d="M475.73,-336.81C447.45,-323.99 416.17,-309.82 387.26,-296.72"/>
<polygon fill="black" stroke="black" points="389.08,-293.7 378.53,-292.76 386.19,-300.08 389.08,-293.7"/>
</g>
<!-- 12341 -->
<g id="node10" class="node">
<title>12341</title>
<path fill="#9dcff2" stroke="black" d="M643.5,-296.5C643.5,-296.5 492.5,-296.5 492.5,-296.5 486.5,-296.5 480.5,-290.5 480.5,-284.5 480.5,-284.5 480.5,-214.25 480.5,-214.25 480.5,-208.25 486.5,-202.25 492.5,-202.25 492.5,-202.25 643.5,-202.25 643.5,-202.25 649.5,-202.25 655.5,-208.25 655.5,-214.25 655.5,-214.25 655.5,-284.5 655.5,-284.5 655.5,-290.5 649.5,-296.5 643.5,-296.5"/>
<text text-anchor="middle" x="568" y="-279.2" font-family="Helvetica,sans-Serif" font-size="14.00">2_A &lt;= 0.5</text>
<text text-anchor="middle" x="568" y="-261.95" font-family="Helvetica,sans-Serif" font-size="14.00">entropy = 0.921</text>
<text text-anchor="middle" x="568" y="-244.7" font-family="Helvetica,sans-Serif" font-size="14.00">samples = 11960</text>
<text text-anchor="middle" x="568" y="-227.45" font-family="Helvetica,sans-Serif" font-size="14.00">value = [6327, 12521]</text>
<text text-anchor="middle" x="568" y="-210.2" font-family="Helvetica,sans-Serif" font-size="14.00">class = Plant</text>
</g>
<!-- 1&#45;&gt;12341 -->
<g id="edge9" class="edge">
<title>1&#45;&gt;12341</title>
<path fill="none" stroke="black" d="M568,-332.32C568,-324.42 568,-316.13 568,-307.98"/>
<polygon fill="black" stroke="black" points="571.5,-308.12 568,-298.12 564.5,-308.12 571.5,-308.12"/>
</g>
<!-- 3 -->
<g id="node4" class="node">
<title>3</title>
<path fill="#f7d9c4" stroke="black" d="M172,-166.25C172,-166.25 12,-166.25 12,-166.25 6,-166.25 0,-160.25 0,-154.25 0,-154.25 0,-84 0,-84 0,-78 6,-72 12,-72 12,-72 172,-72 172,-72 178,-72 184,-78 184,-84 184,-84 184,-154.25 184,-154.25 184,-160.25 178,-166.25 172,-166.25"/>
<text text-anchor="middle" x="92" y="-148.95" font-family="Helvetica,sans-Serif" font-size="14.00">8_G &lt;= 0.5</text>
<text text-anchor="middle" x="92" y="-131.7" font-family="Helvetica,sans-Serif" font-size="14.00">entropy = 0.978</text>
<text text-anchor="middle" x="92" y="-114.45" font-family="Helvetica,sans-Serif" font-size="14.00">samples = 16976</text>
<text text-anchor="middle" x="92" y="-97.2" font-family="Helvetica,sans-Serif" font-size="14.00">value = [15719, 11018]</text>
<text text-anchor="middle" x="92" y="-79.95" font-family="Helvetica,sans-Serif" font-size="14.00">class = Animal</text>
</g>
<!-- 2&#45;&gt;3 -->
<g id="edge3" class="edge">
<title>2&#45;&gt;3</title>
<path fill="none" stroke="black" d="M215.05,-201.89C200.89,-192.48 185.9,-182.53 171.45,-172.92"/>
<polygon fill="black" stroke="black" points="173.56,-170.12 163.3,-167.5 169.69,-175.95 173.56,-170.12"/>
</g>
<!-- 8780 -->
<g id="node7" class="node">
<title>8780</title>
<path fill="#e8f3fc" stroke="black" d="M356,-166.25C356,-166.25 214,-166.25 214,-166.25 208,-166.25 202,-160.25 202,-154.25 202,-154.25 202,-84 202,-84 202,-78 208,-72 214,-72 214,-72 356,-72 356,-72 362,-72 368,-78 368,-84 368,-84 368,-154.25 368,-154.25 368,-160.25 362,-166.25 356,-166.25"/>
<text text-anchor="middle" x="285" y="-148.95" font-family="Helvetica,sans-Serif" font-size="14.00">9_U &lt;= 0.5</text>
<text text-anchor="middle" x="285" y="-131.7" font-family="Helvetica,sans-Serif" font-size="14.00">entropy = 0.997</text>
<text text-anchor="middle" x="285" y="-114.45" font-family="Helvetica,sans-Serif" font-size="14.00">samples = 7380</text>
<text text-anchor="middle" x="285" y="-97.2" font-family="Helvetica,sans-Serif" font-size="14.00">value = [5492, 6223]</text>
<text text-anchor="middle" x="285" y="-79.95" font-family="Helvetica,sans-Serif" font-size="14.00">class = Plant</text>
</g>
<!-- 2&#45;&gt;8780 -->
<g id="edge6" class="edge">
<title>2&#45;&gt;8780</title>
<path fill="none" stroke="black" d="M285,-202.07C285,-194.17 285,-185.88 285,-177.73"/>
<polygon fill="black" stroke="black" points="288.5,-177.87 285,-167.87 281.5,-177.87 288.5,-177.87"/>
</g>
<!-- 4 -->
<g id="node5" class="node">
<title>4</title>
<path fill="#c0c0c0" stroke="black" d="M71,-36C71,-36 41,-36 41,-36 35,-36 29,-30 29,-24 29,-24 29,-12 29,-12 29,-6 35,0 41,0 41,0 71,0 71,0 77,0 83,-6 83,-12 83,-12 83,-24 83,-24 83,-30 77,-36 71,-36"/>
<text text-anchor="middle" x="56" y="-13.32" font-family="Helvetica,sans-Serif" font-size="14.00">(...)</text>
</g>
<!-- 3&#45;&gt;4 -->
<g id="edge4" class="edge">
<title>3&#45;&gt;4</title>
<path fill="none" stroke="black" d="M75.16,-71.75C72.06,-63.22 68.92,-54.57 66.1,-46.8"/>
<polygon fill="black" stroke="black" points="69.46,-45.8 62.75,-37.6 62.88,-48.19 69.46,-45.8"/>
</g>
<!-- 6357 -->
<g id="node6" class="node">
<title>6357</title>
<path fill="#c0c0c0" stroke="black" d="M143,-36C143,-36 113,-36 113,-36 107,-36 101,-30 101,-24 101,-24 101,-12 101,-12 101,-6 107,0 113,0 113,0 143,0 143,0 149,0 155,-6 155,-12 155,-12 155,-24 155,-24 155,-30 149,-36 143,-36"/>
<text text-anchor="middle" x="128" y="-13.32" font-family="Helvetica,sans-Serif" font-size="14.00">(...)</text>
</g>
<!-- 3&#45;&gt;6357 -->
<g id="edge5" class="edge">
<title>3&#45;&gt;6357</title>
<path fill="none" stroke="black" d="M108.84,-71.75C111.94,-63.22 115.08,-54.57 117.9,-46.8"/>
<polygon fill="black" stroke="black" points="121.12,-48.19 121.25,-37.6 114.54,-45.8 121.12,-48.19"/>
</g>
<!-- 8781 -->
<g id="node8" class="node">
<title>8781</title>
<path fill="#c0c0c0" stroke="black" d="M273,-36C273,-36 243,-36 243,-36 237,-36 231,-30 231,-24 231,-24 231,-12 231,-12 231,-6 237,0 243,0 243,0 273,0 273,0 279,0 285,-6 285,-12 285,-12 285,-24 285,-24 285,-30 279,-36 273,-36"/>
<text text-anchor="middle" x="258" y="-13.32" font-family="Helvetica,sans-Serif" font-size="14.00">(...)</text>
</g>
<!-- 8780&#45;&gt;8781 -->
<g id="edge7" class="edge">
<title>8780&#45;&gt;8781</title>
<path fill="none" stroke="black" d="M272.37,-71.75C270.07,-63.32 267.74,-54.77 265.65,-47.07"/>
<polygon fill="black" stroke="black" points="269.08,-46.36 263.08,-37.63 262.33,-48.2 269.08,-46.36"/>
</g>
<!-- 11290 -->
<g id="node9" class="node">
<title>11290</title>
<path fill="#c0c0c0" stroke="black" d="M345,-36C345,-36 315,-36 315,-36 309,-36 303,-30 303,-24 303,-24 303,-12 303,-12 303,-6 309,0 315,0 315,0 345,0 345,0 351,0 357,-6 357,-12 357,-12 357,-24 357,-24 357,-30 351,-36 345,-36"/>
<text text-anchor="middle" x="330" y="-13.32" font-family="Helvetica,sans-Serif" font-size="14.00">(...)</text>
</g>
<!-- 8780&#45;&gt;11290 -->
<g id="edge8" class="edge">
<title>8780&#45;&gt;11290</title>
<path fill="none" stroke="black" d="M306.05,-71.75C309.97,-63.12 313.95,-54.36 317.5,-46.53"/>
<polygon fill="black" stroke="black" points="320.63,-48.1 321.58,-37.55 314.26,-45.21 320.63,-48.1"/>
</g>
<!-- 12342 -->
<g id="node11" class="node">
<title>12342</title>
<path fill="#8bc5f0" stroke="black" d="M549.5,-166.25C549.5,-166.25 398.5,-166.25 398.5,-166.25 392.5,-166.25 386.5,-160.25 386.5,-154.25 386.5,-154.25 386.5,-84 386.5,-84 386.5,-78 392.5,-72 398.5,-72 398.5,-72 549.5,-72 549.5,-72 555.5,-72 561.5,-78 561.5,-84 561.5,-84 561.5,-154.25 561.5,-154.25 561.5,-160.25 555.5,-166.25 549.5,-166.25"/>
<text text-anchor="middle" x="474" y="-148.95" font-family="Helvetica,sans-Serif" font-size="14.00">22_U &lt;= 0.5</text>
<text text-anchor="middle" x="474" y="-131.7" font-family="Helvetica,sans-Serif" font-size="14.00">entropy = 0.872</text>
<text text-anchor="middle" x="474" y="-114.45" font-family="Helvetica,sans-Serif" font-size="14.00">samples = 9413</text>
<text text-anchor="middle" x="474" y="-97.2" font-family="Helvetica,sans-Serif" font-size="14.00">value = [4339, 10509]</text>
<text text-anchor="middle" x="474" y="-79.95" font-family="Helvetica,sans-Serif" font-size="14.00">class = Plant</text>
</g>
<!-- 12341&#45;&gt;12342 -->
<g id="edge10" class="edge">
<title>12341&#45;&gt;12342</title>
<path fill="none" stroke="black" d="M534.06,-202.07C527.74,-193.45 521.08,-184.35 514.58,-175.49"/>
<polygon fill="black" stroke="black" points="517.52,-173.58 508.78,-167.58 511.87,-177.71 517.52,-173.58"/>
</g>
<!-- 15399 -->
<g id="node14" class="node">
<title>15399</title>
<path fill="#fdfeff" stroke="black" d="M734,-166.25C734,-166.25 592,-166.25 592,-166.25 586,-166.25 580,-160.25 580,-154.25 580,-154.25 580,-84 580,-84 580,-78 586,-72 592,-72 592,-72 734,-72 734,-72 740,-72 746,-78 746,-84 746,-84 746,-154.25 746,-154.25 746,-160.25 740,-166.25 734,-166.25"/>
<text text-anchor="middle" x="663" y="-148.95" font-family="Helvetica,sans-Serif" font-size="14.00">8_G &lt;= 0.5</text>
<text text-anchor="middle" x="663" y="-131.7" font-family="Helvetica,sans-Serif" font-size="14.00">entropy = 1.0</text>
<text text-anchor="middle" x="663" y="-114.45" font-family="Helvetica,sans-Serif" font-size="14.00">samples = 2547</text>
<text text-anchor="middle" x="663" y="-97.2" font-family="Helvetica,sans-Serif" font-size="14.00">value = [1988, 2012]</text>
<text text-anchor="middle" x="663" y="-79.95" font-family="Helvetica,sans-Serif" font-size="14.00">class = Plant</text>
</g>
<!-- 12341&#45;&gt;15399 -->
<g id="edge13" class="edge">
<title>12341&#45;&gt;15399</title>
<path fill="none" stroke="black" d="M602.3,-202.07C608.69,-193.45 615.42,-184.35 621.99,-175.49"/>
<polygon fill="black" stroke="black" points="624.71,-177.69 627.85,-167.57 619.09,-173.53 624.71,-177.69"/>
</g>
<!-- 12343 -->
<g id="node12" class="node">
<title>12343</title>
<path fill="#c0c0c0" stroke="black" d="M439,-36C439,-36 409,-36 409,-36 403,-36 397,-30 397,-24 397,-24 397,-12 397,-12 397,-6 403,0 409,0 409,0 439,0 439,0 445,0 451,-6 451,-12 451,-12 451,-24 451,-24 451,-30 445,-36 439,-36"/>
<text text-anchor="middle" x="424" y="-13.32" font-family="Helvetica,sans-Serif" font-size="14.00">(...)</text>
</g>
<!-- 12342&#45;&gt;12343 -->
<g id="edge11" class="edge">
<title>12342&#45;&gt;12343</title>
<path fill="none" stroke="black" d="M450.61,-71.75C446.21,-63.03 441.74,-54.16 437.75,-46.26"/>
<polygon fill="black" stroke="black" points="440.97,-44.88 433.34,-37.52 434.72,-48.03 440.97,-44.88"/>
</g>
<!-- 15048 -->
<g id="node13" class="node">
<title>15048</title>
<path fill="#c0c0c0" stroke="black" d="M511,-36C511,-36 481,-36 481,-36 475,-36 469,-30 469,-24 469,-24 469,-12 469,-12 469,-6 475,0 481,0 481,0 511,0 511,0 517,0 523,-6 523,-12 523,-12 523,-24 523,-24 523,-30 517,-36 511,-36"/>
<text text-anchor="middle" x="496" y="-13.32" font-family="Helvetica,sans-Serif" font-size="14.00">(...)</text>
</g>
<!-- 12342&#45;&gt;15048 -->
<g id="edge12" class="edge">
<title>12342&#45;&gt;15048</title>
<path fill="none" stroke="black" d="M484.29,-71.75C486.14,-63.42 488.02,-54.97 489.71,-47.34"/>
<polygon fill="black" stroke="black" points="493.11,-48.17 491.86,-37.65 486.28,-46.65 493.11,-48.17"/>
</g>
<!-- 15400 -->
<g id="node15" class="node">
<title>15400</title>
<path fill="#c0c0c0" stroke="black" d="M624,-36C624,-36 594,-36 594,-36 588,-36 582,-30 582,-24 582,-24 582,-12 582,-12 582,-6 588,0 594,0 594,0 624,0 624,0 630,0 636,-6 636,-12 636,-12 636,-24 636,-24 636,-30 630,-36 624,-36"/>
<text text-anchor="middle" x="609" y="-13.32" font-family="Helvetica,sans-Serif" font-size="14.00">(...)</text>
</g>
<!-- 15399&#45;&gt;15400 -->
<g id="edge14" class="edge">
<title>15399&#45;&gt;15400</title>
<path fill="none" stroke="black" d="M637.74,-71.75C632.98,-63.03 628.16,-54.16 623.85,-46.26"/>
<polygon fill="black" stroke="black" points="626.94,-44.61 619.08,-37.5 620.79,-47.96 626.94,-44.61"/>
</g>
<!-- 16089 -->
<g id="node16" class="node">
<title>16089</title>
<path fill="#c0c0c0" stroke="black" d="M696,-36C696,-36 666,-36 666,-36 660,-36 654,-30 654,-24 654,-24 654,-12 654,-12 654,-6 660,0 666,0 666,0 696,0 696,0 702,0 708,-6 708,-12 708,-12 708,-24 708,-24 708,-30 702,-36 696,-36"/>
<text text-anchor="middle" x="681" y="-13.32" font-family="Helvetica,sans-Serif" font-size="14.00">(...)</text>
</g>
<!-- 15399&#45;&gt;16089 -->
<g id="edge15" class="edge">
<title>15399&#45;&gt;16089</title>
<path fill="none" stroke="black" d="M671.42,-71.75C672.93,-63.42 674.47,-54.97 675.85,-47.34"/>
<polygon fill="black" stroke="black" points="679.27,-48.13 677.61,-37.66 672.38,-46.88 679.27,-48.13"/>
</g>
<!-- 16329 -->
<g id="node18" class="node">
<title>16329</title>
<path fill="#eb9c64" stroke="black" d="M992.5,-296.5C992.5,-296.5 859.5,-296.5 859.5,-296.5 853.5,-296.5 847.5,-290.5 847.5,-284.5 847.5,-284.5 847.5,-214.25 847.5,-214.25 847.5,-208.25 853.5,-202.25 859.5,-202.25 859.5,-202.25 992.5,-202.25 992.5,-202.25 998.5,-202.25 1004.5,-208.25 1004.5,-214.25 1004.5,-214.25 1004.5,-284.5 1004.5,-284.5 1004.5,-290.5 998.5,-296.5 992.5,-296.5"/>
<text text-anchor="middle" x="926" y="-279.2" font-family="Helvetica,sans-Serif" font-size="14.00">11_C &lt;= 0.5</text>
<text text-anchor="middle" x="926" y="-261.95" font-family="Helvetica,sans-Serif" font-size="14.00">entropy = 0.678</text>
<text text-anchor="middle" x="926" y="-244.7" font-family="Helvetica,sans-Serif" font-size="14.00">samples = 1302</text>
<text text-anchor="middle" x="926" y="-227.45" font-family="Helvetica,sans-Serif" font-size="14.00">value = [1670, 364]</text>
<text text-anchor="middle" x="926" y="-210.2" font-family="Helvetica,sans-Serif" font-size="14.00">class = Animal</text>
</g>
<!-- 16328&#45;&gt;16329 -->
<g id="edge17" class="edge">
<title>16328&#45;&gt;16329</title>
<path fill="none" stroke="black" d="M926,-332.32C926,-324.42 926,-316.13 926,-307.98"/>
<polygon fill="black" stroke="black" points="929.5,-308.12 926,-298.12 922.5,-308.12 929.5,-308.12"/>
</g>
<!-- 16898 -->
<g id="node25" class="node">
<title>16898</title>
<path fill="#e99254" stroke="black" d="M1242,-296.5C1242,-296.5 1118,-296.5 1118,-296.5 1112,-296.5 1106,-290.5 1106,-284.5 1106,-284.5 1106,-214.25 1106,-214.25 1106,-208.25 1112,-202.25 1118,-202.25 1118,-202.25 1242,-202.25 1242,-202.25 1248,-202.25 1254,-208.25 1254,-214.25 1254,-214.25 1254,-284.5 1254,-284.5 1254,-290.5 1248,-296.5 1242,-296.5"/>
<text text-anchor="middle" x="1180" y="-279.2" font-family="Helvetica,sans-Serif" font-size="14.00">25_G &lt;= 0.5</text>
<text text-anchor="middle" x="1180" y="-261.95" font-family="Helvetica,sans-Serif" font-size="14.00">entropy = 0.531</text>
<text text-anchor="middle" x="1180" y="-244.7" font-family="Helvetica,sans-Serif" font-size="14.00">samples = 658</text>
<text text-anchor="middle" x="1180" y="-227.45" font-family="Helvetica,sans-Serif" font-size="14.00">value = [889, 122]</text>
<text text-anchor="middle" x="1180" y="-210.2" font-family="Helvetica,sans-Serif" font-size="14.00">class = Animal</text>
</g>
<!-- 16328&#45;&gt;16898 -->
<g id="edge24" class="edge">
<title>16328&#45;&gt;16898</title>
<path fill="none" stroke="black" d="M1004.97,-338.75C1033.76,-324.21 1066.42,-307.73 1095.65,-292.96"/>
<polygon fill="black" stroke="black" points="1097.14,-296.13 1104.49,-288.5 1093.99,-289.88 1097.14,-296.13"/>
</g>
<!-- 16330 -->
<g id="node19" class="node">
<title>16330</title>
<path fill="#ea985c" stroke="black" d="M909.5,-166.25C909.5,-166.25 776.5,-166.25 776.5,-166.25 770.5,-166.25 764.5,-160.25 764.5,-154.25 764.5,-154.25 764.5,-84 764.5,-84 764.5,-78 770.5,-72 776.5,-72 776.5,-72 909.5,-72 909.5,-72 915.5,-72 921.5,-78 921.5,-84 921.5,-84 921.5,-154.25 921.5,-154.25 921.5,-160.25 915.5,-166.25 909.5,-166.25"/>
<text text-anchor="middle" x="843" y="-148.95" font-family="Helvetica,sans-Serif" font-size="14.00">2_C &lt;= 0.5</text>
<text text-anchor="middle" x="843" y="-131.7" font-family="Helvetica,sans-Serif" font-size="14.00">entropy = 0.614</text>
<text text-anchor="middle" x="843" y="-114.45" font-family="Helvetica,sans-Serif" font-size="14.00">samples = 1018</text>
<text text-anchor="middle" x="843" y="-97.2" font-family="Helvetica,sans-Serif" font-size="14.00">value = [1354, 242]</text>
<text text-anchor="middle" x="843" y="-79.95" font-family="Helvetica,sans-Serif" font-size="14.00">class = Animal</text>
</g>
<!-- 16329&#45;&gt;16330 -->
<g id="edge18" class="edge">
<title>16329&#45;&gt;16330</title>
<path fill="none" stroke="black" d="M896.04,-202.07C890.51,-193.54 884.69,-184.54 879.01,-175.77"/>
<polygon fill="black" stroke="black" points="882.11,-174.12 873.74,-167.63 876.24,-177.93 882.11,-174.12"/>
</g>
<!-- 16747 -->
<g id="node22" class="node">
<title>16747</title>
<path fill="#efb285" stroke="black" d="M1076,-166.25C1076,-166.25 952,-166.25 952,-166.25 946,-166.25 940,-160.25 940,-154.25 940,-154.25 940,-84 940,-84 940,-78 946,-72 952,-72 952,-72 1076,-72 1076,-72 1082,-72 1088,-78 1088,-84 1088,-84 1088,-154.25 1088,-154.25 1088,-160.25 1082,-166.25 1076,-166.25"/>
<text text-anchor="middle" x="1014" y="-148.95" font-family="Helvetica,sans-Serif" font-size="14.00">4_A &lt;= 0.5</text>
<text text-anchor="middle" x="1014" y="-131.7" font-family="Helvetica,sans-Serif" font-size="14.00">entropy = 0.853</text>
<text text-anchor="middle" x="1014" y="-114.45" font-family="Helvetica,sans-Serif" font-size="14.00">samples = 284</text>
<text text-anchor="middle" x="1014" y="-97.2" font-family="Helvetica,sans-Serif" font-size="14.00">value = [316, 122]</text>
<text text-anchor="middle" x="1014" y="-79.95" font-family="Helvetica,sans-Serif" font-size="14.00">class = Animal</text>
</g>
<!-- 16329&#45;&gt;16747 -->
<g id="edge21" class="edge">
<title>16329&#45;&gt;16747</title>
<path fill="none" stroke="black" d="M957.77,-202.07C963.63,-193.54 969.8,-184.54 975.82,-175.77"/>
<polygon fill="black" stroke="black" points="978.65,-177.83 981.42,-167.61 972.88,-173.87 978.65,-177.83"/>
</g>
<!-- 16331 -->
<g id="node20" class="node">
<title>16331</title>
<path fill="#c0c0c0" stroke="black" d="M799,-36C799,-36 769,-36 769,-36 763,-36 757,-30 757,-24 757,-24 757,-12 757,-12 757,-6 763,0 769,0 769,0 799,0 799,0 805,0 811,-6 811,-12 811,-12 811,-24 811,-24 811,-30 805,-36 799,-36"/>
<text text-anchor="middle" x="784" y="-13.32" font-family="Helvetica,sans-Serif" font-size="14.00">(...)</text>
</g>
<!-- 16330&#45;&gt;16331 -->
<g id="edge19" class="edge">
<title>16330&#45;&gt;16331</title>
<path fill="none" stroke="black" d="M815.4,-71.75C810.15,-62.93 804.81,-53.96 800.06,-45.99"/>
<polygon fill="black" stroke="black" points="803.12,-44.28 795,-37.47 797.1,-47.86 803.12,-44.28"/>
</g>
<!-- 16660 -->
<g id="node21" class="node">
<title>16660</title>
<path fill="#c0c0c0" stroke="black" d="M871,-36C871,-36 841,-36 841,-36 835,-36 829,-30 829,-24 829,-24 829,-12 829,-12 829,-6 835,0 841,0 841,0 871,0 871,0 877,0 883,-6 883,-12 883,-12 883,-24 883,-24 883,-30 877,-36 871,-36"/>
<text text-anchor="middle" x="856" y="-13.32" font-family="Helvetica,sans-Serif" font-size="14.00">(...)</text>
</g>
<!-- 16330&#45;&gt;16660 -->
<g id="edge20" class="edge">
<title>16330&#45;&gt;16660</title>
<path fill="none" stroke="black" d="M849.08,-71.75C850.17,-63.42 851.28,-54.97 852.28,-47.34"/>
<polygon fill="black" stroke="black" points="855.72,-48.04 853.55,-37.67 848.78,-47.13 855.72,-48.04"/>
</g>
<!-- 16748 -->
<g id="node23" class="node">
<title>16748</title>
<path fill="#c0c0c0" stroke="black" d="M968,-36C968,-36 938,-36 938,-36 932,-36 926,-30 926,-24 926,-24 926,-12 926,-12 926,-6 932,0 938,0 938,0 968,0 968,0 974,0 980,-6 980,-12 980,-12 980,-24 980,-24 980,-30 974,-36 968,-36"/>
<text text-anchor="middle" x="953" y="-13.32" font-family="Helvetica,sans-Serif" font-size="14.00">(...)</text>
</g>
<!-- 16747&#45;&gt;16748 -->
<g id="edge22" class="edge">
<title>16747&#45;&gt;16748</title>
<path fill="none" stroke="black" d="M985.46,-71.75C979.97,-62.83 974.39,-53.76 969.44,-45.72"/>
<polygon fill="black" stroke="black" points="972.58,-44.14 964.36,-37.46 966.62,-47.81 972.58,-44.14"/>
</g>
<!-- 16871 -->
<g id="node24" class="node">
<title>16871</title>
<path fill="#c0c0c0" stroke="black" d="M1040,-36C1040,-36 1010,-36 1010,-36 1004,-36 998,-30 998,-24 998,-24 998,-12 998,-12 998,-6 1004,0 1010,0 1010,0 1040,0 1040,0 1046,0 1052,-6 1052,-12 1052,-12 1052,-24 1052,-24 1052,-30 1046,-36 1040,-36"/>
<text text-anchor="middle" x="1025" y="-13.32" font-family="Helvetica,sans-Serif" font-size="14.00">(...)</text>
</g>
<!-- 16747&#45;&gt;16871 -->
<g id="edge23" class="edge">
<title>16747&#45;&gt;16871</title>
<path fill="none" stroke="black" d="M1019.15,-71.75C1020.06,-63.52 1020.99,-55.17 1021.82,-47.61"/>
<polygon fill="black" stroke="black" points="1025.3,-48 1022.93,-37.68 1018.35,-47.23 1025.3,-48"/>
</g>
<!-- 16899 -->
<g id="node26" class="node">
<title>16899</title>
<path fill="#e89051" stroke="black" d="M1242,-166.25C1242,-166.25 1118,-166.25 1118,-166.25 1112,-166.25 1106,-160.25 1106,-154.25 1106,-154.25 1106,-84 1106,-84 1106,-78 1112,-72 1118,-72 1118,-72 1242,-72 1242,-72 1248,-72 1254,-78 1254,-84 1254,-84 1254,-154.25 1254,-154.25 1254,-160.25 1248,-166.25 1242,-166.25"/>
<text text-anchor="middle" x="1180" y="-148.95" font-family="Helvetica,sans-Serif" font-size="14.00">1_U &lt;= 0.5</text>
<text text-anchor="middle" x="1180" y="-131.7" font-family="Helvetica,sans-Serif" font-size="14.00">entropy = 0.49</text>
<text text-anchor="middle" x="1180" y="-114.45" font-family="Helvetica,sans-Serif" font-size="14.00">samples = 640</text>
<text text-anchor="middle" x="1180" y="-97.2" font-family="Helvetica,sans-Serif" font-size="14.00">value = [880, 105]</text>
<text text-anchor="middle" x="1180" y="-79.95" font-family="Helvetica,sans-Serif" font-size="14.00">class = Animal</text>
</g>
<!-- 16898&#45;&gt;16899 -->
<g id="edge25" class="edge">
<title>16898&#45;&gt;16899</title>
<path fill="none" stroke="black" d="M1180,-202.07C1180,-194.17 1180,-185.88 1180,-177.73"/>
<polygon fill="black" stroke="black" points="1183.5,-177.87 1180,-167.87 1176.5,-177.87 1183.5,-177.87"/>
</g>
<!-- 17104 -->
<g id="node29" class="node">
<title>17104</title>
<path fill="#a2d1f3" stroke="black" d="M1390.38,-166.25C1390.38,-166.25 1283.62,-166.25 1283.62,-166.25 1277.62,-166.25 1271.62,-160.25 1271.62,-154.25 1271.62,-154.25 1271.62,-84 1271.62,-84 1271.62,-78 1277.62,-72 1283.62,-72 1283.62,-72 1390.38,-72 1390.38,-72 1396.38,-72 1402.38,-78 1402.38,-84 1402.38,-84 1402.38,-154.25 1402.38,-154.25 1402.38,-160.25 1396.38,-166.25 1390.38,-166.25"/>
<text text-anchor="middle" x="1337" y="-148.95" font-family="Helvetica,sans-Serif" font-size="14.00">22_G &lt;= 0.5</text>
<text text-anchor="middle" x="1337" y="-131.7" font-family="Helvetica,sans-Serif" font-size="14.00">entropy = 0.931</text>
<text text-anchor="middle" x="1337" y="-114.45" font-family="Helvetica,sans-Serif" font-size="14.00">samples = 18</text>
<text text-anchor="middle" x="1337" y="-97.2" font-family="Helvetica,sans-Serif" font-size="14.00">value = [9, 17]</text>
<text text-anchor="middle" x="1337" y="-79.95" font-family="Helvetica,sans-Serif" font-size="14.00">class = Plant</text>
</g>
<!-- 16898&#45;&gt;17104 -->
<g id="edge28" class="edge">
<title>16898&#45;&gt;17104</title>
<path fill="none" stroke="black" d="M1236.68,-202.07C1247.95,-192.87 1259.87,-183.13 1271.41,-173.71"/>
<polygon fill="black" stroke="black" points="1273.44,-176.57 1278.97,-167.53 1269.01,-171.15 1273.44,-176.57"/>
</g>
<!-- 16900 -->
<g id="node27" class="node">
<title>16900</title>
<path fill="#c0c0c0" stroke="black" d="M1147,-36C1147,-36 1117,-36 1117,-36 1111,-36 1105,-30 1105,-24 1105,-24 1105,-12 1105,-12 1105,-6 1111,0 1117,0 1117,0 1147,0 1147,0 1153,0 1159,-6 1159,-12 1159,-12 1159,-24 1159,-24 1159,-30 1153,-36 1147,-36"/>
<text text-anchor="middle" x="1132" y="-13.32" font-family="Helvetica,sans-Serif" font-size="14.00">(...)</text>
</g>
<!-- 16899&#45;&gt;16900 -->
<g id="edge26" class="edge">
<title>16899&#45;&gt;16900</title>
<path fill="none" stroke="black" d="M1157.55,-71.75C1153.37,-63.12 1149.12,-54.36 1145.33,-46.53"/>
<polygon fill="black" stroke="black" points="1148.48,-45.01 1140.98,-37.53 1142.18,-48.06 1148.48,-45.01"/>
</g>
<!-- 17031 -->
<g id="node28" class="node">
<title>17031</title>
<path fill="#c0c0c0" stroke="black" d="M1219,-36C1219,-36 1189,-36 1189,-36 1183,-36 1177,-30 1177,-24 1177,-24 1177,-12 1177,-12 1177,-6 1183,0 1189,0 1189,0 1219,0 1219,0 1225,0 1231,-6 1231,-12 1231,-12 1231,-24 1231,-24 1231,-30 1225,-36 1219,-36"/>
<text text-anchor="middle" x="1204" y="-13.32" font-family="Helvetica,sans-Serif" font-size="14.00">(...)</text>
</g>
<!-- 16899&#45;&gt;17031 -->
<g id="edge27" class="edge">
<title>16899&#45;&gt;17031</title>
<path fill="none" stroke="black" d="M1191.23,-71.75C1193.24,-63.42 1195.29,-54.97 1197.14,-47.34"/>
<polygon fill="black" stroke="black" points="1200.53,-48.19 1199.49,-37.64 1193.73,-46.54 1200.53,-48.19"/>
</g>
<!-- 17105 -->
<g id="node30" class="node">
<title>17105</title>
<path fill="#c0c0c0" stroke="black" d="M1316,-36C1316,-36 1286,-36 1286,-36 1280,-36 1274,-30 1274,-24 1274,-24 1274,-12 1274,-12 1274,-6 1280,0 1286,0 1286,0 1316,0 1316,0 1322,0 1328,-6 1328,-12 1328,-12 1328,-24 1328,-24 1328,-30 1322,-36 1316,-36"/>
<text text-anchor="middle" x="1301" y="-13.32" font-family="Helvetica,sans-Serif" font-size="14.00">(...)</text>
</g>
<!-- 17104&#45;&gt;17105 -->
<g id="edge29" class="edge">
<title>17104&#45;&gt;17105</title>
<path fill="none" stroke="black" d="M1320.16,-71.75C1317.06,-63.22 1313.92,-54.57 1311.1,-46.8"/>
<polygon fill="black" stroke="black" points="1314.46,-45.8 1307.75,-37.6 1307.88,-48.19 1314.46,-45.8"/>
</g>
<!-- 17114 -->
<g id="node31" class="node">
<title>17114</title>
<path fill="#c0c0c0" stroke="black" d="M1388,-36C1388,-36 1358,-36 1358,-36 1352,-36 1346,-30 1346,-24 1346,-24 1346,-12 1346,-12 1346,-6 1352,0 1358,0 1358,0 1388,0 1388,0 1394,0 1400,-6 1400,-12 1400,-12 1400,-24 1400,-24 1400,-30 1394,-36 1388,-36"/>
<text text-anchor="middle" x="1373" y="-13.32" font-family="Helvetica,sans-Serif" font-size="14.00">(...)</text>
</g>
<!-- 17104&#45;&gt;17114 -->
<g id="edge30" class="edge">
<title>17104&#45;&gt;17114</title>
<path fill="none" stroke="black" d="M1353.84,-71.75C1356.94,-63.22 1360.08,-54.57 1362.9,-46.8"/>
<polygon fill="black" stroke="black" points="1366.12,-48.19 1366.25,-37.6 1359.54,-45.8 1366.12,-48.19"/>
</g>
</g>
</svg>
