<?xml version="1.0" encoding="UTF-8" standalone="no"?>
<!DOCTYPE svg PUBLIC "-//W3C//DTD SVG 1.1//EN"
 "http://www.w3.org/Graphics/SVG/1.1/DTD/svg11.dtd">
<!-- Generated by graphviz version 12.0.0 (20240803.0821)
 -->
<!-- Title: Tree Pages: 1 -->
<svg width="1428pt" height="565pt"
 viewBox="0.00 0.00 1428.00 565.00" xmlns="http://www.w3.org/2000/svg" xmlns:xlink="http://www.w3.org/1999/xlink">
<g id="graph0" class="graph" transform="scale(1 1) rotate(0) translate(4 561)">
<title>Tree</title>
<polygon fill="white" stroke="none" points="-4,4 -4,-561 1424,-561 1424,4 -4,4"/>
<!-- 0 -->
<g id="node1" class="node">
<title>0</title>
<path fill="#fdfeff" stroke="black" d="M791,-557C791,-557 631,-557 631,-557 625,-557 619,-551 619,-545 619,-545 619,-474.75 619,-474.75 619,-468.75 625,-462.75 631,-462.75 631,-462.75 791,-462.75 791,-462.75 797,-462.75 803,-468.75 803,-474.75 803,-474.75 803,-545 803,-545 803,-551 797,-557 791,-557"/>
<text text-anchor="middle" x="711" y="-539.7" font-family="Helvetica,sans-Serif" font-size="14.00">19_C &lt;= 0.5</text>
<text text-anchor="middle" x="711" y="-522.45" font-family="Helvetica,sans-Serif" font-size="14.00">entropy = 1.0</text>
<text text-anchor="middle" x="711" y="-505.2" font-family="Helvetica,sans-Serif" font-size="14.00">samples = 38026</text>
<text text-anchor="middle" x="711" y="-487.95" font-family="Helvetica,sans-Serif" font-size="14.00">value = [30041, 30304]</text>
<text text-anchor="middle" x="711" y="-470.7" font-family="Helvetica,sans-Serif" font-size="14.00">class = Plant</text>
</g>
<!-- 1 -->
<g id="node2" class="node">
<title>1</title>
<path fill="#f8dfcd" stroke="black" d="M623,-426.75C623,-426.75 463,-426.75 463,-426.75 457,-426.75 451,-420.75 451,-414.75 451,-414.75 451,-344.5 451,-344.5 451,-338.5 457,-332.5 463,-332.5 463,-332.5 623,-332.5 623,-332.5 629,-332.5 635,-338.5 635,-344.5 635,-344.5 635,-414.75 635,-414.75 635,-420.75 629,-426.75 623,-426.75"/>
<text text-anchor="middle" x="543" y="-409.45" font-family="Helvetica,sans-Serif" font-size="14.00">9_C &lt;= 0.5</text>
<text text-anchor="middle" x="543" y="-392.2" font-family="Helvetica,sans-Serif" font-size="14.00">entropy = 0.985</text>
<text text-anchor="middle" x="543" y="-374.95" font-family="Helvetica,sans-Serif" font-size="14.00">samples = 25641</text>
<text text-anchor="middle" x="543" y="-357.7" font-family="Helvetica,sans-Serif" font-size="14.00">value = [23190, 17323]</text>
<text text-anchor="middle" x="543" y="-340.45" font-family="Helvetica,sans-Serif" font-size="14.00">class = Animal</text>
</g>
<!-- 0&#45;&gt;1 -->
<g id="edge1" class="edge">
<title>0&#45;&gt;1</title>
<path fill="none" stroke="black" d="M650.35,-462.57C638.17,-453.28 625.28,-443.44 612.82,-433.93"/>
<polygon fill="black" stroke="black" points="615.12,-431.28 605.05,-427.99 610.87,-436.84 615.12,-431.28"/>
<text text-anchor="middle" x="607.17" y="-447.18" font-family="Helvetica,sans-Serif" font-size="14.00">True</text>
</g>
<!-- 12658 -->
<g id="node17" class="node">
<title>12658</title>
<path fill="#a1d1f3" stroke="black" d="M976.5,-426.75C976.5,-426.75 825.5,-426.75 825.5,-426.75 819.5,-426.75 813.5,-420.75 813.5,-414.75 813.5,-414.75 813.5,-344.5 813.5,-344.5 813.5,-338.5 819.5,-332.5 825.5,-332.5 825.5,-332.5 976.5,-332.5 976.5,-332.5 982.5,-332.5 988.5,-338.5 988.5,-344.5 988.5,-344.5 988.5,-414.75 988.5,-414.75 988.5,-420.75 982.5,-426.75 976.5,-426.75"/>
<text text-anchor="middle" x="901" y="-409.45" font-family="Helvetica,sans-Serif" font-size="14.00">4_U &lt;= 0.5</text>
<text text-anchor="middle" x="901" y="-392.2" font-family="Helvetica,sans-Serif" font-size="14.00">entropy = 0.93</text>
<text text-anchor="middle" x="901" y="-374.95" font-family="Helvetica,sans-Serif" font-size="14.00">samples = 12385</text>
<text text-anchor="middle" x="901" y="-357.7" font-family="Helvetica,sans-Serif" font-size="14.00">value = [6851, 12981]</text>
<text text-anchor="middle" x="901" y="-340.45" font-family="Helvetica,sans-Serif" font-size="14.00">class = Plant</text>
</g>
<!-- 0&#45;&gt;12658 -->
<g id="edge16" class="edge">
<title>0&#45;&gt;12658</title>
<path fill="none" stroke="black" d="M779.86,-462.39C793.8,-452.98 808.55,-443.03 822.79,-433.42"/>
<polygon fill="black" stroke="black" points="824.47,-436.51 830.8,-428.01 820.55,-430.7 824.47,-436.51"/>
<text text-anchor="middle" x="827.29" y="-447.03" font-family="Helvetica,sans-Serif" font-size="14.00">False</text>
</g>
<!-- 2 -->
<g id="node3" class="node">
<title>2</title>
<path fill="#f7dac4" stroke="black" d="M361,-296.5C361,-296.5 201,-296.5 201,-296.5 195,-296.5 189,-290.5 189,-284.5 189,-284.5 189,-214.25 189,-214.25 189,-208.25 195,-202.25 201,-202.25 201,-202.25 361,-202.25 361,-202.25 367,-202.25 373,-208.25 373,-214.25 373,-214.25 373,-284.5 373,-284.5 373,-290.5 367,-296.5 361,-296.5"/>
<text text-anchor="middle" x="281" y="-279.2" font-family="Helvetica,sans-Serif" font-size="14.00">23_U &lt;= 0.5</text>
<text text-anchor="middle" x="281" y="-261.95" font-family="Helvetica,sans-Serif" font-size="14.00">entropy = 0.978</text>
<text text-anchor="middle" x="281" y="-244.7" font-family="Helvetica,sans-Serif" font-size="14.00">samples = 19747</text>
<text text-anchor="middle" x="281" y="-227.45" font-family="Helvetica,sans-Serif" font-size="14.00">value = [18365, 12937]</text>
<text text-anchor="middle" x="281" y="-210.2" font-family="Helvetica,sans-Serif" font-size="14.00">class = Animal</text>
</g>
<!-- 1&#45;&gt;2 -->
<g id="edge2" class="edge">
<title>1&#45;&gt;2</title>
<path fill="none" stroke="black" d="M450.63,-333.41C428.91,-322.78 405.63,-311.38 383.5,-300.55"/>
<polygon fill="black" stroke="black" points="385.3,-297.53 374.78,-296.28 382.22,-303.82 385.3,-297.53"/>
</g>
<!-- 9949 -->
<g id="node10" class="node">
<title>9949</title>
<path fill="#fdf4ed" stroke="black" d="M614,-296.5C614,-296.5 472,-296.5 472,-296.5 466,-296.5 460,-290.5 460,-284.5 460,-284.5 460,-214.25 460,-214.25 460,-208.25 466,-202.25 472,-202.25 472,-202.25 614,-202.25 614,-202.25 620,-202.25 626,-208.25 626,-214.25 626,-214.25 626,-284.5 626,-284.5 626,-290.5 620,-296.5 614,-296.5"/>
<text text-anchor="middle" x="543" y="-279.2" font-family="Helvetica,sans-Serif" font-size="14.00">22_C &lt;= 0.5</text>
<text text-anchor="middle" x="543" y="-261.95" font-family="Helvetica,sans-Serif" font-size="14.00">entropy = 0.998</text>
<text text-anchor="middle" x="543" y="-244.7" font-family="Helvetica,sans-Serif" font-size="14.00">samples = 5894</text>
<text text-anchor="middle" x="543" y="-227.45" font-family="Helvetica,sans-Serif" font-size="14.00">value = [4825, 4386]</text>
<text text-anchor="middle" x="543" y="-210.2" font-family="Helvetica,sans-Serif" font-size="14.00">class = Animal</text>
</g>
<!-- 1&#45;&gt;9949 -->
<g id="edge9" class="edge">
<title>1&#45;&gt;9949</title>
<path fill="none" stroke="black" d="M543,-332.32C543,-324.42 543,-316.13 543,-307.98"/>
<polygon fill="black" stroke="black" points="546.5,-308.12 543,-298.12 539.5,-308.12 546.5,-308.12"/>
</g>
<!-- 3 -->
<g id="node4" class="node">
<title>3</title>
<path fill="#f9e0cf" stroke="black" d="M172,-166.25C172,-166.25 12,-166.25 12,-166.25 6,-166.25 0,-160.25 0,-154.25 0,-154.25 0,-84 0,-84 0,-78 6,-72 12,-72 12,-72 172,-72 172,-72 178,-72 184,-78 184,-84 184,-84 184,-154.25 184,-154.25 184,-160.25 178,-166.25 172,-166.25"/>
<text text-anchor="middle" x="92" y="-148.95" font-family="Helvetica,sans-Serif" font-size="14.00">18_U &lt;= 0.5</text>
<text text-anchor="middle" x="92" y="-131.7" font-family="Helvetica,sans-Serif" font-size="14.00">entropy = 0.986</text>
<text text-anchor="middle" x="92" y="-114.45" font-family="Helvetica,sans-Serif" font-size="14.00">samples = 18528</text>
<text text-anchor="middle" x="92" y="-97.2" font-family="Helvetica,sans-Serif" font-size="14.00">value = [16769, 12662]</text>
<text text-anchor="middle" x="92" y="-79.95" font-family="Helvetica,sans-Serif" font-size="14.00">class = Animal</text>
</g>
<!-- 2&#45;&gt;3 -->
<g id="edge3" class="edge">
<title>2&#45;&gt;3</title>
<path fill="none" stroke="black" d="M212.5,-201.89C198.63,-192.48 183.96,-182.53 169.8,-172.92"/>
<polygon fill="black" stroke="black" points="172.08,-170.23 161.84,-167.51 168.15,-176.03 172.08,-170.23"/>
</g>
<!-- 9528 -->
<g id="node7" class="node">
<title>9528</title>
<path fill="#e9975b" stroke="black" d="M347.5,-166.25C347.5,-166.25 214.5,-166.25 214.5,-166.25 208.5,-166.25 202.5,-160.25 202.5,-154.25 202.5,-154.25 202.5,-84 202.5,-84 202.5,-78 208.5,-72 214.5,-72 214.5,-72 347.5,-72 347.5,-72 353.5,-72 359.5,-78 359.5,-84 359.5,-84 359.5,-154.25 359.5,-154.25 359.5,-160.25 353.5,-166.25 347.5,-166.25"/>
<text text-anchor="middle" x="281" y="-148.95" font-family="Helvetica,sans-Serif" font-size="14.00">24_A &lt;= 0.5</text>
<text text-anchor="middle" x="281" y="-131.7" font-family="Helvetica,sans-Serif" font-size="14.00">entropy = 0.602</text>
<text text-anchor="middle" x="281" y="-114.45" font-family="Helvetica,sans-Serif" font-size="14.00">samples = 1219</text>
<text text-anchor="middle" x="281" y="-97.2" font-family="Helvetica,sans-Serif" font-size="14.00">value = [1596, 275]</text>
<text text-anchor="middle" x="281" y="-79.95" font-family="Helvetica,sans-Serif" font-size="14.00">class = Animal</text>
</g>
<!-- 2&#45;&gt;9528 -->
<g id="edge6" class="edge">
<title>2&#45;&gt;9528</title>
<path fill="none" stroke="black" d="M281,-202.07C281,-194.17 281,-185.88 281,-177.73"/>
<polygon fill="black" stroke="black" points="284.5,-177.87 281,-167.87 277.5,-177.87 284.5,-177.87"/>
</g>
<!-- 4 -->
<g id="node5" class="node">
<title>4</title>
<path fill="#c0c0c0" stroke="black" d="M71,-36C71,-36 41,-36 41,-36 35,-36 29,-30 29,-24 29,-24 29,-12 29,-12 29,-6 35,0 41,0 41,0 71,0 71,0 77,0 83,-6 83,-12 83,-12 83,-24 83,-24 83,-30 77,-36 71,-36"/>
<text text-anchor="middle" x="56" y="-13.32" font-family="Helvetica,sans-Serif" font-size="14.00">(...)</text>
</g>
<!-- 3&#45;&gt;4 -->
<g id="edge4" class="edge">
<title>3&#45;&gt;4</title>
<path fill="none" stroke="black" d="M75.16,-71.75C72.06,-63.22 68.92,-54.57 66.1,-46.8"/>
<polygon fill="black" stroke="black" points="69.46,-45.8 62.75,-37.6 62.88,-48.19 69.46,-45.8"/>
</g>
<!-- 7087 -->
<g id="node6" class="node">
<title>7087</title>
<path fill="#c0c0c0" stroke="black" d="M143,-36C143,-36 113,-36 113,-36 107,-36 101,-30 101,-24 101,-24 101,-12 101,-12 101,-6 107,0 113,0 113,0 143,0 143,0 149,0 155,-6 155,-12 155,-12 155,-24 155,-24 155,-30 149,-36 143,-36"/>
<text text-anchor="middle" x="128" y="-13.32" font-family="Helvetica,sans-Serif" font-size="14.00">(...)</text>
</g>
<!-- 3&#45;&gt;7087 -->
<g id="edge5" class="edge">
<title>3&#45;&gt;7087</title>
<path fill="none" stroke="black" d="M108.84,-71.75C111.94,-63.22 115.08,-54.57 117.9,-46.8"/>
<polygon fill="black" stroke="black" points="121.12,-48.19 121.25,-37.6 114.54,-45.8 121.12,-48.19"/>
</g>
<!-- 9529 -->
<g id="node8" class="node">
<title>9529</title>
<path fill="#c0c0c0" stroke="black" d="M257,-36C257,-36 227,-36 227,-36 221,-36 215,-30 215,-24 215,-24 215,-12 215,-12 215,-6 221,0 227,0 227,0 257,0 257,0 263,0 269,-6 269,-12 269,-12 269,-24 269,-24 269,-30 263,-36 257,-36"/>
<text text-anchor="middle" x="242" y="-13.32" font-family="Helvetica,sans-Serif" font-size="14.00">(...)</text>
</g>
<!-- 9528&#45;&gt;9529 -->
<g id="edge7" class="edge">
<title>9528&#45;&gt;9529</title>
<path fill="none" stroke="black" d="M262.76,-71.75C259.4,-63.22 255.99,-54.57 252.94,-46.8"/>
<polygon fill="black" stroke="black" points="256.23,-45.61 249.31,-37.58 249.71,-48.17 256.23,-45.61"/>
</g>
<!-- 9908 -->
<g id="node9" class="node">
<title>9908</title>
<path fill="#c0c0c0" stroke="black" d="M329,-36C329,-36 299,-36 299,-36 293,-36 287,-30 287,-24 287,-24 287,-12 287,-12 287,-6 293,0 299,0 299,0 329,0 329,0 335,0 341,-6 341,-12 341,-12 341,-24 341,-24 341,-30 335,-36 329,-36"/>
<text text-anchor="middle" x="314" y="-13.32" font-family="Helvetica,sans-Serif" font-size="14.00">(...)</text>
</g>
<!-- 9528&#45;&gt;9908 -->
<g id="edge8" class="edge">
<title>9528&#45;&gt;9908</title>
<path fill="none" stroke="black" d="M296.44,-71.75C299.24,-63.32 302.09,-54.77 304.66,-47.07"/>
<polygon fill="black" stroke="black" points="307.97,-48.2 307.8,-37.61 301.33,-45.99 307.97,-48.2"/>
</g>
<!-- 9950 -->
<g id="node11" class="node">
<title>9950</title>
<path fill="#f9fcfe" stroke="black" d="M532,-166.25C532,-166.25 390,-166.25 390,-166.25 384,-166.25 378,-160.25 378,-154.25 378,-154.25 378,-84 378,-84 378,-78 384,-72 390,-72 390,-72 532,-72 532,-72 538,-72 544,-78 544,-84 544,-84 544,-154.25 544,-154.25 544,-160.25 538,-166.25 532,-166.25"/>
<text text-anchor="middle" x="461" y="-148.95" font-family="Helvetica,sans-Serif" font-size="14.00">13_C &lt;= 0.5</text>
<text text-anchor="middle" x="461" y="-131.7" font-family="Helvetica,sans-Serif" font-size="14.00">entropy = 1.0</text>
<text text-anchor="middle" x="461" y="-114.45" font-family="Helvetica,sans-Serif" font-size="14.00">samples = 5259</text>
<text text-anchor="middle" x="461" y="-97.2" font-family="Helvetica,sans-Serif" font-size="14.00">value = [4056, 4188]</text>
<text text-anchor="middle" x="461" y="-79.95" font-family="Helvetica,sans-Serif" font-size="14.00">class = Plant</text>
</g>
<!-- 9949&#45;&gt;9950 -->
<g id="edge10" class="edge">
<title>9949&#45;&gt;9950</title>
<path fill="none" stroke="black" d="M513.4,-202.07C508,-193.63 502.31,-184.74 496.75,-176.05"/>
<polygon fill="black" stroke="black" points="499.71,-174.17 491.38,-167.63 493.81,-177.94 499.71,-174.17"/>
</g>
<!-- 12355 -->
<g id="node14" class="node">
<title>12355</title>
<path fill="#eca16c" stroke="black" d="M698,-166.25C698,-166.25 574,-166.25 574,-166.25 568,-166.25 562,-160.25 562,-154.25 562,-154.25 562,-84 562,-84 562,-78 568,-72 574,-72 574,-72 698,-72 698,-72 704,-72 710,-78 710,-84 710,-84 710,-154.25 710,-154.25 710,-160.25 704,-166.25 698,-166.25"/>
<text text-anchor="middle" x="636" y="-148.95" font-family="Helvetica,sans-Serif" font-size="14.00">25_G &lt;= 0.5</text>
<text text-anchor="middle" x="636" y="-131.7" font-family="Helvetica,sans-Serif" font-size="14.00">entropy = 0.731</text>
<text text-anchor="middle" x="636" y="-114.45" font-family="Helvetica,sans-Serif" font-size="14.00">samples = 635</text>
<text text-anchor="middle" x="636" y="-97.2" font-family="Helvetica,sans-Serif" font-size="14.00">value = [769, 198]</text>
<text text-anchor="middle" x="636" y="-79.95" font-family="Helvetica,sans-Serif" font-size="14.00">class = Animal</text>
</g>
<!-- 9949&#45;&gt;12355 -->
<g id="edge13" class="edge">
<title>9949&#45;&gt;12355</title>
<path fill="none" stroke="black" d="M576.58,-202.07C582.83,-193.45 589.43,-184.35 595.85,-175.49"/>
<polygon fill="black" stroke="black" points="598.55,-177.73 601.59,-167.58 592.88,-173.62 598.55,-177.73"/>
</g>
<!-- 9951 -->
<g id="node12" class="node">
<title>9951</title>
<path fill="#c0c0c0" stroke="black" d="M419,-36C419,-36 389,-36 389,-36 383,-36 377,-30 377,-24 377,-24 377,-12 377,-12 377,-6 383,0 389,0 389,0 419,0 419,0 425,0 431,-6 431,-12 431,-12 431,-24 431,-24 431,-30 425,-36 419,-36"/>
<text text-anchor="middle" x="404" y="-13.32" font-family="Helvetica,sans-Serif" font-size="14.00">(...)</text>
</g>
<!-- 9950&#45;&gt;9951 -->
<g id="edge11" class="edge">
<title>9950&#45;&gt;9951</title>
<path fill="none" stroke="black" d="M434.34,-71.75C429.26,-62.93 424.1,-53.96 419.52,-45.99"/>
<polygon fill="black" stroke="black" points="422.65,-44.41 414.63,-37.48 416.58,-47.9 422.65,-44.41"/>
</g>
<!-- 11826 -->
<g id="node13" class="node">
<title>11826</title>
<path fill="#c0c0c0" stroke="black" d="M491,-36C491,-36 461,-36 461,-36 455,-36 449,-30 449,-24 449,-24 449,-12 449,-12 449,-6 455,0 461,0 461,0 491,0 491,0 497,0 503,-6 503,-12 503,-12 503,-24 503,-24 503,-30 497,-36 491,-36"/>
<text text-anchor="middle" x="476" y="-13.32" font-family="Helvetica,sans-Serif" font-size="14.00">(...)</text>
</g>
<!-- 9950&#45;&gt;11826 -->
<g id="edge12" class="edge">
<title>9950&#45;&gt;11826</title>
<path fill="none" stroke="black" d="M468.02,-71.75C469.28,-63.42 470.56,-54.97 471.71,-47.34"/>
<polygon fill="black" stroke="black" points="475.14,-48.08 473.17,-37.67 468.22,-47.03 475.14,-48.08"/>
</g>
<!-- 12356 -->
<g id="node15" class="node">
<title>12356</title>
<path fill="#c0c0c0" stroke="black" d="M594,-36C594,-36 564,-36 564,-36 558,-36 552,-30 552,-24 552,-24 552,-12 552,-12 552,-6 558,0 564,0 564,0 594,0 594,0 600,0 606,-6 606,-12 606,-12 606,-24 606,-24 606,-30 600,-36 594,-36"/>
<text text-anchor="middle" x="579" y="-13.32" font-family="Helvetica,sans-Serif" font-size="14.00">(...)</text>
</g>
<!-- 12355&#45;&gt;12356 -->
<g id="edge14" class="edge">
<title>12355&#45;&gt;12356</title>
<path fill="none" stroke="black" d="M609.34,-71.75C604.26,-62.93 599.1,-53.96 594.52,-45.99"/>
<polygon fill="black" stroke="black" points="597.65,-44.41 589.63,-37.48 591.58,-47.9 597.65,-44.41"/>
</g>
<!-- 12651 -->
<g id="node16" class="node">
<title>12651</title>
<path fill="#c0c0c0" stroke="black" d="M666,-36C666,-36 636,-36 636,-36 630,-36 624,-30 624,-24 624,-24 624,-12 624,-12 624,-6 630,0 636,0 636,0 666,0 666,0 672,0 678,-6 678,-12 678,-12 678,-24 678,-24 678,-30 672,-36 666,-36"/>
<text text-anchor="middle" x="651" y="-13.32" font-family="Helvetica,sans-Serif" font-size="14.00">(...)</text>
</g>
<!-- 12355&#45;&gt;12651 -->
<g id="edge15" class="edge">
<title>12355&#45;&gt;12651</title>
<path fill="none" stroke="black" d="M643.02,-71.75C644.28,-63.42 645.56,-54.97 646.71,-47.34"/>
<polygon fill="black" stroke="black" points="650.14,-48.08 648.17,-37.67 643.22,-47.03 650.14,-48.08"/>
</g>
<!-- 12659 -->
<g id="node18" class="node">
<title>12659</title>
<path fill="#8cc6f0" stroke="black" d="M976.5,-296.5C976.5,-296.5 825.5,-296.5 825.5,-296.5 819.5,-296.5 813.5,-290.5 813.5,-284.5 813.5,-284.5 813.5,-214.25 813.5,-214.25 813.5,-208.25 819.5,-202.25 825.5,-202.25 825.5,-202.25 976.5,-202.25 976.5,-202.25 982.5,-202.25 988.5,-208.25 988.5,-214.25 988.5,-214.25 988.5,-284.5 988.5,-284.5 988.5,-290.5 982.5,-296.5 976.5,-296.5"/>
<text text-anchor="middle" x="901" y="-279.2" font-family="Helvetica,sans-Serif" font-size="14.00">8_G &lt;= 0.5</text>
<text text-anchor="middle" x="901" y="-261.95" font-family="Helvetica,sans-Serif" font-size="14.00">entropy = 0.877</text>
<text text-anchor="middle" x="901" y="-244.7" font-family="Helvetica,sans-Serif" font-size="14.00">samples = 10628</text>
<text text-anchor="middle" x="901" y="-227.45" font-family="Helvetica,sans-Serif" font-size="14.00">value = [5051, 11990]</text>
<text text-anchor="middle" x="901" y="-210.2" font-family="Helvetica,sans-Serif" font-size="14.00">class = Plant</text>
</g>
<!-- 12658&#45;&gt;12659 -->
<g id="edge17" class="edge">
<title>12658&#45;&gt;12659</title>
<path fill="none" stroke="black" d="M901,-332.32C901,-324.42 901,-316.13 901,-307.98"/>
<polygon fill="black" stroke="black" points="904.5,-308.12 901,-298.12 897.5,-308.12 904.5,-308.12"/>
</g>
<!-- 15784 -->
<g id="node25" class="node">
<title>15784</title>
<path fill="#f3c6a6" stroke="black" d="M1241.5,-296.5C1241.5,-296.5 1108.5,-296.5 1108.5,-296.5 1102.5,-296.5 1096.5,-290.5 1096.5,-284.5 1096.5,-284.5 1096.5,-214.25 1096.5,-214.25 1096.5,-208.25 1102.5,-202.25 1108.5,-202.25 1108.5,-202.25 1241.5,-202.25 1241.5,-202.25 1247.5,-202.25 1253.5,-208.25 1253.5,-214.25 1253.5,-214.25 1253.5,-284.5 1253.5,-284.5 1253.5,-290.5 1247.5,-296.5 1241.5,-296.5"/>
<text text-anchor="middle" x="1175" y="-279.2" font-family="Helvetica,sans-Serif" font-size="14.00">13_C &lt;= 0.5</text>
<text text-anchor="middle" x="1175" y="-261.95" font-family="Helvetica,sans-Serif" font-size="14.00">entropy = 0.939</text>
<text text-anchor="middle" x="1175" y="-244.7" font-family="Helvetica,sans-Serif" font-size="14.00">samples = 1757</text>
<text text-anchor="middle" x="1175" y="-227.45" font-family="Helvetica,sans-Serif" font-size="14.00">value = [1800, 991]</text>
<text text-anchor="middle" x="1175" y="-210.2" font-family="Helvetica,sans-Serif" font-size="14.00">class = Animal</text>
</g>
<!-- 12658&#45;&gt;15784 -->
<g id="edge24" class="edge">
<title>12658&#45;&gt;15784</title>
<path fill="none" stroke="black" d="M988.83,-337.52C1019.77,-323.04 1054.56,-306.75 1085.63,-292.21"/>
<polygon fill="black" stroke="black" points="1087.07,-295.4 1094.64,-287.99 1084.1,-289.06 1087.07,-295.4"/>
</g>
<!-- 12660 -->
<g id="node19" class="node">
<title>12660</title>
<path fill="#acd6f4" stroke="black" d="M882,-166.25C882,-166.25 740,-166.25 740,-166.25 734,-166.25 728,-160.25 728,-154.25 728,-154.25 728,-84 728,-84 728,-78 734,-72 740,-72 740,-72 882,-72 882,-72 888,-72 894,-78 894,-84 894,-84 894,-154.25 894,-154.25 894,-160.25 888,-166.25 882,-166.25"/>
<text text-anchor="middle" x="811" y="-148.95" font-family="Helvetica,sans-Serif" font-size="14.00">13_U &lt;= 0.5</text>
<text text-anchor="middle" x="811" y="-131.7" font-family="Helvetica,sans-Serif" font-size="14.00">entropy = 0.949</text>
<text text-anchor="middle" x="811" y="-114.45" font-family="Helvetica,sans-Serif" font-size="14.00">samples = 6795</text>
<text text-anchor="middle" x="811" y="-97.2" font-family="Helvetica,sans-Serif" font-size="14.00">value = [3989, 6849]</text>
<text text-anchor="middle" x="811" y="-79.95" font-family="Helvetica,sans-Serif" font-size="14.00">class = Plant</text>
</g>
<!-- 12659&#45;&gt;12660 -->
<g id="edge18" class="edge">
<title>12659&#45;&gt;12660</title>
<path fill="none" stroke="black" d="M868.51,-202.07C862.52,-193.54 856.21,-184.54 850.05,-175.77"/>
<polygon fill="black" stroke="black" points="852.92,-173.77 844.31,-167.6 847.19,-177.79 852.92,-173.77"/>
</g>
<!-- 14975 -->
<g id="node22" class="node">
<title>14975</title>
<path fill="#62b1ea" stroke="black" d="M1066,-166.25C1066,-166.25 924,-166.25 924,-166.25 918,-166.25 912,-160.25 912,-154.25 912,-154.25 912,-84 912,-84 912,-78 918,-72 924,-72 924,-72 1066,-72 1066,-72 1072,-72 1078,-78 1078,-84 1078,-84 1078,-154.25 1078,-154.25 1078,-160.25 1072,-166.25 1066,-166.25"/>
<text text-anchor="middle" x="995" y="-148.95" font-family="Helvetica,sans-Serif" font-size="14.00">15_U &lt;= 0.5</text>
<text text-anchor="middle" x="995" y="-131.7" font-family="Helvetica,sans-Serif" font-size="14.00">entropy = 0.66</text>
<text text-anchor="middle" x="995" y="-114.45" font-family="Helvetica,sans-Serif" font-size="14.00">samples = 3833</text>
<text text-anchor="middle" x="995" y="-97.2" font-family="Helvetica,sans-Serif" font-size="14.00">value = [1062, 5141]</text>
<text text-anchor="middle" x="995" y="-79.95" font-family="Helvetica,sans-Serif" font-size="14.00">class = Plant</text>
</g>
<!-- 12659&#45;&gt;14975 -->
<g id="edge21" class="edge">
<title>12659&#45;&gt;14975</title>
<path fill="none" stroke="black" d="M934.94,-202.07C941.26,-193.45 947.92,-184.35 954.42,-175.49"/>
<polygon fill="black" stroke="black" points="957.13,-177.71 960.22,-167.58 951.48,-173.58 957.13,-177.71"/>
</g>
<!-- 12661 -->
<g id="node20" class="node">
<title>12661</title>
<path fill="#c0c0c0" stroke="black" d="M774,-36C774,-36 744,-36 744,-36 738,-36 732,-30 732,-24 732,-24 732,-12 732,-12 732,-6 738,0 744,0 744,0 774,0 774,0 780,0 786,-6 786,-12 786,-12 786,-24 786,-24 786,-30 780,-36 774,-36"/>
<text text-anchor="middle" x="759" y="-13.32" font-family="Helvetica,sans-Serif" font-size="14.00">(...)</text>
</g>
<!-- 12660&#45;&gt;12661 -->
<g id="edge19" class="edge">
<title>12660&#45;&gt;12661</title>
<path fill="none" stroke="black" d="M786.67,-71.75C782.1,-63.03 777.45,-54.16 773.3,-46.26"/>
<polygon fill="black" stroke="black" points="776.46,-44.74 768.71,-37.51 770.26,-47.99 776.46,-44.74"/>
</g>
<!-- 14288 -->
<g id="node21" class="node">
<title>14288</title>
<path fill="#c0c0c0" stroke="black" d="M846,-36C846,-36 816,-36 816,-36 810,-36 804,-30 804,-24 804,-24 804,-12 804,-12 804,-6 810,0 816,0 816,0 846,0 846,0 852,0 858,-6 858,-12 858,-12 858,-24 858,-24 858,-30 852,-36 846,-36"/>
<text text-anchor="middle" x="831" y="-13.32" font-family="Helvetica,sans-Serif" font-size="14.00">(...)</text>
</g>
<!-- 12660&#45;&gt;14288 -->
<g id="edge20" class="edge">
<title>12660&#45;&gt;14288</title>
<path fill="none" stroke="black" d="M820.36,-71.75C822.04,-63.42 823.74,-54.97 825.28,-47.34"/>
<polygon fill="black" stroke="black" points="828.69,-48.15 827.24,-37.66 821.83,-46.77 828.69,-48.15"/>
</g>
<!-- 14976 -->
<g id="node23" class="node">
<title>14976</title>
<path fill="#c0c0c0" stroke="black" d="M956,-36C956,-36 926,-36 926,-36 920,-36 914,-30 914,-24 914,-24 914,-12 914,-12 914,-6 920,0 926,0 926,0 956,0 956,0 962,0 968,-6 968,-12 968,-12 968,-24 968,-24 968,-30 962,-36 956,-36"/>
<text text-anchor="middle" x="941" y="-13.32" font-family="Helvetica,sans-Serif" font-size="14.00">(...)</text>
</g>
<!-- 14975&#45;&gt;14976 -->
<g id="edge22" class="edge">
<title>14975&#45;&gt;14976</title>
<path fill="none" stroke="black" d="M969.74,-71.75C964.98,-63.03 960.16,-54.16 955.85,-46.26"/>
<polygon fill="black" stroke="black" points="958.94,-44.61 951.08,-37.5 952.79,-47.96 958.94,-44.61"/>
</g>
<!-- 15537 -->
<g id="node24" class="node">
<title>15537</title>
<path fill="#c0c0c0" stroke="black" d="M1028,-36C1028,-36 998,-36 998,-36 992,-36 986,-30 986,-24 986,-24 986,-12 986,-12 986,-6 992,0 998,0 998,0 1028,0 1028,0 1034,0 1040,-6 1040,-12 1040,-12 1040,-24 1040,-24 1040,-30 1034,-36 1028,-36"/>
<text text-anchor="middle" x="1013" y="-13.32" font-family="Helvetica,sans-Serif" font-size="14.00">(...)</text>
</g>
<!-- 14975&#45;&gt;15537 -->
<g id="edge23" class="edge">
<title>14975&#45;&gt;15537</title>
<path fill="none" stroke="black" d="M1003.42,-71.75C1004.93,-63.42 1006.47,-54.97 1007.85,-47.34"/>
<polygon fill="black" stroke="black" points="1011.27,-48.13 1009.61,-37.66 1004.38,-46.88 1011.27,-48.13"/>
</g>
<!-- 15785 -->
<g id="node26" class="node">
<title>15785</title>
<path fill="#f6d4bb" stroke="black" d="M1241.5,-166.25C1241.5,-166.25 1108.5,-166.25 1108.5,-166.25 1102.5,-166.25 1096.5,-160.25 1096.5,-154.25 1096.5,-154.25 1096.5,-84 1096.5,-84 1096.5,-78 1102.5,-72 1108.5,-72 1108.5,-72 1241.5,-72 1241.5,-72 1247.5,-72 1253.5,-78 1253.5,-84 1253.5,-84 1253.5,-154.25 1253.5,-154.25 1253.5,-160.25 1247.5,-166.25 1241.5,-166.25"/>
<text text-anchor="middle" x="1175" y="-148.95" font-family="Helvetica,sans-Serif" font-size="14.00">9_U &lt;= 0.5</text>
<text text-anchor="middle" x="1175" y="-131.7" font-family="Helvetica,sans-Serif" font-size="14.00">entropy = 0.969</text>
<text text-anchor="middle" x="1175" y="-114.45" font-family="Helvetica,sans-Serif" font-size="14.00">samples = 1341</text>
<text text-anchor="middle" x="1175" y="-97.2" font-family="Helvetica,sans-Serif" font-size="14.00">value = [1285, 843]</text>
<text text-anchor="middle" x="1175" y="-79.95" font-family="Helvetica,sans-Serif" font-size="14.00">class = Animal</text>
</g>
<!-- 15784&#45;&gt;15785 -->
<g id="edge25" class="edge">
<title>15784&#45;&gt;15785</title>
<path fill="none" stroke="black" d="M1175,-202.07C1175,-194.17 1175,-185.88 1175,-177.73"/>
<polygon fill="black" stroke="black" points="1178.5,-177.87 1175,-167.87 1171.5,-177.87 1178.5,-177.87"/>
</g>
<!-- 16554 -->
<g id="node29" class="node">
<title>16554</title>
<path fill="#eca572" stroke="black" d="M1408,-166.25C1408,-166.25 1284,-166.25 1284,-166.25 1278,-166.25 1272,-160.25 1272,-154.25 1272,-154.25 1272,-84 1272,-84 1272,-78 1278,-72 1284,-72 1284,-72 1408,-72 1408,-72 1414,-72 1420,-78 1420,-84 1420,-84 1420,-154.25 1420,-154.25 1420,-160.25 1414,-166.25 1408,-166.25"/>
<text text-anchor="middle" x="1346" y="-148.95" font-family="Helvetica,sans-Serif" font-size="14.00">12_G &lt;= 0.5</text>
<text text-anchor="middle" x="1346" y="-131.7" font-family="Helvetica,sans-Serif" font-size="14.00">entropy = 0.766</text>
<text text-anchor="middle" x="1346" y="-114.45" font-family="Helvetica,sans-Serif" font-size="14.00">samples = 416</text>
<text text-anchor="middle" x="1346" y="-97.2" font-family="Helvetica,sans-Serif" font-size="14.00">value = [515, 148]</text>
<text text-anchor="middle" x="1346" y="-79.95" font-family="Helvetica,sans-Serif" font-size="14.00">class = Animal</text>
</g>
<!-- 15784&#45;&gt;16554 -->
<g id="edge28" class="edge">
<title>15784&#45;&gt;16554</title>
<path fill="none" stroke="black" d="M1236.73,-202.07C1249.13,-192.78 1262.25,-182.94 1274.93,-173.43"/>
<polygon fill="black" stroke="black" points="1276.96,-176.28 1282.86,-167.48 1272.76,-170.68 1276.96,-176.28"/>
</g>
<!-- 15786 -->
<g id="node27" class="node">
<title>15786</title>
<path fill="#c0c0c0" stroke="black" d="M1149,-36C1149,-36 1119,-36 1119,-36 1113,-36 1107,-30 1107,-24 1107,-24 1107,-12 1107,-12 1107,-6 1113,0 1119,0 1119,0 1149,0 1149,0 1155,0 1161,-6 1161,-12 1161,-12 1161,-24 1161,-24 1161,-30 1155,-36 1149,-36"/>
<text text-anchor="middle" x="1134" y="-13.32" font-family="Helvetica,sans-Serif" font-size="14.00">(...)</text>
</g>
<!-- 15785&#45;&gt;15786 -->
<g id="edge26" class="edge">
<title>15785&#45;&gt;15786</title>
<path fill="none" stroke="black" d="M1155.82,-71.75C1152.29,-63.22 1148.71,-54.57 1145.5,-46.8"/>
<polygon fill="black" stroke="black" points="1148.74,-45.47 1141.68,-37.57 1142.27,-48.15 1148.74,-45.47"/>
</g>
<!-- 16343 -->
<g id="node28" class="node">
<title>16343</title>
<path fill="#c0c0c0" stroke="black" d="M1221,-36C1221,-36 1191,-36 1191,-36 1185,-36 1179,-30 1179,-24 1179,-24 1179,-12 1179,-12 1179,-6 1185,0 1191,0 1191,0 1221,0 1221,0 1227,0 1233,-6 1233,-12 1233,-12 1233,-24 1233,-24 1233,-30 1227,-36 1221,-36"/>
<text text-anchor="middle" x="1206" y="-13.32" font-family="Helvetica,sans-Serif" font-size="14.00">(...)</text>
</g>
<!-- 15785&#45;&gt;16343 -->
<g id="edge27" class="edge">
<title>15785&#45;&gt;16343</title>
<path fill="none" stroke="black" d="M1189.5,-71.75C1192.14,-63.32 1194.81,-54.77 1197.22,-47.07"/>
<polygon fill="black" stroke="black" points="1200.53,-48.21 1200.18,-37.62 1193.85,-46.12 1200.53,-48.21"/>
</g>
<!-- 16555 -->
<g id="node30" class="node">
<title>16555</title>
<path fill="#c0c0c0" stroke="black" d="M1325,-36C1325,-36 1295,-36 1295,-36 1289,-36 1283,-30 1283,-24 1283,-24 1283,-12 1283,-12 1283,-6 1289,0 1295,0 1295,0 1325,0 1325,0 1331,0 1337,-6 1337,-12 1337,-12 1337,-24 1337,-24 1337,-30 1331,-36 1325,-36"/>
<text text-anchor="middle" x="1310" y="-13.32" font-family="Helvetica,sans-Serif" font-size="14.00">(...)</text>
</g>
<!-- 16554&#45;&gt;16555 -->
<g id="edge29" class="edge">
<title>16554&#45;&gt;16555</title>
<path fill="none" stroke="black" d="M1329.16,-71.75C1326.06,-63.22 1322.92,-54.57 1320.1,-46.8"/>
<polygon fill="black" stroke="black" points="1323.46,-45.8 1316.75,-37.6 1316.88,-48.19 1323.46,-45.8"/>
</g>
<!-- 16706 -->
<g id="node31" class="node">
<title>16706</title>
<path fill="#c0c0c0" stroke="black" d="M1397,-36C1397,-36 1367,-36 1367,-36 1361,-36 1355,-30 1355,-24 1355,-24 1355,-12 1355,-12 1355,-6 1361,0 1367,0 1367,0 1397,0 1397,0 1403,0 1409,-6 1409,-12 1409,-12 1409,-24 1409,-24 1409,-30 1403,-36 1397,-36"/>
<text text-anchor="middle" x="1382" y="-13.32" font-family="Helvetica,sans-Serif" font-size="14.00">(...)</text>
</g>
<!-- 16554&#45;&gt;16706 -->
<g id="edge30" class="edge">
<title>16554&#45;&gt;16706</title>
<path fill="none" stroke="black" d="M1362.84,-71.75C1365.94,-63.22 1369.08,-54.57 1371.9,-46.8"/>
<polygon fill="black" stroke="black" points="1375.12,-48.19 1375.25,-37.6 1368.54,-45.8 1375.12,-48.19"/>
</g>
</g>
</svg>
