<?xml version="1.0" encoding="UTF-8" standalone="no"?>
<!DOCTYPE svg PUBLIC "-//W3C//DTD SVG 1.1//EN"
 "http://www.w3.org/Graphics/SVG/1.1/DTD/svg11.dtd">
<!-- Generated by graphviz version 12.0.0 (20240803.0821)
 -->
<!-- Title: Tree Pages: 1 -->
<svg width="1400pt" height="565pt"
 viewBox="0.00 0.00 1400.38 565.00" xmlns="http://www.w3.org/2000/svg" xmlns:xlink="http://www.w3.org/1999/xlink">
<g id="graph0" class="graph" transform="scale(1 1) rotate(0) translate(4 561)">
<title>Tree</title>
<polygon fill="white" stroke="none" points="-4,4 -4,-561 1396.38,-561 1396.38,4 -4,4"/>
<!-- 0 -->
<g id="node1" class="node">
<title>0</title>
<path fill="#fffefd" stroke="black" d="M791,-557C791,-557 631,-557 631,-557 625,-557 619,-551 619,-545 619,-545 619,-474.75 619,-474.75 619,-468.75 625,-462.75 631,-462.75 631,-462.75 791,-462.75 791,-462.75 797,-462.75 803,-468.75 803,-474.75 803,-474.75 803,-545 803,-545 803,-551 797,-557 791,-557"/>
<text text-anchor="middle" x="711" y="-539.7" font-family="Helvetica,sans-Serif" font-size="14.00">19_C &lt;= 0.5</text>
<text text-anchor="middle" x="711" y="-522.45" font-family="Helvetica,sans-Serif" font-size="14.00">entropy = 1.0</text>
<text text-anchor="middle" x="711" y="-505.2" font-family="Helvetica,sans-Serif" font-size="14.00">samples = 38200</text>
<text text-anchor="middle" x="711" y="-487.95" font-family="Helvetica,sans-Serif" font-size="14.00">value = [30332, 30013]</text>
<text text-anchor="middle" x="711" y="-470.7" font-family="Helvetica,sans-Serif" font-size="14.00">class = Animal</text>
</g>
<!-- 1 -->
<g id="node2" class="node">
<title>1</title>
<path fill="#f8dfcc" stroke="black" d="M623,-426.75C623,-426.75 463,-426.75 463,-426.75 457,-426.75 451,-420.75 451,-414.75 451,-414.75 451,-344.5 451,-344.5 451,-338.5 457,-332.5 463,-332.5 463,-332.5 623,-332.5 623,-332.5 629,-332.5 635,-338.5 635,-344.5 635,-344.5 635,-414.75 635,-414.75 635,-420.75 629,-426.75 623,-426.75"/>
<text text-anchor="middle" x="543" y="-409.45" font-family="Helvetica,sans-Serif" font-size="14.00">23_U &lt;= 0.5</text>
<text text-anchor="middle" x="543" y="-392.2" font-family="Helvetica,sans-Serif" font-size="14.00">entropy = 0.984</text>
<text text-anchor="middle" x="543" y="-374.95" font-family="Helvetica,sans-Serif" font-size="14.00">samples = 25823</text>
<text text-anchor="middle" x="543" y="-357.7" font-family="Helvetica,sans-Serif" font-size="14.00">value = [23360, 17363]</text>
<text text-anchor="middle" x="543" y="-340.45" font-family="Helvetica,sans-Serif" font-size="14.00">class = Animal</text>
</g>
<!-- 0&#45;&gt;1 -->
<g id="edge1" class="edge">
<title>0&#45;&gt;1</title>
<path fill="none" stroke="black" d="M650.35,-462.57C638.17,-453.28 625.28,-443.44 612.82,-433.93"/>
<polygon fill="black" stroke="black" points="615.12,-431.28 605.05,-427.99 610.87,-436.84 615.12,-431.28"/>
<text text-anchor="middle" x="607.17" y="-447.18" font-family="Helvetica,sans-Serif" font-size="14.00">True</text>
</g>
<!-- 12790 -->
<g id="node17" class="node">
<title>12790</title>
<path fill="#a6d3f3" stroke="black" d="M975.5,-426.75C975.5,-426.75 824.5,-426.75 824.5,-426.75 818.5,-426.75 812.5,-420.75 812.5,-414.75 812.5,-414.75 812.5,-344.5 812.5,-344.5 812.5,-338.5 818.5,-332.5 824.5,-332.5 824.5,-332.5 975.5,-332.5 975.5,-332.5 981.5,-332.5 987.5,-338.5 987.5,-344.5 987.5,-344.5 987.5,-414.75 987.5,-414.75 987.5,-420.75 981.5,-426.75 975.5,-426.75"/>
<text text-anchor="middle" x="900" y="-409.45" font-family="Helvetica,sans-Serif" font-size="14.00">23_G &lt;= 0.5</text>
<text text-anchor="middle" x="900" y="-392.2" font-family="Helvetica,sans-Serif" font-size="14.00">entropy = 0.939</text>
<text text-anchor="middle" x="900" y="-374.95" font-family="Helvetica,sans-Serif" font-size="14.00">samples = 12377</text>
<text text-anchor="middle" x="900" y="-357.7" font-family="Helvetica,sans-Serif" font-size="14.00">value = [6972, 12650]</text>
<text text-anchor="middle" x="900" y="-340.45" font-family="Helvetica,sans-Serif" font-size="14.00">class = Plant</text>
</g>
<!-- 0&#45;&gt;12790 -->
<g id="edge16" class="edge">
<title>0&#45;&gt;12790</title>
<path fill="none" stroke="black" d="M779.5,-462.39C793.37,-452.98 808.04,-443.03 822.2,-433.42"/>
<polygon fill="black" stroke="black" points="823.85,-436.53 830.16,-428.01 819.92,-430.73 823.85,-436.53"/>
<text text-anchor="middle" x="826.71" y="-447.04" font-family="Helvetica,sans-Serif" font-size="14.00">False</text>
</g>
<!-- 2 -->
<g id="node3" class="node">
<title>2</title>
<path fill="#fae6d8" stroke="black" d="M365,-296.5C365,-296.5 205,-296.5 205,-296.5 199,-296.5 193,-290.5 193,-284.5 193,-284.5 193,-214.25 193,-214.25 193,-208.25 199,-202.25 205,-202.25 205,-202.25 365,-202.25 365,-202.25 371,-202.25 377,-208.25 377,-214.25 377,-214.25 377,-284.5 377,-284.5 377,-290.5 371,-296.5 365,-296.5"/>
<text text-anchor="middle" x="285" y="-279.2" font-family="Helvetica,sans-Serif" font-size="14.00">22_C &lt;= 0.5</text>
<text text-anchor="middle" x="285" y="-261.95" font-family="Helvetica,sans-Serif" font-size="14.00">entropy = 0.991</text>
<text text-anchor="middle" x="285" y="-244.7" font-family="Helvetica,sans-Serif" font-size="14.00">samples = 24201</text>
<text text-anchor="middle" x="285" y="-227.45" font-family="Helvetica,sans-Serif" font-size="14.00">value = [21145, 16974]</text>
<text text-anchor="middle" x="285" y="-210.2" font-family="Helvetica,sans-Serif" font-size="14.00">class = Animal</text>
</g>
<!-- 1&#45;&gt;2 -->
<g id="edge2" class="edge">
<title>1&#45;&gt;2</title>
<path fill="none" stroke="black" d="M450.58,-332.69C430.08,-322.49 408.24,-311.63 387.36,-301.26"/>
<polygon fill="black" stroke="black" points="389.07,-298.2 378.56,-296.88 385.96,-304.47 389.07,-298.2"/>
</g>
<!-- 12209 -->
<g id="node10" class="node">
<title>12209</title>
<path fill="#ea975c" stroke="black" d="M609.5,-296.5C609.5,-296.5 476.5,-296.5 476.5,-296.5 470.5,-296.5 464.5,-290.5 464.5,-284.5 464.5,-284.5 464.5,-214.25 464.5,-214.25 464.5,-208.25 470.5,-202.25 476.5,-202.25 476.5,-202.25 609.5,-202.25 609.5,-202.25 615.5,-202.25 621.5,-208.25 621.5,-214.25 621.5,-214.25 621.5,-284.5 621.5,-284.5 621.5,-290.5 615.5,-296.5 609.5,-296.5"/>
<text text-anchor="middle" x="543" y="-279.2" font-family="Helvetica,sans-Serif" font-size="14.00">13_A &lt;= 0.5</text>
<text text-anchor="middle" x="543" y="-261.95" font-family="Helvetica,sans-Serif" font-size="14.00">entropy = 0.608</text>
<text text-anchor="middle" x="543" y="-244.7" font-family="Helvetica,sans-Serif" font-size="14.00">samples = 1622</text>
<text text-anchor="middle" x="543" y="-227.45" font-family="Helvetica,sans-Serif" font-size="14.00">value = [2215, 389]</text>
<text text-anchor="middle" x="543" y="-210.2" font-family="Helvetica,sans-Serif" font-size="14.00">class = Animal</text>
</g>
<!-- 1&#45;&gt;12209 -->
<g id="edge9" class="edge">
<title>1&#45;&gt;12209</title>
<path fill="none" stroke="black" d="M543,-332.32C543,-324.42 543,-316.13 543,-307.98"/>
<polygon fill="black" stroke="black" points="546.5,-308.12 543,-298.12 539.5,-308.12 546.5,-308.12"/>
</g>
<!-- 3 -->
<g id="node4" class="node">
<title>3</title>
<path fill="#fbede3" stroke="black" d="M172,-166.25C172,-166.25 12,-166.25 12,-166.25 6,-166.25 0,-160.25 0,-154.25 0,-154.25 0,-84 0,-84 0,-78 6,-72 12,-72 12,-72 172,-72 172,-72 178,-72 184,-78 184,-84 184,-84 184,-154.25 184,-154.25 184,-160.25 178,-166.25 172,-166.25"/>
<text text-anchor="middle" x="92" y="-148.95" font-family="Helvetica,sans-Serif" font-size="14.00">23_C &lt;= 0.5</text>
<text text-anchor="middle" x="92" y="-131.7" font-family="Helvetica,sans-Serif" font-size="14.00">entropy = 0.996</text>
<text text-anchor="middle" x="92" y="-114.45" font-family="Helvetica,sans-Serif" font-size="14.00">samples = 21970</text>
<text text-anchor="middle" x="92" y="-97.2" font-family="Helvetica,sans-Serif" font-size="14.00">value = [18533, 15943]</text>
<text text-anchor="middle" x="92" y="-79.95" font-family="Helvetica,sans-Serif" font-size="14.00">class = Animal</text>
</g>
<!-- 2&#45;&gt;3 -->
<g id="edge3" class="edge">
<title>2&#45;&gt;3</title>
<path fill="none" stroke="black" d="M215.05,-201.89C200.89,-192.48 185.9,-182.53 171.45,-172.92"/>
<polygon fill="black" stroke="black" points="173.56,-170.12 163.3,-167.5 169.69,-175.95 173.56,-170.12"/>
</g>
<!-- 11078 -->
<g id="node7" class="node">
<title>11078</title>
<path fill="#efb387" stroke="black" d="M356,-166.25C356,-166.25 214,-166.25 214,-166.25 208,-166.25 202,-160.25 202,-154.25 202,-154.25 202,-84 202,-84 202,-78 208,-72 214,-72 214,-72 356,-72 356,-72 362,-72 368,-78 368,-84 368,-84 368,-154.25 368,-154.25 368,-160.25 362,-166.25 356,-166.25"/>
<text text-anchor="middle" x="285" y="-148.95" font-family="Helvetica,sans-Serif" font-size="14.00">2_C &lt;= 0.5</text>
<text text-anchor="middle" x="285" y="-131.7" font-family="Helvetica,sans-Serif" font-size="14.00">entropy = 0.86</text>
<text text-anchor="middle" x="285" y="-114.45" font-family="Helvetica,sans-Serif" font-size="14.00">samples = 2231</text>
<text text-anchor="middle" x="285" y="-97.2" font-family="Helvetica,sans-Serif" font-size="14.00">value = [2612, 1031]</text>
<text text-anchor="middle" x="285" y="-79.95" font-family="Helvetica,sans-Serif" font-size="14.00">class = Animal</text>
</g>
<!-- 2&#45;&gt;11078 -->
<g id="edge6" class="edge">
<title>2&#45;&gt;11078</title>
<path fill="none" stroke="black" d="M285,-202.07C285,-194.17 285,-185.88 285,-177.73"/>
<polygon fill="black" stroke="black" points="288.5,-177.87 285,-167.87 281.5,-177.87 288.5,-177.87"/>
</g>
<!-- 4 -->
<g id="node5" class="node">
<title>4</title>
<path fill="#c0c0c0" stroke="black" d="M71,-36C71,-36 41,-36 41,-36 35,-36 29,-30 29,-24 29,-24 29,-12 29,-12 29,-6 35,0 41,0 41,0 71,0 71,0 77,0 83,-6 83,-12 83,-12 83,-24 83,-24 83,-30 77,-36 71,-36"/>
<text text-anchor="middle" x="56" y="-13.32" font-family="Helvetica,sans-Serif" font-size="14.00">(...)</text>
</g>
<!-- 3&#45;&gt;4 -->
<g id="edge4" class="edge">
<title>3&#45;&gt;4</title>
<path fill="none" stroke="black" d="M75.16,-71.75C72.06,-63.22 68.92,-54.57 66.1,-46.8"/>
<polygon fill="black" stroke="black" points="69.46,-45.8 62.75,-37.6 62.88,-48.19 69.46,-45.8"/>
</g>
<!-- 10727 -->
<g id="node6" class="node">
<title>10727</title>
<path fill="#c0c0c0" stroke="black" d="M143,-36C143,-36 113,-36 113,-36 107,-36 101,-30 101,-24 101,-24 101,-12 101,-12 101,-6 107,0 113,0 113,0 143,0 143,0 149,0 155,-6 155,-12 155,-12 155,-24 155,-24 155,-30 149,-36 143,-36"/>
<text text-anchor="middle" x="128" y="-13.32" font-family="Helvetica,sans-Serif" font-size="14.00">(...)</text>
</g>
<!-- 3&#45;&gt;10727 -->
<g id="edge5" class="edge">
<title>3&#45;&gt;10727</title>
<path fill="none" stroke="black" d="M108.84,-71.75C111.94,-63.22 115.08,-54.57 117.9,-46.8"/>
<polygon fill="black" stroke="black" points="121.12,-48.19 121.25,-37.6 114.54,-45.8 121.12,-48.19"/>
</g>
<!-- 11079 -->
<g id="node8" class="node">
<title>11079</title>
<path fill="#c0c0c0" stroke="black" d="M259,-36C259,-36 229,-36 229,-36 223,-36 217,-30 217,-24 217,-24 217,-12 217,-12 217,-6 223,0 229,0 229,0 259,0 259,0 265,0 271,-6 271,-12 271,-12 271,-24 271,-24 271,-30 265,-36 259,-36"/>
<text text-anchor="middle" x="244" y="-13.32" font-family="Helvetica,sans-Serif" font-size="14.00">(...)</text>
</g>
<!-- 11078&#45;&gt;11079 -->
<g id="edge7" class="edge">
<title>11078&#45;&gt;11079</title>
<path fill="none" stroke="black" d="M265.82,-71.75C262.29,-63.22 258.71,-54.57 255.5,-46.8"/>
<polygon fill="black" stroke="black" points="258.74,-45.47 251.68,-37.57 252.27,-48.15 258.74,-45.47"/>
</g>
<!-- 11968 -->
<g id="node9" class="node">
<title>11968</title>
<path fill="#c0c0c0" stroke="black" d="M331,-36C331,-36 301,-36 301,-36 295,-36 289,-30 289,-24 289,-24 289,-12 289,-12 289,-6 295,0 301,0 301,0 331,0 331,0 337,0 343,-6 343,-12 343,-12 343,-24 343,-24 343,-30 337,-36 331,-36"/>
<text text-anchor="middle" x="316" y="-13.32" font-family="Helvetica,sans-Serif" font-size="14.00">(...)</text>
</g>
<!-- 11078&#45;&gt;11968 -->
<g id="edge8" class="edge">
<title>11078&#45;&gt;11968</title>
<path fill="none" stroke="black" d="M299.5,-71.75C302.14,-63.32 304.81,-54.77 307.22,-47.07"/>
<polygon fill="black" stroke="black" points="310.53,-48.21 310.18,-37.62 303.85,-46.12 310.53,-48.21"/>
</g>
<!-- 12210 -->
<g id="node11" class="node">
<title>12210</title>
<path fill="#e99558" stroke="black" d="M531.5,-166.25C531.5,-166.25 398.5,-166.25 398.5,-166.25 392.5,-166.25 386.5,-160.25 386.5,-154.25 386.5,-154.25 386.5,-84 386.5,-84 386.5,-78 392.5,-72 398.5,-72 398.5,-72 531.5,-72 531.5,-72 537.5,-72 543.5,-78 543.5,-84 543.5,-84 543.5,-154.25 543.5,-154.25 543.5,-160.25 537.5,-166.25 531.5,-166.25"/>
<text text-anchor="middle" x="465" y="-148.95" font-family="Helvetica,sans-Serif" font-size="14.00">24_A &lt;= 0.5</text>
<text text-anchor="middle" x="465" y="-131.7" font-family="Helvetica,sans-Serif" font-size="14.00">entropy = 0.569</text>
<text text-anchor="middle" x="465" y="-114.45" font-family="Helvetica,sans-Serif" font-size="14.00">samples = 1308</text>
<text text-anchor="middle" x="465" y="-97.2" font-family="Helvetica,sans-Serif" font-size="14.00">value = [1843, 286]</text>
<text text-anchor="middle" x="465" y="-79.95" font-family="Helvetica,sans-Serif" font-size="14.00">class = Animal</text>
</g>
<!-- 12209&#45;&gt;12210 -->
<g id="edge10" class="edge">
<title>12209&#45;&gt;12210</title>
<path fill="none" stroke="black" d="M514.84,-202.07C509.7,-193.63 504.3,-184.74 499.01,-176.05"/>
<polygon fill="black" stroke="black" points="502.09,-174.38 493.9,-167.65 496.11,-178.01 502.09,-174.38"/>
</g>
<!-- 12655 -->
<g id="node14" class="node">
<title>12655</title>
<path fill="#eca470" stroke="black" d="M698,-166.25C698,-166.25 574,-166.25 574,-166.25 568,-166.25 562,-160.25 562,-154.25 562,-154.25 562,-84 562,-84 562,-78 568,-72 574,-72 574,-72 698,-72 698,-72 704,-72 710,-78 710,-84 710,-84 710,-154.25 710,-154.25 710,-160.25 704,-166.25 698,-166.25"/>
<text text-anchor="middle" x="636" y="-148.95" font-family="Helvetica,sans-Serif" font-size="14.00">24_A &lt;= 0.5</text>
<text text-anchor="middle" x="636" y="-131.7" font-family="Helvetica,sans-Serif" font-size="14.00">entropy = 0.754</text>
<text text-anchor="middle" x="636" y="-114.45" font-family="Helvetica,sans-Serif" font-size="14.00">samples = 314</text>
<text text-anchor="middle" x="636" y="-97.2" font-family="Helvetica,sans-Serif" font-size="14.00">value = [372, 103]</text>
<text text-anchor="middle" x="636" y="-79.95" font-family="Helvetica,sans-Serif" font-size="14.00">class = Animal</text>
</g>
<!-- 12209&#45;&gt;12655 -->
<g id="edge13" class="edge">
<title>12209&#45;&gt;12655</title>
<path fill="none" stroke="black" d="M576.58,-202.07C582.83,-193.45 589.43,-184.35 595.85,-175.49"/>
<polygon fill="black" stroke="black" points="598.55,-177.73 601.59,-167.58 592.88,-173.62 598.55,-177.73"/>
</g>
<!-- 12211 -->
<g id="node12" class="node">
<title>12211</title>
<path fill="#c0c0c0" stroke="black" d="M421,-36C421,-36 391,-36 391,-36 385,-36 379,-30 379,-24 379,-24 379,-12 379,-12 379,-6 385,0 391,0 391,0 421,0 421,0 427,0 433,-6 433,-12 433,-12 433,-24 433,-24 433,-30 427,-36 421,-36"/>
<text text-anchor="middle" x="406" y="-13.32" font-family="Helvetica,sans-Serif" font-size="14.00">(...)</text>
</g>
<!-- 12210&#45;&gt;12211 -->
<g id="edge11" class="edge">
<title>12210&#45;&gt;12211</title>
<path fill="none" stroke="black" d="M437.4,-71.75C432.15,-62.93 426.81,-53.96 422.06,-45.99"/>
<polygon fill="black" stroke="black" points="425.12,-44.28 417,-37.47 419.1,-47.86 425.12,-44.28"/>
</g>
<!-- 12606 -->
<g id="node13" class="node">
<title>12606</title>
<path fill="#c0c0c0" stroke="black" d="M493,-36C493,-36 463,-36 463,-36 457,-36 451,-30 451,-24 451,-24 451,-12 451,-12 451,-6 457,0 463,0 463,0 493,0 493,0 499,0 505,-6 505,-12 505,-12 505,-24 505,-24 505,-30 499,-36 493,-36"/>
<text text-anchor="middle" x="478" y="-13.32" font-family="Helvetica,sans-Serif" font-size="14.00">(...)</text>
</g>
<!-- 12210&#45;&gt;12606 -->
<g id="edge12" class="edge">
<title>12210&#45;&gt;12606</title>
<path fill="none" stroke="black" d="M471.08,-71.75C472.17,-63.42 473.28,-54.97 474.28,-47.34"/>
<polygon fill="black" stroke="black" points="477.72,-48.04 475.55,-37.67 470.78,-47.13 477.72,-48.04"/>
</g>
<!-- 12656 -->
<g id="node15" class="node">
<title>12656</title>
<path fill="#c0c0c0" stroke="black" d="M594,-36C594,-36 564,-36 564,-36 558,-36 552,-30 552,-24 552,-24 552,-12 552,-12 552,-6 558,0 564,0 564,0 594,0 594,0 600,0 606,-6 606,-12 606,-12 606,-24 606,-24 606,-30 600,-36 594,-36"/>
<text text-anchor="middle" x="579" y="-13.32" font-family="Helvetica,sans-Serif" font-size="14.00">(...)</text>
</g>
<!-- 12655&#45;&gt;12656 -->
<g id="edge14" class="edge">
<title>12655&#45;&gt;12656</title>
<path fill="none" stroke="black" d="M609.34,-71.75C604.26,-62.93 599.1,-53.96 594.52,-45.99"/>
<polygon fill="black" stroke="black" points="597.65,-44.41 589.63,-37.48 591.58,-47.9 597.65,-44.41"/>
</g>
<!-- 12779 -->
<g id="node16" class="node">
<title>12779</title>
<path fill="#c0c0c0" stroke="black" d="M666,-36C666,-36 636,-36 636,-36 630,-36 624,-30 624,-24 624,-24 624,-12 624,-12 624,-6 630,0 636,0 636,0 666,0 666,0 672,0 678,-6 678,-12 678,-12 678,-24 678,-24 678,-30 672,-36 666,-36"/>
<text text-anchor="middle" x="651" y="-13.32" font-family="Helvetica,sans-Serif" font-size="14.00">(...)</text>
</g>
<!-- 12655&#45;&gt;12779 -->
<g id="edge15" class="edge">
<title>12655&#45;&gt;12779</title>
<path fill="none" stroke="black" d="M643.02,-71.75C644.28,-63.42 645.56,-54.97 646.71,-47.34"/>
<polygon fill="black" stroke="black" points="650.14,-48.08 648.17,-37.67 643.22,-47.03 650.14,-48.08"/>
</g>
<!-- 12791 -->
<g id="node18" class="node">
<title>12791</title>
<path fill="#9dcef2" stroke="black" d="M975.5,-296.5C975.5,-296.5 824.5,-296.5 824.5,-296.5 818.5,-296.5 812.5,-290.5 812.5,-284.5 812.5,-284.5 812.5,-214.25 812.5,-214.25 812.5,-208.25 818.5,-202.25 824.5,-202.25 824.5,-202.25 975.5,-202.25 975.5,-202.25 981.5,-202.25 987.5,-208.25 987.5,-214.25 987.5,-214.25 987.5,-284.5 987.5,-284.5 987.5,-290.5 981.5,-296.5 975.5,-296.5"/>
<text text-anchor="middle" x="900" y="-279.2" font-family="Helvetica,sans-Serif" font-size="14.00">1_U &lt;= 0.5</text>
<text text-anchor="middle" x="900" y="-261.95" font-family="Helvetica,sans-Serif" font-size="14.00">entropy = 0.92</text>
<text text-anchor="middle" x="900" y="-244.7" font-family="Helvetica,sans-Serif" font-size="14.00">samples = 11900</text>
<text text-anchor="middle" x="900" y="-227.45" font-family="Helvetica,sans-Serif" font-size="14.00">value = [6305, 12518]</text>
<text text-anchor="middle" x="900" y="-210.2" font-family="Helvetica,sans-Serif" font-size="14.00">class = Plant</text>
</g>
<!-- 12790&#45;&gt;12791 -->
<g id="edge17" class="edge">
<title>12790&#45;&gt;12791</title>
<path fill="none" stroke="black" d="M900,-332.32C900,-324.42 900,-316.13 900,-307.98"/>
<polygon fill="black" stroke="black" points="903.5,-308.12 900,-298.12 896.5,-308.12 903.5,-308.12"/>
</g>
<!-- 16658 -->
<g id="node25" class="node">
<title>16658</title>
<path fill="#ea9a60" stroke="black" d="M1232,-296.5C1232,-296.5 1108,-296.5 1108,-296.5 1102,-296.5 1096,-290.5 1096,-284.5 1096,-284.5 1096,-214.25 1096,-214.25 1096,-208.25 1102,-202.25 1108,-202.25 1108,-202.25 1232,-202.25 1232,-202.25 1238,-202.25 1244,-208.25 1244,-214.25 1244,-214.25 1244,-284.5 1244,-284.5 1244,-290.5 1238,-296.5 1232,-296.5"/>
<text text-anchor="middle" x="1170" y="-279.2" font-family="Helvetica,sans-Serif" font-size="14.00">20_U &lt;= 0.5</text>
<text text-anchor="middle" x="1170" y="-261.95" font-family="Helvetica,sans-Serif" font-size="14.00">entropy = 0.647</text>
<text text-anchor="middle" x="1170" y="-244.7" font-family="Helvetica,sans-Serif" font-size="14.00">samples = 477</text>
<text text-anchor="middle" x="1170" y="-227.45" font-family="Helvetica,sans-Serif" font-size="14.00">value = [667, 132]</text>
<text text-anchor="middle" x="1170" y="-210.2" font-family="Helvetica,sans-Serif" font-size="14.00">class = Animal</text>
</g>
<!-- 12790&#45;&gt;16658 -->
<g id="edge24" class="edge">
<title>12790&#45;&gt;16658</title>
<path fill="none" stroke="black" d="M987.66,-336.99C1019.06,-322.07 1054.38,-305.29 1085.51,-290.51"/>
<polygon fill="black" stroke="black" points="1087,-293.68 1094.53,-286.22 1083.99,-287.35 1087,-293.68"/>
</g>
<!-- 12792 -->
<g id="node19" class="node">
<title>12792</title>
<path fill="#dfeffb" stroke="black" d="M882,-166.25C882,-166.25 740,-166.25 740,-166.25 734,-166.25 728,-160.25 728,-154.25 728,-154.25 728,-84 728,-84 728,-78 734,-72 740,-72 740,-72 882,-72 882,-72 888,-72 894,-78 894,-84 894,-84 894,-154.25 894,-154.25 894,-160.25 888,-166.25 882,-166.25"/>
<text text-anchor="middle" x="811" y="-148.95" font-family="Helvetica,sans-Serif" font-size="14.00">15_G &lt;= 0.5</text>
<text text-anchor="middle" x="811" y="-131.7" font-family="Helvetica,sans-Serif" font-size="14.00">entropy = 0.994</text>
<text text-anchor="middle" x="811" y="-114.45" font-family="Helvetica,sans-Serif" font-size="14.00">samples = 4881</text>
<text text-anchor="middle" x="811" y="-97.2" font-family="Helvetica,sans-Serif" font-size="14.00">value = [3462, 4139]</text>
<text text-anchor="middle" x="811" y="-79.95" font-family="Helvetica,sans-Serif" font-size="14.00">class = Plant</text>
</g>
<!-- 12791&#45;&gt;12792 -->
<g id="edge18" class="edge">
<title>12791&#45;&gt;12792</title>
<path fill="none" stroke="black" d="M867.87,-202.07C861.95,-193.54 855.7,-184.54 849.61,-175.77"/>
<polygon fill="black" stroke="black" points="852.52,-173.82 843.95,-167.6 846.77,-177.81 852.52,-173.82"/>
</g>
<!-- 14941 -->
<g id="node22" class="node">
<title>14941</title>
<path fill="#7cbeee" stroke="black" d="M1066,-166.25C1066,-166.25 924,-166.25 924,-166.25 918,-166.25 912,-160.25 912,-154.25 912,-154.25 912,-84 912,-84 912,-78 918,-72 924,-72 924,-72 1066,-72 1066,-72 1072,-72 1078,-78 1078,-84 1078,-84 1078,-154.25 1078,-154.25 1078,-160.25 1072,-166.25 1066,-166.25"/>
<text text-anchor="middle" x="995" y="-148.95" font-family="Helvetica,sans-Serif" font-size="14.00">15_A &lt;= 0.5</text>
<text text-anchor="middle" x="995" y="-131.7" font-family="Helvetica,sans-Serif" font-size="14.00">entropy = 0.817</text>
<text text-anchor="middle" x="995" y="-114.45" font-family="Helvetica,sans-Serif" font-size="14.00">samples = 7019</text>
<text text-anchor="middle" x="995" y="-97.2" font-family="Helvetica,sans-Serif" font-size="14.00">value = [2843, 8379]</text>
<text text-anchor="middle" x="995" y="-79.95" font-family="Helvetica,sans-Serif" font-size="14.00">class = Plant</text>
</g>
<!-- 12791&#45;&gt;14941 -->
<g id="edge21" class="edge">
<title>12791&#45;&gt;14941</title>
<path fill="none" stroke="black" d="M934.3,-202.07C940.69,-193.45 947.42,-184.35 953.99,-175.49"/>
<polygon fill="black" stroke="black" points="956.71,-177.69 959.85,-167.57 951.09,-173.53 956.71,-177.69"/>
</g>
<!-- 12793 -->
<g id="node20" class="node">
<title>12793</title>
<path fill="#c0c0c0" stroke="black" d="M774,-36C774,-36 744,-36 744,-36 738,-36 732,-30 732,-24 732,-24 732,-12 732,-12 732,-6 738,0 744,0 744,0 774,0 774,0 780,0 786,-6 786,-12 786,-12 786,-24 786,-24 786,-30 780,-36 774,-36"/>
<text text-anchor="middle" x="759" y="-13.32" font-family="Helvetica,sans-Serif" font-size="14.00">(...)</text>
</g>
<!-- 12792&#45;&gt;12793 -->
<g id="edge19" class="edge">
<title>12792&#45;&gt;12793</title>
<path fill="none" stroke="black" d="M786.67,-71.75C782.1,-63.03 777.45,-54.16 773.3,-46.26"/>
<polygon fill="black" stroke="black" points="776.46,-44.74 768.71,-37.51 770.26,-47.99 776.46,-44.74"/>
</g>
<!-- 14302 -->
<g id="node21" class="node">
<title>14302</title>
<path fill="#c0c0c0" stroke="black" d="M846,-36C846,-36 816,-36 816,-36 810,-36 804,-30 804,-24 804,-24 804,-12 804,-12 804,-6 810,0 816,0 816,0 846,0 846,0 852,0 858,-6 858,-12 858,-12 858,-24 858,-24 858,-30 852,-36 846,-36"/>
<text text-anchor="middle" x="831" y="-13.32" font-family="Helvetica,sans-Serif" font-size="14.00">(...)</text>
</g>
<!-- 12792&#45;&gt;14302 -->
<g id="edge20" class="edge">
<title>12792&#45;&gt;14302</title>
<path fill="none" stroke="black" d="M820.36,-71.75C822.04,-63.42 823.74,-54.97 825.28,-47.34"/>
<polygon fill="black" stroke="black" points="828.69,-48.15 827.24,-37.66 821.83,-46.77 828.69,-48.15"/>
</g>
<!-- 14942 -->
<g id="node23" class="node">
<title>14942</title>
<path fill="#c0c0c0" stroke="black" d="M953,-36C953,-36 923,-36 923,-36 917,-36 911,-30 911,-24 911,-24 911,-12 911,-12 911,-6 917,0 923,0 923,0 953,0 953,0 959,0 965,-6 965,-12 965,-12 965,-24 965,-24 965,-30 959,-36 953,-36"/>
<text text-anchor="middle" x="938" y="-13.32" font-family="Helvetica,sans-Serif" font-size="14.00">(...)</text>
</g>
<!-- 14941&#45;&gt;14942 -->
<g id="edge22" class="edge">
<title>14941&#45;&gt;14942</title>
<path fill="none" stroke="black" d="M968.34,-71.75C963.26,-62.93 958.1,-53.96 953.52,-45.99"/>
<polygon fill="black" stroke="black" points="956.65,-44.41 948.63,-37.48 950.58,-47.9 956.65,-44.41"/>
</g>
<!-- 16193 -->
<g id="node24" class="node">
<title>16193</title>
<path fill="#c0c0c0" stroke="black" d="M1025,-36C1025,-36 995,-36 995,-36 989,-36 983,-30 983,-24 983,-24 983,-12 983,-12 983,-6 989,0 995,0 995,0 1025,0 1025,0 1031,0 1037,-6 1037,-12 1037,-12 1037,-24 1037,-24 1037,-30 1031,-36 1025,-36"/>
<text text-anchor="middle" x="1010" y="-13.32" font-family="Helvetica,sans-Serif" font-size="14.00">(...)</text>
</g>
<!-- 14941&#45;&gt;16193 -->
<g id="edge23" class="edge">
<title>14941&#45;&gt;16193</title>
<path fill="none" stroke="black" d="M1002.02,-71.75C1003.28,-63.42 1004.56,-54.97 1005.71,-47.34"/>
<polygon fill="black" stroke="black" points="1009.14,-48.08 1007.17,-37.67 1002.22,-47.03 1009.14,-48.08"/>
</g>
<!-- 16659 -->
<g id="node26" class="node">
<title>16659</title>
<path fill="#eda572" stroke="black" d="M1232,-166.25C1232,-166.25 1108,-166.25 1108,-166.25 1102,-166.25 1096,-160.25 1096,-154.25 1096,-154.25 1096,-84 1096,-84 1096,-78 1102,-72 1108,-72 1108,-72 1232,-72 1232,-72 1238,-72 1244,-78 1244,-84 1244,-84 1244,-154.25 1244,-154.25 1244,-160.25 1238,-166.25 1232,-166.25"/>
<text text-anchor="middle" x="1170" y="-148.95" font-family="Helvetica,sans-Serif" font-size="14.00">9_A &lt;= 0.5</text>
<text text-anchor="middle" x="1170" y="-131.7" font-family="Helvetica,sans-Serif" font-size="14.00">entropy = 0.767</text>
<text text-anchor="middle" x="1170" y="-114.45" font-family="Helvetica,sans-Serif" font-size="14.00">samples = 334</text>
<text text-anchor="middle" x="1170" y="-97.2" font-family="Helvetica,sans-Serif" font-size="14.00">value = [426, 123]</text>
<text text-anchor="middle" x="1170" y="-79.95" font-family="Helvetica,sans-Serif" font-size="14.00">class = Animal</text>
</g>
<!-- 16658&#45;&gt;16659 -->
<g id="edge25" class="edge">
<title>16658&#45;&gt;16659</title>
<path fill="none" stroke="black" d="M1170,-202.07C1170,-194.17 1170,-185.88 1170,-177.73"/>
<polygon fill="black" stroke="black" points="1173.5,-177.87 1170,-167.87 1166.5,-177.87 1173.5,-177.87"/>
</g>
<!-- 16800 -->
<g id="node29" class="node">
<title>16800</title>
<path fill="#e68640" stroke="black" d="M1380.38,-166.25C1380.38,-166.25 1273.62,-166.25 1273.62,-166.25 1267.62,-166.25 1261.62,-160.25 1261.62,-154.25 1261.62,-154.25 1261.62,-84 1261.62,-84 1261.62,-78 1267.62,-72 1273.62,-72 1273.62,-72 1380.38,-72 1380.38,-72 1386.38,-72 1392.38,-78 1392.38,-84 1392.38,-84 1392.38,-154.25 1392.38,-154.25 1392.38,-160.25 1386.38,-166.25 1380.38,-166.25"/>
<text text-anchor="middle" x="1327" y="-148.95" font-family="Helvetica,sans-Serif" font-size="14.00">9_C &lt;= 0.5</text>
<text text-anchor="middle" x="1327" y="-131.7" font-family="Helvetica,sans-Serif" font-size="14.00">entropy = 0.224</text>
<text text-anchor="middle" x="1327" y="-114.45" font-family="Helvetica,sans-Serif" font-size="14.00">samples = 143</text>
<text text-anchor="middle" x="1327" y="-97.2" font-family="Helvetica,sans-Serif" font-size="14.00">value = [241, 9]</text>
<text text-anchor="middle" x="1327" y="-79.95" font-family="Helvetica,sans-Serif" font-size="14.00">class = Animal</text>
</g>
<!-- 16658&#45;&gt;16800 -->
<g id="edge28" class="edge">
<title>16658&#45;&gt;16800</title>
<path fill="none" stroke="black" d="M1226.68,-202.07C1237.95,-192.87 1249.87,-183.13 1261.41,-173.71"/>
<polygon fill="black" stroke="black" points="1263.44,-176.57 1268.97,-167.53 1259.01,-171.15 1263.44,-176.57"/>
</g>
<!-- 16660 -->
<g id="node27" class="node">
<title>16660</title>
<path fill="#c0c0c0" stroke="black" d="M1137,-36C1137,-36 1107,-36 1107,-36 1101,-36 1095,-30 1095,-24 1095,-24 1095,-12 1095,-12 1095,-6 1101,0 1107,0 1107,0 1137,0 1137,0 1143,0 1149,-6 1149,-12 1149,-12 1149,-24 1149,-24 1149,-30 1143,-36 1137,-36"/>
<text text-anchor="middle" x="1122" y="-13.32" font-family="Helvetica,sans-Serif" font-size="14.00">(...)</text>
</g>
<!-- 16659&#45;&gt;16660 -->
<g id="edge26" class="edge">
<title>16659&#45;&gt;16660</title>
<path fill="none" stroke="black" d="M1147.55,-71.75C1143.37,-63.12 1139.12,-54.36 1135.33,-46.53"/>
<polygon fill="black" stroke="black" points="1138.48,-45.01 1130.98,-37.53 1132.18,-48.06 1138.48,-45.01"/>
</g>
<!-- 16767 -->
<g id="node28" class="node">
<title>16767</title>
<path fill="#c0c0c0" stroke="black" d="M1209,-36C1209,-36 1179,-36 1179,-36 1173,-36 1167,-30 1167,-24 1167,-24 1167,-12 1167,-12 1167,-6 1173,0 1179,0 1179,0 1209,0 1209,0 1215,0 1221,-6 1221,-12 1221,-12 1221,-24 1221,-24 1221,-30 1215,-36 1209,-36"/>
<text text-anchor="middle" x="1194" y="-13.32" font-family="Helvetica,sans-Serif" font-size="14.00">(...)</text>
</g>
<!-- 16659&#45;&gt;16767 -->
<g id="edge27" class="edge">
<title>16659&#45;&gt;16767</title>
<path fill="none" stroke="black" d="M1181.23,-71.75C1183.24,-63.42 1185.29,-54.97 1187.14,-47.34"/>
<polygon fill="black" stroke="black" points="1190.53,-48.19 1189.49,-37.64 1183.73,-46.54 1190.53,-48.19"/>
</g>
<!-- 16801 -->
<g id="node30" class="node">
<title>16801</title>
<path fill="#c0c0c0" stroke="black" d="M1306,-36C1306,-36 1276,-36 1276,-36 1270,-36 1264,-30 1264,-24 1264,-24 1264,-12 1264,-12 1264,-6 1270,0 1276,0 1276,0 1306,0 1306,0 1312,0 1318,-6 1318,-12 1318,-12 1318,-24 1318,-24 1318,-30 1312,-36 1306,-36"/>
<text text-anchor="middle" x="1291" y="-13.32" font-family="Helvetica,sans-Serif" font-size="14.00">(...)</text>
</g>
<!-- 16800&#45;&gt;16801 -->
<g id="edge29" class="edge">
<title>16800&#45;&gt;16801</title>
<path fill="none" stroke="black" d="M1310.16,-71.75C1307.06,-63.22 1303.92,-54.57 1301.1,-46.8"/>
<polygon fill="black" stroke="black" points="1304.46,-45.8 1297.75,-37.6 1297.88,-48.19 1304.46,-45.8"/>
</g>
<!-- 16830 -->
<g id="node31" class="node">
<title>16830</title>
<path fill="#c0c0c0" stroke="black" d="M1378,-36C1378,-36 1348,-36 1348,-36 1342,-36 1336,-30 1336,-24 1336,-24 1336,-12 1336,-12 1336,-6 1342,0 1348,0 1348,0 1378,0 1378,0 1384,0 1390,-6 1390,-12 1390,-12 1390,-24 1390,-24 1390,-30 1384,-36 1378,-36"/>
<text text-anchor="middle" x="1363" y="-13.32" font-family="Helvetica,sans-Serif" font-size="14.00">(...)</text>
</g>
<!-- 16800&#45;&gt;16830 -->
<g id="edge30" class="edge">
<title>16800&#45;&gt;16830</title>
<path fill="none" stroke="black" d="M1343.84,-71.75C1346.94,-63.22 1350.08,-54.57 1352.9,-46.8"/>
<polygon fill="black" stroke="black" points="1356.12,-48.19 1356.25,-37.6 1349.54,-45.8 1356.12,-48.19"/>
</g>
</g>
</svg>
