<?xml version="1.0" encoding="UTF-8" standalone="no"?>
<!DOCTYPE svg PUBLIC "-//W3C//DTD SVG 1.1//EN"
 "http://www.w3.org/Graphics/SVG/1.1/DTD/svg11.dtd">
<!-- Generated by graphviz version 12.0.0 (20240803.0821)
 -->
<!-- Title: Tree Pages: 1 -->
<svg width="1436pt" height="565pt"
 viewBox="0.00 0.00 1435.50 565.00" xmlns="http://www.w3.org/2000/svg" xmlns:xlink="http://www.w3.org/1999/xlink">
<g id="graph0" class="graph" transform="scale(1 1) rotate(0) translate(4 561)">
<title>Tree</title>
<polygon fill="white" stroke="none" points="-4,4 -4,-561 1431.5,-561 1431.5,4 -4,4"/>
<!-- 0 -->
<g id="node1" class="node">
<title>0</title>
<path fill="#fffefd" stroke="black" d="M790.5,-557C790.5,-557 630.5,-557 630.5,-557 624.5,-557 618.5,-551 618.5,-545 618.5,-545 618.5,-474.75 618.5,-474.75 618.5,-468.75 624.5,-462.75 630.5,-462.75 630.5,-462.75 790.5,-462.75 790.5,-462.75 796.5,-462.75 802.5,-468.75 802.5,-474.75 802.5,-474.75 802.5,-545 802.5,-545 802.5,-551 796.5,-557 790.5,-557"/>
<text text-anchor="middle" x="710.5" y="-539.7" font-family="Helvetica,sans-Serif" font-size="14.00">8_G &lt;= 0.5</text>
<text text-anchor="middle" x="710.5" y="-522.45" font-family="Helvetica,sans-Serif" font-size="14.00">entropy = 1.0</text>
<text text-anchor="middle" x="710.5" y="-505.2" font-family="Helvetica,sans-Serif" font-size="14.00">samples = 38175</text>
<text text-anchor="middle" x="710.5" y="-487.95" font-family="Helvetica,sans-Serif" font-size="14.00">value = [30288, 30057]</text>
<text text-anchor="middle" x="710.5" y="-470.7" font-family="Helvetica,sans-Serif" font-size="14.00">class = Animal</text>
</g>
<!-- 1 -->
<g id="node2" class="node">
<title>1</title>
<path fill="#fae6d8" stroke="black" d="M622.5,-426.75C622.5,-426.75 462.5,-426.75 462.5,-426.75 456.5,-426.75 450.5,-420.75 450.5,-414.75 450.5,-414.75 450.5,-344.5 450.5,-344.5 450.5,-338.5 456.5,-332.5 462.5,-332.5 462.5,-332.5 622.5,-332.5 622.5,-332.5 628.5,-332.5 634.5,-338.5 634.5,-344.5 634.5,-344.5 634.5,-414.75 634.5,-414.75 634.5,-420.75 628.5,-426.75 622.5,-426.75"/>
<text text-anchor="middle" x="542.5" y="-409.45" font-family="Helvetica,sans-Serif" font-size="14.00">22_G &lt;= 0.5</text>
<text text-anchor="middle" x="542.5" y="-392.2" font-family="Helvetica,sans-Serif" font-size="14.00">entropy = 0.992</text>
<text text-anchor="middle" x="542.5" y="-374.95" font-family="Helvetica,sans-Serif" font-size="14.00">samples = 26352</text>
<text text-anchor="middle" x="542.5" y="-357.7" font-family="Helvetica,sans-Serif" font-size="14.00">value = [23110, 18611]</text>
<text text-anchor="middle" x="542.5" y="-340.45" font-family="Helvetica,sans-Serif" font-size="14.00">class = Animal</text>
</g>
<!-- 0&#45;&gt;1 -->
<g id="edge1" class="edge">
<title>0&#45;&gt;1</title>
<path fill="none" stroke="black" d="M649.85,-462.57C637.67,-453.28 624.78,-443.44 612.32,-433.93"/>
<polygon fill="black" stroke="black" points="614.62,-431.28 604.55,-427.99 610.37,-436.84 614.62,-431.28"/>
<text text-anchor="middle" x="606.67" y="-447.18" font-family="Helvetica,sans-Serif" font-size="14.00">True</text>
</g>
<!-- 12190 -->
<g id="node17" class="node">
<title>12190</title>
<path fill="#b5daf5" stroke="black" d="M978,-426.75C978,-426.75 827,-426.75 827,-426.75 821,-426.75 815,-420.75 815,-414.75 815,-414.75 815,-344.5 815,-344.5 815,-338.5 821,-332.5 827,-332.5 827,-332.5 978,-332.5 978,-332.5 984,-332.5 990,-338.5 990,-344.5 990,-344.5 990,-414.75 990,-414.75 990,-420.75 984,-426.75 978,-426.75"/>
<text text-anchor="middle" x="902.5" y="-409.45" font-family="Helvetica,sans-Serif" font-size="14.00">15_U &lt;= 0.5</text>
<text text-anchor="middle" x="902.5" y="-392.2" font-family="Helvetica,sans-Serif" font-size="14.00">entropy = 0.962</text>
<text text-anchor="middle" x="902.5" y="-374.95" font-family="Helvetica,sans-Serif" font-size="14.00">samples = 11823</text>
<text text-anchor="middle" x="902.5" y="-357.7" font-family="Helvetica,sans-Serif" font-size="14.00">value = [7178, 11446]</text>
<text text-anchor="middle" x="902.5" y="-340.45" font-family="Helvetica,sans-Serif" font-size="14.00">class = Plant</text>
</g>
<!-- 0&#45;&gt;12190 -->
<g id="edge16" class="edge">
<title>0&#45;&gt;12190</title>
<path fill="none" stroke="black" d="M780.09,-462.39C794.17,-452.98 809.08,-443.03 823.47,-433.42"/>
<polygon fill="black" stroke="black" points="825.2,-436.47 831.57,-428 821.31,-430.65 825.2,-436.47"/>
<text text-anchor="middle" x="827.95" y="-447.01" font-family="Helvetica,sans-Serif" font-size="14.00">False</text>
</g>
<!-- 2 -->
<g id="node3" class="node">
<title>2</title>
<path fill="#fef9f5" stroke="black" d="M360.5,-296.5C360.5,-296.5 200.5,-296.5 200.5,-296.5 194.5,-296.5 188.5,-290.5 188.5,-284.5 188.5,-284.5 188.5,-214.25 188.5,-214.25 188.5,-208.25 194.5,-202.25 200.5,-202.25 200.5,-202.25 360.5,-202.25 360.5,-202.25 366.5,-202.25 372.5,-208.25 372.5,-214.25 372.5,-214.25 372.5,-284.5 372.5,-284.5 372.5,-290.5 366.5,-296.5 360.5,-296.5"/>
<text text-anchor="middle" x="280.5" y="-279.2" font-family="Helvetica,sans-Serif" font-size="14.00">1_U &lt;= 0.5</text>
<text text-anchor="middle" x="280.5" y="-261.95" font-family="Helvetica,sans-Serif" font-size="14.00">entropy = 1.0</text>
<text text-anchor="middle" x="280.5" y="-244.7" font-family="Helvetica,sans-Serif" font-size="14.00">samples = 22676</text>
<text text-anchor="middle" x="280.5" y="-227.45" font-family="Helvetica,sans-Serif" font-size="14.00">value = [18407, 17490]</text>
<text text-anchor="middle" x="280.5" y="-210.2" font-family="Helvetica,sans-Serif" font-size="14.00">class = Animal</text>
</g>
<!-- 1&#45;&gt;2 -->
<g id="edge2" class="edge">
<title>1&#45;&gt;2</title>
<path fill="none" stroke="black" d="M450.13,-333.41C428.41,-322.78 405.13,-311.38 383,-300.55"/>
<polygon fill="black" stroke="black" points="384.8,-297.53 374.28,-296.28 381.72,-303.82 384.8,-297.53"/>
</g>
<!-- 10775 -->
<g id="node10" class="node">
<title>10775</title>
<path fill="#eb9f68" stroke="black" d="M613.5,-296.5C613.5,-296.5 471.5,-296.5 471.5,-296.5 465.5,-296.5 459.5,-290.5 459.5,-284.5 459.5,-284.5 459.5,-214.25 459.5,-214.25 459.5,-208.25 465.5,-202.25 471.5,-202.25 471.5,-202.25 613.5,-202.25 613.5,-202.25 619.5,-202.25 625.5,-208.25 625.5,-214.25 625.5,-214.25 625.5,-284.5 625.5,-284.5 625.5,-290.5 619.5,-296.5 613.5,-296.5"/>
<text text-anchor="middle" x="542.5" y="-279.2" font-family="Helvetica,sans-Serif" font-size="14.00">5_C &lt;= 0.5</text>
<text text-anchor="middle" x="542.5" y="-261.95" font-family="Helvetica,sans-Serif" font-size="14.00">entropy = 0.707</text>
<text text-anchor="middle" x="542.5" y="-244.7" font-family="Helvetica,sans-Serif" font-size="14.00">samples = 3676</text>
<text text-anchor="middle" x="542.5" y="-227.45" font-family="Helvetica,sans-Serif" font-size="14.00">value = [4703, 1121]</text>
<text text-anchor="middle" x="542.5" y="-210.2" font-family="Helvetica,sans-Serif" font-size="14.00">class = Animal</text>
</g>
<!-- 1&#45;&gt;10775 -->
<g id="edge9" class="edge">
<title>1&#45;&gt;10775</title>
<path fill="none" stroke="black" d="M542.5,-332.32C542.5,-324.42 542.5,-316.13 542.5,-307.98"/>
<polygon fill="black" stroke="black" points="546,-308.12 542.5,-298.12 539,-308.12 546,-308.12"/>
</g>
<!-- 3 -->
<g id="node4" class="node">
<title>3</title>
<path fill="#f7d7c0" stroke="black" d="M163,-166.25C163,-166.25 12,-166.25 12,-166.25 6,-166.25 0,-160.25 0,-154.25 0,-154.25 0,-84 0,-84 0,-78 6,-72 12,-72 12,-72 163,-72 163,-72 169,-72 175,-78 175,-84 175,-84 175,-154.25 175,-154.25 175,-160.25 169,-166.25 163,-166.25"/>
<text text-anchor="middle" x="87.5" y="-148.95" font-family="Helvetica,sans-Serif" font-size="14.00">17_C &lt;= 0.5</text>
<text text-anchor="middle" x="87.5" y="-131.7" font-family="Helvetica,sans-Serif" font-size="14.00">entropy = 0.974</text>
<text text-anchor="middle" x="87.5" y="-114.45" font-family="Helvetica,sans-Serif" font-size="14.00">samples = 11122</text>
<text text-anchor="middle" x="87.5" y="-97.2" font-family="Helvetica,sans-Serif" font-size="14.00">value = [10519, 7169]</text>
<text text-anchor="middle" x="87.5" y="-79.95" font-family="Helvetica,sans-Serif" font-size="14.00">class = Animal</text>
</g>
<!-- 2&#45;&gt;3 -->
<g id="edge3" class="edge">
<title>2&#45;&gt;3</title>
<path fill="none" stroke="black" d="M210.55,-201.89C196.39,-192.48 181.4,-182.53 166.95,-172.92"/>
<polygon fill="black" stroke="black" points="169.06,-170.12 158.8,-167.5 165.19,-175.95 169.06,-170.12"/>
</g>
<!-- 6200 -->
<g id="node7" class="node">
<title>6200</title>
<path fill="#d0e8f9" stroke="black" d="M356,-166.25C356,-166.25 205,-166.25 205,-166.25 199,-166.25 193,-160.25 193,-154.25 193,-154.25 193,-84 193,-84 193,-78 199,-72 205,-72 205,-72 356,-72 356,-72 362,-72 368,-78 368,-84 368,-84 368,-154.25 368,-154.25 368,-160.25 362,-166.25 356,-166.25"/>
<text text-anchor="middle" x="280.5" y="-148.95" font-family="Helvetica,sans-Serif" font-size="14.00">2_A &lt;= 0.5</text>
<text text-anchor="middle" x="280.5" y="-131.7" font-family="Helvetica,sans-Serif" font-size="14.00">entropy = 0.987</text>
<text text-anchor="middle" x="280.5" y="-114.45" font-family="Helvetica,sans-Serif" font-size="14.00">samples = 11554</text>
<text text-anchor="middle" x="280.5" y="-97.2" font-family="Helvetica,sans-Serif" font-size="14.00">value = [7888, 10321]</text>
<text text-anchor="middle" x="280.5" y="-79.95" font-family="Helvetica,sans-Serif" font-size="14.00">class = Plant</text>
</g>
<!-- 2&#45;&gt;6200 -->
<g id="edge6" class="edge">
<title>2&#45;&gt;6200</title>
<path fill="none" stroke="black" d="M280.5,-202.07C280.5,-194.17 280.5,-185.88 280.5,-177.73"/>
<polygon fill="black" stroke="black" points="284,-177.87 280.5,-167.87 277,-177.87 284,-177.87"/>
</g>
<!-- 4 -->
<g id="node5" class="node">
<title>4</title>
<path fill="#c0c0c0" stroke="black" d="M66.5,-36C66.5,-36 36.5,-36 36.5,-36 30.5,-36 24.5,-30 24.5,-24 24.5,-24 24.5,-12 24.5,-12 24.5,-6 30.5,0 36.5,0 36.5,0 66.5,0 66.5,0 72.5,0 78.5,-6 78.5,-12 78.5,-12 78.5,-24 78.5,-24 78.5,-30 72.5,-36 66.5,-36"/>
<text text-anchor="middle" x="51.5" y="-13.32" font-family="Helvetica,sans-Serif" font-size="14.00">(...)</text>
</g>
<!-- 3&#45;&gt;4 -->
<g id="edge4" class="edge">
<title>3&#45;&gt;4</title>
<path fill="none" stroke="black" d="M70.66,-71.75C67.56,-63.22 64.42,-54.57 61.6,-46.8"/>
<polygon fill="black" stroke="black" points="64.96,-45.8 58.25,-37.6 58.38,-48.19 64.96,-45.8"/>
</g>
<!-- 4805 -->
<g id="node6" class="node">
<title>4805</title>
<path fill="#c0c0c0" stroke="black" d="M138.5,-36C138.5,-36 108.5,-36 108.5,-36 102.5,-36 96.5,-30 96.5,-24 96.5,-24 96.5,-12 96.5,-12 96.5,-6 102.5,0 108.5,0 108.5,0 138.5,0 138.5,0 144.5,0 150.5,-6 150.5,-12 150.5,-12 150.5,-24 150.5,-24 150.5,-30 144.5,-36 138.5,-36"/>
<text text-anchor="middle" x="123.5" y="-13.32" font-family="Helvetica,sans-Serif" font-size="14.00">(...)</text>
</g>
<!-- 3&#45;&gt;4805 -->
<g id="edge5" class="edge">
<title>3&#45;&gt;4805</title>
<path fill="none" stroke="black" d="M104.34,-71.75C107.44,-63.22 110.58,-54.57 113.4,-46.8"/>
<polygon fill="black" stroke="black" points="116.62,-48.19 116.75,-37.6 110.04,-45.8 116.62,-48.19"/>
</g>
<!-- 6201 -->
<g id="node8" class="node">
<title>6201</title>
<path fill="#c0c0c0" stroke="black" d="M256.5,-36C256.5,-36 226.5,-36 226.5,-36 220.5,-36 214.5,-30 214.5,-24 214.5,-24 214.5,-12 214.5,-12 214.5,-6 220.5,0 226.5,0 226.5,0 256.5,0 256.5,0 262.5,0 268.5,-6 268.5,-12 268.5,-12 268.5,-24 268.5,-24 268.5,-30 262.5,-36 256.5,-36"/>
<text text-anchor="middle" x="241.5" y="-13.32" font-family="Helvetica,sans-Serif" font-size="14.00">(...)</text>
</g>
<!-- 6200&#45;&gt;6201 -->
<g id="edge7" class="edge">
<title>6200&#45;&gt;6201</title>
<path fill="none" stroke="black" d="M262.26,-71.75C258.9,-63.22 255.49,-54.57 252.44,-46.8"/>
<polygon fill="black" stroke="black" points="255.73,-45.61 248.81,-37.58 249.21,-48.17 255.73,-45.61"/>
</g>
<!-- 9858 -->
<g id="node9" class="node">
<title>9858</title>
<path fill="#c0c0c0" stroke="black" d="M328.5,-36C328.5,-36 298.5,-36 298.5,-36 292.5,-36 286.5,-30 286.5,-24 286.5,-24 286.5,-12 286.5,-12 286.5,-6 292.5,0 298.5,0 298.5,0 328.5,0 328.5,0 334.5,0 340.5,-6 340.5,-12 340.5,-12 340.5,-24 340.5,-24 340.5,-30 334.5,-36 328.5,-36"/>
<text text-anchor="middle" x="313.5" y="-13.32" font-family="Helvetica,sans-Serif" font-size="14.00">(...)</text>
</g>
<!-- 6200&#45;&gt;9858 -->
<g id="edge8" class="edge">
<title>6200&#45;&gt;9858</title>
<path fill="none" stroke="black" d="M295.94,-71.75C298.74,-63.32 301.59,-54.77 304.16,-47.07"/>
<polygon fill="black" stroke="black" points="307.47,-48.2 307.3,-37.61 300.83,-45.99 307.47,-48.2"/>
</g>
<!-- 10776 -->
<g id="node11" class="node">
<title>10776</title>
<path fill="#ea9b62" stroke="black" d="M531,-166.25C531,-166.25 398,-166.25 398,-166.25 392,-166.25 386,-160.25 386,-154.25 386,-154.25 386,-84 386,-84 386,-78 392,-72 398,-72 398,-72 531,-72 531,-72 537,-72 543,-78 543,-84 543,-84 543,-154.25 543,-154.25 543,-160.25 537,-166.25 531,-166.25"/>
<text text-anchor="middle" x="464.5" y="-148.95" font-family="Helvetica,sans-Serif" font-size="14.00">24_G &lt;= 0.5</text>
<text text-anchor="middle" x="464.5" y="-131.7" font-family="Helvetica,sans-Serif" font-size="14.00">entropy = 0.658</text>
<text text-anchor="middle" x="464.5" y="-114.45" font-family="Helvetica,sans-Serif" font-size="14.00">samples = 2843</text>
<text text-anchor="middle" x="464.5" y="-97.2" font-family="Helvetica,sans-Serif" font-size="14.00">value = [3729, 765]</text>
<text text-anchor="middle" x="464.5" y="-79.95" font-family="Helvetica,sans-Serif" font-size="14.00">class = Animal</text>
</g>
<!-- 10775&#45;&gt;10776 -->
<g id="edge10" class="edge">
<title>10775&#45;&gt;10776</title>
<path fill="none" stroke="black" d="M514.34,-202.07C509.2,-193.63 503.8,-184.74 498.51,-176.05"/>
<polygon fill="black" stroke="black" points="501.59,-174.38 493.4,-167.65 495.61,-178.01 501.59,-174.38"/>
</g>
<!-- 11853 -->
<g id="node14" class="node">
<title>11853</title>
<path fill="#efaf81" stroke="black" d="M697.5,-166.25C697.5,-166.25 573.5,-166.25 573.5,-166.25 567.5,-166.25 561.5,-160.25 561.5,-154.25 561.5,-154.25 561.5,-84 561.5,-84 561.5,-78 567.5,-72 573.5,-72 573.5,-72 697.5,-72 697.5,-72 703.5,-72 709.5,-78 709.5,-84 709.5,-84 709.5,-154.25 709.5,-154.25 709.5,-160.25 703.5,-166.25 697.5,-166.25"/>
<text text-anchor="middle" x="635.5" y="-148.95" font-family="Helvetica,sans-Serif" font-size="14.00">7_A &lt;= 0.5</text>
<text text-anchor="middle" x="635.5" y="-131.7" font-family="Helvetica,sans-Serif" font-size="14.00">entropy = 0.838</text>
<text text-anchor="middle" x="635.5" y="-114.45" font-family="Helvetica,sans-Serif" font-size="14.00">samples = 833</text>
<text text-anchor="middle" x="635.5" y="-97.2" font-family="Helvetica,sans-Serif" font-size="14.00">value = [974, 356]</text>
<text text-anchor="middle" x="635.5" y="-79.95" font-family="Helvetica,sans-Serif" font-size="14.00">class = Animal</text>
</g>
<!-- 10775&#45;&gt;11853 -->
<g id="edge13" class="edge">
<title>10775&#45;&gt;11853</title>
<path fill="none" stroke="black" d="M576.08,-202.07C582.33,-193.45 588.93,-184.35 595.35,-175.49"/>
<polygon fill="black" stroke="black" points="598.05,-177.73 601.09,-167.58 592.38,-173.62 598.05,-177.73"/>
</g>
<!-- 10777 -->
<g id="node12" class="node">
<title>10777</title>
<path fill="#c0c0c0" stroke="black" d="M420.5,-36C420.5,-36 390.5,-36 390.5,-36 384.5,-36 378.5,-30 378.5,-24 378.5,-24 378.5,-12 378.5,-12 378.5,-6 384.5,0 390.5,0 390.5,0 420.5,0 420.5,0 426.5,0 432.5,-6 432.5,-12 432.5,-12 432.5,-24 432.5,-24 432.5,-30 426.5,-36 420.5,-36"/>
<text text-anchor="middle" x="405.5" y="-13.32" font-family="Helvetica,sans-Serif" font-size="14.00">(...)</text>
</g>
<!-- 10776&#45;&gt;10777 -->
<g id="edge11" class="edge">
<title>10776&#45;&gt;10777</title>
<path fill="none" stroke="black" d="M436.9,-71.75C431.65,-62.93 426.31,-53.96 421.56,-45.99"/>
<polygon fill="black" stroke="black" points="424.62,-44.28 416.5,-37.47 418.6,-47.86 424.62,-44.28"/>
</g>
<!-- 11804 -->
<g id="node13" class="node">
<title>11804</title>
<path fill="#c0c0c0" stroke="black" d="M492.5,-36C492.5,-36 462.5,-36 462.5,-36 456.5,-36 450.5,-30 450.5,-24 450.5,-24 450.5,-12 450.5,-12 450.5,-6 456.5,0 462.5,0 462.5,0 492.5,0 492.5,0 498.5,0 504.5,-6 504.5,-12 504.5,-12 504.5,-24 504.5,-24 504.5,-30 498.5,-36 492.5,-36"/>
<text text-anchor="middle" x="477.5" y="-13.32" font-family="Helvetica,sans-Serif" font-size="14.00">(...)</text>
</g>
<!-- 10776&#45;&gt;11804 -->
<g id="edge12" class="edge">
<title>10776&#45;&gt;11804</title>
<path fill="none" stroke="black" d="M470.58,-71.75C471.67,-63.42 472.78,-54.97 473.78,-47.34"/>
<polygon fill="black" stroke="black" points="477.22,-48.04 475.05,-37.67 470.28,-47.13 477.22,-48.04"/>
</g>
<!-- 11854 -->
<g id="node15" class="node">
<title>11854</title>
<path fill="#c0c0c0" stroke="black" d="M593.5,-36C593.5,-36 563.5,-36 563.5,-36 557.5,-36 551.5,-30 551.5,-24 551.5,-24 551.5,-12 551.5,-12 551.5,-6 557.5,0 563.5,0 563.5,0 593.5,0 593.5,0 599.5,0 605.5,-6 605.5,-12 605.5,-12 605.5,-24 605.5,-24 605.5,-30 599.5,-36 593.5,-36"/>
<text text-anchor="middle" x="578.5" y="-13.32" font-family="Helvetica,sans-Serif" font-size="14.00">(...)</text>
</g>
<!-- 11853&#45;&gt;11854 -->
<g id="edge14" class="edge">
<title>11853&#45;&gt;11854</title>
<path fill="none" stroke="black" d="M608.84,-71.75C603.76,-62.93 598.6,-53.96 594.02,-45.99"/>
<polygon fill="black" stroke="black" points="597.15,-44.41 589.13,-37.48 591.08,-47.9 597.15,-44.41"/>
</g>
<!-- 12073 -->
<g id="node16" class="node">
<title>12073</title>
<path fill="#c0c0c0" stroke="black" d="M665.5,-36C665.5,-36 635.5,-36 635.5,-36 629.5,-36 623.5,-30 623.5,-24 623.5,-24 623.5,-12 623.5,-12 623.5,-6 629.5,0 635.5,0 635.5,0 665.5,0 665.5,0 671.5,0 677.5,-6 677.5,-12 677.5,-12 677.5,-24 677.5,-24 677.5,-30 671.5,-36 665.5,-36"/>
<text text-anchor="middle" x="650.5" y="-13.32" font-family="Helvetica,sans-Serif" font-size="14.00">(...)</text>
</g>
<!-- 11853&#45;&gt;12073 -->
<g id="edge15" class="edge">
<title>11853&#45;&gt;12073</title>
<path fill="none" stroke="black" d="M642.52,-71.75C643.78,-63.42 645.06,-54.97 646.21,-47.34"/>
<polygon fill="black" stroke="black" points="649.64,-48.08 647.67,-37.67 642.72,-47.03 649.64,-48.08"/>
</g>
<!-- 12191 -->
<g id="node18" class="node">
<title>12191</title>
<path fill="#e3f1fb" stroke="black" d="M973.5,-296.5C973.5,-296.5 831.5,-296.5 831.5,-296.5 825.5,-296.5 819.5,-290.5 819.5,-284.5 819.5,-284.5 819.5,-214.25 819.5,-214.25 819.5,-208.25 825.5,-202.25 831.5,-202.25 831.5,-202.25 973.5,-202.25 973.5,-202.25 979.5,-202.25 985.5,-208.25 985.5,-214.25 985.5,-214.25 985.5,-284.5 985.5,-284.5 985.5,-290.5 979.5,-296.5 973.5,-296.5"/>
<text text-anchor="middle" x="902.5" y="-279.2" font-family="Helvetica,sans-Serif" font-size="14.00">13_G &lt;= 0.5</text>
<text text-anchor="middle" x="902.5" y="-261.95" font-family="Helvetica,sans-Serif" font-size="14.00">entropy = 0.996</text>
<text text-anchor="middle" x="902.5" y="-244.7" font-family="Helvetica,sans-Serif" font-size="14.00">samples = 7403</text>
<text text-anchor="middle" x="902.5" y="-227.45" font-family="Helvetica,sans-Serif" font-size="14.00">value = [5398, 6273]</text>
<text text-anchor="middle" x="902.5" y="-210.2" font-family="Helvetica,sans-Serif" font-size="14.00">class = Plant</text>
</g>
<!-- 12190&#45;&gt;12191 -->
<g id="edge17" class="edge">
<title>12190&#45;&gt;12191</title>
<path fill="none" stroke="black" d="M902.5,-332.32C902.5,-324.42 902.5,-316.13 902.5,-307.98"/>
<polygon fill="black" stroke="black" points="906,-308.12 902.5,-298.12 899,-308.12 906,-308.12"/>
</g>
<!-- 15394 -->
<g id="node25" class="node">
<title>15394</title>
<path fill="#7dbfee" stroke="black" d="M1249.5,-296.5C1249.5,-296.5 1107.5,-296.5 1107.5,-296.5 1101.5,-296.5 1095.5,-290.5 1095.5,-284.5 1095.5,-284.5 1095.5,-214.25 1095.5,-214.25 1095.5,-208.25 1101.5,-202.25 1107.5,-202.25 1107.5,-202.25 1249.5,-202.25 1249.5,-202.25 1255.5,-202.25 1261.5,-208.25 1261.5,-214.25 1261.5,-214.25 1261.5,-284.5 1261.5,-284.5 1261.5,-290.5 1255.5,-296.5 1249.5,-296.5"/>
<text text-anchor="middle" x="1178.5" y="-279.2" font-family="Helvetica,sans-Serif" font-size="14.00">19_U &lt;= 0.5</text>
<text text-anchor="middle" x="1178.5" y="-261.95" font-family="Helvetica,sans-Serif" font-size="14.00">entropy = 0.821</text>
<text text-anchor="middle" x="1178.5" y="-244.7" font-family="Helvetica,sans-Serif" font-size="14.00">samples = 4420</text>
<text text-anchor="middle" x="1178.5" y="-227.45" font-family="Helvetica,sans-Serif" font-size="14.00">value = [1780, 5173]</text>
<text text-anchor="middle" x="1178.5" y="-210.2" font-family="Helvetica,sans-Serif" font-size="14.00">class = Plant</text>
</g>
<!-- 12190&#45;&gt;15394 -->
<g id="edge24" class="edge">
<title>12190&#45;&gt;15394</title>
<path fill="none" stroke="black" d="M990.21,-337.87C1020.41,-323.83 1054.34,-308.07 1085,-293.82"/>
<polygon fill="black" stroke="black" points="1086.29,-297.08 1093.88,-289.69 1083.34,-290.73 1086.29,-297.08"/>
</g>
<!-- 12192 -->
<g id="node19" class="node">
<title>12192</title>
<path fill="#fbebe0" stroke="black" d="M881.5,-166.25C881.5,-166.25 739.5,-166.25 739.5,-166.25 733.5,-166.25 727.5,-160.25 727.5,-154.25 727.5,-154.25 727.5,-84 727.5,-84 727.5,-78 733.5,-72 739.5,-72 739.5,-72 881.5,-72 881.5,-72 887.5,-72 893.5,-78 893.5,-84 893.5,-84 893.5,-154.25 893.5,-154.25 893.5,-160.25 887.5,-166.25 881.5,-166.25"/>
<text text-anchor="middle" x="810.5" y="-148.95" font-family="Helvetica,sans-Serif" font-size="14.00">16_U &lt;= 0.5</text>
<text text-anchor="middle" x="810.5" y="-131.7" font-family="Helvetica,sans-Serif" font-size="14.00">entropy = 0.995</text>
<text text-anchor="middle" x="810.5" y="-114.45" font-family="Helvetica,sans-Serif" font-size="14.00">samples = 4370</text>
<text text-anchor="middle" x="810.5" y="-97.2" font-family="Helvetica,sans-Serif" font-size="14.00">value = [3747, 3162]</text>
<text text-anchor="middle" x="810.5" y="-79.95" font-family="Helvetica,sans-Serif" font-size="14.00">class = Animal</text>
</g>
<!-- 12191&#45;&gt;12192 -->
<g id="edge18" class="edge">
<title>12191&#45;&gt;12192</title>
<path fill="none" stroke="black" d="M869.29,-202.07C863.1,-193.45 856.57,-184.35 850.21,-175.49"/>
<polygon fill="black" stroke="black" points="853.22,-173.67 844.55,-167.59 847.53,-177.75 853.22,-173.67"/>
</g>
<!-- 14451 -->
<g id="node22" class="node">
<title>14451</title>
<path fill="#a2d1f3" stroke="black" d="M1065.5,-166.25C1065.5,-166.25 923.5,-166.25 923.5,-166.25 917.5,-166.25 911.5,-160.25 911.5,-154.25 911.5,-154.25 911.5,-84 911.5,-84 911.5,-78 917.5,-72 923.5,-72 923.5,-72 1065.5,-72 1065.5,-72 1071.5,-72 1077.5,-78 1077.5,-84 1077.5,-84 1077.5,-154.25 1077.5,-154.25 1077.5,-160.25 1071.5,-166.25 1065.5,-166.25"/>
<text text-anchor="middle" x="994.5" y="-148.95" font-family="Helvetica,sans-Serif" font-size="14.00">1_A &lt;= 0.5</text>
<text text-anchor="middle" x="994.5" y="-131.7" font-family="Helvetica,sans-Serif" font-size="14.00">entropy = 0.931</text>
<text text-anchor="middle" x="994.5" y="-114.45" font-family="Helvetica,sans-Serif" font-size="14.00">samples = 3033</text>
<text text-anchor="middle" x="994.5" y="-97.2" font-family="Helvetica,sans-Serif" font-size="14.00">value = [1651, 3111]</text>
<text text-anchor="middle" x="994.5" y="-79.95" font-family="Helvetica,sans-Serif" font-size="14.00">class = Plant</text>
</g>
<!-- 12191&#45;&gt;14451 -->
<g id="edge21" class="edge">
<title>12191&#45;&gt;14451</title>
<path fill="none" stroke="black" d="M935.71,-202.07C941.9,-193.45 948.43,-184.35 954.79,-175.49"/>
<polygon fill="black" stroke="black" points="957.47,-177.75 960.45,-167.59 951.78,-173.67 957.47,-177.75"/>
</g>
<!-- 12193 -->
<g id="node20" class="node">
<title>12193</title>
<path fill="#c0c0c0" stroke="black" d="M773.5,-36C773.5,-36 743.5,-36 743.5,-36 737.5,-36 731.5,-30 731.5,-24 731.5,-24 731.5,-12 731.5,-12 731.5,-6 737.5,0 743.5,0 743.5,0 773.5,0 773.5,0 779.5,0 785.5,-6 785.5,-12 785.5,-12 785.5,-24 785.5,-24 785.5,-30 779.5,-36 773.5,-36"/>
<text text-anchor="middle" x="758.5" y="-13.32" font-family="Helvetica,sans-Serif" font-size="14.00">(...)</text>
</g>
<!-- 12192&#45;&gt;12193 -->
<g id="edge19" class="edge">
<title>12192&#45;&gt;12193</title>
<path fill="none" stroke="black" d="M786.17,-71.75C781.6,-63.03 776.95,-54.16 772.8,-46.26"/>
<polygon fill="black" stroke="black" points="775.96,-44.74 768.21,-37.51 769.76,-47.99 775.96,-44.74"/>
</g>
<!-- 13876 -->
<g id="node21" class="node">
<title>13876</title>
<path fill="#c0c0c0" stroke="black" d="M845.5,-36C845.5,-36 815.5,-36 815.5,-36 809.5,-36 803.5,-30 803.5,-24 803.5,-24 803.5,-12 803.5,-12 803.5,-6 809.5,0 815.5,0 815.5,0 845.5,0 845.5,0 851.5,0 857.5,-6 857.5,-12 857.5,-12 857.5,-24 857.5,-24 857.5,-30 851.5,-36 845.5,-36"/>
<text text-anchor="middle" x="830.5" y="-13.32" font-family="Helvetica,sans-Serif" font-size="14.00">(...)</text>
</g>
<!-- 12192&#45;&gt;13876 -->
<g id="edge20" class="edge">
<title>12192&#45;&gt;13876</title>
<path fill="none" stroke="black" d="M819.86,-71.75C821.54,-63.42 823.24,-54.97 824.78,-47.34"/>
<polygon fill="black" stroke="black" points="828.19,-48.15 826.74,-37.66 821.33,-46.77 828.19,-48.15"/>
</g>
<!-- 14452 -->
<g id="node23" class="node">
<title>14452</title>
<path fill="#c0c0c0" stroke="black" d="M957.5,-36C957.5,-36 927.5,-36 927.5,-36 921.5,-36 915.5,-30 915.5,-24 915.5,-24 915.5,-12 915.5,-12 915.5,-6 921.5,0 927.5,0 927.5,0 957.5,0 957.5,0 963.5,0 969.5,-6 969.5,-12 969.5,-12 969.5,-24 969.5,-24 969.5,-30 963.5,-36 957.5,-36"/>
<text text-anchor="middle" x="942.5" y="-13.32" font-family="Helvetica,sans-Serif" font-size="14.00">(...)</text>
</g>
<!-- 14451&#45;&gt;14452 -->
<g id="edge22" class="edge">
<title>14451&#45;&gt;14452</title>
<path fill="none" stroke="black" d="M970.17,-71.75C965.6,-63.03 960.95,-54.16 956.8,-46.26"/>
<polygon fill="black" stroke="black" points="959.96,-44.74 952.21,-37.51 953.76,-47.99 959.96,-44.74"/>
</g>
<!-- 15165 -->
<g id="node24" class="node">
<title>15165</title>
<path fill="#c0c0c0" stroke="black" d="M1029.5,-36C1029.5,-36 999.5,-36 999.5,-36 993.5,-36 987.5,-30 987.5,-24 987.5,-24 987.5,-12 987.5,-12 987.5,-6 993.5,0 999.5,0 999.5,0 1029.5,0 1029.5,0 1035.5,0 1041.5,-6 1041.5,-12 1041.5,-12 1041.5,-24 1041.5,-24 1041.5,-30 1035.5,-36 1029.5,-36"/>
<text text-anchor="middle" x="1014.5" y="-13.32" font-family="Helvetica,sans-Serif" font-size="14.00">(...)</text>
</g>
<!-- 14451&#45;&gt;15165 -->
<g id="edge23" class="edge">
<title>14451&#45;&gt;15165</title>
<path fill="none" stroke="black" d="M1003.86,-71.75C1005.54,-63.42 1007.24,-54.97 1008.78,-47.34"/>
<polygon fill="black" stroke="black" points="1012.19,-48.15 1010.74,-37.66 1005.33,-46.77 1012.19,-48.15"/>
</g>
<!-- 15395 -->
<g id="node26" class="node">
<title>15395</title>
<path fill="#68b4eb" stroke="black" d="M1249.5,-166.25C1249.5,-166.25 1107.5,-166.25 1107.5,-166.25 1101.5,-166.25 1095.5,-160.25 1095.5,-154.25 1095.5,-154.25 1095.5,-84 1095.5,-84 1095.5,-78 1101.5,-72 1107.5,-72 1107.5,-72 1249.5,-72 1249.5,-72 1255.5,-72 1261.5,-78 1261.5,-84 1261.5,-84 1261.5,-154.25 1261.5,-154.25 1261.5,-160.25 1255.5,-166.25 1249.5,-166.25"/>
<text text-anchor="middle" x="1178.5" y="-148.95" font-family="Helvetica,sans-Serif" font-size="14.00">9_A &lt;= 0.5</text>
<text text-anchor="middle" x="1178.5" y="-131.7" font-family="Helvetica,sans-Serif" font-size="14.00">entropy = 0.708</text>
<text text-anchor="middle" x="1178.5" y="-114.45" font-family="Helvetica,sans-Serif" font-size="14.00">samples = 3723</text>
<text text-anchor="middle" x="1178.5" y="-97.2" font-family="Helvetica,sans-Serif" font-size="14.00">value = [1137, 4753]</text>
<text text-anchor="middle" x="1178.5" y="-79.95" font-family="Helvetica,sans-Serif" font-size="14.00">class = Plant</text>
</g>
<!-- 15394&#45;&gt;15395 -->
<g id="edge25" class="edge">
<title>15394&#45;&gt;15395</title>
<path fill="none" stroke="black" d="M1178.5,-202.07C1178.5,-194.17 1178.5,-185.88 1178.5,-177.73"/>
<polygon fill="black" stroke="black" points="1182,-177.87 1178.5,-167.87 1175,-177.87 1182,-177.87"/>
</g>
<!-- 16330 -->
<g id="node29" class="node">
<title>16330</title>
<path fill="#f6d3ba" stroke="black" d="M1415.5,-166.25C1415.5,-166.25 1291.5,-166.25 1291.5,-166.25 1285.5,-166.25 1279.5,-160.25 1279.5,-154.25 1279.5,-154.25 1279.5,-84 1279.5,-84 1279.5,-78 1285.5,-72 1291.5,-72 1291.5,-72 1415.5,-72 1415.5,-72 1421.5,-72 1427.5,-78 1427.5,-84 1427.5,-84 1427.5,-154.25 1427.5,-154.25 1427.5,-160.25 1421.5,-166.25 1415.5,-166.25"/>
<text text-anchor="middle" x="1353.5" y="-148.95" font-family="Helvetica,sans-Serif" font-size="14.00">4_U &lt;= 0.5</text>
<text text-anchor="middle" x="1353.5" y="-131.7" font-family="Helvetica,sans-Serif" font-size="14.00">entropy = 0.968</text>
<text text-anchor="middle" x="1353.5" y="-114.45" font-family="Helvetica,sans-Serif" font-size="14.00">samples = 697</text>
<text text-anchor="middle" x="1353.5" y="-97.2" font-family="Helvetica,sans-Serif" font-size="14.00">value = [643, 420]</text>
<text text-anchor="middle" x="1353.5" y="-79.95" font-family="Helvetica,sans-Serif" font-size="14.00">class = Animal</text>
</g>
<!-- 15394&#45;&gt;16330 -->
<g id="edge28" class="edge">
<title>15394&#45;&gt;16330</title>
<path fill="none" stroke="black" d="M1241.68,-202.07C1254.49,-192.69 1268.05,-182.75 1281.14,-173.15"/>
<polygon fill="black" stroke="black" points="1282.9,-176.2 1288.9,-167.47 1278.76,-170.56 1282.9,-176.2"/>
</g>
<!-- 15396 -->
<g id="node27" class="node">
<title>15396</title>
<path fill="#c0c0c0" stroke="black" d="M1154.5,-36C1154.5,-36 1124.5,-36 1124.5,-36 1118.5,-36 1112.5,-30 1112.5,-24 1112.5,-24 1112.5,-12 1112.5,-12 1112.5,-6 1118.5,0 1124.5,0 1124.5,0 1154.5,0 1154.5,0 1160.5,0 1166.5,-6 1166.5,-12 1166.5,-12 1166.5,-24 1166.5,-24 1166.5,-30 1160.5,-36 1154.5,-36"/>
<text text-anchor="middle" x="1139.5" y="-13.32" font-family="Helvetica,sans-Serif" font-size="14.00">(...)</text>
</g>
<!-- 15395&#45;&gt;15396 -->
<g id="edge26" class="edge">
<title>15395&#45;&gt;15396</title>
<path fill="none" stroke="black" d="M1160.26,-71.75C1156.9,-63.22 1153.49,-54.57 1150.44,-46.8"/>
<polygon fill="black" stroke="black" points="1153.73,-45.61 1146.81,-37.58 1147.21,-48.17 1153.73,-45.61"/>
</g>
<!-- 16113 -->
<g id="node28" class="node">
<title>16113</title>
<path fill="#c0c0c0" stroke="black" d="M1226.5,-36C1226.5,-36 1196.5,-36 1196.5,-36 1190.5,-36 1184.5,-30 1184.5,-24 1184.5,-24 1184.5,-12 1184.5,-12 1184.5,-6 1190.5,0 1196.5,0 1196.5,0 1226.5,0 1226.5,0 1232.5,0 1238.5,-6 1238.5,-12 1238.5,-12 1238.5,-24 1238.5,-24 1238.5,-30 1232.5,-36 1226.5,-36"/>
<text text-anchor="middle" x="1211.5" y="-13.32" font-family="Helvetica,sans-Serif" font-size="14.00">(...)</text>
</g>
<!-- 15395&#45;&gt;16113 -->
<g id="edge27" class="edge">
<title>15395&#45;&gt;16113</title>
<path fill="none" stroke="black" d="M1193.94,-71.75C1196.74,-63.32 1199.59,-54.77 1202.16,-47.07"/>
<polygon fill="black" stroke="black" points="1205.47,-48.2 1205.3,-37.61 1198.83,-45.99 1205.47,-48.2"/>
</g>
<!-- 16331 -->
<g id="node30" class="node">
<title>16331</title>
<path fill="#c0c0c0" stroke="black" d="M1332.5,-36C1332.5,-36 1302.5,-36 1302.5,-36 1296.5,-36 1290.5,-30 1290.5,-24 1290.5,-24 1290.5,-12 1290.5,-12 1290.5,-6 1296.5,0 1302.5,0 1302.5,0 1332.5,0 1332.5,0 1338.5,0 1344.5,-6 1344.5,-12 1344.5,-12 1344.5,-24 1344.5,-24 1344.5,-30 1338.5,-36 1332.5,-36"/>
<text text-anchor="middle" x="1317.5" y="-13.32" font-family="Helvetica,sans-Serif" font-size="14.00">(...)</text>
</g>
<!-- 16330&#45;&gt;16331 -->
<g id="edge29" class="edge">
<title>16330&#45;&gt;16331</title>
<path fill="none" stroke="black" d="M1336.66,-71.75C1333.56,-63.22 1330.42,-54.57 1327.6,-46.8"/>
<polygon fill="black" stroke="black" points="1330.96,-45.8 1324.25,-37.6 1324.38,-48.19 1330.96,-45.8"/>
</g>
<!-- 16570 -->
<g id="node31" class="node">
<title>16570</title>
<path fill="#c0c0c0" stroke="black" d="M1404.5,-36C1404.5,-36 1374.5,-36 1374.5,-36 1368.5,-36 1362.5,-30 1362.5,-24 1362.5,-24 1362.5,-12 1362.5,-12 1362.5,-6 1368.5,0 1374.5,0 1374.5,0 1404.5,0 1404.5,0 1410.5,0 1416.5,-6 1416.5,-12 1416.5,-12 1416.5,-24 1416.5,-24 1416.5,-30 1410.5,-36 1404.5,-36"/>
<text text-anchor="middle" x="1389.5" y="-13.32" font-family="Helvetica,sans-Serif" font-size="14.00">(...)</text>
</g>
<!-- 16330&#45;&gt;16570 -->
<g id="edge30" class="edge">
<title>16330&#45;&gt;16570</title>
<path fill="none" stroke="black" d="M1370.34,-71.75C1373.44,-63.22 1376.58,-54.57 1379.4,-46.8"/>
<polygon fill="black" stroke="black" points="1382.62,-48.19 1382.75,-37.6 1376.04,-45.8 1382.62,-48.19"/>
</g>
</g>
</svg>
