<?xml version="1.0" encoding="UTF-8" standalone="no"?>
<!DOCTYPE svg PUBLIC "-//W3C//DTD SVG 1.1//EN"
 "http://www.w3.org/Graphics/SVG/1.1/DTD/svg11.dtd">
<!-- Generated by graphviz version 12.0.0 (20240803.0821)
 -->
<!-- Title: Tree Pages: 1 -->
<svg width="1420pt" height="565pt"
 viewBox="0.00 0.00 1420.00 565.00" xmlns="http://www.w3.org/2000/svg" xmlns:xlink="http://www.w3.org/1999/xlink">
<g id="graph0" class="graph" transform="scale(1 1) rotate(0) translate(4 561)">
<title>Tree</title>
<polygon fill="white" stroke="none" points="-4,4 -4,-561 1416,-561 1416,4 -4,4"/>
<!-- 0 -->
<g id="node1" class="node">
<title>0</title>
<path fill="#fffffe" stroke="black" d="M777,-557C777,-557 617,-557 617,-557 611,-557 605,-551 605,-545 605,-545 605,-474.75 605,-474.75 605,-468.75 611,-462.75 617,-462.75 617,-462.75 777,-462.75 777,-462.75 783,-462.75 789,-468.75 789,-474.75 789,-474.75 789,-545 789,-545 789,-551 783,-557 777,-557"/>
<text text-anchor="middle" x="697" y="-539.7" font-family="Helvetica,sans-Serif" font-size="14.00">1_U &lt;= 0.5</text>
<text text-anchor="middle" x="697" y="-522.45" font-family="Helvetica,sans-Serif" font-size="14.00">entropy = 1.0</text>
<text text-anchor="middle" x="697" y="-505.2" font-family="Helvetica,sans-Serif" font-size="14.00">samples = 38122</text>
<text text-anchor="middle" x="697" y="-487.95" font-family="Helvetica,sans-Serif" font-size="14.00">value = [30222, 30123]</text>
<text text-anchor="middle" x="697" y="-470.7" font-family="Helvetica,sans-Serif" font-size="14.00">class = Animal</text>
</g>
<!-- 1 -->
<g id="node2" class="node">
<title>1</title>
<path fill="#f7dac4" stroke="black" d="M606,-426.75C606,-426.75 446,-426.75 446,-426.75 440,-426.75 434,-420.75 434,-414.75 434,-414.75 434,-344.5 434,-344.5 434,-338.5 440,-332.5 446,-332.5 446,-332.5 606,-332.5 606,-332.5 612,-332.5 618,-338.5 618,-344.5 618,-344.5 618,-414.75 618,-414.75 618,-420.75 612,-426.75 606,-426.75"/>
<text text-anchor="middle" x="526" y="-409.45" font-family="Helvetica,sans-Serif" font-size="14.00">22_U &lt;= 0.5</text>
<text text-anchor="middle" x="526" y="-392.2" font-family="Helvetica,sans-Serif" font-size="14.00">entropy = 0.978</text>
<text text-anchor="middle" x="526" y="-374.95" font-family="Helvetica,sans-Serif" font-size="14.00">samples = 17890</text>
<text text-anchor="middle" x="526" y="-357.7" font-family="Helvetica,sans-Serif" font-size="14.00">value = [16606, 11695]</text>
<text text-anchor="middle" x="526" y="-340.45" font-family="Helvetica,sans-Serif" font-size="14.00">class = Animal</text>
</g>
<!-- 0&#45;&gt;1 -->
<g id="edge1" class="edge">
<title>0&#45;&gt;1</title>
<path fill="none" stroke="black" d="M635.27,-462.57C622.87,-453.28 609.75,-443.44 597.07,-433.93"/>
<polygon fill="black" stroke="black" points="599.24,-431.18 589.14,-427.98 595.04,-436.78 599.24,-431.18"/>
<text text-anchor="middle" x="591.47" y="-447.15" font-family="Helvetica,sans-Serif" font-size="14.00">True</text>
</g>
<!-- 9768 -->
<g id="node17" class="node">
<title>9768</title>
<path fill="#cbe5f8" stroke="black" d="M968,-426.75C968,-426.75 808,-426.75 808,-426.75 802,-426.75 796,-420.75 796,-414.75 796,-414.75 796,-344.5 796,-344.5 796,-338.5 802,-332.5 808,-332.5 808,-332.5 968,-332.5 968,-332.5 974,-332.5 980,-338.5 980,-344.5 980,-344.5 980,-414.75 980,-414.75 980,-420.75 974,-426.75 968,-426.75"/>
<text text-anchor="middle" x="888" y="-409.45" font-family="Helvetica,sans-Serif" font-size="14.00">22_G &lt;= 0.5</text>
<text text-anchor="middle" x="888" y="-392.2" font-family="Helvetica,sans-Serif" font-size="14.00">entropy = 0.984</text>
<text text-anchor="middle" x="888" y="-374.95" font-family="Helvetica,sans-Serif" font-size="14.00">samples = 20232</text>
<text text-anchor="middle" x="888" y="-357.7" font-family="Helvetica,sans-Serif" font-size="14.00">value = [13616, 18428]</text>
<text text-anchor="middle" x="888" y="-340.45" font-family="Helvetica,sans-Serif" font-size="14.00">class = Plant</text>
</g>
<!-- 0&#45;&gt;9768 -->
<g id="edge16" class="edge">
<title>0&#45;&gt;9768</title>
<path fill="none" stroke="black" d="M766.23,-462.39C780.24,-452.98 795.07,-443.03 809.38,-433.42"/>
<polygon fill="black" stroke="black" points="811.08,-436.49 817.43,-428.01 807.18,-430.68 811.08,-436.49"/>
<text text-anchor="middle" x="813.87" y="-447.02" font-family="Helvetica,sans-Serif" font-size="14.00">False</text>
</g>
<!-- 2 -->
<g id="node3" class="node">
<title>2</title>
<path fill="#fbeade" stroke="black" d="M347,-296.5C347,-296.5 187,-296.5 187,-296.5 181,-296.5 175,-290.5 175,-284.5 175,-284.5 175,-214.25 175,-214.25 175,-208.25 181,-202.25 187,-202.25 187,-202.25 347,-202.25 347,-202.25 353,-202.25 359,-208.25 359,-214.25 359,-214.25 359,-284.5 359,-284.5 359,-290.5 353,-296.5 347,-296.5"/>
<text text-anchor="middle" x="267" y="-279.2" font-family="Helvetica,sans-Serif" font-size="14.00">21_U &lt;= 0.5</text>
<text text-anchor="middle" x="267" y="-261.95" font-family="Helvetica,sans-Serif" font-size="14.00">entropy = 0.994</text>
<text text-anchor="middle" x="267" y="-244.7" font-family="Helvetica,sans-Serif" font-size="14.00">samples = 15316</text>
<text text-anchor="middle" x="267" y="-227.45" font-family="Helvetica,sans-Serif" font-size="14.00">value = [13204, 11016]</text>
<text text-anchor="middle" x="267" y="-210.2" font-family="Helvetica,sans-Serif" font-size="14.00">class = Animal</text>
</g>
<!-- 1&#45;&gt;2 -->
<g id="edge2" class="edge">
<title>1&#45;&gt;2</title>
<path fill="none" stroke="black" d="M433.59,-332.87C412.87,-322.6 390.76,-311.66 369.65,-301.2"/>
<polygon fill="black" stroke="black" points="371.24,-298.09 360.73,-296.79 368.14,-304.36 371.24,-298.09"/>
</g>
<!-- 8689 -->
<g id="node10" class="node">
<title>8689</title>
<path fill="#ea9a61" stroke="black" d="M592.5,-296.5C592.5,-296.5 459.5,-296.5 459.5,-296.5 453.5,-296.5 447.5,-290.5 447.5,-284.5 447.5,-284.5 447.5,-214.25 447.5,-214.25 447.5,-208.25 453.5,-202.25 459.5,-202.25 459.5,-202.25 592.5,-202.25 592.5,-202.25 598.5,-202.25 604.5,-208.25 604.5,-214.25 604.5,-214.25 604.5,-284.5 604.5,-284.5 604.5,-290.5 598.5,-296.5 592.5,-296.5"/>
<text text-anchor="middle" x="526" y="-279.2" font-family="Helvetica,sans-Serif" font-size="14.00">13_A &lt;= 0.5</text>
<text text-anchor="middle" x="526" y="-261.95" font-family="Helvetica,sans-Serif" font-size="14.00">entropy = 0.649</text>
<text text-anchor="middle" x="526" y="-244.7" font-family="Helvetica,sans-Serif" font-size="14.00">samples = 2574</text>
<text text-anchor="middle" x="526" y="-227.45" font-family="Helvetica,sans-Serif" font-size="14.00">value = [3402, 679]</text>
<text text-anchor="middle" x="526" y="-210.2" font-family="Helvetica,sans-Serif" font-size="14.00">class = Animal</text>
</g>
<!-- 1&#45;&gt;8689 -->
<g id="edge9" class="edge">
<title>1&#45;&gt;8689</title>
<path fill="none" stroke="black" d="M526,-332.32C526,-324.42 526,-316.13 526,-307.98"/>
<polygon fill="black" stroke="black" points="529.5,-308.12 526,-298.12 522.5,-308.12 529.5,-308.12"/>
</g>
<!-- 3 -->
<g id="node4" class="node">
<title>3</title>
<path fill="#fdf4ee" stroke="black" d="M154,-166.25C154,-166.25 12,-166.25 12,-166.25 6,-166.25 0,-160.25 0,-154.25 0,-154.25 0,-84 0,-84 0,-78 6,-72 12,-72 12,-72 154,-72 154,-72 160,-72 166,-78 166,-84 166,-84 166,-154.25 166,-154.25 166,-160.25 160,-166.25 154,-166.25"/>
<text text-anchor="middle" x="83" y="-148.95" font-family="Helvetica,sans-Serif" font-size="14.00">17_A &lt;= 0.5</text>
<text text-anchor="middle" x="83" y="-131.7" font-family="Helvetica,sans-Serif" font-size="14.00">entropy = 0.999</text>
<text text-anchor="middle" x="83" y="-114.45" font-family="Helvetica,sans-Serif" font-size="14.00">samples = 11853</text>
<text text-anchor="middle" x="83" y="-97.2" font-family="Helvetica,sans-Serif" font-size="14.00">value = [9774, 8934]</text>
<text text-anchor="middle" x="83" y="-79.95" font-family="Helvetica,sans-Serif" font-size="14.00">class = Animal</text>
</g>
<!-- 2&#45;&gt;3 -->
<g id="edge3" class="edge">
<title>2&#45;&gt;3</title>
<path fill="none" stroke="black" d="M200.31,-201.89C186.94,-192.57 172.8,-182.72 159.14,-173.19"/>
<polygon fill="black" stroke="black" points="161.22,-170.38 151.01,-167.53 157.21,-176.12 161.22,-170.38"/>
</g>
<!-- 6988 -->
<g id="node7" class="node">
<title>6988</title>
<path fill="#f5cdb1" stroke="black" d="M338,-166.25C338,-166.25 196,-166.25 196,-166.25 190,-166.25 184,-160.25 184,-154.25 184,-154.25 184,-84 184,-84 184,-78 190,-72 196,-72 196,-72 338,-72 338,-72 344,-72 350,-78 350,-84 350,-84 350,-154.25 350,-154.25 350,-160.25 344,-166.25 338,-166.25"/>
<text text-anchor="middle" x="267" y="-148.95" font-family="Helvetica,sans-Serif" font-size="14.00">14_U &lt;= 0.5</text>
<text text-anchor="middle" x="267" y="-131.7" font-family="Helvetica,sans-Serif" font-size="14.00">entropy = 0.956</text>
<text text-anchor="middle" x="267" y="-114.45" font-family="Helvetica,sans-Serif" font-size="14.00">samples = 3463</text>
<text text-anchor="middle" x="267" y="-97.2" font-family="Helvetica,sans-Serif" font-size="14.00">value = [3430, 2082]</text>
<text text-anchor="middle" x="267" y="-79.95" font-family="Helvetica,sans-Serif" font-size="14.00">class = Animal</text>
</g>
<!-- 2&#45;&gt;6988 -->
<g id="edge6" class="edge">
<title>2&#45;&gt;6988</title>
<path fill="none" stroke="black" d="M267,-202.07C267,-194.17 267,-185.88 267,-177.73"/>
<polygon fill="black" stroke="black" points="270.5,-177.87 267,-167.87 263.5,-177.87 270.5,-177.87"/>
</g>
<!-- 4 -->
<g id="node5" class="node">
<title>4</title>
<path fill="#c0c0c0" stroke="black" d="M62,-36C62,-36 32,-36 32,-36 26,-36 20,-30 20,-24 20,-24 20,-12 20,-12 20,-6 26,0 32,0 32,0 62,0 62,0 68,0 74,-6 74,-12 74,-12 74,-24 74,-24 74,-30 68,-36 62,-36"/>
<text text-anchor="middle" x="47" y="-13.32" font-family="Helvetica,sans-Serif" font-size="14.00">(...)</text>
</g>
<!-- 3&#45;&gt;4 -->
<g id="edge4" class="edge">
<title>3&#45;&gt;4</title>
<path fill="none" stroke="black" d="M66.16,-71.75C63.06,-63.22 59.92,-54.57 57.1,-46.8"/>
<polygon fill="black" stroke="black" points="60.46,-45.8 53.75,-37.6 53.88,-48.19 60.46,-45.8"/>
</g>
<!-- 5515 -->
<g id="node6" class="node">
<title>5515</title>
<path fill="#c0c0c0" stroke="black" d="M134,-36C134,-36 104,-36 104,-36 98,-36 92,-30 92,-24 92,-24 92,-12 92,-12 92,-6 98,0 104,0 104,0 134,0 134,0 140,0 146,-6 146,-12 146,-12 146,-24 146,-24 146,-30 140,-36 134,-36"/>
<text text-anchor="middle" x="119" y="-13.32" font-family="Helvetica,sans-Serif" font-size="14.00">(...)</text>
</g>
<!-- 3&#45;&gt;5515 -->
<g id="edge5" class="edge">
<title>3&#45;&gt;5515</title>
<path fill="none" stroke="black" d="M99.84,-71.75C102.94,-63.22 106.08,-54.57 108.9,-46.8"/>
<polygon fill="black" stroke="black" points="112.12,-48.19 112.25,-37.6 105.54,-45.8 112.12,-48.19"/>
</g>
<!-- 6989 -->
<g id="node8" class="node">
<title>6989</title>
<path fill="#c0c0c0" stroke="black" d="M241,-36C241,-36 211,-36 211,-36 205,-36 199,-30 199,-24 199,-24 199,-12 199,-12 199,-6 205,0 211,0 211,0 241,0 241,0 247,0 253,-6 253,-12 253,-12 253,-24 253,-24 253,-30 247,-36 241,-36"/>
<text text-anchor="middle" x="226" y="-13.32" font-family="Helvetica,sans-Serif" font-size="14.00">(...)</text>
</g>
<!-- 6988&#45;&gt;6989 -->
<g id="edge7" class="edge">
<title>6988&#45;&gt;6989</title>
<path fill="none" stroke="black" d="M247.82,-71.75C244.29,-63.22 240.71,-54.57 237.5,-46.8"/>
<polygon fill="black" stroke="black" points="240.74,-45.47 233.68,-37.57 234.27,-48.15 240.74,-45.47"/>
</g>
<!-- 8170 -->
<g id="node9" class="node">
<title>8170</title>
<path fill="#c0c0c0" stroke="black" d="M313,-36C313,-36 283,-36 283,-36 277,-36 271,-30 271,-24 271,-24 271,-12 271,-12 271,-6 277,0 283,0 283,0 313,0 313,0 319,0 325,-6 325,-12 325,-12 325,-24 325,-24 325,-30 319,-36 313,-36"/>
<text text-anchor="middle" x="298" y="-13.32" font-family="Helvetica,sans-Serif" font-size="14.00">(...)</text>
</g>
<!-- 6988&#45;&gt;8170 -->
<g id="edge8" class="edge">
<title>6988&#45;&gt;8170</title>
<path fill="none" stroke="black" d="M281.5,-71.75C284.14,-63.32 286.81,-54.77 289.22,-47.07"/>
<polygon fill="black" stroke="black" points="292.53,-48.21 292.18,-37.62 285.85,-46.12 292.53,-48.21"/>
</g>
<!-- 8690 -->
<g id="node11" class="node">
<title>8690</title>
<path fill="#eb9d65" stroke="black" d="M513.5,-166.25C513.5,-166.25 380.5,-166.25 380.5,-166.25 374.5,-166.25 368.5,-160.25 368.5,-154.25 368.5,-154.25 368.5,-84 368.5,-84 368.5,-78 374.5,-72 380.5,-72 380.5,-72 513.5,-72 513.5,-72 519.5,-72 525.5,-78 525.5,-84 525.5,-84 525.5,-154.25 525.5,-154.25 525.5,-160.25 519.5,-166.25 513.5,-166.25"/>
<text text-anchor="middle" x="447" y="-148.95" font-family="Helvetica,sans-Serif" font-size="14.00">24_U &lt;= 0.5</text>
<text text-anchor="middle" x="447" y="-131.7" font-family="Helvetica,sans-Serif" font-size="14.00">entropy = 0.687</text>
<text text-anchor="middle" x="447" y="-114.45" font-family="Helvetica,sans-Serif" font-size="14.00">samples = 1973</text>
<text text-anchor="middle" x="447" y="-97.2" font-family="Helvetica,sans-Serif" font-size="14.00">value = [2548, 571]</text>
<text text-anchor="middle" x="447" y="-79.95" font-family="Helvetica,sans-Serif" font-size="14.00">class = Animal</text>
</g>
<!-- 8689&#45;&gt;8690 -->
<g id="edge10" class="edge">
<title>8689&#45;&gt;8690</title>
<path fill="none" stroke="black" d="M497.48,-202.07C492.28,-193.63 486.8,-184.74 481.45,-176.05"/>
<polygon fill="black" stroke="black" points="484.5,-174.33 476.27,-167.65 478.54,-178 484.5,-174.33"/>
</g>
<!-- 9545 -->
<g id="node14" class="node">
<title>9545</title>
<path fill="#e89152" stroke="black" d="M680,-166.25C680,-166.25 556,-166.25 556,-166.25 550,-166.25 544,-160.25 544,-154.25 544,-154.25 544,-84 544,-84 544,-78 550,-72 556,-72 556,-72 680,-72 680,-72 686,-72 692,-78 692,-84 692,-84 692,-154.25 692,-154.25 692,-160.25 686,-166.25 680,-166.25"/>
<text text-anchor="middle" x="618" y="-148.95" font-family="Helvetica,sans-Serif" font-size="14.00">15_C &lt;= 0.5</text>
<text text-anchor="middle" x="618" y="-131.7" font-family="Helvetica,sans-Serif" font-size="14.00">entropy = 0.507</text>
<text text-anchor="middle" x="618" y="-114.45" font-family="Helvetica,sans-Serif" font-size="14.00">samples = 601</text>
<text text-anchor="middle" x="618" y="-97.2" font-family="Helvetica,sans-Serif" font-size="14.00">value = [854, 108]</text>
<text text-anchor="middle" x="618" y="-79.95" font-family="Helvetica,sans-Serif" font-size="14.00">class = Animal</text>
</g>
<!-- 8689&#45;&gt;9545 -->
<g id="edge13" class="edge">
<title>8689&#45;&gt;9545</title>
<path fill="none" stroke="black" d="M559.21,-202.07C565.4,-193.45 571.93,-184.35 578.29,-175.49"/>
<polygon fill="black" stroke="black" points="580.97,-177.75 583.95,-167.59 575.28,-173.67 580.97,-177.75"/>
</g>
<!-- 8691 -->
<g id="node12" class="node">
<title>8691</title>
<path fill="#c0c0c0" stroke="black" d="M403,-36C403,-36 373,-36 373,-36 367,-36 361,-30 361,-24 361,-24 361,-12 361,-12 361,-6 367,0 373,0 373,0 403,0 403,0 409,0 415,-6 415,-12 415,-12 415,-24 415,-24 415,-30 409,-36 403,-36"/>
<text text-anchor="middle" x="388" y="-13.32" font-family="Helvetica,sans-Serif" font-size="14.00">(...)</text>
</g>
<!-- 8690&#45;&gt;8691 -->
<g id="edge11" class="edge">
<title>8690&#45;&gt;8691</title>
<path fill="none" stroke="black" d="M419.4,-71.75C414.15,-62.93 408.81,-53.96 404.06,-45.99"/>
<polygon fill="black" stroke="black" points="407.12,-44.28 399,-37.47 401.1,-47.86 407.12,-44.28"/>
</g>
<!-- 9496 -->
<g id="node13" class="node">
<title>9496</title>
<path fill="#c0c0c0" stroke="black" d="M475,-36C475,-36 445,-36 445,-36 439,-36 433,-30 433,-24 433,-24 433,-12 433,-12 433,-6 439,0 445,0 445,0 475,0 475,0 481,0 487,-6 487,-12 487,-12 487,-24 487,-24 487,-30 481,-36 475,-36"/>
<text text-anchor="middle" x="460" y="-13.32" font-family="Helvetica,sans-Serif" font-size="14.00">(...)</text>
</g>
<!-- 8690&#45;&gt;9496 -->
<g id="edge12" class="edge">
<title>8690&#45;&gt;9496</title>
<path fill="none" stroke="black" d="M453.08,-71.75C454.17,-63.42 455.28,-54.97 456.28,-47.34"/>
<polygon fill="black" stroke="black" points="459.72,-48.04 457.55,-37.67 452.78,-47.13 459.72,-48.04"/>
</g>
<!-- 9546 -->
<g id="node15" class="node">
<title>9546</title>
<path fill="#c0c0c0" stroke="black" d="M579,-36C579,-36 549,-36 549,-36 543,-36 537,-30 537,-24 537,-24 537,-12 537,-12 537,-6 543,0 549,0 549,0 579,0 579,0 585,0 591,-6 591,-12 591,-12 591,-24 591,-24 591,-30 585,-36 579,-36"/>
<text text-anchor="middle" x="564" y="-13.32" font-family="Helvetica,sans-Serif" font-size="14.00">(...)</text>
</g>
<!-- 9545&#45;&gt;9546 -->
<g id="edge14" class="edge">
<title>9545&#45;&gt;9546</title>
<path fill="none" stroke="black" d="M592.74,-71.75C587.98,-63.03 583.16,-54.16 578.85,-46.26"/>
<polygon fill="black" stroke="black" points="581.94,-44.61 574.08,-37.5 575.79,-47.96 581.94,-44.61"/>
</g>
<!-- 9705 -->
<g id="node16" class="node">
<title>9705</title>
<path fill="#c0c0c0" stroke="black" d="M651,-36C651,-36 621,-36 621,-36 615,-36 609,-30 609,-24 609,-24 609,-12 609,-12 609,-6 615,0 621,0 621,0 651,0 651,0 657,0 663,-6 663,-12 663,-12 663,-24 663,-24 663,-30 657,-36 651,-36"/>
<text text-anchor="middle" x="636" y="-13.32" font-family="Helvetica,sans-Serif" font-size="14.00">(...)</text>
</g>
<!-- 9545&#45;&gt;9705 -->
<g id="edge15" class="edge">
<title>9545&#45;&gt;9705</title>
<path fill="none" stroke="black" d="M626.42,-71.75C627.93,-63.42 629.47,-54.97 630.85,-47.34"/>
<polygon fill="black" stroke="black" points="634.27,-48.13 632.61,-37.66 627.38,-46.88 634.27,-48.13"/>
</g>
<!-- 9769 -->
<g id="node18" class="node">
<title>9769</title>
<path fill="#b0d8f5" stroke="black" d="M968,-296.5C968,-296.5 808,-296.5 808,-296.5 802,-296.5 796,-290.5 796,-284.5 796,-284.5 796,-214.25 796,-214.25 796,-208.25 802,-202.25 808,-202.25 808,-202.25 968,-202.25 968,-202.25 974,-202.25 980,-208.25 980,-214.25 980,-214.25 980,-284.5 980,-284.5 980,-290.5 974,-296.5 968,-296.5"/>
<text text-anchor="middle" x="888" y="-279.2" font-family="Helvetica,sans-Serif" font-size="14.00">8_C &lt;= 0.5</text>
<text text-anchor="middle" x="888" y="-261.95" font-family="Helvetica,sans-Serif" font-size="14.00">entropy = 0.954</text>
<text text-anchor="middle" x="888" y="-244.7" font-family="Helvetica,sans-Serif" font-size="14.00">samples = 17801</text>
<text text-anchor="middle" x="888" y="-227.45" font-family="Helvetica,sans-Serif" font-size="14.00">value = [10579, 17638]</text>
<text text-anchor="middle" x="888" y="-210.2" font-family="Helvetica,sans-Serif" font-size="14.00">class = Plant</text>
</g>
<!-- 9768&#45;&gt;9769 -->
<g id="edge17" class="edge">
<title>9768&#45;&gt;9769</title>
<path fill="none" stroke="black" d="M888,-332.32C888,-324.42 888,-316.13 888,-307.98"/>
<polygon fill="black" stroke="black" points="891.5,-308.12 888,-298.12 884.5,-308.12 891.5,-308.12"/>
</g>
<!-- 16286 -->
<g id="node25" class="node">
<title>16286</title>
<path fill="#eca26d" stroke="black" d="M1233.5,-296.5C1233.5,-296.5 1100.5,-296.5 1100.5,-296.5 1094.5,-296.5 1088.5,-290.5 1088.5,-284.5 1088.5,-284.5 1088.5,-214.25 1088.5,-214.25 1088.5,-208.25 1094.5,-202.25 1100.5,-202.25 1100.5,-202.25 1233.5,-202.25 1233.5,-202.25 1239.5,-202.25 1245.5,-208.25 1245.5,-214.25 1245.5,-214.25 1245.5,-284.5 1245.5,-284.5 1245.5,-290.5 1239.5,-296.5 1233.5,-296.5"/>
<text text-anchor="middle" x="1167" y="-279.2" font-family="Helvetica,sans-Serif" font-size="14.00">2_U &lt;= 0.5</text>
<text text-anchor="middle" x="1167" y="-261.95" font-family="Helvetica,sans-Serif" font-size="14.00">entropy = 0.735</text>
<text text-anchor="middle" x="1167" y="-244.7" font-family="Helvetica,sans-Serif" font-size="14.00">samples = 2431</text>
<text text-anchor="middle" x="1167" y="-227.45" font-family="Helvetica,sans-Serif" font-size="14.00">value = [3037, 790]</text>
<text text-anchor="middle" x="1167" y="-210.2" font-family="Helvetica,sans-Serif" font-size="14.00">class = Animal</text>
</g>
<!-- 9768&#45;&gt;16286 -->
<g id="edge24" class="edge">
<title>9768&#45;&gt;16286</title>
<path fill="none" stroke="black" d="M980.13,-336.28C1011.5,-321.85 1046.5,-305.77 1077.65,-291.45"/>
<polygon fill="black" stroke="black" points="1079.06,-294.65 1086.68,-287.3 1076.13,-288.29 1079.06,-294.65"/>
</g>
<!-- 9770 -->
<g id="node19" class="node">
<title>9770</title>
<path fill="#a2d1f3" stroke="black" d="M873.5,-166.25C873.5,-166.25 722.5,-166.25 722.5,-166.25 716.5,-166.25 710.5,-160.25 710.5,-154.25 710.5,-154.25 710.5,-84 710.5,-84 710.5,-78 716.5,-72 722.5,-72 722.5,-72 873.5,-72 873.5,-72 879.5,-72 885.5,-78 885.5,-84 885.5,-84 885.5,-154.25 885.5,-154.25 885.5,-160.25 879.5,-166.25 873.5,-166.25"/>
<text text-anchor="middle" x="798" y="-148.95" font-family="Helvetica,sans-Serif" font-size="14.00">8_G &lt;= 0.5</text>
<text text-anchor="middle" x="798" y="-131.7" font-family="Helvetica,sans-Serif" font-size="14.00">entropy = 0.931</text>
<text text-anchor="middle" x="798" y="-114.45" font-family="Helvetica,sans-Serif" font-size="14.00">samples = 14558</text>
<text text-anchor="middle" x="798" y="-97.2" font-family="Helvetica,sans-Serif" font-size="14.00">value = [7999, 15071]</text>
<text text-anchor="middle" x="798" y="-79.95" font-family="Helvetica,sans-Serif" font-size="14.00">class = Plant</text>
</g>
<!-- 9769&#45;&gt;9770 -->
<g id="edge18" class="edge">
<title>9769&#45;&gt;9770</title>
<path fill="none" stroke="black" d="M855.51,-202.07C849.52,-193.54 843.21,-184.54 837.05,-175.77"/>
<polygon fill="black" stroke="black" points="839.92,-173.77 831.31,-167.6 834.19,-177.79 839.92,-173.77"/>
</g>
<!-- 14901 -->
<g id="node22" class="node">
<title>14901</title>
<path fill="#fffefe" stroke="black" d="M1058,-166.25C1058,-166.25 916,-166.25 916,-166.25 910,-166.25 904,-160.25 904,-154.25 904,-154.25 904,-84 904,-84 904,-78 910,-72 916,-72 916,-72 1058,-72 1058,-72 1064,-72 1070,-78 1070,-84 1070,-84 1070,-154.25 1070,-154.25 1070,-160.25 1064,-166.25 1058,-166.25"/>
<text text-anchor="middle" x="987" y="-148.95" font-family="Helvetica,sans-Serif" font-size="14.00">22_U &lt;= 0.5</text>
<text text-anchor="middle" x="987" y="-131.7" font-family="Helvetica,sans-Serif" font-size="14.00">entropy = 1.0</text>
<text text-anchor="middle" x="987" y="-114.45" font-family="Helvetica,sans-Serif" font-size="14.00">samples = 3243</text>
<text text-anchor="middle" x="987" y="-97.2" font-family="Helvetica,sans-Serif" font-size="14.00">value = [2580, 2567]</text>
<text text-anchor="middle" x="987" y="-79.95" font-family="Helvetica,sans-Serif" font-size="14.00">class = Animal</text>
</g>
<!-- 9769&#45;&gt;14901 -->
<g id="edge21" class="edge">
<title>9769&#45;&gt;14901</title>
<path fill="none" stroke="black" d="M923.74,-202.07C930.47,-193.36 937.57,-184.16 944.48,-175.21"/>
<polygon fill="black" stroke="black" points="947.05,-177.61 950.39,-167.56 941.51,-173.33 947.05,-177.61"/>
</g>
<!-- 9771 -->
<g id="node20" class="node">
<title>9771</title>
<path fill="#c0c0c0" stroke="black" d="M763,-36C763,-36 733,-36 733,-36 727,-36 721,-30 721,-24 721,-24 721,-12 721,-12 721,-6 727,0 733,0 733,0 763,0 763,0 769,0 775,-6 775,-12 775,-12 775,-24 775,-24 775,-30 769,-36 763,-36"/>
<text text-anchor="middle" x="748" y="-13.32" font-family="Helvetica,sans-Serif" font-size="14.00">(...)</text>
</g>
<!-- 9770&#45;&gt;9771 -->
<g id="edge19" class="edge">
<title>9770&#45;&gt;9771</title>
<path fill="none" stroke="black" d="M774.61,-71.75C770.21,-63.03 765.74,-54.16 761.75,-46.26"/>
<polygon fill="black" stroke="black" points="764.97,-44.88 757.34,-37.52 758.72,-48.03 764.97,-44.88"/>
</g>
<!-- 13072 -->
<g id="node21" class="node">
<title>13072</title>
<path fill="#c0c0c0" stroke="black" d="M835,-36C835,-36 805,-36 805,-36 799,-36 793,-30 793,-24 793,-24 793,-12 793,-12 793,-6 799,0 805,0 805,0 835,0 835,0 841,0 847,-6 847,-12 847,-12 847,-24 847,-24 847,-30 841,-36 835,-36"/>
<text text-anchor="middle" x="820" y="-13.32" font-family="Helvetica,sans-Serif" font-size="14.00">(...)</text>
</g>
<!-- 9770&#45;&gt;13072 -->
<g id="edge20" class="edge">
<title>9770&#45;&gt;13072</title>
<path fill="none" stroke="black" d="M808.29,-71.75C810.14,-63.42 812.02,-54.97 813.71,-47.34"/>
<polygon fill="black" stroke="black" points="817.11,-48.17 815.86,-37.65 810.28,-46.65 817.11,-48.17"/>
</g>
<!-- 14902 -->
<g id="node23" class="node">
<title>14902</title>
<path fill="#c0c0c0" stroke="black" d="M948,-36C948,-36 918,-36 918,-36 912,-36 906,-30 906,-24 906,-24 906,-12 906,-12 906,-6 912,0 918,0 918,0 948,0 948,0 954,0 960,-6 960,-12 960,-12 960,-24 960,-24 960,-30 954,-36 948,-36"/>
<text text-anchor="middle" x="933" y="-13.32" font-family="Helvetica,sans-Serif" font-size="14.00">(...)</text>
</g>
<!-- 14901&#45;&gt;14902 -->
<g id="edge22" class="edge">
<title>14901&#45;&gt;14902</title>
<path fill="none" stroke="black" d="M961.74,-71.75C956.98,-63.03 952.16,-54.16 947.85,-46.26"/>
<polygon fill="black" stroke="black" points="950.94,-44.61 943.08,-37.5 944.79,-47.96 950.94,-44.61"/>
</g>
<!-- 16091 -->
<g id="node24" class="node">
<title>16091</title>
<path fill="#c0c0c0" stroke="black" d="M1020,-36C1020,-36 990,-36 990,-36 984,-36 978,-30 978,-24 978,-24 978,-12 978,-12 978,-6 984,0 990,0 990,0 1020,0 1020,0 1026,0 1032,-6 1032,-12 1032,-12 1032,-24 1032,-24 1032,-30 1026,-36 1020,-36"/>
<text text-anchor="middle" x="1005" y="-13.32" font-family="Helvetica,sans-Serif" font-size="14.00">(...)</text>
</g>
<!-- 14901&#45;&gt;16091 -->
<g id="edge23" class="edge">
<title>14901&#45;&gt;16091</title>
<path fill="none" stroke="black" d="M995.42,-71.75C996.93,-63.42 998.47,-54.97 999.85,-47.34"/>
<polygon fill="black" stroke="black" points="1003.27,-48.13 1001.61,-37.66 996.38,-46.88 1003.27,-48.13"/>
</g>
<!-- 16287 -->
<g id="node26" class="node">
<title>16287</title>
<path fill="#ea9b62" stroke="black" d="M1233.5,-166.25C1233.5,-166.25 1100.5,-166.25 1100.5,-166.25 1094.5,-166.25 1088.5,-160.25 1088.5,-154.25 1088.5,-154.25 1088.5,-84 1088.5,-84 1088.5,-78 1094.5,-72 1100.5,-72 1100.5,-72 1233.5,-72 1233.5,-72 1239.5,-72 1245.5,-78 1245.5,-84 1245.5,-84 1245.5,-154.25 1245.5,-154.25 1245.5,-160.25 1239.5,-166.25 1233.5,-166.25"/>
<text text-anchor="middle" x="1167" y="-148.95" font-family="Helvetica,sans-Serif" font-size="14.00">25_G &lt;= 0.5</text>
<text text-anchor="middle" x="1167" y="-131.7" font-family="Helvetica,sans-Serif" font-size="14.00">entropy = 0.66</text>
<text text-anchor="middle" x="1167" y="-114.45" font-family="Helvetica,sans-Serif" font-size="14.00">samples = 2028</text>
<text text-anchor="middle" x="1167" y="-97.2" font-family="Helvetica,sans-Serif" font-size="14.00">value = [2649, 547]</text>
<text text-anchor="middle" x="1167" y="-79.95" font-family="Helvetica,sans-Serif" font-size="14.00">class = Animal</text>
</g>
<!-- 16286&#45;&gt;16287 -->
<g id="edge25" class="edge">
<title>16286&#45;&gt;16287</title>
<path fill="none" stroke="black" d="M1167,-202.07C1167,-194.17 1167,-185.88 1167,-177.73"/>
<polygon fill="black" stroke="black" points="1170.5,-177.87 1167,-167.87 1163.5,-177.87 1170.5,-177.87"/>
</g>
<!-- 16878 -->
<g id="node29" class="node">
<title>16878</title>
<path fill="#f5d0b5" stroke="black" d="M1400,-166.25C1400,-166.25 1276,-166.25 1276,-166.25 1270,-166.25 1264,-160.25 1264,-154.25 1264,-154.25 1264,-84 1264,-84 1264,-78 1270,-72 1276,-72 1276,-72 1400,-72 1400,-72 1406,-72 1412,-78 1412,-84 1412,-84 1412,-154.25 1412,-154.25 1412,-160.25 1406,-166.25 1400,-166.25"/>
<text text-anchor="middle" x="1338" y="-148.95" font-family="Helvetica,sans-Serif" font-size="14.00">11_U &lt;= 0.5</text>
<text text-anchor="middle" x="1338" y="-131.7" font-family="Helvetica,sans-Serif" font-size="14.00">entropy = 0.962</text>
<text text-anchor="middle" x="1338" y="-114.45" font-family="Helvetica,sans-Serif" font-size="14.00">samples = 403</text>
<text text-anchor="middle" x="1338" y="-97.2" font-family="Helvetica,sans-Serif" font-size="14.00">value = [388, 243]</text>
<text text-anchor="middle" x="1338" y="-79.95" font-family="Helvetica,sans-Serif" font-size="14.00">class = Animal</text>
</g>
<!-- 16286&#45;&gt;16878 -->
<g id="edge28" class="edge">
<title>16286&#45;&gt;16878</title>
<path fill="none" stroke="black" d="M1228.73,-202.07C1241.13,-192.78 1254.25,-182.94 1266.93,-173.43"/>
<polygon fill="black" stroke="black" points="1268.96,-176.28 1274.86,-167.48 1264.76,-170.68 1268.96,-176.28"/>
</g>
<!-- 16288 -->
<g id="node27" class="node">
<title>16288</title>
<path fill="#c0c0c0" stroke="black" d="M1141,-36C1141,-36 1111,-36 1111,-36 1105,-36 1099,-30 1099,-24 1099,-24 1099,-12 1099,-12 1099,-6 1105,0 1111,0 1111,0 1141,0 1141,0 1147,0 1153,-6 1153,-12 1153,-12 1153,-24 1153,-24 1153,-30 1147,-36 1141,-36"/>
<text text-anchor="middle" x="1126" y="-13.32" font-family="Helvetica,sans-Serif" font-size="14.00">(...)</text>
</g>
<!-- 16287&#45;&gt;16288 -->
<g id="edge26" class="edge">
<title>16287&#45;&gt;16288</title>
<path fill="none" stroke="black" d="M1147.82,-71.75C1144.29,-63.22 1140.71,-54.57 1137.5,-46.8"/>
<polygon fill="black" stroke="black" points="1140.74,-45.47 1133.68,-37.57 1134.27,-48.15 1140.74,-45.47"/>
</g>
<!-- 16859 -->
<g id="node28" class="node">
<title>16859</title>
<path fill="#c0c0c0" stroke="black" d="M1213,-36C1213,-36 1183,-36 1183,-36 1177,-36 1171,-30 1171,-24 1171,-24 1171,-12 1171,-12 1171,-6 1177,0 1183,0 1183,0 1213,0 1213,0 1219,0 1225,-6 1225,-12 1225,-12 1225,-24 1225,-24 1225,-30 1219,-36 1213,-36"/>
<text text-anchor="middle" x="1198" y="-13.32" font-family="Helvetica,sans-Serif" font-size="14.00">(...)</text>
</g>
<!-- 16287&#45;&gt;16859 -->
<g id="edge27" class="edge">
<title>16287&#45;&gt;16859</title>
<path fill="none" stroke="black" d="M1181.5,-71.75C1184.14,-63.32 1186.81,-54.77 1189.22,-47.07"/>
<polygon fill="black" stroke="black" points="1192.53,-48.21 1192.18,-37.62 1185.85,-46.12 1192.53,-48.21"/>
</g>
<!-- 16879 -->
<g id="node30" class="node">
<title>16879</title>
<path fill="#c0c0c0" stroke="black" d="M1317,-36C1317,-36 1287,-36 1287,-36 1281,-36 1275,-30 1275,-24 1275,-24 1275,-12 1275,-12 1275,-6 1281,0 1287,0 1287,0 1317,0 1317,0 1323,0 1329,-6 1329,-12 1329,-12 1329,-24 1329,-24 1329,-30 1323,-36 1317,-36"/>
<text text-anchor="middle" x="1302" y="-13.32" font-family="Helvetica,sans-Serif" font-size="14.00">(...)</text>
</g>
<!-- 16878&#45;&gt;16879 -->
<g id="edge29" class="edge">
<title>16878&#45;&gt;16879</title>
<path fill="none" stroke="black" d="M1321.16,-71.75C1318.06,-63.22 1314.92,-54.57 1312.1,-46.8"/>
<polygon fill="black" stroke="black" points="1315.46,-45.8 1308.75,-37.6 1308.88,-48.19 1315.46,-45.8"/>
</g>
<!-- 17008 -->
<g id="node31" class="node">
<title>17008</title>
<path fill="#c0c0c0" stroke="black" d="M1389,-36C1389,-36 1359,-36 1359,-36 1353,-36 1347,-30 1347,-24 1347,-24 1347,-12 1347,-12 1347,-6 1353,0 1359,0 1359,0 1389,0 1389,0 1395,0 1401,-6 1401,-12 1401,-12 1401,-24 1401,-24 1401,-30 1395,-36 1389,-36"/>
<text text-anchor="middle" x="1374" y="-13.32" font-family="Helvetica,sans-Serif" font-size="14.00">(...)</text>
</g>
<!-- 16878&#45;&gt;17008 -->
<g id="edge30" class="edge">
<title>16878&#45;&gt;17008</title>
<path fill="none" stroke="black" d="M1354.84,-71.75C1357.94,-63.22 1361.08,-54.57 1363.9,-46.8"/>
<polygon fill="black" stroke="black" points="1367.12,-48.19 1367.25,-37.6 1360.54,-45.8 1367.12,-48.19"/>
</g>
</g>
</svg>
