<?xml version="1.0" encoding="UTF-8" standalone="no"?>
<!DOCTYPE svg PUBLIC "-//W3C//DTD SVG 1.1//EN"
 "http://www.w3.org/Graphics/SVG/1.1/DTD/svg11.dtd">
<!-- Generated by graphviz version 12.0.0 (20240803.0821)
 -->
<!-- Title: Tree Pages: 1 -->
<svg width="1374pt" height="565pt"
 viewBox="0.00 0.00 1374.38 565.00" xmlns="http://www.w3.org/2000/svg" xmlns:xlink="http://www.w3.org/1999/xlink">
<g id="graph0" class="graph" transform="scale(1 1) rotate(0) translate(4 561)">
<title>Tree</title>
<polygon fill="white" stroke="none" points="-4,4 -4,-561 1370.38,-561 1370.38,4 -4,4"/>
<!-- 0 -->
<g id="node1" class="node">
<title>0</title>
<path fill="#ffffff" stroke="black" d="M818,-557C818,-557 658,-557 658,-557 652,-557 646,-551 646,-545 646,-545 646,-474.75 646,-474.75 646,-468.75 652,-462.75 658,-462.75 658,-462.75 818,-462.75 818,-462.75 824,-462.75 830,-468.75 830,-474.75 830,-474.75 830,-545 830,-545 830,-551 824,-557 818,-557"/>
<text text-anchor="middle" x="738" y="-539.7" font-family="Helvetica,sans-Serif" font-size="14.00">23_C &lt;= 0.5</text>
<text text-anchor="middle" x="738" y="-522.45" font-family="Helvetica,sans-Serif" font-size="14.00">entropy = 1.0</text>
<text text-anchor="middle" x="738" y="-505.2" font-family="Helvetica,sans-Serif" font-size="14.00">samples = 38196</text>
<text text-anchor="middle" x="738" y="-487.95" font-family="Helvetica,sans-Serif" font-size="14.00">value = [30175, 30170]</text>
<text text-anchor="middle" x="738" y="-470.7" font-family="Helvetica,sans-Serif" font-size="14.00">class = Animal</text>
</g>
<!-- 1 -->
<g id="node2" class="node">
<title>1</title>
<path fill="#f7fbfe" stroke="black" d="M641,-426.75C641,-426.75 481,-426.75 481,-426.75 475,-426.75 469,-420.75 469,-414.75 469,-414.75 469,-344.5 469,-344.5 469,-338.5 475,-332.5 481,-332.5 481,-332.5 641,-332.5 641,-332.5 647,-332.5 653,-338.5 653,-344.5 653,-344.5 653,-414.75 653,-414.75 653,-420.75 647,-426.75 641,-426.75"/>
<text text-anchor="middle" x="561" y="-409.45" font-family="Helvetica,sans-Serif" font-size="14.00">6_A &lt;= 0.5</text>
<text text-anchor="middle" x="561" y="-392.2" font-family="Helvetica,sans-Serif" font-size="14.00">entropy = 1.0</text>
<text text-anchor="middle" x="561" y="-374.95" font-family="Helvetica,sans-Serif" font-size="14.00">samples = 36811</text>
<text text-anchor="middle" x="561" y="-357.7" font-family="Helvetica,sans-Serif" font-size="14.00">value = [28474, 29668]</text>
<text text-anchor="middle" x="561" y="-340.45" font-family="Helvetica,sans-Serif" font-size="14.00">class = Plant</text>
</g>
<!-- 0&#45;&gt;1 -->
<g id="edge1" class="edge">
<title>0&#45;&gt;1</title>
<path fill="none" stroke="black" d="M673.85,-462.39C660.99,-453.07 647.38,-443.22 634.24,-433.69"/>
<polygon fill="black" stroke="black" points="636.61,-431.09 626.46,-428.05 632.5,-436.75 636.61,-431.09"/>
<text text-anchor="middle" x="629.17" y="-447.18" font-family="Helvetica,sans-Serif" font-size="14.00">True</text>
</g>
<!-- 16438 -->
<g id="node17" class="node">
<title>16438</title>
<path fill="#eda673" stroke="black" d="M971.5,-426.75C971.5,-426.75 838.5,-426.75 838.5,-426.75 832.5,-426.75 826.5,-420.75 826.5,-414.75 826.5,-414.75 826.5,-344.5 826.5,-344.5 826.5,-338.5 832.5,-332.5 838.5,-332.5 838.5,-332.5 971.5,-332.5 971.5,-332.5 977.5,-332.5 983.5,-338.5 983.5,-344.5 983.5,-344.5 983.5,-414.75 983.5,-414.75 983.5,-420.75 977.5,-426.75 971.5,-426.75"/>
<text text-anchor="middle" x="905" y="-409.45" font-family="Helvetica,sans-Serif" font-size="14.00">5_C &lt;= 0.5</text>
<text text-anchor="middle" x="905" y="-392.2" font-family="Helvetica,sans-Serif" font-size="14.00">entropy = 0.774</text>
<text text-anchor="middle" x="905" y="-374.95" font-family="Helvetica,sans-Serif" font-size="14.00">samples = 1385</text>
<text text-anchor="middle" x="905" y="-357.7" font-family="Helvetica,sans-Serif" font-size="14.00">value = [1701, 502]</text>
<text text-anchor="middle" x="905" y="-340.45" font-family="Helvetica,sans-Serif" font-size="14.00">class = Animal</text>
</g>
<!-- 0&#45;&gt;16438 -->
<g id="edge16" class="edge">
<title>0&#45;&gt;16438</title>
<path fill="none" stroke="black" d="M798.29,-462.57C810.39,-453.28 823.21,-443.44 835.59,-433.93"/>
<polygon fill="black" stroke="black" points="837.52,-436.86 843.32,-428 833.25,-431.31 837.52,-436.86"/>
<text text-anchor="middle" x="841.26" y="-447.19" font-family="Helvetica,sans-Serif" font-size="14.00">False</text>
</g>
<!-- 2 -->
<g id="node3" class="node">
<title>2</title>
<path fill="#fdf7f2" stroke="black" d="M365,-296.5C365,-296.5 205,-296.5 205,-296.5 199,-296.5 193,-290.5 193,-284.5 193,-284.5 193,-214.25 193,-214.25 193,-208.25 199,-202.25 205,-202.25 205,-202.25 365,-202.25 365,-202.25 371,-202.25 377,-208.25 377,-214.25 377,-214.25 377,-284.5 377,-284.5 377,-290.5 371,-296.5 365,-296.5"/>
<text text-anchor="middle" x="285" y="-279.2" font-family="Helvetica,sans-Serif" font-size="14.00">10_A &lt;= 0.5</text>
<text text-anchor="middle" x="285" y="-261.95" font-family="Helvetica,sans-Serif" font-size="14.00">entropy = 0.999</text>
<text text-anchor="middle" x="285" y="-244.7" font-family="Helvetica,sans-Serif" font-size="14.00">samples = 27589</text>
<text text-anchor="middle" x="285" y="-227.45" font-family="Helvetica,sans-Serif" font-size="14.00">value = [22568, 21094]</text>
<text text-anchor="middle" x="285" y="-210.2" font-family="Helvetica,sans-Serif" font-size="14.00">class = Animal</text>
</g>
<!-- 1&#45;&gt;2 -->
<g id="edge2" class="edge">
<title>1&#45;&gt;2</title>
<path fill="none" stroke="black" d="M468.71,-335.74C442.59,-323.6 414,-310.32 387.32,-297.92"/>
<polygon fill="black" stroke="black" points="389.12,-294.9 378.57,-293.86 386.17,-301.24 389.12,-294.9"/>
</g>
<!-- 12601 -->
<g id="node10" class="node">
<title>12601</title>
<path fill="#c1e1f7" stroke="black" d="M632,-296.5C632,-296.5 490,-296.5 490,-296.5 484,-296.5 478,-290.5 478,-284.5 478,-284.5 478,-214.25 478,-214.25 478,-208.25 484,-202.25 490,-202.25 490,-202.25 632,-202.25 632,-202.25 638,-202.25 644,-208.25 644,-214.25 644,-214.25 644,-284.5 644,-284.5 644,-290.5 638,-296.5 632,-296.5"/>
<text text-anchor="middle" x="561" y="-279.2" font-family="Helvetica,sans-Serif" font-size="14.00">3_G &lt;= 0.5</text>
<text text-anchor="middle" x="561" y="-261.95" font-family="Helvetica,sans-Serif" font-size="14.00">entropy = 0.975</text>
<text text-anchor="middle" x="561" y="-244.7" font-family="Helvetica,sans-Serif" font-size="14.00">samples = 9222</text>
<text text-anchor="middle" x="561" y="-227.45" font-family="Helvetica,sans-Serif" font-size="14.00">value = [5906, 8574]</text>
<text text-anchor="middle" x="561" y="-210.2" font-family="Helvetica,sans-Serif" font-size="14.00">class = Plant</text>
</g>
<!-- 1&#45;&gt;12601 -->
<g id="edge9" class="edge">
<title>1&#45;&gt;12601</title>
<path fill="none" stroke="black" d="M561,-332.32C561,-324.42 561,-316.13 561,-307.98"/>
<polygon fill="black" stroke="black" points="564.5,-308.12 561,-298.12 557.5,-308.12 564.5,-308.12"/>
</g>
<!-- 3 -->
<g id="node4" class="node">
<title>3</title>
<path fill="#fcf0e7" stroke="black" d="M172,-166.25C172,-166.25 12,-166.25 12,-166.25 6,-166.25 0,-160.25 0,-154.25 0,-154.25 0,-84 0,-84 0,-78 6,-72 12,-72 12,-72 172,-72 172,-72 178,-72 184,-78 184,-84 184,-84 184,-154.25 184,-154.25 184,-160.25 178,-166.25 172,-166.25"/>
<text text-anchor="middle" x="92" y="-148.95" font-family="Helvetica,sans-Serif" font-size="14.00">23_G &lt;= 0.5</text>
<text text-anchor="middle" x="92" y="-131.7" font-family="Helvetica,sans-Serif" font-size="14.00">entropy = 0.997</text>
<text text-anchor="middle" x="92" y="-114.45" font-family="Helvetica,sans-Serif" font-size="14.00">samples = 20303</text>
<text text-anchor="middle" x="92" y="-97.2" font-family="Helvetica,sans-Serif" font-size="14.00">value = [17159, 15114]</text>
<text text-anchor="middle" x="92" y="-79.95" font-family="Helvetica,sans-Serif" font-size="14.00">class = Animal</text>
</g>
<!-- 2&#45;&gt;3 -->
<g id="edge3" class="edge">
<title>2&#45;&gt;3</title>
<path fill="none" stroke="black" d="M215.05,-201.89C200.89,-192.48 185.9,-182.53 171.45,-172.92"/>
<polygon fill="black" stroke="black" points="173.56,-170.12 163.3,-167.5 169.69,-175.95 173.56,-170.12"/>
</g>
<!-- 9520 -->
<g id="node7" class="node">
<title>9520</title>
<path fill="#ecf6fd" stroke="black" d="M356,-166.25C356,-166.25 214,-166.25 214,-166.25 208,-166.25 202,-160.25 202,-154.25 202,-154.25 202,-84 202,-84 202,-78 208,-72 214,-72 214,-72 356,-72 356,-72 362,-72 368,-78 368,-84 368,-84 368,-154.25 368,-154.25 368,-160.25 362,-166.25 356,-166.25"/>
<text text-anchor="middle" x="285" y="-148.95" font-family="Helvetica,sans-Serif" font-size="14.00">23_U &lt;= 0.5</text>
<text text-anchor="middle" x="285" y="-131.7" font-family="Helvetica,sans-Serif" font-size="14.00">entropy = 0.998</text>
<text text-anchor="middle" x="285" y="-114.45" font-family="Helvetica,sans-Serif" font-size="14.00">samples = 7286</text>
<text text-anchor="middle" x="285" y="-97.2" font-family="Helvetica,sans-Serif" font-size="14.00">value = [5409, 5980]</text>
<text text-anchor="middle" x="285" y="-79.95" font-family="Helvetica,sans-Serif" font-size="14.00">class = Plant</text>
</g>
<!-- 2&#45;&gt;9520 -->
<g id="edge6" class="edge">
<title>2&#45;&gt;9520</title>
<path fill="none" stroke="black" d="M285,-202.07C285,-194.17 285,-185.88 285,-177.73"/>
<polygon fill="black" stroke="black" points="288.5,-177.87 285,-167.87 281.5,-177.87 288.5,-177.87"/>
</g>
<!-- 4 -->
<g id="node5" class="node">
<title>4</title>
<path fill="#c0c0c0" stroke="black" d="M71,-36C71,-36 41,-36 41,-36 35,-36 29,-30 29,-24 29,-24 29,-12 29,-12 29,-6 35,0 41,0 41,0 71,0 71,0 77,0 83,-6 83,-12 83,-12 83,-24 83,-24 83,-30 77,-36 71,-36"/>
<text text-anchor="middle" x="56" y="-13.32" font-family="Helvetica,sans-Serif" font-size="14.00">(...)</text>
</g>
<!-- 3&#45;&gt;4 -->
<g id="edge4" class="edge">
<title>3&#45;&gt;4</title>
<path fill="none" stroke="black" d="M75.16,-71.75C72.06,-63.22 68.92,-54.57 66.1,-46.8"/>
<polygon fill="black" stroke="black" points="69.46,-45.8 62.75,-37.6 62.88,-48.19 69.46,-45.8"/>
</g>
<!-- 9023 -->
<g id="node6" class="node">
<title>9023</title>
<path fill="#c0c0c0" stroke="black" d="M143,-36C143,-36 113,-36 113,-36 107,-36 101,-30 101,-24 101,-24 101,-12 101,-12 101,-6 107,0 113,0 113,0 143,0 143,0 149,0 155,-6 155,-12 155,-12 155,-24 155,-24 155,-30 149,-36 143,-36"/>
<text text-anchor="middle" x="128" y="-13.32" font-family="Helvetica,sans-Serif" font-size="14.00">(...)</text>
</g>
<!-- 3&#45;&gt;9023 -->
<g id="edge5" class="edge">
<title>3&#45;&gt;9023</title>
<path fill="none" stroke="black" d="M108.84,-71.75C111.94,-63.22 115.08,-54.57 117.9,-46.8"/>
<polygon fill="black" stroke="black" points="121.12,-48.19 121.25,-37.6 114.54,-45.8 121.12,-48.19"/>
</g>
<!-- 9521 -->
<g id="node8" class="node">
<title>9521</title>
<path fill="#c0c0c0" stroke="black" d="M268,-36C268,-36 238,-36 238,-36 232,-36 226,-30 226,-24 226,-24 226,-12 226,-12 226,-6 232,0 238,0 238,0 268,0 268,0 274,0 280,-6 280,-12 280,-12 280,-24 280,-24 280,-30 274,-36 268,-36"/>
<text text-anchor="middle" x="253" y="-13.32" font-family="Helvetica,sans-Serif" font-size="14.00">(...)</text>
</g>
<!-- 9520&#45;&gt;9521 -->
<g id="edge7" class="edge">
<title>9520&#45;&gt;9521</title>
<path fill="none" stroke="black" d="M270.03,-71.75C267.31,-63.32 264.55,-54.77 262.06,-47.07"/>
<polygon fill="black" stroke="black" points="265.41,-46.05 259.01,-37.61 258.75,-48.2 265.41,-46.05"/>
</g>
<!-- 12472 -->
<g id="node9" class="node">
<title>12472</title>
<path fill="#c0c0c0" stroke="black" d="M340,-36C340,-36 310,-36 310,-36 304,-36 298,-30 298,-24 298,-24 298,-12 298,-12 298,-6 304,0 310,0 310,0 340,0 340,0 346,0 352,-6 352,-12 352,-12 352,-24 352,-24 352,-30 346,-36 340,-36"/>
<text text-anchor="middle" x="325" y="-13.32" font-family="Helvetica,sans-Serif" font-size="14.00">(...)</text>
</g>
<!-- 9520&#45;&gt;12472 -->
<g id="edge8" class="edge">
<title>9520&#45;&gt;12472</title>
<path fill="none" stroke="black" d="M303.71,-71.75C307.15,-63.22 310.65,-54.57 313.78,-46.8"/>
<polygon fill="black" stroke="black" points="317.01,-48.16 317.5,-37.58 310.52,-45.54 317.01,-48.16"/>
</g>
<!-- 12602 -->
<g id="node11" class="node">
<title>12602</title>
<path fill="#f0f8fd" stroke="black" d="M540,-166.25C540,-166.25 398,-166.25 398,-166.25 392,-166.25 386,-160.25 386,-154.25 386,-154.25 386,-84 386,-84 386,-78 392,-72 398,-72 398,-72 540,-72 540,-72 546,-72 552,-78 552,-84 552,-84 552,-154.25 552,-154.25 552,-160.25 546,-166.25 540,-166.25"/>
<text text-anchor="middle" x="469" y="-148.95" font-family="Helvetica,sans-Serif" font-size="14.00">17_U &lt;= 0.5</text>
<text text-anchor="middle" x="469" y="-131.7" font-family="Helvetica,sans-Serif" font-size="14.00">entropy = 0.999</text>
<text text-anchor="middle" x="469" y="-114.45" font-family="Helvetica,sans-Serif" font-size="14.00">samples = 5921</text>
<text text-anchor="middle" x="469" y="-97.2" font-family="Helvetica,sans-Serif" font-size="14.00">value = [4478, 4838]</text>
<text text-anchor="middle" x="469" y="-79.95" font-family="Helvetica,sans-Serif" font-size="14.00">class = Plant</text>
</g>
<!-- 12601&#45;&gt;12602 -->
<g id="edge10" class="edge">
<title>12601&#45;&gt;12602</title>
<path fill="none" stroke="black" d="M527.79,-202.07C521.6,-193.45 515.07,-184.35 508.71,-175.49"/>
<polygon fill="black" stroke="black" points="511.72,-173.67 503.05,-167.59 506.03,-177.75 511.72,-173.67"/>
</g>
<!-- 15387 -->
<g id="node14" class="node">
<title>15387</title>
<path fill="#85c2ef" stroke="black" d="M724,-166.25C724,-166.25 582,-166.25 582,-166.25 576,-166.25 570,-160.25 570,-154.25 570,-154.25 570,-84 570,-84 570,-78 576,-72 582,-72 582,-72 724,-72 724,-72 730,-72 736,-78 736,-84 736,-84 736,-154.25 736,-154.25 736,-160.25 730,-166.25 724,-166.25"/>
<text text-anchor="middle" x="653" y="-148.95" font-family="Helvetica,sans-Serif" font-size="14.00">7_G &lt;= 0.5</text>
<text text-anchor="middle" x="653" y="-131.7" font-family="Helvetica,sans-Serif" font-size="14.00">entropy = 0.851</text>
<text text-anchor="middle" x="653" y="-114.45" font-family="Helvetica,sans-Serif" font-size="14.00">samples = 3301</text>
<text text-anchor="middle" x="653" y="-97.2" font-family="Helvetica,sans-Serif" font-size="14.00">value = [1428, 3736]</text>
<text text-anchor="middle" x="653" y="-79.95" font-family="Helvetica,sans-Serif" font-size="14.00">class = Plant</text>
</g>
<!-- 12601&#45;&gt;15387 -->
<g id="edge13" class="edge">
<title>12601&#45;&gt;15387</title>
<path fill="none" stroke="black" d="M594.21,-202.07C600.4,-193.45 606.93,-184.35 613.29,-175.49"/>
<polygon fill="black" stroke="black" points="615.97,-177.75 618.95,-167.59 610.28,-173.67 615.97,-177.75"/>
</g>
<!-- 12603 -->
<g id="node12" class="node">
<title>12603</title>
<path fill="#c0c0c0" stroke="black" d="M432,-36C432,-36 402,-36 402,-36 396,-36 390,-30 390,-24 390,-24 390,-12 390,-12 390,-6 396,0 402,0 402,0 432,0 432,0 438,0 444,-6 444,-12 444,-12 444,-24 444,-24 444,-30 438,-36 432,-36"/>
<text text-anchor="middle" x="417" y="-13.32" font-family="Helvetica,sans-Serif" font-size="14.00">(...)</text>
</g>
<!-- 12602&#45;&gt;12603 -->
<g id="edge11" class="edge">
<title>12602&#45;&gt;12603</title>
<path fill="none" stroke="black" d="M444.67,-71.75C440.1,-63.03 435.45,-54.16 431.3,-46.26"/>
<polygon fill="black" stroke="black" points="434.46,-44.74 426.71,-37.51 428.26,-47.99 434.46,-44.74"/>
</g>
<!-- 14540 -->
<g id="node13" class="node">
<title>14540</title>
<path fill="#c0c0c0" stroke="black" d="M504,-36C504,-36 474,-36 474,-36 468,-36 462,-30 462,-24 462,-24 462,-12 462,-12 462,-6 468,0 474,0 474,0 504,0 504,0 510,0 516,-6 516,-12 516,-12 516,-24 516,-24 516,-30 510,-36 504,-36"/>
<text text-anchor="middle" x="489" y="-13.32" font-family="Helvetica,sans-Serif" font-size="14.00">(...)</text>
</g>
<!-- 12602&#45;&gt;14540 -->
<g id="edge12" class="edge">
<title>12602&#45;&gt;14540</title>
<path fill="none" stroke="black" d="M478.36,-71.75C480.04,-63.42 481.74,-54.97 483.28,-47.34"/>
<polygon fill="black" stroke="black" points="486.69,-48.15 485.24,-37.66 479.83,-46.77 486.69,-48.15"/>
</g>
<!-- 15388 -->
<g id="node15" class="node">
<title>15388</title>
<path fill="#c0c0c0" stroke="black" d="M614,-36C614,-36 584,-36 584,-36 578,-36 572,-30 572,-24 572,-24 572,-12 572,-12 572,-6 578,0 584,0 584,0 614,0 614,0 620,0 626,-6 626,-12 626,-12 626,-24 626,-24 626,-30 620,-36 614,-36"/>
<text text-anchor="middle" x="599" y="-13.32" font-family="Helvetica,sans-Serif" font-size="14.00">(...)</text>
</g>
<!-- 15387&#45;&gt;15388 -->
<g id="edge14" class="edge">
<title>15387&#45;&gt;15388</title>
<path fill="none" stroke="black" d="M627.74,-71.75C622.98,-63.03 618.16,-54.16 613.85,-46.26"/>
<polygon fill="black" stroke="black" points="616.94,-44.61 609.08,-37.5 610.79,-47.96 616.94,-44.61"/>
</g>
<!-- 16119 -->
<g id="node16" class="node">
<title>16119</title>
<path fill="#c0c0c0" stroke="black" d="M686,-36C686,-36 656,-36 656,-36 650,-36 644,-30 644,-24 644,-24 644,-12 644,-12 644,-6 650,0 656,0 656,0 686,0 686,0 692,0 698,-6 698,-12 698,-12 698,-24 698,-24 698,-30 692,-36 686,-36"/>
<text text-anchor="middle" x="671" y="-13.32" font-family="Helvetica,sans-Serif" font-size="14.00">(...)</text>
</g>
<!-- 15387&#45;&gt;16119 -->
<g id="edge15" class="edge">
<title>15387&#45;&gt;16119</title>
<path fill="none" stroke="black" d="M661.42,-71.75C662.93,-63.42 664.47,-54.97 665.85,-47.34"/>
<polygon fill="black" stroke="black" points="669.27,-48.13 667.61,-37.66 662.38,-46.88 669.27,-48.13"/>
</g>
<!-- 16439 -->
<g id="node18" class="node">
<title>16439</title>
<path fill="#eca16b" stroke="black" d="M971.5,-296.5C971.5,-296.5 838.5,-296.5 838.5,-296.5 832.5,-296.5 826.5,-290.5 826.5,-284.5 826.5,-284.5 826.5,-214.25 826.5,-214.25 826.5,-208.25 832.5,-202.25 838.5,-202.25 838.5,-202.25 971.5,-202.25 971.5,-202.25 977.5,-202.25 983.5,-208.25 983.5,-214.25 983.5,-214.25 983.5,-284.5 983.5,-284.5 983.5,-290.5 977.5,-296.5 971.5,-296.5"/>
<text text-anchor="middle" x="905" y="-279.2" font-family="Helvetica,sans-Serif" font-size="14.00">24_A &lt;= 0.5</text>
<text text-anchor="middle" x="905" y="-261.95" font-family="Helvetica,sans-Serif" font-size="14.00">entropy = 0.723</text>
<text text-anchor="middle" x="905" y="-244.7" font-family="Helvetica,sans-Serif" font-size="14.00">samples = 1077</text>
<text text-anchor="middle" x="905" y="-227.45" font-family="Helvetica,sans-Serif" font-size="14.00">value = [1368, 343]</text>
<text text-anchor="middle" x="905" y="-210.2" font-family="Helvetica,sans-Serif" font-size="14.00">class = Animal</text>
</g>
<!-- 16438&#45;&gt;16439 -->
<g id="edge17" class="edge">
<title>16438&#45;&gt;16439</title>
<path fill="none" stroke="black" d="M905,-332.32C905,-324.42 905,-316.13 905,-307.98"/>
<polygon fill="black" stroke="black" points="908.5,-308.12 905,-298.12 901.5,-308.12 908.5,-308.12"/>
</g>
<!-- 16888 -->
<g id="node25" class="node">
<title>16888</title>
<path fill="#f1bd98" stroke="black" d="M1210,-296.5C1210,-296.5 1086,-296.5 1086,-296.5 1080,-296.5 1074,-290.5 1074,-284.5 1074,-284.5 1074,-214.25 1074,-214.25 1074,-208.25 1080,-202.25 1086,-202.25 1086,-202.25 1210,-202.25 1210,-202.25 1216,-202.25 1222,-208.25 1222,-214.25 1222,-214.25 1222,-284.5 1222,-284.5 1222,-290.5 1216,-296.5 1210,-296.5"/>
<text text-anchor="middle" x="1148" y="-279.2" font-family="Helvetica,sans-Serif" font-size="14.00">14_A &lt;= 0.5</text>
<text text-anchor="middle" x="1148" y="-261.95" font-family="Helvetica,sans-Serif" font-size="14.00">entropy = 0.908</text>
<text text-anchor="middle" x="1148" y="-244.7" font-family="Helvetica,sans-Serif" font-size="14.00">samples = 308</text>
<text text-anchor="middle" x="1148" y="-227.45" font-family="Helvetica,sans-Serif" font-size="14.00">value = [333, 159]</text>
<text text-anchor="middle" x="1148" y="-210.2" font-family="Helvetica,sans-Serif" font-size="14.00">class = Animal</text>
</g>
<!-- 16438&#45;&gt;16888 -->
<g id="edge24" class="edge">
<title>16438&#45;&gt;16888</title>
<path fill="none" stroke="black" d="M983.9,-336.99C1009.34,-323.56 1037.64,-308.62 1063.48,-294.98"/>
<polygon fill="black" stroke="black" points="1065.08,-298.1 1072.29,-290.33 1061.81,-291.91 1065.08,-298.1"/>
</g>
<!-- 16440 -->
<g id="node19" class="node">
<title>16440</title>
<path fill="#eb9d65" stroke="black" d="M899.5,-166.25C899.5,-166.25 766.5,-166.25 766.5,-166.25 760.5,-166.25 754.5,-160.25 754.5,-154.25 754.5,-154.25 754.5,-84 754.5,-84 754.5,-78 760.5,-72 766.5,-72 766.5,-72 899.5,-72 899.5,-72 905.5,-72 911.5,-78 911.5,-84 911.5,-84 911.5,-154.25 911.5,-154.25 911.5,-160.25 905.5,-166.25 899.5,-166.25"/>
<text text-anchor="middle" x="833" y="-148.95" font-family="Helvetica,sans-Serif" font-size="14.00">24_C &lt;= 0.5</text>
<text text-anchor="middle" x="833" y="-131.7" font-family="Helvetica,sans-Serif" font-size="14.00">entropy = 0.681</text>
<text text-anchor="middle" x="833" y="-114.45" font-family="Helvetica,sans-Serif" font-size="14.00">samples = 987</text>
<text text-anchor="middle" x="833" y="-97.2" font-family="Helvetica,sans-Serif" font-size="14.00">value = [1282, 282]</text>
<text text-anchor="middle" x="833" y="-79.95" font-family="Helvetica,sans-Serif" font-size="14.00">class = Animal</text>
</g>
<!-- 16439&#45;&gt;16440 -->
<g id="edge18" class="edge">
<title>16439&#45;&gt;16440</title>
<path fill="none" stroke="black" d="M879.01,-202.07C874.32,-193.72 869.38,-184.93 864.55,-176.33"/>
<polygon fill="black" stroke="black" points="867.64,-174.68 859.7,-167.68 861.54,-178.11 867.64,-174.68"/>
</g>
<!-- 16821 -->
<g id="node22" class="node">
<title>16821</title>
<path fill="#f7dac5" stroke="black" d="M1048.38,-166.25C1048.38,-166.25 941.62,-166.25 941.62,-166.25 935.62,-166.25 929.62,-160.25 929.62,-154.25 929.62,-154.25 929.62,-84 929.62,-84 929.62,-78 935.62,-72 941.62,-72 941.62,-72 1048.38,-72 1048.38,-72 1054.38,-72 1060.38,-78 1060.38,-84 1060.38,-84 1060.38,-154.25 1060.38,-154.25 1060.38,-160.25 1054.38,-166.25 1048.38,-166.25"/>
<text text-anchor="middle" x="995" y="-148.95" font-family="Helvetica,sans-Serif" font-size="14.00">8_C &lt;= 0.5</text>
<text text-anchor="middle" x="995" y="-131.7" font-family="Helvetica,sans-Serif" font-size="14.00">entropy = 0.979</text>
<text text-anchor="middle" x="995" y="-114.45" font-family="Helvetica,sans-Serif" font-size="14.00">samples = 90</text>
<text text-anchor="middle" x="995" y="-97.2" font-family="Helvetica,sans-Serif" font-size="14.00">value = [86, 61]</text>
<text text-anchor="middle" x="995" y="-79.95" font-family="Helvetica,sans-Serif" font-size="14.00">class = Animal</text>
</g>
<!-- 16439&#45;&gt;16821 -->
<g id="edge21" class="edge">
<title>16439&#45;&gt;16821</title>
<path fill="none" stroke="black" d="M937.49,-202.07C943.48,-193.54 949.79,-184.54 955.95,-175.77"/>
<polygon fill="black" stroke="black" points="958.81,-177.79 961.69,-167.6 953.08,-173.77 958.81,-177.79"/>
</g>
<!-- 16441 -->
<g id="node20" class="node">
<title>16441</title>
<path fill="#c0c0c0" stroke="black" d="M785,-36C785,-36 755,-36 755,-36 749,-36 743,-30 743,-24 743,-24 743,-12 743,-12 743,-6 749,0 755,0 755,0 785,0 785,0 791,0 797,-6 797,-12 797,-12 797,-24 797,-24 797,-30 791,-36 785,-36"/>
<text text-anchor="middle" x="770" y="-13.32" font-family="Helvetica,sans-Serif" font-size="14.00">(...)</text>
</g>
<!-- 16440&#45;&gt;16441 -->
<g id="edge19" class="edge">
<title>16440&#45;&gt;16441</title>
<path fill="none" stroke="black" d="M803.53,-71.75C797.85,-62.83 792.09,-53.76 786.98,-45.72"/>
<polygon fill="black" stroke="black" points="790.04,-44.01 781.73,-37.45 784.14,-47.77 790.04,-44.01"/>
</g>
<!-- 16760 -->
<g id="node21" class="node">
<title>16760</title>
<path fill="#c0c0c0" stroke="black" d="M857,-36C857,-36 827,-36 827,-36 821,-36 815,-30 815,-24 815,-24 815,-12 815,-12 815,-6 821,0 827,0 827,0 857,0 857,0 863,0 869,-6 869,-12 869,-12 869,-24 869,-24 869,-30 863,-36 857,-36"/>
<text text-anchor="middle" x="842" y="-13.32" font-family="Helvetica,sans-Serif" font-size="14.00">(...)</text>
</g>
<!-- 16440&#45;&gt;16760 -->
<g id="edge20" class="edge">
<title>16440&#45;&gt;16760</title>
<path fill="none" stroke="black" d="M837.21,-71.75C837.96,-63.52 838.72,-55.17 839.4,-47.61"/>
<polygon fill="black" stroke="black" points="842.89,-47.96 840.3,-37.68 835.91,-47.32 842.89,-47.96"/>
</g>
<!-- 16822 -->
<g id="node23" class="node">
<title>16822</title>
<path fill="#c0c0c0" stroke="black" d="M942,-36C942,-36 912,-36 912,-36 906,-36 900,-30 900,-24 900,-24 900,-12 900,-12 900,-6 906,0 912,0 912,0 942,0 942,0 948,0 954,-6 954,-12 954,-12 954,-24 954,-24 954,-30 948,-36 942,-36"/>
<text text-anchor="middle" x="927" y="-13.32" font-family="Helvetica,sans-Serif" font-size="14.00">(...)</text>
</g>
<!-- 16821&#45;&gt;16822 -->
<g id="edge22" class="edge">
<title>16821&#45;&gt;16822</title>
<path fill="none" stroke="black" d="M963.19,-71.75C957,-62.73 950.71,-53.56 945.15,-45.45"/>
<polygon fill="black" stroke="black" points="948.18,-43.69 939.64,-37.42 942.41,-47.65 948.18,-43.69"/>
</g>
<!-- 16869 -->
<g id="node24" class="node">
<title>16869</title>
<path fill="#c0c0c0" stroke="black" d="M1014,-36C1014,-36 984,-36 984,-36 978,-36 972,-30 972,-24 972,-24 972,-12 972,-12 972,-6 978,0 984,0 984,0 1014,0 1014,0 1020,0 1026,-6 1026,-12 1026,-12 1026,-24 1026,-24 1026,-30 1020,-36 1014,-36"/>
<text text-anchor="middle" x="999" y="-13.32" font-family="Helvetica,sans-Serif" font-size="14.00">(...)</text>
</g>
<!-- 16821&#45;&gt;16869 -->
<g id="edge23" class="edge">
<title>16821&#45;&gt;16869</title>
<path fill="none" stroke="black" d="M996.87,-71.75C997.2,-63.52 997.54,-55.17 997.85,-47.61"/>
<polygon fill="black" stroke="black" points="1001.34,-47.82 998.25,-37.68 994.35,-47.54 1001.34,-47.82"/>
</g>
<!-- 16889 -->
<g id="node26" class="node">
<title>16889</title>
<path fill="#efb082" stroke="black" d="M1205.5,-166.25C1205.5,-166.25 1090.5,-166.25 1090.5,-166.25 1084.5,-166.25 1078.5,-160.25 1078.5,-154.25 1078.5,-154.25 1078.5,-84 1078.5,-84 1078.5,-78 1084.5,-72 1090.5,-72 1090.5,-72 1205.5,-72 1205.5,-72 1211.5,-72 1217.5,-78 1217.5,-84 1217.5,-84 1217.5,-154.25 1217.5,-154.25 1217.5,-160.25 1211.5,-166.25 1205.5,-166.25"/>
<text text-anchor="middle" x="1148" y="-148.95" font-family="Helvetica,sans-Serif" font-size="14.00">24_G &lt;= 0.5</text>
<text text-anchor="middle" x="1148" y="-131.7" font-family="Helvetica,sans-Serif" font-size="14.00">entropy = 0.842</text>
<text text-anchor="middle" x="1148" y="-114.45" font-family="Helvetica,sans-Serif" font-size="14.00">samples = 216</text>
<text text-anchor="middle" x="1148" y="-97.2" font-family="Helvetica,sans-Serif" font-size="14.00">value = [254, 94]</text>
<text text-anchor="middle" x="1148" y="-79.95" font-family="Helvetica,sans-Serif" font-size="14.00">class = Animal</text>
</g>
<!-- 16888&#45;&gt;16889 -->
<g id="edge25" class="edge">
<title>16888&#45;&gt;16889</title>
<path fill="none" stroke="black" d="M1148,-202.07C1148,-194.17 1148,-185.88 1148,-177.73"/>
<polygon fill="black" stroke="black" points="1151.5,-177.87 1148,-167.87 1144.5,-177.87 1151.5,-177.87"/>
</g>
<!-- 17008 -->
<g id="node29" class="node">
<title>17008</title>
<path fill="#fae9dc" stroke="black" d="M1354.38,-166.25C1354.38,-166.25 1247.62,-166.25 1247.62,-166.25 1241.62,-166.25 1235.62,-160.25 1235.62,-154.25 1235.62,-154.25 1235.62,-84 1235.62,-84 1235.62,-78 1241.62,-72 1247.62,-72 1247.62,-72 1354.38,-72 1354.38,-72 1360.38,-72 1366.38,-78 1366.38,-84 1366.38,-84 1366.38,-154.25 1366.38,-154.25 1366.38,-160.25 1360.38,-166.25 1354.38,-166.25"/>
<text text-anchor="middle" x="1301" y="-148.95" font-family="Helvetica,sans-Serif" font-size="14.00">24_G &lt;= 0.5</text>
<text text-anchor="middle" x="1301" y="-131.7" font-family="Helvetica,sans-Serif" font-size="14.00">entropy = 0.993</text>
<text text-anchor="middle" x="1301" y="-114.45" font-family="Helvetica,sans-Serif" font-size="14.00">samples = 92</text>
<text text-anchor="middle" x="1301" y="-97.2" font-family="Helvetica,sans-Serif" font-size="14.00">value = [79, 65]</text>
<text text-anchor="middle" x="1301" y="-79.95" font-family="Helvetica,sans-Serif" font-size="14.00">class = Animal</text>
</g>
<!-- 16888&#45;&gt;17008 -->
<g id="edge28" class="edge">
<title>16888&#45;&gt;17008</title>
<path fill="none" stroke="black" d="M1203.24,-202.07C1214.22,-192.87 1225.83,-183.13 1237.08,-173.71"/>
<polygon fill="black" stroke="black" points="1239.01,-176.65 1244.43,-167.55 1234.52,-171.29 1239.01,-176.65"/>
</g>
<!-- 16890 -->
<g id="node27" class="node">
<title>16890</title>
<path fill="#c0c0c0" stroke="black" d="M1113,-36C1113,-36 1083,-36 1083,-36 1077,-36 1071,-30 1071,-24 1071,-24 1071,-12 1071,-12 1071,-6 1077,0 1083,0 1083,0 1113,0 1113,0 1119,0 1125,-6 1125,-12 1125,-12 1125,-24 1125,-24 1125,-30 1119,-36 1113,-36"/>
<text text-anchor="middle" x="1098" y="-13.32" font-family="Helvetica,sans-Serif" font-size="14.00">(...)</text>
</g>
<!-- 16889&#45;&gt;16890 -->
<g id="edge26" class="edge">
<title>16889&#45;&gt;16890</title>
<path fill="none" stroke="black" d="M1124.61,-71.75C1120.21,-63.03 1115.74,-54.16 1111.75,-46.26"/>
<polygon fill="black" stroke="black" points="1114.97,-44.88 1107.34,-37.52 1108.72,-48.03 1114.97,-44.88"/>
</g>
<!-- 16995 -->
<g id="node28" class="node">
<title>16995</title>
<path fill="#c0c0c0" stroke="black" d="M1185,-36C1185,-36 1155,-36 1155,-36 1149,-36 1143,-30 1143,-24 1143,-24 1143,-12 1143,-12 1143,-6 1149,0 1155,0 1155,0 1185,0 1185,0 1191,0 1197,-6 1197,-12 1197,-12 1197,-24 1197,-24 1197,-30 1191,-36 1185,-36"/>
<text text-anchor="middle" x="1170" y="-13.32" font-family="Helvetica,sans-Serif" font-size="14.00">(...)</text>
</g>
<!-- 16889&#45;&gt;16995 -->
<g id="edge27" class="edge">
<title>16889&#45;&gt;16995</title>
<path fill="none" stroke="black" d="M1158.29,-71.75C1160.14,-63.42 1162.02,-54.97 1163.71,-47.34"/>
<polygon fill="black" stroke="black" points="1167.11,-48.17 1165.86,-37.65 1160.28,-46.65 1167.11,-48.17"/>
</g>
<!-- 17009 -->
<g id="node30" class="node">
<title>17009</title>
<path fill="#c0c0c0" stroke="black" d="M1280,-36C1280,-36 1250,-36 1250,-36 1244,-36 1238,-30 1238,-24 1238,-24 1238,-12 1238,-12 1238,-6 1244,0 1250,0 1250,0 1280,0 1280,0 1286,0 1292,-6 1292,-12 1292,-12 1292,-24 1292,-24 1292,-30 1286,-36 1280,-36"/>
<text text-anchor="middle" x="1265" y="-13.32" font-family="Helvetica,sans-Serif" font-size="14.00">(...)</text>
</g>
<!-- 17008&#45;&gt;17009 -->
<g id="edge29" class="edge">
<title>17008&#45;&gt;17009</title>
<path fill="none" stroke="black" d="M1284.16,-71.75C1281.06,-63.22 1277.92,-54.57 1275.1,-46.8"/>
<polygon fill="black" stroke="black" points="1278.46,-45.8 1271.75,-37.6 1271.88,-48.19 1278.46,-45.8"/>
</g>
<!-- 17056 -->
<g id="node31" class="node">
<title>17056</title>
<path fill="#c0c0c0" stroke="black" d="M1352,-36C1352,-36 1322,-36 1322,-36 1316,-36 1310,-30 1310,-24 1310,-24 1310,-12 1310,-12 1310,-6 1316,0 1322,0 1322,0 1352,0 1352,0 1358,0 1364,-6 1364,-12 1364,-12 1364,-24 1364,-24 1364,-30 1358,-36 1352,-36"/>
<text text-anchor="middle" x="1337" y="-13.32" font-family="Helvetica,sans-Serif" font-size="14.00">(...)</text>
</g>
<!-- 17008&#45;&gt;17056 -->
<g id="edge30" class="edge">
<title>17008&#45;&gt;17056</title>
<path fill="none" stroke="black" d="M1317.84,-71.75C1320.94,-63.22 1324.08,-54.57 1326.9,-46.8"/>
<polygon fill="black" stroke="black" points="1330.12,-48.19 1330.25,-37.6 1323.54,-45.8 1330.12,-48.19"/>
</g>
</g>
</svg>
