<?xml version="1.0" encoding="UTF-8" standalone="no"?>
<!DOCTYPE svg PUBLIC "-//W3C//DTD SVG 1.1//EN"
 "http://www.w3.org/Graphics/SVG/1.1/DTD/svg11.dtd">
<!-- Generated by graphviz version 12.0.0 (20240803.0821)
 -->
<!-- Title: Tree Pages: 1 -->
<svg width="1392pt" height="565pt"
 viewBox="0.00 0.00 1392.00 565.00" xmlns="http://www.w3.org/2000/svg" xmlns:xlink="http://www.w3.org/1999/xlink">
<g id="graph0" class="graph" transform="scale(1 1) rotate(0) translate(4 561)">
<title>Tree</title>
<polygon fill="white" stroke="none" points="-4,4 -4,-561 1388,-561 1388,4 -4,4"/>
<!-- 0 -->
<g id="node1" class="node">
<title>0</title>
<path fill="#ffffff" stroke="black" d="M818.5,-557C818.5,-557 658.5,-557 658.5,-557 652.5,-557 646.5,-551 646.5,-545 646.5,-545 646.5,-474.75 646.5,-474.75 646.5,-468.75 652.5,-462.75 658.5,-462.75 658.5,-462.75 818.5,-462.75 818.5,-462.75 824.5,-462.75 830.5,-468.75 830.5,-474.75 830.5,-474.75 830.5,-545 830.5,-545 830.5,-551 824.5,-557 818.5,-557"/>
<text text-anchor="middle" x="738.5" y="-539.7" font-family="Helvetica,sans-Serif" font-size="14.00">23_G &lt;= 0.5</text>
<text text-anchor="middle" x="738.5" y="-522.45" font-family="Helvetica,sans-Serif" font-size="14.00">entropy = 1.0</text>
<text text-anchor="middle" x="738.5" y="-505.2" font-family="Helvetica,sans-Serif" font-size="14.00">samples = 38186</text>
<text text-anchor="middle" x="738.5" y="-487.95" font-family="Helvetica,sans-Serif" font-size="14.00">value = [30209, 30136]</text>
<text text-anchor="middle" x="738.5" y="-470.7" font-family="Helvetica,sans-Serif" font-size="14.00">class = Animal</text>
</g>
<!-- 1 -->
<g id="node2" class="node">
<title>1</title>
<path fill="#f5fafe" stroke="black" d="M641.5,-426.75C641.5,-426.75 481.5,-426.75 481.5,-426.75 475.5,-426.75 469.5,-420.75 469.5,-414.75 469.5,-414.75 469.5,-344.5 469.5,-344.5 469.5,-338.5 475.5,-332.5 481.5,-332.5 481.5,-332.5 641.5,-332.5 641.5,-332.5 647.5,-332.5 653.5,-338.5 653.5,-344.5 653.5,-344.5 653.5,-414.75 653.5,-414.75 653.5,-420.75 647.5,-426.75 641.5,-426.75"/>
<text text-anchor="middle" x="561.5" y="-409.45" font-family="Helvetica,sans-Serif" font-size="14.00">1_U &lt;= 0.5</text>
<text text-anchor="middle" x="561.5" y="-392.2" font-family="Helvetica,sans-Serif" font-size="14.00">entropy = 1.0</text>
<text text-anchor="middle" x="561.5" y="-374.95" font-family="Helvetica,sans-Serif" font-size="14.00">samples = 36214</text>
<text text-anchor="middle" x="561.5" y="-357.7" font-family="Helvetica,sans-Serif" font-size="14.00">value = [27902, 29387]</text>
<text text-anchor="middle" x="561.5" y="-340.45" font-family="Helvetica,sans-Serif" font-size="14.00">class = Plant</text>
</g>
<!-- 0&#45;&gt;1 -->
<g id="edge1" class="edge">
<title>0&#45;&gt;1</title>
<path fill="none" stroke="black" d="M674.35,-462.39C661.49,-453.07 647.88,-443.22 634.74,-433.69"/>
<polygon fill="black" stroke="black" points="637.11,-431.09 626.96,-428.05 633,-436.75 637.11,-431.09"/>
<text text-anchor="middle" x="629.67" y="-447.18" font-family="Helvetica,sans-Serif" font-size="14.00">True</text>
</g>
<!-- 15886 -->
<g id="node17" class="node">
<title>15886</title>
<path fill="#edaa79" stroke="black" d="M981,-426.75C981,-426.75 848,-426.75 848,-426.75 842,-426.75 836,-420.75 836,-414.75 836,-414.75 836,-344.5 836,-344.5 836,-338.5 842,-332.5 848,-332.5 848,-332.5 981,-332.5 981,-332.5 987,-332.5 993,-338.5 993,-344.5 993,-344.5 993,-414.75 993,-414.75 993,-420.75 987,-426.75 981,-426.75"/>
<text text-anchor="middle" x="914.5" y="-409.45" font-family="Helvetica,sans-Serif" font-size="14.00">24_A &lt;= 0.5</text>
<text text-anchor="middle" x="914.5" y="-392.2" font-family="Helvetica,sans-Serif" font-size="14.00">entropy = 0.803</text>
<text text-anchor="middle" x="914.5" y="-374.95" font-family="Helvetica,sans-Serif" font-size="14.00">samples = 1972</text>
<text text-anchor="middle" x="914.5" y="-357.7" font-family="Helvetica,sans-Serif" font-size="14.00">value = [2307, 749]</text>
<text text-anchor="middle" x="914.5" y="-340.45" font-family="Helvetica,sans-Serif" font-size="14.00">class = Animal</text>
</g>
<!-- 0&#45;&gt;15886 -->
<g id="edge16" class="edge">
<title>0&#45;&gt;15886</title>
<path fill="none" stroke="black" d="M802.04,-462.57C814.92,-453.19 828.56,-443.25 841.73,-433.65"/>
<polygon fill="black" stroke="black" points="843.51,-436.68 849.53,-427.96 839.39,-431.03 843.51,-436.68"/>
<text text-anchor="middle" x="846.88" y="-447.1" font-family="Helvetica,sans-Serif" font-size="14.00">False</text>
</g>
<!-- 2 -->
<g id="node3" class="node">
<title>2</title>
<path fill="#f8ddca" stroke="black" d="M356.5,-296.5C356.5,-296.5 196.5,-296.5 196.5,-296.5 190.5,-296.5 184.5,-290.5 184.5,-284.5 184.5,-284.5 184.5,-214.25 184.5,-214.25 184.5,-208.25 190.5,-202.25 196.5,-202.25 196.5,-202.25 356.5,-202.25 356.5,-202.25 362.5,-202.25 368.5,-208.25 368.5,-214.25 368.5,-214.25 368.5,-284.5 368.5,-284.5 368.5,-290.5 362.5,-296.5 356.5,-296.5"/>
<text text-anchor="middle" x="276.5" y="-279.2" font-family="Helvetica,sans-Serif" font-size="14.00">6_U &lt;= 0.5</text>
<text text-anchor="middle" x="276.5" y="-261.95" font-family="Helvetica,sans-Serif" font-size="14.00">entropy = 0.982</text>
<text text-anchor="middle" x="276.5" y="-244.7" font-family="Helvetica,sans-Serif" font-size="14.00">samples = 16824</text>
<text text-anchor="middle" x="276.5" y="-227.45" font-family="Helvetica,sans-Serif" font-size="14.00">value = [15396, 11249]</text>
<text text-anchor="middle" x="276.5" y="-210.2" font-family="Helvetica,sans-Serif" font-size="14.00">class = Animal</text>
</g>
<!-- 1&#45;&gt;2 -->
<g id="edge2" class="edge">
<title>1&#45;&gt;2</title>
<path fill="none" stroke="black" d="M469.36,-337.16C440.56,-324.2 408.6,-309.82 379.12,-296.56"/>
<polygon fill="black" stroke="black" points="380.74,-293.45 370.19,-292.53 377.87,-299.83 380.74,-293.45"/>
</g>
<!-- 9049 -->
<g id="node10" class="node">
<title>9049</title>
<path fill="#c2e1f7" stroke="black" d="M641.5,-296.5C641.5,-296.5 481.5,-296.5 481.5,-296.5 475.5,-296.5 469.5,-290.5 469.5,-284.5 469.5,-284.5 469.5,-214.25 469.5,-214.25 469.5,-208.25 475.5,-202.25 481.5,-202.25 481.5,-202.25 641.5,-202.25 641.5,-202.25 647.5,-202.25 653.5,-208.25 653.5,-214.25 653.5,-214.25 653.5,-284.5 653.5,-284.5 653.5,-290.5 647.5,-296.5 641.5,-296.5"/>
<text text-anchor="middle" x="561.5" y="-279.2" font-family="Helvetica,sans-Serif" font-size="14.00">23_U &lt;= 0.5</text>
<text text-anchor="middle" x="561.5" y="-261.95" font-family="Helvetica,sans-Serif" font-size="14.00">entropy = 0.975</text>
<text text-anchor="middle" x="561.5" y="-244.7" font-family="Helvetica,sans-Serif" font-size="14.00">samples = 19390</text>
<text text-anchor="middle" x="561.5" y="-227.45" font-family="Helvetica,sans-Serif" font-size="14.00">value = [12506, 18138]</text>
<text text-anchor="middle" x="561.5" y="-210.2" font-family="Helvetica,sans-Serif" font-size="14.00">class = Plant</text>
</g>
<!-- 1&#45;&gt;9049 -->
<g id="edge9" class="edge">
<title>1&#45;&gt;9049</title>
<path fill="none" stroke="black" d="M561.5,-332.32C561.5,-324.42 561.5,-316.13 561.5,-307.98"/>
<polygon fill="black" stroke="black" points="565,-308.12 561.5,-298.12 558,-308.12 565,-308.12"/>
</g>
<!-- 3 -->
<g id="node4" class="node">
<title>3</title>
<path fill="#fae6d8" stroke="black" d="M163,-166.25C163,-166.25 12,-166.25 12,-166.25 6,-166.25 0,-160.25 0,-154.25 0,-154.25 0,-84 0,-84 0,-78 6,-72 12,-72 12,-72 163,-72 163,-72 169,-72 175,-78 175,-84 175,-84 175,-154.25 175,-154.25 175,-160.25 169,-166.25 163,-166.25"/>
<text text-anchor="middle" x="87.5" y="-148.95" font-family="Helvetica,sans-Serif" font-size="14.00">9_G &lt;= 0.5</text>
<text text-anchor="middle" x="87.5" y="-131.7" font-family="Helvetica,sans-Serif" font-size="14.00">entropy = 0.991</text>
<text text-anchor="middle" x="87.5" y="-114.45" font-family="Helvetica,sans-Serif" font-size="14.00">samples = 12570</text>
<text text-anchor="middle" x="87.5" y="-97.2" font-family="Helvetica,sans-Serif" font-size="14.00">value = [11030, 8830]</text>
<text text-anchor="middle" x="87.5" y="-79.95" font-family="Helvetica,sans-Serif" font-size="14.00">class = Animal</text>
</g>
<!-- 2&#45;&gt;3 -->
<g id="edge3" class="edge">
<title>2&#45;&gt;3</title>
<path fill="none" stroke="black" d="M208,-201.89C194.13,-192.48 179.46,-182.53 165.3,-172.92"/>
<polygon fill="black" stroke="black" points="167.58,-170.23 157.34,-167.51 163.65,-176.03 167.58,-170.23"/>
</g>
<!-- 6600 -->
<g id="node7" class="node">
<title>6600</title>
<path fill="#f3c7a7" stroke="black" d="M347.5,-166.25C347.5,-166.25 205.5,-166.25 205.5,-166.25 199.5,-166.25 193.5,-160.25 193.5,-154.25 193.5,-154.25 193.5,-84 193.5,-84 193.5,-78 199.5,-72 205.5,-72 205.5,-72 347.5,-72 347.5,-72 353.5,-72 359.5,-78 359.5,-84 359.5,-84 359.5,-154.25 359.5,-154.25 359.5,-160.25 353.5,-166.25 347.5,-166.25"/>
<text text-anchor="middle" x="276.5" y="-148.95" font-family="Helvetica,sans-Serif" font-size="14.00">8_G &lt;= 0.5</text>
<text text-anchor="middle" x="276.5" y="-131.7" font-family="Helvetica,sans-Serif" font-size="14.00">entropy = 0.94</text>
<text text-anchor="middle" x="276.5" y="-114.45" font-family="Helvetica,sans-Serif" font-size="14.00">samples = 4254</text>
<text text-anchor="middle" x="276.5" y="-97.2" font-family="Helvetica,sans-Serif" font-size="14.00">value = [4366, 2419]</text>
<text text-anchor="middle" x="276.5" y="-79.95" font-family="Helvetica,sans-Serif" font-size="14.00">class = Animal</text>
</g>
<!-- 2&#45;&gt;6600 -->
<g id="edge6" class="edge">
<title>2&#45;&gt;6600</title>
<path fill="none" stroke="black" d="M276.5,-202.07C276.5,-194.17 276.5,-185.88 276.5,-177.73"/>
<polygon fill="black" stroke="black" points="280,-177.87 276.5,-167.87 273,-177.87 280,-177.87"/>
</g>
<!-- 4 -->
<g id="node5" class="node">
<title>4</title>
<path fill="#c0c0c0" stroke="black" d="M66.5,-36C66.5,-36 36.5,-36 36.5,-36 30.5,-36 24.5,-30 24.5,-24 24.5,-24 24.5,-12 24.5,-12 24.5,-6 30.5,0 36.5,0 36.5,0 66.5,0 66.5,0 72.5,0 78.5,-6 78.5,-12 78.5,-12 78.5,-24 78.5,-24 78.5,-30 72.5,-36 66.5,-36"/>
<text text-anchor="middle" x="51.5" y="-13.32" font-family="Helvetica,sans-Serif" font-size="14.00">(...)</text>
</g>
<!-- 3&#45;&gt;4 -->
<g id="edge4" class="edge">
<title>3&#45;&gt;4</title>
<path fill="none" stroke="black" d="M70.66,-71.75C67.56,-63.22 64.42,-54.57 61.6,-46.8"/>
<polygon fill="black" stroke="black" points="64.96,-45.8 58.25,-37.6 58.38,-48.19 64.96,-45.8"/>
</g>
<!-- 4923 -->
<g id="node6" class="node">
<title>4923</title>
<path fill="#c0c0c0" stroke="black" d="M138.5,-36C138.5,-36 108.5,-36 108.5,-36 102.5,-36 96.5,-30 96.5,-24 96.5,-24 96.5,-12 96.5,-12 96.5,-6 102.5,0 108.5,0 108.5,0 138.5,0 138.5,0 144.5,0 150.5,-6 150.5,-12 150.5,-12 150.5,-24 150.5,-24 150.5,-30 144.5,-36 138.5,-36"/>
<text text-anchor="middle" x="123.5" y="-13.32" font-family="Helvetica,sans-Serif" font-size="14.00">(...)</text>
</g>
<!-- 3&#45;&gt;4923 -->
<g id="edge5" class="edge">
<title>3&#45;&gt;4923</title>
<path fill="none" stroke="black" d="M104.34,-71.75C107.44,-63.22 110.58,-54.57 113.4,-46.8"/>
<polygon fill="black" stroke="black" points="116.62,-48.19 116.75,-37.6 110.04,-45.8 116.62,-48.19"/>
</g>
<!-- 6601 -->
<g id="node8" class="node">
<title>6601</title>
<path fill="#c0c0c0" stroke="black" d="M266.5,-36C266.5,-36 236.5,-36 236.5,-36 230.5,-36 224.5,-30 224.5,-24 224.5,-24 224.5,-12 224.5,-12 224.5,-6 230.5,0 236.5,0 236.5,0 266.5,0 266.5,0 272.5,0 278.5,-6 278.5,-12 278.5,-12 278.5,-24 278.5,-24 278.5,-30 272.5,-36 266.5,-36"/>
<text text-anchor="middle" x="251.5" y="-13.32" font-family="Helvetica,sans-Serif" font-size="14.00">(...)</text>
</g>
<!-- 6600&#45;&gt;6601 -->
<g id="edge7" class="edge">
<title>6600&#45;&gt;6601</title>
<path fill="none" stroke="black" d="M264.81,-71.75C262.68,-63.32 260.52,-54.77 258.58,-47.07"/>
<polygon fill="black" stroke="black" points="262.04,-46.48 256.2,-37.64 255.25,-48.19 262.04,-46.48"/>
</g>
<!-- 8408 -->
<g id="node9" class="node">
<title>8408</title>
<path fill="#c0c0c0" stroke="black" d="M338.5,-36C338.5,-36 308.5,-36 308.5,-36 302.5,-36 296.5,-30 296.5,-24 296.5,-24 296.5,-12 296.5,-12 296.5,-6 302.5,0 308.5,0 308.5,0 338.5,0 338.5,0 344.5,0 350.5,-6 350.5,-12 350.5,-12 350.5,-24 350.5,-24 350.5,-30 344.5,-36 338.5,-36"/>
<text text-anchor="middle" x="323.5" y="-13.32" font-family="Helvetica,sans-Serif" font-size="14.00">(...)</text>
</g>
<!-- 6600&#45;&gt;8408 -->
<g id="edge8" class="edge">
<title>6600&#45;&gt;8408</title>
<path fill="none" stroke="black" d="M298.49,-71.75C302.58,-63.12 306.73,-54.36 310.45,-46.53"/>
<polygon fill="black" stroke="black" points="313.59,-48.08 314.71,-37.54 307.26,-45.08 313.59,-48.08"/>
</g>
<!-- 9050 -->
<g id="node11" class="node">
<title>9050</title>
<path fill="#b5dbf5" stroke="black" d="M549.5,-166.25C549.5,-166.25 389.5,-166.25 389.5,-166.25 383.5,-166.25 377.5,-160.25 377.5,-154.25 377.5,-154.25 377.5,-84 377.5,-84 377.5,-78 383.5,-72 389.5,-72 389.5,-72 549.5,-72 549.5,-72 555.5,-72 561.5,-78 561.5,-84 561.5,-84 561.5,-154.25 561.5,-154.25 561.5,-160.25 555.5,-166.25 549.5,-166.25"/>
<text text-anchor="middle" x="469.5" y="-148.95" font-family="Helvetica,sans-Serif" font-size="14.00">6_A &lt;= 0.5</text>
<text text-anchor="middle" x="469.5" y="-131.7" font-family="Helvetica,sans-Serif" font-size="14.00">entropy = 0.962</text>
<text text-anchor="middle" x="469.5" y="-114.45" font-family="Helvetica,sans-Serif" font-size="14.00">samples = 18457</text>
<text text-anchor="middle" x="469.5" y="-97.2" font-family="Helvetica,sans-Serif" font-size="14.00">value = [11271, 17939]</text>
<text text-anchor="middle" x="469.5" y="-79.95" font-family="Helvetica,sans-Serif" font-size="14.00">class = Plant</text>
</g>
<!-- 9049&#45;&gt;9050 -->
<g id="edge10" class="edge">
<title>9049&#45;&gt;9050</title>
<path fill="none" stroke="black" d="M528.29,-202.07C522.1,-193.45 515.57,-184.35 509.21,-175.49"/>
<polygon fill="black" stroke="black" points="512.22,-173.67 503.55,-167.59 506.53,-177.75 512.22,-173.67"/>
</g>
<!-- 15559 -->
<g id="node14" class="node">
<title>15559</title>
<path fill="#e99559" stroke="black" d="M725,-166.25C725,-166.25 592,-166.25 592,-166.25 586,-166.25 580,-160.25 580,-154.25 580,-154.25 580,-84 580,-84 580,-78 586,-72 592,-72 592,-72 725,-72 725,-72 731,-72 737,-78 737,-84 737,-84 737,-154.25 737,-154.25 737,-160.25 731,-166.25 725,-166.25"/>
<text text-anchor="middle" x="658.5" y="-148.95" font-family="Helvetica,sans-Serif" font-size="14.00">11_C &lt;= 0.5</text>
<text text-anchor="middle" x="658.5" y="-131.7" font-family="Helvetica,sans-Serif" font-size="14.00">entropy = 0.581</text>
<text text-anchor="middle" x="658.5" y="-114.45" font-family="Helvetica,sans-Serif" font-size="14.00">samples = 933</text>
<text text-anchor="middle" x="658.5" y="-97.2" font-family="Helvetica,sans-Serif" font-size="14.00">value = [1235, 199]</text>
<text text-anchor="middle" x="658.5" y="-79.95" font-family="Helvetica,sans-Serif" font-size="14.00">class = Animal</text>
</g>
<!-- 9049&#45;&gt;15559 -->
<g id="edge13" class="edge">
<title>9049&#45;&gt;15559</title>
<path fill="none" stroke="black" d="M596.52,-202.07C603.04,-193.45 609.92,-184.35 616.63,-175.49"/>
<polygon fill="black" stroke="black" points="619.38,-177.65 622.62,-167.57 613.8,-173.43 619.38,-177.65"/>
</g>
<!-- 9051 -->
<g id="node12" class="node">
<title>9051</title>
<path fill="#c0c0c0" stroke="black" d="M434.5,-36C434.5,-36 404.5,-36 404.5,-36 398.5,-36 392.5,-30 392.5,-24 392.5,-24 392.5,-12 392.5,-12 392.5,-6 398.5,0 404.5,0 404.5,0 434.5,0 434.5,0 440.5,0 446.5,-6 446.5,-12 446.5,-12 446.5,-24 446.5,-24 446.5,-30 440.5,-36 434.5,-36"/>
<text text-anchor="middle" x="419.5" y="-13.32" font-family="Helvetica,sans-Serif" font-size="14.00">(...)</text>
</g>
<!-- 9050&#45;&gt;9051 -->
<g id="edge11" class="edge">
<title>9050&#45;&gt;9051</title>
<path fill="none" stroke="black" d="M446.11,-71.75C441.71,-63.03 437.24,-54.16 433.25,-46.26"/>
<polygon fill="black" stroke="black" points="436.47,-44.88 428.84,-37.52 430.22,-48.03 436.47,-44.88"/>
</g>
<!-- 14052 -->
<g id="node13" class="node">
<title>14052</title>
<path fill="#c0c0c0" stroke="black" d="M506.5,-36C506.5,-36 476.5,-36 476.5,-36 470.5,-36 464.5,-30 464.5,-24 464.5,-24 464.5,-12 464.5,-12 464.5,-6 470.5,0 476.5,0 476.5,0 506.5,0 506.5,0 512.5,0 518.5,-6 518.5,-12 518.5,-12 518.5,-24 518.5,-24 518.5,-30 512.5,-36 506.5,-36"/>
<text text-anchor="middle" x="491.5" y="-13.32" font-family="Helvetica,sans-Serif" font-size="14.00">(...)</text>
</g>
<!-- 9050&#45;&gt;14052 -->
<g id="edge12" class="edge">
<title>9050&#45;&gt;14052</title>
<path fill="none" stroke="black" d="M479.79,-71.75C481.64,-63.42 483.52,-54.97 485.21,-47.34"/>
<polygon fill="black" stroke="black" points="488.61,-48.17 487.36,-37.65 481.78,-46.65 488.61,-48.17"/>
</g>
<!-- 15560 -->
<g id="node15" class="node">
<title>15560</title>
<path fill="#c0c0c0" stroke="black" d="M616.5,-36C616.5,-36 586.5,-36 586.5,-36 580.5,-36 574.5,-30 574.5,-24 574.5,-24 574.5,-12 574.5,-12 574.5,-6 580.5,0 586.5,0 586.5,0 616.5,0 616.5,0 622.5,0 628.5,-6 628.5,-12 628.5,-12 628.5,-24 628.5,-24 628.5,-30 622.5,-36 616.5,-36"/>
<text text-anchor="middle" x="601.5" y="-13.32" font-family="Helvetica,sans-Serif" font-size="14.00">(...)</text>
</g>
<!-- 15559&#45;&gt;15560 -->
<g id="edge14" class="edge">
<title>15559&#45;&gt;15560</title>
<path fill="none" stroke="black" d="M631.84,-71.75C626.76,-62.93 621.6,-53.96 617.02,-45.99"/>
<polygon fill="black" stroke="black" points="620.15,-44.41 612.13,-37.48 614.08,-47.9 620.15,-44.41"/>
</g>
<!-- 15801 -->
<g id="node16" class="node">
<title>15801</title>
<path fill="#c0c0c0" stroke="black" d="M688.5,-36C688.5,-36 658.5,-36 658.5,-36 652.5,-36 646.5,-30 646.5,-24 646.5,-24 646.5,-12 646.5,-12 646.5,-6 652.5,0 658.5,0 658.5,0 688.5,0 688.5,0 694.5,0 700.5,-6 700.5,-12 700.5,-12 700.5,-24 700.5,-24 700.5,-30 694.5,-36 688.5,-36"/>
<text text-anchor="middle" x="673.5" y="-13.32" font-family="Helvetica,sans-Serif" font-size="14.00">(...)</text>
</g>
<!-- 15559&#45;&gt;15801 -->
<g id="edge15" class="edge">
<title>15559&#45;&gt;15801</title>
<path fill="none" stroke="black" d="M665.52,-71.75C666.78,-63.42 668.06,-54.97 669.21,-47.34"/>
<polygon fill="black" stroke="black" points="672.64,-48.08 670.67,-37.67 665.72,-47.03 672.64,-48.08"/>
</g>
<!-- 15887 -->
<g id="node18" class="node">
<title>15887</title>
<path fill="#eda877" stroke="black" d="M981,-296.5C981,-296.5 848,-296.5 848,-296.5 842,-296.5 836,-290.5 836,-284.5 836,-284.5 836,-214.25 836,-214.25 836,-208.25 842,-202.25 848,-202.25 848,-202.25 981,-202.25 981,-202.25 987,-202.25 993,-208.25 993,-214.25 993,-214.25 993,-284.5 993,-284.5 993,-290.5 987,-296.5 981,-296.5"/>
<text text-anchor="middle" x="914.5" y="-279.2" font-family="Helvetica,sans-Serif" font-size="14.00">18_C &lt;= 0.5</text>
<text text-anchor="middle" x="914.5" y="-261.95" font-family="Helvetica,sans-Serif" font-size="14.00">entropy = 0.791</text>
<text text-anchor="middle" x="914.5" y="-244.7" font-family="Helvetica,sans-Serif" font-size="14.00">samples = 1795</text>
<text text-anchor="middle" x="914.5" y="-227.45" font-family="Helvetica,sans-Serif" font-size="14.00">value = [2113, 658]</text>
<text text-anchor="middle" x="914.5" y="-210.2" font-family="Helvetica,sans-Serif" font-size="14.00">class = Animal</text>
</g>
<!-- 15886&#45;&gt;15887 -->
<g id="edge17" class="edge">
<title>15886&#45;&gt;15887</title>
<path fill="none" stroke="black" d="M914.5,-332.32C914.5,-324.42 914.5,-316.13 914.5,-307.98"/>
<polygon fill="black" stroke="black" points="918,-308.12 914.5,-298.12 911,-308.12 918,-308.12"/>
</g>
<!-- 16584 -->
<g id="node25" class="node">
<title>16584</title>
<path fill="#f1bc96" stroke="black" d="M1219,-296.5C1219,-296.5 1104,-296.5 1104,-296.5 1098,-296.5 1092,-290.5 1092,-284.5 1092,-284.5 1092,-214.25 1092,-214.25 1092,-208.25 1098,-202.25 1104,-202.25 1104,-202.25 1219,-202.25 1219,-202.25 1225,-202.25 1231,-208.25 1231,-214.25 1231,-214.25 1231,-284.5 1231,-284.5 1231,-290.5 1225,-296.5 1219,-296.5"/>
<text text-anchor="middle" x="1161.5" y="-279.2" font-family="Helvetica,sans-Serif" font-size="14.00">1_U &lt;= 0.5</text>
<text text-anchor="middle" x="1161.5" y="-261.95" font-family="Helvetica,sans-Serif" font-size="14.00">entropy = 0.904</text>
<text text-anchor="middle" x="1161.5" y="-244.7" font-family="Helvetica,sans-Serif" font-size="14.00">samples = 177</text>
<text text-anchor="middle" x="1161.5" y="-227.45" font-family="Helvetica,sans-Serif" font-size="14.00">value = [194, 91]</text>
<text text-anchor="middle" x="1161.5" y="-210.2" font-family="Helvetica,sans-Serif" font-size="14.00">class = Animal</text>
</g>
<!-- 15886&#45;&gt;16584 -->
<g id="edge24" class="edge">
<title>15886&#45;&gt;16584</title>
<path fill="none" stroke="black" d="M993.33,-337.69C1021.62,-323 1053.52,-306.44 1081.88,-291.72"/>
<polygon fill="black" stroke="black" points="1083.15,-295 1090.41,-287.29 1079.92,-288.79 1083.15,-295"/>
</g>
<!-- 15888 -->
<g id="node19" class="node">
<title>15888</title>
<path fill="#eb9e66" stroke="black" d="M900,-166.25C900,-166.25 767,-166.25 767,-166.25 761,-166.25 755,-160.25 755,-154.25 755,-154.25 755,-84 755,-84 755,-78 761,-72 767,-72 767,-72 900,-72 900,-72 906,-72 912,-78 912,-84 912,-84 912,-154.25 912,-154.25 912,-160.25 906,-166.25 900,-166.25"/>
<text text-anchor="middle" x="833.5" y="-148.95" font-family="Helvetica,sans-Serif" font-size="14.00">9_U &lt;= 0.5</text>
<text text-anchor="middle" x="833.5" y="-131.7" font-family="Helvetica,sans-Serif" font-size="14.00">entropy = 0.693</text>
<text text-anchor="middle" x="833.5" y="-114.45" font-family="Helvetica,sans-Serif" font-size="14.00">samples = 1360</text>
<text text-anchor="middle" x="833.5" y="-97.2" font-family="Helvetica,sans-Serif" font-size="14.00">value = [1709, 390]</text>
<text text-anchor="middle" x="833.5" y="-79.95" font-family="Helvetica,sans-Serif" font-size="14.00">class = Animal</text>
</g>
<!-- 15887&#45;&gt;15888 -->
<g id="edge18" class="edge">
<title>15887&#45;&gt;15888</title>
<path fill="none" stroke="black" d="M885.26,-202.07C879.92,-193.63 874.31,-184.74 868.82,-176.05"/>
<polygon fill="black" stroke="black" points="871.81,-174.22 863.51,-167.64 865.89,-177.96 871.81,-174.22"/>
</g>
<!-- 16407 -->
<g id="node22" class="node">
<title>16407</title>
<path fill="#f6d5bc" stroke="black" d="M1066.5,-166.25C1066.5,-166.25 942.5,-166.25 942.5,-166.25 936.5,-166.25 930.5,-160.25 930.5,-154.25 930.5,-154.25 930.5,-84 930.5,-84 930.5,-78 936.5,-72 942.5,-72 942.5,-72 1066.5,-72 1066.5,-72 1072.5,-72 1078.5,-78 1078.5,-84 1078.5,-84 1078.5,-154.25 1078.5,-154.25 1078.5,-160.25 1072.5,-166.25 1066.5,-166.25"/>
<text text-anchor="middle" x="1004.5" y="-148.95" font-family="Helvetica,sans-Serif" font-size="14.00">2_U &lt;= 0.5</text>
<text text-anchor="middle" x="1004.5" y="-131.7" font-family="Helvetica,sans-Serif" font-size="14.00">entropy = 0.97</text>
<text text-anchor="middle" x="1004.5" y="-114.45" font-family="Helvetica,sans-Serif" font-size="14.00">samples = 435</text>
<text text-anchor="middle" x="1004.5" y="-97.2" font-family="Helvetica,sans-Serif" font-size="14.00">value = [404, 268]</text>
<text text-anchor="middle" x="1004.5" y="-79.95" font-family="Helvetica,sans-Serif" font-size="14.00">class = Animal</text>
</g>
<!-- 15887&#45;&gt;16407 -->
<g id="edge21" class="edge">
<title>15887&#45;&gt;16407</title>
<path fill="none" stroke="black" d="M946.99,-202.07C952.98,-193.54 959.29,-184.54 965.45,-175.77"/>
<polygon fill="black" stroke="black" points="968.31,-177.79 971.19,-167.6 962.58,-173.77 968.31,-177.79"/>
</g>
<!-- 15889 -->
<g id="node20" class="node">
<title>15889</title>
<path fill="#c0c0c0" stroke="black" d="M789.5,-36C789.5,-36 759.5,-36 759.5,-36 753.5,-36 747.5,-30 747.5,-24 747.5,-24 747.5,-12 747.5,-12 747.5,-6 753.5,0 759.5,0 759.5,0 789.5,0 789.5,0 795.5,0 801.5,-6 801.5,-12 801.5,-12 801.5,-24 801.5,-24 801.5,-30 795.5,-36 789.5,-36"/>
<text text-anchor="middle" x="774.5" y="-13.32" font-family="Helvetica,sans-Serif" font-size="14.00">(...)</text>
</g>
<!-- 15888&#45;&gt;15889 -->
<g id="edge19" class="edge">
<title>15888&#45;&gt;15889</title>
<path fill="none" stroke="black" d="M805.9,-71.75C800.65,-62.93 795.31,-53.96 790.56,-45.99"/>
<polygon fill="black" stroke="black" points="793.62,-44.28 785.5,-37.47 787.6,-47.86 793.62,-44.28"/>
</g>
<!-- 16270 -->
<g id="node21" class="node">
<title>16270</title>
<path fill="#c0c0c0" stroke="black" d="M861.5,-36C861.5,-36 831.5,-36 831.5,-36 825.5,-36 819.5,-30 819.5,-24 819.5,-24 819.5,-12 819.5,-12 819.5,-6 825.5,0 831.5,0 831.5,0 861.5,0 861.5,0 867.5,0 873.5,-6 873.5,-12 873.5,-12 873.5,-24 873.5,-24 873.5,-30 867.5,-36 861.5,-36"/>
<text text-anchor="middle" x="846.5" y="-13.32" font-family="Helvetica,sans-Serif" font-size="14.00">(...)</text>
</g>
<!-- 15888&#45;&gt;16270 -->
<g id="edge20" class="edge">
<title>15888&#45;&gt;16270</title>
<path fill="none" stroke="black" d="M839.58,-71.75C840.67,-63.42 841.78,-54.97 842.78,-47.34"/>
<polygon fill="black" stroke="black" points="846.22,-48.04 844.05,-37.67 839.28,-47.13 846.22,-48.04"/>
</g>
<!-- 16408 -->
<g id="node23" class="node">
<title>16408</title>
<path fill="#c0c0c0" stroke="black" d="M953.5,-36C953.5,-36 923.5,-36 923.5,-36 917.5,-36 911.5,-30 911.5,-24 911.5,-24 911.5,-12 911.5,-12 911.5,-6 917.5,0 923.5,0 923.5,0 953.5,0 953.5,0 959.5,0 965.5,-6 965.5,-12 965.5,-12 965.5,-24 965.5,-24 965.5,-30 959.5,-36 953.5,-36"/>
<text text-anchor="middle" x="938.5" y="-13.32" font-family="Helvetica,sans-Serif" font-size="14.00">(...)</text>
</g>
<!-- 16407&#45;&gt;16408 -->
<g id="edge22" class="edge">
<title>16407&#45;&gt;16408</title>
<path fill="none" stroke="black" d="M973.63,-71.75C967.68,-62.83 961.64,-53.76 956.29,-45.72"/>
<polygon fill="black" stroke="black" points="959.23,-43.82 950.77,-37.43 953.4,-47.7 959.23,-43.82"/>
</g>
<!-- 16541 -->
<g id="node24" class="node">
<title>16541</title>
<path fill="#c0c0c0" stroke="black" d="M1025.5,-36C1025.5,-36 995.5,-36 995.5,-36 989.5,-36 983.5,-30 983.5,-24 983.5,-24 983.5,-12 983.5,-12 983.5,-6 989.5,0 995.5,0 995.5,0 1025.5,0 1025.5,0 1031.5,0 1037.5,-6 1037.5,-12 1037.5,-12 1037.5,-24 1037.5,-24 1037.5,-30 1031.5,-36 1025.5,-36"/>
<text text-anchor="middle" x="1010.5" y="-13.32" font-family="Helvetica,sans-Serif" font-size="14.00">(...)</text>
</g>
<!-- 16407&#45;&gt;16541 -->
<g id="edge23" class="edge">
<title>16407&#45;&gt;16541</title>
<path fill="none" stroke="black" d="M1007.31,-71.75C1007.81,-63.52 1008.31,-55.17 1008.77,-47.61"/>
<polygon fill="black" stroke="black" points="1012.26,-47.88 1009.37,-37.68 1005.27,-47.45 1012.26,-47.88"/>
</g>
<!-- 16585 -->
<g id="node26" class="node">
<title>16585</title>
<path fill="#f7dac5" stroke="black" d="M1214.88,-166.25C1214.88,-166.25 1108.12,-166.25 1108.12,-166.25 1102.12,-166.25 1096.12,-160.25 1096.12,-154.25 1096.12,-154.25 1096.12,-84 1096.12,-84 1096.12,-78 1102.12,-72 1108.12,-72 1108.12,-72 1214.88,-72 1214.88,-72 1220.88,-72 1226.88,-78 1226.88,-84 1226.88,-84 1226.88,-154.25 1226.88,-154.25 1226.88,-160.25 1220.88,-166.25 1214.88,-166.25"/>
<text text-anchor="middle" x="1161.5" y="-148.95" font-family="Helvetica,sans-Serif" font-size="14.00">8_A &lt;= 0.5</text>
<text text-anchor="middle" x="1161.5" y="-131.7" font-family="Helvetica,sans-Serif" font-size="14.00">entropy = 0.979</text>
<text text-anchor="middle" x="1161.5" y="-114.45" font-family="Helvetica,sans-Serif" font-size="14.00">samples = 95</text>
<text text-anchor="middle" x="1161.5" y="-97.2" font-family="Helvetica,sans-Serif" font-size="14.00">value = [86, 61]</text>
<text text-anchor="middle" x="1161.5" y="-79.95" font-family="Helvetica,sans-Serif" font-size="14.00">class = Animal</text>
</g>
<!-- 16584&#45;&gt;16585 -->
<g id="edge25" class="edge">
<title>16584&#45;&gt;16585</title>
<path fill="none" stroke="black" d="M1161.5,-202.07C1161.5,-194.17 1161.5,-185.88 1161.5,-177.73"/>
<polygon fill="black" stroke="black" points="1165,-177.87 1161.5,-167.87 1158,-177.87 1165,-177.87"/>
</g>
<!-- 16638 -->
<g id="node29" class="node">
<title>16638</title>
<path fill="#eca470" stroke="black" d="M1372,-166.25C1372,-166.25 1257,-166.25 1257,-166.25 1251,-166.25 1245,-160.25 1245,-154.25 1245,-154.25 1245,-84 1245,-84 1245,-78 1251,-72 1257,-72 1257,-72 1372,-72 1372,-72 1378,-72 1384,-78 1384,-84 1384,-84 1384,-154.25 1384,-154.25 1384,-160.25 1378,-166.25 1372,-166.25"/>
<text text-anchor="middle" x="1314.5" y="-148.95" font-family="Helvetica,sans-Serif" font-size="14.00">8_U &lt;= 0.5</text>
<text text-anchor="middle" x="1314.5" y="-131.7" font-family="Helvetica,sans-Serif" font-size="14.00">entropy = 0.755</text>
<text text-anchor="middle" x="1314.5" y="-114.45" font-family="Helvetica,sans-Serif" font-size="14.00">samples = 82</text>
<text text-anchor="middle" x="1314.5" y="-97.2" font-family="Helvetica,sans-Serif" font-size="14.00">value = [108, 30]</text>
<text text-anchor="middle" x="1314.5" y="-79.95" font-family="Helvetica,sans-Serif" font-size="14.00">class = Animal</text>
</g>
<!-- 16584&#45;&gt;16638 -->
<g id="edge28" class="edge">
<title>16584&#45;&gt;16638</title>
<path fill="none" stroke="black" d="M1216.74,-202.07C1227.72,-192.87 1239.33,-183.13 1250.58,-173.71"/>
<polygon fill="black" stroke="black" points="1252.51,-176.65 1257.93,-167.55 1248.02,-171.29 1252.51,-176.65"/>
</g>
<!-- 16586 -->
<g id="node27" class="node">
<title>16586</title>
<path fill="#c0c0c0" stroke="black" d="M1126.5,-36C1126.5,-36 1096.5,-36 1096.5,-36 1090.5,-36 1084.5,-30 1084.5,-24 1084.5,-24 1084.5,-12 1084.5,-12 1084.5,-6 1090.5,0 1096.5,0 1096.5,0 1126.5,0 1126.5,0 1132.5,0 1138.5,-6 1138.5,-12 1138.5,-12 1138.5,-24 1138.5,-24 1138.5,-30 1132.5,-36 1126.5,-36"/>
<text text-anchor="middle" x="1111.5" y="-13.32" font-family="Helvetica,sans-Serif" font-size="14.00">(...)</text>
</g>
<!-- 16585&#45;&gt;16586 -->
<g id="edge26" class="edge">
<title>16585&#45;&gt;16586</title>
<path fill="none" stroke="black" d="M1138.11,-71.75C1133.71,-63.03 1129.24,-54.16 1125.25,-46.26"/>
<polygon fill="black" stroke="black" points="1128.47,-44.88 1120.84,-37.52 1122.22,-48.03 1128.47,-44.88"/>
</g>
<!-- 16623 -->
<g id="node28" class="node">
<title>16623</title>
<path fill="#c0c0c0" stroke="black" d="M1198.5,-36C1198.5,-36 1168.5,-36 1168.5,-36 1162.5,-36 1156.5,-30 1156.5,-24 1156.5,-24 1156.5,-12 1156.5,-12 1156.5,-6 1162.5,0 1168.5,0 1168.5,0 1198.5,0 1198.5,0 1204.5,0 1210.5,-6 1210.5,-12 1210.5,-12 1210.5,-24 1210.5,-24 1210.5,-30 1204.5,-36 1198.5,-36"/>
<text text-anchor="middle" x="1183.5" y="-13.32" font-family="Helvetica,sans-Serif" font-size="14.00">(...)</text>
</g>
<!-- 16585&#45;&gt;16623 -->
<g id="edge27" class="edge">
<title>16585&#45;&gt;16623</title>
<path fill="none" stroke="black" d="M1171.79,-71.75C1173.64,-63.42 1175.52,-54.97 1177.21,-47.34"/>
<polygon fill="black" stroke="black" points="1180.61,-48.17 1179.36,-37.65 1173.78,-46.65 1180.61,-48.17"/>
</g>
<!-- 16639 -->
<g id="node30" class="node">
<title>16639</title>
<path fill="#c0c0c0" stroke="black" d="M1293.5,-36C1293.5,-36 1263.5,-36 1263.5,-36 1257.5,-36 1251.5,-30 1251.5,-24 1251.5,-24 1251.5,-12 1251.5,-12 1251.5,-6 1257.5,0 1263.5,0 1263.5,0 1293.5,0 1293.5,0 1299.5,0 1305.5,-6 1305.5,-12 1305.5,-12 1305.5,-24 1305.5,-24 1305.5,-30 1299.5,-36 1293.5,-36"/>
<text text-anchor="middle" x="1278.5" y="-13.32" font-family="Helvetica,sans-Serif" font-size="14.00">(...)</text>
</g>
<!-- 16638&#45;&gt;16639 -->
<g id="edge29" class="edge">
<title>16638&#45;&gt;16639</title>
<path fill="none" stroke="black" d="M1297.66,-71.75C1294.56,-63.22 1291.42,-54.57 1288.6,-46.8"/>
<polygon fill="black" stroke="black" points="1291.96,-45.8 1285.25,-37.6 1285.38,-48.19 1291.96,-45.8"/>
</g>
<!-- 16662 -->
<g id="node31" class="node">
<title>16662</title>
<path fill="#c0c0c0" stroke="black" d="M1365.5,-36C1365.5,-36 1335.5,-36 1335.5,-36 1329.5,-36 1323.5,-30 1323.5,-24 1323.5,-24 1323.5,-12 1323.5,-12 1323.5,-6 1329.5,0 1335.5,0 1335.5,0 1365.5,0 1365.5,0 1371.5,0 1377.5,-6 1377.5,-12 1377.5,-12 1377.5,-24 1377.5,-24 1377.5,-30 1371.5,-36 1365.5,-36"/>
<text text-anchor="middle" x="1350.5" y="-13.32" font-family="Helvetica,sans-Serif" font-size="14.00">(...)</text>
</g>
<!-- 16638&#45;&gt;16662 -->
<g id="edge30" class="edge">
<title>16638&#45;&gt;16662</title>
<path fill="none" stroke="black" d="M1331.34,-71.75C1334.44,-63.22 1337.58,-54.57 1340.4,-46.8"/>
<polygon fill="black" stroke="black" points="1343.62,-48.19 1343.75,-37.6 1337.04,-45.8 1343.62,-48.19"/>
</g>
</g>
</svg>
