<?xml version="1.0" encoding="UTF-8" standalone="no"?>
<!DOCTYPE svg PUBLIC "-//W3C//DTD SVG 1.1//EN"
 "http://www.w3.org/Graphics/SVG/1.1/DTD/svg11.dtd">
<!-- Generated by graphviz version 12.0.0 (20240803.0821)
 -->
<!-- Title: Tree Pages: 1 -->
<svg width="1427pt" height="565pt"
 viewBox="0.00 0.00 1427.00 565.00" xmlns="http://www.w3.org/2000/svg" xmlns:xlink="http://www.w3.org/1999/xlink">
<g id="graph0" class="graph" transform="scale(1 1) rotate(0) translate(4 561)">
<title>Tree</title>
<polygon fill="white" stroke="none" points="-4,4 -4,-561 1423,-561 1423,4 -4,4"/>
<!-- 0 -->
<g id="node1" class="node">
<title>0</title>
<path fill="#ffffff" stroke="black" d="M803,-557C803,-557 643,-557 643,-557 637,-557 631,-551 631,-545 631,-545 631,-474.75 631,-474.75 631,-468.75 637,-462.75 643,-462.75 643,-462.75 803,-462.75 803,-462.75 809,-462.75 815,-468.75 815,-474.75 815,-474.75 815,-545 815,-545 815,-551 809,-557 803,-557"/>
<text text-anchor="middle" x="723" y="-539.7" font-family="Helvetica,sans-Serif" font-size="14.00">16_U &lt;= 0.5</text>
<text text-anchor="middle" x="723" y="-522.45" font-family="Helvetica,sans-Serif" font-size="14.00">entropy = 1.0</text>
<text text-anchor="middle" x="723" y="-505.2" font-family="Helvetica,sans-Serif" font-size="14.00">samples = 38144</text>
<text text-anchor="middle" x="723" y="-487.95" font-family="Helvetica,sans-Serif" font-size="14.00">value = [30203, 30142]</text>
<text text-anchor="middle" x="723" y="-470.7" font-family="Helvetica,sans-Serif" font-size="14.00">class = Animal</text>
</g>
<!-- 1 -->
<g id="node2" class="node">
<title>1</title>
<path fill="#f4fafe" stroke="black" d="M632,-426.75C632,-426.75 472,-426.75 472,-426.75 466,-426.75 460,-420.75 460,-414.75 460,-414.75 460,-344.5 460,-344.5 460,-338.5 466,-332.5 472,-332.5 472,-332.5 632,-332.5 632,-332.5 638,-332.5 644,-338.5 644,-344.5 644,-344.5 644,-414.75 644,-414.75 644,-420.75 638,-426.75 632,-426.75"/>
<text text-anchor="middle" x="552" y="-409.45" font-family="Helvetica,sans-Serif" font-size="14.00">22_U &lt;= 0.5</text>
<text text-anchor="middle" x="552" y="-392.2" font-family="Helvetica,sans-Serif" font-size="14.00">entropy = 0.999</text>
<text text-anchor="middle" x="552" y="-374.95" font-family="Helvetica,sans-Serif" font-size="14.00">samples = 27898</text>
<text text-anchor="middle" x="552" y="-357.7" font-family="Helvetica,sans-Serif" font-size="14.00">value = [21414, 22623]</text>
<text text-anchor="middle" x="552" y="-340.45" font-family="Helvetica,sans-Serif" font-size="14.00">class = Plant</text>
</g>
<!-- 0&#45;&gt;1 -->
<g id="edge1" class="edge">
<title>0&#45;&gt;1</title>
<path fill="none" stroke="black" d="M661.27,-462.57C648.87,-453.28 635.75,-443.44 623.07,-433.93"/>
<polygon fill="black" stroke="black" points="625.24,-431.18 615.14,-427.98 621.04,-436.78 625.24,-431.18"/>
<text text-anchor="middle" x="617.47" y="-447.15" font-family="Helvetica,sans-Serif" font-size="14.00">True</text>
</g>
<!-- 11778 -->
<g id="node17" class="node">
<title>11778</title>
<path fill="#fbede2" stroke="black" d="M980,-426.75C980,-426.75 838,-426.75 838,-426.75 832,-426.75 826,-420.75 826,-414.75 826,-414.75 826,-344.5 826,-344.5 826,-338.5 832,-332.5 838,-332.5 838,-332.5 980,-332.5 980,-332.5 986,-332.5 992,-338.5 992,-344.5 992,-344.5 992,-414.75 992,-414.75 992,-420.75 986,-426.75 980,-426.75"/>
<text text-anchor="middle" x="909" y="-409.45" font-family="Helvetica,sans-Serif" font-size="14.00">22_A &lt;= 0.5</text>
<text text-anchor="middle" x="909" y="-392.2" font-family="Helvetica,sans-Serif" font-size="14.00">entropy = 0.996</text>
<text text-anchor="middle" x="909" y="-374.95" font-family="Helvetica,sans-Serif" font-size="14.00">samples = 10246</text>
<text text-anchor="middle" x="909" y="-357.7" font-family="Helvetica,sans-Serif" font-size="14.00">value = [8789, 7519]</text>
<text text-anchor="middle" x="909" y="-340.45" font-family="Helvetica,sans-Serif" font-size="14.00">class = Animal</text>
</g>
<!-- 0&#45;&gt;11778 -->
<g id="edge16" class="edge">
<title>0&#45;&gt;11778</title>
<path fill="none" stroke="black" d="M790.41,-462.39C803.93,-453.07 818.23,-443.22 832.04,-433.69"/>
<polygon fill="black" stroke="black" points="834.01,-436.58 840.26,-428.02 830.04,-430.82 834.01,-436.58"/>
<text text-anchor="middle" x="836.99" y="-447.08" font-family="Helvetica,sans-Serif" font-size="14.00">False</text>
</g>
<!-- 2 -->
<g id="node3" class="node">
<title>2</title>
<path fill="#d4eaf9" stroke="black" d="M365,-296.5C365,-296.5 205,-296.5 205,-296.5 199,-296.5 193,-290.5 193,-284.5 193,-284.5 193,-214.25 193,-214.25 193,-208.25 199,-202.25 205,-202.25 205,-202.25 365,-202.25 365,-202.25 371,-202.25 377,-208.25 377,-214.25 377,-214.25 377,-284.5 377,-284.5 377,-290.5 371,-296.5 365,-296.5"/>
<text text-anchor="middle" x="285" y="-279.2" font-family="Helvetica,sans-Serif" font-size="14.00">22_A &lt;= 0.5</text>
<text text-anchor="middle" x="285" y="-261.95" font-family="Helvetica,sans-Serif" font-size="14.00">entropy = 0.989</text>
<text text-anchor="middle" x="285" y="-244.7" font-family="Helvetica,sans-Serif" font-size="14.00">samples = 24377</text>
<text text-anchor="middle" x="285" y="-227.45" font-family="Helvetica,sans-Serif" font-size="14.00">value = [16883, 21615]</text>
<text text-anchor="middle" x="285" y="-210.2" font-family="Helvetica,sans-Serif" font-size="14.00">class = Plant</text>
</g>
<!-- 1&#45;&gt;2 -->
<g id="edge2" class="edge">
<title>1&#45;&gt;2</title>
<path fill="none" stroke="black" d="M459.74,-334.31C436.4,-323.1 411.18,-310.99 387.37,-299.55"/>
<polygon fill="black" stroke="black" points="389.16,-296.52 378.63,-295.35 386.13,-302.83 389.16,-296.52"/>
</g>
<!-- 10417 -->
<g id="node10" class="node">
<title>10417</title>
<path fill="#eb9d65" stroke="black" d="M623,-296.5C623,-296.5 481,-296.5 481,-296.5 475,-296.5 469,-290.5 469,-284.5 469,-284.5 469,-214.25 469,-214.25 469,-208.25 475,-202.25 481,-202.25 481,-202.25 623,-202.25 623,-202.25 629,-202.25 635,-208.25 635,-214.25 635,-214.25 635,-284.5 635,-284.5 635,-290.5 629,-296.5 623,-296.5"/>
<text text-anchor="middle" x="552" y="-279.2" font-family="Helvetica,sans-Serif" font-size="14.00">8_A &lt;= 0.5</text>
<text text-anchor="middle" x="552" y="-261.95" font-family="Helvetica,sans-Serif" font-size="14.00">entropy = 0.684</text>
<text text-anchor="middle" x="552" y="-244.7" font-family="Helvetica,sans-Serif" font-size="14.00">samples = 3521</text>
<text text-anchor="middle" x="552" y="-227.45" font-family="Helvetica,sans-Serif" font-size="14.00">value = [4531, 1008]</text>
<text text-anchor="middle" x="552" y="-210.2" font-family="Helvetica,sans-Serif" font-size="14.00">class = Animal</text>
</g>
<!-- 1&#45;&gt;10417 -->
<g id="edge9" class="edge">
<title>1&#45;&gt;10417</title>
<path fill="none" stroke="black" d="M552,-332.32C552,-324.42 552,-316.13 552,-307.98"/>
<polygon fill="black" stroke="black" points="555.5,-308.12 552,-298.12 548.5,-308.12 555.5,-308.12"/>
</g>
<!-- 3 -->
<g id="node4" class="node">
<title>3</title>
<path fill="#bcdef6" stroke="black" d="M172,-166.25C172,-166.25 12,-166.25 12,-166.25 6,-166.25 0,-160.25 0,-154.25 0,-154.25 0,-84 0,-84 0,-78 6,-72 12,-72 12,-72 172,-72 172,-72 178,-72 184,-78 184,-84 184,-84 184,-154.25 184,-154.25 184,-160.25 178,-166.25 172,-166.25"/>
<text text-anchor="middle" x="92" y="-148.95" font-family="Helvetica,sans-Serif" font-size="14.00">22_G &lt;= 0.5</text>
<text text-anchor="middle" x="92" y="-131.7" font-family="Helvetica,sans-Serif" font-size="14.00">entropy = 0.97</text>
<text text-anchor="middle" x="92" y="-114.45" font-family="Helvetica,sans-Serif" font-size="14.00">samples = 21208</text>
<text text-anchor="middle" x="92" y="-97.2" font-family="Helvetica,sans-Serif" font-size="14.00">value = [13330, 20141]</text>
<text text-anchor="middle" x="92" y="-79.95" font-family="Helvetica,sans-Serif" font-size="14.00">class = Plant</text>
</g>
<!-- 2&#45;&gt;3 -->
<g id="edge3" class="edge">
<title>2&#45;&gt;3</title>
<path fill="none" stroke="black" d="M215.05,-201.89C200.89,-192.48 185.9,-182.53 171.45,-172.92"/>
<polygon fill="black" stroke="black" points="173.56,-170.12 163.3,-167.5 169.69,-175.95 173.56,-170.12"/>
</g>
<!-- 9024 -->
<g id="node7" class="node">
<title>9024</title>
<path fill="#f0b58b" stroke="black" d="M356,-166.25C356,-166.25 214,-166.25 214,-166.25 208,-166.25 202,-160.25 202,-154.25 202,-154.25 202,-84 202,-84 202,-78 208,-72 214,-72 214,-72 356,-72 356,-72 362,-72 368,-78 368,-84 368,-84 368,-154.25 368,-154.25 368,-160.25 362,-166.25 356,-166.25"/>
<text text-anchor="middle" x="285" y="-148.95" font-family="Helvetica,sans-Serif" font-size="14.00">4_C &lt;= 0.5</text>
<text text-anchor="middle" x="285" y="-131.7" font-family="Helvetica,sans-Serif" font-size="14.00">entropy = 0.873</text>
<text text-anchor="middle" x="285" y="-114.45" font-family="Helvetica,sans-Serif" font-size="14.00">samples = 3169</text>
<text text-anchor="middle" x="285" y="-97.2" font-family="Helvetica,sans-Serif" font-size="14.00">value = [3553, 1474]</text>
<text text-anchor="middle" x="285" y="-79.95" font-family="Helvetica,sans-Serif" font-size="14.00">class = Animal</text>
</g>
<!-- 2&#45;&gt;9024 -->
<g id="edge6" class="edge">
<title>2&#45;&gt;9024</title>
<path fill="none" stroke="black" d="M285,-202.07C285,-194.17 285,-185.88 285,-177.73"/>
<polygon fill="black" stroke="black" points="288.5,-177.87 285,-167.87 281.5,-177.87 288.5,-177.87"/>
</g>
<!-- 4 -->
<g id="node5" class="node">
<title>4</title>
<path fill="#c0c0c0" stroke="black" d="M71,-36C71,-36 41,-36 41,-36 35,-36 29,-30 29,-24 29,-24 29,-12 29,-12 29,-6 35,0 41,0 41,0 71,0 71,0 77,0 83,-6 83,-12 83,-12 83,-24 83,-24 83,-30 77,-36 71,-36"/>
<text text-anchor="middle" x="56" y="-13.32" font-family="Helvetica,sans-Serif" font-size="14.00">(...)</text>
</g>
<!-- 3&#45;&gt;4 -->
<g id="edge4" class="edge">
<title>3&#45;&gt;4</title>
<path fill="none" stroke="black" d="M75.16,-71.75C72.06,-63.22 68.92,-54.57 66.1,-46.8"/>
<polygon fill="black" stroke="black" points="69.46,-45.8 62.75,-37.6 62.88,-48.19 69.46,-45.8"/>
</g>
<!-- 7655 -->
<g id="node6" class="node">
<title>7655</title>
<path fill="#c0c0c0" stroke="black" d="M143,-36C143,-36 113,-36 113,-36 107,-36 101,-30 101,-24 101,-24 101,-12 101,-12 101,-6 107,0 113,0 113,0 143,0 143,0 149,0 155,-6 155,-12 155,-12 155,-24 155,-24 155,-30 149,-36 143,-36"/>
<text text-anchor="middle" x="128" y="-13.32" font-family="Helvetica,sans-Serif" font-size="14.00">(...)</text>
</g>
<!-- 3&#45;&gt;7655 -->
<g id="edge5" class="edge">
<title>3&#45;&gt;7655</title>
<path fill="none" stroke="black" d="M108.84,-71.75C111.94,-63.22 115.08,-54.57 117.9,-46.8"/>
<polygon fill="black" stroke="black" points="121.12,-48.19 121.25,-37.6 114.54,-45.8 121.12,-48.19"/>
</g>
<!-- 9025 -->
<g id="node8" class="node">
<title>9025</title>
<path fill="#c0c0c0" stroke="black" d="M261,-36C261,-36 231,-36 231,-36 225,-36 219,-30 219,-24 219,-24 219,-12 219,-12 219,-6 225,0 231,0 231,0 261,0 261,0 267,0 273,-6 273,-12 273,-12 273,-24 273,-24 273,-30 267,-36 261,-36"/>
<text text-anchor="middle" x="246" y="-13.32" font-family="Helvetica,sans-Serif" font-size="14.00">(...)</text>
</g>
<!-- 9024&#45;&gt;9025 -->
<g id="edge7" class="edge">
<title>9024&#45;&gt;9025</title>
<path fill="none" stroke="black" d="M266.76,-71.75C263.4,-63.22 259.99,-54.57 256.94,-46.8"/>
<polygon fill="black" stroke="black" points="260.23,-45.61 253.31,-37.58 253.71,-48.17 260.23,-45.61"/>
</g>
<!-- 10106 -->
<g id="node9" class="node">
<title>10106</title>
<path fill="#c0c0c0" stroke="black" d="M333,-36C333,-36 303,-36 303,-36 297,-36 291,-30 291,-24 291,-24 291,-12 291,-12 291,-6 297,0 303,0 303,0 333,0 333,0 339,0 345,-6 345,-12 345,-12 345,-24 345,-24 345,-30 339,-36 333,-36"/>
<text text-anchor="middle" x="318" y="-13.32" font-family="Helvetica,sans-Serif" font-size="14.00">(...)</text>
</g>
<!-- 9024&#45;&gt;10106 -->
<g id="edge8" class="edge">
<title>9024&#45;&gt;10106</title>
<path fill="none" stroke="black" d="M300.44,-71.75C303.24,-63.32 306.09,-54.77 308.66,-47.07"/>
<polygon fill="black" stroke="black" points="311.97,-48.2 311.8,-37.61 305.33,-45.99 311.97,-48.2"/>
</g>
<!-- 10418 -->
<g id="node11" class="node">
<title>10418</title>
<path fill="#ea995f" stroke="black" d="M531.5,-166.25C531.5,-166.25 398.5,-166.25 398.5,-166.25 392.5,-166.25 386.5,-160.25 386.5,-154.25 386.5,-154.25 386.5,-84 386.5,-84 386.5,-78 392.5,-72 398.5,-72 398.5,-72 531.5,-72 531.5,-72 537.5,-72 543.5,-78 543.5,-84 543.5,-84 543.5,-154.25 543.5,-154.25 543.5,-160.25 537.5,-166.25 531.5,-166.25"/>
<text text-anchor="middle" x="465" y="-148.95" font-family="Helvetica,sans-Serif" font-size="14.00">6_C &lt;= 0.5</text>
<text text-anchor="middle" x="465" y="-131.7" font-family="Helvetica,sans-Serif" font-size="14.00">entropy = 0.64</text>
<text text-anchor="middle" x="465" y="-114.45" font-family="Helvetica,sans-Serif" font-size="14.00">samples = 2559</text>
<text text-anchor="middle" x="465" y="-97.2" font-family="Helvetica,sans-Serif" font-size="14.00">value = [3390, 658]</text>
<text text-anchor="middle" x="465" y="-79.95" font-family="Helvetica,sans-Serif" font-size="14.00">class = Animal</text>
</g>
<!-- 10417&#45;&gt;10418 -->
<g id="edge10" class="edge">
<title>10417&#45;&gt;10418</title>
<path fill="none" stroke="black" d="M520.59,-202.07C514.8,-193.54 508.7,-184.54 502.75,-175.77"/>
<polygon fill="black" stroke="black" points="505.72,-173.92 497.21,-167.61 499.93,-177.85 505.72,-173.92"/>
</g>
<!-- 11389 -->
<g id="node14" class="node">
<title>11389</title>
<path fill="#eda876" stroke="black" d="M706.5,-166.25C706.5,-166.25 573.5,-166.25 573.5,-166.25 567.5,-166.25 561.5,-160.25 561.5,-154.25 561.5,-154.25 561.5,-84 561.5,-84 561.5,-78 567.5,-72 573.5,-72 573.5,-72 706.5,-72 706.5,-72 712.5,-72 718.5,-78 718.5,-84 718.5,-84 718.5,-154.25 718.5,-154.25 718.5,-160.25 712.5,-166.25 706.5,-166.25"/>
<text text-anchor="middle" x="640" y="-148.95" font-family="Helvetica,sans-Serif" font-size="14.00">7_G &lt;= 0.5</text>
<text text-anchor="middle" x="640" y="-131.7" font-family="Helvetica,sans-Serif" font-size="14.00">entropy = 0.786</text>
<text text-anchor="middle" x="640" y="-114.45" font-family="Helvetica,sans-Serif" font-size="14.00">samples = 962</text>
<text text-anchor="middle" x="640" y="-97.2" font-family="Helvetica,sans-Serif" font-size="14.00">value = [1141, 350]</text>
<text text-anchor="middle" x="640" y="-79.95" font-family="Helvetica,sans-Serif" font-size="14.00">class = Animal</text>
</g>
<!-- 10417&#45;&gt;11389 -->
<g id="edge13" class="edge">
<title>10417&#45;&gt;11389</title>
<path fill="none" stroke="black" d="M583.77,-202.07C589.63,-193.54 595.8,-184.54 601.82,-175.77"/>
<polygon fill="black" stroke="black" points="604.65,-177.83 607.42,-167.61 598.88,-173.87 604.65,-177.83"/>
</g>
<!-- 10419 -->
<g id="node12" class="node">
<title>10419</title>
<path fill="#c0c0c0" stroke="black" d="M423,-36C423,-36 393,-36 393,-36 387,-36 381,-30 381,-24 381,-24 381,-12 381,-12 381,-6 387,0 393,0 393,0 423,0 423,0 429,0 435,-6 435,-12 435,-12 435,-24 435,-24 435,-30 429,-36 423,-36"/>
<text text-anchor="middle" x="408" y="-13.32" font-family="Helvetica,sans-Serif" font-size="14.00">(...)</text>
</g>
<!-- 10418&#45;&gt;10419 -->
<g id="edge11" class="edge">
<title>10418&#45;&gt;10419</title>
<path fill="none" stroke="black" d="M438.34,-71.75C433.26,-62.93 428.1,-53.96 423.52,-45.99"/>
<polygon fill="black" stroke="black" points="426.65,-44.41 418.63,-37.48 420.58,-47.9 426.65,-44.41"/>
</g>
<!-- 11204 -->
<g id="node13" class="node">
<title>11204</title>
<path fill="#c0c0c0" stroke="black" d="M495,-36C495,-36 465,-36 465,-36 459,-36 453,-30 453,-24 453,-24 453,-12 453,-12 453,-6 459,0 465,0 465,0 495,0 495,0 501,0 507,-6 507,-12 507,-12 507,-24 507,-24 507,-30 501,-36 495,-36"/>
<text text-anchor="middle" x="480" y="-13.32" font-family="Helvetica,sans-Serif" font-size="14.00">(...)</text>
</g>
<!-- 10418&#45;&gt;11204 -->
<g id="edge12" class="edge">
<title>10418&#45;&gt;11204</title>
<path fill="none" stroke="black" d="M472.02,-71.75C473.28,-63.42 474.56,-54.97 475.71,-47.34"/>
<polygon fill="black" stroke="black" points="479.14,-48.08 477.17,-37.67 472.22,-47.03 479.14,-48.08"/>
</g>
<!-- 11390 -->
<g id="node15" class="node">
<title>11390</title>
<path fill="#c0c0c0" stroke="black" d="M601,-36C601,-36 571,-36 571,-36 565,-36 559,-30 559,-24 559,-24 559,-12 559,-12 559,-6 565,0 571,0 571,0 601,0 601,0 607,0 613,-6 613,-12 613,-12 613,-24 613,-24 613,-30 607,-36 601,-36"/>
<text text-anchor="middle" x="586" y="-13.32" font-family="Helvetica,sans-Serif" font-size="14.00">(...)</text>
</g>
<!-- 11389&#45;&gt;11390 -->
<g id="edge14" class="edge">
<title>11389&#45;&gt;11390</title>
<path fill="none" stroke="black" d="M614.74,-71.75C609.98,-63.03 605.16,-54.16 600.85,-46.26"/>
<polygon fill="black" stroke="black" points="603.94,-44.61 596.08,-37.5 597.79,-47.96 603.94,-44.61"/>
</g>
<!-- 11649 -->
<g id="node16" class="node">
<title>11649</title>
<path fill="#c0c0c0" stroke="black" d="M673,-36C673,-36 643,-36 643,-36 637,-36 631,-30 631,-24 631,-24 631,-12 631,-12 631,-6 637,0 643,0 643,0 673,0 673,0 679,0 685,-6 685,-12 685,-12 685,-24 685,-24 685,-30 679,-36 673,-36"/>
<text text-anchor="middle" x="658" y="-13.32" font-family="Helvetica,sans-Serif" font-size="14.00">(...)</text>
</g>
<!-- 11389&#45;&gt;11649 -->
<g id="edge15" class="edge">
<title>11389&#45;&gt;11649</title>
<path fill="none" stroke="black" d="M648.42,-71.75C649.93,-63.42 651.47,-54.97 652.85,-47.34"/>
<polygon fill="black" stroke="black" points="656.27,-48.13 654.61,-37.66 649.38,-46.88 656.27,-48.13"/>
</g>
<!-- 11779 -->
<g id="node18" class="node">
<title>11779</title>
<path fill="#fdf7f2" stroke="black" d="M980,-296.5C980,-296.5 838,-296.5 838,-296.5 832,-296.5 826,-290.5 826,-284.5 826,-284.5 826,-214.25 826,-214.25 826,-208.25 832,-202.25 838,-202.25 838,-202.25 980,-202.25 980,-202.25 986,-202.25 992,-208.25 992,-214.25 992,-214.25 992,-284.5 992,-284.5 992,-290.5 986,-296.5 980,-296.5"/>
<text text-anchor="middle" x="909" y="-279.2" font-family="Helvetica,sans-Serif" font-size="14.00">19_C &lt;= 0.5</text>
<text text-anchor="middle" x="909" y="-261.95" font-family="Helvetica,sans-Serif" font-size="14.00">entropy = 0.999</text>
<text text-anchor="middle" x="909" y="-244.7" font-family="Helvetica,sans-Serif" font-size="14.00">samples = 9202</text>
<text text-anchor="middle" x="909" y="-227.45" font-family="Helvetica,sans-Serif" font-size="14.00">value = [7566, 7073]</text>
<text text-anchor="middle" x="909" y="-210.2" font-family="Helvetica,sans-Serif" font-size="14.00">class = Animal</text>
</g>
<!-- 11778&#45;&gt;11779 -->
<g id="edge17" class="edge">
<title>11778&#45;&gt;11779</title>
<path fill="none" stroke="black" d="M909,-332.32C909,-324.42 909,-316.13 909,-307.98"/>
<polygon fill="black" stroke="black" points="912.5,-308.12 909,-298.12 905.5,-308.12 912.5,-308.12"/>
</g>
<!-- 15938 -->
<g id="node25" class="node">
<title>15938</title>
<path fill="#eeaf81" stroke="black" d="M1245.5,-296.5C1245.5,-296.5 1112.5,-296.5 1112.5,-296.5 1106.5,-296.5 1100.5,-290.5 1100.5,-284.5 1100.5,-284.5 1100.5,-214.25 1100.5,-214.25 1100.5,-208.25 1106.5,-202.25 1112.5,-202.25 1112.5,-202.25 1245.5,-202.25 1245.5,-202.25 1251.5,-202.25 1257.5,-208.25 1257.5,-214.25 1257.5,-214.25 1257.5,-284.5 1257.5,-284.5 1257.5,-290.5 1251.5,-296.5 1245.5,-296.5"/>
<text text-anchor="middle" x="1179" y="-279.2" font-family="Helvetica,sans-Serif" font-size="14.00">5_C &lt;= 0.5</text>
<text text-anchor="middle" x="1179" y="-261.95" font-family="Helvetica,sans-Serif" font-size="14.00">entropy = 0.837</text>
<text text-anchor="middle" x="1179" y="-244.7" font-family="Helvetica,sans-Serif" font-size="14.00">samples = 1044</text>
<text text-anchor="middle" x="1179" y="-227.45" font-family="Helvetica,sans-Serif" font-size="14.00">value = [1223, 446]</text>
<text text-anchor="middle" x="1179" y="-210.2" font-family="Helvetica,sans-Serif" font-size="14.00">class = Animal</text>
</g>
<!-- 11778&#45;&gt;15938 -->
<g id="edge24" class="edge">
<title>11778&#45;&gt;15938</title>
<path fill="none" stroke="black" d="M992.21,-339.1C1023.25,-324.36 1058.59,-307.57 1090.12,-292.59"/>
<polygon fill="black" stroke="black" points="1091.32,-295.9 1098.85,-288.45 1088.31,-289.58 1091.32,-295.9"/>
</g>
<!-- 11780 -->
<g id="node19" class="node">
<title>11780</title>
<path fill="#f5cfb4" stroke="black" d="M891,-166.25C891,-166.25 749,-166.25 749,-166.25 743,-166.25 737,-160.25 737,-154.25 737,-154.25 737,-84 737,-84 737,-78 743,-72 749,-72 749,-72 891,-72 891,-72 897,-72 903,-78 903,-84 903,-84 903,-154.25 903,-154.25 903,-160.25 897,-166.25 891,-166.25"/>
<text text-anchor="middle" x="820" y="-148.95" font-family="Helvetica,sans-Serif" font-size="14.00">2_U &lt;= 0.5</text>
<text text-anchor="middle" x="820" y="-131.7" font-family="Helvetica,sans-Serif" font-size="14.00">entropy = 0.96</text>
<text text-anchor="middle" x="820" y="-114.45" font-family="Helvetica,sans-Serif" font-size="14.00">samples = 5955</text>
<text text-anchor="middle" x="820" y="-97.2" font-family="Helvetica,sans-Serif" font-size="14.00">value = [5840, 3616]</text>
<text text-anchor="middle" x="820" y="-79.95" font-family="Helvetica,sans-Serif" font-size="14.00">class = Animal</text>
</g>
<!-- 11779&#45;&gt;11780 -->
<g id="edge18" class="edge">
<title>11779&#45;&gt;11780</title>
<path fill="none" stroke="black" d="M876.87,-202.07C870.95,-193.54 864.7,-184.54 858.61,-175.77"/>
<polygon fill="black" stroke="black" points="861.52,-173.82 852.95,-167.6 855.77,-177.81 861.52,-173.82"/>
</g>
<!-- 14837 -->
<g id="node22" class="node">
<title>14837</title>
<path fill="#9ccef2" stroke="black" d="M1075,-166.25C1075,-166.25 933,-166.25 933,-166.25 927,-166.25 921,-160.25 921,-154.25 921,-154.25 921,-84 921,-84 921,-78 927,-72 933,-72 933,-72 1075,-72 1075,-72 1081,-72 1087,-78 1087,-84 1087,-84 1087,-154.25 1087,-154.25 1087,-160.25 1081,-166.25 1075,-166.25"/>
<text text-anchor="middle" x="1004" y="-148.95" font-family="Helvetica,sans-Serif" font-size="14.00">8_A &lt;= 0.5</text>
<text text-anchor="middle" x="1004" y="-131.7" font-family="Helvetica,sans-Serif" font-size="14.00">entropy = 0.918</text>
<text text-anchor="middle" x="1004" y="-114.45" font-family="Helvetica,sans-Serif" font-size="14.00">samples = 3247</text>
<text text-anchor="middle" x="1004" y="-97.2" font-family="Helvetica,sans-Serif" font-size="14.00">value = [1726, 3457]</text>
<text text-anchor="middle" x="1004" y="-79.95" font-family="Helvetica,sans-Serif" font-size="14.00">class = Plant</text>
</g>
<!-- 11779&#45;&gt;14837 -->
<g id="edge21" class="edge">
<title>11779&#45;&gt;14837</title>
<path fill="none" stroke="black" d="M943.3,-202.07C949.69,-193.45 956.42,-184.35 962.99,-175.49"/>
<polygon fill="black" stroke="black" points="965.71,-177.69 968.85,-167.57 960.09,-173.53 965.71,-177.69"/>
</g>
<!-- 11781 -->
<g id="node20" class="node">
<title>11781</title>
<path fill="#c0c0c0" stroke="black" d="M783,-36C783,-36 753,-36 753,-36 747,-36 741,-30 741,-24 741,-24 741,-12 741,-12 741,-6 747,0 753,0 753,0 783,0 783,0 789,0 795,-6 795,-12 795,-12 795,-24 795,-24 795,-30 789,-36 783,-36"/>
<text text-anchor="middle" x="768" y="-13.32" font-family="Helvetica,sans-Serif" font-size="14.00">(...)</text>
</g>
<!-- 11780&#45;&gt;11781 -->
<g id="edge19" class="edge">
<title>11780&#45;&gt;11781</title>
<path fill="none" stroke="black" d="M795.67,-71.75C791.1,-63.03 786.45,-54.16 782.3,-46.26"/>
<polygon fill="black" stroke="black" points="785.46,-44.74 777.71,-37.51 779.26,-47.99 785.46,-44.74"/>
</g>
<!-- 14060 -->
<g id="node21" class="node">
<title>14060</title>
<path fill="#c0c0c0" stroke="black" d="M855,-36C855,-36 825,-36 825,-36 819,-36 813,-30 813,-24 813,-24 813,-12 813,-12 813,-6 819,0 825,0 825,0 855,0 855,0 861,0 867,-6 867,-12 867,-12 867,-24 867,-24 867,-30 861,-36 855,-36"/>
<text text-anchor="middle" x="840" y="-13.32" font-family="Helvetica,sans-Serif" font-size="14.00">(...)</text>
</g>
<!-- 11780&#45;&gt;14060 -->
<g id="edge20" class="edge">
<title>11780&#45;&gt;14060</title>
<path fill="none" stroke="black" d="M829.36,-71.75C831.04,-63.42 832.74,-54.97 834.28,-47.34"/>
<polygon fill="black" stroke="black" points="837.69,-48.15 836.24,-37.66 830.83,-46.77 837.69,-48.15"/>
</g>
<!-- 14838 -->
<g id="node23" class="node">
<title>14838</title>
<path fill="#c0c0c0" stroke="black" d="M962,-36C962,-36 932,-36 932,-36 926,-36 920,-30 920,-24 920,-24 920,-12 920,-12 920,-6 926,0 932,0 932,0 962,0 962,0 968,0 974,-6 974,-12 974,-12 974,-24 974,-24 974,-30 968,-36 962,-36"/>
<text text-anchor="middle" x="947" y="-13.32" font-family="Helvetica,sans-Serif" font-size="14.00">(...)</text>
</g>
<!-- 14837&#45;&gt;14838 -->
<g id="edge22" class="edge">
<title>14837&#45;&gt;14838</title>
<path fill="none" stroke="black" d="M977.34,-71.75C972.26,-62.93 967.1,-53.96 962.52,-45.99"/>
<polygon fill="black" stroke="black" points="965.65,-44.41 957.63,-37.48 959.58,-47.9 965.65,-44.41"/>
</g>
<!-- 15695 -->
<g id="node24" class="node">
<title>15695</title>
<path fill="#c0c0c0" stroke="black" d="M1034,-36C1034,-36 1004,-36 1004,-36 998,-36 992,-30 992,-24 992,-24 992,-12 992,-12 992,-6 998,0 1004,0 1004,0 1034,0 1034,0 1040,0 1046,-6 1046,-12 1046,-12 1046,-24 1046,-24 1046,-30 1040,-36 1034,-36"/>
<text text-anchor="middle" x="1019" y="-13.32" font-family="Helvetica,sans-Serif" font-size="14.00">(...)</text>
</g>
<!-- 14837&#45;&gt;15695 -->
<g id="edge23" class="edge">
<title>14837&#45;&gt;15695</title>
<path fill="none" stroke="black" d="M1011.02,-71.75C1012.28,-63.42 1013.56,-54.97 1014.71,-47.34"/>
<polygon fill="black" stroke="black" points="1018.14,-48.08 1016.17,-37.67 1011.22,-47.03 1018.14,-48.08"/>
</g>
<!-- 15939 -->
<g id="node26" class="node">
<title>15939</title>
<path fill="#eeab7b" stroke="black" d="M1241,-166.25C1241,-166.25 1117,-166.25 1117,-166.25 1111,-166.25 1105,-160.25 1105,-154.25 1105,-154.25 1105,-84 1105,-84 1105,-78 1111,-72 1117,-72 1117,-72 1241,-72 1241,-72 1247,-72 1253,-78 1253,-84 1253,-84 1253,-154.25 1253,-154.25 1253,-160.25 1247,-166.25 1241,-166.25"/>
<text text-anchor="middle" x="1179" y="-148.95" font-family="Helvetica,sans-Serif" font-size="14.00">3_A &lt;= 0.5</text>
<text text-anchor="middle" x="1179" y="-131.7" font-family="Helvetica,sans-Serif" font-size="14.00">entropy = 0.811</text>
<text text-anchor="middle" x="1179" y="-114.45" font-family="Helvetica,sans-Serif" font-size="14.00">samples = 833</text>
<text text-anchor="middle" x="1179" y="-97.2" font-family="Helvetica,sans-Serif" font-size="14.00">value = [994, 331]</text>
<text text-anchor="middle" x="1179" y="-79.95" font-family="Helvetica,sans-Serif" font-size="14.00">class = Animal</text>
</g>
<!-- 15938&#45;&gt;15939 -->
<g id="edge25" class="edge">
<title>15938&#45;&gt;15939</title>
<path fill="none" stroke="black" d="M1179,-202.07C1179,-194.17 1179,-185.88 1179,-177.73"/>
<polygon fill="black" stroke="black" points="1182.5,-177.87 1179,-167.87 1175.5,-177.87 1182.5,-177.87"/>
</g>
<!-- 16340 -->
<g id="node29" class="node">
<title>16340</title>
<path fill="#f2c09c" stroke="black" d="M1407,-166.25C1407,-166.25 1283,-166.25 1283,-166.25 1277,-166.25 1271,-160.25 1271,-154.25 1271,-154.25 1271,-84 1271,-84 1271,-78 1277,-72 1283,-72 1283,-72 1407,-72 1407,-72 1413,-72 1419,-78 1419,-84 1419,-84 1419,-154.25 1419,-154.25 1419,-160.25 1413,-166.25 1407,-166.25"/>
<text text-anchor="middle" x="1345" y="-148.95" font-family="Helvetica,sans-Serif" font-size="14.00">14_G &lt;= 0.5</text>
<text text-anchor="middle" x="1345" y="-131.7" font-family="Helvetica,sans-Serif" font-size="14.00">entropy = 0.919</text>
<text text-anchor="middle" x="1345" y="-114.45" font-family="Helvetica,sans-Serif" font-size="14.00">samples = 211</text>
<text text-anchor="middle" x="1345" y="-97.2" font-family="Helvetica,sans-Serif" font-size="14.00">value = [229, 115]</text>
<text text-anchor="middle" x="1345" y="-79.95" font-family="Helvetica,sans-Serif" font-size="14.00">class = Animal</text>
</g>
<!-- 15938&#45;&gt;16340 -->
<g id="edge28" class="edge">
<title>15938&#45;&gt;16340</title>
<path fill="none" stroke="black" d="M1238.93,-202.07C1250.96,-192.78 1263.7,-182.94 1276.01,-173.43"/>
<polygon fill="black" stroke="black" points="1277.91,-176.38 1283.68,-167.5 1273.63,-170.84 1277.91,-176.38"/>
</g>
<!-- 15940 -->
<g id="node27" class="node">
<title>15940</title>
<path fill="#c0c0c0" stroke="black" d="M1151,-36C1151,-36 1121,-36 1121,-36 1115,-36 1109,-30 1109,-24 1109,-24 1109,-12 1109,-12 1109,-6 1115,0 1121,0 1121,0 1151,0 1151,0 1157,0 1163,-6 1163,-12 1163,-12 1163,-24 1163,-24 1163,-30 1157,-36 1151,-36"/>
<text text-anchor="middle" x="1136" y="-13.32" font-family="Helvetica,sans-Serif" font-size="14.00">(...)</text>
</g>
<!-- 15939&#45;&gt;15940 -->
<g id="edge26" class="edge">
<title>15939&#45;&gt;15940</title>
<path fill="none" stroke="black" d="M1158.88,-71.75C1155.14,-63.12 1151.34,-54.36 1147.94,-46.53"/>
<polygon fill="black" stroke="black" points="1151.24,-45.34 1144.05,-37.56 1144.82,-48.13 1151.24,-45.34"/>
</g>
<!-- 16265 -->
<g id="node28" class="node">
<title>16265</title>
<path fill="#c0c0c0" stroke="black" d="M1223,-36C1223,-36 1193,-36 1193,-36 1187,-36 1181,-30 1181,-24 1181,-24 1181,-12 1181,-12 1181,-6 1187,0 1193,0 1193,0 1223,0 1223,0 1229,0 1235,-6 1235,-12 1235,-12 1235,-24 1235,-24 1235,-30 1229,-36 1223,-36"/>
<text text-anchor="middle" x="1208" y="-13.32" font-family="Helvetica,sans-Serif" font-size="14.00">(...)</text>
</g>
<!-- 15939&#45;&gt;16265 -->
<g id="edge27" class="edge">
<title>15939&#45;&gt;16265</title>
<path fill="none" stroke="black" d="M1192.57,-71.75C1195.03,-63.32 1197.54,-54.77 1199.79,-47.07"/>
<polygon fill="black" stroke="black" points="1203.1,-48.21 1202.55,-37.63 1196.38,-46.24 1203.1,-48.21"/>
</g>
<!-- 16341 -->
<g id="node30" class="node">
<title>16341</title>
<path fill="#c0c0c0" stroke="black" d="M1324,-36C1324,-36 1294,-36 1294,-36 1288,-36 1282,-30 1282,-24 1282,-24 1282,-12 1282,-12 1282,-6 1288,0 1294,0 1294,0 1324,0 1324,0 1330,0 1336,-6 1336,-12 1336,-12 1336,-24 1336,-24 1336,-30 1330,-36 1324,-36"/>
<text text-anchor="middle" x="1309" y="-13.32" font-family="Helvetica,sans-Serif" font-size="14.00">(...)</text>
</g>
<!-- 16340&#45;&gt;16341 -->
<g id="edge29" class="edge">
<title>16340&#45;&gt;16341</title>
<path fill="none" stroke="black" d="M1328.16,-71.75C1325.06,-63.22 1321.92,-54.57 1319.1,-46.8"/>
<polygon fill="black" stroke="black" points="1322.46,-45.8 1315.75,-37.6 1315.88,-48.19 1322.46,-45.8"/>
</g>
<!-- 16438 -->
<g id="node31" class="node">
<title>16438</title>
<path fill="#c0c0c0" stroke="black" d="M1396,-36C1396,-36 1366,-36 1366,-36 1360,-36 1354,-30 1354,-24 1354,-24 1354,-12 1354,-12 1354,-6 1360,0 1366,0 1366,0 1396,0 1396,0 1402,0 1408,-6 1408,-12 1408,-12 1408,-24 1408,-24 1408,-30 1402,-36 1396,-36"/>
<text text-anchor="middle" x="1381" y="-13.32" font-family="Helvetica,sans-Serif" font-size="14.00">(...)</text>
</g>
<!-- 16340&#45;&gt;16438 -->
<g id="edge30" class="edge">
<title>16340&#45;&gt;16438</title>
<path fill="none" stroke="black" d="M1361.84,-71.75C1364.94,-63.22 1368.08,-54.57 1370.9,-46.8"/>
<polygon fill="black" stroke="black" points="1374.12,-48.19 1374.25,-37.6 1367.54,-45.8 1374.12,-48.19"/>
</g>
</g>
</svg>
