<?xml version="1.0" encoding="UTF-8" standalone="no"?>
<!DOCTYPE svg PUBLIC "-//W3C//DTD SVG 1.1//EN"
 "http://www.w3.org/Graphics/SVG/1.1/DTD/svg11.dtd">
<!-- Generated by graphviz version 12.0.0 (20240803.0821)
 -->
<!-- Title: Tree Pages: 1 -->
<svg width="1419pt" height="565pt"
 viewBox="0.00 0.00 1418.50 565.00" xmlns="http://www.w3.org/2000/svg" xmlns:xlink="http://www.w3.org/1999/xlink">
<g id="graph0" class="graph" transform="scale(1 1) rotate(0) translate(4 561)">
<title>Tree</title>
<polygon fill="white" stroke="none" points="-4,4 -4,-561 1414.5,-561 1414.5,4 -4,4"/>
<!-- 0 -->
<g id="node1" class="node">
<title>0</title>
<path fill="#fffffe" stroke="black" d="M802.5,-557C802.5,-557 642.5,-557 642.5,-557 636.5,-557 630.5,-551 630.5,-545 630.5,-545 630.5,-474.75 630.5,-474.75 630.5,-468.75 636.5,-462.75 642.5,-462.75 642.5,-462.75 802.5,-462.75 802.5,-462.75 808.5,-462.75 814.5,-468.75 814.5,-474.75 814.5,-474.75 814.5,-545 814.5,-545 814.5,-551 808.5,-557 802.5,-557"/>
<text text-anchor="middle" x="722.5" y="-539.7" font-family="Helvetica,sans-Serif" font-size="14.00">8_C &lt;= 0.5</text>
<text text-anchor="middle" x="722.5" y="-522.45" font-family="Helvetica,sans-Serif" font-size="14.00">entropy = 1.0</text>
<text text-anchor="middle" x="722.5" y="-505.2" font-family="Helvetica,sans-Serif" font-size="14.00">samples = 38116</text>
<text text-anchor="middle" x="722.5" y="-487.95" font-family="Helvetica,sans-Serif" font-size="14.00">value = [30232, 30113]</text>
<text text-anchor="middle" x="722.5" y="-470.7" font-family="Helvetica,sans-Serif" font-size="14.00">class = Animal</text>
</g>
<!-- 1 -->
<g id="node2" class="node">
<title>1</title>
<path fill="#eef7fd" stroke="black" d="M629.5,-426.75C629.5,-426.75 469.5,-426.75 469.5,-426.75 463.5,-426.75 457.5,-420.75 457.5,-414.75 457.5,-414.75 457.5,-344.5 457.5,-344.5 457.5,-338.5 463.5,-332.5 469.5,-332.5 469.5,-332.5 629.5,-332.5 629.5,-332.5 635.5,-332.5 641.5,-338.5 641.5,-344.5 641.5,-344.5 641.5,-414.75 641.5,-414.75 641.5,-420.75 635.5,-426.75 629.5,-426.75"/>
<text text-anchor="middle" x="549.5" y="-409.45" font-family="Helvetica,sans-Serif" font-size="14.00">22_U &lt;= 0.5</text>
<text text-anchor="middle" x="549.5" y="-392.2" font-family="Helvetica,sans-Serif" font-size="14.00">entropy = 0.999</text>
<text text-anchor="middle" x="549.5" y="-374.95" font-family="Helvetica,sans-Serif" font-size="14.00">samples = 30559</text>
<text text-anchor="middle" x="549.5" y="-357.7" font-family="Helvetica,sans-Serif" font-size="14.00">value = [23189, 25312]</text>
<text text-anchor="middle" x="549.5" y="-340.45" font-family="Helvetica,sans-Serif" font-size="14.00">class = Plant</text>
</g>
<!-- 0&#45;&gt;1 -->
<g id="edge1" class="edge">
<title>0&#45;&gt;1</title>
<path fill="none" stroke="black" d="M660.04,-462.57C647.5,-453.28 634.23,-443.44 621.4,-433.93"/>
<polygon fill="black" stroke="black" points="623.49,-431.12 613.37,-427.97 619.32,-436.74 623.49,-431.12"/>
<text text-anchor="middle" x="615.83" y="-447.13" font-family="Helvetica,sans-Serif" font-size="14.00">True</text>
</g>
<!-- 13064 -->
<g id="node17" class="node">
<title>13064</title>
<path fill="#f7d7c0" stroke="black" d="M971.5,-426.75C971.5,-426.75 829.5,-426.75 829.5,-426.75 823.5,-426.75 817.5,-420.75 817.5,-414.75 817.5,-414.75 817.5,-344.5 817.5,-344.5 817.5,-338.5 823.5,-332.5 829.5,-332.5 829.5,-332.5 971.5,-332.5 971.5,-332.5 977.5,-332.5 983.5,-338.5 983.5,-344.5 983.5,-344.5 983.5,-414.75 983.5,-414.75 983.5,-420.75 977.5,-426.75 971.5,-426.75"/>
<text text-anchor="middle" x="900.5" y="-409.45" font-family="Helvetica,sans-Serif" font-size="14.00">16_A &lt;= 0.5</text>
<text text-anchor="middle" x="900.5" y="-392.2" font-family="Helvetica,sans-Serif" font-size="14.00">entropy = 0.974</text>
<text text-anchor="middle" x="900.5" y="-374.95" font-family="Helvetica,sans-Serif" font-size="14.00">samples = 7557</text>
<text text-anchor="middle" x="900.5" y="-357.7" font-family="Helvetica,sans-Serif" font-size="14.00">value = [7043, 4801]</text>
<text text-anchor="middle" x="900.5" y="-340.45" font-family="Helvetica,sans-Serif" font-size="14.00">class = Animal</text>
</g>
<!-- 0&#45;&gt;13064 -->
<g id="edge16" class="edge">
<title>0&#45;&gt;13064</title>
<path fill="none" stroke="black" d="M787.01,-462.39C799.95,-453.07 813.63,-443.22 826.85,-433.69"/>
<polygon fill="black" stroke="black" points="828.61,-436.73 834.68,-428.05 824.52,-431.06 828.61,-436.73"/>
<text text-anchor="middle" x="831.9" y="-447.17" font-family="Helvetica,sans-Serif" font-size="14.00">False</text>
</g>
<!-- 2 -->
<g id="node3" class="node">
<title>2</title>
<path fill="#cde6f8" stroke="black" d="M360.5,-296.5C360.5,-296.5 200.5,-296.5 200.5,-296.5 194.5,-296.5 188.5,-290.5 188.5,-284.5 188.5,-284.5 188.5,-214.25 188.5,-214.25 188.5,-208.25 194.5,-202.25 200.5,-202.25 200.5,-202.25 360.5,-202.25 360.5,-202.25 366.5,-202.25 372.5,-208.25 372.5,-214.25 372.5,-214.25 372.5,-284.5 372.5,-284.5 372.5,-290.5 366.5,-296.5 360.5,-296.5"/>
<text text-anchor="middle" x="280.5" y="-279.2" font-family="Helvetica,sans-Serif" font-size="14.00">1_U &lt;= 0.5</text>
<text text-anchor="middle" x="280.5" y="-261.95" font-family="Helvetica,sans-Serif" font-size="14.00">entropy = 0.985</text>
<text text-anchor="middle" x="280.5" y="-244.7" font-family="Helvetica,sans-Serif" font-size="14.00">samples = 26576</text>
<text text-anchor="middle" x="280.5" y="-227.45" font-family="Helvetica,sans-Serif" font-size="14.00">value = [18106, 24145]</text>
<text text-anchor="middle" x="280.5" y="-210.2" font-family="Helvetica,sans-Serif" font-size="14.00">class = Plant</text>
</g>
<!-- 1&#45;&gt;2 -->
<g id="edge2" class="edge">
<title>1&#45;&gt;2</title>
<path fill="none" stroke="black" d="M457.3,-334.67C433.35,-323.25 407.4,-310.88 382.95,-299.22"/>
<polygon fill="black" stroke="black" points="384.48,-296.07 373.94,-294.93 381.46,-302.39 384.48,-296.07"/>
</g>
<!-- 11537 -->
<g id="node10" class="node">
<title>11537</title>
<path fill="#eb9e66" stroke="black" d="M620.5,-296.5C620.5,-296.5 478.5,-296.5 478.5,-296.5 472.5,-296.5 466.5,-290.5 466.5,-284.5 466.5,-284.5 466.5,-214.25 466.5,-214.25 466.5,-208.25 472.5,-202.25 478.5,-202.25 478.5,-202.25 620.5,-202.25 620.5,-202.25 626.5,-202.25 632.5,-208.25 632.5,-214.25 632.5,-214.25 632.5,-284.5 632.5,-284.5 632.5,-290.5 626.5,-296.5 620.5,-296.5"/>
<text text-anchor="middle" x="549.5" y="-279.2" font-family="Helvetica,sans-Serif" font-size="14.00">21_U &lt;= 0.5</text>
<text text-anchor="middle" x="549.5" y="-261.95" font-family="Helvetica,sans-Serif" font-size="14.00">entropy = 0.695</text>
<text text-anchor="middle" x="549.5" y="-244.7" font-family="Helvetica,sans-Serif" font-size="14.00">samples = 3983</text>
<text text-anchor="middle" x="549.5" y="-227.45" font-family="Helvetica,sans-Serif" font-size="14.00">value = [5083, 1167]</text>
<text text-anchor="middle" x="549.5" y="-210.2" font-family="Helvetica,sans-Serif" font-size="14.00">class = Animal</text>
</g>
<!-- 1&#45;&gt;11537 -->
<g id="edge9" class="edge">
<title>1&#45;&gt;11537</title>
<path fill="none" stroke="black" d="M549.5,-332.32C549.5,-324.42 549.5,-316.13 549.5,-307.98"/>
<polygon fill="black" stroke="black" points="553,-308.12 549.5,-298.12 546,-308.12 553,-308.12"/>
</g>
<!-- 3 -->
<g id="node4" class="node">
<title>3</title>
<path fill="#fdf3ec" stroke="black" d="M163,-166.25C163,-166.25 12,-166.25 12,-166.25 6,-166.25 0,-160.25 0,-154.25 0,-154.25 0,-84 0,-84 0,-78 6,-72 12,-72 12,-72 163,-72 163,-72 169,-72 175,-78 175,-84 175,-84 175,-154.25 175,-154.25 175,-160.25 169,-166.25 163,-166.25"/>
<text text-anchor="middle" x="87.5" y="-148.95" font-family="Helvetica,sans-Serif" font-size="14.00">10_A &lt;= 0.5</text>
<text text-anchor="middle" x="87.5" y="-131.7" font-family="Helvetica,sans-Serif" font-size="14.00">entropy = 0.998</text>
<text text-anchor="middle" x="87.5" y="-114.45" font-family="Helvetica,sans-Serif" font-size="14.00">samples = 12066</text>
<text text-anchor="middle" x="87.5" y="-97.2" font-family="Helvetica,sans-Serif" font-size="14.00">value = [10104, 9146]</text>
<text text-anchor="middle" x="87.5" y="-79.95" font-family="Helvetica,sans-Serif" font-size="14.00">class = Animal</text>
</g>
<!-- 2&#45;&gt;3 -->
<g id="edge3" class="edge">
<title>2&#45;&gt;3</title>
<path fill="none" stroke="black" d="M210.55,-201.89C196.39,-192.48 181.4,-182.53 166.95,-172.92"/>
<polygon fill="black" stroke="black" points="169.06,-170.12 158.8,-167.5 165.19,-175.95 169.06,-170.12"/>
</g>
<!-- 6470 -->
<g id="node7" class="node">
<title>6470</title>
<path fill="#a3d1f3" stroke="black" d="M356,-166.25C356,-166.25 205,-166.25 205,-166.25 199,-166.25 193,-160.25 193,-154.25 193,-154.25 193,-84 193,-84 193,-78 199,-72 205,-72 205,-72 356,-72 356,-72 362,-72 368,-78 368,-84 368,-84 368,-154.25 368,-154.25 368,-160.25 362,-166.25 356,-166.25"/>
<text text-anchor="middle" x="280.5" y="-148.95" font-family="Helvetica,sans-Serif" font-size="14.00">22_G &lt;= 0.5</text>
<text text-anchor="middle" x="280.5" y="-131.7" font-family="Helvetica,sans-Serif" font-size="14.00">entropy = 0.932</text>
<text text-anchor="middle" x="280.5" y="-114.45" font-family="Helvetica,sans-Serif" font-size="14.00">samples = 14510</text>
<text text-anchor="middle" x="280.5" y="-97.2" font-family="Helvetica,sans-Serif" font-size="14.00">value = [8002, 14999]</text>
<text text-anchor="middle" x="280.5" y="-79.95" font-family="Helvetica,sans-Serif" font-size="14.00">class = Plant</text>
</g>
<!-- 2&#45;&gt;6470 -->
<g id="edge6" class="edge">
<title>2&#45;&gt;6470</title>
<path fill="none" stroke="black" d="M280.5,-202.07C280.5,-194.17 280.5,-185.88 280.5,-177.73"/>
<polygon fill="black" stroke="black" points="284,-177.87 280.5,-167.87 277,-177.87 284,-177.87"/>
</g>
<!-- 4 -->
<g id="node5" class="node">
<title>4</title>
<path fill="#c0c0c0" stroke="black" d="M66.5,-36C66.5,-36 36.5,-36 36.5,-36 30.5,-36 24.5,-30 24.5,-24 24.5,-24 24.5,-12 24.5,-12 24.5,-6 30.5,0 36.5,0 36.5,0 66.5,0 66.5,0 72.5,0 78.5,-6 78.5,-12 78.5,-12 78.5,-24 78.5,-24 78.5,-30 72.5,-36 66.5,-36"/>
<text text-anchor="middle" x="51.5" y="-13.32" font-family="Helvetica,sans-Serif" font-size="14.00">(...)</text>
</g>
<!-- 3&#45;&gt;4 -->
<g id="edge4" class="edge">
<title>3&#45;&gt;4</title>
<path fill="none" stroke="black" d="M70.66,-71.75C67.56,-63.22 64.42,-54.57 61.6,-46.8"/>
<polygon fill="black" stroke="black" points="64.96,-45.8 58.25,-37.6 58.38,-48.19 64.96,-45.8"/>
</g>
<!-- 4933 -->
<g id="node6" class="node">
<title>4933</title>
<path fill="#c0c0c0" stroke="black" d="M138.5,-36C138.5,-36 108.5,-36 108.5,-36 102.5,-36 96.5,-30 96.5,-24 96.5,-24 96.5,-12 96.5,-12 96.5,-6 102.5,0 108.5,0 108.5,0 138.5,0 138.5,0 144.5,0 150.5,-6 150.5,-12 150.5,-12 150.5,-24 150.5,-24 150.5,-30 144.5,-36 138.5,-36"/>
<text text-anchor="middle" x="123.5" y="-13.32" font-family="Helvetica,sans-Serif" font-size="14.00">(...)</text>
</g>
<!-- 3&#45;&gt;4933 -->
<g id="edge5" class="edge">
<title>3&#45;&gt;4933</title>
<path fill="none" stroke="black" d="M104.34,-71.75C107.44,-63.22 110.58,-54.57 113.4,-46.8"/>
<polygon fill="black" stroke="black" points="116.62,-48.19 116.75,-37.6 110.04,-45.8 116.62,-48.19"/>
</g>
<!-- 6471 -->
<g id="node8" class="node">
<title>6471</title>
<path fill="#c0c0c0" stroke="black" d="M258.5,-36C258.5,-36 228.5,-36 228.5,-36 222.5,-36 216.5,-30 216.5,-24 216.5,-24 216.5,-12 216.5,-12 216.5,-6 222.5,0 228.5,0 228.5,0 258.5,0 258.5,0 264.5,0 270.5,-6 270.5,-12 270.5,-12 270.5,-24 270.5,-24 270.5,-30 264.5,-36 258.5,-36"/>
<text text-anchor="middle" x="243.5" y="-13.32" font-family="Helvetica,sans-Serif" font-size="14.00">(...)</text>
</g>
<!-- 6470&#45;&gt;6471 -->
<g id="edge7" class="edge">
<title>6470&#45;&gt;6471</title>
<path fill="none" stroke="black" d="M263.19,-71.75C260.01,-63.22 256.78,-54.57 253.88,-46.8"/>
<polygon fill="black" stroke="black" points="257.22,-45.74 250.44,-37.59 250.66,-48.18 257.22,-45.74"/>
</g>
<!-- 10838 -->
<g id="node9" class="node">
<title>10838</title>
<path fill="#c0c0c0" stroke="black" d="M330.5,-36C330.5,-36 300.5,-36 300.5,-36 294.5,-36 288.5,-30 288.5,-24 288.5,-24 288.5,-12 288.5,-12 288.5,-6 294.5,0 300.5,0 300.5,0 330.5,0 330.5,0 336.5,0 342.5,-6 342.5,-12 342.5,-12 342.5,-24 342.5,-24 342.5,-30 336.5,-36 330.5,-36"/>
<text text-anchor="middle" x="315.5" y="-13.32" font-family="Helvetica,sans-Serif" font-size="14.00">(...)</text>
</g>
<!-- 6470&#45;&gt;10838 -->
<g id="edge8" class="edge">
<title>6470&#45;&gt;10838</title>
<path fill="none" stroke="black" d="M296.87,-71.75C299.89,-63.22 302.94,-54.57 305.68,-46.8"/>
<polygon fill="black" stroke="black" points="308.9,-48.19 308.93,-37.6 302.3,-45.86 308.9,-48.19"/>
</g>
<!-- 11538 -->
<g id="node11" class="node">
<title>11538</title>
<path fill="#eca26c" stroke="black" d="M531,-166.25C531,-166.25 398,-166.25 398,-166.25 392,-166.25 386,-160.25 386,-154.25 386,-154.25 386,-84 386,-84 386,-78 392,-72 398,-72 398,-72 531,-72 531,-72 537,-72 543,-78 543,-84 543,-84 543,-154.25 543,-154.25 543,-160.25 537,-166.25 531,-166.25"/>
<text text-anchor="middle" x="464.5" y="-148.95" font-family="Helvetica,sans-Serif" font-size="14.00">5_A &lt;= 0.5</text>
<text text-anchor="middle" x="464.5" y="-131.7" font-family="Helvetica,sans-Serif" font-size="14.00">entropy = 0.732</text>
<text text-anchor="middle" x="464.5" y="-114.45" font-family="Helvetica,sans-Serif" font-size="14.00">samples = 2870</text>
<text text-anchor="middle" x="464.5" y="-97.2" font-family="Helvetica,sans-Serif" font-size="14.00">value = [3589, 927]</text>
<text text-anchor="middle" x="464.5" y="-79.95" font-family="Helvetica,sans-Serif" font-size="14.00">class = Animal</text>
</g>
<!-- 11537&#45;&gt;11538 -->
<g id="edge10" class="edge">
<title>11537&#45;&gt;11538</title>
<path fill="none" stroke="black" d="M518.81,-202.07C513.16,-193.54 507.2,-184.54 501.38,-175.77"/>
<polygon fill="black" stroke="black" points="504.42,-174.02 495.98,-167.62 498.59,-177.89 504.42,-174.02"/>
</g>
<!-- 12681 -->
<g id="node14" class="node">
<title>12681</title>
<path fill="#e99559" stroke="black" d="M706,-166.25C706,-166.25 573,-166.25 573,-166.25 567,-166.25 561,-160.25 561,-154.25 561,-154.25 561,-84 561,-84 561,-78 567,-72 573,-72 573,-72 706,-72 706,-72 712,-72 718,-78 718,-84 718,-84 718,-154.25 718,-154.25 718,-160.25 712,-166.25 706,-166.25"/>
<text text-anchor="middle" x="639.5" y="-148.95" font-family="Helvetica,sans-Serif" font-size="14.00">16_U &lt;= 0.5</text>
<text text-anchor="middle" x="639.5" y="-131.7" font-family="Helvetica,sans-Serif" font-size="14.00">entropy = 0.58</text>
<text text-anchor="middle" x="639.5" y="-114.45" font-family="Helvetica,sans-Serif" font-size="14.00">samples = 1113</text>
<text text-anchor="middle" x="639.5" y="-97.2" font-family="Helvetica,sans-Serif" font-size="14.00">value = [1494, 240]</text>
<text text-anchor="middle" x="639.5" y="-79.95" font-family="Helvetica,sans-Serif" font-size="14.00">class = Animal</text>
</g>
<!-- 11537&#45;&gt;12681 -->
<g id="edge13" class="edge">
<title>11537&#45;&gt;12681</title>
<path fill="none" stroke="black" d="M581.99,-202.07C587.98,-193.54 594.29,-184.54 600.45,-175.77"/>
<polygon fill="black" stroke="black" points="603.31,-177.79 606.19,-167.6 597.58,-173.77 603.31,-177.79"/>
</g>
<!-- 11539 -->
<g id="node12" class="node">
<title>11539</title>
<path fill="#c0c0c0" stroke="black" d="M422.5,-36C422.5,-36 392.5,-36 392.5,-36 386.5,-36 380.5,-30 380.5,-24 380.5,-24 380.5,-12 380.5,-12 380.5,-6 386.5,0 392.5,0 392.5,0 422.5,0 422.5,0 428.5,0 434.5,-6 434.5,-12 434.5,-12 434.5,-24 434.5,-24 434.5,-30 428.5,-36 422.5,-36"/>
<text text-anchor="middle" x="407.5" y="-13.32" font-family="Helvetica,sans-Serif" font-size="14.00">(...)</text>
</g>
<!-- 11538&#45;&gt;11539 -->
<g id="edge11" class="edge">
<title>11538&#45;&gt;11539</title>
<path fill="none" stroke="black" d="M437.84,-71.75C432.76,-62.93 427.6,-53.96 423.02,-45.99"/>
<polygon fill="black" stroke="black" points="426.15,-44.41 418.13,-37.48 420.08,-47.9 426.15,-44.41"/>
</g>
<!-- 12432 -->
<g id="node13" class="node">
<title>12432</title>
<path fill="#c0c0c0" stroke="black" d="M494.5,-36C494.5,-36 464.5,-36 464.5,-36 458.5,-36 452.5,-30 452.5,-24 452.5,-24 452.5,-12 452.5,-12 452.5,-6 458.5,0 464.5,0 464.5,0 494.5,0 494.5,0 500.5,0 506.5,-6 506.5,-12 506.5,-12 506.5,-24 506.5,-24 506.5,-30 500.5,-36 494.5,-36"/>
<text text-anchor="middle" x="479.5" y="-13.32" font-family="Helvetica,sans-Serif" font-size="14.00">(...)</text>
</g>
<!-- 11538&#45;&gt;12432 -->
<g id="edge12" class="edge">
<title>11538&#45;&gt;12432</title>
<path fill="none" stroke="black" d="M471.52,-71.75C472.78,-63.42 474.06,-54.97 475.21,-47.34"/>
<polygon fill="black" stroke="black" points="478.64,-48.08 476.67,-37.67 471.72,-47.03 478.64,-48.08"/>
</g>
<!-- 12682 -->
<g id="node15" class="node">
<title>12682</title>
<path fill="#c0c0c0" stroke="black" d="M600.5,-36C600.5,-36 570.5,-36 570.5,-36 564.5,-36 558.5,-30 558.5,-24 558.5,-24 558.5,-12 558.5,-12 558.5,-6 564.5,0 570.5,0 570.5,0 600.5,0 600.5,0 606.5,0 612.5,-6 612.5,-12 612.5,-12 612.5,-24 612.5,-24 612.5,-30 606.5,-36 600.5,-36"/>
<text text-anchor="middle" x="585.5" y="-13.32" font-family="Helvetica,sans-Serif" font-size="14.00">(...)</text>
</g>
<!-- 12681&#45;&gt;12682 -->
<g id="edge14" class="edge">
<title>12681&#45;&gt;12682</title>
<path fill="none" stroke="black" d="M614.24,-71.75C609.48,-63.03 604.66,-54.16 600.35,-46.26"/>
<polygon fill="black" stroke="black" points="603.44,-44.61 595.58,-37.5 597.29,-47.96 603.44,-44.61"/>
</g>
<!-- 12957 -->
<g id="node16" class="node">
<title>12957</title>
<path fill="#c0c0c0" stroke="black" d="M672.5,-36C672.5,-36 642.5,-36 642.5,-36 636.5,-36 630.5,-30 630.5,-24 630.5,-24 630.5,-12 630.5,-12 630.5,-6 636.5,0 642.5,0 642.5,0 672.5,0 672.5,0 678.5,0 684.5,-6 684.5,-12 684.5,-12 684.5,-24 684.5,-24 684.5,-30 678.5,-36 672.5,-36"/>
<text text-anchor="middle" x="657.5" y="-13.32" font-family="Helvetica,sans-Serif" font-size="14.00">(...)</text>
</g>
<!-- 12681&#45;&gt;12957 -->
<g id="edge15" class="edge">
<title>12681&#45;&gt;12957</title>
<path fill="none" stroke="black" d="M647.92,-71.75C649.43,-63.42 650.97,-54.97 652.35,-47.34"/>
<polygon fill="black" stroke="black" points="655.77,-48.13 654.11,-37.66 648.88,-46.88 655.77,-48.13"/>
</g>
<!-- 13065 -->
<g id="node18" class="node">
<title>13065</title>
<path fill="#f5cdb0" stroke="black" d="M971.5,-296.5C971.5,-296.5 829.5,-296.5 829.5,-296.5 823.5,-296.5 817.5,-290.5 817.5,-284.5 817.5,-284.5 817.5,-214.25 817.5,-214.25 817.5,-208.25 823.5,-202.25 829.5,-202.25 829.5,-202.25 971.5,-202.25 971.5,-202.25 977.5,-202.25 983.5,-208.25 983.5,-214.25 983.5,-214.25 983.5,-284.5 983.5,-284.5 983.5,-290.5 977.5,-296.5 971.5,-296.5"/>
<text text-anchor="middle" x="900.5" y="-279.2" font-family="Helvetica,sans-Serif" font-size="14.00">22_A &lt;= 0.5</text>
<text text-anchor="middle" x="900.5" y="-261.95" font-family="Helvetica,sans-Serif" font-size="14.00">entropy = 0.954</text>
<text text-anchor="middle" x="900.5" y="-244.7" font-family="Helvetica,sans-Serif" font-size="14.00">samples = 5459</text>
<text text-anchor="middle" x="900.5" y="-227.45" font-family="Helvetica,sans-Serif" font-size="14.00">value = [5331, 3195]</text>
<text text-anchor="middle" x="900.5" y="-210.2" font-family="Helvetica,sans-Serif" font-size="14.00">class = Animal</text>
</g>
<!-- 13064&#45;&gt;13065 -->
<g id="edge17" class="edge">
<title>13064&#45;&gt;13065</title>
<path fill="none" stroke="black" d="M900.5,-332.32C900.5,-324.42 900.5,-316.13 900.5,-307.98"/>
<polygon fill="black" stroke="black" points="904,-308.12 900.5,-298.12 897,-308.12 904,-308.12"/>
</g>
<!-- 15890 -->
<g id="node25" class="node">
<title>15890</title>
<path fill="#fdf7f3" stroke="black" d="M1236.5,-296.5C1236.5,-296.5 1094.5,-296.5 1094.5,-296.5 1088.5,-296.5 1082.5,-290.5 1082.5,-284.5 1082.5,-284.5 1082.5,-214.25 1082.5,-214.25 1082.5,-208.25 1088.5,-202.25 1094.5,-202.25 1094.5,-202.25 1236.5,-202.25 1236.5,-202.25 1242.5,-202.25 1248.5,-208.25 1248.5,-214.25 1248.5,-214.25 1248.5,-284.5 1248.5,-284.5 1248.5,-290.5 1242.5,-296.5 1236.5,-296.5"/>
<text text-anchor="middle" x="1165.5" y="-279.2" font-family="Helvetica,sans-Serif" font-size="14.00">20_C &lt;= 0.5</text>
<text text-anchor="middle" x="1165.5" y="-261.95" font-family="Helvetica,sans-Serif" font-size="14.00">entropy = 0.999</text>
<text text-anchor="middle" x="1165.5" y="-244.7" font-family="Helvetica,sans-Serif" font-size="14.00">samples = 2098</text>
<text text-anchor="middle" x="1165.5" y="-227.45" font-family="Helvetica,sans-Serif" font-size="14.00">value = [1712, 1606]</text>
<text text-anchor="middle" x="1165.5" y="-210.2" font-family="Helvetica,sans-Serif" font-size="14.00">class = Animal</text>
</g>
<!-- 13064&#45;&gt;15890 -->
<g id="edge24" class="edge">
<title>13064&#45;&gt;15890</title>
<path fill="none" stroke="black" d="M983.98,-338.22C1012.08,-324.63 1043.59,-309.37 1072.38,-295.44"/>
<polygon fill="black" stroke="black" points="1073.6,-298.74 1081.07,-291.23 1070.55,-292.44 1073.6,-298.74"/>
</g>
<!-- 13066 -->
<g id="node19" class="node">
<title>13066</title>
<path fill="#f6d5bd" stroke="black" d="M890.5,-166.25C890.5,-166.25 748.5,-166.25 748.5,-166.25 742.5,-166.25 736.5,-160.25 736.5,-154.25 736.5,-154.25 736.5,-84 736.5,-84 736.5,-78 742.5,-72 748.5,-72 748.5,-72 890.5,-72 890.5,-72 896.5,-72 902.5,-78 902.5,-84 902.5,-84 902.5,-154.25 902.5,-154.25 902.5,-160.25 896.5,-166.25 890.5,-166.25"/>
<text text-anchor="middle" x="819.5" y="-148.95" font-family="Helvetica,sans-Serif" font-size="14.00">21_G &lt;= 0.5</text>
<text text-anchor="middle" x="819.5" y="-131.7" font-family="Helvetica,sans-Serif" font-size="14.00">entropy = 0.971</text>
<text text-anchor="middle" x="819.5" y="-114.45" font-family="Helvetica,sans-Serif" font-size="14.00">samples = 4666</text>
<text text-anchor="middle" x="819.5" y="-97.2" font-family="Helvetica,sans-Serif" font-size="14.00">value = [4351, 2904]</text>
<text text-anchor="middle" x="819.5" y="-79.95" font-family="Helvetica,sans-Serif" font-size="14.00">class = Animal</text>
</g>
<!-- 13065&#45;&gt;13066 -->
<g id="edge18" class="edge">
<title>13065&#45;&gt;13066</title>
<path fill="none" stroke="black" d="M871.26,-202.07C865.92,-193.63 860.31,-184.74 854.82,-176.05"/>
<polygon fill="black" stroke="black" points="857.81,-174.22 849.51,-167.64 851.89,-177.96 857.81,-174.22"/>
</g>
<!-- 15597 -->
<g id="node22" class="node">
<title>15597</title>
<path fill="#eda674" stroke="black" d="M1056.5,-166.25C1056.5,-166.25 932.5,-166.25 932.5,-166.25 926.5,-166.25 920.5,-160.25 920.5,-154.25 920.5,-154.25 920.5,-84 920.5,-84 920.5,-78 926.5,-72 932.5,-72 932.5,-72 1056.5,-72 1056.5,-72 1062.5,-72 1068.5,-78 1068.5,-84 1068.5,-84 1068.5,-154.25 1068.5,-154.25 1068.5,-160.25 1062.5,-166.25 1056.5,-166.25"/>
<text text-anchor="middle" x="994.5" y="-148.95" font-family="Helvetica,sans-Serif" font-size="14.00">6_U &lt;= 0.5</text>
<text text-anchor="middle" x="994.5" y="-131.7" font-family="Helvetica,sans-Serif" font-size="14.00">entropy = 0.776</text>
<text text-anchor="middle" x="994.5" y="-114.45" font-family="Helvetica,sans-Serif" font-size="14.00">samples = 793</text>
<text text-anchor="middle" x="994.5" y="-97.2" font-family="Helvetica,sans-Serif" font-size="14.00">value = [980, 291]</text>
<text text-anchor="middle" x="994.5" y="-79.95" font-family="Helvetica,sans-Serif" font-size="14.00">class = Animal</text>
</g>
<!-- 13065&#45;&gt;15597 -->
<g id="edge21" class="edge">
<title>13065&#45;&gt;15597</title>
<path fill="none" stroke="black" d="M934.44,-202.07C940.76,-193.45 947.42,-184.35 953.92,-175.49"/>
<polygon fill="black" stroke="black" points="956.63,-177.71 959.72,-167.58 950.98,-173.58 956.63,-177.71"/>
</g>
<!-- 13067 -->
<g id="node20" class="node">
<title>13067</title>
<path fill="#c0c0c0" stroke="black" d="M777.5,-36C777.5,-36 747.5,-36 747.5,-36 741.5,-36 735.5,-30 735.5,-24 735.5,-24 735.5,-12 735.5,-12 735.5,-6 741.5,0 747.5,0 747.5,0 777.5,0 777.5,0 783.5,0 789.5,-6 789.5,-12 789.5,-12 789.5,-24 789.5,-24 789.5,-30 783.5,-36 777.5,-36"/>
<text text-anchor="middle" x="762.5" y="-13.32" font-family="Helvetica,sans-Serif" font-size="14.00">(...)</text>
</g>
<!-- 13066&#45;&gt;13067 -->
<g id="edge19" class="edge">
<title>13066&#45;&gt;13067</title>
<path fill="none" stroke="black" d="M792.84,-71.75C787.76,-62.93 782.6,-53.96 778.02,-45.99"/>
<polygon fill="black" stroke="black" points="781.15,-44.41 773.13,-37.48 775.08,-47.9 781.15,-44.41"/>
</g>
<!-- 15066 -->
<g id="node21" class="node">
<title>15066</title>
<path fill="#c0c0c0" stroke="black" d="M849.5,-36C849.5,-36 819.5,-36 819.5,-36 813.5,-36 807.5,-30 807.5,-24 807.5,-24 807.5,-12 807.5,-12 807.5,-6 813.5,0 819.5,0 819.5,0 849.5,0 849.5,0 855.5,0 861.5,-6 861.5,-12 861.5,-12 861.5,-24 861.5,-24 861.5,-30 855.5,-36 849.5,-36"/>
<text text-anchor="middle" x="834.5" y="-13.32" font-family="Helvetica,sans-Serif" font-size="14.00">(...)</text>
</g>
<!-- 13066&#45;&gt;15066 -->
<g id="edge20" class="edge">
<title>13066&#45;&gt;15066</title>
<path fill="none" stroke="black" d="M826.52,-71.75C827.78,-63.42 829.06,-54.97 830.21,-47.34"/>
<polygon fill="black" stroke="black" points="833.64,-48.08 831.67,-37.67 826.72,-47.03 833.64,-48.08"/>
</g>
<!-- 15598 -->
<g id="node23" class="node">
<title>15598</title>
<path fill="#c0c0c0" stroke="black" d="M950.5,-36C950.5,-36 920.5,-36 920.5,-36 914.5,-36 908.5,-30 908.5,-24 908.5,-24 908.5,-12 908.5,-12 908.5,-6 914.5,0 920.5,0 920.5,0 950.5,0 950.5,0 956.5,0 962.5,-6 962.5,-12 962.5,-12 962.5,-24 962.5,-24 962.5,-30 956.5,-36 950.5,-36"/>
<text text-anchor="middle" x="935.5" y="-13.32" font-family="Helvetica,sans-Serif" font-size="14.00">(...)</text>
</g>
<!-- 15597&#45;&gt;15598 -->
<g id="edge22" class="edge">
<title>15597&#45;&gt;15598</title>
<path fill="none" stroke="black" d="M966.9,-71.75C961.65,-62.93 956.31,-53.96 951.56,-45.99"/>
<polygon fill="black" stroke="black" points="954.62,-44.28 946.5,-37.47 948.6,-47.86 954.62,-44.28"/>
</g>
<!-- 15831 -->
<g id="node24" class="node">
<title>15831</title>
<path fill="#c0c0c0" stroke="black" d="M1022.5,-36C1022.5,-36 992.5,-36 992.5,-36 986.5,-36 980.5,-30 980.5,-24 980.5,-24 980.5,-12 980.5,-12 980.5,-6 986.5,0 992.5,0 992.5,0 1022.5,0 1022.5,0 1028.5,0 1034.5,-6 1034.5,-12 1034.5,-12 1034.5,-24 1034.5,-24 1034.5,-30 1028.5,-36 1022.5,-36"/>
<text text-anchor="middle" x="1007.5" y="-13.32" font-family="Helvetica,sans-Serif" font-size="14.00">(...)</text>
</g>
<!-- 15597&#45;&gt;15831 -->
<g id="edge23" class="edge">
<title>15597&#45;&gt;15831</title>
<path fill="none" stroke="black" d="M1000.58,-71.75C1001.67,-63.42 1002.78,-54.97 1003.78,-47.34"/>
<polygon fill="black" stroke="black" points="1007.22,-48.04 1005.05,-37.67 1000.28,-47.13 1007.22,-48.04"/>
</g>
<!-- 15891 -->
<g id="node26" class="node">
<title>15891</title>
<path fill="#f3c6a5" stroke="black" d="M1232,-166.25C1232,-166.25 1099,-166.25 1099,-166.25 1093,-166.25 1087,-160.25 1087,-154.25 1087,-154.25 1087,-84 1087,-84 1087,-78 1093,-72 1099,-72 1099,-72 1232,-72 1232,-72 1238,-72 1244,-78 1244,-84 1244,-84 1244,-154.25 1244,-154.25 1244,-160.25 1238,-166.25 1232,-166.25"/>
<text text-anchor="middle" x="1165.5" y="-148.95" font-family="Helvetica,sans-Serif" font-size="14.00">7_A &lt;= 0.5</text>
<text text-anchor="middle" x="1165.5" y="-131.7" font-family="Helvetica,sans-Serif" font-size="14.00">entropy = 0.937</text>
<text text-anchor="middle" x="1165.5" y="-114.45" font-family="Helvetica,sans-Serif" font-size="14.00">samples = 1159</text>
<text text-anchor="middle" x="1165.5" y="-97.2" font-family="Helvetica,sans-Serif" font-size="14.00">value = [1179, 643]</text>
<text text-anchor="middle" x="1165.5" y="-79.95" font-family="Helvetica,sans-Serif" font-size="14.00">class = Animal</text>
</g>
<!-- 15890&#45;&gt;15891 -->
<g id="edge25" class="edge">
<title>15890&#45;&gt;15891</title>
<path fill="none" stroke="black" d="M1165.5,-202.07C1165.5,-194.17 1165.5,-185.88 1165.5,-177.73"/>
<polygon fill="black" stroke="black" points="1169,-177.87 1165.5,-167.87 1162,-177.87 1169,-177.87"/>
</g>
<!-- 16520 -->
<g id="node29" class="node">
<title>16520</title>
<path fill="#a7d3f3" stroke="black" d="M1398.5,-166.25C1398.5,-166.25 1274.5,-166.25 1274.5,-166.25 1268.5,-166.25 1262.5,-160.25 1262.5,-154.25 1262.5,-154.25 1262.5,-84 1262.5,-84 1262.5,-78 1268.5,-72 1274.5,-72 1274.5,-72 1398.5,-72 1398.5,-72 1404.5,-72 1410.5,-78 1410.5,-84 1410.5,-84 1410.5,-154.25 1410.5,-154.25 1410.5,-160.25 1404.5,-166.25 1398.5,-166.25"/>
<text text-anchor="middle" x="1336.5" y="-148.95" font-family="Helvetica,sans-Serif" font-size="14.00">4_C &lt;= 0.5</text>
<text text-anchor="middle" x="1336.5" y="-131.7" font-family="Helvetica,sans-Serif" font-size="14.00">entropy = 0.94</text>
<text text-anchor="middle" x="1336.5" y="-114.45" font-family="Helvetica,sans-Serif" font-size="14.00">samples = 939</text>
<text text-anchor="middle" x="1336.5" y="-97.2" font-family="Helvetica,sans-Serif" font-size="14.00">value = [533, 963]</text>
<text text-anchor="middle" x="1336.5" y="-79.95" font-family="Helvetica,sans-Serif" font-size="14.00">class = Plant</text>
</g>
<!-- 15890&#45;&gt;16520 -->
<g id="edge28" class="edge">
<title>15890&#45;&gt;16520</title>
<path fill="none" stroke="black" d="M1227.23,-202.07C1239.63,-192.78 1252.75,-182.94 1265.43,-173.43"/>
<polygon fill="black" stroke="black" points="1267.46,-176.28 1273.36,-167.48 1263.26,-170.68 1267.46,-176.28"/>
</g>
<!-- 15892 -->
<g id="node27" class="node">
<title>15892</title>
<path fill="#c0c0c0" stroke="black" d="M1139.5,-36C1139.5,-36 1109.5,-36 1109.5,-36 1103.5,-36 1097.5,-30 1097.5,-24 1097.5,-24 1097.5,-12 1097.5,-12 1097.5,-6 1103.5,0 1109.5,0 1109.5,0 1139.5,0 1139.5,0 1145.5,0 1151.5,-6 1151.5,-12 1151.5,-12 1151.5,-24 1151.5,-24 1151.5,-30 1145.5,-36 1139.5,-36"/>
<text text-anchor="middle" x="1124.5" y="-13.32" font-family="Helvetica,sans-Serif" font-size="14.00">(...)</text>
</g>
<!-- 15891&#45;&gt;15892 -->
<g id="edge26" class="edge">
<title>15891&#45;&gt;15892</title>
<path fill="none" stroke="black" d="M1146.32,-71.75C1142.79,-63.22 1139.21,-54.57 1136,-46.8"/>
<polygon fill="black" stroke="black" points="1139.24,-45.47 1132.18,-37.57 1132.77,-48.15 1139.24,-45.47"/>
</g>
<!-- 16325 -->
<g id="node28" class="node">
<title>16325</title>
<path fill="#c0c0c0" stroke="black" d="M1211.5,-36C1211.5,-36 1181.5,-36 1181.5,-36 1175.5,-36 1169.5,-30 1169.5,-24 1169.5,-24 1169.5,-12 1169.5,-12 1169.5,-6 1175.5,0 1181.5,0 1181.5,0 1211.5,0 1211.5,0 1217.5,0 1223.5,-6 1223.5,-12 1223.5,-12 1223.5,-24 1223.5,-24 1223.5,-30 1217.5,-36 1211.5,-36"/>
<text text-anchor="middle" x="1196.5" y="-13.32" font-family="Helvetica,sans-Serif" font-size="14.00">(...)</text>
</g>
<!-- 15891&#45;&gt;16325 -->
<g id="edge27" class="edge">
<title>15891&#45;&gt;16325</title>
<path fill="none" stroke="black" d="M1180,-71.75C1182.64,-63.32 1185.31,-54.77 1187.72,-47.07"/>
<polygon fill="black" stroke="black" points="1191.03,-48.21 1190.68,-37.62 1184.35,-46.12 1191.03,-48.21"/>
</g>
<!-- 16521 -->
<g id="node30" class="node">
<title>16521</title>
<path fill="#c0c0c0" stroke="black" d="M1315.5,-36C1315.5,-36 1285.5,-36 1285.5,-36 1279.5,-36 1273.5,-30 1273.5,-24 1273.5,-24 1273.5,-12 1273.5,-12 1273.5,-6 1279.5,0 1285.5,0 1285.5,0 1315.5,0 1315.5,0 1321.5,0 1327.5,-6 1327.5,-12 1327.5,-12 1327.5,-24 1327.5,-24 1327.5,-30 1321.5,-36 1315.5,-36"/>
<text text-anchor="middle" x="1300.5" y="-13.32" font-family="Helvetica,sans-Serif" font-size="14.00">(...)</text>
</g>
<!-- 16520&#45;&gt;16521 -->
<g id="edge29" class="edge">
<title>16520&#45;&gt;16521</title>
<path fill="none" stroke="black" d="M1319.66,-71.75C1316.56,-63.22 1313.42,-54.57 1310.6,-46.8"/>
<polygon fill="black" stroke="black" points="1313.96,-45.8 1307.25,-37.6 1307.38,-48.19 1313.96,-45.8"/>
</g>
<!-- 16716 -->
<g id="node31" class="node">
<title>16716</title>
<path fill="#c0c0c0" stroke="black" d="M1387.5,-36C1387.5,-36 1357.5,-36 1357.5,-36 1351.5,-36 1345.5,-30 1345.5,-24 1345.5,-24 1345.5,-12 1345.5,-12 1345.5,-6 1351.5,0 1357.5,0 1357.5,0 1387.5,0 1387.5,0 1393.5,0 1399.5,-6 1399.5,-12 1399.5,-12 1399.5,-24 1399.5,-24 1399.5,-30 1393.5,-36 1387.5,-36"/>
<text text-anchor="middle" x="1372.5" y="-13.32" font-family="Helvetica,sans-Serif" font-size="14.00">(...)</text>
</g>
<!-- 16520&#45;&gt;16716 -->
<g id="edge30" class="edge">
<title>16520&#45;&gt;16716</title>
<path fill="none" stroke="black" d="M1353.34,-71.75C1356.44,-63.22 1359.58,-54.57 1362.4,-46.8"/>
<polygon fill="black" stroke="black" points="1365.62,-48.19 1365.75,-37.6 1359.04,-45.8 1365.62,-48.19"/>
</g>
</g>
</svg>
