<?xml version="1.0" encoding="UTF-8" standalone="no"?>
<!DOCTYPE svg PUBLIC "-//W3C//DTD SVG 1.1//EN"
 "http://www.w3.org/Graphics/SVG/1.1/DTD/svg11.dtd">
<!-- Generated by graphviz version 12.0.0 (20240803.0821)
 -->
<!-- Title: Tree Pages: 1 -->
<svg width="1410pt" height="565pt"
 viewBox="0.00 0.00 1409.50 565.00" xmlns="http://www.w3.org/2000/svg" xmlns:xlink="http://www.w3.org/1999/xlink">
<g id="graph0" class="graph" transform="scale(1 1) rotate(0) translate(4 561)">
<title>Tree</title>
<polygon fill="white" stroke="none" points="-4,4 -4,-561 1405.5,-561 1405.5,4 -4,4"/>
<!-- 0 -->
<g id="node1" class="node">
<title>0</title>
<path fill="#ffffff" stroke="black" d="M784.5,-557C784.5,-557 624.5,-557 624.5,-557 618.5,-557 612.5,-551 612.5,-545 612.5,-545 612.5,-474.75 612.5,-474.75 612.5,-468.75 618.5,-462.75 624.5,-462.75 624.5,-462.75 784.5,-462.75 784.5,-462.75 790.5,-462.75 796.5,-468.75 796.5,-474.75 796.5,-474.75 796.5,-545 796.5,-545 796.5,-551 790.5,-557 784.5,-557"/>
<text text-anchor="middle" x="704.5" y="-539.7" font-family="Helvetica,sans-Serif" font-size="14.00">4_U &lt;= 0.5</text>
<text text-anchor="middle" x="704.5" y="-522.45" font-family="Helvetica,sans-Serif" font-size="14.00">entropy = 1.0</text>
<text text-anchor="middle" x="704.5" y="-505.2" font-family="Helvetica,sans-Serif" font-size="14.00">samples = 38215</text>
<text text-anchor="middle" x="704.5" y="-487.95" font-family="Helvetica,sans-Serif" font-size="14.00">value = [30187, 30158]</text>
<text text-anchor="middle" x="704.5" y="-470.7" font-family="Helvetica,sans-Serif" font-size="14.00">class = Animal</text>
</g>
<!-- 1 -->
<g id="node2" class="node">
<title>1</title>
<path fill="#f1f8fd" stroke="black" d="M618.5,-426.75C618.5,-426.75 458.5,-426.75 458.5,-426.75 452.5,-426.75 446.5,-420.75 446.5,-414.75 446.5,-414.75 446.5,-344.5 446.5,-344.5 446.5,-338.5 452.5,-332.5 458.5,-332.5 458.5,-332.5 618.5,-332.5 618.5,-332.5 624.5,-332.5 630.5,-338.5 630.5,-344.5 630.5,-344.5 630.5,-414.75 630.5,-414.75 630.5,-420.75 624.5,-426.75 618.5,-426.75"/>
<text text-anchor="middle" x="538.5" y="-409.45" font-family="Helvetica,sans-Serif" font-size="14.00">23_G &lt;= 0.5</text>
<text text-anchor="middle" x="538.5" y="-392.2" font-family="Helvetica,sans-Serif" font-size="14.00">entropy = 0.999</text>
<text text-anchor="middle" x="538.5" y="-374.95" font-family="Helvetica,sans-Serif" font-size="14.00">samples = 30454</text>
<text text-anchor="middle" x="538.5" y="-357.7" font-family="Helvetica,sans-Serif" font-size="14.00">value = [23213, 24938]</text>
<text text-anchor="middle" x="538.5" y="-340.45" font-family="Helvetica,sans-Serif" font-size="14.00">class = Plant</text>
</g>
<!-- 0&#45;&gt;1 -->
<g id="edge1" class="edge">
<title>0&#45;&gt;1</title>
<path fill="none" stroke="black" d="M644.57,-462.57C632.54,-453.28 619.8,-443.44 607.49,-433.93"/>
<polygon fill="black" stroke="black" points="609.87,-431.34 599.82,-428 605.59,-436.88 609.87,-431.34"/>
<text text-anchor="middle" x="601.8" y="-447.2" font-family="Helvetica,sans-Serif" font-size="14.00">True</text>
</g>
<!-- 12908 -->
<g id="node17" class="node">
<title>12908</title>
<path fill="#f8dfcd" stroke="black" d="M957.5,-426.75C957.5,-426.75 815.5,-426.75 815.5,-426.75 809.5,-426.75 803.5,-420.75 803.5,-414.75 803.5,-414.75 803.5,-344.5 803.5,-344.5 803.5,-338.5 809.5,-332.5 815.5,-332.5 815.5,-332.5 957.5,-332.5 957.5,-332.5 963.5,-332.5 969.5,-338.5 969.5,-344.5 969.5,-344.5 969.5,-414.75 969.5,-414.75 969.5,-420.75 963.5,-426.75 957.5,-426.75"/>
<text text-anchor="middle" x="886.5" y="-409.45" font-family="Helvetica,sans-Serif" font-size="14.00">14_C &lt;= 0.5</text>
<text text-anchor="middle" x="886.5" y="-392.2" font-family="Helvetica,sans-Serif" font-size="14.00">entropy = 0.985</text>
<text text-anchor="middle" x="886.5" y="-374.95" font-family="Helvetica,sans-Serif" font-size="14.00">samples = 7761</text>
<text text-anchor="middle" x="886.5" y="-357.7" font-family="Helvetica,sans-Serif" font-size="14.00">value = [6974, 5220]</text>
<text text-anchor="middle" x="886.5" y="-340.45" font-family="Helvetica,sans-Serif" font-size="14.00">class = Animal</text>
</g>
<!-- 0&#45;&gt;12908 -->
<g id="edge16" class="edge">
<title>0&#45;&gt;12908</title>
<path fill="none" stroke="black" d="M770.46,-462.39C783.69,-453.07 797.68,-443.22 811.19,-433.69"/>
<polygon fill="black" stroke="black" points="813.06,-436.66 819.22,-428.04 809.03,-430.94 813.06,-436.66"/>
<text text-anchor="middle" x="816.19" y="-447.12" font-family="Helvetica,sans-Serif" font-size="14.00">False</text>
</g>
<!-- 2 -->
<g id="node3" class="node">
<title>2</title>
<path fill="#e7f3fc" stroke="black" d="M360.5,-296.5C360.5,-296.5 200.5,-296.5 200.5,-296.5 194.5,-296.5 188.5,-290.5 188.5,-284.5 188.5,-284.5 188.5,-214.25 188.5,-214.25 188.5,-208.25 194.5,-202.25 200.5,-202.25 200.5,-202.25 360.5,-202.25 360.5,-202.25 366.5,-202.25 372.5,-208.25 372.5,-214.25 372.5,-214.25 372.5,-284.5 372.5,-284.5 372.5,-290.5 366.5,-296.5 360.5,-296.5"/>
<text text-anchor="middle" x="280.5" y="-279.2" font-family="Helvetica,sans-Serif" font-size="14.00">1_U &lt;= 0.5</text>
<text text-anchor="middle" x="280.5" y="-261.95" font-family="Helvetica,sans-Serif" font-size="14.00">entropy = 0.997</text>
<text text-anchor="middle" x="280.5" y="-244.7" font-family="Helvetica,sans-Serif" font-size="14.00">samples = 28987</text>
<text text-anchor="middle" x="280.5" y="-227.45" font-family="Helvetica,sans-Serif" font-size="14.00">value = [21440, 24402]</text>
<text text-anchor="middle" x="280.5" y="-210.2" font-family="Helvetica,sans-Serif" font-size="14.00">class = Plant</text>
</g>
<!-- 1&#45;&gt;2 -->
<g id="edge2" class="edge">
<title>1&#45;&gt;2</title>
<path fill="none" stroke="black" d="M446.08,-332.69C425.58,-322.49 403.74,-311.63 382.86,-301.26"/>
<polygon fill="black" stroke="black" points="384.57,-298.2 374.06,-296.88 381.46,-304.47 384.57,-298.2"/>
</g>
<!-- 12275 -->
<g id="node10" class="node">
<title>12275</title>
<path fill="#eda775" stroke="black" d="M605,-296.5C605,-296.5 472,-296.5 472,-296.5 466,-296.5 460,-290.5 460,-284.5 460,-284.5 460,-214.25 460,-214.25 460,-208.25 466,-202.25 472,-202.25 472,-202.25 605,-202.25 605,-202.25 611,-202.25 617,-208.25 617,-214.25 617,-214.25 617,-284.5 617,-284.5 617,-290.5 611,-296.5 605,-296.5"/>
<text text-anchor="middle" x="538.5" y="-279.2" font-family="Helvetica,sans-Serif" font-size="14.00">6_U &lt;= 0.5</text>
<text text-anchor="middle" x="538.5" y="-261.95" font-family="Helvetica,sans-Serif" font-size="14.00">entropy = 0.782</text>
<text text-anchor="middle" x="538.5" y="-244.7" font-family="Helvetica,sans-Serif" font-size="14.00">samples = 1467</text>
<text text-anchor="middle" x="538.5" y="-227.45" font-family="Helvetica,sans-Serif" font-size="14.00">value = [1773, 536]</text>
<text text-anchor="middle" x="538.5" y="-210.2" font-family="Helvetica,sans-Serif" font-size="14.00">class = Animal</text>
</g>
<!-- 1&#45;&gt;12275 -->
<g id="edge9" class="edge">
<title>1&#45;&gt;12275</title>
<path fill="none" stroke="black" d="M538.5,-332.32C538.5,-324.42 538.5,-316.13 538.5,-307.98"/>
<polygon fill="black" stroke="black" points="542,-308.12 538.5,-298.12 535,-308.12 542,-308.12"/>
</g>
<!-- 3 -->
<g id="node4" class="node">
<title>3</title>
<path fill="#fae5d7" stroke="black" d="M163,-166.25C163,-166.25 12,-166.25 12,-166.25 6,-166.25 0,-160.25 0,-154.25 0,-154.25 0,-84 0,-84 0,-78 6,-72 12,-72 12,-72 163,-72 163,-72 169,-72 175,-78 175,-84 175,-84 175,-154.25 175,-154.25 175,-160.25 169,-166.25 163,-166.25"/>
<text text-anchor="middle" x="87.5" y="-148.95" font-family="Helvetica,sans-Serif" font-size="14.00">11_C &lt;= 0.5</text>
<text text-anchor="middle" x="87.5" y="-131.7" font-family="Helvetica,sans-Serif" font-size="14.00">entropy = 0.991</text>
<text text-anchor="middle" x="87.5" y="-114.45" font-family="Helvetica,sans-Serif" font-size="14.00">samples = 13054</text>
<text text-anchor="middle" x="87.5" y="-97.2" font-family="Helvetica,sans-Serif" font-size="14.00">value = [11452, 9129]</text>
<text text-anchor="middle" x="87.5" y="-79.95" font-family="Helvetica,sans-Serif" font-size="14.00">class = Animal</text>
</g>
<!-- 2&#45;&gt;3 -->
<g id="edge3" class="edge">
<title>2&#45;&gt;3</title>
<path fill="none" stroke="black" d="M210.55,-201.89C196.39,-192.48 181.4,-182.53 166.95,-172.92"/>
<polygon fill="black" stroke="black" points="169.06,-170.12 158.8,-167.5 165.19,-175.95 169.06,-170.12"/>
</g>
<!-- 6792 -->
<g id="node7" class="node">
<title>6792</title>
<path fill="#baddf6" stroke="black" d="M356,-166.25C356,-166.25 205,-166.25 205,-166.25 199,-166.25 193,-160.25 193,-154.25 193,-154.25 193,-84 193,-84 193,-78 199,-72 205,-72 205,-72 356,-72 356,-72 362,-72 368,-78 368,-84 368,-84 368,-154.25 368,-154.25 368,-160.25 362,-166.25 356,-166.25"/>
<text text-anchor="middle" x="280.5" y="-148.95" font-family="Helvetica,sans-Serif" font-size="14.00">22_U &lt;= 0.5</text>
<text text-anchor="middle" x="280.5" y="-131.7" font-family="Helvetica,sans-Serif" font-size="14.00">entropy = 0.968</text>
<text text-anchor="middle" x="280.5" y="-114.45" font-family="Helvetica,sans-Serif" font-size="14.00">samples = 15933</text>
<text text-anchor="middle" x="280.5" y="-97.2" font-family="Helvetica,sans-Serif" font-size="14.00">value = [9988, 15273]</text>
<text text-anchor="middle" x="280.5" y="-79.95" font-family="Helvetica,sans-Serif" font-size="14.00">class = Plant</text>
</g>
<!-- 2&#45;&gt;6792 -->
<g id="edge6" class="edge">
<title>2&#45;&gt;6792</title>
<path fill="none" stroke="black" d="M280.5,-202.07C280.5,-194.17 280.5,-185.88 280.5,-177.73"/>
<polygon fill="black" stroke="black" points="284,-177.87 280.5,-167.87 277,-177.87 284,-177.87"/>
</g>
<!-- 4 -->
<g id="node5" class="node">
<title>4</title>
<path fill="#c0c0c0" stroke="black" d="M66.5,-36C66.5,-36 36.5,-36 36.5,-36 30.5,-36 24.5,-30 24.5,-24 24.5,-24 24.5,-12 24.5,-12 24.5,-6 30.5,0 36.5,0 36.5,0 66.5,0 66.5,0 72.5,0 78.5,-6 78.5,-12 78.5,-12 78.5,-24 78.5,-24 78.5,-30 72.5,-36 66.5,-36"/>
<text text-anchor="middle" x="51.5" y="-13.32" font-family="Helvetica,sans-Serif" font-size="14.00">(...)</text>
</g>
<!-- 3&#45;&gt;4 -->
<g id="edge4" class="edge">
<title>3&#45;&gt;4</title>
<path fill="none" stroke="black" d="M70.66,-71.75C67.56,-63.22 64.42,-54.57 61.6,-46.8"/>
<polygon fill="black" stroke="black" points="64.96,-45.8 58.25,-37.6 58.38,-48.19 64.96,-45.8"/>
</g>
<!-- 5343 -->
<g id="node6" class="node">
<title>5343</title>
<path fill="#c0c0c0" stroke="black" d="M138.5,-36C138.5,-36 108.5,-36 108.5,-36 102.5,-36 96.5,-30 96.5,-24 96.5,-24 96.5,-12 96.5,-12 96.5,-6 102.5,0 108.5,0 108.5,0 138.5,0 138.5,0 144.5,0 150.5,-6 150.5,-12 150.5,-12 150.5,-24 150.5,-24 150.5,-30 144.5,-36 138.5,-36"/>
<text text-anchor="middle" x="123.5" y="-13.32" font-family="Helvetica,sans-Serif" font-size="14.00">(...)</text>
</g>
<!-- 3&#45;&gt;5343 -->
<g id="edge5" class="edge">
<title>3&#45;&gt;5343</title>
<path fill="none" stroke="black" d="M104.34,-71.75C107.44,-63.22 110.58,-54.57 113.4,-46.8"/>
<polygon fill="black" stroke="black" points="116.62,-48.19 116.75,-37.6 110.04,-45.8 116.62,-48.19"/>
</g>
<!-- 6793 -->
<g id="node8" class="node">
<title>6793</title>
<path fill="#c0c0c0" stroke="black" d="M254.5,-36C254.5,-36 224.5,-36 224.5,-36 218.5,-36 212.5,-30 212.5,-24 212.5,-24 212.5,-12 212.5,-12 212.5,-6 218.5,0 224.5,0 224.5,0 254.5,0 254.5,0 260.5,0 266.5,-6 266.5,-12 266.5,-12 266.5,-24 266.5,-24 266.5,-30 260.5,-36 254.5,-36"/>
<text text-anchor="middle" x="239.5" y="-13.32" font-family="Helvetica,sans-Serif" font-size="14.00">(...)</text>
</g>
<!-- 6792&#45;&gt;6793 -->
<g id="edge7" class="edge">
<title>6792&#45;&gt;6793</title>
<path fill="none" stroke="black" d="M261.32,-71.75C257.79,-63.22 254.21,-54.57 251,-46.8"/>
<polygon fill="black" stroke="black" points="254.24,-45.47 247.18,-37.57 247.77,-48.15 254.24,-45.47"/>
</g>
<!-- 11578 -->
<g id="node9" class="node">
<title>11578</title>
<path fill="#c0c0c0" stroke="black" d="M326.5,-36C326.5,-36 296.5,-36 296.5,-36 290.5,-36 284.5,-30 284.5,-24 284.5,-24 284.5,-12 284.5,-12 284.5,-6 290.5,0 296.5,0 296.5,0 326.5,0 326.5,0 332.5,0 338.5,-6 338.5,-12 338.5,-12 338.5,-24 338.5,-24 338.5,-30 332.5,-36 326.5,-36"/>
<text text-anchor="middle" x="311.5" y="-13.32" font-family="Helvetica,sans-Serif" font-size="14.00">(...)</text>
</g>
<!-- 6792&#45;&gt;11578 -->
<g id="edge8" class="edge">
<title>6792&#45;&gt;11578</title>
<path fill="none" stroke="black" d="M295,-71.75C297.64,-63.32 300.31,-54.77 302.72,-47.07"/>
<polygon fill="black" stroke="black" points="306.03,-48.21 305.68,-37.62 299.35,-46.12 306.03,-48.21"/>
</g>
<!-- 12276 -->
<g id="node11" class="node">
<title>12276</title>
<path fill="#eead7f" stroke="black" d="M531,-166.25C531,-166.25 398,-166.25 398,-166.25 392,-166.25 386,-160.25 386,-154.25 386,-154.25 386,-84 386,-84 386,-78 392,-72 398,-72 398,-72 531,-72 531,-72 537,-72 543,-78 543,-84 543,-84 543,-154.25 543,-154.25 543,-160.25 537,-166.25 531,-166.25"/>
<text text-anchor="middle" x="464.5" y="-148.95" font-family="Helvetica,sans-Serif" font-size="14.00">19_C &lt;= 0.5</text>
<text text-anchor="middle" x="464.5" y="-131.7" font-family="Helvetica,sans-Serif" font-size="14.00">entropy = 0.827</text>
<text text-anchor="middle" x="464.5" y="-114.45" font-family="Helvetica,sans-Serif" font-size="14.00">samples = 1060</text>
<text text-anchor="middle" x="464.5" y="-97.2" font-family="Helvetica,sans-Serif" font-size="14.00">value = [1245, 438]</text>
<text text-anchor="middle" x="464.5" y="-79.95" font-family="Helvetica,sans-Serif" font-size="14.00">class = Animal</text>
</g>
<!-- 12275&#45;&gt;12276 -->
<g id="edge10" class="edge">
<title>12275&#45;&gt;12276</title>
<path fill="none" stroke="black" d="M511.78,-202.07C506.96,-193.72 501.89,-184.93 496.93,-176.33"/>
<polygon fill="black" stroke="black" points="499.96,-174.58 491.93,-167.67 493.9,-178.08 499.96,-174.58"/>
</g>
<!-- 12757 -->
<g id="node14" class="node">
<title>12757</title>
<path fill="#ea985e" stroke="black" d="M688,-166.25C688,-166.25 573,-166.25 573,-166.25 567,-166.25 561,-160.25 561,-154.25 561,-154.25 561,-84 561,-84 561,-78 567,-72 573,-72 573,-72 688,-72 688,-72 694,-72 700,-78 700,-84 700,-84 700,-154.25 700,-154.25 700,-160.25 694,-166.25 688,-166.25"/>
<text text-anchor="middle" x="630.5" y="-148.95" font-family="Helvetica,sans-Serif" font-size="14.00">22_A &lt;= 0.5</text>
<text text-anchor="middle" x="630.5" y="-131.7" font-family="Helvetica,sans-Serif" font-size="14.00">entropy = 0.626</text>
<text text-anchor="middle" x="630.5" y="-114.45" font-family="Helvetica,sans-Serif" font-size="14.00">samples = 407</text>
<text text-anchor="middle" x="630.5" y="-97.2" font-family="Helvetica,sans-Serif" font-size="14.00">value = [528, 98]</text>
<text text-anchor="middle" x="630.5" y="-79.95" font-family="Helvetica,sans-Serif" font-size="14.00">class = Animal</text>
</g>
<!-- 12275&#45;&gt;12757 -->
<g id="edge13" class="edge">
<title>12275&#45;&gt;12757</title>
<path fill="none" stroke="black" d="M571.71,-202.07C577.9,-193.45 584.43,-184.35 590.79,-175.49"/>
<polygon fill="black" stroke="black" points="593.47,-177.75 596.45,-167.59 587.78,-173.67 593.47,-177.75"/>
</g>
<!-- 12277 -->
<g id="node12" class="node">
<title>12277</title>
<path fill="#c0c0c0" stroke="black" d="M418.5,-36C418.5,-36 388.5,-36 388.5,-36 382.5,-36 376.5,-30 376.5,-24 376.5,-24 376.5,-12 376.5,-12 376.5,-6 382.5,0 388.5,0 388.5,0 418.5,0 418.5,0 424.5,0 430.5,-6 430.5,-12 430.5,-12 430.5,-24 430.5,-24 430.5,-30 424.5,-36 418.5,-36"/>
<text text-anchor="middle" x="403.5" y="-13.32" font-family="Helvetica,sans-Serif" font-size="14.00">(...)</text>
</g>
<!-- 12276&#45;&gt;12277 -->
<g id="edge11" class="edge">
<title>12276&#45;&gt;12277</title>
<path fill="none" stroke="black" d="M435.96,-71.75C430.47,-62.83 424.89,-53.76 419.94,-45.72"/>
<polygon fill="black" stroke="black" points="423.08,-44.14 414.86,-37.46 417.12,-47.81 423.08,-44.14"/>
</g>
<!-- 12632 -->
<g id="node13" class="node">
<title>12632</title>
<path fill="#c0c0c0" stroke="black" d="M490.5,-36C490.5,-36 460.5,-36 460.5,-36 454.5,-36 448.5,-30 448.5,-24 448.5,-24 448.5,-12 448.5,-12 448.5,-6 454.5,0 460.5,0 460.5,0 490.5,0 490.5,0 496.5,0 502.5,-6 502.5,-12 502.5,-12 502.5,-24 502.5,-24 502.5,-30 496.5,-36 490.5,-36"/>
<text text-anchor="middle" x="475.5" y="-13.32" font-family="Helvetica,sans-Serif" font-size="14.00">(...)</text>
</g>
<!-- 12276&#45;&gt;12632 -->
<g id="edge12" class="edge">
<title>12276&#45;&gt;12632</title>
<path fill="none" stroke="black" d="M469.65,-71.75C470.56,-63.52 471.49,-55.17 472.32,-47.61"/>
<polygon fill="black" stroke="black" points="475.8,-48 473.43,-37.68 468.85,-47.23 475.8,-48"/>
</g>
<!-- 12758 -->
<g id="node15" class="node">
<title>12758</title>
<path fill="#c0c0c0" stroke="black" d="M586.5,-36C586.5,-36 556.5,-36 556.5,-36 550.5,-36 544.5,-30 544.5,-24 544.5,-24 544.5,-12 544.5,-12 544.5,-6 550.5,0 556.5,0 556.5,0 586.5,0 586.5,0 592.5,0 598.5,-6 598.5,-12 598.5,-12 598.5,-24 598.5,-24 598.5,-30 592.5,-36 586.5,-36"/>
<text text-anchor="middle" x="571.5" y="-13.32" font-family="Helvetica,sans-Serif" font-size="14.00">(...)</text>
</g>
<!-- 12757&#45;&gt;12758 -->
<g id="edge14" class="edge">
<title>12757&#45;&gt;12758</title>
<path fill="none" stroke="black" d="M602.9,-71.75C597.65,-62.93 592.31,-53.96 587.56,-45.99"/>
<polygon fill="black" stroke="black" points="590.62,-44.28 582.5,-37.47 584.6,-47.86 590.62,-44.28"/>
</g>
<!-- 12873 -->
<g id="node16" class="node">
<title>12873</title>
<path fill="#c0c0c0" stroke="black" d="M658.5,-36C658.5,-36 628.5,-36 628.5,-36 622.5,-36 616.5,-30 616.5,-24 616.5,-24 616.5,-12 616.5,-12 616.5,-6 622.5,0 628.5,0 628.5,0 658.5,0 658.5,0 664.5,0 670.5,-6 670.5,-12 670.5,-12 670.5,-24 670.5,-24 670.5,-30 664.5,-36 658.5,-36"/>
<text text-anchor="middle" x="643.5" y="-13.32" font-family="Helvetica,sans-Serif" font-size="14.00">(...)</text>
</g>
<!-- 12757&#45;&gt;12873 -->
<g id="edge15" class="edge">
<title>12757&#45;&gt;12873</title>
<path fill="none" stroke="black" d="M636.58,-71.75C637.67,-63.42 638.78,-54.97 639.78,-47.34"/>
<polygon fill="black" stroke="black" points="643.22,-48.04 641.05,-37.67 636.28,-47.13 643.22,-48.04"/>
</g>
<!-- 12909 -->
<g id="node18" class="node">
<title>12909</title>
<path fill="#f6d5bc" stroke="black" d="M957.5,-296.5C957.5,-296.5 815.5,-296.5 815.5,-296.5 809.5,-296.5 803.5,-290.5 803.5,-284.5 803.5,-284.5 803.5,-214.25 803.5,-214.25 803.5,-208.25 809.5,-202.25 815.5,-202.25 815.5,-202.25 957.5,-202.25 957.5,-202.25 963.5,-202.25 969.5,-208.25 969.5,-214.25 969.5,-214.25 969.5,-284.5 969.5,-284.5 969.5,-290.5 963.5,-296.5 957.5,-296.5"/>
<text text-anchor="middle" x="886.5" y="-279.2" font-family="Helvetica,sans-Serif" font-size="14.00">5_A &lt;= 0.5</text>
<text text-anchor="middle" x="886.5" y="-261.95" font-family="Helvetica,sans-Serif" font-size="14.00">entropy = 0.97</text>
<text text-anchor="middle" x="886.5" y="-244.7" font-family="Helvetica,sans-Serif" font-size="14.00">samples = 5864</text>
<text text-anchor="middle" x="886.5" y="-227.45" font-family="Helvetica,sans-Serif" font-size="14.00">value = [5530, 3665]</text>
<text text-anchor="middle" x="886.5" y="-210.2" font-family="Helvetica,sans-Serif" font-size="14.00">class = Animal</text>
</g>
<!-- 12908&#45;&gt;12909 -->
<g id="edge17" class="edge">
<title>12908&#45;&gt;12909</title>
<path fill="none" stroke="black" d="M886.5,-332.32C886.5,-324.42 886.5,-316.13 886.5,-307.98"/>
<polygon fill="black" stroke="black" points="890,-308.12 886.5,-298.12 883,-308.12 890,-308.12"/>
</g>
<!-- 15982 -->
<g id="node25" class="node">
<title>15982</title>
<path fill="#f1f8fd" stroke="black" d="M1227.5,-296.5C1227.5,-296.5 1085.5,-296.5 1085.5,-296.5 1079.5,-296.5 1073.5,-290.5 1073.5,-284.5 1073.5,-284.5 1073.5,-214.25 1073.5,-214.25 1073.5,-208.25 1079.5,-202.25 1085.5,-202.25 1085.5,-202.25 1227.5,-202.25 1227.5,-202.25 1233.5,-202.25 1239.5,-208.25 1239.5,-214.25 1239.5,-214.25 1239.5,-284.5 1239.5,-284.5 1239.5,-290.5 1233.5,-296.5 1227.5,-296.5"/>
<text text-anchor="middle" x="1156.5" y="-279.2" font-family="Helvetica,sans-Serif" font-size="14.00">17_A &lt;= 0.5</text>
<text text-anchor="middle" x="1156.5" y="-261.95" font-family="Helvetica,sans-Serif" font-size="14.00">entropy = 0.999</text>
<text text-anchor="middle" x="1156.5" y="-244.7" font-family="Helvetica,sans-Serif" font-size="14.00">samples = 1897</text>
<text text-anchor="middle" x="1156.5" y="-227.45" font-family="Helvetica,sans-Serif" font-size="14.00">value = [1444, 1555]</text>
<text text-anchor="middle" x="1156.5" y="-210.2" font-family="Helvetica,sans-Serif" font-size="14.00">class = Plant</text>
</g>
<!-- 12908&#45;&gt;15982 -->
<g id="edge24" class="edge">
<title>12908&#45;&gt;15982</title>
<path fill="none" stroke="black" d="M969.71,-339.1C999.22,-325.08 1032.63,-309.21 1062.95,-294.81"/>
<polygon fill="black" stroke="black" points="1064.2,-298.09 1071.73,-290.64 1061.2,-291.77 1064.2,-298.09"/>
</g>
<!-- 12910 -->
<g id="node19" class="node">
<title>12910</title>
<path fill="#f9e0ce" stroke="black" d="M872.5,-166.25C872.5,-166.25 730.5,-166.25 730.5,-166.25 724.5,-166.25 718.5,-160.25 718.5,-154.25 718.5,-154.25 718.5,-84 718.5,-84 718.5,-78 724.5,-72 730.5,-72 730.5,-72 872.5,-72 872.5,-72 878.5,-72 884.5,-78 884.5,-84 884.5,-84 884.5,-154.25 884.5,-154.25 884.5,-160.25 878.5,-166.25 872.5,-166.25"/>
<text text-anchor="middle" x="801.5" y="-148.95" font-family="Helvetica,sans-Serif" font-size="14.00">5_C &lt;= 0.5</text>
<text text-anchor="middle" x="801.5" y="-131.7" font-family="Helvetica,sans-Serif" font-size="14.00">entropy = 0.986</text>
<text text-anchor="middle" x="801.5" y="-114.45" font-family="Helvetica,sans-Serif" font-size="14.00">samples = 4614</text>
<text text-anchor="middle" x="801.5" y="-97.2" font-family="Helvetica,sans-Serif" font-size="14.00">value = [4133, 3113]</text>
<text text-anchor="middle" x="801.5" y="-79.95" font-family="Helvetica,sans-Serif" font-size="14.00">class = Animal</text>
</g>
<!-- 12909&#45;&gt;12910 -->
<g id="edge18" class="edge">
<title>12909&#45;&gt;12910</title>
<path fill="none" stroke="black" d="M855.81,-202.07C850.16,-193.54 844.2,-184.54 838.38,-175.77"/>
<polygon fill="black" stroke="black" points="841.42,-174.02 832.98,-167.62 835.59,-177.89 841.42,-174.02"/>
</g>
<!-- 15483 -->
<g id="node22" class="node">
<title>15483</title>
<path fill="#efb387" stroke="black" d="M1048,-166.25C1048,-166.25 915,-166.25 915,-166.25 909,-166.25 903,-160.25 903,-154.25 903,-154.25 903,-84 903,-84 903,-78 909,-72 915,-72 915,-72 1048,-72 1048,-72 1054,-72 1060,-78 1060,-84 1060,-84 1060,-154.25 1060,-154.25 1060,-160.25 1054,-166.25 1048,-166.25"/>
<text text-anchor="middle" x="981.5" y="-148.95" font-family="Helvetica,sans-Serif" font-size="14.00">22_U &lt;= 0.5</text>
<text text-anchor="middle" x="981.5" y="-131.7" font-family="Helvetica,sans-Serif" font-size="14.00">entropy = 0.86</text>
<text text-anchor="middle" x="981.5" y="-114.45" font-family="Helvetica,sans-Serif" font-size="14.00">samples = 1250</text>
<text text-anchor="middle" x="981.5" y="-97.2" font-family="Helvetica,sans-Serif" font-size="14.00">value = [1397, 552]</text>
<text text-anchor="middle" x="981.5" y="-79.95" font-family="Helvetica,sans-Serif" font-size="14.00">class = Animal</text>
</g>
<!-- 12909&#45;&gt;15483 -->
<g id="edge21" class="edge">
<title>12909&#45;&gt;15483</title>
<path fill="none" stroke="black" d="M920.8,-202.07C927.19,-193.45 933.92,-184.35 940.49,-175.49"/>
<polygon fill="black" stroke="black" points="943.21,-177.69 946.35,-167.57 937.59,-173.53 943.21,-177.69"/>
</g>
<!-- 12911 -->
<g id="node20" class="node">
<title>12911</title>
<path fill="#c0c0c0" stroke="black" d="M762.5,-36C762.5,-36 732.5,-36 732.5,-36 726.5,-36 720.5,-30 720.5,-24 720.5,-24 720.5,-12 720.5,-12 720.5,-6 726.5,0 732.5,0 732.5,0 762.5,0 762.5,0 768.5,0 774.5,-6 774.5,-12 774.5,-12 774.5,-24 774.5,-24 774.5,-30 768.5,-36 762.5,-36"/>
<text text-anchor="middle" x="747.5" y="-13.32" font-family="Helvetica,sans-Serif" font-size="14.00">(...)</text>
</g>
<!-- 12910&#45;&gt;12911 -->
<g id="edge19" class="edge">
<title>12910&#45;&gt;12911</title>
<path fill="none" stroke="black" d="M776.24,-71.75C771.48,-63.03 766.66,-54.16 762.35,-46.26"/>
<polygon fill="black" stroke="black" points="765.44,-44.61 757.58,-37.5 759.29,-47.96 765.44,-44.61"/>
</g>
<!-- 14820 -->
<g id="node21" class="node">
<title>14820</title>
<path fill="#c0c0c0" stroke="black" d="M834.5,-36C834.5,-36 804.5,-36 804.5,-36 798.5,-36 792.5,-30 792.5,-24 792.5,-24 792.5,-12 792.5,-12 792.5,-6 798.5,0 804.5,0 804.5,0 834.5,0 834.5,0 840.5,0 846.5,-6 846.5,-12 846.5,-12 846.5,-24 846.5,-24 846.5,-30 840.5,-36 834.5,-36"/>
<text text-anchor="middle" x="819.5" y="-13.32" font-family="Helvetica,sans-Serif" font-size="14.00">(...)</text>
</g>
<!-- 12910&#45;&gt;14820 -->
<g id="edge20" class="edge">
<title>12910&#45;&gt;14820</title>
<path fill="none" stroke="black" d="M809.92,-71.75C811.43,-63.42 812.97,-54.97 814.35,-47.34"/>
<polygon fill="black" stroke="black" points="817.77,-48.13 816.11,-37.66 810.88,-46.88 817.77,-48.13"/>
</g>
<!-- 15484 -->
<g id="node23" class="node">
<title>15484</title>
<path fill="#c0c0c0" stroke="black" d="M939.5,-36C939.5,-36 909.5,-36 909.5,-36 903.5,-36 897.5,-30 897.5,-24 897.5,-24 897.5,-12 897.5,-12 897.5,-6 903.5,0 909.5,0 909.5,0 939.5,0 939.5,0 945.5,0 951.5,-6 951.5,-12 951.5,-12 951.5,-24 951.5,-24 951.5,-30 945.5,-36 939.5,-36"/>
<text text-anchor="middle" x="924.5" y="-13.32" font-family="Helvetica,sans-Serif" font-size="14.00">(...)</text>
</g>
<!-- 15483&#45;&gt;15484 -->
<g id="edge22" class="edge">
<title>15483&#45;&gt;15484</title>
<path fill="none" stroke="black" d="M954.84,-71.75C949.76,-62.93 944.6,-53.96 940.02,-45.99"/>
<polygon fill="black" stroke="black" points="943.15,-44.41 935.13,-37.48 937.08,-47.9 943.15,-44.41"/>
</g>
<!-- 15935 -->
<g id="node24" class="node">
<title>15935</title>
<path fill="#c0c0c0" stroke="black" d="M1011.5,-36C1011.5,-36 981.5,-36 981.5,-36 975.5,-36 969.5,-30 969.5,-24 969.5,-24 969.5,-12 969.5,-12 969.5,-6 975.5,0 981.5,0 981.5,0 1011.5,0 1011.5,0 1017.5,0 1023.5,-6 1023.5,-12 1023.5,-12 1023.5,-24 1023.5,-24 1023.5,-30 1017.5,-36 1011.5,-36"/>
<text text-anchor="middle" x="996.5" y="-13.32" font-family="Helvetica,sans-Serif" font-size="14.00">(...)</text>
</g>
<!-- 15483&#45;&gt;15935 -->
<g id="edge23" class="edge">
<title>15483&#45;&gt;15935</title>
<path fill="none" stroke="black" d="M988.52,-71.75C989.78,-63.42 991.06,-54.97 992.21,-47.34"/>
<polygon fill="black" stroke="black" points="995.64,-48.08 993.67,-37.67 988.72,-47.03 995.64,-48.08"/>
</g>
<!-- 15983 -->
<g id="node26" class="node">
<title>15983</title>
<path fill="#f7dac4" stroke="black" d="M1223,-166.25C1223,-166.25 1090,-166.25 1090,-166.25 1084,-166.25 1078,-160.25 1078,-154.25 1078,-154.25 1078,-84 1078,-84 1078,-78 1084,-72 1090,-72 1090,-72 1223,-72 1223,-72 1229,-72 1235,-78 1235,-84 1235,-84 1235,-154.25 1235,-154.25 1235,-160.25 1229,-166.25 1223,-166.25"/>
<text text-anchor="middle" x="1156.5" y="-148.95" font-family="Helvetica,sans-Serif" font-size="14.00">2_A &lt;= 0.5</text>
<text text-anchor="middle" x="1156.5" y="-131.7" font-family="Helvetica,sans-Serif" font-size="14.00">entropy = 0.978</text>
<text text-anchor="middle" x="1156.5" y="-114.45" font-family="Helvetica,sans-Serif" font-size="14.00">samples = 1248</text>
<text text-anchor="middle" x="1156.5" y="-97.2" font-family="Helvetica,sans-Serif" font-size="14.00">value = [1166, 820]</text>
<text text-anchor="middle" x="1156.5" y="-79.95" font-family="Helvetica,sans-Serif" font-size="14.00">class = Animal</text>
</g>
<!-- 15982&#45;&gt;15983 -->
<g id="edge25" class="edge">
<title>15982&#45;&gt;15983</title>
<path fill="none" stroke="black" d="M1156.5,-202.07C1156.5,-194.17 1156.5,-185.88 1156.5,-177.73"/>
<polygon fill="black" stroke="black" points="1160,-177.87 1156.5,-167.87 1153,-177.87 1160,-177.87"/>
</g>
<!-- 16634 -->
<g id="node29" class="node">
<title>16634</title>
<path fill="#84c2ef" stroke="black" d="M1389.5,-166.25C1389.5,-166.25 1265.5,-166.25 1265.5,-166.25 1259.5,-166.25 1253.5,-160.25 1253.5,-154.25 1253.5,-154.25 1253.5,-84 1253.5,-84 1253.5,-78 1259.5,-72 1265.5,-72 1265.5,-72 1389.5,-72 1389.5,-72 1395.5,-72 1401.5,-78 1401.5,-84 1401.5,-84 1401.5,-154.25 1401.5,-154.25 1401.5,-160.25 1395.5,-166.25 1389.5,-166.25"/>
<text text-anchor="middle" x="1327.5" y="-148.95" font-family="Helvetica,sans-Serif" font-size="14.00">2_G &lt;= 0.5</text>
<text text-anchor="middle" x="1327.5" y="-131.7" font-family="Helvetica,sans-Serif" font-size="14.00">entropy = 0.848</text>
<text text-anchor="middle" x="1327.5" y="-114.45" font-family="Helvetica,sans-Serif" font-size="14.00">samples = 649</text>
<text text-anchor="middle" x="1327.5" y="-97.2" font-family="Helvetica,sans-Serif" font-size="14.00">value = [278, 735]</text>
<text text-anchor="middle" x="1327.5" y="-79.95" font-family="Helvetica,sans-Serif" font-size="14.00">class = Plant</text>
</g>
<!-- 15982&#45;&gt;16634 -->
<g id="edge28" class="edge">
<title>15982&#45;&gt;16634</title>
<path fill="none" stroke="black" d="M1218.23,-202.07C1230.63,-192.78 1243.75,-182.94 1256.43,-173.43"/>
<polygon fill="black" stroke="black" points="1258.46,-176.28 1264.36,-167.48 1254.26,-170.68 1258.46,-176.28"/>
</g>
<!-- 15984 -->
<g id="node27" class="node">
<title>15984</title>
<path fill="#c0c0c0" stroke="black" d="M1130.5,-36C1130.5,-36 1100.5,-36 1100.5,-36 1094.5,-36 1088.5,-30 1088.5,-24 1088.5,-24 1088.5,-12 1088.5,-12 1088.5,-6 1094.5,0 1100.5,0 1100.5,0 1130.5,0 1130.5,0 1136.5,0 1142.5,-6 1142.5,-12 1142.5,-12 1142.5,-24 1142.5,-24 1142.5,-30 1136.5,-36 1130.5,-36"/>
<text text-anchor="middle" x="1115.5" y="-13.32" font-family="Helvetica,sans-Serif" font-size="14.00">(...)</text>
</g>
<!-- 15983&#45;&gt;15984 -->
<g id="edge26" class="edge">
<title>15983&#45;&gt;15984</title>
<path fill="none" stroke="black" d="M1137.32,-71.75C1133.79,-63.22 1130.21,-54.57 1127,-46.8"/>
<polygon fill="black" stroke="black" points="1130.24,-45.47 1123.18,-37.57 1123.77,-48.15 1130.24,-45.47"/>
</g>
<!-- 16511 -->
<g id="node28" class="node">
<title>16511</title>
<path fill="#c0c0c0" stroke="black" d="M1202.5,-36C1202.5,-36 1172.5,-36 1172.5,-36 1166.5,-36 1160.5,-30 1160.5,-24 1160.5,-24 1160.5,-12 1160.5,-12 1160.5,-6 1166.5,0 1172.5,0 1172.5,0 1202.5,0 1202.5,0 1208.5,0 1214.5,-6 1214.5,-12 1214.5,-12 1214.5,-24 1214.5,-24 1214.5,-30 1208.5,-36 1202.5,-36"/>
<text text-anchor="middle" x="1187.5" y="-13.32" font-family="Helvetica,sans-Serif" font-size="14.00">(...)</text>
</g>
<!-- 15983&#45;&gt;16511 -->
<g id="edge27" class="edge">
<title>15983&#45;&gt;16511</title>
<path fill="none" stroke="black" d="M1171,-71.75C1173.64,-63.32 1176.31,-54.77 1178.72,-47.07"/>
<polygon fill="black" stroke="black" points="1182.03,-48.21 1181.68,-37.62 1175.35,-46.12 1182.03,-48.21"/>
</g>
<!-- 16635 -->
<g id="node30" class="node">
<title>16635</title>
<path fill="#c0c0c0" stroke="black" d="M1306.5,-36C1306.5,-36 1276.5,-36 1276.5,-36 1270.5,-36 1264.5,-30 1264.5,-24 1264.5,-24 1264.5,-12 1264.5,-12 1264.5,-6 1270.5,0 1276.5,0 1276.5,0 1306.5,0 1306.5,0 1312.5,0 1318.5,-6 1318.5,-12 1318.5,-12 1318.5,-24 1318.5,-24 1318.5,-30 1312.5,-36 1306.5,-36"/>
<text text-anchor="middle" x="1291.5" y="-13.32" font-family="Helvetica,sans-Serif" font-size="14.00">(...)</text>
</g>
<!-- 16634&#45;&gt;16635 -->
<g id="edge29" class="edge">
<title>16634&#45;&gt;16635</title>
<path fill="none" stroke="black" d="M1310.66,-71.75C1307.56,-63.22 1304.42,-54.57 1301.6,-46.8"/>
<polygon fill="black" stroke="black" points="1304.96,-45.8 1298.25,-37.6 1298.38,-48.19 1304.96,-45.8"/>
</g>
<!-- 16778 -->
<g id="node31" class="node">
<title>16778</title>
<path fill="#c0c0c0" stroke="black" d="M1378.5,-36C1378.5,-36 1348.5,-36 1348.5,-36 1342.5,-36 1336.5,-30 1336.5,-24 1336.5,-24 1336.5,-12 1336.5,-12 1336.5,-6 1342.5,0 1348.5,0 1348.5,0 1378.5,0 1378.5,0 1384.5,0 1390.5,-6 1390.5,-12 1390.5,-12 1390.5,-24 1390.5,-24 1390.5,-30 1384.5,-36 1378.5,-36"/>
<text text-anchor="middle" x="1363.5" y="-13.32" font-family="Helvetica,sans-Serif" font-size="14.00">(...)</text>
</g>
<!-- 16634&#45;&gt;16778 -->
<g id="edge30" class="edge">
<title>16634&#45;&gt;16778</title>
<path fill="none" stroke="black" d="M1344.34,-71.75C1347.44,-63.22 1350.58,-54.57 1353.4,-46.8"/>
<polygon fill="black" stroke="black" points="1356.62,-48.19 1356.75,-37.6 1350.04,-45.8 1356.62,-48.19"/>
</g>
</g>
</svg>
