<?xml version="1.0" encoding="UTF-8" standalone="no"?>
<!DOCTYPE svg PUBLIC "-//W3C//DTD SVG 1.1//EN"
 "http://www.w3.org/Graphics/SVG/1.1/DTD/svg11.dtd">
<!-- Generated by graphviz version 12.0.0 (20240803.0821)
 -->
<!-- Title: Tree Pages: 1 -->
<svg width="1456pt" height="565pt"
 viewBox="0.00 0.00 1455.50 565.00" xmlns="http://www.w3.org/2000/svg" xmlns:xlink="http://www.w3.org/1999/xlink">
<g id="graph0" class="graph" transform="scale(1 1) rotate(0) translate(4 561)">
<title>Tree</title>
<polygon fill="white" stroke="none" points="-4,4 -4,-561 1451.5,-561 1451.5,4 -4,4"/>
<!-- 0 -->
<g id="node1" class="node">
<title>0</title>
<path fill="#fffefd" stroke="black" d="M809,-557C809,-557 649,-557 649,-557 643,-557 637,-551 637,-545 637,-545 637,-474.75 637,-474.75 637,-468.75 643,-462.75 649,-462.75 649,-462.75 809,-462.75 809,-462.75 815,-462.75 821,-468.75 821,-474.75 821,-474.75 821,-545 821,-545 821,-551 815,-557 809,-557"/>
<text text-anchor="middle" x="729" y="-539.7" font-family="Helvetica,sans-Serif" font-size="14.00">19_C &lt;= 0.5</text>
<text text-anchor="middle" x="729" y="-522.45" font-family="Helvetica,sans-Serif" font-size="14.00">entropy = 1.0</text>
<text text-anchor="middle" x="729" y="-505.2" font-family="Helvetica,sans-Serif" font-size="14.00">samples = 38038</text>
<text text-anchor="middle" x="729" y="-487.95" font-family="Helvetica,sans-Serif" font-size="14.00">value = [30334, 30011]</text>
<text text-anchor="middle" x="729" y="-470.7" font-family="Helvetica,sans-Serif" font-size="14.00">class = Animal</text>
</g>
<!-- 1 -->
<g id="node2" class="node">
<title>1</title>
<path fill="#f8dfcd" stroke="black" d="M634,-426.75C634,-426.75 474,-426.75 474,-426.75 468,-426.75 462,-420.75 462,-414.75 462,-414.75 462,-344.5 462,-344.5 462,-338.5 468,-332.5 474,-332.5 474,-332.5 634,-332.5 634,-332.5 640,-332.5 646,-338.5 646,-344.5 646,-344.5 646,-414.75 646,-414.75 646,-420.75 640,-426.75 634,-426.75"/>
<text text-anchor="middle" x="554" y="-409.45" font-family="Helvetica,sans-Serif" font-size="14.00">21_U &lt;= 0.5</text>
<text text-anchor="middle" x="554" y="-392.2" font-family="Helvetica,sans-Serif" font-size="14.00">entropy = 0.985</text>
<text text-anchor="middle" x="554" y="-374.95" font-family="Helvetica,sans-Serif" font-size="14.00">samples = 25768</text>
<text text-anchor="middle" x="554" y="-357.7" font-family="Helvetica,sans-Serif" font-size="14.00">value = [23465, 17488]</text>
<text text-anchor="middle" x="554" y="-340.45" font-family="Helvetica,sans-Serif" font-size="14.00">class = Animal</text>
</g>
<!-- 0&#45;&gt;1 -->
<g id="edge1" class="edge">
<title>0&#45;&gt;1</title>
<path fill="none" stroke="black" d="M665.82,-462.57C653.01,-453.19 639.45,-443.25 626.36,-433.65"/>
<polygon fill="black" stroke="black" points="628.74,-431.06 618.6,-427.97 624.6,-436.7 628.74,-431.06"/>
<text text-anchor="middle" x="621.19" y="-447.11" font-family="Helvetica,sans-Serif" font-size="14.00">True</text>
</g>
<!-- 12738 -->
<g id="node17" class="node">
<title>12738</title>
<path fill="#a6d3f3" stroke="black" d="M992.5,-426.75C992.5,-426.75 841.5,-426.75 841.5,-426.75 835.5,-426.75 829.5,-420.75 829.5,-414.75 829.5,-414.75 829.5,-344.5 829.5,-344.5 829.5,-338.5 835.5,-332.5 841.5,-332.5 841.5,-332.5 992.5,-332.5 992.5,-332.5 998.5,-332.5 1004.5,-338.5 1004.5,-344.5 1004.5,-344.5 1004.5,-414.75 1004.5,-414.75 1004.5,-420.75 998.5,-426.75 992.5,-426.75"/>
<text text-anchor="middle" x="917" y="-409.45" font-family="Helvetica,sans-Serif" font-size="14.00">1_U &lt;= 0.5</text>
<text text-anchor="middle" x="917" y="-392.2" font-family="Helvetica,sans-Serif" font-size="14.00">entropy = 0.938</text>
<text text-anchor="middle" x="917" y="-374.95" font-family="Helvetica,sans-Serif" font-size="14.00">samples = 12270</text>
<text text-anchor="middle" x="917" y="-357.7" font-family="Helvetica,sans-Serif" font-size="14.00">value = [6869, 12523]</text>
<text text-anchor="middle" x="917" y="-340.45" font-family="Helvetica,sans-Serif" font-size="14.00">class = Plant</text>
</g>
<!-- 0&#45;&gt;12738 -->
<g id="edge16" class="edge">
<title>0&#45;&gt;12738</title>
<path fill="none" stroke="black" d="M797.14,-462.39C810.93,-452.98 825.53,-443.03 839.61,-433.42"/>
<polygon fill="black" stroke="black" points="841.24,-436.54 847.53,-428.02 837.3,-430.76 841.24,-436.54"/>
<text text-anchor="middle" x="844.14" y="-447.05" font-family="Helvetica,sans-Serif" font-size="14.00">False</text>
</g>
<!-- 2 -->
<g id="node3" class="node">
<title>2</title>
<path fill="#fcf0e7" stroke="black" d="M365,-296.5C365,-296.5 205,-296.5 205,-296.5 199,-296.5 193,-290.5 193,-284.5 193,-284.5 193,-214.25 193,-214.25 193,-208.25 199,-202.25 205,-202.25 205,-202.25 365,-202.25 365,-202.25 371,-202.25 377,-208.25 377,-214.25 377,-214.25 377,-284.5 377,-284.5 377,-290.5 371,-296.5 365,-296.5"/>
<text text-anchor="middle" x="285" y="-279.2" font-family="Helvetica,sans-Serif" font-size="14.00">9_U &lt;= 0.5</text>
<text text-anchor="middle" x="285" y="-261.95" font-family="Helvetica,sans-Serif" font-size="14.00">entropy = 0.997</text>
<text text-anchor="middle" x="285" y="-244.7" font-family="Helvetica,sans-Serif" font-size="14.00">samples = 19523</text>
<text text-anchor="middle" x="285" y="-227.45" font-family="Helvetica,sans-Serif" font-size="14.00">value = [16515, 14547]</text>
<text text-anchor="middle" x="285" y="-210.2" font-family="Helvetica,sans-Serif" font-size="14.00">class = Animal</text>
</g>
<!-- 1&#45;&gt;2 -->
<g id="edge2" class="edge">
<title>1&#45;&gt;2</title>
<path fill="none" stroke="black" d="M461.8,-334.67C437.85,-323.25 411.9,-310.88 387.45,-299.22"/>
<polygon fill="black" stroke="black" points="388.98,-296.07 378.44,-294.93 385.96,-302.39 388.98,-296.07"/>
</g>
<!-- 9951 -->
<g id="node10" class="node">
<title>9951</title>
<path fill="#f0b68d" stroke="black" d="M625,-296.5C625,-296.5 483,-296.5 483,-296.5 477,-296.5 471,-290.5 471,-284.5 471,-284.5 471,-214.25 471,-214.25 471,-208.25 477,-202.25 483,-202.25 483,-202.25 625,-202.25 625,-202.25 631,-202.25 637,-208.25 637,-214.25 637,-214.25 637,-284.5 637,-284.5 637,-290.5 631,-296.5 625,-296.5"/>
<text text-anchor="middle" x="554" y="-279.2" font-family="Helvetica,sans-Serif" font-size="14.00">19_U &lt;= 0.5</text>
<text text-anchor="middle" x="554" y="-261.95" font-family="Helvetica,sans-Serif" font-size="14.00">entropy = 0.878</text>
<text text-anchor="middle" x="554" y="-244.7" font-family="Helvetica,sans-Serif" font-size="14.00">samples = 6245</text>
<text text-anchor="middle" x="554" y="-227.45" font-family="Helvetica,sans-Serif" font-size="14.00">value = [6950, 2941]</text>
<text text-anchor="middle" x="554" y="-210.2" font-family="Helvetica,sans-Serif" font-size="14.00">class = Animal</text>
</g>
<!-- 1&#45;&gt;9951 -->
<g id="edge9" class="edge">
<title>1&#45;&gt;9951</title>
<path fill="none" stroke="black" d="M554,-332.32C554,-324.42 554,-316.13 554,-307.98"/>
<polygon fill="black" stroke="black" points="557.5,-308.12 554,-298.12 550.5,-308.12 557.5,-308.12"/>
</g>
<!-- 3 -->
<g id="node4" class="node">
<title>3</title>
<path fill="#fdfeff" stroke="black" d="M172,-166.25C172,-166.25 12,-166.25 12,-166.25 6,-166.25 0,-160.25 0,-154.25 0,-154.25 0,-84 0,-84 0,-78 6,-72 12,-72 12,-72 172,-72 172,-72 178,-72 184,-78 184,-84 184,-84 184,-154.25 184,-154.25 184,-160.25 178,-166.25 172,-166.25"/>
<text text-anchor="middle" x="92" y="-148.95" font-family="Helvetica,sans-Serif" font-size="14.00">22_A &lt;= 0.5</text>
<text text-anchor="middle" x="92" y="-131.7" font-family="Helvetica,sans-Serif" font-size="14.00">entropy = 1.0</text>
<text text-anchor="middle" x="92" y="-114.45" font-family="Helvetica,sans-Serif" font-size="14.00">samples = 13889</text>
<text text-anchor="middle" x="92" y="-97.2" font-family="Helvetica,sans-Serif" font-size="14.00">value = [10998, 11122]</text>
<text text-anchor="middle" x="92" y="-79.95" font-family="Helvetica,sans-Serif" font-size="14.00">class = Plant</text>
</g>
<!-- 2&#45;&gt;3 -->
<g id="edge3" class="edge">
<title>2&#45;&gt;3</title>
<path fill="none" stroke="black" d="M215.05,-201.89C200.89,-192.48 185.9,-182.53 171.45,-172.92"/>
<polygon fill="black" stroke="black" points="173.56,-170.12 163.3,-167.5 169.69,-175.95 173.56,-170.12"/>
</g>
<!-- 7086 -->
<g id="node7" class="node">
<title>7086</title>
<path fill="#f5cfb4" stroke="black" d="M356,-166.25C356,-166.25 214,-166.25 214,-166.25 208,-166.25 202,-160.25 202,-154.25 202,-154.25 202,-84 202,-84 202,-78 208,-72 214,-72 214,-72 356,-72 356,-72 362,-72 368,-78 368,-84 368,-84 368,-154.25 368,-154.25 368,-160.25 362,-166.25 356,-166.25"/>
<text text-anchor="middle" x="285" y="-148.95" font-family="Helvetica,sans-Serif" font-size="14.00">22_G &lt;= 0.5</text>
<text text-anchor="middle" x="285" y="-131.7" font-family="Helvetica,sans-Serif" font-size="14.00">entropy = 0.96</text>
<text text-anchor="middle" x="285" y="-114.45" font-family="Helvetica,sans-Serif" font-size="14.00">samples = 5634</text>
<text text-anchor="middle" x="285" y="-97.2" font-family="Helvetica,sans-Serif" font-size="14.00">value = [5517, 3425]</text>
<text text-anchor="middle" x="285" y="-79.95" font-family="Helvetica,sans-Serif" font-size="14.00">class = Animal</text>
</g>
<!-- 2&#45;&gt;7086 -->
<g id="edge6" class="edge">
<title>2&#45;&gt;7086</title>
<path fill="none" stroke="black" d="M285,-202.07C285,-194.17 285,-185.88 285,-177.73"/>
<polygon fill="black" stroke="black" points="288.5,-177.87 285,-167.87 281.5,-177.87 288.5,-177.87"/>
</g>
<!-- 4 -->
<g id="node5" class="node">
<title>4</title>
<path fill="#c0c0c0" stroke="black" d="M71,-36C71,-36 41,-36 41,-36 35,-36 29,-30 29,-24 29,-24 29,-12 29,-12 29,-6 35,0 41,0 41,0 71,0 71,0 77,0 83,-6 83,-12 83,-12 83,-24 83,-24 83,-30 77,-36 71,-36"/>
<text text-anchor="middle" x="56" y="-13.32" font-family="Helvetica,sans-Serif" font-size="14.00">(...)</text>
</g>
<!-- 3&#45;&gt;4 -->
<g id="edge4" class="edge">
<title>3&#45;&gt;4</title>
<path fill="none" stroke="black" d="M75.16,-71.75C72.06,-63.22 68.92,-54.57 66.1,-46.8"/>
<polygon fill="black" stroke="black" points="69.46,-45.8 62.75,-37.6 62.88,-48.19 69.46,-45.8"/>
</g>
<!-- 6315 -->
<g id="node6" class="node">
<title>6315</title>
<path fill="#c0c0c0" stroke="black" d="M143,-36C143,-36 113,-36 113,-36 107,-36 101,-30 101,-24 101,-24 101,-12 101,-12 101,-6 107,0 113,0 113,0 143,0 143,0 149,0 155,-6 155,-12 155,-12 155,-24 155,-24 155,-30 149,-36 143,-36"/>
<text text-anchor="middle" x="128" y="-13.32" font-family="Helvetica,sans-Serif" font-size="14.00">(...)</text>
</g>
<!-- 3&#45;&gt;6315 -->
<g id="edge5" class="edge">
<title>3&#45;&gt;6315</title>
<path fill="none" stroke="black" d="M108.84,-71.75C111.94,-63.22 115.08,-54.57 117.9,-46.8"/>
<polygon fill="black" stroke="black" points="121.12,-48.19 121.25,-37.6 114.54,-45.8 121.12,-48.19"/>
</g>
<!-- 7087 -->
<g id="node8" class="node">
<title>7087</title>
<path fill="#c0c0c0" stroke="black" d="M266,-36C266,-36 236,-36 236,-36 230,-36 224,-30 224,-24 224,-24 224,-12 224,-12 224,-6 230,0 236,0 236,0 266,0 266,0 272,0 278,-6 278,-12 278,-12 278,-24 278,-24 278,-30 272,-36 266,-36"/>
<text text-anchor="middle" x="251" y="-13.32" font-family="Helvetica,sans-Serif" font-size="14.00">(...)</text>
</g>
<!-- 7086&#45;&gt;7087 -->
<g id="edge7" class="edge">
<title>7086&#45;&gt;7087</title>
<path fill="none" stroke="black" d="M269.1,-71.75C266.17,-63.22 263.2,-54.57 260.53,-46.8"/>
<polygon fill="black" stroke="black" points="263.94,-45.93 257.38,-37.6 257.32,-48.2 263.94,-45.93"/>
</g>
<!-- 9632 -->
<g id="node9" class="node">
<title>9632</title>
<path fill="#c0c0c0" stroke="black" d="M338,-36C338,-36 308,-36 308,-36 302,-36 296,-30 296,-24 296,-24 296,-12 296,-12 296,-6 302,0 308,0 308,0 338,0 338,0 344,0 350,-6 350,-12 350,-12 350,-24 350,-24 350,-30 344,-36 338,-36"/>
<text text-anchor="middle" x="323" y="-13.32" font-family="Helvetica,sans-Serif" font-size="14.00">(...)</text>
</g>
<!-- 7086&#45;&gt;9632 -->
<g id="edge8" class="edge">
<title>7086&#45;&gt;9632</title>
<path fill="none" stroke="black" d="M302.78,-71.75C306.05,-63.22 309.37,-54.57 312.34,-46.8"/>
<polygon fill="black" stroke="black" points="315.56,-48.18 315.88,-37.59 309.03,-45.67 315.56,-48.18"/>
</g>
<!-- 9952 -->
<g id="node11" class="node">
<title>9952</title>
<path fill="#f2c19e" stroke="black" d="M540,-166.25C540,-166.25 398,-166.25 398,-166.25 392,-166.25 386,-160.25 386,-154.25 386,-154.25 386,-84 386,-84 386,-78 392,-72 398,-72 398,-72 540,-72 540,-72 546,-72 552,-78 552,-84 552,-84 552,-154.25 552,-154.25 552,-160.25 546,-166.25 540,-166.25"/>
<text text-anchor="middle" x="469" y="-148.95" font-family="Helvetica,sans-Serif" font-size="14.00">18_G &lt;= 0.5</text>
<text text-anchor="middle" x="469" y="-131.7" font-family="Helvetica,sans-Serif" font-size="14.00">entropy = 0.922</text>
<text text-anchor="middle" x="469" y="-114.45" font-family="Helvetica,sans-Serif" font-size="14.00">samples = 3976</text>
<text text-anchor="middle" x="469" y="-97.2" font-family="Helvetica,sans-Serif" font-size="14.00">value = [4129, 2096]</text>
<text text-anchor="middle" x="469" y="-79.95" font-family="Helvetica,sans-Serif" font-size="14.00">class = Animal</text>
</g>
<!-- 9951&#45;&gt;9952 -->
<g id="edge10" class="edge">
<title>9951&#45;&gt;9952</title>
<path fill="none" stroke="black" d="M523.31,-202.07C517.66,-193.54 511.7,-184.54 505.88,-175.77"/>
<polygon fill="black" stroke="black" points="508.92,-174.02 500.48,-167.62 503.09,-177.89 508.92,-174.02"/>
</g>
<!-- 11759 -->
<g id="node14" class="node">
<title>11759</title>
<path fill="#eda774" stroke="black" d="M715.5,-166.25C715.5,-166.25 582.5,-166.25 582.5,-166.25 576.5,-166.25 570.5,-160.25 570.5,-154.25 570.5,-154.25 570.5,-84 570.5,-84 570.5,-78 576.5,-72 582.5,-72 582.5,-72 715.5,-72 715.5,-72 721.5,-72 727.5,-78 727.5,-84 727.5,-84 727.5,-154.25 727.5,-154.25 727.5,-160.25 721.5,-166.25 715.5,-166.25"/>
<text text-anchor="middle" x="649" y="-148.95" font-family="Helvetica,sans-Serif" font-size="14.00">23_A &lt;= 0.5</text>
<text text-anchor="middle" x="649" y="-131.7" font-family="Helvetica,sans-Serif" font-size="14.00">entropy = 0.779</text>
<text text-anchor="middle" x="649" y="-114.45" font-family="Helvetica,sans-Serif" font-size="14.00">samples = 2269</text>
<text text-anchor="middle" x="649" y="-97.2" font-family="Helvetica,sans-Serif" font-size="14.00">value = [2821, 845]</text>
<text text-anchor="middle" x="649" y="-79.95" font-family="Helvetica,sans-Serif" font-size="14.00">class = Animal</text>
</g>
<!-- 9951&#45;&gt;11759 -->
<g id="edge13" class="edge">
<title>9951&#45;&gt;11759</title>
<path fill="none" stroke="black" d="M588.3,-202.07C594.69,-193.45 601.42,-184.35 607.99,-175.49"/>
<polygon fill="black" stroke="black" points="610.71,-177.69 613.85,-167.57 605.09,-173.53 610.71,-177.69"/>
</g>
<!-- 9953 -->
<g id="node12" class="node">
<title>9953</title>
<path fill="#c0c0c0" stroke="black" d="M430,-36C430,-36 400,-36 400,-36 394,-36 388,-30 388,-24 388,-24 388,-12 388,-12 388,-6 394,0 400,0 400,0 430,0 430,0 436,0 442,-6 442,-12 442,-12 442,-24 442,-24 442,-30 436,-36 430,-36"/>
<text text-anchor="middle" x="415" y="-13.32" font-family="Helvetica,sans-Serif" font-size="14.00">(...)</text>
</g>
<!-- 9952&#45;&gt;9953 -->
<g id="edge11" class="edge">
<title>9952&#45;&gt;9953</title>
<path fill="none" stroke="black" d="M443.74,-71.75C438.98,-63.03 434.16,-54.16 429.85,-46.26"/>
<polygon fill="black" stroke="black" points="432.94,-44.61 425.08,-37.5 426.79,-47.96 432.94,-44.61"/>
</g>
<!-- 11202 -->
<g id="node13" class="node">
<title>11202</title>
<path fill="#c0c0c0" stroke="black" d="M502,-36C502,-36 472,-36 472,-36 466,-36 460,-30 460,-24 460,-24 460,-12 460,-12 460,-6 466,0 472,0 472,0 502,0 502,0 508,0 514,-6 514,-12 514,-12 514,-24 514,-24 514,-30 508,-36 502,-36"/>
<text text-anchor="middle" x="487" y="-13.32" font-family="Helvetica,sans-Serif" font-size="14.00">(...)</text>
</g>
<!-- 9952&#45;&gt;11202 -->
<g id="edge12" class="edge">
<title>9952&#45;&gt;11202</title>
<path fill="none" stroke="black" d="M477.42,-71.75C478.93,-63.42 480.47,-54.97 481.85,-47.34"/>
<polygon fill="black" stroke="black" points="485.27,-48.13 483.61,-37.66 478.38,-46.88 485.27,-48.13"/>
</g>
<!-- 11760 -->
<g id="node15" class="node">
<title>11760</title>
<path fill="#c0c0c0" stroke="black" d="M610,-36C610,-36 580,-36 580,-36 574,-36 568,-30 568,-24 568,-24 568,-12 568,-12 568,-6 574,0 580,0 580,0 610,0 610,0 616,0 622,-6 622,-12 622,-12 622,-24 622,-24 622,-30 616,-36 610,-36"/>
<text text-anchor="middle" x="595" y="-13.32" font-family="Helvetica,sans-Serif" font-size="14.00">(...)</text>
</g>
<!-- 11759&#45;&gt;11760 -->
<g id="edge14" class="edge">
<title>11759&#45;&gt;11760</title>
<path fill="none" stroke="black" d="M623.74,-71.75C618.98,-63.03 614.16,-54.16 609.85,-46.26"/>
<polygon fill="black" stroke="black" points="612.94,-44.61 605.08,-37.5 606.79,-47.96 612.94,-44.61"/>
</g>
<!-- 12681 -->
<g id="node16" class="node">
<title>12681</title>
<path fill="#c0c0c0" stroke="black" d="M682,-36C682,-36 652,-36 652,-36 646,-36 640,-30 640,-24 640,-24 640,-12 640,-12 640,-6 646,0 652,0 652,0 682,0 682,0 688,0 694,-6 694,-12 694,-12 694,-24 694,-24 694,-30 688,-36 682,-36"/>
<text text-anchor="middle" x="667" y="-13.32" font-family="Helvetica,sans-Serif" font-size="14.00">(...)</text>
</g>
<!-- 11759&#45;&gt;12681 -->
<g id="edge15" class="edge">
<title>11759&#45;&gt;12681</title>
<path fill="none" stroke="black" d="M657.42,-71.75C658.93,-63.42 660.47,-54.97 661.85,-47.34"/>
<polygon fill="black" stroke="black" points="665.27,-48.13 663.61,-37.66 658.38,-46.88 665.27,-48.13"/>
</g>
<!-- 12739 -->
<g id="node18" class="node">
<title>12739</title>
<path fill="#f1f8fd" stroke="black" d="M988,-296.5C988,-296.5 846,-296.5 846,-296.5 840,-296.5 834,-290.5 834,-284.5 834,-284.5 834,-214.25 834,-214.25 834,-208.25 840,-202.25 846,-202.25 846,-202.25 988,-202.25 988,-202.25 994,-202.25 1000,-208.25 1000,-214.25 1000,-214.25 1000,-284.5 1000,-284.5 1000,-290.5 994,-296.5 988,-296.5"/>
<text text-anchor="middle" x="917" y="-279.2" font-family="Helvetica,sans-Serif" font-size="14.00">4_A &lt;= 0.5</text>
<text text-anchor="middle" x="917" y="-261.95" font-family="Helvetica,sans-Serif" font-size="14.00">entropy = 0.999</text>
<text text-anchor="middle" x="917" y="-244.7" font-family="Helvetica,sans-Serif" font-size="14.00">samples = 5085</text>
<text text-anchor="middle" x="917" y="-227.45" font-family="Helvetica,sans-Serif" font-size="14.00">value = [3866, 4166]</text>
<text text-anchor="middle" x="917" y="-210.2" font-family="Helvetica,sans-Serif" font-size="14.00">class = Plant</text>
</g>
<!-- 12738&#45;&gt;12739 -->
<g id="edge17" class="edge">
<title>12738&#45;&gt;12739</title>
<path fill="none" stroke="black" d="M917,-332.32C917,-324.42 917,-316.13 917,-307.98"/>
<polygon fill="black" stroke="black" points="920.5,-308.12 917,-298.12 913.5,-308.12 920.5,-308.12"/>
</g>
<!-- 15048 -->
<g id="node25" class="node">
<title>15048</title>
<path fill="#80c0ee" stroke="black" d="M1260,-296.5C1260,-296.5 1118,-296.5 1118,-296.5 1112,-296.5 1106,-290.5 1106,-284.5 1106,-284.5 1106,-214.25 1106,-214.25 1106,-208.25 1112,-202.25 1118,-202.25 1118,-202.25 1260,-202.25 1260,-202.25 1266,-202.25 1272,-208.25 1272,-214.25 1272,-214.25 1272,-284.5 1272,-284.5 1272,-290.5 1266,-296.5 1260,-296.5"/>
<text text-anchor="middle" x="1189" y="-279.2" font-family="Helvetica,sans-Serif" font-size="14.00">8_U &lt;= 0.5</text>
<text text-anchor="middle" x="1189" y="-261.95" font-family="Helvetica,sans-Serif" font-size="14.00">entropy = 0.833</text>
<text text-anchor="middle" x="1189" y="-244.7" font-family="Helvetica,sans-Serif" font-size="14.00">samples = 7185</text>
<text text-anchor="middle" x="1189" y="-227.45" font-family="Helvetica,sans-Serif" font-size="14.00">value = [3003, 8357]</text>
<text text-anchor="middle" x="1189" y="-210.2" font-family="Helvetica,sans-Serif" font-size="14.00">class = Plant</text>
</g>
<!-- 12738&#45;&gt;15048 -->
<g id="edge24" class="edge">
<title>12738&#45;&gt;15048</title>
<path fill="none" stroke="black" d="M1004.93,-337.16C1033.81,-323.55 1066.01,-308.36 1095.3,-294.55"/>
<polygon fill="black" stroke="black" points="1096.61,-297.81 1104.16,-290.38 1093.62,-291.48 1096.61,-297.81"/>
</g>
<!-- 12740 -->
<g id="node19" class="node">
<title>12740</title>
<path fill="#fbe9dd" stroke="black" d="M900,-166.25C900,-166.25 758,-166.25 758,-166.25 752,-166.25 746,-160.25 746,-154.25 746,-154.25 746,-84 746,-84 746,-78 752,-72 758,-72 758,-72 900,-72 900,-72 906,-72 912,-78 912,-84 912,-84 912,-154.25 912,-154.25 912,-160.25 906,-166.25 900,-166.25"/>
<text text-anchor="middle" x="829" y="-148.95" font-family="Helvetica,sans-Serif" font-size="14.00">6_A &lt;= 0.5</text>
<text text-anchor="middle" x="829" y="-131.7" font-family="Helvetica,sans-Serif" font-size="14.00">entropy = 0.994</text>
<text text-anchor="middle" x="829" y="-114.45" font-family="Helvetica,sans-Serif" font-size="14.00">samples = 3561</text>
<text text-anchor="middle" x="829" y="-97.2" font-family="Helvetica,sans-Serif" font-size="14.00">value = [3063, 2533]</text>
<text text-anchor="middle" x="829" y="-79.95" font-family="Helvetica,sans-Serif" font-size="14.00">class = Animal</text>
</g>
<!-- 12739&#45;&gt;12740 -->
<g id="edge18" class="edge">
<title>12739&#45;&gt;12740</title>
<path fill="none" stroke="black" d="M885.23,-202.07C879.37,-193.54 873.2,-184.54 867.18,-175.77"/>
<polygon fill="black" stroke="black" points="870.12,-173.87 861.58,-167.61 864.35,-177.83 870.12,-173.87"/>
</g>
<!-- 14527 -->
<g id="node22" class="node">
<title>14527</title>
<path fill="#9acdf2" stroke="black" d="M1075.5,-166.25C1075.5,-166.25 942.5,-166.25 942.5,-166.25 936.5,-166.25 930.5,-160.25 930.5,-154.25 930.5,-154.25 930.5,-84 930.5,-84 930.5,-78 936.5,-72 942.5,-72 942.5,-72 1075.5,-72 1075.5,-72 1081.5,-72 1087.5,-78 1087.5,-84 1087.5,-84 1087.5,-154.25 1087.5,-154.25 1087.5,-160.25 1081.5,-166.25 1075.5,-166.25"/>
<text text-anchor="middle" x="1009" y="-148.95" font-family="Helvetica,sans-Serif" font-size="14.00">13_U &lt;= 0.5</text>
<text text-anchor="middle" x="1009" y="-131.7" font-family="Helvetica,sans-Serif" font-size="14.00">entropy = 0.915</text>
<text text-anchor="middle" x="1009" y="-114.45" font-family="Helvetica,sans-Serif" font-size="14.00">samples = 1524</text>
<text text-anchor="middle" x="1009" y="-97.2" font-family="Helvetica,sans-Serif" font-size="14.00">value = [803, 1633]</text>
<text text-anchor="middle" x="1009" y="-79.95" font-family="Helvetica,sans-Serif" font-size="14.00">class = Plant</text>
</g>
<!-- 12739&#45;&gt;14527 -->
<g id="edge21" class="edge">
<title>12739&#45;&gt;14527</title>
<path fill="none" stroke="black" d="M950.21,-202.07C956.4,-193.45 962.93,-184.35 969.29,-175.49"/>
<polygon fill="black" stroke="black" points="971.97,-177.75 974.95,-167.59 966.28,-173.67 971.97,-177.75"/>
</g>
<!-- 12741 -->
<g id="node20" class="node">
<title>12741</title>
<path fill="#c0c0c0" stroke="black" d="M790,-36C790,-36 760,-36 760,-36 754,-36 748,-30 748,-24 748,-24 748,-12 748,-12 748,-6 754,0 760,0 760,0 790,0 790,0 796,0 802,-6 802,-12 802,-12 802,-24 802,-24 802,-30 796,-36 790,-36"/>
<text text-anchor="middle" x="775" y="-13.32" font-family="Helvetica,sans-Serif" font-size="14.00">(...)</text>
</g>
<!-- 12740&#45;&gt;12741 -->
<g id="edge19" class="edge">
<title>12740&#45;&gt;12741</title>
<path fill="none" stroke="black" d="M803.74,-71.75C798.98,-63.03 794.16,-54.16 789.85,-46.26"/>
<polygon fill="black" stroke="black" points="792.94,-44.61 785.08,-37.5 786.79,-47.96 792.94,-44.61"/>
</g>
<!-- 14100 -->
<g id="node21" class="node">
<title>14100</title>
<path fill="#c0c0c0" stroke="black" d="M862,-36C862,-36 832,-36 832,-36 826,-36 820,-30 820,-24 820,-24 820,-12 820,-12 820,-6 826,0 832,0 832,0 862,0 862,0 868,0 874,-6 874,-12 874,-12 874,-24 874,-24 874,-30 868,-36 862,-36"/>
<text text-anchor="middle" x="847" y="-13.32" font-family="Helvetica,sans-Serif" font-size="14.00">(...)</text>
</g>
<!-- 12740&#45;&gt;14100 -->
<g id="edge20" class="edge">
<title>12740&#45;&gt;14100</title>
<path fill="none" stroke="black" d="M837.42,-71.75C838.93,-63.42 840.47,-54.97 841.85,-47.34"/>
<polygon fill="black" stroke="black" points="845.27,-48.13 843.61,-37.66 838.38,-46.88 845.27,-48.13"/>
</g>
<!-- 14528 -->
<g id="node23" class="node">
<title>14528</title>
<path fill="#c0c0c0" stroke="black" d="M970,-36C970,-36 940,-36 940,-36 934,-36 928,-30 928,-24 928,-24 928,-12 928,-12 928,-6 934,0 940,0 940,0 970,0 970,0 976,0 982,-6 982,-12 982,-12 982,-24 982,-24 982,-30 976,-36 970,-36"/>
<text text-anchor="middle" x="955" y="-13.32" font-family="Helvetica,sans-Serif" font-size="14.00">(...)</text>
</g>
<!-- 14527&#45;&gt;14528 -->
<g id="edge22" class="edge">
<title>14527&#45;&gt;14528</title>
<path fill="none" stroke="black" d="M983.74,-71.75C978.98,-63.03 974.16,-54.16 969.85,-46.26"/>
<polygon fill="black" stroke="black" points="972.94,-44.61 965.08,-37.5 966.79,-47.96 972.94,-44.61"/>
</g>
<!-- 14911 -->
<g id="node24" class="node">
<title>14911</title>
<path fill="#c0c0c0" stroke="black" d="M1042,-36C1042,-36 1012,-36 1012,-36 1006,-36 1000,-30 1000,-24 1000,-24 1000,-12 1000,-12 1000,-6 1006,0 1012,0 1012,0 1042,0 1042,0 1048,0 1054,-6 1054,-12 1054,-12 1054,-24 1054,-24 1054,-30 1048,-36 1042,-36"/>
<text text-anchor="middle" x="1027" y="-13.32" font-family="Helvetica,sans-Serif" font-size="14.00">(...)</text>
</g>
<!-- 14527&#45;&gt;14911 -->
<g id="edge23" class="edge">
<title>14527&#45;&gt;14911</title>
<path fill="none" stroke="black" d="M1017.42,-71.75C1018.93,-63.42 1020.47,-54.97 1021.85,-47.34"/>
<polygon fill="black" stroke="black" points="1025.27,-48.13 1023.61,-37.66 1018.38,-46.88 1025.27,-48.13"/>
</g>
<!-- 15049 -->
<g id="node26" class="node">
<title>15049</title>
<path fill="#74baed" stroke="black" d="M1260,-166.25C1260,-166.25 1118,-166.25 1118,-166.25 1112,-166.25 1106,-160.25 1106,-154.25 1106,-154.25 1106,-84 1106,-84 1106,-78 1112,-72 1118,-72 1118,-72 1260,-72 1260,-72 1266,-72 1272,-78 1272,-84 1272,-84 1272,-154.25 1272,-154.25 1272,-160.25 1266,-166.25 1260,-166.25"/>
<text text-anchor="middle" x="1189" y="-148.95" font-family="Helvetica,sans-Serif" font-size="14.00">4_U &lt;= 0.5</text>
<text text-anchor="middle" x="1189" y="-131.7" font-family="Helvetica,sans-Serif" font-size="14.00">entropy = 0.778</text>
<text text-anchor="middle" x="1189" y="-114.45" font-family="Helvetica,sans-Serif" font-size="14.00">samples = 5725</text>
<text text-anchor="middle" x="1189" y="-97.2" font-family="Helvetica,sans-Serif" font-size="14.00">value = [2083, 6969]</text>
<text text-anchor="middle" x="1189" y="-79.95" font-family="Helvetica,sans-Serif" font-size="14.00">class = Plant</text>
</g>
<!-- 15048&#45;&gt;15049 -->
<g id="edge25" class="edge">
<title>15048&#45;&gt;15049</title>
<path fill="none" stroke="black" d="M1189,-202.07C1189,-194.17 1189,-185.88 1189,-177.73"/>
<polygon fill="black" stroke="black" points="1192.5,-177.87 1189,-167.87 1185.5,-177.87 1192.5,-177.87"/>
</g>
<!-- 16396 -->
<g id="node29" class="node">
<title>16396</title>
<path fill="#bcdef6" stroke="black" d="M1435.5,-166.25C1435.5,-166.25 1302.5,-166.25 1302.5,-166.25 1296.5,-166.25 1290.5,-160.25 1290.5,-154.25 1290.5,-154.25 1290.5,-84 1290.5,-84 1290.5,-78 1296.5,-72 1302.5,-72 1302.5,-72 1435.5,-72 1435.5,-72 1441.5,-72 1447.5,-78 1447.5,-84 1447.5,-84 1447.5,-154.25 1447.5,-154.25 1447.5,-160.25 1441.5,-166.25 1435.5,-166.25"/>
<text text-anchor="middle" x="1369" y="-148.95" font-family="Helvetica,sans-Serif" font-size="14.00">9_A &lt;= 0.5</text>
<text text-anchor="middle" x="1369" y="-131.7" font-family="Helvetica,sans-Serif" font-size="14.00">entropy = 0.97</text>
<text text-anchor="middle" x="1369" y="-114.45" font-family="Helvetica,sans-Serif" font-size="14.00">samples = 1460</text>
<text text-anchor="middle" x="1369" y="-97.2" font-family="Helvetica,sans-Serif" font-size="14.00">value = [920, 1388]</text>
<text text-anchor="middle" x="1369" y="-79.95" font-family="Helvetica,sans-Serif" font-size="14.00">class = Plant</text>
</g>
<!-- 15048&#45;&gt;16396 -->
<g id="edge28" class="edge">
<title>15048&#45;&gt;16396</title>
<path fill="none" stroke="black" d="M1254.24,-201.89C1267.32,-192.57 1281.15,-182.72 1294.52,-173.19"/>
<polygon fill="black" stroke="black" points="1296.34,-176.2 1302.45,-167.54 1292.27,-170.49 1296.34,-176.2"/>
</g>
<!-- 15050 -->
<g id="node27" class="node">
<title>15050</title>
<path fill="#c0c0c0" stroke="black" d="M1168,-36C1168,-36 1138,-36 1138,-36 1132,-36 1126,-30 1126,-24 1126,-24 1126,-12 1126,-12 1126,-6 1132,0 1138,0 1138,0 1168,0 1168,0 1174,0 1180,-6 1180,-12 1180,-12 1180,-24 1180,-24 1180,-30 1174,-36 1168,-36"/>
<text text-anchor="middle" x="1153" y="-13.32" font-family="Helvetica,sans-Serif" font-size="14.00">(...)</text>
</g>
<!-- 15049&#45;&gt;15050 -->
<g id="edge26" class="edge">
<title>15049&#45;&gt;15050</title>
<path fill="none" stroke="black" d="M1172.16,-71.75C1169.06,-63.22 1165.92,-54.57 1163.1,-46.8"/>
<polygon fill="black" stroke="black" points="1166.46,-45.8 1159.75,-37.6 1159.88,-48.19 1166.46,-45.8"/>
</g>
<!-- 16129 -->
<g id="node28" class="node">
<title>16129</title>
<path fill="#c0c0c0" stroke="black" d="M1240,-36C1240,-36 1210,-36 1210,-36 1204,-36 1198,-30 1198,-24 1198,-24 1198,-12 1198,-12 1198,-6 1204,0 1210,0 1210,0 1240,0 1240,0 1246,0 1252,-6 1252,-12 1252,-12 1252,-24 1252,-24 1252,-30 1246,-36 1240,-36"/>
<text text-anchor="middle" x="1225" y="-13.32" font-family="Helvetica,sans-Serif" font-size="14.00">(...)</text>
</g>
<!-- 15049&#45;&gt;16129 -->
<g id="edge27" class="edge">
<title>15049&#45;&gt;16129</title>
<path fill="none" stroke="black" d="M1205.84,-71.75C1208.94,-63.22 1212.08,-54.57 1214.9,-46.8"/>
<polygon fill="black" stroke="black" points="1218.12,-48.19 1218.25,-37.6 1211.54,-45.8 1218.12,-48.19"/>
</g>
<!-- 16397 -->
<g id="node30" class="node">
<title>16397</title>
<path fill="#c0c0c0" stroke="black" d="M1348,-36C1348,-36 1318,-36 1318,-36 1312,-36 1306,-30 1306,-24 1306,-24 1306,-12 1306,-12 1306,-6 1312,0 1318,0 1318,0 1348,0 1348,0 1354,0 1360,-6 1360,-12 1360,-12 1360,-24 1360,-24 1360,-30 1354,-36 1348,-36"/>
<text text-anchor="middle" x="1333" y="-13.32" font-family="Helvetica,sans-Serif" font-size="14.00">(...)</text>
</g>
<!-- 16396&#45;&gt;16397 -->
<g id="edge29" class="edge">
<title>16396&#45;&gt;16397</title>
<path fill="none" stroke="black" d="M1352.16,-71.75C1349.06,-63.22 1345.92,-54.57 1343.1,-46.8"/>
<polygon fill="black" stroke="black" points="1346.46,-45.8 1339.75,-37.6 1339.88,-48.19 1346.46,-45.8"/>
</g>
<!-- 16840 -->
<g id="node31" class="node">
<title>16840</title>
<path fill="#c0c0c0" stroke="black" d="M1420,-36C1420,-36 1390,-36 1390,-36 1384,-36 1378,-30 1378,-24 1378,-24 1378,-12 1378,-12 1378,-6 1384,0 1390,0 1390,0 1420,0 1420,0 1426,0 1432,-6 1432,-12 1432,-12 1432,-24 1432,-24 1432,-30 1426,-36 1420,-36"/>
<text text-anchor="middle" x="1405" y="-13.32" font-family="Helvetica,sans-Serif" font-size="14.00">(...)</text>
</g>
<!-- 16396&#45;&gt;16840 -->
<g id="edge30" class="edge">
<title>16396&#45;&gt;16840</title>
<path fill="none" stroke="black" d="M1385.84,-71.75C1388.94,-63.22 1392.08,-54.57 1394.9,-46.8"/>
<polygon fill="black" stroke="black" points="1398.12,-48.19 1398.25,-37.6 1391.54,-45.8 1398.12,-48.19"/>
</g>
</g>
</svg>
