<?xml version="1.0" encoding="UTF-8" standalone="no"?>
<!DOCTYPE svg PUBLIC "-//W3C//DTD SVG 1.1//EN"
 "http://www.w3.org/Graphics/SVG/1.1/DTD/svg11.dtd">
<!-- Generated by graphviz version 12.0.0 (20240803.0821)
 -->
<!-- Title: Tree Pages: 1 -->
<svg width="1428pt" height="565pt"
 viewBox="0.00 0.00 1428.00 565.00" xmlns="http://www.w3.org/2000/svg" xmlns:xlink="http://www.w3.org/1999/xlink">
<g id="graph0" class="graph" transform="scale(1 1) rotate(0) translate(4 561)">
<title>Tree</title>
<polygon fill="white" stroke="none" points="-4,4 -4,-561 1424,-561 1424,4 -4,4"/>
<!-- 0 -->
<g id="node1" class="node">
<title>0</title>
<path fill="#fffefd" stroke="black" d="M803,-557C803,-557 643,-557 643,-557 637,-557 631,-551 631,-545 631,-545 631,-474.75 631,-474.75 631,-468.75 637,-462.75 643,-462.75 643,-462.75 803,-462.75 803,-462.75 809,-462.75 815,-468.75 815,-474.75 815,-474.75 815,-545 815,-545 815,-551 809,-557 803,-557"/>
<text text-anchor="middle" x="723" y="-539.7" font-family="Helvetica,sans-Serif" font-size="14.00">3_U &lt;= 0.5</text>
<text text-anchor="middle" x="723" y="-522.45" font-family="Helvetica,sans-Serif" font-size="14.00">entropy = 1.0</text>
<text text-anchor="middle" x="723" y="-505.2" font-family="Helvetica,sans-Serif" font-size="14.00">samples = 38257</text>
<text text-anchor="middle" x="723" y="-487.95" font-family="Helvetica,sans-Serif" font-size="14.00">value = [30338, 30007]</text>
<text text-anchor="middle" x="723" y="-470.7" font-family="Helvetica,sans-Serif" font-size="14.00">class = Animal</text>
</g>
<!-- 1 -->
<g id="node2" class="node">
<title>1</title>
<path fill="#f4f9fe" stroke="black" d="M633,-426.75C633,-426.75 473,-426.75 473,-426.75 467,-426.75 461,-420.75 461,-414.75 461,-414.75 461,-344.5 461,-344.5 461,-338.5 467,-332.5 473,-332.5 473,-332.5 633,-332.5 633,-332.5 639,-332.5 645,-338.5 645,-344.5 645,-344.5 645,-414.75 645,-414.75 645,-420.75 639,-426.75 633,-426.75"/>
<text text-anchor="middle" x="553" y="-409.45" font-family="Helvetica,sans-Serif" font-size="14.00">19_C &lt;= 0.5</text>
<text text-anchor="middle" x="553" y="-392.2" font-family="Helvetica,sans-Serif" font-size="14.00">entropy = 0.999</text>
<text text-anchor="middle" x="553" y="-374.95" font-family="Helvetica,sans-Serif" font-size="14.00">samples = 30148</text>
<text text-anchor="middle" x="553" y="-357.7" font-family="Helvetica,sans-Serif" font-size="14.00">value = [23046, 24424]</text>
<text text-anchor="middle" x="553" y="-340.45" font-family="Helvetica,sans-Serif" font-size="14.00">class = Plant</text>
</g>
<!-- 0&#45;&gt;1 -->
<g id="edge1" class="edge">
<title>0&#45;&gt;1</title>
<path fill="none" stroke="black" d="M661.63,-462.57C649.3,-453.28 636.26,-443.44 623.66,-433.93"/>
<polygon fill="black" stroke="black" points="625.87,-431.21 615.78,-427.99 621.65,-436.8 625.87,-431.21"/>
<text text-anchor="middle" x="618.03" y="-447.16" font-family="Helvetica,sans-Serif" font-size="14.00">True</text>
</g>
<!-- 12360 -->
<g id="node17" class="node">
<title>12360</title>
<path fill="#f9e1d1" stroke="black" d="M978,-426.75C978,-426.75 836,-426.75 836,-426.75 830,-426.75 824,-420.75 824,-414.75 824,-414.75 824,-344.5 824,-344.5 824,-338.5 830,-332.5 836,-332.5 836,-332.5 978,-332.5 978,-332.5 984,-332.5 990,-338.5 990,-344.5 990,-344.5 990,-414.75 990,-414.75 990,-420.75 984,-426.75 978,-426.75"/>
<text text-anchor="middle" x="907" y="-409.45" font-family="Helvetica,sans-Serif" font-size="14.00">22_G &lt;= 0.5</text>
<text text-anchor="middle" x="907" y="-392.2" font-family="Helvetica,sans-Serif" font-size="14.00">entropy = 0.987</text>
<text text-anchor="middle" x="907" y="-374.95" font-family="Helvetica,sans-Serif" font-size="14.00">samples = 8109</text>
<text text-anchor="middle" x="907" y="-357.7" font-family="Helvetica,sans-Serif" font-size="14.00">value = [7292, 5583]</text>
<text text-anchor="middle" x="907" y="-340.45" font-family="Helvetica,sans-Serif" font-size="14.00">class = Animal</text>
</g>
<!-- 0&#45;&gt;12360 -->
<g id="edge16" class="edge">
<title>0&#45;&gt;12360</title>
<path fill="none" stroke="black" d="M789.69,-462.39C803.06,-453.07 817.2,-443.22 830.86,-433.69"/>
<polygon fill="black" stroke="black" points="832.79,-436.62 838.99,-428.03 828.78,-430.88 832.79,-436.62"/>
<text text-anchor="middle" x="835.84" y="-447.1" font-family="Helvetica,sans-Serif" font-size="14.00">False</text>
</g>
<!-- 2 -->
<g id="node3" class="node">
<title>2</title>
<path fill="#f9e0ce" stroke="black" d="M361,-296.5C361,-296.5 201,-296.5 201,-296.5 195,-296.5 189,-290.5 189,-284.5 189,-284.5 189,-214.25 189,-214.25 189,-208.25 195,-202.25 201,-202.25 201,-202.25 361,-202.25 361,-202.25 367,-202.25 373,-208.25 373,-214.25 373,-214.25 373,-284.5 373,-284.5 373,-290.5 367,-296.5 361,-296.5"/>
<text text-anchor="middle" x="281" y="-279.2" font-family="Helvetica,sans-Serif" font-size="14.00">22_G &lt;= 0.5</text>
<text text-anchor="middle" x="281" y="-261.95" font-family="Helvetica,sans-Serif" font-size="14.00">entropy = 0.986</text>
<text text-anchor="middle" x="281" y="-244.7" font-family="Helvetica,sans-Serif" font-size="14.00">samples = 20052</text>
<text text-anchor="middle" x="281" y="-227.45" font-family="Helvetica,sans-Serif" font-size="14.00">value = [18026, 13595]</text>
<text text-anchor="middle" x="281" y="-210.2" font-family="Helvetica,sans-Serif" font-size="14.00">class = Animal</text>
</g>
<!-- 1&#45;&gt;2 -->
<g id="edge2" class="edge">
<title>1&#45;&gt;2</title>
<path fill="none" stroke="black" d="M460.53,-335.03C435.76,-323.35 408.84,-310.65 383.56,-298.73"/>
<polygon fill="black" stroke="black" points="385.12,-295.6 374.58,-294.5 382.13,-301.93 385.12,-295.6"/>
</g>
<!-- 9225 -->
<g id="node10" class="node">
<title>9225</title>
<path fill="#95caf1" stroke="black" d="M628.5,-296.5C628.5,-296.5 477.5,-296.5 477.5,-296.5 471.5,-296.5 465.5,-290.5 465.5,-284.5 465.5,-284.5 465.5,-214.25 465.5,-214.25 465.5,-208.25 471.5,-202.25 477.5,-202.25 477.5,-202.25 628.5,-202.25 628.5,-202.25 634.5,-202.25 640.5,-208.25 640.5,-214.25 640.5,-214.25 640.5,-284.5 640.5,-284.5 640.5,-290.5 634.5,-296.5 628.5,-296.5"/>
<text text-anchor="middle" x="553" y="-279.2" font-family="Helvetica,sans-Serif" font-size="14.00">22_G &lt;= 0.5</text>
<text text-anchor="middle" x="553" y="-261.95" font-family="Helvetica,sans-Serif" font-size="14.00">entropy = 0.901</text>
<text text-anchor="middle" x="553" y="-244.7" font-family="Helvetica,sans-Serif" font-size="14.00">samples = 10096</text>
<text text-anchor="middle" x="553" y="-227.45" font-family="Helvetica,sans-Serif" font-size="14.00">value = [5020, 10829]</text>
<text text-anchor="middle" x="553" y="-210.2" font-family="Helvetica,sans-Serif" font-size="14.00">class = Plant</text>
</g>
<!-- 1&#45;&gt;9225 -->
<g id="edge9" class="edge">
<title>1&#45;&gt;9225</title>
<path fill="none" stroke="black" d="M553,-332.32C553,-324.42 553,-316.13 553,-307.98"/>
<polygon fill="black" stroke="black" points="556.5,-308.12 553,-298.12 549.5,-308.12 556.5,-308.12"/>
</g>
<!-- 3 -->
<g id="node4" class="node">
<title>3</title>
<path fill="#fcefe6" stroke="black" d="M172,-166.25C172,-166.25 12,-166.25 12,-166.25 6,-166.25 0,-160.25 0,-154.25 0,-154.25 0,-84 0,-84 0,-78 6,-72 12,-72 12,-72 172,-72 172,-72 178,-72 184,-78 184,-84 184,-84 184,-154.25 184,-154.25 184,-160.25 178,-166.25 172,-166.25"/>
<text text-anchor="middle" x="92" y="-148.95" font-family="Helvetica,sans-Serif" font-size="14.00">16_U &lt;= 0.5</text>
<text text-anchor="middle" x="92" y="-131.7" font-family="Helvetica,sans-Serif" font-size="14.00">entropy = 0.997</text>
<text text-anchor="middle" x="92" y="-114.45" font-family="Helvetica,sans-Serif" font-size="14.00">samples = 17164</text>
<text text-anchor="middle" x="92" y="-97.2" font-family="Helvetica,sans-Serif" font-size="14.00">value = [14468, 12616]</text>
<text text-anchor="middle" x="92" y="-79.95" font-family="Helvetica,sans-Serif" font-size="14.00">class = Animal</text>
</g>
<!-- 2&#45;&gt;3 -->
<g id="edge3" class="edge">
<title>2&#45;&gt;3</title>
<path fill="none" stroke="black" d="M212.5,-201.89C198.63,-192.48 183.96,-182.53 169.8,-172.92"/>
<polygon fill="black" stroke="black" points="172.08,-170.23 161.84,-167.51 168.15,-176.03 172.08,-170.23"/>
</g>
<!-- 8054 -->
<g id="node7" class="node">
<title>8054</title>
<path fill="#eca46f" stroke="black" d="M347.5,-166.25C347.5,-166.25 214.5,-166.25 214.5,-166.25 208.5,-166.25 202.5,-160.25 202.5,-154.25 202.5,-154.25 202.5,-84 202.5,-84 202.5,-78 208.5,-72 214.5,-72 214.5,-72 347.5,-72 347.5,-72 353.5,-72 359.5,-78 359.5,-84 359.5,-84 359.5,-154.25 359.5,-154.25 359.5,-160.25 353.5,-166.25 347.5,-166.25"/>
<text text-anchor="middle" x="281" y="-148.95" font-family="Helvetica,sans-Serif" font-size="14.00">15_A &lt;= 0.5</text>
<text text-anchor="middle" x="281" y="-131.7" font-family="Helvetica,sans-Serif" font-size="14.00">entropy = 0.752</text>
<text text-anchor="middle" x="281" y="-114.45" font-family="Helvetica,sans-Serif" font-size="14.00">samples = 2888</text>
<text text-anchor="middle" x="281" y="-97.2" font-family="Helvetica,sans-Serif" font-size="14.00">value = [3558, 979]</text>
<text text-anchor="middle" x="281" y="-79.95" font-family="Helvetica,sans-Serif" font-size="14.00">class = Animal</text>
</g>
<!-- 2&#45;&gt;8054 -->
<g id="edge6" class="edge">
<title>2&#45;&gt;8054</title>
<path fill="none" stroke="black" d="M281,-202.07C281,-194.17 281,-185.88 281,-177.73"/>
<polygon fill="black" stroke="black" points="284.5,-177.87 281,-167.87 277.5,-177.87 284.5,-177.87"/>
</g>
<!-- 4 -->
<g id="node5" class="node">
<title>4</title>
<path fill="#c0c0c0" stroke="black" d="M71,-36C71,-36 41,-36 41,-36 35,-36 29,-30 29,-24 29,-24 29,-12 29,-12 29,-6 35,0 41,0 41,0 71,0 71,0 77,0 83,-6 83,-12 83,-12 83,-24 83,-24 83,-30 77,-36 71,-36"/>
<text text-anchor="middle" x="56" y="-13.32" font-family="Helvetica,sans-Serif" font-size="14.00">(...)</text>
</g>
<!-- 3&#45;&gt;4 -->
<g id="edge4" class="edge">
<title>3&#45;&gt;4</title>
<path fill="none" stroke="black" d="M75.16,-71.75C72.06,-63.22 68.92,-54.57 66.1,-46.8"/>
<polygon fill="black" stroke="black" points="69.46,-45.8 62.75,-37.6 62.88,-48.19 69.46,-45.8"/>
</g>
<!-- 5873 -->
<g id="node6" class="node">
<title>5873</title>
<path fill="#c0c0c0" stroke="black" d="M143,-36C143,-36 113,-36 113,-36 107,-36 101,-30 101,-24 101,-24 101,-12 101,-12 101,-6 107,0 113,0 113,0 143,0 143,0 149,0 155,-6 155,-12 155,-12 155,-24 155,-24 155,-30 149,-36 143,-36"/>
<text text-anchor="middle" x="128" y="-13.32" font-family="Helvetica,sans-Serif" font-size="14.00">(...)</text>
</g>
<!-- 3&#45;&gt;5873 -->
<g id="edge5" class="edge">
<title>3&#45;&gt;5873</title>
<path fill="none" stroke="black" d="M108.84,-71.75C111.94,-63.22 115.08,-54.57 117.9,-46.8"/>
<polygon fill="black" stroke="black" points="121.12,-48.19 121.25,-37.6 114.54,-45.8 121.12,-48.19"/>
</g>
<!-- 8055 -->
<g id="node8" class="node">
<title>8055</title>
<path fill="#c0c0c0" stroke="black" d="M262,-36C262,-36 232,-36 232,-36 226,-36 220,-30 220,-24 220,-24 220,-12 220,-12 220,-6 226,0 232,0 232,0 262,0 262,0 268,0 274,-6 274,-12 274,-12 274,-24 274,-24 274,-30 268,-36 262,-36"/>
<text text-anchor="middle" x="247" y="-13.32" font-family="Helvetica,sans-Serif" font-size="14.00">(...)</text>
</g>
<!-- 8054&#45;&gt;8055 -->
<g id="edge7" class="edge">
<title>8054&#45;&gt;8055</title>
<path fill="none" stroke="black" d="M265.1,-71.75C262.17,-63.22 259.2,-54.57 256.53,-46.8"/>
<polygon fill="black" stroke="black" points="259.94,-45.93 253.38,-37.6 253.32,-48.2 259.94,-45.93"/>
</g>
<!-- 8880 -->
<g id="node9" class="node">
<title>8880</title>
<path fill="#c0c0c0" stroke="black" d="M334,-36C334,-36 304,-36 304,-36 298,-36 292,-30 292,-24 292,-24 292,-12 292,-12 292,-6 298,0 304,0 304,0 334,0 334,0 340,0 346,-6 346,-12 346,-12 346,-24 346,-24 346,-30 340,-36 334,-36"/>
<text text-anchor="middle" x="319" y="-13.32" font-family="Helvetica,sans-Serif" font-size="14.00">(...)</text>
</g>
<!-- 8054&#45;&gt;8880 -->
<g id="edge8" class="edge">
<title>8054&#45;&gt;8880</title>
<path fill="none" stroke="black" d="M298.78,-71.75C302.05,-63.22 305.37,-54.57 308.34,-46.8"/>
<polygon fill="black" stroke="black" points="311.56,-48.18 311.88,-37.59 305.03,-45.67 311.56,-48.18"/>
</g>
<!-- 9226 -->
<g id="node11" class="node">
<title>9226</title>
<path fill="#8ac5f0" stroke="black" d="M540.5,-166.25C540.5,-166.25 389.5,-166.25 389.5,-166.25 383.5,-166.25 377.5,-160.25 377.5,-154.25 377.5,-154.25 377.5,-84 377.5,-84 377.5,-78 383.5,-72 389.5,-72 389.5,-72 540.5,-72 540.5,-72 546.5,-72 552.5,-78 552.5,-84 552.5,-84 552.5,-154.25 552.5,-154.25 552.5,-160.25 546.5,-166.25 540.5,-166.25"/>
<text text-anchor="middle" x="465" y="-148.95" font-family="Helvetica,sans-Serif" font-size="14.00">5_G &lt;= 0.5</text>
<text text-anchor="middle" x="465" y="-131.7" font-family="Helvetica,sans-Serif" font-size="14.00">entropy = 0.868</text>
<text text-anchor="middle" x="465" y="-114.45" font-family="Helvetica,sans-Serif" font-size="14.00">samples = 9423</text>
<text text-anchor="middle" x="465" y="-97.2" font-family="Helvetica,sans-Serif" font-size="14.00">value = [4268, 10492]</text>
<text text-anchor="middle" x="465" y="-79.95" font-family="Helvetica,sans-Serif" font-size="14.00">class = Plant</text>
</g>
<!-- 9225&#45;&gt;9226 -->
<g id="edge10" class="edge">
<title>9225&#45;&gt;9226</title>
<path fill="none" stroke="black" d="M521.23,-202.07C515.37,-193.54 509.2,-184.54 503.18,-175.77"/>
<polygon fill="black" stroke="black" points="506.12,-173.87 497.58,-167.61 500.35,-177.83 506.12,-173.87"/>
</g>
<!-- 11991 -->
<g id="node14" class="node">
<title>11991</title>
<path fill="#f1b992" stroke="black" d="M707,-166.25C707,-166.25 583,-166.25 583,-166.25 577,-166.25 571,-160.25 571,-154.25 571,-154.25 571,-84 571,-84 571,-78 577,-72 583,-72 583,-72 707,-72 707,-72 713,-72 719,-78 719,-84 719,-84 719,-154.25 719,-154.25 719,-160.25 713,-166.25 707,-166.25"/>
<text text-anchor="middle" x="645" y="-148.95" font-family="Helvetica,sans-Serif" font-size="14.00">17_C &lt;= 0.5</text>
<text text-anchor="middle" x="645" y="-131.7" font-family="Helvetica,sans-Serif" font-size="14.00">entropy = 0.893</text>
<text text-anchor="middle" x="645" y="-114.45" font-family="Helvetica,sans-Serif" font-size="14.00">samples = 673</text>
<text text-anchor="middle" x="645" y="-97.2" font-family="Helvetica,sans-Serif" font-size="14.00">value = [752, 337]</text>
<text text-anchor="middle" x="645" y="-79.95" font-family="Helvetica,sans-Serif" font-size="14.00">class = Animal</text>
</g>
<!-- 9225&#45;&gt;11991 -->
<g id="edge13" class="edge">
<title>9225&#45;&gt;11991</title>
<path fill="none" stroke="black" d="M586.21,-202.07C592.4,-193.45 598.93,-184.35 605.29,-175.49"/>
<polygon fill="black" stroke="black" points="607.97,-177.75 610.95,-167.59 602.28,-173.67 607.97,-177.75"/>
</g>
<!-- 9227 -->
<g id="node12" class="node">
<title>9227</title>
<path fill="#c0c0c0" stroke="black" d="M426,-36C426,-36 396,-36 396,-36 390,-36 384,-30 384,-24 384,-24 384,-12 384,-12 384,-6 390,0 396,0 396,0 426,0 426,0 432,0 438,-6 438,-12 438,-12 438,-24 438,-24 438,-30 432,-36 426,-36"/>
<text text-anchor="middle" x="411" y="-13.32" font-family="Helvetica,sans-Serif" font-size="14.00">(...)</text>
</g>
<!-- 9226&#45;&gt;9227 -->
<g id="edge11" class="edge">
<title>9226&#45;&gt;9227</title>
<path fill="none" stroke="black" d="M439.74,-71.75C434.98,-63.03 430.16,-54.16 425.85,-46.26"/>
<polygon fill="black" stroke="black" points="428.94,-44.61 421.08,-37.5 422.79,-47.96 428.94,-44.61"/>
</g>
<!-- 11260 -->
<g id="node13" class="node">
<title>11260</title>
<path fill="#c0c0c0" stroke="black" d="M498,-36C498,-36 468,-36 468,-36 462,-36 456,-30 456,-24 456,-24 456,-12 456,-12 456,-6 462,0 468,0 468,0 498,0 498,0 504,0 510,-6 510,-12 510,-12 510,-24 510,-24 510,-30 504,-36 498,-36"/>
<text text-anchor="middle" x="483" y="-13.32" font-family="Helvetica,sans-Serif" font-size="14.00">(...)</text>
</g>
<!-- 9226&#45;&gt;11260 -->
<g id="edge12" class="edge">
<title>9226&#45;&gt;11260</title>
<path fill="none" stroke="black" d="M473.42,-71.75C474.93,-63.42 476.47,-54.97 477.85,-47.34"/>
<polygon fill="black" stroke="black" points="481.27,-48.13 479.61,-37.66 474.38,-46.88 481.27,-48.13"/>
</g>
<!-- 11992 -->
<g id="node15" class="node">
<title>11992</title>
<path fill="#c0c0c0" stroke="black" d="M603,-36C603,-36 573,-36 573,-36 567,-36 561,-30 561,-24 561,-24 561,-12 561,-12 561,-6 567,0 573,0 573,0 603,0 603,0 609,0 615,-6 615,-12 615,-12 615,-24 615,-24 615,-30 609,-36 603,-36"/>
<text text-anchor="middle" x="588" y="-13.32" font-family="Helvetica,sans-Serif" font-size="14.00">(...)</text>
</g>
<!-- 11991&#45;&gt;11992 -->
<g id="edge14" class="edge">
<title>11991&#45;&gt;11992</title>
<path fill="none" stroke="black" d="M618.34,-71.75C613.26,-62.93 608.1,-53.96 603.52,-45.99"/>
<polygon fill="black" stroke="black" points="606.65,-44.41 598.63,-37.48 600.58,-47.9 606.65,-44.41"/>
</g>
<!-- 12289 -->
<g id="node16" class="node">
<title>12289</title>
<path fill="#c0c0c0" stroke="black" d="M675,-36C675,-36 645,-36 645,-36 639,-36 633,-30 633,-24 633,-24 633,-12 633,-12 633,-6 639,0 645,0 645,0 675,0 675,0 681,0 687,-6 687,-12 687,-12 687,-24 687,-24 687,-30 681,-36 675,-36"/>
<text text-anchor="middle" x="660" y="-13.32" font-family="Helvetica,sans-Serif" font-size="14.00">(...)</text>
</g>
<!-- 11991&#45;&gt;12289 -->
<g id="edge15" class="edge">
<title>11991&#45;&gt;12289</title>
<path fill="none" stroke="black" d="M652.02,-71.75C653.28,-63.42 654.56,-54.97 655.71,-47.34"/>
<polygon fill="black" stroke="black" points="659.14,-48.08 657.17,-37.67 652.22,-47.03 659.14,-48.08"/>
</g>
<!-- 12361 -->
<g id="node18" class="node">
<title>12361</title>
<path fill="#fdf5ef" stroke="black" d="M978,-296.5C978,-296.5 836,-296.5 836,-296.5 830,-296.5 824,-290.5 824,-284.5 824,-284.5 824,-214.25 824,-214.25 824,-208.25 830,-202.25 836,-202.25 836,-202.25 978,-202.25 978,-202.25 984,-202.25 990,-208.25 990,-214.25 990,-214.25 990,-284.5 990,-284.5 990,-290.5 984,-296.5 978,-296.5"/>
<text text-anchor="middle" x="907" y="-279.2" font-family="Helvetica,sans-Serif" font-size="14.00">22_C &lt;= 0.5</text>
<text text-anchor="middle" x="907" y="-261.95" font-family="Helvetica,sans-Serif" font-size="14.00">entropy = 0.999</text>
<text text-anchor="middle" x="907" y="-244.7" font-family="Helvetica,sans-Serif" font-size="14.00">samples = 6806</text>
<text text-anchor="middle" x="907" y="-227.45" font-family="Helvetica,sans-Serif" font-size="14.00">value = [5616, 5157]</text>
<text text-anchor="middle" x="907" y="-210.2" font-family="Helvetica,sans-Serif" font-size="14.00">class = Animal</text>
</g>
<!-- 12360&#45;&gt;12361 -->
<g id="edge17" class="edge">
<title>12360&#45;&gt;12361</title>
<path fill="none" stroke="black" d="M907,-332.32C907,-324.42 907,-316.13 907,-307.98"/>
<polygon fill="black" stroke="black" points="910.5,-308.12 907,-298.12 903.5,-308.12 910.5,-308.12"/>
</g>
<!-- 16090 -->
<g id="node25" class="node">
<title>16090</title>
<path fill="#eca16b" stroke="black" d="M1241.5,-296.5C1241.5,-296.5 1108.5,-296.5 1108.5,-296.5 1102.5,-296.5 1096.5,-290.5 1096.5,-284.5 1096.5,-284.5 1096.5,-214.25 1096.5,-214.25 1096.5,-208.25 1102.5,-202.25 1108.5,-202.25 1108.5,-202.25 1241.5,-202.25 1241.5,-202.25 1247.5,-202.25 1253.5,-208.25 1253.5,-214.25 1253.5,-214.25 1253.5,-284.5 1253.5,-284.5 1253.5,-290.5 1247.5,-296.5 1241.5,-296.5"/>
<text text-anchor="middle" x="1175" y="-279.2" font-family="Helvetica,sans-Serif" font-size="14.00">2_U &lt;= 0.5</text>
<text text-anchor="middle" x="1175" y="-261.95" font-family="Helvetica,sans-Serif" font-size="14.00">entropy = 0.727</text>
<text text-anchor="middle" x="1175" y="-244.7" font-family="Helvetica,sans-Serif" font-size="14.00">samples = 1303</text>
<text text-anchor="middle" x="1175" y="-227.45" font-family="Helvetica,sans-Serif" font-size="14.00">value = [1676, 426]</text>
<text text-anchor="middle" x="1175" y="-210.2" font-family="Helvetica,sans-Serif" font-size="14.00">class = Animal</text>
</g>
<!-- 12360&#45;&gt;16090 -->
<g id="edge24" class="edge">
<title>12360&#45;&gt;16090</title>
<path fill="none" stroke="black" d="M990.33,-338.75C1020.7,-324.21 1055.14,-307.73 1085.99,-292.97"/>
<polygon fill="black" stroke="black" points="1087.43,-296.16 1094.94,-288.69 1084.4,-289.85 1087.43,-296.16"/>
</g>
<!-- 12362 -->
<g id="node19" class="node">
<title>12362</title>
<path fill="#f8fcfe" stroke="black" d="M891,-166.25C891,-166.25 749,-166.25 749,-166.25 743,-166.25 737,-160.25 737,-154.25 737,-154.25 737,-84 737,-84 737,-78 743,-72 749,-72 749,-72 891,-72 891,-72 897,-72 903,-78 903,-84 903,-84 903,-154.25 903,-154.25 903,-160.25 897,-166.25 891,-166.25"/>
<text text-anchor="middle" x="820" y="-148.95" font-family="Helvetica,sans-Serif" font-size="14.00">8_C &lt;= 0.5</text>
<text text-anchor="middle" x="820" y="-131.7" font-family="Helvetica,sans-Serif" font-size="14.00">entropy = 1.0</text>
<text text-anchor="middle" x="820" y="-114.45" font-family="Helvetica,sans-Serif" font-size="14.00">samples = 5851</text>
<text text-anchor="middle" x="820" y="-97.2" font-family="Helvetica,sans-Serif" font-size="14.00">value = [4538, 4703]</text>
<text text-anchor="middle" x="820" y="-79.95" font-family="Helvetica,sans-Serif" font-size="14.00">class = Plant</text>
</g>
<!-- 12361&#45;&gt;12362 -->
<g id="edge18" class="edge">
<title>12361&#45;&gt;12362</title>
<path fill="none" stroke="black" d="M875.59,-202.07C869.8,-193.54 863.7,-184.54 857.75,-175.77"/>
<polygon fill="black" stroke="black" points="860.72,-173.92 852.21,-167.61 854.93,-177.85 860.72,-173.92"/>
</g>
<!-- 15615 -->
<g id="node22" class="node">
<title>15615</title>
<path fill="#f0b68c" stroke="black" d="M1066.5,-166.25C1066.5,-166.25 933.5,-166.25 933.5,-166.25 927.5,-166.25 921.5,-160.25 921.5,-154.25 921.5,-154.25 921.5,-84 921.5,-84 921.5,-78 927.5,-72 933.5,-72 933.5,-72 1066.5,-72 1066.5,-72 1072.5,-72 1078.5,-78 1078.5,-84 1078.5,-84 1078.5,-154.25 1078.5,-154.25 1078.5,-160.25 1072.5,-166.25 1066.5,-166.25"/>
<text text-anchor="middle" x="1000" y="-148.95" font-family="Helvetica,sans-Serif" font-size="14.00">7_A &lt;= 0.5</text>
<text text-anchor="middle" x="1000" y="-131.7" font-family="Helvetica,sans-Serif" font-size="14.00">entropy = 0.877</text>
<text text-anchor="middle" x="1000" y="-114.45" font-family="Helvetica,sans-Serif" font-size="14.00">samples = 955</text>
<text text-anchor="middle" x="1000" y="-97.2" font-family="Helvetica,sans-Serif" font-size="14.00">value = [1078, 454]</text>
<text text-anchor="middle" x="1000" y="-79.95" font-family="Helvetica,sans-Serif" font-size="14.00">class = Animal</text>
</g>
<!-- 12361&#45;&gt;15615 -->
<g id="edge21" class="edge">
<title>12361&#45;&gt;15615</title>
<path fill="none" stroke="black" d="M940.58,-202.07C946.83,-193.45 953.43,-184.35 959.85,-175.49"/>
<polygon fill="black" stroke="black" points="962.55,-177.73 965.59,-167.58 956.88,-173.62 962.55,-177.73"/>
</g>
<!-- 12363 -->
<g id="node20" class="node">
<title>12363</title>
<path fill="#c0c0c0" stroke="black" d="M781,-36C781,-36 751,-36 751,-36 745,-36 739,-30 739,-24 739,-24 739,-12 739,-12 739,-6 745,0 751,0 751,0 781,0 781,0 787,0 793,-6 793,-12 793,-12 793,-24 793,-24 793,-30 787,-36 781,-36"/>
<text text-anchor="middle" x="766" y="-13.32" font-family="Helvetica,sans-Serif" font-size="14.00">(...)</text>
</g>
<!-- 12362&#45;&gt;12363 -->
<g id="edge19" class="edge">
<title>12362&#45;&gt;12363</title>
<path fill="none" stroke="black" d="M794.74,-71.75C789.98,-63.03 785.16,-54.16 780.85,-46.26"/>
<polygon fill="black" stroke="black" points="783.94,-44.61 776.08,-37.5 777.79,-47.96 783.94,-44.61"/>
</g>
<!-- 14754 -->
<g id="node21" class="node">
<title>14754</title>
<path fill="#c0c0c0" stroke="black" d="M853,-36C853,-36 823,-36 823,-36 817,-36 811,-30 811,-24 811,-24 811,-12 811,-12 811,-6 817,0 823,0 823,0 853,0 853,0 859,0 865,-6 865,-12 865,-12 865,-24 865,-24 865,-30 859,-36 853,-36"/>
<text text-anchor="middle" x="838" y="-13.32" font-family="Helvetica,sans-Serif" font-size="14.00">(...)</text>
</g>
<!-- 12362&#45;&gt;14754 -->
<g id="edge20" class="edge">
<title>12362&#45;&gt;14754</title>
<path fill="none" stroke="black" d="M828.42,-71.75C829.93,-63.42 831.47,-54.97 832.85,-47.34"/>
<polygon fill="black" stroke="black" points="836.27,-48.13 834.61,-37.66 829.38,-46.88 836.27,-48.13"/>
</g>
<!-- 15616 -->
<g id="node23" class="node">
<title>15616</title>
<path fill="#c0c0c0" stroke="black" d="M958,-36C958,-36 928,-36 928,-36 922,-36 916,-30 916,-24 916,-24 916,-12 916,-12 916,-6 922,0 928,0 928,0 958,0 958,0 964,0 970,-6 970,-12 970,-12 970,-24 970,-24 970,-30 964,-36 958,-36"/>
<text text-anchor="middle" x="943" y="-13.32" font-family="Helvetica,sans-Serif" font-size="14.00">(...)</text>
</g>
<!-- 15615&#45;&gt;15616 -->
<g id="edge22" class="edge">
<title>15615&#45;&gt;15616</title>
<path fill="none" stroke="black" d="M973.34,-71.75C968.26,-62.93 963.1,-53.96 958.52,-45.99"/>
<polygon fill="black" stroke="black" points="961.65,-44.41 953.63,-37.48 955.58,-47.9 961.65,-44.41"/>
</g>
<!-- 15975 -->
<g id="node24" class="node">
<title>15975</title>
<path fill="#c0c0c0" stroke="black" d="M1030,-36C1030,-36 1000,-36 1000,-36 994,-36 988,-30 988,-24 988,-24 988,-12 988,-12 988,-6 994,0 1000,0 1000,0 1030,0 1030,0 1036,0 1042,-6 1042,-12 1042,-12 1042,-24 1042,-24 1042,-30 1036,-36 1030,-36"/>
<text text-anchor="middle" x="1015" y="-13.32" font-family="Helvetica,sans-Serif" font-size="14.00">(...)</text>
</g>
<!-- 15615&#45;&gt;15975 -->
<g id="edge23" class="edge">
<title>15615&#45;&gt;15975</title>
<path fill="none" stroke="black" d="M1007.02,-71.75C1008.28,-63.42 1009.56,-54.97 1010.71,-47.34"/>
<polygon fill="black" stroke="black" points="1014.14,-48.08 1012.17,-37.67 1007.22,-47.03 1014.14,-48.08"/>
</g>
<!-- 16091 -->
<g id="node26" class="node">
<title>16091</title>
<path fill="#ea9a60" stroke="black" d="M1241.5,-166.25C1241.5,-166.25 1108.5,-166.25 1108.5,-166.25 1102.5,-166.25 1096.5,-160.25 1096.5,-154.25 1096.5,-154.25 1096.5,-84 1096.5,-84 1096.5,-78 1102.5,-72 1108.5,-72 1108.5,-72 1241.5,-72 1241.5,-72 1247.5,-72 1253.5,-78 1253.5,-84 1253.5,-84 1253.5,-154.25 1253.5,-154.25 1253.5,-160.25 1247.5,-166.25 1241.5,-166.25"/>
<text text-anchor="middle" x="1175" y="-148.95" font-family="Helvetica,sans-Serif" font-size="14.00">1_U &lt;= 0.5</text>
<text text-anchor="middle" x="1175" y="-131.7" font-family="Helvetica,sans-Serif" font-size="14.00">entropy = 0.647</text>
<text text-anchor="middle" x="1175" y="-114.45" font-family="Helvetica,sans-Serif" font-size="14.00">samples = 1114</text>
<text text-anchor="middle" x="1175" y="-97.2" font-family="Helvetica,sans-Serif" font-size="14.00">value = [1498, 297]</text>
<text text-anchor="middle" x="1175" y="-79.95" font-family="Helvetica,sans-Serif" font-size="14.00">class = Animal</text>
</g>
<!-- 16090&#45;&gt;16091 -->
<g id="edge25" class="edge">
<title>16090&#45;&gt;16091</title>
<path fill="none" stroke="black" d="M1175,-202.07C1175,-194.17 1175,-185.88 1175,-177.73"/>
<polygon fill="black" stroke="black" points="1178.5,-177.87 1175,-167.87 1171.5,-177.87 1178.5,-177.87"/>
</g>
<!-- 16436 -->
<g id="node29" class="node">
<title>16436</title>
<path fill="#f8dcc8" stroke="black" d="M1408,-166.25C1408,-166.25 1284,-166.25 1284,-166.25 1278,-166.25 1272,-160.25 1272,-154.25 1272,-154.25 1272,-84 1272,-84 1272,-78 1278,-72 1284,-72 1284,-72 1408,-72 1408,-72 1414,-72 1420,-78 1420,-84 1420,-84 1420,-154.25 1420,-154.25 1420,-160.25 1414,-166.25 1408,-166.25"/>
<text text-anchor="middle" x="1346" y="-148.95" font-family="Helvetica,sans-Serif" font-size="14.00">15_G &lt;= 0.5</text>
<text text-anchor="middle" x="1346" y="-131.7" font-family="Helvetica,sans-Serif" font-size="14.00">entropy = 0.982</text>
<text text-anchor="middle" x="1346" y="-114.45" font-family="Helvetica,sans-Serif" font-size="14.00">samples = 189</text>
<text text-anchor="middle" x="1346" y="-97.2" font-family="Helvetica,sans-Serif" font-size="14.00">value = [178, 129]</text>
<text text-anchor="middle" x="1346" y="-79.95" font-family="Helvetica,sans-Serif" font-size="14.00">class = Animal</text>
</g>
<!-- 16090&#45;&gt;16436 -->
<g id="edge28" class="edge">
<title>16090&#45;&gt;16436</title>
<path fill="none" stroke="black" d="M1236.73,-202.07C1249.13,-192.78 1262.25,-182.94 1274.93,-173.43"/>
<polygon fill="black" stroke="black" points="1276.96,-176.28 1282.86,-167.48 1272.76,-170.68 1276.96,-176.28"/>
</g>
<!-- 16092 -->
<g id="node27" class="node">
<title>16092</title>
<path fill="#c0c0c0" stroke="black" d="M1149,-36C1149,-36 1119,-36 1119,-36 1113,-36 1107,-30 1107,-24 1107,-24 1107,-12 1107,-12 1107,-6 1113,0 1119,0 1119,0 1149,0 1149,0 1155,0 1161,-6 1161,-12 1161,-12 1161,-24 1161,-24 1161,-30 1155,-36 1149,-36"/>
<text text-anchor="middle" x="1134" y="-13.32" font-family="Helvetica,sans-Serif" font-size="14.00">(...)</text>
</g>
<!-- 16091&#45;&gt;16092 -->
<g id="edge26" class="edge">
<title>16091&#45;&gt;16092</title>
<path fill="none" stroke="black" d="M1155.82,-71.75C1152.29,-63.22 1148.71,-54.57 1145.5,-46.8"/>
<polygon fill="black" stroke="black" points="1148.74,-45.47 1141.68,-37.57 1142.27,-48.15 1148.74,-45.47"/>
</g>
<!-- 16325 -->
<g id="node28" class="node">
<title>16325</title>
<path fill="#c0c0c0" stroke="black" d="M1221,-36C1221,-36 1191,-36 1191,-36 1185,-36 1179,-30 1179,-24 1179,-24 1179,-12 1179,-12 1179,-6 1185,0 1191,0 1191,0 1221,0 1221,0 1227,0 1233,-6 1233,-12 1233,-12 1233,-24 1233,-24 1233,-30 1227,-36 1221,-36"/>
<text text-anchor="middle" x="1206" y="-13.32" font-family="Helvetica,sans-Serif" font-size="14.00">(...)</text>
</g>
<!-- 16091&#45;&gt;16325 -->
<g id="edge27" class="edge">
<title>16091&#45;&gt;16325</title>
<path fill="none" stroke="black" d="M1189.5,-71.75C1192.14,-63.32 1194.81,-54.77 1197.22,-47.07"/>
<polygon fill="black" stroke="black" points="1200.53,-48.21 1200.18,-37.62 1193.85,-46.12 1200.53,-48.21"/>
</g>
<!-- 16437 -->
<g id="node30" class="node">
<title>16437</title>
<path fill="#c0c0c0" stroke="black" d="M1325,-36C1325,-36 1295,-36 1295,-36 1289,-36 1283,-30 1283,-24 1283,-24 1283,-12 1283,-12 1283,-6 1289,0 1295,0 1295,0 1325,0 1325,0 1331,0 1337,-6 1337,-12 1337,-12 1337,-24 1337,-24 1337,-30 1331,-36 1325,-36"/>
<text text-anchor="middle" x="1310" y="-13.32" font-family="Helvetica,sans-Serif" font-size="14.00">(...)</text>
</g>
<!-- 16436&#45;&gt;16437 -->
<g id="edge29" class="edge">
<title>16436&#45;&gt;16437</title>
<path fill="none" stroke="black" d="M1329.16,-71.75C1326.06,-63.22 1322.92,-54.57 1320.1,-46.8"/>
<polygon fill="black" stroke="black" points="1323.46,-45.8 1316.75,-37.6 1316.88,-48.19 1323.46,-45.8"/>
</g>
<!-- 16532 -->
<g id="node31" class="node">
<title>16532</title>
<path fill="#c0c0c0" stroke="black" d="M1397,-36C1397,-36 1367,-36 1367,-36 1361,-36 1355,-30 1355,-24 1355,-24 1355,-12 1355,-12 1355,-6 1361,0 1367,0 1367,0 1397,0 1397,0 1403,0 1409,-6 1409,-12 1409,-12 1409,-24 1409,-24 1409,-30 1403,-36 1397,-36"/>
<text text-anchor="middle" x="1382" y="-13.32" font-family="Helvetica,sans-Serif" font-size="14.00">(...)</text>
</g>
<!-- 16436&#45;&gt;16532 -->
<g id="edge30" class="edge">
<title>16436&#45;&gt;16532</title>
<path fill="none" stroke="black" d="M1362.84,-71.75C1365.94,-63.22 1369.08,-54.57 1371.9,-46.8"/>
<polygon fill="black" stroke="black" points="1375.12,-48.19 1375.25,-37.6 1368.54,-45.8 1375.12,-48.19"/>
</g>
</g>
</svg>
