<?xml version="1.0" encoding="UTF-8" standalone="no"?>
<!DOCTYPE svg PUBLIC "-//W3C//DTD SVG 1.1//EN"
 "http://www.w3.org/Graphics/SVG/1.1/DTD/svg11.dtd">
<!-- Generated by graphviz version 12.0.0 (20240803.0821)
 -->
<!-- Title: Tree Pages: 1 -->
<svg width="1445pt" height="565pt"
 viewBox="0.00 0.00 1444.50 565.00" xmlns="http://www.w3.org/2000/svg" xmlns:xlink="http://www.w3.org/1999/xlink">
<g id="graph0" class="graph" transform="scale(1 1) rotate(0) translate(4 561)">
<title>Tree</title>
<polygon fill="white" stroke="none" points="-4,4 -4,-561 1440.5,-561 1440.5,4 -4,4"/>
<!-- 0 -->
<g id="node1" class="node">
<title>0</title>
<path fill="#fdfeff" stroke="black" d="M799,-557C799,-557 639,-557 639,-557 633,-557 627,-551 627,-545 627,-545 627,-474.75 627,-474.75 627,-468.75 633,-462.75 639,-462.75 639,-462.75 799,-462.75 799,-462.75 805,-462.75 811,-468.75 811,-474.75 811,-474.75 811,-545 811,-545 811,-551 805,-557 799,-557"/>
<text text-anchor="middle" x="719" y="-539.7" font-family="Helvetica,sans-Serif" font-size="14.00">19_C &lt;= 0.5</text>
<text text-anchor="middle" x="719" y="-522.45" font-family="Helvetica,sans-Serif" font-size="14.00">entropy = 1.0</text>
<text text-anchor="middle" x="719" y="-505.2" font-family="Helvetica,sans-Serif" font-size="14.00">samples = 38234</text>
<text text-anchor="middle" x="719" y="-487.95" font-family="Helvetica,sans-Serif" font-size="14.00">value = [30008, 30337]</text>
<text text-anchor="middle" x="719" y="-470.7" font-family="Helvetica,sans-Serif" font-size="14.00">class = Plant</text>
</g>
<!-- 1 -->
<g id="node2" class="node">
<title>1</title>
<path fill="#f9e1d0" stroke="black" d="M620,-426.75C620,-426.75 460,-426.75 460,-426.75 454,-426.75 448,-420.75 448,-414.75 448,-414.75 448,-344.5 448,-344.5 448,-338.5 454,-332.5 460,-332.5 460,-332.5 620,-332.5 620,-332.5 626,-332.5 632,-338.5 632,-344.5 632,-344.5 632,-414.75 632,-414.75 632,-420.75 626,-426.75 620,-426.75"/>
<text text-anchor="middle" x="540" y="-409.45" font-family="Helvetica,sans-Serif" font-size="14.00">1_U &lt;= 0.5</text>
<text text-anchor="middle" x="540" y="-392.2" font-family="Helvetica,sans-Serif" font-size="14.00">entropy = 0.987</text>
<text text-anchor="middle" x="540" y="-374.95" font-family="Helvetica,sans-Serif" font-size="14.00">samples = 25913</text>
<text text-anchor="middle" x="540" y="-357.7" font-family="Helvetica,sans-Serif" font-size="14.00">value = [23198, 17636]</text>
<text text-anchor="middle" x="540" y="-340.45" font-family="Helvetica,sans-Serif" font-size="14.00">class = Animal</text>
</g>
<!-- 0&#45;&gt;1 -->
<g id="edge1" class="edge">
<title>0&#45;&gt;1</title>
<path fill="none" stroke="black" d="M654.12,-462.39C641.12,-453.07 627.36,-443.22 614.07,-433.69"/>
<polygon fill="black" stroke="black" points="616.35,-431.02 606.19,-428.05 612.28,-436.72 616.35,-431.02"/>
<text text-anchor="middle" x="609.03" y="-447.16" font-family="Helvetica,sans-Serif" font-size="14.00">True</text>
</g>
<!-- 12820 -->
<g id="node17" class="node">
<title>12820</title>
<path fill="#a3d2f3" stroke="black" d="M981.5,-426.75C981.5,-426.75 830.5,-426.75 830.5,-426.75 824.5,-426.75 818.5,-420.75 818.5,-414.75 818.5,-414.75 818.5,-344.5 818.5,-344.5 818.5,-338.5 824.5,-332.5 830.5,-332.5 830.5,-332.5 981.5,-332.5 981.5,-332.5 987.5,-332.5 993.5,-338.5 993.5,-344.5 993.5,-344.5 993.5,-414.75 993.5,-414.75 993.5,-420.75 987.5,-426.75 981.5,-426.75"/>
<text text-anchor="middle" x="906" y="-409.45" font-family="Helvetica,sans-Serif" font-size="14.00">2_A &lt;= 0.5</text>
<text text-anchor="middle" x="906" y="-392.2" font-family="Helvetica,sans-Serif" font-size="14.00">entropy = 0.933</text>
<text text-anchor="middle" x="906" y="-374.95" font-family="Helvetica,sans-Serif" font-size="14.00">samples = 12321</text>
<text text-anchor="middle" x="906" y="-357.7" font-family="Helvetica,sans-Serif" font-size="14.00">value = [6810, 12701]</text>
<text text-anchor="middle" x="906" y="-340.45" font-family="Helvetica,sans-Serif" font-size="14.00">class = Plant</text>
</g>
<!-- 0&#45;&gt;12820 -->
<g id="edge16" class="edge">
<title>0&#45;&gt;12820</title>
<path fill="none" stroke="black" d="M786.78,-462.39C800.49,-452.98 815.01,-443.03 829.02,-433.42"/>
<polygon fill="black" stroke="black" points="830.63,-436.56 836.89,-428.02 826.67,-430.79 830.63,-436.56"/>
<text text-anchor="middle" x="833.56" y="-447.07" font-family="Helvetica,sans-Serif" font-size="14.00">False</text>
</g>
<!-- 2 -->
<g id="node3" class="node">
<title>2</title>
<path fill="#f5cdb0" stroke="black" d="M342.5,-296.5C342.5,-296.5 191.5,-296.5 191.5,-296.5 185.5,-296.5 179.5,-290.5 179.5,-284.5 179.5,-284.5 179.5,-214.25 179.5,-214.25 179.5,-208.25 185.5,-202.25 191.5,-202.25 191.5,-202.25 342.5,-202.25 342.5,-202.25 348.5,-202.25 354.5,-208.25 354.5,-214.25 354.5,-214.25 354.5,-284.5 354.5,-284.5 354.5,-290.5 348.5,-296.5 342.5,-296.5"/>
<text text-anchor="middle" x="267" y="-279.2" font-family="Helvetica,sans-Serif" font-size="14.00">1_A &lt;= 0.5</text>
<text text-anchor="middle" x="267" y="-261.95" font-family="Helvetica,sans-Serif" font-size="14.00">entropy = 0.955</text>
<text text-anchor="middle" x="267" y="-244.7" font-family="Helvetica,sans-Serif" font-size="14.00">samples = 12910</text>
<text text-anchor="middle" x="267" y="-227.45" font-family="Helvetica,sans-Serif" font-size="14.00">value = [12763, 7697]</text>
<text text-anchor="middle" x="267" y="-210.2" font-family="Helvetica,sans-Serif" font-size="14.00">class = Animal</text>
</g>
<!-- 1&#45;&gt;2 -->
<g id="edge2" class="edge">
<title>1&#45;&gt;2</title>
<path fill="none" stroke="black" d="M447.57,-335.21C420.96,-322.7 391.85,-309.03 364.92,-296.38"/>
<polygon fill="black" stroke="black" points="366.63,-293.31 356.09,-292.23 363.65,-299.65 366.63,-293.31"/>
</g>
<!-- 7223 -->
<g id="node10" class="node">
<title>7223</title>
<path fill="#fef9f6" stroke="black" d="M615.5,-296.5C615.5,-296.5 464.5,-296.5 464.5,-296.5 458.5,-296.5 452.5,-290.5 452.5,-284.5 452.5,-284.5 452.5,-214.25 452.5,-214.25 452.5,-208.25 458.5,-202.25 464.5,-202.25 464.5,-202.25 615.5,-202.25 615.5,-202.25 621.5,-202.25 627.5,-208.25 627.5,-214.25 627.5,-214.25 627.5,-284.5 627.5,-284.5 627.5,-290.5 621.5,-296.5 615.5,-296.5"/>
<text text-anchor="middle" x="540" y="-279.2" font-family="Helvetica,sans-Serif" font-size="14.00">17_G &lt;= 0.5</text>
<text text-anchor="middle" x="540" y="-261.95" font-family="Helvetica,sans-Serif" font-size="14.00">entropy = 1.0</text>
<text text-anchor="middle" x="540" y="-244.7" font-family="Helvetica,sans-Serif" font-size="14.00">samples = 13003</text>
<text text-anchor="middle" x="540" y="-227.45" font-family="Helvetica,sans-Serif" font-size="14.00">value = [10435, 9939]</text>
<text text-anchor="middle" x="540" y="-210.2" font-family="Helvetica,sans-Serif" font-size="14.00">class = Animal</text>
</g>
<!-- 1&#45;&gt;7223 -->
<g id="edge9" class="edge">
<title>1&#45;&gt;7223</title>
<path fill="none" stroke="black" d="M540,-332.32C540,-324.42 540,-316.13 540,-307.98"/>
<polygon fill="black" stroke="black" points="543.5,-308.12 540,-298.12 536.5,-308.12 543.5,-308.12"/>
</g>
<!-- 3 -->
<g id="node4" class="node">
<title>3</title>
<path fill="#f7d7c1" stroke="black" d="M154,-166.25C154,-166.25 12,-166.25 12,-166.25 6,-166.25 0,-160.25 0,-154.25 0,-154.25 0,-84 0,-84 0,-78 6,-72 12,-72 12,-72 154,-72 154,-72 160,-72 166,-78 166,-84 166,-84 166,-154.25 166,-154.25 166,-160.25 160,-166.25 154,-166.25"/>
<text text-anchor="middle" x="83" y="-148.95" font-family="Helvetica,sans-Serif" font-size="14.00">1_G &lt;= 0.5</text>
<text text-anchor="middle" x="83" y="-131.7" font-family="Helvetica,sans-Serif" font-size="14.00">entropy = 0.975</text>
<text text-anchor="middle" x="83" y="-114.45" font-family="Helvetica,sans-Serif" font-size="14.00">samples = 6882</text>
<text text-anchor="middle" x="83" y="-97.2" font-family="Helvetica,sans-Serif" font-size="14.00">value = [6428, 4412]</text>
<text text-anchor="middle" x="83" y="-79.95" font-family="Helvetica,sans-Serif" font-size="14.00">class = Animal</text>
</g>
<!-- 2&#45;&gt;3 -->
<g id="edge3" class="edge">
<title>2&#45;&gt;3</title>
<path fill="none" stroke="black" d="M200.31,-201.89C186.94,-192.57 172.8,-182.72 159.14,-173.19"/>
<polygon fill="black" stroke="black" points="161.22,-170.38 151.01,-167.53 157.21,-176.12 161.22,-170.38"/>
</g>
<!-- 4110 -->
<g id="node7" class="node">
<title>4110</title>
<path fill="#f2c2a0" stroke="black" d="M338,-166.25C338,-166.25 196,-166.25 196,-166.25 190,-166.25 184,-160.25 184,-154.25 184,-154.25 184,-84 184,-84 184,-78 190,-72 196,-72 196,-72 338,-72 338,-72 344,-72 350,-78 350,-84 350,-84 350,-154.25 350,-154.25 350,-160.25 344,-166.25 338,-166.25"/>
<text text-anchor="middle" x="267" y="-148.95" font-family="Helvetica,sans-Serif" font-size="14.00">10_A &lt;= 0.5</text>
<text text-anchor="middle" x="267" y="-131.7" font-family="Helvetica,sans-Serif" font-size="14.00">entropy = 0.926</text>
<text text-anchor="middle" x="267" y="-114.45" font-family="Helvetica,sans-Serif" font-size="14.00">samples = 6028</text>
<text text-anchor="middle" x="267" y="-97.2" font-family="Helvetica,sans-Serif" font-size="14.00">value = [6335, 3285]</text>
<text text-anchor="middle" x="267" y="-79.95" font-family="Helvetica,sans-Serif" font-size="14.00">class = Animal</text>
</g>
<!-- 2&#45;&gt;4110 -->
<g id="edge6" class="edge">
<title>2&#45;&gt;4110</title>
<path fill="none" stroke="black" d="M267,-202.07C267,-194.17 267,-185.88 267,-177.73"/>
<polygon fill="black" stroke="black" points="270.5,-177.87 267,-167.87 263.5,-177.87 270.5,-177.87"/>
</g>
<!-- 4 -->
<g id="node5" class="node">
<title>4</title>
<path fill="#c0c0c0" stroke="black" d="M62,-36C62,-36 32,-36 32,-36 26,-36 20,-30 20,-24 20,-24 20,-12 20,-12 20,-6 26,0 32,0 32,0 62,0 62,0 68,0 74,-6 74,-12 74,-12 74,-24 74,-24 74,-30 68,-36 62,-36"/>
<text text-anchor="middle" x="47" y="-13.32" font-family="Helvetica,sans-Serif" font-size="14.00">(...)</text>
</g>
<!-- 3&#45;&gt;4 -->
<g id="edge4" class="edge">
<title>3&#45;&gt;4</title>
<path fill="none" stroke="black" d="M66.16,-71.75C63.06,-63.22 59.92,-54.57 57.1,-46.8"/>
<polygon fill="black" stroke="black" points="60.46,-45.8 53.75,-37.6 53.88,-48.19 60.46,-45.8"/>
</g>
<!-- 2261 -->
<g id="node6" class="node">
<title>2261</title>
<path fill="#c0c0c0" stroke="black" d="M134,-36C134,-36 104,-36 104,-36 98,-36 92,-30 92,-24 92,-24 92,-12 92,-12 92,-6 98,0 104,0 104,0 134,0 134,0 140,0 146,-6 146,-12 146,-12 146,-24 146,-24 146,-30 140,-36 134,-36"/>
<text text-anchor="middle" x="119" y="-13.32" font-family="Helvetica,sans-Serif" font-size="14.00">(...)</text>
</g>
<!-- 3&#45;&gt;2261 -->
<g id="edge5" class="edge">
<title>3&#45;&gt;2261</title>
<path fill="none" stroke="black" d="M99.84,-71.75C102.94,-63.22 106.08,-54.57 108.9,-46.8"/>
<polygon fill="black" stroke="black" points="112.12,-48.19 112.25,-37.6 105.54,-45.8 112.12,-48.19"/>
</g>
<!-- 4111 -->
<g id="node8" class="node">
<title>4111</title>
<path fill="#c0c0c0" stroke="black" d="M250,-36C250,-36 220,-36 220,-36 214,-36 208,-30 208,-24 208,-24 208,-12 208,-12 208,-6 214,0 220,0 220,0 250,0 250,0 256,0 262,-6 262,-12 262,-12 262,-24 262,-24 262,-30 256,-36 250,-36"/>
<text text-anchor="middle" x="235" y="-13.32" font-family="Helvetica,sans-Serif" font-size="14.00">(...)</text>
</g>
<!-- 4110&#45;&gt;4111 -->
<g id="edge7" class="edge">
<title>4110&#45;&gt;4111</title>
<path fill="none" stroke="black" d="M252.03,-71.75C249.31,-63.32 246.55,-54.77 244.06,-47.07"/>
<polygon fill="black" stroke="black" points="247.41,-46.05 241.01,-37.61 240.75,-48.2 247.41,-46.05"/>
</g>
<!-- 6482 -->
<g id="node9" class="node">
<title>6482</title>
<path fill="#c0c0c0" stroke="black" d="M322,-36C322,-36 292,-36 292,-36 286,-36 280,-30 280,-24 280,-24 280,-12 280,-12 280,-6 286,0 292,0 292,0 322,0 322,0 328,0 334,-6 334,-12 334,-12 334,-24 334,-24 334,-30 328,-36 322,-36"/>
<text text-anchor="middle" x="307" y="-13.32" font-family="Helvetica,sans-Serif" font-size="14.00">(...)</text>
</g>
<!-- 4110&#45;&gt;6482 -->
<g id="edge8" class="edge">
<title>4110&#45;&gt;6482</title>
<path fill="none" stroke="black" d="M285.71,-71.75C289.15,-63.22 292.65,-54.57 295.78,-46.8"/>
<polygon fill="black" stroke="black" points="299.01,-48.16 299.5,-37.58 292.52,-45.54 299.01,-48.16"/>
</g>
<!-- 7224 -->
<g id="node11" class="node">
<title>7224</title>
<path fill="#fae8db" stroke="black" d="M522,-166.25C522,-166.25 380,-166.25 380,-166.25 374,-166.25 368,-160.25 368,-154.25 368,-154.25 368,-84 368,-84 368,-78 374,-72 380,-72 380,-72 522,-72 522,-72 528,-72 534,-78 534,-84 534,-84 534,-154.25 534,-154.25 534,-160.25 528,-166.25 522,-166.25"/>
<text text-anchor="middle" x="451" y="-148.95" font-family="Helvetica,sans-Serif" font-size="14.00">23_A &lt;= 0.5</text>
<text text-anchor="middle" x="451" y="-131.7" font-family="Helvetica,sans-Serif" font-size="14.00">entropy = 0.993</text>
<text text-anchor="middle" x="451" y="-114.45" font-family="Helvetica,sans-Serif" font-size="14.00">samples = 9468</text>
<text text-anchor="middle" x="451" y="-97.2" font-family="Helvetica,sans-Serif" font-size="14.00">value = [8148, 6651]</text>
<text text-anchor="middle" x="451" y="-79.95" font-family="Helvetica,sans-Serif" font-size="14.00">class = Animal</text>
</g>
<!-- 7223&#45;&gt;7224 -->
<g id="edge10" class="edge">
<title>7223&#45;&gt;7224</title>
<path fill="none" stroke="black" d="M507.87,-202.07C501.95,-193.54 495.7,-184.54 489.61,-175.77"/>
<polygon fill="black" stroke="black" points="492.52,-173.82 483.95,-167.6 486.77,-177.81 492.52,-173.82"/>
</g>
<!-- 11341 -->
<g id="node14" class="node">
<title>11341</title>
<path fill="#c3e1f7" stroke="black" d="M706,-166.25C706,-166.25 564,-166.25 564,-166.25 558,-166.25 552,-160.25 552,-154.25 552,-154.25 552,-84 552,-84 552,-78 558,-72 564,-72 564,-72 706,-72 706,-72 712,-72 718,-78 718,-84 718,-84 718,-154.25 718,-154.25 718,-160.25 712,-166.25 706,-166.25"/>
<text text-anchor="middle" x="635" y="-148.95" font-family="Helvetica,sans-Serif" font-size="14.00">9_G &lt;= 0.5</text>
<text text-anchor="middle" x="635" y="-131.7" font-family="Helvetica,sans-Serif" font-size="14.00">entropy = 0.977</text>
<text text-anchor="middle" x="635" y="-114.45" font-family="Helvetica,sans-Serif" font-size="14.00">samples = 3535</text>
<text text-anchor="middle" x="635" y="-97.2" font-family="Helvetica,sans-Serif" font-size="14.00">value = [2287, 3288]</text>
<text text-anchor="middle" x="635" y="-79.95" font-family="Helvetica,sans-Serif" font-size="14.00">class = Plant</text>
</g>
<!-- 7223&#45;&gt;11341 -->
<g id="edge13" class="edge">
<title>7223&#45;&gt;11341</title>
<path fill="none" stroke="black" d="M574.3,-202.07C580.69,-193.45 587.42,-184.35 593.99,-175.49"/>
<polygon fill="black" stroke="black" points="596.71,-177.69 599.85,-167.57 591.09,-173.53 596.71,-177.69"/>
</g>
<!-- 7225 -->
<g id="node12" class="node">
<title>7225</title>
<path fill="#c0c0c0" stroke="black" d="M414,-36C414,-36 384,-36 384,-36 378,-36 372,-30 372,-24 372,-24 372,-12 372,-12 372,-6 378,0 384,0 384,0 414,0 414,0 420,0 426,-6 426,-12 426,-12 426,-24 426,-24 426,-30 420,-36 414,-36"/>
<text text-anchor="middle" x="399" y="-13.32" font-family="Helvetica,sans-Serif" font-size="14.00">(...)</text>
</g>
<!-- 7224&#45;&gt;7225 -->
<g id="edge11" class="edge">
<title>7224&#45;&gt;7225</title>
<path fill="none" stroke="black" d="M426.67,-71.75C422.1,-63.03 417.45,-54.16 413.3,-46.26"/>
<polygon fill="black" stroke="black" points="416.46,-44.74 408.71,-37.51 410.26,-47.99 416.46,-44.74"/>
</g>
<!-- 11162 -->
<g id="node13" class="node">
<title>11162</title>
<path fill="#c0c0c0" stroke="black" d="M486,-36C486,-36 456,-36 456,-36 450,-36 444,-30 444,-24 444,-24 444,-12 444,-12 444,-6 450,0 456,0 456,0 486,0 486,0 492,0 498,-6 498,-12 498,-12 498,-24 498,-24 498,-30 492,-36 486,-36"/>
<text text-anchor="middle" x="471" y="-13.32" font-family="Helvetica,sans-Serif" font-size="14.00">(...)</text>
</g>
<!-- 7224&#45;&gt;11162 -->
<g id="edge12" class="edge">
<title>7224&#45;&gt;11162</title>
<path fill="none" stroke="black" d="M460.36,-71.75C462.04,-63.42 463.74,-54.97 465.28,-47.34"/>
<polygon fill="black" stroke="black" points="468.69,-48.15 467.24,-37.66 461.83,-46.77 468.69,-48.15"/>
</g>
<!-- 11342 -->
<g id="node15" class="node">
<title>11342</title>
<path fill="#c0c0c0" stroke="black" d="M598,-36C598,-36 568,-36 568,-36 562,-36 556,-30 556,-24 556,-24 556,-12 556,-12 556,-6 562,0 568,0 568,0 598,0 598,0 604,0 610,-6 610,-12 610,-12 610,-24 610,-24 610,-30 604,-36 598,-36"/>
<text text-anchor="middle" x="583" y="-13.32" font-family="Helvetica,sans-Serif" font-size="14.00">(...)</text>
</g>
<!-- 11341&#45;&gt;11342 -->
<g id="edge14" class="edge">
<title>11341&#45;&gt;11342</title>
<path fill="none" stroke="black" d="M610.67,-71.75C606.1,-63.03 601.45,-54.16 597.3,-46.26"/>
<polygon fill="black" stroke="black" points="600.46,-44.74 592.71,-37.51 594.26,-47.99 600.46,-44.74"/>
</g>
<!-- 12415 -->
<g id="node16" class="node">
<title>12415</title>
<path fill="#c0c0c0" stroke="black" d="M670,-36C670,-36 640,-36 640,-36 634,-36 628,-30 628,-24 628,-24 628,-12 628,-12 628,-6 634,0 640,0 640,0 670,0 670,0 676,0 682,-6 682,-12 682,-12 682,-24 682,-24 682,-30 676,-36 670,-36"/>
<text text-anchor="middle" x="655" y="-13.32" font-family="Helvetica,sans-Serif" font-size="14.00">(...)</text>
</g>
<!-- 11341&#45;&gt;12415 -->
<g id="edge15" class="edge">
<title>11341&#45;&gt;12415</title>
<path fill="none" stroke="black" d="M644.36,-71.75C646.04,-63.42 647.74,-54.97 649.28,-47.34"/>
<polygon fill="black" stroke="black" points="652.69,-48.15 651.24,-37.66 645.83,-46.77 652.69,-48.15"/>
</g>
<!-- 12821 -->
<g id="node18" class="node">
<title>12821</title>
<path fill="#8ec7f0" stroke="black" d="M981.5,-296.5C981.5,-296.5 830.5,-296.5 830.5,-296.5 824.5,-296.5 818.5,-290.5 818.5,-284.5 818.5,-284.5 818.5,-214.25 818.5,-214.25 818.5,-208.25 824.5,-202.25 830.5,-202.25 830.5,-202.25 981.5,-202.25 981.5,-202.25 987.5,-202.25 993.5,-208.25 993.5,-214.25 993.5,-214.25 993.5,-284.5 993.5,-284.5 993.5,-290.5 987.5,-296.5 981.5,-296.5"/>
<text text-anchor="middle" x="906" y="-279.2" font-family="Helvetica,sans-Serif" font-size="14.00">1_U &lt;= 0.5</text>
<text text-anchor="middle" x="906" y="-261.95" font-family="Helvetica,sans-Serif" font-size="14.00">entropy = 0.881</text>
<text text-anchor="middle" x="906" y="-244.7" font-family="Helvetica,sans-Serif" font-size="14.00">samples = 9739</text>
<text text-anchor="middle" x="906" y="-227.45" font-family="Helvetica,sans-Serif" font-size="14.00">value = [4625, 10794]</text>
<text text-anchor="middle" x="906" y="-210.2" font-family="Helvetica,sans-Serif" font-size="14.00">class = Plant</text>
</g>
<!-- 12820&#45;&gt;12821 -->
<g id="edge17" class="edge">
<title>12820&#45;&gt;12821</title>
<path fill="none" stroke="black" d="M906,-332.32C906,-324.42 906,-316.13 906,-307.98"/>
<polygon fill="black" stroke="black" points="909.5,-308.12 906,-298.12 902.5,-308.12 909.5,-308.12"/>
</g>
<!-- 16112 -->
<g id="node25" class="node">
<title>16112</title>
<path fill="#fcefe6" stroke="black" d="M1254,-296.5C1254,-296.5 1112,-296.5 1112,-296.5 1106,-296.5 1100,-290.5 1100,-284.5 1100,-284.5 1100,-214.25 1100,-214.25 1100,-208.25 1106,-202.25 1112,-202.25 1112,-202.25 1254,-202.25 1254,-202.25 1260,-202.25 1266,-208.25 1266,-214.25 1266,-214.25 1266,-284.5 1266,-284.5 1266,-290.5 1260,-296.5 1254,-296.5"/>
<text text-anchor="middle" x="1183" y="-279.2" font-family="Helvetica,sans-Serif" font-size="14.00">8_G &lt;= 0.5</text>
<text text-anchor="middle" x="1183" y="-261.95" font-family="Helvetica,sans-Serif" font-size="14.00">entropy = 0.997</text>
<text text-anchor="middle" x="1183" y="-244.7" font-family="Helvetica,sans-Serif" font-size="14.00">samples = 2582</text>
<text text-anchor="middle" x="1183" y="-227.45" font-family="Helvetica,sans-Serif" font-size="14.00">value = [2185, 1907]</text>
<text text-anchor="middle" x="1183" y="-210.2" font-family="Helvetica,sans-Serif" font-size="14.00">class = Animal</text>
</g>
<!-- 12820&#45;&gt;16112 -->
<g id="edge24" class="edge">
<title>12820&#45;&gt;16112</title>
<path fill="none" stroke="black" d="M993.64,-338.05C1024.12,-323.94 1058.41,-308.06 1089.35,-293.74"/>
<polygon fill="black" stroke="black" points="1090.73,-296.95 1098.33,-289.58 1087.78,-290.6 1090.73,-296.95"/>
</g>
<!-- 12822 -->
<g id="node19" class="node">
<title>12822</title>
<path fill="#d1e8f9" stroke="black" d="M890,-166.25C890,-166.25 748,-166.25 748,-166.25 742,-166.25 736,-160.25 736,-154.25 736,-154.25 736,-84 736,-84 736,-78 742,-72 748,-72 748,-72 890,-72 890,-72 896,-72 902,-78 902,-84 902,-84 902,-154.25 902,-154.25 902,-160.25 896,-166.25 890,-166.25"/>
<text text-anchor="middle" x="819" y="-148.95" font-family="Helvetica,sans-Serif" font-size="14.00">23_G &lt;= 0.5</text>
<text text-anchor="middle" x="819" y="-131.7" font-family="Helvetica,sans-Serif" font-size="14.00">entropy = 0.988</text>
<text text-anchor="middle" x="819" y="-114.45" font-family="Helvetica,sans-Serif" font-size="14.00">samples = 3663</text>
<text text-anchor="middle" x="819" y="-97.2" font-family="Helvetica,sans-Serif" font-size="14.00">value = [2509, 3263]</text>
<text text-anchor="middle" x="819" y="-79.95" font-family="Helvetica,sans-Serif" font-size="14.00">class = Plant</text>
</g>
<!-- 12821&#45;&gt;12822 -->
<g id="edge18" class="edge">
<title>12821&#45;&gt;12822</title>
<path fill="none" stroke="black" d="M874.59,-202.07C868.8,-193.54 862.7,-184.54 856.75,-175.77"/>
<polygon fill="black" stroke="black" points="859.72,-173.92 851.21,-167.61 853.93,-177.85 859.72,-173.92"/>
</g>
<!-- 14533 -->
<g id="node22" class="node">
<title>14533</title>
<path fill="#71b9ec" stroke="black" d="M1074,-166.25C1074,-166.25 932,-166.25 932,-166.25 926,-166.25 920,-160.25 920,-154.25 920,-154.25 920,-84 920,-84 920,-78 926,-72 932,-72 932,-72 1074,-72 1074,-72 1080,-72 1086,-78 1086,-84 1086,-84 1086,-154.25 1086,-154.25 1086,-160.25 1080,-166.25 1074,-166.25"/>
<text text-anchor="middle" x="1003" y="-148.95" font-family="Helvetica,sans-Serif" font-size="14.00">20_A &lt;= 0.5</text>
<text text-anchor="middle" x="1003" y="-131.7" font-family="Helvetica,sans-Serif" font-size="14.00">entropy = 0.759</text>
<text text-anchor="middle" x="1003" y="-114.45" font-family="Helvetica,sans-Serif" font-size="14.00">samples = 6076</text>
<text text-anchor="middle" x="1003" y="-97.2" font-family="Helvetica,sans-Serif" font-size="14.00">value = [2116, 7531]</text>
<text text-anchor="middle" x="1003" y="-79.95" font-family="Helvetica,sans-Serif" font-size="14.00">class = Plant</text>
</g>
<!-- 12821&#45;&gt;14533 -->
<g id="edge21" class="edge">
<title>12821&#45;&gt;14533</title>
<path fill="none" stroke="black" d="M941.02,-202.07C947.54,-193.45 954.42,-184.35 961.13,-175.49"/>
<polygon fill="black" stroke="black" points="963.88,-177.65 967.12,-167.57 958.3,-173.43 963.88,-177.65"/>
</g>
<!-- 12823 -->
<g id="node20" class="node">
<title>12823</title>
<path fill="#c0c0c0" stroke="black" d="M782,-36C782,-36 752,-36 752,-36 746,-36 740,-30 740,-24 740,-24 740,-12 740,-12 740,-6 746,0 752,0 752,0 782,0 782,0 788,0 794,-6 794,-12 794,-12 794,-24 794,-24 794,-30 788,-36 782,-36"/>
<text text-anchor="middle" x="767" y="-13.32" font-family="Helvetica,sans-Serif" font-size="14.00">(...)</text>
</g>
<!-- 12822&#45;&gt;12823 -->
<g id="edge19" class="edge">
<title>12822&#45;&gt;12823</title>
<path fill="none" stroke="black" d="M794.67,-71.75C790.1,-63.03 785.45,-54.16 781.3,-46.26"/>
<polygon fill="black" stroke="black" points="784.46,-44.74 776.71,-37.51 778.26,-47.99 784.46,-44.74"/>
</g>
<!-- 14458 -->
<g id="node21" class="node">
<title>14458</title>
<path fill="#c0c0c0" stroke="black" d="M854,-36C854,-36 824,-36 824,-36 818,-36 812,-30 812,-24 812,-24 812,-12 812,-12 812,-6 818,0 824,0 824,0 854,0 854,0 860,0 866,-6 866,-12 866,-12 866,-24 866,-24 866,-30 860,-36 854,-36"/>
<text text-anchor="middle" x="839" y="-13.32" font-family="Helvetica,sans-Serif" font-size="14.00">(...)</text>
</g>
<!-- 12822&#45;&gt;14458 -->
<g id="edge20" class="edge">
<title>12822&#45;&gt;14458</title>
<path fill="none" stroke="black" d="M828.36,-71.75C830.04,-63.42 831.74,-54.97 833.28,-47.34"/>
<polygon fill="black" stroke="black" points="836.69,-48.15 835.24,-37.66 829.83,-46.77 836.69,-48.15"/>
</g>
<!-- 14534 -->
<g id="node23" class="node">
<title>14534</title>
<path fill="#c0c0c0" stroke="black" d="M964,-36C964,-36 934,-36 934,-36 928,-36 922,-30 922,-24 922,-24 922,-12 922,-12 922,-6 928,0 934,0 934,0 964,0 964,0 970,0 976,-6 976,-12 976,-12 976,-24 976,-24 976,-30 970,-36 964,-36"/>
<text text-anchor="middle" x="949" y="-13.32" font-family="Helvetica,sans-Serif" font-size="14.00">(...)</text>
</g>
<!-- 14533&#45;&gt;14534 -->
<g id="edge22" class="edge">
<title>14533&#45;&gt;14534</title>
<path fill="none" stroke="black" d="M977.74,-71.75C972.98,-63.03 968.16,-54.16 963.85,-46.26"/>
<polygon fill="black" stroke="black" points="966.94,-44.61 959.08,-37.5 960.79,-47.96 966.94,-44.61"/>
</g>
<!-- 15651 -->
<g id="node24" class="node">
<title>15651</title>
<path fill="#c0c0c0" stroke="black" d="M1036,-36C1036,-36 1006,-36 1006,-36 1000,-36 994,-30 994,-24 994,-24 994,-12 994,-12 994,-6 1000,0 1006,0 1006,0 1036,0 1036,0 1042,0 1048,-6 1048,-12 1048,-12 1048,-24 1048,-24 1048,-30 1042,-36 1036,-36"/>
<text text-anchor="middle" x="1021" y="-13.32" font-family="Helvetica,sans-Serif" font-size="14.00">(...)</text>
</g>
<!-- 14533&#45;&gt;15651 -->
<g id="edge23" class="edge">
<title>14533&#45;&gt;15651</title>
<path fill="none" stroke="black" d="M1011.42,-71.75C1012.93,-63.42 1014.47,-54.97 1015.85,-47.34"/>
<polygon fill="black" stroke="black" points="1019.27,-48.13 1017.61,-37.66 1012.38,-46.88 1019.27,-48.13"/>
</g>
<!-- 16113 -->
<g id="node26" class="node">
<title>16113</title>
<path fill="#eeac7d" stroke="black" d="M1249.5,-166.25C1249.5,-166.25 1116.5,-166.25 1116.5,-166.25 1110.5,-166.25 1104.5,-160.25 1104.5,-154.25 1104.5,-154.25 1104.5,-84 1104.5,-84 1104.5,-78 1110.5,-72 1116.5,-72 1116.5,-72 1249.5,-72 1249.5,-72 1255.5,-72 1261.5,-78 1261.5,-84 1261.5,-84 1261.5,-154.25 1261.5,-154.25 1261.5,-160.25 1255.5,-166.25 1249.5,-166.25"/>
<text text-anchor="middle" x="1183" y="-148.95" font-family="Helvetica,sans-Serif" font-size="14.00">16_A &lt;= 0.5</text>
<text text-anchor="middle" x="1183" y="-131.7" font-family="Helvetica,sans-Serif" font-size="14.00">entropy = 0.818</text>
<text text-anchor="middle" x="1183" y="-114.45" font-family="Helvetica,sans-Serif" font-size="14.00">samples = 1510</text>
<text text-anchor="middle" x="1183" y="-97.2" font-family="Helvetica,sans-Serif" font-size="14.00">value = [1794, 612]</text>
<text text-anchor="middle" x="1183" y="-79.95" font-family="Helvetica,sans-Serif" font-size="14.00">class = Animal</text>
</g>
<!-- 16112&#45;&gt;16113 -->
<g id="edge25" class="edge">
<title>16112&#45;&gt;16113</title>
<path fill="none" stroke="black" d="M1183,-202.07C1183,-194.17 1183,-185.88 1183,-177.73"/>
<polygon fill="black" stroke="black" points="1186.5,-177.87 1183,-167.87 1179.5,-177.87 1186.5,-177.87"/>
</g>
<!-- 16802 -->
<g id="node29" class="node">
<title>16802</title>
<path fill="#75bbed" stroke="black" d="M1424.5,-166.25C1424.5,-166.25 1291.5,-166.25 1291.5,-166.25 1285.5,-166.25 1279.5,-160.25 1279.5,-154.25 1279.5,-154.25 1279.5,-84 1279.5,-84 1279.5,-78 1285.5,-72 1291.5,-72 1291.5,-72 1424.5,-72 1424.5,-72 1430.5,-72 1436.5,-78 1436.5,-84 1436.5,-84 1436.5,-154.25 1436.5,-154.25 1436.5,-160.25 1430.5,-166.25 1424.5,-166.25"/>
<text text-anchor="middle" x="1358" y="-148.95" font-family="Helvetica,sans-Serif" font-size="14.00">17_G &lt;= 0.5</text>
<text text-anchor="middle" x="1358" y="-131.7" font-family="Helvetica,sans-Serif" font-size="14.00">entropy = 0.781</text>
<text text-anchor="middle" x="1358" y="-114.45" font-family="Helvetica,sans-Serif" font-size="14.00">samples = 1072</text>
<text text-anchor="middle" x="1358" y="-97.2" font-family="Helvetica,sans-Serif" font-size="14.00">value = [391, 1295]</text>
<text text-anchor="middle" x="1358" y="-79.95" font-family="Helvetica,sans-Serif" font-size="14.00">class = Plant</text>
</g>
<!-- 16112&#45;&gt;16802 -->
<g id="edge28" class="edge">
<title>16112&#45;&gt;16802</title>
<path fill="none" stroke="black" d="M1246.18,-202.07C1258.99,-192.69 1272.55,-182.75 1285.64,-173.15"/>
<polygon fill="black" stroke="black" points="1287.4,-176.2 1293.4,-167.47 1283.26,-170.56 1287.4,-176.2"/>
</g>
<!-- 16114 -->
<g id="node27" class="node">
<title>16114</title>
<path fill="#c0c0c0" stroke="black" d="M1159,-36C1159,-36 1129,-36 1129,-36 1123,-36 1117,-30 1117,-24 1117,-24 1117,-12 1117,-12 1117,-6 1123,0 1129,0 1129,0 1159,0 1159,0 1165,0 1171,-6 1171,-12 1171,-12 1171,-24 1171,-24 1171,-30 1165,-36 1159,-36"/>
<text text-anchor="middle" x="1144" y="-13.32" font-family="Helvetica,sans-Serif" font-size="14.00">(...)</text>
</g>
<!-- 16113&#45;&gt;16114 -->
<g id="edge26" class="edge">
<title>16113&#45;&gt;16114</title>
<path fill="none" stroke="black" d="M1164.76,-71.75C1161.4,-63.22 1157.99,-54.57 1154.94,-46.8"/>
<polygon fill="black" stroke="black" points="1158.23,-45.61 1151.31,-37.58 1151.71,-48.17 1158.23,-45.61"/>
</g>
<!-- 16641 -->
<g id="node28" class="node">
<title>16641</title>
<path fill="#c0c0c0" stroke="black" d="M1231,-36C1231,-36 1201,-36 1201,-36 1195,-36 1189,-30 1189,-24 1189,-24 1189,-12 1189,-12 1189,-6 1195,0 1201,0 1201,0 1231,0 1231,0 1237,0 1243,-6 1243,-12 1243,-12 1243,-24 1243,-24 1243,-30 1237,-36 1231,-36"/>
<text text-anchor="middle" x="1216" y="-13.32" font-family="Helvetica,sans-Serif" font-size="14.00">(...)</text>
</g>
<!-- 16113&#45;&gt;16641 -->
<g id="edge27" class="edge">
<title>16113&#45;&gt;16641</title>
<path fill="none" stroke="black" d="M1198.44,-71.75C1201.24,-63.32 1204.09,-54.77 1206.66,-47.07"/>
<polygon fill="black" stroke="black" points="1209.97,-48.2 1209.8,-37.61 1203.33,-45.99 1209.97,-48.2"/>
</g>
<!-- 16803 -->
<g id="node30" class="node">
<title>16803</title>
<path fill="#c0c0c0" stroke="black" d="M1337,-36C1337,-36 1307,-36 1307,-36 1301,-36 1295,-30 1295,-24 1295,-24 1295,-12 1295,-12 1295,-6 1301,0 1307,0 1307,0 1337,0 1337,0 1343,0 1349,-6 1349,-12 1349,-12 1349,-24 1349,-24 1349,-30 1343,-36 1337,-36"/>
<text text-anchor="middle" x="1322" y="-13.32" font-family="Helvetica,sans-Serif" font-size="14.00">(...)</text>
</g>
<!-- 16802&#45;&gt;16803 -->
<g id="edge29" class="edge">
<title>16802&#45;&gt;16803</title>
<path fill="none" stroke="black" d="M1341.16,-71.75C1338.06,-63.22 1334.92,-54.57 1332.1,-46.8"/>
<polygon fill="black" stroke="black" points="1335.46,-45.8 1328.75,-37.6 1328.88,-48.19 1335.46,-45.8"/>
</g>
<!-- 16998 -->
<g id="node31" class="node">
<title>16998</title>
<path fill="#c0c0c0" stroke="black" d="M1409,-36C1409,-36 1379,-36 1379,-36 1373,-36 1367,-30 1367,-24 1367,-24 1367,-12 1367,-12 1367,-6 1373,0 1379,0 1379,0 1409,0 1409,0 1415,0 1421,-6 1421,-12 1421,-12 1421,-24 1421,-24 1421,-30 1415,-36 1409,-36"/>
<text text-anchor="middle" x="1394" y="-13.32" font-family="Helvetica,sans-Serif" font-size="14.00">(...)</text>
</g>
<!-- 16802&#45;&gt;16998 -->
<g id="edge30" class="edge">
<title>16802&#45;&gt;16998</title>
<path fill="none" stroke="black" d="M1374.84,-71.75C1377.94,-63.22 1381.08,-54.57 1383.9,-46.8"/>
<polygon fill="black" stroke="black" points="1387.12,-48.19 1387.25,-37.6 1380.54,-45.8 1387.12,-48.19"/>
</g>
</g>
</svg>
