<?xml version="1.0" encoding="UTF-8" standalone="no"?>
<!DOCTYPE svg PUBLIC "-//W3C//DTD SVG 1.1//EN"
 "http://www.w3.org/Graphics/SVG/1.1/DTD/svg11.dtd">
<!-- Generated by graphviz version 12.0.0 (20240803.0821)
 -->
<!-- Title: Tree Pages: 1 -->
<svg width="1409pt" height="565pt"
 viewBox="0.00 0.00 1409.00 565.00" xmlns="http://www.w3.org/2000/svg" xmlns:xlink="http://www.w3.org/1999/xlink">
<g id="graph0" class="graph" transform="scale(1 1) rotate(0) translate(4 561)">
<title>Tree</title>
<polygon fill="white" stroke="none" points="-4,4 -4,-561 1405,-561 1405,4 -4,4"/>
<!-- 0 -->
<g id="node1" class="node">
<title>0</title>
<path fill="#fcfeff" stroke="black" d="M798,-557C798,-557 638,-557 638,-557 632,-557 626,-551 626,-545 626,-545 626,-474.75 626,-474.75 626,-468.75 632,-462.75 638,-462.75 638,-462.75 798,-462.75 798,-462.75 804,-462.75 810,-468.75 810,-474.75 810,-474.75 810,-545 810,-545 810,-551 804,-557 798,-557"/>
<text text-anchor="middle" x="718" y="-539.7" font-family="Helvetica,sans-Serif" font-size="14.00">22_C &lt;= 0.5</text>
<text text-anchor="middle" x="718" y="-522.45" font-family="Helvetica,sans-Serif" font-size="14.00">entropy = 1.0</text>
<text text-anchor="middle" x="718" y="-505.2" font-family="Helvetica,sans-Serif" font-size="14.00">samples = 38038</text>
<text text-anchor="middle" x="718" y="-487.95" font-family="Helvetica,sans-Serif" font-size="14.00">value = [29963, 30382]</text>
<text text-anchor="middle" x="718" y="-470.7" font-family="Helvetica,sans-Serif" font-size="14.00">class = Plant</text>
</g>
<!-- 1 -->
<g id="node2" class="node">
<title>1</title>
<path fill="#ebf5fc" stroke="black" d="M630,-426.75C630,-426.75 470,-426.75 470,-426.75 464,-426.75 458,-420.75 458,-414.75 458,-414.75 458,-344.5 458,-344.5 458,-338.5 464,-332.5 470,-332.5 470,-332.5 630,-332.5 630,-332.5 636,-332.5 642,-338.5 642,-344.5 642,-344.5 642,-414.75 642,-414.75 642,-420.75 636,-426.75 630,-426.75"/>
<text text-anchor="middle" x="550" y="-409.45" font-family="Helvetica,sans-Serif" font-size="14.00">22_U &lt;= 0.5</text>
<text text-anchor="middle" x="550" y="-392.2" font-family="Helvetica,sans-Serif" font-size="14.00">entropy = 0.998</text>
<text text-anchor="middle" x="550" y="-374.95" font-family="Helvetica,sans-Serif" font-size="14.00">samples = 34342</text>
<text text-anchor="middle" x="550" y="-357.7" font-family="Helvetica,sans-Serif" font-size="14.00">value = [25830, 28677]</text>
<text text-anchor="middle" x="550" y="-340.45" font-family="Helvetica,sans-Serif" font-size="14.00">class = Plant</text>
</g>
<!-- 0&#45;&gt;1 -->
<g id="edge1" class="edge">
<title>0&#45;&gt;1</title>
<path fill="none" stroke="black" d="M657.35,-462.57C645.17,-453.28 632.28,-443.44 619.82,-433.93"/>
<polygon fill="black" stroke="black" points="622.12,-431.28 612.05,-427.99 617.87,-436.84 622.12,-431.28"/>
<text text-anchor="middle" x="614.17" y="-447.18" font-family="Helvetica,sans-Serif" font-size="14.00">True</text>
</g>
<!-- 14824 -->
<g id="node17" class="node">
<title>14824</title>
<path fill="#f0b58b" stroke="black" d="M971,-426.75C971,-426.75 829,-426.75 829,-426.75 823,-426.75 817,-420.75 817,-414.75 817,-414.75 817,-344.5 817,-344.5 817,-338.5 823,-332.5 829,-332.5 829,-332.5 971,-332.5 971,-332.5 977,-332.5 983,-338.5 983,-344.5 983,-344.5 983,-414.75 983,-414.75 983,-420.75 977,-426.75 971,-426.75"/>
<text text-anchor="middle" x="900" y="-409.45" font-family="Helvetica,sans-Serif" font-size="14.00">2_A &lt;= 0.5</text>
<text text-anchor="middle" x="900" y="-392.2" font-family="Helvetica,sans-Serif" font-size="14.00">entropy = 0.871</text>
<text text-anchor="middle" x="900" y="-374.95" font-family="Helvetica,sans-Serif" font-size="14.00">samples = 3696</text>
<text text-anchor="middle" x="900" y="-357.7" font-family="Helvetica,sans-Serif" font-size="14.00">value = [4133, 1705]</text>
<text text-anchor="middle" x="900" y="-340.45" font-family="Helvetica,sans-Serif" font-size="14.00">class = Animal</text>
</g>
<!-- 0&#45;&gt;14824 -->
<g id="edge16" class="edge">
<title>0&#45;&gt;14824</title>
<path fill="none" stroke="black" d="M783.96,-462.39C797.19,-453.07 811.18,-443.22 824.69,-433.69"/>
<polygon fill="black" stroke="black" points="826.56,-436.66 832.72,-428.04 822.53,-430.94 826.56,-436.66"/>
<text text-anchor="middle" x="829.69" y="-447.12" font-family="Helvetica,sans-Serif" font-size="14.00">False</text>
</g>
<!-- 2 -->
<g id="node3" class="node">
<title>2</title>
<path fill="#c5e2f7" stroke="black" d="M365,-296.5C365,-296.5 205,-296.5 205,-296.5 199,-296.5 193,-290.5 193,-284.5 193,-284.5 193,-214.25 193,-214.25 193,-208.25 199,-202.25 205,-202.25 205,-202.25 365,-202.25 365,-202.25 371,-202.25 377,-208.25 377,-214.25 377,-214.25 377,-284.5 377,-284.5 377,-290.5 371,-296.5 365,-296.5"/>
<text text-anchor="middle" x="285" y="-279.2" font-family="Helvetica,sans-Serif" font-size="14.00">9_U &lt;= 0.5</text>
<text text-anchor="middle" x="285" y="-261.95" font-family="Helvetica,sans-Serif" font-size="14.00">entropy = 0.978</text>
<text text-anchor="middle" x="285" y="-244.7" font-family="Helvetica,sans-Serif" font-size="14.00">samples = 29291</text>
<text text-anchor="middle" x="285" y="-227.45" font-family="Helvetica,sans-Serif" font-size="14.00">value = [19199, 27194]</text>
<text text-anchor="middle" x="285" y="-210.2" font-family="Helvetica,sans-Serif" font-size="14.00">class = Plant</text>
</g>
<!-- 1&#45;&gt;2 -->
<g id="edge2" class="edge">
<title>1&#45;&gt;2</title>
<path fill="none" stroke="black" d="M457.69,-333.95C435.05,-322.99 410.68,-311.2 387.59,-300.02"/>
<polygon fill="black" stroke="black" points="389.32,-296.97 378.79,-295.77 386.27,-303.27 389.32,-296.97"/>
</g>
<!-- 12975 -->
<g id="node10" class="node">
<title>12975</title>
<path fill="#eb9d65" stroke="black" d="M621,-296.5C621,-296.5 479,-296.5 479,-296.5 473,-296.5 467,-290.5 467,-284.5 467,-284.5 467,-214.25 467,-214.25 467,-208.25 473,-202.25 479,-202.25 479,-202.25 621,-202.25 621,-202.25 627,-202.25 633,-208.25 633,-214.25 633,-214.25 633,-284.5 633,-284.5 633,-290.5 627,-296.5 621,-296.5"/>
<text text-anchor="middle" x="550" y="-279.2" font-family="Helvetica,sans-Serif" font-size="14.00">8_A &lt;= 0.5</text>
<text text-anchor="middle" x="550" y="-261.95" font-family="Helvetica,sans-Serif" font-size="14.00">entropy = 0.686</text>
<text text-anchor="middle" x="550" y="-244.7" font-family="Helvetica,sans-Serif" font-size="14.00">samples = 5051</text>
<text text-anchor="middle" x="550" y="-227.45" font-family="Helvetica,sans-Serif" font-size="14.00">value = [6631, 1483]</text>
<text text-anchor="middle" x="550" y="-210.2" font-family="Helvetica,sans-Serif" font-size="14.00">class = Animal</text>
</g>
<!-- 1&#45;&gt;12975 -->
<g id="edge9" class="edge">
<title>1&#45;&gt;12975</title>
<path fill="none" stroke="black" d="M550,-332.32C550,-324.42 550,-316.13 550,-307.98"/>
<polygon fill="black" stroke="black" points="553.5,-308.12 550,-298.12 546.5,-308.12 553.5,-308.12"/>
</g>
<!-- 3 -->
<g id="node4" class="node">
<title>3</title>
<path fill="#add6f4" stroke="black" d="M172,-166.25C172,-166.25 12,-166.25 12,-166.25 6,-166.25 0,-160.25 0,-154.25 0,-154.25 0,-84 0,-84 0,-78 6,-72 12,-72 12,-72 172,-72 172,-72 178,-72 184,-78 184,-84 184,-84 184,-154.25 184,-154.25 184,-160.25 178,-166.25 172,-166.25"/>
<text text-anchor="middle" x="92" y="-148.95" font-family="Helvetica,sans-Serif" font-size="14.00">7_A &lt;= 0.5</text>
<text text-anchor="middle" x="92" y="-131.7" font-family="Helvetica,sans-Serif" font-size="14.00">entropy = 0.95</text>
<text text-anchor="middle" x="92" y="-114.45" font-family="Helvetica,sans-Serif" font-size="14.00">samples = 21399</text>
<text text-anchor="middle" x="92" y="-97.2" font-family="Helvetica,sans-Serif" font-size="14.00">value = [12515, 21379]</text>
<text text-anchor="middle" x="92" y="-79.95" font-family="Helvetica,sans-Serif" font-size="14.00">class = Plant</text>
</g>
<!-- 2&#45;&gt;3 -->
<g id="edge3" class="edge">
<title>2&#45;&gt;3</title>
<path fill="none" stroke="black" d="M215.05,-201.89C200.89,-192.48 185.9,-182.53 171.45,-172.92"/>
<polygon fill="black" stroke="black" points="173.56,-170.12 163.3,-167.5 169.69,-175.95 173.56,-170.12"/>
</g>
<!-- 9186 -->
<g id="node7" class="node">
<title>9186</title>
<path fill="#fcefe5" stroke="black" d="M356,-166.25C356,-166.25 214,-166.25 214,-166.25 208,-166.25 202,-160.25 202,-154.25 202,-154.25 202,-84 202,-84 202,-78 208,-72 214,-72 214,-72 356,-72 356,-72 362,-72 368,-78 368,-84 368,-84 368,-154.25 368,-154.25 368,-160.25 362,-166.25 356,-166.25"/>
<text text-anchor="middle" x="285" y="-148.95" font-family="Helvetica,sans-Serif" font-size="14.00">21_U &lt;= 0.5</text>
<text text-anchor="middle" x="285" y="-131.7" font-family="Helvetica,sans-Serif" font-size="14.00">entropy = 0.997</text>
<text text-anchor="middle" x="285" y="-114.45" font-family="Helvetica,sans-Serif" font-size="14.00">samples = 7892</text>
<text text-anchor="middle" x="285" y="-97.2" font-family="Helvetica,sans-Serif" font-size="14.00">value = [6684, 5815]</text>
<text text-anchor="middle" x="285" y="-79.95" font-family="Helvetica,sans-Serif" font-size="14.00">class = Animal</text>
</g>
<!-- 2&#45;&gt;9186 -->
<g id="edge6" class="edge">
<title>2&#45;&gt;9186</title>
<path fill="none" stroke="black" d="M285,-202.07C285,-194.17 285,-185.88 285,-177.73"/>
<polygon fill="black" stroke="black" points="288.5,-177.87 285,-167.87 281.5,-177.87 288.5,-177.87"/>
</g>
<!-- 4 -->
<g id="node5" class="node">
<title>4</title>
<path fill="#c0c0c0" stroke="black" d="M71,-36C71,-36 41,-36 41,-36 35,-36 29,-30 29,-24 29,-24 29,-12 29,-12 29,-6 35,0 41,0 41,0 71,0 71,0 77,0 83,-6 83,-12 83,-12 83,-24 83,-24 83,-30 77,-36 71,-36"/>
<text text-anchor="middle" x="56" y="-13.32" font-family="Helvetica,sans-Serif" font-size="14.00">(...)</text>
</g>
<!-- 3&#45;&gt;4 -->
<g id="edge4" class="edge">
<title>3&#45;&gt;4</title>
<path fill="none" stroke="black" d="M75.16,-71.75C72.06,-63.22 68.92,-54.57 66.1,-46.8"/>
<polygon fill="black" stroke="black" points="69.46,-45.8 62.75,-37.6 62.88,-48.19 69.46,-45.8"/>
</g>
<!-- 6753 -->
<g id="node6" class="node">
<title>6753</title>
<path fill="#c0c0c0" stroke="black" d="M143,-36C143,-36 113,-36 113,-36 107,-36 101,-30 101,-24 101,-24 101,-12 101,-12 101,-6 107,0 113,0 113,0 143,0 143,0 149,0 155,-6 155,-12 155,-12 155,-24 155,-24 155,-30 149,-36 143,-36"/>
<text text-anchor="middle" x="128" y="-13.32" font-family="Helvetica,sans-Serif" font-size="14.00">(...)</text>
</g>
<!-- 3&#45;&gt;6753 -->
<g id="edge5" class="edge">
<title>3&#45;&gt;6753</title>
<path fill="none" stroke="black" d="M108.84,-71.75C111.94,-63.22 115.08,-54.57 117.9,-46.8"/>
<polygon fill="black" stroke="black" points="121.12,-48.19 121.25,-37.6 114.54,-45.8 121.12,-48.19"/>
</g>
<!-- 9187 -->
<g id="node8" class="node">
<title>9187</title>
<path fill="#c0c0c0" stroke="black" d="M261,-36C261,-36 231,-36 231,-36 225,-36 219,-30 219,-24 219,-24 219,-12 219,-12 219,-6 225,0 231,0 231,0 261,0 261,0 267,0 273,-6 273,-12 273,-12 273,-24 273,-24 273,-30 267,-36 261,-36"/>
<text text-anchor="middle" x="246" y="-13.32" font-family="Helvetica,sans-Serif" font-size="14.00">(...)</text>
</g>
<!-- 9186&#45;&gt;9187 -->
<g id="edge7" class="edge">
<title>9186&#45;&gt;9187</title>
<path fill="none" stroke="black" d="M266.76,-71.75C263.4,-63.22 259.99,-54.57 256.94,-46.8"/>
<polygon fill="black" stroke="black" points="260.23,-45.61 253.31,-37.58 253.71,-48.17 260.23,-45.61"/>
</g>
<!-- 12148 -->
<g id="node9" class="node">
<title>12148</title>
<path fill="#c0c0c0" stroke="black" d="M333,-36C333,-36 303,-36 303,-36 297,-36 291,-30 291,-24 291,-24 291,-12 291,-12 291,-6 297,0 303,0 303,0 333,0 333,0 339,0 345,-6 345,-12 345,-12 345,-24 345,-24 345,-30 339,-36 333,-36"/>
<text text-anchor="middle" x="318" y="-13.32" font-family="Helvetica,sans-Serif" font-size="14.00">(...)</text>
</g>
<!-- 9186&#45;&gt;12148 -->
<g id="edge8" class="edge">
<title>9186&#45;&gt;12148</title>
<path fill="none" stroke="black" d="M300.44,-71.75C303.24,-63.32 306.09,-54.77 308.66,-47.07"/>
<polygon fill="black" stroke="black" points="311.97,-48.2 311.8,-37.61 305.33,-45.99 311.97,-48.2"/>
</g>
<!-- 12976 -->
<g id="node11" class="node">
<title>12976</title>
<path fill="#ea985d" stroke="black" d="M531.5,-166.25C531.5,-166.25 398.5,-166.25 398.5,-166.25 392.5,-166.25 386.5,-160.25 386.5,-154.25 386.5,-154.25 386.5,-84 386.5,-84 386.5,-78 392.5,-72 398.5,-72 398.5,-72 531.5,-72 531.5,-72 537.5,-72 543.5,-78 543.5,-84 543.5,-84 543.5,-154.25 543.5,-154.25 543.5,-160.25 537.5,-166.25 531.5,-166.25"/>
<text text-anchor="middle" x="465" y="-148.95" font-family="Helvetica,sans-Serif" font-size="14.00">24_C &lt;= 0.5</text>
<text text-anchor="middle" x="465" y="-131.7" font-family="Helvetica,sans-Serif" font-size="14.00">entropy = 0.623</text>
<text text-anchor="middle" x="465" y="-114.45" font-family="Helvetica,sans-Serif" font-size="14.00">samples = 3751</text>
<text text-anchor="middle" x="465" y="-97.2" font-family="Helvetica,sans-Serif" font-size="14.00">value = [5090, 936]</text>
<text text-anchor="middle" x="465" y="-79.95" font-family="Helvetica,sans-Serif" font-size="14.00">class = Animal</text>
</g>
<!-- 12975&#45;&gt;12976 -->
<g id="edge10" class="edge">
<title>12975&#45;&gt;12976</title>
<path fill="none" stroke="black" d="M519.31,-202.07C513.66,-193.54 507.7,-184.54 501.88,-175.77"/>
<polygon fill="black" stroke="black" points="504.92,-174.02 496.48,-167.62 499.09,-177.89 504.92,-174.02"/>
</g>
<!-- 14299 -->
<g id="node14" class="node">
<title>14299</title>
<path fill="#eeae7f" stroke="black" d="M706.5,-166.25C706.5,-166.25 573.5,-166.25 573.5,-166.25 567.5,-166.25 561.5,-160.25 561.5,-154.25 561.5,-154.25 561.5,-84 561.5,-84 561.5,-78 567.5,-72 573.5,-72 573.5,-72 706.5,-72 706.5,-72 712.5,-72 718.5,-78 718.5,-84 718.5,-84 718.5,-154.25 718.5,-154.25 718.5,-160.25 712.5,-166.25 706.5,-166.25"/>
<text text-anchor="middle" x="640" y="-148.95" font-family="Helvetica,sans-Serif" font-size="14.00">9_U &lt;= 0.5</text>
<text text-anchor="middle" x="640" y="-131.7" font-family="Helvetica,sans-Serif" font-size="14.00">entropy = 0.83</text>
<text text-anchor="middle" x="640" y="-114.45" font-family="Helvetica,sans-Serif" font-size="14.00">samples = 1300</text>
<text text-anchor="middle" x="640" y="-97.2" font-family="Helvetica,sans-Serif" font-size="14.00">value = [1541, 547]</text>
<text text-anchor="middle" x="640" y="-79.95" font-family="Helvetica,sans-Serif" font-size="14.00">class = Animal</text>
</g>
<!-- 12975&#45;&gt;14299 -->
<g id="edge13" class="edge">
<title>12975&#45;&gt;14299</title>
<path fill="none" stroke="black" d="M582.49,-202.07C588.48,-193.54 594.79,-184.54 600.95,-175.77"/>
<polygon fill="black" stroke="black" points="603.81,-177.79 606.69,-167.6 598.08,-173.77 603.81,-177.79"/>
</g>
<!-- 12977 -->
<g id="node12" class="node">
<title>12977</title>
<path fill="#c0c0c0" stroke="black" d="M423,-36C423,-36 393,-36 393,-36 387,-36 381,-30 381,-24 381,-24 381,-12 381,-12 381,-6 387,0 393,0 393,0 423,0 423,0 429,0 435,-6 435,-12 435,-12 435,-24 435,-24 435,-30 429,-36 423,-36"/>
<text text-anchor="middle" x="408" y="-13.32" font-family="Helvetica,sans-Serif" font-size="14.00">(...)</text>
</g>
<!-- 12976&#45;&gt;12977 -->
<g id="edge11" class="edge">
<title>12976&#45;&gt;12977</title>
<path fill="none" stroke="black" d="M438.34,-71.75C433.26,-62.93 428.1,-53.96 423.52,-45.99"/>
<polygon fill="black" stroke="black" points="426.65,-44.41 418.63,-37.48 420.58,-47.9 426.65,-44.41"/>
</g>
<!-- 14240 -->
<g id="node13" class="node">
<title>14240</title>
<path fill="#c0c0c0" stroke="black" d="M495,-36C495,-36 465,-36 465,-36 459,-36 453,-30 453,-24 453,-24 453,-12 453,-12 453,-6 459,0 465,0 465,0 495,0 495,0 501,0 507,-6 507,-12 507,-12 507,-24 507,-24 507,-30 501,-36 495,-36"/>
<text text-anchor="middle" x="480" y="-13.32" font-family="Helvetica,sans-Serif" font-size="14.00">(...)</text>
</g>
<!-- 12976&#45;&gt;14240 -->
<g id="edge12" class="edge">
<title>12976&#45;&gt;14240</title>
<path fill="none" stroke="black" d="M472.02,-71.75C473.28,-63.42 474.56,-54.97 475.71,-47.34"/>
<polygon fill="black" stroke="black" points="479.14,-48.08 477.17,-37.67 472.22,-47.03 479.14,-48.08"/>
</g>
<!-- 14300 -->
<g id="node15" class="node">
<title>14300</title>
<path fill="#c0c0c0" stroke="black" d="M598,-36C598,-36 568,-36 568,-36 562,-36 556,-30 556,-24 556,-24 556,-12 556,-12 556,-6 562,0 568,0 568,0 598,0 598,0 604,0 610,-6 610,-12 610,-12 610,-24 610,-24 610,-30 604,-36 598,-36"/>
<text text-anchor="middle" x="583" y="-13.32" font-family="Helvetica,sans-Serif" font-size="14.00">(...)</text>
</g>
<!-- 14299&#45;&gt;14300 -->
<g id="edge14" class="edge">
<title>14299&#45;&gt;14300</title>
<path fill="none" stroke="black" d="M613.34,-71.75C608.26,-62.93 603.1,-53.96 598.52,-45.99"/>
<polygon fill="black" stroke="black" points="601.65,-44.41 593.63,-37.48 595.58,-47.9 601.65,-44.41"/>
</g>
<!-- 14691 -->
<g id="node16" class="node">
<title>14691</title>
<path fill="#c0c0c0" stroke="black" d="M670,-36C670,-36 640,-36 640,-36 634,-36 628,-30 628,-24 628,-24 628,-12 628,-12 628,-6 634,0 640,0 640,0 670,0 670,0 676,0 682,-6 682,-12 682,-12 682,-24 682,-24 682,-30 676,-36 670,-36"/>
<text text-anchor="middle" x="655" y="-13.32" font-family="Helvetica,sans-Serif" font-size="14.00">(...)</text>
</g>
<!-- 14299&#45;&gt;14691 -->
<g id="edge15" class="edge">
<title>14299&#45;&gt;14691</title>
<path fill="none" stroke="black" d="M647.02,-71.75C648.28,-63.42 649.56,-54.97 650.71,-47.34"/>
<polygon fill="black" stroke="black" points="654.14,-48.08 652.17,-37.67 647.22,-47.03 654.14,-48.08"/>
</g>
<!-- 14825 -->
<g id="node18" class="node">
<title>14825</title>
<path fill="#f1b991" stroke="black" d="M971,-296.5C971,-296.5 829,-296.5 829,-296.5 823,-296.5 817,-290.5 817,-284.5 817,-284.5 817,-214.25 817,-214.25 817,-208.25 823,-202.25 829,-202.25 829,-202.25 971,-202.25 971,-202.25 977,-202.25 983,-208.25 983,-214.25 983,-214.25 983,-284.5 983,-284.5 983,-290.5 977,-296.5 971,-296.5"/>
<text text-anchor="middle" x="900" y="-279.2" font-family="Helvetica,sans-Serif" font-size="14.00">1_U &lt;= 0.5</text>
<text text-anchor="middle" x="900" y="-261.95" font-family="Helvetica,sans-Serif" font-size="14.00">entropy = 0.891</text>
<text text-anchor="middle" x="900" y="-244.7" font-family="Helvetica,sans-Serif" font-size="14.00">samples = 2892</text>
<text text-anchor="middle" x="900" y="-227.45" font-family="Helvetica,sans-Serif" font-size="14.00">value = [3170, 1411]</text>
<text text-anchor="middle" x="900" y="-210.2" font-family="Helvetica,sans-Serif" font-size="14.00">class = Animal</text>
</g>
<!-- 14824&#45;&gt;14825 -->
<g id="edge17" class="edge">
<title>14824&#45;&gt;14825</title>
<path fill="none" stroke="black" d="M900,-332.32C900,-324.42 900,-316.13 900,-307.98"/>
<polygon fill="black" stroke="black" points="903.5,-308.12 900,-298.12 896.5,-308.12 903.5,-308.12"/>
</g>
<!-- 16244 -->
<g id="node25" class="node">
<title>16244</title>
<path fill="#eda775" stroke="black" d="M1223,-296.5C1223,-296.5 1099,-296.5 1099,-296.5 1093,-296.5 1087,-290.5 1087,-284.5 1087,-284.5 1087,-214.25 1087,-214.25 1087,-208.25 1093,-202.25 1099,-202.25 1099,-202.25 1223,-202.25 1223,-202.25 1229,-202.25 1235,-208.25 1235,-214.25 1235,-214.25 1235,-284.5 1235,-284.5 1235,-290.5 1229,-296.5 1223,-296.5"/>
<text text-anchor="middle" x="1161" y="-279.2" font-family="Helvetica,sans-Serif" font-size="14.00">18_G &lt;= 0.5</text>
<text text-anchor="middle" x="1161" y="-261.95" font-family="Helvetica,sans-Serif" font-size="14.00">entropy = 0.785</text>
<text text-anchor="middle" x="1161" y="-244.7" font-family="Helvetica,sans-Serif" font-size="14.00">samples = 804</text>
<text text-anchor="middle" x="1161" y="-227.45" font-family="Helvetica,sans-Serif" font-size="14.00">value = [963, 294]</text>
<text text-anchor="middle" x="1161" y="-210.2" font-family="Helvetica,sans-Serif" font-size="14.00">class = Animal</text>
</g>
<!-- 14824&#45;&gt;16244 -->
<g id="edge24" class="edge">
<title>14824&#45;&gt;16244</title>
<path fill="none" stroke="black" d="M983.3,-337.69C1013.19,-323.01 1046.9,-306.44 1076.86,-291.72"/>
<polygon fill="black" stroke="black" points="1078.07,-295.02 1085.51,-287.47 1074.99,-288.74 1078.07,-295.02"/>
</g>
<!-- 14826 -->
<g id="node19" class="node">
<title>14826</title>
<path fill="#eca36e" stroke="black" d="M881.5,-166.25C881.5,-166.25 748.5,-166.25 748.5,-166.25 742.5,-166.25 736.5,-160.25 736.5,-154.25 736.5,-154.25 736.5,-84 736.5,-84 736.5,-78 742.5,-72 748.5,-72 748.5,-72 881.5,-72 881.5,-72 887.5,-72 893.5,-78 893.5,-84 893.5,-84 893.5,-154.25 893.5,-154.25 893.5,-160.25 887.5,-166.25 881.5,-166.25"/>
<text text-anchor="middle" x="815" y="-148.95" font-family="Helvetica,sans-Serif" font-size="14.00">11_U &lt;= 0.5</text>
<text text-anchor="middle" x="815" y="-131.7" font-family="Helvetica,sans-Serif" font-size="14.00">entropy = 0.746</text>
<text text-anchor="middle" x="815" y="-114.45" font-family="Helvetica,sans-Serif" font-size="14.00">samples = 1464</text>
<text text-anchor="middle" x="815" y="-97.2" font-family="Helvetica,sans-Serif" font-size="14.00">value = [1790, 483]</text>
<text text-anchor="middle" x="815" y="-79.95" font-family="Helvetica,sans-Serif" font-size="14.00">class = Animal</text>
</g>
<!-- 14825&#45;&gt;14826 -->
<g id="edge18" class="edge">
<title>14825&#45;&gt;14826</title>
<path fill="none" stroke="black" d="M869.31,-202.07C863.66,-193.54 857.7,-184.54 851.88,-175.77"/>
<polygon fill="black" stroke="black" points="854.92,-174.02 846.48,-167.62 849.09,-177.89 854.92,-174.02"/>
</g>
<!-- 15539 -->
<g id="node22" class="node">
<title>15539</title>
<path fill="#f6d6be" stroke="black" d="M1056.5,-166.25C1056.5,-166.25 923.5,-166.25 923.5,-166.25 917.5,-166.25 911.5,-160.25 911.5,-154.25 911.5,-154.25 911.5,-84 911.5,-84 911.5,-78 917.5,-72 923.5,-72 923.5,-72 1056.5,-72 1056.5,-72 1062.5,-72 1068.5,-78 1068.5,-84 1068.5,-84 1068.5,-154.25 1068.5,-154.25 1068.5,-160.25 1062.5,-166.25 1056.5,-166.25"/>
<text text-anchor="middle" x="990" y="-148.95" font-family="Helvetica,sans-Serif" font-size="14.00">10_G &lt;= 0.5</text>
<text text-anchor="middle" x="990" y="-131.7" font-family="Helvetica,sans-Serif" font-size="14.00">entropy = 0.972</text>
<text text-anchor="middle" x="990" y="-114.45" font-family="Helvetica,sans-Serif" font-size="14.00">samples = 1428</text>
<text text-anchor="middle" x="990" y="-97.2" font-family="Helvetica,sans-Serif" font-size="14.00">value = [1380, 928]</text>
<text text-anchor="middle" x="990" y="-79.95" font-family="Helvetica,sans-Serif" font-size="14.00">class = Animal</text>
</g>
<!-- 14825&#45;&gt;15539 -->
<g id="edge21" class="edge">
<title>14825&#45;&gt;15539</title>
<path fill="none" stroke="black" d="M932.49,-202.07C938.48,-193.54 944.79,-184.54 950.95,-175.77"/>
<polygon fill="black" stroke="black" points="953.81,-177.79 956.69,-167.6 948.08,-173.77 953.81,-177.79"/>
</g>
<!-- 14827 -->
<g id="node20" class="node">
<title>14827</title>
<path fill="#c0c0c0" stroke="black" d="M773,-36C773,-36 743,-36 743,-36 737,-36 731,-30 731,-24 731,-24 731,-12 731,-12 731,-6 737,0 743,0 743,0 773,0 773,0 779,0 785,-6 785,-12 785,-12 785,-24 785,-24 785,-30 779,-36 773,-36"/>
<text text-anchor="middle" x="758" y="-13.32" font-family="Helvetica,sans-Serif" font-size="14.00">(...)</text>
</g>
<!-- 14826&#45;&gt;14827 -->
<g id="edge19" class="edge">
<title>14826&#45;&gt;14827</title>
<path fill="none" stroke="black" d="M788.34,-71.75C783.26,-62.93 778.1,-53.96 773.52,-45.99"/>
<polygon fill="black" stroke="black" points="776.65,-44.41 768.63,-37.48 770.58,-47.9 776.65,-44.41"/>
</g>
<!-- 15344 -->
<g id="node21" class="node">
<title>15344</title>
<path fill="#c0c0c0" stroke="black" d="M845,-36C845,-36 815,-36 815,-36 809,-36 803,-30 803,-24 803,-24 803,-12 803,-12 803,-6 809,0 815,0 815,0 845,0 845,0 851,0 857,-6 857,-12 857,-12 857,-24 857,-24 857,-30 851,-36 845,-36"/>
<text text-anchor="middle" x="830" y="-13.32" font-family="Helvetica,sans-Serif" font-size="14.00">(...)</text>
</g>
<!-- 14826&#45;&gt;15344 -->
<g id="edge20" class="edge">
<title>14826&#45;&gt;15344</title>
<path fill="none" stroke="black" d="M822.02,-71.75C823.28,-63.42 824.56,-54.97 825.71,-47.34"/>
<polygon fill="black" stroke="black" points="829.14,-48.08 827.17,-37.67 822.22,-47.03 829.14,-48.08"/>
</g>
<!-- 15540 -->
<g id="node23" class="node">
<title>15540</title>
<path fill="#c0c0c0" stroke="black" d="M946,-36C946,-36 916,-36 916,-36 910,-36 904,-30 904,-24 904,-24 904,-12 904,-12 904,-6 910,0 916,0 916,0 946,0 946,0 952,0 958,-6 958,-12 958,-12 958,-24 958,-24 958,-30 952,-36 946,-36"/>
<text text-anchor="middle" x="931" y="-13.32" font-family="Helvetica,sans-Serif" font-size="14.00">(...)</text>
</g>
<!-- 15539&#45;&gt;15540 -->
<g id="edge22" class="edge">
<title>15539&#45;&gt;15540</title>
<path fill="none" stroke="black" d="M962.4,-71.75C957.15,-62.93 951.81,-53.96 947.06,-45.99"/>
<polygon fill="black" stroke="black" points="950.12,-44.28 942,-37.47 944.1,-47.86 950.12,-44.28"/>
</g>
<!-- 16037 -->
<g id="node24" class="node">
<title>16037</title>
<path fill="#c0c0c0" stroke="black" d="M1018,-36C1018,-36 988,-36 988,-36 982,-36 976,-30 976,-24 976,-24 976,-12 976,-12 976,-6 982,0 988,0 988,0 1018,0 1018,0 1024,0 1030,-6 1030,-12 1030,-12 1030,-24 1030,-24 1030,-30 1024,-36 1018,-36"/>
<text text-anchor="middle" x="1003" y="-13.32" font-family="Helvetica,sans-Serif" font-size="14.00">(...)</text>
</g>
<!-- 15539&#45;&gt;16037 -->
<g id="edge23" class="edge">
<title>15539&#45;&gt;16037</title>
<path fill="none" stroke="black" d="M996.08,-71.75C997.17,-63.42 998.28,-54.97 999.28,-47.34"/>
<polygon fill="black" stroke="black" points="1002.72,-48.04 1000.55,-37.67 995.78,-47.13 1002.72,-48.04"/>
</g>
<!-- 16245 -->
<g id="node26" class="node">
<title>16245</title>
<path fill="#eb9f68" stroke="black" d="M1223,-166.25C1223,-166.25 1099,-166.25 1099,-166.25 1093,-166.25 1087,-160.25 1087,-154.25 1087,-154.25 1087,-84 1087,-84 1087,-78 1093,-72 1099,-72 1099,-72 1223,-72 1223,-72 1229,-72 1235,-78 1235,-84 1235,-84 1235,-154.25 1235,-154.25 1235,-160.25 1229,-166.25 1223,-166.25"/>
<text text-anchor="middle" x="1161" y="-148.95" font-family="Helvetica,sans-Serif" font-size="14.00">9_U &lt;= 0.5</text>
<text text-anchor="middle" x="1161" y="-131.7" font-family="Helvetica,sans-Serif" font-size="14.00">entropy = 0.708</text>
<text text-anchor="middle" x="1161" y="-114.45" font-family="Helvetica,sans-Serif" font-size="14.00">samples = 578</text>
<text text-anchor="middle" x="1161" y="-97.2" font-family="Helvetica,sans-Serif" font-size="14.00">value = [731, 175]</text>
<text text-anchor="middle" x="1161" y="-79.95" font-family="Helvetica,sans-Serif" font-size="14.00">class = Animal</text>
</g>
<!-- 16244&#45;&gt;16245 -->
<g id="edge25" class="edge">
<title>16244&#45;&gt;16245</title>
<path fill="none" stroke="black" d="M1161,-202.07C1161,-194.17 1161,-185.88 1161,-177.73"/>
<polygon fill="black" stroke="black" points="1164.5,-177.87 1161,-167.87 1157.5,-177.87 1164.5,-177.87"/>
</g>
<!-- 16510 -->
<g id="node29" class="node">
<title>16510</title>
<path fill="#f2c29f" stroke="black" d="M1389,-166.25C1389,-166.25 1265,-166.25 1265,-166.25 1259,-166.25 1253,-160.25 1253,-154.25 1253,-154.25 1253,-84 1253,-84 1253,-78 1259,-72 1265,-72 1265,-72 1389,-72 1389,-72 1395,-72 1401,-78 1401,-84 1401,-84 1401,-154.25 1401,-154.25 1401,-160.25 1395,-166.25 1389,-166.25"/>
<text text-anchor="middle" x="1327" y="-148.95" font-family="Helvetica,sans-Serif" font-size="14.00">20_C &lt;= 0.5</text>
<text text-anchor="middle" x="1327" y="-131.7" font-family="Helvetica,sans-Serif" font-size="14.00">entropy = 0.924</text>
<text text-anchor="middle" x="1327" y="-114.45" font-family="Helvetica,sans-Serif" font-size="14.00">samples = 226</text>
<text text-anchor="middle" x="1327" y="-97.2" font-family="Helvetica,sans-Serif" font-size="14.00">value = [232, 119]</text>
<text text-anchor="middle" x="1327" y="-79.95" font-family="Helvetica,sans-Serif" font-size="14.00">class = Animal</text>
</g>
<!-- 16244&#45;&gt;16510 -->
<g id="edge28" class="edge">
<title>16244&#45;&gt;16510</title>
<path fill="none" stroke="black" d="M1220.93,-202.07C1232.96,-192.78 1245.7,-182.94 1258.01,-173.43"/>
<polygon fill="black" stroke="black" points="1259.91,-176.38 1265.68,-167.5 1255.63,-170.84 1259.91,-176.38"/>
</g>
<!-- 16246 -->
<g id="node27" class="node">
<title>16246</title>
<path fill="#c0c0c0" stroke="black" d="M1133,-36C1133,-36 1103,-36 1103,-36 1097,-36 1091,-30 1091,-24 1091,-24 1091,-12 1091,-12 1091,-6 1097,0 1103,0 1103,0 1133,0 1133,0 1139,0 1145,-6 1145,-12 1145,-12 1145,-24 1145,-24 1145,-30 1139,-36 1133,-36"/>
<text text-anchor="middle" x="1118" y="-13.32" font-family="Helvetica,sans-Serif" font-size="14.00">(...)</text>
</g>
<!-- 16245&#45;&gt;16246 -->
<g id="edge26" class="edge">
<title>16245&#45;&gt;16246</title>
<path fill="none" stroke="black" d="M1140.88,-71.75C1137.14,-63.12 1133.34,-54.36 1129.94,-46.53"/>
<polygon fill="black" stroke="black" points="1133.24,-45.34 1126.05,-37.56 1126.82,-48.13 1133.24,-45.34"/>
</g>
<!-- 16455 -->
<g id="node28" class="node">
<title>16455</title>
<path fill="#c0c0c0" stroke="black" d="M1205,-36C1205,-36 1175,-36 1175,-36 1169,-36 1163,-30 1163,-24 1163,-24 1163,-12 1163,-12 1163,-6 1169,0 1175,0 1175,0 1205,0 1205,0 1211,0 1217,-6 1217,-12 1217,-12 1217,-24 1217,-24 1217,-30 1211,-36 1205,-36"/>
<text text-anchor="middle" x="1190" y="-13.32" font-family="Helvetica,sans-Serif" font-size="14.00">(...)</text>
</g>
<!-- 16245&#45;&gt;16455 -->
<g id="edge27" class="edge">
<title>16245&#45;&gt;16455</title>
<path fill="none" stroke="black" d="M1174.57,-71.75C1177.03,-63.32 1179.54,-54.77 1181.79,-47.07"/>
<polygon fill="black" stroke="black" points="1185.1,-48.21 1184.55,-37.63 1178.38,-46.24 1185.1,-48.21"/>
</g>
<!-- 16511 -->
<g id="node30" class="node">
<title>16511</title>
<path fill="#c0c0c0" stroke="black" d="M1306,-36C1306,-36 1276,-36 1276,-36 1270,-36 1264,-30 1264,-24 1264,-24 1264,-12 1264,-12 1264,-6 1270,0 1276,0 1276,0 1306,0 1306,0 1312,0 1318,-6 1318,-12 1318,-12 1318,-24 1318,-24 1318,-30 1312,-36 1306,-36"/>
<text text-anchor="middle" x="1291" y="-13.32" font-family="Helvetica,sans-Serif" font-size="14.00">(...)</text>
</g>
<!-- 16510&#45;&gt;16511 -->
<g id="edge29" class="edge">
<title>16510&#45;&gt;16511</title>
<path fill="none" stroke="black" d="M1310.16,-71.75C1307.06,-63.22 1303.92,-54.57 1301.1,-46.8"/>
<polygon fill="black" stroke="black" points="1304.46,-45.8 1297.75,-37.6 1297.88,-48.19 1304.46,-45.8"/>
</g>
<!-- 16612 -->
<g id="node31" class="node">
<title>16612</title>
<path fill="#c0c0c0" stroke="black" d="M1378,-36C1378,-36 1348,-36 1348,-36 1342,-36 1336,-30 1336,-24 1336,-24 1336,-12 1336,-12 1336,-6 1342,0 1348,0 1348,0 1378,0 1378,0 1384,0 1390,-6 1390,-12 1390,-12 1390,-24 1390,-24 1390,-30 1384,-36 1378,-36"/>
<text text-anchor="middle" x="1363" y="-13.32" font-family="Helvetica,sans-Serif" font-size="14.00">(...)</text>
</g>
<!-- 16510&#45;&gt;16612 -->
<g id="edge30" class="edge">
<title>16510&#45;&gt;16612</title>
<path fill="none" stroke="black" d="M1343.84,-71.75C1346.94,-63.22 1350.08,-54.57 1352.9,-46.8"/>
<polygon fill="black" stroke="black" points="1356.12,-48.19 1356.25,-37.6 1349.54,-45.8 1356.12,-48.19"/>
</g>
</g>
</svg>
