<?xml version="1.0" encoding="UTF-8" standalone="no"?>
<!DOCTYPE svg PUBLIC "-//W3C//DTD SVG 1.1//EN"
 "http://www.w3.org/Graphics/SVG/1.1/DTD/svg11.dtd">
<!-- Generated by graphviz version 12.0.0 (20240803.0821)
 -->
<!-- Title: Tree Pages: 1 -->
<svg width="1401pt" height="565pt"
 viewBox="0.00 0.00 1401.38 565.00" xmlns="http://www.w3.org/2000/svg" xmlns:xlink="http://www.w3.org/1999/xlink">
<g id="graph0" class="graph" transform="scale(1 1) rotate(0) translate(4 561)">
<title>Tree</title>
<polygon fill="white" stroke="none" points="-4,4 -4,-561 1397.38,-561 1397.38,4 -4,4"/>
<!-- 0 -->
<g id="node1" class="node">
<title>0</title>
<path fill="#fffefe" stroke="black" d="M799,-557C799,-557 639,-557 639,-557 633,-557 627,-551 627,-545 627,-545 627,-474.75 627,-474.75 627,-468.75 633,-462.75 639,-462.75 639,-462.75 799,-462.75 799,-462.75 805,-462.75 811,-468.75 811,-474.75 811,-474.75 811,-545 811,-545 811,-551 805,-557 799,-557"/>
<text text-anchor="middle" x="719" y="-539.7" font-family="Helvetica,sans-Serif" font-size="14.00">22_U &lt;= 0.5</text>
<text text-anchor="middle" x="719" y="-522.45" font-family="Helvetica,sans-Serif" font-size="14.00">entropy = 1.0</text>
<text text-anchor="middle" x="719" y="-505.2" font-family="Helvetica,sans-Serif" font-size="14.00">samples = 38241</text>
<text text-anchor="middle" x="719" y="-487.95" font-family="Helvetica,sans-Serif" font-size="14.00">value = [30260, 30085]</text>
<text text-anchor="middle" x="719" y="-470.7" font-family="Helvetica,sans-Serif" font-size="14.00">class = Animal</text>
</g>
<!-- 1 -->
<g id="node2" class="node">
<title>1</title>
<path fill="#dceefa" stroke="black" d="M628,-426.75C628,-426.75 468,-426.75 468,-426.75 462,-426.75 456,-420.75 456,-414.75 456,-414.75 456,-344.5 456,-344.5 456,-338.5 462,-332.5 468,-332.5 468,-332.5 628,-332.5 628,-332.5 634,-332.5 640,-338.5 640,-344.5 640,-344.5 640,-414.75 640,-414.75 640,-420.75 634,-426.75 628,-426.75"/>
<text text-anchor="middle" x="548" y="-409.45" font-family="Helvetica,sans-Serif" font-size="14.00">2_A &lt;= 0.5</text>
<text text-anchor="middle" x="548" y="-392.2" font-family="Helvetica,sans-Serif" font-size="14.00">entropy = 0.993</text>
<text text-anchor="middle" x="548" y="-374.95" font-family="Helvetica,sans-Serif" font-size="14.00">samples = 33106</text>
<text text-anchor="middle" x="548" y="-357.7" font-family="Helvetica,sans-Serif" font-size="14.00">value = [23611, 28610]</text>
<text text-anchor="middle" x="548" y="-340.45" font-family="Helvetica,sans-Serif" font-size="14.00">class = Plant</text>
</g>
<!-- 0&#45;&gt;1 -->
<g id="edge1" class="edge">
<title>0&#45;&gt;1</title>
<path fill="none" stroke="black" d="M657.27,-462.57C644.87,-453.28 631.75,-443.44 619.07,-433.93"/>
<polygon fill="black" stroke="black" points="621.24,-431.18 611.14,-427.98 617.04,-436.78 621.24,-431.18"/>
<text text-anchor="middle" x="613.47" y="-447.15" font-family="Helvetica,sans-Serif" font-size="14.00">True</text>
</g>
<!-- 14696 -->
<g id="node17" class="node">
<title>14696</title>
<path fill="#eb9d65" stroke="black" d="M972,-426.75C972,-426.75 830,-426.75 830,-426.75 824,-426.75 818,-420.75 818,-414.75 818,-414.75 818,-344.5 818,-344.5 818,-338.5 824,-332.5 830,-332.5 830,-332.5 972,-332.5 972,-332.5 978,-332.5 984,-338.5 984,-344.5 984,-344.5 984,-414.75 984,-414.75 984,-420.75 978,-426.75 972,-426.75"/>
<text text-anchor="middle" x="901" y="-409.45" font-family="Helvetica,sans-Serif" font-size="14.00">16_G &lt;= 0.5</text>
<text text-anchor="middle" x="901" y="-392.2" font-family="Helvetica,sans-Serif" font-size="14.00">entropy = 0.683</text>
<text text-anchor="middle" x="901" y="-374.95" font-family="Helvetica,sans-Serif" font-size="14.00">samples = 5135</text>
<text text-anchor="middle" x="901" y="-357.7" font-family="Helvetica,sans-Serif" font-size="14.00">value = [6649, 1475]</text>
<text text-anchor="middle" x="901" y="-340.45" font-family="Helvetica,sans-Serif" font-size="14.00">class = Animal</text>
</g>
<!-- 0&#45;&gt;14696 -->
<g id="edge16" class="edge">
<title>0&#45;&gt;14696</title>
<path fill="none" stroke="black" d="M784.96,-462.39C798.19,-453.07 812.18,-443.22 825.69,-433.69"/>
<polygon fill="black" stroke="black" points="827.56,-436.66 833.72,-428.04 823.53,-430.94 827.56,-436.66"/>
<text text-anchor="middle" x="830.69" y="-447.12" font-family="Helvetica,sans-Serif" font-size="14.00">False</text>
</g>
<!-- 2 -->
<g id="node3" class="node">
<title>2</title>
<path fill="#c3e1f7" stroke="black" d="M361,-296.5C361,-296.5 201,-296.5 201,-296.5 195,-296.5 189,-290.5 189,-284.5 189,-284.5 189,-214.25 189,-214.25 189,-208.25 195,-202.25 201,-202.25 201,-202.25 361,-202.25 361,-202.25 367,-202.25 373,-208.25 373,-214.25 373,-214.25 373,-284.5 373,-284.5 373,-290.5 367,-296.5 361,-296.5"/>
<text text-anchor="middle" x="281" y="-279.2" font-family="Helvetica,sans-Serif" font-size="14.00">23_U &lt;= 0.5</text>
<text text-anchor="middle" x="281" y="-261.95" font-family="Helvetica,sans-Serif" font-size="14.00">entropy = 0.977</text>
<text text-anchor="middle" x="281" y="-244.7" font-family="Helvetica,sans-Serif" font-size="14.00">samples = 25413</text>
<text text-anchor="middle" x="281" y="-227.45" font-family="Helvetica,sans-Serif" font-size="14.00">value = [16500, 23641]</text>
<text text-anchor="middle" x="281" y="-210.2" font-family="Helvetica,sans-Serif" font-size="14.00">class = Plant</text>
</g>
<!-- 1&#45;&gt;2 -->
<g id="edge2" class="edge">
<title>1&#45;&gt;2</title>
<path fill="none" stroke="black" d="M455.74,-334.31C432.4,-323.1 407.18,-310.99 383.37,-299.55"/>
<polygon fill="black" stroke="black" points="385.16,-296.52 374.63,-295.35 382.13,-302.83 385.16,-296.52"/>
</g>
<!-- 11095 -->
<g id="node10" class="node">
<title>11095</title>
<path fill="#f7d9c3" stroke="black" d="M619,-296.5C619,-296.5 477,-296.5 477,-296.5 471,-296.5 465,-290.5 465,-284.5 465,-284.5 465,-214.25 465,-214.25 465,-208.25 471,-202.25 477,-202.25 477,-202.25 619,-202.25 619,-202.25 625,-202.25 631,-208.25 631,-214.25 631,-214.25 631,-284.5 631,-284.5 631,-290.5 625,-296.5 619,-296.5"/>
<text text-anchor="middle" x="548" y="-279.2" font-family="Helvetica,sans-Serif" font-size="14.00">5_A &lt;= 0.5</text>
<text text-anchor="middle" x="548" y="-261.95" font-family="Helvetica,sans-Serif" font-size="14.00">entropy = 0.977</text>
<text text-anchor="middle" x="548" y="-244.7" font-family="Helvetica,sans-Serif" font-size="14.00">samples = 7693</text>
<text text-anchor="middle" x="548" y="-227.45" font-family="Helvetica,sans-Serif" font-size="14.00">value = [7111, 4969]</text>
<text text-anchor="middle" x="548" y="-210.2" font-family="Helvetica,sans-Serif" font-size="14.00">class = Animal</text>
</g>
<!-- 1&#45;&gt;11095 -->
<g id="edge9" class="edge">
<title>1&#45;&gt;11095</title>
<path fill="none" stroke="black" d="M548,-332.32C548,-324.42 548,-316.13 548,-307.98"/>
<polygon fill="black" stroke="black" points="551.5,-308.12 548,-298.12 544.5,-308.12 551.5,-308.12"/>
</g>
<!-- 3 -->
<g id="node4" class="node">
<title>3</title>
<path fill="#b9dcf6" stroke="black" d="M172,-166.25C172,-166.25 12,-166.25 12,-166.25 6,-166.25 0,-160.25 0,-154.25 0,-154.25 0,-84 0,-84 0,-78 6,-72 12,-72 12,-72 172,-72 172,-72 178,-72 184,-78 184,-84 184,-84 184,-154.25 184,-154.25 184,-160.25 178,-166.25 172,-166.25"/>
<text text-anchor="middle" x="92" y="-148.95" font-family="Helvetica,sans-Serif" font-size="14.00">22_G &lt;= 0.5</text>
<text text-anchor="middle" x="92" y="-131.7" font-family="Helvetica,sans-Serif" font-size="14.00">entropy = 0.966</text>
<text text-anchor="middle" x="92" y="-114.45" font-family="Helvetica,sans-Serif" font-size="14.00">samples = 24262</text>
<text text-anchor="middle" x="92" y="-97.2" font-family="Helvetica,sans-Serif" font-size="14.00">value = [15029, 23286]</text>
<text text-anchor="middle" x="92" y="-79.95" font-family="Helvetica,sans-Serif" font-size="14.00">class = Plant</text>
</g>
<!-- 2&#45;&gt;3 -->
<g id="edge3" class="edge">
<title>2&#45;&gt;3</title>
<path fill="none" stroke="black" d="M212.5,-201.89C198.63,-192.48 183.96,-182.53 169.8,-172.92"/>
<polygon fill="black" stroke="black" points="172.08,-170.23 161.84,-167.51 168.15,-176.03 172.08,-170.23"/>
</g>
<!-- 10634 -->
<g id="node7" class="node">
<title>10634</title>
<path fill="#eb9f69" stroke="black" d="M347.5,-166.25C347.5,-166.25 214.5,-166.25 214.5,-166.25 208.5,-166.25 202.5,-160.25 202.5,-154.25 202.5,-154.25 202.5,-84 202.5,-84 202.5,-78 208.5,-72 214.5,-72 214.5,-72 347.5,-72 347.5,-72 353.5,-72 359.5,-78 359.5,-84 359.5,-84 359.5,-154.25 359.5,-154.25 359.5,-160.25 353.5,-166.25 347.5,-166.25"/>
<text text-anchor="middle" x="281" y="-148.95" font-family="Helvetica,sans-Serif" font-size="14.00">17_U &lt;= 0.5</text>
<text text-anchor="middle" x="281" y="-131.7" font-family="Helvetica,sans-Serif" font-size="14.00">entropy = 0.711</text>
<text text-anchor="middle" x="281" y="-114.45" font-family="Helvetica,sans-Serif" font-size="14.00">samples = 1151</text>
<text text-anchor="middle" x="281" y="-97.2" font-family="Helvetica,sans-Serif" font-size="14.00">value = [1471, 355]</text>
<text text-anchor="middle" x="281" y="-79.95" font-family="Helvetica,sans-Serif" font-size="14.00">class = Animal</text>
</g>
<!-- 2&#45;&gt;10634 -->
<g id="edge6" class="edge">
<title>2&#45;&gt;10634</title>
<path fill="none" stroke="black" d="M281,-202.07C281,-194.17 281,-185.88 281,-177.73"/>
<polygon fill="black" stroke="black" points="284.5,-177.87 281,-167.87 277.5,-177.87 284.5,-177.87"/>
</g>
<!-- 4 -->
<g id="node5" class="node">
<title>4</title>
<path fill="#c0c0c0" stroke="black" d="M71,-36C71,-36 41,-36 41,-36 35,-36 29,-30 29,-24 29,-24 29,-12 29,-12 29,-6 35,0 41,0 41,0 71,0 71,0 77,0 83,-6 83,-12 83,-12 83,-24 83,-24 83,-30 77,-36 71,-36"/>
<text text-anchor="middle" x="56" y="-13.32" font-family="Helvetica,sans-Serif" font-size="14.00">(...)</text>
</g>
<!-- 3&#45;&gt;4 -->
<g id="edge4" class="edge">
<title>3&#45;&gt;4</title>
<path fill="none" stroke="black" d="M75.16,-71.75C72.06,-63.22 68.92,-54.57 66.1,-46.8"/>
<polygon fill="black" stroke="black" points="69.46,-45.8 62.75,-37.6 62.88,-48.19 69.46,-45.8"/>
</g>
<!-- 9439 -->
<g id="node6" class="node">
<title>9439</title>
<path fill="#c0c0c0" stroke="black" d="M143,-36C143,-36 113,-36 113,-36 107,-36 101,-30 101,-24 101,-24 101,-12 101,-12 101,-6 107,0 113,0 113,0 143,0 143,0 149,0 155,-6 155,-12 155,-12 155,-24 155,-24 155,-30 149,-36 143,-36"/>
<text text-anchor="middle" x="128" y="-13.32" font-family="Helvetica,sans-Serif" font-size="14.00">(...)</text>
</g>
<!-- 3&#45;&gt;9439 -->
<g id="edge5" class="edge">
<title>3&#45;&gt;9439</title>
<path fill="none" stroke="black" d="M108.84,-71.75C111.94,-63.22 115.08,-54.57 117.9,-46.8"/>
<polygon fill="black" stroke="black" points="121.12,-48.19 121.25,-37.6 114.54,-45.8 121.12,-48.19"/>
</g>
<!-- 10635 -->
<g id="node8" class="node">
<title>10635</title>
<path fill="#c0c0c0" stroke="black" d="M260,-36C260,-36 230,-36 230,-36 224,-36 218,-30 218,-24 218,-24 218,-12 218,-12 218,-6 224,0 230,0 230,0 260,0 260,0 266,0 272,-6 272,-12 272,-12 272,-24 272,-24 272,-30 266,-36 260,-36"/>
<text text-anchor="middle" x="245" y="-13.32" font-family="Helvetica,sans-Serif" font-size="14.00">(...)</text>
</g>
<!-- 10634&#45;&gt;10635 -->
<g id="edge7" class="edge">
<title>10634&#45;&gt;10635</title>
<path fill="none" stroke="black" d="M264.16,-71.75C261.06,-63.22 257.92,-54.57 255.1,-46.8"/>
<polygon fill="black" stroke="black" points="258.46,-45.8 251.75,-37.6 251.88,-48.19 258.46,-45.8"/>
</g>
<!-- 10964 -->
<g id="node9" class="node">
<title>10964</title>
<path fill="#c0c0c0" stroke="black" d="M332,-36C332,-36 302,-36 302,-36 296,-36 290,-30 290,-24 290,-24 290,-12 290,-12 290,-6 296,0 302,0 302,0 332,0 332,0 338,0 344,-6 344,-12 344,-12 344,-24 344,-24 344,-30 338,-36 332,-36"/>
<text text-anchor="middle" x="317" y="-13.32" font-family="Helvetica,sans-Serif" font-size="14.00">(...)</text>
</g>
<!-- 10634&#45;&gt;10964 -->
<g id="edge8" class="edge">
<title>10634&#45;&gt;10964</title>
<path fill="none" stroke="black" d="M297.84,-71.75C300.94,-63.22 304.08,-54.57 306.9,-46.8"/>
<polygon fill="black" stroke="black" points="310.12,-48.19 310.25,-37.6 303.54,-45.8 310.12,-48.19"/>
</g>
<!-- 11096 -->
<g id="node11" class="node">
<title>11096</title>
<path fill="#fae6d7" stroke="black" d="M532,-166.25C532,-166.25 390,-166.25 390,-166.25 384,-166.25 378,-160.25 378,-154.25 378,-154.25 378,-84 378,-84 378,-78 384,-72 390,-72 390,-72 532,-72 532,-72 538,-72 544,-78 544,-84 544,-84 544,-154.25 544,-154.25 544,-160.25 538,-166.25 532,-166.25"/>
<text text-anchor="middle" x="461" y="-148.95" font-family="Helvetica,sans-Serif" font-size="14.00">9_U &lt;= 0.5</text>
<text text-anchor="middle" x="461" y="-131.7" font-family="Helvetica,sans-Serif" font-size="14.00">entropy = 0.991</text>
<text text-anchor="middle" x="461" y="-114.45" font-family="Helvetica,sans-Serif" font-size="14.00">samples = 5922</text>
<text text-anchor="middle" x="461" y="-97.2" font-family="Helvetica,sans-Serif" font-size="14.00">value = [5163, 4121]</text>
<text text-anchor="middle" x="461" y="-79.95" font-family="Helvetica,sans-Serif" font-size="14.00">class = Animal</text>
</g>
<!-- 11095&#45;&gt;11096 -->
<g id="edge10" class="edge">
<title>11095&#45;&gt;11096</title>
<path fill="none" stroke="black" d="M516.59,-202.07C510.8,-193.54 504.7,-184.54 498.75,-175.77"/>
<polygon fill="black" stroke="black" points="501.72,-173.92 493.21,-167.61 495.93,-177.85 501.72,-173.92"/>
</g>
<!-- 13765 -->
<g id="node14" class="node">
<title>13765</title>
<path fill="#f0b88f" stroke="black" d="M707.5,-166.25C707.5,-166.25 574.5,-166.25 574.5,-166.25 568.5,-166.25 562.5,-160.25 562.5,-154.25 562.5,-154.25 562.5,-84 562.5,-84 562.5,-78 568.5,-72 574.5,-72 574.5,-72 707.5,-72 707.5,-72 713.5,-72 719.5,-78 719.5,-84 719.5,-84 719.5,-154.25 719.5,-154.25 719.5,-160.25 713.5,-166.25 707.5,-166.25"/>
<text text-anchor="middle" x="641" y="-148.95" font-family="Helvetica,sans-Serif" font-size="14.00">17_A &lt;= 0.5</text>
<text text-anchor="middle" x="641" y="-131.7" font-family="Helvetica,sans-Serif" font-size="14.00">entropy = 0.885</text>
<text text-anchor="middle" x="641" y="-114.45" font-family="Helvetica,sans-Serif" font-size="14.00">samples = 1771</text>
<text text-anchor="middle" x="641" y="-97.2" font-family="Helvetica,sans-Serif" font-size="14.00">value = [1948, 848]</text>
<text text-anchor="middle" x="641" y="-79.95" font-family="Helvetica,sans-Serif" font-size="14.00">class = Animal</text>
</g>
<!-- 11095&#45;&gt;13765 -->
<g id="edge13" class="edge">
<title>11095&#45;&gt;13765</title>
<path fill="none" stroke="black" d="M581.58,-202.07C587.83,-193.45 594.43,-184.35 600.85,-175.49"/>
<polygon fill="black" stroke="black" points="603.55,-177.73 606.59,-167.58 597.88,-173.62 603.55,-177.73"/>
</g>
<!-- 11097 -->
<g id="node12" class="node">
<title>11097</title>
<path fill="#c0c0c0" stroke="black" d="M422,-36C422,-36 392,-36 392,-36 386,-36 380,-30 380,-24 380,-24 380,-12 380,-12 380,-6 386,0 392,0 392,0 422,0 422,0 428,0 434,-6 434,-12 434,-12 434,-24 434,-24 434,-30 428,-36 422,-36"/>
<text text-anchor="middle" x="407" y="-13.32" font-family="Helvetica,sans-Serif" font-size="14.00">(...)</text>
</g>
<!-- 11096&#45;&gt;11097 -->
<g id="edge11" class="edge">
<title>11096&#45;&gt;11097</title>
<path fill="none" stroke="black" d="M435.74,-71.75C430.98,-63.03 426.16,-54.16 421.85,-46.26"/>
<polygon fill="black" stroke="black" points="424.94,-44.61 417.08,-37.5 418.79,-47.96 424.94,-44.61"/>
</g>
<!-- 12950 -->
<g id="node13" class="node">
<title>12950</title>
<path fill="#c0c0c0" stroke="black" d="M494,-36C494,-36 464,-36 464,-36 458,-36 452,-30 452,-24 452,-24 452,-12 452,-12 452,-6 458,0 464,0 464,0 494,0 494,0 500,0 506,-6 506,-12 506,-12 506,-24 506,-24 506,-30 500,-36 494,-36"/>
<text text-anchor="middle" x="479" y="-13.32" font-family="Helvetica,sans-Serif" font-size="14.00">(...)</text>
</g>
<!-- 11096&#45;&gt;12950 -->
<g id="edge12" class="edge">
<title>11096&#45;&gt;12950</title>
<path fill="none" stroke="black" d="M469.42,-71.75C470.93,-63.42 472.47,-54.97 473.85,-47.34"/>
<polygon fill="black" stroke="black" points="477.27,-48.13 475.61,-37.66 470.38,-46.88 477.27,-48.13"/>
</g>
<!-- 13766 -->
<g id="node15" class="node">
<title>13766</title>
<path fill="#c0c0c0" stroke="black" d="M599,-36C599,-36 569,-36 569,-36 563,-36 557,-30 557,-24 557,-24 557,-12 557,-12 557,-6 563,0 569,0 569,0 599,0 599,0 605,0 611,-6 611,-12 611,-12 611,-24 611,-24 611,-30 605,-36 599,-36"/>
<text text-anchor="middle" x="584" y="-13.32" font-family="Helvetica,sans-Serif" font-size="14.00">(...)</text>
</g>
<!-- 13765&#45;&gt;13766 -->
<g id="edge14" class="edge">
<title>13765&#45;&gt;13766</title>
<path fill="none" stroke="black" d="M614.34,-71.75C609.26,-62.93 604.1,-53.96 599.52,-45.99"/>
<polygon fill="black" stroke="black" points="602.65,-44.41 594.63,-37.48 596.58,-47.9 602.65,-44.41"/>
</g>
<!-- 14481 -->
<g id="node16" class="node">
<title>14481</title>
<path fill="#c0c0c0" stroke="black" d="M671,-36C671,-36 641,-36 641,-36 635,-36 629,-30 629,-24 629,-24 629,-12 629,-12 629,-6 635,0 641,0 641,0 671,0 671,0 677,0 683,-6 683,-12 683,-12 683,-24 683,-24 683,-30 677,-36 671,-36"/>
<text text-anchor="middle" x="656" y="-13.32" font-family="Helvetica,sans-Serif" font-size="14.00">(...)</text>
</g>
<!-- 13765&#45;&gt;14481 -->
<g id="edge15" class="edge">
<title>13765&#45;&gt;14481</title>
<path fill="none" stroke="black" d="M648.02,-71.75C649.28,-63.42 650.56,-54.97 651.71,-47.34"/>
<polygon fill="black" stroke="black" points="655.14,-48.08 653.17,-37.67 648.22,-47.03 655.14,-48.08"/>
</g>
<!-- 14697 -->
<g id="node18" class="node">
<title>14697</title>
<path fill="#ea9b62" stroke="black" d="M972,-296.5C972,-296.5 830,-296.5 830,-296.5 824,-296.5 818,-290.5 818,-284.5 818,-284.5 818,-214.25 818,-214.25 818,-208.25 824,-202.25 830,-202.25 830,-202.25 972,-202.25 972,-202.25 978,-202.25 984,-208.25 984,-214.25 984,-214.25 984,-284.5 984,-284.5 984,-290.5 978,-296.5 972,-296.5"/>
<text text-anchor="middle" x="901" y="-279.2" font-family="Helvetica,sans-Serif" font-size="14.00">18_G &lt;= 0.5</text>
<text text-anchor="middle" x="901" y="-261.95" font-family="Helvetica,sans-Serif" font-size="14.00">entropy = 0.659</text>
<text text-anchor="middle" x="901" y="-244.7" font-family="Helvetica,sans-Serif" font-size="14.00">samples = 3991</text>
<text text-anchor="middle" x="901" y="-227.45" font-family="Helvetica,sans-Serif" font-size="14.00">value = [5188, 1067]</text>
<text text-anchor="middle" x="901" y="-210.2" font-family="Helvetica,sans-Serif" font-size="14.00">class = Animal</text>
</g>
<!-- 14696&#45;&gt;14697 -->
<g id="edge17" class="edge">
<title>14696&#45;&gt;14697</title>
<path fill="none" stroke="black" d="M901,-332.32C901,-324.42 901,-316.13 901,-307.98"/>
<polygon fill="black" stroke="black" points="904.5,-308.12 901,-298.12 897.5,-308.12 904.5,-308.12"/>
</g>
<!-- 16108 -->
<g id="node25" class="node">
<title>16108</title>
<path fill="#eca470" stroke="black" d="M1232.5,-296.5C1232.5,-296.5 1099.5,-296.5 1099.5,-296.5 1093.5,-296.5 1087.5,-290.5 1087.5,-284.5 1087.5,-284.5 1087.5,-214.25 1087.5,-214.25 1087.5,-208.25 1093.5,-202.25 1099.5,-202.25 1099.5,-202.25 1232.5,-202.25 1232.5,-202.25 1238.5,-202.25 1244.5,-208.25 1244.5,-214.25 1244.5,-214.25 1244.5,-284.5 1244.5,-284.5 1244.5,-290.5 1238.5,-296.5 1232.5,-296.5"/>
<text text-anchor="middle" x="1166" y="-279.2" font-family="Helvetica,sans-Serif" font-size="14.00">25_U &lt;= 0.5</text>
<text text-anchor="middle" x="1166" y="-261.95" font-family="Helvetica,sans-Serif" font-size="14.00">entropy = 0.757</text>
<text text-anchor="middle" x="1166" y="-244.7" font-family="Helvetica,sans-Serif" font-size="14.00">samples = 1144</text>
<text text-anchor="middle" x="1166" y="-227.45" font-family="Helvetica,sans-Serif" font-size="14.00">value = [1461, 408]</text>
<text text-anchor="middle" x="1166" y="-210.2" font-family="Helvetica,sans-Serif" font-size="14.00">class = Animal</text>
</g>
<!-- 14696&#45;&gt;16108 -->
<g id="edge24" class="edge">
<title>14696&#45;&gt;16108</title>
<path fill="none" stroke="black" d="M984.48,-338.22C1013.93,-323.97 1047.13,-307.91 1077.01,-293.44"/>
<polygon fill="black" stroke="black" points="1078.16,-296.77 1085.64,-289.27 1075.11,-290.47 1078.16,-296.77"/>
</g>
<!-- 14698 -->
<g id="node19" class="node">
<title>14698</title>
<path fill="#ea975c" stroke="black" d="M882.5,-166.25C882.5,-166.25 749.5,-166.25 749.5,-166.25 743.5,-166.25 737.5,-160.25 737.5,-154.25 737.5,-154.25 737.5,-84 737.5,-84 737.5,-78 743.5,-72 749.5,-72 749.5,-72 882.5,-72 882.5,-72 888.5,-72 894.5,-78 894.5,-84 894.5,-84 894.5,-154.25 894.5,-154.25 894.5,-160.25 888.5,-166.25 882.5,-166.25"/>
<text text-anchor="middle" x="816" y="-148.95" font-family="Helvetica,sans-Serif" font-size="14.00">8_A &lt;= 0.5</text>
<text text-anchor="middle" x="816" y="-131.7" font-family="Helvetica,sans-Serif" font-size="14.00">entropy = 0.61</text>
<text text-anchor="middle" x="816" y="-114.45" font-family="Helvetica,sans-Serif" font-size="14.00">samples = 3008</text>
<text text-anchor="middle" x="816" y="-97.2" font-family="Helvetica,sans-Serif" font-size="14.00">value = [4017, 709]</text>
<text text-anchor="middle" x="816" y="-79.95" font-family="Helvetica,sans-Serif" font-size="14.00">class = Animal</text>
</g>
<!-- 14697&#45;&gt;14698 -->
<g id="edge18" class="edge">
<title>14697&#45;&gt;14698</title>
<path fill="none" stroke="black" d="M870.31,-202.07C864.66,-193.54 858.7,-184.54 852.88,-175.77"/>
<polygon fill="black" stroke="black" points="855.92,-174.02 847.48,-167.62 850.09,-177.89 855.92,-174.02"/>
</g>
<!-- 15719 -->
<g id="node22" class="node">
<title>15719</title>
<path fill="#eda876" stroke="black" d="M1057.5,-166.25C1057.5,-166.25 924.5,-166.25 924.5,-166.25 918.5,-166.25 912.5,-160.25 912.5,-154.25 912.5,-154.25 912.5,-84 912.5,-84 912.5,-78 918.5,-72 924.5,-72 924.5,-72 1057.5,-72 1057.5,-72 1063.5,-72 1069.5,-78 1069.5,-84 1069.5,-84 1069.5,-154.25 1069.5,-154.25 1069.5,-160.25 1063.5,-166.25 1057.5,-166.25"/>
<text text-anchor="middle" x="991" y="-148.95" font-family="Helvetica,sans-Serif" font-size="14.00">23_C &lt;= 0.5</text>
<text text-anchor="middle" x="991" y="-131.7" font-family="Helvetica,sans-Serif" font-size="14.00">entropy = 0.785</text>
<text text-anchor="middle" x="991" y="-114.45" font-family="Helvetica,sans-Serif" font-size="14.00">samples = 983</text>
<text text-anchor="middle" x="991" y="-97.2" font-family="Helvetica,sans-Serif" font-size="14.00">value = [1171, 358]</text>
<text text-anchor="middle" x="991" y="-79.95" font-family="Helvetica,sans-Serif" font-size="14.00">class = Animal</text>
</g>
<!-- 14697&#45;&gt;15719 -->
<g id="edge21" class="edge">
<title>14697&#45;&gt;15719</title>
<path fill="none" stroke="black" d="M933.49,-202.07C939.48,-193.54 945.79,-184.54 951.95,-175.77"/>
<polygon fill="black" stroke="black" points="954.81,-177.79 957.69,-167.6 949.08,-173.77 954.81,-177.79"/>
</g>
<!-- 14699 -->
<g id="node20" class="node">
<title>14699</title>
<path fill="#c0c0c0" stroke="black" d="M774,-36C774,-36 744,-36 744,-36 738,-36 732,-30 732,-24 732,-24 732,-12 732,-12 732,-6 738,0 744,0 744,0 774,0 774,0 780,0 786,-6 786,-12 786,-12 786,-24 786,-24 786,-30 780,-36 774,-36"/>
<text text-anchor="middle" x="759" y="-13.32" font-family="Helvetica,sans-Serif" font-size="14.00">(...)</text>
</g>
<!-- 14698&#45;&gt;14699 -->
<g id="edge19" class="edge">
<title>14698&#45;&gt;14699</title>
<path fill="none" stroke="black" d="M789.34,-71.75C784.26,-62.93 779.1,-53.96 774.52,-45.99"/>
<polygon fill="black" stroke="black" points="777.65,-44.41 769.63,-37.48 771.58,-47.9 777.65,-44.41"/>
</g>
<!-- 15438 -->
<g id="node21" class="node">
<title>15438</title>
<path fill="#c0c0c0" stroke="black" d="M846,-36C846,-36 816,-36 816,-36 810,-36 804,-30 804,-24 804,-24 804,-12 804,-12 804,-6 810,0 816,0 816,0 846,0 846,0 852,0 858,-6 858,-12 858,-12 858,-24 858,-24 858,-30 852,-36 846,-36"/>
<text text-anchor="middle" x="831" y="-13.32" font-family="Helvetica,sans-Serif" font-size="14.00">(...)</text>
</g>
<!-- 14698&#45;&gt;15438 -->
<g id="edge20" class="edge">
<title>14698&#45;&gt;15438</title>
<path fill="none" stroke="black" d="M823.02,-71.75C824.28,-63.42 825.56,-54.97 826.71,-47.34"/>
<polygon fill="black" stroke="black" points="830.14,-48.08 828.17,-37.67 823.22,-47.03 830.14,-48.08"/>
</g>
<!-- 15720 -->
<g id="node23" class="node">
<title>15720</title>
<path fill="#c0c0c0" stroke="black" d="M949,-36C949,-36 919,-36 919,-36 913,-36 907,-30 907,-24 907,-24 907,-12 907,-12 907,-6 913,0 919,0 919,0 949,0 949,0 955,0 961,-6 961,-12 961,-12 961,-24 961,-24 961,-30 955,-36 949,-36"/>
<text text-anchor="middle" x="934" y="-13.32" font-family="Helvetica,sans-Serif" font-size="14.00">(...)</text>
</g>
<!-- 15719&#45;&gt;15720 -->
<g id="edge22" class="edge">
<title>15719&#45;&gt;15720</title>
<path fill="none" stroke="black" d="M964.34,-71.75C959.26,-62.93 954.1,-53.96 949.52,-45.99"/>
<polygon fill="black" stroke="black" points="952.65,-44.41 944.63,-37.48 946.58,-47.9 952.65,-44.41"/>
</g>
<!-- 16085 -->
<g id="node24" class="node">
<title>16085</title>
<path fill="#c0c0c0" stroke="black" d="M1021,-36C1021,-36 991,-36 991,-36 985,-36 979,-30 979,-24 979,-24 979,-12 979,-12 979,-6 985,0 991,0 991,0 1021,0 1021,0 1027,0 1033,-6 1033,-12 1033,-12 1033,-24 1033,-24 1033,-30 1027,-36 1021,-36"/>
<text text-anchor="middle" x="1006" y="-13.32" font-family="Helvetica,sans-Serif" font-size="14.00">(...)</text>
</g>
<!-- 15719&#45;&gt;16085 -->
<g id="edge23" class="edge">
<title>15719&#45;&gt;16085</title>
<path fill="none" stroke="black" d="M998.02,-71.75C999.28,-63.42 1000.56,-54.97 1001.71,-47.34"/>
<polygon fill="black" stroke="black" points="1005.14,-48.08 1003.17,-37.67 998.22,-47.03 1005.14,-48.08"/>
</g>
<!-- 16109 -->
<g id="node26" class="node">
<title>16109</title>
<path fill="#eba06a" stroke="black" d="M1232.5,-166.25C1232.5,-166.25 1099.5,-166.25 1099.5,-166.25 1093.5,-166.25 1087.5,-160.25 1087.5,-154.25 1087.5,-154.25 1087.5,-84 1087.5,-84 1087.5,-78 1093.5,-72 1099.5,-72 1099.5,-72 1232.5,-72 1232.5,-72 1238.5,-72 1244.5,-78 1244.5,-84 1244.5,-84 1244.5,-154.25 1244.5,-154.25 1244.5,-160.25 1238.5,-166.25 1232.5,-166.25"/>
<text text-anchor="middle" x="1166" y="-148.95" font-family="Helvetica,sans-Serif" font-size="14.00">5_C &lt;= 0.5</text>
<text text-anchor="middle" x="1166" y="-131.7" font-family="Helvetica,sans-Serif" font-size="14.00">entropy = 0.719</text>
<text text-anchor="middle" x="1166" y="-114.45" font-family="Helvetica,sans-Serif" font-size="14.00">samples = 1106</text>
<text text-anchor="middle" x="1166" y="-97.2" font-family="Helvetica,sans-Serif" font-size="14.00">value = [1442, 357]</text>
<text text-anchor="middle" x="1166" y="-79.95" font-family="Helvetica,sans-Serif" font-size="14.00">class = Animal</text>
</g>
<!-- 16108&#45;&gt;16109 -->
<g id="edge25" class="edge">
<title>16108&#45;&gt;16109</title>
<path fill="none" stroke="black" d="M1166,-202.07C1166,-194.17 1166,-185.88 1166,-177.73"/>
<polygon fill="black" stroke="black" points="1169.5,-177.87 1166,-167.87 1162.5,-177.87 1169.5,-177.87"/>
</g>
<!-- 16586 -->
<g id="node29" class="node">
<title>16586</title>
<path fill="#83c2ef" stroke="black" d="M1381.38,-166.25C1381.38,-166.25 1274.62,-166.25 1274.62,-166.25 1268.62,-166.25 1262.62,-160.25 1262.62,-154.25 1262.62,-154.25 1262.62,-84 1262.62,-84 1262.62,-78 1268.62,-72 1274.62,-72 1274.62,-72 1381.38,-72 1381.38,-72 1387.38,-72 1393.38,-78 1393.38,-84 1393.38,-84 1393.38,-154.25 1393.38,-154.25 1393.38,-160.25 1387.38,-166.25 1381.38,-166.25"/>
<text text-anchor="middle" x="1328" y="-148.95" font-family="Helvetica,sans-Serif" font-size="14.00">1_C &lt;= 0.5</text>
<text text-anchor="middle" x="1328" y="-131.7" font-family="Helvetica,sans-Serif" font-size="14.00">entropy = 0.844</text>
<text text-anchor="middle" x="1328" y="-114.45" font-family="Helvetica,sans-Serif" font-size="14.00">samples = 38</text>
<text text-anchor="middle" x="1328" y="-97.2" font-family="Helvetica,sans-Serif" font-size="14.00">value = [19, 51]</text>
<text text-anchor="middle" x="1328" y="-79.95" font-family="Helvetica,sans-Serif" font-size="14.00">class = Plant</text>
</g>
<!-- 16108&#45;&gt;16586 -->
<g id="edge28" class="edge">
<title>16108&#45;&gt;16586</title>
<path fill="none" stroke="black" d="M1224.49,-202.07C1236.11,-192.87 1248.41,-183.13 1260.32,-173.71"/>
<polygon fill="black" stroke="black" points="1262.47,-176.46 1268.14,-167.51 1258.13,-170.98 1262.47,-176.46"/>
</g>
<!-- 16110 -->
<g id="node27" class="node">
<title>16110</title>
<path fill="#c0c0c0" stroke="black" d="M1136,-36C1136,-36 1106,-36 1106,-36 1100,-36 1094,-30 1094,-24 1094,-24 1094,-12 1094,-12 1094,-6 1100,0 1106,0 1106,0 1136,0 1136,0 1142,0 1148,-6 1148,-12 1148,-12 1148,-24 1148,-24 1148,-30 1142,-36 1136,-36"/>
<text text-anchor="middle" x="1121" y="-13.32" font-family="Helvetica,sans-Serif" font-size="14.00">(...)</text>
</g>
<!-- 16109&#45;&gt;16110 -->
<g id="edge26" class="edge">
<title>16109&#45;&gt;16110</title>
<path fill="none" stroke="black" d="M1144.95,-71.75C1141.03,-63.12 1137.05,-54.36 1133.5,-46.53"/>
<polygon fill="black" stroke="black" points="1136.74,-45.21 1129.42,-37.55 1130.37,-48.1 1136.74,-45.21"/>
</g>
<!-- 16501 -->
<g id="node28" class="node">
<title>16501</title>
<path fill="#c0c0c0" stroke="black" d="M1208,-36C1208,-36 1178,-36 1178,-36 1172,-36 1166,-30 1166,-24 1166,-24 1166,-12 1166,-12 1166,-6 1172,0 1178,0 1178,0 1208,0 1208,0 1214,0 1220,-6 1220,-12 1220,-12 1220,-24 1220,-24 1220,-30 1214,-36 1208,-36"/>
<text text-anchor="middle" x="1193" y="-13.32" font-family="Helvetica,sans-Serif" font-size="14.00">(...)</text>
</g>
<!-- 16109&#45;&gt;16501 -->
<g id="edge27" class="edge">
<title>16109&#45;&gt;16501</title>
<path fill="none" stroke="black" d="M1178.63,-71.75C1180.93,-63.32 1183.26,-54.77 1185.35,-47.07"/>
<polygon fill="black" stroke="black" points="1188.67,-48.2 1187.92,-37.63 1181.92,-46.36 1188.67,-48.2"/>
</g>
<!-- 16587 -->
<g id="node30" class="node">
<title>16587</title>
<path fill="#c0c0c0" stroke="black" d="M1307,-36C1307,-36 1277,-36 1277,-36 1271,-36 1265,-30 1265,-24 1265,-24 1265,-12 1265,-12 1265,-6 1271,0 1277,0 1277,0 1307,0 1307,0 1313,0 1319,-6 1319,-12 1319,-12 1319,-24 1319,-24 1319,-30 1313,-36 1307,-36"/>
<text text-anchor="middle" x="1292" y="-13.32" font-family="Helvetica,sans-Serif" font-size="14.00">(...)</text>
</g>
<!-- 16586&#45;&gt;16587 -->
<g id="edge29" class="edge">
<title>16586&#45;&gt;16587</title>
<path fill="none" stroke="black" d="M1311.16,-71.75C1308.06,-63.22 1304.92,-54.57 1302.1,-46.8"/>
<polygon fill="black" stroke="black" points="1305.46,-45.8 1298.75,-37.6 1298.88,-48.19 1305.46,-45.8"/>
</g>
<!-- 16592 -->
<g id="node31" class="node">
<title>16592</title>
<path fill="#c0c0c0" stroke="black" d="M1379,-36C1379,-36 1349,-36 1349,-36 1343,-36 1337,-30 1337,-24 1337,-24 1337,-12 1337,-12 1337,-6 1343,0 1349,0 1349,0 1379,0 1379,0 1385,0 1391,-6 1391,-12 1391,-12 1391,-24 1391,-24 1391,-30 1385,-36 1379,-36"/>
<text text-anchor="middle" x="1364" y="-13.32" font-family="Helvetica,sans-Serif" font-size="14.00">(...)</text>
</g>
<!-- 16586&#45;&gt;16592 -->
<g id="edge30" class="edge">
<title>16586&#45;&gt;16592</title>
<path fill="none" stroke="black" d="M1344.84,-71.75C1347.94,-63.22 1351.08,-54.57 1353.9,-46.8"/>
<polygon fill="black" stroke="black" points="1357.12,-48.19 1357.25,-37.6 1350.54,-45.8 1357.12,-48.19"/>
</g>
</g>
</svg>
