<?xml version="1.0" encoding="UTF-8" standalone="no"?>
<!DOCTYPE svg PUBLIC "-//W3C//DTD SVG 1.1//EN"
 "http://www.w3.org/Graphics/SVG/1.1/DTD/svg11.dtd">
<!-- Generated by graphviz version 12.0.0 (20240803.0821)
 -->
<!-- Title: Tree Pages: 1 -->
<svg width="1364pt" height="565pt"
 viewBox="0.00 0.00 1364.38 565.00" xmlns="http://www.w3.org/2000/svg" xmlns:xlink="http://www.w3.org/1999/xlink">
<g id="graph0" class="graph" transform="scale(1 1) rotate(0) translate(4 561)">
<title>Tree</title>
<polygon fill="white" stroke="none" points="-4,4 -4,-561 1360.38,-561 1360.38,4 -4,4"/>
<!-- 0 -->
<g id="node1" class="node">
<title>0</title>
<path fill="#ffffff" stroke="black" d="M800,-557C800,-557 640,-557 640,-557 634,-557 628,-551 628,-545 628,-545 628,-474.75 628,-474.75 628,-468.75 634,-462.75 640,-462.75 640,-462.75 800,-462.75 800,-462.75 806,-462.75 812,-468.75 812,-474.75 812,-474.75 812,-545 812,-545 812,-551 806,-557 800,-557"/>
<text text-anchor="middle" x="720" y="-539.7" font-family="Helvetica,sans-Serif" font-size="14.00">23_U &lt;= 0.5</text>
<text text-anchor="middle" x="720" y="-522.45" font-family="Helvetica,sans-Serif" font-size="14.00">entropy = 1.0</text>
<text text-anchor="middle" x="720" y="-505.2" font-family="Helvetica,sans-Serif" font-size="14.00">samples = 38122</text>
<text text-anchor="middle" x="720" y="-487.95" font-family="Helvetica,sans-Serif" font-size="14.00">value = [30183, 30162]</text>
<text text-anchor="middle" x="720" y="-470.7" font-family="Helvetica,sans-Serif" font-size="14.00">class = Animal</text>
</g>
<!-- 1 -->
<g id="node2" class="node">
<title>1</title>
<path fill="#f1f8fd" stroke="black" d="M632,-426.75C632,-426.75 472,-426.75 472,-426.75 466,-426.75 460,-420.75 460,-414.75 460,-414.75 460,-344.5 460,-344.5 460,-338.5 466,-332.5 472,-332.5 472,-332.5 632,-332.5 632,-332.5 638,-332.5 644,-338.5 644,-344.5 644,-344.5 644,-414.75 644,-414.75 644,-420.75 638,-426.75 632,-426.75"/>
<text text-anchor="middle" x="552" y="-409.45" font-family="Helvetica,sans-Serif" font-size="14.00">20_C &lt;= 0.5</text>
<text text-anchor="middle" x="552" y="-392.2" font-family="Helvetica,sans-Serif" font-size="14.00">entropy = 0.999</text>
<text text-anchor="middle" x="552" y="-374.95" font-family="Helvetica,sans-Serif" font-size="14.00">samples = 36137</text>
<text text-anchor="middle" x="552" y="-357.7" font-family="Helvetica,sans-Serif" font-size="14.00">value = [27576, 29621]</text>
<text text-anchor="middle" x="552" y="-340.45" font-family="Helvetica,sans-Serif" font-size="14.00">class = Plant</text>
</g>
<!-- 0&#45;&gt;1 -->
<g id="edge1" class="edge">
<title>0&#45;&gt;1</title>
<path fill="none" stroke="black" d="M659.35,-462.57C647.17,-453.28 634.28,-443.44 621.82,-433.93"/>
<polygon fill="black" stroke="black" points="624.12,-431.28 614.05,-427.99 619.87,-436.84 624.12,-431.28"/>
<text text-anchor="middle" x="616.17" y="-447.18" font-family="Helvetica,sans-Serif" font-size="14.00">True</text>
</g>
<!-- 16268 -->
<g id="node17" class="node">
<title>16268</title>
<path fill="#ea9b62" stroke="black" d="M959.5,-426.75C959.5,-426.75 826.5,-426.75 826.5,-426.75 820.5,-426.75 814.5,-420.75 814.5,-414.75 814.5,-414.75 814.5,-344.5 814.5,-344.5 814.5,-338.5 820.5,-332.5 826.5,-332.5 826.5,-332.5 959.5,-332.5 959.5,-332.5 965.5,-332.5 971.5,-338.5 971.5,-344.5 971.5,-344.5 971.5,-414.75 971.5,-414.75 971.5,-420.75 965.5,-426.75 959.5,-426.75"/>
<text text-anchor="middle" x="893" y="-409.45" font-family="Helvetica,sans-Serif" font-size="14.00">24_C &lt;= 0.5</text>
<text text-anchor="middle" x="893" y="-392.2" font-family="Helvetica,sans-Serif" font-size="14.00">entropy = 0.662</text>
<text text-anchor="middle" x="893" y="-374.95" font-family="Helvetica,sans-Serif" font-size="14.00">samples = 1985</text>
<text text-anchor="middle" x="893" y="-357.7" font-family="Helvetica,sans-Serif" font-size="14.00">value = [2607, 541]</text>
<text text-anchor="middle" x="893" y="-340.45" font-family="Helvetica,sans-Serif" font-size="14.00">class = Animal</text>
</g>
<!-- 0&#45;&gt;16268 -->
<g id="edge16" class="edge">
<title>0&#45;&gt;16268</title>
<path fill="none" stroke="black" d="M782.46,-462.57C795,-453.28 808.27,-443.44 821.1,-433.93"/>
<polygon fill="black" stroke="black" points="823.18,-436.74 829.13,-427.97 819.01,-431.12 823.18,-436.74"/>
<text text-anchor="middle" x="826.67" y="-447.13" font-family="Helvetica,sans-Serif" font-size="14.00">False</text>
</g>
<!-- 2 -->
<g id="node3" class="node">
<title>2</title>
<path fill="#fcf3ec" stroke="black" d="M365,-296.5C365,-296.5 205,-296.5 205,-296.5 199,-296.5 193,-290.5 193,-284.5 193,-284.5 193,-214.25 193,-214.25 193,-208.25 199,-202.25 205,-202.25 205,-202.25 365,-202.25 365,-202.25 371,-202.25 377,-208.25 377,-214.25 377,-214.25 377,-284.5 377,-284.5 377,-290.5 371,-296.5 365,-296.5"/>
<text text-anchor="middle" x="285" y="-279.2" font-family="Helvetica,sans-Serif" font-size="14.00">16_G &lt;= 0.5</text>
<text text-anchor="middle" x="285" y="-261.95" font-family="Helvetica,sans-Serif" font-size="14.00">entropy = 0.998</text>
<text text-anchor="middle" x="285" y="-244.7" font-family="Helvetica,sans-Serif" font-size="14.00">samples = 26614</text>
<text text-anchor="middle" x="285" y="-227.45" font-family="Helvetica,sans-Serif" font-size="14.00">value = [22149, 19970]</text>
<text text-anchor="middle" x="285" y="-210.2" font-family="Helvetica,sans-Serif" font-size="14.00">class = Animal</text>
</g>
<!-- 1&#45;&gt;2 -->
<g id="edge2" class="edge">
<title>1&#45;&gt;2</title>
<path fill="none" stroke="black" d="M459.74,-334.31C436.4,-323.1 411.18,-310.99 387.37,-299.55"/>
<polygon fill="black" stroke="black" points="389.16,-296.52 378.63,-295.35 386.13,-302.83 389.16,-296.52"/>
</g>
<!-- 12515 -->
<g id="node10" class="node">
<title>12515</title>
<path fill="#a8d4f4" stroke="black" d="M623,-296.5C623,-296.5 481,-296.5 481,-296.5 475,-296.5 469,-290.5 469,-284.5 469,-284.5 469,-214.25 469,-214.25 469,-208.25 475,-202.25 481,-202.25 481,-202.25 623,-202.25 623,-202.25 629,-202.25 635,-208.25 635,-214.25 635,-214.25 635,-284.5 635,-284.5 635,-290.5 629,-296.5 623,-296.5"/>
<text text-anchor="middle" x="552" y="-279.2" font-family="Helvetica,sans-Serif" font-size="14.00">1_G &lt;= 0.5</text>
<text text-anchor="middle" x="552" y="-261.95" font-family="Helvetica,sans-Serif" font-size="14.00">entropy = 0.943</text>
<text text-anchor="middle" x="552" y="-244.7" font-family="Helvetica,sans-Serif" font-size="14.00">samples = 9523</text>
<text text-anchor="middle" x="552" y="-227.45" font-family="Helvetica,sans-Serif" font-size="14.00">value = [5427, 9651]</text>
<text text-anchor="middle" x="552" y="-210.2" font-family="Helvetica,sans-Serif" font-size="14.00">class = Plant</text>
</g>
<!-- 1&#45;&gt;12515 -->
<g id="edge9" class="edge">
<title>1&#45;&gt;12515</title>
<path fill="none" stroke="black" d="M552,-332.32C552,-324.42 552,-316.13 552,-307.98"/>
<polygon fill="black" stroke="black" points="555.5,-308.12 552,-298.12 548.5,-308.12 555.5,-308.12"/>
</g>
<!-- 3 -->
<g id="node4" class="node">
<title>3</title>
<path fill="#fae5d7" stroke="black" d="M172,-166.25C172,-166.25 12,-166.25 12,-166.25 6,-166.25 0,-160.25 0,-154.25 0,-154.25 0,-84 0,-84 0,-78 6,-72 12,-72 12,-72 172,-72 172,-72 178,-72 184,-78 184,-84 184,-84 184,-154.25 184,-154.25 184,-160.25 178,-166.25 172,-166.25"/>
<text text-anchor="middle" x="92" y="-148.95" font-family="Helvetica,sans-Serif" font-size="14.00">8_G &lt;= 0.5</text>
<text text-anchor="middle" x="92" y="-131.7" font-family="Helvetica,sans-Serif" font-size="14.00">entropy = 0.991</text>
<text text-anchor="middle" x="92" y="-114.45" font-family="Helvetica,sans-Serif" font-size="14.00">samples = 18730</text>
<text text-anchor="middle" x="92" y="-97.2" font-family="Helvetica,sans-Serif" font-size="14.00">value = [16455, 13096]</text>
<text text-anchor="middle" x="92" y="-79.95" font-family="Helvetica,sans-Serif" font-size="14.00">class = Animal</text>
</g>
<!-- 2&#45;&gt;3 -->
<g id="edge3" class="edge">
<title>2&#45;&gt;3</title>
<path fill="none" stroke="black" d="M215.05,-201.89C200.89,-192.48 185.9,-182.53 171.45,-172.92"/>
<polygon fill="black" stroke="black" points="173.56,-170.12 163.3,-167.5 169.69,-175.95 173.56,-170.12"/>
</g>
<!-- 9222 -->
<g id="node7" class="node">
<title>9222</title>
<path fill="#ddeefb" stroke="black" d="M356,-166.25C356,-166.25 214,-166.25 214,-166.25 208,-166.25 202,-160.25 202,-154.25 202,-154.25 202,-84 202,-84 202,-78 208,-72 214,-72 214,-72 356,-72 356,-72 362,-72 368,-78 368,-84 368,-84 368,-154.25 368,-154.25 368,-160.25 362,-166.25 356,-166.25"/>
<text text-anchor="middle" x="285" y="-148.95" font-family="Helvetica,sans-Serif" font-size="14.00">19_C &lt;= 0.5</text>
<text text-anchor="middle" x="285" y="-131.7" font-family="Helvetica,sans-Serif" font-size="14.00">entropy = 0.994</text>
<text text-anchor="middle" x="285" y="-114.45" font-family="Helvetica,sans-Serif" font-size="14.00">samples = 7884</text>
<text text-anchor="middle" x="285" y="-97.2" font-family="Helvetica,sans-Serif" font-size="14.00">value = [5694, 6874]</text>
<text text-anchor="middle" x="285" y="-79.95" font-family="Helvetica,sans-Serif" font-size="14.00">class = Plant</text>
</g>
<!-- 2&#45;&gt;9222 -->
<g id="edge6" class="edge">
<title>2&#45;&gt;9222</title>
<path fill="none" stroke="black" d="M285,-202.07C285,-194.17 285,-185.88 285,-177.73"/>
<polygon fill="black" stroke="black" points="288.5,-177.87 285,-167.87 281.5,-177.87 288.5,-177.87"/>
</g>
<!-- 4 -->
<g id="node5" class="node">
<title>4</title>
<path fill="#c0c0c0" stroke="black" d="M71,-36C71,-36 41,-36 41,-36 35,-36 29,-30 29,-24 29,-24 29,-12 29,-12 29,-6 35,0 41,0 41,0 71,0 71,0 77,0 83,-6 83,-12 83,-12 83,-24 83,-24 83,-30 77,-36 71,-36"/>
<text text-anchor="middle" x="56" y="-13.32" font-family="Helvetica,sans-Serif" font-size="14.00">(...)</text>
</g>
<!-- 3&#45;&gt;4 -->
<g id="edge4" class="edge">
<title>3&#45;&gt;4</title>
<path fill="none" stroke="black" d="M75.16,-71.75C72.06,-63.22 68.92,-54.57 66.1,-46.8"/>
<polygon fill="black" stroke="black" points="69.46,-45.8 62.75,-37.6 62.88,-48.19 69.46,-45.8"/>
</g>
<!-- 6673 -->
<g id="node6" class="node">
<title>6673</title>
<path fill="#c0c0c0" stroke="black" d="M143,-36C143,-36 113,-36 113,-36 107,-36 101,-30 101,-24 101,-24 101,-12 101,-12 101,-6 107,0 113,0 113,0 143,0 143,0 149,0 155,-6 155,-12 155,-12 155,-24 155,-24 155,-30 149,-36 143,-36"/>
<text text-anchor="middle" x="128" y="-13.32" font-family="Helvetica,sans-Serif" font-size="14.00">(...)</text>
</g>
<!-- 3&#45;&gt;6673 -->
<g id="edge5" class="edge">
<title>3&#45;&gt;6673</title>
<path fill="none" stroke="black" d="M108.84,-71.75C111.94,-63.22 115.08,-54.57 117.9,-46.8"/>
<polygon fill="black" stroke="black" points="121.12,-48.19 121.25,-37.6 114.54,-45.8 121.12,-48.19"/>
</g>
<!-- 9223 -->
<g id="node8" class="node">
<title>9223</title>
<path fill="#c0c0c0" stroke="black" d="M263,-36C263,-36 233,-36 233,-36 227,-36 221,-30 221,-24 221,-24 221,-12 221,-12 221,-6 227,0 233,0 233,0 263,0 263,0 269,0 275,-6 275,-12 275,-12 275,-24 275,-24 275,-30 269,-36 263,-36"/>
<text text-anchor="middle" x="248" y="-13.32" font-family="Helvetica,sans-Serif" font-size="14.00">(...)</text>
</g>
<!-- 9222&#45;&gt;9223 -->
<g id="edge7" class="edge">
<title>9222&#45;&gt;9223</title>
<path fill="none" stroke="black" d="M267.69,-71.75C264.51,-63.22 261.28,-54.57 258.38,-46.8"/>
<polygon fill="black" stroke="black" points="261.72,-45.74 254.94,-37.59 255.16,-48.18 261.72,-45.74"/>
</g>
<!-- 11752 -->
<g id="node9" class="node">
<title>11752</title>
<path fill="#c0c0c0" stroke="black" d="M335,-36C335,-36 305,-36 305,-36 299,-36 293,-30 293,-24 293,-24 293,-12 293,-12 293,-6 299,0 305,0 305,0 335,0 335,0 341,0 347,-6 347,-12 347,-12 347,-24 347,-24 347,-30 341,-36 335,-36"/>
<text text-anchor="middle" x="320" y="-13.32" font-family="Helvetica,sans-Serif" font-size="14.00">(...)</text>
</g>
<!-- 9222&#45;&gt;11752 -->
<g id="edge8" class="edge">
<title>9222&#45;&gt;11752</title>
<path fill="none" stroke="black" d="M301.37,-71.75C304.39,-63.22 307.44,-54.57 310.18,-46.8"/>
<polygon fill="black" stroke="black" points="313.4,-48.19 313.43,-37.6 306.8,-45.86 313.4,-48.19"/>
</g>
<!-- 12516 -->
<g id="node11" class="node">
<title>12516</title>
<path fill="#a5d2f3" stroke="black" d="M540,-166.25C540,-166.25 398,-166.25 398,-166.25 392,-166.25 386,-160.25 386,-154.25 386,-154.25 386,-84 386,-84 386,-78 392,-72 398,-72 398,-72 540,-72 540,-72 546,-72 552,-78 552,-84 552,-84 552,-154.25 552,-154.25 552,-160.25 546,-166.25 540,-166.25"/>
<text text-anchor="middle" x="469" y="-148.95" font-family="Helvetica,sans-Serif" font-size="14.00">18_C &lt;= 0.5</text>
<text text-anchor="middle" x="469" y="-131.7" font-family="Helvetica,sans-Serif" font-size="14.00">entropy = 0.936</text>
<text text-anchor="middle" x="469" y="-114.45" font-family="Helvetica,sans-Serif" font-size="14.00">samples = 8738</text>
<text text-anchor="middle" x="469" y="-97.2" font-family="Helvetica,sans-Serif" font-size="14.00">value = [4875, 8965]</text>
<text text-anchor="middle" x="469" y="-79.95" font-family="Helvetica,sans-Serif" font-size="14.00">class = Plant</text>
</g>
<!-- 12515&#45;&gt;12516 -->
<g id="edge10" class="edge">
<title>12515&#45;&gt;12516</title>
<path fill="none" stroke="black" d="M522.04,-202.07C516.51,-193.54 510.69,-184.54 505.01,-175.77"/>
<polygon fill="black" stroke="black" points="508.11,-174.12 499.74,-167.63 502.24,-177.93 508.11,-174.12"/>
</g>
<!-- 15755 -->
<g id="node14" class="node">
<title>15755</title>
<path fill="#d8ecfa" stroke="black" d="M706,-166.25C706,-166.25 582,-166.25 582,-166.25 576,-166.25 570,-160.25 570,-154.25 570,-154.25 570,-84 570,-84 570,-78 576,-72 582,-72 582,-72 706,-72 706,-72 712,-72 718,-78 718,-84 718,-84 718,-154.25 718,-154.25 718,-160.25 712,-166.25 706,-166.25"/>
<text text-anchor="middle" x="644" y="-148.95" font-family="Helvetica,sans-Serif" font-size="14.00">17_U &lt;= 0.5</text>
<text text-anchor="middle" x="644" y="-131.7" font-family="Helvetica,sans-Serif" font-size="14.00">entropy = 0.992</text>
<text text-anchor="middle" x="644" y="-114.45" font-family="Helvetica,sans-Serif" font-size="14.00">samples = 785</text>
<text text-anchor="middle" x="644" y="-97.2" font-family="Helvetica,sans-Serif" font-size="14.00">value = [552, 686]</text>
<text text-anchor="middle" x="644" y="-79.95" font-family="Helvetica,sans-Serif" font-size="14.00">class = Plant</text>
</g>
<!-- 12515&#45;&gt;15755 -->
<g id="edge13" class="edge">
<title>12515&#45;&gt;15755</title>
<path fill="none" stroke="black" d="M585.21,-202.07C591.4,-193.45 597.93,-184.35 604.29,-175.49"/>
<polygon fill="black" stroke="black" points="606.97,-177.75 609.95,-167.59 601.28,-173.67 606.97,-177.75"/>
</g>
<!-- 12517 -->
<g id="node12" class="node">
<title>12517</title>
<path fill="#c0c0c0" stroke="black" d="M427,-36C427,-36 397,-36 397,-36 391,-36 385,-30 385,-24 385,-24 385,-12 385,-12 385,-6 391,0 397,0 397,0 427,0 427,0 433,0 439,-6 439,-12 439,-12 439,-24 439,-24 439,-30 433,-36 427,-36"/>
<text text-anchor="middle" x="412" y="-13.32" font-family="Helvetica,sans-Serif" font-size="14.00">(...)</text>
</g>
<!-- 12516&#45;&gt;12517 -->
<g id="edge11" class="edge">
<title>12516&#45;&gt;12517</title>
<path fill="none" stroke="black" d="M442.34,-71.75C437.26,-62.93 432.1,-53.96 427.52,-45.99"/>
<polygon fill="black" stroke="black" points="430.65,-44.41 422.63,-37.48 424.58,-47.9 430.65,-44.41"/>
</g>
<!-- 15018 -->
<g id="node13" class="node">
<title>15018</title>
<path fill="#c0c0c0" stroke="black" d="M499,-36C499,-36 469,-36 469,-36 463,-36 457,-30 457,-24 457,-24 457,-12 457,-12 457,-6 463,0 469,0 469,0 499,0 499,0 505,0 511,-6 511,-12 511,-12 511,-24 511,-24 511,-30 505,-36 499,-36"/>
<text text-anchor="middle" x="484" y="-13.32" font-family="Helvetica,sans-Serif" font-size="14.00">(...)</text>
</g>
<!-- 12516&#45;&gt;15018 -->
<g id="edge12" class="edge">
<title>12516&#45;&gt;15018</title>
<path fill="none" stroke="black" d="M476.02,-71.75C477.28,-63.42 478.56,-54.97 479.71,-47.34"/>
<polygon fill="black" stroke="black" points="483.14,-48.08 481.17,-37.67 476.22,-47.03 483.14,-48.08"/>
</g>
<!-- 15756 -->
<g id="node15" class="node">
<title>15756</title>
<path fill="#c0c0c0" stroke="black" d="M600,-36C600,-36 570,-36 570,-36 564,-36 558,-30 558,-24 558,-24 558,-12 558,-12 558,-6 564,0 570,0 570,0 600,0 600,0 606,0 612,-6 612,-12 612,-12 612,-24 612,-24 612,-30 606,-36 600,-36"/>
<text text-anchor="middle" x="585" y="-13.32" font-family="Helvetica,sans-Serif" font-size="14.00">(...)</text>
</g>
<!-- 15755&#45;&gt;15756 -->
<g id="edge14" class="edge">
<title>15755&#45;&gt;15756</title>
<path fill="none" stroke="black" d="M616.4,-71.75C611.15,-62.93 605.81,-53.96 601.06,-45.99"/>
<polygon fill="black" stroke="black" points="604.12,-44.28 596,-37.47 598.1,-47.86 604.12,-44.28"/>
</g>
<!-- 16151 -->
<g id="node16" class="node">
<title>16151</title>
<path fill="#c0c0c0" stroke="black" d="M672,-36C672,-36 642,-36 642,-36 636,-36 630,-30 630,-24 630,-24 630,-12 630,-12 630,-6 636,0 642,0 642,0 672,0 672,0 678,0 684,-6 684,-12 684,-12 684,-24 684,-24 684,-30 678,-36 672,-36"/>
<text text-anchor="middle" x="657" y="-13.32" font-family="Helvetica,sans-Serif" font-size="14.00">(...)</text>
</g>
<!-- 15755&#45;&gt;16151 -->
<g id="edge15" class="edge">
<title>15755&#45;&gt;16151</title>
<path fill="none" stroke="black" d="M650.08,-71.75C651.17,-63.42 652.28,-54.97 653.28,-47.34"/>
<polygon fill="black" stroke="black" points="656.72,-48.04 654.55,-37.67 649.78,-47.13 656.72,-48.04"/>
</g>
<!-- 16269 -->
<g id="node18" class="node">
<title>16269</title>
<path fill="#ea995f" stroke="black" d="M959.5,-296.5C959.5,-296.5 826.5,-296.5 826.5,-296.5 820.5,-296.5 814.5,-290.5 814.5,-284.5 814.5,-284.5 814.5,-214.25 814.5,-214.25 814.5,-208.25 820.5,-202.25 826.5,-202.25 826.5,-202.25 959.5,-202.25 959.5,-202.25 965.5,-202.25 971.5,-208.25 971.5,-214.25 971.5,-214.25 971.5,-284.5 971.5,-284.5 971.5,-290.5 965.5,-296.5 959.5,-296.5"/>
<text text-anchor="middle" x="893" y="-279.2" font-family="Helvetica,sans-Serif" font-size="14.00">22_U &lt;= 0.5</text>
<text text-anchor="middle" x="893" y="-261.95" font-family="Helvetica,sans-Serif" font-size="14.00">entropy = 0.636</text>
<text text-anchor="middle" x="893" y="-244.7" font-family="Helvetica,sans-Serif" font-size="14.00">samples = 1846</text>
<text text-anchor="middle" x="893" y="-227.45" font-family="Helvetica,sans-Serif" font-size="14.00">value = [2474, 473]</text>
<text text-anchor="middle" x="893" y="-210.2" font-family="Helvetica,sans-Serif" font-size="14.00">class = Animal</text>
</g>
<!-- 16268&#45;&gt;16269 -->
<g id="edge17" class="edge">
<title>16268&#45;&gt;16269</title>
<path fill="none" stroke="black" d="M893,-332.32C893,-324.42 893,-316.13 893,-307.98"/>
<polygon fill="black" stroke="black" points="896.5,-308.12 893,-298.12 889.5,-308.12 896.5,-308.12"/>
</g>
<!-- 16952 -->
<g id="node25" class="node">
<title>16952</title>
<path fill="#f2c19e" stroke="black" d="M1195.5,-296.5C1195.5,-296.5 1080.5,-296.5 1080.5,-296.5 1074.5,-296.5 1068.5,-290.5 1068.5,-284.5 1068.5,-284.5 1068.5,-214.25 1068.5,-214.25 1068.5,-208.25 1074.5,-202.25 1080.5,-202.25 1080.5,-202.25 1195.5,-202.25 1195.5,-202.25 1201.5,-202.25 1207.5,-208.25 1207.5,-214.25 1207.5,-214.25 1207.5,-284.5 1207.5,-284.5 1207.5,-290.5 1201.5,-296.5 1195.5,-296.5"/>
<text text-anchor="middle" x="1138" y="-279.2" font-family="Helvetica,sans-Serif" font-size="14.00">12_C &lt;= 0.5</text>
<text text-anchor="middle" x="1138" y="-261.95" font-family="Helvetica,sans-Serif" font-size="14.00">entropy = 0.923</text>
<text text-anchor="middle" x="1138" y="-244.7" font-family="Helvetica,sans-Serif" font-size="14.00">samples = 139</text>
<text text-anchor="middle" x="1138" y="-227.45" font-family="Helvetica,sans-Serif" font-size="14.00">value = [133, 68]</text>
<text text-anchor="middle" x="1138" y="-210.2" font-family="Helvetica,sans-Serif" font-size="14.00">class = Animal</text>
</g>
<!-- 16268&#45;&gt;16952 -->
<g id="edge24" class="edge">
<title>16268&#45;&gt;16952</title>
<path fill="none" stroke="black" d="M971.87,-337.34C999.53,-322.86 1030.6,-306.6 1058.32,-292.08"/>
<polygon fill="black" stroke="black" points="1059.79,-295.26 1067.03,-287.53 1056.55,-289.06 1059.79,-295.26"/>
</g>
<!-- 16270 -->
<g id="node19" class="node">
<title>16270</title>
<path fill="#eb9c64" stroke="black" d="M881.5,-166.25C881.5,-166.25 748.5,-166.25 748.5,-166.25 742.5,-166.25 736.5,-160.25 736.5,-154.25 736.5,-154.25 736.5,-84 736.5,-84 736.5,-78 742.5,-72 748.5,-72 748.5,-72 881.5,-72 881.5,-72 887.5,-72 893.5,-78 893.5,-84 893.5,-84 893.5,-154.25 893.5,-154.25 893.5,-160.25 887.5,-166.25 881.5,-166.25"/>
<text text-anchor="middle" x="815" y="-148.95" font-family="Helvetica,sans-Serif" font-size="14.00">19_C &lt;= 0.5</text>
<text text-anchor="middle" x="815" y="-131.7" font-family="Helvetica,sans-Serif" font-size="14.00">entropy = 0.676</text>
<text text-anchor="middle" x="815" y="-114.45" font-family="Helvetica,sans-Serif" font-size="14.00">samples = 1453</text>
<text text-anchor="middle" x="815" y="-97.2" font-family="Helvetica,sans-Serif" font-size="14.00">value = [1914, 415]</text>
<text text-anchor="middle" x="815" y="-79.95" font-family="Helvetica,sans-Serif" font-size="14.00">class = Animal</text>
</g>
<!-- 16269&#45;&gt;16270 -->
<g id="edge18" class="edge">
<title>16269&#45;&gt;16270</title>
<path fill="none" stroke="black" d="M864.84,-202.07C859.7,-193.63 854.3,-184.74 849.01,-176.05"/>
<polygon fill="black" stroke="black" points="852.09,-174.38 843.9,-167.65 846.11,-178.01 852.09,-174.38"/>
</g>
<!-- 16819 -->
<g id="node22" class="node">
<title>16819</title>
<path fill="#e88e4e" stroke="black" d="M1038.5,-166.25C1038.5,-166.25 923.5,-166.25 923.5,-166.25 917.5,-166.25 911.5,-160.25 911.5,-154.25 911.5,-154.25 911.5,-84 911.5,-84 911.5,-78 917.5,-72 923.5,-72 923.5,-72 1038.5,-72 1038.5,-72 1044.5,-72 1050.5,-78 1050.5,-84 1050.5,-84 1050.5,-154.25 1050.5,-154.25 1050.5,-160.25 1044.5,-166.25 1038.5,-166.25"/>
<text text-anchor="middle" x="981" y="-148.95" font-family="Helvetica,sans-Serif" font-size="14.00">21_U &lt;= 0.5</text>
<text text-anchor="middle" x="981" y="-131.7" font-family="Helvetica,sans-Serif" font-size="14.00">entropy = 0.449</text>
<text text-anchor="middle" x="981" y="-114.45" font-family="Helvetica,sans-Serif" font-size="14.00">samples = 393</text>
<text text-anchor="middle" x="981" y="-97.2" font-family="Helvetica,sans-Serif" font-size="14.00">value = [560, 58]</text>
<text text-anchor="middle" x="981" y="-79.95" font-family="Helvetica,sans-Serif" font-size="14.00">class = Animal</text>
</g>
<!-- 16269&#45;&gt;16819 -->
<g id="edge21" class="edge">
<title>16269&#45;&gt;16819</title>
<path fill="none" stroke="black" d="M924.77,-202.07C930.63,-193.54 936.8,-184.54 942.82,-175.77"/>
<polygon fill="black" stroke="black" points="945.65,-177.83 948.42,-167.61 939.88,-173.87 945.65,-177.83"/>
</g>
<!-- 16271 -->
<g id="node20" class="node">
<title>16271</title>
<path fill="#c0c0c0" stroke="black" d="M769,-36C769,-36 739,-36 739,-36 733,-36 727,-30 727,-24 727,-24 727,-12 727,-12 727,-6 733,0 739,0 739,0 769,0 769,0 775,0 781,-6 781,-12 781,-12 781,-24 781,-24 781,-30 775,-36 769,-36"/>
<text text-anchor="middle" x="754" y="-13.32" font-family="Helvetica,sans-Serif" font-size="14.00">(...)</text>
</g>
<!-- 16270&#45;&gt;16271 -->
<g id="edge19" class="edge">
<title>16270&#45;&gt;16271</title>
<path fill="none" stroke="black" d="M786.46,-71.75C780.97,-62.83 775.39,-53.76 770.44,-45.72"/>
<polygon fill="black" stroke="black" points="773.58,-44.14 765.36,-37.46 767.62,-47.81 773.58,-44.14"/>
</g>
<!-- 16698 -->
<g id="node21" class="node">
<title>16698</title>
<path fill="#c0c0c0" stroke="black" d="M841,-36C841,-36 811,-36 811,-36 805,-36 799,-30 799,-24 799,-24 799,-12 799,-12 799,-6 805,0 811,0 811,0 841,0 841,0 847,0 853,-6 853,-12 853,-12 853,-24 853,-24 853,-30 847,-36 841,-36"/>
<text text-anchor="middle" x="826" y="-13.32" font-family="Helvetica,sans-Serif" font-size="14.00">(...)</text>
</g>
<!-- 16270&#45;&gt;16698 -->
<g id="edge20" class="edge">
<title>16270&#45;&gt;16698</title>
<path fill="none" stroke="black" d="M820.15,-71.75C821.06,-63.52 821.99,-55.17 822.82,-47.61"/>
<polygon fill="black" stroke="black" points="826.3,-48 823.93,-37.68 819.35,-47.23 826.3,-48"/>
</g>
<!-- 16820 -->
<g id="node23" class="node">
<title>16820</title>
<path fill="#c0c0c0" stroke="black" d="M930,-36C930,-36 900,-36 900,-36 894,-36 888,-30 888,-24 888,-24 888,-12 888,-12 888,-6 894,0 900,0 900,0 930,0 930,0 936,0 942,-6 942,-12 942,-12 942,-24 942,-24 942,-30 936,-36 930,-36"/>
<text text-anchor="middle" x="915" y="-13.32" font-family="Helvetica,sans-Serif" font-size="14.00">(...)</text>
</g>
<!-- 16819&#45;&gt;16820 -->
<g id="edge22" class="edge">
<title>16819&#45;&gt;16820</title>
<path fill="none" stroke="black" d="M950.13,-71.75C944.18,-62.83 938.14,-53.76 932.79,-45.72"/>
<polygon fill="black" stroke="black" points="935.73,-43.82 927.27,-37.43 929.9,-47.7 935.73,-43.82"/>
</g>
<!-- 16919 -->
<g id="node24" class="node">
<title>16919</title>
<path fill="#c0c0c0" stroke="black" d="M1002,-36C1002,-36 972,-36 972,-36 966,-36 960,-30 960,-24 960,-24 960,-12 960,-12 960,-6 966,0 972,0 972,0 1002,0 1002,0 1008,0 1014,-6 1014,-12 1014,-12 1014,-24 1014,-24 1014,-30 1008,-36 1002,-36"/>
<text text-anchor="middle" x="987" y="-13.32" font-family="Helvetica,sans-Serif" font-size="14.00">(...)</text>
</g>
<!-- 16819&#45;&gt;16919 -->
<g id="edge23" class="edge">
<title>16819&#45;&gt;16919</title>
<path fill="none" stroke="black" d="M983.81,-71.75C984.31,-63.52 984.81,-55.17 985.27,-47.61"/>
<polygon fill="black" stroke="black" points="988.76,-47.88 985.87,-37.68 981.77,-47.45 988.76,-47.88"/>
</g>
<!-- 16953 -->
<g id="node26" class="node">
<title>16953</title>
<path fill="#efb388" stroke="black" d="M1195.5,-166.25C1195.5,-166.25 1080.5,-166.25 1080.5,-166.25 1074.5,-166.25 1068.5,-160.25 1068.5,-154.25 1068.5,-154.25 1068.5,-84 1068.5,-84 1068.5,-78 1074.5,-72 1080.5,-72 1080.5,-72 1195.5,-72 1195.5,-72 1201.5,-72 1207.5,-78 1207.5,-84 1207.5,-84 1207.5,-154.25 1207.5,-154.25 1207.5,-160.25 1201.5,-166.25 1195.5,-166.25"/>
<text text-anchor="middle" x="1138" y="-148.95" font-family="Helvetica,sans-Serif" font-size="14.00">17_U &lt;= 0.5</text>
<text text-anchor="middle" x="1138" y="-131.7" font-family="Helvetica,sans-Serif" font-size="14.00">entropy = 0.863</text>
<text text-anchor="middle" x="1138" y="-114.45" font-family="Helvetica,sans-Serif" font-size="14.00">samples = 112</text>
<text text-anchor="middle" x="1138" y="-97.2" font-family="Helvetica,sans-Serif" font-size="14.00">value = [115, 46]</text>
<text text-anchor="middle" x="1138" y="-79.95" font-family="Helvetica,sans-Serif" font-size="14.00">class = Animal</text>
</g>
<!-- 16952&#45;&gt;16953 -->
<g id="edge25" class="edge">
<title>16952&#45;&gt;16953</title>
<path fill="none" stroke="black" d="M1138,-202.07C1138,-194.17 1138,-185.88 1138,-177.73"/>
<polygon fill="black" stroke="black" points="1141.5,-177.87 1138,-167.87 1134.5,-177.87 1141.5,-177.87"/>
</g>
<!-- 17010 -->
<g id="node29" class="node">
<title>17010</title>
<path fill="#dbedfa" stroke="black" d="M1344.38,-166.25C1344.38,-166.25 1237.62,-166.25 1237.62,-166.25 1231.62,-166.25 1225.62,-160.25 1225.62,-154.25 1225.62,-154.25 1225.62,-84 1225.62,-84 1225.62,-78 1231.62,-72 1237.62,-72 1237.62,-72 1344.38,-72 1344.38,-72 1350.38,-72 1356.38,-78 1356.38,-84 1356.38,-84 1356.38,-154.25 1356.38,-154.25 1356.38,-160.25 1350.38,-166.25 1344.38,-166.25"/>
<text text-anchor="middle" x="1291" y="-148.95" font-family="Helvetica,sans-Serif" font-size="14.00">3_C &lt;= 0.5</text>
<text text-anchor="middle" x="1291" y="-131.7" font-family="Helvetica,sans-Serif" font-size="14.00">entropy = 0.993</text>
<text text-anchor="middle" x="1291" y="-114.45" font-family="Helvetica,sans-Serif" font-size="14.00">samples = 27</text>
<text text-anchor="middle" x="1291" y="-97.2" font-family="Helvetica,sans-Serif" font-size="14.00">value = [18, 22]</text>
<text text-anchor="middle" x="1291" y="-79.95" font-family="Helvetica,sans-Serif" font-size="14.00">class = Plant</text>
</g>
<!-- 16952&#45;&gt;17010 -->
<g id="edge28" class="edge">
<title>16952&#45;&gt;17010</title>
<path fill="none" stroke="black" d="M1193.24,-202.07C1204.22,-192.87 1215.83,-183.13 1227.08,-173.71"/>
<polygon fill="black" stroke="black" points="1229.01,-176.65 1234.43,-167.55 1224.52,-171.29 1229.01,-176.65"/>
</g>
<!-- 16954 -->
<g id="node27" class="node">
<title>16954</title>
<path fill="#c0c0c0" stroke="black" d="M1103,-36C1103,-36 1073,-36 1073,-36 1067,-36 1061,-30 1061,-24 1061,-24 1061,-12 1061,-12 1061,-6 1067,0 1073,0 1073,0 1103,0 1103,0 1109,0 1115,-6 1115,-12 1115,-12 1115,-24 1115,-24 1115,-30 1109,-36 1103,-36"/>
<text text-anchor="middle" x="1088" y="-13.32" font-family="Helvetica,sans-Serif" font-size="14.00">(...)</text>
</g>
<!-- 16953&#45;&gt;16954 -->
<g id="edge26" class="edge">
<title>16953&#45;&gt;16954</title>
<path fill="none" stroke="black" d="M1114.61,-71.75C1110.21,-63.03 1105.74,-54.16 1101.75,-46.26"/>
<polygon fill="black" stroke="black" points="1104.97,-44.88 1097.34,-37.52 1098.72,-48.03 1104.97,-44.88"/>
</g>
<!-- 17001 -->
<g id="node28" class="node">
<title>17001</title>
<path fill="#c0c0c0" stroke="black" d="M1175,-36C1175,-36 1145,-36 1145,-36 1139,-36 1133,-30 1133,-24 1133,-24 1133,-12 1133,-12 1133,-6 1139,0 1145,0 1145,0 1175,0 1175,0 1181,0 1187,-6 1187,-12 1187,-12 1187,-24 1187,-24 1187,-30 1181,-36 1175,-36"/>
<text text-anchor="middle" x="1160" y="-13.32" font-family="Helvetica,sans-Serif" font-size="14.00">(...)</text>
</g>
<!-- 16953&#45;&gt;17001 -->
<g id="edge27" class="edge">
<title>16953&#45;&gt;17001</title>
<path fill="none" stroke="black" d="M1148.29,-71.75C1150.14,-63.42 1152.02,-54.97 1153.71,-47.34"/>
<polygon fill="black" stroke="black" points="1157.11,-48.17 1155.86,-37.65 1150.28,-46.65 1157.11,-48.17"/>
</g>
<!-- 17011 -->
<g id="node30" class="node">
<title>17011</title>
<path fill="#c0c0c0" stroke="black" d="M1270,-36C1270,-36 1240,-36 1240,-36 1234,-36 1228,-30 1228,-24 1228,-24 1228,-12 1228,-12 1228,-6 1234,0 1240,0 1240,0 1270,0 1270,0 1276,0 1282,-6 1282,-12 1282,-12 1282,-24 1282,-24 1282,-30 1276,-36 1270,-36"/>
<text text-anchor="middle" x="1255" y="-13.32" font-family="Helvetica,sans-Serif" font-size="14.00">(...)</text>
</g>
<!-- 17010&#45;&gt;17011 -->
<g id="edge29" class="edge">
<title>17010&#45;&gt;17011</title>
<path fill="none" stroke="black" d="M1274.16,-71.75C1271.06,-63.22 1267.92,-54.57 1265.1,-46.8"/>
<polygon fill="black" stroke="black" points="1268.46,-45.8 1261.75,-37.6 1261.88,-48.19 1268.46,-45.8"/>
</g>
<!-- 17028 -->
<g id="node31" class="node">
<title>17028</title>
<path fill="#c0c0c0" stroke="black" d="M1342,-36C1342,-36 1312,-36 1312,-36 1306,-36 1300,-30 1300,-24 1300,-24 1300,-12 1300,-12 1300,-6 1306,0 1312,0 1312,0 1342,0 1342,0 1348,0 1354,-6 1354,-12 1354,-12 1354,-24 1354,-24 1354,-30 1348,-36 1342,-36"/>
<text text-anchor="middle" x="1327" y="-13.32" font-family="Helvetica,sans-Serif" font-size="14.00">(...)</text>
</g>
<!-- 17010&#45;&gt;17028 -->
<g id="edge30" class="edge">
<title>17010&#45;&gt;17028</title>
<path fill="none" stroke="black" d="M1307.84,-71.75C1310.94,-63.22 1314.08,-54.57 1316.9,-46.8"/>
<polygon fill="black" stroke="black" points="1320.12,-48.19 1320.25,-37.6 1313.54,-45.8 1320.12,-48.19"/>
</g>
</g>
</svg>
