<?xml version="1.0" encoding="UTF-8" standalone="no"?>
<!DOCTYPE svg PUBLIC "-//W3C//DTD SVG 1.1//EN"
 "http://www.w3.org/Graphics/SVG/1.1/DTD/svg11.dtd">
<!-- Generated by graphviz version 12.0.0 (20240803.0821)
 -->
<!-- Title: Tree Pages: 1 -->
<svg width="1447pt" height="565pt"
 viewBox="0.00 0.00 1447.00 565.00" xmlns="http://www.w3.org/2000/svg" xmlns:xlink="http://www.w3.org/1999/xlink">
<g id="graph0" class="graph" transform="scale(1 1) rotate(0) translate(4 561)">
<title>Tree</title>
<polygon fill="white" stroke="none" points="-4,4 -4,-561 1443,-561 1443,4 -4,4"/>
<!-- 0 -->
<g id="node1" class="node">
<title>0</title>
<path fill="#feffff" stroke="black" d="M822,-557C822,-557 662,-557 662,-557 656,-557 650,-551 650,-545 650,-545 650,-474.75 650,-474.75 650,-468.75 656,-462.75 662,-462.75 662,-462.75 822,-462.75 822,-462.75 828,-462.75 834,-468.75 834,-474.75 834,-474.75 834,-545 834,-545 834,-551 828,-557 822,-557"/>
<text text-anchor="middle" x="742" y="-539.7" font-family="Helvetica,sans-Serif" font-size="14.00">3_U &lt;= 0.5</text>
<text text-anchor="middle" x="742" y="-522.45" font-family="Helvetica,sans-Serif" font-size="14.00">entropy = 1.0</text>
<text text-anchor="middle" x="742" y="-505.2" font-family="Helvetica,sans-Serif" font-size="14.00">samples = 38197</text>
<text text-anchor="middle" x="742" y="-487.95" font-family="Helvetica,sans-Serif" font-size="14.00">value = [30132, 30213]</text>
<text text-anchor="middle" x="742" y="-470.7" font-family="Helvetica,sans-Serif" font-size="14.00">class = Plant</text>
</g>
<!-- 1 -->
<g id="node2" class="node">
<title>1</title>
<path fill="#f1f8fd" stroke="black" d="M644,-426.75C644,-426.75 484,-426.75 484,-426.75 478,-426.75 472,-420.75 472,-414.75 472,-414.75 472,-344.5 472,-344.5 472,-338.5 478,-332.5 484,-332.5 484,-332.5 644,-332.5 644,-332.5 650,-332.5 656,-338.5 656,-344.5 656,-344.5 656,-414.75 656,-414.75 656,-420.75 650,-426.75 644,-426.75"/>
<text text-anchor="middle" x="564" y="-409.45" font-family="Helvetica,sans-Serif" font-size="14.00">22_A &lt;= 0.5</text>
<text text-anchor="middle" x="564" y="-392.2" font-family="Helvetica,sans-Serif" font-size="14.00">entropy = 0.999</text>
<text text-anchor="middle" x="564" y="-374.95" font-family="Helvetica,sans-Serif" font-size="14.00">samples = 30125</text>
<text text-anchor="middle" x="564" y="-357.7" font-family="Helvetica,sans-Serif" font-size="14.00">value = [22870, 24625]</text>
<text text-anchor="middle" x="564" y="-340.45" font-family="Helvetica,sans-Serif" font-size="14.00">class = Plant</text>
</g>
<!-- 0&#45;&gt;1 -->
<g id="edge1" class="edge">
<title>0&#45;&gt;1</title>
<path fill="none" stroke="black" d="M677.49,-462.39C664.55,-453.07 650.87,-443.22 637.65,-433.69"/>
<polygon fill="black" stroke="black" points="639.98,-431.06 629.82,-428.05 635.89,-436.73 639.98,-431.06"/>
<text text-anchor="middle" x="632.6" y="-447.17" font-family="Helvetica,sans-Serif" font-size="14.00">True</text>
</g>
<!-- 12744 -->
<g id="node17" class="node">
<title>12744</title>
<path fill="#f9e2d1" stroke="black" d="M995,-426.75C995,-426.75 853,-426.75 853,-426.75 847,-426.75 841,-420.75 841,-414.75 841,-414.75 841,-344.5 841,-344.5 841,-338.5 847,-332.5 853,-332.5 853,-332.5 995,-332.5 995,-332.5 1001,-332.5 1007,-338.5 1007,-344.5 1007,-344.5 1007,-414.75 1007,-414.75 1007,-420.75 1001,-426.75 995,-426.75"/>
<text text-anchor="middle" x="924" y="-409.45" font-family="Helvetica,sans-Serif" font-size="14.00">2_U &lt;= 0.5</text>
<text text-anchor="middle" x="924" y="-392.2" font-family="Helvetica,sans-Serif" font-size="14.00">entropy = 0.988</text>
<text text-anchor="middle" x="924" y="-374.95" font-family="Helvetica,sans-Serif" font-size="14.00">samples = 8072</text>
<text text-anchor="middle" x="924" y="-357.7" font-family="Helvetica,sans-Serif" font-size="14.00">value = [7262, 5588]</text>
<text text-anchor="middle" x="924" y="-340.45" font-family="Helvetica,sans-Serif" font-size="14.00">class = Animal</text>
</g>
<!-- 0&#45;&gt;12744 -->
<g id="edge16" class="edge">
<title>0&#45;&gt;12744</title>
<path fill="none" stroke="black" d="M807.96,-462.39C821.19,-453.07 835.18,-443.22 848.69,-433.69"/>
<polygon fill="black" stroke="black" points="850.56,-436.66 856.72,-428.04 846.53,-430.94 850.56,-436.66"/>
<text text-anchor="middle" x="853.69" y="-447.12" font-family="Helvetica,sans-Serif" font-size="14.00">False</text>
</g>
<!-- 2 -->
<g id="node3" class="node">
<title>2</title>
<path fill="#dceefa" stroke="black" d="M370,-296.5C370,-296.5 210,-296.5 210,-296.5 204,-296.5 198,-290.5 198,-284.5 198,-284.5 198,-214.25 198,-214.25 198,-208.25 204,-202.25 210,-202.25 210,-202.25 370,-202.25 370,-202.25 376,-202.25 382,-208.25 382,-214.25 382,-214.25 382,-284.5 382,-284.5 382,-290.5 376,-296.5 370,-296.5"/>
<text text-anchor="middle" x="290" y="-279.2" font-family="Helvetica,sans-Serif" font-size="14.00">19_C &lt;= 0.5</text>
<text text-anchor="middle" x="290" y="-261.95" font-family="Helvetica,sans-Serif" font-size="14.00">entropy = 0.993</text>
<text text-anchor="middle" x="290" y="-244.7" font-family="Helvetica,sans-Serif" font-size="14.00">samples = 27005</text>
<text text-anchor="middle" x="290" y="-227.45" font-family="Helvetica,sans-Serif" font-size="14.00">value = [19208, 23319]</text>
<text text-anchor="middle" x="290" y="-210.2" font-family="Helvetica,sans-Serif" font-size="14.00">class = Plant</text>
</g>
<!-- 1&#45;&gt;2 -->
<g id="edge2" class="edge">
<title>1&#45;&gt;2</title>
<path fill="none" stroke="black" d="M471.62,-335.38C446.24,-323.51 418.58,-310.56 392.66,-298.43"/>
<polygon fill="black" stroke="black" points="394.36,-295.36 383.82,-294.29 391.39,-301.7 394.36,-295.36"/>
</g>
<!-- 11331 -->
<g id="node10" class="node">
<title>11331</title>
<path fill="#eeae80" stroke="black" d="M635,-296.5C635,-296.5 493,-296.5 493,-296.5 487,-296.5 481,-290.5 481,-284.5 481,-284.5 481,-214.25 481,-214.25 481,-208.25 487,-202.25 493,-202.25 493,-202.25 635,-202.25 635,-202.25 641,-202.25 647,-208.25 647,-214.25 647,-214.25 647,-284.5 647,-284.5 647,-290.5 641,-296.5 635,-296.5"/>
<text text-anchor="middle" x="564" y="-279.2" font-family="Helvetica,sans-Serif" font-size="14.00">14_G &lt;= 0.5</text>
<text text-anchor="middle" x="564" y="-261.95" font-family="Helvetica,sans-Serif" font-size="14.00">entropy = 0.831</text>
<text text-anchor="middle" x="564" y="-244.7" font-family="Helvetica,sans-Serif" font-size="14.00">samples = 3120</text>
<text text-anchor="middle" x="564" y="-227.45" font-family="Helvetica,sans-Serif" font-size="14.00">value = [3662, 1306]</text>
<text text-anchor="middle" x="564" y="-210.2" font-family="Helvetica,sans-Serif" font-size="14.00">class = Animal</text>
</g>
<!-- 1&#45;&gt;11331 -->
<g id="edge9" class="edge">
<title>1&#45;&gt;11331</title>
<path fill="none" stroke="black" d="M564,-332.32C564,-324.42 564,-316.13 564,-307.98"/>
<polygon fill="black" stroke="black" points="567.5,-308.12 564,-298.12 560.5,-308.12 567.5,-308.12"/>
</g>
<!-- 3 -->
<g id="node4" class="node">
<title>3</title>
<path fill="#fbeee4" stroke="black" d="M172,-166.25C172,-166.25 12,-166.25 12,-166.25 6,-166.25 0,-160.25 0,-154.25 0,-154.25 0,-84 0,-84 0,-78 6,-72 12,-72 12,-72 172,-72 172,-72 178,-72 184,-78 184,-84 184,-84 184,-154.25 184,-154.25 184,-160.25 178,-166.25 172,-166.25"/>
<text text-anchor="middle" x="92" y="-148.95" font-family="Helvetica,sans-Serif" font-size="14.00">8_G &lt;= 0.5</text>
<text text-anchor="middle" x="92" y="-131.7" font-family="Helvetica,sans-Serif" font-size="14.00">entropy = 0.996</text>
<text text-anchor="middle" x="92" y="-114.45" font-family="Helvetica,sans-Serif" font-size="14.00">samples = 17947</text>
<text text-anchor="middle" x="92" y="-97.2" font-family="Helvetica,sans-Serif" font-size="14.00">value = [15138, 13094]</text>
<text text-anchor="middle" x="92" y="-79.95" font-family="Helvetica,sans-Serif" font-size="14.00">class = Animal</text>
</g>
<!-- 2&#45;&gt;3 -->
<g id="edge3" class="edge">
<title>2&#45;&gt;3</title>
<path fill="none" stroke="black" d="M218.24,-201.89C203.71,-192.48 188.34,-182.53 173.5,-172.92"/>
<polygon fill="black" stroke="black" points="175.42,-169.99 165.12,-167.49 171.61,-175.86 175.42,-169.99"/>
</g>
<!-- 8538 -->
<g id="node7" class="node">
<title>8538</title>
<path fill="#88c4ef" stroke="black" d="M365.5,-166.25C365.5,-166.25 214.5,-166.25 214.5,-166.25 208.5,-166.25 202.5,-160.25 202.5,-154.25 202.5,-154.25 202.5,-84 202.5,-84 202.5,-78 208.5,-72 214.5,-72 214.5,-72 365.5,-72 365.5,-72 371.5,-72 377.5,-78 377.5,-84 377.5,-84 377.5,-154.25 377.5,-154.25 377.5,-160.25 371.5,-166.25 365.5,-166.25"/>
<text text-anchor="middle" x="290" y="-148.95" font-family="Helvetica,sans-Serif" font-size="14.00">3_G &lt;= 0.5</text>
<text text-anchor="middle" x="290" y="-131.7" font-family="Helvetica,sans-Serif" font-size="14.00">entropy = 0.862</text>
<text text-anchor="middle" x="290" y="-114.45" font-family="Helvetica,sans-Serif" font-size="14.00">samples = 9058</text>
<text text-anchor="middle" x="290" y="-97.2" font-family="Helvetica,sans-Serif" font-size="14.00">value = [4070, 10225]</text>
<text text-anchor="middle" x="290" y="-79.95" font-family="Helvetica,sans-Serif" font-size="14.00">class = Plant</text>
</g>
<!-- 2&#45;&gt;8538 -->
<g id="edge6" class="edge">
<title>2&#45;&gt;8538</title>
<path fill="none" stroke="black" d="M290,-202.07C290,-194.17 290,-185.88 290,-177.73"/>
<polygon fill="black" stroke="black" points="293.5,-177.87 290,-167.87 286.5,-177.87 293.5,-177.87"/>
</g>
<!-- 4 -->
<g id="node5" class="node">
<title>4</title>
<path fill="#c0c0c0" stroke="black" d="M71,-36C71,-36 41,-36 41,-36 35,-36 29,-30 29,-24 29,-24 29,-12 29,-12 29,-6 35,0 41,0 41,0 71,0 71,0 77,0 83,-6 83,-12 83,-12 83,-24 83,-24 83,-30 77,-36 71,-36"/>
<text text-anchor="middle" x="56" y="-13.32" font-family="Helvetica,sans-Serif" font-size="14.00">(...)</text>
</g>
<!-- 3&#45;&gt;4 -->
<g id="edge4" class="edge">
<title>3&#45;&gt;4</title>
<path fill="none" stroke="black" d="M75.16,-71.75C72.06,-63.22 68.92,-54.57 66.1,-46.8"/>
<polygon fill="black" stroke="black" points="69.46,-45.8 62.75,-37.6 62.88,-48.19 69.46,-45.8"/>
</g>
<!-- 6229 -->
<g id="node6" class="node">
<title>6229</title>
<path fill="#c0c0c0" stroke="black" d="M143,-36C143,-36 113,-36 113,-36 107,-36 101,-30 101,-24 101,-24 101,-12 101,-12 101,-6 107,0 113,0 113,0 143,0 143,0 149,0 155,-6 155,-12 155,-12 155,-24 155,-24 155,-30 149,-36 143,-36"/>
<text text-anchor="middle" x="128" y="-13.32" font-family="Helvetica,sans-Serif" font-size="14.00">(...)</text>
</g>
<!-- 3&#45;&gt;6229 -->
<g id="edge5" class="edge">
<title>3&#45;&gt;6229</title>
<path fill="none" stroke="black" d="M108.84,-71.75C111.94,-63.22 115.08,-54.57 117.9,-46.8"/>
<polygon fill="black" stroke="black" points="121.12,-48.19 121.25,-37.6 114.54,-45.8 121.12,-48.19"/>
</g>
<!-- 8539 -->
<g id="node8" class="node">
<title>8539</title>
<path fill="#c0c0c0" stroke="black" d="M274,-36C274,-36 244,-36 244,-36 238,-36 232,-30 232,-24 232,-24 232,-12 232,-12 232,-6 238,0 244,0 244,0 274,0 274,0 280,0 286,-6 286,-12 286,-12 286,-24 286,-24 286,-30 280,-36 274,-36"/>
<text text-anchor="middle" x="259" y="-13.32" font-family="Helvetica,sans-Serif" font-size="14.00">(...)</text>
</g>
<!-- 8538&#45;&gt;8539 -->
<g id="edge7" class="edge">
<title>8538&#45;&gt;8539</title>
<path fill="none" stroke="black" d="M275.5,-71.75C272.86,-63.32 270.19,-54.77 267.78,-47.07"/>
<polygon fill="black" stroke="black" points="271.15,-46.12 264.82,-37.62 264.47,-48.21 271.15,-46.12"/>
</g>
<!-- 10234 -->
<g id="node9" class="node">
<title>10234</title>
<path fill="#c0c0c0" stroke="black" d="M346,-36C346,-36 316,-36 316,-36 310,-36 304,-30 304,-24 304,-24 304,-12 304,-12 304,-6 310,0 316,0 316,0 346,0 346,0 352,0 358,-6 358,-12 358,-12 358,-24 358,-24 358,-30 352,-36 346,-36"/>
<text text-anchor="middle" x="331" y="-13.32" font-family="Helvetica,sans-Serif" font-size="14.00">(...)</text>
</g>
<!-- 8538&#45;&gt;10234 -->
<g id="edge8" class="edge">
<title>8538&#45;&gt;10234</title>
<path fill="none" stroke="black" d="M309.18,-71.75C312.71,-63.22 316.29,-54.57 319.5,-46.8"/>
<polygon fill="black" stroke="black" points="322.73,-48.15 323.32,-37.57 316.26,-45.47 322.73,-48.15"/>
</g>
<!-- 11332 -->
<g id="node11" class="node">
<title>11332</title>
<path fill="#f0b58b" stroke="black" d="M550,-166.25C550,-166.25 408,-166.25 408,-166.25 402,-166.25 396,-160.25 396,-154.25 396,-154.25 396,-84 396,-84 396,-78 402,-72 408,-72 408,-72 550,-72 550,-72 556,-72 562,-78 562,-84 562,-84 562,-154.25 562,-154.25 562,-160.25 556,-166.25 550,-166.25"/>
<text text-anchor="middle" x="479" y="-148.95" font-family="Helvetica,sans-Serif" font-size="14.00">11_A &lt;= 0.5</text>
<text text-anchor="middle" x="479" y="-131.7" font-family="Helvetica,sans-Serif" font-size="14.00">entropy = 0.871</text>
<text text-anchor="middle" x="479" y="-114.45" font-family="Helvetica,sans-Serif" font-size="14.00">samples = 2298</text>
<text text-anchor="middle" x="479" y="-97.2" font-family="Helvetica,sans-Serif" font-size="14.00">value = [2581, 1064]</text>
<text text-anchor="middle" x="479" y="-79.95" font-family="Helvetica,sans-Serif" font-size="14.00">class = Animal</text>
</g>
<!-- 11331&#45;&gt;11332 -->
<g id="edge10" class="edge">
<title>11331&#45;&gt;11332</title>
<path fill="none" stroke="black" d="M533.31,-202.07C527.66,-193.54 521.7,-184.54 515.88,-175.77"/>
<polygon fill="black" stroke="black" points="518.92,-174.02 510.48,-167.62 513.09,-177.89 518.92,-174.02"/>
</g>
<!-- 12407 -->
<g id="node14" class="node">
<title>12407</title>
<path fill="#eb9d65" stroke="black" d="M725.5,-166.25C725.5,-166.25 592.5,-166.25 592.5,-166.25 586.5,-166.25 580.5,-160.25 580.5,-154.25 580.5,-154.25 580.5,-84 580.5,-84 580.5,-78 586.5,-72 592.5,-72 592.5,-72 725.5,-72 725.5,-72 731.5,-72 737.5,-78 737.5,-84 737.5,-84 737.5,-154.25 737.5,-154.25 737.5,-160.25 731.5,-166.25 725.5,-166.25"/>
<text text-anchor="middle" x="659" y="-148.95" font-family="Helvetica,sans-Serif" font-size="14.00">11_A &lt;= 0.5</text>
<text text-anchor="middle" x="659" y="-131.7" font-family="Helvetica,sans-Serif" font-size="14.00">entropy = 0.686</text>
<text text-anchor="middle" x="659" y="-114.45" font-family="Helvetica,sans-Serif" font-size="14.00">samples = 822</text>
<text text-anchor="middle" x="659" y="-97.2" font-family="Helvetica,sans-Serif" font-size="14.00">value = [1081, 242]</text>
<text text-anchor="middle" x="659" y="-79.95" font-family="Helvetica,sans-Serif" font-size="14.00">class = Animal</text>
</g>
<!-- 11331&#45;&gt;12407 -->
<g id="edge13" class="edge">
<title>11331&#45;&gt;12407</title>
<path fill="none" stroke="black" d="M598.3,-202.07C604.69,-193.45 611.42,-184.35 617.99,-175.49"/>
<polygon fill="black" stroke="black" points="620.71,-177.69 623.85,-167.57 615.09,-173.53 620.71,-177.69"/>
</g>
<!-- 11333 -->
<g id="node12" class="node">
<title>11333</title>
<path fill="#c0c0c0" stroke="black" d="M440,-36C440,-36 410,-36 410,-36 404,-36 398,-30 398,-24 398,-24 398,-12 398,-12 398,-6 404,0 410,0 410,0 440,0 440,0 446,0 452,-6 452,-12 452,-12 452,-24 452,-24 452,-30 446,-36 440,-36"/>
<text text-anchor="middle" x="425" y="-13.32" font-family="Helvetica,sans-Serif" font-size="14.00">(...)</text>
</g>
<!-- 11332&#45;&gt;11333 -->
<g id="edge11" class="edge">
<title>11332&#45;&gt;11333</title>
<path fill="none" stroke="black" d="M453.74,-71.75C448.98,-63.03 444.16,-54.16 439.85,-46.26"/>
<polygon fill="black" stroke="black" points="442.94,-44.61 435.08,-37.5 436.79,-47.96 442.94,-44.61"/>
</g>
<!-- 12074 -->
<g id="node13" class="node">
<title>12074</title>
<path fill="#c0c0c0" stroke="black" d="M512,-36C512,-36 482,-36 482,-36 476,-36 470,-30 470,-24 470,-24 470,-12 470,-12 470,-6 476,0 482,0 482,0 512,0 512,0 518,0 524,-6 524,-12 524,-12 524,-24 524,-24 524,-30 518,-36 512,-36"/>
<text text-anchor="middle" x="497" y="-13.32" font-family="Helvetica,sans-Serif" font-size="14.00">(...)</text>
</g>
<!-- 11332&#45;&gt;12074 -->
<g id="edge12" class="edge">
<title>11332&#45;&gt;12074</title>
<path fill="none" stroke="black" d="M487.42,-71.75C488.93,-63.42 490.47,-54.97 491.85,-47.34"/>
<polygon fill="black" stroke="black" points="495.27,-48.13 493.61,-37.66 488.38,-46.88 495.27,-48.13"/>
</g>
<!-- 12408 -->
<g id="node15" class="node">
<title>12408</title>
<path fill="#c0c0c0" stroke="black" d="M620,-36C620,-36 590,-36 590,-36 584,-36 578,-30 578,-24 578,-24 578,-12 578,-12 578,-6 584,0 590,0 590,0 620,0 620,0 626,0 632,-6 632,-12 632,-12 632,-24 632,-24 632,-30 626,-36 620,-36"/>
<text text-anchor="middle" x="605" y="-13.32" font-family="Helvetica,sans-Serif" font-size="14.00">(...)</text>
</g>
<!-- 12407&#45;&gt;12408 -->
<g id="edge14" class="edge">
<title>12407&#45;&gt;12408</title>
<path fill="none" stroke="black" d="M633.74,-71.75C628.98,-63.03 624.16,-54.16 619.85,-46.26"/>
<polygon fill="black" stroke="black" points="622.94,-44.61 615.08,-37.5 616.79,-47.96 622.94,-44.61"/>
</g>
<!-- 12667 -->
<g id="node16" class="node">
<title>12667</title>
<path fill="#c0c0c0" stroke="black" d="M692,-36C692,-36 662,-36 662,-36 656,-36 650,-30 650,-24 650,-24 650,-12 650,-12 650,-6 656,0 662,0 662,0 692,0 692,0 698,0 704,-6 704,-12 704,-12 704,-24 704,-24 704,-30 698,-36 692,-36"/>
<text text-anchor="middle" x="677" y="-13.32" font-family="Helvetica,sans-Serif" font-size="14.00">(...)</text>
</g>
<!-- 12407&#45;&gt;12667 -->
<g id="edge15" class="edge">
<title>12407&#45;&gt;12667</title>
<path fill="none" stroke="black" d="M667.42,-71.75C668.93,-63.42 670.47,-54.97 671.85,-47.34"/>
<polygon fill="black" stroke="black" points="675.27,-48.13 673.61,-37.66 668.38,-46.88 675.27,-48.13"/>
</g>
<!-- 12745 -->
<g id="node18" class="node">
<title>12745</title>
<path fill="#f5cfb4" stroke="black" d="M995,-296.5C995,-296.5 853,-296.5 853,-296.5 847,-296.5 841,-290.5 841,-284.5 841,-284.5 841,-214.25 841,-214.25 841,-208.25 847,-202.25 853,-202.25 853,-202.25 995,-202.25 995,-202.25 1001,-202.25 1007,-208.25 1007,-214.25 1007,-214.25 1007,-284.5 1007,-284.5 1007,-290.5 1001,-296.5 995,-296.5"/>
<text text-anchor="middle" x="924" y="-279.2" font-family="Helvetica,sans-Serif" font-size="14.00">22_G &lt;= 0.5</text>
<text text-anchor="middle" x="924" y="-261.95" font-family="Helvetica,sans-Serif" font-size="14.00">entropy = 0.96</text>
<text text-anchor="middle" x="924" y="-244.7" font-family="Helvetica,sans-Serif" font-size="14.00">samples = 5931</text>
<text text-anchor="middle" x="924" y="-227.45" font-family="Helvetica,sans-Serif" font-size="14.00">value = [5841, 3631]</text>
<text text-anchor="middle" x="924" y="-210.2" font-family="Helvetica,sans-Serif" font-size="14.00">class = Animal</text>
</g>
<!-- 12744&#45;&gt;12745 -->
<g id="edge17" class="edge">
<title>12744&#45;&gt;12745</title>
<path fill="none" stroke="black" d="M924,-332.32C924,-324.42 924,-316.13 924,-307.98"/>
<polygon fill="black" stroke="black" points="927.5,-308.12 924,-298.12 920.5,-308.12 927.5,-308.12"/>
</g>
<!-- 15838 -->
<g id="node25" class="node">
<title>15838</title>
<path fill="#c9e4f8" stroke="black" d="M1265,-296.5C1265,-296.5 1123,-296.5 1123,-296.5 1117,-296.5 1111,-290.5 1111,-284.5 1111,-284.5 1111,-214.25 1111,-214.25 1111,-208.25 1117,-202.25 1123,-202.25 1123,-202.25 1265,-202.25 1265,-202.25 1271,-202.25 1277,-208.25 1277,-214.25 1277,-214.25 1277,-284.5 1277,-284.5 1277,-290.5 1271,-296.5 1265,-296.5"/>
<text text-anchor="middle" x="1194" y="-279.2" font-family="Helvetica,sans-Serif" font-size="14.00">8_C &lt;= 0.5</text>
<text text-anchor="middle" x="1194" y="-261.95" font-family="Helvetica,sans-Serif" font-size="14.00">entropy = 0.982</text>
<text text-anchor="middle" x="1194" y="-244.7" font-family="Helvetica,sans-Serif" font-size="14.00">samples = 2141</text>
<text text-anchor="middle" x="1194" y="-227.45" font-family="Helvetica,sans-Serif" font-size="14.00">value = [1421, 1957]</text>
<text text-anchor="middle" x="1194" y="-210.2" font-family="Helvetica,sans-Serif" font-size="14.00">class = Plant</text>
</g>
<!-- 12744&#45;&gt;15838 -->
<g id="edge24" class="edge">
<title>12744&#45;&gt;15838</title>
<path fill="none" stroke="black" d="M1007.21,-339.1C1036.72,-325.08 1070.13,-309.21 1100.45,-294.81"/>
<polygon fill="black" stroke="black" points="1101.7,-298.09 1109.23,-290.64 1098.7,-291.77 1101.7,-298.09"/>
</g>
<!-- 12746 -->
<g id="node19" class="node">
<title>12746</title>
<path fill="#f9e2d2" stroke="black" d="M910,-166.25C910,-166.25 768,-166.25 768,-166.25 762,-166.25 756,-160.25 756,-154.25 756,-154.25 756,-84 756,-84 756,-78 762,-72 768,-72 768,-72 910,-72 910,-72 916,-72 922,-78 922,-84 922,-84 922,-154.25 922,-154.25 922,-160.25 916,-166.25 910,-166.25"/>
<text text-anchor="middle" x="839" y="-148.95" font-family="Helvetica,sans-Serif" font-size="14.00">22_U &lt;= 0.5</text>
<text text-anchor="middle" x="839" y="-131.7" font-family="Helvetica,sans-Serif" font-size="14.00">entropy = 0.988</text>
<text text-anchor="middle" x="839" y="-114.45" font-family="Helvetica,sans-Serif" font-size="14.00">samples = 4775</text>
<text text-anchor="middle" x="839" y="-97.2" font-family="Helvetica,sans-Serif" font-size="14.00">value = [4312, 3325]</text>
<text text-anchor="middle" x="839" y="-79.95" font-family="Helvetica,sans-Serif" font-size="14.00">class = Animal</text>
</g>
<!-- 12745&#45;&gt;12746 -->
<g id="edge18" class="edge">
<title>12745&#45;&gt;12746</title>
<path fill="none" stroke="black" d="M893.31,-202.07C887.66,-193.54 881.7,-184.54 875.88,-175.77"/>
<polygon fill="black" stroke="black" points="878.92,-174.02 870.48,-167.62 873.09,-177.89 878.92,-174.02"/>
</g>
<!-- 15473 -->
<g id="node22" class="node">
<title>15473</title>
<path fill="#ea9a61" stroke="black" d="M1085.5,-166.25C1085.5,-166.25 952.5,-166.25 952.5,-166.25 946.5,-166.25 940.5,-160.25 940.5,-154.25 940.5,-154.25 940.5,-84 940.5,-84 940.5,-78 946.5,-72 952.5,-72 952.5,-72 1085.5,-72 1085.5,-72 1091.5,-72 1097.5,-78 1097.5,-84 1097.5,-84 1097.5,-154.25 1097.5,-154.25 1097.5,-160.25 1091.5,-166.25 1085.5,-166.25"/>
<text text-anchor="middle" x="1019" y="-148.95" font-family="Helvetica,sans-Serif" font-size="14.00">5_A &lt;= 0.5</text>
<text text-anchor="middle" x="1019" y="-131.7" font-family="Helvetica,sans-Serif" font-size="14.00">entropy = 0.65</text>
<text text-anchor="middle" x="1019" y="-114.45" font-family="Helvetica,sans-Serif" font-size="14.00">samples = 1156</text>
<text text-anchor="middle" x="1019" y="-97.2" font-family="Helvetica,sans-Serif" font-size="14.00">value = [1529, 306]</text>
<text text-anchor="middle" x="1019" y="-79.95" font-family="Helvetica,sans-Serif" font-size="14.00">class = Animal</text>
</g>
<!-- 12745&#45;&gt;15473 -->
<g id="edge21" class="edge">
<title>12745&#45;&gt;15473</title>
<path fill="none" stroke="black" d="M958.3,-202.07C964.69,-193.45 971.42,-184.35 977.99,-175.49"/>
<polygon fill="black" stroke="black" points="980.71,-177.69 983.85,-167.57 975.09,-173.53 980.71,-177.69"/>
</g>
<!-- 12747 -->
<g id="node20" class="node">
<title>12747</title>
<path fill="#c0c0c0" stroke="black" d="M800,-36C800,-36 770,-36 770,-36 764,-36 758,-30 758,-24 758,-24 758,-12 758,-12 758,-6 764,0 770,0 770,0 800,0 800,0 806,0 812,-6 812,-12 812,-12 812,-24 812,-24 812,-30 806,-36 800,-36"/>
<text text-anchor="middle" x="785" y="-13.32" font-family="Helvetica,sans-Serif" font-size="14.00">(...)</text>
</g>
<!-- 12746&#45;&gt;12747 -->
<g id="edge19" class="edge">
<title>12746&#45;&gt;12747</title>
<path fill="none" stroke="black" d="M813.74,-71.75C808.98,-63.03 804.16,-54.16 799.85,-46.26"/>
<polygon fill="black" stroke="black" points="802.94,-44.61 795.08,-37.5 796.79,-47.96 802.94,-44.61"/>
</g>
<!-- 15158 -->
<g id="node21" class="node">
<title>15158</title>
<path fill="#c0c0c0" stroke="black" d="M872,-36C872,-36 842,-36 842,-36 836,-36 830,-30 830,-24 830,-24 830,-12 830,-12 830,-6 836,0 842,0 842,0 872,0 872,0 878,0 884,-6 884,-12 884,-12 884,-24 884,-24 884,-30 878,-36 872,-36"/>
<text text-anchor="middle" x="857" y="-13.32" font-family="Helvetica,sans-Serif" font-size="14.00">(...)</text>
</g>
<!-- 12746&#45;&gt;15158 -->
<g id="edge20" class="edge">
<title>12746&#45;&gt;15158</title>
<path fill="none" stroke="black" d="M847.42,-71.75C848.93,-63.42 850.47,-54.97 851.85,-47.34"/>
<polygon fill="black" stroke="black" points="855.27,-48.13 853.61,-37.66 848.38,-46.88 855.27,-48.13"/>
</g>
<!-- 15474 -->
<g id="node23" class="node">
<title>15474</title>
<path fill="#c0c0c0" stroke="black" d="M977,-36C977,-36 947,-36 947,-36 941,-36 935,-30 935,-24 935,-24 935,-12 935,-12 935,-6 941,0 947,0 947,0 977,0 977,0 983,0 989,-6 989,-12 989,-12 989,-24 989,-24 989,-30 983,-36 977,-36"/>
<text text-anchor="middle" x="962" y="-13.32" font-family="Helvetica,sans-Serif" font-size="14.00">(...)</text>
</g>
<!-- 15473&#45;&gt;15474 -->
<g id="edge22" class="edge">
<title>15473&#45;&gt;15474</title>
<path fill="none" stroke="black" d="M992.34,-71.75C987.26,-62.93 982.1,-53.96 977.52,-45.99"/>
<polygon fill="black" stroke="black" points="980.65,-44.41 972.63,-37.48 974.58,-47.9 980.65,-44.41"/>
</g>
<!-- 15767 -->
<g id="node24" class="node">
<title>15767</title>
<path fill="#c0c0c0" stroke="black" d="M1049,-36C1049,-36 1019,-36 1019,-36 1013,-36 1007,-30 1007,-24 1007,-24 1007,-12 1007,-12 1007,-6 1013,0 1019,0 1019,0 1049,0 1049,0 1055,0 1061,-6 1061,-12 1061,-12 1061,-24 1061,-24 1061,-30 1055,-36 1049,-36"/>
<text text-anchor="middle" x="1034" y="-13.32" font-family="Helvetica,sans-Serif" font-size="14.00">(...)</text>
</g>
<!-- 15473&#45;&gt;15767 -->
<g id="edge23" class="edge">
<title>15473&#45;&gt;15767</title>
<path fill="none" stroke="black" d="M1026.02,-71.75C1027.28,-63.42 1028.56,-54.97 1029.71,-47.34"/>
<polygon fill="black" stroke="black" points="1033.14,-48.08 1031.17,-37.67 1026.22,-47.03 1033.14,-48.08"/>
</g>
<!-- 15839 -->
<g id="node26" class="node">
<title>15839</title>
<path fill="#aad5f4" stroke="black" d="M1260.5,-166.25C1260.5,-166.25 1127.5,-166.25 1127.5,-166.25 1121.5,-166.25 1115.5,-160.25 1115.5,-154.25 1115.5,-154.25 1115.5,-84 1115.5,-84 1115.5,-78 1121.5,-72 1127.5,-72 1127.5,-72 1260.5,-72 1260.5,-72 1266.5,-72 1272.5,-78 1272.5,-84 1272.5,-84 1272.5,-154.25 1272.5,-154.25 1272.5,-160.25 1266.5,-166.25 1260.5,-166.25"/>
<text text-anchor="middle" x="1194" y="-148.95" font-family="Helvetica,sans-Serif" font-size="14.00">15_A &lt;= 0.5</text>
<text text-anchor="middle" x="1194" y="-131.7" font-family="Helvetica,sans-Serif" font-size="14.00">entropy = 0.946</text>
<text text-anchor="middle" x="1194" y="-114.45" font-family="Helvetica,sans-Serif" font-size="14.00">samples = 1664</text>
<text text-anchor="middle" x="1194" y="-97.2" font-family="Helvetica,sans-Serif" font-size="14.00">value = [956, 1674]</text>
<text text-anchor="middle" x="1194" y="-79.95" font-family="Helvetica,sans-Serif" font-size="14.00">class = Plant</text>
</g>
<!-- 15838&#45;&gt;15839 -->
<g id="edge25" class="edge">
<title>15838&#45;&gt;15839</title>
<path fill="none" stroke="black" d="M1194,-202.07C1194,-194.17 1194,-185.88 1194,-177.73"/>
<polygon fill="black" stroke="black" points="1197.5,-177.87 1194,-167.87 1190.5,-177.87 1197.5,-177.87"/>
</g>
<!-- 16694 -->
<g id="node29" class="node">
<title>16694</title>
<path fill="#f5ceb2" stroke="black" d="M1427,-166.25C1427,-166.25 1303,-166.25 1303,-166.25 1297,-166.25 1291,-160.25 1291,-154.25 1291,-154.25 1291,-84 1291,-84 1291,-78 1297,-72 1303,-72 1303,-72 1427,-72 1427,-72 1433,-72 1439,-78 1439,-84 1439,-84 1439,-154.25 1439,-154.25 1439,-160.25 1433,-166.25 1427,-166.25"/>
<text text-anchor="middle" x="1365" y="-148.95" font-family="Helvetica,sans-Serif" font-size="14.00">1_C &lt;= 0.5</text>
<text text-anchor="middle" x="1365" y="-131.7" font-family="Helvetica,sans-Serif" font-size="14.00">entropy = 0.957</text>
<text text-anchor="middle" x="1365" y="-114.45" font-family="Helvetica,sans-Serif" font-size="14.00">samples = 477</text>
<text text-anchor="middle" x="1365" y="-97.2" font-family="Helvetica,sans-Serif" font-size="14.00">value = [465, 283]</text>
<text text-anchor="middle" x="1365" y="-79.95" font-family="Helvetica,sans-Serif" font-size="14.00">class = Animal</text>
</g>
<!-- 15838&#45;&gt;16694 -->
<g id="edge28" class="edge">
<title>15838&#45;&gt;16694</title>
<path fill="none" stroke="black" d="M1255.73,-202.07C1268.13,-192.78 1281.25,-182.94 1293.93,-173.43"/>
<polygon fill="black" stroke="black" points="1295.96,-176.28 1301.86,-167.48 1291.76,-170.68 1295.96,-176.28"/>
</g>
<!-- 15840 -->
<g id="node27" class="node">
<title>15840</title>
<path fill="#c0c0c0" stroke="black" d="M1168,-36C1168,-36 1138,-36 1138,-36 1132,-36 1126,-30 1126,-24 1126,-24 1126,-12 1126,-12 1126,-6 1132,0 1138,0 1138,0 1168,0 1168,0 1174,0 1180,-6 1180,-12 1180,-12 1180,-24 1180,-24 1180,-30 1174,-36 1168,-36"/>
<text text-anchor="middle" x="1153" y="-13.32" font-family="Helvetica,sans-Serif" font-size="14.00">(...)</text>
</g>
<!-- 15839&#45;&gt;15840 -->
<g id="edge26" class="edge">
<title>15839&#45;&gt;15840</title>
<path fill="none" stroke="black" d="M1174.82,-71.75C1171.29,-63.22 1167.71,-54.57 1164.5,-46.8"/>
<polygon fill="black" stroke="black" points="1167.74,-45.47 1160.68,-37.57 1161.27,-48.15 1167.74,-45.47"/>
</g>
<!-- 16509 -->
<g id="node28" class="node">
<title>16509</title>
<path fill="#c0c0c0" stroke="black" d="M1240,-36C1240,-36 1210,-36 1210,-36 1204,-36 1198,-30 1198,-24 1198,-24 1198,-12 1198,-12 1198,-6 1204,0 1210,0 1210,0 1240,0 1240,0 1246,0 1252,-6 1252,-12 1252,-12 1252,-24 1252,-24 1252,-30 1246,-36 1240,-36"/>
<text text-anchor="middle" x="1225" y="-13.32" font-family="Helvetica,sans-Serif" font-size="14.00">(...)</text>
</g>
<!-- 15839&#45;&gt;16509 -->
<g id="edge27" class="edge">
<title>15839&#45;&gt;16509</title>
<path fill="none" stroke="black" d="M1208.5,-71.75C1211.14,-63.32 1213.81,-54.77 1216.22,-47.07"/>
<polygon fill="black" stroke="black" points="1219.53,-48.21 1219.18,-37.62 1212.85,-46.12 1219.53,-48.21"/>
</g>
<!-- 16695 -->
<g id="node30" class="node">
<title>16695</title>
<path fill="#c0c0c0" stroke="black" d="M1344,-36C1344,-36 1314,-36 1314,-36 1308,-36 1302,-30 1302,-24 1302,-24 1302,-12 1302,-12 1302,-6 1308,0 1314,0 1314,0 1344,0 1344,0 1350,0 1356,-6 1356,-12 1356,-12 1356,-24 1356,-24 1356,-30 1350,-36 1344,-36"/>
<text text-anchor="middle" x="1329" y="-13.32" font-family="Helvetica,sans-Serif" font-size="14.00">(...)</text>
</g>
<!-- 16694&#45;&gt;16695 -->
<g id="edge29" class="edge">
<title>16694&#45;&gt;16695</title>
<path fill="none" stroke="black" d="M1348.16,-71.75C1345.06,-63.22 1341.92,-54.57 1339.1,-46.8"/>
<polygon fill="black" stroke="black" points="1342.46,-45.8 1335.75,-37.6 1335.88,-48.19 1342.46,-45.8"/>
</g>
<!-- 16900 -->
<g id="node31" class="node">
<title>16900</title>
<path fill="#c0c0c0" stroke="black" d="M1416,-36C1416,-36 1386,-36 1386,-36 1380,-36 1374,-30 1374,-24 1374,-24 1374,-12 1374,-12 1374,-6 1380,0 1386,0 1386,0 1416,0 1416,0 1422,0 1428,-6 1428,-12 1428,-12 1428,-24 1428,-24 1428,-30 1422,-36 1416,-36"/>
<text text-anchor="middle" x="1401" y="-13.32" font-family="Helvetica,sans-Serif" font-size="14.00">(...)</text>
</g>
<!-- 16694&#45;&gt;16900 -->
<g id="edge30" class="edge">
<title>16694&#45;&gt;16900</title>
<path fill="none" stroke="black" d="M1381.84,-71.75C1384.94,-63.22 1388.08,-54.57 1390.9,-46.8"/>
<polygon fill="black" stroke="black" points="1394.12,-48.19 1394.25,-37.6 1387.54,-45.8 1394.12,-48.19"/>
</g>
</g>
</svg>
