<?xml version="1.0" encoding="UTF-8" standalone="no"?>
<!DOCTYPE svg PUBLIC "-//W3C//DTD SVG 1.1//EN"
 "http://www.w3.org/Graphics/SVG/1.1/DTD/svg11.dtd">
<!-- Generated by graphviz version 12.0.0 (20240803.0821)
 -->
<!-- Title: Tree Pages: 1 -->
<svg width="1347pt" height="565pt"
 viewBox="0.00 0.00 1347.38 565.00" xmlns="http://www.w3.org/2000/svg" xmlns:xlink="http://www.w3.org/1999/xlink">
<g id="graph0" class="graph" transform="scale(1 1) rotate(0) translate(4 561)">
<title>Tree</title>
<polygon fill="white" stroke="none" points="-4,4 -4,-561 1343.38,-561 1343.38,4 -4,4"/>
<!-- 0 -->
<g id="node1" class="node">
<title>0</title>
<path fill="#fffefd" stroke="black" d="M791,-557C791,-557 631,-557 631,-557 625,-557 619,-551 619,-545 619,-545 619,-474.75 619,-474.75 619,-468.75 625,-462.75 631,-462.75 631,-462.75 791,-462.75 791,-462.75 797,-462.75 803,-468.75 803,-474.75 803,-474.75 803,-545 803,-545 803,-551 797,-557 791,-557"/>
<text text-anchor="middle" x="711" y="-539.7" font-family="Helvetica,sans-Serif" font-size="14.00">23_A &lt;= 0.5</text>
<text text-anchor="middle" x="711" y="-522.45" font-family="Helvetica,sans-Serif" font-size="14.00">entropy = 1.0</text>
<text text-anchor="middle" x="711" y="-505.2" font-family="Helvetica,sans-Serif" font-size="14.00">samples = 38103</text>
<text text-anchor="middle" x="711" y="-487.95" font-family="Helvetica,sans-Serif" font-size="14.00">value = [30320, 30025]</text>
<text text-anchor="middle" x="711" y="-470.7" font-family="Helvetica,sans-Serif" font-size="14.00">class = Animal</text>
</g>
<!-- 1 -->
<g id="node2" class="node">
<title>1</title>
<path fill="#f9fcfe" stroke="black" d="M627,-426.75C627,-426.75 467,-426.75 467,-426.75 461,-426.75 455,-420.75 455,-414.75 455,-414.75 455,-344.5 455,-344.5 455,-338.5 461,-332.5 467,-332.5 467,-332.5 627,-332.5 627,-332.5 633,-332.5 639,-338.5 639,-344.5 639,-344.5 639,-414.75 639,-414.75 639,-420.75 633,-426.75 627,-426.75"/>
<text text-anchor="middle" x="547" y="-409.45" font-family="Helvetica,sans-Serif" font-size="14.00">20_C &lt;= 0.5</text>
<text text-anchor="middle" x="547" y="-392.2" font-family="Helvetica,sans-Serif" font-size="14.00">entropy = 1.0</text>
<text text-anchor="middle" x="547" y="-374.95" font-family="Helvetica,sans-Serif" font-size="14.00">samples = 36547</text>
<text text-anchor="middle" x="547" y="-357.7" font-family="Helvetica,sans-Serif" font-size="14.00">value = [28449, 29402]</text>
<text text-anchor="middle" x="547" y="-340.45" font-family="Helvetica,sans-Serif" font-size="14.00">class = Plant</text>
</g>
<!-- 0&#45;&gt;1 -->
<g id="edge1" class="edge">
<title>0&#45;&gt;1</title>
<path fill="none" stroke="black" d="M651.79,-462.57C639.91,-453.28 627.32,-443.44 615.16,-433.93"/>
<polygon fill="black" stroke="black" points="617.62,-431.41 607.59,-428.01 613.31,-436.92 617.62,-431.41"/>
<text text-anchor="middle" x="609.43" y="-447.21" font-family="Helvetica,sans-Serif" font-size="14.00">True</text>
</g>
<!-- 16182 -->
<g id="node17" class="node">
<title>16182</title>
<path fill="#eeab7b" stroke="black" d="M948.5,-426.75C948.5,-426.75 815.5,-426.75 815.5,-426.75 809.5,-426.75 803.5,-420.75 803.5,-414.75 803.5,-414.75 803.5,-344.5 803.5,-344.5 803.5,-338.5 809.5,-332.5 815.5,-332.5 815.5,-332.5 948.5,-332.5 948.5,-332.5 954.5,-332.5 960.5,-338.5 960.5,-344.5 960.5,-344.5 960.5,-414.75 960.5,-414.75 960.5,-420.75 954.5,-426.75 948.5,-426.75"/>
<text text-anchor="middle" x="882" y="-409.45" font-family="Helvetica,sans-Serif" font-size="14.00">24_A &lt;= 0.5</text>
<text text-anchor="middle" x="882" y="-392.2" font-family="Helvetica,sans-Serif" font-size="14.00">entropy = 0.811</text>
<text text-anchor="middle" x="882" y="-374.95" font-family="Helvetica,sans-Serif" font-size="14.00">samples = 1556</text>
<text text-anchor="middle" x="882" y="-357.7" font-family="Helvetica,sans-Serif" font-size="14.00">value = [1871, 623]</text>
<text text-anchor="middle" x="882" y="-340.45" font-family="Helvetica,sans-Serif" font-size="14.00">class = Animal</text>
</g>
<!-- 0&#45;&gt;16182 -->
<g id="edge16" class="edge">
<title>0&#45;&gt;16182</title>
<path fill="none" stroke="black" d="M772.73,-462.57C785.13,-453.28 798.25,-443.44 810.93,-433.93"/>
<polygon fill="black" stroke="black" points="812.96,-436.78 818.86,-427.98 808.76,-431.18 812.96,-436.78"/>
<text text-anchor="middle" x="816.53" y="-447.15" font-family="Helvetica,sans-Serif" font-size="14.00">False</text>
</g>
<!-- 2 -->
<g id="node3" class="node">
<title>2</title>
<path fill="#fbede3" stroke="black" d="M365,-296.5C365,-296.5 205,-296.5 205,-296.5 199,-296.5 193,-290.5 193,-284.5 193,-284.5 193,-214.25 193,-214.25 193,-208.25 199,-202.25 205,-202.25 205,-202.25 365,-202.25 365,-202.25 371,-202.25 377,-208.25 377,-214.25 377,-214.25 377,-284.5 377,-284.5 377,-290.5 371,-296.5 365,-296.5"/>
<text text-anchor="middle" x="285" y="-279.2" font-family="Helvetica,sans-Serif" font-size="14.00">19_U &lt;= 0.5</text>
<text text-anchor="middle" x="285" y="-261.95" font-family="Helvetica,sans-Serif" font-size="14.00">entropy = 0.996</text>
<text text-anchor="middle" x="285" y="-244.7" font-family="Helvetica,sans-Serif" font-size="14.00">samples = 27008</text>
<text text-anchor="middle" x="285" y="-227.45" font-family="Helvetica,sans-Serif" font-size="14.00">value = [22878, 19682]</text>
<text text-anchor="middle" x="285" y="-210.2" font-family="Helvetica,sans-Serif" font-size="14.00">class = Animal</text>
</g>
<!-- 1&#45;&gt;2 -->
<g id="edge2" class="edge">
<title>1&#45;&gt;2</title>
<path fill="none" stroke="black" d="M454.63,-333.41C432.91,-322.78 409.63,-311.38 387.5,-300.55"/>
<polygon fill="black" stroke="black" points="389.3,-297.53 378.78,-296.28 386.22,-303.82 389.3,-297.53"/>
</g>
<!-- 12285 -->
<g id="node10" class="node">
<title>12285</title>
<path fill="#aad5f4" stroke="black" d="M618,-296.5C618,-296.5 476,-296.5 476,-296.5 470,-296.5 464,-290.5 464,-284.5 464,-284.5 464,-214.25 464,-214.25 464,-208.25 470,-202.25 476,-202.25 476,-202.25 618,-202.25 618,-202.25 624,-202.25 630,-208.25 630,-214.25 630,-214.25 630,-284.5 630,-284.5 630,-290.5 624,-296.5 618,-296.5"/>
<text text-anchor="middle" x="547" y="-279.2" font-family="Helvetica,sans-Serif" font-size="14.00">23_U &lt;= 0.5</text>
<text text-anchor="middle" x="547" y="-261.95" font-family="Helvetica,sans-Serif" font-size="14.00">entropy = 0.946</text>
<text text-anchor="middle" x="547" y="-244.7" font-family="Helvetica,sans-Serif" font-size="14.00">samples = 9539</text>
<text text-anchor="middle" x="547" y="-227.45" font-family="Helvetica,sans-Serif" font-size="14.00">value = [5571, 9720]</text>
<text text-anchor="middle" x="547" y="-210.2" font-family="Helvetica,sans-Serif" font-size="14.00">class = Plant</text>
</g>
<!-- 1&#45;&gt;12285 -->
<g id="edge9" class="edge">
<title>1&#45;&gt;12285</title>
<path fill="none" stroke="black" d="M547,-332.32C547,-324.42 547,-316.13 547,-307.98"/>
<polygon fill="black" stroke="black" points="550.5,-308.12 547,-298.12 543.5,-308.12 550.5,-308.12"/>
</g>
<!-- 3 -->
<g id="node4" class="node">
<title>3</title>
<path fill="#fcfeff" stroke="black" d="M172,-166.25C172,-166.25 12,-166.25 12,-166.25 6,-166.25 0,-160.25 0,-154.25 0,-154.25 0,-84 0,-84 0,-78 6,-72 12,-72 12,-72 172,-72 172,-72 178,-72 184,-78 184,-84 184,-84 184,-154.25 184,-154.25 184,-160.25 178,-166.25 172,-166.25"/>
<text text-anchor="middle" x="92" y="-148.95" font-family="Helvetica,sans-Serif" font-size="14.00">20_U &lt;= 0.5</text>
<text text-anchor="middle" x="92" y="-131.7" font-family="Helvetica,sans-Serif" font-size="14.00">entropy = 1.0</text>
<text text-anchor="middle" x="92" y="-114.45" font-family="Helvetica,sans-Serif" font-size="14.00">samples = 20641</text>
<text text-anchor="middle" x="92" y="-97.2" font-family="Helvetica,sans-Serif" font-size="14.00">value = [16152, 16383]</text>
<text text-anchor="middle" x="92" y="-79.95" font-family="Helvetica,sans-Serif" font-size="14.00">class = Plant</text>
</g>
<!-- 2&#45;&gt;3 -->
<g id="edge3" class="edge">
<title>2&#45;&gt;3</title>
<path fill="none" stroke="black" d="M215.05,-201.89C200.89,-192.48 185.9,-182.53 171.45,-172.92"/>
<polygon fill="black" stroke="black" points="173.56,-170.12 163.3,-167.5 169.69,-175.95 173.56,-170.12"/>
</g>
<!-- 9146 -->
<g id="node7" class="node">
<title>9146</title>
<path fill="#f2bf9a" stroke="black" d="M356,-166.25C356,-166.25 214,-166.25 214,-166.25 208,-166.25 202,-160.25 202,-154.25 202,-154.25 202,-84 202,-84 202,-78 208,-72 214,-72 214,-72 356,-72 356,-72 362,-72 368,-78 368,-84 368,-84 368,-154.25 368,-154.25 368,-160.25 362,-166.25 356,-166.25"/>
<text text-anchor="middle" x="285" y="-148.95" font-family="Helvetica,sans-Serif" font-size="14.00">17_U &lt;= 0.5</text>
<text text-anchor="middle" x="285" y="-131.7" font-family="Helvetica,sans-Serif" font-size="14.00">entropy = 0.914</text>
<text text-anchor="middle" x="285" y="-114.45" font-family="Helvetica,sans-Serif" font-size="14.00">samples = 6367</text>
<text text-anchor="middle" x="285" y="-97.2" font-family="Helvetica,sans-Serif" font-size="14.00">value = [6726, 3299]</text>
<text text-anchor="middle" x="285" y="-79.95" font-family="Helvetica,sans-Serif" font-size="14.00">class = Animal</text>
</g>
<!-- 2&#45;&gt;9146 -->
<g id="edge6" class="edge">
<title>2&#45;&gt;9146</title>
<path fill="none" stroke="black" d="M285,-202.07C285,-194.17 285,-185.88 285,-177.73"/>
<polygon fill="black" stroke="black" points="288.5,-177.87 285,-167.87 281.5,-177.87 288.5,-177.87"/>
</g>
<!-- 4 -->
<g id="node5" class="node">
<title>4</title>
<path fill="#c0c0c0" stroke="black" d="M71,-36C71,-36 41,-36 41,-36 35,-36 29,-30 29,-24 29,-24 29,-12 29,-12 29,-6 35,0 41,0 41,0 71,0 71,0 77,0 83,-6 83,-12 83,-12 83,-24 83,-24 83,-30 77,-36 71,-36"/>
<text text-anchor="middle" x="56" y="-13.32" font-family="Helvetica,sans-Serif" font-size="14.00">(...)</text>
</g>
<!-- 3&#45;&gt;4 -->
<g id="edge4" class="edge">
<title>3&#45;&gt;4</title>
<path fill="none" stroke="black" d="M75.16,-71.75C72.06,-63.22 68.92,-54.57 66.1,-46.8"/>
<polygon fill="black" stroke="black" points="69.46,-45.8 62.75,-37.6 62.88,-48.19 69.46,-45.8"/>
</g>
<!-- 6179 -->
<g id="node6" class="node">
<title>6179</title>
<path fill="#c0c0c0" stroke="black" d="M143,-36C143,-36 113,-36 113,-36 107,-36 101,-30 101,-24 101,-24 101,-12 101,-12 101,-6 107,0 113,0 113,0 143,0 143,0 149,0 155,-6 155,-12 155,-12 155,-24 155,-24 155,-30 149,-36 143,-36"/>
<text text-anchor="middle" x="128" y="-13.32" font-family="Helvetica,sans-Serif" font-size="14.00">(...)</text>
</g>
<!-- 3&#45;&gt;6179 -->
<g id="edge5" class="edge">
<title>3&#45;&gt;6179</title>
<path fill="none" stroke="black" d="M108.84,-71.75C111.94,-63.22 115.08,-54.57 117.9,-46.8"/>
<polygon fill="black" stroke="black" points="121.12,-48.19 121.25,-37.6 114.54,-45.8 121.12,-48.19"/>
</g>
<!-- 9147 -->
<g id="node8" class="node">
<title>9147</title>
<path fill="#c0c0c0" stroke="black" d="M261,-36C261,-36 231,-36 231,-36 225,-36 219,-30 219,-24 219,-24 219,-12 219,-12 219,-6 225,0 231,0 231,0 261,0 261,0 267,0 273,-6 273,-12 273,-12 273,-24 273,-24 273,-30 267,-36 261,-36"/>
<text text-anchor="middle" x="246" y="-13.32" font-family="Helvetica,sans-Serif" font-size="14.00">(...)</text>
</g>
<!-- 9146&#45;&gt;9147 -->
<g id="edge7" class="edge">
<title>9146&#45;&gt;9147</title>
<path fill="none" stroke="black" d="M266.76,-71.75C263.4,-63.22 259.99,-54.57 256.94,-46.8"/>
<polygon fill="black" stroke="black" points="260.23,-45.61 253.31,-37.58 253.71,-48.17 260.23,-45.61"/>
</g>
<!-- 11374 -->
<g id="node9" class="node">
<title>11374</title>
<path fill="#c0c0c0" stroke="black" d="M333,-36C333,-36 303,-36 303,-36 297,-36 291,-30 291,-24 291,-24 291,-12 291,-12 291,-6 297,0 303,0 303,0 333,0 333,0 339,0 345,-6 345,-12 345,-12 345,-24 345,-24 345,-30 339,-36 333,-36"/>
<text text-anchor="middle" x="318" y="-13.32" font-family="Helvetica,sans-Serif" font-size="14.00">(...)</text>
</g>
<!-- 9146&#45;&gt;11374 -->
<g id="edge8" class="edge">
<title>9146&#45;&gt;11374</title>
<path fill="none" stroke="black" d="M300.44,-71.75C303.24,-63.32 306.09,-54.77 308.66,-47.07"/>
<polygon fill="black" stroke="black" points="311.97,-48.2 311.8,-37.61 305.33,-45.99 311.97,-48.2"/>
</g>
<!-- 12286 -->
<g id="node11" class="node">
<title>12286</title>
<path fill="#a1d1f3" stroke="black" d="M540,-166.25C540,-166.25 398,-166.25 398,-166.25 392,-166.25 386,-160.25 386,-154.25 386,-154.25 386,-84 386,-84 386,-78 392,-72 398,-72 398,-72 540,-72 540,-72 546,-72 552,-78 552,-84 552,-84 552,-154.25 552,-154.25 552,-160.25 546,-166.25 540,-166.25"/>
<text text-anchor="middle" x="469" y="-148.95" font-family="Helvetica,sans-Serif" font-size="14.00">1_U &lt;= 0.5</text>
<text text-anchor="middle" x="469" y="-131.7" font-family="Helvetica,sans-Serif" font-size="14.00">entropy = 0.929</text>
<text text-anchor="middle" x="469" y="-114.45" font-family="Helvetica,sans-Serif" font-size="14.00">samples = 9149</text>
<text text-anchor="middle" x="469" y="-97.2" font-family="Helvetica,sans-Serif" font-size="14.00">value = [5062, 9628]</text>
<text text-anchor="middle" x="469" y="-79.95" font-family="Helvetica,sans-Serif" font-size="14.00">class = Plant</text>
</g>
<!-- 12285&#45;&gt;12286 -->
<g id="edge10" class="edge">
<title>12285&#45;&gt;12286</title>
<path fill="none" stroke="black" d="M518.84,-202.07C513.7,-193.63 508.3,-184.74 503.01,-176.05"/>
<polygon fill="black" stroke="black" points="506.09,-174.38 497.9,-167.65 500.11,-178.01 506.09,-174.38"/>
</g>
<!-- 16017 -->
<g id="node14" class="node">
<title>16017</title>
<path fill="#ea985d" stroke="black" d="M697.5,-166.25C697.5,-166.25 582.5,-166.25 582.5,-166.25 576.5,-166.25 570.5,-160.25 570.5,-154.25 570.5,-154.25 570.5,-84 570.5,-84 570.5,-78 576.5,-72 582.5,-72 582.5,-72 697.5,-72 697.5,-72 703.5,-72 709.5,-78 709.5,-84 709.5,-84 709.5,-154.25 709.5,-154.25 709.5,-160.25 703.5,-166.25 697.5,-166.25"/>
<text text-anchor="middle" x="640" y="-148.95" font-family="Helvetica,sans-Serif" font-size="14.00">14_G &lt;= 0.5</text>
<text text-anchor="middle" x="640" y="-131.7" font-family="Helvetica,sans-Serif" font-size="14.00">entropy = 0.617</text>
<text text-anchor="middle" x="640" y="-114.45" font-family="Helvetica,sans-Serif" font-size="14.00">samples = 390</text>
<text text-anchor="middle" x="640" y="-97.2" font-family="Helvetica,sans-Serif" font-size="14.00">value = [509, 92]</text>
<text text-anchor="middle" x="640" y="-79.95" font-family="Helvetica,sans-Serif" font-size="14.00">class = Animal</text>
</g>
<!-- 12285&#45;&gt;16017 -->
<g id="edge13" class="edge">
<title>12285&#45;&gt;16017</title>
<path fill="none" stroke="black" d="M580.58,-202.07C586.83,-193.45 593.43,-184.35 599.85,-175.49"/>
<polygon fill="black" stroke="black" points="602.55,-177.73 605.59,-167.58 596.88,-173.62 602.55,-177.73"/>
</g>
<!-- 12287 -->
<g id="node12" class="node">
<title>12287</title>
<path fill="#c0c0c0" stroke="black" d="M425,-36C425,-36 395,-36 395,-36 389,-36 383,-30 383,-24 383,-24 383,-12 383,-12 383,-6 389,0 395,0 395,0 425,0 425,0 431,0 437,-6 437,-12 437,-12 437,-24 437,-24 437,-30 431,-36 425,-36"/>
<text text-anchor="middle" x="410" y="-13.32" font-family="Helvetica,sans-Serif" font-size="14.00">(...)</text>
</g>
<!-- 12286&#45;&gt;12287 -->
<g id="edge11" class="edge">
<title>12286&#45;&gt;12287</title>
<path fill="none" stroke="black" d="M441.4,-71.75C436.15,-62.93 430.81,-53.96 426.06,-45.99"/>
<polygon fill="black" stroke="black" points="429.12,-44.28 421,-37.47 423.1,-47.86 429.12,-44.28"/>
</g>
<!-- 14334 -->
<g id="node13" class="node">
<title>14334</title>
<path fill="#c0c0c0" stroke="black" d="M497,-36C497,-36 467,-36 467,-36 461,-36 455,-30 455,-24 455,-24 455,-12 455,-12 455,-6 461,0 467,0 467,0 497,0 497,0 503,0 509,-6 509,-12 509,-12 509,-24 509,-24 509,-30 503,-36 497,-36"/>
<text text-anchor="middle" x="482" y="-13.32" font-family="Helvetica,sans-Serif" font-size="14.00">(...)</text>
</g>
<!-- 12286&#45;&gt;14334 -->
<g id="edge12" class="edge">
<title>12286&#45;&gt;14334</title>
<path fill="none" stroke="black" d="M475.08,-71.75C476.17,-63.42 477.28,-54.97 478.28,-47.34"/>
<polygon fill="black" stroke="black" points="481.72,-48.04 479.55,-37.67 474.78,-47.13 481.72,-48.04"/>
</g>
<!-- 16018 -->
<g id="node15" class="node">
<title>16018</title>
<path fill="#c0c0c0" stroke="black" d="M594,-36C594,-36 564,-36 564,-36 558,-36 552,-30 552,-24 552,-24 552,-12 552,-12 552,-6 558,0 564,0 564,0 594,0 594,0 600,0 606,-6 606,-12 606,-12 606,-24 606,-24 606,-30 600,-36 594,-36"/>
<text text-anchor="middle" x="579" y="-13.32" font-family="Helvetica,sans-Serif" font-size="14.00">(...)</text>
</g>
<!-- 16017&#45;&gt;16018 -->
<g id="edge14" class="edge">
<title>16017&#45;&gt;16018</title>
<path fill="none" stroke="black" d="M611.46,-71.75C605.97,-62.83 600.39,-53.76 595.44,-45.72"/>
<polygon fill="black" stroke="black" points="598.58,-44.14 590.36,-37.46 592.62,-47.81 598.58,-44.14"/>
</g>
<!-- 16137 -->
<g id="node16" class="node">
<title>16137</title>
<path fill="#c0c0c0" stroke="black" d="M666,-36C666,-36 636,-36 636,-36 630,-36 624,-30 624,-24 624,-24 624,-12 624,-12 624,-6 630,0 636,0 636,0 666,0 666,0 672,0 678,-6 678,-12 678,-12 678,-24 678,-24 678,-30 672,-36 666,-36"/>
<text text-anchor="middle" x="651" y="-13.32" font-family="Helvetica,sans-Serif" font-size="14.00">(...)</text>
</g>
<!-- 16017&#45;&gt;16137 -->
<g id="edge15" class="edge">
<title>16017&#45;&gt;16137</title>
<path fill="none" stroke="black" d="M645.15,-71.75C646.06,-63.52 646.99,-55.17 647.82,-47.61"/>
<polygon fill="black" stroke="black" points="651.3,-48 648.93,-37.68 644.35,-47.23 651.3,-48"/>
</g>
<!-- 16183 -->
<g id="node18" class="node">
<title>16183</title>
<path fill="#eca571" stroke="black" d="M948.5,-296.5C948.5,-296.5 815.5,-296.5 815.5,-296.5 809.5,-296.5 803.5,-290.5 803.5,-284.5 803.5,-284.5 803.5,-214.25 803.5,-214.25 803.5,-208.25 809.5,-202.25 815.5,-202.25 815.5,-202.25 948.5,-202.25 948.5,-202.25 954.5,-202.25 960.5,-208.25 960.5,-214.25 960.5,-214.25 960.5,-284.5 960.5,-284.5 960.5,-290.5 954.5,-296.5 948.5,-296.5"/>
<text text-anchor="middle" x="882" y="-279.2" font-family="Helvetica,sans-Serif" font-size="14.00">3_U &lt;= 0.5</text>
<text text-anchor="middle" x="882" y="-261.95" font-family="Helvetica,sans-Serif" font-size="14.00">entropy = 0.76</text>
<text text-anchor="middle" x="882" y="-244.7" font-family="Helvetica,sans-Serif" font-size="14.00">samples = 1443</text>
<text text-anchor="middle" x="882" y="-227.45" font-family="Helvetica,sans-Serif" font-size="14.00">value = [1802, 508]</text>
<text text-anchor="middle" x="882" y="-210.2" font-family="Helvetica,sans-Serif" font-size="14.00">class = Animal</text>
</g>
<!-- 16182&#45;&gt;16183 -->
<g id="edge17" class="edge">
<title>16182&#45;&gt;16183</title>
<path fill="none" stroke="black" d="M882,-332.32C882,-324.42 882,-316.13 882,-307.98"/>
<polygon fill="black" stroke="black" points="885.5,-308.12 882,-298.12 878.5,-308.12 885.5,-308.12"/>
</g>
<!-- 16850 -->
<g id="node25" class="node">
<title>16850</title>
<path fill="#b0d8f5" stroke="black" d="M1182.5,-296.5C1182.5,-296.5 1067.5,-296.5 1067.5,-296.5 1061.5,-296.5 1055.5,-290.5 1055.5,-284.5 1055.5,-284.5 1055.5,-214.25 1055.5,-214.25 1055.5,-208.25 1061.5,-202.25 1067.5,-202.25 1067.5,-202.25 1182.5,-202.25 1182.5,-202.25 1188.5,-202.25 1194.5,-208.25 1194.5,-214.25 1194.5,-214.25 1194.5,-284.5 1194.5,-284.5 1194.5,-290.5 1188.5,-296.5 1182.5,-296.5"/>
<text text-anchor="middle" x="1125" y="-279.2" font-family="Helvetica,sans-Serif" font-size="14.00">3_C &lt;= 0.5</text>
<text text-anchor="middle" x="1125" y="-261.95" font-family="Helvetica,sans-Serif" font-size="14.00">entropy = 0.954</text>
<text text-anchor="middle" x="1125" y="-244.7" font-family="Helvetica,sans-Serif" font-size="14.00">samples = 113</text>
<text text-anchor="middle" x="1125" y="-227.45" font-family="Helvetica,sans-Serif" font-size="14.00">value = [69, 115]</text>
<text text-anchor="middle" x="1125" y="-210.2" font-family="Helvetica,sans-Serif" font-size="14.00">class = Plant</text>
</g>
<!-- 16182&#45;&gt;16850 -->
<g id="edge24" class="edge">
<title>16182&#45;&gt;16850</title>
<path fill="none" stroke="black" d="M960.9,-336.99C987.93,-322.72 1018.18,-306.75 1045.27,-292.45"/>
<polygon fill="black" stroke="black" points="1046.55,-295.74 1053.76,-287.97 1043.28,-289.55 1046.55,-295.74"/>
</g>
<!-- 16184 -->
<g id="node19" class="node">
<title>16184</title>
<path fill="#edaa7a" stroke="black" d="M872.5,-166.25C872.5,-166.25 739.5,-166.25 739.5,-166.25 733.5,-166.25 727.5,-160.25 727.5,-154.25 727.5,-154.25 727.5,-84 727.5,-84 727.5,-78 733.5,-72 739.5,-72 739.5,-72 872.5,-72 872.5,-72 878.5,-72 884.5,-78 884.5,-84 884.5,-84 884.5,-154.25 884.5,-154.25 884.5,-160.25 878.5,-166.25 872.5,-166.25"/>
<text text-anchor="middle" x="806" y="-148.95" font-family="Helvetica,sans-Serif" font-size="14.00">28_C &lt;= 0.5</text>
<text text-anchor="middle" x="806" y="-131.7" font-family="Helvetica,sans-Serif" font-size="14.00">entropy = 0.805</text>
<text text-anchor="middle" x="806" y="-114.45" font-family="Helvetica,sans-Serif" font-size="14.00">samples = 1042</text>
<text text-anchor="middle" x="806" y="-97.2" font-family="Helvetica,sans-Serif" font-size="14.00">value = [1263, 412]</text>
<text text-anchor="middle" x="806" y="-79.95" font-family="Helvetica,sans-Serif" font-size="14.00">class = Animal</text>
</g>
<!-- 16183&#45;&gt;16184 -->
<g id="edge18" class="edge">
<title>16183&#45;&gt;16184</title>
<path fill="none" stroke="black" d="M854.56,-202.07C849.56,-193.63 844.29,-184.74 839.14,-176.05"/>
<polygon fill="black" stroke="black" points="842.28,-174.48 834.17,-167.66 836.26,-178.05 842.28,-174.48"/>
</g>
<!-- 16679 -->
<g id="node22" class="node">
<title>16679</title>
<path fill="#ea975c" stroke="black" d="M1029.5,-166.25C1029.5,-166.25 914.5,-166.25 914.5,-166.25 908.5,-166.25 902.5,-160.25 902.5,-154.25 902.5,-154.25 902.5,-84 902.5,-84 902.5,-78 908.5,-72 914.5,-72 914.5,-72 1029.5,-72 1029.5,-72 1035.5,-72 1041.5,-78 1041.5,-84 1041.5,-84 1041.5,-154.25 1041.5,-154.25 1041.5,-160.25 1035.5,-166.25 1029.5,-166.25"/>
<text text-anchor="middle" x="972" y="-148.95" font-family="Helvetica,sans-Serif" font-size="14.00">6_G &lt;= 0.5</text>
<text text-anchor="middle" x="972" y="-131.7" font-family="Helvetica,sans-Serif" font-size="14.00">entropy = 0.613</text>
<text text-anchor="middle" x="972" y="-114.45" font-family="Helvetica,sans-Serif" font-size="14.00">samples = 401</text>
<text text-anchor="middle" x="972" y="-97.2" font-family="Helvetica,sans-Serif" font-size="14.00">value = [539, 96]</text>
<text text-anchor="middle" x="972" y="-79.95" font-family="Helvetica,sans-Serif" font-size="14.00">class = Animal</text>
</g>
<!-- 16183&#45;&gt;16679 -->
<g id="edge21" class="edge">
<title>16183&#45;&gt;16679</title>
<path fill="none" stroke="black" d="M914.49,-202.07C920.48,-193.54 926.79,-184.54 932.95,-175.77"/>
<polygon fill="black" stroke="black" points="935.81,-177.79 938.69,-167.6 930.08,-173.77 935.81,-177.79"/>
</g>
<!-- 16185 -->
<g id="node20" class="node">
<title>16185</title>
<path fill="#c0c0c0" stroke="black" d="M760,-36C760,-36 730,-36 730,-36 724,-36 718,-30 718,-24 718,-24 718,-12 718,-12 718,-6 724,0 730,0 730,0 760,0 760,0 766,0 772,-6 772,-12 772,-12 772,-24 772,-24 772,-30 766,-36 760,-36"/>
<text text-anchor="middle" x="745" y="-13.32" font-family="Helvetica,sans-Serif" font-size="14.00">(...)</text>
</g>
<!-- 16184&#45;&gt;16185 -->
<g id="edge19" class="edge">
<title>16184&#45;&gt;16185</title>
<path fill="none" stroke="black" d="M777.46,-71.75C771.97,-62.83 766.39,-53.76 761.44,-45.72"/>
<polygon fill="black" stroke="black" points="764.58,-44.14 756.36,-37.46 758.62,-47.81 764.58,-44.14"/>
</g>
<!-- 16678 -->
<g id="node21" class="node">
<title>16678</title>
<path fill="#c0c0c0" stroke="black" d="M832,-36C832,-36 802,-36 802,-36 796,-36 790,-30 790,-24 790,-24 790,-12 790,-12 790,-6 796,0 802,0 802,0 832,0 832,0 838,0 844,-6 844,-12 844,-12 844,-24 844,-24 844,-30 838,-36 832,-36"/>
<text text-anchor="middle" x="817" y="-13.32" font-family="Helvetica,sans-Serif" font-size="14.00">(...)</text>
</g>
<!-- 16184&#45;&gt;16678 -->
<g id="edge20" class="edge">
<title>16184&#45;&gt;16678</title>
<path fill="none" stroke="black" d="M811.15,-71.75C812.06,-63.52 812.99,-55.17 813.82,-47.61"/>
<polygon fill="black" stroke="black" points="817.3,-48 814.93,-37.68 810.35,-47.23 817.3,-48"/>
</g>
<!-- 16680 -->
<g id="node23" class="node">
<title>16680</title>
<path fill="#c0c0c0" stroke="black" d="M919,-36C919,-36 889,-36 889,-36 883,-36 877,-30 877,-24 877,-24 877,-12 877,-12 877,-6 883,0 889,0 889,0 919,0 919,0 925,0 931,-6 931,-12 931,-12 931,-24 931,-24 931,-30 925,-36 919,-36"/>
<text text-anchor="middle" x="904" y="-13.32" font-family="Helvetica,sans-Serif" font-size="14.00">(...)</text>
</g>
<!-- 16679&#45;&gt;16680 -->
<g id="edge22" class="edge">
<title>16679&#45;&gt;16680</title>
<path fill="none" stroke="black" d="M940.19,-71.75C934,-62.73 927.71,-53.56 922.15,-45.45"/>
<polygon fill="black" stroke="black" points="925.18,-43.69 916.64,-37.42 919.41,-47.65 925.18,-43.69"/>
</g>
<!-- 16807 -->
<g id="node24" class="node">
<title>16807</title>
<path fill="#c0c0c0" stroke="black" d="M991,-36C991,-36 961,-36 961,-36 955,-36 949,-30 949,-24 949,-24 949,-12 949,-12 949,-6 955,0 961,0 961,0 991,0 991,0 997,0 1003,-6 1003,-12 1003,-12 1003,-24 1003,-24 1003,-30 997,-36 991,-36"/>
<text text-anchor="middle" x="976" y="-13.32" font-family="Helvetica,sans-Serif" font-size="14.00">(...)</text>
</g>
<!-- 16679&#45;&gt;16807 -->
<g id="edge23" class="edge">
<title>16679&#45;&gt;16807</title>
<path fill="none" stroke="black" d="M973.87,-71.75C974.2,-63.52 974.54,-55.17 974.85,-47.61"/>
<polygon fill="black" stroke="black" points="978.34,-47.82 975.25,-37.68 971.35,-47.54 978.34,-47.82"/>
</g>
<!-- 16851 -->
<g id="node26" class="node">
<title>16851</title>
<path fill="#96cbf1" stroke="black" d="M1178.38,-166.25C1178.38,-166.25 1071.62,-166.25 1071.62,-166.25 1065.62,-166.25 1059.62,-160.25 1059.62,-154.25 1059.62,-154.25 1059.62,-84 1059.62,-84 1059.62,-78 1065.62,-72 1071.62,-72 1071.62,-72 1178.38,-72 1178.38,-72 1184.38,-72 1190.38,-78 1190.38,-84 1190.38,-84 1190.38,-154.25 1190.38,-154.25 1190.38,-160.25 1184.38,-166.25 1178.38,-166.25"/>
<text text-anchor="middle" x="1125" y="-148.95" font-family="Helvetica,sans-Serif" font-size="14.00">1_U &lt;= 0.5</text>
<text text-anchor="middle" x="1125" y="-131.7" font-family="Helvetica,sans-Serif" font-size="14.00">entropy = 0.903</text>
<text text-anchor="middle" x="1125" y="-114.45" font-family="Helvetica,sans-Serif" font-size="14.00">samples = 85</text>
<text text-anchor="middle" x="1125" y="-97.2" font-family="Helvetica,sans-Serif" font-size="14.00">value = [44, 94]</text>
<text text-anchor="middle" x="1125" y="-79.95" font-family="Helvetica,sans-Serif" font-size="14.00">class = Plant</text>
</g>
<!-- 16850&#45;&gt;16851 -->
<g id="edge25" class="edge">
<title>16850&#45;&gt;16851</title>
<path fill="none" stroke="black" d="M1125,-202.07C1125,-194.17 1125,-185.88 1125,-177.73"/>
<polygon fill="black" stroke="black" points="1128.5,-177.87 1125,-167.87 1121.5,-177.87 1128.5,-177.87"/>
</g>
<!-- 16898 -->
<g id="node29" class="node">
<title>16898</title>
<path fill="#fbebdf" stroke="black" d="M1327.38,-166.25C1327.38,-166.25 1220.62,-166.25 1220.62,-166.25 1214.62,-166.25 1208.62,-160.25 1208.62,-154.25 1208.62,-154.25 1208.62,-84 1208.62,-84 1208.62,-78 1214.62,-72 1220.62,-72 1220.62,-72 1327.38,-72 1327.38,-72 1333.38,-72 1339.38,-78 1339.38,-84 1339.38,-84 1339.38,-154.25 1339.38,-154.25 1339.38,-160.25 1333.38,-166.25 1327.38,-166.25"/>
<text text-anchor="middle" x="1274" y="-148.95" font-family="Helvetica,sans-Serif" font-size="14.00">1_C &lt;= 0.5</text>
<text text-anchor="middle" x="1274" y="-131.7" font-family="Helvetica,sans-Serif" font-size="14.00">entropy = 0.995</text>
<text text-anchor="middle" x="1274" y="-114.45" font-family="Helvetica,sans-Serif" font-size="14.00">samples = 28</text>
<text text-anchor="middle" x="1274" y="-97.2" font-family="Helvetica,sans-Serif" font-size="14.00">value = [25, 21]</text>
<text text-anchor="middle" x="1274" y="-79.95" font-family="Helvetica,sans-Serif" font-size="14.00">class = Animal</text>
</g>
<!-- 16850&#45;&gt;16898 -->
<g id="edge28" class="edge">
<title>16850&#45;&gt;16898</title>
<path fill="none" stroke="black" d="M1178.79,-202.07C1189.45,-192.9 1200.72,-183.2 1211.63,-173.81"/>
<polygon fill="black" stroke="black" points="1213.84,-176.52 1219.14,-167.35 1209.28,-171.22 1213.84,-176.52"/>
</g>
<!-- 16852 -->
<g id="node27" class="node">
<title>16852</title>
<path fill="#c0c0c0" stroke="black" d="M1088,-36C1088,-36 1058,-36 1058,-36 1052,-36 1046,-30 1046,-24 1046,-24 1046,-12 1046,-12 1046,-6 1052,0 1058,0 1058,0 1088,0 1088,0 1094,0 1100,-6 1100,-12 1100,-12 1100,-24 1100,-24 1100,-30 1094,-36 1088,-36"/>
<text text-anchor="middle" x="1073" y="-13.32" font-family="Helvetica,sans-Serif" font-size="14.00">(...)</text>
</g>
<!-- 16851&#45;&gt;16852 -->
<g id="edge26" class="edge">
<title>16851&#45;&gt;16852</title>
<path fill="none" stroke="black" d="M1100.67,-71.75C1096.1,-63.03 1091.45,-54.16 1087.3,-46.26"/>
<polygon fill="black" stroke="black" points="1090.46,-44.74 1082.71,-37.51 1084.26,-47.99 1090.46,-44.74"/>
</g>
<!-- 16873 -->
<g id="node28" class="node">
<title>16873</title>
<path fill="#c0c0c0" stroke="black" d="M1160,-36C1160,-36 1130,-36 1130,-36 1124,-36 1118,-30 1118,-24 1118,-24 1118,-12 1118,-12 1118,-6 1124,0 1130,0 1130,0 1160,0 1160,0 1166,0 1172,-6 1172,-12 1172,-12 1172,-24 1172,-24 1172,-30 1166,-36 1160,-36"/>
<text text-anchor="middle" x="1145" y="-13.32" font-family="Helvetica,sans-Serif" font-size="14.00">(...)</text>
</g>
<!-- 16851&#45;&gt;16873 -->
<g id="edge27" class="edge">
<title>16851&#45;&gt;16873</title>
<path fill="none" stroke="black" d="M1134.36,-71.75C1136.04,-63.42 1137.74,-54.97 1139.28,-47.34"/>
<polygon fill="black" stroke="black" points="1142.69,-48.15 1141.24,-37.66 1135.83,-46.77 1142.69,-48.15"/>
</g>
<!-- 16899 -->
<g id="node30" class="node">
<title>16899</title>
<path fill="#c0c0c0" stroke="black" d="M1253,-36C1253,-36 1223,-36 1223,-36 1217,-36 1211,-30 1211,-24 1211,-24 1211,-12 1211,-12 1211,-6 1217,0 1223,0 1223,0 1253,0 1253,0 1259,0 1265,-6 1265,-12 1265,-12 1265,-24 1265,-24 1265,-30 1259,-36 1253,-36"/>
<text text-anchor="middle" x="1238" y="-13.32" font-family="Helvetica,sans-Serif" font-size="14.00">(...)</text>
</g>
<!-- 16898&#45;&gt;16899 -->
<g id="edge29" class="edge">
<title>16898&#45;&gt;16899</title>
<path fill="none" stroke="black" d="M1257.16,-71.75C1254.06,-63.22 1250.92,-54.57 1248.1,-46.8"/>
<polygon fill="black" stroke="black" points="1251.46,-45.8 1244.75,-37.6 1244.88,-48.19 1251.46,-45.8"/>
</g>
<!-- 16920 -->
<g id="node31" class="node">
<title>16920</title>
<path fill="#c0c0c0" stroke="black" d="M1325,-36C1325,-36 1295,-36 1295,-36 1289,-36 1283,-30 1283,-24 1283,-24 1283,-12 1283,-12 1283,-6 1289,0 1295,0 1295,0 1325,0 1325,0 1331,0 1337,-6 1337,-12 1337,-12 1337,-24 1337,-24 1337,-30 1331,-36 1325,-36"/>
<text text-anchor="middle" x="1310" y="-13.32" font-family="Helvetica,sans-Serif" font-size="14.00">(...)</text>
</g>
<!-- 16898&#45;&gt;16920 -->
<g id="edge30" class="edge">
<title>16898&#45;&gt;16920</title>
<path fill="none" stroke="black" d="M1290.84,-71.75C1293.94,-63.22 1297.08,-54.57 1299.9,-46.8"/>
<polygon fill="black" stroke="black" points="1303.12,-48.19 1303.25,-37.6 1296.54,-45.8 1303.12,-48.19"/>
</g>
</g>
</svg>
