<?xml version="1.0" encoding="UTF-8" standalone="no"?>
<!DOCTYPE svg PUBLIC "-//W3C//DTD SVG 1.1//EN"
 "http://www.w3.org/Graphics/SVG/1.1/DTD/svg11.dtd">
<!-- Generated by graphviz version 12.0.0 (20240803.0821)
 -->
<!-- Title: Tree Pages: 1 -->
<svg width="1410pt" height="565pt"
 viewBox="0.00 0.00 1410.00 565.00" xmlns="http://www.w3.org/2000/svg" xmlns:xlink="http://www.w3.org/1999/xlink">
<g id="graph0" class="graph" transform="scale(1 1) rotate(0) translate(4 561)">
<title>Tree</title>
<polygon fill="white" stroke="none" points="-4,4 -4,-561 1406,-561 1406,4 -4,4"/>
<!-- 0 -->
<g id="node1" class="node">
<title>0</title>
<path fill="#ffffff" stroke="black" d="M773,-557C773,-557 613,-557 613,-557 607,-557 601,-551 601,-545 601,-545 601,-474.75 601,-474.75 601,-468.75 607,-462.75 613,-462.75 613,-462.75 773,-462.75 773,-462.75 779,-462.75 785,-468.75 785,-474.75 785,-474.75 785,-545 785,-545 785,-551 779,-557 773,-557"/>
<text text-anchor="middle" x="693" y="-539.7" font-family="Helvetica,sans-Serif" font-size="14.00">9_G &lt;= 0.5</text>
<text text-anchor="middle" x="693" y="-522.45" font-family="Helvetica,sans-Serif" font-size="14.00">entropy = 1.0</text>
<text text-anchor="middle" x="693" y="-505.2" font-family="Helvetica,sans-Serif" font-size="14.00">samples = 38167</text>
<text text-anchor="middle" x="693" y="-487.95" font-family="Helvetica,sans-Serif" font-size="14.00">value = [30155, 30190]</text>
<text text-anchor="middle" x="693" y="-470.7" font-family="Helvetica,sans-Serif" font-size="14.00">class = Plant</text>
</g>
<!-- 1 -->
<g id="node2" class="node">
<title>1</title>
<path fill="#fbeee4" stroke="black" d="M616,-426.75C616,-426.75 456,-426.75 456,-426.75 450,-426.75 444,-420.75 444,-414.75 444,-414.75 444,-344.5 444,-344.5 444,-338.5 450,-332.5 456,-332.5 456,-332.5 616,-332.5 616,-332.5 622,-332.5 628,-338.5 628,-344.5 628,-344.5 628,-414.75 628,-414.75 628,-420.75 622,-426.75 616,-426.75"/>
<text text-anchor="middle" x="536" y="-409.45" font-family="Helvetica,sans-Serif" font-size="14.00">22_G &lt;= 0.5</text>
<text text-anchor="middle" x="536" y="-392.2" font-family="Helvetica,sans-Serif" font-size="14.00">entropy = 0.996</text>
<text text-anchor="middle" x="536" y="-374.95" font-family="Helvetica,sans-Serif" font-size="14.00">samples = 27505</text>
<text text-anchor="middle" x="536" y="-357.7" font-family="Helvetica,sans-Serif" font-size="14.00">value = [23312, 20115]</text>
<text text-anchor="middle" x="536" y="-340.45" font-family="Helvetica,sans-Serif" font-size="14.00">class = Animal</text>
</g>
<!-- 0&#45;&gt;1 -->
<g id="edge1" class="edge">
<title>0&#45;&gt;1</title>
<path fill="none" stroke="black" d="M636.32,-462.57C625.05,-453.37 613.13,-443.63 601.59,-434.21"/>
<polygon fill="black" stroke="black" points="603.99,-431.65 594.03,-428.03 599.56,-437.07 603.99,-431.65"/>
<text text-anchor="middle" x="595.37" y="-447.27" font-family="Helvetica,sans-Serif" font-size="14.00">True</text>
</g>
<!-- 12600 -->
<g id="node17" class="node">
<title>12600</title>
<path fill="#bfe0f7" stroke="black" d="M958.5,-426.75C958.5,-426.75 807.5,-426.75 807.5,-426.75 801.5,-426.75 795.5,-420.75 795.5,-414.75 795.5,-414.75 795.5,-344.5 795.5,-344.5 795.5,-338.5 801.5,-332.5 807.5,-332.5 807.5,-332.5 958.5,-332.5 958.5,-332.5 964.5,-332.5 970.5,-338.5 970.5,-344.5 970.5,-344.5 970.5,-414.75 970.5,-414.75 970.5,-420.75 964.5,-426.75 958.5,-426.75"/>
<text text-anchor="middle" x="883" y="-409.45" font-family="Helvetica,sans-Serif" font-size="14.00">13_C &lt;= 0.5</text>
<text text-anchor="middle" x="883" y="-392.2" font-family="Helvetica,sans-Serif" font-size="14.00">entropy = 0.974</text>
<text text-anchor="middle" x="883" y="-374.95" font-family="Helvetica,sans-Serif" font-size="14.00">samples = 10662</text>
<text text-anchor="middle" x="883" y="-357.7" font-family="Helvetica,sans-Serif" font-size="14.00">value = [6843, 10075]</text>
<text text-anchor="middle" x="883" y="-340.45" font-family="Helvetica,sans-Serif" font-size="14.00">class = Plant</text>
</g>
<!-- 0&#45;&gt;12600 -->
<g id="edge16" class="edge">
<title>0&#45;&gt;12600</title>
<path fill="none" stroke="black" d="M761.86,-462.39C775.8,-452.98 790.55,-443.03 804.79,-433.42"/>
<polygon fill="black" stroke="black" points="806.47,-436.51 812.8,-428.01 802.55,-430.7 806.47,-436.51"/>
<text text-anchor="middle" x="809.29" y="-447.03" font-family="Helvetica,sans-Serif" font-size="14.00">False</text>
</g>
<!-- 2 -->
<g id="node3" class="node">
<title>2</title>
<path fill="#fcfeff" stroke="black" d="M365,-296.5C365,-296.5 205,-296.5 205,-296.5 199,-296.5 193,-290.5 193,-284.5 193,-284.5 193,-214.25 193,-214.25 193,-208.25 199,-202.25 205,-202.25 205,-202.25 365,-202.25 365,-202.25 371,-202.25 377,-208.25 377,-214.25 377,-214.25 377,-284.5 377,-284.5 377,-290.5 371,-296.5 365,-296.5"/>
<text text-anchor="middle" x="285" y="-279.2" font-family="Helvetica,sans-Serif" font-size="14.00">22_C &lt;= 0.5</text>
<text text-anchor="middle" x="285" y="-261.95" font-family="Helvetica,sans-Serif" font-size="14.00">entropy = 1.0</text>
<text text-anchor="middle" x="285" y="-244.7" font-family="Helvetica,sans-Serif" font-size="14.00">samples = 23803</text>
<text text-anchor="middle" x="285" y="-227.45" font-family="Helvetica,sans-Serif" font-size="14.00">value = [18667, 18934]</text>
<text text-anchor="middle" x="285" y="-210.2" font-family="Helvetica,sans-Serif" font-size="14.00">class = Plant</text>
</g>
<!-- 1&#45;&gt;2 -->
<g id="edge2" class="edge">
<title>1&#45;&gt;2</title>
<path fill="none" stroke="black" d="M445.03,-332.14C425.91,-322.38 405.64,-312.02 386.18,-302.07"/>
<polygon fill="black" stroke="black" points="387.93,-299.04 377.43,-297.6 384.74,-305.27 387.93,-299.04"/>
</g>
<!-- 11177 -->
<g id="node10" class="node">
<title>11177</title>
<path fill="#eca16b" stroke="black" d="M607,-296.5C607,-296.5 465,-296.5 465,-296.5 459,-296.5 453,-290.5 453,-284.5 453,-284.5 453,-214.25 453,-214.25 453,-208.25 459,-202.25 465,-202.25 465,-202.25 607,-202.25 607,-202.25 613,-202.25 619,-208.25 619,-214.25 619,-214.25 619,-284.5 619,-284.5 619,-290.5 613,-296.5 607,-296.5"/>
<text text-anchor="middle" x="536" y="-279.2" font-family="Helvetica,sans-Serif" font-size="14.00">27_U &lt;= 0.5</text>
<text text-anchor="middle" x="536" y="-261.95" font-family="Helvetica,sans-Serif" font-size="14.00">entropy = 0.727</text>
<text text-anchor="middle" x="536" y="-244.7" font-family="Helvetica,sans-Serif" font-size="14.00">samples = 3702</text>
<text text-anchor="middle" x="536" y="-227.45" font-family="Helvetica,sans-Serif" font-size="14.00">value = [4645, 1181]</text>
<text text-anchor="middle" x="536" y="-210.2" font-family="Helvetica,sans-Serif" font-size="14.00">class = Animal</text>
</g>
<!-- 1&#45;&gt;11177 -->
<g id="edge9" class="edge">
<title>1&#45;&gt;11177</title>
<path fill="none" stroke="black" d="M536,-332.32C536,-324.42 536,-316.13 536,-307.98"/>
<polygon fill="black" stroke="black" points="539.5,-308.12 536,-298.12 532.5,-308.12 539.5,-308.12"/>
</g>
<!-- 3 -->
<g id="node4" class="node">
<title>3</title>
<path fill="#e5f2fc" stroke="black" d="M172,-166.25C172,-166.25 12,-166.25 12,-166.25 6,-166.25 0,-160.25 0,-154.25 0,-154.25 0,-84 0,-84 0,-78 6,-72 12,-72 12,-72 172,-72 172,-72 178,-72 184,-78 184,-84 184,-84 184,-154.25 184,-154.25 184,-160.25 178,-166.25 172,-166.25"/>
<text text-anchor="middle" x="92" y="-148.95" font-family="Helvetica,sans-Serif" font-size="14.00">23_G &lt;= 0.5</text>
<text text-anchor="middle" x="92" y="-131.7" font-family="Helvetica,sans-Serif" font-size="14.00">entropy = 0.997</text>
<text text-anchor="middle" x="92" y="-114.45" font-family="Helvetica,sans-Serif" font-size="14.00">samples = 20998</text>
<text text-anchor="middle" x="92" y="-97.2" font-family="Helvetica,sans-Serif" font-size="14.00">value = [15421, 17726]</text>
<text text-anchor="middle" x="92" y="-79.95" font-family="Helvetica,sans-Serif" font-size="14.00">class = Plant</text>
</g>
<!-- 2&#45;&gt;3 -->
<g id="edge3" class="edge">
<title>2&#45;&gt;3</title>
<path fill="none" stroke="black" d="M215.05,-201.89C200.89,-192.48 185.9,-182.53 171.45,-172.92"/>
<polygon fill="black" stroke="black" points="173.56,-170.12 163.3,-167.5 169.69,-175.95 173.56,-170.12"/>
</g>
<!-- 9754 -->
<g id="node7" class="node">
<title>9754</title>
<path fill="#efb083" stroke="black" d="M356,-166.25C356,-166.25 214,-166.25 214,-166.25 208,-166.25 202,-160.25 202,-154.25 202,-154.25 202,-84 202,-84 202,-78 208,-72 214,-72 214,-72 356,-72 356,-72 362,-72 368,-78 368,-84 368,-84 368,-154.25 368,-154.25 368,-160.25 362,-166.25 356,-166.25"/>
<text text-anchor="middle" x="285" y="-148.95" font-family="Helvetica,sans-Serif" font-size="14.00">25_A &lt;= 0.5</text>
<text text-anchor="middle" x="285" y="-131.7" font-family="Helvetica,sans-Serif" font-size="14.00">entropy = 0.843</text>
<text text-anchor="middle" x="285" y="-114.45" font-family="Helvetica,sans-Serif" font-size="14.00">samples = 2805</text>
<text text-anchor="middle" x="285" y="-97.2" font-family="Helvetica,sans-Serif" font-size="14.00">value = [3246, 1208]</text>
<text text-anchor="middle" x="285" y="-79.95" font-family="Helvetica,sans-Serif" font-size="14.00">class = Animal</text>
</g>
<!-- 2&#45;&gt;9754 -->
<g id="edge6" class="edge">
<title>2&#45;&gt;9754</title>
<path fill="none" stroke="black" d="M285,-202.07C285,-194.17 285,-185.88 285,-177.73"/>
<polygon fill="black" stroke="black" points="288.5,-177.87 285,-167.87 281.5,-177.87 288.5,-177.87"/>
</g>
<!-- 4 -->
<g id="node5" class="node">
<title>4</title>
<path fill="#c0c0c0" stroke="black" d="M71,-36C71,-36 41,-36 41,-36 35,-36 29,-30 29,-24 29,-24 29,-12 29,-12 29,-6 35,0 41,0 41,0 71,0 71,0 77,0 83,-6 83,-12 83,-12 83,-24 83,-24 83,-30 77,-36 71,-36"/>
<text text-anchor="middle" x="56" y="-13.32" font-family="Helvetica,sans-Serif" font-size="14.00">(...)</text>
</g>
<!-- 3&#45;&gt;4 -->
<g id="edge4" class="edge">
<title>3&#45;&gt;4</title>
<path fill="none" stroke="black" d="M75.16,-71.75C72.06,-63.22 68.92,-54.57 66.1,-46.8"/>
<polygon fill="black" stroke="black" points="69.46,-45.8 62.75,-37.6 62.88,-48.19 69.46,-45.8"/>
</g>
<!-- 9435 -->
<g id="node6" class="node">
<title>9435</title>
<path fill="#c0c0c0" stroke="black" d="M143,-36C143,-36 113,-36 113,-36 107,-36 101,-30 101,-24 101,-24 101,-12 101,-12 101,-6 107,0 113,0 113,0 143,0 143,0 149,0 155,-6 155,-12 155,-12 155,-24 155,-24 155,-30 149,-36 143,-36"/>
<text text-anchor="middle" x="128" y="-13.32" font-family="Helvetica,sans-Serif" font-size="14.00">(...)</text>
</g>
<!-- 3&#45;&gt;9435 -->
<g id="edge5" class="edge">
<title>3&#45;&gt;9435</title>
<path fill="none" stroke="black" d="M108.84,-71.75C111.94,-63.22 115.08,-54.57 117.9,-46.8"/>
<polygon fill="black" stroke="black" points="121.12,-48.19 121.25,-37.6 114.54,-45.8 121.12,-48.19"/>
</g>
<!-- 9755 -->
<g id="node8" class="node">
<title>9755</title>
<path fill="#c0c0c0" stroke="black" d="M257,-36C257,-36 227,-36 227,-36 221,-36 215,-30 215,-24 215,-24 215,-12 215,-12 215,-6 221,0 227,0 227,0 257,0 257,0 263,0 269,-6 269,-12 269,-12 269,-24 269,-24 269,-30 263,-36 257,-36"/>
<text text-anchor="middle" x="242" y="-13.32" font-family="Helvetica,sans-Serif" font-size="14.00">(...)</text>
</g>
<!-- 9754&#45;&gt;9755 -->
<g id="edge7" class="edge">
<title>9754&#45;&gt;9755</title>
<path fill="none" stroke="black" d="M264.88,-71.75C261.14,-63.12 257.34,-54.36 253.94,-46.53"/>
<polygon fill="black" stroke="black" points="257.24,-45.34 250.05,-37.56 250.82,-48.13 257.24,-45.34"/>
</g>
<!-- 11158 -->
<g id="node9" class="node">
<title>11158</title>
<path fill="#c0c0c0" stroke="black" d="M329,-36C329,-36 299,-36 299,-36 293,-36 287,-30 287,-24 287,-24 287,-12 287,-12 287,-6 293,0 299,0 299,0 329,0 329,0 335,0 341,-6 341,-12 341,-12 341,-24 341,-24 341,-30 335,-36 329,-36"/>
<text text-anchor="middle" x="314" y="-13.32" font-family="Helvetica,sans-Serif" font-size="14.00">(...)</text>
</g>
<!-- 9754&#45;&gt;11158 -->
<g id="edge8" class="edge">
<title>9754&#45;&gt;11158</title>
<path fill="none" stroke="black" d="M298.57,-71.75C301.03,-63.32 303.54,-54.77 305.79,-47.07"/>
<polygon fill="black" stroke="black" points="309.1,-48.21 308.55,-37.63 302.38,-46.24 309.1,-48.21"/>
</g>
<!-- 11178 -->
<g id="node11" class="node">
<title>11178</title>
<path fill="#eca16b" stroke="black" d="M540,-166.25C540,-166.25 398,-166.25 398,-166.25 392,-166.25 386,-160.25 386,-154.25 386,-154.25 386,-84 386,-84 386,-78 392,-72 398,-72 398,-72 540,-72 540,-72 546,-72 552,-78 552,-84 552,-84 552,-154.25 552,-154.25 552,-160.25 546,-166.25 540,-166.25"/>
<text text-anchor="middle" x="469" y="-148.95" font-family="Helvetica,sans-Serif" font-size="14.00">19_C &lt;= 0.5</text>
<text text-anchor="middle" x="469" y="-131.7" font-family="Helvetica,sans-Serif" font-size="14.00">entropy = 0.723</text>
<text text-anchor="middle" x="469" y="-114.45" font-family="Helvetica,sans-Serif" font-size="14.00">samples = 3691</text>
<text text-anchor="middle" x="469" y="-97.2" font-family="Helvetica,sans-Serif" font-size="14.00">value = [4644, 1164]</text>
<text text-anchor="middle" x="469" y="-79.95" font-family="Helvetica,sans-Serif" font-size="14.00">class = Animal</text>
</g>
<!-- 11177&#45;&gt;11178 -->
<g id="edge10" class="edge">
<title>11177&#45;&gt;11178</title>
<path fill="none" stroke="black" d="M511.81,-202.07C507.45,-193.72 502.85,-184.93 498.36,-176.33"/>
<polygon fill="black" stroke="black" points="501.59,-174.94 493.85,-167.7 495.38,-178.18 501.59,-174.94"/>
</g>
<!-- 12595 -->
<g id="node14" class="node">
<title>12595</title>
<path fill="#45a3e7" stroke="black" d="M679.88,-166.25C679.88,-166.25 582.12,-166.25 582.12,-166.25 576.12,-166.25 570.12,-160.25 570.12,-154.25 570.12,-154.25 570.12,-84 570.12,-84 570.12,-78 576.12,-72 582.12,-72 582.12,-72 679.88,-72 679.88,-72 685.88,-72 691.88,-78 691.88,-84 691.88,-84 691.88,-154.25 691.88,-154.25 691.88,-160.25 685.88,-166.25 679.88,-166.25"/>
<text text-anchor="middle" x="631" y="-148.95" font-family="Helvetica,sans-Serif" font-size="14.00">2_U &lt;= 0.5</text>
<text text-anchor="middle" x="631" y="-131.7" font-family="Helvetica,sans-Serif" font-size="14.00">entropy = 0.31</text>
<text text-anchor="middle" x="631" y="-114.45" font-family="Helvetica,sans-Serif" font-size="14.00">samples = 11</text>
<text text-anchor="middle" x="631" y="-97.2" font-family="Helvetica,sans-Serif" font-size="14.00">value = [1, 17]</text>
<text text-anchor="middle" x="631" y="-79.95" font-family="Helvetica,sans-Serif" font-size="14.00">class = Plant</text>
</g>
<!-- 11177&#45;&gt;12595 -->
<g id="edge13" class="edge">
<title>11177&#45;&gt;12595</title>
<path fill="none" stroke="black" d="M570.3,-202.07C576.69,-193.45 583.42,-184.35 589.99,-175.49"/>
<polygon fill="black" stroke="black" points="592.71,-177.69 595.85,-167.57 587.09,-173.53 592.71,-177.69"/>
</g>
<!-- 11179 -->
<g id="node12" class="node">
<title>11179</title>
<path fill="#c0c0c0" stroke="black" d="M421,-36C421,-36 391,-36 391,-36 385,-36 379,-30 379,-24 379,-24 379,-12 379,-12 379,-6 385,0 391,0 391,0 421,0 421,0 427,0 433,-6 433,-12 433,-12 433,-24 433,-24 433,-30 427,-36 421,-36"/>
<text text-anchor="middle" x="406" y="-13.32" font-family="Helvetica,sans-Serif" font-size="14.00">(...)</text>
</g>
<!-- 11178&#45;&gt;11179 -->
<g id="edge11" class="edge">
<title>11178&#45;&gt;11179</title>
<path fill="none" stroke="black" d="M439.53,-71.75C433.85,-62.83 428.09,-53.76 422.98,-45.72"/>
<polygon fill="black" stroke="black" points="426.04,-44.01 417.73,-37.45 420.14,-47.77 426.04,-44.01"/>
</g>
<!-- 12252 -->
<g id="node13" class="node">
<title>12252</title>
<path fill="#c0c0c0" stroke="black" d="M493,-36C493,-36 463,-36 463,-36 457,-36 451,-30 451,-24 451,-24 451,-12 451,-12 451,-6 457,0 463,0 463,0 493,0 493,0 499,0 505,-6 505,-12 505,-12 505,-24 505,-24 505,-30 499,-36 493,-36"/>
<text text-anchor="middle" x="478" y="-13.32" font-family="Helvetica,sans-Serif" font-size="14.00">(...)</text>
</g>
<!-- 11178&#45;&gt;12252 -->
<g id="edge12" class="edge">
<title>11178&#45;&gt;12252</title>
<path fill="none" stroke="black" d="M473.21,-71.75C473.96,-63.52 474.72,-55.17 475.4,-47.61"/>
<polygon fill="black" stroke="black" points="478.89,-47.96 476.3,-37.68 471.91,-47.32 478.89,-47.96"/>
</g>
<!-- 12596 -->
<g id="node15" class="node">
<title>12596</title>
<path fill="#c0c0c0" stroke="black" d="M583,-36C583,-36 553,-36 553,-36 547,-36 541,-30 541,-24 541,-24 541,-12 541,-12 541,-6 547,0 553,0 553,0 583,0 583,0 589,0 595,-6 595,-12 595,-12 595,-24 595,-24 595,-30 589,-36 583,-36"/>
<text text-anchor="middle" x="568" y="-13.32" font-family="Helvetica,sans-Serif" font-size="14.00">(...)</text>
</g>
<!-- 12595&#45;&gt;12596 -->
<g id="edge14" class="edge">
<title>12595&#45;&gt;12596</title>
<path fill="none" stroke="black" d="M601.53,-71.75C595.85,-62.83 590.09,-53.76 584.98,-45.72"/>
<polygon fill="black" stroke="black" points="588.04,-44.01 579.73,-37.45 582.14,-47.77 588.04,-44.01"/>
</g>
<!-- 12597 -->
<g id="node16" class="node">
<title>12597</title>
<path fill="#c0c0c0" stroke="black" d="M655,-36C655,-36 625,-36 625,-36 619,-36 613,-30 613,-24 613,-24 613,-12 613,-12 613,-6 619,0 625,0 625,0 655,0 655,0 661,0 667,-6 667,-12 667,-12 667,-24 667,-24 667,-30 661,-36 655,-36"/>
<text text-anchor="middle" x="640" y="-13.32" font-family="Helvetica,sans-Serif" font-size="14.00">(...)</text>
</g>
<!-- 12595&#45;&gt;12597 -->
<g id="edge15" class="edge">
<title>12595&#45;&gt;12597</title>
<path fill="none" stroke="black" d="M635.21,-71.75C635.96,-63.52 636.72,-55.17 637.4,-47.61"/>
<polygon fill="black" stroke="black" points="640.89,-47.96 638.3,-37.68 633.91,-47.32 640.89,-47.96"/>
</g>
<!-- 12601 -->
<g id="node18" class="node">
<title>12601</title>
<path fill="#b2d9f5" stroke="black" d="M954,-296.5C954,-296.5 812,-296.5 812,-296.5 806,-296.5 800,-290.5 800,-284.5 800,-284.5 800,-214.25 800,-214.25 800,-208.25 806,-202.25 812,-202.25 812,-202.25 954,-202.25 954,-202.25 960,-202.25 966,-208.25 966,-214.25 966,-214.25 966,-284.5 966,-284.5 966,-290.5 960,-296.5 954,-296.5"/>
<text text-anchor="middle" x="883" y="-279.2" font-family="Helvetica,sans-Serif" font-size="14.00">1_U &lt;= 0.5</text>
<text text-anchor="middle" x="883" y="-261.95" font-family="Helvetica,sans-Serif" font-size="14.00">entropy = 0.958</text>
<text text-anchor="middle" x="883" y="-244.7" font-family="Helvetica,sans-Serif" font-size="14.00">samples = 9099</text>
<text text-anchor="middle" x="883" y="-227.45" font-family="Helvetica,sans-Serif" font-size="14.00">value = [5496, 8967]</text>
<text text-anchor="middle" x="883" y="-210.2" font-family="Helvetica,sans-Serif" font-size="14.00">class = Plant</text>
</g>
<!-- 12600&#45;&gt;12601 -->
<g id="edge17" class="edge">
<title>12600&#45;&gt;12601</title>
<path fill="none" stroke="black" d="M883,-332.32C883,-324.42 883,-316.13 883,-307.98"/>
<polygon fill="black" stroke="black" points="886.5,-308.12 883,-298.12 879.5,-308.12 886.5,-308.12"/>
</g>
<!-- 16172 -->
<g id="node25" class="node">
<title>16172</title>
<path fill="#fae9dc" stroke="black" d="M1228,-296.5C1228,-296.5 1086,-296.5 1086,-296.5 1080,-296.5 1074,-290.5 1074,-284.5 1074,-284.5 1074,-214.25 1074,-214.25 1074,-208.25 1080,-202.25 1086,-202.25 1086,-202.25 1228,-202.25 1228,-202.25 1234,-202.25 1240,-208.25 1240,-214.25 1240,-214.25 1240,-284.5 1240,-284.5 1240,-290.5 1234,-296.5 1228,-296.5"/>
<text text-anchor="middle" x="1157" y="-279.2" font-family="Helvetica,sans-Serif" font-size="14.00">2_U &lt;= 0.5</text>
<text text-anchor="middle" x="1157" y="-261.95" font-family="Helvetica,sans-Serif" font-size="14.00">entropy = 0.993</text>
<text text-anchor="middle" x="1157" y="-244.7" font-family="Helvetica,sans-Serif" font-size="14.00">samples = 1563</text>
<text text-anchor="middle" x="1157" y="-227.45" font-family="Helvetica,sans-Serif" font-size="14.00">value = [1347, 1108]</text>
<text text-anchor="middle" x="1157" y="-210.2" font-family="Helvetica,sans-Serif" font-size="14.00">class = Animal</text>
</g>
<!-- 12600&#45;&gt;16172 -->
<g id="edge24" class="edge">
<title>12600&#45;&gt;16172</title>
<path fill="none" stroke="black" d="M970.83,-337.52C1000.5,-323.63 1033.72,-308.08 1063.8,-294"/>
<polygon fill="black" stroke="black" points="1064.92,-297.34 1072.5,-289.93 1061.95,-291 1064.92,-297.34"/>
</g>
<!-- 12602 -->
<g id="node19" class="node">
<title>12602</title>
<path fill="#f6fbfe" stroke="black" d="M864,-166.25C864,-166.25 722,-166.25 722,-166.25 716,-166.25 710,-160.25 710,-154.25 710,-154.25 710,-84 710,-84 710,-78 716,-72 722,-72 722,-72 864,-72 864,-72 870,-72 876,-78 876,-84 876,-84 876,-154.25 876,-154.25 876,-160.25 870,-166.25 864,-166.25"/>
<text text-anchor="middle" x="793" y="-148.95" font-family="Helvetica,sans-Serif" font-size="14.00">10_A &lt;= 0.5</text>
<text text-anchor="middle" x="793" y="-131.7" font-family="Helvetica,sans-Serif" font-size="14.00">entropy = 1.0</text>
<text text-anchor="middle" x="793" y="-114.45" font-family="Helvetica,sans-Serif" font-size="14.00">samples = 4000</text>
<text text-anchor="middle" x="793" y="-97.2" font-family="Helvetica,sans-Serif" font-size="14.00">value = [3126, 3270]</text>
<text text-anchor="middle" x="793" y="-79.95" font-family="Helvetica,sans-Serif" font-size="14.00">class = Plant</text>
</g>
<!-- 12601&#45;&gt;12602 -->
<g id="edge18" class="edge">
<title>12601&#45;&gt;12602</title>
<path fill="none" stroke="black" d="M850.51,-202.07C844.52,-193.54 838.21,-184.54 832.05,-175.77"/>
<polygon fill="black" stroke="black" points="834.92,-173.77 826.31,-167.6 829.19,-177.79 834.92,-173.77"/>
</g>
<!-- 14575 -->
<g id="node22" class="node">
<title>14575</title>
<path fill="#8bc6f0" stroke="black" d="M1048,-166.25C1048,-166.25 906,-166.25 906,-166.25 900,-166.25 894,-160.25 894,-154.25 894,-154.25 894,-84 894,-84 894,-78 900,-72 906,-72 906,-72 1048,-72 1048,-72 1054,-72 1060,-78 1060,-84 1060,-84 1060,-154.25 1060,-154.25 1060,-160.25 1054,-166.25 1048,-166.25"/>
<text text-anchor="middle" x="977" y="-148.95" font-family="Helvetica,sans-Serif" font-size="14.00">20_G &lt;= 0.5</text>
<text text-anchor="middle" x="977" y="-131.7" font-family="Helvetica,sans-Serif" font-size="14.00">entropy = 0.874</text>
<text text-anchor="middle" x="977" y="-114.45" font-family="Helvetica,sans-Serif" font-size="14.00">samples = 5099</text>
<text text-anchor="middle" x="977" y="-97.2" font-family="Helvetica,sans-Serif" font-size="14.00">value = [2370, 5697]</text>
<text text-anchor="middle" x="977" y="-79.95" font-family="Helvetica,sans-Serif" font-size="14.00">class = Plant</text>
</g>
<!-- 12601&#45;&gt;14575 -->
<g id="edge21" class="edge">
<title>12601&#45;&gt;14575</title>
<path fill="none" stroke="black" d="M916.94,-202.07C923.26,-193.45 929.92,-184.35 936.42,-175.49"/>
<polygon fill="black" stroke="black" points="939.13,-177.71 942.22,-167.58 933.48,-173.58 939.13,-177.71"/>
</g>
<!-- 12603 -->
<g id="node20" class="node">
<title>12603</title>
<path fill="#c0c0c0" stroke="black" d="M756,-36C756,-36 726,-36 726,-36 720,-36 714,-30 714,-24 714,-24 714,-12 714,-12 714,-6 720,0 726,0 726,0 756,0 756,0 762,0 768,-6 768,-12 768,-12 768,-24 768,-24 768,-30 762,-36 756,-36"/>
<text text-anchor="middle" x="741" y="-13.32" font-family="Helvetica,sans-Serif" font-size="14.00">(...)</text>
</g>
<!-- 12602&#45;&gt;12603 -->
<g id="edge19" class="edge">
<title>12602&#45;&gt;12603</title>
<path fill="none" stroke="black" d="M768.67,-71.75C764.1,-63.03 759.45,-54.16 755.3,-46.26"/>
<polygon fill="black" stroke="black" points="758.46,-44.74 750.71,-37.51 752.26,-47.99 758.46,-44.74"/>
</g>
<!-- 13978 -->
<g id="node21" class="node">
<title>13978</title>
<path fill="#c0c0c0" stroke="black" d="M828,-36C828,-36 798,-36 798,-36 792,-36 786,-30 786,-24 786,-24 786,-12 786,-12 786,-6 792,0 798,0 798,0 828,0 828,0 834,0 840,-6 840,-12 840,-12 840,-24 840,-24 840,-30 834,-36 828,-36"/>
<text text-anchor="middle" x="813" y="-13.32" font-family="Helvetica,sans-Serif" font-size="14.00">(...)</text>
</g>
<!-- 12602&#45;&gt;13978 -->
<g id="edge20" class="edge">
<title>12602&#45;&gt;13978</title>
<path fill="none" stroke="black" d="M802.36,-71.75C804.04,-63.42 805.74,-54.97 807.28,-47.34"/>
<polygon fill="black" stroke="black" points="810.69,-48.15 809.24,-37.66 803.83,-46.77 810.69,-48.15"/>
</g>
<!-- 14576 -->
<g id="node23" class="node">
<title>14576</title>
<path fill="#c0c0c0" stroke="black" d="M938,-36C938,-36 908,-36 908,-36 902,-36 896,-30 896,-24 896,-24 896,-12 896,-12 896,-6 902,0 908,0 908,0 938,0 938,0 944,0 950,-6 950,-12 950,-12 950,-24 950,-24 950,-30 944,-36 938,-36"/>
<text text-anchor="middle" x="923" y="-13.32" font-family="Helvetica,sans-Serif" font-size="14.00">(...)</text>
</g>
<!-- 14575&#45;&gt;14576 -->
<g id="edge22" class="edge">
<title>14575&#45;&gt;14576</title>
<path fill="none" stroke="black" d="M951.74,-71.75C946.98,-63.03 942.16,-54.16 937.85,-46.26"/>
<polygon fill="black" stroke="black" points="940.94,-44.61 933.08,-37.5 934.79,-47.96 940.94,-44.61"/>
</g>
<!-- 15763 -->
<g id="node24" class="node">
<title>15763</title>
<path fill="#c0c0c0" stroke="black" d="M1010,-36C1010,-36 980,-36 980,-36 974,-36 968,-30 968,-24 968,-24 968,-12 968,-12 968,-6 974,0 980,0 980,0 1010,0 1010,0 1016,0 1022,-6 1022,-12 1022,-12 1022,-24 1022,-24 1022,-30 1016,-36 1010,-36"/>
<text text-anchor="middle" x="995" y="-13.32" font-family="Helvetica,sans-Serif" font-size="14.00">(...)</text>
</g>
<!-- 14575&#45;&gt;15763 -->
<g id="edge23" class="edge">
<title>14575&#45;&gt;15763</title>
<path fill="none" stroke="black" d="M985.42,-71.75C986.93,-63.42 988.47,-54.97 989.85,-47.34"/>
<polygon fill="black" stroke="black" points="993.27,-48.13 991.61,-37.66 986.38,-46.88 993.27,-48.13"/>
</g>
<!-- 16173 -->
<g id="node26" class="node">
<title>16173</title>
<path fill="#f7d6bf" stroke="black" d="M1223.5,-166.25C1223.5,-166.25 1090.5,-166.25 1090.5,-166.25 1084.5,-166.25 1078.5,-160.25 1078.5,-154.25 1078.5,-154.25 1078.5,-84 1078.5,-84 1078.5,-78 1084.5,-72 1090.5,-72 1090.5,-72 1223.5,-72 1223.5,-72 1229.5,-72 1235.5,-78 1235.5,-84 1235.5,-84 1235.5,-154.25 1235.5,-154.25 1235.5,-160.25 1229.5,-166.25 1223.5,-166.25"/>
<text text-anchor="middle" x="1157" y="-148.95" font-family="Helvetica,sans-Serif" font-size="14.00">1_A &lt;= 0.5</text>
<text text-anchor="middle" x="1157" y="-131.7" font-family="Helvetica,sans-Serif" font-size="14.00">entropy = 0.973</text>
<text text-anchor="middle" x="1157" y="-114.45" font-family="Helvetica,sans-Serif" font-size="14.00">samples = 1116</text>
<text text-anchor="middle" x="1157" y="-97.2" font-family="Helvetica,sans-Serif" font-size="14.00">value = [1053, 714]</text>
<text text-anchor="middle" x="1157" y="-79.95" font-family="Helvetica,sans-Serif" font-size="14.00">class = Animal</text>
</g>
<!-- 16172&#45;&gt;16173 -->
<g id="edge25" class="edge">
<title>16172&#45;&gt;16173</title>
<path fill="none" stroke="black" d="M1157,-202.07C1157,-194.17 1157,-185.88 1157,-177.73"/>
<polygon fill="black" stroke="black" points="1160.5,-177.87 1157,-167.87 1153.5,-177.87 1160.5,-177.87"/>
</g>
<!-- 16870 -->
<g id="node29" class="node">
<title>16870</title>
<path fill="#cde6f8" stroke="black" d="M1390,-166.25C1390,-166.25 1266,-166.25 1266,-166.25 1260,-166.25 1254,-160.25 1254,-154.25 1254,-154.25 1254,-84 1254,-84 1254,-78 1260,-72 1266,-72 1266,-72 1390,-72 1390,-72 1396,-72 1402,-78 1402,-84 1402,-84 1402,-154.25 1402,-154.25 1402,-160.25 1396,-166.25 1390,-166.25"/>
<text text-anchor="middle" x="1328" y="-148.95" font-family="Helvetica,sans-Serif" font-size="14.00">22_C &lt;= 0.5</text>
<text text-anchor="middle" x="1328" y="-131.7" font-family="Helvetica,sans-Serif" font-size="14.00">entropy = 0.985</text>
<text text-anchor="middle" x="1328" y="-114.45" font-family="Helvetica,sans-Serif" font-size="14.00">samples = 447</text>
<text text-anchor="middle" x="1328" y="-97.2" font-family="Helvetica,sans-Serif" font-size="14.00">value = [294, 394]</text>
<text text-anchor="middle" x="1328" y="-79.95" font-family="Helvetica,sans-Serif" font-size="14.00">class = Plant</text>
</g>
<!-- 16172&#45;&gt;16870 -->
<g id="edge28" class="edge">
<title>16172&#45;&gt;16870</title>
<path fill="none" stroke="black" d="M1218.73,-202.07C1231.13,-192.78 1244.25,-182.94 1256.93,-173.43"/>
<polygon fill="black" stroke="black" points="1258.96,-176.28 1264.86,-167.48 1254.76,-170.68 1258.96,-176.28"/>
</g>
<!-- 16174 -->
<g id="node27" class="node">
<title>16174</title>
<path fill="#c0c0c0" stroke="black" d="M1131,-36C1131,-36 1101,-36 1101,-36 1095,-36 1089,-30 1089,-24 1089,-24 1089,-12 1089,-12 1089,-6 1095,0 1101,0 1101,0 1131,0 1131,0 1137,0 1143,-6 1143,-12 1143,-12 1143,-24 1143,-24 1143,-30 1137,-36 1131,-36"/>
<text text-anchor="middle" x="1116" y="-13.32" font-family="Helvetica,sans-Serif" font-size="14.00">(...)</text>
</g>
<!-- 16173&#45;&gt;16174 -->
<g id="edge26" class="edge">
<title>16173&#45;&gt;16174</title>
<path fill="none" stroke="black" d="M1137.82,-71.75C1134.29,-63.22 1130.71,-54.57 1127.5,-46.8"/>
<polygon fill="black" stroke="black" points="1130.74,-45.47 1123.68,-37.57 1124.27,-48.15 1130.74,-45.47"/>
</g>
<!-- 16705 -->
<g id="node28" class="node">
<title>16705</title>
<path fill="#c0c0c0" stroke="black" d="M1203,-36C1203,-36 1173,-36 1173,-36 1167,-36 1161,-30 1161,-24 1161,-24 1161,-12 1161,-12 1161,-6 1167,0 1173,0 1173,0 1203,0 1203,0 1209,0 1215,-6 1215,-12 1215,-12 1215,-24 1215,-24 1215,-30 1209,-36 1203,-36"/>
<text text-anchor="middle" x="1188" y="-13.32" font-family="Helvetica,sans-Serif" font-size="14.00">(...)</text>
</g>
<!-- 16173&#45;&gt;16705 -->
<g id="edge27" class="edge">
<title>16173&#45;&gt;16705</title>
<path fill="none" stroke="black" d="M1171.5,-71.75C1174.14,-63.32 1176.81,-54.77 1179.22,-47.07"/>
<polygon fill="black" stroke="black" points="1182.53,-48.21 1182.18,-37.62 1175.85,-46.12 1182.53,-48.21"/>
</g>
<!-- 16871 -->
<g id="node30" class="node">
<title>16871</title>
<path fill="#c0c0c0" stroke="black" d="M1307,-36C1307,-36 1277,-36 1277,-36 1271,-36 1265,-30 1265,-24 1265,-24 1265,-12 1265,-12 1265,-6 1271,0 1277,0 1277,0 1307,0 1307,0 1313,0 1319,-6 1319,-12 1319,-12 1319,-24 1319,-24 1319,-30 1313,-36 1307,-36"/>
<text text-anchor="middle" x="1292" y="-13.32" font-family="Helvetica,sans-Serif" font-size="14.00">(...)</text>
</g>
<!-- 16870&#45;&gt;16871 -->
<g id="edge29" class="edge">
<title>16870&#45;&gt;16871</title>
<path fill="none" stroke="black" d="M1311.16,-71.75C1308.06,-63.22 1304.92,-54.57 1302.1,-46.8"/>
<polygon fill="black" stroke="black" points="1305.46,-45.8 1298.75,-37.6 1298.88,-48.19 1305.46,-45.8"/>
</g>
<!-- 17072 -->
<g id="node31" class="node">
<title>17072</title>
<path fill="#c0c0c0" stroke="black" d="M1379,-36C1379,-36 1349,-36 1349,-36 1343,-36 1337,-30 1337,-24 1337,-24 1337,-12 1337,-12 1337,-6 1343,0 1349,0 1349,0 1379,0 1379,0 1385,0 1391,-6 1391,-12 1391,-12 1391,-24 1391,-24 1391,-30 1385,-36 1379,-36"/>
<text text-anchor="middle" x="1364" y="-13.32" font-family="Helvetica,sans-Serif" font-size="14.00">(...)</text>
</g>
<!-- 16870&#45;&gt;17072 -->
<g id="edge30" class="edge">
<title>16870&#45;&gt;17072</title>
<path fill="none" stroke="black" d="M1344.84,-71.75C1347.94,-63.22 1351.08,-54.57 1353.9,-46.8"/>
<polygon fill="black" stroke="black" points="1357.12,-48.19 1357.25,-37.6 1350.54,-45.8 1357.12,-48.19"/>
</g>
</g>
</svg>
