<?xml version="1.0" encoding="UTF-8" standalone="no"?>
<!DOCTYPE svg PUBLIC "-//W3C//DTD SVG 1.1//EN"
 "http://www.w3.org/Graphics/SVG/1.1/DTD/svg11.dtd">
<!-- Generated by graphviz version 12.0.0 (20240803.0821)
 -->
<!-- Title: Tree Pages: 1 -->
<svg width="1374pt" height="565pt"
 viewBox="0.00 0.00 1374.38 565.00" xmlns="http://www.w3.org/2000/svg" xmlns:xlink="http://www.w3.org/1999/xlink">
<g id="graph0" class="graph" transform="scale(1 1) rotate(0) translate(4 561)">
<title>Tree</title>
<polygon fill="white" stroke="none" points="-4,4 -4,-561 1370.38,-561 1370.38,4 -4,4"/>
<!-- 0 -->
<g id="node1" class="node">
<title>0</title>
<path fill="#fefcfb" stroke="black" d="M810,-557C810,-557 650,-557 650,-557 644,-557 638,-551 638,-545 638,-545 638,-474.75 638,-474.75 638,-468.75 644,-462.75 650,-462.75 650,-462.75 810,-462.75 810,-462.75 816,-462.75 822,-468.75 822,-474.75 822,-474.75 822,-545 822,-545 822,-551 816,-557 810,-557"/>
<text text-anchor="middle" x="730" y="-539.7" font-family="Helvetica,sans-Serif" font-size="14.00">23_U &lt;= 0.5</text>
<text text-anchor="middle" x="730" y="-522.45" font-family="Helvetica,sans-Serif" font-size="14.00">entropy = 1.0</text>
<text text-anchor="middle" x="730" y="-505.2" font-family="Helvetica,sans-Serif" font-size="14.00">samples = 38168</text>
<text text-anchor="middle" x="730" y="-487.95" font-family="Helvetica,sans-Serif" font-size="14.00">value = [30492, 29853]</text>
<text text-anchor="middle" x="730" y="-470.7" font-family="Helvetica,sans-Serif" font-size="14.00">class = Animal</text>
</g>
<!-- 1 -->
<g id="node2" class="node">
<title>1</title>
<path fill="#f5fafe" stroke="black" d="M639,-426.75C639,-426.75 479,-426.75 479,-426.75 473,-426.75 467,-420.75 467,-414.75 467,-414.75 467,-344.5 467,-344.5 467,-338.5 473,-332.5 479,-332.5 479,-332.5 639,-332.5 639,-332.5 645,-332.5 651,-338.5 651,-344.5 651,-344.5 651,-414.75 651,-414.75 651,-420.75 645,-426.75 639,-426.75"/>
<text text-anchor="middle" x="559" y="-409.45" font-family="Helvetica,sans-Serif" font-size="14.00">22_G &lt;= 0.5</text>
<text text-anchor="middle" x="559" y="-392.2" font-family="Helvetica,sans-Serif" font-size="14.00">entropy = 1.0</text>
<text text-anchor="middle" x="559" y="-374.95" font-family="Helvetica,sans-Serif" font-size="14.00">samples = 36212</text>
<text text-anchor="middle" x="559" y="-357.7" font-family="Helvetica,sans-Serif" font-size="14.00">value = [27860, 29328]</text>
<text text-anchor="middle" x="559" y="-340.45" font-family="Helvetica,sans-Serif" font-size="14.00">class = Plant</text>
</g>
<!-- 0&#45;&gt;1 -->
<g id="edge1" class="edge">
<title>0&#45;&gt;1</title>
<path fill="none" stroke="black" d="M668.27,-462.57C655.87,-453.28 642.75,-443.44 630.07,-433.93"/>
<polygon fill="black" stroke="black" points="632.24,-431.18 622.14,-427.98 628.04,-436.78 632.24,-431.18"/>
<text text-anchor="middle" x="624.47" y="-447.15" font-family="Helvetica,sans-Serif" font-size="14.00">True</text>
</g>
<!-- 16022 -->
<g id="node17" class="node">
<title>16022</title>
<path fill="#ea9a60" stroke="black" d="M969.5,-426.75C969.5,-426.75 836.5,-426.75 836.5,-426.75 830.5,-426.75 824.5,-420.75 824.5,-414.75 824.5,-414.75 824.5,-344.5 824.5,-344.5 824.5,-338.5 830.5,-332.5 836.5,-332.5 836.5,-332.5 969.5,-332.5 969.5,-332.5 975.5,-332.5 981.5,-338.5 981.5,-344.5 981.5,-344.5 981.5,-414.75 981.5,-414.75 981.5,-420.75 975.5,-426.75 969.5,-426.75"/>
<text text-anchor="middle" x="903" y="-409.45" font-family="Helvetica,sans-Serif" font-size="14.00">3_A &lt;= 0.5</text>
<text text-anchor="middle" x="903" y="-392.2" font-family="Helvetica,sans-Serif" font-size="14.00">entropy = 0.649</text>
<text text-anchor="middle" x="903" y="-374.95" font-family="Helvetica,sans-Serif" font-size="14.00">samples = 1956</text>
<text text-anchor="middle" x="903" y="-357.7" font-family="Helvetica,sans-Serif" font-size="14.00">value = [2632, 525]</text>
<text text-anchor="middle" x="903" y="-340.45" font-family="Helvetica,sans-Serif" font-size="14.00">class = Animal</text>
</g>
<!-- 0&#45;&gt;16022 -->
<g id="edge16" class="edge">
<title>0&#45;&gt;16022</title>
<path fill="none" stroke="black" d="M792.46,-462.57C805,-453.28 818.27,-443.44 831.1,-433.93"/>
<polygon fill="black" stroke="black" points="833.18,-436.74 839.13,-427.97 829.01,-431.12 833.18,-436.74"/>
<text text-anchor="middle" x="836.67" y="-447.13" font-family="Helvetica,sans-Serif" font-size="14.00">False</text>
</g>
<!-- 2 -->
<g id="node3" class="node">
<title>2</title>
<path fill="#daedfa" stroke="black" d="M370,-296.5C370,-296.5 210,-296.5 210,-296.5 204,-296.5 198,-290.5 198,-284.5 198,-284.5 198,-214.25 198,-214.25 198,-208.25 204,-202.25 210,-202.25 210,-202.25 370,-202.25 370,-202.25 376,-202.25 382,-208.25 382,-214.25 382,-214.25 382,-284.5 382,-284.5 382,-290.5 376,-296.5 370,-296.5"/>
<text text-anchor="middle" x="290" y="-279.2" font-family="Helvetica,sans-Serif" font-size="14.00">8_G &lt;= 0.5</text>
<text text-anchor="middle" x="290" y="-261.95" font-family="Helvetica,sans-Serif" font-size="14.00">entropy = 0.992</text>
<text text-anchor="middle" x="290" y="-244.7" font-family="Helvetica,sans-Serif" font-size="14.00">samples = 32029</text>
<text text-anchor="middle" x="290" y="-227.45" font-family="Helvetica,sans-Serif" font-size="14.00">value = [22677, 27835]</text>
<text text-anchor="middle" x="290" y="-210.2" font-family="Helvetica,sans-Serif" font-size="14.00">class = Plant</text>
</g>
<!-- 1&#45;&gt;2 -->
<g id="edge2" class="edge">
<title>1&#45;&gt;2</title>
<path fill="none" stroke="black" d="M466.8,-334.67C442.85,-323.25 416.9,-310.88 392.45,-299.22"/>
<polygon fill="black" stroke="black" points="393.98,-296.07 383.44,-294.93 390.96,-302.39 393.98,-296.07"/>
</g>
<!-- 14231 -->
<g id="node10" class="node">
<title>14231</title>
<path fill="#eca572" stroke="black" d="M630,-296.5C630,-296.5 488,-296.5 488,-296.5 482,-296.5 476,-290.5 476,-284.5 476,-284.5 476,-214.25 476,-214.25 476,-208.25 482,-202.25 488,-202.25 488,-202.25 630,-202.25 630,-202.25 636,-202.25 642,-208.25 642,-214.25 642,-214.25 642,-284.5 642,-284.5 642,-290.5 636,-296.5 630,-296.5"/>
<text text-anchor="middle" x="559" y="-279.2" font-family="Helvetica,sans-Serif" font-size="14.00">24_C &lt;= 0.5</text>
<text text-anchor="middle" x="559" y="-261.95" font-family="Helvetica,sans-Serif" font-size="14.00">entropy = 0.767</text>
<text text-anchor="middle" x="559" y="-244.7" font-family="Helvetica,sans-Serif" font-size="14.00">samples = 4183</text>
<text text-anchor="middle" x="559" y="-227.45" font-family="Helvetica,sans-Serif" font-size="14.00">value = [5183, 1493]</text>
<text text-anchor="middle" x="559" y="-210.2" font-family="Helvetica,sans-Serif" font-size="14.00">class = Animal</text>
</g>
<!-- 1&#45;&gt;14231 -->
<g id="edge9" class="edge">
<title>1&#45;&gt;14231</title>
<path fill="none" stroke="black" d="M559,-332.32C559,-324.42 559,-316.13 559,-307.98"/>
<polygon fill="black" stroke="black" points="562.5,-308.12 559,-298.12 555.5,-308.12 562.5,-308.12"/>
</g>
<!-- 3 -->
<g id="node4" class="node">
<title>3</title>
<path fill="#ffffff" stroke="black" d="M172,-166.25C172,-166.25 12,-166.25 12,-166.25 6,-166.25 0,-160.25 0,-154.25 0,-154.25 0,-84 0,-84 0,-78 6,-72 12,-72 12,-72 172,-72 172,-72 178,-72 184,-78 184,-84 184,-84 184,-154.25 184,-154.25 184,-160.25 178,-166.25 172,-166.25"/>
<text text-anchor="middle" x="92" y="-148.95" font-family="Helvetica,sans-Serif" font-size="14.00">14_A &lt;= 0.5</text>
<text text-anchor="middle" x="92" y="-131.7" font-family="Helvetica,sans-Serif" font-size="14.00">entropy = 1.0</text>
<text text-anchor="middle" x="92" y="-114.45" font-family="Helvetica,sans-Serif" font-size="14.00">samples = 21693</text>
<text text-anchor="middle" x="92" y="-97.2" font-family="Helvetica,sans-Serif" font-size="14.00">value = [17162, 17121]</text>
<text text-anchor="middle" x="92" y="-79.95" font-family="Helvetica,sans-Serif" font-size="14.00">class = Animal</text>
</g>
<!-- 2&#45;&gt;3 -->
<g id="edge3" class="edge">
<title>2&#45;&gt;3</title>
<path fill="none" stroke="black" d="M218.24,-201.89C203.71,-192.48 188.34,-182.53 173.5,-172.92"/>
<polygon fill="black" stroke="black" points="175.42,-169.99 165.12,-167.49 171.61,-175.86 175.42,-169.99"/>
</g>
<!-- 10382 -->
<g id="node7" class="node">
<title>10382</title>
<path fill="#9fcff2" stroke="black" d="M365.5,-166.25C365.5,-166.25 214.5,-166.25 214.5,-166.25 208.5,-166.25 202.5,-160.25 202.5,-154.25 202.5,-154.25 202.5,-84 202.5,-84 202.5,-78 208.5,-72 214.5,-72 214.5,-72 365.5,-72 365.5,-72 371.5,-72 377.5,-78 377.5,-84 377.5,-84 377.5,-154.25 377.5,-154.25 377.5,-160.25 371.5,-166.25 365.5,-166.25"/>
<text text-anchor="middle" x="290" y="-148.95" font-family="Helvetica,sans-Serif" font-size="14.00">22_A &lt;= 0.5</text>
<text text-anchor="middle" x="290" y="-131.7" font-family="Helvetica,sans-Serif" font-size="14.00">entropy = 0.925</text>
<text text-anchor="middle" x="290" y="-114.45" font-family="Helvetica,sans-Serif" font-size="14.00">samples = 10336</text>
<text text-anchor="middle" x="290" y="-97.2" font-family="Helvetica,sans-Serif" font-size="14.00">value = [5515, 10714]</text>
<text text-anchor="middle" x="290" y="-79.95" font-family="Helvetica,sans-Serif" font-size="14.00">class = Plant</text>
</g>
<!-- 2&#45;&gt;10382 -->
<g id="edge6" class="edge">
<title>2&#45;&gt;10382</title>
<path fill="none" stroke="black" d="M290,-202.07C290,-194.17 290,-185.88 290,-177.73"/>
<polygon fill="black" stroke="black" points="293.5,-177.87 290,-167.87 286.5,-177.87 293.5,-177.87"/>
</g>
<!-- 4 -->
<g id="node5" class="node">
<title>4</title>
<path fill="#c0c0c0" stroke="black" d="M71,-36C71,-36 41,-36 41,-36 35,-36 29,-30 29,-24 29,-24 29,-12 29,-12 29,-6 35,0 41,0 41,0 71,0 71,0 77,0 83,-6 83,-12 83,-12 83,-24 83,-24 83,-30 77,-36 71,-36"/>
<text text-anchor="middle" x="56" y="-13.32" font-family="Helvetica,sans-Serif" font-size="14.00">(...)</text>
</g>
<!-- 3&#45;&gt;4 -->
<g id="edge4" class="edge">
<title>3&#45;&gt;4</title>
<path fill="none" stroke="black" d="M75.16,-71.75C72.06,-63.22 68.92,-54.57 66.1,-46.8"/>
<polygon fill="black" stroke="black" points="69.46,-45.8 62.75,-37.6 62.88,-48.19 69.46,-45.8"/>
</g>
<!-- 7869 -->
<g id="node6" class="node">
<title>7869</title>
<path fill="#c0c0c0" stroke="black" d="M143,-36C143,-36 113,-36 113,-36 107,-36 101,-30 101,-24 101,-24 101,-12 101,-12 101,-6 107,0 113,0 113,0 143,0 143,0 149,0 155,-6 155,-12 155,-12 155,-24 155,-24 155,-30 149,-36 143,-36"/>
<text text-anchor="middle" x="128" y="-13.32" font-family="Helvetica,sans-Serif" font-size="14.00">(...)</text>
</g>
<!-- 3&#45;&gt;7869 -->
<g id="edge5" class="edge">
<title>3&#45;&gt;7869</title>
<path fill="none" stroke="black" d="M108.84,-71.75C111.94,-63.22 115.08,-54.57 117.9,-46.8"/>
<polygon fill="black" stroke="black" points="121.12,-48.19 121.25,-37.6 114.54,-45.8 121.12,-48.19"/>
</g>
<!-- 10383 -->
<g id="node8" class="node">
<title>10383</title>
<path fill="#c0c0c0" stroke="black" d="M271,-36C271,-36 241,-36 241,-36 235,-36 229,-30 229,-24 229,-24 229,-12 229,-12 229,-6 235,0 241,0 241,0 271,0 271,0 277,0 283,-6 283,-12 283,-12 283,-24 283,-24 283,-30 277,-36 271,-36"/>
<text text-anchor="middle" x="256" y="-13.32" font-family="Helvetica,sans-Serif" font-size="14.00">(...)</text>
</g>
<!-- 10382&#45;&gt;10383 -->
<g id="edge7" class="edge">
<title>10382&#45;&gt;10383</title>
<path fill="none" stroke="black" d="M274.1,-71.75C271.17,-63.22 268.2,-54.57 265.53,-46.8"/>
<polygon fill="black" stroke="black" points="268.94,-45.93 262.38,-37.6 262.32,-48.2 268.94,-45.93"/>
</g>
<!-- 13716 -->
<g id="node9" class="node">
<title>13716</title>
<path fill="#c0c0c0" stroke="black" d="M343,-36C343,-36 313,-36 313,-36 307,-36 301,-30 301,-24 301,-24 301,-12 301,-12 301,-6 307,0 313,0 313,0 343,0 343,0 349,0 355,-6 355,-12 355,-12 355,-24 355,-24 355,-30 349,-36 343,-36"/>
<text text-anchor="middle" x="328" y="-13.32" font-family="Helvetica,sans-Serif" font-size="14.00">(...)</text>
</g>
<!-- 10382&#45;&gt;13716 -->
<g id="edge8" class="edge">
<title>10382&#45;&gt;13716</title>
<path fill="none" stroke="black" d="M307.78,-71.75C311.05,-63.22 314.37,-54.57 317.34,-46.8"/>
<polygon fill="black" stroke="black" points="320.56,-48.18 320.88,-37.59 314.03,-45.67 320.56,-48.18"/>
</g>
<!-- 14232 -->
<g id="node11" class="node">
<title>14232</title>
<path fill="#eca46f" stroke="black" d="M550,-166.25C550,-166.25 408,-166.25 408,-166.25 402,-166.25 396,-160.25 396,-154.25 396,-154.25 396,-84 396,-84 396,-78 402,-72 408,-72 408,-72 550,-72 550,-72 556,-72 562,-78 562,-84 562,-84 562,-154.25 562,-154.25 562,-160.25 556,-166.25 550,-166.25"/>
<text text-anchor="middle" x="479" y="-148.95" font-family="Helvetica,sans-Serif" font-size="14.00">19_U &lt;= 0.5</text>
<text text-anchor="middle" x="479" y="-131.7" font-family="Helvetica,sans-Serif" font-size="14.00">entropy = 0.752</text>
<text text-anchor="middle" x="479" y="-114.45" font-family="Helvetica,sans-Serif" font-size="14.00">samples = 4055</text>
<text text-anchor="middle" x="479" y="-97.2" font-family="Helvetica,sans-Serif" font-size="14.00">value = [5075, 1393]</text>
<text text-anchor="middle" x="479" y="-79.95" font-family="Helvetica,sans-Serif" font-size="14.00">class = Animal</text>
</g>
<!-- 14231&#45;&gt;14232 -->
<g id="edge10" class="edge">
<title>14231&#45;&gt;14232</title>
<path fill="none" stroke="black" d="M530.12,-202.07C524.85,-193.63 519.3,-184.74 513.88,-176.05"/>
<polygon fill="black" stroke="black" points="516.9,-174.27 508.64,-167.64 510.96,-177.98 516.9,-174.27"/>
</g>
<!-- 15923 -->
<g id="node14" class="node">
<title>15923</title>
<path fill="#fdf6f0" stroke="black" d="M716,-166.25C716,-166.25 592,-166.25 592,-166.25 586,-166.25 580,-160.25 580,-154.25 580,-154.25 580,-84 580,-84 580,-78 586,-72 592,-72 592,-72 716,-72 716,-72 722,-72 728,-78 728,-84 728,-84 728,-154.25 728,-154.25 728,-160.25 722,-166.25 716,-166.25"/>
<text text-anchor="middle" x="654" y="-148.95" font-family="Helvetica,sans-Serif" font-size="14.00">9_A &lt;= 0.5</text>
<text text-anchor="middle" x="654" y="-131.7" font-family="Helvetica,sans-Serif" font-size="14.00">entropy = 0.999</text>
<text text-anchor="middle" x="654" y="-114.45" font-family="Helvetica,sans-Serif" font-size="14.00">samples = 128</text>
<text text-anchor="middle" x="654" y="-97.2" font-family="Helvetica,sans-Serif" font-size="14.00">value = [108, 100]</text>
<text text-anchor="middle" x="654" y="-79.95" font-family="Helvetica,sans-Serif" font-size="14.00">class = Animal</text>
</g>
<!-- 14231&#45;&gt;15923 -->
<g id="edge13" class="edge">
<title>14231&#45;&gt;15923</title>
<path fill="none" stroke="black" d="M593.3,-202.07C599.69,-193.45 606.42,-184.35 612.99,-175.49"/>
<polygon fill="black" stroke="black" points="615.71,-177.69 618.85,-167.57 610.09,-173.53 615.71,-177.69"/>
</g>
<!-- 14233 -->
<g id="node12" class="node">
<title>14233</title>
<path fill="#c0c0c0" stroke="black" d="M437,-36C437,-36 407,-36 407,-36 401,-36 395,-30 395,-24 395,-24 395,-12 395,-12 395,-6 401,0 407,0 407,0 437,0 437,0 443,0 449,-6 449,-12 449,-12 449,-24 449,-24 449,-30 443,-36 437,-36"/>
<text text-anchor="middle" x="422" y="-13.32" font-family="Helvetica,sans-Serif" font-size="14.00">(...)</text>
</g>
<!-- 14232&#45;&gt;14233 -->
<g id="edge11" class="edge">
<title>14232&#45;&gt;14233</title>
<path fill="none" stroke="black" d="M452.34,-71.75C447.26,-62.93 442.1,-53.96 437.52,-45.99"/>
<polygon fill="black" stroke="black" points="440.65,-44.41 432.63,-37.48 434.58,-47.9 440.65,-44.41"/>
</g>
<!-- 15524 -->
<g id="node13" class="node">
<title>15524</title>
<path fill="#c0c0c0" stroke="black" d="M509,-36C509,-36 479,-36 479,-36 473,-36 467,-30 467,-24 467,-24 467,-12 467,-12 467,-6 473,0 479,0 479,0 509,0 509,0 515,0 521,-6 521,-12 521,-12 521,-24 521,-24 521,-30 515,-36 509,-36"/>
<text text-anchor="middle" x="494" y="-13.32" font-family="Helvetica,sans-Serif" font-size="14.00">(...)</text>
</g>
<!-- 14232&#45;&gt;15524 -->
<g id="edge12" class="edge">
<title>14232&#45;&gt;15524</title>
<path fill="none" stroke="black" d="M486.02,-71.75C487.28,-63.42 488.56,-54.97 489.71,-47.34"/>
<polygon fill="black" stroke="black" points="493.14,-48.08 491.17,-37.67 486.22,-47.03 493.14,-48.08"/>
</g>
<!-- 15924 -->
<g id="node15" class="node">
<title>15924</title>
<path fill="#c0c0c0" stroke="black" d="M610,-36C610,-36 580,-36 580,-36 574,-36 568,-30 568,-24 568,-24 568,-12 568,-12 568,-6 574,0 580,0 580,0 610,0 610,0 616,0 622,-6 622,-12 622,-12 622,-24 622,-24 622,-30 616,-36 610,-36"/>
<text text-anchor="middle" x="595" y="-13.32" font-family="Helvetica,sans-Serif" font-size="14.00">(...)</text>
</g>
<!-- 15923&#45;&gt;15924 -->
<g id="edge14" class="edge">
<title>15923&#45;&gt;15924</title>
<path fill="none" stroke="black" d="M626.4,-71.75C621.15,-62.93 615.81,-53.96 611.06,-45.99"/>
<polygon fill="black" stroke="black" points="614.12,-44.28 606,-37.47 608.1,-47.86 614.12,-44.28"/>
</g>
<!-- 16001 -->
<g id="node16" class="node">
<title>16001</title>
<path fill="#c0c0c0" stroke="black" d="M682,-36C682,-36 652,-36 652,-36 646,-36 640,-30 640,-24 640,-24 640,-12 640,-12 640,-6 646,0 652,0 652,0 682,0 682,0 688,0 694,-6 694,-12 694,-12 694,-24 694,-24 694,-30 688,-36 682,-36"/>
<text text-anchor="middle" x="667" y="-13.32" font-family="Helvetica,sans-Serif" font-size="14.00">(...)</text>
</g>
<!-- 15923&#45;&gt;16001 -->
<g id="edge15" class="edge">
<title>15923&#45;&gt;16001</title>
<path fill="none" stroke="black" d="M660.08,-71.75C661.17,-63.42 662.28,-54.97 663.28,-47.34"/>
<polygon fill="black" stroke="black" points="666.72,-48.04 664.55,-37.67 659.78,-47.13 666.72,-48.04"/>
</g>
<!-- 16023 -->
<g id="node18" class="node">
<title>16023</title>
<path fill="#eb9d66" stroke="black" d="M969.5,-296.5C969.5,-296.5 836.5,-296.5 836.5,-296.5 830.5,-296.5 824.5,-290.5 824.5,-284.5 824.5,-284.5 824.5,-214.25 824.5,-214.25 824.5,-208.25 830.5,-202.25 836.5,-202.25 836.5,-202.25 969.5,-202.25 969.5,-202.25 975.5,-202.25 981.5,-208.25 981.5,-214.25 981.5,-214.25 981.5,-284.5 981.5,-284.5 981.5,-290.5 975.5,-296.5 969.5,-296.5"/>
<text text-anchor="middle" x="903" y="-279.2" font-family="Helvetica,sans-Serif" font-size="14.00">5_U &lt;= 0.5</text>
<text text-anchor="middle" x="903" y="-261.95" font-family="Helvetica,sans-Serif" font-size="14.00">entropy = 0.689</text>
<text text-anchor="middle" x="903" y="-244.7" font-family="Helvetica,sans-Serif" font-size="14.00">samples = 1428</text>
<text text-anchor="middle" x="903" y="-227.45" font-family="Helvetica,sans-Serif" font-size="14.00">value = [1889, 426]</text>
<text text-anchor="middle" x="903" y="-210.2" font-family="Helvetica,sans-Serif" font-size="14.00">class = Animal</text>
</g>
<!-- 16022&#45;&gt;16023 -->
<g id="edge17" class="edge">
<title>16022&#45;&gt;16023</title>
<path fill="none" stroke="black" d="M903,-332.32C903,-324.42 903,-316.13 903,-307.98"/>
<polygon fill="black" stroke="black" points="906.5,-308.12 903,-298.12 899.5,-308.12 906.5,-308.12"/>
</g>
<!-- 16580 -->
<g id="node25" class="node">
<title>16580</title>
<path fill="#e89253" stroke="black" d="M1205.5,-296.5C1205.5,-296.5 1090.5,-296.5 1090.5,-296.5 1084.5,-296.5 1078.5,-290.5 1078.5,-284.5 1078.5,-284.5 1078.5,-214.25 1078.5,-214.25 1078.5,-208.25 1084.5,-202.25 1090.5,-202.25 1090.5,-202.25 1205.5,-202.25 1205.5,-202.25 1211.5,-202.25 1217.5,-208.25 1217.5,-214.25 1217.5,-214.25 1217.5,-284.5 1217.5,-284.5 1217.5,-290.5 1211.5,-296.5 1205.5,-296.5"/>
<text text-anchor="middle" x="1148" y="-279.2" font-family="Helvetica,sans-Serif" font-size="14.00">22_U &lt;= 0.5</text>
<text text-anchor="middle" x="1148" y="-261.95" font-family="Helvetica,sans-Serif" font-size="14.00">entropy = 0.522</text>
<text text-anchor="middle" x="1148" y="-244.7" font-family="Helvetica,sans-Serif" font-size="14.00">samples = 528</text>
<text text-anchor="middle" x="1148" y="-227.45" font-family="Helvetica,sans-Serif" font-size="14.00">value = [743, 99]</text>
<text text-anchor="middle" x="1148" y="-210.2" font-family="Helvetica,sans-Serif" font-size="14.00">class = Animal</text>
</g>
<!-- 16022&#45;&gt;16580 -->
<g id="edge24" class="edge">
<title>16022&#45;&gt;16580</title>
<path fill="none" stroke="black" d="M981.87,-337.34C1009.53,-322.86 1040.6,-306.6 1068.32,-292.08"/>
<polygon fill="black" stroke="black" points="1069.79,-295.26 1077.03,-287.53 1066.55,-289.06 1069.79,-295.26"/>
</g>
<!-- 16024 -->
<g id="node19" class="node">
<title>16024</title>
<path fill="#eca16b" stroke="black" d="M891.5,-166.25C891.5,-166.25 758.5,-166.25 758.5,-166.25 752.5,-166.25 746.5,-160.25 746.5,-154.25 746.5,-154.25 746.5,-84 746.5,-84 746.5,-78 752.5,-72 758.5,-72 758.5,-72 891.5,-72 891.5,-72 897.5,-72 903.5,-78 903.5,-84 903.5,-84 903.5,-154.25 903.5,-154.25 903.5,-160.25 897.5,-166.25 891.5,-166.25"/>
<text text-anchor="middle" x="825" y="-148.95" font-family="Helvetica,sans-Serif" font-size="14.00">9_A &lt;= 0.5</text>
<text text-anchor="middle" x="825" y="-131.7" font-family="Helvetica,sans-Serif" font-size="14.00">entropy = 0.728</text>
<text text-anchor="middle" x="825" y="-114.45" font-family="Helvetica,sans-Serif" font-size="14.00">samples = 1044</text>
<text text-anchor="middle" x="825" y="-97.2" font-family="Helvetica,sans-Serif" font-size="14.00">value = [1341, 342]</text>
<text text-anchor="middle" x="825" y="-79.95" font-family="Helvetica,sans-Serif" font-size="14.00">class = Animal</text>
</g>
<!-- 16023&#45;&gt;16024 -->
<g id="edge18" class="edge">
<title>16023&#45;&gt;16024</title>
<path fill="none" stroke="black" d="M874.84,-202.07C869.7,-193.63 864.3,-184.74 859.01,-176.05"/>
<polygon fill="black" stroke="black" points="862.09,-174.38 853.9,-167.65 856.11,-178.01 862.09,-174.38"/>
</g>
<!-- 16447 -->
<g id="node22" class="node">
<title>16447</title>
<path fill="#e99457" stroke="black" d="M1048.5,-166.25C1048.5,-166.25 933.5,-166.25 933.5,-166.25 927.5,-166.25 921.5,-160.25 921.5,-154.25 921.5,-154.25 921.5,-84 921.5,-84 921.5,-78 927.5,-72 933.5,-72 933.5,-72 1048.5,-72 1048.5,-72 1054.5,-72 1060.5,-78 1060.5,-84 1060.5,-84 1060.5,-154.25 1060.5,-154.25 1060.5,-160.25 1054.5,-166.25 1048.5,-166.25"/>
<text text-anchor="middle" x="991" y="-148.95" font-family="Helvetica,sans-Serif" font-size="14.00">25_C &lt;= 0.5</text>
<text text-anchor="middle" x="991" y="-131.7" font-family="Helvetica,sans-Serif" font-size="14.00">entropy = 0.565</text>
<text text-anchor="middle" x="991" y="-114.45" font-family="Helvetica,sans-Serif" font-size="14.00">samples = 384</text>
<text text-anchor="middle" x="991" y="-97.2" font-family="Helvetica,sans-Serif" font-size="14.00">value = [548, 84]</text>
<text text-anchor="middle" x="991" y="-79.95" font-family="Helvetica,sans-Serif" font-size="14.00">class = Animal</text>
</g>
<!-- 16023&#45;&gt;16447 -->
<g id="edge21" class="edge">
<title>16023&#45;&gt;16447</title>
<path fill="none" stroke="black" d="M934.77,-202.07C940.63,-193.54 946.8,-184.54 952.82,-175.77"/>
<polygon fill="black" stroke="black" points="955.65,-177.83 958.42,-167.61 949.88,-173.87 955.65,-177.83"/>
</g>
<!-- 16025 -->
<g id="node20" class="node">
<title>16025</title>
<path fill="#c0c0c0" stroke="black" d="M779,-36C779,-36 749,-36 749,-36 743,-36 737,-30 737,-24 737,-24 737,-12 737,-12 737,-6 743,0 749,0 749,0 779,0 779,0 785,0 791,-6 791,-12 791,-12 791,-24 791,-24 791,-30 785,-36 779,-36"/>
<text text-anchor="middle" x="764" y="-13.32" font-family="Helvetica,sans-Serif" font-size="14.00">(...)</text>
</g>
<!-- 16024&#45;&gt;16025 -->
<g id="edge19" class="edge">
<title>16024&#45;&gt;16025</title>
<path fill="none" stroke="black" d="M796.46,-71.75C790.97,-62.83 785.39,-53.76 780.44,-45.72"/>
<polygon fill="black" stroke="black" points="783.58,-44.14 775.36,-37.46 777.62,-47.81 783.58,-44.14"/>
</g>
<!-- 16342 -->
<g id="node21" class="node">
<title>16342</title>
<path fill="#c0c0c0" stroke="black" d="M851,-36C851,-36 821,-36 821,-36 815,-36 809,-30 809,-24 809,-24 809,-12 809,-12 809,-6 815,0 821,0 821,0 851,0 851,0 857,0 863,-6 863,-12 863,-12 863,-24 863,-24 863,-30 857,-36 851,-36"/>
<text text-anchor="middle" x="836" y="-13.32" font-family="Helvetica,sans-Serif" font-size="14.00">(...)</text>
</g>
<!-- 16024&#45;&gt;16342 -->
<g id="edge20" class="edge">
<title>16024&#45;&gt;16342</title>
<path fill="none" stroke="black" d="M830.15,-71.75C831.06,-63.52 831.99,-55.17 832.82,-47.61"/>
<polygon fill="black" stroke="black" points="836.3,-48 833.93,-37.68 829.35,-47.23 836.3,-48"/>
</g>
<!-- 16448 -->
<g id="node23" class="node">
<title>16448</title>
<path fill="#c0c0c0" stroke="black" d="M940,-36C940,-36 910,-36 910,-36 904,-36 898,-30 898,-24 898,-24 898,-12 898,-12 898,-6 904,0 910,0 910,0 940,0 940,0 946,0 952,-6 952,-12 952,-12 952,-24 952,-24 952,-30 946,-36 940,-36"/>
<text text-anchor="middle" x="925" y="-13.32" font-family="Helvetica,sans-Serif" font-size="14.00">(...)</text>
</g>
<!-- 16447&#45;&gt;16448 -->
<g id="edge22" class="edge">
<title>16447&#45;&gt;16448</title>
<path fill="none" stroke="black" d="M960.13,-71.75C954.18,-62.83 948.14,-53.76 942.79,-45.72"/>
<polygon fill="black" stroke="black" points="945.73,-43.82 937.27,-37.43 939.9,-47.7 945.73,-43.82"/>
</g>
<!-- 16571 -->
<g id="node24" class="node">
<title>16571</title>
<path fill="#c0c0c0" stroke="black" d="M1012,-36C1012,-36 982,-36 982,-36 976,-36 970,-30 970,-24 970,-24 970,-12 970,-12 970,-6 976,0 982,0 982,0 1012,0 1012,0 1018,0 1024,-6 1024,-12 1024,-12 1024,-24 1024,-24 1024,-30 1018,-36 1012,-36"/>
<text text-anchor="middle" x="997" y="-13.32" font-family="Helvetica,sans-Serif" font-size="14.00">(...)</text>
</g>
<!-- 16447&#45;&gt;16571 -->
<g id="edge23" class="edge">
<title>16447&#45;&gt;16571</title>
<path fill="none" stroke="black" d="M993.81,-71.75C994.31,-63.52 994.81,-55.17 995.27,-47.61"/>
<polygon fill="black" stroke="black" points="998.76,-47.88 995.87,-37.68 991.77,-47.45 998.76,-47.88"/>
</g>
<!-- 16581 -->
<g id="node26" class="node">
<title>16581</title>
<path fill="#ea995e" stroke="black" d="M1205.5,-166.25C1205.5,-166.25 1090.5,-166.25 1090.5,-166.25 1084.5,-166.25 1078.5,-160.25 1078.5,-154.25 1078.5,-154.25 1078.5,-84 1078.5,-84 1078.5,-78 1084.5,-72 1090.5,-72 1090.5,-72 1205.5,-72 1205.5,-72 1211.5,-72 1217.5,-78 1217.5,-84 1217.5,-84 1217.5,-154.25 1217.5,-154.25 1217.5,-160.25 1211.5,-166.25 1205.5,-166.25"/>
<text text-anchor="middle" x="1148" y="-148.95" font-family="Helvetica,sans-Serif" font-size="14.00">22_C &lt;= 0.5</text>
<text text-anchor="middle" x="1148" y="-131.7" font-family="Helvetica,sans-Serif" font-size="14.00">entropy = 0.631</text>
<text text-anchor="middle" x="1148" y="-114.45" font-family="Helvetica,sans-Serif" font-size="14.00">samples = 365</text>
<text text-anchor="middle" x="1148" y="-97.2" font-family="Helvetica,sans-Serif" font-size="14.00">value = [498, 94]</text>
<text text-anchor="middle" x="1148" y="-79.95" font-family="Helvetica,sans-Serif" font-size="14.00">class = Animal</text>
</g>
<!-- 16580&#45;&gt;16581 -->
<g id="edge25" class="edge">
<title>16580&#45;&gt;16581</title>
<path fill="none" stroke="black" d="M1148,-202.07C1148,-194.17 1148,-185.88 1148,-177.73"/>
<polygon fill="black" stroke="black" points="1151.5,-177.87 1148,-167.87 1144.5,-177.87 1151.5,-177.87"/>
</g>
<!-- 16754 -->
<g id="node29" class="node">
<title>16754</title>
<path fill="#e6843d" stroke="black" d="M1354.38,-166.25C1354.38,-166.25 1247.62,-166.25 1247.62,-166.25 1241.62,-166.25 1235.62,-160.25 1235.62,-154.25 1235.62,-154.25 1235.62,-84 1235.62,-84 1235.62,-78 1241.62,-72 1247.62,-72 1247.62,-72 1354.38,-72 1354.38,-72 1360.38,-72 1366.38,-78 1366.38,-84 1366.38,-84 1366.38,-154.25 1366.38,-154.25 1366.38,-160.25 1360.38,-166.25 1354.38,-166.25"/>
<text text-anchor="middle" x="1301" y="-148.95" font-family="Helvetica,sans-Serif" font-size="14.00">6_G &lt;= 0.5</text>
<text text-anchor="middle" x="1301" y="-131.7" font-family="Helvetica,sans-Serif" font-size="14.00">entropy = 0.141</text>
<text text-anchor="middle" x="1301" y="-114.45" font-family="Helvetica,sans-Serif" font-size="14.00">samples = 163</text>
<text text-anchor="middle" x="1301" y="-97.2" font-family="Helvetica,sans-Serif" font-size="14.00">value = [245, 5]</text>
<text text-anchor="middle" x="1301" y="-79.95" font-family="Helvetica,sans-Serif" font-size="14.00">class = Animal</text>
</g>
<!-- 16580&#45;&gt;16754 -->
<g id="edge28" class="edge">
<title>16580&#45;&gt;16754</title>
<path fill="none" stroke="black" d="M1203.24,-202.07C1214.22,-192.87 1225.83,-183.13 1237.08,-173.71"/>
<polygon fill="black" stroke="black" points="1239.01,-176.65 1244.43,-167.55 1234.52,-171.29 1239.01,-176.65"/>
</g>
<!-- 16582 -->
<g id="node27" class="node">
<title>16582</title>
<path fill="#c0c0c0" stroke="black" d="M1113,-36C1113,-36 1083,-36 1083,-36 1077,-36 1071,-30 1071,-24 1071,-24 1071,-12 1071,-12 1071,-6 1077,0 1083,0 1083,0 1113,0 1113,0 1119,0 1125,-6 1125,-12 1125,-12 1125,-24 1125,-24 1125,-30 1119,-36 1113,-36"/>
<text text-anchor="middle" x="1098" y="-13.32" font-family="Helvetica,sans-Serif" font-size="14.00">(...)</text>
</g>
<!-- 16581&#45;&gt;16582 -->
<g id="edge26" class="edge">
<title>16581&#45;&gt;16582</title>
<path fill="none" stroke="black" d="M1124.61,-71.75C1120.21,-63.03 1115.74,-54.16 1111.75,-46.26"/>
<polygon fill="black" stroke="black" points="1114.97,-44.88 1107.34,-37.52 1108.72,-48.03 1114.97,-44.88"/>
</g>
<!-- 16699 -->
<g id="node28" class="node">
<title>16699</title>
<path fill="#c0c0c0" stroke="black" d="M1185,-36C1185,-36 1155,-36 1155,-36 1149,-36 1143,-30 1143,-24 1143,-24 1143,-12 1143,-12 1143,-6 1149,0 1155,0 1155,0 1185,0 1185,0 1191,0 1197,-6 1197,-12 1197,-12 1197,-24 1197,-24 1197,-30 1191,-36 1185,-36"/>
<text text-anchor="middle" x="1170" y="-13.32" font-family="Helvetica,sans-Serif" font-size="14.00">(...)</text>
</g>
<!-- 16581&#45;&gt;16699 -->
<g id="edge27" class="edge">
<title>16581&#45;&gt;16699</title>
<path fill="none" stroke="black" d="M1158.29,-71.75C1160.14,-63.42 1162.02,-54.97 1163.71,-47.34"/>
<polygon fill="black" stroke="black" points="1167.11,-48.17 1165.86,-37.65 1160.28,-46.65 1167.11,-48.17"/>
</g>
<!-- 16755 -->
<g id="node30" class="node">
<title>16755</title>
<path fill="#c0c0c0" stroke="black" d="M1280,-36C1280,-36 1250,-36 1250,-36 1244,-36 1238,-30 1238,-24 1238,-24 1238,-12 1238,-12 1238,-6 1244,0 1250,0 1250,0 1280,0 1280,0 1286,0 1292,-6 1292,-12 1292,-12 1292,-24 1292,-24 1292,-30 1286,-36 1280,-36"/>
<text text-anchor="middle" x="1265" y="-13.32" font-family="Helvetica,sans-Serif" font-size="14.00">(...)</text>
</g>
<!-- 16754&#45;&gt;16755 -->
<g id="edge29" class="edge">
<title>16754&#45;&gt;16755</title>
<path fill="none" stroke="black" d="M1284.16,-71.75C1281.06,-63.22 1277.92,-54.57 1275.1,-46.8"/>
<polygon fill="black" stroke="black" points="1278.46,-45.8 1271.75,-37.6 1271.88,-48.19 1278.46,-45.8"/>
</g>
<!-- 16766 -->
<g id="node31" class="node">
<title>16766</title>
<path fill="#c0c0c0" stroke="black" d="M1352,-36C1352,-36 1322,-36 1322,-36 1316,-36 1310,-30 1310,-24 1310,-24 1310,-12 1310,-12 1310,-6 1316,0 1322,0 1322,0 1352,0 1352,0 1358,0 1364,-6 1364,-12 1364,-12 1364,-24 1364,-24 1364,-30 1358,-36 1352,-36"/>
<text text-anchor="middle" x="1337" y="-13.32" font-family="Helvetica,sans-Serif" font-size="14.00">(...)</text>
</g>
<!-- 16754&#45;&gt;16766 -->
<g id="edge30" class="edge">
<title>16754&#45;&gt;16766</title>
<path fill="none" stroke="black" d="M1317.84,-71.75C1320.94,-63.22 1324.08,-54.57 1326.9,-46.8"/>
<polygon fill="black" stroke="black" points="1330.12,-48.19 1330.25,-37.6 1323.54,-45.8 1330.12,-48.19"/>
</g>
</g>
</svg>
