<?xml version="1.0" encoding="UTF-8" standalone="no"?>
<!DOCTYPE svg PUBLIC "-//W3C//DTD SVG 1.1//EN"
 "http://www.w3.org/Graphics/SVG/1.1/DTD/svg11.dtd">
<!-- Generated by graphviz version 12.0.0 (20240803.0821)
 -->
<!-- Title: Tree Pages: 1 -->
<svg width="1410pt" height="565pt"
 viewBox="0.00 0.00 1409.50 565.00" xmlns="http://www.w3.org/2000/svg" xmlns:xlink="http://www.w3.org/1999/xlink">
<g id="graph0" class="graph" transform="scale(1 1) rotate(0) translate(4 561)">
<title>Tree</title>
<polygon fill="white" stroke="none" points="-4,4 -4,-561 1405.5,-561 1405.5,4 -4,4"/>
<!-- 0 -->
<g id="node1" class="node">
<title>0</title>
<path fill="#fffefd" stroke="black" d="M791,-557C791,-557 631,-557 631,-557 625,-557 619,-551 619,-545 619,-545 619,-474.75 619,-474.75 619,-468.75 625,-462.75 631,-462.75 631,-462.75 791,-462.75 791,-462.75 797,-462.75 803,-468.75 803,-474.75 803,-474.75 803,-545 803,-545 803,-551 797,-557 791,-557"/>
<text text-anchor="middle" x="711" y="-539.7" font-family="Helvetica,sans-Serif" font-size="14.00">9_U &lt;= 0.5</text>
<text text-anchor="middle" x="711" y="-522.45" font-family="Helvetica,sans-Serif" font-size="14.00">entropy = 1.0</text>
<text text-anchor="middle" x="711" y="-505.2" font-family="Helvetica,sans-Serif" font-size="14.00">samples = 38294</text>
<text text-anchor="middle" x="711" y="-487.95" font-family="Helvetica,sans-Serif" font-size="14.00">value = [30293, 30052]</text>
<text text-anchor="middle" x="711" y="-470.7" font-family="Helvetica,sans-Serif" font-size="14.00">class = Animal</text>
</g>
<!-- 1 -->
<g id="node2" class="node">
<title>1</title>
<path fill="#deeffb" stroke="black" d="M625,-426.75C625,-426.75 465,-426.75 465,-426.75 459,-426.75 453,-420.75 453,-414.75 453,-414.75 453,-344.5 453,-344.5 453,-338.5 459,-332.5 465,-332.5 465,-332.5 625,-332.5 625,-332.5 631,-332.5 637,-338.5 637,-344.5 637,-344.5 637,-414.75 637,-414.75 637,-420.75 631,-426.75 625,-426.75"/>
<text text-anchor="middle" x="545" y="-409.45" font-family="Helvetica,sans-Serif" font-size="14.00">22_C &lt;= 0.5</text>
<text text-anchor="middle" x="545" y="-392.2" font-family="Helvetica,sans-Serif" font-size="14.00">entropy = 0.994</text>
<text text-anchor="middle" x="545" y="-374.95" font-family="Helvetica,sans-Serif" font-size="14.00">samples = 27441</text>
<text text-anchor="middle" x="545" y="-357.7" font-family="Helvetica,sans-Serif" font-size="14.00">value = [19634, 23608]</text>
<text text-anchor="middle" x="545" y="-340.45" font-family="Helvetica,sans-Serif" font-size="14.00">class = Plant</text>
</g>
<!-- 0&#45;&gt;1 -->
<g id="edge1" class="edge">
<title>0&#45;&gt;1</title>
<path fill="none" stroke="black" d="M651.07,-462.57C639.04,-453.28 626.3,-443.44 613.99,-433.93"/>
<polygon fill="black" stroke="black" points="616.37,-431.34 606.32,-428 612.09,-436.88 616.37,-431.34"/>
<text text-anchor="middle" x="608.3" y="-447.2" font-family="Helvetica,sans-Serif" font-size="14.00">True</text>
</g>
<!-- 12022 -->
<g id="node17" class="node">
<title>12022</title>
<path fill="#f5cdb1" stroke="black" d="M973.5,-426.75C973.5,-426.75 822.5,-426.75 822.5,-426.75 816.5,-426.75 810.5,-420.75 810.5,-414.75 810.5,-414.75 810.5,-344.5 810.5,-344.5 810.5,-338.5 816.5,-332.5 822.5,-332.5 822.5,-332.5 973.5,-332.5 973.5,-332.5 979.5,-332.5 985.5,-338.5 985.5,-344.5 985.5,-344.5 985.5,-414.75 985.5,-414.75 985.5,-420.75 979.5,-426.75 973.5,-426.75"/>
<text text-anchor="middle" x="898" y="-409.45" font-family="Helvetica,sans-Serif" font-size="14.00">22_U &lt;= 0.5</text>
<text text-anchor="middle" x="898" y="-392.2" font-family="Helvetica,sans-Serif" font-size="14.00">entropy = 0.956</text>
<text text-anchor="middle" x="898" y="-374.95" font-family="Helvetica,sans-Serif" font-size="14.00">samples = 10853</text>
<text text-anchor="middle" x="898" y="-357.7" font-family="Helvetica,sans-Serif" font-size="14.00">value = [10659, 6444]</text>
<text text-anchor="middle" x="898" y="-340.45" font-family="Helvetica,sans-Serif" font-size="14.00">class = Animal</text>
</g>
<!-- 0&#45;&gt;12022 -->
<g id="edge16" class="edge">
<title>0&#45;&gt;12022</title>
<path fill="none" stroke="black" d="M778.78,-462.39C792.49,-452.98 807.01,-443.03 821.02,-433.42"/>
<polygon fill="black" stroke="black" points="822.63,-436.56 828.89,-428.02 818.67,-430.79 822.63,-436.56"/>
<text text-anchor="middle" x="825.56" y="-447.07" font-family="Helvetica,sans-Serif" font-size="14.00">False</text>
</g>
<!-- 2 -->
<g id="node3" class="node">
<title>2</title>
<path fill="#cee7f9" stroke="black" d="M365,-296.5C365,-296.5 205,-296.5 205,-296.5 199,-296.5 193,-290.5 193,-284.5 193,-284.5 193,-214.25 193,-214.25 193,-208.25 199,-202.25 205,-202.25 205,-202.25 365,-202.25 365,-202.25 371,-202.25 377,-208.25 377,-214.25 377,-214.25 377,-284.5 377,-284.5 377,-290.5 371,-296.5 365,-296.5"/>
<text text-anchor="middle" x="285" y="-279.2" font-family="Helvetica,sans-Serif" font-size="14.00">18_C &lt;= 0.5</text>
<text text-anchor="middle" x="285" y="-261.95" font-family="Helvetica,sans-Serif" font-size="14.00">entropy = 0.986</text>
<text text-anchor="middle" x="285" y="-244.7" font-family="Helvetica,sans-Serif" font-size="14.00">samples = 24879</text>
<text text-anchor="middle" x="285" y="-227.45" font-family="Helvetica,sans-Serif" font-size="14.00">value = [16871, 22346]</text>
<text text-anchor="middle" x="285" y="-210.2" font-family="Helvetica,sans-Serif" font-size="14.00">class = Plant</text>
</g>
<!-- 1&#45;&gt;2 -->
<g id="edge2" class="edge">
<title>1&#45;&gt;2</title>
<path fill="none" stroke="black" d="M452.6,-333.05C431.43,-322.61 408.81,-311.45 387.25,-300.81"/>
<polygon fill="black" stroke="black" points="388.97,-297.76 378.46,-296.48 385.88,-304.04 388.97,-297.76"/>
</g>
<!-- 10705 -->
<g id="node10" class="node">
<title>10705</title>
<path fill="#f1bb93" stroke="black" d="M616,-296.5C616,-296.5 474,-296.5 474,-296.5 468,-296.5 462,-290.5 462,-284.5 462,-284.5 462,-214.25 462,-214.25 462,-208.25 468,-202.25 474,-202.25 474,-202.25 616,-202.25 616,-202.25 622,-202.25 628,-208.25 628,-214.25 628,-214.25 628,-284.5 628,-284.5 628,-290.5 622,-296.5 616,-296.5"/>
<text text-anchor="middle" x="545" y="-279.2" font-family="Helvetica,sans-Serif" font-size="14.00">14_G &lt;= 0.5</text>
<text text-anchor="middle" x="545" y="-261.95" font-family="Helvetica,sans-Serif" font-size="14.00">entropy = 0.897</text>
<text text-anchor="middle" x="545" y="-244.7" font-family="Helvetica,sans-Serif" font-size="14.00">samples = 2562</text>
<text text-anchor="middle" x="545" y="-227.45" font-family="Helvetica,sans-Serif" font-size="14.00">value = [2763, 1262]</text>
<text text-anchor="middle" x="545" y="-210.2" font-family="Helvetica,sans-Serif" font-size="14.00">class = Animal</text>
</g>
<!-- 1&#45;&gt;10705 -->
<g id="edge9" class="edge">
<title>1&#45;&gt;10705</title>
<path fill="none" stroke="black" d="M545,-332.32C545,-324.42 545,-316.13 545,-307.98"/>
<polygon fill="black" stroke="black" points="548.5,-308.12 545,-298.12 541.5,-308.12 548.5,-308.12"/>
</g>
<!-- 3 -->
<g id="node4" class="node">
<title>3</title>
<path fill="#ecf5fc" stroke="black" d="M172,-166.25C172,-166.25 12,-166.25 12,-166.25 6,-166.25 0,-160.25 0,-154.25 0,-154.25 0,-84 0,-84 0,-78 6,-72 12,-72 12,-72 172,-72 172,-72 178,-72 184,-78 184,-84 184,-84 184,-154.25 184,-154.25 184,-160.25 178,-166.25 172,-166.25"/>
<text text-anchor="middle" x="92" y="-148.95" font-family="Helvetica,sans-Serif" font-size="14.00">22_U &lt;= 0.5</text>
<text text-anchor="middle" x="92" y="-131.7" font-family="Helvetica,sans-Serif" font-size="14.00">entropy = 0.998</text>
<text text-anchor="middle" x="92" y="-114.45" font-family="Helvetica,sans-Serif" font-size="14.00">samples = 17476</text>
<text text-anchor="middle" x="92" y="-97.2" font-family="Helvetica,sans-Serif" font-size="14.00">value = [13066, 14471]</text>
<text text-anchor="middle" x="92" y="-79.95" font-family="Helvetica,sans-Serif" font-size="14.00">class = Plant</text>
</g>
<!-- 2&#45;&gt;3 -->
<g id="edge3" class="edge">
<title>2&#45;&gt;3</title>
<path fill="none" stroke="black" d="M215.05,-201.89C200.89,-192.48 185.9,-182.53 171.45,-172.92"/>
<polygon fill="black" stroke="black" points="173.56,-170.12 163.3,-167.5 169.69,-175.95 173.56,-170.12"/>
</g>
<!-- 8180 -->
<g id="node7" class="node">
<title>8180</title>
<path fill="#99ccf2" stroke="black" d="M356,-166.25C356,-166.25 214,-166.25 214,-166.25 208,-166.25 202,-160.25 202,-154.25 202,-154.25 202,-84 202,-84 202,-78 208,-72 214,-72 214,-72 356,-72 356,-72 362,-72 368,-78 368,-84 368,-84 368,-154.25 368,-154.25 368,-160.25 362,-166.25 356,-166.25"/>
<text text-anchor="middle" x="285" y="-148.95" font-family="Helvetica,sans-Serif" font-size="14.00">3_G &lt;= 0.5</text>
<text text-anchor="middle" x="285" y="-131.7" font-family="Helvetica,sans-Serif" font-size="14.00">entropy = 0.911</text>
<text text-anchor="middle" x="285" y="-114.45" font-family="Helvetica,sans-Serif" font-size="14.00">samples = 7403</text>
<text text-anchor="middle" x="285" y="-97.2" font-family="Helvetica,sans-Serif" font-size="14.00">value = [3805, 7875]</text>
<text text-anchor="middle" x="285" y="-79.95" font-family="Helvetica,sans-Serif" font-size="14.00">class = Plant</text>
</g>
<!-- 2&#45;&gt;8180 -->
<g id="edge6" class="edge">
<title>2&#45;&gt;8180</title>
<path fill="none" stroke="black" d="M285,-202.07C285,-194.17 285,-185.88 285,-177.73"/>
<polygon fill="black" stroke="black" points="288.5,-177.87 285,-167.87 281.5,-177.87 288.5,-177.87"/>
</g>
<!-- 4 -->
<g id="node5" class="node">
<title>4</title>
<path fill="#c0c0c0" stroke="black" d="M71,-36C71,-36 41,-36 41,-36 35,-36 29,-30 29,-24 29,-24 29,-12 29,-12 29,-6 35,0 41,0 41,0 71,0 71,0 77,0 83,-6 83,-12 83,-12 83,-24 83,-24 83,-30 77,-36 71,-36"/>
<text text-anchor="middle" x="56" y="-13.32" font-family="Helvetica,sans-Serif" font-size="14.00">(...)</text>
</g>
<!-- 3&#45;&gt;4 -->
<g id="edge4" class="edge">
<title>3&#45;&gt;4</title>
<path fill="none" stroke="black" d="M75.16,-71.75C72.06,-63.22 68.92,-54.57 66.1,-46.8"/>
<polygon fill="black" stroke="black" points="69.46,-45.8 62.75,-37.6 62.88,-48.19 69.46,-45.8"/>
</g>
<!-- 7123 -->
<g id="node6" class="node">
<title>7123</title>
<path fill="#c0c0c0" stroke="black" d="M143,-36C143,-36 113,-36 113,-36 107,-36 101,-30 101,-24 101,-24 101,-12 101,-12 101,-6 107,0 113,0 113,0 143,0 143,0 149,0 155,-6 155,-12 155,-12 155,-24 155,-24 155,-30 149,-36 143,-36"/>
<text text-anchor="middle" x="128" y="-13.32" font-family="Helvetica,sans-Serif" font-size="14.00">(...)</text>
</g>
<!-- 3&#45;&gt;7123 -->
<g id="edge5" class="edge">
<title>3&#45;&gt;7123</title>
<path fill="none" stroke="black" d="M108.84,-71.75C111.94,-63.22 115.08,-54.57 117.9,-46.8"/>
<polygon fill="black" stroke="black" points="121.12,-48.19 121.25,-37.6 114.54,-45.8 121.12,-48.19"/>
</g>
<!-- 8181 -->
<g id="node8" class="node">
<title>8181</title>
<path fill="#c0c0c0" stroke="black" d="M259,-36C259,-36 229,-36 229,-36 223,-36 217,-30 217,-24 217,-24 217,-12 217,-12 217,-6 223,0 229,0 229,0 259,0 259,0 265,0 271,-6 271,-12 271,-12 271,-24 271,-24 271,-30 265,-36 259,-36"/>
<text text-anchor="middle" x="244" y="-13.32" font-family="Helvetica,sans-Serif" font-size="14.00">(...)</text>
</g>
<!-- 8180&#45;&gt;8181 -->
<g id="edge7" class="edge">
<title>8180&#45;&gt;8181</title>
<path fill="none" stroke="black" d="M265.82,-71.75C262.29,-63.22 258.71,-54.57 255.5,-46.8"/>
<polygon fill="black" stroke="black" points="258.74,-45.47 251.68,-37.57 252.27,-48.15 258.74,-45.47"/>
</g>
<!-- 9928 -->
<g id="node9" class="node">
<title>9928</title>
<path fill="#c0c0c0" stroke="black" d="M331,-36C331,-36 301,-36 301,-36 295,-36 289,-30 289,-24 289,-24 289,-12 289,-12 289,-6 295,0 301,0 301,0 331,0 331,0 337,0 343,-6 343,-12 343,-12 343,-24 343,-24 343,-30 337,-36 331,-36"/>
<text text-anchor="middle" x="316" y="-13.32" font-family="Helvetica,sans-Serif" font-size="14.00">(...)</text>
</g>
<!-- 8180&#45;&gt;9928 -->
<g id="edge8" class="edge">
<title>8180&#45;&gt;9928</title>
<path fill="none" stroke="black" d="M299.5,-71.75C302.14,-63.32 304.81,-54.77 307.22,-47.07"/>
<polygon fill="black" stroke="black" points="310.53,-48.21 310.18,-37.62 303.85,-46.12 310.53,-48.21"/>
</g>
<!-- 10706 -->
<g id="node11" class="node">
<title>10706</title>
<path fill="#f3c3a0" stroke="black" d="M531.5,-166.25C531.5,-166.25 398.5,-166.25 398.5,-166.25 392.5,-166.25 386.5,-160.25 386.5,-154.25 386.5,-154.25 386.5,-84 386.5,-84 386.5,-78 392.5,-72 398.5,-72 398.5,-72 531.5,-72 531.5,-72 537.5,-72 543.5,-78 543.5,-84 543.5,-84 543.5,-154.25 543.5,-154.25 543.5,-160.25 537.5,-166.25 531.5,-166.25"/>
<text text-anchor="middle" x="465" y="-148.95" font-family="Helvetica,sans-Serif" font-size="14.00">1_U &lt;= 0.5</text>
<text text-anchor="middle" x="465" y="-131.7" font-family="Helvetica,sans-Serif" font-size="14.00">entropy = 0.927</text>
<text text-anchor="middle" x="465" y="-114.45" font-family="Helvetica,sans-Serif" font-size="14.00">samples = 1838</text>
<text text-anchor="middle" x="465" y="-97.2" font-family="Helvetica,sans-Serif" font-size="14.00">value = [1891, 984]</text>
<text text-anchor="middle" x="465" y="-79.95" font-family="Helvetica,sans-Serif" font-size="14.00">class = Animal</text>
</g>
<!-- 10705&#45;&gt;10706 -->
<g id="edge10" class="edge">
<title>10705&#45;&gt;10706</title>
<path fill="none" stroke="black" d="M516.12,-202.07C510.85,-193.63 505.3,-184.74 499.88,-176.05"/>
<polygon fill="black" stroke="black" points="502.9,-174.27 494.64,-167.64 496.96,-177.98 502.9,-174.27"/>
</g>
<!-- 11647 -->
<g id="node14" class="node">
<title>11647</title>
<path fill="#eda978" stroke="black" d="M698,-166.25C698,-166.25 574,-166.25 574,-166.25 568,-166.25 562,-160.25 562,-154.25 562,-154.25 562,-84 562,-84 562,-78 568,-72 574,-72 574,-72 698,-72 698,-72 704,-72 710,-78 710,-84 710,-84 710,-154.25 710,-154.25 710,-160.25 704,-166.25 698,-166.25"/>
<text text-anchor="middle" x="636" y="-148.95" font-family="Helvetica,sans-Serif" font-size="14.00">2_U &lt;= 0.5</text>
<text text-anchor="middle" x="636" y="-131.7" font-family="Helvetica,sans-Serif" font-size="14.00">entropy = 0.798</text>
<text text-anchor="middle" x="636" y="-114.45" font-family="Helvetica,sans-Serif" font-size="14.00">samples = 724</text>
<text text-anchor="middle" x="636" y="-97.2" font-family="Helvetica,sans-Serif" font-size="14.00">value = [872, 278]</text>
<text text-anchor="middle" x="636" y="-79.95" font-family="Helvetica,sans-Serif" font-size="14.00">class = Animal</text>
</g>
<!-- 10705&#45;&gt;11647 -->
<g id="edge13" class="edge">
<title>10705&#45;&gt;11647</title>
<path fill="none" stroke="black" d="M577.85,-202.07C583.97,-193.45 590.43,-184.35 596.72,-175.49"/>
<polygon fill="black" stroke="black" points="599.39,-177.77 602.32,-167.59 593.68,-173.72 599.39,-177.77"/>
</g>
<!-- 10707 -->
<g id="node12" class="node">
<title>10707</title>
<path fill="#c0c0c0" stroke="black" d="M421,-36C421,-36 391,-36 391,-36 385,-36 379,-30 379,-24 379,-24 379,-12 379,-12 379,-6 385,0 391,0 391,0 421,0 421,0 427,0 433,-6 433,-12 433,-12 433,-24 433,-24 433,-30 427,-36 421,-36"/>
<text text-anchor="middle" x="406" y="-13.32" font-family="Helvetica,sans-Serif" font-size="14.00">(...)</text>
</g>
<!-- 10706&#45;&gt;10707 -->
<g id="edge11" class="edge">
<title>10706&#45;&gt;10707</title>
<path fill="none" stroke="black" d="M437.4,-71.75C432.15,-62.93 426.81,-53.96 422.06,-45.99"/>
<polygon fill="black" stroke="black" points="425.12,-44.28 417,-37.47 419.1,-47.86 425.12,-44.28"/>
</g>
<!-- 11186 -->
<g id="node13" class="node">
<title>11186</title>
<path fill="#c0c0c0" stroke="black" d="M493,-36C493,-36 463,-36 463,-36 457,-36 451,-30 451,-24 451,-24 451,-12 451,-12 451,-6 457,0 463,0 463,0 493,0 493,0 499,0 505,-6 505,-12 505,-12 505,-24 505,-24 505,-30 499,-36 493,-36"/>
<text text-anchor="middle" x="478" y="-13.32" font-family="Helvetica,sans-Serif" font-size="14.00">(...)</text>
</g>
<!-- 10706&#45;&gt;11186 -->
<g id="edge12" class="edge">
<title>10706&#45;&gt;11186</title>
<path fill="none" stroke="black" d="M471.08,-71.75C472.17,-63.42 473.28,-54.97 474.28,-47.34"/>
<polygon fill="black" stroke="black" points="477.72,-48.04 475.55,-37.67 470.78,-47.13 477.72,-48.04"/>
</g>
<!-- 11648 -->
<g id="node15" class="node">
<title>11648</title>
<path fill="#c0c0c0" stroke="black" d="M594,-36C594,-36 564,-36 564,-36 558,-36 552,-30 552,-24 552,-24 552,-12 552,-12 552,-6 558,0 564,0 564,0 594,0 594,0 600,0 606,-6 606,-12 606,-12 606,-24 606,-24 606,-30 600,-36 594,-36"/>
<text text-anchor="middle" x="579" y="-13.32" font-family="Helvetica,sans-Serif" font-size="14.00">(...)</text>
</g>
<!-- 11647&#45;&gt;11648 -->
<g id="edge14" class="edge">
<title>11647&#45;&gt;11648</title>
<path fill="none" stroke="black" d="M609.34,-71.75C604.26,-62.93 599.1,-53.96 594.52,-45.99"/>
<polygon fill="black" stroke="black" points="597.65,-44.41 589.63,-37.48 591.58,-47.9 597.65,-44.41"/>
</g>
<!-- 11919 -->
<g id="node16" class="node">
<title>11919</title>
<path fill="#c0c0c0" stroke="black" d="M666,-36C666,-36 636,-36 636,-36 630,-36 624,-30 624,-24 624,-24 624,-12 624,-12 624,-6 630,0 636,0 636,0 666,0 666,0 672,0 678,-6 678,-12 678,-12 678,-24 678,-24 678,-30 672,-36 666,-36"/>
<text text-anchor="middle" x="651" y="-13.32" font-family="Helvetica,sans-Serif" font-size="14.00">(...)</text>
</g>
<!-- 11647&#45;&gt;11919 -->
<g id="edge15" class="edge">
<title>11647&#45;&gt;11919</title>
<path fill="none" stroke="black" d="M643.02,-71.75C644.28,-63.42 645.56,-54.97 646.71,-47.34"/>
<polygon fill="black" stroke="black" points="650.14,-48.08 648.17,-37.67 643.22,-47.03 650.14,-48.08"/>
</g>
<!-- 12023 -->
<g id="node18" class="node">
<title>12023</title>
<path fill="#f9e0ce" stroke="black" d="M969,-296.5C969,-296.5 827,-296.5 827,-296.5 821,-296.5 815,-290.5 815,-284.5 815,-284.5 815,-214.25 815,-214.25 815,-208.25 821,-202.25 827,-202.25 827,-202.25 969,-202.25 969,-202.25 975,-202.25 981,-208.25 981,-214.25 981,-214.25 981,-284.5 981,-284.5 981,-290.5 975,-296.5 969,-296.5"/>
<text text-anchor="middle" x="898" y="-279.2" font-family="Helvetica,sans-Serif" font-size="14.00">22_G &lt;= 0.5</text>
<text text-anchor="middle" x="898" y="-261.95" font-family="Helvetica,sans-Serif" font-size="14.00">entropy = 0.986</text>
<text text-anchor="middle" x="898" y="-244.7" font-family="Helvetica,sans-Serif" font-size="14.00">samples = 9041</text>
<text text-anchor="middle" x="898" y="-227.45" font-family="Helvetica,sans-Serif" font-size="14.00">value = [8114, 6124]</text>
<text text-anchor="middle" x="898" y="-210.2" font-family="Helvetica,sans-Serif" font-size="14.00">class = Animal</text>
</g>
<!-- 12022&#45;&gt;12023 -->
<g id="edge17" class="edge">
<title>12022&#45;&gt;12023</title>
<path fill="none" stroke="black" d="M898,-332.32C898,-324.42 898,-316.13 898,-307.98"/>
<polygon fill="black" stroke="black" points="901.5,-308.12 898,-298.12 894.5,-308.12 901.5,-308.12"/>
</g>
<!-- 16404 -->
<g id="node25" class="node">
<title>16404</title>
<path fill="#e89152" stroke="black" d="M1232.5,-296.5C1232.5,-296.5 1099.5,-296.5 1099.5,-296.5 1093.5,-296.5 1087.5,-290.5 1087.5,-284.5 1087.5,-284.5 1087.5,-214.25 1087.5,-214.25 1087.5,-208.25 1093.5,-202.25 1099.5,-202.25 1099.5,-202.25 1232.5,-202.25 1232.5,-202.25 1238.5,-202.25 1244.5,-208.25 1244.5,-214.25 1244.5,-214.25 1244.5,-284.5 1244.5,-284.5 1244.5,-290.5 1238.5,-296.5 1232.5,-296.5"/>
<text text-anchor="middle" x="1166" y="-279.2" font-family="Helvetica,sans-Serif" font-size="14.00">5_C &lt;= 0.5</text>
<text text-anchor="middle" x="1166" y="-261.95" font-family="Helvetica,sans-Serif" font-size="14.00">entropy = 0.505</text>
<text text-anchor="middle" x="1166" y="-244.7" font-family="Helvetica,sans-Serif" font-size="14.00">samples = 1812</text>
<text text-anchor="middle" x="1166" y="-227.45" font-family="Helvetica,sans-Serif" font-size="14.00">value = [2545, 320]</text>
<text text-anchor="middle" x="1166" y="-210.2" font-family="Helvetica,sans-Serif" font-size="14.00">class = Animal</text>
</g>
<!-- 12022&#45;&gt;16404 -->
<g id="edge24" class="edge">
<title>12022&#45;&gt;16404</title>
<path fill="none" stroke="black" d="M985.75,-336.63C1014.98,-322.65 1047.54,-307.06 1076.87,-293.03"/>
<polygon fill="black" stroke="black" points="1078.22,-296.26 1085.73,-288.79 1075.2,-289.95 1078.22,-296.26"/>
</g>
<!-- 12024 -->
<g id="node19" class="node">
<title>12024</title>
<path fill="#fefeff" stroke="black" d="M882,-166.25C882,-166.25 740,-166.25 740,-166.25 734,-166.25 728,-160.25 728,-154.25 728,-154.25 728,-84 728,-84 728,-78 734,-72 740,-72 740,-72 882,-72 882,-72 888,-72 894,-78 894,-84 894,-84 894,-154.25 894,-154.25 894,-160.25 888,-166.25 882,-166.25"/>
<text text-anchor="middle" x="811" y="-148.95" font-family="Helvetica,sans-Serif" font-size="14.00">2_A &lt;= 0.5</text>
<text text-anchor="middle" x="811" y="-131.7" font-family="Helvetica,sans-Serif" font-size="14.00">entropy = 1.0</text>
<text text-anchor="middle" x="811" y="-114.45" font-family="Helvetica,sans-Serif" font-size="14.00">samples = 7286</text>
<text text-anchor="middle" x="811" y="-97.2" font-family="Helvetica,sans-Serif" font-size="14.00">value = [5718, 5759]</text>
<text text-anchor="middle" x="811" y="-79.95" font-family="Helvetica,sans-Serif" font-size="14.00">class = Plant</text>
</g>
<!-- 12023&#45;&gt;12024 -->
<g id="edge18" class="edge">
<title>12023&#45;&gt;12024</title>
<path fill="none" stroke="black" d="M866.59,-202.07C860.8,-193.54 854.7,-184.54 848.75,-175.77"/>
<polygon fill="black" stroke="black" points="851.72,-173.92 843.21,-167.61 845.93,-177.85 851.72,-173.92"/>
</g>
<!-- 15835 -->
<g id="node22" class="node">
<title>15835</title>
<path fill="#e99457" stroke="black" d="M1057.5,-166.25C1057.5,-166.25 924.5,-166.25 924.5,-166.25 918.5,-166.25 912.5,-160.25 912.5,-154.25 912.5,-154.25 912.5,-84 912.5,-84 912.5,-78 918.5,-72 924.5,-72 924.5,-72 1057.5,-72 1057.5,-72 1063.5,-72 1069.5,-78 1069.5,-84 1069.5,-84 1069.5,-154.25 1069.5,-154.25 1069.5,-160.25 1063.5,-166.25 1057.5,-166.25"/>
<text text-anchor="middle" x="991" y="-148.95" font-family="Helvetica,sans-Serif" font-size="14.00">21_U &lt;= 0.5</text>
<text text-anchor="middle" x="991" y="-131.7" font-family="Helvetica,sans-Serif" font-size="14.00">entropy = 0.563</text>
<text text-anchor="middle" x="991" y="-114.45" font-family="Helvetica,sans-Serif" font-size="14.00">samples = 1755</text>
<text text-anchor="middle" x="991" y="-97.2" font-family="Helvetica,sans-Serif" font-size="14.00">value = [2396, 365]</text>
<text text-anchor="middle" x="991" y="-79.95" font-family="Helvetica,sans-Serif" font-size="14.00">class = Animal</text>
</g>
<!-- 12023&#45;&gt;15835 -->
<g id="edge21" class="edge">
<title>12023&#45;&gt;15835</title>
<path fill="none" stroke="black" d="M931.58,-202.07C937.83,-193.45 944.43,-184.35 950.85,-175.49"/>
<polygon fill="black" stroke="black" points="953.55,-177.73 956.59,-167.58 947.88,-173.62 953.55,-177.73"/>
</g>
<!-- 12025 -->
<g id="node20" class="node">
<title>12025</title>
<path fill="#c0c0c0" stroke="black" d="M772,-36C772,-36 742,-36 742,-36 736,-36 730,-30 730,-24 730,-24 730,-12 730,-12 730,-6 736,0 742,0 742,0 772,0 772,0 778,0 784,-6 784,-12 784,-12 784,-24 784,-24 784,-30 778,-36 772,-36"/>
<text text-anchor="middle" x="757" y="-13.32" font-family="Helvetica,sans-Serif" font-size="14.00">(...)</text>
</g>
<!-- 12024&#45;&gt;12025 -->
<g id="edge19" class="edge">
<title>12024&#45;&gt;12025</title>
<path fill="none" stroke="black" d="M785.74,-71.75C780.98,-63.03 776.16,-54.16 771.85,-46.26"/>
<polygon fill="black" stroke="black" points="774.94,-44.61 767.08,-37.5 768.79,-47.96 774.94,-44.61"/>
</g>
<!-- 14940 -->
<g id="node21" class="node">
<title>14940</title>
<path fill="#c0c0c0" stroke="black" d="M844,-36C844,-36 814,-36 814,-36 808,-36 802,-30 802,-24 802,-24 802,-12 802,-12 802,-6 808,0 814,0 814,0 844,0 844,0 850,0 856,-6 856,-12 856,-12 856,-24 856,-24 856,-30 850,-36 844,-36"/>
<text text-anchor="middle" x="829" y="-13.32" font-family="Helvetica,sans-Serif" font-size="14.00">(...)</text>
</g>
<!-- 12024&#45;&gt;14940 -->
<g id="edge20" class="edge">
<title>12024&#45;&gt;14940</title>
<path fill="none" stroke="black" d="M819.42,-71.75C820.93,-63.42 822.47,-54.97 823.85,-47.34"/>
<polygon fill="black" stroke="black" points="827.27,-48.13 825.61,-37.66 820.38,-46.88 827.27,-48.13"/>
</g>
<!-- 15836 -->
<g id="node23" class="node">
<title>15836</title>
<path fill="#c0c0c0" stroke="black" d="M949,-36C949,-36 919,-36 919,-36 913,-36 907,-30 907,-24 907,-24 907,-12 907,-12 907,-6 913,0 919,0 919,0 949,0 949,0 955,0 961,-6 961,-12 961,-12 961,-24 961,-24 961,-30 955,-36 949,-36"/>
<text text-anchor="middle" x="934" y="-13.32" font-family="Helvetica,sans-Serif" font-size="14.00">(...)</text>
</g>
<!-- 15835&#45;&gt;15836 -->
<g id="edge22" class="edge">
<title>15835&#45;&gt;15836</title>
<path fill="none" stroke="black" d="M964.34,-71.75C959.26,-62.93 954.1,-53.96 949.52,-45.99"/>
<polygon fill="black" stroke="black" points="952.65,-44.41 944.63,-37.48 946.58,-47.9 952.65,-44.41"/>
</g>
<!-- 16237 -->
<g id="node24" class="node">
<title>16237</title>
<path fill="#c0c0c0" stroke="black" d="M1021,-36C1021,-36 991,-36 991,-36 985,-36 979,-30 979,-24 979,-24 979,-12 979,-12 979,-6 985,0 991,0 991,0 1021,0 1021,0 1027,0 1033,-6 1033,-12 1033,-12 1033,-24 1033,-24 1033,-30 1027,-36 1021,-36"/>
<text text-anchor="middle" x="1006" y="-13.32" font-family="Helvetica,sans-Serif" font-size="14.00">(...)</text>
</g>
<!-- 15835&#45;&gt;16237 -->
<g id="edge23" class="edge">
<title>15835&#45;&gt;16237</title>
<path fill="none" stroke="black" d="M998.02,-71.75C999.28,-63.42 1000.56,-54.97 1001.71,-47.34"/>
<polygon fill="black" stroke="black" points="1005.14,-48.08 1003.17,-37.67 998.22,-47.03 1005.14,-48.08"/>
</g>
<!-- 16405 -->
<g id="node26" class="node">
<title>16405</title>
<path fill="#e88e4e" stroke="black" d="M1232.5,-166.25C1232.5,-166.25 1099.5,-166.25 1099.5,-166.25 1093.5,-166.25 1087.5,-160.25 1087.5,-154.25 1087.5,-154.25 1087.5,-84 1087.5,-84 1087.5,-78 1093.5,-72 1099.5,-72 1099.5,-72 1232.5,-72 1232.5,-72 1238.5,-72 1244.5,-78 1244.5,-84 1244.5,-84 1244.5,-154.25 1244.5,-154.25 1244.5,-160.25 1238.5,-166.25 1232.5,-166.25"/>
<text text-anchor="middle" x="1166" y="-148.95" font-family="Helvetica,sans-Serif" font-size="14.00">3_A &lt;= 0.5</text>
<text text-anchor="middle" x="1166" y="-131.7" font-family="Helvetica,sans-Serif" font-size="14.00">entropy = 0.452</text>
<text text-anchor="middle" x="1166" y="-114.45" font-family="Helvetica,sans-Serif" font-size="14.00">samples = 1638</text>
<text text-anchor="middle" x="1166" y="-97.2" font-family="Helvetica,sans-Serif" font-size="14.00">value = [2349, 246]</text>
<text text-anchor="middle" x="1166" y="-79.95" font-family="Helvetica,sans-Serif" font-size="14.00">class = Animal</text>
</g>
<!-- 16404&#45;&gt;16405 -->
<g id="edge25" class="edge">
<title>16404&#45;&gt;16405</title>
<path fill="none" stroke="black" d="M1166,-202.07C1166,-194.17 1166,-185.88 1166,-177.73"/>
<polygon fill="black" stroke="black" points="1169.5,-177.87 1166,-167.87 1162.5,-177.87 1169.5,-177.87"/>
</g>
<!-- 16788 -->
<g id="node29" class="node">
<title>16788</title>
<path fill="#efb184" stroke="black" d="M1389.5,-166.25C1389.5,-166.25 1274.5,-166.25 1274.5,-166.25 1268.5,-166.25 1262.5,-160.25 1262.5,-154.25 1262.5,-154.25 1262.5,-84 1262.5,-84 1262.5,-78 1268.5,-72 1274.5,-72 1274.5,-72 1389.5,-72 1389.5,-72 1395.5,-72 1401.5,-78 1401.5,-84 1401.5,-84 1401.5,-154.25 1401.5,-154.25 1401.5,-160.25 1395.5,-166.25 1389.5,-166.25"/>
<text text-anchor="middle" x="1332" y="-148.95" font-family="Helvetica,sans-Serif" font-size="14.00">16_A &lt;= 0.5</text>
<text text-anchor="middle" x="1332" y="-131.7" font-family="Helvetica,sans-Serif" font-size="14.00">entropy = 0.847</text>
<text text-anchor="middle" x="1332" y="-114.45" font-family="Helvetica,sans-Serif" font-size="14.00">samples = 174</text>
<text text-anchor="middle" x="1332" y="-97.2" font-family="Helvetica,sans-Serif" font-size="14.00">value = [196, 74]</text>
<text text-anchor="middle" x="1332" y="-79.95" font-family="Helvetica,sans-Serif" font-size="14.00">class = Animal</text>
</g>
<!-- 16404&#45;&gt;16788 -->
<g id="edge28" class="edge">
<title>16404&#45;&gt;16788</title>
<path fill="none" stroke="black" d="M1225.93,-202.07C1237.96,-192.78 1250.7,-182.94 1263.01,-173.43"/>
<polygon fill="black" stroke="black" points="1264.91,-176.38 1270.68,-167.5 1260.63,-170.84 1264.91,-176.38"/>
</g>
<!-- 16406 -->
<g id="node27" class="node">
<title>16406</title>
<path fill="#c0c0c0" stroke="black" d="M1138,-36C1138,-36 1108,-36 1108,-36 1102,-36 1096,-30 1096,-24 1096,-24 1096,-12 1096,-12 1096,-6 1102,0 1108,0 1108,0 1138,0 1138,0 1144,0 1150,-6 1150,-12 1150,-12 1150,-24 1150,-24 1150,-30 1144,-36 1138,-36"/>
<text text-anchor="middle" x="1123" y="-13.32" font-family="Helvetica,sans-Serif" font-size="14.00">(...)</text>
</g>
<!-- 16405&#45;&gt;16406 -->
<g id="edge26" class="edge">
<title>16405&#45;&gt;16406</title>
<path fill="none" stroke="black" d="M1145.88,-71.75C1142.14,-63.12 1138.34,-54.36 1134.94,-46.53"/>
<polygon fill="black" stroke="black" points="1138.24,-45.34 1131.05,-37.56 1131.82,-48.13 1138.24,-45.34"/>
</g>
<!-- 16691 -->
<g id="node28" class="node">
<title>16691</title>
<path fill="#c0c0c0" stroke="black" d="M1210,-36C1210,-36 1180,-36 1180,-36 1174,-36 1168,-30 1168,-24 1168,-24 1168,-12 1168,-12 1168,-6 1174,0 1180,0 1180,0 1210,0 1210,0 1216,0 1222,-6 1222,-12 1222,-12 1222,-24 1222,-24 1222,-30 1216,-36 1210,-36"/>
<text text-anchor="middle" x="1195" y="-13.32" font-family="Helvetica,sans-Serif" font-size="14.00">(...)</text>
</g>
<!-- 16405&#45;&gt;16691 -->
<g id="edge27" class="edge">
<title>16405&#45;&gt;16691</title>
<path fill="none" stroke="black" d="M1179.57,-71.75C1182.03,-63.32 1184.54,-54.77 1186.79,-47.07"/>
<polygon fill="black" stroke="black" points="1190.1,-48.21 1189.55,-37.63 1183.38,-46.24 1190.1,-48.21"/>
</g>
<!-- 16789 -->
<g id="node30" class="node">
<title>16789</title>
<path fill="#c0c0c0" stroke="black" d="M1311,-36C1311,-36 1281,-36 1281,-36 1275,-36 1269,-30 1269,-24 1269,-24 1269,-12 1269,-12 1269,-6 1275,0 1281,0 1281,0 1311,0 1311,0 1317,0 1323,-6 1323,-12 1323,-12 1323,-24 1323,-24 1323,-30 1317,-36 1311,-36"/>
<text text-anchor="middle" x="1296" y="-13.32" font-family="Helvetica,sans-Serif" font-size="14.00">(...)</text>
</g>
<!-- 16788&#45;&gt;16789 -->
<g id="edge29" class="edge">
<title>16788&#45;&gt;16789</title>
<path fill="none" stroke="black" d="M1315.16,-71.75C1312.06,-63.22 1308.92,-54.57 1306.1,-46.8"/>
<polygon fill="black" stroke="black" points="1309.46,-45.8 1302.75,-37.6 1302.88,-48.19 1309.46,-45.8"/>
</g>
<!-- 16850 -->
<g id="node31" class="node">
<title>16850</title>
<path fill="#c0c0c0" stroke="black" d="M1383,-36C1383,-36 1353,-36 1353,-36 1347,-36 1341,-30 1341,-24 1341,-24 1341,-12 1341,-12 1341,-6 1347,0 1353,0 1353,0 1383,0 1383,0 1389,0 1395,-6 1395,-12 1395,-12 1395,-24 1395,-24 1395,-30 1389,-36 1383,-36"/>
<text text-anchor="middle" x="1368" y="-13.32" font-family="Helvetica,sans-Serif" font-size="14.00">(...)</text>
</g>
<!-- 16788&#45;&gt;16850 -->
<g id="edge30" class="edge">
<title>16788&#45;&gt;16850</title>
<path fill="none" stroke="black" d="M1348.84,-71.75C1351.94,-63.22 1355.08,-54.57 1357.9,-46.8"/>
<polygon fill="black" stroke="black" points="1361.12,-48.19 1361.25,-37.6 1354.54,-45.8 1361.12,-48.19"/>
</g>
</g>
</svg>
