<?xml version="1.0" encoding="UTF-8" standalone="no"?>
<!DOCTYPE svg PUBLIC "-//W3C//DTD SVG 1.1//EN"
 "http://www.w3.org/Graphics/SVG/1.1/DTD/svg11.dtd">
<!-- Generated by graphviz version 12.0.0 (20240803.0821)
 -->
<!-- Title: Tree Pages: 1 -->
<svg width="1390pt" height="565pt"
 viewBox="0.00 0.00 1390.38 565.00" xmlns="http://www.w3.org/2000/svg" xmlns:xlink="http://www.w3.org/1999/xlink">
<g id="graph0" class="graph" transform="scale(1 1) rotate(0) translate(4 561)">
<title>Tree</title>
<polygon fill="white" stroke="none" points="-4,4 -4,-561 1386.38,-561 1386.38,4 -4,4"/>
<!-- 0 -->
<g id="node1" class="node">
<title>0</title>
<path fill="#fffdfc" stroke="black" d="M820,-557C820,-557 660,-557 660,-557 654,-557 648,-551 648,-545 648,-545 648,-474.75 648,-474.75 648,-468.75 654,-462.75 660,-462.75 660,-462.75 820,-462.75 820,-462.75 826,-462.75 832,-468.75 832,-474.75 832,-474.75 832,-545 832,-545 832,-551 826,-557 820,-557"/>
<text text-anchor="middle" x="740" y="-539.7" font-family="Helvetica,sans-Serif" font-size="14.00">22_G &lt;= 0.5</text>
<text text-anchor="middle" x="740" y="-522.45" font-family="Helvetica,sans-Serif" font-size="14.00">entropy = 1.0</text>
<text text-anchor="middle" x="740" y="-505.2" font-family="Helvetica,sans-Serif" font-size="14.00">samples = 38060</text>
<text text-anchor="middle" x="740" y="-487.95" font-family="Helvetica,sans-Serif" font-size="14.00">value = [30414, 29931]</text>
<text text-anchor="middle" x="740" y="-470.7" font-family="Helvetica,sans-Serif" font-size="14.00">class = Animal</text>
</g>
<!-- 1 -->
<g id="node2" class="node">
<title>1</title>
<path fill="#e3f1fb" stroke="black" d="M641,-426.75C641,-426.75 481,-426.75 481,-426.75 475,-426.75 469,-420.75 469,-414.75 469,-414.75 469,-344.5 469,-344.5 469,-338.5 475,-332.5 481,-332.5 481,-332.5 641,-332.5 641,-332.5 647,-332.5 653,-338.5 653,-344.5 653,-344.5 653,-414.75 653,-414.75 653,-420.75 647,-426.75 641,-426.75"/>
<text text-anchor="middle" x="561" y="-409.45" font-family="Helvetica,sans-Serif" font-size="14.00">20_C &lt;= 0.5</text>
<text text-anchor="middle" x="561" y="-392.2" font-family="Helvetica,sans-Serif" font-size="14.00">entropy = 0.996</text>
<text text-anchor="middle" x="561" y="-374.95" font-family="Helvetica,sans-Serif" font-size="14.00">samples = 33156</text>
<text text-anchor="middle" x="561" y="-357.7" font-family="Helvetica,sans-Serif" font-size="14.00">value = [24313, 28261]</text>
<text text-anchor="middle" x="561" y="-340.45" font-family="Helvetica,sans-Serif" font-size="14.00">class = Plant</text>
</g>
<!-- 0&#45;&gt;1 -->
<g id="edge1" class="edge">
<title>0&#45;&gt;1</title>
<path fill="none" stroke="black" d="M675.12,-462.39C662.12,-453.07 648.36,-443.22 635.07,-433.69"/>
<polygon fill="black" stroke="black" points="637.35,-431.02 627.19,-428.05 633.28,-436.72 637.35,-431.02"/>
<text text-anchor="middle" x="630.03" y="-447.16" font-family="Helvetica,sans-Serif" font-size="14.00">True</text>
</g>
<!-- 14972 -->
<g id="node17" class="node">
<title>14972</title>
<path fill="#eca36f" stroke="black" d="M988,-426.75C988,-426.75 846,-426.75 846,-426.75 840,-426.75 834,-420.75 834,-414.75 834,-414.75 834,-344.5 834,-344.5 834,-338.5 840,-332.5 846,-332.5 846,-332.5 988,-332.5 988,-332.5 994,-332.5 1000,-338.5 1000,-344.5 1000,-344.5 1000,-414.75 1000,-414.75 1000,-420.75 994,-426.75 988,-426.75"/>
<text text-anchor="middle" x="917" y="-409.45" font-family="Helvetica,sans-Serif" font-size="14.00">25_G &lt;= 0.5</text>
<text text-anchor="middle" x="917" y="-392.2" font-family="Helvetica,sans-Serif" font-size="14.00">entropy = 0.751</text>
<text text-anchor="middle" x="917" y="-374.95" font-family="Helvetica,sans-Serif" font-size="14.00">samples = 4904</text>
<text text-anchor="middle" x="917" y="-357.7" font-family="Helvetica,sans-Serif" font-size="14.00">value = [6101, 1670]</text>
<text text-anchor="middle" x="917" y="-340.45" font-family="Helvetica,sans-Serif" font-size="14.00">class = Animal</text>
</g>
<!-- 0&#45;&gt;14972 -->
<g id="edge16" class="edge">
<title>0&#45;&gt;14972</title>
<path fill="none" stroke="black" d="M804.15,-462.39C817.01,-453.07 830.62,-443.22 843.76,-433.69"/>
<polygon fill="black" stroke="black" points="845.5,-436.75 851.54,-428.05 841.39,-431.09 845.5,-436.75"/>
<text text-anchor="middle" x="848.83" y="-447.18" font-family="Helvetica,sans-Serif" font-size="14.00">False</text>
</g>
<!-- 2 -->
<g id="node3" class="node">
<title>2</title>
<path fill="#fefaf6" stroke="black" d="M365,-296.5C365,-296.5 205,-296.5 205,-296.5 199,-296.5 193,-290.5 193,-284.5 193,-284.5 193,-214.25 193,-214.25 193,-208.25 199,-202.25 205,-202.25 205,-202.25 365,-202.25 365,-202.25 371,-202.25 377,-208.25 377,-214.25 377,-214.25 377,-284.5 377,-284.5 377,-290.5 371,-296.5 365,-296.5"/>
<text text-anchor="middle" x="285" y="-279.2" font-family="Helvetica,sans-Serif" font-size="14.00">8_C &lt;= 0.5</text>
<text text-anchor="middle" x="285" y="-261.95" font-family="Helvetica,sans-Serif" font-size="14.00">entropy = 1.0</text>
<text text-anchor="middle" x="285" y="-244.7" font-family="Helvetica,sans-Serif" font-size="14.00">samples = 24381</text>
<text text-anchor="middle" x="285" y="-227.45" font-family="Helvetica,sans-Serif" font-size="14.00">value = [19742, 18885]</text>
<text text-anchor="middle" x="285" y="-210.2" font-family="Helvetica,sans-Serif" font-size="14.00">class = Animal</text>
</g>
<!-- 1&#45;&gt;2 -->
<g id="edge2" class="edge">
<title>1&#45;&gt;2</title>
<path fill="none" stroke="black" d="M468.71,-335.74C442.59,-323.6 414,-310.32 387.32,-297.92"/>
<polygon fill="black" stroke="black" points="389.12,-294.9 378.57,-293.86 386.17,-301.24 389.12,-294.9"/>
</g>
<!-- 11495 -->
<g id="node10" class="node">
<title>11495</title>
<path fill="#9acdf2" stroke="black" d="M632,-296.5C632,-296.5 490,-296.5 490,-296.5 484,-296.5 478,-290.5 478,-284.5 478,-284.5 478,-214.25 478,-214.25 478,-208.25 484,-202.25 490,-202.25 490,-202.25 632,-202.25 632,-202.25 638,-202.25 644,-208.25 644,-214.25 644,-214.25 644,-284.5 644,-284.5 644,-290.5 638,-296.5 632,-296.5"/>
<text text-anchor="middle" x="561" y="-279.2" font-family="Helvetica,sans-Serif" font-size="14.00">13_G &lt;= 0.5</text>
<text text-anchor="middle" x="561" y="-261.95" font-family="Helvetica,sans-Serif" font-size="14.00">entropy = 0.913</text>
<text text-anchor="middle" x="561" y="-244.7" font-family="Helvetica,sans-Serif" font-size="14.00">samples = 8775</text>
<text text-anchor="middle" x="561" y="-227.45" font-family="Helvetica,sans-Serif" font-size="14.00">value = [4571, 9376]</text>
<text text-anchor="middle" x="561" y="-210.2" font-family="Helvetica,sans-Serif" font-size="14.00">class = Plant</text>
</g>
<!-- 1&#45;&gt;11495 -->
<g id="edge9" class="edge">
<title>1&#45;&gt;11495</title>
<path fill="none" stroke="black" d="M561,-332.32C561,-324.42 561,-316.13 561,-307.98"/>
<polygon fill="black" stroke="black" points="564.5,-308.12 561,-298.12 557.5,-308.12 564.5,-308.12"/>
</g>
<!-- 3 -->
<g id="node4" class="node">
<title>3</title>
<path fill="#f1f8fd" stroke="black" d="M172,-166.25C172,-166.25 12,-166.25 12,-166.25 6,-166.25 0,-160.25 0,-154.25 0,-154.25 0,-84 0,-84 0,-78 6,-72 12,-72 12,-72 172,-72 172,-72 178,-72 184,-78 184,-84 184,-84 184,-154.25 184,-154.25 184,-160.25 178,-166.25 172,-166.25"/>
<text text-anchor="middle" x="92" y="-148.95" font-family="Helvetica,sans-Serif" font-size="14.00">4_G &lt;= 0.5</text>
<text text-anchor="middle" x="92" y="-131.7" font-family="Helvetica,sans-Serif" font-size="14.00">entropy = 0.999</text>
<text text-anchor="middle" x="92" y="-114.45" font-family="Helvetica,sans-Serif" font-size="14.00">samples = 19890</text>
<text text-anchor="middle" x="92" y="-97.2" font-family="Helvetica,sans-Serif" font-size="14.00">value = [15212, 16340]</text>
<text text-anchor="middle" x="92" y="-79.95" font-family="Helvetica,sans-Serif" font-size="14.00">class = Plant</text>
</g>
<!-- 2&#45;&gt;3 -->
<g id="edge3" class="edge">
<title>2&#45;&gt;3</title>
<path fill="none" stroke="black" d="M215.05,-201.89C200.89,-192.48 185.9,-182.53 171.45,-172.92"/>
<polygon fill="black" stroke="black" points="173.56,-170.12 163.3,-167.5 169.69,-175.95 173.56,-170.12"/>
</g>
<!-- 9114 -->
<g id="node7" class="node">
<title>9114</title>
<path fill="#f4c8a8" stroke="black" d="M356,-166.25C356,-166.25 214,-166.25 214,-166.25 208,-166.25 202,-160.25 202,-154.25 202,-154.25 202,-84 202,-84 202,-78 208,-72 214,-72 214,-72 356,-72 356,-72 362,-72 368,-78 368,-84 368,-84 368,-154.25 368,-154.25 368,-160.25 362,-166.25 356,-166.25"/>
<text text-anchor="middle" x="285" y="-148.95" font-family="Helvetica,sans-Serif" font-size="14.00">2_G &lt;= 0.5</text>
<text text-anchor="middle" x="285" y="-131.7" font-family="Helvetica,sans-Serif" font-size="14.00">entropy = 0.942</text>
<text text-anchor="middle" x="285" y="-114.45" font-family="Helvetica,sans-Serif" font-size="14.00">samples = 4491</text>
<text text-anchor="middle" x="285" y="-97.2" font-family="Helvetica,sans-Serif" font-size="14.00">value = [4530, 2545]</text>
<text text-anchor="middle" x="285" y="-79.95" font-family="Helvetica,sans-Serif" font-size="14.00">class = Animal</text>
</g>
<!-- 2&#45;&gt;9114 -->
<g id="edge6" class="edge">
<title>2&#45;&gt;9114</title>
<path fill="none" stroke="black" d="M285,-202.07C285,-194.17 285,-185.88 285,-177.73"/>
<polygon fill="black" stroke="black" points="288.5,-177.87 285,-167.87 281.5,-177.87 288.5,-177.87"/>
</g>
<!-- 4 -->
<g id="node5" class="node">
<title>4</title>
<path fill="#c0c0c0" stroke="black" d="M71,-36C71,-36 41,-36 41,-36 35,-36 29,-30 29,-24 29,-24 29,-12 29,-12 29,-6 35,0 41,0 41,0 71,0 71,0 77,0 83,-6 83,-12 83,-12 83,-24 83,-24 83,-30 77,-36 71,-36"/>
<text text-anchor="middle" x="56" y="-13.32" font-family="Helvetica,sans-Serif" font-size="14.00">(...)</text>
</g>
<!-- 3&#45;&gt;4 -->
<g id="edge4" class="edge">
<title>3&#45;&gt;4</title>
<path fill="none" stroke="black" d="M75.16,-71.75C72.06,-63.22 68.92,-54.57 66.1,-46.8"/>
<polygon fill="black" stroke="black" points="69.46,-45.8 62.75,-37.6 62.88,-48.19 69.46,-45.8"/>
</g>
<!-- 6365 -->
<g id="node6" class="node">
<title>6365</title>
<path fill="#c0c0c0" stroke="black" d="M143,-36C143,-36 113,-36 113,-36 107,-36 101,-30 101,-24 101,-24 101,-12 101,-12 101,-6 107,0 113,0 113,0 143,0 143,0 149,0 155,-6 155,-12 155,-12 155,-24 155,-24 155,-30 149,-36 143,-36"/>
<text text-anchor="middle" x="128" y="-13.32" font-family="Helvetica,sans-Serif" font-size="14.00">(...)</text>
</g>
<!-- 3&#45;&gt;6365 -->
<g id="edge5" class="edge">
<title>3&#45;&gt;6365</title>
<path fill="none" stroke="black" d="M108.84,-71.75C111.94,-63.22 115.08,-54.57 117.9,-46.8"/>
<polygon fill="black" stroke="black" points="121.12,-48.19 121.25,-37.6 114.54,-45.8 121.12,-48.19"/>
</g>
<!-- 9115 -->
<g id="node8" class="node">
<title>9115</title>
<path fill="#c0c0c0" stroke="black" d="M268,-36C268,-36 238,-36 238,-36 232,-36 226,-30 226,-24 226,-24 226,-12 226,-12 226,-6 232,0 238,0 238,0 268,0 268,0 274,0 280,-6 280,-12 280,-12 280,-24 280,-24 280,-30 274,-36 268,-36"/>
<text text-anchor="middle" x="253" y="-13.32" font-family="Helvetica,sans-Serif" font-size="14.00">(...)</text>
</g>
<!-- 9114&#45;&gt;9115 -->
<g id="edge7" class="edge">
<title>9114&#45;&gt;9115</title>
<path fill="none" stroke="black" d="M270.03,-71.75C267.31,-63.32 264.55,-54.77 262.06,-47.07"/>
<polygon fill="black" stroke="black" points="265.41,-46.05 259.01,-37.61 258.75,-48.2 265.41,-46.05"/>
</g>
<!-- 10872 -->
<g id="node9" class="node">
<title>10872</title>
<path fill="#c0c0c0" stroke="black" d="M340,-36C340,-36 310,-36 310,-36 304,-36 298,-30 298,-24 298,-24 298,-12 298,-12 298,-6 304,0 310,0 310,0 340,0 340,0 346,0 352,-6 352,-12 352,-12 352,-24 352,-24 352,-30 346,-36 340,-36"/>
<text text-anchor="middle" x="325" y="-13.32" font-family="Helvetica,sans-Serif" font-size="14.00">(...)</text>
</g>
<!-- 9114&#45;&gt;10872 -->
<g id="edge8" class="edge">
<title>9114&#45;&gt;10872</title>
<path fill="none" stroke="black" d="M303.71,-71.75C307.15,-63.22 310.65,-54.57 313.78,-46.8"/>
<polygon fill="black" stroke="black" points="317.01,-48.16 317.5,-37.58 310.52,-45.54 317.01,-48.16"/>
</g>
<!-- 11496 -->
<g id="node11" class="node">
<title>11496</title>
<path fill="#abd6f4" stroke="black" d="M540,-166.25C540,-166.25 398,-166.25 398,-166.25 392,-166.25 386,-160.25 386,-154.25 386,-154.25 386,-84 386,-84 386,-78 392,-72 398,-72 398,-72 540,-72 540,-72 546,-72 552,-78 552,-84 552,-84 552,-154.25 552,-154.25 552,-160.25 546,-166.25 540,-166.25"/>
<text text-anchor="middle" x="469" y="-148.95" font-family="Helvetica,sans-Serif" font-size="14.00">23_A &lt;= 0.5</text>
<text text-anchor="middle" x="469" y="-131.7" font-family="Helvetica,sans-Serif" font-size="14.00">entropy = 0.948</text>
<text text-anchor="middle" x="469" y="-114.45" font-family="Helvetica,sans-Serif" font-size="14.00">samples = 5700</text>
<text text-anchor="middle" x="469" y="-97.2" font-family="Helvetica,sans-Serif" font-size="14.00">value = [3325, 5755]</text>
<text text-anchor="middle" x="469" y="-79.95" font-family="Helvetica,sans-Serif" font-size="14.00">class = Plant</text>
</g>
<!-- 11495&#45;&gt;11496 -->
<g id="edge10" class="edge">
<title>11495&#45;&gt;11496</title>
<path fill="none" stroke="black" d="M527.79,-202.07C521.6,-193.45 515.07,-184.35 508.71,-175.49"/>
<polygon fill="black" stroke="black" points="511.72,-173.67 503.05,-167.59 506.03,-177.75 511.72,-173.67"/>
</g>
<!-- 13995 -->
<g id="node14" class="node">
<title>13995</title>
<path fill="#7dbfee" stroke="black" d="M724,-166.25C724,-166.25 582,-166.25 582,-166.25 576,-166.25 570,-160.25 570,-154.25 570,-154.25 570,-84 570,-84 570,-78 576,-72 582,-72 582,-72 724,-72 724,-72 730,-72 736,-78 736,-84 736,-84 736,-154.25 736,-154.25 736,-160.25 730,-166.25 724,-166.25"/>
<text text-anchor="middle" x="653" y="-148.95" font-family="Helvetica,sans-Serif" font-size="14.00">9_G &lt;= 0.5</text>
<text text-anchor="middle" x="653" y="-131.7" font-family="Helvetica,sans-Serif" font-size="14.00">entropy = 0.821</text>
<text text-anchor="middle" x="653" y="-114.45" font-family="Helvetica,sans-Serif" font-size="14.00">samples = 3075</text>
<text text-anchor="middle" x="653" y="-97.2" font-family="Helvetica,sans-Serif" font-size="14.00">value = [1246, 3621]</text>
<text text-anchor="middle" x="653" y="-79.95" font-family="Helvetica,sans-Serif" font-size="14.00">class = Plant</text>
</g>
<!-- 11495&#45;&gt;13995 -->
<g id="edge13" class="edge">
<title>11495&#45;&gt;13995</title>
<path fill="none" stroke="black" d="M594.21,-202.07C600.4,-193.45 606.93,-184.35 613.29,-175.49"/>
<polygon fill="black" stroke="black" points="615.97,-177.75 618.95,-167.59 610.28,-173.67 615.97,-177.75"/>
</g>
<!-- 11497 -->
<g id="node12" class="node">
<title>11497</title>
<path fill="#c0c0c0" stroke="black" d="M432,-36C432,-36 402,-36 402,-36 396,-36 390,-30 390,-24 390,-24 390,-12 390,-12 390,-6 396,0 402,0 402,0 432,0 432,0 438,0 444,-6 444,-12 444,-12 444,-24 444,-24 444,-30 438,-36 432,-36"/>
<text text-anchor="middle" x="417" y="-13.32" font-family="Helvetica,sans-Serif" font-size="14.00">(...)</text>
</g>
<!-- 11496&#45;&gt;11497 -->
<g id="edge11" class="edge">
<title>11496&#45;&gt;11497</title>
<path fill="none" stroke="black" d="M444.67,-71.75C440.1,-63.03 435.45,-54.16 431.3,-46.26"/>
<polygon fill="black" stroke="black" points="434.46,-44.74 426.71,-37.51 428.26,-47.99 434.46,-44.74"/>
</g>
<!-- 13910 -->
<g id="node13" class="node">
<title>13910</title>
<path fill="#c0c0c0" stroke="black" d="M504,-36C504,-36 474,-36 474,-36 468,-36 462,-30 462,-24 462,-24 462,-12 462,-12 462,-6 468,0 474,0 474,0 504,0 504,0 510,0 516,-6 516,-12 516,-12 516,-24 516,-24 516,-30 510,-36 504,-36"/>
<text text-anchor="middle" x="489" y="-13.32" font-family="Helvetica,sans-Serif" font-size="14.00">(...)</text>
</g>
<!-- 11496&#45;&gt;13910 -->
<g id="edge12" class="edge">
<title>11496&#45;&gt;13910</title>
<path fill="none" stroke="black" d="M478.36,-71.75C480.04,-63.42 481.74,-54.97 483.28,-47.34"/>
<polygon fill="black" stroke="black" points="486.69,-48.15 485.24,-37.66 479.83,-46.77 486.69,-48.15"/>
</g>
<!-- 13996 -->
<g id="node15" class="node">
<title>13996</title>
<path fill="#c0c0c0" stroke="black" d="M616,-36C616,-36 586,-36 586,-36 580,-36 574,-30 574,-24 574,-24 574,-12 574,-12 574,-6 580,0 586,0 586,0 616,0 616,0 622,0 628,-6 628,-12 628,-12 628,-24 628,-24 628,-30 622,-36 616,-36"/>
<text text-anchor="middle" x="601" y="-13.32" font-family="Helvetica,sans-Serif" font-size="14.00">(...)</text>
</g>
<!-- 13995&#45;&gt;13996 -->
<g id="edge14" class="edge">
<title>13995&#45;&gt;13996</title>
<path fill="none" stroke="black" d="M628.67,-71.75C624.1,-63.03 619.45,-54.16 615.3,-46.26"/>
<polygon fill="black" stroke="black" points="618.46,-44.74 610.71,-37.51 612.26,-47.99 618.46,-44.74"/>
</g>
<!-- 14717 -->
<g id="node16" class="node">
<title>14717</title>
<path fill="#c0c0c0" stroke="black" d="M688,-36C688,-36 658,-36 658,-36 652,-36 646,-30 646,-24 646,-24 646,-12 646,-12 646,-6 652,0 658,0 658,0 688,0 688,0 694,0 700,-6 700,-12 700,-12 700,-24 700,-24 700,-30 694,-36 688,-36"/>
<text text-anchor="middle" x="673" y="-13.32" font-family="Helvetica,sans-Serif" font-size="14.00">(...)</text>
</g>
<!-- 13995&#45;&gt;14717 -->
<g id="edge15" class="edge">
<title>13995&#45;&gt;14717</title>
<path fill="none" stroke="black" d="M662.36,-71.75C664.04,-63.42 665.74,-54.97 667.28,-47.34"/>
<polygon fill="black" stroke="black" points="670.69,-48.15 669.24,-37.66 663.83,-46.77 670.69,-48.15"/>
</g>
<!-- 14973 -->
<g id="node18" class="node">
<title>14973</title>
<path fill="#eca26c" stroke="black" d="M988,-296.5C988,-296.5 846,-296.5 846,-296.5 840,-296.5 834,-290.5 834,-284.5 834,-284.5 834,-214.25 834,-214.25 834,-208.25 840,-202.25 846,-202.25 846,-202.25 988,-202.25 988,-202.25 994,-202.25 1000,-208.25 1000,-214.25 1000,-214.25 1000,-284.5 1000,-284.5 1000,-290.5 994,-296.5 988,-296.5"/>
<text text-anchor="middle" x="917" y="-279.2" font-family="Helvetica,sans-Serif" font-size="14.00">21_C &lt;= 0.5</text>
<text text-anchor="middle" x="917" y="-261.95" font-family="Helvetica,sans-Serif" font-size="14.00">entropy = 0.734</text>
<text text-anchor="middle" x="917" y="-244.7" font-family="Helvetica,sans-Serif" font-size="14.00">samples = 4801</text>
<text text-anchor="middle" x="917" y="-227.45" font-family="Helvetica,sans-Serif" font-size="14.00">value = [6035, 1569]</text>
<text text-anchor="middle" x="917" y="-210.2" font-family="Helvetica,sans-Serif" font-size="14.00">class = Animal</text>
</g>
<!-- 14972&#45;&gt;14973 -->
<g id="edge17" class="edge">
<title>14972&#45;&gt;14973</title>
<path fill="none" stroke="black" d="M917,-332.32C917,-324.42 917,-316.13 917,-307.98"/>
<polygon fill="black" stroke="black" points="920.5,-308.12 917,-298.12 913.5,-308.12 920.5,-308.12"/>
</g>
<!-- 16822 -->
<g id="node25" class="node">
<title>16822</title>
<path fill="#baddf6" stroke="black" d="M1226.5,-296.5C1226.5,-296.5 1111.5,-296.5 1111.5,-296.5 1105.5,-296.5 1099.5,-290.5 1099.5,-284.5 1099.5,-284.5 1099.5,-214.25 1099.5,-214.25 1099.5,-208.25 1105.5,-202.25 1111.5,-202.25 1111.5,-202.25 1226.5,-202.25 1226.5,-202.25 1232.5,-202.25 1238.5,-208.25 1238.5,-214.25 1238.5,-214.25 1238.5,-284.5 1238.5,-284.5 1238.5,-290.5 1232.5,-296.5 1226.5,-296.5"/>
<text text-anchor="middle" x="1169" y="-279.2" font-family="Helvetica,sans-Serif" font-size="14.00">2_G &lt;= 0.5</text>
<text text-anchor="middle" x="1169" y="-261.95" font-family="Helvetica,sans-Serif" font-size="14.00">entropy = 0.968</text>
<text text-anchor="middle" x="1169" y="-244.7" font-family="Helvetica,sans-Serif" font-size="14.00">samples = 103</text>
<text text-anchor="middle" x="1169" y="-227.45" font-family="Helvetica,sans-Serif" font-size="14.00">value = [66, 101]</text>
<text text-anchor="middle" x="1169" y="-210.2" font-family="Helvetica,sans-Serif" font-size="14.00">class = Plant</text>
</g>
<!-- 14972&#45;&gt;16822 -->
<g id="edge24" class="edge">
<title>14972&#45;&gt;16822</title>
<path fill="none" stroke="black" d="M1000.21,-336.28C1028.94,-321.66 1061.03,-305.32 1089.46,-290.86"/>
<polygon fill="black" stroke="black" points="1090.67,-294.16 1098,-286.51 1087.5,-287.93 1090.67,-294.16"/>
</g>
<!-- 14974 -->
<g id="node19" class="node">
<title>14974</title>
<path fill="#eb9e67" stroke="black" d="M908,-166.25C908,-166.25 766,-166.25 766,-166.25 760,-166.25 754,-160.25 754,-154.25 754,-154.25 754,-84 754,-84 754,-78 760,-72 766,-72 766,-72 908,-72 908,-72 914,-72 920,-78 920,-84 920,-84 920,-154.25 920,-154.25 920,-160.25 914,-166.25 908,-166.25"/>
<text text-anchor="middle" x="837" y="-148.95" font-family="Helvetica,sans-Serif" font-size="14.00">17_U &lt;= 0.5</text>
<text text-anchor="middle" x="837" y="-131.7" font-family="Helvetica,sans-Serif" font-size="14.00">entropy = 0.699</text>
<text text-anchor="middle" x="837" y="-114.45" font-family="Helvetica,sans-Serif" font-size="14.00">samples = 4142</text>
<text text-anchor="middle" x="837" y="-97.2" font-family="Helvetica,sans-Serif" font-size="14.00">value = [5326, 1241]</text>
<text text-anchor="middle" x="837" y="-79.95" font-family="Helvetica,sans-Serif" font-size="14.00">class = Animal</text>
</g>
<!-- 14973&#45;&gt;14974 -->
<g id="edge18" class="edge">
<title>14973&#45;&gt;14974</title>
<path fill="none" stroke="black" d="M888.12,-202.07C882.85,-193.63 877.3,-184.74 871.88,-176.05"/>
<polygon fill="black" stroke="black" points="874.9,-174.27 866.64,-167.64 868.96,-177.98 874.9,-174.27"/>
</g>
<!-- 16533 -->
<g id="node22" class="node">
<title>16533</title>
<path fill="#f1bb95" stroke="black" d="M1074,-166.25C1074,-166.25 950,-166.25 950,-166.25 944,-166.25 938,-160.25 938,-154.25 938,-154.25 938,-84 938,-84 938,-78 944,-72 950,-72 950,-72 1074,-72 1074,-72 1080,-72 1086,-78 1086,-84 1086,-84 1086,-154.25 1086,-154.25 1086,-160.25 1080,-166.25 1074,-166.25"/>
<text text-anchor="middle" x="1012" y="-148.95" font-family="Helvetica,sans-Serif" font-size="14.00">13_A &lt;= 0.5</text>
<text text-anchor="middle" x="1012" y="-131.7" font-family="Helvetica,sans-Serif" font-size="14.00">entropy = 0.9</text>
<text text-anchor="middle" x="1012" y="-114.45" font-family="Helvetica,sans-Serif" font-size="14.00">samples = 659</text>
<text text-anchor="middle" x="1012" y="-97.2" font-family="Helvetica,sans-Serif" font-size="14.00">value = [709, 328]</text>
<text text-anchor="middle" x="1012" y="-79.95" font-family="Helvetica,sans-Serif" font-size="14.00">class = Animal</text>
</g>
<!-- 14973&#45;&gt;16533 -->
<g id="edge21" class="edge">
<title>14973&#45;&gt;16533</title>
<path fill="none" stroke="black" d="M951.3,-202.07C957.69,-193.45 964.42,-184.35 970.99,-175.49"/>
<polygon fill="black" stroke="black" points="973.71,-177.69 976.85,-167.57 968.09,-173.53 973.71,-177.69"/>
</g>
<!-- 14975 -->
<g id="node20" class="node">
<title>14975</title>
<path fill="#c0c0c0" stroke="black" d="M795,-36C795,-36 765,-36 765,-36 759,-36 753,-30 753,-24 753,-24 753,-12 753,-12 753,-6 759,0 765,0 765,0 795,0 795,0 801,0 807,-6 807,-12 807,-12 807,-24 807,-24 807,-30 801,-36 795,-36"/>
<text text-anchor="middle" x="780" y="-13.32" font-family="Helvetica,sans-Serif" font-size="14.00">(...)</text>
</g>
<!-- 14974&#45;&gt;14975 -->
<g id="edge19" class="edge">
<title>14974&#45;&gt;14975</title>
<path fill="none" stroke="black" d="M810.34,-71.75C805.26,-62.93 800.1,-53.96 795.52,-45.99"/>
<polygon fill="black" stroke="black" points="798.65,-44.41 790.63,-37.48 792.58,-47.9 798.65,-44.41"/>
</g>
<!-- 16124 -->
<g id="node21" class="node">
<title>16124</title>
<path fill="#c0c0c0" stroke="black" d="M867,-36C867,-36 837,-36 837,-36 831,-36 825,-30 825,-24 825,-24 825,-12 825,-12 825,-6 831,0 837,0 837,0 867,0 867,0 873,0 879,-6 879,-12 879,-12 879,-24 879,-24 879,-30 873,-36 867,-36"/>
<text text-anchor="middle" x="852" y="-13.32" font-family="Helvetica,sans-Serif" font-size="14.00">(...)</text>
</g>
<!-- 14974&#45;&gt;16124 -->
<g id="edge20" class="edge">
<title>14974&#45;&gt;16124</title>
<path fill="none" stroke="black" d="M844.02,-71.75C845.28,-63.42 846.56,-54.97 847.71,-47.34"/>
<polygon fill="black" stroke="black" points="851.14,-48.08 849.17,-37.67 844.22,-47.03 851.14,-48.08"/>
</g>
<!-- 16534 -->
<g id="node23" class="node">
<title>16534</title>
<path fill="#c0c0c0" stroke="black" d="M961,-36C961,-36 931,-36 931,-36 925,-36 919,-30 919,-24 919,-24 919,-12 919,-12 919,-6 925,0 931,0 931,0 961,0 961,0 967,0 973,-6 973,-12 973,-12 973,-24 973,-24 973,-30 967,-36 961,-36"/>
<text text-anchor="middle" x="946" y="-13.32" font-family="Helvetica,sans-Serif" font-size="14.00">(...)</text>
</g>
<!-- 16533&#45;&gt;16534 -->
<g id="edge22" class="edge">
<title>16533&#45;&gt;16534</title>
<path fill="none" stroke="black" d="M981.13,-71.75C975.18,-62.83 969.14,-53.76 963.79,-45.72"/>
<polygon fill="black" stroke="black" points="966.73,-43.82 958.27,-37.43 960.9,-47.7 966.73,-43.82"/>
</g>
<!-- 16737 -->
<g id="node24" class="node">
<title>16737</title>
<path fill="#c0c0c0" stroke="black" d="M1033,-36C1033,-36 1003,-36 1003,-36 997,-36 991,-30 991,-24 991,-24 991,-12 991,-12 991,-6 997,0 1003,0 1003,0 1033,0 1033,0 1039,0 1045,-6 1045,-12 1045,-12 1045,-24 1045,-24 1045,-30 1039,-36 1033,-36"/>
<text text-anchor="middle" x="1018" y="-13.32" font-family="Helvetica,sans-Serif" font-size="14.00">(...)</text>
</g>
<!-- 16533&#45;&gt;16737 -->
<g id="edge23" class="edge">
<title>16533&#45;&gt;16737</title>
<path fill="none" stroke="black" d="M1014.81,-71.75C1015.31,-63.52 1015.81,-55.17 1016.27,-47.61"/>
<polygon fill="black" stroke="black" points="1019.76,-47.88 1016.87,-37.68 1012.77,-47.45 1019.76,-47.88"/>
</g>
<!-- 16823 -->
<g id="node26" class="node">
<title>16823</title>
<path fill="#8ac5f0" stroke="black" d="M1222,-166.25C1222,-166.25 1116,-166.25 1116,-166.25 1110,-166.25 1104,-160.25 1104,-154.25 1104,-154.25 1104,-84 1104,-84 1104,-78 1110,-72 1116,-72 1116,-72 1222,-72 1222,-72 1228,-72 1234,-78 1234,-84 1234,-84 1234,-154.25 1234,-154.25 1234,-160.25 1228,-166.25 1222,-166.25"/>
<text text-anchor="middle" x="1169" y="-148.95" font-family="Helvetica,sans-Serif" font-size="14.00">3_A &lt;= 0.5</text>
<text text-anchor="middle" x="1169" y="-131.7" font-family="Helvetica,sans-Serif" font-size="14.00">entropy = 0.87</text>
<text text-anchor="middle" x="1169" y="-114.45" font-family="Helvetica,sans-Serif" font-size="14.00">samples = 78</text>
<text text-anchor="middle" x="1169" y="-97.2" font-family="Helvetica,sans-Serif" font-size="14.00">value = [37, 90]</text>
<text text-anchor="middle" x="1169" y="-79.95" font-family="Helvetica,sans-Serif" font-size="14.00">class = Plant</text>
</g>
<!-- 16822&#45;&gt;16823 -->
<g id="edge25" class="edge">
<title>16822&#45;&gt;16823</title>
<path fill="none" stroke="black" d="M1169,-202.07C1169,-194.17 1169,-185.88 1169,-177.73"/>
<polygon fill="black" stroke="black" points="1172.5,-177.87 1169,-167.87 1165.5,-177.87 1172.5,-177.87"/>
</g>
<!-- 16858 -->
<g id="node29" class="node">
<title>16858</title>
<path fill="#efb184" stroke="black" d="M1370.38,-166.25C1370.38,-166.25 1263.62,-166.25 1263.62,-166.25 1257.62,-166.25 1251.62,-160.25 1251.62,-154.25 1251.62,-154.25 1251.62,-84 1251.62,-84 1251.62,-78 1257.62,-72 1263.62,-72 1263.62,-72 1370.38,-72 1370.38,-72 1376.38,-72 1382.38,-78 1382.38,-84 1382.38,-84 1382.38,-154.25 1382.38,-154.25 1382.38,-160.25 1376.38,-166.25 1370.38,-166.25"/>
<text text-anchor="middle" x="1317" y="-148.95" font-family="Helvetica,sans-Serif" font-size="14.00">1_C &lt;= 0.5</text>
<text text-anchor="middle" x="1317" y="-131.7" font-family="Helvetica,sans-Serif" font-size="14.00">entropy = 0.849</text>
<text text-anchor="middle" x="1317" y="-114.45" font-family="Helvetica,sans-Serif" font-size="14.00">samples = 25</text>
<text text-anchor="middle" x="1317" y="-97.2" font-family="Helvetica,sans-Serif" font-size="14.00">value = [29, 11]</text>
<text text-anchor="middle" x="1317" y="-79.95" font-family="Helvetica,sans-Serif" font-size="14.00">class = Animal</text>
</g>
<!-- 16822&#45;&gt;16858 -->
<g id="edge28" class="edge">
<title>16822&#45;&gt;16858</title>
<path fill="none" stroke="black" d="M1222.43,-202.07C1233.02,-192.9 1244.21,-183.2 1255.05,-173.81"/>
<polygon fill="black" stroke="black" points="1257.24,-176.54 1262.5,-167.35 1252.65,-171.25 1257.24,-176.54"/>
</g>
<!-- 16824 -->
<g id="node27" class="node">
<title>16824</title>
<path fill="#c0c0c0" stroke="black" d="M1132,-36C1132,-36 1102,-36 1102,-36 1096,-36 1090,-30 1090,-24 1090,-24 1090,-12 1090,-12 1090,-6 1096,0 1102,0 1102,0 1132,0 1132,0 1138,0 1144,-6 1144,-12 1144,-12 1144,-24 1144,-24 1144,-30 1138,-36 1132,-36"/>
<text text-anchor="middle" x="1117" y="-13.32" font-family="Helvetica,sans-Serif" font-size="14.00">(...)</text>
</g>
<!-- 16823&#45;&gt;16824 -->
<g id="edge26" class="edge">
<title>16823&#45;&gt;16824</title>
<path fill="none" stroke="black" d="M1144.67,-71.75C1140.1,-63.03 1135.45,-54.16 1131.3,-46.26"/>
<polygon fill="black" stroke="black" points="1134.46,-44.74 1126.71,-37.51 1128.26,-47.99 1134.46,-44.74"/>
</g>
<!-- 16855 -->
<g id="node28" class="node">
<title>16855</title>
<path fill="#c0c0c0" stroke="black" d="M1204,-36C1204,-36 1174,-36 1174,-36 1168,-36 1162,-30 1162,-24 1162,-24 1162,-12 1162,-12 1162,-6 1168,0 1174,0 1174,0 1204,0 1204,0 1210,0 1216,-6 1216,-12 1216,-12 1216,-24 1216,-24 1216,-30 1210,-36 1204,-36"/>
<text text-anchor="middle" x="1189" y="-13.32" font-family="Helvetica,sans-Serif" font-size="14.00">(...)</text>
</g>
<!-- 16823&#45;&gt;16855 -->
<g id="edge27" class="edge">
<title>16823&#45;&gt;16855</title>
<path fill="none" stroke="black" d="M1178.36,-71.75C1180.04,-63.42 1181.74,-54.97 1183.28,-47.34"/>
<polygon fill="black" stroke="black" points="1186.69,-48.15 1185.24,-37.66 1179.83,-46.77 1186.69,-48.15"/>
</g>
<!-- 16859 -->
<g id="node30" class="node">
<title>16859</title>
<path fill="#c0c0c0" stroke="black" d="M1296,-36C1296,-36 1266,-36 1266,-36 1260,-36 1254,-30 1254,-24 1254,-24 1254,-12 1254,-12 1254,-6 1260,0 1266,0 1266,0 1296,0 1296,0 1302,0 1308,-6 1308,-12 1308,-12 1308,-24 1308,-24 1308,-30 1302,-36 1296,-36"/>
<text text-anchor="middle" x="1281" y="-13.32" font-family="Helvetica,sans-Serif" font-size="14.00">(...)</text>
</g>
<!-- 16858&#45;&gt;16859 -->
<g id="edge29" class="edge">
<title>16858&#45;&gt;16859</title>
<path fill="none" stroke="black" d="M1300.16,-71.75C1297.06,-63.22 1293.92,-54.57 1291.1,-46.8"/>
<polygon fill="black" stroke="black" points="1294.46,-45.8 1287.75,-37.6 1287.88,-48.19 1294.46,-45.8"/>
</g>
<!-- 16866 -->
<g id="node31" class="node">
<title>16866</title>
<path fill="#c0c0c0" stroke="black" d="M1368,-36C1368,-36 1338,-36 1338,-36 1332,-36 1326,-30 1326,-24 1326,-24 1326,-12 1326,-12 1326,-6 1332,0 1338,0 1338,0 1368,0 1368,0 1374,0 1380,-6 1380,-12 1380,-12 1380,-24 1380,-24 1380,-30 1374,-36 1368,-36"/>
<text text-anchor="middle" x="1353" y="-13.32" font-family="Helvetica,sans-Serif" font-size="14.00">(...)</text>
</g>
<!-- 16858&#45;&gt;16866 -->
<g id="edge30" class="edge">
<title>16858&#45;&gt;16866</title>
<path fill="none" stroke="black" d="M1333.84,-71.75C1336.94,-63.22 1340.08,-54.57 1342.9,-46.8"/>
<polygon fill="black" stroke="black" points="1346.12,-48.19 1346.25,-37.6 1339.54,-45.8 1346.12,-48.19"/>
</g>
</g>
</svg>
