<?xml version="1.0" encoding="UTF-8" standalone="no"?>
<!DOCTYPE svg PUBLIC "-//W3C//DTD SVG 1.1//EN"
 "http://www.w3.org/Graphics/SVG/1.1/DTD/svg11.dtd">
<!-- Generated by graphviz version 12.0.0 (20240803.0821)
 -->
<!-- Title: Tree Pages: 1 -->
<svg width="1418pt" height="565pt"
 viewBox="0.00 0.00 1417.50 565.00" xmlns="http://www.w3.org/2000/svg" xmlns:xlink="http://www.w3.org/1999/xlink">
<g id="graph0" class="graph" transform="scale(1 1) rotate(0) translate(4 561)">
<title>Tree</title>
<polygon fill="white" stroke="none" points="-4,4 -4,-561 1413.5,-561 1413.5,4 -4,4"/>
<!-- 0 -->
<g id="node1" class="node">
<title>0</title>
<path fill="#fffdfc" stroke="black" d="M770.5,-557C770.5,-557 610.5,-557 610.5,-557 604.5,-557 598.5,-551 598.5,-545 598.5,-545 598.5,-474.75 598.5,-474.75 598.5,-468.75 604.5,-462.75 610.5,-462.75 610.5,-462.75 770.5,-462.75 770.5,-462.75 776.5,-462.75 782.5,-468.75 782.5,-474.75 782.5,-474.75 782.5,-545 782.5,-545 782.5,-551 776.5,-557 770.5,-557"/>
<text text-anchor="middle" x="690.5" y="-539.7" font-family="Helvetica,sans-Serif" font-size="14.00">1_U &lt;= 0.5</text>
<text text-anchor="middle" x="690.5" y="-522.45" font-family="Helvetica,sans-Serif" font-size="14.00">entropy = 1.0</text>
<text text-anchor="middle" x="690.5" y="-505.2" font-family="Helvetica,sans-Serif" font-size="14.00">samples = 38114</text>
<text text-anchor="middle" x="690.5" y="-487.95" font-family="Helvetica,sans-Serif" font-size="14.00">value = [30405, 29940]</text>
<text text-anchor="middle" x="690.5" y="-470.7" font-family="Helvetica,sans-Serif" font-size="14.00">class = Animal</text>
</g>
<!-- 1 -->
<g id="node2" class="node">
<title>1</title>
<path fill="#f7d9c4" stroke="black" d="M607.5,-426.75C607.5,-426.75 447.5,-426.75 447.5,-426.75 441.5,-426.75 435.5,-420.75 435.5,-414.75 435.5,-414.75 435.5,-344.5 435.5,-344.5 435.5,-338.5 441.5,-332.5 447.5,-332.5 447.5,-332.5 607.5,-332.5 607.5,-332.5 613.5,-332.5 619.5,-338.5 619.5,-344.5 619.5,-344.5 619.5,-414.75 619.5,-414.75 619.5,-420.75 613.5,-426.75 607.5,-426.75"/>
<text text-anchor="middle" x="527.5" y="-409.45" font-family="Helvetica,sans-Serif" font-size="14.00">23_U &lt;= 0.5</text>
<text text-anchor="middle" x="527.5" y="-392.2" font-family="Helvetica,sans-Serif" font-size="14.00">entropy = 0.978</text>
<text text-anchor="middle" x="527.5" y="-374.95" font-family="Helvetica,sans-Serif" font-size="14.00">samples = 18014</text>
<text text-anchor="middle" x="527.5" y="-357.7" font-family="Helvetica,sans-Serif" font-size="14.00">value = [16783, 11775]</text>
<text text-anchor="middle" x="527.5" y="-340.45" font-family="Helvetica,sans-Serif" font-size="14.00">class = Animal</text>
</g>
<!-- 0&#45;&gt;1 -->
<g id="edge1" class="edge">
<title>0&#45;&gt;1</title>
<path fill="none" stroke="black" d="M631.65,-462.57C619.84,-453.28 607.34,-443.44 595.25,-433.93"/>
<polygon fill="black" stroke="black" points="597.75,-431.44 587.72,-428.01 593.42,-436.94 597.75,-431.44"/>
<text text-anchor="middle" x="589.5" y="-447.22" font-family="Helvetica,sans-Serif" font-size="14.00">True</text>
</g>
<!-- 9404 -->
<g id="node17" class="node">
<title>9404</title>
<path fill="#cde6f8" stroke="black" d="M959.5,-426.75C959.5,-426.75 799.5,-426.75 799.5,-426.75 793.5,-426.75 787.5,-420.75 787.5,-414.75 787.5,-414.75 787.5,-344.5 787.5,-344.5 787.5,-338.5 793.5,-332.5 799.5,-332.5 799.5,-332.5 959.5,-332.5 959.5,-332.5 965.5,-332.5 971.5,-338.5 971.5,-344.5 971.5,-344.5 971.5,-414.75 971.5,-414.75 971.5,-420.75 965.5,-426.75 959.5,-426.75"/>
<text text-anchor="middle" x="879.5" y="-409.45" font-family="Helvetica,sans-Serif" font-size="14.00">14_C &lt;= 0.5</text>
<text text-anchor="middle" x="879.5" y="-392.2" font-family="Helvetica,sans-Serif" font-size="14.00">entropy = 0.985</text>
<text text-anchor="middle" x="879.5" y="-374.95" font-family="Helvetica,sans-Serif" font-size="14.00">samples = 20100</text>
<text text-anchor="middle" x="879.5" y="-357.7" font-family="Helvetica,sans-Serif" font-size="14.00">value = [13622, 18165]</text>
<text text-anchor="middle" x="879.5" y="-340.45" font-family="Helvetica,sans-Serif" font-size="14.00">class = Plant</text>
</g>
<!-- 0&#45;&gt;9404 -->
<g id="edge16" class="edge">
<title>0&#45;&gt;9404</title>
<path fill="none" stroke="black" d="M759,-462.39C772.87,-452.98 787.54,-443.03 801.7,-433.42"/>
<polygon fill="black" stroke="black" points="803.35,-436.53 809.66,-428.01 799.42,-430.73 803.35,-436.53"/>
<text text-anchor="middle" x="806.21" y="-447.04" font-family="Helvetica,sans-Serif" font-size="14.00">False</text>
</g>
<!-- 2 -->
<g id="node3" class="node">
<title>2</title>
<path fill="#f8dfcc" stroke="black" d="M356.5,-296.5C356.5,-296.5 196.5,-296.5 196.5,-296.5 190.5,-296.5 184.5,-290.5 184.5,-284.5 184.5,-284.5 184.5,-214.25 184.5,-214.25 184.5,-208.25 190.5,-202.25 196.5,-202.25 196.5,-202.25 356.5,-202.25 356.5,-202.25 362.5,-202.25 368.5,-208.25 368.5,-214.25 368.5,-214.25 368.5,-284.5 368.5,-284.5 368.5,-290.5 362.5,-296.5 356.5,-296.5"/>
<text text-anchor="middle" x="276.5" y="-279.2" font-family="Helvetica,sans-Serif" font-size="14.00">19_C &lt;= 0.5</text>
<text text-anchor="middle" x="276.5" y="-261.95" font-family="Helvetica,sans-Serif" font-size="14.00">entropy = 0.984</text>
<text text-anchor="middle" x="276.5" y="-244.7" font-family="Helvetica,sans-Serif" font-size="14.00">samples = 16970</text>
<text text-anchor="middle" x="276.5" y="-227.45" font-family="Helvetica,sans-Serif" font-size="14.00">value = [15425, 11457]</text>
<text text-anchor="middle" x="276.5" y="-210.2" font-family="Helvetica,sans-Serif" font-size="14.00">class = Animal</text>
</g>
<!-- 1&#45;&gt;2 -->
<g id="edge2" class="edge">
<title>1&#45;&gt;2</title>
<path fill="none" stroke="black" d="M436.53,-332.14C417.41,-322.38 397.14,-312.02 377.68,-302.07"/>
<polygon fill="black" stroke="black" points="379.43,-299.04 368.93,-297.6 376.24,-305.27 379.43,-299.04"/>
</g>
<!-- 8959 -->
<g id="node10" class="node">
<title>8959</title>
<path fill="#eb9f67" stroke="black" d="M594,-296.5C594,-296.5 461,-296.5 461,-296.5 455,-296.5 449,-290.5 449,-284.5 449,-284.5 449,-214.25 449,-214.25 449,-208.25 455,-202.25 461,-202.25 461,-202.25 594,-202.25 594,-202.25 600,-202.25 606,-208.25 606,-214.25 606,-214.25 606,-284.5 606,-284.5 606,-290.5 600,-296.5 594,-296.5"/>
<text text-anchor="middle" x="527.5" y="-279.2" font-family="Helvetica,sans-Serif" font-size="14.00">1_A &lt;= 0.5</text>
<text text-anchor="middle" x="527.5" y="-261.95" font-family="Helvetica,sans-Serif" font-size="14.00">entropy = 0.701</text>
<text text-anchor="middle" x="527.5" y="-244.7" font-family="Helvetica,sans-Serif" font-size="14.00">samples = 1044</text>
<text text-anchor="middle" x="527.5" y="-227.45" font-family="Helvetica,sans-Serif" font-size="14.00">value = [1358, 318]</text>
<text text-anchor="middle" x="527.5" y="-210.2" font-family="Helvetica,sans-Serif" font-size="14.00">class = Animal</text>
</g>
<!-- 1&#45;&gt;8959 -->
<g id="edge9" class="edge">
<title>1&#45;&gt;8959</title>
<path fill="none" stroke="black" d="M527.5,-332.32C527.5,-324.42 527.5,-316.13 527.5,-307.98"/>
<polygon fill="black" stroke="black" points="531,-308.12 527.5,-298.12 524,-308.12 531,-308.12"/>
</g>
<!-- 3 -->
<g id="node4" class="node">
<title>3</title>
<path fill="#f5cfb4" stroke="black" d="M163,-166.25C163,-166.25 12,-166.25 12,-166.25 6,-166.25 0,-160.25 0,-154.25 0,-154.25 0,-84 0,-84 0,-78 6,-72 12,-72 12,-72 163,-72 163,-72 169,-72 175,-78 175,-84 175,-84 175,-154.25 175,-154.25 175,-160.25 169,-166.25 163,-166.25"/>
<text text-anchor="middle" x="87.5" y="-148.95" font-family="Helvetica,sans-Serif" font-size="14.00">22_A &lt;= 0.5</text>
<text text-anchor="middle" x="87.5" y="-131.7" font-family="Helvetica,sans-Serif" font-size="14.00">entropy = 0.96</text>
<text text-anchor="middle" x="87.5" y="-114.45" font-family="Helvetica,sans-Serif" font-size="14.00">samples = 11995</text>
<text text-anchor="middle" x="87.5" y="-97.2" font-family="Helvetica,sans-Serif" font-size="14.00">value = [11690, 7236]</text>
<text text-anchor="middle" x="87.5" y="-79.95" font-family="Helvetica,sans-Serif" font-size="14.00">class = Animal</text>
</g>
<!-- 2&#45;&gt;3 -->
<g id="edge3" class="edge">
<title>2&#45;&gt;3</title>
<path fill="none" stroke="black" d="M208,-201.89C194.13,-192.48 179.46,-182.53 165.3,-172.92"/>
<polygon fill="black" stroke="black" points="167.58,-170.23 157.34,-167.51 163.65,-176.03 167.58,-170.23"/>
</g>
<!-- 6722 -->
<g id="node7" class="node">
<title>6722</title>
<path fill="#e8f4fc" stroke="black" d="M347.5,-166.25C347.5,-166.25 205.5,-166.25 205.5,-166.25 199.5,-166.25 193.5,-160.25 193.5,-154.25 193.5,-154.25 193.5,-84 193.5,-84 193.5,-78 199.5,-72 205.5,-72 205.5,-72 347.5,-72 347.5,-72 353.5,-72 359.5,-78 359.5,-84 359.5,-84 359.5,-154.25 359.5,-154.25 359.5,-160.25 353.5,-166.25 347.5,-166.25"/>
<text text-anchor="middle" x="276.5" y="-148.95" font-family="Helvetica,sans-Serif" font-size="14.00">7_U &lt;= 0.5</text>
<text text-anchor="middle" x="276.5" y="-131.7" font-family="Helvetica,sans-Serif" font-size="14.00">entropy = 0.997</text>
<text text-anchor="middle" x="276.5" y="-114.45" font-family="Helvetica,sans-Serif" font-size="14.00">samples = 4975</text>
<text text-anchor="middle" x="276.5" y="-97.2" font-family="Helvetica,sans-Serif" font-size="14.00">value = [3735, 4221]</text>
<text text-anchor="middle" x="276.5" y="-79.95" font-family="Helvetica,sans-Serif" font-size="14.00">class = Plant</text>
</g>
<!-- 2&#45;&gt;6722 -->
<g id="edge6" class="edge">
<title>2&#45;&gt;6722</title>
<path fill="none" stroke="black" d="M276.5,-202.07C276.5,-194.17 276.5,-185.88 276.5,-177.73"/>
<polygon fill="black" stroke="black" points="280,-177.87 276.5,-167.87 273,-177.87 280,-177.87"/>
</g>
<!-- 4 -->
<g id="node5" class="node">
<title>4</title>
<path fill="#c0c0c0" stroke="black" d="M66.5,-36C66.5,-36 36.5,-36 36.5,-36 30.5,-36 24.5,-30 24.5,-24 24.5,-24 24.5,-12 24.5,-12 24.5,-6 30.5,0 36.5,0 36.5,0 66.5,0 66.5,0 72.5,0 78.5,-6 78.5,-12 78.5,-12 78.5,-24 78.5,-24 78.5,-30 72.5,-36 66.5,-36"/>
<text text-anchor="middle" x="51.5" y="-13.32" font-family="Helvetica,sans-Serif" font-size="14.00">(...)</text>
</g>
<!-- 3&#45;&gt;4 -->
<g id="edge4" class="edge">
<title>3&#45;&gt;4</title>
<path fill="none" stroke="black" d="M70.66,-71.75C67.56,-63.22 64.42,-54.57 61.6,-46.8"/>
<polygon fill="black" stroke="black" points="64.96,-45.8 58.25,-37.6 58.38,-48.19 64.96,-45.8"/>
</g>
<!-- 5933 -->
<g id="node6" class="node">
<title>5933</title>
<path fill="#c0c0c0" stroke="black" d="M138.5,-36C138.5,-36 108.5,-36 108.5,-36 102.5,-36 96.5,-30 96.5,-24 96.5,-24 96.5,-12 96.5,-12 96.5,-6 102.5,0 108.5,0 108.5,0 138.5,0 138.5,0 144.5,0 150.5,-6 150.5,-12 150.5,-12 150.5,-24 150.5,-24 150.5,-30 144.5,-36 138.5,-36"/>
<text text-anchor="middle" x="123.5" y="-13.32" font-family="Helvetica,sans-Serif" font-size="14.00">(...)</text>
</g>
<!-- 3&#45;&gt;5933 -->
<g id="edge5" class="edge">
<title>3&#45;&gt;5933</title>
<path fill="none" stroke="black" d="M104.34,-71.75C107.44,-63.22 110.58,-54.57 113.4,-46.8"/>
<polygon fill="black" stroke="black" points="116.62,-48.19 116.75,-37.6 110.04,-45.8 116.62,-48.19"/>
</g>
<!-- 6723 -->
<g id="node8" class="node">
<title>6723</title>
<path fill="#c0c0c0" stroke="black" d="M246.5,-36C246.5,-36 216.5,-36 216.5,-36 210.5,-36 204.5,-30 204.5,-24 204.5,-24 204.5,-12 204.5,-12 204.5,-6 210.5,0 216.5,0 216.5,0 246.5,0 246.5,0 252.5,0 258.5,-6 258.5,-12 258.5,-12 258.5,-24 258.5,-24 258.5,-30 252.5,-36 246.5,-36"/>
<text text-anchor="middle" x="231.5" y="-13.32" font-family="Helvetica,sans-Serif" font-size="14.00">(...)</text>
</g>
<!-- 6722&#45;&gt;6723 -->
<g id="edge7" class="edge">
<title>6722&#45;&gt;6723</title>
<path fill="none" stroke="black" d="M255.45,-71.75C251.53,-63.12 247.55,-54.36 244,-46.53"/>
<polygon fill="black" stroke="black" points="247.24,-45.21 239.92,-37.55 240.87,-48.1 247.24,-45.21"/>
</g>
<!-- 8448 -->
<g id="node9" class="node">
<title>8448</title>
<path fill="#c0c0c0" stroke="black" d="M318.5,-36C318.5,-36 288.5,-36 288.5,-36 282.5,-36 276.5,-30 276.5,-24 276.5,-24 276.5,-12 276.5,-12 276.5,-6 282.5,0 288.5,0 288.5,0 318.5,0 318.5,0 324.5,0 330.5,-6 330.5,-12 330.5,-12 330.5,-24 330.5,-24 330.5,-30 324.5,-36 318.5,-36"/>
<text text-anchor="middle" x="303.5" y="-13.32" font-family="Helvetica,sans-Serif" font-size="14.00">(...)</text>
</g>
<!-- 6722&#45;&gt;8448 -->
<g id="edge8" class="edge">
<title>6722&#45;&gt;8448</title>
<path fill="none" stroke="black" d="M289.13,-71.75C291.43,-63.32 293.76,-54.77 295.85,-47.07"/>
<polygon fill="black" stroke="black" points="299.17,-48.2 298.42,-37.63 292.42,-46.36 299.17,-48.2"/>
</g>
<!-- 8960 -->
<g id="node11" class="node">
<title>8960</title>
<path fill="#eca571" stroke="black" d="M513.5,-166.25C513.5,-166.25 389.5,-166.25 389.5,-166.25 383.5,-166.25 377.5,-160.25 377.5,-154.25 377.5,-154.25 377.5,-84 377.5,-84 377.5,-78 383.5,-72 389.5,-72 389.5,-72 513.5,-72 513.5,-72 519.5,-72 525.5,-78 525.5,-84 525.5,-84 525.5,-154.25 525.5,-154.25 525.5,-160.25 519.5,-166.25 513.5,-166.25"/>
<text text-anchor="middle" x="451.5" y="-148.95" font-family="Helvetica,sans-Serif" font-size="14.00">21_A &lt;= 0.5</text>
<text text-anchor="middle" x="451.5" y="-131.7" font-family="Helvetica,sans-Serif" font-size="14.00">entropy = 0.762</text>
<text text-anchor="middle" x="451.5" y="-114.45" font-family="Helvetica,sans-Serif" font-size="14.00">samples = 474</text>
<text text-anchor="middle" x="451.5" y="-97.2" font-family="Helvetica,sans-Serif" font-size="14.00">value = [588, 167]</text>
<text text-anchor="middle" x="451.5" y="-79.95" font-family="Helvetica,sans-Serif" font-size="14.00">class = Animal</text>
</g>
<!-- 8959&#45;&gt;8960 -->
<g id="edge10" class="edge">
<title>8959&#45;&gt;8960</title>
<path fill="none" stroke="black" d="M500.06,-202.07C495.06,-193.63 489.79,-184.74 484.64,-176.05"/>
<polygon fill="black" stroke="black" points="487.78,-174.48 479.67,-167.66 481.76,-178.05 487.78,-174.48"/>
</g>
<!-- 9201 -->
<g id="node14" class="node">
<title>9201</title>
<path fill="#ea9a60" stroke="black" d="M679.5,-166.25C679.5,-166.25 555.5,-166.25 555.5,-166.25 549.5,-166.25 543.5,-160.25 543.5,-154.25 543.5,-154.25 543.5,-84 543.5,-84 543.5,-78 549.5,-72 555.5,-72 555.5,-72 679.5,-72 679.5,-72 685.5,-72 691.5,-78 691.5,-84 691.5,-84 691.5,-154.25 691.5,-154.25 691.5,-160.25 685.5,-166.25 679.5,-166.25"/>
<text text-anchor="middle" x="617.5" y="-148.95" font-family="Helvetica,sans-Serif" font-size="14.00">5_G &lt;= 0.5</text>
<text text-anchor="middle" x="617.5" y="-131.7" font-family="Helvetica,sans-Serif" font-size="14.00">entropy = 0.644</text>
<text text-anchor="middle" x="617.5" y="-114.45" font-family="Helvetica,sans-Serif" font-size="14.00">samples = 570</text>
<text text-anchor="middle" x="617.5" y="-97.2" font-family="Helvetica,sans-Serif" font-size="14.00">value = [770, 151]</text>
<text text-anchor="middle" x="617.5" y="-79.95" font-family="Helvetica,sans-Serif" font-size="14.00">class = Animal</text>
</g>
<!-- 8959&#45;&gt;9201 -->
<g id="edge13" class="edge">
<title>8959&#45;&gt;9201</title>
<path fill="none" stroke="black" d="M559.99,-202.07C565.98,-193.54 572.29,-184.54 578.45,-175.77"/>
<polygon fill="black" stroke="black" points="581.31,-177.79 584.19,-167.6 575.58,-173.77 581.31,-177.79"/>
</g>
<!-- 8961 -->
<g id="node12" class="node">
<title>8961</title>
<path fill="#c0c0c0" stroke="black" d="M405.5,-36C405.5,-36 375.5,-36 375.5,-36 369.5,-36 363.5,-30 363.5,-24 363.5,-24 363.5,-12 363.5,-12 363.5,-6 369.5,0 375.5,0 375.5,0 405.5,0 405.5,0 411.5,0 417.5,-6 417.5,-12 417.5,-12 417.5,-24 417.5,-24 417.5,-30 411.5,-36 405.5,-36"/>
<text text-anchor="middle" x="390.5" y="-13.32" font-family="Helvetica,sans-Serif" font-size="14.00">(...)</text>
</g>
<!-- 8960&#45;&gt;8961 -->
<g id="edge11" class="edge">
<title>8960&#45;&gt;8961</title>
<path fill="none" stroke="black" d="M422.96,-71.75C417.47,-62.83 411.89,-53.76 406.94,-45.72"/>
<polygon fill="black" stroke="black" points="410.08,-44.14 401.86,-37.46 404.12,-47.81 410.08,-44.14"/>
</g>
<!-- 9148 -->
<g id="node13" class="node">
<title>9148</title>
<path fill="#c0c0c0" stroke="black" d="M477.5,-36C477.5,-36 447.5,-36 447.5,-36 441.5,-36 435.5,-30 435.5,-24 435.5,-24 435.5,-12 435.5,-12 435.5,-6 441.5,0 447.5,0 447.5,0 477.5,0 477.5,0 483.5,0 489.5,-6 489.5,-12 489.5,-12 489.5,-24 489.5,-24 489.5,-30 483.5,-36 477.5,-36"/>
<text text-anchor="middle" x="462.5" y="-13.32" font-family="Helvetica,sans-Serif" font-size="14.00">(...)</text>
</g>
<!-- 8960&#45;&gt;9148 -->
<g id="edge12" class="edge">
<title>8960&#45;&gt;9148</title>
<path fill="none" stroke="black" d="M456.65,-71.75C457.56,-63.52 458.49,-55.17 459.32,-47.61"/>
<polygon fill="black" stroke="black" points="462.8,-48 460.43,-37.68 455.85,-47.23 462.8,-48"/>
</g>
<!-- 9202 -->
<g id="node15" class="node">
<title>9202</title>
<path fill="#c0c0c0" stroke="black" d="M575.5,-36C575.5,-36 545.5,-36 545.5,-36 539.5,-36 533.5,-30 533.5,-24 533.5,-24 533.5,-12 533.5,-12 533.5,-6 539.5,0 545.5,0 545.5,0 575.5,0 575.5,0 581.5,0 587.5,-6 587.5,-12 587.5,-12 587.5,-24 587.5,-24 587.5,-30 581.5,-36 575.5,-36"/>
<text text-anchor="middle" x="560.5" y="-13.32" font-family="Helvetica,sans-Serif" font-size="14.00">(...)</text>
</g>
<!-- 9201&#45;&gt;9202 -->
<g id="edge14" class="edge">
<title>9201&#45;&gt;9202</title>
<path fill="none" stroke="black" d="M590.84,-71.75C585.76,-62.93 580.6,-53.96 576.02,-45.99"/>
<polygon fill="black" stroke="black" points="579.15,-44.41 571.13,-37.48 573.08,-47.9 579.15,-44.41"/>
</g>
<!-- 9357 -->
<g id="node16" class="node">
<title>9357</title>
<path fill="#c0c0c0" stroke="black" d="M647.5,-36C647.5,-36 617.5,-36 617.5,-36 611.5,-36 605.5,-30 605.5,-24 605.5,-24 605.5,-12 605.5,-12 605.5,-6 611.5,0 617.5,0 617.5,0 647.5,0 647.5,0 653.5,0 659.5,-6 659.5,-12 659.5,-12 659.5,-24 659.5,-24 659.5,-30 653.5,-36 647.5,-36"/>
<text text-anchor="middle" x="632.5" y="-13.32" font-family="Helvetica,sans-Serif" font-size="14.00">(...)</text>
</g>
<!-- 9201&#45;&gt;9357 -->
<g id="edge15" class="edge">
<title>9201&#45;&gt;9357</title>
<path fill="none" stroke="black" d="M624.52,-71.75C625.78,-63.42 627.06,-54.97 628.21,-47.34"/>
<polygon fill="black" stroke="black" points="631.64,-48.08 629.67,-37.67 624.72,-47.03 631.64,-48.08"/>
</g>
<!-- 9405 -->
<g id="node18" class="node">
<title>9405</title>
<path fill="#e5f2fc" stroke="black" d="M959.5,-296.5C959.5,-296.5 799.5,-296.5 799.5,-296.5 793.5,-296.5 787.5,-290.5 787.5,-284.5 787.5,-284.5 787.5,-214.25 787.5,-214.25 787.5,-208.25 793.5,-202.25 799.5,-202.25 799.5,-202.25 959.5,-202.25 959.5,-202.25 965.5,-202.25 971.5,-208.25 971.5,-214.25 971.5,-214.25 971.5,-284.5 971.5,-284.5 971.5,-290.5 965.5,-296.5 959.5,-296.5"/>
<text text-anchor="middle" x="879.5" y="-279.2" font-family="Helvetica,sans-Serif" font-size="14.00">4_C &lt;= 0.5</text>
<text text-anchor="middle" x="879.5" y="-261.95" font-family="Helvetica,sans-Serif" font-size="14.00">entropy = 0.996</text>
<text text-anchor="middle" x="879.5" y="-244.7" font-family="Helvetica,sans-Serif" font-size="14.00">samples = 14799</text>
<text text-anchor="middle" x="879.5" y="-227.45" font-family="Helvetica,sans-Serif" font-size="14.00">value = [10851, 12502]</text>
<text text-anchor="middle" x="879.5" y="-210.2" font-family="Helvetica,sans-Serif" font-size="14.00">class = Plant</text>
</g>
<!-- 9404&#45;&gt;9405 -->
<g id="edge17" class="edge">
<title>9404&#45;&gt;9405</title>
<path fill="none" stroke="black" d="M879.5,-332.32C879.5,-324.42 879.5,-316.13 879.5,-307.98"/>
<polygon fill="black" stroke="black" points="883,-308.12 879.5,-298.12 876,-308.12 883,-308.12"/>
</g>
<!-- 15232 -->
<g id="node25" class="node">
<title>15232</title>
<path fill="#9acdf2" stroke="black" d="M1231.5,-296.5C1231.5,-296.5 1089.5,-296.5 1089.5,-296.5 1083.5,-296.5 1077.5,-290.5 1077.5,-284.5 1077.5,-284.5 1077.5,-214.25 1077.5,-214.25 1077.5,-208.25 1083.5,-202.25 1089.5,-202.25 1089.5,-202.25 1231.5,-202.25 1231.5,-202.25 1237.5,-202.25 1243.5,-208.25 1243.5,-214.25 1243.5,-214.25 1243.5,-284.5 1243.5,-284.5 1243.5,-290.5 1237.5,-296.5 1231.5,-296.5"/>
<text text-anchor="middle" x="1160.5" y="-279.2" font-family="Helvetica,sans-Serif" font-size="14.00">19_U &lt;= 0.5</text>
<text text-anchor="middle" x="1160.5" y="-261.95" font-family="Helvetica,sans-Serif" font-size="14.00">entropy = 0.913</text>
<text text-anchor="middle" x="1160.5" y="-244.7" font-family="Helvetica,sans-Serif" font-size="14.00">samples = 5301</text>
<text text-anchor="middle" x="1160.5" y="-227.45" font-family="Helvetica,sans-Serif" font-size="14.00">value = [2771, 5663]</text>
<text text-anchor="middle" x="1160.5" y="-210.2" font-family="Helvetica,sans-Serif" font-size="14.00">class = Plant</text>
</g>
<!-- 9404&#45;&gt;15232 -->
<g id="edge24" class="edge">
<title>9404&#45;&gt;15232</title>
<path fill="none" stroke="black" d="M971.9,-336.45C1002.37,-322.55 1036.27,-307.08 1066.83,-293.13"/>
<polygon fill="black" stroke="black" points="1068.03,-296.42 1075.68,-289.09 1065.13,-290.06 1068.03,-296.42"/>
</g>
<!-- 9406 -->
<g id="node19" class="node">
<title>9406</title>
<path fill="#fbfdfe" stroke="black" d="M863.5,-166.25C863.5,-166.25 721.5,-166.25 721.5,-166.25 715.5,-166.25 709.5,-160.25 709.5,-154.25 709.5,-154.25 709.5,-84 709.5,-84 709.5,-78 715.5,-72 721.5,-72 721.5,-72 863.5,-72 863.5,-72 869.5,-72 875.5,-78 875.5,-84 875.5,-84 875.5,-154.25 875.5,-154.25 875.5,-160.25 869.5,-166.25 863.5,-166.25"/>
<text text-anchor="middle" x="792.5" y="-148.95" font-family="Helvetica,sans-Serif" font-size="14.00">9_A &lt;= 0.5</text>
<text text-anchor="middle" x="792.5" y="-131.7" font-family="Helvetica,sans-Serif" font-size="14.00">entropy = 1.0</text>
<text text-anchor="middle" x="792.5" y="-114.45" font-family="Helvetica,sans-Serif" font-size="14.00">samples = 10390</text>
<text text-anchor="middle" x="792.5" y="-97.2" font-family="Helvetica,sans-Serif" font-size="14.00">value = [8102, 8267]</text>
<text text-anchor="middle" x="792.5" y="-79.95" font-family="Helvetica,sans-Serif" font-size="14.00">class = Plant</text>
</g>
<!-- 9405&#45;&gt;9406 -->
<g id="edge18" class="edge">
<title>9405&#45;&gt;9406</title>
<path fill="none" stroke="black" d="M848.09,-202.07C842.3,-193.54 836.2,-184.54 830.25,-175.77"/>
<polygon fill="black" stroke="black" points="833.22,-173.92 824.71,-167.61 827.43,-177.85 833.22,-173.92"/>
</g>
<!-- 13895 -->
<g id="node22" class="node">
<title>13895</title>
<path fill="#baddf6" stroke="black" d="M1047.5,-166.25C1047.5,-166.25 905.5,-166.25 905.5,-166.25 899.5,-166.25 893.5,-160.25 893.5,-154.25 893.5,-154.25 893.5,-84 893.5,-84 893.5,-78 899.5,-72 905.5,-72 905.5,-72 1047.5,-72 1047.5,-72 1053.5,-72 1059.5,-78 1059.5,-84 1059.5,-84 1059.5,-154.25 1059.5,-154.25 1059.5,-160.25 1053.5,-166.25 1047.5,-166.25"/>
<text text-anchor="middle" x="976.5" y="-148.95" font-family="Helvetica,sans-Serif" font-size="14.00">5_G &lt;= 0.5</text>
<text text-anchor="middle" x="976.5" y="-131.7" font-family="Helvetica,sans-Serif" font-size="14.00">entropy = 0.967</text>
<text text-anchor="middle" x="976.5" y="-114.45" font-family="Helvetica,sans-Serif" font-size="14.00">samples = 4409</text>
<text text-anchor="middle" x="976.5" y="-97.2" font-family="Helvetica,sans-Serif" font-size="14.00">value = [2749, 4235]</text>
<text text-anchor="middle" x="976.5" y="-79.95" font-family="Helvetica,sans-Serif" font-size="14.00">class = Plant</text>
</g>
<!-- 9405&#45;&gt;13895 -->
<g id="edge21" class="edge">
<title>9405&#45;&gt;13895</title>
<path fill="none" stroke="black" d="M914.52,-202.07C921.04,-193.45 927.92,-184.35 934.63,-175.49"/>
<polygon fill="black" stroke="black" points="937.38,-177.65 940.62,-167.57 931.8,-173.43 937.38,-177.65"/>
</g>
<!-- 9407 -->
<g id="node20" class="node">
<title>9407</title>
<path fill="#c0c0c0" stroke="black" d="M755.5,-36C755.5,-36 725.5,-36 725.5,-36 719.5,-36 713.5,-30 713.5,-24 713.5,-24 713.5,-12 713.5,-12 713.5,-6 719.5,0 725.5,0 725.5,0 755.5,0 755.5,0 761.5,0 767.5,-6 767.5,-12 767.5,-12 767.5,-24 767.5,-24 767.5,-30 761.5,-36 755.5,-36"/>
<text text-anchor="middle" x="740.5" y="-13.32" font-family="Helvetica,sans-Serif" font-size="14.00">(...)</text>
</g>
<!-- 9406&#45;&gt;9407 -->
<g id="edge19" class="edge">
<title>9406&#45;&gt;9407</title>
<path fill="none" stroke="black" d="M768.17,-71.75C763.6,-63.03 758.95,-54.16 754.8,-46.26"/>
<polygon fill="black" stroke="black" points="757.96,-44.74 750.21,-37.51 751.76,-47.99 757.96,-44.74"/>
</g>
<!-- 12814 -->
<g id="node21" class="node">
<title>12814</title>
<path fill="#c0c0c0" stroke="black" d="M827.5,-36C827.5,-36 797.5,-36 797.5,-36 791.5,-36 785.5,-30 785.5,-24 785.5,-24 785.5,-12 785.5,-12 785.5,-6 791.5,0 797.5,0 797.5,0 827.5,0 827.5,0 833.5,0 839.5,-6 839.5,-12 839.5,-12 839.5,-24 839.5,-24 839.5,-30 833.5,-36 827.5,-36"/>
<text text-anchor="middle" x="812.5" y="-13.32" font-family="Helvetica,sans-Serif" font-size="14.00">(...)</text>
</g>
<!-- 9406&#45;&gt;12814 -->
<g id="edge20" class="edge">
<title>9406&#45;&gt;12814</title>
<path fill="none" stroke="black" d="M801.86,-71.75C803.54,-63.42 805.24,-54.97 806.78,-47.34"/>
<polygon fill="black" stroke="black" points="810.19,-48.15 808.74,-37.66 803.33,-46.77 810.19,-48.15"/>
</g>
<!-- 13896 -->
<g id="node23" class="node">
<title>13896</title>
<path fill="#c0c0c0" stroke="black" d="M939.5,-36C939.5,-36 909.5,-36 909.5,-36 903.5,-36 897.5,-30 897.5,-24 897.5,-24 897.5,-12 897.5,-12 897.5,-6 903.5,0 909.5,0 909.5,0 939.5,0 939.5,0 945.5,0 951.5,-6 951.5,-12 951.5,-12 951.5,-24 951.5,-24 951.5,-30 945.5,-36 939.5,-36"/>
<text text-anchor="middle" x="924.5" y="-13.32" font-family="Helvetica,sans-Serif" font-size="14.00">(...)</text>
</g>
<!-- 13895&#45;&gt;13896 -->
<g id="edge22" class="edge">
<title>13895&#45;&gt;13896</title>
<path fill="none" stroke="black" d="M952.17,-71.75C947.6,-63.03 942.95,-54.16 938.8,-46.26"/>
<polygon fill="black" stroke="black" points="941.96,-44.74 934.21,-37.51 935.76,-47.99 941.96,-44.74"/>
</g>
<!-- 15019 -->
<g id="node24" class="node">
<title>15019</title>
<path fill="#c0c0c0" stroke="black" d="M1011.5,-36C1011.5,-36 981.5,-36 981.5,-36 975.5,-36 969.5,-30 969.5,-24 969.5,-24 969.5,-12 969.5,-12 969.5,-6 975.5,0 981.5,0 981.5,0 1011.5,0 1011.5,0 1017.5,0 1023.5,-6 1023.5,-12 1023.5,-12 1023.5,-24 1023.5,-24 1023.5,-30 1017.5,-36 1011.5,-36"/>
<text text-anchor="middle" x="996.5" y="-13.32" font-family="Helvetica,sans-Serif" font-size="14.00">(...)</text>
</g>
<!-- 13895&#45;&gt;15019 -->
<g id="edge23" class="edge">
<title>13895&#45;&gt;15019</title>
<path fill="none" stroke="black" d="M985.86,-71.75C987.54,-63.42 989.24,-54.97 990.78,-47.34"/>
<polygon fill="black" stroke="black" points="994.19,-48.15 992.74,-37.66 987.33,-46.77 994.19,-48.15"/>
</g>
<!-- 15233 -->
<g id="node26" class="node">
<title>15233</title>
<path fill="#83c2ef" stroke="black" d="M1231.5,-166.25C1231.5,-166.25 1089.5,-166.25 1089.5,-166.25 1083.5,-166.25 1077.5,-160.25 1077.5,-154.25 1077.5,-154.25 1077.5,-84 1077.5,-84 1077.5,-78 1083.5,-72 1089.5,-72 1089.5,-72 1231.5,-72 1231.5,-72 1237.5,-72 1243.5,-78 1243.5,-84 1243.5,-84 1243.5,-154.25 1243.5,-154.25 1243.5,-160.25 1237.5,-166.25 1231.5,-166.25"/>
<text text-anchor="middle" x="1160.5" y="-148.95" font-family="Helvetica,sans-Serif" font-size="14.00">9_A &lt;= 0.5</text>
<text text-anchor="middle" x="1160.5" y="-131.7" font-family="Helvetica,sans-Serif" font-size="14.00">entropy = 0.845</text>
<text text-anchor="middle" x="1160.5" y="-114.45" font-family="Helvetica,sans-Serif" font-size="14.00">samples = 4458</text>
<text text-anchor="middle" x="1160.5" y="-97.2" font-family="Helvetica,sans-Serif" font-size="14.00">value = [1927, 5145]</text>
<text text-anchor="middle" x="1160.5" y="-79.95" font-family="Helvetica,sans-Serif" font-size="14.00">class = Plant</text>
</g>
<!-- 15232&#45;&gt;15233 -->
<g id="edge25" class="edge">
<title>15232&#45;&gt;15233</title>
<path fill="none" stroke="black" d="M1160.5,-202.07C1160.5,-194.17 1160.5,-185.88 1160.5,-177.73"/>
<polygon fill="black" stroke="black" points="1164,-177.87 1160.5,-167.87 1157,-177.87 1164,-177.87"/>
</g>
<!-- 16452 -->
<g id="node29" class="node">
<title>16452</title>
<path fill="#f5ceb3" stroke="black" d="M1397.5,-166.25C1397.5,-166.25 1273.5,-166.25 1273.5,-166.25 1267.5,-166.25 1261.5,-160.25 1261.5,-154.25 1261.5,-154.25 1261.5,-84 1261.5,-84 1261.5,-78 1267.5,-72 1273.5,-72 1273.5,-72 1397.5,-72 1397.5,-72 1403.5,-72 1409.5,-78 1409.5,-84 1409.5,-84 1409.5,-154.25 1409.5,-154.25 1409.5,-160.25 1403.5,-166.25 1397.5,-166.25"/>
<text text-anchor="middle" x="1335.5" y="-148.95" font-family="Helvetica,sans-Serif" font-size="14.00">3_U &lt;= 0.5</text>
<text text-anchor="middle" x="1335.5" y="-131.7" font-family="Helvetica,sans-Serif" font-size="14.00">entropy = 0.958</text>
<text text-anchor="middle" x="1335.5" y="-114.45" font-family="Helvetica,sans-Serif" font-size="14.00">samples = 843</text>
<text text-anchor="middle" x="1335.5" y="-97.2" font-family="Helvetica,sans-Serif" font-size="14.00">value = [844, 518]</text>
<text text-anchor="middle" x="1335.5" y="-79.95" font-family="Helvetica,sans-Serif" font-size="14.00">class = Animal</text>
</g>
<!-- 15232&#45;&gt;16452 -->
<g id="edge28" class="edge">
<title>15232&#45;&gt;16452</title>
<path fill="none" stroke="black" d="M1223.68,-202.07C1236.49,-192.69 1250.05,-182.75 1263.14,-173.15"/>
<polygon fill="black" stroke="black" points="1264.9,-176.2 1270.9,-167.47 1260.76,-170.56 1264.9,-176.2"/>
</g>
<!-- 15234 -->
<g id="node27" class="node">
<title>15234</title>
<path fill="#c0c0c0" stroke="black" d="M1136.5,-36C1136.5,-36 1106.5,-36 1106.5,-36 1100.5,-36 1094.5,-30 1094.5,-24 1094.5,-24 1094.5,-12 1094.5,-12 1094.5,-6 1100.5,0 1106.5,0 1106.5,0 1136.5,0 1136.5,0 1142.5,0 1148.5,-6 1148.5,-12 1148.5,-12 1148.5,-24 1148.5,-24 1148.5,-30 1142.5,-36 1136.5,-36"/>
<text text-anchor="middle" x="1121.5" y="-13.32" font-family="Helvetica,sans-Serif" font-size="14.00">(...)</text>
</g>
<!-- 15233&#45;&gt;15234 -->
<g id="edge26" class="edge">
<title>15233&#45;&gt;15234</title>
<path fill="none" stroke="black" d="M1142.26,-71.75C1138.9,-63.22 1135.49,-54.57 1132.44,-46.8"/>
<polygon fill="black" stroke="black" points="1135.73,-45.61 1128.81,-37.58 1129.21,-48.17 1135.73,-45.61"/>
</g>
<!-- 16189 -->
<g id="node28" class="node">
<title>16189</title>
<path fill="#c0c0c0" stroke="black" d="M1208.5,-36C1208.5,-36 1178.5,-36 1178.5,-36 1172.5,-36 1166.5,-30 1166.5,-24 1166.5,-24 1166.5,-12 1166.5,-12 1166.5,-6 1172.5,0 1178.5,0 1178.5,0 1208.5,0 1208.5,0 1214.5,0 1220.5,-6 1220.5,-12 1220.5,-12 1220.5,-24 1220.5,-24 1220.5,-30 1214.5,-36 1208.5,-36"/>
<text text-anchor="middle" x="1193.5" y="-13.32" font-family="Helvetica,sans-Serif" font-size="14.00">(...)</text>
</g>
<!-- 15233&#45;&gt;16189 -->
<g id="edge27" class="edge">
<title>15233&#45;&gt;16189</title>
<path fill="none" stroke="black" d="M1175.94,-71.75C1178.74,-63.32 1181.59,-54.77 1184.16,-47.07"/>
<polygon fill="black" stroke="black" points="1187.47,-48.2 1187.3,-37.61 1180.83,-45.99 1187.47,-48.2"/>
</g>
<!-- 16453 -->
<g id="node30" class="node">
<title>16453</title>
<path fill="#c0c0c0" stroke="black" d="M1314.5,-36C1314.5,-36 1284.5,-36 1284.5,-36 1278.5,-36 1272.5,-30 1272.5,-24 1272.5,-24 1272.5,-12 1272.5,-12 1272.5,-6 1278.5,0 1284.5,0 1284.5,0 1314.5,0 1314.5,0 1320.5,0 1326.5,-6 1326.5,-12 1326.5,-12 1326.5,-24 1326.5,-24 1326.5,-30 1320.5,-36 1314.5,-36"/>
<text text-anchor="middle" x="1299.5" y="-13.32" font-family="Helvetica,sans-Serif" font-size="14.00">(...)</text>
</g>
<!-- 16452&#45;&gt;16453 -->
<g id="edge29" class="edge">
<title>16452&#45;&gt;16453</title>
<path fill="none" stroke="black" d="M1318.66,-71.75C1315.56,-63.22 1312.42,-54.57 1309.6,-46.8"/>
<polygon fill="black" stroke="black" points="1312.96,-45.8 1306.25,-37.6 1306.38,-48.19 1312.96,-45.8"/>
</g>
<!-- 16734 -->
<g id="node31" class="node">
<title>16734</title>
<path fill="#c0c0c0" stroke="black" d="M1386.5,-36C1386.5,-36 1356.5,-36 1356.5,-36 1350.5,-36 1344.5,-30 1344.5,-24 1344.5,-24 1344.5,-12 1344.5,-12 1344.5,-6 1350.5,0 1356.5,0 1356.5,0 1386.5,0 1386.5,0 1392.5,0 1398.5,-6 1398.5,-12 1398.5,-12 1398.5,-24 1398.5,-24 1398.5,-30 1392.5,-36 1386.5,-36"/>
<text text-anchor="middle" x="1371.5" y="-13.32" font-family="Helvetica,sans-Serif" font-size="14.00">(...)</text>
</g>
<!-- 16452&#45;&gt;16734 -->
<g id="edge30" class="edge">
<title>16452&#45;&gt;16734</title>
<path fill="none" stroke="black" d="M1352.34,-71.75C1355.44,-63.22 1358.58,-54.57 1361.4,-46.8"/>
<polygon fill="black" stroke="black" points="1364.62,-48.19 1364.75,-37.6 1358.04,-45.8 1364.62,-48.19"/>
</g>
</g>
</svg>
