<?xml version="1.0" encoding="UTF-8" standalone="no"?>
<!DOCTYPE svg PUBLIC "-//W3C//DTD SVG 1.1//EN"
 "http://www.w3.org/Graphics/SVG/1.1/DTD/svg11.dtd">
<!-- Generated by graphviz version 12.0.0 (20240803.0821)
 -->
<!-- Title: Tree Pages: 1 -->
<svg width="1428pt" height="565pt"
 viewBox="0.00 0.00 1427.50 565.00" xmlns="http://www.w3.org/2000/svg" xmlns:xlink="http://www.w3.org/1999/xlink">
<g id="graph0" class="graph" transform="scale(1 1) rotate(0) translate(4 561)">
<title>Tree</title>
<polygon fill="white" stroke="none" points="-4,4 -4,-561 1423.5,-561 1423.5,4 -4,4"/>
<!-- 0 -->
<g id="node1" class="node">
<title>0</title>
<path fill="#fffefe" stroke="black" d="M812,-557C812,-557 652,-557 652,-557 646,-557 640,-551 640,-545 640,-545 640,-474.75 640,-474.75 640,-468.75 646,-462.75 652,-462.75 652,-462.75 812,-462.75 812,-462.75 818,-462.75 824,-468.75 824,-474.75 824,-474.75 824,-545 824,-545 824,-551 818,-557 812,-557"/>
<text text-anchor="middle" x="732" y="-539.7" font-family="Helvetica,sans-Serif" font-size="14.00">2_A &lt;= 0.5</text>
<text text-anchor="middle" x="732" y="-522.45" font-family="Helvetica,sans-Serif" font-size="14.00">entropy = 1.0</text>
<text text-anchor="middle" x="732" y="-505.2" font-family="Helvetica,sans-Serif" font-size="14.00">samples = 38048</text>
<text text-anchor="middle" x="732" y="-487.95" font-family="Helvetica,sans-Serif" font-size="14.00">value = [30240, 30105]</text>
<text text-anchor="middle" x="732" y="-470.7" font-family="Helvetica,sans-Serif" font-size="14.00">class = Animal</text>
</g>
<!-- 1 -->
<g id="node2" class="node">
<title>1</title>
<path fill="#e2f1fb" stroke="black" d="M639,-426.75C639,-426.75 479,-426.75 479,-426.75 473,-426.75 467,-420.75 467,-414.75 467,-414.75 467,-344.5 467,-344.5 467,-338.5 473,-332.5 479,-332.5 479,-332.5 639,-332.5 639,-332.5 645,-332.5 651,-338.5 651,-344.5 651,-344.5 651,-414.75 651,-414.75 651,-420.75 645,-426.75 639,-426.75"/>
<text text-anchor="middle" x="559" y="-409.45" font-family="Helvetica,sans-Serif" font-size="14.00">19_C &lt;= 0.5</text>
<text text-anchor="middle" x="559" y="-392.2" font-family="Helvetica,sans-Serif" font-size="14.00">entropy = 0.995</text>
<text text-anchor="middle" x="559" y="-374.95" font-family="Helvetica,sans-Serif" font-size="14.00">samples = 28962</text>
<text text-anchor="middle" x="559" y="-357.7" font-family="Helvetica,sans-Serif" font-size="14.00">value = [21128, 24752]</text>
<text text-anchor="middle" x="559" y="-340.45" font-family="Helvetica,sans-Serif" font-size="14.00">class = Plant</text>
</g>
<!-- 0&#45;&gt;1 -->
<g id="edge1" class="edge">
<title>0&#45;&gt;1</title>
<path fill="none" stroke="black" d="M669.54,-462.57C657,-453.28 643.73,-443.44 630.9,-433.93"/>
<polygon fill="black" stroke="black" points="632.99,-431.12 622.87,-427.97 628.82,-436.74 632.99,-431.12"/>
<text text-anchor="middle" x="625.33" y="-447.13" font-family="Helvetica,sans-Serif" font-size="14.00">True</text>
</g>
<!-- 12880 -->
<g id="node17" class="node">
<title>12880</title>
<path fill="#f4cbad" stroke="black" d="M987,-426.75C987,-426.75 845,-426.75 845,-426.75 839,-426.75 833,-420.75 833,-414.75 833,-414.75 833,-344.5 833,-344.5 833,-338.5 839,-332.5 845,-332.5 845,-332.5 987,-332.5 987,-332.5 993,-332.5 999,-338.5 999,-344.5 999,-344.5 999,-414.75 999,-414.75 999,-420.75 993,-426.75 987,-426.75"/>
<text text-anchor="middle" x="916" y="-409.45" font-family="Helvetica,sans-Serif" font-size="14.00">22_U &lt;= 0.5</text>
<text text-anchor="middle" x="916" y="-392.2" font-family="Helvetica,sans-Serif" font-size="14.00">entropy = 0.951</text>
<text text-anchor="middle" x="916" y="-374.95" font-family="Helvetica,sans-Serif" font-size="14.00">samples = 9086</text>
<text text-anchor="middle" x="916" y="-357.7" font-family="Helvetica,sans-Serif" font-size="14.00">value = [9112, 5353]</text>
<text text-anchor="middle" x="916" y="-340.45" font-family="Helvetica,sans-Serif" font-size="14.00">class = Animal</text>
</g>
<!-- 0&#45;&gt;12880 -->
<g id="edge16" class="edge">
<title>0&#45;&gt;12880</title>
<path fill="none" stroke="black" d="M798.69,-462.39C812.06,-453.07 826.2,-443.22 839.86,-433.69"/>
<polygon fill="black" stroke="black" points="841.79,-436.62 847.99,-428.03 837.78,-430.88 841.79,-436.62"/>
<text text-anchor="middle" x="844.84" y="-447.1" font-family="Helvetica,sans-Serif" font-size="14.00">False</text>
</g>
<!-- 2 -->
<g id="node3" class="node">
<title>2</title>
<path fill="#fcefe5" stroke="black" d="M365,-296.5C365,-296.5 205,-296.5 205,-296.5 199,-296.5 193,-290.5 193,-284.5 193,-284.5 193,-214.25 193,-214.25 193,-208.25 199,-202.25 205,-202.25 205,-202.25 365,-202.25 365,-202.25 371,-202.25 377,-208.25 377,-214.25 377,-214.25 377,-284.5 377,-284.5 377,-290.5 371,-296.5 365,-296.5"/>
<text text-anchor="middle" x="285" y="-279.2" font-family="Helvetica,sans-Serif" font-size="14.00">20_G &lt;= 0.5</text>
<text text-anchor="middle" x="285" y="-261.95" font-family="Helvetica,sans-Serif" font-size="14.00">entropy = 0.997</text>
<text text-anchor="middle" x="285" y="-244.7" font-family="Helvetica,sans-Serif" font-size="14.00">samples = 19261</text>
<text text-anchor="middle" x="285" y="-227.45" font-family="Helvetica,sans-Serif" font-size="14.00">value = [16286, 14188]</text>
<text text-anchor="middle" x="285" y="-210.2" font-family="Helvetica,sans-Serif" font-size="14.00">class = Animal</text>
</g>
<!-- 1&#45;&gt;2 -->
<g id="edge2" class="edge">
<title>1&#45;&gt;2</title>
<path fill="none" stroke="black" d="M466.62,-335.38C441.24,-323.51 413.58,-310.56 387.66,-298.43"/>
<polygon fill="black" stroke="black" points="389.36,-295.36 378.82,-294.29 386.39,-301.7 389.36,-295.36"/>
</g>
<!-- 9687 -->
<g id="node10" class="node">
<title>9687</title>
<path fill="#94caf1" stroke="black" d="M634.5,-296.5C634.5,-296.5 483.5,-296.5 483.5,-296.5 477.5,-296.5 471.5,-290.5 471.5,-284.5 471.5,-284.5 471.5,-214.25 471.5,-214.25 471.5,-208.25 477.5,-202.25 483.5,-202.25 483.5,-202.25 634.5,-202.25 634.5,-202.25 640.5,-202.25 646.5,-208.25 646.5,-214.25 646.5,-214.25 646.5,-284.5 646.5,-284.5 646.5,-290.5 640.5,-296.5 634.5,-296.5"/>
<text text-anchor="middle" x="559" y="-279.2" font-family="Helvetica,sans-Serif" font-size="14.00">22_C &lt;= 0.5</text>
<text text-anchor="middle" x="559" y="-261.95" font-family="Helvetica,sans-Serif" font-size="14.00">entropy = 0.898</text>
<text text-anchor="middle" x="559" y="-244.7" font-family="Helvetica,sans-Serif" font-size="14.00">samples = 9701</text>
<text text-anchor="middle" x="559" y="-227.45" font-family="Helvetica,sans-Serif" font-size="14.00">value = [4842, 10564]</text>
<text text-anchor="middle" x="559" y="-210.2" font-family="Helvetica,sans-Serif" font-size="14.00">class = Plant</text>
</g>
<!-- 1&#45;&gt;9687 -->
<g id="edge9" class="edge">
<title>1&#45;&gt;9687</title>
<path fill="none" stroke="black" d="M559,-332.32C559,-324.42 559,-316.13 559,-307.98"/>
<polygon fill="black" stroke="black" points="562.5,-308.12 559,-298.12 555.5,-308.12 562.5,-308.12"/>
</g>
<!-- 3 -->
<g id="node4" class="node">
<title>3</title>
<path fill="#fefeff" stroke="black" d="M172,-166.25C172,-166.25 12,-166.25 12,-166.25 6,-166.25 0,-160.25 0,-154.25 0,-154.25 0,-84 0,-84 0,-78 6,-72 12,-72 12,-72 172,-72 172,-72 178,-72 184,-78 184,-84 184,-84 184,-154.25 184,-154.25 184,-160.25 178,-166.25 172,-166.25"/>
<text text-anchor="middle" x="92" y="-148.95" font-family="Helvetica,sans-Serif" font-size="14.00">19_U &lt;= 0.5</text>
<text text-anchor="middle" x="92" y="-131.7" font-family="Helvetica,sans-Serif" font-size="14.00">entropy = 1.0</text>
<text text-anchor="middle" x="92" y="-114.45" font-family="Helvetica,sans-Serif" font-size="14.00">samples = 14293</text>
<text text-anchor="middle" x="92" y="-97.2" font-family="Helvetica,sans-Serif" font-size="14.00">value = [11248, 11314]</text>
<text text-anchor="middle" x="92" y="-79.95" font-family="Helvetica,sans-Serif" font-size="14.00">class = Plant</text>
</g>
<!-- 2&#45;&gt;3 -->
<g id="edge3" class="edge">
<title>2&#45;&gt;3</title>
<path fill="none" stroke="black" d="M215.05,-201.89C200.89,-192.48 185.9,-182.53 171.45,-172.92"/>
<polygon fill="black" stroke="black" points="173.56,-170.12 163.3,-167.5 169.69,-175.95 173.56,-170.12"/>
</g>
<!-- 6916 -->
<g id="node7" class="node">
<title>6916</title>
<path fill="#f4c9aa" stroke="black" d="M356,-166.25C356,-166.25 214,-166.25 214,-166.25 208,-166.25 202,-160.25 202,-154.25 202,-154.25 202,-84 202,-84 202,-78 208,-72 214,-72 214,-72 356,-72 356,-72 362,-72 368,-78 368,-84 368,-84 368,-154.25 368,-154.25 368,-160.25 362,-166.25 356,-166.25"/>
<text text-anchor="middle" x="285" y="-148.95" font-family="Helvetica,sans-Serif" font-size="14.00">16_G &lt;= 0.5</text>
<text text-anchor="middle" x="285" y="-131.7" font-family="Helvetica,sans-Serif" font-size="14.00">entropy = 0.945</text>
<text text-anchor="middle" x="285" y="-114.45" font-family="Helvetica,sans-Serif" font-size="14.00">samples = 4968</text>
<text text-anchor="middle" x="285" y="-97.2" font-family="Helvetica,sans-Serif" font-size="14.00">value = [5038, 2874]</text>
<text text-anchor="middle" x="285" y="-79.95" font-family="Helvetica,sans-Serif" font-size="14.00">class = Animal</text>
</g>
<!-- 2&#45;&gt;6916 -->
<g id="edge6" class="edge">
<title>2&#45;&gt;6916</title>
<path fill="none" stroke="black" d="M285,-202.07C285,-194.17 285,-185.88 285,-177.73"/>
<polygon fill="black" stroke="black" points="288.5,-177.87 285,-167.87 281.5,-177.87 288.5,-177.87"/>
</g>
<!-- 4 -->
<g id="node5" class="node">
<title>4</title>
<path fill="#c0c0c0" stroke="black" d="M71,-36C71,-36 41,-36 41,-36 35,-36 29,-30 29,-24 29,-24 29,-12 29,-12 29,-6 35,0 41,0 41,0 71,0 71,0 77,0 83,-6 83,-12 83,-12 83,-24 83,-24 83,-30 77,-36 71,-36"/>
<text text-anchor="middle" x="56" y="-13.32" font-family="Helvetica,sans-Serif" font-size="14.00">(...)</text>
</g>
<!-- 3&#45;&gt;4 -->
<g id="edge4" class="edge">
<title>3&#45;&gt;4</title>
<path fill="none" stroke="black" d="M75.16,-71.75C72.06,-63.22 68.92,-54.57 66.1,-46.8"/>
<polygon fill="black" stroke="black" points="69.46,-45.8 62.75,-37.6 62.88,-48.19 69.46,-45.8"/>
</g>
<!-- 4665 -->
<g id="node6" class="node">
<title>4665</title>
<path fill="#c0c0c0" stroke="black" d="M143,-36C143,-36 113,-36 113,-36 107,-36 101,-30 101,-24 101,-24 101,-12 101,-12 101,-6 107,0 113,0 113,0 143,0 143,0 149,0 155,-6 155,-12 155,-12 155,-24 155,-24 155,-30 149,-36 143,-36"/>
<text text-anchor="middle" x="128" y="-13.32" font-family="Helvetica,sans-Serif" font-size="14.00">(...)</text>
</g>
<!-- 3&#45;&gt;4665 -->
<g id="edge5" class="edge">
<title>3&#45;&gt;4665</title>
<path fill="none" stroke="black" d="M108.84,-71.75C111.94,-63.22 115.08,-54.57 117.9,-46.8"/>
<polygon fill="black" stroke="black" points="121.12,-48.19 121.25,-37.6 114.54,-45.8 121.12,-48.19"/>
</g>
<!-- 6917 -->
<g id="node8" class="node">
<title>6917</title>
<path fill="#c0c0c0" stroke="black" d="M269,-36C269,-36 239,-36 239,-36 233,-36 227,-30 227,-24 227,-24 227,-12 227,-12 227,-6 233,0 239,0 239,0 269,0 269,0 275,0 281,-6 281,-12 281,-12 281,-24 281,-24 281,-30 275,-36 269,-36"/>
<text text-anchor="middle" x="254" y="-13.32" font-family="Helvetica,sans-Serif" font-size="14.00">(...)</text>
</g>
<!-- 6916&#45;&gt;6917 -->
<g id="edge7" class="edge">
<title>6916&#45;&gt;6917</title>
<path fill="none" stroke="black" d="M270.5,-71.75C267.86,-63.32 265.19,-54.77 262.78,-47.07"/>
<polygon fill="black" stroke="black" points="266.15,-46.12 259.82,-37.62 259.47,-48.21 266.15,-46.12"/>
</g>
<!-- 8936 -->
<g id="node9" class="node">
<title>8936</title>
<path fill="#c0c0c0" stroke="black" d="M341,-36C341,-36 311,-36 311,-36 305,-36 299,-30 299,-24 299,-24 299,-12 299,-12 299,-6 305,0 311,0 311,0 341,0 341,0 347,0 353,-6 353,-12 353,-12 353,-24 353,-24 353,-30 347,-36 341,-36"/>
<text text-anchor="middle" x="326" y="-13.32" font-family="Helvetica,sans-Serif" font-size="14.00">(...)</text>
</g>
<!-- 6916&#45;&gt;8936 -->
<g id="edge8" class="edge">
<title>6916&#45;&gt;8936</title>
<path fill="none" stroke="black" d="M304.18,-71.75C307.71,-63.22 311.29,-54.57 314.5,-46.8"/>
<polygon fill="black" stroke="black" points="317.73,-48.15 318.32,-37.57 311.26,-45.47 317.73,-48.15"/>
</g>
<!-- 9688 -->
<g id="node11" class="node">
<title>9688</title>
<path fill="#88c4ef" stroke="black" d="M549.5,-166.25C549.5,-166.25 398.5,-166.25 398.5,-166.25 392.5,-166.25 386.5,-160.25 386.5,-154.25 386.5,-154.25 386.5,-84 386.5,-84 386.5,-78 392.5,-72 398.5,-72 398.5,-72 549.5,-72 549.5,-72 555.5,-72 561.5,-78 561.5,-84 561.5,-84 561.5,-154.25 561.5,-154.25 561.5,-160.25 555.5,-166.25 549.5,-166.25"/>
<text text-anchor="middle" x="474" y="-148.95" font-family="Helvetica,sans-Serif" font-size="14.00">1_U &lt;= 0.5</text>
<text text-anchor="middle" x="474" y="-131.7" font-family="Helvetica,sans-Serif" font-size="14.00">entropy = 0.863</text>
<text text-anchor="middle" x="474" y="-114.45" font-family="Helvetica,sans-Serif" font-size="14.00">samples = 8906</text>
<text text-anchor="middle" x="474" y="-97.2" font-family="Helvetica,sans-Serif" font-size="14.00">value = [4031, 10099]</text>
<text text-anchor="middle" x="474" y="-79.95" font-family="Helvetica,sans-Serif" font-size="14.00">class = Plant</text>
</g>
<!-- 9687&#45;&gt;9688 -->
<g id="edge10" class="edge">
<title>9687&#45;&gt;9688</title>
<path fill="none" stroke="black" d="M528.31,-202.07C522.66,-193.54 516.7,-184.54 510.88,-175.77"/>
<polygon fill="black" stroke="black" points="513.92,-174.02 505.48,-167.62 508.09,-177.89 513.92,-174.02"/>
</g>
<!-- 12419 -->
<g id="node14" class="node">
<title>12419</title>
<path fill="#f4c9ab" stroke="black" d="M716,-166.25C716,-166.25 592,-166.25 592,-166.25 586,-166.25 580,-160.25 580,-154.25 580,-154.25 580,-84 580,-84 580,-78 586,-72 592,-72 592,-72 716,-72 716,-72 722,-72 728,-78 728,-84 728,-84 728,-154.25 728,-154.25 728,-160.25 722,-166.25 716,-166.25"/>
<text text-anchor="middle" x="654" y="-148.95" font-family="Helvetica,sans-Serif" font-size="14.00">1_C &lt;= 0.5</text>
<text text-anchor="middle" x="654" y="-131.7" font-family="Helvetica,sans-Serif" font-size="14.00">entropy = 0.946</text>
<text text-anchor="middle" x="654" y="-114.45" font-family="Helvetica,sans-Serif" font-size="14.00">samples = 795</text>
<text text-anchor="middle" x="654" y="-97.2" font-family="Helvetica,sans-Serif" font-size="14.00">value = [811, 465]</text>
<text text-anchor="middle" x="654" y="-79.95" font-family="Helvetica,sans-Serif" font-size="14.00">class = Animal</text>
</g>
<!-- 9687&#45;&gt;12419 -->
<g id="edge13" class="edge">
<title>9687&#45;&gt;12419</title>
<path fill="none" stroke="black" d="M593.3,-202.07C599.69,-193.45 606.42,-184.35 612.99,-175.49"/>
<polygon fill="black" stroke="black" points="615.71,-177.69 618.85,-167.57 610.09,-173.53 615.71,-177.69"/>
</g>
<!-- 9689 -->
<g id="node12" class="node">
<title>9689</title>
<path fill="#c0c0c0" stroke="black" d="M435,-36C435,-36 405,-36 405,-36 399,-36 393,-30 393,-24 393,-24 393,-12 393,-12 393,-6 399,0 405,0 405,0 435,0 435,0 441,0 447,-6 447,-12 447,-12 447,-24 447,-24 447,-30 441,-36 435,-36"/>
<text text-anchor="middle" x="420" y="-13.32" font-family="Helvetica,sans-Serif" font-size="14.00">(...)</text>
</g>
<!-- 9688&#45;&gt;9689 -->
<g id="edge11" class="edge">
<title>9688&#45;&gt;9689</title>
<path fill="none" stroke="black" d="M448.74,-71.75C443.98,-63.03 439.16,-54.16 434.85,-46.26"/>
<polygon fill="black" stroke="black" points="437.94,-44.61 430.08,-37.5 431.79,-47.96 437.94,-44.61"/>
</g>
<!-- 11166 -->
<g id="node13" class="node">
<title>11166</title>
<path fill="#c0c0c0" stroke="black" d="M507,-36C507,-36 477,-36 477,-36 471,-36 465,-30 465,-24 465,-24 465,-12 465,-12 465,-6 471,0 477,0 477,0 507,0 507,0 513,0 519,-6 519,-12 519,-12 519,-24 519,-24 519,-30 513,-36 507,-36"/>
<text text-anchor="middle" x="492" y="-13.32" font-family="Helvetica,sans-Serif" font-size="14.00">(...)</text>
</g>
<!-- 9688&#45;&gt;11166 -->
<g id="edge12" class="edge">
<title>9688&#45;&gt;11166</title>
<path fill="none" stroke="black" d="M482.42,-71.75C483.93,-63.42 485.47,-54.97 486.85,-47.34"/>
<polygon fill="black" stroke="black" points="490.27,-48.13 488.61,-37.66 483.38,-46.88 490.27,-48.13"/>
</g>
<!-- 12420 -->
<g id="node15" class="node">
<title>12420</title>
<path fill="#c0c0c0" stroke="black" d="M612,-36C612,-36 582,-36 582,-36 576,-36 570,-30 570,-24 570,-24 570,-12 570,-12 570,-6 576,0 582,0 582,0 612,0 612,0 618,0 624,-6 624,-12 624,-12 624,-24 624,-24 624,-30 618,-36 612,-36"/>
<text text-anchor="middle" x="597" y="-13.32" font-family="Helvetica,sans-Serif" font-size="14.00">(...)</text>
</g>
<!-- 12419&#45;&gt;12420 -->
<g id="edge14" class="edge">
<title>12419&#45;&gt;12420</title>
<path fill="none" stroke="black" d="M627.34,-71.75C622.26,-62.93 617.1,-53.96 612.52,-45.99"/>
<polygon fill="black" stroke="black" points="615.65,-44.41 607.63,-37.48 609.58,-47.9 615.65,-44.41"/>
</g>
<!-- 12789 -->
<g id="node16" class="node">
<title>12789</title>
<path fill="#c0c0c0" stroke="black" d="M684,-36C684,-36 654,-36 654,-36 648,-36 642,-30 642,-24 642,-24 642,-12 642,-12 642,-6 648,0 654,0 654,0 684,0 684,0 690,0 696,-6 696,-12 696,-12 696,-24 696,-24 696,-30 690,-36 684,-36"/>
<text text-anchor="middle" x="669" y="-13.32" font-family="Helvetica,sans-Serif" font-size="14.00">(...)</text>
</g>
<!-- 12419&#45;&gt;12789 -->
<g id="edge15" class="edge">
<title>12419&#45;&gt;12789</title>
<path fill="none" stroke="black" d="M661.02,-71.75C662.28,-63.42 663.56,-54.97 664.71,-47.34"/>
<polygon fill="black" stroke="black" points="668.14,-48.08 666.17,-37.67 661.22,-47.03 668.14,-48.08"/>
</g>
<!-- 12881 -->
<g id="node18" class="node">
<title>12881</title>
<path fill="#f8dcc8" stroke="black" d="M987,-296.5C987,-296.5 845,-296.5 845,-296.5 839,-296.5 833,-290.5 833,-284.5 833,-284.5 833,-214.25 833,-214.25 833,-208.25 839,-202.25 845,-202.25 845,-202.25 987,-202.25 987,-202.25 993,-202.25 999,-208.25 999,-214.25 999,-214.25 999,-284.5 999,-284.5 999,-290.5 993,-296.5 987,-296.5"/>
<text text-anchor="middle" x="916" y="-279.2" font-family="Helvetica,sans-Serif" font-size="14.00">22_G &lt;= 0.5</text>
<text text-anchor="middle" x="916" y="-261.95" font-family="Helvetica,sans-Serif" font-size="14.00">entropy = 0.981</text>
<text text-anchor="middle" x="916" y="-244.7" font-family="Helvetica,sans-Serif" font-size="14.00">samples = 7603</text>
<text text-anchor="middle" x="916" y="-227.45" font-family="Helvetica,sans-Serif" font-size="14.00">value = [7004, 5073]</text>
<text text-anchor="middle" x="916" y="-210.2" font-family="Helvetica,sans-Serif" font-size="14.00">class = Animal</text>
</g>
<!-- 12880&#45;&gt;12881 -->
<g id="edge17" class="edge">
<title>12880&#45;&gt;12881</title>
<path fill="none" stroke="black" d="M916,-332.32C916,-324.42 916,-316.13 916,-307.98"/>
<polygon fill="black" stroke="black" points="919.5,-308.12 916,-298.12 912.5,-308.12 919.5,-308.12"/>
</g>
<!-- 16474 -->
<g id="node25" class="node">
<title>16474</title>
<path fill="#e89253" stroke="black" d="M1250.5,-296.5C1250.5,-296.5 1117.5,-296.5 1117.5,-296.5 1111.5,-296.5 1105.5,-290.5 1105.5,-284.5 1105.5,-284.5 1105.5,-214.25 1105.5,-214.25 1105.5,-208.25 1111.5,-202.25 1117.5,-202.25 1117.5,-202.25 1250.5,-202.25 1250.5,-202.25 1256.5,-202.25 1262.5,-208.25 1262.5,-214.25 1262.5,-214.25 1262.5,-284.5 1262.5,-284.5 1262.5,-290.5 1256.5,-296.5 1250.5,-296.5"/>
<text text-anchor="middle" x="1184" y="-279.2" font-family="Helvetica,sans-Serif" font-size="14.00">20_U &lt;= 0.5</text>
<text text-anchor="middle" x="1184" y="-261.95" font-family="Helvetica,sans-Serif" font-size="14.00">entropy = 0.521</text>
<text text-anchor="middle" x="1184" y="-244.7" font-family="Helvetica,sans-Serif" font-size="14.00">samples = 1483</text>
<text text-anchor="middle" x="1184" y="-227.45" font-family="Helvetica,sans-Serif" font-size="14.00">value = [2108, 280]</text>
<text text-anchor="middle" x="1184" y="-210.2" font-family="Helvetica,sans-Serif" font-size="14.00">class = Animal</text>
</g>
<!-- 12880&#45;&gt;16474 -->
<g id="edge24" class="edge">
<title>12880&#45;&gt;16474</title>
<path fill="none" stroke="black" d="M999.33,-338.75C1029.7,-324.21 1064.14,-307.73 1094.99,-292.97"/>
<polygon fill="black" stroke="black" points="1096.43,-296.16 1103.94,-288.69 1093.4,-289.85 1096.43,-296.16"/>
</g>
<!-- 12882 -->
<g id="node19" class="node">
<title>12882</title>
<path fill="#fdf6f1" stroke="black" d="M900,-166.25C900,-166.25 758,-166.25 758,-166.25 752,-166.25 746,-160.25 746,-154.25 746,-154.25 746,-84 746,-84 746,-78 752,-72 758,-72 758,-72 900,-72 900,-72 906,-72 912,-78 912,-84 912,-84 912,-154.25 912,-154.25 912,-160.25 906,-166.25 900,-166.25"/>
<text text-anchor="middle" x="829" y="-148.95" font-family="Helvetica,sans-Serif" font-size="14.00">10_A &lt;= 0.5</text>
<text text-anchor="middle" x="829" y="-131.7" font-family="Helvetica,sans-Serif" font-size="14.00">entropy = 0.999</text>
<text text-anchor="middle" x="829" y="-114.45" font-family="Helvetica,sans-Serif" font-size="14.00">samples = 6079</text>
<text text-anchor="middle" x="829" y="-97.2" font-family="Helvetica,sans-Serif" font-size="14.00">value = [4992, 4639]</text>
<text text-anchor="middle" x="829" y="-79.95" font-family="Helvetica,sans-Serif" font-size="14.00">class = Animal</text>
</g>
<!-- 12881&#45;&gt;12882 -->
<g id="edge18" class="edge">
<title>12881&#45;&gt;12882</title>
<path fill="none" stroke="black" d="M884.59,-202.07C878.8,-193.54 872.7,-184.54 866.75,-175.77"/>
<polygon fill="black" stroke="black" points="869.72,-173.92 861.21,-167.61 863.93,-177.85 869.72,-173.92"/>
</g>
<!-- 15931 -->
<g id="node22" class="node">
<title>15931</title>
<path fill="#eb9c64" stroke="black" d="M1075.5,-166.25C1075.5,-166.25 942.5,-166.25 942.5,-166.25 936.5,-166.25 930.5,-160.25 930.5,-154.25 930.5,-154.25 930.5,-84 930.5,-84 930.5,-78 936.5,-72 942.5,-72 942.5,-72 1075.5,-72 1075.5,-72 1081.5,-72 1087.5,-78 1087.5,-84 1087.5,-84 1087.5,-154.25 1087.5,-154.25 1087.5,-160.25 1081.5,-166.25 1075.5,-166.25"/>
<text text-anchor="middle" x="1009" y="-148.95" font-family="Helvetica,sans-Serif" font-size="14.00">17_U &lt;= 0.5</text>
<text text-anchor="middle" x="1009" y="-131.7" font-family="Helvetica,sans-Serif" font-size="14.00">entropy = 0.674</text>
<text text-anchor="middle" x="1009" y="-114.45" font-family="Helvetica,sans-Serif" font-size="14.00">samples = 1524</text>
<text text-anchor="middle" x="1009" y="-97.2" font-family="Helvetica,sans-Serif" font-size="14.00">value = [2012, 434]</text>
<text text-anchor="middle" x="1009" y="-79.95" font-family="Helvetica,sans-Serif" font-size="14.00">class = Animal</text>
</g>
<!-- 12881&#45;&gt;15931 -->
<g id="edge21" class="edge">
<title>12881&#45;&gt;15931</title>
<path fill="none" stroke="black" d="M949.58,-202.07C955.83,-193.45 962.43,-184.35 968.85,-175.49"/>
<polygon fill="black" stroke="black" points="971.55,-177.73 974.59,-167.58 965.88,-173.62 971.55,-177.73"/>
</g>
<!-- 12883 -->
<g id="node20" class="node">
<title>12883</title>
<path fill="#c0c0c0" stroke="black" d="M790,-36C790,-36 760,-36 760,-36 754,-36 748,-30 748,-24 748,-24 748,-12 748,-12 748,-6 754,0 760,0 760,0 790,0 790,0 796,0 802,-6 802,-12 802,-12 802,-24 802,-24 802,-30 796,-36 790,-36"/>
<text text-anchor="middle" x="775" y="-13.32" font-family="Helvetica,sans-Serif" font-size="14.00">(...)</text>
</g>
<!-- 12882&#45;&gt;12883 -->
<g id="edge19" class="edge">
<title>12882&#45;&gt;12883</title>
<path fill="none" stroke="black" d="M803.74,-71.75C798.98,-63.03 794.16,-54.16 789.85,-46.26"/>
<polygon fill="black" stroke="black" points="792.94,-44.61 785.08,-37.5 786.79,-47.96 792.94,-44.61"/>
</g>
<!-- 15190 -->
<g id="node21" class="node">
<title>15190</title>
<path fill="#c0c0c0" stroke="black" d="M862,-36C862,-36 832,-36 832,-36 826,-36 820,-30 820,-24 820,-24 820,-12 820,-12 820,-6 826,0 832,0 832,0 862,0 862,0 868,0 874,-6 874,-12 874,-12 874,-24 874,-24 874,-30 868,-36 862,-36"/>
<text text-anchor="middle" x="847" y="-13.32" font-family="Helvetica,sans-Serif" font-size="14.00">(...)</text>
</g>
<!-- 12882&#45;&gt;15190 -->
<g id="edge20" class="edge">
<title>12882&#45;&gt;15190</title>
<path fill="none" stroke="black" d="M837.42,-71.75C838.93,-63.42 840.47,-54.97 841.85,-47.34"/>
<polygon fill="black" stroke="black" points="845.27,-48.13 843.61,-37.66 838.38,-46.88 845.27,-48.13"/>
</g>
<!-- 15932 -->
<g id="node23" class="node">
<title>15932</title>
<path fill="#c0c0c0" stroke="black" d="M967,-36C967,-36 937,-36 937,-36 931,-36 925,-30 925,-24 925,-24 925,-12 925,-12 925,-6 931,0 937,0 937,0 967,0 967,0 973,0 979,-6 979,-12 979,-12 979,-24 979,-24 979,-30 973,-36 967,-36"/>
<text text-anchor="middle" x="952" y="-13.32" font-family="Helvetica,sans-Serif" font-size="14.00">(...)</text>
</g>
<!-- 15931&#45;&gt;15932 -->
<g id="edge22" class="edge">
<title>15931&#45;&gt;15932</title>
<path fill="none" stroke="black" d="M982.34,-71.75C977.26,-62.93 972.1,-53.96 967.52,-45.99"/>
<polygon fill="black" stroke="black" points="970.65,-44.41 962.63,-37.48 964.58,-47.9 970.65,-44.41"/>
</g>
<!-- 16329 -->
<g id="node24" class="node">
<title>16329</title>
<path fill="#c0c0c0" stroke="black" d="M1039,-36C1039,-36 1009,-36 1009,-36 1003,-36 997,-30 997,-24 997,-24 997,-12 997,-12 997,-6 1003,0 1009,0 1009,0 1039,0 1039,0 1045,0 1051,-6 1051,-12 1051,-12 1051,-24 1051,-24 1051,-30 1045,-36 1039,-36"/>
<text text-anchor="middle" x="1024" y="-13.32" font-family="Helvetica,sans-Serif" font-size="14.00">(...)</text>
</g>
<!-- 15931&#45;&gt;16329 -->
<g id="edge23" class="edge">
<title>15931&#45;&gt;16329</title>
<path fill="none" stroke="black" d="M1016.02,-71.75C1017.28,-63.42 1018.56,-54.97 1019.71,-47.34"/>
<polygon fill="black" stroke="black" points="1023.14,-48.08 1021.17,-37.67 1016.22,-47.03 1023.14,-48.08"/>
</g>
<!-- 16475 -->
<g id="node26" class="node">
<title>16475</title>
<path fill="#e99558" stroke="black" d="M1250.5,-166.25C1250.5,-166.25 1117.5,-166.25 1117.5,-166.25 1111.5,-166.25 1105.5,-160.25 1105.5,-154.25 1105.5,-154.25 1105.5,-84 1105.5,-84 1105.5,-78 1111.5,-72 1117.5,-72 1117.5,-72 1250.5,-72 1250.5,-72 1256.5,-72 1262.5,-78 1262.5,-84 1262.5,-84 1262.5,-154.25 1262.5,-154.25 1262.5,-160.25 1256.5,-166.25 1250.5,-166.25"/>
<text text-anchor="middle" x="1184" y="-148.95" font-family="Helvetica,sans-Serif" font-size="14.00">16_A &lt;= 0.5</text>
<text text-anchor="middle" x="1184" y="-131.7" font-family="Helvetica,sans-Serif" font-size="14.00">entropy = 0.576</text>
<text text-anchor="middle" x="1184" y="-114.45" font-family="Helvetica,sans-Serif" font-size="14.00">samples = 864</text>
<text text-anchor="middle" x="1184" y="-97.2" font-family="Helvetica,sans-Serif" font-size="14.00">value = [1206, 191]</text>
<text text-anchor="middle" x="1184" y="-79.95" font-family="Helvetica,sans-Serif" font-size="14.00">class = Animal</text>
</g>
<!-- 16474&#45;&gt;16475 -->
<g id="edge25" class="edge">
<title>16474&#45;&gt;16475</title>
<path fill="none" stroke="black" d="M1184,-202.07C1184,-194.17 1184,-185.88 1184,-177.73"/>
<polygon fill="black" stroke="black" points="1187.5,-177.87 1184,-167.87 1180.5,-177.87 1187.5,-177.87"/>
</g>
<!-- 16792 -->
<g id="node29" class="node">
<title>16792</title>
<path fill="#e88d4d" stroke="black" d="M1407.5,-166.25C1407.5,-166.25 1292.5,-166.25 1292.5,-166.25 1286.5,-166.25 1280.5,-160.25 1280.5,-154.25 1280.5,-154.25 1280.5,-84 1280.5,-84 1280.5,-78 1286.5,-72 1292.5,-72 1292.5,-72 1407.5,-72 1407.5,-72 1413.5,-72 1419.5,-78 1419.5,-84 1419.5,-84 1419.5,-154.25 1419.5,-154.25 1419.5,-160.25 1413.5,-166.25 1407.5,-166.25"/>
<text text-anchor="middle" x="1350" y="-148.95" font-family="Helvetica,sans-Serif" font-size="14.00">24_A &lt;= 0.5</text>
<text text-anchor="middle" x="1350" y="-131.7" font-family="Helvetica,sans-Serif" font-size="14.00">entropy = 0.436</text>
<text text-anchor="middle" x="1350" y="-114.45" font-family="Helvetica,sans-Serif" font-size="14.00">samples = 619</text>
<text text-anchor="middle" x="1350" y="-97.2" font-family="Helvetica,sans-Serif" font-size="14.00">value = [902, 89]</text>
<text text-anchor="middle" x="1350" y="-79.95" font-family="Helvetica,sans-Serif" font-size="14.00">class = Animal</text>
</g>
<!-- 16474&#45;&gt;16792 -->
<g id="edge28" class="edge">
<title>16474&#45;&gt;16792</title>
<path fill="none" stroke="black" d="M1243.93,-202.07C1255.96,-192.78 1268.7,-182.94 1281.01,-173.43"/>
<polygon fill="black" stroke="black" points="1282.91,-176.38 1288.68,-167.5 1278.63,-170.84 1282.91,-176.38"/>
</g>
<!-- 16476 -->
<g id="node27" class="node">
<title>16476</title>
<path fill="#c0c0c0" stroke="black" d="M1156,-36C1156,-36 1126,-36 1126,-36 1120,-36 1114,-30 1114,-24 1114,-24 1114,-12 1114,-12 1114,-6 1120,0 1126,0 1126,0 1156,0 1156,0 1162,0 1168,-6 1168,-12 1168,-12 1168,-24 1168,-24 1168,-30 1162,-36 1156,-36"/>
<text text-anchor="middle" x="1141" y="-13.32" font-family="Helvetica,sans-Serif" font-size="14.00">(...)</text>
</g>
<!-- 16475&#45;&gt;16476 -->
<g id="edge26" class="edge">
<title>16475&#45;&gt;16476</title>
<path fill="none" stroke="black" d="M1163.88,-71.75C1160.14,-63.12 1156.34,-54.36 1152.94,-46.53"/>
<polygon fill="black" stroke="black" points="1156.24,-45.34 1149.05,-37.56 1149.82,-48.13 1156.24,-45.34"/>
</g>
<!-- 16725 -->
<g id="node28" class="node">
<title>16725</title>
<path fill="#c0c0c0" stroke="black" d="M1228,-36C1228,-36 1198,-36 1198,-36 1192,-36 1186,-30 1186,-24 1186,-24 1186,-12 1186,-12 1186,-6 1192,0 1198,0 1198,0 1228,0 1228,0 1234,0 1240,-6 1240,-12 1240,-12 1240,-24 1240,-24 1240,-30 1234,-36 1228,-36"/>
<text text-anchor="middle" x="1213" y="-13.32" font-family="Helvetica,sans-Serif" font-size="14.00">(...)</text>
</g>
<!-- 16475&#45;&gt;16725 -->
<g id="edge27" class="edge">
<title>16475&#45;&gt;16725</title>
<path fill="none" stroke="black" d="M1197.57,-71.75C1200.03,-63.32 1202.54,-54.77 1204.79,-47.07"/>
<polygon fill="black" stroke="black" points="1208.1,-48.21 1207.55,-37.63 1201.38,-46.24 1208.1,-48.21"/>
</g>
<!-- 16793 -->
<g id="node30" class="node">
<title>16793</title>
<path fill="#c0c0c0" stroke="black" d="M1329,-36C1329,-36 1299,-36 1299,-36 1293,-36 1287,-30 1287,-24 1287,-24 1287,-12 1287,-12 1287,-6 1293,0 1299,0 1299,0 1329,0 1329,0 1335,0 1341,-6 1341,-12 1341,-12 1341,-24 1341,-24 1341,-30 1335,-36 1329,-36"/>
<text text-anchor="middle" x="1314" y="-13.32" font-family="Helvetica,sans-Serif" font-size="14.00">(...)</text>
</g>
<!-- 16792&#45;&gt;16793 -->
<g id="edge29" class="edge">
<title>16792&#45;&gt;16793</title>
<path fill="none" stroke="black" d="M1333.16,-71.75C1330.06,-63.22 1326.92,-54.57 1324.1,-46.8"/>
<polygon fill="black" stroke="black" points="1327.46,-45.8 1320.75,-37.6 1320.88,-48.19 1327.46,-45.8"/>
</g>
<!-- 16942 -->
<g id="node31" class="node">
<title>16942</title>
<path fill="#c0c0c0" stroke="black" d="M1401,-36C1401,-36 1371,-36 1371,-36 1365,-36 1359,-30 1359,-24 1359,-24 1359,-12 1359,-12 1359,-6 1365,0 1371,0 1371,0 1401,0 1401,0 1407,0 1413,-6 1413,-12 1413,-12 1413,-24 1413,-24 1413,-30 1407,-36 1401,-36"/>
<text text-anchor="middle" x="1386" y="-13.32" font-family="Helvetica,sans-Serif" font-size="14.00">(...)</text>
</g>
<!-- 16792&#45;&gt;16942 -->
<g id="edge30" class="edge">
<title>16792&#45;&gt;16942</title>
<path fill="none" stroke="black" d="M1366.84,-71.75C1369.94,-63.22 1373.08,-54.57 1375.9,-46.8"/>
<polygon fill="black" stroke="black" points="1379.12,-48.19 1379.25,-37.6 1372.54,-45.8 1379.12,-48.19"/>
</g>
</g>
</svg>
