<?xml version="1.0" encoding="UTF-8" standalone="no"?>
<!DOCTYPE svg PUBLIC "-//W3C//DTD SVG 1.1//EN"
 "http://www.w3.org/Graphics/SVG/1.1/DTD/svg11.dtd">
<!-- Generated by graphviz version 12.0.0 (20240803.0821)
 -->
<!-- Title: Tree Pages: 1 -->
<svg width="1410pt" height="565pt"
 viewBox="0.00 0.00 1410.00 565.00" xmlns="http://www.w3.org/2000/svg" xmlns:xlink="http://www.w3.org/1999/xlink">
<g id="graph0" class="graph" transform="scale(1 1) rotate(0) translate(4 561)">
<title>Tree</title>
<polygon fill="white" stroke="none" points="-4,4 -4,-561 1406,-561 1406,4 -4,4"/>
<!-- 0 -->
<g id="node1" class="node">
<title>0</title>
<path fill="#fffefe" stroke="black" d="M786.5,-557C786.5,-557 626.5,-557 626.5,-557 620.5,-557 614.5,-551 614.5,-545 614.5,-545 614.5,-474.75 614.5,-474.75 614.5,-468.75 620.5,-462.75 626.5,-462.75 626.5,-462.75 786.5,-462.75 786.5,-462.75 792.5,-462.75 798.5,-468.75 798.5,-474.75 798.5,-474.75 798.5,-545 798.5,-545 798.5,-551 792.5,-557 786.5,-557"/>
<text text-anchor="middle" x="706.5" y="-539.7" font-family="Helvetica,sans-Serif" font-size="14.00">1_U &lt;= 0.5</text>
<text text-anchor="middle" x="706.5" y="-522.45" font-family="Helvetica,sans-Serif" font-size="14.00">entropy = 1.0</text>
<text text-anchor="middle" x="706.5" y="-505.2" font-family="Helvetica,sans-Serif" font-size="14.00">samples = 38114</text>
<text text-anchor="middle" x="706.5" y="-487.95" font-family="Helvetica,sans-Serif" font-size="14.00">value = [30237, 30108]</text>
<text text-anchor="middle" x="706.5" y="-470.7" font-family="Helvetica,sans-Serif" font-size="14.00">class = Animal</text>
</g>
<!-- 1 -->
<g id="node2" class="node">
<title>1</title>
<path fill="#f7dac6" stroke="black" d="M615.5,-426.75C615.5,-426.75 455.5,-426.75 455.5,-426.75 449.5,-426.75 443.5,-420.75 443.5,-414.75 443.5,-414.75 443.5,-344.5 443.5,-344.5 443.5,-338.5 449.5,-332.5 455.5,-332.5 455.5,-332.5 615.5,-332.5 615.5,-332.5 621.5,-332.5 627.5,-338.5 627.5,-344.5 627.5,-344.5 627.5,-414.75 627.5,-414.75 627.5,-420.75 621.5,-426.75 615.5,-426.75"/>
<text text-anchor="middle" x="535.5" y="-409.45" font-family="Helvetica,sans-Serif" font-size="14.00">22_U &lt;= 0.5</text>
<text text-anchor="middle" x="535.5" y="-392.2" font-family="Helvetica,sans-Serif" font-size="14.00">entropy = 0.979</text>
<text text-anchor="middle" x="535.5" y="-374.95" font-family="Helvetica,sans-Serif" font-size="14.00">samples = 17940</text>
<text text-anchor="middle" x="535.5" y="-357.7" font-family="Helvetica,sans-Serif" font-size="14.00">value = [16599, 11788]</text>
<text text-anchor="middle" x="535.5" y="-340.45" font-family="Helvetica,sans-Serif" font-size="14.00">class = Animal</text>
</g>
<!-- 0&#45;&gt;1 -->
<g id="edge1" class="edge">
<title>0&#45;&gt;1</title>
<path fill="none" stroke="black" d="M644.77,-462.57C632.37,-453.28 619.25,-443.44 606.57,-433.93"/>
<polygon fill="black" stroke="black" points="608.74,-431.18 598.64,-427.98 604.54,-436.78 608.74,-431.18"/>
<text text-anchor="middle" x="600.97" y="-447.15" font-family="Helvetica,sans-Serif" font-size="14.00">True</text>
</g>
<!-- 9502 -->
<g id="node17" class="node">
<title>9502</title>
<path fill="#cce6f8" stroke="black" d="M972.5,-426.75C972.5,-426.75 812.5,-426.75 812.5,-426.75 806.5,-426.75 800.5,-420.75 800.5,-414.75 800.5,-414.75 800.5,-344.5 800.5,-344.5 800.5,-338.5 806.5,-332.5 812.5,-332.5 812.5,-332.5 972.5,-332.5 972.5,-332.5 978.5,-332.5 984.5,-338.5 984.5,-344.5 984.5,-344.5 984.5,-414.75 984.5,-414.75 984.5,-420.75 978.5,-426.75 972.5,-426.75"/>
<text text-anchor="middle" x="892.5" y="-409.45" font-family="Helvetica,sans-Serif" font-size="14.00">23_U &lt;= 0.5</text>
<text text-anchor="middle" x="892.5" y="-392.2" font-family="Helvetica,sans-Serif" font-size="14.00">entropy = 0.984</text>
<text text-anchor="middle" x="892.5" y="-374.95" font-family="Helvetica,sans-Serif" font-size="14.00">samples = 20174</text>
<text text-anchor="middle" x="892.5" y="-357.7" font-family="Helvetica,sans-Serif" font-size="14.00">value = [13638, 18320]</text>
<text text-anchor="middle" x="892.5" y="-340.45" font-family="Helvetica,sans-Serif" font-size="14.00">class = Plant</text>
</g>
<!-- 0&#45;&gt;9502 -->
<g id="edge16" class="edge">
<title>0&#45;&gt;9502</title>
<path fill="none" stroke="black" d="M773.91,-462.39C787.43,-453.07 801.73,-443.22 815.54,-433.69"/>
<polygon fill="black" stroke="black" points="817.51,-436.58 823.76,-428.02 813.54,-430.82 817.51,-436.58"/>
<text text-anchor="middle" x="820.49" y="-447.08" font-family="Helvetica,sans-Serif" font-size="14.00">False</text>
</g>
<!-- 2 -->
<g id="node3" class="node">
<title>2</title>
<path fill="#fbeade" stroke="black" d="M356.5,-296.5C356.5,-296.5 196.5,-296.5 196.5,-296.5 190.5,-296.5 184.5,-290.5 184.5,-284.5 184.5,-284.5 184.5,-214.25 184.5,-214.25 184.5,-208.25 190.5,-202.25 196.5,-202.25 196.5,-202.25 356.5,-202.25 356.5,-202.25 362.5,-202.25 368.5,-208.25 368.5,-214.25 368.5,-214.25 368.5,-284.5 368.5,-284.5 368.5,-290.5 362.5,-296.5 356.5,-296.5"/>
<text text-anchor="middle" x="276.5" y="-279.2" font-family="Helvetica,sans-Serif" font-size="14.00">12_G &lt;= 0.5</text>
<text text-anchor="middle" x="276.5" y="-261.95" font-family="Helvetica,sans-Serif" font-size="14.00">entropy = 0.994</text>
<text text-anchor="middle" x="276.5" y="-244.7" font-family="Helvetica,sans-Serif" font-size="14.00">samples = 15314</text>
<text text-anchor="middle" x="276.5" y="-227.45" font-family="Helvetica,sans-Serif" font-size="14.00">value = [13220, 11003]</text>
<text text-anchor="middle" x="276.5" y="-210.2" font-family="Helvetica,sans-Serif" font-size="14.00">class = Animal</text>
</g>
<!-- 1&#45;&gt;2 -->
<g id="edge2" class="edge">
<title>1&#45;&gt;2</title>
<path fill="none" stroke="black" d="M443.09,-332.87C422.37,-322.6 400.26,-311.66 379.15,-301.2"/>
<polygon fill="black" stroke="black" points="380.74,-298.09 370.23,-296.79 377.64,-304.36 380.74,-298.09"/>
</g>
<!-- 8433 -->
<g id="node10" class="node">
<title>8433</title>
<path fill="#eb9e67" stroke="black" d="M602,-296.5C602,-296.5 469,-296.5 469,-296.5 463,-296.5 457,-290.5 457,-284.5 457,-284.5 457,-214.25 457,-214.25 457,-208.25 463,-202.25 469,-202.25 469,-202.25 602,-202.25 602,-202.25 608,-202.25 614,-208.25 614,-214.25 614,-214.25 614,-284.5 614,-284.5 614,-290.5 608,-296.5 602,-296.5"/>
<text text-anchor="middle" x="535.5" y="-279.2" font-family="Helvetica,sans-Serif" font-size="14.00">4_C &lt;= 0.5</text>
<text text-anchor="middle" x="535.5" y="-261.95" font-family="Helvetica,sans-Serif" font-size="14.00">entropy = 0.698</text>
<text text-anchor="middle" x="535.5" y="-244.7" font-family="Helvetica,sans-Serif" font-size="14.00">samples = 2626</text>
<text text-anchor="middle" x="535.5" y="-227.45" font-family="Helvetica,sans-Serif" font-size="14.00">value = [3379, 785]</text>
<text text-anchor="middle" x="535.5" y="-210.2" font-family="Helvetica,sans-Serif" font-size="14.00">class = Animal</text>
</g>
<!-- 1&#45;&gt;8433 -->
<g id="edge9" class="edge">
<title>1&#45;&gt;8433</title>
<path fill="none" stroke="black" d="M535.5,-332.32C535.5,-324.42 535.5,-316.13 535.5,-307.98"/>
<polygon fill="black" stroke="black" points="539,-308.12 535.5,-298.12 532,-308.12 539,-308.12"/>
</g>
<!-- 3 -->
<g id="node4" class="node">
<title>3</title>
<path fill="#f7d9c3" stroke="black" d="M163,-166.25C163,-166.25 12,-166.25 12,-166.25 6,-166.25 0,-160.25 0,-154.25 0,-154.25 0,-84 0,-84 0,-78 6,-72 12,-72 12,-72 163,-72 163,-72 169,-72 175,-78 175,-84 175,-84 175,-154.25 175,-154.25 175,-160.25 169,-166.25 163,-166.25"/>
<text text-anchor="middle" x="87.5" y="-148.95" font-family="Helvetica,sans-Serif" font-size="14.00">19_U &lt;= 0.5</text>
<text text-anchor="middle" x="87.5" y="-131.7" font-family="Helvetica,sans-Serif" font-size="14.00">entropy = 0.977</text>
<text text-anchor="middle" x="87.5" y="-114.45" font-family="Helvetica,sans-Serif" font-size="14.00">samples = 10725</text>
<text text-anchor="middle" x="87.5" y="-97.2" font-family="Helvetica,sans-Serif" font-size="14.00">value = [10009, 6975]</text>
<text text-anchor="middle" x="87.5" y="-79.95" font-family="Helvetica,sans-Serif" font-size="14.00">class = Animal</text>
</g>
<!-- 2&#45;&gt;3 -->
<g id="edge3" class="edge">
<title>2&#45;&gt;3</title>
<path fill="none" stroke="black" d="M208,-201.89C194.13,-192.48 179.46,-182.53 165.3,-172.92"/>
<polygon fill="black" stroke="black" points="167.58,-170.23 157.34,-167.51 163.65,-176.03 167.58,-170.23"/>
</g>
<!-- 6204 -->
<g id="node7" class="node">
<title>6204</title>
<path fill="#d7ebfa" stroke="black" d="M347.5,-166.25C347.5,-166.25 205.5,-166.25 205.5,-166.25 199.5,-166.25 193.5,-160.25 193.5,-154.25 193.5,-154.25 193.5,-84 193.5,-84 193.5,-78 199.5,-72 205.5,-72 205.5,-72 347.5,-72 347.5,-72 353.5,-72 359.5,-78 359.5,-84 359.5,-84 359.5,-154.25 359.5,-154.25 359.5,-160.25 353.5,-166.25 347.5,-166.25"/>
<text text-anchor="middle" x="276.5" y="-148.95" font-family="Helvetica,sans-Serif" font-size="14.00">8_U &lt;= 0.5</text>
<text text-anchor="middle" x="276.5" y="-131.7" font-family="Helvetica,sans-Serif" font-size="14.00">entropy = 0.991</text>
<text text-anchor="middle" x="276.5" y="-114.45" font-family="Helvetica,sans-Serif" font-size="14.00">samples = 4589</text>
<text text-anchor="middle" x="276.5" y="-97.2" font-family="Helvetica,sans-Serif" font-size="14.00">value = [3211, 4028]</text>
<text text-anchor="middle" x="276.5" y="-79.95" font-family="Helvetica,sans-Serif" font-size="14.00">class = Plant</text>
</g>
<!-- 2&#45;&gt;6204 -->
<g id="edge6" class="edge">
<title>2&#45;&gt;6204</title>
<path fill="none" stroke="black" d="M276.5,-202.07C276.5,-194.17 276.5,-185.88 276.5,-177.73"/>
<polygon fill="black" stroke="black" points="280,-177.87 276.5,-167.87 273,-177.87 280,-177.87"/>
</g>
<!-- 4 -->
<g id="node5" class="node">
<title>4</title>
<path fill="#c0c0c0" stroke="black" d="M66.5,-36C66.5,-36 36.5,-36 36.5,-36 30.5,-36 24.5,-30 24.5,-24 24.5,-24 24.5,-12 24.5,-12 24.5,-6 30.5,0 36.5,0 36.5,0 66.5,0 66.5,0 72.5,0 78.5,-6 78.5,-12 78.5,-12 78.5,-24 78.5,-24 78.5,-30 72.5,-36 66.5,-36"/>
<text text-anchor="middle" x="51.5" y="-13.32" font-family="Helvetica,sans-Serif" font-size="14.00">(...)</text>
</g>
<!-- 3&#45;&gt;4 -->
<g id="edge4" class="edge">
<title>3&#45;&gt;4</title>
<path fill="none" stroke="black" d="M70.66,-71.75C67.56,-63.22 64.42,-54.57 61.6,-46.8"/>
<polygon fill="black" stroke="black" points="64.96,-45.8 58.25,-37.6 58.38,-48.19 64.96,-45.8"/>
</g>
<!-- 4605 -->
<g id="node6" class="node">
<title>4605</title>
<path fill="#c0c0c0" stroke="black" d="M138.5,-36C138.5,-36 108.5,-36 108.5,-36 102.5,-36 96.5,-30 96.5,-24 96.5,-24 96.5,-12 96.5,-12 96.5,-6 102.5,0 108.5,0 108.5,0 138.5,0 138.5,0 144.5,0 150.5,-6 150.5,-12 150.5,-12 150.5,-24 150.5,-24 150.5,-30 144.5,-36 138.5,-36"/>
<text text-anchor="middle" x="123.5" y="-13.32" font-family="Helvetica,sans-Serif" font-size="14.00">(...)</text>
</g>
<!-- 3&#45;&gt;4605 -->
<g id="edge5" class="edge">
<title>3&#45;&gt;4605</title>
<path fill="none" stroke="black" d="M104.34,-71.75C107.44,-63.22 110.58,-54.57 113.4,-46.8"/>
<polygon fill="black" stroke="black" points="116.62,-48.19 116.75,-37.6 110.04,-45.8 116.62,-48.19"/>
</g>
<!-- 6205 -->
<g id="node8" class="node">
<title>6205</title>
<path fill="#c0c0c0" stroke="black" d="M250.5,-36C250.5,-36 220.5,-36 220.5,-36 214.5,-36 208.5,-30 208.5,-24 208.5,-24 208.5,-12 208.5,-12 208.5,-6 214.5,0 220.5,0 220.5,0 250.5,0 250.5,0 256.5,0 262.5,-6 262.5,-12 262.5,-12 262.5,-24 262.5,-24 262.5,-30 256.5,-36 250.5,-36"/>
<text text-anchor="middle" x="235.5" y="-13.32" font-family="Helvetica,sans-Serif" font-size="14.00">(...)</text>
</g>
<!-- 6204&#45;&gt;6205 -->
<g id="edge7" class="edge">
<title>6204&#45;&gt;6205</title>
<path fill="none" stroke="black" d="M257.32,-71.75C253.79,-63.22 250.21,-54.57 247,-46.8"/>
<polygon fill="black" stroke="black" points="250.24,-45.47 243.18,-37.57 243.77,-48.15 250.24,-45.47"/>
</g>
<!-- 7826 -->
<g id="node9" class="node">
<title>7826</title>
<path fill="#c0c0c0" stroke="black" d="M322.5,-36C322.5,-36 292.5,-36 292.5,-36 286.5,-36 280.5,-30 280.5,-24 280.5,-24 280.5,-12 280.5,-12 280.5,-6 286.5,0 292.5,0 292.5,0 322.5,0 322.5,0 328.5,0 334.5,-6 334.5,-12 334.5,-12 334.5,-24 334.5,-24 334.5,-30 328.5,-36 322.5,-36"/>
<text text-anchor="middle" x="307.5" y="-13.32" font-family="Helvetica,sans-Serif" font-size="14.00">(...)</text>
</g>
<!-- 6204&#45;&gt;7826 -->
<g id="edge8" class="edge">
<title>6204&#45;&gt;7826</title>
<path fill="none" stroke="black" d="M291,-71.75C293.64,-63.32 296.31,-54.77 298.72,-47.07"/>
<polygon fill="black" stroke="black" points="302.03,-48.21 301.68,-37.62 295.35,-46.12 302.03,-48.21"/>
</g>
<!-- 8434 -->
<g id="node11" class="node">
<title>8434</title>
<path fill="#ea9c63" stroke="black" d="M523,-166.25C523,-166.25 390,-166.25 390,-166.25 384,-166.25 378,-160.25 378,-154.25 378,-154.25 378,-84 378,-84 378,-78 384,-72 390,-72 390,-72 523,-72 523,-72 529,-72 535,-78 535,-84 535,-84 535,-154.25 535,-154.25 535,-160.25 529,-166.25 523,-166.25"/>
<text text-anchor="middle" x="456.5" y="-148.95" font-family="Helvetica,sans-Serif" font-size="14.00">1_A &lt;= 0.5</text>
<text text-anchor="middle" x="456.5" y="-131.7" font-family="Helvetica,sans-Serif" font-size="14.00">entropy = 0.667</text>
<text text-anchor="middle" x="456.5" y="-114.45" font-family="Helvetica,sans-Serif" font-size="14.00">samples = 1990</text>
<text text-anchor="middle" x="456.5" y="-97.2" font-family="Helvetica,sans-Serif" font-size="14.00">value = [2585, 545]</text>
<text text-anchor="middle" x="456.5" y="-79.95" font-family="Helvetica,sans-Serif" font-size="14.00">class = Animal</text>
</g>
<!-- 8433&#45;&gt;8434 -->
<g id="edge10" class="edge">
<title>8433&#45;&gt;8434</title>
<path fill="none" stroke="black" d="M506.98,-202.07C501.78,-193.63 496.3,-184.74 490.95,-176.05"/>
<polygon fill="black" stroke="black" points="494,-174.33 485.77,-167.65 488.04,-178 494,-174.33"/>
</g>
<!-- 9267 -->
<g id="node14" class="node">
<title>9267</title>
<path fill="#eda775" stroke="black" d="M689.5,-166.25C689.5,-166.25 565.5,-166.25 565.5,-166.25 559.5,-166.25 553.5,-160.25 553.5,-154.25 553.5,-154.25 553.5,-84 553.5,-84 553.5,-78 559.5,-72 565.5,-72 565.5,-72 689.5,-72 689.5,-72 695.5,-72 701.5,-78 701.5,-84 701.5,-84 701.5,-154.25 701.5,-154.25 701.5,-160.25 695.5,-166.25 689.5,-166.25"/>
<text text-anchor="middle" x="627.5" y="-148.95" font-family="Helvetica,sans-Serif" font-size="14.00">2_A &lt;= 0.5</text>
<text text-anchor="middle" x="627.5" y="-131.7" font-family="Helvetica,sans-Serif" font-size="14.00">entropy = 0.782</text>
<text text-anchor="middle" x="627.5" y="-114.45" font-family="Helvetica,sans-Serif" font-size="14.00">samples = 636</text>
<text text-anchor="middle" x="627.5" y="-97.2" font-family="Helvetica,sans-Serif" font-size="14.00">value = [794, 240]</text>
<text text-anchor="middle" x="627.5" y="-79.95" font-family="Helvetica,sans-Serif" font-size="14.00">class = Animal</text>
</g>
<!-- 8433&#45;&gt;9267 -->
<g id="edge13" class="edge">
<title>8433&#45;&gt;9267</title>
<path fill="none" stroke="black" d="M568.71,-202.07C574.9,-193.45 581.43,-184.35 587.79,-175.49"/>
<polygon fill="black" stroke="black" points="590.47,-177.75 593.45,-167.59 584.78,-173.67 590.47,-177.75"/>
</g>
<!-- 8435 -->
<g id="node12" class="node">
<title>8435</title>
<path fill="#c0c0c0" stroke="black" d="M412.5,-36C412.5,-36 382.5,-36 382.5,-36 376.5,-36 370.5,-30 370.5,-24 370.5,-24 370.5,-12 370.5,-12 370.5,-6 376.5,0 382.5,0 382.5,0 412.5,0 412.5,0 418.5,0 424.5,-6 424.5,-12 424.5,-12 424.5,-24 424.5,-24 424.5,-30 418.5,-36 412.5,-36"/>
<text text-anchor="middle" x="397.5" y="-13.32" font-family="Helvetica,sans-Serif" font-size="14.00">(...)</text>
</g>
<!-- 8434&#45;&gt;8435 -->
<g id="edge11" class="edge">
<title>8434&#45;&gt;8435</title>
<path fill="none" stroke="black" d="M428.9,-71.75C423.65,-62.93 418.31,-53.96 413.56,-45.99"/>
<polygon fill="black" stroke="black" points="416.62,-44.28 408.5,-37.47 410.6,-47.86 416.62,-44.28"/>
</g>
<!-- 8912 -->
<g id="node13" class="node">
<title>8912</title>
<path fill="#c0c0c0" stroke="black" d="M484.5,-36C484.5,-36 454.5,-36 454.5,-36 448.5,-36 442.5,-30 442.5,-24 442.5,-24 442.5,-12 442.5,-12 442.5,-6 448.5,0 454.5,0 454.5,0 484.5,0 484.5,0 490.5,0 496.5,-6 496.5,-12 496.5,-12 496.5,-24 496.5,-24 496.5,-30 490.5,-36 484.5,-36"/>
<text text-anchor="middle" x="469.5" y="-13.32" font-family="Helvetica,sans-Serif" font-size="14.00">(...)</text>
</g>
<!-- 8434&#45;&gt;8912 -->
<g id="edge12" class="edge">
<title>8434&#45;&gt;8912</title>
<path fill="none" stroke="black" d="M462.58,-71.75C463.67,-63.42 464.78,-54.97 465.78,-47.34"/>
<polygon fill="black" stroke="black" points="469.22,-48.04 467.05,-37.67 462.28,-47.13 469.22,-48.04"/>
</g>
<!-- 9268 -->
<g id="node15" class="node">
<title>9268</title>
<path fill="#c0c0c0" stroke="black" d="M588.5,-36C588.5,-36 558.5,-36 558.5,-36 552.5,-36 546.5,-30 546.5,-24 546.5,-24 546.5,-12 546.5,-12 546.5,-6 552.5,0 558.5,0 558.5,0 588.5,0 588.5,0 594.5,0 600.5,-6 600.5,-12 600.5,-12 600.5,-24 600.5,-24 600.5,-30 594.5,-36 588.5,-36"/>
<text text-anchor="middle" x="573.5" y="-13.32" font-family="Helvetica,sans-Serif" font-size="14.00">(...)</text>
</g>
<!-- 9267&#45;&gt;9268 -->
<g id="edge14" class="edge">
<title>9267&#45;&gt;9268</title>
<path fill="none" stroke="black" d="M602.24,-71.75C597.48,-63.03 592.66,-54.16 588.35,-46.26"/>
<polygon fill="black" stroke="black" points="591.44,-44.61 583.58,-37.5 585.29,-47.96 591.44,-44.61"/>
</g>
<!-- 9445 -->
<g id="node16" class="node">
<title>9445</title>
<path fill="#c0c0c0" stroke="black" d="M660.5,-36C660.5,-36 630.5,-36 630.5,-36 624.5,-36 618.5,-30 618.5,-24 618.5,-24 618.5,-12 618.5,-12 618.5,-6 624.5,0 630.5,0 630.5,0 660.5,0 660.5,0 666.5,0 672.5,-6 672.5,-12 672.5,-12 672.5,-24 672.5,-24 672.5,-30 666.5,-36 660.5,-36"/>
<text text-anchor="middle" x="645.5" y="-13.32" font-family="Helvetica,sans-Serif" font-size="14.00">(...)</text>
</g>
<!-- 9267&#45;&gt;9445 -->
<g id="edge15" class="edge">
<title>9267&#45;&gt;9445</title>
<path fill="none" stroke="black" d="M635.92,-71.75C637.43,-63.42 638.97,-54.97 640.35,-47.34"/>
<polygon fill="black" stroke="black" points="643.77,-48.13 642.11,-37.66 636.88,-46.88 643.77,-48.13"/>
</g>
<!-- 9503 -->
<g id="node18" class="node">
<title>9503</title>
<path fill="#c0e0f7" stroke="black" d="M972.5,-296.5C972.5,-296.5 812.5,-296.5 812.5,-296.5 806.5,-296.5 800.5,-290.5 800.5,-284.5 800.5,-284.5 800.5,-214.25 800.5,-214.25 800.5,-208.25 806.5,-202.25 812.5,-202.25 812.5,-202.25 972.5,-202.25 972.5,-202.25 978.5,-202.25 984.5,-208.25 984.5,-214.25 984.5,-214.25 984.5,-284.5 984.5,-284.5 984.5,-290.5 978.5,-296.5 972.5,-296.5"/>
<text text-anchor="middle" x="892.5" y="-279.2" font-family="Helvetica,sans-Serif" font-size="14.00">22_U &lt;= 0.5</text>
<text text-anchor="middle" x="892.5" y="-261.95" font-family="Helvetica,sans-Serif" font-size="14.00">entropy = 0.974</text>
<text text-anchor="middle" x="892.5" y="-244.7" font-family="Helvetica,sans-Serif" font-size="14.00">samples = 19267</text>
<text text-anchor="middle" x="892.5" y="-227.45" font-family="Helvetica,sans-Serif" font-size="14.00">value = [12376, 18145]</text>
<text text-anchor="middle" x="892.5" y="-210.2" font-family="Helvetica,sans-Serif" font-size="14.00">class = Plant</text>
</g>
<!-- 9502&#45;&gt;9503 -->
<g id="edge17" class="edge">
<title>9502&#45;&gt;9503</title>
<path fill="none" stroke="black" d="M892.5,-332.32C892.5,-324.42 892.5,-316.13 892.5,-307.98"/>
<polygon fill="black" stroke="black" points="896,-308.12 892.5,-298.12 889,-308.12 896,-308.12"/>
</g>
<!-- 16554 -->
<g id="node25" class="node">
<title>16554</title>
<path fill="#e99254" stroke="black" d="M1233,-296.5C1233,-296.5 1100,-296.5 1100,-296.5 1094,-296.5 1088,-290.5 1088,-284.5 1088,-284.5 1088,-214.25 1088,-214.25 1088,-208.25 1094,-202.25 1100,-202.25 1100,-202.25 1233,-202.25 1233,-202.25 1239,-202.25 1245,-208.25 1245,-214.25 1245,-214.25 1245,-284.5 1245,-284.5 1245,-290.5 1239,-296.5 1233,-296.5"/>
<text text-anchor="middle" x="1166.5" y="-279.2" font-family="Helvetica,sans-Serif" font-size="14.00">3_C &lt;= 0.5</text>
<text text-anchor="middle" x="1166.5" y="-261.95" font-family="Helvetica,sans-Serif" font-size="14.00">entropy = 0.534</text>
<text text-anchor="middle" x="1166.5" y="-244.7" font-family="Helvetica,sans-Serif" font-size="14.00">samples = 907</text>
<text text-anchor="middle" x="1166.5" y="-227.45" font-family="Helvetica,sans-Serif" font-size="14.00">value = [1262, 175]</text>
<text text-anchor="middle" x="1166.5" y="-210.2" font-family="Helvetica,sans-Serif" font-size="14.00">class = Animal</text>
</g>
<!-- 9502&#45;&gt;16554 -->
<g id="edge24" class="edge">
<title>9502&#45;&gt;16554</title>
<path fill="none" stroke="black" d="M984.88,-335.38C1014.76,-321.4 1047.82,-305.92 1077.45,-292.05"/>
<polygon fill="black" stroke="black" points="1078.84,-295.27 1086.41,-287.86 1075.87,-288.93 1078.84,-295.27"/>
</g>
<!-- 9504 -->
<g id="node19" class="node">
<title>9504</title>
<path fill="#a5d2f3" stroke="black" d="M883,-166.25C883,-166.25 732,-166.25 732,-166.25 726,-166.25 720,-160.25 720,-154.25 720,-154.25 720,-84 720,-84 720,-78 726,-72 732,-72 732,-72 883,-72 883,-72 889,-72 895,-78 895,-84 895,-84 895,-154.25 895,-154.25 895,-160.25 889,-166.25 883,-166.25"/>
<text text-anchor="middle" x="807.5" y="-148.95" font-family="Helvetica,sans-Serif" font-size="14.00">8_U &lt;= 0.5</text>
<text text-anchor="middle" x="807.5" y="-131.7" font-family="Helvetica,sans-Serif" font-size="14.00">entropy = 0.936</text>
<text text-anchor="middle" x="807.5" y="-114.45" font-family="Helvetica,sans-Serif" font-size="14.00">samples = 16970</text>
<text text-anchor="middle" x="807.5" y="-97.2" font-family="Helvetica,sans-Serif" font-size="14.00">value = [9459, 17400]</text>
<text text-anchor="middle" x="807.5" y="-79.95" font-family="Helvetica,sans-Serif" font-size="14.00">class = Plant</text>
</g>
<!-- 9503&#45;&gt;9504 -->
<g id="edge18" class="edge">
<title>9503&#45;&gt;9504</title>
<path fill="none" stroke="black" d="M861.81,-202.07C856.16,-193.54 850.2,-184.54 844.38,-175.77"/>
<polygon fill="black" stroke="black" points="847.42,-174.02 838.98,-167.62 841.59,-177.89 847.42,-174.02"/>
</g>
<!-- 15647 -->
<g id="node22" class="node">
<title>15647</title>
<path fill="#eca16c" stroke="black" d="M1058,-166.25C1058,-166.25 925,-166.25 925,-166.25 919,-166.25 913,-160.25 913,-154.25 913,-154.25 913,-84 913,-84 913,-78 919,-72 925,-72 925,-72 1058,-72 1058,-72 1064,-72 1070,-78 1070,-84 1070,-84 1070,-154.25 1070,-154.25 1070,-160.25 1064,-166.25 1058,-166.25"/>
<text text-anchor="middle" x="991.5" y="-148.95" font-family="Helvetica,sans-Serif" font-size="14.00">9_G &lt;= 0.5</text>
<text text-anchor="middle" x="991.5" y="-131.7" font-family="Helvetica,sans-Serif" font-size="14.00">entropy = 0.729</text>
<text text-anchor="middle" x="991.5" y="-114.45" font-family="Helvetica,sans-Serif" font-size="14.00">samples = 2297</text>
<text text-anchor="middle" x="991.5" y="-97.2" font-family="Helvetica,sans-Serif" font-size="14.00">value = [2917, 745]</text>
<text text-anchor="middle" x="991.5" y="-79.95" font-family="Helvetica,sans-Serif" font-size="14.00">class = Animal</text>
</g>
<!-- 9503&#45;&gt;15647 -->
<g id="edge21" class="edge">
<title>9503&#45;&gt;15647</title>
<path fill="none" stroke="black" d="M928.24,-202.07C934.97,-193.36 942.07,-184.16 948.98,-175.21"/>
<polygon fill="black" stroke="black" points="951.55,-177.61 954.89,-167.56 946.01,-173.33 951.55,-177.61"/>
</g>
<!-- 9505 -->
<g id="node20" class="node">
<title>9505</title>
<path fill="#c0c0c0" stroke="black" d="M770.5,-36C770.5,-36 740.5,-36 740.5,-36 734.5,-36 728.5,-30 728.5,-24 728.5,-24 728.5,-12 728.5,-12 728.5,-6 734.5,0 740.5,0 740.5,0 770.5,0 770.5,0 776.5,0 782.5,-6 782.5,-12 782.5,-12 782.5,-24 782.5,-24 782.5,-30 776.5,-36 770.5,-36"/>
<text text-anchor="middle" x="755.5" y="-13.32" font-family="Helvetica,sans-Serif" font-size="14.00">(...)</text>
</g>
<!-- 9504&#45;&gt;9505 -->
<g id="edge19" class="edge">
<title>9504&#45;&gt;9505</title>
<path fill="none" stroke="black" d="M783.17,-71.75C778.6,-63.03 773.95,-54.16 769.8,-46.26"/>
<polygon fill="black" stroke="black" points="772.96,-44.74 765.21,-37.51 766.76,-47.99 772.96,-44.74"/>
</g>
<!-- 14022 -->
<g id="node21" class="node">
<title>14022</title>
<path fill="#c0c0c0" stroke="black" d="M842.5,-36C842.5,-36 812.5,-36 812.5,-36 806.5,-36 800.5,-30 800.5,-24 800.5,-24 800.5,-12 800.5,-12 800.5,-6 806.5,0 812.5,0 812.5,0 842.5,0 842.5,0 848.5,0 854.5,-6 854.5,-12 854.5,-12 854.5,-24 854.5,-24 854.5,-30 848.5,-36 842.5,-36"/>
<text text-anchor="middle" x="827.5" y="-13.32" font-family="Helvetica,sans-Serif" font-size="14.00">(...)</text>
</g>
<!-- 9504&#45;&gt;14022 -->
<g id="edge20" class="edge">
<title>9504&#45;&gt;14022</title>
<path fill="none" stroke="black" d="M816.86,-71.75C818.54,-63.42 820.24,-54.97 821.78,-47.34"/>
<polygon fill="black" stroke="black" points="825.19,-48.15 823.74,-37.66 818.33,-46.77 825.19,-48.15"/>
</g>
<!-- 15648 -->
<g id="node23" class="node">
<title>15648</title>
<path fill="#c0c0c0" stroke="black" d="M949.5,-36C949.5,-36 919.5,-36 919.5,-36 913.5,-36 907.5,-30 907.5,-24 907.5,-24 907.5,-12 907.5,-12 907.5,-6 913.5,0 919.5,0 919.5,0 949.5,0 949.5,0 955.5,0 961.5,-6 961.5,-12 961.5,-12 961.5,-24 961.5,-24 961.5,-30 955.5,-36 949.5,-36"/>
<text text-anchor="middle" x="934.5" y="-13.32" font-family="Helvetica,sans-Serif" font-size="14.00">(...)</text>
</g>
<!-- 15647&#45;&gt;15648 -->
<g id="edge22" class="edge">
<title>15647&#45;&gt;15648</title>
<path fill="none" stroke="black" d="M964.84,-71.75C959.76,-62.93 954.6,-53.96 950.02,-45.99"/>
<polygon fill="black" stroke="black" points="953.15,-44.41 945.13,-37.48 947.08,-47.9 953.15,-44.41"/>
</g>
<!-- 16319 -->
<g id="node24" class="node">
<title>16319</title>
<path fill="#c0c0c0" stroke="black" d="M1021.5,-36C1021.5,-36 991.5,-36 991.5,-36 985.5,-36 979.5,-30 979.5,-24 979.5,-24 979.5,-12 979.5,-12 979.5,-6 985.5,0 991.5,0 991.5,0 1021.5,0 1021.5,0 1027.5,0 1033.5,-6 1033.5,-12 1033.5,-12 1033.5,-24 1033.5,-24 1033.5,-30 1027.5,-36 1021.5,-36"/>
<text text-anchor="middle" x="1006.5" y="-13.32" font-family="Helvetica,sans-Serif" font-size="14.00">(...)</text>
</g>
<!-- 15647&#45;&gt;16319 -->
<g id="edge23" class="edge">
<title>15647&#45;&gt;16319</title>
<path fill="none" stroke="black" d="M998.52,-71.75C999.78,-63.42 1001.06,-54.97 1002.21,-47.34"/>
<polygon fill="black" stroke="black" points="1005.64,-48.08 1003.67,-37.67 998.72,-47.03 1005.64,-48.08"/>
</g>
<!-- 16555 -->
<g id="node26" class="node">
<title>16555</title>
<path fill="#e89050" stroke="black" d="M1233,-166.25C1233,-166.25 1100,-166.25 1100,-166.25 1094,-166.25 1088,-160.25 1088,-154.25 1088,-154.25 1088,-84 1088,-84 1088,-78 1094,-72 1100,-72 1100,-72 1233,-72 1233,-72 1239,-72 1245,-78 1245,-84 1245,-84 1245,-154.25 1245,-154.25 1245,-160.25 1239,-166.25 1233,-166.25"/>
<text text-anchor="middle" x="1166.5" y="-148.95" font-family="Helvetica,sans-Serif" font-size="14.00">27_U &lt;= 0.5</text>
<text text-anchor="middle" x="1166.5" y="-131.7" font-family="Helvetica,sans-Serif" font-size="14.00">entropy = 0.486</text>
<text text-anchor="middle" x="1166.5" y="-114.45" font-family="Helvetica,sans-Serif" font-size="14.00">samples = 775</text>
<text text-anchor="middle" x="1166.5" y="-97.2" font-family="Helvetica,sans-Serif" font-size="14.00">value = [1103, 130]</text>
<text text-anchor="middle" x="1166.5" y="-79.95" font-family="Helvetica,sans-Serif" font-size="14.00">class = Animal</text>
</g>
<!-- 16554&#45;&gt;16555 -->
<g id="edge25" class="edge">
<title>16554&#45;&gt;16555</title>
<path fill="none" stroke="black" d="M1166.5,-202.07C1166.5,-194.17 1166.5,-185.88 1166.5,-177.73"/>
<polygon fill="black" stroke="black" points="1170,-177.87 1166.5,-167.87 1163,-177.87 1170,-177.87"/>
</g>
<!-- 16782 -->
<g id="node29" class="node">
<title>16782</title>
<path fill="#eca571" stroke="black" d="M1390,-166.25C1390,-166.25 1275,-166.25 1275,-166.25 1269,-166.25 1263,-160.25 1263,-154.25 1263,-154.25 1263,-84 1263,-84 1263,-78 1269,-72 1275,-72 1275,-72 1390,-72 1390,-72 1396,-72 1402,-78 1402,-84 1402,-84 1402,-154.25 1402,-154.25 1402,-160.25 1396,-166.25 1390,-166.25"/>
<text text-anchor="middle" x="1332.5" y="-148.95" font-family="Helvetica,sans-Serif" font-size="14.00">5_A &lt;= 0.5</text>
<text text-anchor="middle" x="1332.5" y="-131.7" font-family="Helvetica,sans-Serif" font-size="14.00">entropy = 0.761</text>
<text text-anchor="middle" x="1332.5" y="-114.45" font-family="Helvetica,sans-Serif" font-size="14.00">samples = 132</text>
<text text-anchor="middle" x="1332.5" y="-97.2" font-family="Helvetica,sans-Serif" font-size="14.00">value = [159, 45]</text>
<text text-anchor="middle" x="1332.5" y="-79.95" font-family="Helvetica,sans-Serif" font-size="14.00">class = Animal</text>
</g>
<!-- 16554&#45;&gt;16782 -->
<g id="edge28" class="edge">
<title>16554&#45;&gt;16782</title>
<path fill="none" stroke="black" d="M1226.43,-202.07C1238.46,-192.78 1251.2,-182.94 1263.51,-173.43"/>
<polygon fill="black" stroke="black" points="1265.41,-176.38 1271.18,-167.5 1261.13,-170.84 1265.41,-176.38"/>
</g>
<!-- 16556 -->
<g id="node27" class="node">
<title>16556</title>
<path fill="#c0c0c0" stroke="black" d="M1138.5,-36C1138.5,-36 1108.5,-36 1108.5,-36 1102.5,-36 1096.5,-30 1096.5,-24 1096.5,-24 1096.5,-12 1096.5,-12 1096.5,-6 1102.5,0 1108.5,0 1108.5,0 1138.5,0 1138.5,0 1144.5,0 1150.5,-6 1150.5,-12 1150.5,-12 1150.5,-24 1150.5,-24 1150.5,-30 1144.5,-36 1138.5,-36"/>
<text text-anchor="middle" x="1123.5" y="-13.32" font-family="Helvetica,sans-Serif" font-size="14.00">(...)</text>
</g>
<!-- 16555&#45;&gt;16556 -->
<g id="edge26" class="edge">
<title>16555&#45;&gt;16556</title>
<path fill="none" stroke="black" d="M1146.38,-71.75C1142.64,-63.12 1138.84,-54.36 1135.44,-46.53"/>
<polygon fill="black" stroke="black" points="1138.74,-45.34 1131.55,-37.56 1132.32,-48.13 1138.74,-45.34"/>
</g>
<!-- 16781 -->
<g id="node28" class="node">
<title>16781</title>
<path fill="#c0c0c0" stroke="black" d="M1210.5,-36C1210.5,-36 1180.5,-36 1180.5,-36 1174.5,-36 1168.5,-30 1168.5,-24 1168.5,-24 1168.5,-12 1168.5,-12 1168.5,-6 1174.5,0 1180.5,0 1180.5,0 1210.5,0 1210.5,0 1216.5,0 1222.5,-6 1222.5,-12 1222.5,-12 1222.5,-24 1222.5,-24 1222.5,-30 1216.5,-36 1210.5,-36"/>
<text text-anchor="middle" x="1195.5" y="-13.32" font-family="Helvetica,sans-Serif" font-size="14.00">(...)</text>
</g>
<!-- 16555&#45;&gt;16781 -->
<g id="edge27" class="edge">
<title>16555&#45;&gt;16781</title>
<path fill="none" stroke="black" d="M1180.07,-71.75C1182.53,-63.32 1185.04,-54.77 1187.29,-47.07"/>
<polygon fill="black" stroke="black" points="1190.6,-48.21 1190.05,-37.63 1183.88,-46.24 1190.6,-48.21"/>
</g>
<!-- 16783 -->
<g id="node30" class="node">
<title>16783</title>
<path fill="#c0c0c0" stroke="black" d="M1311.5,-36C1311.5,-36 1281.5,-36 1281.5,-36 1275.5,-36 1269.5,-30 1269.5,-24 1269.5,-24 1269.5,-12 1269.5,-12 1269.5,-6 1275.5,0 1281.5,0 1281.5,0 1311.5,0 1311.5,0 1317.5,0 1323.5,-6 1323.5,-12 1323.5,-12 1323.5,-24 1323.5,-24 1323.5,-30 1317.5,-36 1311.5,-36"/>
<text text-anchor="middle" x="1296.5" y="-13.32" font-family="Helvetica,sans-Serif" font-size="14.00">(...)</text>
</g>
<!-- 16782&#45;&gt;16783 -->
<g id="edge29" class="edge">
<title>16782&#45;&gt;16783</title>
<path fill="none" stroke="black" d="M1315.66,-71.75C1312.56,-63.22 1309.42,-54.57 1306.6,-46.8"/>
<polygon fill="black" stroke="black" points="1309.96,-45.8 1303.25,-37.6 1303.38,-48.19 1309.96,-45.8"/>
</g>
<!-- 16828 -->
<g id="node31" class="node">
<title>16828</title>
<path fill="#c0c0c0" stroke="black" d="M1383.5,-36C1383.5,-36 1353.5,-36 1353.5,-36 1347.5,-36 1341.5,-30 1341.5,-24 1341.5,-24 1341.5,-12 1341.5,-12 1341.5,-6 1347.5,0 1353.5,0 1353.5,0 1383.5,0 1383.5,0 1389.5,0 1395.5,-6 1395.5,-12 1395.5,-12 1395.5,-24 1395.5,-24 1395.5,-30 1389.5,-36 1383.5,-36"/>
<text text-anchor="middle" x="1368.5" y="-13.32" font-family="Helvetica,sans-Serif" font-size="14.00">(...)</text>
</g>
<!-- 16782&#45;&gt;16828 -->
<g id="edge30" class="edge">
<title>16782&#45;&gt;16828</title>
<path fill="none" stroke="black" d="M1349.34,-71.75C1352.44,-63.22 1355.58,-54.57 1358.4,-46.8"/>
<polygon fill="black" stroke="black" points="1361.62,-48.19 1361.75,-37.6 1355.04,-45.8 1361.62,-48.19"/>
</g>
</g>
</svg>
