<?xml version="1.0" encoding="UTF-8" standalone="no"?>
<!DOCTYPE svg PUBLIC "-//W3C//DTD SVG 1.1//EN"
 "http://www.w3.org/Graphics/SVG/1.1/DTD/svg11.dtd">
<!-- Generated by graphviz version 12.0.0 (20240803.0821)
 -->
<!-- Title: Tree Pages: 1 -->
<svg width="1455pt" height="565pt"
 viewBox="0.00 0.00 1454.50 565.00" xmlns="http://www.w3.org/2000/svg" xmlns:xlink="http://www.w3.org/1999/xlink">
<g id="graph0" class="graph" transform="scale(1 1) rotate(0) translate(4 561)">
<title>Tree</title>
<polygon fill="white" stroke="none" points="-4,4 -4,-561 1450.5,-561 1450.5,4 -4,4"/>
<!-- 0 -->
<g id="node1" class="node">
<title>0</title>
<path fill="#fffffe" stroke="black" d="M812,-557C812,-557 652,-557 652,-557 646,-557 640,-551 640,-545 640,-545 640,-474.75 640,-474.75 640,-468.75 646,-462.75 652,-462.75 652,-462.75 812,-462.75 812,-462.75 818,-462.75 824,-468.75 824,-474.75 824,-474.75 824,-545 824,-545 824,-551 818,-557 812,-557"/>
<text text-anchor="middle" x="732" y="-539.7" font-family="Helvetica,sans-Serif" font-size="14.00">2_U &lt;= 0.5</text>
<text text-anchor="middle" x="732" y="-522.45" font-family="Helvetica,sans-Serif" font-size="14.00">entropy = 1.0</text>
<text text-anchor="middle" x="732" y="-505.2" font-family="Helvetica,sans-Serif" font-size="14.00">samples = 38087</text>
<text text-anchor="middle" x="732" y="-487.95" font-family="Helvetica,sans-Serif" font-size="14.00">value = [30232, 30113]</text>
<text text-anchor="middle" x="732" y="-470.7" font-family="Helvetica,sans-Serif" font-size="14.00">class = Animal</text>
</g>
<!-- 1 -->
<g id="node2" class="node">
<title>1</title>
<path fill="#fcf3ec" stroke="black" d="M630,-426.75C630,-426.75 470,-426.75 470,-426.75 464,-426.75 458,-420.75 458,-414.75 458,-414.75 458,-344.5 458,-344.5 458,-338.5 464,-332.5 470,-332.5 470,-332.5 630,-332.5 630,-332.5 636,-332.5 642,-338.5 642,-344.5 642,-344.5 642,-414.75 642,-414.75 642,-420.75 636,-426.75 630,-426.75"/>
<text text-anchor="middle" x="550" y="-409.45" font-family="Helvetica,sans-Serif" font-size="14.00">2_A &lt;= 0.5</text>
<text text-anchor="middle" x="550" y="-392.2" font-family="Helvetica,sans-Serif" font-size="14.00">entropy = 0.998</text>
<text text-anchor="middle" x="550" y="-374.95" font-family="Helvetica,sans-Serif" font-size="14.00">samples = 28418</text>
<text text-anchor="middle" x="550" y="-357.7" font-family="Helvetica,sans-Serif" font-size="14.00">value = [23634, 21344]</text>
<text text-anchor="middle" x="550" y="-340.45" font-family="Helvetica,sans-Serif" font-size="14.00">class = Animal</text>
</g>
<!-- 0&#45;&gt;1 -->
<g id="edge1" class="edge">
<title>0&#45;&gt;1</title>
<path fill="none" stroke="black" d="M666.04,-462.39C652.81,-453.07 638.82,-443.22 625.31,-433.69"/>
<polygon fill="black" stroke="black" points="627.47,-430.94 617.28,-428.04 623.44,-436.66 627.47,-430.94"/>
<text text-anchor="middle" x="620.31" y="-447.12" font-family="Helvetica,sans-Serif" font-size="14.00">True</text>
</g>
<!-- 12238 -->
<g id="node17" class="node">
<title>12238</title>
<path fill="#cee7f9" stroke="black" d="M990,-426.75C990,-426.75 848,-426.75 848,-426.75 842,-426.75 836,-420.75 836,-414.75 836,-414.75 836,-344.5 836,-344.5 836,-338.5 842,-332.5 848,-332.5 848,-332.5 990,-332.5 990,-332.5 996,-332.5 1002,-338.5 1002,-344.5 1002,-344.5 1002,-414.75 1002,-414.75 1002,-420.75 996,-426.75 990,-426.75"/>
<text text-anchor="middle" x="919" y="-409.45" font-family="Helvetica,sans-Serif" font-size="14.00">17_A &lt;= 0.5</text>
<text text-anchor="middle" x="919" y="-392.2" font-family="Helvetica,sans-Serif" font-size="14.00">entropy = 0.986</text>
<text text-anchor="middle" x="919" y="-374.95" font-family="Helvetica,sans-Serif" font-size="14.00">samples = 9669</text>
<text text-anchor="middle" x="919" y="-357.7" font-family="Helvetica,sans-Serif" font-size="14.00">value = [6598, 8769]</text>
<text text-anchor="middle" x="919" y="-340.45" font-family="Helvetica,sans-Serif" font-size="14.00">class = Plant</text>
</g>
<!-- 0&#45;&gt;12238 -->
<g id="edge16" class="edge">
<title>0&#45;&gt;12238</title>
<path fill="none" stroke="black" d="M799.78,-462.39C813.49,-452.98 828.01,-443.03 842.02,-433.42"/>
<polygon fill="black" stroke="black" points="843.63,-436.56 849.89,-428.02 839.67,-430.79 843.63,-436.56"/>
<text text-anchor="middle" x="846.56" y="-447.07" font-family="Helvetica,sans-Serif" font-size="14.00">False</text>
</g>
<!-- 2 -->
<g id="node3" class="node">
<title>2</title>
<path fill="#eaf4fc" stroke="black" d="M352,-296.5C352,-296.5 192,-296.5 192,-296.5 186,-296.5 180,-290.5 180,-284.5 180,-284.5 180,-214.25 180,-214.25 180,-208.25 186,-202.25 192,-202.25 192,-202.25 352,-202.25 352,-202.25 358,-202.25 364,-208.25 364,-214.25 364,-214.25 364,-284.5 364,-284.5 364,-290.5 358,-296.5 352,-296.5"/>
<text text-anchor="middle" x="272" y="-279.2" font-family="Helvetica,sans-Serif" font-size="14.00">1_U &lt;= 0.5</text>
<text text-anchor="middle" x="272" y="-261.95" font-family="Helvetica,sans-Serif" font-size="14.00">entropy = 0.998</text>
<text text-anchor="middle" x="272" y="-244.7" font-family="Helvetica,sans-Serif" font-size="14.00">samples = 19342</text>
<text text-anchor="middle" x="272" y="-227.45" font-family="Helvetica,sans-Serif" font-size="14.00">value = [14416, 16152]</text>
<text text-anchor="middle" x="272" y="-210.2" font-family="Helvetica,sans-Serif" font-size="14.00">class = Plant</text>
</g>
<!-- 1&#45;&gt;2 -->
<g id="edge2" class="edge">
<title>1&#45;&gt;2</title>
<path fill="none" stroke="black" d="M457.82,-336.1C431.19,-323.81 401.96,-310.33 374.74,-297.77"/>
<polygon fill="black" stroke="black" points="376.33,-294.65 365.78,-293.64 373.4,-301.01 376.33,-294.65"/>
</g>
<!-- 8281 -->
<g id="node10" class="node">
<title>8281</title>
<path fill="#f4c8a9" stroke="black" d="M621,-296.5C621,-296.5 479,-296.5 479,-296.5 473,-296.5 467,-290.5 467,-284.5 467,-284.5 467,-214.25 467,-214.25 467,-208.25 473,-202.25 479,-202.25 479,-202.25 621,-202.25 621,-202.25 627,-202.25 633,-208.25 633,-214.25 633,-214.25 633,-284.5 633,-284.5 633,-290.5 627,-296.5 621,-296.5"/>
<text text-anchor="middle" x="550" y="-279.2" font-family="Helvetica,sans-Serif" font-size="14.00">10_A &lt;= 0.5</text>
<text text-anchor="middle" x="550" y="-261.95" font-family="Helvetica,sans-Serif" font-size="14.00">entropy = 0.943</text>
<text text-anchor="middle" x="550" y="-244.7" font-family="Helvetica,sans-Serif" font-size="14.00">samples = 9076</text>
<text text-anchor="middle" x="550" y="-227.45" font-family="Helvetica,sans-Serif" font-size="14.00">value = [9218, 5192]</text>
<text text-anchor="middle" x="550" y="-210.2" font-family="Helvetica,sans-Serif" font-size="14.00">class = Animal</text>
</g>
<!-- 1&#45;&gt;8281 -->
<g id="edge9" class="edge">
<title>1&#45;&gt;8281</title>
<path fill="none" stroke="black" d="M550,-332.32C550,-324.42 550,-316.13 550,-307.98"/>
<polygon fill="black" stroke="black" points="553.5,-308.12 550,-298.12 546.5,-308.12 553.5,-308.12"/>
</g>
<!-- 3 -->
<g id="node4" class="node">
<title>3</title>
<path fill="#f9e2d1" stroke="black" d="M154,-166.25C154,-166.25 12,-166.25 12,-166.25 6,-166.25 0,-160.25 0,-154.25 0,-154.25 0,-84 0,-84 0,-78 6,-72 12,-72 12,-72 154,-72 154,-72 160,-72 166,-78 166,-84 166,-84 166,-154.25 166,-154.25 166,-160.25 160,-166.25 154,-166.25"/>
<text text-anchor="middle" x="83" y="-148.95" font-family="Helvetica,sans-Serif" font-size="14.00">22_U &lt;= 0.5</text>
<text text-anchor="middle" x="83" y="-131.7" font-family="Helvetica,sans-Serif" font-size="14.00">entropy = 0.988</text>
<text text-anchor="middle" x="83" y="-114.45" font-family="Helvetica,sans-Serif" font-size="14.00">samples = 8082</text>
<text text-anchor="middle" x="83" y="-97.2" font-family="Helvetica,sans-Serif" font-size="14.00">value = [7209, 5548]</text>
<text text-anchor="middle" x="83" y="-79.95" font-family="Helvetica,sans-Serif" font-size="14.00">class = Animal</text>
</g>
<!-- 2&#45;&gt;3 -->
<g id="edge3" class="edge">
<title>2&#45;&gt;3</title>
<path fill="none" stroke="black" d="M203.5,-201.89C189.63,-192.48 174.96,-182.53 160.8,-172.92"/>
<polygon fill="black" stroke="black" points="163.08,-170.23 152.84,-167.51 159.15,-176.03 163.08,-170.23"/>
</g>
<!-- 4344 -->
<g id="node7" class="node">
<title>4344</title>
<path fill="#c0e0f7" stroke="black" d="M347.5,-166.25C347.5,-166.25 196.5,-166.25 196.5,-166.25 190.5,-166.25 184.5,-160.25 184.5,-154.25 184.5,-154.25 184.5,-84 184.5,-84 184.5,-78 190.5,-72 196.5,-72 196.5,-72 347.5,-72 347.5,-72 353.5,-72 359.5,-78 359.5,-84 359.5,-84 359.5,-154.25 359.5,-154.25 359.5,-160.25 353.5,-166.25 347.5,-166.25"/>
<text text-anchor="middle" x="272" y="-148.95" font-family="Helvetica,sans-Serif" font-size="14.00">22_G &lt;= 0.5</text>
<text text-anchor="middle" x="272" y="-131.7" font-family="Helvetica,sans-Serif" font-size="14.00">entropy = 0.974</text>
<text text-anchor="middle" x="272" y="-114.45" font-family="Helvetica,sans-Serif" font-size="14.00">samples = 11260</text>
<text text-anchor="middle" x="272" y="-97.2" font-family="Helvetica,sans-Serif" font-size="14.00">value = [7207, 10604]</text>
<text text-anchor="middle" x="272" y="-79.95" font-family="Helvetica,sans-Serif" font-size="14.00">class = Plant</text>
</g>
<!-- 2&#45;&gt;4344 -->
<g id="edge6" class="edge">
<title>2&#45;&gt;4344</title>
<path fill="none" stroke="black" d="M272,-202.07C272,-194.17 272,-185.88 272,-177.73"/>
<polygon fill="black" stroke="black" points="275.5,-177.87 272,-167.87 268.5,-177.87 275.5,-177.87"/>
</g>
<!-- 4 -->
<g id="node5" class="node">
<title>4</title>
<path fill="#c0c0c0" stroke="black" d="M62,-36C62,-36 32,-36 32,-36 26,-36 20,-30 20,-24 20,-24 20,-12 20,-12 20,-6 26,0 32,0 32,0 62,0 62,0 68,0 74,-6 74,-12 74,-12 74,-24 74,-24 74,-30 68,-36 62,-36"/>
<text text-anchor="middle" x="47" y="-13.32" font-family="Helvetica,sans-Serif" font-size="14.00">(...)</text>
</g>
<!-- 3&#45;&gt;4 -->
<g id="edge4" class="edge">
<title>3&#45;&gt;4</title>
<path fill="none" stroke="black" d="M66.16,-71.75C63.06,-63.22 59.92,-54.57 57.1,-46.8"/>
<polygon fill="black" stroke="black" points="60.46,-45.8 53.75,-37.6 53.88,-48.19 60.46,-45.8"/>
</g>
<!-- 3835 -->
<g id="node6" class="node">
<title>3835</title>
<path fill="#c0c0c0" stroke="black" d="M134,-36C134,-36 104,-36 104,-36 98,-36 92,-30 92,-24 92,-24 92,-12 92,-12 92,-6 98,0 104,0 104,0 134,0 134,0 140,0 146,-6 146,-12 146,-12 146,-24 146,-24 146,-30 140,-36 134,-36"/>
<text text-anchor="middle" x="119" y="-13.32" font-family="Helvetica,sans-Serif" font-size="14.00">(...)</text>
</g>
<!-- 3&#45;&gt;3835 -->
<g id="edge5" class="edge">
<title>3&#45;&gt;3835</title>
<path fill="none" stroke="black" d="M99.84,-71.75C102.94,-63.22 106.08,-54.57 108.9,-46.8"/>
<polygon fill="black" stroke="black" points="112.12,-48.19 112.25,-37.6 105.54,-45.8 112.12,-48.19"/>
</g>
<!-- 4345 -->
<g id="node8" class="node">
<title>4345</title>
<path fill="#c0c0c0" stroke="black" d="M258,-36C258,-36 228,-36 228,-36 222,-36 216,-30 216,-24 216,-24 216,-12 216,-12 216,-6 222,0 228,0 228,0 258,0 258,0 264,0 270,-6 270,-12 270,-12 270,-24 270,-24 270,-30 264,-36 258,-36"/>
<text text-anchor="middle" x="243" y="-13.32" font-family="Helvetica,sans-Serif" font-size="14.00">(...)</text>
</g>
<!-- 4344&#45;&gt;4345 -->
<g id="edge7" class="edge">
<title>4344&#45;&gt;4345</title>
<path fill="none" stroke="black" d="M258.43,-71.75C255.97,-63.32 253.46,-54.77 251.21,-47.07"/>
<polygon fill="black" stroke="black" points="254.62,-46.24 248.45,-37.63 247.9,-48.21 254.62,-46.24"/>
</g>
<!-- 7872 -->
<g id="node9" class="node">
<title>7872</title>
<path fill="#c0c0c0" stroke="black" d="M330,-36C330,-36 300,-36 300,-36 294,-36 288,-30 288,-24 288,-24 288,-12 288,-12 288,-6 294,0 300,0 300,0 330,0 330,0 336,0 342,-6 342,-12 342,-12 342,-24 342,-24 342,-30 336,-36 330,-36"/>
<text text-anchor="middle" x="315" y="-13.32" font-family="Helvetica,sans-Serif" font-size="14.00">(...)</text>
</g>
<!-- 4344&#45;&gt;7872 -->
<g id="edge8" class="edge">
<title>4344&#45;&gt;7872</title>
<path fill="none" stroke="black" d="M292.12,-71.75C295.86,-63.12 299.66,-54.36 303.06,-46.53"/>
<polygon fill="black" stroke="black" points="306.18,-48.13 306.95,-37.56 299.76,-45.34 306.18,-48.13"/>
</g>
<!-- 8282 -->
<g id="node11" class="node">
<title>8282</title>
<path fill="#efb286" stroke="black" d="M532,-166.25C532,-166.25 390,-166.25 390,-166.25 384,-166.25 378,-160.25 378,-154.25 378,-154.25 378,-84 378,-84 378,-78 384,-72 390,-72 390,-72 532,-72 532,-72 538,-72 544,-78 544,-84 544,-84 544,-154.25 544,-154.25 544,-160.25 538,-166.25 532,-166.25"/>
<text text-anchor="middle" x="461" y="-148.95" font-family="Helvetica,sans-Serif" font-size="14.00">22_A &lt;= 0.5</text>
<text text-anchor="middle" x="461" y="-131.7" font-family="Helvetica,sans-Serif" font-size="14.00">entropy = 0.855</text>
<text text-anchor="middle" x="461" y="-114.45" font-family="Helvetica,sans-Serif" font-size="14.00">samples = 6299</text>
<text text-anchor="middle" x="461" y="-97.2" font-family="Helvetica,sans-Serif" font-size="14.00">value = [7187, 2792]</text>
<text text-anchor="middle" x="461" y="-79.95" font-family="Helvetica,sans-Serif" font-size="14.00">class = Animal</text>
</g>
<!-- 8281&#45;&gt;8282 -->
<g id="edge10" class="edge">
<title>8281&#45;&gt;8282</title>
<path fill="none" stroke="black" d="M517.87,-202.07C511.95,-193.54 505.7,-184.54 499.61,-175.77"/>
<polygon fill="black" stroke="black" points="502.52,-173.82 493.95,-167.6 496.77,-177.81 502.52,-173.82"/>
</g>
<!-- 11199 -->
<g id="node14" class="node">
<title>11199</title>
<path fill="#e1f0fb" stroke="black" d="M716,-166.25C716,-166.25 574,-166.25 574,-166.25 568,-166.25 562,-160.25 562,-154.25 562,-154.25 562,-84 562,-84 562,-78 568,-72 574,-72 574,-72 716,-72 716,-72 722,-72 728,-78 728,-84 728,-84 728,-154.25 728,-154.25 728,-160.25 722,-166.25 716,-166.25"/>
<text text-anchor="middle" x="645" y="-148.95" font-family="Helvetica,sans-Serif" font-size="14.00">15_U &lt;= 0.5</text>
<text text-anchor="middle" x="645" y="-131.7" font-family="Helvetica,sans-Serif" font-size="14.00">entropy = 0.995</text>
<text text-anchor="middle" x="645" y="-114.45" font-family="Helvetica,sans-Serif" font-size="14.00">samples = 2777</text>
<text text-anchor="middle" x="645" y="-97.2" font-family="Helvetica,sans-Serif" font-size="14.00">value = [2031, 2400]</text>
<text text-anchor="middle" x="645" y="-79.95" font-family="Helvetica,sans-Serif" font-size="14.00">class = Plant</text>
</g>
<!-- 8281&#45;&gt;11199 -->
<g id="edge13" class="edge">
<title>8281&#45;&gt;11199</title>
<path fill="none" stroke="black" d="M584.3,-202.07C590.69,-193.45 597.42,-184.35 603.99,-175.49"/>
<polygon fill="black" stroke="black" points="606.71,-177.69 609.85,-167.57 601.09,-173.53 606.71,-177.69"/>
</g>
<!-- 8283 -->
<g id="node12" class="node">
<title>8283</title>
<path fill="#c0c0c0" stroke="black" d="M424,-36C424,-36 394,-36 394,-36 388,-36 382,-30 382,-24 382,-24 382,-12 382,-12 382,-6 388,0 394,0 394,0 424,0 424,0 430,0 436,-6 436,-12 436,-12 436,-24 436,-24 436,-30 430,-36 424,-36"/>
<text text-anchor="middle" x="409" y="-13.32" font-family="Helvetica,sans-Serif" font-size="14.00">(...)</text>
</g>
<!-- 8282&#45;&gt;8283 -->
<g id="edge11" class="edge">
<title>8282&#45;&gt;8283</title>
<path fill="none" stroke="black" d="M436.67,-71.75C432.1,-63.03 427.45,-54.16 423.3,-46.26"/>
<polygon fill="black" stroke="black" points="426.46,-44.74 418.71,-37.51 420.26,-47.99 426.46,-44.74"/>
</g>
<!-- 10808 -->
<g id="node13" class="node">
<title>10808</title>
<path fill="#c0c0c0" stroke="black" d="M496,-36C496,-36 466,-36 466,-36 460,-36 454,-30 454,-24 454,-24 454,-12 454,-12 454,-6 460,0 466,0 466,0 496,0 496,0 502,0 508,-6 508,-12 508,-12 508,-24 508,-24 508,-30 502,-36 496,-36"/>
<text text-anchor="middle" x="481" y="-13.32" font-family="Helvetica,sans-Serif" font-size="14.00">(...)</text>
</g>
<!-- 8282&#45;&gt;10808 -->
<g id="edge12" class="edge">
<title>8282&#45;&gt;10808</title>
<path fill="none" stroke="black" d="M470.36,-71.75C472.04,-63.42 473.74,-54.97 475.28,-47.34"/>
<polygon fill="black" stroke="black" points="478.69,-48.15 477.24,-37.66 471.83,-46.77 478.69,-48.15"/>
</g>
<!-- 11200 -->
<g id="node15" class="node">
<title>11200</title>
<path fill="#c0c0c0" stroke="black" d="M608,-36C608,-36 578,-36 578,-36 572,-36 566,-30 566,-24 566,-24 566,-12 566,-12 566,-6 572,0 578,0 578,0 608,0 608,0 614,0 620,-6 620,-12 620,-12 620,-24 620,-24 620,-30 614,-36 608,-36"/>
<text text-anchor="middle" x="593" y="-13.32" font-family="Helvetica,sans-Serif" font-size="14.00">(...)</text>
</g>
<!-- 11199&#45;&gt;11200 -->
<g id="edge14" class="edge">
<title>11199&#45;&gt;11200</title>
<path fill="none" stroke="black" d="M620.67,-71.75C616.1,-63.03 611.45,-54.16 607.3,-46.26"/>
<polygon fill="black" stroke="black" points="610.46,-44.74 602.71,-37.51 604.26,-47.99 610.46,-44.74"/>
</g>
<!-- 11927 -->
<g id="node16" class="node">
<title>11927</title>
<path fill="#c0c0c0" stroke="black" d="M680,-36C680,-36 650,-36 650,-36 644,-36 638,-30 638,-24 638,-24 638,-12 638,-12 638,-6 644,0 650,0 650,0 680,0 680,0 686,0 692,-6 692,-12 692,-12 692,-24 692,-24 692,-30 686,-36 680,-36"/>
<text text-anchor="middle" x="665" y="-13.32" font-family="Helvetica,sans-Serif" font-size="14.00">(...)</text>
</g>
<!-- 11199&#45;&gt;11927 -->
<g id="edge15" class="edge">
<title>11199&#45;&gt;11927</title>
<path fill="none" stroke="black" d="M654.36,-71.75C656.04,-63.42 657.74,-54.97 659.28,-47.34"/>
<polygon fill="black" stroke="black" points="662.69,-48.15 661.24,-37.66 655.83,-46.77 662.69,-48.15"/>
</g>
<!-- 12239 -->
<g id="node18" class="node">
<title>12239</title>
<path fill="#f3f9fd" stroke="black" d="M990,-296.5C990,-296.5 848,-296.5 848,-296.5 842,-296.5 836,-290.5 836,-284.5 836,-284.5 836,-214.25 836,-214.25 836,-208.25 842,-202.25 848,-202.25 848,-202.25 990,-202.25 990,-202.25 996,-202.25 1002,-208.25 1002,-214.25 1002,-214.25 1002,-284.5 1002,-284.5 1002,-290.5 996,-296.5 990,-296.5"/>
<text text-anchor="middle" x="919" y="-279.2" font-family="Helvetica,sans-Serif" font-size="14.00">19_U &lt;= 0.5</text>
<text text-anchor="middle" x="919" y="-261.95" font-family="Helvetica,sans-Serif" font-size="14.00">entropy = 0.999</text>
<text text-anchor="middle" x="919" y="-244.7" font-family="Helvetica,sans-Serif" font-size="14.00">samples = 7092</text>
<text text-anchor="middle" x="919" y="-227.45" font-family="Helvetica,sans-Serif" font-size="14.00">value = [5450, 5790]</text>
<text text-anchor="middle" x="919" y="-210.2" font-family="Helvetica,sans-Serif" font-size="14.00">class = Plant</text>
</g>
<!-- 12238&#45;&gt;12239 -->
<g id="edge17" class="edge">
<title>12238&#45;&gt;12239</title>
<path fill="none" stroke="black" d="M919,-332.32C919,-324.42 919,-316.13 919,-307.98"/>
<polygon fill="black" stroke="black" points="922.5,-308.12 919,-298.12 915.5,-308.12 922.5,-308.12"/>
</g>
<!-- 15742 -->
<g id="node25" class="node">
<title>15742</title>
<path fill="#85c3ef" stroke="black" d="M1264,-296.5C1264,-296.5 1122,-296.5 1122,-296.5 1116,-296.5 1110,-290.5 1110,-284.5 1110,-284.5 1110,-214.25 1110,-214.25 1110,-208.25 1116,-202.25 1122,-202.25 1122,-202.25 1264,-202.25 1264,-202.25 1270,-202.25 1276,-208.25 1276,-214.25 1276,-214.25 1276,-284.5 1276,-284.5 1276,-290.5 1270,-296.5 1264,-296.5"/>
<text text-anchor="middle" x="1193" y="-279.2" font-family="Helvetica,sans-Serif" font-size="14.00">16_G &lt;= 0.5</text>
<text text-anchor="middle" x="1193" y="-261.95" font-family="Helvetica,sans-Serif" font-size="14.00">entropy = 0.853</text>
<text text-anchor="middle" x="1193" y="-244.7" font-family="Helvetica,sans-Serif" font-size="14.00">samples = 2577</text>
<text text-anchor="middle" x="1193" y="-227.45" font-family="Helvetica,sans-Serif" font-size="14.00">value = [1148, 2979]</text>
<text text-anchor="middle" x="1193" y="-210.2" font-family="Helvetica,sans-Serif" font-size="14.00">class = Plant</text>
</g>
<!-- 12238&#45;&gt;15742 -->
<g id="edge24" class="edge">
<title>12238&#45;&gt;15742</title>
<path fill="none" stroke="black" d="M1002.33,-339.62C1033.01,-325.26 1067.97,-308.9 1099.49,-294.14"/>
<polygon fill="black" stroke="black" points="1100.66,-297.46 1108.23,-290.05 1097.69,-291.12 1100.66,-297.46"/>
</g>
<!-- 12240 -->
<g id="node19" class="node">
<title>12240</title>
<path fill="#d7ebfa" stroke="black" d="M900,-166.25C900,-166.25 758,-166.25 758,-166.25 752,-166.25 746,-160.25 746,-154.25 746,-154.25 746,-84 746,-84 746,-78 752,-72 758,-72 758,-72 900,-72 900,-72 906,-72 912,-78 912,-84 912,-84 912,-154.25 912,-154.25 912,-160.25 906,-166.25 900,-166.25"/>
<text text-anchor="middle" x="829" y="-148.95" font-family="Helvetica,sans-Serif" font-size="14.00">13_U &lt;= 0.5</text>
<text text-anchor="middle" x="829" y="-131.7" font-family="Helvetica,sans-Serif" font-size="14.00">entropy = 0.991</text>
<text text-anchor="middle" x="829" y="-114.45" font-family="Helvetica,sans-Serif" font-size="14.00">samples = 5400</text>
<text text-anchor="middle" x="829" y="-97.2" font-family="Helvetica,sans-Serif" font-size="14.00">value = [3799, 4775]</text>
<text text-anchor="middle" x="829" y="-79.95" font-family="Helvetica,sans-Serif" font-size="14.00">class = Plant</text>
</g>
<!-- 12239&#45;&gt;12240 -->
<g id="edge18" class="edge">
<title>12239&#45;&gt;12240</title>
<path fill="none" stroke="black" d="M886.51,-202.07C880.52,-193.54 874.21,-184.54 868.05,-175.77"/>
<polygon fill="black" stroke="black" points="870.92,-173.77 862.31,-167.6 865.19,-177.79 870.92,-173.77"/>
</g>
<!-- 14825 -->
<g id="node22" class="node">
<title>14825</title>
<path fill="#f5ceb3" stroke="black" d="M1084,-166.25C1084,-166.25 942,-166.25 942,-166.25 936,-166.25 930,-160.25 930,-154.25 930,-154.25 930,-84 930,-84 930,-78 936,-72 942,-72 942,-72 1084,-72 1084,-72 1090,-72 1096,-78 1096,-84 1096,-84 1096,-154.25 1096,-154.25 1096,-160.25 1090,-166.25 1084,-166.25"/>
<text text-anchor="middle" x="1013" y="-148.95" font-family="Helvetica,sans-Serif" font-size="14.00">20_C &lt;= 0.5</text>
<text text-anchor="middle" x="1013" y="-131.7" font-family="Helvetica,sans-Serif" font-size="14.00">entropy = 0.959</text>
<text text-anchor="middle" x="1013" y="-114.45" font-family="Helvetica,sans-Serif" font-size="14.00">samples = 1692</text>
<text text-anchor="middle" x="1013" y="-97.2" font-family="Helvetica,sans-Serif" font-size="14.00">value = [1651, 1015]</text>
<text text-anchor="middle" x="1013" y="-79.95" font-family="Helvetica,sans-Serif" font-size="14.00">class = Animal</text>
</g>
<!-- 12239&#45;&gt;14825 -->
<g id="edge21" class="edge">
<title>12239&#45;&gt;14825</title>
<path fill="none" stroke="black" d="M952.94,-202.07C959.26,-193.45 965.92,-184.35 972.42,-175.49"/>
<polygon fill="black" stroke="black" points="975.13,-177.71 978.22,-167.58 969.48,-173.58 975.13,-177.71"/>
</g>
<!-- 12241 -->
<g id="node20" class="node">
<title>12241</title>
<path fill="#c0c0c0" stroke="black" d="M792,-36C792,-36 762,-36 762,-36 756,-36 750,-30 750,-24 750,-24 750,-12 750,-12 750,-6 756,0 762,0 762,0 792,0 792,0 798,0 804,-6 804,-12 804,-12 804,-24 804,-24 804,-30 798,-36 792,-36"/>
<text text-anchor="middle" x="777" y="-13.32" font-family="Helvetica,sans-Serif" font-size="14.00">(...)</text>
</g>
<!-- 12240&#45;&gt;12241 -->
<g id="edge19" class="edge">
<title>12240&#45;&gt;12241</title>
<path fill="none" stroke="black" d="M804.67,-71.75C800.1,-63.03 795.45,-54.16 791.3,-46.26"/>
<polygon fill="black" stroke="black" points="794.46,-44.74 786.71,-37.51 788.26,-47.99 794.46,-44.74"/>
</g>
<!-- 14068 -->
<g id="node21" class="node">
<title>14068</title>
<path fill="#c0c0c0" stroke="black" d="M864,-36C864,-36 834,-36 834,-36 828,-36 822,-30 822,-24 822,-24 822,-12 822,-12 822,-6 828,0 834,0 834,0 864,0 864,0 870,0 876,-6 876,-12 876,-12 876,-24 876,-24 876,-30 870,-36 864,-36"/>
<text text-anchor="middle" x="849" y="-13.32" font-family="Helvetica,sans-Serif" font-size="14.00">(...)</text>
</g>
<!-- 12240&#45;&gt;14068 -->
<g id="edge20" class="edge">
<title>12240&#45;&gt;14068</title>
<path fill="none" stroke="black" d="M838.36,-71.75C840.04,-63.42 841.74,-54.97 843.28,-47.34"/>
<polygon fill="black" stroke="black" points="846.69,-48.15 845.24,-37.66 839.83,-46.77 846.69,-48.15"/>
</g>
<!-- 14826 -->
<g id="node23" class="node">
<title>14826</title>
<path fill="#c0c0c0" stroke="black" d="M974,-36C974,-36 944,-36 944,-36 938,-36 932,-30 932,-24 932,-24 932,-12 932,-12 932,-6 938,0 944,0 944,0 974,0 974,0 980,0 986,-6 986,-12 986,-12 986,-24 986,-24 986,-30 980,-36 974,-36"/>
<text text-anchor="middle" x="959" y="-13.32" font-family="Helvetica,sans-Serif" font-size="14.00">(...)</text>
</g>
<!-- 14825&#45;&gt;14826 -->
<g id="edge22" class="edge">
<title>14825&#45;&gt;14826</title>
<path fill="none" stroke="black" d="M987.74,-71.75C982.98,-63.03 978.16,-54.16 973.85,-46.26"/>
<polygon fill="black" stroke="black" points="976.94,-44.61 969.08,-37.5 970.79,-47.96 976.94,-44.61"/>
</g>
<!-- 15531 -->
<g id="node24" class="node">
<title>15531</title>
<path fill="#c0c0c0" stroke="black" d="M1046,-36C1046,-36 1016,-36 1016,-36 1010,-36 1004,-30 1004,-24 1004,-24 1004,-12 1004,-12 1004,-6 1010,0 1016,0 1016,0 1046,0 1046,0 1052,0 1058,-6 1058,-12 1058,-12 1058,-24 1058,-24 1058,-30 1052,-36 1046,-36"/>
<text text-anchor="middle" x="1031" y="-13.32" font-family="Helvetica,sans-Serif" font-size="14.00">(...)</text>
</g>
<!-- 14825&#45;&gt;15531 -->
<g id="edge23" class="edge">
<title>14825&#45;&gt;15531</title>
<path fill="none" stroke="black" d="M1021.42,-71.75C1022.93,-63.42 1024.47,-54.97 1025.85,-47.34"/>
<polygon fill="black" stroke="black" points="1029.27,-48.13 1027.61,-37.66 1022.38,-46.88 1029.27,-48.13"/>
</g>
<!-- 15743 -->
<g id="node26" class="node">
<title>15743</title>
<path fill="#dceefa" stroke="black" d="M1259.5,-166.25C1259.5,-166.25 1126.5,-166.25 1126.5,-166.25 1120.5,-166.25 1114.5,-160.25 1114.5,-154.25 1114.5,-154.25 1114.5,-84 1114.5,-84 1114.5,-78 1120.5,-72 1126.5,-72 1126.5,-72 1259.5,-72 1259.5,-72 1265.5,-72 1271.5,-78 1271.5,-84 1271.5,-84 1271.5,-154.25 1271.5,-154.25 1271.5,-160.25 1265.5,-166.25 1259.5,-166.25"/>
<text text-anchor="middle" x="1193" y="-148.95" font-family="Helvetica,sans-Serif" font-size="14.00">13_U &lt;= 0.5</text>
<text text-anchor="middle" x="1193" y="-131.7" font-family="Helvetica,sans-Serif" font-size="14.00">entropy = 0.993</text>
<text text-anchor="middle" x="1193" y="-114.45" font-family="Helvetica,sans-Serif" font-size="14.00">samples = 1177</text>
<text text-anchor="middle" x="1193" y="-97.2" font-family="Helvetica,sans-Serif" font-size="14.00">value = [845, 1024]</text>
<text text-anchor="middle" x="1193" y="-79.95" font-family="Helvetica,sans-Serif" font-size="14.00">class = Plant</text>
</g>
<!-- 15742&#45;&gt;15743 -->
<g id="edge25" class="edge">
<title>15742&#45;&gt;15743</title>
<path fill="none" stroke="black" d="M1193,-202.07C1193,-194.17 1193,-185.88 1193,-177.73"/>
<polygon fill="black" stroke="black" points="1196.5,-177.87 1193,-167.87 1189.5,-177.87 1196.5,-177.87"/>
</g>
<!-- 16470 -->
<g id="node29" class="node">
<title>16470</title>
<path fill="#58ace9" stroke="black" d="M1434.5,-166.25C1434.5,-166.25 1301.5,-166.25 1301.5,-166.25 1295.5,-166.25 1289.5,-160.25 1289.5,-154.25 1289.5,-154.25 1289.5,-84 1289.5,-84 1289.5,-78 1295.5,-72 1301.5,-72 1301.5,-72 1434.5,-72 1434.5,-72 1440.5,-72 1446.5,-78 1446.5,-84 1446.5,-84 1446.5,-154.25 1446.5,-154.25 1446.5,-160.25 1440.5,-166.25 1434.5,-166.25"/>
<text text-anchor="middle" x="1368" y="-148.95" font-family="Helvetica,sans-Serif" font-size="14.00">6_U &lt;= 0.5</text>
<text text-anchor="middle" x="1368" y="-131.7" font-family="Helvetica,sans-Serif" font-size="14.00">entropy = 0.569</text>
<text text-anchor="middle" x="1368" y="-114.45" font-family="Helvetica,sans-Serif" font-size="14.00">samples = 1400</text>
<text text-anchor="middle" x="1368" y="-97.2" font-family="Helvetica,sans-Serif" font-size="14.00">value = [303, 1955]</text>
<text text-anchor="middle" x="1368" y="-79.95" font-family="Helvetica,sans-Serif" font-size="14.00">class = Plant</text>
</g>
<!-- 15742&#45;&gt;16470 -->
<g id="edge28" class="edge">
<title>15742&#45;&gt;16470</title>
<path fill="none" stroke="black" d="M1256.18,-202.07C1268.99,-192.69 1282.55,-182.75 1295.64,-173.15"/>
<polygon fill="black" stroke="black" points="1297.4,-176.2 1303.4,-167.47 1293.26,-170.56 1297.4,-176.2"/>
</g>
<!-- 15744 -->
<g id="node27" class="node">
<title>15744</title>
<path fill="#c0c0c0" stroke="black" d="M1169,-36C1169,-36 1139,-36 1139,-36 1133,-36 1127,-30 1127,-24 1127,-24 1127,-12 1127,-12 1127,-6 1133,0 1139,0 1139,0 1169,0 1169,0 1175,0 1181,-6 1181,-12 1181,-12 1181,-24 1181,-24 1181,-30 1175,-36 1169,-36"/>
<text text-anchor="middle" x="1154" y="-13.32" font-family="Helvetica,sans-Serif" font-size="14.00">(...)</text>
</g>
<!-- 15743&#45;&gt;15744 -->
<g id="edge26" class="edge">
<title>15743&#45;&gt;15744</title>
<path fill="none" stroke="black" d="M1174.76,-71.75C1171.4,-63.22 1167.99,-54.57 1164.94,-46.8"/>
<polygon fill="black" stroke="black" points="1168.23,-45.61 1161.31,-37.58 1161.71,-48.17 1168.23,-45.61"/>
</g>
<!-- 16275 -->
<g id="node28" class="node">
<title>16275</title>
<path fill="#c0c0c0" stroke="black" d="M1241,-36C1241,-36 1211,-36 1211,-36 1205,-36 1199,-30 1199,-24 1199,-24 1199,-12 1199,-12 1199,-6 1205,0 1211,0 1211,0 1241,0 1241,0 1247,0 1253,-6 1253,-12 1253,-12 1253,-24 1253,-24 1253,-30 1247,-36 1241,-36"/>
<text text-anchor="middle" x="1226" y="-13.32" font-family="Helvetica,sans-Serif" font-size="14.00">(...)</text>
</g>
<!-- 15743&#45;&gt;16275 -->
<g id="edge27" class="edge">
<title>15743&#45;&gt;16275</title>
<path fill="none" stroke="black" d="M1208.44,-71.75C1211.24,-63.32 1214.09,-54.77 1216.66,-47.07"/>
<polygon fill="black" stroke="black" points="1219.97,-48.2 1219.8,-37.61 1213.33,-45.99 1219.97,-48.2"/>
</g>
<!-- 16471 -->
<g id="node30" class="node">
<title>16471</title>
<path fill="#c0c0c0" stroke="black" d="M1347,-36C1347,-36 1317,-36 1317,-36 1311,-36 1305,-30 1305,-24 1305,-24 1305,-12 1305,-12 1305,-6 1311,0 1317,0 1317,0 1347,0 1347,0 1353,0 1359,-6 1359,-12 1359,-12 1359,-24 1359,-24 1359,-30 1353,-36 1347,-36"/>
<text text-anchor="middle" x="1332" y="-13.32" font-family="Helvetica,sans-Serif" font-size="14.00">(...)</text>
</g>
<!-- 16470&#45;&gt;16471 -->
<g id="edge29" class="edge">
<title>16470&#45;&gt;16471</title>
<path fill="none" stroke="black" d="M1351.16,-71.75C1348.06,-63.22 1344.92,-54.57 1342.1,-46.8"/>
<polygon fill="black" stroke="black" points="1345.46,-45.8 1338.75,-37.6 1338.88,-48.19 1345.46,-45.8"/>
</g>
<!-- 16680 -->
<g id="node31" class="node">
<title>16680</title>
<path fill="#c0c0c0" stroke="black" d="M1419,-36C1419,-36 1389,-36 1389,-36 1383,-36 1377,-30 1377,-24 1377,-24 1377,-12 1377,-12 1377,-6 1383,0 1389,0 1389,0 1419,0 1419,0 1425,0 1431,-6 1431,-12 1431,-12 1431,-24 1431,-24 1431,-30 1425,-36 1419,-36"/>
<text text-anchor="middle" x="1404" y="-13.32" font-family="Helvetica,sans-Serif" font-size="14.00">(...)</text>
</g>
<!-- 16470&#45;&gt;16680 -->
<g id="edge30" class="edge">
<title>16470&#45;&gt;16680</title>
<path fill="none" stroke="black" d="M1384.84,-71.75C1387.94,-63.22 1391.08,-54.57 1393.9,-46.8"/>
<polygon fill="black" stroke="black" points="1397.12,-48.19 1397.25,-37.6 1390.54,-45.8 1397.12,-48.19"/>
</g>
</g>
</svg>
