<?xml version="1.0" encoding="UTF-8" standalone="no"?>
<!DOCTYPE svg PUBLIC "-//W3C//DTD SVG 1.1//EN"
 "http://www.w3.org/Graphics/SVG/1.1/DTD/svg11.dtd">
<!-- Generated by graphviz version 12.0.0 (20240803.0821)
 -->
<!-- Title: Tree Pages: 1 -->
<svg width="1401pt" height="565pt"
 viewBox="0.00 0.00 1401.00 565.00" xmlns="http://www.w3.org/2000/svg" xmlns:xlink="http://www.w3.org/1999/xlink">
<g id="graph0" class="graph" transform="scale(1 1) rotate(0) translate(4 561)">
<title>Tree</title>
<polygon fill="white" stroke="none" points="-4,4 -4,-561 1397,-561 1397,4 -4,4"/>
<!-- 0 -->
<g id="node1" class="node">
<title>0</title>
<path fill="#ffffff" stroke="black" d="M807.5,-557C807.5,-557 647.5,-557 647.5,-557 641.5,-557 635.5,-551 635.5,-545 635.5,-545 635.5,-474.75 635.5,-474.75 635.5,-468.75 641.5,-462.75 647.5,-462.75 647.5,-462.75 807.5,-462.75 807.5,-462.75 813.5,-462.75 819.5,-468.75 819.5,-474.75 819.5,-474.75 819.5,-545 819.5,-545 819.5,-551 813.5,-557 807.5,-557"/>
<text text-anchor="middle" x="727.5" y="-539.7" font-family="Helvetica,sans-Serif" font-size="14.00">22_A &lt;= 0.5</text>
<text text-anchor="middle" x="727.5" y="-522.45" font-family="Helvetica,sans-Serif" font-size="14.00">entropy = 1.0</text>
<text text-anchor="middle" x="727.5" y="-505.2" font-family="Helvetica,sans-Serif" font-size="14.00">samples = 38259</text>
<text text-anchor="middle" x="727.5" y="-487.95" font-family="Helvetica,sans-Serif" font-size="14.00">value = [30164, 30181]</text>
<text text-anchor="middle" x="727.5" y="-470.7" font-family="Helvetica,sans-Serif" font-size="14.00">class = Plant</text>
</g>
<!-- 1 -->
<g id="node2" class="node">
<title>1</title>
<path fill="#eaf5fc" stroke="black" d="M634.5,-426.75C634.5,-426.75 474.5,-426.75 474.5,-426.75 468.5,-426.75 462.5,-420.75 462.5,-414.75 462.5,-414.75 462.5,-344.5 462.5,-344.5 462.5,-338.5 468.5,-332.5 474.5,-332.5 474.5,-332.5 634.5,-332.5 634.5,-332.5 640.5,-332.5 646.5,-338.5 646.5,-344.5 646.5,-344.5 646.5,-414.75 646.5,-414.75 646.5,-420.75 640.5,-426.75 634.5,-426.75"/>
<text text-anchor="middle" x="554.5" y="-409.45" font-family="Helvetica,sans-Serif" font-size="14.00">1_U &lt;= 0.5</text>
<text text-anchor="middle" x="554.5" y="-392.2" font-family="Helvetica,sans-Serif" font-size="14.00">entropy = 0.998</text>
<text text-anchor="middle" x="554.5" y="-374.95" font-family="Helvetica,sans-Serif" font-size="14.00">samples = 34051</text>
<text text-anchor="middle" x="554.5" y="-357.7" font-family="Helvetica,sans-Serif" font-size="14.00">value = [25409, 28345]</text>
<text text-anchor="middle" x="554.5" y="-340.45" font-family="Helvetica,sans-Serif" font-size="14.00">class = Plant</text>
</g>
<!-- 0&#45;&gt;1 -->
<g id="edge1" class="edge">
<title>0&#45;&gt;1</title>
<path fill="none" stroke="black" d="M665.04,-462.57C652.5,-453.28 639.23,-443.44 626.4,-433.93"/>
<polygon fill="black" stroke="black" points="628.49,-431.12 618.37,-427.97 624.32,-436.74 628.49,-431.12"/>
<text text-anchor="middle" x="620.83" y="-447.13" font-family="Helvetica,sans-Serif" font-size="14.00">True</text>
</g>
<!-- 15044 -->
<g id="node17" class="node">
<title>15044</title>
<path fill="#efb285" stroke="black" d="M976.5,-426.75C976.5,-426.75 834.5,-426.75 834.5,-426.75 828.5,-426.75 822.5,-420.75 822.5,-414.75 822.5,-414.75 822.5,-344.5 822.5,-344.5 822.5,-338.5 828.5,-332.5 834.5,-332.5 834.5,-332.5 976.5,-332.5 976.5,-332.5 982.5,-332.5 988.5,-338.5 988.5,-344.5 988.5,-344.5 988.5,-414.75 988.5,-414.75 988.5,-420.75 982.5,-426.75 976.5,-426.75"/>
<text text-anchor="middle" x="905.5" y="-409.45" font-family="Helvetica,sans-Serif" font-size="14.00">20_C &lt;= 0.5</text>
<text text-anchor="middle" x="905.5" y="-392.2" font-family="Helvetica,sans-Serif" font-size="14.00">entropy = 0.853</text>
<text text-anchor="middle" x="905.5" y="-374.95" font-family="Helvetica,sans-Serif" font-size="14.00">samples = 4208</text>
<text text-anchor="middle" x="905.5" y="-357.7" font-family="Helvetica,sans-Serif" font-size="14.00">value = [4755, 1836]</text>
<text text-anchor="middle" x="905.5" y="-340.45" font-family="Helvetica,sans-Serif" font-size="14.00">class = Animal</text>
</g>
<!-- 0&#45;&gt;15044 -->
<g id="edge16" class="edge">
<title>0&#45;&gt;15044</title>
<path fill="none" stroke="black" d="M792.01,-462.39C804.95,-453.07 818.63,-443.22 831.85,-433.69"/>
<polygon fill="black" stroke="black" points="833.61,-436.73 839.68,-428.05 829.52,-431.06 833.61,-436.73"/>
<text text-anchor="middle" x="836.9" y="-447.17" font-family="Helvetica,sans-Serif" font-size="14.00">False</text>
</g>
<!-- 2 -->
<g id="node3" class="node">
<title>2</title>
<path fill="#f9e4d5" stroke="black" d="M356.5,-296.5C356.5,-296.5 196.5,-296.5 196.5,-296.5 190.5,-296.5 184.5,-290.5 184.5,-284.5 184.5,-284.5 184.5,-214.25 184.5,-214.25 184.5,-208.25 190.5,-202.25 196.5,-202.25 196.5,-202.25 356.5,-202.25 356.5,-202.25 362.5,-202.25 368.5,-208.25 368.5,-214.25 368.5,-214.25 368.5,-284.5 368.5,-284.5 368.5,-290.5 362.5,-296.5 356.5,-296.5"/>
<text text-anchor="middle" x="276.5" y="-279.2" font-family="Helvetica,sans-Serif" font-size="14.00">4_C &lt;= 0.5</text>
<text text-anchor="middle" x="276.5" y="-261.95" font-family="Helvetica,sans-Serif" font-size="14.00">entropy = 0.99</text>
<text text-anchor="middle" x="276.5" y="-244.7" font-family="Helvetica,sans-Serif" font-size="14.00">samples = 15820</text>
<text text-anchor="middle" x="276.5" y="-227.45" font-family="Helvetica,sans-Serif" font-size="14.00">value = [13984, 10984]</text>
<text text-anchor="middle" x="276.5" y="-210.2" font-family="Helvetica,sans-Serif" font-size="14.00">class = Animal</text>
</g>
<!-- 1&#45;&gt;2 -->
<g id="edge2" class="edge">
<title>1&#45;&gt;2</title>
<path fill="none" stroke="black" d="M462.32,-336.1C435.69,-323.81 406.46,-310.33 379.24,-297.77"/>
<polygon fill="black" stroke="black" points="380.83,-294.65 370.28,-293.64 377.9,-301.01 380.83,-294.65"/>
</g>
<!-- 8591 -->
<g id="node10" class="node">
<title>8591</title>
<path fill="#bbddf6" stroke="black" d="M634.5,-296.5C634.5,-296.5 474.5,-296.5 474.5,-296.5 468.5,-296.5 462.5,-290.5 462.5,-284.5 462.5,-284.5 462.5,-214.25 462.5,-214.25 462.5,-208.25 468.5,-202.25 474.5,-202.25 474.5,-202.25 634.5,-202.25 634.5,-202.25 640.5,-202.25 646.5,-208.25 646.5,-214.25 646.5,-214.25 646.5,-284.5 646.5,-284.5 646.5,-290.5 640.5,-296.5 634.5,-296.5"/>
<text text-anchor="middle" x="554.5" y="-279.2" font-family="Helvetica,sans-Serif" font-size="14.00">22_U &lt;= 0.5</text>
<text text-anchor="middle" x="554.5" y="-261.95" font-family="Helvetica,sans-Serif" font-size="14.00">entropy = 0.969</text>
<text text-anchor="middle" x="554.5" y="-244.7" font-family="Helvetica,sans-Serif" font-size="14.00">samples = 18231</text>
<text text-anchor="middle" x="554.5" y="-227.45" font-family="Helvetica,sans-Serif" font-size="14.00">value = [11425, 17361]</text>
<text text-anchor="middle" x="554.5" y="-210.2" font-family="Helvetica,sans-Serif" font-size="14.00">class = Plant</text>
</g>
<!-- 1&#45;&gt;8591 -->
<g id="edge9" class="edge">
<title>1&#45;&gt;8591</title>
<path fill="none" stroke="black" d="M554.5,-332.32C554.5,-324.42 554.5,-316.13 554.5,-307.98"/>
<polygon fill="black" stroke="black" points="558,-308.12 554.5,-298.12 551,-308.12 558,-308.12"/>
</g>
<!-- 3 -->
<g id="node4" class="node">
<title>3</title>
<path fill="#f8dfcc" stroke="black" d="M163,-166.25C163,-166.25 12,-166.25 12,-166.25 6,-166.25 0,-160.25 0,-154.25 0,-154.25 0,-84 0,-84 0,-78 6,-72 12,-72 12,-72 163,-72 163,-72 169,-72 175,-78 175,-84 175,-84 175,-154.25 175,-154.25 175,-160.25 169,-166.25 163,-166.25"/>
<text text-anchor="middle" x="87.5" y="-148.95" font-family="Helvetica,sans-Serif" font-size="14.00">2_G &lt;= 0.5</text>
<text text-anchor="middle" x="87.5" y="-131.7" font-family="Helvetica,sans-Serif" font-size="14.00">entropy = 0.984</text>
<text text-anchor="middle" x="87.5" y="-114.45" font-family="Helvetica,sans-Serif" font-size="14.00">samples = 12024</text>
<text text-anchor="middle" x="87.5" y="-97.2" font-family="Helvetica,sans-Serif" font-size="14.00">value = [10902, 8101]</text>
<text text-anchor="middle" x="87.5" y="-79.95" font-family="Helvetica,sans-Serif" font-size="14.00">class = Animal</text>
</g>
<!-- 2&#45;&gt;3 -->
<g id="edge3" class="edge">
<title>2&#45;&gt;3</title>
<path fill="none" stroke="black" d="M208,-201.89C194.13,-192.48 179.46,-182.53 165.3,-172.92"/>
<polygon fill="black" stroke="black" points="167.58,-170.23 157.34,-167.51 163.65,-176.03 167.58,-170.23"/>
</g>
<!-- 6722 -->
<g id="node7" class="node">
<title>6722</title>
<path fill="#fdf7f2" stroke="black" d="M347.5,-166.25C347.5,-166.25 205.5,-166.25 205.5,-166.25 199.5,-166.25 193.5,-160.25 193.5,-154.25 193.5,-154.25 193.5,-84 193.5,-84 193.5,-78 199.5,-72 205.5,-72 205.5,-72 347.5,-72 347.5,-72 353.5,-72 359.5,-78 359.5,-84 359.5,-84 359.5,-154.25 359.5,-154.25 359.5,-160.25 353.5,-166.25 347.5,-166.25"/>
<text text-anchor="middle" x="276.5" y="-148.95" font-family="Helvetica,sans-Serif" font-size="14.00">15_U &lt;= 0.5</text>
<text text-anchor="middle" x="276.5" y="-131.7" font-family="Helvetica,sans-Serif" font-size="14.00">entropy = 0.999</text>
<text text-anchor="middle" x="276.5" y="-114.45" font-family="Helvetica,sans-Serif" font-size="14.00">samples = 3796</text>
<text text-anchor="middle" x="276.5" y="-97.2" font-family="Helvetica,sans-Serif" font-size="14.00">value = [3082, 2883]</text>
<text text-anchor="middle" x="276.5" y="-79.95" font-family="Helvetica,sans-Serif" font-size="14.00">class = Animal</text>
</g>
<!-- 2&#45;&gt;6722 -->
<g id="edge6" class="edge">
<title>2&#45;&gt;6722</title>
<path fill="none" stroke="black" d="M276.5,-202.07C276.5,-194.17 276.5,-185.88 276.5,-177.73"/>
<polygon fill="black" stroke="black" points="280,-177.87 276.5,-167.87 273,-177.87 280,-177.87"/>
</g>
<!-- 4 -->
<g id="node5" class="node">
<title>4</title>
<path fill="#c0c0c0" stroke="black" d="M66.5,-36C66.5,-36 36.5,-36 36.5,-36 30.5,-36 24.5,-30 24.5,-24 24.5,-24 24.5,-12 24.5,-12 24.5,-6 30.5,0 36.5,0 36.5,0 66.5,0 66.5,0 72.5,0 78.5,-6 78.5,-12 78.5,-12 78.5,-24 78.5,-24 78.5,-30 72.5,-36 66.5,-36"/>
<text text-anchor="middle" x="51.5" y="-13.32" font-family="Helvetica,sans-Serif" font-size="14.00">(...)</text>
</g>
<!-- 3&#45;&gt;4 -->
<g id="edge4" class="edge">
<title>3&#45;&gt;4</title>
<path fill="none" stroke="black" d="M70.66,-71.75C67.56,-63.22 64.42,-54.57 61.6,-46.8"/>
<polygon fill="black" stroke="black" points="64.96,-45.8 58.25,-37.6 58.38,-48.19 64.96,-45.8"/>
</g>
<!-- 4865 -->
<g id="node6" class="node">
<title>4865</title>
<path fill="#c0c0c0" stroke="black" d="M138.5,-36C138.5,-36 108.5,-36 108.5,-36 102.5,-36 96.5,-30 96.5,-24 96.5,-24 96.5,-12 96.5,-12 96.5,-6 102.5,0 108.5,0 108.5,0 138.5,0 138.5,0 144.5,0 150.5,-6 150.5,-12 150.5,-12 150.5,-24 150.5,-24 150.5,-30 144.5,-36 138.5,-36"/>
<text text-anchor="middle" x="123.5" y="-13.32" font-family="Helvetica,sans-Serif" font-size="14.00">(...)</text>
</g>
<!-- 3&#45;&gt;4865 -->
<g id="edge5" class="edge">
<title>3&#45;&gt;4865</title>
<path fill="none" stroke="black" d="M104.34,-71.75C107.44,-63.22 110.58,-54.57 113.4,-46.8"/>
<polygon fill="black" stroke="black" points="116.62,-48.19 116.75,-37.6 110.04,-45.8 116.62,-48.19"/>
</g>
<!-- 6723 -->
<g id="node8" class="node">
<title>6723</title>
<path fill="#c0c0c0" stroke="black" d="M262.5,-36C262.5,-36 232.5,-36 232.5,-36 226.5,-36 220.5,-30 220.5,-24 220.5,-24 220.5,-12 220.5,-12 220.5,-6 226.5,0 232.5,0 232.5,0 262.5,0 262.5,0 268.5,0 274.5,-6 274.5,-12 274.5,-12 274.5,-24 274.5,-24 274.5,-30 268.5,-36 262.5,-36"/>
<text text-anchor="middle" x="247.5" y="-13.32" font-family="Helvetica,sans-Serif" font-size="14.00">(...)</text>
</g>
<!-- 6722&#45;&gt;6723 -->
<g id="edge7" class="edge">
<title>6722&#45;&gt;6723</title>
<path fill="none" stroke="black" d="M262.93,-71.75C260.47,-63.32 257.96,-54.77 255.71,-47.07"/>
<polygon fill="black" stroke="black" points="259.12,-46.24 252.95,-37.63 252.4,-48.21 259.12,-46.24"/>
</g>
<!-- 8092 -->
<g id="node9" class="node">
<title>8092</title>
<path fill="#c0c0c0" stroke="black" d="M334.5,-36C334.5,-36 304.5,-36 304.5,-36 298.5,-36 292.5,-30 292.5,-24 292.5,-24 292.5,-12 292.5,-12 292.5,-6 298.5,0 304.5,0 304.5,0 334.5,0 334.5,0 340.5,0 346.5,-6 346.5,-12 346.5,-12 346.5,-24 346.5,-24 346.5,-30 340.5,-36 334.5,-36"/>
<text text-anchor="middle" x="319.5" y="-13.32" font-family="Helvetica,sans-Serif" font-size="14.00">(...)</text>
</g>
<!-- 6722&#45;&gt;8092 -->
<g id="edge8" class="edge">
<title>6722&#45;&gt;8092</title>
<path fill="none" stroke="black" d="M296.62,-71.75C300.36,-63.12 304.16,-54.36 307.56,-46.53"/>
<polygon fill="black" stroke="black" points="310.68,-48.13 311.45,-37.56 304.26,-45.34 310.68,-48.13"/>
</g>
<!-- 8592 -->
<g id="node11" class="node">
<title>8592</title>
<path fill="#9bcdf2" stroke="black" d="M541,-166.25C541,-166.25 390,-166.25 390,-166.25 384,-166.25 378,-160.25 378,-154.25 378,-154.25 378,-84 378,-84 378,-78 384,-72 390,-72 390,-72 541,-72 541,-72 547,-72 553,-78 553,-84 553,-84 553,-154.25 553,-154.25 553,-160.25 547,-166.25 541,-166.25"/>
<text text-anchor="middle" x="465.5" y="-148.95" font-family="Helvetica,sans-Serif" font-size="14.00">20_G &lt;= 0.5</text>
<text text-anchor="middle" x="465.5" y="-131.7" font-family="Helvetica,sans-Serif" font-size="14.00">entropy = 0.916</text>
<text text-anchor="middle" x="465.5" y="-114.45" font-family="Helvetica,sans-Serif" font-size="14.00">samples = 15694</text>
<text text-anchor="middle" x="465.5" y="-97.2" font-family="Helvetica,sans-Serif" font-size="14.00">value = [8200, 16594]</text>
<text text-anchor="middle" x="465.5" y="-79.95" font-family="Helvetica,sans-Serif" font-size="14.00">class = Plant</text>
</g>
<!-- 8591&#45;&gt;8592 -->
<g id="edge10" class="edge">
<title>8591&#45;&gt;8592</title>
<path fill="none" stroke="black" d="M522.37,-202.07C516.45,-193.54 510.2,-184.54 504.11,-175.77"/>
<polygon fill="black" stroke="black" points="507.02,-173.82 498.45,-167.6 501.27,-177.81 507.02,-173.82"/>
</g>
<!-- 14075 -->
<g id="node14" class="node">
<title>14075</title>
<path fill="#eb9f68" stroke="black" d="M716,-166.25C716,-166.25 583,-166.25 583,-166.25 577,-166.25 571,-160.25 571,-154.25 571,-154.25 571,-84 571,-84 571,-78 577,-72 583,-72 583,-72 716,-72 716,-72 722,-72 728,-78 728,-84 728,-84 728,-154.25 728,-154.25 728,-160.25 722,-166.25 716,-166.25"/>
<text text-anchor="middle" x="649.5" y="-148.95" font-family="Helvetica,sans-Serif" font-size="14.00">2_A &lt;= 0.5</text>
<text text-anchor="middle" x="649.5" y="-131.7" font-family="Helvetica,sans-Serif" font-size="14.00">entropy = 0.706</text>
<text text-anchor="middle" x="649.5" y="-114.45" font-family="Helvetica,sans-Serif" font-size="14.00">samples = 2537</text>
<text text-anchor="middle" x="649.5" y="-97.2" font-family="Helvetica,sans-Serif" font-size="14.00">value = [3225, 767]</text>
<text text-anchor="middle" x="649.5" y="-79.95" font-family="Helvetica,sans-Serif" font-size="14.00">class = Animal</text>
</g>
<!-- 8591&#45;&gt;14075 -->
<g id="edge13" class="edge">
<title>8591&#45;&gt;14075</title>
<path fill="none" stroke="black" d="M588.8,-202.07C595.19,-193.45 601.92,-184.35 608.49,-175.49"/>
<polygon fill="black" stroke="black" points="611.21,-177.69 614.35,-167.57 605.59,-173.53 611.21,-177.69"/>
</g>
<!-- 8593 -->
<g id="node12" class="node">
<title>8593</title>
<path fill="#c0c0c0" stroke="black" d="M428.5,-36C428.5,-36 398.5,-36 398.5,-36 392.5,-36 386.5,-30 386.5,-24 386.5,-24 386.5,-12 386.5,-12 386.5,-6 392.5,0 398.5,0 398.5,0 428.5,0 428.5,0 434.5,0 440.5,-6 440.5,-12 440.5,-12 440.5,-24 440.5,-24 440.5,-30 434.5,-36 428.5,-36"/>
<text text-anchor="middle" x="413.5" y="-13.32" font-family="Helvetica,sans-Serif" font-size="14.00">(...)</text>
</g>
<!-- 8592&#45;&gt;8593 -->
<g id="edge11" class="edge">
<title>8592&#45;&gt;8593</title>
<path fill="none" stroke="black" d="M441.17,-71.75C436.6,-63.03 431.95,-54.16 427.8,-46.26"/>
<polygon fill="black" stroke="black" points="430.96,-44.74 423.21,-37.51 424.76,-47.99 430.96,-44.74"/>
</g>
<!-- 12726 -->
<g id="node13" class="node">
<title>12726</title>
<path fill="#c0c0c0" stroke="black" d="M500.5,-36C500.5,-36 470.5,-36 470.5,-36 464.5,-36 458.5,-30 458.5,-24 458.5,-24 458.5,-12 458.5,-12 458.5,-6 464.5,0 470.5,0 470.5,0 500.5,0 500.5,0 506.5,0 512.5,-6 512.5,-12 512.5,-12 512.5,-24 512.5,-24 512.5,-30 506.5,-36 500.5,-36"/>
<text text-anchor="middle" x="485.5" y="-13.32" font-family="Helvetica,sans-Serif" font-size="14.00">(...)</text>
</g>
<!-- 8592&#45;&gt;12726 -->
<g id="edge12" class="edge">
<title>8592&#45;&gt;12726</title>
<path fill="none" stroke="black" d="M474.86,-71.75C476.54,-63.42 478.24,-54.97 479.78,-47.34"/>
<polygon fill="black" stroke="black" points="483.19,-48.15 481.74,-37.66 476.33,-46.77 483.19,-48.15"/>
</g>
<!-- 14076 -->
<g id="node15" class="node">
<title>14076</title>
<path fill="#c0c0c0" stroke="black" d="M607.5,-36C607.5,-36 577.5,-36 577.5,-36 571.5,-36 565.5,-30 565.5,-24 565.5,-24 565.5,-12 565.5,-12 565.5,-6 571.5,0 577.5,0 577.5,0 607.5,0 607.5,0 613.5,0 619.5,-6 619.5,-12 619.5,-12 619.5,-24 619.5,-24 619.5,-30 613.5,-36 607.5,-36"/>
<text text-anchor="middle" x="592.5" y="-13.32" font-family="Helvetica,sans-Serif" font-size="14.00">(...)</text>
</g>
<!-- 14075&#45;&gt;14076 -->
<g id="edge14" class="edge">
<title>14075&#45;&gt;14076</title>
<path fill="none" stroke="black" d="M622.84,-71.75C617.76,-62.93 612.6,-53.96 608.02,-45.99"/>
<polygon fill="black" stroke="black" points="611.15,-44.41 603.13,-37.48 605.08,-47.9 611.15,-44.41"/>
</g>
<!-- 14861 -->
<g id="node16" class="node">
<title>14861</title>
<path fill="#c0c0c0" stroke="black" d="M679.5,-36C679.5,-36 649.5,-36 649.5,-36 643.5,-36 637.5,-30 637.5,-24 637.5,-24 637.5,-12 637.5,-12 637.5,-6 643.5,0 649.5,0 649.5,0 679.5,0 679.5,0 685.5,0 691.5,-6 691.5,-12 691.5,-12 691.5,-24 691.5,-24 691.5,-30 685.5,-36 679.5,-36"/>
<text text-anchor="middle" x="664.5" y="-13.32" font-family="Helvetica,sans-Serif" font-size="14.00">(...)</text>
</g>
<!-- 14075&#45;&gt;14861 -->
<g id="edge15" class="edge">
<title>14075&#45;&gt;14861</title>
<path fill="none" stroke="black" d="M656.52,-71.75C657.78,-63.42 659.06,-54.97 660.21,-47.34"/>
<polygon fill="black" stroke="black" points="663.64,-48.08 661.67,-37.67 656.72,-47.03 663.64,-48.08"/>
</g>
<!-- 15045 -->
<g id="node18" class="node">
<title>15045</title>
<path fill="#eda876" stroke="black" d="M976.5,-296.5C976.5,-296.5 834.5,-296.5 834.5,-296.5 828.5,-296.5 822.5,-290.5 822.5,-284.5 822.5,-284.5 822.5,-214.25 822.5,-214.25 822.5,-208.25 828.5,-202.25 834.5,-202.25 834.5,-202.25 976.5,-202.25 976.5,-202.25 982.5,-202.25 988.5,-208.25 988.5,-214.25 988.5,-214.25 988.5,-284.5 988.5,-284.5 988.5,-290.5 982.5,-296.5 976.5,-296.5"/>
<text text-anchor="middle" x="905.5" y="-279.2" font-family="Helvetica,sans-Serif" font-size="14.00">17_A &lt;= 0.5</text>
<text text-anchor="middle" x="905.5" y="-261.95" font-family="Helvetica,sans-Serif" font-size="14.00">entropy = 0.787</text>
<text text-anchor="middle" x="905.5" y="-244.7" font-family="Helvetica,sans-Serif" font-size="14.00">samples = 3383</text>
<text text-anchor="middle" x="905.5" y="-227.45" font-family="Helvetica,sans-Serif" font-size="14.00">value = [4051, 1247]</text>
<text text-anchor="middle" x="905.5" y="-210.2" font-family="Helvetica,sans-Serif" font-size="14.00">class = Animal</text>
</g>
<!-- 15044&#45;&gt;15045 -->
<g id="edge17" class="edge">
<title>15044&#45;&gt;15045</title>
<path fill="none" stroke="black" d="M905.5,-332.32C905.5,-324.42 905.5,-316.13 905.5,-307.98"/>
<polygon fill="black" stroke="black" points="909,-308.12 905.5,-298.12 902,-308.12 909,-308.12"/>
</g>
<!-- 16556 -->
<g id="node25" class="node">
<title>16556</title>
<path fill="#fbeadf" stroke="black" d="M1223.5,-296.5C1223.5,-296.5 1099.5,-296.5 1099.5,-296.5 1093.5,-296.5 1087.5,-290.5 1087.5,-284.5 1087.5,-284.5 1087.5,-214.25 1087.5,-214.25 1087.5,-208.25 1093.5,-202.25 1099.5,-202.25 1099.5,-202.25 1223.5,-202.25 1223.5,-202.25 1229.5,-202.25 1235.5,-208.25 1235.5,-214.25 1235.5,-214.25 1235.5,-284.5 1235.5,-284.5 1235.5,-290.5 1229.5,-296.5 1223.5,-296.5"/>
<text text-anchor="middle" x="1161.5" y="-279.2" font-family="Helvetica,sans-Serif" font-size="14.00">2_A &lt;= 0.5</text>
<text text-anchor="middle" x="1161.5" y="-261.95" font-family="Helvetica,sans-Serif" font-size="14.00">entropy = 0.994</text>
<text text-anchor="middle" x="1161.5" y="-244.7" font-family="Helvetica,sans-Serif" font-size="14.00">samples = 825</text>
<text text-anchor="middle" x="1161.5" y="-227.45" font-family="Helvetica,sans-Serif" font-size="14.00">value = [704, 589]</text>
<text text-anchor="middle" x="1161.5" y="-210.2" font-family="Helvetica,sans-Serif" font-size="14.00">class = Animal</text>
</g>
<!-- 15044&#45;&gt;16556 -->
<g id="edge24" class="edge">
<title>15044&#45;&gt;16556</title>
<path fill="none" stroke="black" d="M988.97,-336.81C1017.17,-322.68 1048.66,-306.9 1076.95,-292.74"/>
<polygon fill="black" stroke="black" points="1078.48,-295.88 1085.85,-288.27 1075.35,-289.62 1078.48,-295.88"/>
</g>
<!-- 15046 -->
<g id="node19" class="node">
<title>15046</title>
<path fill="#eca16b" stroke="black" d="M891,-166.25C891,-166.25 758,-166.25 758,-166.25 752,-166.25 746,-160.25 746,-154.25 746,-154.25 746,-84 746,-84 746,-78 752,-72 758,-72 758,-72 891,-72 891,-72 897,-72 903,-78 903,-84 903,-84 903,-154.25 903,-154.25 903,-160.25 897,-166.25 891,-166.25"/>
<text text-anchor="middle" x="824.5" y="-148.95" font-family="Helvetica,sans-Serif" font-size="14.00">17_C &lt;= 0.5</text>
<text text-anchor="middle" x="824.5" y="-131.7" font-family="Helvetica,sans-Serif" font-size="14.00">entropy = 0.723</text>
<text text-anchor="middle" x="824.5" y="-114.45" font-family="Helvetica,sans-Serif" font-size="14.00">samples = 2652</text>
<text text-anchor="middle" x="824.5" y="-97.2" font-family="Helvetica,sans-Serif" font-size="14.00">value = [3324, 833]</text>
<text text-anchor="middle" x="824.5" y="-79.95" font-family="Helvetica,sans-Serif" font-size="14.00">class = Animal</text>
</g>
<!-- 15045&#45;&gt;15046 -->
<g id="edge18" class="edge">
<title>15045&#45;&gt;15046</title>
<path fill="none" stroke="black" d="M876.26,-202.07C870.92,-193.63 865.31,-184.74 859.82,-176.05"/>
<polygon fill="black" stroke="black" points="862.81,-174.22 854.51,-167.64 856.89,-177.96 862.81,-174.22"/>
</g>
<!-- 16223 -->
<g id="node22" class="node">
<title>16223</title>
<path fill="#f4c9aa" stroke="black" d="M1057.5,-166.25C1057.5,-166.25 933.5,-166.25 933.5,-166.25 927.5,-166.25 921.5,-160.25 921.5,-154.25 921.5,-154.25 921.5,-84 921.5,-84 921.5,-78 927.5,-72 933.5,-72 933.5,-72 1057.5,-72 1057.5,-72 1063.5,-72 1069.5,-78 1069.5,-84 1069.5,-84 1069.5,-154.25 1069.5,-154.25 1069.5,-160.25 1063.5,-166.25 1057.5,-166.25"/>
<text text-anchor="middle" x="995.5" y="-148.95" font-family="Helvetica,sans-Serif" font-size="14.00">9_C &lt;= 0.5</text>
<text text-anchor="middle" x="995.5" y="-131.7" font-family="Helvetica,sans-Serif" font-size="14.00">entropy = 0.945</text>
<text text-anchor="middle" x="995.5" y="-114.45" font-family="Helvetica,sans-Serif" font-size="14.00">samples = 731</text>
<text text-anchor="middle" x="995.5" y="-97.2" font-family="Helvetica,sans-Serif" font-size="14.00">value = [727, 414]</text>
<text text-anchor="middle" x="995.5" y="-79.95" font-family="Helvetica,sans-Serif" font-size="14.00">class = Animal</text>
</g>
<!-- 15045&#45;&gt;16223 -->
<g id="edge21" class="edge">
<title>15045&#45;&gt;16223</title>
<path fill="none" stroke="black" d="M937.99,-202.07C943.98,-193.54 950.29,-184.54 956.45,-175.77"/>
<polygon fill="black" stroke="black" points="959.31,-177.79 962.19,-167.6 953.58,-173.77 959.31,-177.79"/>
</g>
<!-- 15047 -->
<g id="node20" class="node">
<title>15047</title>
<path fill="#c0c0c0" stroke="black" d="M780.5,-36C780.5,-36 750.5,-36 750.5,-36 744.5,-36 738.5,-30 738.5,-24 738.5,-24 738.5,-12 738.5,-12 738.5,-6 744.5,0 750.5,0 750.5,0 780.5,0 780.5,0 786.5,0 792.5,-6 792.5,-12 792.5,-12 792.5,-24 792.5,-24 792.5,-30 786.5,-36 780.5,-36"/>
<text text-anchor="middle" x="765.5" y="-13.32" font-family="Helvetica,sans-Serif" font-size="14.00">(...)</text>
</g>
<!-- 15046&#45;&gt;15047 -->
<g id="edge19" class="edge">
<title>15046&#45;&gt;15047</title>
<path fill="none" stroke="black" d="M796.9,-71.75C791.65,-62.93 786.31,-53.96 781.56,-45.99"/>
<polygon fill="black" stroke="black" points="784.62,-44.28 776.5,-37.47 778.6,-47.86 784.62,-44.28"/>
</g>
<!-- 15858 -->
<g id="node21" class="node">
<title>15858</title>
<path fill="#c0c0c0" stroke="black" d="M852.5,-36C852.5,-36 822.5,-36 822.5,-36 816.5,-36 810.5,-30 810.5,-24 810.5,-24 810.5,-12 810.5,-12 810.5,-6 816.5,0 822.5,0 822.5,0 852.5,0 852.5,0 858.5,0 864.5,-6 864.5,-12 864.5,-12 864.5,-24 864.5,-24 864.5,-30 858.5,-36 852.5,-36"/>
<text text-anchor="middle" x="837.5" y="-13.32" font-family="Helvetica,sans-Serif" font-size="14.00">(...)</text>
</g>
<!-- 15046&#45;&gt;15858 -->
<g id="edge20" class="edge">
<title>15046&#45;&gt;15858</title>
<path fill="none" stroke="black" d="M830.58,-71.75C831.67,-63.42 832.78,-54.97 833.78,-47.34"/>
<polygon fill="black" stroke="black" points="837.22,-48.04 835.05,-37.67 830.28,-47.13 837.22,-48.04"/>
</g>
<!-- 16224 -->
<g id="node23" class="node">
<title>16224</title>
<path fill="#c0c0c0" stroke="black" d="M949.5,-36C949.5,-36 919.5,-36 919.5,-36 913.5,-36 907.5,-30 907.5,-24 907.5,-24 907.5,-12 907.5,-12 907.5,-6 913.5,0 919.5,0 919.5,0 949.5,0 949.5,0 955.5,0 961.5,-6 961.5,-12 961.5,-12 961.5,-24 961.5,-24 961.5,-30 955.5,-36 949.5,-36"/>
<text text-anchor="middle" x="934.5" y="-13.32" font-family="Helvetica,sans-Serif" font-size="14.00">(...)</text>
</g>
<!-- 16223&#45;&gt;16224 -->
<g id="edge22" class="edge">
<title>16223&#45;&gt;16224</title>
<path fill="none" stroke="black" d="M966.96,-71.75C961.47,-62.83 955.89,-53.76 950.94,-45.72"/>
<polygon fill="black" stroke="black" points="954.08,-44.14 945.86,-37.46 948.12,-47.81 954.08,-44.14"/>
</g>
<!-- 16447 -->
<g id="node24" class="node">
<title>16447</title>
<path fill="#c0c0c0" stroke="black" d="M1021.5,-36C1021.5,-36 991.5,-36 991.5,-36 985.5,-36 979.5,-30 979.5,-24 979.5,-24 979.5,-12 979.5,-12 979.5,-6 985.5,0 991.5,0 991.5,0 1021.5,0 1021.5,0 1027.5,0 1033.5,-6 1033.5,-12 1033.5,-12 1033.5,-24 1033.5,-24 1033.5,-30 1027.5,-36 1021.5,-36"/>
<text text-anchor="middle" x="1006.5" y="-13.32" font-family="Helvetica,sans-Serif" font-size="14.00">(...)</text>
</g>
<!-- 16223&#45;&gt;16447 -->
<g id="edge23" class="edge">
<title>16223&#45;&gt;16447</title>
<path fill="none" stroke="black" d="M1000.65,-71.75C1001.56,-63.52 1002.49,-55.17 1003.32,-47.61"/>
<polygon fill="black" stroke="black" points="1006.8,-48 1004.43,-37.68 999.85,-47.23 1006.8,-48"/>
</g>
<!-- 16557 -->
<g id="node26" class="node">
<title>16557</title>
<path fill="#f3f9fd" stroke="black" d="M1223.5,-166.25C1223.5,-166.25 1099.5,-166.25 1099.5,-166.25 1093.5,-166.25 1087.5,-160.25 1087.5,-154.25 1087.5,-154.25 1087.5,-84 1087.5,-84 1087.5,-78 1093.5,-72 1099.5,-72 1099.5,-72 1223.5,-72 1223.5,-72 1229.5,-72 1235.5,-78 1235.5,-84 1235.5,-84 1235.5,-154.25 1235.5,-154.25 1235.5,-160.25 1229.5,-166.25 1223.5,-166.25"/>
<text text-anchor="middle" x="1161.5" y="-148.95" font-family="Helvetica,sans-Serif" font-size="14.00">1_A &lt;= 0.5</text>
<text text-anchor="middle" x="1161.5" y="-131.7" font-family="Helvetica,sans-Serif" font-size="14.00">entropy = 0.999</text>
<text text-anchor="middle" x="1161.5" y="-114.45" font-family="Helvetica,sans-Serif" font-size="14.00">samples = 642</text>
<text text-anchor="middle" x="1161.5" y="-97.2" font-family="Helvetica,sans-Serif" font-size="14.00">value = [492, 524]</text>
<text text-anchor="middle" x="1161.5" y="-79.95" font-family="Helvetica,sans-Serif" font-size="14.00">class = Plant</text>
</g>
<!-- 16556&#45;&gt;16557 -->
<g id="edge25" class="edge">
<title>16556&#45;&gt;16557</title>
<path fill="none" stroke="black" d="M1161.5,-202.07C1161.5,-194.17 1161.5,-185.88 1161.5,-177.73"/>
<polygon fill="black" stroke="black" points="1165,-177.87 1161.5,-167.87 1158,-177.87 1165,-177.87"/>
</g>
<!-- 16892 -->
<g id="node29" class="node">
<title>16892</title>
<path fill="#eda876" stroke="black" d="M1381,-166.25C1381,-166.25 1266,-166.25 1266,-166.25 1260,-166.25 1254,-160.25 1254,-154.25 1254,-154.25 1254,-84 1254,-84 1254,-78 1260,-72 1266,-72 1266,-72 1381,-72 1381,-72 1387,-72 1393,-78 1393,-84 1393,-84 1393,-154.25 1393,-154.25 1393,-160.25 1387,-166.25 1381,-166.25"/>
<text text-anchor="middle" x="1323.5" y="-148.95" font-family="Helvetica,sans-Serif" font-size="14.00">3_A &lt;= 0.5</text>
<text text-anchor="middle" x="1323.5" y="-131.7" font-family="Helvetica,sans-Serif" font-size="14.00">entropy = 0.786</text>
<text text-anchor="middle" x="1323.5" y="-114.45" font-family="Helvetica,sans-Serif" font-size="14.00">samples = 183</text>
<text text-anchor="middle" x="1323.5" y="-97.2" font-family="Helvetica,sans-Serif" font-size="14.00">value = [212, 65]</text>
<text text-anchor="middle" x="1323.5" y="-79.95" font-family="Helvetica,sans-Serif" font-size="14.00">class = Animal</text>
</g>
<!-- 16556&#45;&gt;16892 -->
<g id="edge28" class="edge">
<title>16556&#45;&gt;16892</title>
<path fill="none" stroke="black" d="M1219.99,-202.07C1231.61,-192.87 1243.91,-183.13 1255.82,-173.71"/>
<polygon fill="black" stroke="black" points="1257.97,-176.46 1263.64,-167.51 1253.63,-170.98 1257.97,-176.46"/>
</g>
<!-- 16558 -->
<g id="node27" class="node">
<title>16558</title>
<path fill="#c0c0c0" stroke="black" d="M1131.5,-36C1131.5,-36 1101.5,-36 1101.5,-36 1095.5,-36 1089.5,-30 1089.5,-24 1089.5,-24 1089.5,-12 1089.5,-12 1089.5,-6 1095.5,0 1101.5,0 1101.5,0 1131.5,0 1131.5,0 1137.5,0 1143.5,-6 1143.5,-12 1143.5,-12 1143.5,-24 1143.5,-24 1143.5,-30 1137.5,-36 1131.5,-36"/>
<text text-anchor="middle" x="1116.5" y="-13.32" font-family="Helvetica,sans-Serif" font-size="14.00">(...)</text>
</g>
<!-- 16557&#45;&gt;16558 -->
<g id="edge26" class="edge">
<title>16557&#45;&gt;16558</title>
<path fill="none" stroke="black" d="M1140.45,-71.75C1136.53,-63.12 1132.55,-54.36 1129,-46.53"/>
<polygon fill="black" stroke="black" points="1132.24,-45.21 1124.92,-37.55 1125.87,-48.1 1132.24,-45.21"/>
</g>
<!-- 16853 -->
<g id="node28" class="node">
<title>16853</title>
<path fill="#c0c0c0" stroke="black" d="M1203.5,-36C1203.5,-36 1173.5,-36 1173.5,-36 1167.5,-36 1161.5,-30 1161.5,-24 1161.5,-24 1161.5,-12 1161.5,-12 1161.5,-6 1167.5,0 1173.5,0 1173.5,0 1203.5,0 1203.5,0 1209.5,0 1215.5,-6 1215.5,-12 1215.5,-12 1215.5,-24 1215.5,-24 1215.5,-30 1209.5,-36 1203.5,-36"/>
<text text-anchor="middle" x="1188.5" y="-13.32" font-family="Helvetica,sans-Serif" font-size="14.00">(...)</text>
</g>
<!-- 16557&#45;&gt;16853 -->
<g id="edge27" class="edge">
<title>16557&#45;&gt;16853</title>
<path fill="none" stroke="black" d="M1174.13,-71.75C1176.43,-63.32 1178.76,-54.77 1180.85,-47.07"/>
<polygon fill="black" stroke="black" points="1184.17,-48.2 1183.42,-37.63 1177.42,-46.36 1184.17,-48.2"/>
</g>
<!-- 16893 -->
<g id="node30" class="node">
<title>16893</title>
<path fill="#c0c0c0" stroke="black" d="M1302.5,-36C1302.5,-36 1272.5,-36 1272.5,-36 1266.5,-36 1260.5,-30 1260.5,-24 1260.5,-24 1260.5,-12 1260.5,-12 1260.5,-6 1266.5,0 1272.5,0 1272.5,0 1302.5,0 1302.5,0 1308.5,0 1314.5,-6 1314.5,-12 1314.5,-12 1314.5,-24 1314.5,-24 1314.5,-30 1308.5,-36 1302.5,-36"/>
<text text-anchor="middle" x="1287.5" y="-13.32" font-family="Helvetica,sans-Serif" font-size="14.00">(...)</text>
</g>
<!-- 16892&#45;&gt;16893 -->
<g id="edge29" class="edge">
<title>16892&#45;&gt;16893</title>
<path fill="none" stroke="black" d="M1306.66,-71.75C1303.56,-63.22 1300.42,-54.57 1297.6,-46.8"/>
<polygon fill="black" stroke="black" points="1300.96,-45.8 1294.25,-37.6 1294.38,-48.19 1300.96,-45.8"/>
</g>
<!-- 16964 -->
<g id="node31" class="node">
<title>16964</title>
<path fill="#c0c0c0" stroke="black" d="M1374.5,-36C1374.5,-36 1344.5,-36 1344.5,-36 1338.5,-36 1332.5,-30 1332.5,-24 1332.5,-24 1332.5,-12 1332.5,-12 1332.5,-6 1338.5,0 1344.5,0 1344.5,0 1374.5,0 1374.5,0 1380.5,0 1386.5,-6 1386.5,-12 1386.5,-12 1386.5,-24 1386.5,-24 1386.5,-30 1380.5,-36 1374.5,-36"/>
<text text-anchor="middle" x="1359.5" y="-13.32" font-family="Helvetica,sans-Serif" font-size="14.00">(...)</text>
</g>
<!-- 16892&#45;&gt;16964 -->
<g id="edge30" class="edge">
<title>16892&#45;&gt;16964</title>
<path fill="none" stroke="black" d="M1340.34,-71.75C1343.44,-63.22 1346.58,-54.57 1349.4,-46.8"/>
<polygon fill="black" stroke="black" points="1352.62,-48.19 1352.75,-37.6 1346.04,-45.8 1352.62,-48.19"/>
</g>
</g>
</svg>
