<?xml version="1.0" encoding="UTF-8" standalone="no"?>
<!DOCTYPE svg PUBLIC "-//W3C//DTD SVG 1.1//EN"
 "http://www.w3.org/Graphics/SVG/1.1/DTD/svg11.dtd">
<!-- Generated by graphviz version 12.0.0 (20240803.0821)
 -->
<!-- Title: Tree Pages: 1 -->
<svg width="1418pt" height="565pt"
 viewBox="0.00 0.00 1418.00 565.00" xmlns="http://www.w3.org/2000/svg" xmlns:xlink="http://www.w3.org/1999/xlink">
<g id="graph0" class="graph" transform="scale(1 1) rotate(0) translate(4 561)">
<title>Tree</title>
<polygon fill="white" stroke="none" points="-4,4 -4,-561 1414,-561 1414,4 -4,4"/>
<!-- 0 -->
<g id="node1" class="node">
<title>0</title>
<path fill="#fffefe" stroke="black" d="M812,-557C812,-557 652,-557 652,-557 646,-557 640,-551 640,-545 640,-545 640,-474.75 640,-474.75 640,-468.75 646,-462.75 652,-462.75 652,-462.75 812,-462.75 812,-462.75 818,-462.75 824,-468.75 824,-474.75 824,-474.75 824,-545 824,-545 824,-551 818,-557 812,-557"/>
<text text-anchor="middle" x="732" y="-539.7" font-family="Helvetica,sans-Serif" font-size="14.00">22_A &lt;= 0.5</text>
<text text-anchor="middle" x="732" y="-522.45" font-family="Helvetica,sans-Serif" font-size="14.00">entropy = 1.0</text>
<text text-anchor="middle" x="732" y="-505.2" font-family="Helvetica,sans-Serif" font-size="14.00">samples = 38153</text>
<text text-anchor="middle" x="732" y="-487.95" font-family="Helvetica,sans-Serif" font-size="14.00">value = [30252, 30093]</text>
<text text-anchor="middle" x="732" y="-470.7" font-family="Helvetica,sans-Serif" font-size="14.00">class = Animal</text>
</g>
<!-- 1 -->
<g id="node2" class="node">
<title>1</title>
<path fill="#ecf6fd" stroke="black" d="M639,-426.75C639,-426.75 479,-426.75 479,-426.75 473,-426.75 467,-420.75 467,-414.75 467,-414.75 467,-344.5 467,-344.5 467,-338.5 473,-332.5 479,-332.5 479,-332.5 639,-332.5 639,-332.5 645,-332.5 651,-338.5 651,-344.5 651,-344.5 651,-414.75 651,-414.75 651,-420.75 645,-426.75 639,-426.75"/>
<text text-anchor="middle" x="559" y="-409.45" font-family="Helvetica,sans-Serif" font-size="14.00">22_C &lt;= 0.5</text>
<text text-anchor="middle" x="559" y="-392.2" font-family="Helvetica,sans-Serif" font-size="14.00">entropy = 0.998</text>
<text text-anchor="middle" x="559" y="-374.95" font-family="Helvetica,sans-Serif" font-size="14.00">samples = 33952</text>
<text text-anchor="middle" x="559" y="-357.7" font-family="Helvetica,sans-Serif" font-size="14.00">value = [25509, 28191]</text>
<text text-anchor="middle" x="559" y="-340.45" font-family="Helvetica,sans-Serif" font-size="14.00">class = Plant</text>
</g>
<!-- 0&#45;&gt;1 -->
<g id="edge1" class="edge">
<title>0&#45;&gt;1</title>
<path fill="none" stroke="black" d="M669.54,-462.57C657,-453.28 643.73,-443.44 630.9,-433.93"/>
<polygon fill="black" stroke="black" points="632.99,-431.12 622.87,-427.97 628.82,-436.74 632.99,-431.12"/>
<text text-anchor="middle" x="625.33" y="-447.13" font-family="Helvetica,sans-Serif" font-size="14.00">True</text>
</g>
<!-- 14618 -->
<g id="node17" class="node">
<title>14618</title>
<path fill="#efb488" stroke="black" d="M983,-426.75C983,-426.75 841,-426.75 841,-426.75 835,-426.75 829,-420.75 829,-414.75 829,-414.75 829,-344.5 829,-344.5 829,-338.5 835,-332.5 841,-332.5 841,-332.5 983,-332.5 983,-332.5 989,-332.5 995,-338.5 995,-344.5 995,-344.5 995,-414.75 995,-414.75 995,-420.75 989,-426.75 983,-426.75"/>
<text text-anchor="middle" x="912" y="-409.45" font-family="Helvetica,sans-Serif" font-size="14.00">15_C &lt;= 0.5</text>
<text text-anchor="middle" x="912" y="-392.2" font-family="Helvetica,sans-Serif" font-size="14.00">entropy = 0.864</text>
<text text-anchor="middle" x="912" y="-374.95" font-family="Helvetica,sans-Serif" font-size="14.00">samples = 4201</text>
<text text-anchor="middle" x="912" y="-357.7" font-family="Helvetica,sans-Serif" font-size="14.00">value = [4743, 1902]</text>
<text text-anchor="middle" x="912" y="-340.45" font-family="Helvetica,sans-Serif" font-size="14.00">class = Animal</text>
</g>
<!-- 0&#45;&gt;14618 -->
<g id="edge16" class="edge">
<title>0&#45;&gt;14618</title>
<path fill="none" stroke="black" d="M797.24,-462.39C810.32,-453.07 824.15,-443.22 837.52,-433.69"/>
<polygon fill="black" stroke="black" points="839.34,-436.7 845.45,-428.04 835.27,-430.99 839.34,-436.7"/>
<text text-anchor="middle" x="842.54" y="-447.14" font-family="Helvetica,sans-Serif" font-size="14.00">False</text>
</g>
<!-- 2 -->
<g id="node3" class="node">
<title>2</title>
<path fill="#d8ecfa" stroke="black" d="M370,-296.5C370,-296.5 210,-296.5 210,-296.5 204,-296.5 198,-290.5 198,-284.5 198,-284.5 198,-214.25 198,-214.25 198,-208.25 204,-202.25 210,-202.25 210,-202.25 370,-202.25 370,-202.25 376,-202.25 382,-208.25 382,-214.25 382,-214.25 382,-284.5 382,-284.5 382,-290.5 376,-296.5 370,-296.5"/>
<text text-anchor="middle" x="290" y="-279.2" font-family="Helvetica,sans-Serif" font-size="14.00">1_U &lt;= 0.5</text>
<text text-anchor="middle" x="290" y="-261.95" font-family="Helvetica,sans-Serif" font-size="14.00">entropy = 0.992</text>
<text text-anchor="middle" x="290" y="-244.7" font-family="Helvetica,sans-Serif" font-size="14.00">samples = 30164</text>
<text text-anchor="middle" x="290" y="-227.45" font-family="Helvetica,sans-Serif" font-size="14.00">value = [21283, 26455]</text>
<text text-anchor="middle" x="290" y="-210.2" font-family="Helvetica,sans-Serif" font-size="14.00">class = Plant</text>
</g>
<!-- 1&#45;&gt;2 -->
<g id="edge2" class="edge">
<title>1&#45;&gt;2</title>
<path fill="none" stroke="black" d="M466.8,-334.67C442.85,-323.25 416.9,-310.88 392.45,-299.22"/>
<polygon fill="black" stroke="black" points="393.98,-296.07 383.44,-294.93 390.96,-302.39 393.98,-296.07"/>
</g>
<!-- 12733 -->
<g id="node10" class="node">
<title>12733</title>
<path fill="#f0b58a" stroke="black" d="M630,-296.5C630,-296.5 488,-296.5 488,-296.5 482,-296.5 476,-290.5 476,-284.5 476,-284.5 476,-214.25 476,-214.25 476,-208.25 482,-202.25 488,-202.25 488,-202.25 630,-202.25 630,-202.25 636,-202.25 642,-208.25 642,-214.25 642,-214.25 642,-284.5 642,-284.5 642,-290.5 636,-296.5 630,-296.5"/>
<text text-anchor="middle" x="559" y="-279.2" font-family="Helvetica,sans-Serif" font-size="14.00">6_A &lt;= 0.5</text>
<text text-anchor="middle" x="559" y="-261.95" font-family="Helvetica,sans-Serif" font-size="14.00">entropy = 0.87</text>
<text text-anchor="middle" x="559" y="-244.7" font-family="Helvetica,sans-Serif" font-size="14.00">samples = 3788</text>
<text text-anchor="middle" x="559" y="-227.45" font-family="Helvetica,sans-Serif" font-size="14.00">value = [4226, 1736]</text>
<text text-anchor="middle" x="559" y="-210.2" font-family="Helvetica,sans-Serif" font-size="14.00">class = Animal</text>
</g>
<!-- 1&#45;&gt;12733 -->
<g id="edge9" class="edge">
<title>1&#45;&gt;12733</title>
<path fill="none" stroke="black" d="M559,-332.32C559,-324.42 559,-316.13 559,-307.98"/>
<polygon fill="black" stroke="black" points="562.5,-308.12 559,-298.12 555.5,-308.12 562.5,-308.12"/>
</g>
<!-- 3 -->
<g id="node4" class="node">
<title>3</title>
<path fill="#fcefe5" stroke="black" d="M172,-166.25C172,-166.25 12,-166.25 12,-166.25 6,-166.25 0,-160.25 0,-154.25 0,-154.25 0,-84 0,-84 0,-78 6,-72 12,-72 12,-72 172,-72 172,-72 178,-72 184,-78 184,-84 184,-84 184,-154.25 184,-154.25 184,-160.25 178,-166.25 172,-166.25"/>
<text text-anchor="middle" x="92" y="-148.95" font-family="Helvetica,sans-Serif" font-size="14.00">8_C &lt;= 0.5</text>
<text text-anchor="middle" x="92" y="-131.7" font-family="Helvetica,sans-Serif" font-size="14.00">entropy = 0.997</text>
<text text-anchor="middle" x="92" y="-114.45" font-family="Helvetica,sans-Serif" font-size="14.00">samples = 13717</text>
<text text-anchor="middle" x="92" y="-97.2" font-family="Helvetica,sans-Serif" font-size="14.00">value = [11583, 10083]</text>
<text text-anchor="middle" x="92" y="-79.95" font-family="Helvetica,sans-Serif" font-size="14.00">class = Animal</text>
</g>
<!-- 2&#45;&gt;3 -->
<g id="edge3" class="edge">
<title>2&#45;&gt;3</title>
<path fill="none" stroke="black" d="M218.24,-201.89C203.71,-192.48 188.34,-182.53 173.5,-172.92"/>
<polygon fill="black" stroke="black" points="175.42,-169.99 165.12,-167.49 171.61,-175.86 175.42,-169.99"/>
</g>
<!-- 7336 -->
<g id="node7" class="node">
<title>7336</title>
<path fill="#aed7f4" stroke="black" d="M365.5,-166.25C365.5,-166.25 214.5,-166.25 214.5,-166.25 208.5,-166.25 202.5,-160.25 202.5,-154.25 202.5,-154.25 202.5,-84 202.5,-84 202.5,-78 208.5,-72 214.5,-72 214.5,-72 365.5,-72 365.5,-72 371.5,-72 377.5,-78 377.5,-84 377.5,-84 377.5,-154.25 377.5,-154.25 377.5,-160.25 371.5,-166.25 365.5,-166.25"/>
<text text-anchor="middle" x="290" y="-148.95" font-family="Helvetica,sans-Serif" font-size="14.00">9_U &lt;= 0.5</text>
<text text-anchor="middle" x="290" y="-131.7" font-family="Helvetica,sans-Serif" font-size="14.00">entropy = 0.952</text>
<text text-anchor="middle" x="290" y="-114.45" font-family="Helvetica,sans-Serif" font-size="14.00">samples = 16447</text>
<text text-anchor="middle" x="290" y="-97.2" font-family="Helvetica,sans-Serif" font-size="14.00">value = [9700, 16372]</text>
<text text-anchor="middle" x="290" y="-79.95" font-family="Helvetica,sans-Serif" font-size="14.00">class = Plant</text>
</g>
<!-- 2&#45;&gt;7336 -->
<g id="edge6" class="edge">
<title>2&#45;&gt;7336</title>
<path fill="none" stroke="black" d="M290,-202.07C290,-194.17 290,-185.88 290,-177.73"/>
<polygon fill="black" stroke="black" points="293.5,-177.87 290,-167.87 286.5,-177.87 293.5,-177.87"/>
</g>
<!-- 4 -->
<g id="node5" class="node">
<title>4</title>
<path fill="#c0c0c0" stroke="black" d="M71,-36C71,-36 41,-36 41,-36 35,-36 29,-30 29,-24 29,-24 29,-12 29,-12 29,-6 35,0 41,0 41,0 71,0 71,0 77,0 83,-6 83,-12 83,-12 83,-24 83,-24 83,-30 77,-36 71,-36"/>
<text text-anchor="middle" x="56" y="-13.32" font-family="Helvetica,sans-Serif" font-size="14.00">(...)</text>
</g>
<!-- 3&#45;&gt;4 -->
<g id="edge4" class="edge">
<title>3&#45;&gt;4</title>
<path fill="none" stroke="black" d="M75.16,-71.75C72.06,-63.22 68.92,-54.57 66.1,-46.8"/>
<polygon fill="black" stroke="black" points="69.46,-45.8 62.75,-37.6 62.88,-48.19 69.46,-45.8"/>
</g>
<!-- 5723 -->
<g id="node6" class="node">
<title>5723</title>
<path fill="#c0c0c0" stroke="black" d="M143,-36C143,-36 113,-36 113,-36 107,-36 101,-30 101,-24 101,-24 101,-12 101,-12 101,-6 107,0 113,0 113,0 143,0 143,0 149,0 155,-6 155,-12 155,-12 155,-24 155,-24 155,-30 149,-36 143,-36"/>
<text text-anchor="middle" x="128" y="-13.32" font-family="Helvetica,sans-Serif" font-size="14.00">(...)</text>
</g>
<!-- 3&#45;&gt;5723 -->
<g id="edge5" class="edge">
<title>3&#45;&gt;5723</title>
<path fill="none" stroke="black" d="M108.84,-71.75C111.94,-63.22 115.08,-54.57 117.9,-46.8"/>
<polygon fill="black" stroke="black" points="121.12,-48.19 121.25,-37.6 114.54,-45.8 121.12,-48.19"/>
</g>
<!-- 7337 -->
<g id="node8" class="node">
<title>7337</title>
<path fill="#c0c0c0" stroke="black" d="M271,-36C271,-36 241,-36 241,-36 235,-36 229,-30 229,-24 229,-24 229,-12 229,-12 229,-6 235,0 241,0 241,0 271,0 271,0 277,0 283,-6 283,-12 283,-12 283,-24 283,-24 283,-30 277,-36 271,-36"/>
<text text-anchor="middle" x="256" y="-13.32" font-family="Helvetica,sans-Serif" font-size="14.00">(...)</text>
</g>
<!-- 7336&#45;&gt;7337 -->
<g id="edge7" class="edge">
<title>7336&#45;&gt;7337</title>
<path fill="none" stroke="black" d="M274.1,-71.75C271.17,-63.22 268.2,-54.57 265.53,-46.8"/>
<polygon fill="black" stroke="black" points="268.94,-45.93 262.38,-37.6 262.32,-48.2 268.94,-45.93"/>
</g>
<!-- 11190 -->
<g id="node9" class="node">
<title>11190</title>
<path fill="#c0c0c0" stroke="black" d="M343,-36C343,-36 313,-36 313,-36 307,-36 301,-30 301,-24 301,-24 301,-12 301,-12 301,-6 307,0 313,0 313,0 343,0 343,0 349,0 355,-6 355,-12 355,-12 355,-24 355,-24 355,-30 349,-36 343,-36"/>
<text text-anchor="middle" x="328" y="-13.32" font-family="Helvetica,sans-Serif" font-size="14.00">(...)</text>
</g>
<!-- 7336&#45;&gt;11190 -->
<g id="edge8" class="edge">
<title>7336&#45;&gt;11190</title>
<path fill="none" stroke="black" d="M307.78,-71.75C311.05,-63.22 314.37,-54.57 317.34,-46.8"/>
<polygon fill="black" stroke="black" points="320.56,-48.18 320.88,-37.59 314.03,-45.67 320.56,-48.18"/>
</g>
<!-- 12734 -->
<g id="node11" class="node">
<title>12734</title>
<path fill="#efb083" stroke="black" d="M550,-166.25C550,-166.25 408,-166.25 408,-166.25 402,-166.25 396,-160.25 396,-154.25 396,-154.25 396,-84 396,-84 396,-78 402,-72 408,-72 408,-72 550,-72 550,-72 556,-72 562,-78 562,-84 562,-84 562,-154.25 562,-154.25 562,-160.25 556,-166.25 550,-166.25"/>
<text text-anchor="middle" x="479" y="-148.95" font-family="Helvetica,sans-Serif" font-size="14.00">19_C &lt;= 0.5</text>
<text text-anchor="middle" x="479" y="-131.7" font-family="Helvetica,sans-Serif" font-size="14.00">entropy = 0.844</text>
<text text-anchor="middle" x="479" y="-114.45" font-family="Helvetica,sans-Serif" font-size="14.00">samples = 2899</text>
<text text-anchor="middle" x="479" y="-97.2" font-family="Helvetica,sans-Serif" font-size="14.00">value = [3305, 1233]</text>
<text text-anchor="middle" x="479" y="-79.95" font-family="Helvetica,sans-Serif" font-size="14.00">class = Animal</text>
</g>
<!-- 12733&#45;&gt;12734 -->
<g id="edge10" class="edge">
<title>12733&#45;&gt;12734</title>
<path fill="none" stroke="black" d="M530.12,-202.07C524.85,-193.63 519.3,-184.74 513.88,-176.05"/>
<polygon fill="black" stroke="black" points="516.9,-174.27 508.64,-167.64 510.96,-177.98 516.9,-174.27"/>
</g>
<!-- 14177 -->
<g id="node14" class="node">
<title>14177</title>
<path fill="#f3c6a5" stroke="black" d="M716,-166.25C716,-166.25 592,-166.25 592,-166.25 586,-166.25 580,-160.25 580,-154.25 580,-154.25 580,-84 580,-84 580,-78 586,-72 592,-72 592,-72 716,-72 716,-72 722,-72 728,-78 728,-84 728,-84 728,-154.25 728,-154.25 728,-160.25 722,-166.25 716,-166.25"/>
<text text-anchor="middle" x="654" y="-148.95" font-family="Helvetica,sans-Serif" font-size="14.00">4_C &lt;= 0.5</text>
<text text-anchor="middle" x="654" y="-131.7" font-family="Helvetica,sans-Serif" font-size="14.00">entropy = 0.937</text>
<text text-anchor="middle" x="654" y="-114.45" font-family="Helvetica,sans-Serif" font-size="14.00">samples = 889</text>
<text text-anchor="middle" x="654" y="-97.2" font-family="Helvetica,sans-Serif" font-size="14.00">value = [921, 503]</text>
<text text-anchor="middle" x="654" y="-79.95" font-family="Helvetica,sans-Serif" font-size="14.00">class = Animal</text>
</g>
<!-- 12733&#45;&gt;14177 -->
<g id="edge13" class="edge">
<title>12733&#45;&gt;14177</title>
<path fill="none" stroke="black" d="M593.3,-202.07C599.69,-193.45 606.42,-184.35 612.99,-175.49"/>
<polygon fill="black" stroke="black" points="615.71,-177.69 618.85,-167.57 610.09,-173.53 615.71,-177.69"/>
</g>
<!-- 12735 -->
<g id="node12" class="node">
<title>12735</title>
<path fill="#c0c0c0" stroke="black" d="M437,-36C437,-36 407,-36 407,-36 401,-36 395,-30 395,-24 395,-24 395,-12 395,-12 395,-6 401,0 407,0 407,0 437,0 437,0 443,0 449,-6 449,-12 449,-12 449,-24 449,-24 449,-30 443,-36 437,-36"/>
<text text-anchor="middle" x="422" y="-13.32" font-family="Helvetica,sans-Serif" font-size="14.00">(...)</text>
</g>
<!-- 12734&#45;&gt;12735 -->
<g id="edge11" class="edge">
<title>12734&#45;&gt;12735</title>
<path fill="none" stroke="black" d="M452.34,-71.75C447.26,-62.93 442.1,-53.96 437.52,-45.99"/>
<polygon fill="black" stroke="black" points="440.65,-44.41 432.63,-37.48 434.58,-47.9 440.65,-44.41"/>
</g>
<!-- 13728 -->
<g id="node13" class="node">
<title>13728</title>
<path fill="#c0c0c0" stroke="black" d="M509,-36C509,-36 479,-36 479,-36 473,-36 467,-30 467,-24 467,-24 467,-12 467,-12 467,-6 473,0 479,0 479,0 509,0 509,0 515,0 521,-6 521,-12 521,-12 521,-24 521,-24 521,-30 515,-36 509,-36"/>
<text text-anchor="middle" x="494" y="-13.32" font-family="Helvetica,sans-Serif" font-size="14.00">(...)</text>
</g>
<!-- 12734&#45;&gt;13728 -->
<g id="edge12" class="edge">
<title>12734&#45;&gt;13728</title>
<path fill="none" stroke="black" d="M486.02,-71.75C487.28,-63.42 488.56,-54.97 489.71,-47.34"/>
<polygon fill="black" stroke="black" points="493.14,-48.08 491.17,-37.67 486.22,-47.03 493.14,-48.08"/>
</g>
<!-- 14178 -->
<g id="node15" class="node">
<title>14178</title>
<path fill="#c0c0c0" stroke="black" d="M612,-36C612,-36 582,-36 582,-36 576,-36 570,-30 570,-24 570,-24 570,-12 570,-12 570,-6 576,0 582,0 582,0 612,0 612,0 618,0 624,-6 624,-12 624,-12 624,-24 624,-24 624,-30 618,-36 612,-36"/>
<text text-anchor="middle" x="597" y="-13.32" font-family="Helvetica,sans-Serif" font-size="14.00">(...)</text>
</g>
<!-- 14177&#45;&gt;14178 -->
<g id="edge14" class="edge">
<title>14177&#45;&gt;14178</title>
<path fill="none" stroke="black" d="M627.34,-71.75C622.26,-62.93 617.1,-53.96 612.52,-45.99"/>
<polygon fill="black" stroke="black" points="615.65,-44.41 607.63,-37.48 609.58,-47.9 615.65,-44.41"/>
</g>
<!-- 14507 -->
<g id="node16" class="node">
<title>14507</title>
<path fill="#c0c0c0" stroke="black" d="M684,-36C684,-36 654,-36 654,-36 648,-36 642,-30 642,-24 642,-24 642,-12 642,-12 642,-6 648,0 654,0 654,0 684,0 684,0 690,0 696,-6 696,-12 696,-12 696,-24 696,-24 696,-30 690,-36 684,-36"/>
<text text-anchor="middle" x="669" y="-13.32" font-family="Helvetica,sans-Serif" font-size="14.00">(...)</text>
</g>
<!-- 14177&#45;&gt;14507 -->
<g id="edge15" class="edge">
<title>14177&#45;&gt;14507</title>
<path fill="none" stroke="black" d="M661.02,-71.75C662.28,-63.42 663.56,-54.97 664.71,-47.34"/>
<polygon fill="black" stroke="black" points="668.14,-48.08 666.17,-37.67 661.22,-47.03 668.14,-48.08"/>
</g>
<!-- 14619 -->
<g id="node18" class="node">
<title>14619</title>
<path fill="#eeac7d" stroke="black" d="M983,-296.5C983,-296.5 841,-296.5 841,-296.5 835,-296.5 829,-290.5 829,-284.5 829,-284.5 829,-214.25 829,-214.25 829,-208.25 835,-202.25 841,-202.25 841,-202.25 983,-202.25 983,-202.25 989,-202.25 995,-208.25 995,-214.25 995,-214.25 995,-284.5 995,-284.5 995,-290.5 989,-296.5 983,-296.5"/>
<text text-anchor="middle" x="912" y="-279.2" font-family="Helvetica,sans-Serif" font-size="14.00">18_A &lt;= 0.5</text>
<text text-anchor="middle" x="912" y="-261.95" font-family="Helvetica,sans-Serif" font-size="14.00">entropy = 0.82</text>
<text text-anchor="middle" x="912" y="-244.7" font-family="Helvetica,sans-Serif" font-size="14.00">samples = 3206</text>
<text text-anchor="middle" x="912" y="-227.45" font-family="Helvetica,sans-Serif" font-size="14.00">value = [3759, 1292]</text>
<text text-anchor="middle" x="912" y="-210.2" font-family="Helvetica,sans-Serif" font-size="14.00">class = Animal</text>
</g>
<!-- 14618&#45;&gt;14619 -->
<g id="edge17" class="edge">
<title>14618&#45;&gt;14619</title>
<path fill="none" stroke="black" d="M912,-332.32C912,-324.42 912,-316.13 912,-307.98"/>
<polygon fill="black" stroke="black" points="915.5,-308.12 912,-298.12 908.5,-308.12 915.5,-308.12"/>
</g>
<!-- 16004 -->
<g id="node25" class="node">
<title>16004</title>
<path fill="#f5cfb4" stroke="black" d="M1232,-296.5C1232,-296.5 1108,-296.5 1108,-296.5 1102,-296.5 1096,-290.5 1096,-284.5 1096,-284.5 1096,-214.25 1096,-214.25 1096,-208.25 1102,-202.25 1108,-202.25 1108,-202.25 1232,-202.25 1232,-202.25 1238,-202.25 1244,-208.25 1244,-214.25 1244,-214.25 1244,-284.5 1244,-284.5 1244,-290.5 1238,-296.5 1232,-296.5"/>
<text text-anchor="middle" x="1170" y="-279.2" font-family="Helvetica,sans-Serif" font-size="14.00">4_C &lt;= 0.5</text>
<text text-anchor="middle" x="1170" y="-261.95" font-family="Helvetica,sans-Serif" font-size="14.00">entropy = 0.96</text>
<text text-anchor="middle" x="1170" y="-244.7" font-family="Helvetica,sans-Serif" font-size="14.00">samples = 995</text>
<text text-anchor="middle" x="1170" y="-227.45" font-family="Helvetica,sans-Serif" font-size="14.00">value = [984, 610]</text>
<text text-anchor="middle" x="1170" y="-210.2" font-family="Helvetica,sans-Serif" font-size="14.00">class = Animal</text>
</g>
<!-- 14618&#45;&gt;16004 -->
<g id="edge24" class="edge">
<title>14618&#45;&gt;16004</title>
<path fill="none" stroke="black" d="M995.41,-337.16C1024.25,-322.83 1056.58,-306.75 1085.51,-292.38"/>
<polygon fill="black" stroke="black" points="1086.84,-295.62 1094.23,-288.04 1083.72,-289.36 1086.84,-295.62"/>
</g>
<!-- 14620 -->
<g id="node19" class="node">
<title>14620</title>
<path fill="#efb184" stroke="black" d="M900,-166.25C900,-166.25 758,-166.25 758,-166.25 752,-166.25 746,-160.25 746,-154.25 746,-154.25 746,-84 746,-84 746,-78 752,-72 758,-72 758,-72 900,-72 900,-72 906,-72 912,-78 912,-84 912,-84 912,-154.25 912,-154.25 912,-160.25 906,-166.25 900,-166.25"/>
<text text-anchor="middle" x="829" y="-148.95" font-family="Helvetica,sans-Serif" font-size="14.00">7_A &lt;= 0.5</text>
<text text-anchor="middle" x="829" y="-131.7" font-family="Helvetica,sans-Serif" font-size="14.00">entropy = 0.847</text>
<text text-anchor="middle" x="829" y="-114.45" font-family="Helvetica,sans-Serif" font-size="14.00">samples = 2528</text>
<text text-anchor="middle" x="829" y="-97.2" font-family="Helvetica,sans-Serif" font-size="14.00">value = [2901, 1094]</text>
<text text-anchor="middle" x="829" y="-79.95" font-family="Helvetica,sans-Serif" font-size="14.00">class = Animal</text>
</g>
<!-- 14619&#45;&gt;14620 -->
<g id="edge18" class="edge">
<title>14619&#45;&gt;14620</title>
<path fill="none" stroke="black" d="M882.04,-202.07C876.51,-193.54 870.69,-184.54 865.01,-175.77"/>
<polygon fill="black" stroke="black" points="868.11,-174.12 859.74,-167.63 862.24,-177.93 868.11,-174.12"/>
</g>
<!-- 15729 -->
<g id="node22" class="node">
<title>15729</title>
<path fill="#eb9e67" stroke="black" d="M1066,-166.25C1066,-166.25 942,-166.25 942,-166.25 936,-166.25 930,-160.25 930,-154.25 930,-154.25 930,-84 930,-84 930,-78 936,-72 942,-72 942,-72 1066,-72 1066,-72 1072,-72 1078,-78 1078,-84 1078,-84 1078,-154.25 1078,-154.25 1078,-160.25 1072,-166.25 1066,-166.25"/>
<text text-anchor="middle" x="1004" y="-148.95" font-family="Helvetica,sans-Serif" font-size="14.00">15_A &lt;= 0.5</text>
<text text-anchor="middle" x="1004" y="-131.7" font-family="Helvetica,sans-Serif" font-size="14.00">entropy = 0.696</text>
<text text-anchor="middle" x="1004" y="-114.45" font-family="Helvetica,sans-Serif" font-size="14.00">samples = 678</text>
<text text-anchor="middle" x="1004" y="-97.2" font-family="Helvetica,sans-Serif" font-size="14.00">value = [858, 198]</text>
<text text-anchor="middle" x="1004" y="-79.95" font-family="Helvetica,sans-Serif" font-size="14.00">class = Animal</text>
</g>
<!-- 14619&#45;&gt;15729 -->
<g id="edge21" class="edge">
<title>14619&#45;&gt;15729</title>
<path fill="none" stroke="black" d="M945.21,-202.07C951.4,-193.45 957.93,-184.35 964.29,-175.49"/>
<polygon fill="black" stroke="black" points="966.97,-177.75 969.95,-167.59 961.28,-173.67 966.97,-177.75"/>
</g>
<!-- 14621 -->
<g id="node20" class="node">
<title>14621</title>
<path fill="#c0c0c0" stroke="black" d="M787,-36C787,-36 757,-36 757,-36 751,-36 745,-30 745,-24 745,-24 745,-12 745,-12 745,-6 751,0 757,0 757,0 787,0 787,0 793,0 799,-6 799,-12 799,-12 799,-24 799,-24 799,-30 793,-36 787,-36"/>
<text text-anchor="middle" x="772" y="-13.32" font-family="Helvetica,sans-Serif" font-size="14.00">(...)</text>
</g>
<!-- 14620&#45;&gt;14621 -->
<g id="edge19" class="edge">
<title>14620&#45;&gt;14621</title>
<path fill="none" stroke="black" d="M802.34,-71.75C797.26,-62.93 792.1,-53.96 787.52,-45.99"/>
<polygon fill="black" stroke="black" points="790.65,-44.41 782.63,-37.48 784.58,-47.9 790.65,-44.41"/>
</g>
<!-- 15448 -->
<g id="node21" class="node">
<title>15448</title>
<path fill="#c0c0c0" stroke="black" d="M859,-36C859,-36 829,-36 829,-36 823,-36 817,-30 817,-24 817,-24 817,-12 817,-12 817,-6 823,0 829,0 829,0 859,0 859,0 865,0 871,-6 871,-12 871,-12 871,-24 871,-24 871,-30 865,-36 859,-36"/>
<text text-anchor="middle" x="844" y="-13.32" font-family="Helvetica,sans-Serif" font-size="14.00">(...)</text>
</g>
<!-- 14620&#45;&gt;15448 -->
<g id="edge20" class="edge">
<title>14620&#45;&gt;15448</title>
<path fill="none" stroke="black" d="M836.02,-71.75C837.28,-63.42 838.56,-54.97 839.71,-47.34"/>
<polygon fill="black" stroke="black" points="843.14,-48.08 841.17,-37.67 836.22,-47.03 843.14,-48.08"/>
</g>
<!-- 15730 -->
<g id="node23" class="node">
<title>15730</title>
<path fill="#c0c0c0" stroke="black" d="M958,-36C958,-36 928,-36 928,-36 922,-36 916,-30 916,-24 916,-24 916,-12 916,-12 916,-6 922,0 928,0 928,0 958,0 958,0 964,0 970,-6 970,-12 970,-12 970,-24 970,-24 970,-30 964,-36 958,-36"/>
<text text-anchor="middle" x="943" y="-13.32" font-family="Helvetica,sans-Serif" font-size="14.00">(...)</text>
</g>
<!-- 15729&#45;&gt;15730 -->
<g id="edge22" class="edge">
<title>15729&#45;&gt;15730</title>
<path fill="none" stroke="black" d="M975.46,-71.75C969.97,-62.83 964.39,-53.76 959.44,-45.72"/>
<polygon fill="black" stroke="black" points="962.58,-44.14 954.36,-37.46 956.62,-47.81 962.58,-44.14"/>
</g>
<!-- 15905 -->
<g id="node24" class="node">
<title>15905</title>
<path fill="#c0c0c0" stroke="black" d="M1030,-36C1030,-36 1000,-36 1000,-36 994,-36 988,-30 988,-24 988,-24 988,-12 988,-12 988,-6 994,0 1000,0 1000,0 1030,0 1030,0 1036,0 1042,-6 1042,-12 1042,-12 1042,-24 1042,-24 1042,-30 1036,-36 1030,-36"/>
<text text-anchor="middle" x="1015" y="-13.32" font-family="Helvetica,sans-Serif" font-size="14.00">(...)</text>
</g>
<!-- 15729&#45;&gt;15905 -->
<g id="edge23" class="edge">
<title>15729&#45;&gt;15905</title>
<path fill="none" stroke="black" d="M1009.15,-71.75C1010.06,-63.52 1010.99,-55.17 1011.82,-47.61"/>
<polygon fill="black" stroke="black" points="1015.3,-48 1012.93,-37.68 1008.35,-47.23 1015.3,-48"/>
</g>
<!-- 16005 -->
<g id="node26" class="node">
<title>16005</title>
<path fill="#eeae80" stroke="black" d="M1232,-166.25C1232,-166.25 1108,-166.25 1108,-166.25 1102,-166.25 1096,-160.25 1096,-154.25 1096,-154.25 1096,-84 1096,-84 1096,-78 1102,-72 1108,-72 1108,-72 1232,-72 1232,-72 1238,-72 1244,-78 1244,-84 1244,-84 1244,-154.25 1244,-154.25 1244,-160.25 1238,-166.25 1232,-166.25"/>
<text text-anchor="middle" x="1170" y="-148.95" font-family="Helvetica,sans-Serif" font-size="14.00">24_C &lt;= 0.5</text>
<text text-anchor="middle" x="1170" y="-131.7" font-family="Helvetica,sans-Serif" font-size="14.00">entropy = 0.831</text>
<text text-anchor="middle" x="1170" y="-114.45" font-family="Helvetica,sans-Serif" font-size="14.00">samples = 645</text>
<text text-anchor="middle" x="1170" y="-97.2" font-family="Helvetica,sans-Serif" font-size="14.00">value = [765, 273]</text>
<text text-anchor="middle" x="1170" y="-79.95" font-family="Helvetica,sans-Serif" font-size="14.00">class = Animal</text>
</g>
<!-- 16004&#45;&gt;16005 -->
<g id="edge25" class="edge">
<title>16004&#45;&gt;16005</title>
<path fill="none" stroke="black" d="M1170,-202.07C1170,-194.17 1170,-185.88 1170,-177.73"/>
<polygon fill="black" stroke="black" points="1173.5,-177.87 1170,-167.87 1166.5,-177.87 1173.5,-177.87"/>
</g>
<!-- 16344 -->
<g id="node29" class="node">
<title>16344</title>
<path fill="#baddf6" stroke="black" d="M1398,-166.25C1398,-166.25 1274,-166.25 1274,-166.25 1268,-166.25 1262,-160.25 1262,-154.25 1262,-154.25 1262,-84 1262,-84 1262,-78 1268,-72 1274,-72 1274,-72 1398,-72 1398,-72 1404,-72 1410,-78 1410,-84 1410,-84 1410,-154.25 1410,-154.25 1410,-160.25 1404,-166.25 1398,-166.25"/>
<text text-anchor="middle" x="1336" y="-148.95" font-family="Helvetica,sans-Serif" font-size="14.00">19_U &lt;= 0.5</text>
<text text-anchor="middle" x="1336" y="-131.7" font-family="Helvetica,sans-Serif" font-size="14.00">entropy = 0.967</text>
<text text-anchor="middle" x="1336" y="-114.45" font-family="Helvetica,sans-Serif" font-size="14.00">samples = 350</text>
<text text-anchor="middle" x="1336" y="-97.2" font-family="Helvetica,sans-Serif" font-size="14.00">value = [219, 337]</text>
<text text-anchor="middle" x="1336" y="-79.95" font-family="Helvetica,sans-Serif" font-size="14.00">class = Plant</text>
</g>
<!-- 16004&#45;&gt;16344 -->
<g id="edge28" class="edge">
<title>16004&#45;&gt;16344</title>
<path fill="none" stroke="black" d="M1229.93,-202.07C1241.96,-192.78 1254.7,-182.94 1267.01,-173.43"/>
<polygon fill="black" stroke="black" points="1268.91,-176.38 1274.68,-167.5 1264.63,-170.84 1268.91,-176.38"/>
</g>
<!-- 16006 -->
<g id="node27" class="node">
<title>16006</title>
<path fill="#c0c0c0" stroke="black" d="M1142,-36C1142,-36 1112,-36 1112,-36 1106,-36 1100,-30 1100,-24 1100,-24 1100,-12 1100,-12 1100,-6 1106,0 1112,0 1112,0 1142,0 1142,0 1148,0 1154,-6 1154,-12 1154,-12 1154,-24 1154,-24 1154,-30 1148,-36 1142,-36"/>
<text text-anchor="middle" x="1127" y="-13.32" font-family="Helvetica,sans-Serif" font-size="14.00">(...)</text>
</g>
<!-- 16005&#45;&gt;16006 -->
<g id="edge26" class="edge">
<title>16005&#45;&gt;16006</title>
<path fill="none" stroke="black" d="M1149.88,-71.75C1146.14,-63.12 1142.34,-54.36 1138.94,-46.53"/>
<polygon fill="black" stroke="black" points="1142.24,-45.34 1135.05,-37.56 1135.82,-48.13 1142.24,-45.34"/>
</g>
<!-- 16323 -->
<g id="node28" class="node">
<title>16323</title>
<path fill="#c0c0c0" stroke="black" d="M1214,-36C1214,-36 1184,-36 1184,-36 1178,-36 1172,-30 1172,-24 1172,-24 1172,-12 1172,-12 1172,-6 1178,0 1184,0 1184,0 1214,0 1214,0 1220,0 1226,-6 1226,-12 1226,-12 1226,-24 1226,-24 1226,-30 1220,-36 1214,-36"/>
<text text-anchor="middle" x="1199" y="-13.32" font-family="Helvetica,sans-Serif" font-size="14.00">(...)</text>
</g>
<!-- 16005&#45;&gt;16323 -->
<g id="edge27" class="edge">
<title>16005&#45;&gt;16323</title>
<path fill="none" stroke="black" d="M1183.57,-71.75C1186.03,-63.32 1188.54,-54.77 1190.79,-47.07"/>
<polygon fill="black" stroke="black" points="1194.1,-48.21 1193.55,-37.63 1187.38,-46.24 1194.1,-48.21"/>
</g>
<!-- 16345 -->
<g id="node30" class="node">
<title>16345</title>
<path fill="#c0c0c0" stroke="black" d="M1315,-36C1315,-36 1285,-36 1285,-36 1279,-36 1273,-30 1273,-24 1273,-24 1273,-12 1273,-12 1273,-6 1279,0 1285,0 1285,0 1315,0 1315,0 1321,0 1327,-6 1327,-12 1327,-12 1327,-24 1327,-24 1327,-30 1321,-36 1315,-36"/>
<text text-anchor="middle" x="1300" y="-13.32" font-family="Helvetica,sans-Serif" font-size="14.00">(...)</text>
</g>
<!-- 16344&#45;&gt;16345 -->
<g id="edge29" class="edge">
<title>16344&#45;&gt;16345</title>
<path fill="none" stroke="black" d="M1319.16,-71.75C1316.06,-63.22 1312.92,-54.57 1310.1,-46.8"/>
<polygon fill="black" stroke="black" points="1313.46,-45.8 1306.75,-37.6 1306.88,-48.19 1313.46,-45.8"/>
</g>
<!-- 16448 -->
<g id="node31" class="node">
<title>16448</title>
<path fill="#c0c0c0" stroke="black" d="M1387,-36C1387,-36 1357,-36 1357,-36 1351,-36 1345,-30 1345,-24 1345,-24 1345,-12 1345,-12 1345,-6 1351,0 1357,0 1357,0 1387,0 1387,0 1393,0 1399,-6 1399,-12 1399,-12 1399,-24 1399,-24 1399,-30 1393,-36 1387,-36"/>
<text text-anchor="middle" x="1372" y="-13.32" font-family="Helvetica,sans-Serif" font-size="14.00">(...)</text>
</g>
<!-- 16344&#45;&gt;16448 -->
<g id="edge30" class="edge">
<title>16344&#45;&gt;16448</title>
<path fill="none" stroke="black" d="M1352.84,-71.75C1355.94,-63.22 1359.08,-54.57 1361.9,-46.8"/>
<polygon fill="black" stroke="black" points="1365.12,-48.19 1365.25,-37.6 1358.54,-45.8 1365.12,-48.19"/>
</g>
</g>
</svg>
