<?xml version="1.0" encoding="UTF-8" standalone="no"?>
<!DOCTYPE svg PUBLIC "-//W3C//DTD SVG 1.1//EN"
 "http://www.w3.org/Graphics/SVG/1.1/DTD/svg11.dtd">
<!-- Generated by graphviz version 12.0.0 (20240803.0821)
 -->
<!-- Title: Tree Pages: 1 -->
<svg width="1446pt" height="565pt"
 viewBox="0.00 0.00 1446.00 565.00" xmlns="http://www.w3.org/2000/svg" xmlns:xlink="http://www.w3.org/1999/xlink">
<g id="graph0" class="graph" transform="scale(1 1) rotate(0) translate(4 561)">
<title>Tree</title>
<polygon fill="white" stroke="none" points="-4,4 -4,-561 1442,-561 1442,4 -4,4"/>
<!-- 0 -->
<g id="node1" class="node">
<title>0</title>
<path fill="#ffffff" stroke="black" d="M815,-557C815,-557 655,-557 655,-557 649,-557 643,-551 643,-545 643,-545 643,-474.75 643,-474.75 643,-468.75 649,-462.75 655,-462.75 655,-462.75 815,-462.75 815,-462.75 821,-462.75 827,-468.75 827,-474.75 827,-474.75 827,-545 827,-545 827,-551 821,-557 815,-557"/>
<text text-anchor="middle" x="735" y="-539.7" font-family="Helvetica,sans-Serif" font-size="14.00">19_C &lt;= 0.5</text>
<text text-anchor="middle" x="735" y="-522.45" font-family="Helvetica,sans-Serif" font-size="14.00">entropy = 1.0</text>
<text text-anchor="middle" x="735" y="-505.2" font-family="Helvetica,sans-Serif" font-size="14.00">samples = 38187</text>
<text text-anchor="middle" x="735" y="-487.95" font-family="Helvetica,sans-Serif" font-size="14.00">value = [30165, 30180]</text>
<text text-anchor="middle" x="735" y="-470.7" font-family="Helvetica,sans-Serif" font-size="14.00">class = Plant</text>
</g>
<!-- 1 -->
<g id="node2" class="node">
<title>1</title>
<path fill="#f9e0ce" stroke="black" d="M635,-426.75C635,-426.75 475,-426.75 475,-426.75 469,-426.75 463,-420.75 463,-414.75 463,-414.75 463,-344.5 463,-344.5 463,-338.5 469,-332.5 475,-332.5 475,-332.5 635,-332.5 635,-332.5 641,-332.5 647,-338.5 647,-344.5 647,-344.5 647,-414.75 647,-414.75 647,-420.75 641,-426.75 635,-426.75"/>
<text text-anchor="middle" x="555" y="-409.45" font-family="Helvetica,sans-Serif" font-size="14.00">8_G &lt;= 0.5</text>
<text text-anchor="middle" x="555" y="-392.2" font-family="Helvetica,sans-Serif" font-size="14.00">entropy = 0.986</text>
<text text-anchor="middle" x="555" y="-374.95" font-family="Helvetica,sans-Serif" font-size="14.00">samples = 25795</text>
<text text-anchor="middle" x="555" y="-357.7" font-family="Helvetica,sans-Serif" font-size="14.00">value = [23277, 17526]</text>
<text text-anchor="middle" x="555" y="-340.45" font-family="Helvetica,sans-Serif" font-size="14.00">class = Animal</text>
</g>
<!-- 0&#45;&gt;1 -->
<g id="edge1" class="edge">
<title>0&#45;&gt;1</title>
<path fill="none" stroke="black" d="M669.76,-462.39C656.68,-453.07 642.85,-443.22 629.48,-433.69"/>
<polygon fill="black" stroke="black" points="631.73,-430.99 621.55,-428.04 627.66,-436.7 631.73,-430.99"/>
<text text-anchor="middle" x="624.46" y="-447.14" font-family="Helvetica,sans-Serif" font-size="14.00">True</text>
</g>
<!-- 12698 -->
<g id="node17" class="node">
<title>12698</title>
<path fill="#a5d2f3" stroke="black" d="M994.5,-426.75C994.5,-426.75 843.5,-426.75 843.5,-426.75 837.5,-426.75 831.5,-420.75 831.5,-414.75 831.5,-414.75 831.5,-344.5 831.5,-344.5 831.5,-338.5 837.5,-332.5 843.5,-332.5 843.5,-332.5 994.5,-332.5 994.5,-332.5 1000.5,-332.5 1006.5,-338.5 1006.5,-344.5 1006.5,-344.5 1006.5,-414.75 1006.5,-414.75 1006.5,-420.75 1000.5,-426.75 994.5,-426.75"/>
<text text-anchor="middle" x="919" y="-409.45" font-family="Helvetica,sans-Serif" font-size="14.00">8_C &lt;= 0.5</text>
<text text-anchor="middle" x="919" y="-392.2" font-family="Helvetica,sans-Serif" font-size="14.00">entropy = 0.936</text>
<text text-anchor="middle" x="919" y="-374.95" font-family="Helvetica,sans-Serif" font-size="14.00">samples = 12392</text>
<text text-anchor="middle" x="919" y="-357.7" font-family="Helvetica,sans-Serif" font-size="14.00">value = [6888, 12654]</text>
<text text-anchor="middle" x="919" y="-340.45" font-family="Helvetica,sans-Serif" font-size="14.00">class = Plant</text>
</g>
<!-- 0&#45;&gt;12698 -->
<g id="edge16" class="edge">
<title>0&#45;&gt;12698</title>
<path fill="none" stroke="black" d="M801.69,-462.39C815.06,-453.07 829.2,-443.22 842.86,-433.69"/>
<polygon fill="black" stroke="black" points="844.79,-436.62 850.99,-428.03 840.78,-430.88 844.79,-436.62"/>
<text text-anchor="middle" x="847.84" y="-447.1" font-family="Helvetica,sans-Serif" font-size="14.00">False</text>
</g>
<!-- 2 -->
<g id="node3" class="node">
<title>2</title>
<path fill="#f6d2b8" stroke="black" d="M361,-296.5C361,-296.5 201,-296.5 201,-296.5 195,-296.5 189,-290.5 189,-284.5 189,-284.5 189,-214.25 189,-214.25 189,-208.25 195,-202.25 201,-202.25 201,-202.25 361,-202.25 361,-202.25 367,-202.25 373,-208.25 373,-214.25 373,-214.25 373,-284.5 373,-284.5 373,-290.5 367,-296.5 361,-296.5"/>
<text text-anchor="middle" x="281" y="-279.2" font-family="Helvetica,sans-Serif" font-size="14.00">23_A &lt;= 0.5</text>
<text text-anchor="middle" x="281" y="-261.95" font-family="Helvetica,sans-Serif" font-size="14.00">entropy = 0.966</text>
<text text-anchor="middle" x="281" y="-244.7" font-family="Helvetica,sans-Serif" font-size="14.00">samples = 18156</text>
<text text-anchor="middle" x="281" y="-227.45" font-family="Helvetica,sans-Serif" font-size="14.00">value = [17437, 11222]</text>
<text text-anchor="middle" x="281" y="-210.2" font-family="Helvetica,sans-Serif" font-size="14.00">class = Animal</text>
</g>
<!-- 1&#45;&gt;2 -->
<g id="edge2" class="edge">
<title>1&#45;&gt;2</title>
<path fill="none" stroke="black" d="M462.62,-335.38C437.24,-323.51 409.58,-310.56 383.66,-298.43"/>
<polygon fill="black" stroke="black" points="385.36,-295.36 374.82,-294.29 382.39,-301.7 385.36,-295.36"/>
</g>
<!-- 9233 -->
<g id="node10" class="node">
<title>9233</title>
<path fill="#f0f8fd" stroke="black" d="M626,-296.5C626,-296.5 484,-296.5 484,-296.5 478,-296.5 472,-290.5 472,-284.5 472,-284.5 472,-214.25 472,-214.25 472,-208.25 478,-202.25 484,-202.25 484,-202.25 626,-202.25 626,-202.25 632,-202.25 638,-208.25 638,-214.25 638,-214.25 638,-284.5 638,-284.5 638,-290.5 632,-296.5 626,-296.5"/>
<text text-anchor="middle" x="555" y="-279.2" font-family="Helvetica,sans-Serif" font-size="14.00">1_U &lt;= 0.5</text>
<text text-anchor="middle" x="555" y="-261.95" font-family="Helvetica,sans-Serif" font-size="14.00">entropy = 0.999</text>
<text text-anchor="middle" x="555" y="-244.7" font-family="Helvetica,sans-Serif" font-size="14.00">samples = 7639</text>
<text text-anchor="middle" x="555" y="-227.45" font-family="Helvetica,sans-Serif" font-size="14.00">value = [5840, 6304]</text>
<text text-anchor="middle" x="555" y="-210.2" font-family="Helvetica,sans-Serif" font-size="14.00">class = Plant</text>
</g>
<!-- 1&#45;&gt;9233 -->
<g id="edge9" class="edge">
<title>1&#45;&gt;9233</title>
<path fill="none" stroke="black" d="M555,-332.32C555,-324.42 555,-316.13 555,-307.98"/>
<polygon fill="black" stroke="black" points="558.5,-308.12 555,-298.12 551.5,-308.12 558.5,-308.12"/>
</g>
<!-- 3 -->
<g id="node4" class="node">
<title>3</title>
<path fill="#f6d5bd" stroke="black" d="M172,-166.25C172,-166.25 12,-166.25 12,-166.25 6,-166.25 0,-160.25 0,-154.25 0,-154.25 0,-84 0,-84 0,-78 6,-72 12,-72 12,-72 172,-72 172,-72 178,-72 184,-78 184,-84 184,-84 184,-154.25 184,-154.25 184,-160.25 178,-166.25 172,-166.25"/>
<text text-anchor="middle" x="92" y="-148.95" font-family="Helvetica,sans-Serif" font-size="14.00">18_U &lt;= 0.5</text>
<text text-anchor="middle" x="92" y="-131.7" font-family="Helvetica,sans-Serif" font-size="14.00">entropy = 0.971</text>
<text text-anchor="middle" x="92" y="-114.45" font-family="Helvetica,sans-Serif" font-size="14.00">samples = 17248</text>
<text text-anchor="middle" x="92" y="-97.2" font-family="Helvetica,sans-Serif" font-size="14.00">value = [16335, 10901]</text>
<text text-anchor="middle" x="92" y="-79.95" font-family="Helvetica,sans-Serif" font-size="14.00">class = Animal</text>
</g>
<!-- 2&#45;&gt;3 -->
<g id="edge3" class="edge">
<title>2&#45;&gt;3</title>
<path fill="none" stroke="black" d="M212.5,-201.89C198.63,-192.48 183.96,-182.53 169.8,-172.92"/>
<polygon fill="black" stroke="black" points="172.08,-170.23 161.84,-167.51 168.15,-176.03 172.08,-170.23"/>
</g>
<!-- 8854 -->
<g id="node7" class="node">
<title>8854</title>
<path fill="#eda673" stroke="black" d="M347.5,-166.25C347.5,-166.25 214.5,-166.25 214.5,-166.25 208.5,-166.25 202.5,-160.25 202.5,-154.25 202.5,-154.25 202.5,-84 202.5,-84 202.5,-78 208.5,-72 214.5,-72 214.5,-72 347.5,-72 347.5,-72 353.5,-72 359.5,-78 359.5,-84 359.5,-84 359.5,-154.25 359.5,-154.25 359.5,-160.25 353.5,-166.25 347.5,-166.25"/>
<text text-anchor="middle" x="281" y="-148.95" font-family="Helvetica,sans-Serif" font-size="14.00">18_G &lt;= 0.5</text>
<text text-anchor="middle" x="281" y="-131.7" font-family="Helvetica,sans-Serif" font-size="14.00">entropy = 0.77</text>
<text text-anchor="middle" x="281" y="-114.45" font-family="Helvetica,sans-Serif" font-size="14.00">samples = 908</text>
<text text-anchor="middle" x="281" y="-97.2" font-family="Helvetica,sans-Serif" font-size="14.00">value = [1102, 321]</text>
<text text-anchor="middle" x="281" y="-79.95" font-family="Helvetica,sans-Serif" font-size="14.00">class = Animal</text>
</g>
<!-- 2&#45;&gt;8854 -->
<g id="edge6" class="edge">
<title>2&#45;&gt;8854</title>
<path fill="none" stroke="black" d="M281,-202.07C281,-194.17 281,-185.88 281,-177.73"/>
<polygon fill="black" stroke="black" points="284.5,-177.87 281,-167.87 277.5,-177.87 284.5,-177.87"/>
</g>
<!-- 4 -->
<g id="node5" class="node">
<title>4</title>
<path fill="#c0c0c0" stroke="black" d="M71,-36C71,-36 41,-36 41,-36 35,-36 29,-30 29,-24 29,-24 29,-12 29,-12 29,-6 35,0 41,0 41,0 71,0 71,0 77,0 83,-6 83,-12 83,-12 83,-24 83,-24 83,-30 77,-36 71,-36"/>
<text text-anchor="middle" x="56" y="-13.32" font-family="Helvetica,sans-Serif" font-size="14.00">(...)</text>
</g>
<!-- 3&#45;&gt;4 -->
<g id="edge4" class="edge">
<title>3&#45;&gt;4</title>
<path fill="none" stroke="black" d="M75.16,-71.75C72.06,-63.22 68.92,-54.57 66.1,-46.8"/>
<polygon fill="black" stroke="black" points="69.46,-45.8 62.75,-37.6 62.88,-48.19 69.46,-45.8"/>
</g>
<!-- 6607 -->
<g id="node6" class="node">
<title>6607</title>
<path fill="#c0c0c0" stroke="black" d="M143,-36C143,-36 113,-36 113,-36 107,-36 101,-30 101,-24 101,-24 101,-12 101,-12 101,-6 107,0 113,0 113,0 143,0 143,0 149,0 155,-6 155,-12 155,-12 155,-24 155,-24 155,-30 149,-36 143,-36"/>
<text text-anchor="middle" x="128" y="-13.32" font-family="Helvetica,sans-Serif" font-size="14.00">(...)</text>
</g>
<!-- 3&#45;&gt;6607 -->
<g id="edge5" class="edge">
<title>3&#45;&gt;6607</title>
<path fill="none" stroke="black" d="M108.84,-71.75C111.94,-63.22 115.08,-54.57 117.9,-46.8"/>
<polygon fill="black" stroke="black" points="121.12,-48.19 121.25,-37.6 114.54,-45.8 121.12,-48.19"/>
</g>
<!-- 8855 -->
<g id="node8" class="node">
<title>8855</title>
<path fill="#c0c0c0" stroke="black" d="M262,-36C262,-36 232,-36 232,-36 226,-36 220,-30 220,-24 220,-24 220,-12 220,-12 220,-6 226,0 232,0 232,0 262,0 262,0 268,0 274,-6 274,-12 274,-12 274,-24 274,-24 274,-30 268,-36 262,-36"/>
<text text-anchor="middle" x="247" y="-13.32" font-family="Helvetica,sans-Serif" font-size="14.00">(...)</text>
</g>
<!-- 8854&#45;&gt;8855 -->
<g id="edge7" class="edge">
<title>8854&#45;&gt;8855</title>
<path fill="none" stroke="black" d="M265.1,-71.75C262.17,-63.22 259.2,-54.57 256.53,-46.8"/>
<polygon fill="black" stroke="black" points="259.94,-45.93 253.38,-37.6 253.32,-48.2 259.94,-45.93"/>
</g>
<!-- 9100 -->
<g id="node9" class="node">
<title>9100</title>
<path fill="#c0c0c0" stroke="black" d="M334,-36C334,-36 304,-36 304,-36 298,-36 292,-30 292,-24 292,-24 292,-12 292,-12 292,-6 298,0 304,0 304,0 334,0 334,0 340,0 346,-6 346,-12 346,-12 346,-24 346,-24 346,-30 340,-36 334,-36"/>
<text text-anchor="middle" x="319" y="-13.32" font-family="Helvetica,sans-Serif" font-size="14.00">(...)</text>
</g>
<!-- 8854&#45;&gt;9100 -->
<g id="edge8" class="edge">
<title>8854&#45;&gt;9100</title>
<path fill="none" stroke="black" d="M298.78,-71.75C302.05,-63.22 305.37,-54.57 308.34,-46.8"/>
<polygon fill="black" stroke="black" points="311.56,-48.18 311.88,-37.59 305.03,-45.67 311.56,-48.18"/>
</g>
<!-- 9234 -->
<g id="node11" class="node">
<title>9234</title>
<path fill="#fae7d9" stroke="black" d="M532,-166.25C532,-166.25 390,-166.25 390,-166.25 384,-166.25 378,-160.25 378,-154.25 378,-154.25 378,-84 378,-84 378,-78 384,-72 390,-72 390,-72 532,-72 532,-72 538,-72 544,-78 544,-84 544,-84 544,-154.25 544,-154.25 544,-160.25 538,-166.25 532,-166.25"/>
<text text-anchor="middle" x="461" y="-148.95" font-family="Helvetica,sans-Serif" font-size="14.00">22_U &lt;= 0.5</text>
<text text-anchor="middle" x="461" y="-131.7" font-family="Helvetica,sans-Serif" font-size="14.00">entropy = 0.992</text>
<text text-anchor="middle" x="461" y="-114.45" font-family="Helvetica,sans-Serif" font-size="14.00">samples = 3439</text>
<text text-anchor="middle" x="461" y="-97.2" font-family="Helvetica,sans-Serif" font-size="14.00">value = [3033, 2453]</text>
<text text-anchor="middle" x="461" y="-79.95" font-family="Helvetica,sans-Serif" font-size="14.00">class = Animal</text>
</g>
<!-- 9233&#45;&gt;9234 -->
<g id="edge10" class="edge">
<title>9233&#45;&gt;9234</title>
<path fill="none" stroke="black" d="M521.06,-202.07C514.74,-193.45 508.08,-184.35 501.58,-175.49"/>
<polygon fill="black" stroke="black" points="504.52,-173.58 495.78,-167.58 498.87,-177.71 504.52,-173.58"/>
</g>
<!-- 11229 -->
<g id="node14" class="node">
<title>11229</title>
<path fill="#c9e4f8" stroke="black" d="M716,-166.25C716,-166.25 574,-166.25 574,-166.25 568,-166.25 562,-160.25 562,-154.25 562,-154.25 562,-84 562,-84 562,-78 568,-72 574,-72 574,-72 716,-72 716,-72 722,-72 728,-78 728,-84 728,-84 728,-154.25 728,-154.25 728,-160.25 722,-166.25 716,-166.25"/>
<text text-anchor="middle" x="645" y="-148.95" font-family="Helvetica,sans-Serif" font-size="14.00">9_C &lt;= 0.5</text>
<text text-anchor="middle" x="645" y="-131.7" font-family="Helvetica,sans-Serif" font-size="14.00">entropy = 0.982</text>
<text text-anchor="middle" x="645" y="-114.45" font-family="Helvetica,sans-Serif" font-size="14.00">samples = 4200</text>
<text text-anchor="middle" x="645" y="-97.2" font-family="Helvetica,sans-Serif" font-size="14.00">value = [2807, 3851]</text>
<text text-anchor="middle" x="645" y="-79.95" font-family="Helvetica,sans-Serif" font-size="14.00">class = Plant</text>
</g>
<!-- 9233&#45;&gt;11229 -->
<g id="edge13" class="edge">
<title>9233&#45;&gt;11229</title>
<path fill="none" stroke="black" d="M587.49,-202.07C593.48,-193.54 599.79,-184.54 605.95,-175.77"/>
<polygon fill="black" stroke="black" points="608.81,-177.79 611.69,-167.6 603.08,-173.77 608.81,-177.79"/>
</g>
<!-- 9235 -->
<g id="node12" class="node">
<title>9235</title>
<path fill="#c0c0c0" stroke="black" d="M424,-36C424,-36 394,-36 394,-36 388,-36 382,-30 382,-24 382,-24 382,-12 382,-12 382,-6 388,0 394,0 394,0 424,0 424,0 430,0 436,-6 436,-12 436,-12 436,-24 436,-24 436,-30 430,-36 424,-36"/>
<text text-anchor="middle" x="409" y="-13.32" font-family="Helvetica,sans-Serif" font-size="14.00">(...)</text>
</g>
<!-- 9234&#45;&gt;9235 -->
<g id="edge11" class="edge">
<title>9234&#45;&gt;9235</title>
<path fill="none" stroke="black" d="M436.67,-71.75C432.1,-63.03 427.45,-54.16 423.3,-46.26"/>
<polygon fill="black" stroke="black" points="426.46,-44.74 418.71,-37.51 420.26,-47.99 426.46,-44.74"/>
</g>
<!-- 11018 -->
<g id="node13" class="node">
<title>11018</title>
<path fill="#c0c0c0" stroke="black" d="M496,-36C496,-36 466,-36 466,-36 460,-36 454,-30 454,-24 454,-24 454,-12 454,-12 454,-6 460,0 466,0 466,0 496,0 496,0 502,0 508,-6 508,-12 508,-12 508,-24 508,-24 508,-30 502,-36 496,-36"/>
<text text-anchor="middle" x="481" y="-13.32" font-family="Helvetica,sans-Serif" font-size="14.00">(...)</text>
</g>
<!-- 9234&#45;&gt;11018 -->
<g id="edge12" class="edge">
<title>9234&#45;&gt;11018</title>
<path fill="none" stroke="black" d="M470.36,-71.75C472.04,-63.42 473.74,-54.97 475.28,-47.34"/>
<polygon fill="black" stroke="black" points="478.69,-48.15 477.24,-37.66 471.83,-46.77 478.69,-48.15"/>
</g>
<!-- 11230 -->
<g id="node15" class="node">
<title>11230</title>
<path fill="#c0c0c0" stroke="black" d="M610,-36C610,-36 580,-36 580,-36 574,-36 568,-30 568,-24 568,-24 568,-12 568,-12 568,-6 574,0 580,0 580,0 610,0 610,0 616,0 622,-6 622,-12 622,-12 622,-24 622,-24 622,-30 616,-36 610,-36"/>
<text text-anchor="middle" x="595" y="-13.32" font-family="Helvetica,sans-Serif" font-size="14.00">(...)</text>
</g>
<!-- 11229&#45;&gt;11230 -->
<g id="edge14" class="edge">
<title>11229&#45;&gt;11230</title>
<path fill="none" stroke="black" d="M621.61,-71.75C617.21,-63.03 612.74,-54.16 608.75,-46.26"/>
<polygon fill="black" stroke="black" points="611.97,-44.88 604.34,-37.52 605.72,-48.03 611.97,-44.88"/>
</g>
<!-- 12397 -->
<g id="node16" class="node">
<title>12397</title>
<path fill="#c0c0c0" stroke="black" d="M682,-36C682,-36 652,-36 652,-36 646,-36 640,-30 640,-24 640,-24 640,-12 640,-12 640,-6 646,0 652,0 652,0 682,0 682,0 688,0 694,-6 694,-12 694,-12 694,-24 694,-24 694,-30 688,-36 682,-36"/>
<text text-anchor="middle" x="667" y="-13.32" font-family="Helvetica,sans-Serif" font-size="14.00">(...)</text>
</g>
<!-- 11229&#45;&gt;12397 -->
<g id="edge15" class="edge">
<title>11229&#45;&gt;12397</title>
<path fill="none" stroke="black" d="M655.29,-71.75C657.14,-63.42 659.02,-54.97 660.71,-47.34"/>
<polygon fill="black" stroke="black" points="664.11,-48.17 662.86,-37.65 657.28,-46.65 664.11,-48.17"/>
</g>
<!-- 12699 -->
<g id="node18" class="node">
<title>12699</title>
<path fill="#8fc7f0" stroke="black" d="M994.5,-296.5C994.5,-296.5 843.5,-296.5 843.5,-296.5 837.5,-296.5 831.5,-290.5 831.5,-284.5 831.5,-284.5 831.5,-214.25 831.5,-214.25 831.5,-208.25 837.5,-202.25 843.5,-202.25 843.5,-202.25 994.5,-202.25 994.5,-202.25 1000.5,-202.25 1006.5,-208.25 1006.5,-214.25 1006.5,-214.25 1006.5,-284.5 1006.5,-284.5 1006.5,-290.5 1000.5,-296.5 994.5,-296.5"/>
<text text-anchor="middle" x="919" y="-279.2" font-family="Helvetica,sans-Serif" font-size="14.00">22_U &lt;= 0.5</text>
<text text-anchor="middle" x="919" y="-261.95" font-family="Helvetica,sans-Serif" font-size="14.00">entropy = 0.884</text>
<text text-anchor="middle" x="919" y="-244.7" font-family="Helvetica,sans-Serif" font-size="14.00">samples = 10164</text>
<text text-anchor="middle" x="919" y="-227.45" font-family="Helvetica,sans-Serif" font-size="14.00">value = [4848, 11202]</text>
<text text-anchor="middle" x="919" y="-210.2" font-family="Helvetica,sans-Serif" font-size="14.00">class = Plant</text>
</g>
<!-- 12698&#45;&gt;12699 -->
<g id="edge17" class="edge">
<title>12698&#45;&gt;12699</title>
<path fill="none" stroke="black" d="M919,-332.32C919,-324.42 919,-316.13 919,-307.98"/>
<polygon fill="black" stroke="black" points="922.5,-308.12 919,-298.12 915.5,-308.12 922.5,-308.12"/>
</g>
<!-- 15922 -->
<g id="node25" class="node">
<title>15922</title>
<path fill="#f8dbc6" stroke="black" d="M1264,-296.5C1264,-296.5 1122,-296.5 1122,-296.5 1116,-296.5 1110,-290.5 1110,-284.5 1110,-284.5 1110,-214.25 1110,-214.25 1110,-208.25 1116,-202.25 1122,-202.25 1122,-202.25 1264,-202.25 1264,-202.25 1270,-202.25 1276,-208.25 1276,-214.25 1276,-214.25 1276,-284.5 1276,-284.5 1276,-290.5 1270,-296.5 1264,-296.5"/>
<text text-anchor="middle" x="1193" y="-279.2" font-family="Helvetica,sans-Serif" font-size="14.00">17_U &lt;= 0.5</text>
<text text-anchor="middle" x="1193" y="-261.95" font-family="Helvetica,sans-Serif" font-size="14.00">entropy = 0.979</text>
<text text-anchor="middle" x="1193" y="-244.7" font-family="Helvetica,sans-Serif" font-size="14.00">samples = 2228</text>
<text text-anchor="middle" x="1193" y="-227.45" font-family="Helvetica,sans-Serif" font-size="14.00">value = [2040, 1452]</text>
<text text-anchor="middle" x="1193" y="-210.2" font-family="Helvetica,sans-Serif" font-size="14.00">class = Animal</text>
</g>
<!-- 12698&#45;&gt;15922 -->
<g id="edge24" class="edge">
<title>12698&#45;&gt;15922</title>
<path fill="none" stroke="black" d="M1006.83,-337.52C1036.5,-323.63 1069.72,-308.08 1099.8,-294"/>
<polygon fill="black" stroke="black" points="1100.92,-297.34 1108.5,-289.93 1097.95,-291 1100.92,-297.34"/>
</g>
<!-- 12700 -->
<g id="node19" class="node">
<title>12700</title>
<path fill="#7fc0ee" stroke="black" d="M909.5,-166.25C909.5,-166.25 758.5,-166.25 758.5,-166.25 752.5,-166.25 746.5,-160.25 746.5,-154.25 746.5,-154.25 746.5,-84 746.5,-84 746.5,-78 752.5,-72 758.5,-72 758.5,-72 909.5,-72 909.5,-72 915.5,-72 921.5,-78 921.5,-84 921.5,-84 921.5,-154.25 921.5,-154.25 921.5,-160.25 915.5,-166.25 909.5,-166.25"/>
<text text-anchor="middle" x="834" y="-148.95" font-family="Helvetica,sans-Serif" font-size="14.00">22_G &lt;= 0.5</text>
<text text-anchor="middle" x="834" y="-131.7" font-family="Helvetica,sans-Serif" font-size="14.00">entropy = 0.828</text>
<text text-anchor="middle" x="834" y="-114.45" font-family="Helvetica,sans-Serif" font-size="14.00">samples = 9278</text>
<text text-anchor="middle" x="834" y="-97.2" font-family="Helvetica,sans-Serif" font-size="14.00">value = [3825, 10828]</text>
<text text-anchor="middle" x="834" y="-79.95" font-family="Helvetica,sans-Serif" font-size="14.00">class = Plant</text>
</g>
<!-- 12699&#45;&gt;12700 -->
<g id="edge18" class="edge">
<title>12699&#45;&gt;12700</title>
<path fill="none" stroke="black" d="M888.31,-202.07C882.66,-193.54 876.7,-184.54 870.88,-175.77"/>
<polygon fill="black" stroke="black" points="873.92,-174.02 865.48,-167.62 868.09,-177.89 873.92,-174.02"/>
</g>
<!-- 15499 -->
<g id="node22" class="node">
<title>15499</title>
<path fill="#efaf81" stroke="black" d="M1084.5,-166.25C1084.5,-166.25 951.5,-166.25 951.5,-166.25 945.5,-166.25 939.5,-160.25 939.5,-154.25 939.5,-154.25 939.5,-84 939.5,-84 939.5,-78 945.5,-72 951.5,-72 951.5,-72 1084.5,-72 1084.5,-72 1090.5,-72 1096.5,-78 1096.5,-84 1096.5,-84 1096.5,-154.25 1096.5,-154.25 1096.5,-160.25 1090.5,-166.25 1084.5,-166.25"/>
<text text-anchor="middle" x="1018" y="-148.95" font-family="Helvetica,sans-Serif" font-size="14.00">6_C &lt;= 0.5</text>
<text text-anchor="middle" x="1018" y="-131.7" font-family="Helvetica,sans-Serif" font-size="14.00">entropy = 0.838</text>
<text text-anchor="middle" x="1018" y="-114.45" font-family="Helvetica,sans-Serif" font-size="14.00">samples = 886</text>
<text text-anchor="middle" x="1018" y="-97.2" font-family="Helvetica,sans-Serif" font-size="14.00">value = [1023, 374]</text>
<text text-anchor="middle" x="1018" y="-79.95" font-family="Helvetica,sans-Serif" font-size="14.00">class = Animal</text>
</g>
<!-- 12699&#45;&gt;15499 -->
<g id="edge21" class="edge">
<title>12699&#45;&gt;15499</title>
<path fill="none" stroke="black" d="M954.74,-202.07C961.47,-193.36 968.57,-184.16 975.48,-175.21"/>
<polygon fill="black" stroke="black" points="978.05,-177.61 981.39,-167.56 972.51,-173.33 978.05,-177.61"/>
</g>
<!-- 12701 -->
<g id="node20" class="node">
<title>12701</title>
<path fill="#c0c0c0" stroke="black" d="M797,-36C797,-36 767,-36 767,-36 761,-36 755,-30 755,-24 755,-24 755,-12 755,-12 755,-6 761,0 767,0 767,0 797,0 797,0 803,0 809,-6 809,-12 809,-12 809,-24 809,-24 809,-30 803,-36 797,-36"/>
<text text-anchor="middle" x="782" y="-13.32" font-family="Helvetica,sans-Serif" font-size="14.00">(...)</text>
</g>
<!-- 12700&#45;&gt;12701 -->
<g id="edge19" class="edge">
<title>12700&#45;&gt;12701</title>
<path fill="none" stroke="black" d="M809.67,-71.75C805.1,-63.03 800.45,-54.16 796.3,-46.26"/>
<polygon fill="black" stroke="black" points="799.46,-44.74 791.71,-37.51 793.26,-47.99 799.46,-44.74"/>
</g>
<!-- 15140 -->
<g id="node21" class="node">
<title>15140</title>
<path fill="#c0c0c0" stroke="black" d="M869,-36C869,-36 839,-36 839,-36 833,-36 827,-30 827,-24 827,-24 827,-12 827,-12 827,-6 833,0 839,0 839,0 869,0 869,0 875,0 881,-6 881,-12 881,-12 881,-24 881,-24 881,-30 875,-36 869,-36"/>
<text text-anchor="middle" x="854" y="-13.32" font-family="Helvetica,sans-Serif" font-size="14.00">(...)</text>
</g>
<!-- 12700&#45;&gt;15140 -->
<g id="edge20" class="edge">
<title>12700&#45;&gt;15140</title>
<path fill="none" stroke="black" d="M843.36,-71.75C845.04,-63.42 846.74,-54.97 848.28,-47.34"/>
<polygon fill="black" stroke="black" points="851.69,-48.15 850.24,-37.66 844.83,-46.77 851.69,-48.15"/>
</g>
<!-- 15500 -->
<g id="node23" class="node">
<title>15500</title>
<path fill="#c0c0c0" stroke="black" d="M976,-36C976,-36 946,-36 946,-36 940,-36 934,-30 934,-24 934,-24 934,-12 934,-12 934,-6 940,0 946,0 946,0 976,0 976,0 982,0 988,-6 988,-12 988,-12 988,-24 988,-24 988,-30 982,-36 976,-36"/>
<text text-anchor="middle" x="961" y="-13.32" font-family="Helvetica,sans-Serif" font-size="14.00">(...)</text>
</g>
<!-- 15499&#45;&gt;15500 -->
<g id="edge22" class="edge">
<title>15499&#45;&gt;15500</title>
<path fill="none" stroke="black" d="M991.34,-71.75C986.26,-62.93 981.1,-53.96 976.52,-45.99"/>
<polygon fill="black" stroke="black" points="979.65,-44.41 971.63,-37.48 973.58,-47.9 979.65,-44.41"/>
</g>
<!-- 15825 -->
<g id="node24" class="node">
<title>15825</title>
<path fill="#c0c0c0" stroke="black" d="M1048,-36C1048,-36 1018,-36 1018,-36 1012,-36 1006,-30 1006,-24 1006,-24 1006,-12 1006,-12 1006,-6 1012,0 1018,0 1018,0 1048,0 1048,0 1054,0 1060,-6 1060,-12 1060,-12 1060,-24 1060,-24 1060,-30 1054,-36 1048,-36"/>
<text text-anchor="middle" x="1033" y="-13.32" font-family="Helvetica,sans-Serif" font-size="14.00">(...)</text>
</g>
<!-- 15499&#45;&gt;15825 -->
<g id="edge23" class="edge">
<title>15499&#45;&gt;15825</title>
<path fill="none" stroke="black" d="M1025.02,-71.75C1026.28,-63.42 1027.56,-54.97 1028.71,-47.34"/>
<polygon fill="black" stroke="black" points="1032.14,-48.08 1030.17,-37.67 1025.22,-47.03 1032.14,-48.08"/>
</g>
<!-- 15923 -->
<g id="node26" class="node">
<title>15923</title>
<path fill="#efb489" stroke="black" d="M1259.5,-166.25C1259.5,-166.25 1126.5,-166.25 1126.5,-166.25 1120.5,-166.25 1114.5,-160.25 1114.5,-154.25 1114.5,-154.25 1114.5,-84 1114.5,-84 1114.5,-78 1120.5,-72 1126.5,-72 1126.5,-72 1259.5,-72 1259.5,-72 1265.5,-72 1271.5,-78 1271.5,-84 1271.5,-84 1271.5,-154.25 1271.5,-154.25 1271.5,-160.25 1265.5,-166.25 1259.5,-166.25"/>
<text text-anchor="middle" x="1193" y="-148.95" font-family="Helvetica,sans-Serif" font-size="14.00">2_A &lt;= 0.5</text>
<text text-anchor="middle" x="1193" y="-131.7" font-family="Helvetica,sans-Serif" font-size="14.00">entropy = 0.866</text>
<text text-anchor="middle" x="1193" y="-114.45" font-family="Helvetica,sans-Serif" font-size="14.00">samples = 1337</text>
<text text-anchor="middle" x="1193" y="-97.2" font-family="Helvetica,sans-Serif" font-size="14.00">value = [1504, 607]</text>
<text text-anchor="middle" x="1193" y="-79.95" font-family="Helvetica,sans-Serif" font-size="14.00">class = Animal</text>
</g>
<!-- 15922&#45;&gt;15923 -->
<g id="edge25" class="edge">
<title>15922&#45;&gt;15923</title>
<path fill="none" stroke="black" d="M1193,-202.07C1193,-194.17 1193,-185.88 1193,-177.73"/>
<polygon fill="black" stroke="black" points="1196.5,-177.87 1193,-167.87 1189.5,-177.87 1196.5,-177.87"/>
</g>
<!-- 16622 -->
<g id="node29" class="node">
<title>16622</title>
<path fill="#b7dbf5" stroke="black" d="M1426,-166.25C1426,-166.25 1302,-166.25 1302,-166.25 1296,-166.25 1290,-160.25 1290,-154.25 1290,-154.25 1290,-84 1290,-84 1290,-78 1296,-72 1302,-72 1302,-72 1426,-72 1426,-72 1432,-72 1438,-78 1438,-84 1438,-84 1438,-154.25 1438,-154.25 1438,-160.25 1432,-166.25 1426,-166.25"/>
<text text-anchor="middle" x="1364" y="-148.95" font-family="Helvetica,sans-Serif" font-size="14.00">12_C &lt;= 0.5</text>
<text text-anchor="middle" x="1364" y="-131.7" font-family="Helvetica,sans-Serif" font-size="14.00">entropy = 0.964</text>
<text text-anchor="middle" x="1364" y="-114.45" font-family="Helvetica,sans-Serif" font-size="14.00">samples = 891</text>
<text text-anchor="middle" x="1364" y="-97.2" font-family="Helvetica,sans-Serif" font-size="14.00">value = [536, 845]</text>
<text text-anchor="middle" x="1364" y="-79.95" font-family="Helvetica,sans-Serif" font-size="14.00">class = Plant</text>
</g>
<!-- 15922&#45;&gt;16622 -->
<g id="edge28" class="edge">
<title>15922&#45;&gt;16622</title>
<path fill="none" stroke="black" d="M1254.73,-202.07C1267.13,-192.78 1280.25,-182.94 1292.93,-173.43"/>
<polygon fill="black" stroke="black" points="1294.96,-176.28 1300.86,-167.48 1290.76,-170.68 1294.96,-176.28"/>
</g>
<!-- 15924 -->
<g id="node27" class="node">
<title>15924</title>
<path fill="#c0c0c0" stroke="black" d="M1167,-36C1167,-36 1137,-36 1137,-36 1131,-36 1125,-30 1125,-24 1125,-24 1125,-12 1125,-12 1125,-6 1131,0 1137,0 1137,0 1167,0 1167,0 1173,0 1179,-6 1179,-12 1179,-12 1179,-24 1179,-24 1179,-30 1173,-36 1167,-36"/>
<text text-anchor="middle" x="1152" y="-13.32" font-family="Helvetica,sans-Serif" font-size="14.00">(...)</text>
</g>
<!-- 15923&#45;&gt;15924 -->
<g id="edge26" class="edge">
<title>15923&#45;&gt;15924</title>
<path fill="none" stroke="black" d="M1173.82,-71.75C1170.29,-63.22 1166.71,-54.57 1163.5,-46.8"/>
<polygon fill="black" stroke="black" points="1166.74,-45.47 1159.68,-37.57 1160.27,-48.15 1166.74,-45.47"/>
</g>
<!-- 16457 -->
<g id="node28" class="node">
<title>16457</title>
<path fill="#c0c0c0" stroke="black" d="M1239,-36C1239,-36 1209,-36 1209,-36 1203,-36 1197,-30 1197,-24 1197,-24 1197,-12 1197,-12 1197,-6 1203,0 1209,0 1209,0 1239,0 1239,0 1245,0 1251,-6 1251,-12 1251,-12 1251,-24 1251,-24 1251,-30 1245,-36 1239,-36"/>
<text text-anchor="middle" x="1224" y="-13.32" font-family="Helvetica,sans-Serif" font-size="14.00">(...)</text>
</g>
<!-- 15923&#45;&gt;16457 -->
<g id="edge27" class="edge">
<title>15923&#45;&gt;16457</title>
<path fill="none" stroke="black" d="M1207.5,-71.75C1210.14,-63.32 1212.81,-54.77 1215.22,-47.07"/>
<polygon fill="black" stroke="black" points="1218.53,-48.21 1218.18,-37.62 1211.85,-46.12 1218.53,-48.21"/>
</g>
<!-- 16623 -->
<g id="node30" class="node">
<title>16623</title>
<path fill="#c0c0c0" stroke="black" d="M1343,-36C1343,-36 1313,-36 1313,-36 1307,-36 1301,-30 1301,-24 1301,-24 1301,-12 1301,-12 1301,-6 1307,0 1313,0 1313,0 1343,0 1343,0 1349,0 1355,-6 1355,-12 1355,-12 1355,-24 1355,-24 1355,-30 1349,-36 1343,-36"/>
<text text-anchor="middle" x="1328" y="-13.32" font-family="Helvetica,sans-Serif" font-size="14.00">(...)</text>
</g>
<!-- 16622&#45;&gt;16623 -->
<g id="edge29" class="edge">
<title>16622&#45;&gt;16623</title>
<path fill="none" stroke="black" d="M1347.16,-71.75C1344.06,-63.22 1340.92,-54.57 1338.1,-46.8"/>
<polygon fill="black" stroke="black" points="1341.46,-45.8 1334.75,-37.6 1334.88,-48.19 1341.46,-45.8"/>
</g>
<!-- 16830 -->
<g id="node31" class="node">
<title>16830</title>
<path fill="#c0c0c0" stroke="black" d="M1415,-36C1415,-36 1385,-36 1385,-36 1379,-36 1373,-30 1373,-24 1373,-24 1373,-12 1373,-12 1373,-6 1379,0 1385,0 1385,0 1415,0 1415,0 1421,0 1427,-6 1427,-12 1427,-12 1427,-24 1427,-24 1427,-30 1421,-36 1415,-36"/>
<text text-anchor="middle" x="1400" y="-13.32" font-family="Helvetica,sans-Serif" font-size="14.00">(...)</text>
</g>
<!-- 16622&#45;&gt;16830 -->
<g id="edge30" class="edge">
<title>16622&#45;&gt;16830</title>
<path fill="none" stroke="black" d="M1380.84,-71.75C1383.94,-63.22 1387.08,-54.57 1389.9,-46.8"/>
<polygon fill="black" stroke="black" points="1393.12,-48.19 1393.25,-37.6 1386.54,-45.8 1393.12,-48.19"/>
</g>
</g>
</svg>
