<?xml version="1.0" encoding="UTF-8" standalone="no"?>
<!DOCTYPE svg PUBLIC "-//W3C//DTD SVG 1.1//EN"
 "http://www.w3.org/Graphics/SVG/1.1/DTD/svg11.dtd">
<!-- Generated by graphviz version 12.0.0 (20240803.0821)
 -->
<!-- Title: Tree Pages: 1 -->
<svg width="1438pt" height="565pt"
 viewBox="0.00 0.00 1437.50 565.00" xmlns="http://www.w3.org/2000/svg" xmlns:xlink="http://www.w3.org/1999/xlink">
<g id="graph0" class="graph" transform="scale(1 1) rotate(0) translate(4 561)">
<title>Tree</title>
<polygon fill="white" stroke="none" points="-4,4 -4,-561 1433.5,-561 1433.5,4 -4,4"/>
<!-- 0 -->
<g id="node1" class="node">
<title>0</title>
<path fill="#ffffff" stroke="black" d="M804,-557C804,-557 644,-557 644,-557 638,-557 632,-551 632,-545 632,-545 632,-474.75 632,-474.75 632,-468.75 638,-462.75 644,-462.75 644,-462.75 804,-462.75 804,-462.75 810,-462.75 816,-468.75 816,-474.75 816,-474.75 816,-545 816,-545 816,-551 810,-557 804,-557"/>
<text text-anchor="middle" x="724" y="-539.7" font-family="Helvetica,sans-Serif" font-size="14.00">8_C &lt;= 0.5</text>
<text text-anchor="middle" x="724" y="-522.45" font-family="Helvetica,sans-Serif" font-size="14.00">entropy = 1.0</text>
<text text-anchor="middle" x="724" y="-505.2" font-family="Helvetica,sans-Serif" font-size="14.00">samples = 38180</text>
<text text-anchor="middle" x="724" y="-487.95" font-family="Helvetica,sans-Serif" font-size="14.00">value = [30206, 30139]</text>
<text text-anchor="middle" x="724" y="-470.7" font-family="Helvetica,sans-Serif" font-size="14.00">class = Animal</text>
</g>
<!-- 1 -->
<g id="node2" class="node">
<title>1</title>
<path fill="#edf6fd" stroke="black" d="M626,-426.75C626,-426.75 466,-426.75 466,-426.75 460,-426.75 454,-420.75 454,-414.75 454,-414.75 454,-344.5 454,-344.5 454,-338.5 460,-332.5 466,-332.5 466,-332.5 626,-332.5 626,-332.5 632,-332.5 638,-338.5 638,-344.5 638,-344.5 638,-414.75 638,-414.75 638,-420.75 632,-426.75 626,-426.75"/>
<text text-anchor="middle" x="546" y="-409.45" font-family="Helvetica,sans-Serif" font-size="14.00">20_G &lt;= 0.5</text>
<text text-anchor="middle" x="546" y="-392.2" font-family="Helvetica,sans-Serif" font-size="14.00">entropy = 0.998</text>
<text text-anchor="middle" x="546" y="-374.95" font-family="Helvetica,sans-Serif" font-size="14.00">samples = 30685</text>
<text text-anchor="middle" x="546" y="-357.7" font-family="Helvetica,sans-Serif" font-size="14.00">value = [23098, 25385]</text>
<text text-anchor="middle" x="546" y="-340.45" font-family="Helvetica,sans-Serif" font-size="14.00">class = Plant</text>
</g>
<!-- 0&#45;&gt;1 -->
<g id="edge1" class="edge">
<title>0&#45;&gt;1</title>
<path fill="none" stroke="black" d="M659.49,-462.39C646.55,-453.07 632.87,-443.22 619.65,-433.69"/>
<polygon fill="black" stroke="black" points="621.98,-431.06 611.82,-428.05 617.89,-436.73 621.98,-431.06"/>
<text text-anchor="middle" x="614.6" y="-447.17" font-family="Helvetica,sans-Serif" font-size="14.00">True</text>
</g>
<!-- 13368 -->
<g id="node17" class="node">
<title>13368</title>
<path fill="#f6d5bd" stroke="black" d="M975,-426.75C975,-426.75 833,-426.75 833,-426.75 827,-426.75 821,-420.75 821,-414.75 821,-414.75 821,-344.5 821,-344.5 821,-338.5 827,-332.5 833,-332.5 833,-332.5 975,-332.5 975,-332.5 981,-332.5 987,-338.5 987,-344.5 987,-344.5 987,-414.75 987,-414.75 987,-420.75 981,-426.75 975,-426.75"/>
<text text-anchor="middle" x="904" y="-409.45" font-family="Helvetica,sans-Serif" font-size="14.00">1_U &lt;= 0.5</text>
<text text-anchor="middle" x="904" y="-392.2" font-family="Helvetica,sans-Serif" font-size="14.00">entropy = 0.971</text>
<text text-anchor="middle" x="904" y="-374.95" font-family="Helvetica,sans-Serif" font-size="14.00">samples = 7495</text>
<text text-anchor="middle" x="904" y="-357.7" font-family="Helvetica,sans-Serif" font-size="14.00">value = [7108, 4754]</text>
<text text-anchor="middle" x="904" y="-340.45" font-family="Helvetica,sans-Serif" font-size="14.00">class = Animal</text>
</g>
<!-- 0&#45;&gt;13368 -->
<g id="edge16" class="edge">
<title>0&#45;&gt;13368</title>
<path fill="none" stroke="black" d="M789.24,-462.39C802.32,-453.07 816.15,-443.22 829.52,-433.69"/>
<polygon fill="black" stroke="black" points="831.34,-436.7 837.45,-428.04 827.27,-430.99 831.34,-436.7"/>
<text text-anchor="middle" x="834.54" y="-447.14" font-family="Helvetica,sans-Serif" font-size="14.00">False</text>
</g>
<!-- 2 -->
<g id="node3" class="node">
<title>2</title>
<path fill="#d4eaf9" stroke="black" d="M352,-296.5C352,-296.5 192,-296.5 192,-296.5 186,-296.5 180,-290.5 180,-284.5 180,-284.5 180,-214.25 180,-214.25 180,-208.25 186,-202.25 192,-202.25 192,-202.25 352,-202.25 352,-202.25 358,-202.25 364,-208.25 364,-214.25 364,-214.25 364,-284.5 364,-284.5 364,-290.5 358,-296.5 352,-296.5"/>
<text text-anchor="middle" x="272" y="-279.2" font-family="Helvetica,sans-Serif" font-size="14.00">1_U &lt;= 0.5</text>
<text text-anchor="middle" x="272" y="-261.95" font-family="Helvetica,sans-Serif" font-size="14.00">entropy = 0.989</text>
<text text-anchor="middle" x="272" y="-244.7" font-family="Helvetica,sans-Serif" font-size="14.00">samples = 23799</text>
<text text-anchor="middle" x="272" y="-227.45" font-family="Helvetica,sans-Serif" font-size="14.00">value = [16528, 21074]</text>
<text text-anchor="middle" x="272" y="-210.2" font-family="Helvetica,sans-Serif" font-size="14.00">class = Plant</text>
</g>
<!-- 1&#45;&gt;2 -->
<g id="edge2" class="edge">
<title>1&#45;&gt;2</title>
<path fill="none" stroke="black" d="M453.62,-335.38C428.24,-323.51 400.58,-310.56 374.66,-298.43"/>
<polygon fill="black" stroke="black" points="376.36,-295.36 365.82,-294.29 373.39,-301.7 376.36,-295.36"/>
</g>
<!-- 9999 -->
<g id="node10" class="node">
<title>9999</title>
<path fill="#f6d4bb" stroke="black" d="M617,-296.5C617,-296.5 475,-296.5 475,-296.5 469,-296.5 463,-290.5 463,-284.5 463,-284.5 463,-214.25 463,-214.25 463,-208.25 469,-202.25 475,-202.25 475,-202.25 617,-202.25 617,-202.25 623,-202.25 629,-208.25 629,-214.25 629,-214.25 629,-284.5 629,-284.5 629,-290.5 623,-296.5 617,-296.5"/>
<text text-anchor="middle" x="546" y="-279.2" font-family="Helvetica,sans-Serif" font-size="14.00">22_U &lt;= 0.5</text>
<text text-anchor="middle" x="546" y="-261.95" font-family="Helvetica,sans-Serif" font-size="14.00">entropy = 0.969</text>
<text text-anchor="middle" x="546" y="-244.7" font-family="Helvetica,sans-Serif" font-size="14.00">samples = 6886</text>
<text text-anchor="middle" x="546" y="-227.45" font-family="Helvetica,sans-Serif" font-size="14.00">value = [6570, 4311]</text>
<text text-anchor="middle" x="546" y="-210.2" font-family="Helvetica,sans-Serif" font-size="14.00">class = Animal</text>
</g>
<!-- 1&#45;&gt;9999 -->
<g id="edge9" class="edge">
<title>1&#45;&gt;9999</title>
<path fill="none" stroke="black" d="M546,-332.32C546,-324.42 546,-316.13 546,-307.98"/>
<polygon fill="black" stroke="black" points="549.5,-308.12 546,-298.12 542.5,-308.12 549.5,-308.12"/>
</g>
<!-- 3 -->
<g id="node4" class="node">
<title>3</title>
<path fill="#f9e3d3" stroke="black" d="M154,-166.25C154,-166.25 12,-166.25 12,-166.25 6,-166.25 0,-160.25 0,-154.25 0,-154.25 0,-84 0,-84 0,-78 6,-72 12,-72 12,-72 154,-72 154,-72 160,-72 166,-78 166,-84 166,-84 166,-154.25 166,-154.25 166,-160.25 160,-166.25 154,-166.25"/>
<text text-anchor="middle" x="83" y="-148.95" font-family="Helvetica,sans-Serif" font-size="14.00">19_C &lt;= 0.5</text>
<text text-anchor="middle" x="83" y="-131.7" font-family="Helvetica,sans-Serif" font-size="14.00">entropy = 0.989</text>
<text text-anchor="middle" x="83" y="-114.45" font-family="Helvetica,sans-Serif" font-size="14.00">samples = 10460</text>
<text text-anchor="middle" x="83" y="-97.2" font-family="Helvetica,sans-Serif" font-size="14.00">value = [9317, 7246]</text>
<text text-anchor="middle" x="83" y="-79.95" font-family="Helvetica,sans-Serif" font-size="14.00">class = Animal</text>
</g>
<!-- 2&#45;&gt;3 -->
<g id="edge3" class="edge">
<title>2&#45;&gt;3</title>
<path fill="none" stroke="black" d="M203.5,-201.89C189.63,-192.48 174.96,-182.53 160.8,-172.92"/>
<polygon fill="black" stroke="black" points="163.08,-170.23 152.84,-167.51 159.15,-176.03 163.08,-170.23"/>
</g>
<!-- 5532 -->
<g id="node7" class="node">
<title>5532</title>
<path fill="#a0d0f3" stroke="black" d="M347.5,-166.25C347.5,-166.25 196.5,-166.25 196.5,-166.25 190.5,-166.25 184.5,-160.25 184.5,-154.25 184.5,-154.25 184.5,-84 184.5,-84 184.5,-78 190.5,-72 196.5,-72 196.5,-72 347.5,-72 347.5,-72 353.5,-72 359.5,-78 359.5,-84 359.5,-84 359.5,-154.25 359.5,-154.25 359.5,-160.25 353.5,-166.25 347.5,-166.25"/>
<text text-anchor="middle" x="272" y="-148.95" font-family="Helvetica,sans-Serif" font-size="14.00">23_G &lt;= 0.5</text>
<text text-anchor="middle" x="272" y="-131.7" font-family="Helvetica,sans-Serif" font-size="14.00">entropy = 0.927</text>
<text text-anchor="middle" x="272" y="-114.45" font-family="Helvetica,sans-Serif" font-size="14.00">samples = 13339</text>
<text text-anchor="middle" x="272" y="-97.2" font-family="Helvetica,sans-Serif" font-size="14.00">value = [7211, 13828]</text>
<text text-anchor="middle" x="272" y="-79.95" font-family="Helvetica,sans-Serif" font-size="14.00">class = Plant</text>
</g>
<!-- 2&#45;&gt;5532 -->
<g id="edge6" class="edge">
<title>2&#45;&gt;5532</title>
<path fill="none" stroke="black" d="M272,-202.07C272,-194.17 272,-185.88 272,-177.73"/>
<polygon fill="black" stroke="black" points="275.5,-177.87 272,-167.87 268.5,-177.87 275.5,-177.87"/>
</g>
<!-- 4 -->
<g id="node5" class="node">
<title>4</title>
<path fill="#c0c0c0" stroke="black" d="M62,-36C62,-36 32,-36 32,-36 26,-36 20,-30 20,-24 20,-24 20,-12 20,-12 20,-6 26,0 32,0 32,0 62,0 62,0 68,0 74,-6 74,-12 74,-12 74,-24 74,-24 74,-30 68,-36 62,-36"/>
<text text-anchor="middle" x="47" y="-13.32" font-family="Helvetica,sans-Serif" font-size="14.00">(...)</text>
</g>
<!-- 3&#45;&gt;4 -->
<g id="edge4" class="edge">
<title>3&#45;&gt;4</title>
<path fill="none" stroke="black" d="M66.16,-71.75C63.06,-63.22 59.92,-54.57 57.1,-46.8"/>
<polygon fill="black" stroke="black" points="60.46,-45.8 53.75,-37.6 53.88,-48.19 60.46,-45.8"/>
</g>
<!-- 4021 -->
<g id="node6" class="node">
<title>4021</title>
<path fill="#c0c0c0" stroke="black" d="M134,-36C134,-36 104,-36 104,-36 98,-36 92,-30 92,-24 92,-24 92,-12 92,-12 92,-6 98,0 104,0 104,0 134,0 134,0 140,0 146,-6 146,-12 146,-12 146,-24 146,-24 146,-30 140,-36 134,-36"/>
<text text-anchor="middle" x="119" y="-13.32" font-family="Helvetica,sans-Serif" font-size="14.00">(...)</text>
</g>
<!-- 3&#45;&gt;4021 -->
<g id="edge5" class="edge">
<title>3&#45;&gt;4021</title>
<path fill="none" stroke="black" d="M99.84,-71.75C102.94,-63.22 106.08,-54.57 108.9,-46.8"/>
<polygon fill="black" stroke="black" points="112.12,-48.19 112.25,-37.6 105.54,-45.8 112.12,-48.19"/>
</g>
<!-- 5533 -->
<g id="node8" class="node">
<title>5533</title>
<path fill="#c0c0c0" stroke="black" d="M256,-36C256,-36 226,-36 226,-36 220,-36 214,-30 214,-24 214,-24 214,-12 214,-12 214,-6 220,0 226,0 226,0 256,0 256,0 262,0 268,-6 268,-12 268,-12 268,-24 268,-24 268,-30 262,-36 256,-36"/>
<text text-anchor="middle" x="241" y="-13.32" font-family="Helvetica,sans-Serif" font-size="14.00">(...)</text>
</g>
<!-- 5532&#45;&gt;5533 -->
<g id="edge7" class="edge">
<title>5532&#45;&gt;5533</title>
<path fill="none" stroke="black" d="M257.5,-71.75C254.86,-63.32 252.19,-54.77 249.78,-47.07"/>
<polygon fill="black" stroke="black" points="253.15,-46.12 246.82,-37.62 246.47,-48.21 253.15,-46.12"/>
</g>
<!-- 9834 -->
<g id="node9" class="node">
<title>9834</title>
<path fill="#c0c0c0" stroke="black" d="M328,-36C328,-36 298,-36 298,-36 292,-36 286,-30 286,-24 286,-24 286,-12 286,-12 286,-6 292,0 298,0 298,0 328,0 328,0 334,0 340,-6 340,-12 340,-12 340,-24 340,-24 340,-30 334,-36 328,-36"/>
<text text-anchor="middle" x="313" y="-13.32" font-family="Helvetica,sans-Serif" font-size="14.00">(...)</text>
</g>
<!-- 5532&#45;&gt;9834 -->
<g id="edge8" class="edge">
<title>5532&#45;&gt;9834</title>
<path fill="none" stroke="black" d="M291.18,-71.75C294.71,-63.22 298.29,-54.57 301.5,-46.8"/>
<polygon fill="black" stroke="black" points="304.73,-48.15 305.32,-37.57 298.26,-45.47 304.73,-48.15"/>
</g>
<!-- 10000 -->
<g id="node11" class="node">
<title>10000</title>
<path fill="#fae6d7" stroke="black" d="M532,-166.25C532,-166.25 390,-166.25 390,-166.25 384,-166.25 378,-160.25 378,-154.25 378,-154.25 378,-84 378,-84 378,-78 384,-72 390,-72 390,-72 532,-72 532,-72 538,-72 544,-78 544,-84 544,-84 544,-154.25 544,-154.25 544,-160.25 538,-166.25 532,-166.25"/>
<text text-anchor="middle" x="461" y="-148.95" font-family="Helvetica,sans-Serif" font-size="14.00">11_C &lt;= 0.5</text>
<text text-anchor="middle" x="461" y="-131.7" font-family="Helvetica,sans-Serif" font-size="14.00">entropy = 0.991</text>
<text text-anchor="middle" x="461" y="-114.45" font-family="Helvetica,sans-Serif" font-size="14.00">samples = 5709</text>
<text text-anchor="middle" x="461" y="-97.2" font-family="Helvetica,sans-Serif" font-size="14.00">value = [5024, 4015]</text>
<text text-anchor="middle" x="461" y="-79.95" font-family="Helvetica,sans-Serif" font-size="14.00">class = Animal</text>
</g>
<!-- 9999&#45;&gt;10000 -->
<g id="edge10" class="edge">
<title>9999&#45;&gt;10000</title>
<path fill="none" stroke="black" d="M515.31,-202.07C509.66,-193.54 503.7,-184.54 497.88,-175.77"/>
<polygon fill="black" stroke="black" points="500.92,-174.02 492.48,-167.62 495.09,-177.89 500.92,-174.02"/>
</g>
<!-- 12955 -->
<g id="node14" class="node">
<title>12955</title>
<path fill="#ea995f" stroke="black" d="M707.5,-166.25C707.5,-166.25 574.5,-166.25 574.5,-166.25 568.5,-166.25 562.5,-160.25 562.5,-154.25 562.5,-154.25 562.5,-84 562.5,-84 562.5,-78 568.5,-72 574.5,-72 574.5,-72 707.5,-72 707.5,-72 713.5,-72 719.5,-78 719.5,-84 719.5,-84 719.5,-154.25 719.5,-154.25 719.5,-160.25 713.5,-166.25 707.5,-166.25"/>
<text text-anchor="middle" x="641" y="-148.95" font-family="Helvetica,sans-Serif" font-size="14.00">7_G &lt;= 0.5</text>
<text text-anchor="middle" x="641" y="-131.7" font-family="Helvetica,sans-Serif" font-size="14.00">entropy = 0.636</text>
<text text-anchor="middle" x="641" y="-114.45" font-family="Helvetica,sans-Serif" font-size="14.00">samples = 1177</text>
<text text-anchor="middle" x="641" y="-97.2" font-family="Helvetica,sans-Serif" font-size="14.00">value = [1546, 296]</text>
<text text-anchor="middle" x="641" y="-79.95" font-family="Helvetica,sans-Serif" font-size="14.00">class = Animal</text>
</g>
<!-- 9999&#45;&gt;12955 -->
<g id="edge13" class="edge">
<title>9999&#45;&gt;12955</title>
<path fill="none" stroke="black" d="M580.3,-202.07C586.69,-193.45 593.42,-184.35 599.99,-175.49"/>
<polygon fill="black" stroke="black" points="602.71,-177.69 605.85,-167.57 597.09,-173.53 602.71,-177.69"/>
</g>
<!-- 10001 -->
<g id="node12" class="node">
<title>10001</title>
<path fill="#c0c0c0" stroke="black" d="M422,-36C422,-36 392,-36 392,-36 386,-36 380,-30 380,-24 380,-24 380,-12 380,-12 380,-6 386,0 392,0 392,0 422,0 422,0 428,0 434,-6 434,-12 434,-12 434,-24 434,-24 434,-30 428,-36 422,-36"/>
<text text-anchor="middle" x="407" y="-13.32" font-family="Helvetica,sans-Serif" font-size="14.00">(...)</text>
</g>
<!-- 10000&#45;&gt;10001 -->
<g id="edge11" class="edge">
<title>10000&#45;&gt;10001</title>
<path fill="none" stroke="black" d="M435.74,-71.75C430.98,-63.03 426.16,-54.16 421.85,-46.26"/>
<polygon fill="black" stroke="black" points="424.94,-44.61 417.08,-37.5 418.79,-47.96 424.94,-44.61"/>
</g>
<!-- 12422 -->
<g id="node13" class="node">
<title>12422</title>
<path fill="#c0c0c0" stroke="black" d="M494,-36C494,-36 464,-36 464,-36 458,-36 452,-30 452,-24 452,-24 452,-12 452,-12 452,-6 458,0 464,0 464,0 494,0 494,0 500,0 506,-6 506,-12 506,-12 506,-24 506,-24 506,-30 500,-36 494,-36"/>
<text text-anchor="middle" x="479" y="-13.32" font-family="Helvetica,sans-Serif" font-size="14.00">(...)</text>
</g>
<!-- 10000&#45;&gt;12422 -->
<g id="edge12" class="edge">
<title>10000&#45;&gt;12422</title>
<path fill="none" stroke="black" d="M469.42,-71.75C470.93,-63.42 472.47,-54.97 473.85,-47.34"/>
<polygon fill="black" stroke="black" points="477.27,-48.13 475.61,-37.66 470.38,-46.88 477.27,-48.13"/>
</g>
<!-- 12956 -->
<g id="node15" class="node">
<title>12956</title>
<path fill="#c0c0c0" stroke="black" d="M602,-36C602,-36 572,-36 572,-36 566,-36 560,-30 560,-24 560,-24 560,-12 560,-12 560,-6 566,0 572,0 572,0 602,0 602,0 608,0 614,-6 614,-12 614,-12 614,-24 614,-24 614,-30 608,-36 602,-36"/>
<text text-anchor="middle" x="587" y="-13.32" font-family="Helvetica,sans-Serif" font-size="14.00">(...)</text>
</g>
<!-- 12955&#45;&gt;12956 -->
<g id="edge14" class="edge">
<title>12955&#45;&gt;12956</title>
<path fill="none" stroke="black" d="M615.74,-71.75C610.98,-63.03 606.16,-54.16 601.85,-46.26"/>
<polygon fill="black" stroke="black" points="604.94,-44.61 597.08,-37.5 598.79,-47.96 604.94,-44.61"/>
</g>
<!-- 13267 -->
<g id="node16" class="node">
<title>13267</title>
<path fill="#c0c0c0" stroke="black" d="M674,-36C674,-36 644,-36 644,-36 638,-36 632,-30 632,-24 632,-24 632,-12 632,-12 632,-6 638,0 644,0 644,0 674,0 674,0 680,0 686,-6 686,-12 686,-12 686,-24 686,-24 686,-30 680,-36 674,-36"/>
<text text-anchor="middle" x="659" y="-13.32" font-family="Helvetica,sans-Serif" font-size="14.00">(...)</text>
</g>
<!-- 12955&#45;&gt;13267 -->
<g id="edge15" class="edge">
<title>12955&#45;&gt;13267</title>
<path fill="none" stroke="black" d="M649.42,-71.75C650.93,-63.42 652.47,-54.97 653.85,-47.34"/>
<polygon fill="black" stroke="black" points="657.27,-48.13 655.61,-37.66 650.38,-46.88 657.27,-48.13"/>
</g>
<!-- 13369 -->
<g id="node18" class="node">
<title>13369</title>
<path fill="#f2c2a0" stroke="black" d="M975,-296.5C975,-296.5 833,-296.5 833,-296.5 827,-296.5 821,-290.5 821,-284.5 821,-284.5 821,-214.25 821,-214.25 821,-208.25 827,-202.25 833,-202.25 833,-202.25 975,-202.25 975,-202.25 981,-202.25 987,-208.25 987,-214.25 987,-214.25 987,-284.5 987,-284.5 987,-290.5 981,-296.5 975,-296.5"/>
<text text-anchor="middle" x="904" y="-279.2" font-family="Helvetica,sans-Serif" font-size="14.00">22_A &lt;= 0.5</text>
<text text-anchor="middle" x="904" y="-261.95" font-family="Helvetica,sans-Serif" font-size="14.00">entropy = 0.926</text>
<text text-anchor="middle" x="904" y="-244.7" font-family="Helvetica,sans-Serif" font-size="14.00">samples = 3821</text>
<text text-anchor="middle" x="904" y="-227.45" font-family="Helvetica,sans-Serif" font-size="14.00">value = [3975, 2060]</text>
<text text-anchor="middle" x="904" y="-210.2" font-family="Helvetica,sans-Serif" font-size="14.00">class = Animal</text>
</g>
<!-- 13368&#45;&gt;13369 -->
<g id="edge17" class="edge">
<title>13368&#45;&gt;13369</title>
<path fill="none" stroke="black" d="M904,-332.32C904,-324.42 904,-316.13 904,-307.98"/>
<polygon fill="black" stroke="black" points="907.5,-308.12 904,-298.12 900.5,-308.12 907.5,-308.12"/>
</g>
<!-- 15542 -->
<g id="node25" class="node">
<title>15542</title>
<path fill="#fbede3" stroke="black" d="M1242,-296.5C1242,-296.5 1100,-296.5 1100,-296.5 1094,-296.5 1088,-290.5 1088,-284.5 1088,-284.5 1088,-214.25 1088,-214.25 1088,-208.25 1094,-202.25 1100,-202.25 1100,-202.25 1242,-202.25 1242,-202.25 1248,-202.25 1254,-208.25 1254,-214.25 1254,-214.25 1254,-284.5 1254,-284.5 1254,-290.5 1248,-296.5 1242,-296.5"/>
<text text-anchor="middle" x="1171" y="-279.2" font-family="Helvetica,sans-Serif" font-size="14.00">7_G &lt;= 0.5</text>
<text text-anchor="middle" x="1171" y="-261.95" font-family="Helvetica,sans-Serif" font-size="14.00">entropy = 0.996</text>
<text text-anchor="middle" x="1171" y="-244.7" font-family="Helvetica,sans-Serif" font-size="14.00">samples = 3674</text>
<text text-anchor="middle" x="1171" y="-227.45" font-family="Helvetica,sans-Serif" font-size="14.00">value = [3133, 2694]</text>
<text text-anchor="middle" x="1171" y="-210.2" font-family="Helvetica,sans-Serif" font-size="14.00">class = Animal</text>
</g>
<!-- 13368&#45;&gt;15542 -->
<g id="edge24" class="edge">
<title>13368&#45;&gt;15542</title>
<path fill="none" stroke="black" d="M987.38,-338.57C1015.99,-324.83 1048.19,-309.37 1077.54,-295.27"/>
<polygon fill="black" stroke="black" points="1078.93,-298.48 1086.43,-291 1075.9,-292.17 1078.93,-298.48"/>
</g>
<!-- 13370 -->
<g id="node19" class="node">
<title>13370</title>
<path fill="#f4caab" stroke="black" d="M892,-166.25C892,-166.25 750,-166.25 750,-166.25 744,-166.25 738,-160.25 738,-154.25 738,-154.25 738,-84 738,-84 738,-78 744,-72 750,-72 750,-72 892,-72 892,-72 898,-72 904,-78 904,-84 904,-84 904,-154.25 904,-154.25 904,-160.25 898,-166.25 892,-166.25"/>
<text text-anchor="middle" x="821" y="-148.95" font-family="Helvetica,sans-Serif" font-size="14.00">21_U &lt;= 0.5</text>
<text text-anchor="middle" x="821" y="-131.7" font-family="Helvetica,sans-Serif" font-size="14.00">entropy = 0.948</text>
<text text-anchor="middle" x="821" y="-114.45" font-family="Helvetica,sans-Serif" font-size="14.00">samples = 3203</text>
<text text-anchor="middle" x="821" y="-97.2" font-family="Helvetica,sans-Serif" font-size="14.00">value = [3190, 1844]</text>
<text text-anchor="middle" x="821" y="-79.95" font-family="Helvetica,sans-Serif" font-size="14.00">class = Animal</text>
</g>
<!-- 13369&#45;&gt;13370 -->
<g id="edge18" class="edge">
<title>13369&#45;&gt;13370</title>
<path fill="none" stroke="black" d="M874.04,-202.07C868.51,-193.54 862.69,-184.54 857.01,-175.77"/>
<polygon fill="black" stroke="black" points="860.11,-174.12 851.74,-167.63 854.24,-177.93 860.11,-174.12"/>
</g>
<!-- 15251 -->
<g id="node22" class="node">
<title>15251</title>
<path fill="#eca46f" stroke="black" d="M1058,-166.25C1058,-166.25 934,-166.25 934,-166.25 928,-166.25 922,-160.25 922,-154.25 922,-154.25 922,-84 922,-84 922,-78 928,-72 934,-72 934,-72 1058,-72 1058,-72 1064,-72 1070,-78 1070,-84 1070,-84 1070,-154.25 1070,-154.25 1070,-160.25 1064,-166.25 1058,-166.25"/>
<text text-anchor="middle" x="996" y="-148.95" font-family="Helvetica,sans-Serif" font-size="14.00">1_C &lt;= 0.5</text>
<text text-anchor="middle" x="996" y="-131.7" font-family="Helvetica,sans-Serif" font-size="14.00">entropy = 0.752</text>
<text text-anchor="middle" x="996" y="-114.45" font-family="Helvetica,sans-Serif" font-size="14.00">samples = 618</text>
<text text-anchor="middle" x="996" y="-97.2" font-family="Helvetica,sans-Serif" font-size="14.00">value = [785, 216]</text>
<text text-anchor="middle" x="996" y="-79.95" font-family="Helvetica,sans-Serif" font-size="14.00">class = Animal</text>
</g>
<!-- 13369&#45;&gt;15251 -->
<g id="edge21" class="edge">
<title>13369&#45;&gt;15251</title>
<path fill="none" stroke="black" d="M937.21,-202.07C943.4,-193.45 949.93,-184.35 956.29,-175.49"/>
<polygon fill="black" stroke="black" points="958.97,-177.75 961.95,-167.59 953.28,-173.67 958.97,-177.75"/>
</g>
<!-- 13371 -->
<g id="node20" class="node">
<title>13371</title>
<path fill="#c0c0c0" stroke="black" d="M779,-36C779,-36 749,-36 749,-36 743,-36 737,-30 737,-24 737,-24 737,-12 737,-12 737,-6 743,0 749,0 749,0 779,0 779,0 785,0 791,-6 791,-12 791,-12 791,-24 791,-24 791,-30 785,-36 779,-36"/>
<text text-anchor="middle" x="764" y="-13.32" font-family="Helvetica,sans-Serif" font-size="14.00">(...)</text>
</g>
<!-- 13370&#45;&gt;13371 -->
<g id="edge19" class="edge">
<title>13370&#45;&gt;13371</title>
<path fill="none" stroke="black" d="M794.34,-71.75C789.26,-62.93 784.1,-53.96 779.52,-45.99"/>
<polygon fill="black" stroke="black" points="782.65,-44.41 774.63,-37.48 776.58,-47.9 782.65,-44.41"/>
</g>
<!-- 14874 -->
<g id="node21" class="node">
<title>14874</title>
<path fill="#c0c0c0" stroke="black" d="M851,-36C851,-36 821,-36 821,-36 815,-36 809,-30 809,-24 809,-24 809,-12 809,-12 809,-6 815,0 821,0 821,0 851,0 851,0 857,0 863,-6 863,-12 863,-12 863,-24 863,-24 863,-30 857,-36 851,-36"/>
<text text-anchor="middle" x="836" y="-13.32" font-family="Helvetica,sans-Serif" font-size="14.00">(...)</text>
</g>
<!-- 13370&#45;&gt;14874 -->
<g id="edge20" class="edge">
<title>13370&#45;&gt;14874</title>
<path fill="none" stroke="black" d="M828.02,-71.75C829.28,-63.42 830.56,-54.97 831.71,-47.34"/>
<polygon fill="black" stroke="black" points="835.14,-48.08 833.17,-37.67 828.22,-47.03 835.14,-48.08"/>
</g>
<!-- 15252 -->
<g id="node23" class="node">
<title>15252</title>
<path fill="#c0c0c0" stroke="black" d="M954,-36C954,-36 924,-36 924,-36 918,-36 912,-30 912,-24 912,-24 912,-12 912,-12 912,-6 918,0 924,0 924,0 954,0 954,0 960,0 966,-6 966,-12 966,-12 966,-24 966,-24 966,-30 960,-36 954,-36"/>
<text text-anchor="middle" x="939" y="-13.32" font-family="Helvetica,sans-Serif" font-size="14.00">(...)</text>
</g>
<!-- 15251&#45;&gt;15252 -->
<g id="edge22" class="edge">
<title>15251&#45;&gt;15252</title>
<path fill="none" stroke="black" d="M969.34,-71.75C964.26,-62.93 959.1,-53.96 954.52,-45.99"/>
<polygon fill="black" stroke="black" points="957.65,-44.41 949.63,-37.48 951.58,-47.9 957.65,-44.41"/>
</g>
<!-- 15453 -->
<g id="node24" class="node">
<title>15453</title>
<path fill="#c0c0c0" stroke="black" d="M1026,-36C1026,-36 996,-36 996,-36 990,-36 984,-30 984,-24 984,-24 984,-12 984,-12 984,-6 990,0 996,0 996,0 1026,0 1026,0 1032,0 1038,-6 1038,-12 1038,-12 1038,-24 1038,-24 1038,-30 1032,-36 1026,-36"/>
<text text-anchor="middle" x="1011" y="-13.32" font-family="Helvetica,sans-Serif" font-size="14.00">(...)</text>
</g>
<!-- 15251&#45;&gt;15453 -->
<g id="edge23" class="edge">
<title>15251&#45;&gt;15453</title>
<path fill="none" stroke="black" d="M1003.02,-71.75C1004.28,-63.42 1005.56,-54.97 1006.71,-47.34"/>
<polygon fill="black" stroke="black" points="1010.14,-48.08 1008.17,-37.67 1003.22,-47.03 1010.14,-48.08"/>
</g>
<!-- 15543 -->
<g id="node26" class="node">
<title>15543</title>
<path fill="#f6d2b8" stroke="black" d="M1242,-166.25C1242,-166.25 1100,-166.25 1100,-166.25 1094,-166.25 1088,-160.25 1088,-154.25 1088,-154.25 1088,-84 1088,-84 1088,-78 1094,-72 1100,-72 1100,-72 1242,-72 1242,-72 1248,-72 1254,-78 1254,-84 1254,-84 1254,-154.25 1254,-154.25 1254,-160.25 1248,-166.25 1242,-166.25"/>
<text text-anchor="middle" x="1171" y="-148.95" font-family="Helvetica,sans-Serif" font-size="14.00">2_G &lt;= 0.5</text>
<text text-anchor="middle" x="1171" y="-131.7" font-family="Helvetica,sans-Serif" font-size="14.00">entropy = 0.966</text>
<text text-anchor="middle" x="1171" y="-114.45" font-family="Helvetica,sans-Serif" font-size="14.00">samples = 2671</text>
<text text-anchor="middle" x="1171" y="-97.2" font-family="Helvetica,sans-Serif" font-size="14.00">value = [2579, 1660]</text>
<text text-anchor="middle" x="1171" y="-79.95" font-family="Helvetica,sans-Serif" font-size="14.00">class = Animal</text>
</g>
<!-- 15542&#45;&gt;15543 -->
<g id="edge25" class="edge">
<title>15542&#45;&gt;15543</title>
<path fill="none" stroke="black" d="M1171,-202.07C1171,-194.17 1171,-185.88 1171,-177.73"/>
<polygon fill="black" stroke="black" points="1174.5,-177.87 1171,-167.87 1167.5,-177.87 1174.5,-177.87"/>
</g>
<!-- 16702 -->
<g id="node29" class="node">
<title>16702</title>
<path fill="#a3d2f3" stroke="black" d="M1417.5,-166.25C1417.5,-166.25 1284.5,-166.25 1284.5,-166.25 1278.5,-166.25 1272.5,-160.25 1272.5,-154.25 1272.5,-154.25 1272.5,-84 1272.5,-84 1272.5,-78 1278.5,-72 1284.5,-72 1284.5,-72 1417.5,-72 1417.5,-72 1423.5,-72 1429.5,-78 1429.5,-84 1429.5,-84 1429.5,-154.25 1429.5,-154.25 1429.5,-160.25 1423.5,-166.25 1417.5,-166.25"/>
<text text-anchor="middle" x="1351" y="-148.95" font-family="Helvetica,sans-Serif" font-size="14.00">6_U &lt;= 0.5</text>
<text text-anchor="middle" x="1351" y="-131.7" font-family="Helvetica,sans-Serif" font-size="14.00">entropy = 0.933</text>
<text text-anchor="middle" x="1351" y="-114.45" font-family="Helvetica,sans-Serif" font-size="14.00">samples = 1003</text>
<text text-anchor="middle" x="1351" y="-97.2" font-family="Helvetica,sans-Serif" font-size="14.00">value = [554, 1034]</text>
<text text-anchor="middle" x="1351" y="-79.95" font-family="Helvetica,sans-Serif" font-size="14.00">class = Plant</text>
</g>
<!-- 15542&#45;&gt;16702 -->
<g id="edge28" class="edge">
<title>15542&#45;&gt;16702</title>
<path fill="none" stroke="black" d="M1236.24,-201.89C1249.32,-192.57 1263.15,-182.72 1276.52,-173.19"/>
<polygon fill="black" stroke="black" points="1278.34,-176.2 1284.45,-167.54 1274.27,-170.49 1278.34,-176.2"/>
</g>
<!-- 15544 -->
<g id="node27" class="node">
<title>15544</title>
<path fill="#c0c0c0" stroke="black" d="M1150,-36C1150,-36 1120,-36 1120,-36 1114,-36 1108,-30 1108,-24 1108,-24 1108,-12 1108,-12 1108,-6 1114,0 1120,0 1120,0 1150,0 1150,0 1156,0 1162,-6 1162,-12 1162,-12 1162,-24 1162,-24 1162,-30 1156,-36 1150,-36"/>
<text text-anchor="middle" x="1135" y="-13.32" font-family="Helvetica,sans-Serif" font-size="14.00">(...)</text>
</g>
<!-- 15543&#45;&gt;15544 -->
<g id="edge26" class="edge">
<title>15543&#45;&gt;15544</title>
<path fill="none" stroke="black" d="M1154.16,-71.75C1151.06,-63.22 1147.92,-54.57 1145.1,-46.8"/>
<polygon fill="black" stroke="black" points="1148.46,-45.8 1141.75,-37.6 1141.88,-48.19 1148.46,-45.8"/>
</g>
<!-- 16405 -->
<g id="node28" class="node">
<title>16405</title>
<path fill="#c0c0c0" stroke="black" d="M1222,-36C1222,-36 1192,-36 1192,-36 1186,-36 1180,-30 1180,-24 1180,-24 1180,-12 1180,-12 1180,-6 1186,0 1192,0 1192,0 1222,0 1222,0 1228,0 1234,-6 1234,-12 1234,-12 1234,-24 1234,-24 1234,-30 1228,-36 1222,-36"/>
<text text-anchor="middle" x="1207" y="-13.32" font-family="Helvetica,sans-Serif" font-size="14.00">(...)</text>
</g>
<!-- 15543&#45;&gt;16405 -->
<g id="edge27" class="edge">
<title>15543&#45;&gt;16405</title>
<path fill="none" stroke="black" d="M1187.84,-71.75C1190.94,-63.22 1194.08,-54.57 1196.9,-46.8"/>
<polygon fill="black" stroke="black" points="1200.12,-48.19 1200.25,-37.6 1193.54,-45.8 1200.12,-48.19"/>
</g>
<!-- 16703 -->
<g id="node30" class="node">
<title>16703</title>
<path fill="#c0c0c0" stroke="black" d="M1330,-36C1330,-36 1300,-36 1300,-36 1294,-36 1288,-30 1288,-24 1288,-24 1288,-12 1288,-12 1288,-6 1294,0 1300,0 1300,0 1330,0 1330,0 1336,0 1342,-6 1342,-12 1342,-12 1342,-24 1342,-24 1342,-30 1336,-36 1330,-36"/>
<text text-anchor="middle" x="1315" y="-13.32" font-family="Helvetica,sans-Serif" font-size="14.00">(...)</text>
</g>
<!-- 16702&#45;&gt;16703 -->
<g id="edge29" class="edge">
<title>16702&#45;&gt;16703</title>
<path fill="none" stroke="black" d="M1334.16,-71.75C1331.06,-63.22 1327.92,-54.57 1325.1,-46.8"/>
<polygon fill="black" stroke="black" points="1328.46,-45.8 1321.75,-37.6 1321.88,-48.19 1328.46,-45.8"/>
</g>
<!-- 16898 -->
<g id="node31" class="node">
<title>16898</title>
<path fill="#c0c0c0" stroke="black" d="M1402,-36C1402,-36 1372,-36 1372,-36 1366,-36 1360,-30 1360,-24 1360,-24 1360,-12 1360,-12 1360,-6 1366,0 1372,0 1372,0 1402,0 1402,0 1408,0 1414,-6 1414,-12 1414,-12 1414,-24 1414,-24 1414,-30 1408,-36 1402,-36"/>
<text text-anchor="middle" x="1387" y="-13.32" font-family="Helvetica,sans-Serif" font-size="14.00">(...)</text>
</g>
<!-- 16702&#45;&gt;16898 -->
<g id="edge30" class="edge">
<title>16702&#45;&gt;16898</title>
<path fill="none" stroke="black" d="M1367.84,-71.75C1370.94,-63.22 1374.08,-54.57 1376.9,-46.8"/>
<polygon fill="black" stroke="black" points="1380.12,-48.19 1380.25,-37.6 1373.54,-45.8 1380.12,-48.19"/>
</g>
</g>
</svg>
