<?xml version="1.0" encoding="UTF-8" standalone="no"?>
<!DOCTYPE svg PUBLIC "-//W3C//DTD SVG 1.1//EN"
 "http://www.w3.org/Graphics/SVG/1.1/DTD/svg11.dtd">
<!-- Generated by graphviz version 12.0.0 (20240803.0821)
 -->
<!-- Title: Tree Pages: 1 -->
<svg width="1382pt" height="565pt"
 viewBox="0.00 0.00 1382.38 565.00" xmlns="http://www.w3.org/2000/svg" xmlns:xlink="http://www.w3.org/1999/xlink">
<g id="graph0" class="graph" transform="scale(1 1) rotate(0) translate(4 561)">
<title>Tree</title>
<polygon fill="white" stroke="none" points="-4,4 -4,-561 1378.38,-561 1378.38,4 -4,4"/>
<!-- 0 -->
<g id="node1" class="node">
<title>0</title>
<path fill="#feffff" stroke="black" d="M813,-557C813,-557 653,-557 653,-557 647,-557 641,-551 641,-545 641,-545 641,-474.75 641,-474.75 641,-468.75 647,-462.75 653,-462.75 653,-462.75 813,-462.75 813,-462.75 819,-462.75 825,-468.75 825,-474.75 825,-474.75 825,-545 825,-545 825,-551 819,-557 813,-557"/>
<text text-anchor="middle" x="733" y="-539.7" font-family="Helvetica,sans-Serif" font-size="14.00">23_A &lt;= 0.5</text>
<text text-anchor="middle" x="733" y="-522.45" font-family="Helvetica,sans-Serif" font-size="14.00">entropy = 1.0</text>
<text text-anchor="middle" x="733" y="-505.2" font-family="Helvetica,sans-Serif" font-size="14.00">samples = 38124</text>
<text text-anchor="middle" x="733" y="-487.95" font-family="Helvetica,sans-Serif" font-size="14.00">value = [30104, 30241]</text>
<text text-anchor="middle" x="733" y="-470.7" font-family="Helvetica,sans-Serif" font-size="14.00">class = Plant</text>
</g>
<!-- 1 -->
<g id="node2" class="node">
<title>1</title>
<path fill="#f7fbfe" stroke="black" d="M638,-426.75C638,-426.75 478,-426.75 478,-426.75 472,-426.75 466,-420.75 466,-414.75 466,-414.75 466,-344.5 466,-344.5 466,-338.5 472,-332.5 478,-332.5 478,-332.5 638,-332.5 638,-332.5 644,-332.5 650,-338.5 650,-344.5 650,-344.5 650,-414.75 650,-414.75 650,-420.75 644,-426.75 638,-426.75"/>
<text text-anchor="middle" x="558" y="-409.45" font-family="Helvetica,sans-Serif" font-size="14.00">19_U &lt;= 0.5</text>
<text text-anchor="middle" x="558" y="-392.2" font-family="Helvetica,sans-Serif" font-size="14.00">entropy = 1.0</text>
<text text-anchor="middle" x="558" y="-374.95" font-family="Helvetica,sans-Serif" font-size="14.00">samples = 36604</text>
<text text-anchor="middle" x="558" y="-357.7" font-family="Helvetica,sans-Serif" font-size="14.00">value = [28377, 29619]</text>
<text text-anchor="middle" x="558" y="-340.45" font-family="Helvetica,sans-Serif" font-size="14.00">class = Plant</text>
</g>
<!-- 0&#45;&gt;1 -->
<g id="edge1" class="edge">
<title>0&#45;&gt;1</title>
<path fill="none" stroke="black" d="M669.82,-462.57C657.01,-453.19 643.45,-443.25 630.36,-433.65"/>
<polygon fill="black" stroke="black" points="632.74,-431.06 622.6,-427.97 628.6,-436.7 632.74,-431.06"/>
<text text-anchor="middle" x="625.19" y="-447.11" font-family="Helvetica,sans-Serif" font-size="14.00">True</text>
</g>
<!-- 16372 -->
<g id="node17" class="node">
<title>16372</title>
<path fill="#eeae80" stroke="black" d="M970.5,-426.75C970.5,-426.75 837.5,-426.75 837.5,-426.75 831.5,-426.75 825.5,-420.75 825.5,-414.75 825.5,-414.75 825.5,-344.5 825.5,-344.5 825.5,-338.5 831.5,-332.5 837.5,-332.5 837.5,-332.5 970.5,-332.5 970.5,-332.5 976.5,-332.5 982.5,-338.5 982.5,-344.5 982.5,-344.5 982.5,-414.75 982.5,-414.75 982.5,-420.75 976.5,-426.75 970.5,-426.75"/>
<text text-anchor="middle" x="904" y="-409.45" font-family="Helvetica,sans-Serif" font-size="14.00">8_U &lt;= 0.5</text>
<text text-anchor="middle" x="904" y="-392.2" font-family="Helvetica,sans-Serif" font-size="14.00">entropy = 0.834</text>
<text text-anchor="middle" x="904" y="-374.95" font-family="Helvetica,sans-Serif" font-size="14.00">samples = 1520</text>
<text text-anchor="middle" x="904" y="-357.7" font-family="Helvetica,sans-Serif" font-size="14.00">value = [1727, 622]</text>
<text text-anchor="middle" x="904" y="-340.45" font-family="Helvetica,sans-Serif" font-size="14.00">class = Animal</text>
</g>
<!-- 0&#45;&gt;16372 -->
<g id="edge16" class="edge">
<title>0&#45;&gt;16372</title>
<path fill="none" stroke="black" d="M794.73,-462.57C807.13,-453.28 820.25,-443.44 832.93,-433.93"/>
<polygon fill="black" stroke="black" points="834.96,-436.78 840.86,-427.98 830.76,-431.18 834.96,-436.78"/>
<text text-anchor="middle" x="838.53" y="-447.15" font-family="Helvetica,sans-Serif" font-size="14.00">False</text>
</g>
<!-- 2 -->
<g id="node3" class="node">
<title>2</title>
<path fill="#d9ecfa" stroke="black" d="M365,-296.5C365,-296.5 205,-296.5 205,-296.5 199,-296.5 193,-290.5 193,-284.5 193,-284.5 193,-214.25 193,-214.25 193,-208.25 199,-202.25 205,-202.25 205,-202.25 365,-202.25 365,-202.25 371,-202.25 377,-208.25 377,-214.25 377,-214.25 377,-284.5 377,-284.5 377,-290.5 371,-296.5 365,-296.5"/>
<text text-anchor="middle" x="285" y="-279.2" font-family="Helvetica,sans-Serif" font-size="14.00">2_A &lt;= 0.5</text>
<text text-anchor="middle" x="285" y="-261.95" font-family="Helvetica,sans-Serif" font-size="14.00">entropy = 0.992</text>
<text text-anchor="middle" x="285" y="-244.7" font-family="Helvetica,sans-Serif" font-size="14.00">samples = 28040</text>
<text text-anchor="middle" x="285" y="-227.45" font-family="Helvetica,sans-Serif" font-size="14.00">value = [19906, 24644]</text>
<text text-anchor="middle" x="285" y="-210.2" font-family="Helvetica,sans-Serif" font-size="14.00">class = Plant</text>
</g>
<!-- 1&#45;&gt;2 -->
<g id="edge2" class="edge">
<title>1&#45;&gt;2</title>
<path fill="none" stroke="black" d="M465.57,-335.21C440.45,-323.4 413.09,-310.55 387.44,-298.5"/>
<polygon fill="black" stroke="black" points="389.24,-295.48 378.7,-294.39 386.26,-301.81 389.24,-295.48"/>
</g>
<!-- 11971 -->
<g id="node10" class="node">
<title>11971</title>
<path fill="#f4cbad" stroke="black" d="M629,-296.5C629,-296.5 487,-296.5 487,-296.5 481,-296.5 475,-290.5 475,-284.5 475,-284.5 475,-214.25 475,-214.25 475,-208.25 481,-202.25 487,-202.25 487,-202.25 629,-202.25 629,-202.25 635,-202.25 641,-208.25 641,-214.25 641,-214.25 641,-284.5 641,-284.5 641,-290.5 635,-296.5 629,-296.5"/>
<text text-anchor="middle" x="558" y="-279.2" font-family="Helvetica,sans-Serif" font-size="14.00">16_A &lt;= 0.5</text>
<text text-anchor="middle" x="558" y="-261.95" font-family="Helvetica,sans-Serif" font-size="14.00">entropy = 0.951</text>
<text text-anchor="middle" x="558" y="-244.7" font-family="Helvetica,sans-Serif" font-size="14.00">samples = 8564</text>
<text text-anchor="middle" x="558" y="-227.45" font-family="Helvetica,sans-Serif" font-size="14.00">value = [8471, 4975]</text>
<text text-anchor="middle" x="558" y="-210.2" font-family="Helvetica,sans-Serif" font-size="14.00">class = Animal</text>
</g>
<!-- 1&#45;&gt;11971 -->
<g id="edge9" class="edge">
<title>1&#45;&gt;11971</title>
<path fill="none" stroke="black" d="M558,-332.32C558,-324.42 558,-316.13 558,-307.98"/>
<polygon fill="black" stroke="black" points="561.5,-308.12 558,-298.12 554.5,-308.12 561.5,-308.12"/>
</g>
<!-- 3 -->
<g id="node4" class="node">
<title>3</title>
<path fill="#bfdff7" stroke="black" d="M172,-166.25C172,-166.25 12,-166.25 12,-166.25 6,-166.25 0,-160.25 0,-154.25 0,-154.25 0,-84 0,-84 0,-78 6,-72 12,-72 12,-72 172,-72 172,-72 178,-72 184,-78 184,-84 184,-84 184,-154.25 184,-154.25 184,-160.25 178,-166.25 172,-166.25"/>
<text text-anchor="middle" x="92" y="-148.95" font-family="Helvetica,sans-Serif" font-size="14.00">22_G &lt;= 0.5</text>
<text text-anchor="middle" x="92" y="-131.7" font-family="Helvetica,sans-Serif" font-size="14.00">entropy = 0.973</text>
<text text-anchor="middle" x="92" y="-114.45" font-family="Helvetica,sans-Serif" font-size="14.00">samples = 21682</text>
<text text-anchor="middle" x="92" y="-97.2" font-family="Helvetica,sans-Serif" font-size="14.00">value = [13894, 20494]</text>
<text text-anchor="middle" x="92" y="-79.95" font-family="Helvetica,sans-Serif" font-size="14.00">class = Plant</text>
</g>
<!-- 2&#45;&gt;3 -->
<g id="edge3" class="edge">
<title>2&#45;&gt;3</title>
<path fill="none" stroke="black" d="M215.05,-201.89C200.89,-192.48 185.9,-182.53 171.45,-172.92"/>
<polygon fill="black" stroke="black" points="173.56,-170.12 163.3,-167.5 169.69,-175.95 173.56,-170.12"/>
</g>
<!-- 9188 -->
<g id="node7" class="node">
<title>9188</title>
<path fill="#f7d8c2" stroke="black" d="M356,-166.25C356,-166.25 214,-166.25 214,-166.25 208,-166.25 202,-160.25 202,-154.25 202,-154.25 202,-84 202,-84 202,-78 208,-72 214,-72 214,-72 356,-72 356,-72 362,-72 368,-78 368,-84 368,-84 368,-154.25 368,-154.25 368,-160.25 362,-166.25 356,-166.25"/>
<text text-anchor="middle" x="285" y="-148.95" font-family="Helvetica,sans-Serif" font-size="14.00">4_C &lt;= 0.5</text>
<text text-anchor="middle" x="285" y="-131.7" font-family="Helvetica,sans-Serif" font-size="14.00">entropy = 0.976</text>
<text text-anchor="middle" x="285" y="-114.45" font-family="Helvetica,sans-Serif" font-size="14.00">samples = 6358</text>
<text text-anchor="middle" x="285" y="-97.2" font-family="Helvetica,sans-Serif" font-size="14.00">value = [6012, 4150]</text>
<text text-anchor="middle" x="285" y="-79.95" font-family="Helvetica,sans-Serif" font-size="14.00">class = Animal</text>
</g>
<!-- 2&#45;&gt;9188 -->
<g id="edge6" class="edge">
<title>2&#45;&gt;9188</title>
<path fill="none" stroke="black" d="M285,-202.07C285,-194.17 285,-185.88 285,-177.73"/>
<polygon fill="black" stroke="black" points="288.5,-177.87 285,-167.87 281.5,-177.87 288.5,-177.87"/>
</g>
<!-- 4 -->
<g id="node5" class="node">
<title>4</title>
<path fill="#c0c0c0" stroke="black" d="M71,-36C71,-36 41,-36 41,-36 35,-36 29,-30 29,-24 29,-24 29,-12 29,-12 29,-6 35,0 41,0 41,0 71,0 71,0 77,0 83,-6 83,-12 83,-12 83,-24 83,-24 83,-30 77,-36 71,-36"/>
<text text-anchor="middle" x="56" y="-13.32" font-family="Helvetica,sans-Serif" font-size="14.00">(...)</text>
</g>
<!-- 3&#45;&gt;4 -->
<g id="edge4" class="edge">
<title>3&#45;&gt;4</title>
<path fill="none" stroke="black" d="M75.16,-71.75C72.06,-63.22 68.92,-54.57 66.1,-46.8"/>
<polygon fill="black" stroke="black" points="69.46,-45.8 62.75,-37.6 62.88,-48.19 69.46,-45.8"/>
</g>
<!-- 8239 -->
<g id="node6" class="node">
<title>8239</title>
<path fill="#c0c0c0" stroke="black" d="M143,-36C143,-36 113,-36 113,-36 107,-36 101,-30 101,-24 101,-24 101,-12 101,-12 101,-6 107,0 113,0 113,0 143,0 143,0 149,0 155,-6 155,-12 155,-12 155,-24 155,-24 155,-30 149,-36 143,-36"/>
<text text-anchor="middle" x="128" y="-13.32" font-family="Helvetica,sans-Serif" font-size="14.00">(...)</text>
</g>
<!-- 3&#45;&gt;8239 -->
<g id="edge5" class="edge">
<title>3&#45;&gt;8239</title>
<path fill="none" stroke="black" d="M108.84,-71.75C111.94,-63.22 115.08,-54.57 117.9,-46.8"/>
<polygon fill="black" stroke="black" points="121.12,-48.19 121.25,-37.6 114.54,-45.8 121.12,-48.19"/>
</g>
<!-- 9189 -->
<g id="node8" class="node">
<title>9189</title>
<path fill="#c0c0c0" stroke="black" d="M268,-36C268,-36 238,-36 238,-36 232,-36 226,-30 226,-24 226,-24 226,-12 226,-12 226,-6 232,0 238,0 238,0 268,0 268,0 274,0 280,-6 280,-12 280,-12 280,-24 280,-24 280,-30 274,-36 268,-36"/>
<text text-anchor="middle" x="253" y="-13.32" font-family="Helvetica,sans-Serif" font-size="14.00">(...)</text>
</g>
<!-- 9188&#45;&gt;9189 -->
<g id="edge7" class="edge">
<title>9188&#45;&gt;9189</title>
<path fill="none" stroke="black" d="M270.03,-71.75C267.31,-63.32 264.55,-54.77 262.06,-47.07"/>
<polygon fill="black" stroke="black" points="265.41,-46.05 259.01,-37.61 258.75,-48.2 265.41,-46.05"/>
</g>
<!-- 11300 -->
<g id="node9" class="node">
<title>11300</title>
<path fill="#c0c0c0" stroke="black" d="M340,-36C340,-36 310,-36 310,-36 304,-36 298,-30 298,-24 298,-24 298,-12 298,-12 298,-6 304,0 310,0 310,0 340,0 340,0 346,0 352,-6 352,-12 352,-12 352,-24 352,-24 352,-30 346,-36 340,-36"/>
<text text-anchor="middle" x="325" y="-13.32" font-family="Helvetica,sans-Serif" font-size="14.00">(...)</text>
</g>
<!-- 9188&#45;&gt;11300 -->
<g id="edge8" class="edge">
<title>9188&#45;&gt;11300</title>
<path fill="none" stroke="black" d="M303.71,-71.75C307.15,-63.22 310.65,-54.57 313.78,-46.8"/>
<polygon fill="black" stroke="black" points="317.01,-48.16 317.5,-37.58 310.52,-45.54 317.01,-48.16"/>
</g>
<!-- 11972 -->
<g id="node11" class="node">
<title>11972</title>
<path fill="#f3c5a4" stroke="black" d="M540,-166.25C540,-166.25 398,-166.25 398,-166.25 392,-166.25 386,-160.25 386,-154.25 386,-154.25 386,-84 386,-84 386,-78 392,-72 398,-72 398,-72 540,-72 540,-72 546,-72 552,-78 552,-84 552,-84 552,-154.25 552,-154.25 552,-160.25 546,-166.25 540,-166.25"/>
<text text-anchor="middle" x="469" y="-148.95" font-family="Helvetica,sans-Serif" font-size="14.00">21_U &lt;= 0.5</text>
<text text-anchor="middle" x="469" y="-131.7" font-family="Helvetica,sans-Serif" font-size="14.00">entropy = 0.935</text>
<text text-anchor="middle" x="469" y="-114.45" font-family="Helvetica,sans-Serif" font-size="14.00">samples = 6293</text>
<text text-anchor="middle" x="469" y="-97.2" font-family="Helvetica,sans-Serif" font-size="14.00">value = [6432, 3477]</text>
<text text-anchor="middle" x="469" y="-79.95" font-family="Helvetica,sans-Serif" font-size="14.00">class = Animal</text>
</g>
<!-- 11971&#45;&gt;11972 -->
<g id="edge10" class="edge">
<title>11971&#45;&gt;11972</title>
<path fill="none" stroke="black" d="M525.87,-202.07C519.95,-193.54 513.7,-184.54 507.61,-175.77"/>
<polygon fill="black" stroke="black" points="510.52,-173.82 501.95,-167.6 504.77,-177.81 510.52,-173.82"/>
</g>
<!-- 15295 -->
<g id="node14" class="node">
<title>15295</title>
<path fill="#f8deca" stroke="black" d="M724,-166.25C724,-166.25 582,-166.25 582,-166.25 576,-166.25 570,-160.25 570,-154.25 570,-154.25 570,-84 570,-84 570,-78 576,-72 582,-72 582,-72 724,-72 724,-72 730,-72 736,-78 736,-84 736,-84 736,-154.25 736,-154.25 736,-160.25 730,-166.25 724,-166.25"/>
<text text-anchor="middle" x="653" y="-148.95" font-family="Helvetica,sans-Serif" font-size="14.00">4_C &lt;= 0.5</text>
<text text-anchor="middle" x="653" y="-131.7" font-family="Helvetica,sans-Serif" font-size="14.00">entropy = 0.983</text>
<text text-anchor="middle" x="653" y="-114.45" font-family="Helvetica,sans-Serif" font-size="14.00">samples = 2271</text>
<text text-anchor="middle" x="653" y="-97.2" font-family="Helvetica,sans-Serif" font-size="14.00">value = [2039, 1498]</text>
<text text-anchor="middle" x="653" y="-79.95" font-family="Helvetica,sans-Serif" font-size="14.00">class = Animal</text>
</g>
<!-- 11971&#45;&gt;15295 -->
<g id="edge13" class="edge">
<title>11971&#45;&gt;15295</title>
<path fill="none" stroke="black" d="M592.3,-202.07C598.69,-193.45 605.42,-184.35 611.99,-175.49"/>
<polygon fill="black" stroke="black" points="614.71,-177.69 617.85,-167.57 609.09,-173.53 614.71,-177.69"/>
</g>
<!-- 11973 -->
<g id="node12" class="node">
<title>11973</title>
<path fill="#c0c0c0" stroke="black" d="M432,-36C432,-36 402,-36 402,-36 396,-36 390,-30 390,-24 390,-24 390,-12 390,-12 390,-6 396,0 402,0 402,0 432,0 432,0 438,0 444,-6 444,-12 444,-12 444,-24 444,-24 444,-30 438,-36 432,-36"/>
<text text-anchor="middle" x="417" y="-13.32" font-family="Helvetica,sans-Serif" font-size="14.00">(...)</text>
</g>
<!-- 11972&#45;&gt;11973 -->
<g id="edge11" class="edge">
<title>11972&#45;&gt;11973</title>
<path fill="none" stroke="black" d="M444.67,-71.75C440.1,-63.03 435.45,-54.16 431.3,-46.26"/>
<polygon fill="black" stroke="black" points="434.46,-44.74 426.71,-37.51 428.26,-47.99 434.46,-44.74"/>
</g>
<!-- 14632 -->
<g id="node13" class="node">
<title>14632</title>
<path fill="#c0c0c0" stroke="black" d="M504,-36C504,-36 474,-36 474,-36 468,-36 462,-30 462,-24 462,-24 462,-12 462,-12 462,-6 468,0 474,0 474,0 504,0 504,0 510,0 516,-6 516,-12 516,-12 516,-24 516,-24 516,-30 510,-36 504,-36"/>
<text text-anchor="middle" x="489" y="-13.32" font-family="Helvetica,sans-Serif" font-size="14.00">(...)</text>
</g>
<!-- 11972&#45;&gt;14632 -->
<g id="edge12" class="edge">
<title>11972&#45;&gt;14632</title>
<path fill="none" stroke="black" d="M478.36,-71.75C480.04,-63.42 481.74,-54.97 483.28,-47.34"/>
<polygon fill="black" stroke="black" points="486.69,-48.15 485.24,-37.66 479.83,-46.77 486.69,-48.15"/>
</g>
<!-- 15296 -->
<g id="node15" class="node">
<title>15296</title>
<path fill="#c0c0c0" stroke="black" d="M611,-36C611,-36 581,-36 581,-36 575,-36 569,-30 569,-24 569,-24 569,-12 569,-12 569,-6 575,0 581,0 581,0 611,0 611,0 617,0 623,-6 623,-12 623,-12 623,-24 623,-24 623,-30 617,-36 611,-36"/>
<text text-anchor="middle" x="596" y="-13.32" font-family="Helvetica,sans-Serif" font-size="14.00">(...)</text>
</g>
<!-- 15295&#45;&gt;15296 -->
<g id="edge14" class="edge">
<title>15295&#45;&gt;15296</title>
<path fill="none" stroke="black" d="M626.34,-71.75C621.26,-62.93 616.1,-53.96 611.52,-45.99"/>
<polygon fill="black" stroke="black" points="614.65,-44.41 606.63,-37.48 608.58,-47.9 614.65,-44.41"/>
</g>
<!-- 16159 -->
<g id="node16" class="node">
<title>16159</title>
<path fill="#c0c0c0" stroke="black" d="M683,-36C683,-36 653,-36 653,-36 647,-36 641,-30 641,-24 641,-24 641,-12 641,-12 641,-6 647,0 653,0 653,0 683,0 683,0 689,0 695,-6 695,-12 695,-12 695,-24 695,-24 695,-30 689,-36 683,-36"/>
<text text-anchor="middle" x="668" y="-13.32" font-family="Helvetica,sans-Serif" font-size="14.00">(...)</text>
</g>
<!-- 15295&#45;&gt;16159 -->
<g id="edge15" class="edge">
<title>15295&#45;&gt;16159</title>
<path fill="none" stroke="black" d="M660.02,-71.75C661.28,-63.42 662.56,-54.97 663.71,-47.34"/>
<polygon fill="black" stroke="black" points="667.14,-48.08 665.17,-37.67 660.22,-47.03 667.14,-48.08"/>
</g>
<!-- 16373 -->
<g id="node18" class="node">
<title>16373</title>
<path fill="#f0b78e" stroke="black" d="M970.5,-296.5C970.5,-296.5 837.5,-296.5 837.5,-296.5 831.5,-296.5 825.5,-290.5 825.5,-284.5 825.5,-284.5 825.5,-214.25 825.5,-214.25 825.5,-208.25 831.5,-202.25 837.5,-202.25 837.5,-202.25 970.5,-202.25 970.5,-202.25 976.5,-202.25 982.5,-208.25 982.5,-214.25 982.5,-214.25 982.5,-284.5 982.5,-284.5 982.5,-290.5 976.5,-296.5 970.5,-296.5"/>
<text text-anchor="middle" x="904" y="-279.2" font-family="Helvetica,sans-Serif" font-size="14.00">5_A &lt;= 0.5</text>
<text text-anchor="middle" x="904" y="-261.95" font-family="Helvetica,sans-Serif" font-size="14.00">entropy = 0.883</text>
<text text-anchor="middle" x="904" y="-244.7" font-family="Helvetica,sans-Serif" font-size="14.00">samples = 1013</text>
<text text-anchor="middle" x="904" y="-227.45" font-family="Helvetica,sans-Serif" font-size="14.00">value = [1099, 474]</text>
<text text-anchor="middle" x="904" y="-210.2" font-family="Helvetica,sans-Serif" font-size="14.00">class = Animal</text>
</g>
<!-- 16372&#45;&gt;16373 -->
<g id="edge17" class="edge">
<title>16372&#45;&gt;16373</title>
<path fill="none" stroke="black" d="M904,-332.32C904,-324.42 904,-316.13 904,-307.98"/>
<polygon fill="black" stroke="black" points="907.5,-308.12 904,-298.12 900.5,-308.12 907.5,-308.12"/>
</g>
<!-- 16936 -->
<g id="node25" class="node">
<title>16936</title>
<path fill="#eb9f68" stroke="black" d="M1214,-296.5C1214,-296.5 1090,-296.5 1090,-296.5 1084,-296.5 1078,-290.5 1078,-284.5 1078,-284.5 1078,-214.25 1078,-214.25 1078,-208.25 1084,-202.25 1090,-202.25 1090,-202.25 1214,-202.25 1214,-202.25 1220,-202.25 1226,-208.25 1226,-214.25 1226,-214.25 1226,-284.5 1226,-284.5 1226,-290.5 1220,-296.5 1214,-296.5"/>
<text text-anchor="middle" x="1152" y="-279.2" font-family="Helvetica,sans-Serif" font-size="14.00">27_A &lt;= 0.5</text>
<text text-anchor="middle" x="1152" y="-261.95" font-family="Helvetica,sans-Serif" font-size="14.00">entropy = 0.703</text>
<text text-anchor="middle" x="1152" y="-244.7" font-family="Helvetica,sans-Serif" font-size="14.00">samples = 507</text>
<text text-anchor="middle" x="1152" y="-227.45" font-family="Helvetica,sans-Serif" font-size="14.00">value = [628, 148]</text>
<text text-anchor="middle" x="1152" y="-210.2" font-family="Helvetica,sans-Serif" font-size="14.00">class = Animal</text>
</g>
<!-- 16372&#45;&gt;16936 -->
<g id="edge24" class="edge">
<title>16372&#45;&gt;16936</title>
<path fill="none" stroke="black" d="M982.81,-337.87C1009.84,-323.89 1040.19,-308.19 1067.65,-294"/>
<polygon fill="black" stroke="black" points="1069,-297.24 1076.27,-289.54 1065.78,-291.02 1069,-297.24"/>
</g>
<!-- 16374 -->
<g id="node19" class="node">
<title>16374</title>
<path fill="#f2bf9a" stroke="black" d="M890,-166.25C890,-166.25 766,-166.25 766,-166.25 760,-166.25 754,-160.25 754,-154.25 754,-154.25 754,-84 754,-84 754,-78 760,-72 766,-72 766,-72 890,-72 890,-72 896,-72 902,-78 902,-84 902,-84 902,-154.25 902,-154.25 902,-160.25 896,-166.25 890,-166.25"/>
<text text-anchor="middle" x="828" y="-148.95" font-family="Helvetica,sans-Serif" font-size="14.00">5_C &lt;= 0.5</text>
<text text-anchor="middle" x="828" y="-131.7" font-family="Helvetica,sans-Serif" font-size="14.00">entropy = 0.913</text>
<text text-anchor="middle" x="828" y="-114.45" font-family="Helvetica,sans-Serif" font-size="14.00">samples = 766</text>
<text text-anchor="middle" x="828" y="-97.2" font-family="Helvetica,sans-Serif" font-size="14.00">value = [799, 391]</text>
<text text-anchor="middle" x="828" y="-79.95" font-family="Helvetica,sans-Serif" font-size="14.00">class = Animal</text>
</g>
<!-- 16373&#45;&gt;16374 -->
<g id="edge18" class="edge">
<title>16373&#45;&gt;16374</title>
<path fill="none" stroke="black" d="M876.56,-202.07C871.56,-193.63 866.29,-184.74 861.14,-176.05"/>
<polygon fill="black" stroke="black" points="864.28,-174.48 856.17,-167.66 858.26,-178.05 864.28,-174.48"/>
</g>
<!-- 16829 -->
<g id="node22" class="node">
<title>16829</title>
<path fill="#eca470" stroke="black" d="M1047.5,-166.25C1047.5,-166.25 932.5,-166.25 932.5,-166.25 926.5,-166.25 920.5,-160.25 920.5,-154.25 920.5,-154.25 920.5,-84 920.5,-84 920.5,-78 926.5,-72 932.5,-72 932.5,-72 1047.5,-72 1047.5,-72 1053.5,-72 1059.5,-78 1059.5,-84 1059.5,-84 1059.5,-154.25 1059.5,-154.25 1059.5,-160.25 1053.5,-166.25 1047.5,-166.25"/>
<text text-anchor="middle" x="990" y="-148.95" font-family="Helvetica,sans-Serif" font-size="14.00">22_G &lt;= 0.5</text>
<text text-anchor="middle" x="990" y="-131.7" font-family="Helvetica,sans-Serif" font-size="14.00">entropy = 0.754</text>
<text text-anchor="middle" x="990" y="-114.45" font-family="Helvetica,sans-Serif" font-size="14.00">samples = 247</text>
<text text-anchor="middle" x="990" y="-97.2" font-family="Helvetica,sans-Serif" font-size="14.00">value = [300, 83]</text>
<text text-anchor="middle" x="990" y="-79.95" font-family="Helvetica,sans-Serif" font-size="14.00">class = Animal</text>
</g>
<!-- 16373&#45;&gt;16829 -->
<g id="edge21" class="edge">
<title>16373&#45;&gt;16829</title>
<path fill="none" stroke="black" d="M935.05,-202.07C940.77,-193.54 946.8,-184.54 952.69,-175.77"/>
<polygon fill="black" stroke="black" points="955.49,-177.87 958.15,-167.62 949.68,-173.97 955.49,-177.87"/>
</g>
<!-- 16375 -->
<g id="node20" class="node">
<title>16375</title>
<path fill="#c0c0c0" stroke="black" d="M780,-36C780,-36 750,-36 750,-36 744,-36 738,-30 738,-24 738,-24 738,-12 738,-12 738,-6 744,0 750,0 750,0 780,0 780,0 786,0 792,-6 792,-12 792,-12 792,-24 792,-24 792,-30 786,-36 780,-36"/>
<text text-anchor="middle" x="765" y="-13.32" font-family="Helvetica,sans-Serif" font-size="14.00">(...)</text>
</g>
<!-- 16374&#45;&gt;16375 -->
<g id="edge19" class="edge">
<title>16374&#45;&gt;16375</title>
<path fill="none" stroke="black" d="M798.53,-71.75C792.85,-62.83 787.09,-53.76 781.98,-45.72"/>
<polygon fill="black" stroke="black" points="785.04,-44.01 776.73,-37.45 779.14,-47.77 785.04,-44.01"/>
</g>
<!-- 16712 -->
<g id="node21" class="node">
<title>16712</title>
<path fill="#c0c0c0" stroke="black" d="M852,-36C852,-36 822,-36 822,-36 816,-36 810,-30 810,-24 810,-24 810,-12 810,-12 810,-6 816,0 822,0 822,0 852,0 852,0 858,0 864,-6 864,-12 864,-12 864,-24 864,-24 864,-30 858,-36 852,-36"/>
<text text-anchor="middle" x="837" y="-13.32" font-family="Helvetica,sans-Serif" font-size="14.00">(...)</text>
</g>
<!-- 16374&#45;&gt;16712 -->
<g id="edge20" class="edge">
<title>16374&#45;&gt;16712</title>
<path fill="none" stroke="black" d="M832.21,-71.75C832.96,-63.52 833.72,-55.17 834.4,-47.61"/>
<polygon fill="black" stroke="black" points="837.89,-47.96 835.3,-37.68 830.91,-47.32 837.89,-47.96"/>
</g>
<!-- 16830 -->
<g id="node23" class="node">
<title>16830</title>
<path fill="#c0c0c0" stroke="black" d="M942,-36C942,-36 912,-36 912,-36 906,-36 900,-30 900,-24 900,-24 900,-12 900,-12 900,-6 906,0 912,0 912,0 942,0 942,0 948,0 954,-6 954,-12 954,-12 954,-24 954,-24 954,-30 948,-36 942,-36"/>
<text text-anchor="middle" x="927" y="-13.32" font-family="Helvetica,sans-Serif" font-size="14.00">(...)</text>
</g>
<!-- 16829&#45;&gt;16830 -->
<g id="edge22" class="edge">
<title>16829&#45;&gt;16830</title>
<path fill="none" stroke="black" d="M960.53,-71.75C954.85,-62.83 949.09,-53.76 943.98,-45.72"/>
<polygon fill="black" stroke="black" points="947.04,-44.01 938.73,-37.45 941.14,-47.77 947.04,-44.01"/>
</g>
<!-- 16901 -->
<g id="node24" class="node">
<title>16901</title>
<path fill="#c0c0c0" stroke="black" d="M1014,-36C1014,-36 984,-36 984,-36 978,-36 972,-30 972,-24 972,-24 972,-12 972,-12 972,-6 978,0 984,0 984,0 1014,0 1014,0 1020,0 1026,-6 1026,-12 1026,-12 1026,-24 1026,-24 1026,-30 1020,-36 1014,-36"/>
<text text-anchor="middle" x="999" y="-13.32" font-family="Helvetica,sans-Serif" font-size="14.00">(...)</text>
</g>
<!-- 16829&#45;&gt;16901 -->
<g id="edge23" class="edge">
<title>16829&#45;&gt;16901</title>
<path fill="none" stroke="black" d="M994.21,-71.75C994.96,-63.52 995.72,-55.17 996.4,-47.61"/>
<polygon fill="black" stroke="black" points="999.89,-47.96 997.3,-37.68 992.91,-47.32 999.89,-47.96"/>
</g>
<!-- 16937 -->
<g id="node26" class="node">
<title>16937</title>
<path fill="#eb9c64" stroke="black" d="M1214,-166.25C1214,-166.25 1090,-166.25 1090,-166.25 1084,-166.25 1078,-160.25 1078,-154.25 1078,-154.25 1078,-84 1078,-84 1078,-78 1084,-72 1090,-72 1090,-72 1214,-72 1214,-72 1220,-72 1226,-78 1226,-84 1226,-84 1226,-154.25 1226,-154.25 1226,-160.25 1220,-166.25 1214,-166.25"/>
<text text-anchor="middle" x="1152" y="-148.95" font-family="Helvetica,sans-Serif" font-size="14.00">1_G &lt;= 0.5</text>
<text text-anchor="middle" x="1152" y="-131.7" font-family="Helvetica,sans-Serif" font-size="14.00">entropy = 0.677</text>
<text text-anchor="middle" x="1152" y="-114.45" font-family="Helvetica,sans-Serif" font-size="14.00">samples = 497</text>
<text text-anchor="middle" x="1152" y="-97.2" font-family="Helvetica,sans-Serif" font-size="14.00">value = [626, 136]</text>
<text text-anchor="middle" x="1152" y="-79.95" font-family="Helvetica,sans-Serif" font-size="14.00">class = Animal</text>
</g>
<!-- 16936&#45;&gt;16937 -->
<g id="edge25" class="edge">
<title>16936&#45;&gt;16937</title>
<path fill="none" stroke="black" d="M1152,-202.07C1152,-194.17 1152,-185.88 1152,-177.73"/>
<polygon fill="black" stroke="black" points="1155.5,-177.87 1152,-167.87 1148.5,-177.87 1155.5,-177.87"/>
</g>
<!-- 17116 -->
<g id="node29" class="node">
<title>17116</title>
<path fill="#5aade9" stroke="black" d="M1362.38,-166.25C1362.38,-166.25 1255.62,-166.25 1255.62,-166.25 1249.62,-166.25 1243.62,-160.25 1243.62,-154.25 1243.62,-154.25 1243.62,-84 1243.62,-84 1243.62,-78 1249.62,-72 1255.62,-72 1255.62,-72 1362.38,-72 1362.38,-72 1368.38,-72 1374.38,-78 1374.38,-84 1374.38,-84 1374.38,-154.25 1374.38,-154.25 1374.38,-160.25 1368.38,-166.25 1362.38,-166.25"/>
<text text-anchor="middle" x="1309" y="-148.95" font-family="Helvetica,sans-Serif" font-size="14.00">11_U &lt;= 0.5</text>
<text text-anchor="middle" x="1309" y="-131.7" font-family="Helvetica,sans-Serif" font-size="14.00">entropy = 0.592</text>
<text text-anchor="middle" x="1309" y="-114.45" font-family="Helvetica,sans-Serif" font-size="14.00">samples = 10</text>
<text text-anchor="middle" x="1309" y="-97.2" font-family="Helvetica,sans-Serif" font-size="14.00">value = [2, 12]</text>
<text text-anchor="middle" x="1309" y="-79.95" font-family="Helvetica,sans-Serif" font-size="14.00">class = Plant</text>
</g>
<!-- 16936&#45;&gt;17116 -->
<g id="edge28" class="edge">
<title>16936&#45;&gt;17116</title>
<path fill="none" stroke="black" d="M1208.68,-202.07C1219.95,-192.87 1231.87,-183.13 1243.41,-173.71"/>
<polygon fill="black" stroke="black" points="1245.44,-176.57 1250.97,-167.53 1241.01,-171.15 1245.44,-176.57"/>
</g>
<!-- 16938 -->
<g id="node27" class="node">
<title>16938</title>
<path fill="#c0c0c0" stroke="black" d="M1119,-36C1119,-36 1089,-36 1089,-36 1083,-36 1077,-30 1077,-24 1077,-24 1077,-12 1077,-12 1077,-6 1083,0 1089,0 1089,0 1119,0 1119,0 1125,0 1131,-6 1131,-12 1131,-12 1131,-24 1131,-24 1131,-30 1125,-36 1119,-36"/>
<text text-anchor="middle" x="1104" y="-13.32" font-family="Helvetica,sans-Serif" font-size="14.00">(...)</text>
</g>
<!-- 16937&#45;&gt;16938 -->
<g id="edge26" class="edge">
<title>16937&#45;&gt;16938</title>
<path fill="none" stroke="black" d="M1129.55,-71.75C1125.37,-63.12 1121.12,-54.36 1117.33,-46.53"/>
<polygon fill="black" stroke="black" points="1120.48,-45.01 1112.98,-37.53 1114.18,-48.06 1120.48,-45.01"/>
</g>
<!-- 17091 -->
<g id="node28" class="node">
<title>17091</title>
<path fill="#c0c0c0" stroke="black" d="M1191,-36C1191,-36 1161,-36 1161,-36 1155,-36 1149,-30 1149,-24 1149,-24 1149,-12 1149,-12 1149,-6 1155,0 1161,0 1161,0 1191,0 1191,0 1197,0 1203,-6 1203,-12 1203,-12 1203,-24 1203,-24 1203,-30 1197,-36 1191,-36"/>
<text text-anchor="middle" x="1176" y="-13.32" font-family="Helvetica,sans-Serif" font-size="14.00">(...)</text>
</g>
<!-- 16937&#45;&gt;17091 -->
<g id="edge27" class="edge">
<title>16937&#45;&gt;17091</title>
<path fill="none" stroke="black" d="M1163.23,-71.75C1165.24,-63.42 1167.29,-54.97 1169.14,-47.34"/>
<polygon fill="black" stroke="black" points="1172.53,-48.19 1171.49,-37.64 1165.73,-46.54 1172.53,-48.19"/>
</g>
<!-- 17117 -->
<g id="node30" class="node">
<title>17117</title>
<path fill="#c0c0c0" stroke="black" d="M1288,-36C1288,-36 1258,-36 1258,-36 1252,-36 1246,-30 1246,-24 1246,-24 1246,-12 1246,-12 1246,-6 1252,0 1258,0 1258,0 1288,0 1288,0 1294,0 1300,-6 1300,-12 1300,-12 1300,-24 1300,-24 1300,-30 1294,-36 1288,-36"/>
<text text-anchor="middle" x="1273" y="-13.32" font-family="Helvetica,sans-Serif" font-size="14.00">(...)</text>
</g>
<!-- 17116&#45;&gt;17117 -->
<g id="edge29" class="edge">
<title>17116&#45;&gt;17117</title>
<path fill="none" stroke="black" d="M1292.16,-71.75C1289.06,-63.22 1285.92,-54.57 1283.1,-46.8"/>
<polygon fill="black" stroke="black" points="1286.46,-45.8 1279.75,-37.6 1279.88,-48.19 1286.46,-45.8"/>
</g>
<!-- 17120 -->
<g id="node31" class="node">
<title>17120</title>
<path fill="#c0c0c0" stroke="black" d="M1360,-36C1360,-36 1330,-36 1330,-36 1324,-36 1318,-30 1318,-24 1318,-24 1318,-12 1318,-12 1318,-6 1324,0 1330,0 1330,0 1360,0 1360,0 1366,0 1372,-6 1372,-12 1372,-12 1372,-24 1372,-24 1372,-30 1366,-36 1360,-36"/>
<text text-anchor="middle" x="1345" y="-13.32" font-family="Helvetica,sans-Serif" font-size="14.00">(...)</text>
</g>
<!-- 17116&#45;&gt;17120 -->
<g id="edge30" class="edge">
<title>17116&#45;&gt;17120</title>
<path fill="none" stroke="black" d="M1325.84,-71.75C1328.94,-63.22 1332.08,-54.57 1334.9,-46.8"/>
<polygon fill="black" stroke="black" points="1338.12,-48.19 1338.25,-37.6 1331.54,-45.8 1338.12,-48.19"/>
</g>
</g>
</svg>
