<?xml version="1.0" encoding="UTF-8" standalone="no"?>
<!DOCTYPE svg PUBLIC "-//W3C//DTD SVG 1.1//EN"
 "http://www.w3.org/Graphics/SVG/1.1/DTD/svg11.dtd">
<!-- Generated by graphviz version 12.0.0 (20240803.0821)
 -->
<!-- Title: Tree Pages: 1 -->
<svg width="1401pt" height="565pt"
 viewBox="0.00 0.00 1401.38 565.00" xmlns="http://www.w3.org/2000/svg" xmlns:xlink="http://www.w3.org/1999/xlink">
<g id="graph0" class="graph" transform="scale(1 1) rotate(0) translate(4 561)">
<title>Tree</title>
<polygon fill="white" stroke="none" points="-4,4 -4,-561 1397.38,-561 1397.38,4 -4,4"/>
<!-- 0 -->
<g id="node1" class="node">
<title>0</title>
<path fill="#ffffff" stroke="black" d="M821,-557C821,-557 661,-557 661,-557 655,-557 649,-551 649,-545 649,-545 649,-474.75 649,-474.75 649,-468.75 655,-462.75 661,-462.75 661,-462.75 821,-462.75 821,-462.75 827,-462.75 833,-468.75 833,-474.75 833,-474.75 833,-545 833,-545 833,-551 827,-557 821,-557"/>
<text text-anchor="middle" x="741" y="-539.7" font-family="Helvetica,sans-Serif" font-size="14.00">22_G &lt;= 0.5</text>
<text text-anchor="middle" x="741" y="-522.45" font-family="Helvetica,sans-Serif" font-size="14.00">entropy = 1.0</text>
<text text-anchor="middle" x="741" y="-505.2" font-family="Helvetica,sans-Serif" font-size="14.00">samples = 38117</text>
<text text-anchor="middle" x="741" y="-487.95" font-family="Helvetica,sans-Serif" font-size="14.00">value = [30204, 30141]</text>
<text text-anchor="middle" x="741" y="-470.7" font-family="Helvetica,sans-Serif" font-size="14.00">class = Animal</text>
</g>
<!-- 1 -->
<g id="node2" class="node">
<title>1</title>
<path fill="#e1f0fb" stroke="black" d="M644,-426.75C644,-426.75 484,-426.75 484,-426.75 478,-426.75 472,-420.75 472,-414.75 472,-414.75 472,-344.5 472,-344.5 472,-338.5 478,-332.5 484,-332.5 484,-332.5 644,-332.5 644,-332.5 650,-332.5 656,-338.5 656,-344.5 656,-344.5 656,-414.75 656,-414.75 656,-420.75 650,-426.75 644,-426.75"/>
<text text-anchor="middle" x="564" y="-409.45" font-family="Helvetica,sans-Serif" font-size="14.00">19_C &lt;= 0.5</text>
<text text-anchor="middle" x="564" y="-392.2" font-family="Helvetica,sans-Serif" font-size="14.00">entropy = 0.995</text>
<text text-anchor="middle" x="564" y="-374.95" font-family="Helvetica,sans-Serif" font-size="14.00">samples = 33202</text>
<text text-anchor="middle" x="564" y="-357.7" font-family="Helvetica,sans-Serif" font-size="14.00">value = [24142, 28433]</text>
<text text-anchor="middle" x="564" y="-340.45" font-family="Helvetica,sans-Serif" font-size="14.00">class = Plant</text>
</g>
<!-- 0&#45;&gt;1 -->
<g id="edge1" class="edge">
<title>0&#45;&gt;1</title>
<path fill="none" stroke="black" d="M676.85,-462.39C663.99,-453.07 650.38,-443.22 637.24,-433.69"/>
<polygon fill="black" stroke="black" points="639.61,-431.09 629.46,-428.05 635.5,-436.75 639.61,-431.09"/>
<text text-anchor="middle" x="632.17" y="-447.18" font-family="Helvetica,sans-Serif" font-size="14.00">True</text>
</g>
<!-- 14630 -->
<g id="node17" class="node">
<title>14630</title>
<path fill="#eca571" stroke="black" d="M983,-426.75C983,-426.75 841,-426.75 841,-426.75 835,-426.75 829,-420.75 829,-414.75 829,-414.75 829,-344.5 829,-344.5 829,-338.5 835,-332.5 841,-332.5 841,-332.5 983,-332.5 983,-332.5 989,-332.5 995,-338.5 995,-344.5 995,-344.5 995,-414.75 995,-414.75 995,-420.75 989,-426.75 983,-426.75"/>
<text text-anchor="middle" x="912" y="-409.45" font-family="Helvetica,sans-Serif" font-size="14.00">17_C &lt;= 0.5</text>
<text text-anchor="middle" x="912" y="-392.2" font-family="Helvetica,sans-Serif" font-size="14.00">entropy = 0.76</text>
<text text-anchor="middle" x="912" y="-374.95" font-family="Helvetica,sans-Serif" font-size="14.00">samples = 4915</text>
<text text-anchor="middle" x="912" y="-357.7" font-family="Helvetica,sans-Serif" font-size="14.00">value = [6062, 1708]</text>
<text text-anchor="middle" x="912" y="-340.45" font-family="Helvetica,sans-Serif" font-size="14.00">class = Animal</text>
</g>
<!-- 0&#45;&gt;14630 -->
<g id="edge16" class="edge">
<title>0&#45;&gt;14630</title>
<path fill="none" stroke="black" d="M802.73,-462.57C815.13,-453.28 828.25,-443.44 840.93,-433.93"/>
<polygon fill="black" stroke="black" points="842.96,-436.78 848.86,-427.98 838.76,-431.18 842.96,-436.78"/>
<text text-anchor="middle" x="846.53" y="-447.15" font-family="Helvetica,sans-Serif" font-size="14.00">False</text>
</g>
<!-- 2 -->
<g id="node3" class="node">
<title>2</title>
<path fill="#fcf1e8" stroke="black" d="M365,-296.5C365,-296.5 205,-296.5 205,-296.5 199,-296.5 193,-290.5 193,-284.5 193,-284.5 193,-214.25 193,-214.25 193,-208.25 199,-202.25 205,-202.25 205,-202.25 365,-202.25 365,-202.25 371,-202.25 377,-208.25 377,-214.25 377,-214.25 377,-284.5 377,-284.5 377,-290.5 371,-296.5 365,-296.5"/>
<text text-anchor="middle" x="285" y="-279.2" font-family="Helvetica,sans-Serif" font-size="14.00">19_U &lt;= 0.5</text>
<text text-anchor="middle" x="285" y="-261.95" font-family="Helvetica,sans-Serif" font-size="14.00">entropy = 0.997</text>
<text text-anchor="middle" x="285" y="-244.7" font-family="Helvetica,sans-Serif" font-size="14.00">samples = 21835</text>
<text text-anchor="middle" x="285" y="-227.45" font-family="Helvetica,sans-Serif" font-size="14.00">value = [18334, 16227]</text>
<text text-anchor="middle" x="285" y="-210.2" font-family="Helvetica,sans-Serif" font-size="14.00">class = Animal</text>
</g>
<!-- 1&#45;&gt;2 -->
<g id="edge2" class="edge">
<title>1&#45;&gt;2</title>
<path fill="none" stroke="black" d="M471.87,-336.28C444.73,-323.8 414.87,-310.07 387.14,-297.33"/>
<polygon fill="black" stroke="black" points="388.95,-294.31 378.41,-293.31 386.03,-300.67 388.95,-294.31"/>
</g>
<!-- 10929 -->
<g id="node10" class="node">
<title>10929</title>
<path fill="#97ccf1" stroke="black" d="M639.5,-296.5C639.5,-296.5 488.5,-296.5 488.5,-296.5 482.5,-296.5 476.5,-290.5 476.5,-284.5 476.5,-284.5 476.5,-214.25 476.5,-214.25 476.5,-208.25 482.5,-202.25 488.5,-202.25 488.5,-202.25 639.5,-202.25 639.5,-202.25 645.5,-202.25 651.5,-208.25 651.5,-214.25 651.5,-214.25 651.5,-284.5 651.5,-284.5 651.5,-290.5 645.5,-296.5 639.5,-296.5"/>
<text text-anchor="middle" x="564" y="-279.2" font-family="Helvetica,sans-Serif" font-size="14.00">22_U &lt;= 0.5</text>
<text text-anchor="middle" x="564" y="-261.95" font-family="Helvetica,sans-Serif" font-size="14.00">entropy = 0.907</text>
<text text-anchor="middle" x="564" y="-244.7" font-family="Helvetica,sans-Serif" font-size="14.00">samples = 11367</text>
<text text-anchor="middle" x="564" y="-227.45" font-family="Helvetica,sans-Serif" font-size="14.00">value = [5808, 12206]</text>
<text text-anchor="middle" x="564" y="-210.2" font-family="Helvetica,sans-Serif" font-size="14.00">class = Plant</text>
</g>
<!-- 1&#45;&gt;10929 -->
<g id="edge9" class="edge">
<title>1&#45;&gt;10929</title>
<path fill="none" stroke="black" d="M564,-332.32C564,-324.42 564,-316.13 564,-307.98"/>
<polygon fill="black" stroke="black" points="567.5,-308.12 564,-298.12 560.5,-308.12 567.5,-308.12"/>
</g>
<!-- 3 -->
<g id="node4" class="node">
<title>3</title>
<path fill="#f8fcfe" stroke="black" d="M172,-166.25C172,-166.25 12,-166.25 12,-166.25 6,-166.25 0,-160.25 0,-154.25 0,-154.25 0,-84 0,-84 0,-78 6,-72 12,-72 12,-72 172,-72 172,-72 178,-72 184,-78 184,-84 184,-84 184,-154.25 184,-154.25 184,-160.25 178,-166.25 172,-166.25"/>
<text text-anchor="middle" x="92" y="-148.95" font-family="Helvetica,sans-Serif" font-size="14.00">22_U &lt;= 0.5</text>
<text text-anchor="middle" x="92" y="-131.7" font-family="Helvetica,sans-Serif" font-size="14.00">entropy = 1.0</text>
<text text-anchor="middle" x="92" y="-114.45" font-family="Helvetica,sans-Serif" font-size="14.00">samples = 14337</text>
<text text-anchor="middle" x="92" y="-97.2" font-family="Helvetica,sans-Serif" font-size="14.00">value = [11114, 11521]</text>
<text text-anchor="middle" x="92" y="-79.95" font-family="Helvetica,sans-Serif" font-size="14.00">class = Plant</text>
</g>
<!-- 2&#45;&gt;3 -->
<g id="edge3" class="edge">
<title>2&#45;&gt;3</title>
<path fill="none" stroke="black" d="M215.05,-201.89C200.89,-192.48 185.9,-182.53 171.45,-172.92"/>
<polygon fill="black" stroke="black" points="173.56,-170.12 163.3,-167.5 169.69,-175.95 173.56,-170.12"/>
</g>
<!-- 7184 -->
<g id="node7" class="node">
<title>7184</title>
<path fill="#f6d3ba" stroke="black" d="M356,-166.25C356,-166.25 214,-166.25 214,-166.25 208,-166.25 202,-160.25 202,-154.25 202,-154.25 202,-84 202,-84 202,-78 208,-72 214,-72 214,-72 356,-72 356,-72 362,-72 368,-78 368,-84 368,-84 368,-154.25 368,-154.25 368,-160.25 362,-166.25 356,-166.25"/>
<text text-anchor="middle" x="285" y="-148.95" font-family="Helvetica,sans-Serif" font-size="14.00">23_G &lt;= 0.5</text>
<text text-anchor="middle" x="285" y="-131.7" font-family="Helvetica,sans-Serif" font-size="14.00">entropy = 0.968</text>
<text text-anchor="middle" x="285" y="-114.45" font-family="Helvetica,sans-Serif" font-size="14.00">samples = 7498</text>
<text text-anchor="middle" x="285" y="-97.2" font-family="Helvetica,sans-Serif" font-size="14.00">value = [7220, 4706]</text>
<text text-anchor="middle" x="285" y="-79.95" font-family="Helvetica,sans-Serif" font-size="14.00">class = Animal</text>
</g>
<!-- 2&#45;&gt;7184 -->
<g id="edge6" class="edge">
<title>2&#45;&gt;7184</title>
<path fill="none" stroke="black" d="M285,-202.07C285,-194.17 285,-185.88 285,-177.73"/>
<polygon fill="black" stroke="black" points="288.5,-177.87 285,-167.87 281.5,-177.87 288.5,-177.87"/>
</g>
<!-- 4 -->
<g id="node5" class="node">
<title>4</title>
<path fill="#c0c0c0" stroke="black" d="M71,-36C71,-36 41,-36 41,-36 35,-36 29,-30 29,-24 29,-24 29,-12 29,-12 29,-6 35,0 41,0 41,0 71,0 71,0 77,0 83,-6 83,-12 83,-12 83,-24 83,-24 83,-30 77,-36 71,-36"/>
<text text-anchor="middle" x="56" y="-13.32" font-family="Helvetica,sans-Serif" font-size="14.00">(...)</text>
</g>
<!-- 3&#45;&gt;4 -->
<g id="edge4" class="edge">
<title>3&#45;&gt;4</title>
<path fill="none" stroke="black" d="M75.16,-71.75C72.06,-63.22 68.92,-54.57 66.1,-46.8"/>
<polygon fill="black" stroke="black" points="69.46,-45.8 62.75,-37.6 62.88,-48.19 69.46,-45.8"/>
</g>
<!-- 6245 -->
<g id="node6" class="node">
<title>6245</title>
<path fill="#c0c0c0" stroke="black" d="M143,-36C143,-36 113,-36 113,-36 107,-36 101,-30 101,-24 101,-24 101,-12 101,-12 101,-6 107,0 113,0 113,0 143,0 143,0 149,0 155,-6 155,-12 155,-12 155,-24 155,-24 155,-30 149,-36 143,-36"/>
<text text-anchor="middle" x="128" y="-13.32" font-family="Helvetica,sans-Serif" font-size="14.00">(...)</text>
</g>
<!-- 3&#45;&gt;6245 -->
<g id="edge5" class="edge">
<title>3&#45;&gt;6245</title>
<path fill="none" stroke="black" d="M108.84,-71.75C111.94,-63.22 115.08,-54.57 117.9,-46.8"/>
<polygon fill="black" stroke="black" points="121.12,-48.19 121.25,-37.6 114.54,-45.8 121.12,-48.19"/>
</g>
<!-- 7185 -->
<g id="node8" class="node">
<title>7185</title>
<path fill="#c0c0c0" stroke="black" d="M271,-36C271,-36 241,-36 241,-36 235,-36 229,-30 229,-24 229,-24 229,-12 229,-12 229,-6 235,0 241,0 241,0 271,0 271,0 277,0 283,-6 283,-12 283,-12 283,-24 283,-24 283,-30 277,-36 271,-36"/>
<text text-anchor="middle" x="256" y="-13.32" font-family="Helvetica,sans-Serif" font-size="14.00">(...)</text>
</g>
<!-- 7184&#45;&gt;7185 -->
<g id="edge7" class="edge">
<title>7184&#45;&gt;7185</title>
<path fill="none" stroke="black" d="M271.43,-71.75C268.97,-63.32 266.46,-54.77 264.21,-47.07"/>
<polygon fill="black" stroke="black" points="267.62,-46.24 261.45,-37.63 260.9,-48.21 267.62,-46.24"/>
</g>
<!-- 10808 -->
<g id="node9" class="node">
<title>10808</title>
<path fill="#c0c0c0" stroke="black" d="M343,-36C343,-36 313,-36 313,-36 307,-36 301,-30 301,-24 301,-24 301,-12 301,-12 301,-6 307,0 313,0 313,0 343,0 343,0 349,0 355,-6 355,-12 355,-12 355,-24 355,-24 355,-30 349,-36 343,-36"/>
<text text-anchor="middle" x="328" y="-13.32" font-family="Helvetica,sans-Serif" font-size="14.00">(...)</text>
</g>
<!-- 7184&#45;&gt;10808 -->
<g id="edge8" class="edge">
<title>7184&#45;&gt;10808</title>
<path fill="none" stroke="black" d="M305.12,-71.75C308.86,-63.12 312.66,-54.36 316.06,-46.53"/>
<polygon fill="black" stroke="black" points="319.18,-48.13 319.95,-37.56 312.76,-45.34 319.18,-48.13"/>
</g>
<!-- 10930 -->
<g id="node11" class="node">
<title>10930</title>
<path fill="#7fc0ee" stroke="black" d="M549.5,-166.25C549.5,-166.25 398.5,-166.25 398.5,-166.25 392.5,-166.25 386.5,-160.25 386.5,-154.25 386.5,-154.25 386.5,-84 386.5,-84 386.5,-78 392.5,-72 398.5,-72 398.5,-72 549.5,-72 549.5,-72 555.5,-72 561.5,-78 561.5,-84 561.5,-84 561.5,-154.25 561.5,-154.25 561.5,-160.25 555.5,-166.25 549.5,-166.25"/>
<text text-anchor="middle" x="474" y="-148.95" font-family="Helvetica,sans-Serif" font-size="14.00">23_A &lt;= 0.5</text>
<text text-anchor="middle" x="474" y="-131.7" font-family="Helvetica,sans-Serif" font-size="14.00">entropy = 0.828</text>
<text text-anchor="middle" x="474" y="-114.45" font-family="Helvetica,sans-Serif" font-size="14.00">samples = 10080</text>
<text text-anchor="middle" x="474" y="-97.2" font-family="Helvetica,sans-Serif" font-size="14.00">value = [4169, 11821]</text>
<text text-anchor="middle" x="474" y="-79.95" font-family="Helvetica,sans-Serif" font-size="14.00">class = Plant</text>
</g>
<!-- 10929&#45;&gt;10930 -->
<g id="edge10" class="edge">
<title>10929&#45;&gt;10930</title>
<path fill="none" stroke="black" d="M531.51,-202.07C525.52,-193.54 519.21,-184.54 513.05,-175.77"/>
<polygon fill="black" stroke="black" points="515.92,-173.77 507.31,-167.6 510.19,-177.79 515.92,-173.77"/>
</g>
<!-- 14123 -->
<g id="node14" class="node">
<title>14123</title>
<path fill="#eb9f68" stroke="black" d="M724.5,-166.25C724.5,-166.25 591.5,-166.25 591.5,-166.25 585.5,-166.25 579.5,-160.25 579.5,-154.25 579.5,-154.25 579.5,-84 579.5,-84 579.5,-78 585.5,-72 591.5,-72 591.5,-72 724.5,-72 724.5,-72 730.5,-72 736.5,-78 736.5,-84 736.5,-84 736.5,-154.25 736.5,-154.25 736.5,-160.25 730.5,-166.25 724.5,-166.25"/>
<text text-anchor="middle" x="658" y="-148.95" font-family="Helvetica,sans-Serif" font-size="14.00">8_A &lt;= 0.5</text>
<text text-anchor="middle" x="658" y="-131.7" font-family="Helvetica,sans-Serif" font-size="14.00">entropy = 0.702</text>
<text text-anchor="middle" x="658" y="-114.45" font-family="Helvetica,sans-Serif" font-size="14.00">samples = 1287</text>
<text text-anchor="middle" x="658" y="-97.2" font-family="Helvetica,sans-Serif" font-size="14.00">value = [1639, 385]</text>
<text text-anchor="middle" x="658" y="-79.95" font-family="Helvetica,sans-Serif" font-size="14.00">class = Animal</text>
</g>
<!-- 10929&#45;&gt;14123 -->
<g id="edge13" class="edge">
<title>10929&#45;&gt;14123</title>
<path fill="none" stroke="black" d="M597.94,-202.07C604.26,-193.45 610.92,-184.35 617.42,-175.49"/>
<polygon fill="black" stroke="black" points="620.13,-177.71 623.22,-167.58 614.48,-173.58 620.13,-177.71"/>
</g>
<!-- 10931 -->
<g id="node12" class="node">
<title>10931</title>
<path fill="#c0c0c0" stroke="black" d="M437,-36C437,-36 407,-36 407,-36 401,-36 395,-30 395,-24 395,-24 395,-12 395,-12 395,-6 401,0 407,0 407,0 437,0 437,0 443,0 449,-6 449,-12 449,-12 449,-24 449,-24 449,-30 443,-36 437,-36"/>
<text text-anchor="middle" x="422" y="-13.32" font-family="Helvetica,sans-Serif" font-size="14.00">(...)</text>
</g>
<!-- 10930&#45;&gt;10931 -->
<g id="edge11" class="edge">
<title>10930&#45;&gt;10931</title>
<path fill="none" stroke="black" d="M449.67,-71.75C445.1,-63.03 440.45,-54.16 436.3,-46.26"/>
<polygon fill="black" stroke="black" points="439.46,-44.74 431.71,-37.51 433.26,-47.99 439.46,-44.74"/>
</g>
<!-- 14024 -->
<g id="node13" class="node">
<title>14024</title>
<path fill="#c0c0c0" stroke="black" d="M509,-36C509,-36 479,-36 479,-36 473,-36 467,-30 467,-24 467,-24 467,-12 467,-12 467,-6 473,0 479,0 479,0 509,0 509,0 515,0 521,-6 521,-12 521,-12 521,-24 521,-24 521,-30 515,-36 509,-36"/>
<text text-anchor="middle" x="494" y="-13.32" font-family="Helvetica,sans-Serif" font-size="14.00">(...)</text>
</g>
<!-- 10930&#45;&gt;14024 -->
<g id="edge12" class="edge">
<title>10930&#45;&gt;14024</title>
<path fill="none" stroke="black" d="M483.36,-71.75C485.04,-63.42 486.74,-54.97 488.28,-47.34"/>
<polygon fill="black" stroke="black" points="491.69,-48.15 490.24,-37.66 484.83,-46.77 491.69,-48.15"/>
</g>
<!-- 14124 -->
<g id="node15" class="node">
<title>14124</title>
<path fill="#c0c0c0" stroke="black" d="M619,-36C619,-36 589,-36 589,-36 583,-36 577,-30 577,-24 577,-24 577,-12 577,-12 577,-6 583,0 589,0 589,0 619,0 619,0 625,0 631,-6 631,-12 631,-12 631,-24 631,-24 631,-30 625,-36 619,-36"/>
<text text-anchor="middle" x="604" y="-13.32" font-family="Helvetica,sans-Serif" font-size="14.00">(...)</text>
</g>
<!-- 14123&#45;&gt;14124 -->
<g id="edge14" class="edge">
<title>14123&#45;&gt;14124</title>
<path fill="none" stroke="black" d="M632.74,-71.75C627.98,-63.03 623.16,-54.16 618.85,-46.26"/>
<polygon fill="black" stroke="black" points="621.94,-44.61 614.08,-37.5 615.79,-47.96 621.94,-44.61"/>
</g>
<!-- 14497 -->
<g id="node16" class="node">
<title>14497</title>
<path fill="#c0c0c0" stroke="black" d="M691,-36C691,-36 661,-36 661,-36 655,-36 649,-30 649,-24 649,-24 649,-12 649,-12 649,-6 655,0 661,0 661,0 691,0 691,0 697,0 703,-6 703,-12 703,-12 703,-24 703,-24 703,-30 697,-36 691,-36"/>
<text text-anchor="middle" x="676" y="-13.32" font-family="Helvetica,sans-Serif" font-size="14.00">(...)</text>
</g>
<!-- 14123&#45;&gt;14497 -->
<g id="edge15" class="edge">
<title>14123&#45;&gt;14497</title>
<path fill="none" stroke="black" d="M666.42,-71.75C667.93,-63.42 669.47,-54.97 670.85,-47.34"/>
<polygon fill="black" stroke="black" points="674.27,-48.13 672.61,-37.66 667.38,-46.88 674.27,-48.13"/>
</g>
<!-- 14631 -->
<g id="node18" class="node">
<title>14631</title>
<path fill="#eba069" stroke="black" d="M983,-296.5C983,-296.5 841,-296.5 841,-296.5 835,-296.5 829,-290.5 829,-284.5 829,-284.5 829,-214.25 829,-214.25 829,-208.25 835,-202.25 841,-202.25 841,-202.25 983,-202.25 983,-202.25 989,-202.25 995,-208.25 995,-214.25 995,-214.25 995,-284.5 995,-284.5 995,-290.5 989,-296.5 983,-296.5"/>
<text text-anchor="middle" x="912" y="-279.2" font-family="Helvetica,sans-Serif" font-size="14.00">25_G &lt;= 0.5</text>
<text text-anchor="middle" x="912" y="-261.95" font-family="Helvetica,sans-Serif" font-size="14.00">entropy = 0.715</text>
<text text-anchor="middle" x="912" y="-244.7" font-family="Helvetica,sans-Serif" font-size="14.00">samples = 3769</text>
<text text-anchor="middle" x="912" y="-227.45" font-family="Helvetica,sans-Serif" font-size="14.00">value = [4790, 1171]</text>
<text text-anchor="middle" x="912" y="-210.2" font-family="Helvetica,sans-Serif" font-size="14.00">class = Animal</text>
</g>
<!-- 14630&#45;&gt;14631 -->
<g id="edge17" class="edge">
<title>14630&#45;&gt;14631</title>
<path fill="none" stroke="black" d="M912,-332.32C912,-324.42 912,-316.13 912,-307.98"/>
<polygon fill="black" stroke="black" points="915.5,-308.12 912,-298.12 908.5,-308.12 915.5,-308.12"/>
</g>
<!-- 16076 -->
<g id="node25" class="node">
<title>16076</title>
<path fill="#f0b68d" stroke="black" d="M1232.5,-296.5C1232.5,-296.5 1099.5,-296.5 1099.5,-296.5 1093.5,-296.5 1087.5,-290.5 1087.5,-284.5 1087.5,-284.5 1087.5,-214.25 1087.5,-214.25 1087.5,-208.25 1093.5,-202.25 1099.5,-202.25 1099.5,-202.25 1232.5,-202.25 1232.5,-202.25 1238.5,-202.25 1244.5,-208.25 1244.5,-214.25 1244.5,-214.25 1244.5,-284.5 1244.5,-284.5 1244.5,-290.5 1238.5,-296.5 1232.5,-296.5"/>
<text text-anchor="middle" x="1166" y="-279.2" font-family="Helvetica,sans-Serif" font-size="14.00">24_G &lt;= 0.5</text>
<text text-anchor="middle" x="1166" y="-261.95" font-family="Helvetica,sans-Serif" font-size="14.00">entropy = 0.877</text>
<text text-anchor="middle" x="1166" y="-244.7" font-family="Helvetica,sans-Serif" font-size="14.00">samples = 1146</text>
<text text-anchor="middle" x="1166" y="-227.45" font-family="Helvetica,sans-Serif" font-size="14.00">value = [1272, 537]</text>
<text text-anchor="middle" x="1166" y="-210.2" font-family="Helvetica,sans-Serif" font-size="14.00">class = Animal</text>
</g>
<!-- 14630&#45;&gt;16076 -->
<g id="edge24" class="edge">
<title>14630&#45;&gt;16076</title>
<path fill="none" stroke="black" d="M995.17,-336.63C1021.47,-323.35 1050.63,-308.63 1077.3,-295.16"/>
<polygon fill="black" stroke="black" points="1078.69,-298.38 1086.04,-290.75 1075.53,-292.13 1078.69,-298.38"/>
</g>
<!-- 14632 -->
<g id="node19" class="node">
<title>14632</title>
<path fill="#eb9e67" stroke="black" d="M909,-166.25C909,-166.25 767,-166.25 767,-166.25 761,-166.25 755,-160.25 755,-154.25 755,-154.25 755,-84 755,-84 755,-78 761,-72 767,-72 767,-72 909,-72 909,-72 915,-72 921,-78 921,-84 921,-84 921,-154.25 921,-154.25 921,-160.25 915,-166.25 909,-166.25"/>
<text text-anchor="middle" x="838" y="-148.95" font-family="Helvetica,sans-Serif" font-size="14.00">24_A &lt;= 0.5</text>
<text text-anchor="middle" x="838" y="-131.7" font-family="Helvetica,sans-Serif" font-size="14.00">entropy = 0.695</text>
<text text-anchor="middle" x="838" y="-114.45" font-family="Helvetica,sans-Serif" font-size="14.00">samples = 3692</text>
<text text-anchor="middle" x="838" y="-97.2" font-family="Helvetica,sans-Serif" font-size="14.00">value = [4753, 1094]</text>
<text text-anchor="middle" x="838" y="-79.95" font-family="Helvetica,sans-Serif" font-size="14.00">class = Animal</text>
</g>
<!-- 14631&#45;&gt;14632 -->
<g id="edge18" class="edge">
<title>14631&#45;&gt;14632</title>
<path fill="none" stroke="black" d="M885.28,-202.07C880.46,-193.72 875.39,-184.93 870.43,-176.33"/>
<polygon fill="black" stroke="black" points="873.46,-174.58 865.43,-167.67 867.4,-178.08 873.46,-174.58"/>
</g>
<!-- 16033 -->
<g id="node22" class="node">
<title>16033</title>
<path fill="#98ccf1" stroke="black" d="M1057.38,-166.25C1057.38,-166.25 950.62,-166.25 950.62,-166.25 944.62,-166.25 938.62,-160.25 938.62,-154.25 938.62,-154.25 938.62,-84 938.62,-84 938.62,-78 944.62,-72 950.62,-72 950.62,-72 1057.38,-72 1057.38,-72 1063.38,-72 1069.38,-78 1069.38,-84 1069.38,-84 1069.38,-154.25 1069.38,-154.25 1069.38,-160.25 1063.38,-166.25 1057.38,-166.25"/>
<text text-anchor="middle" x="1004" y="-148.95" font-family="Helvetica,sans-Serif" font-size="14.00">15_C &lt;= 0.5</text>
<text text-anchor="middle" x="1004" y="-131.7" font-family="Helvetica,sans-Serif" font-size="14.00">entropy = 0.909</text>
<text text-anchor="middle" x="1004" y="-114.45" font-family="Helvetica,sans-Serif" font-size="14.00">samples = 77</text>
<text text-anchor="middle" x="1004" y="-97.2" font-family="Helvetica,sans-Serif" font-size="14.00">value = [37, 77]</text>
<text text-anchor="middle" x="1004" y="-79.95" font-family="Helvetica,sans-Serif" font-size="14.00">class = Plant</text>
</g>
<!-- 14631&#45;&gt;16033 -->
<g id="edge21" class="edge">
<title>14631&#45;&gt;16033</title>
<path fill="none" stroke="black" d="M945.21,-202.07C951.4,-193.45 957.93,-184.35 964.29,-175.49"/>
<polygon fill="black" stroke="black" points="966.97,-177.75 969.95,-167.59 961.28,-173.67 966.97,-177.75"/>
</g>
<!-- 14633 -->
<g id="node20" class="node">
<title>14633</title>
<path fill="#c0c0c0" stroke="black" d="M792,-36C792,-36 762,-36 762,-36 756,-36 750,-30 750,-24 750,-24 750,-12 750,-12 750,-6 756,0 762,0 762,0 792,0 792,0 798,0 804,-6 804,-12 804,-12 804,-24 804,-24 804,-30 798,-36 792,-36"/>
<text text-anchor="middle" x="777" y="-13.32" font-family="Helvetica,sans-Serif" font-size="14.00">(...)</text>
</g>
<!-- 14632&#45;&gt;14633 -->
<g id="edge19" class="edge">
<title>14632&#45;&gt;14633</title>
<path fill="none" stroke="black" d="M809.46,-71.75C803.97,-62.83 798.39,-53.76 793.44,-45.72"/>
<polygon fill="black" stroke="black" points="796.58,-44.14 788.36,-37.46 790.62,-47.81 796.58,-44.14"/>
</g>
<!-- 15962 -->
<g id="node21" class="node">
<title>15962</title>
<path fill="#c0c0c0" stroke="black" d="M864,-36C864,-36 834,-36 834,-36 828,-36 822,-30 822,-24 822,-24 822,-12 822,-12 822,-6 828,0 834,0 834,0 864,0 864,0 870,0 876,-6 876,-12 876,-12 876,-24 876,-24 876,-30 870,-36 864,-36"/>
<text text-anchor="middle" x="849" y="-13.32" font-family="Helvetica,sans-Serif" font-size="14.00">(...)</text>
</g>
<!-- 14632&#45;&gt;15962 -->
<g id="edge20" class="edge">
<title>14632&#45;&gt;15962</title>
<path fill="none" stroke="black" d="M843.15,-71.75C844.06,-63.52 844.99,-55.17 845.82,-47.61"/>
<polygon fill="black" stroke="black" points="849.3,-48 846.93,-37.68 842.35,-47.23 849.3,-48"/>
</g>
<!-- 16034 -->
<g id="node23" class="node">
<title>16034</title>
<path fill="#c0c0c0" stroke="black" d="M956,-36C956,-36 926,-36 926,-36 920,-36 914,-30 914,-24 914,-24 914,-12 914,-12 914,-6 920,0 926,0 926,0 956,0 956,0 962,0 968,-6 968,-12 968,-12 968,-24 968,-24 968,-30 962,-36 956,-36"/>
<text text-anchor="middle" x="941" y="-13.32" font-family="Helvetica,sans-Serif" font-size="14.00">(...)</text>
</g>
<!-- 16033&#45;&gt;16034 -->
<g id="edge22" class="edge">
<title>16033&#45;&gt;16034</title>
<path fill="none" stroke="black" d="M974.53,-71.75C968.85,-62.83 963.09,-53.76 957.98,-45.72"/>
<polygon fill="black" stroke="black" points="961.04,-44.01 952.73,-37.45 955.14,-47.77 961.04,-44.01"/>
</g>
<!-- 16071 -->
<g id="node24" class="node">
<title>16071</title>
<path fill="#c0c0c0" stroke="black" d="M1028,-36C1028,-36 998,-36 998,-36 992,-36 986,-30 986,-24 986,-24 986,-12 986,-12 986,-6 992,0 998,0 998,0 1028,0 1028,0 1034,0 1040,-6 1040,-12 1040,-12 1040,-24 1040,-24 1040,-30 1034,-36 1028,-36"/>
<text text-anchor="middle" x="1013" y="-13.32" font-family="Helvetica,sans-Serif" font-size="14.00">(...)</text>
</g>
<!-- 16033&#45;&gt;16071 -->
<g id="edge23" class="edge">
<title>16033&#45;&gt;16071</title>
<path fill="none" stroke="black" d="M1008.21,-71.75C1008.96,-63.52 1009.72,-55.17 1010.4,-47.61"/>
<polygon fill="black" stroke="black" points="1013.89,-47.96 1011.3,-37.68 1006.91,-47.32 1013.89,-47.96"/>
</g>
<!-- 16077 -->
<g id="node26" class="node">
<title>16077</title>
<path fill="#efb387" stroke="black" d="M1232.5,-166.25C1232.5,-166.25 1099.5,-166.25 1099.5,-166.25 1093.5,-166.25 1087.5,-160.25 1087.5,-154.25 1087.5,-154.25 1087.5,-84 1087.5,-84 1087.5,-78 1093.5,-72 1099.5,-72 1099.5,-72 1232.5,-72 1232.5,-72 1238.5,-72 1244.5,-78 1244.5,-84 1244.5,-84 1244.5,-154.25 1244.5,-154.25 1244.5,-160.25 1238.5,-166.25 1232.5,-166.25"/>
<text text-anchor="middle" x="1166" y="-148.95" font-family="Helvetica,sans-Serif" font-size="14.00">19_C &lt;= 0.5</text>
<text text-anchor="middle" x="1166" y="-131.7" font-family="Helvetica,sans-Serif" font-size="14.00">entropy = 0.86</text>
<text text-anchor="middle" x="1166" y="-114.45" font-family="Helvetica,sans-Serif" font-size="14.00">samples = 1081</text>
<text text-anchor="middle" x="1166" y="-97.2" font-family="Helvetica,sans-Serif" font-size="14.00">value = [1227, 485]</text>
<text text-anchor="middle" x="1166" y="-79.95" font-family="Helvetica,sans-Serif" font-size="14.00">class = Animal</text>
</g>
<!-- 16076&#45;&gt;16077 -->
<g id="edge25" class="edge">
<title>16076&#45;&gt;16077</title>
<path fill="none" stroke="black" d="M1166,-202.07C1166,-194.17 1166,-185.88 1166,-177.73"/>
<polygon fill="black" stroke="black" points="1169.5,-177.87 1166,-167.87 1162.5,-177.87 1169.5,-177.87"/>
</g>
<!-- 16574 -->
<g id="node29" class="node">
<title>16574</title>
<path fill="#e4f2fc" stroke="black" d="M1381.38,-166.25C1381.38,-166.25 1274.62,-166.25 1274.62,-166.25 1268.62,-166.25 1262.62,-160.25 1262.62,-154.25 1262.62,-154.25 1262.62,-84 1262.62,-84 1262.62,-78 1268.62,-72 1274.62,-72 1274.62,-72 1381.38,-72 1381.38,-72 1387.38,-72 1393.38,-78 1393.38,-84 1393.38,-84 1393.38,-154.25 1393.38,-154.25 1393.38,-160.25 1387.38,-166.25 1381.38,-166.25"/>
<text text-anchor="middle" x="1328" y="-148.95" font-family="Helvetica,sans-Serif" font-size="14.00">15_A &lt;= 0.5</text>
<text text-anchor="middle" x="1328" y="-131.7" font-family="Helvetica,sans-Serif" font-size="14.00">entropy = 0.996</text>
<text text-anchor="middle" x="1328" y="-114.45" font-family="Helvetica,sans-Serif" font-size="14.00">samples = 65</text>
<text text-anchor="middle" x="1328" y="-97.2" font-family="Helvetica,sans-Serif" font-size="14.00">value = [45, 52]</text>
<text text-anchor="middle" x="1328" y="-79.95" font-family="Helvetica,sans-Serif" font-size="14.00">class = Plant</text>
</g>
<!-- 16076&#45;&gt;16574 -->
<g id="edge28" class="edge">
<title>16076&#45;&gt;16574</title>
<path fill="none" stroke="black" d="M1224.49,-202.07C1236.11,-192.87 1248.41,-183.13 1260.32,-173.71"/>
<polygon fill="black" stroke="black" points="1262.47,-176.46 1268.14,-167.51 1258.13,-170.98 1262.47,-176.46"/>
</g>
<!-- 16078 -->
<g id="node27" class="node">
<title>16078</title>
<path fill="#c0c0c0" stroke="black" d="M1136,-36C1136,-36 1106,-36 1106,-36 1100,-36 1094,-30 1094,-24 1094,-24 1094,-12 1094,-12 1094,-6 1100,0 1106,0 1106,0 1136,0 1136,0 1142,0 1148,-6 1148,-12 1148,-12 1148,-24 1148,-24 1148,-30 1142,-36 1136,-36"/>
<text text-anchor="middle" x="1121" y="-13.32" font-family="Helvetica,sans-Serif" font-size="14.00">(...)</text>
</g>
<!-- 16077&#45;&gt;16078 -->
<g id="edge26" class="edge">
<title>16077&#45;&gt;16078</title>
<path fill="none" stroke="black" d="M1144.95,-71.75C1141.03,-63.12 1137.05,-54.36 1133.5,-46.53"/>
<polygon fill="black" stroke="black" points="1136.74,-45.21 1129.42,-37.55 1130.37,-48.1 1136.74,-45.21"/>
</g>
<!-- 16465 -->
<g id="node28" class="node">
<title>16465</title>
<path fill="#c0c0c0" stroke="black" d="M1208,-36C1208,-36 1178,-36 1178,-36 1172,-36 1166,-30 1166,-24 1166,-24 1166,-12 1166,-12 1166,-6 1172,0 1178,0 1178,0 1208,0 1208,0 1214,0 1220,-6 1220,-12 1220,-12 1220,-24 1220,-24 1220,-30 1214,-36 1208,-36"/>
<text text-anchor="middle" x="1193" y="-13.32" font-family="Helvetica,sans-Serif" font-size="14.00">(...)</text>
</g>
<!-- 16077&#45;&gt;16465 -->
<g id="edge27" class="edge">
<title>16077&#45;&gt;16465</title>
<path fill="none" stroke="black" d="M1178.63,-71.75C1180.93,-63.32 1183.26,-54.77 1185.35,-47.07"/>
<polygon fill="black" stroke="black" points="1188.67,-48.2 1187.92,-37.63 1181.92,-46.36 1188.67,-48.2"/>
</g>
<!-- 16575 -->
<g id="node30" class="node">
<title>16575</title>
<path fill="#c0c0c0" stroke="black" d="M1307,-36C1307,-36 1277,-36 1277,-36 1271,-36 1265,-30 1265,-24 1265,-24 1265,-12 1265,-12 1265,-6 1271,0 1277,0 1277,0 1307,0 1307,0 1313,0 1319,-6 1319,-12 1319,-12 1319,-24 1319,-24 1319,-30 1313,-36 1307,-36"/>
<text text-anchor="middle" x="1292" y="-13.32" font-family="Helvetica,sans-Serif" font-size="14.00">(...)</text>
</g>
<!-- 16574&#45;&gt;16575 -->
<g id="edge29" class="edge">
<title>16574&#45;&gt;16575</title>
<path fill="none" stroke="black" d="M1311.16,-71.75C1308.06,-63.22 1304.92,-54.57 1302.1,-46.8"/>
<polygon fill="black" stroke="black" points="1305.46,-45.8 1298.75,-37.6 1298.88,-48.19 1305.46,-45.8"/>
</g>
<!-- 16592 -->
<g id="node31" class="node">
<title>16592</title>
<path fill="#c0c0c0" stroke="black" d="M1379,-36C1379,-36 1349,-36 1349,-36 1343,-36 1337,-30 1337,-24 1337,-24 1337,-12 1337,-12 1337,-6 1343,0 1349,0 1349,0 1379,0 1379,0 1385,0 1391,-6 1391,-12 1391,-12 1391,-24 1391,-24 1391,-30 1385,-36 1379,-36"/>
<text text-anchor="middle" x="1364" y="-13.32" font-family="Helvetica,sans-Serif" font-size="14.00">(...)</text>
</g>
<!-- 16574&#45;&gt;16592 -->
<g id="edge30" class="edge">
<title>16574&#45;&gt;16592</title>
<path fill="none" stroke="black" d="M1344.84,-71.75C1347.94,-63.22 1351.08,-54.57 1353.9,-46.8"/>
<polygon fill="black" stroke="black" points="1357.12,-48.19 1357.25,-37.6 1350.54,-45.8 1357.12,-48.19"/>
</g>
</g>
</svg>
