<?xml version="1.0" encoding="UTF-8" standalone="no"?>
<!DOCTYPE svg PUBLIC "-//W3C//DTD SVG 1.1//EN"
 "http://www.w3.org/Graphics/SVG/1.1/DTD/svg11.dtd">
<!-- Generated by graphviz version 12.0.0 (20240803.0821)
 -->
<!-- Title: Tree Pages: 1 -->
<svg width="1436pt" height="565pt"
 viewBox="0.00 0.00 1436.00 565.00" xmlns="http://www.w3.org/2000/svg" xmlns:xlink="http://www.w3.org/1999/xlink">
<g id="graph0" class="graph" transform="scale(1 1) rotate(0) translate(4 561)">
<title>Tree</title>
<polygon fill="white" stroke="none" points="-4,4 -4,-561 1432,-561 1432,4 -4,4"/>
<!-- 0 -->
<g id="node1" class="node">
<title>0</title>
<path fill="#fffefe" stroke="black" d="M791,-557C791,-557 631,-557 631,-557 625,-557 619,-551 619,-545 619,-545 619,-474.75 619,-474.75 619,-468.75 625,-462.75 631,-462.75 631,-462.75 791,-462.75 791,-462.75 797,-462.75 803,-468.75 803,-474.75 803,-474.75 803,-545 803,-545 803,-551 797,-557 791,-557"/>
<text text-anchor="middle" x="711" y="-539.7" font-family="Helvetica,sans-Serif" font-size="14.00">9_U &lt;= 0.5</text>
<text text-anchor="middle" x="711" y="-522.45" font-family="Helvetica,sans-Serif" font-size="14.00">entropy = 1.0</text>
<text text-anchor="middle" x="711" y="-505.2" font-family="Helvetica,sans-Serif" font-size="14.00">samples = 38090</text>
<text text-anchor="middle" x="711" y="-487.95" font-family="Helvetica,sans-Serif" font-size="14.00">value = [30240, 30105]</text>
<text text-anchor="middle" x="711" y="-470.7" font-family="Helvetica,sans-Serif" font-size="14.00">class = Animal</text>
</g>
<!-- 1 -->
<g id="node2" class="node">
<title>1</title>
<path fill="#ddeefb" stroke="black" d="M625,-426.75C625,-426.75 465,-426.75 465,-426.75 459,-426.75 453,-420.75 453,-414.75 453,-414.75 453,-344.5 453,-344.5 453,-338.5 459,-332.5 465,-332.5 465,-332.5 625,-332.5 625,-332.5 631,-332.5 637,-338.5 637,-344.5 637,-344.5 637,-414.75 637,-414.75 637,-420.75 631,-426.75 625,-426.75"/>
<text text-anchor="middle" x="545" y="-409.45" font-family="Helvetica,sans-Serif" font-size="14.00">19_U &lt;= 0.5</text>
<text text-anchor="middle" x="545" y="-392.2" font-family="Helvetica,sans-Serif" font-size="14.00">entropy = 0.994</text>
<text text-anchor="middle" x="545" y="-374.95" font-family="Helvetica,sans-Serif" font-size="14.00">samples = 27384</text>
<text text-anchor="middle" x="545" y="-357.7" font-family="Helvetica,sans-Serif" font-size="14.00">value = [19652, 23735]</text>
<text text-anchor="middle" x="545" y="-340.45" font-family="Helvetica,sans-Serif" font-size="14.00">class = Plant</text>
</g>
<!-- 0&#45;&gt;1 -->
<g id="edge1" class="edge">
<title>0&#45;&gt;1</title>
<path fill="none" stroke="black" d="M651.07,-462.57C639.04,-453.28 626.3,-443.44 613.99,-433.93"/>
<polygon fill="black" stroke="black" points="616.37,-431.34 606.32,-428 612.09,-436.88 616.37,-431.34"/>
<text text-anchor="middle" x="608.3" y="-447.2" font-family="Helvetica,sans-Serif" font-size="14.00">True</text>
</g>
<!-- 12060 -->
<g id="node17" class="node">
<title>12060</title>
<path fill="#f5cdb0" stroke="black" d="M978.5,-426.75C978.5,-426.75 827.5,-426.75 827.5,-426.75 821.5,-426.75 815.5,-420.75 815.5,-414.75 815.5,-414.75 815.5,-344.5 815.5,-344.5 815.5,-338.5 821.5,-332.5 827.5,-332.5 827.5,-332.5 978.5,-332.5 978.5,-332.5 984.5,-332.5 990.5,-338.5 990.5,-344.5 990.5,-344.5 990.5,-414.75 990.5,-414.75 990.5,-420.75 984.5,-426.75 978.5,-426.75"/>
<text text-anchor="middle" x="903" y="-409.45" font-family="Helvetica,sans-Serif" font-size="14.00">20_C &lt;= 0.5</text>
<text text-anchor="middle" x="903" y="-392.2" font-family="Helvetica,sans-Serif" font-size="14.00">entropy = 0.955</text>
<text text-anchor="middle" x="903" y="-374.95" font-family="Helvetica,sans-Serif" font-size="14.00">samples = 10706</text>
<text text-anchor="middle" x="903" y="-357.7" font-family="Helvetica,sans-Serif" font-size="14.00">value = [10588, 6370]</text>
<text text-anchor="middle" x="903" y="-340.45" font-family="Helvetica,sans-Serif" font-size="14.00">class = Animal</text>
</g>
<!-- 0&#45;&gt;12060 -->
<g id="edge16" class="edge">
<title>0&#45;&gt;12060</title>
<path fill="none" stroke="black" d="M780.59,-462.39C794.67,-452.98 809.58,-443.03 823.97,-433.42"/>
<polygon fill="black" stroke="black" points="825.7,-436.47 832.07,-428 821.81,-430.65 825.7,-436.47"/>
<text text-anchor="middle" x="828.45" y="-447.01" font-family="Helvetica,sans-Serif" font-size="14.00">False</text>
</g>
<!-- 2 -->
<g id="node3" class="node">
<title>2</title>
<path fill="#c0e0f7" stroke="black" d="M365,-296.5C365,-296.5 205,-296.5 205,-296.5 199,-296.5 193,-290.5 193,-284.5 193,-284.5 193,-214.25 193,-214.25 193,-208.25 199,-202.25 205,-202.25 205,-202.25 365,-202.25 365,-202.25 371,-202.25 377,-208.25 377,-214.25 377,-214.25 377,-284.5 377,-284.5 377,-290.5 371,-296.5 365,-296.5"/>
<text text-anchor="middle" x="285" y="-279.2" font-family="Helvetica,sans-Serif" font-size="14.00">22_A &lt;= 0.5</text>
<text text-anchor="middle" x="285" y="-261.95" font-family="Helvetica,sans-Serif" font-size="14.00">entropy = 0.974</text>
<text text-anchor="middle" x="285" y="-244.7" font-family="Helvetica,sans-Serif" font-size="14.00">samples = 21251</text>
<text text-anchor="middle" x="285" y="-227.45" font-family="Helvetica,sans-Serif" font-size="14.00">value = [13621, 19998]</text>
<text text-anchor="middle" x="285" y="-210.2" font-family="Helvetica,sans-Serif" font-size="14.00">class = Plant</text>
</g>
<!-- 1&#45;&gt;2 -->
<g id="edge2" class="edge">
<title>1&#45;&gt;2</title>
<path fill="none" stroke="black" d="M452.6,-333.05C431.43,-322.61 408.81,-311.45 387.25,-300.81"/>
<polygon fill="black" stroke="black" points="388.97,-297.76 378.46,-296.48 385.88,-304.04 388.97,-297.76"/>
</g>
<!-- 8945 -->
<g id="node10" class="node">
<title>8945</title>
<path fill="#f5cfb4" stroke="black" d="M616,-296.5C616,-296.5 474,-296.5 474,-296.5 468,-296.5 462,-290.5 462,-284.5 462,-284.5 462,-214.25 462,-214.25 462,-208.25 468,-202.25 474,-202.25 474,-202.25 616,-202.25 616,-202.25 622,-202.25 628,-208.25 628,-214.25 628,-214.25 628,-284.5 628,-284.5 628,-290.5 622,-296.5 616,-296.5"/>
<text text-anchor="middle" x="545" y="-279.2" font-family="Helvetica,sans-Serif" font-size="14.00">23_U &lt;= 0.5</text>
<text text-anchor="middle" x="545" y="-261.95" font-family="Helvetica,sans-Serif" font-size="14.00">entropy = 0.96</text>
<text text-anchor="middle" x="545" y="-244.7" font-family="Helvetica,sans-Serif" font-size="14.00">samples = 6133</text>
<text text-anchor="middle" x="545" y="-227.45" font-family="Helvetica,sans-Serif" font-size="14.00">value = [6031, 3737]</text>
<text text-anchor="middle" x="545" y="-210.2" font-family="Helvetica,sans-Serif" font-size="14.00">class = Animal</text>
</g>
<!-- 1&#45;&gt;8945 -->
<g id="edge9" class="edge">
<title>1&#45;&gt;8945</title>
<path fill="none" stroke="black" d="M545,-332.32C545,-324.42 545,-316.13 545,-307.98"/>
<polygon fill="black" stroke="black" points="548.5,-308.12 545,-298.12 541.5,-308.12 548.5,-308.12"/>
</g>
<!-- 3 -->
<g id="node4" class="node">
<title>3</title>
<path fill="#b1d8f5" stroke="black" d="M172,-166.25C172,-166.25 12,-166.25 12,-166.25 6,-166.25 0,-160.25 0,-154.25 0,-154.25 0,-84 0,-84 0,-78 6,-72 12,-72 12,-72 172,-72 172,-72 178,-72 184,-78 184,-84 184,-84 184,-154.25 184,-154.25 184,-160.25 178,-166.25 172,-166.25"/>
<text text-anchor="middle" x="92" y="-148.95" font-family="Helvetica,sans-Serif" font-size="14.00">8_C &lt;= 0.5</text>
<text text-anchor="middle" x="92" y="-131.7" font-family="Helvetica,sans-Serif" font-size="14.00">entropy = 0.956</text>
<text text-anchor="middle" x="92" y="-114.45" font-family="Helvetica,sans-Serif" font-size="14.00">samples = 19104</text>
<text text-anchor="middle" x="92" y="-97.2" font-family="Helvetica,sans-Serif" font-size="14.00">value = [11408, 18855]</text>
<text text-anchor="middle" x="92" y="-79.95" font-family="Helvetica,sans-Serif" font-size="14.00">class = Plant</text>
</g>
<!-- 2&#45;&gt;3 -->
<g id="edge3" class="edge">
<title>2&#45;&gt;3</title>
<path fill="none" stroke="black" d="M215.05,-201.89C200.89,-192.48 185.9,-182.53 171.45,-172.92"/>
<polygon fill="black" stroke="black" points="173.56,-170.12 163.3,-167.5 169.69,-175.95 173.56,-170.12"/>
</g>
<!-- 7864 -->
<g id="node7" class="node">
<title>7864</title>
<path fill="#f2c29f" stroke="black" d="M356,-166.25C356,-166.25 214,-166.25 214,-166.25 208,-166.25 202,-160.25 202,-154.25 202,-154.25 202,-84 202,-84 202,-78 208,-72 214,-72 214,-72 356,-72 356,-72 362,-72 368,-78 368,-84 368,-84 368,-154.25 368,-154.25 368,-160.25 362,-166.25 356,-166.25"/>
<text text-anchor="middle" x="285" y="-148.95" font-family="Helvetica,sans-Serif" font-size="14.00">13_G &lt;= 0.5</text>
<text text-anchor="middle" x="285" y="-131.7" font-family="Helvetica,sans-Serif" font-size="14.00">entropy = 0.925</text>
<text text-anchor="middle" x="285" y="-114.45" font-family="Helvetica,sans-Serif" font-size="14.00">samples = 2147</text>
<text text-anchor="middle" x="285" y="-97.2" font-family="Helvetica,sans-Serif" font-size="14.00">value = [2213, 1143]</text>
<text text-anchor="middle" x="285" y="-79.95" font-family="Helvetica,sans-Serif" font-size="14.00">class = Animal</text>
</g>
<!-- 2&#45;&gt;7864 -->
<g id="edge6" class="edge">
<title>2&#45;&gt;7864</title>
<path fill="none" stroke="black" d="M285,-202.07C285,-194.17 285,-185.88 285,-177.73"/>
<polygon fill="black" stroke="black" points="288.5,-177.87 285,-167.87 281.5,-177.87 288.5,-177.87"/>
</g>
<!-- 4 -->
<g id="node5" class="node">
<title>4</title>
<path fill="#c0c0c0" stroke="black" d="M71,-36C71,-36 41,-36 41,-36 35,-36 29,-30 29,-24 29,-24 29,-12 29,-12 29,-6 35,0 41,0 41,0 71,0 71,0 77,0 83,-6 83,-12 83,-12 83,-24 83,-24 83,-30 77,-36 71,-36"/>
<text text-anchor="middle" x="56" y="-13.32" font-family="Helvetica,sans-Serif" font-size="14.00">(...)</text>
</g>
<!-- 3&#45;&gt;4 -->
<g id="edge4" class="edge">
<title>3&#45;&gt;4</title>
<path fill="none" stroke="black" d="M75.16,-71.75C72.06,-63.22 68.92,-54.57 66.1,-46.8"/>
<polygon fill="black" stroke="black" points="69.46,-45.8 62.75,-37.6 62.88,-48.19 69.46,-45.8"/>
</g>
<!-- 6221 -->
<g id="node6" class="node">
<title>6221</title>
<path fill="#c0c0c0" stroke="black" d="M143,-36C143,-36 113,-36 113,-36 107,-36 101,-30 101,-24 101,-24 101,-12 101,-12 101,-6 107,0 113,0 113,0 143,0 143,0 149,0 155,-6 155,-12 155,-12 155,-24 155,-24 155,-30 149,-36 143,-36"/>
<text text-anchor="middle" x="128" y="-13.32" font-family="Helvetica,sans-Serif" font-size="14.00">(...)</text>
</g>
<!-- 3&#45;&gt;6221 -->
<g id="edge5" class="edge">
<title>3&#45;&gt;6221</title>
<path fill="none" stroke="black" d="M108.84,-71.75C111.94,-63.22 115.08,-54.57 117.9,-46.8"/>
<polygon fill="black" stroke="black" points="121.12,-48.19 121.25,-37.6 114.54,-45.8 121.12,-48.19"/>
</g>
<!-- 7865 -->
<g id="node8" class="node">
<title>7865</title>
<path fill="#c0c0c0" stroke="black" d="M261,-36C261,-36 231,-36 231,-36 225,-36 219,-30 219,-24 219,-24 219,-12 219,-12 219,-6 225,0 231,0 231,0 261,0 261,0 267,0 273,-6 273,-12 273,-12 273,-24 273,-24 273,-30 267,-36 261,-36"/>
<text text-anchor="middle" x="246" y="-13.32" font-family="Helvetica,sans-Serif" font-size="14.00">(...)</text>
</g>
<!-- 7864&#45;&gt;7865 -->
<g id="edge7" class="edge">
<title>7864&#45;&gt;7865</title>
<path fill="none" stroke="black" d="M266.76,-71.75C263.4,-63.22 259.99,-54.57 256.94,-46.8"/>
<polygon fill="black" stroke="black" points="260.23,-45.61 253.31,-37.58 253.71,-48.17 260.23,-45.61"/>
</g>
<!-- 8634 -->
<g id="node9" class="node">
<title>8634</title>
<path fill="#c0c0c0" stroke="black" d="M333,-36C333,-36 303,-36 303,-36 297,-36 291,-30 291,-24 291,-24 291,-12 291,-12 291,-6 297,0 303,0 303,0 333,0 333,0 339,0 345,-6 345,-12 345,-12 345,-24 345,-24 345,-30 339,-36 333,-36"/>
<text text-anchor="middle" x="318" y="-13.32" font-family="Helvetica,sans-Serif" font-size="14.00">(...)</text>
</g>
<!-- 7864&#45;&gt;8634 -->
<g id="edge8" class="edge">
<title>7864&#45;&gt;8634</title>
<path fill="none" stroke="black" d="M300.44,-71.75C303.24,-63.32 306.09,-54.77 308.66,-47.07"/>
<polygon fill="black" stroke="black" points="311.97,-48.2 311.8,-37.61 305.33,-45.99 311.97,-48.2"/>
</g>
<!-- 8946 -->
<g id="node11" class="node">
<title>8946</title>
<path fill="#f6d3bb" stroke="black" d="M540,-166.25C540,-166.25 398,-166.25 398,-166.25 392,-166.25 386,-160.25 386,-154.25 386,-154.25 386,-84 386,-84 386,-78 392,-72 398,-72 398,-72 540,-72 540,-72 546,-72 552,-78 552,-84 552,-84 552,-154.25 552,-154.25 552,-160.25 546,-166.25 540,-166.25"/>
<text text-anchor="middle" x="469" y="-148.95" font-family="Helvetica,sans-Serif" font-size="14.00">22_U &lt;= 0.5</text>
<text text-anchor="middle" x="469" y="-131.7" font-family="Helvetica,sans-Serif" font-size="14.00">entropy = 0.968</text>
<text text-anchor="middle" x="469" y="-114.45" font-family="Helvetica,sans-Serif" font-size="14.00">samples = 5787</text>
<text text-anchor="middle" x="469" y="-97.2" font-family="Helvetica,sans-Serif" font-size="14.00">value = [5564, 3643]</text>
<text text-anchor="middle" x="469" y="-79.95" font-family="Helvetica,sans-Serif" font-size="14.00">class = Animal</text>
</g>
<!-- 8945&#45;&gt;8946 -->
<g id="edge10" class="edge">
<title>8945&#45;&gt;8946</title>
<path fill="none" stroke="black" d="M517.56,-202.07C512.56,-193.63 507.29,-184.74 502.14,-176.05"/>
<polygon fill="black" stroke="black" points="505.28,-174.48 497.17,-167.66 499.26,-178.05 505.28,-174.48"/>
</g>
<!-- 11893 -->
<g id="node14" class="node">
<title>11893</title>
<path fill="#ea9a61" stroke="black" d="M697.5,-166.25C697.5,-166.25 582.5,-166.25 582.5,-166.25 576.5,-166.25 570.5,-160.25 570.5,-154.25 570.5,-154.25 570.5,-84 570.5,-84 570.5,-78 576.5,-72 582.5,-72 582.5,-72 697.5,-72 697.5,-72 703.5,-72 709.5,-78 709.5,-84 709.5,-84 709.5,-154.25 709.5,-154.25 709.5,-160.25 703.5,-166.25 697.5,-166.25"/>
<text text-anchor="middle" x="640" y="-148.95" font-family="Helvetica,sans-Serif" font-size="14.00">20_C &lt;= 0.5</text>
<text text-anchor="middle" x="640" y="-131.7" font-family="Helvetica,sans-Serif" font-size="14.00">entropy = 0.652</text>
<text text-anchor="middle" x="640" y="-114.45" font-family="Helvetica,sans-Serif" font-size="14.00">samples = 346</text>
<text text-anchor="middle" x="640" y="-97.2" font-family="Helvetica,sans-Serif" font-size="14.00">value = [467, 94]</text>
<text text-anchor="middle" x="640" y="-79.95" font-family="Helvetica,sans-Serif" font-size="14.00">class = Animal</text>
</g>
<!-- 8945&#45;&gt;11893 -->
<g id="edge13" class="edge">
<title>8945&#45;&gt;11893</title>
<path fill="none" stroke="black" d="M579.3,-202.07C585.69,-193.45 592.42,-184.35 598.99,-175.49"/>
<polygon fill="black" stroke="black" points="601.71,-177.69 604.85,-167.57 596.09,-173.53 601.71,-177.69"/>
</g>
<!-- 8947 -->
<g id="node12" class="node">
<title>8947</title>
<path fill="#c0c0c0" stroke="black" d="M425,-36C425,-36 395,-36 395,-36 389,-36 383,-30 383,-24 383,-24 383,-12 383,-12 383,-6 389,0 395,0 395,0 425,0 425,0 431,0 437,-6 437,-12 437,-12 437,-24 437,-24 437,-30 431,-36 425,-36"/>
<text text-anchor="middle" x="410" y="-13.32" font-family="Helvetica,sans-Serif" font-size="14.00">(...)</text>
</g>
<!-- 8946&#45;&gt;8947 -->
<g id="edge11" class="edge">
<title>8946&#45;&gt;8947</title>
<path fill="none" stroke="black" d="M441.4,-71.75C436.15,-62.93 430.81,-53.96 426.06,-45.99"/>
<polygon fill="black" stroke="black" points="429.12,-44.28 421,-37.47 423.1,-47.86 429.12,-44.28"/>
</g>
<!-- 11606 -->
<g id="node13" class="node">
<title>11606</title>
<path fill="#c0c0c0" stroke="black" d="M497,-36C497,-36 467,-36 467,-36 461,-36 455,-30 455,-24 455,-24 455,-12 455,-12 455,-6 461,0 467,0 467,0 497,0 497,0 503,0 509,-6 509,-12 509,-12 509,-24 509,-24 509,-30 503,-36 497,-36"/>
<text text-anchor="middle" x="482" y="-13.32" font-family="Helvetica,sans-Serif" font-size="14.00">(...)</text>
</g>
<!-- 8946&#45;&gt;11606 -->
<g id="edge12" class="edge">
<title>8946&#45;&gt;11606</title>
<path fill="none" stroke="black" d="M475.08,-71.75C476.17,-63.42 477.28,-54.97 478.28,-47.34"/>
<polygon fill="black" stroke="black" points="481.72,-48.04 479.55,-37.67 474.78,-47.13 481.72,-48.04"/>
</g>
<!-- 11894 -->
<g id="node15" class="node">
<title>11894</title>
<path fill="#c0c0c0" stroke="black" d="M596,-36C596,-36 566,-36 566,-36 560,-36 554,-30 554,-24 554,-24 554,-12 554,-12 554,-6 560,0 566,0 566,0 596,0 596,0 602,0 608,-6 608,-12 608,-12 608,-24 608,-24 608,-30 602,-36 596,-36"/>
<text text-anchor="middle" x="581" y="-13.32" font-family="Helvetica,sans-Serif" font-size="14.00">(...)</text>
</g>
<!-- 11893&#45;&gt;11894 -->
<g id="edge14" class="edge">
<title>11893&#45;&gt;11894</title>
<path fill="none" stroke="black" d="M612.4,-71.75C607.15,-62.93 601.81,-53.96 597.06,-45.99"/>
<polygon fill="black" stroke="black" points="600.12,-44.28 592,-37.47 594.1,-47.86 600.12,-44.28"/>
</g>
<!-- 12001 -->
<g id="node16" class="node">
<title>12001</title>
<path fill="#c0c0c0" stroke="black" d="M668,-36C668,-36 638,-36 638,-36 632,-36 626,-30 626,-24 626,-24 626,-12 626,-12 626,-6 632,0 638,0 638,0 668,0 668,0 674,0 680,-6 680,-12 680,-12 680,-24 680,-24 680,-30 674,-36 668,-36"/>
<text text-anchor="middle" x="653" y="-13.32" font-family="Helvetica,sans-Serif" font-size="14.00">(...)</text>
</g>
<!-- 11893&#45;&gt;12001 -->
<g id="edge15" class="edge">
<title>11893&#45;&gt;12001</title>
<path fill="none" stroke="black" d="M646.08,-71.75C647.17,-63.42 648.28,-54.97 649.28,-47.34"/>
<polygon fill="black" stroke="black" points="652.72,-48.04 650.55,-37.67 645.78,-47.13 652.72,-48.04"/>
</g>
<!-- 12061 -->
<g id="node18" class="node">
<title>12061</title>
<path fill="#f2be99" stroke="black" d="M974,-296.5C974,-296.5 832,-296.5 832,-296.5 826,-296.5 820,-290.5 820,-284.5 820,-284.5 820,-214.25 820,-214.25 820,-208.25 826,-202.25 832,-202.25 832,-202.25 974,-202.25 974,-202.25 980,-202.25 986,-208.25 986,-214.25 986,-214.25 986,-284.5 986,-284.5 986,-290.5 980,-296.5 974,-296.5"/>
<text text-anchor="middle" x="903" y="-279.2" font-family="Helvetica,sans-Serif" font-size="14.00">8_G &lt;= 0.5</text>
<text text-anchor="middle" x="903" y="-261.95" font-family="Helvetica,sans-Serif" font-size="14.00">entropy = 0.912</text>
<text text-anchor="middle" x="903" y="-244.7" font-family="Helvetica,sans-Serif" font-size="14.00">samples = 8171</text>
<text text-anchor="middle" x="903" y="-227.45" font-family="Helvetica,sans-Serif" font-size="14.00">value = [8689, 4230]</text>
<text text-anchor="middle" x="903" y="-210.2" font-family="Helvetica,sans-Serif" font-size="14.00">class = Animal</text>
</g>
<!-- 12060&#45;&gt;12061 -->
<g id="edge17" class="edge">
<title>12060&#45;&gt;12061</title>
<path fill="none" stroke="black" d="M903,-332.32C903,-324.42 903,-316.13 903,-307.98"/>
<polygon fill="black" stroke="black" points="906.5,-308.12 903,-298.12 899.5,-308.12 906.5,-308.12"/>
</g>
<!-- 15842 -->
<g id="node25" class="node">
<title>15842</title>
<path fill="#e9f4fc" stroke="black" d="M1250,-296.5C1250,-296.5 1108,-296.5 1108,-296.5 1102,-296.5 1096,-290.5 1096,-284.5 1096,-284.5 1096,-214.25 1096,-214.25 1096,-208.25 1102,-202.25 1108,-202.25 1108,-202.25 1250,-202.25 1250,-202.25 1256,-202.25 1262,-208.25 1262,-214.25 1262,-214.25 1262,-284.5 1262,-284.5 1262,-290.5 1256,-296.5 1250,-296.5"/>
<text text-anchor="middle" x="1179" y="-279.2" font-family="Helvetica,sans-Serif" font-size="14.00">8_C &lt;= 0.5</text>
<text text-anchor="middle" x="1179" y="-261.95" font-family="Helvetica,sans-Serif" font-size="14.00">entropy = 0.997</text>
<text text-anchor="middle" x="1179" y="-244.7" font-family="Helvetica,sans-Serif" font-size="14.00">samples = 2535</text>
<text text-anchor="middle" x="1179" y="-227.45" font-family="Helvetica,sans-Serif" font-size="14.00">value = [1899, 2140]</text>
<text text-anchor="middle" x="1179" y="-210.2" font-family="Helvetica,sans-Serif" font-size="14.00">class = Plant</text>
</g>
<!-- 12060&#45;&gt;15842 -->
<g id="edge24" class="edge">
<title>12060&#45;&gt;15842</title>
<path fill="none" stroke="black" d="M990.71,-337.87C1020.91,-323.83 1054.84,-308.07 1085.5,-293.82"/>
<polygon fill="black" stroke="black" points="1086.79,-297.08 1094.38,-289.69 1083.84,-290.73 1086.79,-297.08"/>
</g>
<!-- 12062 -->
<g id="node19" class="node">
<title>12062</title>
<path fill="#efaf82" stroke="black" d="M882,-166.25C882,-166.25 740,-166.25 740,-166.25 734,-166.25 728,-160.25 728,-154.25 728,-154.25 728,-84 728,-84 728,-78 734,-72 740,-72 740,-72 882,-72 882,-72 888,-72 894,-78 894,-84 894,-84 894,-154.25 894,-154.25 894,-160.25 888,-166.25 882,-166.25"/>
<text text-anchor="middle" x="811" y="-148.95" font-family="Helvetica,sans-Serif" font-size="14.00">22_A &lt;= 0.5</text>
<text text-anchor="middle" x="811" y="-131.7" font-family="Helvetica,sans-Serif" font-size="14.00">entropy = 0.839</text>
<text text-anchor="middle" x="811" y="-114.45" font-family="Helvetica,sans-Serif" font-size="14.00">samples = 5659</text>
<text text-anchor="middle" x="811" y="-97.2" font-family="Helvetica,sans-Serif" font-size="14.00">value = [6543, 2403]</text>
<text text-anchor="middle" x="811" y="-79.95" font-family="Helvetica,sans-Serif" font-size="14.00">class = Animal</text>
</g>
<!-- 12061&#45;&gt;12062 -->
<g id="edge18" class="edge">
<title>12061&#45;&gt;12062</title>
<path fill="none" stroke="black" d="M869.79,-202.07C863.6,-193.45 857.07,-184.35 850.71,-175.49"/>
<polygon fill="black" stroke="black" points="853.72,-173.67 845.05,-167.59 848.03,-177.75 853.72,-173.67"/>
</g>
<!-- 14813 -->
<g id="node22" class="node">
<title>14813</title>
<path fill="#fbece2" stroke="black" d="M1066,-166.25C1066,-166.25 924,-166.25 924,-166.25 918,-166.25 912,-160.25 912,-154.25 912,-154.25 912,-84 912,-84 912,-78 918,-72 924,-72 924,-72 1066,-72 1066,-72 1072,-72 1078,-78 1078,-84 1078,-84 1078,-154.25 1078,-154.25 1078,-160.25 1072,-166.25 1066,-166.25"/>
<text text-anchor="middle" x="995" y="-148.95" font-family="Helvetica,sans-Serif" font-size="14.00">22_U &lt;= 0.5</text>
<text text-anchor="middle" x="995" y="-131.7" font-family="Helvetica,sans-Serif" font-size="14.00">entropy = 0.995</text>
<text text-anchor="middle" x="995" y="-114.45" font-family="Helvetica,sans-Serif" font-size="14.00">samples = 2512</text>
<text text-anchor="middle" x="995" y="-97.2" font-family="Helvetica,sans-Serif" font-size="14.00">value = [2146, 1827]</text>
<text text-anchor="middle" x="995" y="-79.95" font-family="Helvetica,sans-Serif" font-size="14.00">class = Animal</text>
</g>
<!-- 12061&#45;&gt;14813 -->
<g id="edge21" class="edge">
<title>12061&#45;&gt;14813</title>
<path fill="none" stroke="black" d="M936.21,-202.07C942.4,-193.45 948.93,-184.35 955.29,-175.49"/>
<polygon fill="black" stroke="black" points="957.97,-177.75 960.95,-167.59 952.28,-173.67 957.97,-177.75"/>
</g>
<!-- 12063 -->
<g id="node20" class="node">
<title>12063</title>
<path fill="#c0c0c0" stroke="black" d="M774,-36C774,-36 744,-36 744,-36 738,-36 732,-30 732,-24 732,-24 732,-12 732,-12 732,-6 738,0 744,0 744,0 774,0 774,0 780,0 786,-6 786,-12 786,-12 786,-24 786,-24 786,-30 780,-36 774,-36"/>
<text text-anchor="middle" x="759" y="-13.32" font-family="Helvetica,sans-Serif" font-size="14.00">(...)</text>
</g>
<!-- 12062&#45;&gt;12063 -->
<g id="edge19" class="edge">
<title>12062&#45;&gt;12063</title>
<path fill="none" stroke="black" d="M786.67,-71.75C782.1,-63.03 777.45,-54.16 773.3,-46.26"/>
<polygon fill="black" stroke="black" points="776.46,-44.74 768.71,-37.51 770.26,-47.99 776.46,-44.74"/>
</g>
<!-- 14492 -->
<g id="node21" class="node">
<title>14492</title>
<path fill="#c0c0c0" stroke="black" d="M846,-36C846,-36 816,-36 816,-36 810,-36 804,-30 804,-24 804,-24 804,-12 804,-12 804,-6 810,0 816,0 816,0 846,0 846,0 852,0 858,-6 858,-12 858,-12 858,-24 858,-24 858,-30 852,-36 846,-36"/>
<text text-anchor="middle" x="831" y="-13.32" font-family="Helvetica,sans-Serif" font-size="14.00">(...)</text>
</g>
<!-- 12062&#45;&gt;14492 -->
<g id="edge20" class="edge">
<title>12062&#45;&gt;14492</title>
<path fill="none" stroke="black" d="M820.36,-71.75C822.04,-63.42 823.74,-54.97 825.28,-47.34"/>
<polygon fill="black" stroke="black" points="828.69,-48.15 827.24,-37.66 821.83,-46.77 828.69,-48.15"/>
</g>
<!-- 14814 -->
<g id="node23" class="node">
<title>14814</title>
<path fill="#c0c0c0" stroke="black" d="M958,-36C958,-36 928,-36 928,-36 922,-36 916,-30 916,-24 916,-24 916,-12 916,-12 916,-6 922,0 928,0 928,0 958,0 958,0 964,0 970,-6 970,-12 970,-12 970,-24 970,-24 970,-30 964,-36 958,-36"/>
<text text-anchor="middle" x="943" y="-13.32" font-family="Helvetica,sans-Serif" font-size="14.00">(...)</text>
</g>
<!-- 14813&#45;&gt;14814 -->
<g id="edge22" class="edge">
<title>14813&#45;&gt;14814</title>
<path fill="none" stroke="black" d="M970.67,-71.75C966.1,-63.03 961.45,-54.16 957.3,-46.26"/>
<polygon fill="black" stroke="black" points="960.46,-44.74 952.71,-37.51 954.26,-47.99 960.46,-44.74"/>
</g>
<!-- 15749 -->
<g id="node24" class="node">
<title>15749</title>
<path fill="#c0c0c0" stroke="black" d="M1030,-36C1030,-36 1000,-36 1000,-36 994,-36 988,-30 988,-24 988,-24 988,-12 988,-12 988,-6 994,0 1000,0 1000,0 1030,0 1030,0 1036,0 1042,-6 1042,-12 1042,-12 1042,-24 1042,-24 1042,-30 1036,-36 1030,-36"/>
<text text-anchor="middle" x="1015" y="-13.32" font-family="Helvetica,sans-Serif" font-size="14.00">(...)</text>
</g>
<!-- 14813&#45;&gt;15749 -->
<g id="edge23" class="edge">
<title>14813&#45;&gt;15749</title>
<path fill="none" stroke="black" d="M1004.36,-71.75C1006.04,-63.42 1007.74,-54.97 1009.28,-47.34"/>
<polygon fill="black" stroke="black" points="1012.69,-48.15 1011.24,-37.66 1005.83,-46.77 1012.69,-48.15"/>
</g>
<!-- 15843 -->
<g id="node26" class="node">
<title>15843</title>
<path fill="#fceee5" stroke="black" d="M1250,-166.25C1250,-166.25 1108,-166.25 1108,-166.25 1102,-166.25 1096,-160.25 1096,-154.25 1096,-154.25 1096,-84 1096,-84 1096,-78 1102,-72 1108,-72 1108,-72 1250,-72 1250,-72 1256,-72 1262,-78 1262,-84 1262,-84 1262,-154.25 1262,-154.25 1262,-160.25 1256,-166.25 1250,-166.25"/>
<text text-anchor="middle" x="1179" y="-148.95" font-family="Helvetica,sans-Serif" font-size="14.00">18_A &lt;= 0.5</text>
<text text-anchor="middle" x="1179" y="-131.7" font-family="Helvetica,sans-Serif" font-size="14.00">entropy = 0.996</text>
<text text-anchor="middle" x="1179" y="-114.45" font-family="Helvetica,sans-Serif" font-size="14.00">samples = 1758</text>
<text text-anchor="middle" x="1179" y="-97.2" font-family="Helvetica,sans-Serif" font-size="14.00">value = [1517, 1315]</text>
<text text-anchor="middle" x="1179" y="-79.95" font-family="Helvetica,sans-Serif" font-size="14.00">class = Animal</text>
</g>
<!-- 15842&#45;&gt;15843 -->
<g id="edge25" class="edge">
<title>15842&#45;&gt;15843</title>
<path fill="none" stroke="black" d="M1179,-202.07C1179,-194.17 1179,-185.88 1179,-177.73"/>
<polygon fill="black" stroke="black" points="1182.5,-177.87 1179,-167.87 1175.5,-177.87 1182.5,-177.87"/>
</g>
<!-- 16678 -->
<g id="node29" class="node">
<title>16678</title>
<path fill="#95caf1" stroke="black" d="M1416,-166.25C1416,-166.25 1292,-166.25 1292,-166.25 1286,-166.25 1280,-160.25 1280,-154.25 1280,-154.25 1280,-84 1280,-84 1280,-78 1286,-72 1292,-72 1292,-72 1416,-72 1416,-72 1422,-72 1428,-78 1428,-84 1428,-84 1428,-154.25 1428,-154.25 1428,-160.25 1422,-166.25 1416,-166.25"/>
<text text-anchor="middle" x="1354" y="-148.95" font-family="Helvetica,sans-Serif" font-size="14.00">18_C &lt;= 0.5</text>
<text text-anchor="middle" x="1354" y="-131.7" font-family="Helvetica,sans-Serif" font-size="14.00">entropy = 0.901</text>
<text text-anchor="middle" x="1354" y="-114.45" font-family="Helvetica,sans-Serif" font-size="14.00">samples = 777</text>
<text text-anchor="middle" x="1354" y="-97.2" font-family="Helvetica,sans-Serif" font-size="14.00">value = [382, 825]</text>
<text text-anchor="middle" x="1354" y="-79.95" font-family="Helvetica,sans-Serif" font-size="14.00">class = Plant</text>
</g>
<!-- 15842&#45;&gt;16678 -->
<g id="edge28" class="edge">
<title>15842&#45;&gt;16678</title>
<path fill="none" stroke="black" d="M1242.18,-202.07C1254.99,-192.69 1268.55,-182.75 1281.64,-173.15"/>
<polygon fill="black" stroke="black" points="1283.4,-176.2 1289.4,-167.47 1279.26,-170.56 1283.4,-176.2"/>
</g>
<!-- 15844 -->
<g id="node27" class="node">
<title>15844</title>
<path fill="#c0c0c0" stroke="black" d="M1155,-36C1155,-36 1125,-36 1125,-36 1119,-36 1113,-30 1113,-24 1113,-24 1113,-12 1113,-12 1113,-6 1119,0 1125,0 1125,0 1155,0 1155,0 1161,0 1167,-6 1167,-12 1167,-12 1167,-24 1167,-24 1167,-30 1161,-36 1155,-36"/>
<text text-anchor="middle" x="1140" y="-13.32" font-family="Helvetica,sans-Serif" font-size="14.00">(...)</text>
</g>
<!-- 15843&#45;&gt;15844 -->
<g id="edge26" class="edge">
<title>15843&#45;&gt;15844</title>
<path fill="none" stroke="black" d="M1160.76,-71.75C1157.4,-63.22 1153.99,-54.57 1150.94,-46.8"/>
<polygon fill="black" stroke="black" points="1154.23,-45.61 1147.31,-37.58 1147.71,-48.17 1154.23,-45.61"/>
</g>
<!-- 16475 -->
<g id="node28" class="node">
<title>16475</title>
<path fill="#c0c0c0" stroke="black" d="M1227,-36C1227,-36 1197,-36 1197,-36 1191,-36 1185,-30 1185,-24 1185,-24 1185,-12 1185,-12 1185,-6 1191,0 1197,0 1197,0 1227,0 1227,0 1233,0 1239,-6 1239,-12 1239,-12 1239,-24 1239,-24 1239,-30 1233,-36 1227,-36"/>
<text text-anchor="middle" x="1212" y="-13.32" font-family="Helvetica,sans-Serif" font-size="14.00">(...)</text>
</g>
<!-- 15843&#45;&gt;16475 -->
<g id="edge27" class="edge">
<title>15843&#45;&gt;16475</title>
<path fill="none" stroke="black" d="M1194.44,-71.75C1197.24,-63.32 1200.09,-54.77 1202.66,-47.07"/>
<polygon fill="black" stroke="black" points="1205.97,-48.2 1205.8,-37.61 1199.33,-45.99 1205.97,-48.2"/>
</g>
<!-- 16679 -->
<g id="node30" class="node">
<title>16679</title>
<path fill="#c0c0c0" stroke="black" d="M1333,-36C1333,-36 1303,-36 1303,-36 1297,-36 1291,-30 1291,-24 1291,-24 1291,-12 1291,-12 1291,-6 1297,0 1303,0 1303,0 1333,0 1333,0 1339,0 1345,-6 1345,-12 1345,-12 1345,-24 1345,-24 1345,-30 1339,-36 1333,-36"/>
<text text-anchor="middle" x="1318" y="-13.32" font-family="Helvetica,sans-Serif" font-size="14.00">(...)</text>
</g>
<!-- 16678&#45;&gt;16679 -->
<g id="edge29" class="edge">
<title>16678&#45;&gt;16679</title>
<path fill="none" stroke="black" d="M1337.16,-71.75C1334.06,-63.22 1330.92,-54.57 1328.1,-46.8"/>
<polygon fill="black" stroke="black" points="1331.46,-45.8 1324.75,-37.6 1324.88,-48.19 1331.46,-45.8"/>
</g>
<!-- 16872 -->
<g id="node31" class="node">
<title>16872</title>
<path fill="#c0c0c0" stroke="black" d="M1405,-36C1405,-36 1375,-36 1375,-36 1369,-36 1363,-30 1363,-24 1363,-24 1363,-12 1363,-12 1363,-6 1369,0 1375,0 1375,0 1405,0 1405,0 1411,0 1417,-6 1417,-12 1417,-12 1417,-24 1417,-24 1417,-30 1411,-36 1405,-36"/>
<text text-anchor="middle" x="1390" y="-13.32" font-family="Helvetica,sans-Serif" font-size="14.00">(...)</text>
</g>
<!-- 16678&#45;&gt;16872 -->
<g id="edge30" class="edge">
<title>16678&#45;&gt;16872</title>
<path fill="none" stroke="black" d="M1370.84,-71.75C1373.94,-63.22 1377.08,-54.57 1379.9,-46.8"/>
<polygon fill="black" stroke="black" points="1383.12,-48.19 1383.25,-37.6 1376.54,-45.8 1383.12,-48.19"/>
</g>
</g>
</svg>
