<?xml version="1.0" encoding="UTF-8" standalone="no"?>
<!DOCTYPE svg PUBLIC "-//W3C//DTD SVG 1.1//EN"
 "http://www.w3.org/Graphics/SVG/1.1/DTD/svg11.dtd">
<!-- Generated by graphviz version 12.0.0 (20240803.0821)
 -->
<!-- Title: Tree Pages: 1 -->
<svg width="1357pt" height="565pt"
 viewBox="0.00 0.00 1357.38 565.00" xmlns="http://www.w3.org/2000/svg" xmlns:xlink="http://www.w3.org/1999/xlink">
<g id="graph0" class="graph" transform="scale(1 1) rotate(0) translate(4 561)">
<title>Tree</title>
<polygon fill="white" stroke="none" points="-4,4 -4,-561 1353.38,-561 1353.38,4 -4,4"/>
<!-- 0 -->
<g id="node1" class="node">
<title>0</title>
<path fill="#fefeff" stroke="black" d="M776,-557C776,-557 616,-557 616,-557 610,-557 604,-551 604,-545 604,-545 604,-474.75 604,-474.75 604,-468.75 610,-462.75 616,-462.75 616,-462.75 776,-462.75 776,-462.75 782,-462.75 788,-468.75 788,-474.75 788,-474.75 788,-545 788,-545 788,-551 782,-557 776,-557"/>
<text text-anchor="middle" x="696" y="-539.7" font-family="Helvetica,sans-Serif" font-size="14.00">22_G &lt;= 0.5</text>
<text text-anchor="middle" x="696" y="-522.45" font-family="Helvetica,sans-Serif" font-size="14.00">entropy = 1.0</text>
<text text-anchor="middle" x="696" y="-505.2" font-family="Helvetica,sans-Serif" font-size="14.00">samples = 38098</text>
<text text-anchor="middle" x="696" y="-487.95" font-family="Helvetica,sans-Serif" font-size="14.00">value = [30064, 30281]</text>
<text text-anchor="middle" x="696" y="-470.7" font-family="Helvetica,sans-Serif" font-size="14.00">class = Plant</text>
</g>
<!-- 1 -->
<g id="node2" class="node">
<title>1</title>
<path fill="#e0f0fb" stroke="black" d="M617,-426.75C617,-426.75 457,-426.75 457,-426.75 451,-426.75 445,-420.75 445,-414.75 445,-414.75 445,-344.5 445,-344.5 445,-338.5 451,-332.5 457,-332.5 457,-332.5 617,-332.5 617,-332.5 623,-332.5 629,-338.5 629,-344.5 629,-344.5 629,-414.75 629,-414.75 629,-420.75 623,-426.75 617,-426.75"/>
<text text-anchor="middle" x="537" y="-409.45" font-family="Helvetica,sans-Serif" font-size="14.00">23_G &lt;= 0.5</text>
<text text-anchor="middle" x="537" y="-392.2" font-family="Helvetica,sans-Serif" font-size="14.00">entropy = 0.995</text>
<text text-anchor="middle" x="537" y="-374.95" font-family="Helvetica,sans-Serif" font-size="14.00">samples = 33219</text>
<text text-anchor="middle" x="537" y="-357.7" font-family="Helvetica,sans-Serif" font-size="14.00">value = [24070, 28571]</text>
<text text-anchor="middle" x="537" y="-340.45" font-family="Helvetica,sans-Serif" font-size="14.00">class = Plant</text>
</g>
<!-- 0&#45;&gt;1 -->
<g id="edge1" class="edge">
<title>0&#45;&gt;1</title>
<path fill="none" stroke="black" d="M638.6,-462.57C627.19,-453.37 615.11,-443.63 603.43,-434.21"/>
<polygon fill="black" stroke="black" points="605.74,-431.58 595.76,-428.02 601.35,-437.03 605.74,-431.58"/>
<text text-anchor="middle" x="597.25" y="-447.26" font-family="Helvetica,sans-Serif" font-size="14.00">True</text>
</g>
<!-- 14618 -->
<g id="node17" class="node">
<title>14618</title>
<path fill="#eca571" stroke="black" d="M952,-426.75C952,-426.75 810,-426.75 810,-426.75 804,-426.75 798,-420.75 798,-414.75 798,-414.75 798,-344.5 798,-344.5 798,-338.5 804,-332.5 810,-332.5 810,-332.5 952,-332.5 952,-332.5 958,-332.5 964,-338.5 964,-344.5 964,-344.5 964,-414.75 964,-414.75 964,-420.75 958,-426.75 952,-426.75"/>
<text text-anchor="middle" x="881" y="-409.45" font-family="Helvetica,sans-Serif" font-size="14.00">25_G &lt;= 0.5</text>
<text text-anchor="middle" x="881" y="-392.2" font-family="Helvetica,sans-Serif" font-size="14.00">entropy = 0.764</text>
<text text-anchor="middle" x="881" y="-374.95" font-family="Helvetica,sans-Serif" font-size="14.00">samples = 4879</text>
<text text-anchor="middle" x="881" y="-357.7" font-family="Helvetica,sans-Serif" font-size="14.00">value = [5994, 1710]</text>
<text text-anchor="middle" x="881" y="-340.45" font-family="Helvetica,sans-Serif" font-size="14.00">class = Animal</text>
</g>
<!-- 0&#45;&gt;14618 -->
<g id="edge16" class="edge">
<title>0&#45;&gt;14618</title>
<path fill="none" stroke="black" d="M763.05,-462.39C776.49,-453.07 790.71,-443.22 804.45,-433.69"/>
<polygon fill="black" stroke="black" points="806.4,-436.6 812.62,-428.03 802.41,-430.85 806.4,-436.6"/>
<text text-anchor="middle" x="809.41" y="-447.09" font-family="Helvetica,sans-Serif" font-size="14.00">False</text>
</g>
<!-- 2 -->
<g id="node3" class="node">
<title>2</title>
<path fill="#d5eafa" stroke="black" d="M365,-296.5C365,-296.5 205,-296.5 205,-296.5 199,-296.5 193,-290.5 193,-284.5 193,-284.5 193,-214.25 193,-214.25 193,-208.25 199,-202.25 205,-202.25 205,-202.25 365,-202.25 365,-202.25 371,-202.25 377,-208.25 377,-214.25 377,-214.25 377,-284.5 377,-284.5 377,-290.5 371,-296.5 365,-296.5"/>
<text text-anchor="middle" x="285" y="-279.2" font-family="Helvetica,sans-Serif" font-size="14.00">22_C &lt;= 0.5</text>
<text text-anchor="middle" x="285" y="-261.95" font-family="Helvetica,sans-Serif" font-size="14.00">entropy = 0.99</text>
<text text-anchor="middle" x="285" y="-244.7" font-family="Helvetica,sans-Serif" font-size="14.00">samples = 31767</text>
<text text-anchor="middle" x="285" y="-227.45" font-family="Helvetica,sans-Serif" font-size="14.00">value = [22203, 28150]</text>
<text text-anchor="middle" x="285" y="-210.2" font-family="Helvetica,sans-Serif" font-size="14.00">class = Plant</text>
</g>
<!-- 1&#45;&gt;2 -->
<g id="edge2" class="edge">
<title>1&#45;&gt;2</title>
<path fill="none" stroke="black" d="M445.67,-332.14C426.47,-322.38 406.12,-312.02 386.58,-302.07"/>
<polygon fill="black" stroke="black" points="388.29,-299.02 377.79,-297.6 385.12,-305.26 388.29,-299.02"/>
</g>
<!-- 14091 -->
<g id="node10" class="node">
<title>14091</title>
<path fill="#eb9d66" stroke="black" d="M603.5,-296.5C603.5,-296.5 470.5,-296.5 470.5,-296.5 464.5,-296.5 458.5,-290.5 458.5,-284.5 458.5,-284.5 458.5,-214.25 458.5,-214.25 458.5,-208.25 464.5,-202.25 470.5,-202.25 470.5,-202.25 603.5,-202.25 603.5,-202.25 609.5,-202.25 615.5,-208.25 615.5,-214.25 615.5,-214.25 615.5,-284.5 615.5,-284.5 615.5,-290.5 609.5,-296.5 603.5,-296.5"/>
<text text-anchor="middle" x="537" y="-279.2" font-family="Helvetica,sans-Serif" font-size="14.00">26_A &lt;= 0.5</text>
<text text-anchor="middle" x="537" y="-261.95" font-family="Helvetica,sans-Serif" font-size="14.00">entropy = 0.689</text>
<text text-anchor="middle" x="537" y="-244.7" font-family="Helvetica,sans-Serif" font-size="14.00">samples = 1452</text>
<text text-anchor="middle" x="537" y="-227.45" font-family="Helvetica,sans-Serif" font-size="14.00">value = [1867, 421]</text>
<text text-anchor="middle" x="537" y="-210.2" font-family="Helvetica,sans-Serif" font-size="14.00">class = Animal</text>
</g>
<!-- 1&#45;&gt;14091 -->
<g id="edge9" class="edge">
<title>1&#45;&gt;14091</title>
<path fill="none" stroke="black" d="M537,-332.32C537,-324.42 537,-316.13 537,-307.98"/>
<polygon fill="black" stroke="black" points="540.5,-308.12 537,-298.12 533.5,-308.12 540.5,-308.12"/>
</g>
<!-- 3 -->
<g id="node4" class="node">
<title>3</title>
<path fill="#c3e1f7" stroke="black" d="M172,-166.25C172,-166.25 12,-166.25 12,-166.25 6,-166.25 0,-160.25 0,-154.25 0,-154.25 0,-84 0,-84 0,-78 6,-72 12,-72 12,-72 172,-72 172,-72 178,-72 184,-78 184,-84 184,-84 184,-154.25 184,-154.25 184,-160.25 178,-166.25 172,-166.25"/>
<text text-anchor="middle" x="92" y="-148.95" font-family="Helvetica,sans-Serif" font-size="14.00">1_U &lt;= 0.5</text>
<text text-anchor="middle" x="92" y="-131.7" font-family="Helvetica,sans-Serif" font-size="14.00">entropy = 0.977</text>
<text text-anchor="middle" x="92" y="-114.45" font-family="Helvetica,sans-Serif" font-size="14.00">samples = 28334</text>
<text text-anchor="middle" x="92" y="-97.2" font-family="Helvetica,sans-Serif" font-size="14.00">value = [18440, 26497]</text>
<text text-anchor="middle" x="92" y="-79.95" font-family="Helvetica,sans-Serif" font-size="14.00">class = Plant</text>
</g>
<!-- 2&#45;&gt;3 -->
<g id="edge3" class="edge">
<title>2&#45;&gt;3</title>
<path fill="none" stroke="black" d="M215.05,-201.89C200.89,-192.48 185.9,-182.53 171.45,-172.92"/>
<polygon fill="black" stroke="black" points="173.56,-170.12 163.3,-167.5 169.69,-175.95 173.56,-170.12"/>
</g>
<!-- 12276 -->
<g id="node7" class="node">
<title>12276</title>
<path fill="#f0b890" stroke="black" d="M356,-166.25C356,-166.25 214,-166.25 214,-166.25 208,-166.25 202,-160.25 202,-154.25 202,-154.25 202,-84 202,-84 202,-78 208,-72 214,-72 214,-72 356,-72 356,-72 362,-72 368,-78 368,-84 368,-84 368,-154.25 368,-154.25 368,-160.25 362,-166.25 356,-166.25"/>
<text text-anchor="middle" x="285" y="-148.95" font-family="Helvetica,sans-Serif" font-size="14.00">7_A &lt;= 0.5</text>
<text text-anchor="middle" x="285" y="-131.7" font-family="Helvetica,sans-Serif" font-size="14.00">entropy = 0.888</text>
<text text-anchor="middle" x="285" y="-114.45" font-family="Helvetica,sans-Serif" font-size="14.00">samples = 3433</text>
<text text-anchor="middle" x="285" y="-97.2" font-family="Helvetica,sans-Serif" font-size="14.00">value = [3763, 1653]</text>
<text text-anchor="middle" x="285" y="-79.95" font-family="Helvetica,sans-Serif" font-size="14.00">class = Animal</text>
</g>
<!-- 2&#45;&gt;12276 -->
<g id="edge6" class="edge">
<title>2&#45;&gt;12276</title>
<path fill="none" stroke="black" d="M285,-202.07C285,-194.17 285,-185.88 285,-177.73"/>
<polygon fill="black" stroke="black" points="288.5,-177.87 285,-167.87 281.5,-177.87 288.5,-177.87"/>
</g>
<!-- 4 -->
<g id="node5" class="node">
<title>4</title>
<path fill="#c0c0c0" stroke="black" d="M71,-36C71,-36 41,-36 41,-36 35,-36 29,-30 29,-24 29,-24 29,-12 29,-12 29,-6 35,0 41,0 41,0 71,0 71,0 77,0 83,-6 83,-12 83,-12 83,-24 83,-24 83,-30 77,-36 71,-36"/>
<text text-anchor="middle" x="56" y="-13.32" font-family="Helvetica,sans-Serif" font-size="14.00">(...)</text>
</g>
<!-- 3&#45;&gt;4 -->
<g id="edge4" class="edge">
<title>3&#45;&gt;4</title>
<path fill="none" stroke="black" d="M75.16,-71.75C72.06,-63.22 68.92,-54.57 66.1,-46.8"/>
<polygon fill="black" stroke="black" points="69.46,-45.8 62.75,-37.6 62.88,-48.19 69.46,-45.8"/>
</g>
<!-- 7001 -->
<g id="node6" class="node">
<title>7001</title>
<path fill="#c0c0c0" stroke="black" d="M143,-36C143,-36 113,-36 113,-36 107,-36 101,-30 101,-24 101,-24 101,-12 101,-12 101,-6 107,0 113,0 113,0 143,0 143,0 149,0 155,-6 155,-12 155,-12 155,-24 155,-24 155,-30 149,-36 143,-36"/>
<text text-anchor="middle" x="128" y="-13.32" font-family="Helvetica,sans-Serif" font-size="14.00">(...)</text>
</g>
<!-- 3&#45;&gt;7001 -->
<g id="edge5" class="edge">
<title>3&#45;&gt;7001</title>
<path fill="none" stroke="black" d="M108.84,-71.75C111.94,-63.22 115.08,-54.57 117.9,-46.8"/>
<polygon fill="black" stroke="black" points="121.12,-48.19 121.25,-37.6 114.54,-45.8 121.12,-48.19"/>
</g>
<!-- 12277 -->
<g id="node8" class="node">
<title>12277</title>
<path fill="#c0c0c0" stroke="black" d="M255,-36C255,-36 225,-36 225,-36 219,-36 213,-30 213,-24 213,-24 213,-12 213,-12 213,-6 219,0 225,0 225,0 255,0 255,0 261,0 267,-6 267,-12 267,-12 267,-24 267,-24 267,-30 261,-36 255,-36"/>
<text text-anchor="middle" x="240" y="-13.32" font-family="Helvetica,sans-Serif" font-size="14.00">(...)</text>
</g>
<!-- 12276&#45;&gt;12277 -->
<g id="edge7" class="edge">
<title>12276&#45;&gt;12277</title>
<path fill="none" stroke="black" d="M263.95,-71.75C260.03,-63.12 256.05,-54.36 252.5,-46.53"/>
<polygon fill="black" stroke="black" points="255.74,-45.21 248.42,-37.55 249.37,-48.1 255.74,-45.21"/>
</g>
<!-- 13652 -->
<g id="node9" class="node">
<title>13652</title>
<path fill="#c0c0c0" stroke="black" d="M327,-36C327,-36 297,-36 297,-36 291,-36 285,-30 285,-24 285,-24 285,-12 285,-12 285,-6 291,0 297,0 297,0 327,0 327,0 333,0 339,-6 339,-12 339,-12 339,-24 339,-24 339,-30 333,-36 327,-36"/>
<text text-anchor="middle" x="312" y="-13.32" font-family="Helvetica,sans-Serif" font-size="14.00">(...)</text>
</g>
<!-- 12276&#45;&gt;13652 -->
<g id="edge8" class="edge">
<title>12276&#45;&gt;13652</title>
<path fill="none" stroke="black" d="M297.63,-71.75C299.93,-63.32 302.26,-54.77 304.35,-47.07"/>
<polygon fill="black" stroke="black" points="307.67,-48.2 306.92,-37.63 300.92,-46.36 307.67,-48.2"/>
</g>
<!-- 14092 -->
<g id="node11" class="node">
<title>14092</title>
<path fill="#eb9c63" stroke="black" d="M531.5,-166.25C531.5,-166.25 398.5,-166.25 398.5,-166.25 392.5,-166.25 386.5,-160.25 386.5,-154.25 386.5,-154.25 386.5,-84 386.5,-84 386.5,-78 392.5,-72 398.5,-72 398.5,-72 531.5,-72 531.5,-72 537.5,-72 543.5,-78 543.5,-84 543.5,-84 543.5,-154.25 543.5,-154.25 543.5,-160.25 537.5,-166.25 531.5,-166.25"/>
<text text-anchor="middle" x="465" y="-148.95" font-family="Helvetica,sans-Serif" font-size="14.00">18_C &lt;= 0.5</text>
<text text-anchor="middle" x="465" y="-131.7" font-family="Helvetica,sans-Serif" font-size="14.00">entropy = 0.67</text>
<text text-anchor="middle" x="465" y="-114.45" font-family="Helvetica,sans-Serif" font-size="14.00">samples = 1425</text>
<text text-anchor="middle" x="465" y="-97.2" font-family="Helvetica,sans-Serif" font-size="14.00">value = [1846, 393]</text>
<text text-anchor="middle" x="465" y="-79.95" font-family="Helvetica,sans-Serif" font-size="14.00">class = Animal</text>
</g>
<!-- 14091&#45;&gt;14092 -->
<g id="edge10" class="edge">
<title>14091&#45;&gt;14092</title>
<path fill="none" stroke="black" d="M511.01,-202.07C506.32,-193.72 501.38,-184.93 496.55,-176.33"/>
<polygon fill="black" stroke="black" points="499.64,-174.68 491.7,-167.68 493.54,-178.11 499.64,-174.68"/>
</g>
<!-- 14609 -->
<g id="node14" class="node">
<title>14609</title>
<path fill="#cee6f8" stroke="black" d="M680.38,-166.25C680.38,-166.25 573.62,-166.25 573.62,-166.25 567.62,-166.25 561.62,-160.25 561.62,-154.25 561.62,-154.25 561.62,-84 561.62,-84 561.62,-78 567.62,-72 573.62,-72 573.62,-72 680.38,-72 680.38,-72 686.38,-72 692.38,-78 692.38,-84 692.38,-84 692.38,-154.25 692.38,-154.25 692.38,-160.25 686.38,-166.25 680.38,-166.25"/>
<text text-anchor="middle" x="627" y="-148.95" font-family="Helvetica,sans-Serif" font-size="14.00">29_G &lt;= 0.5</text>
<text text-anchor="middle" x="627" y="-131.7" font-family="Helvetica,sans-Serif" font-size="14.00">entropy = 0.985</text>
<text text-anchor="middle" x="627" y="-114.45" font-family="Helvetica,sans-Serif" font-size="14.00">samples = 27</text>
<text text-anchor="middle" x="627" y="-97.2" font-family="Helvetica,sans-Serif" font-size="14.00">value = [21, 28]</text>
<text text-anchor="middle" x="627" y="-79.95" font-family="Helvetica,sans-Serif" font-size="14.00">class = Plant</text>
</g>
<!-- 14091&#45;&gt;14609 -->
<g id="edge13" class="edge">
<title>14091&#45;&gt;14609</title>
<path fill="none" stroke="black" d="M569.49,-202.07C575.48,-193.54 581.79,-184.54 587.95,-175.77"/>
<polygon fill="black" stroke="black" points="590.81,-177.79 593.69,-167.6 585.08,-173.77 590.81,-177.79"/>
</g>
<!-- 14093 -->
<g id="node12" class="node">
<title>14093</title>
<path fill="#c0c0c0" stroke="black" d="M417,-36C417,-36 387,-36 387,-36 381,-36 375,-30 375,-24 375,-24 375,-12 375,-12 375,-6 381,0 387,0 387,0 417,0 417,0 423,0 429,-6 429,-12 429,-12 429,-24 429,-24 429,-30 423,-36 417,-36"/>
<text text-anchor="middle" x="402" y="-13.32" font-family="Helvetica,sans-Serif" font-size="14.00">(...)</text>
</g>
<!-- 14092&#45;&gt;14093 -->
<g id="edge11" class="edge">
<title>14092&#45;&gt;14093</title>
<path fill="none" stroke="black" d="M435.53,-71.75C429.85,-62.83 424.09,-53.76 418.98,-45.72"/>
<polygon fill="black" stroke="black" points="422.04,-44.01 413.73,-37.45 416.14,-47.77 422.04,-44.01"/>
</g>
<!-- 14452 -->
<g id="node13" class="node">
<title>14452</title>
<path fill="#c0c0c0" stroke="black" d="M489,-36C489,-36 459,-36 459,-36 453,-36 447,-30 447,-24 447,-24 447,-12 447,-12 447,-6 453,0 459,0 459,0 489,0 489,0 495,0 501,-6 501,-12 501,-12 501,-24 501,-24 501,-30 495,-36 489,-36"/>
<text text-anchor="middle" x="474" y="-13.32" font-family="Helvetica,sans-Serif" font-size="14.00">(...)</text>
</g>
<!-- 14092&#45;&gt;14452 -->
<g id="edge12" class="edge">
<title>14092&#45;&gt;14452</title>
<path fill="none" stroke="black" d="M469.21,-71.75C469.96,-63.52 470.72,-55.17 471.4,-47.61"/>
<polygon fill="black" stroke="black" points="474.89,-47.96 472.3,-37.68 467.91,-47.32 474.89,-47.96"/>
</g>
<!-- 14610 -->
<g id="node15" class="node">
<title>14610</title>
<path fill="#c0c0c0" stroke="black" d="M581,-36C581,-36 551,-36 551,-36 545,-36 539,-30 539,-24 539,-24 539,-12 539,-12 539,-6 545,0 551,0 551,0 581,0 581,0 587,0 593,-6 593,-12 593,-12 593,-24 593,-24 593,-30 587,-36 581,-36"/>
<text text-anchor="middle" x="566" y="-13.32" font-family="Helvetica,sans-Serif" font-size="14.00">(...)</text>
</g>
<!-- 14609&#45;&gt;14610 -->
<g id="edge14" class="edge">
<title>14609&#45;&gt;14610</title>
<path fill="none" stroke="black" d="M598.46,-71.75C592.97,-62.83 587.39,-53.76 582.44,-45.72"/>
<polygon fill="black" stroke="black" points="585.58,-44.14 577.36,-37.46 579.62,-47.81 585.58,-44.14"/>
</g>
<!-- 14617 -->
<g id="node16" class="node">
<title>14617</title>
<path fill="#c0c0c0" stroke="black" d="M653,-36C653,-36 623,-36 623,-36 617,-36 611,-30 611,-24 611,-24 611,-12 611,-12 611,-6 617,0 623,0 623,0 653,0 653,0 659,0 665,-6 665,-12 665,-12 665,-24 665,-24 665,-30 659,-36 653,-36"/>
<text text-anchor="middle" x="638" y="-13.32" font-family="Helvetica,sans-Serif" font-size="14.00">(...)</text>
</g>
<!-- 14609&#45;&gt;14617 -->
<g id="edge15" class="edge">
<title>14609&#45;&gt;14617</title>
<path fill="none" stroke="black" d="M632.15,-71.75C633.06,-63.52 633.99,-55.17 634.82,-47.61"/>
<polygon fill="black" stroke="black" points="638.3,-48 635.93,-37.68 631.35,-47.23 638.3,-48"/>
</g>
<!-- 14619 -->
<g id="node18" class="node">
<title>14619</title>
<path fill="#eca36f" stroke="black" d="M952,-296.5C952,-296.5 810,-296.5 810,-296.5 804,-296.5 798,-290.5 798,-284.5 798,-284.5 798,-214.25 798,-214.25 798,-208.25 804,-202.25 810,-202.25 810,-202.25 952,-202.25 952,-202.25 958,-202.25 964,-208.25 964,-214.25 964,-214.25 964,-284.5 964,-284.5 964,-290.5 958,-296.5 952,-296.5"/>
<text text-anchor="middle" x="881" y="-279.2" font-family="Helvetica,sans-Serif" font-size="14.00">17_U &lt;= 0.5</text>
<text text-anchor="middle" x="881" y="-261.95" font-family="Helvetica,sans-Serif" font-size="14.00">entropy = 0.751</text>
<text text-anchor="middle" x="881" y="-244.7" font-family="Helvetica,sans-Serif" font-size="14.00">samples = 4779</text>
<text text-anchor="middle" x="881" y="-227.45" font-family="Helvetica,sans-Serif" font-size="14.00">value = [5929, 1623]</text>
<text text-anchor="middle" x="881" y="-210.2" font-family="Helvetica,sans-Serif" font-size="14.00">class = Animal</text>
</g>
<!-- 14618&#45;&gt;14619 -->
<g id="edge17" class="edge">
<title>14618&#45;&gt;14619</title>
<path fill="none" stroke="black" d="M881,-332.32C881,-324.42 881,-316.13 881,-307.98"/>
<polygon fill="black" stroke="black" points="884.5,-308.12 881,-298.12 877.5,-308.12 884.5,-308.12"/>
</g>
<!-- 16516 -->
<g id="node25" class="node">
<title>16516</title>
<path fill="#cde6f8" stroke="black" d="M1188.38,-296.5C1188.38,-296.5 1081.62,-296.5 1081.62,-296.5 1075.62,-296.5 1069.62,-290.5 1069.62,-284.5 1069.62,-284.5 1069.62,-214.25 1069.62,-214.25 1069.62,-208.25 1075.62,-202.25 1081.62,-202.25 1081.62,-202.25 1188.38,-202.25 1188.38,-202.25 1194.38,-202.25 1200.38,-208.25 1200.38,-214.25 1200.38,-214.25 1200.38,-284.5 1200.38,-284.5 1200.38,-290.5 1194.38,-296.5 1188.38,-296.5"/>
<text text-anchor="middle" x="1135" y="-279.2" font-family="Helvetica,sans-Serif" font-size="14.00">4_G &lt;= 0.5</text>
<text text-anchor="middle" x="1135" y="-261.95" font-family="Helvetica,sans-Serif" font-size="14.00">entropy = 0.985</text>
<text text-anchor="middle" x="1135" y="-244.7" font-family="Helvetica,sans-Serif" font-size="14.00">samples = 100</text>
<text text-anchor="middle" x="1135" y="-227.45" font-family="Helvetica,sans-Serif" font-size="14.00">value = [65, 87]</text>
<text text-anchor="middle" x="1135" y="-210.2" font-family="Helvetica,sans-Serif" font-size="14.00">class = Plant</text>
</g>
<!-- 14618&#45;&gt;16516 -->
<g id="edge24" class="edge">
<title>14618&#45;&gt;16516</title>
<path fill="none" stroke="black" d="M964.17,-336.63C994.85,-321.14 1029.41,-303.69 1059.39,-288.55"/>
<polygon fill="black" stroke="black" points="1060.66,-291.83 1068.01,-284.2 1057.51,-285.58 1060.66,-291.83"/>
</g>
<!-- 14620 -->
<g id="node19" class="node">
<title>14620</title>
<path fill="#eeac7c" stroke="black" d="M864,-166.25C864,-166.25 722,-166.25 722,-166.25 716,-166.25 710,-160.25 710,-154.25 710,-154.25 710,-84 710,-84 710,-78 716,-72 722,-72 722,-72 864,-72 864,-72 870,-72 876,-78 876,-84 876,-84 876,-154.25 876,-154.25 876,-160.25 870,-166.25 864,-166.25"/>
<text text-anchor="middle" x="793" y="-148.95" font-family="Helvetica,sans-Serif" font-size="14.00">8_U &lt;= 0.5</text>
<text text-anchor="middle" x="793" y="-131.7" font-family="Helvetica,sans-Serif" font-size="14.00">entropy = 0.816</text>
<text text-anchor="middle" x="793" y="-114.45" font-family="Helvetica,sans-Serif" font-size="14.00">samples = 3218</text>
<text text-anchor="middle" x="793" y="-97.2" font-family="Helvetica,sans-Serif" font-size="14.00">value = [3815, 1290]</text>
<text text-anchor="middle" x="793" y="-79.95" font-family="Helvetica,sans-Serif" font-size="14.00">class = Animal</text>
</g>
<!-- 14619&#45;&gt;14620 -->
<g id="edge18" class="edge">
<title>14619&#45;&gt;14620</title>
<path fill="none" stroke="black" d="M849.23,-202.07C843.37,-193.54 837.2,-184.54 831.18,-175.77"/>
<polygon fill="black" stroke="black" points="834.12,-173.87 825.58,-167.61 828.35,-177.83 834.12,-173.87"/>
</g>
<!-- 16029 -->
<g id="node22" class="node">
<title>16029</title>
<path fill="#e99558" stroke="black" d="M1039.5,-166.25C1039.5,-166.25 906.5,-166.25 906.5,-166.25 900.5,-166.25 894.5,-160.25 894.5,-154.25 894.5,-154.25 894.5,-84 894.5,-84 894.5,-78 900.5,-72 906.5,-72 906.5,-72 1039.5,-72 1039.5,-72 1045.5,-72 1051.5,-78 1051.5,-84 1051.5,-84 1051.5,-154.25 1051.5,-154.25 1051.5,-160.25 1045.5,-166.25 1039.5,-166.25"/>
<text text-anchor="middle" x="973" y="-148.95" font-family="Helvetica,sans-Serif" font-size="14.00">26_U &lt;= 0.5</text>
<text text-anchor="middle" x="973" y="-131.7" font-family="Helvetica,sans-Serif" font-size="14.00">entropy = 0.574</text>
<text text-anchor="middle" x="973" y="-114.45" font-family="Helvetica,sans-Serif" font-size="14.00">samples = 1561</text>
<text text-anchor="middle" x="973" y="-97.2" font-family="Helvetica,sans-Serif" font-size="14.00">value = [2114, 333]</text>
<text text-anchor="middle" x="973" y="-79.95" font-family="Helvetica,sans-Serif" font-size="14.00">class = Animal</text>
</g>
<!-- 14619&#45;&gt;16029 -->
<g id="edge21" class="edge">
<title>14619&#45;&gt;16029</title>
<path fill="none" stroke="black" d="M914.21,-202.07C920.4,-193.45 926.93,-184.35 933.29,-175.49"/>
<polygon fill="black" stroke="black" points="935.97,-177.75 938.95,-167.59 930.28,-173.67 935.97,-177.75"/>
</g>
<!-- 14621 -->
<g id="node20" class="node">
<title>14621</title>
<path fill="#c0c0c0" stroke="black" d="M754,-36C754,-36 724,-36 724,-36 718,-36 712,-30 712,-24 712,-24 712,-12 712,-12 712,-6 718,0 724,0 724,0 754,0 754,0 760,0 766,-6 766,-12 766,-12 766,-24 766,-24 766,-30 760,-36 754,-36"/>
<text text-anchor="middle" x="739" y="-13.32" font-family="Helvetica,sans-Serif" font-size="14.00">(...)</text>
</g>
<!-- 14620&#45;&gt;14621 -->
<g id="edge19" class="edge">
<title>14620&#45;&gt;14621</title>
<path fill="none" stroke="black" d="M767.74,-71.75C762.98,-63.03 758.16,-54.16 753.85,-46.26"/>
<polygon fill="black" stroke="black" points="756.94,-44.61 749.08,-37.5 750.79,-47.96 756.94,-44.61"/>
</g>
<!-- 15648 -->
<g id="node21" class="node">
<title>15648</title>
<path fill="#c0c0c0" stroke="black" d="M826,-36C826,-36 796,-36 796,-36 790,-36 784,-30 784,-24 784,-24 784,-12 784,-12 784,-6 790,0 796,0 796,0 826,0 826,0 832,0 838,-6 838,-12 838,-12 838,-24 838,-24 838,-30 832,-36 826,-36"/>
<text text-anchor="middle" x="811" y="-13.32" font-family="Helvetica,sans-Serif" font-size="14.00">(...)</text>
</g>
<!-- 14620&#45;&gt;15648 -->
<g id="edge20" class="edge">
<title>14620&#45;&gt;15648</title>
<path fill="none" stroke="black" d="M801.42,-71.75C802.93,-63.42 804.47,-54.97 805.85,-47.34"/>
<polygon fill="black" stroke="black" points="809.27,-48.13 807.61,-37.66 802.38,-46.88 809.27,-48.13"/>
</g>
<!-- 16030 -->
<g id="node23" class="node">
<title>16030</title>
<path fill="#c0c0c0" stroke="black" d="M925,-36C925,-36 895,-36 895,-36 889,-36 883,-30 883,-24 883,-24 883,-12 883,-12 883,-6 889,0 895,0 895,0 925,0 925,0 931,0 937,-6 937,-12 937,-12 937,-24 937,-24 937,-30 931,-36 925,-36"/>
<text text-anchor="middle" x="910" y="-13.32" font-family="Helvetica,sans-Serif" font-size="14.00">(...)</text>
</g>
<!-- 16029&#45;&gt;16030 -->
<g id="edge22" class="edge">
<title>16029&#45;&gt;16030</title>
<path fill="none" stroke="black" d="M943.53,-71.75C937.85,-62.83 932.09,-53.76 926.98,-45.72"/>
<polygon fill="black" stroke="black" points="930.04,-44.01 921.73,-37.45 924.14,-47.77 930.04,-44.01"/>
</g>
<!-- 16511 -->
<g id="node24" class="node">
<title>16511</title>
<path fill="#c0c0c0" stroke="black" d="M997,-36C997,-36 967,-36 967,-36 961,-36 955,-30 955,-24 955,-24 955,-12 955,-12 955,-6 961,0 967,0 967,0 997,0 997,0 1003,0 1009,-6 1009,-12 1009,-12 1009,-24 1009,-24 1009,-30 1003,-36 997,-36"/>
<text text-anchor="middle" x="982" y="-13.32" font-family="Helvetica,sans-Serif" font-size="14.00">(...)</text>
</g>
<!-- 16029&#45;&gt;16511 -->
<g id="edge23" class="edge">
<title>16029&#45;&gt;16511</title>
<path fill="none" stroke="black" d="M977.21,-71.75C977.96,-63.52 978.72,-55.17 979.4,-47.61"/>
<polygon fill="black" stroke="black" points="982.89,-47.96 980.3,-37.68 975.91,-47.32 982.89,-47.96"/>
</g>
<!-- 16517 -->
<g id="node26" class="node">
<title>16517</title>
<path fill="#a1d1f3" stroke="black" d="M1188.38,-166.25C1188.38,-166.25 1081.62,-166.25 1081.62,-166.25 1075.62,-166.25 1069.62,-160.25 1069.62,-154.25 1069.62,-154.25 1069.62,-84 1069.62,-84 1069.62,-78 1075.62,-72 1081.62,-72 1081.62,-72 1188.38,-72 1188.38,-72 1194.38,-72 1200.38,-78 1200.38,-84 1200.38,-84 1200.38,-154.25 1200.38,-154.25 1200.38,-160.25 1194.38,-166.25 1188.38,-166.25"/>
<text text-anchor="middle" x="1135" y="-148.95" font-family="Helvetica,sans-Serif" font-size="14.00">13_G &lt;= 0.5</text>
<text text-anchor="middle" x="1135" y="-131.7" font-family="Helvetica,sans-Serif" font-size="14.00">entropy = 0.929</text>
<text text-anchor="middle" x="1135" y="-114.45" font-family="Helvetica,sans-Serif" font-size="14.00">samples = 77</text>
<text text-anchor="middle" x="1135" y="-97.2" font-family="Helvetica,sans-Serif" font-size="14.00">value = [41, 78]</text>
<text text-anchor="middle" x="1135" y="-79.95" font-family="Helvetica,sans-Serif" font-size="14.00">class = Plant</text>
</g>
<!-- 16516&#45;&gt;16517 -->
<g id="edge25" class="edge">
<title>16516&#45;&gt;16517</title>
<path fill="none" stroke="black" d="M1135,-202.07C1135,-194.17 1135,-185.88 1135,-177.73"/>
<polygon fill="black" stroke="black" points="1138.5,-177.87 1135,-167.87 1131.5,-177.87 1138.5,-177.87"/>
</g>
<!-- 16556 -->
<g id="node29" class="node">
<title>16556</title>
<path fill="#efb083" stroke="black" d="M1337.38,-166.25C1337.38,-166.25 1230.62,-166.25 1230.62,-166.25 1224.62,-166.25 1218.62,-160.25 1218.62,-154.25 1218.62,-154.25 1218.62,-84 1218.62,-84 1218.62,-78 1224.62,-72 1230.62,-72 1230.62,-72 1337.38,-72 1337.38,-72 1343.38,-72 1349.38,-78 1349.38,-84 1349.38,-84 1349.38,-154.25 1349.38,-154.25 1349.38,-160.25 1343.38,-166.25 1337.38,-166.25"/>
<text text-anchor="middle" x="1284" y="-148.95" font-family="Helvetica,sans-Serif" font-size="14.00">7_G &lt;= 0.5</text>
<text text-anchor="middle" x="1284" y="-131.7" font-family="Helvetica,sans-Serif" font-size="14.00">entropy = 0.845</text>
<text text-anchor="middle" x="1284" y="-114.45" font-family="Helvetica,sans-Serif" font-size="14.00">samples = 23</text>
<text text-anchor="middle" x="1284" y="-97.2" font-family="Helvetica,sans-Serif" font-size="14.00">value = [24, 9]</text>
<text text-anchor="middle" x="1284" y="-79.95" font-family="Helvetica,sans-Serif" font-size="14.00">class = Animal</text>
</g>
<!-- 16516&#45;&gt;16556 -->
<g id="edge28" class="edge">
<title>16516&#45;&gt;16556</title>
<path fill="none" stroke="black" d="M1188.79,-202.07C1199.45,-192.9 1210.72,-183.2 1221.63,-173.81"/>
<polygon fill="black" stroke="black" points="1223.84,-176.52 1229.14,-167.35 1219.28,-171.22 1223.84,-176.52"/>
</g>
<!-- 16518 -->
<g id="node27" class="node">
<title>16518</title>
<path fill="#c0c0c0" stroke="black" d="M1098,-36C1098,-36 1068,-36 1068,-36 1062,-36 1056,-30 1056,-24 1056,-24 1056,-12 1056,-12 1056,-6 1062,0 1068,0 1068,0 1098,0 1098,0 1104,0 1110,-6 1110,-12 1110,-12 1110,-24 1110,-24 1110,-30 1104,-36 1098,-36"/>
<text text-anchor="middle" x="1083" y="-13.32" font-family="Helvetica,sans-Serif" font-size="14.00">(...)</text>
</g>
<!-- 16517&#45;&gt;16518 -->
<g id="edge26" class="edge">
<title>16517&#45;&gt;16518</title>
<path fill="none" stroke="black" d="M1110.67,-71.75C1106.1,-63.03 1101.45,-54.16 1097.3,-46.26"/>
<polygon fill="black" stroke="black" points="1100.46,-44.74 1092.71,-37.51 1094.26,-47.99 1100.46,-44.74"/>
</g>
<!-- 16549 -->
<g id="node28" class="node">
<title>16549</title>
<path fill="#c0c0c0" stroke="black" d="M1170,-36C1170,-36 1140,-36 1140,-36 1134,-36 1128,-30 1128,-24 1128,-24 1128,-12 1128,-12 1128,-6 1134,0 1140,0 1140,0 1170,0 1170,0 1176,0 1182,-6 1182,-12 1182,-12 1182,-24 1182,-24 1182,-30 1176,-36 1170,-36"/>
<text text-anchor="middle" x="1155" y="-13.32" font-family="Helvetica,sans-Serif" font-size="14.00">(...)</text>
</g>
<!-- 16517&#45;&gt;16549 -->
<g id="edge27" class="edge">
<title>16517&#45;&gt;16549</title>
<path fill="none" stroke="black" d="M1144.36,-71.75C1146.04,-63.42 1147.74,-54.97 1149.28,-47.34"/>
<polygon fill="black" stroke="black" points="1152.69,-48.15 1151.24,-37.66 1145.83,-46.77 1152.69,-48.15"/>
</g>
<!-- 16557 -->
<g id="node30" class="node">
<title>16557</title>
<path fill="#c0c0c0" stroke="black" d="M1263,-36C1263,-36 1233,-36 1233,-36 1227,-36 1221,-30 1221,-24 1221,-24 1221,-12 1221,-12 1221,-6 1227,0 1233,0 1233,0 1263,0 1263,0 1269,0 1275,-6 1275,-12 1275,-12 1275,-24 1275,-24 1275,-30 1269,-36 1263,-36"/>
<text text-anchor="middle" x="1248" y="-13.32" font-family="Helvetica,sans-Serif" font-size="14.00">(...)</text>
</g>
<!-- 16556&#45;&gt;16557 -->
<g id="edge29" class="edge">
<title>16556&#45;&gt;16557</title>
<path fill="none" stroke="black" d="M1267.16,-71.75C1264.06,-63.22 1260.92,-54.57 1258.1,-46.8"/>
<polygon fill="black" stroke="black" points="1261.46,-45.8 1254.75,-37.6 1254.88,-48.19 1261.46,-45.8"/>
</g>
<!-- 16564 -->
<g id="node31" class="node">
<title>16564</title>
<path fill="#c0c0c0" stroke="black" d="M1335,-36C1335,-36 1305,-36 1305,-36 1299,-36 1293,-30 1293,-24 1293,-24 1293,-12 1293,-12 1293,-6 1299,0 1305,0 1305,0 1335,0 1335,0 1341,0 1347,-6 1347,-12 1347,-12 1347,-24 1347,-24 1347,-30 1341,-36 1335,-36"/>
<text text-anchor="middle" x="1320" y="-13.32" font-family="Helvetica,sans-Serif" font-size="14.00">(...)</text>
</g>
<!-- 16556&#45;&gt;16564 -->
<g id="edge30" class="edge">
<title>16556&#45;&gt;16564</title>
<path fill="none" stroke="black" d="M1300.84,-71.75C1303.94,-63.22 1307.08,-54.57 1309.9,-46.8"/>
<polygon fill="black" stroke="black" points="1313.12,-48.19 1313.25,-37.6 1306.54,-45.8 1313.12,-48.19"/>
</g>
</g>
</svg>
