<?xml version="1.0" encoding="UTF-8" standalone="no"?>
<!DOCTYPE svg PUBLIC "-//W3C//DTD SVG 1.1//EN"
 "http://www.w3.org/Graphics/SVG/1.1/DTD/svg11.dtd">
<!-- Generated by graphviz version 12.0.0 (20240803.0821)
 -->
<!-- Title: Tree Pages: 1 -->
<svg width="1394pt" height="565pt"
 viewBox="0.00 0.00 1393.50 565.00" xmlns="http://www.w3.org/2000/svg" xmlns:xlink="http://www.w3.org/1999/xlink">
<g id="graph0" class="graph" transform="scale(1 1) rotate(0) translate(4 561)">
<title>Tree</title>
<polygon fill="white" stroke="none" points="-4,4 -4,-561 1389.5,-561 1389.5,4 -4,4"/>
<!-- 0 -->
<g id="node1" class="node">
<title>0</title>
<path fill="#fffdfd" stroke="black" d="M822,-557C822,-557 662,-557 662,-557 656,-557 650,-551 650,-545 650,-545 650,-474.75 650,-474.75 650,-468.75 656,-462.75 662,-462.75 662,-462.75 822,-462.75 822,-462.75 828,-462.75 834,-468.75 834,-474.75 834,-474.75 834,-545 834,-545 834,-551 828,-557 822,-557"/>
<text text-anchor="middle" x="742" y="-539.7" font-family="Helvetica,sans-Serif" font-size="14.00">22_G &lt;= 0.5</text>
<text text-anchor="middle" x="742" y="-522.45" font-family="Helvetica,sans-Serif" font-size="14.00">entropy = 1.0</text>
<text text-anchor="middle" x="742" y="-505.2" font-family="Helvetica,sans-Serif" font-size="14.00">samples = 38169</text>
<text text-anchor="middle" x="742" y="-487.95" font-family="Helvetica,sans-Serif" font-size="14.00">value = [30355, 29990]</text>
<text text-anchor="middle" x="742" y="-470.7" font-family="Helvetica,sans-Serif" font-size="14.00">class = Animal</text>
</g>
<!-- 1 -->
<g id="node2" class="node">
<title>1</title>
<path fill="#e2f1fb" stroke="black" d="M644,-426.75C644,-426.75 484,-426.75 484,-426.75 478,-426.75 472,-420.75 472,-414.75 472,-414.75 472,-344.5 472,-344.5 472,-338.5 478,-332.5 484,-332.5 484,-332.5 644,-332.5 644,-332.5 650,-332.5 656,-338.5 656,-344.5 656,-344.5 656,-414.75 656,-414.75 656,-420.75 650,-426.75 644,-426.75"/>
<text text-anchor="middle" x="564" y="-409.45" font-family="Helvetica,sans-Serif" font-size="14.00">22_U &lt;= 0.5</text>
<text text-anchor="middle" x="564" y="-392.2" font-family="Helvetica,sans-Serif" font-size="14.00">entropy = 0.996</text>
<text text-anchor="middle" x="564" y="-374.95" font-family="Helvetica,sans-Serif" font-size="14.00">samples = 33243</text>
<text text-anchor="middle" x="564" y="-357.7" font-family="Helvetica,sans-Serif" font-size="14.00">value = [24185, 28326]</text>
<text text-anchor="middle" x="564" y="-340.45" font-family="Helvetica,sans-Serif" font-size="14.00">class = Plant</text>
</g>
<!-- 0&#45;&gt;1 -->
<g id="edge1" class="edge">
<title>0&#45;&gt;1</title>
<path fill="none" stroke="black" d="M677.49,-462.39C664.55,-453.07 650.87,-443.22 637.65,-433.69"/>
<polygon fill="black" stroke="black" points="639.98,-431.06 629.82,-428.05 635.89,-436.73 639.98,-431.06"/>
<text text-anchor="middle" x="632.6" y="-447.17" font-family="Helvetica,sans-Serif" font-size="14.00">True</text>
</g>
<!-- 14534 -->
<g id="node17" class="node">
<title>14534</title>
<path fill="#eca36e" stroke="black" d="M998,-426.75C998,-426.75 856,-426.75 856,-426.75 850,-426.75 844,-420.75 844,-414.75 844,-414.75 844,-344.5 844,-344.5 844,-338.5 850,-332.5 856,-332.5 856,-332.5 998,-332.5 998,-332.5 1004,-332.5 1010,-338.5 1010,-344.5 1010,-344.5 1010,-414.75 1010,-414.75 1010,-420.75 1004,-426.75 998,-426.75"/>
<text text-anchor="middle" x="927" y="-409.45" font-family="Helvetica,sans-Serif" font-size="14.00">26_U &lt;= 0.5</text>
<text text-anchor="middle" x="927" y="-392.2" font-family="Helvetica,sans-Serif" font-size="14.00">entropy = 0.746</text>
<text text-anchor="middle" x="927" y="-374.95" font-family="Helvetica,sans-Serif" font-size="14.00">samples = 4926</text>
<text text-anchor="middle" x="927" y="-357.7" font-family="Helvetica,sans-Serif" font-size="14.00">value = [6170, 1664]</text>
<text text-anchor="middle" x="927" y="-340.45" font-family="Helvetica,sans-Serif" font-size="14.00">class = Animal</text>
</g>
<!-- 0&#45;&gt;14534 -->
<g id="edge16" class="edge">
<title>0&#45;&gt;14534</title>
<path fill="none" stroke="black" d="M809.05,-462.39C822.49,-453.07 836.71,-443.22 850.45,-433.69"/>
<polygon fill="black" stroke="black" points="852.4,-436.6 858.62,-428.03 848.41,-430.85 852.4,-436.6"/>
<text text-anchor="middle" x="855.41" y="-447.09" font-family="Helvetica,sans-Serif" font-size="14.00">False</text>
</g>
<!-- 2 -->
<g id="node3" class="node">
<title>2</title>
<path fill="#bbddf6" stroke="black" d="M370,-296.5C370,-296.5 210,-296.5 210,-296.5 204,-296.5 198,-290.5 198,-284.5 198,-284.5 198,-214.25 198,-214.25 198,-208.25 204,-202.25 210,-202.25 210,-202.25 370,-202.25 370,-202.25 376,-202.25 382,-208.25 382,-214.25 382,-214.25 382,-284.5 382,-284.5 382,-290.5 376,-296.5 370,-296.5"/>
<text text-anchor="middle" x="290" y="-279.2" font-family="Helvetica,sans-Serif" font-size="14.00">19_C &lt;= 0.5</text>
<text text-anchor="middle" x="290" y="-261.95" font-family="Helvetica,sans-Serif" font-size="14.00">entropy = 0.968</text>
<text text-anchor="middle" x="290" y="-244.7" font-family="Helvetica,sans-Serif" font-size="14.00">samples = 28144</text>
<text text-anchor="middle" x="290" y="-227.45" font-family="Helvetica,sans-Serif" font-size="14.00">value = [17584, 26849]</text>
<text text-anchor="middle" x="290" y="-210.2" font-family="Helvetica,sans-Serif" font-size="14.00">class = Plant</text>
</g>
<!-- 1&#45;&gt;2 -->
<g id="edge2" class="edge">
<title>1&#45;&gt;2</title>
<path fill="none" stroke="black" d="M471.62,-335.38C446.24,-323.51 418.58,-310.56 392.66,-298.43"/>
<polygon fill="black" stroke="black" points="394.36,-295.36 383.82,-294.29 391.39,-301.7 394.36,-295.36"/>
</g>
<!-- 12559 -->
<g id="node10" class="node">
<title>12559</title>
<path fill="#eb9d65" stroke="black" d="M635,-296.5C635,-296.5 493,-296.5 493,-296.5 487,-296.5 481,-290.5 481,-284.5 481,-284.5 481,-214.25 481,-214.25 481,-208.25 487,-202.25 493,-202.25 493,-202.25 635,-202.25 635,-202.25 641,-202.25 647,-208.25 647,-214.25 647,-214.25 647,-284.5 647,-284.5 647,-290.5 641,-296.5 635,-296.5"/>
<text text-anchor="middle" x="564" y="-279.2" font-family="Helvetica,sans-Serif" font-size="14.00">17_C &lt;= 0.5</text>
<text text-anchor="middle" x="564" y="-261.95" font-family="Helvetica,sans-Serif" font-size="14.00">entropy = 0.686</text>
<text text-anchor="middle" x="564" y="-244.7" font-family="Helvetica,sans-Serif" font-size="14.00">samples = 5099</text>
<text text-anchor="middle" x="564" y="-227.45" font-family="Helvetica,sans-Serif" font-size="14.00">value = [6601, 1477]</text>
<text text-anchor="middle" x="564" y="-210.2" font-family="Helvetica,sans-Serif" font-size="14.00">class = Animal</text>
</g>
<!-- 1&#45;&gt;12559 -->
<g id="edge9" class="edge">
<title>1&#45;&gt;12559</title>
<path fill="none" stroke="black" d="M564,-332.32C564,-324.42 564,-316.13 564,-307.98"/>
<polygon fill="black" stroke="black" points="567.5,-308.12 564,-298.12 560.5,-308.12 567.5,-308.12"/>
</g>
<!-- 3 -->
<g id="node4" class="node">
<title>3</title>
<path fill="#e6f3fc" stroke="black" d="M172,-166.25C172,-166.25 12,-166.25 12,-166.25 6,-166.25 0,-160.25 0,-154.25 0,-154.25 0,-84 0,-84 0,-78 6,-72 12,-72 12,-72 172,-72 172,-72 178,-72 184,-78 184,-84 184,-84 184,-154.25 184,-154.25 184,-160.25 178,-166.25 172,-166.25"/>
<text text-anchor="middle" x="92" y="-148.95" font-family="Helvetica,sans-Serif" font-size="14.00">17_G &lt;= 0.5</text>
<text text-anchor="middle" x="92" y="-131.7" font-family="Helvetica,sans-Serif" font-size="14.00">entropy = 0.997</text>
<text text-anchor="middle" x="92" y="-114.45" font-family="Helvetica,sans-Serif" font-size="14.00">samples = 18053</text>
<text text-anchor="middle" x="92" y="-97.2" font-family="Helvetica,sans-Serif" font-size="14.00">value = [13293, 15179]</text>
<text text-anchor="middle" x="92" y="-79.95" font-family="Helvetica,sans-Serif" font-size="14.00">class = Plant</text>
</g>
<!-- 2&#45;&gt;3 -->
<g id="edge3" class="edge">
<title>2&#45;&gt;3</title>
<path fill="none" stroke="black" d="M218.24,-201.89C203.71,-192.48 188.34,-182.53 173.5,-172.92"/>
<polygon fill="black" stroke="black" points="175.42,-169.99 165.12,-167.49 171.61,-175.86 175.42,-169.99"/>
</g>
<!-- 9336 -->
<g id="node7" class="node">
<title>9336</title>
<path fill="#82c1ef" stroke="black" d="M365.5,-166.25C365.5,-166.25 214.5,-166.25 214.5,-166.25 208.5,-166.25 202.5,-160.25 202.5,-154.25 202.5,-154.25 202.5,-84 202.5,-84 202.5,-78 208.5,-72 214.5,-72 214.5,-72 365.5,-72 365.5,-72 371.5,-72 377.5,-78 377.5,-84 377.5,-84 377.5,-154.25 377.5,-154.25 377.5,-160.25 371.5,-166.25 365.5,-166.25"/>
<text text-anchor="middle" x="290" y="-148.95" font-family="Helvetica,sans-Serif" font-size="14.00">10_A &lt;= 0.5</text>
<text text-anchor="middle" x="290" y="-131.7" font-family="Helvetica,sans-Serif" font-size="14.00">entropy = 0.84</text>
<text text-anchor="middle" x="290" y="-114.45" font-family="Helvetica,sans-Serif" font-size="14.00">samples = 10091</text>
<text text-anchor="middle" x="290" y="-97.2" font-family="Helvetica,sans-Serif" font-size="14.00">value = [4291, 11670]</text>
<text text-anchor="middle" x="290" y="-79.95" font-family="Helvetica,sans-Serif" font-size="14.00">class = Plant</text>
</g>
<!-- 2&#45;&gt;9336 -->
<g id="edge6" class="edge">
<title>2&#45;&gt;9336</title>
<path fill="none" stroke="black" d="M290,-202.07C290,-194.17 290,-185.88 290,-177.73"/>
<polygon fill="black" stroke="black" points="293.5,-177.87 290,-167.87 286.5,-177.87 293.5,-177.87"/>
</g>
<!-- 4 -->
<g id="node5" class="node">
<title>4</title>
<path fill="#c0c0c0" stroke="black" d="M71,-36C71,-36 41,-36 41,-36 35,-36 29,-30 29,-24 29,-24 29,-12 29,-12 29,-6 35,0 41,0 41,0 71,0 71,0 77,0 83,-6 83,-12 83,-12 83,-24 83,-24 83,-30 77,-36 71,-36"/>
<text text-anchor="middle" x="56" y="-13.32" font-family="Helvetica,sans-Serif" font-size="14.00">(...)</text>
</g>
<!-- 3&#45;&gt;4 -->
<g id="edge4" class="edge">
<title>3&#45;&gt;4</title>
<path fill="none" stroke="black" d="M75.16,-71.75C72.06,-63.22 68.92,-54.57 66.1,-46.8"/>
<polygon fill="black" stroke="black" points="69.46,-45.8 62.75,-37.6 62.88,-48.19 69.46,-45.8"/>
</g>
<!-- 6703 -->
<g id="node6" class="node">
<title>6703</title>
<path fill="#c0c0c0" stroke="black" d="M143,-36C143,-36 113,-36 113,-36 107,-36 101,-30 101,-24 101,-24 101,-12 101,-12 101,-6 107,0 113,0 113,0 143,0 143,0 149,0 155,-6 155,-12 155,-12 155,-24 155,-24 155,-30 149,-36 143,-36"/>
<text text-anchor="middle" x="128" y="-13.32" font-family="Helvetica,sans-Serif" font-size="14.00">(...)</text>
</g>
<!-- 3&#45;&gt;6703 -->
<g id="edge5" class="edge">
<title>3&#45;&gt;6703</title>
<path fill="none" stroke="black" d="M108.84,-71.75C111.94,-63.22 115.08,-54.57 117.9,-46.8"/>
<polygon fill="black" stroke="black" points="121.12,-48.19 121.25,-37.6 114.54,-45.8 121.12,-48.19"/>
</g>
<!-- 9337 -->
<g id="node8" class="node">
<title>9337</title>
<path fill="#c0c0c0" stroke="black" d="M274,-36C274,-36 244,-36 244,-36 238,-36 232,-30 232,-24 232,-24 232,-12 232,-12 232,-6 238,0 244,0 244,0 274,0 274,0 280,0 286,-6 286,-12 286,-12 286,-24 286,-24 286,-30 280,-36 274,-36"/>
<text text-anchor="middle" x="259" y="-13.32" font-family="Helvetica,sans-Serif" font-size="14.00">(...)</text>
</g>
<!-- 9336&#45;&gt;9337 -->
<g id="edge7" class="edge">
<title>9336&#45;&gt;9337</title>
<path fill="none" stroke="black" d="M275.5,-71.75C272.86,-63.32 270.19,-54.77 267.78,-47.07"/>
<polygon fill="black" stroke="black" points="271.15,-46.12 264.82,-37.62 264.47,-48.21 271.15,-46.12"/>
</g>
<!-- 11828 -->
<g id="node9" class="node">
<title>11828</title>
<path fill="#c0c0c0" stroke="black" d="M346,-36C346,-36 316,-36 316,-36 310,-36 304,-30 304,-24 304,-24 304,-12 304,-12 304,-6 310,0 316,0 316,0 346,0 346,0 352,0 358,-6 358,-12 358,-12 358,-24 358,-24 358,-30 352,-36 346,-36"/>
<text text-anchor="middle" x="331" y="-13.32" font-family="Helvetica,sans-Serif" font-size="14.00">(...)</text>
</g>
<!-- 9336&#45;&gt;11828 -->
<g id="edge8" class="edge">
<title>9336&#45;&gt;11828</title>
<path fill="none" stroke="black" d="M309.18,-71.75C312.71,-63.22 316.29,-54.57 319.5,-46.8"/>
<polygon fill="black" stroke="black" points="322.73,-48.15 323.32,-37.57 316.26,-45.47 322.73,-48.15"/>
</g>
<!-- 12560 -->
<g id="node11" class="node">
<title>12560</title>
<path fill="#eca16b" stroke="black" d="M550,-166.25C550,-166.25 408,-166.25 408,-166.25 402,-166.25 396,-160.25 396,-154.25 396,-154.25 396,-84 396,-84 396,-78 402,-72 408,-72 408,-72 550,-72 550,-72 556,-72 562,-78 562,-84 562,-84 562,-154.25 562,-154.25 562,-160.25 556,-166.25 550,-166.25"/>
<text text-anchor="middle" x="479" y="-148.95" font-family="Helvetica,sans-Serif" font-size="14.00">8_A &lt;= 0.5</text>
<text text-anchor="middle" x="479" y="-131.7" font-family="Helvetica,sans-Serif" font-size="14.00">entropy = 0.722</text>
<text text-anchor="middle" x="479" y="-114.45" font-family="Helvetica,sans-Serif" font-size="14.00">samples = 3963</text>
<text text-anchor="middle" x="479" y="-97.2" font-family="Helvetica,sans-Serif" font-size="14.00">value = [5046, 1263]</text>
<text text-anchor="middle" x="479" y="-79.95" font-family="Helvetica,sans-Serif" font-size="14.00">class = Animal</text>
</g>
<!-- 12559&#45;&gt;12560 -->
<g id="edge10" class="edge">
<title>12559&#45;&gt;12560</title>
<path fill="none" stroke="black" d="M533.31,-202.07C527.66,-193.54 521.7,-184.54 515.88,-175.77"/>
<polygon fill="black" stroke="black" points="518.92,-174.02 510.48,-167.62 513.09,-177.89 518.92,-174.02"/>
</g>
<!-- 14157 -->
<g id="node14" class="node">
<title>14157</title>
<path fill="#e99254" stroke="black" d="M725.5,-166.25C725.5,-166.25 592.5,-166.25 592.5,-166.25 586.5,-166.25 580.5,-160.25 580.5,-154.25 580.5,-154.25 580.5,-84 580.5,-84 580.5,-78 586.5,-72 592.5,-72 592.5,-72 725.5,-72 725.5,-72 731.5,-72 737.5,-78 737.5,-84 737.5,-84 737.5,-154.25 737.5,-154.25 737.5,-160.25 731.5,-166.25 725.5,-166.25"/>
<text text-anchor="middle" x="659" y="-148.95" font-family="Helvetica,sans-Serif" font-size="14.00">26_A &lt;= 0.5</text>
<text text-anchor="middle" x="659" y="-131.7" font-family="Helvetica,sans-Serif" font-size="14.00">entropy = 0.532</text>
<text text-anchor="middle" x="659" y="-114.45" font-family="Helvetica,sans-Serif" font-size="14.00">samples = 1136</text>
<text text-anchor="middle" x="659" y="-97.2" font-family="Helvetica,sans-Serif" font-size="14.00">value = [1555, 214]</text>
<text text-anchor="middle" x="659" y="-79.95" font-family="Helvetica,sans-Serif" font-size="14.00">class = Animal</text>
</g>
<!-- 12559&#45;&gt;14157 -->
<g id="edge13" class="edge">
<title>12559&#45;&gt;14157</title>
<path fill="none" stroke="black" d="M598.3,-202.07C604.69,-193.45 611.42,-184.35 617.99,-175.49"/>
<polygon fill="black" stroke="black" points="620.71,-177.69 623.85,-167.57 615.09,-173.53 620.71,-177.69"/>
</g>
<!-- 12561 -->
<g id="node12" class="node">
<title>12561</title>
<path fill="#c0c0c0" stroke="black" d="M440,-36C440,-36 410,-36 410,-36 404,-36 398,-30 398,-24 398,-24 398,-12 398,-12 398,-6 404,0 410,0 410,0 440,0 440,0 446,0 452,-6 452,-12 452,-12 452,-24 452,-24 452,-30 446,-36 440,-36"/>
<text text-anchor="middle" x="425" y="-13.32" font-family="Helvetica,sans-Serif" font-size="14.00">(...)</text>
</g>
<!-- 12560&#45;&gt;12561 -->
<g id="edge11" class="edge">
<title>12560&#45;&gt;12561</title>
<path fill="none" stroke="black" d="M453.74,-71.75C448.98,-63.03 444.16,-54.16 439.85,-46.26"/>
<polygon fill="black" stroke="black" points="442.94,-44.61 435.08,-37.5 436.79,-47.96 442.94,-44.61"/>
</g>
<!-- 13664 -->
<g id="node13" class="node">
<title>13664</title>
<path fill="#c0c0c0" stroke="black" d="M512,-36C512,-36 482,-36 482,-36 476,-36 470,-30 470,-24 470,-24 470,-12 470,-12 470,-6 476,0 482,0 482,0 512,0 512,0 518,0 524,-6 524,-12 524,-12 524,-24 524,-24 524,-30 518,-36 512,-36"/>
<text text-anchor="middle" x="497" y="-13.32" font-family="Helvetica,sans-Serif" font-size="14.00">(...)</text>
</g>
<!-- 12560&#45;&gt;13664 -->
<g id="edge12" class="edge">
<title>12560&#45;&gt;13664</title>
<path fill="none" stroke="black" d="M487.42,-71.75C488.93,-63.42 490.47,-54.97 491.85,-47.34"/>
<polygon fill="black" stroke="black" points="495.27,-48.13 493.61,-37.66 488.38,-46.88 495.27,-48.13"/>
</g>
<!-- 14158 -->
<g id="node15" class="node">
<title>14158</title>
<path fill="#c0c0c0" stroke="black" d="M620,-36C620,-36 590,-36 590,-36 584,-36 578,-30 578,-24 578,-24 578,-12 578,-12 578,-6 584,0 590,0 590,0 620,0 620,0 626,0 632,-6 632,-12 632,-12 632,-24 632,-24 632,-30 626,-36 620,-36"/>
<text text-anchor="middle" x="605" y="-13.32" font-family="Helvetica,sans-Serif" font-size="14.00">(...)</text>
</g>
<!-- 14157&#45;&gt;14158 -->
<g id="edge14" class="edge">
<title>14157&#45;&gt;14158</title>
<path fill="none" stroke="black" d="M633.74,-71.75C628.98,-63.03 624.16,-54.16 619.85,-46.26"/>
<polygon fill="black" stroke="black" points="622.94,-44.61 615.08,-37.5 616.79,-47.96 622.94,-44.61"/>
</g>
<!-- 14531 -->
<g id="node16" class="node">
<title>14531</title>
<path fill="#c0c0c0" stroke="black" d="M692,-36C692,-36 662,-36 662,-36 656,-36 650,-30 650,-24 650,-24 650,-12 650,-12 650,-6 656,0 662,0 662,0 692,0 692,0 698,0 704,-6 704,-12 704,-12 704,-24 704,-24 704,-30 698,-36 692,-36"/>
<text text-anchor="middle" x="677" y="-13.32" font-family="Helvetica,sans-Serif" font-size="14.00">(...)</text>
</g>
<!-- 14157&#45;&gt;14531 -->
<g id="edge15" class="edge">
<title>14157&#45;&gt;14531</title>
<path fill="none" stroke="black" d="M667.42,-71.75C668.93,-63.42 670.47,-54.97 671.85,-47.34"/>
<polygon fill="black" stroke="black" points="675.27,-48.13 673.61,-37.66 668.38,-46.88 675.27,-48.13"/>
</g>
<!-- 14535 -->
<g id="node18" class="node">
<title>14535</title>
<path fill="#eca26d" stroke="black" d="M998,-296.5C998,-296.5 856,-296.5 856,-296.5 850,-296.5 844,-290.5 844,-284.5 844,-284.5 844,-214.25 844,-214.25 844,-208.25 850,-202.25 856,-202.25 856,-202.25 998,-202.25 998,-202.25 1004,-202.25 1010,-208.25 1010,-214.25 1010,-214.25 1010,-284.5 1010,-284.5 1010,-290.5 1004,-296.5 998,-296.5"/>
<text text-anchor="middle" x="927" y="-279.2" font-family="Helvetica,sans-Serif" font-size="14.00">13_A &lt;= 0.5</text>
<text text-anchor="middle" x="927" y="-261.95" font-family="Helvetica,sans-Serif" font-size="14.00">entropy = 0.741</text>
<text text-anchor="middle" x="927" y="-244.7" font-family="Helvetica,sans-Serif" font-size="14.00">samples = 4893</text>
<text text-anchor="middle" x="927" y="-227.45" font-family="Helvetica,sans-Serif" font-size="14.00">value = [6153, 1631]</text>
<text text-anchor="middle" x="927" y="-210.2" font-family="Helvetica,sans-Serif" font-size="14.00">class = Animal</text>
</g>
<!-- 14534&#45;&gt;14535 -->
<g id="edge17" class="edge">
<title>14534&#45;&gt;14535</title>
<path fill="none" stroke="black" d="M927,-332.32C927,-324.42 927,-316.13 927,-307.98"/>
<polygon fill="black" stroke="black" points="930.5,-308.12 927,-298.12 923.5,-308.12 930.5,-308.12"/>
</g>
<!-- 16550 -->
<g id="node25" class="node">
<title>16550</title>
<path fill="#9fcff2" stroke="black" d="M1234.38,-296.5C1234.38,-296.5 1127.62,-296.5 1127.62,-296.5 1121.62,-296.5 1115.62,-290.5 1115.62,-284.5 1115.62,-284.5 1115.62,-214.25 1115.62,-214.25 1115.62,-208.25 1121.62,-202.25 1127.62,-202.25 1127.62,-202.25 1234.38,-202.25 1234.38,-202.25 1240.38,-202.25 1246.38,-208.25 1246.38,-214.25 1246.38,-214.25 1246.38,-284.5 1246.38,-284.5 1246.38,-290.5 1240.38,-296.5 1234.38,-296.5"/>
<text text-anchor="middle" x="1181" y="-279.2" font-family="Helvetica,sans-Serif" font-size="14.00">16_G &lt;= 0.5</text>
<text text-anchor="middle" x="1181" y="-261.95" font-family="Helvetica,sans-Serif" font-size="14.00">entropy = 0.925</text>
<text text-anchor="middle" x="1181" y="-244.7" font-family="Helvetica,sans-Serif" font-size="14.00">samples = 33</text>
<text text-anchor="middle" x="1181" y="-227.45" font-family="Helvetica,sans-Serif" font-size="14.00">value = [17, 33]</text>
<text text-anchor="middle" x="1181" y="-210.2" font-family="Helvetica,sans-Serif" font-size="14.00">class = Plant</text>
</g>
<!-- 14534&#45;&gt;16550 -->
<g id="edge24" class="edge">
<title>14534&#45;&gt;16550</title>
<path fill="none" stroke="black" d="M1010.17,-336.63C1040.85,-321.14 1075.41,-303.69 1105.39,-288.55"/>
<polygon fill="black" stroke="black" points="1106.66,-291.83 1114.01,-284.2 1103.51,-285.58 1106.66,-291.83"/>
</g>
<!-- 14536 -->
<g id="node19" class="node">
<title>14536</title>
<path fill="#eb9e66" stroke="black" d="M910,-166.25C910,-166.25 768,-166.25 768,-166.25 762,-166.25 756,-160.25 756,-154.25 756,-154.25 756,-84 756,-84 756,-78 762,-72 768,-72 768,-72 910,-72 910,-72 916,-72 922,-78 922,-84 922,-84 922,-154.25 922,-154.25 922,-160.25 916,-166.25 910,-166.25"/>
<text text-anchor="middle" x="839" y="-148.95" font-family="Helvetica,sans-Serif" font-size="14.00">9_A &lt;= 0.5</text>
<text text-anchor="middle" x="839" y="-131.7" font-family="Helvetica,sans-Serif" font-size="14.00">entropy = 0.691</text>
<text text-anchor="middle" x="839" y="-114.45" font-family="Helvetica,sans-Serif" font-size="14.00">samples = 3708</text>
<text text-anchor="middle" x="839" y="-97.2" font-family="Helvetica,sans-Serif" font-size="14.00">value = [4812, 1093]</text>
<text text-anchor="middle" x="839" y="-79.95" font-family="Helvetica,sans-Serif" font-size="14.00">class = Animal</text>
</g>
<!-- 14535&#45;&gt;14536 -->
<g id="edge18" class="edge">
<title>14535&#45;&gt;14536</title>
<path fill="none" stroke="black" d="M895.23,-202.07C889.37,-193.54 883.2,-184.54 877.18,-175.77"/>
<polygon fill="black" stroke="black" points="880.12,-173.87 871.58,-167.61 874.35,-177.83 880.12,-173.87"/>
</g>
<!-- 16037 -->
<g id="node22" class="node">
<title>16037</title>
<path fill="#efb488" stroke="black" d="M1085.5,-166.25C1085.5,-166.25 952.5,-166.25 952.5,-166.25 946.5,-166.25 940.5,-160.25 940.5,-154.25 940.5,-154.25 940.5,-84 940.5,-84 940.5,-78 946.5,-72 952.5,-72 952.5,-72 1085.5,-72 1085.5,-72 1091.5,-72 1097.5,-78 1097.5,-84 1097.5,-84 1097.5,-154.25 1097.5,-154.25 1097.5,-160.25 1091.5,-166.25 1085.5,-166.25"/>
<text text-anchor="middle" x="1019" y="-148.95" font-family="Helvetica,sans-Serif" font-size="14.00">21_C &lt;= 0.5</text>
<text text-anchor="middle" x="1019" y="-131.7" font-family="Helvetica,sans-Serif" font-size="14.00">entropy = 0.864</text>
<text text-anchor="middle" x="1019" y="-114.45" font-family="Helvetica,sans-Serif" font-size="14.00">samples = 1185</text>
<text text-anchor="middle" x="1019" y="-97.2" font-family="Helvetica,sans-Serif" font-size="14.00">value = [1341, 538]</text>
<text text-anchor="middle" x="1019" y="-79.95" font-family="Helvetica,sans-Serif" font-size="14.00">class = Animal</text>
</g>
<!-- 14535&#45;&gt;16037 -->
<g id="edge21" class="edge">
<title>14535&#45;&gt;16037</title>
<path fill="none" stroke="black" d="M960.21,-202.07C966.4,-193.45 972.93,-184.35 979.29,-175.49"/>
<polygon fill="black" stroke="black" points="981.97,-177.75 984.95,-167.59 976.28,-173.67 981.97,-177.75"/>
</g>
<!-- 14537 -->
<g id="node20" class="node">
<title>14537</title>
<path fill="#c0c0c0" stroke="black" d="M800,-36C800,-36 770,-36 770,-36 764,-36 758,-30 758,-24 758,-24 758,-12 758,-12 758,-6 764,0 770,0 770,0 800,0 800,0 806,0 812,-6 812,-12 812,-12 812,-24 812,-24 812,-30 806,-36 800,-36"/>
<text text-anchor="middle" x="785" y="-13.32" font-family="Helvetica,sans-Serif" font-size="14.00">(...)</text>
</g>
<!-- 14536&#45;&gt;14537 -->
<g id="edge19" class="edge">
<title>14536&#45;&gt;14537</title>
<path fill="none" stroke="black" d="M813.74,-71.75C808.98,-63.03 804.16,-54.16 799.85,-46.26"/>
<polygon fill="black" stroke="black" points="802.94,-44.61 795.08,-37.5 796.79,-47.96 802.94,-44.61"/>
</g>
<!-- 15660 -->
<g id="node21" class="node">
<title>15660</title>
<path fill="#c0c0c0" stroke="black" d="M872,-36C872,-36 842,-36 842,-36 836,-36 830,-30 830,-24 830,-24 830,-12 830,-12 830,-6 836,0 842,0 842,0 872,0 872,0 878,0 884,-6 884,-12 884,-12 884,-24 884,-24 884,-30 878,-36 872,-36"/>
<text text-anchor="middle" x="857" y="-13.32" font-family="Helvetica,sans-Serif" font-size="14.00">(...)</text>
</g>
<!-- 14536&#45;&gt;15660 -->
<g id="edge20" class="edge">
<title>14536&#45;&gt;15660</title>
<path fill="none" stroke="black" d="M847.42,-71.75C848.93,-63.42 850.47,-54.97 851.85,-47.34"/>
<polygon fill="black" stroke="black" points="855.27,-48.13 853.61,-37.66 848.38,-46.88 855.27,-48.13"/>
</g>
<!-- 16038 -->
<g id="node23" class="node">
<title>16038</title>
<path fill="#c0c0c0" stroke="black" d="M989,-36C989,-36 959,-36 959,-36 953,-36 947,-30 947,-24 947,-24 947,-12 947,-12 947,-6 953,0 959,0 959,0 989,0 989,0 995,0 1001,-6 1001,-12 1001,-12 1001,-24 1001,-24 1001,-30 995,-36 989,-36"/>
<text text-anchor="middle" x="974" y="-13.32" font-family="Helvetica,sans-Serif" font-size="14.00">(...)</text>
</g>
<!-- 16037&#45;&gt;16038 -->
<g id="edge22" class="edge">
<title>16037&#45;&gt;16038</title>
<path fill="none" stroke="black" d="M997.95,-71.75C994.03,-63.12 990.05,-54.36 986.5,-46.53"/>
<polygon fill="black" stroke="black" points="989.74,-45.21 982.42,-37.55 983.37,-48.1 989.74,-45.21"/>
</g>
<!-- 16459 -->
<g id="node24" class="node">
<title>16459</title>
<path fill="#c0c0c0" stroke="black" d="M1061,-36C1061,-36 1031,-36 1031,-36 1025,-36 1019,-30 1019,-24 1019,-24 1019,-12 1019,-12 1019,-6 1025,0 1031,0 1031,0 1061,0 1061,0 1067,0 1073,-6 1073,-12 1073,-12 1073,-24 1073,-24 1073,-30 1067,-36 1061,-36"/>
<text text-anchor="middle" x="1046" y="-13.32" font-family="Helvetica,sans-Serif" font-size="14.00">(...)</text>
</g>
<!-- 16037&#45;&gt;16459 -->
<g id="edge23" class="edge">
<title>16037&#45;&gt;16459</title>
<path fill="none" stroke="black" d="M1031.63,-71.75C1033.93,-63.32 1036.26,-54.77 1038.35,-47.07"/>
<polygon fill="black" stroke="black" points="1041.67,-48.2 1040.92,-37.63 1034.92,-46.36 1041.67,-48.2"/>
</g>
<!-- 16551 -->
<g id="node26" class="node">
<title>16551</title>
<path fill="#fdf8f3" stroke="black" d="M1234.38,-166.25C1234.38,-166.25 1127.62,-166.25 1127.62,-166.25 1121.62,-166.25 1115.62,-160.25 1115.62,-154.25 1115.62,-154.25 1115.62,-84 1115.62,-84 1115.62,-78 1121.62,-72 1127.62,-72 1127.62,-72 1234.38,-72 1234.38,-72 1240.38,-72 1246.38,-78 1246.38,-84 1246.38,-84 1246.38,-154.25 1246.38,-154.25 1246.38,-160.25 1240.38,-166.25 1234.38,-166.25"/>
<text text-anchor="middle" x="1181" y="-148.95" font-family="Helvetica,sans-Serif" font-size="14.00">2_U &lt;= 0.5</text>
<text text-anchor="middle" x="1181" y="-131.7" font-family="Helvetica,sans-Serif" font-size="14.00">entropy = 0.999</text>
<text text-anchor="middle" x="1181" y="-114.45" font-family="Helvetica,sans-Serif" font-size="14.00">samples = 21</text>
<text text-anchor="middle" x="1181" y="-97.2" font-family="Helvetica,sans-Serif" font-size="14.00">value = [17, 16]</text>
<text text-anchor="middle" x="1181" y="-79.95" font-family="Helvetica,sans-Serif" font-size="14.00">class = Animal</text>
</g>
<!-- 16550&#45;&gt;16551 -->
<g id="edge25" class="edge">
<title>16550&#45;&gt;16551</title>
<path fill="none" stroke="black" d="M1181,-202.07C1181,-194.17 1181,-185.88 1181,-177.73"/>
<polygon fill="black" stroke="black" points="1184.5,-177.87 1181,-167.87 1177.5,-177.87 1184.5,-177.87"/>
</g>
<!-- 16562 -->
<g id="node29" class="node">
<title>16562</title>
<path fill="#399de5" stroke="black" d="M1373.5,-157.62C1373.5,-157.62 1276.5,-157.62 1276.5,-157.62 1270.5,-157.62 1264.5,-151.62 1264.5,-145.62 1264.5,-145.62 1264.5,-92.62 1264.5,-92.62 1264.5,-86.62 1270.5,-80.62 1276.5,-80.62 1276.5,-80.62 1373.5,-80.62 1373.5,-80.62 1379.5,-80.62 1385.5,-86.62 1385.5,-92.62 1385.5,-92.62 1385.5,-145.62 1385.5,-145.62 1385.5,-151.62 1379.5,-157.62 1373.5,-157.62"/>
<text text-anchor="middle" x="1325" y="-140.32" font-family="Helvetica,sans-Serif" font-size="14.00">entropy = 0.0</text>
<text text-anchor="middle" x="1325" y="-123.08" font-family="Helvetica,sans-Serif" font-size="14.00">samples = 12</text>
<text text-anchor="middle" x="1325" y="-105.83" font-family="Helvetica,sans-Serif" font-size="14.00">value = [0, 17]</text>
<text text-anchor="middle" x="1325" y="-88.58" font-family="Helvetica,sans-Serif" font-size="14.00">class = Plant</text>
</g>
<!-- 16550&#45;&gt;16562 -->
<g id="edge28" class="edge">
<title>16550&#45;&gt;16562</title>
<path fill="none" stroke="black" d="M1232.99,-202.07C1246.34,-190.18 1260.68,-177.41 1273.98,-165.56"/>
<polygon fill="black" stroke="black" points="1276.28,-168.2 1281.42,-158.94 1271.62,-162.98 1276.28,-168.2"/>
</g>
<!-- 16552 -->
<g id="node27" class="node">
<title>16552</title>
<path fill="#c0c0c0" stroke="black" d="M1160,-36C1160,-36 1130,-36 1130,-36 1124,-36 1118,-30 1118,-24 1118,-24 1118,-12 1118,-12 1118,-6 1124,0 1130,0 1130,0 1160,0 1160,0 1166,0 1172,-6 1172,-12 1172,-12 1172,-24 1172,-24 1172,-30 1166,-36 1160,-36"/>
<text text-anchor="middle" x="1145" y="-13.32" font-family="Helvetica,sans-Serif" font-size="14.00">(...)</text>
</g>
<!-- 16551&#45;&gt;16552 -->
<g id="edge26" class="edge">
<title>16551&#45;&gt;16552</title>
<path fill="none" stroke="black" d="M1164.16,-71.75C1161.06,-63.22 1157.92,-54.57 1155.1,-46.8"/>
<polygon fill="black" stroke="black" points="1158.46,-45.8 1151.75,-37.6 1151.88,-48.19 1158.46,-45.8"/>
</g>
<!-- 16559 -->
<g id="node28" class="node">
<title>16559</title>
<path fill="#c0c0c0" stroke="black" d="M1232,-36C1232,-36 1202,-36 1202,-36 1196,-36 1190,-30 1190,-24 1190,-24 1190,-12 1190,-12 1190,-6 1196,0 1202,0 1202,0 1232,0 1232,0 1238,0 1244,-6 1244,-12 1244,-12 1244,-24 1244,-24 1244,-30 1238,-36 1232,-36"/>
<text text-anchor="middle" x="1217" y="-13.32" font-family="Helvetica,sans-Serif" font-size="14.00">(...)</text>
</g>
<!-- 16551&#45;&gt;16559 -->
<g id="edge27" class="edge">
<title>16551&#45;&gt;16559</title>
<path fill="none" stroke="black" d="M1197.84,-71.75C1200.94,-63.22 1204.08,-54.57 1206.9,-46.8"/>
<polygon fill="black" stroke="black" points="1210.12,-48.19 1210.25,-37.6 1203.54,-45.8 1210.12,-48.19"/>
</g>
</g>
</svg>
