<?xml version="1.0" encoding="UTF-8" standalone="no"?>
<!DOCTYPE svg PUBLIC "-//W3C//DTD SVG 1.1//EN"
 "http://www.w3.org/Graphics/SVG/1.1/DTD/svg11.dtd">
<!-- Generated by graphviz version 12.0.0 (20240803.0821)
 -->
<!-- Title: Tree Pages: 1 -->
<svg width="1429pt" height="565pt"
 viewBox="0.00 0.00 1429.00 565.00" xmlns="http://www.w3.org/2000/svg" xmlns:xlink="http://www.w3.org/1999/xlink">
<g id="graph0" class="graph" transform="scale(1 1) rotate(0) translate(4 561)">
<title>Tree</title>
<polygon fill="white" stroke="none" points="-4,4 -4,-561 1425,-561 1425,4 -4,4"/>
<!-- 0 -->
<g id="node1" class="node">
<title>0</title>
<path fill="#fffdfd" stroke="black" d="M804,-557C804,-557 644,-557 644,-557 638,-557 632,-551 632,-545 632,-545 632,-474.75 632,-474.75 632,-468.75 638,-462.75 644,-462.75 644,-462.75 804,-462.75 804,-462.75 810,-462.75 816,-468.75 816,-474.75 816,-474.75 816,-545 816,-545 816,-551 810,-557 804,-557"/>
<text text-anchor="middle" x="724" y="-539.7" font-family="Helvetica,sans-Serif" font-size="14.00">9_G &lt;= 0.5</text>
<text text-anchor="middle" x="724" y="-522.45" font-family="Helvetica,sans-Serif" font-size="14.00">entropy = 1.0</text>
<text text-anchor="middle" x="724" y="-505.2" font-family="Helvetica,sans-Serif" font-size="14.00">samples = 38091</text>
<text text-anchor="middle" x="724" y="-487.95" font-family="Helvetica,sans-Serif" font-size="14.00">value = [30356, 29989]</text>
<text text-anchor="middle" x="724" y="-470.7" font-family="Helvetica,sans-Serif" font-size="14.00">class = Animal</text>
</g>
<!-- 1 -->
<g id="node2" class="node">
<title>1</title>
<path fill="#fbece1" stroke="black" d="M631,-426.75C631,-426.75 471,-426.75 471,-426.75 465,-426.75 459,-420.75 459,-414.75 459,-414.75 459,-344.5 459,-344.5 459,-338.5 465,-332.5 471,-332.5 471,-332.5 631,-332.5 631,-332.5 637,-332.5 643,-338.5 643,-344.5 643,-344.5 643,-414.75 643,-414.75 643,-420.75 637,-426.75 631,-426.75"/>
<text text-anchor="middle" x="551" y="-409.45" font-family="Helvetica,sans-Serif" font-size="14.00">19_C &lt;= 0.5</text>
<text text-anchor="middle" x="551" y="-392.2" font-family="Helvetica,sans-Serif" font-size="14.00">entropy = 0.995</text>
<text text-anchor="middle" x="551" y="-374.95" font-family="Helvetica,sans-Serif" font-size="14.00">samples = 27623</text>
<text text-anchor="middle" x="551" y="-357.7" font-family="Helvetica,sans-Serif" font-size="14.00">value = [23603, 20085]</text>
<text text-anchor="middle" x="551" y="-340.45" font-family="Helvetica,sans-Serif" font-size="14.00">class = Animal</text>
</g>
<!-- 0&#45;&gt;1 -->
<g id="edge1" class="edge">
<title>0&#45;&gt;1</title>
<path fill="none" stroke="black" d="M661.54,-462.57C649,-453.28 635.73,-443.44 622.9,-433.93"/>
<polygon fill="black" stroke="black" points="624.99,-431.12 614.87,-427.97 620.82,-436.74 624.99,-431.12"/>
<text text-anchor="middle" x="617.33" y="-447.13" font-family="Helvetica,sans-Serif" font-size="14.00">True</text>
</g>
<!-- 12282 -->
<g id="node17" class="node">
<title>12282</title>
<path fill="#c0e0f7" stroke="black" d="M977,-426.75C977,-426.75 835,-426.75 835,-426.75 829,-426.75 823,-420.75 823,-414.75 823,-414.75 823,-344.5 823,-344.5 823,-338.5 829,-332.5 835,-332.5 835,-332.5 977,-332.5 977,-332.5 983,-332.5 989,-338.5 989,-344.5 989,-344.5 989,-414.75 989,-414.75 989,-420.75 983,-426.75 977,-426.75"/>
<text text-anchor="middle" x="906" y="-409.45" font-family="Helvetica,sans-Serif" font-size="14.00">18_C &lt;= 0.5</text>
<text text-anchor="middle" x="906" y="-392.2" font-family="Helvetica,sans-Serif" font-size="14.00">entropy = 0.974</text>
<text text-anchor="middle" x="906" y="-374.95" font-family="Helvetica,sans-Serif" font-size="14.00">samples = 10468</text>
<text text-anchor="middle" x="906" y="-357.7" font-family="Helvetica,sans-Serif" font-size="14.00">value = [6753, 9904]</text>
<text text-anchor="middle" x="906" y="-340.45" font-family="Helvetica,sans-Serif" font-size="14.00">class = Plant</text>
</g>
<!-- 0&#45;&gt;12282 -->
<g id="edge16" class="edge">
<title>0&#45;&gt;12282</title>
<path fill="none" stroke="black" d="M789.96,-462.39C803.19,-453.07 817.18,-443.22 830.69,-433.69"/>
<polygon fill="black" stroke="black" points="832.56,-436.66 838.72,-428.04 828.53,-430.94 832.56,-436.66"/>
<text text-anchor="middle" x="835.69" y="-447.12" font-family="Helvetica,sans-Serif" font-size="14.00">False</text>
</g>
<!-- 2 -->
<g id="node3" class="node">
<title>2</title>
<path fill="#f7d7c1" stroke="black" d="M361,-296.5C361,-296.5 201,-296.5 201,-296.5 195,-296.5 189,-290.5 189,-284.5 189,-284.5 189,-214.25 189,-214.25 189,-208.25 195,-202.25 201,-202.25 201,-202.25 361,-202.25 361,-202.25 367,-202.25 373,-208.25 373,-214.25 373,-214.25 373,-284.5 373,-284.5 373,-290.5 367,-296.5 361,-296.5"/>
<text text-anchor="middle" x="281" y="-279.2" font-family="Helvetica,sans-Serif" font-size="14.00">22_A &lt;= 0.5</text>
<text text-anchor="middle" x="281" y="-261.95" font-family="Helvetica,sans-Serif" font-size="14.00">entropy = 0.975</text>
<text text-anchor="middle" x="281" y="-244.7" font-family="Helvetica,sans-Serif" font-size="14.00">samples = 19362</text>
<text text-anchor="middle" x="281" y="-227.45" font-family="Helvetica,sans-Serif" font-size="14.00">value = [18179, 12468]</text>
<text text-anchor="middle" x="281" y="-210.2" font-family="Helvetica,sans-Serif" font-size="14.00">class = Animal</text>
</g>
<!-- 1&#45;&gt;2 -->
<g id="edge2" class="edge">
<title>1&#45;&gt;2</title>
<path fill="none" stroke="black" d="M458.84,-334.85C434.53,-323.3 408.17,-310.78 383.36,-299"/>
<polygon fill="black" stroke="black" points="385.11,-295.95 374.57,-294.82 382.1,-302.27 385.11,-295.95"/>
</g>
<!-- 9197 -->
<g id="node10" class="node">
<title>9197</title>
<path fill="#c6e3f8" stroke="black" d="M622,-296.5C622,-296.5 480,-296.5 480,-296.5 474,-296.5 468,-290.5 468,-284.5 468,-284.5 468,-214.25 468,-214.25 468,-208.25 474,-202.25 480,-202.25 480,-202.25 622,-202.25 622,-202.25 628,-202.25 634,-208.25 634,-214.25 634,-214.25 634,-284.5 634,-284.5 634,-290.5 628,-296.5 622,-296.5"/>
<text text-anchor="middle" x="551" y="-279.2" font-family="Helvetica,sans-Serif" font-size="14.00">2_C &lt;= 0.5</text>
<text text-anchor="middle" x="551" y="-261.95" font-family="Helvetica,sans-Serif" font-size="14.00">entropy = 0.98</text>
<text text-anchor="middle" x="551" y="-244.7" font-family="Helvetica,sans-Serif" font-size="14.00">samples = 8261</text>
<text text-anchor="middle" x="551" y="-227.45" font-family="Helvetica,sans-Serif" font-size="14.00">value = [5424, 7617]</text>
<text text-anchor="middle" x="551" y="-210.2" font-family="Helvetica,sans-Serif" font-size="14.00">class = Plant</text>
</g>
<!-- 1&#45;&gt;9197 -->
<g id="edge9" class="edge">
<title>1&#45;&gt;9197</title>
<path fill="none" stroke="black" d="M551,-332.32C551,-324.42 551,-316.13 551,-307.98"/>
<polygon fill="black" stroke="black" points="554.5,-308.12 551,-298.12 547.5,-308.12 554.5,-308.12"/>
</g>
<!-- 3 -->
<g id="node4" class="node">
<title>3</title>
<path fill="#f9e0ce" stroke="black" d="M172,-166.25C172,-166.25 12,-166.25 12,-166.25 6,-166.25 0,-160.25 0,-154.25 0,-154.25 0,-84 0,-84 0,-78 6,-72 12,-72 12,-72 172,-72 172,-72 178,-72 184,-78 184,-84 184,-84 184,-154.25 184,-154.25 184,-160.25 178,-166.25 172,-166.25"/>
<text text-anchor="middle" x="92" y="-148.95" font-family="Helvetica,sans-Serif" font-size="14.00">8_G &lt;= 0.5</text>
<text text-anchor="middle" x="92" y="-131.7" font-family="Helvetica,sans-Serif" font-size="14.00">entropy = 0.986</text>
<text text-anchor="middle" x="92" y="-114.45" font-family="Helvetica,sans-Serif" font-size="14.00">samples = 17053</text>
<text text-anchor="middle" x="92" y="-97.2" font-family="Helvetica,sans-Serif" font-size="14.00">value = [15395, 11623]</text>
<text text-anchor="middle" x="92" y="-79.95" font-family="Helvetica,sans-Serif" font-size="14.00">class = Animal</text>
</g>
<!-- 2&#45;&gt;3 -->
<g id="edge3" class="edge">
<title>2&#45;&gt;3</title>
<path fill="none" stroke="black" d="M212.5,-201.89C198.63,-192.48 183.96,-182.53 169.8,-172.92"/>
<polygon fill="black" stroke="black" points="172.08,-170.23 161.84,-167.51 168.15,-176.03 172.08,-170.23"/>
</g>
<!-- 8118 -->
<g id="node7" class="node">
<title>8118</title>
<path fill="#eda775" stroke="black" d="M347.5,-166.25C347.5,-166.25 214.5,-166.25 214.5,-166.25 208.5,-166.25 202.5,-160.25 202.5,-154.25 202.5,-154.25 202.5,-84 202.5,-84 202.5,-78 208.5,-72 214.5,-72 214.5,-72 347.5,-72 347.5,-72 353.5,-72 359.5,-78 359.5,-84 359.5,-84 359.5,-154.25 359.5,-154.25 359.5,-160.25 353.5,-166.25 347.5,-166.25"/>
<text text-anchor="middle" x="281" y="-148.95" font-family="Helvetica,sans-Serif" font-size="14.00">4_U &lt;= 0.5</text>
<text text-anchor="middle" x="281" y="-131.7" font-family="Helvetica,sans-Serif" font-size="14.00">entropy = 0.783</text>
<text text-anchor="middle" x="281" y="-114.45" font-family="Helvetica,sans-Serif" font-size="14.00">samples = 2309</text>
<text text-anchor="middle" x="281" y="-97.2" font-family="Helvetica,sans-Serif" font-size="14.00">value = [2784, 845]</text>
<text text-anchor="middle" x="281" y="-79.95" font-family="Helvetica,sans-Serif" font-size="14.00">class = Animal</text>
</g>
<!-- 2&#45;&gt;8118 -->
<g id="edge6" class="edge">
<title>2&#45;&gt;8118</title>
<path fill="none" stroke="black" d="M281,-202.07C281,-194.17 281,-185.88 281,-177.73"/>
<polygon fill="black" stroke="black" points="284.5,-177.87 281,-167.87 277.5,-177.87 284.5,-177.87"/>
</g>
<!-- 4 -->
<g id="node5" class="node">
<title>4</title>
<path fill="#c0c0c0" stroke="black" d="M71,-36C71,-36 41,-36 41,-36 35,-36 29,-30 29,-24 29,-24 29,-12 29,-12 29,-6 35,0 41,0 41,0 71,0 71,0 77,0 83,-6 83,-12 83,-12 83,-24 83,-24 83,-30 77,-36 71,-36"/>
<text text-anchor="middle" x="56" y="-13.32" font-family="Helvetica,sans-Serif" font-size="14.00">(...)</text>
</g>
<!-- 3&#45;&gt;4 -->
<g id="edge4" class="edge">
<title>3&#45;&gt;4</title>
<path fill="none" stroke="black" d="M75.16,-71.75C72.06,-63.22 68.92,-54.57 66.1,-46.8"/>
<polygon fill="black" stroke="black" points="69.46,-45.8 62.75,-37.6 62.88,-48.19 69.46,-45.8"/>
</g>
<!-- 5889 -->
<g id="node6" class="node">
<title>5889</title>
<path fill="#c0c0c0" stroke="black" d="M143,-36C143,-36 113,-36 113,-36 107,-36 101,-30 101,-24 101,-24 101,-12 101,-12 101,-6 107,0 113,0 113,0 143,0 143,0 149,0 155,-6 155,-12 155,-12 155,-24 155,-24 155,-30 149,-36 143,-36"/>
<text text-anchor="middle" x="128" y="-13.32" font-family="Helvetica,sans-Serif" font-size="14.00">(...)</text>
</g>
<!-- 3&#45;&gt;5889 -->
<g id="edge5" class="edge">
<title>3&#45;&gt;5889</title>
<path fill="none" stroke="black" d="M108.84,-71.75C111.94,-63.22 115.08,-54.57 117.9,-46.8"/>
<polygon fill="black" stroke="black" points="121.12,-48.19 121.25,-37.6 114.54,-45.8 121.12,-48.19"/>
</g>
<!-- 8119 -->
<g id="node8" class="node">
<title>8119</title>
<path fill="#c0c0c0" stroke="black" d="M260,-36C260,-36 230,-36 230,-36 224,-36 218,-30 218,-24 218,-24 218,-12 218,-12 218,-6 224,0 230,0 230,0 260,0 260,0 266,0 272,-6 272,-12 272,-12 272,-24 272,-24 272,-30 266,-36 260,-36"/>
<text text-anchor="middle" x="245" y="-13.32" font-family="Helvetica,sans-Serif" font-size="14.00">(...)</text>
</g>
<!-- 8118&#45;&gt;8119 -->
<g id="edge7" class="edge">
<title>8118&#45;&gt;8119</title>
<path fill="none" stroke="black" d="M264.16,-71.75C261.06,-63.22 257.92,-54.57 255.1,-46.8"/>
<polygon fill="black" stroke="black" points="258.46,-45.8 251.75,-37.6 251.88,-48.19 258.46,-45.8"/>
</g>
<!-- 8926 -->
<g id="node9" class="node">
<title>8926</title>
<path fill="#c0c0c0" stroke="black" d="M332,-36C332,-36 302,-36 302,-36 296,-36 290,-30 290,-24 290,-24 290,-12 290,-12 290,-6 296,0 302,0 302,0 332,0 332,0 338,0 344,-6 344,-12 344,-12 344,-24 344,-24 344,-30 338,-36 332,-36"/>
<text text-anchor="middle" x="317" y="-13.32" font-family="Helvetica,sans-Serif" font-size="14.00">(...)</text>
</g>
<!-- 8118&#45;&gt;8926 -->
<g id="edge8" class="edge">
<title>8118&#45;&gt;8926</title>
<path fill="none" stroke="black" d="M297.84,-71.75C300.94,-63.22 304.08,-54.57 306.9,-46.8"/>
<polygon fill="black" stroke="black" points="310.12,-48.19 310.25,-37.6 303.54,-45.8 310.12,-48.19"/>
</g>
<!-- 9198 -->
<g id="node11" class="node">
<title>9198</title>
<path fill="#b3daf5" stroke="black" d="M532,-166.25C532,-166.25 390,-166.25 390,-166.25 384,-166.25 378,-160.25 378,-154.25 378,-154.25 378,-84 378,-84 378,-78 384,-72 390,-72 390,-72 532,-72 532,-72 538,-72 544,-78 544,-84 544,-84 544,-154.25 544,-154.25 544,-160.25 538,-166.25 532,-166.25"/>
<text text-anchor="middle" x="461" y="-148.95" font-family="Helvetica,sans-Serif" font-size="14.00">8_G &lt;= 0.5</text>
<text text-anchor="middle" x="461" y="-131.7" font-family="Helvetica,sans-Serif" font-size="14.00">entropy = 0.959</text>
<text text-anchor="middle" x="461" y="-114.45" font-family="Helvetica,sans-Serif" font-size="14.00">samples = 6867</text>
<text text-anchor="middle" x="461" y="-97.2" font-family="Helvetica,sans-Serif" font-size="14.00">value = [4152, 6716]</text>
<text text-anchor="middle" x="461" y="-79.95" font-family="Helvetica,sans-Serif" font-size="14.00">class = Plant</text>
</g>
<!-- 9197&#45;&gt;9198 -->
<g id="edge10" class="edge">
<title>9197&#45;&gt;9198</title>
<path fill="none" stroke="black" d="M518.51,-202.07C512.52,-193.54 506.21,-184.54 500.05,-175.77"/>
<polygon fill="black" stroke="black" points="502.92,-173.77 494.31,-167.6 497.19,-177.79 502.92,-173.77"/>
</g>
<!-- 11681 -->
<g id="node14" class="node">
<title>11681</title>
<path fill="#f7dac5" stroke="black" d="M707.5,-166.25C707.5,-166.25 574.5,-166.25 574.5,-166.25 568.5,-166.25 562.5,-160.25 562.5,-154.25 562.5,-154.25 562.5,-84 562.5,-84 562.5,-78 568.5,-72 574.5,-72 574.5,-72 707.5,-72 707.5,-72 713.5,-72 719.5,-78 719.5,-84 719.5,-84 719.5,-154.25 719.5,-154.25 719.5,-160.25 713.5,-166.25 707.5,-166.25"/>
<text text-anchor="middle" x="641" y="-148.95" font-family="Helvetica,sans-Serif" font-size="14.00">22_U &lt;= 0.5</text>
<text text-anchor="middle" x="641" y="-131.7" font-family="Helvetica,sans-Serif" font-size="14.00">entropy = 0.979</text>
<text text-anchor="middle" x="641" y="-114.45" font-family="Helvetica,sans-Serif" font-size="14.00">samples = 1394</text>
<text text-anchor="middle" x="641" y="-97.2" font-family="Helvetica,sans-Serif" font-size="14.00">value = [1272, 901]</text>
<text text-anchor="middle" x="641" y="-79.95" font-family="Helvetica,sans-Serif" font-size="14.00">class = Animal</text>
</g>
<!-- 9197&#45;&gt;11681 -->
<g id="edge13" class="edge">
<title>9197&#45;&gt;11681</title>
<path fill="none" stroke="black" d="M583.49,-202.07C589.48,-193.54 595.79,-184.54 601.95,-175.77"/>
<polygon fill="black" stroke="black" points="604.81,-177.79 607.69,-167.6 599.08,-173.77 604.81,-177.79"/>
</g>
<!-- 9199 -->
<g id="node12" class="node">
<title>9199</title>
<path fill="#c0c0c0" stroke="black" d="M422,-36C422,-36 392,-36 392,-36 386,-36 380,-30 380,-24 380,-24 380,-12 380,-12 380,-6 386,0 392,0 392,0 422,0 422,0 428,0 434,-6 434,-12 434,-12 434,-24 434,-24 434,-30 428,-36 422,-36"/>
<text text-anchor="middle" x="407" y="-13.32" font-family="Helvetica,sans-Serif" font-size="14.00">(...)</text>
</g>
<!-- 9198&#45;&gt;9199 -->
<g id="edge11" class="edge">
<title>9198&#45;&gt;9199</title>
<path fill="none" stroke="black" d="M435.74,-71.75C430.98,-63.03 426.16,-54.16 421.85,-46.26"/>
<polygon fill="black" stroke="black" points="424.94,-44.61 417.08,-37.5 418.79,-47.96 424.94,-44.61"/>
</g>
<!-- 11020 -->
<g id="node13" class="node">
<title>11020</title>
<path fill="#c0c0c0" stroke="black" d="M494,-36C494,-36 464,-36 464,-36 458,-36 452,-30 452,-24 452,-24 452,-12 452,-12 452,-6 458,0 464,0 464,0 494,0 494,0 500,0 506,-6 506,-12 506,-12 506,-24 506,-24 506,-30 500,-36 494,-36"/>
<text text-anchor="middle" x="479" y="-13.32" font-family="Helvetica,sans-Serif" font-size="14.00">(...)</text>
</g>
<!-- 9198&#45;&gt;11020 -->
<g id="edge12" class="edge">
<title>9198&#45;&gt;11020</title>
<path fill="none" stroke="black" d="M469.42,-71.75C470.93,-63.42 472.47,-54.97 473.85,-47.34"/>
<polygon fill="black" stroke="black" points="477.27,-48.13 475.61,-37.66 470.38,-46.88 477.27,-48.13"/>
</g>
<!-- 11682 -->
<g id="node15" class="node">
<title>11682</title>
<path fill="#c0c0c0" stroke="black" d="M602,-36C602,-36 572,-36 572,-36 566,-36 560,-30 560,-24 560,-24 560,-12 560,-12 560,-6 566,0 572,0 572,0 602,0 602,0 608,0 614,-6 614,-12 614,-12 614,-24 614,-24 614,-30 608,-36 602,-36"/>
<text text-anchor="middle" x="587" y="-13.32" font-family="Helvetica,sans-Serif" font-size="14.00">(...)</text>
</g>
<!-- 11681&#45;&gt;11682 -->
<g id="edge14" class="edge">
<title>11681&#45;&gt;11682</title>
<path fill="none" stroke="black" d="M615.74,-71.75C610.98,-63.03 606.16,-54.16 601.85,-46.26"/>
<polygon fill="black" stroke="black" points="604.94,-44.61 597.08,-37.5 598.79,-47.96 604.94,-44.61"/>
</g>
<!-- 12217 -->
<g id="node16" class="node">
<title>12217</title>
<path fill="#c0c0c0" stroke="black" d="M674,-36C674,-36 644,-36 644,-36 638,-36 632,-30 632,-24 632,-24 632,-12 632,-12 632,-6 638,0 644,0 644,0 674,0 674,0 680,0 686,-6 686,-12 686,-12 686,-24 686,-24 686,-30 680,-36 674,-36"/>
<text text-anchor="middle" x="659" y="-13.32" font-family="Helvetica,sans-Serif" font-size="14.00">(...)</text>
</g>
<!-- 11681&#45;&gt;12217 -->
<g id="edge15" class="edge">
<title>11681&#45;&gt;12217</title>
<path fill="none" stroke="black" d="M649.42,-71.75C650.93,-63.42 652.47,-54.97 653.85,-47.34"/>
<polygon fill="black" stroke="black" points="657.27,-48.13 655.61,-37.66 650.38,-46.88 657.27,-48.13"/>
</g>
<!-- 12283 -->
<g id="node18" class="node">
<title>12283</title>
<path fill="#fef9f6" stroke="black" d="M977,-296.5C977,-296.5 835,-296.5 835,-296.5 829,-296.5 823,-290.5 823,-284.5 823,-284.5 823,-214.25 823,-214.25 823,-208.25 829,-202.25 835,-202.25 835,-202.25 977,-202.25 977,-202.25 983,-202.25 989,-208.25 989,-214.25 989,-214.25 989,-284.5 989,-284.5 989,-290.5 983,-296.5 977,-296.5"/>
<text text-anchor="middle" x="906" y="-279.2" font-family="Helvetica,sans-Serif" font-size="14.00">2_A &lt;= 0.5</text>
<text text-anchor="middle" x="906" y="-261.95" font-family="Helvetica,sans-Serif" font-size="14.00">entropy = 1.0</text>
<text text-anchor="middle" x="906" y="-244.7" font-family="Helvetica,sans-Serif" font-size="14.00">samples = 6646</text>
<text text-anchor="middle" x="906" y="-227.45" font-family="Helvetica,sans-Serif" font-size="14.00">value = [5406, 5166]</text>
<text text-anchor="middle" x="906" y="-210.2" font-family="Helvetica,sans-Serif" font-size="14.00">class = Animal</text>
</g>
<!-- 12282&#45;&gt;12283 -->
<g id="edge17" class="edge">
<title>12282&#45;&gt;12283</title>
<path fill="none" stroke="black" d="M906,-332.32C906,-324.42 906,-316.13 906,-307.98"/>
<polygon fill="black" stroke="black" points="909.5,-308.12 906,-298.12 902.5,-308.12 909.5,-308.12"/>
</g>
<!-- 15636 -->
<g id="node25" class="node">
<title>15636</title>
<path fill="#71b9ec" stroke="black" d="M1247,-296.5C1247,-296.5 1105,-296.5 1105,-296.5 1099,-296.5 1093,-290.5 1093,-284.5 1093,-284.5 1093,-214.25 1093,-214.25 1093,-208.25 1099,-202.25 1105,-202.25 1105,-202.25 1247,-202.25 1247,-202.25 1253,-202.25 1259,-208.25 1259,-214.25 1259,-214.25 1259,-284.5 1259,-284.5 1259,-290.5 1253,-296.5 1247,-296.5"/>
<text text-anchor="middle" x="1176" y="-279.2" font-family="Helvetica,sans-Serif" font-size="14.00">8_U &lt;= 0.5</text>
<text text-anchor="middle" x="1176" y="-261.95" font-family="Helvetica,sans-Serif" font-size="14.00">entropy = 0.763</text>
<text text-anchor="middle" x="1176" y="-244.7" font-family="Helvetica,sans-Serif" font-size="14.00">samples = 3822</text>
<text text-anchor="middle" x="1176" y="-227.45" font-family="Helvetica,sans-Serif" font-size="14.00">value = [1347, 4738]</text>
<text text-anchor="middle" x="1176" y="-210.2" font-family="Helvetica,sans-Serif" font-size="14.00">class = Plant</text>
</g>
<!-- 12282&#45;&gt;15636 -->
<g id="edge24" class="edge">
<title>12282&#45;&gt;15636</title>
<path fill="none" stroke="black" d="M989.21,-339.1C1018.72,-325.08 1052.13,-309.21 1082.45,-294.81"/>
<polygon fill="black" stroke="black" points="1083.7,-298.09 1091.23,-290.64 1080.7,-291.77 1083.7,-298.09"/>
</g>
<!-- 12284 -->
<g id="node19" class="node">
<title>12284</title>
<path fill="#eff7fd" stroke="black" d="M892,-166.25C892,-166.25 750,-166.25 750,-166.25 744,-166.25 738,-160.25 738,-154.25 738,-154.25 738,-84 738,-84 738,-78 744,-72 750,-72 750,-72 892,-72 892,-72 898,-72 904,-78 904,-84 904,-84 904,-154.25 904,-154.25 904,-160.25 898,-166.25 892,-166.25"/>
<text text-anchor="middle" x="821" y="-148.95" font-family="Helvetica,sans-Serif" font-size="14.00">23_G &lt;= 0.5</text>
<text text-anchor="middle" x="821" y="-131.7" font-family="Helvetica,sans-Serif" font-size="14.00">entropy = 0.999</text>
<text text-anchor="middle" x="821" y="-114.45" font-family="Helvetica,sans-Serif" font-size="14.00">samples = 5175</text>
<text text-anchor="middle" x="821" y="-97.2" font-family="Helvetica,sans-Serif" font-size="14.00">value = [3960, 4305]</text>
<text text-anchor="middle" x="821" y="-79.95" font-family="Helvetica,sans-Serif" font-size="14.00">class = Plant</text>
</g>
<!-- 12283&#45;&gt;12284 -->
<g id="edge18" class="edge">
<title>12283&#45;&gt;12284</title>
<path fill="none" stroke="black" d="M875.31,-202.07C869.66,-193.54 863.7,-184.54 857.88,-175.77"/>
<polygon fill="black" stroke="black" points="860.92,-174.02 852.48,-167.62 855.09,-177.89 860.92,-174.02"/>
</g>
<!-- 14869 -->
<g id="node22" class="node">
<title>14869</title>
<path fill="#f4ccaf" stroke="black" d="M1067.5,-166.25C1067.5,-166.25 934.5,-166.25 934.5,-166.25 928.5,-166.25 922.5,-160.25 922.5,-154.25 922.5,-154.25 922.5,-84 922.5,-84 922.5,-78 928.5,-72 934.5,-72 934.5,-72 1067.5,-72 1067.5,-72 1073.5,-72 1079.5,-78 1079.5,-84 1079.5,-84 1079.5,-154.25 1079.5,-154.25 1079.5,-160.25 1073.5,-166.25 1067.5,-166.25"/>
<text text-anchor="middle" x="1001" y="-148.95" font-family="Helvetica,sans-Serif" font-size="14.00">4_U &lt;= 0.5</text>
<text text-anchor="middle" x="1001" y="-131.7" font-family="Helvetica,sans-Serif" font-size="14.00">entropy = 0.953</text>
<text text-anchor="middle" x="1001" y="-114.45" font-family="Helvetica,sans-Serif" font-size="14.00">samples = 1471</text>
<text text-anchor="middle" x="1001" y="-97.2" font-family="Helvetica,sans-Serif" font-size="14.00">value = [1446, 861]</text>
<text text-anchor="middle" x="1001" y="-79.95" font-family="Helvetica,sans-Serif" font-size="14.00">class = Animal</text>
</g>
<!-- 12283&#45;&gt;14869 -->
<g id="edge21" class="edge">
<title>12283&#45;&gt;14869</title>
<path fill="none" stroke="black" d="M940.3,-202.07C946.69,-193.45 953.42,-184.35 959.99,-175.49"/>
<polygon fill="black" stroke="black" points="962.71,-177.69 965.85,-167.57 957.09,-173.53 962.71,-177.69"/>
</g>
<!-- 12285 -->
<g id="node20" class="node">
<title>12285</title>
<path fill="#c0c0c0" stroke="black" d="M782,-36C782,-36 752,-36 752,-36 746,-36 740,-30 740,-24 740,-24 740,-12 740,-12 740,-6 746,0 752,0 752,0 782,0 782,0 788,0 794,-6 794,-12 794,-12 794,-24 794,-24 794,-30 788,-36 782,-36"/>
<text text-anchor="middle" x="767" y="-13.32" font-family="Helvetica,sans-Serif" font-size="14.00">(...)</text>
</g>
<!-- 12284&#45;&gt;12285 -->
<g id="edge19" class="edge">
<title>12284&#45;&gt;12285</title>
<path fill="none" stroke="black" d="M795.74,-71.75C790.98,-63.03 786.16,-54.16 781.85,-46.26"/>
<polygon fill="black" stroke="black" points="784.94,-44.61 777.08,-37.5 778.79,-47.96 784.94,-44.61"/>
</g>
<!-- 14782 -->
<g id="node21" class="node">
<title>14782</title>
<path fill="#c0c0c0" stroke="black" d="M854,-36C854,-36 824,-36 824,-36 818,-36 812,-30 812,-24 812,-24 812,-12 812,-12 812,-6 818,0 824,0 824,0 854,0 854,0 860,0 866,-6 866,-12 866,-12 866,-24 866,-24 866,-30 860,-36 854,-36"/>
<text text-anchor="middle" x="839" y="-13.32" font-family="Helvetica,sans-Serif" font-size="14.00">(...)</text>
</g>
<!-- 12284&#45;&gt;14782 -->
<g id="edge20" class="edge">
<title>12284&#45;&gt;14782</title>
<path fill="none" stroke="black" d="M829.42,-71.75C830.93,-63.42 832.47,-54.97 833.85,-47.34"/>
<polygon fill="black" stroke="black" points="837.27,-48.13 835.61,-37.66 830.38,-46.88 837.27,-48.13"/>
</g>
<!-- 14870 -->
<g id="node23" class="node">
<title>14870</title>
<path fill="#c0c0c0" stroke="black" d="M959,-36C959,-36 929,-36 929,-36 923,-36 917,-30 917,-24 917,-24 917,-12 917,-12 917,-6 923,0 929,0 929,0 959,0 959,0 965,0 971,-6 971,-12 971,-12 971,-24 971,-24 971,-30 965,-36 959,-36"/>
<text text-anchor="middle" x="944" y="-13.32" font-family="Helvetica,sans-Serif" font-size="14.00">(...)</text>
</g>
<!-- 14869&#45;&gt;14870 -->
<g id="edge22" class="edge">
<title>14869&#45;&gt;14870</title>
<path fill="none" stroke="black" d="M974.34,-71.75C969.26,-62.93 964.1,-53.96 959.52,-45.99"/>
<polygon fill="black" stroke="black" points="962.65,-44.41 954.63,-37.48 956.58,-47.9 962.65,-44.41"/>
</g>
<!-- 15443 -->
<g id="node24" class="node">
<title>15443</title>
<path fill="#c0c0c0" stroke="black" d="M1031,-36C1031,-36 1001,-36 1001,-36 995,-36 989,-30 989,-24 989,-24 989,-12 989,-12 989,-6 995,0 1001,0 1001,0 1031,0 1031,0 1037,0 1043,-6 1043,-12 1043,-12 1043,-24 1043,-24 1043,-30 1037,-36 1031,-36"/>
<text text-anchor="middle" x="1016" y="-13.32" font-family="Helvetica,sans-Serif" font-size="14.00">(...)</text>
</g>
<!-- 14869&#45;&gt;15443 -->
<g id="edge23" class="edge">
<title>14869&#45;&gt;15443</title>
<path fill="none" stroke="black" d="M1008.02,-71.75C1009.28,-63.42 1010.56,-54.97 1011.71,-47.34"/>
<polygon fill="black" stroke="black" points="1015.14,-48.08 1013.17,-37.67 1008.22,-47.03 1015.14,-48.08"/>
</g>
<!-- 15637 -->
<g id="node26" class="node">
<title>15637</title>
<path fill="#5eafea" stroke="black" d="M1242.5,-166.25C1242.5,-166.25 1109.5,-166.25 1109.5,-166.25 1103.5,-166.25 1097.5,-160.25 1097.5,-154.25 1097.5,-154.25 1097.5,-84 1097.5,-84 1097.5,-78 1103.5,-72 1109.5,-72 1109.5,-72 1242.5,-72 1242.5,-72 1248.5,-72 1254.5,-78 1254.5,-84 1254.5,-84 1254.5,-154.25 1254.5,-154.25 1254.5,-160.25 1248.5,-166.25 1242.5,-166.25"/>
<text text-anchor="middle" x="1176" y="-148.95" font-family="Helvetica,sans-Serif" font-size="14.00">16_C &lt;= 0.5</text>
<text text-anchor="middle" x="1176" y="-131.7" font-family="Helvetica,sans-Serif" font-size="14.00">entropy = 0.625</text>
<text text-anchor="middle" x="1176" y="-114.45" font-family="Helvetica,sans-Serif" font-size="14.00">samples = 3303</text>
<text text-anchor="middle" x="1176" y="-97.2" font-family="Helvetica,sans-Serif" font-size="14.00">value = [819, 4423]</text>
<text text-anchor="middle" x="1176" y="-79.95" font-family="Helvetica,sans-Serif" font-size="14.00">class = Plant</text>
</g>
<!-- 15636&#45;&gt;15637 -->
<g id="edge25" class="edge">
<title>15636&#45;&gt;15637</title>
<path fill="none" stroke="black" d="M1176,-202.07C1176,-194.17 1176,-185.88 1176,-177.73"/>
<polygon fill="black" stroke="black" points="1179.5,-177.87 1176,-167.87 1172.5,-177.87 1179.5,-177.87"/>
</g>
<!-- 16306 -->
<g id="node29" class="node">
<title>16306</title>
<path fill="#f5ccaf" stroke="black" d="M1409,-166.25C1409,-166.25 1285,-166.25 1285,-166.25 1279,-166.25 1273,-160.25 1273,-154.25 1273,-154.25 1273,-84 1273,-84 1273,-78 1279,-72 1285,-72 1285,-72 1409,-72 1409,-72 1415,-72 1421,-78 1421,-84 1421,-84 1421,-154.25 1421,-154.25 1421,-160.25 1415,-166.25 1409,-166.25"/>
<text text-anchor="middle" x="1347" y="-148.95" font-family="Helvetica,sans-Serif" font-size="14.00">20_G &lt;= 0.5</text>
<text text-anchor="middle" x="1347" y="-131.7" font-family="Helvetica,sans-Serif" font-size="14.00">entropy = 0.953</text>
<text text-anchor="middle" x="1347" y="-114.45" font-family="Helvetica,sans-Serif" font-size="14.00">samples = 519</text>
<text text-anchor="middle" x="1347" y="-97.2" font-family="Helvetica,sans-Serif" font-size="14.00">value = [528, 315]</text>
<text text-anchor="middle" x="1347" y="-79.95" font-family="Helvetica,sans-Serif" font-size="14.00">class = Animal</text>
</g>
<!-- 15636&#45;&gt;16306 -->
<g id="edge28" class="edge">
<title>15636&#45;&gt;16306</title>
<path fill="none" stroke="black" d="M1237.73,-202.07C1250.13,-192.78 1263.25,-182.94 1275.93,-173.43"/>
<polygon fill="black" stroke="black" points="1277.96,-176.28 1283.86,-167.48 1273.76,-170.68 1277.96,-176.28"/>
</g>
<!-- 15638 -->
<g id="node27" class="node">
<title>15638</title>
<path fill="#c0c0c0" stroke="black" d="M1150,-36C1150,-36 1120,-36 1120,-36 1114,-36 1108,-30 1108,-24 1108,-24 1108,-12 1108,-12 1108,-6 1114,0 1120,0 1120,0 1150,0 1150,0 1156,0 1162,-6 1162,-12 1162,-12 1162,-24 1162,-24 1162,-30 1156,-36 1150,-36"/>
<text text-anchor="middle" x="1135" y="-13.32" font-family="Helvetica,sans-Serif" font-size="14.00">(...)</text>
</g>
<!-- 15637&#45;&gt;15638 -->
<g id="edge26" class="edge">
<title>15637&#45;&gt;15638</title>
<path fill="none" stroke="black" d="M1156.82,-71.75C1153.29,-63.22 1149.71,-54.57 1146.5,-46.8"/>
<polygon fill="black" stroke="black" points="1149.74,-45.47 1142.68,-37.57 1143.27,-48.15 1149.74,-45.47"/>
</g>
<!-- 16169 -->
<g id="node28" class="node">
<title>16169</title>
<path fill="#c0c0c0" stroke="black" d="M1222,-36C1222,-36 1192,-36 1192,-36 1186,-36 1180,-30 1180,-24 1180,-24 1180,-12 1180,-12 1180,-6 1186,0 1192,0 1192,0 1222,0 1222,0 1228,0 1234,-6 1234,-12 1234,-12 1234,-24 1234,-24 1234,-30 1228,-36 1222,-36"/>
<text text-anchor="middle" x="1207" y="-13.32" font-family="Helvetica,sans-Serif" font-size="14.00">(...)</text>
</g>
<!-- 15637&#45;&gt;16169 -->
<g id="edge27" class="edge">
<title>15637&#45;&gt;16169</title>
<path fill="none" stroke="black" d="M1190.5,-71.75C1193.14,-63.32 1195.81,-54.77 1198.22,-47.07"/>
<polygon fill="black" stroke="black" points="1201.53,-48.21 1201.18,-37.62 1194.85,-46.12 1201.53,-48.21"/>
</g>
<!-- 16307 -->
<g id="node30" class="node">
<title>16307</title>
<path fill="#c0c0c0" stroke="black" d="M1326,-36C1326,-36 1296,-36 1296,-36 1290,-36 1284,-30 1284,-24 1284,-24 1284,-12 1284,-12 1284,-6 1290,0 1296,0 1296,0 1326,0 1326,0 1332,0 1338,-6 1338,-12 1338,-12 1338,-24 1338,-24 1338,-30 1332,-36 1326,-36"/>
<text text-anchor="middle" x="1311" y="-13.32" font-family="Helvetica,sans-Serif" font-size="14.00">(...)</text>
</g>
<!-- 16306&#45;&gt;16307 -->
<g id="edge29" class="edge">
<title>16306&#45;&gt;16307</title>
<path fill="none" stroke="black" d="M1330.16,-71.75C1327.06,-63.22 1323.92,-54.57 1321.1,-46.8"/>
<polygon fill="black" stroke="black" points="1324.46,-45.8 1317.75,-37.6 1317.88,-48.19 1324.46,-45.8"/>
</g>
<!-- 16544 -->
<g id="node31" class="node">
<title>16544</title>
<path fill="#c0c0c0" stroke="black" d="M1398,-36C1398,-36 1368,-36 1368,-36 1362,-36 1356,-30 1356,-24 1356,-24 1356,-12 1356,-12 1356,-6 1362,0 1368,0 1368,0 1398,0 1398,0 1404,0 1410,-6 1410,-12 1410,-12 1410,-24 1410,-24 1410,-30 1404,-36 1398,-36"/>
<text text-anchor="middle" x="1383" y="-13.32" font-family="Helvetica,sans-Serif" font-size="14.00">(...)</text>
</g>
<!-- 16306&#45;&gt;16544 -->
<g id="edge30" class="edge">
<title>16306&#45;&gt;16544</title>
<path fill="none" stroke="black" d="M1363.84,-71.75C1366.94,-63.22 1370.08,-54.57 1372.9,-46.8"/>
<polygon fill="black" stroke="black" points="1376.12,-48.19 1376.25,-37.6 1369.54,-45.8 1376.12,-48.19"/>
</g>
</g>
</svg>
