<?xml version="1.0" encoding="UTF-8" standalone="no"?>
<!DOCTYPE svg PUBLIC "-//W3C//DTD SVG 1.1//EN"
 "http://www.w3.org/Graphics/SVG/1.1/DTD/svg11.dtd">
<!-- Generated by graphviz version 12.0.0 (20240803.0821)
 -->
<!-- Title: Tree Pages: 1 -->
<svg width="1463pt" height="565pt"
 viewBox="0.00 0.00 1462.50 565.00" xmlns="http://www.w3.org/2000/svg" xmlns:xlink="http://www.w3.org/1999/xlink">
<g id="graph0" class="graph" transform="scale(1 1) rotate(0) translate(4 561)">
<title>Tree</title>
<polygon fill="white" stroke="none" points="-4,4 -4,-561 1458.5,-561 1458.5,4 -4,4"/>
<!-- 0 -->
<g id="node1" class="node">
<title>0</title>
<path fill="#fffefe" stroke="black" d="M817,-557C817,-557 657,-557 657,-557 651,-557 645,-551 645,-545 645,-545 645,-474.75 645,-474.75 645,-468.75 651,-462.75 657,-462.75 657,-462.75 817,-462.75 817,-462.75 823,-462.75 829,-468.75 829,-474.75 829,-474.75 829,-545 829,-545 829,-551 823,-557 817,-557"/>
<text text-anchor="middle" x="737" y="-539.7" font-family="Helvetica,sans-Serif" font-size="14.00">8_G &lt;= 0.5</text>
<text text-anchor="middle" x="737" y="-522.45" font-family="Helvetica,sans-Serif" font-size="14.00">entropy = 1.0</text>
<text text-anchor="middle" x="737" y="-505.2" font-family="Helvetica,sans-Serif" font-size="14.00">samples = 38211</text>
<text text-anchor="middle" x="737" y="-487.95" font-family="Helvetica,sans-Serif" font-size="14.00">value = [30282, 30063]</text>
<text text-anchor="middle" x="737" y="-470.7" font-family="Helvetica,sans-Serif" font-size="14.00">class = Animal</text>
</g>
<!-- 1 -->
<g id="node2" class="node">
<title>1</title>
<path fill="#fae7d9" stroke="black" d="M638,-426.75C638,-426.75 478,-426.75 478,-426.75 472,-426.75 466,-420.75 466,-414.75 466,-414.75 466,-344.5 466,-344.5 466,-338.5 472,-332.5 478,-332.5 478,-332.5 638,-332.5 638,-332.5 644,-332.5 650,-338.5 650,-344.5 650,-344.5 650,-414.75 650,-414.75 650,-420.75 644,-426.75 638,-426.75"/>
<text text-anchor="middle" x="558" y="-409.45" font-family="Helvetica,sans-Serif" font-size="14.00">6_U &lt;= 0.5</text>
<text text-anchor="middle" x="558" y="-392.2" font-family="Helvetica,sans-Serif" font-size="14.00">entropy = 0.992</text>
<text text-anchor="middle" x="558" y="-374.95" font-family="Helvetica,sans-Serif" font-size="14.00">samples = 26438</text>
<text text-anchor="middle" x="558" y="-357.7" font-family="Helvetica,sans-Serif" font-size="14.00">value = [23049, 18595]</text>
<text text-anchor="middle" x="558" y="-340.45" font-family="Helvetica,sans-Serif" font-size="14.00">class = Animal</text>
</g>
<!-- 0&#45;&gt;1 -->
<g id="edge1" class="edge">
<title>0&#45;&gt;1</title>
<path fill="none" stroke="black" d="M672.12,-462.39C659.12,-453.07 645.36,-443.22 632.07,-433.69"/>
<polygon fill="black" stroke="black" points="634.35,-431.02 624.19,-428.05 630.28,-436.72 634.35,-431.02"/>
<text text-anchor="middle" x="627.03" y="-447.16" font-family="Helvetica,sans-Serif" font-size="14.00">True</text>
</g>
<!-- 12508 -->
<g id="node17" class="node">
<title>12508</title>
<path fill="#b6dbf5" stroke="black" d="M1002.5,-426.75C1002.5,-426.75 851.5,-426.75 851.5,-426.75 845.5,-426.75 839.5,-420.75 839.5,-414.75 839.5,-414.75 839.5,-344.5 839.5,-344.5 839.5,-338.5 845.5,-332.5 851.5,-332.5 851.5,-332.5 1002.5,-332.5 1002.5,-332.5 1008.5,-332.5 1014.5,-338.5 1014.5,-344.5 1014.5,-344.5 1014.5,-414.75 1014.5,-414.75 1014.5,-420.75 1008.5,-426.75 1002.5,-426.75"/>
<text text-anchor="middle" x="927" y="-409.45" font-family="Helvetica,sans-Serif" font-size="14.00">10_C &lt;= 0.5</text>
<text text-anchor="middle" x="927" y="-392.2" font-family="Helvetica,sans-Serif" font-size="14.00">entropy = 0.963</text>
<text text-anchor="middle" x="927" y="-374.95" font-family="Helvetica,sans-Serif" font-size="14.00">samples = 11773</text>
<text text-anchor="middle" x="927" y="-357.7" font-family="Helvetica,sans-Serif" font-size="14.00">value = [7233, 11468]</text>
<text text-anchor="middle" x="927" y="-340.45" font-family="Helvetica,sans-Serif" font-size="14.00">class = Plant</text>
</g>
<!-- 0&#45;&gt;12508 -->
<g id="edge16" class="edge">
<title>0&#45;&gt;12508</title>
<path fill="none" stroke="black" d="M805.86,-462.39C819.8,-452.98 834.55,-443.03 848.79,-433.42"/>
<polygon fill="black" stroke="black" points="850.47,-436.51 856.8,-428.01 846.55,-430.7 850.47,-436.51"/>
<text text-anchor="middle" x="853.29" y="-447.03" font-family="Helvetica,sans-Serif" font-size="14.00">False</text>
</g>
<!-- 2 -->
<g id="node3" class="node">
<title>2</title>
<path fill="#fcf1e9" stroke="black" d="M365,-296.5C365,-296.5 205,-296.5 205,-296.5 199,-296.5 193,-290.5 193,-284.5 193,-284.5 193,-214.25 193,-214.25 193,-208.25 199,-202.25 205,-202.25 205,-202.25 365,-202.25 365,-202.25 371,-202.25 377,-208.25 377,-214.25 377,-214.25 377,-284.5 377,-284.5 377,-290.5 371,-296.5 365,-296.5"/>
<text text-anchor="middle" x="285" y="-279.2" font-family="Helvetica,sans-Serif" font-size="14.00">14_A &lt;= 0.5</text>
<text text-anchor="middle" x="285" y="-261.95" font-family="Helvetica,sans-Serif" font-size="14.00">entropy = 0.998</text>
<text text-anchor="middle" x="285" y="-244.7" font-family="Helvetica,sans-Serif" font-size="14.00">samples = 19858</text>
<text text-anchor="middle" x="285" y="-227.45" font-family="Helvetica,sans-Serif" font-size="14.00">value = [16550, 14752]</text>
<text text-anchor="middle" x="285" y="-210.2" font-family="Helvetica,sans-Serif" font-size="14.00">class = Animal</text>
</g>
<!-- 1&#45;&gt;2 -->
<g id="edge2" class="edge">
<title>1&#45;&gt;2</title>
<path fill="none" stroke="black" d="M465.57,-335.21C440.45,-323.4 413.09,-310.55 387.44,-298.5"/>
<polygon fill="black" stroke="black" points="389.24,-295.48 378.7,-294.39 386.26,-301.81 389.24,-295.48"/>
</g>
<!-- 9293 -->
<g id="node10" class="node">
<title>9293</title>
<path fill="#f4ccae" stroke="black" d="M629,-296.5C629,-296.5 487,-296.5 487,-296.5 481,-296.5 475,-290.5 475,-284.5 475,-284.5 475,-214.25 475,-214.25 475,-208.25 481,-202.25 487,-202.25 487,-202.25 629,-202.25 629,-202.25 635,-202.25 641,-208.25 641,-214.25 641,-214.25 641,-284.5 641,-284.5 641,-290.5 635,-296.5 629,-296.5"/>
<text text-anchor="middle" x="558" y="-279.2" font-family="Helvetica,sans-Serif" font-size="14.00">2_U &lt;= 0.5</text>
<text text-anchor="middle" x="558" y="-261.95" font-family="Helvetica,sans-Serif" font-size="14.00">entropy = 0.952</text>
<text text-anchor="middle" x="558" y="-244.7" font-family="Helvetica,sans-Serif" font-size="14.00">samples = 6580</text>
<text text-anchor="middle" x="558" y="-227.45" font-family="Helvetica,sans-Serif" font-size="14.00">value = [6499, 3843]</text>
<text text-anchor="middle" x="558" y="-210.2" font-family="Helvetica,sans-Serif" font-size="14.00">class = Animal</text>
</g>
<!-- 1&#45;&gt;9293 -->
<g id="edge9" class="edge">
<title>1&#45;&gt;9293</title>
<path fill="none" stroke="black" d="M558,-332.32C558,-324.42 558,-316.13 558,-307.98"/>
<polygon fill="black" stroke="black" points="561.5,-308.12 558,-298.12 554.5,-308.12 561.5,-308.12"/>
</g>
<!-- 3 -->
<g id="node4" class="node">
<title>3</title>
<path fill="#fffdfc" stroke="black" d="M172,-166.25C172,-166.25 12,-166.25 12,-166.25 6,-166.25 0,-160.25 0,-154.25 0,-154.25 0,-84 0,-84 0,-78 6,-72 12,-72 12,-72 172,-72 172,-72 178,-72 184,-78 184,-84 184,-84 184,-154.25 184,-154.25 184,-160.25 178,-166.25 172,-166.25"/>
<text text-anchor="middle" x="92" y="-148.95" font-family="Helvetica,sans-Serif" font-size="14.00">21_U &lt;= 0.5</text>
<text text-anchor="middle" x="92" y="-131.7" font-family="Helvetica,sans-Serif" font-size="14.00">entropy = 1.0</text>
<text text-anchor="middle" x="92" y="-114.45" font-family="Helvetica,sans-Serif" font-size="14.00">samples = 15539</text>
<text text-anchor="middle" x="92" y="-97.2" font-family="Helvetica,sans-Serif" font-size="14.00">value = [12359, 12194]</text>
<text text-anchor="middle" x="92" y="-79.95" font-family="Helvetica,sans-Serif" font-size="14.00">class = Animal</text>
</g>
<!-- 2&#45;&gt;3 -->
<g id="edge3" class="edge">
<title>2&#45;&gt;3</title>
<path fill="none" stroke="black" d="M215.05,-201.89C200.89,-192.48 185.9,-182.53 171.45,-172.92"/>
<polygon fill="black" stroke="black" points="173.56,-170.12 163.3,-167.5 169.69,-175.95 173.56,-170.12"/>
</g>
<!-- 7018 -->
<g id="node7" class="node">
<title>7018</title>
<path fill="#f5ceb2" stroke="black" d="M356,-166.25C356,-166.25 214,-166.25 214,-166.25 208,-166.25 202,-160.25 202,-154.25 202,-154.25 202,-84 202,-84 202,-78 208,-72 214,-72 214,-72 356,-72 356,-72 362,-72 368,-78 368,-84 368,-84 368,-154.25 368,-154.25 368,-160.25 362,-166.25 356,-166.25"/>
<text text-anchor="middle" x="285" y="-148.95" font-family="Helvetica,sans-Serif" font-size="14.00">9_G &lt;= 0.5</text>
<text text-anchor="middle" x="285" y="-131.7" font-family="Helvetica,sans-Serif" font-size="14.00">entropy = 0.957</text>
<text text-anchor="middle" x="285" y="-114.45" font-family="Helvetica,sans-Serif" font-size="14.00">samples = 4319</text>
<text text-anchor="middle" x="285" y="-97.2" font-family="Helvetica,sans-Serif" font-size="14.00">value = [4191, 2558]</text>
<text text-anchor="middle" x="285" y="-79.95" font-family="Helvetica,sans-Serif" font-size="14.00">class = Animal</text>
</g>
<!-- 2&#45;&gt;7018 -->
<g id="edge6" class="edge">
<title>2&#45;&gt;7018</title>
<path fill="none" stroke="black" d="M285,-202.07C285,-194.17 285,-185.88 285,-177.73"/>
<polygon fill="black" stroke="black" points="288.5,-177.87 285,-167.87 281.5,-177.87 288.5,-177.87"/>
</g>
<!-- 4 -->
<g id="node5" class="node">
<title>4</title>
<path fill="#c0c0c0" stroke="black" d="M71,-36C71,-36 41,-36 41,-36 35,-36 29,-30 29,-24 29,-24 29,-12 29,-12 29,-6 35,0 41,0 41,0 71,0 71,0 77,0 83,-6 83,-12 83,-12 83,-24 83,-24 83,-30 77,-36 71,-36"/>
<text text-anchor="middle" x="56" y="-13.32" font-family="Helvetica,sans-Serif" font-size="14.00">(...)</text>
</g>
<!-- 3&#45;&gt;4 -->
<g id="edge4" class="edge">
<title>3&#45;&gt;4</title>
<path fill="none" stroke="black" d="M75.16,-71.75C72.06,-63.22 68.92,-54.57 66.1,-46.8"/>
<polygon fill="black" stroke="black" points="69.46,-45.8 62.75,-37.6 62.88,-48.19 69.46,-45.8"/>
</g>
<!-- 5449 -->
<g id="node6" class="node">
<title>5449</title>
<path fill="#c0c0c0" stroke="black" d="M143,-36C143,-36 113,-36 113,-36 107,-36 101,-30 101,-24 101,-24 101,-12 101,-12 101,-6 107,0 113,0 113,0 143,0 143,0 149,0 155,-6 155,-12 155,-12 155,-24 155,-24 155,-30 149,-36 143,-36"/>
<text text-anchor="middle" x="128" y="-13.32" font-family="Helvetica,sans-Serif" font-size="14.00">(...)</text>
</g>
<!-- 3&#45;&gt;5449 -->
<g id="edge5" class="edge">
<title>3&#45;&gt;5449</title>
<path fill="none" stroke="black" d="M108.84,-71.75C111.94,-63.22 115.08,-54.57 117.9,-46.8"/>
<polygon fill="black" stroke="black" points="121.12,-48.19 121.25,-37.6 114.54,-45.8 121.12,-48.19"/>
</g>
<!-- 7019 -->
<g id="node8" class="node">
<title>7019</title>
<path fill="#c0c0c0" stroke="black" d="M268,-36C268,-36 238,-36 238,-36 232,-36 226,-30 226,-24 226,-24 226,-12 226,-12 226,-6 232,0 238,0 238,0 268,0 268,0 274,0 280,-6 280,-12 280,-12 280,-24 280,-24 280,-30 274,-36 268,-36"/>
<text text-anchor="middle" x="253" y="-13.32" font-family="Helvetica,sans-Serif" font-size="14.00">(...)</text>
</g>
<!-- 7018&#45;&gt;7019 -->
<g id="edge7" class="edge">
<title>7018&#45;&gt;7019</title>
<path fill="none" stroke="black" d="M270.03,-71.75C267.31,-63.32 264.55,-54.77 262.06,-47.07"/>
<polygon fill="black" stroke="black" points="265.41,-46.05 259.01,-37.61 258.75,-48.2 265.41,-46.05"/>
</g>
<!-- 8704 -->
<g id="node9" class="node">
<title>8704</title>
<path fill="#c0c0c0" stroke="black" d="M340,-36C340,-36 310,-36 310,-36 304,-36 298,-30 298,-24 298,-24 298,-12 298,-12 298,-6 304,0 310,0 310,0 340,0 340,0 346,0 352,-6 352,-12 352,-12 352,-24 352,-24 352,-30 346,-36 340,-36"/>
<text text-anchor="middle" x="325" y="-13.32" font-family="Helvetica,sans-Serif" font-size="14.00">(...)</text>
</g>
<!-- 7018&#45;&gt;8704 -->
<g id="edge8" class="edge">
<title>7018&#45;&gt;8704</title>
<path fill="none" stroke="black" d="M303.71,-71.75C307.15,-63.22 310.65,-54.57 313.78,-46.8"/>
<polygon fill="black" stroke="black" points="317.01,-48.16 317.5,-37.58 310.52,-45.54 317.01,-48.16"/>
</g>
<!-- 9294 -->
<g id="node11" class="node">
<title>9294</title>
<path fill="#f2c19d" stroke="black" d="M540,-166.25C540,-166.25 398,-166.25 398,-166.25 392,-166.25 386,-160.25 386,-154.25 386,-154.25 386,-84 386,-84 386,-78 392,-72 398,-72 398,-72 540,-72 540,-72 546,-72 552,-78 552,-84 552,-84 552,-154.25 552,-154.25 552,-160.25 546,-166.25 540,-166.25"/>
<text text-anchor="middle" x="469" y="-148.95" font-family="Helvetica,sans-Serif" font-size="14.00">22_G &lt;= 0.5</text>
<text text-anchor="middle" x="469" y="-131.7" font-family="Helvetica,sans-Serif" font-size="14.00">entropy = 0.92</text>
<text text-anchor="middle" x="469" y="-114.45" font-family="Helvetica,sans-Serif" font-size="14.00">samples = 4986</text>
<text text-anchor="middle" x="469" y="-97.2" font-family="Helvetica,sans-Serif" font-size="14.00">value = [5168, 2607]</text>
<text text-anchor="middle" x="469" y="-79.95" font-family="Helvetica,sans-Serif" font-size="14.00">class = Animal</text>
</g>
<!-- 9293&#45;&gt;9294 -->
<g id="edge10" class="edge">
<title>9293&#45;&gt;9294</title>
<path fill="none" stroke="black" d="M525.87,-202.07C519.95,-193.54 513.7,-184.54 507.61,-175.77"/>
<polygon fill="black" stroke="black" points="510.52,-173.82 501.95,-167.6 504.77,-177.81 510.52,-173.82"/>
</g>
<!-- 11643 -->
<g id="node14" class="node">
<title>11643</title>
<path fill="#fdf6f1" stroke="black" d="M724,-166.25C724,-166.25 582,-166.25 582,-166.25 576,-166.25 570,-160.25 570,-154.25 570,-154.25 570,-84 570,-84 570,-78 576,-72 582,-72 582,-72 724,-72 724,-72 730,-72 736,-78 736,-84 736,-84 736,-154.25 736,-154.25 736,-160.25 730,-166.25 724,-166.25"/>
<text text-anchor="middle" x="653" y="-148.95" font-family="Helvetica,sans-Serif" font-size="14.00">22_A &lt;= 0.5</text>
<text text-anchor="middle" x="653" y="-131.7" font-family="Helvetica,sans-Serif" font-size="14.00">entropy = 0.999</text>
<text text-anchor="middle" x="653" y="-114.45" font-family="Helvetica,sans-Serif" font-size="14.00">samples = 1594</text>
<text text-anchor="middle" x="653" y="-97.2" font-family="Helvetica,sans-Serif" font-size="14.00">value = [1331, 1236]</text>
<text text-anchor="middle" x="653" y="-79.95" font-family="Helvetica,sans-Serif" font-size="14.00">class = Animal</text>
</g>
<!-- 9293&#45;&gt;11643 -->
<g id="edge13" class="edge">
<title>9293&#45;&gt;11643</title>
<path fill="none" stroke="black" d="M592.3,-202.07C598.69,-193.45 605.42,-184.35 611.99,-175.49"/>
<polygon fill="black" stroke="black" points="614.71,-177.69 617.85,-167.57 609.09,-173.53 614.71,-177.69"/>
</g>
<!-- 9295 -->
<g id="node12" class="node">
<title>9295</title>
<path fill="#c0c0c0" stroke="black" d="M432,-36C432,-36 402,-36 402,-36 396,-36 390,-30 390,-24 390,-24 390,-12 390,-12 390,-6 396,0 402,0 402,0 432,0 432,0 438,0 444,-6 444,-12 444,-12 444,-24 444,-24 444,-30 438,-36 432,-36"/>
<text text-anchor="middle" x="417" y="-13.32" font-family="Helvetica,sans-Serif" font-size="14.00">(...)</text>
</g>
<!-- 9294&#45;&gt;9295 -->
<g id="edge11" class="edge">
<title>9294&#45;&gt;9295</title>
<path fill="none" stroke="black" d="M444.67,-71.75C440.1,-63.03 435.45,-54.16 431.3,-46.26"/>
<polygon fill="black" stroke="black" points="434.46,-44.74 426.71,-37.51 428.26,-47.99 434.46,-44.74"/>
</g>
<!-- 11390 -->
<g id="node13" class="node">
<title>11390</title>
<path fill="#c0c0c0" stroke="black" d="M504,-36C504,-36 474,-36 474,-36 468,-36 462,-30 462,-24 462,-24 462,-12 462,-12 462,-6 468,0 474,0 474,0 504,0 504,0 510,0 516,-6 516,-12 516,-12 516,-24 516,-24 516,-30 510,-36 504,-36"/>
<text text-anchor="middle" x="489" y="-13.32" font-family="Helvetica,sans-Serif" font-size="14.00">(...)</text>
</g>
<!-- 9294&#45;&gt;11390 -->
<g id="edge12" class="edge">
<title>9294&#45;&gt;11390</title>
<path fill="none" stroke="black" d="M478.36,-71.75C480.04,-63.42 481.74,-54.97 483.28,-47.34"/>
<polygon fill="black" stroke="black" points="486.69,-48.15 485.24,-37.66 479.83,-46.77 486.69,-48.15"/>
</g>
<!-- 11644 -->
<g id="node15" class="node">
<title>11644</title>
<path fill="#c0c0c0" stroke="black" d="M616,-36C616,-36 586,-36 586,-36 580,-36 574,-30 574,-24 574,-24 574,-12 574,-12 574,-6 580,0 586,0 586,0 616,0 616,0 622,0 628,-6 628,-12 628,-12 628,-24 628,-24 628,-30 622,-36 616,-36"/>
<text text-anchor="middle" x="601" y="-13.32" font-family="Helvetica,sans-Serif" font-size="14.00">(...)</text>
</g>
<!-- 11643&#45;&gt;11644 -->
<g id="edge14" class="edge">
<title>11643&#45;&gt;11644</title>
<path fill="none" stroke="black" d="M628.67,-71.75C624.1,-63.03 619.45,-54.16 615.3,-46.26"/>
<polygon fill="black" stroke="black" points="618.46,-44.74 610.71,-37.51 612.26,-47.99 618.46,-44.74"/>
</g>
<!-- 12377 -->
<g id="node16" class="node">
<title>12377</title>
<path fill="#c0c0c0" stroke="black" d="M688,-36C688,-36 658,-36 658,-36 652,-36 646,-30 646,-24 646,-24 646,-12 646,-12 646,-6 652,0 658,0 658,0 688,0 688,0 694,0 700,-6 700,-12 700,-12 700,-24 700,-24 700,-30 694,-36 688,-36"/>
<text text-anchor="middle" x="673" y="-13.32" font-family="Helvetica,sans-Serif" font-size="14.00">(...)</text>
</g>
<!-- 11643&#45;&gt;12377 -->
<g id="edge15" class="edge">
<title>11643&#45;&gt;12377</title>
<path fill="none" stroke="black" d="M662.36,-71.75C664.04,-63.42 665.74,-54.97 667.28,-47.34"/>
<polygon fill="black" stroke="black" points="670.69,-48.15 669.24,-37.66 663.83,-46.77 670.69,-48.15"/>
</g>
<!-- 12509 -->
<g id="node18" class="node">
<title>12509</title>
<path fill="#abd6f4" stroke="black" d="M998,-296.5C998,-296.5 856,-296.5 856,-296.5 850,-296.5 844,-290.5 844,-284.5 844,-284.5 844,-214.25 844,-214.25 844,-208.25 850,-202.25 856,-202.25 856,-202.25 998,-202.25 998,-202.25 1004,-202.25 1010,-208.25 1010,-214.25 1010,-214.25 1010,-284.5 1010,-284.5 1010,-290.5 1004,-296.5 998,-296.5"/>
<text text-anchor="middle" x="927" y="-279.2" font-family="Helvetica,sans-Serif" font-size="14.00">20_G &lt;= 0.5</text>
<text text-anchor="middle" x="927" y="-261.95" font-family="Helvetica,sans-Serif" font-size="14.00">entropy = 0.948</text>
<text text-anchor="middle" x="927" y="-244.7" font-family="Helvetica,sans-Serif" font-size="14.00">samples = 9137</text>
<text text-anchor="middle" x="927" y="-227.45" font-family="Helvetica,sans-Serif" font-size="14.00">value = [5292, 9159]</text>
<text text-anchor="middle" x="927" y="-210.2" font-family="Helvetica,sans-Serif" font-size="14.00">class = Plant</text>
</g>
<!-- 12508&#45;&gt;12509 -->
<g id="edge17" class="edge">
<title>12508&#45;&gt;12509</title>
<path fill="none" stroke="black" d="M927,-332.32C927,-324.42 927,-316.13 927,-307.98"/>
<polygon fill="black" stroke="black" points="930.5,-308.12 927,-298.12 923.5,-308.12 930.5,-308.12"/>
</g>
<!-- 15998 -->
<g id="node25" class="node">
<title>15998</title>
<path fill="#dfeffb" stroke="black" d="M1272,-296.5C1272,-296.5 1130,-296.5 1130,-296.5 1124,-296.5 1118,-290.5 1118,-284.5 1118,-284.5 1118,-214.25 1118,-214.25 1118,-208.25 1124,-202.25 1130,-202.25 1130,-202.25 1272,-202.25 1272,-202.25 1278,-202.25 1284,-208.25 1284,-214.25 1284,-214.25 1284,-284.5 1284,-284.5 1284,-290.5 1278,-296.5 1272,-296.5"/>
<text text-anchor="middle" x="1201" y="-279.2" font-family="Helvetica,sans-Serif" font-size="14.00">18_U &lt;= 0.5</text>
<text text-anchor="middle" x="1201" y="-261.95" font-family="Helvetica,sans-Serif" font-size="14.00">entropy = 0.995</text>
<text text-anchor="middle" x="1201" y="-244.7" font-family="Helvetica,sans-Serif" font-size="14.00">samples = 2636</text>
<text text-anchor="middle" x="1201" y="-227.45" font-family="Helvetica,sans-Serif" font-size="14.00">value = [1941, 2309]</text>
<text text-anchor="middle" x="1201" y="-210.2" font-family="Helvetica,sans-Serif" font-size="14.00">class = Plant</text>
</g>
<!-- 12508&#45;&gt;15998 -->
<g id="edge24" class="edge">
<title>12508&#45;&gt;15998</title>
<path fill="none" stroke="black" d="M1014.83,-337.52C1044.5,-323.63 1077.72,-308.08 1107.8,-294"/>
<polygon fill="black" stroke="black" points="1108.92,-297.34 1116.5,-289.93 1105.95,-291 1108.92,-297.34"/>
</g>
<!-- 12510 -->
<g id="node19" class="node">
<title>12510</title>
<path fill="#97ccf1" stroke="black" d="M908,-166.25C908,-166.25 766,-166.25 766,-166.25 760,-166.25 754,-160.25 754,-154.25 754,-154.25 754,-84 754,-84 754,-78 760,-72 766,-72 766,-72 908,-72 908,-72 914,-72 920,-78 920,-84 920,-84 920,-154.25 920,-154.25 920,-160.25 914,-166.25 908,-166.25"/>
<text text-anchor="middle" x="837" y="-148.95" font-family="Helvetica,sans-Serif" font-size="14.00">19_U &lt;= 0.5</text>
<text text-anchor="middle" x="837" y="-131.7" font-family="Helvetica,sans-Serif" font-size="14.00">entropy = 0.906</text>
<text text-anchor="middle" x="837" y="-114.45" font-family="Helvetica,sans-Serif" font-size="14.00">samples = 6887</text>
<text text-anchor="middle" x="837" y="-97.2" font-family="Helvetica,sans-Serif" font-size="14.00">value = [3513, 7400]</text>
<text text-anchor="middle" x="837" y="-79.95" font-family="Helvetica,sans-Serif" font-size="14.00">class = Plant</text>
</g>
<!-- 12509&#45;&gt;12510 -->
<g id="edge18" class="edge">
<title>12509&#45;&gt;12510</title>
<path fill="none" stroke="black" d="M894.51,-202.07C888.52,-193.54 882.21,-184.54 876.05,-175.77"/>
<polygon fill="black" stroke="black" points="878.92,-173.77 870.31,-167.6 873.19,-177.79 878.92,-173.77"/>
</g>
<!-- 15061 -->
<g id="node22" class="node">
<title>15061</title>
<path fill="#fffefd" stroke="black" d="M1092,-166.25C1092,-166.25 950,-166.25 950,-166.25 944,-166.25 938,-160.25 938,-154.25 938,-154.25 938,-84 938,-84 938,-78 944,-72 950,-72 950,-72 1092,-72 1092,-72 1098,-72 1104,-78 1104,-84 1104,-84 1104,-154.25 1104,-154.25 1104,-160.25 1098,-166.25 1092,-166.25"/>
<text text-anchor="middle" x="1021" y="-148.95" font-family="Helvetica,sans-Serif" font-size="14.00">6_A &lt;= 0.5</text>
<text text-anchor="middle" x="1021" y="-131.7" font-family="Helvetica,sans-Serif" font-size="14.00">entropy = 1.0</text>
<text text-anchor="middle" x="1021" y="-114.45" font-family="Helvetica,sans-Serif" font-size="14.00">samples = 2250</text>
<text text-anchor="middle" x="1021" y="-97.2" font-family="Helvetica,sans-Serif" font-size="14.00">value = [1779, 1759]</text>
<text text-anchor="middle" x="1021" y="-79.95" font-family="Helvetica,sans-Serif" font-size="14.00">class = Animal</text>
</g>
<!-- 12509&#45;&gt;15061 -->
<g id="edge21" class="edge">
<title>12509&#45;&gt;15061</title>
<path fill="none" stroke="black" d="M960.94,-202.07C967.26,-193.45 973.92,-184.35 980.42,-175.49"/>
<polygon fill="black" stroke="black" points="983.13,-177.71 986.22,-167.58 977.48,-173.58 983.13,-177.71"/>
</g>
<!-- 12511 -->
<g id="node20" class="node">
<title>12511</title>
<path fill="#c0c0c0" stroke="black" d="M800,-36C800,-36 770,-36 770,-36 764,-36 758,-30 758,-24 758,-24 758,-12 758,-12 758,-6 764,0 770,0 770,0 800,0 800,0 806,0 812,-6 812,-12 812,-12 812,-24 812,-24 812,-30 806,-36 800,-36"/>
<text text-anchor="middle" x="785" y="-13.32" font-family="Helvetica,sans-Serif" font-size="14.00">(...)</text>
</g>
<!-- 12510&#45;&gt;12511 -->
<g id="edge19" class="edge">
<title>12510&#45;&gt;12511</title>
<path fill="none" stroke="black" d="M812.67,-71.75C808.1,-63.03 803.45,-54.16 799.3,-46.26"/>
<polygon fill="black" stroke="black" points="802.46,-44.74 794.71,-37.51 796.26,-47.99 802.46,-44.74"/>
</g>
<!-- 14424 -->
<g id="node21" class="node">
<title>14424</title>
<path fill="#c0c0c0" stroke="black" d="M872,-36C872,-36 842,-36 842,-36 836,-36 830,-30 830,-24 830,-24 830,-12 830,-12 830,-6 836,0 842,0 842,0 872,0 872,0 878,0 884,-6 884,-12 884,-12 884,-24 884,-24 884,-30 878,-36 872,-36"/>
<text text-anchor="middle" x="857" y="-13.32" font-family="Helvetica,sans-Serif" font-size="14.00">(...)</text>
</g>
<!-- 12510&#45;&gt;14424 -->
<g id="edge20" class="edge">
<title>12510&#45;&gt;14424</title>
<path fill="none" stroke="black" d="M846.36,-71.75C848.04,-63.42 849.74,-54.97 851.28,-47.34"/>
<polygon fill="black" stroke="black" points="854.69,-48.15 853.24,-37.66 847.83,-46.77 854.69,-48.15"/>
</g>
<!-- 15062 -->
<g id="node23" class="node">
<title>15062</title>
<path fill="#c0c0c0" stroke="black" d="M982,-36C982,-36 952,-36 952,-36 946,-36 940,-30 940,-24 940,-24 940,-12 940,-12 940,-6 946,0 952,0 952,0 982,0 982,0 988,0 994,-6 994,-12 994,-12 994,-24 994,-24 994,-30 988,-36 982,-36"/>
<text text-anchor="middle" x="967" y="-13.32" font-family="Helvetica,sans-Serif" font-size="14.00">(...)</text>
</g>
<!-- 15061&#45;&gt;15062 -->
<g id="edge22" class="edge">
<title>15061&#45;&gt;15062</title>
<path fill="none" stroke="black" d="M995.74,-71.75C990.98,-63.03 986.16,-54.16 981.85,-46.26"/>
<polygon fill="black" stroke="black" points="984.94,-44.61 977.08,-37.5 978.79,-47.96 984.94,-44.61"/>
</g>
<!-- 15799 -->
<g id="node24" class="node">
<title>15799</title>
<path fill="#c0c0c0" stroke="black" d="M1054,-36C1054,-36 1024,-36 1024,-36 1018,-36 1012,-30 1012,-24 1012,-24 1012,-12 1012,-12 1012,-6 1018,0 1024,0 1024,0 1054,0 1054,0 1060,0 1066,-6 1066,-12 1066,-12 1066,-24 1066,-24 1066,-30 1060,-36 1054,-36"/>
<text text-anchor="middle" x="1039" y="-13.32" font-family="Helvetica,sans-Serif" font-size="14.00">(...)</text>
</g>
<!-- 15061&#45;&gt;15799 -->
<g id="edge23" class="edge">
<title>15061&#45;&gt;15799</title>
<path fill="none" stroke="black" d="M1029.42,-71.75C1030.93,-63.42 1032.47,-54.97 1033.85,-47.34"/>
<polygon fill="black" stroke="black" points="1037.27,-48.13 1035.61,-37.66 1030.38,-46.88 1037.27,-48.13"/>
</g>
<!-- 15999 -->
<g id="node26" class="node">
<title>15999</title>
<path fill="#f2c09b" stroke="black" d="M1267.5,-166.25C1267.5,-166.25 1134.5,-166.25 1134.5,-166.25 1128.5,-166.25 1122.5,-160.25 1122.5,-154.25 1122.5,-154.25 1122.5,-84 1122.5,-84 1122.5,-78 1128.5,-72 1134.5,-72 1134.5,-72 1267.5,-72 1267.5,-72 1273.5,-72 1279.5,-78 1279.5,-84 1279.5,-84 1279.5,-154.25 1279.5,-154.25 1279.5,-160.25 1273.5,-166.25 1267.5,-166.25"/>
<text text-anchor="middle" x="1201" y="-148.95" font-family="Helvetica,sans-Serif" font-size="14.00">12_A &lt;= 0.5</text>
<text text-anchor="middle" x="1201" y="-131.7" font-family="Helvetica,sans-Serif" font-size="14.00">entropy = 0.917</text>
<text text-anchor="middle" x="1201" y="-114.45" font-family="Helvetica,sans-Serif" font-size="14.00">samples = 1258</text>
<text text-anchor="middle" x="1201" y="-97.2" font-family="Helvetica,sans-Serif" font-size="14.00">value = [1362, 677]</text>
<text text-anchor="middle" x="1201" y="-79.95" font-family="Helvetica,sans-Serif" font-size="14.00">class = Animal</text>
</g>
<!-- 15998&#45;&gt;15999 -->
<g id="edge25" class="edge">
<title>15998&#45;&gt;15999</title>
<path fill="none" stroke="black" d="M1201,-202.07C1201,-194.17 1201,-185.88 1201,-177.73"/>
<polygon fill="black" stroke="black" points="1204.5,-177.87 1201,-167.87 1197.5,-177.87 1204.5,-177.87"/>
</g>
<!-- 16640 -->
<g id="node29" class="node">
<title>16640</title>
<path fill="#7fc0ee" stroke="black" d="M1442.5,-166.25C1442.5,-166.25 1309.5,-166.25 1309.5,-166.25 1303.5,-166.25 1297.5,-160.25 1297.5,-154.25 1297.5,-154.25 1297.5,-84 1297.5,-84 1297.5,-78 1303.5,-72 1309.5,-72 1309.5,-72 1442.5,-72 1442.5,-72 1448.5,-72 1454.5,-78 1454.5,-84 1454.5,-84 1454.5,-154.25 1454.5,-154.25 1454.5,-160.25 1448.5,-166.25 1442.5,-166.25"/>
<text text-anchor="middle" x="1376" y="-148.95" font-family="Helvetica,sans-Serif" font-size="14.00">15_A &lt;= 0.5</text>
<text text-anchor="middle" x="1376" y="-131.7" font-family="Helvetica,sans-Serif" font-size="14.00">entropy = 0.83</text>
<text text-anchor="middle" x="1376" y="-114.45" font-family="Helvetica,sans-Serif" font-size="14.00">samples = 1378</text>
<text text-anchor="middle" x="1376" y="-97.2" font-family="Helvetica,sans-Serif" font-size="14.00">value = [579, 1632]</text>
<text text-anchor="middle" x="1376" y="-79.95" font-family="Helvetica,sans-Serif" font-size="14.00">class = Plant</text>
</g>
<!-- 15998&#45;&gt;16640 -->
<g id="edge28" class="edge">
<title>15998&#45;&gt;16640</title>
<path fill="none" stroke="black" d="M1264.18,-202.07C1276.99,-192.69 1290.55,-182.75 1303.64,-173.15"/>
<polygon fill="black" stroke="black" points="1305.4,-176.2 1311.4,-167.47 1301.26,-170.56 1305.4,-176.2"/>
</g>
<!-- 16000 -->
<g id="node27" class="node">
<title>16000</title>
<path fill="#c0c0c0" stroke="black" d="M1177,-36C1177,-36 1147,-36 1147,-36 1141,-36 1135,-30 1135,-24 1135,-24 1135,-12 1135,-12 1135,-6 1141,0 1147,0 1147,0 1177,0 1177,0 1183,0 1189,-6 1189,-12 1189,-12 1189,-24 1189,-24 1189,-30 1183,-36 1177,-36"/>
<text text-anchor="middle" x="1162" y="-13.32" font-family="Helvetica,sans-Serif" font-size="14.00">(...)</text>
</g>
<!-- 15999&#45;&gt;16000 -->
<g id="edge26" class="edge">
<title>15999&#45;&gt;16000</title>
<path fill="none" stroke="black" d="M1182.76,-71.75C1179.4,-63.22 1175.99,-54.57 1172.94,-46.8"/>
<polygon fill="black" stroke="black" points="1176.23,-45.61 1169.31,-37.58 1169.71,-48.17 1176.23,-45.61"/>
</g>
<!-- 16501 -->
<g id="node28" class="node">
<title>16501</title>
<path fill="#c0c0c0" stroke="black" d="M1249,-36C1249,-36 1219,-36 1219,-36 1213,-36 1207,-30 1207,-24 1207,-24 1207,-12 1207,-12 1207,-6 1213,0 1219,0 1219,0 1249,0 1249,0 1255,0 1261,-6 1261,-12 1261,-12 1261,-24 1261,-24 1261,-30 1255,-36 1249,-36"/>
<text text-anchor="middle" x="1234" y="-13.32" font-family="Helvetica,sans-Serif" font-size="14.00">(...)</text>
</g>
<!-- 15999&#45;&gt;16501 -->
<g id="edge27" class="edge">
<title>15999&#45;&gt;16501</title>
<path fill="none" stroke="black" d="M1216.44,-71.75C1219.24,-63.32 1222.09,-54.77 1224.66,-47.07"/>
<polygon fill="black" stroke="black" points="1227.97,-48.2 1227.8,-37.61 1221.33,-45.99 1227.97,-48.2"/>
</g>
<!-- 16641 -->
<g id="node30" class="node">
<title>16641</title>
<path fill="#c0c0c0" stroke="black" d="M1355,-36C1355,-36 1325,-36 1325,-36 1319,-36 1313,-30 1313,-24 1313,-24 1313,-12 1313,-12 1313,-6 1319,0 1325,0 1325,0 1355,0 1355,0 1361,0 1367,-6 1367,-12 1367,-12 1367,-24 1367,-24 1367,-30 1361,-36 1355,-36"/>
<text text-anchor="middle" x="1340" y="-13.32" font-family="Helvetica,sans-Serif" font-size="14.00">(...)</text>
</g>
<!-- 16640&#45;&gt;16641 -->
<g id="edge29" class="edge">
<title>16640&#45;&gt;16641</title>
<path fill="none" stroke="black" d="M1359.16,-71.75C1356.06,-63.22 1352.92,-54.57 1350.1,-46.8"/>
<polygon fill="black" stroke="black" points="1353.46,-45.8 1346.75,-37.6 1346.88,-48.19 1353.46,-45.8"/>
</g>
<!-- 16848 -->
<g id="node31" class="node">
<title>16848</title>
<path fill="#c0c0c0" stroke="black" d="M1427,-36C1427,-36 1397,-36 1397,-36 1391,-36 1385,-30 1385,-24 1385,-24 1385,-12 1385,-12 1385,-6 1391,0 1397,0 1397,0 1427,0 1427,0 1433,0 1439,-6 1439,-12 1439,-12 1439,-24 1439,-24 1439,-30 1433,-36 1427,-36"/>
<text text-anchor="middle" x="1412" y="-13.32" font-family="Helvetica,sans-Serif" font-size="14.00">(...)</text>
</g>
<!-- 16640&#45;&gt;16848 -->
<g id="edge30" class="edge">
<title>16640&#45;&gt;16848</title>
<path fill="none" stroke="black" d="M1392.84,-71.75C1395.94,-63.22 1399.08,-54.57 1401.9,-46.8"/>
<polygon fill="black" stroke="black" points="1405.12,-48.19 1405.25,-37.6 1398.54,-45.8 1405.12,-48.19"/>
</g>
</g>
</svg>
