<?xml version="1.0" encoding="UTF-8" standalone="no"?>
<!DOCTYPE svg PUBLIC "-//W3C//DTD SVG 1.1//EN"
 "http://www.w3.org/Graphics/SVG/1.1/DTD/svg11.dtd">
<!-- Generated by graphviz version 12.0.0 (20240803.0821)
 -->
<!-- Title: Tree Pages: 1 -->
<svg width="1401pt" height="565pt"
 viewBox="0.00 0.00 1401.38 565.00" xmlns="http://www.w3.org/2000/svg" xmlns:xlink="http://www.w3.org/1999/xlink">
<g id="graph0" class="graph" transform="scale(1 1) rotate(0) translate(4 561)">
<title>Tree</title>
<polygon fill="white" stroke="none" points="-4,4 -4,-561 1397.38,-561 1397.38,4 -4,4"/>
<!-- 0 -->
<g id="node1" class="node">
<title>0</title>
<path fill="#fffefe" stroke="black" d="M794,-557C794,-557 634,-557 634,-557 628,-557 622,-551 622,-545 622,-545 622,-474.75 622,-474.75 622,-468.75 628,-462.75 634,-462.75 634,-462.75 794,-462.75 794,-462.75 800,-462.75 806,-468.75 806,-474.75 806,-474.75 806,-545 806,-545 806,-551 800,-557 794,-557"/>
<text text-anchor="middle" x="714" y="-539.7" font-family="Helvetica,sans-Serif" font-size="14.00">19_U &lt;= 0.5</text>
<text text-anchor="middle" x="714" y="-522.45" font-family="Helvetica,sans-Serif" font-size="14.00">entropy = 1.0</text>
<text text-anchor="middle" x="714" y="-505.2" font-family="Helvetica,sans-Serif" font-size="14.00">samples = 38136</text>
<text text-anchor="middle" x="714" y="-487.95" font-family="Helvetica,sans-Serif" font-size="14.00">value = [30262, 30083]</text>
<text text-anchor="middle" x="714" y="-470.7" font-family="Helvetica,sans-Serif" font-size="14.00">class = Animal</text>
</g>
<!-- 1 -->
<g id="node2" class="node">
<title>1</title>
<path fill="#dfeffb" stroke="black" d="M628,-426.75C628,-426.75 468,-426.75 468,-426.75 462,-426.75 456,-420.75 456,-414.75 456,-414.75 456,-344.5 456,-344.5 456,-338.5 462,-332.5 468,-332.5 468,-332.5 628,-332.5 628,-332.5 634,-332.5 640,-338.5 640,-344.5 640,-344.5 640,-414.75 640,-414.75 640,-420.75 634,-426.75 628,-426.75"/>
<text text-anchor="middle" x="548" y="-409.45" font-family="Helvetica,sans-Serif" font-size="14.00">22_A &lt;= 0.5</text>
<text text-anchor="middle" x="548" y="-392.2" font-family="Helvetica,sans-Serif" font-size="14.00">entropy = 0.994</text>
<text text-anchor="middle" x="548" y="-374.95" font-family="Helvetica,sans-Serif" font-size="14.00">samples = 29080</text>
<text text-anchor="middle" x="548" y="-357.7" font-family="Helvetica,sans-Serif" font-size="14.00">value = [20909, 24986]</text>
<text text-anchor="middle" x="548" y="-340.45" font-family="Helvetica,sans-Serif" font-size="14.00">class = Plant</text>
</g>
<!-- 0&#45;&gt;1 -->
<g id="edge1" class="edge">
<title>0&#45;&gt;1</title>
<path fill="none" stroke="black" d="M654.07,-462.57C642.04,-453.28 629.3,-443.44 616.99,-433.93"/>
<polygon fill="black" stroke="black" points="619.37,-431.34 609.32,-428 615.09,-436.88 619.37,-431.34"/>
<text text-anchor="middle" x="611.3" y="-447.2" font-family="Helvetica,sans-Serif" font-size="14.00">True</text>
</g>
<!-- 12422 -->
<g id="node17" class="node">
<title>12422</title>
<path fill="#f3c6a5" stroke="black" d="M969,-426.75C969,-426.75 827,-426.75 827,-426.75 821,-426.75 815,-420.75 815,-414.75 815,-414.75 815,-344.5 815,-344.5 815,-338.5 821,-332.5 827,-332.5 827,-332.5 969,-332.5 969,-332.5 975,-332.5 981,-338.5 981,-344.5 981,-344.5 981,-414.75 981,-414.75 981,-420.75 975,-426.75 969,-426.75"/>
<text text-anchor="middle" x="898" y="-409.45" font-family="Helvetica,sans-Serif" font-size="14.00">1_C &lt;= 0.5</text>
<text text-anchor="middle" x="898" y="-392.2" font-family="Helvetica,sans-Serif" font-size="14.00">entropy = 0.936</text>
<text text-anchor="middle" x="898" y="-374.95" font-family="Helvetica,sans-Serif" font-size="14.00">samples = 9056</text>
<text text-anchor="middle" x="898" y="-357.7" font-family="Helvetica,sans-Serif" font-size="14.00">value = [9353, 5097]</text>
<text text-anchor="middle" x="898" y="-340.45" font-family="Helvetica,sans-Serif" font-size="14.00">class = Animal</text>
</g>
<!-- 0&#45;&gt;12422 -->
<g id="edge16" class="edge">
<title>0&#45;&gt;12422</title>
<path fill="none" stroke="black" d="M780.69,-462.39C794.06,-453.07 808.2,-443.22 821.86,-433.69"/>
<polygon fill="black" stroke="black" points="823.79,-436.62 829.99,-428.03 819.78,-430.88 823.79,-436.62"/>
<text text-anchor="middle" x="826.84" y="-447.1" font-family="Helvetica,sans-Serif" font-size="14.00">False</text>
</g>
<!-- 2 -->
<g id="node3" class="node">
<title>2</title>
<path fill="#cee7f9" stroke="black" d="M365,-296.5C365,-296.5 205,-296.5 205,-296.5 199,-296.5 193,-290.5 193,-284.5 193,-284.5 193,-214.25 193,-214.25 193,-208.25 199,-202.25 205,-202.25 205,-202.25 365,-202.25 365,-202.25 371,-202.25 377,-208.25 377,-214.25 377,-214.25 377,-284.5 377,-284.5 377,-290.5 371,-296.5 365,-296.5"/>
<text text-anchor="middle" x="285" y="-279.2" font-family="Helvetica,sans-Serif" font-size="14.00">22_U &lt;= 0.5</text>
<text text-anchor="middle" x="285" y="-261.95" font-family="Helvetica,sans-Serif" font-size="14.00">entropy = 0.985</text>
<text text-anchor="middle" x="285" y="-244.7" font-family="Helvetica,sans-Serif" font-size="14.00">samples = 25953</text>
<text text-anchor="middle" x="285" y="-227.45" font-family="Helvetica,sans-Serif" font-size="14.00">value = [17561, 23407]</text>
<text text-anchor="middle" x="285" y="-210.2" font-family="Helvetica,sans-Serif" font-size="14.00">class = Plant</text>
</g>
<!-- 1&#45;&gt;2 -->
<g id="edge2" class="edge">
<title>1&#45;&gt;2</title>
<path fill="none" stroke="black" d="M455.65,-333.59C433.57,-322.82 409.87,-311.27 387.37,-300.3"/>
<polygon fill="black" stroke="black" points="389.01,-297.2 378.49,-295.97 385.95,-303.49 389.01,-297.2"/>
</g>
<!-- 10933 -->
<g id="node10" class="node">
<title>10933</title>
<path fill="#f1bc96" stroke="black" d="M619,-296.5C619,-296.5 477,-296.5 477,-296.5 471,-296.5 465,-290.5 465,-284.5 465,-284.5 465,-214.25 465,-214.25 465,-208.25 471,-202.25 477,-202.25 477,-202.25 619,-202.25 619,-202.25 625,-202.25 631,-208.25 631,-214.25 631,-214.25 631,-284.5 631,-284.5 631,-290.5 625,-296.5 619,-296.5"/>
<text text-anchor="middle" x="548" y="-279.2" font-family="Helvetica,sans-Serif" font-size="14.00">13_C &lt;= 0.5</text>
<text text-anchor="middle" x="548" y="-261.95" font-family="Helvetica,sans-Serif" font-size="14.00">entropy = 0.905</text>
<text text-anchor="middle" x="548" y="-244.7" font-family="Helvetica,sans-Serif" font-size="14.00">samples = 3127</text>
<text text-anchor="middle" x="548" y="-227.45" font-family="Helvetica,sans-Serif" font-size="14.00">value = [3348, 1579]</text>
<text text-anchor="middle" x="548" y="-210.2" font-family="Helvetica,sans-Serif" font-size="14.00">class = Animal</text>
</g>
<!-- 1&#45;&gt;10933 -->
<g id="edge9" class="edge">
<title>1&#45;&gt;10933</title>
<path fill="none" stroke="black" d="M548,-332.32C548,-324.42 548,-316.13 548,-307.98"/>
<polygon fill="black" stroke="black" points="551.5,-308.12 548,-298.12 544.5,-308.12 551.5,-308.12"/>
</g>
<!-- 3 -->
<g id="node4" class="node">
<title>3</title>
<path fill="#add6f4" stroke="black" d="M172,-166.25C172,-166.25 12,-166.25 12,-166.25 6,-166.25 0,-160.25 0,-154.25 0,-154.25 0,-84 0,-84 0,-78 6,-72 12,-72 12,-72 172,-72 172,-72 178,-72 184,-78 184,-84 184,-84 184,-154.25 184,-154.25 184,-160.25 178,-166.25 172,-166.25"/>
<text text-anchor="middle" x="92" y="-148.95" font-family="Helvetica,sans-Serif" font-size="14.00">9_U &lt;= 0.5</text>
<text text-anchor="middle" x="92" y="-131.7" font-family="Helvetica,sans-Serif" font-size="14.00">entropy = 0.95</text>
<text text-anchor="middle" x="92" y="-114.45" font-family="Helvetica,sans-Serif" font-size="14.00">samples = 22295</text>
<text text-anchor="middle" x="92" y="-97.2" font-family="Helvetica,sans-Serif" font-size="14.00">value = [12994, 22249]</text>
<text text-anchor="middle" x="92" y="-79.95" font-family="Helvetica,sans-Serif" font-size="14.00">class = Plant</text>
</g>
<!-- 2&#45;&gt;3 -->
<g id="edge3" class="edge">
<title>2&#45;&gt;3</title>
<path fill="none" stroke="black" d="M215.05,-201.89C200.89,-192.48 185.9,-182.53 171.45,-172.92"/>
<polygon fill="black" stroke="black" points="173.56,-170.12 163.3,-167.5 169.69,-175.95 173.56,-170.12"/>
</g>
<!-- 9406 -->
<g id="node7" class="node">
<title>9406</title>
<path fill="#eca16b" stroke="black" d="M356,-166.25C356,-166.25 214,-166.25 214,-166.25 208,-166.25 202,-160.25 202,-154.25 202,-154.25 202,-84 202,-84 202,-78 208,-72 214,-72 214,-72 356,-72 356,-72 362,-72 368,-78 368,-84 368,-84 368,-154.25 368,-154.25 368,-160.25 362,-166.25 356,-166.25"/>
<text text-anchor="middle" x="285" y="-148.95" font-family="Helvetica,sans-Serif" font-size="14.00">2_U &lt;= 0.5</text>
<text text-anchor="middle" x="285" y="-131.7" font-family="Helvetica,sans-Serif" font-size="14.00">entropy = 0.726</text>
<text text-anchor="middle" x="285" y="-114.45" font-family="Helvetica,sans-Serif" font-size="14.00">samples = 3658</text>
<text text-anchor="middle" x="285" y="-97.2" font-family="Helvetica,sans-Serif" font-size="14.00">value = [4567, 1158]</text>
<text text-anchor="middle" x="285" y="-79.95" font-family="Helvetica,sans-Serif" font-size="14.00">class = Animal</text>
</g>
<!-- 2&#45;&gt;9406 -->
<g id="edge6" class="edge">
<title>2&#45;&gt;9406</title>
<path fill="none" stroke="black" d="M285,-202.07C285,-194.17 285,-185.88 285,-177.73"/>
<polygon fill="black" stroke="black" points="288.5,-177.87 285,-167.87 281.5,-177.87 288.5,-177.87"/>
</g>
<!-- 4 -->
<g id="node5" class="node">
<title>4</title>
<path fill="#c0c0c0" stroke="black" d="M71,-36C71,-36 41,-36 41,-36 35,-36 29,-30 29,-24 29,-24 29,-12 29,-12 29,-6 35,0 41,0 41,0 71,0 71,0 77,0 83,-6 83,-12 83,-12 83,-24 83,-24 83,-30 77,-36 71,-36"/>
<text text-anchor="middle" x="56" y="-13.32" font-family="Helvetica,sans-Serif" font-size="14.00">(...)</text>
</g>
<!-- 3&#45;&gt;4 -->
<g id="edge4" class="edge">
<title>3&#45;&gt;4</title>
<path fill="none" stroke="black" d="M75.16,-71.75C72.06,-63.22 68.92,-54.57 66.1,-46.8"/>
<polygon fill="black" stroke="black" points="69.46,-45.8 62.75,-37.6 62.88,-48.19 69.46,-45.8"/>
</g>
<!-- 6743 -->
<g id="node6" class="node">
<title>6743</title>
<path fill="#c0c0c0" stroke="black" d="M143,-36C143,-36 113,-36 113,-36 107,-36 101,-30 101,-24 101,-24 101,-12 101,-12 101,-6 107,0 113,0 113,0 143,0 143,0 149,0 155,-6 155,-12 155,-12 155,-24 155,-24 155,-30 149,-36 143,-36"/>
<text text-anchor="middle" x="128" y="-13.32" font-family="Helvetica,sans-Serif" font-size="14.00">(...)</text>
</g>
<!-- 3&#45;&gt;6743 -->
<g id="edge5" class="edge">
<title>3&#45;&gt;6743</title>
<path fill="none" stroke="black" d="M108.84,-71.75C111.94,-63.22 115.08,-54.57 117.9,-46.8"/>
<polygon fill="black" stroke="black" points="121.12,-48.19 121.25,-37.6 114.54,-45.8 121.12,-48.19"/>
</g>
<!-- 9407 -->
<g id="node8" class="node">
<title>9407</title>
<path fill="#c0c0c0" stroke="black" d="M259,-36C259,-36 229,-36 229,-36 223,-36 217,-30 217,-24 217,-24 217,-12 217,-12 217,-6 223,0 229,0 229,0 259,0 259,0 265,0 271,-6 271,-12 271,-12 271,-24 271,-24 271,-30 265,-36 259,-36"/>
<text text-anchor="middle" x="244" y="-13.32" font-family="Helvetica,sans-Serif" font-size="14.00">(...)</text>
</g>
<!-- 9406&#45;&gt;9407 -->
<g id="edge7" class="edge">
<title>9406&#45;&gt;9407</title>
<path fill="none" stroke="black" d="M265.82,-71.75C262.29,-63.22 258.71,-54.57 255.5,-46.8"/>
<polygon fill="black" stroke="black" points="258.74,-45.47 251.68,-37.57 252.27,-48.15 258.74,-45.47"/>
</g>
<!-- 10484 -->
<g id="node9" class="node">
<title>10484</title>
<path fill="#c0c0c0" stroke="black" d="M331,-36C331,-36 301,-36 301,-36 295,-36 289,-30 289,-24 289,-24 289,-12 289,-12 289,-6 295,0 301,0 301,0 331,0 331,0 337,0 343,-6 343,-12 343,-12 343,-24 343,-24 343,-30 337,-36 331,-36"/>
<text text-anchor="middle" x="316" y="-13.32" font-family="Helvetica,sans-Serif" font-size="14.00">(...)</text>
</g>
<!-- 9406&#45;&gt;10484 -->
<g id="edge8" class="edge">
<title>9406&#45;&gt;10484</title>
<path fill="none" stroke="black" d="M299.5,-71.75C302.14,-63.32 304.81,-54.77 307.22,-47.07"/>
<polygon fill="black" stroke="black" points="310.53,-48.21 310.18,-37.62 303.85,-46.12 310.53,-48.21"/>
</g>
<!-- 10934 -->
<g id="node11" class="node">
<title>10934</title>
<path fill="#eeae80" stroke="black" d="M531.5,-166.25C531.5,-166.25 398.5,-166.25 398.5,-166.25 392.5,-166.25 386.5,-160.25 386.5,-154.25 386.5,-154.25 386.5,-84 386.5,-84 386.5,-78 392.5,-72 398.5,-72 398.5,-72 531.5,-72 531.5,-72 537.5,-72 543.5,-78 543.5,-84 543.5,-84 543.5,-154.25 543.5,-154.25 543.5,-160.25 537.5,-166.25 531.5,-166.25"/>
<text text-anchor="middle" x="465" y="-148.95" font-family="Helvetica,sans-Serif" font-size="14.00">6_U &lt;= 0.5</text>
<text text-anchor="middle" x="465" y="-131.7" font-family="Helvetica,sans-Serif" font-size="14.00">entropy = 0.832</text>
<text text-anchor="middle" x="465" y="-114.45" font-family="Helvetica,sans-Serif" font-size="14.00">samples = 2364</text>
<text text-anchor="middle" x="465" y="-97.2" font-family="Helvetica,sans-Serif" font-size="14.00">value = [2746, 984]</text>
<text text-anchor="middle" x="465" y="-79.95" font-family="Helvetica,sans-Serif" font-size="14.00">class = Animal</text>
</g>
<!-- 10933&#45;&gt;10934 -->
<g id="edge10" class="edge">
<title>10933&#45;&gt;10934</title>
<path fill="none" stroke="black" d="M518.04,-202.07C512.51,-193.54 506.69,-184.54 501.01,-175.77"/>
<polygon fill="black" stroke="black" points="504.11,-174.12 495.74,-167.63 498.24,-177.93 504.11,-174.12"/>
</g>
<!-- 12109 -->
<g id="node14" class="node">
<title>12109</title>
<path fill="#fffefd" stroke="black" d="M698,-166.25C698,-166.25 574,-166.25 574,-166.25 568,-166.25 562,-160.25 562,-154.25 562,-154.25 562,-84 562,-84 562,-78 568,-72 574,-72 574,-72 698,-72 698,-72 704,-72 710,-78 710,-84 710,-84 710,-154.25 710,-154.25 710,-160.25 704,-166.25 698,-166.25"/>
<text text-anchor="middle" x="636" y="-148.95" font-family="Helvetica,sans-Serif" font-size="14.00">7_C &lt;= 0.5</text>
<text text-anchor="middle" x="636" y="-131.7" font-family="Helvetica,sans-Serif" font-size="14.00">entropy = 1.0</text>
<text text-anchor="middle" x="636" y="-114.45" font-family="Helvetica,sans-Serif" font-size="14.00">samples = 763</text>
<text text-anchor="middle" x="636" y="-97.2" font-family="Helvetica,sans-Serif" font-size="14.00">value = [602, 595]</text>
<text text-anchor="middle" x="636" y="-79.95" font-family="Helvetica,sans-Serif" font-size="14.00">class = Animal</text>
</g>
<!-- 10933&#45;&gt;12109 -->
<g id="edge13" class="edge">
<title>10933&#45;&gt;12109</title>
<path fill="none" stroke="black" d="M579.77,-202.07C585.63,-193.54 591.8,-184.54 597.82,-175.77"/>
<polygon fill="black" stroke="black" points="600.65,-177.83 603.42,-167.61 594.88,-173.87 600.65,-177.83"/>
</g>
<!-- 10935 -->
<g id="node12" class="node">
<title>10935</title>
<path fill="#c0c0c0" stroke="black" d="M421,-36C421,-36 391,-36 391,-36 385,-36 379,-30 379,-24 379,-24 379,-12 379,-12 379,-6 385,0 391,0 391,0 421,0 421,0 427,0 433,-6 433,-12 433,-12 433,-24 433,-24 433,-30 427,-36 421,-36"/>
<text text-anchor="middle" x="406" y="-13.32" font-family="Helvetica,sans-Serif" font-size="14.00">(...)</text>
</g>
<!-- 10934&#45;&gt;10935 -->
<g id="edge11" class="edge">
<title>10934&#45;&gt;10935</title>
<path fill="none" stroke="black" d="M437.4,-71.75C432.15,-62.93 426.81,-53.96 422.06,-45.99"/>
<polygon fill="black" stroke="black" points="425.12,-44.28 417,-37.47 419.1,-47.86 425.12,-44.28"/>
</g>
<!-- 11814 -->
<g id="node13" class="node">
<title>11814</title>
<path fill="#c0c0c0" stroke="black" d="M493,-36C493,-36 463,-36 463,-36 457,-36 451,-30 451,-24 451,-24 451,-12 451,-12 451,-6 457,0 463,0 463,0 493,0 493,0 499,0 505,-6 505,-12 505,-12 505,-24 505,-24 505,-30 499,-36 493,-36"/>
<text text-anchor="middle" x="478" y="-13.32" font-family="Helvetica,sans-Serif" font-size="14.00">(...)</text>
</g>
<!-- 10934&#45;&gt;11814 -->
<g id="edge12" class="edge">
<title>10934&#45;&gt;11814</title>
<path fill="none" stroke="black" d="M471.08,-71.75C472.17,-63.42 473.28,-54.97 474.28,-47.34"/>
<polygon fill="black" stroke="black" points="477.72,-48.04 475.55,-37.67 470.78,-47.13 477.72,-48.04"/>
</g>
<!-- 12110 -->
<g id="node15" class="node">
<title>12110</title>
<path fill="#c0c0c0" stroke="black" d="M594,-36C594,-36 564,-36 564,-36 558,-36 552,-30 552,-24 552,-24 552,-12 552,-12 552,-6 558,0 564,0 564,0 594,0 594,0 600,0 606,-6 606,-12 606,-12 606,-24 606,-24 606,-30 600,-36 594,-36"/>
<text text-anchor="middle" x="579" y="-13.32" font-family="Helvetica,sans-Serif" font-size="14.00">(...)</text>
</g>
<!-- 12109&#45;&gt;12110 -->
<g id="edge14" class="edge">
<title>12109&#45;&gt;12110</title>
<path fill="none" stroke="black" d="M609.34,-71.75C604.26,-62.93 599.1,-53.96 594.52,-45.99"/>
<polygon fill="black" stroke="black" points="597.65,-44.41 589.63,-37.48 591.58,-47.9 597.65,-44.41"/>
</g>
<!-- 12365 -->
<g id="node16" class="node">
<title>12365</title>
<path fill="#c0c0c0" stroke="black" d="M666,-36C666,-36 636,-36 636,-36 630,-36 624,-30 624,-24 624,-24 624,-12 624,-12 624,-6 630,0 636,0 636,0 666,0 666,0 672,0 678,-6 678,-12 678,-12 678,-24 678,-24 678,-30 672,-36 666,-36"/>
<text text-anchor="middle" x="651" y="-13.32" font-family="Helvetica,sans-Serif" font-size="14.00">(...)</text>
</g>
<!-- 12109&#45;&gt;12365 -->
<g id="edge15" class="edge">
<title>12109&#45;&gt;12365</title>
<path fill="none" stroke="black" d="M643.02,-71.75C644.28,-63.42 645.56,-54.97 646.71,-47.34"/>
<polygon fill="black" stroke="black" points="650.14,-48.08 648.17,-37.67 643.22,-47.03 650.14,-48.08"/>
</g>
<!-- 12423 -->
<g id="node18" class="node">
<title>12423</title>
<path fill="#f4cbad" stroke="black" d="M969,-296.5C969,-296.5 827,-296.5 827,-296.5 821,-296.5 815,-290.5 815,-284.5 815,-284.5 815,-214.25 815,-214.25 815,-208.25 821,-202.25 827,-202.25 827,-202.25 969,-202.25 969,-202.25 975,-202.25 981,-208.25 981,-214.25 981,-214.25 981,-284.5 981,-284.5 981,-290.5 975,-296.5 969,-296.5"/>
<text text-anchor="middle" x="898" y="-279.2" font-family="Helvetica,sans-Serif" font-size="14.00">22_G &lt;= 0.5</text>
<text text-anchor="middle" x="898" y="-261.95" font-family="Helvetica,sans-Serif" font-size="14.00">entropy = 0.949</text>
<text text-anchor="middle" x="898" y="-244.7" font-family="Helvetica,sans-Serif" font-size="14.00">samples = 7546</text>
<text text-anchor="middle" x="898" y="-227.45" font-family="Helvetica,sans-Serif" font-size="14.00">value = [7623, 4447]</text>
<text text-anchor="middle" x="898" y="-210.2" font-family="Helvetica,sans-Serif" font-size="14.00">class = Animal</text>
</g>
<!-- 12422&#45;&gt;12423 -->
<g id="edge17" class="edge">
<title>12422&#45;&gt;12423</title>
<path fill="none" stroke="black" d="M898,-332.32C898,-324.42 898,-316.13 898,-307.98"/>
<polygon fill="black" stroke="black" points="901.5,-308.12 898,-298.12 894.5,-308.12 901.5,-308.12"/>
</g>
<!-- 15928 -->
<g id="node25" class="node">
<title>15928</title>
<path fill="#efb083" stroke="black" d="M1232.5,-296.5C1232.5,-296.5 1099.5,-296.5 1099.5,-296.5 1093.5,-296.5 1087.5,-290.5 1087.5,-284.5 1087.5,-284.5 1087.5,-214.25 1087.5,-214.25 1087.5,-208.25 1093.5,-202.25 1099.5,-202.25 1099.5,-202.25 1232.5,-202.25 1232.5,-202.25 1238.5,-202.25 1244.5,-208.25 1244.5,-214.25 1244.5,-214.25 1244.5,-284.5 1244.5,-284.5 1244.5,-290.5 1238.5,-296.5 1232.5,-296.5"/>
<text text-anchor="middle" x="1166" y="-279.2" font-family="Helvetica,sans-Serif" font-size="14.00">23_A &lt;= 0.5</text>
<text text-anchor="middle" x="1166" y="-261.95" font-family="Helvetica,sans-Serif" font-size="14.00">entropy = 0.846</text>
<text text-anchor="middle" x="1166" y="-244.7" font-family="Helvetica,sans-Serif" font-size="14.00">samples = 1510</text>
<text text-anchor="middle" x="1166" y="-227.45" font-family="Helvetica,sans-Serif" font-size="14.00">value = [1730, 650]</text>
<text text-anchor="middle" x="1166" y="-210.2" font-family="Helvetica,sans-Serif" font-size="14.00">class = Animal</text>
</g>
<!-- 12422&#45;&gt;15928 -->
<g id="edge24" class="edge">
<title>12422&#45;&gt;15928</title>
<path fill="none" stroke="black" d="M981.33,-338.75C1011.7,-324.21 1046.14,-307.73 1076.99,-292.97"/>
<polygon fill="black" stroke="black" points="1078.43,-296.16 1085.94,-288.69 1075.4,-289.85 1078.43,-296.16"/>
</g>
<!-- 12424 -->
<g id="node19" class="node">
<title>12424</title>
<path fill="#f7d9c4" stroke="black" d="M882,-166.25C882,-166.25 740,-166.25 740,-166.25 734,-166.25 728,-160.25 728,-154.25 728,-154.25 728,-84 728,-84 728,-78 734,-72 740,-72 740,-72 882,-72 882,-72 888,-72 894,-78 894,-84 894,-84 894,-154.25 894,-154.25 894,-160.25 888,-166.25 882,-166.25"/>
<text text-anchor="middle" x="811" y="-148.95" font-family="Helvetica,sans-Serif" font-size="14.00">23_U &lt;= 0.5</text>
<text text-anchor="middle" x="811" y="-131.7" font-family="Helvetica,sans-Serif" font-size="14.00">entropy = 0.978</text>
<text text-anchor="middle" x="811" y="-114.45" font-family="Helvetica,sans-Serif" font-size="14.00">samples = 6282</text>
<text text-anchor="middle" x="811" y="-97.2" font-family="Helvetica,sans-Serif" font-size="14.00">value = [5922, 4158]</text>
<text text-anchor="middle" x="811" y="-79.95" font-family="Helvetica,sans-Serif" font-size="14.00">class = Animal</text>
</g>
<!-- 12423&#45;&gt;12424 -->
<g id="edge18" class="edge">
<title>12423&#45;&gt;12424</title>
<path fill="none" stroke="black" d="M866.59,-202.07C860.8,-193.54 854.7,-184.54 848.75,-175.77"/>
<polygon fill="black" stroke="black" points="851.72,-173.92 843.21,-167.61 845.93,-177.85 851.72,-173.92"/>
</g>
<!-- 15569 -->
<g id="node22" class="node">
<title>15569</title>
<path fill="#e9965b" stroke="black" d="M1057.5,-166.25C1057.5,-166.25 924.5,-166.25 924.5,-166.25 918.5,-166.25 912.5,-160.25 912.5,-154.25 912.5,-154.25 912.5,-84 912.5,-84 912.5,-78 918.5,-72 924.5,-72 924.5,-72 1057.5,-72 1057.5,-72 1063.5,-72 1069.5,-78 1069.5,-84 1069.5,-84 1069.5,-154.25 1069.5,-154.25 1069.5,-160.25 1063.5,-166.25 1057.5,-166.25"/>
<text text-anchor="middle" x="991" y="-148.95" font-family="Helvetica,sans-Serif" font-size="14.00">8_G &lt;= 0.5</text>
<text text-anchor="middle" x="991" y="-131.7" font-family="Helvetica,sans-Serif" font-size="14.00">entropy = 0.598</text>
<text text-anchor="middle" x="991" y="-114.45" font-family="Helvetica,sans-Serif" font-size="14.00">samples = 1264</text>
<text text-anchor="middle" x="991" y="-97.2" font-family="Helvetica,sans-Serif" font-size="14.00">value = [1701, 289]</text>
<text text-anchor="middle" x="991" y="-79.95" font-family="Helvetica,sans-Serif" font-size="14.00">class = Animal</text>
</g>
<!-- 12423&#45;&gt;15569 -->
<g id="edge21" class="edge">
<title>12423&#45;&gt;15569</title>
<path fill="none" stroke="black" d="M931.58,-202.07C937.83,-193.45 944.43,-184.35 950.85,-175.49"/>
<polygon fill="black" stroke="black" points="953.55,-177.73 956.59,-167.58 947.88,-173.62 953.55,-177.73"/>
</g>
<!-- 12425 -->
<g id="node20" class="node">
<title>12425</title>
<path fill="#c0c0c0" stroke="black" d="M772,-36C772,-36 742,-36 742,-36 736,-36 730,-30 730,-24 730,-24 730,-12 730,-12 730,-6 736,0 742,0 742,0 772,0 772,0 778,0 784,-6 784,-12 784,-12 784,-24 784,-24 784,-30 778,-36 772,-36"/>
<text text-anchor="middle" x="757" y="-13.32" font-family="Helvetica,sans-Serif" font-size="14.00">(...)</text>
</g>
<!-- 12424&#45;&gt;12425 -->
<g id="edge19" class="edge">
<title>12424&#45;&gt;12425</title>
<path fill="none" stroke="black" d="M785.74,-71.75C780.98,-63.03 776.16,-54.16 771.85,-46.26"/>
<polygon fill="black" stroke="black" points="774.94,-44.61 767.08,-37.5 768.79,-47.96 774.94,-44.61"/>
</g>
<!-- 15460 -->
<g id="node21" class="node">
<title>15460</title>
<path fill="#c0c0c0" stroke="black" d="M844,-36C844,-36 814,-36 814,-36 808,-36 802,-30 802,-24 802,-24 802,-12 802,-12 802,-6 808,0 814,0 814,0 844,0 844,0 850,0 856,-6 856,-12 856,-12 856,-24 856,-24 856,-30 850,-36 844,-36"/>
<text text-anchor="middle" x="829" y="-13.32" font-family="Helvetica,sans-Serif" font-size="14.00">(...)</text>
</g>
<!-- 12424&#45;&gt;15460 -->
<g id="edge20" class="edge">
<title>12424&#45;&gt;15460</title>
<path fill="none" stroke="black" d="M819.42,-71.75C820.93,-63.42 822.47,-54.97 823.85,-47.34"/>
<polygon fill="black" stroke="black" points="827.27,-48.13 825.61,-37.66 820.38,-46.88 827.27,-48.13"/>
</g>
<!-- 15570 -->
<g id="node23" class="node">
<title>15570</title>
<path fill="#c0c0c0" stroke="black" d="M949,-36C949,-36 919,-36 919,-36 913,-36 907,-30 907,-24 907,-24 907,-12 907,-12 907,-6 913,0 919,0 919,0 949,0 949,0 955,0 961,-6 961,-12 961,-12 961,-24 961,-24 961,-30 955,-36 949,-36"/>
<text text-anchor="middle" x="934" y="-13.32" font-family="Helvetica,sans-Serif" font-size="14.00">(...)</text>
</g>
<!-- 15569&#45;&gt;15570 -->
<g id="edge22" class="edge">
<title>15569&#45;&gt;15570</title>
<path fill="none" stroke="black" d="M964.34,-71.75C959.26,-62.93 954.1,-53.96 949.52,-45.99"/>
<polygon fill="black" stroke="black" points="952.65,-44.41 944.63,-37.48 946.58,-47.9 952.65,-44.41"/>
</g>
<!-- 15827 -->
<g id="node24" class="node">
<title>15827</title>
<path fill="#c0c0c0" stroke="black" d="M1021,-36C1021,-36 991,-36 991,-36 985,-36 979,-30 979,-24 979,-24 979,-12 979,-12 979,-6 985,0 991,0 991,0 1021,0 1021,0 1027,0 1033,-6 1033,-12 1033,-12 1033,-24 1033,-24 1033,-30 1027,-36 1021,-36"/>
<text text-anchor="middle" x="1006" y="-13.32" font-family="Helvetica,sans-Serif" font-size="14.00">(...)</text>
</g>
<!-- 15569&#45;&gt;15827 -->
<g id="edge23" class="edge">
<title>15569&#45;&gt;15827</title>
<path fill="none" stroke="black" d="M998.02,-71.75C999.28,-63.42 1000.56,-54.97 1001.71,-47.34"/>
<polygon fill="black" stroke="black" points="1005.14,-48.08 1003.17,-37.67 998.22,-47.03 1005.14,-48.08"/>
</g>
<!-- 15929 -->
<g id="node26" class="node">
<title>15929</title>
<path fill="#efb286" stroke="black" d="M1232.5,-166.25C1232.5,-166.25 1099.5,-166.25 1099.5,-166.25 1093.5,-166.25 1087.5,-160.25 1087.5,-154.25 1087.5,-154.25 1087.5,-84 1087.5,-84 1087.5,-78 1093.5,-72 1099.5,-72 1099.5,-72 1232.5,-72 1232.5,-72 1238.5,-72 1244.5,-78 1244.5,-84 1244.5,-84 1244.5,-154.25 1244.5,-154.25 1244.5,-160.25 1238.5,-166.25 1232.5,-166.25"/>
<text text-anchor="middle" x="1166" y="-148.95" font-family="Helvetica,sans-Serif" font-size="14.00">13_G &lt;= 0.5</text>
<text text-anchor="middle" x="1166" y="-131.7" font-family="Helvetica,sans-Serif" font-size="14.00">entropy = 0.856</text>
<text text-anchor="middle" x="1166" y="-114.45" font-family="Helvetica,sans-Serif" font-size="14.00">samples = 1446</text>
<text text-anchor="middle" x="1166" y="-97.2" font-family="Helvetica,sans-Serif" font-size="14.00">value = [1641, 640]</text>
<text text-anchor="middle" x="1166" y="-79.95" font-family="Helvetica,sans-Serif" font-size="14.00">class = Animal</text>
</g>
<!-- 15928&#45;&gt;15929 -->
<g id="edge25" class="edge">
<title>15928&#45;&gt;15929</title>
<path fill="none" stroke="black" d="M1166,-202.07C1166,-194.17 1166,-185.88 1166,-177.73"/>
<polygon fill="black" stroke="black" points="1169.5,-177.87 1166,-167.87 1162.5,-177.87 1169.5,-177.87"/>
</g>
<!-- 16658 -->
<g id="node29" class="node">
<title>16658</title>
<path fill="#e88f4f" stroke="black" d="M1381.38,-166.25C1381.38,-166.25 1274.62,-166.25 1274.62,-166.25 1268.62,-166.25 1262.62,-160.25 1262.62,-154.25 1262.62,-154.25 1262.62,-84 1262.62,-84 1262.62,-78 1268.62,-72 1274.62,-72 1274.62,-72 1381.38,-72 1381.38,-72 1387.38,-72 1393.38,-78 1393.38,-84 1393.38,-84 1393.38,-154.25 1393.38,-154.25 1393.38,-160.25 1387.38,-166.25 1381.38,-166.25"/>
<text text-anchor="middle" x="1328" y="-148.95" font-family="Helvetica,sans-Serif" font-size="14.00">11_A &lt;= 0.5</text>
<text text-anchor="middle" x="1328" y="-131.7" font-family="Helvetica,sans-Serif" font-size="14.00">entropy = 0.472</text>
<text text-anchor="middle" x="1328" y="-114.45" font-family="Helvetica,sans-Serif" font-size="14.00">samples = 64</text>
<text text-anchor="middle" x="1328" y="-97.2" font-family="Helvetica,sans-Serif" font-size="14.00">value = [89, 10]</text>
<text text-anchor="middle" x="1328" y="-79.95" font-family="Helvetica,sans-Serif" font-size="14.00">class = Animal</text>
</g>
<!-- 15928&#45;&gt;16658 -->
<g id="edge28" class="edge">
<title>15928&#45;&gt;16658</title>
<path fill="none" stroke="black" d="M1224.49,-202.07C1236.11,-192.87 1248.41,-183.13 1260.32,-173.71"/>
<polygon fill="black" stroke="black" points="1262.47,-176.46 1268.14,-167.51 1258.13,-170.98 1262.47,-176.46"/>
</g>
<!-- 15930 -->
<g id="node27" class="node">
<title>15930</title>
<path fill="#c0c0c0" stroke="black" d="M1136,-36C1136,-36 1106,-36 1106,-36 1100,-36 1094,-30 1094,-24 1094,-24 1094,-12 1094,-12 1094,-6 1100,0 1106,0 1106,0 1136,0 1136,0 1142,0 1148,-6 1148,-12 1148,-12 1148,-24 1148,-24 1148,-30 1142,-36 1136,-36"/>
<text text-anchor="middle" x="1121" y="-13.32" font-family="Helvetica,sans-Serif" font-size="14.00">(...)</text>
</g>
<!-- 15929&#45;&gt;15930 -->
<g id="edge26" class="edge">
<title>15929&#45;&gt;15930</title>
<path fill="none" stroke="black" d="M1144.95,-71.75C1141.03,-63.12 1137.05,-54.36 1133.5,-46.53"/>
<polygon fill="black" stroke="black" points="1136.74,-45.21 1129.42,-37.55 1130.37,-48.1 1136.74,-45.21"/>
</g>
<!-- 16491 -->
<g id="node28" class="node">
<title>16491</title>
<path fill="#c0c0c0" stroke="black" d="M1208,-36C1208,-36 1178,-36 1178,-36 1172,-36 1166,-30 1166,-24 1166,-24 1166,-12 1166,-12 1166,-6 1172,0 1178,0 1178,0 1208,0 1208,0 1214,0 1220,-6 1220,-12 1220,-12 1220,-24 1220,-24 1220,-30 1214,-36 1208,-36"/>
<text text-anchor="middle" x="1193" y="-13.32" font-family="Helvetica,sans-Serif" font-size="14.00">(...)</text>
</g>
<!-- 15929&#45;&gt;16491 -->
<g id="edge27" class="edge">
<title>15929&#45;&gt;16491</title>
<path fill="none" stroke="black" d="M1178.63,-71.75C1180.93,-63.32 1183.26,-54.77 1185.35,-47.07"/>
<polygon fill="black" stroke="black" points="1188.67,-48.2 1187.92,-37.63 1181.92,-46.36 1188.67,-48.2"/>
</g>
<!-- 16659 -->
<g id="node30" class="node">
<title>16659</title>
<path fill="#c0c0c0" stroke="black" d="M1307,-36C1307,-36 1277,-36 1277,-36 1271,-36 1265,-30 1265,-24 1265,-24 1265,-12 1265,-12 1265,-6 1271,0 1277,0 1277,0 1307,0 1307,0 1313,0 1319,-6 1319,-12 1319,-12 1319,-24 1319,-24 1319,-30 1313,-36 1307,-36"/>
<text text-anchor="middle" x="1292" y="-13.32" font-family="Helvetica,sans-Serif" font-size="14.00">(...)</text>
</g>
<!-- 16658&#45;&gt;16659 -->
<g id="edge29" class="edge">
<title>16658&#45;&gt;16659</title>
<path fill="none" stroke="black" d="M1311.16,-71.75C1308.06,-63.22 1304.92,-54.57 1302.1,-46.8"/>
<polygon fill="black" stroke="black" points="1305.46,-45.8 1298.75,-37.6 1298.88,-48.19 1305.46,-45.8"/>
</g>
<!-- 16672 -->
<g id="node31" class="node">
<title>16672</title>
<path fill="#c0c0c0" stroke="black" d="M1379,-36C1379,-36 1349,-36 1349,-36 1343,-36 1337,-30 1337,-24 1337,-24 1337,-12 1337,-12 1337,-6 1343,0 1349,0 1349,0 1379,0 1379,0 1385,0 1391,-6 1391,-12 1391,-12 1391,-24 1391,-24 1391,-30 1385,-36 1379,-36"/>
<text text-anchor="middle" x="1364" y="-13.32" font-family="Helvetica,sans-Serif" font-size="14.00">(...)</text>
</g>
<!-- 16658&#45;&gt;16672 -->
<g id="edge30" class="edge">
<title>16658&#45;&gt;16672</title>
<path fill="none" stroke="black" d="M1344.84,-71.75C1347.94,-63.22 1351.08,-54.57 1353.9,-46.8"/>
<polygon fill="black" stroke="black" points="1357.12,-48.19 1357.25,-37.6 1350.54,-45.8 1357.12,-48.19"/>
</g>
</g>
</svg>
