<?xml version="1.0" encoding="UTF-8" standalone="no"?>
<!DOCTYPE svg PUBLIC "-//W3C//DTD SVG 1.1//EN"
 "http://www.w3.org/Graphics/SVG/1.1/DTD/svg11.dtd">
<!-- Generated by graphviz version 12.0.0 (20240803.0821)
 -->
<!-- Title: Tree Pages: 1 -->
<svg width="1428pt" height="565pt"
 viewBox="0.00 0.00 1428.00 565.00" xmlns="http://www.w3.org/2000/svg" xmlns:xlink="http://www.w3.org/1999/xlink">
<g id="graph0" class="graph" transform="scale(1 1) rotate(0) translate(4 561)">
<title>Tree</title>
<polygon fill="white" stroke="none" points="-4,4 -4,-561 1424,-561 1424,4 -4,4"/>
<!-- 0 -->
<g id="node1" class="node">
<title>0</title>
<path fill="#ffffff" stroke="black" d="M803,-557C803,-557 643,-557 643,-557 637,-557 631,-551 631,-545 631,-545 631,-474.75 631,-474.75 631,-468.75 637,-462.75 643,-462.75 643,-462.75 803,-462.75 803,-462.75 809,-462.75 815,-468.75 815,-474.75 815,-474.75 815,-545 815,-545 815,-551 809,-557 803,-557"/>
<text text-anchor="middle" x="723" y="-539.7" font-family="Helvetica,sans-Serif" font-size="14.00">19_U &lt;= 0.5</text>
<text text-anchor="middle" x="723" y="-522.45" font-family="Helvetica,sans-Serif" font-size="14.00">entropy = 1.0</text>
<text text-anchor="middle" x="723" y="-505.2" font-family="Helvetica,sans-Serif" font-size="14.00">samples = 38069</text>
<text text-anchor="middle" x="723" y="-487.95" font-family="Helvetica,sans-Serif" font-size="14.00">value = [30155, 30190]</text>
<text text-anchor="middle" x="723" y="-470.7" font-family="Helvetica,sans-Serif" font-size="14.00">class = Plant</text>
</g>
<!-- 1 -->
<g id="node2" class="node">
<title>1</title>
<path fill="#deeffb" stroke="black" d="M632,-426.75C632,-426.75 472,-426.75 472,-426.75 466,-426.75 460,-420.75 460,-414.75 460,-414.75 460,-344.5 460,-344.5 460,-338.5 466,-332.5 472,-332.5 472,-332.5 632,-332.5 632,-332.5 638,-332.5 644,-338.5 644,-344.5 644,-344.5 644,-414.75 644,-414.75 644,-420.75 638,-426.75 632,-426.75"/>
<text text-anchor="middle" x="552" y="-409.45" font-family="Helvetica,sans-Serif" font-size="14.00">22_U &lt;= 0.5</text>
<text text-anchor="middle" x="552" y="-392.2" font-family="Helvetica,sans-Serif" font-size="14.00">entropy = 0.994</text>
<text text-anchor="middle" x="552" y="-374.95" font-family="Helvetica,sans-Serif" font-size="14.00">samples = 29086</text>
<text text-anchor="middle" x="552" y="-357.7" font-family="Helvetica,sans-Serif" font-size="14.00">value = [20932, 25075]</text>
<text text-anchor="middle" x="552" y="-340.45" font-family="Helvetica,sans-Serif" font-size="14.00">class = Plant</text>
</g>
<!-- 0&#45;&gt;1 -->
<g id="edge1" class="edge">
<title>0&#45;&gt;1</title>
<path fill="none" stroke="black" d="M661.27,-462.57C648.87,-453.28 635.75,-443.44 623.07,-433.93"/>
<polygon fill="black" stroke="black" points="625.24,-431.18 615.14,-427.98 621.04,-436.78 625.24,-431.18"/>
<text text-anchor="middle" x="617.47" y="-447.15" font-family="Helvetica,sans-Serif" font-size="14.00">True</text>
</g>
<!-- 12316 -->
<g id="node17" class="node">
<title>12316</title>
<path fill="#f3c7a7" stroke="black" d="M978,-426.75C978,-426.75 836,-426.75 836,-426.75 830,-426.75 824,-420.75 824,-414.75 824,-414.75 824,-344.5 824,-344.5 824,-338.5 830,-332.5 836,-332.5 836,-332.5 978,-332.5 978,-332.5 984,-332.5 990,-338.5 990,-344.5 990,-344.5 990,-414.75 990,-414.75 990,-420.75 984,-426.75 978,-426.75"/>
<text text-anchor="middle" x="907" y="-409.45" font-family="Helvetica,sans-Serif" font-size="14.00">22_G &lt;= 0.5</text>
<text text-anchor="middle" x="907" y="-392.2" font-family="Helvetica,sans-Serif" font-size="14.00">entropy = 0.94</text>
<text text-anchor="middle" x="907" y="-374.95" font-family="Helvetica,sans-Serif" font-size="14.00">samples = 8983</text>
<text text-anchor="middle" x="907" y="-357.7" font-family="Helvetica,sans-Serif" font-size="14.00">value = [9223, 5115]</text>
<text text-anchor="middle" x="907" y="-340.45" font-family="Helvetica,sans-Serif" font-size="14.00">class = Animal</text>
</g>
<!-- 0&#45;&gt;12316 -->
<g id="edge16" class="edge">
<title>0&#45;&gt;12316</title>
<path fill="none" stroke="black" d="M789.69,-462.39C803.06,-453.07 817.2,-443.22 830.86,-433.69"/>
<polygon fill="black" stroke="black" points="832.79,-436.62 838.99,-428.03 828.78,-430.88 832.79,-436.62"/>
<text text-anchor="middle" x="835.84" y="-447.1" font-family="Helvetica,sans-Serif" font-size="14.00">False</text>
</g>
<!-- 2 -->
<g id="node3" class="node">
<title>2</title>
<path fill="#c0e0f7" stroke="black" d="M365,-296.5C365,-296.5 205,-296.5 205,-296.5 199,-296.5 193,-290.5 193,-284.5 193,-284.5 193,-214.25 193,-214.25 193,-208.25 199,-202.25 205,-202.25 205,-202.25 365,-202.25 365,-202.25 371,-202.25 377,-208.25 377,-214.25 377,-214.25 377,-284.5 377,-284.5 377,-290.5 371,-296.5 365,-296.5"/>
<text text-anchor="middle" x="285" y="-279.2" font-family="Helvetica,sans-Serif" font-size="14.00">22_A &lt;= 0.5</text>
<text text-anchor="middle" x="285" y="-261.95" font-family="Helvetica,sans-Serif" font-size="14.00">entropy = 0.974</text>
<text text-anchor="middle" x="285" y="-244.7" font-family="Helvetica,sans-Serif" font-size="14.00">samples = 25382</text>
<text text-anchor="middle" x="285" y="-227.45" font-family="Helvetica,sans-Serif" font-size="14.00">value = [16249, 23893]</text>
<text text-anchor="middle" x="285" y="-210.2" font-family="Helvetica,sans-Serif" font-size="14.00">class = Plant</text>
</g>
<!-- 1&#45;&gt;2 -->
<g id="edge2" class="edge">
<title>1&#45;&gt;2</title>
<path fill="none" stroke="black" d="M459.74,-334.31C436.4,-323.1 411.18,-310.99 387.37,-299.55"/>
<polygon fill="black" stroke="black" points="389.16,-296.52 378.63,-295.35 386.13,-302.83 389.16,-296.52"/>
</g>
<!-- 10773 -->
<g id="node10" class="node">
<title>10773</title>
<path fill="#eca16b" stroke="black" d="M623,-296.5C623,-296.5 481,-296.5 481,-296.5 475,-296.5 469,-290.5 469,-284.5 469,-284.5 469,-214.25 469,-214.25 469,-208.25 475,-202.25 481,-202.25 481,-202.25 623,-202.25 623,-202.25 629,-202.25 635,-208.25 635,-214.25 635,-214.25 635,-284.5 635,-284.5 635,-290.5 629,-296.5 623,-296.5"/>
<text text-anchor="middle" x="552" y="-279.2" font-family="Helvetica,sans-Serif" font-size="14.00">8_A &lt;= 0.5</text>
<text text-anchor="middle" x="552" y="-261.95" font-family="Helvetica,sans-Serif" font-size="14.00">entropy = 0.725</text>
<text text-anchor="middle" x="552" y="-244.7" font-family="Helvetica,sans-Serif" font-size="14.00">samples = 3704</text>
<text text-anchor="middle" x="552" y="-227.45" font-family="Helvetica,sans-Serif" font-size="14.00">value = [4683, 1182]</text>
<text text-anchor="middle" x="552" y="-210.2" font-family="Helvetica,sans-Serif" font-size="14.00">class = Animal</text>
</g>
<!-- 1&#45;&gt;10773 -->
<g id="edge9" class="edge">
<title>1&#45;&gt;10773</title>
<path fill="none" stroke="black" d="M552,-332.32C552,-324.42 552,-316.13 552,-307.98"/>
<polygon fill="black" stroke="black" points="555.5,-308.12 552,-298.12 548.5,-308.12 555.5,-308.12"/>
</g>
<!-- 3 -->
<g id="node4" class="node">
<title>3</title>
<path fill="#acd6f4" stroke="black" d="M172,-166.25C172,-166.25 12,-166.25 12,-166.25 6,-166.25 0,-160.25 0,-154.25 0,-154.25 0,-84 0,-84 0,-78 6,-72 12,-72 12,-72 172,-72 172,-72 178,-72 184,-78 184,-84 184,-84 184,-154.25 184,-154.25 184,-160.25 178,-166.25 172,-166.25"/>
<text text-anchor="middle" x="92" y="-148.95" font-family="Helvetica,sans-Serif" font-size="14.00">12_G &lt;= 0.5</text>
<text text-anchor="middle" x="92" y="-131.7" font-family="Helvetica,sans-Serif" font-size="14.00">entropy = 0.948</text>
<text text-anchor="middle" x="92" y="-114.45" font-family="Helvetica,sans-Serif" font-size="14.00">samples = 22341</text>
<text text-anchor="middle" x="92" y="-97.2" font-family="Helvetica,sans-Serif" font-size="14.00">value = [12958, 22348]</text>
<text text-anchor="middle" x="92" y="-79.95" font-family="Helvetica,sans-Serif" font-size="14.00">class = Plant</text>
</g>
<!-- 2&#45;&gt;3 -->
<g id="edge3" class="edge">
<title>2&#45;&gt;3</title>
<path fill="none" stroke="black" d="M215.05,-201.89C200.89,-192.48 185.9,-182.53 171.45,-172.92"/>
<polygon fill="black" stroke="black" points="173.56,-170.12 163.3,-167.5 169.69,-175.95 173.56,-170.12"/>
</g>
<!-- 9370 -->
<g id="node7" class="node">
<title>9370</title>
<path fill="#f1bc96" stroke="black" d="M356,-166.25C356,-166.25 214,-166.25 214,-166.25 208,-166.25 202,-160.25 202,-154.25 202,-154.25 202,-84 202,-84 202,-78 208,-72 214,-72 214,-72 356,-72 356,-72 362,-72 368,-78 368,-84 368,-84 368,-154.25 368,-154.25 368,-160.25 362,-166.25 356,-166.25"/>
<text text-anchor="middle" x="285" y="-148.95" font-family="Helvetica,sans-Serif" font-size="14.00">1_U &lt;= 0.5</text>
<text text-anchor="middle" x="285" y="-131.7" font-family="Helvetica,sans-Serif" font-size="14.00">entropy = 0.904</text>
<text text-anchor="middle" x="285" y="-114.45" font-family="Helvetica,sans-Serif" font-size="14.00">samples = 3041</text>
<text text-anchor="middle" x="285" y="-97.2" font-family="Helvetica,sans-Serif" font-size="14.00">value = [3291, 1545]</text>
<text text-anchor="middle" x="285" y="-79.95" font-family="Helvetica,sans-Serif" font-size="14.00">class = Animal</text>
</g>
<!-- 2&#45;&gt;9370 -->
<g id="edge6" class="edge">
<title>2&#45;&gt;9370</title>
<path fill="none" stroke="black" d="M285,-202.07C285,-194.17 285,-185.88 285,-177.73"/>
<polygon fill="black" stroke="black" points="288.5,-177.87 285,-167.87 281.5,-177.87 288.5,-177.87"/>
</g>
<!-- 4 -->
<g id="node5" class="node">
<title>4</title>
<path fill="#c0c0c0" stroke="black" d="M71,-36C71,-36 41,-36 41,-36 35,-36 29,-30 29,-24 29,-24 29,-12 29,-12 29,-6 35,0 41,0 41,0 71,0 71,0 77,0 83,-6 83,-12 83,-12 83,-24 83,-24 83,-30 77,-36 71,-36"/>
<text text-anchor="middle" x="56" y="-13.32" font-family="Helvetica,sans-Serif" font-size="14.00">(...)</text>
</g>
<!-- 3&#45;&gt;4 -->
<g id="edge4" class="edge">
<title>3&#45;&gt;4</title>
<path fill="none" stroke="black" d="M75.16,-71.75C72.06,-63.22 68.92,-54.57 66.1,-46.8"/>
<polygon fill="black" stroke="black" points="69.46,-45.8 62.75,-37.6 62.88,-48.19 69.46,-45.8"/>
</g>
<!-- 6875 -->
<g id="node6" class="node">
<title>6875</title>
<path fill="#c0c0c0" stroke="black" d="M143,-36C143,-36 113,-36 113,-36 107,-36 101,-30 101,-24 101,-24 101,-12 101,-12 101,-6 107,0 113,0 113,0 143,0 143,0 149,0 155,-6 155,-12 155,-12 155,-24 155,-24 155,-30 149,-36 143,-36"/>
<text text-anchor="middle" x="128" y="-13.32" font-family="Helvetica,sans-Serif" font-size="14.00">(...)</text>
</g>
<!-- 3&#45;&gt;6875 -->
<g id="edge5" class="edge">
<title>3&#45;&gt;6875</title>
<path fill="none" stroke="black" d="M108.84,-71.75C111.94,-63.22 115.08,-54.57 117.9,-46.8"/>
<polygon fill="black" stroke="black" points="121.12,-48.19 121.25,-37.6 114.54,-45.8 121.12,-48.19"/>
</g>
<!-- 9371 -->
<g id="node8" class="node">
<title>9371</title>
<path fill="#c0c0c0" stroke="black" d="M261,-36C261,-36 231,-36 231,-36 225,-36 219,-30 219,-24 219,-24 219,-12 219,-12 219,-6 225,0 231,0 231,0 261,0 261,0 267,0 273,-6 273,-12 273,-12 273,-24 273,-24 273,-30 267,-36 261,-36"/>
<text text-anchor="middle" x="246" y="-13.32" font-family="Helvetica,sans-Serif" font-size="14.00">(...)</text>
</g>
<!-- 9370&#45;&gt;9371 -->
<g id="edge7" class="edge">
<title>9370&#45;&gt;9371</title>
<path fill="none" stroke="black" d="M266.76,-71.75C263.4,-63.22 259.99,-54.57 256.94,-46.8"/>
<polygon fill="black" stroke="black" points="260.23,-45.61 253.31,-37.58 253.71,-48.17 260.23,-45.61"/>
</g>
<!-- 10110 -->
<g id="node9" class="node">
<title>10110</title>
<path fill="#c0c0c0" stroke="black" d="M333,-36C333,-36 303,-36 303,-36 297,-36 291,-30 291,-24 291,-24 291,-12 291,-12 291,-6 297,0 303,0 303,0 333,0 333,0 339,0 345,-6 345,-12 345,-12 345,-24 345,-24 345,-30 339,-36 333,-36"/>
<text text-anchor="middle" x="318" y="-13.32" font-family="Helvetica,sans-Serif" font-size="14.00">(...)</text>
</g>
<!-- 9370&#45;&gt;10110 -->
<g id="edge8" class="edge">
<title>9370&#45;&gt;10110</title>
<path fill="none" stroke="black" d="M300.44,-71.75C303.24,-63.32 306.09,-54.77 308.66,-47.07"/>
<polygon fill="black" stroke="black" points="311.97,-48.2 311.8,-37.61 305.33,-45.99 311.97,-48.2"/>
</g>
<!-- 10774 -->
<g id="node11" class="node">
<title>10774</title>
<path fill="#ea9a61" stroke="black" d="M531.5,-166.25C531.5,-166.25 398.5,-166.25 398.5,-166.25 392.5,-166.25 386.5,-160.25 386.5,-154.25 386.5,-154.25 386.5,-84 386.5,-84 386.5,-78 392.5,-72 398.5,-72 398.5,-72 531.5,-72 531.5,-72 537.5,-72 543.5,-78 543.5,-84 543.5,-84 543.5,-154.25 543.5,-154.25 543.5,-160.25 537.5,-166.25 531.5,-166.25"/>
<text text-anchor="middle" x="465" y="-148.95" font-family="Helvetica,sans-Serif" font-size="14.00">12_A &lt;= 0.5</text>
<text text-anchor="middle" x="465" y="-131.7" font-family="Helvetica,sans-Serif" font-size="14.00">entropy = 0.651</text>
<text text-anchor="middle" x="465" y="-114.45" font-family="Helvetica,sans-Serif" font-size="14.00">samples = 2748</text>
<text text-anchor="middle" x="465" y="-97.2" font-family="Helvetica,sans-Serif" font-size="14.00">value = [3605, 724]</text>
<text text-anchor="middle" x="465" y="-79.95" font-family="Helvetica,sans-Serif" font-size="14.00">class = Animal</text>
</g>
<!-- 10773&#45;&gt;10774 -->
<g id="edge10" class="edge">
<title>10773&#45;&gt;10774</title>
<path fill="none" stroke="black" d="M520.59,-202.07C514.8,-193.54 508.7,-184.54 502.75,-175.77"/>
<polygon fill="black" stroke="black" points="505.72,-173.92 497.21,-167.61 499.93,-177.85 505.72,-173.92"/>
</g>
<!-- 11887 -->
<g id="node14" class="node">
<title>11887</title>
<path fill="#f0b78d" stroke="black" d="M706.5,-166.25C706.5,-166.25 573.5,-166.25 573.5,-166.25 567.5,-166.25 561.5,-160.25 561.5,-154.25 561.5,-154.25 561.5,-84 561.5,-84 561.5,-78 567.5,-72 573.5,-72 573.5,-72 706.5,-72 706.5,-72 712.5,-72 718.5,-78 718.5,-84 718.5,-84 718.5,-154.25 718.5,-154.25 718.5,-160.25 712.5,-166.25 706.5,-166.25"/>
<text text-anchor="middle" x="640" y="-148.95" font-family="Helvetica,sans-Serif" font-size="14.00">20_A &lt;= 0.5</text>
<text text-anchor="middle" x="640" y="-131.7" font-family="Helvetica,sans-Serif" font-size="14.00">entropy = 0.879</text>
<text text-anchor="middle" x="640" y="-114.45" font-family="Helvetica,sans-Serif" font-size="14.00">samples = 956</text>
<text text-anchor="middle" x="640" y="-97.2" font-family="Helvetica,sans-Serif" font-size="14.00">value = [1078, 458]</text>
<text text-anchor="middle" x="640" y="-79.95" font-family="Helvetica,sans-Serif" font-size="14.00">class = Animal</text>
</g>
<!-- 10773&#45;&gt;11887 -->
<g id="edge13" class="edge">
<title>10773&#45;&gt;11887</title>
<path fill="none" stroke="black" d="M583.77,-202.07C589.63,-193.54 595.8,-184.54 601.82,-175.77"/>
<polygon fill="black" stroke="black" points="604.65,-177.83 607.42,-167.61 598.88,-173.87 604.65,-177.83"/>
</g>
<!-- 10775 -->
<g id="node12" class="node">
<title>10775</title>
<path fill="#c0c0c0" stroke="black" d="M423,-36C423,-36 393,-36 393,-36 387,-36 381,-30 381,-24 381,-24 381,-12 381,-12 381,-6 387,0 393,0 393,0 423,0 423,0 429,0 435,-6 435,-12 435,-12 435,-24 435,-24 435,-30 429,-36 423,-36"/>
<text text-anchor="middle" x="408" y="-13.32" font-family="Helvetica,sans-Serif" font-size="14.00">(...)</text>
</g>
<!-- 10774&#45;&gt;10775 -->
<g id="edge11" class="edge">
<title>10774&#45;&gt;10775</title>
<path fill="none" stroke="black" d="M438.34,-71.75C433.26,-62.93 428.1,-53.96 423.52,-45.99"/>
<polygon fill="black" stroke="black" points="426.65,-44.41 418.63,-37.48 420.58,-47.9 426.65,-44.41"/>
</g>
<!-- 11588 -->
<g id="node13" class="node">
<title>11588</title>
<path fill="#c0c0c0" stroke="black" d="M495,-36C495,-36 465,-36 465,-36 459,-36 453,-30 453,-24 453,-24 453,-12 453,-12 453,-6 459,0 465,0 465,0 495,0 495,0 501,0 507,-6 507,-12 507,-12 507,-24 507,-24 507,-30 501,-36 495,-36"/>
<text text-anchor="middle" x="480" y="-13.32" font-family="Helvetica,sans-Serif" font-size="14.00">(...)</text>
</g>
<!-- 10774&#45;&gt;11588 -->
<g id="edge12" class="edge">
<title>10774&#45;&gt;11588</title>
<path fill="none" stroke="black" d="M472.02,-71.75C473.28,-63.42 474.56,-54.97 475.71,-47.34"/>
<polygon fill="black" stroke="black" points="479.14,-48.08 477.17,-37.67 472.22,-47.03 479.14,-48.08"/>
</g>
<!-- 11888 -->
<g id="node15" class="node">
<title>11888</title>
<path fill="#c0c0c0" stroke="black" d="M601,-36C601,-36 571,-36 571,-36 565,-36 559,-30 559,-24 559,-24 559,-12 559,-12 559,-6 565,0 571,0 571,0 601,0 601,0 607,0 613,-6 613,-12 613,-12 613,-24 613,-24 613,-30 607,-36 601,-36"/>
<text text-anchor="middle" x="586" y="-13.32" font-family="Helvetica,sans-Serif" font-size="14.00">(...)</text>
</g>
<!-- 11887&#45;&gt;11888 -->
<g id="edge14" class="edge">
<title>11887&#45;&gt;11888</title>
<path fill="none" stroke="black" d="M614.74,-71.75C609.98,-63.03 605.16,-54.16 600.85,-46.26"/>
<polygon fill="black" stroke="black" points="603.94,-44.61 596.08,-37.5 597.79,-47.96 603.94,-44.61"/>
</g>
<!-- 12197 -->
<g id="node16" class="node">
<title>12197</title>
<path fill="#c0c0c0" stroke="black" d="M673,-36C673,-36 643,-36 643,-36 637,-36 631,-30 631,-24 631,-24 631,-12 631,-12 631,-6 637,0 643,0 643,0 673,0 673,0 679,0 685,-6 685,-12 685,-12 685,-24 685,-24 685,-30 679,-36 673,-36"/>
<text text-anchor="middle" x="658" y="-13.32" font-family="Helvetica,sans-Serif" font-size="14.00">(...)</text>
</g>
<!-- 11887&#45;&gt;12197 -->
<g id="edge15" class="edge">
<title>11887&#45;&gt;12197</title>
<path fill="none" stroke="black" d="M648.42,-71.75C649.93,-63.42 651.47,-54.97 652.85,-47.34"/>
<polygon fill="black" stroke="black" points="656.27,-48.13 654.61,-37.66 649.38,-46.88 656.27,-48.13"/>
</g>
<!-- 12317 -->
<g id="node18" class="node">
<title>12317</title>
<path fill="#f6d5bd" stroke="black" d="M978,-296.5C978,-296.5 836,-296.5 836,-296.5 830,-296.5 824,-290.5 824,-284.5 824,-284.5 824,-214.25 824,-214.25 824,-208.25 830,-202.25 836,-202.25 836,-202.25 978,-202.25 978,-202.25 984,-202.25 990,-208.25 990,-214.25 990,-214.25 990,-284.5 990,-284.5 990,-290.5 984,-296.5 978,-296.5"/>
<text text-anchor="middle" x="907" y="-279.2" font-family="Helvetica,sans-Serif" font-size="14.00">22_U &lt;= 0.5</text>
<text text-anchor="middle" x="907" y="-261.95" font-family="Helvetica,sans-Serif" font-size="14.00">entropy = 0.971</text>
<text text-anchor="middle" x="907" y="-244.7" font-family="Helvetica,sans-Serif" font-size="14.00">samples = 7461</text>
<text text-anchor="middle" x="907" y="-227.45" font-family="Helvetica,sans-Serif" font-size="14.00">value = [7150, 4752]</text>
<text text-anchor="middle" x="907" y="-210.2" font-family="Helvetica,sans-Serif" font-size="14.00">class = Animal</text>
</g>
<!-- 12316&#45;&gt;12317 -->
<g id="edge17" class="edge">
<title>12316&#45;&gt;12317</title>
<path fill="none" stroke="black" d="M907,-332.32C907,-324.42 907,-316.13 907,-307.98"/>
<polygon fill="black" stroke="black" points="910.5,-308.12 907,-298.12 903.5,-308.12 910.5,-308.12"/>
</g>
<!-- 16120 -->
<g id="node25" class="node">
<title>16120</title>
<path fill="#ea975c" stroke="black" d="M1241.5,-296.5C1241.5,-296.5 1108.5,-296.5 1108.5,-296.5 1102.5,-296.5 1096.5,-290.5 1096.5,-284.5 1096.5,-284.5 1096.5,-214.25 1096.5,-214.25 1096.5,-208.25 1102.5,-202.25 1108.5,-202.25 1108.5,-202.25 1241.5,-202.25 1241.5,-202.25 1247.5,-202.25 1253.5,-208.25 1253.5,-214.25 1253.5,-214.25 1253.5,-284.5 1253.5,-284.5 1253.5,-290.5 1247.5,-296.5 1241.5,-296.5"/>
<text text-anchor="middle" x="1175" y="-279.2" font-family="Helvetica,sans-Serif" font-size="14.00">9_A &lt;= 0.5</text>
<text text-anchor="middle" x="1175" y="-261.95" font-family="Helvetica,sans-Serif" font-size="14.00">entropy = 0.607</text>
<text text-anchor="middle" x="1175" y="-244.7" font-family="Helvetica,sans-Serif" font-size="14.00">samples = 1522</text>
<text text-anchor="middle" x="1175" y="-227.45" font-family="Helvetica,sans-Serif" font-size="14.00">value = [2073, 363]</text>
<text text-anchor="middle" x="1175" y="-210.2" font-family="Helvetica,sans-Serif" font-size="14.00">class = Animal</text>
</g>
<!-- 12316&#45;&gt;16120 -->
<g id="edge24" class="edge">
<title>12316&#45;&gt;16120</title>
<path fill="none" stroke="black" d="M990.33,-338.75C1020.7,-324.21 1055.14,-307.73 1085.99,-292.97"/>
<polygon fill="black" stroke="black" points="1087.43,-296.16 1094.94,-288.69 1084.4,-289.85 1087.43,-296.16"/>
</g>
<!-- 12318 -->
<g id="node19" class="node">
<title>12318</title>
<path fill="#fbeee4" stroke="black" d="M891,-166.25C891,-166.25 749,-166.25 749,-166.25 743,-166.25 737,-160.25 737,-154.25 737,-154.25 737,-84 737,-84 737,-78 743,-72 749,-72 749,-72 891,-72 891,-72 897,-72 903,-78 903,-84 903,-84 903,-154.25 903,-154.25 903,-160.25 897,-166.25 891,-166.25"/>
<text text-anchor="middle" x="820" y="-148.95" font-family="Helvetica,sans-Serif" font-size="14.00">22_A &lt;= 0.5</text>
<text text-anchor="middle" x="820" y="-131.7" font-family="Helvetica,sans-Serif" font-size="14.00">entropy = 0.996</text>
<text text-anchor="middle" x="820" y="-114.45" font-family="Helvetica,sans-Serif" font-size="14.00">samples = 6090</text>
<text text-anchor="middle" x="820" y="-97.2" font-family="Helvetica,sans-Serif" font-size="14.00">value = [5204, 4493]</text>
<text text-anchor="middle" x="820" y="-79.95" font-family="Helvetica,sans-Serif" font-size="14.00">class = Animal</text>
</g>
<!-- 12317&#45;&gt;12318 -->
<g id="edge18" class="edge">
<title>12317&#45;&gt;12318</title>
<path fill="none" stroke="black" d="M875.59,-202.07C869.8,-193.54 863.7,-184.54 857.75,-175.77"/>
<polygon fill="black" stroke="black" points="860.72,-173.92 852.21,-167.61 854.93,-177.85 860.72,-173.92"/>
</g>
<!-- 15645 -->
<g id="node22" class="node">
<title>15645</title>
<path fill="#e89253" stroke="black" d="M1066.5,-166.25C1066.5,-166.25 933.5,-166.25 933.5,-166.25 927.5,-166.25 921.5,-160.25 921.5,-154.25 921.5,-154.25 921.5,-84 921.5,-84 921.5,-78 927.5,-72 933.5,-72 933.5,-72 1066.5,-72 1066.5,-72 1072.5,-72 1078.5,-78 1078.5,-84 1078.5,-84 1078.5,-154.25 1078.5,-154.25 1078.5,-160.25 1072.5,-166.25 1066.5,-166.25"/>
<text text-anchor="middle" x="1000" y="-148.95" font-family="Helvetica,sans-Serif" font-size="14.00">13_A &lt;= 0.5</text>
<text text-anchor="middle" x="1000" y="-131.7" font-family="Helvetica,sans-Serif" font-size="14.00">entropy = 0.522</text>
<text text-anchor="middle" x="1000" y="-114.45" font-family="Helvetica,sans-Serif" font-size="14.00">samples = 1371</text>
<text text-anchor="middle" x="1000" y="-97.2" font-family="Helvetica,sans-Serif" font-size="14.00">value = [1946, 259]</text>
<text text-anchor="middle" x="1000" y="-79.95" font-family="Helvetica,sans-Serif" font-size="14.00">class = Animal</text>
</g>
<!-- 12317&#45;&gt;15645 -->
<g id="edge21" class="edge">
<title>12317&#45;&gt;15645</title>
<path fill="none" stroke="black" d="M940.58,-202.07C946.83,-193.45 953.43,-184.35 959.85,-175.49"/>
<polygon fill="black" stroke="black" points="962.55,-177.73 965.59,-167.58 956.88,-173.62 962.55,-177.73"/>
</g>
<!-- 12319 -->
<g id="node20" class="node">
<title>12319</title>
<path fill="#c0c0c0" stroke="black" d="M781,-36C781,-36 751,-36 751,-36 745,-36 739,-30 739,-24 739,-24 739,-12 739,-12 739,-6 745,0 751,0 751,0 781,0 781,0 787,0 793,-6 793,-12 793,-12 793,-24 793,-24 793,-30 787,-36 781,-36"/>
<text text-anchor="middle" x="766" y="-13.32" font-family="Helvetica,sans-Serif" font-size="14.00">(...)</text>
</g>
<!-- 12318&#45;&gt;12319 -->
<g id="edge19" class="edge">
<title>12318&#45;&gt;12319</title>
<path fill="none" stroke="black" d="M794.74,-71.75C789.98,-63.03 785.16,-54.16 780.85,-46.26"/>
<polygon fill="black" stroke="black" points="783.94,-44.61 776.08,-37.5 777.79,-47.96 783.94,-44.61"/>
</g>
<!-- 15168 -->
<g id="node21" class="node">
<title>15168</title>
<path fill="#c0c0c0" stroke="black" d="M853,-36C853,-36 823,-36 823,-36 817,-36 811,-30 811,-24 811,-24 811,-12 811,-12 811,-6 817,0 823,0 823,0 853,0 853,0 859,0 865,-6 865,-12 865,-12 865,-24 865,-24 865,-30 859,-36 853,-36"/>
<text text-anchor="middle" x="838" y="-13.32" font-family="Helvetica,sans-Serif" font-size="14.00">(...)</text>
</g>
<!-- 12318&#45;&gt;15168 -->
<g id="edge20" class="edge">
<title>12318&#45;&gt;15168</title>
<path fill="none" stroke="black" d="M828.42,-71.75C829.93,-63.42 831.47,-54.97 832.85,-47.34"/>
<polygon fill="black" stroke="black" points="836.27,-48.13 834.61,-37.66 829.38,-46.88 836.27,-48.13"/>
</g>
<!-- 15646 -->
<g id="node23" class="node">
<title>15646</title>
<path fill="#c0c0c0" stroke="black" d="M958,-36C958,-36 928,-36 928,-36 922,-36 916,-30 916,-24 916,-24 916,-12 916,-12 916,-6 922,0 928,0 928,0 958,0 958,0 964,0 970,-6 970,-12 970,-12 970,-24 970,-24 970,-30 964,-36 958,-36"/>
<text text-anchor="middle" x="943" y="-13.32" font-family="Helvetica,sans-Serif" font-size="14.00">(...)</text>
</g>
<!-- 15645&#45;&gt;15646 -->
<g id="edge22" class="edge">
<title>15645&#45;&gt;15646</title>
<path fill="none" stroke="black" d="M973.34,-71.75C968.26,-62.93 963.1,-53.96 958.52,-45.99"/>
<polygon fill="black" stroke="black" points="961.65,-44.41 953.63,-37.48 955.58,-47.9 961.65,-44.41"/>
</g>
<!-- 16007 -->
<g id="node24" class="node">
<title>16007</title>
<path fill="#c0c0c0" stroke="black" d="M1030,-36C1030,-36 1000,-36 1000,-36 994,-36 988,-30 988,-24 988,-24 988,-12 988,-12 988,-6 994,0 1000,0 1000,0 1030,0 1030,0 1036,0 1042,-6 1042,-12 1042,-12 1042,-24 1042,-24 1042,-30 1036,-36 1030,-36"/>
<text text-anchor="middle" x="1015" y="-13.32" font-family="Helvetica,sans-Serif" font-size="14.00">(...)</text>
</g>
<!-- 15645&#45;&gt;16007 -->
<g id="edge23" class="edge">
<title>15645&#45;&gt;16007</title>
<path fill="none" stroke="black" d="M1007.02,-71.75C1008.28,-63.42 1009.56,-54.97 1010.71,-47.34"/>
<polygon fill="black" stroke="black" points="1014.14,-48.08 1012.17,-37.67 1007.22,-47.03 1014.14,-48.08"/>
</g>
<!-- 16121 -->
<g id="node26" class="node">
<title>16121</title>
<path fill="#e99254" stroke="black" d="M1241.5,-166.25C1241.5,-166.25 1108.5,-166.25 1108.5,-166.25 1102.5,-166.25 1096.5,-160.25 1096.5,-154.25 1096.5,-154.25 1096.5,-84 1096.5,-84 1096.5,-78 1102.5,-72 1108.5,-72 1108.5,-72 1241.5,-72 1241.5,-72 1247.5,-72 1253.5,-78 1253.5,-84 1253.5,-84 1253.5,-154.25 1253.5,-154.25 1253.5,-160.25 1247.5,-166.25 1241.5,-166.25"/>
<text text-anchor="middle" x="1175" y="-148.95" font-family="Helvetica,sans-Serif" font-size="14.00">23_A &lt;= 0.5</text>
<text text-anchor="middle" x="1175" y="-131.7" font-family="Helvetica,sans-Serif" font-size="14.00">entropy = 0.528</text>
<text text-anchor="middle" x="1175" y="-114.45" font-family="Helvetica,sans-Serif" font-size="14.00">samples = 1265</text>
<text text-anchor="middle" x="1175" y="-97.2" font-family="Helvetica,sans-Serif" font-size="14.00">value = [1789, 243]</text>
<text text-anchor="middle" x="1175" y="-79.95" font-family="Helvetica,sans-Serif" font-size="14.00">class = Animal</text>
</g>
<!-- 16120&#45;&gt;16121 -->
<g id="edge25" class="edge">
<title>16120&#45;&gt;16121</title>
<path fill="none" stroke="black" d="M1175,-202.07C1175,-194.17 1175,-185.88 1175,-177.73"/>
<polygon fill="black" stroke="black" points="1178.5,-177.87 1175,-167.87 1171.5,-177.87 1178.5,-177.87"/>
</g>
<!-- 16528 -->
<g id="node29" class="node">
<title>16528</title>
<path fill="#f0b68d" stroke="black" d="M1408,-166.25C1408,-166.25 1284,-166.25 1284,-166.25 1278,-166.25 1272,-160.25 1272,-154.25 1272,-154.25 1272,-84 1272,-84 1272,-78 1278,-72 1284,-72 1284,-72 1408,-72 1408,-72 1414,-72 1420,-78 1420,-84 1420,-84 1420,-154.25 1420,-154.25 1420,-160.25 1414,-166.25 1408,-166.25"/>
<text text-anchor="middle" x="1346" y="-148.95" font-family="Helvetica,sans-Serif" font-size="14.00">24_A &lt;= 0.5</text>
<text text-anchor="middle" x="1346" y="-131.7" font-family="Helvetica,sans-Serif" font-size="14.00">entropy = 0.878</text>
<text text-anchor="middle" x="1346" y="-114.45" font-family="Helvetica,sans-Serif" font-size="14.00">samples = 257</text>
<text text-anchor="middle" x="1346" y="-97.2" font-family="Helvetica,sans-Serif" font-size="14.00">value = [284, 120]</text>
<text text-anchor="middle" x="1346" y="-79.95" font-family="Helvetica,sans-Serif" font-size="14.00">class = Animal</text>
</g>
<!-- 16120&#45;&gt;16528 -->
<g id="edge28" class="edge">
<title>16120&#45;&gt;16528</title>
<path fill="none" stroke="black" d="M1236.73,-202.07C1249.13,-192.78 1262.25,-182.94 1274.93,-173.43"/>
<polygon fill="black" stroke="black" points="1276.96,-176.28 1282.86,-167.48 1272.76,-170.68 1276.96,-176.28"/>
</g>
<!-- 16122 -->
<g id="node27" class="node">
<title>16122</title>
<path fill="#c0c0c0" stroke="black" d="M1149,-36C1149,-36 1119,-36 1119,-36 1113,-36 1107,-30 1107,-24 1107,-24 1107,-12 1107,-12 1107,-6 1113,0 1119,0 1119,0 1149,0 1149,0 1155,0 1161,-6 1161,-12 1161,-12 1161,-24 1161,-24 1161,-30 1155,-36 1149,-36"/>
<text text-anchor="middle" x="1134" y="-13.32" font-family="Helvetica,sans-Serif" font-size="14.00">(...)</text>
</g>
<!-- 16121&#45;&gt;16122 -->
<g id="edge26" class="edge">
<title>16121&#45;&gt;16122</title>
<path fill="none" stroke="black" d="M1155.82,-71.75C1152.29,-63.22 1148.71,-54.57 1145.5,-46.8"/>
<polygon fill="black" stroke="black" points="1148.74,-45.47 1141.68,-37.57 1142.27,-48.15 1148.74,-45.47"/>
</g>
<!-- 16497 -->
<g id="node28" class="node">
<title>16497</title>
<path fill="#c0c0c0" stroke="black" d="M1221,-36C1221,-36 1191,-36 1191,-36 1185,-36 1179,-30 1179,-24 1179,-24 1179,-12 1179,-12 1179,-6 1185,0 1191,0 1191,0 1221,0 1221,0 1227,0 1233,-6 1233,-12 1233,-12 1233,-24 1233,-24 1233,-30 1227,-36 1221,-36"/>
<text text-anchor="middle" x="1206" y="-13.32" font-family="Helvetica,sans-Serif" font-size="14.00">(...)</text>
</g>
<!-- 16121&#45;&gt;16497 -->
<g id="edge27" class="edge">
<title>16121&#45;&gt;16497</title>
<path fill="none" stroke="black" d="M1189.5,-71.75C1192.14,-63.32 1194.81,-54.77 1197.22,-47.07"/>
<polygon fill="black" stroke="black" points="1200.53,-48.21 1200.18,-37.62 1193.85,-46.12 1200.53,-48.21"/>
</g>
<!-- 16529 -->
<g id="node30" class="node">
<title>16529</title>
<path fill="#c0c0c0" stroke="black" d="M1325,-36C1325,-36 1295,-36 1295,-36 1289,-36 1283,-30 1283,-24 1283,-24 1283,-12 1283,-12 1283,-6 1289,0 1295,0 1295,0 1325,0 1325,0 1331,0 1337,-6 1337,-12 1337,-12 1337,-24 1337,-24 1337,-30 1331,-36 1325,-36"/>
<text text-anchor="middle" x="1310" y="-13.32" font-family="Helvetica,sans-Serif" font-size="14.00">(...)</text>
</g>
<!-- 16528&#45;&gt;16529 -->
<g id="edge29" class="edge">
<title>16528&#45;&gt;16529</title>
<path fill="none" stroke="black" d="M1329.16,-71.75C1326.06,-63.22 1322.92,-54.57 1320.1,-46.8"/>
<polygon fill="black" stroke="black" points="1323.46,-45.8 1316.75,-37.6 1316.88,-48.19 1323.46,-45.8"/>
</g>
<!-- 16652 -->
<g id="node31" class="node">
<title>16652</title>
<path fill="#c0c0c0" stroke="black" d="M1397,-36C1397,-36 1367,-36 1367,-36 1361,-36 1355,-30 1355,-24 1355,-24 1355,-12 1355,-12 1355,-6 1361,0 1367,0 1367,0 1397,0 1397,0 1403,0 1409,-6 1409,-12 1409,-12 1409,-24 1409,-24 1409,-30 1403,-36 1397,-36"/>
<text text-anchor="middle" x="1382" y="-13.32" font-family="Helvetica,sans-Serif" font-size="14.00">(...)</text>
</g>
<!-- 16528&#45;&gt;16652 -->
<g id="edge30" class="edge">
<title>16528&#45;&gt;16652</title>
<path fill="none" stroke="black" d="M1362.84,-71.75C1365.94,-63.22 1369.08,-54.57 1371.9,-46.8"/>
<polygon fill="black" stroke="black" points="1375.12,-48.19 1375.25,-37.6 1368.54,-45.8 1375.12,-48.19"/>
</g>
</g>
</svg>
