<?xml version="1.0" encoding="UTF-8" standalone="no"?>
<!DOCTYPE svg PUBLIC "-//W3C//DTD SVG 1.1//EN"
 "http://www.w3.org/Graphics/SVG/1.1/DTD/svg11.dtd">
<!-- Generated by graphviz version 12.0.0 (20240803.0821)
 -->
<!-- Title: Tree Pages: 1 -->
<svg width="1392pt" height="565pt"
 viewBox="0.00 0.00 1391.50 565.00" xmlns="http://www.w3.org/2000/svg" xmlns:xlink="http://www.w3.org/1999/xlink">
<g id="graph0" class="graph" transform="scale(1 1) rotate(0) translate(4 561)">
<title>Tree</title>
<polygon fill="white" stroke="none" points="-4,4 -4,-561 1387.5,-561 1387.5,4 -4,4"/>
<!-- 0 -->
<g id="node1" class="node">
<title>0</title>
<path fill="#fffefe" stroke="black" d="M798,-557C798,-557 638,-557 638,-557 632,-557 626,-551 626,-545 626,-545 626,-474.75 626,-474.75 626,-468.75 632,-462.75 638,-462.75 638,-462.75 798,-462.75 798,-462.75 804,-462.75 810,-468.75 810,-474.75 810,-474.75 810,-545 810,-545 810,-551 804,-557 798,-557"/>
<text text-anchor="middle" x="718" y="-539.7" font-family="Helvetica,sans-Serif" font-size="14.00">22_A &lt;= 0.5</text>
<text text-anchor="middle" x="718" y="-522.45" font-family="Helvetica,sans-Serif" font-size="14.00">entropy = 1.0</text>
<text text-anchor="middle" x="718" y="-505.2" font-family="Helvetica,sans-Serif" font-size="14.00">samples = 38006</text>
<text text-anchor="middle" x="718" y="-487.95" font-family="Helvetica,sans-Serif" font-size="14.00">value = [30266, 30079]</text>
<text text-anchor="middle" x="718" y="-470.7" font-family="Helvetica,sans-Serif" font-size="14.00">class = Animal</text>
</g>
<!-- 1 -->
<g id="node2" class="node">
<title>1</title>
<path fill="#ecf6fc" stroke="black" d="M630,-426.75C630,-426.75 470,-426.75 470,-426.75 464,-426.75 458,-420.75 458,-414.75 458,-414.75 458,-344.5 458,-344.5 458,-338.5 464,-332.5 470,-332.5 470,-332.5 630,-332.5 630,-332.5 636,-332.5 642,-338.5 642,-344.5 642,-344.5 642,-414.75 642,-414.75 642,-420.75 636,-426.75 630,-426.75"/>
<text text-anchor="middle" x="550" y="-409.45" font-family="Helvetica,sans-Serif" font-size="14.00">22_C &lt;= 0.5</text>
<text text-anchor="middle" x="550" y="-392.2" font-family="Helvetica,sans-Serif" font-size="14.00">entropy = 0.998</text>
<text text-anchor="middle" x="550" y="-374.95" font-family="Helvetica,sans-Serif" font-size="14.00">samples = 33806</text>
<text text-anchor="middle" x="550" y="-357.7" font-family="Helvetica,sans-Serif" font-size="14.00">value = [25470, 28203]</text>
<text text-anchor="middle" x="550" y="-340.45" font-family="Helvetica,sans-Serif" font-size="14.00">class = Plant</text>
</g>
<!-- 0&#45;&gt;1 -->
<g id="edge1" class="edge">
<title>0&#45;&gt;1</title>
<path fill="none" stroke="black" d="M657.35,-462.57C645.17,-453.28 632.28,-443.44 619.82,-433.93"/>
<polygon fill="black" stroke="black" points="622.12,-431.28 612.05,-427.99 617.87,-436.84 622.12,-431.28"/>
<text text-anchor="middle" x="614.17" y="-447.18" font-family="Helvetica,sans-Serif" font-size="14.00">True</text>
</g>
<!-- 14452 -->
<g id="node17" class="node">
<title>14452</title>
<path fill="#efb286" stroke="black" d="M967,-426.75C967,-426.75 825,-426.75 825,-426.75 819,-426.75 813,-420.75 813,-414.75 813,-414.75 813,-344.5 813,-344.5 813,-338.5 819,-332.5 825,-332.5 825,-332.5 967,-332.5 967,-332.5 973,-332.5 979,-338.5 979,-344.5 979,-344.5 979,-414.75 979,-414.75 979,-420.75 973,-426.75 967,-426.75"/>
<text text-anchor="middle" x="896" y="-409.45" font-family="Helvetica,sans-Serif" font-size="14.00">20_C &lt;= 0.5</text>
<text text-anchor="middle" x="896" y="-392.2" font-family="Helvetica,sans-Serif" font-size="14.00">entropy = 0.857</text>
<text text-anchor="middle" x="896" y="-374.95" font-family="Helvetica,sans-Serif" font-size="14.00">samples = 4200</text>
<text text-anchor="middle" x="896" y="-357.7" font-family="Helvetica,sans-Serif" font-size="14.00">value = [4796, 1876]</text>
<text text-anchor="middle" x="896" y="-340.45" font-family="Helvetica,sans-Serif" font-size="14.00">class = Animal</text>
</g>
<!-- 0&#45;&gt;14452 -->
<g id="edge16" class="edge">
<title>0&#45;&gt;14452</title>
<path fill="none" stroke="black" d="M782.51,-462.39C795.45,-453.07 809.13,-443.22 822.35,-433.69"/>
<polygon fill="black" stroke="black" points="824.11,-436.73 830.18,-428.05 820.02,-431.06 824.11,-436.73"/>
<text text-anchor="middle" x="827.4" y="-447.17" font-family="Helvetica,sans-Serif" font-size="14.00">False</text>
</g>
<!-- 2 -->
<g id="node3" class="node">
<title>2</title>
<path fill="#d8ecfa" stroke="black" d="M365,-296.5C365,-296.5 205,-296.5 205,-296.5 199,-296.5 193,-290.5 193,-284.5 193,-284.5 193,-214.25 193,-214.25 193,-208.25 199,-202.25 205,-202.25 205,-202.25 365,-202.25 365,-202.25 371,-202.25 377,-208.25 377,-214.25 377,-214.25 377,-284.5 377,-284.5 377,-290.5 371,-296.5 365,-296.5"/>
<text text-anchor="middle" x="285" y="-279.2" font-family="Helvetica,sans-Serif" font-size="14.00">1_A &lt;= 0.5</text>
<text text-anchor="middle" x="285" y="-261.95" font-family="Helvetica,sans-Serif" font-size="14.00">entropy = 0.991</text>
<text text-anchor="middle" x="285" y="-244.7" font-family="Helvetica,sans-Serif" font-size="14.00">samples = 30102</text>
<text text-anchor="middle" x="285" y="-227.45" font-family="Helvetica,sans-Serif" font-size="14.00">value = [21255, 26470]</text>
<text text-anchor="middle" x="285" y="-210.2" font-family="Helvetica,sans-Serif" font-size="14.00">class = Plant</text>
</g>
<!-- 1&#45;&gt;2 -->
<g id="edge2" class="edge">
<title>1&#45;&gt;2</title>
<path fill="none" stroke="black" d="M457.69,-333.95C435.05,-322.99 410.68,-311.2 387.59,-300.02"/>
<polygon fill="black" stroke="black" points="389.32,-296.97 378.79,-295.77 386.27,-303.27 389.32,-296.97"/>
</g>
<!-- 12615 -->
<g id="node10" class="node">
<title>12615</title>
<path fill="#f0b58a" stroke="black" d="M621,-296.5C621,-296.5 479,-296.5 479,-296.5 473,-296.5 467,-290.5 467,-284.5 467,-284.5 467,-214.25 467,-214.25 467,-208.25 473,-202.25 479,-202.25 479,-202.25 621,-202.25 621,-202.25 627,-202.25 633,-208.25 633,-214.25 633,-214.25 633,-284.5 633,-284.5 633,-290.5 627,-296.5 621,-296.5"/>
<text text-anchor="middle" x="550" y="-279.2" font-family="Helvetica,sans-Serif" font-size="14.00">20_A &lt;= 0.5</text>
<text text-anchor="middle" x="550" y="-261.95" font-family="Helvetica,sans-Serif" font-size="14.00">entropy = 0.87</text>
<text text-anchor="middle" x="550" y="-244.7" font-family="Helvetica,sans-Serif" font-size="14.00">samples = 3704</text>
<text text-anchor="middle" x="550" y="-227.45" font-family="Helvetica,sans-Serif" font-size="14.00">value = [4215, 1733]</text>
<text text-anchor="middle" x="550" y="-210.2" font-family="Helvetica,sans-Serif" font-size="14.00">class = Animal</text>
</g>
<!-- 1&#45;&gt;12615 -->
<g id="edge9" class="edge">
<title>1&#45;&gt;12615</title>
<path fill="none" stroke="black" d="M550,-332.32C550,-324.42 550,-316.13 550,-307.98"/>
<polygon fill="black" stroke="black" points="553.5,-308.12 550,-298.12 546.5,-308.12 553.5,-308.12"/>
</g>
<!-- 3 -->
<g id="node4" class="node">
<title>3</title>
<path fill="#c4e2f7" stroke="black" d="M172,-166.25C172,-166.25 12,-166.25 12,-166.25 6,-166.25 0,-160.25 0,-154.25 0,-154.25 0,-84 0,-84 0,-78 6,-72 12,-72 12,-72 172,-72 172,-72 178,-72 184,-78 184,-84 184,-84 184,-154.25 184,-154.25 184,-160.25 178,-166.25 172,-166.25"/>
<text text-anchor="middle" x="92" y="-148.95" font-family="Helvetica,sans-Serif" font-size="14.00">2_A &lt;= 0.5</text>
<text text-anchor="middle" x="92" y="-131.7" font-family="Helvetica,sans-Serif" font-size="14.00">entropy = 0.977</text>
<text text-anchor="middle" x="92" y="-114.45" font-family="Helvetica,sans-Serif" font-size="14.00">samples = 23929</text>
<text text-anchor="middle" x="92" y="-97.2" font-family="Helvetica,sans-Serif" font-size="14.00">value = [15614, 22305]</text>
<text text-anchor="middle" x="92" y="-79.95" font-family="Helvetica,sans-Serif" font-size="14.00">class = Plant</text>
</g>
<!-- 2&#45;&gt;3 -->
<g id="edge3" class="edge">
<title>2&#45;&gt;3</title>
<path fill="none" stroke="black" d="M215.05,-201.89C200.89,-192.48 185.9,-182.53 171.45,-172.92"/>
<polygon fill="black" stroke="black" points="173.56,-170.12 163.3,-167.5 169.69,-175.95 173.56,-170.12"/>
</g>
<!-- 9680 -->
<g id="node7" class="node">
<title>9680</title>
<path fill="#f8decb" stroke="black" d="M356,-166.25C356,-166.25 214,-166.25 214,-166.25 208,-166.25 202,-160.25 202,-154.25 202,-154.25 202,-84 202,-84 202,-78 208,-72 214,-72 214,-72 356,-72 356,-72 362,-72 368,-78 368,-84 368,-84 368,-154.25 368,-154.25 368,-160.25 362,-166.25 356,-166.25"/>
<text text-anchor="middle" x="285" y="-148.95" font-family="Helvetica,sans-Serif" font-size="14.00">22_G &lt;= 0.5</text>
<text text-anchor="middle" x="285" y="-131.7" font-family="Helvetica,sans-Serif" font-size="14.00">entropy = 0.984</text>
<text text-anchor="middle" x="285" y="-114.45" font-family="Helvetica,sans-Serif" font-size="14.00">samples = 6173</text>
<text text-anchor="middle" x="285" y="-97.2" font-family="Helvetica,sans-Serif" font-size="14.00">value = [5641, 4165]</text>
<text text-anchor="middle" x="285" y="-79.95" font-family="Helvetica,sans-Serif" font-size="14.00">class = Animal</text>
</g>
<!-- 2&#45;&gt;9680 -->
<g id="edge6" class="edge">
<title>2&#45;&gt;9680</title>
<path fill="none" stroke="black" d="M285,-202.07C285,-194.17 285,-185.88 285,-177.73"/>
<polygon fill="black" stroke="black" points="288.5,-177.87 285,-167.87 281.5,-177.87 288.5,-177.87"/>
</g>
<!-- 4 -->
<g id="node5" class="node">
<title>4</title>
<path fill="#c0c0c0" stroke="black" d="M71,-36C71,-36 41,-36 41,-36 35,-36 29,-30 29,-24 29,-24 29,-12 29,-12 29,-6 35,0 41,0 41,0 71,0 71,0 77,0 83,-6 83,-12 83,-12 83,-24 83,-24 83,-30 77,-36 71,-36"/>
<text text-anchor="middle" x="56" y="-13.32" font-family="Helvetica,sans-Serif" font-size="14.00">(...)</text>
</g>
<!-- 3&#45;&gt;4 -->
<g id="edge4" class="edge">
<title>3&#45;&gt;4</title>
<path fill="none" stroke="black" d="M75.16,-71.75C72.06,-63.22 68.92,-54.57 66.1,-46.8"/>
<polygon fill="black" stroke="black" points="69.46,-45.8 62.75,-37.6 62.88,-48.19 69.46,-45.8"/>
</g>
<!-- 7385 -->
<g id="node6" class="node">
<title>7385</title>
<path fill="#c0c0c0" stroke="black" d="M143,-36C143,-36 113,-36 113,-36 107,-36 101,-30 101,-24 101,-24 101,-12 101,-12 101,-6 107,0 113,0 113,0 143,0 143,0 149,0 155,-6 155,-12 155,-12 155,-24 155,-24 155,-30 149,-36 143,-36"/>
<text text-anchor="middle" x="128" y="-13.32" font-family="Helvetica,sans-Serif" font-size="14.00">(...)</text>
</g>
<!-- 3&#45;&gt;7385 -->
<g id="edge5" class="edge">
<title>3&#45;&gt;7385</title>
<path fill="none" stroke="black" d="M108.84,-71.75C111.94,-63.22 115.08,-54.57 117.9,-46.8"/>
<polygon fill="black" stroke="black" points="121.12,-48.19 121.25,-37.6 114.54,-45.8 121.12,-48.19"/>
</g>
<!-- 9681 -->
<g id="node8" class="node">
<title>9681</title>
<path fill="#c0c0c0" stroke="black" d="M263,-36C263,-36 233,-36 233,-36 227,-36 221,-30 221,-24 221,-24 221,-12 221,-12 221,-6 227,0 233,0 233,0 263,0 263,0 269,0 275,-6 275,-12 275,-12 275,-24 275,-24 275,-30 269,-36 263,-36"/>
<text text-anchor="middle" x="248" y="-13.32" font-family="Helvetica,sans-Serif" font-size="14.00">(...)</text>
</g>
<!-- 9680&#45;&gt;9681 -->
<g id="edge7" class="edge">
<title>9680&#45;&gt;9681</title>
<path fill="none" stroke="black" d="M267.69,-71.75C264.51,-63.22 261.28,-54.57 258.38,-46.8"/>
<polygon fill="black" stroke="black" points="261.72,-45.74 254.94,-37.59 255.16,-48.18 261.72,-45.74"/>
</g>
<!-- 12206 -->
<g id="node9" class="node">
<title>12206</title>
<path fill="#c0c0c0" stroke="black" d="M335,-36C335,-36 305,-36 305,-36 299,-36 293,-30 293,-24 293,-24 293,-12 293,-12 293,-6 299,0 305,0 305,0 335,0 335,0 341,0 347,-6 347,-12 347,-12 347,-24 347,-24 347,-30 341,-36 335,-36"/>
<text text-anchor="middle" x="320" y="-13.32" font-family="Helvetica,sans-Serif" font-size="14.00">(...)</text>
</g>
<!-- 9680&#45;&gt;12206 -->
<g id="edge8" class="edge">
<title>9680&#45;&gt;12206</title>
<path fill="none" stroke="black" d="M301.37,-71.75C304.39,-63.22 307.44,-54.57 310.18,-46.8"/>
<polygon fill="black" stroke="black" points="313.4,-48.19 313.43,-37.6 306.8,-45.86 313.4,-48.19"/>
</g>
<!-- 12616 -->
<g id="node11" class="node">
<title>12616</title>
<path fill="#efb083" stroke="black" d="M540,-166.25C540,-166.25 398,-166.25 398,-166.25 392,-166.25 386,-160.25 386,-154.25 386,-154.25 386,-84 386,-84 386,-78 392,-72 398,-72 398,-72 540,-72 540,-72 546,-72 552,-78 552,-84 552,-84 552,-154.25 552,-154.25 552,-160.25 546,-166.25 540,-166.25"/>
<text text-anchor="middle" x="469" y="-148.95" font-family="Helvetica,sans-Serif" font-size="14.00">6_A &lt;= 0.5</text>
<text text-anchor="middle" x="469" y="-131.7" font-family="Helvetica,sans-Serif" font-size="14.00">entropy = 0.844</text>
<text text-anchor="middle" x="469" y="-114.45" font-family="Helvetica,sans-Serif" font-size="14.00">samples = 2744</text>
<text text-anchor="middle" x="469" y="-97.2" font-family="Helvetica,sans-Serif" font-size="14.00">value = [3220, 1203]</text>
<text text-anchor="middle" x="469" y="-79.95" font-family="Helvetica,sans-Serif" font-size="14.00">class = Animal</text>
</g>
<!-- 12615&#45;&gt;12616 -->
<g id="edge10" class="edge">
<title>12615&#45;&gt;12616</title>
<path fill="none" stroke="black" d="M520.76,-202.07C515.42,-193.63 509.81,-184.74 504.32,-176.05"/>
<polygon fill="black" stroke="black" points="507.31,-174.22 499.01,-167.64 501.39,-177.96 507.31,-174.22"/>
</g>
<!-- 13941 -->
<g id="node14" class="node">
<title>13941</title>
<path fill="#f3c4a2" stroke="black" d="M706,-166.25C706,-166.25 582,-166.25 582,-166.25 576,-166.25 570,-160.25 570,-154.25 570,-154.25 570,-84 570,-84 570,-78 576,-72 582,-72 582,-72 706,-72 706,-72 712,-72 718,-78 718,-84 718,-84 718,-154.25 718,-154.25 718,-160.25 712,-166.25 706,-166.25"/>
<text text-anchor="middle" x="644" y="-148.95" font-family="Helvetica,sans-Serif" font-size="14.00">11_U &lt;= 0.5</text>
<text text-anchor="middle" x="644" y="-131.7" font-family="Helvetica,sans-Serif" font-size="14.00">entropy = 0.932</text>
<text text-anchor="middle" x="644" y="-114.45" font-family="Helvetica,sans-Serif" font-size="14.00">samples = 960</text>
<text text-anchor="middle" x="644" y="-97.2" font-family="Helvetica,sans-Serif" font-size="14.00">value = [995, 530]</text>
<text text-anchor="middle" x="644" y="-79.95" font-family="Helvetica,sans-Serif" font-size="14.00">class = Animal</text>
</g>
<!-- 12615&#45;&gt;13941 -->
<g id="edge13" class="edge">
<title>12615&#45;&gt;13941</title>
<path fill="none" stroke="black" d="M583.94,-202.07C590.26,-193.45 596.92,-184.35 603.42,-175.49"/>
<polygon fill="black" stroke="black" points="606.13,-177.71 609.22,-167.58 600.48,-173.58 606.13,-177.71"/>
</g>
<!-- 12617 -->
<g id="node12" class="node">
<title>12617</title>
<path fill="#c0c0c0" stroke="black" d="M427,-36C427,-36 397,-36 397,-36 391,-36 385,-30 385,-24 385,-24 385,-12 385,-12 385,-6 391,0 397,0 397,0 427,0 427,0 433,0 439,-6 439,-12 439,-12 439,-24 439,-24 439,-30 433,-36 427,-36"/>
<text text-anchor="middle" x="412" y="-13.32" font-family="Helvetica,sans-Serif" font-size="14.00">(...)</text>
</g>
<!-- 12616&#45;&gt;12617 -->
<g id="edge11" class="edge">
<title>12616&#45;&gt;12617</title>
<path fill="none" stroke="black" d="M442.34,-71.75C437.26,-62.93 432.1,-53.96 427.52,-45.99"/>
<polygon fill="black" stroke="black" points="430.65,-44.41 422.63,-37.48 424.58,-47.9 430.65,-44.41"/>
</g>
<!-- 13600 -->
<g id="node13" class="node">
<title>13600</title>
<path fill="#c0c0c0" stroke="black" d="M499,-36C499,-36 469,-36 469,-36 463,-36 457,-30 457,-24 457,-24 457,-12 457,-12 457,-6 463,0 469,0 469,0 499,0 499,0 505,0 511,-6 511,-12 511,-12 511,-24 511,-24 511,-30 505,-36 499,-36"/>
<text text-anchor="middle" x="484" y="-13.32" font-family="Helvetica,sans-Serif" font-size="14.00">(...)</text>
</g>
<!-- 12616&#45;&gt;13600 -->
<g id="edge12" class="edge">
<title>12616&#45;&gt;13600</title>
<path fill="none" stroke="black" d="M476.02,-71.75C477.28,-63.42 478.56,-54.97 479.71,-47.34"/>
<polygon fill="black" stroke="black" points="483.14,-48.08 481.17,-37.67 476.22,-47.03 483.14,-48.08"/>
</g>
<!-- 13942 -->
<g id="node15" class="node">
<title>13942</title>
<path fill="#c0c0c0" stroke="black" d="M600,-36C600,-36 570,-36 570,-36 564,-36 558,-30 558,-24 558,-24 558,-12 558,-12 558,-6 564,0 570,0 570,0 600,0 600,0 606,0 612,-6 612,-12 612,-12 612,-24 612,-24 612,-30 606,-36 600,-36"/>
<text text-anchor="middle" x="585" y="-13.32" font-family="Helvetica,sans-Serif" font-size="14.00">(...)</text>
</g>
<!-- 13941&#45;&gt;13942 -->
<g id="edge14" class="edge">
<title>13941&#45;&gt;13942</title>
<path fill="none" stroke="black" d="M616.4,-71.75C611.15,-62.93 605.81,-53.96 601.06,-45.99"/>
<polygon fill="black" stroke="black" points="604.12,-44.28 596,-37.47 598.1,-47.86 604.12,-44.28"/>
</g>
<!-- 14303 -->
<g id="node16" class="node">
<title>14303</title>
<path fill="#c0c0c0" stroke="black" d="M672,-36C672,-36 642,-36 642,-36 636,-36 630,-30 630,-24 630,-24 630,-12 630,-12 630,-6 636,0 642,0 642,0 672,0 672,0 678,0 684,-6 684,-12 684,-12 684,-24 684,-24 684,-30 678,-36 672,-36"/>
<text text-anchor="middle" x="657" y="-13.32" font-family="Helvetica,sans-Serif" font-size="14.00">(...)</text>
</g>
<!-- 13941&#45;&gt;14303 -->
<g id="edge15" class="edge">
<title>13941&#45;&gt;14303</title>
<path fill="none" stroke="black" d="M650.08,-71.75C651.17,-63.42 652.28,-54.97 653.28,-47.34"/>
<polygon fill="black" stroke="black" points="656.72,-48.04 654.55,-37.67 649.78,-47.13 656.72,-48.04"/>
</g>
<!-- 14453 -->
<g id="node18" class="node">
<title>14453</title>
<path fill="#eda978" stroke="black" d="M967,-296.5C967,-296.5 825,-296.5 825,-296.5 819,-296.5 813,-290.5 813,-284.5 813,-284.5 813,-214.25 813,-214.25 813,-208.25 819,-202.25 825,-202.25 825,-202.25 967,-202.25 967,-202.25 973,-202.25 979,-208.25 979,-214.25 979,-214.25 979,-284.5 979,-284.5 979,-290.5 973,-296.5 967,-296.5"/>
<text text-anchor="middle" x="896" y="-279.2" font-family="Helvetica,sans-Serif" font-size="14.00">7_U &lt;= 0.5</text>
<text text-anchor="middle" x="896" y="-261.95" font-family="Helvetica,sans-Serif" font-size="14.00">entropy = 0.796</text>
<text text-anchor="middle" x="896" y="-244.7" font-family="Helvetica,sans-Serif" font-size="14.00">samples = 3386</text>
<text text-anchor="middle" x="896" y="-227.45" font-family="Helvetica,sans-Serif" font-size="14.00">value = [4085, 1294]</text>
<text text-anchor="middle" x="896" y="-210.2" font-family="Helvetica,sans-Serif" font-size="14.00">class = Animal</text>
</g>
<!-- 14452&#45;&gt;14453 -->
<g id="edge17" class="edge">
<title>14452&#45;&gt;14453</title>
<path fill="none" stroke="black" d="M896,-332.32C896,-324.42 896,-316.13 896,-307.98"/>
<polygon fill="black" stroke="black" points="899.5,-308.12 896,-298.12 892.5,-308.12 899.5,-308.12"/>
</g>
<!-- 15916 -->
<g id="node25" class="node">
<title>15916</title>
<path fill="#fae8db" stroke="black" d="M1214,-296.5C1214,-296.5 1090,-296.5 1090,-296.5 1084,-296.5 1078,-290.5 1078,-284.5 1078,-284.5 1078,-214.25 1078,-214.25 1078,-208.25 1084,-202.25 1090,-202.25 1090,-202.25 1214,-202.25 1214,-202.25 1220,-202.25 1226,-208.25 1226,-214.25 1226,-214.25 1226,-284.5 1226,-284.5 1226,-290.5 1220,-296.5 1214,-296.5"/>
<text text-anchor="middle" x="1152" y="-279.2" font-family="Helvetica,sans-Serif" font-size="14.00">18_A &lt;= 0.5</text>
<text text-anchor="middle" x="1152" y="-261.95" font-family="Helvetica,sans-Serif" font-size="14.00">entropy = 0.993</text>
<text text-anchor="middle" x="1152" y="-244.7" font-family="Helvetica,sans-Serif" font-size="14.00">samples = 814</text>
<text text-anchor="middle" x="1152" y="-227.45" font-family="Helvetica,sans-Serif" font-size="14.00">value = [711, 582]</text>
<text text-anchor="middle" x="1152" y="-210.2" font-family="Helvetica,sans-Serif" font-size="14.00">class = Animal</text>
</g>
<!-- 14452&#45;&gt;15916 -->
<g id="edge24" class="edge">
<title>14452&#45;&gt;15916</title>
<path fill="none" stroke="black" d="M979.47,-336.81C1007.67,-322.68 1039.16,-306.9 1067.45,-292.74"/>
<polygon fill="black" stroke="black" points="1068.98,-295.88 1076.35,-288.27 1065.85,-289.62 1068.98,-295.88"/>
</g>
<!-- 14454 -->
<g id="node19" class="node">
<title>14454</title>
<path fill="#eca16b" stroke="black" d="M881.5,-166.25C881.5,-166.25 748.5,-166.25 748.5,-166.25 742.5,-166.25 736.5,-160.25 736.5,-154.25 736.5,-154.25 736.5,-84 736.5,-84 736.5,-78 742.5,-72 748.5,-72 748.5,-72 881.5,-72 881.5,-72 887.5,-72 893.5,-78 893.5,-84 893.5,-84 893.5,-154.25 893.5,-154.25 893.5,-160.25 887.5,-166.25 881.5,-166.25"/>
<text text-anchor="middle" x="815" y="-148.95" font-family="Helvetica,sans-Serif" font-size="14.00">6_A &lt;= 0.5</text>
<text text-anchor="middle" x="815" y="-131.7" font-family="Helvetica,sans-Serif" font-size="14.00">entropy = 0.726</text>
<text text-anchor="middle" x="815" y="-114.45" font-family="Helvetica,sans-Serif" font-size="14.00">samples = 2529</text>
<text text-anchor="middle" x="815" y="-97.2" font-family="Helvetica,sans-Serif" font-size="14.00">value = [3182, 806]</text>
<text text-anchor="middle" x="815" y="-79.95" font-family="Helvetica,sans-Serif" font-size="14.00">class = Animal</text>
</g>
<!-- 14453&#45;&gt;14454 -->
<g id="edge18" class="edge">
<title>14453&#45;&gt;14454</title>
<path fill="none" stroke="black" d="M866.76,-202.07C861.42,-193.63 855.81,-184.74 850.32,-176.05"/>
<polygon fill="black" stroke="black" points="853.31,-174.22 845.01,-167.64 847.39,-177.96 853.31,-174.22"/>
</g>
<!-- 15487 -->
<g id="node22" class="node">
<title>15487</title>
<path fill="#f3c5a4" stroke="black" d="M1048,-166.25C1048,-166.25 924,-166.25 924,-166.25 918,-166.25 912,-160.25 912,-154.25 912,-154.25 912,-84 912,-84 912,-78 918,-72 924,-72 924,-72 1048,-72 1048,-72 1054,-72 1060,-78 1060,-84 1060,-84 1060,-154.25 1060,-154.25 1060,-160.25 1054,-166.25 1048,-166.25"/>
<text text-anchor="middle" x="986" y="-148.95" font-family="Helvetica,sans-Serif" font-size="14.00">13_C &lt;= 0.5</text>
<text text-anchor="middle" x="986" y="-131.7" font-family="Helvetica,sans-Serif" font-size="14.00">entropy = 0.935</text>
<text text-anchor="middle" x="986" y="-114.45" font-family="Helvetica,sans-Serif" font-size="14.00">samples = 857</text>
<text text-anchor="middle" x="986" y="-97.2" font-family="Helvetica,sans-Serif" font-size="14.00">value = [903, 488]</text>
<text text-anchor="middle" x="986" y="-79.95" font-family="Helvetica,sans-Serif" font-size="14.00">class = Animal</text>
</g>
<!-- 14453&#45;&gt;15487 -->
<g id="edge21" class="edge">
<title>14453&#45;&gt;15487</title>
<path fill="none" stroke="black" d="M928.49,-202.07C934.48,-193.54 940.79,-184.54 946.95,-175.77"/>
<polygon fill="black" stroke="black" points="949.81,-177.79 952.69,-167.6 944.08,-173.77 949.81,-177.79"/>
</g>
<!-- 14455 -->
<g id="node20" class="node">
<title>14455</title>
<path fill="#c0c0c0" stroke="black" d="M771,-36C771,-36 741,-36 741,-36 735,-36 729,-30 729,-24 729,-24 729,-12 729,-12 729,-6 735,0 741,0 741,0 771,0 771,0 777,0 783,-6 783,-12 783,-12 783,-24 783,-24 783,-30 777,-36 771,-36"/>
<text text-anchor="middle" x="756" y="-13.32" font-family="Helvetica,sans-Serif" font-size="14.00">(...)</text>
</g>
<!-- 14454&#45;&gt;14455 -->
<g id="edge19" class="edge">
<title>14454&#45;&gt;14455</title>
<path fill="none" stroke="black" d="M787.4,-71.75C782.15,-62.93 776.81,-53.96 772.06,-45.99"/>
<polygon fill="black" stroke="black" points="775.12,-44.28 767,-37.47 769.1,-47.86 775.12,-44.28"/>
</g>
<!-- 15206 -->
<g id="node21" class="node">
<title>15206</title>
<path fill="#c0c0c0" stroke="black" d="M843,-36C843,-36 813,-36 813,-36 807,-36 801,-30 801,-24 801,-24 801,-12 801,-12 801,-6 807,0 813,0 813,0 843,0 843,0 849,0 855,-6 855,-12 855,-12 855,-24 855,-24 855,-30 849,-36 843,-36"/>
<text text-anchor="middle" x="828" y="-13.32" font-family="Helvetica,sans-Serif" font-size="14.00">(...)</text>
</g>
<!-- 14454&#45;&gt;15206 -->
<g id="edge20" class="edge">
<title>14454&#45;&gt;15206</title>
<path fill="none" stroke="black" d="M821.08,-71.75C822.17,-63.42 823.28,-54.97 824.28,-47.34"/>
<polygon fill="black" stroke="black" points="827.72,-48.04 825.55,-37.67 820.78,-47.13 827.72,-48.04"/>
</g>
<!-- 15488 -->
<g id="node23" class="node">
<title>15488</title>
<path fill="#c0c0c0" stroke="black" d="M940,-36C940,-36 910,-36 910,-36 904,-36 898,-30 898,-24 898,-24 898,-12 898,-12 898,-6 904,0 910,0 910,0 940,0 940,0 946,0 952,-6 952,-12 952,-12 952,-24 952,-24 952,-30 946,-36 940,-36"/>
<text text-anchor="middle" x="925" y="-13.32" font-family="Helvetica,sans-Serif" font-size="14.00">(...)</text>
</g>
<!-- 15487&#45;&gt;15488 -->
<g id="edge22" class="edge">
<title>15487&#45;&gt;15488</title>
<path fill="none" stroke="black" d="M957.46,-71.75C951.97,-62.83 946.39,-53.76 941.44,-45.72"/>
<polygon fill="black" stroke="black" points="944.58,-44.14 936.36,-37.46 938.62,-47.81 944.58,-44.14"/>
</g>
<!-- 15831 -->
<g id="node24" class="node">
<title>15831</title>
<path fill="#c0c0c0" stroke="black" d="M1012,-36C1012,-36 982,-36 982,-36 976,-36 970,-30 970,-24 970,-24 970,-12 970,-12 970,-6 976,0 982,0 982,0 1012,0 1012,0 1018,0 1024,-6 1024,-12 1024,-12 1024,-24 1024,-24 1024,-30 1018,-36 1012,-36"/>
<text text-anchor="middle" x="997" y="-13.32" font-family="Helvetica,sans-Serif" font-size="14.00">(...)</text>
</g>
<!-- 15487&#45;&gt;15831 -->
<g id="edge23" class="edge">
<title>15487&#45;&gt;15831</title>
<path fill="none" stroke="black" d="M991.15,-71.75C992.06,-63.52 992.99,-55.17 993.82,-47.61"/>
<polygon fill="black" stroke="black" points="997.3,-48 994.93,-37.68 990.35,-47.23 997.3,-48"/>
</g>
<!-- 15917 -->
<g id="node26" class="node">
<title>15917</title>
<path fill="#fefaf7" stroke="black" d="M1214,-166.25C1214,-166.25 1090,-166.25 1090,-166.25 1084,-166.25 1078,-160.25 1078,-154.25 1078,-154.25 1078,-84 1078,-84 1078,-78 1084,-72 1090,-72 1090,-72 1214,-72 1214,-72 1220,-72 1226,-78 1226,-84 1226,-84 1226,-154.25 1226,-154.25 1226,-160.25 1220,-166.25 1214,-166.25"/>
<text text-anchor="middle" x="1152" y="-148.95" font-family="Helvetica,sans-Serif" font-size="14.00">2_A &lt;= 0.5</text>
<text text-anchor="middle" x="1152" y="-131.7" font-family="Helvetica,sans-Serif" font-size="14.00">entropy = 1.0</text>
<text text-anchor="middle" x="1152" y="-114.45" font-family="Helvetica,sans-Serif" font-size="14.00">samples = 662</text>
<text text-anchor="middle" x="1152" y="-97.2" font-family="Helvetica,sans-Serif" font-size="14.00">value = [536, 514]</text>
<text text-anchor="middle" x="1152" y="-79.95" font-family="Helvetica,sans-Serif" font-size="14.00">class = Animal</text>
</g>
<!-- 15916&#45;&gt;15917 -->
<g id="edge25" class="edge">
<title>15916&#45;&gt;15917</title>
<path fill="none" stroke="black" d="M1152,-202.07C1152,-194.17 1152,-185.88 1152,-177.73"/>
<polygon fill="black" stroke="black" points="1155.5,-177.87 1152,-167.87 1148.5,-177.87 1155.5,-177.87"/>
</g>
<!-- 16258 -->
<g id="node29" class="node">
<title>16258</title>
<path fill="#efb286" stroke="black" d="M1371.5,-166.25C1371.5,-166.25 1256.5,-166.25 1256.5,-166.25 1250.5,-166.25 1244.5,-160.25 1244.5,-154.25 1244.5,-154.25 1244.5,-84 1244.5,-84 1244.5,-78 1250.5,-72 1256.5,-72 1256.5,-72 1371.5,-72 1371.5,-72 1377.5,-72 1383.5,-78 1383.5,-84 1383.5,-84 1383.5,-154.25 1383.5,-154.25 1383.5,-160.25 1377.5,-166.25 1371.5,-166.25"/>
<text text-anchor="middle" x="1314" y="-148.95" font-family="Helvetica,sans-Serif" font-size="14.00">16_A &lt;= 0.5</text>
<text text-anchor="middle" x="1314" y="-131.7" font-family="Helvetica,sans-Serif" font-size="14.00">entropy = 0.855</text>
<text text-anchor="middle" x="1314" y="-114.45" font-family="Helvetica,sans-Serif" font-size="14.00">samples = 152</text>
<text text-anchor="middle" x="1314" y="-97.2" font-family="Helvetica,sans-Serif" font-size="14.00">value = [175, 68]</text>
<text text-anchor="middle" x="1314" y="-79.95" font-family="Helvetica,sans-Serif" font-size="14.00">class = Animal</text>
</g>
<!-- 15916&#45;&gt;16258 -->
<g id="edge28" class="edge">
<title>15916&#45;&gt;16258</title>
<path fill="none" stroke="black" d="M1210.49,-202.07C1222.11,-192.87 1234.41,-183.13 1246.32,-173.71"/>
<polygon fill="black" stroke="black" points="1248.47,-176.46 1254.14,-167.51 1244.13,-170.98 1248.47,-176.46"/>
</g>
<!-- 15918 -->
<g id="node27" class="node">
<title>15918</title>
<path fill="#c0c0c0" stroke="black" d="M1122,-36C1122,-36 1092,-36 1092,-36 1086,-36 1080,-30 1080,-24 1080,-24 1080,-12 1080,-12 1080,-6 1086,0 1092,0 1092,0 1122,0 1122,0 1128,0 1134,-6 1134,-12 1134,-12 1134,-24 1134,-24 1134,-30 1128,-36 1122,-36"/>
<text text-anchor="middle" x="1107" y="-13.32" font-family="Helvetica,sans-Serif" font-size="14.00">(...)</text>
</g>
<!-- 15917&#45;&gt;15918 -->
<g id="edge26" class="edge">
<title>15917&#45;&gt;15918</title>
<path fill="none" stroke="black" d="M1130.95,-71.75C1127.03,-63.12 1123.05,-54.36 1119.5,-46.53"/>
<polygon fill="black" stroke="black" points="1122.74,-45.21 1115.42,-37.55 1116.37,-48.1 1122.74,-45.21"/>
</g>
<!-- 16175 -->
<g id="node28" class="node">
<title>16175</title>
<path fill="#c0c0c0" stroke="black" d="M1194,-36C1194,-36 1164,-36 1164,-36 1158,-36 1152,-30 1152,-24 1152,-24 1152,-12 1152,-12 1152,-6 1158,0 1164,0 1164,0 1194,0 1194,0 1200,0 1206,-6 1206,-12 1206,-12 1206,-24 1206,-24 1206,-30 1200,-36 1194,-36"/>
<text text-anchor="middle" x="1179" y="-13.32" font-family="Helvetica,sans-Serif" font-size="14.00">(...)</text>
</g>
<!-- 15917&#45;&gt;16175 -->
<g id="edge27" class="edge">
<title>15917&#45;&gt;16175</title>
<path fill="none" stroke="black" d="M1164.63,-71.75C1166.93,-63.32 1169.26,-54.77 1171.35,-47.07"/>
<polygon fill="black" stroke="black" points="1174.67,-48.2 1173.92,-37.63 1167.92,-46.36 1174.67,-48.2"/>
</g>
<!-- 16259 -->
<g id="node30" class="node">
<title>16259</title>
<path fill="#c0c0c0" stroke="black" d="M1293,-36C1293,-36 1263,-36 1263,-36 1257,-36 1251,-30 1251,-24 1251,-24 1251,-12 1251,-12 1251,-6 1257,0 1263,0 1263,0 1293,0 1293,0 1299,0 1305,-6 1305,-12 1305,-12 1305,-24 1305,-24 1305,-30 1299,-36 1293,-36"/>
<text text-anchor="middle" x="1278" y="-13.32" font-family="Helvetica,sans-Serif" font-size="14.00">(...)</text>
</g>
<!-- 16258&#45;&gt;16259 -->
<g id="edge29" class="edge">
<title>16258&#45;&gt;16259</title>
<path fill="none" stroke="black" d="M1297.16,-71.75C1294.06,-63.22 1290.92,-54.57 1288.1,-46.8"/>
<polygon fill="black" stroke="black" points="1291.46,-45.8 1284.75,-37.6 1284.88,-48.19 1291.46,-45.8"/>
</g>
<!-- 16328 -->
<g id="node31" class="node">
<title>16328</title>
<path fill="#c0c0c0" stroke="black" d="M1365,-36C1365,-36 1335,-36 1335,-36 1329,-36 1323,-30 1323,-24 1323,-24 1323,-12 1323,-12 1323,-6 1329,0 1335,0 1335,0 1365,0 1365,0 1371,0 1377,-6 1377,-12 1377,-12 1377,-24 1377,-24 1377,-30 1371,-36 1365,-36"/>
<text text-anchor="middle" x="1350" y="-13.32" font-family="Helvetica,sans-Serif" font-size="14.00">(...)</text>
</g>
<!-- 16258&#45;&gt;16328 -->
<g id="edge30" class="edge">
<title>16258&#45;&gt;16328</title>
<path fill="none" stroke="black" d="M1330.84,-71.75C1333.94,-63.22 1337.08,-54.57 1339.9,-46.8"/>
<polygon fill="black" stroke="black" points="1343.12,-48.19 1343.25,-37.6 1336.54,-45.8 1343.12,-48.19"/>
</g>
</g>
</svg>
