<?xml version="1.0" encoding="UTF-8" standalone="no"?>
<!DOCTYPE svg PUBLIC "-//W3C//DTD SVG 1.1//EN"
 "http://www.w3.org/Graphics/SVG/1.1/DTD/svg11.dtd">
<!-- Generated by graphviz version 12.0.0 (20240803.0821)
 -->
<!-- Title: Tree Pages: 1 -->
<svg width="1418pt" height="565pt"
 viewBox="0.00 0.00 1417.50 565.00" xmlns="http://www.w3.org/2000/svg" xmlns:xlink="http://www.w3.org/1999/xlink">
<g id="graph0" class="graph" transform="scale(1 1) rotate(0) translate(4 561)">
<title>Tree</title>
<polygon fill="white" stroke="none" points="-4,4 -4,-561 1413.5,-561 1413.5,4 -4,4"/>
<!-- 0 -->
<g id="node1" class="node">
<title>0</title>
<path fill="#ffffff" stroke="black" d="M781,-557C781,-557 621,-557 621,-557 615,-557 609,-551 609,-545 609,-545 609,-474.75 609,-474.75 609,-468.75 615,-462.75 621,-462.75 621,-462.75 781,-462.75 781,-462.75 787,-462.75 793,-468.75 793,-474.75 793,-474.75 793,-545 793,-545 793,-551 787,-557 781,-557"/>
<text text-anchor="middle" x="701" y="-539.7" font-family="Helvetica,sans-Serif" font-size="14.00">10_A &lt;= 0.5</text>
<text text-anchor="middle" x="701" y="-522.45" font-family="Helvetica,sans-Serif" font-size="14.00">entropy = 1.0</text>
<text text-anchor="middle" x="701" y="-505.2" font-family="Helvetica,sans-Serif" font-size="14.00">samples = 38108</text>
<text text-anchor="middle" x="701" y="-487.95" font-family="Helvetica,sans-Serif" font-size="14.00">value = [30160, 30185]</text>
<text text-anchor="middle" x="701" y="-470.7" font-family="Helvetica,sans-Serif" font-size="14.00">class = Plant</text>
</g>
<!-- 1 -->
<g id="node2" class="node">
<title>1</title>
<path fill="#fbeee4" stroke="black" d="M618,-426.75C618,-426.75 458,-426.75 458,-426.75 452,-426.75 446,-420.75 446,-414.75 446,-414.75 446,-344.5 446,-344.5 446,-338.5 452,-332.5 458,-332.5 458,-332.5 618,-332.5 618,-332.5 624,-332.5 630,-338.5 630,-344.5 630,-344.5 630,-414.75 630,-414.75 630,-420.75 624,-426.75 618,-426.75"/>
<text text-anchor="middle" x="538" y="-409.45" font-family="Helvetica,sans-Serif" font-size="14.00">23_C &lt;= 0.5</text>
<text text-anchor="middle" x="538" y="-392.2" font-family="Helvetica,sans-Serif" font-size="14.00">entropy = 0.996</text>
<text text-anchor="middle" x="538" y="-374.95" font-family="Helvetica,sans-Serif" font-size="14.00">samples = 27260</text>
<text text-anchor="middle" x="538" y="-357.7" font-family="Helvetica,sans-Serif" font-size="14.00">value = [23175, 19992]</text>
<text text-anchor="middle" x="538" y="-340.45" font-family="Helvetica,sans-Serif" font-size="14.00">class = Animal</text>
</g>
<!-- 0&#45;&gt;1 -->
<g id="edge1" class="edge">
<title>0&#45;&gt;1</title>
<path fill="none" stroke="black" d="M642.15,-462.57C630.34,-453.28 617.84,-443.44 605.75,-433.93"/>
<polygon fill="black" stroke="black" points="608.25,-431.44 598.22,-428.01 603.92,-436.94 608.25,-431.44"/>
<text text-anchor="middle" x="600" y="-447.22" font-family="Helvetica,sans-Serif" font-size="14.00">True</text>
</g>
<!-- 12748 -->
<g id="node17" class="node">
<title>12748</title>
<path fill="#c1e0f7" stroke="black" d="M959.5,-426.75C959.5,-426.75 808.5,-426.75 808.5,-426.75 802.5,-426.75 796.5,-420.75 796.5,-414.75 796.5,-414.75 796.5,-344.5 796.5,-344.5 796.5,-338.5 802.5,-332.5 808.5,-332.5 808.5,-332.5 959.5,-332.5 959.5,-332.5 965.5,-332.5 971.5,-338.5 971.5,-344.5 971.5,-344.5 971.5,-414.75 971.5,-414.75 971.5,-420.75 965.5,-426.75 959.5,-426.75"/>
<text text-anchor="middle" x="884" y="-409.45" font-family="Helvetica,sans-Serif" font-size="14.00">19_C &lt;= 0.5</text>
<text text-anchor="middle" x="884" y="-392.2" font-family="Helvetica,sans-Serif" font-size="14.00">entropy = 0.975</text>
<text text-anchor="middle" x="884" y="-374.95" font-family="Helvetica,sans-Serif" font-size="14.00">samples = 10848</text>
<text text-anchor="middle" x="884" y="-357.7" font-family="Helvetica,sans-Serif" font-size="14.00">value = [6985, 10193]</text>
<text text-anchor="middle" x="884" y="-340.45" font-family="Helvetica,sans-Serif" font-size="14.00">class = Plant</text>
</g>
<!-- 0&#45;&gt;12748 -->
<g id="edge16" class="edge">
<title>0&#45;&gt;12748</title>
<path fill="none" stroke="black" d="M767.33,-462.39C780.62,-453.07 794.69,-443.22 808.28,-433.69"/>
<polygon fill="black" stroke="black" points="810.17,-436.64 816.35,-428.03 806.16,-430.91 810.17,-436.64"/>
<text text-anchor="middle" x="813.26" y="-447.11" font-family="Helvetica,sans-Serif" font-size="14.00">False</text>
</g>
<!-- 2 -->
<g id="node3" class="node">
<title>2</title>
<path fill="#fcf2eb" stroke="black" d="M365,-296.5C365,-296.5 205,-296.5 205,-296.5 199,-296.5 193,-290.5 193,-284.5 193,-284.5 193,-214.25 193,-214.25 193,-208.25 199,-202.25 205,-202.25 205,-202.25 365,-202.25 365,-202.25 371,-202.25 377,-208.25 377,-214.25 377,-214.25 377,-284.5 377,-284.5 377,-290.5 371,-296.5 365,-296.5"/>
<text text-anchor="middle" x="285" y="-279.2" font-family="Helvetica,sans-Serif" font-size="14.00">2_A &lt;= 0.5</text>
<text text-anchor="middle" x="285" y="-261.95" font-family="Helvetica,sans-Serif" font-size="14.00">entropy = 0.998</text>
<text text-anchor="middle" x="285" y="-244.7" font-family="Helvetica,sans-Serif" font-size="14.00">samples = 26191</text>
<text text-anchor="middle" x="285" y="-227.45" font-family="Helvetica,sans-Serif" font-size="14.00">value = [21826, 19611]</text>
<text text-anchor="middle" x="285" y="-210.2" font-family="Helvetica,sans-Serif" font-size="14.00">class = Animal</text>
</g>
<!-- 1&#45;&gt;2 -->
<g id="edge2" class="edge">
<title>1&#45;&gt;2</title>
<path fill="none" stroke="black" d="M446.3,-332.14C427.04,-322.38 406.6,-312.02 386.98,-302.07"/>
<polygon fill="black" stroke="black" points="388.66,-299 378.16,-297.6 385.5,-305.24 388.66,-299"/>
</g>
<!-- 12241 -->
<g id="node10" class="node">
<title>12241</title>
<path fill="#eca571" stroke="black" d="M604.5,-296.5C604.5,-296.5 471.5,-296.5 471.5,-296.5 465.5,-296.5 459.5,-290.5 459.5,-284.5 459.5,-284.5 459.5,-214.25 459.5,-214.25 459.5,-208.25 465.5,-202.25 471.5,-202.25 471.5,-202.25 604.5,-202.25 604.5,-202.25 610.5,-202.25 616.5,-208.25 616.5,-214.25 616.5,-214.25 616.5,-284.5 616.5,-284.5 616.5,-290.5 610.5,-296.5 604.5,-296.5"/>
<text text-anchor="middle" x="538" y="-279.2" font-family="Helvetica,sans-Serif" font-size="14.00">1_U &lt;= 0.5</text>
<text text-anchor="middle" x="538" y="-261.95" font-family="Helvetica,sans-Serif" font-size="14.00">entropy = 0.761</text>
<text text-anchor="middle" x="538" y="-244.7" font-family="Helvetica,sans-Serif" font-size="14.00">samples = 1069</text>
<text text-anchor="middle" x="538" y="-227.45" font-family="Helvetica,sans-Serif" font-size="14.00">value = [1349, 381]</text>
<text text-anchor="middle" x="538" y="-210.2" font-family="Helvetica,sans-Serif" font-size="14.00">class = Animal</text>
</g>
<!-- 1&#45;&gt;12241 -->
<g id="edge9" class="edge">
<title>1&#45;&gt;12241</title>
<path fill="none" stroke="black" d="M538,-332.32C538,-324.42 538,-316.13 538,-307.98"/>
<polygon fill="black" stroke="black" points="541.5,-308.12 538,-298.12 534.5,-308.12 541.5,-308.12"/>
</g>
<!-- 3 -->
<g id="node4" class="node">
<title>3</title>
<path fill="#ebf5fc" stroke="black" d="M172,-166.25C172,-166.25 12,-166.25 12,-166.25 6,-166.25 0,-160.25 0,-154.25 0,-154.25 0,-84 0,-84 0,-78 6,-72 12,-72 12,-72 172,-72 172,-72 178,-72 184,-78 184,-84 184,-84 184,-154.25 184,-154.25 184,-160.25 178,-166.25 172,-166.25"/>
<text text-anchor="middle" x="92" y="-148.95" font-family="Helvetica,sans-Serif" font-size="14.00">23_G &lt;= 0.5</text>
<text text-anchor="middle" x="92" y="-131.7" font-family="Helvetica,sans-Serif" font-size="14.00">entropy = 0.998</text>
<text text-anchor="middle" x="92" y="-114.45" font-family="Helvetica,sans-Serif" font-size="14.00">samples = 20192</text>
<text text-anchor="middle" x="92" y="-97.2" font-family="Helvetica,sans-Serif" font-size="14.00">value = [15103, 16783]</text>
<text text-anchor="middle" x="92" y="-79.95" font-family="Helvetica,sans-Serif" font-size="14.00">class = Plant</text>
</g>
<!-- 2&#45;&gt;3 -->
<g id="edge3" class="edge">
<title>2&#45;&gt;3</title>
<path fill="none" stroke="black" d="M215.05,-201.89C200.89,-192.48 185.9,-182.53 171.45,-172.92"/>
<polygon fill="black" stroke="black" points="173.56,-170.12 163.3,-167.5 169.69,-175.95 173.56,-170.12"/>
</g>
<!-- 9322 -->
<g id="node7" class="node">
<title>9322</title>
<path fill="#f0b68c" stroke="black" d="M356,-166.25C356,-166.25 214,-166.25 214,-166.25 208,-166.25 202,-160.25 202,-154.25 202,-154.25 202,-84 202,-84 202,-78 208,-72 214,-72 214,-72 356,-72 356,-72 362,-72 368,-78 368,-84 368,-84 368,-154.25 368,-154.25 368,-160.25 362,-166.25 356,-166.25"/>
<text text-anchor="middle" x="285" y="-148.95" font-family="Helvetica,sans-Serif" font-size="14.00">1_G &lt;= 0.5</text>
<text text-anchor="middle" x="285" y="-131.7" font-family="Helvetica,sans-Serif" font-size="14.00">entropy = 0.876</text>
<text text-anchor="middle" x="285" y="-114.45" font-family="Helvetica,sans-Serif" font-size="14.00">samples = 5999</text>
<text text-anchor="middle" x="285" y="-97.2" font-family="Helvetica,sans-Serif" font-size="14.00">value = [6723, 2828]</text>
<text text-anchor="middle" x="285" y="-79.95" font-family="Helvetica,sans-Serif" font-size="14.00">class = Animal</text>
</g>
<!-- 2&#45;&gt;9322 -->
<g id="edge6" class="edge">
<title>2&#45;&gt;9322</title>
<path fill="none" stroke="black" d="M285,-202.07C285,-194.17 285,-185.88 285,-177.73"/>
<polygon fill="black" stroke="black" points="288.5,-177.87 285,-167.87 281.5,-177.87 288.5,-177.87"/>
</g>
<!-- 4 -->
<g id="node5" class="node">
<title>4</title>
<path fill="#c0c0c0" stroke="black" d="M71,-36C71,-36 41,-36 41,-36 35,-36 29,-30 29,-24 29,-24 29,-12 29,-12 29,-6 35,0 41,0 41,0 71,0 71,0 77,0 83,-6 83,-12 83,-12 83,-24 83,-24 83,-30 77,-36 71,-36"/>
<text text-anchor="middle" x="56" y="-13.32" font-family="Helvetica,sans-Serif" font-size="14.00">(...)</text>
</g>
<!-- 3&#45;&gt;4 -->
<g id="edge4" class="edge">
<title>3&#45;&gt;4</title>
<path fill="none" stroke="black" d="M75.16,-71.75C72.06,-63.22 68.92,-54.57 66.1,-46.8"/>
<polygon fill="black" stroke="black" points="69.46,-45.8 62.75,-37.6 62.88,-48.19 69.46,-45.8"/>
</g>
<!-- 8861 -->
<g id="node6" class="node">
<title>8861</title>
<path fill="#c0c0c0" stroke="black" d="M143,-36C143,-36 113,-36 113,-36 107,-36 101,-30 101,-24 101,-24 101,-12 101,-12 101,-6 107,0 113,0 113,0 143,0 143,0 149,0 155,-6 155,-12 155,-12 155,-24 155,-24 155,-30 149,-36 143,-36"/>
<text text-anchor="middle" x="128" y="-13.32" font-family="Helvetica,sans-Serif" font-size="14.00">(...)</text>
</g>
<!-- 3&#45;&gt;8861 -->
<g id="edge5" class="edge">
<title>3&#45;&gt;8861</title>
<path fill="none" stroke="black" d="M108.84,-71.75C111.94,-63.22 115.08,-54.57 117.9,-46.8"/>
<polygon fill="black" stroke="black" points="121.12,-48.19 121.25,-37.6 114.54,-45.8 121.12,-48.19"/>
</g>
<!-- 9323 -->
<g id="node8" class="node">
<title>9323</title>
<path fill="#c0c0c0" stroke="black" d="M255,-36C255,-36 225,-36 225,-36 219,-36 213,-30 213,-24 213,-24 213,-12 213,-12 213,-6 219,0 225,0 225,0 255,0 255,0 261,0 267,-6 267,-12 267,-12 267,-24 267,-24 267,-30 261,-36 255,-36"/>
<text text-anchor="middle" x="240" y="-13.32" font-family="Helvetica,sans-Serif" font-size="14.00">(...)</text>
</g>
<!-- 9322&#45;&gt;9323 -->
<g id="edge7" class="edge">
<title>9322&#45;&gt;9323</title>
<path fill="none" stroke="black" d="M263.95,-71.75C260.03,-63.12 256.05,-54.36 252.5,-46.53"/>
<polygon fill="black" stroke="black" points="255.74,-45.21 248.42,-37.55 249.37,-48.1 255.74,-45.21"/>
</g>
<!-- 11758 -->
<g id="node9" class="node">
<title>11758</title>
<path fill="#c0c0c0" stroke="black" d="M327,-36C327,-36 297,-36 297,-36 291,-36 285,-30 285,-24 285,-24 285,-12 285,-12 285,-6 291,0 297,0 297,0 327,0 327,0 333,0 339,-6 339,-12 339,-12 339,-24 339,-24 339,-30 333,-36 327,-36"/>
<text text-anchor="middle" x="312" y="-13.32" font-family="Helvetica,sans-Serif" font-size="14.00">(...)</text>
</g>
<!-- 9322&#45;&gt;11758 -->
<g id="edge8" class="edge">
<title>9322&#45;&gt;11758</title>
<path fill="none" stroke="black" d="M297.63,-71.75C299.93,-63.32 302.26,-54.77 304.35,-47.07"/>
<polygon fill="black" stroke="black" points="307.67,-48.2 306.92,-37.63 300.92,-46.36 307.67,-48.2"/>
</g>
<!-- 12242 -->
<g id="node11" class="node">
<title>12242</title>
<path fill="#f0b68c" stroke="black" d="M522,-166.25C522,-166.25 398,-166.25 398,-166.25 392,-166.25 386,-160.25 386,-154.25 386,-154.25 386,-84 386,-84 386,-78 392,-72 398,-72 398,-72 522,-72 522,-72 528,-72 534,-78 534,-84 534,-84 534,-154.25 534,-154.25 534,-160.25 528,-166.25 522,-166.25"/>
<text text-anchor="middle" x="460" y="-148.95" font-family="Helvetica,sans-Serif" font-size="14.00">2_C &lt;= 0.5</text>
<text text-anchor="middle" x="460" y="-131.7" font-family="Helvetica,sans-Serif" font-size="14.00">entropy = 0.875</text>
<text text-anchor="middle" x="460" y="-114.45" font-family="Helvetica,sans-Serif" font-size="14.00">samples = 576</text>
<text text-anchor="middle" x="460" y="-97.2" font-family="Helvetica,sans-Serif" font-size="14.00">value = [658, 275]</text>
<text text-anchor="middle" x="460" y="-79.95" font-family="Helvetica,sans-Serif" font-size="14.00">class = Animal</text>
</g>
<!-- 12241&#45;&gt;12242 -->
<g id="edge10" class="edge">
<title>12241&#45;&gt;12242</title>
<path fill="none" stroke="black" d="M509.84,-202.07C504.7,-193.63 499.3,-184.74 494.01,-176.05"/>
<polygon fill="black" stroke="black" points="497.09,-174.38 488.9,-167.65 491.11,-178.01 497.09,-174.38"/>
</g>
<!-- 12571 -->
<g id="node14" class="node">
<title>12571</title>
<path fill="#e99457" stroke="black" d="M688,-166.25C688,-166.25 564,-166.25 564,-166.25 558,-166.25 552,-160.25 552,-154.25 552,-154.25 552,-84 552,-84 552,-78 558,-72 564,-72 564,-72 688,-72 688,-72 694,-72 700,-78 700,-84 700,-84 700,-154.25 700,-154.25 700,-160.25 694,-166.25 688,-166.25"/>
<text text-anchor="middle" x="626" y="-148.95" font-family="Helvetica,sans-Serif" font-size="14.00">12_A &lt;= 0.5</text>
<text text-anchor="middle" x="626" y="-131.7" font-family="Helvetica,sans-Serif" font-size="14.00">entropy = 0.566</text>
<text text-anchor="middle" x="626" y="-114.45" font-family="Helvetica,sans-Serif" font-size="14.00">samples = 493</text>
<text text-anchor="middle" x="626" y="-97.2" font-family="Helvetica,sans-Serif" font-size="14.00">value = [691, 106]</text>
<text text-anchor="middle" x="626" y="-79.95" font-family="Helvetica,sans-Serif" font-size="14.00">class = Animal</text>
</g>
<!-- 12241&#45;&gt;12571 -->
<g id="edge13" class="edge">
<title>12241&#45;&gt;12571</title>
<path fill="none" stroke="black" d="M569.77,-202.07C575.63,-193.54 581.8,-184.54 587.82,-175.77"/>
<polygon fill="black" stroke="black" points="590.65,-177.83 593.42,-167.61 584.88,-173.87 590.65,-177.83"/>
</g>
<!-- 12243 -->
<g id="node12" class="node">
<title>12243</title>
<path fill="#c0c0c0" stroke="black" d="M414,-36C414,-36 384,-36 384,-36 378,-36 372,-30 372,-24 372,-24 372,-12 372,-12 372,-6 378,0 384,0 384,0 414,0 414,0 420,0 426,-6 426,-12 426,-12 426,-24 426,-24 426,-30 420,-36 414,-36"/>
<text text-anchor="middle" x="399" y="-13.32" font-family="Helvetica,sans-Serif" font-size="14.00">(...)</text>
</g>
<!-- 12242&#45;&gt;12243 -->
<g id="edge11" class="edge">
<title>12242&#45;&gt;12243</title>
<path fill="none" stroke="black" d="M431.46,-71.75C425.97,-62.83 420.39,-53.76 415.44,-45.72"/>
<polygon fill="black" stroke="black" points="418.58,-44.14 410.36,-37.46 412.62,-47.81 418.58,-44.14"/>
</g>
<!-- 12488 -->
<g id="node13" class="node">
<title>12488</title>
<path fill="#c0c0c0" stroke="black" d="M486,-36C486,-36 456,-36 456,-36 450,-36 444,-30 444,-24 444,-24 444,-12 444,-12 444,-6 450,0 456,0 456,0 486,0 486,0 492,0 498,-6 498,-12 498,-12 498,-24 498,-24 498,-30 492,-36 486,-36"/>
<text text-anchor="middle" x="471" y="-13.32" font-family="Helvetica,sans-Serif" font-size="14.00">(...)</text>
</g>
<!-- 12242&#45;&gt;12488 -->
<g id="edge12" class="edge">
<title>12242&#45;&gt;12488</title>
<path fill="none" stroke="black" d="M465.15,-71.75C466.06,-63.52 466.99,-55.17 467.82,-47.61"/>
<polygon fill="black" stroke="black" points="471.3,-48 468.93,-37.68 464.35,-47.23 471.3,-48"/>
</g>
<!-- 12572 -->
<g id="node15" class="node">
<title>12572</title>
<path fill="#c0c0c0" stroke="black" d="M584,-36C584,-36 554,-36 554,-36 548,-36 542,-30 542,-24 542,-24 542,-12 542,-12 542,-6 548,0 554,0 554,0 584,0 584,0 590,0 596,-6 596,-12 596,-12 596,-24 596,-24 596,-30 590,-36 584,-36"/>
<text text-anchor="middle" x="569" y="-13.32" font-family="Helvetica,sans-Serif" font-size="14.00">(...)</text>
</g>
<!-- 12571&#45;&gt;12572 -->
<g id="edge14" class="edge">
<title>12571&#45;&gt;12572</title>
<path fill="none" stroke="black" d="M599.34,-71.75C594.26,-62.93 589.1,-53.96 584.52,-45.99"/>
<polygon fill="black" stroke="black" points="587.65,-44.41 579.63,-37.48 581.58,-47.9 587.65,-44.41"/>
</g>
<!-- 12705 -->
<g id="node16" class="node">
<title>12705</title>
<path fill="#c0c0c0" stroke="black" d="M656,-36C656,-36 626,-36 626,-36 620,-36 614,-30 614,-24 614,-24 614,-12 614,-12 614,-6 620,0 626,0 626,0 656,0 656,0 662,0 668,-6 668,-12 668,-12 668,-24 668,-24 668,-30 662,-36 656,-36"/>
<text text-anchor="middle" x="641" y="-13.32" font-family="Helvetica,sans-Serif" font-size="14.00">(...)</text>
</g>
<!-- 12571&#45;&gt;12705 -->
<g id="edge15" class="edge">
<title>12571&#45;&gt;12705</title>
<path fill="none" stroke="black" d="M633.02,-71.75C634.28,-63.42 635.56,-54.97 636.71,-47.34"/>
<polygon fill="black" stroke="black" points="640.14,-48.08 638.17,-37.67 633.22,-47.03 640.14,-48.08"/>
</g>
<!-- 12749 -->
<g id="node18" class="node">
<title>12749</title>
<path fill="#f4fafe" stroke="black" d="M955,-296.5C955,-296.5 813,-296.5 813,-296.5 807,-296.5 801,-290.5 801,-284.5 801,-284.5 801,-214.25 801,-214.25 801,-208.25 807,-202.25 813,-202.25 813,-202.25 955,-202.25 955,-202.25 961,-202.25 967,-208.25 967,-214.25 967,-214.25 967,-284.5 967,-284.5 967,-290.5 961,-296.5 955,-296.5"/>
<text text-anchor="middle" x="884" y="-279.2" font-family="Helvetica,sans-Serif" font-size="14.00">22_A &lt;= 0.5</text>
<text text-anchor="middle" x="884" y="-261.95" font-family="Helvetica,sans-Serif" font-size="14.00">entropy = 0.999</text>
<text text-anchor="middle" x="884" y="-244.7" font-family="Helvetica,sans-Serif" font-size="14.00">samples = 7269</text>
<text text-anchor="middle" x="884" y="-227.45" font-family="Helvetica,sans-Serif" font-size="14.00">value = [5566, 5881]</text>
<text text-anchor="middle" x="884" y="-210.2" font-family="Helvetica,sans-Serif" font-size="14.00">class = Plant</text>
</g>
<!-- 12748&#45;&gt;12749 -->
<g id="edge17" class="edge">
<title>12748&#45;&gt;12749</title>
<path fill="none" stroke="black" d="M884,-332.32C884,-324.42 884,-316.13 884,-307.98"/>
<polygon fill="black" stroke="black" points="887.5,-308.12 884,-298.12 880.5,-308.12 887.5,-308.12"/>
</g>
<!-- 15898 -->
<g id="node25" class="node">
<title>15898</title>
<path fill="#7abdee" stroke="black" d="M1222,-296.5C1222,-296.5 1080,-296.5 1080,-296.5 1074,-296.5 1068,-290.5 1068,-284.5 1068,-284.5 1068,-214.25 1068,-214.25 1068,-208.25 1074,-202.25 1080,-202.25 1080,-202.25 1222,-202.25 1222,-202.25 1228,-202.25 1234,-208.25 1234,-214.25 1234,-214.25 1234,-284.5 1234,-284.5 1234,-290.5 1228,-296.5 1222,-296.5"/>
<text text-anchor="middle" x="1151" y="-279.2" font-family="Helvetica,sans-Serif" font-size="14.00">18_C &lt;= 0.5</text>
<text text-anchor="middle" x="1151" y="-261.95" font-family="Helvetica,sans-Serif" font-size="14.00">entropy = 0.807</text>
<text text-anchor="middle" x="1151" y="-244.7" font-family="Helvetica,sans-Serif" font-size="14.00">samples = 3579</text>
<text text-anchor="middle" x="1151" y="-227.45" font-family="Helvetica,sans-Serif" font-size="14.00">value = [1419, 4312]</text>
<text text-anchor="middle" x="1151" y="-210.2" font-family="Helvetica,sans-Serif" font-size="14.00">class = Plant</text>
</g>
<!-- 12748&#45;&gt;15898 -->
<g id="edge24" class="edge">
<title>12748&#45;&gt;15898</title>
<path fill="none" stroke="black" d="M971.8,-336.45C999.28,-323.25 1029.69,-308.64 1057.55,-295.26"/>
<polygon fill="black" stroke="black" points="1058.82,-298.53 1066.32,-291.05 1055.79,-292.22 1058.82,-298.53"/>
</g>
<!-- 12750 -->
<g id="node19" class="node">
<title>12750</title>
<path fill="#e2f1fb" stroke="black" d="M872,-166.25C872,-166.25 730,-166.25 730,-166.25 724,-166.25 718,-160.25 718,-154.25 718,-154.25 718,-84 718,-84 718,-78 724,-72 730,-72 730,-72 872,-72 872,-72 878,-72 884,-78 884,-84 884,-84 884,-154.25 884,-154.25 884,-160.25 878,-166.25 872,-166.25"/>
<text text-anchor="middle" x="801" y="-148.95" font-family="Helvetica,sans-Serif" font-size="14.00">17_G &lt;= 0.5</text>
<text text-anchor="middle" x="801" y="-131.7" font-family="Helvetica,sans-Serif" font-size="14.00">entropy = 0.996</text>
<text text-anchor="middle" x="801" y="-114.45" font-family="Helvetica,sans-Serif" font-size="14.00">samples = 6589</text>
<text text-anchor="middle" x="801" y="-97.2" font-family="Helvetica,sans-Serif" font-size="14.00">value = [4790, 5597]</text>
<text text-anchor="middle" x="801" y="-79.95" font-family="Helvetica,sans-Serif" font-size="14.00">class = Plant</text>
</g>
<!-- 12749&#45;&gt;12750 -->
<g id="edge18" class="edge">
<title>12749&#45;&gt;12750</title>
<path fill="none" stroke="black" d="M854.04,-202.07C848.51,-193.54 842.69,-184.54 837.01,-175.77"/>
<polygon fill="black" stroke="black" points="840.11,-174.12 831.74,-167.63 834.24,-177.93 840.11,-174.12"/>
</g>
<!-- 15553 -->
<g id="node22" class="node">
<title>15553</title>
<path fill="#efaf81" stroke="black" d="M1038,-166.25C1038,-166.25 914,-166.25 914,-166.25 908,-166.25 902,-160.25 902,-154.25 902,-154.25 902,-84 902,-84 902,-78 908,-72 914,-72 914,-72 1038,-72 1038,-72 1044,-72 1050,-78 1050,-84 1050,-84 1050,-154.25 1050,-154.25 1050,-160.25 1044,-166.25 1038,-166.25"/>
<text text-anchor="middle" x="976" y="-148.95" font-family="Helvetica,sans-Serif" font-size="14.00">20_C &lt;= 0.5</text>
<text text-anchor="middle" x="976" y="-131.7" font-family="Helvetica,sans-Serif" font-size="14.00">entropy = 0.838</text>
<text text-anchor="middle" x="976" y="-114.45" font-family="Helvetica,sans-Serif" font-size="14.00">samples = 680</text>
<text text-anchor="middle" x="976" y="-97.2" font-family="Helvetica,sans-Serif" font-size="14.00">value = [776, 284]</text>
<text text-anchor="middle" x="976" y="-79.95" font-family="Helvetica,sans-Serif" font-size="14.00">class = Animal</text>
</g>
<!-- 12749&#45;&gt;15553 -->
<g id="edge21" class="edge">
<title>12749&#45;&gt;15553</title>
<path fill="none" stroke="black" d="M917.21,-202.07C923.4,-193.45 929.93,-184.35 936.29,-175.49"/>
<polygon fill="black" stroke="black" points="938.97,-177.75 941.95,-167.59 933.28,-173.67 938.97,-177.75"/>
</g>
<!-- 12751 -->
<g id="node20" class="node">
<title>12751</title>
<path fill="#c0c0c0" stroke="black" d="M759,-36C759,-36 729,-36 729,-36 723,-36 717,-30 717,-24 717,-24 717,-12 717,-12 717,-6 723,0 729,0 729,0 759,0 759,0 765,0 771,-6 771,-12 771,-12 771,-24 771,-24 771,-30 765,-36 759,-36"/>
<text text-anchor="middle" x="744" y="-13.32" font-family="Helvetica,sans-Serif" font-size="14.00">(...)</text>
</g>
<!-- 12750&#45;&gt;12751 -->
<g id="edge19" class="edge">
<title>12750&#45;&gt;12751</title>
<path fill="none" stroke="black" d="M774.34,-71.75C769.26,-62.93 764.1,-53.96 759.52,-45.99"/>
<polygon fill="black" stroke="black" points="762.65,-44.41 754.63,-37.48 756.58,-47.9 762.65,-44.41"/>
</g>
<!-- 14764 -->
<g id="node21" class="node">
<title>14764</title>
<path fill="#c0c0c0" stroke="black" d="M831,-36C831,-36 801,-36 801,-36 795,-36 789,-30 789,-24 789,-24 789,-12 789,-12 789,-6 795,0 801,0 801,0 831,0 831,0 837,0 843,-6 843,-12 843,-12 843,-24 843,-24 843,-30 837,-36 831,-36"/>
<text text-anchor="middle" x="816" y="-13.32" font-family="Helvetica,sans-Serif" font-size="14.00">(...)</text>
</g>
<!-- 12750&#45;&gt;14764 -->
<g id="edge20" class="edge">
<title>12750&#45;&gt;14764</title>
<path fill="none" stroke="black" d="M808.02,-71.75C809.28,-63.42 810.56,-54.97 811.71,-47.34"/>
<polygon fill="black" stroke="black" points="815.14,-48.08 813.17,-37.67 808.22,-47.03 815.14,-48.08"/>
</g>
<!-- 15554 -->
<g id="node23" class="node">
<title>15554</title>
<path fill="#c0c0c0" stroke="black" d="M934,-36C934,-36 904,-36 904,-36 898,-36 892,-30 892,-24 892,-24 892,-12 892,-12 892,-6 898,0 904,0 904,0 934,0 934,0 940,0 946,-6 946,-12 946,-12 946,-24 946,-24 946,-30 940,-36 934,-36"/>
<text text-anchor="middle" x="919" y="-13.32" font-family="Helvetica,sans-Serif" font-size="14.00">(...)</text>
</g>
<!-- 15553&#45;&gt;15554 -->
<g id="edge22" class="edge">
<title>15553&#45;&gt;15554</title>
<path fill="none" stroke="black" d="M949.34,-71.75C944.26,-62.93 939.1,-53.96 934.52,-45.99"/>
<polygon fill="black" stroke="black" points="937.65,-44.41 929.63,-37.48 931.58,-47.9 937.65,-44.41"/>
</g>
<!-- 15833 -->
<g id="node24" class="node">
<title>15833</title>
<path fill="#c0c0c0" stroke="black" d="M1006,-36C1006,-36 976,-36 976,-36 970,-36 964,-30 964,-24 964,-24 964,-12 964,-12 964,-6 970,0 976,0 976,0 1006,0 1006,0 1012,0 1018,-6 1018,-12 1018,-12 1018,-24 1018,-24 1018,-30 1012,-36 1006,-36"/>
<text text-anchor="middle" x="991" y="-13.32" font-family="Helvetica,sans-Serif" font-size="14.00">(...)</text>
</g>
<!-- 15553&#45;&gt;15833 -->
<g id="edge23" class="edge">
<title>15553&#45;&gt;15833</title>
<path fill="none" stroke="black" d="M983.02,-71.75C984.28,-63.42 985.56,-54.97 986.71,-47.34"/>
<polygon fill="black" stroke="black" points="990.14,-48.08 988.17,-37.67 983.22,-47.03 990.14,-48.08"/>
</g>
<!-- 15899 -->
<g id="node26" class="node">
<title>15899</title>
<path fill="#add7f4" stroke="black" d="M1222,-166.25C1222,-166.25 1080,-166.25 1080,-166.25 1074,-166.25 1068,-160.25 1068,-154.25 1068,-154.25 1068,-84 1068,-84 1068,-78 1074,-72 1080,-72 1080,-72 1222,-72 1222,-72 1228,-72 1234,-78 1234,-84 1234,-84 1234,-154.25 1234,-154.25 1234,-160.25 1228,-166.25 1222,-166.25"/>
<text text-anchor="middle" x="1151" y="-148.95" font-family="Helvetica,sans-Serif" font-size="14.00">12_G &lt;= 0.5</text>
<text text-anchor="middle" x="1151" y="-131.7" font-family="Helvetica,sans-Serif" font-size="14.00">entropy = 0.951</text>
<text text-anchor="middle" x="1151" y="-114.45" font-family="Helvetica,sans-Serif" font-size="14.00">samples = 1768</text>
<text text-anchor="middle" x="1151" y="-97.2" font-family="Helvetica,sans-Serif" font-size="14.00">value = [1057, 1801]</text>
<text text-anchor="middle" x="1151" y="-79.95" font-family="Helvetica,sans-Serif" font-size="14.00">class = Plant</text>
</g>
<!-- 15898&#45;&gt;15899 -->
<g id="edge25" class="edge">
<title>15898&#45;&gt;15899</title>
<path fill="none" stroke="black" d="M1151,-202.07C1151,-194.17 1151,-185.88 1151,-177.73"/>
<polygon fill="black" stroke="black" points="1154.5,-177.87 1151,-167.87 1147.5,-177.87 1154.5,-177.87"/>
</g>
<!-- 16600 -->
<g id="node29" class="node">
<title>16600</title>
<path fill="#56abe9" stroke="black" d="M1397.5,-166.25C1397.5,-166.25 1264.5,-166.25 1264.5,-166.25 1258.5,-166.25 1252.5,-160.25 1252.5,-154.25 1252.5,-154.25 1252.5,-84 1252.5,-84 1252.5,-78 1258.5,-72 1264.5,-72 1264.5,-72 1397.5,-72 1397.5,-72 1403.5,-72 1409.5,-78 1409.5,-84 1409.5,-84 1409.5,-154.25 1409.5,-154.25 1409.5,-160.25 1403.5,-166.25 1397.5,-166.25"/>
<text text-anchor="middle" x="1331" y="-148.95" font-family="Helvetica,sans-Serif" font-size="14.00">7_C &lt;= 0.5</text>
<text text-anchor="middle" x="1331" y="-131.7" font-family="Helvetica,sans-Serif" font-size="14.00">entropy = 0.546</text>
<text text-anchor="middle" x="1331" y="-114.45" font-family="Helvetica,sans-Serif" font-size="14.00">samples = 1811</text>
<text text-anchor="middle" x="1331" y="-97.2" font-family="Helvetica,sans-Serif" font-size="14.00">value = [362, 2511]</text>
<text text-anchor="middle" x="1331" y="-79.95" font-family="Helvetica,sans-Serif" font-size="14.00">class = Plant</text>
</g>
<!-- 15898&#45;&gt;16600 -->
<g id="edge28" class="edge">
<title>15898&#45;&gt;16600</title>
<path fill="none" stroke="black" d="M1216.24,-201.89C1229.32,-192.57 1243.15,-182.72 1256.52,-173.19"/>
<polygon fill="black" stroke="black" points="1258.34,-176.2 1264.45,-167.54 1254.27,-170.49 1258.34,-176.2"/>
</g>
<!-- 15900 -->
<g id="node27" class="node">
<title>15900</title>
<path fill="#c0c0c0" stroke="black" d="M1130,-36C1130,-36 1100,-36 1100,-36 1094,-36 1088,-30 1088,-24 1088,-24 1088,-12 1088,-12 1088,-6 1094,0 1100,0 1100,0 1130,0 1130,0 1136,0 1142,-6 1142,-12 1142,-12 1142,-24 1142,-24 1142,-30 1136,-36 1130,-36"/>
<text text-anchor="middle" x="1115" y="-13.32" font-family="Helvetica,sans-Serif" font-size="14.00">(...)</text>
</g>
<!-- 15899&#45;&gt;15900 -->
<g id="edge26" class="edge">
<title>15899&#45;&gt;15900</title>
<path fill="none" stroke="black" d="M1134.16,-71.75C1131.06,-63.22 1127.92,-54.57 1125.1,-46.8"/>
<polygon fill="black" stroke="black" points="1128.46,-45.8 1121.75,-37.6 1121.88,-48.19 1128.46,-45.8"/>
</g>
<!-- 16431 -->
<g id="node28" class="node">
<title>16431</title>
<path fill="#c0c0c0" stroke="black" d="M1202,-36C1202,-36 1172,-36 1172,-36 1166,-36 1160,-30 1160,-24 1160,-24 1160,-12 1160,-12 1160,-6 1166,0 1172,0 1172,0 1202,0 1202,0 1208,0 1214,-6 1214,-12 1214,-12 1214,-24 1214,-24 1214,-30 1208,-36 1202,-36"/>
<text text-anchor="middle" x="1187" y="-13.32" font-family="Helvetica,sans-Serif" font-size="14.00">(...)</text>
</g>
<!-- 15899&#45;&gt;16431 -->
<g id="edge27" class="edge">
<title>15899&#45;&gt;16431</title>
<path fill="none" stroke="black" d="M1167.84,-71.75C1170.94,-63.22 1174.08,-54.57 1176.9,-46.8"/>
<polygon fill="black" stroke="black" points="1180.12,-48.19 1180.25,-37.6 1173.54,-45.8 1180.12,-48.19"/>
</g>
<!-- 16601 -->
<g id="node30" class="node">
<title>16601</title>
<path fill="#c0c0c0" stroke="black" d="M1310,-36C1310,-36 1280,-36 1280,-36 1274,-36 1268,-30 1268,-24 1268,-24 1268,-12 1268,-12 1268,-6 1274,0 1280,0 1280,0 1310,0 1310,0 1316,0 1322,-6 1322,-12 1322,-12 1322,-24 1322,-24 1322,-30 1316,-36 1310,-36"/>
<text text-anchor="middle" x="1295" y="-13.32" font-family="Helvetica,sans-Serif" font-size="14.00">(...)</text>
</g>
<!-- 16600&#45;&gt;16601 -->
<g id="edge29" class="edge">
<title>16600&#45;&gt;16601</title>
<path fill="none" stroke="black" d="M1314.16,-71.75C1311.06,-63.22 1307.92,-54.57 1305.1,-46.8"/>
<polygon fill="black" stroke="black" points="1308.46,-45.8 1301.75,-37.6 1301.88,-48.19 1308.46,-45.8"/>
</g>
<!-- 16790 -->
<g id="node31" class="node">
<title>16790</title>
<path fill="#c0c0c0" stroke="black" d="M1382,-36C1382,-36 1352,-36 1352,-36 1346,-36 1340,-30 1340,-24 1340,-24 1340,-12 1340,-12 1340,-6 1346,0 1352,0 1352,0 1382,0 1382,0 1388,0 1394,-6 1394,-12 1394,-12 1394,-24 1394,-24 1394,-30 1388,-36 1382,-36"/>
<text text-anchor="middle" x="1367" y="-13.32" font-family="Helvetica,sans-Serif" font-size="14.00">(...)</text>
</g>
<!-- 16600&#45;&gt;16790 -->
<g id="edge30" class="edge">
<title>16600&#45;&gt;16790</title>
<path fill="none" stroke="black" d="M1347.84,-71.75C1350.94,-63.22 1354.08,-54.57 1356.9,-46.8"/>
<polygon fill="black" stroke="black" points="1360.12,-48.19 1360.25,-37.6 1353.54,-45.8 1360.12,-48.19"/>
</g>
</g>
</svg>
