<?xml version="1.0" encoding="UTF-8" standalone="no"?>
<!DOCTYPE svg PUBLIC "-//W3C//DTD SVG 1.1//EN"
 "http://www.w3.org/Graphics/SVG/1.1/DTD/svg11.dtd">
<!-- Generated by graphviz version 12.0.0 (20240803.0821)
 -->
<!-- Title: Tree Pages: 1 -->
<svg width="1420pt" height="565pt"
 viewBox="0.00 0.00 1420.00 565.00" xmlns="http://www.w3.org/2000/svg" xmlns:xlink="http://www.w3.org/1999/xlink">
<g id="graph0" class="graph" transform="scale(1 1) rotate(0) translate(4 561)">
<title>Tree</title>
<polygon fill="white" stroke="none" points="-4,4 -4,-561 1416,-561 1416,4 -4,4"/>
<!-- 0 -->
<g id="node1" class="node">
<title>0</title>
<path fill="#fffefd" stroke="black" d="M817.5,-557C817.5,-557 657.5,-557 657.5,-557 651.5,-557 645.5,-551 645.5,-545 645.5,-545 645.5,-474.75 645.5,-474.75 645.5,-468.75 651.5,-462.75 657.5,-462.75 657.5,-462.75 817.5,-462.75 817.5,-462.75 823.5,-462.75 829.5,-468.75 829.5,-474.75 829.5,-474.75 829.5,-545 829.5,-545 829.5,-551 823.5,-557 817.5,-557"/>
<text text-anchor="middle" x="737.5" y="-539.7" font-family="Helvetica,sans-Serif" font-size="14.00">22_U &lt;= 0.5</text>
<text text-anchor="middle" x="737.5" y="-522.45" font-family="Helvetica,sans-Serif" font-size="14.00">entropy = 1.0</text>
<text text-anchor="middle" x="737.5" y="-505.2" font-family="Helvetica,sans-Serif" font-size="14.00">samples = 38092</text>
<text text-anchor="middle" x="737.5" y="-487.95" font-family="Helvetica,sans-Serif" font-size="14.00">value = [30291, 30054]</text>
<text text-anchor="middle" x="737.5" y="-470.7" font-family="Helvetica,sans-Serif" font-size="14.00">class = Animal</text>
</g>
<!-- 1 -->
<g id="node2" class="node">
<title>1</title>
<path fill="#deeefb" stroke="black" d="M639.5,-426.75C639.5,-426.75 479.5,-426.75 479.5,-426.75 473.5,-426.75 467.5,-420.75 467.5,-414.75 467.5,-414.75 467.5,-344.5 467.5,-344.5 467.5,-338.5 473.5,-332.5 479.5,-332.5 479.5,-332.5 639.5,-332.5 639.5,-332.5 645.5,-332.5 651.5,-338.5 651.5,-344.5 651.5,-344.5 651.5,-414.75 651.5,-414.75 651.5,-420.75 645.5,-426.75 639.5,-426.75"/>
<text text-anchor="middle" x="559.5" y="-409.45" font-family="Helvetica,sans-Serif" font-size="14.00">1_U &lt;= 0.5</text>
<text text-anchor="middle" x="559.5" y="-392.2" font-family="Helvetica,sans-Serif" font-size="14.00">entropy = 0.994</text>
<text text-anchor="middle" x="559.5" y="-374.95" font-family="Helvetica,sans-Serif" font-size="14.00">samples = 32980</text>
<text text-anchor="middle" x="559.5" y="-357.7" font-family="Helvetica,sans-Serif" font-size="14.00">value = [23724, 28537]</text>
<text text-anchor="middle" x="559.5" y="-340.45" font-family="Helvetica,sans-Serif" font-size="14.00">class = Plant</text>
</g>
<!-- 0&#45;&gt;1 -->
<g id="edge1" class="edge">
<title>0&#45;&gt;1</title>
<path fill="none" stroke="black" d="M672.99,-462.39C660.05,-453.07 646.37,-443.22 633.15,-433.69"/>
<polygon fill="black" stroke="black" points="635.48,-431.06 625.32,-428.05 631.39,-436.73 635.48,-431.06"/>
<text text-anchor="middle" x="628.1" y="-447.17" font-family="Helvetica,sans-Serif" font-size="14.00">True</text>
</g>
<!-- 15000 -->
<g id="node17" class="node">
<title>15000</title>
<path fill="#eb9e67" stroke="black" d="M988.5,-426.75C988.5,-426.75 846.5,-426.75 846.5,-426.75 840.5,-426.75 834.5,-420.75 834.5,-414.75 834.5,-414.75 834.5,-344.5 834.5,-344.5 834.5,-338.5 840.5,-332.5 846.5,-332.5 846.5,-332.5 988.5,-332.5 988.5,-332.5 994.5,-332.5 1000.5,-338.5 1000.5,-344.5 1000.5,-344.5 1000.5,-414.75 1000.5,-414.75 1000.5,-420.75 994.5,-426.75 988.5,-426.75"/>
<text text-anchor="middle" x="917.5" y="-409.45" font-family="Helvetica,sans-Serif" font-size="14.00">20_C &lt;= 0.5</text>
<text text-anchor="middle" x="917.5" y="-392.2" font-family="Helvetica,sans-Serif" font-size="14.00">entropy = 0.697</text>
<text text-anchor="middle" x="917.5" y="-374.95" font-family="Helvetica,sans-Serif" font-size="14.00">samples = 5112</text>
<text text-anchor="middle" x="917.5" y="-357.7" font-family="Helvetica,sans-Serif" font-size="14.00">value = [6567, 1517]</text>
<text text-anchor="middle" x="917.5" y="-340.45" font-family="Helvetica,sans-Serif" font-size="14.00">class = Animal</text>
</g>
<!-- 0&#45;&gt;15000 -->
<g id="edge16" class="edge">
<title>0&#45;&gt;15000</title>
<path fill="none" stroke="black" d="M802.74,-462.39C815.82,-453.07 829.65,-443.22 843.02,-433.69"/>
<polygon fill="black" stroke="black" points="844.84,-436.7 850.95,-428.04 840.77,-430.99 844.84,-436.7"/>
<text text-anchor="middle" x="848.04" y="-447.14" font-family="Helvetica,sans-Serif" font-size="14.00">False</text>
</g>
<!-- 2 -->
<g id="node3" class="node">
<title>2</title>
<path fill="#fbeade" stroke="black" d="M356.5,-296.5C356.5,-296.5 196.5,-296.5 196.5,-296.5 190.5,-296.5 184.5,-290.5 184.5,-284.5 184.5,-284.5 184.5,-214.25 184.5,-214.25 184.5,-208.25 190.5,-202.25 196.5,-202.25 196.5,-202.25 356.5,-202.25 356.5,-202.25 362.5,-202.25 368.5,-208.25 368.5,-214.25 368.5,-214.25 368.5,-284.5 368.5,-284.5 368.5,-290.5 362.5,-296.5 356.5,-296.5"/>
<text text-anchor="middle" x="276.5" y="-279.2" font-family="Helvetica,sans-Serif" font-size="14.00">19_C &lt;= 0.5</text>
<text text-anchor="middle" x="276.5" y="-261.95" font-family="Helvetica,sans-Serif" font-size="14.00">entropy = 0.994</text>
<text text-anchor="middle" x="276.5" y="-244.7" font-family="Helvetica,sans-Serif" font-size="14.00">samples = 15289</text>
<text text-anchor="middle" x="276.5" y="-227.45" font-family="Helvetica,sans-Serif" font-size="14.00">value = [13238, 11058]</text>
<text text-anchor="middle" x="276.5" y="-210.2" font-family="Helvetica,sans-Serif" font-size="14.00">class = Animal</text>
</g>
<!-- 1&#45;&gt;2 -->
<g id="edge2" class="edge">
<title>1&#45;&gt;2</title>
<path fill="none" stroke="black" d="M467.23,-336.81C438.95,-323.99 407.67,-309.82 378.76,-296.72"/>
<polygon fill="black" stroke="black" points="380.58,-293.7 370.03,-292.76 377.69,-300.08 380.58,-293.7"/>
</g>
<!-- 8405 -->
<g id="node10" class="node">
<title>8405</title>
<path fill="#b0d8f5" stroke="black" d="M639.5,-296.5C639.5,-296.5 479.5,-296.5 479.5,-296.5 473.5,-296.5 467.5,-290.5 467.5,-284.5 467.5,-284.5 467.5,-214.25 467.5,-214.25 467.5,-208.25 473.5,-202.25 479.5,-202.25 479.5,-202.25 639.5,-202.25 639.5,-202.25 645.5,-202.25 651.5,-208.25 651.5,-214.25 651.5,-214.25 651.5,-284.5 651.5,-284.5 651.5,-290.5 645.5,-296.5 639.5,-296.5"/>
<text text-anchor="middle" x="559.5" y="-279.2" font-family="Helvetica,sans-Serif" font-size="14.00">8_G &lt;= 0.5</text>
<text text-anchor="middle" x="559.5" y="-261.95" font-family="Helvetica,sans-Serif" font-size="14.00">entropy = 0.954</text>
<text text-anchor="middle" x="559.5" y="-244.7" font-family="Helvetica,sans-Serif" font-size="14.00">samples = 17691</text>
<text text-anchor="middle" x="559.5" y="-227.45" font-family="Helvetica,sans-Serif" font-size="14.00">value = [10486, 17479]</text>
<text text-anchor="middle" x="559.5" y="-210.2" font-family="Helvetica,sans-Serif" font-size="14.00">class = Plant</text>
</g>
<!-- 1&#45;&gt;8405 -->
<g id="edge9" class="edge">
<title>1&#45;&gt;8405</title>
<path fill="none" stroke="black" d="M559.5,-332.32C559.5,-324.42 559.5,-316.13 559.5,-307.98"/>
<polygon fill="black" stroke="black" points="563,-308.12 559.5,-298.12 556,-308.12 563,-308.12"/>
</g>
<!-- 3 -->
<g id="node4" class="node">
<title>3</title>
<path fill="#f7d7c0" stroke="black" d="M163,-166.25C163,-166.25 12,-166.25 12,-166.25 6,-166.25 0,-160.25 0,-154.25 0,-154.25 0,-84 0,-84 0,-78 6,-72 12,-72 12,-72 163,-72 163,-72 169,-72 175,-78 175,-84 175,-84 175,-154.25 175,-154.25 175,-160.25 169,-166.25 163,-166.25"/>
<text text-anchor="middle" x="87.5" y="-148.95" font-family="Helvetica,sans-Serif" font-size="14.00">18_U &lt;= 0.5</text>
<text text-anchor="middle" x="87.5" y="-131.7" font-family="Helvetica,sans-Serif" font-size="14.00">entropy = 0.974</text>
<text text-anchor="middle" x="87.5" y="-114.45" font-family="Helvetica,sans-Serif" font-size="14.00">samples = 10898</text>
<text text-anchor="middle" x="87.5" y="-97.2" font-family="Helvetica,sans-Serif" font-size="14.00">value = [10271, 7012]</text>
<text text-anchor="middle" x="87.5" y="-79.95" font-family="Helvetica,sans-Serif" font-size="14.00">class = Animal</text>
</g>
<!-- 2&#45;&gt;3 -->
<g id="edge3" class="edge">
<title>2&#45;&gt;3</title>
<path fill="none" stroke="black" d="M208,-201.89C194.13,-192.48 179.46,-182.53 165.3,-172.92"/>
<polygon fill="black" stroke="black" points="167.58,-170.23 157.34,-167.51 163.65,-176.03 167.58,-170.23"/>
</g>
<!-- 6264 -->
<g id="node7" class="node">
<title>6264</title>
<path fill="#cae5f8" stroke="black" d="M347.5,-166.25C347.5,-166.25 205.5,-166.25 205.5,-166.25 199.5,-166.25 193.5,-160.25 193.5,-154.25 193.5,-154.25 193.5,-84 193.5,-84 193.5,-78 199.5,-72 205.5,-72 205.5,-72 347.5,-72 347.5,-72 353.5,-72 359.5,-78 359.5,-84 359.5,-84 359.5,-154.25 359.5,-154.25 359.5,-160.25 353.5,-166.25 347.5,-166.25"/>
<text text-anchor="middle" x="276.5" y="-148.95" font-family="Helvetica,sans-Serif" font-size="14.00">7_C &lt;= 0.5</text>
<text text-anchor="middle" x="276.5" y="-131.7" font-family="Helvetica,sans-Serif" font-size="14.00">entropy = 0.983</text>
<text text-anchor="middle" x="276.5" y="-114.45" font-family="Helvetica,sans-Serif" font-size="14.00">samples = 4391</text>
<text text-anchor="middle" x="276.5" y="-97.2" font-family="Helvetica,sans-Serif" font-size="14.00">value = [2967, 4046]</text>
<text text-anchor="middle" x="276.5" y="-79.95" font-family="Helvetica,sans-Serif" font-size="14.00">class = Plant</text>
</g>
<!-- 2&#45;&gt;6264 -->
<g id="edge6" class="edge">
<title>2&#45;&gt;6264</title>
<path fill="none" stroke="black" d="M276.5,-202.07C276.5,-194.17 276.5,-185.88 276.5,-177.73"/>
<polygon fill="black" stroke="black" points="280,-177.87 276.5,-167.87 273,-177.87 280,-177.87"/>
</g>
<!-- 4 -->
<g id="node5" class="node">
<title>4</title>
<path fill="#c0c0c0" stroke="black" d="M66.5,-36C66.5,-36 36.5,-36 36.5,-36 30.5,-36 24.5,-30 24.5,-24 24.5,-24 24.5,-12 24.5,-12 24.5,-6 30.5,0 36.5,0 36.5,0 66.5,0 66.5,0 72.5,0 78.5,-6 78.5,-12 78.5,-12 78.5,-24 78.5,-24 78.5,-30 72.5,-36 66.5,-36"/>
<text text-anchor="middle" x="51.5" y="-13.32" font-family="Helvetica,sans-Serif" font-size="14.00">(...)</text>
</g>
<!-- 3&#45;&gt;4 -->
<g id="edge4" class="edge">
<title>3&#45;&gt;4</title>
<path fill="none" stroke="black" d="M70.66,-71.75C67.56,-63.22 64.42,-54.57 61.6,-46.8"/>
<polygon fill="black" stroke="black" points="64.96,-45.8 58.25,-37.6 58.38,-48.19 64.96,-45.8"/>
</g>
<!-- 4595 -->
<g id="node6" class="node">
<title>4595</title>
<path fill="#c0c0c0" stroke="black" d="M138.5,-36C138.5,-36 108.5,-36 108.5,-36 102.5,-36 96.5,-30 96.5,-24 96.5,-24 96.5,-12 96.5,-12 96.5,-6 102.5,0 108.5,0 108.5,0 138.5,0 138.5,0 144.5,0 150.5,-6 150.5,-12 150.5,-12 150.5,-24 150.5,-24 150.5,-30 144.5,-36 138.5,-36"/>
<text text-anchor="middle" x="123.5" y="-13.32" font-family="Helvetica,sans-Serif" font-size="14.00">(...)</text>
</g>
<!-- 3&#45;&gt;4595 -->
<g id="edge5" class="edge">
<title>3&#45;&gt;4595</title>
<path fill="none" stroke="black" d="M104.34,-71.75C107.44,-63.22 110.58,-54.57 113.4,-46.8"/>
<polygon fill="black" stroke="black" points="116.62,-48.19 116.75,-37.6 110.04,-45.8 116.62,-48.19"/>
</g>
<!-- 6265 -->
<g id="node8" class="node">
<title>6265</title>
<path fill="#c0c0c0" stroke="black" d="M264.5,-36C264.5,-36 234.5,-36 234.5,-36 228.5,-36 222.5,-30 222.5,-24 222.5,-24 222.5,-12 222.5,-12 222.5,-6 228.5,0 234.5,0 234.5,0 264.5,0 264.5,0 270.5,0 276.5,-6 276.5,-12 276.5,-12 276.5,-24 276.5,-24 276.5,-30 270.5,-36 264.5,-36"/>
<text text-anchor="middle" x="249.5" y="-13.32" font-family="Helvetica,sans-Serif" font-size="14.00">(...)</text>
</g>
<!-- 6264&#45;&gt;6265 -->
<g id="edge7" class="edge">
<title>6264&#45;&gt;6265</title>
<path fill="none" stroke="black" d="M263.87,-71.75C261.57,-63.32 259.24,-54.77 257.15,-47.07"/>
<polygon fill="black" stroke="black" points="260.58,-46.36 254.58,-37.63 253.83,-48.2 260.58,-46.36"/>
</g>
<!-- 7942 -->
<g id="node9" class="node">
<title>7942</title>
<path fill="#c0c0c0" stroke="black" d="M336.5,-36C336.5,-36 306.5,-36 306.5,-36 300.5,-36 294.5,-30 294.5,-24 294.5,-24 294.5,-12 294.5,-12 294.5,-6 300.5,0 306.5,0 306.5,0 336.5,0 336.5,0 342.5,0 348.5,-6 348.5,-12 348.5,-12 348.5,-24 348.5,-24 348.5,-30 342.5,-36 336.5,-36"/>
<text text-anchor="middle" x="321.5" y="-13.32" font-family="Helvetica,sans-Serif" font-size="14.00">(...)</text>
</g>
<!-- 6264&#45;&gt;7942 -->
<g id="edge8" class="edge">
<title>6264&#45;&gt;7942</title>
<path fill="none" stroke="black" d="M297.55,-71.75C301.47,-63.12 305.45,-54.36 309,-46.53"/>
<polygon fill="black" stroke="black" points="312.13,-48.1 313.08,-37.55 305.76,-45.21 312.13,-48.1"/>
</g>
<!-- 8406 -->
<g id="node11" class="node">
<title>8406</title>
<path fill="#d3e9f9" stroke="black" d="M541,-166.25C541,-166.25 390,-166.25 390,-166.25 384,-166.25 378,-160.25 378,-154.25 378,-154.25 378,-84 378,-84 378,-78 384,-72 390,-72 390,-72 541,-72 541,-72 547,-72 553,-78 553,-84 553,-84 553,-154.25 553,-154.25 553,-160.25 547,-166.25 541,-166.25"/>
<text text-anchor="middle" x="465.5" y="-148.95" font-family="Helvetica,sans-Serif" font-size="14.00">10_U &lt;= 0.5</text>
<text text-anchor="middle" x="465.5" y="-131.7" font-family="Helvetica,sans-Serif" font-size="14.00">entropy = 0.989</text>
<text text-anchor="middle" x="465.5" y="-114.45" font-family="Helvetica,sans-Serif" font-size="14.00">samples = 11645</text>
<text text-anchor="middle" x="465.5" y="-97.2" font-family="Helvetica,sans-Serif" font-size="14.00">value = [8055, 10352]</text>
<text text-anchor="middle" x="465.5" y="-79.95" font-family="Helvetica,sans-Serif" font-size="14.00">class = Plant</text>
</g>
<!-- 8405&#45;&gt;8406 -->
<g id="edge10" class="edge">
<title>8405&#45;&gt;8406</title>
<path fill="none" stroke="black" d="M525.56,-202.07C519.24,-193.45 512.58,-184.35 506.08,-175.49"/>
<polygon fill="black" stroke="black" points="509.02,-173.58 500.28,-167.58 503.37,-177.71 509.02,-173.58"/>
</g>
<!-- 13245 -->
<g id="node14" class="node">
<title>13245</title>
<path fill="#7dbeee" stroke="black" d="M725.5,-166.25C725.5,-166.25 583.5,-166.25 583.5,-166.25 577.5,-166.25 571.5,-160.25 571.5,-154.25 571.5,-154.25 571.5,-84 571.5,-84 571.5,-78 577.5,-72 583.5,-72 583.5,-72 725.5,-72 725.5,-72 731.5,-72 737.5,-78 737.5,-84 737.5,-84 737.5,-154.25 737.5,-154.25 737.5,-160.25 731.5,-166.25 725.5,-166.25"/>
<text text-anchor="middle" x="654.5" y="-148.95" font-family="Helvetica,sans-Serif" font-size="14.00">22_G &lt;= 0.5</text>
<text text-anchor="middle" x="654.5" y="-131.7" font-family="Helvetica,sans-Serif" font-size="14.00">entropy = 0.818</text>
<text text-anchor="middle" x="654.5" y="-114.45" font-family="Helvetica,sans-Serif" font-size="14.00">samples = 6046</text>
<text text-anchor="middle" x="654.5" y="-97.2" font-family="Helvetica,sans-Serif" font-size="14.00">value = [2431, 7127]</text>
<text text-anchor="middle" x="654.5" y="-79.95" font-family="Helvetica,sans-Serif" font-size="14.00">class = Plant</text>
</g>
<!-- 8405&#45;&gt;13245 -->
<g id="edge13" class="edge">
<title>8405&#45;&gt;13245</title>
<path fill="none" stroke="black" d="M593.8,-202.07C600.19,-193.45 606.92,-184.35 613.49,-175.49"/>
<polygon fill="black" stroke="black" points="616.21,-177.69 619.35,-167.57 610.59,-173.53 616.21,-177.69"/>
</g>
<!-- 8407 -->
<g id="node12" class="node">
<title>8407</title>
<path fill="#c0c0c0" stroke="black" d="M430.5,-36C430.5,-36 400.5,-36 400.5,-36 394.5,-36 388.5,-30 388.5,-24 388.5,-24 388.5,-12 388.5,-12 388.5,-6 394.5,0 400.5,0 400.5,0 430.5,0 430.5,0 436.5,0 442.5,-6 442.5,-12 442.5,-12 442.5,-24 442.5,-24 442.5,-30 436.5,-36 430.5,-36"/>
<text text-anchor="middle" x="415.5" y="-13.32" font-family="Helvetica,sans-Serif" font-size="14.00">(...)</text>
</g>
<!-- 8406&#45;&gt;8407 -->
<g id="edge11" class="edge">
<title>8406&#45;&gt;8407</title>
<path fill="none" stroke="black" d="M442.11,-71.75C437.71,-63.03 433.24,-54.16 429.25,-46.26"/>
<polygon fill="black" stroke="black" points="432.47,-44.88 424.84,-37.52 426.22,-48.03 432.47,-44.88"/>
</g>
<!-- 12006 -->
<g id="node13" class="node">
<title>12006</title>
<path fill="#c0c0c0" stroke="black" d="M502.5,-36C502.5,-36 472.5,-36 472.5,-36 466.5,-36 460.5,-30 460.5,-24 460.5,-24 460.5,-12 460.5,-12 460.5,-6 466.5,0 472.5,0 472.5,0 502.5,0 502.5,0 508.5,0 514.5,-6 514.5,-12 514.5,-12 514.5,-24 514.5,-24 514.5,-30 508.5,-36 502.5,-36"/>
<text text-anchor="middle" x="487.5" y="-13.32" font-family="Helvetica,sans-Serif" font-size="14.00">(...)</text>
</g>
<!-- 8406&#45;&gt;12006 -->
<g id="edge12" class="edge">
<title>8406&#45;&gt;12006</title>
<path fill="none" stroke="black" d="M475.79,-71.75C477.64,-63.42 479.52,-54.97 481.21,-47.34"/>
<polygon fill="black" stroke="black" points="484.61,-48.17 483.36,-37.65 477.78,-46.65 484.61,-48.17"/>
</g>
<!-- 13246 -->
<g id="node15" class="node">
<title>13246</title>
<path fill="#c0c0c0" stroke="black" d="M615.5,-36C615.5,-36 585.5,-36 585.5,-36 579.5,-36 573.5,-30 573.5,-24 573.5,-24 573.5,-12 573.5,-12 573.5,-6 579.5,0 585.5,0 585.5,0 615.5,0 615.5,0 621.5,0 627.5,-6 627.5,-12 627.5,-12 627.5,-24 627.5,-24 627.5,-30 621.5,-36 615.5,-36"/>
<text text-anchor="middle" x="600.5" y="-13.32" font-family="Helvetica,sans-Serif" font-size="14.00">(...)</text>
</g>
<!-- 13245&#45;&gt;13246 -->
<g id="edge14" class="edge">
<title>13245&#45;&gt;13246</title>
<path fill="none" stroke="black" d="M629.24,-71.75C624.48,-63.03 619.66,-54.16 615.35,-46.26"/>
<polygon fill="black" stroke="black" points="618.44,-44.61 610.58,-37.5 612.29,-47.96 618.44,-44.61"/>
</g>
<!-- 14745 -->
<g id="node16" class="node">
<title>14745</title>
<path fill="#c0c0c0" stroke="black" d="M687.5,-36C687.5,-36 657.5,-36 657.5,-36 651.5,-36 645.5,-30 645.5,-24 645.5,-24 645.5,-12 645.5,-12 645.5,-6 651.5,0 657.5,0 657.5,0 687.5,0 687.5,0 693.5,0 699.5,-6 699.5,-12 699.5,-12 699.5,-24 699.5,-24 699.5,-30 693.5,-36 687.5,-36"/>
<text text-anchor="middle" x="672.5" y="-13.32" font-family="Helvetica,sans-Serif" font-size="14.00">(...)</text>
</g>
<!-- 13245&#45;&gt;14745 -->
<g id="edge15" class="edge">
<title>13245&#45;&gt;14745</title>
<path fill="none" stroke="black" d="M662.92,-71.75C664.43,-63.42 665.97,-54.97 667.35,-47.34"/>
<polygon fill="black" stroke="black" points="670.77,-48.13 669.11,-37.66 663.88,-46.88 670.77,-48.13"/>
</g>
<!-- 15001 -->
<g id="node18" class="node">
<title>15001</title>
<path fill="#ea9b62" stroke="black" d="M988.5,-296.5C988.5,-296.5 846.5,-296.5 846.5,-296.5 840.5,-296.5 834.5,-290.5 834.5,-284.5 834.5,-284.5 834.5,-214.25 834.5,-214.25 834.5,-208.25 840.5,-202.25 846.5,-202.25 846.5,-202.25 988.5,-202.25 988.5,-202.25 994.5,-202.25 1000.5,-208.25 1000.5,-214.25 1000.5,-214.25 1000.5,-284.5 1000.5,-284.5 1000.5,-290.5 994.5,-296.5 988.5,-296.5"/>
<text text-anchor="middle" x="917.5" y="-279.2" font-family="Helvetica,sans-Serif" font-size="14.00">8_A &lt;= 0.5</text>
<text text-anchor="middle" x="917.5" y="-261.95" font-family="Helvetica,sans-Serif" font-size="14.00">entropy = 0.662</text>
<text text-anchor="middle" x="917.5" y="-244.7" font-family="Helvetica,sans-Serif" font-size="14.00">samples = 4110</text>
<text text-anchor="middle" x="917.5" y="-227.45" font-family="Helvetica,sans-Serif" font-size="14.00">value = [5379, 1115]</text>
<text text-anchor="middle" x="917.5" y="-210.2" font-family="Helvetica,sans-Serif" font-size="14.00">class = Animal</text>
</g>
<!-- 15000&#45;&gt;15001 -->
<g id="edge17" class="edge">
<title>15000&#45;&gt;15001</title>
<path fill="none" stroke="black" d="M917.5,-332.32C917.5,-324.42 917.5,-316.13 917.5,-307.98"/>
<polygon fill="black" stroke="black" points="921,-308.12 917.5,-298.12 914,-308.12 921,-308.12"/>
</g>
<!-- 16484 -->
<g id="node25" class="node">
<title>16484</title>
<path fill="#eeac7c" stroke="black" d="M1247,-296.5C1247,-296.5 1114,-296.5 1114,-296.5 1108,-296.5 1102,-290.5 1102,-284.5 1102,-284.5 1102,-214.25 1102,-214.25 1102,-208.25 1108,-202.25 1114,-202.25 1114,-202.25 1247,-202.25 1247,-202.25 1253,-202.25 1259,-208.25 1259,-214.25 1259,-214.25 1259,-284.5 1259,-284.5 1259,-290.5 1253,-296.5 1247,-296.5"/>
<text text-anchor="middle" x="1180.5" y="-279.2" font-family="Helvetica,sans-Serif" font-size="14.00">8_C &lt;= 0.5</text>
<text text-anchor="middle" x="1180.5" y="-261.95" font-family="Helvetica,sans-Serif" font-size="14.00">entropy = 0.816</text>
<text text-anchor="middle" x="1180.5" y="-244.7" font-family="Helvetica,sans-Serif" font-size="14.00">samples = 1002</text>
<text text-anchor="middle" x="1180.5" y="-227.45" font-family="Helvetica,sans-Serif" font-size="14.00">value = [1188, 402]</text>
<text text-anchor="middle" x="1180.5" y="-210.2" font-family="Helvetica,sans-Serif" font-size="14.00">class = Animal</text>
</g>
<!-- 15000&#45;&gt;16484 -->
<g id="edge24" class="edge">
<title>15000&#45;&gt;16484</title>
<path fill="none" stroke="black" d="M1000.71,-338.05C1029.66,-323.93 1062.22,-308.05 1091.61,-293.72"/>
<polygon fill="black" stroke="black" points="1093.04,-296.92 1100.5,-289.39 1089.98,-290.62 1093.04,-296.92"/>
</g>
<!-- 15002 -->
<g id="node19" class="node">
<title>15002</title>
<path fill="#e9965a" stroke="black" d="M901,-166.25C901,-166.25 768,-166.25 768,-166.25 762,-166.25 756,-160.25 756,-154.25 756,-154.25 756,-84 756,-84 756,-78 762,-72 768,-72 768,-72 901,-72 901,-72 907,-72 913,-78 913,-84 913,-84 913,-154.25 913,-154.25 913,-160.25 907,-166.25 901,-166.25"/>
<text text-anchor="middle" x="834.5" y="-148.95" font-family="Helvetica,sans-Serif" font-size="14.00">13_U &lt;= 0.5</text>
<text text-anchor="middle" x="834.5" y="-131.7" font-family="Helvetica,sans-Serif" font-size="14.00">entropy = 0.591</text>
<text text-anchor="middle" x="834.5" y="-114.45" font-family="Helvetica,sans-Serif" font-size="14.00">samples = 3089</text>
<text text-anchor="middle" x="834.5" y="-97.2" font-family="Helvetica,sans-Serif" font-size="14.00">value = [4142, 688]</text>
<text text-anchor="middle" x="834.5" y="-79.95" font-family="Helvetica,sans-Serif" font-size="14.00">class = Animal</text>
</g>
<!-- 15001&#45;&gt;15002 -->
<g id="edge18" class="edge">
<title>15001&#45;&gt;15002</title>
<path fill="none" stroke="black" d="M887.54,-202.07C882.01,-193.54 876.19,-184.54 870.51,-175.77"/>
<polygon fill="black" stroke="black" points="873.61,-174.12 865.24,-167.63 867.74,-177.93 873.61,-174.12"/>
</g>
<!-- 16063 -->
<g id="node22" class="node">
<title>16063</title>
<path fill="#eeac7d" stroke="black" d="M1076,-166.25C1076,-166.25 943,-166.25 943,-166.25 937,-166.25 931,-160.25 931,-154.25 931,-154.25 931,-84 931,-84 931,-78 937,-72 943,-72 943,-72 1076,-72 1076,-72 1082,-72 1088,-78 1088,-84 1088,-84 1088,-154.25 1088,-154.25 1088,-160.25 1082,-166.25 1076,-166.25"/>
<text text-anchor="middle" x="1009.5" y="-148.95" font-family="Helvetica,sans-Serif" font-size="14.00">20_A &lt;= 0.5</text>
<text text-anchor="middle" x="1009.5" y="-131.7" font-family="Helvetica,sans-Serif" font-size="14.00">entropy = 0.822</text>
<text text-anchor="middle" x="1009.5" y="-114.45" font-family="Helvetica,sans-Serif" font-size="14.00">samples = 1021</text>
<text text-anchor="middle" x="1009.5" y="-97.2" font-family="Helvetica,sans-Serif" font-size="14.00">value = [1237, 427]</text>
<text text-anchor="middle" x="1009.5" y="-79.95" font-family="Helvetica,sans-Serif" font-size="14.00">class = Animal</text>
</g>
<!-- 15001&#45;&gt;16063 -->
<g id="edge21" class="edge">
<title>15001&#45;&gt;16063</title>
<path fill="none" stroke="black" d="M950.71,-202.07C956.9,-193.45 963.43,-184.35 969.79,-175.49"/>
<polygon fill="black" stroke="black" points="972.47,-177.75 975.45,-167.59 966.78,-173.67 972.47,-177.75"/>
</g>
<!-- 15003 -->
<g id="node20" class="node">
<title>15003</title>
<path fill="#c0c0c0" stroke="black" d="M792.5,-36C792.5,-36 762.5,-36 762.5,-36 756.5,-36 750.5,-30 750.5,-24 750.5,-24 750.5,-12 750.5,-12 750.5,-6 756.5,0 762.5,0 762.5,0 792.5,0 792.5,0 798.5,0 804.5,-6 804.5,-12 804.5,-12 804.5,-24 804.5,-24 804.5,-30 798.5,-36 792.5,-36"/>
<text text-anchor="middle" x="777.5" y="-13.32" font-family="Helvetica,sans-Serif" font-size="14.00">(...)</text>
</g>
<!-- 15002&#45;&gt;15003 -->
<g id="edge19" class="edge">
<title>15002&#45;&gt;15003</title>
<path fill="none" stroke="black" d="M807.84,-71.75C802.76,-62.93 797.6,-53.96 793.02,-45.99"/>
<polygon fill="black" stroke="black" points="796.15,-44.41 788.13,-37.48 790.08,-47.9 796.15,-44.41"/>
</g>
<!-- 15728 -->
<g id="node21" class="node">
<title>15728</title>
<path fill="#c0c0c0" stroke="black" d="M864.5,-36C864.5,-36 834.5,-36 834.5,-36 828.5,-36 822.5,-30 822.5,-24 822.5,-24 822.5,-12 822.5,-12 822.5,-6 828.5,0 834.5,0 834.5,0 864.5,0 864.5,0 870.5,0 876.5,-6 876.5,-12 876.5,-12 876.5,-24 876.5,-24 876.5,-30 870.5,-36 864.5,-36"/>
<text text-anchor="middle" x="849.5" y="-13.32" font-family="Helvetica,sans-Serif" font-size="14.00">(...)</text>
</g>
<!-- 15002&#45;&gt;15728 -->
<g id="edge20" class="edge">
<title>15002&#45;&gt;15728</title>
<path fill="none" stroke="black" d="M841.52,-71.75C842.78,-63.42 844.06,-54.97 845.21,-47.34"/>
<polygon fill="black" stroke="black" points="848.64,-48.08 846.67,-37.67 841.72,-47.03 848.64,-48.08"/>
</g>
<!-- 16064 -->
<g id="node23" class="node">
<title>16064</title>
<path fill="#c0c0c0" stroke="black" d="M965.5,-36C965.5,-36 935.5,-36 935.5,-36 929.5,-36 923.5,-30 923.5,-24 923.5,-24 923.5,-12 923.5,-12 923.5,-6 929.5,0 935.5,0 935.5,0 965.5,0 965.5,0 971.5,0 977.5,-6 977.5,-12 977.5,-12 977.5,-24 977.5,-24 977.5,-30 971.5,-36 965.5,-36"/>
<text text-anchor="middle" x="950.5" y="-13.32" font-family="Helvetica,sans-Serif" font-size="14.00">(...)</text>
</g>
<!-- 16063&#45;&gt;16064 -->
<g id="edge22" class="edge">
<title>16063&#45;&gt;16064</title>
<path fill="none" stroke="black" d="M981.9,-71.75C976.65,-62.93 971.31,-53.96 966.56,-45.99"/>
<polygon fill="black" stroke="black" points="969.62,-44.28 961.5,-37.47 963.6,-47.86 969.62,-44.28"/>
</g>
<!-- 16351 -->
<g id="node24" class="node">
<title>16351</title>
<path fill="#c0c0c0" stroke="black" d="M1037.5,-36C1037.5,-36 1007.5,-36 1007.5,-36 1001.5,-36 995.5,-30 995.5,-24 995.5,-24 995.5,-12 995.5,-12 995.5,-6 1001.5,0 1007.5,0 1007.5,0 1037.5,0 1037.5,0 1043.5,0 1049.5,-6 1049.5,-12 1049.5,-12 1049.5,-24 1049.5,-24 1049.5,-30 1043.5,-36 1037.5,-36"/>
<text text-anchor="middle" x="1022.5" y="-13.32" font-family="Helvetica,sans-Serif" font-size="14.00">(...)</text>
</g>
<!-- 16063&#45;&gt;16351 -->
<g id="edge23" class="edge">
<title>16063&#45;&gt;16351</title>
<path fill="none" stroke="black" d="M1015.58,-71.75C1016.67,-63.42 1017.78,-54.97 1018.78,-47.34"/>
<polygon fill="black" stroke="black" points="1022.22,-48.04 1020.05,-37.67 1015.28,-47.13 1022.22,-48.04"/>
</g>
<!-- 16485 -->
<g id="node26" class="node">
<title>16485</title>
<path fill="#efb083" stroke="black" d="M1242.5,-166.25C1242.5,-166.25 1118.5,-166.25 1118.5,-166.25 1112.5,-166.25 1106.5,-160.25 1106.5,-154.25 1106.5,-154.25 1106.5,-84 1106.5,-84 1106.5,-78 1112.5,-72 1118.5,-72 1118.5,-72 1242.5,-72 1242.5,-72 1248.5,-72 1254.5,-78 1254.5,-84 1254.5,-84 1254.5,-154.25 1254.5,-154.25 1254.5,-160.25 1248.5,-166.25 1242.5,-166.25"/>
<text text-anchor="middle" x="1180.5" y="-148.95" font-family="Helvetica,sans-Serif" font-size="14.00">21_C &lt;= 0.5</text>
<text text-anchor="middle" x="1180.5" y="-131.7" font-family="Helvetica,sans-Serif" font-size="14.00">entropy = 0.846</text>
<text text-anchor="middle" x="1180.5" y="-114.45" font-family="Helvetica,sans-Serif" font-size="14.00">samples = 770</text>
<text text-anchor="middle" x="1180.5" y="-97.2" font-family="Helvetica,sans-Serif" font-size="14.00">value = [897, 337]</text>
<text text-anchor="middle" x="1180.5" y="-79.95" font-family="Helvetica,sans-Serif" font-size="14.00">class = Animal</text>
</g>
<!-- 16484&#45;&gt;16485 -->
<g id="edge25" class="edge">
<title>16484&#45;&gt;16485</title>
<path fill="none" stroke="black" d="M1180.5,-202.07C1180.5,-194.17 1180.5,-185.88 1180.5,-177.73"/>
<polygon fill="black" stroke="black" points="1184,-177.87 1180.5,-167.87 1177,-177.87 1184,-177.87"/>
</g>
<!-- 16832 -->
<g id="node29" class="node">
<title>16832</title>
<path fill="#eb9d65" stroke="black" d="M1400,-166.25C1400,-166.25 1285,-166.25 1285,-166.25 1279,-166.25 1273,-160.25 1273,-154.25 1273,-154.25 1273,-84 1273,-84 1273,-78 1279,-72 1285,-72 1285,-72 1400,-72 1400,-72 1406,-72 1412,-78 1412,-84 1412,-84 1412,-154.25 1412,-154.25 1412,-160.25 1406,-166.25 1400,-166.25"/>
<text text-anchor="middle" x="1342.5" y="-148.95" font-family="Helvetica,sans-Serif" font-size="14.00">12_A &lt;= 0.5</text>
<text text-anchor="middle" x="1342.5" y="-131.7" font-family="Helvetica,sans-Serif" font-size="14.00">entropy = 0.686</text>
<text text-anchor="middle" x="1342.5" y="-114.45" font-family="Helvetica,sans-Serif" font-size="14.00">samples = 232</text>
<text text-anchor="middle" x="1342.5" y="-97.2" font-family="Helvetica,sans-Serif" font-size="14.00">value = [291, 65]</text>
<text text-anchor="middle" x="1342.5" y="-79.95" font-family="Helvetica,sans-Serif" font-size="14.00">class = Animal</text>
</g>
<!-- 16484&#45;&gt;16832 -->
<g id="edge28" class="edge">
<title>16484&#45;&gt;16832</title>
<path fill="none" stroke="black" d="M1238.99,-202.07C1250.61,-192.87 1262.91,-183.13 1274.82,-173.71"/>
<polygon fill="black" stroke="black" points="1276.97,-176.46 1282.64,-167.51 1272.63,-170.98 1276.97,-176.46"/>
</g>
<!-- 16486 -->
<g id="node27" class="node">
<title>16486</title>
<path fill="#c0c0c0" stroke="black" d="M1150.5,-36C1150.5,-36 1120.5,-36 1120.5,-36 1114.5,-36 1108.5,-30 1108.5,-24 1108.5,-24 1108.5,-12 1108.5,-12 1108.5,-6 1114.5,0 1120.5,0 1120.5,0 1150.5,0 1150.5,0 1156.5,0 1162.5,-6 1162.5,-12 1162.5,-12 1162.5,-24 1162.5,-24 1162.5,-30 1156.5,-36 1150.5,-36"/>
<text text-anchor="middle" x="1135.5" y="-13.32" font-family="Helvetica,sans-Serif" font-size="14.00">(...)</text>
</g>
<!-- 16485&#45;&gt;16486 -->
<g id="edge26" class="edge">
<title>16485&#45;&gt;16486</title>
<path fill="none" stroke="black" d="M1159.45,-71.75C1155.53,-63.12 1151.55,-54.36 1148,-46.53"/>
<polygon fill="black" stroke="black" points="1151.24,-45.21 1143.92,-37.55 1144.87,-48.1 1151.24,-45.21"/>
</g>
<!-- 16743 -->
<g id="node28" class="node">
<title>16743</title>
<path fill="#c0c0c0" stroke="black" d="M1222.5,-36C1222.5,-36 1192.5,-36 1192.5,-36 1186.5,-36 1180.5,-30 1180.5,-24 1180.5,-24 1180.5,-12 1180.5,-12 1180.5,-6 1186.5,0 1192.5,0 1192.5,0 1222.5,0 1222.5,0 1228.5,0 1234.5,-6 1234.5,-12 1234.5,-12 1234.5,-24 1234.5,-24 1234.5,-30 1228.5,-36 1222.5,-36"/>
<text text-anchor="middle" x="1207.5" y="-13.32" font-family="Helvetica,sans-Serif" font-size="14.00">(...)</text>
</g>
<!-- 16485&#45;&gt;16743 -->
<g id="edge27" class="edge">
<title>16485&#45;&gt;16743</title>
<path fill="none" stroke="black" d="M1193.13,-71.75C1195.43,-63.32 1197.76,-54.77 1199.85,-47.07"/>
<polygon fill="black" stroke="black" points="1203.17,-48.2 1202.42,-37.63 1196.42,-46.36 1203.17,-48.2"/>
</g>
<!-- 16833 -->
<g id="node30" class="node">
<title>16833</title>
<path fill="#c0c0c0" stroke="black" d="M1321.5,-36C1321.5,-36 1291.5,-36 1291.5,-36 1285.5,-36 1279.5,-30 1279.5,-24 1279.5,-24 1279.5,-12 1279.5,-12 1279.5,-6 1285.5,0 1291.5,0 1291.5,0 1321.5,0 1321.5,0 1327.5,0 1333.5,-6 1333.5,-12 1333.5,-12 1333.5,-24 1333.5,-24 1333.5,-30 1327.5,-36 1321.5,-36"/>
<text text-anchor="middle" x="1306.5" y="-13.32" font-family="Helvetica,sans-Serif" font-size="14.00">(...)</text>
</g>
<!-- 16832&#45;&gt;16833 -->
<g id="edge29" class="edge">
<title>16832&#45;&gt;16833</title>
<path fill="none" stroke="black" d="M1325.66,-71.75C1322.56,-63.22 1319.42,-54.57 1316.6,-46.8"/>
<polygon fill="black" stroke="black" points="1319.96,-45.8 1313.25,-37.6 1313.38,-48.19 1319.96,-45.8"/>
</g>
<!-- 16924 -->
<g id="node31" class="node">
<title>16924</title>
<path fill="#c0c0c0" stroke="black" d="M1393.5,-36C1393.5,-36 1363.5,-36 1363.5,-36 1357.5,-36 1351.5,-30 1351.5,-24 1351.5,-24 1351.5,-12 1351.5,-12 1351.5,-6 1357.5,0 1363.5,0 1363.5,0 1393.5,0 1393.5,0 1399.5,0 1405.5,-6 1405.5,-12 1405.5,-12 1405.5,-24 1405.5,-24 1405.5,-30 1399.5,-36 1393.5,-36"/>
<text text-anchor="middle" x="1378.5" y="-13.32" font-family="Helvetica,sans-Serif" font-size="14.00">(...)</text>
</g>
<!-- 16832&#45;&gt;16924 -->
<g id="edge30" class="edge">
<title>16832&#45;&gt;16924</title>
<path fill="none" stroke="black" d="M1359.34,-71.75C1362.44,-63.22 1365.58,-54.57 1368.4,-46.8"/>
<polygon fill="black" stroke="black" points="1371.62,-48.19 1371.75,-37.6 1365.04,-45.8 1371.62,-48.19"/>
</g>
</g>
</svg>
