<?xml version="1.0" encoding="UTF-8" standalone="no"?>
<!DOCTYPE svg PUBLIC "-//W3C//DTD SVG 1.1//EN"
 "http://www.w3.org/Graphics/SVG/1.1/DTD/svg11.dtd">
<!-- Generated by graphviz version 12.0.0 (20240803.0821)
 -->
<!-- Title: Tree Pages: 1 -->
<svg width="1384pt" height="565pt"
 viewBox="0.00 0.00 1384.00 565.00" xmlns="http://www.w3.org/2000/svg" xmlns:xlink="http://www.w3.org/1999/xlink">
<g id="graph0" class="graph" transform="scale(1 1) rotate(0) translate(4 561)">
<title>Tree</title>
<polygon fill="white" stroke="none" points="-4,4 -4,-561 1380,-561 1380,4 -4,4"/>
<!-- 0 -->
<g id="node1" class="node">
<title>0</title>
<path fill="#fffffe" stroke="black" d="M810,-557C810,-557 650,-557 650,-557 644,-557 638,-551 638,-545 638,-545 638,-474.75 638,-474.75 638,-468.75 644,-462.75 650,-462.75 650,-462.75 810,-462.75 810,-462.75 816,-462.75 822,-468.75 822,-474.75 822,-474.75 822,-545 822,-545 822,-551 816,-557 810,-557"/>
<text text-anchor="middle" x="730" y="-539.7" font-family="Helvetica,sans-Serif" font-size="14.00">23_U &lt;= 0.5</text>
<text text-anchor="middle" x="730" y="-522.45" font-family="Helvetica,sans-Serif" font-size="14.00">entropy = 1.0</text>
<text text-anchor="middle" x="730" y="-505.2" font-family="Helvetica,sans-Serif" font-size="14.00">samples = 38198</text>
<text text-anchor="middle" x="730" y="-487.95" font-family="Helvetica,sans-Serif" font-size="14.00">value = [30224, 30121]</text>
<text text-anchor="middle" x="730" y="-470.7" font-family="Helvetica,sans-Serif" font-size="14.00">class = Animal</text>
</g>
<!-- 1 -->
<g id="node2" class="node">
<title>1</title>
<path fill="#f2f9fd" stroke="black" d="M635,-426.75C635,-426.75 475,-426.75 475,-426.75 469,-426.75 463,-420.75 463,-414.75 463,-414.75 463,-344.5 463,-344.5 463,-338.5 469,-332.5 475,-332.5 475,-332.5 635,-332.5 635,-332.5 641,-332.5 647,-338.5 647,-344.5 647,-344.5 647,-414.75 647,-414.75 647,-420.75 641,-426.75 635,-426.75"/>
<text text-anchor="middle" x="555" y="-409.45" font-family="Helvetica,sans-Serif" font-size="14.00">18_C &lt;= 0.5</text>
<text text-anchor="middle" x="555" y="-392.2" font-family="Helvetica,sans-Serif" font-size="14.00">entropy = 0.999</text>
<text text-anchor="middle" x="555" y="-374.95" font-family="Helvetica,sans-Serif" font-size="14.00">samples = 36211</text>
<text text-anchor="middle" x="555" y="-357.7" font-family="Helvetica,sans-Serif" font-size="14.00">value = [27651, 29577]</text>
<text text-anchor="middle" x="555" y="-340.45" font-family="Helvetica,sans-Serif" font-size="14.00">class = Plant</text>
</g>
<!-- 0&#45;&gt;1 -->
<g id="edge1" class="edge">
<title>0&#45;&gt;1</title>
<path fill="none" stroke="black" d="M666.82,-462.57C654.01,-453.19 640.45,-443.25 627.36,-433.65"/>
<polygon fill="black" stroke="black" points="629.74,-431.06 619.6,-427.97 625.6,-436.7 629.74,-431.06"/>
<text text-anchor="middle" x="622.19" y="-447.11" font-family="Helvetica,sans-Serif" font-size="14.00">True</text>
</g>
<!-- 16288 -->
<g id="node17" class="node">
<title>16288</title>
<path fill="#ea9c63" stroke="black" d="M972.5,-426.75C972.5,-426.75 839.5,-426.75 839.5,-426.75 833.5,-426.75 827.5,-420.75 827.5,-414.75 827.5,-414.75 827.5,-344.5 827.5,-344.5 827.5,-338.5 833.5,-332.5 839.5,-332.5 839.5,-332.5 972.5,-332.5 972.5,-332.5 978.5,-332.5 984.5,-338.5 984.5,-344.5 984.5,-344.5 984.5,-414.75 984.5,-414.75 984.5,-420.75 978.5,-426.75 972.5,-426.75"/>
<text text-anchor="middle" x="906" y="-409.45" font-family="Helvetica,sans-Serif" font-size="14.00">24_G &lt;= 0.5</text>
<text text-anchor="middle" x="906" y="-392.2" font-family="Helvetica,sans-Serif" font-size="14.00">entropy = 0.668</text>
<text text-anchor="middle" x="906" y="-374.95" font-family="Helvetica,sans-Serif" font-size="14.00">samples = 1987</text>
<text text-anchor="middle" x="906" y="-357.7" font-family="Helvetica,sans-Serif" font-size="14.00">value = [2573, 544]</text>
<text text-anchor="middle" x="906" y="-340.45" font-family="Helvetica,sans-Serif" font-size="14.00">class = Animal</text>
</g>
<!-- 0&#45;&gt;16288 -->
<g id="edge16" class="edge">
<title>0&#45;&gt;16288</title>
<path fill="none" stroke="black" d="M793.54,-462.57C806.42,-453.19 820.06,-443.25 833.23,-433.65"/>
<polygon fill="black" stroke="black" points="835.01,-436.68 841.03,-427.96 830.89,-431.03 835.01,-436.68"/>
<text text-anchor="middle" x="838.38" y="-447.1" font-family="Helvetica,sans-Serif" font-size="14.00">False</text>
</g>
<!-- 2 -->
<g id="node3" class="node">
<title>2</title>
<path fill="#fdf5f0" stroke="black" d="M361,-296.5C361,-296.5 201,-296.5 201,-296.5 195,-296.5 189,-290.5 189,-284.5 189,-284.5 189,-214.25 189,-214.25 189,-208.25 195,-202.25 201,-202.25 201,-202.25 361,-202.25 361,-202.25 367,-202.25 373,-208.25 373,-214.25 373,-214.25 373,-284.5 373,-284.5 373,-290.5 367,-296.5 361,-296.5"/>
<text text-anchor="middle" x="281" y="-279.2" font-family="Helvetica,sans-Serif" font-size="14.00">23_C &lt;= 0.5</text>
<text text-anchor="middle" x="281" y="-261.95" font-family="Helvetica,sans-Serif" font-size="14.00">entropy = 0.999</text>
<text text-anchor="middle" x="281" y="-244.7" font-family="Helvetica,sans-Serif" font-size="14.00">samples = 26273</text>
<text text-anchor="middle" x="281" y="-227.45" font-family="Helvetica,sans-Serif" font-size="14.00">value = [21643, 19973]</text>
<text text-anchor="middle" x="281" y="-210.2" font-family="Helvetica,sans-Serif" font-size="14.00">class = Animal</text>
</g>
<!-- 1&#45;&gt;2 -->
<g id="edge2" class="edge">
<title>1&#45;&gt;2</title>
<path fill="none" stroke="black" d="M462.62,-335.38C437.24,-323.51 409.58,-310.56 383.66,-298.43"/>
<polygon fill="black" stroke="black" points="385.36,-295.36 374.82,-294.29 382.39,-301.7 385.36,-295.36"/>
</g>
<!-- 12571 -->
<g id="node10" class="node">
<title>12571</title>
<path fill="#b5daf5" stroke="black" d="M626,-296.5C626,-296.5 484,-296.5 484,-296.5 478,-296.5 472,-290.5 472,-284.5 472,-284.5 472,-214.25 472,-214.25 472,-208.25 478,-202.25 484,-202.25 484,-202.25 626,-202.25 626,-202.25 632,-202.25 638,-208.25 638,-214.25 638,-214.25 638,-284.5 638,-284.5 638,-290.5 632,-296.5 626,-296.5"/>
<text text-anchor="middle" x="555" y="-279.2" font-family="Helvetica,sans-Serif" font-size="14.00">19_C &lt;= 0.5</text>
<text text-anchor="middle" x="555" y="-261.95" font-family="Helvetica,sans-Serif" font-size="14.00">entropy = 0.961</text>
<text text-anchor="middle" x="555" y="-244.7" font-family="Helvetica,sans-Serif" font-size="14.00">samples = 9938</text>
<text text-anchor="middle" x="555" y="-227.45" font-family="Helvetica,sans-Serif" font-size="14.00">value = [6008, 9604]</text>
<text text-anchor="middle" x="555" y="-210.2" font-family="Helvetica,sans-Serif" font-size="14.00">class = Plant</text>
</g>
<!-- 1&#45;&gt;12571 -->
<g id="edge9" class="edge">
<title>1&#45;&gt;12571</title>
<path fill="none" stroke="black" d="M555,-332.32C555,-324.42 555,-316.13 555,-307.98"/>
<polygon fill="black" stroke="black" points="558.5,-308.12 555,-298.12 551.5,-308.12 558.5,-308.12"/>
</g>
<!-- 3 -->
<g id="node4" class="node">
<title>3</title>
<path fill="#fefaf7" stroke="black" d="M172,-166.25C172,-166.25 12,-166.25 12,-166.25 6,-166.25 0,-160.25 0,-154.25 0,-154.25 0,-84 0,-84 0,-78 6,-72 12,-72 12,-72 172,-72 172,-72 178,-72 184,-78 184,-84 184,-84 184,-154.25 184,-154.25 184,-160.25 178,-166.25 172,-166.25"/>
<text text-anchor="middle" x="92" y="-148.95" font-family="Helvetica,sans-Serif" font-size="14.00">2_A &lt;= 0.5</text>
<text text-anchor="middle" x="92" y="-131.7" font-family="Helvetica,sans-Serif" font-size="14.00">entropy = 1.0</text>
<text text-anchor="middle" x="92" y="-114.45" font-family="Helvetica,sans-Serif" font-size="14.00">samples = 25267</text>
<text text-anchor="middle" x="92" y="-97.2" font-family="Helvetica,sans-Serif" font-size="14.00">value = [20407, 19620]</text>
<text text-anchor="middle" x="92" y="-79.95" font-family="Helvetica,sans-Serif" font-size="14.00">class = Animal</text>
</g>
<!-- 2&#45;&gt;3 -->
<g id="edge3" class="edge">
<title>2&#45;&gt;3</title>
<path fill="none" stroke="black" d="M212.5,-201.89C198.63,-192.48 183.96,-182.53 169.8,-172.92"/>
<polygon fill="black" stroke="black" points="172.08,-170.23 161.84,-167.51 168.15,-176.03 172.08,-170.23"/>
</g>
<!-- 12054 -->
<g id="node7" class="node">
<title>12054</title>
<path fill="#eca572" stroke="black" d="M347.5,-166.25C347.5,-166.25 214.5,-166.25 214.5,-166.25 208.5,-166.25 202.5,-160.25 202.5,-154.25 202.5,-154.25 202.5,-84 202.5,-84 202.5,-78 208.5,-72 214.5,-72 214.5,-72 347.5,-72 347.5,-72 353.5,-72 359.5,-78 359.5,-84 359.5,-84 359.5,-154.25 359.5,-154.25 359.5,-160.25 353.5,-166.25 347.5,-166.25"/>
<text text-anchor="middle" x="281" y="-148.95" font-family="Helvetica,sans-Serif" font-size="14.00">20_C &lt;= 0.5</text>
<text text-anchor="middle" x="281" y="-131.7" font-family="Helvetica,sans-Serif" font-size="14.00">entropy = 0.764</text>
<text text-anchor="middle" x="281" y="-114.45" font-family="Helvetica,sans-Serif" font-size="14.00">samples = 1006</text>
<text text-anchor="middle" x="281" y="-97.2" font-family="Helvetica,sans-Serif" font-size="14.00">value = [1236, 353]</text>
<text text-anchor="middle" x="281" y="-79.95" font-family="Helvetica,sans-Serif" font-size="14.00">class = Animal</text>
</g>
<!-- 2&#45;&gt;12054 -->
<g id="edge6" class="edge">
<title>2&#45;&gt;12054</title>
<path fill="none" stroke="black" d="M281,-202.07C281,-194.17 281,-185.88 281,-177.73"/>
<polygon fill="black" stroke="black" points="284.5,-177.87 281,-167.87 277.5,-177.87 284.5,-177.87"/>
</g>
<!-- 4 -->
<g id="node5" class="node">
<title>4</title>
<path fill="#c0c0c0" stroke="black" d="M71,-36C71,-36 41,-36 41,-36 35,-36 29,-30 29,-24 29,-24 29,-12 29,-12 29,-6 35,0 41,0 41,0 71,0 71,0 77,0 83,-6 83,-12 83,-12 83,-24 83,-24 83,-30 77,-36 71,-36"/>
<text text-anchor="middle" x="56" y="-13.32" font-family="Helvetica,sans-Serif" font-size="14.00">(...)</text>
</g>
<!-- 3&#45;&gt;4 -->
<g id="edge4" class="edge">
<title>3&#45;&gt;4</title>
<path fill="none" stroke="black" d="M75.16,-71.75C72.06,-63.22 68.92,-54.57 66.1,-46.8"/>
<polygon fill="black" stroke="black" points="69.46,-45.8 62.75,-37.6 62.88,-48.19 69.46,-45.8"/>
</g>
<!-- 9223 -->
<g id="node6" class="node">
<title>9223</title>
<path fill="#c0c0c0" stroke="black" d="M143,-36C143,-36 113,-36 113,-36 107,-36 101,-30 101,-24 101,-24 101,-12 101,-12 101,-6 107,0 113,0 113,0 143,0 143,0 149,0 155,-6 155,-12 155,-12 155,-24 155,-24 155,-30 149,-36 143,-36"/>
<text text-anchor="middle" x="128" y="-13.32" font-family="Helvetica,sans-Serif" font-size="14.00">(...)</text>
</g>
<!-- 3&#45;&gt;9223 -->
<g id="edge5" class="edge">
<title>3&#45;&gt;9223</title>
<path fill="none" stroke="black" d="M108.84,-71.75C111.94,-63.22 115.08,-54.57 117.9,-46.8"/>
<polygon fill="black" stroke="black" points="121.12,-48.19 121.25,-37.6 114.54,-45.8 121.12,-48.19"/>
</g>
<!-- 12055 -->
<g id="node8" class="node">
<title>12055</title>
<path fill="#c0c0c0" stroke="black" d="M262,-36C262,-36 232,-36 232,-36 226,-36 220,-30 220,-24 220,-24 220,-12 220,-12 220,-6 226,0 232,0 232,0 262,0 262,0 268,0 274,-6 274,-12 274,-12 274,-24 274,-24 274,-30 268,-36 262,-36"/>
<text text-anchor="middle" x="247" y="-13.32" font-family="Helvetica,sans-Serif" font-size="14.00">(...)</text>
</g>
<!-- 12054&#45;&gt;12055 -->
<g id="edge7" class="edge">
<title>12054&#45;&gt;12055</title>
<path fill="none" stroke="black" d="M265.1,-71.75C262.17,-63.22 259.2,-54.57 256.53,-46.8"/>
<polygon fill="black" stroke="black" points="259.94,-45.93 253.38,-37.6 253.32,-48.2 259.94,-45.93"/>
</g>
<!-- 12430 -->
<g id="node9" class="node">
<title>12430</title>
<path fill="#c0c0c0" stroke="black" d="M334,-36C334,-36 304,-36 304,-36 298,-36 292,-30 292,-24 292,-24 292,-12 292,-12 292,-6 298,0 304,0 304,0 334,0 334,0 340,0 346,-6 346,-12 346,-12 346,-24 346,-24 346,-30 340,-36 334,-36"/>
<text text-anchor="middle" x="319" y="-13.32" font-family="Helvetica,sans-Serif" font-size="14.00">(...)</text>
</g>
<!-- 12054&#45;&gt;12430 -->
<g id="edge8" class="edge">
<title>12054&#45;&gt;12430</title>
<path fill="none" stroke="black" d="M298.78,-71.75C302.05,-63.22 305.37,-54.57 308.34,-46.8"/>
<polygon fill="black" stroke="black" points="311.56,-48.18 311.88,-37.59 305.03,-45.67 311.56,-48.18"/>
</g>
<!-- 12572 -->
<g id="node11" class="node">
<title>12572</title>
<path fill="#e4f2fb" stroke="black" d="M532,-166.25C532,-166.25 390,-166.25 390,-166.25 384,-166.25 378,-160.25 378,-154.25 378,-154.25 378,-84 378,-84 378,-78 384,-72 390,-72 390,-72 532,-72 532,-72 538,-72 544,-78 544,-84 544,-84 544,-154.25 544,-154.25 544,-160.25 538,-166.25 532,-166.25"/>
<text text-anchor="middle" x="461" y="-148.95" font-family="Helvetica,sans-Serif" font-size="14.00">13_G &lt;= 0.5</text>
<text text-anchor="middle" x="461" y="-131.7" font-family="Helvetica,sans-Serif" font-size="14.00">entropy = 0.996</text>
<text text-anchor="middle" x="461" y="-114.45" font-family="Helvetica,sans-Serif" font-size="14.00">samples = 5923</text>
<text text-anchor="middle" x="461" y="-97.2" font-family="Helvetica,sans-Serif" font-size="14.00">value = [4326, 5008]</text>
<text text-anchor="middle" x="461" y="-79.95" font-family="Helvetica,sans-Serif" font-size="14.00">class = Plant</text>
</g>
<!-- 12571&#45;&gt;12572 -->
<g id="edge10" class="edge">
<title>12571&#45;&gt;12572</title>
<path fill="none" stroke="black" d="M521.06,-202.07C514.74,-193.45 508.08,-184.35 501.58,-175.49"/>
<polygon fill="black" stroke="black" points="504.52,-173.58 495.78,-167.58 498.87,-177.71 504.52,-173.58"/>
</g>
<!-- 15321 -->
<g id="node14" class="node">
<title>15321</title>
<path fill="#81c1ef" stroke="black" d="M716,-166.25C716,-166.25 574,-166.25 574,-166.25 568,-166.25 562,-160.25 562,-154.25 562,-154.25 562,-84 562,-84 562,-78 568,-72 574,-72 574,-72 716,-72 716,-72 722,-72 728,-78 728,-84 728,-84 728,-154.25 728,-154.25 728,-160.25 722,-166.25 716,-166.25"/>
<text text-anchor="middle" x="645" y="-148.95" font-family="Helvetica,sans-Serif" font-size="14.00">1_U &lt;= 0.5</text>
<text text-anchor="middle" x="645" y="-131.7" font-family="Helvetica,sans-Serif" font-size="14.00">entropy = 0.838</text>
<text text-anchor="middle" x="645" y="-114.45" font-family="Helvetica,sans-Serif" font-size="14.00">samples = 4015</text>
<text text-anchor="middle" x="645" y="-97.2" font-family="Helvetica,sans-Serif" font-size="14.00">value = [1682, 4596]</text>
<text text-anchor="middle" x="645" y="-79.95" font-family="Helvetica,sans-Serif" font-size="14.00">class = Plant</text>
</g>
<!-- 12571&#45;&gt;15321 -->
<g id="edge13" class="edge">
<title>12571&#45;&gt;15321</title>
<path fill="none" stroke="black" d="M587.49,-202.07C593.48,-193.54 599.79,-184.54 605.95,-175.77"/>
<polygon fill="black" stroke="black" points="608.81,-177.79 611.69,-167.6 603.08,-173.77 608.81,-177.79"/>
</g>
<!-- 12573 -->
<g id="node12" class="node">
<title>12573</title>
<path fill="#c0c0c0" stroke="black" d="M424,-36C424,-36 394,-36 394,-36 388,-36 382,-30 382,-24 382,-24 382,-12 382,-12 382,-6 388,0 394,0 394,0 424,0 424,0 430,0 436,-6 436,-12 436,-12 436,-24 436,-24 436,-30 430,-36 424,-36"/>
<text text-anchor="middle" x="409" y="-13.32" font-family="Helvetica,sans-Serif" font-size="14.00">(...)</text>
</g>
<!-- 12572&#45;&gt;12573 -->
<g id="edge11" class="edge">
<title>12572&#45;&gt;12573</title>
<path fill="none" stroke="black" d="M436.67,-71.75C432.1,-63.03 427.45,-54.16 423.3,-46.26"/>
<polygon fill="black" stroke="black" points="426.46,-44.74 418.71,-37.51 420.26,-47.99 426.46,-44.74"/>
</g>
<!-- 14534 -->
<g id="node13" class="node">
<title>14534</title>
<path fill="#c0c0c0" stroke="black" d="M496,-36C496,-36 466,-36 466,-36 460,-36 454,-30 454,-24 454,-24 454,-12 454,-12 454,-6 460,0 466,0 466,0 496,0 496,0 502,0 508,-6 508,-12 508,-12 508,-24 508,-24 508,-30 502,-36 496,-36"/>
<text text-anchor="middle" x="481" y="-13.32" font-family="Helvetica,sans-Serif" font-size="14.00">(...)</text>
</g>
<!-- 12572&#45;&gt;14534 -->
<g id="edge12" class="edge">
<title>12572&#45;&gt;14534</title>
<path fill="none" stroke="black" d="M470.36,-71.75C472.04,-63.42 473.74,-54.97 475.28,-47.34"/>
<polygon fill="black" stroke="black" points="478.69,-48.15 477.24,-37.66 471.83,-46.77 478.69,-48.15"/>
</g>
<!-- 15322 -->
<g id="node15" class="node">
<title>15322</title>
<path fill="#c0c0c0" stroke="black" d="M606,-36C606,-36 576,-36 576,-36 570,-36 564,-30 564,-24 564,-24 564,-12 564,-12 564,-6 570,0 576,0 576,0 606,0 606,0 612,0 618,-6 618,-12 618,-12 618,-24 618,-24 618,-30 612,-36 606,-36"/>
<text text-anchor="middle" x="591" y="-13.32" font-family="Helvetica,sans-Serif" font-size="14.00">(...)</text>
</g>
<!-- 15321&#45;&gt;15322 -->
<g id="edge14" class="edge">
<title>15321&#45;&gt;15322</title>
<path fill="none" stroke="black" d="M619.74,-71.75C614.98,-63.03 610.16,-54.16 605.85,-46.26"/>
<polygon fill="black" stroke="black" points="608.94,-44.61 601.08,-37.5 602.79,-47.96 608.94,-44.61"/>
</g>
<!-- 15845 -->
<g id="node16" class="node">
<title>15845</title>
<path fill="#c0c0c0" stroke="black" d="M678,-36C678,-36 648,-36 648,-36 642,-36 636,-30 636,-24 636,-24 636,-12 636,-12 636,-6 642,0 648,0 648,0 678,0 678,0 684,0 690,-6 690,-12 690,-12 690,-24 690,-24 690,-30 684,-36 678,-36"/>
<text text-anchor="middle" x="663" y="-13.32" font-family="Helvetica,sans-Serif" font-size="14.00">(...)</text>
</g>
<!-- 15321&#45;&gt;15845 -->
<g id="edge15" class="edge">
<title>15321&#45;&gt;15845</title>
<path fill="none" stroke="black" d="M653.42,-71.75C654.93,-63.42 656.47,-54.97 657.85,-47.34"/>
<polygon fill="black" stroke="black" points="661.27,-48.13 659.61,-37.66 654.38,-46.88 661.27,-48.13"/>
</g>
<!-- 16289 -->
<g id="node18" class="node">
<title>16289</title>
<path fill="#e9965b" stroke="black" d="M972.5,-296.5C972.5,-296.5 839.5,-296.5 839.5,-296.5 833.5,-296.5 827.5,-290.5 827.5,-284.5 827.5,-284.5 827.5,-214.25 827.5,-214.25 827.5,-208.25 833.5,-202.25 839.5,-202.25 839.5,-202.25 972.5,-202.25 972.5,-202.25 978.5,-202.25 984.5,-208.25 984.5,-214.25 984.5,-214.25 984.5,-284.5 984.5,-284.5 984.5,-290.5 978.5,-296.5 972.5,-296.5"/>
<text text-anchor="middle" x="906" y="-279.2" font-family="Helvetica,sans-Serif" font-size="14.00">9_U &lt;= 0.5</text>
<text text-anchor="middle" x="906" y="-261.95" font-family="Helvetica,sans-Serif" font-size="14.00">entropy = 0.599</text>
<text text-anchor="middle" x="906" y="-244.7" font-family="Helvetica,sans-Serif" font-size="14.00">samples = 1769</text>
<text text-anchor="middle" x="906" y="-227.45" font-family="Helvetica,sans-Serif" font-size="14.00">value = [2364, 403]</text>
<text text-anchor="middle" x="906" y="-210.2" font-family="Helvetica,sans-Serif" font-size="14.00">class = Animal</text>
</g>
<!-- 16288&#45;&gt;16289 -->
<g id="edge17" class="edge">
<title>16288&#45;&gt;16289</title>
<path fill="none" stroke="black" d="M906,-332.32C906,-324.42 906,-316.13 906,-307.98"/>
<polygon fill="black" stroke="black" points="909.5,-308.12 906,-298.12 902.5,-308.12 909.5,-308.12"/>
</g>
<!-- 16886 -->
<g id="node25" class="node">
<title>16886</title>
<path fill="#f7d6bf" stroke="black" d="M1220,-296.5C1220,-296.5 1096,-296.5 1096,-296.5 1090,-296.5 1084,-290.5 1084,-284.5 1084,-284.5 1084,-214.25 1084,-214.25 1084,-208.25 1090,-202.25 1096,-202.25 1096,-202.25 1220,-202.25 1220,-202.25 1226,-202.25 1232,-208.25 1232,-214.25 1232,-214.25 1232,-284.5 1232,-284.5 1232,-290.5 1226,-296.5 1220,-296.5"/>
<text text-anchor="middle" x="1158" y="-279.2" font-family="Helvetica,sans-Serif" font-size="14.00">25_G &lt;= 0.5</text>
<text text-anchor="middle" x="1158" y="-261.95" font-family="Helvetica,sans-Serif" font-size="14.00">entropy = 0.973</text>
<text text-anchor="middle" x="1158" y="-244.7" font-family="Helvetica,sans-Serif" font-size="14.00">samples = 218</text>
<text text-anchor="middle" x="1158" y="-227.45" font-family="Helvetica,sans-Serif" font-size="14.00">value = [209, 141]</text>
<text text-anchor="middle" x="1158" y="-210.2" font-family="Helvetica,sans-Serif" font-size="14.00">class = Animal</text>
</g>
<!-- 16288&#45;&gt;16886 -->
<g id="edge24" class="edge">
<title>16288&#45;&gt;16886</title>
<path fill="none" stroke="black" d="M984.7,-338.57C1012.99,-324.18 1045,-307.88 1073.75,-293.25"/>
<polygon fill="black" stroke="black" points="1075.09,-296.5 1082.42,-288.84 1071.92,-290.26 1075.09,-296.5"/>
</g>
<!-- 16290 -->
<g id="node19" class="node">
<title>16290</title>
<path fill="#ea9a61" stroke="black" d="M891.5,-166.25C891.5,-166.25 758.5,-166.25 758.5,-166.25 752.5,-166.25 746.5,-160.25 746.5,-154.25 746.5,-154.25 746.5,-84 746.5,-84 746.5,-78 752.5,-72 758.5,-72 758.5,-72 891.5,-72 891.5,-72 897.5,-72 903.5,-78 903.5,-84 903.5,-84 903.5,-154.25 903.5,-154.25 903.5,-160.25 897.5,-166.25 891.5,-166.25"/>
<text text-anchor="middle" x="825" y="-148.95" font-family="Helvetica,sans-Serif" font-size="14.00">25_U &lt;= 0.5</text>
<text text-anchor="middle" x="825" y="-131.7" font-family="Helvetica,sans-Serif" font-size="14.00">entropy = 0.65</text>
<text text-anchor="middle" x="825" y="-114.45" font-family="Helvetica,sans-Serif" font-size="14.00">samples = 1115</text>
<text text-anchor="middle" x="825" y="-97.2" font-family="Helvetica,sans-Serif" font-size="14.00">value = [1452, 290]</text>
<text text-anchor="middle" x="825" y="-79.95" font-family="Helvetica,sans-Serif" font-size="14.00">class = Animal</text>
</g>
<!-- 16289&#45;&gt;16290 -->
<g id="edge18" class="edge">
<title>16289&#45;&gt;16290</title>
<path fill="none" stroke="black" d="M876.76,-202.07C871.42,-193.63 865.81,-184.74 860.32,-176.05"/>
<polygon fill="black" stroke="black" points="863.31,-174.22 855.01,-167.64 857.39,-177.96 863.31,-174.22"/>
</g>
<!-- 16699 -->
<g id="node22" class="node">
<title>16699</title>
<path fill="#e89152" stroke="black" d="M1058,-166.25C1058,-166.25 934,-166.25 934,-166.25 928,-166.25 922,-160.25 922,-154.25 922,-154.25 922,-84 922,-84 922,-78 928,-72 934,-72 934,-72 1058,-72 1058,-72 1064,-72 1070,-78 1070,-84 1070,-84 1070,-154.25 1070,-154.25 1070,-160.25 1064,-166.25 1058,-166.25"/>
<text text-anchor="middle" x="996" y="-148.95" font-family="Helvetica,sans-Serif" font-size="14.00">1_U &lt;= 0.5</text>
<text text-anchor="middle" x="996" y="-131.7" font-family="Helvetica,sans-Serif" font-size="14.00">entropy = 0.501</text>
<text text-anchor="middle" x="996" y="-114.45" font-family="Helvetica,sans-Serif" font-size="14.00">samples = 654</text>
<text text-anchor="middle" x="996" y="-97.2" font-family="Helvetica,sans-Serif" font-size="14.00">value = [912, 113]</text>
<text text-anchor="middle" x="996" y="-79.95" font-family="Helvetica,sans-Serif" font-size="14.00">class = Animal</text>
</g>
<!-- 16289&#45;&gt;16699 -->
<g id="edge21" class="edge">
<title>16289&#45;&gt;16699</title>
<path fill="none" stroke="black" d="M938.49,-202.07C944.48,-193.54 950.79,-184.54 956.95,-175.77"/>
<polygon fill="black" stroke="black" points="959.81,-177.79 962.69,-167.6 954.08,-173.77 959.81,-177.79"/>
</g>
<!-- 16291 -->
<g id="node20" class="node">
<title>16291</title>
<path fill="#c0c0c0" stroke="black" d="M781,-36C781,-36 751,-36 751,-36 745,-36 739,-30 739,-24 739,-24 739,-12 739,-12 739,-6 745,0 751,0 751,0 781,0 781,0 787,0 793,-6 793,-12 793,-12 793,-24 793,-24 793,-30 787,-36 781,-36"/>
<text text-anchor="middle" x="766" y="-13.32" font-family="Helvetica,sans-Serif" font-size="14.00">(...)</text>
</g>
<!-- 16290&#45;&gt;16291 -->
<g id="edge19" class="edge">
<title>16290&#45;&gt;16291</title>
<path fill="none" stroke="black" d="M797.4,-71.75C792.15,-62.93 786.81,-53.96 782.06,-45.99"/>
<polygon fill="black" stroke="black" points="785.12,-44.28 777,-37.47 779.1,-47.86 785.12,-44.28"/>
</g>
<!-- 16662 -->
<g id="node21" class="node">
<title>16662</title>
<path fill="#c0c0c0" stroke="black" d="M853,-36C853,-36 823,-36 823,-36 817,-36 811,-30 811,-24 811,-24 811,-12 811,-12 811,-6 817,0 823,0 823,0 853,0 853,0 859,0 865,-6 865,-12 865,-12 865,-24 865,-24 865,-30 859,-36 853,-36"/>
<text text-anchor="middle" x="838" y="-13.32" font-family="Helvetica,sans-Serif" font-size="14.00">(...)</text>
</g>
<!-- 16290&#45;&gt;16662 -->
<g id="edge20" class="edge">
<title>16290&#45;&gt;16662</title>
<path fill="none" stroke="black" d="M831.08,-71.75C832.17,-63.42 833.28,-54.97 834.28,-47.34"/>
<polygon fill="black" stroke="black" points="837.72,-48.04 835.55,-37.67 830.78,-47.13 837.72,-48.04"/>
</g>
<!-- 16700 -->
<g id="node23" class="node">
<title>16700</title>
<path fill="#c0c0c0" stroke="black" d="M948,-36C948,-36 918,-36 918,-36 912,-36 906,-30 906,-24 906,-24 906,-12 906,-12 906,-6 912,0 918,0 918,0 948,0 948,0 954,0 960,-6 960,-12 960,-12 960,-24 960,-24 960,-30 954,-36 948,-36"/>
<text text-anchor="middle" x="933" y="-13.32" font-family="Helvetica,sans-Serif" font-size="14.00">(...)</text>
</g>
<!-- 16699&#45;&gt;16700 -->
<g id="edge22" class="edge">
<title>16699&#45;&gt;16700</title>
<path fill="none" stroke="black" d="M966.53,-71.75C960.85,-62.83 955.09,-53.76 949.98,-45.72"/>
<polygon fill="black" stroke="black" points="953.04,-44.01 944.73,-37.45 947.14,-47.77 953.04,-44.01"/>
</g>
<!-- 16823 -->
<g id="node24" class="node">
<title>16823</title>
<path fill="#c0c0c0" stroke="black" d="M1020,-36C1020,-36 990,-36 990,-36 984,-36 978,-30 978,-24 978,-24 978,-12 978,-12 978,-6 984,0 990,0 990,0 1020,0 1020,0 1026,0 1032,-6 1032,-12 1032,-12 1032,-24 1032,-24 1032,-30 1026,-36 1020,-36"/>
<text text-anchor="middle" x="1005" y="-13.32" font-family="Helvetica,sans-Serif" font-size="14.00">(...)</text>
</g>
<!-- 16699&#45;&gt;16823 -->
<g id="edge23" class="edge">
<title>16699&#45;&gt;16823</title>
<path fill="none" stroke="black" d="M1000.21,-71.75C1000.96,-63.52 1001.72,-55.17 1002.4,-47.61"/>
<polygon fill="black" stroke="black" points="1005.89,-47.96 1003.3,-37.68 998.91,-47.32 1005.89,-47.96"/>
</g>
<!-- 16887 -->
<g id="node26" class="node">
<title>16887</title>
<path fill="#f2bf9a" stroke="black" d="M1215.5,-166.25C1215.5,-166.25 1100.5,-166.25 1100.5,-166.25 1094.5,-166.25 1088.5,-160.25 1088.5,-154.25 1088.5,-154.25 1088.5,-84 1088.5,-84 1088.5,-78 1094.5,-72 1100.5,-72 1100.5,-72 1215.5,-72 1215.5,-72 1221.5,-72 1227.5,-78 1227.5,-84 1227.5,-84 1227.5,-154.25 1227.5,-154.25 1227.5,-160.25 1221.5,-166.25 1215.5,-166.25"/>
<text text-anchor="middle" x="1158" y="-148.95" font-family="Helvetica,sans-Serif" font-size="14.00">17_G &lt;= 0.5</text>
<text text-anchor="middle" x="1158" y="-131.7" font-family="Helvetica,sans-Serif" font-size="14.00">entropy = 0.915</text>
<text text-anchor="middle" x="1158" y="-114.45" font-family="Helvetica,sans-Serif" font-size="14.00">samples = 185</text>
<text text-anchor="middle" x="1158" y="-97.2" font-family="Helvetica,sans-Serif" font-size="14.00">value = [197, 97]</text>
<text text-anchor="middle" x="1158" y="-79.95" font-family="Helvetica,sans-Serif" font-size="14.00">class = Animal</text>
</g>
<!-- 16886&#45;&gt;16887 -->
<g id="edge25" class="edge">
<title>16886&#45;&gt;16887</title>
<path fill="none" stroke="black" d="M1158,-202.07C1158,-194.17 1158,-185.88 1158,-177.73"/>
<polygon fill="black" stroke="black" points="1161.5,-177.87 1158,-167.87 1154.5,-177.87 1161.5,-177.87"/>
</g>
<!-- 16986 -->
<g id="node29" class="node">
<title>16986</title>
<path fill="#6fb8ec" stroke="black" d="M1364,-166.25C1364,-166.25 1258,-166.25 1258,-166.25 1252,-166.25 1246,-160.25 1246,-154.25 1246,-154.25 1246,-84 1246,-84 1246,-78 1252,-72 1258,-72 1258,-72 1364,-72 1364,-72 1370,-72 1376,-78 1376,-84 1376,-84 1376,-154.25 1376,-154.25 1376,-160.25 1370,-166.25 1364,-166.25"/>
<text text-anchor="middle" x="1311" y="-148.95" font-family="Helvetica,sans-Serif" font-size="14.00">11_C &lt;= 0.5</text>
<text text-anchor="middle" x="1311" y="-131.7" font-family="Helvetica,sans-Serif" font-size="14.00">entropy = 0.75</text>
<text text-anchor="middle" x="1311" y="-114.45" font-family="Helvetica,sans-Serif" font-size="14.00">samples = 33</text>
<text text-anchor="middle" x="1311" y="-97.2" font-family="Helvetica,sans-Serif" font-size="14.00">value = [12, 44]</text>
<text text-anchor="middle" x="1311" y="-79.95" font-family="Helvetica,sans-Serif" font-size="14.00">class = Plant</text>
</g>
<!-- 16886&#45;&gt;16986 -->
<g id="edge28" class="edge">
<title>16886&#45;&gt;16986</title>
<path fill="none" stroke="black" d="M1213.24,-202.07C1224.22,-192.87 1235.83,-183.13 1247.08,-173.71"/>
<polygon fill="black" stroke="black" points="1249.01,-176.65 1254.43,-167.55 1244.52,-171.29 1249.01,-176.65"/>
</g>
<!-- 16888 -->
<g id="node27" class="node">
<title>16888</title>
<path fill="#c0c0c0" stroke="black" d="M1123,-36C1123,-36 1093,-36 1093,-36 1087,-36 1081,-30 1081,-24 1081,-24 1081,-12 1081,-12 1081,-6 1087,0 1093,0 1093,0 1123,0 1123,0 1129,0 1135,-6 1135,-12 1135,-12 1135,-24 1135,-24 1135,-30 1129,-36 1123,-36"/>
<text text-anchor="middle" x="1108" y="-13.32" font-family="Helvetica,sans-Serif" font-size="14.00">(...)</text>
</g>
<!-- 16887&#45;&gt;16888 -->
<g id="edge26" class="edge">
<title>16887&#45;&gt;16888</title>
<path fill="none" stroke="black" d="M1134.61,-71.75C1130.21,-63.03 1125.74,-54.16 1121.75,-46.26"/>
<polygon fill="black" stroke="black" points="1124.97,-44.88 1117.34,-37.52 1118.72,-48.03 1124.97,-44.88"/>
</g>
<!-- 16963 -->
<g id="node28" class="node">
<title>16963</title>
<path fill="#c0c0c0" stroke="black" d="M1195,-36C1195,-36 1165,-36 1165,-36 1159,-36 1153,-30 1153,-24 1153,-24 1153,-12 1153,-12 1153,-6 1159,0 1165,0 1165,0 1195,0 1195,0 1201,0 1207,-6 1207,-12 1207,-12 1207,-24 1207,-24 1207,-30 1201,-36 1195,-36"/>
<text text-anchor="middle" x="1180" y="-13.32" font-family="Helvetica,sans-Serif" font-size="14.00">(...)</text>
</g>
<!-- 16887&#45;&gt;16963 -->
<g id="edge27" class="edge">
<title>16887&#45;&gt;16963</title>
<path fill="none" stroke="black" d="M1168.29,-71.75C1170.14,-63.42 1172.02,-54.97 1173.71,-47.34"/>
<polygon fill="black" stroke="black" points="1177.11,-48.17 1175.86,-37.65 1170.28,-46.65 1177.11,-48.17"/>
</g>
<!-- 16987 -->
<g id="node30" class="node">
<title>16987</title>
<path fill="#c0c0c0" stroke="black" d="M1290,-36C1290,-36 1260,-36 1260,-36 1254,-36 1248,-30 1248,-24 1248,-24 1248,-12 1248,-12 1248,-6 1254,0 1260,0 1260,0 1290,0 1290,0 1296,0 1302,-6 1302,-12 1302,-12 1302,-24 1302,-24 1302,-30 1296,-36 1290,-36"/>
<text text-anchor="middle" x="1275" y="-13.32" font-family="Helvetica,sans-Serif" font-size="14.00">(...)</text>
</g>
<!-- 16986&#45;&gt;16987 -->
<g id="edge29" class="edge">
<title>16986&#45;&gt;16987</title>
<path fill="none" stroke="black" d="M1294.16,-71.75C1291.06,-63.22 1287.92,-54.57 1285.1,-46.8"/>
<polygon fill="black" stroke="black" points="1288.46,-45.8 1281.75,-37.6 1281.88,-48.19 1288.46,-45.8"/>
</g>
<!-- 16996 -->
<g id="node31" class="node">
<title>16996</title>
<path fill="#c0c0c0" stroke="black" d="M1362,-36C1362,-36 1332,-36 1332,-36 1326,-36 1320,-30 1320,-24 1320,-24 1320,-12 1320,-12 1320,-6 1326,0 1332,0 1332,0 1362,0 1362,0 1368,0 1374,-6 1374,-12 1374,-12 1374,-24 1374,-24 1374,-30 1368,-36 1362,-36"/>
<text text-anchor="middle" x="1347" y="-13.32" font-family="Helvetica,sans-Serif" font-size="14.00">(...)</text>
</g>
<!-- 16986&#45;&gt;16996 -->
<g id="edge30" class="edge">
<title>16986&#45;&gt;16996</title>
<path fill="none" stroke="black" d="M1327.84,-71.75C1330.94,-63.22 1334.08,-54.57 1336.9,-46.8"/>
<polygon fill="black" stroke="black" points="1340.12,-48.19 1340.25,-37.6 1333.54,-45.8 1340.12,-48.19"/>
</g>
</g>
</svg>
