<?xml version="1.0" encoding="UTF-8" standalone="no"?>
<!DOCTYPE svg PUBLIC "-//W3C//DTD SVG 1.1//EN"
 "http://www.w3.org/Graphics/SVG/1.1/DTD/svg11.dtd">
<!-- Generated by graphviz version 12.0.0 (20240803.0821)
 -->
<!-- Title: Tree Pages: 1 -->
<svg width="1373pt" height="565pt"
 viewBox="0.00 0.00 1372.50 565.00" xmlns="http://www.w3.org/2000/svg" xmlns:xlink="http://www.w3.org/1999/xlink">
<g id="graph0" class="graph" transform="scale(1 1) rotate(0) translate(4 561)">
<title>Tree</title>
<polygon fill="white" stroke="none" points="-4,4 -4,-561 1368.5,-561 1368.5,4 -4,4"/>
<!-- 0 -->
<g id="node1" class="node">
<title>0</title>
<path fill="#fffefd" stroke="black" d="M800,-557C800,-557 640,-557 640,-557 634,-557 628,-551 628,-545 628,-545 628,-474.75 628,-474.75 628,-468.75 634,-462.75 640,-462.75 640,-462.75 800,-462.75 800,-462.75 806,-462.75 812,-468.75 812,-474.75 812,-474.75 812,-545 812,-545 812,-551 806,-557 800,-557"/>
<text text-anchor="middle" x="720" y="-539.7" font-family="Helvetica,sans-Serif" font-size="14.00">23_U &lt;= 0.5</text>
<text text-anchor="middle" x="720" y="-522.45" font-family="Helvetica,sans-Serif" font-size="14.00">entropy = 1.0</text>
<text text-anchor="middle" x="720" y="-505.2" font-family="Helvetica,sans-Serif" font-size="14.00">samples = 38245</text>
<text text-anchor="middle" x="720" y="-487.95" font-family="Helvetica,sans-Serif" font-size="14.00">value = [30313, 30032]</text>
<text text-anchor="middle" x="720" y="-470.7" font-family="Helvetica,sans-Serif" font-size="14.00">class = Animal</text>
</g>
<!-- 1 -->
<g id="node2" class="node">
<title>1</title>
<path fill="#f2f9fd" stroke="black" d="M632,-426.75C632,-426.75 472,-426.75 472,-426.75 466,-426.75 460,-420.75 460,-414.75 460,-414.75 460,-344.5 460,-344.5 460,-338.5 466,-332.5 472,-332.5 472,-332.5 632,-332.5 632,-332.5 638,-332.5 644,-338.5 644,-344.5 644,-344.5 644,-414.75 644,-414.75 644,-420.75 638,-426.75 632,-426.75"/>
<text text-anchor="middle" x="552" y="-409.45" font-family="Helvetica,sans-Serif" font-size="14.00">20_C &lt;= 0.5</text>
<text text-anchor="middle" x="552" y="-392.2" font-family="Helvetica,sans-Serif" font-size="14.00">entropy = 0.999</text>
<text text-anchor="middle" x="552" y="-374.95" font-family="Helvetica,sans-Serif" font-size="14.00">samples = 36242</text>
<text text-anchor="middle" x="552" y="-357.7" font-family="Helvetica,sans-Serif" font-size="14.00">value = [27623, 29530]</text>
<text text-anchor="middle" x="552" y="-340.45" font-family="Helvetica,sans-Serif" font-size="14.00">class = Plant</text>
</g>
<!-- 0&#45;&gt;1 -->
<g id="edge1" class="edge">
<title>0&#45;&gt;1</title>
<path fill="none" stroke="black" d="M659.35,-462.57C647.17,-453.28 634.28,-443.44 621.82,-433.93"/>
<polygon fill="black" stroke="black" points="624.12,-431.28 614.05,-427.99 619.87,-436.84 624.12,-431.28"/>
<text text-anchor="middle" x="616.17" y="-447.18" font-family="Helvetica,sans-Serif" font-size="14.00">True</text>
</g>
<!-- 15986 -->
<g id="node17" class="node">
<title>15986</title>
<path fill="#ea995e" stroke="black" d="M957.5,-426.75C957.5,-426.75 824.5,-426.75 824.5,-426.75 818.5,-426.75 812.5,-420.75 812.5,-414.75 812.5,-414.75 812.5,-344.5 812.5,-344.5 812.5,-338.5 818.5,-332.5 824.5,-332.5 824.5,-332.5 957.5,-332.5 957.5,-332.5 963.5,-332.5 969.5,-338.5 969.5,-344.5 969.5,-344.5 969.5,-414.75 969.5,-414.75 969.5,-420.75 963.5,-426.75 957.5,-426.75"/>
<text text-anchor="middle" x="891" y="-409.45" font-family="Helvetica,sans-Serif" font-size="14.00">8_G &lt;= 0.5</text>
<text text-anchor="middle" x="891" y="-392.2" font-family="Helvetica,sans-Serif" font-size="14.00">entropy = 0.628</text>
<text text-anchor="middle" x="891" y="-374.95" font-family="Helvetica,sans-Serif" font-size="14.00">samples = 2003</text>
<text text-anchor="middle" x="891" y="-357.7" font-family="Helvetica,sans-Serif" font-size="14.00">value = [2690, 502]</text>
<text text-anchor="middle" x="891" y="-340.45" font-family="Helvetica,sans-Serif" font-size="14.00">class = Animal</text>
</g>
<!-- 0&#45;&gt;15986 -->
<g id="edge16" class="edge">
<title>0&#45;&gt;15986</title>
<path fill="none" stroke="black" d="M781.73,-462.57C794.13,-453.28 807.25,-443.44 819.93,-433.93"/>
<polygon fill="black" stroke="black" points="821.96,-436.78 827.86,-427.98 817.76,-431.18 821.96,-436.78"/>
<text text-anchor="middle" x="825.53" y="-447.15" font-family="Helvetica,sans-Serif" font-size="14.00">False</text>
</g>
<!-- 2 -->
<g id="node3" class="node">
<title>2</title>
<path fill="#fcf3eb" stroke="black" d="M365,-296.5C365,-296.5 205,-296.5 205,-296.5 199,-296.5 193,-290.5 193,-284.5 193,-284.5 193,-214.25 193,-214.25 193,-208.25 199,-202.25 205,-202.25 205,-202.25 365,-202.25 365,-202.25 371,-202.25 377,-208.25 377,-214.25 377,-214.25 377,-284.5 377,-284.5 377,-290.5 371,-296.5 365,-296.5"/>
<text text-anchor="middle" x="285" y="-279.2" font-family="Helvetica,sans-Serif" font-size="14.00">6_A &lt;= 0.5</text>
<text text-anchor="middle" x="285" y="-261.95" font-family="Helvetica,sans-Serif" font-size="14.00">entropy = 0.998</text>
<text text-anchor="middle" x="285" y="-244.7" font-family="Helvetica,sans-Serif" font-size="14.00">samples = 26599</text>
<text text-anchor="middle" x="285" y="-227.45" font-family="Helvetica,sans-Serif" font-size="14.00">value = [22089, 19902]</text>
<text text-anchor="middle" x="285" y="-210.2" font-family="Helvetica,sans-Serif" font-size="14.00">class = Animal</text>
</g>
<!-- 1&#45;&gt;2 -->
<g id="edge2" class="edge">
<title>1&#45;&gt;2</title>
<path fill="none" stroke="black" d="M459.74,-334.31C436.4,-323.1 411.18,-310.99 387.37,-299.55"/>
<polygon fill="black" stroke="black" points="389.16,-296.52 378.63,-295.35 386.13,-302.83 389.16,-296.52"/>
</g>
<!-- 12261 -->
<g id="node10" class="node">
<title>12261</title>
<path fill="#abd5f4" stroke="black" d="M623,-296.5C623,-296.5 481,-296.5 481,-296.5 475,-296.5 469,-290.5 469,-284.5 469,-284.5 469,-214.25 469,-214.25 469,-208.25 475,-202.25 481,-202.25 481,-202.25 623,-202.25 623,-202.25 629,-202.25 635,-208.25 635,-214.25 635,-214.25 635,-284.5 635,-284.5 635,-290.5 629,-296.5 623,-296.5"/>
<text text-anchor="middle" x="552" y="-279.2" font-family="Helvetica,sans-Serif" font-size="14.00">23_G &lt;= 0.5</text>
<text text-anchor="middle" x="552" y="-261.95" font-family="Helvetica,sans-Serif" font-size="14.00">entropy = 0.947</text>
<text text-anchor="middle" x="552" y="-244.7" font-family="Helvetica,sans-Serif" font-size="14.00">samples = 9643</text>
<text text-anchor="middle" x="552" y="-227.45" font-family="Helvetica,sans-Serif" font-size="14.00">value = [5534, 9628]</text>
<text text-anchor="middle" x="552" y="-210.2" font-family="Helvetica,sans-Serif" font-size="14.00">class = Plant</text>
</g>
<!-- 1&#45;&gt;12261 -->
<g id="edge9" class="edge">
<title>1&#45;&gt;12261</title>
<path fill="none" stroke="black" d="M552,-332.32C552,-324.42 552,-316.13 552,-307.98"/>
<polygon fill="black" stroke="black" points="555.5,-308.12 552,-298.12 548.5,-308.12 555.5,-308.12"/>
</g>
<!-- 3 -->
<g id="node4" class="node">
<title>3</title>
<path fill="#f9e3d4" stroke="black" d="M172,-166.25C172,-166.25 12,-166.25 12,-166.25 6,-166.25 0,-160.25 0,-154.25 0,-154.25 0,-84 0,-84 0,-78 6,-72 12,-72 12,-72 172,-72 172,-72 178,-72 184,-78 184,-84 184,-84 184,-154.25 184,-154.25 184,-160.25 178,-166.25 172,-166.25"/>
<text text-anchor="middle" x="92" y="-148.95" font-family="Helvetica,sans-Serif" font-size="14.00">22_U &lt;= 0.5</text>
<text text-anchor="middle" x="92" y="-131.7" font-family="Helvetica,sans-Serif" font-size="14.00">entropy = 0.989</text>
<text text-anchor="middle" x="92" y="-114.45" font-family="Helvetica,sans-Serif" font-size="14.00">samples = 19635</text>
<text text-anchor="middle" x="92" y="-97.2" font-family="Helvetica,sans-Serif" font-size="14.00">value = [17451, 13636]</text>
<text text-anchor="middle" x="92" y="-79.95" font-family="Helvetica,sans-Serif" font-size="14.00">class = Animal</text>
</g>
<!-- 2&#45;&gt;3 -->
<g id="edge3" class="edge">
<title>2&#45;&gt;3</title>
<path fill="none" stroke="black" d="M215.05,-201.89C200.89,-192.48 185.9,-182.53 171.45,-172.92"/>
<polygon fill="black" stroke="black" points="173.56,-170.12 163.3,-167.5 169.69,-175.95 173.56,-170.12"/>
</g>
<!-- 9266 -->
<g id="node7" class="node">
<title>9266</title>
<path fill="#cce6f8" stroke="black" d="M356,-166.25C356,-166.25 214,-166.25 214,-166.25 208,-166.25 202,-160.25 202,-154.25 202,-154.25 202,-84 202,-84 202,-78 208,-72 214,-72 214,-72 356,-72 356,-72 362,-72 368,-78 368,-84 368,-84 368,-154.25 368,-154.25 368,-160.25 362,-166.25 356,-166.25"/>
<text text-anchor="middle" x="285" y="-148.95" font-family="Helvetica,sans-Serif" font-size="14.00">15_U &lt;= 0.5</text>
<text text-anchor="middle" x="285" y="-131.7" font-family="Helvetica,sans-Serif" font-size="14.00">entropy = 0.984</text>
<text text-anchor="middle" x="285" y="-114.45" font-family="Helvetica,sans-Serif" font-size="14.00">samples = 6964</text>
<text text-anchor="middle" x="285" y="-97.2" font-family="Helvetica,sans-Serif" font-size="14.00">value = [4638, 6266]</text>
<text text-anchor="middle" x="285" y="-79.95" font-family="Helvetica,sans-Serif" font-size="14.00">class = Plant</text>
</g>
<!-- 2&#45;&gt;9266 -->
<g id="edge6" class="edge">
<title>2&#45;&gt;9266</title>
<path fill="none" stroke="black" d="M285,-202.07C285,-194.17 285,-185.88 285,-177.73"/>
<polygon fill="black" stroke="black" points="288.5,-177.87 285,-167.87 281.5,-177.87 288.5,-177.87"/>
</g>
<!-- 4 -->
<g id="node5" class="node">
<title>4</title>
<path fill="#c0c0c0" stroke="black" d="M71,-36C71,-36 41,-36 41,-36 35,-36 29,-30 29,-24 29,-24 29,-12 29,-12 29,-6 35,0 41,0 41,0 71,0 71,0 77,0 83,-6 83,-12 83,-12 83,-24 83,-24 83,-30 77,-36 71,-36"/>
<text text-anchor="middle" x="56" y="-13.32" font-family="Helvetica,sans-Serif" font-size="14.00">(...)</text>
</g>
<!-- 3&#45;&gt;4 -->
<g id="edge4" class="edge">
<title>3&#45;&gt;4</title>
<path fill="none" stroke="black" d="M75.16,-71.75C72.06,-63.22 68.92,-54.57 66.1,-46.8"/>
<polygon fill="black" stroke="black" points="69.46,-45.8 62.75,-37.6 62.88,-48.19 69.46,-45.8"/>
</g>
<!-- 8275 -->
<g id="node6" class="node">
<title>8275</title>
<path fill="#c0c0c0" stroke="black" d="M143,-36C143,-36 113,-36 113,-36 107,-36 101,-30 101,-24 101,-24 101,-12 101,-12 101,-6 107,0 113,0 113,0 143,0 143,0 149,0 155,-6 155,-12 155,-12 155,-24 155,-24 155,-30 149,-36 143,-36"/>
<text text-anchor="middle" x="128" y="-13.32" font-family="Helvetica,sans-Serif" font-size="14.00">(...)</text>
</g>
<!-- 3&#45;&gt;8275 -->
<g id="edge5" class="edge">
<title>3&#45;&gt;8275</title>
<path fill="none" stroke="black" d="M108.84,-71.75C111.94,-63.22 115.08,-54.57 117.9,-46.8"/>
<polygon fill="black" stroke="black" points="121.12,-48.19 121.25,-37.6 114.54,-45.8 121.12,-48.19"/>
</g>
<!-- 9267 -->
<g id="node8" class="node">
<title>9267</title>
<path fill="#c0c0c0" stroke="black" d="M263,-36C263,-36 233,-36 233,-36 227,-36 221,-30 221,-24 221,-24 221,-12 221,-12 221,-6 227,0 233,0 233,0 263,0 263,0 269,0 275,-6 275,-12 275,-12 275,-24 275,-24 275,-30 269,-36 263,-36"/>
<text text-anchor="middle" x="248" y="-13.32" font-family="Helvetica,sans-Serif" font-size="14.00">(...)</text>
</g>
<!-- 9266&#45;&gt;9267 -->
<g id="edge7" class="edge">
<title>9266&#45;&gt;9267</title>
<path fill="none" stroke="black" d="M267.69,-71.75C264.51,-63.22 261.28,-54.57 258.38,-46.8"/>
<polygon fill="black" stroke="black" points="261.72,-45.74 254.94,-37.59 255.16,-48.18 261.72,-45.74"/>
</g>
<!-- 11430 -->
<g id="node9" class="node">
<title>11430</title>
<path fill="#c0c0c0" stroke="black" d="M335,-36C335,-36 305,-36 305,-36 299,-36 293,-30 293,-24 293,-24 293,-12 293,-12 293,-6 299,0 305,0 305,0 335,0 335,0 341,0 347,-6 347,-12 347,-12 347,-24 347,-24 347,-30 341,-36 335,-36"/>
<text text-anchor="middle" x="320" y="-13.32" font-family="Helvetica,sans-Serif" font-size="14.00">(...)</text>
</g>
<!-- 9266&#45;&gt;11430 -->
<g id="edge8" class="edge">
<title>9266&#45;&gt;11430</title>
<path fill="none" stroke="black" d="M301.37,-71.75C304.39,-63.22 307.44,-54.57 310.18,-46.8"/>
<polygon fill="black" stroke="black" points="313.4,-48.19 313.43,-37.6 306.8,-45.86 313.4,-48.19"/>
</g>
<!-- 12262 -->
<g id="node11" class="node">
<title>12262</title>
<path fill="#a1d0f3" stroke="black" d="M540,-166.25C540,-166.25 398,-166.25 398,-166.25 392,-166.25 386,-160.25 386,-154.25 386,-154.25 386,-84 386,-84 386,-78 392,-72 398,-72 398,-72 540,-72 540,-72 546,-72 552,-78 552,-84 552,-84 552,-154.25 552,-154.25 552,-160.25 546,-166.25 540,-166.25"/>
<text text-anchor="middle" x="469" y="-148.95" font-family="Helvetica,sans-Serif" font-size="14.00">3_G &lt;= 0.5</text>
<text text-anchor="middle" x="469" y="-131.7" font-family="Helvetica,sans-Serif" font-size="14.00">entropy = 0.929</text>
<text text-anchor="middle" x="469" y="-114.45" font-family="Helvetica,sans-Serif" font-size="14.00">samples = 9186</text>
<text text-anchor="middle" x="469" y="-97.2" font-family="Helvetica,sans-Serif" font-size="14.00">value = [4970, 9479]</text>
<text text-anchor="middle" x="469" y="-79.95" font-family="Helvetica,sans-Serif" font-size="14.00">class = Plant</text>
</g>
<!-- 12261&#45;&gt;12262 -->
<g id="edge10" class="edge">
<title>12261&#45;&gt;12262</title>
<path fill="none" stroke="black" d="M522.04,-202.07C516.51,-193.54 510.69,-184.54 505.01,-175.77"/>
<polygon fill="black" stroke="black" points="508.11,-174.12 499.74,-167.63 502.24,-177.93 508.11,-174.12"/>
</g>
<!-- 15833 -->
<g id="node14" class="node">
<title>15833</title>
<path fill="#eca26d" stroke="black" d="M706,-166.25C706,-166.25 582,-166.25 582,-166.25 576,-166.25 570,-160.25 570,-154.25 570,-154.25 570,-84 570,-84 570,-78 576,-72 582,-72 582,-72 706,-72 706,-72 712,-72 718,-78 718,-84 718,-84 718,-154.25 718,-154.25 718,-160.25 712,-166.25 706,-166.25"/>
<text text-anchor="middle" x="644" y="-148.95" font-family="Helvetica,sans-Serif" font-size="14.00">18_A &lt;= 0.5</text>
<text text-anchor="middle" x="644" y="-131.7" font-family="Helvetica,sans-Serif" font-size="14.00">entropy = 0.74</text>
<text text-anchor="middle" x="644" y="-114.45" font-family="Helvetica,sans-Serif" font-size="14.00">samples = 457</text>
<text text-anchor="middle" x="644" y="-97.2" font-family="Helvetica,sans-Serif" font-size="14.00">value = [564, 149]</text>
<text text-anchor="middle" x="644" y="-79.95" font-family="Helvetica,sans-Serif" font-size="14.00">class = Animal</text>
</g>
<!-- 12261&#45;&gt;15833 -->
<g id="edge13" class="edge">
<title>12261&#45;&gt;15833</title>
<path fill="none" stroke="black" d="M585.21,-202.07C591.4,-193.45 597.93,-184.35 604.29,-175.49"/>
<polygon fill="black" stroke="black" points="606.97,-177.75 609.95,-167.59 601.28,-173.67 606.97,-177.75"/>
</g>
<!-- 12263 -->
<g id="node12" class="node">
<title>12263</title>
<path fill="#c0c0c0" stroke="black" d="M427,-36C427,-36 397,-36 397,-36 391,-36 385,-30 385,-24 385,-24 385,-12 385,-12 385,-6 391,0 397,0 397,0 427,0 427,0 433,0 439,-6 439,-12 439,-12 439,-24 439,-24 439,-30 433,-36 427,-36"/>
<text text-anchor="middle" x="412" y="-13.32" font-family="Helvetica,sans-Serif" font-size="14.00">(...)</text>
</g>
<!-- 12262&#45;&gt;12263 -->
<g id="edge11" class="edge">
<title>12262&#45;&gt;12263</title>
<path fill="none" stroke="black" d="M442.34,-71.75C437.26,-62.93 432.1,-53.96 427.52,-45.99"/>
<polygon fill="black" stroke="black" points="430.65,-44.41 422.63,-37.48 424.58,-47.9 430.65,-44.41"/>
</g>
<!-- 14786 -->
<g id="node13" class="node">
<title>14786</title>
<path fill="#c0c0c0" stroke="black" d="M499,-36C499,-36 469,-36 469,-36 463,-36 457,-30 457,-24 457,-24 457,-12 457,-12 457,-6 463,0 469,0 469,0 499,0 499,0 505,0 511,-6 511,-12 511,-12 511,-24 511,-24 511,-30 505,-36 499,-36"/>
<text text-anchor="middle" x="484" y="-13.32" font-family="Helvetica,sans-Serif" font-size="14.00">(...)</text>
</g>
<!-- 12262&#45;&gt;14786 -->
<g id="edge12" class="edge">
<title>12262&#45;&gt;14786</title>
<path fill="none" stroke="black" d="M476.02,-71.75C477.28,-63.42 478.56,-54.97 479.71,-47.34"/>
<polygon fill="black" stroke="black" points="483.14,-48.08 481.17,-37.67 476.22,-47.03 483.14,-48.08"/>
</g>
<!-- 15834 -->
<g id="node15" class="node">
<title>15834</title>
<path fill="#c0c0c0" stroke="black" d="M600,-36C600,-36 570,-36 570,-36 564,-36 558,-30 558,-24 558,-24 558,-12 558,-12 558,-6 564,0 570,0 570,0 600,0 600,0 606,0 612,-6 612,-12 612,-12 612,-24 612,-24 612,-30 606,-36 600,-36"/>
<text text-anchor="middle" x="585" y="-13.32" font-family="Helvetica,sans-Serif" font-size="14.00">(...)</text>
</g>
<!-- 15833&#45;&gt;15834 -->
<g id="edge14" class="edge">
<title>15833&#45;&gt;15834</title>
<path fill="none" stroke="black" d="M616.4,-71.75C611.15,-62.93 605.81,-53.96 601.06,-45.99"/>
<polygon fill="black" stroke="black" points="604.12,-44.28 596,-37.47 598.1,-47.86 604.12,-44.28"/>
</g>
<!-- 15943 -->
<g id="node16" class="node">
<title>15943</title>
<path fill="#c0c0c0" stroke="black" d="M672,-36C672,-36 642,-36 642,-36 636,-36 630,-30 630,-24 630,-24 630,-12 630,-12 630,-6 636,0 642,0 642,0 672,0 672,0 678,0 684,-6 684,-12 684,-12 684,-24 684,-24 684,-30 678,-36 672,-36"/>
<text text-anchor="middle" x="657" y="-13.32" font-family="Helvetica,sans-Serif" font-size="14.00">(...)</text>
</g>
<!-- 15833&#45;&gt;15943 -->
<g id="edge15" class="edge">
<title>15833&#45;&gt;15943</title>
<path fill="none" stroke="black" d="M650.08,-71.75C651.17,-63.42 652.28,-54.97 653.28,-47.34"/>
<polygon fill="black" stroke="black" points="656.72,-48.04 654.55,-37.67 649.78,-47.13 656.72,-48.04"/>
</g>
<!-- 15987 -->
<g id="node18" class="node">
<title>15987</title>
<path fill="#e99559" stroke="black" d="M957.5,-296.5C957.5,-296.5 824.5,-296.5 824.5,-296.5 818.5,-296.5 812.5,-290.5 812.5,-284.5 812.5,-284.5 812.5,-214.25 812.5,-214.25 812.5,-208.25 818.5,-202.25 824.5,-202.25 824.5,-202.25 957.5,-202.25 957.5,-202.25 963.5,-202.25 969.5,-208.25 969.5,-214.25 969.5,-214.25 969.5,-284.5 969.5,-284.5 969.5,-290.5 963.5,-296.5 957.5,-296.5"/>
<text text-anchor="middle" x="891" y="-279.2" font-family="Helvetica,sans-Serif" font-size="14.00">4_A &lt;= 0.5</text>
<text text-anchor="middle" x="891" y="-261.95" font-family="Helvetica,sans-Serif" font-size="14.00">entropy = 0.58</text>
<text text-anchor="middle" x="891" y="-244.7" font-family="Helvetica,sans-Serif" font-size="14.00">samples = 1503</text>
<text text-anchor="middle" x="891" y="-227.45" font-family="Helvetica,sans-Serif" font-size="14.00">value = [2065, 332]</text>
<text text-anchor="middle" x="891" y="-210.2" font-family="Helvetica,sans-Serif" font-size="14.00">class = Animal</text>
</g>
<!-- 15986&#45;&gt;15987 -->
<g id="edge17" class="edge">
<title>15986&#45;&gt;15987</title>
<path fill="none" stroke="black" d="M891,-332.32C891,-324.42 891,-316.13 891,-307.98"/>
<polygon fill="black" stroke="black" points="894.5,-308.12 891,-298.12 887.5,-308.12 894.5,-308.12"/>
</g>
<!-- 16560 -->
<g id="node25" class="node">
<title>16560</title>
<path fill="#eca36f" stroke="black" d="M1200,-296.5C1200,-296.5 1076,-296.5 1076,-296.5 1070,-296.5 1064,-290.5 1064,-284.5 1064,-284.5 1064,-214.25 1064,-214.25 1064,-208.25 1070,-202.25 1076,-202.25 1076,-202.25 1200,-202.25 1200,-202.25 1206,-202.25 1212,-208.25 1212,-214.25 1212,-214.25 1212,-284.5 1212,-284.5 1212,-290.5 1206,-296.5 1200,-296.5"/>
<text text-anchor="middle" x="1138" y="-279.2" font-family="Helvetica,sans-Serif" font-size="14.00">5_C &lt;= 0.5</text>
<text text-anchor="middle" x="1138" y="-261.95" font-family="Helvetica,sans-Serif" font-size="14.00">entropy = 0.749</text>
<text text-anchor="middle" x="1138" y="-244.7" font-family="Helvetica,sans-Serif" font-size="14.00">samples = 500</text>
<text text-anchor="middle" x="1138" y="-227.45" font-family="Helvetica,sans-Serif" font-size="14.00">value = [625, 170]</text>
<text text-anchor="middle" x="1138" y="-210.2" font-family="Helvetica,sans-Serif" font-size="14.00">class = Animal</text>
</g>
<!-- 15986&#45;&gt;16560 -->
<g id="edge24" class="edge">
<title>15986&#45;&gt;16560</title>
<path fill="none" stroke="black" d="M969.83,-337.69C996.61,-323.79 1026.64,-308.2 1053.82,-294.08"/>
<polygon fill="black" stroke="black" points="1055.09,-297.37 1062.35,-289.65 1051.87,-291.15 1055.09,-297.37"/>
</g>
<!-- 15988 -->
<g id="node19" class="node">
<title>15988</title>
<path fill="#ea995f" stroke="black" d="M881.5,-166.25C881.5,-166.25 748.5,-166.25 748.5,-166.25 742.5,-166.25 736.5,-160.25 736.5,-154.25 736.5,-154.25 736.5,-84 736.5,-84 736.5,-78 742.5,-72 748.5,-72 748.5,-72 881.5,-72 881.5,-72 887.5,-72 893.5,-78 893.5,-84 893.5,-84 893.5,-154.25 893.5,-154.25 893.5,-160.25 887.5,-166.25 881.5,-166.25"/>
<text text-anchor="middle" x="815" y="-148.95" font-family="Helvetica,sans-Serif" font-size="14.00">25_A &lt;= 0.5</text>
<text text-anchor="middle" x="815" y="-131.7" font-family="Helvetica,sans-Serif" font-size="14.00">entropy = 0.641</text>
<text text-anchor="middle" x="815" y="-114.45" font-family="Helvetica,sans-Serif" font-size="14.00">samples = 1094</text>
<text text-anchor="middle" x="815" y="-97.2" font-family="Helvetica,sans-Serif" font-size="14.00">value = [1466, 285]</text>
<text text-anchor="middle" x="815" y="-79.95" font-family="Helvetica,sans-Serif" font-size="14.00">class = Animal</text>
</g>
<!-- 15987&#45;&gt;15988 -->
<g id="edge18" class="edge">
<title>15987&#45;&gt;15988</title>
<path fill="none" stroke="black" d="M863.56,-202.07C858.56,-193.63 853.29,-184.74 848.14,-176.05"/>
<polygon fill="black" stroke="black" points="851.28,-174.48 843.17,-167.66 845.26,-178.05 851.28,-174.48"/>
</g>
<!-- 16433 -->
<g id="node22" class="node">
<title>16433</title>
<path fill="#e78b49" stroke="black" d="M1038.5,-166.25C1038.5,-166.25 923.5,-166.25 923.5,-166.25 917.5,-166.25 911.5,-160.25 911.5,-154.25 911.5,-154.25 911.5,-84 911.5,-84 911.5,-78 917.5,-72 923.5,-72 923.5,-72 1038.5,-72 1038.5,-72 1044.5,-72 1050.5,-78 1050.5,-84 1050.5,-84 1050.5,-154.25 1050.5,-154.25 1050.5,-160.25 1044.5,-166.25 1038.5,-166.25"/>
<text text-anchor="middle" x="981" y="-148.95" font-family="Helvetica,sans-Serif" font-size="14.00">10_A &lt;= 0.5</text>
<text text-anchor="middle" x="981" y="-131.7" font-family="Helvetica,sans-Serif" font-size="14.00">entropy = 0.376</text>
<text text-anchor="middle" x="981" y="-114.45" font-family="Helvetica,sans-Serif" font-size="14.00">samples = 409</text>
<text text-anchor="middle" x="981" y="-97.2" font-family="Helvetica,sans-Serif" font-size="14.00">value = [599, 47]</text>
<text text-anchor="middle" x="981" y="-79.95" font-family="Helvetica,sans-Serif" font-size="14.00">class = Animal</text>
</g>
<!-- 15987&#45;&gt;16433 -->
<g id="edge21" class="edge">
<title>15987&#45;&gt;16433</title>
<path fill="none" stroke="black" d="M923.49,-202.07C929.48,-193.54 935.79,-184.54 941.95,-175.77"/>
<polygon fill="black" stroke="black" points="944.81,-177.79 947.69,-167.6 939.08,-173.77 944.81,-177.79"/>
</g>
<!-- 15989 -->
<g id="node20" class="node">
<title>15989</title>
<path fill="#c0c0c0" stroke="black" d="M769,-36C769,-36 739,-36 739,-36 733,-36 727,-30 727,-24 727,-24 727,-12 727,-12 727,-6 733,0 739,0 739,0 769,0 769,0 775,0 781,-6 781,-12 781,-12 781,-24 781,-24 781,-30 775,-36 769,-36"/>
<text text-anchor="middle" x="754" y="-13.32" font-family="Helvetica,sans-Serif" font-size="14.00">(...)</text>
</g>
<!-- 15988&#45;&gt;15989 -->
<g id="edge19" class="edge">
<title>15988&#45;&gt;15989</title>
<path fill="none" stroke="black" d="M786.46,-71.75C780.97,-62.83 775.39,-53.76 770.44,-45.72"/>
<polygon fill="black" stroke="black" points="773.58,-44.14 765.36,-37.46 767.62,-47.81 773.58,-44.14"/>
</g>
<!-- 16414 -->
<g id="node21" class="node">
<title>16414</title>
<path fill="#c0c0c0" stroke="black" d="M841,-36C841,-36 811,-36 811,-36 805,-36 799,-30 799,-24 799,-24 799,-12 799,-12 799,-6 805,0 811,0 811,0 841,0 841,0 847,0 853,-6 853,-12 853,-12 853,-24 853,-24 853,-30 847,-36 841,-36"/>
<text text-anchor="middle" x="826" y="-13.32" font-family="Helvetica,sans-Serif" font-size="14.00">(...)</text>
</g>
<!-- 15988&#45;&gt;16414 -->
<g id="edge20" class="edge">
<title>15988&#45;&gt;16414</title>
<path fill="none" stroke="black" d="M820.15,-71.75C821.06,-63.52 821.99,-55.17 822.82,-47.61"/>
<polygon fill="black" stroke="black" points="826.3,-48 823.93,-37.68 819.35,-47.23 826.3,-48"/>
</g>
<!-- 16434 -->
<g id="node23" class="node">
<title>16434</title>
<path fill="#c0c0c0" stroke="black" d="M930,-36C930,-36 900,-36 900,-36 894,-36 888,-30 888,-24 888,-24 888,-12 888,-12 888,-6 894,0 900,0 900,0 930,0 930,0 936,0 942,-6 942,-12 942,-12 942,-24 942,-24 942,-30 936,-36 930,-36"/>
<text text-anchor="middle" x="915" y="-13.32" font-family="Helvetica,sans-Serif" font-size="14.00">(...)</text>
</g>
<!-- 16433&#45;&gt;16434 -->
<g id="edge22" class="edge">
<title>16433&#45;&gt;16434</title>
<path fill="none" stroke="black" d="M950.13,-71.75C944.18,-62.83 938.14,-53.76 932.79,-45.72"/>
<polygon fill="black" stroke="black" points="935.73,-43.82 927.27,-37.43 929.9,-47.7 935.73,-43.82"/>
</g>
<!-- 16539 -->
<g id="node24" class="node">
<title>16539</title>
<path fill="#c0c0c0" stroke="black" d="M1002,-36C1002,-36 972,-36 972,-36 966,-36 960,-30 960,-24 960,-24 960,-12 960,-12 960,-6 966,0 972,0 972,0 1002,0 1002,0 1008,0 1014,-6 1014,-12 1014,-12 1014,-24 1014,-24 1014,-30 1008,-36 1002,-36"/>
<text text-anchor="middle" x="987" y="-13.32" font-family="Helvetica,sans-Serif" font-size="14.00">(...)</text>
</g>
<!-- 16433&#45;&gt;16539 -->
<g id="edge23" class="edge">
<title>16433&#45;&gt;16539</title>
<path fill="none" stroke="black" d="M983.81,-71.75C984.31,-63.52 984.81,-55.17 985.27,-47.61"/>
<polygon fill="black" stroke="black" points="988.76,-47.88 985.87,-37.68 981.77,-47.45 988.76,-47.88"/>
</g>
<!-- 16561 -->
<g id="node26" class="node">
<title>16561</title>
<path fill="#ea995f" stroke="black" d="M1195.5,-166.25C1195.5,-166.25 1080.5,-166.25 1080.5,-166.25 1074.5,-166.25 1068.5,-160.25 1068.5,-154.25 1068.5,-154.25 1068.5,-84 1068.5,-84 1068.5,-78 1074.5,-72 1080.5,-72 1080.5,-72 1195.5,-72 1195.5,-72 1201.5,-72 1207.5,-78 1207.5,-84 1207.5,-84 1207.5,-154.25 1207.5,-154.25 1207.5,-160.25 1201.5,-166.25 1195.5,-166.25"/>
<text text-anchor="middle" x="1138" y="-148.95" font-family="Helvetica,sans-Serif" font-size="14.00">24_C &lt;= 0.5</text>
<text text-anchor="middle" x="1138" y="-131.7" font-family="Helvetica,sans-Serif" font-size="14.00">entropy = 0.637</text>
<text text-anchor="middle" x="1138" y="-114.45" font-family="Helvetica,sans-Serif" font-size="14.00">samples = 367</text>
<text text-anchor="middle" x="1138" y="-97.2" font-family="Helvetica,sans-Serif" font-size="14.00">value = [495, 95]</text>
<text text-anchor="middle" x="1138" y="-79.95" font-family="Helvetica,sans-Serif" font-size="14.00">class = Animal</text>
</g>
<!-- 16560&#45;&gt;16561 -->
<g id="edge25" class="edge">
<title>16560&#45;&gt;16561</title>
<path fill="none" stroke="black" d="M1138,-202.07C1138,-194.17 1138,-185.88 1138,-177.73"/>
<polygon fill="black" stroke="black" points="1141.5,-177.87 1138,-167.87 1134.5,-177.87 1141.5,-177.87"/>
</g>
<!-- 16722 -->
<g id="node29" class="node">
<title>16722</title>
<path fill="#f4caab" stroke="black" d="M1352.5,-166.25C1352.5,-166.25 1237.5,-166.25 1237.5,-166.25 1231.5,-166.25 1225.5,-160.25 1225.5,-154.25 1225.5,-154.25 1225.5,-84 1225.5,-84 1225.5,-78 1231.5,-72 1237.5,-72 1237.5,-72 1352.5,-72 1352.5,-72 1358.5,-72 1364.5,-78 1364.5,-84 1364.5,-84 1364.5,-154.25 1364.5,-154.25 1364.5,-160.25 1358.5,-166.25 1352.5,-166.25"/>
<text text-anchor="middle" x="1295" y="-148.95" font-family="Helvetica,sans-Serif" font-size="14.00">19_C &lt;= 0.5</text>
<text text-anchor="middle" x="1295" y="-131.7" font-family="Helvetica,sans-Serif" font-size="14.00">entropy = 0.947</text>
<text text-anchor="middle" x="1295" y="-114.45" font-family="Helvetica,sans-Serif" font-size="14.00">samples = 133</text>
<text text-anchor="middle" x="1295" y="-97.2" font-family="Helvetica,sans-Serif" font-size="14.00">value = [130, 75]</text>
<text text-anchor="middle" x="1295" y="-79.95" font-family="Helvetica,sans-Serif" font-size="14.00">class = Animal</text>
</g>
<!-- 16560&#45;&gt;16722 -->
<g id="edge28" class="edge">
<title>16560&#45;&gt;16722</title>
<path fill="none" stroke="black" d="M1194.68,-202.07C1205.95,-192.87 1217.87,-183.13 1229.41,-173.71"/>
<polygon fill="black" stroke="black" points="1231.44,-176.57 1236.97,-167.53 1227.01,-171.15 1231.44,-176.57"/>
</g>
<!-- 16562 -->
<g id="node27" class="node">
<title>16562</title>
<path fill="#c0c0c0" stroke="black" d="M1105,-36C1105,-36 1075,-36 1075,-36 1069,-36 1063,-30 1063,-24 1063,-24 1063,-12 1063,-12 1063,-6 1069,0 1075,0 1075,0 1105,0 1105,0 1111,0 1117,-6 1117,-12 1117,-12 1117,-24 1117,-24 1117,-30 1111,-36 1105,-36"/>
<text text-anchor="middle" x="1090" y="-13.32" font-family="Helvetica,sans-Serif" font-size="14.00">(...)</text>
</g>
<!-- 16561&#45;&gt;16562 -->
<g id="edge26" class="edge">
<title>16561&#45;&gt;16562</title>
<path fill="none" stroke="black" d="M1115.55,-71.75C1111.37,-63.12 1107.12,-54.36 1103.33,-46.53"/>
<polygon fill="black" stroke="black" points="1106.48,-45.01 1098.98,-37.53 1100.18,-48.06 1106.48,-45.01"/>
</g>
<!-- 16709 -->
<g id="node28" class="node">
<title>16709</title>
<path fill="#c0c0c0" stroke="black" d="M1177,-36C1177,-36 1147,-36 1147,-36 1141,-36 1135,-30 1135,-24 1135,-24 1135,-12 1135,-12 1135,-6 1141,0 1147,0 1147,0 1177,0 1177,0 1183,0 1189,-6 1189,-12 1189,-12 1189,-24 1189,-24 1189,-30 1183,-36 1177,-36"/>
<text text-anchor="middle" x="1162" y="-13.32" font-family="Helvetica,sans-Serif" font-size="14.00">(...)</text>
</g>
<!-- 16561&#45;&gt;16709 -->
<g id="edge27" class="edge">
<title>16561&#45;&gt;16709</title>
<path fill="none" stroke="black" d="M1149.23,-71.75C1151.24,-63.42 1153.29,-54.97 1155.14,-47.34"/>
<polygon fill="black" stroke="black" points="1158.53,-48.19 1157.49,-37.64 1151.73,-46.54 1158.53,-48.19"/>
</g>
<!-- 16723 -->
<g id="node30" class="node">
<title>16723</title>
<path fill="#c0c0c0" stroke="black" d="M1274,-36C1274,-36 1244,-36 1244,-36 1238,-36 1232,-30 1232,-24 1232,-24 1232,-12 1232,-12 1232,-6 1238,0 1244,0 1244,0 1274,0 1274,0 1280,0 1286,-6 1286,-12 1286,-12 1286,-24 1286,-24 1286,-30 1280,-36 1274,-36"/>
<text text-anchor="middle" x="1259" y="-13.32" font-family="Helvetica,sans-Serif" font-size="14.00">(...)</text>
</g>
<!-- 16722&#45;&gt;16723 -->
<g id="edge29" class="edge">
<title>16722&#45;&gt;16723</title>
<path fill="none" stroke="black" d="M1278.16,-71.75C1275.06,-63.22 1271.92,-54.57 1269.1,-46.8"/>
<polygon fill="black" stroke="black" points="1272.46,-45.8 1265.75,-37.6 1265.88,-48.19 1272.46,-45.8"/>
</g>
<!-- 16756 -->
<g id="node31" class="node">
<title>16756</title>
<path fill="#c0c0c0" stroke="black" d="M1346,-36C1346,-36 1316,-36 1316,-36 1310,-36 1304,-30 1304,-24 1304,-24 1304,-12 1304,-12 1304,-6 1310,0 1316,0 1316,0 1346,0 1346,0 1352,0 1358,-6 1358,-12 1358,-12 1358,-24 1358,-24 1358,-30 1352,-36 1346,-36"/>
<text text-anchor="middle" x="1331" y="-13.32" font-family="Helvetica,sans-Serif" font-size="14.00">(...)</text>
</g>
<!-- 16722&#45;&gt;16756 -->
<g id="edge30" class="edge">
<title>16722&#45;&gt;16756</title>
<path fill="none" stroke="black" d="M1311.84,-71.75C1314.94,-63.22 1318.08,-54.57 1320.9,-46.8"/>
<polygon fill="black" stroke="black" points="1324.12,-48.19 1324.25,-37.6 1317.54,-45.8 1324.12,-48.19"/>
</g>
</g>
</svg>
