<?xml version="1.0" encoding="UTF-8" standalone="no"?>
<!DOCTYPE svg PUBLIC "-//W3C//DTD SVG 1.1//EN"
 "http://www.w3.org/Graphics/SVG/1.1/DTD/svg11.dtd">
<!-- Generated by graphviz version 12.0.0 (20240803.0821)
 -->
<!-- Title: Tree Pages: 1 -->
<svg width="1409pt" height="565pt"
 viewBox="0.00 0.00 1409.00 565.00" xmlns="http://www.w3.org/2000/svg" xmlns:xlink="http://www.w3.org/1999/xlink">
<g id="graph0" class="graph" transform="scale(1 1) rotate(0) translate(4 561)">
<title>Tree</title>
<polygon fill="white" stroke="none" points="-4,4 -4,-561 1405,-561 1405,4 -4,4"/>
<!-- 0 -->
<g id="node1" class="node">
<title>0</title>
<path fill="#fffffe" stroke="black" d="M811.5,-557C811.5,-557 651.5,-557 651.5,-557 645.5,-557 639.5,-551 639.5,-545 639.5,-545 639.5,-474.75 639.5,-474.75 639.5,-468.75 645.5,-462.75 651.5,-462.75 651.5,-462.75 811.5,-462.75 811.5,-462.75 817.5,-462.75 823.5,-468.75 823.5,-474.75 823.5,-474.75 823.5,-545 823.5,-545 823.5,-551 817.5,-557 811.5,-557"/>
<text text-anchor="middle" x="731.5" y="-539.7" font-family="Helvetica,sans-Serif" font-size="14.00">1_A &lt;= 0.5</text>
<text text-anchor="middle" x="731.5" y="-522.45" font-family="Helvetica,sans-Serif" font-size="14.00">entropy = 1.0</text>
<text text-anchor="middle" x="731.5" y="-505.2" font-family="Helvetica,sans-Serif" font-size="14.00">samples = 38051</text>
<text text-anchor="middle" x="731.5" y="-487.95" font-family="Helvetica,sans-Serif" font-size="14.00">value = [30222, 30123]</text>
<text text-anchor="middle" x="731.5" y="-470.7" font-family="Helvetica,sans-Serif" font-size="14.00">class = Animal</text>
</g>
<!-- 1 -->
<g id="node2" class="node">
<title>1</title>
<path fill="#e7f3fc" stroke="black" d="M632.5,-426.75C632.5,-426.75 472.5,-426.75 472.5,-426.75 466.5,-426.75 460.5,-420.75 460.5,-414.75 460.5,-414.75 460.5,-344.5 460.5,-344.5 460.5,-338.5 466.5,-332.5 472.5,-332.5 472.5,-332.5 632.5,-332.5 632.5,-332.5 638.5,-332.5 644.5,-338.5 644.5,-344.5 644.5,-344.5 644.5,-414.75 644.5,-414.75 644.5,-420.75 638.5,-426.75 632.5,-426.75"/>
<text text-anchor="middle" x="552.5" y="-409.45" font-family="Helvetica,sans-Serif" font-size="14.00">20_C &lt;= 0.5</text>
<text text-anchor="middle" x="552.5" y="-392.2" font-family="Helvetica,sans-Serif" font-size="14.00">entropy = 0.997</text>
<text text-anchor="middle" x="552.5" y="-374.95" font-family="Helvetica,sans-Serif" font-size="14.00">samples = 30137</text>
<text text-anchor="middle" x="552.5" y="-357.7" font-family="Helvetica,sans-Serif" font-size="14.00">value = [22346, 25427]</text>
<text text-anchor="middle" x="552.5" y="-340.45" font-family="Helvetica,sans-Serif" font-size="14.00">class = Plant</text>
</g>
<!-- 0&#45;&gt;1 -->
<g id="edge1" class="edge">
<title>0&#45;&gt;1</title>
<path fill="none" stroke="black" d="M666.62,-462.39C653.62,-453.07 639.86,-443.22 626.57,-433.69"/>
<polygon fill="black" stroke="black" points="628.85,-431.02 618.69,-428.05 624.78,-436.72 628.85,-431.02"/>
<text text-anchor="middle" x="621.53" y="-447.16" font-family="Helvetica,sans-Serif" font-size="14.00">True</text>
</g>
<!-- 12926 -->
<g id="node17" class="node">
<title>12926</title>
<path fill="#f5ccaf" stroke="black" d="M986.5,-426.75C986.5,-426.75 844.5,-426.75 844.5,-426.75 838.5,-426.75 832.5,-420.75 832.5,-414.75 832.5,-414.75 832.5,-344.5 832.5,-344.5 832.5,-338.5 838.5,-332.5 844.5,-332.5 844.5,-332.5 986.5,-332.5 986.5,-332.5 992.5,-332.5 998.5,-338.5 998.5,-344.5 998.5,-344.5 998.5,-414.75 998.5,-414.75 998.5,-420.75 992.5,-426.75 986.5,-426.75"/>
<text text-anchor="middle" x="915.5" y="-409.45" font-family="Helvetica,sans-Serif" font-size="14.00">22_C &lt;= 0.5</text>
<text text-anchor="middle" x="915.5" y="-392.2" font-family="Helvetica,sans-Serif" font-size="14.00">entropy = 0.953</text>
<text text-anchor="middle" x="915.5" y="-374.95" font-family="Helvetica,sans-Serif" font-size="14.00">samples = 7914</text>
<text text-anchor="middle" x="915.5" y="-357.7" font-family="Helvetica,sans-Serif" font-size="14.00">value = [7876, 4696]</text>
<text text-anchor="middle" x="915.5" y="-340.45" font-family="Helvetica,sans-Serif" font-size="14.00">class = Animal</text>
</g>
<!-- 0&#45;&gt;12926 -->
<g id="edge16" class="edge">
<title>0&#45;&gt;12926</title>
<path fill="none" stroke="black" d="M798.19,-462.39C811.56,-453.07 825.7,-443.22 839.36,-433.69"/>
<polygon fill="black" stroke="black" points="841.29,-436.62 847.49,-428.03 837.28,-430.88 841.29,-436.62"/>
<text text-anchor="middle" x="844.34" y="-447.1" font-family="Helvetica,sans-Serif" font-size="14.00">False</text>
</g>
<!-- 2 -->
<g id="node3" class="node">
<title>2</title>
<path fill="#fef9f5" stroke="black" d="M356.5,-296.5C356.5,-296.5 196.5,-296.5 196.5,-296.5 190.5,-296.5 184.5,-290.5 184.5,-284.5 184.5,-284.5 184.5,-214.25 184.5,-214.25 184.5,-208.25 190.5,-202.25 196.5,-202.25 196.5,-202.25 356.5,-202.25 356.5,-202.25 362.5,-202.25 368.5,-208.25 368.5,-214.25 368.5,-214.25 368.5,-284.5 368.5,-284.5 368.5,-290.5 362.5,-296.5 356.5,-296.5"/>
<text text-anchor="middle" x="276.5" y="-279.2" font-family="Helvetica,sans-Serif" font-size="14.00">20_U &lt;= 0.5</text>
<text text-anchor="middle" x="276.5" y="-261.95" font-family="Helvetica,sans-Serif" font-size="14.00">entropy = 1.0</text>
<text text-anchor="middle" x="276.5" y="-244.7" font-family="Helvetica,sans-Serif" font-size="14.00">samples = 21854</text>
<text text-anchor="middle" x="276.5" y="-227.45" font-family="Helvetica,sans-Serif" font-size="14.00">value = [17765, 16880]</text>
<text text-anchor="middle" x="276.5" y="-210.2" font-family="Helvetica,sans-Serif" font-size="14.00">class = Animal</text>
</g>
<!-- 1&#45;&gt;2 -->
<g id="edge2" class="edge">
<title>1&#45;&gt;2</title>
<path fill="none" stroke="black" d="M460.21,-335.74C434.09,-323.6 405.5,-310.32 378.82,-297.92"/>
<polygon fill="black" stroke="black" points="380.62,-294.9 370.07,-293.86 377.67,-301.24 380.62,-294.9"/>
</g>
<!-- 9817 -->
<g id="node10" class="node">
<title>9817</title>
<path fill="#a3d2f3" stroke="black" d="M623.5,-296.5C623.5,-296.5 481.5,-296.5 481.5,-296.5 475.5,-296.5 469.5,-290.5 469.5,-284.5 469.5,-284.5 469.5,-214.25 469.5,-214.25 469.5,-208.25 475.5,-202.25 481.5,-202.25 481.5,-202.25 623.5,-202.25 623.5,-202.25 629.5,-202.25 635.5,-208.25 635.5,-214.25 635.5,-214.25 635.5,-284.5 635.5,-284.5 635.5,-290.5 629.5,-296.5 623.5,-296.5"/>
<text text-anchor="middle" x="552.5" y="-279.2" font-family="Helvetica,sans-Serif" font-size="14.00">14_C &lt;= 0.5</text>
<text text-anchor="middle" x="552.5" y="-261.95" font-family="Helvetica,sans-Serif" font-size="14.00">entropy = 0.933</text>
<text text-anchor="middle" x="552.5" y="-244.7" font-family="Helvetica,sans-Serif" font-size="14.00">samples = 8283</text>
<text text-anchor="middle" x="552.5" y="-227.45" font-family="Helvetica,sans-Serif" font-size="14.00">value = [4581, 8547]</text>
<text text-anchor="middle" x="552.5" y="-210.2" font-family="Helvetica,sans-Serif" font-size="14.00">class = Plant</text>
</g>
<!-- 1&#45;&gt;9817 -->
<g id="edge9" class="edge">
<title>1&#45;&gt;9817</title>
<path fill="none" stroke="black" d="M552.5,-332.32C552.5,-324.42 552.5,-316.13 552.5,-307.98"/>
<polygon fill="black" stroke="black" points="556,-308.12 552.5,-298.12 549,-308.12 556,-308.12"/>
</g>
<!-- 3 -->
<g id="node4" class="node">
<title>3</title>
<path fill="#fae6d7" stroke="black" d="M163,-166.25C163,-166.25 12,-166.25 12,-166.25 6,-166.25 0,-160.25 0,-154.25 0,-154.25 0,-84 0,-84 0,-78 6,-72 12,-72 12,-72 163,-72 163,-72 169,-72 175,-78 175,-84 175,-84 175,-154.25 175,-154.25 175,-160.25 169,-166.25 163,-166.25"/>
<text text-anchor="middle" x="87.5" y="-148.95" font-family="Helvetica,sans-Serif" font-size="14.00">8_C &lt;= 0.5</text>
<text text-anchor="middle" x="87.5" y="-131.7" font-family="Helvetica,sans-Serif" font-size="14.00">entropy = 0.991</text>
<text text-anchor="middle" x="87.5" y="-114.45" font-family="Helvetica,sans-Serif" font-size="14.00">samples = 12717</text>
<text text-anchor="middle" x="87.5" y="-97.2" font-family="Helvetica,sans-Serif" font-size="14.00">value = [11175, 8934]</text>
<text text-anchor="middle" x="87.5" y="-79.95" font-family="Helvetica,sans-Serif" font-size="14.00">class = Animal</text>
</g>
<!-- 2&#45;&gt;3 -->
<g id="edge3" class="edge">
<title>2&#45;&gt;3</title>
<path fill="none" stroke="black" d="M208,-201.89C194.13,-192.48 179.46,-182.53 165.3,-172.92"/>
<polygon fill="black" stroke="black" points="167.58,-170.23 157.34,-167.51 163.65,-176.03 167.58,-170.23"/>
</g>
<!-- 6532 -->
<g id="node7" class="node">
<title>6532</title>
<path fill="#ddeefb" stroke="black" d="M347.5,-166.25C347.5,-166.25 205.5,-166.25 205.5,-166.25 199.5,-166.25 193.5,-160.25 193.5,-154.25 193.5,-154.25 193.5,-84 193.5,-84 193.5,-78 199.5,-72 205.5,-72 205.5,-72 347.5,-72 347.5,-72 353.5,-72 359.5,-78 359.5,-84 359.5,-84 359.5,-154.25 359.5,-154.25 359.5,-160.25 353.5,-166.25 347.5,-166.25"/>
<text text-anchor="middle" x="276.5" y="-148.95" font-family="Helvetica,sans-Serif" font-size="14.00">2_A &lt;= 0.5</text>
<text text-anchor="middle" x="276.5" y="-131.7" font-family="Helvetica,sans-Serif" font-size="14.00">entropy = 0.994</text>
<text text-anchor="middle" x="276.5" y="-114.45" font-family="Helvetica,sans-Serif" font-size="14.00">samples = 9137</text>
<text text-anchor="middle" x="276.5" y="-97.2" font-family="Helvetica,sans-Serif" font-size="14.00">value = [6590, 7946]</text>
<text text-anchor="middle" x="276.5" y="-79.95" font-family="Helvetica,sans-Serif" font-size="14.00">class = Plant</text>
</g>
<!-- 2&#45;&gt;6532 -->
<g id="edge6" class="edge">
<title>2&#45;&gt;6532</title>
<path fill="none" stroke="black" d="M276.5,-202.07C276.5,-194.17 276.5,-185.88 276.5,-177.73"/>
<polygon fill="black" stroke="black" points="280,-177.87 276.5,-167.87 273,-177.87 280,-177.87"/>
</g>
<!-- 4 -->
<g id="node5" class="node">
<title>4</title>
<path fill="#c0c0c0" stroke="black" d="M66.5,-36C66.5,-36 36.5,-36 36.5,-36 30.5,-36 24.5,-30 24.5,-24 24.5,-24 24.5,-12 24.5,-12 24.5,-6 30.5,0 36.5,0 36.5,0 66.5,0 66.5,0 72.5,0 78.5,-6 78.5,-12 78.5,-12 78.5,-24 78.5,-24 78.5,-30 72.5,-36 66.5,-36"/>
<text text-anchor="middle" x="51.5" y="-13.32" font-family="Helvetica,sans-Serif" font-size="14.00">(...)</text>
</g>
<!-- 3&#45;&gt;4 -->
<g id="edge4" class="edge">
<title>3&#45;&gt;4</title>
<path fill="none" stroke="black" d="M70.66,-71.75C67.56,-63.22 64.42,-54.57 61.6,-46.8"/>
<polygon fill="black" stroke="black" points="64.96,-45.8 58.25,-37.6 58.38,-48.19 64.96,-45.8"/>
</g>
<!-- 5227 -->
<g id="node6" class="node">
<title>5227</title>
<path fill="#c0c0c0" stroke="black" d="M138.5,-36C138.5,-36 108.5,-36 108.5,-36 102.5,-36 96.5,-30 96.5,-24 96.5,-24 96.5,-12 96.5,-12 96.5,-6 102.5,0 108.5,0 108.5,0 138.5,0 138.5,0 144.5,0 150.5,-6 150.5,-12 150.5,-12 150.5,-24 150.5,-24 150.5,-30 144.5,-36 138.5,-36"/>
<text text-anchor="middle" x="123.5" y="-13.32" font-family="Helvetica,sans-Serif" font-size="14.00">(...)</text>
</g>
<!-- 3&#45;&gt;5227 -->
<g id="edge5" class="edge">
<title>3&#45;&gt;5227</title>
<path fill="none" stroke="black" d="M104.34,-71.75C107.44,-63.22 110.58,-54.57 113.4,-46.8"/>
<polygon fill="black" stroke="black" points="116.62,-48.19 116.75,-37.6 110.04,-45.8 116.62,-48.19"/>
</g>
<!-- 6533 -->
<g id="node8" class="node">
<title>6533</title>
<path fill="#c0c0c0" stroke="black" d="M259.5,-36C259.5,-36 229.5,-36 229.5,-36 223.5,-36 217.5,-30 217.5,-24 217.5,-24 217.5,-12 217.5,-12 217.5,-6 223.5,0 229.5,0 229.5,0 259.5,0 259.5,0 265.5,0 271.5,-6 271.5,-12 271.5,-12 271.5,-24 271.5,-24 271.5,-30 265.5,-36 259.5,-36"/>
<text text-anchor="middle" x="244.5" y="-13.32" font-family="Helvetica,sans-Serif" font-size="14.00">(...)</text>
</g>
<!-- 6532&#45;&gt;6533 -->
<g id="edge7" class="edge">
<title>6532&#45;&gt;6533</title>
<path fill="none" stroke="black" d="M261.53,-71.75C258.81,-63.32 256.05,-54.77 253.56,-47.07"/>
<polygon fill="black" stroke="black" points="256.91,-46.05 250.51,-37.61 250.25,-48.2 256.91,-46.05"/>
</g>
<!-- 8902 -->
<g id="node9" class="node">
<title>8902</title>
<path fill="#c0c0c0" stroke="black" d="M331.5,-36C331.5,-36 301.5,-36 301.5,-36 295.5,-36 289.5,-30 289.5,-24 289.5,-24 289.5,-12 289.5,-12 289.5,-6 295.5,0 301.5,0 301.5,0 331.5,0 331.5,0 337.5,0 343.5,-6 343.5,-12 343.5,-12 343.5,-24 343.5,-24 343.5,-30 337.5,-36 331.5,-36"/>
<text text-anchor="middle" x="316.5" y="-13.32" font-family="Helvetica,sans-Serif" font-size="14.00">(...)</text>
</g>
<!-- 6532&#45;&gt;8902 -->
<g id="edge8" class="edge">
<title>6532&#45;&gt;8902</title>
<path fill="none" stroke="black" d="M295.21,-71.75C298.65,-63.22 302.15,-54.57 305.28,-46.8"/>
<polygon fill="black" stroke="black" points="308.51,-48.16 309,-37.58 302.02,-45.54 308.51,-48.16"/>
</g>
<!-- 9818 -->
<g id="node11" class="node">
<title>9818</title>
<path fill="#b4daf5" stroke="black" d="M531.5,-166.25C531.5,-166.25 389.5,-166.25 389.5,-166.25 383.5,-166.25 377.5,-160.25 377.5,-154.25 377.5,-154.25 377.5,-84 377.5,-84 377.5,-78 383.5,-72 389.5,-72 389.5,-72 531.5,-72 531.5,-72 537.5,-72 543.5,-78 543.5,-84 543.5,-84 543.5,-154.25 543.5,-154.25 543.5,-160.25 537.5,-166.25 531.5,-166.25"/>
<text text-anchor="middle" x="460.5" y="-148.95" font-family="Helvetica,sans-Serif" font-size="14.00">22_A &lt;= 0.5</text>
<text text-anchor="middle" x="460.5" y="-131.7" font-family="Helvetica,sans-Serif" font-size="14.00">entropy = 0.96</text>
<text text-anchor="middle" x="460.5" y="-114.45" font-family="Helvetica,sans-Serif" font-size="14.00">samples = 5757</text>
<text text-anchor="middle" x="460.5" y="-97.2" font-family="Helvetica,sans-Serif" font-size="14.00">value = [3493, 5630]</text>
<text text-anchor="middle" x="460.5" y="-79.95" font-family="Helvetica,sans-Serif" font-size="14.00">class = Plant</text>
</g>
<!-- 9817&#45;&gt;9818 -->
<g id="edge10" class="edge">
<title>9817&#45;&gt;9818</title>
<path fill="none" stroke="black" d="M519.29,-202.07C513.1,-193.45 506.57,-184.35 500.21,-175.49"/>
<polygon fill="black" stroke="black" points="503.22,-173.67 494.55,-167.59 497.53,-177.75 503.22,-173.67"/>
</g>
<!-- 12197 -->
<g id="node14" class="node">
<title>12197</title>
<path fill="#83c2ef" stroke="black" d="M715.5,-166.25C715.5,-166.25 573.5,-166.25 573.5,-166.25 567.5,-166.25 561.5,-160.25 561.5,-154.25 561.5,-154.25 561.5,-84 561.5,-84 561.5,-78 567.5,-72 573.5,-72 573.5,-72 715.5,-72 715.5,-72 721.5,-72 727.5,-78 727.5,-84 727.5,-84 727.5,-154.25 727.5,-154.25 727.5,-160.25 721.5,-166.25 715.5,-166.25"/>
<text text-anchor="middle" x="644.5" y="-148.95" font-family="Helvetica,sans-Serif" font-size="14.00">15_A &lt;= 0.5</text>
<text text-anchor="middle" x="644.5" y="-131.7" font-family="Helvetica,sans-Serif" font-size="14.00">entropy = 0.844</text>
<text text-anchor="middle" x="644.5" y="-114.45" font-family="Helvetica,sans-Serif" font-size="14.00">samples = 2526</text>
<text text-anchor="middle" x="644.5" y="-97.2" font-family="Helvetica,sans-Serif" font-size="14.00">value = [1088, 2917]</text>
<text text-anchor="middle" x="644.5" y="-79.95" font-family="Helvetica,sans-Serif" font-size="14.00">class = Plant</text>
</g>
<!-- 9817&#45;&gt;12197 -->
<g id="edge13" class="edge">
<title>9817&#45;&gt;12197</title>
<path fill="none" stroke="black" d="M585.71,-202.07C591.9,-193.45 598.43,-184.35 604.79,-175.49"/>
<polygon fill="black" stroke="black" points="607.47,-177.75 610.45,-167.59 601.78,-173.67 607.47,-177.75"/>
</g>
<!-- 9819 -->
<g id="node12" class="node">
<title>9819</title>
<path fill="#c0c0c0" stroke="black" d="M423.5,-36C423.5,-36 393.5,-36 393.5,-36 387.5,-36 381.5,-30 381.5,-24 381.5,-24 381.5,-12 381.5,-12 381.5,-6 387.5,0 393.5,0 393.5,0 423.5,0 423.5,0 429.5,0 435.5,-6 435.5,-12 435.5,-12 435.5,-24 435.5,-24 435.5,-30 429.5,-36 423.5,-36"/>
<text text-anchor="middle" x="408.5" y="-13.32" font-family="Helvetica,sans-Serif" font-size="14.00">(...)</text>
</g>
<!-- 9818&#45;&gt;9819 -->
<g id="edge11" class="edge">
<title>9818&#45;&gt;9819</title>
<path fill="none" stroke="black" d="M436.17,-71.75C431.6,-63.03 426.95,-54.16 422.8,-46.26"/>
<polygon fill="black" stroke="black" points="425.96,-44.74 418.21,-37.51 419.76,-47.99 425.96,-44.74"/>
</g>
<!-- 11926 -->
<g id="node13" class="node">
<title>11926</title>
<path fill="#c0c0c0" stroke="black" d="M495.5,-36C495.5,-36 465.5,-36 465.5,-36 459.5,-36 453.5,-30 453.5,-24 453.5,-24 453.5,-12 453.5,-12 453.5,-6 459.5,0 465.5,0 465.5,0 495.5,0 495.5,0 501.5,0 507.5,-6 507.5,-12 507.5,-12 507.5,-24 507.5,-24 507.5,-30 501.5,-36 495.5,-36"/>
<text text-anchor="middle" x="480.5" y="-13.32" font-family="Helvetica,sans-Serif" font-size="14.00">(...)</text>
</g>
<!-- 9818&#45;&gt;11926 -->
<g id="edge12" class="edge">
<title>9818&#45;&gt;11926</title>
<path fill="none" stroke="black" d="M469.86,-71.75C471.54,-63.42 473.24,-54.97 474.78,-47.34"/>
<polygon fill="black" stroke="black" points="478.19,-48.15 476.74,-37.66 471.33,-46.77 478.19,-48.15"/>
</g>
<!-- 12198 -->
<g id="node15" class="node">
<title>12198</title>
<path fill="#c0c0c0" stroke="black" d="M607.5,-36C607.5,-36 577.5,-36 577.5,-36 571.5,-36 565.5,-30 565.5,-24 565.5,-24 565.5,-12 565.5,-12 565.5,-6 571.5,0 577.5,0 577.5,0 607.5,0 607.5,0 613.5,0 619.5,-6 619.5,-12 619.5,-12 619.5,-24 619.5,-24 619.5,-30 613.5,-36 607.5,-36"/>
<text text-anchor="middle" x="592.5" y="-13.32" font-family="Helvetica,sans-Serif" font-size="14.00">(...)</text>
</g>
<!-- 12197&#45;&gt;12198 -->
<g id="edge14" class="edge">
<title>12197&#45;&gt;12198</title>
<path fill="none" stroke="black" d="M620.17,-71.75C615.6,-63.03 610.95,-54.16 606.8,-46.26"/>
<polygon fill="black" stroke="black" points="609.96,-44.74 602.21,-37.51 603.76,-47.99 609.96,-44.74"/>
</g>
<!-- 12721 -->
<g id="node16" class="node">
<title>12721</title>
<path fill="#c0c0c0" stroke="black" d="M679.5,-36C679.5,-36 649.5,-36 649.5,-36 643.5,-36 637.5,-30 637.5,-24 637.5,-24 637.5,-12 637.5,-12 637.5,-6 643.5,0 649.5,0 649.5,0 679.5,0 679.5,0 685.5,0 691.5,-6 691.5,-12 691.5,-12 691.5,-24 691.5,-24 691.5,-30 685.5,-36 679.5,-36"/>
<text text-anchor="middle" x="664.5" y="-13.32" font-family="Helvetica,sans-Serif" font-size="14.00">(...)</text>
</g>
<!-- 12197&#45;&gt;12721 -->
<g id="edge15" class="edge">
<title>12197&#45;&gt;12721</title>
<path fill="none" stroke="black" d="M653.86,-71.75C655.54,-63.42 657.24,-54.97 658.78,-47.34"/>
<polygon fill="black" stroke="black" points="662.19,-48.15 660.74,-37.66 655.33,-46.77 662.19,-48.15"/>
</g>
<!-- 12927 -->
<g id="node18" class="node">
<title>12927</title>
<path fill="#f6d3ba" stroke="black" d="M986.5,-296.5C986.5,-296.5 844.5,-296.5 844.5,-296.5 838.5,-296.5 832.5,-290.5 832.5,-284.5 832.5,-284.5 832.5,-214.25 832.5,-214.25 832.5,-208.25 838.5,-202.25 844.5,-202.25 844.5,-202.25 986.5,-202.25 986.5,-202.25 992.5,-202.25 998.5,-208.25 998.5,-214.25 998.5,-214.25 998.5,-284.5 998.5,-284.5 998.5,-290.5 992.5,-296.5 986.5,-296.5"/>
<text text-anchor="middle" x="915.5" y="-279.2" font-family="Helvetica,sans-Serif" font-size="14.00">22_G &lt;= 0.5</text>
<text text-anchor="middle" x="915.5" y="-261.95" font-family="Helvetica,sans-Serif" font-size="14.00">entropy = 0.967</text>
<text text-anchor="middle" x="915.5" y="-244.7" font-family="Helvetica,sans-Serif" font-size="14.00">samples = 7058</text>
<text text-anchor="middle" x="915.5" y="-227.45" font-family="Helvetica,sans-Serif" font-size="14.00">value = [6794, 4416]</text>
<text text-anchor="middle" x="915.5" y="-210.2" font-family="Helvetica,sans-Serif" font-size="14.00">class = Animal</text>
</g>
<!-- 12926&#45;&gt;12927 -->
<g id="edge17" class="edge">
<title>12926&#45;&gt;12927</title>
<path fill="none" stroke="black" d="M915.5,-332.32C915.5,-324.42 915.5,-316.13 915.5,-307.98"/>
<polygon fill="black" stroke="black" points="919,-308.12 915.5,-298.12 912,-308.12 919,-308.12"/>
</g>
<!-- 16392 -->
<g id="node25" class="node">
<title>16392</title>
<path fill="#eca26c" stroke="black" d="M1250,-296.5C1250,-296.5 1117,-296.5 1117,-296.5 1111,-296.5 1105,-290.5 1105,-284.5 1105,-284.5 1105,-214.25 1105,-214.25 1105,-208.25 1111,-202.25 1117,-202.25 1117,-202.25 1250,-202.25 1250,-202.25 1256,-202.25 1262,-208.25 1262,-214.25 1262,-214.25 1262,-284.5 1262,-284.5 1262,-290.5 1256,-296.5 1250,-296.5"/>
<text text-anchor="middle" x="1183.5" y="-279.2" font-family="Helvetica,sans-Serif" font-size="14.00">27_A &lt;= 0.5</text>
<text text-anchor="middle" x="1183.5" y="-261.95" font-family="Helvetica,sans-Serif" font-size="14.00">entropy = 0.733</text>
<text text-anchor="middle" x="1183.5" y="-244.7" font-family="Helvetica,sans-Serif" font-size="14.00">samples = 856</text>
<text text-anchor="middle" x="1183.5" y="-227.45" font-family="Helvetica,sans-Serif" font-size="14.00">value = [1082, 280]</text>
<text text-anchor="middle" x="1183.5" y="-210.2" font-family="Helvetica,sans-Serif" font-size="14.00">class = Animal</text>
</g>
<!-- 12926&#45;&gt;16392 -->
<g id="edge24" class="edge">
<title>12926&#45;&gt;16392</title>
<path fill="none" stroke="black" d="M998.83,-338.75C1029.2,-324.21 1063.64,-307.73 1094.49,-292.97"/>
<polygon fill="black" stroke="black" points="1095.93,-296.16 1103.44,-288.69 1092.9,-289.85 1095.93,-296.16"/>
</g>
<!-- 12928 -->
<g id="node19" class="node">
<title>12928</title>
<path fill="#f9e4d5" stroke="black" d="M899.5,-166.25C899.5,-166.25 757.5,-166.25 757.5,-166.25 751.5,-166.25 745.5,-160.25 745.5,-154.25 745.5,-154.25 745.5,-84 745.5,-84 745.5,-78 751.5,-72 757.5,-72 757.5,-72 899.5,-72 899.5,-72 905.5,-72 911.5,-78 911.5,-84 911.5,-84 911.5,-154.25 911.5,-154.25 911.5,-160.25 905.5,-166.25 899.5,-166.25"/>
<text text-anchor="middle" x="828.5" y="-148.95" font-family="Helvetica,sans-Serif" font-size="14.00">22_U &lt;= 0.5</text>
<text text-anchor="middle" x="828.5" y="-131.7" font-family="Helvetica,sans-Serif" font-size="14.00">entropy = 0.99</text>
<text text-anchor="middle" x="828.5" y="-114.45" font-family="Helvetica,sans-Serif" font-size="14.00">samples = 5898</text>
<text text-anchor="middle" x="828.5" y="-97.2" font-family="Helvetica,sans-Serif" font-size="14.00">value = [5254, 4140]</text>
<text text-anchor="middle" x="828.5" y="-79.95" font-family="Helvetica,sans-Serif" font-size="14.00">class = Animal</text>
</g>
<!-- 12927&#45;&gt;12928 -->
<g id="edge18" class="edge">
<title>12927&#45;&gt;12928</title>
<path fill="none" stroke="black" d="M884.09,-202.07C878.3,-193.54 872.2,-184.54 866.25,-175.77"/>
<polygon fill="black" stroke="black" points="869.22,-173.92 860.71,-167.61 863.43,-177.85 869.22,-173.92"/>
</g>
<!-- 15963 -->
<g id="node22" class="node">
<title>15963</title>
<path fill="#ea985c" stroke="black" d="M1075,-166.25C1075,-166.25 942,-166.25 942,-166.25 936,-166.25 930,-160.25 930,-154.25 930,-154.25 930,-84 930,-84 930,-78 936,-72 942,-72 942,-72 1075,-72 1075,-72 1081,-72 1087,-78 1087,-84 1087,-84 1087,-154.25 1087,-154.25 1087,-160.25 1081,-166.25 1075,-166.25"/>
<text text-anchor="middle" x="1008.5" y="-148.95" font-family="Helvetica,sans-Serif" font-size="14.00">16_G &lt;= 0.5</text>
<text text-anchor="middle" x="1008.5" y="-131.7" font-family="Helvetica,sans-Serif" font-size="14.00">entropy = 0.615</text>
<text text-anchor="middle" x="1008.5" y="-114.45" font-family="Helvetica,sans-Serif" font-size="14.00">samples = 1160</text>
<text text-anchor="middle" x="1008.5" y="-97.2" font-family="Helvetica,sans-Serif" font-size="14.00">value = [1540, 276]</text>
<text text-anchor="middle" x="1008.5" y="-79.95" font-family="Helvetica,sans-Serif" font-size="14.00">class = Animal</text>
</g>
<!-- 12927&#45;&gt;15963 -->
<g id="edge21" class="edge">
<title>12927&#45;&gt;15963</title>
<path fill="none" stroke="black" d="M949.08,-202.07C955.33,-193.45 961.93,-184.35 968.35,-175.49"/>
<polygon fill="black" stroke="black" points="971.05,-177.73 974.09,-167.58 965.38,-173.62 971.05,-177.73"/>
</g>
<!-- 12929 -->
<g id="node20" class="node">
<title>12929</title>
<path fill="#c0c0c0" stroke="black" d="M789.5,-36C789.5,-36 759.5,-36 759.5,-36 753.5,-36 747.5,-30 747.5,-24 747.5,-24 747.5,-12 747.5,-12 747.5,-6 753.5,0 759.5,0 759.5,0 789.5,0 789.5,0 795.5,0 801.5,-6 801.5,-12 801.5,-12 801.5,-24 801.5,-24 801.5,-30 795.5,-36 789.5,-36"/>
<text text-anchor="middle" x="774.5" y="-13.32" font-family="Helvetica,sans-Serif" font-size="14.00">(...)</text>
</g>
<!-- 12928&#45;&gt;12929 -->
<g id="edge19" class="edge">
<title>12928&#45;&gt;12929</title>
<path fill="none" stroke="black" d="M803.24,-71.75C798.48,-63.03 793.66,-54.16 789.35,-46.26"/>
<polygon fill="black" stroke="black" points="792.44,-44.61 784.58,-37.5 786.29,-47.96 792.44,-44.61"/>
</g>
<!-- 15542 -->
<g id="node21" class="node">
<title>15542</title>
<path fill="#c0c0c0" stroke="black" d="M861.5,-36C861.5,-36 831.5,-36 831.5,-36 825.5,-36 819.5,-30 819.5,-24 819.5,-24 819.5,-12 819.5,-12 819.5,-6 825.5,0 831.5,0 831.5,0 861.5,0 861.5,0 867.5,0 873.5,-6 873.5,-12 873.5,-12 873.5,-24 873.5,-24 873.5,-30 867.5,-36 861.5,-36"/>
<text text-anchor="middle" x="846.5" y="-13.32" font-family="Helvetica,sans-Serif" font-size="14.00">(...)</text>
</g>
<!-- 12928&#45;&gt;15542 -->
<g id="edge20" class="edge">
<title>12928&#45;&gt;15542</title>
<path fill="none" stroke="black" d="M836.92,-71.75C838.43,-63.42 839.97,-54.97 841.35,-47.34"/>
<polygon fill="black" stroke="black" points="844.77,-48.13 843.11,-37.66 837.88,-46.88 844.77,-48.13"/>
</g>
<!-- 15964 -->
<g id="node23" class="node">
<title>15964</title>
<path fill="#c0c0c0" stroke="black" d="M984.5,-36C984.5,-36 954.5,-36 954.5,-36 948.5,-36 942.5,-30 942.5,-24 942.5,-24 942.5,-12 942.5,-12 942.5,-6 948.5,0 954.5,0 954.5,0 984.5,0 984.5,0 990.5,0 996.5,-6 996.5,-12 996.5,-12 996.5,-24 996.5,-24 996.5,-30 990.5,-36 984.5,-36"/>
<text text-anchor="middle" x="969.5" y="-13.32" font-family="Helvetica,sans-Serif" font-size="14.00">(...)</text>
</g>
<!-- 15963&#45;&gt;15964 -->
<g id="edge22" class="edge">
<title>15963&#45;&gt;15964</title>
<path fill="none" stroke="black" d="M990.26,-71.75C986.9,-63.22 983.49,-54.57 980.44,-46.8"/>
<polygon fill="black" stroke="black" points="983.73,-45.61 976.81,-37.58 977.21,-48.17 983.73,-45.61"/>
</g>
<!-- 16267 -->
<g id="node24" class="node">
<title>16267</title>
<path fill="#c0c0c0" stroke="black" d="M1056.5,-36C1056.5,-36 1026.5,-36 1026.5,-36 1020.5,-36 1014.5,-30 1014.5,-24 1014.5,-24 1014.5,-12 1014.5,-12 1014.5,-6 1020.5,0 1026.5,0 1026.5,0 1056.5,0 1056.5,0 1062.5,0 1068.5,-6 1068.5,-12 1068.5,-12 1068.5,-24 1068.5,-24 1068.5,-30 1062.5,-36 1056.5,-36"/>
<text text-anchor="middle" x="1041.5" y="-13.32" font-family="Helvetica,sans-Serif" font-size="14.00">(...)</text>
</g>
<!-- 15963&#45;&gt;16267 -->
<g id="edge23" class="edge">
<title>15963&#45;&gt;16267</title>
<path fill="none" stroke="black" d="M1023.94,-71.75C1026.74,-63.32 1029.59,-54.77 1032.16,-47.07"/>
<polygon fill="black" stroke="black" points="1035.47,-48.2 1035.3,-37.61 1028.83,-45.99 1035.47,-48.2"/>
</g>
<!-- 16393 -->
<g id="node26" class="node">
<title>16393</title>
<path fill="#eba06a" stroke="black" d="M1250,-166.25C1250,-166.25 1117,-166.25 1117,-166.25 1111,-166.25 1105,-160.25 1105,-154.25 1105,-154.25 1105,-84 1105,-84 1105,-78 1111,-72 1117,-72 1117,-72 1250,-72 1250,-72 1256,-72 1262,-78 1262,-84 1262,-84 1262,-154.25 1262,-154.25 1262,-160.25 1256,-166.25 1250,-166.25"/>
<text text-anchor="middle" x="1183.5" y="-148.95" font-family="Helvetica,sans-Serif" font-size="14.00">24_C &lt;= 0.5</text>
<text text-anchor="middle" x="1183.5" y="-131.7" font-family="Helvetica,sans-Serif" font-size="14.00">entropy = 0.72</text>
<text text-anchor="middle" x="1183.5" y="-114.45" font-family="Helvetica,sans-Serif" font-size="14.00">samples = 850</text>
<text text-anchor="middle" x="1183.5" y="-97.2" font-family="Helvetica,sans-Serif" font-size="14.00">value = [1082, 269]</text>
<text text-anchor="middle" x="1183.5" y="-79.95" font-family="Helvetica,sans-Serif" font-size="14.00">class = Animal</text>
</g>
<!-- 16392&#45;&gt;16393 -->
<g id="edge25" class="edge">
<title>16392&#45;&gt;16393</title>
<path fill="none" stroke="black" d="M1183.5,-202.07C1183.5,-194.17 1183.5,-185.88 1183.5,-177.73"/>
<polygon fill="black" stroke="black" points="1187,-177.87 1183.5,-167.87 1180,-177.87 1187,-177.87"/>
</g>
<!-- 16790 -->
<g id="node29" class="node">
<title>16790</title>
<path fill="#399de5" stroke="black" d="M1389,-157.62C1389,-157.62 1292,-157.62 1292,-157.62 1286,-157.62 1280,-151.62 1280,-145.62 1280,-145.62 1280,-92.62 1280,-92.62 1280,-86.62 1286,-80.62 1292,-80.62 1292,-80.62 1389,-80.62 1389,-80.62 1395,-80.62 1401,-86.62 1401,-92.62 1401,-92.62 1401,-145.62 1401,-145.62 1401,-151.62 1395,-157.62 1389,-157.62"/>
<text text-anchor="middle" x="1340.5" y="-140.32" font-family="Helvetica,sans-Serif" font-size="14.00">entropy = 0.0</text>
<text text-anchor="middle" x="1340.5" y="-123.08" font-family="Helvetica,sans-Serif" font-size="14.00">samples = 6</text>
<text text-anchor="middle" x="1340.5" y="-105.83" font-family="Helvetica,sans-Serif" font-size="14.00">value = [0, 11]</text>
<text text-anchor="middle" x="1340.5" y="-88.58" font-family="Helvetica,sans-Serif" font-size="14.00">class = Plant</text>
</g>
<!-- 16392&#45;&gt;16790 -->
<g id="edge28" class="edge">
<title>16392&#45;&gt;16790</title>
<path fill="none" stroke="black" d="M1240.18,-202.07C1255.01,-189.96 1270.97,-176.92 1285.7,-164.89"/>
<polygon fill="black" stroke="black" points="1287.52,-167.93 1293.05,-158.89 1283.09,-162.51 1287.52,-167.93"/>
</g>
<!-- 16394 -->
<g id="node27" class="node">
<title>16394</title>
<path fill="#c0c0c0" stroke="black" d="M1162.5,-36C1162.5,-36 1132.5,-36 1132.5,-36 1126.5,-36 1120.5,-30 1120.5,-24 1120.5,-24 1120.5,-12 1120.5,-12 1120.5,-6 1126.5,0 1132.5,0 1132.5,0 1162.5,0 1162.5,0 1168.5,0 1174.5,-6 1174.5,-12 1174.5,-12 1174.5,-24 1174.5,-24 1174.5,-30 1168.5,-36 1162.5,-36"/>
<text text-anchor="middle" x="1147.5" y="-13.32" font-family="Helvetica,sans-Serif" font-size="14.00">(...)</text>
</g>
<!-- 16393&#45;&gt;16394 -->
<g id="edge26" class="edge">
<title>16393&#45;&gt;16394</title>
<path fill="none" stroke="black" d="M1166.66,-71.75C1163.56,-63.22 1160.42,-54.57 1157.6,-46.8"/>
<polygon fill="black" stroke="black" points="1160.96,-45.8 1154.25,-37.6 1154.38,-48.19 1160.96,-45.8"/>
</g>
<!-- 16775 -->
<g id="node28" class="node">
<title>16775</title>
<path fill="#c0c0c0" stroke="black" d="M1234.5,-36C1234.5,-36 1204.5,-36 1204.5,-36 1198.5,-36 1192.5,-30 1192.5,-24 1192.5,-24 1192.5,-12 1192.5,-12 1192.5,-6 1198.5,0 1204.5,0 1204.5,0 1234.5,0 1234.5,0 1240.5,0 1246.5,-6 1246.5,-12 1246.5,-12 1246.5,-24 1246.5,-24 1246.5,-30 1240.5,-36 1234.5,-36"/>
<text text-anchor="middle" x="1219.5" y="-13.32" font-family="Helvetica,sans-Serif" font-size="14.00">(...)</text>
</g>
<!-- 16393&#45;&gt;16775 -->
<g id="edge27" class="edge">
<title>16393&#45;&gt;16775</title>
<path fill="none" stroke="black" d="M1200.34,-71.75C1203.44,-63.22 1206.58,-54.57 1209.4,-46.8"/>
<polygon fill="black" stroke="black" points="1212.62,-48.19 1212.75,-37.6 1206.04,-45.8 1212.62,-48.19"/>
</g>
</g>
</svg>
