<?xml version="1.0" encoding="UTF-8" standalone="no"?>
<!DOCTYPE svg PUBLIC "-//W3C//DTD SVG 1.1//EN"
 "http://www.w3.org/Graphics/SVG/1.1/DTD/svg11.dtd">
<!-- Generated by graphviz version 12.0.0 (20240803.0821)
 -->
<!-- Title: Tree Pages: 1 -->
<svg width="1374pt" height="565pt"
 viewBox="0.00 0.00 1373.50 565.00" xmlns="http://www.w3.org/2000/svg" xmlns:xlink="http://www.w3.org/1999/xlink">
<g id="graph0" class="graph" transform="scale(1 1) rotate(0) translate(4 561)">
<title>Tree</title>
<polygon fill="white" stroke="none" points="-4,4 -4,-561 1369.5,-561 1369.5,4 -4,4"/>
<!-- 0 -->
<g id="node1" class="node">
<title>0</title>
<path fill="#fffefe" stroke="black" d="M780,-557C780,-557 620,-557 620,-557 614,-557 608,-551 608,-545 608,-545 608,-474.75 608,-474.75 608,-468.75 614,-462.75 620,-462.75 620,-462.75 780,-462.75 780,-462.75 786,-462.75 792,-468.75 792,-474.75 792,-474.75 792,-545 792,-545 792,-551 786,-557 780,-557"/>
<text text-anchor="middle" x="700" y="-539.7" font-family="Helvetica,sans-Serif" font-size="14.00">22_A &lt;= 0.5</text>
<text text-anchor="middle" x="700" y="-522.45" font-family="Helvetica,sans-Serif" font-size="14.00">entropy = 1.0</text>
<text text-anchor="middle" x="700" y="-505.2" font-family="Helvetica,sans-Serif" font-size="14.00">samples = 38090</text>
<text text-anchor="middle" x="700" y="-487.95" font-family="Helvetica,sans-Serif" font-size="14.00">value = [30242, 30103]</text>
<text text-anchor="middle" x="700" y="-470.7" font-family="Helvetica,sans-Serif" font-size="14.00">class = Animal</text>
</g>
<!-- 1 -->
<g id="node2" class="node">
<title>1</title>
<path fill="#ebf5fc" stroke="black" d="M616,-426.75C616,-426.75 456,-426.75 456,-426.75 450,-426.75 444,-420.75 444,-414.75 444,-414.75 444,-344.5 444,-344.5 444,-338.5 450,-332.5 456,-332.5 456,-332.5 616,-332.5 616,-332.5 622,-332.5 628,-338.5 628,-344.5 628,-344.5 628,-414.75 628,-414.75 628,-420.75 622,-426.75 616,-426.75"/>
<text text-anchor="middle" x="536" y="-409.45" font-family="Helvetica,sans-Serif" font-size="14.00">22_U &lt;= 0.5</text>
<text text-anchor="middle" x="536" y="-392.2" font-family="Helvetica,sans-Serif" font-size="14.00">entropy = 0.998</text>
<text text-anchor="middle" x="536" y="-374.95" font-family="Helvetica,sans-Serif" font-size="14.00">samples = 33886</text>
<text text-anchor="middle" x="536" y="-357.7" font-family="Helvetica,sans-Serif" font-size="14.00">value = [25413, 28285]</text>
<text text-anchor="middle" x="536" y="-340.45" font-family="Helvetica,sans-Serif" font-size="14.00">class = Plant</text>
</g>
<!-- 0&#45;&gt;1 -->
<g id="edge1" class="edge">
<title>0&#45;&gt;1</title>
<path fill="none" stroke="black" d="M640.79,-462.57C628.91,-453.28 616.32,-443.44 604.16,-433.93"/>
<polygon fill="black" stroke="black" points="606.62,-431.41 596.59,-428.01 602.31,-436.92 606.62,-431.41"/>
<text text-anchor="middle" x="598.43" y="-447.21" font-family="Helvetica,sans-Serif" font-size="14.00">True</text>
</g>
<!-- 14736 -->
<g id="node17" class="node">
<title>14736</title>
<path fill="#efb084" stroke="black" d="M946,-426.75C946,-426.75 804,-426.75 804,-426.75 798,-426.75 792,-420.75 792,-414.75 792,-414.75 792,-344.5 792,-344.5 792,-338.5 798,-332.5 804,-332.5 804,-332.5 946,-332.5 946,-332.5 952,-332.5 958,-338.5 958,-344.5 958,-344.5 958,-414.75 958,-414.75 958,-420.75 952,-426.75 946,-426.75"/>
<text text-anchor="middle" x="875" y="-409.45" font-family="Helvetica,sans-Serif" font-size="14.00">19_C &lt;= 0.5</text>
<text text-anchor="middle" x="875" y="-392.2" font-family="Helvetica,sans-Serif" font-size="14.00">entropy = 0.846</text>
<text text-anchor="middle" x="875" y="-374.95" font-family="Helvetica,sans-Serif" font-size="14.00">samples = 4204</text>
<text text-anchor="middle" x="875" y="-357.7" font-family="Helvetica,sans-Serif" font-size="14.00">value = [4829, 1818]</text>
<text text-anchor="middle" x="875" y="-340.45" font-family="Helvetica,sans-Serif" font-size="14.00">class = Animal</text>
</g>
<!-- 0&#45;&gt;14736 -->
<g id="edge16" class="edge">
<title>0&#45;&gt;14736</title>
<path fill="none" stroke="black" d="M763.18,-462.57C775.99,-453.19 789.55,-443.25 802.64,-433.65"/>
<polygon fill="black" stroke="black" points="804.4,-436.7 810.4,-427.97 800.26,-431.06 804.4,-436.7"/>
<text text-anchor="middle" x="807.81" y="-447.11" font-family="Helvetica,sans-Serif" font-size="14.00">False</text>
</g>
<!-- 2 -->
<g id="node3" class="node">
<title>2</title>
<path fill="#c5e2f7" stroke="black" d="M356,-296.5C356,-296.5 196,-296.5 196,-296.5 190,-296.5 184,-290.5 184,-284.5 184,-284.5 184,-214.25 184,-214.25 184,-208.25 190,-202.25 196,-202.25 196,-202.25 356,-202.25 356,-202.25 362,-202.25 368,-208.25 368,-214.25 368,-214.25 368,-284.5 368,-284.5 368,-290.5 362,-296.5 356,-296.5"/>
<text text-anchor="middle" x="276" y="-279.2" font-family="Helvetica,sans-Serif" font-size="14.00">23_C &lt;= 0.5</text>
<text text-anchor="middle" x="276" y="-261.95" font-family="Helvetica,sans-Serif" font-size="14.00">entropy = 0.978</text>
<text text-anchor="middle" x="276" y="-244.7" font-family="Helvetica,sans-Serif" font-size="14.00">samples = 28786</text>
<text text-anchor="middle" x="276" y="-227.45" font-family="Helvetica,sans-Serif" font-size="14.00">value = [18855, 26761]</text>
<text text-anchor="middle" x="276" y="-210.2" font-family="Helvetica,sans-Serif" font-size="14.00">class = Plant</text>
</g>
<!-- 1&#45;&gt;2 -->
<g id="edge2" class="edge">
<title>1&#45;&gt;2</title>
<path fill="none" stroke="black" d="M443.6,-333.05C422.43,-322.61 399.81,-311.45 378.25,-300.81"/>
<polygon fill="black" stroke="black" points="379.97,-297.76 369.46,-296.48 376.88,-304.04 379.97,-297.76"/>
</g>
<!-- 12867 -->
<g id="node10" class="node">
<title>12867</title>
<path fill="#eb9e67" stroke="black" d="M607,-296.5C607,-296.5 465,-296.5 465,-296.5 459,-296.5 453,-290.5 453,-284.5 453,-284.5 453,-214.25 453,-214.25 453,-208.25 459,-202.25 465,-202.25 465,-202.25 607,-202.25 607,-202.25 613,-202.25 619,-208.25 619,-214.25 619,-214.25 619,-284.5 619,-284.5 619,-290.5 613,-296.5 607,-296.5"/>
<text text-anchor="middle" x="536" y="-279.2" font-family="Helvetica,sans-Serif" font-size="14.00">1_G &lt;= 0.5</text>
<text text-anchor="middle" x="536" y="-261.95" font-family="Helvetica,sans-Serif" font-size="14.00">entropy = 0.698</text>
<text text-anchor="middle" x="536" y="-244.7" font-family="Helvetica,sans-Serif" font-size="14.00">samples = 5100</text>
<text text-anchor="middle" x="536" y="-227.45" font-family="Helvetica,sans-Serif" font-size="14.00">value = [6558, 1524]</text>
<text text-anchor="middle" x="536" y="-210.2" font-family="Helvetica,sans-Serif" font-size="14.00">class = Animal</text>
</g>
<!-- 1&#45;&gt;12867 -->
<g id="edge9" class="edge">
<title>1&#45;&gt;12867</title>
<path fill="none" stroke="black" d="M536,-332.32C536,-324.42 536,-316.13 536,-307.98"/>
<polygon fill="black" stroke="black" points="539.5,-308.12 536,-298.12 532.5,-308.12 539.5,-308.12"/>
</g>
<!-- 3 -->
<g id="node4" class="node">
<title>3</title>
<path fill="#bfdff7" stroke="black" d="M172,-166.25C172,-166.25 12,-166.25 12,-166.25 6,-166.25 0,-160.25 0,-154.25 0,-154.25 0,-84 0,-84 0,-78 6,-72 12,-72 12,-72 172,-72 172,-72 178,-72 184,-78 184,-84 184,-84 184,-154.25 184,-154.25 184,-160.25 178,-166.25 172,-166.25"/>
<text text-anchor="middle" x="92" y="-148.95" font-family="Helvetica,sans-Serif" font-size="14.00">8_C &lt;= 0.5</text>
<text text-anchor="middle" x="92" y="-131.7" font-family="Helvetica,sans-Serif" font-size="14.00">entropy = 0.973</text>
<text text-anchor="middle" x="92" y="-114.45" font-family="Helvetica,sans-Serif" font-size="14.00">samples = 28007</text>
<text text-anchor="middle" x="92" y="-97.2" font-family="Helvetica,sans-Serif" font-size="14.00">value = [17914, 26502]</text>
<text text-anchor="middle" x="92" y="-79.95" font-family="Helvetica,sans-Serif" font-size="14.00">class = Plant</text>
</g>
<!-- 2&#45;&gt;3 -->
<g id="edge3" class="edge">
<title>2&#45;&gt;3</title>
<path fill="none" stroke="black" d="M209.31,-201.89C195.94,-192.57 181.8,-182.72 168.14,-173.19"/>
<polygon fill="black" stroke="black" points="170.22,-170.38 160.01,-167.53 166.21,-176.12 170.22,-170.38"/>
</g>
<!-- 12526 -->
<g id="node7" class="node">
<title>12526</title>
<path fill="#eca46f" stroke="black" d="M338,-166.25C338,-166.25 214,-166.25 214,-166.25 208,-166.25 202,-160.25 202,-154.25 202,-154.25 202,-84 202,-84 202,-78 208,-72 214,-72 214,-72 338,-72 338,-72 344,-72 350,-78 350,-84 350,-84 350,-154.25 350,-154.25 350,-160.25 344,-166.25 338,-166.25"/>
<text text-anchor="middle" x="276" y="-148.95" font-family="Helvetica,sans-Serif" font-size="14.00">7_G &lt;= 0.5</text>
<text text-anchor="middle" x="276" y="-131.7" font-family="Helvetica,sans-Serif" font-size="14.00">entropy = 0.752</text>
<text text-anchor="middle" x="276" y="-114.45" font-family="Helvetica,sans-Serif" font-size="14.00">samples = 779</text>
<text text-anchor="middle" x="276" y="-97.2" font-family="Helvetica,sans-Serif" font-size="14.00">value = [941, 259]</text>
<text text-anchor="middle" x="276" y="-79.95" font-family="Helvetica,sans-Serif" font-size="14.00">class = Animal</text>
</g>
<!-- 2&#45;&gt;12526 -->
<g id="edge6" class="edge">
<title>2&#45;&gt;12526</title>
<path fill="none" stroke="black" d="M276,-202.07C276,-194.17 276,-185.88 276,-177.73"/>
<polygon fill="black" stroke="black" points="279.5,-177.87 276,-167.87 272.5,-177.87 279.5,-177.87"/>
</g>
<!-- 4 -->
<g id="node5" class="node">
<title>4</title>
<path fill="#c0c0c0" stroke="black" d="M71,-36C71,-36 41,-36 41,-36 35,-36 29,-30 29,-24 29,-24 29,-12 29,-12 29,-6 35,0 41,0 41,0 71,0 71,0 77,0 83,-6 83,-12 83,-12 83,-24 83,-24 83,-30 77,-36 71,-36"/>
<text text-anchor="middle" x="56" y="-13.32" font-family="Helvetica,sans-Serif" font-size="14.00">(...)</text>
</g>
<!-- 3&#45;&gt;4 -->
<g id="edge4" class="edge">
<title>3&#45;&gt;4</title>
<path fill="none" stroke="black" d="M75.16,-71.75C72.06,-63.22 68.92,-54.57 66.1,-46.8"/>
<polygon fill="black" stroke="black" points="69.46,-45.8 62.75,-37.6 62.88,-48.19 69.46,-45.8"/>
</g>
<!-- 9745 -->
<g id="node6" class="node">
<title>9745</title>
<path fill="#c0c0c0" stroke="black" d="M143,-36C143,-36 113,-36 113,-36 107,-36 101,-30 101,-24 101,-24 101,-12 101,-12 101,-6 107,0 113,0 113,0 143,0 143,0 149,0 155,-6 155,-12 155,-12 155,-24 155,-24 155,-30 149,-36 143,-36"/>
<text text-anchor="middle" x="128" y="-13.32" font-family="Helvetica,sans-Serif" font-size="14.00">(...)</text>
</g>
<!-- 3&#45;&gt;9745 -->
<g id="edge5" class="edge">
<title>3&#45;&gt;9745</title>
<path fill="none" stroke="black" d="M108.84,-71.75C111.94,-63.22 115.08,-54.57 117.9,-46.8"/>
<polygon fill="black" stroke="black" points="121.12,-48.19 121.25,-37.6 114.54,-45.8 121.12,-48.19"/>
</g>
<!-- 12527 -->
<g id="node8" class="node">
<title>12527</title>
<path fill="#c0c0c0" stroke="black" d="M248,-36C248,-36 218,-36 218,-36 212,-36 206,-30 206,-24 206,-24 206,-12 206,-12 206,-6 212,0 218,0 218,0 248,0 248,0 254,0 260,-6 260,-12 260,-12 260,-24 260,-24 260,-30 254,-36 248,-36"/>
<text text-anchor="middle" x="233" y="-13.32" font-family="Helvetica,sans-Serif" font-size="14.00">(...)</text>
</g>
<!-- 12526&#45;&gt;12527 -->
<g id="edge7" class="edge">
<title>12526&#45;&gt;12527</title>
<path fill="none" stroke="black" d="M255.88,-71.75C252.14,-63.12 248.34,-54.36 244.94,-46.53"/>
<polygon fill="black" stroke="black" points="248.24,-45.34 241.05,-37.56 241.82,-48.13 248.24,-45.34"/>
</g>
<!-- 12788 -->
<g id="node9" class="node">
<title>12788</title>
<path fill="#c0c0c0" stroke="black" d="M320,-36C320,-36 290,-36 290,-36 284,-36 278,-30 278,-24 278,-24 278,-12 278,-12 278,-6 284,0 290,0 290,0 320,0 320,0 326,0 332,-6 332,-12 332,-12 332,-24 332,-24 332,-30 326,-36 320,-36"/>
<text text-anchor="middle" x="305" y="-13.32" font-family="Helvetica,sans-Serif" font-size="14.00">(...)</text>
</g>
<!-- 12526&#45;&gt;12788 -->
<g id="edge8" class="edge">
<title>12526&#45;&gt;12788</title>
<path fill="none" stroke="black" d="M289.57,-71.75C292.03,-63.32 294.54,-54.77 296.79,-47.07"/>
<polygon fill="black" stroke="black" points="300.1,-48.21 299.55,-37.63 293.38,-46.24 300.1,-48.21"/>
</g>
<!-- 12868 -->
<g id="node11" class="node">
<title>12868</title>
<path fill="#eb9d65" stroke="black" d="M522,-166.25C522,-166.25 380,-166.25 380,-166.25 374,-166.25 368,-160.25 368,-154.25 368,-154.25 368,-84 368,-84 368,-78 374,-72 380,-72 380,-72 522,-72 522,-72 528,-72 534,-78 534,-84 534,-84 534,-154.25 534,-154.25 534,-160.25 528,-166.25 522,-166.25"/>
<text text-anchor="middle" x="451" y="-148.95" font-family="Helvetica,sans-Serif" font-size="14.00">8_A &lt;= 0.5</text>
<text text-anchor="middle" x="451" y="-131.7" font-family="Helvetica,sans-Serif" font-size="14.00">entropy = 0.686</text>
<text text-anchor="middle" x="451" y="-114.45" font-family="Helvetica,sans-Serif" font-size="14.00">samples = 4651</text>
<text text-anchor="middle" x="451" y="-97.2" font-family="Helvetica,sans-Serif" font-size="14.00">value = [6017, 1345]</text>
<text text-anchor="middle" x="451" y="-79.95" font-family="Helvetica,sans-Serif" font-size="14.00">class = Animal</text>
</g>
<!-- 12867&#45;&gt;12868 -->
<g id="edge10" class="edge">
<title>12867&#45;&gt;12868</title>
<path fill="none" stroke="black" d="M505.31,-202.07C499.66,-193.54 493.7,-184.54 487.88,-175.77"/>
<polygon fill="black" stroke="black" points="490.92,-174.02 482.48,-167.62 485.09,-177.89 490.92,-174.02"/>
</g>
<!-- 14495 -->
<g id="node14" class="node">
<title>14495</title>
<path fill="#eeab7b" stroke="black" d="M688,-166.25C688,-166.25 564,-166.25 564,-166.25 558,-166.25 552,-160.25 552,-154.25 552,-154.25 552,-84 552,-84 552,-78 558,-72 564,-72 564,-72 688,-72 688,-72 694,-72 700,-78 700,-84 700,-84 700,-154.25 700,-154.25 700,-160.25 694,-166.25 688,-166.25"/>
<text text-anchor="middle" x="626" y="-148.95" font-family="Helvetica,sans-Serif" font-size="14.00">2_G &lt;= 0.5</text>
<text text-anchor="middle" x="626" y="-131.7" font-family="Helvetica,sans-Serif" font-size="14.00">entropy = 0.809</text>
<text text-anchor="middle" x="626" y="-114.45" font-family="Helvetica,sans-Serif" font-size="14.00">samples = 449</text>
<text text-anchor="middle" x="626" y="-97.2" font-family="Helvetica,sans-Serif" font-size="14.00">value = [541, 179]</text>
<text text-anchor="middle" x="626" y="-79.95" font-family="Helvetica,sans-Serif" font-size="14.00">class = Animal</text>
</g>
<!-- 12867&#45;&gt;14495 -->
<g id="edge13" class="edge">
<title>12867&#45;&gt;14495</title>
<path fill="none" stroke="black" d="M568.49,-202.07C574.48,-193.54 580.79,-184.54 586.95,-175.77"/>
<polygon fill="black" stroke="black" points="589.81,-177.79 592.69,-167.6 584.08,-173.77 589.81,-177.79"/>
</g>
<!-- 12869 -->
<g id="node12" class="node">
<title>12869</title>
<path fill="#c0c0c0" stroke="black" d="M423,-36C423,-36 393,-36 393,-36 387,-36 381,-30 381,-24 381,-24 381,-12 381,-12 381,-6 387,0 393,0 393,0 423,0 423,0 429,0 435,-6 435,-12 435,-12 435,-24 435,-24 435,-30 429,-36 423,-36"/>
<text text-anchor="middle" x="408" y="-13.32" font-family="Helvetica,sans-Serif" font-size="14.00">(...)</text>
</g>
<!-- 12868&#45;&gt;12869 -->
<g id="edge11" class="edge">
<title>12868&#45;&gt;12869</title>
<path fill="none" stroke="black" d="M430.88,-71.75C427.14,-63.12 423.34,-54.36 419.94,-46.53"/>
<polygon fill="black" stroke="black" points="423.24,-45.34 416.05,-37.56 416.82,-48.13 423.24,-45.34"/>
</g>
<!-- 14046 -->
<g id="node13" class="node">
<title>14046</title>
<path fill="#c0c0c0" stroke="black" d="M495,-36C495,-36 465,-36 465,-36 459,-36 453,-30 453,-24 453,-24 453,-12 453,-12 453,-6 459,0 465,0 465,0 495,0 495,0 501,0 507,-6 507,-12 507,-12 507,-24 507,-24 507,-30 501,-36 495,-36"/>
<text text-anchor="middle" x="480" y="-13.32" font-family="Helvetica,sans-Serif" font-size="14.00">(...)</text>
</g>
<!-- 12868&#45;&gt;14046 -->
<g id="edge12" class="edge">
<title>12868&#45;&gt;14046</title>
<path fill="none" stroke="black" d="M464.57,-71.75C467.03,-63.32 469.54,-54.77 471.79,-47.07"/>
<polygon fill="black" stroke="black" points="475.1,-48.21 474.55,-37.63 468.38,-46.24 475.1,-48.21"/>
</g>
<!-- 14496 -->
<g id="node15" class="node">
<title>14496</title>
<path fill="#c0c0c0" stroke="black" d="M582,-36C582,-36 552,-36 552,-36 546,-36 540,-30 540,-24 540,-24 540,-12 540,-12 540,-6 546,0 552,0 552,0 582,0 582,0 588,0 594,-6 594,-12 594,-12 594,-24 594,-24 594,-30 588,-36 582,-36"/>
<text text-anchor="middle" x="567" y="-13.32" font-family="Helvetica,sans-Serif" font-size="14.00">(...)</text>
</g>
<!-- 14495&#45;&gt;14496 -->
<g id="edge14" class="edge">
<title>14495&#45;&gt;14496</title>
<path fill="none" stroke="black" d="M598.4,-71.75C593.15,-62.93 587.81,-53.96 583.06,-45.99"/>
<polygon fill="black" stroke="black" points="586.12,-44.28 578,-37.47 580.1,-47.86 586.12,-44.28"/>
</g>
<!-- 14679 -->
<g id="node16" class="node">
<title>14679</title>
<path fill="#c0c0c0" stroke="black" d="M654,-36C654,-36 624,-36 624,-36 618,-36 612,-30 612,-24 612,-24 612,-12 612,-12 612,-6 618,0 624,0 624,0 654,0 654,0 660,0 666,-6 666,-12 666,-12 666,-24 666,-24 666,-30 660,-36 654,-36"/>
<text text-anchor="middle" x="639" y="-13.32" font-family="Helvetica,sans-Serif" font-size="14.00">(...)</text>
</g>
<!-- 14495&#45;&gt;14679 -->
<g id="edge15" class="edge">
<title>14495&#45;&gt;14679</title>
<path fill="none" stroke="black" d="M632.08,-71.75C633.17,-63.42 634.28,-54.97 635.28,-47.34"/>
<polygon fill="black" stroke="black" points="638.72,-48.04 636.55,-37.67 631.78,-47.13 638.72,-48.04"/>
</g>
<!-- 14737 -->
<g id="node18" class="node">
<title>14737</title>
<path fill="#eda674" stroke="black" d="M946,-296.5C946,-296.5 804,-296.5 804,-296.5 798,-296.5 792,-290.5 792,-284.5 792,-284.5 792,-214.25 792,-214.25 792,-208.25 798,-202.25 804,-202.25 804,-202.25 946,-202.25 946,-202.25 952,-202.25 958,-208.25 958,-214.25 958,-214.25 958,-284.5 958,-284.5 958,-290.5 952,-296.5 946,-296.5"/>
<text text-anchor="middle" x="875" y="-279.2" font-family="Helvetica,sans-Serif" font-size="14.00">10_C &lt;= 0.5</text>
<text text-anchor="middle" x="875" y="-261.95" font-family="Helvetica,sans-Serif" font-size="14.00">entropy = 0.777</text>
<text text-anchor="middle" x="875" y="-244.7" font-family="Helvetica,sans-Serif" font-size="14.00">samples = 2924</text>
<text text-anchor="middle" x="875" y="-227.45" font-family="Helvetica,sans-Serif" font-size="14.00">value = [3576, 1064]</text>
<text text-anchor="middle" x="875" y="-210.2" font-family="Helvetica,sans-Serif" font-size="14.00">class = Animal</text>
</g>
<!-- 14736&#45;&gt;14737 -->
<g id="edge17" class="edge">
<title>14736&#45;&gt;14737</title>
<path fill="none" stroke="black" d="M875,-332.32C875,-324.42 875,-316.13 875,-307.98"/>
<polygon fill="black" stroke="black" points="878.5,-308.12 875,-298.12 871.5,-308.12 878.5,-308.12"/>
</g>
<!-- 16094 -->
<g id="node25" class="node">
<title>16094</title>
<path fill="#f5cdb0" stroke="black" d="M1200.5,-296.5C1200.5,-296.5 1067.5,-296.5 1067.5,-296.5 1061.5,-296.5 1055.5,-290.5 1055.5,-284.5 1055.5,-284.5 1055.5,-214.25 1055.5,-214.25 1055.5,-208.25 1061.5,-202.25 1067.5,-202.25 1067.5,-202.25 1200.5,-202.25 1200.5,-202.25 1206.5,-202.25 1212.5,-208.25 1212.5,-214.25 1212.5,-214.25 1212.5,-284.5 1212.5,-284.5 1212.5,-290.5 1206.5,-296.5 1200.5,-296.5"/>
<text text-anchor="middle" x="1134" y="-279.2" font-family="Helvetica,sans-Serif" font-size="14.00">17_C &lt;= 0.5</text>
<text text-anchor="middle" x="1134" y="-261.95" font-family="Helvetica,sans-Serif" font-size="14.00">entropy = 0.955</text>
<text text-anchor="middle" x="1134" y="-244.7" font-family="Helvetica,sans-Serif" font-size="14.00">samples = 1280</text>
<text text-anchor="middle" x="1134" y="-227.45" font-family="Helvetica,sans-Serif" font-size="14.00">value = [1253, 754]</text>
<text text-anchor="middle" x="1134" y="-210.2" font-family="Helvetica,sans-Serif" font-size="14.00">class = Animal</text>
</g>
<!-- 14736&#45;&gt;16094 -->
<g id="edge24" class="edge">
<title>14736&#45;&gt;16094</title>
<path fill="none" stroke="black" d="M958.37,-337.34C986.03,-323.64 1016.92,-308.35 1044.99,-294.45"/>
<polygon fill="black" stroke="black" points="1046.42,-297.65 1053.83,-290.07 1043.32,-291.37 1046.42,-297.65"/>
</g>
<!-- 14738 -->
<g id="node19" class="node">
<title>14738</title>
<path fill="#edaa79" stroke="black" d="M863.5,-166.25C863.5,-166.25 730.5,-166.25 730.5,-166.25 724.5,-166.25 718.5,-160.25 718.5,-154.25 718.5,-154.25 718.5,-84 718.5,-84 718.5,-78 724.5,-72 730.5,-72 730.5,-72 863.5,-72 863.5,-72 869.5,-72 875.5,-78 875.5,-84 875.5,-84 875.5,-154.25 875.5,-154.25 875.5,-160.25 869.5,-166.25 863.5,-166.25"/>
<text text-anchor="middle" x="797" y="-148.95" font-family="Helvetica,sans-Serif" font-size="14.00">20_A &lt;= 0.5</text>
<text text-anchor="middle" x="797" y="-131.7" font-family="Helvetica,sans-Serif" font-size="14.00">entropy = 0.804</text>
<text text-anchor="middle" x="797" y="-114.45" font-family="Helvetica,sans-Serif" font-size="14.00">samples = 2237</text>
<text text-anchor="middle" x="797" y="-97.2" font-family="Helvetica,sans-Serif" font-size="14.00">value = [2696, 877]</text>
<text text-anchor="middle" x="797" y="-79.95" font-family="Helvetica,sans-Serif" font-size="14.00">class = Animal</text>
</g>
<!-- 14737&#45;&gt;14738 -->
<g id="edge18" class="edge">
<title>14737&#45;&gt;14738</title>
<path fill="none" stroke="black" d="M846.84,-202.07C841.7,-193.63 836.3,-184.74 831.01,-176.05"/>
<polygon fill="black" stroke="black" points="834.09,-174.38 825.9,-167.65 828.11,-178.01 834.09,-174.38"/>
</g>
<!-- 15837 -->
<g id="node22" class="node">
<title>15837</title>
<path fill="#eb9c63" stroke="black" d="M1030,-166.25C1030,-166.25 906,-166.25 906,-166.25 900,-166.25 894,-160.25 894,-154.25 894,-154.25 894,-84 894,-84 894,-78 900,-72 906,-72 906,-72 1030,-72 1030,-72 1036,-72 1042,-78 1042,-84 1042,-84 1042,-154.25 1042,-154.25 1042,-160.25 1036,-166.25 1030,-166.25"/>
<text text-anchor="middle" x="968" y="-148.95" font-family="Helvetica,sans-Serif" font-size="14.00">18_C &lt;= 0.5</text>
<text text-anchor="middle" x="968" y="-131.7" font-family="Helvetica,sans-Serif" font-size="14.00">entropy = 0.67</text>
<text text-anchor="middle" x="968" y="-114.45" font-family="Helvetica,sans-Serif" font-size="14.00">samples = 687</text>
<text text-anchor="middle" x="968" y="-97.2" font-family="Helvetica,sans-Serif" font-size="14.00">value = [880, 187]</text>
<text text-anchor="middle" x="968" y="-79.95" font-family="Helvetica,sans-Serif" font-size="14.00">class = Animal</text>
</g>
<!-- 14737&#45;&gt;15837 -->
<g id="edge21" class="edge">
<title>14737&#45;&gt;15837</title>
<path fill="none" stroke="black" d="M908.58,-202.07C914.83,-193.45 921.43,-184.35 927.85,-175.49"/>
<polygon fill="black" stroke="black" points="930.55,-177.73 933.59,-167.58 924.88,-173.62 930.55,-177.73"/>
</g>
<!-- 14739 -->
<g id="node20" class="node">
<title>14739</title>
<path fill="#c0c0c0" stroke="black" d="M753,-36C753,-36 723,-36 723,-36 717,-36 711,-30 711,-24 711,-24 711,-12 711,-12 711,-6 717,0 723,0 723,0 753,0 753,0 759,0 765,-6 765,-12 765,-12 765,-24 765,-24 765,-30 759,-36 753,-36"/>
<text text-anchor="middle" x="738" y="-13.32" font-family="Helvetica,sans-Serif" font-size="14.00">(...)</text>
</g>
<!-- 14738&#45;&gt;14739 -->
<g id="edge19" class="edge">
<title>14738&#45;&gt;14739</title>
<path fill="none" stroke="black" d="M769.4,-71.75C764.15,-62.93 758.81,-53.96 754.06,-45.99"/>
<polygon fill="black" stroke="black" points="757.12,-44.28 749,-37.47 751.1,-47.86 757.12,-44.28"/>
</g>
<!-- 15592 -->
<g id="node21" class="node">
<title>15592</title>
<path fill="#c0c0c0" stroke="black" d="M825,-36C825,-36 795,-36 795,-36 789,-36 783,-30 783,-24 783,-24 783,-12 783,-12 783,-6 789,0 795,0 795,0 825,0 825,0 831,0 837,-6 837,-12 837,-12 837,-24 837,-24 837,-30 831,-36 825,-36"/>
<text text-anchor="middle" x="810" y="-13.32" font-family="Helvetica,sans-Serif" font-size="14.00">(...)</text>
</g>
<!-- 14738&#45;&gt;15592 -->
<g id="edge20" class="edge">
<title>14738&#45;&gt;15592</title>
<path fill="none" stroke="black" d="M803.08,-71.75C804.17,-63.42 805.28,-54.97 806.28,-47.34"/>
<polygon fill="black" stroke="black" points="809.72,-48.04 807.55,-37.67 802.78,-47.13 809.72,-48.04"/>
</g>
<!-- 15838 -->
<g id="node23" class="node">
<title>15838</title>
<path fill="#c0c0c0" stroke="black" d="M922,-36C922,-36 892,-36 892,-36 886,-36 880,-30 880,-24 880,-24 880,-12 880,-12 880,-6 886,0 892,0 892,0 922,0 922,0 928,0 934,-6 934,-12 934,-12 934,-24 934,-24 934,-30 928,-36 922,-36"/>
<text text-anchor="middle" x="907" y="-13.32" font-family="Helvetica,sans-Serif" font-size="14.00">(...)</text>
</g>
<!-- 15837&#45;&gt;15838 -->
<g id="edge22" class="edge">
<title>15837&#45;&gt;15838</title>
<path fill="none" stroke="black" d="M939.46,-71.75C933.97,-62.83 928.39,-53.76 923.44,-45.72"/>
<polygon fill="black" stroke="black" points="926.58,-44.14 918.36,-37.46 920.62,-47.81 926.58,-44.14"/>
</g>
<!-- 16033 -->
<g id="node24" class="node">
<title>16033</title>
<path fill="#c0c0c0" stroke="black" d="M994,-36C994,-36 964,-36 964,-36 958,-36 952,-30 952,-24 952,-24 952,-12 952,-12 952,-6 958,0 964,0 964,0 994,0 994,0 1000,0 1006,-6 1006,-12 1006,-12 1006,-24 1006,-24 1006,-30 1000,-36 994,-36"/>
<text text-anchor="middle" x="979" y="-13.32" font-family="Helvetica,sans-Serif" font-size="14.00">(...)</text>
</g>
<!-- 15837&#45;&gt;16033 -->
<g id="edge23" class="edge">
<title>15837&#45;&gt;16033</title>
<path fill="none" stroke="black" d="M973.15,-71.75C974.06,-63.52 974.99,-55.17 975.82,-47.61"/>
<polygon fill="black" stroke="black" points="979.3,-48 976.93,-37.68 972.35,-47.23 979.3,-48"/>
</g>
<!-- 16095 -->
<g id="node26" class="node">
<title>16095</title>
<path fill="#f9e3d2" stroke="black" d="M1196,-166.25C1196,-166.25 1072,-166.25 1072,-166.25 1066,-166.25 1060,-160.25 1060,-154.25 1060,-154.25 1060,-84 1060,-84 1060,-78 1066,-72 1072,-72 1072,-72 1196,-72 1196,-72 1202,-72 1208,-78 1208,-84 1208,-84 1208,-154.25 1208,-154.25 1208,-160.25 1202,-166.25 1196,-166.25"/>
<text text-anchor="middle" x="1134" y="-148.95" font-family="Helvetica,sans-Serif" font-size="14.00">23_G &lt;= 0.5</text>
<text text-anchor="middle" x="1134" y="-131.7" font-family="Helvetica,sans-Serif" font-size="14.00">entropy = 0.988</text>
<text text-anchor="middle" x="1134" y="-114.45" font-family="Helvetica,sans-Serif" font-size="14.00">samples = 1024</text>
<text text-anchor="middle" x="1134" y="-97.2" font-family="Helvetica,sans-Serif" font-size="14.00">value = [888, 688]</text>
<text text-anchor="middle" x="1134" y="-79.95" font-family="Helvetica,sans-Serif" font-size="14.00">class = Animal</text>
</g>
<!-- 16094&#45;&gt;16095 -->
<g id="edge25" class="edge">
<title>16094&#45;&gt;16095</title>
<path fill="none" stroke="black" d="M1134,-202.07C1134,-194.17 1134,-185.88 1134,-177.73"/>
<polygon fill="black" stroke="black" points="1137.5,-177.87 1134,-167.87 1130.5,-177.87 1137.5,-177.87"/>
</g>
<!-- 16530 -->
<g id="node29" class="node">
<title>16530</title>
<path fill="#ea985d" stroke="black" d="M1353.5,-166.25C1353.5,-166.25 1238.5,-166.25 1238.5,-166.25 1232.5,-166.25 1226.5,-160.25 1226.5,-154.25 1226.5,-154.25 1226.5,-84 1226.5,-84 1226.5,-78 1232.5,-72 1238.5,-72 1238.5,-72 1353.5,-72 1353.5,-72 1359.5,-72 1365.5,-78 1365.5,-84 1365.5,-84 1365.5,-154.25 1365.5,-154.25 1365.5,-160.25 1359.5,-166.25 1353.5,-166.25"/>
<text text-anchor="middle" x="1296" y="-148.95" font-family="Helvetica,sans-Serif" font-size="14.00">9_U &lt;= 0.5</text>
<text text-anchor="middle" x="1296" y="-131.7" font-family="Helvetica,sans-Serif" font-size="14.00">entropy = 0.618</text>
<text text-anchor="middle" x="1296" y="-114.45" font-family="Helvetica,sans-Serif" font-size="14.00">samples = 256</text>
<text text-anchor="middle" x="1296" y="-97.2" font-family="Helvetica,sans-Serif" font-size="14.00">value = [365, 66]</text>
<text text-anchor="middle" x="1296" y="-79.95" font-family="Helvetica,sans-Serif" font-size="14.00">class = Animal</text>
</g>
<!-- 16094&#45;&gt;16530 -->
<g id="edge28" class="edge">
<title>16094&#45;&gt;16530</title>
<path fill="none" stroke="black" d="M1192.49,-202.07C1204.11,-192.87 1216.41,-183.13 1228.32,-173.71"/>
<polygon fill="black" stroke="black" points="1230.47,-176.46 1236.14,-167.51 1226.13,-170.98 1230.47,-176.46"/>
</g>
<!-- 16096 -->
<g id="node27" class="node">
<title>16096</title>
<path fill="#c0c0c0" stroke="black" d="M1104,-36C1104,-36 1074,-36 1074,-36 1068,-36 1062,-30 1062,-24 1062,-24 1062,-12 1062,-12 1062,-6 1068,0 1074,0 1074,0 1104,0 1104,0 1110,0 1116,-6 1116,-12 1116,-12 1116,-24 1116,-24 1116,-30 1110,-36 1104,-36"/>
<text text-anchor="middle" x="1089" y="-13.32" font-family="Helvetica,sans-Serif" font-size="14.00">(...)</text>
</g>
<!-- 16095&#45;&gt;16096 -->
<g id="edge26" class="edge">
<title>16095&#45;&gt;16096</title>
<path fill="none" stroke="black" d="M1112.95,-71.75C1109.03,-63.12 1105.05,-54.36 1101.5,-46.53"/>
<polygon fill="black" stroke="black" points="1104.74,-45.21 1097.42,-37.55 1098.37,-48.1 1104.74,-45.21"/>
</g>
<!-- 16481 -->
<g id="node28" class="node">
<title>16481</title>
<path fill="#c0c0c0" stroke="black" d="M1176,-36C1176,-36 1146,-36 1146,-36 1140,-36 1134,-30 1134,-24 1134,-24 1134,-12 1134,-12 1134,-6 1140,0 1146,0 1146,0 1176,0 1176,0 1182,0 1188,-6 1188,-12 1188,-12 1188,-24 1188,-24 1188,-30 1182,-36 1176,-36"/>
<text text-anchor="middle" x="1161" y="-13.32" font-family="Helvetica,sans-Serif" font-size="14.00">(...)</text>
</g>
<!-- 16095&#45;&gt;16481 -->
<g id="edge27" class="edge">
<title>16095&#45;&gt;16481</title>
<path fill="none" stroke="black" d="M1146.63,-71.75C1148.93,-63.32 1151.26,-54.77 1153.35,-47.07"/>
<polygon fill="black" stroke="black" points="1156.67,-48.2 1155.92,-37.63 1149.92,-46.36 1156.67,-48.2"/>
</g>
<!-- 16531 -->
<g id="node30" class="node">
<title>16531</title>
<path fill="#c0c0c0" stroke="black" d="M1275,-36C1275,-36 1245,-36 1245,-36 1239,-36 1233,-30 1233,-24 1233,-24 1233,-12 1233,-12 1233,-6 1239,0 1245,0 1245,0 1275,0 1275,0 1281,0 1287,-6 1287,-12 1287,-12 1287,-24 1287,-24 1287,-30 1281,-36 1275,-36"/>
<text text-anchor="middle" x="1260" y="-13.32" font-family="Helvetica,sans-Serif" font-size="14.00">(...)</text>
</g>
<!-- 16530&#45;&gt;16531 -->
<g id="edge29" class="edge">
<title>16530&#45;&gt;16531</title>
<path fill="none" stroke="black" d="M1279.16,-71.75C1276.06,-63.22 1272.92,-54.57 1270.1,-46.8"/>
<polygon fill="black" stroke="black" points="1273.46,-45.8 1266.75,-37.6 1266.88,-48.19 1273.46,-45.8"/>
</g>
<!-- 16612 -->
<g id="node31" class="node">
<title>16612</title>
<path fill="#c0c0c0" stroke="black" d="M1347,-36C1347,-36 1317,-36 1317,-36 1311,-36 1305,-30 1305,-24 1305,-24 1305,-12 1305,-12 1305,-6 1311,0 1317,0 1317,0 1347,0 1347,0 1353,0 1359,-6 1359,-12 1359,-12 1359,-24 1359,-24 1359,-30 1353,-36 1347,-36"/>
<text text-anchor="middle" x="1332" y="-13.32" font-family="Helvetica,sans-Serif" font-size="14.00">(...)</text>
</g>
<!-- 16530&#45;&gt;16612 -->
<g id="edge30" class="edge">
<title>16530&#45;&gt;16612</title>
<path fill="none" stroke="black" d="M1312.84,-71.75C1315.94,-63.22 1319.08,-54.57 1321.9,-46.8"/>
<polygon fill="black" stroke="black" points="1325.12,-48.19 1325.25,-37.6 1318.54,-45.8 1325.12,-48.19"/>
</g>
</g>
</svg>
