<?xml version="1.0" encoding="UTF-8" standalone="no"?>
<!DOCTYPE svg PUBLIC "-//W3C//DTD SVG 1.1//EN"
 "http://www.w3.org/Graphics/SVG/1.1/DTD/svg11.dtd">
<!-- Generated by graphviz version 12.0.0 (20240803.0821)
 -->
<!-- Title: Tree Pages: 1 -->
<svg width="1426pt" height="565pt"
 viewBox="0.00 0.00 1426.38 565.00" xmlns="http://www.w3.org/2000/svg" xmlns:xlink="http://www.w3.org/1999/xlink">
<g id="graph0" class="graph" transform="scale(1 1) rotate(0) translate(4 561)">
<title>Tree</title>
<polygon fill="white" stroke="none" points="-4,4 -4,-561 1422.38,-561 1422.38,4 -4,4"/>
<!-- 0 -->
<g id="node1" class="node">
<title>0</title>
<path fill="#ffffff" stroke="black" d="M916,-557C916,-557 756,-557 756,-557 750,-557 744,-551 744,-545 744,-545 744,-474.75 744,-474.75 744,-468.75 750,-462.75 756,-462.75 756,-462.75 916,-462.75 916,-462.75 922,-462.75 928,-468.75 928,-474.75 928,-474.75 928,-545 928,-545 928,-551 922,-557 916,-557"/>
<text text-anchor="middle" x="836" y="-539.7" font-family="Helvetica,sans-Serif" font-size="14.00">20_G &lt;= 0.5</text>
<text text-anchor="middle" x="836" y="-522.45" font-family="Helvetica,sans-Serif" font-size="14.00">entropy = 1.0</text>
<text text-anchor="middle" x="836" y="-505.2" font-family="Helvetica,sans-Serif" font-size="14.00">samples = 38132</text>
<text text-anchor="middle" x="836" y="-487.95" font-family="Helvetica,sans-Serif" font-size="14.00">value = [30177, 30168]</text>
<text text-anchor="middle" x="836" y="-470.7" font-family="Helvetica,sans-Serif" font-size="14.00">class = Animal</text>
</g>
<!-- 1 -->
<g id="node2" class="node">
<title>1</title>
<path fill="#e7f3fc" stroke="black" d="M645,-426.75C645,-426.75 485,-426.75 485,-426.75 479,-426.75 473,-420.75 473,-414.75 473,-414.75 473,-344.5 473,-344.5 473,-338.5 479,-332.5 485,-332.5 485,-332.5 645,-332.5 645,-332.5 651,-332.5 657,-338.5 657,-344.5 657,-344.5 657,-414.75 657,-414.75 657,-420.75 651,-426.75 645,-426.75"/>
<text text-anchor="middle" x="565" y="-409.45" font-family="Helvetica,sans-Serif" font-size="14.00">2_A &lt;= 0.5</text>
<text text-anchor="middle" x="565" y="-392.2" font-family="Helvetica,sans-Serif" font-size="14.00">entropy = 0.997</text>
<text text-anchor="middle" x="565" y="-374.95" font-family="Helvetica,sans-Serif" font-size="14.00">samples = 29558</text>
<text text-anchor="middle" x="565" y="-357.7" font-family="Helvetica,sans-Serif" font-size="14.00">value = [21914, 24895]</text>
<text text-anchor="middle" x="565" y="-340.45" font-family="Helvetica,sans-Serif" font-size="14.00">class = Plant</text>
</g>
<!-- 0&#45;&gt;1 -->
<g id="edge1" class="edge">
<title>0&#45;&gt;1</title>
<path fill="none" stroke="black" d="M743.87,-465.28C719.33,-453.66 692.66,-441.04 667.59,-429.18"/>
<polygon fill="black" stroke="black" points="669.24,-426.08 658.7,-424.97 666.24,-432.41 669.24,-426.08"/>
<text text-anchor="middle" x="665.75" y="-443.19" font-family="Helvetica,sans-Serif" font-size="14.00">True</text>
</g>
<!-- 12894 -->
<g id="node17" class="node">
<title>12894</title>
<path fill="#f6d1b7" stroke="black" d="M1000,-426.75C1000,-426.75 858,-426.75 858,-426.75 852,-426.75 846,-420.75 846,-414.75 846,-414.75 846,-344.5 846,-344.5 846,-338.5 852,-332.5 858,-332.5 858,-332.5 1000,-332.5 1000,-332.5 1006,-332.5 1012,-338.5 1012,-344.5 1012,-344.5 1012,-414.75 1012,-414.75 1012,-420.75 1006,-426.75 1000,-426.75"/>
<text text-anchor="middle" x="929" y="-409.45" font-family="Helvetica,sans-Serif" font-size="14.00">23_U &lt;= 0.5</text>
<text text-anchor="middle" x="929" y="-392.2" font-family="Helvetica,sans-Serif" font-size="14.00">entropy = 0.965</text>
<text text-anchor="middle" x="929" y="-374.95" font-family="Helvetica,sans-Serif" font-size="14.00">samples = 8574</text>
<text text-anchor="middle" x="929" y="-357.7" font-family="Helvetica,sans-Serif" font-size="14.00">value = [8263, 5273]</text>
<text text-anchor="middle" x="929" y="-340.45" font-family="Helvetica,sans-Serif" font-size="14.00">class = Animal</text>
</g>
<!-- 0&#45;&gt;12894 -->
<g id="edge16" class="edge">
<title>0&#45;&gt;12894</title>
<path fill="none" stroke="black" d="M869.58,-462.57C875.83,-453.95 882.43,-444.85 888.85,-435.99"/>
<polygon fill="black" stroke="black" points="891.55,-438.23 894.59,-428.08 885.88,-434.12 891.55,-438.23"/>
<text text-anchor="middle" x="899.41" y="-446.87" font-family="Helvetica,sans-Serif" font-size="14.00">False</text>
</g>
<!-- 2 -->
<g id="node3" class="node">
<title>2</title>
<path fill="#c8e4f8" stroke="black" d="M365,-296.5C365,-296.5 205,-296.5 205,-296.5 199,-296.5 193,-290.5 193,-284.5 193,-284.5 193,-214.25 193,-214.25 193,-208.25 199,-202.25 205,-202.25 205,-202.25 365,-202.25 365,-202.25 371,-202.25 377,-208.25 377,-214.25 377,-214.25 377,-284.5 377,-284.5 377,-290.5 371,-296.5 365,-296.5"/>
<text text-anchor="middle" x="285" y="-279.2" font-family="Helvetica,sans-Serif" font-size="14.00">22_A &lt;= 0.5</text>
<text text-anchor="middle" x="285" y="-261.95" font-family="Helvetica,sans-Serif" font-size="14.00">entropy = 0.981</text>
<text text-anchor="middle" x="285" y="-244.7" font-family="Helvetica,sans-Serif" font-size="14.00">samples = 22986</text>
<text text-anchor="middle" x="285" y="-227.45" font-family="Helvetica,sans-Serif" font-size="14.00">value = [15259, 21107]</text>
<text text-anchor="middle" x="285" y="-210.2" font-family="Helvetica,sans-Serif" font-size="14.00">class = Plant</text>
</g>
<!-- 1&#45;&gt;2 -->
<g id="edge2" class="edge">
<title>1&#45;&gt;2</title>
<path fill="none" stroke="black" d="M472.54,-336.28C445.3,-323.8 415.34,-310.07 387.51,-297.33"/>
<polygon fill="black" stroke="black" points="389.29,-294.29 378.74,-293.31 386.37,-300.66 389.29,-294.29"/>
</g>
<!-- 9771 -->
<g id="node10" class="node">
<title>9771</title>
<path fill="#f4c9aa" stroke="black" d="M636,-296.5C636,-296.5 494,-296.5 494,-296.5 488,-296.5 482,-290.5 482,-284.5 482,-284.5 482,-214.25 482,-214.25 482,-208.25 488,-202.25 494,-202.25 494,-202.25 636,-202.25 636,-202.25 642,-202.25 648,-208.25 648,-214.25 648,-214.25 648,-284.5 648,-284.5 648,-290.5 642,-296.5 636,-296.5"/>
<text text-anchor="middle" x="565" y="-279.2" font-family="Helvetica,sans-Serif" font-size="14.00">16_U &lt;= 0.5</text>
<text text-anchor="middle" x="565" y="-261.95" font-family="Helvetica,sans-Serif" font-size="14.00">entropy = 0.945</text>
<text text-anchor="middle" x="565" y="-244.7" font-family="Helvetica,sans-Serif" font-size="14.00">samples = 6572</text>
<text text-anchor="middle" x="565" y="-227.45" font-family="Helvetica,sans-Serif" font-size="14.00">value = [6655, 3788]</text>
<text text-anchor="middle" x="565" y="-210.2" font-family="Helvetica,sans-Serif" font-size="14.00">class = Animal</text>
</g>
<!-- 1&#45;&gt;9771 -->
<g id="edge9" class="edge">
<title>1&#45;&gt;9771</title>
<path fill="none" stroke="black" d="M565,-332.32C565,-324.42 565,-316.13 565,-307.98"/>
<polygon fill="black" stroke="black" points="568.5,-308.12 565,-298.12 561.5,-308.12 568.5,-308.12"/>
</g>
<!-- 3 -->
<g id="node4" class="node">
<title>3</title>
<path fill="#bbddf6" stroke="black" d="M172,-166.25C172,-166.25 12,-166.25 12,-166.25 6,-166.25 0,-160.25 0,-154.25 0,-154.25 0,-84 0,-84 0,-78 6,-72 12,-72 12,-72 172,-72 172,-72 178,-72 184,-78 184,-84 184,-84 184,-154.25 184,-154.25 184,-160.25 178,-166.25 172,-166.25"/>
<text text-anchor="middle" x="92" y="-148.95" font-family="Helvetica,sans-Serif" font-size="14.00">18_C &lt;= 0.5</text>
<text text-anchor="middle" x="92" y="-131.7" font-family="Helvetica,sans-Serif" font-size="14.00">entropy = 0.969</text>
<text text-anchor="middle" x="92" y="-114.45" font-family="Helvetica,sans-Serif" font-size="14.00">samples = 20840</text>
<text text-anchor="middle" x="92" y="-97.2" font-family="Helvetica,sans-Serif" font-size="14.00">value = [13087, 19893]</text>
<text text-anchor="middle" x="92" y="-79.95" font-family="Helvetica,sans-Serif" font-size="14.00">class = Plant</text>
</g>
<!-- 2&#45;&gt;3 -->
<g id="edge3" class="edge">
<title>2&#45;&gt;3</title>
<path fill="none" stroke="black" d="M215.05,-201.89C200.89,-192.48 185.9,-182.53 171.45,-172.92"/>
<polygon fill="black" stroke="black" points="173.56,-170.12 163.3,-167.5 169.69,-175.95 173.56,-170.12"/>
</g>
<!-- 8708 -->
<g id="node7" class="node">
<title>8708</title>
<path fill="#f4c7a8" stroke="black" d="M356,-166.25C356,-166.25 214,-166.25 214,-166.25 208,-166.25 202,-160.25 202,-154.25 202,-154.25 202,-84 202,-84 202,-78 208,-72 214,-72 214,-72 356,-72 356,-72 362,-72 368,-78 368,-84 368,-84 368,-154.25 368,-154.25 368,-160.25 362,-166.25 356,-166.25"/>
<text text-anchor="middle" x="285" y="-148.95" font-family="Helvetica,sans-Serif" font-size="14.00">4_C &lt;= 0.5</text>
<text text-anchor="middle" x="285" y="-131.7" font-family="Helvetica,sans-Serif" font-size="14.00">entropy = 0.941</text>
<text text-anchor="middle" x="285" y="-114.45" font-family="Helvetica,sans-Serif" font-size="14.00">samples = 2146</text>
<text text-anchor="middle" x="285" y="-97.2" font-family="Helvetica,sans-Serif" font-size="14.00">value = [2172, 1214]</text>
<text text-anchor="middle" x="285" y="-79.95" font-family="Helvetica,sans-Serif" font-size="14.00">class = Animal</text>
</g>
<!-- 2&#45;&gt;8708 -->
<g id="edge6" class="edge">
<title>2&#45;&gt;8708</title>
<path fill="none" stroke="black" d="M285,-202.07C285,-194.17 285,-185.88 285,-177.73"/>
<polygon fill="black" stroke="black" points="288.5,-177.87 285,-167.87 281.5,-177.87 288.5,-177.87"/>
</g>
<!-- 4 -->
<g id="node5" class="node">
<title>4</title>
<path fill="#c0c0c0" stroke="black" d="M92,-36C92,-36 62,-36 62,-36 56,-36 50,-30 50,-24 50,-24 50,-12 50,-12 50,-6 56,0 62,0 62,0 92,0 92,0 98,0 104,-6 104,-12 104,-12 104,-24 104,-24 104,-30 98,-36 92,-36"/>
<text text-anchor="middle" x="77" y="-13.32" font-family="Helvetica,sans-Serif" font-size="14.00">(...)</text>
</g>
<!-- 3&#45;&gt;4 -->
<g id="edge4" class="edge">
<title>3&#45;&gt;4</title>
<path fill="none" stroke="black" d="M84.98,-71.75C83.72,-63.42 82.44,-54.97 81.29,-47.34"/>
<polygon fill="black" stroke="black" points="84.78,-47.03 79.83,-37.67 77.86,-48.08 84.78,-47.03"/>
</g>
<!-- 6809 -->
<g id="node6" class="node">
<title>6809</title>
<path fill="#c0c0c0" stroke="black" d="M164,-36C164,-36 134,-36 134,-36 128,-36 122,-30 122,-24 122,-24 122,-12 122,-12 122,-6 128,0 134,0 134,0 164,0 164,0 170,0 176,-6 176,-12 176,-12 176,-24 176,-24 176,-30 170,-36 164,-36"/>
<text text-anchor="middle" x="149" y="-13.32" font-family="Helvetica,sans-Serif" font-size="14.00">(...)</text>
</g>
<!-- 3&#45;&gt;6809 -->
<g id="edge5" class="edge">
<title>3&#45;&gt;6809</title>
<path fill="none" stroke="black" d="M118.66,-71.75C123.74,-62.93 128.9,-53.96 133.48,-45.99"/>
<polygon fill="black" stroke="black" points="136.42,-47.9 138.37,-37.48 130.35,-44.41 136.42,-47.9"/>
</g>
<!-- 8709 -->
<g id="node8" class="node">
<title>8709</title>
<path fill="#c0c0c0" stroke="black" d="M244,-36C244,-36 214,-36 214,-36 208,-36 202,-30 202,-24 202,-24 202,-12 202,-12 202,-6 208,0 214,0 214,0 244,0 244,0 250,0 256,-6 256,-12 256,-12 256,-24 256,-24 256,-30 250,-36 244,-36"/>
<text text-anchor="middle" x="229" y="-13.32" font-family="Helvetica,sans-Serif" font-size="14.00">(...)</text>
</g>
<!-- 8708&#45;&gt;8709 -->
<g id="edge7" class="edge">
<title>8708&#45;&gt;8709</title>
<path fill="none" stroke="black" d="M258.8,-71.75C253.82,-62.93 248.75,-53.96 244.25,-45.99"/>
<polygon fill="black" stroke="black" points="247.41,-44.48 239.45,-37.49 241.32,-47.92 247.41,-44.48"/>
</g>
<!-- 9516 -->
<g id="node9" class="node">
<title>9516</title>
<path fill="#c0c0c0" stroke="black" d="M316,-36C316,-36 286,-36 286,-36 280,-36 274,-30 274,-24 274,-24 274,-12 274,-12 274,-6 280,0 286,0 286,0 316,0 316,0 322,0 328,-6 328,-12 328,-12 328,-24 328,-24 328,-30 322,-36 316,-36"/>
<text text-anchor="middle" x="301" y="-13.32" font-family="Helvetica,sans-Serif" font-size="14.00">(...)</text>
</g>
<!-- 8708&#45;&gt;9516 -->
<g id="edge8" class="edge">
<title>8708&#45;&gt;9516</title>
<path fill="none" stroke="black" d="M292.48,-71.75C293.83,-63.42 295.19,-54.97 296.43,-47.34"/>
<polygon fill="black" stroke="black" points="299.85,-48.1 297.99,-37.67 292.94,-46.98 299.85,-48.1"/>
</g>
<!-- 9772 -->
<g id="node11" class="node">
<title>9772</title>
<path fill="#f1bd98" stroke="black" d="M540,-166.25C540,-166.25 398,-166.25 398,-166.25 392,-166.25 386,-160.25 386,-154.25 386,-154.25 386,-84 386,-84 386,-78 392,-72 398,-72 398,-72 540,-72 540,-72 546,-72 552,-78 552,-84 552,-84 552,-154.25 552,-154.25 552,-160.25 546,-166.25 540,-166.25"/>
<text text-anchor="middle" x="469" y="-148.95" font-family="Helvetica,sans-Serif" font-size="14.00">15_U &lt;= 0.5</text>
<text text-anchor="middle" x="469" y="-131.7" font-family="Helvetica,sans-Serif" font-size="14.00">entropy = 0.908</text>
<text text-anchor="middle" x="469" y="-114.45" font-family="Helvetica,sans-Serif" font-size="14.00">samples = 4696</text>
<text text-anchor="middle" x="469" y="-97.2" font-family="Helvetica,sans-Serif" font-size="14.00">value = [5042, 2411]</text>
<text text-anchor="middle" x="469" y="-79.95" font-family="Helvetica,sans-Serif" font-size="14.00">class = Animal</text>
</g>
<!-- 9771&#45;&gt;9772 -->
<g id="edge10" class="edge">
<title>9771&#45;&gt;9772</title>
<path fill="none" stroke="black" d="M530.34,-202.07C523.88,-193.45 517.08,-184.35 510.44,-175.49"/>
<polygon fill="black" stroke="black" points="513.31,-173.48 504.51,-167.57 507.7,-177.67 513.31,-173.48"/>
</g>
<!-- 12019 -->
<g id="node14" class="node">
<title>12019</title>
<path fill="#fbede2" stroke="black" d="M724,-166.25C724,-166.25 582,-166.25 582,-166.25 576,-166.25 570,-160.25 570,-154.25 570,-154.25 570,-84 570,-84 570,-78 576,-72 582,-72 582,-72 724,-72 724,-72 730,-72 736,-78 736,-84 736,-84 736,-154.25 736,-154.25 736,-160.25 730,-166.25 724,-166.25"/>
<text text-anchor="middle" x="653" y="-148.95" font-family="Helvetica,sans-Serif" font-size="14.00">6_C &lt;= 0.5</text>
<text text-anchor="middle" x="653" y="-131.7" font-family="Helvetica,sans-Serif" font-size="14.00">entropy = 0.996</text>
<text text-anchor="middle" x="653" y="-114.45" font-family="Helvetica,sans-Serif" font-size="14.00">samples = 1876</text>
<text text-anchor="middle" x="653" y="-97.2" font-family="Helvetica,sans-Serif" font-size="14.00">value = [1613, 1377]</text>
<text text-anchor="middle" x="653" y="-79.95" font-family="Helvetica,sans-Serif" font-size="14.00">class = Animal</text>
</g>
<!-- 9771&#45;&gt;12019 -->
<g id="edge13" class="edge">
<title>9771&#45;&gt;12019</title>
<path fill="none" stroke="black" d="M596.77,-202.07C602.63,-193.54 608.8,-184.54 614.82,-175.77"/>
<polygon fill="black" stroke="black" points="617.65,-177.83 620.42,-167.61 611.88,-173.87 617.65,-177.83"/>
</g>
<!-- 9773 -->
<g id="node12" class="node">
<title>9773</title>
<path fill="#c0c0c0" stroke="black" d="M432,-36C432,-36 402,-36 402,-36 396,-36 390,-30 390,-24 390,-24 390,-12 390,-12 390,-6 396,0 402,0 402,0 432,0 432,0 438,0 444,-6 444,-12 444,-12 444,-24 444,-24 444,-30 438,-36 432,-36"/>
<text text-anchor="middle" x="417" y="-13.32" font-family="Helvetica,sans-Serif" font-size="14.00">(...)</text>
</g>
<!-- 9772&#45;&gt;9773 -->
<g id="edge11" class="edge">
<title>9772&#45;&gt;9773</title>
<path fill="none" stroke="black" d="M444.67,-71.75C440.1,-63.03 435.45,-54.16 431.3,-46.26"/>
<polygon fill="black" stroke="black" points="434.46,-44.74 426.71,-37.51 428.26,-47.99 434.46,-44.74"/>
</g>
<!-- 11408 -->
<g id="node13" class="node">
<title>11408</title>
<path fill="#c0c0c0" stroke="black" d="M504,-36C504,-36 474,-36 474,-36 468,-36 462,-30 462,-24 462,-24 462,-12 462,-12 462,-6 468,0 474,0 474,0 504,0 504,0 510,0 516,-6 516,-12 516,-12 516,-24 516,-24 516,-30 510,-36 504,-36"/>
<text text-anchor="middle" x="489" y="-13.32" font-family="Helvetica,sans-Serif" font-size="14.00">(...)</text>
</g>
<!-- 9772&#45;&gt;11408 -->
<g id="edge12" class="edge">
<title>9772&#45;&gt;11408</title>
<path fill="none" stroke="black" d="M478.36,-71.75C480.04,-63.42 481.74,-54.97 483.28,-47.34"/>
<polygon fill="black" stroke="black" points="486.69,-48.15 485.24,-37.66 479.83,-46.77 486.69,-48.15"/>
</g>
<!-- 12020 -->
<g id="node15" class="node">
<title>12020</title>
<path fill="#c0c0c0" stroke="black" d="M616,-36C616,-36 586,-36 586,-36 580,-36 574,-30 574,-24 574,-24 574,-12 574,-12 574,-6 580,0 586,0 586,0 616,0 616,0 622,0 628,-6 628,-12 628,-12 628,-24 628,-24 628,-30 622,-36 616,-36"/>
<text text-anchor="middle" x="601" y="-13.32" font-family="Helvetica,sans-Serif" font-size="14.00">(...)</text>
</g>
<!-- 12019&#45;&gt;12020 -->
<g id="edge14" class="edge">
<title>12019&#45;&gt;12020</title>
<path fill="none" stroke="black" d="M628.67,-71.75C624.1,-63.03 619.45,-54.16 615.3,-46.26"/>
<polygon fill="black" stroke="black" points="618.46,-44.74 610.71,-37.51 612.26,-47.99 618.46,-44.74"/>
</g>
<!-- 12661 -->
<g id="node16" class="node">
<title>12661</title>
<path fill="#c0c0c0" stroke="black" d="M688,-36C688,-36 658,-36 658,-36 652,-36 646,-30 646,-24 646,-24 646,-12 646,-12 646,-6 652,0 658,0 658,0 688,0 688,0 694,0 700,-6 700,-12 700,-12 700,-24 700,-24 700,-30 694,-36 688,-36"/>
<text text-anchor="middle" x="673" y="-13.32" font-family="Helvetica,sans-Serif" font-size="14.00">(...)</text>
</g>
<!-- 12019&#45;&gt;12661 -->
<g id="edge15" class="edge">
<title>12019&#45;&gt;12661</title>
<path fill="none" stroke="black" d="M662.36,-71.75C664.04,-63.42 665.74,-54.97 667.28,-47.34"/>
<polygon fill="black" stroke="black" points="670.69,-48.15 669.24,-37.66 663.83,-46.77 670.69,-48.15"/>
</g>
<!-- 12895 -->
<g id="node18" class="node">
<title>12895</title>
<path fill="#f7d7c0" stroke="black" d="M1000,-296.5C1000,-296.5 858,-296.5 858,-296.5 852,-296.5 846,-290.5 846,-284.5 846,-284.5 846,-214.25 846,-214.25 846,-208.25 852,-202.25 858,-202.25 858,-202.25 1000,-202.25 1000,-202.25 1006,-202.25 1012,-208.25 1012,-214.25 1012,-214.25 1012,-284.5 1012,-284.5 1012,-290.5 1006,-296.5 1000,-296.5"/>
<text text-anchor="middle" x="929" y="-279.2" font-family="Helvetica,sans-Serif" font-size="14.00">14_C &lt;= 0.5</text>
<text text-anchor="middle" x="929" y="-261.95" font-family="Helvetica,sans-Serif" font-size="14.00">entropy = 0.974</text>
<text text-anchor="middle" x="929" y="-244.7" font-family="Helvetica,sans-Serif" font-size="14.00">samples = 7965</text>
<text text-anchor="middle" x="929" y="-227.45" font-family="Helvetica,sans-Serif" font-size="14.00">value = [7475, 5102]</text>
<text text-anchor="middle" x="929" y="-210.2" font-family="Helvetica,sans-Serif" font-size="14.00">class = Animal</text>
</g>
<!-- 12894&#45;&gt;12895 -->
<g id="edge17" class="edge">
<title>12894&#45;&gt;12895</title>
<path fill="none" stroke="black" d="M929,-332.32C929,-324.42 929,-316.13 929,-307.98"/>
<polygon fill="black" stroke="black" points="932.5,-308.12 929,-298.12 925.5,-308.12 932.5,-308.12"/>
</g>
<!-- 16800 -->
<g id="node25" class="node">
<title>16800</title>
<path fill="#eb9c64" stroke="black" d="M1258,-296.5C1258,-296.5 1134,-296.5 1134,-296.5 1128,-296.5 1122,-290.5 1122,-284.5 1122,-284.5 1122,-214.25 1122,-214.25 1122,-208.25 1128,-202.25 1134,-202.25 1134,-202.25 1258,-202.25 1258,-202.25 1264,-202.25 1270,-208.25 1270,-214.25 1270,-214.25 1270,-284.5 1270,-284.5 1270,-290.5 1264,-296.5 1258,-296.5"/>
<text text-anchor="middle" x="1196" y="-279.2" font-family="Helvetica,sans-Serif" font-size="14.00">26_U &lt;= 0.5</text>
<text text-anchor="middle" x="1196" y="-261.95" font-family="Helvetica,sans-Serif" font-size="14.00">entropy = 0.676</text>
<text text-anchor="middle" x="1196" y="-244.7" font-family="Helvetica,sans-Serif" font-size="14.00">samples = 609</text>
<text text-anchor="middle" x="1196" y="-227.45" font-family="Helvetica,sans-Serif" font-size="14.00">value = [788, 171]</text>
<text text-anchor="middle" x="1196" y="-210.2" font-family="Helvetica,sans-Serif" font-size="14.00">class = Animal</text>
</g>
<!-- 12894&#45;&gt;16800 -->
<g id="edge24" class="edge">
<title>12894&#45;&gt;16800</title>
<path fill="none" stroke="black" d="M1012.38,-338.57C1044,-323.39 1080,-306.09 1111.71,-290.86"/>
<polygon fill="black" stroke="black" points="1112.97,-294.14 1120.47,-286.65 1109.94,-287.83 1112.97,-294.14"/>
</g>
<!-- 12896 -->
<g id="node19" class="node">
<title>12896</title>
<path fill="#f5ceb2" stroke="black" d="M908,-166.25C908,-166.25 766,-166.25 766,-166.25 760,-166.25 754,-160.25 754,-154.25 754,-154.25 754,-84 754,-84 754,-78 760,-72 766,-72 766,-72 908,-72 908,-72 914,-72 920,-78 920,-84 920,-84 920,-154.25 920,-154.25 920,-160.25 914,-166.25 908,-166.25"/>
<text text-anchor="middle" x="837" y="-148.95" font-family="Helvetica,sans-Serif" font-size="14.00">8_A &lt;= 0.5</text>
<text text-anchor="middle" x="837" y="-131.7" font-family="Helvetica,sans-Serif" font-size="14.00">entropy = 0.958</text>
<text text-anchor="middle" x="837" y="-114.45" font-family="Helvetica,sans-Serif" font-size="14.00">samples = 6414</text>
<text text-anchor="middle" x="837" y="-97.2" font-family="Helvetica,sans-Serif" font-size="14.00">value = [6294, 3848]</text>
<text text-anchor="middle" x="837" y="-79.95" font-family="Helvetica,sans-Serif" font-size="14.00">class = Animal</text>
</g>
<!-- 12895&#45;&gt;12896 -->
<g id="edge18" class="edge">
<title>12895&#45;&gt;12896</title>
<path fill="none" stroke="black" d="M895.79,-202.07C889.6,-193.45 883.07,-184.35 876.71,-175.49"/>
<polygon fill="black" stroke="black" points="879.72,-173.67 871.05,-167.59 874.03,-177.75 879.72,-173.67"/>
</g>
<!-- 16053 -->
<g id="node22" class="node">
<title>16053</title>
<path fill="#f3f9fd" stroke="black" d="M1092,-166.25C1092,-166.25 950,-166.25 950,-166.25 944,-166.25 938,-160.25 938,-154.25 938,-154.25 938,-84 938,-84 938,-78 944,-72 950,-72 950,-72 1092,-72 1092,-72 1098,-72 1104,-78 1104,-84 1104,-84 1104,-154.25 1104,-154.25 1104,-160.25 1098,-166.25 1092,-166.25"/>
<text text-anchor="middle" x="1021" y="-148.95" font-family="Helvetica,sans-Serif" font-size="14.00">1_C &lt;= 0.5</text>
<text text-anchor="middle" x="1021" y="-131.7" font-family="Helvetica,sans-Serif" font-size="14.00">entropy = 0.999</text>
<text text-anchor="middle" x="1021" y="-114.45" font-family="Helvetica,sans-Serif" font-size="14.00">samples = 1551</text>
<text text-anchor="middle" x="1021" y="-97.2" font-family="Helvetica,sans-Serif" font-size="14.00">value = [1181, 1254]</text>
<text text-anchor="middle" x="1021" y="-79.95" font-family="Helvetica,sans-Serif" font-size="14.00">class = Plant</text>
</g>
<!-- 12895&#45;&gt;16053 -->
<g id="edge21" class="edge">
<title>12895&#45;&gt;16053</title>
<path fill="none" stroke="black" d="M962.21,-202.07C968.4,-193.45 974.93,-184.35 981.29,-175.49"/>
<polygon fill="black" stroke="black" points="983.97,-177.75 986.95,-167.59 978.28,-173.67 983.97,-177.75"/>
</g>
<!-- 12897 -->
<g id="node20" class="node">
<title>12897</title>
<path fill="#c0c0c0" stroke="black" d="M800,-36C800,-36 770,-36 770,-36 764,-36 758,-30 758,-24 758,-24 758,-12 758,-12 758,-6 764,0 770,0 770,0 800,0 800,0 806,0 812,-6 812,-12 812,-12 812,-24 812,-24 812,-30 806,-36 800,-36"/>
<text text-anchor="middle" x="785" y="-13.32" font-family="Helvetica,sans-Serif" font-size="14.00">(...)</text>
</g>
<!-- 12896&#45;&gt;12897 -->
<g id="edge19" class="edge">
<title>12896&#45;&gt;12897</title>
<path fill="none" stroke="black" d="M812.67,-71.75C808.1,-63.03 803.45,-54.16 799.3,-46.26"/>
<polygon fill="black" stroke="black" points="802.46,-44.74 794.71,-37.51 796.26,-47.99 802.46,-44.74"/>
</g>
<!-- 15328 -->
<g id="node21" class="node">
<title>15328</title>
<path fill="#c0c0c0" stroke="black" d="M872,-36C872,-36 842,-36 842,-36 836,-36 830,-30 830,-24 830,-24 830,-12 830,-12 830,-6 836,0 842,0 842,0 872,0 872,0 878,0 884,-6 884,-12 884,-12 884,-24 884,-24 884,-30 878,-36 872,-36"/>
<text text-anchor="middle" x="857" y="-13.32" font-family="Helvetica,sans-Serif" font-size="14.00">(...)</text>
</g>
<!-- 12896&#45;&gt;15328 -->
<g id="edge20" class="edge">
<title>12896&#45;&gt;15328</title>
<path fill="none" stroke="black" d="M846.36,-71.75C848.04,-63.42 849.74,-54.97 851.28,-47.34"/>
<polygon fill="black" stroke="black" points="854.69,-48.15 853.24,-37.66 847.83,-46.77 854.69,-48.15"/>
</g>
<!-- 16054 -->
<g id="node23" class="node">
<title>16054</title>
<path fill="#c0c0c0" stroke="black" d="M979,-36C979,-36 949,-36 949,-36 943,-36 937,-30 937,-24 937,-24 937,-12 937,-12 937,-6 943,0 949,0 949,0 979,0 979,0 985,0 991,-6 991,-12 991,-12 991,-24 991,-24 991,-30 985,-36 979,-36"/>
<text text-anchor="middle" x="964" y="-13.32" font-family="Helvetica,sans-Serif" font-size="14.00">(...)</text>
</g>
<!-- 16053&#45;&gt;16054 -->
<g id="edge22" class="edge">
<title>16053&#45;&gt;16054</title>
<path fill="none" stroke="black" d="M994.34,-71.75C989.26,-62.93 984.1,-53.96 979.52,-45.99"/>
<polygon fill="black" stroke="black" points="982.65,-44.41 974.63,-37.48 976.58,-47.9 982.65,-44.41"/>
</g>
<!-- 16611 -->
<g id="node24" class="node">
<title>16611</title>
<path fill="#c0c0c0" stroke="black" d="M1051,-36C1051,-36 1021,-36 1021,-36 1015,-36 1009,-30 1009,-24 1009,-24 1009,-12 1009,-12 1009,-6 1015,0 1021,0 1021,0 1051,0 1051,0 1057,0 1063,-6 1063,-12 1063,-12 1063,-24 1063,-24 1063,-30 1057,-36 1051,-36"/>
<text text-anchor="middle" x="1036" y="-13.32" font-family="Helvetica,sans-Serif" font-size="14.00">(...)</text>
</g>
<!-- 16053&#45;&gt;16611 -->
<g id="edge23" class="edge">
<title>16053&#45;&gt;16611</title>
<path fill="none" stroke="black" d="M1028.02,-71.75C1029.28,-63.42 1030.56,-54.97 1031.71,-47.34"/>
<polygon fill="black" stroke="black" points="1035.14,-48.08 1033.17,-37.67 1028.22,-47.03 1035.14,-48.08"/>
</g>
<!-- 16801 -->
<g id="node26" class="node">
<title>16801</title>
<path fill="#ea9a60" stroke="black" d="M1258,-166.25C1258,-166.25 1134,-166.25 1134,-166.25 1128,-166.25 1122,-160.25 1122,-154.25 1122,-154.25 1122,-84 1122,-84 1122,-78 1128,-72 1134,-72 1134,-72 1258,-72 1258,-72 1264,-72 1270,-78 1270,-84 1270,-84 1270,-154.25 1270,-154.25 1270,-160.25 1264,-166.25 1258,-166.25"/>
<text text-anchor="middle" x="1196" y="-148.95" font-family="Helvetica,sans-Serif" font-size="14.00">19_C &lt;= 0.5</text>
<text text-anchor="middle" x="1196" y="-131.7" font-family="Helvetica,sans-Serif" font-size="14.00">entropy = 0.648</text>
<text text-anchor="middle" x="1196" y="-114.45" font-family="Helvetica,sans-Serif" font-size="14.00">samples = 591</text>
<text text-anchor="middle" x="1196" y="-97.2" font-family="Helvetica,sans-Serif" font-size="14.00">value = [776, 154]</text>
<text text-anchor="middle" x="1196" y="-79.95" font-family="Helvetica,sans-Serif" font-size="14.00">class = Animal</text>
</g>
<!-- 16800&#45;&gt;16801 -->
<g id="edge25" class="edge">
<title>16800&#45;&gt;16801</title>
<path fill="none" stroke="black" d="M1196,-202.07C1196,-194.17 1196,-185.88 1196,-177.73"/>
<polygon fill="black" stroke="black" points="1199.5,-177.87 1196,-167.87 1192.5,-177.87 1199.5,-177.87"/>
</g>
<!-- 16996 -->
<g id="node29" class="node">
<title>16996</title>
<path fill="#c5e2f7" stroke="black" d="M1406.38,-166.25C1406.38,-166.25 1299.62,-166.25 1299.62,-166.25 1293.62,-166.25 1287.62,-160.25 1287.62,-154.25 1287.62,-154.25 1287.62,-84 1287.62,-84 1287.62,-78 1293.62,-72 1299.62,-72 1299.62,-72 1406.38,-72 1406.38,-72 1412.38,-72 1418.38,-78 1418.38,-84 1418.38,-84 1418.38,-154.25 1418.38,-154.25 1418.38,-160.25 1412.38,-166.25 1406.38,-166.25"/>
<text text-anchor="middle" x="1353" y="-148.95" font-family="Helvetica,sans-Serif" font-size="14.00">5_C &lt;= 0.5</text>
<text text-anchor="middle" x="1353" y="-131.7" font-family="Helvetica,sans-Serif" font-size="14.00">entropy = 0.978</text>
<text text-anchor="middle" x="1353" y="-114.45" font-family="Helvetica,sans-Serif" font-size="14.00">samples = 18</text>
<text text-anchor="middle" x="1353" y="-97.2" font-family="Helvetica,sans-Serif" font-size="14.00">value = [12, 17]</text>
<text text-anchor="middle" x="1353" y="-79.95" font-family="Helvetica,sans-Serif" font-size="14.00">class = Plant</text>
</g>
<!-- 16800&#45;&gt;16996 -->
<g id="edge28" class="edge">
<title>16800&#45;&gt;16996</title>
<path fill="none" stroke="black" d="M1252.68,-202.07C1263.95,-192.87 1275.87,-183.13 1287.41,-173.71"/>
<polygon fill="black" stroke="black" points="1289.44,-176.57 1294.97,-167.53 1285.01,-171.15 1289.44,-176.57"/>
</g>
<!-- 16802 -->
<g id="node27" class="node">
<title>16802</title>
<path fill="#c0c0c0" stroke="black" d="M1163,-36C1163,-36 1133,-36 1133,-36 1127,-36 1121,-30 1121,-24 1121,-24 1121,-12 1121,-12 1121,-6 1127,0 1133,0 1133,0 1163,0 1163,0 1169,0 1175,-6 1175,-12 1175,-12 1175,-24 1175,-24 1175,-30 1169,-36 1163,-36"/>
<text text-anchor="middle" x="1148" y="-13.32" font-family="Helvetica,sans-Serif" font-size="14.00">(...)</text>
</g>
<!-- 16801&#45;&gt;16802 -->
<g id="edge26" class="edge">
<title>16801&#45;&gt;16802</title>
<path fill="none" stroke="black" d="M1173.55,-71.75C1169.37,-63.12 1165.12,-54.36 1161.33,-46.53"/>
<polygon fill="black" stroke="black" points="1164.48,-45.01 1156.98,-37.53 1158.18,-48.06 1164.48,-45.01"/>
</g>
<!-- 16953 -->
<g id="node28" class="node">
<title>16953</title>
<path fill="#c0c0c0" stroke="black" d="M1235,-36C1235,-36 1205,-36 1205,-36 1199,-36 1193,-30 1193,-24 1193,-24 1193,-12 1193,-12 1193,-6 1199,0 1205,0 1205,0 1235,0 1235,0 1241,0 1247,-6 1247,-12 1247,-12 1247,-24 1247,-24 1247,-30 1241,-36 1235,-36"/>
<text text-anchor="middle" x="1220" y="-13.32" font-family="Helvetica,sans-Serif" font-size="14.00">(...)</text>
</g>
<!-- 16801&#45;&gt;16953 -->
<g id="edge27" class="edge">
<title>16801&#45;&gt;16953</title>
<path fill="none" stroke="black" d="M1207.23,-71.75C1209.24,-63.42 1211.29,-54.97 1213.14,-47.34"/>
<polygon fill="black" stroke="black" points="1216.53,-48.19 1215.49,-37.64 1209.73,-46.54 1216.53,-48.19"/>
</g>
<!-- 16997 -->
<g id="node30" class="node">
<title>16997</title>
<path fill="#c0c0c0" stroke="black" d="M1332,-36C1332,-36 1302,-36 1302,-36 1296,-36 1290,-30 1290,-24 1290,-24 1290,-12 1290,-12 1290,-6 1296,0 1302,0 1302,0 1332,0 1332,0 1338,0 1344,-6 1344,-12 1344,-12 1344,-24 1344,-24 1344,-30 1338,-36 1332,-36"/>
<text text-anchor="middle" x="1317" y="-13.32" font-family="Helvetica,sans-Serif" font-size="14.00">(...)</text>
</g>
<!-- 16996&#45;&gt;16997 -->
<g id="edge29" class="edge">
<title>16996&#45;&gt;16997</title>
<path fill="none" stroke="black" d="M1336.16,-71.75C1333.06,-63.22 1329.92,-54.57 1327.1,-46.8"/>
<polygon fill="black" stroke="black" points="1330.46,-45.8 1323.75,-37.6 1323.88,-48.19 1330.46,-45.8"/>
</g>
<!-- 16998 -->
<g id="node31" class="node">
<title>16998</title>
<path fill="#c0c0c0" stroke="black" d="M1404,-36C1404,-36 1374,-36 1374,-36 1368,-36 1362,-30 1362,-24 1362,-24 1362,-12 1362,-12 1362,-6 1368,0 1374,0 1374,0 1404,0 1404,0 1410,0 1416,-6 1416,-12 1416,-12 1416,-24 1416,-24 1416,-30 1410,-36 1404,-36"/>
<text text-anchor="middle" x="1389" y="-13.32" font-family="Helvetica,sans-Serif" font-size="14.00">(...)</text>
</g>
<!-- 16996&#45;&gt;16998 -->
<g id="edge30" class="edge">
<title>16996&#45;&gt;16998</title>
<path fill="none" stroke="black" d="M1369.84,-71.75C1372.94,-63.22 1376.08,-54.57 1378.9,-46.8"/>
<polygon fill="black" stroke="black" points="1382.12,-48.19 1382.25,-37.6 1375.54,-45.8 1382.12,-48.19"/>
</g>
</g>
</svg>
