<?xml version="1.0" encoding="UTF-8" standalone="no"?>
<!DOCTYPE svg PUBLIC "-//W3C//DTD SVG 1.1//EN"
 "http://www.w3.org/Graphics/SVG/1.1/DTD/svg11.dtd">
<!-- Generated by graphviz version 12.0.0 (20240803.0821)
 -->
<!-- Title: Tree Pages: 1 -->
<svg width="1428pt" height="565pt"
 viewBox="0.00 0.00 1428.00 565.00" xmlns="http://www.w3.org/2000/svg" xmlns:xlink="http://www.w3.org/1999/xlink">
<g id="graph0" class="graph" transform="scale(1 1) rotate(0) translate(4 561)">
<title>Tree</title>
<polygon fill="white" stroke="none" points="-4,4 -4,-561 1424,-561 1424,4 -4,4"/>
<!-- 0 -->
<g id="node1" class="node">
<title>0</title>
<path fill="#fdfeff" stroke="black" d="M794,-557C794,-557 634,-557 634,-557 628,-557 622,-551 622,-545 622,-545 622,-474.75 622,-474.75 622,-468.75 628,-462.75 634,-462.75 634,-462.75 794,-462.75 794,-462.75 800,-462.75 806,-468.75 806,-474.75 806,-474.75 806,-545 806,-545 806,-551 800,-557 794,-557"/>
<text text-anchor="middle" x="714" y="-539.7" font-family="Helvetica,sans-Serif" font-size="14.00">2_U &lt;= 0.5</text>
<text text-anchor="middle" x="714" y="-522.45" font-family="Helvetica,sans-Serif" font-size="14.00">entropy = 1.0</text>
<text text-anchor="middle" x="714" y="-505.2" font-family="Helvetica,sans-Serif" font-size="14.00">samples = 38282</text>
<text text-anchor="middle" x="714" y="-487.95" font-family="Helvetica,sans-Serif" font-size="14.00">value = [30015, 30330]</text>
<text text-anchor="middle" x="714" y="-470.7" font-family="Helvetica,sans-Serif" font-size="14.00">class = Plant</text>
</g>
<!-- 1 -->
<g id="node2" class="node">
<title>1</title>
<path fill="#fdf4ee" stroke="black" d="M619,-426.75C619,-426.75 459,-426.75 459,-426.75 453,-426.75 447,-420.75 447,-414.75 447,-414.75 447,-344.5 447,-344.5 447,-338.5 453,-332.5 459,-332.5 459,-332.5 619,-332.5 619,-332.5 625,-332.5 631,-338.5 631,-344.5 631,-344.5 631,-414.75 631,-414.75 631,-420.75 625,-426.75 619,-426.75"/>
<text text-anchor="middle" x="539" y="-409.45" font-family="Helvetica,sans-Serif" font-size="14.00">1_U &lt;= 0.5</text>
<text text-anchor="middle" x="539" y="-392.2" font-family="Helvetica,sans-Serif" font-size="14.00">entropy = 0.999</text>
<text text-anchor="middle" x="539" y="-374.95" font-family="Helvetica,sans-Serif" font-size="14.00">samples = 28604</text>
<text text-anchor="middle" x="539" y="-357.7" font-family="Helvetica,sans-Serif" font-size="14.00">value = [23517, 21526]</text>
<text text-anchor="middle" x="539" y="-340.45" font-family="Helvetica,sans-Serif" font-size="14.00">class = Animal</text>
</g>
<!-- 0&#45;&gt;1 -->
<g id="edge1" class="edge">
<title>0&#45;&gt;1</title>
<path fill="none" stroke="black" d="M650.82,-462.57C638.01,-453.19 624.45,-443.25 611.36,-433.65"/>
<polygon fill="black" stroke="black" points="613.74,-431.06 603.6,-427.97 609.6,-436.7 613.74,-431.06"/>
<text text-anchor="middle" x="606.19" y="-447.11" font-family="Helvetica,sans-Serif" font-size="14.00">True</text>
</g>
<!-- 12332 -->
<g id="node17" class="node">
<title>12332</title>
<path fill="#cbe5f8" stroke="black" d="M970,-426.75C970,-426.75 828,-426.75 828,-426.75 822,-426.75 816,-420.75 816,-414.75 816,-414.75 816,-344.5 816,-344.5 816,-338.5 822,-332.5 828,-332.5 828,-332.5 970,-332.5 970,-332.5 976,-332.5 982,-338.5 982,-344.5 982,-344.5 982,-414.75 982,-414.75 982,-420.75 976,-426.75 970,-426.75"/>
<text text-anchor="middle" x="899" y="-409.45" font-family="Helvetica,sans-Serif" font-size="14.00">19_G &lt;= 0.5</text>
<text text-anchor="middle" x="899" y="-392.2" font-family="Helvetica,sans-Serif" font-size="14.00">entropy = 0.984</text>
<text text-anchor="middle" x="899" y="-374.95" font-family="Helvetica,sans-Serif" font-size="14.00">samples = 9678</text>
<text text-anchor="middle" x="899" y="-357.7" font-family="Helvetica,sans-Serif" font-size="14.00">value = [6498, 8804]</text>
<text text-anchor="middle" x="899" y="-340.45" font-family="Helvetica,sans-Serif" font-size="14.00">class = Plant</text>
</g>
<!-- 0&#45;&gt;12332 -->
<g id="edge16" class="edge">
<title>0&#45;&gt;12332</title>
<path fill="none" stroke="black" d="M781.05,-462.39C794.49,-453.07 808.71,-443.22 822.45,-433.69"/>
<polygon fill="black" stroke="black" points="824.4,-436.6 830.62,-428.03 820.41,-430.85 824.4,-436.6"/>
<text text-anchor="middle" x="827.41" y="-447.09" font-family="Helvetica,sans-Serif" font-size="14.00">False</text>
</g>
<!-- 2 -->
<g id="node3" class="node">
<title>2</title>
<path fill="#f7dac5" stroke="black" d="M338.5,-296.5C338.5,-296.5 187.5,-296.5 187.5,-296.5 181.5,-296.5 175.5,-290.5 175.5,-284.5 175.5,-284.5 175.5,-214.25 175.5,-214.25 175.5,-208.25 181.5,-202.25 187.5,-202.25 187.5,-202.25 338.5,-202.25 338.5,-202.25 344.5,-202.25 350.5,-208.25 350.5,-214.25 350.5,-214.25 350.5,-284.5 350.5,-284.5 350.5,-290.5 344.5,-296.5 338.5,-296.5"/>
<text text-anchor="middle" x="263" y="-279.2" font-family="Helvetica,sans-Serif" font-size="14.00">22_U &lt;= 0.5</text>
<text text-anchor="middle" x="263" y="-261.95" font-family="Helvetica,sans-Serif" font-size="14.00">entropy = 0.979</text>
<text text-anchor="middle" x="263" y="-244.7" font-family="Helvetica,sans-Serif" font-size="14.00">samples = 13472</text>
<text text-anchor="middle" x="263" y="-227.45" font-family="Helvetica,sans-Serif" font-size="14.00">value = [12431, 8808]</text>
<text text-anchor="middle" x="263" y="-210.2" font-family="Helvetica,sans-Serif" font-size="14.00">class = Animal</text>
</g>
<!-- 1&#45;&gt;2 -->
<g id="edge2" class="edge">
<title>1&#45;&gt;2</title>
<path fill="none" stroke="black" d="M446.71,-335.74C419.22,-322.97 388.99,-308.92 361.14,-295.98"/>
<polygon fill="black" stroke="black" points="362.91,-292.94 352.37,-291.9 359.96,-299.29 362.91,-292.94"/>
</g>
<!-- 7195 -->
<g id="node10" class="node">
<title>7195</title>
<path fill="#e6f2fc" stroke="black" d="M619,-296.5C619,-296.5 459,-296.5 459,-296.5 453,-296.5 447,-290.5 447,-284.5 447,-284.5 447,-214.25 447,-214.25 447,-208.25 453,-202.25 459,-202.25 459,-202.25 619,-202.25 619,-202.25 625,-202.25 631,-208.25 631,-214.25 631,-214.25 631,-284.5 631,-284.5 631,-290.5 625,-296.5 619,-296.5"/>
<text text-anchor="middle" x="539" y="-279.2" font-family="Helvetica,sans-Serif" font-size="14.00">22_G &lt;= 0.5</text>
<text text-anchor="middle" x="539" y="-261.95" font-family="Helvetica,sans-Serif" font-size="14.00">entropy = 0.997</text>
<text text-anchor="middle" x="539" y="-244.7" font-family="Helvetica,sans-Serif" font-size="14.00">samples = 15132</text>
<text text-anchor="middle" x="539" y="-227.45" font-family="Helvetica,sans-Serif" font-size="14.00">value = [11086, 12718]</text>
<text text-anchor="middle" x="539" y="-210.2" font-family="Helvetica,sans-Serif" font-size="14.00">class = Plant</text>
</g>
<!-- 1&#45;&gt;7195 -->
<g id="edge9" class="edge">
<title>1&#45;&gt;7195</title>
<path fill="none" stroke="black" d="M539,-332.32C539,-324.42 539,-316.13 539,-307.98"/>
<polygon fill="black" stroke="black" points="542.5,-308.12 539,-298.12 535.5,-308.12 542.5,-308.12"/>
</g>
<!-- 3 -->
<g id="node4" class="node">
<title>3</title>
<path fill="#fbece1" stroke="black" d="M154,-166.25C154,-166.25 12,-166.25 12,-166.25 6,-166.25 0,-160.25 0,-154.25 0,-154.25 0,-84 0,-84 0,-78 6,-72 12,-72 12,-72 154,-72 154,-72 160,-72 166,-78 166,-84 166,-84 166,-154.25 166,-154.25 166,-160.25 160,-166.25 154,-166.25"/>
<text text-anchor="middle" x="83" y="-148.95" font-family="Helvetica,sans-Serif" font-size="14.00">2_G &lt;= 0.5</text>
<text text-anchor="middle" x="83" y="-131.7" font-family="Helvetica,sans-Serif" font-size="14.00">entropy = 0.995</text>
<text text-anchor="middle" x="83" y="-114.45" font-family="Helvetica,sans-Serif" font-size="14.00">samples = 11486</text>
<text text-anchor="middle" x="83" y="-97.2" font-family="Helvetica,sans-Serif" font-size="14.00">value = [9755, 8291]</text>
<text text-anchor="middle" x="83" y="-79.95" font-family="Helvetica,sans-Serif" font-size="14.00">class = Animal</text>
</g>
<!-- 2&#45;&gt;3 -->
<g id="edge3" class="edge">
<title>2&#45;&gt;3</title>
<path fill="none" stroke="black" d="M197.76,-201.89C184.68,-192.57 170.85,-182.72 157.48,-173.19"/>
<polygon fill="black" stroke="black" points="159.73,-170.49 149.55,-167.54 155.66,-176.2 159.73,-170.49"/>
</g>
<!-- 6410 -->
<g id="node7" class="node">
<title>6410</title>
<path fill="#ea995f" stroke="black" d="M329.5,-166.25C329.5,-166.25 196.5,-166.25 196.5,-166.25 190.5,-166.25 184.5,-160.25 184.5,-154.25 184.5,-154.25 184.5,-84 184.5,-84 184.5,-78 190.5,-72 196.5,-72 196.5,-72 329.5,-72 329.5,-72 335.5,-72 341.5,-78 341.5,-84 341.5,-84 341.5,-154.25 341.5,-154.25 341.5,-160.25 335.5,-166.25 329.5,-166.25"/>
<text text-anchor="middle" x="263" y="-148.95" font-family="Helvetica,sans-Serif" font-size="14.00">1_A &lt;= 0.5</text>
<text text-anchor="middle" x="263" y="-131.7" font-family="Helvetica,sans-Serif" font-size="14.00">entropy = 0.639</text>
<text text-anchor="middle" x="263" y="-114.45" font-family="Helvetica,sans-Serif" font-size="14.00">samples = 1986</text>
<text text-anchor="middle" x="263" y="-97.2" font-family="Helvetica,sans-Serif" font-size="14.00">value = [2676, 517]</text>
<text text-anchor="middle" x="263" y="-79.95" font-family="Helvetica,sans-Serif" font-size="14.00">class = Animal</text>
</g>
<!-- 2&#45;&gt;6410 -->
<g id="edge6" class="edge">
<title>2&#45;&gt;6410</title>
<path fill="none" stroke="black" d="M263,-202.07C263,-194.17 263,-185.88 263,-177.73"/>
<polygon fill="black" stroke="black" points="266.5,-177.87 263,-167.87 259.5,-177.87 266.5,-177.87"/>
</g>
<!-- 4 -->
<g id="node5" class="node">
<title>4</title>
<path fill="#c0c0c0" stroke="black" d="M62,-36C62,-36 32,-36 32,-36 26,-36 20,-30 20,-24 20,-24 20,-12 20,-12 20,-6 26,0 32,0 32,0 62,0 62,0 68,0 74,-6 74,-12 74,-12 74,-24 74,-24 74,-30 68,-36 62,-36"/>
<text text-anchor="middle" x="47" y="-13.32" font-family="Helvetica,sans-Serif" font-size="14.00">(...)</text>
</g>
<!-- 3&#45;&gt;4 -->
<g id="edge4" class="edge">
<title>3&#45;&gt;4</title>
<path fill="none" stroke="black" d="M66.16,-71.75C63.06,-63.22 59.92,-54.57 57.1,-46.8"/>
<polygon fill="black" stroke="black" points="60.46,-45.8 53.75,-37.6 53.88,-48.19 60.46,-45.8"/>
</g>
<!-- 4159 -->
<g id="node6" class="node">
<title>4159</title>
<path fill="#c0c0c0" stroke="black" d="M134,-36C134,-36 104,-36 104,-36 98,-36 92,-30 92,-24 92,-24 92,-12 92,-12 92,-6 98,0 104,0 104,0 134,0 134,0 140,0 146,-6 146,-12 146,-12 146,-24 146,-24 146,-30 140,-36 134,-36"/>
<text text-anchor="middle" x="119" y="-13.32" font-family="Helvetica,sans-Serif" font-size="14.00">(...)</text>
</g>
<!-- 3&#45;&gt;4159 -->
<g id="edge5" class="edge">
<title>3&#45;&gt;4159</title>
<path fill="none" stroke="black" d="M99.84,-71.75C102.94,-63.22 106.08,-54.57 108.9,-46.8"/>
<polygon fill="black" stroke="black" points="112.12,-48.19 112.25,-37.6 105.54,-45.8 112.12,-48.19"/>
</g>
<!-- 6411 -->
<g id="node8" class="node">
<title>6411</title>
<path fill="#c0c0c0" stroke="black" d="M246,-36C246,-36 216,-36 216,-36 210,-36 204,-30 204,-24 204,-24 204,-12 204,-12 204,-6 210,0 216,0 216,0 246,0 246,0 252,0 258,-6 258,-12 258,-12 258,-24 258,-24 258,-30 252,-36 246,-36"/>
<text text-anchor="middle" x="231" y="-13.32" font-family="Helvetica,sans-Serif" font-size="14.00">(...)</text>
</g>
<!-- 6410&#45;&gt;6411 -->
<g id="edge7" class="edge">
<title>6410&#45;&gt;6411</title>
<path fill="none" stroke="black" d="M248.03,-71.75C245.31,-63.32 242.55,-54.77 240.06,-47.07"/>
<polygon fill="black" stroke="black" points="243.41,-46.05 237.01,-37.61 236.75,-48.2 243.41,-46.05"/>
</g>
<!-- 6874 -->
<g id="node9" class="node">
<title>6874</title>
<path fill="#c0c0c0" stroke="black" d="M318,-36C318,-36 288,-36 288,-36 282,-36 276,-30 276,-24 276,-24 276,-12 276,-12 276,-6 282,0 288,0 288,0 318,0 318,0 324,0 330,-6 330,-12 330,-12 330,-24 330,-24 330,-30 324,-36 318,-36"/>
<text text-anchor="middle" x="303" y="-13.32" font-family="Helvetica,sans-Serif" font-size="14.00">(...)</text>
</g>
<!-- 6410&#45;&gt;6874 -->
<g id="edge8" class="edge">
<title>6410&#45;&gt;6874</title>
<path fill="none" stroke="black" d="M281.71,-71.75C285.15,-63.22 288.65,-54.57 291.78,-46.8"/>
<polygon fill="black" stroke="black" points="295.01,-48.16 295.5,-37.58 288.52,-45.54 295.01,-48.16"/>
</g>
<!-- 7196 -->
<g id="node11" class="node">
<title>7196</title>
<path fill="#c2e1f7" stroke="black" d="M522.5,-166.25C522.5,-166.25 371.5,-166.25 371.5,-166.25 365.5,-166.25 359.5,-160.25 359.5,-154.25 359.5,-154.25 359.5,-84 359.5,-84 359.5,-78 365.5,-72 371.5,-72 371.5,-72 522.5,-72 522.5,-72 528.5,-72 534.5,-78 534.5,-84 534.5,-84 534.5,-154.25 534.5,-154.25 534.5,-160.25 528.5,-166.25 522.5,-166.25"/>
<text text-anchor="middle" x="447" y="-148.95" font-family="Helvetica,sans-Serif" font-size="14.00">14_C &lt;= 0.5</text>
<text text-anchor="middle" x="447" y="-131.7" font-family="Helvetica,sans-Serif" font-size="14.00">entropy = 0.976</text>
<text text-anchor="middle" x="447" y="-114.45" font-family="Helvetica,sans-Serif" font-size="14.00">samples = 13034</text>
<text text-anchor="middle" x="447" y="-97.2" font-family="Helvetica,sans-Serif" font-size="14.00">value = [8419, 12180]</text>
<text text-anchor="middle" x="447" y="-79.95" font-family="Helvetica,sans-Serif" font-size="14.00">class = Plant</text>
</g>
<!-- 7195&#45;&gt;7196 -->
<g id="edge10" class="edge">
<title>7195&#45;&gt;7196</title>
<path fill="none" stroke="black" d="M505.79,-202.07C499.6,-193.45 493.07,-184.35 486.71,-175.49"/>
<polygon fill="black" stroke="black" points="489.72,-173.67 481.05,-167.59 484.03,-177.75 489.72,-173.67"/>
</g>
<!-- 11713 -->
<g id="node14" class="node">
<title>11713</title>
<path fill="#ea9a61" stroke="black" d="M697.5,-166.25C697.5,-166.25 564.5,-166.25 564.5,-166.25 558.5,-166.25 552.5,-160.25 552.5,-154.25 552.5,-154.25 552.5,-84 552.5,-84 552.5,-78 558.5,-72 564.5,-72 564.5,-72 697.5,-72 697.5,-72 703.5,-72 709.5,-78 709.5,-84 709.5,-84 709.5,-154.25 709.5,-154.25 709.5,-160.25 703.5,-166.25 697.5,-166.25"/>
<text text-anchor="middle" x="631" y="-148.95" font-family="Helvetica,sans-Serif" font-size="14.00">19_U &lt;= 0.5</text>
<text text-anchor="middle" x="631" y="-131.7" font-family="Helvetica,sans-Serif" font-size="14.00">entropy = 0.653</text>
<text text-anchor="middle" x="631" y="-114.45" font-family="Helvetica,sans-Serif" font-size="14.00">samples = 2098</text>
<text text-anchor="middle" x="631" y="-97.2" font-family="Helvetica,sans-Serif" font-size="14.00">value = [2667, 538]</text>
<text text-anchor="middle" x="631" y="-79.95" font-family="Helvetica,sans-Serif" font-size="14.00">class = Animal</text>
</g>
<!-- 7195&#45;&gt;11713 -->
<g id="edge13" class="edge">
<title>7195&#45;&gt;11713</title>
<path fill="none" stroke="black" d="M572.21,-202.07C578.4,-193.45 584.93,-184.35 591.29,-175.49"/>
<polygon fill="black" stroke="black" points="593.97,-177.75 596.95,-167.59 588.28,-173.67 593.97,-177.75"/>
</g>
<!-- 7197 -->
<g id="node12" class="node">
<title>7197</title>
<path fill="#c0c0c0" stroke="black" d="M410,-36C410,-36 380,-36 380,-36 374,-36 368,-30 368,-24 368,-24 368,-12 368,-12 368,-6 374,0 380,0 380,0 410,0 410,0 416,0 422,-6 422,-12 422,-12 422,-24 422,-24 422,-30 416,-36 410,-36"/>
<text text-anchor="middle" x="395" y="-13.32" font-family="Helvetica,sans-Serif" font-size="14.00">(...)</text>
</g>
<!-- 7196&#45;&gt;7197 -->
<g id="edge11" class="edge">
<title>7196&#45;&gt;7197</title>
<path fill="none" stroke="black" d="M422.67,-71.75C418.1,-63.03 413.45,-54.16 409.3,-46.26"/>
<polygon fill="black" stroke="black" points="412.46,-44.74 404.71,-37.51 406.26,-47.99 412.46,-44.74"/>
</g>
<!-- 10788 -->
<g id="node13" class="node">
<title>10788</title>
<path fill="#c0c0c0" stroke="black" d="M482,-36C482,-36 452,-36 452,-36 446,-36 440,-30 440,-24 440,-24 440,-12 440,-12 440,-6 446,0 452,0 452,0 482,0 482,0 488,0 494,-6 494,-12 494,-12 494,-24 494,-24 494,-30 488,-36 482,-36"/>
<text text-anchor="middle" x="467" y="-13.32" font-family="Helvetica,sans-Serif" font-size="14.00">(...)</text>
</g>
<!-- 7196&#45;&gt;10788 -->
<g id="edge12" class="edge">
<title>7196&#45;&gt;10788</title>
<path fill="none" stroke="black" d="M456.36,-71.75C458.04,-63.42 459.74,-54.97 461.28,-47.34"/>
<polygon fill="black" stroke="black" points="464.69,-48.15 463.24,-37.66 457.83,-46.77 464.69,-48.15"/>
</g>
<!-- 11714 -->
<g id="node15" class="node">
<title>11714</title>
<path fill="#c0c0c0" stroke="black" d="M592,-36C592,-36 562,-36 562,-36 556,-36 550,-30 550,-24 550,-24 550,-12 550,-12 550,-6 556,0 562,0 562,0 592,0 592,0 598,0 604,-6 604,-12 604,-12 604,-24 604,-24 604,-30 598,-36 592,-36"/>
<text text-anchor="middle" x="577" y="-13.32" font-family="Helvetica,sans-Serif" font-size="14.00">(...)</text>
</g>
<!-- 11713&#45;&gt;11714 -->
<g id="edge14" class="edge">
<title>11713&#45;&gt;11714</title>
<path fill="none" stroke="black" d="M605.74,-71.75C600.98,-63.03 596.16,-54.16 591.85,-46.26"/>
<polygon fill="black" stroke="black" points="594.94,-44.61 587.08,-37.5 588.79,-47.96 594.94,-44.61"/>
</g>
<!-- 12189 -->
<g id="node16" class="node">
<title>12189</title>
<path fill="#c0c0c0" stroke="black" d="M664,-36C664,-36 634,-36 634,-36 628,-36 622,-30 622,-24 622,-24 622,-12 622,-12 622,-6 628,0 634,0 634,0 664,0 664,0 670,0 676,-6 676,-12 676,-12 676,-24 676,-24 676,-30 670,-36 664,-36"/>
<text text-anchor="middle" x="649" y="-13.32" font-family="Helvetica,sans-Serif" font-size="14.00">(...)</text>
</g>
<!-- 11713&#45;&gt;12189 -->
<g id="edge15" class="edge">
<title>11713&#45;&gt;12189</title>
<path fill="none" stroke="black" d="M639.42,-71.75C640.93,-63.42 642.47,-54.97 643.85,-47.34"/>
<polygon fill="black" stroke="black" points="647.27,-48.13 645.61,-37.66 640.38,-46.88 647.27,-48.13"/>
</g>
<!-- 12333 -->
<g id="node18" class="node">
<title>12333</title>
<path fill="#baddf6" stroke="black" d="M970,-296.5C970,-296.5 828,-296.5 828,-296.5 822,-296.5 816,-290.5 816,-284.5 816,-284.5 816,-214.25 816,-214.25 816,-208.25 822,-202.25 828,-202.25 828,-202.25 970,-202.25 970,-202.25 976,-202.25 982,-208.25 982,-214.25 982,-214.25 982,-284.5 982,-284.5 982,-290.5 976,-296.5 970,-296.5"/>
<text text-anchor="middle" x="899" y="-279.2" font-family="Helvetica,sans-Serif" font-size="14.00">20_G &lt;= 0.5</text>
<text text-anchor="middle" x="899" y="-261.95" font-family="Helvetica,sans-Serif" font-size="14.00">entropy = 0.968</text>
<text text-anchor="middle" x="899" y="-244.7" font-family="Helvetica,sans-Serif" font-size="14.00">samples = 7753</text>
<text text-anchor="middle" x="899" y="-227.45" font-family="Helvetica,sans-Serif" font-size="14.00">value = [4862, 7434]</text>
<text text-anchor="middle" x="899" y="-210.2" font-family="Helvetica,sans-Serif" font-size="14.00">class = Plant</text>
</g>
<!-- 12332&#45;&gt;12333 -->
<g id="edge17" class="edge">
<title>12332&#45;&gt;12333</title>
<path fill="none" stroke="black" d="M899,-332.32C899,-324.42 899,-316.13 899,-307.98"/>
<polygon fill="black" stroke="black" points="902.5,-308.12 899,-298.12 895.5,-308.12 902.5,-308.12"/>
</g>
<!-- 15622 -->
<g id="node25" class="node">
<title>15622</title>
<path fill="#fbebdf" stroke="black" d="M1242,-296.5C1242,-296.5 1100,-296.5 1100,-296.5 1094,-296.5 1088,-290.5 1088,-284.5 1088,-284.5 1088,-214.25 1088,-214.25 1088,-208.25 1094,-202.25 1100,-202.25 1100,-202.25 1242,-202.25 1242,-202.25 1248,-202.25 1254,-208.25 1254,-214.25 1254,-214.25 1254,-284.5 1254,-284.5 1254,-290.5 1248,-296.5 1242,-296.5"/>
<text text-anchor="middle" x="1171" y="-279.2" font-family="Helvetica,sans-Serif" font-size="14.00">6_A &lt;= 0.5</text>
<text text-anchor="middle" x="1171" y="-261.95" font-family="Helvetica,sans-Serif" font-size="14.00">entropy = 0.994</text>
<text text-anchor="middle" x="1171" y="-244.7" font-family="Helvetica,sans-Serif" font-size="14.00">samples = 1925</text>
<text text-anchor="middle" x="1171" y="-227.45" font-family="Helvetica,sans-Serif" font-size="14.00">value = [1636, 1370]</text>
<text text-anchor="middle" x="1171" y="-210.2" font-family="Helvetica,sans-Serif" font-size="14.00">class = Animal</text>
</g>
<!-- 12332&#45;&gt;15622 -->
<g id="edge24" class="edge">
<title>12332&#45;&gt;15622</title>
<path fill="none" stroke="black" d="M982.46,-339.27C1012.48,-325.12 1046.54,-309.06 1077.38,-294.52"/>
<polygon fill="black" stroke="black" points="1078.78,-297.73 1086.33,-290.3 1075.79,-291.4 1078.78,-297.73"/>
</g>
<!-- 12334 -->
<g id="node19" class="node">
<title>12334</title>
<path fill="#a6d3f3" stroke="black" d="M882,-166.25C882,-166.25 740,-166.25 740,-166.25 734,-166.25 728,-160.25 728,-154.25 728,-154.25 728,-84 728,-84 728,-78 734,-72 740,-72 740,-72 882,-72 882,-72 888,-72 894,-78 894,-84 894,-84 894,-154.25 894,-154.25 894,-160.25 888,-166.25 882,-166.25"/>
<text text-anchor="middle" x="811" y="-148.95" font-family="Helvetica,sans-Serif" font-size="14.00">16_U &lt;= 0.5</text>
<text text-anchor="middle" x="811" y="-131.7" font-family="Helvetica,sans-Serif" font-size="14.00">entropy = 0.938</text>
<text text-anchor="middle" x="811" y="-114.45" font-family="Helvetica,sans-Serif" font-size="14.00">samples = 6402</text>
<text text-anchor="middle" x="811" y="-97.2" font-family="Helvetica,sans-Serif" font-size="14.00">value = [3595, 6547]</text>
<text text-anchor="middle" x="811" y="-79.95" font-family="Helvetica,sans-Serif" font-size="14.00">class = Plant</text>
</g>
<!-- 12333&#45;&gt;12334 -->
<g id="edge18" class="edge">
<title>12333&#45;&gt;12334</title>
<path fill="none" stroke="black" d="M867.23,-202.07C861.37,-193.54 855.2,-184.54 849.18,-175.77"/>
<polygon fill="black" stroke="black" points="852.12,-173.87 843.58,-167.61 846.35,-177.83 852.12,-173.87"/>
</g>
<!-- 14835 -->
<g id="node22" class="node">
<title>14835</title>
<path fill="#f7d9c4" stroke="black" d="M1057.5,-166.25C1057.5,-166.25 924.5,-166.25 924.5,-166.25 918.5,-166.25 912.5,-160.25 912.5,-154.25 912.5,-154.25 912.5,-84 912.5,-84 912.5,-78 918.5,-72 924.5,-72 924.5,-72 1057.5,-72 1057.5,-72 1063.5,-72 1069.5,-78 1069.5,-84 1069.5,-84 1069.5,-154.25 1069.5,-154.25 1069.5,-160.25 1063.5,-166.25 1057.5,-166.25"/>
<text text-anchor="middle" x="991" y="-148.95" font-family="Helvetica,sans-Serif" font-size="14.00">19_U &lt;= 0.5</text>
<text text-anchor="middle" x="991" y="-131.7" font-family="Helvetica,sans-Serif" font-size="14.00">entropy = 0.977</text>
<text text-anchor="middle" x="991" y="-114.45" font-family="Helvetica,sans-Serif" font-size="14.00">samples = 1351</text>
<text text-anchor="middle" x="991" y="-97.2" font-family="Helvetica,sans-Serif" font-size="14.00">value = [1267, 887]</text>
<text text-anchor="middle" x="991" y="-79.95" font-family="Helvetica,sans-Serif" font-size="14.00">class = Animal</text>
</g>
<!-- 12333&#45;&gt;14835 -->
<g id="edge21" class="edge">
<title>12333&#45;&gt;14835</title>
<path fill="none" stroke="black" d="M932.21,-202.07C938.4,-193.45 944.93,-184.35 951.29,-175.49"/>
<polygon fill="black" stroke="black" points="953.97,-177.75 956.95,-167.59 948.28,-173.67 953.97,-177.75"/>
</g>
<!-- 12335 -->
<g id="node20" class="node">
<title>12335</title>
<path fill="#c0c0c0" stroke="black" d="M772,-36C772,-36 742,-36 742,-36 736,-36 730,-30 730,-24 730,-24 730,-12 730,-12 730,-6 736,0 742,0 742,0 772,0 772,0 778,0 784,-6 784,-12 784,-12 784,-24 784,-24 784,-30 778,-36 772,-36"/>
<text text-anchor="middle" x="757" y="-13.32" font-family="Helvetica,sans-Serif" font-size="14.00">(...)</text>
</g>
<!-- 12334&#45;&gt;12335 -->
<g id="edge19" class="edge">
<title>12334&#45;&gt;12335</title>
<path fill="none" stroke="black" d="M785.74,-71.75C780.98,-63.03 776.16,-54.16 771.85,-46.26"/>
<polygon fill="black" stroke="black" points="774.94,-44.61 767.08,-37.5 768.79,-47.96 774.94,-44.61"/>
</g>
<!-- 14150 -->
<g id="node21" class="node">
<title>14150</title>
<path fill="#c0c0c0" stroke="black" d="M844,-36C844,-36 814,-36 814,-36 808,-36 802,-30 802,-24 802,-24 802,-12 802,-12 802,-6 808,0 814,0 814,0 844,0 844,0 850,0 856,-6 856,-12 856,-12 856,-24 856,-24 856,-30 850,-36 844,-36"/>
<text text-anchor="middle" x="829" y="-13.32" font-family="Helvetica,sans-Serif" font-size="14.00">(...)</text>
</g>
<!-- 12334&#45;&gt;14150 -->
<g id="edge20" class="edge">
<title>12334&#45;&gt;14150</title>
<path fill="none" stroke="black" d="M819.42,-71.75C820.93,-63.42 822.47,-54.97 823.85,-47.34"/>
<polygon fill="black" stroke="black" points="827.27,-48.13 825.61,-37.66 820.38,-46.88 827.27,-48.13"/>
</g>
<!-- 14836 -->
<g id="node23" class="node">
<title>14836</title>
<path fill="#c0c0c0" stroke="black" d="M952,-36C952,-36 922,-36 922,-36 916,-36 910,-30 910,-24 910,-24 910,-12 910,-12 910,-6 916,0 922,0 922,0 952,0 952,0 958,0 964,-6 964,-12 964,-12 964,-24 964,-24 964,-30 958,-36 952,-36"/>
<text text-anchor="middle" x="937" y="-13.32" font-family="Helvetica,sans-Serif" font-size="14.00">(...)</text>
</g>
<!-- 14835&#45;&gt;14836 -->
<g id="edge22" class="edge">
<title>14835&#45;&gt;14836</title>
<path fill="none" stroke="black" d="M965.74,-71.75C960.98,-63.03 956.16,-54.16 951.85,-46.26"/>
<polygon fill="black" stroke="black" points="954.94,-44.61 947.08,-37.5 948.79,-47.96 954.94,-44.61"/>
</g>
<!-- 15265 -->
<g id="node24" class="node">
<title>15265</title>
<path fill="#c0c0c0" stroke="black" d="M1024,-36C1024,-36 994,-36 994,-36 988,-36 982,-30 982,-24 982,-24 982,-12 982,-12 982,-6 988,0 994,0 994,0 1024,0 1024,0 1030,0 1036,-6 1036,-12 1036,-12 1036,-24 1036,-24 1036,-30 1030,-36 1024,-36"/>
<text text-anchor="middle" x="1009" y="-13.32" font-family="Helvetica,sans-Serif" font-size="14.00">(...)</text>
</g>
<!-- 14835&#45;&gt;15265 -->
<g id="edge23" class="edge">
<title>14835&#45;&gt;15265</title>
<path fill="none" stroke="black" d="M999.42,-71.75C1000.93,-63.42 1002.47,-54.97 1003.85,-47.34"/>
<polygon fill="black" stroke="black" points="1007.27,-48.13 1005.61,-37.66 1000.38,-46.88 1007.27,-48.13"/>
</g>
<!-- 15623 -->
<g id="node26" class="node">
<title>15623</title>
<path fill="#f8dfcd" stroke="black" d="M1242,-166.25C1242,-166.25 1100,-166.25 1100,-166.25 1094,-166.25 1088,-160.25 1088,-154.25 1088,-154.25 1088,-84 1088,-84 1088,-78 1094,-72 1100,-72 1100,-72 1242,-72 1242,-72 1248,-72 1254,-78 1254,-84 1254,-84 1254,-154.25 1254,-154.25 1254,-160.25 1248,-166.25 1242,-166.25"/>
<text text-anchor="middle" x="1171" y="-148.95" font-family="Helvetica,sans-Serif" font-size="14.00">18_C &lt;= 0.5</text>
<text text-anchor="middle" x="1171" y="-131.7" font-family="Helvetica,sans-Serif" font-size="14.00">entropy = 0.985</text>
<text text-anchor="middle" x="1171" y="-114.45" font-family="Helvetica,sans-Serif" font-size="14.00">samples = 1569</text>
<text text-anchor="middle" x="1171" y="-97.2" font-family="Helvetica,sans-Serif" font-size="14.00">value = [1412, 1054]</text>
<text text-anchor="middle" x="1171" y="-79.95" font-family="Helvetica,sans-Serif" font-size="14.00">class = Animal</text>
</g>
<!-- 15622&#45;&gt;15623 -->
<g id="edge25" class="edge">
<title>15622&#45;&gt;15623</title>
<path fill="none" stroke="black" d="M1171,-202.07C1171,-194.17 1171,-185.88 1171,-177.73"/>
<polygon fill="black" stroke="black" points="1174.5,-177.87 1171,-167.87 1167.5,-177.87 1174.5,-177.87"/>
</g>
<!-- 16492 -->
<g id="node29" class="node">
<title>16492</title>
<path fill="#c5e2f7" stroke="black" d="M1408,-166.25C1408,-166.25 1284,-166.25 1284,-166.25 1278,-166.25 1272,-160.25 1272,-154.25 1272,-154.25 1272,-84 1272,-84 1272,-78 1278,-72 1284,-72 1284,-72 1408,-72 1408,-72 1414,-72 1420,-78 1420,-84 1420,-84 1420,-154.25 1420,-154.25 1420,-160.25 1414,-166.25 1408,-166.25"/>
<text text-anchor="middle" x="1346" y="-148.95" font-family="Helvetica,sans-Serif" font-size="14.00">5_G &lt;= 0.5</text>
<text text-anchor="middle" x="1346" y="-131.7" font-family="Helvetica,sans-Serif" font-size="14.00">entropy = 0.979</text>
<text text-anchor="middle" x="1346" y="-114.45" font-family="Helvetica,sans-Serif" font-size="14.00">samples = 356</text>
<text text-anchor="middle" x="1346" y="-97.2" font-family="Helvetica,sans-Serif" font-size="14.00">value = [224, 316]</text>
<text text-anchor="middle" x="1346" y="-79.95" font-family="Helvetica,sans-Serif" font-size="14.00">class = Plant</text>
</g>
<!-- 15622&#45;&gt;16492 -->
<g id="edge28" class="edge">
<title>15622&#45;&gt;16492</title>
<path fill="none" stroke="black" d="M1234.18,-202.07C1246.99,-192.69 1260.55,-182.75 1273.64,-173.15"/>
<polygon fill="black" stroke="black" points="1275.4,-176.2 1281.4,-167.47 1271.26,-170.56 1275.4,-176.2"/>
</g>
<!-- 15624 -->
<g id="node27" class="node">
<title>15624</title>
<path fill="#c0c0c0" stroke="black" d="M1147,-36C1147,-36 1117,-36 1117,-36 1111,-36 1105,-30 1105,-24 1105,-24 1105,-12 1105,-12 1105,-6 1111,0 1117,0 1117,0 1147,0 1147,0 1153,0 1159,-6 1159,-12 1159,-12 1159,-24 1159,-24 1159,-30 1153,-36 1147,-36"/>
<text text-anchor="middle" x="1132" y="-13.32" font-family="Helvetica,sans-Serif" font-size="14.00">(...)</text>
</g>
<!-- 15623&#45;&gt;15624 -->
<g id="edge26" class="edge">
<title>15623&#45;&gt;15624</title>
<path fill="none" stroke="black" d="M1152.76,-71.75C1149.4,-63.22 1145.99,-54.57 1142.94,-46.8"/>
<polygon fill="black" stroke="black" points="1146.23,-45.61 1139.31,-37.58 1139.71,-48.17 1146.23,-45.61"/>
</g>
<!-- 16375 -->
<g id="node28" class="node">
<title>16375</title>
<path fill="#c0c0c0" stroke="black" d="M1219,-36C1219,-36 1189,-36 1189,-36 1183,-36 1177,-30 1177,-24 1177,-24 1177,-12 1177,-12 1177,-6 1183,0 1189,0 1189,0 1219,0 1219,0 1225,0 1231,-6 1231,-12 1231,-12 1231,-24 1231,-24 1231,-30 1225,-36 1219,-36"/>
<text text-anchor="middle" x="1204" y="-13.32" font-family="Helvetica,sans-Serif" font-size="14.00">(...)</text>
</g>
<!-- 15623&#45;&gt;16375 -->
<g id="edge27" class="edge">
<title>15623&#45;&gt;16375</title>
<path fill="none" stroke="black" d="M1186.44,-71.75C1189.24,-63.32 1192.09,-54.77 1194.66,-47.07"/>
<polygon fill="black" stroke="black" points="1197.97,-48.2 1197.8,-37.61 1191.33,-45.99 1197.97,-48.2"/>
</g>
<!-- 16493 -->
<g id="node30" class="node">
<title>16493</title>
<path fill="#c0c0c0" stroke="black" d="M1325,-36C1325,-36 1295,-36 1295,-36 1289,-36 1283,-30 1283,-24 1283,-24 1283,-12 1283,-12 1283,-6 1289,0 1295,0 1295,0 1325,0 1325,0 1331,0 1337,-6 1337,-12 1337,-12 1337,-24 1337,-24 1337,-30 1331,-36 1325,-36"/>
<text text-anchor="middle" x="1310" y="-13.32" font-family="Helvetica,sans-Serif" font-size="14.00">(...)</text>
</g>
<!-- 16492&#45;&gt;16493 -->
<g id="edge29" class="edge">
<title>16492&#45;&gt;16493</title>
<path fill="none" stroke="black" d="M1329.16,-71.75C1326.06,-63.22 1322.92,-54.57 1320.1,-46.8"/>
<polygon fill="black" stroke="black" points="1323.46,-45.8 1316.75,-37.6 1316.88,-48.19 1323.46,-45.8"/>
</g>
<!-- 16662 -->
<g id="node31" class="node">
<title>16662</title>
<path fill="#c0c0c0" stroke="black" d="M1397,-36C1397,-36 1367,-36 1367,-36 1361,-36 1355,-30 1355,-24 1355,-24 1355,-12 1355,-12 1355,-6 1361,0 1367,0 1367,0 1397,0 1397,0 1403,0 1409,-6 1409,-12 1409,-12 1409,-24 1409,-24 1409,-30 1403,-36 1397,-36"/>
<text text-anchor="middle" x="1382" y="-13.32" font-family="Helvetica,sans-Serif" font-size="14.00">(...)</text>
</g>
<!-- 16492&#45;&gt;16662 -->
<g id="edge30" class="edge">
<title>16492&#45;&gt;16662</title>
<path fill="none" stroke="black" d="M1362.84,-71.75C1365.94,-63.22 1369.08,-54.57 1371.9,-46.8"/>
<polygon fill="black" stroke="black" points="1375.12,-48.19 1375.25,-37.6 1368.54,-45.8 1375.12,-48.19"/>
</g>
</g>
</svg>
