<?xml version="1.0" encoding="UTF-8" standalone="no"?>
<!DOCTYPE svg PUBLIC "-//W3C//DTD SVG 1.1//EN"
 "http://www.w3.org/Graphics/SVG/1.1/DTD/svg11.dtd">
<!-- Generated by graphviz version 12.0.0 (20240803.0821)
 -->
<!-- Title: Tree Pages: 1 -->
<svg width="1447pt" height="565pt"
 viewBox="0.00 0.00 1447.00 565.00" xmlns="http://www.w3.org/2000/svg" xmlns:xlink="http://www.w3.org/1999/xlink">
<g id="graph0" class="graph" transform="scale(1 1) rotate(0) translate(4 561)">
<title>Tree</title>
<polygon fill="white" stroke="none" points="-4,4 -4,-561 1443,-561 1443,4 -4,4"/>
<!-- 0 -->
<g id="node1" class="node">
<title>0</title>
<path fill="#fffffe" stroke="black" d="M803.5,-557C803.5,-557 643.5,-557 643.5,-557 637.5,-557 631.5,-551 631.5,-545 631.5,-545 631.5,-474.75 631.5,-474.75 631.5,-468.75 637.5,-462.75 643.5,-462.75 643.5,-462.75 803.5,-462.75 803.5,-462.75 809.5,-462.75 815.5,-468.75 815.5,-474.75 815.5,-474.75 815.5,-545 815.5,-545 815.5,-551 809.5,-557 803.5,-557"/>
<text text-anchor="middle" x="723.5" y="-539.7" font-family="Helvetica,sans-Serif" font-size="14.00">5_G &lt;= 0.5</text>
<text text-anchor="middle" x="723.5" y="-522.45" font-family="Helvetica,sans-Serif" font-size="14.00">entropy = 1.0</text>
<text text-anchor="middle" x="723.5" y="-505.2" font-family="Helvetica,sans-Serif" font-size="14.00">samples = 38197</text>
<text text-anchor="middle" x="723.5" y="-487.95" font-family="Helvetica,sans-Serif" font-size="14.00">value = [30216, 30129]</text>
<text text-anchor="middle" x="723.5" y="-470.7" font-family="Helvetica,sans-Serif" font-size="14.00">class = Animal</text>
</g>
<!-- 1 -->
<g id="node2" class="node">
<title>1</title>
<path fill="#f4fafe" stroke="black" d="M628.5,-426.75C628.5,-426.75 468.5,-426.75 468.5,-426.75 462.5,-426.75 456.5,-420.75 456.5,-414.75 456.5,-414.75 456.5,-344.5 456.5,-344.5 456.5,-338.5 462.5,-332.5 468.5,-332.5 468.5,-332.5 628.5,-332.5 628.5,-332.5 634.5,-332.5 640.5,-338.5 640.5,-344.5 640.5,-344.5 640.5,-414.75 640.5,-414.75 640.5,-420.75 634.5,-426.75 628.5,-426.75"/>
<text text-anchor="middle" x="548.5" y="-409.45" font-family="Helvetica,sans-Serif" font-size="14.00">8_G &lt;= 0.5</text>
<text text-anchor="middle" x="548.5" y="-392.2" font-family="Helvetica,sans-Serif" font-size="14.00">entropy = 0.999</text>
<text text-anchor="middle" x="548.5" y="-374.95" font-family="Helvetica,sans-Serif" font-size="14.00">samples = 28103</text>
<text text-anchor="middle" x="548.5" y="-357.7" font-family="Helvetica,sans-Serif" font-size="14.00">value = [21553, 22830]</text>
<text text-anchor="middle" x="548.5" y="-340.45" font-family="Helvetica,sans-Serif" font-size="14.00">class = Plant</text>
</g>
<!-- 0&#45;&gt;1 -->
<g id="edge1" class="edge">
<title>0&#45;&gt;1</title>
<path fill="none" stroke="black" d="M660.32,-462.57C647.51,-453.19 633.95,-443.25 620.86,-433.65"/>
<polygon fill="black" stroke="black" points="623.24,-431.06 613.1,-427.97 619.1,-436.7 623.24,-431.06"/>
<text text-anchor="middle" x="615.69" y="-447.11" font-family="Helvetica,sans-Serif" font-size="14.00">True</text>
</g>
<!-- 12014 -->
<g id="node17" class="node">
<title>12014</title>
<path fill="#fbebe0" stroke="black" d="M979.5,-426.75C979.5,-426.75 837.5,-426.75 837.5,-426.75 831.5,-426.75 825.5,-420.75 825.5,-414.75 825.5,-414.75 825.5,-344.5 825.5,-344.5 825.5,-338.5 831.5,-332.5 837.5,-332.5 837.5,-332.5 979.5,-332.5 979.5,-332.5 985.5,-332.5 991.5,-338.5 991.5,-344.5 991.5,-344.5 991.5,-414.75 991.5,-414.75 991.5,-420.75 985.5,-426.75 979.5,-426.75"/>
<text text-anchor="middle" x="908.5" y="-409.45" font-family="Helvetica,sans-Serif" font-size="14.00">6_A &lt;= 0.5</text>
<text text-anchor="middle" x="908.5" y="-392.2" font-family="Helvetica,sans-Serif" font-size="14.00">entropy = 0.995</text>
<text text-anchor="middle" x="908.5" y="-374.95" font-family="Helvetica,sans-Serif" font-size="14.00">samples = 10094</text>
<text text-anchor="middle" x="908.5" y="-357.7" font-family="Helvetica,sans-Serif" font-size="14.00">value = [8663, 7299]</text>
<text text-anchor="middle" x="908.5" y="-340.45" font-family="Helvetica,sans-Serif" font-size="14.00">class = Animal</text>
</g>
<!-- 0&#45;&gt;12014 -->
<g id="edge16" class="edge">
<title>0&#45;&gt;12014</title>
<path fill="none" stroke="black" d="M790.55,-462.39C803.99,-453.07 818.21,-443.22 831.95,-433.69"/>
<polygon fill="black" stroke="black" points="833.9,-436.6 840.12,-428.03 829.91,-430.85 833.9,-436.6"/>
<text text-anchor="middle" x="836.91" y="-447.09" font-family="Helvetica,sans-Serif" font-size="14.00">False</text>
</g>
<!-- 2 -->
<g id="node3" class="node">
<title>2</title>
<path fill="#fcefe6" stroke="black" d="M356.5,-296.5C356.5,-296.5 196.5,-296.5 196.5,-296.5 190.5,-296.5 184.5,-290.5 184.5,-284.5 184.5,-284.5 184.5,-214.25 184.5,-214.25 184.5,-208.25 190.5,-202.25 196.5,-202.25 196.5,-202.25 356.5,-202.25 356.5,-202.25 362.5,-202.25 368.5,-208.25 368.5,-214.25 368.5,-214.25 368.5,-284.5 368.5,-284.5 368.5,-290.5 362.5,-296.5 356.5,-296.5"/>
<text text-anchor="middle" x="276.5" y="-279.2" font-family="Helvetica,sans-Serif" font-size="14.00">8_A &lt;= 0.5</text>
<text text-anchor="middle" x="276.5" y="-261.95" font-family="Helvetica,sans-Serif" font-size="14.00">entropy = 0.997</text>
<text text-anchor="middle" x="276.5" y="-244.7" font-family="Helvetica,sans-Serif" font-size="14.00">samples = 19524</text>
<text text-anchor="middle" x="276.5" y="-227.45" font-family="Helvetica,sans-Serif" font-size="14.00">value = [16447, 14407]</text>
<text text-anchor="middle" x="276.5" y="-210.2" font-family="Helvetica,sans-Serif" font-size="14.00">class = Animal</text>
</g>
<!-- 1&#45;&gt;2 -->
<g id="edge2" class="edge">
<title>1&#45;&gt;2</title>
<path fill="none" stroke="black" d="M456.03,-335.03C431.26,-323.35 404.34,-310.65 379.06,-298.73"/>
<polygon fill="black" stroke="black" points="380.62,-295.6 370.08,-294.5 377.63,-301.93 380.62,-295.6"/>
</g>
<!-- 8879 -->
<g id="node10" class="node">
<title>8879</title>
<path fill="#b1d8f5" stroke="black" d="M619.5,-296.5C619.5,-296.5 477.5,-296.5 477.5,-296.5 471.5,-296.5 465.5,-290.5 465.5,-284.5 465.5,-284.5 465.5,-214.25 465.5,-214.25 465.5,-208.25 471.5,-202.25 477.5,-202.25 477.5,-202.25 619.5,-202.25 619.5,-202.25 625.5,-202.25 631.5,-208.25 631.5,-214.25 631.5,-214.25 631.5,-284.5 631.5,-284.5 631.5,-290.5 625.5,-296.5 619.5,-296.5"/>
<text text-anchor="middle" x="548.5" y="-279.2" font-family="Helvetica,sans-Serif" font-size="14.00">22_G &lt;= 0.5</text>
<text text-anchor="middle" x="548.5" y="-261.95" font-family="Helvetica,sans-Serif" font-size="14.00">entropy = 0.956</text>
<text text-anchor="middle" x="548.5" y="-244.7" font-family="Helvetica,sans-Serif" font-size="14.00">samples = 8579</text>
<text text-anchor="middle" x="548.5" y="-227.45" font-family="Helvetica,sans-Serif" font-size="14.00">value = [5106, 8423]</text>
<text text-anchor="middle" x="548.5" y="-210.2" font-family="Helvetica,sans-Serif" font-size="14.00">class = Plant</text>
</g>
<!-- 1&#45;&gt;8879 -->
<g id="edge9" class="edge">
<title>1&#45;&gt;8879</title>
<path fill="none" stroke="black" d="M548.5,-332.32C548.5,-324.42 548.5,-316.13 548.5,-307.98"/>
<polygon fill="black" stroke="black" points="552,-308.12 548.5,-298.12 545,-308.12 552,-308.12"/>
</g>
<!-- 3 -->
<g id="node4" class="node">
<title>3</title>
<path fill="#f8ddca" stroke="black" d="M163,-166.25C163,-166.25 12,-166.25 12,-166.25 6,-166.25 0,-160.25 0,-154.25 0,-154.25 0,-84 0,-84 0,-78 6,-72 12,-72 12,-72 163,-72 163,-72 169,-72 175,-78 175,-84 175,-84 175,-154.25 175,-154.25 175,-160.25 169,-166.25 163,-166.25"/>
<text text-anchor="middle" x="87.5" y="-148.95" font-family="Helvetica,sans-Serif" font-size="14.00">21_A &lt;= 0.5</text>
<text text-anchor="middle" x="87.5" y="-131.7" font-family="Helvetica,sans-Serif" font-size="14.00">entropy = 0.983</text>
<text text-anchor="middle" x="87.5" y="-114.45" font-family="Helvetica,sans-Serif" font-size="14.00">samples = 12097</text>
<text text-anchor="middle" x="87.5" y="-97.2" font-family="Helvetica,sans-Serif" font-size="14.00">value = [11043, 8086]</text>
<text text-anchor="middle" x="87.5" y="-79.95" font-family="Helvetica,sans-Serif" font-size="14.00">class = Animal</text>
</g>
<!-- 2&#45;&gt;3 -->
<g id="edge3" class="edge">
<title>2&#45;&gt;3</title>
<path fill="none" stroke="black" d="M208,-201.89C194.13,-192.48 179.46,-182.53 165.3,-172.92"/>
<polygon fill="black" stroke="black" points="167.58,-170.23 157.34,-167.51 163.65,-176.03 167.58,-170.23"/>
</g>
<!-- 5932 -->
<g id="node7" class="node">
<title>5932</title>
<path fill="#e2f1fb" stroke="black" d="M347.5,-166.25C347.5,-166.25 205.5,-166.25 205.5,-166.25 199.5,-166.25 193.5,-160.25 193.5,-154.25 193.5,-154.25 193.5,-84 193.5,-84 193.5,-78 199.5,-72 205.5,-72 205.5,-72 347.5,-72 347.5,-72 353.5,-72 359.5,-78 359.5,-84 359.5,-84 359.5,-154.25 359.5,-154.25 359.5,-160.25 353.5,-166.25 347.5,-166.25"/>
<text text-anchor="middle" x="276.5" y="-148.95" font-family="Helvetica,sans-Serif" font-size="14.00">9_U &lt;= 0.5</text>
<text text-anchor="middle" x="276.5" y="-131.7" font-family="Helvetica,sans-Serif" font-size="14.00">entropy = 0.996</text>
<text text-anchor="middle" x="276.5" y="-114.45" font-family="Helvetica,sans-Serif" font-size="14.00">samples = 7427</text>
<text text-anchor="middle" x="276.5" y="-97.2" font-family="Helvetica,sans-Serif" font-size="14.00">value = [5404, 6321]</text>
<text text-anchor="middle" x="276.5" y="-79.95" font-family="Helvetica,sans-Serif" font-size="14.00">class = Plant</text>
</g>
<!-- 2&#45;&gt;5932 -->
<g id="edge6" class="edge">
<title>2&#45;&gt;5932</title>
<path fill="none" stroke="black" d="M276.5,-202.07C276.5,-194.17 276.5,-185.88 276.5,-177.73"/>
<polygon fill="black" stroke="black" points="280,-177.87 276.5,-167.87 273,-177.87 280,-177.87"/>
</g>
<!-- 4 -->
<g id="node5" class="node">
<title>4</title>
<path fill="#c0c0c0" stroke="black" d="M66.5,-36C66.5,-36 36.5,-36 36.5,-36 30.5,-36 24.5,-30 24.5,-24 24.5,-24 24.5,-12 24.5,-12 24.5,-6 30.5,0 36.5,0 36.5,0 66.5,0 66.5,0 72.5,0 78.5,-6 78.5,-12 78.5,-12 78.5,-24 78.5,-24 78.5,-30 72.5,-36 66.5,-36"/>
<text text-anchor="middle" x="51.5" y="-13.32" font-family="Helvetica,sans-Serif" font-size="14.00">(...)</text>
</g>
<!-- 3&#45;&gt;4 -->
<g id="edge4" class="edge">
<title>3&#45;&gt;4</title>
<path fill="none" stroke="black" d="M70.66,-71.75C67.56,-63.22 64.42,-54.57 61.6,-46.8"/>
<polygon fill="black" stroke="black" points="64.96,-45.8 58.25,-37.6 58.38,-48.19 64.96,-45.8"/>
</g>
<!-- 4781 -->
<g id="node6" class="node">
<title>4781</title>
<path fill="#c0c0c0" stroke="black" d="M138.5,-36C138.5,-36 108.5,-36 108.5,-36 102.5,-36 96.5,-30 96.5,-24 96.5,-24 96.5,-12 96.5,-12 96.5,-6 102.5,0 108.5,0 108.5,0 138.5,0 138.5,0 144.5,0 150.5,-6 150.5,-12 150.5,-12 150.5,-24 150.5,-24 150.5,-30 144.5,-36 138.5,-36"/>
<text text-anchor="middle" x="123.5" y="-13.32" font-family="Helvetica,sans-Serif" font-size="14.00">(...)</text>
</g>
<!-- 3&#45;&gt;4781 -->
<g id="edge5" class="edge">
<title>3&#45;&gt;4781</title>
<path fill="none" stroke="black" d="M104.34,-71.75C107.44,-63.22 110.58,-54.57 113.4,-46.8"/>
<polygon fill="black" stroke="black" points="116.62,-48.19 116.75,-37.6 110.04,-45.8 116.62,-48.19"/>
</g>
<!-- 5933 -->
<g id="node8" class="node">
<title>5933</title>
<path fill="#c0c0c0" stroke="black" d="M257.5,-36C257.5,-36 227.5,-36 227.5,-36 221.5,-36 215.5,-30 215.5,-24 215.5,-24 215.5,-12 215.5,-12 215.5,-6 221.5,0 227.5,0 227.5,0 257.5,0 257.5,0 263.5,0 269.5,-6 269.5,-12 269.5,-12 269.5,-24 269.5,-24 269.5,-30 263.5,-36 257.5,-36"/>
<text text-anchor="middle" x="242.5" y="-13.32" font-family="Helvetica,sans-Serif" font-size="14.00">(...)</text>
</g>
<!-- 5932&#45;&gt;5933 -->
<g id="edge7" class="edge">
<title>5932&#45;&gt;5933</title>
<path fill="none" stroke="black" d="M260.6,-71.75C257.67,-63.22 254.7,-54.57 252.03,-46.8"/>
<polygon fill="black" stroke="black" points="255.44,-45.93 248.88,-37.6 248.82,-48.2 255.44,-45.93"/>
</g>
<!-- 8040 -->
<g id="node9" class="node">
<title>8040</title>
<path fill="#c0c0c0" stroke="black" d="M329.5,-36C329.5,-36 299.5,-36 299.5,-36 293.5,-36 287.5,-30 287.5,-24 287.5,-24 287.5,-12 287.5,-12 287.5,-6 293.5,0 299.5,0 299.5,0 329.5,0 329.5,0 335.5,0 341.5,-6 341.5,-12 341.5,-12 341.5,-24 341.5,-24 341.5,-30 335.5,-36 329.5,-36"/>
<text text-anchor="middle" x="314.5" y="-13.32" font-family="Helvetica,sans-Serif" font-size="14.00">(...)</text>
</g>
<!-- 5932&#45;&gt;8040 -->
<g id="edge8" class="edge">
<title>5932&#45;&gt;8040</title>
<path fill="none" stroke="black" d="M294.28,-71.75C297.55,-63.22 300.87,-54.57 303.84,-46.8"/>
<polygon fill="black" stroke="black" points="307.06,-48.18 307.38,-37.59 300.53,-45.67 307.06,-48.18"/>
</g>
<!-- 8880 -->
<g id="node11" class="node">
<title>8880</title>
<path fill="#9ecff2" stroke="black" d="M531.5,-166.25C531.5,-166.25 389.5,-166.25 389.5,-166.25 383.5,-166.25 377.5,-160.25 377.5,-154.25 377.5,-154.25 377.5,-84 377.5,-84 377.5,-78 383.5,-72 389.5,-72 389.5,-72 531.5,-72 531.5,-72 537.5,-72 543.5,-78 543.5,-84 543.5,-84 543.5,-154.25 543.5,-154.25 543.5,-160.25 537.5,-166.25 531.5,-166.25"/>
<text text-anchor="middle" x="460.5" y="-148.95" font-family="Helvetica,sans-Serif" font-size="14.00">10_C &lt;= 0.5</text>
<text text-anchor="middle" x="460.5" y="-131.7" font-family="Helvetica,sans-Serif" font-size="14.00">entropy = 0.923</text>
<text text-anchor="middle" x="460.5" y="-114.45" font-family="Helvetica,sans-Serif" font-size="14.00">samples = 7691</text>
<text text-anchor="middle" x="460.5" y="-97.2" font-family="Helvetica,sans-Serif" font-size="14.00">value = [4102, 8042]</text>
<text text-anchor="middle" x="460.5" y="-79.95" font-family="Helvetica,sans-Serif" font-size="14.00">class = Plant</text>
</g>
<!-- 8879&#45;&gt;8880 -->
<g id="edge10" class="edge">
<title>8879&#45;&gt;8880</title>
<path fill="none" stroke="black" d="M516.73,-202.07C510.87,-193.54 504.7,-184.54 498.68,-175.77"/>
<polygon fill="black" stroke="black" points="501.62,-173.87 493.08,-167.61 495.85,-177.83 501.62,-173.87"/>
</g>
<!-- 11615 -->
<g id="node14" class="node">
<title>11615</title>
<path fill="#efb184" stroke="black" d="M707,-166.25C707,-166.25 574,-166.25 574,-166.25 568,-166.25 562,-160.25 562,-154.25 562,-154.25 562,-84 562,-84 562,-78 568,-72 574,-72 574,-72 707,-72 707,-72 713,-72 719,-78 719,-84 719,-84 719,-154.25 719,-154.25 719,-160.25 713,-166.25 707,-166.25"/>
<text text-anchor="middle" x="640.5" y="-148.95" font-family="Helvetica,sans-Serif" font-size="14.00">4_C &lt;= 0.5</text>
<text text-anchor="middle" x="640.5" y="-131.7" font-family="Helvetica,sans-Serif" font-size="14.00">entropy = 0.849</text>
<text text-anchor="middle" x="640.5" y="-114.45" font-family="Helvetica,sans-Serif" font-size="14.00">samples = 888</text>
<text text-anchor="middle" x="640.5" y="-97.2" font-family="Helvetica,sans-Serif" font-size="14.00">value = [1004, 381]</text>
<text text-anchor="middle" x="640.5" y="-79.95" font-family="Helvetica,sans-Serif" font-size="14.00">class = Animal</text>
</g>
<!-- 8879&#45;&gt;11615 -->
<g id="edge13" class="edge">
<title>8879&#45;&gt;11615</title>
<path fill="none" stroke="black" d="M581.71,-202.07C587.9,-193.45 594.43,-184.35 600.79,-175.49"/>
<polygon fill="black" stroke="black" points="603.47,-177.75 606.45,-167.59 597.78,-173.67 603.47,-177.75"/>
</g>
<!-- 8881 -->
<g id="node12" class="node">
<title>8881</title>
<path fill="#c0c0c0" stroke="black" d="M421.5,-36C421.5,-36 391.5,-36 391.5,-36 385.5,-36 379.5,-30 379.5,-24 379.5,-24 379.5,-12 379.5,-12 379.5,-6 385.5,0 391.5,0 391.5,0 421.5,0 421.5,0 427.5,0 433.5,-6 433.5,-12 433.5,-12 433.5,-24 433.5,-24 433.5,-30 427.5,-36 421.5,-36"/>
<text text-anchor="middle" x="406.5" y="-13.32" font-family="Helvetica,sans-Serif" font-size="14.00">(...)</text>
</g>
<!-- 8880&#45;&gt;8881 -->
<g id="edge11" class="edge">
<title>8880&#45;&gt;8881</title>
<path fill="none" stroke="black" d="M435.24,-71.75C430.48,-63.03 425.66,-54.16 421.35,-46.26"/>
<polygon fill="black" stroke="black" points="424.44,-44.61 416.58,-37.5 418.29,-47.96 424.44,-44.61"/>
</g>
<!-- 10946 -->
<g id="node13" class="node">
<title>10946</title>
<path fill="#c0c0c0" stroke="black" d="M493.5,-36C493.5,-36 463.5,-36 463.5,-36 457.5,-36 451.5,-30 451.5,-24 451.5,-24 451.5,-12 451.5,-12 451.5,-6 457.5,0 463.5,0 463.5,0 493.5,0 493.5,0 499.5,0 505.5,-6 505.5,-12 505.5,-12 505.5,-24 505.5,-24 505.5,-30 499.5,-36 493.5,-36"/>
<text text-anchor="middle" x="478.5" y="-13.32" font-family="Helvetica,sans-Serif" font-size="14.00">(...)</text>
</g>
<!-- 8880&#45;&gt;10946 -->
<g id="edge12" class="edge">
<title>8880&#45;&gt;10946</title>
<path fill="none" stroke="black" d="M468.92,-71.75C470.43,-63.42 471.97,-54.97 473.35,-47.34"/>
<polygon fill="black" stroke="black" points="476.77,-48.13 475.11,-37.66 469.88,-46.88 476.77,-48.13"/>
</g>
<!-- 11616 -->
<g id="node15" class="node">
<title>11616</title>
<path fill="#c0c0c0" stroke="black" d="M601.5,-36C601.5,-36 571.5,-36 571.5,-36 565.5,-36 559.5,-30 559.5,-24 559.5,-24 559.5,-12 559.5,-12 559.5,-6 565.5,0 571.5,0 571.5,0 601.5,0 601.5,0 607.5,0 613.5,-6 613.5,-12 613.5,-12 613.5,-24 613.5,-24 613.5,-30 607.5,-36 601.5,-36"/>
<text text-anchor="middle" x="586.5" y="-13.32" font-family="Helvetica,sans-Serif" font-size="14.00">(...)</text>
</g>
<!-- 11615&#45;&gt;11616 -->
<g id="edge14" class="edge">
<title>11615&#45;&gt;11616</title>
<path fill="none" stroke="black" d="M615.24,-71.75C610.48,-63.03 605.66,-54.16 601.35,-46.26"/>
<polygon fill="black" stroke="black" points="604.44,-44.61 596.58,-37.5 598.29,-47.96 604.44,-44.61"/>
</g>
<!-- 11921 -->
<g id="node16" class="node">
<title>11921</title>
<path fill="#c0c0c0" stroke="black" d="M673.5,-36C673.5,-36 643.5,-36 643.5,-36 637.5,-36 631.5,-30 631.5,-24 631.5,-24 631.5,-12 631.5,-12 631.5,-6 637.5,0 643.5,0 643.5,0 673.5,0 673.5,0 679.5,0 685.5,-6 685.5,-12 685.5,-12 685.5,-24 685.5,-24 685.5,-30 679.5,-36 673.5,-36"/>
<text text-anchor="middle" x="658.5" y="-13.32" font-family="Helvetica,sans-Serif" font-size="14.00">(...)</text>
</g>
<!-- 11615&#45;&gt;11921 -->
<g id="edge15" class="edge">
<title>11615&#45;&gt;11921</title>
<path fill="none" stroke="black" d="M648.92,-71.75C650.43,-63.42 651.97,-54.97 653.35,-47.34"/>
<polygon fill="black" stroke="black" points="656.77,-48.13 655.11,-37.66 649.88,-46.88 656.77,-48.13"/>
</g>
<!-- 12015 -->
<g id="node18" class="node">
<title>12015</title>
<path fill="#f6d3ba" stroke="black" d="M979.5,-296.5C979.5,-296.5 837.5,-296.5 837.5,-296.5 831.5,-296.5 825.5,-290.5 825.5,-284.5 825.5,-284.5 825.5,-214.25 825.5,-214.25 825.5,-208.25 831.5,-202.25 837.5,-202.25 837.5,-202.25 979.5,-202.25 979.5,-202.25 985.5,-202.25 991.5,-208.25 991.5,-214.25 991.5,-214.25 991.5,-284.5 991.5,-284.5 991.5,-290.5 985.5,-296.5 979.5,-296.5"/>
<text text-anchor="middle" x="908.5" y="-279.2" font-family="Helvetica,sans-Serif" font-size="14.00">22_U &lt;= 0.5</text>
<text text-anchor="middle" x="908.5" y="-261.95" font-family="Helvetica,sans-Serif" font-size="14.00">entropy = 0.967</text>
<text text-anchor="middle" x="908.5" y="-244.7" font-family="Helvetica,sans-Serif" font-size="14.00">samples = 7582</text>
<text text-anchor="middle" x="908.5" y="-227.45" font-family="Helvetica,sans-Serif" font-size="14.00">value = [7241, 4703]</text>
<text text-anchor="middle" x="908.5" y="-210.2" font-family="Helvetica,sans-Serif" font-size="14.00">class = Animal</text>
</g>
<!-- 12014&#45;&gt;12015 -->
<g id="edge17" class="edge">
<title>12014&#45;&gt;12015</title>
<path fill="none" stroke="black" d="M908.5,-332.32C908.5,-324.42 908.5,-316.13 908.5,-307.98"/>
<polygon fill="black" stroke="black" points="912,-308.12 908.5,-298.12 905,-308.12 912,-308.12"/>
</g>
<!-- 15326 -->
<g id="node25" class="node">
<title>15326</title>
<path fill="#a5d3f3" stroke="black" d="M1251.5,-296.5C1251.5,-296.5 1109.5,-296.5 1109.5,-296.5 1103.5,-296.5 1097.5,-290.5 1097.5,-284.5 1097.5,-284.5 1097.5,-214.25 1097.5,-214.25 1097.5,-208.25 1103.5,-202.25 1109.5,-202.25 1109.5,-202.25 1251.5,-202.25 1251.5,-202.25 1257.5,-202.25 1263.5,-208.25 1263.5,-214.25 1263.5,-214.25 1263.5,-284.5 1263.5,-284.5 1263.5,-290.5 1257.5,-296.5 1251.5,-296.5"/>
<text text-anchor="middle" x="1180.5" y="-279.2" font-family="Helvetica,sans-Serif" font-size="14.00">19_G &lt;= 0.5</text>
<text text-anchor="middle" x="1180.5" y="-261.95" font-family="Helvetica,sans-Serif" font-size="14.00">entropy = 0.938</text>
<text text-anchor="middle" x="1180.5" y="-244.7" font-family="Helvetica,sans-Serif" font-size="14.00">samples = 2512</text>
<text text-anchor="middle" x="1180.5" y="-227.45" font-family="Helvetica,sans-Serif" font-size="14.00">value = [1422, 2596]</text>
<text text-anchor="middle" x="1180.5" y="-210.2" font-family="Helvetica,sans-Serif" font-size="14.00">class = Plant</text>
</g>
<!-- 12014&#45;&gt;15326 -->
<g id="edge24" class="edge">
<title>12014&#45;&gt;15326</title>
<path fill="none" stroke="black" d="M991.96,-339.27C1021.98,-325.12 1056.04,-309.06 1086.88,-294.52"/>
<polygon fill="black" stroke="black" points="1088.28,-297.73 1095.83,-290.3 1085.29,-291.4 1088.28,-297.73"/>
</g>
<!-- 12016 -->
<g id="node19" class="node">
<title>12016</title>
<path fill="#fae6d8" stroke="black" d="M891.5,-166.25C891.5,-166.25 749.5,-166.25 749.5,-166.25 743.5,-166.25 737.5,-160.25 737.5,-154.25 737.5,-154.25 737.5,-84 737.5,-84 737.5,-78 743.5,-72 749.5,-72 749.5,-72 891.5,-72 891.5,-72 897.5,-72 903.5,-78 903.5,-84 903.5,-84 903.5,-154.25 903.5,-154.25 903.5,-160.25 897.5,-166.25 891.5,-166.25"/>
<text text-anchor="middle" x="820.5" y="-148.95" font-family="Helvetica,sans-Serif" font-size="14.00">22_G &lt;= 0.5</text>
<text text-anchor="middle" x="820.5" y="-131.7" font-family="Helvetica,sans-Serif" font-size="14.00">entropy = 0.991</text>
<text text-anchor="middle" x="820.5" y="-114.45" font-family="Helvetica,sans-Serif" font-size="14.00">samples = 6346</text>
<text text-anchor="middle" x="820.5" y="-97.2" font-family="Helvetica,sans-Serif" font-size="14.00">value = [5555, 4458]</text>
<text text-anchor="middle" x="820.5" y="-79.95" font-family="Helvetica,sans-Serif" font-size="14.00">class = Animal</text>
</g>
<!-- 12015&#45;&gt;12016 -->
<g id="edge18" class="edge">
<title>12015&#45;&gt;12016</title>
<path fill="none" stroke="black" d="M876.73,-202.07C870.87,-193.54 864.7,-184.54 858.68,-175.77"/>
<polygon fill="black" stroke="black" points="861.62,-173.87 853.08,-167.61 855.85,-177.83 861.62,-173.87"/>
</g>
<!-- 14983 -->
<g id="node22" class="node">
<title>14983</title>
<path fill="#e99356" stroke="black" d="M1067,-166.25C1067,-166.25 934,-166.25 934,-166.25 928,-166.25 922,-160.25 922,-154.25 922,-154.25 922,-84 922,-84 922,-78 928,-72 934,-72 934,-72 1067,-72 1067,-72 1073,-72 1079,-78 1079,-84 1079,-84 1079,-154.25 1079,-154.25 1079,-160.25 1073,-166.25 1067,-166.25"/>
<text text-anchor="middle" x="1000.5" y="-148.95" font-family="Helvetica,sans-Serif" font-size="14.00">3_U &lt;= 0.5</text>
<text text-anchor="middle" x="1000.5" y="-131.7" font-family="Helvetica,sans-Serif" font-size="14.00">entropy = 0.549</text>
<text text-anchor="middle" x="1000.5" y="-114.45" font-family="Helvetica,sans-Serif" font-size="14.00">samples = 1236</text>
<text text-anchor="middle" x="1000.5" y="-97.2" font-family="Helvetica,sans-Serif" font-size="14.00">value = [1686, 245]</text>
<text text-anchor="middle" x="1000.5" y="-79.95" font-family="Helvetica,sans-Serif" font-size="14.00">class = Animal</text>
</g>
<!-- 12015&#45;&gt;14983 -->
<g id="edge21" class="edge">
<title>12015&#45;&gt;14983</title>
<path fill="none" stroke="black" d="M941.71,-202.07C947.9,-193.45 954.43,-184.35 960.79,-175.49"/>
<polygon fill="black" stroke="black" points="963.47,-177.75 966.45,-167.59 957.78,-173.67 963.47,-177.75"/>
</g>
<!-- 12017 -->
<g id="node20" class="node">
<title>12017</title>
<path fill="#c0c0c0" stroke="black" d="M781.5,-36C781.5,-36 751.5,-36 751.5,-36 745.5,-36 739.5,-30 739.5,-24 739.5,-24 739.5,-12 739.5,-12 739.5,-6 745.5,0 751.5,0 751.5,0 781.5,0 781.5,0 787.5,0 793.5,-6 793.5,-12 793.5,-12 793.5,-24 793.5,-24 793.5,-30 787.5,-36 781.5,-36"/>
<text text-anchor="middle" x="766.5" y="-13.32" font-family="Helvetica,sans-Serif" font-size="14.00">(...)</text>
</g>
<!-- 12016&#45;&gt;12017 -->
<g id="edge19" class="edge">
<title>12016&#45;&gt;12017</title>
<path fill="none" stroke="black" d="M795.24,-71.75C790.48,-63.03 785.66,-54.16 781.35,-46.26"/>
<polygon fill="black" stroke="black" points="784.44,-44.61 776.58,-37.5 778.29,-47.96 784.44,-44.61"/>
</g>
<!-- 14584 -->
<g id="node21" class="node">
<title>14584</title>
<path fill="#c0c0c0" stroke="black" d="M853.5,-36C853.5,-36 823.5,-36 823.5,-36 817.5,-36 811.5,-30 811.5,-24 811.5,-24 811.5,-12 811.5,-12 811.5,-6 817.5,0 823.5,0 823.5,0 853.5,0 853.5,0 859.5,0 865.5,-6 865.5,-12 865.5,-12 865.5,-24 865.5,-24 865.5,-30 859.5,-36 853.5,-36"/>
<text text-anchor="middle" x="838.5" y="-13.32" font-family="Helvetica,sans-Serif" font-size="14.00">(...)</text>
</g>
<!-- 12016&#45;&gt;14584 -->
<g id="edge20" class="edge">
<title>12016&#45;&gt;14584</title>
<path fill="none" stroke="black" d="M828.92,-71.75C830.43,-63.42 831.97,-54.97 833.35,-47.34"/>
<polygon fill="black" stroke="black" points="836.77,-48.13 835.11,-37.66 829.88,-46.88 836.77,-48.13"/>
</g>
<!-- 14984 -->
<g id="node23" class="node">
<title>14984</title>
<path fill="#c0c0c0" stroke="black" d="M961.5,-36C961.5,-36 931.5,-36 931.5,-36 925.5,-36 919.5,-30 919.5,-24 919.5,-24 919.5,-12 919.5,-12 919.5,-6 925.5,0 931.5,0 931.5,0 961.5,0 961.5,0 967.5,0 973.5,-6 973.5,-12 973.5,-12 973.5,-24 973.5,-24 973.5,-30 967.5,-36 961.5,-36"/>
<text text-anchor="middle" x="946.5" y="-13.32" font-family="Helvetica,sans-Serif" font-size="14.00">(...)</text>
</g>
<!-- 14983&#45;&gt;14984 -->
<g id="edge22" class="edge">
<title>14983&#45;&gt;14984</title>
<path fill="none" stroke="black" d="M975.24,-71.75C970.48,-63.03 965.66,-54.16 961.35,-46.26"/>
<polygon fill="black" stroke="black" points="964.44,-44.61 956.58,-37.5 958.29,-47.96 964.44,-44.61"/>
</g>
<!-- 15201 -->
<g id="node24" class="node">
<title>15201</title>
<path fill="#c0c0c0" stroke="black" d="M1033.5,-36C1033.5,-36 1003.5,-36 1003.5,-36 997.5,-36 991.5,-30 991.5,-24 991.5,-24 991.5,-12 991.5,-12 991.5,-6 997.5,0 1003.5,0 1003.5,0 1033.5,0 1033.5,0 1039.5,0 1045.5,-6 1045.5,-12 1045.5,-12 1045.5,-24 1045.5,-24 1045.5,-30 1039.5,-36 1033.5,-36"/>
<text text-anchor="middle" x="1018.5" y="-13.32" font-family="Helvetica,sans-Serif" font-size="14.00">(...)</text>
</g>
<!-- 14983&#45;&gt;15201 -->
<g id="edge23" class="edge">
<title>14983&#45;&gt;15201</title>
<path fill="none" stroke="black" d="M1008.92,-71.75C1010.43,-63.42 1011.97,-54.97 1013.35,-47.34"/>
<polygon fill="black" stroke="black" points="1016.77,-48.13 1015.11,-37.66 1009.88,-46.88 1016.77,-48.13"/>
</g>
<!-- 15327 -->
<g id="node26" class="node">
<title>15327</title>
<path fill="#cae5f8" stroke="black" d="M1251.5,-166.25C1251.5,-166.25 1109.5,-166.25 1109.5,-166.25 1103.5,-166.25 1097.5,-160.25 1097.5,-154.25 1097.5,-154.25 1097.5,-84 1097.5,-84 1097.5,-78 1103.5,-72 1109.5,-72 1109.5,-72 1251.5,-72 1251.5,-72 1257.5,-72 1263.5,-78 1263.5,-84 1263.5,-84 1263.5,-154.25 1263.5,-154.25 1263.5,-160.25 1257.5,-166.25 1251.5,-166.25"/>
<text text-anchor="middle" x="1180.5" y="-148.95" font-family="Helvetica,sans-Serif" font-size="14.00">9_G &lt;= 0.5</text>
<text text-anchor="middle" x="1180.5" y="-131.7" font-family="Helvetica,sans-Serif" font-size="14.00">entropy = 0.983</text>
<text text-anchor="middle" x="1180.5" y="-114.45" font-family="Helvetica,sans-Serif" font-size="14.00">samples = 1636</text>
<text text-anchor="middle" x="1180.5" y="-97.2" font-family="Helvetica,sans-Serif" font-size="14.00">value = [1106, 1512]</text>
<text text-anchor="middle" x="1180.5" y="-79.95" font-family="Helvetica,sans-Serif" font-size="14.00">class = Plant</text>
</g>
<!-- 15326&#45;&gt;15327 -->
<g id="edge25" class="edge">
<title>15326&#45;&gt;15327</title>
<path fill="none" stroke="black" d="M1180.5,-202.07C1180.5,-194.17 1180.5,-185.88 1180.5,-177.73"/>
<polygon fill="black" stroke="black" points="1184,-177.87 1180.5,-167.87 1177,-177.87 1184,-177.87"/>
</g>
<!-- 16260 -->
<g id="node29" class="node">
<title>16260</title>
<path fill="#73baed" stroke="black" d="M1427,-166.25C1427,-166.25 1294,-166.25 1294,-166.25 1288,-166.25 1282,-160.25 1282,-154.25 1282,-154.25 1282,-84 1282,-84 1282,-78 1288,-72 1294,-72 1294,-72 1427,-72 1427,-72 1433,-72 1439,-78 1439,-84 1439,-84 1439,-154.25 1439,-154.25 1439,-160.25 1433,-166.25 1427,-166.25"/>
<text text-anchor="middle" x="1360.5" y="-148.95" font-family="Helvetica,sans-Serif" font-size="14.00">14_C &lt;= 0.5</text>
<text text-anchor="middle" x="1360.5" y="-131.7" font-family="Helvetica,sans-Serif" font-size="14.00">entropy = 0.77</text>
<text text-anchor="middle" x="1360.5" y="-114.45" font-family="Helvetica,sans-Serif" font-size="14.00">samples = 876</text>
<text text-anchor="middle" x="1360.5" y="-97.2" font-family="Helvetica,sans-Serif" font-size="14.00">value = [316, 1084]</text>
<text text-anchor="middle" x="1360.5" y="-79.95" font-family="Helvetica,sans-Serif" font-size="14.00">class = Plant</text>
</g>
<!-- 15326&#45;&gt;16260 -->
<g id="edge28" class="edge">
<title>15326&#45;&gt;16260</title>
<path fill="none" stroke="black" d="M1245.74,-201.89C1258.82,-192.57 1272.65,-182.72 1286.02,-173.19"/>
<polygon fill="black" stroke="black" points="1287.84,-176.2 1293.95,-167.54 1283.77,-170.49 1287.84,-176.2"/>
</g>
<!-- 15328 -->
<g id="node27" class="node">
<title>15328</title>
<path fill="#c0c0c0" stroke="black" d="M1159.5,-36C1159.5,-36 1129.5,-36 1129.5,-36 1123.5,-36 1117.5,-30 1117.5,-24 1117.5,-24 1117.5,-12 1117.5,-12 1117.5,-6 1123.5,0 1129.5,0 1129.5,0 1159.5,0 1159.5,0 1165.5,0 1171.5,-6 1171.5,-12 1171.5,-12 1171.5,-24 1171.5,-24 1171.5,-30 1165.5,-36 1159.5,-36"/>
<text text-anchor="middle" x="1144.5" y="-13.32" font-family="Helvetica,sans-Serif" font-size="14.00">(...)</text>
</g>
<!-- 15327&#45;&gt;15328 -->
<g id="edge26" class="edge">
<title>15327&#45;&gt;15328</title>
<path fill="none" stroke="black" d="M1163.66,-71.75C1160.56,-63.22 1157.42,-54.57 1154.6,-46.8"/>
<polygon fill="black" stroke="black" points="1157.96,-45.8 1151.25,-37.6 1151.38,-48.19 1157.96,-45.8"/>
</g>
<!-- 16039 -->
<g id="node28" class="node">
<title>16039</title>
<path fill="#c0c0c0" stroke="black" d="M1231.5,-36C1231.5,-36 1201.5,-36 1201.5,-36 1195.5,-36 1189.5,-30 1189.5,-24 1189.5,-24 1189.5,-12 1189.5,-12 1189.5,-6 1195.5,0 1201.5,0 1201.5,0 1231.5,0 1231.5,0 1237.5,0 1243.5,-6 1243.5,-12 1243.5,-12 1243.5,-24 1243.5,-24 1243.5,-30 1237.5,-36 1231.5,-36"/>
<text text-anchor="middle" x="1216.5" y="-13.32" font-family="Helvetica,sans-Serif" font-size="14.00">(...)</text>
</g>
<!-- 15327&#45;&gt;16039 -->
<g id="edge27" class="edge">
<title>15327&#45;&gt;16039</title>
<path fill="none" stroke="black" d="M1197.34,-71.75C1200.44,-63.22 1203.58,-54.57 1206.4,-46.8"/>
<polygon fill="black" stroke="black" points="1209.62,-48.19 1209.75,-37.6 1203.04,-45.8 1209.62,-48.19"/>
</g>
<!-- 16261 -->
<g id="node30" class="node">
<title>16261</title>
<path fill="#c0c0c0" stroke="black" d="M1339.5,-36C1339.5,-36 1309.5,-36 1309.5,-36 1303.5,-36 1297.5,-30 1297.5,-24 1297.5,-24 1297.5,-12 1297.5,-12 1297.5,-6 1303.5,0 1309.5,0 1309.5,0 1339.5,0 1339.5,0 1345.5,0 1351.5,-6 1351.5,-12 1351.5,-12 1351.5,-24 1351.5,-24 1351.5,-30 1345.5,-36 1339.5,-36"/>
<text text-anchor="middle" x="1324.5" y="-13.32" font-family="Helvetica,sans-Serif" font-size="14.00">(...)</text>
</g>
<!-- 16260&#45;&gt;16261 -->
<g id="edge29" class="edge">
<title>16260&#45;&gt;16261</title>
<path fill="none" stroke="black" d="M1343.66,-71.75C1340.56,-63.22 1337.42,-54.57 1334.6,-46.8"/>
<polygon fill="black" stroke="black" points="1337.96,-45.8 1331.25,-37.6 1331.38,-48.19 1337.96,-45.8"/>
</g>
<!-- 16528 -->
<g id="node31" class="node">
<title>16528</title>
<path fill="#c0c0c0" stroke="black" d="M1411.5,-36C1411.5,-36 1381.5,-36 1381.5,-36 1375.5,-36 1369.5,-30 1369.5,-24 1369.5,-24 1369.5,-12 1369.5,-12 1369.5,-6 1375.5,0 1381.5,0 1381.5,0 1411.5,0 1411.5,0 1417.5,0 1423.5,-6 1423.5,-12 1423.5,-12 1423.5,-24 1423.5,-24 1423.5,-30 1417.5,-36 1411.5,-36"/>
<text text-anchor="middle" x="1396.5" y="-13.32" font-family="Helvetica,sans-Serif" font-size="14.00">(...)</text>
</g>
<!-- 16260&#45;&gt;16528 -->
<g id="edge30" class="edge">
<title>16260&#45;&gt;16528</title>
<path fill="none" stroke="black" d="M1377.34,-71.75C1380.44,-63.22 1383.58,-54.57 1386.4,-46.8"/>
<polygon fill="black" stroke="black" points="1389.62,-48.19 1389.75,-37.6 1383.04,-45.8 1389.62,-48.19"/>
</g>
</g>
</svg>
