<?xml version="1.0" encoding="UTF-8" standalone="no"?>
<!DOCTYPE svg PUBLIC "-//W3C//DTD SVG 1.1//EN"
 "http://www.w3.org/Graphics/SVG/1.1/DTD/svg11.dtd">
<!-- Generated by graphviz version 12.0.0 (20240803.0821)
 -->
<!-- Title: Tree Pages: 1 -->
<svg width="1419pt" height="565pt"
 viewBox="0.00 0.00 1419.00 565.00" xmlns="http://www.w3.org/2000/svg" xmlns:xlink="http://www.w3.org/1999/xlink">
<g id="graph0" class="graph" transform="scale(1 1) rotate(0) translate(4 561)">
<title>Tree</title>
<polygon fill="white" stroke="none" points="-4,4 -4,-561 1415,-561 1415,4 -4,4"/>
<!-- 0 -->
<g id="node1" class="node">
<title>0</title>
<path fill="#fffefe" stroke="black" d="M794,-557C794,-557 634,-557 634,-557 628,-557 622,-551 622,-545 622,-545 622,-474.75 622,-474.75 622,-468.75 628,-462.75 634,-462.75 634,-462.75 794,-462.75 794,-462.75 800,-462.75 806,-468.75 806,-474.75 806,-474.75 806,-545 806,-545 806,-551 800,-557 794,-557"/>
<text text-anchor="middle" x="714" y="-539.7" font-family="Helvetica,sans-Serif" font-size="14.00">21_U &lt;= 0.5</text>
<text text-anchor="middle" x="714" y="-522.45" font-family="Helvetica,sans-Serif" font-size="14.00">entropy = 1.0</text>
<text text-anchor="middle" x="714" y="-505.2" font-family="Helvetica,sans-Serif" font-size="14.00">samples = 38283</text>
<text text-anchor="middle" x="714" y="-487.95" font-family="Helvetica,sans-Serif" font-size="14.00">value = [30240, 30105]</text>
<text text-anchor="middle" x="714" y="-470.7" font-family="Helvetica,sans-Serif" font-size="14.00">class = Animal</text>
</g>
<!-- 1 -->
<g id="node2" class="node">
<title>1</title>
<path fill="#e8f4fc" stroke="black" d="M628,-426.75C628,-426.75 468,-426.75 468,-426.75 462,-426.75 456,-420.75 456,-414.75 456,-414.75 456,-344.5 456,-344.5 456,-338.5 462,-332.5 468,-332.5 468,-332.5 628,-332.5 628,-332.5 634,-332.5 640,-338.5 640,-344.5 640,-344.5 640,-414.75 640,-414.75 640,-420.75 634,-426.75 628,-426.75"/>
<text text-anchor="middle" x="548" y="-409.45" font-family="Helvetica,sans-Serif" font-size="14.00">19_C &lt;= 0.5</text>
<text text-anchor="middle" x="548" y="-392.2" font-family="Helvetica,sans-Serif" font-size="14.00">entropy = 0.997</text>
<text text-anchor="middle" x="548" y="-374.95" font-family="Helvetica,sans-Serif" font-size="14.00">samples = 29635</text>
<text text-anchor="middle" x="548" y="-357.7" font-family="Helvetica,sans-Serif" font-size="14.00">value = [21923, 24734]</text>
<text text-anchor="middle" x="548" y="-340.45" font-family="Helvetica,sans-Serif" font-size="14.00">class = Plant</text>
</g>
<!-- 0&#45;&gt;1 -->
<g id="edge1" class="edge">
<title>0&#45;&gt;1</title>
<path fill="none" stroke="black" d="M654.07,-462.57C642.04,-453.28 629.3,-443.44 616.99,-433.93"/>
<polygon fill="black" stroke="black" points="619.37,-431.34 609.32,-428 615.09,-436.88 619.37,-431.34"/>
<text text-anchor="middle" x="611.3" y="-447.2" font-family="Helvetica,sans-Serif" font-size="14.00">True</text>
</g>
<!-- 13270 -->
<g id="node17" class="node">
<title>13270</title>
<path fill="#f6d2b9" stroke="black" d="M969,-426.75C969,-426.75 827,-426.75 827,-426.75 821,-426.75 815,-420.75 815,-414.75 815,-414.75 815,-344.5 815,-344.5 815,-338.5 821,-332.5 827,-332.5 827,-332.5 969,-332.5 969,-332.5 975,-332.5 981,-338.5 981,-344.5 981,-344.5 981,-414.75 981,-414.75 981,-420.75 975,-426.75 969,-426.75"/>
<text text-anchor="middle" x="898" y="-409.45" font-family="Helvetica,sans-Serif" font-size="14.00">20_G &lt;= 0.5</text>
<text text-anchor="middle" x="898" y="-392.2" font-family="Helvetica,sans-Serif" font-size="14.00">entropy = 0.966</text>
<text text-anchor="middle" x="898" y="-374.95" font-family="Helvetica,sans-Serif" font-size="14.00">samples = 8648</text>
<text text-anchor="middle" x="898" y="-357.7" font-family="Helvetica,sans-Serif" font-size="14.00">value = [8317, 5371]</text>
<text text-anchor="middle" x="898" y="-340.45" font-family="Helvetica,sans-Serif" font-size="14.00">class = Animal</text>
</g>
<!-- 0&#45;&gt;13270 -->
<g id="edge16" class="edge">
<title>0&#45;&gt;13270</title>
<path fill="none" stroke="black" d="M780.69,-462.39C794.06,-453.07 808.2,-443.22 821.86,-433.69"/>
<polygon fill="black" stroke="black" points="823.79,-436.62 829.99,-428.03 819.78,-430.88 823.79,-436.62"/>
<text text-anchor="middle" x="826.84" y="-447.1" font-family="Helvetica,sans-Serif" font-size="14.00">False</text>
</g>
<!-- 2 -->
<g id="node3" class="node">
<title>2</title>
<path fill="#fcefe7" stroke="black" d="M361,-296.5C361,-296.5 201,-296.5 201,-296.5 195,-296.5 189,-290.5 189,-284.5 189,-284.5 189,-214.25 189,-214.25 189,-208.25 195,-202.25 201,-202.25 201,-202.25 361,-202.25 361,-202.25 367,-202.25 373,-208.25 373,-214.25 373,-214.25 373,-284.5 373,-284.5 373,-290.5 367,-296.5 361,-296.5"/>
<text text-anchor="middle" x="281" y="-279.2" font-family="Helvetica,sans-Serif" font-size="14.00">22_U &lt;= 0.5</text>
<text text-anchor="middle" x="281" y="-261.95" font-family="Helvetica,sans-Serif" font-size="14.00">entropy = 0.997</text>
<text text-anchor="middle" x="281" y="-244.7" font-family="Helvetica,sans-Serif" font-size="14.00">samples = 19540</text>
<text text-anchor="middle" x="281" y="-227.45" font-family="Helvetica,sans-Serif" font-size="14.00">value = [16416, 14392]</text>
<text text-anchor="middle" x="281" y="-210.2" font-family="Helvetica,sans-Serif" font-size="14.00">class = Animal</text>
</g>
<!-- 1&#45;&gt;2 -->
<g id="edge2" class="edge">
<title>1&#45;&gt;2</title>
<path fill="none" stroke="black" d="M455.74,-334.31C432.4,-323.1 407.18,-310.99 383.37,-299.55"/>
<polygon fill="black" stroke="black" points="385.16,-296.52 374.63,-295.35 382.13,-302.83 385.16,-296.52"/>
</g>
<!-- 10085 -->
<g id="node10" class="node">
<title>10085</title>
<path fill="#a2d1f3" stroke="black" d="M623.5,-296.5C623.5,-296.5 472.5,-296.5 472.5,-296.5 466.5,-296.5 460.5,-290.5 460.5,-284.5 460.5,-284.5 460.5,-214.25 460.5,-214.25 460.5,-208.25 466.5,-202.25 472.5,-202.25 472.5,-202.25 623.5,-202.25 623.5,-202.25 629.5,-202.25 635.5,-208.25 635.5,-214.25 635.5,-214.25 635.5,-284.5 635.5,-284.5 635.5,-290.5 629.5,-296.5 623.5,-296.5"/>
<text text-anchor="middle" x="548" y="-279.2" font-family="Helvetica,sans-Serif" font-size="14.00">22_A &lt;= 0.5</text>
<text text-anchor="middle" x="548" y="-261.95" font-family="Helvetica,sans-Serif" font-size="14.00">entropy = 0.932</text>
<text text-anchor="middle" x="548" y="-244.7" font-family="Helvetica,sans-Serif" font-size="14.00">samples = 10095</text>
<text text-anchor="middle" x="548" y="-227.45" font-family="Helvetica,sans-Serif" font-size="14.00">value = [5507, 10342]</text>
<text text-anchor="middle" x="548" y="-210.2" font-family="Helvetica,sans-Serif" font-size="14.00">class = Plant</text>
</g>
<!-- 1&#45;&gt;10085 -->
<g id="edge9" class="edge">
<title>1&#45;&gt;10085</title>
<path fill="none" stroke="black" d="M548,-332.32C548,-324.42 548,-316.13 548,-307.98"/>
<polygon fill="black" stroke="black" points="551.5,-308.12 548,-298.12 544.5,-308.12 551.5,-308.12"/>
</g>
<!-- 3 -->
<g id="node4" class="node">
<title>3</title>
<path fill="#f8fbfe" stroke="black" d="M172,-166.25C172,-166.25 12,-166.25 12,-166.25 6,-166.25 0,-160.25 0,-154.25 0,-154.25 0,-84 0,-84 0,-78 6,-72 12,-72 12,-72 172,-72 172,-72 178,-72 184,-78 184,-84 184,-84 184,-154.25 184,-154.25 184,-160.25 178,-166.25 172,-166.25"/>
<text text-anchor="middle" x="92" y="-148.95" font-family="Helvetica,sans-Serif" font-size="14.00">16_U &lt;= 0.5</text>
<text text-anchor="middle" x="92" y="-131.7" font-family="Helvetica,sans-Serif" font-size="14.00">entropy = 1.0</text>
<text text-anchor="middle" x="92" y="-114.45" font-family="Helvetica,sans-Serif" font-size="14.00">samples = 16819</text>
<text text-anchor="middle" x="92" y="-97.2" font-family="Helvetica,sans-Serif" font-size="14.00">value = [13040, 13547]</text>
<text text-anchor="middle" x="92" y="-79.95" font-family="Helvetica,sans-Serif" font-size="14.00">class = Plant</text>
</g>
<!-- 2&#45;&gt;3 -->
<g id="edge3" class="edge">
<title>2&#45;&gt;3</title>
<path fill="none" stroke="black" d="M212.5,-201.89C198.63,-192.48 183.96,-182.53 169.8,-172.92"/>
<polygon fill="black" stroke="black" points="172.08,-170.23 161.84,-167.51 168.15,-176.03 172.08,-170.23"/>
</g>
<!-- 8974 -->
<g id="node7" class="node">
<title>8974</title>
<path fill="#eca16b" stroke="black" d="M347.5,-166.25C347.5,-166.25 214.5,-166.25 214.5,-166.25 208.5,-166.25 202.5,-160.25 202.5,-154.25 202.5,-154.25 202.5,-84 202.5,-84 202.5,-78 208.5,-72 214.5,-72 214.5,-72 347.5,-72 347.5,-72 353.5,-72 359.5,-78 359.5,-84 359.5,-84 359.5,-154.25 359.5,-154.25 359.5,-160.25 353.5,-166.25 347.5,-166.25"/>
<text text-anchor="middle" x="281" y="-148.95" font-family="Helvetica,sans-Serif" font-size="14.00">2_U &lt;= 0.5</text>
<text text-anchor="middle" x="281" y="-131.7" font-family="Helvetica,sans-Serif" font-size="14.00">entropy = 0.722</text>
<text text-anchor="middle" x="281" y="-114.45" font-family="Helvetica,sans-Serif" font-size="14.00">samples = 2721</text>
<text text-anchor="middle" x="281" y="-97.2" font-family="Helvetica,sans-Serif" font-size="14.00">value = [3376, 845]</text>
<text text-anchor="middle" x="281" y="-79.95" font-family="Helvetica,sans-Serif" font-size="14.00">class = Animal</text>
</g>
<!-- 2&#45;&gt;8974 -->
<g id="edge6" class="edge">
<title>2&#45;&gt;8974</title>
<path fill="none" stroke="black" d="M281,-202.07C281,-194.17 281,-185.88 281,-177.73"/>
<polygon fill="black" stroke="black" points="284.5,-177.87 281,-167.87 277.5,-177.87 284.5,-177.87"/>
</g>
<!-- 4 -->
<g id="node5" class="node">
<title>4</title>
<path fill="#c0c0c0" stroke="black" d="M71,-36C71,-36 41,-36 41,-36 35,-36 29,-30 29,-24 29,-24 29,-12 29,-12 29,-6 35,0 41,0 41,0 71,0 71,0 77,0 83,-6 83,-12 83,-12 83,-24 83,-24 83,-30 77,-36 71,-36"/>
<text text-anchor="middle" x="56" y="-13.32" font-family="Helvetica,sans-Serif" font-size="14.00">(...)</text>
</g>
<!-- 3&#45;&gt;4 -->
<g id="edge4" class="edge">
<title>3&#45;&gt;4</title>
<path fill="none" stroke="black" d="M75.16,-71.75C72.06,-63.22 68.92,-54.57 66.1,-46.8"/>
<polygon fill="black" stroke="black" points="69.46,-45.8 62.75,-37.6 62.88,-48.19 69.46,-45.8"/>
</g>
<!-- 6619 -->
<g id="node6" class="node">
<title>6619</title>
<path fill="#c0c0c0" stroke="black" d="M143,-36C143,-36 113,-36 113,-36 107,-36 101,-30 101,-24 101,-24 101,-12 101,-12 101,-6 107,0 113,0 113,0 143,0 143,0 149,0 155,-6 155,-12 155,-12 155,-24 155,-24 155,-30 149,-36 143,-36"/>
<text text-anchor="middle" x="128" y="-13.32" font-family="Helvetica,sans-Serif" font-size="14.00">(...)</text>
</g>
<!-- 3&#45;&gt;6619 -->
<g id="edge5" class="edge">
<title>3&#45;&gt;6619</title>
<path fill="none" stroke="black" d="M108.84,-71.75C111.94,-63.22 115.08,-54.57 117.9,-46.8"/>
<polygon fill="black" stroke="black" points="121.12,-48.19 121.25,-37.6 114.54,-45.8 121.12,-48.19"/>
</g>
<!-- 8975 -->
<g id="node8" class="node">
<title>8975</title>
<path fill="#c0c0c0" stroke="black" d="M257,-36C257,-36 227,-36 227,-36 221,-36 215,-30 215,-24 215,-24 215,-12 215,-12 215,-6 221,0 227,0 227,0 257,0 257,0 263,0 269,-6 269,-12 269,-12 269,-24 269,-24 269,-30 263,-36 257,-36"/>
<text text-anchor="middle" x="242" y="-13.32" font-family="Helvetica,sans-Serif" font-size="14.00">(...)</text>
</g>
<!-- 8974&#45;&gt;8975 -->
<g id="edge7" class="edge">
<title>8974&#45;&gt;8975</title>
<path fill="none" stroke="black" d="M262.76,-71.75C259.4,-63.22 255.99,-54.57 252.94,-46.8"/>
<polygon fill="black" stroke="black" points="256.23,-45.61 249.31,-37.58 249.71,-48.17 256.23,-45.61"/>
</g>
<!-- 9780 -->
<g id="node9" class="node">
<title>9780</title>
<path fill="#c0c0c0" stroke="black" d="M329,-36C329,-36 299,-36 299,-36 293,-36 287,-30 287,-24 287,-24 287,-12 287,-12 287,-6 293,0 299,0 299,0 329,0 329,0 335,0 341,-6 341,-12 341,-12 341,-24 341,-24 341,-30 335,-36 329,-36"/>
<text text-anchor="middle" x="314" y="-13.32" font-family="Helvetica,sans-Serif" font-size="14.00">(...)</text>
</g>
<!-- 8974&#45;&gt;9780 -->
<g id="edge8" class="edge">
<title>8974&#45;&gt;9780</title>
<path fill="none" stroke="black" d="M296.44,-71.75C299.24,-63.32 302.09,-54.77 304.66,-47.07"/>
<polygon fill="black" stroke="black" points="307.97,-48.2 307.8,-37.61 301.33,-45.99 307.97,-48.2"/>
</g>
<!-- 10086 -->
<g id="node11" class="node">
<title>10086</title>
<path fill="#94caf1" stroke="black" d="M532,-166.25C532,-166.25 390,-166.25 390,-166.25 384,-166.25 378,-160.25 378,-154.25 378,-154.25 378,-84 378,-84 378,-78 384,-72 390,-72 390,-72 532,-72 532,-72 538,-72 544,-78 544,-84 544,-84 544,-154.25 544,-154.25 544,-160.25 538,-166.25 532,-166.25"/>
<text text-anchor="middle" x="461" y="-148.95" font-family="Helvetica,sans-Serif" font-size="14.00">15_C &lt;= 0.5</text>
<text text-anchor="middle" x="461" y="-131.7" font-family="Helvetica,sans-Serif" font-size="14.00">entropy = 0.9</text>
<text text-anchor="middle" x="461" y="-114.45" font-family="Helvetica,sans-Serif" font-size="14.00">samples = 9103</text>
<text text-anchor="middle" x="461" y="-97.2" font-family="Helvetica,sans-Serif" font-size="14.00">value = [4509, 9779]</text>
<text text-anchor="middle" x="461" y="-79.95" font-family="Helvetica,sans-Serif" font-size="14.00">class = Plant</text>
</g>
<!-- 10085&#45;&gt;10086 -->
<g id="edge10" class="edge">
<title>10085&#45;&gt;10086</title>
<path fill="none" stroke="black" d="M516.59,-202.07C510.8,-193.54 504.7,-184.54 498.75,-175.77"/>
<polygon fill="black" stroke="black" points="501.72,-173.92 493.21,-167.61 495.93,-177.85 501.72,-173.92"/>
</g>
<!-- 12899 -->
<g id="node14" class="node">
<title>12899</title>
<path fill="#f4c8a9" stroke="black" d="M698,-166.25C698,-166.25 574,-166.25 574,-166.25 568,-166.25 562,-160.25 562,-154.25 562,-154.25 562,-84 562,-84 562,-78 568,-72 574,-72 574,-72 698,-72 698,-72 704,-72 710,-78 710,-84 710,-84 710,-154.25 710,-154.25 710,-160.25 704,-166.25 698,-166.25"/>
<text text-anchor="middle" x="636" y="-148.95" font-family="Helvetica,sans-Serif" font-size="14.00">18_U &lt;= 0.5</text>
<text text-anchor="middle" x="636" y="-131.7" font-family="Helvetica,sans-Serif" font-size="14.00">entropy = 0.943</text>
<text text-anchor="middle" x="636" y="-114.45" font-family="Helvetica,sans-Serif" font-size="14.00">samples = 992</text>
<text text-anchor="middle" x="636" y="-97.2" font-family="Helvetica,sans-Serif" font-size="14.00">value = [998, 563]</text>
<text text-anchor="middle" x="636" y="-79.95" font-family="Helvetica,sans-Serif" font-size="14.00">class = Animal</text>
</g>
<!-- 10085&#45;&gt;12899 -->
<g id="edge13" class="edge">
<title>10085&#45;&gt;12899</title>
<path fill="none" stroke="black" d="M579.77,-202.07C585.63,-193.54 591.8,-184.54 597.82,-175.77"/>
<polygon fill="black" stroke="black" points="600.65,-177.83 603.42,-167.61 594.88,-173.87 600.65,-177.83"/>
</g>
<!-- 10087 -->
<g id="node12" class="node">
<title>10087</title>
<path fill="#c0c0c0" stroke="black" d="M419,-36C419,-36 389,-36 389,-36 383,-36 377,-30 377,-24 377,-24 377,-12 377,-12 377,-6 383,0 389,0 389,0 419,0 419,0 425,0 431,-6 431,-12 431,-12 431,-24 431,-24 431,-30 425,-36 419,-36"/>
<text text-anchor="middle" x="404" y="-13.32" font-family="Helvetica,sans-Serif" font-size="14.00">(...)</text>
</g>
<!-- 10086&#45;&gt;10087 -->
<g id="edge11" class="edge">
<title>10086&#45;&gt;10087</title>
<path fill="none" stroke="black" d="M434.34,-71.75C429.26,-62.93 424.1,-53.96 419.52,-45.99"/>
<polygon fill="black" stroke="black" points="422.65,-44.41 414.63,-37.48 416.58,-47.9 422.65,-44.41"/>
</g>
<!-- 12278 -->
<g id="node13" class="node">
<title>12278</title>
<path fill="#c0c0c0" stroke="black" d="M491,-36C491,-36 461,-36 461,-36 455,-36 449,-30 449,-24 449,-24 449,-12 449,-12 449,-6 455,0 461,0 461,0 491,0 491,0 497,0 503,-6 503,-12 503,-12 503,-24 503,-24 503,-30 497,-36 491,-36"/>
<text text-anchor="middle" x="476" y="-13.32" font-family="Helvetica,sans-Serif" font-size="14.00">(...)</text>
</g>
<!-- 10086&#45;&gt;12278 -->
<g id="edge12" class="edge">
<title>10086&#45;&gt;12278</title>
<path fill="none" stroke="black" d="M468.02,-71.75C469.28,-63.42 470.56,-54.97 471.71,-47.34"/>
<polygon fill="black" stroke="black" points="475.14,-48.08 473.17,-37.67 468.22,-47.03 475.14,-48.08"/>
</g>
<!-- 12900 -->
<g id="node15" class="node">
<title>12900</title>
<path fill="#c0c0c0" stroke="black" d="M594,-36C594,-36 564,-36 564,-36 558,-36 552,-30 552,-24 552,-24 552,-12 552,-12 552,-6 558,0 564,0 564,0 594,0 594,0 600,0 606,-6 606,-12 606,-12 606,-24 606,-24 606,-30 600,-36 594,-36"/>
<text text-anchor="middle" x="579" y="-13.32" font-family="Helvetica,sans-Serif" font-size="14.00">(...)</text>
</g>
<!-- 12899&#45;&gt;12900 -->
<g id="edge14" class="edge">
<title>12899&#45;&gt;12900</title>
<path fill="none" stroke="black" d="M609.34,-71.75C604.26,-62.93 599.1,-53.96 594.52,-45.99"/>
<polygon fill="black" stroke="black" points="597.65,-44.41 589.63,-37.48 591.58,-47.9 597.65,-44.41"/>
</g>
<!-- 13147 -->
<g id="node16" class="node">
<title>13147</title>
<path fill="#c0c0c0" stroke="black" d="M666,-36C666,-36 636,-36 636,-36 630,-36 624,-30 624,-24 624,-24 624,-12 624,-12 624,-6 630,0 636,0 636,0 666,0 666,0 672,0 678,-6 678,-12 678,-12 678,-24 678,-24 678,-30 672,-36 666,-36"/>
<text text-anchor="middle" x="651" y="-13.32" font-family="Helvetica,sans-Serif" font-size="14.00">(...)</text>
</g>
<!-- 12899&#45;&gt;13147 -->
<g id="edge15" class="edge">
<title>12899&#45;&gt;13147</title>
<path fill="none" stroke="black" d="M643.02,-71.75C644.28,-63.42 645.56,-54.97 646.71,-47.34"/>
<polygon fill="black" stroke="black" points="650.14,-48.08 648.17,-37.67 643.22,-47.03 650.14,-48.08"/>
</g>
<!-- 13271 -->
<g id="node18" class="node">
<title>13271</title>
<path fill="#fae5d5" stroke="black" d="M969,-296.5C969,-296.5 827,-296.5 827,-296.5 821,-296.5 815,-290.5 815,-284.5 815,-284.5 815,-214.25 815,-214.25 815,-208.25 821,-202.25 827,-202.25 827,-202.25 969,-202.25 969,-202.25 975,-202.25 981,-208.25 981,-214.25 981,-214.25 981,-284.5 981,-284.5 981,-290.5 975,-296.5 969,-296.5"/>
<text text-anchor="middle" x="898" y="-279.2" font-family="Helvetica,sans-Serif" font-size="14.00">8_C &lt;= 0.5</text>
<text text-anchor="middle" x="898" y="-261.95" font-family="Helvetica,sans-Serif" font-size="14.00">entropy = 0.99</text>
<text text-anchor="middle" x="898" y="-244.7" font-family="Helvetica,sans-Serif" font-size="14.00">samples = 6352</text>
<text text-anchor="middle" x="898" y="-227.45" font-family="Helvetica,sans-Serif" font-size="14.00">value = [5629, 4446]</text>
<text text-anchor="middle" x="898" y="-210.2" font-family="Helvetica,sans-Serif" font-size="14.00">class = Animal</text>
</g>
<!-- 13270&#45;&gt;13271 -->
<g id="edge17" class="edge">
<title>13270&#45;&gt;13271</title>
<path fill="none" stroke="black" d="M898,-332.32C898,-324.42 898,-316.13 898,-307.98"/>
<polygon fill="black" stroke="black" points="901.5,-308.12 898,-298.12 894.5,-308.12 901.5,-308.12"/>
</g>
<!-- 16116 -->
<g id="node25" class="node">
<title>16116</title>
<path fill="#eeac7d" stroke="black" d="M1232.5,-296.5C1232.5,-296.5 1099.5,-296.5 1099.5,-296.5 1093.5,-296.5 1087.5,-290.5 1087.5,-284.5 1087.5,-284.5 1087.5,-214.25 1087.5,-214.25 1087.5,-208.25 1093.5,-202.25 1099.5,-202.25 1099.5,-202.25 1232.5,-202.25 1232.5,-202.25 1238.5,-202.25 1244.5,-208.25 1244.5,-214.25 1244.5,-214.25 1244.5,-284.5 1244.5,-284.5 1244.5,-290.5 1238.5,-296.5 1232.5,-296.5"/>
<text text-anchor="middle" x="1166" y="-279.2" font-family="Helvetica,sans-Serif" font-size="14.00">8_U &lt;= 0.5</text>
<text text-anchor="middle" x="1166" y="-261.95" font-family="Helvetica,sans-Serif" font-size="14.00">entropy = 0.821</text>
<text text-anchor="middle" x="1166" y="-244.7" font-family="Helvetica,sans-Serif" font-size="14.00">samples = 2296</text>
<text text-anchor="middle" x="1166" y="-227.45" font-family="Helvetica,sans-Serif" font-size="14.00">value = [2688, 925]</text>
<text text-anchor="middle" x="1166" y="-210.2" font-family="Helvetica,sans-Serif" font-size="14.00">class = Animal</text>
</g>
<!-- 13270&#45;&gt;16116 -->
<g id="edge24" class="edge">
<title>13270&#45;&gt;16116</title>
<path fill="none" stroke="black" d="M981.33,-338.75C1011.7,-324.21 1046.14,-307.73 1076.99,-292.97"/>
<polygon fill="black" stroke="black" points="1078.43,-296.16 1085.94,-288.69 1075.4,-289.85 1078.43,-296.16"/>
</g>
<!-- 13272 -->
<g id="node19" class="node">
<title>13272</title>
<path fill="#fdf4ee" stroke="black" d="M882,-166.25C882,-166.25 740,-166.25 740,-166.25 734,-166.25 728,-160.25 728,-154.25 728,-154.25 728,-84 728,-84 728,-78 734,-72 740,-72 740,-72 882,-72 882,-72 888,-72 894,-78 894,-84 894,-84 894,-154.25 894,-154.25 894,-160.25 888,-166.25 882,-166.25"/>
<text text-anchor="middle" x="811" y="-148.95" font-family="Helvetica,sans-Serif" font-size="14.00">23_A &lt;= 0.5</text>
<text text-anchor="middle" x="811" y="-131.7" font-family="Helvetica,sans-Serif" font-size="14.00">entropy = 0.999</text>
<text text-anchor="middle" x="811" y="-114.45" font-family="Helvetica,sans-Serif" font-size="14.00">samples = 5130</text>
<text text-anchor="middle" x="811" y="-97.2" font-family="Helvetica,sans-Serif" font-size="14.00">value = [4246, 3892]</text>
<text text-anchor="middle" x="811" y="-79.95" font-family="Helvetica,sans-Serif" font-size="14.00">class = Animal</text>
</g>
<!-- 13271&#45;&gt;13272 -->
<g id="edge18" class="edge">
<title>13271&#45;&gt;13272</title>
<path fill="none" stroke="black" d="M866.59,-202.07C860.8,-193.54 854.7,-184.54 848.75,-175.77"/>
<polygon fill="black" stroke="black" points="851.72,-173.92 843.21,-167.61 845.93,-177.85 851.72,-173.92"/>
</g>
<!-- 15559 -->
<g id="node22" class="node">
<title>15559</title>
<path fill="#efb388" stroke="black" d="M1057.5,-166.25C1057.5,-166.25 924.5,-166.25 924.5,-166.25 918.5,-166.25 912.5,-160.25 912.5,-154.25 912.5,-154.25 912.5,-84 912.5,-84 912.5,-78 918.5,-72 924.5,-72 924.5,-72 1057.5,-72 1057.5,-72 1063.5,-72 1069.5,-78 1069.5,-84 1069.5,-84 1069.5,-154.25 1069.5,-154.25 1069.5,-160.25 1063.5,-166.25 1057.5,-166.25"/>
<text text-anchor="middle" x="991" y="-148.95" font-family="Helvetica,sans-Serif" font-size="14.00">23_U &lt;= 0.5</text>
<text text-anchor="middle" x="991" y="-131.7" font-family="Helvetica,sans-Serif" font-size="14.00">entropy = 0.864</text>
<text text-anchor="middle" x="991" y="-114.45" font-family="Helvetica,sans-Serif" font-size="14.00">samples = 1222</text>
<text text-anchor="middle" x="991" y="-97.2" font-family="Helvetica,sans-Serif" font-size="14.00">value = [1383, 554]</text>
<text text-anchor="middle" x="991" y="-79.95" font-family="Helvetica,sans-Serif" font-size="14.00">class = Animal</text>
</g>
<!-- 13271&#45;&gt;15559 -->
<g id="edge21" class="edge">
<title>13271&#45;&gt;15559</title>
<path fill="none" stroke="black" d="M931.58,-202.07C937.83,-193.45 944.43,-184.35 950.85,-175.49"/>
<polygon fill="black" stroke="black" points="953.55,-177.73 956.59,-167.58 947.88,-173.62 953.55,-177.73"/>
</g>
<!-- 13273 -->
<g id="node20" class="node">
<title>13273</title>
<path fill="#c0c0c0" stroke="black" d="M772,-36C772,-36 742,-36 742,-36 736,-36 730,-30 730,-24 730,-24 730,-12 730,-12 730,-6 736,0 742,0 742,0 772,0 772,0 778,0 784,-6 784,-12 784,-12 784,-24 784,-24 784,-30 778,-36 772,-36"/>
<text text-anchor="middle" x="757" y="-13.32" font-family="Helvetica,sans-Serif" font-size="14.00">(...)</text>
</g>
<!-- 13272&#45;&gt;13273 -->
<g id="edge19" class="edge">
<title>13272&#45;&gt;13273</title>
<path fill="none" stroke="black" d="M785.74,-71.75C780.98,-63.03 776.16,-54.16 771.85,-46.26"/>
<polygon fill="black" stroke="black" points="774.94,-44.61 767.08,-37.5 768.79,-47.96 774.94,-44.61"/>
</g>
<!-- 15428 -->
<g id="node21" class="node">
<title>15428</title>
<path fill="#c0c0c0" stroke="black" d="M844,-36C844,-36 814,-36 814,-36 808,-36 802,-30 802,-24 802,-24 802,-12 802,-12 802,-6 808,0 814,0 814,0 844,0 844,0 850,0 856,-6 856,-12 856,-12 856,-24 856,-24 856,-30 850,-36 844,-36"/>
<text text-anchor="middle" x="829" y="-13.32" font-family="Helvetica,sans-Serif" font-size="14.00">(...)</text>
</g>
<!-- 13272&#45;&gt;15428 -->
<g id="edge20" class="edge">
<title>13272&#45;&gt;15428</title>
<path fill="none" stroke="black" d="M819.42,-71.75C820.93,-63.42 822.47,-54.97 823.85,-47.34"/>
<polygon fill="black" stroke="black" points="827.27,-48.13 825.61,-37.66 820.38,-46.88 827.27,-48.13"/>
</g>
<!-- 15560 -->
<g id="node23" class="node">
<title>15560</title>
<path fill="#c0c0c0" stroke="black" d="M949,-36C949,-36 919,-36 919,-36 913,-36 907,-30 907,-24 907,-24 907,-12 907,-12 907,-6 913,0 919,0 919,0 949,0 949,0 955,0 961,-6 961,-12 961,-12 961,-24 961,-24 961,-30 955,-36 949,-36"/>
<text text-anchor="middle" x="934" y="-13.32" font-family="Helvetica,sans-Serif" font-size="14.00">(...)</text>
</g>
<!-- 15559&#45;&gt;15560 -->
<g id="edge22" class="edge">
<title>15559&#45;&gt;15560</title>
<path fill="none" stroke="black" d="M964.34,-71.75C959.26,-62.93 954.1,-53.96 949.52,-45.99"/>
<polygon fill="black" stroke="black" points="952.65,-44.41 944.63,-37.48 946.58,-47.9 952.65,-44.41"/>
</g>
<!-- 16075 -->
<g id="node24" class="node">
<title>16075</title>
<path fill="#c0c0c0" stroke="black" d="M1021,-36C1021,-36 991,-36 991,-36 985,-36 979,-30 979,-24 979,-24 979,-12 979,-12 979,-6 985,0 991,0 991,0 1021,0 1021,0 1027,0 1033,-6 1033,-12 1033,-12 1033,-24 1033,-24 1033,-30 1027,-36 1021,-36"/>
<text text-anchor="middle" x="1006" y="-13.32" font-family="Helvetica,sans-Serif" font-size="14.00">(...)</text>
</g>
<!-- 15559&#45;&gt;16075 -->
<g id="edge23" class="edge">
<title>15559&#45;&gt;16075</title>
<path fill="none" stroke="black" d="M998.02,-71.75C999.28,-63.42 1000.56,-54.97 1001.71,-47.34"/>
<polygon fill="black" stroke="black" points="1005.14,-48.08 1003.17,-37.67 998.22,-47.03 1005.14,-48.08"/>
</g>
<!-- 16117 -->
<g id="node26" class="node">
<title>16117</title>
<path fill="#efb286" stroke="black" d="M1232.5,-166.25C1232.5,-166.25 1099.5,-166.25 1099.5,-166.25 1093.5,-166.25 1087.5,-160.25 1087.5,-154.25 1087.5,-154.25 1087.5,-84 1087.5,-84 1087.5,-78 1093.5,-72 1099.5,-72 1099.5,-72 1232.5,-72 1232.5,-72 1238.5,-72 1244.5,-78 1244.5,-84 1244.5,-84 1244.5,-154.25 1244.5,-154.25 1244.5,-160.25 1238.5,-166.25 1232.5,-166.25"/>
<text text-anchor="middle" x="1166" y="-148.95" font-family="Helvetica,sans-Serif" font-size="14.00">18_A &lt;= 0.5</text>
<text text-anchor="middle" x="1166" y="-131.7" font-family="Helvetica,sans-Serif" font-size="14.00">entropy = 0.855</text>
<text text-anchor="middle" x="1166" y="-114.45" font-family="Helvetica,sans-Serif" font-size="14.00">samples = 1750</text>
<text text-anchor="middle" x="1166" y="-97.2" font-family="Helvetica,sans-Serif" font-size="14.00">value = [1976, 766]</text>
<text text-anchor="middle" x="1166" y="-79.95" font-family="Helvetica,sans-Serif" font-size="14.00">class = Animal</text>
</g>
<!-- 16116&#45;&gt;16117 -->
<g id="edge25" class="edge">
<title>16116&#45;&gt;16117</title>
<path fill="none" stroke="black" d="M1166,-202.07C1166,-194.17 1166,-185.88 1166,-177.73"/>
<polygon fill="black" stroke="black" points="1169.5,-177.87 1166,-167.87 1162.5,-177.87 1169.5,-177.87"/>
</g>
<!-- 16796 -->
<g id="node29" class="node">
<title>16796</title>
<path fill="#eb9d65" stroke="black" d="M1399,-166.25C1399,-166.25 1275,-166.25 1275,-166.25 1269,-166.25 1263,-160.25 1263,-154.25 1263,-154.25 1263,-84 1263,-84 1263,-78 1269,-72 1275,-72 1275,-72 1399,-72 1399,-72 1405,-72 1411,-78 1411,-84 1411,-84 1411,-154.25 1411,-154.25 1411,-160.25 1405,-166.25 1399,-166.25"/>
<text text-anchor="middle" x="1337" y="-148.95" font-family="Helvetica,sans-Serif" font-size="14.00">16_G &lt;= 0.5</text>
<text text-anchor="middle" x="1337" y="-131.7" font-family="Helvetica,sans-Serif" font-size="14.00">entropy = 0.686</text>
<text text-anchor="middle" x="1337" y="-114.45" font-family="Helvetica,sans-Serif" font-size="14.00">samples = 546</text>
<text text-anchor="middle" x="1337" y="-97.2" font-family="Helvetica,sans-Serif" font-size="14.00">value = [712, 159]</text>
<text text-anchor="middle" x="1337" y="-79.95" font-family="Helvetica,sans-Serif" font-size="14.00">class = Animal</text>
</g>
<!-- 16116&#45;&gt;16796 -->
<g id="edge28" class="edge">
<title>16116&#45;&gt;16796</title>
<path fill="none" stroke="black" d="M1227.73,-202.07C1240.13,-192.78 1253.25,-182.94 1265.93,-173.43"/>
<polygon fill="black" stroke="black" points="1267.96,-176.28 1273.86,-167.48 1263.76,-170.68 1267.96,-176.28"/>
</g>
<!-- 16118 -->
<g id="node27" class="node">
<title>16118</title>
<path fill="#c0c0c0" stroke="black" d="M1140,-36C1140,-36 1110,-36 1110,-36 1104,-36 1098,-30 1098,-24 1098,-24 1098,-12 1098,-12 1098,-6 1104,0 1110,0 1110,0 1140,0 1140,0 1146,0 1152,-6 1152,-12 1152,-12 1152,-24 1152,-24 1152,-30 1146,-36 1140,-36"/>
<text text-anchor="middle" x="1125" y="-13.32" font-family="Helvetica,sans-Serif" font-size="14.00">(...)</text>
</g>
<!-- 16117&#45;&gt;16118 -->
<g id="edge26" class="edge">
<title>16117&#45;&gt;16118</title>
<path fill="none" stroke="black" d="M1146.82,-71.75C1143.29,-63.22 1139.71,-54.57 1136.5,-46.8"/>
<polygon fill="black" stroke="black" points="1139.74,-45.47 1132.68,-37.57 1133.27,-48.15 1139.74,-45.47"/>
</g>
<!-- 16647 -->
<g id="node28" class="node">
<title>16647</title>
<path fill="#c0c0c0" stroke="black" d="M1212,-36C1212,-36 1182,-36 1182,-36 1176,-36 1170,-30 1170,-24 1170,-24 1170,-12 1170,-12 1170,-6 1176,0 1182,0 1182,0 1212,0 1212,0 1218,0 1224,-6 1224,-12 1224,-12 1224,-24 1224,-24 1224,-30 1218,-36 1212,-36"/>
<text text-anchor="middle" x="1197" y="-13.32" font-family="Helvetica,sans-Serif" font-size="14.00">(...)</text>
</g>
<!-- 16117&#45;&gt;16647 -->
<g id="edge27" class="edge">
<title>16117&#45;&gt;16647</title>
<path fill="none" stroke="black" d="M1180.5,-71.75C1183.14,-63.32 1185.81,-54.77 1188.22,-47.07"/>
<polygon fill="black" stroke="black" points="1191.53,-48.21 1191.18,-37.62 1184.85,-46.12 1191.53,-48.21"/>
</g>
<!-- 16797 -->
<g id="node30" class="node">
<title>16797</title>
<path fill="#c0c0c0" stroke="black" d="M1316,-36C1316,-36 1286,-36 1286,-36 1280,-36 1274,-30 1274,-24 1274,-24 1274,-12 1274,-12 1274,-6 1280,0 1286,0 1286,0 1316,0 1316,0 1322,0 1328,-6 1328,-12 1328,-12 1328,-24 1328,-24 1328,-30 1322,-36 1316,-36"/>
<text text-anchor="middle" x="1301" y="-13.32" font-family="Helvetica,sans-Serif" font-size="14.00">(...)</text>
</g>
<!-- 16796&#45;&gt;16797 -->
<g id="edge29" class="edge">
<title>16796&#45;&gt;16797</title>
<path fill="none" stroke="black" d="M1320.16,-71.75C1317.06,-63.22 1313.92,-54.57 1311.1,-46.8"/>
<polygon fill="black" stroke="black" points="1314.46,-45.8 1307.75,-37.6 1307.88,-48.19 1314.46,-45.8"/>
</g>
<!-- 16942 -->
<g id="node31" class="node">
<title>16942</title>
<path fill="#c0c0c0" stroke="black" d="M1388,-36C1388,-36 1358,-36 1358,-36 1352,-36 1346,-30 1346,-24 1346,-24 1346,-12 1346,-12 1346,-6 1352,0 1358,0 1358,0 1388,0 1388,0 1394,0 1400,-6 1400,-12 1400,-12 1400,-24 1400,-24 1400,-30 1394,-36 1388,-36"/>
<text text-anchor="middle" x="1373" y="-13.32" font-family="Helvetica,sans-Serif" font-size="14.00">(...)</text>
</g>
<!-- 16796&#45;&gt;16942 -->
<g id="edge30" class="edge">
<title>16796&#45;&gt;16942</title>
<path fill="none" stroke="black" d="M1353.84,-71.75C1356.94,-63.22 1360.08,-54.57 1362.9,-46.8"/>
<polygon fill="black" stroke="black" points="1366.12,-48.19 1366.25,-37.6 1359.54,-45.8 1366.12,-48.19"/>
</g>
</g>
</svg>
