<?xml version="1.0" encoding="UTF-8" standalone="no"?>
<!DOCTYPE svg PUBLIC "-//W3C//DTD SVG 1.1//EN"
 "http://www.w3.org/Graphics/SVG/1.1/DTD/svg11.dtd">
<!-- Generated by graphviz version 12.0.0 (20240803.0821)
 -->
<!-- Title: Tree Pages: 1 -->
<svg width="1438pt" height="565pt"
 viewBox="0.00 0.00 1437.50 565.00" xmlns="http://www.w3.org/2000/svg" xmlns:xlink="http://www.w3.org/1999/xlink">
<g id="graph0" class="graph" transform="scale(1 1) rotate(0) translate(4 561)">
<title>Tree</title>
<polygon fill="white" stroke="none" points="-4,4 -4,-561 1433.5,-561 1433.5,4 -4,4"/>
<!-- 0 -->
<g id="node1" class="node">
<title>0</title>
<path fill="#fcfdff" stroke="black" d="M800.5,-557C800.5,-557 640.5,-557 640.5,-557 634.5,-557 628.5,-551 628.5,-545 628.5,-545 628.5,-474.75 628.5,-474.75 628.5,-468.75 634.5,-462.75 640.5,-462.75 640.5,-462.75 800.5,-462.75 800.5,-462.75 806.5,-462.75 812.5,-468.75 812.5,-474.75 812.5,-474.75 812.5,-545 812.5,-545 812.5,-551 806.5,-557 800.5,-557"/>
<text text-anchor="middle" x="720.5" y="-539.7" font-family="Helvetica,sans-Serif" font-size="14.00">8_G &lt;= 0.5</text>
<text text-anchor="middle" x="720.5" y="-522.45" font-family="Helvetica,sans-Serif" font-size="14.00">entropy = 1.0</text>
<text text-anchor="middle" x="720.5" y="-505.2" font-family="Helvetica,sans-Serif" font-size="14.00">samples = 38105</text>
<text text-anchor="middle" x="720.5" y="-487.95" font-family="Helvetica,sans-Serif" font-size="14.00">value = [29932, 30413]</text>
<text text-anchor="middle" x="720.5" y="-470.7" font-family="Helvetica,sans-Serif" font-size="14.00">class = Plant</text>
</g>
<!-- 1 -->
<g id="node2" class="node">
<title>1</title>
<path fill="#fbeadf" stroke="black" d="M625.5,-426.75C625.5,-426.75 465.5,-426.75 465.5,-426.75 459.5,-426.75 453.5,-420.75 453.5,-414.75 453.5,-414.75 453.5,-344.5 453.5,-344.5 453.5,-338.5 459.5,-332.5 465.5,-332.5 465.5,-332.5 625.5,-332.5 625.5,-332.5 631.5,-332.5 637.5,-338.5 637.5,-344.5 637.5,-344.5 637.5,-414.75 637.5,-414.75 637.5,-420.75 631.5,-426.75 625.5,-426.75"/>
<text text-anchor="middle" x="545.5" y="-409.45" font-family="Helvetica,sans-Serif" font-size="14.00">9_U &lt;= 0.5</text>
<text text-anchor="middle" x="545.5" y="-392.2" font-family="Helvetica,sans-Serif" font-size="14.00">entropy = 0.994</text>
<text text-anchor="middle" x="545.5" y="-374.95" font-family="Helvetica,sans-Serif" font-size="14.00">samples = 26314</text>
<text text-anchor="middle" x="545.5" y="-357.7" font-family="Helvetica,sans-Serif" font-size="14.00">value = [22715, 19016]</text>
<text text-anchor="middle" x="545.5" y="-340.45" font-family="Helvetica,sans-Serif" font-size="14.00">class = Animal</text>
</g>
<!-- 0&#45;&gt;1 -->
<g id="edge1" class="edge">
<title>0&#45;&gt;1</title>
<path fill="none" stroke="black" d="M657.32,-462.57C644.51,-453.19 630.95,-443.25 617.86,-433.65"/>
<polygon fill="black" stroke="black" points="620.24,-431.06 610.1,-427.97 616.1,-436.7 620.24,-431.06"/>
<text text-anchor="middle" x="612.69" y="-447.11" font-family="Helvetica,sans-Serif" font-size="14.00">True</text>
</g>
<!-- 12452 -->
<g id="node17" class="node">
<title>12452</title>
<path fill="#b6dbf5" stroke="black" d="M986,-426.75C986,-426.75 835,-426.75 835,-426.75 829,-426.75 823,-420.75 823,-414.75 823,-414.75 823,-344.5 823,-344.5 823,-338.5 829,-332.5 835,-332.5 835,-332.5 986,-332.5 986,-332.5 992,-332.5 998,-338.5 998,-344.5 998,-344.5 998,-414.75 998,-414.75 998,-420.75 992,-426.75 986,-426.75"/>
<text text-anchor="middle" x="910.5" y="-409.45" font-family="Helvetica,sans-Serif" font-size="14.00">6_A &lt;= 0.5</text>
<text text-anchor="middle" x="910.5" y="-392.2" font-family="Helvetica,sans-Serif" font-size="14.00">entropy = 0.963</text>
<text text-anchor="middle" x="910.5" y="-374.95" font-family="Helvetica,sans-Serif" font-size="14.00">samples = 11791</text>
<text text-anchor="middle" x="910.5" y="-357.7" font-family="Helvetica,sans-Serif" font-size="14.00">value = [7217, 11397]</text>
<text text-anchor="middle" x="910.5" y="-340.45" font-family="Helvetica,sans-Serif" font-size="14.00">class = Plant</text>
</g>
<!-- 0&#45;&gt;12452 -->
<g id="edge16" class="edge">
<title>0&#45;&gt;12452</title>
<path fill="none" stroke="black" d="M789.36,-462.39C803.3,-452.98 818.05,-443.03 832.29,-433.42"/>
<polygon fill="black" stroke="black" points="833.97,-436.51 840.3,-428.01 830.05,-430.7 833.97,-436.51"/>
<text text-anchor="middle" x="836.79" y="-447.03" font-family="Helvetica,sans-Serif" font-size="14.00">False</text>
</g>
<!-- 2 -->
<g id="node3" class="node">
<title>2</title>
<path fill="#ffffff" stroke="black" d="M356.5,-296.5C356.5,-296.5 196.5,-296.5 196.5,-296.5 190.5,-296.5 184.5,-290.5 184.5,-284.5 184.5,-284.5 184.5,-214.25 184.5,-214.25 184.5,-208.25 190.5,-202.25 196.5,-202.25 196.5,-202.25 356.5,-202.25 356.5,-202.25 362.5,-202.25 368.5,-208.25 368.5,-214.25 368.5,-214.25 368.5,-284.5 368.5,-284.5 368.5,-290.5 362.5,-296.5 356.5,-296.5"/>
<text text-anchor="middle" x="276.5" y="-279.2" font-family="Helvetica,sans-Serif" font-size="14.00">10_A &lt;= 0.5</text>
<text text-anchor="middle" x="276.5" y="-261.95" font-family="Helvetica,sans-Serif" font-size="14.00">entropy = 1.0</text>
<text text-anchor="middle" x="276.5" y="-244.7" font-family="Helvetica,sans-Serif" font-size="14.00">samples = 18642</text>
<text text-anchor="middle" x="276.5" y="-227.45" font-family="Helvetica,sans-Serif" font-size="14.00">value = [14775, 14795]</text>
<text text-anchor="middle" x="276.5" y="-210.2" font-family="Helvetica,sans-Serif" font-size="14.00">class = Plant</text>
</g>
<!-- 1&#45;&gt;2 -->
<g id="edge2" class="edge">
<title>1&#45;&gt;2</title>
<path fill="none" stroke="black" d="M453.3,-334.67C429.35,-323.25 403.4,-310.88 378.95,-299.22"/>
<polygon fill="black" stroke="black" points="380.48,-296.07 369.94,-294.93 377.46,-302.39 380.48,-296.07"/>
</g>
<!-- 8859 -->
<g id="node10" class="node">
<title>8859</title>
<path fill="#f3c4a2" stroke="black" d="M616.5,-296.5C616.5,-296.5 474.5,-296.5 474.5,-296.5 468.5,-296.5 462.5,-290.5 462.5,-284.5 462.5,-284.5 462.5,-214.25 462.5,-214.25 462.5,-208.25 468.5,-202.25 474.5,-202.25 474.5,-202.25 616.5,-202.25 616.5,-202.25 622.5,-202.25 628.5,-208.25 628.5,-214.25 628.5,-214.25 628.5,-284.5 628.5,-284.5 628.5,-290.5 622.5,-296.5 616.5,-296.5"/>
<text text-anchor="middle" x="545.5" y="-279.2" font-family="Helvetica,sans-Serif" font-size="14.00">7_C &lt;= 0.5</text>
<text text-anchor="middle" x="545.5" y="-261.95" font-family="Helvetica,sans-Serif" font-size="14.00">entropy = 0.931</text>
<text text-anchor="middle" x="545.5" y="-244.7" font-family="Helvetica,sans-Serif" font-size="14.00">samples = 7672</text>
<text text-anchor="middle" x="545.5" y="-227.45" font-family="Helvetica,sans-Serif" font-size="14.00">value = [7940, 4221]</text>
<text text-anchor="middle" x="545.5" y="-210.2" font-family="Helvetica,sans-Serif" font-size="14.00">class = Animal</text>
</g>
<!-- 1&#45;&gt;8859 -->
<g id="edge9" class="edge">
<title>1&#45;&gt;8859</title>
<path fill="none" stroke="black" d="M545.5,-332.32C545.5,-324.42 545.5,-316.13 545.5,-307.98"/>
<polygon fill="black" stroke="black" points="549,-308.12 545.5,-298.12 542,-308.12 549,-308.12"/>
</g>
<!-- 3 -->
<g id="node4" class="node">
<title>3</title>
<path fill="#fcf1ea" stroke="black" d="M163,-166.25C163,-166.25 12,-166.25 12,-166.25 6,-166.25 0,-160.25 0,-154.25 0,-154.25 0,-84 0,-84 0,-78 6,-72 12,-72 12,-72 163,-72 163,-72 169,-72 175,-78 175,-84 175,-84 175,-154.25 175,-154.25 175,-160.25 169,-166.25 163,-166.25"/>
<text text-anchor="middle" x="87.5" y="-148.95" font-family="Helvetica,sans-Serif" font-size="14.00">19_C &lt;= 0.5</text>
<text text-anchor="middle" x="87.5" y="-131.7" font-family="Helvetica,sans-Serif" font-size="14.00">entropy = 0.998</text>
<text text-anchor="middle" x="87.5" y="-114.45" font-family="Helvetica,sans-Serif" font-size="14.00">samples = 13259</text>
<text text-anchor="middle" x="87.5" y="-97.2" font-family="Helvetica,sans-Serif" font-size="14.00">value = [11155, 9947]</text>
<text text-anchor="middle" x="87.5" y="-79.95" font-family="Helvetica,sans-Serif" font-size="14.00">class = Animal</text>
</g>
<!-- 2&#45;&gt;3 -->
<g id="edge3" class="edge">
<title>2&#45;&gt;3</title>
<path fill="none" stroke="black" d="M208,-201.89C194.13,-192.48 179.46,-182.53 165.3,-172.92"/>
<polygon fill="black" stroke="black" points="167.58,-170.23 157.34,-167.51 163.65,-176.03 167.58,-170.23"/>
</g>
<!-- 6494 -->
<g id="node7" class="node">
<title>6494</title>
<path fill="#cde6f8" stroke="black" d="M347.5,-166.25C347.5,-166.25 205.5,-166.25 205.5,-166.25 199.5,-166.25 193.5,-160.25 193.5,-154.25 193.5,-154.25 193.5,-84 193.5,-84 193.5,-78 199.5,-72 205.5,-72 205.5,-72 347.5,-72 347.5,-72 353.5,-72 359.5,-78 359.5,-84 359.5,-84 359.5,-154.25 359.5,-154.25 359.5,-160.25 353.5,-166.25 347.5,-166.25"/>
<text text-anchor="middle" x="276.5" y="-148.95" font-family="Helvetica,sans-Serif" font-size="14.00">7_G &lt;= 0.5</text>
<text text-anchor="middle" x="276.5" y="-131.7" font-family="Helvetica,sans-Serif" font-size="14.00">entropy = 0.985</text>
<text text-anchor="middle" x="276.5" y="-114.45" font-family="Helvetica,sans-Serif" font-size="14.00">samples = 5383</text>
<text text-anchor="middle" x="276.5" y="-97.2" font-family="Helvetica,sans-Serif" font-size="14.00">value = [3620, 4848]</text>
<text text-anchor="middle" x="276.5" y="-79.95" font-family="Helvetica,sans-Serif" font-size="14.00">class = Plant</text>
</g>
<!-- 2&#45;&gt;6494 -->
<g id="edge6" class="edge">
<title>2&#45;&gt;6494</title>
<path fill="none" stroke="black" d="M276.5,-202.07C276.5,-194.17 276.5,-185.88 276.5,-177.73"/>
<polygon fill="black" stroke="black" points="280,-177.87 276.5,-167.87 273,-177.87 280,-177.87"/>
</g>
<!-- 4 -->
<g id="node5" class="node">
<title>4</title>
<path fill="#c0c0c0" stroke="black" d="M66.5,-36C66.5,-36 36.5,-36 36.5,-36 30.5,-36 24.5,-30 24.5,-24 24.5,-24 24.5,-12 24.5,-12 24.5,-6 30.5,0 36.5,0 36.5,0 66.5,0 66.5,0 72.5,0 78.5,-6 78.5,-12 78.5,-12 78.5,-24 78.5,-24 78.5,-30 72.5,-36 66.5,-36"/>
<text text-anchor="middle" x="51.5" y="-13.32" font-family="Helvetica,sans-Serif" font-size="14.00">(...)</text>
</g>
<!-- 3&#45;&gt;4 -->
<g id="edge4" class="edge">
<title>3&#45;&gt;4</title>
<path fill="none" stroke="black" d="M70.66,-71.75C67.56,-63.22 64.42,-54.57 61.6,-46.8"/>
<polygon fill="black" stroke="black" points="64.96,-45.8 58.25,-37.6 58.38,-48.19 64.96,-45.8"/>
</g>
<!-- 4847 -->
<g id="node6" class="node">
<title>4847</title>
<path fill="#c0c0c0" stroke="black" d="M138.5,-36C138.5,-36 108.5,-36 108.5,-36 102.5,-36 96.5,-30 96.5,-24 96.5,-24 96.5,-12 96.5,-12 96.5,-6 102.5,0 108.5,0 108.5,0 138.5,0 138.5,0 144.5,0 150.5,-6 150.5,-12 150.5,-12 150.5,-24 150.5,-24 150.5,-30 144.5,-36 138.5,-36"/>
<text text-anchor="middle" x="123.5" y="-13.32" font-family="Helvetica,sans-Serif" font-size="14.00">(...)</text>
</g>
<!-- 3&#45;&gt;4847 -->
<g id="edge5" class="edge">
<title>3&#45;&gt;4847</title>
<path fill="none" stroke="black" d="M104.34,-71.75C107.44,-63.22 110.58,-54.57 113.4,-46.8"/>
<polygon fill="black" stroke="black" points="116.62,-48.19 116.75,-37.6 110.04,-45.8 116.62,-48.19"/>
</g>
<!-- 6495 -->
<g id="node8" class="node">
<title>6495</title>
<path fill="#c0c0c0" stroke="black" d="M257.5,-36C257.5,-36 227.5,-36 227.5,-36 221.5,-36 215.5,-30 215.5,-24 215.5,-24 215.5,-12 215.5,-12 215.5,-6 221.5,0 227.5,0 227.5,0 257.5,0 257.5,0 263.5,0 269.5,-6 269.5,-12 269.5,-12 269.5,-24 269.5,-24 269.5,-30 263.5,-36 257.5,-36"/>
<text text-anchor="middle" x="242.5" y="-13.32" font-family="Helvetica,sans-Serif" font-size="14.00">(...)</text>
</g>
<!-- 6494&#45;&gt;6495 -->
<g id="edge7" class="edge">
<title>6494&#45;&gt;6495</title>
<path fill="none" stroke="black" d="M260.6,-71.75C257.67,-63.22 254.7,-54.57 252.03,-46.8"/>
<polygon fill="black" stroke="black" points="255.44,-45.93 248.88,-37.6 248.82,-48.2 255.44,-45.93"/>
</g>
<!-- 8210 -->
<g id="node9" class="node">
<title>8210</title>
<path fill="#c0c0c0" stroke="black" d="M329.5,-36C329.5,-36 299.5,-36 299.5,-36 293.5,-36 287.5,-30 287.5,-24 287.5,-24 287.5,-12 287.5,-12 287.5,-6 293.5,0 299.5,0 299.5,0 329.5,0 329.5,0 335.5,0 341.5,-6 341.5,-12 341.5,-12 341.5,-24 341.5,-24 341.5,-30 335.5,-36 329.5,-36"/>
<text text-anchor="middle" x="314.5" y="-13.32" font-family="Helvetica,sans-Serif" font-size="14.00">(...)</text>
</g>
<!-- 6494&#45;&gt;8210 -->
<g id="edge8" class="edge">
<title>6494&#45;&gt;8210</title>
<path fill="none" stroke="black" d="M294.28,-71.75C297.55,-63.22 300.87,-54.57 303.84,-46.8"/>
<polygon fill="black" stroke="black" points="307.06,-48.18 307.38,-37.59 300.53,-45.67 307.06,-48.18"/>
</g>
<!-- 8860 -->
<g id="node11" class="node">
<title>8860</title>
<path fill="#f4cbad" stroke="black" d="M531.5,-166.25C531.5,-166.25 389.5,-166.25 389.5,-166.25 383.5,-166.25 377.5,-160.25 377.5,-154.25 377.5,-154.25 377.5,-84 377.5,-84 377.5,-78 383.5,-72 389.5,-72 389.5,-72 531.5,-72 531.5,-72 537.5,-72 543.5,-78 543.5,-84 543.5,-84 543.5,-154.25 543.5,-154.25 543.5,-160.25 537.5,-166.25 531.5,-166.25"/>
<text text-anchor="middle" x="460.5" y="-148.95" font-family="Helvetica,sans-Serif" font-size="14.00">6_G &lt;= 0.5</text>
<text text-anchor="middle" x="460.5" y="-131.7" font-family="Helvetica,sans-Serif" font-size="14.00">entropy = 0.95</text>
<text text-anchor="middle" x="460.5" y="-114.45" font-family="Helvetica,sans-Serif" font-size="14.00">samples = 5829</text>
<text text-anchor="middle" x="460.5" y="-97.2" font-family="Helvetica,sans-Serif" font-size="14.00">value = [5849, 3418]</text>
<text text-anchor="middle" x="460.5" y="-79.95" font-family="Helvetica,sans-Serif" font-size="14.00">class = Animal</text>
</g>
<!-- 8859&#45;&gt;8860 -->
<g id="edge10" class="edge">
<title>8859&#45;&gt;8860</title>
<path fill="none" stroke="black" d="M514.81,-202.07C509.16,-193.54 503.2,-184.54 497.38,-175.77"/>
<polygon fill="black" stroke="black" points="500.42,-174.02 491.98,-167.62 494.59,-177.89 500.42,-174.02"/>
</g>
<!-- 11589 -->
<g id="node14" class="node">
<title>11589</title>
<path fill="#efb185" stroke="black" d="M707,-166.25C707,-166.25 574,-166.25 574,-166.25 568,-166.25 562,-160.25 562,-154.25 562,-154.25 562,-84 562,-84 562,-78 568,-72 574,-72 574,-72 707,-72 707,-72 713,-72 719,-78 719,-84 719,-84 719,-154.25 719,-154.25 719,-160.25 713,-166.25 707,-166.25"/>
<text text-anchor="middle" x="640.5" y="-148.95" font-family="Helvetica,sans-Serif" font-size="14.00">4_G &lt;= 0.5</text>
<text text-anchor="middle" x="640.5" y="-131.7" font-family="Helvetica,sans-Serif" font-size="14.00">entropy = 0.852</text>
<text text-anchor="middle" x="640.5" y="-114.45" font-family="Helvetica,sans-Serif" font-size="14.00">samples = 1843</text>
<text text-anchor="middle" x="640.5" y="-97.2" font-family="Helvetica,sans-Serif" font-size="14.00">value = [2091, 803]</text>
<text text-anchor="middle" x="640.5" y="-79.95" font-family="Helvetica,sans-Serif" font-size="14.00">class = Animal</text>
</g>
<!-- 8859&#45;&gt;11589 -->
<g id="edge13" class="edge">
<title>8859&#45;&gt;11589</title>
<path fill="none" stroke="black" d="M579.8,-202.07C586.19,-193.45 592.92,-184.35 599.49,-175.49"/>
<polygon fill="black" stroke="black" points="602.21,-177.69 605.35,-167.57 596.59,-173.53 602.21,-177.69"/>
</g>
<!-- 8861 -->
<g id="node12" class="node">
<title>8861</title>
<path fill="#c0c0c0" stroke="black" d="M421.5,-36C421.5,-36 391.5,-36 391.5,-36 385.5,-36 379.5,-30 379.5,-24 379.5,-24 379.5,-12 379.5,-12 379.5,-6 385.5,0 391.5,0 391.5,0 421.5,0 421.5,0 427.5,0 433.5,-6 433.5,-12 433.5,-12 433.5,-24 433.5,-24 433.5,-30 427.5,-36 421.5,-36"/>
<text text-anchor="middle" x="406.5" y="-13.32" font-family="Helvetica,sans-Serif" font-size="14.00">(...)</text>
</g>
<!-- 8860&#45;&gt;8861 -->
<g id="edge11" class="edge">
<title>8860&#45;&gt;8861</title>
<path fill="none" stroke="black" d="M435.24,-71.75C430.48,-63.03 425.66,-54.16 421.35,-46.26"/>
<polygon fill="black" stroke="black" points="424.44,-44.61 416.58,-37.5 418.29,-47.96 424.44,-44.61"/>
</g>
<!-- 10842 -->
<g id="node13" class="node">
<title>10842</title>
<path fill="#c0c0c0" stroke="black" d="M493.5,-36C493.5,-36 463.5,-36 463.5,-36 457.5,-36 451.5,-30 451.5,-24 451.5,-24 451.5,-12 451.5,-12 451.5,-6 457.5,0 463.5,0 463.5,0 493.5,0 493.5,0 499.5,0 505.5,-6 505.5,-12 505.5,-12 505.5,-24 505.5,-24 505.5,-30 499.5,-36 493.5,-36"/>
<text text-anchor="middle" x="478.5" y="-13.32" font-family="Helvetica,sans-Serif" font-size="14.00">(...)</text>
</g>
<!-- 8860&#45;&gt;10842 -->
<g id="edge12" class="edge">
<title>8860&#45;&gt;10842</title>
<path fill="none" stroke="black" d="M468.92,-71.75C470.43,-63.42 471.97,-54.97 473.35,-47.34"/>
<polygon fill="black" stroke="black" points="476.77,-48.13 475.11,-37.66 469.88,-46.88 476.77,-48.13"/>
</g>
<!-- 11590 -->
<g id="node15" class="node">
<title>11590</title>
<path fill="#c0c0c0" stroke="black" d="M601.5,-36C601.5,-36 571.5,-36 571.5,-36 565.5,-36 559.5,-30 559.5,-24 559.5,-24 559.5,-12 559.5,-12 559.5,-6 565.5,0 571.5,0 571.5,0 601.5,0 601.5,0 607.5,0 613.5,-6 613.5,-12 613.5,-12 613.5,-24 613.5,-24 613.5,-30 607.5,-36 601.5,-36"/>
<text text-anchor="middle" x="586.5" y="-13.32" font-family="Helvetica,sans-Serif" font-size="14.00">(...)</text>
</g>
<!-- 11589&#45;&gt;11590 -->
<g id="edge14" class="edge">
<title>11589&#45;&gt;11590</title>
<path fill="none" stroke="black" d="M615.24,-71.75C610.48,-63.03 605.66,-54.16 601.35,-46.26"/>
<polygon fill="black" stroke="black" points="604.44,-44.61 596.58,-37.5 598.29,-47.96 604.44,-44.61"/>
</g>
<!-- 12209 -->
<g id="node16" class="node">
<title>12209</title>
<path fill="#c0c0c0" stroke="black" d="M673.5,-36C673.5,-36 643.5,-36 643.5,-36 637.5,-36 631.5,-30 631.5,-24 631.5,-24 631.5,-12 631.5,-12 631.5,-6 637.5,0 643.5,0 643.5,0 673.5,0 673.5,0 679.5,0 685.5,-6 685.5,-12 685.5,-12 685.5,-24 685.5,-24 685.5,-30 679.5,-36 673.5,-36"/>
<text text-anchor="middle" x="658.5" y="-13.32" font-family="Helvetica,sans-Serif" font-size="14.00">(...)</text>
</g>
<!-- 11589&#45;&gt;12209 -->
<g id="edge15" class="edge">
<title>11589&#45;&gt;12209</title>
<path fill="none" stroke="black" d="M648.92,-71.75C650.43,-63.42 651.97,-54.97 653.35,-47.34"/>
<polygon fill="black" stroke="black" points="656.77,-48.13 655.11,-37.66 649.88,-46.88 656.77,-48.13"/>
</g>
<!-- 12453 -->
<g id="node18" class="node">
<title>12453</title>
<path fill="#daecfa" stroke="black" d="M981.5,-296.5C981.5,-296.5 839.5,-296.5 839.5,-296.5 833.5,-296.5 827.5,-290.5 827.5,-284.5 827.5,-284.5 827.5,-214.25 827.5,-214.25 827.5,-208.25 833.5,-202.25 839.5,-202.25 839.5,-202.25 981.5,-202.25 981.5,-202.25 987.5,-202.25 993.5,-208.25 993.5,-214.25 993.5,-214.25 993.5,-284.5 993.5,-284.5 993.5,-290.5 987.5,-296.5 981.5,-296.5"/>
<text text-anchor="middle" x="910.5" y="-279.2" font-family="Helvetica,sans-Serif" font-size="14.00">12_G &lt;= 0.5</text>
<text text-anchor="middle" x="910.5" y="-261.95" font-family="Helvetica,sans-Serif" font-size="14.00">entropy = 0.992</text>
<text text-anchor="middle" x="910.5" y="-244.7" font-family="Helvetica,sans-Serif" font-size="14.00">samples = 8596</text>
<text text-anchor="middle" x="910.5" y="-227.45" font-family="Helvetica,sans-Serif" font-size="14.00">value = [6100, 7524]</text>
<text text-anchor="middle" x="910.5" y="-210.2" font-family="Helvetica,sans-Serif" font-size="14.00">class = Plant</text>
</g>
<!-- 12452&#45;&gt;12453 -->
<g id="edge17" class="edge">
<title>12452&#45;&gt;12453</title>
<path fill="none" stroke="black" d="M910.5,-332.32C910.5,-324.42 910.5,-316.13 910.5,-307.98"/>
<polygon fill="black" stroke="black" points="914,-308.12 910.5,-298.12 907,-308.12 914,-308.12"/>
</g>
<!-- 15878 -->
<g id="node25" class="node">
<title>15878</title>
<path fill="#72b9ec" stroke="black" d="M1255.5,-296.5C1255.5,-296.5 1113.5,-296.5 1113.5,-296.5 1107.5,-296.5 1101.5,-290.5 1101.5,-284.5 1101.5,-284.5 1101.5,-214.25 1101.5,-214.25 1101.5,-208.25 1107.5,-202.25 1113.5,-202.25 1113.5,-202.25 1255.5,-202.25 1255.5,-202.25 1261.5,-202.25 1267.5,-208.25 1267.5,-214.25 1267.5,-214.25 1267.5,-284.5 1267.5,-284.5 1267.5,-290.5 1261.5,-296.5 1255.5,-296.5"/>
<text text-anchor="middle" x="1184.5" y="-279.2" font-family="Helvetica,sans-Serif" font-size="14.00">22_U &lt;= 0.5</text>
<text text-anchor="middle" x="1184.5" y="-261.95" font-family="Helvetica,sans-Serif" font-size="14.00">entropy = 0.767</text>
<text text-anchor="middle" x="1184.5" y="-244.7" font-family="Helvetica,sans-Serif" font-size="14.00">samples = 3195</text>
<text text-anchor="middle" x="1184.5" y="-227.45" font-family="Helvetica,sans-Serif" font-size="14.00">value = [1117, 3873]</text>
<text text-anchor="middle" x="1184.5" y="-210.2" font-family="Helvetica,sans-Serif" font-size="14.00">class = Plant</text>
</g>
<!-- 12452&#45;&gt;15878 -->
<g id="edge24" class="edge">
<title>12452&#45;&gt;15878</title>
<path fill="none" stroke="black" d="M998.33,-337.52C1028,-323.63 1061.22,-308.08 1091.3,-294"/>
<polygon fill="black" stroke="black" points="1092.42,-297.34 1100,-289.93 1089.45,-291 1092.42,-297.34"/>
</g>
<!-- 12454 -->
<g id="node19" class="node">
<title>12454</title>
<path fill="#e9f4fc" stroke="black" d="M891.5,-166.25C891.5,-166.25 749.5,-166.25 749.5,-166.25 743.5,-166.25 737.5,-160.25 737.5,-154.25 737.5,-154.25 737.5,-84 737.5,-84 737.5,-78 743.5,-72 749.5,-72 749.5,-72 891.5,-72 891.5,-72 897.5,-72 903.5,-78 903.5,-84 903.5,-84 903.5,-154.25 903.5,-154.25 903.5,-160.25 897.5,-166.25 891.5,-166.25"/>
<text text-anchor="middle" x="820.5" y="-148.95" font-family="Helvetica,sans-Serif" font-size="14.00">5_U &lt;= 0.5</text>
<text text-anchor="middle" x="820.5" y="-131.7" font-family="Helvetica,sans-Serif" font-size="14.00">entropy = 0.998</text>
<text text-anchor="middle" x="820.5" y="-114.45" font-family="Helvetica,sans-Serif" font-size="14.00">samples = 5682</text>
<text text-anchor="middle" x="820.5" y="-97.2" font-family="Helvetica,sans-Serif" font-size="14.00">value = [4235, 4752]</text>
<text text-anchor="middle" x="820.5" y="-79.95" font-family="Helvetica,sans-Serif" font-size="14.00">class = Plant</text>
</g>
<!-- 12453&#45;&gt;12454 -->
<g id="edge18" class="edge">
<title>12453&#45;&gt;12454</title>
<path fill="none" stroke="black" d="M878.01,-202.07C872.02,-193.54 865.71,-184.54 859.55,-175.77"/>
<polygon fill="black" stroke="black" points="862.42,-173.77 853.81,-167.6 856.69,-177.79 862.42,-173.77"/>
</g>
<!-- 14977 -->
<g id="node22" class="node">
<title>14977</title>
<path fill="#bedff6" stroke="black" d="M1075.5,-166.25C1075.5,-166.25 933.5,-166.25 933.5,-166.25 927.5,-166.25 921.5,-160.25 921.5,-154.25 921.5,-154.25 921.5,-84 921.5,-84 921.5,-78 927.5,-72 933.5,-72 933.5,-72 1075.5,-72 1075.5,-72 1081.5,-72 1087.5,-78 1087.5,-84 1087.5,-84 1087.5,-154.25 1087.5,-154.25 1087.5,-160.25 1081.5,-166.25 1075.5,-166.25"/>
<text text-anchor="middle" x="1004.5" y="-148.95" font-family="Helvetica,sans-Serif" font-size="14.00">15_A &lt;= 0.5</text>
<text text-anchor="middle" x="1004.5" y="-131.7" font-family="Helvetica,sans-Serif" font-size="14.00">entropy = 0.972</text>
<text text-anchor="middle" x="1004.5" y="-114.45" font-family="Helvetica,sans-Serif" font-size="14.00">samples = 2914</text>
<text text-anchor="middle" x="1004.5" y="-97.2" font-family="Helvetica,sans-Serif" font-size="14.00">value = [1865, 2772]</text>
<text text-anchor="middle" x="1004.5" y="-79.95" font-family="Helvetica,sans-Serif" font-size="14.00">class = Plant</text>
</g>
<!-- 12453&#45;&gt;14977 -->
<g id="edge21" class="edge">
<title>12453&#45;&gt;14977</title>
<path fill="none" stroke="black" d="M944.44,-202.07C950.76,-193.45 957.42,-184.35 963.92,-175.49"/>
<polygon fill="black" stroke="black" points="966.63,-177.71 969.72,-167.58 960.98,-173.58 966.63,-177.71"/>
</g>
<!-- 12455 -->
<g id="node20" class="node">
<title>12455</title>
<path fill="#c0c0c0" stroke="black" d="M783.5,-36C783.5,-36 753.5,-36 753.5,-36 747.5,-36 741.5,-30 741.5,-24 741.5,-24 741.5,-12 741.5,-12 741.5,-6 747.5,0 753.5,0 753.5,0 783.5,0 783.5,0 789.5,0 795.5,-6 795.5,-12 795.5,-12 795.5,-24 795.5,-24 795.5,-30 789.5,-36 783.5,-36"/>
<text text-anchor="middle" x="768.5" y="-13.32" font-family="Helvetica,sans-Serif" font-size="14.00">(...)</text>
</g>
<!-- 12454&#45;&gt;12455 -->
<g id="edge19" class="edge">
<title>12454&#45;&gt;12455</title>
<path fill="none" stroke="black" d="M796.17,-71.75C791.6,-63.03 786.95,-54.16 782.8,-46.26"/>
<polygon fill="black" stroke="black" points="785.96,-44.74 778.21,-37.51 779.76,-47.99 785.96,-44.74"/>
</g>
<!-- 14352 -->
<g id="node21" class="node">
<title>14352</title>
<path fill="#c0c0c0" stroke="black" d="M855.5,-36C855.5,-36 825.5,-36 825.5,-36 819.5,-36 813.5,-30 813.5,-24 813.5,-24 813.5,-12 813.5,-12 813.5,-6 819.5,0 825.5,0 825.5,0 855.5,0 855.5,0 861.5,0 867.5,-6 867.5,-12 867.5,-12 867.5,-24 867.5,-24 867.5,-30 861.5,-36 855.5,-36"/>
<text text-anchor="middle" x="840.5" y="-13.32" font-family="Helvetica,sans-Serif" font-size="14.00">(...)</text>
</g>
<!-- 12454&#45;&gt;14352 -->
<g id="edge20" class="edge">
<title>12454&#45;&gt;14352</title>
<path fill="none" stroke="black" d="M829.86,-71.75C831.54,-63.42 833.24,-54.97 834.78,-47.34"/>
<polygon fill="black" stroke="black" points="838.19,-48.15 836.74,-37.66 831.33,-46.77 838.19,-48.15"/>
</g>
<!-- 14978 -->
<g id="node23" class="node">
<title>14978</title>
<path fill="#c0c0c0" stroke="black" d="M965.5,-36C965.5,-36 935.5,-36 935.5,-36 929.5,-36 923.5,-30 923.5,-24 923.5,-24 923.5,-12 923.5,-12 923.5,-6 929.5,0 935.5,0 935.5,0 965.5,0 965.5,0 971.5,0 977.5,-6 977.5,-12 977.5,-12 977.5,-24 977.5,-24 977.5,-30 971.5,-36 965.5,-36"/>
<text text-anchor="middle" x="950.5" y="-13.32" font-family="Helvetica,sans-Serif" font-size="14.00">(...)</text>
</g>
<!-- 14977&#45;&gt;14978 -->
<g id="edge22" class="edge">
<title>14977&#45;&gt;14978</title>
<path fill="none" stroke="black" d="M979.24,-71.75C974.48,-63.03 969.66,-54.16 965.35,-46.26"/>
<polygon fill="black" stroke="black" points="968.44,-44.61 960.58,-37.5 962.29,-47.96 968.44,-44.61"/>
</g>
<!-- 15697 -->
<g id="node24" class="node">
<title>15697</title>
<path fill="#c0c0c0" stroke="black" d="M1037.5,-36C1037.5,-36 1007.5,-36 1007.5,-36 1001.5,-36 995.5,-30 995.5,-24 995.5,-24 995.5,-12 995.5,-12 995.5,-6 1001.5,0 1007.5,0 1007.5,0 1037.5,0 1037.5,0 1043.5,0 1049.5,-6 1049.5,-12 1049.5,-12 1049.5,-24 1049.5,-24 1049.5,-30 1043.5,-36 1037.5,-36"/>
<text text-anchor="middle" x="1022.5" y="-13.32" font-family="Helvetica,sans-Serif" font-size="14.00">(...)</text>
</g>
<!-- 14977&#45;&gt;15697 -->
<g id="edge23" class="edge">
<title>14977&#45;&gt;15697</title>
<path fill="none" stroke="black" d="M1012.92,-71.75C1014.43,-63.42 1015.97,-54.97 1017.35,-47.34"/>
<polygon fill="black" stroke="black" points="1020.77,-48.13 1019.11,-37.66 1013.88,-46.88 1020.77,-48.13"/>
</g>
<!-- 15879 -->
<g id="node26" class="node">
<title>15879</title>
<path fill="#66b3eb" stroke="black" d="M1251,-166.25C1251,-166.25 1118,-166.25 1118,-166.25 1112,-166.25 1106,-160.25 1106,-154.25 1106,-154.25 1106,-84 1106,-84 1106,-78 1112,-72 1118,-72 1118,-72 1251,-72 1251,-72 1257,-72 1263,-78 1263,-84 1263,-84 1263,-154.25 1263,-154.25 1263,-160.25 1257,-166.25 1251,-166.25"/>
<text text-anchor="middle" x="1184.5" y="-148.95" font-family="Helvetica,sans-Serif" font-size="14.00">15_C &lt;= 0.5</text>
<text text-anchor="middle" x="1184.5" y="-131.7" font-family="Helvetica,sans-Serif" font-size="14.00">entropy = 0.689</text>
<text text-anchor="middle" x="1184.5" y="-114.45" font-family="Helvetica,sans-Serif" font-size="14.00">samples = 2934</text>
<text text-anchor="middle" x="1184.5" y="-97.2" font-family="Helvetica,sans-Serif" font-size="14.00">value = [842, 3732]</text>
<text text-anchor="middle" x="1184.5" y="-79.95" font-family="Helvetica,sans-Serif" font-size="14.00">class = Plant</text>
</g>
<!-- 15878&#45;&gt;15879 -->
<g id="edge25" class="edge">
<title>15878&#45;&gt;15879</title>
<path fill="none" stroke="black" d="M1184.5,-202.07C1184.5,-194.17 1184.5,-185.88 1184.5,-177.73"/>
<polygon fill="black" stroke="black" points="1188,-177.87 1184.5,-167.87 1181,-177.87 1188,-177.87"/>
</g>
<!-- 16784 -->
<g id="node29" class="node">
<title>16784</title>
<path fill="#f2c29f" stroke="black" d="M1417.5,-166.25C1417.5,-166.25 1293.5,-166.25 1293.5,-166.25 1287.5,-166.25 1281.5,-160.25 1281.5,-154.25 1281.5,-154.25 1281.5,-84 1281.5,-84 1281.5,-78 1287.5,-72 1293.5,-72 1293.5,-72 1417.5,-72 1417.5,-72 1423.5,-72 1429.5,-78 1429.5,-84 1429.5,-84 1429.5,-154.25 1429.5,-154.25 1429.5,-160.25 1423.5,-166.25 1417.5,-166.25"/>
<text text-anchor="middle" x="1355.5" y="-148.95" font-family="Helvetica,sans-Serif" font-size="14.00">12_A &lt;= 0.5</text>
<text text-anchor="middle" x="1355.5" y="-131.7" font-family="Helvetica,sans-Serif" font-size="14.00">entropy = 0.924</text>
<text text-anchor="middle" x="1355.5" y="-114.45" font-family="Helvetica,sans-Serif" font-size="14.00">samples = 261</text>
<text text-anchor="middle" x="1355.5" y="-97.2" font-family="Helvetica,sans-Serif" font-size="14.00">value = [275, 141]</text>
<text text-anchor="middle" x="1355.5" y="-79.95" font-family="Helvetica,sans-Serif" font-size="14.00">class = Animal</text>
</g>
<!-- 15878&#45;&gt;16784 -->
<g id="edge28" class="edge">
<title>15878&#45;&gt;16784</title>
<path fill="none" stroke="black" d="M1246.23,-202.07C1258.63,-192.78 1271.75,-182.94 1284.43,-173.43"/>
<polygon fill="black" stroke="black" points="1286.46,-176.28 1292.36,-167.48 1282.26,-170.68 1286.46,-176.28"/>
</g>
<!-- 15880 -->
<g id="node27" class="node">
<title>15880</title>
<path fill="#c0c0c0" stroke="black" d="M1158.5,-36C1158.5,-36 1128.5,-36 1128.5,-36 1122.5,-36 1116.5,-30 1116.5,-24 1116.5,-24 1116.5,-12 1116.5,-12 1116.5,-6 1122.5,0 1128.5,0 1128.5,0 1158.5,0 1158.5,0 1164.5,0 1170.5,-6 1170.5,-12 1170.5,-12 1170.5,-24 1170.5,-24 1170.5,-30 1164.5,-36 1158.5,-36"/>
<text text-anchor="middle" x="1143.5" y="-13.32" font-family="Helvetica,sans-Serif" font-size="14.00">(...)</text>
</g>
<!-- 15879&#45;&gt;15880 -->
<g id="edge26" class="edge">
<title>15879&#45;&gt;15880</title>
<path fill="none" stroke="black" d="M1165.32,-71.75C1161.79,-63.22 1158.21,-54.57 1155,-46.8"/>
<polygon fill="black" stroke="black" points="1158.24,-45.47 1151.18,-37.57 1151.77,-48.15 1158.24,-45.47"/>
</g>
<!-- 16577 -->
<g id="node28" class="node">
<title>16577</title>
<path fill="#c0c0c0" stroke="black" d="M1230.5,-36C1230.5,-36 1200.5,-36 1200.5,-36 1194.5,-36 1188.5,-30 1188.5,-24 1188.5,-24 1188.5,-12 1188.5,-12 1188.5,-6 1194.5,0 1200.5,0 1200.5,0 1230.5,0 1230.5,0 1236.5,0 1242.5,-6 1242.5,-12 1242.5,-12 1242.5,-24 1242.5,-24 1242.5,-30 1236.5,-36 1230.5,-36"/>
<text text-anchor="middle" x="1215.5" y="-13.32" font-family="Helvetica,sans-Serif" font-size="14.00">(...)</text>
</g>
<!-- 15879&#45;&gt;16577 -->
<g id="edge27" class="edge">
<title>15879&#45;&gt;16577</title>
<path fill="none" stroke="black" d="M1199,-71.75C1201.64,-63.32 1204.31,-54.77 1206.72,-47.07"/>
<polygon fill="black" stroke="black" points="1210.03,-48.21 1209.68,-37.62 1203.35,-46.12 1210.03,-48.21"/>
</g>
<!-- 16785 -->
<g id="node30" class="node">
<title>16785</title>
<path fill="#c0c0c0" stroke="black" d="M1334.5,-36C1334.5,-36 1304.5,-36 1304.5,-36 1298.5,-36 1292.5,-30 1292.5,-24 1292.5,-24 1292.5,-12 1292.5,-12 1292.5,-6 1298.5,0 1304.5,0 1304.5,0 1334.5,0 1334.5,0 1340.5,0 1346.5,-6 1346.5,-12 1346.5,-12 1346.5,-24 1346.5,-24 1346.5,-30 1340.5,-36 1334.5,-36"/>
<text text-anchor="middle" x="1319.5" y="-13.32" font-family="Helvetica,sans-Serif" font-size="14.00">(...)</text>
</g>
<!-- 16784&#45;&gt;16785 -->
<g id="edge29" class="edge">
<title>16784&#45;&gt;16785</title>
<path fill="none" stroke="black" d="M1338.66,-71.75C1335.56,-63.22 1332.42,-54.57 1329.6,-46.8"/>
<polygon fill="black" stroke="black" points="1332.96,-45.8 1326.25,-37.6 1326.38,-48.19 1332.96,-45.8"/>
</g>
<!-- 16868 -->
<g id="node31" class="node">
<title>16868</title>
<path fill="#c0c0c0" stroke="black" d="M1406.5,-36C1406.5,-36 1376.5,-36 1376.5,-36 1370.5,-36 1364.5,-30 1364.5,-24 1364.5,-24 1364.5,-12 1364.5,-12 1364.5,-6 1370.5,0 1376.5,0 1376.5,0 1406.5,0 1406.5,0 1412.5,0 1418.5,-6 1418.5,-12 1418.5,-12 1418.5,-24 1418.5,-24 1418.5,-30 1412.5,-36 1406.5,-36"/>
<text text-anchor="middle" x="1391.5" y="-13.32" font-family="Helvetica,sans-Serif" font-size="14.00">(...)</text>
</g>
<!-- 16784&#45;&gt;16868 -->
<g id="edge30" class="edge">
<title>16784&#45;&gt;16868</title>
<path fill="none" stroke="black" d="M1372.34,-71.75C1375.44,-63.22 1378.58,-54.57 1381.4,-46.8"/>
<polygon fill="black" stroke="black" points="1384.62,-48.19 1384.75,-37.6 1378.04,-45.8 1384.62,-48.19"/>
</g>
</g>
</svg>
