<?xml version="1.0" encoding="UTF-8" standalone="no"?>
<!DOCTYPE svg PUBLIC "-//W3C//DTD SVG 1.1//EN"
 "http://www.w3.org/Graphics/SVG/1.1/DTD/svg11.dtd">
<!-- Generated by graphviz version 12.0.0 (20240803.0821)
 -->
<!-- Title: Tree Pages: 1 -->
<svg width="1428pt" height="565pt"
 viewBox="0.00 0.00 1428.00 565.00" xmlns="http://www.w3.org/2000/svg" xmlns:xlink="http://www.w3.org/1999/xlink">
<g id="graph0" class="graph" transform="scale(1 1) rotate(0) translate(4 561)">
<title>Tree</title>
<polygon fill="white" stroke="none" points="-4,4 -4,-561 1424,-561 1424,4 -4,4"/>
<!-- 0 -->
<g id="node1" class="node">
<title>0</title>
<path fill="#fefeff" stroke="black" d="M808,-557C808,-557 648,-557 648,-557 642,-557 636,-551 636,-545 636,-545 636,-474.75 636,-474.75 636,-468.75 642,-462.75 648,-462.75 648,-462.75 808,-462.75 808,-462.75 814,-462.75 820,-468.75 820,-474.75 820,-474.75 820,-545 820,-545 820,-551 814,-557 808,-557"/>
<text text-anchor="middle" x="728" y="-539.7" font-family="Helvetica,sans-Serif" font-size="14.00">22_U &lt;= 0.5</text>
<text text-anchor="middle" x="728" y="-522.45" font-family="Helvetica,sans-Serif" font-size="14.00">entropy = 1.0</text>
<text text-anchor="middle" x="728" y="-505.2" font-family="Helvetica,sans-Serif" font-size="14.00">samples = 38111</text>
<text text-anchor="middle" x="728" y="-487.95" font-family="Helvetica,sans-Serif" font-size="14.00">value = [30069, 30276]</text>
<text text-anchor="middle" x="728" y="-470.7" font-family="Helvetica,sans-Serif" font-size="14.00">class = Plant</text>
</g>
<!-- 1 -->
<g id="node2" class="node">
<title>1</title>
<path fill="#daedfa" stroke="black" d="M630,-426.75C630,-426.75 470,-426.75 470,-426.75 464,-426.75 458,-420.75 458,-414.75 458,-414.75 458,-344.5 458,-344.5 458,-338.5 464,-332.5 470,-332.5 470,-332.5 630,-332.5 630,-332.5 636,-332.5 642,-338.5 642,-344.5 642,-344.5 642,-414.75 642,-414.75 642,-420.75 636,-426.75 630,-426.75"/>
<text text-anchor="middle" x="550" y="-409.45" font-family="Helvetica,sans-Serif" font-size="14.00">1_U &lt;= 0.5</text>
<text text-anchor="middle" x="550" y="-392.2" font-family="Helvetica,sans-Serif" font-size="14.00">entropy = 0.993</text>
<text text-anchor="middle" x="550" y="-374.95" font-family="Helvetica,sans-Serif" font-size="14.00">samples = 33011</text>
<text text-anchor="middle" x="550" y="-357.7" font-family="Helvetica,sans-Serif" font-size="14.00">value = [23512, 28827]</text>
<text text-anchor="middle" x="550" y="-340.45" font-family="Helvetica,sans-Serif" font-size="14.00">class = Plant</text>
</g>
<!-- 0&#45;&gt;1 -->
<g id="edge1" class="edge">
<title>0&#45;&gt;1</title>
<path fill="none" stroke="black" d="M663.49,-462.39C650.55,-453.07 636.87,-443.22 623.65,-433.69"/>
<polygon fill="black" stroke="black" points="625.98,-431.06 615.82,-428.05 621.89,-436.73 625.98,-431.06"/>
<text text-anchor="middle" x="618.6" y="-447.17" font-family="Helvetica,sans-Serif" font-size="14.00">True</text>
</g>
<!-- 14852 -->
<g id="node17" class="node">
<title>14852</title>
<path fill="#eb9d65" stroke="black" d="M983,-426.75C983,-426.75 841,-426.75 841,-426.75 835,-426.75 829,-420.75 829,-414.75 829,-414.75 829,-344.5 829,-344.5 829,-338.5 835,-332.5 841,-332.5 841,-332.5 983,-332.5 983,-332.5 989,-332.5 995,-338.5 995,-344.5 995,-344.5 995,-414.75 995,-414.75 995,-420.75 989,-426.75 983,-426.75"/>
<text text-anchor="middle" x="912" y="-409.45" font-family="Helvetica,sans-Serif" font-size="14.00">19_G &lt;= 0.5</text>
<text text-anchor="middle" x="912" y="-392.2" font-family="Helvetica,sans-Serif" font-size="14.00">entropy = 0.682</text>
<text text-anchor="middle" x="912" y="-374.95" font-family="Helvetica,sans-Serif" font-size="14.00">samples = 5100</text>
<text text-anchor="middle" x="912" y="-357.7" font-family="Helvetica,sans-Serif" font-size="14.00">value = [6557, 1449]</text>
<text text-anchor="middle" x="912" y="-340.45" font-family="Helvetica,sans-Serif" font-size="14.00">class = Animal</text>
</g>
<!-- 0&#45;&gt;14852 -->
<g id="edge16" class="edge">
<title>0&#45;&gt;14852</title>
<path fill="none" stroke="black" d="M794.69,-462.39C808.06,-453.07 822.2,-443.22 835.86,-433.69"/>
<polygon fill="black" stroke="black" points="837.79,-436.62 843.99,-428.03 833.78,-430.88 837.79,-436.62"/>
<text text-anchor="middle" x="840.84" y="-447.1" font-family="Helvetica,sans-Serif" font-size="14.00">False</text>
</g>
<!-- 2 -->
<g id="node3" class="node">
<title>2</title>
<path fill="#fbece1" stroke="black" d="M347,-296.5C347,-296.5 187,-296.5 187,-296.5 181,-296.5 175,-290.5 175,-284.5 175,-284.5 175,-214.25 175,-214.25 175,-208.25 181,-202.25 187,-202.25 187,-202.25 347,-202.25 347,-202.25 353,-202.25 359,-208.25 359,-214.25 359,-214.25 359,-284.5 359,-284.5 359,-290.5 353,-296.5 347,-296.5"/>
<text text-anchor="middle" x="267" y="-279.2" font-family="Helvetica,sans-Serif" font-size="14.00">18_U &lt;= 0.5</text>
<text text-anchor="middle" x="267" y="-261.95" font-family="Helvetica,sans-Serif" font-size="14.00">entropy = 0.995</text>
<text text-anchor="middle" x="267" y="-244.7" font-family="Helvetica,sans-Serif" font-size="14.00">samples = 15295</text>
<text text-anchor="middle" x="267" y="-227.45" font-family="Helvetica,sans-Serif" font-size="14.00">value = [13148, 11136]</text>
<text text-anchor="middle" x="267" y="-210.2" font-family="Helvetica,sans-Serif" font-size="14.00">class = Animal</text>
</g>
<!-- 1&#45;&gt;2 -->
<g id="edge2" class="edge">
<title>1&#45;&gt;2</title>
<path fill="none" stroke="black" d="M457.73,-336.81C429.45,-323.99 398.17,-309.82 369.26,-296.72"/>
<polygon fill="black" stroke="black" points="371.08,-293.7 360.53,-292.76 368.19,-300.08 371.08,-293.7"/>
</g>
<!-- 8567 -->
<g id="node10" class="node">
<title>8567</title>
<path fill="#add6f4" stroke="black" d="M630,-296.5C630,-296.5 470,-296.5 470,-296.5 464,-296.5 458,-290.5 458,-284.5 458,-284.5 458,-214.25 458,-214.25 458,-208.25 464,-202.25 470,-202.25 470,-202.25 630,-202.25 630,-202.25 636,-202.25 642,-208.25 642,-214.25 642,-214.25 642,-284.5 642,-284.5 642,-290.5 636,-296.5 630,-296.5"/>
<text text-anchor="middle" x="550" y="-279.2" font-family="Helvetica,sans-Serif" font-size="14.00">22_A &lt;= 0.5</text>
<text text-anchor="middle" x="550" y="-261.95" font-family="Helvetica,sans-Serif" font-size="14.00">entropy = 0.95</text>
<text text-anchor="middle" x="550" y="-244.7" font-family="Helvetica,sans-Serif" font-size="14.00">samples = 17716</text>
<text text-anchor="middle" x="550" y="-227.45" font-family="Helvetica,sans-Serif" font-size="14.00">value = [10364, 17691]</text>
<text text-anchor="middle" x="550" y="-210.2" font-family="Helvetica,sans-Serif" font-size="14.00">class = Plant</text>
</g>
<!-- 1&#45;&gt;8567 -->
<g id="edge9" class="edge">
<title>1&#45;&gt;8567</title>
<path fill="none" stroke="black" d="M550,-332.32C550,-324.42 550,-316.13 550,-307.98"/>
<polygon fill="black" stroke="black" points="553.5,-308.12 550,-298.12 546.5,-308.12 553.5,-308.12"/>
</g>
<!-- 3 -->
<g id="node4" class="node">
<title>3</title>
<path fill="#fef9f6" stroke="black" d="M154,-166.25C154,-166.25 12,-166.25 12,-166.25 6,-166.25 0,-160.25 0,-154.25 0,-154.25 0,-84 0,-84 0,-78 6,-72 12,-72 12,-72 154,-72 154,-72 160,-72 166,-78 166,-84 166,-84 166,-154.25 166,-154.25 166,-160.25 160,-166.25 154,-166.25"/>
<text text-anchor="middle" x="83" y="-148.95" font-family="Helvetica,sans-Serif" font-size="14.00">9_G &lt;= 0.5</text>
<text text-anchor="middle" x="83" y="-131.7" font-family="Helvetica,sans-Serif" font-size="14.00">entropy = 1.0</text>
<text text-anchor="middle" x="83" y="-114.45" font-family="Helvetica,sans-Serif" font-size="14.00">samples = 11343</text>
<text text-anchor="middle" x="83" y="-97.2" font-family="Helvetica,sans-Serif" font-size="14.00">value = [9248, 8833]</text>
<text text-anchor="middle" x="83" y="-79.95" font-family="Helvetica,sans-Serif" font-size="14.00">class = Animal</text>
</g>
<!-- 2&#45;&gt;3 -->
<g id="edge3" class="edge">
<title>2&#45;&gt;3</title>
<path fill="none" stroke="black" d="M200.31,-201.89C186.94,-192.57 172.8,-182.72 159.14,-173.19"/>
<polygon fill="black" stroke="black" points="161.22,-170.38 151.01,-167.53 157.21,-176.12 161.22,-170.38"/>
</g>
<!-- 6300 -->
<g id="node7" class="node">
<title>6300</title>
<path fill="#f4cbae" stroke="black" d="M338,-166.25C338,-166.25 196,-166.25 196,-166.25 190,-166.25 184,-160.25 184,-154.25 184,-154.25 184,-84 184,-84 184,-78 190,-72 196,-72 196,-72 338,-72 338,-72 344,-72 350,-78 350,-84 350,-84 350,-154.25 350,-154.25 350,-160.25 344,-166.25 338,-166.25"/>
<text text-anchor="middle" x="267" y="-148.95" font-family="Helvetica,sans-Serif" font-size="14.00">14_A &lt;= 0.5</text>
<text text-anchor="middle" x="267" y="-131.7" font-family="Helvetica,sans-Serif" font-size="14.00">entropy = 0.952</text>
<text text-anchor="middle" x="267" y="-114.45" font-family="Helvetica,sans-Serif" font-size="14.00">samples = 3952</text>
<text text-anchor="middle" x="267" y="-97.2" font-family="Helvetica,sans-Serif" font-size="14.00">value = [3900, 2303]</text>
<text text-anchor="middle" x="267" y="-79.95" font-family="Helvetica,sans-Serif" font-size="14.00">class = Animal</text>
</g>
<!-- 2&#45;&gt;6300 -->
<g id="edge6" class="edge">
<title>2&#45;&gt;6300</title>
<path fill="none" stroke="black" d="M267,-202.07C267,-194.17 267,-185.88 267,-177.73"/>
<polygon fill="black" stroke="black" points="270.5,-177.87 267,-167.87 263.5,-177.87 270.5,-177.87"/>
</g>
<!-- 4 -->
<g id="node5" class="node">
<title>4</title>
<path fill="#c0c0c0" stroke="black" d="M62,-36C62,-36 32,-36 32,-36 26,-36 20,-30 20,-24 20,-24 20,-12 20,-12 20,-6 26,0 32,0 32,0 62,0 62,0 68,0 74,-6 74,-12 74,-12 74,-24 74,-24 74,-30 68,-36 62,-36"/>
<text text-anchor="middle" x="47" y="-13.32" font-family="Helvetica,sans-Serif" font-size="14.00">(...)</text>
</g>
<!-- 3&#45;&gt;4 -->
<g id="edge4" class="edge">
<title>3&#45;&gt;4</title>
<path fill="none" stroke="black" d="M66.16,-71.75C63.06,-63.22 59.92,-54.57 57.1,-46.8"/>
<polygon fill="black" stroke="black" points="60.46,-45.8 53.75,-37.6 53.88,-48.19 60.46,-45.8"/>
</g>
<!-- 4703 -->
<g id="node6" class="node">
<title>4703</title>
<path fill="#c0c0c0" stroke="black" d="M134,-36C134,-36 104,-36 104,-36 98,-36 92,-30 92,-24 92,-24 92,-12 92,-12 92,-6 98,0 104,0 104,0 134,0 134,0 140,0 146,-6 146,-12 146,-12 146,-24 146,-24 146,-30 140,-36 134,-36"/>
<text text-anchor="middle" x="119" y="-13.32" font-family="Helvetica,sans-Serif" font-size="14.00">(...)</text>
</g>
<!-- 3&#45;&gt;4703 -->
<g id="edge5" class="edge">
<title>3&#45;&gt;4703</title>
<path fill="none" stroke="black" d="M99.84,-71.75C102.94,-63.22 106.08,-54.57 108.9,-46.8"/>
<polygon fill="black" stroke="black" points="112.12,-48.19 112.25,-37.6 105.54,-45.8 112.12,-48.19"/>
</g>
<!-- 6301 -->
<g id="node8" class="node">
<title>6301</title>
<path fill="#c0c0c0" stroke="black" d="M255,-36C255,-36 225,-36 225,-36 219,-36 213,-30 213,-24 213,-24 213,-12 213,-12 213,-6 219,0 225,0 225,0 255,0 255,0 261,0 267,-6 267,-12 267,-12 267,-24 267,-24 267,-30 261,-36 255,-36"/>
<text text-anchor="middle" x="240" y="-13.32" font-family="Helvetica,sans-Serif" font-size="14.00">(...)</text>
</g>
<!-- 6300&#45;&gt;6301 -->
<g id="edge7" class="edge">
<title>6300&#45;&gt;6301</title>
<path fill="none" stroke="black" d="M254.37,-71.75C252.07,-63.32 249.74,-54.77 247.65,-47.07"/>
<polygon fill="black" stroke="black" points="251.08,-46.36 245.08,-37.63 244.33,-48.2 251.08,-46.36"/>
</g>
<!-- 8044 -->
<g id="node9" class="node">
<title>8044</title>
<path fill="#c0c0c0" stroke="black" d="M327,-36C327,-36 297,-36 297,-36 291,-36 285,-30 285,-24 285,-24 285,-12 285,-12 285,-6 291,0 297,0 297,0 327,0 327,0 333,0 339,-6 339,-12 339,-12 339,-24 339,-24 339,-30 333,-36 327,-36"/>
<text text-anchor="middle" x="312" y="-13.32" font-family="Helvetica,sans-Serif" font-size="14.00">(...)</text>
</g>
<!-- 6300&#45;&gt;8044 -->
<g id="edge8" class="edge">
<title>6300&#45;&gt;8044</title>
<path fill="none" stroke="black" d="M288.05,-71.75C291.97,-63.12 295.95,-54.36 299.5,-46.53"/>
<polygon fill="black" stroke="black" points="302.63,-48.1 303.58,-37.55 296.26,-45.21 302.63,-48.1"/>
</g>
<!-- 8568 -->
<g id="node11" class="node">
<title>8568</title>
<path fill="#9acdf2" stroke="black" d="M531.5,-166.25C531.5,-166.25 380.5,-166.25 380.5,-166.25 374.5,-166.25 368.5,-160.25 368.5,-154.25 368.5,-154.25 368.5,-84 368.5,-84 368.5,-78 374.5,-72 380.5,-72 380.5,-72 531.5,-72 531.5,-72 537.5,-72 543.5,-78 543.5,-84 543.5,-84 543.5,-154.25 543.5,-154.25 543.5,-160.25 537.5,-166.25 531.5,-166.25"/>
<text text-anchor="middle" x="456" y="-148.95" font-family="Helvetica,sans-Serif" font-size="14.00">22_G &lt;= 0.5</text>
<text text-anchor="middle" x="456" y="-131.7" font-family="Helvetica,sans-Serif" font-size="14.00">entropy = 0.915</text>
<text text-anchor="middle" x="456" y="-114.45" font-family="Helvetica,sans-Serif" font-size="14.00">samples = 15588</text>
<text text-anchor="middle" x="456" y="-97.2" font-family="Helvetica,sans-Serif" font-size="14.00">value = [8130, 16531]</text>
<text text-anchor="middle" x="456" y="-79.95" font-family="Helvetica,sans-Serif" font-size="14.00">class = Plant</text>
</g>
<!-- 8567&#45;&gt;8568 -->
<g id="edge10" class="edge">
<title>8567&#45;&gt;8568</title>
<path fill="none" stroke="black" d="M516.06,-202.07C509.74,-193.45 503.08,-184.35 496.58,-175.49"/>
<polygon fill="black" stroke="black" points="499.52,-173.58 490.78,-167.58 493.87,-177.71 499.52,-173.58"/>
</g>
<!-- 13939 -->
<g id="node14" class="node">
<title>13939</title>
<path fill="#f3c2a0" stroke="black" d="M716,-166.25C716,-166.25 574,-166.25 574,-166.25 568,-166.25 562,-160.25 562,-154.25 562,-154.25 562,-84 562,-84 562,-78 568,-72 574,-72 574,-72 716,-72 716,-72 722,-72 728,-78 728,-84 728,-84 728,-154.25 728,-154.25 728,-160.25 722,-166.25 716,-166.25"/>
<text text-anchor="middle" x="645" y="-148.95" font-family="Helvetica,sans-Serif" font-size="14.00">19_G &lt;= 0.5</text>
<text text-anchor="middle" x="645" y="-131.7" font-family="Helvetica,sans-Serif" font-size="14.00">entropy = 0.927</text>
<text text-anchor="middle" x="645" y="-114.45" font-family="Helvetica,sans-Serif" font-size="14.00">samples = 2128</text>
<text text-anchor="middle" x="645" y="-97.2" font-family="Helvetica,sans-Serif" font-size="14.00">value = [2234, 1160]</text>
<text text-anchor="middle" x="645" y="-79.95" font-family="Helvetica,sans-Serif" font-size="14.00">class = Animal</text>
</g>
<!-- 8567&#45;&gt;13939 -->
<g id="edge13" class="edge">
<title>8567&#45;&gt;13939</title>
<path fill="none" stroke="black" d="M584.3,-202.07C590.69,-193.45 597.42,-184.35 603.99,-175.49"/>
<polygon fill="black" stroke="black" points="606.71,-177.69 609.85,-167.57 601.09,-173.53 606.71,-177.69"/>
</g>
<!-- 8569 -->
<g id="node12" class="node">
<title>8569</title>
<path fill="#c0c0c0" stroke="black" d="M421,-36C421,-36 391,-36 391,-36 385,-36 379,-30 379,-24 379,-24 379,-12 379,-12 379,-6 385,0 391,0 391,0 421,0 421,0 427,0 433,-6 433,-12 433,-12 433,-24 433,-24 433,-30 427,-36 421,-36"/>
<text text-anchor="middle" x="406" y="-13.32" font-family="Helvetica,sans-Serif" font-size="14.00">(...)</text>
</g>
<!-- 8568&#45;&gt;8569 -->
<g id="edge11" class="edge">
<title>8568&#45;&gt;8569</title>
<path fill="none" stroke="black" d="M432.61,-71.75C428.21,-63.03 423.74,-54.16 419.75,-46.26"/>
<polygon fill="black" stroke="black" points="422.97,-44.88 415.34,-37.52 416.72,-48.03 422.97,-44.88"/>
</g>
<!-- 13122 -->
<g id="node13" class="node">
<title>13122</title>
<path fill="#c0c0c0" stroke="black" d="M493,-36C493,-36 463,-36 463,-36 457,-36 451,-30 451,-24 451,-24 451,-12 451,-12 451,-6 457,0 463,0 463,0 493,0 493,0 499,0 505,-6 505,-12 505,-12 505,-24 505,-24 505,-30 499,-36 493,-36"/>
<text text-anchor="middle" x="478" y="-13.32" font-family="Helvetica,sans-Serif" font-size="14.00">(...)</text>
</g>
<!-- 8568&#45;&gt;13122 -->
<g id="edge12" class="edge">
<title>8568&#45;&gt;13122</title>
<path fill="none" stroke="black" d="M466.29,-71.75C468.14,-63.42 470.02,-54.97 471.71,-47.34"/>
<polygon fill="black" stroke="black" points="475.11,-48.17 473.86,-37.65 468.28,-46.65 475.11,-48.17"/>
</g>
<!-- 13940 -->
<g id="node15" class="node">
<title>13940</title>
<path fill="#c0c0c0" stroke="black" d="M606,-36C606,-36 576,-36 576,-36 570,-36 564,-30 564,-24 564,-24 564,-12 564,-12 564,-6 570,0 576,0 576,0 606,0 606,0 612,0 618,-6 618,-12 618,-12 618,-24 618,-24 618,-30 612,-36 606,-36"/>
<text text-anchor="middle" x="591" y="-13.32" font-family="Helvetica,sans-Serif" font-size="14.00">(...)</text>
</g>
<!-- 13939&#45;&gt;13940 -->
<g id="edge14" class="edge">
<title>13939&#45;&gt;13940</title>
<path fill="none" stroke="black" d="M619.74,-71.75C614.98,-63.03 610.16,-54.16 605.85,-46.26"/>
<polygon fill="black" stroke="black" points="608.94,-44.61 601.08,-37.5 602.79,-47.96 608.94,-44.61"/>
</g>
<!-- 14633 -->
<g id="node16" class="node">
<title>14633</title>
<path fill="#c0c0c0" stroke="black" d="M678,-36C678,-36 648,-36 648,-36 642,-36 636,-30 636,-24 636,-24 636,-12 636,-12 636,-6 642,0 648,0 648,0 678,0 678,0 684,0 690,-6 690,-12 690,-12 690,-24 690,-24 690,-30 684,-36 678,-36"/>
<text text-anchor="middle" x="663" y="-13.32" font-family="Helvetica,sans-Serif" font-size="14.00">(...)</text>
</g>
<!-- 13939&#45;&gt;14633 -->
<g id="edge15" class="edge">
<title>13939&#45;&gt;14633</title>
<path fill="none" stroke="black" d="M653.42,-71.75C654.93,-63.42 656.47,-54.97 657.85,-47.34"/>
<polygon fill="black" stroke="black" points="661.27,-48.13 659.61,-37.66 654.38,-46.88 661.27,-48.13"/>
</g>
<!-- 14853 -->
<g id="node18" class="node">
<title>14853</title>
<path fill="#ea9a60" stroke="black" d="M978.5,-296.5C978.5,-296.5 845.5,-296.5 845.5,-296.5 839.5,-296.5 833.5,-290.5 833.5,-284.5 833.5,-284.5 833.5,-214.25 833.5,-214.25 833.5,-208.25 839.5,-202.25 845.5,-202.25 845.5,-202.25 978.5,-202.25 978.5,-202.25 984.5,-202.25 990.5,-208.25 990.5,-214.25 990.5,-214.25 990.5,-284.5 990.5,-284.5 990.5,-290.5 984.5,-296.5 978.5,-296.5"/>
<text text-anchor="middle" x="912" y="-279.2" font-family="Helvetica,sans-Serif" font-size="14.00">21_U &lt;= 0.5</text>
<text text-anchor="middle" x="912" y="-261.95" font-family="Helvetica,sans-Serif" font-size="14.00">entropy = 0.644</text>
<text text-anchor="middle" x="912" y="-244.7" font-family="Helvetica,sans-Serif" font-size="14.00">samples = 3721</text>
<text text-anchor="middle" x="912" y="-227.45" font-family="Helvetica,sans-Serif" font-size="14.00">value = [4918, 964]</text>
<text text-anchor="middle" x="912" y="-210.2" font-family="Helvetica,sans-Serif" font-size="14.00">class = Animal</text>
</g>
<!-- 14852&#45;&gt;14853 -->
<g id="edge17" class="edge">
<title>14852&#45;&gt;14853</title>
<path fill="none" stroke="black" d="M912,-332.32C912,-324.42 912,-316.13 912,-307.98"/>
<polygon fill="black" stroke="black" points="915.5,-308.12 912,-298.12 908.5,-308.12 915.5,-308.12"/>
</g>
<!-- 16274 -->
<g id="node25" class="node">
<title>16274</title>
<path fill="#eda674" stroke="black" d="M1241.5,-296.5C1241.5,-296.5 1108.5,-296.5 1108.5,-296.5 1102.5,-296.5 1096.5,-290.5 1096.5,-284.5 1096.5,-284.5 1096.5,-214.25 1096.5,-214.25 1096.5,-208.25 1102.5,-202.25 1108.5,-202.25 1108.5,-202.25 1241.5,-202.25 1241.5,-202.25 1247.5,-202.25 1253.5,-208.25 1253.5,-214.25 1253.5,-214.25 1253.5,-284.5 1253.5,-284.5 1253.5,-290.5 1247.5,-296.5 1241.5,-296.5"/>
<text text-anchor="middle" x="1175" y="-279.2" font-family="Helvetica,sans-Serif" font-size="14.00">7_G &lt;= 0.5</text>
<text text-anchor="middle" x="1175" y="-261.95" font-family="Helvetica,sans-Serif" font-size="14.00">entropy = 0.775</text>
<text text-anchor="middle" x="1175" y="-244.7" font-family="Helvetica,sans-Serif" font-size="14.00">samples = 1379</text>
<text text-anchor="middle" x="1175" y="-227.45" font-family="Helvetica,sans-Serif" font-size="14.00">value = [1639, 485]</text>
<text text-anchor="middle" x="1175" y="-210.2" font-family="Helvetica,sans-Serif" font-size="14.00">class = Animal</text>
</g>
<!-- 14852&#45;&gt;16274 -->
<g id="edge24" class="edge">
<title>14852&#45;&gt;16274</title>
<path fill="none" stroke="black" d="M995.21,-338.05C1024.16,-323.93 1056.72,-308.05 1086.11,-293.72"/>
<polygon fill="black" stroke="black" points="1087.54,-296.92 1095,-289.39 1084.48,-290.62 1087.54,-296.92"/>
</g>
<!-- 14854 -->
<g id="node19" class="node">
<title>14854</title>
<path fill="#eb9d64" stroke="black" d="M891.5,-166.25C891.5,-166.25 758.5,-166.25 758.5,-166.25 752.5,-166.25 746.5,-160.25 746.5,-154.25 746.5,-154.25 746.5,-84 746.5,-84 746.5,-78 752.5,-72 758.5,-72 758.5,-72 891.5,-72 891.5,-72 897.5,-72 903.5,-78 903.5,-84 903.5,-84 903.5,-154.25 903.5,-154.25 903.5,-160.25 897.5,-166.25 891.5,-166.25"/>
<text text-anchor="middle" x="825" y="-148.95" font-family="Helvetica,sans-Serif" font-size="14.00">16_U &lt;= 0.5</text>
<text text-anchor="middle" x="825" y="-131.7" font-family="Helvetica,sans-Serif" font-size="14.00">entropy = 0.679</text>
<text text-anchor="middle" x="825" y="-114.45" font-family="Helvetica,sans-Serif" font-size="14.00">samples = 2698</text>
<text text-anchor="middle" x="825" y="-97.2" font-family="Helvetica,sans-Serif" font-size="14.00">value = [3527, 772]</text>
<text text-anchor="middle" x="825" y="-79.95" font-family="Helvetica,sans-Serif" font-size="14.00">class = Animal</text>
</g>
<!-- 14853&#45;&gt;14854 -->
<g id="edge18" class="edge">
<title>14853&#45;&gt;14854</title>
<path fill="none" stroke="black" d="M880.59,-202.07C874.8,-193.54 868.7,-184.54 862.75,-175.77"/>
<polygon fill="black" stroke="black" points="865.72,-173.92 857.21,-167.61 859.93,-177.85 865.72,-173.92"/>
</g>
<!-- 15921 -->
<g id="node22" class="node">
<title>15921</title>
<path fill="#e99254" stroke="black" d="M1066.5,-166.25C1066.5,-166.25 933.5,-166.25 933.5,-166.25 927.5,-166.25 921.5,-160.25 921.5,-154.25 921.5,-154.25 921.5,-84 921.5,-84 921.5,-78 927.5,-72 933.5,-72 933.5,-72 1066.5,-72 1066.5,-72 1072.5,-72 1078.5,-78 1078.5,-84 1078.5,-84 1078.5,-154.25 1078.5,-154.25 1078.5,-160.25 1072.5,-166.25 1066.5,-166.25"/>
<text text-anchor="middle" x="1000" y="-148.95" font-family="Helvetica,sans-Serif" font-size="14.00">12_G &lt;= 0.5</text>
<text text-anchor="middle" x="1000" y="-131.7" font-family="Helvetica,sans-Serif" font-size="14.00">entropy = 0.533</text>
<text text-anchor="middle" x="1000" y="-114.45" font-family="Helvetica,sans-Serif" font-size="14.00">samples = 1023</text>
<text text-anchor="middle" x="1000" y="-97.2" font-family="Helvetica,sans-Serif" font-size="14.00">value = [1391, 192]</text>
<text text-anchor="middle" x="1000" y="-79.95" font-family="Helvetica,sans-Serif" font-size="14.00">class = Animal</text>
</g>
<!-- 14853&#45;&gt;15921 -->
<g id="edge21" class="edge">
<title>14853&#45;&gt;15921</title>
<path fill="none" stroke="black" d="M943.77,-202.07C949.63,-193.54 955.8,-184.54 961.82,-175.77"/>
<polygon fill="black" stroke="black" points="964.65,-177.83 967.42,-167.61 958.88,-173.87 964.65,-177.83"/>
</g>
<!-- 14855 -->
<g id="node20" class="node">
<title>14855</title>
<path fill="#c0c0c0" stroke="black" d="M783,-36C783,-36 753,-36 753,-36 747,-36 741,-30 741,-24 741,-24 741,-12 741,-12 741,-6 747,0 753,0 753,0 783,0 783,0 789,0 795,-6 795,-12 795,-12 795,-24 795,-24 795,-30 789,-36 783,-36"/>
<text text-anchor="middle" x="768" y="-13.32" font-family="Helvetica,sans-Serif" font-size="14.00">(...)</text>
</g>
<!-- 14854&#45;&gt;14855 -->
<g id="edge19" class="edge">
<title>14854&#45;&gt;14855</title>
<path fill="none" stroke="black" d="M798.34,-71.75C793.26,-62.93 788.1,-53.96 783.52,-45.99"/>
<polygon fill="black" stroke="black" points="786.65,-44.41 778.63,-37.48 780.58,-47.9 786.65,-44.41"/>
</g>
<!-- 15596 -->
<g id="node21" class="node">
<title>15596</title>
<path fill="#c0c0c0" stroke="black" d="M855,-36C855,-36 825,-36 825,-36 819,-36 813,-30 813,-24 813,-24 813,-12 813,-12 813,-6 819,0 825,0 825,0 855,0 855,0 861,0 867,-6 867,-12 867,-12 867,-24 867,-24 867,-30 861,-36 855,-36"/>
<text text-anchor="middle" x="840" y="-13.32" font-family="Helvetica,sans-Serif" font-size="14.00">(...)</text>
</g>
<!-- 14854&#45;&gt;15596 -->
<g id="edge20" class="edge">
<title>14854&#45;&gt;15596</title>
<path fill="none" stroke="black" d="M832.02,-71.75C833.28,-63.42 834.56,-54.97 835.71,-47.34"/>
<polygon fill="black" stroke="black" points="839.14,-48.08 837.17,-37.67 832.22,-47.03 839.14,-48.08"/>
</g>
<!-- 15922 -->
<g id="node23" class="node">
<title>15922</title>
<path fill="#c0c0c0" stroke="black" d="M958,-36C958,-36 928,-36 928,-36 922,-36 916,-30 916,-24 916,-24 916,-12 916,-12 916,-6 922,0 928,0 928,0 958,0 958,0 964,0 970,-6 970,-12 970,-12 970,-24 970,-24 970,-30 964,-36 958,-36"/>
<text text-anchor="middle" x="943" y="-13.32" font-family="Helvetica,sans-Serif" font-size="14.00">(...)</text>
</g>
<!-- 15921&#45;&gt;15922 -->
<g id="edge22" class="edge">
<title>15921&#45;&gt;15922</title>
<path fill="none" stroke="black" d="M973.34,-71.75C968.26,-62.93 963.1,-53.96 958.52,-45.99"/>
<polygon fill="black" stroke="black" points="961.65,-44.41 953.63,-37.48 955.58,-47.9 961.65,-44.41"/>
</g>
<!-- 16193 -->
<g id="node24" class="node">
<title>16193</title>
<path fill="#c0c0c0" stroke="black" d="M1030,-36C1030,-36 1000,-36 1000,-36 994,-36 988,-30 988,-24 988,-24 988,-12 988,-12 988,-6 994,0 1000,0 1000,0 1030,0 1030,0 1036,0 1042,-6 1042,-12 1042,-12 1042,-24 1042,-24 1042,-30 1036,-36 1030,-36"/>
<text text-anchor="middle" x="1015" y="-13.32" font-family="Helvetica,sans-Serif" font-size="14.00">(...)</text>
</g>
<!-- 15921&#45;&gt;16193 -->
<g id="edge23" class="edge">
<title>15921&#45;&gt;16193</title>
<path fill="none" stroke="black" d="M1007.02,-71.75C1008.28,-63.42 1009.56,-54.97 1010.71,-47.34"/>
<polygon fill="black" stroke="black" points="1014.14,-48.08 1012.17,-37.67 1007.22,-47.03 1014.14,-48.08"/>
</g>
<!-- 16275 -->
<g id="node26" class="node">
<title>16275</title>
<path fill="#eb9e67" stroke="black" d="M1241.5,-166.25C1241.5,-166.25 1108.5,-166.25 1108.5,-166.25 1102.5,-166.25 1096.5,-160.25 1096.5,-154.25 1096.5,-154.25 1096.5,-84 1096.5,-84 1096.5,-78 1102.5,-72 1108.5,-72 1108.5,-72 1241.5,-72 1241.5,-72 1247.5,-72 1253.5,-78 1253.5,-84 1253.5,-84 1253.5,-154.25 1253.5,-154.25 1253.5,-160.25 1247.5,-166.25 1241.5,-166.25"/>
<text text-anchor="middle" x="1175" y="-148.95" font-family="Helvetica,sans-Serif" font-size="14.00">21_A &lt;= 0.5</text>
<text text-anchor="middle" x="1175" y="-131.7" font-family="Helvetica,sans-Serif" font-size="14.00">entropy = 0.699</text>
<text text-anchor="middle" x="1175" y="-114.45" font-family="Helvetica,sans-Serif" font-size="14.00">samples = 1021</text>
<text text-anchor="middle" x="1175" y="-97.2" font-family="Helvetica,sans-Serif" font-size="14.00">value = [1274, 297]</text>
<text text-anchor="middle" x="1175" y="-79.95" font-family="Helvetica,sans-Serif" font-size="14.00">class = Animal</text>
</g>
<!-- 16274&#45;&gt;16275 -->
<g id="edge25" class="edge">
<title>16274&#45;&gt;16275</title>
<path fill="none" stroke="black" d="M1175,-202.07C1175,-194.17 1175,-185.88 1175,-177.73"/>
<polygon fill="black" stroke="black" points="1178.5,-177.87 1175,-167.87 1171.5,-177.87 1178.5,-177.87"/>
</g>
<!-- 16702 -->
<g id="node29" class="node">
<title>16702</title>
<path fill="#f2c29f" stroke="black" d="M1408,-166.25C1408,-166.25 1284,-166.25 1284,-166.25 1278,-166.25 1272,-160.25 1272,-154.25 1272,-154.25 1272,-84 1272,-84 1272,-78 1278,-72 1284,-72 1284,-72 1408,-72 1408,-72 1414,-72 1420,-78 1420,-84 1420,-84 1420,-154.25 1420,-154.25 1420,-160.25 1414,-166.25 1408,-166.25"/>
<text text-anchor="middle" x="1346" y="-148.95" font-family="Helvetica,sans-Serif" font-size="14.00">2_U &lt;= 0.5</text>
<text text-anchor="middle" x="1346" y="-131.7" font-family="Helvetica,sans-Serif" font-size="14.00">entropy = 0.925</text>
<text text-anchor="middle" x="1346" y="-114.45" font-family="Helvetica,sans-Serif" font-size="14.00">samples = 358</text>
<text text-anchor="middle" x="1346" y="-97.2" font-family="Helvetica,sans-Serif" font-size="14.00">value = [365, 188]</text>
<text text-anchor="middle" x="1346" y="-79.95" font-family="Helvetica,sans-Serif" font-size="14.00">class = Animal</text>
</g>
<!-- 16274&#45;&gt;16702 -->
<g id="edge28" class="edge">
<title>16274&#45;&gt;16702</title>
<path fill="none" stroke="black" d="M1236.73,-202.07C1249.13,-192.78 1262.25,-182.94 1274.93,-173.43"/>
<polygon fill="black" stroke="black" points="1276.96,-176.28 1282.86,-167.48 1272.76,-170.68 1276.96,-176.28"/>
</g>
<!-- 16276 -->
<g id="node27" class="node">
<title>16276</title>
<path fill="#c0c0c0" stroke="black" d="M1149,-36C1149,-36 1119,-36 1119,-36 1113,-36 1107,-30 1107,-24 1107,-24 1107,-12 1107,-12 1107,-6 1113,0 1119,0 1119,0 1149,0 1149,0 1155,0 1161,-6 1161,-12 1161,-12 1161,-24 1161,-24 1161,-30 1155,-36 1149,-36"/>
<text text-anchor="middle" x="1134" y="-13.32" font-family="Helvetica,sans-Serif" font-size="14.00">(...)</text>
</g>
<!-- 16275&#45;&gt;16276 -->
<g id="edge26" class="edge">
<title>16275&#45;&gt;16276</title>
<path fill="none" stroke="black" d="M1155.82,-71.75C1152.29,-63.22 1148.71,-54.57 1145.5,-46.8"/>
<polygon fill="black" stroke="black" points="1148.74,-45.47 1141.68,-37.57 1142.27,-48.15 1148.74,-45.47"/>
</g>
<!-- 16623 -->
<g id="node28" class="node">
<title>16623</title>
<path fill="#c0c0c0" stroke="black" d="M1221,-36C1221,-36 1191,-36 1191,-36 1185,-36 1179,-30 1179,-24 1179,-24 1179,-12 1179,-12 1179,-6 1185,0 1191,0 1191,0 1221,0 1221,0 1227,0 1233,-6 1233,-12 1233,-12 1233,-24 1233,-24 1233,-30 1227,-36 1221,-36"/>
<text text-anchor="middle" x="1206" y="-13.32" font-family="Helvetica,sans-Serif" font-size="14.00">(...)</text>
</g>
<!-- 16275&#45;&gt;16623 -->
<g id="edge27" class="edge">
<title>16275&#45;&gt;16623</title>
<path fill="none" stroke="black" d="M1189.5,-71.75C1192.14,-63.32 1194.81,-54.77 1197.22,-47.07"/>
<polygon fill="black" stroke="black" points="1200.53,-48.21 1200.18,-37.62 1193.85,-46.12 1200.53,-48.21"/>
</g>
<!-- 16703 -->
<g id="node30" class="node">
<title>16703</title>
<path fill="#c0c0c0" stroke="black" d="M1325,-36C1325,-36 1295,-36 1295,-36 1289,-36 1283,-30 1283,-24 1283,-24 1283,-12 1283,-12 1283,-6 1289,0 1295,0 1295,0 1325,0 1325,0 1331,0 1337,-6 1337,-12 1337,-12 1337,-24 1337,-24 1337,-30 1331,-36 1325,-36"/>
<text text-anchor="middle" x="1310" y="-13.32" font-family="Helvetica,sans-Serif" font-size="14.00">(...)</text>
</g>
<!-- 16702&#45;&gt;16703 -->
<g id="edge29" class="edge">
<title>16702&#45;&gt;16703</title>
<path fill="none" stroke="black" d="M1329.16,-71.75C1326.06,-63.22 1322.92,-54.57 1320.1,-46.8"/>
<polygon fill="black" stroke="black" points="1323.46,-45.8 1316.75,-37.6 1316.88,-48.19 1323.46,-45.8"/>
</g>
<!-- 16832 -->
<g id="node31" class="node">
<title>16832</title>
<path fill="#c0c0c0" stroke="black" d="M1397,-36C1397,-36 1367,-36 1367,-36 1361,-36 1355,-30 1355,-24 1355,-24 1355,-12 1355,-12 1355,-6 1361,0 1367,0 1367,0 1397,0 1397,0 1403,0 1409,-6 1409,-12 1409,-12 1409,-24 1409,-24 1409,-30 1403,-36 1397,-36"/>
<text text-anchor="middle" x="1382" y="-13.32" font-family="Helvetica,sans-Serif" font-size="14.00">(...)</text>
</g>
<!-- 16702&#45;&gt;16832 -->
<g id="edge30" class="edge">
<title>16702&#45;&gt;16832</title>
<path fill="none" stroke="black" d="M1362.84,-71.75C1365.94,-63.22 1369.08,-54.57 1371.9,-46.8"/>
<polygon fill="black" stroke="black" points="1375.12,-48.19 1375.25,-37.6 1368.54,-45.8 1375.12,-48.19"/>
</g>
</g>
</svg>
