<?xml version="1.0" encoding="UTF-8" standalone="no"?>
<!DOCTYPE svg PUBLIC "-//W3C//DTD SVG 1.1//EN"
 "http://www.w3.org/Graphics/SVG/1.1/DTD/svg11.dtd">
<!-- Generated by graphviz version 12.0.0 (20240803.0821)
 -->
<!-- Title: Tree Pages: 1 -->
<svg width="1429pt" height="565pt"
 viewBox="0.00 0.00 1428.50 565.00" xmlns="http://www.w3.org/2000/svg" xmlns:xlink="http://www.w3.org/1999/xlink">
<g id="graph0" class="graph" transform="scale(1 1) rotate(0) translate(4 561)">
<title>Tree</title>
<polygon fill="white" stroke="none" points="-4,4 -4,-561 1424.5,-561 1424.5,4 -4,4"/>
<!-- 0 -->
<g id="node1" class="node">
<title>0</title>
<path fill="#fffefe" stroke="black" d="M803.5,-557C803.5,-557 643.5,-557 643.5,-557 637.5,-557 631.5,-551 631.5,-545 631.5,-545 631.5,-474.75 631.5,-474.75 631.5,-468.75 637.5,-462.75 643.5,-462.75 643.5,-462.75 803.5,-462.75 803.5,-462.75 809.5,-462.75 815.5,-468.75 815.5,-474.75 815.5,-474.75 815.5,-545 815.5,-545 815.5,-551 809.5,-557 803.5,-557"/>
<text text-anchor="middle" x="723.5" y="-539.7" font-family="Helvetica,sans-Serif" font-size="14.00">4_A &lt;= 0.5</text>
<text text-anchor="middle" x="723.5" y="-522.45" font-family="Helvetica,sans-Serif" font-size="14.00">entropy = 1.0</text>
<text text-anchor="middle" x="723.5" y="-505.2" font-family="Helvetica,sans-Serif" font-size="14.00">samples = 38079</text>
<text text-anchor="middle" x="723.5" y="-487.95" font-family="Helvetica,sans-Serif" font-size="14.00">value = [30237, 30108]</text>
<text text-anchor="middle" x="723.5" y="-470.7" font-family="Helvetica,sans-Serif" font-size="14.00">class = Animal</text>
</g>
<!-- 1 -->
<g id="node2" class="node">
<title>1</title>
<path fill="#fdf7f2" stroke="black" d="M628.5,-426.75C628.5,-426.75 468.5,-426.75 468.5,-426.75 462.5,-426.75 456.5,-420.75 456.5,-414.75 456.5,-414.75 456.5,-344.5 456.5,-344.5 456.5,-338.5 462.5,-332.5 468.5,-332.5 468.5,-332.5 628.5,-332.5 628.5,-332.5 634.5,-332.5 640.5,-338.5 640.5,-344.5 640.5,-344.5 640.5,-414.75 640.5,-414.75 640.5,-420.75 634.5,-426.75 628.5,-426.75"/>
<text text-anchor="middle" x="548.5" y="-409.45" font-family="Helvetica,sans-Serif" font-size="14.00">19_C &lt;= 0.5</text>
<text text-anchor="middle" x="548.5" y="-392.2" font-family="Helvetica,sans-Serif" font-size="14.00">entropy = 0.999</text>
<text text-anchor="middle" x="548.5" y="-374.95" font-family="Helvetica,sans-Serif" font-size="14.00">samples = 28331</text>
<text text-anchor="middle" x="548.5" y="-357.7" font-family="Helvetica,sans-Serif" font-size="14.00">value = [23279, 21725]</text>
<text text-anchor="middle" x="548.5" y="-340.45" font-family="Helvetica,sans-Serif" font-size="14.00">class = Animal</text>
</g>
<!-- 0&#45;&gt;1 -->
<g id="edge1" class="edge">
<title>0&#45;&gt;1</title>
<path fill="none" stroke="black" d="M660.32,-462.57C647.51,-453.19 633.95,-443.25 620.86,-433.65"/>
<polygon fill="black" stroke="black" points="623.24,-431.06 613.1,-427.97 619.1,-436.7 623.24,-431.06"/>
<text text-anchor="middle" x="615.69" y="-447.11" font-family="Helvetica,sans-Serif" font-size="14.00">True</text>
</g>
<!-- 12778 -->
<g id="node17" class="node">
<title>12778</title>
<path fill="#ddeefb" stroke="black" d="M976.5,-426.75C976.5,-426.75 834.5,-426.75 834.5,-426.75 828.5,-426.75 822.5,-420.75 822.5,-414.75 822.5,-414.75 822.5,-344.5 822.5,-344.5 822.5,-338.5 828.5,-332.5 834.5,-332.5 834.5,-332.5 976.5,-332.5 976.5,-332.5 982.5,-332.5 988.5,-338.5 988.5,-344.5 988.5,-344.5 988.5,-414.75 988.5,-414.75 988.5,-420.75 982.5,-426.75 976.5,-426.75"/>
<text text-anchor="middle" x="905.5" y="-409.45" font-family="Helvetica,sans-Serif" font-size="14.00">12_U &lt;= 0.5</text>
<text text-anchor="middle" x="905.5" y="-392.2" font-family="Helvetica,sans-Serif" font-size="14.00">entropy = 0.994</text>
<text text-anchor="middle" x="905.5" y="-374.95" font-family="Helvetica,sans-Serif" font-size="14.00">samples = 9748</text>
<text text-anchor="middle" x="905.5" y="-357.7" font-family="Helvetica,sans-Serif" font-size="14.00">value = [6958, 8383]</text>
<text text-anchor="middle" x="905.5" y="-340.45" font-family="Helvetica,sans-Serif" font-size="14.00">class = Plant</text>
</g>
<!-- 0&#45;&gt;12778 -->
<g id="edge16" class="edge">
<title>0&#45;&gt;12778</title>
<path fill="none" stroke="black" d="M789.46,-462.39C802.69,-453.07 816.68,-443.22 830.19,-433.69"/>
<polygon fill="black" stroke="black" points="832.06,-436.66 838.22,-428.04 828.03,-430.94 832.06,-436.66"/>
<text text-anchor="middle" x="835.19" y="-447.12" font-family="Helvetica,sans-Serif" font-size="14.00">False</text>
</g>
<!-- 2 -->
<g id="node3" class="node">
<title>2</title>
<path fill="#f8dbc7" stroke="black" d="M356.5,-296.5C356.5,-296.5 196.5,-296.5 196.5,-296.5 190.5,-296.5 184.5,-290.5 184.5,-284.5 184.5,-284.5 184.5,-214.25 184.5,-214.25 184.5,-208.25 190.5,-202.25 196.5,-202.25 196.5,-202.25 356.5,-202.25 356.5,-202.25 362.5,-202.25 368.5,-208.25 368.5,-214.25 368.5,-214.25 368.5,-284.5 368.5,-284.5 368.5,-290.5 362.5,-296.5 356.5,-296.5"/>
<text text-anchor="middle" x="276.5" y="-279.2" font-family="Helvetica,sans-Serif" font-size="14.00">19_U &lt;= 0.5</text>
<text text-anchor="middle" x="276.5" y="-261.95" font-family="Helvetica,sans-Serif" font-size="14.00">entropy = 0.98</text>
<text text-anchor="middle" x="276.5" y="-244.7" font-family="Helvetica,sans-Serif" font-size="14.00">samples = 19251</text>
<text text-anchor="middle" x="276.5" y="-227.45" font-family="Helvetica,sans-Serif" font-size="14.00">value = [17877, 12788]</text>
<text text-anchor="middle" x="276.5" y="-210.2" font-family="Helvetica,sans-Serif" font-size="14.00">class = Animal</text>
</g>
<!-- 1&#45;&gt;2 -->
<g id="edge2" class="edge">
<title>1&#45;&gt;2</title>
<path fill="none" stroke="black" d="M456.03,-335.03C431.26,-323.35 404.34,-310.65 379.06,-298.73"/>
<polygon fill="black" stroke="black" points="380.62,-295.6 370.08,-294.5 377.63,-301.93 380.62,-295.6"/>
</g>
<!-- 9529 -->
<g id="node10" class="node">
<title>9529</title>
<path fill="#b1d8f5" stroke="black" d="M619.5,-296.5C619.5,-296.5 477.5,-296.5 477.5,-296.5 471.5,-296.5 465.5,-290.5 465.5,-284.5 465.5,-284.5 465.5,-214.25 465.5,-214.25 465.5,-208.25 471.5,-202.25 477.5,-202.25 477.5,-202.25 619.5,-202.25 619.5,-202.25 625.5,-202.25 631.5,-208.25 631.5,-214.25 631.5,-214.25 631.5,-284.5 631.5,-284.5 631.5,-290.5 625.5,-296.5 619.5,-296.5"/>
<text text-anchor="middle" x="548.5" y="-279.2" font-family="Helvetica,sans-Serif" font-size="14.00">4_U &lt;= 0.5</text>
<text text-anchor="middle" x="548.5" y="-261.95" font-family="Helvetica,sans-Serif" font-size="14.00">entropy = 0.956</text>
<text text-anchor="middle" x="548.5" y="-244.7" font-family="Helvetica,sans-Serif" font-size="14.00">samples = 9080</text>
<text text-anchor="middle" x="548.5" y="-227.45" font-family="Helvetica,sans-Serif" font-size="14.00">value = [5402, 8937]</text>
<text text-anchor="middle" x="548.5" y="-210.2" font-family="Helvetica,sans-Serif" font-size="14.00">class = Plant</text>
</g>
<!-- 1&#45;&gt;9529 -->
<g id="edge9" class="edge">
<title>1&#45;&gt;9529</title>
<path fill="none" stroke="black" d="M548.5,-332.32C548.5,-324.42 548.5,-316.13 548.5,-307.98"/>
<polygon fill="black" stroke="black" points="552,-308.12 548.5,-298.12 545,-308.12 552,-308.12"/>
</g>
<!-- 3 -->
<g id="node4" class="node">
<title>3</title>
<path fill="#fbeade" stroke="black" d="M163,-166.25C163,-166.25 12,-166.25 12,-166.25 6,-166.25 0,-160.25 0,-154.25 0,-154.25 0,-84 0,-84 0,-78 6,-72 12,-72 12,-72 163,-72 163,-72 169,-72 175,-78 175,-84 175,-84 175,-154.25 175,-154.25 175,-160.25 169,-166.25 163,-166.25"/>
<text text-anchor="middle" x="87.5" y="-148.95" font-family="Helvetica,sans-Serif" font-size="14.00">2_A &lt;= 0.5</text>
<text text-anchor="middle" x="87.5" y="-131.7" font-family="Helvetica,sans-Serif" font-size="14.00">entropy = 0.994</text>
<text text-anchor="middle" x="87.5" y="-114.45" font-family="Helvetica,sans-Serif" font-size="14.00">samples = 12493</text>
<text text-anchor="middle" x="87.5" y="-97.2" font-family="Helvetica,sans-Serif" font-size="14.00">value = [10850, 9049]</text>
<text text-anchor="middle" x="87.5" y="-79.95" font-family="Helvetica,sans-Serif" font-size="14.00">class = Animal</text>
</g>
<!-- 2&#45;&gt;3 -->
<g id="edge3" class="edge">
<title>2&#45;&gt;3</title>
<path fill="none" stroke="black" d="M208,-201.89C194.13,-192.48 179.46,-182.53 165.3,-172.92"/>
<polygon fill="black" stroke="black" points="167.58,-170.23 157.34,-167.51 163.65,-176.03 167.58,-170.23"/>
</g>
<!-- 6166 -->
<g id="node7" class="node">
<title>6166</title>
<path fill="#f3c4a2" stroke="black" d="M347.5,-166.25C347.5,-166.25 205.5,-166.25 205.5,-166.25 199.5,-166.25 193.5,-160.25 193.5,-154.25 193.5,-154.25 193.5,-84 193.5,-84 193.5,-78 199.5,-72 205.5,-72 205.5,-72 347.5,-72 347.5,-72 353.5,-72 359.5,-78 359.5,-84 359.5,-84 359.5,-154.25 359.5,-154.25 359.5,-160.25 353.5,-166.25 347.5,-166.25"/>
<text text-anchor="middle" x="276.5" y="-148.95" font-family="Helvetica,sans-Serif" font-size="14.00">21_U &lt;= 0.5</text>
<text text-anchor="middle" x="276.5" y="-131.7" font-family="Helvetica,sans-Serif" font-size="14.00">entropy = 0.932</text>
<text text-anchor="middle" x="276.5" y="-114.45" font-family="Helvetica,sans-Serif" font-size="14.00">samples = 6758</text>
<text text-anchor="middle" x="276.5" y="-97.2" font-family="Helvetica,sans-Serif" font-size="14.00">value = [7027, 3739]</text>
<text text-anchor="middle" x="276.5" y="-79.95" font-family="Helvetica,sans-Serif" font-size="14.00">class = Animal</text>
</g>
<!-- 2&#45;&gt;6166 -->
<g id="edge6" class="edge">
<title>2&#45;&gt;6166</title>
<path fill="none" stroke="black" d="M276.5,-202.07C276.5,-194.17 276.5,-185.88 276.5,-177.73"/>
<polygon fill="black" stroke="black" points="280,-177.87 276.5,-167.87 273,-177.87 280,-177.87"/>
</g>
<!-- 4 -->
<g id="node5" class="node">
<title>4</title>
<path fill="#c0c0c0" stroke="black" d="M66.5,-36C66.5,-36 36.5,-36 36.5,-36 30.5,-36 24.5,-30 24.5,-24 24.5,-24 24.5,-12 24.5,-12 24.5,-6 30.5,0 36.5,0 36.5,0 66.5,0 66.5,0 72.5,0 78.5,-6 78.5,-12 78.5,-12 78.5,-24 78.5,-24 78.5,-30 72.5,-36 66.5,-36"/>
<text text-anchor="middle" x="51.5" y="-13.32" font-family="Helvetica,sans-Serif" font-size="14.00">(...)</text>
</g>
<!-- 3&#45;&gt;4 -->
<g id="edge4" class="edge">
<title>3&#45;&gt;4</title>
<path fill="none" stroke="black" d="M70.66,-71.75C67.56,-63.22 64.42,-54.57 61.6,-46.8"/>
<polygon fill="black" stroke="black" points="64.96,-45.8 58.25,-37.6 58.38,-48.19 64.96,-45.8"/>
</g>
<!-- 4745 -->
<g id="node6" class="node">
<title>4745</title>
<path fill="#c0c0c0" stroke="black" d="M138.5,-36C138.5,-36 108.5,-36 108.5,-36 102.5,-36 96.5,-30 96.5,-24 96.5,-24 96.5,-12 96.5,-12 96.5,-6 102.5,0 108.5,0 108.5,0 138.5,0 138.5,0 144.5,0 150.5,-6 150.5,-12 150.5,-12 150.5,-24 150.5,-24 150.5,-30 144.5,-36 138.5,-36"/>
<text text-anchor="middle" x="123.5" y="-13.32" font-family="Helvetica,sans-Serif" font-size="14.00">(...)</text>
</g>
<!-- 3&#45;&gt;4745 -->
<g id="edge5" class="edge">
<title>3&#45;&gt;4745</title>
<path fill="none" stroke="black" d="M104.34,-71.75C107.44,-63.22 110.58,-54.57 113.4,-46.8"/>
<polygon fill="black" stroke="black" points="116.62,-48.19 116.75,-37.6 110.04,-45.8 116.62,-48.19"/>
</g>
<!-- 6167 -->
<g id="node8" class="node">
<title>6167</title>
<path fill="#c0c0c0" stroke="black" d="M257.5,-36C257.5,-36 227.5,-36 227.5,-36 221.5,-36 215.5,-30 215.5,-24 215.5,-24 215.5,-12 215.5,-12 215.5,-6 221.5,0 227.5,0 227.5,0 257.5,0 257.5,0 263.5,0 269.5,-6 269.5,-12 269.5,-12 269.5,-24 269.5,-24 269.5,-30 263.5,-36 257.5,-36"/>
<text text-anchor="middle" x="242.5" y="-13.32" font-family="Helvetica,sans-Serif" font-size="14.00">(...)</text>
</g>
<!-- 6166&#45;&gt;6167 -->
<g id="edge7" class="edge">
<title>6166&#45;&gt;6167</title>
<path fill="none" stroke="black" d="M260.6,-71.75C257.67,-63.22 254.7,-54.57 252.03,-46.8"/>
<polygon fill="black" stroke="black" points="255.44,-45.93 248.88,-37.6 248.82,-48.2 255.44,-45.93"/>
</g>
<!-- 8858 -->
<g id="node9" class="node">
<title>8858</title>
<path fill="#c0c0c0" stroke="black" d="M329.5,-36C329.5,-36 299.5,-36 299.5,-36 293.5,-36 287.5,-30 287.5,-24 287.5,-24 287.5,-12 287.5,-12 287.5,-6 293.5,0 299.5,0 299.5,0 329.5,0 329.5,0 335.5,0 341.5,-6 341.5,-12 341.5,-12 341.5,-24 341.5,-24 341.5,-30 335.5,-36 329.5,-36"/>
<text text-anchor="middle" x="314.5" y="-13.32" font-family="Helvetica,sans-Serif" font-size="14.00">(...)</text>
</g>
<!-- 6166&#45;&gt;8858 -->
<g id="edge8" class="edge">
<title>6166&#45;&gt;8858</title>
<path fill="none" stroke="black" d="M294.28,-71.75C297.55,-63.22 300.87,-54.57 303.84,-46.8"/>
<polygon fill="black" stroke="black" points="307.06,-48.18 307.38,-37.59 300.53,-45.67 307.06,-48.18"/>
</g>
<!-- 9530 -->
<g id="node11" class="node">
<title>9530</title>
<path fill="#94caf1" stroke="black" d="M531.5,-166.25C531.5,-166.25 389.5,-166.25 389.5,-166.25 383.5,-166.25 377.5,-160.25 377.5,-154.25 377.5,-154.25 377.5,-84 377.5,-84 377.5,-78 383.5,-72 389.5,-72 389.5,-72 531.5,-72 531.5,-72 537.5,-72 543.5,-78 543.5,-84 543.5,-84 543.5,-154.25 543.5,-154.25 543.5,-160.25 537.5,-166.25 531.5,-166.25"/>
<text text-anchor="middle" x="460.5" y="-148.95" font-family="Helvetica,sans-Serif" font-size="14.00">18_C &lt;= 0.5</text>
<text text-anchor="middle" x="460.5" y="-131.7" font-family="Helvetica,sans-Serif" font-size="14.00">entropy = 0.899</text>
<text text-anchor="middle" x="460.5" y="-114.45" font-family="Helvetica,sans-Serif" font-size="14.00">samples = 7384</text>
<text text-anchor="middle" x="460.5" y="-97.2" font-family="Helvetica,sans-Serif" font-size="14.00">value = [3681, 7989]</text>
<text text-anchor="middle" x="460.5" y="-79.95" font-family="Helvetica,sans-Serif" font-size="14.00">class = Plant</text>
</g>
<!-- 9529&#45;&gt;9530 -->
<g id="edge10" class="edge">
<title>9529&#45;&gt;9530</title>
<path fill="none" stroke="black" d="M516.73,-202.07C510.87,-193.54 504.7,-184.54 498.68,-175.77"/>
<polygon fill="black" stroke="black" points="501.62,-173.87 493.08,-167.61 495.85,-177.83 501.62,-173.87"/>
</g>
<!-- 11827 -->
<g id="node14" class="node">
<title>11827</title>
<path fill="#f3c6a6" stroke="black" d="M707,-166.25C707,-166.25 574,-166.25 574,-166.25 568,-166.25 562,-160.25 562,-154.25 562,-154.25 562,-84 562,-84 562,-78 568,-72 574,-72 574,-72 707,-72 707,-72 713,-72 719,-78 719,-84 719,-84 719,-154.25 719,-154.25 719,-160.25 713,-166.25 707,-166.25"/>
<text text-anchor="middle" x="640.5" y="-148.95" font-family="Helvetica,sans-Serif" font-size="14.00">9_A &lt;= 0.5</text>
<text text-anchor="middle" x="640.5" y="-131.7" font-family="Helvetica,sans-Serif" font-size="14.00">entropy = 0.939</text>
<text text-anchor="middle" x="640.5" y="-114.45" font-family="Helvetica,sans-Serif" font-size="14.00">samples = 1696</text>
<text text-anchor="middle" x="640.5" y="-97.2" font-family="Helvetica,sans-Serif" font-size="14.00">value = [1721, 948]</text>
<text text-anchor="middle" x="640.5" y="-79.95" font-family="Helvetica,sans-Serif" font-size="14.00">class = Animal</text>
</g>
<!-- 9529&#45;&gt;11827 -->
<g id="edge13" class="edge">
<title>9529&#45;&gt;11827</title>
<path fill="none" stroke="black" d="M581.71,-202.07C587.9,-193.45 594.43,-184.35 600.79,-175.49"/>
<polygon fill="black" stroke="black" points="603.47,-177.75 606.45,-167.59 597.78,-173.67 603.47,-177.75"/>
</g>
<!-- 9531 -->
<g id="node12" class="node">
<title>9531</title>
<path fill="#c0c0c0" stroke="black" d="M421.5,-36C421.5,-36 391.5,-36 391.5,-36 385.5,-36 379.5,-30 379.5,-24 379.5,-24 379.5,-12 379.5,-12 379.5,-6 385.5,0 391.5,0 391.5,0 421.5,0 421.5,0 427.5,0 433.5,-6 433.5,-12 433.5,-12 433.5,-24 433.5,-24 433.5,-30 427.5,-36 421.5,-36"/>
<text text-anchor="middle" x="406.5" y="-13.32" font-family="Helvetica,sans-Serif" font-size="14.00">(...)</text>
</g>
<!-- 9530&#45;&gt;9531 -->
<g id="edge11" class="edge">
<title>9530&#45;&gt;9531</title>
<path fill="none" stroke="black" d="M435.24,-71.75C430.48,-63.03 425.66,-54.16 421.35,-46.26"/>
<polygon fill="black" stroke="black" points="424.44,-44.61 416.58,-37.5 418.29,-47.96 424.44,-44.61"/>
</g>
<!-- 11238 -->
<g id="node13" class="node">
<title>11238</title>
<path fill="#c0c0c0" stroke="black" d="M493.5,-36C493.5,-36 463.5,-36 463.5,-36 457.5,-36 451.5,-30 451.5,-24 451.5,-24 451.5,-12 451.5,-12 451.5,-6 457.5,0 463.5,0 463.5,0 493.5,0 493.5,0 499.5,0 505.5,-6 505.5,-12 505.5,-12 505.5,-24 505.5,-24 505.5,-30 499.5,-36 493.5,-36"/>
<text text-anchor="middle" x="478.5" y="-13.32" font-family="Helvetica,sans-Serif" font-size="14.00">(...)</text>
</g>
<!-- 9530&#45;&gt;11238 -->
<g id="edge12" class="edge">
<title>9530&#45;&gt;11238</title>
<path fill="none" stroke="black" d="M468.92,-71.75C470.43,-63.42 471.97,-54.97 473.35,-47.34"/>
<polygon fill="black" stroke="black" points="476.77,-48.13 475.11,-37.66 469.88,-46.88 476.77,-48.13"/>
</g>
<!-- 11828 -->
<g id="node15" class="node">
<title>11828</title>
<path fill="#c0c0c0" stroke="black" d="M601.5,-36C601.5,-36 571.5,-36 571.5,-36 565.5,-36 559.5,-30 559.5,-24 559.5,-24 559.5,-12 559.5,-12 559.5,-6 565.5,0 571.5,0 571.5,0 601.5,0 601.5,0 607.5,0 613.5,-6 613.5,-12 613.5,-12 613.5,-24 613.5,-24 613.5,-30 607.5,-36 601.5,-36"/>
<text text-anchor="middle" x="586.5" y="-13.32" font-family="Helvetica,sans-Serif" font-size="14.00">(...)</text>
</g>
<!-- 11827&#45;&gt;11828 -->
<g id="edge14" class="edge">
<title>11827&#45;&gt;11828</title>
<path fill="none" stroke="black" d="M615.24,-71.75C610.48,-63.03 605.66,-54.16 601.35,-46.26"/>
<polygon fill="black" stroke="black" points="604.44,-44.61 596.58,-37.5 598.29,-47.96 604.44,-44.61"/>
</g>
<!-- 12593 -->
<g id="node16" class="node">
<title>12593</title>
<path fill="#c0c0c0" stroke="black" d="M673.5,-36C673.5,-36 643.5,-36 643.5,-36 637.5,-36 631.5,-30 631.5,-24 631.5,-24 631.5,-12 631.5,-12 631.5,-6 637.5,0 643.5,0 643.5,0 673.5,0 673.5,0 679.5,0 685.5,-6 685.5,-12 685.5,-12 685.5,-24 685.5,-24 685.5,-30 679.5,-36 673.5,-36"/>
<text text-anchor="middle" x="658.5" y="-13.32" font-family="Helvetica,sans-Serif" font-size="14.00">(...)</text>
</g>
<!-- 11827&#45;&gt;12593 -->
<g id="edge15" class="edge">
<title>11827&#45;&gt;12593</title>
<path fill="none" stroke="black" d="M648.92,-71.75C650.43,-63.42 651.97,-54.97 653.35,-47.34"/>
<polygon fill="black" stroke="black" points="656.77,-48.13 655.11,-37.66 649.88,-46.88 656.77,-48.13"/>
</g>
<!-- 12779 -->
<g id="node18" class="node">
<title>12779</title>
<path fill="#c4e2f7" stroke="black" d="M976.5,-296.5C976.5,-296.5 834.5,-296.5 834.5,-296.5 828.5,-296.5 822.5,-290.5 822.5,-284.5 822.5,-284.5 822.5,-214.25 822.5,-214.25 822.5,-208.25 828.5,-202.25 834.5,-202.25 834.5,-202.25 976.5,-202.25 976.5,-202.25 982.5,-202.25 988.5,-208.25 988.5,-214.25 988.5,-214.25 988.5,-284.5 988.5,-284.5 988.5,-290.5 982.5,-296.5 976.5,-296.5"/>
<text text-anchor="middle" x="905.5" y="-279.2" font-family="Helvetica,sans-Serif" font-size="14.00">2_A &lt;= 0.5</text>
<text text-anchor="middle" x="905.5" y="-261.95" font-family="Helvetica,sans-Serif" font-size="14.00">entropy = 0.978</text>
<text text-anchor="middle" x="905.5" y="-244.7" font-family="Helvetica,sans-Serif" font-size="14.00">samples = 7259</text>
<text text-anchor="middle" x="905.5" y="-227.45" font-family="Helvetica,sans-Serif" font-size="14.00">value = [4712, 6706]</text>
<text text-anchor="middle" x="905.5" y="-210.2" font-family="Helvetica,sans-Serif" font-size="14.00">class = Plant</text>
</g>
<!-- 12778&#45;&gt;12779 -->
<g id="edge17" class="edge">
<title>12778&#45;&gt;12779</title>
<path fill="none" stroke="black" d="M905.5,-332.32C905.5,-324.42 905.5,-316.13 905.5,-307.98"/>
<polygon fill="black" stroke="black" points="909,-308.12 905.5,-298.12 902,-308.12 909,-308.12"/>
</g>
<!-- 15724 -->
<g id="node25" class="node">
<title>15724</title>
<path fill="#f8dfcd" stroke="black" d="M1246.5,-296.5C1246.5,-296.5 1104.5,-296.5 1104.5,-296.5 1098.5,-296.5 1092.5,-290.5 1092.5,-284.5 1092.5,-284.5 1092.5,-214.25 1092.5,-214.25 1092.5,-208.25 1098.5,-202.25 1104.5,-202.25 1104.5,-202.25 1246.5,-202.25 1246.5,-202.25 1252.5,-202.25 1258.5,-208.25 1258.5,-214.25 1258.5,-214.25 1258.5,-284.5 1258.5,-284.5 1258.5,-290.5 1252.5,-296.5 1246.5,-296.5"/>
<text text-anchor="middle" x="1175.5" y="-279.2" font-family="Helvetica,sans-Serif" font-size="14.00">19_C &lt;= 0.5</text>
<text text-anchor="middle" x="1175.5" y="-261.95" font-family="Helvetica,sans-Serif" font-size="14.00">entropy = 0.985</text>
<text text-anchor="middle" x="1175.5" y="-244.7" font-family="Helvetica,sans-Serif" font-size="14.00">samples = 2489</text>
<text text-anchor="middle" x="1175.5" y="-227.45" font-family="Helvetica,sans-Serif" font-size="14.00">value = [2246, 1677]</text>
<text text-anchor="middle" x="1175.5" y="-210.2" font-family="Helvetica,sans-Serif" font-size="14.00">class = Animal</text>
</g>
<!-- 12778&#45;&gt;15724 -->
<g id="edge24" class="edge">
<title>12778&#45;&gt;15724</title>
<path fill="none" stroke="black" d="M988.71,-339.1C1018.22,-325.08 1051.63,-309.21 1081.95,-294.81"/>
<polygon fill="black" stroke="black" points="1083.2,-298.09 1090.73,-290.64 1080.2,-291.77 1083.2,-298.09"/>
</g>
<!-- 12780 -->
<g id="node19" class="node">
<title>12780</title>
<path fill="#a5d2f3" stroke="black" d="M891.5,-166.25C891.5,-166.25 749.5,-166.25 749.5,-166.25 743.5,-166.25 737.5,-160.25 737.5,-154.25 737.5,-154.25 737.5,-84 737.5,-84 737.5,-78 743.5,-72 749.5,-72 749.5,-72 891.5,-72 891.5,-72 897.5,-72 903.5,-78 903.5,-84 903.5,-84 903.5,-154.25 903.5,-154.25 903.5,-160.25 897.5,-166.25 891.5,-166.25"/>
<text text-anchor="middle" x="820.5" y="-148.95" font-family="Helvetica,sans-Serif" font-size="14.00">19_C &lt;= 0.5</text>
<text text-anchor="middle" x="820.5" y="-131.7" font-family="Helvetica,sans-Serif" font-size="14.00">entropy = 0.936</text>
<text text-anchor="middle" x="820.5" y="-114.45" font-family="Helvetica,sans-Serif" font-size="14.00">samples = 5971</text>
<text text-anchor="middle" x="820.5" y="-97.2" font-family="Helvetica,sans-Serif" font-size="14.00">value = [3313, 6086]</text>
<text text-anchor="middle" x="820.5" y="-79.95" font-family="Helvetica,sans-Serif" font-size="14.00">class = Plant</text>
</g>
<!-- 12779&#45;&gt;12780 -->
<g id="edge18" class="edge">
<title>12779&#45;&gt;12780</title>
<path fill="none" stroke="black" d="M874.81,-202.07C869.16,-193.54 863.2,-184.54 857.38,-175.77"/>
<polygon fill="black" stroke="black" points="860.42,-174.02 851.98,-167.62 854.59,-177.89 860.42,-174.02"/>
</g>
<!-- 14975 -->
<g id="node22" class="node">
<title>14975</title>
<path fill="#f1b991" stroke="black" d="M1067,-166.25C1067,-166.25 934,-166.25 934,-166.25 928,-166.25 922,-160.25 922,-154.25 922,-154.25 922,-84 922,-84 922,-78 928,-72 934,-72 934,-72 1067,-72 1067,-72 1073,-72 1079,-78 1079,-84 1079,-84 1079,-154.25 1079,-154.25 1079,-160.25 1073,-166.25 1067,-166.25"/>
<text text-anchor="middle" x="1000.5" y="-148.95" font-family="Helvetica,sans-Serif" font-size="14.00">6_G &lt;= 0.5</text>
<text text-anchor="middle" x="1000.5" y="-131.7" font-family="Helvetica,sans-Serif" font-size="14.00">entropy = 0.89</text>
<text text-anchor="middle" x="1000.5" y="-114.45" font-family="Helvetica,sans-Serif" font-size="14.00">samples = 1288</text>
<text text-anchor="middle" x="1000.5" y="-97.2" font-family="Helvetica,sans-Serif" font-size="14.00">value = [1399, 620]</text>
<text text-anchor="middle" x="1000.5" y="-79.95" font-family="Helvetica,sans-Serif" font-size="14.00">class = Animal</text>
</g>
<!-- 12779&#45;&gt;14975 -->
<g id="edge21" class="edge">
<title>12779&#45;&gt;14975</title>
<path fill="none" stroke="black" d="M939.8,-202.07C946.19,-193.45 952.92,-184.35 959.49,-175.49"/>
<polygon fill="black" stroke="black" points="962.21,-177.69 965.35,-167.57 956.59,-173.53 962.21,-177.69"/>
</g>
<!-- 12781 -->
<g id="node20" class="node">
<title>12781</title>
<path fill="#c0c0c0" stroke="black" d="M781.5,-36C781.5,-36 751.5,-36 751.5,-36 745.5,-36 739.5,-30 739.5,-24 739.5,-24 739.5,-12 739.5,-12 739.5,-6 745.5,0 751.5,0 751.5,0 781.5,0 781.5,0 787.5,0 793.5,-6 793.5,-12 793.5,-12 793.5,-24 793.5,-24 793.5,-30 787.5,-36 781.5,-36"/>
<text text-anchor="middle" x="766.5" y="-13.32" font-family="Helvetica,sans-Serif" font-size="14.00">(...)</text>
</g>
<!-- 12780&#45;&gt;12781 -->
<g id="edge19" class="edge">
<title>12780&#45;&gt;12781</title>
<path fill="none" stroke="black" d="M795.24,-71.75C790.48,-63.03 785.66,-54.16 781.35,-46.26"/>
<polygon fill="black" stroke="black" points="784.44,-44.61 776.58,-37.5 778.29,-47.96 784.44,-44.61"/>
</g>
<!-- 14480 -->
<g id="node21" class="node">
<title>14480</title>
<path fill="#c0c0c0" stroke="black" d="M853.5,-36C853.5,-36 823.5,-36 823.5,-36 817.5,-36 811.5,-30 811.5,-24 811.5,-24 811.5,-12 811.5,-12 811.5,-6 817.5,0 823.5,0 823.5,0 853.5,0 853.5,0 859.5,0 865.5,-6 865.5,-12 865.5,-12 865.5,-24 865.5,-24 865.5,-30 859.5,-36 853.5,-36"/>
<text text-anchor="middle" x="838.5" y="-13.32" font-family="Helvetica,sans-Serif" font-size="14.00">(...)</text>
</g>
<!-- 12780&#45;&gt;14480 -->
<g id="edge20" class="edge">
<title>12780&#45;&gt;14480</title>
<path fill="none" stroke="black" d="M828.92,-71.75C830.43,-63.42 831.97,-54.97 833.35,-47.34"/>
<polygon fill="black" stroke="black" points="836.77,-48.13 835.11,-37.66 829.88,-46.88 836.77,-48.13"/>
</g>
<!-- 14976 -->
<g id="node23" class="node">
<title>14976</title>
<path fill="#c0c0c0" stroke="black" d="M958.5,-36C958.5,-36 928.5,-36 928.5,-36 922.5,-36 916.5,-30 916.5,-24 916.5,-24 916.5,-12 916.5,-12 916.5,-6 922.5,0 928.5,0 928.5,0 958.5,0 958.5,0 964.5,0 970.5,-6 970.5,-12 970.5,-12 970.5,-24 970.5,-24 970.5,-30 964.5,-36 958.5,-36"/>
<text text-anchor="middle" x="943.5" y="-13.32" font-family="Helvetica,sans-Serif" font-size="14.00">(...)</text>
</g>
<!-- 14975&#45;&gt;14976 -->
<g id="edge22" class="edge">
<title>14975&#45;&gt;14976</title>
<path fill="none" stroke="black" d="M973.84,-71.75C968.76,-62.93 963.6,-53.96 959.02,-45.99"/>
<polygon fill="black" stroke="black" points="962.15,-44.41 954.13,-37.48 956.08,-47.9 962.15,-44.41"/>
</g>
<!-- 15555 -->
<g id="node24" class="node">
<title>15555</title>
<path fill="#c0c0c0" stroke="black" d="M1030.5,-36C1030.5,-36 1000.5,-36 1000.5,-36 994.5,-36 988.5,-30 988.5,-24 988.5,-24 988.5,-12 988.5,-12 988.5,-6 994.5,0 1000.5,0 1000.5,0 1030.5,0 1030.5,0 1036.5,0 1042.5,-6 1042.5,-12 1042.5,-12 1042.5,-24 1042.5,-24 1042.5,-30 1036.5,-36 1030.5,-36"/>
<text text-anchor="middle" x="1015.5" y="-13.32" font-family="Helvetica,sans-Serif" font-size="14.00">(...)</text>
</g>
<!-- 14975&#45;&gt;15555 -->
<g id="edge23" class="edge">
<title>14975&#45;&gt;15555</title>
<path fill="none" stroke="black" d="M1007.52,-71.75C1008.78,-63.42 1010.06,-54.97 1011.21,-47.34"/>
<polygon fill="black" stroke="black" points="1014.64,-48.08 1012.67,-37.67 1007.72,-47.03 1014.64,-48.08"/>
</g>
<!-- 15725 -->
<g id="node26" class="node">
<title>15725</title>
<path fill="#f3c3a1" stroke="black" d="M1242,-166.25C1242,-166.25 1109,-166.25 1109,-166.25 1103,-166.25 1097,-160.25 1097,-154.25 1097,-154.25 1097,-84 1097,-84 1097,-78 1103,-72 1109,-72 1109,-72 1242,-72 1242,-72 1248,-72 1254,-78 1254,-84 1254,-84 1254,-154.25 1254,-154.25 1254,-160.25 1248,-166.25 1242,-166.25"/>
<text text-anchor="middle" x="1175.5" y="-148.95" font-family="Helvetica,sans-Serif" font-size="14.00">23_G &lt;= 0.5</text>
<text text-anchor="middle" x="1175.5" y="-131.7" font-family="Helvetica,sans-Serif" font-size="14.00">entropy = 0.929</text>
<text text-anchor="middle" x="1175.5" y="-114.45" font-family="Helvetica,sans-Serif" font-size="14.00">samples = 1691</text>
<text text-anchor="middle" x="1175.5" y="-97.2" font-family="Helvetica,sans-Serif" font-size="14.00">value = [1748, 919]</text>
<text text-anchor="middle" x="1175.5" y="-79.95" font-family="Helvetica,sans-Serif" font-size="14.00">class = Animal</text>
</g>
<!-- 15724&#45;&gt;15725 -->
<g id="edge25" class="edge">
<title>15724&#45;&gt;15725</title>
<path fill="none" stroke="black" d="M1175.5,-202.07C1175.5,-194.17 1175.5,-185.88 1175.5,-177.73"/>
<polygon fill="black" stroke="black" points="1179,-177.87 1175.5,-167.87 1172,-177.87 1179,-177.87"/>
</g>
<!-- 16568 -->
<g id="node29" class="node">
<title>16568</title>
<path fill="#bbddf6" stroke="black" d="M1408.5,-166.25C1408.5,-166.25 1284.5,-166.25 1284.5,-166.25 1278.5,-166.25 1272.5,-160.25 1272.5,-154.25 1272.5,-154.25 1272.5,-84 1272.5,-84 1272.5,-78 1278.5,-72 1284.5,-72 1284.5,-72 1408.5,-72 1408.5,-72 1414.5,-72 1420.5,-78 1420.5,-84 1420.5,-84 1420.5,-154.25 1420.5,-154.25 1420.5,-160.25 1414.5,-166.25 1408.5,-166.25"/>
<text text-anchor="middle" x="1346.5" y="-148.95" font-family="Helvetica,sans-Serif" font-size="14.00">21_C &lt;= 0.5</text>
<text text-anchor="middle" x="1346.5" y="-131.7" font-family="Helvetica,sans-Serif" font-size="14.00">entropy = 0.969</text>
<text text-anchor="middle" x="1346.5" y="-114.45" font-family="Helvetica,sans-Serif" font-size="14.00">samples = 798</text>
<text text-anchor="middle" x="1346.5" y="-97.2" font-family="Helvetica,sans-Serif" font-size="14.00">value = [498, 758]</text>
<text text-anchor="middle" x="1346.5" y="-79.95" font-family="Helvetica,sans-Serif" font-size="14.00">class = Plant</text>
</g>
<!-- 15724&#45;&gt;16568 -->
<g id="edge28" class="edge">
<title>15724&#45;&gt;16568</title>
<path fill="none" stroke="black" d="M1237.23,-202.07C1249.63,-192.78 1262.75,-182.94 1275.43,-173.43"/>
<polygon fill="black" stroke="black" points="1277.46,-176.28 1283.36,-167.48 1273.26,-170.68 1277.46,-176.28"/>
</g>
<!-- 15726 -->
<g id="node27" class="node">
<title>15726</title>
<path fill="#c0c0c0" stroke="black" d="M1149.5,-36C1149.5,-36 1119.5,-36 1119.5,-36 1113.5,-36 1107.5,-30 1107.5,-24 1107.5,-24 1107.5,-12 1107.5,-12 1107.5,-6 1113.5,0 1119.5,0 1119.5,0 1149.5,0 1149.5,0 1155.5,0 1161.5,-6 1161.5,-12 1161.5,-12 1161.5,-24 1161.5,-24 1161.5,-30 1155.5,-36 1149.5,-36"/>
<text text-anchor="middle" x="1134.5" y="-13.32" font-family="Helvetica,sans-Serif" font-size="14.00">(...)</text>
</g>
<!-- 15725&#45;&gt;15726 -->
<g id="edge26" class="edge">
<title>15725&#45;&gt;15726</title>
<path fill="none" stroke="black" d="M1156.32,-71.75C1152.79,-63.22 1149.21,-54.57 1146,-46.8"/>
<polygon fill="black" stroke="black" points="1149.24,-45.47 1142.18,-37.57 1142.77,-48.15 1149.24,-45.47"/>
</g>
<!-- 16533 -->
<g id="node28" class="node">
<title>16533</title>
<path fill="#c0c0c0" stroke="black" d="M1221.5,-36C1221.5,-36 1191.5,-36 1191.5,-36 1185.5,-36 1179.5,-30 1179.5,-24 1179.5,-24 1179.5,-12 1179.5,-12 1179.5,-6 1185.5,0 1191.5,0 1191.5,0 1221.5,0 1221.5,0 1227.5,0 1233.5,-6 1233.5,-12 1233.5,-12 1233.5,-24 1233.5,-24 1233.5,-30 1227.5,-36 1221.5,-36"/>
<text text-anchor="middle" x="1206.5" y="-13.32" font-family="Helvetica,sans-Serif" font-size="14.00">(...)</text>
</g>
<!-- 15725&#45;&gt;16533 -->
<g id="edge27" class="edge">
<title>15725&#45;&gt;16533</title>
<path fill="none" stroke="black" d="M1190,-71.75C1192.64,-63.32 1195.31,-54.77 1197.72,-47.07"/>
<polygon fill="black" stroke="black" points="1201.03,-48.21 1200.68,-37.62 1194.35,-46.12 1201.03,-48.21"/>
</g>
<!-- 16569 -->
<g id="node30" class="node">
<title>16569</title>
<path fill="#c0c0c0" stroke="black" d="M1325.5,-36C1325.5,-36 1295.5,-36 1295.5,-36 1289.5,-36 1283.5,-30 1283.5,-24 1283.5,-24 1283.5,-12 1283.5,-12 1283.5,-6 1289.5,0 1295.5,0 1295.5,0 1325.5,0 1325.5,0 1331.5,0 1337.5,-6 1337.5,-12 1337.5,-12 1337.5,-24 1337.5,-24 1337.5,-30 1331.5,-36 1325.5,-36"/>
<text text-anchor="middle" x="1310.5" y="-13.32" font-family="Helvetica,sans-Serif" font-size="14.00">(...)</text>
</g>
<!-- 16568&#45;&gt;16569 -->
<g id="edge29" class="edge">
<title>16568&#45;&gt;16569</title>
<path fill="none" stroke="black" d="M1329.66,-71.75C1326.56,-63.22 1323.42,-54.57 1320.6,-46.8"/>
<polygon fill="black" stroke="black" points="1323.96,-45.8 1317.25,-37.6 1317.38,-48.19 1323.96,-45.8"/>
</g>
<!-- 16794 -->
<g id="node31" class="node">
<title>16794</title>
<path fill="#c0c0c0" stroke="black" d="M1397.5,-36C1397.5,-36 1367.5,-36 1367.5,-36 1361.5,-36 1355.5,-30 1355.5,-24 1355.5,-24 1355.5,-12 1355.5,-12 1355.5,-6 1361.5,0 1367.5,0 1367.5,0 1397.5,0 1397.5,0 1403.5,0 1409.5,-6 1409.5,-12 1409.5,-12 1409.5,-24 1409.5,-24 1409.5,-30 1403.5,-36 1397.5,-36"/>
<text text-anchor="middle" x="1382.5" y="-13.32" font-family="Helvetica,sans-Serif" font-size="14.00">(...)</text>
</g>
<!-- 16568&#45;&gt;16794 -->
<g id="edge30" class="edge">
<title>16568&#45;&gt;16794</title>
<path fill="none" stroke="black" d="M1363.34,-71.75C1366.44,-63.22 1369.58,-54.57 1372.4,-46.8"/>
<polygon fill="black" stroke="black" points="1375.62,-48.19 1375.75,-37.6 1369.04,-45.8 1375.62,-48.19"/>
</g>
</g>
</svg>
