<?xml version="1.0" encoding="UTF-8" standalone="no"?>
<!DOCTYPE svg PUBLIC "-//W3C//DTD SVG 1.1//EN"
 "http://www.w3.org/Graphics/SVG/1.1/DTD/svg11.dtd">
<!-- Generated by graphviz version 12.0.0 (20240803.0821)
 -->
<!-- Title: Tree Pages: 1 -->
<svg width="1446pt" height="565pt"
 viewBox="0.00 0.00 1445.50 565.00" xmlns="http://www.w3.org/2000/svg" xmlns:xlink="http://www.w3.org/1999/xlink">
<g id="graph0" class="graph" transform="scale(1 1) rotate(0) translate(4 561)">
<title>Tree</title>
<polygon fill="white" stroke="none" points="-4,4 -4,-561 1441.5,-561 1441.5,4 -4,4"/>
<!-- 0 -->
<g id="node1" class="node">
<title>0</title>
<path fill="#ffffff" stroke="black" d="M812,-557C812,-557 652,-557 652,-557 646,-557 640,-551 640,-545 640,-545 640,-474.75 640,-474.75 640,-468.75 646,-462.75 652,-462.75 652,-462.75 812,-462.75 812,-462.75 818,-462.75 824,-468.75 824,-474.75 824,-474.75 824,-545 824,-545 824,-551 818,-557 812,-557"/>
<text text-anchor="middle" x="732" y="-539.7" font-family="Helvetica,sans-Serif" font-size="14.00">2_A &lt;= 0.5</text>
<text text-anchor="middle" x="732" y="-522.45" font-family="Helvetica,sans-Serif" font-size="14.00">entropy = 1.0</text>
<text text-anchor="middle" x="732" y="-505.2" font-family="Helvetica,sans-Serif" font-size="14.00">samples = 37980</text>
<text text-anchor="middle" x="732" y="-487.95" font-family="Helvetica,sans-Serif" font-size="14.00">value = [30142, 30203]</text>
<text text-anchor="middle" x="732" y="-470.7" font-family="Helvetica,sans-Serif" font-size="14.00">class = Plant</text>
</g>
<!-- 1 -->
<g id="node2" class="node">
<title>1</title>
<path fill="#e2f0fb" stroke="black" d="M639,-426.75C639,-426.75 479,-426.75 479,-426.75 473,-426.75 467,-420.75 467,-414.75 467,-414.75 467,-344.5 467,-344.5 467,-338.5 473,-332.5 479,-332.5 479,-332.5 639,-332.5 639,-332.5 645,-332.5 651,-338.5 651,-344.5 651,-344.5 651,-414.75 651,-414.75 651,-420.75 645,-426.75 639,-426.75"/>
<text text-anchor="middle" x="559" y="-409.45" font-family="Helvetica,sans-Serif" font-size="14.00">22_A &lt;= 0.5</text>
<text text-anchor="middle" x="559" y="-392.2" font-family="Helvetica,sans-Serif" font-size="14.00">entropy = 0.995</text>
<text text-anchor="middle" x="559" y="-374.95" font-family="Helvetica,sans-Serif" font-size="14.00">samples = 29074</text>
<text text-anchor="middle" x="559" y="-357.7" font-family="Helvetica,sans-Serif" font-size="14.00">value = [21266, 24983]</text>
<text text-anchor="middle" x="559" y="-340.45" font-family="Helvetica,sans-Serif" font-size="14.00">class = Plant</text>
</g>
<!-- 0&#45;&gt;1 -->
<g id="edge1" class="edge">
<title>0&#45;&gt;1</title>
<path fill="none" stroke="black" d="M669.54,-462.57C657,-453.28 643.73,-443.44 630.9,-433.93"/>
<polygon fill="black" stroke="black" points="632.99,-431.12 622.87,-427.97 628.82,-436.74 632.99,-431.12"/>
<text text-anchor="middle" x="625.33" y="-447.13" font-family="Helvetica,sans-Serif" font-size="14.00">True</text>
</g>
<!-- 12926 -->
<g id="node17" class="node">
<title>12926</title>
<path fill="#f4cbad" stroke="black" d="M985,-426.75C985,-426.75 843,-426.75 843,-426.75 837,-426.75 831,-420.75 831,-414.75 831,-414.75 831,-344.5 831,-344.5 831,-338.5 837,-332.5 843,-332.5 843,-332.5 985,-332.5 985,-332.5 991,-332.5 997,-338.5 997,-344.5 997,-344.5 997,-414.75 997,-414.75 997,-420.75 991,-426.75 985,-426.75"/>
<text text-anchor="middle" x="914" y="-409.45" font-family="Helvetica,sans-Serif" font-size="14.00">8_G &lt;= 0.5</text>
<text text-anchor="middle" x="914" y="-392.2" font-family="Helvetica,sans-Serif" font-size="14.00">entropy = 0.951</text>
<text text-anchor="middle" x="914" y="-374.95" font-family="Helvetica,sans-Serif" font-size="14.00">samples = 8906</text>
<text text-anchor="middle" x="914" y="-357.7" font-family="Helvetica,sans-Serif" font-size="14.00">value = [8876, 5220]</text>
<text text-anchor="middle" x="914" y="-340.45" font-family="Helvetica,sans-Serif" font-size="14.00">class = Animal</text>
</g>
<!-- 0&#45;&gt;12926 -->
<g id="edge16" class="edge">
<title>0&#45;&gt;12926</title>
<path fill="none" stroke="black" d="M797.96,-462.39C811.19,-453.07 825.18,-443.22 838.69,-433.69"/>
<polygon fill="black" stroke="black" points="840.56,-436.66 846.72,-428.04 836.53,-430.94 840.56,-436.66"/>
<text text-anchor="middle" x="843.69" y="-447.12" font-family="Helvetica,sans-Serif" font-size="14.00">False</text>
</g>
<!-- 2 -->
<g id="node3" class="node">
<title>2</title>
<path fill="#d2e9f9" stroke="black" d="M370,-296.5C370,-296.5 210,-296.5 210,-296.5 204,-296.5 198,-290.5 198,-284.5 198,-284.5 198,-214.25 198,-214.25 198,-208.25 204,-202.25 210,-202.25 210,-202.25 370,-202.25 370,-202.25 376,-202.25 382,-208.25 382,-214.25 382,-214.25 382,-284.5 382,-284.5 382,-290.5 376,-296.5 370,-296.5"/>
<text text-anchor="middle" x="290" y="-279.2" font-family="Helvetica,sans-Serif" font-size="14.00">19_C &lt;= 0.5</text>
<text text-anchor="middle" x="290" y="-261.95" font-family="Helvetica,sans-Serif" font-size="14.00">entropy = 0.988</text>
<text text-anchor="middle" x="290" y="-244.7" font-family="Helvetica,sans-Serif" font-size="14.00">samples = 26143</text>
<text text-anchor="middle" x="290" y="-227.45" font-family="Helvetica,sans-Serif" font-size="14.00">value = [18131, 23467]</text>
<text text-anchor="middle" x="290" y="-210.2" font-family="Helvetica,sans-Serif" font-size="14.00">class = Plant</text>
</g>
<!-- 1&#45;&gt;2 -->
<g id="edge2" class="edge">
<title>1&#45;&gt;2</title>
<path fill="none" stroke="black" d="M466.8,-334.67C442.85,-323.25 416.9,-310.88 392.45,-299.22"/>
<polygon fill="black" stroke="black" points="393.98,-296.07 383.44,-294.93 390.96,-302.39 393.98,-296.07"/>
</g>
<!-- 11457 -->
<g id="node10" class="node">
<title>11457</title>
<path fill="#f2be99" stroke="black" d="M630,-296.5C630,-296.5 488,-296.5 488,-296.5 482,-296.5 476,-290.5 476,-284.5 476,-284.5 476,-214.25 476,-214.25 476,-208.25 482,-202.25 488,-202.25 488,-202.25 630,-202.25 630,-202.25 636,-202.25 642,-208.25 642,-214.25 642,-214.25 642,-284.5 642,-284.5 642,-290.5 636,-296.5 630,-296.5"/>
<text text-anchor="middle" x="559" y="-279.2" font-family="Helvetica,sans-Serif" font-size="14.00">17_C &lt;= 0.5</text>
<text text-anchor="middle" x="559" y="-261.95" font-family="Helvetica,sans-Serif" font-size="14.00">entropy = 0.911</text>
<text text-anchor="middle" x="559" y="-244.7" font-family="Helvetica,sans-Serif" font-size="14.00">samples = 2931</text>
<text text-anchor="middle" x="559" y="-227.45" font-family="Helvetica,sans-Serif" font-size="14.00">value = [3135, 1516]</text>
<text text-anchor="middle" x="559" y="-210.2" font-family="Helvetica,sans-Serif" font-size="14.00">class = Animal</text>
</g>
<!-- 1&#45;&gt;11457 -->
<g id="edge9" class="edge">
<title>1&#45;&gt;11457</title>
<path fill="none" stroke="black" d="M559,-332.32C559,-324.42 559,-316.13 559,-307.98"/>
<polygon fill="black" stroke="black" points="562.5,-308.12 559,-298.12 555.5,-308.12 562.5,-308.12"/>
</g>
<!-- 3 -->
<g id="node4" class="node">
<title>3</title>
<path fill="#fef8f5" stroke="black" d="M172,-166.25C172,-166.25 12,-166.25 12,-166.25 6,-166.25 0,-160.25 0,-154.25 0,-154.25 0,-84 0,-84 0,-78 6,-72 12,-72 12,-72 172,-72 172,-72 178,-72 184,-78 184,-84 184,-84 184,-154.25 184,-154.25 184,-160.25 178,-166.25 172,-166.25"/>
<text text-anchor="middle" x="92" y="-148.95" font-family="Helvetica,sans-Serif" font-size="14.00">21_U &lt;= 0.5</text>
<text text-anchor="middle" x="92" y="-131.7" font-family="Helvetica,sans-Serif" font-size="14.00">entropy = 0.999</text>
<text text-anchor="middle" x="92" y="-114.45" font-family="Helvetica,sans-Serif" font-size="14.00">samples = 17388</text>
<text text-anchor="middle" x="92" y="-97.2" font-family="Helvetica,sans-Serif" font-size="14.00">value = [14168, 13424]</text>
<text text-anchor="middle" x="92" y="-79.95" font-family="Helvetica,sans-Serif" font-size="14.00">class = Animal</text>
</g>
<!-- 2&#45;&gt;3 -->
<g id="edge3" class="edge">
<title>2&#45;&gt;3</title>
<path fill="none" stroke="black" d="M218.24,-201.89C203.71,-192.48 188.34,-182.53 173.5,-172.92"/>
<polygon fill="black" stroke="black" points="175.42,-169.99 165.12,-167.49 171.61,-175.86 175.42,-169.99"/>
</g>
<!-- 8720 -->
<g id="node7" class="node">
<title>8720</title>
<path fill="#87c4ef" stroke="black" d="M365.5,-166.25C365.5,-166.25 214.5,-166.25 214.5,-166.25 208.5,-166.25 202.5,-160.25 202.5,-154.25 202.5,-154.25 202.5,-84 202.5,-84 202.5,-78 208.5,-72 214.5,-72 214.5,-72 365.5,-72 365.5,-72 371.5,-72 377.5,-78 377.5,-84 377.5,-84 377.5,-154.25 377.5,-154.25 377.5,-160.25 371.5,-166.25 365.5,-166.25"/>
<text text-anchor="middle" x="290" y="-148.95" font-family="Helvetica,sans-Serif" font-size="14.00">22_G &lt;= 0.5</text>
<text text-anchor="middle" x="290" y="-131.7" font-family="Helvetica,sans-Serif" font-size="14.00">entropy = 0.859</text>
<text text-anchor="middle" x="290" y="-114.45" font-family="Helvetica,sans-Serif" font-size="14.00">samples = 8755</text>
<text text-anchor="middle" x="290" y="-97.2" font-family="Helvetica,sans-Serif" font-size="14.00">value = [3963, 10043]</text>
<text text-anchor="middle" x="290" y="-79.95" font-family="Helvetica,sans-Serif" font-size="14.00">class = Plant</text>
</g>
<!-- 2&#45;&gt;8720 -->
<g id="edge6" class="edge">
<title>2&#45;&gt;8720</title>
<path fill="none" stroke="black" d="M290,-202.07C290,-194.17 290,-185.88 290,-177.73"/>
<polygon fill="black" stroke="black" points="293.5,-177.87 290,-167.87 286.5,-177.87 293.5,-177.87"/>
</g>
<!-- 4 -->
<g id="node5" class="node">
<title>4</title>
<path fill="#c0c0c0" stroke="black" d="M71,-36C71,-36 41,-36 41,-36 35,-36 29,-30 29,-24 29,-24 29,-12 29,-12 29,-6 35,0 41,0 41,0 71,0 71,0 77,0 83,-6 83,-12 83,-12 83,-24 83,-24 83,-30 77,-36 71,-36"/>
<text text-anchor="middle" x="56" y="-13.32" font-family="Helvetica,sans-Serif" font-size="14.00">(...)</text>
</g>
<!-- 3&#45;&gt;4 -->
<g id="edge4" class="edge">
<title>3&#45;&gt;4</title>
<path fill="none" stroke="black" d="M75.16,-71.75C72.06,-63.22 68.92,-54.57 66.1,-46.8"/>
<polygon fill="black" stroke="black" points="69.46,-45.8 62.75,-37.6 62.88,-48.19 69.46,-45.8"/>
</g>
<!-- 6843 -->
<g id="node6" class="node">
<title>6843</title>
<path fill="#c0c0c0" stroke="black" d="M143,-36C143,-36 113,-36 113,-36 107,-36 101,-30 101,-24 101,-24 101,-12 101,-12 101,-6 107,0 113,0 113,0 143,0 143,0 149,0 155,-6 155,-12 155,-12 155,-24 155,-24 155,-30 149,-36 143,-36"/>
<text text-anchor="middle" x="128" y="-13.32" font-family="Helvetica,sans-Serif" font-size="14.00">(...)</text>
</g>
<!-- 3&#45;&gt;6843 -->
<g id="edge5" class="edge">
<title>3&#45;&gt;6843</title>
<path fill="none" stroke="black" d="M108.84,-71.75C111.94,-63.22 115.08,-54.57 117.9,-46.8"/>
<polygon fill="black" stroke="black" points="121.12,-48.19 121.25,-37.6 114.54,-45.8 121.12,-48.19"/>
</g>
<!-- 8721 -->
<g id="node8" class="node">
<title>8721</title>
<path fill="#c0c0c0" stroke="black" d="M271,-36C271,-36 241,-36 241,-36 235,-36 229,-30 229,-24 229,-24 229,-12 229,-12 229,-6 235,0 241,0 241,0 271,0 271,0 277,0 283,-6 283,-12 283,-12 283,-24 283,-24 283,-30 277,-36 271,-36"/>
<text text-anchor="middle" x="256" y="-13.32" font-family="Helvetica,sans-Serif" font-size="14.00">(...)</text>
</g>
<!-- 8720&#45;&gt;8721 -->
<g id="edge7" class="edge">
<title>8720&#45;&gt;8721</title>
<path fill="none" stroke="black" d="M274.1,-71.75C271.17,-63.22 268.2,-54.57 265.53,-46.8"/>
<polygon fill="black" stroke="black" points="268.94,-45.93 262.38,-37.6 262.32,-48.2 268.94,-45.93"/>
</g>
<!-- 11130 -->
<g id="node9" class="node">
<title>11130</title>
<path fill="#c0c0c0" stroke="black" d="M343,-36C343,-36 313,-36 313,-36 307,-36 301,-30 301,-24 301,-24 301,-12 301,-12 301,-6 307,0 313,0 313,0 343,0 343,0 349,0 355,-6 355,-12 355,-12 355,-24 355,-24 355,-30 349,-36 343,-36"/>
<text text-anchor="middle" x="328" y="-13.32" font-family="Helvetica,sans-Serif" font-size="14.00">(...)</text>
</g>
<!-- 8720&#45;&gt;11130 -->
<g id="edge8" class="edge">
<title>8720&#45;&gt;11130</title>
<path fill="none" stroke="black" d="M307.78,-71.75C311.05,-63.22 314.37,-54.57 317.34,-46.8"/>
<polygon fill="black" stroke="black" points="320.56,-48.18 320.88,-37.59 314.03,-45.67 320.56,-48.18"/>
</g>
<!-- 11458 -->
<g id="node11" class="node">
<title>11458</title>
<path fill="#f4c9aa" stroke="black" d="M550,-166.25C550,-166.25 408,-166.25 408,-166.25 402,-166.25 396,-160.25 396,-154.25 396,-154.25 396,-84 396,-84 396,-78 402,-72 408,-72 408,-72 550,-72 550,-72 556,-72 562,-78 562,-84 562,-84 562,-154.25 562,-154.25 562,-160.25 556,-166.25 550,-166.25"/>
<text text-anchor="middle" x="479" y="-148.95" font-family="Helvetica,sans-Serif" font-size="14.00">11_A &lt;= 0.5</text>
<text text-anchor="middle" x="479" y="-131.7" font-family="Helvetica,sans-Serif" font-size="14.00">entropy = 0.946</text>
<text text-anchor="middle" x="479" y="-114.45" font-family="Helvetica,sans-Serif" font-size="14.00">samples = 2290</text>
<text text-anchor="middle" x="479" y="-97.2" font-family="Helvetica,sans-Serif" font-size="14.00">value = [2291, 1311]</text>
<text text-anchor="middle" x="479" y="-79.95" font-family="Helvetica,sans-Serif" font-size="14.00">class = Animal</text>
</g>
<!-- 11457&#45;&gt;11458 -->
<g id="edge10" class="edge">
<title>11457&#45;&gt;11458</title>
<path fill="none" stroke="black" d="M530.12,-202.07C524.85,-193.63 519.3,-184.74 513.88,-176.05"/>
<polygon fill="black" stroke="black" points="516.9,-174.27 508.64,-167.64 510.96,-177.98 516.9,-174.27"/>
</g>
<!-- 12605 -->
<g id="node14" class="node">
<title>12605</title>
<path fill="#eba069" stroke="black" d="M716,-166.25C716,-166.25 592,-166.25 592,-166.25 586,-166.25 580,-160.25 580,-154.25 580,-154.25 580,-84 580,-84 580,-78 586,-72 592,-72 592,-72 716,-72 716,-72 722,-72 728,-78 728,-84 728,-84 728,-154.25 728,-154.25 728,-160.25 722,-166.25 716,-166.25"/>
<text text-anchor="middle" x="654" y="-148.95" font-family="Helvetica,sans-Serif" font-size="14.00">20_U &lt;= 0.5</text>
<text text-anchor="middle" x="654" y="-131.7" font-family="Helvetica,sans-Serif" font-size="14.00">entropy = 0.713</text>
<text text-anchor="middle" x="654" y="-114.45" font-family="Helvetica,sans-Serif" font-size="14.00">samples = 641</text>
<text text-anchor="middle" x="654" y="-97.2" font-family="Helvetica,sans-Serif" font-size="14.00">value = [844, 205]</text>
<text text-anchor="middle" x="654" y="-79.95" font-family="Helvetica,sans-Serif" font-size="14.00">class = Animal</text>
</g>
<!-- 11457&#45;&gt;12605 -->
<g id="edge13" class="edge">
<title>11457&#45;&gt;12605</title>
<path fill="none" stroke="black" d="M593.3,-202.07C599.69,-193.45 606.42,-184.35 612.99,-175.49"/>
<polygon fill="black" stroke="black" points="615.71,-177.69 618.85,-167.57 610.09,-173.53 615.71,-177.69"/>
</g>
<!-- 11459 -->
<g id="node12" class="node">
<title>11459</title>
<path fill="#c0c0c0" stroke="black" d="M437,-36C437,-36 407,-36 407,-36 401,-36 395,-30 395,-24 395,-24 395,-12 395,-12 395,-6 401,0 407,0 407,0 437,0 437,0 443,0 449,-6 449,-12 449,-12 449,-24 449,-24 449,-30 443,-36 437,-36"/>
<text text-anchor="middle" x="422" y="-13.32" font-family="Helvetica,sans-Serif" font-size="14.00">(...)</text>
</g>
<!-- 11458&#45;&gt;11459 -->
<g id="edge11" class="edge">
<title>11458&#45;&gt;11459</title>
<path fill="none" stroke="black" d="M452.34,-71.75C447.26,-62.93 442.1,-53.96 437.52,-45.99"/>
<polygon fill="black" stroke="black" points="440.65,-44.41 432.63,-37.48 434.58,-47.9 440.65,-44.41"/>
</g>
<!-- 12290 -->
<g id="node13" class="node">
<title>12290</title>
<path fill="#c0c0c0" stroke="black" d="M509,-36C509,-36 479,-36 479,-36 473,-36 467,-30 467,-24 467,-24 467,-12 467,-12 467,-6 473,0 479,0 479,0 509,0 509,0 515,0 521,-6 521,-12 521,-12 521,-24 521,-24 521,-30 515,-36 509,-36"/>
<text text-anchor="middle" x="494" y="-13.32" font-family="Helvetica,sans-Serif" font-size="14.00">(...)</text>
</g>
<!-- 11458&#45;&gt;12290 -->
<g id="edge12" class="edge">
<title>11458&#45;&gt;12290</title>
<path fill="none" stroke="black" d="M486.02,-71.75C487.28,-63.42 488.56,-54.97 489.71,-47.34"/>
<polygon fill="black" stroke="black" points="493.14,-48.08 491.17,-37.67 486.22,-47.03 493.14,-48.08"/>
</g>
<!-- 12606 -->
<g id="node15" class="node">
<title>12606</title>
<path fill="#c0c0c0" stroke="black" d="M612,-36C612,-36 582,-36 582,-36 576,-36 570,-30 570,-24 570,-24 570,-12 570,-12 570,-6 576,0 582,0 582,0 612,0 612,0 618,0 624,-6 624,-12 624,-12 624,-24 624,-24 624,-30 618,-36 612,-36"/>
<text text-anchor="middle" x="597" y="-13.32" font-family="Helvetica,sans-Serif" font-size="14.00">(...)</text>
</g>
<!-- 12605&#45;&gt;12606 -->
<g id="edge14" class="edge">
<title>12605&#45;&gt;12606</title>
<path fill="none" stroke="black" d="M627.34,-71.75C622.26,-62.93 617.1,-53.96 612.52,-45.99"/>
<polygon fill="black" stroke="black" points="615.65,-44.41 607.63,-37.48 609.58,-47.9 615.65,-44.41"/>
</g>
<!-- 12825 -->
<g id="node16" class="node">
<title>12825</title>
<path fill="#c0c0c0" stroke="black" d="M684,-36C684,-36 654,-36 654,-36 648,-36 642,-30 642,-24 642,-24 642,-12 642,-12 642,-6 648,0 654,0 654,0 684,0 684,0 690,0 696,-6 696,-12 696,-12 696,-24 696,-24 696,-30 690,-36 684,-36"/>
<text text-anchor="middle" x="669" y="-13.32" font-family="Helvetica,sans-Serif" font-size="14.00">(...)</text>
</g>
<!-- 12605&#45;&gt;12825 -->
<g id="edge15" class="edge">
<title>12605&#45;&gt;12825</title>
<path fill="none" stroke="black" d="M661.02,-71.75C662.28,-63.42 663.56,-54.97 664.71,-47.34"/>
<polygon fill="black" stroke="black" points="668.14,-48.08 666.17,-37.67 661.22,-47.03 668.14,-48.08"/>
</g>
<!-- 12927 -->
<g id="node18" class="node">
<title>12927</title>
<path fill="#f0b58a" stroke="black" d="M985,-296.5C985,-296.5 843,-296.5 843,-296.5 837,-296.5 831,-290.5 831,-284.5 831,-284.5 831,-214.25 831,-214.25 831,-208.25 837,-202.25 843,-202.25 843,-202.25 985,-202.25 985,-202.25 991,-202.25 997,-208.25 997,-214.25 997,-214.25 997,-284.5 997,-284.5 997,-290.5 991,-296.5 985,-296.5"/>
<text text-anchor="middle" x="914" y="-279.2" font-family="Helvetica,sans-Serif" font-size="14.00">13_U &lt;= 0.5</text>
<text text-anchor="middle" x="914" y="-261.95" font-family="Helvetica,sans-Serif" font-size="14.00">entropy = 0.87</text>
<text text-anchor="middle" x="914" y="-244.7" font-family="Helvetica,sans-Serif" font-size="14.00">samples = 6321</text>
<text text-anchor="middle" x="914" y="-227.45" font-family="Helvetica,sans-Serif" font-size="14.00">value = [7094, 2916]</text>
<text text-anchor="middle" x="914" y="-210.2" font-family="Helvetica,sans-Serif" font-size="14.00">class = Animal</text>
</g>
<!-- 12926&#45;&gt;12927 -->
<g id="edge17" class="edge">
<title>12926&#45;&gt;12927</title>
<path fill="none" stroke="black" d="M914,-332.32C914,-324.42 914,-316.13 914,-307.98"/>
<polygon fill="black" stroke="black" points="917.5,-308.12 914,-298.12 910.5,-308.12 917.5,-308.12"/>
</g>
<!-- 16030 -->
<g id="node25" class="node">
<title>16030</title>
<path fill="#d2e9f9" stroke="black" d="M1255,-296.5C1255,-296.5 1113,-296.5 1113,-296.5 1107,-296.5 1101,-290.5 1101,-284.5 1101,-284.5 1101,-214.25 1101,-214.25 1101,-208.25 1107,-202.25 1113,-202.25 1113,-202.25 1255,-202.25 1255,-202.25 1261,-202.25 1267,-208.25 1267,-214.25 1267,-214.25 1267,-284.5 1267,-284.5 1267,-290.5 1261,-296.5 1255,-296.5"/>
<text text-anchor="middle" x="1184" y="-279.2" font-family="Helvetica,sans-Serif" font-size="14.00">12_G &lt;= 0.5</text>
<text text-anchor="middle" x="1184" y="-261.95" font-family="Helvetica,sans-Serif" font-size="14.00">entropy = 0.988</text>
<text text-anchor="middle" x="1184" y="-244.7" font-family="Helvetica,sans-Serif" font-size="14.00">samples = 2585</text>
<text text-anchor="middle" x="1184" y="-227.45" font-family="Helvetica,sans-Serif" font-size="14.00">value = [1782, 2304]</text>
<text text-anchor="middle" x="1184" y="-210.2" font-family="Helvetica,sans-Serif" font-size="14.00">class = Plant</text>
</g>
<!-- 12926&#45;&gt;16030 -->
<g id="edge24" class="edge">
<title>12926&#45;&gt;16030</title>
<path fill="none" stroke="black" d="M997.21,-339.1C1026.72,-325.08 1060.13,-309.21 1090.45,-294.81"/>
<polygon fill="black" stroke="black" points="1091.7,-298.09 1099.23,-290.64 1088.7,-291.77 1091.7,-298.09"/>
</g>
<!-- 12928 -->
<g id="node19" class="node">
<title>12928</title>
<path fill="#efb084" stroke="black" d="M900,-166.25C900,-166.25 758,-166.25 758,-166.25 752,-166.25 746,-160.25 746,-154.25 746,-154.25 746,-84 746,-84 746,-78 752,-72 758,-72 758,-72 900,-72 900,-72 906,-72 912,-78 912,-84 912,-84 912,-154.25 912,-154.25 912,-160.25 906,-166.25 900,-166.25"/>
<text text-anchor="middle" x="829" y="-148.95" font-family="Helvetica,sans-Serif" font-size="14.00">20_A &lt;= 0.5</text>
<text text-anchor="middle" x="829" y="-131.7" font-family="Helvetica,sans-Serif" font-size="14.00">entropy = 0.847</text>
<text text-anchor="middle" x="829" y="-114.45" font-family="Helvetica,sans-Serif" font-size="14.00">samples = 4521</text>
<text text-anchor="middle" x="829" y="-97.2" font-family="Helvetica,sans-Serif" font-size="14.00">value = [5199, 1958]</text>
<text text-anchor="middle" x="829" y="-79.95" font-family="Helvetica,sans-Serif" font-size="14.00">class = Animal</text>
</g>
<!-- 12927&#45;&gt;12928 -->
<g id="edge18" class="edge">
<title>12927&#45;&gt;12928</title>
<path fill="none" stroke="black" d="M883.31,-202.07C877.66,-193.54 871.7,-184.54 865.88,-175.77"/>
<polygon fill="black" stroke="black" points="868.92,-174.02 860.48,-167.62 863.09,-177.89 868.92,-174.02"/>
</g>
<!-- 15131 -->
<g id="node22" class="node">
<title>15131</title>
<path fill="#f2c19d" stroke="black" d="M1075.5,-166.25C1075.5,-166.25 942.5,-166.25 942.5,-166.25 936.5,-166.25 930.5,-160.25 930.5,-154.25 930.5,-154.25 930.5,-84 930.5,-84 930.5,-78 936.5,-72 942.5,-72 942.5,-72 1075.5,-72 1075.5,-72 1081.5,-72 1087.5,-78 1087.5,-84 1087.5,-84 1087.5,-154.25 1087.5,-154.25 1087.5,-160.25 1081.5,-166.25 1075.5,-166.25"/>
<text text-anchor="middle" x="1009" y="-148.95" font-family="Helvetica,sans-Serif" font-size="14.00">15_U &lt;= 0.5</text>
<text text-anchor="middle" x="1009" y="-131.7" font-family="Helvetica,sans-Serif" font-size="14.00">entropy = 0.921</text>
<text text-anchor="middle" x="1009" y="-114.45" font-family="Helvetica,sans-Serif" font-size="14.00">samples = 1800</text>
<text text-anchor="middle" x="1009" y="-97.2" font-family="Helvetica,sans-Serif" font-size="14.00">value = [1895, 958]</text>
<text text-anchor="middle" x="1009" y="-79.95" font-family="Helvetica,sans-Serif" font-size="14.00">class = Animal</text>
</g>
<!-- 12927&#45;&gt;15131 -->
<g id="edge21" class="edge">
<title>12927&#45;&gt;15131</title>
<path fill="none" stroke="black" d="M948.3,-202.07C954.69,-193.45 961.42,-184.35 967.99,-175.49"/>
<polygon fill="black" stroke="black" points="970.71,-177.69 973.85,-167.57 965.09,-173.53 970.71,-177.69"/>
</g>
<!-- 12929 -->
<g id="node20" class="node">
<title>12929</title>
<path fill="#c0c0c0" stroke="black" d="M790,-36C790,-36 760,-36 760,-36 754,-36 748,-30 748,-24 748,-24 748,-12 748,-12 748,-6 754,0 760,0 760,0 790,0 790,0 796,0 802,-6 802,-12 802,-12 802,-24 802,-24 802,-30 796,-36 790,-36"/>
<text text-anchor="middle" x="775" y="-13.32" font-family="Helvetica,sans-Serif" font-size="14.00">(...)</text>
</g>
<!-- 12928&#45;&gt;12929 -->
<g id="edge19" class="edge">
<title>12928&#45;&gt;12929</title>
<path fill="none" stroke="black" d="M803.74,-71.75C798.98,-63.03 794.16,-54.16 789.85,-46.26"/>
<polygon fill="black" stroke="black" points="792.94,-44.61 785.08,-37.5 786.79,-47.96 792.94,-44.61"/>
</g>
<!-- 14596 -->
<g id="node21" class="node">
<title>14596</title>
<path fill="#c0c0c0" stroke="black" d="M862,-36C862,-36 832,-36 832,-36 826,-36 820,-30 820,-24 820,-24 820,-12 820,-12 820,-6 826,0 832,0 832,0 862,0 862,0 868,0 874,-6 874,-12 874,-12 874,-24 874,-24 874,-30 868,-36 862,-36"/>
<text text-anchor="middle" x="847" y="-13.32" font-family="Helvetica,sans-Serif" font-size="14.00">(...)</text>
</g>
<!-- 12928&#45;&gt;14596 -->
<g id="edge20" class="edge">
<title>12928&#45;&gt;14596</title>
<path fill="none" stroke="black" d="M837.42,-71.75C838.93,-63.42 840.47,-54.97 841.85,-47.34"/>
<polygon fill="black" stroke="black" points="845.27,-48.13 843.61,-37.66 838.38,-46.88 845.27,-48.13"/>
</g>
<!-- 15132 -->
<g id="node23" class="node">
<title>15132</title>
<path fill="#c0c0c0" stroke="black" d="M967,-36C967,-36 937,-36 937,-36 931,-36 925,-30 925,-24 925,-24 925,-12 925,-12 925,-6 931,0 937,0 937,0 967,0 967,0 973,0 979,-6 979,-12 979,-12 979,-24 979,-24 979,-30 973,-36 967,-36"/>
<text text-anchor="middle" x="952" y="-13.32" font-family="Helvetica,sans-Serif" font-size="14.00">(...)</text>
</g>
<!-- 15131&#45;&gt;15132 -->
<g id="edge22" class="edge">
<title>15131&#45;&gt;15132</title>
<path fill="none" stroke="black" d="M982.34,-71.75C977.26,-62.93 972.1,-53.96 967.52,-45.99"/>
<polygon fill="black" stroke="black" points="970.65,-44.41 962.63,-37.48 964.58,-47.9 970.65,-44.41"/>
</g>
<!-- 15769 -->
<g id="node24" class="node">
<title>15769</title>
<path fill="#c0c0c0" stroke="black" d="M1039,-36C1039,-36 1009,-36 1009,-36 1003,-36 997,-30 997,-24 997,-24 997,-12 997,-12 997,-6 1003,0 1009,0 1009,0 1039,0 1039,0 1045,0 1051,-6 1051,-12 1051,-12 1051,-24 1051,-24 1051,-30 1045,-36 1039,-36"/>
<text text-anchor="middle" x="1024" y="-13.32" font-family="Helvetica,sans-Serif" font-size="14.00">(...)</text>
</g>
<!-- 15131&#45;&gt;15769 -->
<g id="edge23" class="edge">
<title>15131&#45;&gt;15769</title>
<path fill="none" stroke="black" d="M1016.02,-71.75C1017.28,-63.42 1018.56,-54.97 1019.71,-47.34"/>
<polygon fill="black" stroke="black" points="1023.14,-48.08 1021.17,-37.67 1016.22,-47.03 1023.14,-48.08"/>
</g>
<!-- 16031 -->
<g id="node26" class="node">
<title>16031</title>
<path fill="#f7d8c1" stroke="black" d="M1250.5,-166.25C1250.5,-166.25 1117.5,-166.25 1117.5,-166.25 1111.5,-166.25 1105.5,-160.25 1105.5,-154.25 1105.5,-154.25 1105.5,-84 1105.5,-84 1105.5,-78 1111.5,-72 1117.5,-72 1117.5,-72 1250.5,-72 1250.5,-72 1256.5,-72 1262.5,-78 1262.5,-84 1262.5,-84 1262.5,-154.25 1262.5,-154.25 1262.5,-160.25 1256.5,-166.25 1250.5,-166.25"/>
<text text-anchor="middle" x="1184" y="-148.95" font-family="Helvetica,sans-Serif" font-size="14.00">9_C &lt;= 0.5</text>
<text text-anchor="middle" x="1184" y="-131.7" font-family="Helvetica,sans-Serif" font-size="14.00">entropy = 0.975</text>
<text text-anchor="middle" x="1184" y="-114.45" font-family="Helvetica,sans-Serif" font-size="14.00">samples = 1212</text>
<text text-anchor="middle" x="1184" y="-97.2" font-family="Helvetica,sans-Serif" font-size="14.00">value = [1104, 761]</text>
<text text-anchor="middle" x="1184" y="-79.95" font-family="Helvetica,sans-Serif" font-size="14.00">class = Animal</text>
</g>
<!-- 16030&#45;&gt;16031 -->
<g id="edge25" class="edge">
<title>16030&#45;&gt;16031</title>
<path fill="none" stroke="black" d="M1184,-202.07C1184,-194.17 1184,-185.88 1184,-177.73"/>
<polygon fill="black" stroke="black" points="1187.5,-177.87 1184,-167.87 1180.5,-177.87 1187.5,-177.87"/>
</g>
<!-- 16804 -->
<g id="node29" class="node">
<title>16804</title>
<path fill="#90c8f0" stroke="black" d="M1425.5,-166.25C1425.5,-166.25 1292.5,-166.25 1292.5,-166.25 1286.5,-166.25 1280.5,-160.25 1280.5,-154.25 1280.5,-154.25 1280.5,-84 1280.5,-84 1280.5,-78 1286.5,-72 1292.5,-72 1292.5,-72 1425.5,-72 1425.5,-72 1431.5,-72 1437.5,-78 1437.5,-84 1437.5,-84 1437.5,-154.25 1437.5,-154.25 1437.5,-160.25 1431.5,-166.25 1425.5,-166.25"/>
<text text-anchor="middle" x="1359" y="-148.95" font-family="Helvetica,sans-Serif" font-size="14.00">18_C &lt;= 0.5</text>
<text text-anchor="middle" x="1359" y="-131.7" font-family="Helvetica,sans-Serif" font-size="14.00">entropy = 0.888</text>
<text text-anchor="middle" x="1359" y="-114.45" font-family="Helvetica,sans-Serif" font-size="14.00">samples = 1373</text>
<text text-anchor="middle" x="1359" y="-97.2" font-family="Helvetica,sans-Serif" font-size="14.00">value = [678, 1543]</text>
<text text-anchor="middle" x="1359" y="-79.95" font-family="Helvetica,sans-Serif" font-size="14.00">class = Plant</text>
</g>
<!-- 16030&#45;&gt;16804 -->
<g id="edge28" class="edge">
<title>16030&#45;&gt;16804</title>
<path fill="none" stroke="black" d="M1247.18,-202.07C1259.99,-192.69 1273.55,-182.75 1286.64,-173.15"/>
<polygon fill="black" stroke="black" points="1288.4,-176.2 1294.4,-167.47 1284.26,-170.56 1288.4,-176.2"/>
</g>
<!-- 16032 -->
<g id="node27" class="node">
<title>16032</title>
<path fill="#c0c0c0" stroke="black" d="M1160,-36C1160,-36 1130,-36 1130,-36 1124,-36 1118,-30 1118,-24 1118,-24 1118,-12 1118,-12 1118,-6 1124,0 1130,0 1130,0 1160,0 1160,0 1166,0 1172,-6 1172,-12 1172,-12 1172,-24 1172,-24 1172,-30 1166,-36 1160,-36"/>
<text text-anchor="middle" x="1145" y="-13.32" font-family="Helvetica,sans-Serif" font-size="14.00">(...)</text>
</g>
<!-- 16031&#45;&gt;16032 -->
<g id="edge26" class="edge">
<title>16031&#45;&gt;16032</title>
<path fill="none" stroke="black" d="M1165.76,-71.75C1162.4,-63.22 1158.99,-54.57 1155.94,-46.8"/>
<polygon fill="black" stroke="black" points="1159.23,-45.61 1152.31,-37.58 1152.71,-48.17 1159.23,-45.61"/>
</g>
<!-- 16655 -->
<g id="node28" class="node">
<title>16655</title>
<path fill="#c0c0c0" stroke="black" d="M1232,-36C1232,-36 1202,-36 1202,-36 1196,-36 1190,-30 1190,-24 1190,-24 1190,-12 1190,-12 1190,-6 1196,0 1202,0 1202,0 1232,0 1232,0 1238,0 1244,-6 1244,-12 1244,-12 1244,-24 1244,-24 1244,-30 1238,-36 1232,-36"/>
<text text-anchor="middle" x="1217" y="-13.32" font-family="Helvetica,sans-Serif" font-size="14.00">(...)</text>
</g>
<!-- 16031&#45;&gt;16655 -->
<g id="edge27" class="edge">
<title>16031&#45;&gt;16655</title>
<path fill="none" stroke="black" d="M1199.44,-71.75C1202.24,-63.32 1205.09,-54.77 1207.66,-47.07"/>
<polygon fill="black" stroke="black" points="1210.97,-48.2 1210.8,-37.61 1204.33,-45.99 1210.97,-48.2"/>
</g>
<!-- 16805 -->
<g id="node30" class="node">
<title>16805</title>
<path fill="#c0c0c0" stroke="black" d="M1338,-36C1338,-36 1308,-36 1308,-36 1302,-36 1296,-30 1296,-24 1296,-24 1296,-12 1296,-12 1296,-6 1302,0 1308,0 1308,0 1338,0 1338,0 1344,0 1350,-6 1350,-12 1350,-12 1350,-24 1350,-24 1350,-30 1344,-36 1338,-36"/>
<text text-anchor="middle" x="1323" y="-13.32" font-family="Helvetica,sans-Serif" font-size="14.00">(...)</text>
</g>
<!-- 16804&#45;&gt;16805 -->
<g id="edge29" class="edge">
<title>16804&#45;&gt;16805</title>
<path fill="none" stroke="black" d="M1342.16,-71.75C1339.06,-63.22 1335.92,-54.57 1333.1,-46.8"/>
<polygon fill="black" stroke="black" points="1336.46,-45.8 1329.75,-37.6 1329.88,-48.19 1336.46,-45.8"/>
</g>
<!-- 17036 -->
<g id="node31" class="node">
<title>17036</title>
<path fill="#c0c0c0" stroke="black" d="M1410,-36C1410,-36 1380,-36 1380,-36 1374,-36 1368,-30 1368,-24 1368,-24 1368,-12 1368,-12 1368,-6 1374,0 1380,0 1380,0 1410,0 1410,0 1416,0 1422,-6 1422,-12 1422,-12 1422,-24 1422,-24 1422,-30 1416,-36 1410,-36"/>
<text text-anchor="middle" x="1395" y="-13.32" font-family="Helvetica,sans-Serif" font-size="14.00">(...)</text>
</g>
<!-- 16804&#45;&gt;17036 -->
<g id="edge30" class="edge">
<title>16804&#45;&gt;17036</title>
<path fill="none" stroke="black" d="M1375.84,-71.75C1378.94,-63.22 1382.08,-54.57 1384.9,-46.8"/>
<polygon fill="black" stroke="black" points="1388.12,-48.19 1388.25,-37.6 1381.54,-45.8 1388.12,-48.19"/>
</g>
</g>
</svg>
