<?xml version="1.0" encoding="UTF-8" standalone="no"?>
<!DOCTYPE svg PUBLIC "-//W3C//DTD SVG 1.1//EN"
 "http://www.w3.org/Graphics/SVG/1.1/DTD/svg11.dtd">
<!-- Generated by graphviz version 12.0.0 (20240803.0821)
 -->
<!-- Title: Tree Pages: 1 -->
<svg width="1410pt" height="565pt"
 viewBox="0.00 0.00 1409.50 565.00" xmlns="http://www.w3.org/2000/svg" xmlns:xlink="http://www.w3.org/1999/xlink">
<g id="graph0" class="graph" transform="scale(1 1) rotate(0) translate(4 561)">
<title>Tree</title>
<polygon fill="white" stroke="none" points="-4,4 -4,-561 1405.5,-561 1405.5,4 -4,4"/>
<!-- 0 -->
<g id="node1" class="node">
<title>0</title>
<path fill="#fffffe" stroke="black" d="M793.5,-557C793.5,-557 633.5,-557 633.5,-557 627.5,-557 621.5,-551 621.5,-545 621.5,-545 621.5,-474.75 621.5,-474.75 621.5,-468.75 627.5,-462.75 633.5,-462.75 633.5,-462.75 793.5,-462.75 793.5,-462.75 799.5,-462.75 805.5,-468.75 805.5,-474.75 805.5,-474.75 805.5,-545 805.5,-545 805.5,-551 799.5,-557 793.5,-557"/>
<text text-anchor="middle" x="713.5" y="-539.7" font-family="Helvetica,sans-Serif" font-size="14.00">21_U &lt;= 0.5</text>
<text text-anchor="middle" x="713.5" y="-522.45" font-family="Helvetica,sans-Serif" font-size="14.00">entropy = 1.0</text>
<text text-anchor="middle" x="713.5" y="-505.2" font-family="Helvetica,sans-Serif" font-size="14.00">samples = 38156</text>
<text text-anchor="middle" x="713.5" y="-487.95" font-family="Helvetica,sans-Serif" font-size="14.00">value = [30212, 30133]</text>
<text text-anchor="middle" x="713.5" y="-470.7" font-family="Helvetica,sans-Serif" font-size="14.00">class = Animal</text>
</g>
<!-- 1 -->
<g id="node2" class="node">
<title>1</title>
<path fill="#e9f4fc" stroke="black" d="M623.5,-426.75C623.5,-426.75 463.5,-426.75 463.5,-426.75 457.5,-426.75 451.5,-420.75 451.5,-414.75 451.5,-414.75 451.5,-344.5 451.5,-344.5 451.5,-338.5 457.5,-332.5 463.5,-332.5 463.5,-332.5 623.5,-332.5 623.5,-332.5 629.5,-332.5 635.5,-338.5 635.5,-344.5 635.5,-344.5 635.5,-414.75 635.5,-414.75 635.5,-420.75 629.5,-426.75 623.5,-426.75"/>
<text text-anchor="middle" x="543.5" y="-409.45" font-family="Helvetica,sans-Serif" font-size="14.00">8_G &lt;= 0.5</text>
<text text-anchor="middle" x="543.5" y="-392.2" font-family="Helvetica,sans-Serif" font-size="14.00">entropy = 0.997</text>
<text text-anchor="middle" x="543.5" y="-374.95" font-family="Helvetica,sans-Serif" font-size="14.00">samples = 29590</text>
<text text-anchor="middle" x="543.5" y="-357.7" font-family="Helvetica,sans-Serif" font-size="14.00">value = [22029, 24785]</text>
<text text-anchor="middle" x="543.5" y="-340.45" font-family="Helvetica,sans-Serif" font-size="14.00">class = Plant</text>
</g>
<!-- 0&#45;&gt;1 -->
<g id="edge1" class="edge">
<title>0&#45;&gt;1</title>
<path fill="none" stroke="black" d="M652.13,-462.57C639.8,-453.28 626.76,-443.44 614.16,-433.93"/>
<polygon fill="black" stroke="black" points="616.37,-431.21 606.28,-427.99 612.15,-436.8 616.37,-431.21"/>
<text text-anchor="middle" x="608.53" y="-447.16" font-family="Helvetica,sans-Serif" font-size="14.00">True</text>
</g>
<!-- 13564 -->
<g id="node17" class="node">
<title>13564</title>
<path fill="#f6d3ba" stroke="black" d="M960.5,-426.75C960.5,-426.75 818.5,-426.75 818.5,-426.75 812.5,-426.75 806.5,-420.75 806.5,-414.75 806.5,-414.75 806.5,-344.5 806.5,-344.5 806.5,-338.5 812.5,-332.5 818.5,-332.5 818.5,-332.5 960.5,-332.5 960.5,-332.5 966.5,-332.5 972.5,-338.5 972.5,-344.5 972.5,-344.5 972.5,-414.75 972.5,-414.75 972.5,-420.75 966.5,-426.75 960.5,-426.75"/>
<text text-anchor="middle" x="889.5" y="-409.45" font-family="Helvetica,sans-Serif" font-size="14.00">19_C &lt;= 0.5</text>
<text text-anchor="middle" x="889.5" y="-392.2" font-family="Helvetica,sans-Serif" font-size="14.00">entropy = 0.968</text>
<text text-anchor="middle" x="889.5" y="-374.95" font-family="Helvetica,sans-Serif" font-size="14.00">samples = 8566</text>
<text text-anchor="middle" x="889.5" y="-357.7" font-family="Helvetica,sans-Serif" font-size="14.00">value = [8183, 5348]</text>
<text text-anchor="middle" x="889.5" y="-340.45" font-family="Helvetica,sans-Serif" font-size="14.00">class = Animal</text>
</g>
<!-- 0&#45;&gt;13564 -->
<g id="edge16" class="edge">
<title>0&#45;&gt;13564</title>
<path fill="none" stroke="black" d="M777.04,-462.57C789.92,-453.19 803.56,-443.25 816.73,-433.65"/>
<polygon fill="black" stroke="black" points="818.51,-436.68 824.53,-427.96 814.39,-431.03 818.51,-436.68"/>
<text text-anchor="middle" x="821.88" y="-447.1" font-family="Helvetica,sans-Serif" font-size="14.00">False</text>
</g>
<!-- 2 -->
<g id="node3" class="node">
<title>2</title>
<path fill="#fcf2ea" stroke="black" d="M356.5,-296.5C356.5,-296.5 196.5,-296.5 196.5,-296.5 190.5,-296.5 184.5,-290.5 184.5,-284.5 184.5,-284.5 184.5,-214.25 184.5,-214.25 184.5,-208.25 190.5,-202.25 196.5,-202.25 196.5,-202.25 356.5,-202.25 356.5,-202.25 362.5,-202.25 368.5,-208.25 368.5,-214.25 368.5,-214.25 368.5,-284.5 368.5,-284.5 368.5,-290.5 362.5,-296.5 356.5,-296.5"/>
<text text-anchor="middle" x="276.5" y="-279.2" font-family="Helvetica,sans-Serif" font-size="14.00">20_C &lt;= 0.5</text>
<text text-anchor="middle" x="276.5" y="-261.95" font-family="Helvetica,sans-Serif" font-size="14.00">entropy = 0.998</text>
<text text-anchor="middle" x="276.5" y="-244.7" font-family="Helvetica,sans-Serif" font-size="14.00">samples = 20345</text>
<text text-anchor="middle" x="276.5" y="-227.45" font-family="Helvetica,sans-Serif" font-size="14.00">value = [16954, 15183]</text>
<text text-anchor="middle" x="276.5" y="-210.2" font-family="Helvetica,sans-Serif" font-size="14.00">class = Animal</text>
</g>
<!-- 1&#45;&gt;2 -->
<g id="edge2" class="edge">
<title>1&#45;&gt;2</title>
<path fill="none" stroke="black" d="M451.24,-334.31C427.9,-323.1 402.68,-310.99 378.87,-299.55"/>
<polygon fill="black" stroke="black" points="380.66,-296.52 370.13,-295.35 377.63,-302.83 380.66,-296.52"/>
</g>
<!-- 9849 -->
<g id="node10" class="node">
<title>9849</title>
<path fill="#a2d1f3" stroke="black" d="M614.5,-296.5C614.5,-296.5 472.5,-296.5 472.5,-296.5 466.5,-296.5 460.5,-290.5 460.5,-284.5 460.5,-284.5 460.5,-214.25 460.5,-214.25 460.5,-208.25 466.5,-202.25 472.5,-202.25 472.5,-202.25 614.5,-202.25 614.5,-202.25 620.5,-202.25 626.5,-208.25 626.5,-214.25 626.5,-214.25 626.5,-284.5 626.5,-284.5 626.5,-290.5 620.5,-296.5 614.5,-296.5"/>
<text text-anchor="middle" x="543.5" y="-279.2" font-family="Helvetica,sans-Serif" font-size="14.00">23_G &lt;= 0.5</text>
<text text-anchor="middle" x="543.5" y="-261.95" font-family="Helvetica,sans-Serif" font-size="14.00">entropy = 0.93</text>
<text text-anchor="middle" x="543.5" y="-244.7" font-family="Helvetica,sans-Serif" font-size="14.00">samples = 9245</text>
<text text-anchor="middle" x="543.5" y="-227.45" font-family="Helvetica,sans-Serif" font-size="14.00">value = [5075, 9602]</text>
<text text-anchor="middle" x="543.5" y="-210.2" font-family="Helvetica,sans-Serif" font-size="14.00">class = Plant</text>
</g>
<!-- 1&#45;&gt;9849 -->
<g id="edge9" class="edge">
<title>1&#45;&gt;9849</title>
<path fill="none" stroke="black" d="M543.5,-332.32C543.5,-324.42 543.5,-316.13 543.5,-307.98"/>
<polygon fill="black" stroke="black" points="547,-308.12 543.5,-298.12 540,-308.12 547,-308.12"/>
</g>
<!-- 3 -->
<g id="node4" class="node">
<title>3</title>
<path fill="#f7d7c0" stroke="black" d="M163,-166.25C163,-166.25 12,-166.25 12,-166.25 6,-166.25 0,-160.25 0,-154.25 0,-154.25 0,-84 0,-84 0,-78 6,-72 12,-72 12,-72 163,-72 163,-72 169,-72 175,-78 175,-84 175,-84 175,-154.25 175,-154.25 175,-160.25 169,-166.25 163,-166.25"/>
<text text-anchor="middle" x="87.5" y="-148.95" font-family="Helvetica,sans-Serif" font-size="14.00">2_A &lt;= 0.5</text>
<text text-anchor="middle" x="87.5" y="-131.7" font-family="Helvetica,sans-Serif" font-size="14.00">entropy = 0.974</text>
<text text-anchor="middle" x="87.5" y="-114.45" font-family="Helvetica,sans-Serif" font-size="14.00">samples = 14594</text>
<text text-anchor="middle" x="87.5" y="-97.2" font-family="Helvetica,sans-Serif" font-size="14.00">value = [13716, 9348]</text>
<text text-anchor="middle" x="87.5" y="-79.95" font-family="Helvetica,sans-Serif" font-size="14.00">class = Animal</text>
</g>
<!-- 2&#45;&gt;3 -->
<g id="edge3" class="edge">
<title>2&#45;&gt;3</title>
<path fill="none" stroke="black" d="M208,-201.89C194.13,-192.48 179.46,-182.53 165.3,-172.92"/>
<polygon fill="black" stroke="black" points="167.58,-170.23 157.34,-167.51 163.65,-176.03 167.58,-170.23"/>
</g>
<!-- 7512 -->
<g id="node7" class="node">
<title>7512</title>
<path fill="#a7d3f3" stroke="black" d="M347.5,-166.25C347.5,-166.25 205.5,-166.25 205.5,-166.25 199.5,-166.25 193.5,-160.25 193.5,-154.25 193.5,-154.25 193.5,-84 193.5,-84 193.5,-78 199.5,-72 205.5,-72 205.5,-72 347.5,-72 347.5,-72 353.5,-72 359.5,-78 359.5,-84 359.5,-84 359.5,-154.25 359.5,-154.25 359.5,-160.25 353.5,-166.25 347.5,-166.25"/>
<text text-anchor="middle" x="276.5" y="-148.95" font-family="Helvetica,sans-Serif" font-size="14.00">2_A &lt;= 0.5</text>
<text text-anchor="middle" x="276.5" y="-131.7" font-family="Helvetica,sans-Serif" font-size="14.00">entropy = 0.94</text>
<text text-anchor="middle" x="276.5" y="-114.45" font-family="Helvetica,sans-Serif" font-size="14.00">samples = 5751</text>
<text text-anchor="middle" x="276.5" y="-97.2" font-family="Helvetica,sans-Serif" font-size="14.00">value = [3238, 5835]</text>
<text text-anchor="middle" x="276.5" y="-79.95" font-family="Helvetica,sans-Serif" font-size="14.00">class = Plant</text>
</g>
<!-- 2&#45;&gt;7512 -->
<g id="edge6" class="edge">
<title>2&#45;&gt;7512</title>
<path fill="none" stroke="black" d="M276.5,-202.07C276.5,-194.17 276.5,-185.88 276.5,-177.73"/>
<polygon fill="black" stroke="black" points="280,-177.87 276.5,-167.87 273,-177.87 280,-177.87"/>
</g>
<!-- 4 -->
<g id="node5" class="node">
<title>4</title>
<path fill="#c0c0c0" stroke="black" d="M66.5,-36C66.5,-36 36.5,-36 36.5,-36 30.5,-36 24.5,-30 24.5,-24 24.5,-24 24.5,-12 24.5,-12 24.5,-6 30.5,0 36.5,0 36.5,0 66.5,0 66.5,0 72.5,0 78.5,-6 78.5,-12 78.5,-12 78.5,-24 78.5,-24 78.5,-30 72.5,-36 66.5,-36"/>
<text text-anchor="middle" x="51.5" y="-13.32" font-family="Helvetica,sans-Serif" font-size="14.00">(...)</text>
</g>
<!-- 3&#45;&gt;4 -->
<g id="edge4" class="edge">
<title>3&#45;&gt;4</title>
<path fill="none" stroke="black" d="M70.66,-71.75C67.56,-63.22 64.42,-54.57 61.6,-46.8"/>
<polygon fill="black" stroke="black" points="64.96,-45.8 58.25,-37.6 58.38,-48.19 64.96,-45.8"/>
</g>
<!-- 5667 -->
<g id="node6" class="node">
<title>5667</title>
<path fill="#c0c0c0" stroke="black" d="M138.5,-36C138.5,-36 108.5,-36 108.5,-36 102.5,-36 96.5,-30 96.5,-24 96.5,-24 96.5,-12 96.5,-12 96.5,-6 102.5,0 108.5,0 108.5,0 138.5,0 138.5,0 144.5,0 150.5,-6 150.5,-12 150.5,-12 150.5,-24 150.5,-24 150.5,-30 144.5,-36 138.5,-36"/>
<text text-anchor="middle" x="123.5" y="-13.32" font-family="Helvetica,sans-Serif" font-size="14.00">(...)</text>
</g>
<!-- 3&#45;&gt;5667 -->
<g id="edge5" class="edge">
<title>3&#45;&gt;5667</title>
<path fill="none" stroke="black" d="M104.34,-71.75C107.44,-63.22 110.58,-54.57 113.4,-46.8"/>
<polygon fill="black" stroke="black" points="116.62,-48.19 116.75,-37.6 110.04,-45.8 116.62,-48.19"/>
</g>
<!-- 7513 -->
<g id="node8" class="node">
<title>7513</title>
<path fill="#c0c0c0" stroke="black" d="M254.5,-36C254.5,-36 224.5,-36 224.5,-36 218.5,-36 212.5,-30 212.5,-24 212.5,-24 212.5,-12 212.5,-12 212.5,-6 218.5,0 224.5,0 224.5,0 254.5,0 254.5,0 260.5,0 266.5,-6 266.5,-12 266.5,-12 266.5,-24 266.5,-24 266.5,-30 260.5,-36 254.5,-36"/>
<text text-anchor="middle" x="239.5" y="-13.32" font-family="Helvetica,sans-Serif" font-size="14.00">(...)</text>
</g>
<!-- 7512&#45;&gt;7513 -->
<g id="edge7" class="edge">
<title>7512&#45;&gt;7513</title>
<path fill="none" stroke="black" d="M259.19,-71.75C256.01,-63.22 252.78,-54.57 249.88,-46.8"/>
<polygon fill="black" stroke="black" points="253.22,-45.74 246.44,-37.59 246.66,-48.18 253.22,-45.74"/>
</g>
<!-- 9330 -->
<g id="node9" class="node">
<title>9330</title>
<path fill="#c0c0c0" stroke="black" d="M326.5,-36C326.5,-36 296.5,-36 296.5,-36 290.5,-36 284.5,-30 284.5,-24 284.5,-24 284.5,-12 284.5,-12 284.5,-6 290.5,0 296.5,0 296.5,0 326.5,0 326.5,0 332.5,0 338.5,-6 338.5,-12 338.5,-12 338.5,-24 338.5,-24 338.5,-30 332.5,-36 326.5,-36"/>
<text text-anchor="middle" x="311.5" y="-13.32" font-family="Helvetica,sans-Serif" font-size="14.00">(...)</text>
</g>
<!-- 7512&#45;&gt;9330 -->
<g id="edge8" class="edge">
<title>7512&#45;&gt;9330</title>
<path fill="none" stroke="black" d="M292.87,-71.75C295.89,-63.22 298.94,-54.57 301.68,-46.8"/>
<polygon fill="black" stroke="black" points="304.9,-48.19 304.93,-37.6 298.3,-45.86 304.9,-48.19"/>
</g>
<!-- 9850 -->
<g id="node11" class="node">
<title>9850</title>
<path fill="#9bcef2" stroke="black" d="M531.5,-166.25C531.5,-166.25 389.5,-166.25 389.5,-166.25 383.5,-166.25 377.5,-160.25 377.5,-154.25 377.5,-154.25 377.5,-84 377.5,-84 377.5,-78 383.5,-72 389.5,-72 389.5,-72 531.5,-72 531.5,-72 537.5,-72 543.5,-78 543.5,-84 543.5,-84 543.5,-154.25 543.5,-154.25 543.5,-160.25 537.5,-166.25 531.5,-166.25"/>
<text text-anchor="middle" x="460.5" y="-148.95" font-family="Helvetica,sans-Serif" font-size="14.00">23_A &lt;= 0.5</text>
<text text-anchor="middle" x="460.5" y="-131.7" font-family="Helvetica,sans-Serif" font-size="14.00">entropy = 0.917</text>
<text text-anchor="middle" x="460.5" y="-114.45" font-family="Helvetica,sans-Serif" font-size="14.00">samples = 8912</text>
<text text-anchor="middle" x="460.5" y="-97.2" font-family="Helvetica,sans-Serif" font-size="14.00">value = [4697, 9451]</text>
<text text-anchor="middle" x="460.5" y="-79.95" font-family="Helvetica,sans-Serif" font-size="14.00">class = Plant</text>
</g>
<!-- 9849&#45;&gt;9850 -->
<g id="edge10" class="edge">
<title>9849&#45;&gt;9850</title>
<path fill="none" stroke="black" d="M513.54,-202.07C508.01,-193.54 502.19,-184.54 496.51,-175.77"/>
<polygon fill="black" stroke="black" points="499.61,-174.12 491.24,-167.63 493.74,-177.93 499.61,-174.12"/>
</g>
<!-- 13397 -->
<g id="node14" class="node">
<title>13397</title>
<path fill="#efb388" stroke="black" d="M697.5,-166.25C697.5,-166.25 573.5,-166.25 573.5,-166.25 567.5,-166.25 561.5,-160.25 561.5,-154.25 561.5,-154.25 561.5,-84 561.5,-84 561.5,-78 567.5,-72 573.5,-72 573.5,-72 697.5,-72 697.5,-72 703.5,-72 709.5,-78 709.5,-84 709.5,-84 709.5,-154.25 709.5,-154.25 709.5,-160.25 703.5,-166.25 697.5,-166.25"/>
<text text-anchor="middle" x="635.5" y="-148.95" font-family="Helvetica,sans-Serif" font-size="14.00">25_A &lt;= 0.5</text>
<text text-anchor="middle" x="635.5" y="-131.7" font-family="Helvetica,sans-Serif" font-size="14.00">entropy = 0.863</text>
<text text-anchor="middle" x="635.5" y="-114.45" font-family="Helvetica,sans-Serif" font-size="14.00">samples = 333</text>
<text text-anchor="middle" x="635.5" y="-97.2" font-family="Helvetica,sans-Serif" font-size="14.00">value = [378, 151]</text>
<text text-anchor="middle" x="635.5" y="-79.95" font-family="Helvetica,sans-Serif" font-size="14.00">class = Animal</text>
</g>
<!-- 9849&#45;&gt;13397 -->
<g id="edge13" class="edge">
<title>9849&#45;&gt;13397</title>
<path fill="none" stroke="black" d="M576.71,-202.07C582.9,-193.45 589.43,-184.35 595.79,-175.49"/>
<polygon fill="black" stroke="black" points="598.47,-177.75 601.45,-167.59 592.78,-173.67 598.47,-177.75"/>
</g>
<!-- 9851 -->
<g id="node12" class="node">
<title>9851</title>
<path fill="#c0c0c0" stroke="black" d="M418.5,-36C418.5,-36 388.5,-36 388.5,-36 382.5,-36 376.5,-30 376.5,-24 376.5,-24 376.5,-12 376.5,-12 376.5,-6 382.5,0 388.5,0 388.5,0 418.5,0 418.5,0 424.5,0 430.5,-6 430.5,-12 430.5,-12 430.5,-24 430.5,-24 430.5,-30 424.5,-36 418.5,-36"/>
<text text-anchor="middle" x="403.5" y="-13.32" font-family="Helvetica,sans-Serif" font-size="14.00">(...)</text>
</g>
<!-- 9850&#45;&gt;9851 -->
<g id="edge11" class="edge">
<title>9850&#45;&gt;9851</title>
<path fill="none" stroke="black" d="M433.84,-71.75C428.76,-62.93 423.6,-53.96 419.02,-45.99"/>
<polygon fill="black" stroke="black" points="422.15,-44.41 414.13,-37.48 416.08,-47.9 422.15,-44.41"/>
</g>
<!-- 13266 -->
<g id="node13" class="node">
<title>13266</title>
<path fill="#c0c0c0" stroke="black" d="M490.5,-36C490.5,-36 460.5,-36 460.5,-36 454.5,-36 448.5,-30 448.5,-24 448.5,-24 448.5,-12 448.5,-12 448.5,-6 454.5,0 460.5,0 460.5,0 490.5,0 490.5,0 496.5,0 502.5,-6 502.5,-12 502.5,-12 502.5,-24 502.5,-24 502.5,-30 496.5,-36 490.5,-36"/>
<text text-anchor="middle" x="475.5" y="-13.32" font-family="Helvetica,sans-Serif" font-size="14.00">(...)</text>
</g>
<!-- 9850&#45;&gt;13266 -->
<g id="edge12" class="edge">
<title>9850&#45;&gt;13266</title>
<path fill="none" stroke="black" d="M467.52,-71.75C468.78,-63.42 470.06,-54.97 471.21,-47.34"/>
<polygon fill="black" stroke="black" points="474.64,-48.08 472.67,-37.67 467.72,-47.03 474.64,-48.08"/>
</g>
<!-- 13398 -->
<g id="node15" class="node">
<title>13398</title>
<path fill="#c0c0c0" stroke="black" d="M593.5,-36C593.5,-36 563.5,-36 563.5,-36 557.5,-36 551.5,-30 551.5,-24 551.5,-24 551.5,-12 551.5,-12 551.5,-6 557.5,0 563.5,0 563.5,0 593.5,0 593.5,0 599.5,0 605.5,-6 605.5,-12 605.5,-12 605.5,-24 605.5,-24 605.5,-30 599.5,-36 593.5,-36"/>
<text text-anchor="middle" x="578.5" y="-13.32" font-family="Helvetica,sans-Serif" font-size="14.00">(...)</text>
</g>
<!-- 13397&#45;&gt;13398 -->
<g id="edge14" class="edge">
<title>13397&#45;&gt;13398</title>
<path fill="none" stroke="black" d="M608.84,-71.75C603.76,-62.93 598.6,-53.96 594.02,-45.99"/>
<polygon fill="black" stroke="black" points="597.15,-44.41 589.13,-37.48 591.08,-47.9 597.15,-44.41"/>
</g>
<!-- 13551 -->
<g id="node16" class="node">
<title>13551</title>
<path fill="#c0c0c0" stroke="black" d="M665.5,-36C665.5,-36 635.5,-36 635.5,-36 629.5,-36 623.5,-30 623.5,-24 623.5,-24 623.5,-12 623.5,-12 623.5,-6 629.5,0 635.5,0 635.5,0 665.5,0 665.5,0 671.5,0 677.5,-6 677.5,-12 677.5,-12 677.5,-24 677.5,-24 677.5,-30 671.5,-36 665.5,-36"/>
<text text-anchor="middle" x="650.5" y="-13.32" font-family="Helvetica,sans-Serif" font-size="14.00">(...)</text>
</g>
<!-- 13397&#45;&gt;13551 -->
<g id="edge15" class="edge">
<title>13397&#45;&gt;13551</title>
<path fill="none" stroke="black" d="M642.52,-71.75C643.78,-63.42 645.06,-54.97 646.21,-47.34"/>
<polygon fill="black" stroke="black" points="649.64,-48.08 647.67,-37.67 642.72,-47.03 649.64,-48.08"/>
</g>
<!-- 13565 -->
<g id="node18" class="node">
<title>13565</title>
<path fill="#f0b890" stroke="black" d="M960.5,-296.5C960.5,-296.5 818.5,-296.5 818.5,-296.5 812.5,-296.5 806.5,-290.5 806.5,-284.5 806.5,-284.5 806.5,-214.25 806.5,-214.25 806.5,-208.25 812.5,-202.25 818.5,-202.25 818.5,-202.25 960.5,-202.25 960.5,-202.25 966.5,-202.25 972.5,-208.25 972.5,-214.25 972.5,-214.25 972.5,-284.5 972.5,-284.5 972.5,-290.5 966.5,-296.5 960.5,-296.5"/>
<text text-anchor="middle" x="889.5" y="-279.2" font-family="Helvetica,sans-Serif" font-size="14.00">23_A &lt;= 0.5</text>
<text text-anchor="middle" x="889.5" y="-261.95" font-family="Helvetica,sans-Serif" font-size="14.00">entropy = 0.888</text>
<text text-anchor="middle" x="889.5" y="-244.7" font-family="Helvetica,sans-Serif" font-size="14.00">samples = 6252</text>
<text text-anchor="middle" x="889.5" y="-227.45" font-family="Helvetica,sans-Serif" font-size="14.00">value = [6806, 2993]</text>
<text text-anchor="middle" x="889.5" y="-210.2" font-family="Helvetica,sans-Serif" font-size="14.00">class = Animal</text>
</g>
<!-- 13564&#45;&gt;13565 -->
<g id="edge17" class="edge">
<title>13564&#45;&gt;13565</title>
<path fill="none" stroke="black" d="M889.5,-332.32C889.5,-324.42 889.5,-316.13 889.5,-307.98"/>
<polygon fill="black" stroke="black" points="893,-308.12 889.5,-298.12 886,-308.12 893,-308.12"/>
</g>
<!-- 16440 -->
<g id="node25" class="node">
<title>16440</title>
<path fill="#add6f4" stroke="black" d="M1223.5,-296.5C1223.5,-296.5 1081.5,-296.5 1081.5,-296.5 1075.5,-296.5 1069.5,-290.5 1069.5,-284.5 1069.5,-284.5 1069.5,-214.25 1069.5,-214.25 1069.5,-208.25 1075.5,-202.25 1081.5,-202.25 1081.5,-202.25 1223.5,-202.25 1223.5,-202.25 1229.5,-202.25 1235.5,-208.25 1235.5,-214.25 1235.5,-214.25 1235.5,-284.5 1235.5,-284.5 1235.5,-290.5 1229.5,-296.5 1223.5,-296.5"/>
<text text-anchor="middle" x="1152.5" y="-279.2" font-family="Helvetica,sans-Serif" font-size="14.00">7_C &lt;= 0.5</text>
<text text-anchor="middle" x="1152.5" y="-261.95" font-family="Helvetica,sans-Serif" font-size="14.00">entropy = 0.95</text>
<text text-anchor="middle" x="1152.5" y="-244.7" font-family="Helvetica,sans-Serif" font-size="14.00">samples = 2314</text>
<text text-anchor="middle" x="1152.5" y="-227.45" font-family="Helvetica,sans-Serif" font-size="14.00">value = [1377, 2355]</text>
<text text-anchor="middle" x="1152.5" y="-210.2" font-family="Helvetica,sans-Serif" font-size="14.00">class = Plant</text>
</g>
<!-- 13564&#45;&gt;16440 -->
<g id="edge24" class="edge">
<title>13564&#45;&gt;16440</title>
<path fill="none" stroke="black" d="M972.71,-338.05C1000.19,-324.65 1030.93,-309.66 1059.12,-295.91"/>
<polygon fill="black" stroke="black" points="1060.56,-299.1 1068.02,-291.57 1057.49,-292.81 1060.56,-299.1"/>
</g>
<!-- 13566 -->
<g id="node19" class="node">
<title>13566</title>
<path fill="#f1bc96" stroke="black" d="M881.5,-166.25C881.5,-166.25 739.5,-166.25 739.5,-166.25 733.5,-166.25 727.5,-160.25 727.5,-154.25 727.5,-154.25 727.5,-84 727.5,-84 727.5,-78 733.5,-72 739.5,-72 739.5,-72 881.5,-72 881.5,-72 887.5,-72 893.5,-78 893.5,-84 893.5,-84 893.5,-154.25 893.5,-154.25 893.5,-160.25 887.5,-166.25 881.5,-166.25"/>
<text text-anchor="middle" x="810.5" y="-148.95" font-family="Helvetica,sans-Serif" font-size="14.00">11_C &lt;= 0.5</text>
<text text-anchor="middle" x="810.5" y="-131.7" font-family="Helvetica,sans-Serif" font-size="14.00">entropy = 0.904</text>
<text text-anchor="middle" x="810.5" y="-114.45" font-family="Helvetica,sans-Serif" font-size="14.00">samples = 5774</text>
<text text-anchor="middle" x="810.5" y="-97.2" font-family="Helvetica,sans-Serif" font-size="14.00">value = [6156, 2895]</text>
<text text-anchor="middle" x="810.5" y="-79.95" font-family="Helvetica,sans-Serif" font-size="14.00">class = Animal</text>
</g>
<!-- 13565&#45;&gt;13566 -->
<g id="edge18" class="edge">
<title>13565&#45;&gt;13566</title>
<path fill="none" stroke="black" d="M860.98,-202.07C855.78,-193.63 850.3,-184.74 844.95,-176.05"/>
<polygon fill="black" stroke="black" points="848,-174.33 839.77,-167.65 842.04,-178 848,-174.33"/>
</g>
<!-- 16293 -->
<g id="node22" class="node">
<title>16293</title>
<path fill="#e99457" stroke="black" d="M1039,-166.25C1039,-166.25 924,-166.25 924,-166.25 918,-166.25 912,-160.25 912,-154.25 912,-154.25 912,-84 912,-84 912,-78 918,-72 924,-72 924,-72 1039,-72 1039,-72 1045,-72 1051,-78 1051,-84 1051,-84 1051,-154.25 1051,-154.25 1051,-160.25 1045,-166.25 1039,-166.25"/>
<text text-anchor="middle" x="981.5" y="-148.95" font-family="Helvetica,sans-Serif" font-size="14.00">22_G &lt;= 0.5</text>
<text text-anchor="middle" x="981.5" y="-131.7" font-family="Helvetica,sans-Serif" font-size="14.00">entropy = 0.56</text>
<text text-anchor="middle" x="981.5" y="-114.45" font-family="Helvetica,sans-Serif" font-size="14.00">samples = 478</text>
<text text-anchor="middle" x="981.5" y="-97.2" font-family="Helvetica,sans-Serif" font-size="14.00">value = [650, 98]</text>
<text text-anchor="middle" x="981.5" y="-79.95" font-family="Helvetica,sans-Serif" font-size="14.00">class = Animal</text>
</g>
<!-- 13565&#45;&gt;16293 -->
<g id="edge21" class="edge">
<title>13565&#45;&gt;16293</title>
<path fill="none" stroke="black" d="M922.71,-202.07C928.9,-193.45 935.43,-184.35 941.79,-175.49"/>
<polygon fill="black" stroke="black" points="944.47,-177.75 947.45,-167.59 938.78,-173.67 944.47,-177.75"/>
</g>
<!-- 13567 -->
<g id="node20" class="node">
<title>13567</title>
<path fill="#c0c0c0" stroke="black" d="M766.5,-36C766.5,-36 736.5,-36 736.5,-36 730.5,-36 724.5,-30 724.5,-24 724.5,-24 724.5,-12 724.5,-12 724.5,-6 730.5,0 736.5,0 736.5,0 766.5,0 766.5,0 772.5,0 778.5,-6 778.5,-12 778.5,-12 778.5,-24 778.5,-24 778.5,-30 772.5,-36 766.5,-36"/>
<text text-anchor="middle" x="751.5" y="-13.32" font-family="Helvetica,sans-Serif" font-size="14.00">(...)</text>
</g>
<!-- 13566&#45;&gt;13567 -->
<g id="edge19" class="edge">
<title>13566&#45;&gt;13567</title>
<path fill="none" stroke="black" d="M782.9,-71.75C777.65,-62.93 772.31,-53.96 767.56,-45.99"/>
<polygon fill="black" stroke="black" points="770.62,-44.28 762.5,-37.47 764.6,-47.86 770.62,-44.28"/>
</g>
<!-- 15688 -->
<g id="node21" class="node">
<title>15688</title>
<path fill="#c0c0c0" stroke="black" d="M838.5,-36C838.5,-36 808.5,-36 808.5,-36 802.5,-36 796.5,-30 796.5,-24 796.5,-24 796.5,-12 796.5,-12 796.5,-6 802.5,0 808.5,0 808.5,0 838.5,0 838.5,0 844.5,0 850.5,-6 850.5,-12 850.5,-12 850.5,-24 850.5,-24 850.5,-30 844.5,-36 838.5,-36"/>
<text text-anchor="middle" x="823.5" y="-13.32" font-family="Helvetica,sans-Serif" font-size="14.00">(...)</text>
</g>
<!-- 13566&#45;&gt;15688 -->
<g id="edge20" class="edge">
<title>13566&#45;&gt;15688</title>
<path fill="none" stroke="black" d="M816.58,-71.75C817.67,-63.42 818.78,-54.97 819.78,-47.34"/>
<polygon fill="black" stroke="black" points="823.22,-48.04 821.05,-37.67 816.28,-47.13 823.22,-48.04"/>
</g>
<!-- 16294 -->
<g id="node23" class="node">
<title>16294</title>
<path fill="#c0c0c0" stroke="black" d="M937.5,-36C937.5,-36 907.5,-36 907.5,-36 901.5,-36 895.5,-30 895.5,-24 895.5,-24 895.5,-12 895.5,-12 895.5,-6 901.5,0 907.5,0 907.5,0 937.5,0 937.5,0 943.5,0 949.5,-6 949.5,-12 949.5,-12 949.5,-24 949.5,-24 949.5,-30 943.5,-36 937.5,-36"/>
<text text-anchor="middle" x="922.5" y="-13.32" font-family="Helvetica,sans-Serif" font-size="14.00">(...)</text>
</g>
<!-- 16293&#45;&gt;16294 -->
<g id="edge22" class="edge">
<title>16293&#45;&gt;16294</title>
<path fill="none" stroke="black" d="M953.9,-71.75C948.65,-62.93 943.31,-53.96 938.56,-45.99"/>
<polygon fill="black" stroke="black" points="941.62,-44.28 933.5,-37.47 935.6,-47.86 941.62,-44.28"/>
</g>
<!-- 16369 -->
<g id="node24" class="node">
<title>16369</title>
<path fill="#c0c0c0" stroke="black" d="M1009.5,-36C1009.5,-36 979.5,-36 979.5,-36 973.5,-36 967.5,-30 967.5,-24 967.5,-24 967.5,-12 967.5,-12 967.5,-6 973.5,0 979.5,0 979.5,0 1009.5,0 1009.5,0 1015.5,0 1021.5,-6 1021.5,-12 1021.5,-12 1021.5,-24 1021.5,-24 1021.5,-30 1015.5,-36 1009.5,-36"/>
<text text-anchor="middle" x="994.5" y="-13.32" font-family="Helvetica,sans-Serif" font-size="14.00">(...)</text>
</g>
<!-- 16293&#45;&gt;16369 -->
<g id="edge23" class="edge">
<title>16293&#45;&gt;16369</title>
<path fill="none" stroke="black" d="M987.58,-71.75C988.67,-63.42 989.78,-54.97 990.78,-47.34"/>
<polygon fill="black" stroke="black" points="994.22,-48.04 992.05,-37.67 987.28,-47.13 994.22,-48.04"/>
</g>
<!-- 16441 -->
<g id="node26" class="node">
<title>16441</title>
<path fill="#a0d0f2" stroke="black" d="M1223.5,-166.25C1223.5,-166.25 1081.5,-166.25 1081.5,-166.25 1075.5,-166.25 1069.5,-160.25 1069.5,-154.25 1069.5,-154.25 1069.5,-84 1069.5,-84 1069.5,-78 1075.5,-72 1081.5,-72 1081.5,-72 1223.5,-72 1223.5,-72 1229.5,-72 1235.5,-78 1235.5,-84 1235.5,-84 1235.5,-154.25 1235.5,-154.25 1235.5,-160.25 1229.5,-166.25 1223.5,-166.25"/>
<text text-anchor="middle" x="1152.5" y="-148.95" font-family="Helvetica,sans-Serif" font-size="14.00">23_G &lt;= 0.5</text>
<text text-anchor="middle" x="1152.5" y="-131.7" font-family="Helvetica,sans-Serif" font-size="14.00">entropy = 0.926</text>
<text text-anchor="middle" x="1152.5" y="-114.45" font-family="Helvetica,sans-Serif" font-size="14.00">samples = 1957</text>
<text text-anchor="middle" x="1152.5" y="-97.2" font-family="Helvetica,sans-Serif" font-size="14.00">value = [1075, 2073]</text>
<text text-anchor="middle" x="1152.5" y="-79.95" font-family="Helvetica,sans-Serif" font-size="14.00">class = Plant</text>
</g>
<!-- 16440&#45;&gt;16441 -->
<g id="edge25" class="edge">
<title>16440&#45;&gt;16441</title>
<path fill="none" stroke="black" d="M1152.5,-202.07C1152.5,-194.17 1152.5,-185.88 1152.5,-177.73"/>
<polygon fill="black" stroke="black" points="1156,-177.87 1152.5,-167.87 1149,-177.87 1156,-177.87"/>
</g>
<!-- 17182 -->
<g id="node29" class="node">
<title>17182</title>
<path fill="#fdf7f2" stroke="black" d="M1389.5,-166.25C1389.5,-166.25 1265.5,-166.25 1265.5,-166.25 1259.5,-166.25 1253.5,-160.25 1253.5,-154.25 1253.5,-154.25 1253.5,-84 1253.5,-84 1253.5,-78 1259.5,-72 1265.5,-72 1265.5,-72 1389.5,-72 1389.5,-72 1395.5,-72 1401.5,-78 1401.5,-84 1401.5,-84 1401.5,-154.25 1401.5,-154.25 1401.5,-160.25 1395.5,-166.25 1389.5,-166.25"/>
<text text-anchor="middle" x="1327.5" y="-148.95" font-family="Helvetica,sans-Serif" font-size="14.00">15_A &lt;= 0.5</text>
<text text-anchor="middle" x="1327.5" y="-131.7" font-family="Helvetica,sans-Serif" font-size="14.00">entropy = 0.999</text>
<text text-anchor="middle" x="1327.5" y="-114.45" font-family="Helvetica,sans-Serif" font-size="14.00">samples = 357</text>
<text text-anchor="middle" x="1327.5" y="-97.2" font-family="Helvetica,sans-Serif" font-size="14.00">value = [302, 282]</text>
<text text-anchor="middle" x="1327.5" y="-79.95" font-family="Helvetica,sans-Serif" font-size="14.00">class = Animal</text>
</g>
<!-- 16440&#45;&gt;17182 -->
<g id="edge28" class="edge">
<title>16440&#45;&gt;17182</title>
<path fill="none" stroke="black" d="M1215.68,-202.07C1228.49,-192.69 1242.05,-182.75 1255.14,-173.15"/>
<polygon fill="black" stroke="black" points="1256.9,-176.2 1262.9,-167.47 1252.76,-170.56 1256.9,-176.2"/>
</g>
<!-- 16442 -->
<g id="node27" class="node">
<title>16442</title>
<path fill="#c0c0c0" stroke="black" d="M1128.5,-36C1128.5,-36 1098.5,-36 1098.5,-36 1092.5,-36 1086.5,-30 1086.5,-24 1086.5,-24 1086.5,-12 1086.5,-12 1086.5,-6 1092.5,0 1098.5,0 1098.5,0 1128.5,0 1128.5,0 1134.5,0 1140.5,-6 1140.5,-12 1140.5,-12 1140.5,-24 1140.5,-24 1140.5,-30 1134.5,-36 1128.5,-36"/>
<text text-anchor="middle" x="1113.5" y="-13.32" font-family="Helvetica,sans-Serif" font-size="14.00">(...)</text>
</g>
<!-- 16441&#45;&gt;16442 -->
<g id="edge26" class="edge">
<title>16441&#45;&gt;16442</title>
<path fill="none" stroke="black" d="M1134.26,-71.75C1130.9,-63.22 1127.49,-54.57 1124.44,-46.8"/>
<polygon fill="black" stroke="black" points="1127.73,-45.61 1120.81,-37.58 1121.21,-48.17 1127.73,-45.61"/>
</g>
<!-- 17139 -->
<g id="node28" class="node">
<title>17139</title>
<path fill="#c0c0c0" stroke="black" d="M1200.5,-36C1200.5,-36 1170.5,-36 1170.5,-36 1164.5,-36 1158.5,-30 1158.5,-24 1158.5,-24 1158.5,-12 1158.5,-12 1158.5,-6 1164.5,0 1170.5,0 1170.5,0 1200.5,0 1200.5,0 1206.5,0 1212.5,-6 1212.5,-12 1212.5,-12 1212.5,-24 1212.5,-24 1212.5,-30 1206.5,-36 1200.5,-36"/>
<text text-anchor="middle" x="1185.5" y="-13.32" font-family="Helvetica,sans-Serif" font-size="14.00">(...)</text>
</g>
<!-- 16441&#45;&gt;17139 -->
<g id="edge27" class="edge">
<title>16441&#45;&gt;17139</title>
<path fill="none" stroke="black" d="M1167.94,-71.75C1170.74,-63.32 1173.59,-54.77 1176.16,-47.07"/>
<polygon fill="black" stroke="black" points="1179.47,-48.2 1179.3,-37.61 1172.83,-45.99 1179.47,-48.2"/>
</g>
<!-- 17183 -->
<g id="node30" class="node">
<title>17183</title>
<path fill="#c0c0c0" stroke="black" d="M1306.5,-36C1306.5,-36 1276.5,-36 1276.5,-36 1270.5,-36 1264.5,-30 1264.5,-24 1264.5,-24 1264.5,-12 1264.5,-12 1264.5,-6 1270.5,0 1276.5,0 1276.5,0 1306.5,0 1306.5,0 1312.5,0 1318.5,-6 1318.5,-12 1318.5,-12 1318.5,-24 1318.5,-24 1318.5,-30 1312.5,-36 1306.5,-36"/>
<text text-anchor="middle" x="1291.5" y="-13.32" font-family="Helvetica,sans-Serif" font-size="14.00">(...)</text>
</g>
<!-- 17182&#45;&gt;17183 -->
<g id="edge29" class="edge">
<title>17182&#45;&gt;17183</title>
<path fill="none" stroke="black" d="M1310.66,-71.75C1307.56,-63.22 1304.42,-54.57 1301.6,-46.8"/>
<polygon fill="black" stroke="black" points="1304.96,-45.8 1298.25,-37.6 1298.38,-48.19 1304.96,-45.8"/>
</g>
<!-- 17312 -->
<g id="node31" class="node">
<title>17312</title>
<path fill="#c0c0c0" stroke="black" d="M1378.5,-36C1378.5,-36 1348.5,-36 1348.5,-36 1342.5,-36 1336.5,-30 1336.5,-24 1336.5,-24 1336.5,-12 1336.5,-12 1336.5,-6 1342.5,0 1348.5,0 1348.5,0 1378.5,0 1378.5,0 1384.5,0 1390.5,-6 1390.5,-12 1390.5,-12 1390.5,-24 1390.5,-24 1390.5,-30 1384.5,-36 1378.5,-36"/>
<text text-anchor="middle" x="1363.5" y="-13.32" font-family="Helvetica,sans-Serif" font-size="14.00">(...)</text>
</g>
<!-- 17182&#45;&gt;17312 -->
<g id="edge30" class="edge">
<title>17182&#45;&gt;17312</title>
<path fill="none" stroke="black" d="M1344.34,-71.75C1347.44,-63.22 1350.58,-54.57 1353.4,-46.8"/>
<polygon fill="black" stroke="black" points="1356.62,-48.19 1356.75,-37.6 1350.04,-45.8 1356.62,-48.19"/>
</g>
</g>
</svg>
