<?xml version="1.0" encoding="UTF-8" standalone="no"?>
<!DOCTYPE svg PUBLIC "-//W3C//DTD SVG 1.1//EN"
 "http://www.w3.org/Graphics/SVG/1.1/DTD/svg11.dtd">
<!-- Generated by graphviz version 12.0.0 (20240803.0821)
 -->
<!-- Title: Tree Pages: 1 -->
<svg width="1436pt" height="565pt"
 viewBox="0.00 0.00 1436.00 565.00" xmlns="http://www.w3.org/2000/svg" xmlns:xlink="http://www.w3.org/1999/xlink">
<g id="graph0" class="graph" transform="scale(1 1) rotate(0) translate(4 561)">
<title>Tree</title>
<polygon fill="white" stroke="none" points="-4,4 -4,-561 1432,-561 1432,4 -4,4"/>
<!-- 0 -->
<g id="node1" class="node">
<title>0</title>
<path fill="#fcfeff" stroke="black" d="M809,-557C809,-557 649,-557 649,-557 643,-557 637,-551 637,-545 637,-545 637,-474.75 637,-474.75 637,-468.75 643,-462.75 649,-462.75 649,-462.75 809,-462.75 809,-462.75 815,-462.75 821,-468.75 821,-474.75 821,-474.75 821,-545 821,-545 821,-551 815,-557 809,-557"/>
<text text-anchor="middle" x="729" y="-539.7" font-family="Helvetica,sans-Serif" font-size="14.00">8_G &lt;= 0.5</text>
<text text-anchor="middle" x="729" y="-522.45" font-family="Helvetica,sans-Serif" font-size="14.00">entropy = 1.0</text>
<text text-anchor="middle" x="729" y="-505.2" font-family="Helvetica,sans-Serif" font-size="14.00">samples = 38115</text>
<text text-anchor="middle" x="729" y="-487.95" font-family="Helvetica,sans-Serif" font-size="14.00">value = [29967, 30378]</text>
<text text-anchor="middle" x="729" y="-470.7" font-family="Helvetica,sans-Serif" font-size="14.00">class = Plant</text>
</g>
<!-- 1 -->
<g id="node2" class="node">
<title>1</title>
<path fill="#fae8db" stroke="black" d="M632,-426.75C632,-426.75 472,-426.75 472,-426.75 466,-426.75 460,-420.75 460,-414.75 460,-414.75 460,-344.5 460,-344.5 460,-338.5 466,-332.5 472,-332.5 472,-332.5 632,-332.5 632,-332.5 638,-332.5 644,-338.5 644,-344.5 644,-344.5 644,-414.75 644,-414.75 644,-420.75 638,-426.75 632,-426.75"/>
<text text-anchor="middle" x="552" y="-409.45" font-family="Helvetica,sans-Serif" font-size="14.00">20_C &lt;= 0.5</text>
<text text-anchor="middle" x="552" y="-392.2" font-family="Helvetica,sans-Serif" font-size="14.00">entropy = 0.993</text>
<text text-anchor="middle" x="552" y="-374.95" font-family="Helvetica,sans-Serif" font-size="14.00">samples = 26204</text>
<text text-anchor="middle" x="552" y="-357.7" font-family="Helvetica,sans-Serif" font-size="14.00">value = [22784, 18682]</text>
<text text-anchor="middle" x="552" y="-340.45" font-family="Helvetica,sans-Serif" font-size="14.00">class = Animal</text>
</g>
<!-- 0&#45;&gt;1 -->
<g id="edge1" class="edge">
<title>0&#45;&gt;1</title>
<path fill="none" stroke="black" d="M664.85,-462.39C651.99,-453.07 638.38,-443.22 625.24,-433.69"/>
<polygon fill="black" stroke="black" points="627.61,-431.09 617.46,-428.05 623.5,-436.75 627.61,-431.09"/>
<text text-anchor="middle" x="620.17" y="-447.18" font-family="Helvetica,sans-Serif" font-size="14.00">True</text>
</g>
<!-- 12234 -->
<g id="node17" class="node">
<title>12234</title>
<path fill="#b3d9f5" stroke="black" d="M991.5,-426.75C991.5,-426.75 840.5,-426.75 840.5,-426.75 834.5,-426.75 828.5,-420.75 828.5,-414.75 828.5,-414.75 828.5,-344.5 828.5,-344.5 828.5,-338.5 834.5,-332.5 840.5,-332.5 840.5,-332.5 991.5,-332.5 991.5,-332.5 997.5,-332.5 1003.5,-338.5 1003.5,-344.5 1003.5,-344.5 1003.5,-414.75 1003.5,-414.75 1003.5,-420.75 997.5,-426.75 991.5,-426.75"/>
<text text-anchor="middle" x="916" y="-409.45" font-family="Helvetica,sans-Serif" font-size="14.00">22_C &lt;= 0.5</text>
<text text-anchor="middle" x="916" y="-392.2" font-family="Helvetica,sans-Serif" font-size="14.00">entropy = 0.958</text>
<text text-anchor="middle" x="916" y="-374.95" font-family="Helvetica,sans-Serif" font-size="14.00">samples = 11911</text>
<text text-anchor="middle" x="916" y="-357.7" font-family="Helvetica,sans-Serif" font-size="14.00">value = [7183, 11696]</text>
<text text-anchor="middle" x="916" y="-340.45" font-family="Helvetica,sans-Serif" font-size="14.00">class = Plant</text>
</g>
<!-- 0&#45;&gt;12234 -->
<g id="edge16" class="edge">
<title>0&#45;&gt;12234</title>
<path fill="none" stroke="black" d="M796.78,-462.39C810.49,-452.98 825.01,-443.03 839.02,-433.42"/>
<polygon fill="black" stroke="black" points="840.63,-436.56 846.89,-428.02 836.67,-430.79 840.63,-436.56"/>
<text text-anchor="middle" x="843.56" y="-447.07" font-family="Helvetica,sans-Serif" font-size="14.00">False</text>
</g>
<!-- 2 -->
<g id="node3" class="node">
<title>2</title>
<path fill="#f6d3bb" stroke="black" d="M361,-296.5C361,-296.5 201,-296.5 201,-296.5 195,-296.5 189,-290.5 189,-284.5 189,-284.5 189,-214.25 189,-214.25 189,-208.25 195,-202.25 201,-202.25 201,-202.25 361,-202.25 361,-202.25 367,-202.25 373,-208.25 373,-214.25 373,-214.25 373,-284.5 373,-284.5 373,-290.5 367,-296.5 361,-296.5"/>
<text text-anchor="middle" x="281" y="-279.2" font-family="Helvetica,sans-Serif" font-size="14.00">22_U &lt;= 0.5</text>
<text text-anchor="middle" x="281" y="-261.95" font-family="Helvetica,sans-Serif" font-size="14.00">entropy = 0.968</text>
<text text-anchor="middle" x="281" y="-244.7" font-family="Helvetica,sans-Serif" font-size="14.00">samples = 18881</text>
<text text-anchor="middle" x="281" y="-227.45" font-family="Helvetica,sans-Serif" font-size="14.00">value = [18068, 11822]</text>
<text text-anchor="middle" x="281" y="-210.2" font-family="Helvetica,sans-Serif" font-size="14.00">class = Animal</text>
</g>
<!-- 1&#45;&gt;2 -->
<g id="edge2" class="edge">
<title>1&#45;&gt;2</title>
<path fill="none" stroke="black" d="M459.87,-335.03C435.33,-323.41 408.66,-310.79 383.59,-298.93"/>
<polygon fill="black" stroke="black" points="385.24,-295.83 374.7,-294.72 382.24,-302.16 385.24,-295.83"/>
</g>
<!-- 9247 -->
<g id="node10" class="node">
<title>9247</title>
<path fill="#c1e0f7" stroke="black" d="M623,-296.5C623,-296.5 481,-296.5 481,-296.5 475,-296.5 469,-290.5 469,-284.5 469,-284.5 469,-214.25 469,-214.25 469,-208.25 475,-202.25 481,-202.25 481,-202.25 623,-202.25 623,-202.25 629,-202.25 635,-208.25 635,-214.25 635,-214.25 635,-284.5 635,-284.5 635,-290.5 629,-296.5 623,-296.5"/>
<text text-anchor="middle" x="552" y="-279.2" font-family="Helvetica,sans-Serif" font-size="14.00">19_C &lt;= 0.5</text>
<text text-anchor="middle" x="552" y="-261.95" font-family="Helvetica,sans-Serif" font-size="14.00">entropy = 0.975</text>
<text text-anchor="middle" x="552" y="-244.7" font-family="Helvetica,sans-Serif" font-size="14.00">samples = 7323</text>
<text text-anchor="middle" x="552" y="-227.45" font-family="Helvetica,sans-Serif" font-size="14.00">value = [4716, 6860]</text>
<text text-anchor="middle" x="552" y="-210.2" font-family="Helvetica,sans-Serif" font-size="14.00">class = Plant</text>
</g>
<!-- 1&#45;&gt;9247 -->
<g id="edge9" class="edge">
<title>1&#45;&gt;9247</title>
<path fill="none" stroke="black" d="M552,-332.32C552,-324.42 552,-316.13 552,-307.98"/>
<polygon fill="black" stroke="black" points="555.5,-308.12 552,-298.12 548.5,-308.12 555.5,-308.12"/>
</g>
<!-- 3 -->
<g id="node4" class="node">
<title>3</title>
<path fill="#f9e3d2" stroke="black" d="M172,-166.25C172,-166.25 12,-166.25 12,-166.25 6,-166.25 0,-160.25 0,-154.25 0,-154.25 0,-84 0,-84 0,-78 6,-72 12,-72 12,-72 172,-72 172,-72 178,-72 184,-78 184,-84 184,-84 184,-154.25 184,-154.25 184,-160.25 178,-166.25 172,-166.25"/>
<text text-anchor="middle" x="92" y="-148.95" font-family="Helvetica,sans-Serif" font-size="14.00">22_A &lt;= 0.5</text>
<text text-anchor="middle" x="92" y="-131.7" font-family="Helvetica,sans-Serif" font-size="14.00">entropy = 0.988</text>
<text text-anchor="middle" x="92" y="-114.45" font-family="Helvetica,sans-Serif" font-size="14.00">samples = 15940</text>
<text text-anchor="middle" x="92" y="-97.2" font-family="Helvetica,sans-Serif" font-size="14.00">value = [14252, 11030]</text>
<text text-anchor="middle" x="92" y="-79.95" font-family="Helvetica,sans-Serif" font-size="14.00">class = Animal</text>
</g>
<!-- 2&#45;&gt;3 -->
<g id="edge3" class="edge">
<title>2&#45;&gt;3</title>
<path fill="none" stroke="black" d="M212.5,-201.89C198.63,-192.48 183.96,-182.53 169.8,-172.92"/>
<polygon fill="black" stroke="black" points="172.08,-170.23 161.84,-167.51 168.15,-176.03 172.08,-170.23"/>
</g>
<!-- 8170 -->
<g id="node7" class="node">
<title>8170</title>
<path fill="#ea9b62" stroke="black" d="M347.5,-166.25C347.5,-166.25 214.5,-166.25 214.5,-166.25 208.5,-166.25 202.5,-160.25 202.5,-154.25 202.5,-154.25 202.5,-84 202.5,-84 202.5,-78 208.5,-72 214.5,-72 214.5,-72 347.5,-72 347.5,-72 353.5,-72 359.5,-78 359.5,-84 359.5,-84 359.5,-154.25 359.5,-154.25 359.5,-160.25 353.5,-166.25 347.5,-166.25"/>
<text text-anchor="middle" x="281" y="-148.95" font-family="Helvetica,sans-Serif" font-size="14.00">18_C &lt;= 0.5</text>
<text text-anchor="middle" x="281" y="-131.7" font-family="Helvetica,sans-Serif" font-size="14.00">entropy = 0.662</text>
<text text-anchor="middle" x="281" y="-114.45" font-family="Helvetica,sans-Serif" font-size="14.00">samples = 2941</text>
<text text-anchor="middle" x="281" y="-97.2" font-family="Helvetica,sans-Serif" font-size="14.00">value = [3816, 792]</text>
<text text-anchor="middle" x="281" y="-79.95" font-family="Helvetica,sans-Serif" font-size="14.00">class = Animal</text>
</g>
<!-- 2&#45;&gt;8170 -->
<g id="edge6" class="edge">
<title>2&#45;&gt;8170</title>
<path fill="none" stroke="black" d="M281,-202.07C281,-194.17 281,-185.88 281,-177.73"/>
<polygon fill="black" stroke="black" points="284.5,-177.87 281,-167.87 277.5,-177.87 284.5,-177.87"/>
</g>
<!-- 4 -->
<g id="node5" class="node">
<title>4</title>
<path fill="#c0c0c0" stroke="black" d="M71,-36C71,-36 41,-36 41,-36 35,-36 29,-30 29,-24 29,-24 29,-12 29,-12 29,-6 35,0 41,0 41,0 71,0 71,0 77,0 83,-6 83,-12 83,-12 83,-24 83,-24 83,-30 77,-36 71,-36"/>
<text text-anchor="middle" x="56" y="-13.32" font-family="Helvetica,sans-Serif" font-size="14.00">(...)</text>
</g>
<!-- 3&#45;&gt;4 -->
<g id="edge4" class="edge">
<title>3&#45;&gt;4</title>
<path fill="none" stroke="black" d="M75.16,-71.75C72.06,-63.22 68.92,-54.57 66.1,-46.8"/>
<polygon fill="black" stroke="black" points="69.46,-45.8 62.75,-37.6 62.88,-48.19 69.46,-45.8"/>
</g>
<!-- 7113 -->
<g id="node6" class="node">
<title>7113</title>
<path fill="#c0c0c0" stroke="black" d="M143,-36C143,-36 113,-36 113,-36 107,-36 101,-30 101,-24 101,-24 101,-12 101,-12 101,-6 107,0 113,0 113,0 143,0 143,0 149,0 155,-6 155,-12 155,-12 155,-24 155,-24 155,-30 149,-36 143,-36"/>
<text text-anchor="middle" x="128" y="-13.32" font-family="Helvetica,sans-Serif" font-size="14.00">(...)</text>
</g>
<!-- 3&#45;&gt;7113 -->
<g id="edge5" class="edge">
<title>3&#45;&gt;7113</title>
<path fill="none" stroke="black" d="M108.84,-71.75C111.94,-63.22 115.08,-54.57 117.9,-46.8"/>
<polygon fill="black" stroke="black" points="121.12,-48.19 121.25,-37.6 114.54,-45.8 121.12,-48.19"/>
</g>
<!-- 8171 -->
<g id="node8" class="node">
<title>8171</title>
<path fill="#c0c0c0" stroke="black" d="M262,-36C262,-36 232,-36 232,-36 226,-36 220,-30 220,-24 220,-24 220,-12 220,-12 220,-6 226,0 232,0 232,0 262,0 262,0 268,0 274,-6 274,-12 274,-12 274,-24 274,-24 274,-30 268,-36 262,-36"/>
<text text-anchor="middle" x="247" y="-13.32" font-family="Helvetica,sans-Serif" font-size="14.00">(...)</text>
</g>
<!-- 8170&#45;&gt;8171 -->
<g id="edge7" class="edge">
<title>8170&#45;&gt;8171</title>
<path fill="none" stroke="black" d="M265.1,-71.75C262.17,-63.22 259.2,-54.57 256.53,-46.8"/>
<polygon fill="black" stroke="black" points="259.94,-45.93 253.38,-37.6 253.32,-48.2 259.94,-45.93"/>
</g>
<!-- 9010 -->
<g id="node9" class="node">
<title>9010</title>
<path fill="#c0c0c0" stroke="black" d="M334,-36C334,-36 304,-36 304,-36 298,-36 292,-30 292,-24 292,-24 292,-12 292,-12 292,-6 298,0 304,0 304,0 334,0 334,0 340,0 346,-6 346,-12 346,-12 346,-24 346,-24 346,-30 340,-36 334,-36"/>
<text text-anchor="middle" x="319" y="-13.32" font-family="Helvetica,sans-Serif" font-size="14.00">(...)</text>
</g>
<!-- 8170&#45;&gt;9010 -->
<g id="edge8" class="edge">
<title>8170&#45;&gt;9010</title>
<path fill="none" stroke="black" d="M298.78,-71.75C302.05,-63.22 305.37,-54.57 308.34,-46.8"/>
<polygon fill="black" stroke="black" points="311.56,-48.18 311.88,-37.59 305.03,-45.67 311.56,-48.18"/>
</g>
<!-- 9248 -->
<g id="node11" class="node">
<title>9248</title>
<path fill="#f0f8fd" stroke="black" d="M532,-166.25C532,-166.25 390,-166.25 390,-166.25 384,-166.25 378,-160.25 378,-154.25 378,-154.25 378,-84 378,-84 378,-78 384,-72 390,-72 390,-72 532,-72 532,-72 538,-72 544,-78 544,-84 544,-84 544,-154.25 544,-154.25 544,-160.25 538,-166.25 532,-166.25"/>
<text text-anchor="middle" x="461" y="-148.95" font-family="Helvetica,sans-Serif" font-size="14.00">10_A &lt;= 0.5</text>
<text text-anchor="middle" x="461" y="-131.7" font-family="Helvetica,sans-Serif" font-size="14.00">entropy = 0.999</text>
<text text-anchor="middle" x="461" y="-114.45" font-family="Helvetica,sans-Serif" font-size="14.00">samples = 4711</text>
<text text-anchor="middle" x="461" y="-97.2" font-family="Helvetica,sans-Serif" font-size="14.00">value = [3583, 3867]</text>
<text text-anchor="middle" x="461" y="-79.95" font-family="Helvetica,sans-Serif" font-size="14.00">class = Plant</text>
</g>
<!-- 9247&#45;&gt;9248 -->
<g id="edge10" class="edge">
<title>9247&#45;&gt;9248</title>
<path fill="none" stroke="black" d="M519.15,-202.07C513.03,-193.45 506.57,-184.35 500.28,-175.49"/>
<polygon fill="black" stroke="black" points="503.32,-173.72 494.68,-167.59 497.61,-177.77 503.32,-173.72"/>
</g>
<!-- 11473 -->
<g id="node14" class="node">
<title>11473</title>
<path fill="#84c2ef" stroke="black" d="M716,-166.25C716,-166.25 574,-166.25 574,-166.25 568,-166.25 562,-160.25 562,-154.25 562,-154.25 562,-84 562,-84 562,-78 568,-72 574,-72 574,-72 716,-72 716,-72 722,-72 728,-78 728,-84 728,-84 728,-154.25 728,-154.25 728,-160.25 722,-166.25 716,-166.25"/>
<text text-anchor="middle" x="645" y="-148.95" font-family="Helvetica,sans-Serif" font-size="14.00">8_A &lt;= 0.5</text>
<text text-anchor="middle" x="645" y="-131.7" font-family="Helvetica,sans-Serif" font-size="14.00">entropy = 0.848</text>
<text text-anchor="middle" x="645" y="-114.45" font-family="Helvetica,sans-Serif" font-size="14.00">samples = 2612</text>
<text text-anchor="middle" x="645" y="-97.2" font-family="Helvetica,sans-Serif" font-size="14.00">value = [1133, 2993]</text>
<text text-anchor="middle" x="645" y="-79.95" font-family="Helvetica,sans-Serif" font-size="14.00">class = Plant</text>
</g>
<!-- 9247&#45;&gt;11473 -->
<g id="edge13" class="edge">
<title>9247&#45;&gt;11473</title>
<path fill="none" stroke="black" d="M585.58,-202.07C591.83,-193.45 598.43,-184.35 604.85,-175.49"/>
<polygon fill="black" stroke="black" points="607.55,-177.73 610.59,-167.58 601.88,-173.62 607.55,-177.73"/>
</g>
<!-- 9249 -->
<g id="node12" class="node">
<title>9249</title>
<path fill="#c0c0c0" stroke="black" d="M424,-36C424,-36 394,-36 394,-36 388,-36 382,-30 382,-24 382,-24 382,-12 382,-12 382,-6 388,0 394,0 394,0 424,0 424,0 430,0 436,-6 436,-12 436,-12 436,-24 436,-24 436,-30 430,-36 424,-36"/>
<text text-anchor="middle" x="409" y="-13.32" font-family="Helvetica,sans-Serif" font-size="14.00">(...)</text>
</g>
<!-- 9248&#45;&gt;9249 -->
<g id="edge11" class="edge">
<title>9248&#45;&gt;9249</title>
<path fill="none" stroke="black" d="M436.67,-71.75C432.1,-63.03 427.45,-54.16 423.3,-46.26"/>
<polygon fill="black" stroke="black" points="426.46,-44.74 418.71,-37.51 420.26,-47.99 426.46,-44.74"/>
</g>
<!-- 10948 -->
<g id="node13" class="node">
<title>10948</title>
<path fill="#c0c0c0" stroke="black" d="M496,-36C496,-36 466,-36 466,-36 460,-36 454,-30 454,-24 454,-24 454,-12 454,-12 454,-6 460,0 466,0 466,0 496,0 496,0 502,0 508,-6 508,-12 508,-12 508,-24 508,-24 508,-30 502,-36 496,-36"/>
<text text-anchor="middle" x="481" y="-13.32" font-family="Helvetica,sans-Serif" font-size="14.00">(...)</text>
</g>
<!-- 9248&#45;&gt;10948 -->
<g id="edge12" class="edge">
<title>9248&#45;&gt;10948</title>
<path fill="none" stroke="black" d="M470.36,-71.75C472.04,-63.42 473.74,-54.97 475.28,-47.34"/>
<polygon fill="black" stroke="black" points="478.69,-48.15 477.24,-37.66 471.83,-46.77 478.69,-48.15"/>
</g>
<!-- 11474 -->
<g id="node15" class="node">
<title>11474</title>
<path fill="#c0c0c0" stroke="black" d="M608,-36C608,-36 578,-36 578,-36 572,-36 566,-30 566,-24 566,-24 566,-12 566,-12 566,-6 572,0 578,0 578,0 608,0 608,0 614,0 620,-6 620,-12 620,-12 620,-24 620,-24 620,-30 614,-36 608,-36"/>
<text text-anchor="middle" x="593" y="-13.32" font-family="Helvetica,sans-Serif" font-size="14.00">(...)</text>
</g>
<!-- 11473&#45;&gt;11474 -->
<g id="edge14" class="edge">
<title>11473&#45;&gt;11474</title>
<path fill="none" stroke="black" d="M620.67,-71.75C616.1,-63.03 611.45,-54.16 607.3,-46.26"/>
<polygon fill="black" stroke="black" points="610.46,-44.74 602.71,-37.51 604.26,-47.99 610.46,-44.74"/>
</g>
<!-- 12025 -->
<g id="node16" class="node">
<title>12025</title>
<path fill="#c0c0c0" stroke="black" d="M680,-36C680,-36 650,-36 650,-36 644,-36 638,-30 638,-24 638,-24 638,-12 638,-12 638,-6 644,0 650,0 650,0 680,0 680,0 686,0 692,-6 692,-12 692,-12 692,-24 692,-24 692,-30 686,-36 680,-36"/>
<text text-anchor="middle" x="665" y="-13.32" font-family="Helvetica,sans-Serif" font-size="14.00">(...)</text>
</g>
<!-- 11473&#45;&gt;12025 -->
<g id="edge15" class="edge">
<title>11473&#45;&gt;12025</title>
<path fill="none" stroke="black" d="M654.36,-71.75C656.04,-63.42 657.74,-54.97 659.28,-47.34"/>
<polygon fill="black" stroke="black" points="662.69,-48.15 661.24,-37.66 655.83,-46.77 662.69,-48.15"/>
</g>
<!-- 12235 -->
<g id="node18" class="node">
<title>12235</title>
<path fill="#a6d3f3" stroke="black" d="M991.5,-296.5C991.5,-296.5 840.5,-296.5 840.5,-296.5 834.5,-296.5 828.5,-290.5 828.5,-284.5 828.5,-284.5 828.5,-214.25 828.5,-214.25 828.5,-208.25 834.5,-202.25 840.5,-202.25 840.5,-202.25 991.5,-202.25 991.5,-202.25 997.5,-202.25 1003.5,-208.25 1003.5,-214.25 1003.5,-214.25 1003.5,-284.5 1003.5,-284.5 1003.5,-290.5 997.5,-296.5 991.5,-296.5"/>
<text text-anchor="middle" x="916" y="-279.2" font-family="Helvetica,sans-Serif" font-size="14.00">4_A &lt;= 0.5</text>
<text text-anchor="middle" x="916" y="-261.95" font-family="Helvetica,sans-Serif" font-size="14.00">entropy = 0.938</text>
<text text-anchor="middle" x="916" y="-244.7" font-family="Helvetica,sans-Serif" font-size="14.00">samples = 10865</text>
<text text-anchor="middle" x="916" y="-227.45" font-family="Helvetica,sans-Serif" font-size="14.00">value = [6115, 11117]</text>
<text text-anchor="middle" x="916" y="-210.2" font-family="Helvetica,sans-Serif" font-size="14.00">class = Plant</text>
</g>
<!-- 12234&#45;&gt;12235 -->
<g id="edge17" class="edge">
<title>12234&#45;&gt;12235</title>
<path fill="none" stroke="black" d="M916,-332.32C916,-324.42 916,-316.13 916,-307.98"/>
<polygon fill="black" stroke="black" points="919.5,-308.12 916,-298.12 912.5,-308.12 919.5,-308.12"/>
</g>
<!-- 16330 -->
<g id="node25" class="node">
<title>16330</title>
<path fill="#f3c5a4" stroke="black" d="M1254.5,-296.5C1254.5,-296.5 1121.5,-296.5 1121.5,-296.5 1115.5,-296.5 1109.5,-290.5 1109.5,-284.5 1109.5,-284.5 1109.5,-214.25 1109.5,-214.25 1109.5,-208.25 1115.5,-202.25 1121.5,-202.25 1121.5,-202.25 1254.5,-202.25 1254.5,-202.25 1260.5,-202.25 1266.5,-208.25 1266.5,-214.25 1266.5,-214.25 1266.5,-284.5 1266.5,-284.5 1266.5,-290.5 1260.5,-296.5 1254.5,-296.5"/>
<text text-anchor="middle" x="1188" y="-279.2" font-family="Helvetica,sans-Serif" font-size="14.00">4_A &lt;= 0.5</text>
<text text-anchor="middle" x="1188" y="-261.95" font-family="Helvetica,sans-Serif" font-size="14.00">entropy = 0.935</text>
<text text-anchor="middle" x="1188" y="-244.7" font-family="Helvetica,sans-Serif" font-size="14.00">samples = 1046</text>
<text text-anchor="middle" x="1188" y="-227.45" font-family="Helvetica,sans-Serif" font-size="14.00">value = [1068, 579]</text>
<text text-anchor="middle" x="1188" y="-210.2" font-family="Helvetica,sans-Serif" font-size="14.00">class = Animal</text>
</g>
<!-- 12234&#45;&gt;16330 -->
<g id="edge24" class="edge">
<title>12234&#45;&gt;16330</title>
<path fill="none" stroke="black" d="M1003.93,-337.16C1034.33,-322.83 1068.41,-306.76 1098.9,-292.38"/>
<polygon fill="black" stroke="black" points="1100.18,-295.65 1107.73,-288.22 1097.19,-289.32 1100.18,-295.65"/>
</g>
<!-- 12236 -->
<g id="node19" class="node">
<title>12236</title>
<path fill="#bcdef6" stroke="black" d="M900,-166.25C900,-166.25 758,-166.25 758,-166.25 752,-166.25 746,-160.25 746,-154.25 746,-154.25 746,-84 746,-84 746,-78 752,-72 758,-72 758,-72 900,-72 900,-72 906,-72 912,-78 912,-84 912,-84 912,-154.25 912,-154.25 912,-160.25 906,-166.25 900,-166.25"/>
<text text-anchor="middle" x="829" y="-148.95" font-family="Helvetica,sans-Serif" font-size="14.00">13_U &lt;= 0.5</text>
<text text-anchor="middle" x="829" y="-131.7" font-family="Helvetica,sans-Serif" font-size="14.00">entropy = 0.97</text>
<text text-anchor="middle" x="829" y="-114.45" font-family="Helvetica,sans-Serif" font-size="14.00">samples = 8001</text>
<text text-anchor="middle" x="829" y="-97.2" font-family="Helvetica,sans-Serif" font-size="14.00">value = [5058, 7645]</text>
<text text-anchor="middle" x="829" y="-79.95" font-family="Helvetica,sans-Serif" font-size="14.00">class = Plant</text>
</g>
<!-- 12235&#45;&gt;12236 -->
<g id="edge18" class="edge">
<title>12235&#45;&gt;12236</title>
<path fill="none" stroke="black" d="M884.59,-202.07C878.8,-193.54 872.7,-184.54 866.75,-175.77"/>
<polygon fill="black" stroke="black" points="869.72,-173.92 861.21,-167.61 863.93,-177.85 869.72,-173.92"/>
</g>
<!-- 15437 -->
<g id="node22" class="node">
<title>15437</title>
<path fill="#75bbed" stroke="black" d="M1084,-166.25C1084,-166.25 942,-166.25 942,-166.25 936,-166.25 930,-160.25 930,-154.25 930,-154.25 930,-84 930,-84 930,-78 936,-72 942,-72 942,-72 1084,-72 1084,-72 1090,-72 1096,-78 1096,-84 1096,-84 1096,-154.25 1096,-154.25 1096,-160.25 1090,-166.25 1084,-166.25"/>
<text text-anchor="middle" x="1013" y="-148.95" font-family="Helvetica,sans-Serif" font-size="14.00">12_G &lt;= 0.5</text>
<text text-anchor="middle" x="1013" y="-131.7" font-family="Helvetica,sans-Serif" font-size="14.00">entropy = 0.784</text>
<text text-anchor="middle" x="1013" y="-114.45" font-family="Helvetica,sans-Serif" font-size="14.00">samples = 2864</text>
<text text-anchor="middle" x="1013" y="-97.2" font-family="Helvetica,sans-Serif" font-size="14.00">value = [1057, 3472]</text>
<text text-anchor="middle" x="1013" y="-79.95" font-family="Helvetica,sans-Serif" font-size="14.00">class = Plant</text>
</g>
<!-- 12235&#45;&gt;15437 -->
<g id="edge21" class="edge">
<title>12235&#45;&gt;15437</title>
<path fill="none" stroke="black" d="M951.02,-202.07C957.54,-193.45 964.42,-184.35 971.13,-175.49"/>
<polygon fill="black" stroke="black" points="973.88,-177.65 977.12,-167.57 968.3,-173.43 973.88,-177.65"/>
</g>
<!-- 12237 -->
<g id="node20" class="node">
<title>12237</title>
<path fill="#c0c0c0" stroke="black" d="M792,-36C792,-36 762,-36 762,-36 756,-36 750,-30 750,-24 750,-24 750,-12 750,-12 750,-6 756,0 762,0 762,0 792,0 792,0 798,0 804,-6 804,-12 804,-12 804,-24 804,-24 804,-30 798,-36 792,-36"/>
<text text-anchor="middle" x="777" y="-13.32" font-family="Helvetica,sans-Serif" font-size="14.00">(...)</text>
</g>
<!-- 12236&#45;&gt;12237 -->
<g id="edge19" class="edge">
<title>12236&#45;&gt;12237</title>
<path fill="none" stroke="black" d="M804.67,-71.75C800.1,-63.03 795.45,-54.16 791.3,-46.26"/>
<polygon fill="black" stroke="black" points="794.46,-44.74 786.71,-37.51 788.26,-47.99 794.46,-44.74"/>
</g>
<!-- 14528 -->
<g id="node21" class="node">
<title>14528</title>
<path fill="#c0c0c0" stroke="black" d="M864,-36C864,-36 834,-36 834,-36 828,-36 822,-30 822,-24 822,-24 822,-12 822,-12 822,-6 828,0 834,0 834,0 864,0 864,0 870,0 876,-6 876,-12 876,-12 876,-24 876,-24 876,-30 870,-36 864,-36"/>
<text text-anchor="middle" x="849" y="-13.32" font-family="Helvetica,sans-Serif" font-size="14.00">(...)</text>
</g>
<!-- 12236&#45;&gt;14528 -->
<g id="edge20" class="edge">
<title>12236&#45;&gt;14528</title>
<path fill="none" stroke="black" d="M838.36,-71.75C840.04,-63.42 841.74,-54.97 843.28,-47.34"/>
<polygon fill="black" stroke="black" points="846.69,-48.15 845.24,-37.66 839.83,-46.77 846.69,-48.15"/>
</g>
<!-- 15438 -->
<g id="node23" class="node">
<title>15438</title>
<path fill="#c0c0c0" stroke="black" d="M971,-36C971,-36 941,-36 941,-36 935,-36 929,-30 929,-24 929,-24 929,-12 929,-12 929,-6 935,0 941,0 941,0 971,0 971,0 977,0 983,-6 983,-12 983,-12 983,-24 983,-24 983,-30 977,-36 971,-36"/>
<text text-anchor="middle" x="956" y="-13.32" font-family="Helvetica,sans-Serif" font-size="14.00">(...)</text>
</g>
<!-- 15437&#45;&gt;15438 -->
<g id="edge22" class="edge">
<title>15437&#45;&gt;15438</title>
<path fill="none" stroke="black" d="M986.34,-71.75C981.26,-62.93 976.1,-53.96 971.52,-45.99"/>
<polygon fill="black" stroke="black" points="974.65,-44.41 966.63,-37.48 968.58,-47.9 974.65,-44.41"/>
</g>
<!-- 16087 -->
<g id="node24" class="node">
<title>16087</title>
<path fill="#c0c0c0" stroke="black" d="M1043,-36C1043,-36 1013,-36 1013,-36 1007,-36 1001,-30 1001,-24 1001,-24 1001,-12 1001,-12 1001,-6 1007,0 1013,0 1013,0 1043,0 1043,0 1049,0 1055,-6 1055,-12 1055,-12 1055,-24 1055,-24 1055,-30 1049,-36 1043,-36"/>
<text text-anchor="middle" x="1028" y="-13.32" font-family="Helvetica,sans-Serif" font-size="14.00">(...)</text>
</g>
<!-- 15437&#45;&gt;16087 -->
<g id="edge23" class="edge">
<title>15437&#45;&gt;16087</title>
<path fill="none" stroke="black" d="M1020.02,-71.75C1021.28,-63.42 1022.56,-54.97 1023.71,-47.34"/>
<polygon fill="black" stroke="black" points="1027.14,-48.08 1025.17,-37.67 1020.22,-47.03 1027.14,-48.08"/>
</g>
<!-- 16331 -->
<g id="node26" class="node">
<title>16331</title>
<path fill="#f1bc96" stroke="black" d="M1250,-166.25C1250,-166.25 1126,-166.25 1126,-166.25 1120,-166.25 1114,-160.25 1114,-154.25 1114,-154.25 1114,-84 1114,-84 1114,-78 1120,-72 1126,-72 1126,-72 1250,-72 1250,-72 1256,-72 1262,-78 1262,-84 1262,-84 1262,-154.25 1262,-154.25 1262,-160.25 1256,-166.25 1250,-166.25"/>
<text text-anchor="middle" x="1188" y="-148.95" font-family="Helvetica,sans-Serif" font-size="14.00">9_G &lt;= 0.5</text>
<text text-anchor="middle" x="1188" y="-131.7" font-family="Helvetica,sans-Serif" font-size="14.00">entropy = 0.903</text>
<text text-anchor="middle" x="1188" y="-114.45" font-family="Helvetica,sans-Serif" font-size="14.00">samples = 853</text>
<text text-anchor="middle" x="1188" y="-97.2" font-family="Helvetica,sans-Serif" font-size="14.00">value = [926, 433]</text>
<text text-anchor="middle" x="1188" y="-79.95" font-family="Helvetica,sans-Serif" font-size="14.00">class = Animal</text>
</g>
<!-- 16330&#45;&gt;16331 -->
<g id="edge25" class="edge">
<title>16330&#45;&gt;16331</title>
<path fill="none" stroke="black" d="M1188,-202.07C1188,-194.17 1188,-185.88 1188,-177.73"/>
<polygon fill="black" stroke="black" points="1191.5,-177.87 1188,-167.87 1184.5,-177.87 1191.5,-177.87"/>
</g>
<!-- 16786 -->
<g id="node29" class="node">
<title>16786</title>
<path fill="#fafcfe" stroke="black" d="M1416,-166.25C1416,-166.25 1292,-166.25 1292,-166.25 1286,-166.25 1280,-160.25 1280,-154.25 1280,-154.25 1280,-84 1280,-84 1280,-78 1286,-72 1292,-72 1292,-72 1416,-72 1416,-72 1422,-72 1428,-78 1428,-84 1428,-84 1428,-154.25 1428,-154.25 1428,-160.25 1422,-166.25 1416,-166.25"/>
<text text-anchor="middle" x="1354" y="-148.95" font-family="Helvetica,sans-Serif" font-size="14.00">16_C &lt;= 0.5</text>
<text text-anchor="middle" x="1354" y="-131.7" font-family="Helvetica,sans-Serif" font-size="14.00">entropy = 1.0</text>
<text text-anchor="middle" x="1354" y="-114.45" font-family="Helvetica,sans-Serif" font-size="14.00">samples = 193</text>
<text text-anchor="middle" x="1354" y="-97.2" font-family="Helvetica,sans-Serif" font-size="14.00">value = [142, 146]</text>
<text text-anchor="middle" x="1354" y="-79.95" font-family="Helvetica,sans-Serif" font-size="14.00">class = Plant</text>
</g>
<!-- 16330&#45;&gt;16786 -->
<g id="edge28" class="edge">
<title>16330&#45;&gt;16786</title>
<path fill="none" stroke="black" d="M1247.93,-202.07C1259.96,-192.78 1272.7,-182.94 1285.01,-173.43"/>
<polygon fill="black" stroke="black" points="1286.91,-176.38 1292.68,-167.5 1282.63,-170.84 1286.91,-176.38"/>
</g>
<!-- 16332 -->
<g id="node27" class="node">
<title>16332</title>
<path fill="#c0c0c0" stroke="black" d="M1160,-36C1160,-36 1130,-36 1130,-36 1124,-36 1118,-30 1118,-24 1118,-24 1118,-12 1118,-12 1118,-6 1124,0 1130,0 1130,0 1160,0 1160,0 1166,0 1172,-6 1172,-12 1172,-12 1172,-24 1172,-24 1172,-30 1166,-36 1160,-36"/>
<text text-anchor="middle" x="1145" y="-13.32" font-family="Helvetica,sans-Serif" font-size="14.00">(...)</text>
</g>
<!-- 16331&#45;&gt;16332 -->
<g id="edge26" class="edge">
<title>16331&#45;&gt;16332</title>
<path fill="none" stroke="black" d="M1167.88,-71.75C1164.14,-63.12 1160.34,-54.36 1156.94,-46.53"/>
<polygon fill="black" stroke="black" points="1160.24,-45.34 1153.05,-37.56 1153.82,-48.13 1160.24,-45.34"/>
</g>
<!-- 16655 -->
<g id="node28" class="node">
<title>16655</title>
<path fill="#c0c0c0" stroke="black" d="M1232,-36C1232,-36 1202,-36 1202,-36 1196,-36 1190,-30 1190,-24 1190,-24 1190,-12 1190,-12 1190,-6 1196,0 1202,0 1202,0 1232,0 1232,0 1238,0 1244,-6 1244,-12 1244,-12 1244,-24 1244,-24 1244,-30 1238,-36 1232,-36"/>
<text text-anchor="middle" x="1217" y="-13.32" font-family="Helvetica,sans-Serif" font-size="14.00">(...)</text>
</g>
<!-- 16331&#45;&gt;16655 -->
<g id="edge27" class="edge">
<title>16331&#45;&gt;16655</title>
<path fill="none" stroke="black" d="M1201.57,-71.75C1204.03,-63.32 1206.54,-54.77 1208.79,-47.07"/>
<polygon fill="black" stroke="black" points="1212.1,-48.21 1211.55,-37.63 1205.38,-46.24 1212.1,-48.21"/>
</g>
<!-- 16787 -->
<g id="node30" class="node">
<title>16787</title>
<path fill="#c0c0c0" stroke="black" d="M1333,-36C1333,-36 1303,-36 1303,-36 1297,-36 1291,-30 1291,-24 1291,-24 1291,-12 1291,-12 1291,-6 1297,0 1303,0 1303,0 1333,0 1333,0 1339,0 1345,-6 1345,-12 1345,-12 1345,-24 1345,-24 1345,-30 1339,-36 1333,-36"/>
<text text-anchor="middle" x="1318" y="-13.32" font-family="Helvetica,sans-Serif" font-size="14.00">(...)</text>
</g>
<!-- 16786&#45;&gt;16787 -->
<g id="edge29" class="edge">
<title>16786&#45;&gt;16787</title>
<path fill="none" stroke="black" d="M1337.16,-71.75C1334.06,-63.22 1330.92,-54.57 1328.1,-46.8"/>
<polygon fill="black" stroke="black" points="1331.46,-45.8 1324.75,-37.6 1324.88,-48.19 1331.46,-45.8"/>
</g>
<!-- 16868 -->
<g id="node31" class="node">
<title>16868</title>
<path fill="#c0c0c0" stroke="black" d="M1405,-36C1405,-36 1375,-36 1375,-36 1369,-36 1363,-30 1363,-24 1363,-24 1363,-12 1363,-12 1363,-6 1369,0 1375,0 1375,0 1405,0 1405,0 1411,0 1417,-6 1417,-12 1417,-12 1417,-24 1417,-24 1417,-30 1411,-36 1405,-36"/>
<text text-anchor="middle" x="1390" y="-13.32" font-family="Helvetica,sans-Serif" font-size="14.00">(...)</text>
</g>
<!-- 16786&#45;&gt;16868 -->
<g id="edge30" class="edge">
<title>16786&#45;&gt;16868</title>
<path fill="none" stroke="black" d="M1370.84,-71.75C1373.94,-63.22 1377.08,-54.57 1379.9,-46.8"/>
<polygon fill="black" stroke="black" points="1383.12,-48.19 1383.25,-37.6 1376.54,-45.8 1383.12,-48.19"/>
</g>
</g>
</svg>
