<?xml version="1.0" encoding="UTF-8" standalone="no"?>
<!DOCTYPE svg PUBLIC "-//W3C//DTD SVG 1.1//EN"
 "http://www.w3.org/Graphics/SVG/1.1/DTD/svg11.dtd">
<!-- Generated by graphviz version 12.0.0 (20240803.0821)
 -->
<!-- Title: Tree Pages: 1 -->
<svg width="1437pt" height="565pt"
 viewBox="0.00 0.00 1437.00 565.00" xmlns="http://www.w3.org/2000/svg" xmlns:xlink="http://www.w3.org/1999/xlink">
<g id="graph0" class="graph" transform="scale(1 1) rotate(0) translate(4 561)">
<title>Tree</title>
<polygon fill="white" stroke="none" points="-4,4 -4,-561 1433,-561 1433,4 -4,4"/>
<!-- 0 -->
<g id="node1" class="node">
<title>0</title>
<path fill="#fcfeff" stroke="black" d="M814.5,-557C814.5,-557 654.5,-557 654.5,-557 648.5,-557 642.5,-551 642.5,-545 642.5,-545 642.5,-474.75 642.5,-474.75 642.5,-468.75 648.5,-462.75 654.5,-462.75 654.5,-462.75 814.5,-462.75 814.5,-462.75 820.5,-462.75 826.5,-468.75 826.5,-474.75 826.5,-474.75 826.5,-545 826.5,-545 826.5,-551 820.5,-557 814.5,-557"/>
<text text-anchor="middle" x="734.5" y="-539.7" font-family="Helvetica,sans-Serif" font-size="14.00">19_C &lt;= 0.5</text>
<text text-anchor="middle" x="734.5" y="-522.45" font-family="Helvetica,sans-Serif" font-size="14.00">entropy = 1.0</text>
<text text-anchor="middle" x="734.5" y="-505.2" font-family="Helvetica,sans-Serif" font-size="14.00">samples = 38138</text>
<text text-anchor="middle" x="734.5" y="-487.95" font-family="Helvetica,sans-Serif" font-size="14.00">value = [29946, 30399]</text>
<text text-anchor="middle" x="734.5" y="-470.7" font-family="Helvetica,sans-Serif" font-size="14.00">class = Plant</text>
</g>
<!-- 1 -->
<g id="node2" class="node">
<title>1</title>
<path fill="#f9e1cf" stroke="black" d="M632.5,-426.75C632.5,-426.75 472.5,-426.75 472.5,-426.75 466.5,-426.75 460.5,-420.75 460.5,-414.75 460.5,-414.75 460.5,-344.5 460.5,-344.5 460.5,-338.5 466.5,-332.5 472.5,-332.5 472.5,-332.5 632.5,-332.5 632.5,-332.5 638.5,-332.5 644.5,-338.5 644.5,-344.5 644.5,-344.5 644.5,-414.75 644.5,-414.75 644.5,-420.75 638.5,-426.75 632.5,-426.75"/>
<text text-anchor="middle" x="552.5" y="-409.45" font-family="Helvetica,sans-Serif" font-size="14.00">18_C &lt;= 0.5</text>
<text text-anchor="middle" x="552.5" y="-392.2" font-family="Helvetica,sans-Serif" font-size="14.00">entropy = 0.987</text>
<text text-anchor="middle" x="552.5" y="-374.95" font-family="Helvetica,sans-Serif" font-size="14.00">samples = 25732</text>
<text text-anchor="middle" x="552.5" y="-357.7" font-family="Helvetica,sans-Serif" font-size="14.00">value = [23109, 17556]</text>
<text text-anchor="middle" x="552.5" y="-340.45" font-family="Helvetica,sans-Serif" font-size="14.00">class = Animal</text>
</g>
<!-- 0&#45;&gt;1 -->
<g id="edge1" class="edge">
<title>0&#45;&gt;1</title>
<path fill="none" stroke="black" d="M668.54,-462.39C655.31,-453.07 641.32,-443.22 627.81,-433.69"/>
<polygon fill="black" stroke="black" points="629.97,-430.94 619.78,-428.04 625.94,-436.66 629.97,-430.94"/>
<text text-anchor="middle" x="622.81" y="-447.12" font-family="Helvetica,sans-Serif" font-size="14.00">True</text>
</g>
<!-- 12358 -->
<g id="node17" class="node">
<title>12358</title>
<path fill="#a2d1f3" stroke="black" d="M999,-426.75C999,-426.75 848,-426.75 848,-426.75 842,-426.75 836,-420.75 836,-414.75 836,-414.75 836,-344.5 836,-344.5 836,-338.5 842,-332.5 848,-332.5 848,-332.5 999,-332.5 999,-332.5 1005,-332.5 1011,-338.5 1011,-344.5 1011,-344.5 1011,-414.75 1011,-414.75 1011,-420.75 1005,-426.75 999,-426.75"/>
<text text-anchor="middle" x="923.5" y="-409.45" font-family="Helvetica,sans-Serif" font-size="14.00">22_U &lt;= 0.5</text>
<text text-anchor="middle" x="923.5" y="-392.2" font-family="Helvetica,sans-Serif" font-size="14.00">entropy = 0.932</text>
<text text-anchor="middle" x="923.5" y="-374.95" font-family="Helvetica,sans-Serif" font-size="14.00">samples = 12406</text>
<text text-anchor="middle" x="923.5" y="-357.7" font-family="Helvetica,sans-Serif" font-size="14.00">value = [6837, 12843]</text>
<text text-anchor="middle" x="923.5" y="-340.45" font-family="Helvetica,sans-Serif" font-size="14.00">class = Plant</text>
</g>
<!-- 0&#45;&gt;12358 -->
<g id="edge16" class="edge">
<title>0&#45;&gt;12358</title>
<path fill="none" stroke="black" d="M803,-462.39C816.87,-452.98 831.54,-443.03 845.7,-433.42"/>
<polygon fill="black" stroke="black" points="847.35,-436.53 853.66,-428.01 843.42,-430.73 847.35,-436.53"/>
<text text-anchor="middle" x="850.21" y="-447.04" font-family="Helvetica,sans-Serif" font-size="14.00">False</text>
</g>
<!-- 2 -->
<g id="node3" class="node">
<title>2</title>
<path fill="#f7d6bf" stroke="black" d="M356.5,-296.5C356.5,-296.5 196.5,-296.5 196.5,-296.5 190.5,-296.5 184.5,-290.5 184.5,-284.5 184.5,-284.5 184.5,-214.25 184.5,-214.25 184.5,-208.25 190.5,-202.25 196.5,-202.25 196.5,-202.25 356.5,-202.25 356.5,-202.25 362.5,-202.25 368.5,-208.25 368.5,-214.25 368.5,-214.25 368.5,-284.5 368.5,-284.5 368.5,-290.5 362.5,-296.5 356.5,-296.5"/>
<text text-anchor="middle" x="276.5" y="-279.2" font-family="Helvetica,sans-Serif" font-size="14.00">19_A &lt;= 0.5</text>
<text text-anchor="middle" x="276.5" y="-261.95" font-family="Helvetica,sans-Serif" font-size="14.00">entropy = 0.973</text>
<text text-anchor="middle" x="276.5" y="-244.7" font-family="Helvetica,sans-Serif" font-size="14.00">samples = 19493</text>
<text text-anchor="middle" x="276.5" y="-227.45" font-family="Helvetica,sans-Serif" font-size="14.00">value = [18341, 12428]</text>
<text text-anchor="middle" x="276.5" y="-210.2" font-family="Helvetica,sans-Serif" font-size="14.00">class = Animal</text>
</g>
<!-- 1&#45;&gt;2 -->
<g id="edge2" class="edge">
<title>1&#45;&gt;2</title>
<path fill="none" stroke="black" d="M460.21,-335.74C434.09,-323.6 405.5,-310.32 378.82,-297.92"/>
<polygon fill="black" stroke="black" points="380.62,-294.9 370.07,-293.86 377.67,-301.24 380.62,-294.9"/>
</g>
<!-- 9595 -->
<g id="node10" class="node">
<title>9595</title>
<path fill="#f1f8fd" stroke="black" d="M623.5,-296.5C623.5,-296.5 481.5,-296.5 481.5,-296.5 475.5,-296.5 469.5,-290.5 469.5,-284.5 469.5,-284.5 469.5,-214.25 469.5,-214.25 469.5,-208.25 475.5,-202.25 481.5,-202.25 481.5,-202.25 623.5,-202.25 623.5,-202.25 629.5,-202.25 635.5,-208.25 635.5,-214.25 635.5,-214.25 635.5,-284.5 635.5,-284.5 635.5,-290.5 629.5,-296.5 623.5,-296.5"/>
<text text-anchor="middle" x="552.5" y="-279.2" font-family="Helvetica,sans-Serif" font-size="14.00">19_U &lt;= 0.5</text>
<text text-anchor="middle" x="552.5" y="-261.95" font-family="Helvetica,sans-Serif" font-size="14.00">entropy = 0.999</text>
<text text-anchor="middle" x="552.5" y="-244.7" font-family="Helvetica,sans-Serif" font-size="14.00">samples = 6239</text>
<text text-anchor="middle" x="552.5" y="-227.45" font-family="Helvetica,sans-Serif" font-size="14.00">value = [4768, 5128]</text>
<text text-anchor="middle" x="552.5" y="-210.2" font-family="Helvetica,sans-Serif" font-size="14.00">class = Plant</text>
</g>
<!-- 1&#45;&gt;9595 -->
<g id="edge9" class="edge">
<title>1&#45;&gt;9595</title>
<path fill="none" stroke="black" d="M552.5,-332.32C552.5,-324.42 552.5,-316.13 552.5,-307.98"/>
<polygon fill="black" stroke="black" points="556,-308.12 552.5,-298.12 549,-308.12 556,-308.12"/>
</g>
<!-- 3 -->
<g id="node4" class="node">
<title>3</title>
<path fill="#f4ccaf" stroke="black" d="M163,-166.25C163,-166.25 12,-166.25 12,-166.25 6,-166.25 0,-160.25 0,-154.25 0,-154.25 0,-84 0,-84 0,-78 6,-72 12,-72 12,-72 163,-72 163,-72 169,-72 175,-78 175,-84 175,-84 175,-154.25 175,-154.25 175,-160.25 169,-166.25 163,-166.25"/>
<text text-anchor="middle" x="87.5" y="-148.95" font-family="Helvetica,sans-Serif" font-size="14.00">5_G &lt;= 0.5</text>
<text text-anchor="middle" x="87.5" y="-131.7" font-family="Helvetica,sans-Serif" font-size="14.00">entropy = 0.953</text>
<text text-anchor="middle" x="87.5" y="-114.45" font-family="Helvetica,sans-Serif" font-size="14.00">samples = 14126</text>
<text text-anchor="middle" x="87.5" y="-97.2" font-family="Helvetica,sans-Serif" font-size="14.00">value = [13978, 8330]</text>
<text text-anchor="middle" x="87.5" y="-79.95" font-family="Helvetica,sans-Serif" font-size="14.00">class = Animal</text>
</g>
<!-- 2&#45;&gt;3 -->
<g id="edge3" class="edge">
<title>2&#45;&gt;3</title>
<path fill="none" stroke="black" d="M208,-201.89C194.13,-192.48 179.46,-182.53 165.3,-172.92"/>
<polygon fill="black" stroke="black" points="167.58,-170.23 157.34,-167.51 163.65,-176.03 167.58,-170.23"/>
</g>
<!-- 6938 -->
<g id="node7" class="node">
<title>6938</title>
<path fill="#fdf7f3" stroke="black" d="M347.5,-166.25C347.5,-166.25 205.5,-166.25 205.5,-166.25 199.5,-166.25 193.5,-160.25 193.5,-154.25 193.5,-154.25 193.5,-84 193.5,-84 193.5,-78 199.5,-72 205.5,-72 205.5,-72 347.5,-72 347.5,-72 353.5,-72 359.5,-78 359.5,-84 359.5,-84 359.5,-154.25 359.5,-154.25 359.5,-160.25 353.5,-166.25 347.5,-166.25"/>
<text text-anchor="middle" x="276.5" y="-148.95" font-family="Helvetica,sans-Serif" font-size="14.00">6_G &lt;= 0.5</text>
<text text-anchor="middle" x="276.5" y="-131.7" font-family="Helvetica,sans-Serif" font-size="14.00">entropy = 0.999</text>
<text text-anchor="middle" x="276.5" y="-114.45" font-family="Helvetica,sans-Serif" font-size="14.00">samples = 5367</text>
<text text-anchor="middle" x="276.5" y="-97.2" font-family="Helvetica,sans-Serif" font-size="14.00">value = [4363, 4098]</text>
<text text-anchor="middle" x="276.5" y="-79.95" font-family="Helvetica,sans-Serif" font-size="14.00">class = Animal</text>
</g>
<!-- 2&#45;&gt;6938 -->
<g id="edge6" class="edge">
<title>2&#45;&gt;6938</title>
<path fill="none" stroke="black" d="M276.5,-202.07C276.5,-194.17 276.5,-185.88 276.5,-177.73"/>
<polygon fill="black" stroke="black" points="280,-177.87 276.5,-167.87 273,-177.87 280,-177.87"/>
</g>
<!-- 4 -->
<g id="node5" class="node">
<title>4</title>
<path fill="#c0c0c0" stroke="black" d="M66.5,-36C66.5,-36 36.5,-36 36.5,-36 30.5,-36 24.5,-30 24.5,-24 24.5,-24 24.5,-12 24.5,-12 24.5,-6 30.5,0 36.5,0 36.5,0 66.5,0 66.5,0 72.5,0 78.5,-6 78.5,-12 78.5,-12 78.5,-24 78.5,-24 78.5,-30 72.5,-36 66.5,-36"/>
<text text-anchor="middle" x="51.5" y="-13.32" font-family="Helvetica,sans-Serif" font-size="14.00">(...)</text>
</g>
<!-- 3&#45;&gt;4 -->
<g id="edge4" class="edge">
<title>3&#45;&gt;4</title>
<path fill="none" stroke="black" d="M70.66,-71.75C67.56,-63.22 64.42,-54.57 61.6,-46.8"/>
<polygon fill="black" stroke="black" points="64.96,-45.8 58.25,-37.6 58.38,-48.19 64.96,-45.8"/>
</g>
<!-- 4937 -->
<g id="node6" class="node">
<title>4937</title>
<path fill="#c0c0c0" stroke="black" d="M138.5,-36C138.5,-36 108.5,-36 108.5,-36 102.5,-36 96.5,-30 96.5,-24 96.5,-24 96.5,-12 96.5,-12 96.5,-6 102.5,0 108.5,0 108.5,0 138.5,0 138.5,0 144.5,0 150.5,-6 150.5,-12 150.5,-12 150.5,-24 150.5,-24 150.5,-30 144.5,-36 138.5,-36"/>
<text text-anchor="middle" x="123.5" y="-13.32" font-family="Helvetica,sans-Serif" font-size="14.00">(...)</text>
</g>
<!-- 3&#45;&gt;4937 -->
<g id="edge5" class="edge">
<title>3&#45;&gt;4937</title>
<path fill="none" stroke="black" d="M104.34,-71.75C107.44,-63.22 110.58,-54.57 113.4,-46.8"/>
<polygon fill="black" stroke="black" points="116.62,-48.19 116.75,-37.6 110.04,-45.8 116.62,-48.19"/>
</g>
<!-- 6939 -->
<g id="node8" class="node">
<title>6939</title>
<path fill="#c0c0c0" stroke="black" d="M259.5,-36C259.5,-36 229.5,-36 229.5,-36 223.5,-36 217.5,-30 217.5,-24 217.5,-24 217.5,-12 217.5,-12 217.5,-6 223.5,0 229.5,0 229.5,0 259.5,0 259.5,0 265.5,0 271.5,-6 271.5,-12 271.5,-12 271.5,-24 271.5,-24 271.5,-30 265.5,-36 259.5,-36"/>
<text text-anchor="middle" x="244.5" y="-13.32" font-family="Helvetica,sans-Serif" font-size="14.00">(...)</text>
</g>
<!-- 6938&#45;&gt;6939 -->
<g id="edge7" class="edge">
<title>6938&#45;&gt;6939</title>
<path fill="none" stroke="black" d="M261.53,-71.75C258.81,-63.32 256.05,-54.77 253.56,-47.07"/>
<polygon fill="black" stroke="black" points="256.91,-46.05 250.51,-37.61 250.25,-48.2 256.91,-46.05"/>
</g>
<!-- 8838 -->
<g id="node9" class="node">
<title>8838</title>
<path fill="#c0c0c0" stroke="black" d="M331.5,-36C331.5,-36 301.5,-36 301.5,-36 295.5,-36 289.5,-30 289.5,-24 289.5,-24 289.5,-12 289.5,-12 289.5,-6 295.5,0 301.5,0 301.5,0 331.5,0 331.5,0 337.5,0 343.5,-6 343.5,-12 343.5,-12 343.5,-24 343.5,-24 343.5,-30 337.5,-36 331.5,-36"/>
<text text-anchor="middle" x="316.5" y="-13.32" font-family="Helvetica,sans-Serif" font-size="14.00">(...)</text>
</g>
<!-- 6938&#45;&gt;8838 -->
<g id="edge8" class="edge">
<title>6938&#45;&gt;8838</title>
<path fill="none" stroke="black" d="M295.21,-71.75C298.65,-63.22 302.15,-54.57 305.28,-46.8"/>
<polygon fill="black" stroke="black" points="308.51,-48.16 309,-37.58 302.02,-45.54 308.51,-48.16"/>
</g>
<!-- 9596 -->
<g id="node11" class="node">
<title>9596</title>
<path fill="#b9ddf6" stroke="black" d="M531.5,-166.25C531.5,-166.25 389.5,-166.25 389.5,-166.25 383.5,-166.25 377.5,-160.25 377.5,-154.25 377.5,-154.25 377.5,-84 377.5,-84 377.5,-78 383.5,-72 389.5,-72 389.5,-72 531.5,-72 531.5,-72 537.5,-72 543.5,-78 543.5,-84 543.5,-84 543.5,-154.25 543.5,-154.25 543.5,-160.25 537.5,-166.25 531.5,-166.25"/>
<text text-anchor="middle" x="460.5" y="-148.95" font-family="Helvetica,sans-Serif" font-size="14.00">12_U &lt;= 0.5</text>
<text text-anchor="middle" x="460.5" y="-131.7" font-family="Helvetica,sans-Serif" font-size="14.00">entropy = 0.967</text>
<text text-anchor="middle" x="460.5" y="-114.45" font-family="Helvetica,sans-Serif" font-size="14.00">samples = 3689</text>
<text text-anchor="middle" x="460.5" y="-97.2" font-family="Helvetica,sans-Serif" font-size="14.00">value = [2311, 3561]</text>
<text text-anchor="middle" x="460.5" y="-79.95" font-family="Helvetica,sans-Serif" font-size="14.00">class = Plant</text>
</g>
<!-- 9595&#45;&gt;9596 -->
<g id="edge10" class="edge">
<title>9595&#45;&gt;9596</title>
<path fill="none" stroke="black" d="M519.29,-202.07C513.1,-193.45 506.57,-184.35 500.21,-175.49"/>
<polygon fill="black" stroke="black" points="503.22,-173.67 494.55,-167.59 497.53,-177.75 503.22,-173.67"/>
</g>
<!-- 11245 -->
<g id="node14" class="node">
<title>11245</title>
<path fill="#f6d1b7" stroke="black" d="M715.5,-166.25C715.5,-166.25 573.5,-166.25 573.5,-166.25 567.5,-166.25 561.5,-160.25 561.5,-154.25 561.5,-154.25 561.5,-84 561.5,-84 561.5,-78 567.5,-72 573.5,-72 573.5,-72 715.5,-72 715.5,-72 721.5,-72 727.5,-78 727.5,-84 727.5,-84 727.5,-154.25 727.5,-154.25 727.5,-160.25 721.5,-166.25 715.5,-166.25"/>
<text text-anchor="middle" x="644.5" y="-148.95" font-family="Helvetica,sans-Serif" font-size="14.00">4_A &lt;= 0.5</text>
<text text-anchor="middle" x="644.5" y="-131.7" font-family="Helvetica,sans-Serif" font-size="14.00">entropy = 0.964</text>
<text text-anchor="middle" x="644.5" y="-114.45" font-family="Helvetica,sans-Serif" font-size="14.00">samples = 2550</text>
<text text-anchor="middle" x="644.5" y="-97.2" font-family="Helvetica,sans-Serif" font-size="14.00">value = [2457, 1567]</text>
<text text-anchor="middle" x="644.5" y="-79.95" font-family="Helvetica,sans-Serif" font-size="14.00">class = Animal</text>
</g>
<!-- 9595&#45;&gt;11245 -->
<g id="edge13" class="edge">
<title>9595&#45;&gt;11245</title>
<path fill="none" stroke="black" d="M585.71,-202.07C591.9,-193.45 598.43,-184.35 604.79,-175.49"/>
<polygon fill="black" stroke="black" points="607.47,-177.75 610.45,-167.59 601.78,-173.67 607.47,-177.75"/>
</g>
<!-- 9597 -->
<g id="node12" class="node">
<title>9597</title>
<path fill="#c0c0c0" stroke="black" d="M423.5,-36C423.5,-36 393.5,-36 393.5,-36 387.5,-36 381.5,-30 381.5,-24 381.5,-24 381.5,-12 381.5,-12 381.5,-6 387.5,0 393.5,0 393.5,0 423.5,0 423.5,0 429.5,0 435.5,-6 435.5,-12 435.5,-12 435.5,-24 435.5,-24 435.5,-30 429.5,-36 423.5,-36"/>
<text text-anchor="middle" x="408.5" y="-13.32" font-family="Helvetica,sans-Serif" font-size="14.00">(...)</text>
</g>
<!-- 9596&#45;&gt;9597 -->
<g id="edge11" class="edge">
<title>9596&#45;&gt;9597</title>
<path fill="none" stroke="black" d="M436.17,-71.75C431.6,-63.03 426.95,-54.16 422.8,-46.26"/>
<polygon fill="black" stroke="black" points="425.96,-44.74 418.21,-37.51 419.76,-47.99 425.96,-44.74"/>
</g>
<!-- 10782 -->
<g id="node13" class="node">
<title>10782</title>
<path fill="#c0c0c0" stroke="black" d="M495.5,-36C495.5,-36 465.5,-36 465.5,-36 459.5,-36 453.5,-30 453.5,-24 453.5,-24 453.5,-12 453.5,-12 453.5,-6 459.5,0 465.5,0 465.5,0 495.5,0 495.5,0 501.5,0 507.5,-6 507.5,-12 507.5,-12 507.5,-24 507.5,-24 507.5,-30 501.5,-36 495.5,-36"/>
<text text-anchor="middle" x="480.5" y="-13.32" font-family="Helvetica,sans-Serif" font-size="14.00">(...)</text>
</g>
<!-- 9596&#45;&gt;10782 -->
<g id="edge12" class="edge">
<title>9596&#45;&gt;10782</title>
<path fill="none" stroke="black" d="M469.86,-71.75C471.54,-63.42 473.24,-54.97 474.78,-47.34"/>
<polygon fill="black" stroke="black" points="478.19,-48.15 476.74,-37.66 471.33,-46.77 478.19,-48.15"/>
</g>
<!-- 11246 -->
<g id="node15" class="node">
<title>11246</title>
<path fill="#c0c0c0" stroke="black" d="M609.5,-36C609.5,-36 579.5,-36 579.5,-36 573.5,-36 567.5,-30 567.5,-24 567.5,-24 567.5,-12 567.5,-12 567.5,-6 573.5,0 579.5,0 579.5,0 609.5,0 609.5,0 615.5,0 621.5,-6 621.5,-12 621.5,-12 621.5,-24 621.5,-24 621.5,-30 615.5,-36 609.5,-36"/>
<text text-anchor="middle" x="594.5" y="-13.32" font-family="Helvetica,sans-Serif" font-size="14.00">(...)</text>
</g>
<!-- 11245&#45;&gt;11246 -->
<g id="edge14" class="edge">
<title>11245&#45;&gt;11246</title>
<path fill="none" stroke="black" d="M621.11,-71.75C616.71,-63.03 612.24,-54.16 608.25,-46.26"/>
<polygon fill="black" stroke="black" points="611.47,-44.88 603.84,-37.52 605.22,-48.03 611.47,-44.88"/>
</g>
<!-- 12089 -->
<g id="node16" class="node">
<title>12089</title>
<path fill="#c0c0c0" stroke="black" d="M681.5,-36C681.5,-36 651.5,-36 651.5,-36 645.5,-36 639.5,-30 639.5,-24 639.5,-24 639.5,-12 639.5,-12 639.5,-6 645.5,0 651.5,0 651.5,0 681.5,0 681.5,0 687.5,0 693.5,-6 693.5,-12 693.5,-12 693.5,-24 693.5,-24 693.5,-30 687.5,-36 681.5,-36"/>
<text text-anchor="middle" x="666.5" y="-13.32" font-family="Helvetica,sans-Serif" font-size="14.00">(...)</text>
</g>
<!-- 11245&#45;&gt;12089 -->
<g id="edge15" class="edge">
<title>11245&#45;&gt;12089</title>
<path fill="none" stroke="black" d="M654.79,-71.75C656.64,-63.42 658.52,-54.97 660.21,-47.34"/>
<polygon fill="black" stroke="black" points="663.61,-48.17 662.36,-37.65 656.78,-46.65 663.61,-48.17"/>
</g>
<!-- 12359 -->
<g id="node18" class="node">
<title>12359</title>
<path fill="#8dc7f0" stroke="black" d="M999,-296.5C999,-296.5 848,-296.5 848,-296.5 842,-296.5 836,-290.5 836,-284.5 836,-284.5 836,-214.25 836,-214.25 836,-208.25 842,-202.25 848,-202.25 848,-202.25 999,-202.25 999,-202.25 1005,-202.25 1011,-208.25 1011,-214.25 1011,-214.25 1011,-284.5 1011,-284.5 1011,-290.5 1005,-296.5 999,-296.5"/>
<text text-anchor="middle" x="923.5" y="-279.2" font-family="Helvetica,sans-Serif" font-size="14.00">2_C &lt;= 0.5</text>
<text text-anchor="middle" x="923.5" y="-261.95" font-family="Helvetica,sans-Serif" font-size="14.00">entropy = 0.879</text>
<text text-anchor="middle" x="923.5" y="-244.7" font-family="Helvetica,sans-Serif" font-size="14.00">samples = 11153</text>
<text text-anchor="middle" x="923.5" y="-227.45" font-family="Helvetica,sans-Serif" font-size="14.00">value = [5281, 12449]</text>
<text text-anchor="middle" x="923.5" y="-210.2" font-family="Helvetica,sans-Serif" font-size="14.00">class = Plant</text>
</g>
<!-- 12358&#45;&gt;12359 -->
<g id="edge17" class="edge">
<title>12358&#45;&gt;12359</title>
<path fill="none" stroke="black" d="M923.5,-332.32C923.5,-324.42 923.5,-316.13 923.5,-307.98"/>
<polygon fill="black" stroke="black" points="927,-308.12 923.5,-298.12 920,-308.12 927,-308.12"/>
</g>
<!-- 16210 -->
<g id="node25" class="node">
<title>16210</title>
<path fill="#eca16b" stroke="black" d="M1264,-296.5C1264,-296.5 1131,-296.5 1131,-296.5 1125,-296.5 1119,-290.5 1119,-284.5 1119,-284.5 1119,-214.25 1119,-214.25 1119,-208.25 1125,-202.25 1131,-202.25 1131,-202.25 1264,-202.25 1264,-202.25 1270,-202.25 1276,-208.25 1276,-214.25 1276,-214.25 1276,-284.5 1276,-284.5 1276,-290.5 1270,-296.5 1264,-296.5"/>
<text text-anchor="middle" x="1197.5" y="-279.2" font-family="Helvetica,sans-Serif" font-size="14.00">20_U &lt;= 0.5</text>
<text text-anchor="middle" x="1197.5" y="-261.95" font-family="Helvetica,sans-Serif" font-size="14.00">entropy = 0.726</text>
<text text-anchor="middle" x="1197.5" y="-244.7" font-family="Helvetica,sans-Serif" font-size="14.00">samples = 1253</text>
<text text-anchor="middle" x="1197.5" y="-227.45" font-family="Helvetica,sans-Serif" font-size="14.00">value = [1556, 394]</text>
<text text-anchor="middle" x="1197.5" y="-210.2" font-family="Helvetica,sans-Serif" font-size="14.00">class = Animal</text>
</g>
<!-- 12358&#45;&gt;16210 -->
<g id="edge24" class="edge">
<title>12358&#45;&gt;16210</title>
<path fill="none" stroke="black" d="M1011.33,-337.52C1042.27,-323.04 1077.06,-306.75 1108.13,-292.21"/>
<polygon fill="black" stroke="black" points="1109.57,-295.4 1117.14,-287.99 1106.6,-289.06 1109.57,-295.4"/>
</g>
<!-- 12360 -->
<g id="node19" class="node">
<title>12360</title>
<path fill="#85c2ef" stroke="black" d="M909,-166.25C909,-166.25 758,-166.25 758,-166.25 752,-166.25 746,-160.25 746,-154.25 746,-154.25 746,-84 746,-84 746,-78 752,-72 758,-72 758,-72 909,-72 909,-72 915,-72 921,-78 921,-84 921,-84 921,-154.25 921,-154.25 921,-160.25 915,-166.25 909,-166.25"/>
<text text-anchor="middle" x="833.5" y="-148.95" font-family="Helvetica,sans-Serif" font-size="14.00">8_G &lt;= 0.5</text>
<text text-anchor="middle" x="833.5" y="-131.7" font-family="Helvetica,sans-Serif" font-size="14.00">entropy = 0.85</text>
<text text-anchor="middle" x="833.5" y="-114.45" font-family="Helvetica,sans-Serif" font-size="14.00">samples = 8933</text>
<text text-anchor="middle" x="833.5" y="-97.2" font-family="Helvetica,sans-Serif" font-size="14.00">value = [3942, 10328]</text>
<text text-anchor="middle" x="833.5" y="-79.95" font-family="Helvetica,sans-Serif" font-size="14.00">class = Plant</text>
</g>
<!-- 12359&#45;&gt;12360 -->
<g id="edge18" class="edge">
<title>12359&#45;&gt;12360</title>
<path fill="none" stroke="black" d="M891.01,-202.07C885.02,-193.54 878.71,-184.54 872.55,-175.77"/>
<polygon fill="black" stroke="black" points="875.42,-173.77 866.81,-167.6 869.69,-177.79 875.42,-173.77"/>
</g>
<!-- 15417 -->
<g id="node22" class="node">
<title>15417</title>
<path fill="#b6dbf5" stroke="black" d="M1093.5,-166.25C1093.5,-166.25 951.5,-166.25 951.5,-166.25 945.5,-166.25 939.5,-160.25 939.5,-154.25 939.5,-154.25 939.5,-84 939.5,-84 939.5,-78 945.5,-72 951.5,-72 951.5,-72 1093.5,-72 1093.5,-72 1099.5,-72 1105.5,-78 1105.5,-84 1105.5,-84 1105.5,-154.25 1105.5,-154.25 1105.5,-160.25 1099.5,-166.25 1093.5,-166.25"/>
<text text-anchor="middle" x="1022.5" y="-148.95" font-family="Helvetica,sans-Serif" font-size="14.00">17_U &lt;= 0.5</text>
<text text-anchor="middle" x="1022.5" y="-131.7" font-family="Helvetica,sans-Serif" font-size="14.00">entropy = 0.963</text>
<text text-anchor="middle" x="1022.5" y="-114.45" font-family="Helvetica,sans-Serif" font-size="14.00">samples = 2220</text>
<text text-anchor="middle" x="1022.5" y="-97.2" font-family="Helvetica,sans-Serif" font-size="14.00">value = [1339, 2121]</text>
<text text-anchor="middle" x="1022.5" y="-79.95" font-family="Helvetica,sans-Serif" font-size="14.00">class = Plant</text>
</g>
<!-- 12359&#45;&gt;15417 -->
<g id="edge21" class="edge">
<title>12359&#45;&gt;15417</title>
<path fill="none" stroke="black" d="M959.24,-202.07C965.97,-193.36 973.07,-184.16 979.98,-175.21"/>
<polygon fill="black" stroke="black" points="982.55,-177.61 985.89,-167.56 977.01,-173.33 982.55,-177.61"/>
</g>
<!-- 12361 -->
<g id="node20" class="node">
<title>12361</title>
<path fill="#c0c0c0" stroke="black" d="M798.5,-36C798.5,-36 768.5,-36 768.5,-36 762.5,-36 756.5,-30 756.5,-24 756.5,-24 756.5,-12 756.5,-12 756.5,-6 762.5,0 768.5,0 768.5,0 798.5,0 798.5,0 804.5,0 810.5,-6 810.5,-12 810.5,-12 810.5,-24 810.5,-24 810.5,-30 804.5,-36 798.5,-36"/>
<text text-anchor="middle" x="783.5" y="-13.32" font-family="Helvetica,sans-Serif" font-size="14.00">(...)</text>
</g>
<!-- 12360&#45;&gt;12361 -->
<g id="edge19" class="edge">
<title>12360&#45;&gt;12361</title>
<path fill="none" stroke="black" d="M810.11,-71.75C805.71,-63.03 801.24,-54.16 797.25,-46.26"/>
<polygon fill="black" stroke="black" points="800.47,-44.88 792.84,-37.52 794.22,-48.03 800.47,-44.88"/>
</g>
<!-- 14638 -->
<g id="node21" class="node">
<title>14638</title>
<path fill="#c0c0c0" stroke="black" d="M870.5,-36C870.5,-36 840.5,-36 840.5,-36 834.5,-36 828.5,-30 828.5,-24 828.5,-24 828.5,-12 828.5,-12 828.5,-6 834.5,0 840.5,0 840.5,0 870.5,0 870.5,0 876.5,0 882.5,-6 882.5,-12 882.5,-12 882.5,-24 882.5,-24 882.5,-30 876.5,-36 870.5,-36"/>
<text text-anchor="middle" x="855.5" y="-13.32" font-family="Helvetica,sans-Serif" font-size="14.00">(...)</text>
</g>
<!-- 12360&#45;&gt;14638 -->
<g id="edge20" class="edge">
<title>12360&#45;&gt;14638</title>
<path fill="none" stroke="black" d="M843.79,-71.75C845.64,-63.42 847.52,-54.97 849.21,-47.34"/>
<polygon fill="black" stroke="black" points="852.61,-48.17 851.36,-37.65 845.78,-46.65 852.61,-48.17"/>
</g>
<!-- 15418 -->
<g id="node23" class="node">
<title>15418</title>
<path fill="#c0c0c0" stroke="black" d="M980.5,-36C980.5,-36 950.5,-36 950.5,-36 944.5,-36 938.5,-30 938.5,-24 938.5,-24 938.5,-12 938.5,-12 938.5,-6 944.5,0 950.5,0 950.5,0 980.5,0 980.5,0 986.5,0 992.5,-6 992.5,-12 992.5,-12 992.5,-24 992.5,-24 992.5,-30 986.5,-36 980.5,-36"/>
<text text-anchor="middle" x="965.5" y="-13.32" font-family="Helvetica,sans-Serif" font-size="14.00">(...)</text>
</g>
<!-- 15417&#45;&gt;15418 -->
<g id="edge22" class="edge">
<title>15417&#45;&gt;15418</title>
<path fill="none" stroke="black" d="M995.84,-71.75C990.76,-62.93 985.6,-53.96 981.02,-45.99"/>
<polygon fill="black" stroke="black" points="984.15,-44.41 976.13,-37.48 978.08,-47.9 984.15,-44.41"/>
</g>
<!-- 15979 -->
<g id="node24" class="node">
<title>15979</title>
<path fill="#c0c0c0" stroke="black" d="M1052.5,-36C1052.5,-36 1022.5,-36 1022.5,-36 1016.5,-36 1010.5,-30 1010.5,-24 1010.5,-24 1010.5,-12 1010.5,-12 1010.5,-6 1016.5,0 1022.5,0 1022.5,0 1052.5,0 1052.5,0 1058.5,0 1064.5,-6 1064.5,-12 1064.5,-12 1064.5,-24 1064.5,-24 1064.5,-30 1058.5,-36 1052.5,-36"/>
<text text-anchor="middle" x="1037.5" y="-13.32" font-family="Helvetica,sans-Serif" font-size="14.00">(...)</text>
</g>
<!-- 15417&#45;&gt;15979 -->
<g id="edge23" class="edge">
<title>15417&#45;&gt;15979</title>
<path fill="none" stroke="black" d="M1029.52,-71.75C1030.78,-63.42 1032.06,-54.97 1033.21,-47.34"/>
<polygon fill="black" stroke="black" points="1036.64,-48.08 1034.67,-37.67 1029.72,-47.03 1036.64,-48.08"/>
</g>
<!-- 16211 -->
<g id="node26" class="node">
<title>16211</title>
<path fill="#eeae80" stroke="black" d="M1259.5,-166.25C1259.5,-166.25 1135.5,-166.25 1135.5,-166.25 1129.5,-166.25 1123.5,-160.25 1123.5,-154.25 1123.5,-154.25 1123.5,-84 1123.5,-84 1123.5,-78 1129.5,-72 1135.5,-72 1135.5,-72 1259.5,-72 1259.5,-72 1265.5,-72 1271.5,-78 1271.5,-84 1271.5,-84 1271.5,-154.25 1271.5,-154.25 1271.5,-160.25 1265.5,-166.25 1259.5,-166.25"/>
<text text-anchor="middle" x="1197.5" y="-148.95" font-family="Helvetica,sans-Serif" font-size="14.00">7_C &lt;= 0.5</text>
<text text-anchor="middle" x="1197.5" y="-131.7" font-family="Helvetica,sans-Serif" font-size="14.00">entropy = 0.831</text>
<text text-anchor="middle" x="1197.5" y="-114.45" font-family="Helvetica,sans-Serif" font-size="14.00">samples = 757</text>
<text text-anchor="middle" x="1197.5" y="-97.2" font-family="Helvetica,sans-Serif" font-size="14.00">value = [867, 309]</text>
<text text-anchor="middle" x="1197.5" y="-79.95" font-family="Helvetica,sans-Serif" font-size="14.00">class = Animal</text>
</g>
<!-- 16210&#45;&gt;16211 -->
<g id="edge25" class="edge">
<title>16210&#45;&gt;16211</title>
<path fill="none" stroke="black" d="M1197.5,-202.07C1197.5,-194.17 1197.5,-185.88 1197.5,-177.73"/>
<polygon fill="black" stroke="black" points="1201,-177.87 1197.5,-167.87 1194,-177.87 1201,-177.87"/>
</g>
<!-- 16576 -->
<g id="node29" class="node">
<title>16576</title>
<path fill="#e89151" stroke="black" d="M1417,-166.25C1417,-166.25 1302,-166.25 1302,-166.25 1296,-166.25 1290,-160.25 1290,-154.25 1290,-154.25 1290,-84 1290,-84 1290,-78 1296,-72 1302,-72 1302,-72 1417,-72 1417,-72 1423,-72 1429,-78 1429,-84 1429,-84 1429,-154.25 1429,-154.25 1429,-160.25 1423,-166.25 1417,-166.25"/>
<text text-anchor="middle" x="1359.5" y="-148.95" font-family="Helvetica,sans-Serif" font-size="14.00">6_A &lt;= 0.5</text>
<text text-anchor="middle" x="1359.5" y="-131.7" font-family="Helvetica,sans-Serif" font-size="14.00">entropy = 0.499</text>
<text text-anchor="middle" x="1359.5" y="-114.45" font-family="Helvetica,sans-Serif" font-size="14.00">samples = 496</text>
<text text-anchor="middle" x="1359.5" y="-97.2" font-family="Helvetica,sans-Serif" font-size="14.00">value = [689, 85]</text>
<text text-anchor="middle" x="1359.5" y="-79.95" font-family="Helvetica,sans-Serif" font-size="14.00">class = Animal</text>
</g>
<!-- 16210&#45;&gt;16576 -->
<g id="edge28" class="edge">
<title>16210&#45;&gt;16576</title>
<path fill="none" stroke="black" d="M1255.99,-202.07C1267.61,-192.87 1279.91,-183.13 1291.82,-173.71"/>
<polygon fill="black" stroke="black" points="1293.97,-176.46 1299.64,-167.51 1289.63,-170.98 1293.97,-176.46"/>
</g>
<!-- 16212 -->
<g id="node27" class="node">
<title>16212</title>
<path fill="#c0c0c0" stroke="black" d="M1167.5,-36C1167.5,-36 1137.5,-36 1137.5,-36 1131.5,-36 1125.5,-30 1125.5,-24 1125.5,-24 1125.5,-12 1125.5,-12 1125.5,-6 1131.5,0 1137.5,0 1137.5,0 1167.5,0 1167.5,0 1173.5,0 1179.5,-6 1179.5,-12 1179.5,-12 1179.5,-24 1179.5,-24 1179.5,-30 1173.5,-36 1167.5,-36"/>
<text text-anchor="middle" x="1152.5" y="-13.32" font-family="Helvetica,sans-Serif" font-size="14.00">(...)</text>
</g>
<!-- 16211&#45;&gt;16212 -->
<g id="edge26" class="edge">
<title>16211&#45;&gt;16212</title>
<path fill="none" stroke="black" d="M1176.45,-71.75C1172.53,-63.12 1168.55,-54.36 1165,-46.53"/>
<polygon fill="black" stroke="black" points="1168.24,-45.21 1160.92,-37.55 1161.87,-48.1 1168.24,-45.21"/>
</g>
<!-- 16483 -->
<g id="node28" class="node">
<title>16483</title>
<path fill="#c0c0c0" stroke="black" d="M1239.5,-36C1239.5,-36 1209.5,-36 1209.5,-36 1203.5,-36 1197.5,-30 1197.5,-24 1197.5,-24 1197.5,-12 1197.5,-12 1197.5,-6 1203.5,0 1209.5,0 1209.5,0 1239.5,0 1239.5,0 1245.5,0 1251.5,-6 1251.5,-12 1251.5,-12 1251.5,-24 1251.5,-24 1251.5,-30 1245.5,-36 1239.5,-36"/>
<text text-anchor="middle" x="1224.5" y="-13.32" font-family="Helvetica,sans-Serif" font-size="14.00">(...)</text>
</g>
<!-- 16211&#45;&gt;16483 -->
<g id="edge27" class="edge">
<title>16211&#45;&gt;16483</title>
<path fill="none" stroke="black" d="M1210.13,-71.75C1212.43,-63.32 1214.76,-54.77 1216.85,-47.07"/>
<polygon fill="black" stroke="black" points="1220.17,-48.2 1219.42,-37.63 1213.42,-46.36 1220.17,-48.2"/>
</g>
<!-- 16577 -->
<g id="node30" class="node">
<title>16577</title>
<path fill="#c0c0c0" stroke="black" d="M1338.5,-36C1338.5,-36 1308.5,-36 1308.5,-36 1302.5,-36 1296.5,-30 1296.5,-24 1296.5,-24 1296.5,-12 1296.5,-12 1296.5,-6 1302.5,0 1308.5,0 1308.5,0 1338.5,0 1338.5,0 1344.5,0 1350.5,-6 1350.5,-12 1350.5,-12 1350.5,-24 1350.5,-24 1350.5,-30 1344.5,-36 1338.5,-36"/>
<text text-anchor="middle" x="1323.5" y="-13.32" font-family="Helvetica,sans-Serif" font-size="14.00">(...)</text>
</g>
<!-- 16576&#45;&gt;16577 -->
<g id="edge29" class="edge">
<title>16576&#45;&gt;16577</title>
<path fill="none" stroke="black" d="M1342.66,-71.75C1339.56,-63.22 1336.42,-54.57 1333.6,-46.8"/>
<polygon fill="black" stroke="black" points="1336.96,-45.8 1330.25,-37.6 1330.38,-48.19 1336.96,-45.8"/>
</g>
<!-- 16690 -->
<g id="node31" class="node">
<title>16690</title>
<path fill="#c0c0c0" stroke="black" d="M1410.5,-36C1410.5,-36 1380.5,-36 1380.5,-36 1374.5,-36 1368.5,-30 1368.5,-24 1368.5,-24 1368.5,-12 1368.5,-12 1368.5,-6 1374.5,0 1380.5,0 1380.5,0 1410.5,0 1410.5,0 1416.5,0 1422.5,-6 1422.5,-12 1422.5,-12 1422.5,-24 1422.5,-24 1422.5,-30 1416.5,-36 1410.5,-36"/>
<text text-anchor="middle" x="1395.5" y="-13.32" font-family="Helvetica,sans-Serif" font-size="14.00">(...)</text>
</g>
<!-- 16576&#45;&gt;16690 -->
<g id="edge30" class="edge">
<title>16576&#45;&gt;16690</title>
<path fill="none" stroke="black" d="M1376.34,-71.75C1379.44,-63.22 1382.58,-54.57 1385.4,-46.8"/>
<polygon fill="black" stroke="black" points="1388.62,-48.19 1388.75,-37.6 1382.04,-45.8 1388.62,-48.19"/>
</g>
</g>
</svg>
