<?xml version="1.0" encoding="UTF-8" standalone="no"?>
<!DOCTYPE svg PUBLIC "-//W3C//DTD SVG 1.1//EN"
 "http://www.w3.org/Graphics/SVG/1.1/DTD/svg11.dtd">
<!-- Generated by graphviz version 12.0.0 (20240803.0821)
 -->
<!-- Title: Tree Pages: 1 -->
<svg width="1418pt" height="565pt"
 viewBox="0.00 0.00 1418.00 565.00" xmlns="http://www.w3.org/2000/svg" xmlns:xlink="http://www.w3.org/1999/xlink">
<g id="graph0" class="graph" transform="scale(1 1) rotate(0) translate(4 561)">
<title>Tree</title>
<polygon fill="white" stroke="none" points="-4,4 -4,-561 1414,-561 1414,4 -4,4"/>
<!-- 0 -->
<g id="node1" class="node">
<title>0</title>
<path fill="#fffffe" stroke="black" d="M773,-557C773,-557 613,-557 613,-557 607,-557 601,-551 601,-545 601,-545 601,-474.75 601,-474.75 601,-468.75 607,-462.75 613,-462.75 613,-462.75 773,-462.75 773,-462.75 779,-462.75 785,-468.75 785,-474.75 785,-474.75 785,-545 785,-545 785,-551 779,-557 773,-557"/>
<text text-anchor="middle" x="693" y="-539.7" font-family="Helvetica,sans-Serif" font-size="14.00">8_G &lt;= 0.5</text>
<text text-anchor="middle" x="693" y="-522.45" font-family="Helvetica,sans-Serif" font-size="14.00">entropy = 1.0</text>
<text text-anchor="middle" x="693" y="-505.2" font-family="Helvetica,sans-Serif" font-size="14.00">samples = 38205</text>
<text text-anchor="middle" x="693" y="-487.95" font-family="Helvetica,sans-Serif" font-size="14.00">value = [30214, 30131]</text>
<text text-anchor="middle" x="693" y="-470.7" font-family="Helvetica,sans-Serif" font-size="14.00">class = Animal</text>
</g>
<!-- 1 -->
<g id="node2" class="node">
<title>1</title>
<path fill="#fae7da" stroke="black" d="M614,-426.75C614,-426.75 454,-426.75 454,-426.75 448,-426.75 442,-420.75 442,-414.75 442,-414.75 442,-344.5 442,-344.5 442,-338.5 448,-332.5 454,-332.5 454,-332.5 614,-332.5 614,-332.5 620,-332.5 626,-338.5 626,-344.5 626,-344.5 626,-414.75 626,-414.75 626,-420.75 620,-426.75 614,-426.75"/>
<text text-anchor="middle" x="534" y="-409.45" font-family="Helvetica,sans-Serif" font-size="14.00">23_A &lt;= 0.5</text>
<text text-anchor="middle" x="534" y="-392.2" font-family="Helvetica,sans-Serif" font-size="14.00">entropy = 0.992</text>
<text text-anchor="middle" x="534" y="-374.95" font-family="Helvetica,sans-Serif" font-size="14.00">samples = 26332</text>
<text text-anchor="middle" x="534" y="-357.7" font-family="Helvetica,sans-Serif" font-size="14.00">value = [22946, 18626]</text>
<text text-anchor="middle" x="534" y="-340.45" font-family="Helvetica,sans-Serif" font-size="14.00">class = Animal</text>
</g>
<!-- 0&#45;&gt;1 -->
<g id="edge1" class="edge">
<title>0&#45;&gt;1</title>
<path fill="none" stroke="black" d="M635.6,-462.57C624.19,-453.37 612.11,-443.63 600.43,-434.21"/>
<polygon fill="black" stroke="black" points="602.74,-431.58 592.76,-428.02 598.35,-437.03 602.74,-431.58"/>
<text text-anchor="middle" x="594.25" y="-447.26" font-family="Helvetica,sans-Serif" font-size="14.00">True</text>
</g>
<!-- 12434 -->
<g id="node17" class="node">
<title>12434</title>
<path fill="#b6dbf5" stroke="black" d="M960.5,-426.75C960.5,-426.75 809.5,-426.75 809.5,-426.75 803.5,-426.75 797.5,-420.75 797.5,-414.75 797.5,-414.75 797.5,-344.5 797.5,-344.5 797.5,-338.5 803.5,-332.5 809.5,-332.5 809.5,-332.5 960.5,-332.5 960.5,-332.5 966.5,-332.5 972.5,-338.5 972.5,-344.5 972.5,-344.5 972.5,-414.75 972.5,-414.75 972.5,-420.75 966.5,-426.75 960.5,-426.75"/>
<text text-anchor="middle" x="885" y="-409.45" font-family="Helvetica,sans-Serif" font-size="14.00">6_U &lt;= 0.5</text>
<text text-anchor="middle" x="885" y="-392.2" font-family="Helvetica,sans-Serif" font-size="14.00">entropy = 0.963</text>
<text text-anchor="middle" x="885" y="-374.95" font-family="Helvetica,sans-Serif" font-size="14.00">samples = 11873</text>
<text text-anchor="middle" x="885" y="-357.7" font-family="Helvetica,sans-Serif" font-size="14.00">value = [7268, 11505]</text>
<text text-anchor="middle" x="885" y="-340.45" font-family="Helvetica,sans-Serif" font-size="14.00">class = Plant</text>
</g>
<!-- 0&#45;&gt;12434 -->
<g id="edge16" class="edge">
<title>0&#45;&gt;12434</title>
<path fill="none" stroke="black" d="M762.59,-462.39C776.67,-452.98 791.58,-443.03 805.97,-433.42"/>
<polygon fill="black" stroke="black" points="807.7,-436.47 814.07,-428 803.81,-430.65 807.7,-436.47"/>
<text text-anchor="middle" x="810.45" y="-447.01" font-family="Helvetica,sans-Serif" font-size="14.00">False</text>
</g>
<!-- 2 -->
<g id="node3" class="node">
<title>2</title>
<path fill="#fbece1" stroke="black" d="M365,-296.5C365,-296.5 205,-296.5 205,-296.5 199,-296.5 193,-290.5 193,-284.5 193,-284.5 193,-214.25 193,-214.25 193,-208.25 199,-202.25 205,-202.25 205,-202.25 365,-202.25 365,-202.25 371,-202.25 377,-208.25 377,-214.25 377,-214.25 377,-284.5 377,-284.5 377,-290.5 371,-296.5 365,-296.5"/>
<text text-anchor="middle" x="285" y="-279.2" font-family="Helvetica,sans-Serif" font-size="14.00">18_A &lt;= 0.5</text>
<text text-anchor="middle" x="285" y="-261.95" font-family="Helvetica,sans-Serif" font-size="14.00">entropy = 0.995</text>
<text text-anchor="middle" x="285" y="-244.7" font-family="Helvetica,sans-Serif" font-size="14.00">samples = 25142</text>
<text text-anchor="middle" x="285" y="-227.45" font-family="Helvetica,sans-Serif" font-size="14.00">value = [21501, 18200]</text>
<text text-anchor="middle" x="285" y="-210.2" font-family="Helvetica,sans-Serif" font-size="14.00">class = Animal</text>
</g>
<!-- 1&#45;&gt;2 -->
<g id="edge2" class="edge">
<title>1&#45;&gt;2</title>
<path fill="none" stroke="black" d="M443.75,-332.14C424.79,-322.38 404.68,-312.02 385.37,-302.07"/>
<polygon fill="black" stroke="black" points="387.2,-299.07 376.7,-297.61 383.99,-305.3 387.2,-299.07"/>
</g>
<!-- 11921 -->
<g id="node10" class="node">
<title>11921</title>
<path fill="#eda673" stroke="black" d="M600.5,-296.5C600.5,-296.5 467.5,-296.5 467.5,-296.5 461.5,-296.5 455.5,-290.5 455.5,-284.5 455.5,-284.5 455.5,-214.25 455.5,-214.25 455.5,-208.25 461.5,-202.25 467.5,-202.25 467.5,-202.25 600.5,-202.25 600.5,-202.25 606.5,-202.25 612.5,-208.25 612.5,-214.25 612.5,-214.25 612.5,-284.5 612.5,-284.5 612.5,-290.5 606.5,-296.5 600.5,-296.5"/>
<text text-anchor="middle" x="534" y="-279.2" font-family="Helvetica,sans-Serif" font-size="14.00">17_U &lt;= 0.5</text>
<text text-anchor="middle" x="534" y="-261.95" font-family="Helvetica,sans-Serif" font-size="14.00">entropy = 0.774</text>
<text text-anchor="middle" x="534" y="-244.7" font-family="Helvetica,sans-Serif" font-size="14.00">samples = 1190</text>
<text text-anchor="middle" x="534" y="-227.45" font-family="Helvetica,sans-Serif" font-size="14.00">value = [1445, 426]</text>
<text text-anchor="middle" x="534" y="-210.2" font-family="Helvetica,sans-Serif" font-size="14.00">class = Animal</text>
</g>
<!-- 1&#45;&gt;11921 -->
<g id="edge9" class="edge">
<title>1&#45;&gt;11921</title>
<path fill="none" stroke="black" d="M534,-332.32C534,-324.42 534,-316.13 534,-307.98"/>
<polygon fill="black" stroke="black" points="537.5,-308.12 534,-298.12 530.5,-308.12 537.5,-308.12"/>
</g>
<!-- 3 -->
<g id="node4" class="node">
<title>3</title>
<path fill="#fdf3ed" stroke="black" d="M172,-166.25C172,-166.25 12,-166.25 12,-166.25 6,-166.25 0,-160.25 0,-154.25 0,-154.25 0,-84 0,-84 0,-78 6,-72 12,-72 12,-72 172,-72 172,-72 178,-72 184,-78 184,-84 184,-84 184,-154.25 184,-154.25 184,-160.25 178,-166.25 172,-166.25"/>
<text text-anchor="middle" x="92" y="-148.95" font-family="Helvetica,sans-Serif" font-size="14.00">22_U &lt;= 0.5</text>
<text text-anchor="middle" x="92" y="-131.7" font-family="Helvetica,sans-Serif" font-size="14.00">entropy = 0.998</text>
<text text-anchor="middle" x="92" y="-114.45" font-family="Helvetica,sans-Serif" font-size="14.00">samples = 20401</text>
<text text-anchor="middle" x="92" y="-97.2" font-family="Helvetica,sans-Serif" font-size="14.00">value = [16880, 15335]</text>
<text text-anchor="middle" x="92" y="-79.95" font-family="Helvetica,sans-Serif" font-size="14.00">class = Animal</text>
</g>
<!-- 2&#45;&gt;3 -->
<g id="edge3" class="edge">
<title>2&#45;&gt;3</title>
<path fill="none" stroke="black" d="M215.05,-201.89C200.89,-192.48 185.9,-182.53 171.45,-172.92"/>
<polygon fill="black" stroke="black" points="173.56,-170.12 163.3,-167.5 169.69,-175.95 173.56,-170.12"/>
</g>
<!-- 9326 -->
<g id="node7" class="node">
<title>9326</title>
<path fill="#f5cfb4" stroke="black" d="M356,-166.25C356,-166.25 214,-166.25 214,-166.25 208,-166.25 202,-160.25 202,-154.25 202,-154.25 202,-84 202,-84 202,-78 208,-72 214,-72 214,-72 356,-72 356,-72 362,-72 368,-78 368,-84 368,-84 368,-154.25 368,-154.25 368,-160.25 362,-166.25 356,-166.25"/>
<text text-anchor="middle" x="285" y="-148.95" font-family="Helvetica,sans-Serif" font-size="14.00">4_A &lt;= 0.5</text>
<text text-anchor="middle" x="285" y="-131.7" font-family="Helvetica,sans-Serif" font-size="14.00">entropy = 0.96</text>
<text text-anchor="middle" x="285" y="-114.45" font-family="Helvetica,sans-Serif" font-size="14.00">samples = 4741</text>
<text text-anchor="middle" x="285" y="-97.2" font-family="Helvetica,sans-Serif" font-size="14.00">value = [4621, 2865]</text>
<text text-anchor="middle" x="285" y="-79.95" font-family="Helvetica,sans-Serif" font-size="14.00">class = Animal</text>
</g>
<!-- 2&#45;&gt;9326 -->
<g id="edge6" class="edge">
<title>2&#45;&gt;9326</title>
<path fill="none" stroke="black" d="M285,-202.07C285,-194.17 285,-185.88 285,-177.73"/>
<polygon fill="black" stroke="black" points="288.5,-177.87 285,-167.87 281.5,-177.87 288.5,-177.87"/>
</g>
<!-- 4 -->
<g id="node5" class="node">
<title>4</title>
<path fill="#c0c0c0" stroke="black" d="M71,-36C71,-36 41,-36 41,-36 35,-36 29,-30 29,-24 29,-24 29,-12 29,-12 29,-6 35,0 41,0 41,0 71,0 71,0 77,0 83,-6 83,-12 83,-12 83,-24 83,-24 83,-30 77,-36 71,-36"/>
<text text-anchor="middle" x="56" y="-13.32" font-family="Helvetica,sans-Serif" font-size="14.00">(...)</text>
</g>
<!-- 3&#45;&gt;4 -->
<g id="edge4" class="edge">
<title>3&#45;&gt;4</title>
<path fill="none" stroke="black" d="M75.16,-71.75C72.06,-63.22 68.92,-54.57 66.1,-46.8"/>
<polygon fill="black" stroke="black" points="69.46,-45.8 62.75,-37.6 62.88,-48.19 69.46,-45.8"/>
</g>
<!-- 8273 -->
<g id="node6" class="node">
<title>8273</title>
<path fill="#c0c0c0" stroke="black" d="M143,-36C143,-36 113,-36 113,-36 107,-36 101,-30 101,-24 101,-24 101,-12 101,-12 101,-6 107,0 113,0 113,0 143,0 143,0 149,0 155,-6 155,-12 155,-12 155,-24 155,-24 155,-30 149,-36 143,-36"/>
<text text-anchor="middle" x="128" y="-13.32" font-family="Helvetica,sans-Serif" font-size="14.00">(...)</text>
</g>
<!-- 3&#45;&gt;8273 -->
<g id="edge5" class="edge">
<title>3&#45;&gt;8273</title>
<path fill="none" stroke="black" d="M108.84,-71.75C111.94,-63.22 115.08,-54.57 117.9,-46.8"/>
<polygon fill="black" stroke="black" points="121.12,-48.19 121.25,-37.6 114.54,-45.8 121.12,-48.19"/>
</g>
<!-- 9327 -->
<g id="node8" class="node">
<title>9327</title>
<path fill="#c0c0c0" stroke="black" d="M253,-36C253,-36 223,-36 223,-36 217,-36 211,-30 211,-24 211,-24 211,-12 211,-12 211,-6 217,0 223,0 223,0 253,0 253,0 259,0 265,-6 265,-12 265,-12 265,-24 265,-24 265,-30 259,-36 253,-36"/>
<text text-anchor="middle" x="238" y="-13.32" font-family="Helvetica,sans-Serif" font-size="14.00">(...)</text>
</g>
<!-- 9326&#45;&gt;9327 -->
<g id="edge7" class="edge">
<title>9326&#45;&gt;9327</title>
<path fill="none" stroke="black" d="M263.01,-71.75C258.92,-63.12 254.77,-54.36 251.05,-46.53"/>
<polygon fill="black" stroke="black" points="254.24,-45.08 246.79,-37.54 247.91,-48.08 254.24,-45.08"/>
</g>
<!-- 11298 -->
<g id="node9" class="node">
<title>11298</title>
<path fill="#c0c0c0" stroke="black" d="M325,-36C325,-36 295,-36 295,-36 289,-36 283,-30 283,-24 283,-24 283,-12 283,-12 283,-6 289,0 295,0 295,0 325,0 325,0 331,0 337,-6 337,-12 337,-12 337,-24 337,-24 337,-30 331,-36 325,-36"/>
<text text-anchor="middle" x="310" y="-13.32" font-family="Helvetica,sans-Serif" font-size="14.00">(...)</text>
</g>
<!-- 9326&#45;&gt;11298 -->
<g id="edge8" class="edge">
<title>9326&#45;&gt;11298</title>
<path fill="none" stroke="black" d="M296.69,-71.75C298.82,-63.32 300.98,-54.77 302.92,-47.07"/>
<polygon fill="black" stroke="black" points="306.25,-48.19 305.3,-37.64 299.46,-46.48 306.25,-48.19"/>
</g>
<!-- 11922 -->
<g id="node11" class="node">
<title>11922</title>
<path fill="#eeae7f" stroke="black" d="M522,-166.25C522,-166.25 398,-166.25 398,-166.25 392,-166.25 386,-160.25 386,-154.25 386,-154.25 386,-84 386,-84 386,-78 392,-72 398,-72 398,-72 522,-72 522,-72 528,-72 534,-78 534,-84 534,-84 534,-154.25 534,-154.25 534,-160.25 528,-166.25 522,-166.25"/>
<text text-anchor="middle" x="460" y="-148.95" font-family="Helvetica,sans-Serif" font-size="14.00">3_A &lt;= 0.5</text>
<text text-anchor="middle" x="460" y="-131.7" font-family="Helvetica,sans-Serif" font-size="14.00">entropy = 0.828</text>
<text text-anchor="middle" x="460" y="-114.45" font-family="Helvetica,sans-Serif" font-size="14.00">samples = 818</text>
<text text-anchor="middle" x="460" y="-97.2" font-family="Helvetica,sans-Serif" font-size="14.00">value = [965, 341]</text>
<text text-anchor="middle" x="460" y="-79.95" font-family="Helvetica,sans-Serif" font-size="14.00">class = Animal</text>
</g>
<!-- 11921&#45;&gt;11922 -->
<g id="edge10" class="edge">
<title>11921&#45;&gt;11922</title>
<path fill="none" stroke="black" d="M507.28,-202.07C502.46,-193.72 497.39,-184.93 492.43,-176.33"/>
<polygon fill="black" stroke="black" points="495.46,-174.58 487.43,-167.67 489.4,-178.08 495.46,-174.58"/>
</g>
<!-- 12313 -->
<g id="node14" class="node">
<title>12313</title>
<path fill="#ea975c" stroke="black" d="M679.5,-166.25C679.5,-166.25 564.5,-166.25 564.5,-166.25 558.5,-166.25 552.5,-160.25 552.5,-154.25 552.5,-154.25 552.5,-84 552.5,-84 552.5,-78 558.5,-72 564.5,-72 564.5,-72 679.5,-72 679.5,-72 685.5,-72 691.5,-78 691.5,-84 691.5,-84 691.5,-154.25 691.5,-154.25 691.5,-160.25 685.5,-166.25 679.5,-166.25"/>
<text text-anchor="middle" x="622" y="-148.95" font-family="Helvetica,sans-Serif" font-size="14.00">24_G &lt;= 0.5</text>
<text text-anchor="middle" x="622" y="-131.7" font-family="Helvetica,sans-Serif" font-size="14.00">entropy = 0.611</text>
<text text-anchor="middle" x="622" y="-114.45" font-family="Helvetica,sans-Serif" font-size="14.00">samples = 372</text>
<text text-anchor="middle" x="622" y="-97.2" font-family="Helvetica,sans-Serif" font-size="14.00">value = [480, 85]</text>
<text text-anchor="middle" x="622" y="-79.95" font-family="Helvetica,sans-Serif" font-size="14.00">class = Animal</text>
</g>
<!-- 11921&#45;&gt;12313 -->
<g id="edge13" class="edge">
<title>11921&#45;&gt;12313</title>
<path fill="none" stroke="black" d="M565.77,-202.07C571.63,-193.54 577.8,-184.54 583.82,-175.77"/>
<polygon fill="black" stroke="black" points="586.65,-177.83 589.42,-167.61 580.88,-173.87 586.65,-177.83"/>
</g>
<!-- 11923 -->
<g id="node12" class="node">
<title>11923</title>
<path fill="#c0c0c0" stroke="black" d="M412,-36C412,-36 382,-36 382,-36 376,-36 370,-30 370,-24 370,-24 370,-12 370,-12 370,-6 376,0 382,0 382,0 412,0 412,0 418,0 424,-6 424,-12 424,-12 424,-24 424,-24 424,-30 418,-36 412,-36"/>
<text text-anchor="middle" x="397" y="-13.32" font-family="Helvetica,sans-Serif" font-size="14.00">(...)</text>
</g>
<!-- 11922&#45;&gt;11923 -->
<g id="edge11" class="edge">
<title>11922&#45;&gt;11923</title>
<path fill="none" stroke="black" d="M430.53,-71.75C424.85,-62.83 419.09,-53.76 413.98,-45.72"/>
<polygon fill="black" stroke="black" points="417.04,-44.01 408.73,-37.45 411.14,-47.77 417.04,-44.01"/>
</g>
<!-- 12198 -->
<g id="node13" class="node">
<title>12198</title>
<path fill="#c0c0c0" stroke="black" d="M484,-36C484,-36 454,-36 454,-36 448,-36 442,-30 442,-24 442,-24 442,-12 442,-12 442,-6 448,0 454,0 454,0 484,0 484,0 490,0 496,-6 496,-12 496,-12 496,-24 496,-24 496,-30 490,-36 484,-36"/>
<text text-anchor="middle" x="469" y="-13.32" font-family="Helvetica,sans-Serif" font-size="14.00">(...)</text>
</g>
<!-- 11922&#45;&gt;12198 -->
<g id="edge12" class="edge">
<title>11922&#45;&gt;12198</title>
<path fill="none" stroke="black" d="M464.21,-71.75C464.96,-63.52 465.72,-55.17 466.4,-47.61"/>
<polygon fill="black" stroke="black" points="469.89,-47.96 467.3,-37.68 462.91,-47.32 469.89,-47.96"/>
</g>
<!-- 12314 -->
<g id="node15" class="node">
<title>12314</title>
<path fill="#c0c0c0" stroke="black" d="M578,-36C578,-36 548,-36 548,-36 542,-36 536,-30 536,-24 536,-24 536,-12 536,-12 536,-6 542,0 548,0 548,0 578,0 578,0 584,0 590,-6 590,-12 590,-12 590,-24 590,-24 590,-30 584,-36 578,-36"/>
<text text-anchor="middle" x="563" y="-13.32" font-family="Helvetica,sans-Serif" font-size="14.00">(...)</text>
</g>
<!-- 12313&#45;&gt;12314 -->
<g id="edge14" class="edge">
<title>12313&#45;&gt;12314</title>
<path fill="none" stroke="black" d="M594.4,-71.75C589.15,-62.93 583.81,-53.96 579.06,-45.99"/>
<polygon fill="black" stroke="black" points="582.12,-44.28 574,-37.47 576.1,-47.86 582.12,-44.28"/>
</g>
<!-- 12413 -->
<g id="node16" class="node">
<title>12413</title>
<path fill="#c0c0c0" stroke="black" d="M650,-36C650,-36 620,-36 620,-36 614,-36 608,-30 608,-24 608,-24 608,-12 608,-12 608,-6 614,0 620,0 620,0 650,0 650,0 656,0 662,-6 662,-12 662,-12 662,-24 662,-24 662,-30 656,-36 650,-36"/>
<text text-anchor="middle" x="635" y="-13.32" font-family="Helvetica,sans-Serif" font-size="14.00">(...)</text>
</g>
<!-- 12313&#45;&gt;12413 -->
<g id="edge15" class="edge">
<title>12313&#45;&gt;12413</title>
<path fill="none" stroke="black" d="M628.08,-71.75C629.17,-63.42 630.28,-54.97 631.28,-47.34"/>
<polygon fill="black" stroke="black" points="634.72,-48.04 632.55,-37.67 627.78,-47.13 634.72,-48.04"/>
</g>
<!-- 12435 -->
<g id="node18" class="node">
<title>12435</title>
<path fill="#a5d2f3" stroke="black" d="M956,-296.5C956,-296.5 814,-296.5 814,-296.5 808,-296.5 802,-290.5 802,-284.5 802,-284.5 802,-214.25 802,-214.25 802,-208.25 808,-202.25 814,-202.25 814,-202.25 956,-202.25 956,-202.25 962,-202.25 968,-208.25 968,-214.25 968,-214.25 968,-284.5 968,-284.5 968,-290.5 962,-296.5 956,-296.5"/>
<text text-anchor="middle" x="885" y="-279.2" font-family="Helvetica,sans-Serif" font-size="14.00">13_U &lt;= 0.5</text>
<text text-anchor="middle" x="885" y="-261.95" font-family="Helvetica,sans-Serif" font-size="14.00">entropy = 0.936</text>
<text text-anchor="middle" x="885" y="-244.7" font-family="Helvetica,sans-Serif" font-size="14.00">samples = 9452</text>
<text text-anchor="middle" x="885" y="-227.45" font-family="Helvetica,sans-Serif" font-size="14.00">value = [5262, 9687]</text>
<text text-anchor="middle" x="885" y="-210.2" font-family="Helvetica,sans-Serif" font-size="14.00">class = Plant</text>
</g>
<!-- 12434&#45;&gt;12435 -->
<g id="edge17" class="edge">
<title>12434&#45;&gt;12435</title>
<path fill="none" stroke="black" d="M885,-332.32C885,-324.42 885,-316.13 885,-307.98"/>
<polygon fill="black" stroke="black" points="888.5,-308.12 885,-298.12 881.5,-308.12 888.5,-308.12"/>
</g>
<!-- 15770 -->
<g id="node25" class="node">
<title>15770</title>
<path fill="#fdf3ec" stroke="black" d="M1232,-296.5C1232,-296.5 1090,-296.5 1090,-296.5 1084,-296.5 1078,-290.5 1078,-284.5 1078,-284.5 1078,-214.25 1078,-214.25 1078,-208.25 1084,-202.25 1090,-202.25 1090,-202.25 1232,-202.25 1232,-202.25 1238,-202.25 1244,-208.25 1244,-214.25 1244,-214.25 1244,-284.5 1244,-284.5 1244,-290.5 1238,-296.5 1232,-296.5"/>
<text text-anchor="middle" x="1161" y="-279.2" font-family="Helvetica,sans-Serif" font-size="14.00">5_U &lt;= 0.5</text>
<text text-anchor="middle" x="1161" y="-261.95" font-family="Helvetica,sans-Serif" font-size="14.00">entropy = 0.998</text>
<text text-anchor="middle" x="1161" y="-244.7" font-family="Helvetica,sans-Serif" font-size="14.00">samples = 2421</text>
<text text-anchor="middle" x="1161" y="-227.45" font-family="Helvetica,sans-Serif" font-size="14.00">value = [2006, 1818]</text>
<text text-anchor="middle" x="1161" y="-210.2" font-family="Helvetica,sans-Serif" font-size="14.00">class = Animal</text>
</g>
<!-- 12434&#45;&gt;15770 -->
<g id="edge24" class="edge">
<title>12434&#45;&gt;15770</title>
<path fill="none" stroke="black" d="M972.71,-337.87C1002.91,-323.83 1036.84,-308.07 1067.5,-293.82"/>
<polygon fill="black" stroke="black" points="1068.79,-297.08 1076.38,-289.69 1065.84,-290.73 1068.79,-297.08"/>
</g>
<!-- 12436 -->
<g id="node19" class="node">
<title>12436</title>
<path fill="#90c8f0" stroke="black" d="M864,-166.25C864,-166.25 722,-166.25 722,-166.25 716,-166.25 710,-160.25 710,-154.25 710,-154.25 710,-84 710,-84 710,-78 716,-72 722,-72 722,-72 864,-72 864,-72 870,-72 876,-78 876,-84 876,-84 876,-154.25 876,-154.25 876,-160.25 870,-166.25 864,-166.25"/>
<text text-anchor="middle" x="793" y="-148.95" font-family="Helvetica,sans-Serif" font-size="14.00">4_A &lt;= 0.5</text>
<text text-anchor="middle" x="793" y="-131.7" font-family="Helvetica,sans-Serif" font-size="14.00">entropy = 0.888</text>
<text text-anchor="middle" x="793" y="-114.45" font-family="Helvetica,sans-Serif" font-size="14.00">samples = 7660</text>
<text text-anchor="middle" x="793" y="-97.2" font-family="Helvetica,sans-Serif" font-size="14.00">value = [3701, 8417]</text>
<text text-anchor="middle" x="793" y="-79.95" font-family="Helvetica,sans-Serif" font-size="14.00">class = Plant</text>
</g>
<!-- 12435&#45;&gt;12436 -->
<g id="edge18" class="edge">
<title>12435&#45;&gt;12436</title>
<path fill="none" stroke="black" d="M851.79,-202.07C845.6,-193.45 839.07,-184.35 832.71,-175.49"/>
<polygon fill="black" stroke="black" points="835.72,-173.67 827.05,-167.59 830.03,-177.75 835.72,-173.67"/>
</g>
<!-- 14911 -->
<g id="node22" class="node">
<title>14911</title>
<path fill="#fae8da" stroke="black" d="M1048,-166.25C1048,-166.25 906,-166.25 906,-166.25 900,-166.25 894,-160.25 894,-154.25 894,-154.25 894,-84 894,-84 894,-78 900,-72 906,-72 906,-72 1048,-72 1048,-72 1054,-72 1060,-78 1060,-84 1060,-84 1060,-154.25 1060,-154.25 1060,-160.25 1054,-166.25 1048,-166.25"/>
<text text-anchor="middle" x="977" y="-148.95" font-family="Helvetica,sans-Serif" font-size="14.00">22_G &lt;= 0.5</text>
<text text-anchor="middle" x="977" y="-131.7" font-family="Helvetica,sans-Serif" font-size="14.00">entropy = 0.992</text>
<text text-anchor="middle" x="977" y="-114.45" font-family="Helvetica,sans-Serif" font-size="14.00">samples = 1792</text>
<text text-anchor="middle" x="977" y="-97.2" font-family="Helvetica,sans-Serif" font-size="14.00">value = [1561, 1270]</text>
<text text-anchor="middle" x="977" y="-79.95" font-family="Helvetica,sans-Serif" font-size="14.00">class = Animal</text>
</g>
<!-- 12435&#45;&gt;14911 -->
<g id="edge21" class="edge">
<title>12435&#45;&gt;14911</title>
<path fill="none" stroke="black" d="M918.21,-202.07C924.4,-193.45 930.93,-184.35 937.29,-175.49"/>
<polygon fill="black" stroke="black" points="939.97,-177.75 942.95,-167.59 934.28,-173.67 939.97,-177.75"/>
</g>
<!-- 12437 -->
<g id="node20" class="node">
<title>12437</title>
<path fill="#c0c0c0" stroke="black" d="M756,-36C756,-36 726,-36 726,-36 720,-36 714,-30 714,-24 714,-24 714,-12 714,-12 714,-6 720,0 726,0 726,0 756,0 756,0 762,0 768,-6 768,-12 768,-12 768,-24 768,-24 768,-30 762,-36 756,-36"/>
<text text-anchor="middle" x="741" y="-13.32" font-family="Helvetica,sans-Serif" font-size="14.00">(...)</text>
</g>
<!-- 12436&#45;&gt;12437 -->
<g id="edge19" class="edge">
<title>12436&#45;&gt;12437</title>
<path fill="none" stroke="black" d="M768.67,-71.75C764.1,-63.03 759.45,-54.16 755.3,-46.26"/>
<polygon fill="black" stroke="black" points="758.46,-44.74 750.71,-37.51 752.26,-47.99 758.46,-44.74"/>
</g>
<!-- 14358 -->
<g id="node21" class="node">
<title>14358</title>
<path fill="#c0c0c0" stroke="black" d="M828,-36C828,-36 798,-36 798,-36 792,-36 786,-30 786,-24 786,-24 786,-12 786,-12 786,-6 792,0 798,0 798,0 828,0 828,0 834,0 840,-6 840,-12 840,-12 840,-24 840,-24 840,-30 834,-36 828,-36"/>
<text text-anchor="middle" x="813" y="-13.32" font-family="Helvetica,sans-Serif" font-size="14.00">(...)</text>
</g>
<!-- 12436&#45;&gt;14358 -->
<g id="edge20" class="edge">
<title>12436&#45;&gt;14358</title>
<path fill="none" stroke="black" d="M802.36,-71.75C804.04,-63.42 805.74,-54.97 807.28,-47.34"/>
<polygon fill="black" stroke="black" points="810.69,-48.15 809.24,-37.66 803.83,-46.77 810.69,-48.15"/>
</g>
<!-- 14912 -->
<g id="node23" class="node">
<title>14912</title>
<path fill="#c0c0c0" stroke="black" d="M940,-36C940,-36 910,-36 910,-36 904,-36 898,-30 898,-24 898,-24 898,-12 898,-12 898,-6 904,0 910,0 910,0 940,0 940,0 946,0 952,-6 952,-12 952,-12 952,-24 952,-24 952,-30 946,-36 940,-36"/>
<text text-anchor="middle" x="925" y="-13.32" font-family="Helvetica,sans-Serif" font-size="14.00">(...)</text>
</g>
<!-- 14911&#45;&gt;14912 -->
<g id="edge22" class="edge">
<title>14911&#45;&gt;14912</title>
<path fill="none" stroke="black" d="M952.67,-71.75C948.1,-63.03 943.45,-54.16 939.3,-46.26"/>
<polygon fill="black" stroke="black" points="942.46,-44.74 934.71,-37.51 936.26,-47.99 942.46,-44.74"/>
</g>
<!-- 15653 -->
<g id="node24" class="node">
<title>15653</title>
<path fill="#c0c0c0" stroke="black" d="M1012,-36C1012,-36 982,-36 982,-36 976,-36 970,-30 970,-24 970,-24 970,-12 970,-12 970,-6 976,0 982,0 982,0 1012,0 1012,0 1018,0 1024,-6 1024,-12 1024,-12 1024,-24 1024,-24 1024,-30 1018,-36 1012,-36"/>
<text text-anchor="middle" x="997" y="-13.32" font-family="Helvetica,sans-Serif" font-size="14.00">(...)</text>
</g>
<!-- 14911&#45;&gt;15653 -->
<g id="edge23" class="edge">
<title>14911&#45;&gt;15653</title>
<path fill="none" stroke="black" d="M986.36,-71.75C988.04,-63.42 989.74,-54.97 991.28,-47.34"/>
<polygon fill="black" stroke="black" points="994.69,-48.15 993.24,-37.66 987.83,-46.77 994.69,-48.15"/>
</g>
<!-- 15771 -->
<g id="node26" class="node">
<title>15771</title>
<path fill="#f5cdb0" stroke="black" d="M1232,-166.25C1232,-166.25 1090,-166.25 1090,-166.25 1084,-166.25 1078,-160.25 1078,-154.25 1078,-154.25 1078,-84 1078,-84 1078,-78 1084,-72 1090,-72 1090,-72 1232,-72 1232,-72 1238,-72 1244,-78 1244,-84 1244,-84 1244,-154.25 1244,-154.25 1244,-160.25 1238,-166.25 1232,-166.25"/>
<text text-anchor="middle" x="1161" y="-148.95" font-family="Helvetica,sans-Serif" font-size="14.00">17_A &lt;= 0.5</text>
<text text-anchor="middle" x="1161" y="-131.7" font-family="Helvetica,sans-Serif" font-size="14.00">entropy = 0.955</text>
<text text-anchor="middle" x="1161" y="-114.45" font-family="Helvetica,sans-Serif" font-size="14.00">samples = 1697</text>
<text text-anchor="middle" x="1161" y="-97.2" font-family="Helvetica,sans-Serif" font-size="14.00">value = [1690, 1018]</text>
<text text-anchor="middle" x="1161" y="-79.95" font-family="Helvetica,sans-Serif" font-size="14.00">class = Animal</text>
</g>
<!-- 15770&#45;&gt;15771 -->
<g id="edge25" class="edge">
<title>15770&#45;&gt;15771</title>
<path fill="none" stroke="black" d="M1161,-202.07C1161,-194.17 1161,-185.88 1161,-177.73"/>
<polygon fill="black" stroke="black" points="1164.5,-177.87 1161,-167.87 1157.5,-177.87 1164.5,-177.87"/>
</g>
<!-- 16664 -->
<g id="node29" class="node">
<title>16664</title>
<path fill="#87c4ef" stroke="black" d="M1398,-166.25C1398,-166.25 1274,-166.25 1274,-166.25 1268,-166.25 1262,-160.25 1262,-154.25 1262,-154.25 1262,-84 1262,-84 1262,-78 1268,-72 1274,-72 1274,-72 1398,-72 1398,-72 1404,-72 1410,-78 1410,-84 1410,-84 1410,-154.25 1410,-154.25 1410,-160.25 1404,-166.25 1398,-166.25"/>
<text text-anchor="middle" x="1336" y="-148.95" font-family="Helvetica,sans-Serif" font-size="14.00">12_G &lt;= 0.5</text>
<text text-anchor="middle" x="1336" y="-131.7" font-family="Helvetica,sans-Serif" font-size="14.00">entropy = 0.86</text>
<text text-anchor="middle" x="1336" y="-114.45" font-family="Helvetica,sans-Serif" font-size="14.00">samples = 724</text>
<text text-anchor="middle" x="1336" y="-97.2" font-family="Helvetica,sans-Serif" font-size="14.00">value = [316, 800]</text>
<text text-anchor="middle" x="1336" y="-79.95" font-family="Helvetica,sans-Serif" font-size="14.00">class = Plant</text>
</g>
<!-- 15770&#45;&gt;16664 -->
<g id="edge28" class="edge">
<title>15770&#45;&gt;16664</title>
<path fill="none" stroke="black" d="M1224.18,-202.07C1236.99,-192.69 1250.55,-182.75 1263.64,-173.15"/>
<polygon fill="black" stroke="black" points="1265.4,-176.2 1271.4,-167.47 1261.26,-170.56 1265.4,-176.2"/>
</g>
<!-- 15772 -->
<g id="node27" class="node">
<title>15772</title>
<path fill="#c0c0c0" stroke="black" d="M1137,-36C1137,-36 1107,-36 1107,-36 1101,-36 1095,-30 1095,-24 1095,-24 1095,-12 1095,-12 1095,-6 1101,0 1107,0 1107,0 1137,0 1137,0 1143,0 1149,-6 1149,-12 1149,-12 1149,-24 1149,-24 1149,-30 1143,-36 1137,-36"/>
<text text-anchor="middle" x="1122" y="-13.32" font-family="Helvetica,sans-Serif" font-size="14.00">(...)</text>
</g>
<!-- 15771&#45;&gt;15772 -->
<g id="edge26" class="edge">
<title>15771&#45;&gt;15772</title>
<path fill="none" stroke="black" d="M1142.76,-71.75C1139.4,-63.22 1135.99,-54.57 1132.94,-46.8"/>
<polygon fill="black" stroke="black" points="1136.23,-45.61 1129.31,-37.58 1129.71,-48.17 1136.23,-45.61"/>
</g>
<!-- 16489 -->
<g id="node28" class="node">
<title>16489</title>
<path fill="#c0c0c0" stroke="black" d="M1209,-36C1209,-36 1179,-36 1179,-36 1173,-36 1167,-30 1167,-24 1167,-24 1167,-12 1167,-12 1167,-6 1173,0 1179,0 1179,0 1209,0 1209,0 1215,0 1221,-6 1221,-12 1221,-12 1221,-24 1221,-24 1221,-30 1215,-36 1209,-36"/>
<text text-anchor="middle" x="1194" y="-13.32" font-family="Helvetica,sans-Serif" font-size="14.00">(...)</text>
</g>
<!-- 15771&#45;&gt;16489 -->
<g id="edge27" class="edge">
<title>15771&#45;&gt;16489</title>
<path fill="none" stroke="black" d="M1176.44,-71.75C1179.24,-63.32 1182.09,-54.77 1184.66,-47.07"/>
<polygon fill="black" stroke="black" points="1187.97,-48.2 1187.8,-37.61 1181.33,-45.99 1187.97,-48.2"/>
</g>
<!-- 16665 -->
<g id="node30" class="node">
<title>16665</title>
<path fill="#c0c0c0" stroke="black" d="M1315,-36C1315,-36 1285,-36 1285,-36 1279,-36 1273,-30 1273,-24 1273,-24 1273,-12 1273,-12 1273,-6 1279,0 1285,0 1285,0 1315,0 1315,0 1321,0 1327,-6 1327,-12 1327,-12 1327,-24 1327,-24 1327,-30 1321,-36 1315,-36"/>
<text text-anchor="middle" x="1300" y="-13.32" font-family="Helvetica,sans-Serif" font-size="14.00">(...)</text>
</g>
<!-- 16664&#45;&gt;16665 -->
<g id="edge29" class="edge">
<title>16664&#45;&gt;16665</title>
<path fill="none" stroke="black" d="M1319.16,-71.75C1316.06,-63.22 1312.92,-54.57 1310.1,-46.8"/>
<polygon fill="black" stroke="black" points="1313.46,-45.8 1306.75,-37.6 1306.88,-48.19 1313.46,-45.8"/>
</g>
<!-- 16882 -->
<g id="node31" class="node">
<title>16882</title>
<path fill="#c0c0c0" stroke="black" d="M1387,-36C1387,-36 1357,-36 1357,-36 1351,-36 1345,-30 1345,-24 1345,-24 1345,-12 1345,-12 1345,-6 1351,0 1357,0 1357,0 1387,0 1387,0 1393,0 1399,-6 1399,-12 1399,-12 1399,-24 1399,-24 1399,-30 1393,-36 1387,-36"/>
<text text-anchor="middle" x="1372" y="-13.32" font-family="Helvetica,sans-Serif" font-size="14.00">(...)</text>
</g>
<!-- 16664&#45;&gt;16882 -->
<g id="edge30" class="edge">
<title>16664&#45;&gt;16882</title>
<path fill="none" stroke="black" d="M1352.84,-71.75C1355.94,-63.22 1359.08,-54.57 1361.9,-46.8"/>
<polygon fill="black" stroke="black" points="1365.12,-48.19 1365.25,-37.6 1358.54,-45.8 1365.12,-48.19"/>
</g>
</g>
</svg>
