<?xml version="1.0" encoding="UTF-8" standalone="no"?>
<!DOCTYPE svg PUBLIC "-//W3C//DTD SVG 1.1//EN"
 "http://www.w3.org/Graphics/SVG/1.1/DTD/svg11.dtd">
<!-- Generated by graphviz version 12.0.0 (20240803.0821)
 -->
<!-- Title: Tree Pages: 1 -->
<svg width="1410pt" height="565pt"
 viewBox="0.00 0.00 1409.88 565.00" xmlns="http://www.w3.org/2000/svg" xmlns:xlink="http://www.w3.org/1999/xlink">
<g id="graph0" class="graph" transform="scale(1 1) rotate(0) translate(4 561)">
<title>Tree</title>
<polygon fill="white" stroke="none" points="-4,4 -4,-561 1405.88,-561 1405.88,4 -4,4"/>
<!-- 0 -->
<g id="node1" class="node">
<title>0</title>
<path fill="#fdfeff" stroke="black" d="M796.5,-557C796.5,-557 636.5,-557 636.5,-557 630.5,-557 624.5,-551 624.5,-545 624.5,-545 624.5,-474.75 624.5,-474.75 624.5,-468.75 630.5,-462.75 636.5,-462.75 636.5,-462.75 796.5,-462.75 796.5,-462.75 802.5,-462.75 808.5,-468.75 808.5,-474.75 808.5,-474.75 808.5,-545 808.5,-545 808.5,-551 802.5,-557 796.5,-557"/>
<text text-anchor="middle" x="716.5" y="-539.7" font-family="Helvetica,sans-Serif" font-size="14.00">19_C &lt;= 0.5</text>
<text text-anchor="middle" x="716.5" y="-522.45" font-family="Helvetica,sans-Serif" font-size="14.00">entropy = 1.0</text>
<text text-anchor="middle" x="716.5" y="-505.2" font-family="Helvetica,sans-Serif" font-size="14.00">samples = 38134</text>
<text text-anchor="middle" x="716.5" y="-487.95" font-family="Helvetica,sans-Serif" font-size="14.00">value = [30028, 30317]</text>
<text text-anchor="middle" x="716.5" y="-470.7" font-family="Helvetica,sans-Serif" font-size="14.00">class = Plant</text>
</g>
<!-- 1 -->
<g id="node2" class="node">
<title>1</title>
<path fill="#f9e1d0" stroke="black" d="M623.5,-426.75C623.5,-426.75 463.5,-426.75 463.5,-426.75 457.5,-426.75 451.5,-420.75 451.5,-414.75 451.5,-414.75 451.5,-344.5 451.5,-344.5 451.5,-338.5 457.5,-332.5 463.5,-332.5 463.5,-332.5 623.5,-332.5 623.5,-332.5 629.5,-332.5 635.5,-338.5 635.5,-344.5 635.5,-344.5 635.5,-414.75 635.5,-414.75 635.5,-420.75 629.5,-426.75 623.5,-426.75"/>
<text text-anchor="middle" x="543.5" y="-409.45" font-family="Helvetica,sans-Serif" font-size="14.00">20_G &lt;= 0.5</text>
<text text-anchor="middle" x="543.5" y="-392.2" font-family="Helvetica,sans-Serif" font-size="14.00">entropy = 0.987</text>
<text text-anchor="middle" x="543.5" y="-374.95" font-family="Helvetica,sans-Serif" font-size="14.00">samples = 25705</text>
<text text-anchor="middle" x="543.5" y="-357.7" font-family="Helvetica,sans-Serif" font-size="14.00">value = [23112, 17581]</text>
<text text-anchor="middle" x="543.5" y="-340.45" font-family="Helvetica,sans-Serif" font-size="14.00">class = Animal</text>
</g>
<!-- 0&#45;&gt;1 -->
<g id="edge1" class="edge">
<title>0&#45;&gt;1</title>
<path fill="none" stroke="black" d="M654.04,-462.57C641.5,-453.28 628.23,-443.44 615.4,-433.93"/>
<polygon fill="black" stroke="black" points="617.49,-431.12 607.37,-427.97 613.32,-436.74 617.49,-431.12"/>
<text text-anchor="middle" x="609.83" y="-447.13" font-family="Helvetica,sans-Serif" font-size="14.00">True</text>
</g>
<!-- 12788 -->
<g id="node17" class="node">
<title>12788</title>
<path fill="#a5d2f3" stroke="black" d="M978,-426.75C978,-426.75 827,-426.75 827,-426.75 821,-426.75 815,-420.75 815,-414.75 815,-414.75 815,-344.5 815,-344.5 815,-338.5 821,-332.5 827,-332.5 827,-332.5 978,-332.5 978,-332.5 984,-332.5 990,-338.5 990,-344.5 990,-344.5 990,-414.75 990,-414.75 990,-420.75 984,-426.75 978,-426.75"/>
<text text-anchor="middle" x="902.5" y="-409.45" font-family="Helvetica,sans-Serif" font-size="14.00">22_C &lt;= 0.5</text>
<text text-anchor="middle" x="902.5" y="-392.2" font-family="Helvetica,sans-Serif" font-size="14.00">entropy = 0.936</text>
<text text-anchor="middle" x="902.5" y="-374.95" font-family="Helvetica,sans-Serif" font-size="14.00">samples = 12429</text>
<text text-anchor="middle" x="902.5" y="-357.7" font-family="Helvetica,sans-Serif" font-size="14.00">value = [6916, 12736]</text>
<text text-anchor="middle" x="902.5" y="-340.45" font-family="Helvetica,sans-Serif" font-size="14.00">class = Plant</text>
</g>
<!-- 0&#45;&gt;12788 -->
<g id="edge16" class="edge">
<title>0&#45;&gt;12788</title>
<path fill="none" stroke="black" d="M783.91,-462.39C797.43,-453.07 811.73,-443.22 825.54,-433.69"/>
<polygon fill="black" stroke="black" points="827.51,-436.58 833.76,-428.02 823.54,-430.82 827.51,-436.58"/>
<text text-anchor="middle" x="830.49" y="-447.08" font-family="Helvetica,sans-Serif" font-size="14.00">False</text>
</g>
<!-- 2 -->
<g id="node3" class="node">
<title>2</title>
<path fill="#fcf1e9" stroke="black" d="M356.5,-296.5C356.5,-296.5 196.5,-296.5 196.5,-296.5 190.5,-296.5 184.5,-290.5 184.5,-284.5 184.5,-284.5 184.5,-214.25 184.5,-214.25 184.5,-208.25 190.5,-202.25 196.5,-202.25 196.5,-202.25 356.5,-202.25 356.5,-202.25 362.5,-202.25 368.5,-208.25 368.5,-214.25 368.5,-214.25 368.5,-284.5 368.5,-284.5 368.5,-290.5 362.5,-296.5 356.5,-296.5"/>
<text text-anchor="middle" x="276.5" y="-279.2" font-family="Helvetica,sans-Serif" font-size="14.00">11_G &lt;= 0.5</text>
<text text-anchor="middle" x="276.5" y="-261.95" font-family="Helvetica,sans-Serif" font-size="14.00">entropy = 0.997</text>
<text text-anchor="middle" x="276.5" y="-244.7" font-family="Helvetica,sans-Serif" font-size="14.00">samples = 18756</text>
<text text-anchor="middle" x="276.5" y="-227.45" font-family="Helvetica,sans-Serif" font-size="14.00">value = [15693, 13912]</text>
<text text-anchor="middle" x="276.5" y="-210.2" font-family="Helvetica,sans-Serif" font-size="14.00">class = Animal</text>
</g>
<!-- 1&#45;&gt;2 -->
<g id="edge2" class="edge">
<title>1&#45;&gt;2</title>
<path fill="none" stroke="black" d="M451.24,-334.31C427.9,-323.1 402.68,-310.99 378.87,-299.55"/>
<polygon fill="black" stroke="black" points="380.66,-296.52 370.13,-295.35 377.63,-302.83 380.66,-296.52"/>
</g>
<!-- 9199 -->
<g id="node10" class="node">
<title>9199</title>
<path fill="#f2bf9b" stroke="black" d="M614.5,-296.5C614.5,-296.5 472.5,-296.5 472.5,-296.5 466.5,-296.5 460.5,-290.5 460.5,-284.5 460.5,-284.5 460.5,-214.25 460.5,-214.25 460.5,-208.25 466.5,-202.25 472.5,-202.25 472.5,-202.25 614.5,-202.25 614.5,-202.25 620.5,-202.25 626.5,-208.25 626.5,-214.25 626.5,-214.25 626.5,-284.5 626.5,-284.5 626.5,-290.5 620.5,-296.5 614.5,-296.5"/>
<text text-anchor="middle" x="543.5" y="-279.2" font-family="Helvetica,sans-Serif" font-size="14.00">22_C &lt;= 0.5</text>
<text text-anchor="middle" x="543.5" y="-261.95" font-family="Helvetica,sans-Serif" font-size="14.00">entropy = 0.916</text>
<text text-anchor="middle" x="543.5" y="-244.7" font-family="Helvetica,sans-Serif" font-size="14.00">samples = 6949</text>
<text text-anchor="middle" x="543.5" y="-227.45" font-family="Helvetica,sans-Serif" font-size="14.00">value = [7419, 3669]</text>
<text text-anchor="middle" x="543.5" y="-210.2" font-family="Helvetica,sans-Serif" font-size="14.00">class = Animal</text>
</g>
<!-- 1&#45;&gt;9199 -->
<g id="edge9" class="edge">
<title>1&#45;&gt;9199</title>
<path fill="none" stroke="black" d="M543.5,-332.32C543.5,-324.42 543.5,-316.13 543.5,-307.98"/>
<polygon fill="black" stroke="black" points="547,-308.12 543.5,-298.12 540,-308.12 547,-308.12"/>
</g>
<!-- 3 -->
<g id="node4" class="node">
<title>3</title>
<path fill="#f8dfcc" stroke="black" d="M163,-166.25C163,-166.25 12,-166.25 12,-166.25 6,-166.25 0,-160.25 0,-154.25 0,-154.25 0,-84 0,-84 0,-78 6,-72 12,-72 12,-72 163,-72 163,-72 169,-72 175,-78 175,-84 175,-84 175,-154.25 175,-154.25 175,-160.25 169,-166.25 163,-166.25"/>
<text text-anchor="middle" x="87.5" y="-148.95" font-family="Helvetica,sans-Serif" font-size="14.00">19_A &lt;= 0.5</text>
<text text-anchor="middle" x="87.5" y="-131.7" font-family="Helvetica,sans-Serif" font-size="14.00">entropy = 0.984</text>
<text text-anchor="middle" x="87.5" y="-114.45" font-family="Helvetica,sans-Serif" font-size="14.00">samples = 13059</text>
<text text-anchor="middle" x="87.5" y="-97.2" font-family="Helvetica,sans-Serif" font-size="14.00">value = [11794, 8769]</text>
<text text-anchor="middle" x="87.5" y="-79.95" font-family="Helvetica,sans-Serif" font-size="14.00">class = Animal</text>
</g>
<!-- 2&#45;&gt;3 -->
<g id="edge3" class="edge">
<title>2&#45;&gt;3</title>
<path fill="none" stroke="black" d="M208,-201.89C194.13,-192.48 179.46,-182.53 165.3,-172.92"/>
<polygon fill="black" stroke="black" points="167.58,-170.23 157.34,-167.51 163.65,-176.03 167.58,-170.23"/>
</g>
<!-- 6702 -->
<g id="node7" class="node">
<title>6702</title>
<path fill="#cfe7f9" stroke="black" d="M347.5,-166.25C347.5,-166.25 205.5,-166.25 205.5,-166.25 199.5,-166.25 193.5,-160.25 193.5,-154.25 193.5,-154.25 193.5,-84 193.5,-84 193.5,-78 199.5,-72 205.5,-72 205.5,-72 347.5,-72 347.5,-72 353.5,-72 359.5,-78 359.5,-84 359.5,-84 359.5,-154.25 359.5,-154.25 359.5,-160.25 353.5,-166.25 347.5,-166.25"/>
<text text-anchor="middle" x="276.5" y="-148.95" font-family="Helvetica,sans-Serif" font-size="14.00">8_G &lt;= 0.5</text>
<text text-anchor="middle" x="276.5" y="-131.7" font-family="Helvetica,sans-Serif" font-size="14.00">entropy = 0.986</text>
<text text-anchor="middle" x="276.5" y="-114.45" font-family="Helvetica,sans-Serif" font-size="14.00">samples = 5697</text>
<text text-anchor="middle" x="276.5" y="-97.2" font-family="Helvetica,sans-Serif" font-size="14.00">value = [3899, 5143]</text>
<text text-anchor="middle" x="276.5" y="-79.95" font-family="Helvetica,sans-Serif" font-size="14.00">class = Plant</text>
</g>
<!-- 2&#45;&gt;6702 -->
<g id="edge6" class="edge">
<title>2&#45;&gt;6702</title>
<path fill="none" stroke="black" d="M276.5,-202.07C276.5,-194.17 276.5,-185.88 276.5,-177.73"/>
<polygon fill="black" stroke="black" points="280,-177.87 276.5,-167.87 273,-177.87 280,-177.87"/>
</g>
<!-- 4 -->
<g id="node5" class="node">
<title>4</title>
<path fill="#c0c0c0" stroke="black" d="M66.5,-36C66.5,-36 36.5,-36 36.5,-36 30.5,-36 24.5,-30 24.5,-24 24.5,-24 24.5,-12 24.5,-12 24.5,-6 30.5,0 36.5,0 36.5,0 66.5,0 66.5,0 72.5,0 78.5,-6 78.5,-12 78.5,-12 78.5,-24 78.5,-24 78.5,-30 72.5,-36 66.5,-36"/>
<text text-anchor="middle" x="51.5" y="-13.32" font-family="Helvetica,sans-Serif" font-size="14.00">(...)</text>
</g>
<!-- 3&#45;&gt;4 -->
<g id="edge4" class="edge">
<title>3&#45;&gt;4</title>
<path fill="none" stroke="black" d="M70.66,-71.75C67.56,-63.22 64.42,-54.57 61.6,-46.8"/>
<polygon fill="black" stroke="black" points="64.96,-45.8 58.25,-37.6 58.38,-48.19 64.96,-45.8"/>
</g>
<!-- 4741 -->
<g id="node6" class="node">
<title>4741</title>
<path fill="#c0c0c0" stroke="black" d="M138.5,-36C138.5,-36 108.5,-36 108.5,-36 102.5,-36 96.5,-30 96.5,-24 96.5,-24 96.5,-12 96.5,-12 96.5,-6 102.5,0 108.5,0 108.5,0 138.5,0 138.5,0 144.5,0 150.5,-6 150.5,-12 150.5,-12 150.5,-24 150.5,-24 150.5,-30 144.5,-36 138.5,-36"/>
<text text-anchor="middle" x="123.5" y="-13.32" font-family="Helvetica,sans-Serif" font-size="14.00">(...)</text>
</g>
<!-- 3&#45;&gt;4741 -->
<g id="edge5" class="edge">
<title>3&#45;&gt;4741</title>
<path fill="none" stroke="black" d="M104.34,-71.75C107.44,-63.22 110.58,-54.57 113.4,-46.8"/>
<polygon fill="black" stroke="black" points="116.62,-48.19 116.75,-37.6 110.04,-45.8 116.62,-48.19"/>
</g>
<!-- 6703 -->
<g id="node8" class="node">
<title>6703</title>
<path fill="#c0c0c0" stroke="black" d="M254.5,-36C254.5,-36 224.5,-36 224.5,-36 218.5,-36 212.5,-30 212.5,-24 212.5,-24 212.5,-12 212.5,-12 212.5,-6 218.5,0 224.5,0 224.5,0 254.5,0 254.5,0 260.5,0 266.5,-6 266.5,-12 266.5,-12 266.5,-24 266.5,-24 266.5,-30 260.5,-36 254.5,-36"/>
<text text-anchor="middle" x="239.5" y="-13.32" font-family="Helvetica,sans-Serif" font-size="14.00">(...)</text>
</g>
<!-- 6702&#45;&gt;6703 -->
<g id="edge7" class="edge">
<title>6702&#45;&gt;6703</title>
<path fill="none" stroke="black" d="M259.19,-71.75C256.01,-63.22 252.78,-54.57 249.88,-46.8"/>
<polygon fill="black" stroke="black" points="253.22,-45.74 246.44,-37.59 246.66,-48.18 253.22,-45.74"/>
</g>
<!-- 8426 -->
<g id="node9" class="node">
<title>8426</title>
<path fill="#c0c0c0" stroke="black" d="M326.5,-36C326.5,-36 296.5,-36 296.5,-36 290.5,-36 284.5,-30 284.5,-24 284.5,-24 284.5,-12 284.5,-12 284.5,-6 290.5,0 296.5,0 296.5,0 326.5,0 326.5,0 332.5,0 338.5,-6 338.5,-12 338.5,-12 338.5,-24 338.5,-24 338.5,-30 332.5,-36 326.5,-36"/>
<text text-anchor="middle" x="311.5" y="-13.32" font-family="Helvetica,sans-Serif" font-size="14.00">(...)</text>
</g>
<!-- 6702&#45;&gt;8426 -->
<g id="edge8" class="edge">
<title>6702&#45;&gt;8426</title>
<path fill="none" stroke="black" d="M292.87,-71.75C295.89,-63.22 298.94,-54.57 301.68,-46.8"/>
<polygon fill="black" stroke="black" points="304.9,-48.19 304.93,-37.6 298.3,-45.86 304.9,-48.19"/>
</g>
<!-- 9200 -->
<g id="node11" class="node">
<title>9200</title>
<path fill="#f2c29f" stroke="black" d="M531.5,-166.25C531.5,-166.25 389.5,-166.25 389.5,-166.25 383.5,-166.25 377.5,-160.25 377.5,-154.25 377.5,-154.25 377.5,-84 377.5,-84 377.5,-78 383.5,-72 389.5,-72 389.5,-72 531.5,-72 531.5,-72 537.5,-72 543.5,-78 543.5,-84 543.5,-84 543.5,-154.25 543.5,-154.25 543.5,-160.25 537.5,-166.25 531.5,-166.25"/>
<text text-anchor="middle" x="460.5" y="-148.95" font-family="Helvetica,sans-Serif" font-size="14.00">23_G &lt;= 0.5</text>
<text text-anchor="middle" x="460.5" y="-131.7" font-family="Helvetica,sans-Serif" font-size="14.00">entropy = 0.925</text>
<text text-anchor="middle" x="460.5" y="-114.45" font-family="Helvetica,sans-Serif" font-size="14.00">samples = 6296</text>
<text text-anchor="middle" x="460.5" y="-97.2" font-family="Helvetica,sans-Serif" font-size="14.00">value = [6645, 3429]</text>
<text text-anchor="middle" x="460.5" y="-79.95" font-family="Helvetica,sans-Serif" font-size="14.00">class = Animal</text>
</g>
<!-- 9199&#45;&gt;9200 -->
<g id="edge10" class="edge">
<title>9199&#45;&gt;9200</title>
<path fill="none" stroke="black" d="M513.54,-202.07C508.01,-193.54 502.19,-184.54 496.51,-175.77"/>
<polygon fill="black" stroke="black" points="499.61,-174.12 491.24,-167.63 493.74,-177.93 499.61,-174.12"/>
</g>
<!-- 12451 -->
<g id="node14" class="node">
<title>12451</title>
<path fill="#eda876" stroke="black" d="M697.5,-166.25C697.5,-166.25 573.5,-166.25 573.5,-166.25 567.5,-166.25 561.5,-160.25 561.5,-154.25 561.5,-154.25 561.5,-84 561.5,-84 561.5,-78 567.5,-72 573.5,-72 573.5,-72 697.5,-72 697.5,-72 703.5,-72 709.5,-78 709.5,-84 709.5,-84 709.5,-154.25 709.5,-154.25 709.5,-160.25 703.5,-166.25 697.5,-166.25"/>
<text text-anchor="middle" x="635.5" y="-148.95" font-family="Helvetica,sans-Serif" font-size="14.00">2_G &lt;= 0.5</text>
<text text-anchor="middle" x="635.5" y="-131.7" font-family="Helvetica,sans-Serif" font-size="14.00">entropy = 0.789</text>
<text text-anchor="middle" x="635.5" y="-114.45" font-family="Helvetica,sans-Serif" font-size="14.00">samples = 653</text>
<text text-anchor="middle" x="635.5" y="-97.2" font-family="Helvetica,sans-Serif" font-size="14.00">value = [774, 240]</text>
<text text-anchor="middle" x="635.5" y="-79.95" font-family="Helvetica,sans-Serif" font-size="14.00">class = Animal</text>
</g>
<!-- 9199&#45;&gt;12451 -->
<g id="edge13" class="edge">
<title>9199&#45;&gt;12451</title>
<path fill="none" stroke="black" d="M576.71,-202.07C582.9,-193.45 589.43,-184.35 595.79,-175.49"/>
<polygon fill="black" stroke="black" points="598.47,-177.75 601.45,-167.59 592.78,-173.67 598.47,-177.75"/>
</g>
<!-- 9201 -->
<g id="node12" class="node">
<title>9201</title>
<path fill="#c0c0c0" stroke="black" d="M418.5,-36C418.5,-36 388.5,-36 388.5,-36 382.5,-36 376.5,-30 376.5,-24 376.5,-24 376.5,-12 376.5,-12 376.5,-6 382.5,0 388.5,0 388.5,0 418.5,0 418.5,0 424.5,0 430.5,-6 430.5,-12 430.5,-12 430.5,-24 430.5,-24 430.5,-30 424.5,-36 418.5,-36"/>
<text text-anchor="middle" x="403.5" y="-13.32" font-family="Helvetica,sans-Serif" font-size="14.00">(...)</text>
</g>
<!-- 9200&#45;&gt;9201 -->
<g id="edge11" class="edge">
<title>9200&#45;&gt;9201</title>
<path fill="none" stroke="black" d="M433.84,-71.75C428.76,-62.93 423.6,-53.96 419.02,-45.99"/>
<polygon fill="black" stroke="black" points="422.15,-44.41 414.13,-37.48 416.08,-47.9 422.15,-44.41"/>
</g>
<!-- 12312 -->
<g id="node13" class="node">
<title>12312</title>
<path fill="#c0c0c0" stroke="black" d="M490.5,-36C490.5,-36 460.5,-36 460.5,-36 454.5,-36 448.5,-30 448.5,-24 448.5,-24 448.5,-12 448.5,-12 448.5,-6 454.5,0 460.5,0 460.5,0 490.5,0 490.5,0 496.5,0 502.5,-6 502.5,-12 502.5,-12 502.5,-24 502.5,-24 502.5,-30 496.5,-36 490.5,-36"/>
<text text-anchor="middle" x="475.5" y="-13.32" font-family="Helvetica,sans-Serif" font-size="14.00">(...)</text>
</g>
<!-- 9200&#45;&gt;12312 -->
<g id="edge12" class="edge">
<title>9200&#45;&gt;12312</title>
<path fill="none" stroke="black" d="M467.52,-71.75C468.78,-63.42 470.06,-54.97 471.21,-47.34"/>
<polygon fill="black" stroke="black" points="474.64,-48.08 472.67,-37.67 467.72,-47.03 474.64,-48.08"/>
</g>
<!-- 12452 -->
<g id="node15" class="node">
<title>12452</title>
<path fill="#c0c0c0" stroke="black" d="M596.5,-36C596.5,-36 566.5,-36 566.5,-36 560.5,-36 554.5,-30 554.5,-24 554.5,-24 554.5,-12 554.5,-12 554.5,-6 560.5,0 566.5,0 566.5,0 596.5,0 596.5,0 602.5,0 608.5,-6 608.5,-12 608.5,-12 608.5,-24 608.5,-24 608.5,-30 602.5,-36 596.5,-36"/>
<text text-anchor="middle" x="581.5" y="-13.32" font-family="Helvetica,sans-Serif" font-size="14.00">(...)</text>
</g>
<!-- 12451&#45;&gt;12452 -->
<g id="edge14" class="edge">
<title>12451&#45;&gt;12452</title>
<path fill="none" stroke="black" d="M610.24,-71.75C605.48,-63.03 600.66,-54.16 596.35,-46.26"/>
<polygon fill="black" stroke="black" points="599.44,-44.61 591.58,-37.5 593.29,-47.96 599.44,-44.61"/>
</g>
<!-- 12707 -->
<g id="node16" class="node">
<title>12707</title>
<path fill="#c0c0c0" stroke="black" d="M668.5,-36C668.5,-36 638.5,-36 638.5,-36 632.5,-36 626.5,-30 626.5,-24 626.5,-24 626.5,-12 626.5,-12 626.5,-6 632.5,0 638.5,0 638.5,0 668.5,0 668.5,0 674.5,0 680.5,-6 680.5,-12 680.5,-12 680.5,-24 680.5,-24 680.5,-30 674.5,-36 668.5,-36"/>
<text text-anchor="middle" x="653.5" y="-13.32" font-family="Helvetica,sans-Serif" font-size="14.00">(...)</text>
</g>
<!-- 12451&#45;&gt;12707 -->
<g id="edge15" class="edge">
<title>12451&#45;&gt;12707</title>
<path fill="none" stroke="black" d="M643.92,-71.75C645.43,-63.42 646.97,-54.97 648.35,-47.34"/>
<polygon fill="black" stroke="black" points="651.77,-48.13 650.11,-37.66 644.88,-46.88 651.77,-48.13"/>
</g>
<!-- 12789 -->
<g id="node18" class="node">
<title>12789</title>
<path fill="#99ccf2" stroke="black" d="M978,-296.5C978,-296.5 827,-296.5 827,-296.5 821,-296.5 815,-290.5 815,-284.5 815,-284.5 815,-214.25 815,-214.25 815,-208.25 821,-202.25 827,-202.25 827,-202.25 978,-202.25 978,-202.25 984,-202.25 990,-208.25 990,-214.25 990,-214.25 990,-284.5 990,-284.5 990,-290.5 984,-296.5 978,-296.5"/>
<text text-anchor="middle" x="902.5" y="-279.2" font-family="Helvetica,sans-Serif" font-size="14.00">22_U &lt;= 0.5</text>
<text text-anchor="middle" x="902.5" y="-261.95" font-family="Helvetica,sans-Serif" font-size="14.00">entropy = 0.911</text>
<text text-anchor="middle" x="902.5" y="-244.7" font-family="Helvetica,sans-Serif" font-size="14.00">samples = 11350</text>
<text text-anchor="middle" x="902.5" y="-227.45" font-family="Helvetica,sans-Serif" font-size="14.00">value = [5856, 12098]</text>
<text text-anchor="middle" x="902.5" y="-210.2" font-family="Helvetica,sans-Serif" font-size="14.00">class = Plant</text>
</g>
<!-- 12788&#45;&gt;12789 -->
<g id="edge17" class="edge">
<title>12788&#45;&gt;12789</title>
<path fill="none" stroke="black" d="M902.5,-332.32C902.5,-324.42 902.5,-316.13 902.5,-307.98"/>
<polygon fill="black" stroke="black" points="906,-308.12 902.5,-298.12 899,-308.12 906,-308.12"/>
</g>
<!-- 16534 -->
<g id="node25" class="node">
<title>16534</title>
<path fill="#f5cdb0" stroke="black" d="M1241,-296.5C1241,-296.5 1108,-296.5 1108,-296.5 1102,-296.5 1096,-290.5 1096,-284.5 1096,-284.5 1096,-214.25 1096,-214.25 1096,-208.25 1102,-202.25 1108,-202.25 1108,-202.25 1241,-202.25 1241,-202.25 1247,-202.25 1253,-208.25 1253,-214.25 1253,-214.25 1253,-284.5 1253,-284.5 1253,-290.5 1247,-296.5 1241,-296.5"/>
<text text-anchor="middle" x="1174.5" y="-279.2" font-family="Helvetica,sans-Serif" font-size="14.00">25_U &lt;= 0.5</text>
<text text-anchor="middle" x="1174.5" y="-261.95" font-family="Helvetica,sans-Serif" font-size="14.00">entropy = 0.955</text>
<text text-anchor="middle" x="1174.5" y="-244.7" font-family="Helvetica,sans-Serif" font-size="14.00">samples = 1079</text>
<text text-anchor="middle" x="1174.5" y="-227.45" font-family="Helvetica,sans-Serif" font-size="14.00">value = [1060, 638]</text>
<text text-anchor="middle" x="1174.5" y="-210.2" font-family="Helvetica,sans-Serif" font-size="14.00">class = Animal</text>
</g>
<!-- 12788&#45;&gt;16534 -->
<g id="edge24" class="edge">
<title>12788&#45;&gt;16534</title>
<path fill="none" stroke="black" d="M990.43,-337.16C1020.83,-322.83 1054.91,-306.76 1085.4,-292.38"/>
<polygon fill="black" stroke="black" points="1086.68,-295.65 1094.23,-288.22 1083.69,-289.32 1086.68,-295.65"/>
</g>
<!-- 12790 -->
<g id="node19" class="node">
<title>12790</title>
<path fill="#80c0ee" stroke="black" d="M891,-166.25C891,-166.25 740,-166.25 740,-166.25 734,-166.25 728,-160.25 728,-154.25 728,-154.25 728,-84 728,-84 728,-78 734,-72 740,-72 740,-72 891,-72 891,-72 897,-72 903,-78 903,-84 903,-84 903,-154.25 903,-154.25 903,-160.25 897,-166.25 891,-166.25"/>
<text text-anchor="middle" x="815.5" y="-148.95" font-family="Helvetica,sans-Serif" font-size="14.00">3_G &lt;= 0.5</text>
<text text-anchor="middle" x="815.5" y="-131.7" font-family="Helvetica,sans-Serif" font-size="14.00">entropy = 0.833</text>
<text text-anchor="middle" x="815.5" y="-114.45" font-family="Helvetica,sans-Serif" font-size="14.00">samples = 10074</text>
<text text-anchor="middle" x="815.5" y="-97.2" font-family="Helvetica,sans-Serif" font-size="14.00">value = [4214, 11722]</text>
<text text-anchor="middle" x="815.5" y="-79.95" font-family="Helvetica,sans-Serif" font-size="14.00">class = Plant</text>
</g>
<!-- 12789&#45;&gt;12790 -->
<g id="edge18" class="edge">
<title>12789&#45;&gt;12790</title>
<path fill="none" stroke="black" d="M871.09,-202.07C865.3,-193.54 859.2,-184.54 853.25,-175.77"/>
<polygon fill="black" stroke="black" points="856.22,-173.92 847.71,-167.61 850.43,-177.85 856.22,-173.92"/>
</g>
<!-- 15985 -->
<g id="node22" class="node">
<title>15985</title>
<path fill="#eb9e66" stroke="black" d="M1066,-166.25C1066,-166.25 933,-166.25 933,-166.25 927,-166.25 921,-160.25 921,-154.25 921,-154.25 921,-84 921,-84 921,-78 927,-72 933,-72 933,-72 1066,-72 1066,-72 1072,-72 1078,-78 1078,-84 1078,-84 1078,-154.25 1078,-154.25 1078,-160.25 1072,-166.25 1066,-166.25"/>
<text text-anchor="middle" x="999.5" y="-148.95" font-family="Helvetica,sans-Serif" font-size="14.00">2_A &lt;= 0.5</text>
<text text-anchor="middle" x="999.5" y="-131.7" font-family="Helvetica,sans-Serif" font-size="14.00">entropy = 0.694</text>
<text text-anchor="middle" x="999.5" y="-114.45" font-family="Helvetica,sans-Serif" font-size="14.00">samples = 1276</text>
<text text-anchor="middle" x="999.5" y="-97.2" font-family="Helvetica,sans-Serif" font-size="14.00">value = [1642, 376]</text>
<text text-anchor="middle" x="999.5" y="-79.95" font-family="Helvetica,sans-Serif" font-size="14.00">class = Animal</text>
</g>
<!-- 12789&#45;&gt;15985 -->
<g id="edge21" class="edge">
<title>12789&#45;&gt;15985</title>
<path fill="none" stroke="black" d="M937.52,-202.07C944.04,-193.45 950.92,-184.35 957.63,-175.49"/>
<polygon fill="black" stroke="black" points="960.38,-177.65 963.62,-167.57 954.8,-173.43 960.38,-177.65"/>
</g>
<!-- 12791 -->
<g id="node20" class="node">
<title>12791</title>
<path fill="#c0c0c0" stroke="black" d="M778.5,-36C778.5,-36 748.5,-36 748.5,-36 742.5,-36 736.5,-30 736.5,-24 736.5,-24 736.5,-12 736.5,-12 736.5,-6 742.5,0 748.5,0 748.5,0 778.5,0 778.5,0 784.5,0 790.5,-6 790.5,-12 790.5,-12 790.5,-24 790.5,-24 790.5,-30 784.5,-36 778.5,-36"/>
<text text-anchor="middle" x="763.5" y="-13.32" font-family="Helvetica,sans-Serif" font-size="14.00">(...)</text>
</g>
<!-- 12790&#45;&gt;12791 -->
<g id="edge19" class="edge">
<title>12790&#45;&gt;12791</title>
<path fill="none" stroke="black" d="M791.17,-71.75C786.6,-63.03 781.95,-54.16 777.8,-46.26"/>
<polygon fill="black" stroke="black" points="780.96,-44.74 773.21,-37.51 774.76,-47.99 780.96,-44.74"/>
</g>
<!-- 15088 -->
<g id="node21" class="node">
<title>15088</title>
<path fill="#c0c0c0" stroke="black" d="M850.5,-36C850.5,-36 820.5,-36 820.5,-36 814.5,-36 808.5,-30 808.5,-24 808.5,-24 808.5,-12 808.5,-12 808.5,-6 814.5,0 820.5,0 820.5,0 850.5,0 850.5,0 856.5,0 862.5,-6 862.5,-12 862.5,-12 862.5,-24 862.5,-24 862.5,-30 856.5,-36 850.5,-36"/>
<text text-anchor="middle" x="835.5" y="-13.32" font-family="Helvetica,sans-Serif" font-size="14.00">(...)</text>
</g>
<!-- 12790&#45;&gt;15088 -->
<g id="edge20" class="edge">
<title>12790&#45;&gt;15088</title>
<path fill="none" stroke="black" d="M824.86,-71.75C826.54,-63.42 828.24,-54.97 829.78,-47.34"/>
<polygon fill="black" stroke="black" points="833.19,-48.15 831.74,-37.66 826.33,-46.77 833.19,-48.15"/>
</g>
<!-- 15986 -->
<g id="node23" class="node">
<title>15986</title>
<path fill="#c0c0c0" stroke="black" d="M957.5,-36C957.5,-36 927.5,-36 927.5,-36 921.5,-36 915.5,-30 915.5,-24 915.5,-24 915.5,-12 915.5,-12 915.5,-6 921.5,0 927.5,0 927.5,0 957.5,0 957.5,0 963.5,0 969.5,-6 969.5,-12 969.5,-12 969.5,-24 969.5,-24 969.5,-30 963.5,-36 957.5,-36"/>
<text text-anchor="middle" x="942.5" y="-13.32" font-family="Helvetica,sans-Serif" font-size="14.00">(...)</text>
</g>
<!-- 15985&#45;&gt;15986 -->
<g id="edge22" class="edge">
<title>15985&#45;&gt;15986</title>
<path fill="none" stroke="black" d="M972.84,-71.75C967.76,-62.93 962.6,-53.96 958.02,-45.99"/>
<polygon fill="black" stroke="black" points="961.15,-44.41 953.13,-37.48 955.08,-47.9 961.15,-44.41"/>
</g>
<!-- 16419 -->
<g id="node24" class="node">
<title>16419</title>
<path fill="#c0c0c0" stroke="black" d="M1029.5,-36C1029.5,-36 999.5,-36 999.5,-36 993.5,-36 987.5,-30 987.5,-24 987.5,-24 987.5,-12 987.5,-12 987.5,-6 993.5,0 999.5,0 999.5,0 1029.5,0 1029.5,0 1035.5,0 1041.5,-6 1041.5,-12 1041.5,-12 1041.5,-24 1041.5,-24 1041.5,-30 1035.5,-36 1029.5,-36"/>
<text text-anchor="middle" x="1014.5" y="-13.32" font-family="Helvetica,sans-Serif" font-size="14.00">(...)</text>
</g>
<!-- 15985&#45;&gt;16419 -->
<g id="edge23" class="edge">
<title>15985&#45;&gt;16419</title>
<path fill="none" stroke="black" d="M1006.52,-71.75C1007.78,-63.42 1009.06,-54.97 1010.21,-47.34"/>
<polygon fill="black" stroke="black" points="1013.64,-48.08 1011.67,-37.67 1006.72,-47.03 1013.64,-48.08"/>
</g>
<!-- 16535 -->
<g id="node26" class="node">
<title>16535</title>
<path fill="#f4caac" stroke="black" d="M1241,-166.25C1241,-166.25 1108,-166.25 1108,-166.25 1102,-166.25 1096,-160.25 1096,-154.25 1096,-154.25 1096,-84 1096,-84 1096,-78 1102,-72 1108,-72 1108,-72 1241,-72 1241,-72 1247,-72 1253,-78 1253,-84 1253,-84 1253,-154.25 1253,-154.25 1253,-160.25 1247,-166.25 1241,-166.25"/>
<text text-anchor="middle" x="1174.5" y="-148.95" font-family="Helvetica,sans-Serif" font-size="14.00">16_G &lt;= 0.5</text>
<text text-anchor="middle" x="1174.5" y="-131.7" font-family="Helvetica,sans-Serif" font-size="14.00">entropy = 0.948</text>
<text text-anchor="middle" x="1174.5" y="-114.45" font-family="Helvetica,sans-Serif" font-size="14.00">samples = 1047</text>
<text text-anchor="middle" x="1174.5" y="-97.2" font-family="Helvetica,sans-Serif" font-size="14.00">value = [1038, 601]</text>
<text text-anchor="middle" x="1174.5" y="-79.95" font-family="Helvetica,sans-Serif" font-size="14.00">class = Animal</text>
</g>
<!-- 16534&#45;&gt;16535 -->
<g id="edge25" class="edge">
<title>16534&#45;&gt;16535</title>
<path fill="none" stroke="black" d="M1174.5,-202.07C1174.5,-194.17 1174.5,-185.88 1174.5,-177.73"/>
<polygon fill="black" stroke="black" points="1178,-177.87 1174.5,-167.87 1171,-177.87 1178,-177.87"/>
</g>
<!-- 17102 -->
<g id="node29" class="node">
<title>17102</title>
<path fill="#afd7f4" stroke="black" d="M1389.88,-166.25C1389.88,-166.25 1283.12,-166.25 1283.12,-166.25 1277.12,-166.25 1271.12,-160.25 1271.12,-154.25 1271.12,-154.25 1271.12,-84 1271.12,-84 1271.12,-78 1277.12,-72 1283.12,-72 1283.12,-72 1389.88,-72 1389.88,-72 1395.88,-72 1401.88,-78 1401.88,-84 1401.88,-84 1401.88,-154.25 1401.88,-154.25 1401.88,-160.25 1395.88,-166.25 1389.88,-166.25"/>
<text text-anchor="middle" x="1336.5" y="-148.95" font-family="Helvetica,sans-Serif" font-size="14.00">13_C &lt;= 0.5</text>
<text text-anchor="middle" x="1336.5" y="-131.7" font-family="Helvetica,sans-Serif" font-size="14.00">entropy = 0.953</text>
<text text-anchor="middle" x="1336.5" y="-114.45" font-family="Helvetica,sans-Serif" font-size="14.00">samples = 32</text>
<text text-anchor="middle" x="1336.5" y="-97.2" font-family="Helvetica,sans-Serif" font-size="14.00">value = [22, 37]</text>
<text text-anchor="middle" x="1336.5" y="-79.95" font-family="Helvetica,sans-Serif" font-size="14.00">class = Plant</text>
</g>
<!-- 16534&#45;&gt;17102 -->
<g id="edge28" class="edge">
<title>16534&#45;&gt;17102</title>
<path fill="none" stroke="black" d="M1232.99,-202.07C1244.61,-192.87 1256.91,-183.13 1268.82,-173.71"/>
<polygon fill="black" stroke="black" points="1270.97,-176.46 1276.64,-167.51 1266.63,-170.98 1270.97,-176.46"/>
</g>
<!-- 16536 -->
<g id="node27" class="node">
<title>16536</title>
<path fill="#c0c0c0" stroke="black" d="M1144.5,-36C1144.5,-36 1114.5,-36 1114.5,-36 1108.5,-36 1102.5,-30 1102.5,-24 1102.5,-24 1102.5,-12 1102.5,-12 1102.5,-6 1108.5,0 1114.5,0 1114.5,0 1144.5,0 1144.5,0 1150.5,0 1156.5,-6 1156.5,-12 1156.5,-12 1156.5,-24 1156.5,-24 1156.5,-30 1150.5,-36 1144.5,-36"/>
<text text-anchor="middle" x="1129.5" y="-13.32" font-family="Helvetica,sans-Serif" font-size="14.00">(...)</text>
</g>
<!-- 16535&#45;&gt;16536 -->
<g id="edge26" class="edge">
<title>16535&#45;&gt;16536</title>
<path fill="none" stroke="black" d="M1153.45,-71.75C1149.53,-63.12 1145.55,-54.36 1142,-46.53"/>
<polygon fill="black" stroke="black" points="1145.24,-45.21 1137.92,-37.55 1138.87,-48.1 1145.24,-45.21"/>
</g>
<!-- 16967 -->
<g id="node28" class="node">
<title>16967</title>
<path fill="#c0c0c0" stroke="black" d="M1216.5,-36C1216.5,-36 1186.5,-36 1186.5,-36 1180.5,-36 1174.5,-30 1174.5,-24 1174.5,-24 1174.5,-12 1174.5,-12 1174.5,-6 1180.5,0 1186.5,0 1186.5,0 1216.5,0 1216.5,0 1222.5,0 1228.5,-6 1228.5,-12 1228.5,-12 1228.5,-24 1228.5,-24 1228.5,-30 1222.5,-36 1216.5,-36"/>
<text text-anchor="middle" x="1201.5" y="-13.32" font-family="Helvetica,sans-Serif" font-size="14.00">(...)</text>
</g>
<!-- 16535&#45;&gt;16967 -->
<g id="edge27" class="edge">
<title>16535&#45;&gt;16967</title>
<path fill="none" stroke="black" d="M1187.13,-71.75C1189.43,-63.32 1191.76,-54.77 1193.85,-47.07"/>
<polygon fill="black" stroke="black" points="1197.17,-48.2 1196.42,-37.63 1190.42,-46.36 1197.17,-48.2"/>
</g>
<!-- 17103 -->
<g id="node30" class="node">
<title>17103</title>
<path fill="#c0c0c0" stroke="black" d="M1315.5,-36C1315.5,-36 1285.5,-36 1285.5,-36 1279.5,-36 1273.5,-30 1273.5,-24 1273.5,-24 1273.5,-12 1273.5,-12 1273.5,-6 1279.5,0 1285.5,0 1285.5,0 1315.5,0 1315.5,0 1321.5,0 1327.5,-6 1327.5,-12 1327.5,-12 1327.5,-24 1327.5,-24 1327.5,-30 1321.5,-36 1315.5,-36"/>
<text text-anchor="middle" x="1300.5" y="-13.32" font-family="Helvetica,sans-Serif" font-size="14.00">(...)</text>
</g>
<!-- 17102&#45;&gt;17103 -->
<g id="edge29" class="edge">
<title>17102&#45;&gt;17103</title>
<path fill="none" stroke="black" d="M1319.66,-71.75C1316.56,-63.22 1313.42,-54.57 1310.6,-46.8"/>
<polygon fill="black" stroke="black" points="1313.96,-45.8 1307.25,-37.6 1307.38,-48.19 1313.96,-45.8"/>
</g>
<!-- 17116 -->
<g id="node31" class="node">
<title>17116</title>
<path fill="#c0c0c0" stroke="black" d="M1387.5,-36C1387.5,-36 1357.5,-36 1357.5,-36 1351.5,-36 1345.5,-30 1345.5,-24 1345.5,-24 1345.5,-12 1345.5,-12 1345.5,-6 1351.5,0 1357.5,0 1357.5,0 1387.5,0 1387.5,0 1393.5,0 1399.5,-6 1399.5,-12 1399.5,-12 1399.5,-24 1399.5,-24 1399.5,-30 1393.5,-36 1387.5,-36"/>
<text text-anchor="middle" x="1372.5" y="-13.32" font-family="Helvetica,sans-Serif" font-size="14.00">(...)</text>
</g>
<!-- 17102&#45;&gt;17116 -->
<g id="edge30" class="edge">
<title>17102&#45;&gt;17116</title>
<path fill="none" stroke="black" d="M1353.34,-71.75C1356.44,-63.22 1359.58,-54.57 1362.4,-46.8"/>
<polygon fill="black" stroke="black" points="1365.62,-48.19 1365.75,-37.6 1359.04,-45.8 1365.62,-48.19"/>
</g>
</g>
</svg>
