<?xml version="1.0" encoding="UTF-8" standalone="no"?>
<!DOCTYPE svg PUBLIC "-//W3C//DTD SVG 1.1//EN"
 "http://www.w3.org/Graphics/SVG/1.1/DTD/svg11.dtd">
<!-- Generated by graphviz version 12.0.0 (20240803.0821)
 -->
<!-- Title: Tree Pages: 1 -->
<svg width="1428pt" height="565pt"
 viewBox="0.00 0.00 1427.50 565.00" xmlns="http://www.w3.org/2000/svg" xmlns:xlink="http://www.w3.org/1999/xlink">
<g id="graph0" class="graph" transform="scale(1 1) rotate(0) translate(4 561)">
<title>Tree</title>
<polygon fill="white" stroke="none" points="-4,4 -4,-561 1423.5,-561 1423.5,4 -4,4"/>
<!-- 0 -->
<g id="node1" class="node">
<title>0</title>
<path fill="#fefeff" stroke="black" d="M810,-557C810,-557 650,-557 650,-557 644,-557 638,-551 638,-545 638,-545 638,-474.75 638,-474.75 638,-468.75 644,-462.75 650,-462.75 650,-462.75 810,-462.75 810,-462.75 816,-462.75 822,-468.75 822,-474.75 822,-474.75 822,-545 822,-545 822,-551 816,-557 810,-557"/>
<text text-anchor="middle" x="730" y="-539.7" font-family="Helvetica,sans-Serif" font-size="14.00">9_U &lt;= 0.5</text>
<text text-anchor="middle" x="730" y="-522.45" font-family="Helvetica,sans-Serif" font-size="14.00">entropy = 1.0</text>
<text text-anchor="middle" x="730" y="-505.2" font-family="Helvetica,sans-Serif" font-size="14.00">samples = 38224</text>
<text text-anchor="middle" x="730" y="-487.95" font-family="Helvetica,sans-Serif" font-size="14.00">value = [30069, 30276]</text>
<text text-anchor="middle" x="730" y="-470.7" font-family="Helvetica,sans-Serif" font-size="14.00">class = Plant</text>
</g>
<!-- 1 -->
<g id="node2" class="node">
<title>1</title>
<path fill="#ddeefa" stroke="black" d="M628,-426.75C628,-426.75 468,-426.75 468,-426.75 462,-426.75 456,-420.75 456,-414.75 456,-414.75 456,-344.5 456,-344.5 456,-338.5 462,-332.5 468,-332.5 468,-332.5 628,-332.5 628,-332.5 634,-332.5 640,-338.5 640,-344.5 640,-344.5 640,-414.75 640,-414.75 640,-420.75 634,-426.75 628,-426.75"/>
<text text-anchor="middle" x="548" y="-409.45" font-family="Helvetica,sans-Serif" font-size="14.00">2_A &lt;= 0.5</text>
<text text-anchor="middle" x="548" y="-392.2" font-family="Helvetica,sans-Serif" font-size="14.00">entropy = 0.993</text>
<text text-anchor="middle" x="548" y="-374.95" font-family="Helvetica,sans-Serif" font-size="14.00">samples = 27457</text>
<text text-anchor="middle" x="548" y="-357.7" font-family="Helvetica,sans-Serif" font-size="14.00">value = [19663, 23788]</text>
<text text-anchor="middle" x="548" y="-340.45" font-family="Helvetica,sans-Serif" font-size="14.00">class = Plant</text>
</g>
<!-- 0&#45;&gt;1 -->
<g id="edge1" class="edge">
<title>0&#45;&gt;1</title>
<path fill="none" stroke="black" d="M664.04,-462.39C650.81,-453.07 636.82,-443.22 623.31,-433.69"/>
<polygon fill="black" stroke="black" points="625.47,-430.94 615.28,-428.04 621.44,-436.66 625.47,-430.94"/>
<text text-anchor="middle" x="618.31" y="-447.12" font-family="Helvetica,sans-Serif" font-size="14.00">True</text>
</g>
<!-- 12300 -->
<g id="node17" class="node">
<title>12300</title>
<path fill="#f5d0b4" stroke="black" d="M996.5,-426.75C996.5,-426.75 845.5,-426.75 845.5,-426.75 839.5,-426.75 833.5,-420.75 833.5,-414.75 833.5,-414.75 833.5,-344.5 833.5,-344.5 833.5,-338.5 839.5,-332.5 845.5,-332.5 845.5,-332.5 996.5,-332.5 996.5,-332.5 1002.5,-332.5 1008.5,-338.5 1008.5,-344.5 1008.5,-344.5 1008.5,-414.75 1008.5,-414.75 1008.5,-420.75 1002.5,-426.75 996.5,-426.75"/>
<text text-anchor="middle" x="921" y="-409.45" font-family="Helvetica,sans-Serif" font-size="14.00">23_G &lt;= 0.5</text>
<text text-anchor="middle" x="921" y="-392.2" font-family="Helvetica,sans-Serif" font-size="14.00">entropy = 0.961</text>
<text text-anchor="middle" x="921" y="-374.95" font-family="Helvetica,sans-Serif" font-size="14.00">samples = 10767</text>
<text text-anchor="middle" x="921" y="-357.7" font-family="Helvetica,sans-Serif" font-size="14.00">value = [10406, 6488]</text>
<text text-anchor="middle" x="921" y="-340.45" font-family="Helvetica,sans-Serif" font-size="14.00">class = Animal</text>
</g>
<!-- 0&#45;&gt;12300 -->
<g id="edge16" class="edge">
<title>0&#45;&gt;12300</title>
<path fill="none" stroke="black" d="M799.23,-462.39C813.24,-452.98 828.07,-443.03 842.38,-433.42"/>
<polygon fill="black" stroke="black" points="844.08,-436.49 850.43,-428.01 840.18,-430.68 844.08,-436.49"/>
<text text-anchor="middle" x="846.87" y="-447.02" font-family="Helvetica,sans-Serif" font-size="14.00">False</text>
</g>
<!-- 2 -->
<g id="node3" class="node">
<title>2</title>
<path fill="#c8e4f8" stroke="black" d="M352,-296.5C352,-296.5 192,-296.5 192,-296.5 186,-296.5 180,-290.5 180,-284.5 180,-284.5 180,-214.25 180,-214.25 180,-208.25 186,-202.25 192,-202.25 192,-202.25 352,-202.25 352,-202.25 358,-202.25 364,-208.25 364,-214.25 364,-214.25 364,-284.5 364,-284.5 364,-290.5 358,-296.5 352,-296.5"/>
<text text-anchor="middle" x="272" y="-279.2" font-family="Helvetica,sans-Serif" font-size="14.00">1_U &lt;= 0.5</text>
<text text-anchor="middle" x="272" y="-261.95" font-family="Helvetica,sans-Serif" font-size="14.00">entropy = 0.981</text>
<text text-anchor="middle" x="272" y="-244.7" font-family="Helvetica,sans-Serif" font-size="14.00">samples = 21167</text>
<text text-anchor="middle" x="272" y="-227.45" font-family="Helvetica,sans-Serif" font-size="14.00">value = [14009, 19457]</text>
<text text-anchor="middle" x="272" y="-210.2" font-family="Helvetica,sans-Serif" font-size="14.00">class = Plant</text>
</g>
<!-- 1&#45;&gt;2 -->
<g id="edge2" class="edge">
<title>1&#45;&gt;2</title>
<path fill="none" stroke="black" d="M455.71,-335.74C429.59,-323.6 401,-310.32 374.32,-297.92"/>
<polygon fill="black" stroke="black" points="376.12,-294.9 365.57,-293.86 373.17,-301.24 376.12,-294.9"/>
</g>
<!-- 9369 -->
<g id="node10" class="node">
<title>9369</title>
<path fill="#f9e2d1" stroke="black" d="M619,-296.5C619,-296.5 477,-296.5 477,-296.5 471,-296.5 465,-290.5 465,-284.5 465,-284.5 465,-214.25 465,-214.25 465,-208.25 471,-202.25 477,-202.25 477,-202.25 619,-202.25 619,-202.25 625,-202.25 631,-208.25 631,-214.25 631,-214.25 631,-284.5 631,-284.5 631,-290.5 625,-296.5 619,-296.5"/>
<text text-anchor="middle" x="548" y="-279.2" font-family="Helvetica,sans-Serif" font-size="14.00">17_G &lt;= 0.5</text>
<text text-anchor="middle" x="548" y="-261.95" font-family="Helvetica,sans-Serif" font-size="14.00">entropy = 0.987</text>
<text text-anchor="middle" x="548" y="-244.7" font-family="Helvetica,sans-Serif" font-size="14.00">samples = 6290</text>
<text text-anchor="middle" x="548" y="-227.45" font-family="Helvetica,sans-Serif" font-size="14.00">value = [5654, 4331]</text>
<text text-anchor="middle" x="548" y="-210.2" font-family="Helvetica,sans-Serif" font-size="14.00">class = Animal</text>
</g>
<!-- 1&#45;&gt;9369 -->
<g id="edge9" class="edge">
<title>1&#45;&gt;9369</title>
<path fill="none" stroke="black" d="M548,-332.32C548,-324.42 548,-316.13 548,-307.98"/>
<polygon fill="black" stroke="black" points="551.5,-308.12 548,-298.12 544.5,-308.12 551.5,-308.12"/>
</g>
<!-- 3 -->
<g id="node4" class="node">
<title>3</title>
<path fill="#fae6d7" stroke="black" d="M154,-166.25C154,-166.25 12,-166.25 12,-166.25 6,-166.25 0,-160.25 0,-154.25 0,-154.25 0,-84 0,-84 0,-78 6,-72 12,-72 12,-72 154,-72 154,-72 160,-72 166,-78 166,-84 166,-84 166,-154.25 166,-154.25 166,-160.25 160,-166.25 154,-166.25"/>
<text text-anchor="middle" x="83" y="-148.95" font-family="Helvetica,sans-Serif" font-size="14.00">9_C &lt;= 0.5</text>
<text text-anchor="middle" x="83" y="-131.7" font-family="Helvetica,sans-Serif" font-size="14.00">entropy = 0.991</text>
<text text-anchor="middle" x="83" y="-114.45" font-family="Helvetica,sans-Serif" font-size="14.00">samples = 8837</text>
<text text-anchor="middle" x="83" y="-97.2" font-family="Helvetica,sans-Serif" font-size="14.00">value = [7719, 6157]</text>
<text text-anchor="middle" x="83" y="-79.95" font-family="Helvetica,sans-Serif" font-size="14.00">class = Animal</text>
</g>
<!-- 2&#45;&gt;3 -->
<g id="edge3" class="edge">
<title>2&#45;&gt;3</title>
<path fill="none" stroke="black" d="M203.5,-201.89C189.63,-192.48 174.96,-182.53 160.8,-172.92"/>
<polygon fill="black" stroke="black" points="163.08,-170.23 152.84,-167.51 159.15,-176.03 163.08,-170.23"/>
</g>
<!-- 5024 -->
<g id="node7" class="node">
<title>5024</title>
<path fill="#97cbf1" stroke="black" d="M347.5,-166.25C347.5,-166.25 196.5,-166.25 196.5,-166.25 190.5,-166.25 184.5,-160.25 184.5,-154.25 184.5,-154.25 184.5,-84 184.5,-84 184.5,-78 190.5,-72 196.5,-72 196.5,-72 347.5,-72 347.5,-72 353.5,-72 359.5,-78 359.5,-84 359.5,-84 359.5,-154.25 359.5,-154.25 359.5,-160.25 353.5,-166.25 347.5,-166.25"/>
<text text-anchor="middle" x="272" y="-148.95" font-family="Helvetica,sans-Serif" font-size="14.00">14_G &lt;= 0.5</text>
<text text-anchor="middle" x="272" y="-131.7" font-family="Helvetica,sans-Serif" font-size="14.00">entropy = 0.906</text>
<text text-anchor="middle" x="272" y="-114.45" font-family="Helvetica,sans-Serif" font-size="14.00">samples = 12330</text>
<text text-anchor="middle" x="272" y="-97.2" font-family="Helvetica,sans-Serif" font-size="14.00">value = [6290, 13300]</text>
<text text-anchor="middle" x="272" y="-79.95" font-family="Helvetica,sans-Serif" font-size="14.00">class = Plant</text>
</g>
<!-- 2&#45;&gt;5024 -->
<g id="edge6" class="edge">
<title>2&#45;&gt;5024</title>
<path fill="none" stroke="black" d="M272,-202.07C272,-194.17 272,-185.88 272,-177.73"/>
<polygon fill="black" stroke="black" points="275.5,-177.87 272,-167.87 268.5,-177.87 275.5,-177.87"/>
</g>
<!-- 4 -->
<g id="node5" class="node">
<title>4</title>
<path fill="#c0c0c0" stroke="black" d="M62,-36C62,-36 32,-36 32,-36 26,-36 20,-30 20,-24 20,-24 20,-12 20,-12 20,-6 26,0 32,0 32,0 62,0 62,0 68,0 74,-6 74,-12 74,-12 74,-24 74,-24 74,-30 68,-36 62,-36"/>
<text text-anchor="middle" x="47" y="-13.32" font-family="Helvetica,sans-Serif" font-size="14.00">(...)</text>
</g>
<!-- 3&#45;&gt;4 -->
<g id="edge4" class="edge">
<title>3&#45;&gt;4</title>
<path fill="none" stroke="black" d="M66.16,-71.75C63.06,-63.22 59.92,-54.57 57.1,-46.8"/>
<polygon fill="black" stroke="black" points="60.46,-45.8 53.75,-37.6 53.88,-48.19 60.46,-45.8"/>
</g>
<!-- 3421 -->
<g id="node6" class="node">
<title>3421</title>
<path fill="#c0c0c0" stroke="black" d="M134,-36C134,-36 104,-36 104,-36 98,-36 92,-30 92,-24 92,-24 92,-12 92,-12 92,-6 98,0 104,0 104,0 134,0 134,0 140,0 146,-6 146,-12 146,-12 146,-24 146,-24 146,-30 140,-36 134,-36"/>
<text text-anchor="middle" x="119" y="-13.32" font-family="Helvetica,sans-Serif" font-size="14.00">(...)</text>
</g>
<!-- 3&#45;&gt;3421 -->
<g id="edge5" class="edge">
<title>3&#45;&gt;3421</title>
<path fill="none" stroke="black" d="M99.84,-71.75C102.94,-63.22 106.08,-54.57 108.9,-46.8"/>
<polygon fill="black" stroke="black" points="112.12,-48.19 112.25,-37.6 105.54,-45.8 112.12,-48.19"/>
</g>
<!-- 5025 -->
<g id="node8" class="node">
<title>5025</title>
<path fill="#c0c0c0" stroke="black" d="M258,-36C258,-36 228,-36 228,-36 222,-36 216,-30 216,-24 216,-24 216,-12 216,-12 216,-6 222,0 228,0 228,0 258,0 258,0 264,0 270,-6 270,-12 270,-12 270,-24 270,-24 270,-30 264,-36 258,-36"/>
<text text-anchor="middle" x="243" y="-13.32" font-family="Helvetica,sans-Serif" font-size="14.00">(...)</text>
</g>
<!-- 5024&#45;&gt;5025 -->
<g id="edge7" class="edge">
<title>5024&#45;&gt;5025</title>
<path fill="none" stroke="black" d="M258.43,-71.75C255.97,-63.32 253.46,-54.77 251.21,-47.07"/>
<polygon fill="black" stroke="black" points="254.62,-46.24 248.45,-37.63 247.9,-48.21 254.62,-46.24"/>
</g>
<!-- 8330 -->
<g id="node9" class="node">
<title>8330</title>
<path fill="#c0c0c0" stroke="black" d="M330,-36C330,-36 300,-36 300,-36 294,-36 288,-30 288,-24 288,-24 288,-12 288,-12 288,-6 294,0 300,0 300,0 330,0 330,0 336,0 342,-6 342,-12 342,-12 342,-24 342,-24 342,-30 336,-36 330,-36"/>
<text text-anchor="middle" x="315" y="-13.32" font-family="Helvetica,sans-Serif" font-size="14.00">(...)</text>
</g>
<!-- 5024&#45;&gt;8330 -->
<g id="edge8" class="edge">
<title>5024&#45;&gt;8330</title>
<path fill="none" stroke="black" d="M292.12,-71.75C295.86,-63.12 299.66,-54.36 303.06,-46.53"/>
<polygon fill="black" stroke="black" points="306.18,-48.13 306.95,-37.56 299.76,-45.34 306.18,-48.13"/>
</g>
<!-- 9370 -->
<g id="node11" class="node">
<title>9370</title>
<path fill="#f2c19d" stroke="black" d="M532,-166.25C532,-166.25 390,-166.25 390,-166.25 384,-166.25 378,-160.25 378,-154.25 378,-154.25 378,-84 378,-84 378,-78 384,-72 390,-72 390,-72 532,-72 532,-72 538,-72 544,-78 544,-84 544,-84 544,-154.25 544,-154.25 544,-160.25 538,-166.25 532,-166.25"/>
<text text-anchor="middle" x="461" y="-148.95" font-family="Helvetica,sans-Serif" font-size="14.00">22_U &lt;= 0.5</text>
<text text-anchor="middle" x="461" y="-131.7" font-family="Helvetica,sans-Serif" font-size="14.00">entropy = 0.921</text>
<text text-anchor="middle" x="461" y="-114.45" font-family="Helvetica,sans-Serif" font-size="14.00">samples = 3998</text>
<text text-anchor="middle" x="461" y="-97.2" font-family="Helvetica,sans-Serif" font-size="14.00">value = [4193, 2121]</text>
<text text-anchor="middle" x="461" y="-79.95" font-family="Helvetica,sans-Serif" font-size="14.00">class = Animal</text>
</g>
<!-- 9369&#45;&gt;9370 -->
<g id="edge10" class="edge">
<title>9369&#45;&gt;9370</title>
<path fill="none" stroke="black" d="M516.59,-202.07C510.8,-193.54 504.7,-184.54 498.75,-175.77"/>
<polygon fill="black" stroke="black" points="501.72,-173.92 493.21,-167.61 495.93,-177.85 501.72,-173.92"/>
</g>
<!-- 11527 -->
<g id="node14" class="node">
<title>11527</title>
<path fill="#bcdef6" stroke="black" d="M716,-166.25C716,-166.25 574,-166.25 574,-166.25 568,-166.25 562,-160.25 562,-154.25 562,-154.25 562,-84 562,-84 562,-78 568,-72 574,-72 574,-72 716,-72 716,-72 722,-72 728,-78 728,-84 728,-84 728,-154.25 728,-154.25 728,-160.25 722,-166.25 716,-166.25"/>
<text text-anchor="middle" x="645" y="-148.95" font-family="Helvetica,sans-Serif" font-size="14.00">9_C &lt;= 0.5</text>
<text text-anchor="middle" x="645" y="-131.7" font-family="Helvetica,sans-Serif" font-size="14.00">entropy = 0.97</text>
<text text-anchor="middle" x="645" y="-114.45" font-family="Helvetica,sans-Serif" font-size="14.00">samples = 2292</text>
<text text-anchor="middle" x="645" y="-97.2" font-family="Helvetica,sans-Serif" font-size="14.00">value = [1461, 2210]</text>
<text text-anchor="middle" x="645" y="-79.95" font-family="Helvetica,sans-Serif" font-size="14.00">class = Plant</text>
</g>
<!-- 9369&#45;&gt;11527 -->
<g id="edge13" class="edge">
<title>9369&#45;&gt;11527</title>
<path fill="none" stroke="black" d="M583.02,-202.07C589.54,-193.45 596.42,-184.35 603.13,-175.49"/>
<polygon fill="black" stroke="black" points="605.88,-177.65 609.12,-167.57 600.3,-173.43 605.88,-177.65"/>
</g>
<!-- 9371 -->
<g id="node12" class="node">
<title>9371</title>
<path fill="#c0c0c0" stroke="black" d="M424,-36C424,-36 394,-36 394,-36 388,-36 382,-30 382,-24 382,-24 382,-12 382,-12 382,-6 388,0 394,0 394,0 424,0 424,0 430,0 436,-6 436,-12 436,-12 436,-24 436,-24 436,-30 430,-36 424,-36"/>
<text text-anchor="middle" x="409" y="-13.32" font-family="Helvetica,sans-Serif" font-size="14.00">(...)</text>
</g>
<!-- 9370&#45;&gt;9371 -->
<g id="edge11" class="edge">
<title>9370&#45;&gt;9371</title>
<path fill="none" stroke="black" d="M436.67,-71.75C432.1,-63.03 427.45,-54.16 423.3,-46.26"/>
<polygon fill="black" stroke="black" points="426.46,-44.74 418.71,-37.51 420.26,-47.99 426.46,-44.74"/>
</g>
<!-- 11302 -->
<g id="node13" class="node">
<title>11302</title>
<path fill="#c0c0c0" stroke="black" d="M496,-36C496,-36 466,-36 466,-36 460,-36 454,-30 454,-24 454,-24 454,-12 454,-12 454,-6 460,0 466,0 466,0 496,0 496,0 502,0 508,-6 508,-12 508,-12 508,-24 508,-24 508,-30 502,-36 496,-36"/>
<text text-anchor="middle" x="481" y="-13.32" font-family="Helvetica,sans-Serif" font-size="14.00">(...)</text>
</g>
<!-- 9370&#45;&gt;11302 -->
<g id="edge12" class="edge">
<title>9370&#45;&gt;11302</title>
<path fill="none" stroke="black" d="M470.36,-71.75C472.04,-63.42 473.74,-54.97 475.28,-47.34"/>
<polygon fill="black" stroke="black" points="478.69,-48.15 477.24,-37.66 471.83,-46.77 478.69,-48.15"/>
</g>
<!-- 11528 -->
<g id="node15" class="node">
<title>11528</title>
<path fill="#c0c0c0" stroke="black" d="M608,-36C608,-36 578,-36 578,-36 572,-36 566,-30 566,-24 566,-24 566,-12 566,-12 566,-6 572,0 578,0 578,0 608,0 608,0 614,0 620,-6 620,-12 620,-12 620,-24 620,-24 620,-30 614,-36 608,-36"/>
<text text-anchor="middle" x="593" y="-13.32" font-family="Helvetica,sans-Serif" font-size="14.00">(...)</text>
</g>
<!-- 11527&#45;&gt;11528 -->
<g id="edge14" class="edge">
<title>11527&#45;&gt;11528</title>
<path fill="none" stroke="black" d="M620.67,-71.75C616.1,-63.03 611.45,-54.16 607.3,-46.26"/>
<polygon fill="black" stroke="black" points="610.46,-44.74 602.71,-37.51 604.26,-47.99 610.46,-44.74"/>
</g>
<!-- 12073 -->
<g id="node16" class="node">
<title>12073</title>
<path fill="#c0c0c0" stroke="black" d="M680,-36C680,-36 650,-36 650,-36 644,-36 638,-30 638,-24 638,-24 638,-12 638,-12 638,-6 644,0 650,0 650,0 680,0 680,0 686,0 692,-6 692,-12 692,-12 692,-24 692,-24 692,-30 686,-36 680,-36"/>
<text text-anchor="middle" x="665" y="-13.32" font-family="Helvetica,sans-Serif" font-size="14.00">(...)</text>
</g>
<!-- 11527&#45;&gt;12073 -->
<g id="edge15" class="edge">
<title>11527&#45;&gt;12073</title>
<path fill="none" stroke="black" d="M654.36,-71.75C656.04,-63.42 657.74,-54.97 659.28,-47.34"/>
<polygon fill="black" stroke="black" points="662.69,-48.15 661.24,-37.66 655.83,-46.77 662.69,-48.15"/>
</g>
<!-- 12301 -->
<g id="node18" class="node">
<title>12301</title>
<path fill="#f6d5bc" stroke="black" d="M992,-296.5C992,-296.5 850,-296.5 850,-296.5 844,-296.5 838,-290.5 838,-284.5 838,-284.5 838,-214.25 838,-214.25 838,-208.25 844,-202.25 850,-202.25 850,-202.25 992,-202.25 992,-202.25 998,-202.25 1004,-208.25 1004,-214.25 1004,-214.25 1004,-284.5 1004,-284.5 1004,-290.5 998,-296.5 992,-296.5"/>
<text text-anchor="middle" x="921" y="-279.2" font-family="Helvetica,sans-Serif" font-size="14.00">14_G &lt;= 0.5</text>
<text text-anchor="middle" x="921" y="-261.95" font-family="Helvetica,sans-Serif" font-size="14.00">entropy = 0.97</text>
<text text-anchor="middle" x="921" y="-244.7" font-family="Helvetica,sans-Serif" font-size="14.00">samples = 10108</text>
<text text-anchor="middle" x="921" y="-227.45" font-family="Helvetica,sans-Serif" font-size="14.00">value = [9546, 6334]</text>
<text text-anchor="middle" x="921" y="-210.2" font-family="Helvetica,sans-Serif" font-size="14.00">class = Animal</text>
</g>
<!-- 12300&#45;&gt;12301 -->
<g id="edge17" class="edge">
<title>12300&#45;&gt;12301</title>
<path fill="none" stroke="black" d="M921,-332.32C921,-324.42 921,-316.13 921,-307.98"/>
<polygon fill="black" stroke="black" points="924.5,-308.12 921,-298.12 917.5,-308.12 924.5,-308.12"/>
</g>
<!-- 17046 -->
<g id="node25" class="node">
<title>17046</title>
<path fill="#ea985c" stroke="black" d="M1250,-296.5C1250,-296.5 1126,-296.5 1126,-296.5 1120,-296.5 1114,-290.5 1114,-284.5 1114,-284.5 1114,-214.25 1114,-214.25 1114,-208.25 1120,-202.25 1126,-202.25 1126,-202.25 1250,-202.25 1250,-202.25 1256,-202.25 1262,-208.25 1262,-214.25 1262,-214.25 1262,-284.5 1262,-284.5 1262,-290.5 1256,-296.5 1250,-296.5"/>
<text text-anchor="middle" x="1188" y="-279.2" font-family="Helvetica,sans-Serif" font-size="14.00">4_C &lt;= 0.5</text>
<text text-anchor="middle" x="1188" y="-261.95" font-family="Helvetica,sans-Serif" font-size="14.00">entropy = 0.615</text>
<text text-anchor="middle" x="1188" y="-244.7" font-family="Helvetica,sans-Serif" font-size="14.00">samples = 659</text>
<text text-anchor="middle" x="1188" y="-227.45" font-family="Helvetica,sans-Serif" font-size="14.00">value = [860, 154]</text>
<text text-anchor="middle" x="1188" y="-210.2" font-family="Helvetica,sans-Serif" font-size="14.00">class = Animal</text>
</g>
<!-- 12300&#45;&gt;17046 -->
<g id="edge24" class="edge">
<title>12300&#45;&gt;17046</title>
<path fill="none" stroke="black" d="M1008.8,-336.45C1039.25,-321.83 1073.31,-305.47 1103.49,-290.97"/>
<polygon fill="black" stroke="black" points="1104.7,-294.27 1112.2,-286.78 1101.67,-287.96 1104.7,-294.27"/>
</g>
<!-- 12302 -->
<g id="node19" class="node">
<title>12302</title>
<path fill="#f2c29f" stroke="black" d="M900,-166.25C900,-166.25 758,-166.25 758,-166.25 752,-166.25 746,-160.25 746,-154.25 746,-154.25 746,-84 746,-84 746,-78 752,-72 758,-72 758,-72 900,-72 900,-72 906,-72 912,-78 912,-84 912,-84 912,-154.25 912,-154.25 912,-160.25 906,-166.25 900,-166.25"/>
<text text-anchor="middle" x="829" y="-148.95" font-family="Helvetica,sans-Serif" font-size="14.00">21_A &lt;= 0.5</text>
<text text-anchor="middle" x="829" y="-131.7" font-family="Helvetica,sans-Serif" font-size="14.00">entropy = 0.925</text>
<text text-anchor="middle" x="829" y="-114.45" font-family="Helvetica,sans-Serif" font-size="14.00">samples = 6954</text>
<text text-anchor="middle" x="829" y="-97.2" font-family="Helvetica,sans-Serif" font-size="14.00">value = [7173, 3696]</text>
<text text-anchor="middle" x="829" y="-79.95" font-family="Helvetica,sans-Serif" font-size="14.00">class = Animal</text>
</g>
<!-- 12301&#45;&gt;12302 -->
<g id="edge18" class="edge">
<title>12301&#45;&gt;12302</title>
<path fill="none" stroke="black" d="M887.79,-202.07C881.6,-193.45 875.07,-184.35 868.71,-175.49"/>
<polygon fill="black" stroke="black" points="871.72,-173.67 863.05,-167.59 866.03,-177.75 871.72,-173.67"/>
</g>
<!-- 15823 -->
<g id="node22" class="node">
<title>15823</title>
<path fill="#ebf5fc" stroke="black" d="M1084,-166.25C1084,-166.25 942,-166.25 942,-166.25 936,-166.25 930,-160.25 930,-154.25 930,-154.25 930,-84 930,-84 930,-78 936,-72 942,-72 942,-72 1084,-72 1084,-72 1090,-72 1096,-78 1096,-84 1096,-84 1096,-154.25 1096,-154.25 1096,-160.25 1090,-166.25 1084,-166.25"/>
<text text-anchor="middle" x="1013" y="-148.95" font-family="Helvetica,sans-Serif" font-size="14.00">21_C &lt;= 0.5</text>
<text text-anchor="middle" x="1013" y="-131.7" font-family="Helvetica,sans-Serif" font-size="14.00">entropy = 0.998</text>
<text text-anchor="middle" x="1013" y="-114.45" font-family="Helvetica,sans-Serif" font-size="14.00">samples = 3154</text>
<text text-anchor="middle" x="1013" y="-97.2" font-family="Helvetica,sans-Serif" font-size="14.00">value = [2373, 2638]</text>
<text text-anchor="middle" x="1013" y="-79.95" font-family="Helvetica,sans-Serif" font-size="14.00">class = Plant</text>
</g>
<!-- 12301&#45;&gt;15823 -->
<g id="edge21" class="edge">
<title>12301&#45;&gt;15823</title>
<path fill="none" stroke="black" d="M954.21,-202.07C960.4,-193.45 966.93,-184.35 973.29,-175.49"/>
<polygon fill="black" stroke="black" points="975.97,-177.75 978.95,-167.59 970.28,-173.67 975.97,-177.75"/>
</g>
<!-- 12303 -->
<g id="node20" class="node">
<title>12303</title>
<path fill="#c0c0c0" stroke="black" d="M792,-36C792,-36 762,-36 762,-36 756,-36 750,-30 750,-24 750,-24 750,-12 750,-12 750,-6 756,0 762,0 762,0 792,0 792,0 798,0 804,-6 804,-12 804,-12 804,-24 804,-24 804,-30 798,-36 792,-36"/>
<text text-anchor="middle" x="777" y="-13.32" font-family="Helvetica,sans-Serif" font-size="14.00">(...)</text>
</g>
<!-- 12302&#45;&gt;12303 -->
<g id="edge19" class="edge">
<title>12302&#45;&gt;12303</title>
<path fill="none" stroke="black" d="M804.67,-71.75C800.1,-63.03 795.45,-54.16 791.3,-46.26"/>
<polygon fill="black" stroke="black" points="794.46,-44.74 786.71,-37.51 788.26,-47.99 794.46,-44.74"/>
</g>
<!-- 15168 -->
<g id="node21" class="node">
<title>15168</title>
<path fill="#c0c0c0" stroke="black" d="M864,-36C864,-36 834,-36 834,-36 828,-36 822,-30 822,-24 822,-24 822,-12 822,-12 822,-6 828,0 834,0 834,0 864,0 864,0 870,0 876,-6 876,-12 876,-12 876,-24 876,-24 876,-30 870,-36 864,-36"/>
<text text-anchor="middle" x="849" y="-13.32" font-family="Helvetica,sans-Serif" font-size="14.00">(...)</text>
</g>
<!-- 12302&#45;&gt;15168 -->
<g id="edge20" class="edge">
<title>12302&#45;&gt;15168</title>
<path fill="none" stroke="black" d="M838.36,-71.75C840.04,-63.42 841.74,-54.97 843.28,-47.34"/>
<polygon fill="black" stroke="black" points="846.69,-48.15 845.24,-37.66 839.83,-46.77 846.69,-48.15"/>
</g>
<!-- 15824 -->
<g id="node23" class="node">
<title>15824</title>
<path fill="#c0c0c0" stroke="black" d="M971,-36C971,-36 941,-36 941,-36 935,-36 929,-30 929,-24 929,-24 929,-12 929,-12 929,-6 935,0 941,0 941,0 971,0 971,0 977,0 983,-6 983,-12 983,-12 983,-24 983,-24 983,-30 977,-36 971,-36"/>
<text text-anchor="middle" x="956" y="-13.32" font-family="Helvetica,sans-Serif" font-size="14.00">(...)</text>
</g>
<!-- 15823&#45;&gt;15824 -->
<g id="edge22" class="edge">
<title>15823&#45;&gt;15824</title>
<path fill="none" stroke="black" d="M986.34,-71.75C981.26,-62.93 976.1,-53.96 971.52,-45.99"/>
<polygon fill="black" stroke="black" points="974.65,-44.41 966.63,-37.48 968.58,-47.9 974.65,-44.41"/>
</g>
<!-- 16797 -->
<g id="node24" class="node">
<title>16797</title>
<path fill="#c0c0c0" stroke="black" d="M1043,-36C1043,-36 1013,-36 1013,-36 1007,-36 1001,-30 1001,-24 1001,-24 1001,-12 1001,-12 1001,-6 1007,0 1013,0 1013,0 1043,0 1043,0 1049,0 1055,-6 1055,-12 1055,-12 1055,-24 1055,-24 1055,-30 1049,-36 1043,-36"/>
<text text-anchor="middle" x="1028" y="-13.32" font-family="Helvetica,sans-Serif" font-size="14.00">(...)</text>
</g>
<!-- 15823&#45;&gt;16797 -->
<g id="edge23" class="edge">
<title>15823&#45;&gt;16797</title>
<path fill="none" stroke="black" d="M1020.02,-71.75C1021.28,-63.42 1022.56,-54.97 1023.71,-47.34"/>
<polygon fill="black" stroke="black" points="1027.14,-48.08 1025.17,-37.67 1020.22,-47.03 1027.14,-48.08"/>
</g>
<!-- 17047 -->
<g id="node26" class="node">
<title>17047</title>
<path fill="#e99456" stroke="black" d="M1250,-166.25C1250,-166.25 1126,-166.25 1126,-166.25 1120,-166.25 1114,-160.25 1114,-154.25 1114,-154.25 1114,-84 1114,-84 1114,-78 1120,-72 1126,-72 1126,-72 1250,-72 1250,-72 1256,-72 1262,-78 1262,-84 1262,-84 1262,-154.25 1262,-154.25 1262,-160.25 1256,-166.25 1250,-166.25"/>
<text text-anchor="middle" x="1188" y="-148.95" font-family="Helvetica,sans-Serif" font-size="14.00">8_A &lt;= 0.5</text>
<text text-anchor="middle" x="1188" y="-131.7" font-family="Helvetica,sans-Serif" font-size="14.00">entropy = 0.555</text>
<text text-anchor="middle" x="1188" y="-114.45" font-family="Helvetica,sans-Serif" font-size="14.00">samples = 542</text>
<text text-anchor="middle" x="1188" y="-97.2" font-family="Helvetica,sans-Serif" font-size="14.00">value = [735, 109]</text>
<text text-anchor="middle" x="1188" y="-79.95" font-family="Helvetica,sans-Serif" font-size="14.00">class = Animal</text>
</g>
<!-- 17046&#45;&gt;17047 -->
<g id="edge25" class="edge">
<title>17046&#45;&gt;17047</title>
<path fill="none" stroke="black" d="M1188,-202.07C1188,-194.17 1188,-185.88 1188,-177.73"/>
<polygon fill="black" stroke="black" points="1191.5,-177.87 1188,-167.87 1184.5,-177.87 1191.5,-177.87"/>
</g>
<!-- 17202 -->
<g id="node29" class="node">
<title>17202</title>
<path fill="#eeae80" stroke="black" d="M1407.5,-166.25C1407.5,-166.25 1292.5,-166.25 1292.5,-166.25 1286.5,-166.25 1280.5,-160.25 1280.5,-154.25 1280.5,-154.25 1280.5,-84 1280.5,-84 1280.5,-78 1286.5,-72 1292.5,-72 1292.5,-72 1407.5,-72 1407.5,-72 1413.5,-72 1419.5,-78 1419.5,-84 1419.5,-84 1419.5,-154.25 1419.5,-154.25 1419.5,-160.25 1413.5,-166.25 1407.5,-166.25"/>
<text text-anchor="middle" x="1350" y="-148.95" font-family="Helvetica,sans-Serif" font-size="14.00">27_U &lt;= 0.5</text>
<text text-anchor="middle" x="1350" y="-131.7" font-family="Helvetica,sans-Serif" font-size="14.00">entropy = 0.834</text>
<text text-anchor="middle" x="1350" y="-114.45" font-family="Helvetica,sans-Serif" font-size="14.00">samples = 117</text>
<text text-anchor="middle" x="1350" y="-97.2" font-family="Helvetica,sans-Serif" font-size="14.00">value = [125, 45]</text>
<text text-anchor="middle" x="1350" y="-79.95" font-family="Helvetica,sans-Serif" font-size="14.00">class = Animal</text>
</g>
<!-- 17046&#45;&gt;17202 -->
<g id="edge28" class="edge">
<title>17046&#45;&gt;17202</title>
<path fill="none" stroke="black" d="M1246.49,-202.07C1258.11,-192.87 1270.41,-183.13 1282.32,-173.71"/>
<polygon fill="black" stroke="black" points="1284.47,-176.46 1290.14,-167.51 1280.13,-170.98 1284.47,-176.46"/>
</g>
<!-- 17048 -->
<g id="node27" class="node">
<title>17048</title>
<path fill="#c0c0c0" stroke="black" d="M1158,-36C1158,-36 1128,-36 1128,-36 1122,-36 1116,-30 1116,-24 1116,-24 1116,-12 1116,-12 1116,-6 1122,0 1128,0 1128,0 1158,0 1158,0 1164,0 1170,-6 1170,-12 1170,-12 1170,-24 1170,-24 1170,-30 1164,-36 1158,-36"/>
<text text-anchor="middle" x="1143" y="-13.32" font-family="Helvetica,sans-Serif" font-size="14.00">(...)</text>
</g>
<!-- 17047&#45;&gt;17048 -->
<g id="edge26" class="edge">
<title>17047&#45;&gt;17048</title>
<path fill="none" stroke="black" d="M1166.95,-71.75C1163.03,-63.12 1159.05,-54.36 1155.5,-46.53"/>
<polygon fill="black" stroke="black" points="1158.74,-45.21 1151.42,-37.55 1152.37,-48.1 1158.74,-45.21"/>
</g>
<!-- 17171 -->
<g id="node28" class="node">
<title>17171</title>
<path fill="#c0c0c0" stroke="black" d="M1230,-36C1230,-36 1200,-36 1200,-36 1194,-36 1188,-30 1188,-24 1188,-24 1188,-12 1188,-12 1188,-6 1194,0 1200,0 1200,0 1230,0 1230,0 1236,0 1242,-6 1242,-12 1242,-12 1242,-24 1242,-24 1242,-30 1236,-36 1230,-36"/>
<text text-anchor="middle" x="1215" y="-13.32" font-family="Helvetica,sans-Serif" font-size="14.00">(...)</text>
</g>
<!-- 17047&#45;&gt;17171 -->
<g id="edge27" class="edge">
<title>17047&#45;&gt;17171</title>
<path fill="none" stroke="black" d="M1200.63,-71.75C1202.93,-63.32 1205.26,-54.77 1207.35,-47.07"/>
<polygon fill="black" stroke="black" points="1210.67,-48.2 1209.92,-37.63 1203.92,-46.36 1210.67,-48.2"/>
</g>
<!-- 17203 -->
<g id="node30" class="node">
<title>17203</title>
<path fill="#c0c0c0" stroke="black" d="M1329,-36C1329,-36 1299,-36 1299,-36 1293,-36 1287,-30 1287,-24 1287,-24 1287,-12 1287,-12 1287,-6 1293,0 1299,0 1299,0 1329,0 1329,0 1335,0 1341,-6 1341,-12 1341,-12 1341,-24 1341,-24 1341,-30 1335,-36 1329,-36"/>
<text text-anchor="middle" x="1314" y="-13.32" font-family="Helvetica,sans-Serif" font-size="14.00">(...)</text>
</g>
<!-- 17202&#45;&gt;17203 -->
<g id="edge29" class="edge">
<title>17202&#45;&gt;17203</title>
<path fill="none" stroke="black" d="M1333.16,-71.75C1330.06,-63.22 1326.92,-54.57 1324.1,-46.8"/>
<polygon fill="black" stroke="black" points="1327.46,-45.8 1320.75,-37.6 1320.88,-48.19 1327.46,-45.8"/>
</g>
<!-- 17270 -->
<g id="node31" class="node">
<title>17270</title>
<path fill="#c0c0c0" stroke="black" d="M1401,-36C1401,-36 1371,-36 1371,-36 1365,-36 1359,-30 1359,-24 1359,-24 1359,-12 1359,-12 1359,-6 1365,0 1371,0 1371,0 1401,0 1401,0 1407,0 1413,-6 1413,-12 1413,-12 1413,-24 1413,-24 1413,-30 1407,-36 1401,-36"/>
<text text-anchor="middle" x="1386" y="-13.32" font-family="Helvetica,sans-Serif" font-size="14.00">(...)</text>
</g>
<!-- 17202&#45;&gt;17270 -->
<g id="edge30" class="edge">
<title>17202&#45;&gt;17270</title>
<path fill="none" stroke="black" d="M1366.84,-71.75C1369.94,-63.22 1373.08,-54.57 1375.9,-46.8"/>
<polygon fill="black" stroke="black" points="1379.12,-48.19 1379.25,-37.6 1372.54,-45.8 1379.12,-48.19"/>
</g>
</g>
</svg>
