<?xml version="1.0" encoding="UTF-8" standalone="no"?>
<!DOCTYPE svg PUBLIC "-//W3C//DTD SVG 1.1//EN"
 "http://www.w3.org/Graphics/SVG/1.1/DTD/svg11.dtd">
<!-- Generated by graphviz version 12.0.0 (20240803.0821)
 -->
<!-- Title: Tree Pages: 1 -->
<svg width="1402pt" height="565pt"
 viewBox="0.00 0.00 1402.00 565.00" xmlns="http://www.w3.org/2000/svg" xmlns:xlink="http://www.w3.org/1999/xlink">
<g id="graph0" class="graph" transform="scale(1 1) rotate(0) translate(4 561)">
<title>Tree</title>
<polygon fill="white" stroke="none" points="-4,4 -4,-561 1398,-561 1398,4 -4,4"/>
<!-- 0 -->
<g id="node1" class="node">
<title>0</title>
<path fill="#feffff" stroke="black" d="M765,-557C765,-557 605,-557 605,-557 599,-557 593,-551 593,-545 593,-545 593,-474.75 593,-474.75 593,-468.75 599,-462.75 605,-462.75 605,-462.75 765,-462.75 765,-462.75 771,-462.75 777,-468.75 777,-474.75 777,-474.75 777,-545 777,-545 777,-551 771,-557 765,-557"/>
<text text-anchor="middle" x="685" y="-539.7" font-family="Helvetica,sans-Serif" font-size="14.00">8_G &lt;= 0.5</text>
<text text-anchor="middle" x="685" y="-522.45" font-family="Helvetica,sans-Serif" font-size="14.00">entropy = 1.0</text>
<text text-anchor="middle" x="685" y="-505.2" font-family="Helvetica,sans-Serif" font-size="14.00">samples = 38078</text>
<text text-anchor="middle" x="685" y="-487.95" font-family="Helvetica,sans-Serif" font-size="14.00">value = [30099, 30246]</text>
<text text-anchor="middle" x="685" y="-470.7" font-family="Helvetica,sans-Serif" font-size="14.00">class = Plant</text>
</g>
<!-- 1 -->
<g id="node2" class="node">
<title>1</title>
<path fill="#fae7d9" stroke="black" d="M608,-426.75C608,-426.75 448,-426.75 448,-426.75 442,-426.75 436,-420.75 436,-414.75 436,-414.75 436,-344.5 436,-344.5 436,-338.5 442,-332.5 448,-332.5 448,-332.5 608,-332.5 608,-332.5 614,-332.5 620,-338.5 620,-344.5 620,-344.5 620,-414.75 620,-414.75 620,-420.75 614,-426.75 608,-426.75"/>
<text text-anchor="middle" x="528" y="-409.45" font-family="Helvetica,sans-Serif" font-size="14.00">23_C &lt;= 0.5</text>
<text text-anchor="middle" x="528" y="-392.2" font-family="Helvetica,sans-Serif" font-size="14.00">entropy = 0.992</text>
<text text-anchor="middle" x="528" y="-374.95" font-family="Helvetica,sans-Serif" font-size="14.00">samples = 26280</text>
<text text-anchor="middle" x="528" y="-357.7" font-family="Helvetica,sans-Serif" font-size="14.00">value = [23052, 18643]</text>
<text text-anchor="middle" x="528" y="-340.45" font-family="Helvetica,sans-Serif" font-size="14.00">class = Animal</text>
</g>
<!-- 0&#45;&gt;1 -->
<g id="edge1" class="edge">
<title>0&#45;&gt;1</title>
<path fill="none" stroke="black" d="M628.32,-462.57C617.05,-453.37 605.13,-443.63 593.59,-434.21"/>
<polygon fill="black" stroke="black" points="595.99,-431.65 586.03,-428.03 591.56,-437.07 595.99,-431.65"/>
<text text-anchor="middle" x="587.37" y="-447.27" font-family="Helvetica,sans-Serif" font-size="14.00">True</text>
</g>
<!-- 12150 -->
<g id="node17" class="node">
<title>12150</title>
<path fill="#b1d9f5" stroke="black" d="M945.5,-426.75C945.5,-426.75 794.5,-426.75 794.5,-426.75 788.5,-426.75 782.5,-420.75 782.5,-414.75 782.5,-414.75 782.5,-344.5 782.5,-344.5 782.5,-338.5 788.5,-332.5 794.5,-332.5 794.5,-332.5 945.5,-332.5 945.5,-332.5 951.5,-332.5 957.5,-338.5 957.5,-344.5 957.5,-344.5 957.5,-414.75 957.5,-414.75 957.5,-420.75 951.5,-426.75 945.5,-426.75"/>
<text text-anchor="middle" x="870" y="-409.45" font-family="Helvetica,sans-Serif" font-size="14.00">19_U &lt;= 0.5</text>
<text text-anchor="middle" x="870" y="-392.2" font-family="Helvetica,sans-Serif" font-size="14.00">entropy = 0.957</text>
<text text-anchor="middle" x="870" y="-374.95" font-family="Helvetica,sans-Serif" font-size="14.00">samples = 11798</text>
<text text-anchor="middle" x="870" y="-357.7" font-family="Helvetica,sans-Serif" font-size="14.00">value = [7047, 11603]</text>
<text text-anchor="middle" x="870" y="-340.45" font-family="Helvetica,sans-Serif" font-size="14.00">class = Plant</text>
</g>
<!-- 0&#45;&gt;12150 -->
<g id="edge16" class="edge">
<title>0&#45;&gt;12150</title>
<path fill="none" stroke="black" d="M752.05,-462.39C765.49,-453.07 779.71,-443.22 793.45,-433.69"/>
<polygon fill="black" stroke="black" points="795.4,-436.6 801.62,-428.03 791.41,-430.85 795.4,-436.6"/>
<text text-anchor="middle" x="798.41" y="-447.09" font-family="Helvetica,sans-Serif" font-size="14.00">False</text>
</g>
<!-- 2 -->
<g id="node3" class="node">
<title>2</title>
<path fill="#fbebdf" stroke="black" d="M361,-296.5C361,-296.5 201,-296.5 201,-296.5 195,-296.5 189,-290.5 189,-284.5 189,-284.5 189,-214.25 189,-214.25 189,-208.25 195,-202.25 201,-202.25 201,-202.25 361,-202.25 361,-202.25 367,-202.25 373,-208.25 373,-214.25 373,-214.25 373,-284.5 373,-284.5 373,-290.5 367,-296.5 361,-296.5"/>
<text text-anchor="middle" x="281" y="-279.2" font-family="Helvetica,sans-Serif" font-size="14.00">22_U &lt;= 0.5</text>
<text text-anchor="middle" x="281" y="-261.95" font-family="Helvetica,sans-Serif" font-size="14.00">entropy = 0.994</text>
<text text-anchor="middle" x="281" y="-244.7" font-family="Helvetica,sans-Serif" font-size="14.00">samples = 25305</text>
<text text-anchor="middle" x="281" y="-227.45" font-family="Helvetica,sans-Serif" font-size="14.00">value = [21824, 18311]</text>
<text text-anchor="middle" x="281" y="-210.2" font-family="Helvetica,sans-Serif" font-size="14.00">class = Animal</text>
</g>
<!-- 1&#45;&gt;2 -->
<g id="edge2" class="edge">
<title>1&#45;&gt;2</title>
<path fill="none" stroke="black" d="M438.48,-332.14C419.75,-322.42 399.9,-312.11 380.83,-302.21"/>
<polygon fill="black" stroke="black" points="382.46,-299.11 371.97,-297.61 379.24,-305.33 382.46,-299.11"/>
</g>
<!-- 11675 -->
<g id="node10" class="node">
<title>11675</title>
<path fill="#eca36f" stroke="black" d="M594.5,-296.5C594.5,-296.5 461.5,-296.5 461.5,-296.5 455.5,-296.5 449.5,-290.5 449.5,-284.5 449.5,-284.5 449.5,-214.25 449.5,-214.25 449.5,-208.25 455.5,-202.25 461.5,-202.25 461.5,-202.25 594.5,-202.25 594.5,-202.25 600.5,-202.25 606.5,-208.25 606.5,-214.25 606.5,-214.25 606.5,-284.5 606.5,-284.5 606.5,-290.5 600.5,-296.5 594.5,-296.5"/>
<text text-anchor="middle" x="528" y="-279.2" font-family="Helvetica,sans-Serif" font-size="14.00">6_A &lt;= 0.5</text>
<text text-anchor="middle" x="528" y="-261.95" font-family="Helvetica,sans-Serif" font-size="14.00">entropy = 0.747</text>
<text text-anchor="middle" x="528" y="-244.7" font-family="Helvetica,sans-Serif" font-size="14.00">samples = 975</text>
<text text-anchor="middle" x="528" y="-227.45" font-family="Helvetica,sans-Serif" font-size="14.00">value = [1228, 332]</text>
<text text-anchor="middle" x="528" y="-210.2" font-family="Helvetica,sans-Serif" font-size="14.00">class = Animal</text>
</g>
<!-- 1&#45;&gt;11675 -->
<g id="edge9" class="edge">
<title>1&#45;&gt;11675</title>
<path fill="none" stroke="black" d="M528,-332.32C528,-324.42 528,-316.13 528,-307.98"/>
<polygon fill="black" stroke="black" points="531.5,-308.12 528,-298.12 524.5,-308.12 531.5,-308.12"/>
</g>
<!-- 3 -->
<g id="node4" class="node">
<title>3</title>
<path fill="#fcfeff" stroke="black" d="M172,-166.25C172,-166.25 12,-166.25 12,-166.25 6,-166.25 0,-160.25 0,-154.25 0,-154.25 0,-84 0,-84 0,-78 6,-72 12,-72 12,-72 172,-72 172,-72 178,-72 184,-78 184,-84 184,-84 184,-154.25 184,-154.25 184,-160.25 178,-166.25 172,-166.25"/>
<text text-anchor="middle" x="92" y="-148.95" font-family="Helvetica,sans-Serif" font-size="14.00">20_C &lt;= 0.5</text>
<text text-anchor="middle" x="92" y="-131.7" font-family="Helvetica,sans-Serif" font-size="14.00">entropy = 1.0</text>
<text text-anchor="middle" x="92" y="-114.45" font-family="Helvetica,sans-Serif" font-size="14.00">samples = 21688</text>
<text text-anchor="middle" x="92" y="-97.2" font-family="Helvetica,sans-Serif" font-size="14.00">value = [17054, 17319]</text>
<text text-anchor="middle" x="92" y="-79.95" font-family="Helvetica,sans-Serif" font-size="14.00">class = Plant</text>
</g>
<!-- 2&#45;&gt;3 -->
<g id="edge3" class="edge">
<title>2&#45;&gt;3</title>
<path fill="none" stroke="black" d="M212.5,-201.89C198.63,-192.48 183.96,-182.53 169.8,-172.92"/>
<polygon fill="black" stroke="black" points="172.08,-170.23 161.84,-167.51 168.15,-176.03 172.08,-170.23"/>
</g>
<!-- 10264 -->
<g id="node7" class="node">
<title>10264</title>
<path fill="#ea9b62" stroke="black" d="M347.5,-166.25C347.5,-166.25 214.5,-166.25 214.5,-166.25 208.5,-166.25 202.5,-160.25 202.5,-154.25 202.5,-154.25 202.5,-84 202.5,-84 202.5,-78 208.5,-72 214.5,-72 214.5,-72 347.5,-72 347.5,-72 353.5,-72 359.5,-78 359.5,-84 359.5,-84 359.5,-154.25 359.5,-154.25 359.5,-160.25 353.5,-166.25 347.5,-166.25"/>
<text text-anchor="middle" x="281" y="-148.95" font-family="Helvetica,sans-Serif" font-size="14.00">9_U &lt;= 0.5</text>
<text text-anchor="middle" x="281" y="-131.7" font-family="Helvetica,sans-Serif" font-size="14.00">entropy = 0.663</text>
<text text-anchor="middle" x="281" y="-114.45" font-family="Helvetica,sans-Serif" font-size="14.00">samples = 3617</text>
<text text-anchor="middle" x="281" y="-97.2" font-family="Helvetica,sans-Serif" font-size="14.00">value = [4770, 992]</text>
<text text-anchor="middle" x="281" y="-79.95" font-family="Helvetica,sans-Serif" font-size="14.00">class = Animal</text>
</g>
<!-- 2&#45;&gt;10264 -->
<g id="edge6" class="edge">
<title>2&#45;&gt;10264</title>
<path fill="none" stroke="black" d="M281,-202.07C281,-194.17 281,-185.88 281,-177.73"/>
<polygon fill="black" stroke="black" points="284.5,-177.87 281,-167.87 277.5,-177.87 284.5,-177.87"/>
</g>
<!-- 4 -->
<g id="node5" class="node">
<title>4</title>
<path fill="#c0c0c0" stroke="black" d="M71,-36C71,-36 41,-36 41,-36 35,-36 29,-30 29,-24 29,-24 29,-12 29,-12 29,-6 35,0 41,0 41,0 71,0 71,0 77,0 83,-6 83,-12 83,-12 83,-24 83,-24 83,-30 77,-36 71,-36"/>
<text text-anchor="middle" x="56" y="-13.32" font-family="Helvetica,sans-Serif" font-size="14.00">(...)</text>
</g>
<!-- 3&#45;&gt;4 -->
<g id="edge4" class="edge">
<title>3&#45;&gt;4</title>
<path fill="none" stroke="black" d="M75.16,-71.75C72.06,-63.22 68.92,-54.57 66.1,-46.8"/>
<polygon fill="black" stroke="black" points="69.46,-45.8 62.75,-37.6 62.88,-48.19 69.46,-45.8"/>
</g>
<!-- 7771 -->
<g id="node6" class="node">
<title>7771</title>
<path fill="#c0c0c0" stroke="black" d="M143,-36C143,-36 113,-36 113,-36 107,-36 101,-30 101,-24 101,-24 101,-12 101,-12 101,-6 107,0 113,0 113,0 143,0 143,0 149,0 155,-6 155,-12 155,-12 155,-24 155,-24 155,-30 149,-36 143,-36"/>
<text text-anchor="middle" x="128" y="-13.32" font-family="Helvetica,sans-Serif" font-size="14.00">(...)</text>
</g>
<!-- 3&#45;&gt;7771 -->
<g id="edge5" class="edge">
<title>3&#45;&gt;7771</title>
<path fill="none" stroke="black" d="M108.84,-71.75C111.94,-63.22 115.08,-54.57 117.9,-46.8"/>
<polygon fill="black" stroke="black" points="121.12,-48.19 121.25,-37.6 114.54,-45.8 121.12,-48.19"/>
</g>
<!-- 10265 -->
<g id="node8" class="node">
<title>10265</title>
<path fill="#c0c0c0" stroke="black" d="M251,-36C251,-36 221,-36 221,-36 215,-36 209,-30 209,-24 209,-24 209,-12 209,-12 209,-6 215,0 221,0 221,0 251,0 251,0 257,0 263,-6 263,-12 263,-12 263,-24 263,-24 263,-30 257,-36 251,-36"/>
<text text-anchor="middle" x="236" y="-13.32" font-family="Helvetica,sans-Serif" font-size="14.00">(...)</text>
</g>
<!-- 10264&#45;&gt;10265 -->
<g id="edge7" class="edge">
<title>10264&#45;&gt;10265</title>
<path fill="none" stroke="black" d="M259.95,-71.75C256.03,-63.12 252.05,-54.36 248.5,-46.53"/>
<polygon fill="black" stroke="black" points="251.74,-45.21 244.42,-37.55 245.37,-48.1 251.74,-45.21"/>
</g>
<!-- 11270 -->
<g id="node9" class="node">
<title>11270</title>
<path fill="#c0c0c0" stroke="black" d="M323,-36C323,-36 293,-36 293,-36 287,-36 281,-30 281,-24 281,-24 281,-12 281,-12 281,-6 287,0 293,0 293,0 323,0 323,0 329,0 335,-6 335,-12 335,-12 335,-24 335,-24 335,-30 329,-36 323,-36"/>
<text text-anchor="middle" x="308" y="-13.32" font-family="Helvetica,sans-Serif" font-size="14.00">(...)</text>
</g>
<!-- 10264&#45;&gt;11270 -->
<g id="edge8" class="edge">
<title>10264&#45;&gt;11270</title>
<path fill="none" stroke="black" d="M293.63,-71.75C295.93,-63.32 298.26,-54.77 300.35,-47.07"/>
<polygon fill="black" stroke="black" points="303.67,-48.2 302.92,-37.63 296.92,-46.36 303.67,-48.2"/>
</g>
<!-- 11676 -->
<g id="node11" class="node">
<title>11676</title>
<path fill="#eda978" stroke="black" d="M514,-166.25C514,-166.25 390,-166.25 390,-166.25 384,-166.25 378,-160.25 378,-154.25 378,-154.25 378,-84 378,-84 378,-78 384,-72 390,-72 390,-72 514,-72 514,-72 520,-72 526,-78 526,-84 526,-84 526,-154.25 526,-154.25 526,-160.25 520,-166.25 514,-166.25"/>
<text text-anchor="middle" x="452" y="-148.95" font-family="Helvetica,sans-Serif" font-size="14.00">16_A &lt;= 0.5</text>
<text text-anchor="middle" x="452" y="-131.7" font-family="Helvetica,sans-Serif" font-size="14.00">entropy = 0.798</text>
<text text-anchor="middle" x="452" y="-114.45" font-family="Helvetica,sans-Serif" font-size="14.00">samples = 714</text>
<text text-anchor="middle" x="452" y="-97.2" font-family="Helvetica,sans-Serif" font-size="14.00">value = [861, 275]</text>
<text text-anchor="middle" x="452" y="-79.95" font-family="Helvetica,sans-Serif" font-size="14.00">class = Animal</text>
</g>
<!-- 11675&#45;&gt;11676 -->
<g id="edge10" class="edge">
<title>11675&#45;&gt;11676</title>
<path fill="none" stroke="black" d="M500.56,-202.07C495.56,-193.63 490.29,-184.74 485.14,-176.05"/>
<polygon fill="black" stroke="black" points="488.28,-174.48 480.17,-167.66 482.26,-178.05 488.28,-174.48"/>
</g>
<!-- 12065 -->
<g id="node14" class="node">
<title>12065</title>
<path fill="#e99558" stroke="black" d="M671.5,-166.25C671.5,-166.25 556.5,-166.25 556.5,-166.25 550.5,-166.25 544.5,-160.25 544.5,-154.25 544.5,-154.25 544.5,-84 544.5,-84 544.5,-78 550.5,-72 556.5,-72 556.5,-72 671.5,-72 671.5,-72 677.5,-72 683.5,-78 683.5,-84 683.5,-84 683.5,-154.25 683.5,-154.25 683.5,-160.25 677.5,-166.25 671.5,-166.25"/>
<text text-anchor="middle" x="614" y="-148.95" font-family="Helvetica,sans-Serif" font-size="14.00">13_U &lt;= 0.5</text>
<text text-anchor="middle" x="614" y="-131.7" font-family="Helvetica,sans-Serif" font-size="14.00">entropy = 0.569</text>
<text text-anchor="middle" x="614" y="-114.45" font-family="Helvetica,sans-Serif" font-size="14.00">samples = 261</text>
<text text-anchor="middle" x="614" y="-97.2" font-family="Helvetica,sans-Serif" font-size="14.00">value = [367, 57]</text>
<text text-anchor="middle" x="614" y="-79.95" font-family="Helvetica,sans-Serif" font-size="14.00">class = Animal</text>
</g>
<!-- 11675&#45;&gt;12065 -->
<g id="edge13" class="edge">
<title>11675&#45;&gt;12065</title>
<path fill="none" stroke="black" d="M559.05,-202.07C564.77,-193.54 570.8,-184.54 576.69,-175.77"/>
<polygon fill="black" stroke="black" points="579.49,-177.87 582.15,-167.62 573.68,-173.97 579.49,-177.87"/>
</g>
<!-- 11677 -->
<g id="node12" class="node">
<title>11677</title>
<path fill="#c0c0c0" stroke="black" d="M417,-36C417,-36 387,-36 387,-36 381,-36 375,-30 375,-24 375,-24 375,-12 375,-12 375,-6 381,0 387,0 387,0 417,0 417,0 423,0 429,-6 429,-12 429,-12 429,-24 429,-24 429,-30 423,-36 417,-36"/>
<text text-anchor="middle" x="402" y="-13.32" font-family="Helvetica,sans-Serif" font-size="14.00">(...)</text>
</g>
<!-- 11676&#45;&gt;11677 -->
<g id="edge11" class="edge">
<title>11676&#45;&gt;11677</title>
<path fill="none" stroke="black" d="M428.61,-71.75C424.21,-63.03 419.74,-54.16 415.75,-46.26"/>
<polygon fill="black" stroke="black" points="418.97,-44.88 411.34,-37.52 412.72,-48.03 418.97,-44.88"/>
</g>
<!-- 11972 -->
<g id="node13" class="node">
<title>11972</title>
<path fill="#c0c0c0" stroke="black" d="M489,-36C489,-36 459,-36 459,-36 453,-36 447,-30 447,-24 447,-24 447,-12 447,-12 447,-6 453,0 459,0 459,0 489,0 489,0 495,0 501,-6 501,-12 501,-12 501,-24 501,-24 501,-30 495,-36 489,-36"/>
<text text-anchor="middle" x="474" y="-13.32" font-family="Helvetica,sans-Serif" font-size="14.00">(...)</text>
</g>
<!-- 11676&#45;&gt;11972 -->
<g id="edge12" class="edge">
<title>11676&#45;&gt;11972</title>
<path fill="none" stroke="black" d="M462.29,-71.75C464.14,-63.42 466.02,-54.97 467.71,-47.34"/>
<polygon fill="black" stroke="black" points="471.11,-48.17 469.86,-37.65 464.28,-46.65 471.11,-48.17"/>
</g>
<!-- 12066 -->
<g id="node15" class="node">
<title>12066</title>
<path fill="#c0c0c0" stroke="black" d="M570,-36C570,-36 540,-36 540,-36 534,-36 528,-30 528,-24 528,-24 528,-12 528,-12 528,-6 534,0 540,0 540,0 570,0 570,0 576,0 582,-6 582,-12 582,-12 582,-24 582,-24 582,-30 576,-36 570,-36"/>
<text text-anchor="middle" x="555" y="-13.32" font-family="Helvetica,sans-Serif" font-size="14.00">(...)</text>
</g>
<!-- 12065&#45;&gt;12066 -->
<g id="edge14" class="edge">
<title>12065&#45;&gt;12066</title>
<path fill="none" stroke="black" d="M586.4,-71.75C581.15,-62.93 575.81,-53.96 571.06,-45.99"/>
<polygon fill="black" stroke="black" points="574.12,-44.28 566,-37.47 568.1,-47.86 574.12,-44.28"/>
</g>
<!-- 12115 -->
<g id="node16" class="node">
<title>12115</title>
<path fill="#c0c0c0" stroke="black" d="M642,-36C642,-36 612,-36 612,-36 606,-36 600,-30 600,-24 600,-24 600,-12 600,-12 600,-6 606,0 612,0 612,0 642,0 642,0 648,0 654,-6 654,-12 654,-12 654,-24 654,-24 654,-30 648,-36 642,-36"/>
<text text-anchor="middle" x="627" y="-13.32" font-family="Helvetica,sans-Serif" font-size="14.00">(...)</text>
</g>
<!-- 12065&#45;&gt;12115 -->
<g id="edge15" class="edge">
<title>12065&#45;&gt;12115</title>
<path fill="none" stroke="black" d="M620.08,-71.75C621.17,-63.42 622.28,-54.97 623.28,-47.34"/>
<polygon fill="black" stroke="black" points="626.72,-48.04 624.55,-37.67 619.78,-47.13 626.72,-48.04"/>
</g>
<!-- 12151 -->
<g id="node18" class="node">
<title>12151</title>
<path fill="#99cdf2" stroke="black" d="M945.5,-296.5C945.5,-296.5 794.5,-296.5 794.5,-296.5 788.5,-296.5 782.5,-290.5 782.5,-284.5 782.5,-284.5 782.5,-214.25 782.5,-214.25 782.5,-208.25 788.5,-202.25 794.5,-202.25 794.5,-202.25 945.5,-202.25 945.5,-202.25 951.5,-202.25 957.5,-208.25 957.5,-214.25 957.5,-214.25 957.5,-284.5 957.5,-284.5 957.5,-290.5 951.5,-296.5 945.5,-296.5"/>
<text text-anchor="middle" x="870" y="-279.2" font-family="Helvetica,sans-Serif" font-size="14.00">6_A &lt;= 0.5</text>
<text text-anchor="middle" x="870" y="-261.95" font-family="Helvetica,sans-Serif" font-size="14.00">entropy = 0.912</text>
<text text-anchor="middle" x="870" y="-244.7" font-family="Helvetica,sans-Serif" font-size="14.00">samples = 9546</text>
<text text-anchor="middle" x="870" y="-227.45" font-family="Helvetica,sans-Serif" font-size="14.00">value = [4942, 10180]</text>
<text text-anchor="middle" x="870" y="-210.2" font-family="Helvetica,sans-Serif" font-size="14.00">class = Plant</text>
</g>
<!-- 12150&#45;&gt;12151 -->
<g id="edge17" class="edge">
<title>12150&#45;&gt;12151</title>
<path fill="none" stroke="black" d="M870,-332.32C870,-324.42 870,-316.13 870,-307.98"/>
<polygon fill="black" stroke="black" points="873.5,-308.12 870,-298.12 866.5,-308.12 873.5,-308.12"/>
</g>
<!-- 15364 -->
<g id="node25" class="node">
<title>15364</title>
<path fill="#f7d6bf" stroke="black" d="M1216,-296.5C1216,-296.5 1074,-296.5 1074,-296.5 1068,-296.5 1062,-290.5 1062,-284.5 1062,-284.5 1062,-214.25 1062,-214.25 1062,-208.25 1068,-202.25 1074,-202.25 1074,-202.25 1216,-202.25 1216,-202.25 1222,-202.25 1228,-208.25 1228,-214.25 1228,-214.25 1228,-284.5 1228,-284.5 1228,-290.5 1222,-296.5 1216,-296.5"/>
<text text-anchor="middle" x="1145" y="-279.2" font-family="Helvetica,sans-Serif" font-size="14.00">10_U &lt;= 0.5</text>
<text text-anchor="middle" x="1145" y="-261.95" font-family="Helvetica,sans-Serif" font-size="14.00">entropy = 0.973</text>
<text text-anchor="middle" x="1145" y="-244.7" font-family="Helvetica,sans-Serif" font-size="14.00">samples = 2252</text>
<text text-anchor="middle" x="1145" y="-227.45" font-family="Helvetica,sans-Serif" font-size="14.00">value = [2105, 1423]</text>
<text text-anchor="middle" x="1145" y="-210.2" font-family="Helvetica,sans-Serif" font-size="14.00">class = Animal</text>
</g>
<!-- 12150&#45;&gt;15364 -->
<g id="edge24" class="edge">
<title>12150&#45;&gt;15364</title>
<path fill="none" stroke="black" d="M957.77,-337.69C987.71,-323.73 1021.28,-308.07 1051.65,-293.91"/>
<polygon fill="black" stroke="black" points="1052.85,-297.21 1060.44,-289.81 1049.89,-290.87 1052.85,-297.21"/>
</g>
<!-- 12152 -->
<g id="node19" class="node">
<title>12152</title>
<path fill="#b9dcf6" stroke="black" d="M856,-166.25C856,-166.25 714,-166.25 714,-166.25 708,-166.25 702,-160.25 702,-154.25 702,-154.25 702,-84 702,-84 702,-78 708,-72 714,-72 714,-72 856,-72 856,-72 862,-72 868,-78 868,-84 868,-84 868,-154.25 868,-154.25 868,-160.25 862,-166.25 856,-166.25"/>
<text text-anchor="middle" x="785" y="-148.95" font-family="Helvetica,sans-Serif" font-size="14.00">4_A &lt;= 0.5</text>
<text text-anchor="middle" x="785" y="-131.7" font-family="Helvetica,sans-Serif" font-size="14.00">entropy = 0.966</text>
<text text-anchor="middle" x="785" y="-114.45" font-family="Helvetica,sans-Serif" font-size="14.00">samples = 6713</text>
<text text-anchor="middle" x="785" y="-97.2" font-family="Helvetica,sans-Serif" font-size="14.00">value = [4161, 6439]</text>
<text text-anchor="middle" x="785" y="-79.95" font-family="Helvetica,sans-Serif" font-size="14.00">class = Plant</text>
</g>
<!-- 12151&#45;&gt;12152 -->
<g id="edge18" class="edge">
<title>12151&#45;&gt;12152</title>
<path fill="none" stroke="black" d="M839.31,-202.07C833.66,-193.54 827.7,-184.54 821.88,-175.77"/>
<polygon fill="black" stroke="black" points="824.92,-174.02 816.48,-167.62 819.09,-177.89 824.92,-174.02"/>
</g>
<!-- 14585 -->
<g id="node22" class="node">
<title>14585</title>
<path fill="#62b1ea" stroke="black" d="M1031.5,-166.25C1031.5,-166.25 898.5,-166.25 898.5,-166.25 892.5,-166.25 886.5,-160.25 886.5,-154.25 886.5,-154.25 886.5,-84 886.5,-84 886.5,-78 892.5,-72 898.5,-72 898.5,-72 1031.5,-72 1031.5,-72 1037.5,-72 1043.5,-78 1043.5,-84 1043.5,-84 1043.5,-154.25 1043.5,-154.25 1043.5,-160.25 1037.5,-166.25 1031.5,-166.25"/>
<text text-anchor="middle" x="965" y="-148.95" font-family="Helvetica,sans-Serif" font-size="14.00">22_U &lt;= 0.5</text>
<text text-anchor="middle" x="965" y="-131.7" font-family="Helvetica,sans-Serif" font-size="14.00">entropy = 0.664</text>
<text text-anchor="middle" x="965" y="-114.45" font-family="Helvetica,sans-Serif" font-size="14.00">samples = 2833</text>
<text text-anchor="middle" x="965" y="-97.2" font-family="Helvetica,sans-Serif" font-size="14.00">value = [781, 3741]</text>
<text text-anchor="middle" x="965" y="-79.95" font-family="Helvetica,sans-Serif" font-size="14.00">class = Plant</text>
</g>
<!-- 12151&#45;&gt;14585 -->
<g id="edge21" class="edge">
<title>12151&#45;&gt;14585</title>
<path fill="none" stroke="black" d="M904.3,-202.07C910.69,-193.45 917.42,-184.35 923.99,-175.49"/>
<polygon fill="black" stroke="black" points="926.71,-177.69 929.85,-167.57 921.09,-173.53 926.71,-177.69"/>
</g>
<!-- 12153 -->
<g id="node20" class="node">
<title>12153</title>
<path fill="#c0c0c0" stroke="black" d="M746,-36C746,-36 716,-36 716,-36 710,-36 704,-30 704,-24 704,-24 704,-12 704,-12 704,-6 710,0 716,0 716,0 746,0 746,0 752,0 758,-6 758,-12 758,-12 758,-24 758,-24 758,-30 752,-36 746,-36"/>
<text text-anchor="middle" x="731" y="-13.32" font-family="Helvetica,sans-Serif" font-size="14.00">(...)</text>
</g>
<!-- 12152&#45;&gt;12153 -->
<g id="edge19" class="edge">
<title>12152&#45;&gt;12153</title>
<path fill="none" stroke="black" d="M759.74,-71.75C754.98,-63.03 750.16,-54.16 745.85,-46.26"/>
<polygon fill="black" stroke="black" points="748.94,-44.61 741.08,-37.5 742.79,-47.96 748.94,-44.61"/>
</g>
<!-- 14054 -->
<g id="node21" class="node">
<title>14054</title>
<path fill="#c0c0c0" stroke="black" d="M818,-36C818,-36 788,-36 788,-36 782,-36 776,-30 776,-24 776,-24 776,-12 776,-12 776,-6 782,0 788,0 788,0 818,0 818,0 824,0 830,-6 830,-12 830,-12 830,-24 830,-24 830,-30 824,-36 818,-36"/>
<text text-anchor="middle" x="803" y="-13.32" font-family="Helvetica,sans-Serif" font-size="14.00">(...)</text>
</g>
<!-- 12152&#45;&gt;14054 -->
<g id="edge20" class="edge">
<title>12152&#45;&gt;14054</title>
<path fill="none" stroke="black" d="M793.42,-71.75C794.93,-63.42 796.47,-54.97 797.85,-47.34"/>
<polygon fill="black" stroke="black" points="801.27,-48.13 799.61,-37.66 794.38,-46.88 801.27,-48.13"/>
</g>
<!-- 14586 -->
<g id="node23" class="node">
<title>14586</title>
<path fill="#c0c0c0" stroke="black" d="M926,-36C926,-36 896,-36 896,-36 890,-36 884,-30 884,-24 884,-24 884,-12 884,-12 884,-6 890,0 896,0 896,0 926,0 926,0 932,0 938,-6 938,-12 938,-12 938,-24 938,-24 938,-30 932,-36 926,-36"/>
<text text-anchor="middle" x="911" y="-13.32" font-family="Helvetica,sans-Serif" font-size="14.00">(...)</text>
</g>
<!-- 14585&#45;&gt;14586 -->
<g id="edge22" class="edge">
<title>14585&#45;&gt;14586</title>
<path fill="none" stroke="black" d="M939.74,-71.75C934.98,-63.03 930.16,-54.16 925.85,-46.26"/>
<polygon fill="black" stroke="black" points="928.94,-44.61 921.08,-37.5 922.79,-47.96 928.94,-44.61"/>
</g>
<!-- 15269 -->
<g id="node24" class="node">
<title>15269</title>
<path fill="#c0c0c0" stroke="black" d="M998,-36C998,-36 968,-36 968,-36 962,-36 956,-30 956,-24 956,-24 956,-12 956,-12 956,-6 962,0 968,0 968,0 998,0 998,0 1004,0 1010,-6 1010,-12 1010,-12 1010,-24 1010,-24 1010,-30 1004,-36 998,-36"/>
<text text-anchor="middle" x="983" y="-13.32" font-family="Helvetica,sans-Serif" font-size="14.00">(...)</text>
</g>
<!-- 14585&#45;&gt;15269 -->
<g id="edge23" class="edge">
<title>14585&#45;&gt;15269</title>
<path fill="none" stroke="black" d="M973.42,-71.75C974.93,-63.42 976.47,-54.97 977.85,-47.34"/>
<polygon fill="black" stroke="black" points="981.27,-48.13 979.61,-37.66 974.38,-46.88 981.27,-48.13"/>
</g>
<!-- 15365 -->
<g id="node26" class="node">
<title>15365</title>
<path fill="#f5d0b5" stroke="black" d="M1216,-166.25C1216,-166.25 1074,-166.25 1074,-166.25 1068,-166.25 1062,-160.25 1062,-154.25 1062,-154.25 1062,-84 1062,-84 1062,-78 1068,-72 1074,-72 1074,-72 1216,-72 1216,-72 1222,-72 1228,-78 1228,-84 1228,-84 1228,-154.25 1228,-154.25 1228,-160.25 1222,-166.25 1216,-166.25"/>
<text text-anchor="middle" x="1145" y="-148.95" font-family="Helvetica,sans-Serif" font-size="14.00">20_C &lt;= 0.5</text>
<text text-anchor="middle" x="1145" y="-131.7" font-family="Helvetica,sans-Serif" font-size="14.00">entropy = 0.961</text>
<text text-anchor="middle" x="1145" y="-114.45" font-family="Helvetica,sans-Serif" font-size="14.00">samples = 1745</text>
<text text-anchor="middle" x="1145" y="-97.2" font-family="Helvetica,sans-Serif" font-size="14.00">value = [1681, 1050]</text>
<text text-anchor="middle" x="1145" y="-79.95" font-family="Helvetica,sans-Serif" font-size="14.00">class = Animal</text>
</g>
<!-- 15364&#45;&gt;15365 -->
<g id="edge25" class="edge">
<title>15364&#45;&gt;15365</title>
<path fill="none" stroke="black" d="M1145,-202.07C1145,-194.17 1145,-185.88 1145,-177.73"/>
<polygon fill="black" stroke="black" points="1148.5,-177.87 1145,-167.87 1141.5,-177.87 1148.5,-177.87"/>
</g>
<!-- 16228 -->
<g id="node29" class="node">
<title>16228</title>
<path fill="#fcf0e7" stroke="black" d="M1382,-166.25C1382,-166.25 1258,-166.25 1258,-166.25 1252,-166.25 1246,-160.25 1246,-154.25 1246,-154.25 1246,-84 1246,-84 1246,-78 1252,-72 1258,-72 1258,-72 1382,-72 1382,-72 1388,-72 1394,-78 1394,-84 1394,-84 1394,-154.25 1394,-154.25 1394,-160.25 1388,-166.25 1382,-166.25"/>
<text text-anchor="middle" x="1320" y="-148.95" font-family="Helvetica,sans-Serif" font-size="14.00">23_U &lt;= 0.5</text>
<text text-anchor="middle" x="1320" y="-131.7" font-family="Helvetica,sans-Serif" font-size="14.00">entropy = 0.997</text>
<text text-anchor="middle" x="1320" y="-114.45" font-family="Helvetica,sans-Serif" font-size="14.00">samples = 507</text>
<text text-anchor="middle" x="1320" y="-97.2" font-family="Helvetica,sans-Serif" font-size="14.00">value = [424, 373]</text>
<text text-anchor="middle" x="1320" y="-79.95" font-family="Helvetica,sans-Serif" font-size="14.00">class = Animal</text>
</g>
<!-- 15364&#45;&gt;16228 -->
<g id="edge28" class="edge">
<title>15364&#45;&gt;16228</title>
<path fill="none" stroke="black" d="M1208.18,-202.07C1220.99,-192.69 1234.55,-182.75 1247.64,-173.15"/>
<polygon fill="black" stroke="black" points="1249.4,-176.2 1255.4,-167.47 1245.26,-170.56 1249.4,-176.2"/>
</g>
<!-- 15366 -->
<g id="node27" class="node">
<title>15366</title>
<path fill="#c0c0c0" stroke="black" d="M1121,-36C1121,-36 1091,-36 1091,-36 1085,-36 1079,-30 1079,-24 1079,-24 1079,-12 1079,-12 1079,-6 1085,0 1091,0 1091,0 1121,0 1121,0 1127,0 1133,-6 1133,-12 1133,-12 1133,-24 1133,-24 1133,-30 1127,-36 1121,-36"/>
<text text-anchor="middle" x="1106" y="-13.32" font-family="Helvetica,sans-Serif" font-size="14.00">(...)</text>
</g>
<!-- 15365&#45;&gt;15366 -->
<g id="edge26" class="edge">
<title>15365&#45;&gt;15366</title>
<path fill="none" stroke="black" d="M1126.76,-71.75C1123.4,-63.22 1119.99,-54.57 1116.94,-46.8"/>
<polygon fill="black" stroke="black" points="1120.23,-45.61 1113.31,-37.58 1113.71,-48.17 1120.23,-45.61"/>
</g>
<!-- 16061 -->
<g id="node28" class="node">
<title>16061</title>
<path fill="#c0c0c0" stroke="black" d="M1193,-36C1193,-36 1163,-36 1163,-36 1157,-36 1151,-30 1151,-24 1151,-24 1151,-12 1151,-12 1151,-6 1157,0 1163,0 1163,0 1193,0 1193,0 1199,0 1205,-6 1205,-12 1205,-12 1205,-24 1205,-24 1205,-30 1199,-36 1193,-36"/>
<text text-anchor="middle" x="1178" y="-13.32" font-family="Helvetica,sans-Serif" font-size="14.00">(...)</text>
</g>
<!-- 15365&#45;&gt;16061 -->
<g id="edge27" class="edge">
<title>15365&#45;&gt;16061</title>
<path fill="none" stroke="black" d="M1160.44,-71.75C1163.24,-63.32 1166.09,-54.77 1168.66,-47.07"/>
<polygon fill="black" stroke="black" points="1171.97,-48.2 1171.8,-37.61 1165.33,-45.99 1171.97,-48.2"/>
</g>
<!-- 16229 -->
<g id="node30" class="node">
<title>16229</title>
<path fill="#c0c0c0" stroke="black" d="M1299,-36C1299,-36 1269,-36 1269,-36 1263,-36 1257,-30 1257,-24 1257,-24 1257,-12 1257,-12 1257,-6 1263,0 1269,0 1269,0 1299,0 1299,0 1305,0 1311,-6 1311,-12 1311,-12 1311,-24 1311,-24 1311,-30 1305,-36 1299,-36"/>
<text text-anchor="middle" x="1284" y="-13.32" font-family="Helvetica,sans-Serif" font-size="14.00">(...)</text>
</g>
<!-- 16228&#45;&gt;16229 -->
<g id="edge29" class="edge">
<title>16228&#45;&gt;16229</title>
<path fill="none" stroke="black" d="M1303.16,-71.75C1300.06,-63.22 1296.92,-54.57 1294.1,-46.8"/>
<polygon fill="black" stroke="black" points="1297.46,-45.8 1290.75,-37.6 1290.88,-48.19 1297.46,-45.8"/>
</g>
<!-- 16550 -->
<g id="node31" class="node">
<title>16550</title>
<path fill="#c0c0c0" stroke="black" d="M1371,-36C1371,-36 1341,-36 1341,-36 1335,-36 1329,-30 1329,-24 1329,-24 1329,-12 1329,-12 1329,-6 1335,0 1341,0 1341,0 1371,0 1371,0 1377,0 1383,-6 1383,-12 1383,-12 1383,-24 1383,-24 1383,-30 1377,-36 1371,-36"/>
<text text-anchor="middle" x="1356" y="-13.32" font-family="Helvetica,sans-Serif" font-size="14.00">(...)</text>
</g>
<!-- 16228&#45;&gt;16550 -->
<g id="edge30" class="edge">
<title>16228&#45;&gt;16550</title>
<path fill="none" stroke="black" d="M1336.84,-71.75C1339.94,-63.22 1343.08,-54.57 1345.9,-46.8"/>
<polygon fill="black" stroke="black" points="1349.12,-48.19 1349.25,-37.6 1342.54,-45.8 1349.12,-48.19"/>
</g>
</g>
</svg>
