<?xml version="1.0" encoding="UTF-8" standalone="no"?>
<!DOCTYPE svg PUBLIC "-//W3C//DTD SVG 1.1//EN"
 "http://www.w3.org/Graphics/SVG/1.1/DTD/svg11.dtd">
<!-- Generated by graphviz version 12.0.0 (20240803.0821)
 -->
<!-- Title: Tree Pages: 1 -->
<svg width="1410pt" height="565pt"
 viewBox="0.00 0.00 1409.50 565.00" xmlns="http://www.w3.org/2000/svg" xmlns:xlink="http://www.w3.org/1999/xlink">
<g id="graph0" class="graph" transform="scale(1 1) rotate(0) translate(4 561)">
<title>Tree</title>
<polygon fill="white" stroke="none" points="-4,4 -4,-561 1405.5,-561 1405.5,4 -4,4"/>
<!-- 0 -->
<g id="node1" class="node">
<title>0</title>
<path fill="#feffff" stroke="black" d="M781,-557C781,-557 621,-557 621,-557 615,-557 609,-551 609,-545 609,-545 609,-474.75 609,-474.75 609,-468.75 615,-462.75 621,-462.75 621,-462.75 781,-462.75 781,-462.75 787,-462.75 793,-468.75 793,-474.75 793,-474.75 793,-545 793,-545 793,-551 787,-557 781,-557"/>
<text text-anchor="middle" x="701" y="-539.7" font-family="Helvetica,sans-Serif" font-size="14.00">1_U &lt;= 0.5</text>
<text text-anchor="middle" x="701" y="-522.45" font-family="Helvetica,sans-Serif" font-size="14.00">entropy = 1.0</text>
<text text-anchor="middle" x="701" y="-505.2" font-family="Helvetica,sans-Serif" font-size="14.00">samples = 38127</text>
<text text-anchor="middle" x="701" y="-487.95" font-family="Helvetica,sans-Serif" font-size="14.00">value = [30115, 30230]</text>
<text text-anchor="middle" x="701" y="-470.7" font-family="Helvetica,sans-Serif" font-size="14.00">class = Plant</text>
</g>
<!-- 1 -->
<g id="node2" class="node">
<title>1</title>
<path fill="#f7dac5" stroke="black" d="M608,-426.75C608,-426.75 448,-426.75 448,-426.75 442,-426.75 436,-420.75 436,-414.75 436,-414.75 436,-344.5 436,-344.5 436,-338.5 442,-332.5 448,-332.5 448,-332.5 608,-332.5 608,-332.5 614,-332.5 620,-338.5 620,-344.5 620,-344.5 620,-414.75 620,-414.75 620,-420.75 614,-426.75 608,-426.75"/>
<text text-anchor="middle" x="528" y="-409.45" font-family="Helvetica,sans-Serif" font-size="14.00">5_G &lt;= 0.5</text>
<text text-anchor="middle" x="528" y="-392.2" font-family="Helvetica,sans-Serif" font-size="14.00">entropy = 0.979</text>
<text text-anchor="middle" x="528" y="-374.95" font-family="Helvetica,sans-Serif" font-size="14.00">samples = 17772</text>
<text text-anchor="middle" x="528" y="-357.7" font-family="Helvetica,sans-Serif" font-size="14.00">value = [16413, 11643]</text>
<text text-anchor="middle" x="528" y="-340.45" font-family="Helvetica,sans-Serif" font-size="14.00">class = Animal</text>
</g>
<!-- 0&#45;&gt;1 -->
<g id="edge1" class="edge">
<title>0&#45;&gt;1</title>
<path fill="none" stroke="black" d="M638.54,-462.57C626,-453.28 612.73,-443.44 599.9,-433.93"/>
<polygon fill="black" stroke="black" points="601.99,-431.12 591.87,-427.97 597.82,-436.74 601.99,-431.12"/>
<text text-anchor="middle" x="594.33" y="-447.13" font-family="Helvetica,sans-Serif" font-size="14.00">True</text>
</g>
<!-- 9488 -->
<g id="node17" class="node">
<title>9488</title>
<path fill="#cbe5f8" stroke="black" d="M974,-426.75C974,-426.75 814,-426.75 814,-426.75 808,-426.75 802,-420.75 802,-414.75 802,-414.75 802,-344.5 802,-344.5 802,-338.5 808,-332.5 814,-332.5 814,-332.5 974,-332.5 974,-332.5 980,-332.5 986,-338.5 986,-344.5 986,-344.5 986,-414.75 986,-414.75 986,-420.75 980,-426.75 974,-426.75"/>
<text text-anchor="middle" x="894" y="-409.45" font-family="Helvetica,sans-Serif" font-size="14.00">23_A &lt;= 0.5</text>
<text text-anchor="middle" x="894" y="-392.2" font-family="Helvetica,sans-Serif" font-size="14.00">entropy = 0.983</text>
<text text-anchor="middle" x="894" y="-374.95" font-family="Helvetica,sans-Serif" font-size="14.00">samples = 20355</text>
<text text-anchor="middle" x="894" y="-357.7" font-family="Helvetica,sans-Serif" font-size="14.00">value = [13702, 18587]</text>
<text text-anchor="middle" x="894" y="-340.45" font-family="Helvetica,sans-Serif" font-size="14.00">class = Plant</text>
</g>
<!-- 0&#45;&gt;9488 -->
<g id="edge16" class="edge">
<title>0&#45;&gt;9488</title>
<path fill="none" stroke="black" d="M770.95,-462.39C785.11,-452.98 800.1,-443.03 814.55,-433.42"/>
<polygon fill="black" stroke="black" points="816.31,-436.45 822.7,-428 812.44,-430.62 816.31,-436.45"/>
<text text-anchor="middle" x="819.02" y="-447" font-family="Helvetica,sans-Serif" font-size="14.00">False</text>
</g>
<!-- 2 -->
<g id="node3" class="node">
<title>2</title>
<path fill="#f9e3d3" stroke="black" d="M342.5,-296.5C342.5,-296.5 191.5,-296.5 191.5,-296.5 185.5,-296.5 179.5,-290.5 179.5,-284.5 179.5,-284.5 179.5,-214.25 179.5,-214.25 179.5,-208.25 185.5,-202.25 191.5,-202.25 191.5,-202.25 342.5,-202.25 342.5,-202.25 348.5,-202.25 354.5,-208.25 354.5,-214.25 354.5,-214.25 354.5,-284.5 354.5,-284.5 354.5,-290.5 348.5,-296.5 342.5,-296.5"/>
<text text-anchor="middle" x="267" y="-279.2" font-family="Helvetica,sans-Serif" font-size="14.00">19_C &lt;= 0.5</text>
<text text-anchor="middle" x="267" y="-261.95" font-family="Helvetica,sans-Serif" font-size="14.00">entropy = 0.989</text>
<text text-anchor="middle" x="267" y="-244.7" font-family="Helvetica,sans-Serif" font-size="14.00">samples = 12966</text>
<text text-anchor="middle" x="267" y="-227.45" font-family="Helvetica,sans-Serif" font-size="14.00">value = [11525, 8968]</text>
<text text-anchor="middle" x="267" y="-210.2" font-family="Helvetica,sans-Serif" font-size="14.00">class = Animal</text>
</g>
<!-- 1&#45;&gt;2 -->
<g id="edge2" class="edge">
<title>1&#45;&gt;2</title>
<path fill="none" stroke="black" d="M435.61,-333.23C412.75,-321.99 388.17,-309.92 365.05,-298.55"/>
<polygon fill="black" stroke="black" points="366.76,-295.5 356.24,-294.23 363.68,-301.78 366.76,-295.5"/>
</g>
<!-- 6849 -->
<g id="node10" class="node">
<title>6849</title>
<path fill="#f3c6a5" stroke="black" d="M599,-296.5C599,-296.5 457,-296.5 457,-296.5 451,-296.5 445,-290.5 445,-284.5 445,-284.5 445,-214.25 445,-214.25 445,-208.25 451,-202.25 457,-202.25 457,-202.25 599,-202.25 599,-202.25 605,-202.25 611,-208.25 611,-214.25 611,-214.25 611,-284.5 611,-284.5 611,-290.5 605,-296.5 599,-296.5"/>
<text text-anchor="middle" x="528" y="-279.2" font-family="Helvetica,sans-Serif" font-size="14.00">23_C &lt;= 0.5</text>
<text text-anchor="middle" x="528" y="-261.95" font-family="Helvetica,sans-Serif" font-size="14.00">entropy = 0.937</text>
<text text-anchor="middle" x="528" y="-244.7" font-family="Helvetica,sans-Serif" font-size="14.00">samples = 4806</text>
<text text-anchor="middle" x="528" y="-227.45" font-family="Helvetica,sans-Serif" font-size="14.00">value = [4888, 2675]</text>
<text text-anchor="middle" x="528" y="-210.2" font-family="Helvetica,sans-Serif" font-size="14.00">class = Animal</text>
</g>
<!-- 1&#45;&gt;6849 -->
<g id="edge9" class="edge">
<title>1&#45;&gt;6849</title>
<path fill="none" stroke="black" d="M528,-332.32C528,-324.42 528,-316.13 528,-307.98"/>
<polygon fill="black" stroke="black" points="531.5,-308.12 528,-298.12 524.5,-308.12 531.5,-308.12"/>
</g>
<!-- 3 -->
<g id="node4" class="node">
<title>3</title>
<path fill="#f5d0b5" stroke="black" d="M154,-166.25C154,-166.25 12,-166.25 12,-166.25 6,-166.25 0,-160.25 0,-154.25 0,-154.25 0,-84 0,-84 0,-78 6,-72 12,-72 12,-72 154,-72 154,-72 160,-72 166,-78 166,-84 166,-84 166,-154.25 166,-154.25 166,-160.25 160,-166.25 154,-166.25"/>
<text text-anchor="middle" x="83" y="-148.95" font-family="Helvetica,sans-Serif" font-size="14.00">18_U &lt;= 0.5</text>
<text text-anchor="middle" x="83" y="-131.7" font-family="Helvetica,sans-Serif" font-size="14.00">entropy = 0.961</text>
<text text-anchor="middle" x="83" y="-114.45" font-family="Helvetica,sans-Serif" font-size="14.00">samples = 9079</text>
<text text-anchor="middle" x="83" y="-97.2" font-family="Helvetica,sans-Serif" font-size="14.00">value = [8834, 5527]</text>
<text text-anchor="middle" x="83" y="-79.95" font-family="Helvetica,sans-Serif" font-size="14.00">class = Animal</text>
</g>
<!-- 2&#45;&gt;3 -->
<g id="edge3" class="edge">
<title>2&#45;&gt;3</title>
<path fill="none" stroke="black" d="M200.31,-201.89C186.94,-192.57 172.8,-182.72 159.14,-173.19"/>
<polygon fill="black" stroke="black" points="161.22,-170.38 151.01,-167.53 157.21,-176.12 161.22,-170.38"/>
</g>
<!-- 5118 -->
<g id="node7" class="node">
<title>5118</title>
<path fill="#d4eaf9" stroke="black" d="M338,-166.25C338,-166.25 196,-166.25 196,-166.25 190,-166.25 184,-160.25 184,-154.25 184,-154.25 184,-84 184,-84 184,-78 190,-72 196,-72 196,-72 338,-72 338,-72 344,-72 350,-78 350,-84 350,-84 350,-154.25 350,-154.25 350,-160.25 344,-166.25 338,-166.25"/>
<text text-anchor="middle" x="267" y="-148.95" font-family="Helvetica,sans-Serif" font-size="14.00">4_A &lt;= 0.5</text>
<text text-anchor="middle" x="267" y="-131.7" font-family="Helvetica,sans-Serif" font-size="14.00">entropy = 0.989</text>
<text text-anchor="middle" x="267" y="-114.45" font-family="Helvetica,sans-Serif" font-size="14.00">samples = 3887</text>
<text text-anchor="middle" x="267" y="-97.2" font-family="Helvetica,sans-Serif" font-size="14.00">value = [2691, 3441]</text>
<text text-anchor="middle" x="267" y="-79.95" font-family="Helvetica,sans-Serif" font-size="14.00">class = Plant</text>
</g>
<!-- 2&#45;&gt;5118 -->
<g id="edge6" class="edge">
<title>2&#45;&gt;5118</title>
<path fill="none" stroke="black" d="M267,-202.07C267,-194.17 267,-185.88 267,-177.73"/>
<polygon fill="black" stroke="black" points="270.5,-177.87 267,-167.87 263.5,-177.87 270.5,-177.87"/>
</g>
<!-- 4 -->
<g id="node5" class="node">
<title>4</title>
<path fill="#c0c0c0" stroke="black" d="M62,-36C62,-36 32,-36 32,-36 26,-36 20,-30 20,-24 20,-24 20,-12 20,-12 20,-6 26,0 32,0 32,0 62,0 62,0 68,0 74,-6 74,-12 74,-12 74,-24 74,-24 74,-30 68,-36 62,-36"/>
<text text-anchor="middle" x="47" y="-13.32" font-family="Helvetica,sans-Serif" font-size="14.00">(...)</text>
</g>
<!-- 3&#45;&gt;4 -->
<g id="edge4" class="edge">
<title>3&#45;&gt;4</title>
<path fill="none" stroke="black" d="M66.16,-71.75C63.06,-63.22 59.92,-54.57 57.1,-46.8"/>
<polygon fill="black" stroke="black" points="60.46,-45.8 53.75,-37.6 53.88,-48.19 60.46,-45.8"/>
</g>
<!-- 3761 -->
<g id="node6" class="node">
<title>3761</title>
<path fill="#c0c0c0" stroke="black" d="M134,-36C134,-36 104,-36 104,-36 98,-36 92,-30 92,-24 92,-24 92,-12 92,-12 92,-6 98,0 104,0 104,0 134,0 134,0 140,0 146,-6 146,-12 146,-12 146,-24 146,-24 146,-30 140,-36 134,-36"/>
<text text-anchor="middle" x="119" y="-13.32" font-family="Helvetica,sans-Serif" font-size="14.00">(...)</text>
</g>
<!-- 3&#45;&gt;3761 -->
<g id="edge5" class="edge">
<title>3&#45;&gt;3761</title>
<path fill="none" stroke="black" d="M99.84,-71.75C102.94,-63.22 106.08,-54.57 108.9,-46.8"/>
<polygon fill="black" stroke="black" points="112.12,-48.19 112.25,-37.6 105.54,-45.8 112.12,-48.19"/>
</g>
<!-- 5119 -->
<g id="node8" class="node">
<title>5119</title>
<path fill="#c0c0c0" stroke="black" d="M243,-36C243,-36 213,-36 213,-36 207,-36 201,-30 201,-24 201,-24 201,-12 201,-12 201,-6 207,0 213,0 213,0 243,0 243,0 249,0 255,-6 255,-12 255,-12 255,-24 255,-24 255,-30 249,-36 243,-36"/>
<text text-anchor="middle" x="228" y="-13.32" font-family="Helvetica,sans-Serif" font-size="14.00">(...)</text>
</g>
<!-- 5118&#45;&gt;5119 -->
<g id="edge7" class="edge">
<title>5118&#45;&gt;5119</title>
<path fill="none" stroke="black" d="M248.76,-71.75C245.4,-63.22 241.99,-54.57 238.94,-46.8"/>
<polygon fill="black" stroke="black" points="242.23,-45.61 235.31,-37.58 235.71,-48.17 242.23,-45.61"/>
</g>
<!-- 6490 -->
<g id="node9" class="node">
<title>6490</title>
<path fill="#c0c0c0" stroke="black" d="M315,-36C315,-36 285,-36 285,-36 279,-36 273,-30 273,-24 273,-24 273,-12 273,-12 273,-6 279,0 285,0 285,0 315,0 315,0 321,0 327,-6 327,-12 327,-12 327,-24 327,-24 327,-30 321,-36 315,-36"/>
<text text-anchor="middle" x="300" y="-13.32" font-family="Helvetica,sans-Serif" font-size="14.00">(...)</text>
</g>
<!-- 5118&#45;&gt;6490 -->
<g id="edge8" class="edge">
<title>5118&#45;&gt;6490</title>
<path fill="none" stroke="black" d="M282.44,-71.75C285.24,-63.32 288.09,-54.77 290.66,-47.07"/>
<polygon fill="black" stroke="black" points="293.97,-48.2 293.8,-37.61 287.33,-45.99 293.97,-48.2"/>
</g>
<!-- 6850 -->
<g id="node11" class="node">
<title>6850</title>
<path fill="#f4c8a9" stroke="black" d="M522,-166.25C522,-166.25 380,-166.25 380,-166.25 374,-166.25 368,-160.25 368,-154.25 368,-154.25 368,-84 368,-84 368,-78 374,-72 380,-72 380,-72 522,-72 522,-72 528,-72 534,-78 534,-84 534,-84 534,-154.25 534,-154.25 534,-160.25 528,-166.25 522,-166.25"/>
<text text-anchor="middle" x="451" y="-148.95" font-family="Helvetica,sans-Serif" font-size="14.00">10_A &lt;= 0.5</text>
<text text-anchor="middle" x="451" y="-131.7" font-family="Helvetica,sans-Serif" font-size="14.00">entropy = 0.944</text>
<text text-anchor="middle" x="451" y="-114.45" font-family="Helvetica,sans-Serif" font-size="14.00">samples = 4544</text>
<text text-anchor="middle" x="451" y="-97.2" font-family="Helvetica,sans-Serif" font-size="14.00">value = [4561, 2582]</text>
<text text-anchor="middle" x="451" y="-79.95" font-family="Helvetica,sans-Serif" font-size="14.00">class = Animal</text>
</g>
<!-- 6849&#45;&gt;6850 -->
<g id="edge10" class="edge">
<title>6849&#45;&gt;6850</title>
<path fill="none" stroke="black" d="M500.2,-202.07C495.13,-193.63 489.79,-184.74 484.57,-176.05"/>
<polygon fill="black" stroke="black" points="487.69,-174.43 479.54,-167.66 481.68,-178.03 487.69,-174.43"/>
</g>
<!-- 9377 -->
<g id="node14" class="node">
<title>9377</title>
<path fill="#eca571" stroke="black" d="M679.5,-166.25C679.5,-166.25 564.5,-166.25 564.5,-166.25 558.5,-166.25 552.5,-160.25 552.5,-154.25 552.5,-154.25 552.5,-84 552.5,-84 552.5,-78 558.5,-72 564.5,-72 564.5,-72 679.5,-72 679.5,-72 685.5,-72 691.5,-78 691.5,-84 691.5,-84 691.5,-154.25 691.5,-154.25 691.5,-160.25 685.5,-166.25 679.5,-166.25"/>
<text text-anchor="middle" x="622" y="-148.95" font-family="Helvetica,sans-Serif" font-size="14.00">24_C &lt;= 0.5</text>
<text text-anchor="middle" x="622" y="-131.7" font-family="Helvetica,sans-Serif" font-size="14.00">entropy = 0.763</text>
<text text-anchor="middle" x="622" y="-114.45" font-family="Helvetica,sans-Serif" font-size="14.00">samples = 262</text>
<text text-anchor="middle" x="622" y="-97.2" font-family="Helvetica,sans-Serif" font-size="14.00">value = [327, 93]</text>
<text text-anchor="middle" x="622" y="-79.95" font-family="Helvetica,sans-Serif" font-size="14.00">class = Animal</text>
</g>
<!-- 6849&#45;&gt;9377 -->
<g id="edge13" class="edge">
<title>6849&#45;&gt;9377</title>
<path fill="none" stroke="black" d="M561.94,-202.07C568.26,-193.45 574.92,-184.35 581.42,-175.49"/>
<polygon fill="black" stroke="black" points="584.13,-177.71 587.22,-167.58 578.48,-173.58 584.13,-177.71"/>
</g>
<!-- 6851 -->
<g id="node12" class="node">
<title>6851</title>
<path fill="#c0c0c0" stroke="black" d="M407,-36C407,-36 377,-36 377,-36 371,-36 365,-30 365,-24 365,-24 365,-12 365,-12 365,-6 371,0 377,0 377,0 407,0 407,0 413,0 419,-6 419,-12 419,-12 419,-24 419,-24 419,-30 413,-36 407,-36"/>
<text text-anchor="middle" x="392" y="-13.32" font-family="Helvetica,sans-Serif" font-size="14.00">(...)</text>
</g>
<!-- 6850&#45;&gt;6851 -->
<g id="edge11" class="edge">
<title>6850&#45;&gt;6851</title>
<path fill="none" stroke="black" d="M423.4,-71.75C418.15,-62.93 412.81,-53.96 408.06,-45.99"/>
<polygon fill="black" stroke="black" points="411.12,-44.28 403,-37.47 405.1,-47.86 411.12,-44.28"/>
</g>
<!-- 8770 -->
<g id="node13" class="node">
<title>8770</title>
<path fill="#c0c0c0" stroke="black" d="M479,-36C479,-36 449,-36 449,-36 443,-36 437,-30 437,-24 437,-24 437,-12 437,-12 437,-6 443,0 449,0 449,0 479,0 479,0 485,0 491,-6 491,-12 491,-12 491,-24 491,-24 491,-30 485,-36 479,-36"/>
<text text-anchor="middle" x="464" y="-13.32" font-family="Helvetica,sans-Serif" font-size="14.00">(...)</text>
</g>
<!-- 6850&#45;&gt;8770 -->
<g id="edge12" class="edge">
<title>6850&#45;&gt;8770</title>
<path fill="none" stroke="black" d="M457.08,-71.75C458.17,-63.42 459.28,-54.97 460.28,-47.34"/>
<polygon fill="black" stroke="black" points="463.72,-48.04 461.55,-37.67 456.78,-47.13 463.72,-48.04"/>
</g>
<!-- 9378 -->
<g id="node15" class="node">
<title>9378</title>
<path fill="#c0c0c0" stroke="black" d="M583,-36C583,-36 553,-36 553,-36 547,-36 541,-30 541,-24 541,-24 541,-12 541,-12 541,-6 547,0 553,0 553,0 583,0 583,0 589,0 595,-6 595,-12 595,-12 595,-24 595,-24 595,-30 589,-36 583,-36"/>
<text text-anchor="middle" x="568" y="-13.32" font-family="Helvetica,sans-Serif" font-size="14.00">(...)</text>
</g>
<!-- 9377&#45;&gt;9378 -->
<g id="edge14" class="edge">
<title>9377&#45;&gt;9378</title>
<path fill="none" stroke="black" d="M596.74,-71.75C591.98,-63.03 587.16,-54.16 582.85,-46.26"/>
<polygon fill="black" stroke="black" points="585.94,-44.61 578.08,-37.5 579.79,-47.96 585.94,-44.61"/>
</g>
<!-- 9469 -->
<g id="node16" class="node">
<title>9469</title>
<path fill="#c0c0c0" stroke="black" d="M655,-36C655,-36 625,-36 625,-36 619,-36 613,-30 613,-24 613,-24 613,-12 613,-12 613,-6 619,0 625,0 625,0 655,0 655,0 661,0 667,-6 667,-12 667,-12 667,-24 667,-24 667,-30 661,-36 655,-36"/>
<text text-anchor="middle" x="640" y="-13.32" font-family="Helvetica,sans-Serif" font-size="14.00">(...)</text>
</g>
<!-- 9377&#45;&gt;9469 -->
<g id="edge15" class="edge">
<title>9377&#45;&gt;9469</title>
<path fill="none" stroke="black" d="M630.42,-71.75C631.93,-63.42 633.47,-54.97 634.85,-47.34"/>
<polygon fill="black" stroke="black" points="638.27,-48.13 636.61,-37.66 631.38,-46.88 638.27,-48.13"/>
</g>
<!-- 9489 -->
<g id="node18" class="node">
<title>9489</title>
<path fill="#c3e1f7" stroke="black" d="M974,-296.5C974,-296.5 814,-296.5 814,-296.5 808,-296.5 802,-290.5 802,-284.5 802,-284.5 802,-214.25 802,-214.25 802,-208.25 808,-202.25 814,-202.25 814,-202.25 974,-202.25 974,-202.25 980,-202.25 986,-208.25 986,-214.25 986,-214.25 986,-284.5 986,-284.5 986,-290.5 980,-296.5 974,-296.5"/>
<text text-anchor="middle" x="894" y="-279.2" font-family="Helvetica,sans-Serif" font-size="14.00">9_G &lt;= 0.5</text>
<text text-anchor="middle" x="894" y="-261.95" font-family="Helvetica,sans-Serif" font-size="14.00">entropy = 0.977</text>
<text text-anchor="middle" x="894" y="-244.7" font-family="Helvetica,sans-Serif" font-size="14.00">samples = 19682</text>
<text text-anchor="middle" x="894" y="-227.45" font-family="Helvetica,sans-Serif" font-size="14.00">value = [12838, 18372]</text>
<text text-anchor="middle" x="894" y="-210.2" font-family="Helvetica,sans-Serif" font-size="14.00">class = Plant</text>
</g>
<!-- 9488&#45;&gt;9489 -->
<g id="edge17" class="edge">
<title>9488&#45;&gt;9489</title>
<path fill="none" stroke="black" d="M894,-332.32C894,-324.42 894,-316.13 894,-307.98"/>
<polygon fill="black" stroke="black" points="897.5,-308.12 894,-298.12 890.5,-308.12 897.5,-308.12"/>
</g>
<!-- 16686 -->
<g id="node25" class="node">
<title>16686</title>
<path fill="#eba06a" stroke="black" d="M1232,-296.5C1232,-296.5 1108,-296.5 1108,-296.5 1102,-296.5 1096,-290.5 1096,-284.5 1096,-284.5 1096,-214.25 1096,-214.25 1096,-208.25 1102,-202.25 1108,-202.25 1108,-202.25 1232,-202.25 1232,-202.25 1238,-202.25 1244,-208.25 1244,-214.25 1244,-214.25 1244,-284.5 1244,-284.5 1244,-290.5 1238,-296.5 1232,-296.5"/>
<text text-anchor="middle" x="1170" y="-279.2" font-family="Helvetica,sans-Serif" font-size="14.00">18_A &lt;= 0.5</text>
<text text-anchor="middle" x="1170" y="-261.95" font-family="Helvetica,sans-Serif" font-size="14.00">entropy = 0.72</text>
<text text-anchor="middle" x="1170" y="-244.7" font-family="Helvetica,sans-Serif" font-size="14.00">samples = 673</text>
<text text-anchor="middle" x="1170" y="-227.45" font-family="Helvetica,sans-Serif" font-size="14.00">value = [864, 215]</text>
<text text-anchor="middle" x="1170" y="-210.2" font-family="Helvetica,sans-Serif" font-size="14.00">class = Animal</text>
</g>
<!-- 9488&#45;&gt;16686 -->
<g id="edge24" class="edge">
<title>9488&#45;&gt;16686</title>
<path fill="none" stroke="black" d="M986.29,-335.74C1018.39,-320.83 1054.21,-304.18 1085.63,-289.58"/>
<polygon fill="black" stroke="black" points="1086.7,-292.94 1094.3,-285.55 1083.75,-286.59 1086.7,-292.94"/>
</g>
<!-- 9490 -->
<g id="node19" class="node">
<title>9490</title>
<path fill="#deeefb" stroke="black" d="M882,-166.25C882,-166.25 722,-166.25 722,-166.25 716,-166.25 710,-160.25 710,-154.25 710,-154.25 710,-84 710,-84 710,-78 716,-72 722,-72 722,-72 882,-72 882,-72 888,-72 894,-78 894,-84 894,-84 894,-154.25 894,-154.25 894,-160.25 888,-166.25 882,-166.25"/>
<text text-anchor="middle" x="802" y="-148.95" font-family="Helvetica,sans-Serif" font-size="14.00">23_C &lt;= 0.5</text>
<text text-anchor="middle" x="802" y="-131.7" font-family="Helvetica,sans-Serif" font-size="14.00">entropy = 0.994</text>
<text text-anchor="middle" x="802" y="-114.45" font-family="Helvetica,sans-Serif" font-size="14.00">samples = 14115</text>
<text text-anchor="middle" x="802" y="-97.2" font-family="Helvetica,sans-Serif" font-size="14.00">value = [10213, 12284]</text>
<text text-anchor="middle" x="802" y="-79.95" font-family="Helvetica,sans-Serif" font-size="14.00">class = Plant</text>
</g>
<!-- 9489&#45;&gt;9490 -->
<g id="edge18" class="edge">
<title>9489&#45;&gt;9490</title>
<path fill="none" stroke="black" d="M860.79,-202.07C854.6,-193.45 848.07,-184.35 841.71,-175.49"/>
<polygon fill="black" stroke="black" points="844.72,-173.67 836.05,-167.59 839.03,-177.75 844.72,-173.67"/>
</g>
<!-- 14729 -->
<g id="node22" class="node">
<title>14729</title>
<path fill="#8ec7f0" stroke="black" d="M1066,-166.25C1066,-166.25 924,-166.25 924,-166.25 918,-166.25 912,-160.25 912,-154.25 912,-154.25 912,-84 912,-84 912,-78 918,-72 924,-72 924,-72 1066,-72 1066,-72 1072,-72 1078,-78 1078,-84 1078,-84 1078,-154.25 1078,-154.25 1078,-160.25 1072,-166.25 1066,-166.25"/>
<text text-anchor="middle" x="995" y="-148.95" font-family="Helvetica,sans-Serif" font-size="14.00">8_U &lt;= 0.5</text>
<text text-anchor="middle" x="995" y="-131.7" font-family="Helvetica,sans-Serif" font-size="14.00">entropy = 0.883</text>
<text text-anchor="middle" x="995" y="-114.45" font-family="Helvetica,sans-Serif" font-size="14.00">samples = 5567</text>
<text text-anchor="middle" x="995" y="-97.2" font-family="Helvetica,sans-Serif" font-size="14.00">value = [2625, 6088]</text>
<text text-anchor="middle" x="995" y="-79.95" font-family="Helvetica,sans-Serif" font-size="14.00">class = Plant</text>
</g>
<!-- 9489&#45;&gt;14729 -->
<g id="edge21" class="edge">
<title>9489&#45;&gt;14729</title>
<path fill="none" stroke="black" d="M930.46,-202.07C937.33,-193.36 944.57,-184.16 951.62,-175.21"/>
<polygon fill="black" stroke="black" points="954.22,-177.57 957.65,-167.55 948.72,-173.24 954.22,-177.57"/>
</g>
<!-- 9491 -->
<g id="node20" class="node">
<title>9491</title>
<path fill="#c0c0c0" stroke="black" d="M769,-36C769,-36 739,-36 739,-36 733,-36 727,-30 727,-24 727,-24 727,-12 727,-12 727,-6 733,0 739,0 739,0 769,0 769,0 775,0 781,-6 781,-12 781,-12 781,-24 781,-24 781,-30 775,-36 769,-36"/>
<text text-anchor="middle" x="754" y="-13.32" font-family="Helvetica,sans-Serif" font-size="14.00">(...)</text>
</g>
<!-- 9490&#45;&gt;9491 -->
<g id="edge19" class="edge">
<title>9490&#45;&gt;9491</title>
<path fill="none" stroke="black" d="M779.55,-71.75C775.37,-63.12 771.12,-54.36 767.33,-46.53"/>
<polygon fill="black" stroke="black" points="770.48,-45.01 762.98,-37.53 764.18,-48.06 770.48,-45.01"/>
</g>
<!-- 14584 -->
<g id="node21" class="node">
<title>14584</title>
<path fill="#c0c0c0" stroke="black" d="M841,-36C841,-36 811,-36 811,-36 805,-36 799,-30 799,-24 799,-24 799,-12 799,-12 799,-6 805,0 811,0 811,0 841,0 841,0 847,0 853,-6 853,-12 853,-12 853,-24 853,-24 853,-30 847,-36 841,-36"/>
<text text-anchor="middle" x="826" y="-13.32" font-family="Helvetica,sans-Serif" font-size="14.00">(...)</text>
</g>
<!-- 9490&#45;&gt;14584 -->
<g id="edge20" class="edge">
<title>9490&#45;&gt;14584</title>
<path fill="none" stroke="black" d="M813.23,-71.75C815.24,-63.42 817.29,-54.97 819.14,-47.34"/>
<polygon fill="black" stroke="black" points="822.53,-48.19 821.49,-37.64 815.73,-46.54 822.53,-48.19"/>
</g>
<!-- 14730 -->
<g id="node23" class="node">
<title>14730</title>
<path fill="#c0c0c0" stroke="black" d="M953,-36C953,-36 923,-36 923,-36 917,-36 911,-30 911,-24 911,-24 911,-12 911,-12 911,-6 917,0 923,0 923,0 953,0 953,0 959,0 965,-6 965,-12 965,-12 965,-24 965,-24 965,-30 959,-36 953,-36"/>
<text text-anchor="middle" x="938" y="-13.32" font-family="Helvetica,sans-Serif" font-size="14.00">(...)</text>
</g>
<!-- 14729&#45;&gt;14730 -->
<g id="edge22" class="edge">
<title>14729&#45;&gt;14730</title>
<path fill="none" stroke="black" d="M968.34,-71.75C963.26,-62.93 958.1,-53.96 953.52,-45.99"/>
<polygon fill="black" stroke="black" points="956.65,-44.41 948.63,-37.48 950.58,-47.9 956.65,-44.41"/>
</g>
<!-- 15963 -->
<g id="node24" class="node">
<title>15963</title>
<path fill="#c0c0c0" stroke="black" d="M1025,-36C1025,-36 995,-36 995,-36 989,-36 983,-30 983,-24 983,-24 983,-12 983,-12 983,-6 989,0 995,0 995,0 1025,0 1025,0 1031,0 1037,-6 1037,-12 1037,-12 1037,-24 1037,-24 1037,-30 1031,-36 1025,-36"/>
<text text-anchor="middle" x="1010" y="-13.32" font-family="Helvetica,sans-Serif" font-size="14.00">(...)</text>
</g>
<!-- 14729&#45;&gt;15963 -->
<g id="edge23" class="edge">
<title>14729&#45;&gt;15963</title>
<path fill="none" stroke="black" d="M1002.02,-71.75C1003.28,-63.42 1004.56,-54.97 1005.71,-47.34"/>
<polygon fill="black" stroke="black" points="1009.14,-48.08 1007.17,-37.67 1002.22,-47.03 1009.14,-48.08"/>
</g>
<!-- 16687 -->
<g id="node26" class="node">
<title>16687</title>
<path fill="#eeac7d" stroke="black" d="M1232,-166.25C1232,-166.25 1108,-166.25 1108,-166.25 1102,-166.25 1096,-160.25 1096,-154.25 1096,-154.25 1096,-84 1096,-84 1096,-78 1102,-72 1108,-72 1108,-72 1232,-72 1232,-72 1238,-72 1244,-78 1244,-84 1244,-84 1244,-154.25 1244,-154.25 1244,-160.25 1238,-166.25 1232,-166.25"/>
<text text-anchor="middle" x="1170" y="-148.95" font-family="Helvetica,sans-Serif" font-size="14.00">13_C &lt;= 0.5</text>
<text text-anchor="middle" x="1170" y="-131.7" font-family="Helvetica,sans-Serif" font-size="14.00">entropy = 0.819</text>
<text text-anchor="middle" x="1170" y="-114.45" font-family="Helvetica,sans-Serif" font-size="14.00">samples = 432</text>
<text text-anchor="middle" x="1170" y="-97.2" font-family="Helvetica,sans-Serif" font-size="14.00">value = [518, 177]</text>
<text text-anchor="middle" x="1170" y="-79.95" font-family="Helvetica,sans-Serif" font-size="14.00">class = Animal</text>
</g>
<!-- 16686&#45;&gt;16687 -->
<g id="edge25" class="edge">
<title>16686&#45;&gt;16687</title>
<path fill="none" stroke="black" d="M1170,-202.07C1170,-194.17 1170,-185.88 1170,-177.73"/>
<polygon fill="black" stroke="black" points="1173.5,-177.87 1170,-167.87 1166.5,-177.87 1173.5,-177.87"/>
</g>
<!-- 16892 -->
<g id="node29" class="node">
<title>16892</title>
<path fill="#e88f4f" stroke="black" d="M1389.5,-166.25C1389.5,-166.25 1274.5,-166.25 1274.5,-166.25 1268.5,-166.25 1262.5,-160.25 1262.5,-154.25 1262.5,-154.25 1262.5,-84 1262.5,-84 1262.5,-78 1268.5,-72 1274.5,-72 1274.5,-72 1389.5,-72 1389.5,-72 1395.5,-72 1401.5,-78 1401.5,-84 1401.5,-84 1401.5,-154.25 1401.5,-154.25 1401.5,-160.25 1395.5,-166.25 1389.5,-166.25"/>
<text text-anchor="middle" x="1332" y="-148.95" font-family="Helvetica,sans-Serif" font-size="14.00">26_U &lt;= 0.5</text>
<text text-anchor="middle" x="1332" y="-131.7" font-family="Helvetica,sans-Serif" font-size="14.00">entropy = 0.466</text>
<text text-anchor="middle" x="1332" y="-114.45" font-family="Helvetica,sans-Serif" font-size="14.00">samples = 241</text>
<text text-anchor="middle" x="1332" y="-97.2" font-family="Helvetica,sans-Serif" font-size="14.00">value = [346, 38]</text>
<text text-anchor="middle" x="1332" y="-79.95" font-family="Helvetica,sans-Serif" font-size="14.00">class = Animal</text>
</g>
<!-- 16686&#45;&gt;16892 -->
<g id="edge28" class="edge">
<title>16686&#45;&gt;16892</title>
<path fill="none" stroke="black" d="M1228.49,-202.07C1240.11,-192.87 1252.41,-183.13 1264.32,-173.71"/>
<polygon fill="black" stroke="black" points="1266.47,-176.46 1272.14,-167.51 1262.13,-170.98 1266.47,-176.46"/>
</g>
<!-- 16688 -->
<g id="node27" class="node">
<title>16688</title>
<path fill="#c0c0c0" stroke="black" d="M1140,-36C1140,-36 1110,-36 1110,-36 1104,-36 1098,-30 1098,-24 1098,-24 1098,-12 1098,-12 1098,-6 1104,0 1110,0 1110,0 1140,0 1140,0 1146,0 1152,-6 1152,-12 1152,-12 1152,-24 1152,-24 1152,-30 1146,-36 1140,-36"/>
<text text-anchor="middle" x="1125" y="-13.32" font-family="Helvetica,sans-Serif" font-size="14.00">(...)</text>
</g>
<!-- 16687&#45;&gt;16688 -->
<g id="edge26" class="edge">
<title>16687&#45;&gt;16688</title>
<path fill="none" stroke="black" d="M1148.95,-71.75C1145.03,-63.12 1141.05,-54.36 1137.5,-46.53"/>
<polygon fill="black" stroke="black" points="1140.74,-45.21 1133.42,-37.55 1134.37,-48.1 1140.74,-45.21"/>
</g>
<!-- 16863 -->
<g id="node28" class="node">
<title>16863</title>
<path fill="#c0c0c0" stroke="black" d="M1212,-36C1212,-36 1182,-36 1182,-36 1176,-36 1170,-30 1170,-24 1170,-24 1170,-12 1170,-12 1170,-6 1176,0 1182,0 1182,0 1212,0 1212,0 1218,0 1224,-6 1224,-12 1224,-12 1224,-24 1224,-24 1224,-30 1218,-36 1212,-36"/>
<text text-anchor="middle" x="1197" y="-13.32" font-family="Helvetica,sans-Serif" font-size="14.00">(...)</text>
</g>
<!-- 16687&#45;&gt;16863 -->
<g id="edge27" class="edge">
<title>16687&#45;&gt;16863</title>
<path fill="none" stroke="black" d="M1182.63,-71.75C1184.93,-63.32 1187.26,-54.77 1189.35,-47.07"/>
<polygon fill="black" stroke="black" points="1192.67,-48.2 1191.92,-37.63 1185.92,-46.36 1192.67,-48.2"/>
</g>
<!-- 16893 -->
<g id="node30" class="node">
<title>16893</title>
<path fill="#c0c0c0" stroke="black" d="M1311,-36C1311,-36 1281,-36 1281,-36 1275,-36 1269,-30 1269,-24 1269,-24 1269,-12 1269,-12 1269,-6 1275,0 1281,0 1281,0 1311,0 1311,0 1317,0 1323,-6 1323,-12 1323,-12 1323,-24 1323,-24 1323,-30 1317,-36 1311,-36"/>
<text text-anchor="middle" x="1296" y="-13.32" font-family="Helvetica,sans-Serif" font-size="14.00">(...)</text>
</g>
<!-- 16892&#45;&gt;16893 -->
<g id="edge29" class="edge">
<title>16892&#45;&gt;16893</title>
<path fill="none" stroke="black" d="M1315.16,-71.75C1312.06,-63.22 1308.92,-54.57 1306.1,-46.8"/>
<polygon fill="black" stroke="black" points="1309.46,-45.8 1302.75,-37.6 1302.88,-48.19 1309.46,-45.8"/>
</g>
<!-- 16958 -->
<g id="node31" class="node">
<title>16958</title>
<path fill="#c0c0c0" stroke="black" d="M1383,-36C1383,-36 1353,-36 1353,-36 1347,-36 1341,-30 1341,-24 1341,-24 1341,-12 1341,-12 1341,-6 1347,0 1353,0 1353,0 1383,0 1383,0 1389,0 1395,-6 1395,-12 1395,-12 1395,-24 1395,-24 1395,-30 1389,-36 1383,-36"/>
<text text-anchor="middle" x="1368" y="-13.32" font-family="Helvetica,sans-Serif" font-size="14.00">(...)</text>
</g>
<!-- 16892&#45;&gt;16958 -->
<g id="edge30" class="edge">
<title>16892&#45;&gt;16958</title>
<path fill="none" stroke="black" d="M1348.84,-71.75C1351.94,-63.22 1355.08,-54.57 1357.9,-46.8"/>
<polygon fill="black" stroke="black" points="1361.12,-48.19 1361.25,-37.6 1354.54,-45.8 1361.12,-48.19"/>
</g>
</g>
</svg>
