<?xml version="1.0" encoding="UTF-8" standalone="no"?>
<!DOCTYPE svg PUBLIC "-//W3C//DTD SVG 1.1//EN"
 "http://www.w3.org/Graphics/SVG/1.1/DTD/svg11.dtd">
<!-- Generated by graphviz version 12.0.0 (20240803.0821)
 -->
<!-- Title: Tree Pages: 1 -->
<svg width="1365pt" height="565pt"
 viewBox="0.00 0.00 1364.50 565.00" xmlns="http://www.w3.org/2000/svg" xmlns:xlink="http://www.w3.org/1999/xlink">
<g id="graph0" class="graph" transform="scale(1 1) rotate(0) translate(4 561)">
<title>Tree</title>
<polygon fill="white" stroke="none" points="-4,4 -4,-561 1360.5,-561 1360.5,4 -4,4"/>
<!-- 0 -->
<g id="node1" class="node">
<title>0</title>
<path fill="#fdfeff" stroke="black" d="M792,-557C792,-557 632,-557 632,-557 626,-557 620,-551 620,-545 620,-545 620,-474.75 620,-474.75 620,-468.75 626,-462.75 632,-462.75 632,-462.75 792,-462.75 792,-462.75 798,-462.75 804,-468.75 804,-474.75 804,-474.75 804,-545 804,-545 804,-551 798,-557 792,-557"/>
<text text-anchor="middle" x="712" y="-539.7" font-family="Helvetica,sans-Serif" font-size="14.00">23_U &lt;= 0.5</text>
<text text-anchor="middle" x="712" y="-522.45" font-family="Helvetica,sans-Serif" font-size="14.00">entropy = 1.0</text>
<text text-anchor="middle" x="712" y="-505.2" font-family="Helvetica,sans-Serif" font-size="14.00">samples = 38249</text>
<text text-anchor="middle" x="712" y="-487.95" font-family="Helvetica,sans-Serif" font-size="14.00">value = [30003, 30342]</text>
<text text-anchor="middle" x="712" y="-470.7" font-family="Helvetica,sans-Serif" font-size="14.00">class = Plant</text>
</g>
<!-- 1 -->
<g id="node2" class="node">
<title>1</title>
<path fill="#eff7fd" stroke="black" d="M626,-426.75C626,-426.75 466,-426.75 466,-426.75 460,-426.75 454,-420.75 454,-414.75 454,-414.75 454,-344.5 454,-344.5 454,-338.5 460,-332.5 466,-332.5 466,-332.5 626,-332.5 626,-332.5 632,-332.5 638,-338.5 638,-344.5 638,-344.5 638,-414.75 638,-414.75 638,-420.75 632,-426.75 626,-426.75"/>
<text text-anchor="middle" x="546" y="-409.45" font-family="Helvetica,sans-Serif" font-size="14.00">23_A &lt;= 0.5</text>
<text text-anchor="middle" x="546" y="-392.2" font-family="Helvetica,sans-Serif" font-size="14.00">entropy = 0.999</text>
<text text-anchor="middle" x="546" y="-374.95" font-family="Helvetica,sans-Serif" font-size="14.00">samples = 36315</text>
<text text-anchor="middle" x="546" y="-357.7" font-family="Helvetica,sans-Serif" font-size="14.00">value = [27504, 29849]</text>
<text text-anchor="middle" x="546" y="-340.45" font-family="Helvetica,sans-Serif" font-size="14.00">class = Plant</text>
</g>
<!-- 0&#45;&gt;1 -->
<g id="edge1" class="edge">
<title>0&#45;&gt;1</title>
<path fill="none" stroke="black" d="M652.07,-462.57C640.04,-453.28 627.3,-443.44 614.99,-433.93"/>
<polygon fill="black" stroke="black" points="617.37,-431.34 607.32,-428 613.09,-436.88 617.37,-431.34"/>
<text text-anchor="middle" x="609.3" y="-447.2" font-family="Helvetica,sans-Serif" font-size="14.00">True</text>
</g>
<!-- 15874 -->
<g id="node17" class="node">
<title>15874</title>
<path fill="#ea9a60" stroke="black" d="M949.5,-426.75C949.5,-426.75 816.5,-426.75 816.5,-426.75 810.5,-426.75 804.5,-420.75 804.5,-414.75 804.5,-414.75 804.5,-344.5 804.5,-344.5 804.5,-338.5 810.5,-332.5 816.5,-332.5 816.5,-332.5 949.5,-332.5 949.5,-332.5 955.5,-332.5 961.5,-338.5 961.5,-344.5 961.5,-344.5 961.5,-414.75 961.5,-414.75 961.5,-420.75 955.5,-426.75 949.5,-426.75"/>
<text text-anchor="middle" x="883" y="-409.45" font-family="Helvetica,sans-Serif" font-size="14.00">9_U &lt;= 0.5</text>
<text text-anchor="middle" x="883" y="-392.2" font-family="Helvetica,sans-Serif" font-size="14.00">entropy = 0.646</text>
<text text-anchor="middle" x="883" y="-374.95" font-family="Helvetica,sans-Serif" font-size="14.00">samples = 1934</text>
<text text-anchor="middle" x="883" y="-357.7" font-family="Helvetica,sans-Serif" font-size="14.00">value = [2499, 493]</text>
<text text-anchor="middle" x="883" y="-340.45" font-family="Helvetica,sans-Serif" font-size="14.00">class = Animal</text>
</g>
<!-- 0&#45;&gt;15874 -->
<g id="edge16" class="edge">
<title>0&#45;&gt;15874</title>
<path fill="none" stroke="black" d="M773.73,-462.57C786.13,-453.28 799.25,-443.44 811.93,-433.93"/>
<polygon fill="black" stroke="black" points="813.96,-436.78 819.86,-427.98 809.76,-431.18 813.96,-436.78"/>
<text text-anchor="middle" x="817.53" y="-447.15" font-family="Helvetica,sans-Serif" font-size="14.00">False</text>
</g>
<!-- 2 -->
<g id="node3" class="node">
<title>2</title>
<path fill="#e7f3fc" stroke="black" d="M365,-296.5C365,-296.5 205,-296.5 205,-296.5 199,-296.5 193,-290.5 193,-284.5 193,-284.5 193,-214.25 193,-214.25 193,-208.25 199,-202.25 205,-202.25 205,-202.25 365,-202.25 365,-202.25 371,-202.25 377,-208.25 377,-214.25 377,-214.25 377,-284.5 377,-284.5 377,-290.5 371,-296.5 365,-296.5"/>
<text text-anchor="middle" x="285" y="-279.2" font-family="Helvetica,sans-Serif" font-size="14.00">22_U &lt;= 0.5</text>
<text text-anchor="middle" x="285" y="-261.95" font-family="Helvetica,sans-Serif" font-size="14.00">entropy = 0.997</text>
<text text-anchor="middle" x="285" y="-244.7" font-family="Helvetica,sans-Serif" font-size="14.00">samples = 34758</text>
<text text-anchor="middle" x="285" y="-227.45" font-family="Helvetica,sans-Serif" font-size="14.00">value = [25653, 29228]</text>
<text text-anchor="middle" x="285" y="-210.2" font-family="Helvetica,sans-Serif" font-size="14.00">class = Plant</text>
</g>
<!-- 1&#45;&gt;2 -->
<g id="edge2" class="edge">
<title>1&#45;&gt;2</title>
<path fill="none" stroke="black" d="M453.61,-333.23C432.22,-322.72 409.33,-311.47 387.53,-300.75"/>
<polygon fill="black" stroke="black" points="389.14,-297.65 378.62,-296.38 386.05,-303.93 389.14,-297.65"/>
</g>
<!-- 15159 -->
<g id="node10" class="node">
<title>15159</title>
<path fill="#eeab7b" stroke="black" d="M612.5,-296.5C612.5,-296.5 479.5,-296.5 479.5,-296.5 473.5,-296.5 467.5,-290.5 467.5,-284.5 467.5,-284.5 467.5,-214.25 467.5,-214.25 467.5,-208.25 473.5,-202.25 479.5,-202.25 479.5,-202.25 612.5,-202.25 612.5,-202.25 618.5,-202.25 624.5,-208.25 624.5,-214.25 624.5,-214.25 624.5,-284.5 624.5,-284.5 624.5,-290.5 618.5,-296.5 612.5,-296.5"/>
<text text-anchor="middle" x="546" y="-279.2" font-family="Helvetica,sans-Serif" font-size="14.00">3_G &lt;= 0.5</text>
<text text-anchor="middle" x="546" y="-261.95" font-family="Helvetica,sans-Serif" font-size="14.00">entropy = 0.813</text>
<text text-anchor="middle" x="546" y="-244.7" font-family="Helvetica,sans-Serif" font-size="14.00">samples = 1557</text>
<text text-anchor="middle" x="546" y="-227.45" font-family="Helvetica,sans-Serif" font-size="14.00">value = [1851, 621]</text>
<text text-anchor="middle" x="546" y="-210.2" font-family="Helvetica,sans-Serif" font-size="14.00">class = Animal</text>
</g>
<!-- 1&#45;&gt;15159 -->
<g id="edge9" class="edge">
<title>1&#45;&gt;15159</title>
<path fill="none" stroke="black" d="M546,-332.32C546,-324.42 546,-316.13 546,-307.98"/>
<polygon fill="black" stroke="black" points="549.5,-308.12 546,-298.12 542.5,-308.12 549.5,-308.12"/>
</g>
<!-- 3 -->
<g id="node4" class="node">
<title>3</title>
<path fill="#c6e3f8" stroke="black" d="M172,-166.25C172,-166.25 12,-166.25 12,-166.25 6,-166.25 0,-160.25 0,-154.25 0,-154.25 0,-84 0,-84 0,-78 6,-72 12,-72 12,-72 172,-72 172,-72 178,-72 184,-78 184,-84 184,-84 184,-154.25 184,-154.25 184,-160.25 178,-166.25 172,-166.25"/>
<text text-anchor="middle" x="92" y="-148.95" font-family="Helvetica,sans-Serif" font-size="14.00">6_A &lt;= 0.5</text>
<text text-anchor="middle" x="92" y="-131.7" font-family="Helvetica,sans-Serif" font-size="14.00">entropy = 0.979</text>
<text text-anchor="middle" x="92" y="-114.45" font-family="Helvetica,sans-Serif" font-size="14.00">samples = 30287</text>
<text text-anchor="middle" x="92" y="-97.2" font-family="Helvetica,sans-Serif" font-size="14.00">value = [19838, 27877]</text>
<text text-anchor="middle" x="92" y="-79.95" font-family="Helvetica,sans-Serif" font-size="14.00">class = Plant</text>
</g>
<!-- 2&#45;&gt;3 -->
<g id="edge3" class="edge">
<title>2&#45;&gt;3</title>
<path fill="none" stroke="black" d="M215.05,-201.89C200.89,-192.48 185.9,-182.53 171.45,-172.92"/>
<polygon fill="black" stroke="black" points="173.56,-170.12 163.3,-167.5 169.69,-175.95 173.56,-170.12"/>
</g>
<!-- 13402 -->
<g id="node7" class="node">
<title>13402</title>
<path fill="#eb9e67" stroke="black" d="M356,-166.25C356,-166.25 214,-166.25 214,-166.25 208,-166.25 202,-160.25 202,-154.25 202,-154.25 202,-84 202,-84 202,-78 208,-72 214,-72 214,-72 356,-72 356,-72 362,-72 368,-78 368,-84 368,-84 368,-154.25 368,-154.25 368,-160.25 362,-166.25 356,-166.25"/>
<text text-anchor="middle" x="285" y="-148.95" font-family="Helvetica,sans-Serif" font-size="14.00">18_U &lt;= 0.5</text>
<text text-anchor="middle" x="285" y="-131.7" font-family="Helvetica,sans-Serif" font-size="14.00">entropy = 0.698</text>
<text text-anchor="middle" x="285" y="-114.45" font-family="Helvetica,sans-Serif" font-size="14.00">samples = 4471</text>
<text text-anchor="middle" x="285" y="-97.2" font-family="Helvetica,sans-Serif" font-size="14.00">value = [5815, 1351]</text>
<text text-anchor="middle" x="285" y="-79.95" font-family="Helvetica,sans-Serif" font-size="14.00">class = Animal</text>
</g>
<!-- 2&#45;&gt;13402 -->
<g id="edge6" class="edge">
<title>2&#45;&gt;13402</title>
<path fill="none" stroke="black" d="M285,-202.07C285,-194.17 285,-185.88 285,-177.73"/>
<polygon fill="black" stroke="black" points="288.5,-177.87 285,-167.87 281.5,-177.87 288.5,-177.87"/>
</g>
<!-- 4 -->
<g id="node5" class="node">
<title>4</title>
<path fill="#c0c0c0" stroke="black" d="M71,-36C71,-36 41,-36 41,-36 35,-36 29,-30 29,-24 29,-24 29,-12 29,-12 29,-6 35,0 41,0 41,0 71,0 71,0 77,0 83,-6 83,-12 83,-12 83,-24 83,-24 83,-30 77,-36 71,-36"/>
<text text-anchor="middle" x="56" y="-13.32" font-family="Helvetica,sans-Serif" font-size="14.00">(...)</text>
</g>
<!-- 3&#45;&gt;4 -->
<g id="edge4" class="edge">
<title>3&#45;&gt;4</title>
<path fill="none" stroke="black" d="M75.16,-71.75C72.06,-63.22 68.92,-54.57 66.1,-46.8"/>
<polygon fill="black" stroke="black" points="69.46,-45.8 62.75,-37.6 62.88,-48.19 69.46,-45.8"/>
</g>
<!-- 10289 -->
<g id="node6" class="node">
<title>10289</title>
<path fill="#c0c0c0" stroke="black" d="M143,-36C143,-36 113,-36 113,-36 107,-36 101,-30 101,-24 101,-24 101,-12 101,-12 101,-6 107,0 113,0 113,0 143,0 143,0 149,0 155,-6 155,-12 155,-12 155,-24 155,-24 155,-30 149,-36 143,-36"/>
<text text-anchor="middle" x="128" y="-13.32" font-family="Helvetica,sans-Serif" font-size="14.00">(...)</text>
</g>
<!-- 3&#45;&gt;10289 -->
<g id="edge5" class="edge">
<title>3&#45;&gt;10289</title>
<path fill="none" stroke="black" d="M108.84,-71.75C111.94,-63.22 115.08,-54.57 117.9,-46.8"/>
<polygon fill="black" stroke="black" points="121.12,-48.19 121.25,-37.6 114.54,-45.8 121.12,-48.19"/>
</g>
<!-- 13403 -->
<g id="node8" class="node">
<title>13403</title>
<path fill="#c0c0c0" stroke="black" d="M259,-36C259,-36 229,-36 229,-36 223,-36 217,-30 217,-24 217,-24 217,-12 217,-12 217,-6 223,0 229,0 229,0 259,0 259,0 265,0 271,-6 271,-12 271,-12 271,-24 271,-24 271,-30 265,-36 259,-36"/>
<text text-anchor="middle" x="244" y="-13.32" font-family="Helvetica,sans-Serif" font-size="14.00">(...)</text>
</g>
<!-- 13402&#45;&gt;13403 -->
<g id="edge7" class="edge">
<title>13402&#45;&gt;13403</title>
<path fill="none" stroke="black" d="M265.82,-71.75C262.29,-63.22 258.71,-54.57 255.5,-46.8"/>
<polygon fill="black" stroke="black" points="258.74,-45.47 251.68,-37.57 252.27,-48.15 258.74,-45.47"/>
</g>
<!-- 14672 -->
<g id="node9" class="node">
<title>14672</title>
<path fill="#c0c0c0" stroke="black" d="M331,-36C331,-36 301,-36 301,-36 295,-36 289,-30 289,-24 289,-24 289,-12 289,-12 289,-6 295,0 301,0 301,0 331,0 331,0 337,0 343,-6 343,-12 343,-12 343,-24 343,-24 343,-30 337,-36 331,-36"/>
<text text-anchor="middle" x="316" y="-13.32" font-family="Helvetica,sans-Serif" font-size="14.00">(...)</text>
</g>
<!-- 13402&#45;&gt;14672 -->
<g id="edge8" class="edge">
<title>13402&#45;&gt;14672</title>
<path fill="none" stroke="black" d="M299.5,-71.75C302.14,-63.32 304.81,-54.77 307.22,-47.07"/>
<polygon fill="black" stroke="black" points="310.53,-48.21 310.18,-37.62 303.85,-46.12 310.53,-48.21"/>
</g>
<!-- 15160 -->
<g id="node11" class="node">
<title>15160</title>
<path fill="#eca36f" stroke="black" d="M531.5,-166.25C531.5,-166.25 398.5,-166.25 398.5,-166.25 392.5,-166.25 386.5,-160.25 386.5,-154.25 386.5,-154.25 386.5,-84 386.5,-84 386.5,-78 392.5,-72 398.5,-72 398.5,-72 531.5,-72 531.5,-72 537.5,-72 543.5,-78 543.5,-84 543.5,-84 543.5,-154.25 543.5,-154.25 543.5,-160.25 537.5,-166.25 531.5,-166.25"/>
<text text-anchor="middle" x="465" y="-148.95" font-family="Helvetica,sans-Serif" font-size="14.00">17_C &lt;= 0.5</text>
<text text-anchor="middle" x="465" y="-131.7" font-family="Helvetica,sans-Serif" font-size="14.00">entropy = 0.751</text>
<text text-anchor="middle" x="465" y="-114.45" font-family="Helvetica,sans-Serif" font-size="14.00">samples = 1153</text>
<text text-anchor="middle" x="465" y="-97.2" font-family="Helvetica,sans-Serif" font-size="14.00">value = [1443, 395]</text>
<text text-anchor="middle" x="465" y="-79.95" font-family="Helvetica,sans-Serif" font-size="14.00">class = Animal</text>
</g>
<!-- 15159&#45;&gt;15160 -->
<g id="edge10" class="edge">
<title>15159&#45;&gt;15160</title>
<path fill="none" stroke="black" d="M516.76,-202.07C511.42,-193.63 505.81,-184.74 500.32,-176.05"/>
<polygon fill="black" stroke="black" points="503.31,-174.22 495.01,-167.64 497.39,-177.96 503.31,-174.22"/>
</g>
<!-- 15675 -->
<g id="node14" class="node">
<title>15675</title>
<path fill="#f3c7a7" stroke="black" d="M698,-166.25C698,-166.25 574,-166.25 574,-166.25 568,-166.25 562,-160.25 562,-154.25 562,-154.25 562,-84 562,-84 562,-78 568,-72 574,-72 574,-72 698,-72 698,-72 704,-72 710,-78 710,-84 710,-84 710,-154.25 710,-154.25 710,-160.25 704,-166.25 698,-166.25"/>
<text text-anchor="middle" x="636" y="-148.95" font-family="Helvetica,sans-Serif" font-size="14.00">12_C &lt;= 0.5</text>
<text text-anchor="middle" x="636" y="-131.7" font-family="Helvetica,sans-Serif" font-size="14.00">entropy = 0.94</text>
<text text-anchor="middle" x="636" y="-114.45" font-family="Helvetica,sans-Serif" font-size="14.00">samples = 404</text>
<text text-anchor="middle" x="636" y="-97.2" font-family="Helvetica,sans-Serif" font-size="14.00">value = [408, 226]</text>
<text text-anchor="middle" x="636" y="-79.95" font-family="Helvetica,sans-Serif" font-size="14.00">class = Animal</text>
</g>
<!-- 15159&#45;&gt;15675 -->
<g id="edge13" class="edge">
<title>15159&#45;&gt;15675</title>
<path fill="none" stroke="black" d="M578.49,-202.07C584.48,-193.54 590.79,-184.54 596.95,-175.77"/>
<polygon fill="black" stroke="black" points="599.81,-177.79 602.69,-167.6 594.08,-173.77 599.81,-177.79"/>
</g>
<!-- 15161 -->
<g id="node12" class="node">
<title>15161</title>
<path fill="#c0c0c0" stroke="black" d="M421,-36C421,-36 391,-36 391,-36 385,-36 379,-30 379,-24 379,-24 379,-12 379,-12 379,-6 385,0 391,0 391,0 421,0 421,0 427,0 433,-6 433,-12 433,-12 433,-24 433,-24 433,-30 427,-36 421,-36"/>
<text text-anchor="middle" x="406" y="-13.32" font-family="Helvetica,sans-Serif" font-size="14.00">(...)</text>
</g>
<!-- 15160&#45;&gt;15161 -->
<g id="edge11" class="edge">
<title>15160&#45;&gt;15161</title>
<path fill="none" stroke="black" d="M437.4,-71.75C432.15,-62.93 426.81,-53.96 422.06,-45.99"/>
<polygon fill="black" stroke="black" points="425.12,-44.28 417,-37.47 419.1,-47.86 425.12,-44.28"/>
</g>
<!-- 15556 -->
<g id="node13" class="node">
<title>15556</title>
<path fill="#c0c0c0" stroke="black" d="M493,-36C493,-36 463,-36 463,-36 457,-36 451,-30 451,-24 451,-24 451,-12 451,-12 451,-6 457,0 463,0 463,0 493,0 493,0 499,0 505,-6 505,-12 505,-12 505,-24 505,-24 505,-30 499,-36 493,-36"/>
<text text-anchor="middle" x="478" y="-13.32" font-family="Helvetica,sans-Serif" font-size="14.00">(...)</text>
</g>
<!-- 15160&#45;&gt;15556 -->
<g id="edge12" class="edge">
<title>15160&#45;&gt;15556</title>
<path fill="none" stroke="black" d="M471.08,-71.75C472.17,-63.42 473.28,-54.97 474.28,-47.34"/>
<polygon fill="black" stroke="black" points="477.72,-48.04 475.55,-37.67 470.78,-47.13 477.72,-48.04"/>
</g>
<!-- 15676 -->
<g id="node15" class="node">
<title>15676</title>
<path fill="#c0c0c0" stroke="black" d="M592,-36C592,-36 562,-36 562,-36 556,-36 550,-30 550,-24 550,-24 550,-12 550,-12 550,-6 556,0 562,0 562,0 592,0 592,0 598,0 604,-6 604,-12 604,-12 604,-24 604,-24 604,-30 598,-36 592,-36"/>
<text text-anchor="middle" x="577" y="-13.32" font-family="Helvetica,sans-Serif" font-size="14.00">(...)</text>
</g>
<!-- 15675&#45;&gt;15676 -->
<g id="edge14" class="edge">
<title>15675&#45;&gt;15676</title>
<path fill="none" stroke="black" d="M608.4,-71.75C603.15,-62.93 597.81,-53.96 593.06,-45.99"/>
<polygon fill="black" stroke="black" points="596.12,-44.28 588,-37.47 590.1,-47.86 596.12,-44.28"/>
</g>
<!-- 15827 -->
<g id="node16" class="node">
<title>15827</title>
<path fill="#c0c0c0" stroke="black" d="M664,-36C664,-36 634,-36 634,-36 628,-36 622,-30 622,-24 622,-24 622,-12 622,-12 622,-6 628,0 634,0 634,0 664,0 664,0 670,0 676,-6 676,-12 676,-12 676,-24 676,-24 676,-30 670,-36 664,-36"/>
<text text-anchor="middle" x="649" y="-13.32" font-family="Helvetica,sans-Serif" font-size="14.00">(...)</text>
</g>
<!-- 15675&#45;&gt;15827 -->
<g id="edge15" class="edge">
<title>15675&#45;&gt;15827</title>
<path fill="none" stroke="black" d="M642.08,-71.75C643.17,-63.42 644.28,-54.97 645.28,-47.34"/>
<polygon fill="black" stroke="black" points="648.72,-48.04 646.55,-37.67 641.78,-47.13 648.72,-48.04"/>
</g>
<!-- 15875 -->
<g id="node18" class="node">
<title>15875</title>
<path fill="#eba069" stroke="black" d="M949.5,-296.5C949.5,-296.5 816.5,-296.5 816.5,-296.5 810.5,-296.5 804.5,-290.5 804.5,-284.5 804.5,-284.5 804.5,-214.25 804.5,-214.25 804.5,-208.25 810.5,-202.25 816.5,-202.25 816.5,-202.25 949.5,-202.25 949.5,-202.25 955.5,-202.25 961.5,-208.25 961.5,-214.25 961.5,-214.25 961.5,-284.5 961.5,-284.5 961.5,-290.5 955.5,-296.5 949.5,-296.5"/>
<text text-anchor="middle" x="883" y="-279.2" font-family="Helvetica,sans-Serif" font-size="14.00">1_G &lt;= 0.5</text>
<text text-anchor="middle" x="883" y="-261.95" font-family="Helvetica,sans-Serif" font-size="14.00">entropy = 0.712</text>
<text text-anchor="middle" x="883" y="-244.7" font-family="Helvetica,sans-Serif" font-size="14.00">samples = 1252</text>
<text text-anchor="middle" x="883" y="-227.45" font-family="Helvetica,sans-Serif" font-size="14.00">value = [1563, 379]</text>
<text text-anchor="middle" x="883" y="-210.2" font-family="Helvetica,sans-Serif" font-size="14.00">class = Animal</text>
</g>
<!-- 15874&#45;&gt;15875 -->
<g id="edge17" class="edge">
<title>15874&#45;&gt;15875</title>
<path fill="none" stroke="black" d="M883,-332.32C883,-324.42 883,-316.13 883,-307.98"/>
<polygon fill="black" stroke="black" points="886.5,-308.12 883,-298.12 879.5,-308.12 886.5,-308.12"/>
</g>
<!-- 16430 -->
<g id="node25" class="node">
<title>16430</title>
<path fill="#e89051" stroke="black" d="M1192,-296.5C1192,-296.5 1068,-296.5 1068,-296.5 1062,-296.5 1056,-290.5 1056,-284.5 1056,-284.5 1056,-214.25 1056,-214.25 1056,-208.25 1062,-202.25 1068,-202.25 1068,-202.25 1192,-202.25 1192,-202.25 1198,-202.25 1204,-208.25 1204,-214.25 1204,-214.25 1204,-284.5 1204,-284.5 1204,-290.5 1198,-296.5 1192,-296.5"/>
<text text-anchor="middle" x="1130" y="-279.2" font-family="Helvetica,sans-Serif" font-size="14.00">14_G &lt;= 0.5</text>
<text text-anchor="middle" x="1130" y="-261.95" font-family="Helvetica,sans-Serif" font-size="14.00">entropy = 0.496</text>
<text text-anchor="middle" x="1130" y="-244.7" font-family="Helvetica,sans-Serif" font-size="14.00">samples = 682</text>
<text text-anchor="middle" x="1130" y="-227.45" font-family="Helvetica,sans-Serif" font-size="14.00">value = [936, 114]</text>
<text text-anchor="middle" x="1130" y="-210.2" font-family="Helvetica,sans-Serif" font-size="14.00">class = Animal</text>
</g>
<!-- 15874&#45;&gt;16430 -->
<g id="edge24" class="edge">
<title>15874&#45;&gt;16430</title>
<path fill="none" stroke="black" d="M961.83,-337.69C988.61,-323.79 1018.64,-308.2 1045.82,-294.08"/>
<polygon fill="black" stroke="black" points="1047.09,-297.37 1054.35,-289.65 1043.87,-291.15 1047.09,-297.37"/>
</g>
<!-- 15876 -->
<g id="node19" class="node">
<title>15876</title>
<path fill="#ea9b62" stroke="black" d="M873.5,-166.25C873.5,-166.25 740.5,-166.25 740.5,-166.25 734.5,-166.25 728.5,-160.25 728.5,-154.25 728.5,-154.25 728.5,-84 728.5,-84 728.5,-78 734.5,-72 740.5,-72 740.5,-72 873.5,-72 873.5,-72 879.5,-72 885.5,-78 885.5,-84 885.5,-84 885.5,-154.25 885.5,-154.25 885.5,-160.25 879.5,-166.25 873.5,-166.25"/>
<text text-anchor="middle" x="807" y="-148.95" font-family="Helvetica,sans-Serif" font-size="14.00">17_G &lt;= 0.5</text>
<text text-anchor="middle" x="807" y="-131.7" font-family="Helvetica,sans-Serif" font-size="14.00">entropy = 0.665</text>
<text text-anchor="middle" x="807" y="-114.45" font-family="Helvetica,sans-Serif" font-size="14.00">samples = 1115</text>
<text text-anchor="middle" x="807" y="-97.2" font-family="Helvetica,sans-Serif" font-size="14.00">value = [1441, 302]</text>
<text text-anchor="middle" x="807" y="-79.95" font-family="Helvetica,sans-Serif" font-size="14.00">class = Animal</text>
</g>
<!-- 15875&#45;&gt;15876 -->
<g id="edge18" class="edge">
<title>15875&#45;&gt;15876</title>
<path fill="none" stroke="black" d="M855.56,-202.07C850.56,-193.63 845.29,-184.74 840.14,-176.05"/>
<polygon fill="black" stroke="black" points="843.28,-174.48 835.17,-167.66 837.26,-178.05 843.28,-174.48"/>
</g>
<!-- 16337 -->
<g id="node22" class="node">
<title>16337</title>
<path fill="#f5d1b6" stroke="black" d="M1030.5,-166.25C1030.5,-166.25 915.5,-166.25 915.5,-166.25 909.5,-166.25 903.5,-160.25 903.5,-154.25 903.5,-154.25 903.5,-84 903.5,-84 903.5,-78 909.5,-72 915.5,-72 915.5,-72 1030.5,-72 1030.5,-72 1036.5,-72 1042.5,-78 1042.5,-84 1042.5,-84 1042.5,-154.25 1042.5,-154.25 1042.5,-160.25 1036.5,-166.25 1030.5,-166.25"/>
<text text-anchor="middle" x="973" y="-148.95" font-family="Helvetica,sans-Serif" font-size="14.00">3_U &lt;= 0.5</text>
<text text-anchor="middle" x="973" y="-131.7" font-family="Helvetica,sans-Serif" font-size="14.00">entropy = 0.963</text>
<text text-anchor="middle" x="973" y="-114.45" font-family="Helvetica,sans-Serif" font-size="14.00">samples = 137</text>
<text text-anchor="middle" x="973" y="-97.2" font-family="Helvetica,sans-Serif" font-size="14.00">value = [122, 77]</text>
<text text-anchor="middle" x="973" y="-79.95" font-family="Helvetica,sans-Serif" font-size="14.00">class = Animal</text>
</g>
<!-- 15875&#45;&gt;16337 -->
<g id="edge21" class="edge">
<title>15875&#45;&gt;16337</title>
<path fill="none" stroke="black" d="M915.49,-202.07C921.48,-193.54 927.79,-184.54 933.95,-175.77"/>
<polygon fill="black" stroke="black" points="936.81,-177.79 939.69,-167.6 931.08,-173.77 936.81,-177.79"/>
</g>
<!-- 15877 -->
<g id="node20" class="node">
<title>15877</title>
<path fill="#c0c0c0" stroke="black" d="M761,-36C761,-36 731,-36 731,-36 725,-36 719,-30 719,-24 719,-24 719,-12 719,-12 719,-6 725,0 731,0 731,0 761,0 761,0 767,0 773,-6 773,-12 773,-12 773,-24 773,-24 773,-30 767,-36 761,-36"/>
<text text-anchor="middle" x="746" y="-13.32" font-family="Helvetica,sans-Serif" font-size="14.00">(...)</text>
</g>
<!-- 15876&#45;&gt;15877 -->
<g id="edge19" class="edge">
<title>15876&#45;&gt;15877</title>
<path fill="none" stroke="black" d="M778.46,-71.75C772.97,-62.83 767.39,-53.76 762.44,-45.72"/>
<polygon fill="black" stroke="black" points="765.58,-44.14 757.36,-37.46 759.62,-47.81 765.58,-44.14"/>
</g>
<!-- 16204 -->
<g id="node21" class="node">
<title>16204</title>
<path fill="#c0c0c0" stroke="black" d="M833,-36C833,-36 803,-36 803,-36 797,-36 791,-30 791,-24 791,-24 791,-12 791,-12 791,-6 797,0 803,0 803,0 833,0 833,0 839,0 845,-6 845,-12 845,-12 845,-24 845,-24 845,-30 839,-36 833,-36"/>
<text text-anchor="middle" x="818" y="-13.32" font-family="Helvetica,sans-Serif" font-size="14.00">(...)</text>
</g>
<!-- 15876&#45;&gt;16204 -->
<g id="edge20" class="edge">
<title>15876&#45;&gt;16204</title>
<path fill="none" stroke="black" d="M812.15,-71.75C813.06,-63.52 813.99,-55.17 814.82,-47.61"/>
<polygon fill="black" stroke="black" points="818.3,-48 815.93,-37.68 811.35,-47.23 818.3,-48"/>
</g>
<!-- 16338 -->
<g id="node23" class="node">
<title>16338</title>
<path fill="#c0c0c0" stroke="black" d="M922,-36C922,-36 892,-36 892,-36 886,-36 880,-30 880,-24 880,-24 880,-12 880,-12 880,-6 886,0 892,0 892,0 922,0 922,0 928,0 934,-6 934,-12 934,-12 934,-24 934,-24 934,-30 928,-36 922,-36"/>
<text text-anchor="middle" x="907" y="-13.32" font-family="Helvetica,sans-Serif" font-size="14.00">(...)</text>
</g>
<!-- 16337&#45;&gt;16338 -->
<g id="edge22" class="edge">
<title>16337&#45;&gt;16338</title>
<path fill="none" stroke="black" d="M942.13,-71.75C936.18,-62.83 930.14,-53.76 924.79,-45.72"/>
<polygon fill="black" stroke="black" points="927.73,-43.82 919.27,-37.43 921.9,-47.7 927.73,-43.82"/>
</g>
<!-- 16397 -->
<g id="node24" class="node">
<title>16397</title>
<path fill="#c0c0c0" stroke="black" d="M994,-36C994,-36 964,-36 964,-36 958,-36 952,-30 952,-24 952,-24 952,-12 952,-12 952,-6 958,0 964,0 964,0 994,0 994,0 1000,0 1006,-6 1006,-12 1006,-12 1006,-24 1006,-24 1006,-30 1000,-36 994,-36"/>
<text text-anchor="middle" x="979" y="-13.32" font-family="Helvetica,sans-Serif" font-size="14.00">(...)</text>
</g>
<!-- 16337&#45;&gt;16397 -->
<g id="edge23" class="edge">
<title>16337&#45;&gt;16397</title>
<path fill="none" stroke="black" d="M975.81,-71.75C976.31,-63.52 976.81,-55.17 977.27,-47.61"/>
<polygon fill="black" stroke="black" points="980.76,-47.88 977.87,-37.68 973.77,-47.45 980.76,-47.88"/>
</g>
<!-- 16431 -->
<g id="node26" class="node">
<title>16431</title>
<path fill="#e78b49" stroke="black" d="M1187.5,-166.25C1187.5,-166.25 1072.5,-166.25 1072.5,-166.25 1066.5,-166.25 1060.5,-160.25 1060.5,-154.25 1060.5,-154.25 1060.5,-84 1060.5,-84 1060.5,-78 1066.5,-72 1072.5,-72 1072.5,-72 1187.5,-72 1187.5,-72 1193.5,-72 1199.5,-78 1199.5,-84 1199.5,-84 1199.5,-154.25 1199.5,-154.25 1199.5,-160.25 1193.5,-166.25 1187.5,-166.25"/>
<text text-anchor="middle" x="1130" y="-148.95" font-family="Helvetica,sans-Serif" font-size="14.00">22_A &lt;= 0.5</text>
<text text-anchor="middle" x="1130" y="-131.7" font-family="Helvetica,sans-Serif" font-size="14.00">entropy = 0.383</text>
<text text-anchor="middle" x="1130" y="-114.45" font-family="Helvetica,sans-Serif" font-size="14.00">samples = 513</text>
<text text-anchor="middle" x="1130" y="-97.2" font-family="Helvetica,sans-Serif" font-size="14.00">value = [732, 59]</text>
<text text-anchor="middle" x="1130" y="-79.95" font-family="Helvetica,sans-Serif" font-size="14.00">class = Animal</text>
</g>
<!-- 16430&#45;&gt;16431 -->
<g id="edge25" class="edge">
<title>16430&#45;&gt;16431</title>
<path fill="none" stroke="black" d="M1130,-202.07C1130,-194.17 1130,-185.88 1130,-177.73"/>
<polygon fill="black" stroke="black" points="1133.5,-177.87 1130,-167.87 1126.5,-177.87 1133.5,-177.87"/>
</g>
<!-- 16582 -->
<g id="node29" class="node">
<title>16582</title>
<path fill="#eca36e" stroke="black" d="M1344.5,-166.25C1344.5,-166.25 1229.5,-166.25 1229.5,-166.25 1223.5,-166.25 1217.5,-160.25 1217.5,-154.25 1217.5,-154.25 1217.5,-84 1217.5,-84 1217.5,-78 1223.5,-72 1229.5,-72 1229.5,-72 1344.5,-72 1344.5,-72 1350.5,-72 1356.5,-78 1356.5,-84 1356.5,-84 1356.5,-154.25 1356.5,-154.25 1356.5,-160.25 1350.5,-166.25 1344.5,-166.25"/>
<text text-anchor="middle" x="1287" y="-148.95" font-family="Helvetica,sans-Serif" font-size="14.00">6_U &lt;= 0.5</text>
<text text-anchor="middle" x="1287" y="-131.7" font-family="Helvetica,sans-Serif" font-size="14.00">entropy = 0.746</text>
<text text-anchor="middle" x="1287" y="-114.45" font-family="Helvetica,sans-Serif" font-size="14.00">samples = 169</text>
<text text-anchor="middle" x="1287" y="-97.2" font-family="Helvetica,sans-Serif" font-size="14.00">value = [204, 55]</text>
<text text-anchor="middle" x="1287" y="-79.95" font-family="Helvetica,sans-Serif" font-size="14.00">class = Animal</text>
</g>
<!-- 16430&#45;&gt;16582 -->
<g id="edge28" class="edge">
<title>16430&#45;&gt;16582</title>
<path fill="none" stroke="black" d="M1186.68,-202.07C1197.95,-192.87 1209.87,-183.13 1221.41,-173.71"/>
<polygon fill="black" stroke="black" points="1223.44,-176.57 1228.97,-167.53 1219.01,-171.15 1223.44,-176.57"/>
</g>
<!-- 16432 -->
<g id="node27" class="node">
<title>16432</title>
<path fill="#c0c0c0" stroke="black" d="M1097,-36C1097,-36 1067,-36 1067,-36 1061,-36 1055,-30 1055,-24 1055,-24 1055,-12 1055,-12 1055,-6 1061,0 1067,0 1067,0 1097,0 1097,0 1103,0 1109,-6 1109,-12 1109,-12 1109,-24 1109,-24 1109,-30 1103,-36 1097,-36"/>
<text text-anchor="middle" x="1082" y="-13.32" font-family="Helvetica,sans-Serif" font-size="14.00">(...)</text>
</g>
<!-- 16431&#45;&gt;16432 -->
<g id="edge26" class="edge">
<title>16431&#45;&gt;16432</title>
<path fill="none" stroke="black" d="M1107.55,-71.75C1103.37,-63.12 1099.12,-54.36 1095.33,-46.53"/>
<polygon fill="black" stroke="black" points="1098.48,-45.01 1090.98,-37.53 1092.18,-48.06 1098.48,-45.01"/>
</g>
<!-- 16545 -->
<g id="node28" class="node">
<title>16545</title>
<path fill="#c0c0c0" stroke="black" d="M1169,-36C1169,-36 1139,-36 1139,-36 1133,-36 1127,-30 1127,-24 1127,-24 1127,-12 1127,-12 1127,-6 1133,0 1139,0 1139,0 1169,0 1169,0 1175,0 1181,-6 1181,-12 1181,-12 1181,-24 1181,-24 1181,-30 1175,-36 1169,-36"/>
<text text-anchor="middle" x="1154" y="-13.32" font-family="Helvetica,sans-Serif" font-size="14.00">(...)</text>
</g>
<!-- 16431&#45;&gt;16545 -->
<g id="edge27" class="edge">
<title>16431&#45;&gt;16545</title>
<path fill="none" stroke="black" d="M1141.23,-71.75C1143.24,-63.42 1145.29,-54.97 1147.14,-47.34"/>
<polygon fill="black" stroke="black" points="1150.53,-48.19 1149.49,-37.64 1143.73,-46.54 1150.53,-48.19"/>
</g>
<!-- 16583 -->
<g id="node30" class="node">
<title>16583</title>
<path fill="#c0c0c0" stroke="black" d="M1266,-36C1266,-36 1236,-36 1236,-36 1230,-36 1224,-30 1224,-24 1224,-24 1224,-12 1224,-12 1224,-6 1230,0 1236,0 1236,0 1266,0 1266,0 1272,0 1278,-6 1278,-12 1278,-12 1278,-24 1278,-24 1278,-30 1272,-36 1266,-36"/>
<text text-anchor="middle" x="1251" y="-13.32" font-family="Helvetica,sans-Serif" font-size="14.00">(...)</text>
</g>
<!-- 16582&#45;&gt;16583 -->
<g id="edge29" class="edge">
<title>16582&#45;&gt;16583</title>
<path fill="none" stroke="black" d="M1270.16,-71.75C1267.06,-63.22 1263.92,-54.57 1261.1,-46.8"/>
<polygon fill="black" stroke="black" points="1264.46,-45.8 1257.75,-37.6 1257.88,-48.19 1264.46,-45.8"/>
</g>
<!-- 16628 -->
<g id="node31" class="node">
<title>16628</title>
<path fill="#c0c0c0" stroke="black" d="M1338,-36C1338,-36 1308,-36 1308,-36 1302,-36 1296,-30 1296,-24 1296,-24 1296,-12 1296,-12 1296,-6 1302,0 1308,0 1308,0 1338,0 1338,0 1344,0 1350,-6 1350,-12 1350,-12 1350,-24 1350,-24 1350,-30 1344,-36 1338,-36"/>
<text text-anchor="middle" x="1323" y="-13.32" font-family="Helvetica,sans-Serif" font-size="14.00">(...)</text>
</g>
<!-- 16582&#45;&gt;16628 -->
<g id="edge30" class="edge">
<title>16582&#45;&gt;16628</title>
<path fill="none" stroke="black" d="M1303.84,-71.75C1306.94,-63.22 1310.08,-54.57 1312.9,-46.8"/>
<polygon fill="black" stroke="black" points="1316.12,-48.19 1316.25,-37.6 1309.54,-45.8 1316.12,-48.19"/>
</g>
</g>
</svg>
