<?xml version="1.0" encoding="UTF-8" standalone="no"?>
<!DOCTYPE svg PUBLIC "-//W3C//DTD SVG 1.1//EN"
 "http://www.w3.org/Graphics/SVG/1.1/DTD/svg11.dtd">
<!-- Generated by graphviz version 12.0.0 (20240803.0821)
 -->
<!-- Title: Tree Pages: 1 -->
<svg width="1382pt" height="565pt"
 viewBox="0.00 0.00 1382.00 565.00" xmlns="http://www.w3.org/2000/svg" xmlns:xlink="http://www.w3.org/1999/xlink">
<g id="graph0" class="graph" transform="scale(1 1) rotate(0) translate(4 561)">
<title>Tree</title>
<polygon fill="white" stroke="none" points="-4,4 -4,-561 1378,-561 1378,4 -4,4"/>
<!-- 0 -->
<g id="node1" class="node">
<title>0</title>
<path fill="#fdfeff" stroke="black" d="M780,-557C780,-557 620,-557 620,-557 614,-557 608,-551 608,-545 608,-545 608,-474.75 608,-474.75 608,-468.75 614,-462.75 620,-462.75 620,-462.75 780,-462.75 780,-462.75 786,-462.75 792,-468.75 792,-474.75 792,-474.75 792,-545 792,-545 792,-551 786,-557 780,-557"/>
<text text-anchor="middle" x="700" y="-539.7" font-family="Helvetica,sans-Serif" font-size="14.00">22_C &lt;= 0.5</text>
<text text-anchor="middle" x="700" y="-522.45" font-family="Helvetica,sans-Serif" font-size="14.00">entropy = 1.0</text>
<text text-anchor="middle" x="700" y="-505.2" font-family="Helvetica,sans-Serif" font-size="14.00">samples = 38062</text>
<text text-anchor="middle" x="700" y="-487.95" font-family="Helvetica,sans-Serif" font-size="14.00">value = [30010, 30335]</text>
<text text-anchor="middle" x="700" y="-470.7" font-family="Helvetica,sans-Serif" font-size="14.00">class = Plant</text>
</g>
<!-- 1 -->
<g id="node2" class="node">
<title>1</title>
<path fill="#ecf5fc" stroke="black" d="M616,-426.75C616,-426.75 456,-426.75 456,-426.75 450,-426.75 444,-420.75 444,-414.75 444,-414.75 444,-344.5 444,-344.5 444,-338.5 450,-332.5 456,-332.5 456,-332.5 616,-332.5 616,-332.5 622,-332.5 628,-338.5 628,-344.5 628,-344.5 628,-414.75 628,-414.75 628,-420.75 622,-426.75 616,-426.75"/>
<text text-anchor="middle" x="536" y="-409.45" font-family="Helvetica,sans-Serif" font-size="14.00">22_G &lt;= 0.5</text>
<text text-anchor="middle" x="536" y="-392.2" font-family="Helvetica,sans-Serif" font-size="14.00">entropy = 0.998</text>
<text text-anchor="middle" x="536" y="-374.95" font-family="Helvetica,sans-Serif" font-size="14.00">samples = 34374</text>
<text text-anchor="middle" x="536" y="-357.7" font-family="Helvetica,sans-Serif" font-size="14.00">value = [25846, 28634]</text>
<text text-anchor="middle" x="536" y="-340.45" font-family="Helvetica,sans-Serif" font-size="14.00">class = Plant</text>
</g>
<!-- 0&#45;&gt;1 -->
<g id="edge1" class="edge">
<title>0&#45;&gt;1</title>
<path fill="none" stroke="black" d="M640.79,-462.57C628.91,-453.28 616.32,-443.44 604.16,-433.93"/>
<polygon fill="black" stroke="black" points="606.62,-431.41 596.59,-428.01 602.31,-436.92 606.62,-431.41"/>
<text text-anchor="middle" x="598.43" y="-447.21" font-family="Helvetica,sans-Serif" font-size="14.00">True</text>
</g>
<!-- 14746 -->
<g id="node17" class="node">
<title>14746</title>
<path fill="#f0b48a" stroke="black" d="M946,-426.75C946,-426.75 804,-426.75 804,-426.75 798,-426.75 792,-420.75 792,-414.75 792,-414.75 792,-344.5 792,-344.5 792,-338.5 798,-332.5 804,-332.5 804,-332.5 946,-332.5 946,-332.5 952,-332.5 958,-338.5 958,-344.5 958,-344.5 958,-414.75 958,-414.75 958,-420.75 952,-426.75 946,-426.75"/>
<text text-anchor="middle" x="875" y="-409.45" font-family="Helvetica,sans-Serif" font-size="14.00">18_G &lt;= 0.5</text>
<text text-anchor="middle" x="875" y="-392.2" font-family="Helvetica,sans-Serif" font-size="14.00">entropy = 0.869</text>
<text text-anchor="middle" x="875" y="-374.95" font-family="Helvetica,sans-Serif" font-size="14.00">samples = 3688</text>
<text text-anchor="middle" x="875" y="-357.7" font-family="Helvetica,sans-Serif" font-size="14.00">value = [4164, 1701]</text>
<text text-anchor="middle" x="875" y="-340.45" font-family="Helvetica,sans-Serif" font-size="14.00">class = Animal</text>
</g>
<!-- 0&#45;&gt;14746 -->
<g id="edge16" class="edge">
<title>0&#45;&gt;14746</title>
<path fill="none" stroke="black" d="M763.18,-462.57C775.99,-453.19 789.55,-443.25 802.64,-433.65"/>
<polygon fill="black" stroke="black" points="804.4,-436.7 810.4,-427.97 800.26,-431.06 804.4,-436.7"/>
<text text-anchor="middle" x="807.81" y="-447.11" font-family="Helvetica,sans-Serif" font-size="14.00">False</text>
</g>
<!-- 2 -->
<g id="node3" class="node">
<title>2</title>
<path fill="#cae5f8" stroke="black" d="M356,-296.5C356,-296.5 196,-296.5 196,-296.5 190,-296.5 184,-290.5 184,-284.5 184,-284.5 184,-214.25 184,-214.25 184,-208.25 190,-202.25 196,-202.25 196,-202.25 356,-202.25 356,-202.25 362,-202.25 368,-208.25 368,-214.25 368,-214.25 368,-284.5 368,-284.5 368,-290.5 362,-296.5 356,-296.5"/>
<text text-anchor="middle" x="276" y="-279.2" font-family="Helvetica,sans-Serif" font-size="14.00">23_C &lt;= 0.5</text>
<text text-anchor="middle" x="276" y="-261.95" font-family="Helvetica,sans-Serif" font-size="14.00">entropy = 0.983</text>
<text text-anchor="middle" x="276" y="-244.7" font-family="Helvetica,sans-Serif" font-size="14.00">samples = 29468</text>
<text text-anchor="middle" x="276" y="-227.45" font-family="Helvetica,sans-Serif" font-size="14.00">value = [19778, 26998]</text>
<text text-anchor="middle" x="276" y="-210.2" font-family="Helvetica,sans-Serif" font-size="14.00">class = Plant</text>
</g>
<!-- 1&#45;&gt;2 -->
<g id="edge2" class="edge">
<title>1&#45;&gt;2</title>
<path fill="none" stroke="black" d="M443.6,-333.05C422.43,-322.61 399.81,-311.45 378.25,-300.81"/>
<polygon fill="black" stroke="black" points="379.97,-297.76 369.46,-296.48 376.88,-304.04 379.97,-297.76"/>
</g>
<!-- 12703 -->
<g id="node10" class="node">
<title>12703</title>
<path fill="#eca36e" stroke="black" d="M607,-296.5C607,-296.5 465,-296.5 465,-296.5 459,-296.5 453,-290.5 453,-284.5 453,-284.5 453,-214.25 453,-214.25 453,-208.25 459,-202.25 465,-202.25 465,-202.25 607,-202.25 607,-202.25 613,-202.25 619,-208.25 619,-214.25 619,-214.25 619,-284.5 619,-284.5 619,-290.5 613,-296.5 607,-296.5"/>
<text text-anchor="middle" x="536" y="-279.2" font-family="Helvetica,sans-Serif" font-size="14.00">2_U &lt;= 0.5</text>
<text text-anchor="middle" x="536" y="-261.95" font-family="Helvetica,sans-Serif" font-size="14.00">entropy = 0.746</text>
<text text-anchor="middle" x="536" y="-244.7" font-family="Helvetica,sans-Serif" font-size="14.00">samples = 4906</text>
<text text-anchor="middle" x="536" y="-227.45" font-family="Helvetica,sans-Serif" font-size="14.00">value = [6068, 1636]</text>
<text text-anchor="middle" x="536" y="-210.2" font-family="Helvetica,sans-Serif" font-size="14.00">class = Animal</text>
</g>
<!-- 1&#45;&gt;12703 -->
<g id="edge9" class="edge">
<title>1&#45;&gt;12703</title>
<path fill="none" stroke="black" d="M536,-332.32C536,-324.42 536,-316.13 536,-307.98"/>
<polygon fill="black" stroke="black" points="539.5,-308.12 536,-298.12 532.5,-308.12 539.5,-308.12"/>
</g>
<!-- 3 -->
<g id="node4" class="node">
<title>3</title>
<path fill="#c6e3f8" stroke="black" d="M172,-166.25C172,-166.25 12,-166.25 12,-166.25 6,-166.25 0,-160.25 0,-154.25 0,-154.25 0,-84 0,-84 0,-78 6,-72 12,-72 12,-72 172,-72 172,-72 178,-72 184,-78 184,-84 184,-84 184,-154.25 184,-154.25 184,-160.25 178,-166.25 172,-166.25"/>
<text text-anchor="middle" x="92" y="-148.95" font-family="Helvetica,sans-Serif" font-size="14.00">22_A &lt;= 0.5</text>
<text text-anchor="middle" x="92" y="-131.7" font-family="Helvetica,sans-Serif" font-size="14.00">entropy = 0.98</text>
<text text-anchor="middle" x="92" y="-114.45" font-family="Helvetica,sans-Serif" font-size="14.00">samples = 28892</text>
<text text-anchor="middle" x="92" y="-97.2" font-family="Helvetica,sans-Serif" font-size="14.00">value = [19107, 26773]</text>
<text text-anchor="middle" x="92" y="-79.95" font-family="Helvetica,sans-Serif" font-size="14.00">class = Plant</text>
</g>
<!-- 2&#45;&gt;3 -->
<g id="edge3" class="edge">
<title>2&#45;&gt;3</title>
<path fill="none" stroke="black" d="M209.31,-201.89C195.94,-192.57 181.8,-182.72 168.14,-173.19"/>
<polygon fill="black" stroke="black" points="170.22,-170.38 160.01,-167.53 166.21,-176.12 170.22,-170.38"/>
</g>
<!-- 12402 -->
<g id="node7" class="node">
<title>12402</title>
<path fill="#eeab7b" stroke="black" d="M338,-166.25C338,-166.25 214,-166.25 214,-166.25 208,-166.25 202,-160.25 202,-154.25 202,-154.25 202,-84 202,-84 202,-78 208,-72 214,-72 214,-72 338,-72 338,-72 344,-72 350,-78 350,-84 350,-84 350,-154.25 350,-154.25 350,-160.25 344,-166.25 338,-166.25"/>
<text text-anchor="middle" x="276" y="-148.95" font-family="Helvetica,sans-Serif" font-size="14.00">24_C &lt;= 0.5</text>
<text text-anchor="middle" x="276" y="-131.7" font-family="Helvetica,sans-Serif" font-size="14.00">entropy = 0.813</text>
<text text-anchor="middle" x="276" y="-114.45" font-family="Helvetica,sans-Serif" font-size="14.00">samples = 576</text>
<text text-anchor="middle" x="276" y="-97.2" font-family="Helvetica,sans-Serif" font-size="14.00">value = [671, 225]</text>
<text text-anchor="middle" x="276" y="-79.95" font-family="Helvetica,sans-Serif" font-size="14.00">class = Animal</text>
</g>
<!-- 2&#45;&gt;12402 -->
<g id="edge6" class="edge">
<title>2&#45;&gt;12402</title>
<path fill="none" stroke="black" d="M276,-202.07C276,-194.17 276,-185.88 276,-177.73"/>
<polygon fill="black" stroke="black" points="279.5,-177.87 276,-167.87 272.5,-177.87 279.5,-177.87"/>
</g>
<!-- 4 -->
<g id="node5" class="node">
<title>4</title>
<path fill="#c0c0c0" stroke="black" d="M71,-36C71,-36 41,-36 41,-36 35,-36 29,-30 29,-24 29,-24 29,-12 29,-12 29,-6 35,0 41,0 41,0 71,0 71,0 77,0 83,-6 83,-12 83,-12 83,-24 83,-24 83,-30 77,-36 71,-36"/>
<text text-anchor="middle" x="56" y="-13.32" font-family="Helvetica,sans-Serif" font-size="14.00">(...)</text>
</g>
<!-- 3&#45;&gt;4 -->
<g id="edge4" class="edge">
<title>3&#45;&gt;4</title>
<path fill="none" stroke="black" d="M75.16,-71.75C72.06,-63.22 68.92,-54.57 66.1,-46.8"/>
<polygon fill="black" stroke="black" points="69.46,-45.8 62.75,-37.6 62.88,-48.19 69.46,-45.8"/>
</g>
<!-- 10605 -->
<g id="node6" class="node">
<title>10605</title>
<path fill="#c0c0c0" stroke="black" d="M143,-36C143,-36 113,-36 113,-36 107,-36 101,-30 101,-24 101,-24 101,-12 101,-12 101,-6 107,0 113,0 113,0 143,0 143,0 149,0 155,-6 155,-12 155,-12 155,-24 155,-24 155,-30 149,-36 143,-36"/>
<text text-anchor="middle" x="128" y="-13.32" font-family="Helvetica,sans-Serif" font-size="14.00">(...)</text>
</g>
<!-- 3&#45;&gt;10605 -->
<g id="edge5" class="edge">
<title>3&#45;&gt;10605</title>
<path fill="none" stroke="black" d="M108.84,-71.75C111.94,-63.22 115.08,-54.57 117.9,-46.8"/>
<polygon fill="black" stroke="black" points="121.12,-48.19 121.25,-37.6 114.54,-45.8 121.12,-48.19"/>
</g>
<!-- 12403 -->
<g id="node8" class="node">
<title>12403</title>
<path fill="#c0c0c0" stroke="black" d="M248,-36C248,-36 218,-36 218,-36 212,-36 206,-30 206,-24 206,-24 206,-12 206,-12 206,-6 212,0 218,0 218,0 248,0 248,0 254,0 260,-6 260,-12 260,-12 260,-24 260,-24 260,-30 254,-36 248,-36"/>
<text text-anchor="middle" x="233" y="-13.32" font-family="Helvetica,sans-Serif" font-size="14.00">(...)</text>
</g>
<!-- 12402&#45;&gt;12403 -->
<g id="edge7" class="edge">
<title>12402&#45;&gt;12403</title>
<path fill="none" stroke="black" d="M255.88,-71.75C252.14,-63.12 248.34,-54.36 244.94,-46.53"/>
<polygon fill="black" stroke="black" points="248.24,-45.34 241.05,-37.56 241.82,-48.13 248.24,-45.34"/>
</g>
<!-- 12662 -->
<g id="node9" class="node">
<title>12662</title>
<path fill="#c0c0c0" stroke="black" d="M320,-36C320,-36 290,-36 290,-36 284,-36 278,-30 278,-24 278,-24 278,-12 278,-12 278,-6 284,0 290,0 290,0 320,0 320,0 326,0 332,-6 332,-12 332,-12 332,-24 332,-24 332,-30 326,-36 320,-36"/>
<text text-anchor="middle" x="305" y="-13.32" font-family="Helvetica,sans-Serif" font-size="14.00">(...)</text>
</g>
<!-- 12402&#45;&gt;12662 -->
<g id="edge8" class="edge">
<title>12402&#45;&gt;12662</title>
<path fill="none" stroke="black" d="M289.57,-71.75C292.03,-63.32 294.54,-54.77 296.79,-47.07"/>
<polygon fill="black" stroke="black" points="300.1,-48.21 299.55,-37.63 293.38,-46.24 300.1,-48.21"/>
</g>
<!-- 12704 -->
<g id="node11" class="node">
<title>12704</title>
<path fill="#eb9f68" stroke="black" d="M522,-166.25C522,-166.25 380,-166.25 380,-166.25 374,-166.25 368,-160.25 368,-154.25 368,-154.25 368,-84 368,-84 368,-78 374,-72 380,-72 380,-72 522,-72 522,-72 528,-72 534,-78 534,-84 534,-84 534,-154.25 534,-154.25 534,-160.25 528,-166.25 522,-166.25"/>
<text text-anchor="middle" x="451" y="-148.95" font-family="Helvetica,sans-Serif" font-size="14.00">21_C &lt;= 0.5</text>
<text text-anchor="middle" x="451" y="-131.7" font-family="Helvetica,sans-Serif" font-size="14.00">entropy = 0.707</text>
<text text-anchor="middle" x="451" y="-114.45" font-family="Helvetica,sans-Serif" font-size="14.00">samples = 4036</text>
<text text-anchor="middle" x="451" y="-97.2" font-family="Helvetica,sans-Serif" font-size="14.00">value = [5137, 1224]</text>
<text text-anchor="middle" x="451" y="-79.95" font-family="Helvetica,sans-Serif" font-size="14.00">class = Animal</text>
</g>
<!-- 12703&#45;&gt;12704 -->
<g id="edge10" class="edge">
<title>12703&#45;&gt;12704</title>
<path fill="none" stroke="black" d="M505.31,-202.07C499.66,-193.54 493.7,-184.54 487.88,-175.77"/>
<polygon fill="black" stroke="black" points="490.92,-174.02 482.48,-167.62 485.09,-177.89 490.92,-174.02"/>
</g>
<!-- 14229 -->
<g id="node14" class="node">
<title>14229</title>
<path fill="#f1b991" stroke="black" d="M688,-166.25C688,-166.25 564,-166.25 564,-166.25 558,-166.25 552,-160.25 552,-154.25 552,-154.25 552,-84 552,-84 552,-78 558,-72 564,-72 564,-72 688,-72 688,-72 694,-72 700,-78 700,-84 700,-84 700,-154.25 700,-154.25 700,-160.25 694,-166.25 688,-166.25"/>
<text text-anchor="middle" x="626" y="-148.95" font-family="Helvetica,sans-Serif" font-size="14.00">15_C &lt;= 0.5</text>
<text text-anchor="middle" x="626" y="-131.7" font-family="Helvetica,sans-Serif" font-size="14.00">entropy = 0.889</text>
<text text-anchor="middle" x="626" y="-114.45" font-family="Helvetica,sans-Serif" font-size="14.00">samples = 870</text>
<text text-anchor="middle" x="626" y="-97.2" font-family="Helvetica,sans-Serif" font-size="14.00">value = [931, 412]</text>
<text text-anchor="middle" x="626" y="-79.95" font-family="Helvetica,sans-Serif" font-size="14.00">class = Animal</text>
</g>
<!-- 12703&#45;&gt;14229 -->
<g id="edge13" class="edge">
<title>12703&#45;&gt;14229</title>
<path fill="none" stroke="black" d="M568.49,-202.07C574.48,-193.54 580.79,-184.54 586.95,-175.77"/>
<polygon fill="black" stroke="black" points="589.81,-177.79 592.69,-167.6 584.08,-173.77 589.81,-177.79"/>
</g>
<!-- 12705 -->
<g id="node12" class="node">
<title>12705</title>
<path fill="#c0c0c0" stroke="black" d="M423,-36C423,-36 393,-36 393,-36 387,-36 381,-30 381,-24 381,-24 381,-12 381,-12 381,-6 387,0 393,0 393,0 423,0 423,0 429,0 435,-6 435,-12 435,-12 435,-24 435,-24 435,-30 429,-36 423,-36"/>
<text text-anchor="middle" x="408" y="-13.32" font-family="Helvetica,sans-Serif" font-size="14.00">(...)</text>
</g>
<!-- 12704&#45;&gt;12705 -->
<g id="edge11" class="edge">
<title>12704&#45;&gt;12705</title>
<path fill="none" stroke="black" d="M430.88,-71.75C427.14,-63.12 423.34,-54.36 419.94,-46.53"/>
<polygon fill="black" stroke="black" points="423.24,-45.34 416.05,-37.56 416.82,-48.13 423.24,-45.34"/>
</g>
<!-- 14018 -->
<g id="node13" class="node">
<title>14018</title>
<path fill="#c0c0c0" stroke="black" d="M495,-36C495,-36 465,-36 465,-36 459,-36 453,-30 453,-24 453,-24 453,-12 453,-12 453,-6 459,0 465,0 465,0 495,0 495,0 501,0 507,-6 507,-12 507,-12 507,-24 507,-24 507,-30 501,-36 495,-36"/>
<text text-anchor="middle" x="480" y="-13.32" font-family="Helvetica,sans-Serif" font-size="14.00">(...)</text>
</g>
<!-- 12704&#45;&gt;14018 -->
<g id="edge12" class="edge">
<title>12704&#45;&gt;14018</title>
<path fill="none" stroke="black" d="M464.57,-71.75C467.03,-63.32 469.54,-54.77 471.79,-47.07"/>
<polygon fill="black" stroke="black" points="475.1,-48.21 474.55,-37.63 468.38,-46.24 475.1,-48.21"/>
</g>
<!-- 14230 -->
<g id="node15" class="node">
<title>14230</title>
<path fill="#c0c0c0" stroke="black" d="M582,-36C582,-36 552,-36 552,-36 546,-36 540,-30 540,-24 540,-24 540,-12 540,-12 540,-6 546,0 552,0 552,0 582,0 582,0 588,0 594,-6 594,-12 594,-12 594,-24 594,-24 594,-30 588,-36 582,-36"/>
<text text-anchor="middle" x="567" y="-13.32" font-family="Helvetica,sans-Serif" font-size="14.00">(...)</text>
</g>
<!-- 14229&#45;&gt;14230 -->
<g id="edge14" class="edge">
<title>14229&#45;&gt;14230</title>
<path fill="none" stroke="black" d="M598.4,-71.75C593.15,-62.93 587.81,-53.96 583.06,-45.99"/>
<polygon fill="black" stroke="black" points="586.12,-44.28 578,-37.47 580.1,-47.86 586.12,-44.28"/>
</g>
<!-- 14627 -->
<g id="node16" class="node">
<title>14627</title>
<path fill="#c0c0c0" stroke="black" d="M654,-36C654,-36 624,-36 624,-36 618,-36 612,-30 612,-24 612,-24 612,-12 612,-12 612,-6 618,0 624,0 624,0 654,0 654,0 660,0 666,-6 666,-12 666,-12 666,-24 666,-24 666,-30 660,-36 654,-36"/>
<text text-anchor="middle" x="639" y="-13.32" font-family="Helvetica,sans-Serif" font-size="14.00">(...)</text>
</g>
<!-- 14229&#45;&gt;14627 -->
<g id="edge15" class="edge">
<title>14229&#45;&gt;14627</title>
<path fill="none" stroke="black" d="M632.08,-71.75C633.17,-63.42 634.28,-54.97 635.28,-47.34"/>
<polygon fill="black" stroke="black" points="638.72,-48.04 636.55,-37.67 631.78,-47.13 638.72,-48.04"/>
</g>
<!-- 14747 -->
<g id="node18" class="node">
<title>14747</title>
<path fill="#efaf82" stroke="black" d="M946,-296.5C946,-296.5 804,-296.5 804,-296.5 798,-296.5 792,-290.5 792,-284.5 792,-284.5 792,-214.25 792,-214.25 792,-208.25 798,-202.25 804,-202.25 804,-202.25 946,-202.25 946,-202.25 952,-202.25 958,-208.25 958,-214.25 958,-214.25 958,-284.5 958,-284.5 958,-290.5 952,-296.5 946,-296.5"/>
<text text-anchor="middle" x="875" y="-279.2" font-family="Helvetica,sans-Serif" font-size="14.00">9_C &lt;= 0.5</text>
<text text-anchor="middle" x="875" y="-261.95" font-family="Helvetica,sans-Serif" font-size="14.00">entropy = 0.841</text>
<text text-anchor="middle" x="875" y="-244.7" font-family="Helvetica,sans-Serif" font-size="14.00">samples = 2712</text>
<text text-anchor="middle" x="875" y="-227.45" font-family="Helvetica,sans-Serif" font-size="14.00">value = [3163, 1166]</text>
<text text-anchor="middle" x="875" y="-210.2" font-family="Helvetica,sans-Serif" font-size="14.00">class = Animal</text>
</g>
<!-- 14746&#45;&gt;14747 -->
<g id="edge17" class="edge">
<title>14746&#45;&gt;14747</title>
<path fill="none" stroke="black" d="M875,-332.32C875,-324.42 875,-316.13 875,-307.98"/>
<polygon fill="black" stroke="black" points="878.5,-308.12 875,-298.12 871.5,-308.12 878.5,-308.12"/>
</g>
<!-- 16052 -->
<g id="node25" class="node">
<title>16052</title>
<path fill="#f3c4a3" stroke="black" d="M1200.5,-296.5C1200.5,-296.5 1067.5,-296.5 1067.5,-296.5 1061.5,-296.5 1055.5,-290.5 1055.5,-284.5 1055.5,-284.5 1055.5,-214.25 1055.5,-214.25 1055.5,-208.25 1061.5,-202.25 1067.5,-202.25 1067.5,-202.25 1200.5,-202.25 1200.5,-202.25 1206.5,-202.25 1212.5,-208.25 1212.5,-214.25 1212.5,-214.25 1212.5,-284.5 1212.5,-284.5 1212.5,-290.5 1206.5,-296.5 1200.5,-296.5"/>
<text text-anchor="middle" x="1134" y="-279.2" font-family="Helvetica,sans-Serif" font-size="14.00">12_A &lt;= 0.5</text>
<text text-anchor="middle" x="1134" y="-261.95" font-family="Helvetica,sans-Serif" font-size="14.00">entropy = 0.933</text>
<text text-anchor="middle" x="1134" y="-244.7" font-family="Helvetica,sans-Serif" font-size="14.00">samples = 976</text>
<text text-anchor="middle" x="1134" y="-227.45" font-family="Helvetica,sans-Serif" font-size="14.00">value = [1001, 535]</text>
<text text-anchor="middle" x="1134" y="-210.2" font-family="Helvetica,sans-Serif" font-size="14.00">class = Animal</text>
</g>
<!-- 14746&#45;&gt;16052 -->
<g id="edge24" class="edge">
<title>14746&#45;&gt;16052</title>
<path fill="none" stroke="black" d="M958.37,-337.34C986.03,-323.64 1016.92,-308.35 1044.99,-294.45"/>
<polygon fill="black" stroke="black" points="1046.42,-297.65 1053.83,-290.07 1043.32,-291.37 1046.42,-297.65"/>
</g>
<!-- 14748 -->
<g id="node19" class="node">
<title>14748</title>
<path fill="#f0b48a" stroke="black" d="M863.5,-166.25C863.5,-166.25 730.5,-166.25 730.5,-166.25 724.5,-166.25 718.5,-160.25 718.5,-154.25 718.5,-154.25 718.5,-84 718.5,-84 718.5,-78 724.5,-72 730.5,-72 730.5,-72 863.5,-72 863.5,-72 869.5,-72 875.5,-78 875.5,-84 875.5,-84 875.5,-154.25 875.5,-154.25 875.5,-160.25 869.5,-166.25 863.5,-166.25"/>
<text text-anchor="middle" x="797" y="-148.95" font-family="Helvetica,sans-Serif" font-size="14.00">27_A &lt;= 0.5</text>
<text text-anchor="middle" x="797" y="-131.7" font-family="Helvetica,sans-Serif" font-size="14.00">entropy = 0.868</text>
<text text-anchor="middle" x="797" y="-114.45" font-family="Helvetica,sans-Serif" font-size="14.00">samples = 2054</text>
<text text-anchor="middle" x="797" y="-97.2" font-family="Helvetica,sans-Serif" font-size="14.00">value = [2304, 937]</text>
<text text-anchor="middle" x="797" y="-79.95" font-family="Helvetica,sans-Serif" font-size="14.00">class = Animal</text>
</g>
<!-- 14747&#45;&gt;14748 -->
<g id="edge18" class="edge">
<title>14747&#45;&gt;14748</title>
<path fill="none" stroke="black" d="M846.84,-202.07C841.7,-193.63 836.3,-184.74 831.01,-176.05"/>
<polygon fill="black" stroke="black" points="834.09,-174.38 825.9,-167.65 828.11,-178.01 834.09,-174.38"/>
</g>
<!-- 15727 -->
<g id="node22" class="node">
<title>15727</title>
<path fill="#eca36e" stroke="black" d="M1030,-166.25C1030,-166.25 906,-166.25 906,-166.25 900,-166.25 894,-160.25 894,-154.25 894,-154.25 894,-84 894,-84 894,-78 900,-72 906,-72 906,-72 1030,-72 1030,-72 1036,-72 1042,-78 1042,-84 1042,-84 1042,-154.25 1042,-154.25 1042,-160.25 1036,-166.25 1030,-166.25"/>
<text text-anchor="middle" x="968" y="-148.95" font-family="Helvetica,sans-Serif" font-size="14.00">23_G &lt;= 0.5</text>
<text text-anchor="middle" x="968" y="-131.7" font-family="Helvetica,sans-Serif" font-size="14.00">entropy = 0.742</text>
<text text-anchor="middle" x="968" y="-114.45" font-family="Helvetica,sans-Serif" font-size="14.00">samples = 658</text>
<text text-anchor="middle" x="968" y="-97.2" font-family="Helvetica,sans-Serif" font-size="14.00">value = [859, 229]</text>
<text text-anchor="middle" x="968" y="-79.95" font-family="Helvetica,sans-Serif" font-size="14.00">class = Animal</text>
</g>
<!-- 14747&#45;&gt;15727 -->
<g id="edge21" class="edge">
<title>14747&#45;&gt;15727</title>
<path fill="none" stroke="black" d="M908.58,-202.07C914.83,-193.45 921.43,-184.35 927.85,-175.49"/>
<polygon fill="black" stroke="black" points="930.55,-177.73 933.59,-167.58 924.88,-173.62 930.55,-177.73"/>
</g>
<!-- 14749 -->
<g id="node20" class="node">
<title>14749</title>
<path fill="#c0c0c0" stroke="black" d="M753,-36C753,-36 723,-36 723,-36 717,-36 711,-30 711,-24 711,-24 711,-12 711,-12 711,-6 717,0 723,0 723,0 753,0 753,0 759,0 765,-6 765,-12 765,-12 765,-24 765,-24 765,-30 759,-36 753,-36"/>
<text text-anchor="middle" x="738" y="-13.32" font-family="Helvetica,sans-Serif" font-size="14.00">(...)</text>
</g>
<!-- 14748&#45;&gt;14749 -->
<g id="edge19" class="edge">
<title>14748&#45;&gt;14749</title>
<path fill="none" stroke="black" d="M769.4,-71.75C764.15,-62.93 758.81,-53.96 754.06,-45.99"/>
<polygon fill="black" stroke="black" points="757.12,-44.28 749,-37.47 751.1,-47.86 757.12,-44.28"/>
</g>
<!-- 15724 -->
<g id="node21" class="node">
<title>15724</title>
<path fill="#c0c0c0" stroke="black" d="M825,-36C825,-36 795,-36 795,-36 789,-36 783,-30 783,-24 783,-24 783,-12 783,-12 783,-6 789,0 795,0 795,0 825,0 825,0 831,0 837,-6 837,-12 837,-12 837,-24 837,-24 837,-30 831,-36 825,-36"/>
<text text-anchor="middle" x="810" y="-13.32" font-family="Helvetica,sans-Serif" font-size="14.00">(...)</text>
</g>
<!-- 14748&#45;&gt;15724 -->
<g id="edge20" class="edge">
<title>14748&#45;&gt;15724</title>
<path fill="none" stroke="black" d="M803.08,-71.75C804.17,-63.42 805.28,-54.97 806.28,-47.34"/>
<polygon fill="black" stroke="black" points="809.72,-48.04 807.55,-37.67 802.78,-47.13 809.72,-48.04"/>
</g>
<!-- 15728 -->
<g id="node23" class="node">
<title>15728</title>
<path fill="#c0c0c0" stroke="black" d="M922,-36C922,-36 892,-36 892,-36 886,-36 880,-30 880,-24 880,-24 880,-12 880,-12 880,-6 886,0 892,0 892,0 922,0 922,0 928,0 934,-6 934,-12 934,-12 934,-24 934,-24 934,-30 928,-36 922,-36"/>
<text text-anchor="middle" x="907" y="-13.32" font-family="Helvetica,sans-Serif" font-size="14.00">(...)</text>
</g>
<!-- 15727&#45;&gt;15728 -->
<g id="edge22" class="edge">
<title>15727&#45;&gt;15728</title>
<path fill="none" stroke="black" d="M939.46,-71.75C933.97,-62.83 928.39,-53.76 923.44,-45.72"/>
<polygon fill="black" stroke="black" points="926.58,-44.14 918.36,-37.46 920.62,-47.81 926.58,-44.14"/>
</g>
<!-- 16035 -->
<g id="node24" class="node">
<title>16035</title>
<path fill="#c0c0c0" stroke="black" d="M994,-36C994,-36 964,-36 964,-36 958,-36 952,-30 952,-24 952,-24 952,-12 952,-12 952,-6 958,0 964,0 964,0 994,0 994,0 1000,0 1006,-6 1006,-12 1006,-12 1006,-24 1006,-24 1006,-30 1000,-36 994,-36"/>
<text text-anchor="middle" x="979" y="-13.32" font-family="Helvetica,sans-Serif" font-size="14.00">(...)</text>
</g>
<!-- 15727&#45;&gt;16035 -->
<g id="edge23" class="edge">
<title>15727&#45;&gt;16035</title>
<path fill="none" stroke="black" d="M973.15,-71.75C974.06,-63.52 974.99,-55.17 975.82,-47.61"/>
<polygon fill="black" stroke="black" points="979.3,-48 976.93,-37.68 972.35,-47.23 979.3,-48"/>
</g>
<!-- 16053 -->
<g id="node26" class="node">
<title>16053</title>
<path fill="#f2c19d" stroke="black" d="M1196,-166.25C1196,-166.25 1072,-166.25 1072,-166.25 1066,-166.25 1060,-160.25 1060,-154.25 1060,-154.25 1060,-84 1060,-84 1060,-78 1066,-72 1072,-72 1072,-72 1196,-72 1196,-72 1202,-72 1208,-78 1208,-84 1208,-84 1208,-154.25 1208,-154.25 1208,-160.25 1202,-166.25 1196,-166.25"/>
<text text-anchor="middle" x="1134" y="-148.95" font-family="Helvetica,sans-Serif" font-size="14.00">9_G &lt;= 0.5</text>
<text text-anchor="middle" x="1134" y="-131.7" font-family="Helvetica,sans-Serif" font-size="14.00">entropy = 0.921</text>
<text text-anchor="middle" x="1134" y="-114.45" font-family="Helvetica,sans-Serif" font-size="14.00">samples = 758</text>
<text text-anchor="middle" x="1134" y="-97.2" font-family="Helvetica,sans-Serif" font-size="14.00">value = [797, 403]</text>
<text text-anchor="middle" x="1134" y="-79.95" font-family="Helvetica,sans-Serif" font-size="14.00">class = Animal</text>
</g>
<!-- 16052&#45;&gt;16053 -->
<g id="edge25" class="edge">
<title>16052&#45;&gt;16053</title>
<path fill="none" stroke="black" d="M1134,-202.07C1134,-194.17 1134,-185.88 1134,-177.73"/>
<polygon fill="black" stroke="black" points="1137.5,-177.87 1134,-167.87 1130.5,-177.87 1137.5,-177.87"/>
</g>
<!-- 16480 -->
<g id="node29" class="node">
<title>16480</title>
<path fill="#f6d3b9" stroke="black" d="M1362,-166.25C1362,-166.25 1238,-166.25 1238,-166.25 1232,-166.25 1226,-160.25 1226,-154.25 1226,-154.25 1226,-84 1226,-84 1226,-78 1232,-72 1238,-72 1238,-72 1362,-72 1362,-72 1368,-72 1374,-78 1374,-84 1374,-84 1374,-154.25 1374,-154.25 1374,-160.25 1368,-166.25 1362,-166.25"/>
<text text-anchor="middle" x="1300" y="-148.95" font-family="Helvetica,sans-Serif" font-size="14.00">6_G &lt;= 0.5</text>
<text text-anchor="middle" x="1300" y="-131.7" font-family="Helvetica,sans-Serif" font-size="14.00">entropy = 0.967</text>
<text text-anchor="middle" x="1300" y="-114.45" font-family="Helvetica,sans-Serif" font-size="14.00">samples = 218</text>
<text text-anchor="middle" x="1300" y="-97.2" font-family="Helvetica,sans-Serif" font-size="14.00">value = [204, 132]</text>
<text text-anchor="middle" x="1300" y="-79.95" font-family="Helvetica,sans-Serif" font-size="14.00">class = Animal</text>
</g>
<!-- 16052&#45;&gt;16480 -->
<g id="edge28" class="edge">
<title>16052&#45;&gt;16480</title>
<path fill="none" stroke="black" d="M1193.93,-202.07C1205.96,-192.78 1218.7,-182.94 1231.01,-173.43"/>
<polygon fill="black" stroke="black" points="1232.91,-176.38 1238.68,-167.5 1228.63,-170.84 1232.91,-176.38"/>
</g>
<!-- 16054 -->
<g id="node27" class="node">
<title>16054</title>
<path fill="#c0c0c0" stroke="black" d="M1106,-36C1106,-36 1076,-36 1076,-36 1070,-36 1064,-30 1064,-24 1064,-24 1064,-12 1064,-12 1064,-6 1070,0 1076,0 1076,0 1106,0 1106,0 1112,0 1118,-6 1118,-12 1118,-12 1118,-24 1118,-24 1118,-30 1112,-36 1106,-36"/>
<text text-anchor="middle" x="1091" y="-13.32" font-family="Helvetica,sans-Serif" font-size="14.00">(...)</text>
</g>
<!-- 16053&#45;&gt;16054 -->
<g id="edge26" class="edge">
<title>16053&#45;&gt;16054</title>
<path fill="none" stroke="black" d="M1113.88,-71.75C1110.14,-63.12 1106.34,-54.36 1102.94,-46.53"/>
<polygon fill="black" stroke="black" points="1106.24,-45.34 1099.05,-37.56 1099.82,-48.13 1106.24,-45.34"/>
</g>
<!-- 16379 -->
<g id="node28" class="node">
<title>16379</title>
<path fill="#c0c0c0" stroke="black" d="M1178,-36C1178,-36 1148,-36 1148,-36 1142,-36 1136,-30 1136,-24 1136,-24 1136,-12 1136,-12 1136,-6 1142,0 1148,0 1148,0 1178,0 1178,0 1184,0 1190,-6 1190,-12 1190,-12 1190,-24 1190,-24 1190,-30 1184,-36 1178,-36"/>
<text text-anchor="middle" x="1163" y="-13.32" font-family="Helvetica,sans-Serif" font-size="14.00">(...)</text>
</g>
<!-- 16053&#45;&gt;16379 -->
<g id="edge27" class="edge">
<title>16053&#45;&gt;16379</title>
<path fill="none" stroke="black" d="M1147.57,-71.75C1150.03,-63.32 1152.54,-54.77 1154.79,-47.07"/>
<polygon fill="black" stroke="black" points="1158.1,-48.21 1157.55,-37.63 1151.38,-46.24 1158.1,-48.21"/>
</g>
<!-- 16481 -->
<g id="node30" class="node">
<title>16481</title>
<path fill="#c0c0c0" stroke="black" d="M1279,-36C1279,-36 1249,-36 1249,-36 1243,-36 1237,-30 1237,-24 1237,-24 1237,-12 1237,-12 1237,-6 1243,0 1249,0 1249,0 1279,0 1279,0 1285,0 1291,-6 1291,-12 1291,-12 1291,-24 1291,-24 1291,-30 1285,-36 1279,-36"/>
<text text-anchor="middle" x="1264" y="-13.32" font-family="Helvetica,sans-Serif" font-size="14.00">(...)</text>
</g>
<!-- 16480&#45;&gt;16481 -->
<g id="edge29" class="edge">
<title>16480&#45;&gt;16481</title>
<path fill="none" stroke="black" d="M1283.16,-71.75C1280.06,-63.22 1276.92,-54.57 1274.1,-46.8"/>
<polygon fill="black" stroke="black" points="1277.46,-45.8 1270.75,-37.6 1270.88,-48.19 1277.46,-45.8"/>
</g>
<!-- 16562 -->
<g id="node31" class="node">
<title>16562</title>
<path fill="#c0c0c0" stroke="black" d="M1351,-36C1351,-36 1321,-36 1321,-36 1315,-36 1309,-30 1309,-24 1309,-24 1309,-12 1309,-12 1309,-6 1315,0 1321,0 1321,0 1351,0 1351,0 1357,0 1363,-6 1363,-12 1363,-12 1363,-24 1363,-24 1363,-30 1357,-36 1351,-36"/>
<text text-anchor="middle" x="1336" y="-13.32" font-family="Helvetica,sans-Serif" font-size="14.00">(...)</text>
</g>
<!-- 16480&#45;&gt;16562 -->
<g id="edge30" class="edge">
<title>16480&#45;&gt;16562</title>
<path fill="none" stroke="black" d="M1316.84,-71.75C1319.94,-63.22 1323.08,-54.57 1325.9,-46.8"/>
<polygon fill="black" stroke="black" points="1329.12,-48.19 1329.25,-37.6 1322.54,-45.8 1329.12,-48.19"/>
</g>
</g>
</svg>
