<?xml version="1.0" encoding="UTF-8" standalone="no"?>
<!DOCTYPE svg PUBLIC "-//W3C//DTD SVG 1.1//EN"
 "http://www.w3.org/Graphics/SVG/1.1/DTD/svg11.dtd">
<!-- Generated by graphviz version 12.0.0 (20240803.0821)
 -->
<!-- Title: Tree Pages: 1 -->
<svg width="1444pt" height="565pt"
 viewBox="0.00 0.00 1444.00 565.00" xmlns="http://www.w3.org/2000/svg" xmlns:xlink="http://www.w3.org/1999/xlink">
<g id="graph0" class="graph" transform="scale(1 1) rotate(0) translate(4 561)">
<title>Tree</title>
<polygon fill="white" stroke="none" points="-4,4 -4,-561 1440,-561 1440,4 -4,4"/>
<!-- 0 -->
<g id="node1" class="node">
<title>0</title>
<path fill="#fffefd" stroke="black" d="M800,-557C800,-557 640,-557 640,-557 634,-557 628,-551 628,-545 628,-545 628,-474.75 628,-474.75 628,-468.75 634,-462.75 640,-462.75 640,-462.75 800,-462.75 800,-462.75 806,-462.75 812,-468.75 812,-474.75 812,-474.75 812,-545 812,-545 812,-551 806,-557 800,-557"/>
<text text-anchor="middle" x="720" y="-539.7" font-family="Helvetica,sans-Serif" font-size="14.00">9_U &lt;= 0.5</text>
<text text-anchor="middle" x="720" y="-522.45" font-family="Helvetica,sans-Serif" font-size="14.00">entropy = 1.0</text>
<text text-anchor="middle" x="720" y="-505.2" font-family="Helvetica,sans-Serif" font-size="14.00">samples = 38171</text>
<text text-anchor="middle" x="720" y="-487.95" font-family="Helvetica,sans-Serif" font-size="14.00">value = [30299, 30046]</text>
<text text-anchor="middle" x="720" y="-470.7" font-family="Helvetica,sans-Serif" font-size="14.00">class = Animal</text>
</g>
<!-- 1 -->
<g id="node2" class="node">
<title>1</title>
<path fill="#ddeefa" stroke="black" d="M625,-426.75C625,-426.75 465,-426.75 465,-426.75 459,-426.75 453,-420.75 453,-414.75 453,-414.75 453,-344.5 453,-344.5 453,-338.5 459,-332.5 465,-332.5 465,-332.5 625,-332.5 625,-332.5 631,-332.5 637,-338.5 637,-344.5 637,-344.5 637,-414.75 637,-414.75 637,-420.75 631,-426.75 625,-426.75"/>
<text text-anchor="middle" x="545" y="-409.45" font-family="Helvetica,sans-Serif" font-size="14.00">20_G &lt;= 0.5</text>
<text text-anchor="middle" x="545" y="-392.2" font-family="Helvetica,sans-Serif" font-size="14.00">entropy = 0.993</text>
<text text-anchor="middle" x="545" y="-374.95" font-family="Helvetica,sans-Serif" font-size="14.00">samples = 27519</text>
<text text-anchor="middle" x="545" y="-357.7" font-family="Helvetica,sans-Serif" font-size="14.00">value = [19623, 23742]</text>
<text text-anchor="middle" x="545" y="-340.45" font-family="Helvetica,sans-Serif" font-size="14.00">class = Plant</text>
</g>
<!-- 0&#45;&gt;1 -->
<g id="edge1" class="edge">
<title>0&#45;&gt;1</title>
<path fill="none" stroke="black" d="M656.82,-462.57C644.01,-453.19 630.45,-443.25 617.36,-433.65"/>
<polygon fill="black" stroke="black" points="619.74,-431.06 609.6,-427.97 615.6,-436.7 619.74,-431.06"/>
<text text-anchor="middle" x="612.19" y="-447.11" font-family="Helvetica,sans-Serif" font-size="14.00">True</text>
</g>
<!-- 12314 -->
<g id="node17" class="node">
<title>12314</title>
<path fill="#f4cbae" stroke="black" d="M986.5,-426.75C986.5,-426.75 835.5,-426.75 835.5,-426.75 829.5,-426.75 823.5,-420.75 823.5,-414.75 823.5,-414.75 823.5,-344.5 823.5,-344.5 823.5,-338.5 829.5,-332.5 835.5,-332.5 835.5,-332.5 986.5,-332.5 986.5,-332.5 992.5,-332.5 998.5,-338.5 998.5,-344.5 998.5,-344.5 998.5,-414.75 998.5,-414.75 998.5,-420.75 992.5,-426.75 986.5,-426.75"/>
<text text-anchor="middle" x="911" y="-409.45" font-family="Helvetica,sans-Serif" font-size="14.00">8_G &lt;= 0.5</text>
<text text-anchor="middle" x="911" y="-392.2" font-family="Helvetica,sans-Serif" font-size="14.00">entropy = 0.952</text>
<text text-anchor="middle" x="911" y="-374.95" font-family="Helvetica,sans-Serif" font-size="14.00">samples = 10652</text>
<text text-anchor="middle" x="911" y="-357.7" font-family="Helvetica,sans-Serif" font-size="14.00">value = [10676, 6304]</text>
<text text-anchor="middle" x="911" y="-340.45" font-family="Helvetica,sans-Serif" font-size="14.00">class = Animal</text>
</g>
<!-- 0&#45;&gt;12314 -->
<g id="edge16" class="edge">
<title>0&#45;&gt;12314</title>
<path fill="none" stroke="black" d="M789.23,-462.39C803.24,-452.98 818.07,-443.03 832.38,-433.42"/>
<polygon fill="black" stroke="black" points="834.08,-436.49 840.43,-428.01 830.18,-430.68 834.08,-436.49"/>
<text text-anchor="middle" x="836.87" y="-447.02" font-family="Helvetica,sans-Serif" font-size="14.00">False</text>
</g>
<!-- 2 -->
<g id="node3" class="node">
<title>2</title>
<path fill="#c8e4f8" stroke="black" d="M356,-296.5C356,-296.5 196,-296.5 196,-296.5 190,-296.5 184,-290.5 184,-284.5 184,-284.5 184,-214.25 184,-214.25 184,-208.25 190,-202.25 196,-202.25 196,-202.25 356,-202.25 356,-202.25 362,-202.25 368,-208.25 368,-214.25 368,-214.25 368,-284.5 368,-284.5 368,-290.5 362,-296.5 356,-296.5"/>
<text text-anchor="middle" x="276" y="-279.2" font-family="Helvetica,sans-Serif" font-size="14.00">23_C &lt;= 0.5</text>
<text text-anchor="middle" x="276" y="-261.95" font-family="Helvetica,sans-Serif" font-size="14.00">entropy = 0.981</text>
<text text-anchor="middle" x="276" y="-244.7" font-family="Helvetica,sans-Serif" font-size="14.00">samples = 21548</text>
<text text-anchor="middle" x="276" y="-227.45" font-family="Helvetica,sans-Serif" font-size="14.00">value = [14207, 19696]</text>
<text text-anchor="middle" x="276" y="-210.2" font-family="Helvetica,sans-Serif" font-size="14.00">class = Plant</text>
</g>
<!-- 1&#45;&gt;2 -->
<g id="edge2" class="edge">
<title>1&#45;&gt;2</title>
<path fill="none" stroke="black" d="M452.8,-334.67C428.85,-323.25 402.9,-310.88 378.45,-299.22"/>
<polygon fill="black" stroke="black" points="379.98,-296.07 369.44,-294.93 376.96,-302.39 379.98,-296.07"/>
</g>
<!-- 9167 -->
<g id="node10" class="node">
<title>9167</title>
<path fill="#f8dfcd" stroke="black" d="M616,-296.5C616,-296.5 474,-296.5 474,-296.5 468,-296.5 462,-290.5 462,-284.5 462,-284.5 462,-214.25 462,-214.25 462,-208.25 468,-202.25 474,-202.25 474,-202.25 616,-202.25 616,-202.25 622,-202.25 628,-208.25 628,-214.25 628,-214.25 628,-284.5 628,-284.5 628,-290.5 622,-296.5 616,-296.5"/>
<text text-anchor="middle" x="545" y="-279.2" font-family="Helvetica,sans-Serif" font-size="14.00">18_C &lt;= 0.5</text>
<text text-anchor="middle" x="545" y="-261.95" font-family="Helvetica,sans-Serif" font-size="14.00">entropy = 0.985</text>
<text text-anchor="middle" x="545" y="-244.7" font-family="Helvetica,sans-Serif" font-size="14.00">samples = 5971</text>
<text text-anchor="middle" x="545" y="-227.45" font-family="Helvetica,sans-Serif" font-size="14.00">value = [5416, 4046]</text>
<text text-anchor="middle" x="545" y="-210.2" font-family="Helvetica,sans-Serif" font-size="14.00">class = Animal</text>
</g>
<!-- 1&#45;&gt;9167 -->
<g id="edge9" class="edge">
<title>1&#45;&gt;9167</title>
<path fill="none" stroke="black" d="M545,-332.32C545,-324.42 545,-316.13 545,-307.98"/>
<polygon fill="black" stroke="black" points="548.5,-308.12 545,-298.12 541.5,-308.12 548.5,-308.12"/>
</g>
<!-- 3 -->
<g id="node4" class="node">
<title>3</title>
<path fill="#c3e1f7" stroke="black" d="M172,-166.25C172,-166.25 12,-166.25 12,-166.25 6,-166.25 0,-160.25 0,-154.25 0,-154.25 0,-84 0,-84 0,-78 6,-72 12,-72 12,-72 172,-72 172,-72 178,-72 184,-78 184,-84 184,-84 184,-154.25 184,-154.25 184,-160.25 178,-166.25 172,-166.25"/>
<text text-anchor="middle" x="92" y="-148.95" font-family="Helvetica,sans-Serif" font-size="14.00">19_U &lt;= 0.5</text>
<text text-anchor="middle" x="92" y="-131.7" font-family="Helvetica,sans-Serif" font-size="14.00">entropy = 0.977</text>
<text text-anchor="middle" x="92" y="-114.45" font-family="Helvetica,sans-Serif" font-size="14.00">samples = 20884</text>
<text text-anchor="middle" x="92" y="-97.2" font-family="Helvetica,sans-Serif" font-size="14.00">value = [13474, 19388]</text>
<text text-anchor="middle" x="92" y="-79.95" font-family="Helvetica,sans-Serif" font-size="14.00">class = Plant</text>
</g>
<!-- 2&#45;&gt;3 -->
<g id="edge3" class="edge">
<title>2&#45;&gt;3</title>
<path fill="none" stroke="black" d="M209.31,-201.89C195.94,-192.57 181.8,-182.72 168.14,-173.19"/>
<polygon fill="black" stroke="black" points="170.22,-170.38 160.01,-167.53 166.21,-176.12 170.22,-170.38"/>
</g>
<!-- 8770 -->
<g id="node7" class="node">
<title>8770</title>
<path fill="#f0b68c" stroke="black" d="M338,-166.25C338,-166.25 214,-166.25 214,-166.25 208,-166.25 202,-160.25 202,-154.25 202,-154.25 202,-84 202,-84 202,-78 208,-72 214,-72 214,-72 338,-72 338,-72 344,-72 350,-78 350,-84 350,-84 350,-154.25 350,-154.25 350,-160.25 344,-166.25 338,-166.25"/>
<text text-anchor="middle" x="276" y="-148.95" font-family="Helvetica,sans-Serif" font-size="14.00">8_U &lt;= 0.5</text>
<text text-anchor="middle" x="276" y="-131.7" font-family="Helvetica,sans-Serif" font-size="14.00">entropy = 0.876</text>
<text text-anchor="middle" x="276" y="-114.45" font-family="Helvetica,sans-Serif" font-size="14.00">samples = 664</text>
<text text-anchor="middle" x="276" y="-97.2" font-family="Helvetica,sans-Serif" font-size="14.00">value = [733, 308]</text>
<text text-anchor="middle" x="276" y="-79.95" font-family="Helvetica,sans-Serif" font-size="14.00">class = Animal</text>
</g>
<!-- 2&#45;&gt;8770 -->
<g id="edge6" class="edge">
<title>2&#45;&gt;8770</title>
<path fill="none" stroke="black" d="M276,-202.07C276,-194.17 276,-185.88 276,-177.73"/>
<polygon fill="black" stroke="black" points="279.5,-177.87 276,-167.87 272.5,-177.87 279.5,-177.87"/>
</g>
<!-- 4 -->
<g id="node5" class="node">
<title>4</title>
<path fill="#c0c0c0" stroke="black" d="M71,-36C71,-36 41,-36 41,-36 35,-36 29,-30 29,-24 29,-24 29,-12 29,-12 29,-6 35,0 41,0 41,0 71,0 71,0 77,0 83,-6 83,-12 83,-12 83,-24 83,-24 83,-30 77,-36 71,-36"/>
<text text-anchor="middle" x="56" y="-13.32" font-family="Helvetica,sans-Serif" font-size="14.00">(...)</text>
</g>
<!-- 3&#45;&gt;4 -->
<g id="edge4" class="edge">
<title>3&#45;&gt;4</title>
<path fill="none" stroke="black" d="M75.16,-71.75C72.06,-63.22 68.92,-54.57 66.1,-46.8"/>
<polygon fill="black" stroke="black" points="69.46,-45.8 62.75,-37.6 62.88,-48.19 69.46,-45.8"/>
</g>
<!-- 6673 -->
<g id="node6" class="node">
<title>6673</title>
<path fill="#c0c0c0" stroke="black" d="M143,-36C143,-36 113,-36 113,-36 107,-36 101,-30 101,-24 101,-24 101,-12 101,-12 101,-6 107,0 113,0 113,0 143,0 143,0 149,0 155,-6 155,-12 155,-12 155,-24 155,-24 155,-30 149,-36 143,-36"/>
<text text-anchor="middle" x="128" y="-13.32" font-family="Helvetica,sans-Serif" font-size="14.00">(...)</text>
</g>
<!-- 3&#45;&gt;6673 -->
<g id="edge5" class="edge">
<title>3&#45;&gt;6673</title>
<path fill="none" stroke="black" d="M108.84,-71.75C111.94,-63.22 115.08,-54.57 117.9,-46.8"/>
<polygon fill="black" stroke="black" points="121.12,-48.19 121.25,-37.6 114.54,-45.8 121.12,-48.19"/>
</g>
<!-- 8771 -->
<g id="node8" class="node">
<title>8771</title>
<path fill="#c0c0c0" stroke="black" d="M257,-36C257,-36 227,-36 227,-36 221,-36 215,-30 215,-24 215,-24 215,-12 215,-12 215,-6 221,0 227,0 227,0 257,0 257,0 263,0 269,-6 269,-12 269,-12 269,-24 269,-24 269,-30 263,-36 257,-36"/>
<text text-anchor="middle" x="242" y="-13.32" font-family="Helvetica,sans-Serif" font-size="14.00">(...)</text>
</g>
<!-- 8770&#45;&gt;8771 -->
<g id="edge7" class="edge">
<title>8770&#45;&gt;8771</title>
<path fill="none" stroke="black" d="M260.1,-71.75C257.17,-63.22 254.2,-54.57 251.53,-46.8"/>
<polygon fill="black" stroke="black" points="254.94,-45.93 248.38,-37.6 248.32,-48.2 254.94,-45.93"/>
</g>
<!-- 9056 -->
<g id="node9" class="node">
<title>9056</title>
<path fill="#c0c0c0" stroke="black" d="M329,-36C329,-36 299,-36 299,-36 293,-36 287,-30 287,-24 287,-24 287,-12 287,-12 287,-6 293,0 299,0 299,0 329,0 329,0 335,0 341,-6 341,-12 341,-12 341,-24 341,-24 341,-30 335,-36 329,-36"/>
<text text-anchor="middle" x="314" y="-13.32" font-family="Helvetica,sans-Serif" font-size="14.00">(...)</text>
</g>
<!-- 8770&#45;&gt;9056 -->
<g id="edge8" class="edge">
<title>8770&#45;&gt;9056</title>
<path fill="none" stroke="black" d="M293.78,-71.75C297.05,-63.22 300.37,-54.57 303.34,-46.8"/>
<polygon fill="black" stroke="black" points="306.56,-48.18 306.88,-37.59 300.03,-45.67 306.56,-48.18"/>
</g>
<!-- 9168 -->
<g id="node11" class="node">
<title>9168</title>
<path fill="#f6d2b9" stroke="black" d="M522,-166.25C522,-166.25 380,-166.25 380,-166.25 374,-166.25 368,-160.25 368,-154.25 368,-154.25 368,-84 368,-84 368,-78 374,-72 380,-72 380,-72 522,-72 522,-72 528,-72 534,-78 534,-84 534,-84 534,-154.25 534,-154.25 534,-160.25 528,-166.25 522,-166.25"/>
<text text-anchor="middle" x="451" y="-148.95" font-family="Helvetica,sans-Serif" font-size="14.00">21_U &lt;= 0.5</text>
<text text-anchor="middle" x="451" y="-131.7" font-family="Helvetica,sans-Serif" font-size="14.00">entropy = 0.967</text>
<text text-anchor="middle" x="451" y="-114.45" font-family="Helvetica,sans-Serif" font-size="14.00">samples = 4306</text>
<text text-anchor="middle" x="451" y="-97.2" font-family="Helvetica,sans-Serif" font-size="14.00">value = [4162, 2691]</text>
<text text-anchor="middle" x="451" y="-79.95" font-family="Helvetica,sans-Serif" font-size="14.00">class = Animal</text>
</g>
<!-- 9167&#45;&gt;9168 -->
<g id="edge10" class="edge">
<title>9167&#45;&gt;9168</title>
<path fill="none" stroke="black" d="M511.06,-202.07C504.74,-193.45 498.08,-184.35 491.58,-175.49"/>
<polygon fill="black" stroke="black" points="494.52,-173.58 485.78,-167.58 488.87,-177.71 494.52,-173.58"/>
</g>
<!-- 11539 -->
<g id="node14" class="node">
<title>11539</title>
<path fill="#f0f8fd" stroke="black" d="M706,-166.25C706,-166.25 564,-166.25 564,-166.25 558,-166.25 552,-160.25 552,-154.25 552,-154.25 552,-84 552,-84 552,-78 558,-72 564,-72 564,-72 706,-72 706,-72 712,-72 718,-78 718,-84 718,-84 718,-154.25 718,-154.25 718,-160.25 712,-166.25 706,-166.25"/>
<text text-anchor="middle" x="635" y="-148.95" font-family="Helvetica,sans-Serif" font-size="14.00">17_G &lt;= 0.5</text>
<text text-anchor="middle" x="635" y="-131.7" font-family="Helvetica,sans-Serif" font-size="14.00">entropy = 0.999</text>
<text text-anchor="middle" x="635" y="-114.45" font-family="Helvetica,sans-Serif" font-size="14.00">samples = 1665</text>
<text text-anchor="middle" x="635" y="-97.2" font-family="Helvetica,sans-Serif" font-size="14.00">value = [1254, 1355]</text>
<text text-anchor="middle" x="635" y="-79.95" font-family="Helvetica,sans-Serif" font-size="14.00">class = Plant</text>
</g>
<!-- 9167&#45;&gt;11539 -->
<g id="edge13" class="edge">
<title>9167&#45;&gt;11539</title>
<path fill="none" stroke="black" d="M577.49,-202.07C583.48,-193.54 589.79,-184.54 595.95,-175.77"/>
<polygon fill="black" stroke="black" points="598.81,-177.79 601.69,-167.6 593.08,-173.77 598.81,-177.79"/>
</g>
<!-- 9169 -->
<g id="node12" class="node">
<title>9169</title>
<path fill="#c0c0c0" stroke="black" d="M436,-36C436,-36 406,-36 406,-36 400,-36 394,-30 394,-24 394,-24 394,-12 394,-12 394,-6 400,0 406,0 406,0 436,0 436,0 442,0 448,-6 448,-12 448,-12 448,-24 448,-24 448,-30 442,-36 436,-36"/>
<text text-anchor="middle" x="421" y="-13.32" font-family="Helvetica,sans-Serif" font-size="14.00">(...)</text>
</g>
<!-- 9168&#45;&gt;9169 -->
<g id="edge11" class="edge">
<title>9168&#45;&gt;9169</title>
<path fill="none" stroke="black" d="M436.97,-71.75C434.41,-63.32 431.82,-54.77 429.5,-47.07"/>
<polygon fill="black" stroke="black" points="432.88,-46.18 426.64,-37.62 426.18,-48.21 432.88,-46.18"/>
</g>
<!-- 11066 -->
<g id="node13" class="node">
<title>11066</title>
<path fill="#c0c0c0" stroke="black" d="M508,-36C508,-36 478,-36 478,-36 472,-36 466,-30 466,-24 466,-24 466,-12 466,-12 466,-6 472,0 478,0 478,0 508,0 508,0 514,0 520,-6 520,-12 520,-12 520,-24 520,-24 520,-30 514,-36 508,-36"/>
<text text-anchor="middle" x="493" y="-13.32" font-family="Helvetica,sans-Serif" font-size="14.00">(...)</text>
</g>
<!-- 9168&#45;&gt;11066 -->
<g id="edge12" class="edge">
<title>9168&#45;&gt;11066</title>
<path fill="none" stroke="black" d="M470.65,-71.75C474.3,-63.12 478.02,-54.36 481.34,-46.53"/>
<polygon fill="black" stroke="black" points="484.45,-48.14 485.13,-37.57 478.01,-45.41 484.45,-48.14"/>
</g>
<!-- 11540 -->
<g id="node15" class="node">
<title>11540</title>
<path fill="#c0c0c0" stroke="black" d="M598,-36C598,-36 568,-36 568,-36 562,-36 556,-30 556,-24 556,-24 556,-12 556,-12 556,-6 562,0 568,0 568,0 598,0 598,0 604,0 610,-6 610,-12 610,-12 610,-24 610,-24 610,-30 604,-36 598,-36"/>
<text text-anchor="middle" x="583" y="-13.32" font-family="Helvetica,sans-Serif" font-size="14.00">(...)</text>
</g>
<!-- 11539&#45;&gt;11540 -->
<g id="edge14" class="edge">
<title>11539&#45;&gt;11540</title>
<path fill="none" stroke="black" d="M610.67,-71.75C606.1,-63.03 601.45,-54.16 597.3,-46.26"/>
<polygon fill="black" stroke="black" points="600.46,-44.74 592.71,-37.51 594.26,-47.99 600.46,-44.74"/>
</g>
<!-- 12091 -->
<g id="node16" class="node">
<title>12091</title>
<path fill="#c0c0c0" stroke="black" d="M670,-36C670,-36 640,-36 640,-36 634,-36 628,-30 628,-24 628,-24 628,-12 628,-12 628,-6 634,0 640,0 640,0 670,0 670,0 676,0 682,-6 682,-12 682,-12 682,-24 682,-24 682,-30 676,-36 670,-36"/>
<text text-anchor="middle" x="655" y="-13.32" font-family="Helvetica,sans-Serif" font-size="14.00">(...)</text>
</g>
<!-- 11539&#45;&gt;12091 -->
<g id="edge15" class="edge">
<title>11539&#45;&gt;12091</title>
<path fill="none" stroke="black" d="M644.36,-71.75C646.04,-63.42 647.74,-54.97 649.28,-47.34"/>
<polygon fill="black" stroke="black" points="652.69,-48.15 651.24,-37.66 645.83,-46.77 652.69,-48.15"/>
</g>
<!-- 12315 -->
<g id="node18" class="node">
<title>12315</title>
<path fill="#f2c19d" stroke="black" d="M982,-296.5C982,-296.5 840,-296.5 840,-296.5 834,-296.5 828,-290.5 828,-284.5 828,-284.5 828,-214.25 828,-214.25 828,-208.25 834,-202.25 840,-202.25 840,-202.25 982,-202.25 982,-202.25 988,-202.25 994,-208.25 994,-214.25 994,-214.25 994,-284.5 994,-284.5 994,-290.5 988,-296.5 982,-296.5"/>
<text text-anchor="middle" x="911" y="-279.2" font-family="Helvetica,sans-Serif" font-size="14.00">4_C &lt;= 0.5</text>
<text text-anchor="middle" x="911" y="-261.95" font-family="Helvetica,sans-Serif" font-size="14.00">entropy = 0.921</text>
<text text-anchor="middle" x="911" y="-244.7" font-family="Helvetica,sans-Serif" font-size="14.00">samples = 7658</text>
<text text-anchor="middle" x="911" y="-227.45" font-family="Helvetica,sans-Serif" font-size="14.00">value = [8085, 4085]</text>
<text text-anchor="middle" x="911" y="-210.2" font-family="Helvetica,sans-Serif" font-size="14.00">class = Animal</text>
</g>
<!-- 12314&#45;&gt;12315 -->
<g id="edge17" class="edge">
<title>12314&#45;&gt;12315</title>
<path fill="none" stroke="black" d="M911,-332.32C911,-324.42 911,-316.13 911,-307.98"/>
<polygon fill="black" stroke="black" points="914.5,-308.12 911,-298.12 907.5,-308.12 914.5,-308.12"/>
</g>
<!-- 15850 -->
<g id="node25" class="node">
<title>15850</title>
<path fill="#fbede3" stroke="black" d="M1258,-296.5C1258,-296.5 1116,-296.5 1116,-296.5 1110,-296.5 1104,-290.5 1104,-284.5 1104,-284.5 1104,-214.25 1104,-214.25 1104,-208.25 1110,-202.25 1116,-202.25 1116,-202.25 1258,-202.25 1258,-202.25 1264,-202.25 1270,-208.25 1270,-214.25 1270,-214.25 1270,-284.5 1270,-284.5 1270,-290.5 1264,-296.5 1258,-296.5"/>
<text text-anchor="middle" x="1187" y="-279.2" font-family="Helvetica,sans-Serif" font-size="14.00">7_G &lt;= 0.5</text>
<text text-anchor="middle" x="1187" y="-261.95" font-family="Helvetica,sans-Serif" font-size="14.00">entropy = 0.996</text>
<text text-anchor="middle" x="1187" y="-244.7" font-family="Helvetica,sans-Serif" font-size="14.00">samples = 2994</text>
<text text-anchor="middle" x="1187" y="-227.45" font-family="Helvetica,sans-Serif" font-size="14.00">value = [2591, 2219]</text>
<text text-anchor="middle" x="1187" y="-210.2" font-family="Helvetica,sans-Serif" font-size="14.00">class = Animal</text>
</g>
<!-- 12314&#45;&gt;15850 -->
<g id="edge24" class="edge">
<title>12314&#45;&gt;15850</title>
<path fill="none" stroke="black" d="M998.71,-337.87C1028.91,-323.83 1062.84,-308.07 1093.5,-293.82"/>
<polygon fill="black" stroke="black" points="1094.79,-297.08 1102.38,-289.69 1091.84,-290.73 1094.79,-297.08"/>
</g>
<!-- 12316 -->
<g id="node19" class="node">
<title>12316</title>
<path fill="#f0b58a" stroke="black" d="M890,-166.25C890,-166.25 748,-166.25 748,-166.25 742,-166.25 736,-160.25 736,-154.25 736,-154.25 736,-84 736,-84 736,-78 742,-72 748,-72 748,-72 890,-72 890,-72 896,-72 902,-78 902,-84 902,-84 902,-154.25 902,-154.25 902,-160.25 896,-166.25 890,-166.25"/>
<text text-anchor="middle" x="819" y="-148.95" font-family="Helvetica,sans-Serif" font-size="14.00">22_U &lt;= 0.5</text>
<text text-anchor="middle" x="819" y="-131.7" font-family="Helvetica,sans-Serif" font-size="14.00">entropy = 0.87</text>
<text text-anchor="middle" x="819" y="-114.45" font-family="Helvetica,sans-Serif" font-size="14.00">samples = 5836</text>
<text text-anchor="middle" x="819" y="-97.2" font-family="Helvetica,sans-Serif" font-size="14.00">value = [6603, 2707]</text>
<text text-anchor="middle" x="819" y="-79.95" font-family="Helvetica,sans-Serif" font-size="14.00">class = Animal</text>
</g>
<!-- 12315&#45;&gt;12316 -->
<g id="edge18" class="edge">
<title>12315&#45;&gt;12316</title>
<path fill="none" stroke="black" d="M877.79,-202.07C871.6,-193.45 865.07,-184.35 858.71,-175.49"/>
<polygon fill="black" stroke="black" points="861.72,-173.67 853.05,-167.59 856.03,-177.75 861.72,-173.67"/>
</g>
<!-- 15041 -->
<g id="node22" class="node">
<title>15041</title>
<path fill="#fdf6f1" stroke="black" d="M1074,-166.25C1074,-166.25 932,-166.25 932,-166.25 926,-166.25 920,-160.25 920,-154.25 920,-154.25 920,-84 920,-84 920,-78 926,-72 932,-72 932,-72 1074,-72 1074,-72 1080,-72 1086,-78 1086,-84 1086,-84 1086,-154.25 1086,-154.25 1086,-160.25 1080,-166.25 1074,-166.25"/>
<text text-anchor="middle" x="1003" y="-148.95" font-family="Helvetica,sans-Serif" font-size="14.00">10_C &lt;= 0.5</text>
<text text-anchor="middle" x="1003" y="-131.7" font-family="Helvetica,sans-Serif" font-size="14.00">entropy = 0.999</text>
<text text-anchor="middle" x="1003" y="-114.45" font-family="Helvetica,sans-Serif" font-size="14.00">samples = 1822</text>
<text text-anchor="middle" x="1003" y="-97.2" font-family="Helvetica,sans-Serif" font-size="14.00">value = [1482, 1378]</text>
<text text-anchor="middle" x="1003" y="-79.95" font-family="Helvetica,sans-Serif" font-size="14.00">class = Animal</text>
</g>
<!-- 12315&#45;&gt;15041 -->
<g id="edge21" class="edge">
<title>12315&#45;&gt;15041</title>
<path fill="none" stroke="black" d="M944.21,-202.07C950.4,-193.45 956.93,-184.35 963.29,-175.49"/>
<polygon fill="black" stroke="black" points="965.97,-177.75 968.95,-167.59 960.28,-173.67 965.97,-177.75"/>
</g>
<!-- 12317 -->
<g id="node20" class="node">
<title>12317</title>
<path fill="#c0c0c0" stroke="black" d="M782,-36C782,-36 752,-36 752,-36 746,-36 740,-30 740,-24 740,-24 740,-12 740,-12 740,-6 746,0 752,0 752,0 782,0 782,0 788,0 794,-6 794,-12 794,-12 794,-24 794,-24 794,-30 788,-36 782,-36"/>
<text text-anchor="middle" x="767" y="-13.32" font-family="Helvetica,sans-Serif" font-size="14.00">(...)</text>
</g>
<!-- 12316&#45;&gt;12317 -->
<g id="edge19" class="edge">
<title>12316&#45;&gt;12317</title>
<path fill="none" stroke="black" d="M794.67,-71.75C790.1,-63.03 785.45,-54.16 781.3,-46.26"/>
<polygon fill="black" stroke="black" points="784.46,-44.74 776.71,-37.51 778.26,-47.99 784.46,-44.74"/>
</g>
<!-- 14668 -->
<g id="node21" class="node">
<title>14668</title>
<path fill="#c0c0c0" stroke="black" d="M854,-36C854,-36 824,-36 824,-36 818,-36 812,-30 812,-24 812,-24 812,-12 812,-12 812,-6 818,0 824,0 824,0 854,0 854,0 860,0 866,-6 866,-12 866,-12 866,-24 866,-24 866,-30 860,-36 854,-36"/>
<text text-anchor="middle" x="839" y="-13.32" font-family="Helvetica,sans-Serif" font-size="14.00">(...)</text>
</g>
<!-- 12316&#45;&gt;14668 -->
<g id="edge20" class="edge">
<title>12316&#45;&gt;14668</title>
<path fill="none" stroke="black" d="M828.36,-71.75C830.04,-63.42 831.74,-54.97 833.28,-47.34"/>
<polygon fill="black" stroke="black" points="836.69,-48.15 835.24,-37.66 829.83,-46.77 836.69,-48.15"/>
</g>
<!-- 15042 -->
<g id="node23" class="node">
<title>15042</title>
<path fill="#c0c0c0" stroke="black" d="M966,-36C966,-36 936,-36 936,-36 930,-36 924,-30 924,-24 924,-24 924,-12 924,-12 924,-6 930,0 936,0 936,0 966,0 966,0 972,0 978,-6 978,-12 978,-12 978,-24 978,-24 978,-30 972,-36 966,-36"/>
<text text-anchor="middle" x="951" y="-13.32" font-family="Helvetica,sans-Serif" font-size="14.00">(...)</text>
</g>
<!-- 15041&#45;&gt;15042 -->
<g id="edge22" class="edge">
<title>15041&#45;&gt;15042</title>
<path fill="none" stroke="black" d="M978.67,-71.75C974.1,-63.03 969.45,-54.16 965.3,-46.26"/>
<polygon fill="black" stroke="black" points="968.46,-44.74 960.71,-37.51 962.26,-47.99 968.46,-44.74"/>
</g>
<!-- 15589 -->
<g id="node24" class="node">
<title>15589</title>
<path fill="#c0c0c0" stroke="black" d="M1038,-36C1038,-36 1008,-36 1008,-36 1002,-36 996,-30 996,-24 996,-24 996,-12 996,-12 996,-6 1002,0 1008,0 1008,0 1038,0 1038,0 1044,0 1050,-6 1050,-12 1050,-12 1050,-24 1050,-24 1050,-30 1044,-36 1038,-36"/>
<text text-anchor="middle" x="1023" y="-13.32" font-family="Helvetica,sans-Serif" font-size="14.00">(...)</text>
</g>
<!-- 15041&#45;&gt;15589 -->
<g id="edge23" class="edge">
<title>15041&#45;&gt;15589</title>
<path fill="none" stroke="black" d="M1012.36,-71.75C1014.04,-63.42 1015.74,-54.97 1017.28,-47.34"/>
<polygon fill="black" stroke="black" points="1020.69,-48.15 1019.24,-37.66 1013.83,-46.77 1020.69,-48.15"/>
</g>
<!-- 15851 -->
<g id="node26" class="node">
<title>15851</title>
<path fill="#f7d9c4" stroke="black" d="M1258,-166.25C1258,-166.25 1116,-166.25 1116,-166.25 1110,-166.25 1104,-160.25 1104,-154.25 1104,-154.25 1104,-84 1104,-84 1104,-78 1110,-72 1116,-72 1116,-72 1258,-72 1258,-72 1264,-72 1270,-78 1270,-84 1270,-84 1270,-154.25 1270,-154.25 1270,-160.25 1264,-166.25 1258,-166.25"/>
<text text-anchor="middle" x="1187" y="-148.95" font-family="Helvetica,sans-Serif" font-size="14.00">19_C &lt;= 0.5</text>
<text text-anchor="middle" x="1187" y="-131.7" font-family="Helvetica,sans-Serif" font-size="14.00">entropy = 0.978</text>
<text text-anchor="middle" x="1187" y="-114.45" font-family="Helvetica,sans-Serif" font-size="14.00">samples = 2380</text>
<text text-anchor="middle" x="1187" y="-97.2" font-family="Helvetica,sans-Serif" font-size="14.00">value = [2247, 1577]</text>
<text text-anchor="middle" x="1187" y="-79.95" font-family="Helvetica,sans-Serif" font-size="14.00">class = Animal</text>
</g>
<!-- 15850&#45;&gt;15851 -->
<g id="edge25" class="edge">
<title>15850&#45;&gt;15851</title>
<path fill="none" stroke="black" d="M1187,-202.07C1187,-194.17 1187,-185.88 1187,-177.73"/>
<polygon fill="black" stroke="black" points="1190.5,-177.87 1187,-167.87 1183.5,-177.87 1190.5,-177.87"/>
</g>
<!-- 16752 -->
<g id="node29" class="node">
<title>16752</title>
<path fill="#a3d2f3" stroke="black" d="M1424,-166.25C1424,-166.25 1300,-166.25 1300,-166.25 1294,-166.25 1288,-160.25 1288,-154.25 1288,-154.25 1288,-84 1288,-84 1288,-78 1294,-72 1300,-72 1300,-72 1424,-72 1424,-72 1430,-72 1436,-78 1436,-84 1436,-84 1436,-154.25 1436,-154.25 1436,-160.25 1430,-166.25 1424,-166.25"/>
<text text-anchor="middle" x="1362" y="-148.95" font-family="Helvetica,sans-Serif" font-size="14.00">5_C &lt;= 0.5</text>
<text text-anchor="middle" x="1362" y="-131.7" font-family="Helvetica,sans-Serif" font-size="14.00">entropy = 0.933</text>
<text text-anchor="middle" x="1362" y="-114.45" font-family="Helvetica,sans-Serif" font-size="14.00">samples = 614</text>
<text text-anchor="middle" x="1362" y="-97.2" font-family="Helvetica,sans-Serif" font-size="14.00">value = [344, 642]</text>
<text text-anchor="middle" x="1362" y="-79.95" font-family="Helvetica,sans-Serif" font-size="14.00">class = Plant</text>
</g>
<!-- 15850&#45;&gt;16752 -->
<g id="edge28" class="edge">
<title>15850&#45;&gt;16752</title>
<path fill="none" stroke="black" d="M1250.18,-202.07C1262.99,-192.69 1276.55,-182.75 1289.64,-173.15"/>
<polygon fill="black" stroke="black" points="1291.4,-176.2 1297.4,-167.47 1287.26,-170.56 1291.4,-176.2"/>
</g>
<!-- 15852 -->
<g id="node27" class="node">
<title>15852</title>
<path fill="#c0c0c0" stroke="black" d="M1163,-36C1163,-36 1133,-36 1133,-36 1127,-36 1121,-30 1121,-24 1121,-24 1121,-12 1121,-12 1121,-6 1127,0 1133,0 1133,0 1163,0 1163,0 1169,0 1175,-6 1175,-12 1175,-12 1175,-24 1175,-24 1175,-30 1169,-36 1163,-36"/>
<text text-anchor="middle" x="1148" y="-13.32" font-family="Helvetica,sans-Serif" font-size="14.00">(...)</text>
</g>
<!-- 15851&#45;&gt;15852 -->
<g id="edge26" class="edge">
<title>15851&#45;&gt;15852</title>
<path fill="none" stroke="black" d="M1168.76,-71.75C1165.4,-63.22 1161.99,-54.57 1158.94,-46.8"/>
<polygon fill="black" stroke="black" points="1162.23,-45.61 1155.31,-37.58 1155.71,-48.17 1162.23,-45.61"/>
</g>
<!-- 16549 -->
<g id="node28" class="node">
<title>16549</title>
<path fill="#c0c0c0" stroke="black" d="M1235,-36C1235,-36 1205,-36 1205,-36 1199,-36 1193,-30 1193,-24 1193,-24 1193,-12 1193,-12 1193,-6 1199,0 1205,0 1205,0 1235,0 1235,0 1241,0 1247,-6 1247,-12 1247,-12 1247,-24 1247,-24 1247,-30 1241,-36 1235,-36"/>
<text text-anchor="middle" x="1220" y="-13.32" font-family="Helvetica,sans-Serif" font-size="14.00">(...)</text>
</g>
<!-- 15851&#45;&gt;16549 -->
<g id="edge27" class="edge">
<title>15851&#45;&gt;16549</title>
<path fill="none" stroke="black" d="M1202.44,-71.75C1205.24,-63.32 1208.09,-54.77 1210.66,-47.07"/>
<polygon fill="black" stroke="black" points="1213.97,-48.2 1213.8,-37.61 1207.33,-45.99 1213.97,-48.2"/>
</g>
<!-- 16753 -->
<g id="node30" class="node">
<title>16753</title>
<path fill="#c0c0c0" stroke="black" d="M1341,-36C1341,-36 1311,-36 1311,-36 1305,-36 1299,-30 1299,-24 1299,-24 1299,-12 1299,-12 1299,-6 1305,0 1311,0 1311,0 1341,0 1341,0 1347,0 1353,-6 1353,-12 1353,-12 1353,-24 1353,-24 1353,-30 1347,-36 1341,-36"/>
<text text-anchor="middle" x="1326" y="-13.32" font-family="Helvetica,sans-Serif" font-size="14.00">(...)</text>
</g>
<!-- 16752&#45;&gt;16753 -->
<g id="edge29" class="edge">
<title>16752&#45;&gt;16753</title>
<path fill="none" stroke="black" d="M1345.16,-71.75C1342.06,-63.22 1338.92,-54.57 1336.1,-46.8"/>
<polygon fill="black" stroke="black" points="1339.46,-45.8 1332.75,-37.6 1332.88,-48.19 1339.46,-45.8"/>
</g>
<!-- 16966 -->
<g id="node31" class="node">
<title>16966</title>
<path fill="#c0c0c0" stroke="black" d="M1413,-36C1413,-36 1383,-36 1383,-36 1377,-36 1371,-30 1371,-24 1371,-24 1371,-12 1371,-12 1371,-6 1377,0 1383,0 1383,0 1413,0 1413,0 1419,0 1425,-6 1425,-12 1425,-12 1425,-24 1425,-24 1425,-30 1419,-36 1413,-36"/>
<text text-anchor="middle" x="1398" y="-13.32" font-family="Helvetica,sans-Serif" font-size="14.00">(...)</text>
</g>
<!-- 16752&#45;&gt;16966 -->
<g id="edge30" class="edge">
<title>16752&#45;&gt;16966</title>
<path fill="none" stroke="black" d="M1378.84,-71.75C1381.94,-63.22 1385.08,-54.57 1387.9,-46.8"/>
<polygon fill="black" stroke="black" points="1391.12,-48.19 1391.25,-37.6 1384.54,-45.8 1391.12,-48.19"/>
</g>
</g>
</svg>
