<?xml version="1.0" encoding="UTF-8" standalone="no"?>
<!DOCTYPE svg PUBLIC "-//W3C//DTD SVG 1.1//EN"
 "http://www.w3.org/Graphics/SVG/1.1/DTD/svg11.dtd">
<!-- Generated by graphviz version 12.0.0 (20240803.0821)
 -->
<!-- Title: Tree Pages: 1 -->
<svg width="1419pt" height="565pt"
 viewBox="0.00 0.00 1418.50 565.00" xmlns="http://www.w3.org/2000/svg" xmlns:xlink="http://www.w3.org/1999/xlink">
<g id="graph0" class="graph" transform="scale(1 1) rotate(0) translate(4 561)">
<title>Tree</title>
<polygon fill="white" stroke="none" points="-4,4 -4,-561 1414.5,-561 1414.5,4 -4,4"/>
<!-- 0 -->
<g id="node1" class="node">
<title>0</title>
<path fill="#ffffff" stroke="black" d="M816.5,-557C816.5,-557 656.5,-557 656.5,-557 650.5,-557 644.5,-551 644.5,-545 644.5,-545 644.5,-474.75 644.5,-474.75 644.5,-468.75 650.5,-462.75 656.5,-462.75 656.5,-462.75 816.5,-462.75 816.5,-462.75 822.5,-462.75 828.5,-468.75 828.5,-474.75 828.5,-474.75 828.5,-545 828.5,-545 828.5,-551 822.5,-557 816.5,-557"/>
<text text-anchor="middle" x="736.5" y="-539.7" font-family="Helvetica,sans-Serif" font-size="14.00">22_C &lt;= 0.5</text>
<text text-anchor="middle" x="736.5" y="-522.45" font-family="Helvetica,sans-Serif" font-size="14.00">entropy = 1.0</text>
<text text-anchor="middle" x="736.5" y="-505.2" font-family="Helvetica,sans-Serif" font-size="14.00">samples = 38171</text>
<text text-anchor="middle" x="736.5" y="-487.95" font-family="Helvetica,sans-Serif" font-size="14.00">value = [30175, 30170]</text>
<text text-anchor="middle" x="736.5" y="-470.7" font-family="Helvetica,sans-Serif" font-size="14.00">class = Animal</text>
</g>
<!-- 1 -->
<g id="node2" class="node">
<title>1</title>
<path fill="#eff7fd" stroke="black" d="M636.5,-426.75C636.5,-426.75 476.5,-426.75 476.5,-426.75 470.5,-426.75 464.5,-420.75 464.5,-414.75 464.5,-414.75 464.5,-344.5 464.5,-344.5 464.5,-338.5 470.5,-332.5 476.5,-332.5 476.5,-332.5 636.5,-332.5 636.5,-332.5 642.5,-332.5 648.5,-338.5 648.5,-344.5 648.5,-344.5 648.5,-414.75 648.5,-414.75 648.5,-420.75 642.5,-426.75 636.5,-426.75"/>
<text text-anchor="middle" x="556.5" y="-409.45" font-family="Helvetica,sans-Serif" font-size="14.00">19_G &lt;= 0.5</text>
<text text-anchor="middle" x="556.5" y="-392.2" font-family="Helvetica,sans-Serif" font-size="14.00">entropy = 0.999</text>
<text text-anchor="middle" x="556.5" y="-374.95" font-family="Helvetica,sans-Serif" font-size="14.00">samples = 34538</text>
<text text-anchor="middle" x="556.5" y="-357.7" font-family="Helvetica,sans-Serif" font-size="14.00">value = [26113, 28438]</text>
<text text-anchor="middle" x="556.5" y="-340.45" font-family="Helvetica,sans-Serif" font-size="14.00">class = Plant</text>
</g>
<!-- 0&#45;&gt;1 -->
<g id="edge1" class="edge">
<title>0&#45;&gt;1</title>
<path fill="none" stroke="black" d="M671.26,-462.39C658.18,-453.07 644.35,-443.22 630.98,-433.69"/>
<polygon fill="black" stroke="black" points="633.23,-430.99 623.05,-428.04 629.16,-436.7 633.23,-430.99"/>
<text text-anchor="middle" x="625.96" y="-447.14" font-family="Helvetica,sans-Serif" font-size="14.00">True</text>
</g>
<!-- 15312 -->
<g id="node17" class="node">
<title>15312</title>
<path fill="#f0b78d" stroke="black" d="M982.5,-426.75C982.5,-426.75 840.5,-426.75 840.5,-426.75 834.5,-426.75 828.5,-420.75 828.5,-414.75 828.5,-414.75 828.5,-344.5 828.5,-344.5 828.5,-338.5 834.5,-332.5 840.5,-332.5 840.5,-332.5 982.5,-332.5 982.5,-332.5 988.5,-332.5 994.5,-338.5 994.5,-344.5 994.5,-344.5 994.5,-414.75 994.5,-414.75 994.5,-420.75 988.5,-426.75 982.5,-426.75"/>
<text text-anchor="middle" x="911.5" y="-409.45" font-family="Helvetica,sans-Serif" font-size="14.00">19_C &lt;= 0.5</text>
<text text-anchor="middle" x="911.5" y="-392.2" font-family="Helvetica,sans-Serif" font-size="14.00">entropy = 0.88</text>
<text text-anchor="middle" x="911.5" y="-374.95" font-family="Helvetica,sans-Serif" font-size="14.00">samples = 3633</text>
<text text-anchor="middle" x="911.5" y="-357.7" font-family="Helvetica,sans-Serif" font-size="14.00">value = [4062, 1732]</text>
<text text-anchor="middle" x="911.5" y="-340.45" font-family="Helvetica,sans-Serif" font-size="14.00">class = Animal</text>
</g>
<!-- 0&#45;&gt;15312 -->
<g id="edge16" class="edge">
<title>0&#45;&gt;15312</title>
<path fill="none" stroke="black" d="M799.68,-462.57C812.49,-453.19 826.05,-443.25 839.14,-433.65"/>
<polygon fill="black" stroke="black" points="840.9,-436.7 846.9,-427.97 836.76,-431.06 840.9,-436.7"/>
<text text-anchor="middle" x="844.31" y="-447.11" font-family="Helvetica,sans-Serif" font-size="14.00">False</text>
</g>
<!-- 2 -->
<g id="node3" class="node">
<title>2</title>
<path fill="#e2f0fb" stroke="black" d="M360.5,-296.5C360.5,-296.5 200.5,-296.5 200.5,-296.5 194.5,-296.5 188.5,-290.5 188.5,-284.5 188.5,-284.5 188.5,-214.25 188.5,-214.25 188.5,-208.25 194.5,-202.25 200.5,-202.25 200.5,-202.25 360.5,-202.25 360.5,-202.25 366.5,-202.25 372.5,-208.25 372.5,-214.25 372.5,-214.25 372.5,-284.5 372.5,-284.5 372.5,-290.5 366.5,-296.5 360.5,-296.5"/>
<text text-anchor="middle" x="280.5" y="-279.2" font-family="Helvetica,sans-Serif" font-size="14.00">1_U &lt;= 0.5</text>
<text text-anchor="middle" x="280.5" y="-261.95" font-family="Helvetica,sans-Serif" font-size="14.00">entropy = 0.995</text>
<text text-anchor="middle" x="280.5" y="-244.7" font-family="Helvetica,sans-Serif" font-size="14.00">samples = 26602</text>
<text text-anchor="middle" x="280.5" y="-227.45" font-family="Helvetica,sans-Serif" font-size="14.00">value = [19301, 22661]</text>
<text text-anchor="middle" x="280.5" y="-210.2" font-family="Helvetica,sans-Serif" font-size="14.00">class = Plant</text>
</g>
<!-- 1&#45;&gt;2 -->
<g id="edge2" class="edge">
<title>1&#45;&gt;2</title>
<path fill="none" stroke="black" d="M464.21,-335.74C438.09,-323.6 409.5,-310.32 382.82,-297.92"/>
<polygon fill="black" stroke="black" points="384.62,-294.9 374.07,-293.86 381.67,-301.24 384.62,-294.9"/>
</g>
<!-- 11313 -->
<g id="node10" class="node">
<title>11313</title>
<path fill="#fbece1" stroke="black" d="M627.5,-296.5C627.5,-296.5 485.5,-296.5 485.5,-296.5 479.5,-296.5 473.5,-290.5 473.5,-284.5 473.5,-284.5 473.5,-214.25 473.5,-214.25 473.5,-208.25 479.5,-202.25 485.5,-202.25 485.5,-202.25 627.5,-202.25 627.5,-202.25 633.5,-202.25 639.5,-208.25 639.5,-214.25 639.5,-214.25 639.5,-284.5 639.5,-284.5 639.5,-290.5 633.5,-296.5 627.5,-296.5"/>
<text text-anchor="middle" x="556.5" y="-279.2" font-family="Helvetica,sans-Serif" font-size="14.00">20_C &lt;= 0.5</text>
<text text-anchor="middle" x="556.5" y="-261.95" font-family="Helvetica,sans-Serif" font-size="14.00">entropy = 0.995</text>
<text text-anchor="middle" x="556.5" y="-244.7" font-family="Helvetica,sans-Serif" font-size="14.00">samples = 7936</text>
<text text-anchor="middle" x="556.5" y="-227.45" font-family="Helvetica,sans-Serif" font-size="14.00">value = [6812, 5777]</text>
<text text-anchor="middle" x="556.5" y="-210.2" font-family="Helvetica,sans-Serif" font-size="14.00">class = Animal</text>
</g>
<!-- 1&#45;&gt;11313 -->
<g id="edge9" class="edge">
<title>1&#45;&gt;11313</title>
<path fill="none" stroke="black" d="M556.5,-332.32C556.5,-324.42 556.5,-316.13 556.5,-307.98"/>
<polygon fill="black" stroke="black" points="560,-308.12 556.5,-298.12 553,-308.12 560,-308.12"/>
</g>
<!-- 3 -->
<g id="node4" class="node">
<title>3</title>
<path fill="#f8decc" stroke="black" d="M163,-166.25C163,-166.25 12,-166.25 12,-166.25 6,-166.25 0,-160.25 0,-154.25 0,-154.25 0,-84 0,-84 0,-78 6,-72 12,-72 12,-72 163,-72 163,-72 169,-72 175,-78 175,-84 175,-84 175,-154.25 175,-154.25 175,-160.25 169,-166.25 163,-166.25"/>
<text text-anchor="middle" x="87.5" y="-148.95" font-family="Helvetica,sans-Serif" font-size="14.00">23_U &lt;= 0.5</text>
<text text-anchor="middle" x="87.5" y="-131.7" font-family="Helvetica,sans-Serif" font-size="14.00">entropy = 0.984</text>
<text text-anchor="middle" x="87.5" y="-114.45" font-family="Helvetica,sans-Serif" font-size="14.00">samples = 11924</text>
<text text-anchor="middle" x="87.5" y="-97.2" font-family="Helvetica,sans-Serif" font-size="14.00">value = [10797, 8011]</text>
<text text-anchor="middle" x="87.5" y="-79.95" font-family="Helvetica,sans-Serif" font-size="14.00">class = Animal</text>
</g>
<!-- 2&#45;&gt;3 -->
<g id="edge3" class="edge">
<title>2&#45;&gt;3</title>
<path fill="none" stroke="black" d="M210.55,-201.89C196.39,-192.48 181.4,-182.53 166.95,-172.92"/>
<polygon fill="black" stroke="black" points="169.06,-170.12 158.8,-167.5 165.19,-175.95 169.06,-170.12"/>
</g>
<!-- 6384 -->
<g id="node7" class="node">
<title>6384</title>
<path fill="#acd6f4" stroke="black" d="M356,-166.25C356,-166.25 205,-166.25 205,-166.25 199,-166.25 193,-160.25 193,-154.25 193,-154.25 193,-84 193,-84 193,-78 199,-72 205,-72 205,-72 356,-72 356,-72 362,-72 368,-78 368,-84 368,-84 368,-154.25 368,-154.25 368,-160.25 362,-166.25 356,-166.25"/>
<text text-anchor="middle" x="280.5" y="-148.95" font-family="Helvetica,sans-Serif" font-size="14.00">19_C &lt;= 0.5</text>
<text text-anchor="middle" x="280.5" y="-131.7" font-family="Helvetica,sans-Serif" font-size="14.00">entropy = 0.949</text>
<text text-anchor="middle" x="280.5" y="-114.45" font-family="Helvetica,sans-Serif" font-size="14.00">samples = 14678</text>
<text text-anchor="middle" x="280.5" y="-97.2" font-family="Helvetica,sans-Serif" font-size="14.00">value = [8504, 14650]</text>
<text text-anchor="middle" x="280.5" y="-79.95" font-family="Helvetica,sans-Serif" font-size="14.00">class = Plant</text>
</g>
<!-- 2&#45;&gt;6384 -->
<g id="edge6" class="edge">
<title>2&#45;&gt;6384</title>
<path fill="none" stroke="black" d="M280.5,-202.07C280.5,-194.17 280.5,-185.88 280.5,-177.73"/>
<polygon fill="black" stroke="black" points="284,-177.87 280.5,-167.87 277,-177.87 284,-177.87"/>
</g>
<!-- 4 -->
<g id="node5" class="node">
<title>4</title>
<path fill="#c0c0c0" stroke="black" d="M66.5,-36C66.5,-36 36.5,-36 36.5,-36 30.5,-36 24.5,-30 24.5,-24 24.5,-24 24.5,-12 24.5,-12 24.5,-6 30.5,0 36.5,0 36.5,0 66.5,0 66.5,0 72.5,0 78.5,-6 78.5,-12 78.5,-12 78.5,-24 78.5,-24 78.5,-30 72.5,-36 66.5,-36"/>
<text text-anchor="middle" x="51.5" y="-13.32" font-family="Helvetica,sans-Serif" font-size="14.00">(...)</text>
</g>
<!-- 3&#45;&gt;4 -->
<g id="edge4" class="edge">
<title>3&#45;&gt;4</title>
<path fill="none" stroke="black" d="M70.66,-71.75C67.56,-63.22 64.42,-54.57 61.6,-46.8"/>
<polygon fill="black" stroke="black" points="64.96,-45.8 58.25,-37.6 58.38,-48.19 64.96,-45.8"/>
</g>
<!-- 6131 -->
<g id="node6" class="node">
<title>6131</title>
<path fill="#c0c0c0" stroke="black" d="M138.5,-36C138.5,-36 108.5,-36 108.5,-36 102.5,-36 96.5,-30 96.5,-24 96.5,-24 96.5,-12 96.5,-12 96.5,-6 102.5,0 108.5,0 108.5,0 138.5,0 138.5,0 144.5,0 150.5,-6 150.5,-12 150.5,-12 150.5,-24 150.5,-24 150.5,-30 144.5,-36 138.5,-36"/>
<text text-anchor="middle" x="123.5" y="-13.32" font-family="Helvetica,sans-Serif" font-size="14.00">(...)</text>
</g>
<!-- 3&#45;&gt;6131 -->
<g id="edge5" class="edge">
<title>3&#45;&gt;6131</title>
<path fill="none" stroke="black" d="M104.34,-71.75C107.44,-63.22 110.58,-54.57 113.4,-46.8"/>
<polygon fill="black" stroke="black" points="116.62,-48.19 116.75,-37.6 110.04,-45.8 116.62,-48.19"/>
</g>
<!-- 6385 -->
<g id="node8" class="node">
<title>6385</title>
<path fill="#c0c0c0" stroke="black" d="M266.5,-36C266.5,-36 236.5,-36 236.5,-36 230.5,-36 224.5,-30 224.5,-24 224.5,-24 224.5,-12 224.5,-12 224.5,-6 230.5,0 236.5,0 236.5,0 266.5,0 266.5,0 272.5,0 278.5,-6 278.5,-12 278.5,-12 278.5,-24 278.5,-24 278.5,-30 272.5,-36 266.5,-36"/>
<text text-anchor="middle" x="251.5" y="-13.32" font-family="Helvetica,sans-Serif" font-size="14.00">(...)</text>
</g>
<!-- 6384&#45;&gt;6385 -->
<g id="edge7" class="edge">
<title>6384&#45;&gt;6385</title>
<path fill="none" stroke="black" d="M266.93,-71.75C264.47,-63.32 261.96,-54.77 259.71,-47.07"/>
<polygon fill="black" stroke="black" points="263.12,-46.24 256.95,-37.63 256.4,-48.21 263.12,-46.24"/>
</g>
<!-- 9686 -->
<g id="node9" class="node">
<title>9686</title>
<path fill="#c0c0c0" stroke="black" d="M338.5,-36C338.5,-36 308.5,-36 308.5,-36 302.5,-36 296.5,-30 296.5,-24 296.5,-24 296.5,-12 296.5,-12 296.5,-6 302.5,0 308.5,0 308.5,0 338.5,0 338.5,0 344.5,0 350.5,-6 350.5,-12 350.5,-12 350.5,-24 350.5,-24 350.5,-30 344.5,-36 338.5,-36"/>
<text text-anchor="middle" x="323.5" y="-13.32" font-family="Helvetica,sans-Serif" font-size="14.00">(...)</text>
</g>
<!-- 6384&#45;&gt;9686 -->
<g id="edge8" class="edge">
<title>6384&#45;&gt;9686</title>
<path fill="none" stroke="black" d="M300.62,-71.75C304.36,-63.12 308.16,-54.36 311.56,-46.53"/>
<polygon fill="black" stroke="black" points="314.68,-48.13 315.45,-37.56 308.26,-45.34 314.68,-48.13"/>
</g>
<!-- 11314 -->
<g id="node11" class="node">
<title>11314</title>
<path fill="#f8ddca" stroke="black" d="M540.5,-166.25C540.5,-166.25 398.5,-166.25 398.5,-166.25 392.5,-166.25 386.5,-160.25 386.5,-154.25 386.5,-154.25 386.5,-84 386.5,-84 386.5,-78 392.5,-72 398.5,-72 398.5,-72 540.5,-72 540.5,-72 546.5,-72 552.5,-78 552.5,-84 552.5,-84 552.5,-154.25 552.5,-154.25 552.5,-160.25 546.5,-166.25 540.5,-166.25"/>
<text text-anchor="middle" x="469.5" y="-148.95" font-family="Helvetica,sans-Serif" font-size="14.00">2_C &lt;= 0.5</text>
<text text-anchor="middle" x="469.5" y="-131.7" font-family="Helvetica,sans-Serif" font-size="14.00">entropy = 0.983</text>
<text text-anchor="middle" x="469.5" y="-114.45" font-family="Helvetica,sans-Serif" font-size="14.00">samples = 5871</text>
<text text-anchor="middle" x="469.5" y="-97.2" font-family="Helvetica,sans-Serif" font-size="14.00">value = [5370, 3934]</text>
<text text-anchor="middle" x="469.5" y="-79.95" font-family="Helvetica,sans-Serif" font-size="14.00">class = Animal</text>
</g>
<!-- 11313&#45;&gt;11314 -->
<g id="edge10" class="edge">
<title>11313&#45;&gt;11314</title>
<path fill="none" stroke="black" d="M525.09,-202.07C519.3,-193.54 513.2,-184.54 507.25,-175.77"/>
<polygon fill="black" stroke="black" points="510.22,-173.92 501.71,-167.61 504.43,-177.85 510.22,-173.92"/>
</g>
<!-- 14375 -->
<g id="node14" class="node">
<title>14375</title>
<path fill="#d4eaf9" stroke="black" d="M724.5,-166.25C724.5,-166.25 582.5,-166.25 582.5,-166.25 576.5,-166.25 570.5,-160.25 570.5,-154.25 570.5,-154.25 570.5,-84 570.5,-84 570.5,-78 576.5,-72 582.5,-72 582.5,-72 724.5,-72 724.5,-72 730.5,-72 736.5,-78 736.5,-84 736.5,-84 736.5,-154.25 736.5,-154.25 736.5,-160.25 730.5,-166.25 724.5,-166.25"/>
<text text-anchor="middle" x="653.5" y="-148.95" font-family="Helvetica,sans-Serif" font-size="14.00">7_A &lt;= 0.5</text>
<text text-anchor="middle" x="653.5" y="-131.7" font-family="Helvetica,sans-Serif" font-size="14.00">entropy = 0.989</text>
<text text-anchor="middle" x="653.5" y="-114.45" font-family="Helvetica,sans-Serif" font-size="14.00">samples = 2065</text>
<text text-anchor="middle" x="653.5" y="-97.2" font-family="Helvetica,sans-Serif" font-size="14.00">value = [1442, 1843]</text>
<text text-anchor="middle" x="653.5" y="-79.95" font-family="Helvetica,sans-Serif" font-size="14.00">class = Plant</text>
</g>
<!-- 11313&#45;&gt;14375 -->
<g id="edge13" class="edge">
<title>11313&#45;&gt;14375</title>
<path fill="none" stroke="black" d="M591.52,-202.07C598.04,-193.45 604.92,-184.35 611.63,-175.49"/>
<polygon fill="black" stroke="black" points="614.38,-177.65 617.62,-167.57 608.8,-173.43 614.38,-177.65"/>
</g>
<!-- 11315 -->
<g id="node12" class="node">
<title>11315</title>
<path fill="#c0c0c0" stroke="black" d="M432.5,-36C432.5,-36 402.5,-36 402.5,-36 396.5,-36 390.5,-30 390.5,-24 390.5,-24 390.5,-12 390.5,-12 390.5,-6 396.5,0 402.5,0 402.5,0 432.5,0 432.5,0 438.5,0 444.5,-6 444.5,-12 444.5,-12 444.5,-24 444.5,-24 444.5,-30 438.5,-36 432.5,-36"/>
<text text-anchor="middle" x="417.5" y="-13.32" font-family="Helvetica,sans-Serif" font-size="14.00">(...)</text>
</g>
<!-- 11314&#45;&gt;11315 -->
<g id="edge11" class="edge">
<title>11314&#45;&gt;11315</title>
<path fill="none" stroke="black" d="M445.17,-71.75C440.6,-63.03 435.95,-54.16 431.8,-46.26"/>
<polygon fill="black" stroke="black" points="434.96,-44.74 427.21,-37.51 428.76,-47.99 434.96,-44.74"/>
</g>
<!-- 13756 -->
<g id="node13" class="node">
<title>13756</title>
<path fill="#c0c0c0" stroke="black" d="M504.5,-36C504.5,-36 474.5,-36 474.5,-36 468.5,-36 462.5,-30 462.5,-24 462.5,-24 462.5,-12 462.5,-12 462.5,-6 468.5,0 474.5,0 474.5,0 504.5,0 504.5,0 510.5,0 516.5,-6 516.5,-12 516.5,-12 516.5,-24 516.5,-24 516.5,-30 510.5,-36 504.5,-36"/>
<text text-anchor="middle" x="489.5" y="-13.32" font-family="Helvetica,sans-Serif" font-size="14.00">(...)</text>
</g>
<!-- 11314&#45;&gt;13756 -->
<g id="edge12" class="edge">
<title>11314&#45;&gt;13756</title>
<path fill="none" stroke="black" d="M478.86,-71.75C480.54,-63.42 482.24,-54.97 483.78,-47.34"/>
<polygon fill="black" stroke="black" points="487.19,-48.15 485.74,-37.66 480.33,-46.77 487.19,-48.15"/>
</g>
<!-- 14376 -->
<g id="node15" class="node">
<title>14376</title>
<path fill="#c0c0c0" stroke="black" d="M614.5,-36C614.5,-36 584.5,-36 584.5,-36 578.5,-36 572.5,-30 572.5,-24 572.5,-24 572.5,-12 572.5,-12 572.5,-6 578.5,0 584.5,0 584.5,0 614.5,0 614.5,0 620.5,0 626.5,-6 626.5,-12 626.5,-12 626.5,-24 626.5,-24 626.5,-30 620.5,-36 614.5,-36"/>
<text text-anchor="middle" x="599.5" y="-13.32" font-family="Helvetica,sans-Serif" font-size="14.00">(...)</text>
</g>
<!-- 14375&#45;&gt;14376 -->
<g id="edge14" class="edge">
<title>14375&#45;&gt;14376</title>
<path fill="none" stroke="black" d="M628.24,-71.75C623.48,-63.03 618.66,-54.16 614.35,-46.26"/>
<polygon fill="black" stroke="black" points="617.44,-44.61 609.58,-37.5 611.29,-47.96 617.44,-44.61"/>
</g>
<!-- 15085 -->
<g id="node16" class="node">
<title>15085</title>
<path fill="#c0c0c0" stroke="black" d="M686.5,-36C686.5,-36 656.5,-36 656.5,-36 650.5,-36 644.5,-30 644.5,-24 644.5,-24 644.5,-12 644.5,-12 644.5,-6 650.5,0 656.5,0 656.5,0 686.5,0 686.5,0 692.5,0 698.5,-6 698.5,-12 698.5,-12 698.5,-24 698.5,-24 698.5,-30 692.5,-36 686.5,-36"/>
<text text-anchor="middle" x="671.5" y="-13.32" font-family="Helvetica,sans-Serif" font-size="14.00">(...)</text>
</g>
<!-- 14375&#45;&gt;15085 -->
<g id="edge15" class="edge">
<title>14375&#45;&gt;15085</title>
<path fill="none" stroke="black" d="M661.92,-71.75C663.43,-63.42 664.97,-54.97 666.35,-47.34"/>
<polygon fill="black" stroke="black" points="669.77,-48.13 668.11,-37.66 662.88,-46.88 669.77,-48.13"/>
</g>
<!-- 15313 -->
<g id="node18" class="node">
<title>15313</title>
<path fill="#efb083" stroke="black" d="M982.5,-296.5C982.5,-296.5 840.5,-296.5 840.5,-296.5 834.5,-296.5 828.5,-290.5 828.5,-284.5 828.5,-284.5 828.5,-214.25 828.5,-214.25 828.5,-208.25 834.5,-202.25 840.5,-202.25 840.5,-202.25 982.5,-202.25 982.5,-202.25 988.5,-202.25 994.5,-208.25 994.5,-214.25 994.5,-214.25 994.5,-284.5 994.5,-284.5 994.5,-290.5 988.5,-296.5 982.5,-296.5"/>
<text text-anchor="middle" x="911.5" y="-279.2" font-family="Helvetica,sans-Serif" font-size="14.00">2_C &lt;= 0.5</text>
<text text-anchor="middle" x="911.5" y="-261.95" font-family="Helvetica,sans-Serif" font-size="14.00">entropy = 0.844</text>
<text text-anchor="middle" x="911.5" y="-244.7" font-family="Helvetica,sans-Serif" font-size="14.00">samples = 2600</text>
<text text-anchor="middle" x="911.5" y="-227.45" font-family="Helvetica,sans-Serif" font-size="14.00">value = [3043, 1137]</text>
<text text-anchor="middle" x="911.5" y="-210.2" font-family="Helvetica,sans-Serif" font-size="14.00">class = Animal</text>
</g>
<!-- 15312&#45;&gt;15313 -->
<g id="edge17" class="edge">
<title>15312&#45;&gt;15313</title>
<path fill="none" stroke="black" d="M911.5,-332.32C911.5,-324.42 911.5,-316.13 911.5,-307.98"/>
<polygon fill="black" stroke="black" points="915,-308.12 911.5,-298.12 908,-308.12 915,-308.12"/>
</g>
<!-- 16522 -->
<g id="node25" class="node">
<title>16522</title>
<path fill="#f4cbad" stroke="black" d="M1237,-296.5C1237,-296.5 1104,-296.5 1104,-296.5 1098,-296.5 1092,-290.5 1092,-284.5 1092,-284.5 1092,-214.25 1092,-214.25 1092,-208.25 1098,-202.25 1104,-202.25 1104,-202.25 1237,-202.25 1237,-202.25 1243,-202.25 1249,-208.25 1249,-214.25 1249,-214.25 1249,-284.5 1249,-284.5 1249,-290.5 1243,-296.5 1237,-296.5"/>
<text text-anchor="middle" x="1170.5" y="-279.2" font-family="Helvetica,sans-Serif" font-size="14.00">9_C &lt;= 0.5</text>
<text text-anchor="middle" x="1170.5" y="-261.95" font-family="Helvetica,sans-Serif" font-size="14.00">entropy = 0.95</text>
<text text-anchor="middle" x="1170.5" y="-244.7" font-family="Helvetica,sans-Serif" font-size="14.00">samples = 1033</text>
<text text-anchor="middle" x="1170.5" y="-227.45" font-family="Helvetica,sans-Serif" font-size="14.00">value = [1019, 595]</text>
<text text-anchor="middle" x="1170.5" y="-210.2" font-family="Helvetica,sans-Serif" font-size="14.00">class = Animal</text>
</g>
<!-- 15312&#45;&gt;16522 -->
<g id="edge24" class="edge">
<title>15312&#45;&gt;16522</title>
<path fill="none" stroke="black" d="M994.87,-337.34C1022.53,-323.64 1053.42,-308.35 1081.49,-294.45"/>
<polygon fill="black" stroke="black" points="1082.92,-297.65 1090.33,-290.07 1079.82,-291.37 1082.92,-297.65"/>
</g>
<!-- 15314 -->
<g id="node19" class="node">
<title>15314</title>
<path fill="#edaa79" stroke="black" d="M900,-166.25C900,-166.25 767,-166.25 767,-166.25 761,-166.25 755,-160.25 755,-154.25 755,-154.25 755,-84 755,-84 755,-78 761,-72 767,-72 767,-72 900,-72 900,-72 906,-72 912,-78 912,-84 912,-84 912,-154.25 912,-154.25 912,-160.25 906,-166.25 900,-166.25"/>
<text text-anchor="middle" x="833.5" y="-148.95" font-family="Helvetica,sans-Serif" font-size="14.00">18_G &lt;= 0.5</text>
<text text-anchor="middle" x="833.5" y="-131.7" font-family="Helvetica,sans-Serif" font-size="14.00">entropy = 0.801</text>
<text text-anchor="middle" x="833.5" y="-114.45" font-family="Helvetica,sans-Serif" font-size="14.00">samples = 1942</text>
<text text-anchor="middle" x="833.5" y="-97.2" font-family="Helvetica,sans-Serif" font-size="14.00">value = [2362, 762]</text>
<text text-anchor="middle" x="833.5" y="-79.95" font-family="Helvetica,sans-Serif" font-size="14.00">class = Animal</text>
</g>
<!-- 15313&#45;&gt;15314 -->
<g id="edge18" class="edge">
<title>15313&#45;&gt;15314</title>
<path fill="none" stroke="black" d="M883.34,-202.07C878.2,-193.63 872.8,-184.74 867.51,-176.05"/>
<polygon fill="black" stroke="black" points="870.59,-174.38 862.4,-167.65 864.61,-178.01 870.59,-174.38"/>
</g>
<!-- 16269 -->
<g id="node22" class="node">
<title>16269</title>
<path fill="#f3c6a6" stroke="black" d="M1066.5,-166.25C1066.5,-166.25 942.5,-166.25 942.5,-166.25 936.5,-166.25 930.5,-160.25 930.5,-154.25 930.5,-154.25 930.5,-84 930.5,-84 930.5,-78 936.5,-72 942.5,-72 942.5,-72 1066.5,-72 1066.5,-72 1072.5,-72 1078.5,-78 1078.5,-84 1078.5,-84 1078.5,-154.25 1078.5,-154.25 1078.5,-160.25 1072.5,-166.25 1066.5,-166.25"/>
<text text-anchor="middle" x="1004.5" y="-148.95" font-family="Helvetica,sans-Serif" font-size="14.00">13_C &lt;= 0.5</text>
<text text-anchor="middle" x="1004.5" y="-131.7" font-family="Helvetica,sans-Serif" font-size="14.00">entropy = 0.939</text>
<text text-anchor="middle" x="1004.5" y="-114.45" font-family="Helvetica,sans-Serif" font-size="14.00">samples = 658</text>
<text text-anchor="middle" x="1004.5" y="-97.2" font-family="Helvetica,sans-Serif" font-size="14.00">value = [681, 375]</text>
<text text-anchor="middle" x="1004.5" y="-79.95" font-family="Helvetica,sans-Serif" font-size="14.00">class = Animal</text>
</g>
<!-- 15313&#45;&gt;16269 -->
<g id="edge21" class="edge">
<title>15313&#45;&gt;16269</title>
<path fill="none" stroke="black" d="M945.08,-202.07C951.33,-193.45 957.93,-184.35 964.35,-175.49"/>
<polygon fill="black" stroke="black" points="967.05,-177.73 970.09,-167.58 961.38,-173.62 967.05,-177.73"/>
</g>
<!-- 15315 -->
<g id="node20" class="node">
<title>15315</title>
<path fill="#c0c0c0" stroke="black" d="M789.5,-36C789.5,-36 759.5,-36 759.5,-36 753.5,-36 747.5,-30 747.5,-24 747.5,-24 747.5,-12 747.5,-12 747.5,-6 753.5,0 759.5,0 759.5,0 789.5,0 789.5,0 795.5,0 801.5,-6 801.5,-12 801.5,-12 801.5,-24 801.5,-24 801.5,-30 795.5,-36 789.5,-36"/>
<text text-anchor="middle" x="774.5" y="-13.32" font-family="Helvetica,sans-Serif" font-size="14.00">(...)</text>
</g>
<!-- 15314&#45;&gt;15315 -->
<g id="edge19" class="edge">
<title>15314&#45;&gt;15315</title>
<path fill="none" stroke="black" d="M805.9,-71.75C800.65,-62.93 795.31,-53.96 790.56,-45.99"/>
<polygon fill="black" stroke="black" points="793.62,-44.28 785.5,-37.47 787.6,-47.86 793.62,-44.28"/>
</g>
<!-- 16000 -->
<g id="node21" class="node">
<title>16000</title>
<path fill="#c0c0c0" stroke="black" d="M861.5,-36C861.5,-36 831.5,-36 831.5,-36 825.5,-36 819.5,-30 819.5,-24 819.5,-24 819.5,-12 819.5,-12 819.5,-6 825.5,0 831.5,0 831.5,0 861.5,0 861.5,0 867.5,0 873.5,-6 873.5,-12 873.5,-12 873.5,-24 873.5,-24 873.5,-30 867.5,-36 861.5,-36"/>
<text text-anchor="middle" x="846.5" y="-13.32" font-family="Helvetica,sans-Serif" font-size="14.00">(...)</text>
</g>
<!-- 15314&#45;&gt;16000 -->
<g id="edge20" class="edge">
<title>15314&#45;&gt;16000</title>
<path fill="none" stroke="black" d="M839.58,-71.75C840.67,-63.42 841.78,-54.97 842.78,-47.34"/>
<polygon fill="black" stroke="black" points="846.22,-48.04 844.05,-37.67 839.28,-47.13 846.22,-48.04"/>
</g>
<!-- 16270 -->
<g id="node23" class="node">
<title>16270</title>
<path fill="#c0c0c0" stroke="black" d="M958.5,-36C958.5,-36 928.5,-36 928.5,-36 922.5,-36 916.5,-30 916.5,-24 916.5,-24 916.5,-12 916.5,-12 916.5,-6 922.5,0 928.5,0 928.5,0 958.5,0 958.5,0 964.5,0 970.5,-6 970.5,-12 970.5,-12 970.5,-24 970.5,-24 970.5,-30 964.5,-36 958.5,-36"/>
<text text-anchor="middle" x="943.5" y="-13.32" font-family="Helvetica,sans-Serif" font-size="14.00">(...)</text>
</g>
<!-- 16269&#45;&gt;16270 -->
<g id="edge22" class="edge">
<title>16269&#45;&gt;16270</title>
<path fill="none" stroke="black" d="M975.96,-71.75C970.47,-62.83 964.89,-53.76 959.94,-45.72"/>
<polygon fill="black" stroke="black" points="963.08,-44.14 954.86,-37.46 957.12,-47.81 963.08,-44.14"/>
</g>
<!-- 16449 -->
<g id="node24" class="node">
<title>16449</title>
<path fill="#c0c0c0" stroke="black" d="M1030.5,-36C1030.5,-36 1000.5,-36 1000.5,-36 994.5,-36 988.5,-30 988.5,-24 988.5,-24 988.5,-12 988.5,-12 988.5,-6 994.5,0 1000.5,0 1000.5,0 1030.5,0 1030.5,0 1036.5,0 1042.5,-6 1042.5,-12 1042.5,-12 1042.5,-24 1042.5,-24 1042.5,-30 1036.5,-36 1030.5,-36"/>
<text text-anchor="middle" x="1015.5" y="-13.32" font-family="Helvetica,sans-Serif" font-size="14.00">(...)</text>
</g>
<!-- 16269&#45;&gt;16449 -->
<g id="edge23" class="edge">
<title>16269&#45;&gt;16449</title>
<path fill="none" stroke="black" d="M1009.65,-71.75C1010.56,-63.52 1011.49,-55.17 1012.32,-47.61"/>
<polygon fill="black" stroke="black" points="1015.8,-48 1013.43,-37.68 1008.85,-47.23 1015.8,-48"/>
</g>
<!-- 16523 -->
<g id="node26" class="node">
<title>16523</title>
<path fill="#f7dac5" stroke="black" d="M1232.5,-166.25C1232.5,-166.25 1108.5,-166.25 1108.5,-166.25 1102.5,-166.25 1096.5,-160.25 1096.5,-154.25 1096.5,-154.25 1096.5,-84 1096.5,-84 1096.5,-78 1102.5,-72 1108.5,-72 1108.5,-72 1232.5,-72 1232.5,-72 1238.5,-72 1244.5,-78 1244.5,-84 1244.5,-84 1244.5,-154.25 1244.5,-154.25 1244.5,-160.25 1238.5,-166.25 1232.5,-166.25"/>
<text text-anchor="middle" x="1170.5" y="-148.95" font-family="Helvetica,sans-Serif" font-size="14.00">12_G &lt;= 0.5</text>
<text text-anchor="middle" x="1170.5" y="-131.7" font-family="Helvetica,sans-Serif" font-size="14.00">entropy = 0.979</text>
<text text-anchor="middle" x="1170.5" y="-114.45" font-family="Helvetica,sans-Serif" font-size="14.00">samples = 756</text>
<text text-anchor="middle" x="1170.5" y="-97.2" font-family="Helvetica,sans-Serif" font-size="14.00">value = [684, 484]</text>
<text text-anchor="middle" x="1170.5" y="-79.95" font-family="Helvetica,sans-Serif" font-size="14.00">class = Animal</text>
</g>
<!-- 16522&#45;&gt;16523 -->
<g id="edge25" class="edge">
<title>16522&#45;&gt;16523</title>
<path fill="none" stroke="black" d="M1170.5,-202.07C1170.5,-194.17 1170.5,-185.88 1170.5,-177.73"/>
<polygon fill="black" stroke="black" points="1174,-177.87 1170.5,-167.87 1167,-177.87 1174,-177.87"/>
</g>
<!-- 16938 -->
<g id="node29" class="node">
<title>16938</title>
<path fill="#eeab7b" stroke="black" d="M1398.5,-166.25C1398.5,-166.25 1274.5,-166.25 1274.5,-166.25 1268.5,-166.25 1262.5,-160.25 1262.5,-154.25 1262.5,-154.25 1262.5,-84 1262.5,-84 1262.5,-78 1268.5,-72 1274.5,-72 1274.5,-72 1398.5,-72 1398.5,-72 1404.5,-72 1410.5,-78 1410.5,-84 1410.5,-84 1410.5,-154.25 1410.5,-154.25 1410.5,-160.25 1404.5,-166.25 1398.5,-166.25"/>
<text text-anchor="middle" x="1336.5" y="-148.95" font-family="Helvetica,sans-Serif" font-size="14.00">2_G &lt;= 0.5</text>
<text text-anchor="middle" x="1336.5" y="-131.7" font-family="Helvetica,sans-Serif" font-size="14.00">entropy = 0.809</text>
<text text-anchor="middle" x="1336.5" y="-114.45" font-family="Helvetica,sans-Serif" font-size="14.00">samples = 277</text>
<text text-anchor="middle" x="1336.5" y="-97.2" font-family="Helvetica,sans-Serif" font-size="14.00">value = [335, 111]</text>
<text text-anchor="middle" x="1336.5" y="-79.95" font-family="Helvetica,sans-Serif" font-size="14.00">class = Animal</text>
</g>
<!-- 16522&#45;&gt;16938 -->
<g id="edge28" class="edge">
<title>16522&#45;&gt;16938</title>
<path fill="none" stroke="black" d="M1230.43,-202.07C1242.46,-192.78 1255.2,-182.94 1267.51,-173.43"/>
<polygon fill="black" stroke="black" points="1269.41,-176.38 1275.18,-167.5 1265.13,-170.84 1269.41,-176.38"/>
</g>
<!-- 16524 -->
<g id="node27" class="node">
<title>16524</title>
<path fill="#c0c0c0" stroke="black" d="M1142.5,-36C1142.5,-36 1112.5,-36 1112.5,-36 1106.5,-36 1100.5,-30 1100.5,-24 1100.5,-24 1100.5,-12 1100.5,-12 1100.5,-6 1106.5,0 1112.5,0 1112.5,0 1142.5,0 1142.5,0 1148.5,0 1154.5,-6 1154.5,-12 1154.5,-12 1154.5,-24 1154.5,-24 1154.5,-30 1148.5,-36 1142.5,-36"/>
<text text-anchor="middle" x="1127.5" y="-13.32" font-family="Helvetica,sans-Serif" font-size="14.00">(...)</text>
</g>
<!-- 16523&#45;&gt;16524 -->
<g id="edge26" class="edge">
<title>16523&#45;&gt;16524</title>
<path fill="none" stroke="black" d="M1150.38,-71.75C1146.64,-63.12 1142.84,-54.36 1139.44,-46.53"/>
<polygon fill="black" stroke="black" points="1142.74,-45.34 1135.55,-37.56 1136.32,-48.13 1142.74,-45.34"/>
</g>
<!-- 16817 -->
<g id="node28" class="node">
<title>16817</title>
<path fill="#c0c0c0" stroke="black" d="M1214.5,-36C1214.5,-36 1184.5,-36 1184.5,-36 1178.5,-36 1172.5,-30 1172.5,-24 1172.5,-24 1172.5,-12 1172.5,-12 1172.5,-6 1178.5,0 1184.5,0 1184.5,0 1214.5,0 1214.5,0 1220.5,0 1226.5,-6 1226.5,-12 1226.5,-12 1226.5,-24 1226.5,-24 1226.5,-30 1220.5,-36 1214.5,-36"/>
<text text-anchor="middle" x="1199.5" y="-13.32" font-family="Helvetica,sans-Serif" font-size="14.00">(...)</text>
</g>
<!-- 16523&#45;&gt;16817 -->
<g id="edge27" class="edge">
<title>16523&#45;&gt;16817</title>
<path fill="none" stroke="black" d="M1184.07,-71.75C1186.53,-63.32 1189.04,-54.77 1191.29,-47.07"/>
<polygon fill="black" stroke="black" points="1194.6,-48.21 1194.05,-37.63 1187.88,-46.24 1194.6,-48.21"/>
</g>
<!-- 16939 -->
<g id="node30" class="node">
<title>16939</title>
<path fill="#c0c0c0" stroke="black" d="M1315.5,-36C1315.5,-36 1285.5,-36 1285.5,-36 1279.5,-36 1273.5,-30 1273.5,-24 1273.5,-24 1273.5,-12 1273.5,-12 1273.5,-6 1279.5,0 1285.5,0 1285.5,0 1315.5,0 1315.5,0 1321.5,0 1327.5,-6 1327.5,-12 1327.5,-12 1327.5,-24 1327.5,-24 1327.5,-30 1321.5,-36 1315.5,-36"/>
<text text-anchor="middle" x="1300.5" y="-13.32" font-family="Helvetica,sans-Serif" font-size="14.00">(...)</text>
</g>
<!-- 16938&#45;&gt;16939 -->
<g id="edge29" class="edge">
<title>16938&#45;&gt;16939</title>
<path fill="none" stroke="black" d="M1319.66,-71.75C1316.56,-63.22 1313.42,-54.57 1310.6,-46.8"/>
<polygon fill="black" stroke="black" points="1313.96,-45.8 1307.25,-37.6 1307.38,-48.19 1313.96,-45.8"/>
</g>
<!-- 17036 -->
<g id="node31" class="node">
<title>17036</title>
<path fill="#c0c0c0" stroke="black" d="M1387.5,-36C1387.5,-36 1357.5,-36 1357.5,-36 1351.5,-36 1345.5,-30 1345.5,-24 1345.5,-24 1345.5,-12 1345.5,-12 1345.5,-6 1351.5,0 1357.5,0 1357.5,0 1387.5,0 1387.5,0 1393.5,0 1399.5,-6 1399.5,-12 1399.5,-12 1399.5,-24 1399.5,-24 1399.5,-30 1393.5,-36 1387.5,-36"/>
<text text-anchor="middle" x="1372.5" y="-13.32" font-family="Helvetica,sans-Serif" font-size="14.00">(...)</text>
</g>
<!-- 16938&#45;&gt;17036 -->
<g id="edge30" class="edge">
<title>16938&#45;&gt;17036</title>
<path fill="none" stroke="black" d="M1353.34,-71.75C1356.44,-63.22 1359.58,-54.57 1362.4,-46.8"/>
<polygon fill="black" stroke="black" points="1365.62,-48.19 1365.75,-37.6 1359.04,-45.8 1365.62,-48.19"/>
</g>
</g>
</svg>
