<?xml version="1.0" encoding="UTF-8" standalone="no"?>
<!DOCTYPE svg PUBLIC "-//W3C//DTD SVG 1.1//EN"
 "http://www.w3.org/Graphics/SVG/1.1/DTD/svg11.dtd">
<!-- Generated by graphviz version 12.0.0 (20240803.0821)
 -->
<!-- Title: Tree Pages: 1 -->
<svg width="1446pt" height="565pt"
 viewBox="0.00 0.00 1445.50 565.00" xmlns="http://www.w3.org/2000/svg" xmlns:xlink="http://www.w3.org/1999/xlink">
<g id="graph0" class="graph" transform="scale(1 1) rotate(0) translate(4 561)">
<title>Tree</title>
<polygon fill="white" stroke="none" points="-4,4 -4,-561 1441.5,-561 1441.5,4 -4,4"/>
<!-- 0 -->
<g id="node1" class="node">
<title>0</title>
<path fill="#fffdfc" stroke="black" d="M830,-557C830,-557 670,-557 670,-557 664,-557 658,-551 658,-545 658,-545 658,-474.75 658,-474.75 658,-468.75 664,-462.75 670,-462.75 670,-462.75 830,-462.75 830,-462.75 836,-462.75 842,-468.75 842,-474.75 842,-474.75 842,-545 842,-545 842,-551 836,-557 830,-557"/>
<text text-anchor="middle" x="750" y="-539.7" font-family="Helvetica,sans-Serif" font-size="14.00">22_U &lt;= 0.5</text>
<text text-anchor="middle" x="750" y="-522.45" font-family="Helvetica,sans-Serif" font-size="14.00">entropy = 1.0</text>
<text text-anchor="middle" x="750" y="-505.2" font-family="Helvetica,sans-Serif" font-size="14.00">samples = 38202</text>
<text text-anchor="middle" x="750" y="-487.95" font-family="Helvetica,sans-Serif" font-size="14.00">value = [30396, 29949]</text>
<text text-anchor="middle" x="750" y="-470.7" font-family="Helvetica,sans-Serif" font-size="14.00">class = Animal</text>
</g>
<!-- 1 -->
<g id="node2" class="node">
<title>1</title>
<path fill="#dfeffb" stroke="black" d="M648,-426.75C648,-426.75 488,-426.75 488,-426.75 482,-426.75 476,-420.75 476,-414.75 476,-414.75 476,-344.5 476,-344.5 476,-338.5 482,-332.5 488,-332.5 488,-332.5 648,-332.5 648,-332.5 654,-332.5 660,-338.5 660,-344.5 660,-344.5 660,-414.75 660,-414.75 660,-420.75 654,-426.75 648,-426.75"/>
<text text-anchor="middle" x="568" y="-409.45" font-family="Helvetica,sans-Serif" font-size="14.00">19_U &lt;= 0.5</text>
<text text-anchor="middle" x="568" y="-392.2" font-family="Helvetica,sans-Serif" font-size="14.00">entropy = 0.994</text>
<text text-anchor="middle" x="568" y="-374.95" font-family="Helvetica,sans-Serif" font-size="14.00">samples = 33071</text>
<text text-anchor="middle" x="568" y="-357.7" font-family="Helvetica,sans-Serif" font-size="14.00">value = [23818, 28399]</text>
<text text-anchor="middle" x="568" y="-340.45" font-family="Helvetica,sans-Serif" font-size="14.00">class = Plant</text>
</g>
<!-- 0&#45;&gt;1 -->
<g id="edge1" class="edge">
<title>0&#45;&gt;1</title>
<path fill="none" stroke="black" d="M684.04,-462.39C670.81,-453.07 656.82,-443.22 643.31,-433.69"/>
<polygon fill="black" stroke="black" points="645.47,-430.94 635.28,-428.04 641.44,-436.66 645.47,-430.94"/>
<text text-anchor="middle" x="638.31" y="-447.12" font-family="Helvetica,sans-Serif" font-size="14.00">True</text>
</g>
<!-- 14852 -->
<g id="node17" class="node">
<title>14852</title>
<path fill="#eb9f68" stroke="black" d="M1005,-426.75C1005,-426.75 863,-426.75 863,-426.75 857,-426.75 851,-420.75 851,-414.75 851,-414.75 851,-344.5 851,-344.5 851,-338.5 857,-332.5 863,-332.5 863,-332.5 1005,-332.5 1005,-332.5 1011,-332.5 1017,-338.5 1017,-344.5 1017,-344.5 1017,-414.75 1017,-414.75 1017,-420.75 1011,-426.75 1005,-426.75"/>
<text text-anchor="middle" x="934" y="-409.45" font-family="Helvetica,sans-Serif" font-size="14.00">1_A &lt;= 0.5</text>
<text text-anchor="middle" x="934" y="-392.2" font-family="Helvetica,sans-Serif" font-size="14.00">entropy = 0.703</text>
<text text-anchor="middle" x="934" y="-374.95" font-family="Helvetica,sans-Serif" font-size="14.00">samples = 5131</text>
<text text-anchor="middle" x="934" y="-357.7" font-family="Helvetica,sans-Serif" font-size="14.00">value = [6578, 1550]</text>
<text text-anchor="middle" x="934" y="-340.45" font-family="Helvetica,sans-Serif" font-size="14.00">class = Animal</text>
</g>
<!-- 0&#45;&gt;14852 -->
<g id="edge16" class="edge">
<title>0&#45;&gt;14852</title>
<path fill="none" stroke="black" d="M816.69,-462.39C830.06,-453.07 844.2,-443.22 857.86,-433.69"/>
<polygon fill="black" stroke="black" points="859.79,-436.62 865.99,-428.03 855.78,-430.88 859.79,-436.62"/>
<text text-anchor="middle" x="862.84" y="-447.1" font-family="Helvetica,sans-Serif" font-size="14.00">False</text>
</g>
<!-- 2 -->
<g id="node3" class="node">
<title>2</title>
<path fill="#c3e1f7" stroke="black" d="M370,-296.5C370,-296.5 210,-296.5 210,-296.5 204,-296.5 198,-290.5 198,-284.5 198,-284.5 198,-214.25 198,-214.25 198,-208.25 204,-202.25 210,-202.25 210,-202.25 370,-202.25 370,-202.25 376,-202.25 382,-208.25 382,-214.25 382,-214.25 382,-284.5 382,-284.5 382,-290.5 376,-296.5 370,-296.5"/>
<text text-anchor="middle" x="290" y="-279.2" font-family="Helvetica,sans-Serif" font-size="14.00">19_C &lt;= 0.5</text>
<text text-anchor="middle" x="290" y="-261.95" font-family="Helvetica,sans-Serif" font-size="14.00">entropy = 0.977</text>
<text text-anchor="middle" x="290" y="-244.7" font-family="Helvetica,sans-Serif" font-size="14.00">samples = 25458</text>
<text text-anchor="middle" x="290" y="-227.45" font-family="Helvetica,sans-Serif" font-size="14.00">value = [16498, 23718]</text>
<text text-anchor="middle" x="290" y="-210.2" font-family="Helvetica,sans-Serif" font-size="14.00">class = Plant</text>
</g>
<!-- 1&#45;&gt;2 -->
<g id="edge2" class="edge">
<title>1&#45;&gt;2</title>
<path fill="none" stroke="black" d="M475.82,-336.1C449.19,-323.81 419.96,-310.33 392.74,-297.77"/>
<polygon fill="black" stroke="black" points="394.33,-294.65 383.78,-293.64 391.4,-301.01 394.33,-294.65"/>
</g>
<!-- 10827 -->
<g id="node10" class="node">
<title>10827</title>
<path fill="#f6d2b8" stroke="black" d="M639,-296.5C639,-296.5 497,-296.5 497,-296.5 491,-296.5 485,-290.5 485,-284.5 485,-284.5 485,-214.25 485,-214.25 485,-208.25 491,-202.25 497,-202.25 497,-202.25 639,-202.25 639,-202.25 645,-202.25 651,-208.25 651,-214.25 651,-214.25 651,-284.5 651,-284.5 651,-290.5 645,-296.5 639,-296.5"/>
<text text-anchor="middle" x="568" y="-279.2" font-family="Helvetica,sans-Serif" font-size="14.00">1_U &lt;= 0.5</text>
<text text-anchor="middle" x="568" y="-261.95" font-family="Helvetica,sans-Serif" font-size="14.00">entropy = 0.965</text>
<text text-anchor="middle" x="568" y="-244.7" font-family="Helvetica,sans-Serif" font-size="14.00">samples = 7613</text>
<text text-anchor="middle" x="568" y="-227.45" font-family="Helvetica,sans-Serif" font-size="14.00">value = [7320, 4681]</text>
<text text-anchor="middle" x="568" y="-210.2" font-family="Helvetica,sans-Serif" font-size="14.00">class = Animal</text>
</g>
<!-- 1&#45;&gt;10827 -->
<g id="edge9" class="edge">
<title>1&#45;&gt;10827</title>
<path fill="none" stroke="black" d="M568,-332.32C568,-324.42 568,-316.13 568,-307.98"/>
<polygon fill="black" stroke="black" points="571.5,-308.12 568,-298.12 564.5,-308.12 571.5,-308.12"/>
</g>
<!-- 3 -->
<g id="node4" class="node">
<title>3</title>
<path fill="#f9fcfe" stroke="black" d="M172,-166.25C172,-166.25 12,-166.25 12,-166.25 6,-166.25 0,-160.25 0,-154.25 0,-154.25 0,-84 0,-84 0,-78 6,-72 12,-72 12,-72 172,-72 172,-72 178,-72 184,-78 184,-84 184,-84 184,-154.25 184,-154.25 184,-160.25 178,-166.25 172,-166.25"/>
<text text-anchor="middle" x="92" y="-148.95" font-family="Helvetica,sans-Serif" font-size="14.00">22_G &lt;= 0.5</text>
<text text-anchor="middle" x="92" y="-131.7" font-family="Helvetica,sans-Serif" font-size="14.00">entropy = 1.0</text>
<text text-anchor="middle" x="92" y="-114.45" font-family="Helvetica,sans-Serif" font-size="14.00">samples = 14377</text>
<text text-anchor="middle" x="92" y="-97.2" font-family="Helvetica,sans-Serif" font-size="14.00">value = [11226, 11582]</text>
<text text-anchor="middle" x="92" y="-79.95" font-family="Helvetica,sans-Serif" font-size="14.00">class = Plant</text>
</g>
<!-- 2&#45;&gt;3 -->
<g id="edge3" class="edge">
<title>2&#45;&gt;3</title>
<path fill="none" stroke="black" d="M218.24,-201.89C203.71,-192.48 188.34,-182.53 173.5,-172.92"/>
<polygon fill="black" stroke="black" points="175.42,-169.99 165.12,-167.49 171.61,-175.86 175.42,-169.99"/>
</g>
<!-- 7142 -->
<g id="node7" class="node">
<title>7142</title>
<path fill="#8fc8f0" stroke="black" d="M365.5,-166.25C365.5,-166.25 214.5,-166.25 214.5,-166.25 208.5,-166.25 202.5,-160.25 202.5,-154.25 202.5,-154.25 202.5,-84 202.5,-84 202.5,-78 208.5,-72 214.5,-72 214.5,-72 365.5,-72 365.5,-72 371.5,-72 377.5,-78 377.5,-84 377.5,-84 377.5,-154.25 377.5,-154.25 377.5,-160.25 371.5,-166.25 365.5,-166.25"/>
<text text-anchor="middle" x="290" y="-148.95" font-family="Helvetica,sans-Serif" font-size="14.00">12_G &lt;= 0.5</text>
<text text-anchor="middle" x="290" y="-131.7" font-family="Helvetica,sans-Serif" font-size="14.00">entropy = 0.885</text>
<text text-anchor="middle" x="290" y="-114.45" font-family="Helvetica,sans-Serif" font-size="14.00">samples = 11081</text>
<text text-anchor="middle" x="290" y="-97.2" font-family="Helvetica,sans-Serif" font-size="14.00">value = [5272, 12136]</text>
<text text-anchor="middle" x="290" y="-79.95" font-family="Helvetica,sans-Serif" font-size="14.00">class = Plant</text>
</g>
<!-- 2&#45;&gt;7142 -->
<g id="edge6" class="edge">
<title>2&#45;&gt;7142</title>
<path fill="none" stroke="black" d="M290,-202.07C290,-194.17 290,-185.88 290,-177.73"/>
<polygon fill="black" stroke="black" points="293.5,-177.87 290,-167.87 286.5,-177.87 293.5,-177.87"/>
</g>
<!-- 4 -->
<g id="node5" class="node">
<title>4</title>
<path fill="#c0c0c0" stroke="black" d="M71,-36C71,-36 41,-36 41,-36 35,-36 29,-30 29,-24 29,-24 29,-12 29,-12 29,-6 35,0 41,0 41,0 71,0 71,0 77,0 83,-6 83,-12 83,-12 83,-24 83,-24 83,-30 77,-36 71,-36"/>
<text text-anchor="middle" x="56" y="-13.32" font-family="Helvetica,sans-Serif" font-size="14.00">(...)</text>
</g>
<!-- 3&#45;&gt;4 -->
<g id="edge4" class="edge">
<title>3&#45;&gt;4</title>
<path fill="none" stroke="black" d="M75.16,-71.75C72.06,-63.22 68.92,-54.57 66.1,-46.8"/>
<polygon fill="black" stroke="black" points="69.46,-45.8 62.75,-37.6 62.88,-48.19 69.46,-45.8"/>
</g>
<!-- 6133 -->
<g id="node6" class="node">
<title>6133</title>
<path fill="#c0c0c0" stroke="black" d="M143,-36C143,-36 113,-36 113,-36 107,-36 101,-30 101,-24 101,-24 101,-12 101,-12 101,-6 107,0 113,0 113,0 143,0 143,0 149,0 155,-6 155,-12 155,-12 155,-24 155,-24 155,-30 149,-36 143,-36"/>
<text text-anchor="middle" x="128" y="-13.32" font-family="Helvetica,sans-Serif" font-size="14.00">(...)</text>
</g>
<!-- 3&#45;&gt;6133 -->
<g id="edge5" class="edge">
<title>3&#45;&gt;6133</title>
<path fill="none" stroke="black" d="M108.84,-71.75C111.94,-63.22 115.08,-54.57 117.9,-46.8"/>
<polygon fill="black" stroke="black" points="121.12,-48.19 121.25,-37.6 114.54,-45.8 121.12,-48.19"/>
</g>
<!-- 7143 -->
<g id="node8" class="node">
<title>7143</title>
<path fill="#c0c0c0" stroke="black" d="M276,-36C276,-36 246,-36 246,-36 240,-36 234,-30 234,-24 234,-24 234,-12 234,-12 234,-6 240,0 246,0 246,0 276,0 276,0 282,0 288,-6 288,-12 288,-12 288,-24 288,-24 288,-30 282,-36 276,-36"/>
<text text-anchor="middle" x="261" y="-13.32" font-family="Helvetica,sans-Serif" font-size="14.00">(...)</text>
</g>
<!-- 7142&#45;&gt;7143 -->
<g id="edge7" class="edge">
<title>7142&#45;&gt;7143</title>
<path fill="none" stroke="black" d="M276.43,-71.75C273.97,-63.32 271.46,-54.77 269.21,-47.07"/>
<polygon fill="black" stroke="black" points="272.62,-46.24 266.45,-37.63 265.9,-48.21 272.62,-46.24"/>
</g>
<!-- 9832 -->
<g id="node9" class="node">
<title>9832</title>
<path fill="#c0c0c0" stroke="black" d="M348,-36C348,-36 318,-36 318,-36 312,-36 306,-30 306,-24 306,-24 306,-12 306,-12 306,-6 312,0 318,0 318,0 348,0 348,0 354,0 360,-6 360,-12 360,-12 360,-24 360,-24 360,-30 354,-36 348,-36"/>
<text text-anchor="middle" x="333" y="-13.32" font-family="Helvetica,sans-Serif" font-size="14.00">(...)</text>
</g>
<!-- 7142&#45;&gt;9832 -->
<g id="edge8" class="edge">
<title>7142&#45;&gt;9832</title>
<path fill="none" stroke="black" d="M310.12,-71.75C313.86,-63.12 317.66,-54.36 321.06,-46.53"/>
<polygon fill="black" stroke="black" points="324.18,-48.13 324.95,-37.56 317.76,-45.34 324.18,-48.13"/>
</g>
<!-- 10828 -->
<g id="node11" class="node">
<title>10828</title>
<path fill="#f1ba92" stroke="black" d="M550,-166.25C550,-166.25 408,-166.25 408,-166.25 402,-166.25 396,-160.25 396,-154.25 396,-154.25 396,-84 396,-84 396,-78 402,-72 408,-72 408,-72 550,-72 550,-72 556,-72 562,-78 562,-84 562,-84 562,-154.25 562,-154.25 562,-160.25 556,-166.25 550,-166.25"/>
<text text-anchor="middle" x="479" y="-148.95" font-family="Helvetica,sans-Serif" font-size="14.00">21_U &lt;= 0.5</text>
<text text-anchor="middle" x="479" y="-131.7" font-family="Helvetica,sans-Serif" font-size="14.00">entropy = 0.893</text>
<text text-anchor="middle" x="479" y="-114.45" font-family="Helvetica,sans-Serif" font-size="14.00">samples = 3893</text>
<text text-anchor="middle" x="479" y="-97.2" font-family="Helvetica,sans-Serif" font-size="14.00">value = [4189, 1879]</text>
<text text-anchor="middle" x="479" y="-79.95" font-family="Helvetica,sans-Serif" font-size="14.00">class = Animal</text>
</g>
<!-- 10827&#45;&gt;10828 -->
<g id="edge10" class="edge">
<title>10827&#45;&gt;10828</title>
<path fill="none" stroke="black" d="M535.87,-202.07C529.95,-193.54 523.7,-184.54 517.61,-175.77"/>
<polygon fill="black" stroke="black" points="520.52,-173.82 511.95,-167.6 514.77,-177.81 520.52,-173.82"/>
</g>
<!-- 13037 -->
<g id="node14" class="node">
<title>13037</title>
<path fill="#fcf2ea" stroke="black" d="M734,-166.25C734,-166.25 592,-166.25 592,-166.25 586,-166.25 580,-160.25 580,-154.25 580,-154.25 580,-84 580,-84 580,-78 586,-72 592,-72 592,-72 734,-72 734,-72 740,-72 746,-78 746,-84 746,-84 746,-154.25 746,-154.25 746,-160.25 740,-166.25 734,-166.25"/>
<text text-anchor="middle" x="663" y="-148.95" font-family="Helvetica,sans-Serif" font-size="14.00">12_G &lt;= 0.5</text>
<text text-anchor="middle" x="663" y="-131.7" font-family="Helvetica,sans-Serif" font-size="14.00">entropy = 0.998</text>
<text text-anchor="middle" x="663" y="-114.45" font-family="Helvetica,sans-Serif" font-size="14.00">samples = 3720</text>
<text text-anchor="middle" x="663" y="-97.2" font-family="Helvetica,sans-Serif" font-size="14.00">value = [3131, 2802]</text>
<text text-anchor="middle" x="663" y="-79.95" font-family="Helvetica,sans-Serif" font-size="14.00">class = Animal</text>
</g>
<!-- 10827&#45;&gt;13037 -->
<g id="edge13" class="edge">
<title>10827&#45;&gt;13037</title>
<path fill="none" stroke="black" d="M602.3,-202.07C608.69,-193.45 615.42,-184.35 621.99,-175.49"/>
<polygon fill="black" stroke="black" points="624.71,-177.69 627.85,-167.57 619.09,-173.53 624.71,-177.69"/>
</g>
<!-- 10829 -->
<g id="node12" class="node">
<title>10829</title>
<path fill="#c0c0c0" stroke="black" d="M442,-36C442,-36 412,-36 412,-36 406,-36 400,-30 400,-24 400,-24 400,-12 400,-12 400,-6 406,0 412,0 412,0 442,0 442,0 448,0 454,-6 454,-12 454,-12 454,-24 454,-24 454,-30 448,-36 442,-36"/>
<text text-anchor="middle" x="427" y="-13.32" font-family="Helvetica,sans-Serif" font-size="14.00">(...)</text>
</g>
<!-- 10828&#45;&gt;10829 -->
<g id="edge11" class="edge">
<title>10828&#45;&gt;10829</title>
<path fill="none" stroke="black" d="M454.67,-71.75C450.1,-63.03 445.45,-54.16 441.3,-46.26"/>
<polygon fill="black" stroke="black" points="444.46,-44.74 436.71,-37.51 438.26,-47.99 444.46,-44.74"/>
</g>
<!-- 12600 -->
<g id="node13" class="node">
<title>12600</title>
<path fill="#c0c0c0" stroke="black" d="M514,-36C514,-36 484,-36 484,-36 478,-36 472,-30 472,-24 472,-24 472,-12 472,-12 472,-6 478,0 484,0 484,0 514,0 514,0 520,0 526,-6 526,-12 526,-12 526,-24 526,-24 526,-30 520,-36 514,-36"/>
<text text-anchor="middle" x="499" y="-13.32" font-family="Helvetica,sans-Serif" font-size="14.00">(...)</text>
</g>
<!-- 10828&#45;&gt;12600 -->
<g id="edge12" class="edge">
<title>10828&#45;&gt;12600</title>
<path fill="none" stroke="black" d="M488.36,-71.75C490.04,-63.42 491.74,-54.97 493.28,-47.34"/>
<polygon fill="black" stroke="black" points="496.69,-48.15 495.24,-37.66 489.83,-46.77 496.69,-48.15"/>
</g>
<!-- 13038 -->
<g id="node15" class="node">
<title>13038</title>
<path fill="#c0c0c0" stroke="black" d="M626,-36C626,-36 596,-36 596,-36 590,-36 584,-30 584,-24 584,-24 584,-12 584,-12 584,-6 590,0 596,0 596,0 626,0 626,0 632,0 638,-6 638,-12 638,-12 638,-24 638,-24 638,-30 632,-36 626,-36"/>
<text text-anchor="middle" x="611" y="-13.32" font-family="Helvetica,sans-Serif" font-size="14.00">(...)</text>
</g>
<!-- 13037&#45;&gt;13038 -->
<g id="edge14" class="edge">
<title>13037&#45;&gt;13038</title>
<path fill="none" stroke="black" d="M638.67,-71.75C634.1,-63.03 629.45,-54.16 625.3,-46.26"/>
<polygon fill="black" stroke="black" points="628.46,-44.74 620.71,-37.51 622.26,-47.99 628.46,-44.74"/>
</g>
<!-- 14397 -->
<g id="node16" class="node">
<title>14397</title>
<path fill="#c0c0c0" stroke="black" d="M698,-36C698,-36 668,-36 668,-36 662,-36 656,-30 656,-24 656,-24 656,-12 656,-12 656,-6 662,0 668,0 668,0 698,0 698,0 704,0 710,-6 710,-12 710,-12 710,-24 710,-24 710,-30 704,-36 698,-36"/>
<text text-anchor="middle" x="683" y="-13.32" font-family="Helvetica,sans-Serif" font-size="14.00">(...)</text>
</g>
<!-- 13037&#45;&gt;14397 -->
<g id="edge15" class="edge">
<title>13037&#45;&gt;14397</title>
<path fill="none" stroke="black" d="M672.36,-71.75C674.04,-63.42 675.74,-54.97 677.28,-47.34"/>
<polygon fill="black" stroke="black" points="680.69,-48.15 679.24,-37.66 673.83,-46.77 680.69,-48.15"/>
</g>
<!-- 14853 -->
<g id="node18" class="node">
<title>14853</title>
<path fill="#eca470" stroke="black" d="M1005,-296.5C1005,-296.5 863,-296.5 863,-296.5 857,-296.5 851,-290.5 851,-284.5 851,-284.5 851,-214.25 851,-214.25 851,-208.25 857,-202.25 863,-202.25 863,-202.25 1005,-202.25 1005,-202.25 1011,-202.25 1017,-208.25 1017,-214.25 1017,-214.25 1017,-284.5 1017,-284.5 1017,-290.5 1011,-296.5 1005,-296.5"/>
<text text-anchor="middle" x="934" y="-279.2" font-family="Helvetica,sans-Serif" font-size="14.00">9_U &lt;= 0.5</text>
<text text-anchor="middle" x="934" y="-261.95" font-family="Helvetica,sans-Serif" font-size="14.00">entropy = 0.756</text>
<text text-anchor="middle" x="934" y="-244.7" font-family="Helvetica,sans-Serif" font-size="14.00">samples = 3809</text>
<text text-anchor="middle" x="934" y="-227.45" font-family="Helvetica,sans-Serif" font-size="14.00">value = [4756, 1322]</text>
<text text-anchor="middle" x="934" y="-210.2" font-family="Helvetica,sans-Serif" font-size="14.00">class = Animal</text>
</g>
<!-- 14852&#45;&gt;14853 -->
<g id="edge17" class="edge">
<title>14852&#45;&gt;14853</title>
<path fill="none" stroke="black" d="M934,-332.32C934,-324.42 934,-316.13 934,-307.98"/>
<polygon fill="black" stroke="black" points="937.5,-308.12 934,-298.12 930.5,-308.12 937.5,-308.12"/>
</g>
<!-- 16402 -->
<g id="node25" class="node">
<title>16402</title>
<path fill="#e89152" stroke="black" d="M1268.5,-296.5C1268.5,-296.5 1135.5,-296.5 1135.5,-296.5 1129.5,-296.5 1123.5,-290.5 1123.5,-284.5 1123.5,-284.5 1123.5,-214.25 1123.5,-214.25 1123.5,-208.25 1129.5,-202.25 1135.5,-202.25 1135.5,-202.25 1268.5,-202.25 1268.5,-202.25 1274.5,-202.25 1280.5,-208.25 1280.5,-214.25 1280.5,-214.25 1280.5,-284.5 1280.5,-284.5 1280.5,-290.5 1274.5,-296.5 1268.5,-296.5"/>
<text text-anchor="middle" x="1202" y="-279.2" font-family="Helvetica,sans-Serif" font-size="14.00">7_C &lt;= 0.5</text>
<text text-anchor="middle" x="1202" y="-261.95" font-family="Helvetica,sans-Serif" font-size="14.00">entropy = 0.504</text>
<text text-anchor="middle" x="1202" y="-244.7" font-family="Helvetica,sans-Serif" font-size="14.00">samples = 1322</text>
<text text-anchor="middle" x="1202" y="-227.45" font-family="Helvetica,sans-Serif" font-size="14.00">value = [1822, 228]</text>
<text text-anchor="middle" x="1202" y="-210.2" font-family="Helvetica,sans-Serif" font-size="14.00">class = Animal</text>
</g>
<!-- 14852&#45;&gt;16402 -->
<g id="edge24" class="edge">
<title>14852&#45;&gt;16402</title>
<path fill="none" stroke="black" d="M1017.33,-338.75C1047.7,-324.21 1082.14,-307.73 1112.99,-292.97"/>
<polygon fill="black" stroke="black" points="1114.43,-296.16 1121.94,-288.69 1111.4,-289.85 1114.43,-296.16"/>
</g>
<!-- 14854 -->
<g id="node19" class="node">
<title>14854</title>
<path fill="#efb082" stroke="black" d="M918,-166.25C918,-166.25 776,-166.25 776,-166.25 770,-166.25 764,-160.25 764,-154.25 764,-154.25 764,-84 764,-84 764,-78 770,-72 776,-72 776,-72 918,-72 918,-72 924,-72 930,-78 930,-84 930,-84 930,-154.25 930,-154.25 930,-160.25 924,-166.25 918,-166.25"/>
<text text-anchor="middle" x="847" y="-148.95" font-family="Helvetica,sans-Serif" font-size="14.00">25_U &lt;= 0.5</text>
<text text-anchor="middle" x="847" y="-131.7" font-family="Helvetica,sans-Serif" font-size="14.00">entropy = 0.841</text>
<text text-anchor="middle" x="847" y="-114.45" font-family="Helvetica,sans-Serif" font-size="14.00">samples = 2458</text>
<text text-anchor="middle" x="847" y="-97.2" font-family="Helvetica,sans-Serif" font-size="14.00">value = [2851, 1053]</text>
<text text-anchor="middle" x="847" y="-79.95" font-family="Helvetica,sans-Serif" font-size="14.00">class = Animal</text>
</g>
<!-- 14853&#45;&gt;14854 -->
<g id="edge18" class="edge">
<title>14853&#45;&gt;14854</title>
<path fill="none" stroke="black" d="M902.59,-202.07C896.8,-193.54 890.7,-184.54 884.75,-175.77"/>
<polygon fill="black" stroke="black" points="887.72,-173.92 879.21,-167.61 881.93,-177.85 887.72,-173.92"/>
</g>
<!-- 15993 -->
<g id="node22" class="node">
<title>15993</title>
<path fill="#e99355" stroke="black" d="M1093.5,-166.25C1093.5,-166.25 960.5,-166.25 960.5,-166.25 954.5,-166.25 948.5,-160.25 948.5,-154.25 948.5,-154.25 948.5,-84 948.5,-84 948.5,-78 954.5,-72 960.5,-72 960.5,-72 1093.5,-72 1093.5,-72 1099.5,-72 1105.5,-78 1105.5,-84 1105.5,-84 1105.5,-154.25 1105.5,-154.25 1105.5,-160.25 1099.5,-166.25 1093.5,-166.25"/>
<text text-anchor="middle" x="1027" y="-148.95" font-family="Helvetica,sans-Serif" font-size="14.00">7_A &lt;= 0.5</text>
<text text-anchor="middle" x="1027" y="-131.7" font-family="Helvetica,sans-Serif" font-size="14.00">entropy = 0.54</text>
<text text-anchor="middle" x="1027" y="-114.45" font-family="Helvetica,sans-Serif" font-size="14.00">samples = 1351</text>
<text text-anchor="middle" x="1027" y="-97.2" font-family="Helvetica,sans-Serif" font-size="14.00">value = [1905, 269]</text>
<text text-anchor="middle" x="1027" y="-79.95" font-family="Helvetica,sans-Serif" font-size="14.00">class = Animal</text>
</g>
<!-- 14853&#45;&gt;15993 -->
<g id="edge21" class="edge">
<title>14853&#45;&gt;15993</title>
<path fill="none" stroke="black" d="M967.58,-202.07C973.83,-193.45 980.43,-184.35 986.85,-175.49"/>
<polygon fill="black" stroke="black" points="989.55,-177.73 992.59,-167.58 983.88,-173.62 989.55,-177.73"/>
</g>
<!-- 14855 -->
<g id="node20" class="node">
<title>14855</title>
<path fill="#c0c0c0" stroke="black" d="M808,-36C808,-36 778,-36 778,-36 772,-36 766,-30 766,-24 766,-24 766,-12 766,-12 766,-6 772,0 778,0 778,0 808,0 808,0 814,0 820,-6 820,-12 820,-12 820,-24 820,-24 820,-30 814,-36 808,-36"/>
<text text-anchor="middle" x="793" y="-13.32" font-family="Helvetica,sans-Serif" font-size="14.00">(...)</text>
</g>
<!-- 14854&#45;&gt;14855 -->
<g id="edge19" class="edge">
<title>14854&#45;&gt;14855</title>
<path fill="none" stroke="black" d="M821.74,-71.75C816.98,-63.03 812.16,-54.16 807.85,-46.26"/>
<polygon fill="black" stroke="black" points="810.94,-44.61 803.08,-37.5 804.79,-47.96 810.94,-44.61"/>
</g>
<!-- 15976 -->
<g id="node21" class="node">
<title>15976</title>
<path fill="#c0c0c0" stroke="black" d="M880,-36C880,-36 850,-36 850,-36 844,-36 838,-30 838,-24 838,-24 838,-12 838,-12 838,-6 844,0 850,0 850,0 880,0 880,0 886,0 892,-6 892,-12 892,-12 892,-24 892,-24 892,-30 886,-36 880,-36"/>
<text text-anchor="middle" x="865" y="-13.32" font-family="Helvetica,sans-Serif" font-size="14.00">(...)</text>
</g>
<!-- 14854&#45;&gt;15976 -->
<g id="edge20" class="edge">
<title>14854&#45;&gt;15976</title>
<path fill="none" stroke="black" d="M855.42,-71.75C856.93,-63.42 858.47,-54.97 859.85,-47.34"/>
<polygon fill="black" stroke="black" points="863.27,-48.13 861.61,-37.66 856.38,-46.88 863.27,-48.13"/>
</g>
<!-- 15994 -->
<g id="node23" class="node">
<title>15994</title>
<path fill="#c0c0c0" stroke="black" d="M985,-36C985,-36 955,-36 955,-36 949,-36 943,-30 943,-24 943,-24 943,-12 943,-12 943,-6 949,0 955,0 955,0 985,0 985,0 991,0 997,-6 997,-12 997,-12 997,-24 997,-24 997,-30 991,-36 985,-36"/>
<text text-anchor="middle" x="970" y="-13.32" font-family="Helvetica,sans-Serif" font-size="14.00">(...)</text>
</g>
<!-- 15993&#45;&gt;15994 -->
<g id="edge22" class="edge">
<title>15993&#45;&gt;15994</title>
<path fill="none" stroke="black" d="M1000.34,-71.75C995.26,-62.93 990.1,-53.96 985.52,-45.99"/>
<polygon fill="black" stroke="black" points="988.65,-44.41 980.63,-37.48 982.58,-47.9 988.65,-44.41"/>
</g>
<!-- 16279 -->
<g id="node24" class="node">
<title>16279</title>
<path fill="#c0c0c0" stroke="black" d="M1057,-36C1057,-36 1027,-36 1027,-36 1021,-36 1015,-30 1015,-24 1015,-24 1015,-12 1015,-12 1015,-6 1021,0 1027,0 1027,0 1057,0 1057,0 1063,0 1069,-6 1069,-12 1069,-12 1069,-24 1069,-24 1069,-30 1063,-36 1057,-36"/>
<text text-anchor="middle" x="1042" y="-13.32" font-family="Helvetica,sans-Serif" font-size="14.00">(...)</text>
</g>
<!-- 15993&#45;&gt;16279 -->
<g id="edge23" class="edge">
<title>15993&#45;&gt;16279</title>
<path fill="none" stroke="black" d="M1034.02,-71.75C1035.28,-63.42 1036.56,-54.97 1037.71,-47.34"/>
<polygon fill="black" stroke="black" points="1041.14,-48.08 1039.17,-37.67 1034.22,-47.03 1041.14,-48.08"/>
</g>
<!-- 16403 -->
<g id="node26" class="node">
<title>16403</title>
<path fill="#e99355" stroke="black" d="M1268.5,-166.25C1268.5,-166.25 1135.5,-166.25 1135.5,-166.25 1129.5,-166.25 1123.5,-160.25 1123.5,-154.25 1123.5,-154.25 1123.5,-84 1123.5,-84 1123.5,-78 1129.5,-72 1135.5,-72 1135.5,-72 1268.5,-72 1268.5,-72 1274.5,-72 1280.5,-78 1280.5,-84 1280.5,-84 1280.5,-154.25 1280.5,-154.25 1280.5,-160.25 1274.5,-166.25 1268.5,-166.25"/>
<text text-anchor="middle" x="1202" y="-148.95" font-family="Helvetica,sans-Serif" font-size="14.00">9_A &lt;= 0.5</text>
<text text-anchor="middle" x="1202" y="-131.7" font-family="Helvetica,sans-Serif" font-size="14.00">entropy = 0.546</text>
<text text-anchor="middle" x="1202" y="-114.45" font-family="Helvetica,sans-Serif" font-size="14.00">samples = 987</text>
<text text-anchor="middle" x="1202" y="-97.2" font-family="Helvetica,sans-Serif" font-size="14.00">value = [1334, 192]</text>
<text text-anchor="middle" x="1202" y="-79.95" font-family="Helvetica,sans-Serif" font-size="14.00">class = Animal</text>
</g>
<!-- 16402&#45;&gt;16403 -->
<g id="edge25" class="edge">
<title>16402&#45;&gt;16403</title>
<path fill="none" stroke="black" d="M1202,-202.07C1202,-194.17 1202,-185.88 1202,-177.73"/>
<polygon fill="black" stroke="black" points="1205.5,-177.87 1202,-167.87 1198.5,-177.87 1205.5,-177.87"/>
</g>
<!-- 16768 -->
<g id="node29" class="node">
<title>16768</title>
<path fill="#e78a48" stroke="black" d="M1425.5,-166.25C1425.5,-166.25 1310.5,-166.25 1310.5,-166.25 1304.5,-166.25 1298.5,-160.25 1298.5,-154.25 1298.5,-154.25 1298.5,-84 1298.5,-84 1298.5,-78 1304.5,-72 1310.5,-72 1310.5,-72 1425.5,-72 1425.5,-72 1431.5,-72 1437.5,-78 1437.5,-84 1437.5,-84 1437.5,-154.25 1437.5,-154.25 1437.5,-160.25 1431.5,-166.25 1425.5,-166.25"/>
<text text-anchor="middle" x="1368" y="-148.95" font-family="Helvetica,sans-Serif" font-size="14.00">24_C &lt;= 0.5</text>
<text text-anchor="middle" x="1368" y="-131.7" font-family="Helvetica,sans-Serif" font-size="14.00">entropy = 0.361</text>
<text text-anchor="middle" x="1368" y="-114.45" font-family="Helvetica,sans-Serif" font-size="14.00">samples = 335</text>
<text text-anchor="middle" x="1368" y="-97.2" font-family="Helvetica,sans-Serif" font-size="14.00">value = [488, 36]</text>
<text text-anchor="middle" x="1368" y="-79.95" font-family="Helvetica,sans-Serif" font-size="14.00">class = Animal</text>
</g>
<!-- 16402&#45;&gt;16768 -->
<g id="edge28" class="edge">
<title>16402&#45;&gt;16768</title>
<path fill="none" stroke="black" d="M1261.93,-202.07C1273.96,-192.78 1286.7,-182.94 1299.01,-173.43"/>
<polygon fill="black" stroke="black" points="1300.91,-176.38 1306.68,-167.5 1296.63,-170.84 1300.91,-176.38"/>
</g>
<!-- 16404 -->
<g id="node27" class="node">
<title>16404</title>
<path fill="#c0c0c0" stroke="black" d="M1174,-36C1174,-36 1144,-36 1144,-36 1138,-36 1132,-30 1132,-24 1132,-24 1132,-12 1132,-12 1132,-6 1138,0 1144,0 1144,0 1174,0 1174,0 1180,0 1186,-6 1186,-12 1186,-12 1186,-24 1186,-24 1186,-30 1180,-36 1174,-36"/>
<text text-anchor="middle" x="1159" y="-13.32" font-family="Helvetica,sans-Serif" font-size="14.00">(...)</text>
</g>
<!-- 16403&#45;&gt;16404 -->
<g id="edge26" class="edge">
<title>16403&#45;&gt;16404</title>
<path fill="none" stroke="black" d="M1181.88,-71.75C1178.14,-63.12 1174.34,-54.36 1170.94,-46.53"/>
<polygon fill="black" stroke="black" points="1174.24,-45.34 1167.05,-37.56 1167.82,-48.13 1174.24,-45.34"/>
</g>
<!-- 16685 -->
<g id="node28" class="node">
<title>16685</title>
<path fill="#c0c0c0" stroke="black" d="M1246,-36C1246,-36 1216,-36 1216,-36 1210,-36 1204,-30 1204,-24 1204,-24 1204,-12 1204,-12 1204,-6 1210,0 1216,0 1216,0 1246,0 1246,0 1252,0 1258,-6 1258,-12 1258,-12 1258,-24 1258,-24 1258,-30 1252,-36 1246,-36"/>
<text text-anchor="middle" x="1231" y="-13.32" font-family="Helvetica,sans-Serif" font-size="14.00">(...)</text>
</g>
<!-- 16403&#45;&gt;16685 -->
<g id="edge27" class="edge">
<title>16403&#45;&gt;16685</title>
<path fill="none" stroke="black" d="M1215.57,-71.75C1218.03,-63.32 1220.54,-54.77 1222.79,-47.07"/>
<polygon fill="black" stroke="black" points="1226.1,-48.21 1225.55,-37.63 1219.38,-46.24 1226.1,-48.21"/>
</g>
<!-- 16769 -->
<g id="node30" class="node">
<title>16769</title>
<path fill="#c0c0c0" stroke="black" d="M1347,-36C1347,-36 1317,-36 1317,-36 1311,-36 1305,-30 1305,-24 1305,-24 1305,-12 1305,-12 1305,-6 1311,0 1317,0 1317,0 1347,0 1347,0 1353,0 1359,-6 1359,-12 1359,-12 1359,-24 1359,-24 1359,-30 1353,-36 1347,-36"/>
<text text-anchor="middle" x="1332" y="-13.32" font-family="Helvetica,sans-Serif" font-size="14.00">(...)</text>
</g>
<!-- 16768&#45;&gt;16769 -->
<g id="edge29" class="edge">
<title>16768&#45;&gt;16769</title>
<path fill="none" stroke="black" d="M1351.16,-71.75C1348.06,-63.22 1344.92,-54.57 1342.1,-46.8"/>
<polygon fill="black" stroke="black" points="1345.46,-45.8 1338.75,-37.6 1338.88,-48.19 1345.46,-45.8"/>
</g>
<!-- 16844 -->
<g id="node31" class="node">
<title>16844</title>
<path fill="#c0c0c0" stroke="black" d="M1419,-36C1419,-36 1389,-36 1389,-36 1383,-36 1377,-30 1377,-24 1377,-24 1377,-12 1377,-12 1377,-6 1383,0 1389,0 1389,0 1419,0 1419,0 1425,0 1431,-6 1431,-12 1431,-12 1431,-24 1431,-24 1431,-30 1425,-36 1419,-36"/>
<text text-anchor="middle" x="1404" y="-13.32" font-family="Helvetica,sans-Serif" font-size="14.00">(...)</text>
</g>
<!-- 16768&#45;&gt;16844 -->
<g id="edge30" class="edge">
<title>16768&#45;&gt;16844</title>
<path fill="none" stroke="black" d="M1384.84,-71.75C1387.94,-63.22 1391.08,-54.57 1393.9,-46.8"/>
<polygon fill="black" stroke="black" points="1397.12,-48.19 1397.25,-37.6 1390.54,-45.8 1397.12,-48.19"/>
</g>
</g>
</svg>
