<?xml version="1.0" encoding="UTF-8" standalone="no"?>
<!DOCTYPE svg PUBLIC "-//W3C//DTD SVG 1.1//EN"
 "http://www.w3.org/Graphics/SVG/1.1/DTD/svg11.dtd">
<!-- Generated by graphviz version 12.0.0 (20240803.0821)
 -->
<!-- Title: Tree Pages: 1 -->
<svg width="1418pt" height="565pt"
 viewBox="0.00 0.00 1417.50 565.00" xmlns="http://www.w3.org/2000/svg" xmlns:xlink="http://www.w3.org/1999/xlink">
<g id="graph0" class="graph" transform="scale(1 1) rotate(0) translate(4 561)">
<title>Tree</title>
<polygon fill="white" stroke="none" points="-4,4 -4,-561 1413.5,-561 1413.5,4 -4,4"/>
<!-- 0 -->
<g id="node1" class="node">
<title>0</title>
<path fill="#fcfdff" stroke="black" d="M799,-557C799,-557 639,-557 639,-557 633,-557 627,-551 627,-545 627,-545 627,-474.75 627,-474.75 627,-468.75 633,-462.75 639,-462.75 639,-462.75 799,-462.75 799,-462.75 805,-462.75 811,-468.75 811,-474.75 811,-474.75 811,-545 811,-545 811,-551 805,-557 799,-557"/>
<text text-anchor="middle" x="719" y="-539.7" font-family="Helvetica,sans-Serif" font-size="14.00">10_A &lt;= 0.5</text>
<text text-anchor="middle" x="719" y="-522.45" font-family="Helvetica,sans-Serif" font-size="14.00">entropy = 1.0</text>
<text text-anchor="middle" x="719" y="-505.2" font-family="Helvetica,sans-Serif" font-size="14.00">samples = 38193</text>
<text text-anchor="middle" x="719" y="-487.95" font-family="Helvetica,sans-Serif" font-size="14.00">value = [29935, 30410]</text>
<text text-anchor="middle" x="719" y="-470.7" font-family="Helvetica,sans-Serif" font-size="14.00">class = Plant</text>
</g>
<!-- 1 -->
<g id="node2" class="node">
<title>1</title>
<path fill="#fcf0e8" stroke="black" d="M629,-426.75C629,-426.75 469,-426.75 469,-426.75 463,-426.75 457,-420.75 457,-414.75 457,-414.75 457,-344.5 457,-344.5 457,-338.5 463,-332.5 469,-332.5 469,-332.5 629,-332.5 629,-332.5 635,-332.5 641,-338.5 641,-344.5 641,-344.5 641,-414.75 641,-414.75 641,-420.75 635,-426.75 629,-426.75"/>
<text text-anchor="middle" x="549" y="-409.45" font-family="Helvetica,sans-Serif" font-size="14.00">22_G &lt;= 0.5</text>
<text text-anchor="middle" x="549" y="-392.2" font-family="Helvetica,sans-Serif" font-size="14.00">entropy = 0.997</text>
<text text-anchor="middle" x="549" y="-374.95" font-family="Helvetica,sans-Serif" font-size="14.00">samples = 27345</text>
<text text-anchor="middle" x="549" y="-357.7" font-family="Helvetica,sans-Serif" font-size="14.00">value = [22967, 20284]</text>
<text text-anchor="middle" x="549" y="-340.45" font-family="Helvetica,sans-Serif" font-size="14.00">class = Animal</text>
</g>
<!-- 0&#45;&gt;1 -->
<g id="edge1" class="edge">
<title>0&#45;&gt;1</title>
<path fill="none" stroke="black" d="M657.63,-462.57C645.3,-453.28 632.26,-443.44 619.66,-433.93"/>
<polygon fill="black" stroke="black" points="621.87,-431.21 611.78,-427.99 617.65,-436.8 621.87,-431.21"/>
<text text-anchor="middle" x="614.03" y="-447.16" font-family="Helvetica,sans-Serif" font-size="14.00">True</text>
</g>
<!-- 12490 -->
<g id="node17" class="node">
<title>12490</title>
<path fill="#c1e0f7" stroke="black" d="M983.5,-426.75C983.5,-426.75 832.5,-426.75 832.5,-426.75 826.5,-426.75 820.5,-420.75 820.5,-414.75 820.5,-414.75 820.5,-344.5 820.5,-344.5 820.5,-338.5 826.5,-332.5 832.5,-332.5 832.5,-332.5 983.5,-332.5 983.5,-332.5 989.5,-332.5 995.5,-338.5 995.5,-344.5 995.5,-344.5 995.5,-414.75 995.5,-414.75 995.5,-420.75 989.5,-426.75 983.5,-426.75"/>
<text text-anchor="middle" x="908" y="-409.45" font-family="Helvetica,sans-Serif" font-size="14.00">22_A &lt;= 0.5</text>
<text text-anchor="middle" x="908" y="-392.2" font-family="Helvetica,sans-Serif" font-size="14.00">entropy = 0.975</text>
<text text-anchor="middle" x="908" y="-374.95" font-family="Helvetica,sans-Serif" font-size="14.00">samples = 10848</text>
<text text-anchor="middle" x="908" y="-357.7" font-family="Helvetica,sans-Serif" font-size="14.00">value = [6968, 10126]</text>
<text text-anchor="middle" x="908" y="-340.45" font-family="Helvetica,sans-Serif" font-size="14.00">class = Plant</text>
</g>
<!-- 0&#45;&gt;12490 -->
<g id="edge16" class="edge">
<title>0&#45;&gt;12490</title>
<path fill="none" stroke="black" d="M787.5,-462.39C801.37,-452.98 816.04,-443.03 830.2,-433.42"/>
<polygon fill="black" stroke="black" points="831.85,-436.53 838.16,-428.01 827.92,-430.73 831.85,-436.53"/>
<text text-anchor="middle" x="834.71" y="-447.04" font-family="Helvetica,sans-Serif" font-size="14.00">False</text>
</g>
<!-- 2 -->
<g id="node3" class="node">
<title>2</title>
<path fill="#fafdfe" stroke="black" d="M365,-296.5C365,-296.5 205,-296.5 205,-296.5 199,-296.5 193,-290.5 193,-284.5 193,-284.5 193,-214.25 193,-214.25 193,-208.25 199,-202.25 205,-202.25 205,-202.25 365,-202.25 365,-202.25 371,-202.25 377,-208.25 377,-214.25 377,-214.25 377,-284.5 377,-284.5 377,-290.5 371,-296.5 365,-296.5"/>
<text text-anchor="middle" x="285" y="-279.2" font-family="Helvetica,sans-Serif" font-size="14.00">20_C &lt;= 0.5</text>
<text text-anchor="middle" x="285" y="-261.95" font-family="Helvetica,sans-Serif" font-size="14.00">entropy = 1.0</text>
<text text-anchor="middle" x="285" y="-244.7" font-family="Helvetica,sans-Serif" font-size="14.00">samples = 23677</text>
<text text-anchor="middle" x="285" y="-227.45" font-family="Helvetica,sans-Serif" font-size="14.00">value = [18491, 18944]</text>
<text text-anchor="middle" x="285" y="-210.2" font-family="Helvetica,sans-Serif" font-size="14.00">class = Plant</text>
</g>
<!-- 1&#45;&gt;2 -->
<g id="edge2" class="edge">
<title>1&#45;&gt;2</title>
<path fill="none" stroke="black" d="M456.67,-333.77C434.36,-322.93 410.39,-311.29 387.64,-300.24"/>
<polygon fill="black" stroke="black" points="389.17,-297.09 378.64,-295.87 386.11,-303.38 389.17,-297.09"/>
</g>
<!-- 10965 -->
<g id="node10" class="node">
<title>10965</title>
<path fill="#eda774" stroke="black" d="M620,-296.5C620,-296.5 478,-296.5 478,-296.5 472,-296.5 466,-290.5 466,-284.5 466,-284.5 466,-214.25 466,-214.25 466,-208.25 472,-202.25 478,-202.25 478,-202.25 620,-202.25 620,-202.25 626,-202.25 632,-208.25 632,-214.25 632,-214.25 632,-284.5 632,-284.5 632,-290.5 626,-296.5 620,-296.5"/>
<text text-anchor="middle" x="549" y="-279.2" font-family="Helvetica,sans-Serif" font-size="14.00">24_G &lt;= 0.5</text>
<text text-anchor="middle" x="549" y="-261.95" font-family="Helvetica,sans-Serif" font-size="14.00">entropy = 0.779</text>
<text text-anchor="middle" x="549" y="-244.7" font-family="Helvetica,sans-Serif" font-size="14.00">samples = 3668</text>
<text text-anchor="middle" x="549" y="-227.45" font-family="Helvetica,sans-Serif" font-size="14.00">value = [4476, 1340]</text>
<text text-anchor="middle" x="549" y="-210.2" font-family="Helvetica,sans-Serif" font-size="14.00">class = Animal</text>
</g>
<!-- 1&#45;&gt;10965 -->
<g id="edge9" class="edge">
<title>1&#45;&gt;10965</title>
<path fill="none" stroke="black" d="M549,-332.32C549,-324.42 549,-316.13 549,-307.98"/>
<polygon fill="black" stroke="black" points="552.5,-308.12 549,-298.12 545.5,-308.12 552.5,-308.12"/>
</g>
<!-- 3 -->
<g id="node4" class="node">
<title>3</title>
<path fill="#fcf1e8" stroke="black" d="M172,-166.25C172,-166.25 12,-166.25 12,-166.25 6,-166.25 0,-160.25 0,-154.25 0,-154.25 0,-84 0,-84 0,-78 6,-72 12,-72 12,-72 172,-72 172,-72 178,-72 184,-78 184,-84 184,-84 184,-154.25 184,-154.25 184,-160.25 178,-166.25 172,-166.25"/>
<text text-anchor="middle" x="92" y="-148.95" font-family="Helvetica,sans-Serif" font-size="14.00">23_G &lt;= 0.5</text>
<text text-anchor="middle" x="92" y="-131.7" font-family="Helvetica,sans-Serif" font-size="14.00">entropy = 0.997</text>
<text text-anchor="middle" x="92" y="-114.45" font-family="Helvetica,sans-Serif" font-size="14.00">samples = 17817</text>
<text text-anchor="middle" x="92" y="-97.2" font-family="Helvetica,sans-Serif" font-size="14.00">value = [14964, 13262]</text>
<text text-anchor="middle" x="92" y="-79.95" font-family="Helvetica,sans-Serif" font-size="14.00">class = Animal</text>
</g>
<!-- 2&#45;&gt;3 -->
<g id="edge3" class="edge">
<title>2&#45;&gt;3</title>
<path fill="none" stroke="black" d="M215.05,-201.89C200.89,-192.48 185.9,-182.53 171.45,-172.92"/>
<polygon fill="black" stroke="black" points="173.56,-170.12 163.3,-167.5 169.69,-175.95 173.56,-170.12"/>
</g>
<!-- 8462 -->
<g id="node7" class="node">
<title>8462</title>
<path fill="#b4daf5" stroke="black" d="M356,-166.25C356,-166.25 214,-166.25 214,-166.25 208,-166.25 202,-160.25 202,-154.25 202,-154.25 202,-84 202,-84 202,-78 208,-72 214,-72 214,-72 356,-72 356,-72 362,-72 368,-78 368,-84 368,-84 368,-154.25 368,-154.25 368,-160.25 362,-166.25 356,-166.25"/>
<text text-anchor="middle" x="285" y="-148.95" font-family="Helvetica,sans-Serif" font-size="14.00">1_U &lt;= 0.5</text>
<text text-anchor="middle" x="285" y="-131.7" font-family="Helvetica,sans-Serif" font-size="14.00">entropy = 0.96</text>
<text text-anchor="middle" x="285" y="-114.45" font-family="Helvetica,sans-Serif" font-size="14.00">samples = 5860</text>
<text text-anchor="middle" x="285" y="-97.2" font-family="Helvetica,sans-Serif" font-size="14.00">value = [3527, 5682]</text>
<text text-anchor="middle" x="285" y="-79.95" font-family="Helvetica,sans-Serif" font-size="14.00">class = Plant</text>
</g>
<!-- 2&#45;&gt;8462 -->
<g id="edge6" class="edge">
<title>2&#45;&gt;8462</title>
<path fill="none" stroke="black" d="M285,-202.07C285,-194.17 285,-185.88 285,-177.73"/>
<polygon fill="black" stroke="black" points="288.5,-177.87 285,-167.87 281.5,-177.87 288.5,-177.87"/>
</g>
<!-- 4 -->
<g id="node5" class="node">
<title>4</title>
<path fill="#c0c0c0" stroke="black" d="M71,-36C71,-36 41,-36 41,-36 35,-36 29,-30 29,-24 29,-24 29,-12 29,-12 29,-6 35,0 41,0 41,0 71,0 71,0 77,0 83,-6 83,-12 83,-12 83,-24 83,-24 83,-30 77,-36 71,-36"/>
<text text-anchor="middle" x="56" y="-13.32" font-family="Helvetica,sans-Serif" font-size="14.00">(...)</text>
</g>
<!-- 3&#45;&gt;4 -->
<g id="edge4" class="edge">
<title>3&#45;&gt;4</title>
<path fill="none" stroke="black" d="M75.16,-71.75C72.06,-63.22 68.92,-54.57 66.1,-46.8"/>
<polygon fill="black" stroke="black" points="69.46,-45.8 62.75,-37.6 62.88,-48.19 69.46,-45.8"/>
</g>
<!-- 8109 -->
<g id="node6" class="node">
<title>8109</title>
<path fill="#c0c0c0" stroke="black" d="M143,-36C143,-36 113,-36 113,-36 107,-36 101,-30 101,-24 101,-24 101,-12 101,-12 101,-6 107,0 113,0 113,0 143,0 143,0 149,0 155,-6 155,-12 155,-12 155,-24 155,-24 155,-30 149,-36 143,-36"/>
<text text-anchor="middle" x="128" y="-13.32" font-family="Helvetica,sans-Serif" font-size="14.00">(...)</text>
</g>
<!-- 3&#45;&gt;8109 -->
<g id="edge5" class="edge">
<title>3&#45;&gt;8109</title>
<path fill="none" stroke="black" d="M108.84,-71.75C111.94,-63.22 115.08,-54.57 117.9,-46.8"/>
<polygon fill="black" stroke="black" points="121.12,-48.19 121.25,-37.6 114.54,-45.8 121.12,-48.19"/>
</g>
<!-- 8463 -->
<g id="node8" class="node">
<title>8463</title>
<path fill="#c0c0c0" stroke="black" d="M263,-36C263,-36 233,-36 233,-36 227,-36 221,-30 221,-24 221,-24 221,-12 221,-12 221,-6 227,0 233,0 233,0 263,0 263,0 269,0 275,-6 275,-12 275,-12 275,-24 275,-24 275,-30 269,-36 263,-36"/>
<text text-anchor="middle" x="248" y="-13.32" font-family="Helvetica,sans-Serif" font-size="14.00">(...)</text>
</g>
<!-- 8462&#45;&gt;8463 -->
<g id="edge7" class="edge">
<title>8462&#45;&gt;8463</title>
<path fill="none" stroke="black" d="M267.69,-71.75C264.51,-63.22 261.28,-54.57 258.38,-46.8"/>
<polygon fill="black" stroke="black" points="261.72,-45.74 254.94,-37.59 255.16,-48.18 261.72,-45.74"/>
</g>
<!-- 9878 -->
<g id="node9" class="node">
<title>9878</title>
<path fill="#c0c0c0" stroke="black" d="M335,-36C335,-36 305,-36 305,-36 299,-36 293,-30 293,-24 293,-24 293,-12 293,-12 293,-6 299,0 305,0 305,0 335,0 335,0 341,0 347,-6 347,-12 347,-12 347,-24 347,-24 347,-30 341,-36 335,-36"/>
<text text-anchor="middle" x="320" y="-13.32" font-family="Helvetica,sans-Serif" font-size="14.00">(...)</text>
</g>
<!-- 8462&#45;&gt;9878 -->
<g id="edge8" class="edge">
<title>8462&#45;&gt;9878</title>
<path fill="none" stroke="black" d="M301.37,-71.75C304.39,-63.22 307.44,-54.57 310.18,-46.8"/>
<polygon fill="black" stroke="black" points="313.4,-48.19 313.43,-37.6 306.8,-45.86 313.4,-48.19"/>
</g>
<!-- 10966 -->
<g id="node11" class="node">
<title>10966</title>
<path fill="#eca26d" stroke="black" d="M540,-166.25C540,-166.25 398,-166.25 398,-166.25 392,-166.25 386,-160.25 386,-154.25 386,-154.25 386,-84 386,-84 386,-78 392,-72 398,-72 398,-72 540,-72 540,-72 546,-72 552,-78 552,-84 552,-84 552,-154.25 552,-154.25 552,-160.25 546,-166.25 540,-166.25"/>
<text text-anchor="middle" x="469" y="-148.95" font-family="Helvetica,sans-Serif" font-size="14.00">17_C &lt;= 0.5</text>
<text text-anchor="middle" x="469" y="-131.7" font-family="Helvetica,sans-Serif" font-size="14.00">entropy = 0.736</text>
<text text-anchor="middle" x="469" y="-114.45" font-family="Helvetica,sans-Serif" font-size="14.00">samples = 3480</text>
<text text-anchor="middle" x="469" y="-97.2" font-family="Helvetica,sans-Serif" font-size="14.00">value = [4353, 1139]</text>
<text text-anchor="middle" x="469" y="-79.95" font-family="Helvetica,sans-Serif" font-size="14.00">class = Animal</text>
</g>
<!-- 10965&#45;&gt;10966 -->
<g id="edge10" class="edge">
<title>10965&#45;&gt;10966</title>
<path fill="none" stroke="black" d="M520.12,-202.07C514.85,-193.63 509.3,-184.74 503.88,-176.05"/>
<polygon fill="black" stroke="black" points="506.9,-174.27 498.64,-167.64 500.96,-177.98 506.9,-174.27"/>
</g>
<!-- 12413 -->
<g id="node14" class="node">
<title>12413</title>
<path fill="#b2d9f5" stroke="black" d="M706,-166.25C706,-166.25 582,-166.25 582,-166.25 576,-166.25 570,-160.25 570,-154.25 570,-154.25 570,-84 570,-84 570,-78 576,-72 582,-72 582,-72 706,-72 706,-72 712,-72 718,-78 718,-84 718,-84 718,-154.25 718,-154.25 718,-160.25 712,-166.25 706,-166.25"/>
<text text-anchor="middle" x="644" y="-148.95" font-family="Helvetica,sans-Serif" font-size="14.00">9_A &lt;= 0.5</text>
<text text-anchor="middle" x="644" y="-131.7" font-family="Helvetica,sans-Serif" font-size="14.00">entropy = 0.958</text>
<text text-anchor="middle" x="644" y="-114.45" font-family="Helvetica,sans-Serif" font-size="14.00">samples = 188</text>
<text text-anchor="middle" x="644" y="-97.2" font-family="Helvetica,sans-Serif" font-size="14.00">value = [123, 201]</text>
<text text-anchor="middle" x="644" y="-79.95" font-family="Helvetica,sans-Serif" font-size="14.00">class = Plant</text>
</g>
<!-- 10965&#45;&gt;12413 -->
<g id="edge13" class="edge">
<title>10965&#45;&gt;12413</title>
<path fill="none" stroke="black" d="M583.3,-202.07C589.69,-193.45 596.42,-184.35 602.99,-175.49"/>
<polygon fill="black" stroke="black" points="605.71,-177.69 608.85,-167.57 600.09,-173.53 605.71,-177.69"/>
</g>
<!-- 10967 -->
<g id="node12" class="node">
<title>10967</title>
<path fill="#c0c0c0" stroke="black" d="M427,-36C427,-36 397,-36 397,-36 391,-36 385,-30 385,-24 385,-24 385,-12 385,-12 385,-6 391,0 397,0 397,0 427,0 427,0 433,0 439,-6 439,-12 439,-12 439,-24 439,-24 439,-30 433,-36 427,-36"/>
<text text-anchor="middle" x="412" y="-13.32" font-family="Helvetica,sans-Serif" font-size="14.00">(...)</text>
</g>
<!-- 10966&#45;&gt;10967 -->
<g id="edge11" class="edge">
<title>10966&#45;&gt;10967</title>
<path fill="none" stroke="black" d="M442.34,-71.75C437.26,-62.93 432.1,-53.96 427.52,-45.99"/>
<polygon fill="black" stroke="black" points="430.65,-44.41 422.63,-37.48 424.58,-47.9 430.65,-44.41"/>
</g>
<!-- 12080 -->
<g id="node13" class="node">
<title>12080</title>
<path fill="#c0c0c0" stroke="black" d="M499,-36C499,-36 469,-36 469,-36 463,-36 457,-30 457,-24 457,-24 457,-12 457,-12 457,-6 463,0 469,0 469,0 499,0 499,0 505,0 511,-6 511,-12 511,-12 511,-24 511,-24 511,-30 505,-36 499,-36"/>
<text text-anchor="middle" x="484" y="-13.32" font-family="Helvetica,sans-Serif" font-size="14.00">(...)</text>
</g>
<!-- 10966&#45;&gt;12080 -->
<g id="edge12" class="edge">
<title>10966&#45;&gt;12080</title>
<path fill="none" stroke="black" d="M476.02,-71.75C477.28,-63.42 478.56,-54.97 479.71,-47.34"/>
<polygon fill="black" stroke="black" points="483.14,-48.08 481.17,-37.67 476.22,-47.03 483.14,-48.08"/>
</g>
<!-- 12414 -->
<g id="node15" class="node">
<title>12414</title>
<path fill="#c0c0c0" stroke="black" d="M602,-36C602,-36 572,-36 572,-36 566,-36 560,-30 560,-24 560,-24 560,-12 560,-12 560,-6 566,0 572,0 572,0 602,0 602,0 608,0 614,-6 614,-12 614,-12 614,-24 614,-24 614,-30 608,-36 602,-36"/>
<text text-anchor="middle" x="587" y="-13.32" font-family="Helvetica,sans-Serif" font-size="14.00">(...)</text>
</g>
<!-- 12413&#45;&gt;12414 -->
<g id="edge14" class="edge">
<title>12413&#45;&gt;12414</title>
<path fill="none" stroke="black" d="M617.34,-71.75C612.26,-62.93 607.1,-53.96 602.52,-45.99"/>
<polygon fill="black" stroke="black" points="605.65,-44.41 597.63,-37.48 599.58,-47.9 605.65,-44.41"/>
</g>
<!-- 12481 -->
<g id="node16" class="node">
<title>12481</title>
<path fill="#c0c0c0" stroke="black" d="M674,-36C674,-36 644,-36 644,-36 638,-36 632,-30 632,-24 632,-24 632,-12 632,-12 632,-6 638,0 644,0 644,0 674,0 674,0 680,0 686,-6 686,-12 686,-12 686,-24 686,-24 686,-30 680,-36 674,-36"/>
<text text-anchor="middle" x="659" y="-13.32" font-family="Helvetica,sans-Serif" font-size="14.00">(...)</text>
</g>
<!-- 12413&#45;&gt;12481 -->
<g id="edge15" class="edge">
<title>12413&#45;&gt;12481</title>
<path fill="none" stroke="black" d="M651.02,-71.75C652.28,-63.42 653.56,-54.97 654.71,-47.34"/>
<polygon fill="black" stroke="black" points="658.14,-48.08 656.17,-37.67 651.22,-47.03 658.14,-48.08"/>
</g>
<!-- 12491 -->
<g id="node18" class="node">
<title>12491</title>
<path fill="#b2d9f5" stroke="black" d="M979,-296.5C979,-296.5 837,-296.5 837,-296.5 831,-296.5 825,-290.5 825,-284.5 825,-284.5 825,-214.25 825,-214.25 825,-208.25 831,-202.25 837,-202.25 837,-202.25 979,-202.25 979,-202.25 985,-202.25 991,-208.25 991,-214.25 991,-214.25 991,-284.5 991,-284.5 991,-290.5 985,-296.5 979,-296.5"/>
<text text-anchor="middle" x="908" y="-279.2" font-family="Helvetica,sans-Serif" font-size="14.00">12_U &lt;= 0.5</text>
<text text-anchor="middle" x="908" y="-261.95" font-family="Helvetica,sans-Serif" font-size="14.00">entropy = 0.958</text>
<text text-anchor="middle" x="908" y="-244.7" font-family="Helvetica,sans-Serif" font-size="14.00">samples = 9889</text>
<text text-anchor="middle" x="908" y="-227.45" font-family="Helvetica,sans-Serif" font-size="14.00">value = [5928, 9674]</text>
<text text-anchor="middle" x="908" y="-210.2" font-family="Helvetica,sans-Serif" font-size="14.00">class = Plant</text>
</g>
<!-- 12490&#45;&gt;12491 -->
<g id="edge17" class="edge">
<title>12490&#45;&gt;12491</title>
<path fill="none" stroke="black" d="M908,-332.32C908,-324.42 908,-316.13 908,-307.98"/>
<polygon fill="black" stroke="black" points="911.5,-308.12 908,-298.12 904.5,-308.12 911.5,-308.12"/>
</g>
<!-- 16080 -->
<g id="node25" class="node">
<title>16080</title>
<path fill="#f0b88f" stroke="black" d="M1244.5,-296.5C1244.5,-296.5 1111.5,-296.5 1111.5,-296.5 1105.5,-296.5 1099.5,-290.5 1099.5,-284.5 1099.5,-284.5 1099.5,-214.25 1099.5,-214.25 1099.5,-208.25 1105.5,-202.25 1111.5,-202.25 1111.5,-202.25 1244.5,-202.25 1244.5,-202.25 1250.5,-202.25 1256.5,-208.25 1256.5,-214.25 1256.5,-214.25 1256.5,-284.5 1256.5,-284.5 1256.5,-290.5 1250.5,-296.5 1244.5,-296.5"/>
<text text-anchor="middle" x="1178" y="-279.2" font-family="Helvetica,sans-Serif" font-size="14.00">16_A &lt;= 0.5</text>
<text text-anchor="middle" x="1178" y="-261.95" font-family="Helvetica,sans-Serif" font-size="14.00">entropy = 0.885</text>
<text text-anchor="middle" x="1178" y="-244.7" font-family="Helvetica,sans-Serif" font-size="14.00">samples = 959</text>
<text text-anchor="middle" x="1178" y="-227.45" font-family="Helvetica,sans-Serif" font-size="14.00">value = [1040, 452]</text>
<text text-anchor="middle" x="1178" y="-210.2" font-family="Helvetica,sans-Serif" font-size="14.00">class = Animal</text>
</g>
<!-- 12490&#45;&gt;16080 -->
<g id="edge24" class="edge">
<title>12490&#45;&gt;16080</title>
<path fill="none" stroke="black" d="M995.66,-336.99C1025.68,-322.73 1059.28,-306.77 1089.37,-292.47"/>
<polygon fill="black" stroke="black" points="1090.54,-295.79 1098.07,-288.34 1087.53,-289.47 1090.54,-295.79"/>
</g>
<!-- 12492 -->
<g id="node19" class="node">
<title>12492</title>
<path fill="#9acdf2" stroke="black" d="M890,-166.25C890,-166.25 748,-166.25 748,-166.25 742,-166.25 736,-160.25 736,-154.25 736,-154.25 736,-84 736,-84 736,-78 742,-72 748,-72 748,-72 890,-72 890,-72 896,-72 902,-78 902,-84 902,-84 902,-154.25 902,-154.25 902,-160.25 896,-166.25 890,-166.25"/>
<text text-anchor="middle" x="819" y="-148.95" font-family="Helvetica,sans-Serif" font-size="14.00">20_C &lt;= 0.5</text>
<text text-anchor="middle" x="819" y="-131.7" font-family="Helvetica,sans-Serif" font-size="14.00">entropy = 0.914</text>
<text text-anchor="middle" x="819" y="-114.45" font-family="Helvetica,sans-Serif" font-size="14.00">samples = 8142</text>
<text text-anchor="middle" x="819" y="-97.2" font-family="Helvetica,sans-Serif" font-size="14.00">value = [4225, 8598]</text>
<text text-anchor="middle" x="819" y="-79.95" font-family="Helvetica,sans-Serif" font-size="14.00">class = Plant</text>
</g>
<!-- 12491&#45;&gt;12492 -->
<g id="edge18" class="edge">
<title>12491&#45;&gt;12492</title>
<path fill="none" stroke="black" d="M875.87,-202.07C869.95,-193.54 863.7,-184.54 857.61,-175.77"/>
<polygon fill="black" stroke="black" points="860.52,-173.82 851.95,-167.6 854.77,-177.81 860.52,-173.82"/>
</g>
<!-- 15197 -->
<g id="node22" class="node">
<title>15197</title>
<path fill="#f5d1b6" stroke="black" d="M1074,-166.25C1074,-166.25 932,-166.25 932,-166.25 926,-166.25 920,-160.25 920,-154.25 920,-154.25 920,-84 920,-84 920,-78 926,-72 932,-72 932,-72 1074,-72 1074,-72 1080,-72 1086,-78 1086,-84 1086,-84 1086,-154.25 1086,-154.25 1086,-160.25 1080,-166.25 1074,-166.25"/>
<text text-anchor="middle" x="1003" y="-148.95" font-family="Helvetica,sans-Serif" font-size="14.00">5_A &lt;= 0.5</text>
<text text-anchor="middle" x="1003" y="-131.7" font-family="Helvetica,sans-Serif" font-size="14.00">entropy = 0.963</text>
<text text-anchor="middle" x="1003" y="-114.45" font-family="Helvetica,sans-Serif" font-size="14.00">samples = 1747</text>
<text text-anchor="middle" x="1003" y="-97.2" font-family="Helvetica,sans-Serif" font-size="14.00">value = [1703, 1076]</text>
<text text-anchor="middle" x="1003" y="-79.95" font-family="Helvetica,sans-Serif" font-size="14.00">class = Animal</text>
</g>
<!-- 12491&#45;&gt;15197 -->
<g id="edge21" class="edge">
<title>12491&#45;&gt;15197</title>
<path fill="none" stroke="black" d="M942.3,-202.07C948.69,-193.45 955.42,-184.35 961.99,-175.49"/>
<polygon fill="black" stroke="black" points="964.71,-177.69 967.85,-167.57 959.09,-173.53 964.71,-177.69"/>
</g>
<!-- 12493 -->
<g id="node20" class="node">
<title>12493</title>
<path fill="#c0c0c0" stroke="black" d="M782,-36C782,-36 752,-36 752,-36 746,-36 740,-30 740,-24 740,-24 740,-12 740,-12 740,-6 746,0 752,0 752,0 782,0 782,0 788,0 794,-6 794,-12 794,-12 794,-24 794,-24 794,-30 788,-36 782,-36"/>
<text text-anchor="middle" x="767" y="-13.32" font-family="Helvetica,sans-Serif" font-size="14.00">(...)</text>
</g>
<!-- 12492&#45;&gt;12493 -->
<g id="edge19" class="edge">
<title>12492&#45;&gt;12493</title>
<path fill="none" stroke="black" d="M794.67,-71.75C790.1,-63.03 785.45,-54.16 781.3,-46.26"/>
<polygon fill="black" stroke="black" points="784.46,-44.74 776.71,-37.51 778.26,-47.99 784.46,-44.74"/>
</g>
<!-- 14594 -->
<g id="node21" class="node">
<title>14594</title>
<path fill="#c0c0c0" stroke="black" d="M854,-36C854,-36 824,-36 824,-36 818,-36 812,-30 812,-24 812,-24 812,-12 812,-12 812,-6 818,0 824,0 824,0 854,0 854,0 860,0 866,-6 866,-12 866,-12 866,-24 866,-24 866,-30 860,-36 854,-36"/>
<text text-anchor="middle" x="839" y="-13.32" font-family="Helvetica,sans-Serif" font-size="14.00">(...)</text>
</g>
<!-- 12492&#45;&gt;14594 -->
<g id="edge20" class="edge">
<title>12492&#45;&gt;14594</title>
<path fill="none" stroke="black" d="M828.36,-71.75C830.04,-63.42 831.74,-54.97 833.28,-47.34"/>
<polygon fill="black" stroke="black" points="836.69,-48.15 835.24,-37.66 829.83,-46.77 836.69,-48.15"/>
</g>
<!-- 15198 -->
<g id="node23" class="node">
<title>15198</title>
<path fill="#c0c0c0" stroke="black" d="M961,-36C961,-36 931,-36 931,-36 925,-36 919,-30 919,-24 919,-24 919,-12 919,-12 919,-6 925,0 931,0 931,0 961,0 961,0 967,0 973,-6 973,-12 973,-12 973,-24 973,-24 973,-30 967,-36 961,-36"/>
<text text-anchor="middle" x="946" y="-13.32" font-family="Helvetica,sans-Serif" font-size="14.00">(...)</text>
</g>
<!-- 15197&#45;&gt;15198 -->
<g id="edge22" class="edge">
<title>15197&#45;&gt;15198</title>
<path fill="none" stroke="black" d="M976.34,-71.75C971.26,-62.93 966.1,-53.96 961.52,-45.99"/>
<polygon fill="black" stroke="black" points="964.65,-44.41 956.63,-37.48 958.58,-47.9 964.65,-44.41"/>
</g>
<!-- 15813 -->
<g id="node24" class="node">
<title>15813</title>
<path fill="#c0c0c0" stroke="black" d="M1033,-36C1033,-36 1003,-36 1003,-36 997,-36 991,-30 991,-24 991,-24 991,-12 991,-12 991,-6 997,0 1003,0 1003,0 1033,0 1033,0 1039,0 1045,-6 1045,-12 1045,-12 1045,-24 1045,-24 1045,-30 1039,-36 1033,-36"/>
<text text-anchor="middle" x="1018" y="-13.32" font-family="Helvetica,sans-Serif" font-size="14.00">(...)</text>
</g>
<!-- 15197&#45;&gt;15813 -->
<g id="edge23" class="edge">
<title>15197&#45;&gt;15813</title>
<path fill="none" stroke="black" d="M1010.02,-71.75C1011.28,-63.42 1012.56,-54.97 1013.71,-47.34"/>
<polygon fill="black" stroke="black" points="1017.14,-48.08 1015.17,-37.67 1010.22,-47.03 1017.14,-48.08"/>
</g>
<!-- 16081 -->
<g id="node26" class="node">
<title>16081</title>
<path fill="#f2bf9a" stroke="black" d="M1240,-166.25C1240,-166.25 1116,-166.25 1116,-166.25 1110,-166.25 1104,-160.25 1104,-154.25 1104,-154.25 1104,-84 1104,-84 1104,-78 1110,-72 1116,-72 1116,-72 1240,-72 1240,-72 1246,-72 1252,-78 1252,-84 1252,-84 1252,-154.25 1252,-154.25 1252,-160.25 1246,-166.25 1240,-166.25"/>
<text text-anchor="middle" x="1178" y="-148.95" font-family="Helvetica,sans-Serif" font-size="14.00">1_U &lt;= 0.5</text>
<text text-anchor="middle" x="1178" y="-131.7" font-family="Helvetica,sans-Serif" font-size="14.00">entropy = 0.914</text>
<text text-anchor="middle" x="1178" y="-114.45" font-family="Helvetica,sans-Serif" font-size="14.00">samples = 713</text>
<text text-anchor="middle" x="1178" y="-97.2" font-family="Helvetica,sans-Serif" font-size="14.00">value = [751, 369]</text>
<text text-anchor="middle" x="1178" y="-79.95" font-family="Helvetica,sans-Serif" font-size="14.00">class = Animal</text>
</g>
<!-- 16080&#45;&gt;16081 -->
<g id="edge25" class="edge">
<title>16080&#45;&gt;16081</title>
<path fill="none" stroke="black" d="M1178,-202.07C1178,-194.17 1178,-185.88 1178,-177.73"/>
<polygon fill="black" stroke="black" points="1181.5,-177.87 1178,-167.87 1174.5,-177.87 1181.5,-177.87"/>
</g>
<!-- 16418 -->
<g id="node29" class="node">
<title>16418</title>
<path fill="#eca572" stroke="black" d="M1397.5,-166.25C1397.5,-166.25 1282.5,-166.25 1282.5,-166.25 1276.5,-166.25 1270.5,-160.25 1270.5,-154.25 1270.5,-154.25 1270.5,-84 1270.5,-84 1270.5,-78 1276.5,-72 1282.5,-72 1282.5,-72 1397.5,-72 1397.5,-72 1403.5,-72 1409.5,-78 1409.5,-84 1409.5,-84 1409.5,-154.25 1409.5,-154.25 1409.5,-160.25 1403.5,-166.25 1397.5,-166.25"/>
<text text-anchor="middle" x="1340" y="-148.95" font-family="Helvetica,sans-Serif" font-size="14.00">6_C &lt;= 0.5</text>
<text text-anchor="middle" x="1340" y="-131.7" font-family="Helvetica,sans-Serif" font-size="14.00">entropy = 0.766</text>
<text text-anchor="middle" x="1340" y="-114.45" font-family="Helvetica,sans-Serif" font-size="14.00">samples = 246</text>
<text text-anchor="middle" x="1340" y="-97.2" font-family="Helvetica,sans-Serif" font-size="14.00">value = [289, 83]</text>
<text text-anchor="middle" x="1340" y="-79.95" font-family="Helvetica,sans-Serif" font-size="14.00">class = Animal</text>
</g>
<!-- 16080&#45;&gt;16418 -->
<g id="edge28" class="edge">
<title>16080&#45;&gt;16418</title>
<path fill="none" stroke="black" d="M1236.49,-202.07C1248.11,-192.87 1260.41,-183.13 1272.32,-173.71"/>
<polygon fill="black" stroke="black" points="1274.47,-176.46 1280.14,-167.51 1270.13,-170.98 1274.47,-176.46"/>
</g>
<!-- 16082 -->
<g id="node27" class="node">
<title>16082</title>
<path fill="#c0c0c0" stroke="black" d="M1148,-36C1148,-36 1118,-36 1118,-36 1112,-36 1106,-30 1106,-24 1106,-24 1106,-12 1106,-12 1106,-6 1112,0 1118,0 1118,0 1148,0 1148,0 1154,0 1160,-6 1160,-12 1160,-12 1160,-24 1160,-24 1160,-30 1154,-36 1148,-36"/>
<text text-anchor="middle" x="1133" y="-13.32" font-family="Helvetica,sans-Serif" font-size="14.00">(...)</text>
</g>
<!-- 16081&#45;&gt;16082 -->
<g id="edge26" class="edge">
<title>16081&#45;&gt;16082</title>
<path fill="none" stroke="black" d="M1156.95,-71.75C1153.03,-63.12 1149.05,-54.36 1145.5,-46.53"/>
<polygon fill="black" stroke="black" points="1148.74,-45.21 1141.42,-37.55 1142.37,-48.1 1148.74,-45.21"/>
</g>
<!-- 16239 -->
<g id="node28" class="node">
<title>16239</title>
<path fill="#c0c0c0" stroke="black" d="M1220,-36C1220,-36 1190,-36 1190,-36 1184,-36 1178,-30 1178,-24 1178,-24 1178,-12 1178,-12 1178,-6 1184,0 1190,0 1190,0 1220,0 1220,0 1226,0 1232,-6 1232,-12 1232,-12 1232,-24 1232,-24 1232,-30 1226,-36 1220,-36"/>
<text text-anchor="middle" x="1205" y="-13.32" font-family="Helvetica,sans-Serif" font-size="14.00">(...)</text>
</g>
<!-- 16081&#45;&gt;16239 -->
<g id="edge27" class="edge">
<title>16081&#45;&gt;16239</title>
<path fill="none" stroke="black" d="M1190.63,-71.75C1192.93,-63.32 1195.26,-54.77 1197.35,-47.07"/>
<polygon fill="black" stroke="black" points="1200.67,-48.2 1199.92,-37.63 1193.92,-46.36 1200.67,-48.2"/>
</g>
<!-- 16419 -->
<g id="node30" class="node">
<title>16419</title>
<path fill="#c0c0c0" stroke="black" d="M1319,-36C1319,-36 1289,-36 1289,-36 1283,-36 1277,-30 1277,-24 1277,-24 1277,-12 1277,-12 1277,-6 1283,0 1289,0 1289,0 1319,0 1319,0 1325,0 1331,-6 1331,-12 1331,-12 1331,-24 1331,-24 1331,-30 1325,-36 1319,-36"/>
<text text-anchor="middle" x="1304" y="-13.32" font-family="Helvetica,sans-Serif" font-size="14.00">(...)</text>
</g>
<!-- 16418&#45;&gt;16419 -->
<g id="edge29" class="edge">
<title>16418&#45;&gt;16419</title>
<path fill="none" stroke="black" d="M1323.16,-71.75C1320.06,-63.22 1316.92,-54.57 1314.1,-46.8"/>
<polygon fill="black" stroke="black" points="1317.46,-45.8 1310.75,-37.6 1310.88,-48.19 1317.46,-45.8"/>
</g>
<!-- 16528 -->
<g id="node31" class="node">
<title>16528</title>
<path fill="#c0c0c0" stroke="black" d="M1391,-36C1391,-36 1361,-36 1361,-36 1355,-36 1349,-30 1349,-24 1349,-24 1349,-12 1349,-12 1349,-6 1355,0 1361,0 1361,0 1391,0 1391,0 1397,0 1403,-6 1403,-12 1403,-12 1403,-24 1403,-24 1403,-30 1397,-36 1391,-36"/>
<text text-anchor="middle" x="1376" y="-13.32" font-family="Helvetica,sans-Serif" font-size="14.00">(...)</text>
</g>
<!-- 16418&#45;&gt;16528 -->
<g id="edge30" class="edge">
<title>16418&#45;&gt;16528</title>
<path fill="none" stroke="black" d="M1356.84,-71.75C1359.94,-63.22 1363.08,-54.57 1365.9,-46.8"/>
<polygon fill="black" stroke="black" points="1369.12,-48.19 1369.25,-37.6 1362.54,-45.8 1369.12,-48.19"/>
</g>
</g>
</svg>
